<?xml version="1.0" encoding="utf-8"?>
<!-- Generator: Adobe Illustrator 15.0.0, SVG Export Plug-In  -->
<!DOCTYPE svg PUBLIC "-//W3C//DTD SVG 1.1//EN" "http://www.w3.org/Graphics/SVG/1.1/DTD/svg11.dtd" [
	<!ENTITY ns_flows "http://ns.adobe.com/Flows/1.0/">
]>
<svg version="1.1"
	 xmlns="http://www.w3.org/2000/svg" xmlns:xlink="http://www.w3.org/1999/xlink" xmlns:a="http://ns.adobe.com/AdobeSVGViewerExtensions/3.0/"
	 x="0px" y="0px" width="142px" height="142px" viewBox="-30.711 -2.286 142 142" enable-background="new -30.711 -2.286 142 142"
	 xml:space="preserve">
<defs>
</defs>
<path fill-rule="evenodd" clip-rule="evenodd" fill="#303030" d="M48.722,55.809c0.371,0,0.743,0,1.114,0
	C50.036,56.261,48.521,56.261,48.722,55.809z"/>
<path fill-rule="evenodd" clip-rule="evenodd" fill="#A9A9A9" d="M43.146,56.367c0.461,0.211,0.461,2.296,0,2.508
	C43.146,58.039,43.146,57.203,43.146,56.367z"/>
<path fill-rule="evenodd" clip-rule="evenodd" fill="#303030" d="M71.018,99.845c-0.046-0.457,1.72-0.457,1.673,0
	C72.134,99.845,71.575,99.845,71.018,99.845z"/>
<path fill-rule="evenodd" clip-rule="evenodd" fill="#A9A9A9" d="M76.594,108.485c0.456-0.045,0.456,1.718,0,1.672
	C76.594,109.6,76.594,109.043,76.594,108.485z"/>
<path fill-rule="evenodd" clip-rule="evenodd" fill="#303030" d="M50.395,112.108c0,0.465,0,0.93,0,1.395
	C49.938,113.627,49.938,111.983,50.395,112.108z"/>
<path fill-rule="evenodd" clip-rule="evenodd" fill="#303030" d="M53.182,113.223c-0.453,0.199-0.453-1.314,0-1.115
	C53.182,112.48,53.182,112.852,53.182,113.223z"/>
<path fill-rule="evenodd" clip-rule="evenodd" fill="#D9D9D9" d="M50.952,134.405c0.198,0.453-1.314,0.453-1.116,0
	C50.209,134.405,50.579,134.405,50.952,134.405z"/>
<path fill-rule="evenodd" clip-rule="evenodd" fill="#303030" d="M63.215,131.897c0.768-0.533,1.418-1.183,1.951-1.951
	c0.092,0,0.187,0,0.278,0c-0.627,0.861-1.37,1.604-2.229,2.229C63.215,132.083,63.215,131.99,63.215,131.897z"/>
<path fill-rule="evenodd" clip-rule="evenodd" fill="#707070" d="M74.085,119.355c0.459-0.748,1.181-1.233,1.671-1.95
	c0.156,0.401,0.435,0.68,0.838,0.836c0.25,0.491,0.623,0.862,1.113,1.114c-0.098,0.366-0.49,0.438-0.557,0.836
	c-0.762,0.203-0.561-0.554-1.116-0.557C75.313,119.149,74.748,118.499,74.085,119.355z"/>
<path fill-rule="evenodd" clip-rule="evenodd" fill="#303030" d="M76.034,119.634c0.556,0.003,0.354,0.76,1.116,0.557
	C76.897,120.947,76.125,119.957,76.034,119.634z"/>
<path fill-rule="evenodd" clip-rule="evenodd" fill="#303030" d="M76.594,118.241c0.49,0.251,0.861,0.623,1.113,1.114
	C77.217,119.103,76.844,118.732,76.594,118.241z"/>
<path fill-rule="evenodd" clip-rule="evenodd" fill="#303030" d="M77.15,102.632c-0.675-0.439-1.232-0.997-1.673-1.672
	C76.152,101.4,76.712,101.958,77.15,102.632z"/>
<path fill-rule="evenodd" clip-rule="evenodd" fill="#303030" d="M66.559,102.354c0.347-0.583,0.812-1.048,1.395-1.394
	C67.606,101.543,67.142,102.008,66.559,102.354z"/>
<path fill-rule="evenodd" clip-rule="evenodd" fill="#303030" d="M56.247,114.617c0.252-0.491,0.623-0.862,1.115-1.114
	C57.11,113.994,56.737,114.365,56.247,114.617z"/>
<path fill-rule="evenodd" clip-rule="evenodd" fill="#A9A9A9" d="M79.38,84.794c0.253-0.491,0.623-0.863,1.114-1.114
	C80.243,84.171,79.871,84.543,79.38,84.794z"/>
<path fill-rule="evenodd" clip-rule="evenodd" fill="#707070" d="M76.872,71.417c0.49,0.251,0.863,0.623,1.113,1.113
	C77.495,72.28,77.122,71.908,76.872,71.417z"/>
<path fill-rule="evenodd" clip-rule="evenodd" fill="#707070" d="M23.917,16.79c0.252-0.492,0.623-0.863,1.115-1.115
	C24.779,16.167,24.408,16.538,23.917,16.79z"/>
<path fill-rule="evenodd" clip-rule="evenodd" fill="#D9D9D9" d="M63.215,131.897c0.533-0.768,1.184-1.417,1.951-1.951
	C64.633,130.714,63.982,131.364,63.215,131.897z"/>
<path fill-rule="evenodd" clip-rule="evenodd" fill="#D9D9D9" d="M35.065,130.503c0.491,0.252,0.863,0.623,1.115,1.115
	C35.471,131.584,35.099,131.212,35.065,130.503z"/>
<path fill-rule="evenodd" clip-rule="evenodd" fill="#707070" d="M36.737,128.552c0.583,0.347,1.048,0.812,1.393,1.394
	C37.547,129.6,37.083,129.135,36.737,128.552z"/>
<path fill-rule="evenodd" clip-rule="evenodd" fill="#303030" d="M61.82,129.667c0.252-0.491,0.625-0.862,1.116-1.115
	C62.684,129.044,62.313,129.416,61.82,129.667z"/>
<path fill-rule="evenodd" clip-rule="evenodd" fill="#A9A9A9" d="M72.69,116.846c0.082-0.567,0.754-0.546,0.836-1.113
	c0.094,0,0.187,0,0.278,0C73.555,116.223,73.182,116.595,72.69,116.846z"/>
<path fill-rule="evenodd" clip-rule="evenodd" fill="#707070" d="M51.23,115.733c0.49,0.251,0.863,0.623,1.113,1.113
	C51.854,116.595,51.482,116.223,51.23,115.733z"/>
<path fill-rule="evenodd" clip-rule="evenodd" fill="#303030" d="M55.133,91.763c0.438-0.676,0.996-1.233,1.671-1.673
	C56.365,90.766,55.808,91.323,55.133,91.763z"/>
<path fill-rule="evenodd" clip-rule="evenodd" fill="#D9D9D9" d="M76.315,74.482c-0.649-0.188-0.748-0.925-1.395-1.114
	c-0.249-0.123-0.499-0.244-0.558-0.558C75.225,73.156,75.858,73.73,76.315,74.482z"/>
<path fill-rule="evenodd" clip-rule="evenodd" fill="#303030" d="M54.017,61.104c0.768,0.533,1.419,1.183,1.952,1.951
	C55.201,62.522,54.55,61.872,54.017,61.104z"/>
<path fill-rule="evenodd" clip-rule="evenodd" fill="#D9D9D9" d="M21.965,14.838c0.492-0.252,0.864-0.624,1.116-1.115
	c0.093,0,0.186,0,0.278,0c-0.346,0.583-0.811,1.047-1.394,1.394C21.965,15.024,21.965,14.931,21.965,14.838z"/>
<path fill-rule="evenodd" clip-rule="evenodd" fill="#303030" d="M21.965,14.838c0.252-0.491,0.625-0.863,1.116-1.115
	C22.829,14.215,22.457,14.586,21.965,14.838z"/>
<path fill-rule="evenodd" clip-rule="evenodd" fill="#303030" d="M42.312,21.249c0.252-0.491,0.623-0.863,1.115-1.115
	C43.175,20.625,42.803,20.997,42.312,21.249z"/>
<path fill-rule="evenodd" clip-rule="evenodd" fill="#303030" d="M48.722,55.531c-0.236,0.05-0.262-0.109-0.278-0.28
	c-0.084-0.733,0.385-0.914,1.114-0.836c-0.044,0.327-0.509,0.236-0.836,0.279C48.722,54.973,48.722,55.251,48.722,55.531z"/>
<path fill-rule="evenodd" clip-rule="evenodd" fill="#303030" d="M74.921,73.368c0.646,0.189,0.745,0.927,1.395,1.114
	c0,0.094,0,0.187,0,0.279C75.732,74.416,75.268,73.951,74.921,73.368z"/>
<path fill-rule="evenodd" clip-rule="evenodd" fill="#707070" d="M71.297,114.338c0.772-0.663,1.458,1.133,2.229,1.395
	c-0.082,0.567-0.754,0.546-0.836,1.113c0.051,0.237-0.107,0.264-0.278,0.279c0.013-0.477-0.208-0.722-0.557-0.836
	C71.455,115.467,70.234,115.161,71.297,114.338z"/>
<path fill-rule="evenodd" clip-rule="evenodd" fill="#303030" d="M71.855,116.29c-0.779-0.48-2.025-1.471-0.559-1.951
	C70.234,115.161,71.455,115.467,71.855,116.29z"/>
<path fill-rule="evenodd" clip-rule="evenodd" fill="#707070" d="M53.738,52.743c0.271,0.008,0.217,0.341,0.278,0.558
	c0.693,0.853,1.691-0.334,2.787,0c0,0.464,0,0.929,0,1.394c-0.559,0.556-2.258-0.03-2.508,0.836
	C53.865,54.848,53.881,53.716,53.738,52.743z"/>
<path fill-rule="evenodd" clip-rule="evenodd" fill="#707070" d="M11.932,56.087c-1.511,0.162-2.815,0.529-3.902,1.115
	c-0.659-0.363-0.537-1.507-0.836-2.23c1.257-0.508,3.001-0.529,3.902-1.393C11.548,54.241,11.637,55.268,11.932,56.087z"/>
<path fill-rule="evenodd" clip-rule="evenodd" fill="#707070" d="M30.327,57.203c-0.797-1.068-2.65,1.334-3.065-0.279
	c-0.985-1.623,2.029-0.691,2.229-1.951C30.149,55.336,30.028,56.479,30.327,57.203z"/>
<path fill-rule="evenodd" clip-rule="evenodd" fill="#707070" d="M16.391,0.345c0.212-0.46,2.297-0.46,2.508,0
	C18.063,0.345,17.228,0.345,16.391,0.345z"/>
<path fill-rule="evenodd" clip-rule="evenodd" fill="#707070" d="M2.734,14.002c-0.452,0.199-0.452-1.314,0-1.115
	C2.734,13.259,2.734,13.631,2.734,14.002z"/>
<path fill-rule="evenodd" clip-rule="evenodd" fill="#707070" d="M43.984,19.855c-0.127-0.455,1.519-0.455,1.392,0
	C44.914,19.855,44.449,19.855,43.984,19.855z"/>
<path fill-rule="evenodd" clip-rule="evenodd" fill="#707070" d="M47.049,24.036c0.605-0.047,0.127,0.988,0.279,1.394
	C46.723,25.477,47.201,24.441,47.049,24.036z"/>
<path fill-rule="evenodd" clip-rule="evenodd" fill="#707070" d="M49.836,24.593c0.617,0.035,0.118,1.182,0.278,1.673
	C49.499,26.231,49.996,25.083,49.836,24.593z"/>
<path fill-rule="evenodd" clip-rule="evenodd" fill="#707070" d="M50.114,26.823c0.605-0.047,0.126,0.989,0.28,1.394
	C49.79,28.263,50.267,27.228,50.114,26.823z"/>
<path fill-rule="evenodd" clip-rule="evenodd" fill="#A9A9A9" d="M35.344,32.118c-0.458,0.046-0.458-1.718,0-1.672
	C35.344,31.004,35.344,31.561,35.344,32.118z"/>
<path fill-rule="evenodd" clip-rule="evenodd" fill="#707070" d="M48.443,34.07c0.604-0.047,0.126,0.989,0.278,1.393
	C48.117,35.51,48.596,34.475,48.443,34.07z"/>
<path fill-rule="evenodd" clip-rule="evenodd" fill="#707070" d="M51.23,34.906c0.604-0.047,0.126,0.989,0.278,1.394
	C50.903,36.346,51.383,35.311,51.23,34.906z"/>
<path fill-rule="evenodd" clip-rule="evenodd" fill="#707070" d="M51.509,36.856c0.605-0.047,0.126,0.989,0.278,1.394
	C51.183,38.297,51.661,37.262,51.509,36.856z"/>
<path fill-rule="evenodd" clip-rule="evenodd" fill="#707070" d="M52.344,42.709c0.617,0.035,0.119,1.183,0.281,1.672
	C52.008,44.347,52.505,43.199,52.344,42.709z"/>
<path fill-rule="evenodd" clip-rule="evenodd" fill="#707070" d="M49.836,44.103c0.605-0.047,0.126,0.989,0.278,1.394
	C49.512,45.544,49.988,44.508,49.836,44.103z"/>
<path fill-rule="evenodd" clip-rule="evenodd" fill="#707070" d="M52.625,44.939c0.603-0.047,0.126,0.989,0.278,1.394
	C52.298,46.38,52.777,45.344,52.625,44.939z"/>
<path fill-rule="evenodd" clip-rule="evenodd" fill="#707070" d="M52.903,46.89c0.603-0.047,0.126,0.989,0.278,1.394
	C52.576,48.331,53.056,47.295,52.903,46.89z"/>
<path fill-rule="evenodd" clip-rule="evenodd" fill="#707070" d="M51.23,54.137c0.32,0.33,0.314,0.985,0.278,1.672
	c-0.557,0-1.114,0-1.673,0c-0.371,0-0.743,0-1.114,0c0-0.093,0-0.186,0-0.278c0-0.28,0-0.558,0-0.836
	c0.327-0.043,0.792,0.047,0.836-0.279C50.411,54.618,50.377,53.935,51.23,54.137z"/>
<path fill-rule="evenodd" clip-rule="evenodd" fill="#707070" d="M14.44,55.251c-0.248-0.681-0.649-1.208-0.557-2.229
	c1.396,0.005,3.476-1.655,4.181-0.558c-0.114,0.672,0.509,0.606,0.278,1.394C17.428,54.71,15.611,54.657,14.44,55.251z"/>
<path fill-rule="evenodd" clip-rule="evenodd" fill="#707070" d="M32.835,56.087c-0.461-0.281-0.302-1.183-0.557-1.672
	c1.282,0.208,2.219-0.921,3.065-0.278c0,0.372,0,0.743,0,1.114C34.679,55.702,33.558,55.696,32.835,56.087z"/>
<path fill-rule="evenodd" clip-rule="evenodd" fill="#707070" d="M43.146,59.99c-0.16,0.49,0.339,1.638-0.278,1.672
	C43.029,61.172,42.532,60.024,43.146,59.99z"/>
<path fill-rule="evenodd" clip-rule="evenodd" fill="#707070" d="M45.657,61.383c-0.163,0.49,0.336,1.638-0.281,1.672
	C45.537,62.565,45.04,61.417,45.657,61.383z"/>
<path fill-rule="evenodd" clip-rule="evenodd" fill="#707070" d="M42.59,63.892c0.16-0.491-0.336-1.638,0.278-1.673
	C42.708,62.709,43.207,63.857,42.59,63.892z"/>
<path fill-rule="evenodd" clip-rule="evenodd" fill="#707070" d="M45.376,63.892c-0.16,0.49,0.339,1.637-0.278,1.672
	C45.258,65.074,44.762,63.926,45.376,63.892z"/>
<path fill-rule="evenodd" clip-rule="evenodd" fill="#707070" d="M42.59,64.728c-0.16,0.49,0.337,1.637-0.278,1.672
	C42.472,65.91,41.974,64.763,42.59,64.728z"/>
<path fill-rule="evenodd" clip-rule="evenodd" fill="#707070" d="M45.098,66.4c-0.166,0.577,0.345,1.831-0.278,1.951
	C44.985,67.773,44.475,66.52,45.098,66.4z"/>
<path fill-rule="evenodd" clip-rule="evenodd" fill="#707070" d="M42.032,69.188c0.16-0.49-0.337-1.638,0.279-1.673
	C42.151,68.005,42.648,69.153,42.032,69.188z"/>
<path fill-rule="evenodd" clip-rule="evenodd" fill="#707070" d="M44.819,69.188c-0.16,0.49,0.337,1.636-0.278,1.671
	C44.701,70.37,44.204,69.222,44.819,69.188z"/>
<path fill-rule="evenodd" clip-rule="evenodd" fill="#707070" d="M42.032,70.023c-0.16,0.49,0.338,1.638-0.278,1.673
	C41.914,71.206,41.417,70.058,42.032,70.023z"/>
<path fill-rule="evenodd" clip-rule="evenodd" fill="#707070" d="M44.541,71.696c-0.16,0.489,0.337,1.638-0.278,1.672
	C44.423,72.877,43.926,71.731,44.541,71.696z"/>
<path fill-rule="evenodd" clip-rule="evenodd" fill="#707070" d="M41.754,72.531c-0.165,0.578,0.345,1.831-0.278,1.951
	C41.642,73.906,41.131,72.652,41.754,72.531z"/>
<path fill-rule="evenodd" clip-rule="evenodd" fill="#707070" d="M44.263,74.204c-0.166,0.577,0.345,1.831-0.278,1.951
	C44.15,75.579,43.64,74.324,44.263,74.204z"/>
<path fill-rule="evenodd" clip-rule="evenodd" fill="#707070" d="M41.476,75.319c-0.16,0.49,0.336,1.637-0.279,1.672
	C41.357,76.5,40.859,75.354,41.476,75.319z"/>
<path fill-rule="evenodd" clip-rule="evenodd" fill="#707070" d="M78.545,80.057c0.45-0.199,0.45,1.313,0,1.114
	C78.545,80.8,78.545,80.428,78.545,80.057z"/>
<path fill-rule="evenodd" clip-rule="evenodd" fill="#707070" d="M39.246,82.565c0.65,0,1.301,0,1.951,0
	C41.159,83.024,39.284,83.024,39.246,82.565z"/>
<path fill-rule="evenodd" clip-rule="evenodd" fill="#707070" d="M52.344,99.009c-0.151,0.405,0.327,1.441-0.278,1.395
	C52.218,99.998,51.741,98.962,52.344,99.009z"/>
<path fill-rule="evenodd" clip-rule="evenodd" fill="#707070" d="M79.102,107.092c0.615,0.034,0.118,1.182,0.278,1.673
	C78.765,108.73,79.262,107.582,79.102,107.092z"/>
<path fill-rule="evenodd" clip-rule="evenodd" fill="#707070" d="M79.38,109.6c-0.16,0.49,0.337,1.638-0.278,1.673
	C79.262,110.782,78.765,109.635,79.38,109.6z"/>
<path fill-rule="evenodd" clip-rule="evenodd" fill="#707070" d="M54.574,114.896c0.372,0,0.743,0,1.115,0
	C55.889,115.348,54.376,115.348,54.574,114.896z"/>
<path fill-rule="evenodd" clip-rule="evenodd" fill="#FFFFFF" d="M11.096,53.58c-2.001-7.261-4.492-15.311-6.689-23.134
	c-0.482-1.716-0.918-3.535-1.394-5.295c-0.208-0.772-0.334-1.721-0.557-2.509c-0.416-1.466-1.213-3.141-1.672-4.738
	c-0.255-0.884-0.41-1.978-0.558-2.787c-0.591-3.229-0.08-4.027,2.23-5.574c0.349-0.234,0.552-0.63,0.836-0.836
	C4.674,7.703,6.235,6.818,7.473,5.92C8.18,5.405,8.709,4.77,9.423,4.248c0.637-0.465,1.342-0.953,1.951-1.394
	c1.55-1.121,2.885-2.243,5.017-2.508c0.836,0,1.672,0,2.508,0c3.972,0.805,8.185,1.881,12.263,2.788
	c1.477,0.328,3.39,0.986,4.181,2.508c0,0.186,0,0.372,0,0.557c0,0.743,0,1.487,0,2.23c-0.314,2.046-2.493,2.574-4.181,3.623
	c-1.693,1.053-3.928,2.623-6.131,3.623c-0.492,0.252-0.863,0.624-1.115,1.115c-0.658,1.561-1.41,2.824-0.836,5.295
	c0.375,1.616,1.363,4.365,1.951,6.41c2.399,8.347,5.148,17.85,7.247,25.92c0.254,0.489,0.095,1.391,0.557,1.672
	c0.981,3.387,2.134,7.099,3.066,10.591c0.534,2.001,1.073,3.787,1.673,6.131c0.125,0.493,0.414,0.883,0.557,1.394
	c0.569,2.03,0.554,4.26,1.952,5.854c1.084-0.309,0.674-2.113,1.115-3.066c0.615-0.035,0.119-1.182,0.279-1.672
	c0-0.278,0-0.558,0-0.837c0.623-0.12,0.113-1.373,0.278-1.951c0-0.278,0-0.557,0-0.835c0.616-0.035,0.118-1.183,0.278-1.673
	c0-0.278,0-0.557,0-0.835c0.616-0.035,0.119-1.183,0.279-1.673c0-0.371,0-0.743,0-1.115c0.615-0.035,0.118-1.182,0.278-1.672
	c0-0.279,0-0.558,0-0.836c0.617-0.035,0.118-1.183,0.278-1.673c0-0.186,0-0.371,0-0.557c0.617-0.035,0.118-1.183,0.278-1.672
	c0-0.372,0-0.743,0-1.115c0.461-0.212,0.461-2.297,0-2.508c-0.523-5.176-3.48-8.938-5.573-13.1
	c-0.583-1.159-0.913-2.573-1.673-3.902c-0.164-0.288-0.653-0.495-0.836-0.836c-0.398-0.74-0.703-1.682-1.115-2.508
	c-0.509-1.019-1.087-1.594-1.115-3.066c0-1.207,0-2.415,0-3.623c0-0.279,0-0.557,0-0.836c0.767-1.986,3.324-4.201,5.017-6.132
	c0.449-0.511,0.695-1.189,1.114-1.672c0.458-0.527,0.98-0.976,1.394-1.394c1.438-1.452,2.22-2.714,5.297-2.229
	c3.181,0.502,4.087,3.402,4.179,7.525c0.16,0.49-0.337,1.638,0.278,1.673c0,0.185,0,0.371,0,0.557
	c0.152,0.405-0.324,1.44,0.28,1.394c0.393,2.114,0.746,4.27,0.836,6.689c0.152,0.405-0.327,1.44,0.278,1.394
	c0,0.186,0,0.371,0,0.557c0.152,0.405-0.326,1.44,0.278,1.394c0.271,1.401,0.589,2.756,0.557,4.459
	c0.161,0.49-0.336,1.638,0.281,1.672c0,0.186,0,0.372,0,0.557c0.152,0.405-0.327,1.441,0.278,1.394c0,0.186,0,0.371,0,0.557
	c0.152,0.405-0.327,1.44,0.278,1.394c0.271,1.401,0.587,2.757,0.557,4.459c0.143,0.973,0.127,2.104,0.558,2.788
	c0.721,1.937,1.721,4.006,3.346,5.295c1.117,0.888,2.696,1.433,4.179,2.229c3.558,1.911,8.33,4.222,12.265,6.41
	c0.381,0.212,0.737,0.607,1.114,0.836c0.653,0.397,1.393,0.347,1.673,1.115c0.25,0.49,0.623,0.862,1.113,1.113
	c1.983,2.103,5.017,8.389,2.509,11.149c-0.491,0.251-0.861,0.623-1.114,1.114c-2.111,1.47-4.726,1.757-7.246,2.509
	c-0.779,0.233-1.438,0.6-2.229,0.836c-3.378,1.011-6.962,1.468-9.755,3.066c-6.469,3.7-5.199,12.428-6.968,20.902
	c-0.453-0.199-0.453,1.314,0,1.115c0.048,0.974,0.641,1.402,1.393,1.673c-0.198,0.452,1.314,0.452,1.115,0
	c0.225-0.053,0.277-0.279,0.558-0.279c0.49-0.252,0.863-0.623,1.115-1.114c2.947-3.835,6.175-7.39,9.196-11.148
	c0.583-0.346,1.048-0.811,1.395-1.394c0.885-0.509,1.494-1.294,3.064-1.115c0.558,0,1.116,0,1.673,0
	c1.415-0.113,1.941,0.661,2.787,1.115c0.44,0.675,0.998,1.232,1.673,1.672c0.833,1.304,1.835,2.438,1.951,4.46
	c0.16,0.489-0.337,1.638,0.278,1.673c0,0.278,0,0.557,0,0.835c-0.615,0.035-0.118,1.182-0.278,1.673
	c-0.353,2.806-1.675,4.643-3.346,6.132c-0.49,0.717-1.212,1.202-1.671,1.95c-2.646,3.766-5.874,6.948-8.641,10.591
	c-0.092,0-0.187,0-0.278,0c-0.768,0.534-1.418,1.184-1.951,1.951c0,0.093,0,0.187,0,0.278c-2.981,2.222-5.906,4.499-10.871,4.738
	c-1.67,0-3.343,0-5.016,0c-4.998-0.482-8.481-2.481-11.148-5.295c-0.252-0.492-0.624-0.863-1.115-1.115
	c-4.045-3.571-5.175-11.055-6.968-17.28c-1.766-6.131-3.999-13.769-5.853-20.346c-3.623-12.85-7.344-25.1-10.313-36.79
	C11.637,55.268,11.548,54.241,11.096,53.58z M23.359,13.724c2.769-2.434,6.631-3.774,9.476-6.131
	C32.583,5.927,30.7,6.262,29.49,5.92c-2.722-0.771-5.261-1.589-7.804-2.23c-1.437-0.362-3.563-0.924-4.459-0.836
	c-1.549,0.152-3.068,1.729-4.181,2.23c-0.088,0.04-0.179,0.488-0.279,0.558c-1.086,0.752-1.943,1.333-2.787,1.951
	c-3.022,2.209-5.591,3.896-7.247,5.295c-0.452-0.199-0.452,1.314,0,1.115c3.848,12.874,7.403,26.042,11.148,39.02
	c-0.092,1.021,0.31,1.548,0.557,2.229c0.945,3.129,1.907,6.068,2.788,9.198c4.424,15.726,8.732,31.35,13.099,46.546
	c1.737,6.042,2.921,12.447,6.411,17.558c0.346,0.583,0.81,1.048,1.393,1.394c3.107,2.281,6.491,4.287,11.706,4.459
	c-0.198,0.453,1.314,0.453,1.116,0c4.704-0.496,8.039-2.363,10.868-4.737c0.493-0.252,0.863-0.623,1.116-1.115
	c3.011-3.955,6.334-7.6,9.476-11.427c0.171-0.016,0.329-0.042,0.278-0.279c0.491-0.251,0.864-0.623,1.114-1.113
	c0.978-1.811,2.492-3.084,2.789-5.576c0.456,0.046,0.456-1.717,0-1.672c-0.471-2.781-1.753-4.75-3.903-5.853
	c-0.038-0.459-1.913-0.459-1.951,0c-1.629,0.737-2.546,2.316-3.622,3.623c-2.241,2.723-4.565,5.256-6.689,7.805
	c-1.062,1.273-1.965,3.138-3.902,3.345c-0.928,0-1.857,0-2.787,0c-0.69,0.042-1.155-0.145-1.395-0.559
	c-0.25-0.49-0.623-0.862-1.113-1.113c-0.497-0.527-0.92-1.126-0.836-2.23c0-0.465,0-0.93,0-1.395
	c0.311-4.148,1.034-7.884,1.671-11.704c0.605,0.047,0.127-0.989,0.278-1.395c0.059-3.287,1.419-5.272,2.789-7.246
	c0.675-0.44,1.232-0.997,1.671-1.673c1.976-2.059,5.137-2.548,7.806-3.344c0.978-0.293,1.825-0.83,2.786-1.115
	c1.943-0.579,3.991-1.131,5.853-1.673c1.943-0.564,4.087-0.6,5.297-2.229c0-0.186,0-0.371,0-0.558c0.45,0.199,0.45-1.313,0-1.114
	c-0.718-1.792-1.154-3.864-2.229-5.296c0-0.093,0-0.186,0-0.279c-0.457-0.752-1.091-1.326-1.952-1.672
	c-5.992-2.833-11.52-6.132-17.56-8.918c-0.156-0.401-0.435-0.681-0.835-0.836c-0.533-0.768-1.185-1.418-1.952-1.951
	c-1.092-1.509-2.131-3.071-2.508-5.295c0.036-0.687,0.042-1.343-0.278-1.672c-0.437-2.813-1.026-5.477-1.116-8.64
	c-0.152-0.405,0.327-1.441-0.278-1.394c-0.437-2.813-1.025-5.478-1.114-8.64c-0.152-0.404,0.325-1.44-0.278-1.393
	c-0.438-2.814-1.025-5.478-1.115-8.64c-0.152-0.405,0.326-1.44-0.279-1.394c-0.391-1.561-0.222-3.68-1.673-4.181
	c0.127-0.455-1.519-0.455-1.392,0c-0.281-0.001-0.333,0.226-0.558,0.279c-0.492,0.252-0.863,0.624-1.115,1.115
	c-2.165,3.224-5.525,5.252-6.968,9.197c-0.458-0.045-0.458,1.718,0,1.672c1.52,3.946,3.771,7.285,5.574,10.87
	c0.447,0.887,0.638,1.888,1.115,2.787c0.476,0.894,1.2,1.57,1.673,2.508c0.96,1.909,1.697,4.088,1.952,6.411
	c0,1.951,0,3.902,0,5.853c0,0.279,0,0.557,0,0.836c-0.617,0.034-0.12,1.182-0.281,1.672c0,0.279,0,0.557,0,0.836
	c-0.614,0.034-0.118,1.182-0.278,1.672c0,0.278,0,0.557,0,0.835c-0.623,0.12-0.112,1.374-0.278,1.951c0,0.279,0,0.557,0,0.836
	c-0.615,0.034-0.118,1.182-0.278,1.671c0,0.28,0,0.559,0,0.837c-0.615,0.035-0.118,1.182-0.278,1.672c0,0.279,0,0.558,0,0.836
	c-0.623,0.12-0.112,1.375-0.278,1.951c-0.11,2.956-0.207,5.927-2.788,6.41c-0.65,0-1.301,0-1.951,0
	c-2.33-0.361-2.5-2.55-3.066-4.458c-2.042-6.885-4.216-14.423-5.853-20.904c-0.299-0.723-0.177-1.867-0.836-2.23
	C26.606,43.643,23,33.036,20.293,21.527c0-0.929,0-1.858,0-2.787c0.041-1.725,0.732-2.798,1.671-3.624
	C22.548,14.771,23.013,14.307,23.359,13.724z"/>
<path fill-rule="evenodd" clip-rule="evenodd" fill="#D9D9D9" d="M32.835,29.332c0,1.208,0,2.416,0,3.623
	C32.373,32.383,32.373,29.903,32.835,29.332z"/>
<path fill-rule="evenodd" clip-rule="evenodd" fill="#D9D9D9" d="M45.657,54.694c0.463,1.306,0.463,4.546,0,5.853
	C45.657,58.596,45.657,56.645,45.657,54.694z"/>
<path fill-rule="evenodd" clip-rule="evenodd" fill="#D9D9D9" d="M53.738,117.405c0.93,0,1.859,0,2.787,0
	C56.225,117.866,54.039,117.866,53.738,117.405z"/>
<path fill-rule="evenodd" clip-rule="evenodd" fill="#A9A9A9" d="M35.344,6.198c0.46,0.125,0.46,2.106,0,2.23
	C35.344,7.685,35.344,6.941,35.344,6.198z"/>
<path fill-rule="evenodd" clip-rule="evenodd" fill="#A9A9A9" d="M47.328,136.914c1.673,0,3.346,0,5.016,0
	C51.314,137.377,48.357,137.377,47.328,136.914z"/>
<path fill-rule="evenodd" clip-rule="evenodd" fill="#707070" d="M20.293,18.741c0,0.929,0,1.857,0,2.787
	C19.832,21.227,19.832,19.041,20.293,18.741z"/>
<path fill-rule="evenodd" clip-rule="evenodd" fill="#303030" d="M70.739,102.632c0.038-0.459,1.913-0.459,1.951,0
	C72.04,102.632,71.391,102.632,70.739,102.632z"/>
</svg>
