<?xml version="1.0" encoding="utf-8"?>
<!-- Generator: Adobe Illustrator 15.0.0, SVG Export Plug-In  -->
<!DOCTYPE svg PUBLIC "-//W3C//DTD SVG 1.1//EN" "http://www.w3.org/Graphics/SVG/1.1/DTD/svg11.dtd" [
	<!ENTITY ns_flows "http://ns.adobe.com/Flows/1.0/">
]>
<svg version="1.1"
	 xmlns="http://www.w3.org/2000/svg" xmlns:xlink="http://www.w3.org/1999/xlink" xmlns:a="http://ns.adobe.com/AdobeSVGViewerExtensions/3.0/"
	 x="0px" y="0px" width="142px" height="142px" viewBox="-30.591 -2.338 142 142" enable-background="new -30.591 -2.338 142 142"
	 xml:space="preserve">
<defs>
</defs>
<path fill-rule="evenodd" clip-rule="evenodd" fill="#1A1A1A" d="M44.104,17.016c-0.201-0.452,1.313-0.452,1.113,0
	C44.848,17.016,44.475,17.016,44.104,17.016z"/>
<path fill-rule="evenodd" clip-rule="evenodd" fill="#C2C2C2" d="M49.956,44.05c0-0.093,0-0.186,0-0.279
	c0.379,0.087,0.232,0.698,0.278,1.115C49.91,44.84,49.932,44.446,49.956,44.05z"/>
<path fill-rule="evenodd" clip-rule="evenodd" fill="#363636" d="M45.496,54.084c0.095,0,0.187,0,0.281,0c0,0.186,0,0.372,0,0.558
	c0,0.186,0,0.372,0,0.557c-0.095,0-0.187,0-0.281,0C45.496,54.827,45.496,54.456,45.496,54.084z"/>
<path fill-rule="evenodd" clip-rule="evenodd" fill="#1A1A1A" d="M45.777,54.642c0.603-0.047,0.126,0.989,0.278,1.393
	c-0.095,0-0.187,0-0.278,0c0-0.278,0-0.557,0-0.836C45.777,55.013,45.777,54.827,45.777,54.642z"/>
<path fill-rule="evenodd" clip-rule="evenodd" fill="#363636" d="M45.777,56.035c0.092,0,0.184,0,0.278,0c0,1.022,0,2.044,0,3.066
	c-0.095,0-0.187,0-0.278,0c0-0.65,0-1.3,0-1.951C45.777,56.778,45.777,56.407,45.777,56.035z"/>
<path fill-rule="evenodd" clip-rule="evenodd" fill="#7A7A7A" d="M42.988,56.592c0.641,0.568,0.102,2.315,0.278,3.345
	c-0.092,0-0.185,0-0.278,0C42.988,58.822,42.988,57.707,42.988,56.592z"/>
<path fill-rule="evenodd" clip-rule="evenodd" fill="#1A1A1A" d="M45.777,59.379c0-0.092,0-0.186,0-0.279c0.092,0,0.184,0,0.278,0
	c-0.16,0.49,0.336,1.638-0.278,1.673C45.777,60.309,45.777,59.844,45.777,59.379z"/>
<path fill-rule="evenodd" clip-rule="evenodd" fill="#C2C2C2" d="M45.777,59.379c0,0.464,0,0.929,0,1.394c-0.095,0-0.187,0-0.281,0
	C45.648,60.368,45.172,59.333,45.777,59.379z"/>
<path fill-rule="evenodd" clip-rule="evenodd" fill="#C2C2C2" d="M42.988,59.937c0.094,0,0.187,0,0.278,0
	c-0.151,0.405,0.326,1.44-0.278,1.394C42.988,60.866,42.988,60.401,42.988,59.937z"/>
<path fill-rule="evenodd" clip-rule="evenodd" fill="#7A7A7A" d="M45.496,60.773c0.095,0,0.187,0,0.281,0c0,0.464,0,0.929,0,1.393
	c-0.095,0-0.187,0-0.281,0C45.496,61.702,45.496,61.237,45.496,60.773z"/>
<path fill-rule="evenodd" clip-rule="evenodd" fill="#7A7A7A" d="M39.923,70.806c0.2,0.453-1.314,0.453-1.115,0
	C39.18,70.806,39.551,70.806,39.923,70.806z"/>
<path fill-rule="evenodd" clip-rule="evenodd" fill="#1A1A1A" d="M44.661,71.921c-0.152,0.404,0.326,1.44-0.278,1.394
	C44.535,72.91,44.056,71.875,44.661,71.921z"/>
<path fill-rule="evenodd" clip-rule="evenodd" fill="#1A1A1A" d="M44.383,74.708c-0.152,0.405,0.326,1.441-0.278,1.394
	C44.257,75.697,43.777,74.661,44.383,74.708z"/>
<path fill-rule="evenodd" clip-rule="evenodd" fill="#1A1A1A" d="M41.596,75.266c-0.152,0.404,0.325,1.44-0.279,1.394
	C41.469,76.254,40.991,75.219,41.596,75.266z"/>
<path fill-rule="evenodd" clip-rule="evenodd" fill="#1A1A1A" d="M44.104,77.217c-0.049,0.417,0.098,1.029-0.279,1.115
	C43.874,77.915,43.726,77.303,44.104,77.217z"/>
<path fill-rule="evenodd" clip-rule="evenodd" fill="#1A1A1A" d="M43.825,78.889c-0.048,0.418,0.099,1.029-0.278,1.115
	C43.593,79.587,43.447,78.975,43.825,78.889z"/>
<path fill-rule="evenodd" clip-rule="evenodd" fill="#1A1A1A" d="M81.451,80.283c0.451-0.199,0.451,1.314,0,1.115
	C81.451,81.026,81.451,80.654,81.451,80.283z"/>
<path fill-rule="evenodd" clip-rule="evenodd" fill="#1A1A1A" d="M39.366,82.512c0.65,0,1.301,0,1.951,0
	C41.279,82.971,39.404,82.971,39.366,82.512z"/>
<path fill-rule="evenodd" clip-rule="evenodd" fill="#1A1A1A" d="M51.907,102.58c-0.046,0.418,0.101,1.028-0.278,1.115
	C51.677,103.278,51.528,102.666,51.907,102.58z"/>
<path fill-rule="evenodd" clip-rule="evenodd" fill="#1A1A1A" d="M54.416,104.252c-0.047,0.417,0.1,1.028-0.279,1.115
	C54.186,104.95,54.037,104.338,54.416,104.252z"/>
<path fill-rule="evenodd" clip-rule="evenodd" fill="#1A1A1A" d="M51.629,104.531c-0.048,0.417,0.101,1.028-0.278,1.115
	C51.398,105.229,51.25,104.617,51.629,104.531z"/>
<path fill-rule="evenodd" clip-rule="evenodd" fill="#1A1A1A" d="M54.137,106.203c-0.046,0.417,0.101,1.028-0.278,1.115
	C53.907,106.901,53.759,106.29,54.137,106.203z"/>
<path fill-rule="evenodd" clip-rule="evenodd" fill="#1A1A1A" d="M51.072,108.154c-0.049,0.417,0.098,1.029-0.278,1.115
	C50.84,108.852,50.693,108.24,51.072,108.154z"/>
<path fill-rule="evenodd" clip-rule="evenodd" fill="#1A1A1A" d="M53.58,109.826c-0.048,0.418,0.101,1.029-0.278,1.116
	C53.348,110.524,53.201,109.912,53.58,109.826z"/>
<path fill-rule="evenodd" clip-rule="evenodd" fill="#1A1A1A" d="M50.794,110.104c-0.049,0.418,0.098,1.03-0.279,1.116
	C50.562,110.802,50.415,110.192,50.794,110.104z"/>
<path fill-rule="evenodd" clip-rule="evenodd" fill="#1A1A1A" d="M53.302,111.777c0,0.558,0,1.115,0,1.673
	C52.843,113.495,52.843,111.731,53.302,111.777z"/>
<path fill-rule="evenodd" clip-rule="evenodd" fill="#1A1A1A" d="M50.515,112.055c0,0.465,0,0.93,0,1.395
	C50.059,113.575,50.059,111.93,50.515,112.055z"/>
<path fill-rule="evenodd" clip-rule="evenodd" fill="#C2C2C2" d="M49.121,134.352c0.557,0,1.113,0,1.673,0
	C50.838,134.81,49.074,134.81,49.121,134.352z"/>
<path fill-rule="evenodd" clip-rule="evenodd" fill="#1A1A1A" d="M35.185,130.729c0.491,0.252,0.863,0.624,1.115,1.115
	C35.809,131.593,35.437,131.221,35.185,130.729z"/>
<path fill-rule="evenodd" clip-rule="evenodd" fill="#1A1A1A" d="M63.335,132.123c0.627-0.859,1.368-1.603,2.229-2.229
	C64.938,130.754,64.194,131.497,63.335,132.123z"/>
<path fill-rule="evenodd" clip-rule="evenodd" fill="#7A7A7A" d="M75.041,118.466c0.378,0.83,1.258,1.157,1.951,1.672
	c-0.505,2.391-1.976,0.45-3.067-0.278c0.082-0.568,0.755-0.547,0.838-1.115C74.71,118.507,74.87,118.482,75.041,118.466z"/>
<path fill-rule="evenodd" clip-rule="evenodd" fill="#363636" d="M75.598,100.908c0.583,0.346,1.048,0.811,1.395,1.394
	C76.409,101.956,75.944,101.491,75.598,100.908z"/>
<path fill-rule="evenodd" clip-rule="evenodd" fill="#363636" d="M66.679,102.301c0.252-0.492,0.625-0.862,1.115-1.115
	C67.542,101.678,67.171,102.049,66.679,102.301z"/>
<path fill-rule="evenodd" clip-rule="evenodd" fill="#1A1A1A" d="M63.335,106.203c0.252-0.491,0.623-0.862,1.113-1.115
	c-0.08,0.569-0.753,0.547-0.835,1.115C63.521,106.203,63.427,106.203,63.335,106.203z"/>
<path fill-rule="evenodd" clip-rule="evenodd" fill="#7A7A7A" d="M79.5,84.742c0.253-0.491,0.623-0.863,1.114-1.114
	C80.363,84.119,79.991,84.491,79.5,84.742z"/>
<path fill-rule="evenodd" clip-rule="evenodd" fill="#7A7A7A" d="M52.464,42.657c0.379,0.086,0.232,0.698,0.281,1.115
	c0.184,0,0.37,0,0.557,0c0.404-0.152,1.44,0.326,1.393-0.278c0.28,0,0.559,0,0.837,0c0.022,0.441-0.134,1.063,0.278,1.115
	c-0.046,0.327-0.509,0.235-0.835,0.278c-0.406,0.153-1.442-0.325-1.395,0.279c-0.595-0.13-0.53,0.398-0.557,0.836
	C52.549,45.175,52.717,43.707,52.464,42.657z"/>
<path fill-rule="evenodd" clip-rule="evenodd" fill="#7A7A7A" d="M40.202,19.524c0.346-0.583,0.81-1.047,1.394-1.394
	C41.249,18.713,40.785,19.178,40.202,19.524z"/>
<path fill-rule="evenodd" clip-rule="evenodd" fill="#363636" d="M29.332,43.214c0.186,0,0.372,0,0.558,0
	c-0.147,0.224-0.291,0.453-0.279,0.836C29.284,44.005,29.376,43.542,29.332,43.214z"/>
<path fill-rule="evenodd" clip-rule="evenodd" fill="#363636" d="M31.004,42.936c0.063-0.401,0.832-0.097,0.836-0.557
	C32.54,42.497,31.573,43.174,31.004,42.936z"/>
<path fill-rule="evenodd" clip-rule="evenodd" fill="#7A7A7A" d="M24.037,16.737c0.252-0.492,0.623-0.863,1.115-1.115
	C24.899,16.114,24.528,16.485,24.037,16.737z"/>
<path fill-rule="evenodd" clip-rule="evenodd" fill="#C2C2C2" d="M47.448,17.852c0.492,0.252,0.863,0.624,1.115,1.115
	C48.071,18.715,47.7,18.343,47.448,17.852z"/>
<path fill-rule="evenodd" clip-rule="evenodd" fill="#C2C2C2" d="M63.613,106.203c0.082-0.568,0.755-0.546,0.835-1.115
	c-0.05-0.236,0.11-0.262,0.281-0.278C64.709,105.626,64.09,105.845,63.613,106.203z"/>
<path fill-rule="evenodd" clip-rule="evenodd" fill="#C2C2C2" d="M73.09,120.696c0.346-0.861,0.919-1.495,1.673-1.951
	c-0.083,0.568-0.756,0.547-0.838,1.115c-0.259,0.204-0.421,0.507-0.557,0.836C73.275,120.696,73.182,120.696,73.09,120.696z"/>
<path fill-rule="evenodd" clip-rule="evenodd" fill="#C2C2C2" d="M63.057,132.123c0.719-0.952,1.555-1.788,2.508-2.508
	c0,0.093,0,0.186,0,0.278c-0.861,0.627-1.603,1.37-2.229,2.229C63.242,132.123,63.148,132.123,63.057,132.123z"/>
<path fill-rule="evenodd" clip-rule="evenodd" fill="#7A7A7A" d="M36.3,131.844c-0.252-0.491-0.624-0.863-1.115-1.115
	c-0.053-0.225-0.28-0.277-0.279-0.557c0.675,0.438,1.233,0.997,1.672,1.672C36.486,131.844,36.393,131.844,36.3,131.844z"/>
<path fill-rule="evenodd" clip-rule="evenodd" fill="#7A7A7A" d="M15.954,59.937c-0.273-0.841-0.569-1.66-0.836-2.509
	c1.454,0.791,2.701-0.752,4.459-0.557c-0.198,1.034,0.476,1.196,0.279,2.229C18.26,59.083,17.491,59.895,15.954,59.937z"/>
<path fill-rule="evenodd" clip-rule="evenodd" fill="#C2C2C2" d="M36.857,128.5c0.647,0.189,0.746,0.927,1.393,1.115
	c0.249,0.124,0.499,0.244,0.558,0.558C37.947,129.826,37.313,129.251,36.857,128.5z"/>
<path fill-rule="evenodd" clip-rule="evenodd" fill="#7A7A7A" d="M61.384,130.172c0.252-0.491,0.623-0.863,1.115-1.115
	C62.247,129.548,61.874,129.921,61.384,130.172z"/>
<path fill-rule="evenodd" clip-rule="evenodd" fill="#363636" d="M73.925,103.137c0.493,0.252,0.863,0.623,1.116,1.115
	C74.55,104,74.177,103.628,73.925,103.137z"/>
<path fill-rule="evenodd" clip-rule="evenodd" fill="#363636" d="M68.63,104.252c0.252-0.492,0.625-0.863,1.116-1.115
	C69.493,103.628,69.121,104,68.63,104.252z"/>
<path fill-rule="evenodd" clip-rule="evenodd" fill="#7A7A7A" d="M65.286,108.154c0.25-0.49,0.623-0.863,1.114-1.114
	C66.149,107.53,65.777,107.903,65.286,108.154z"/>
<path fill-rule="evenodd" clip-rule="evenodd" fill="#C2C2C2" d="M56.089,90.874c0.448-0.386,0.881-0.789,1.394-1.115
	C57.124,90.237,56.906,90.855,56.089,90.874z"/>
<path fill-rule="evenodd" clip-rule="evenodd" fill="#363636" d="M54.416,61.331c0.49,0.252,0.863,0.624,1.115,1.115
	C55.039,62.194,54.668,61.822,54.416,61.331z"/>
<path fill-rule="evenodd" clip-rule="evenodd" fill="#C2C2C2" d="M41.874,21.753c0.305-0.718,0.704-1.339,1.393-1.672
	c-0.08,0.569-0.753,0.547-0.835,1.115C42.308,21.444,42.187,21.694,41.874,21.753z"/>
<path fill-rule="evenodd" clip-rule="evenodd" fill="#7A7A7A" d="M34.349,71.086c0.583,0.345,1.048,0.81,1.394,1.392
	c-0.568-0.081-0.546-0.753-1.115-0.835C34.356,71.635,34.411,71.301,34.349,71.086z"/>
<path fill-rule="evenodd" clip-rule="evenodd" fill="#C2C2C2" d="M22.085,14.786c0.492-0.252,0.864-0.624,1.116-1.115
	c0.093,0,0.186,0,0.278,0c-0.346,0.583-0.811,1.047-1.394,1.394C22.085,14.972,22.085,14.878,22.085,14.786z"/>
<path fill-rule="evenodd" clip-rule="evenodd" fill="#1A1A1A" d="M22.085,14.786c0.252-0.491,0.625-0.863,1.116-1.115
	C22.949,14.162,22.577,14.534,22.085,14.786z"/>
<path fill-rule="evenodd" clip-rule="evenodd" fill="#1A1A1A" d="M42.152,82.234c0.252-0.492,0.624-0.863,1.114-1.115
	C43.016,81.611,42.645,81.983,42.152,82.234z"/>
<path fill-rule="evenodd" clip-rule="evenodd" fill="#1A1A1A" d="M42.432,21.196c0.082-0.568,0.755-0.546,0.835-1.115
	c0.095,0,0.187,0,0.28,0C43.295,20.573,42.923,20.944,42.432,21.196z"/>
<path fill-rule="evenodd" clip-rule="evenodd" fill="#1A1A1A" d="M51.072,115.4c0.675,0.44,1.231,0.998,1.673,1.673
	C52.067,116.633,51.511,116.076,51.072,115.4z"/>
<path fill-rule="evenodd" clip-rule="evenodd" fill="#1A1A1A" d="M58.04,116.793c0.438-0.675,0.995-1.231,1.673-1.672
	C59.271,115.797,58.715,116.355,58.04,116.793z"/>
<path fill-rule="evenodd" clip-rule="evenodd" fill="#1A1A1A" d="M59.991,114.564c0.25-0.491,0.623-0.862,1.114-1.114
	C60.853,113.941,60.482,114.312,59.991,114.564z"/>
<path fill-rule="evenodd" clip-rule="evenodd" fill="#1A1A1A" d="M61.384,112.892c0.252-0.491,0.623-0.862,1.115-1.115
	C62.247,112.269,61.874,112.64,61.384,112.892z"/>
<path fill-rule="evenodd" clip-rule="evenodd" fill="#1A1A1A" d="M62.778,111.22c0.25-0.492,0.623-0.863,1.113-1.116
	C63.642,110.596,63.269,110.967,62.778,111.22z"/>
<path fill-rule="evenodd" clip-rule="evenodd" fill="#1A1A1A" d="M64.17,109.547c0.253-0.491,0.625-0.863,1.116-1.115
	C65.034,108.924,64.663,109.296,64.17,109.547z"/>
<path fill-rule="evenodd" clip-rule="evenodd" fill="#7A7A7A" d="M71.695,118.188c-0.563-0.646-0.926-1.489-1.949-1.673
	c0.029-0.712,0.511-0.976,0.835-1.394c1.286,0.015,1.014,1.588,2.509,1.394C72.703,117.15,72.126,117.595,71.695,118.188z"/>
<path fill-rule="evenodd" clip-rule="evenodd" fill="#1A1A1A" d="M38.25,129.615c-0.647-0.188-0.746-0.926-1.393-1.115
	c0-0.092,0-0.186,0-0.278C37.44,128.568,37.905,129.032,38.25,129.615z"/>
<path fill-rule="evenodd" clip-rule="evenodd" fill="#363636" d="M30.726,41.542c-0.089-0.493,1.561-0.498,1.115,0.278
	C31.592,41.604,31.211,41.521,30.726,41.542z"/>
<path fill-rule="evenodd" clip-rule="evenodd" fill="#7A7A7A" d="M29.332,43.214c-0.222-0.521-0.466-1.021-0.558-1.672
	c0.62,0.645,1.087-0.095,1.951,0c0.485-0.022,0.867,0.062,1.115,0.278c0,0.186,0,0.372,0,0.558c-0.004,0.46-0.773,0.156-0.836,0.557
	c-0.248,0.216-0.629,0.3-1.115,0.279C29.704,43.214,29.518,43.214,29.332,43.214z"/>
<path fill-rule="evenodd" clip-rule="evenodd" fill="#363636" d="M8.986,60.495c-0.541,0.11-0.407-1.27,0.279-0.836
	C9.117,59.882,8.974,60.111,8.986,60.495z"/>
<path fill-rule="evenodd" clip-rule="evenodd" fill="#1A1A1A" d="M56.089,114.843c0.532-0.769,1.184-1.418,1.951-1.951
	C57.507,113.66,56.855,114.31,56.089,114.843z"/>
<path fill-rule="evenodd" clip-rule="evenodd" fill="#1A1A1A" d="M58.318,112.334c0.252-0.491,0.623-0.863,1.114-1.114
	C59.182,111.711,58.81,112.083,58.318,112.334z"/>
<path fill-rule="evenodd" clip-rule="evenodd" fill="#1A1A1A" d="M59.713,110.663c0.25-0.491,0.623-0.863,1.113-1.115
	C60.574,110.04,60.203,110.411,59.713,110.663z"/>
<path fill-rule="evenodd" clip-rule="evenodd" fill="#363636" d="M60.826,108.712c1.451,0.621,3.549,0.21,4.46-0.559
	c0,0.094,0,0.187,0,0.278c-0.491,0.252-0.863,0.624-1.116,1.115c-0.052,0.226-0.278,0.277-0.278,0.557
	c-0.49,0.253-0.863,0.624-1.113,1.116c-0.055,0.226-0.281,0.277-0.279,0.557c-0.492,0.253-0.863,0.624-1.115,1.115
	c-0.053,0.226-0.278,0.278-0.278,0.558c-0.491,0.252-0.864,0.623-1.114,1.114c-0.054,0.227-0.28,0.278-0.278,0.558
	c-0.678,0.44-1.234,0.997-1.673,1.672c-0.952,1.076-4.025,1.113-5.295,0.279c-0.441-0.675-0.998-1.232-1.673-1.673
	c-0.234-0.602-0.722-0.95-0.558-1.95c0-0.465,0-0.93,0-1.395c0-0.278,0-0.557,0-0.835c0.377-0.086,0.23-0.698,0.279-1.116
	c0-0.278,0-0.557,0-0.835c0.376-0.086,0.229-0.698,0.278-1.115c-0.192-1.121,0.267-1.591,0.278-2.508
	c0.379-0.087,0.23-0.698,0.278-1.115c0-0.278,0-0.558,0-0.836c0.379-0.087,0.232-0.697,0.278-1.115
	c0.055-1.34,0.135-2.653,0.557-3.623c-0.328,2.745,1.146,3.687,2.23,5.017c-0.236-0.052-0.263,0.109-0.278,0.279
	c-0.379,0.086-0.23,0.697-0.279,1.115c0,0.278,0,0.557,0,0.835c-0.378,0.087-0.229,0.698-0.278,1.115
	c0.192,1.12-0.267,1.592-0.278,2.508c-0.379,0.086-0.232,0.698-0.278,1.116c0,0.278,0,0.557,0,0.835
	c-0.459-0.046-0.459,1.718,0,1.673c0.284,1.108,1.216,1.57,2.787,1.394c0.767-0.533,1.418-1.184,1.951-1.951
	c0.052-0.226,0.278-0.277,0.278-0.558c0.491-0.252,0.863-0.623,1.114-1.114c0.054-0.227,0.28-0.278,0.28-0.558
	c0.49-0.252,0.861-0.623,1.113-1.115C61.161,109.182,60.935,109.11,60.826,108.712z"/>
<path fill-rule="evenodd" clip-rule="evenodd" fill="#7A7A7A" d="M20.414,18.688c0,0.929,0,1.857,0,2.787
	C19.952,21.174,19.952,18.988,20.414,18.688z"/>
<path fill-rule="evenodd" clip-rule="evenodd" fill="#363636" d="M44.104,19.802c-0.201-0.452,1.313-0.452,1.113,0
	C44.848,19.802,44.475,19.802,44.104,19.802z"/>
<path fill-rule="evenodd" clip-rule="evenodd" fill="#363636" d="M53.302,43.771c-0.048-0.604,0.987-0.126,1.393-0.278
	C54.742,44.098,53.706,43.619,53.302,43.771z"/>
<path fill-rule="evenodd" clip-rule="evenodd" fill="#7A7A7A" d="M26.266,42.657c0.387,0.356,0.17,1.316,0.557,1.672
	c-1.269-0.315-2.811,1.535-3.066-0.279C23.07,43.017,25.563,43.184,26.266,42.657z"/>
<path fill-rule="evenodd" clip-rule="evenodd" fill="#363636" d="M47.448,44.608c0.052-0.413,0.673-0.255,1.115-0.279
	C48.478,44.708,47.864,44.561,47.448,44.608z"/>
<path fill-rule="evenodd" clip-rule="evenodd" fill="#363636" d="M53.58,45.165c-0.048-0.604,0.988-0.126,1.395-0.279
	C55.021,45.491,53.985,45.013,53.58,45.165z"/>
<path fill-rule="evenodd" clip-rule="evenodd" fill="#1A1A1A" d="M47.448,44.608c0,0.372,0,0.743,0,1.115
	C46.997,45.922,46.997,44.409,47.448,44.608z"/>
<path fill-rule="evenodd" clip-rule="evenodd" fill="#7A7A7A" d="M50.234,44.886c0,0.279,0,0.558,0,0.836c-0.463,0-0.928,0-1.393,0
	c-0.44,0.023-1.063-0.134-1.115,0.279c-0.171-0.016-0.329-0.042-0.278-0.279c0-0.372,0-0.743,0-1.115
	c0.416-0.047,1.029,0.1,1.115-0.279c0.787,0.23,0.722-0.393,1.393-0.279C49.932,44.446,49.91,44.84,50.234,44.886z"/>
<path fill-rule="evenodd" clip-rule="evenodd" fill="#1A1A1A" d="M47.727,46.001c0.052-0.413,0.675-0.255,1.115-0.279
	C48.79,46.135,48.169,45.979,47.727,46.001z"/>
<path fill-rule="evenodd" clip-rule="evenodd" fill="#1A1A1A" d="M45.496,54.084c-0.126-0.987-0.618-1.61-0.557-2.787
	c0.551,0.658,0.657,1.759,0.838,2.787C45.683,54.084,45.591,54.084,45.496,54.084z"/>
<path fill-rule="evenodd" clip-rule="evenodd" fill="#7A7A7A" d="M13.167,60.773c-1.204,0.468-2.482,0.862-3.902,1.114
	c-0.234-0.323-0.368-0.747-0.279-1.393c-0.012-0.384,0.131-0.612,0.279-0.836c1.006-0.48,2.439-0.533,3.344-1.115
	C13.023,59.059,13.143,59.867,13.167,60.773z"/>
<path fill-rule="evenodd" clip-rule="evenodd" fill="#363636" d="M42.988,61.888c0,0.465,0,0.929,0,1.394c-0.092,0-0.185,0-0.278,0
	C42.862,62.876,42.384,61.841,42.988,61.888z"/>
<path fill-rule="evenodd" clip-rule="evenodd" fill="#363636" d="M45.496,63.282c0-0.372,0-0.743,0-1.115c0.095,0,0.187,0,0.281,0
	C45.729,62.583,45.875,63.196,45.496,63.282z"/>
<path fill-rule="evenodd" clip-rule="evenodd" fill="#C2C2C2" d="M45.496,63.839c0,0.65,0,1.3,0,1.951c-0.092,0-0.184,0-0.278,0
	C45.385,65.212,44.873,63.959,45.496,63.839z"/>
<path fill-rule="evenodd" clip-rule="evenodd" fill="#1A1A1A" d="M42.71,65.512c-0.047,0.417,0.101,1.028-0.278,1.114
	c0.165-0.578-0.345-1.831,0.278-1.951C42.71,64.954,42.71,65.232,42.71,65.512z"/>
<path fill-rule="evenodd" clip-rule="evenodd" fill="#363636" d="M45.218,66.905c0-0.372,0-0.743,0-1.115c0.095,0,0.187,0,0.278,0
	C45.45,66.207,45.597,66.818,45.218,66.905z"/>
<path fill-rule="evenodd" clip-rule="evenodd" fill="#363636" d="M35.742,66.347c0.431,0.405,0.585,1.087,0.558,1.951
	C35.869,67.894,35.715,67.211,35.742,66.347z"/>
<path fill-rule="evenodd" clip-rule="evenodd" fill="#363636" d="M43.547,80.004c0.021,0.485-0.062,0.866-0.28,1.114
	c-0.49,0.252-0.862,0.623-1.114,1.115c-0.355,0.015-0.386,0.357-0.835,0.278c-0.65,0-1.301,0-1.951,0
	c-1.065,0.033-1.807-0.982-2.23-1.672c-0.685-1.115-0.956-2.922-1.394-4.459c-0.467-1.64-1.016-3.225-1.115-4.738
	c0.568,0.082,0.546,0.754,1.115,0.835c0.694,0.516,1.744,0.673,2.508,1.116c-0.397,0.491,0.04,1.333,0.279,2.229
	c0.379,1.42,0.722,3.755,1.951,4.181c0.617-0.776,0.586-2.201,0.836-3.345c0.604,0.047,0.126-0.989,0.279-1.394
	c0-0.65,0-1.301,0-1.951c0-0.093,0-0.186,0-0.278c1.47-0.573,2.422-1.665,3.065-3.066c0,0.279,0,0.558,0,0.836
	c0,0.372,0,0.743,0,1.115c-0.605-0.047-0.126,0.988-0.278,1.394c0,0.465,0,0.93,0,1.394c-0.605-0.048-0.126,0.988-0.278,1.394
	c0,0.372,0,0.744,0,1.115c-0.379,0.086-0.23,0.697-0.279,1.115c0,0.186,0,0.371,0,0.557C43.447,78.975,43.593,79.587,43.547,80.004z
	"/>
<path fill-rule="evenodd" clip-rule="evenodd" fill="#7A7A7A" d="M55.253,98.678c0,0.557,0,1.114,0,1.673
	C54.794,100.396,54.794,98.631,55.253,98.678z"/>
<path fill-rule="evenodd" clip-rule="evenodd" fill="#C2C2C2" d="M76.714,109.547c0-0.465,0-0.929,0-1.394
	C77.168,108.029,77.168,109.672,76.714,109.547z"/>
<path fill-rule="evenodd" clip-rule="evenodd" fill="#7A7A7A" d="M47.448,136.861c0.667,0.17,2.021-0.35,2.229,0.279
	C49.013,136.97,47.656,137.49,47.448,136.861z"/>
<path fill-rule="evenodd" clip-rule="evenodd" fill="#7A7A7A" d="M50.234,137.14c0.209-0.629,1.564-0.109,2.229-0.279
	C52.258,137.49,50.901,136.97,50.234,137.14z"/>
<path fill-rule="evenodd" clip-rule="evenodd" fill="#FFFFFF" d="M0.346,11.999c0.448-1.66,2.416-2.827,3.902-3.902
	C5.375,7.281,6.801,6.492,8.429,5.31c0.62-0.451,1.281-1.183,1.951-1.672c1.505-1.101,4.77-3.472,6.689-3.623
	c1.626-0.128,3.406,0.659,5.296,1.115c1.739,0.419,3.571,0.683,5.295,1.115c0.838,0.209,1.672,0.658,2.509,0.836
	c2.402,0.509,5.281,0.604,5.574,3.623c0.3,3.096-2.405,4.091-4.459,5.295c-2.367,1.389-4.088,2.603-6.131,3.623
	c-0.492,0.252-0.863,0.624-1.115,1.115c-0.195,0.787-1.005,1.69-1.115,2.508c-0.129,0.969,0.275,1.874,0.558,3.066
	c1.455,6.135,3.811,13.266,5.295,19.232c0.092,0.651,0.335,1.151,0.558,1.672c0.044,0.328-0.048,0.791,0.278,0.836
	c1.979,7.498,4.172,14.78,6.132,22.297c-0.027,0.864,0.126,1.546,0.558,1.951c0.239,1.434,1.075,2.27,2.508,2.508
	c-0.199,0.453,1.314,0.453,1.115,0c1.848-0.381,2.567-1.893,2.509-4.18c0.379-0.086,0.231-0.698,0.278-1.114
	c0.629-0.208,0.109-1.564,0.278-2.23c0-0.465,0-0.929,0-1.394c0-0.186,0-0.371,0-0.557c0.604,0.047,0.127-0.989,0.278-1.394
	c-0.177-1.03,0.362-2.777-0.278-3.345c-0.38-5.497-3.143-9.408-5.294-13.657c-0.787-1.552-1.663-3.135-2.509-4.738
	c-0.914-1.73-1.761-3.366-2.23-5.296c0-1.207,0-2.415,0-3.623c1.08-3.849,5.012-6.656,7.247-9.755
	c0.583-0.346,1.046-0.811,1.394-1.394c0.601-0.606,1.339-1.077,2.509-1.115c0.37,0,0.743,0,1.113,0
	c1.106-0.083,1.703,0.34,2.23,0.836c0.252,0.491,0.623,0.863,1.115,1.115c0.093,0,0.185,0,0.278,0
	c1.318,3.578,1.353,7.597,1.952,11.706c0.572,3.941,1.25,8.09,1.67,11.984c0.253,1.05,0.085,2.518,0.56,3.345
	c0.697,4.836,0.753,9.017,2.508,11.985c2.11,3.565,6.474,5.18,10.869,7.525c1.957,1.043,4.179,2.031,6.132,3.065
	c2.621,1.388,4.544,2.514,6.133,4.459c1.056,1.296,1.734,3.587,2.508,5.853c0,1.208,0,2.416,0,3.623c0,0.187,0,0.372,0,0.559
	c-0.305,0.067-0.19,0.554-0.559,0.557c-0.491,0.251-0.861,0.623-1.114,1.114c-1.244,1.027-3.064,1.167-4.737,1.673
	c-1.549,0.468-3.078,1.166-4.738,1.672c-3.412,1.04-7.104,1.489-9.755,3.066s-4.491,3.958-5.017,7.525
	c-0.459-0.047-0.459,1.718,0,1.673c0.471,1.359,2.246,2.162,3.622,3.344c1.433,1.229,2.681,3.235,4.46,2.508
	c0.092,0,0.187,0,0.278,0c0.477-0.357,1.096-0.576,1.116-1.394c0.595-0.891,1.31-1.66,1.949-2.508
	c0.492-0.252,0.863-0.623,1.115-1.115c0.834-0.652,1.623-1.352,3.065-1.394c0.651,0,1.301,0,1.951,0
	c1.253,0.05,2.021,0.58,2.787,1.115c0.347,0.583,0.812,1.048,1.395,1.394c0.991,1.331,1.939,2.705,2.229,4.738
	c0,1.486,0,2.973,0,4.459c-0.521,3.195-2.548,4.884-4.181,6.968c-0.171,0.016-0.331,0.041-0.278,0.278
	c-0.754,0.456-1.327,1.09-1.673,1.951c-2.452,3.027-4.893,6.071-7.525,8.919c-0.953,0.72-1.789,1.556-2.508,2.508
	c-2.629,2.482-5.944,4.276-10.593,4.738c-0.665,0.17-2.021-0.35-2.229,0.279c-0.185,0-0.37,0-0.557,0
	c-0.208-0.629-1.563-0.109-2.229-0.279c-4.824-0.471-8.001-2.589-10.87-5.017c-0.439-0.675-0.997-1.233-1.672-1.672
	c-1.159-1.451-2.355-2.915-3.066-4.46c-0.577-1.252-0.688-2.721-1.115-4.181c-0.059-0.199-0.669-1.338-0.836-1.95
	c-0.81-2.974-1.828-6.695-2.788-10.034c-0.789-2.745-1.458-5.588-2.229-8.361c-0.287-1.028-0.914-2.167-1.116-3.065
	c-0.078-0.351,0.1-0.772,0-1.115c-0.042-0.147-0.533-0.73-0.557-0.836c-0.079-0.351,0.096-0.77,0-1.114
	c-0.041-0.148-0.535-0.731-0.558-0.837c-1.236-5.508-3.096-11.566-4.738-17.28c-0.402-1.396-0.728-2.848-1.116-4.181
	c-0.728-2.502-1.706-5.177-2.508-8.082c-0.363-1.318-0.382-2.719-1.114-3.902c-0.024-0.906-0.144-1.715-0.558-2.23
	C9.51,46.779,5.805,35.065,2.576,23.147c-0.506-1.866-0.796-3.33-1.394-5.295c-0.301-0.991-0.875-1.748-0.836-3.066
	C0.346,13.857,0.346,12.928,0.346,11.999z M23.479,13.671c0.555-0.691,1.481-1.216,2.23-1.672c0.909-0.553,1.928-0.879,2.787-1.394
	c0.114-0.068,0.159-0.467,0.278-0.557c0.217-0.163,0.641-0.156,0.836-0.279c1.219-0.765,2.987-1.212,3.345-2.787
	c-0.75-1.008-2.05-1.071-3.345-1.393c-2.839-0.707-5.536-1.326-8.082-1.951c-1.441-0.354-2.97-0.964-4.181-0.836
	c-1.277,0.136-2.733,1.408-3.902,2.23c-2.48,1.743-4.07,3.053-6.131,4.459c-0.782,0.533-1.174,0.996-1.672,1.394
	c-0.331,0.264-0.826,0.334-1.115,0.557c-0.88,0.683-1.551,1.184-1.672,1.672c-0.267,1.08,0.762,3.418,1.394,5.575
	c0.38,1.299,0.799,2.763,1.115,3.901c0.408,1.467,0.701,2.738,1.115,4.181c2.866,9.989,6.169,21.18,8.64,30.658
	c0.267,0.849,0.563,1.667,0.836,2.509c4.244,15.975,9.868,33.671,14.215,50.167c0.712,2.704,1.704,5.632,2.508,8.362
	c0.431,1.464,0.642,2.888,1.114,4.181c0.805,2.196,1.926,4.242,3.066,5.574c0,0.093,0,0.187,0,0.278
	c0.455,0.752,1.089,1.326,1.951,1.673c2.763,2.067,5.747,3.915,10.313,4.18c-0.047,0.458,1.717,0.458,1.673,0
	c4.705-0.216,7.641-2.204,10.59-4.18c0.49-0.251,0.863-0.624,1.115-1.115c3.096-3.592,6.041-7.337,9.196-10.869
	c0.431-0.593,1.008-1.038,1.395-1.673c1.504-2.026,3.523-3.537,3.624-6.968c0.454,0.125,0.454-1.519,0-1.394
	c-0.301-1.559-0.968-2.748-1.673-3.901c-0.253-0.492-0.623-0.863-1.116-1.115c-0.411-0.145-0.701-0.412-1.114-0.558
	c-0.038-0.459-1.913-0.459-1.951,0c-0.412,0.146-0.703,0.413-1.113,0.558c-0.491,0.252-0.864,0.623-1.116,1.115
	c-0.659,1.013-1.366,1.979-2.229,2.787c-0.491,0.251-0.864,0.624-1.114,1.114c-0.911,0.769-3.009,1.18-4.46,0.559
	c-2.478-1.146-3.962-3.285-6.132-4.739c-1.084-1.33-2.559-2.271-2.23-5.017c0.173-3.729,1.81-5.996,3.625-8.083
	c0.817-0.019,1.035-0.637,1.394-1.115c1.711-1.667,4.136-2.294,6.688-3.064c4.041-1.222,8.808-2.281,12.266-3.623
	c0.639-0.249,1.993-0.396,1.949-1.395c0.482-3.71-1.407-6.867-3.622-8.64c-1.086-0.869-2.667-1.463-4.182-2.23
	c-1.406-0.712-3.003-1.47-4.46-2.229c-3.495-1.825-7.887-4.079-10.59-6.132c-0.252-0.491-0.625-0.863-1.115-1.115
	c-3.294-3.301-3.318-9.875-4.182-15.608c0-0.278,0-0.558,0-0.836c-0.046-0.417,0.101-1.028-0.278-1.115
	c-0.657-4.723-1.623-11.01-2.229-15.607c-0.145-1.101-0.143-2.298-0.278-3.345c-0.23-1.788-0.301-4.428-2.23-5.017
	c0.2-0.452-1.314-0.452-1.113,0c-0.281-0.001-0.333,0.226-0.558,0.279c-0.094,0-0.186,0-0.28,0
	c-0.688,0.333-1.088,0.955-1.393,1.672c-0.996,1.4-2.213,2.604-3.344,3.902c-1.153,1.321-2.798,2.752-3.066,4.459
	c-0.285,1.818,0.697,3.913,1.672,5.853c0.894,1.777,1.965,3.464,2.787,5.017c2.035,3.84,3.614,7.428,5.017,10.312
	c-0.062,1.177,0.431,1.8,0.557,2.787c0,0.372,0,0.743,0,1.114c0.167,0.578-0.344,1.832,0.281,1.952c0,0.65,0,1.301,0,1.951
	c0,0.093,0,0.187,0,0.279c-0.605-0.047-0.129,0.989-0.281,1.394c0,0.464,0,0.929,0,1.393c0,0.372,0,0.743,0,1.115
	c0,0.185,0,0.371,0,0.558c-0.623,0.12-0.111,1.373-0.278,1.951c0,0.372,0,0.743,0,1.115c0.221,1.147-0.427,1.431-0.278,2.508
	c-0.216,0.062-0.324,0.233-0.278,0.557c-0.644,1.401-1.596,2.493-3.065,3.066c0,0.093,0,0.186,0,0.278
	c-1.188,0.021-1.95,0.467-3.345,0.279c-0.765-0.443-1.814-0.601-2.508-1.116c-0.346-0.582-0.81-1.047-1.394-1.392
	c-0.954-2.032-1.403-4.253-1.95-6.411c-0.891-3.512-1.947-7.162-2.788-10.034c-0.715-2.445-1.383-4.688-1.951-6.689
	c-0.347-1.221-0.612-2.407-0.836-3.624c-0.387-0.356-0.17-1.316-0.557-1.672C24.411,35.5,22.06,28.84,20.414,21.475
	c0-0.929,0-1.858,0-2.787c0.235-1.53,0.729-2.801,1.671-3.624C22.668,14.718,23.133,14.254,23.479,13.671z"/>
<path fill-rule="evenodd" clip-rule="evenodd" fill="#1A1A1A" d="M44.661,69.97c-0.046-0.324,0.063-0.496,0.278-0.557
	c-0.152,0.405,0.326,1.441-0.278,1.393C44.661,70.528,44.661,70.25,44.661,69.97z"/>
<path fill-rule="evenodd" clip-rule="evenodd" fill="#363636" d="M70.859,99.792c0.038-0.459,1.913-0.459,1.951,0
	C72.16,99.792,71.511,99.792,70.859,99.792z"/>
<path fill-rule="evenodd" clip-rule="evenodd" fill="#C2C2C2" d="M0.346,11.999c0,0.929,0,1.858,0,2.787
	C-0.116,14.485-0.116,12.299,0.346,11.999z"/>
<path fill-rule="evenodd" clip-rule="evenodd" fill="#C2C2C2" d="M32.955,29.279c0,1.208,0,2.416,0,3.623
	C32.493,32.33,32.493,29.851,32.955,29.279z"/>
<path fill-rule="evenodd" clip-rule="evenodd" fill="#C2C2C2" d="M45.777,56.035c0,0.372,0,0.744,0,1.115
	c-0.625-0.12-0.114-1.374-0.281-1.952c0.095,0,0.187,0,0.281,0C45.777,55.478,45.777,55.756,45.777,56.035z"/>
<path fill-rule="evenodd" clip-rule="evenodd" fill="#C2C2C2" d="M42.988,63.282c-0.169,0.666,0.351,2.022-0.278,2.23
	c0-0.28,0-0.558,0-0.836c0-0.465,0-0.929,0-1.394C42.804,63.282,42.896,63.282,42.988,63.282z"/>
<path fill-rule="evenodd" clip-rule="evenodd" fill="#C2C2C2" d="M81.173,78.889c0.604-0.047,0.127,0.988,0.278,1.394
	c0,0.371,0,0.743,0,1.115c-0.023,0.441,0.135,1.063-0.278,1.114C81.173,81.305,81.173,80.097,81.173,78.889z"/>
<path fill-rule="evenodd" clip-rule="evenodd" fill="#C2C2C2" d="M79.222,107.04c0.463,0.845,0.463,3.612,0,4.459
	C79.222,110.012,79.222,108.526,79.222,107.04z"/>
<path fill-rule="evenodd" clip-rule="evenodd" fill="#363636" d="M70.859,102.58c0.038-0.459,1.913-0.459,1.951,0
	C72.16,102.58,71.511,102.58,70.859,102.58z"/>
</svg>
