<?xml version="1.0" encoding="utf-8"?>
<!-- Generator: Adobe Illustrator 15.0.0, SVG Export Plug-In  -->
<!DOCTYPE svg PUBLIC "-//W3C//DTD SVG 1.1//EN" "http://www.w3.org/Graphics/SVG/1.1/DTD/svg11.dtd" [
	<!ENTITY ns_flows "http://ns.adobe.com/Flows/1.0/">
]>
<svg version="1.1"
	 xmlns="http://www.w3.org/2000/svg" xmlns:xlink="http://www.w3.org/1999/xlink" xmlns:a="http://ns.adobe.com/AdobeSVGViewerExtensions/3.0/"
	 x="0px" y="0px" width="142px" height="142px" viewBox="-30.682 -2.285 142 142" enable-background="new -30.682 -2.285 142 142"
	 xml:space="preserve">
<defs>
</defs>
<path fill-rule="evenodd" clip-rule="evenodd" fill="#191919" d="M46.799,22.364c0.413,0.052,0.257,0.674,0.278,1.115
	C46.666,23.428,46.824,22.806,46.799,22.364z"/>
<path fill-rule="evenodd" clip-rule="evenodd" fill="#191919" d="M49.586,22.643c0.379,0.087,0.232,0.698,0.278,1.115
	C49.452,23.706,49.61,23.084,49.586,22.643z"/>
<path fill-rule="evenodd" clip-rule="evenodd" fill="#191919" d="M49.865,24.594c0.379,0.086,0.232,0.698,0.278,1.115
	C49.731,25.657,49.889,25.035,49.865,24.594z"/>
<path fill-rule="evenodd" clip-rule="evenodd" fill="#191919" d="M47.357,26.545c0.412,0.052,0.256,0.673,0.278,1.115
	C47.222,27.608,47.38,26.986,47.357,26.545z"/>
<path fill-rule="evenodd" clip-rule="evenodd" fill="#191919" d="M47.635,28.496c0.412,0.052,0.256,0.674,0.278,1.115
	C47.5,29.559,47.659,28.937,47.635,28.496z"/>
<path fill-rule="evenodd" clip-rule="evenodd" fill="#191919" d="M50.423,28.775c0.377,0.086,0.23,0.697,0.279,1.114
	C50.29,29.837,50.446,29.216,50.423,28.775z"/>
<path fill-rule="evenodd" clip-rule="evenodd" fill="#191919" d="M47.914,30.446c0.412,0.052,0.256,0.674,0.28,1.115
	C47.781,31.51,47.937,30.888,47.914,30.446z"/>
<path fill-rule="evenodd" clip-rule="evenodd" fill="#191919" d="M50.703,30.726c0.376,0.086,0.229,0.698,0.278,1.115
	C50.568,31.788,50.724,31.167,50.703,30.726z"/>
<path fill-rule="evenodd" clip-rule="evenodd" fill="#191919" d="M50.981,32.676c0.378,0.086,0.23,0.698,0.278,1.115
	C50.846,33.74,51.002,33.118,50.981,32.676z"/>
<path fill-rule="evenodd" clip-rule="evenodd" fill="#191919" d="M51.259,34.627c0.379,0.087,0.23,0.698,0.278,1.116
	C51.125,35.69,51.281,35.069,51.259,34.627z"/>
<path fill-rule="evenodd" clip-rule="evenodd" fill="#191919" d="M48.75,36.579c0.413,0.051,0.255,0.673,0.279,1.115
	C48.617,37.641,48.773,37.02,48.75,36.579z"/>
<path fill-rule="evenodd" clip-rule="evenodd" fill="#191919" d="M49.03,38.529c0.412,0.052,0.256,0.674,0.278,1.115
	C48.895,39.593,49.053,38.971,49.03,38.529z"/>
<path fill-rule="evenodd" clip-rule="evenodd" fill="#191919" d="M52.094,40.759c0.379,0.086,0.232,0.697,0.278,1.115
	C51.96,41.822,52.119,41.2,52.094,40.759z"/>
<path fill-rule="evenodd" clip-rule="evenodd" fill="#191919" d="M52.373,42.71c0.379,0.086,0.232,0.698,0.281,1.115
	C52.239,43.773,52.397,43.152,52.373,42.71z"/>
<path fill-rule="evenodd" clip-rule="evenodd" fill="#787878" d="M40.946,46.891c0,0.465,0,0.929,0,1.394
	C40.491,48.41,40.491,46.765,40.946,46.891z"/>
<path fill-rule="evenodd" clip-rule="evenodd" fill="#787878" d="M43.175,56.646c0.617,0.035,0.118,1.183,0.28,1.672
	c-0.094,0-0.186,0-0.28,0C43.175,57.76,43.175,57.203,43.175,56.646z"/>
<path fill-rule="evenodd" clip-rule="evenodd" fill="#C2C2C2" d="M43.175,58.318c0.095,0,0.187,0,0.28,0
	c-0.152,0.405,0.325,1.44-0.28,1.394C43.175,59.247,43.175,58.782,43.175,58.318z"/>
<path fill-rule="evenodd" clip-rule="evenodd" fill="#191919" d="M44.57,71.975c-0.152,0.404,0.326,1.44-0.278,1.394
	C44.444,72.963,43.964,71.928,44.57,71.975z"/>
<path fill-rule="evenodd" clip-rule="evenodd" fill="#191919" d="M44.292,74.762c-0.152,0.405,0.326,1.441-0.278,1.394
	C44.166,75.75,43.686,74.714,44.292,74.762z"/>
<path fill-rule="evenodd" clip-rule="evenodd" fill="#191919" d="M41.504,75.319c-0.049,0.417,0.099,1.028-0.279,1.115
	C41.272,76.018,41.125,75.405,41.504,75.319z"/>
<path fill-rule="evenodd" clip-rule="evenodd" fill="#191919" d="M44.013,77.271c-0.049,0.417,0.098,1.029-0.279,1.115
	C43.783,77.968,43.634,77.356,44.013,77.271z"/>
<path fill-rule="evenodd" clip-rule="evenodd" fill="#787878" d="M78.574,80.336c0.45-0.199,0.45,1.314,0,1.115
	C78.574,81.079,78.574,80.707,78.574,80.336z"/>
<path fill-rule="evenodd" clip-rule="evenodd" fill="#191919" d="M81.36,80.336c0.451-0.199,0.451,1.314,0,1.115
	C81.36,81.079,81.36,80.707,81.36,80.336z"/>
<path fill-rule="evenodd" clip-rule="evenodd" fill="#191919" d="M51.816,102.633c-0.046,0.418,0.101,1.028-0.278,1.115
	C51.585,103.331,51.437,102.719,51.816,102.633z"/>
<path fill-rule="evenodd" clip-rule="evenodd" fill="#191919" d="M54.325,104.306c-0.047,0.417,0.1,1.028-0.279,1.115
	C54.094,105.003,53.946,104.392,54.325,104.306z"/>
<path fill-rule="evenodd" clip-rule="evenodd" fill="#191919" d="M51.538,104.584c-0.048,0.417,0.101,1.028-0.278,1.115
	C51.307,105.282,51.159,104.67,51.538,104.584z"/>
<path fill-rule="evenodd" clip-rule="evenodd" fill="#191919" d="M54.045,106.256c-0.046,0.417,0.101,1.028-0.278,1.115
	C53.816,106.954,53.667,106.343,54.045,106.256z"/>
<path fill-rule="evenodd" clip-rule="evenodd" fill="#191919" d="M50.981,108.207c-0.049,0.417,0.098,1.029-0.278,1.115
	C50.749,108.905,50.602,108.293,50.981,108.207z"/>
<path fill-rule="evenodd" clip-rule="evenodd" fill="#C2C2C2" d="M76.623,108.207c0.458,0.124,0.458,2.105,0,2.229
	C76.623,109.693,76.623,108.95,76.623,108.207z"/>
<path fill-rule="evenodd" clip-rule="evenodd" fill="#191919" d="M53.489,109.879c-0.048,0.418,0.101,1.029-0.278,1.116
	C53.256,110.577,53.11,109.965,53.489,109.879z"/>
<path fill-rule="evenodd" clip-rule="evenodd" fill="#191919" d="M50.423,111.83c0,0.558,0,1.115,0,1.673
	C49.965,113.548,49.965,111.784,50.423,111.83z"/>
<path fill-rule="evenodd" clip-rule="evenodd" fill="#191919" d="M53.21,111.83c0,0.558,0,1.115,0,1.673
	C52.751,113.548,52.751,111.784,53.21,111.83z"/>
<path fill-rule="evenodd" clip-rule="evenodd" fill="#191919" d="M56.554,129.946c0.036-0.615,1.182-0.118,1.673-0.278
	c0,0.093,0,0.186,0,0.278C57.67,129.946,57.111,129.946,56.554,129.946z"/>
<path fill-rule="evenodd" clip-rule="evenodd" fill="#191919" d="M44.57,130.226c-0.048-0.605,0.987-0.126,1.395-0.279
	c0,0.093,0,0.187,0,0.279C45.5,130.226,45.035,130.226,44.57,130.226z"/>
<path fill-rule="evenodd" clip-rule="evenodd" fill="#333333" d="M45.964,130.226c0-0.093,0-0.187,0-0.279c0.743,0,1.486,0,2.229,0
	c0,0.093,0,0.187,0,0.279C47.451,130.226,46.708,130.226,45.964,130.226z"/>
<path fill-rule="evenodd" clip-rule="evenodd" fill="#787878" d="M48.194,130.226c0-0.093,0-0.187,0-0.279c1.114,0,2.229,0,3.344,0
	c0,0.093,0,0.187,0,0.279C50.423,130.226,49.308,130.226,48.194,130.226z"/>
<path fill-rule="evenodd" clip-rule="evenodd" fill="#C2C2C2" d="M51.538,130.226c0-0.093,0-0.187,0-0.279c1.021,0,2.044,0,3.065,0
	C54.126,130.584,52.475,130.049,51.538,130.226z"/>
<path fill-rule="evenodd" clip-rule="evenodd" fill="#C2C2C2" d="M40.389,130.226c0.836,0,1.672,0,2.508,0
	C42.686,130.687,40.601,130.687,40.389,130.226z"/>
<path fill-rule="evenodd" clip-rule="evenodd" fill="#C2C2C2" d="M49.586,132.733c0.477-0.638,2.128-0.102,3.067-0.278
	c0,0.094,0,0.186,0,0.278C51.629,132.733,50.608,132.733,49.586,132.733z"/>
<path fill-rule="evenodd" clip-rule="evenodd" fill="#787878" d="M52.654,132.733c0-0.093,0-0.185,0-0.278c1.113,0,2.229,0,3.344,0
	c0,0.094,0,0.186,0,0.278C54.883,132.733,53.767,132.733,52.654,132.733z"/>
<path fill-rule="evenodd" clip-rule="evenodd" fill="#787878" d="M57.67,132.455c0.37,0,0.743,0,1.113,0
	C58.984,132.907,57.469,132.907,57.67,132.455z"/>
<path fill-rule="evenodd" clip-rule="evenodd" fill="#787878" d="M39.274,132.733c0.464,0,0.929,0,1.393,0c0,0.094,0,0.186,0,0.279
	C40.263,132.86,39.228,133.338,39.274,132.733z"/>
<path fill-rule="evenodd" clip-rule="evenodd" fill="#C2C2C2" d="M40.667,133.013c0-0.094,0-0.186,0-0.279c0.558,0,1.115,0,1.673,0
	c0,0.094,0,0.186,0,0.279C41.783,133.013,41.226,133.013,40.667,133.013z"/>
<path fill-rule="evenodd" clip-rule="evenodd" fill="#787878" d="M42.34,133.013c0-0.094,0-0.186,0-0.279c0.65,0,1.3,0,1.951,0
	c0,0.094,0,0.186,0,0.279c-0.187,0-0.373,0-0.558,0C43.27,133.013,42.805,133.013,42.34,133.013z"/>
<path fill-rule="evenodd" clip-rule="evenodd" fill="#333333" d="M44.292,133.013c0-0.094,0-0.186,0-0.279c0.743,0,1.486,0,2.229,0
	c0,0.094,0,0.186,0,0.279C45.778,133.013,45.035,133.013,44.292,133.013z"/>
<path fill-rule="evenodd" clip-rule="evenodd" fill="#191919" d="M46.521,133.013c0-0.094,0-0.186,0-0.279c0.371,0,0.743,0,1.114,0
	C47.548,133.112,46.938,132.965,46.521,133.013z"/>
<path fill-rule="evenodd" clip-rule="evenodd" fill="#191919" d="M51.538,134.405c0.052-0.411,0.673-0.255,1.116-0.278
	C52.601,134.54,51.978,134.383,51.538,134.405z"/>
<path fill-rule="evenodd" clip-rule="evenodd" fill="#191919" d="M47.357,136.914c0.49,0.161,1.639-0.337,1.673,0.279
	C48.539,137.033,47.392,137.53,47.357,136.914z"/>
<path fill-rule="evenodd" clip-rule="evenodd" fill="#191919" d="M50.423,137.193c0.118-0.624,1.373-0.113,1.949-0.279
	C52.252,137.538,51,137.027,50.423,137.193z"/>
<path fill-rule="evenodd" clip-rule="evenodd" fill="#333333" d="M1.648,10.101C5.401,7.257,9.274,4.535,13.076,1.74
	c-1.035,1.752-1.691,3.883-2.787,5.574C9.876,7.524,9.625,7.835,9.174,8.149c-0.63,0.438-1.015,0.679-1.672,1.115
	c-0.24,0.159-0.583,0.394-0.836,0.836c-0.153,0.268-0.165,0.134,0,0.557C5.382,9.983,3.396,9.507,1.648,10.101z"/>
<path fill-rule="evenodd" clip-rule="evenodd" fill="#787878" d="M6.386,52.186c0.007-0.656-0.48-0.82-0.278-1.672
	c1.386-0.1,2.192-0.78,3.623-0.836c0.093,0,0.186,0,0.279,0c0.273,0.841,0.569,1.661,0.836,2.508
	c-0.547-1.067-2.001,0.431-3.345,0.279C6.919,52.583,6.764,52.273,6.386,52.186z"/>
<path fill-rule="evenodd" clip-rule="evenodd" fill="#787878" d="M34.536,129.946c0.675,0.439,1.233,0.997,1.672,1.673
	c-0.568-0.082-0.546-0.755-1.115-0.837C34.995,130.417,34.603,130.345,34.536,129.946z"/>
<path fill-rule="evenodd" clip-rule="evenodd" fill="#191919" d="M35.094,130.782c0.568,0.082,0.546,0.755,1.115,0.837
	c0.226,0.053,0.277,0.279,0.558,0.278c0,0.093,0,0.187,0,0.278C36.048,131.872,35.426,131.472,35.094,130.782z"/>
<path fill-rule="evenodd" clip-rule="evenodd" fill="#191919" d="M63.522,131.897c0.054-0.226,0.28-0.277,0.278-0.557
	c0.238,0.051,0.265-0.109,0.278-0.278c0.569-0.083,0.547-0.756,1.116-0.837C64.754,130.9,64.197,131.458,63.522,131.897z"/>
<path fill-rule="evenodd" clip-rule="evenodd" fill="#333333" d="M70.768,123.536c0.249,0.123,0.499,0.244,0.558,0.558
	c-0.411-0.323-0.701-0.323-1.114,0c0.052-0.226,0.28-0.278,0.278-0.558C70.582,123.536,70.676,123.536,70.768,123.536z"/>
<path fill-rule="evenodd" clip-rule="evenodd" fill="#333333" d="M73.277,124.651c0.673-0.647-0.435-0.746-0.558-1.394
	c0.569,0.082,0.547,0.754,1.114,0.836C73.711,124.342,73.589,124.592,73.277,124.651z"/>
<path fill-rule="evenodd" clip-rule="evenodd" fill="#787878" d="M71.604,122.421c0.124-0.248,0.246-0.497,0.559-0.557
	c-0.81,0.783,0.419,0.763,0.557,1.394c0.123,0.647,1.23,0.746,0.558,1.394c0,0.187,0,0.371,0,0.557
	c-1.229,0.206-1.143-0.901-1.951-1.114c-0.059-0.313-0.309-0.435-0.558-0.558C70.85,122.969,71.524,122.99,71.604,122.421z"/>
<path fill-rule="evenodd" clip-rule="evenodd" fill="#333333" d="M75.506,100.961c0.583,0.346,1.048,0.811,1.395,1.394
	C76.318,102.009,75.853,101.544,75.506,100.961z"/>
<path fill-rule="evenodd" clip-rule="evenodd" fill="#333333" d="M56.554,59.711c0.491,0.252,0.863,0.624,1.116,1.115
	C57.177,60.575,56.806,60.203,56.554,59.711z"/>
<path fill-rule="evenodd" clip-rule="evenodd" fill="#191919" d="M40.111,19.577c0.439-0.675,0.997-1.233,1.672-1.672
	C41.343,18.58,40.786,19.137,40.111,19.577z"/>
<path fill-rule="evenodd" clip-rule="evenodd" fill="#191919" d="M38.159,21.807c0.346-0.583,0.811-1.047,1.394-1.394
	C39.207,20.996,38.742,21.461,38.159,21.807z"/>
<path fill-rule="evenodd" clip-rule="evenodd" fill="#191919" d="M36.208,24.037c0.346-0.583,0.811-1.048,1.394-1.394
	C37.256,23.226,36.792,23.69,36.208,24.037z"/>
<path fill-rule="evenodd" clip-rule="evenodd" fill="#191919" d="M34.257,26.267c0.347-0.583,0.811-1.048,1.394-1.394
	C35.305,25.456,34.841,25.92,34.257,26.267z"/>
<path fill-rule="evenodd" clip-rule="evenodd" fill="#787878" d="M23.945,16.79c0.252-0.492,0.623-0.863,1.115-1.115
	C24.808,16.167,24.437,16.539,23.945,16.79z"/>
<path fill-rule="evenodd" clip-rule="evenodd" fill="#787878" d="M50.423,42.432c0.491,0.251,0.862,0.624,1.114,1.115
	C51.046,43.294,50.674,42.923,50.423,42.432z"/>
<path fill-rule="evenodd" clip-rule="evenodd" fill="#C2C2C2" d="M66.587,102.633c0.376-0.646,0.793-1.252,1.395-1.672
	c0.092,0,0.186,0,0.278,0C67.821,101.636,67.264,102.193,66.587,102.633z"/>
<path fill-rule="evenodd" clip-rule="evenodd" fill="#C2C2C2" d="M70.49,123.536c0.253-0.491,0.623-0.863,1.114-1.115
	c-0.08,0.569-0.754,0.548-0.836,1.115C70.676,123.536,70.582,123.536,70.49,123.536z"/>
<path fill-rule="evenodd" clip-rule="evenodd" fill="#C2C2C2" d="M64.079,131.063c0.253-0.492,0.625-0.864,1.116-1.116
	c0,0.093,0,0.187,0,0.279C64.625,130.307,64.648,130.979,64.079,131.063z"/>
<path fill-rule="evenodd" clip-rule="evenodd" fill="#C2C2C2" d="M36.487,127.996c0.387,0.449,0.79,0.882,1.116,1.394
	C37.124,129.03,36.506,128.813,36.487,127.996z"/>
<path fill-rule="evenodd" clip-rule="evenodd" fill="#C2C2C2" d="M68.817,121.585c0.253-0.491,0.625-0.862,1.116-1.114
	C69.68,120.962,69.31,121.334,68.817,121.585z"/>
<path fill-rule="evenodd" clip-rule="evenodd" fill="#333333" d="M54.325,61.384c0.583,0.346,1.048,0.811,1.394,1.393
	C55.135,62.431,54.671,61.967,54.325,61.384z"/>
<path fill-rule="evenodd" clip-rule="evenodd" fill="#C2C2C2" d="M21.715,15.396c0.382-0.733,0.939-1.291,1.672-1.672
	C22.948,14.399,22.391,14.957,21.715,15.396z"/>
<path fill-rule="evenodd" clip-rule="evenodd" fill="#191919" d="M42.061,82.287c0.252-0.492,0.624-0.863,1.114-1.115
	C42.924,81.664,42.553,82.036,42.061,82.287z"/>
<path fill-rule="evenodd" clip-rule="evenodd" fill="#191919" d="M50.981,115.453c0.675,0.44,1.231,0.998,1.673,1.673
	C51.976,116.687,51.419,116.129,50.981,115.453z"/>
<path fill-rule="evenodd" clip-rule="evenodd" fill="#191919" d="M57.949,116.847c0.438-0.675,0.995-1.231,1.673-1.672
	C59.18,115.851,58.624,116.408,57.949,116.847z"/>
<path fill-rule="evenodd" clip-rule="evenodd" fill="#191919" d="M59.9,114.617c0.25-0.491,0.623-0.862,1.114-1.114
	C60.761,113.994,60.391,114.365,59.9,114.617z"/>
<path fill-rule="evenodd" clip-rule="evenodd" fill="#787878" d="M67.146,119.355c0.034-0.04-0.044-0.251,0-0.279
	c0.988-0.65,1.995,2.289,3.065,0.837c-0.052,0.226-0.28,0.278-0.278,0.558c-0.491,0.252-0.863,0.623-1.116,1.114
	c0.052,0.237-0.108,0.264-0.278,0.279c-0.026-0.717-1.088-0.398-1.114-1.115C67.18,120.257,66.542,119.937,67.146,119.355z"/>
<path fill-rule="evenodd" clip-rule="evenodd" fill="#333333" d="M67.424,120.749c-0.631-0.125-1.278-1.198-0.278-1.394
	C66.542,119.937,67.18,120.257,67.424,120.749z"/>
<path fill-rule="evenodd" clip-rule="evenodd" fill="#191919" d="M41.783,21.807c0.533-0.768,1.184-1.417,1.951-1.951
	C43.202,20.624,42.551,21.274,41.783,21.807z"/>
<path fill-rule="evenodd" clip-rule="evenodd" fill="#191919" d="M39.832,24.037c0.346-0.583,0.811-1.048,1.394-1.394
	C40.879,23.226,40.415,23.69,39.832,24.037z"/>
<path fill-rule="evenodd" clip-rule="evenodd" fill="#191919" d="M37.881,26.267c0.346-0.583,0.811-1.048,1.394-1.394
	C38.928,25.456,38.463,25.92,37.881,26.267z"/>
<path fill-rule="evenodd" clip-rule="evenodd" fill="#191919" d="M37.881,37.693c0.573,0.078,0.556,0.744,0.836,1.115
	C38.145,38.73,38.161,38.063,37.881,37.693z"/>
<path fill-rule="evenodd" clip-rule="evenodd" fill="#333333" d="M41.783,17.905c3.528-2.221,8.446,0.139,7.804,4.738
	c0.023,0.441-0.135,1.063,0.278,1.115c0,0.279,0,0.557,0,0.836c0.024,0.441-0.134,1.063,0.278,1.115
	c-0.034,1.15,0.485,1.746,0.28,3.066c0.022,0.441-0.134,1.063,0.279,1.114c0,0.279,0,0.557,0,0.836
	c0.021,0.441-0.135,1.063,0.278,1.115c0,0.278,0,0.558,0,0.836c0.021,0.441-0.135,1.063,0.278,1.115c0,0.279,0,0.558,0,0.836
	c0.021,0.442-0.135,1.063,0.278,1.116c0.09,1.768,0.641,3.074,0.557,5.017c0.024,0.441-0.134,1.063,0.278,1.115
	c0,0.278,0,0.558,0,0.836c0.024,0.442-0.134,1.063,0.281,1.115c0,0.279,0,0.558,0,0.836c0,0.278,0,0.557,0,0.836
	c-0.573-0.451-0.703-1.342-1.116-1.951c-0.252-0.491-0.623-0.863-1.114-1.115c-0.226-0.24-0.765-0.166-0.837-0.558
	c-0.152-0.405,0.326-1.44-0.278-1.394c0-0.279,0-0.558,0-0.836c-0.022-0.441,0.134-1.063-0.278-1.115c0-0.278,0-0.558,0-0.836
	c-0.024-0.442,0.134-1.063-0.279-1.115c-0.09-1.768-0.643-3.074-0.557-5.017c-0.024-0.441,0.132-1.063-0.28-1.115
	c0-0.278,0-0.557,0-0.835c-0.022-0.441,0.134-1.063-0.278-1.115c0-0.278,0-0.557,0-0.836c-0.022-0.441,0.134-1.063-0.278-1.115
	c0.035-1.15-0.485-1.746-0.279-3.066c-0.021-0.441,0.135-1.063-0.278-1.115c-0.054-1.803-0.966-2.75-3.065-2.508
	c-0.768,0.534-1.418,1.184-1.951,1.951c-0.099,0.366-0.491,0.438-0.557,0.836c-0.583,0.346-1.048,0.811-1.394,1.394
	c-0.099,0.366-0.491,0.438-0.557,0.836c-0.583,0.346-1.047,0.811-1.394,1.394c-0.779,1.439-2.247,2.272-2.508,3.901
	c-0.461,2.877,1.886,5.191,2.508,7.525c0.28,0.37,0.264,1.037,0.836,1.115c0.639,1.414,1.404,2.753,2.229,4.181
	c0.186,0.321,0.075,1.337,0.836,1.115c-0.203,1.004-1.008,1.408-0.836,2.787c-0.455-0.125-0.455,1.52,0,1.394
	c0,0.279,0,0.558,0,0.836c-1.743-2.812-4.168-7.719-6.131-11.427c-1.168-2.206-2.949-4.611-2.229-8.361
	c0.195-1.02,1.107-1.919,1.672-3.065c0.583-0.347,1.048-0.811,1.394-1.394c0.099-0.366,0.491-0.438,0.558-0.836
	c0.583-0.347,1.047-0.811,1.394-1.394c0.098-0.366,0.49-0.438,0.557-0.836c0.583-0.346,1.047-0.811,1.394-1.394
	c0.099-0.366,0.491-0.438,0.558-0.836C40.786,19.137,41.343,18.58,41.783,17.905z"/>
<path fill-rule="evenodd" clip-rule="evenodd" fill="#191919" d="M49.308,40.48c0.604-0.047,0.126,0.988,0.278,1.394
	c-0.324,0.045-0.495-0.062-0.557-0.278C49.408,41.509,49.262,40.897,49.308,40.48z"/>
<path fill-rule="evenodd" clip-rule="evenodd" fill="#333333" d="M16.698,49.956c0.148-0.224,0.292-0.452,0.279-0.836
	c0.324,0.047,0.302,0.441,0.279,0.836C17.07,49.956,16.885,49.956,16.698,49.956z"/>
<path fill-rule="evenodd" clip-rule="evenodd" fill="#333333" d="M7.501,52.465c0.089,0.492-1.562,0.498-1.115-0.279
	C6.764,52.273,6.919,52.583,7.501,52.465z"/>
<path fill-rule="evenodd" clip-rule="evenodd" fill="#191919" d="M37.881,73.926c0.278,0,0.558,0,0.836,0c0,0.093,0,0.186,0,0.278
	c-0.474-0.102-0.526,0.218-0.558,0.558C37.833,74.717,37.924,74.254,37.881,73.926z"/>
<path fill-rule="evenodd" clip-rule="evenodd" fill="#191919" d="M55.998,114.896c0.438-0.675,0.995-1.233,1.673-1.673
	C57.229,113.898,56.672,114.457,55.998,114.896z"/>
<path fill-rule="evenodd" clip-rule="evenodd" fill="#191919" d="M59.622,110.716c0.25-0.491,0.623-0.863,1.113-1.115
	C60.483,110.093,60.112,110.464,59.622,110.716z"/>
<path fill-rule="evenodd" clip-rule="evenodd" fill="#333333" d="M60.735,108.766c1.465,0.635,3.468,0.13,4.46-0.559
	c-0.535,1-1.227,1.936-1.951,2.788c-0.713,0.837-1.603,1.576-2.229,2.508c-0.491,0.252-0.864,0.623-1.114,1.114
	c0,0.279-0.227,0.332-0.278,0.558c-0.678,0.44-1.234,0.997-1.673,1.672c-0.952,1.076-4.025,1.113-5.295,0.279
	c-0.441-0.675-0.998-1.232-1.673-1.673c-0.234-0.602-0.722-0.95-0.558-1.95c0-0.558,0-1.115,0-1.673
	c-0.192-1.121,0.267-1.592,0.279-2.508c0.376-0.086,0.229-0.698,0.278-1.115c-0.192-1.121,0.267-1.591,0.278-2.508
	c0.379-0.087,0.23-0.698,0.278-1.115c0-0.278,0-0.558,0-0.836c0.379-0.087,0.232-0.697,0.278-1.115
	c0.055-1.34,0.135-2.653,0.557-3.623c-0.412,2.831,1.185,3.648,2.23,5.017c-0.236-0.052-0.263,0.109-0.278,0.279
	c-0.379,0.086-0.23,0.697-0.279,1.115c0,0.278,0,0.557,0,0.835c-0.378,0.087-0.229,0.698-0.278,1.115
	c0.192,1.12-0.267,1.592-0.278,2.508c-0.379,0.086-0.232,0.698-0.278,1.116c0,0.278,0,0.557,0,0.835
	c-0.459-0.046-0.459,1.718,0,1.673c0.284,1.108,1.216,1.57,2.787,1.394c0.675-0.439,1.231-0.998,1.673-1.673
	c0.482-1.003,1.342-1.63,1.951-2.508c0.49-0.252,0.861-0.623,1.113-1.115C61.07,109.235,60.843,109.163,60.735,108.766z"/>
<path fill-rule="evenodd" clip-rule="evenodd" fill="#333333" d="M58.784,132.455c2.244,0.2,3.65-0.438,5.017-1.114
	c0.002,0.279-0.225,0.331-0.278,0.557c-3.003,2.386-6.032,4.744-11.149,5.017c-0.576,0.166-1.831-0.345-1.949,0.279
	c-0.465,0-0.93,0-1.394,0c-0.034-0.616-1.183-0.118-1.673-0.279c-4.696-0.414-7.958-2.261-10.591-4.738c0-0.092,0-0.186,0-0.278
	c0.77,0.346,1.416,0.814,2.508,0.836c-0.047,0.604,0.989,0.127,1.393,0.279c0.558,0,1.115,0,1.673,0c0.465,0,0.93,0,1.394,0
	c0,0.093,0,0.186,0,0.279c2.379,0.593,4.641,1.304,7.804,1.113c0.44-0.022,1.063,0.135,1.116-0.278
	c0.498-0.031,5.794-1.238,3.344-1.394c0-0.093,0-0.185,0-0.278c0.557,0,1.113,0,1.673,0
	C57.469,132.907,58.984,132.907,58.784,132.455z"/>
<path fill-rule="evenodd" clip-rule="evenodd" fill="#787878" d="M16.142,0.346c0.3-0.461,2.487-0.461,2.787,0
	C17.999,0.346,17.07,0.346,16.142,0.346z"/>
<path fill-rule="evenodd" clip-rule="evenodd" fill="#787878" d="M3.042,12.609c-0.199-0.452,1.314-0.452,1.115,0
	C3.785,12.609,3.413,12.609,3.042,12.609z"/>
<path fill-rule="evenodd" clip-rule="evenodd" fill="#787878" d="M20.322,18.741c0,0.929,0,1.857,0,2.787
	C19.86,21.228,19.86,19.042,20.322,18.741z"/>
<path fill-rule="evenodd" clip-rule="evenodd" fill="#787878" d="M23.945,24.594c1.183,0.068,1.5-0.729,2.787-0.557
	c-0.114,0.671,0.509,0.605,0.279,1.394c-0.694,0.513-2.219,0.196-2.508,1.115C23.996,26.215,24.284,25.091,23.945,24.594z"/>
<path fill-rule="evenodd" clip-rule="evenodd" fill="#787878" d="M21.715,27.103c-1.203-0.087-2.773,1.333-3.065-0.279
	c-0.077-1.47,2.298-0.489,2.508-1.672C21.573,25.573,21.607,26.375,21.715,27.103z"/>
<path fill-rule="evenodd" clip-rule="evenodd" fill="#787878" d="M45.405,41.596c0.301-0.462,2.488-0.462,2.789,0
	C47.264,41.596,46.334,41.596,45.405,41.596z"/>
<path fill-rule="evenodd" clip-rule="evenodd" fill="#191919" d="M52.932,46.055c-0.219-0.062-0.325-0.233-0.278-0.557
	c0-0.279,0-0.558,0-0.836C53.256,44.614,52.78,45.65,52.932,46.055z"/>
<path fill-rule="evenodd" clip-rule="evenodd" fill="#787878" d="M63.244,63.893c0.631-0.576,0.989-1.426,1.395-2.23
	C65.331,61.62,65.5,62.1,66.03,62.22c-0.088,1.063-1.582,1.767-0.835,2.787c-0.697-0.231-1.094-0.763-1.951-0.836
	C63.244,64.078,63.244,63.985,63.244,63.893z"/>
<path fill-rule="evenodd" clip-rule="evenodd" fill="#333333" d="M45.405,64.729c-0.046,0.417,0.101,1.028-0.278,1.115
	C45.151,65.402,44.993,64.78,45.405,64.729z"/>
<path fill-rule="evenodd" clip-rule="evenodd" fill="#787878" d="M63.522,67.236c-0.768,0.544-0.81,2.95-2.229,1.952
	c-1.236-0.587,0.755-1.771,0.837-2.788C62.546,66.727,63.267,66.747,63.522,67.236z"/>
<path fill-rule="evenodd" clip-rule="evenodd" fill="#333333" d="M45.126,67.515c-0.046,0.417,0.101,1.029-0.278,1.115
	C44.873,68.189,44.714,67.567,45.126,67.515z"/>
<path fill-rule="evenodd" clip-rule="evenodd" fill="#191919" d="M44.57,70.303c-0.046-0.324,0.063-0.496,0.278-0.558
	c-0.046,0.417,0.101,1.028-0.278,1.114C44.57,70.675,44.57,70.488,44.57,70.303z"/>
<path fill-rule="evenodd" clip-rule="evenodd" fill="#787878" d="M38.717,73.926c0.558,0,1.115,0,1.672,0
	c-0.035,0.615-1.183,0.118-1.672,0.278C38.717,74.111,38.717,74.019,38.717,73.926z"/>
<path fill-rule="evenodd" clip-rule="evenodd" fill="#333333" d="M43.734,78.386c0.125,1.239-0.198,2.031-0.559,2.786
	c-0.49,0.252-0.862,0.623-1.114,1.115c-4.691,2.297-5.47-2.817-6.41-6.132c-0.539-1.9-1.175-3.708-1.394-5.016
	c1.021,1.115,1.926,2.347,3.624,2.786c0.043,0.328-0.048,0.791,0.278,0.836c0.374,0.868,0.484,2.078,0.836,3.065
	c0.317,0.889,0.348,2.072,1.394,2.23c0.608-0.879,0.67-2.302,0.836-3.623c0.377-0.087,0.23-0.698,0.279-1.115
	c0-0.465,0-0.929,0-1.394c-0.094,0-0.187,0-0.279,0c1.264-1.058,2.795-1.85,3.344-3.623c0,0.186,0,0.372,0,0.557
	c0,0.372,0,0.743,0,1.115c-0.605-0.047-0.126,0.988-0.278,1.394c0,0.465,0,0.93,0,1.394c-0.605-0.048-0.126,0.988-0.278,1.394
	c0,0.372,0,0.744,0,1.115C43.634,77.356,43.783,77.968,43.734,78.386z"/>
<path fill-rule="evenodd" clip-rule="evenodd" fill="#333333" d="M71.046,102.633c-0.124-0.455,1.521-0.455,1.395,0
	C71.976,102.633,71.511,102.633,71.046,102.633z"/>
<path fill-rule="evenodd" clip-rule="evenodd" fill="#333333" d="M61.849,106.256c0.373,0,0.745,0,1.116,0
	C63.164,106.709,61.651,106.709,61.849,106.256z"/>
<path fill-rule="evenodd" clip-rule="evenodd" fill="#333333" d="M58.227,129.668c0.835,0,1.673,0,2.508,0
	c-0.296,0.633-1.753,0.105-2.508,0.278C58.227,129.854,58.227,129.761,58.227,129.668z"/>
<path fill-rule="evenodd" clip-rule="evenodd" fill="#FFFFFF" d="M16.142,0.346c0.929,0,1.857,0,2.787,0
	c4.023,0.792,8.548,2.055,13.099,3.066c1.697,0.377,3.517,1.591,3.624,3.623c0.097,1.826-0.696,2.465-1.672,3.345
	c-0.841,0.758-1.995,1.032-3.066,1.672c-0.112,0.067-0.183,0.514-0.279,0.558c-1.694,0.764-3.626,2.095-5.574,3.065
	c-0.492,0.252-0.863,0.624-1.115,1.115c-1.773,2.004-0.886,5.488,0,7.804c0.338,0.498,0.05,1.622,0.557,1.951
	c1.379,5.5,3.371,11.625,5.017,17.559c0.147,0.528,0.126,1.167,0.279,1.672c0.128,0.421,0.458,0.743,0.557,1.115
	c0.247,0.93,0.277,2.064,0.558,3.065c0.251,0.896,0.819,1.798,1.114,2.788c0.152,0.509,0.126,1.131,0.28,1.672
	c0.262,0.928,1.042,2.833,1.393,4.181c0.526,2.016,0.759,3.897,1.394,6.132c0.148,0.521,0.402,0.809,0.557,1.393
	c0.545,2.051,1.255,5.278,3.624,5.296c4.67,0.033,2.537-8.306,3.901-11.707c0.605,0.047,0.128-0.988,0.28-1.394
	c-0.162-0.49,0.337-1.638-0.28-1.672c-0.038-3.212-1.389-5.114-2.229-7.525c0-0.278,0-0.557,0-0.836c0-0.464,0-0.929,0-1.394
	c-0.171-1.379,0.633-1.783,0.836-2.787c0.862-1.182,1.901-2.186,3.622-2.508c0.93,0,1.859,0,2.789,0c0.278,0,0.557,0,0.836,0
	c0.062,0.217,0.232,0.323,0.557,0.278c0.072,0.392,0.611,0.318,0.837,0.558c0.251,0.492,0.623,0.863,1.114,1.115
	c0.413,0.609,0.543,1.5,1.116,1.951c-0.047,0.324,0.06,0.496,0.278,0.557c0.723,5.037,0.831,10.687,3.622,13.657
	c0.252,0.491,0.623,0.863,1.116,1.115c1.711,1.169,3.64,2.119,5.573,3.066c0,0.092,0,0.186,0,0.278
	c0.857,0.073,1.254,0.604,1.951,0.836c2.146,0.89,4.188,2.184,6.409,3.345c2.498,1.303,5.034,2.246,6.689,4.459
	c1.25,1.67,2.616,4.38,3.066,7.525c0,0.371,0,0.743,0,1.115c0.049,2.202-1.723,3.588-4.181,4.459
	c-0.475,0.169-1.16,0.124-1.673,0.278c-1.058,0.321-2.849,0.993-4.181,1.394c-7.665,2.311-14.852,2.83-16.164,11.149
	c-0.459-0.047-0.459,1.718,0,1.673c0.642,1.479,2.194,2.087,3.344,3.064c1.065,0.907,2.014,2.166,3.344,2.787
	c-0.198,0.453,1.314,0.453,1.116,0c1.62-0.793,2.237-2.594,3.622-3.623c0.677-0.439,1.233-0.997,1.673-1.672
	c0.421-0.788,1.444-0.972,2.508-1.115c0.651,0,1.301,0,1.951,0c1.253,0.05,2.021,0.58,2.787,1.115
	c0.347,0.583,0.812,1.048,1.395,1.394c1.046,1.276,1.993,2.65,2.229,4.738c0,1.486,0,2.973,0,4.459
	c-1.033,4.727-4.604,6.917-6.968,10.313c-0.313,0.06-0.435,0.309-0.559,0.557c-0.491,0.252-0.861,0.624-1.114,1.115
	c0.002,0.279-0.227,0.332-0.278,0.558c-1.667,1.956-3.138,4.108-5.017,5.853c-0.491,0.252-0.863,0.624-1.116,1.116
	c-0.014,0.169-0.04,0.329-0.278,0.278c-1.366,0.677-2.772,1.314-5.017,1.114c-0.37,0-0.743,0-1.113,0c-0.56,0-1.116,0-1.673,0
	c-1.114,0-2.23,0-3.344,0c-0.939,0.177-2.591-0.359-3.067,0.278c-0.649,0-1.301,0-1.951,0c-0.371,0-0.743,0-1.114,0
	c-0.743,0-1.486,0-2.229,0c-0.651,0-1.301,0-1.951,0c-0.558,0-1.115,0-1.673,0c-0.464,0-0.929,0-1.393,0
	c-1.092-0.021-1.739-0.49-2.508-0.836c-0.28,0.001-0.332-0.226-0.558-0.278c-0.439-0.676-0.997-1.233-1.672-1.673
	c-0.093,0-0.186,0-0.279,0c-1.08-2.169-2.56-3.955-3.344-6.41c-0.245-0.768-0.316-1.659-0.558-2.508
	c-0.901-3.174-1.87-6.54-2.787-9.755C22.048,91.919,16.16,71.705,10.846,52.186c-0.267-0.848-0.563-1.667-0.836-2.508
	c-0.093,0-0.187,0-0.279,0c-0.234-2.562-1.248-5.311-1.951-7.804c-1.303-4.621-2.842-9.878-4.181-14.771
	c-0.227-0.828-0.324-1.71-0.558-2.509c-0.448-1.536-1.184-3.042-1.672-4.738c-0.199-0.694-0.259-1.723-0.557-2.787
	c-0.542-1.938-1.884-5.664,0.836-6.968c1.748-0.594,3.734-0.118,5.017,0.557c0.619,0.217,1.087,0.586,1.951,0.558
	c0.785-1.072,1.266-2.45,1.672-3.902c1.096-1.691,1.752-3.822,2.787-5.574C14.174,1.352,14.666,0.357,16.142,0.346z M23.388,13.724
	c0.461-0.99,1.87-1.136,2.787-1.672c0.112-0.065,0.161-0.469,0.279-0.558c0.217-0.162,0.641-0.156,0.836-0.278
	c1.286-0.808,2.358-1.413,3.623-2.23c0.631-0.408,2.109-0.751,1.951-1.951c-0.726-0.766-2.14-1.065-3.345-1.393
	c-1.331-0.362-2.767-0.475-4.18-0.836c-1.295-0.331-2.623-0.795-3.902-1.115c-2.098-0.525-3.872-1.139-5.295-0.557
	c-0.88,0.359-0.941,0.728-1.115,1.115c-0.044,0.099-0.492,0.161-0.558,0.278c-0.208,0.38-0.103,0.73-0.279,1.115
	c-0.471,1.028-1.076,2.258-1.393,3.066c-0.901,2.295-1.302,4.566-3.623,5.017c-0.65,0-1.301,0-1.951,0
	c-1.413,0.02-1.802-0.986-3.066-1.115c0.199-0.452-1.314-0.452-1.115,0c-0.659,1.977,0.987,5.205,1.394,6.688
	c0.239,0.871,0.348,1.767,0.558,2.509c2.592,9.161,5.323,18.296,7.525,26.757c0.478,0.637,0.265,1.965,0.836,2.508
	c3.635,13.216,7.724,27.095,11.428,40.413c2.078,7.472,4.264,15.294,6.41,22.576c0.435,1.474,0.975,2.999,1.394,4.459
	c0.458,1.599,0.563,3.311,1.114,4.738c0.283,0.73,0.958,1.438,1.394,2.229c0.471,0.857,0.706,1.804,1.393,2.509
	c0.019,0.817,0.637,1.034,1.116,1.394c1.136,0.07,1.376,1.038,2.787,0.836c0.211,0.461,2.297,0.461,2.508,0c0.559,0,1.116,0,1.673,0
	c0.465,0,0.93,0,1.395,0c0.743,0,1.486,0,2.229,0c1.114,0,2.229,0,3.344,0c0.938-0.177,2.589,0.358,3.065-0.279
	c0.651,0,1.302,0,1.951,0c0.557,0,1.116,0,1.673,0c0.755-0.173,2.212,0.354,2.508-0.278c2.078-0.406,2.949-2.129,4.182-3.623
	c1.17-1.422,2.622-3.025,3.622-4.181c0.17-0.016,0.33-0.042,0.278-0.279c0.493-0.251,0.863-0.623,1.116-1.114
	c-0.002-0.279,0.227-0.332,0.278-0.558c2.075-3.221,5.453-5.138,6.411-9.477c0.458-0.124,0.458-2.105,0-2.229
	c-0.649-2.604-1.757-4.747-4.182-5.574c0.126-0.455-1.519-0.455-1.395,0c-2.849,0.96-3.607,4.009-5.852,5.574
	c-0.992,0.688-2.995,1.193-4.46,0.559c-2.488-1.137-3.895-3.354-6.132-4.739c-1.046-1.368-2.643-2.186-2.23-5.017
	c-0.067-2.915,1.358-5.074,2.511-6.689c0.932-1.31,1.427-1.685,2.508-2.509c0.421-0.32,0.704-0.579,1.114-0.835
	c1.438-0.895,2.53-1.164,4.182-1.673c0.545-0.168,0.903-0.41,1.392-0.557c2.142-0.646,4.216-1.078,6.133-1.673
	c0.968-0.301,1.899-0.851,2.787-1.115c2.023-0.602,4.279-0.656,5.575-2.229c0-0.093,0-0.186,0-0.278c0.45,0.199,0.45-1.314,0-1.115
	c-0.515-2.276-1.356-4.103-2.229-5.295c-0.8-1.091-0.977-1.265-1.952-1.951c-1.54-1.084-3.045-1.622-4.737-2.509
	c-2.152-1.125-4.083-2.557-6.133-3.345c-0.255-0.49-0.976-0.51-1.393-0.836c-2.214-1.132-4.602-2.088-6.411-3.624
	c-0.346-0.583-0.811-1.047-1.394-1.393c-1.882-1.818-2.519-4.559-3.065-7.804c-0.539-3.188-0.657-6.656-2.229-8.919
	c-3.042-1.347-5.367,0.25-5.574,2.508c-0.096,1.039,0.667,2.377,1.114,3.623c0.495,1.38,1.134,2.643,1.116,3.902
	c0,2.137,0,4.273,0,6.41c0.063,1.366-0.493,2.11-0.281,3.624c-0.412,0.051-0.254,0.673-0.278,1.115c0,0.557,0,1.115,0,1.672
	c-0.412,0.052-0.254,0.674-0.278,1.115c0,0.371,0,0.743,0,1.115c-0.216,0.062-0.324,0.233-0.278,0.558
	c-0.549,1.773-2.08,2.565-3.344,3.623c-0.279,0-0.558,0-0.836,0c-0.558,0-1.115,0-1.672,0c-0.278,0-0.558,0-0.836,0
	c-1.697-0.439-2.603-1.671-3.624-2.786c-4.241-14.619-8.303-29.417-12.542-44.037c-0.108-0.728-0.143-1.53-0.557-1.951
	c-0.18-1.307-0.786-2.188-0.836-3.624c0-0.929,0-1.858,0-2.787c-0.005-1.584,0.639-2.52,1.393-3.345
	C22.391,14.957,22.948,14.399,23.388,13.724z"/>
<path fill-rule="evenodd" clip-rule="evenodd" fill="#333333" d="M70.768,99.846c0.038-0.459,1.913-0.459,1.951,0
	C72.069,99.846,71.419,99.846,70.768,99.846z"/>
<path fill-rule="evenodd" clip-rule="evenodd" fill="#C2C2C2" d="M45.686,54.695c0.463,1.492,0.463,4.919,0,6.41
	C45.686,58.968,45.686,56.832,45.686,54.695z"/>
<path fill-rule="evenodd" clip-rule="evenodd" fill="#C2C2C2" d="M79.13,107.093c0.463,0.845,0.463,3.612,0,4.459
	C79.13,110.065,79.13,108.579,79.13,107.093z"/>
<path fill-rule="evenodd" clip-rule="evenodd" fill="#787878" d="M7.223,13.724c0.65,0,1.301,0,1.951,0
	C9.136,14.183,7.26,14.183,7.223,13.724z"/>
<path fill-rule="evenodd" clip-rule="evenodd" fill="#787878" d="M12.518,48.563c1.823,0.259,3.051-1.303,4.459-0.558
	c0,0.371,0,0.743,0,1.114c0.012,0.384-0.131,0.612-0.279,0.836c-1.153,0.241-2.039,0.749-3.344,0.836c0,0.093,0,0.186,0,0.279
	C12.783,50.528,12.996,49.2,12.518,48.563z"/>
<path fill-rule="evenodd" clip-rule="evenodd" fill="#333333" d="M55.162,98.731c0,0.557,0,1.114,0,1.673
	C54.703,100.449,54.703,98.685,55.162,98.731z"/>
</svg>
