<?xml version="1.0" encoding="utf-8"?>
<!-- Generator: Adobe Illustrator 15.0.0, SVG Export Plug-In  -->
<!DOCTYPE svg PUBLIC "-//W3C//DTD SVG 1.1//EN" "http://www.w3.org/Graphics/SVG/1.1/DTD/svg11.dtd" [
	<!ENTITY ns_flows "http://ns.adobe.com/Flows/1.0/">
]>
<svg version="1.1"
	 xmlns="http://www.w3.org/2000/svg" xmlns:xlink="http://www.w3.org/1999/xlink" xmlns:a="http://ns.adobe.com/AdobeSVGViewerExtensions/3.0/"
	 x="0px" y="0px" width="142px" height="142px" viewBox="-30.622 -2.286 142 142" enable-background="new -30.622 -2.286 142 142"
	 xml:space="preserve">
<defs>
</defs>
<path fill-rule="evenodd" clip-rule="evenodd" fill="#787878" d="M17.038,3.133c-0.046-0.458,1.718-0.458,1.672,0
	C18.152,3.133,17.595,3.133,17.038,3.133z"/>
<path fill-rule="evenodd" clip-rule="evenodd" fill="#191919" d="M20.382,18.741c0,0.929,0,1.857,0,2.787
	C19.92,21.227,19.92,19.041,20.382,18.741z"/>
<path fill-rule="evenodd" clip-rule="evenodd" fill="#191919" d="M46.859,22.363c0.413,0.052,0.257,0.674,0.278,1.115
	C46.726,23.427,46.884,22.805,46.859,22.363z"/>
<path fill-rule="evenodd" clip-rule="evenodd" fill="#191919" d="M49.646,22.642c0.379,0.087,0.232,0.698,0.278,1.115
	C49.512,23.706,49.67,23.083,49.646,22.642z"/>
<path fill-rule="evenodd" clip-rule="evenodd" fill="#191919" d="M49.925,24.593c0.379,0.086,0.232,0.698,0.278,1.115
	C49.791,25.656,49.949,25.034,49.925,24.593z"/>
<path fill-rule="evenodd" clip-rule="evenodd" fill="#191919" d="M47.417,26.544c0.412,0.052,0.256,0.673,0.278,1.115
	C47.282,27.607,47.44,26.986,47.417,26.544z"/>
<path fill-rule="evenodd" clip-rule="evenodd" fill="#191919" d="M47.695,28.495c0.412,0.052,0.256,0.674,0.278,1.115
	C47.561,29.559,47.719,28.937,47.695,28.495z"/>
<path fill-rule="evenodd" clip-rule="evenodd" fill="#191919" d="M47.974,30.446c0.412,0.052,0.256,0.674,0.28,1.115
	C47.841,31.509,47.997,30.888,47.974,30.446z"/>
<path fill-rule="evenodd" clip-rule="evenodd" fill="#191919" d="M50.763,30.725c0.376,0.086,0.229,0.698,0.278,1.115
	C50.628,31.788,50.784,31.167,50.763,30.725z"/>
<path fill-rule="evenodd" clip-rule="evenodd" fill="#191919" d="M51.041,32.676c0.378,0.086,0.23,0.698,0.278,1.115
	C50.906,33.739,51.063,33.117,51.041,32.676z"/>
<path fill-rule="evenodd" clip-rule="evenodd" fill="#191919" d="M51.319,34.626c0.379,0.087,0.23,0.698,0.278,1.116
	C51.185,35.69,51.341,35.068,51.319,34.626z"/>
<path fill-rule="evenodd" clip-rule="evenodd" fill="#191919" d="M48.811,36.578c0.413,0.051,0.255,0.673,0.279,1.115
	C48.677,37.641,48.833,37.019,48.811,36.578z"/>
<path fill-rule="evenodd" clip-rule="evenodd" fill="#191919" d="M49.09,38.529c0.412,0.052,0.256,0.674,0.278,1.115
	C48.955,39.592,49.113,38.971,49.09,38.529z"/>
<path fill-rule="evenodd" clip-rule="evenodd" fill="#191919" d="M52.154,40.759c0.379,0.086,0.232,0.697,0.278,1.115
	C52.021,41.822,52.179,41.2,52.154,40.759z"/>
<path fill-rule="evenodd" clip-rule="evenodd" fill="#191919" d="M52.433,42.709c0.379,0.086,0.232,0.698,0.281,1.115
	C52.299,43.772,52.457,43.151,52.433,42.709z"/>
<path fill-rule="evenodd" clip-rule="evenodd" fill="#191919" d="M52.714,44.661c0.376,0.086,0.23,0.698,0.278,1.115
	c-0.171-0.016-0.331-0.042-0.278-0.278C52.714,45.218,52.714,44.939,52.714,44.661z"/>
<path fill-rule="evenodd" clip-rule="evenodd" fill="#787878" d="M41.006,46.611c0,0.465,0,0.929,0,1.394
	C40.551,48.13,40.551,46.486,41.006,46.611z"/>
<path fill-rule="evenodd" clip-rule="evenodd" fill="#C1C1C1" d="M43.235,56.087c0.605-0.046,0.128,0.989,0.28,1.394
	c-0.094,0-0.186,0-0.28,0C43.235,57.017,43.235,56.552,43.235,56.087z"/>
<path fill-rule="evenodd" clip-rule="evenodd" fill="#787878" d="M43.235,57.481c0.095,0,0.187,0,0.28,0
	c-0.048,0.417,0.099,1.029-0.28,1.115C43.235,58.224,43.235,57.853,43.235,57.481z"/>
<path fill-rule="evenodd" clip-rule="evenodd" fill="#191919" d="M81.42,80.335c0.451-0.199,0.451,1.314,0,1.115
	C81.42,81.079,81.42,80.707,81.42,80.335z"/>
<path fill-rule="evenodd" clip-rule="evenodd" fill="#C1C1C1" d="M76.683,108.207c0.458,0.124,0.458,2.105,0,2.229
	C76.683,109.693,76.683,108.95,76.683,108.207z"/>
<path fill-rule="evenodd" clip-rule="evenodd" fill="#191919" d="M56.614,129.946c0.052-0.412,0.673-0.256,1.116-0.278
	c0,0.093,0,0.186,0,0.278C57.357,129.946,56.987,129.946,56.614,129.946z"/>
<path fill-rule="evenodd" clip-rule="evenodd" fill="#343434" d="M57.73,129.946c0-0.093,0-0.186,0-0.278c0.557,0,1.113,0,1.671,0
	c0,0.093,0,0.186,0,0.278C58.844,129.946,58.287,129.946,57.73,129.946z"/>
<path fill-rule="evenodd" clip-rule="evenodd" fill="#787878" d="M59.401,129.946c0-0.093,0-0.186,0-0.278c0.372,0,0.743,0,1.115,0
	C60.431,130.045,59.817,129.899,59.401,129.946z"/>
<path fill-rule="evenodd" clip-rule="evenodd" fill="#191919" d="M44.352,130.225c-0.048-0.605,0.987-0.126,1.395-0.279
	c0,0.093,0,0.187,0,0.279C45.281,130.225,44.816,130.225,44.352,130.225z"/>
<path fill-rule="evenodd" clip-rule="evenodd" fill="#343434" d="M45.746,130.225c0-0.093,0-0.187,0-0.279c0.835,0,1.671,0,2.508,0
	c0,0.093,0,0.187,0,0.279C47.417,130.225,46.581,130.225,45.746,130.225z"/>
<path fill-rule="evenodd" clip-rule="evenodd" fill="#787878" d="M48.254,130.225c0-0.093,0-0.187,0-0.279c0.928,0,1.857,0,2.787,0
	c0,0.093,0,0.187,0,0.279C50.111,130.225,49.182,130.225,48.254,130.225z"/>
<path fill-rule="evenodd" clip-rule="evenodd" fill="#C1C1C1" d="M51.041,130.225c0-0.093,0-0.187,0-0.279c1.392,0,2.786,0,4.181,0
	C54.378,130.588,52.347,130.044,51.041,130.225z"/>
<path fill-rule="evenodd" clip-rule="evenodd" fill="#C1C1C1" d="M40.171,130.225c0.835,0,1.672,0,2.508,0
	C42.468,130.686,40.382,130.686,40.171,130.225z"/>
<path fill-rule="evenodd" clip-rule="evenodd" fill="#C1C1C1" d="M49.646,132.733c0.477-0.638,2.128-0.102,3.067-0.278
	c0,0.094,0,0.186,0,0.278C51.689,132.733,50.668,132.733,49.646,132.733z"/>
<path fill-rule="evenodd" clip-rule="evenodd" fill="#787878" d="M52.714,132.733c0-0.093,0-0.185,0-0.278c1.206,0,2.414,0,3.622,0
	c0,0.094,0,0.186,0,0.278C55.128,132.733,53.92,132.733,52.714,132.733z"/>
<path fill-rule="evenodd" clip-rule="evenodd" fill="#787878" d="M42.121,133.012c0-0.094,0-0.186,0-0.279c0.651,0,1.301,0,1.952,0
	c0,0.094,0,0.186,0,0.279c-0.187,0-0.373,0-0.558,0C43.051,133.012,42.586,133.012,42.121,133.012z"/>
<path fill-rule="evenodd" clip-rule="evenodd" fill="#343434" d="M44.073,133.012c0-0.094,0-0.186,0-0.279c0.835,0,1.673,0,2.508,0
	c0,0.094,0,0.186,0,0.279C45.746,133.012,44.908,133.012,44.073,133.012z"/>
<path fill-rule="evenodd" clip-rule="evenodd" fill="#191919" d="M46.581,133.012c0-0.094,0-0.186,0-0.279c0.371,0,0.743,0,1.114,0
	C47.608,133.112,46.998,132.964,46.581,133.012z"/>
<path fill-rule="evenodd" clip-rule="evenodd" fill="#191919" d="M51.319,134.405c-0.048-0.604,0.987-0.126,1.395-0.278
	C52.76,134.731,51.724,134.253,51.319,134.405z"/>
<path fill-rule="evenodd" clip-rule="evenodd" fill="#191919" d="M47.417,136.914c0.49,0.161,1.639-0.337,1.673,0.279
	C48.599,137.033,47.452,137.53,47.417,136.914z"/>
<path fill-rule="evenodd" clip-rule="evenodd" fill="#191919" d="M50.483,137.193c0.118-0.624,1.373-0.113,1.949-0.279
	C52.313,137.538,51.061,137.027,50.483,137.193z"/>
<path fill-rule="evenodd" clip-rule="evenodd" fill="#343434" d="M2.266,9.821C4.1,8.191,6.125,6.819,8.119,5.362
	c1.962-1.433,3.935-3.006,6.131-4.181c-0.123,0.248-0.244,0.499-0.557,0.558c-0.492,0.251-0.863,0.623-1.115,1.114
	c-1.009,1.313-1.267,3.379-2.229,4.739C10.039,7.351,9.11,8.19,8.397,8.707C7.683,9.226,6.79,9.739,6.446,10.379
	C5.071,10.176,4.086,9.581,2.266,9.821z"/>
<path fill-rule="evenodd" clip-rule="evenodd" fill="#787878" d="M34.875,130.225c0.492,0.251,0.863,0.623,1.115,1.115
	c-0.366-0.099-0.438-0.491-0.836-0.559C35.101,130.557,34.874,130.504,34.875,130.225z"/>
<path fill-rule="evenodd" clip-rule="evenodd" fill="#191919" d="M35.154,130.782c0.397,0.067,0.47,0.46,0.836,0.559
	c0.053,0.225,0.279,0.277,0.279,0.557C35.777,131.646,35.405,131.274,35.154,130.782z"/>
<path fill-rule="evenodd" clip-rule="evenodd" fill="#343434" d="M36.269,131.897c0-0.279-0.226-0.332-0.279-0.557
	c1.088,0.49,1.791,1.367,3.345,1.393c0.387,0.636,1.94,0.104,2.787,0.279c0.465,0,0.93,0,1.395,0c0,0.093,0,0.186,0,0.279
	c2.534,0.437,4.614,1.33,7.804,1.113c0.404-0.151,1.44,0.326,1.395-0.278c0.989-0.324,3.914-0.54,4.179-1.394
	c-0.016,0.053-0.501-0.04-0.557,0c0-0.093,0-0.185,0-0.278c2.937,0.057,5.92,0.159,7.524-1.114
	c-0.052,0.225-0.278,0.277-0.278,0.557c-3.003,2.386-6.032,4.744-11.149,5.017c-0.576,0.166-1.831-0.345-1.949,0.279
	c-0.465,0-0.93,0-1.394,0c-0.034-0.616-1.183-0.118-1.673-0.279C42.403,136.54,39.248,134.306,36.269,131.897z"/>
<path fill-rule="evenodd" clip-rule="evenodd" fill="#191919" d="M63.582,131.897c0-0.279,0.227-0.332,0.278-0.557
	c0.238,0.051,0.265-0.109,0.278-0.278c0.647-0.189,0.748-0.927,1.395-1.116C65,130.714,64.35,131.364,63.582,131.897z"/>
<path fill-rule="evenodd" clip-rule="evenodd" fill="#787878" d="M74.174,119.355c0.438-0.675,0.996-1.232,1.671-1.672
	c0.095,0,0.187,0,0.278,0c0.345,0.807,2.267,1.085,1.395,2.229c-0.412,0.322-0.703,0.322-1.113,0
	C75.376,119.694,75.021,118.241,74.174,119.355z"/>
<path fill-rule="evenodd" clip-rule="evenodd" fill="#343434" d="M76.404,119.913c0.41,0.322,0.701,0.322,1.113,0
	c-0.078,0.646-0.745,0.641-1.113,0.278C76.404,120.098,76.404,120.004,76.404,119.913z"/>
<path fill-rule="evenodd" clip-rule="evenodd" fill="#343434" d="M75.845,101.239c0.493,0.253,0.863,0.623,1.116,1.115
	C76.47,102.102,76.098,101.731,75.845,101.239z"/>
<path fill-rule="evenodd" clip-rule="evenodd" fill="#343434" d="M57.451,93.436c0.251-0.492,0.623-0.864,1.114-1.116
	C58.313,92.812,57.942,93.183,57.451,93.436z"/>
<path fill-rule="evenodd" clip-rule="evenodd" fill="#343434" d="M56.336,59.432c0.583,0.346,1.048,0.811,1.395,1.394
	C57.147,60.479,56.683,60.015,56.336,59.432z"/>
<path fill-rule="evenodd" clip-rule="evenodd" fill="#191919" d="M40.171,19.577c0.439-0.675,0.997-1.233,1.672-1.672
	C41.403,18.58,40.846,19.137,40.171,19.577z"/>
<path fill-rule="evenodd" clip-rule="evenodd" fill="#191919" d="M38.219,21.806c0.346-0.583,0.811-1.047,1.394-1.394
	C39.267,20.996,38.802,21.46,38.219,21.806z"/>
<path fill-rule="evenodd" clip-rule="evenodd" fill="#191919" d="M36.269,24.036c0.346-0.583,0.811-1.048,1.394-1.394
	C37.316,23.225,36.852,23.689,36.269,24.036z"/>
<path fill-rule="evenodd" clip-rule="evenodd" fill="#191919" d="M34.317,26.266c0.347-0.583,0.811-1.048,1.394-1.394
	C35.365,25.455,34.901,25.919,34.317,26.266z"/>
<path fill-rule="evenodd" clip-rule="evenodd" fill="#787878" d="M28.465,39.922c-0.488-0.534-0.59-1.453-0.836-2.229
	c0.271,0.007,0.216,0.341,0.279,0.558c0.997-0.119,1.487-0.743,2.787-0.558c-0.23,0.787,0.393,0.722,0.279,1.394
	C30.163,39.39,29.004,39.347,28.465,39.922z"/>
<path fill-rule="evenodd" clip-rule="evenodd" fill="#191919" d="M33.76,10.658c0.189-0.647,0.927-0.746,1.115-1.394
	c-0.051-0.237,0.109-0.263,0.279-0.279C35.056,9.909,34.319,10.195,33.76,10.658z"/>
<path fill-rule="evenodd" clip-rule="evenodd" fill="#787878" d="M33.481,10.658c0.346-0.583,0.811-1.047,1.394-1.394
	c-0.188,0.647-0.926,0.746-1.115,1.394C33.667,10.658,33.574,10.658,33.481,10.658z"/>
<path fill-rule="evenodd" clip-rule="evenodd" fill="#787878" d="M50.483,42.431c0.581,0.346,1.046,0.81,1.393,1.393
	C51.293,43.479,50.828,43.014,50.483,42.431z"/>
<path fill-rule="evenodd" clip-rule="evenodd" fill="#C1C1C1" d="M64.139,131.062c0.347-0.584,0.812-1.048,1.395-1.395
	c0,0.093,0,0.186,0,0.278C64.887,130.135,64.786,130.873,64.139,131.062z"/>
<path fill-rule="evenodd" clip-rule="evenodd" fill="#C1C1C1" d="M12.578,2.854c0.251-0.491,0.623-0.863,1.115-1.114
	C13.441,2.23,13.07,2.602,12.578,2.854z"/>
<path fill-rule="evenodd" clip-rule="evenodd" fill="#C1C1C1" d="M10.07,13.445c0.251-0.492,0.623-0.863,1.114-1.115
	C10.933,12.822,10.562,13.193,10.07,13.445z"/>
<path fill-rule="evenodd" clip-rule="evenodd" fill="#787878" d="M62.468,129.11c0.251-0.491,0.623-0.863,1.114-1.114
	C63.33,128.486,62.959,128.858,62.468,129.11z"/>
<path fill-rule="evenodd" clip-rule="evenodd" fill="#C1C1C1" d="M73.059,116.568c0.252-0.491,0.623-0.863,1.115-1.115
	C73.922,115.944,73.549,116.317,73.059,116.568z"/>
<path fill-rule="evenodd" clip-rule="evenodd" fill="#343434" d="M73.894,103.19c0.493,0.252,0.863,0.623,1.116,1.115
	C74.519,104.052,74.146,103.681,73.894,103.19z"/>
<path fill-rule="evenodd" clip-rule="evenodd" fill="#787878" d="M51.319,115.733c0.49,0.251,0.863,0.623,1.113,1.113
	C51.942,116.595,51.571,116.223,51.319,115.733z"/>
<path fill-rule="evenodd" clip-rule="evenodd" fill="#343434" d="M55.5,91.484c0.251-0.491,0.623-0.863,1.114-1.114
	C56.363,90.86,55.991,91.232,55.5,91.484z"/>
<path fill-rule="evenodd" clip-rule="evenodd" fill="#343434" d="M54.385,61.383c0.675,0.439,1.231,0.997,1.673,1.672
	C55.382,62.616,54.825,62.058,54.385,61.383z"/>
<path fill-rule="evenodd" clip-rule="evenodd" fill="#C1C1C1" d="M22.333,15.117c0.346-0.583,0.811-1.047,1.393-1.394
	C23.381,14.307,22.916,14.771,22.333,15.117z"/>
<path fill-rule="evenodd" clip-rule="evenodd" fill="#343434" d="M23.169,13.724c0.722-0.299,1.036-1.008,1.951-1.115
	c-0.22,0.616-0.975,0.697-1.394,1.115c-0.582,0.346-1.047,0.811-1.393,1.394c-1.694,1.642-2.064,5.492-1.394,8.64
	c-0.414-0.516-0.534-1.324-0.557-2.23c0-0.929,0-1.858,0-2.787c-0.039-1.897,0.981-2.734,1.671-3.902
	C22.546,14.586,22.917,14.215,23.169,13.724z"/>
<path fill-rule="evenodd" clip-rule="evenodd" fill="#191919" d="M22.054,14.838c0.252-0.491,0.625-0.863,1.116-1.115
	C22.917,14.215,22.546,14.586,22.054,14.838z"/>
<path fill-rule="evenodd" clip-rule="evenodd" fill="#787878" d="M72.223,114.617c0.569,0.303,1.138,1.336,1.951,0.558
	c0,0.094,0,0.186,0,0.278c-0.492,0.252-0.863,0.624-1.115,1.115c-0.125,0.248-0.245,0.499-0.558,0.558
	c-0.146-0.979-2.18-1.522-1.673-2.229C71.321,114.651,71.642,114.012,72.223,114.617z"/>
<path fill-rule="evenodd" clip-rule="evenodd" fill="#343434" d="M70.828,114.896c0.124-0.632,1.2-1.278,1.395-0.279
	C71.642,114.012,71.321,114.651,70.828,114.896z"/>
<path fill-rule="evenodd" clip-rule="evenodd" fill="#191919" d="M41.843,21.806c0.533-0.768,1.184-1.417,1.951-1.951
	C43.262,20.623,42.611,21.273,41.843,21.806z"/>
<path fill-rule="evenodd" clip-rule="evenodd" fill="#191919" d="M39.892,24.036c0.346-0.583,0.811-1.048,1.394-1.394
	C40.939,23.225,40.475,23.689,39.892,24.036z"/>
<path fill-rule="evenodd" clip-rule="evenodd" fill="#191919" d="M37.941,26.266c0.346-0.583,0.811-1.048,1.394-1.394
	C38.988,25.455,38.523,25.919,37.941,26.266z"/>
<path fill-rule="evenodd" clip-rule="evenodd" fill="#191919" d="M37.941,37.693c0.573,0.078,0.556,0.744,0.836,1.115
	C38.205,38.73,38.221,38.063,37.941,37.693z"/>
<path fill-rule="evenodd" clip-rule="evenodd" fill="#191919" d="M49.368,40.48c0.604-0.047,0.126,0.988,0.278,1.394
	c-0.324,0.045-0.495-0.062-0.557-0.278C49.468,41.508,49.322,40.897,49.368,40.48z"/>
<path fill-rule="evenodd" clip-rule="evenodd" fill="#787878" d="M13.414,61.104c-1.408-0.745-2.636,0.817-4.459,0.558
	c0.224-0.967-0.415-1.072-0.278-1.951c1.204-0.468,2.482-0.863,3.902-1.115C12.909,59.38,13.206,60.199,13.414,61.104z"/>
<path fill-rule="evenodd" clip-rule="evenodd" fill="#191919" d="M16.48,0.345c0.212-0.46,2.297-0.46,2.508,0
	C18.152,0.345,17.316,0.345,16.48,0.345z"/>
<path fill-rule="evenodd" clip-rule="evenodd" fill="#343434" d="M28.465,5.362c0.905,0.023,1.714,0.144,2.229,0.558
	C29.789,5.896,28.979,5.776,28.465,5.362z"/>
<path fill-rule="evenodd" clip-rule="evenodd" fill="#191919" d="M35.154,5.641c0.374,0.183,0.519,0.596,0.557,1.115
	c-0.093,0-0.186,0-0.278,0C35.216,6.508,35.133,6.127,35.154,5.641z"/>
<path fill-rule="evenodd" clip-rule="evenodd" fill="#343434" d="M35.154,8.985c-0.062-0.897,0.493-1.179,0.279-2.229
	c0.093,0,0.186,0,0.278,0c0.123,0.958-0.11,1.562-0.278,2.229C35.339,8.985,35.247,8.985,35.154,8.985z"/>
<path fill-rule="evenodd" clip-rule="evenodd" fill="#343434" d="M26.514,11.773c-0.122,0.342-0.357,0.572-0.836,0.557
	C25.799,11.987,26.034,11.758,26.514,11.773z"/>
<path fill-rule="evenodd" clip-rule="evenodd" fill="#343434" d="M23.448,19.577c0,0.557,0,1.115,0,1.672
	C22.991,21.294,22.991,19.531,23.448,19.577z"/>
<path fill-rule="evenodd" clip-rule="evenodd" fill="#787878" d="M45.465,41.595c0.301-0.462,2.488-0.462,2.789,0
	C47.324,41.595,46.395,41.595,45.465,41.595z"/>
<path fill-rule="evenodd" clip-rule="evenodd" fill="#191919" d="M43.794,46.611c0,0.465,0,0.929,0,1.394
	C43.338,48.13,43.338,46.486,43.794,46.611z"/>
<path fill-rule="evenodd" clip-rule="evenodd" fill="#343434" d="M43.235,59.711c-0.047,0.417,0.101,1.029-0.278,1.115
	C42.98,60.384,42.823,59.763,43.235,59.711z"/>
<path fill-rule="evenodd" clip-rule="evenodd" fill="#787878" d="M61.631,63.056c0.533-0.583,0.899-1.331,1.116-2.229
	c0.875-0.134,1.09,0.396,1.67,0.557c-0.33,0.876-0.939,1.474-1.113,2.509c-0.815,0.072-0.855-0.631-1.673-0.558
	C61.631,63.241,61.631,63.148,61.631,63.056z"/>
<path fill-rule="evenodd" clip-rule="evenodd" fill="#787878" d="M61.909,66.4c-0.33,0.877-0.939,1.475-1.114,2.508
	c-0.53-0.119-0.701-0.6-1.394-0.557c0.018-1.283,0.793-1.809,1.115-2.787C60.934,65.89,61.657,65.91,61.909,66.4z"/>
<path fill-rule="evenodd" clip-rule="evenodd" fill="#343434" d="M44.352,75.041c-0.024,0.44,0.134,1.063-0.278,1.114
	C44.095,75.713,43.938,75.091,44.352,75.041z"/>
<path fill-rule="evenodd" clip-rule="evenodd" fill="#787878" d="M78.634,81.451c0-0.372,0-0.744,0-1.115
	C79.084,80.136,79.084,81.65,78.634,81.451z"/>
<path fill-rule="evenodd" clip-rule="evenodd" fill="#787878" d="M39.334,82.565c0.65,0,1.301,0,1.951,0
	C41.248,83.024,39.373,83.024,39.334,82.565z"/>
<path fill-rule="evenodd" clip-rule="evenodd" fill="#343434" d="M52.433,99.009c-0.021,0.441,0.135,1.063-0.278,1.114
	C52.179,99.683,52.021,99.061,52.433,99.009z"/>
<path fill-rule="evenodd" clip-rule="evenodd" fill="#343434" d="M71.106,102.632c-0.124-0.455,1.521-0.455,1.395,0
	C72.036,102.632,71.571,102.632,71.106,102.632z"/>
<path fill-rule="evenodd" clip-rule="evenodd" fill="#191919" d="M50.483,111.83c0,0.65,0,1.302,0,1.951
	C50.023,113.743,50.023,111.868,50.483,111.83z"/>
<path fill-rule="evenodd" clip-rule="evenodd" fill="#787878" d="M53.271,111.83c0,0.558,0,1.115,0,1.673
	C52.812,113.547,52.812,111.784,53.271,111.83z"/>
<path fill-rule="evenodd" clip-rule="evenodd" fill="#FFFFFF" d="M16.48,0.345c0.836,0,1.672,0,2.508,0
	c2.478,0.354,5.956,1.264,8.919,1.951c2.781,0.645,6.15,0.868,7.247,3.345c-0.021,0.486,0.062,0.867,0.279,1.115
	c0.214,1.05-0.34,1.332-0.279,2.229c-0.17,0.016-0.33,0.042-0.279,0.279c-0.583,0.347-1.047,0.811-1.394,1.394
	c-0.55,0.511-1.259,0.963-1.951,1.394c-0.225,0.14-0.571,0.11-0.836,0.278c-0.364,0.231-0.729,0.866-1.115,1.115
	c-0.276,0.179-0.576,0.128-0.836,0.279c-0.42,0.243-0.784,0.483-1.393,0.836c-1.388,0.803-3.998,2.214-3.902,5.017
	c-0.457-0.046-0.457,1.718,0,1.672c0.845,6.031,2.886,10.863,4.181,16.444c0.246,0.777,0.348,1.696,0.836,2.229
	c1.589,6.811,3.831,13.594,5.574,20.346c0.46,1.782,0.884,3.546,1.394,5.296c0.487,1.672,0.916,3.34,1.394,5.016
	c0.459,1.614,1.2,3.095,1.672,4.738c0.447,1.559,0.354,3.528,1.672,4.738c1.483-0.917,0.932-2.955,1.115-4.46
	c0.557-4.585,1.445-9.902,1.671-14.771c0.379-0.086,0.231-0.698,0.278-1.115c0-0.371,0-0.744,0-1.115
	c0.379-0.086,0.232-0.698,0.28-1.115c-0.152-0.405,0.325-1.44-0.28-1.394c-0.261-2.805-1.375-4.755-2.229-6.968
	c0-0.372,0-0.743,0-1.114c0-0.465,0-0.929,0-1.394c-0.096-1.211,0.675-1.556,0.836-2.508c0.862-1.182,1.901-2.186,3.622-2.508
	c0.93,0,1.859,0,2.789,0c0.278,0,0.557,0,0.836,0c0.062,0.217,0.232,0.323,0.557,0.278c0.204,0.26,0.507,0.422,0.837,0.558
	c0.345,0.583,0.81,1.047,1.393,1.393c0.141,0.696,0.527,1.146,0.838,1.673c-0.053,0.236,0.107,0.263,0.278,0.278
	c0.725,4.942,0.633,10.701,3.344,13.657c0.347,0.583,0.812,1.047,1.395,1.394c1.172,0.871,2.51,1.576,3.9,2.229
	c0,0.093,0,0.186,0,0.279c0.817-0.073,0.857,0.629,1.673,0.558c3.626,1.916,7.779,3.937,11.428,6.131
	c0.342,0.206,0.777,0.054,1.113,0.279c0.289,0.191,0.947,1.021,1.395,1.394c0.238,0.198,0.631,0.328,0.835,0.557
	c0.199,0.223,0.087,0.579,0.279,0.837c0.1,0.131,0.475,0.154,0.559,0.278c1.24,1.864,1.921,4.242,2.508,6.968
	c0,0.371,0,0.743,0,1.115c0,0.371,0,0.743,0,1.114c-0.825,1.01-1.264,2.175-2.508,2.787c-0.404,0.199-0.793,0.041-1.395,0.279
	c-2.416,0.958-5.055,1.688-7.803,2.508c-3.49,1.04-8.461,1.898-11.149,4.181c-0.491,0.252-0.863,0.624-1.114,1.116
	c-3.289,4.236-2.95,12.099-4.181,18.394c-0.459-0.046-0.459,1.718,0,1.673c0.269,0.666,0.701,1.267,1.114,1.394
	c1.214,0.374,1.831-0.305,2.786-1.115c0.707-0.598,1.09-1.546,1.673-2.229c1.309-1.532,2.606-2.726,3.624-3.902
	c0.307-0.354,0.501-0.718,0.836-1.114c0.665-0.789,1.564-1.784,2.229-2.787c1.028-1.55,3.05-3.792,5.295-3.902
	c0.651,0,1.301,0,1.951,0c1.444,0.042,2.232,0.741,3.065,1.394c0.253,0.492,0.625,0.863,1.116,1.115
	c1.046,1.276,1.993,2.65,2.229,4.738c0,1.486,0,2.973,0,4.459c-0.429,2.73-2.021,4.297-3.346,6.132
	c-0.675,0.439-1.232,0.997-1.671,1.672c-2.729,3.591-5.659,6.976-8.641,10.313c-0.583,0.347-1.048,0.811-1.395,1.395
	c-0.014,0.169-0.04,0.329-0.278,0.278c-1.604,1.273-4.588,1.171-7.524,1.114c-1.208,0-2.416,0-3.622,0
	c-0.939,0.177-2.591-0.359-3.067,0.278c-0.649,0-1.301,0-1.951,0c-0.371,0-0.743,0-1.114,0c-0.835,0-1.673,0-2.508,0
	c-0.651,0-1.301,0-1.952,0c-0.929,0-1.858,0-2.787,0c-1.554-0.025-2.256-0.902-3.345-1.393c-0.252-0.492-0.623-0.864-1.115-1.115
	c-0.093,0-0.186,0-0.279,0c-2.129-2.917-3.338-5.8-4.459-9.755c-0.397-1.403-0.617-2.825-1.115-4.459
	c-1.401-4.593-3.067-10.16-4.459-15.329c-0.986-3.661-1.952-7.306-3.065-11.149c-0.503-1.734-1.319-4.099-1.951-6.409
	c-1.945-7.107-4.266-14.791-6.132-22.019c-0.208-0.906-0.505-1.725-0.836-2.508C11.6,54.411,9.902,49.53,8.676,44.939
	c-0.341-1.278-0.525-2.621-1.115-3.901c-0.327-0.708-0.499-2.677-0.836-3.902c-0.281-1.022-0.822-1.802-1.115-2.787
	c-0.422-1.421-0.577-2.996-1.115-4.738c-1.288-4.178-2.753-8.466-3.902-13.657c-0.277-1.251-0.723-2.27-0.557-3.345
	c0.215-1.392,1.104-2.301,2.229-2.788c1.821-0.241,2.805,0.354,4.181,0.558c0,0.093,0,0.186,0,0.279
	c0.914,0.016,1.065,0.792,2.23,0.558c0.645-1.12,1.231-2.299,1.672-3.623c0.963-1.359,1.22-3.426,2.229-4.739
	c0.492-0.251,0.863-0.623,1.115-1.114c0.313-0.059,0.434-0.31,0.557-0.558C15.397,1.307,15.116,0.003,16.48,0.345z M17.038,3.133
	c-4.03,0.986-3.532,6.501-5.853,9.197c-0.491,0.252-0.863,0.624-1.114,1.115c-2.376,1.591-4.68-0.854-6.969-1.115
	c-0.761,1.536,0.321,3.258,0.558,4.181c0.145,0.563,0.143,1.196,0.279,1.672C5.383,23.248,7.119,28.7,8.397,33.512
	c0.146,0.548,0.407,0.871,0.557,1.394c0.28,0.971,0.276,2.047,0.558,3.065c0.116,0.421,0.442,0.708,0.558,1.115
	c1.856,6.55,3.248,12.524,5.295,18.673c-0.061,0.898,0.493,1.179,0.279,2.23c0.093,0,0.186,0,0.278,0
	c3.888,14.624,9.529,32.553,13.657,48.217c0.637,2.417,1.336,4.518,1.952,6.689c0.678,2.393,1.24,4.523,1.951,6.688
	c0.473,1.441,0.952,2.568,1.672,3.902c0.316,0.585,0.444,1.372,0.836,1.95c0.157,0.231,0.656,0.333,0.836,0.559
	c0.326,0.408,0.34,0.932,0.557,1.114c0.105,0.089,0.429-0.058,0.558,0c0.097,0.044,0.164,0.491,0.278,0.558
	c0.348,0.201,1.041,0.02,1.115,0.558c0.278,0,0.557,0,0.836,0c0.211,0.461,2.297,0.461,2.508,0c0.557,0,1.115,0,1.673,0
	c0.465,0,0.93,0,1.395,0c0.835,0,1.671,0,2.508,0c0.928,0,1.857,0,2.787,0c1.306-0.181,3.337,0.363,4.181-0.279
	c0.465,0,0.928,0,1.393,0c0.373,0,0.743,0,1.116,0c0.557,0,1.113,0,1.671,0c0.416-0.047,1.029,0.1,1.115-0.278
	c0.278,0,0.558,0,0.836,0c0.184-0.374,0.595-0.52,1.115-0.558c0.491-0.252,0.862-0.624,1.114-1.114
	c2.795-3.803,5.98-7.213,8.919-10.87c0.313-0.059,0.433-0.31,0.558-0.558c0.49-0.251,0.863-0.624,1.115-1.115
	c0-0.093,0-0.185,0-0.278c1.124-1.291,2.105-2.725,2.509-4.738c0.458-0.124,0.458-2.105,0-2.229
	c-0.373-1.486-0.854-2.864-1.673-3.901c-0.253-0.492-0.623-0.863-1.116-1.115c-0.529-0.119-0.699-0.601-1.393-0.558
	c0.126-0.455-1.519-0.455-1.395,0c-0.076,0.03-0.204-0.037-0.278,0c-1.342,0.686-2.496,2.02-3.622,3.345
	c-0.29,0.341-0.263,0.74-0.559,1.115c-0.261,0.33-0.844,0.513-1.114,0.836c-0.28,0.334-0.32,0.824-0.557,1.115
	c-0.271,0.329-0.84,0.511-1.116,0.835c-0.288,0.342-0.263,0.755-0.557,1.116c-0.255,0.313-0.829,0.48-1.114,0.835
	c-0.22,0.273-0.356,0.85-0.559,1.115c-0.103,0.134-0.449,0.135-0.557,0.278c-0.188,0.252-0.097,0.616-0.279,0.837
	c-0.2,0.24-0.534,0.496-0.835,0.836c-0.345,0.389-0.571,0.85-0.838,1.115c-0.589,0.584-1.452,1.176-2.229,1.394
	c-1.021,0-2.043,0-3.065,0c-0.69,0.042-1.155-0.145-1.395-0.559c-0.25-0.49-0.623-0.862-1.113-1.113
	c-0.453-0.478-0.844-1.016-0.836-1.952c0-0.649,0-1.301,0-1.951c0.451-4.008,1.232-7.687,1.671-11.706
	c0.413-0.051,0.257-0.673,0.278-1.114c0.055-3.478,1.573-5.488,3.067-7.525c0.491-0.252,0.863-0.624,1.114-1.114
	c2.366-2.271,5.946-3.142,10.312-4.46c1.629-0.49,3.683-1.014,5.854-1.672c2.461-0.746,5.61-1.165,5.854-2.787
	c0.45,0.199,0.45-1.314,0-1.115c-0.337-2.19-1.402-4.166-2.229-5.295c-0.253-0.344-0.387-0.938-0.56-1.115
	c-0.212-0.219-0.571-0.094-0.835-0.278c-0.23-0.161-0.319-0.675-0.558-0.837c-0.509-0.342-1.38-0.514-1.951-0.836
	c-3.464-1.95-7.264-3.961-10.592-5.574c-0.252-0.49-0.976-0.51-1.393-0.835c-1.738-0.585-3.099-1.548-4.459-2.509
	c-0.441-0.675-0.998-1.233-1.673-1.672c-0.703-1.163-1.804-2.015-2.509-4.181c-1.681-5.161-0.08-12.676-4.459-13.1
	c-1.958-0.189-2.559,0.744-3.623,1.951c0,0.186,0,0.372,0,0.557c-0.456-0.125-0.456,1.519,0,1.394
	c0.401,2.478,1.901,3.857,1.952,6.689c0,2.137,0,4.273,0,6.41c-0.375,4.737-1.175,9.045-1.395,13.936
	c-0.413,0.051-0.257,0.673-0.278,1.114c-0.371,2.695-0.19,5.941-2.788,6.41c-0.65,0-1.301,0-1.951,0
	c-2.895-0.85-2.896-4.119-3.624-6.688c-3.31-11.69-7.053-23.982-10.033-35.396c-0.481-0.169,0.021-1.322-0.558-1.394
	c-1.224-5.28-2.918-10.088-4.181-15.329c-0.67-3.148-0.3-6.999,1.394-8.64c0.583-0.346,1.047-0.811,1.393-1.394
	c0.419-0.417,1.174-0.499,1.394-1.115c0.279,0.001,0.332-0.226,0.558-0.279c0.479,0.016,0.714-0.214,0.836-0.557
	c1.112-0.568,2.277-1.246,3.345-1.952c1.022-0.675,2.577-1.344,2.787-2.787c-0.016-1.006-1.466-0.577-1.951-1.114
	c-0.516-0.414-1.324-0.534-2.229-0.558c-0.773,0.035-1.526-0.352-2.23-0.557c-2.61-0.765-4.958-1.188-7.525-1.672
	C18.755,2.675,16.991,2.675,17.038,3.133z"/>
<path fill-rule="evenodd" clip-rule="evenodd" fill="#343434" d="M41.843,17.904c3.502-2.195,8.486,0.1,7.804,4.738
	c0.023,0.441-0.135,1.063,0.278,1.115c0,0.279,0,0.557,0,0.836c0.024,0.441-0.134,1.063,0.278,1.115
	c0.09,1.769,0.644,3.075,0.56,5.017c0.021,0.441-0.135,1.063,0.278,1.115c0,0.278,0,0.558,0,0.836
	c0.021,0.441-0.135,1.063,0.278,1.115c0,0.279,0,0.558,0,0.836c0.021,0.442-0.135,1.063,0.278,1.116
	c0.09,1.768,0.641,3.074,0.557,5.017c0.024,0.441-0.134,1.063,0.278,1.115c0,0.278,0,0.558,0,0.836
	c0.024,0.442-0.134,1.063,0.281,1.115c0,0.279,0,0.558,0,0.836c0,0.278,0,0.557,0,0.836c-0.311-0.527-0.697-0.977-0.838-1.673
	c-0.347-0.583-0.812-1.047-1.393-1.393c-0.33-0.135-0.633-0.298-0.837-0.558c-0.152-0.405,0.326-1.44-0.278-1.394
	c0-0.279,0-0.558,0-0.836c-0.022-0.441,0.134-1.063-0.278-1.115c0-0.278,0-0.558,0-0.836c-0.024-0.442,0.134-1.063-0.279-1.115
	c-0.09-1.768-0.643-3.074-0.557-5.017c-0.024-0.441,0.132-1.063-0.28-1.115c0-0.278,0-0.557,0-0.835
	c-0.022-0.441,0.134-1.063-0.278-1.115c0-0.278,0-0.557,0-0.836c-0.022-0.441,0.134-1.063-0.278-1.115
	c0.035-1.15-0.485-1.746-0.279-3.066c-0.021-0.441,0.135-1.063-0.278-1.115c-0.054-1.803-0.966-2.75-3.065-2.508
	c-0.768,0.534-1.418,1.184-1.951,1.951c-0.099,0.366-0.491,0.438-0.557,0.836c-0.583,0.346-1.048,0.811-1.394,1.394
	c-0.099,0.366-0.491,0.438-0.557,0.836c-0.583,0.346-1.047,0.811-1.394,1.394c-1.111,1.578-2.427,2.728-2.508,4.738
	c-0.105,2.588,2.009,4.543,2.508,6.689c0.28,0.37,0.264,1.037,0.836,1.115c0.803,1.798,1.861,3.342,2.509,5.295
	c0.185,0,0.371,0,0.557,0c-0.161,0.953-0.933,1.297-0.836,2.508c-0.455-0.125-0.455,1.519,0,1.394c0,0.371,0,0.743,0,1.114
	c-1.743-2.812-4.168-7.719-6.131-11.427c-1.168-2.206-2.949-4.611-2.229-8.361c0.195-1.02,1.107-1.919,1.672-3.065
	c0.583-0.347,1.048-0.811,1.394-1.394c0.099-0.366,0.491-0.438,0.558-0.836c0.583-0.347,1.047-0.811,1.394-1.394
	c0.098-0.366,0.49-0.438,0.557-0.836c0.583-0.346,1.047-0.811,1.394-1.394c0.099-0.366,0.491-0.438,0.558-0.836
	C40.846,19.137,41.403,18.58,41.843,17.904z"/>
<path fill-rule="evenodd" clip-rule="evenodd" fill="#343434" d="M70.828,99.845c0.038-0.459,1.913-0.459,1.951,0
	C72.129,99.845,71.479,99.845,70.828,99.845z"/>
<path fill-rule="evenodd" clip-rule="evenodd" fill="#C1C1C1" d="M45.746,54.694c0.463,1.492,0.463,4.919,0,6.41
	C45.746,58.967,45.746,56.831,45.746,54.694z"/>
<path fill-rule="evenodd" clip-rule="evenodd" fill="#C1C1C1" d="M79.19,107.092c0.463,0.845,0.463,3.612,0,4.459
	C79.19,110.065,79.19,108.579,79.19,107.092z"/>
<path fill-rule="evenodd" clip-rule="evenodd" fill="#C1C1C1" d="M53.827,117.405c1.022,0,2.044,0,3.065,0
	C56.504,117.866,54.218,117.866,53.827,117.405z"/>
<path fill-rule="evenodd" clip-rule="evenodd" fill="#C1C1C1" d="M39.334,132.733c0.929,0,1.858,0,2.787,0c0,0.094,0,0.186,0,0.279
	C41.274,132.837,39.721,133.369,39.334,132.733z"/>
<path fill-rule="evenodd" clip-rule="evenodd" fill="#787878" d="M25.12,39.086c0.579,0.071,0.076,1.225,0.558,1.394
	c-0.873,0.335-1.859,0.557-2.788,0.836c0.006-0.657-0.479-0.821-0.278-1.672C23.61,39.62,24.222,39.21,25.12,39.086z"/>
<path fill-rule="evenodd" clip-rule="evenodd" fill="#787878" d="M15.365,57.76c1.24-0.432,2.558-0.786,3.902-1.115
	c0.275,0.655,0.489,1.369,0.558,2.23c-1.42,0.252-2.698,0.646-3.902,1.115c-0.092,0-0.186,0-0.278,0
	C15.858,58.939,15.304,58.658,15.365,57.76z"/>
</svg>
