<?xml version="1.0" encoding="utf-8"?>
<!-- Generator: Adobe Illustrator 15.0.0, SVG Export Plug-In  -->
<!DOCTYPE svg PUBLIC "-//W3C//DTD SVG 1.1//EN" "http://www.w3.org/Graphics/SVG/1.1/DTD/svg11.dtd" [
	<!ENTITY ns_flows "http://ns.adobe.com/Flows/1.0/">
]>
<svg version="1.1"
	 xmlns="http://www.w3.org/2000/svg" xmlns:xlink="http://www.w3.org/1999/xlink" xmlns:a="http://ns.adobe.com/AdobeSVGViewerExtensions/3.0/"
	 x="0px" y="0px" width="142px" height="142px" viewBox="-2.783 -29.878 142 142" enable-background="new -2.783 -29.878 142 142"
	 xml:space="preserve">
<defs>
</defs>
<path fill-rule="evenodd" clip-rule="evenodd" fill="#323232" d="M88.356,34.07c0.371,0,0.743,0,1.114,0
	C89.67,34.521,88.156,34.521,88.356,34.07z"/>
<path fill-rule="evenodd" clip-rule="evenodd" fill="#323232" d="M76.372,15.396c-0.966,0.615-2.104,1.056-1.673,3.066
	c-7.734,1.092-15.798,1.853-23.133,3.345c1.065,1.22,1.959,2.266,3.066,3.623c0.154,0.188,0.435,0.389,0.558,0.558
	c0.351,0.482,0.47,1.171,0.836,1.671c0.322,0.441,1.008,0.829,1.393,1.394c0.193,0.284,0.069,0.339,0.279,0.558
	c0.139,0.144,0.311,0.713,0.557,1.115c0.726,1.178,1.738,2.189,1.672,3.345c-0.14,2.464-2.603,3.223-6.41,2.787
	c-2.568-0.293-3.264-0.767-4.181-2.787c-0.347-0.764-0.459-1.626-0.836-2.23c-0.625-1.001-1.468-1.667-2.23-2.229
	c-0.438-0.324-0.565-0.899-1.114-1.115c-0.656-0.257-1.226,0.147-1.951-0.278c0.916,2.15,2.368,4.086,3.623,6.131
	c1.33,2.167,2.957,4.285,3.345,6.411c0.313,1.72-0.13,3.474-0.836,5.296c-0.342,0.88-0.667,1.981-0.836,2.229
	c-0.891,1.307-3.073,2.174-5.017,3.065c-1.365,0.626-2.554,1.312-3.345,1.394c-1.698,0.178-3.769-0.438-5.017-0.837
	c-0.912-0.29-1.589-0.383-2.508-0.835c-1.484-0.73-2.559-2.087-3.902-3.902c-0.866-1.17-1.654-2.252-2.509-3.344
	c-0.243-0.312-0.312-0.808-0.558-1.115c-0.191-0.239-0.647-0.323-0.836-0.558c-0.279-0.347-0.255-0.762-0.557-1.115
	c-0.204-0.237-0.636-0.322-0.836-0.558c-0.284-0.332-0.313-0.829-0.558-1.115c-0.476-0.556-1.435-1.582-2.508-1.673
	c-1.118-0.094-2.921,1.23-4.459,1.951c-4.007,1.879-9.247,4.164-12.821,5.854c0.209,0.878,1.197,1.336,1.951,1.951
	c0.339,0.276,0.694,0.433,1.115,0.836c0.494,0.472,1.756,1.112,2.508,1.672c3.476,2.585,7.09,5.228,10.591,8.083
	c0.192,0.156,0.385,0.429,0.557,0.557c0.482,0.359,1.186,0.483,1.672,0.837c0.235,0.171,0.326,0.674,0.558,0.835
	c0.268,0.188,0.592,0.097,0.836,0.279c0.709,0.533,1.15,1.175,1.951,1.672c0.202,0.127,0.609,0.115,0.836,0.279
	c0.236,0.171,0.326,0.674,0.558,0.836c0.269,0.188,0.593,0.094,0.836,0.279c4.85,3.683,10.287,8.052,15.608,11.706
	c1.291,0.887,2.547,1.631,3.902,2.509c0.371,0.24,1.228,1.235,1.951,0.835c-0.904-2.042-1.583-3.797-2.23-5.573
	c-0.322-0.887-0.772-1.839-1.114-2.788c-0.545-1.511-1.159-3.699-0.836-6.131c0.396-2.987,2.563-4.873,4.459-6.689
	c0.237-0.227,0.603-0.334,0.836-0.558c0.241-0.231,1.35-0.729,1.951-1.114c2.018-1.29,4.033-2.447,6.132-3.903
	c1.077-0.746,2.32-1.544,2.787-2.229c0.556-0.817,0.483-1.869,0.836-2.788c0.151-0.393,0.354-0.934,0.558-1.393
	c1.116-2.521,3.876-3.414,6.688-4.738c1.364-2.657,0.702-5.49,1.951-7.804c0.203-0.375,0.897-0.879,1.395-1.394
	c1.847-1.917,4.613-3.699,8.359-3.902c0.249,0.125,0.499,0.246,0.56,0.558c0.533,0.768,1.182,1.418,1.951,1.951
	c1.358,1.056,2.675,2.155,3.9,3.345c-0.785-0.089-1.244-0.547-1.951-0.836c-0.611-0.25-1.326-0.294-1.949-0.557
	c-1.328-0.56-2.119-1.45-3.902-1.394c-2.33,0.074-5.771,2.63-6.411,4.738c-0.419,1.378,0.008,4.222-1.114,6.132
	c-0.105,0.179-0.41,0.333-0.559,0.557c-0.889,1.341-3.059,1.773-4.738,2.786c-0.355,0.216-0.84,0.517-1.115,0.837
	c-1.068,1.249-1.165,3.507-1.951,5.018c-0.063,0.121-0.512,0.177-0.558,0.278c-0.581,1.288-1.765,2.019-3.345,3.065
	c-2.737,1.815-5.716,3.656-8.64,5.574c-0.552,0.361-1.436,0.86-1.672,1.115c-0.188,0.202-0.094,0.637-0.279,0.836
	c-3.081,3.309-0.417,8.329,1.115,12.542c0.43,1.182,1.192,2.39,1.394,3.344c0.252,1.198,0.436,2.126,0,3.066
	c-0.27,0.583-0.579,0.769-1.116,1.394c-2.439,0.294-4.21-1.464-5.852-2.508c-0.536-0.341-1.191-0.527-1.673-0.837
	c-0.106-0.068-0.186-0.516-0.279-0.557c-0.142-0.064-0.429,0.085-0.557,0c-0.104-0.069-0.188-0.518-0.279-0.559
	c-0.139-0.062-0.434,0.088-0.557,0c-0.537-0.377-0.899-1.031-1.394-1.393c-0.257-0.188-0.351-0.082-0.557-0.279
	c-0.121-0.115-0.722-0.542-1.115-0.836c-1.334-0.996-3.157-2.153-4.738-3.345c-0.692-0.521-1.389-1.375-2.23-1.95
	c-0.212-0.146-0.598-0.106-0.836-0.279c-0.54-0.392-0.806-0.959-1.394-1.394c-0.481-0.355-1.191-0.479-1.672-0.836
	c-0.486-0.361-0.909-1.018-1.393-1.393c-0.264-0.206-0.596-0.362-0.836-0.559c-1.939-1.581-4.687-3.3-6.968-5.018
	c-2.448-1.842-5.071-3.834-7.804-5.852c-0.242-0.179-0.755-0.954-1.115-1.115c-0.858-0.387-1.827-1.168-2.787-1.951
	c-0.951-0.775-2.456-1.786-3.623-2.787c-0.86-0.738-2.326-1.163-2.23-3.065c0.091-1.805,2.154-2.55,4.459-3.624
	c4.265-1.987,6.437-2.951,10.87-5.017c1.912-0.891,3.968-2.19,5.853-1.951c1.656,0.211,2.55,1.572,3.623,2.787
	c0.841,0.953,1.333,1.616,2.23,2.788c0.069,0.09,0.521,0.197,0.557,0.279c0.431,0.955,1.412,2.165,2.229,3.345
	c0.07,0.1,0.518,0.19,0.558,0.278c1.077,2.389,2.791,4.148,5.853,5.017c2.981,0.847,4.067,0.623,6.968-0.836
	c1.107-0.557,2.393-1.014,3.065-1.951c0.193-0.27,0.681-1.765,0.836-2.229c0.193-0.58,0.597-1.723,0.558-2.508
	c-0.049-0.984-0.536-1.904-1.115-2.508c-0.227-0.237-0.334-0.603-0.558-0.836c-0.292-0.304-0.679-1.495-1.115-2.229
	c-0.345-0.581-0.746-1.07-1.115-1.673c-0.609-0.994-1.449-1.993-2.229-3.344c-0.678-1.175-1.733-3.072-1.394-4.181
	c0.387-1.261,2.027-1.554,3.902-1.394c2.889,0.247,2.462,0.346,4.459,2.23c1.536,1.448,3.318,3.169,3.623,5.853
	c1.185,0.488,3.137,0.208,4.738,0.279c0.332-0.698-0.52-1.179-0.836-1.672c-1.739-2.713-3.471-5.189-5.853-8.083
	c-0.982-1.193-2.291-2.113-1.951-3.624c0.396-1.763,3.53-1.816,6.131-2.229C61.525,17.323,69.443,16.396,76.372,15.396z"/>
<path fill-rule="evenodd" clip-rule="evenodd" fill="#A9A9A9" d="M93.094,31.84c0.438-0.675,0.996-1.232,1.671-1.672
	C94.327,30.843,93.769,31.4,93.094,31.84z"/>
<path fill-rule="evenodd" clip-rule="evenodd" fill="#737373" d="M132.113,10.379c0.757,0.544,1.268,1.333,2.229,1.672
	c-0.002,0.554-0.759,0.354-0.557,1.115c-1.543,0.232-1.833-1.925-3.065-1.115C131.107,11.417,131.684,10.972,132.113,10.379z"/>
<path fill-rule="evenodd" clip-rule="evenodd" fill="#FFFFFF" d="M133.228,0.346c0.836,0,1.673,0,2.509,0
	c0.761-0.203,0.561,0.554,1.113,0.557c0,0.186,0,0.372,0,0.558c0,0.65,0,1.301,0,1.951c-1.214,2.687-2.938,4.864-4.737,6.967
	c-0.429,0.593-1.006,1.038-1.393,1.672c0.276,0.778-0.896,0.905-1.116,1.394c-0.284,0.631-0.829,1.522-1.393,2.229
	c-0.825,1.036-1.94,1.984-2.786,3.066c-0.272,0.347-0.269,0.736-0.559,1.114c-0.068,0.091-0.52,0.197-0.558,0.279
	c-0.288,0.64-0.837,1.237-1.393,1.951c-0.865,1.109-1.601,2.517-2.788,3.345c-0.491,0.251-0.861,0.624-1.114,1.115
	c-0.435,0.791-2.49,1.049-3.902,1.394c-2.833,0.689-6.438,1.604-9.755,2.229c-0.557,0-1.113,0-1.673,0c-0.092,0-0.185,0-0.278,0
	c-0.579-0.163-0.901-0.585-1.393-0.836c-0.703-0.877-0.941-2.217-2.229-2.509c0.124-0.455-1.521-0.455-1.395,0
	c-2.134,0.189-2.151,2.494-3.624,3.345c-0.675,0.44-1.232,0.998-1.671,1.672c-0.945,1.006-1.885,2.016-3.624,2.23
	c-0.371,0-0.743,0-1.114,0c-0.877,0.133-1.09-0.397-1.673-0.558c-1.226-1.189-2.542-2.289-3.9-3.345
	c-0.535-0.768-1.184-1.417-1.951-1.951c-0.061-0.313-0.311-0.434-0.56-0.558c-1.995-2.776-4.148-5.48-5.573-8.918
	c-0.032-0.08,0.026-0.197,0-0.279c-0.431-2.01,0.707-2.451,1.673-3.066c0.77-0.253,1.958-0.086,2.509-0.557
	c10.472-1.792,20.345-4.182,30.101-6.689c0.878-0.33,2.102-0.313,2.787-0.836C119.079,5.148,125.968,2.563,133.228,0.346z
	 M129.882,8.707c1.425-1.736,2.779-3.541,3.903-5.574c-7.28,2.29-14.156,4.981-21.739,6.968c-0.938,0.177-2.031,0.198-2.508,0.836
	c-9.897,2.553-19.798,5.1-30.658,6.689c-0.802-0.057-1.417,0.071-1.673,0.558c0.797,0.597,0.966,1.822,1.673,2.508
	c1.231,1.555,2.104,3.47,3.344,5.017c0,0.28,0.226,0.331,0.278,0.558c0.683,0.897,1.398,1.761,2.508,2.229
	c1.351,0.538,2.37,2.807,3.903,2.788c1.09-0.014,1.168-1.084,2.508-1.394c0.583-0.346,1.048-0.811,1.395-1.394
	c1.156-2.002,2.172-4.146,5.017-4.459c0.648,0,1.3,0,1.951,0c2.155,0.073,3.104,1.355,3.9,2.787
	c0.017,0.357,0.358,0.386,0.278,0.836c0.407-0.152,1.442,0.326,1.395-0.278c4.089-1.021,8.176-2.044,12.263-3.065
	c3.782-4.858,7.579-9.703,11.428-14.493c0.092,0,0.187,0,0.278,0C129.33,9.268,130.087,9.467,129.882,8.707z"/>
<path fill-rule="evenodd" clip-rule="evenodd" fill="#DADADA" d="M119.014,26.544c0.253-0.491,0.623-0.863,1.114-1.115
	C120.094,26.139,119.723,26.51,119.014,26.544z"/>
<path fill-rule="evenodd" clip-rule="evenodd" fill="#737373" d="M80.832,28.217c0.768,0.533,1.416,1.183,1.951,1.951
	C82.013,29.635,81.365,28.984,80.832,28.217z"/>
<path fill-rule="evenodd" clip-rule="evenodd" fill="#323232" d="M82.224,25.708c0.49,0.251,0.863,0.623,1.115,1.114
	c-0.366-0.098-0.438-0.491-0.837-0.557C82.45,26.04,82.224,25.988,82.224,25.708z"/>
<path fill-rule="evenodd" clip-rule="evenodd" fill="#DADADA" d="M82.502,26.266c0.398,0.066,0.471,0.458,0.837,0.557
	c0.234,0.88,1.437,0.793,1.671,1.672C83.901,28.027,83.185,27.163,82.502,26.266z"/>
<path fill-rule="evenodd" clip-rule="evenodd" fill="#A9A9A9" d="M91.421,29.889c0.347-0.583,0.812-1.047,1.395-1.394
	C92.469,29.078,92.004,29.543,91.421,29.889z"/>
<path fill-rule="evenodd" clip-rule="evenodd" fill="#737373" d="M129.882,8.707c0.205,0.76-0.553,0.561-0.557,1.115
	c-0.092,0-0.187,0-0.278,0c-0.894-0.22-1.218-1.012-1.951-1.394c0-0.186,0-0.372,0-0.558c0.248-0.124,0.499-0.245,0.559-0.557
	c0.093,0,0.185,0,0.278,0C128.827,7.534,129.152,8.325,129.882,8.707z"/>
<path fill-rule="evenodd" clip-rule="evenodd" fill="#323232" d="M127.096,8.428c-0.217-0.062-0.322-0.233-0.278-0.558
	c0.49,0.08,0.863-1.312,1.115-0.557c-0.094,0-0.186,0-0.278,0c-0.06,0.313-0.311,0.434-0.559,0.557
	C127.096,8.057,127.096,8.242,127.096,8.428z"/>
<path fill-rule="evenodd" clip-rule="evenodd" fill="#737373" d="M76.372,15.396c0.728-0.868-0.296-1.767,0-3.066
	c0.465,0,0.928,0,1.393,0c0.282,0.925,0.03,2.385,1.116,2.509C78.33,15.31,77.141,15.143,76.372,15.396z"/>
<path fill-rule="evenodd" clip-rule="evenodd" fill="#A9A9A9" d="M136.85,1.46c0.461,0.038,0.461,1.913,0,1.951
	C136.85,2.761,136.85,2.111,136.85,1.46z"/>
<path fill-rule="evenodd" clip-rule="evenodd" fill="#737373" d="M108.981,8.15c-0.046-1.628-0.945-2.4-0.837-4.181
	c0.488-0.255,1.39-0.096,1.673-0.557c1.142,0.809,0.358,3.544,1.951,3.902C111.083,7.836,109.859,7.82,108.981,8.15z"/>
<path fill-rule="evenodd" clip-rule="evenodd" fill="#323232" d="M97.833,24.036c0.038-0.459,1.913-0.459,1.951,0
	C99.132,24.036,98.481,24.036,97.833,24.036z"/>
<path fill-rule="evenodd" clip-rule="evenodd" fill="#323232" d="M98.389,26.823c-0.126-0.455,1.519-0.455,1.395,0
	C99.319,26.823,98.854,26.823,98.389,26.823z"/>
<path fill-rule="evenodd" clip-rule="evenodd" fill="#737373" d="M105.357,27.38c0.048,0.604-0.987,0.126-1.395,0.278
	c0.08-0.45-0.262-0.479-0.278-0.836c0.095,0,0.187,0,0.278,0c0.487-0.589,0.823-2.317,1.673-1.672
	C107.112,25.64,105.782,26.545,105.357,27.38z"/>
<path fill-rule="evenodd" clip-rule="evenodd" fill="#737373" d="M102.013,29.332c0.491,0.25,0.813,0.673,1.393,0.836
	c-0.601,0.698-0.88,1.723-1.673,2.23c-0.76,0.203-0.559-0.554-1.114-0.558C100.828,30.747,101.707,30.326,102.013,29.332z"/>
<path fill-rule="evenodd" clip-rule="evenodd" fill="#DADADA" d="M133.228,0.346c0.211-0.461,2.298-0.461,2.509,0
	C134.901,0.346,134.064,0.346,133.228,0.346z"/>
<path fill-rule="evenodd" clip-rule="evenodd" fill="#737373" d="M109.539,10.937c0.477-0.638,1.57-0.659,2.508-0.836
	c0.11,1.562,0.817,2.527,0.836,4.181c-0.864-0.028-1.331,0.34-1.952,0.558c-0.326-1.344-0.681-2.662-1.113-3.902
	C109.724,10.937,109.63,10.937,109.539,10.937z"/>
<path fill-rule="evenodd" clip-rule="evenodd" fill="#737373" d="M78.88,20.691c-0.707-0.686-0.876-1.911-1.673-2.508
	c0.256-0.487,0.871-0.615,1.673-0.558C78.782,18.81,80.058,20.099,78.88,20.691z"/>
<path fill-rule="evenodd" clip-rule="evenodd" fill="#737373" d="M103.684,30.167c0.56,0,1.116,0,1.673,0
	C105.403,30.625,103.64,30.625,103.684,30.167z"/>
</svg>
