<?xml version="1.0" encoding="utf-8"?>
<!-- Generator: Adobe Illustrator 15.0.0, SVG Export Plug-In  -->
<!DOCTYPE svg PUBLIC "-//W3C//DTD SVG 1.1//EN" "http://www.w3.org/Graphics/SVG/1.1/DTD/svg11.dtd" [
	<!ENTITY ns_flows "http://ns.adobe.com/Flows/1.0/">
]>
<svg version="1.1"
	 xmlns="http://www.w3.org/2000/svg" xmlns:xlink="http://www.w3.org/1999/xlink" xmlns:a="http://ns.adobe.com/AdobeSVGViewerExtensions/3.0/"
	 x="0px" y="0px" width="142px" height="142px" viewBox="-2.722 -29.878 142 142" enable-background="new -2.722 -29.878 142 142"
	 xml:space="preserve">
<defs>
</defs>
<path fill-rule="evenodd" clip-rule="evenodd" fill="#DADADA" d="M53.021,34.07c0.372,0,0.743,0,1.115,0c0,0.093,0,0.186,0,0.278
	C53.718,34.301,53.107,34.448,53.021,34.07z"/>
<path fill-rule="evenodd" clip-rule="evenodd" fill="#A9A9A9" d="M54.135,34.348c0-0.092,0-0.186,0-0.278c0.557,0,1.115,0,1.672,0
	c0,0.093,0,0.186,0,0.278C55.25,34.348,54.692,34.348,54.135,34.348z"/>
<path fill-rule="evenodd" clip-rule="evenodd" fill="#323232" d="M88.417,34.07c0.371,0,0.743,0,1.114,0
	C89.731,34.521,88.217,34.521,88.417,34.07z"/>
<path fill-rule="evenodd" clip-rule="evenodd" fill="#DADADA" d="M54.692,36.856c0-0.093,0-0.186,0-0.278
	c0.49,0.16,1.638-0.337,1.673,0.278C55.808,36.856,55.25,36.856,54.692,36.856z"/>
<path fill-rule="evenodd" clip-rule="evenodd" fill="#323232" d="M47.446,41.316c0.456-0.125,0.456,1.519,0,1.394
	C47.446,42.245,47.446,41.781,47.446,41.316z"/>
<path fill-rule="evenodd" clip-rule="evenodd" fill="#DADADA" d="M38.807,49.956c0.464,0,0.929,0,1.393,0
	C40.326,50.411,38.681,50.411,38.807,49.956z"/>
<path fill-rule="evenodd" clip-rule="evenodd" fill="#323232" d="M44.38,65.285c0,0.372,0,0.743,0,1.115
	C43.928,66.6,43.928,65.086,44.38,65.285z"/>
<path fill-rule="evenodd" clip-rule="evenodd" fill="#323232" d="M47.167,66.4c-0.452,0.199-0.452-1.314,0-1.115
	C47.167,65.657,47.167,66.028,47.167,66.4z"/>
<path fill-rule="evenodd" clip-rule="evenodd" fill="#323232" d="M49.119,28.217c-0.675-0.439-1.233-0.997-1.672-1.672
	C48.122,26.984,48.679,27.542,49.119,28.217z"/>
<path fill-rule="evenodd" clip-rule="evenodd" fill="#323232" d="M20.69,67.516c0.58,0.604,0.901-0.034,1.394-0.279
	C21.959,67.868,20.884,68.514,20.69,67.516z"/>
<path fill-rule="evenodd" clip-rule="evenodd" fill="#A9A9A9" d="M61.104,52.743c0.251-0.491,0.623-0.862,1.114-1.115
	C61.966,52.12,61.595,52.491,61.104,52.743z"/>
<path fill-rule="evenodd" clip-rule="evenodd" fill="#323232" d="M69.743,43.267c0.346-0.583,0.811-1.047,1.393-1.393
	C70.791,42.457,70.326,42.921,69.743,43.267z"/>
<path fill-rule="evenodd" clip-rule="evenodd" fill="#A9A9A9" d="M73.365,33.791c0.253-0.492,0.625-0.863,1.116-1.115
	C74.229,33.168,73.858,33.539,73.365,33.791z"/>
<path fill-rule="evenodd" clip-rule="evenodd" fill="#A9A9A9" d="M93.155,31.84c0.438-0.675,0.996-1.232,1.671-1.672
	C94.388,30.843,93.83,31.4,93.155,31.84z"/>
<path fill-rule="evenodd" clip-rule="evenodd" fill="#FFFFFF" d="M135.798,0.346c0.709,0.034,1.08,0.405,1.113,1.115
	c0,0.65,0,1.301,0,1.951c-1.548,3.172-3.655,5.819-5.852,8.64c-0.873,1.123-1.821,2.16-2.787,3.345
	c-0.332,0.408-0.637,0.808-1.115,1.394c-0.356,0.437-0.602,0.845-1.114,1.394c-0.421,0.449-0.859,1.284-1.395,1.951
	c-1.408,1.759-2.822,3.73-4.459,5.295c-0.491,0.251-0.861,0.624-1.114,1.115c-0.435,0.791-2.49,1.049-3.902,1.394
	c-2.833,0.689-6.438,1.604-9.755,2.229c-0.557,0-1.113,0-1.673,0c-2.319-0.096-2.025-2.804-3.9-3.345
	c0.124-0.455-1.521-0.455-1.395,0c-2.134,0.189-2.151,2.494-3.624,3.345c-0.675,0.44-1.232,0.998-1.671,1.672
	c-0.945,1.006-1.951,1.951-3.624,2.23c-0.371,0-0.743,0-1.114,0c-0.863,0.028-1.332-0.341-1.951-0.558
	c-0.236-0.601-1.222-0.45-1.673-0.836c-1.851-0.471-3.273-1.371-5.017-1.951c0.126-0.455-1.519-0.455-1.393,0
	c-1.574,0.378-2.483,1.419-3.902,1.951c-0.491,0.252-0.863,0.624-1.116,1.115c-0.416,1.255-1.035,2.307-1.113,3.901
	c-0.615,0.035-0.118,1.183-0.278,1.673c0.149,1.265-0.562,1.669-0.838,2.508c-0.582,0.346-1.047,0.81-1.393,1.393
	c-1.585,1.256-3.5,1.045-4.738,2.509c-1.384,1.637-0.94,4.455-2.787,5.853c-0.491,0.253-0.863,0.624-1.114,1.115
	c-0.053,0.595-1.128,0.871-1.672,1.394c-0.237,0.228-0.603,0.334-0.836,0.558c-0.237,0.227-0.603,0.334-0.836,0.557
	c-0.237,0.228-0.603,0.335-0.836,0.559c-0.237,0.228-0.602,0.333-0.836,0.557c-0.275,0.265-1.589,0.7-2.23,1.115
	c-0.105,0.068-0.187,0.517-0.278,0.558c-0.143,0.064-0.429-0.086-0.558,0c-0.104,0.068-0.188,0.516-0.278,0.557
	c-0.143,0.064-0.429-0.085-0.558,0c-0.103,0.069-0.188,0.518-0.278,0.559c-0.143,0.063-0.429-0.087-0.558,0
	c-0.103,0.068-0.188,0.517-0.278,0.557c-0.852,0.384-1.147,0.56-1.951,1.394c-1.026,1.064-1.88,2.018-1.951,4.181
	c-0.452-0.199-0.452,1.314,0,1.115c0.352,2.096,1.205,4.106,1.951,6.131c0.434,1.18,0.794,2.254,1.394,3.902
	c0.552,1.518,1.828,3.495,0,5.296c-1.097,0.254-1.568,0.461-2.508,0.278c-0.703-0.137-2.397-1.311-3.066-1.951
	c-0.237-0.227-0.603-0.334-0.836-0.557c-0.237-0.228-0.603-0.334-0.836-0.558c-0.293-0.281-1.564-0.671-2.229-1.114
	c-0.502-0.335-0.86-1.004-1.394-1.395c-0.257-0.188-0.351-0.08-0.557-0.278c-0.12-0.114-0.721-0.542-1.114-0.836
	c-4.321-3.224-9.402-6.918-13.937-10.313c-0.402-0.806-1.34-1.076-1.951-1.673c-1.544-0.867-3.009-1.944-4.459-3.066
	c-0.333-0.256-0.73-0.828-1.115-1.113c-0.447-0.332-1.26-0.531-1.672-0.837c-0.5-0.371-0.693-0.796-1.115-1.115
	c-2.607-1.968-5.562-4.032-8.361-6.131c-0.885-0.664-1.918-1.259-2.787-1.951c-0.82-0.653-1.875-1.404-2.229-2.509
	c0-0.649,0-1.3,0-1.951c0.809-1.902,3.037-2.271,4.738-3.065c3.396-1.585,6.734-3.291,10.591-5.017
	c1.914-0.856,3.965-1.983,5.853-1.672c1.149,0.189,2.482,1.465,3.624,2.787c0.29,0.336,0.256,0.763,0.557,1.115
	c0.202,0.235,0.642,0.322,0.836,0.558c0.261,0.315,0.292,0.805,0.558,1.115c0.542,0.632,1.521,1.597,2.229,2.508
	c0.214,0.274,0.271,0.757,0.558,1.115c0.409,0.512,0.826,0.851,1.394,1.672c0.845,1.223,1.685,2.366,3.344,3.066
	c1.104,0.466,2.334,0.687,4.181,1.114c-0.126,0.455,1.519,0.455,1.393,0c1.326-1.176,4.621-1.597,5.853-3.066
	c0.699-0.832,0.957-2.69,1.394-4.18c0.456,0.125,0.456-1.519,0-1.394c0-0.093,0-0.186,0-0.278c-0.124-0.712-0.391-1.282-0.836-1.672
	c-0.798-1.373-2.221-3.564-3.624-5.853c-1.426-2.327-3.28-4.451-2.508-6.41c0.266-0.676,0.466-1.472,1.672-1.394
	c0.651,0,1.301,0,1.952,0c1.318-0.019,2.743-0.142,3.065,0.836c0.812,1.046,1.742,1.975,2.787,2.787
	c1.75,0.852,1.435,3.768,3.066,4.738c0.086,0.378,0.698,0.231,1.115,0.278c0.557,0,1.115,0,1.672,0c0.464,0,0.929,0,1.394,0
	c0.024-0.396,0.046-0.789-0.279-0.836c-1.589-2.551-4.535-6.461-6.968-9.476c-1.014-1.257-2.182-2.232-1.95-3.345
	c0.542-2.608,7.898-2.145,10.591-2.787c0.49-0.161,1.638,0.336,1.673-0.279c0.694-0.234,1.492-0.364,2.508-0.279
	c0.49-0.16,1.638,0.337,1.672-0.278c11.987-1.763,23.758-3.742,34.839-6.41c0.715-0.03,1.33-0.158,1.673-0.558
	c11.481-2.547,21.66-6.396,32.33-9.755C134.125,0.346,134.962,0.346,135.798,0.346z M99.845,24.036
	c2.736,0.049,3.372,2.202,4.738,3.623c4.247-1.233,8.757-2.205,13.098-3.344c5.306-7.145,11.271-13.628,16.166-21.182
	c-10.572,3.456-20.819,7.237-32.331,9.755c-0.497,0.338-1.621,0.051-1.951,0.558c-10.645,2.64-21.842,4.728-33.723,6.131
	c-0.49,0.16-1.637-0.337-1.672,0.278c-0.695,0.235-1.493,0.365-2.509,0.279c-0.49,0.16-1.637-0.337-1.672,0.279
	c-2.661,0.405-5.156,0.975-8.082,1.114c1.028,2.165,2.841,3.732,4.181,5.575c0.292,0.4,0.509,0.921,0.836,1.393
	c1.037,1.496,2.302,2.928,2.787,4.739c0,0.464,0,0.929,0,1.393c-0.231,1.627-1.36,2.355-3.344,2.229
	c-0.035-0.615-1.183-0.118-1.673-0.278c-0.836,0-1.672,0-2.508,0c-3.046-0.205-2.672-3.831-4.18-5.574
	c-0.533-0.768-1.184-1.417-1.951-1.951c-0.397-0.066-0.47-0.458-0.836-0.558c-0.052-0.413-0.674-0.255-1.115-0.278
	c-0.342-0.088-1.722,0.044-0.836,0.278c1.901,3.023,3.821,6.027,5.574,9.197c0.206,0.816,0.674,1.371,1.114,1.951
	c0.235,0.324,0.368,0.748,0.28,1.394c0,0.65,0,1.3,0,1.951c-0.376,2.04-0.78,4.052-1.951,5.296
	c-0.492,0.252-0.863,0.623-1.115,1.114c0,0.093,0,0.187,0,0.279c-2.103,0.869-3.72,2.226-6.131,2.787c-1.115,0-2.229,0-3.345,0
	c-4.253-0.201-6.819-2.259-8.362-4.738c-0.514-0.827-1.159-1.279-1.672-1.951c-0.186-0.242-0.091-0.568-0.279-0.837
	c-0.162-0.231-0.656-0.327-0.836-0.557c-0.19-0.24-0.091-0.567-0.279-0.835c-0.163-0.233-0.654-0.33-0.836-0.559
	c-0.18-0.227-0.117-0.628-0.279-0.836c-0.183-0.235-0.642-0.324-0.836-0.557c-0.197-0.237-0.091-0.567-0.279-0.836
	c-0.161-0.231-0.647-0.335-0.836-0.558c-1.005-1.183-1.464-2.347-2.508-2.509c-0.862-0.133-3.153,1.074-4.459,1.673
	c-2.706,1.24-4.268,2.096-6.41,3.065c-2.343,1.06-4.306,2.206-6.689,3.066c-0.065,0.637,0.726,0.798,1.115,1.114
	c0.693,0.564,1.431,0.996,1.951,1.394c0.453,0.347,0.813,0.884,1.115,1.115c0.238,0.182,0.577,0.091,0.836,0.278
	c0.439,0.318,0.646,0.768,1.115,1.116c4.837,3.596,9.643,6.905,14.215,10.59c0.675,0.626,1.43,1.171,2.229,1.673
	c7.562,5.167,14.285,11.17,22.297,15.886c0,0.093,0,0.187,0,0.279c0.686,0.433,0.819-0.947,0.279-0.836
	c-1.326-3.878-3.319-7.086-3.902-11.706c0-0.372,0-0.743,0-1.115c-0.084-2.593,1.008-4.01,1.951-5.574
	c0.583-0.346,1.048-0.811,1.394-1.394c2.379-1.783,5.372-3.437,7.804-5.017c2.789-1.811,4.652-2.798,5.853-5.853
	c0.454-1.155,0.659-2.59,1.115-3.066c0.645-0.673,1.366-1.466,2.23-1.951c1.593-0.894,3.452-1.098,4.18-2.229
	c0.362-0.563,0.237-1.209,0.558-1.951c0.623-0.12,0.113-1.374,0.278-1.951c0.475-4.728,3.709-6.696,7.525-8.083
	c1.208,0,2.416,0,3.624,0c1.945,0.377,3.258,1.386,5.017,1.951c0.477,0.453,1.014,0.844,1.951,0.836
	c1.018,0.815,2.056-0.212,2.787-0.557c1.25-0.608,2.18-1.537,2.786-2.788c0.93-1.765,2.016-3.372,4.46-3.623
	C98.542,24.036,99.193,24.036,99.845,24.036z"/>
<path fill-rule="evenodd" clip-rule="evenodd" fill="#DADADA" d="M119.075,26.544c0.253-0.491,0.623-0.863,1.114-1.115
	C120.155,26.139,119.784,26.51,119.075,26.544z"/>
<path fill-rule="evenodd" clip-rule="evenodd" fill="#707070" d="M20.69,67.516c-0.412-0.146-0.703-0.413-1.115-0.559
	c0.736-1.307,1.842-2.246,2.508-3.623c0.61,0.597,1.548,0.867,1.951,1.673c-1.036,0.357-1.304,1.482-1.951,2.229
	C21.591,67.481,21.27,68.119,20.69,67.516z"/>
<path fill-rule="evenodd" clip-rule="evenodd" fill="#DADADA" d="M47.167,26.544c0.093,0,0.186,0,0.279,0
	c0.439,0.675,0.997,1.233,1.672,1.672c0.082,0.568,0.754,0.546,0.835,1.115C48.909,28.52,47.979,27.59,47.167,26.544z"/>
<path fill-rule="evenodd" clip-rule="evenodd" fill="#707070" d="M46.053,29.053c0.768,0.534,1.418,1.184,1.951,1.951
	C47.236,30.471,46.586,29.821,46.053,29.053z"/>
<path fill-rule="evenodd" clip-rule="evenodd" fill="#707070" d="M48.84,37.692c0.368,0.003,0.255,0.489,0.558,0.558
	c0.616-0.416,2.064-1.983,2.508-0.836c0.914,1.336-1.408,1.462-1.952,2.229C49.514,39.063,49.046,38.508,48.84,37.692z"/>
<path fill-rule="evenodd" clip-rule="evenodd" fill="#DADADA" d="M47.167,49.398c0.252-0.491,0.624-0.862,1.115-1.114
	c0,0.093,0,0.186,0,0.278C47.714,48.646,47.736,49.317,47.167,49.398z"/>
<path fill-rule="evenodd" clip-rule="evenodd" fill="#707070" d="M25.707,62.777c-0.799-0.502-1.554-1.047-2.229-1.673
	c1.565-0.479,1.569-2.518,3.065-3.065c0.417,0.512,1.163,0.694,1.394,1.394C27.176,60.529,26.074,61.286,25.707,62.777z"/>
<path fill-rule="evenodd" clip-rule="evenodd" fill="#323232" d="M46.331,59.711c0.346-0.583,0.811-1.047,1.394-1.394
	C47.379,58.9,46.915,59.365,46.331,59.711z"/>
<path fill-rule="evenodd" clip-rule="evenodd" fill="#A9A9A9" d="M90.647,30.447c0.995-0.862,1.925-1.79,2.786-2.788
	C92.827,28.91,91.897,29.838,90.647,30.447z"/>
<path fill-rule="evenodd" clip-rule="evenodd" fill="#323232" d="M47.167,49.398c0.568-0.081,0.546-0.753,1.115-0.836
	c-0.252,0.491-0.624,0.863-1.115,1.115C47.167,49.585,47.167,49.491,47.167,49.398z"/>
<path fill-rule="evenodd" clip-rule="evenodd" fill="#A9A9A9" d="M136.911,1.46c0.461,0.038,0.461,1.913,0,1.951
	C136.911,2.761,136.911,2.111,136.911,1.46z"/>
<path fill-rule="evenodd" clip-rule="evenodd" fill="#707070" d="M100.959,10.101c-0.343,0.4-0.958,0.528-1.673,0.558
	c-0.197-0.919-0.447-1.782-0.558-2.788c0.671,0.114,0.607-0.509,1.395-0.279C100.428,8.403,100.384,9.561,100.959,10.101z"/>
<path fill-rule="evenodd" clip-rule="evenodd" fill="#707070" d="M62.775,17.347c0.035-0.615,1.183-0.118,1.672-0.278
	C64.413,17.684,63.265,17.187,62.775,17.347z"/>
<path fill-rule="evenodd" clip-rule="evenodd" fill="#707070" d="M58.595,17.905c0.034-0.616,1.182-0.119,1.673-0.279
	C60.232,18.241,59.085,17.744,58.595,17.905z"/>
<path fill-rule="evenodd" clip-rule="evenodd" fill="#707070" d="M64.169,19.855c0.035-0.615,1.183-0.118,1.672-0.278
	C65.806,20.192,64.659,19.695,64.169,19.855z"/>
<path fill-rule="evenodd" clip-rule="evenodd" fill="#707070" d="M59.988,20.413c0.035-0.616,1.183-0.119,1.672-0.279
	C61.626,20.75,60.478,20.252,59.988,20.413z"/>
<path fill-rule="evenodd" clip-rule="evenodd" fill="#323232" d="M97.894,24.036c0.038-0.459,1.913-0.459,1.951,0
	C99.193,24.036,98.542,24.036,97.894,24.036z"/>
<path fill-rule="evenodd" clip-rule="evenodd" fill="#323232" d="M42.15,25.708c0.038-0.459,1.914-0.459,1.952,0
	C43.451,25.708,42.801,25.708,42.15,25.708z"/>
<path fill-rule="evenodd" clip-rule="evenodd" fill="#323232" d="M98.45,26.823c-0.126-0.455,1.519-0.455,1.395,0
	C99.38,26.823,98.915,26.823,98.45,26.823z"/>
<path fill-rule="evenodd" clip-rule="evenodd" fill="#323232" d="M43.266,28.495c-0.885-0.234,0.495-0.367,0.836-0.278
	c0,0.093,0,0.186,0,0.278C43.823,28.495,43.544,28.495,43.266,28.495z"/>
<path fill-rule="evenodd" clip-rule="evenodd" fill="#707070" d="M44.102,28.217c0.441,0.023,1.063-0.134,1.115,0.278
	c-0.372,0-0.743,0-1.115,0C44.102,28.402,44.102,28.31,44.102,28.217z"/>
<path fill-rule="evenodd" clip-rule="evenodd" fill="#707070" d="M78.384,30.725c-0.126-0.455,1.519-0.455,1.393,0
	C79.312,30.725,78.847,30.725,78.384,30.725z"/>
<path fill-rule="evenodd" clip-rule="evenodd" fill="#707070" d="M87.86,31.004c-0.938,0.007-1.475-0.384-1.951-0.836
	c0.092,0,0.187,0,0.278,0c0.842-0.47,0.673-3.085,2.229-1.951C89.285,29.102,87.586,29.788,87.86,31.004z"/>
<path fill-rule="evenodd" clip-rule="evenodd" fill="#707070" d="M84.793,32.676c0.451,0.387,1.437,0.236,1.673,0.836
	c-0.09,1.024-0.688,1.542-0.835,2.508c-0.674,0.114-0.607-0.509-1.395-0.278C84.118,34.473,85.517,33.671,84.793,32.676z"/>
<path fill-rule="evenodd" clip-rule="evenodd" fill="#323232" d="M59.709,34.627c0-0.464,0-0.929,0-1.393
	C60.165,33.108,60.165,34.752,59.709,34.627z"/>
<path fill-rule="evenodd" clip-rule="evenodd" fill="#707070" d="M56.922,33.512c0.325,0.047,0.303,0.44,0.279,0.836
	c-0.464,0-0.929,0-1.394,0c0-0.092,0-0.186,0-0.278c0.371,0,0.744,0,1.115,0C56.922,33.883,56.922,33.698,56.922,33.512z"/>
<path fill-rule="evenodd" clip-rule="evenodd" fill="#707070" d="M69.743,36.3c-0.165,0.577,0.345,1.831-0.278,1.951
	C69.631,37.673,69.12,36.419,69.743,36.3z"/>
<path fill-rule="evenodd" clip-rule="evenodd" fill="#707070" d="M72.252,37.692c-0.16,0.49,0.336,1.638-0.278,1.673
	C72.134,38.875,71.637,37.728,72.252,37.692z"/>
<path fill-rule="evenodd" clip-rule="evenodd" fill="#707070" d="M46.61,39.365c0.445,0.391,0.712,0.96,0.836,1.672
	c-0.899,0.216-1.647,0.582-2.229,1.115c-0.551-0.193-0.743-0.744-0.836-1.394C45.079,40.25,46.216,40.179,46.61,39.365z"/>
<path fill-rule="evenodd" clip-rule="evenodd" fill="#323232" d="M50.234,42.988c0-0.65,0-1.3,0-1.951
	C50.692,41.075,50.692,42.95,50.234,42.988z"/>
<path fill-rule="evenodd" clip-rule="evenodd" fill="#A9A9A9" d="M0.344,44.66c0,0.651,0,1.302,0,1.951
	C-0.115,46.573-0.115,44.698,0.344,44.66z"/>
<path fill-rule="evenodd" clip-rule="evenodd" fill="#323232" d="M48.004,78.663c0.217-0.062,0.324-0.233,0.279-0.557
	c0.541-0.111,0.407,1.269-0.279,0.836C48.004,78.85,48.004,78.756,48.004,78.663z"/>
<path fill-rule="evenodd" clip-rule="evenodd" fill="#DADADA" d="M133.289,0.346c0.211-0.461,2.298-0.461,2.509,0
	C134.962,0.346,134.125,0.346,133.289,0.346z"/>
<path fill-rule="evenodd" clip-rule="evenodd" fill="#DADADA" d="M77.269,28.217c0.57-0.462,3.051-0.462,3.624,0
	C79.685,28.217,78.477,28.217,77.269,28.217z"/>
<path fill-rule="evenodd" clip-rule="evenodd" fill="#707070" d="M99.564,13.445c0.33-0.507,1.454-0.219,1.951-0.558
	c-0.202,1.41,1.444,3.009-0.557,3.066c-0.948-0.167-0.604-1.626-0.836-2.508C99.937,13.445,99.75,13.445,99.564,13.445z"/>
<path fill-rule="evenodd" clip-rule="evenodd" fill="#A9A9A9" d="M52.184,36.578c0.836,0,1.672,0,2.508,0c0,0.093,0,0.186,0,0.278
	C53.937,36.684,52.481,37.21,52.184,36.578z"/>
<path fill-rule="evenodd" clip-rule="evenodd" fill="#707070" d="M37.691,52.465c1.115,0,2.229,0,3.345,0
	C40.555,52.928,38.172,52.928,37.691,52.465z"/>
<path fill-rule="evenodd" clip-rule="evenodd" fill="#707070" d="M103.745,30.167c0.56,0,1.116,0,1.673,0
	C105.464,30.625,103.701,30.625,103.745,30.167z"/>
</svg>
