<?xml version="1.0" encoding="utf-8"?>
<!-- Generator: Adobe Illustrator 15.0.0, SVG Export Plug-In  -->
<!DOCTYPE svg PUBLIC "-//W3C//DTD SVG 1.1//EN" "http://www.w3.org/Graphics/SVG/1.1/DTD/svg11.dtd" [
	<!ENTITY ns_flows "http://ns.adobe.com/Flows/1.0/">
]>
<svg version="1.1"
	 xmlns="http://www.w3.org/2000/svg" xmlns:xlink="http://www.w3.org/1999/xlink" xmlns:a="http://ns.adobe.com/AdobeSVGViewerExtensions/3.0/"
	 x="0px" y="0px" width="142px" height="142px" viewBox="-2.773 -29.934 142 142" enable-background="new -2.773 -29.934 142 142"
	 xml:space="preserve">
<defs>
</defs>
<path fill-rule="evenodd" clip-rule="evenodd" fill="#191919" d="M74.152,15.619c0.086-0.378,0.697-0.231,1.114-0.279
	C75.213,15.752,74.592,15.595,74.152,15.619z"/>
<path fill-rule="evenodd" clip-rule="evenodd" fill="#191919" d="M72.479,15.897c0.086-0.378,0.697-0.231,1.116-0.279
	C73.542,16.031,72.919,15.875,72.479,15.897z"/>
<path fill-rule="evenodd" clip-rule="evenodd" fill="#191919" d="M75.823,18.127c0.052-0.413,0.675-0.256,1.116-0.278
	C76.886,18.261,76.265,18.104,75.823,18.127z"/>
<path fill-rule="evenodd" clip-rule="evenodd" fill="#191919" d="M97.842,23.98c0.038-0.459,1.913-0.459,1.951,0
	C99.142,23.98,98.491,23.98,97.842,23.98z"/>
<path fill-rule="evenodd" clip-rule="evenodd" fill="#191919" d="M98.121,26.767c-0.046-0.457,1.717-0.457,1.673,0
	C99.235,26.767,98.677,26.767,98.121,26.767z"/>
<path fill-rule="evenodd" clip-rule="evenodd" fill="#767676" d="M77.217,28.718c0.454-0.126,0.454,1.519,0,1.393
	C77.217,29.647,77.217,29.183,77.217,28.718z"/>
<path fill-rule="evenodd" clip-rule="evenodd" fill="#191919" d="M103.694,30.111c0.56,0,1.116,0,1.673,0
	C105.413,30.569,103.65,30.569,103.694,30.111z"/>
<path fill-rule="evenodd" clip-rule="evenodd" fill="#BEBEBE" d="M52.969,34.014c0.743,0,1.486,0,2.23,0c0,0.093,0,0.186,0,0.278
	C54.532,34.123,53.177,34.642,52.969,34.014z"/>
<path fill-rule="evenodd" clip-rule="evenodd" fill="#BEBEBE" d="M55.756,34.292c-0.047-0.604,0.988-0.126,1.394-0.278
	C57.197,34.618,56.162,34.14,55.756,34.292z"/>
<path fill-rule="evenodd" clip-rule="evenodd" fill="#191919" d="M88.366,34.014c0.371,0,0.743,0,1.114,0
	C89.68,34.465,88.166,34.465,88.366,34.014z"/>
<path fill-rule="evenodd" clip-rule="evenodd" fill="#BEBEBE" d="M53.527,36.8c0-0.093,0-0.186,0-0.278
	c0.667,0.169,2.022-0.35,2.229,0.278C55.013,36.8,54.27,36.8,53.527,36.8z"/>
<path fill-rule="evenodd" clip-rule="evenodd" fill="#BEBEBE" d="M39.034,49.9c0.372,0,0.743,0,1.115,0
	C40.348,50.352,38.834,50.352,39.034,49.9z"/>
<path fill-rule="evenodd" clip-rule="evenodd" fill="#191919" d="M44.329,64.951c0,0.557,0,1.115,0,1.672
	C43.872,66.668,43.872,64.905,44.329,64.951z"/>
<path fill-rule="evenodd" clip-rule="evenodd" fill="#191919" d="M51.297,78.886c0.452-0.2,0.452,1.314,0,1.114
	C51.297,79.629,51.297,79.257,51.297,78.886z"/>
<path fill-rule="evenodd" clip-rule="evenodd" fill="#767676" d="M54.92,32.341c-0.153-0.618,0.533-0.397,0.558-0.836
	c0.237-0.051,0.263,0.109,0.279,0.279c-0.694,0.113-0.017,1.081,0.558,0.836c0.489,0.253,0.51,0.977,0.836,1.394
	c-0.405,0.152-1.44-0.326-1.394,0.278c-0.186,0-0.372,0-0.557,0c0-0.092,0-0.186,0-0.278c0.531-0.24-0.301-0.166-0.279-0.558
	C54.598,33.044,54.598,32.753,54.92,32.341z"/>
<path fill-rule="evenodd" clip-rule="evenodd" fill="#333333" d="M54.92,33.456c-0.708-0.027-0.708-1.088,0-1.115
	C54.598,32.753,54.598,33.044,54.92,33.456z"/>
<path fill-rule="evenodd" clip-rule="evenodd" fill="#191919" d="M50.183,29.275c-0.734-0.288-0.939-1.105-1.673-1.393
	c-0.053-0.227-0.279-0.278-0.278-0.558C48.999,27.858,49.649,28.507,50.183,29.275z"/>
<path fill-rule="evenodd" clip-rule="evenodd" fill="#767676" d="M27.049,40.145c1.091-0.729,2.56-2.668,3.065-0.279
	c-0.693,0.515-1.573,0.843-1.951,1.673c-0.249-0.124-0.499-0.245-0.558-0.558C27.508,40.615,27.116,40.543,27.049,40.145z"/>
<path fill-rule="evenodd" clip-rule="evenodd" fill="#191919" d="M23.983,36.522c-0.491-0.252-0.863-0.624-1.115-1.115
	C23.36,35.659,23.731,36.031,23.983,36.522z"/>
<path fill-rule="evenodd" clip-rule="evenodd" fill="#767676" d="M0.571,47.113c0.492,0.252,0.863,0.624,1.115,1.115
	C1.195,47.976,0.823,47.604,0.571,47.113z"/>
<path fill-rule="evenodd" clip-rule="evenodd" fill="#767676" d="M29.278,68.852c-1.082,0.775-1.628,2.088-2.508,3.066
	c-0.915-0.107-1.229-0.815-1.951-1.115c0.591-1.359,1.974-1.929,2.23-3.623C27.848,67.681,28.604,68.227,29.278,68.852z"/>
<path fill-rule="evenodd" clip-rule="evenodd" fill="#333333" d="M48.51,61.328c0.252-0.492,0.624-0.863,1.115-1.116
	C49.373,60.704,49.001,61.075,48.51,61.328z"/>
<path fill-rule="evenodd" clip-rule="evenodd" fill="#BEBEBE" d="M61.052,52.687c0.251-0.491,0.623-0.862,1.114-1.115
	C61.915,52.064,61.543,52.435,61.052,52.687z"/>
<path fill-rule="evenodd" clip-rule="evenodd" fill="#BEBEBE" d="M73.036,34.292c0.307-0.995,0.956-1.645,1.951-1.951
	C74.246,32.901,73.595,33.551,73.036,34.292z"/>
<path fill-rule="evenodd" clip-rule="evenodd" fill="#333333" d="M76.381,31.505c0.251-0.492,0.674-0.813,0.836-1.394
	c0.454,0.126,0.454-1.519,0-1.393c0-0.186,0-0.372,0-0.558c0.395,0.023,0.789,0.045,0.835-0.278c2.763-0.423,4.754,1.017,6.968,1.95
	c0.754,0.318,1.437,0.384,2.511,0.836c0.693,0.292,0.599,0.574,1.113,0.558c1.427-0.045,2.395-1.279,3.344-2.23
	c0.968-0.967,1.804-1.972,2.509-3.065c0.492-0.252,0.863-0.623,1.115-1.115c0.613-0.408,1.196-0.847,2.23-0.836
	c0.648,0,1.3,0,1.951,0c2.534,0.159,3.54,1.848,4.46,3.623c4.297-0.996,8.332-2.258,12.819-3.065
	c0.697,0.047,0.873-0.428,1.116-0.836c4.882-6.916,10.622-12.976,15.328-20.067c0.342-0.122,0.572-0.356,0.557-0.836
	c-0.322-0.045-0.495,0.062-0.557,0.279c-17.54,6.243-35.806,11.762-56.578,14.772c-0.441,0.022-1.064-0.134-1.116,0.278
	c-0.916,0.012-1.387,0.471-2.509,0.279c-0.278,0-0.557,0-0.835,0c-0.521-1.337-1.497-2.22-3.624-1.951
	c0.97-0.424,2.283-0.503,3.624-0.557c0.44-0.023,1.063,0.134,1.116-0.279c0.184,0,0.37,0,0.557,0
	c0.44-0.023,1.062,0.134,1.114-0.279c19.521-3.037,37.423-7.946,54.348-13.936c2.174-0.769,4.951-2.403,7.246-0.558
	c0.71,1.695-0.006,3.037-0.835,4.459c-0.066,0.115-0.513,0.183-0.557,0.28c-0.064,0.142,0.086,0.429,0,0.557
	c-0.07,0.104-0.518,0.188-0.558,0.279c-0.063,0.139,0.087,0.434,0,0.557c-0.374,0.532-1.079,0.973-1.394,1.394
	c-0.187,0.25-0.087,0.355-0.279,0.558c-0.48,0.501-1.32,1.979-1.951,2.787c-0.423,0.542-0.987,0.87-1.395,1.394
	c-0.396,0.513-0.687,1.129-1.113,1.672c-1.695,2.157-3.989,5.093-6.131,7.804c-0.737,0.931-1.564,2.022-2.51,3.066
	c-1.148,1.266-2.576,1.686-4.738,2.23c-3.14,0.79-6.407,1.461-10.033,2.229c-0.557,0-1.113,0-1.673,0c-0.278,0-0.557,0-0.835,0
	c-1.295-0.843-1.571-2.704-3.065-3.345c0.044-0.457-1.719-0.457-1.673,0c-0.187,0-0.373,0-0.557,0
	c-0.491,0.252-0.864,0.624-1.116,1.116c-1.587,2.454-3.452,4.844-6.409,6.131c-0.158,0.067-0.395-0.053-0.559,0
	c-0.371,0-0.743,0-1.114,0C84.219,33.542,80.743,29.117,76.381,31.505z"/>
<path fill-rule="evenodd" clip-rule="evenodd" fill="#191919" d="M96.448,27.882c0.252-0.492,0.625-0.864,1.116-1.116
	C97.311,27.258,96.939,27.63,96.448,27.882z"/>
<path fill-rule="evenodd" clip-rule="evenodd" fill="#191919" d="M94.497,25.931c0.252-0.492,0.625-0.863,1.115-1.115
	C95.36,25.308,94.989,25.679,94.497,25.931z"/>
<path fill-rule="evenodd" clip-rule="evenodd" fill="#191919" d="M117.073,24.537c0.274-0.376,0.743-0.557,1.116-0.836
	C117.946,24.109,117.77,24.584,117.073,24.537z"/>
<path fill-rule="evenodd" clip-rule="evenodd" fill="#191919" d="M133.517,3.077c0.062-0.217,0.234-0.324,0.557-0.279
	c0.016,0.48-0.215,0.715-0.557,0.836C133.689,3.386,133.853,3.135,133.517,3.077z"/>
<path fill-rule="evenodd" clip-rule="evenodd" fill="#191919" d="M77.217,28.161c-0.055-0.226-0.281-0.278-0.278-0.558
	c0.248,0.217,0.629,0.3,1.113,0.28C78.006,28.206,77.612,28.184,77.217,28.161z"/>
<path fill-rule="evenodd" clip-rule="evenodd" fill="#333333" d="M73.595,20.915c-0.609,0.05-0.888-0.229-0.838-0.836
	C73.043,20.351,73.323,20.629,73.595,20.915z"/>
<path fill-rule="evenodd" clip-rule="evenodd" fill="#BEBEBE" d="M26.213,39.309c0.643-0.085,0.31,0.806,0.836,0.836
	c0.066,0.398,0.458,0.47,0.557,0.836C26.917,40.648,26.517,40.027,26.213,39.309z"/>
<path fill-rule="evenodd" clip-rule="evenodd" fill="#BEBEBE" d="M48.51,27.882c0.734,0.288,0.938,1.105,1.673,1.393
	c0,0.093,0,0.186,0,0.279C49.507,29.114,48.949,28.558,48.51,27.882z"/>
<path fill-rule="evenodd" clip-rule="evenodd" fill="#333333" d="M49.903,35.128c0.492,0.252,0.864,0.624,1.116,1.116
	C50.527,35.992,50.155,35.62,49.903,35.128z"/>
<path fill-rule="evenodd" clip-rule="evenodd" fill="#767676" d="M46.559,29.554c0.675,0.439,1.232,0.997,1.672,1.672
	C47.556,30.787,46.998,30.229,46.559,29.554z"/>
<path fill-rule="evenodd" clip-rule="evenodd" fill="#BEBEBE" d="M31.23,49.9c-0.492-0.251-0.864-0.624-1.115-1.114
	C30.606,49.037,30.978,49.409,31.23,49.9z"/>
<path fill-rule="evenodd" clip-rule="evenodd" fill="#767676" d="M26.213,43.491c-0.981-0.561-1.557,1.312-2.787,1.392
	c-0.099-0.365-0.491-0.438-0.558-0.835c-0.112-1.424,2.425-1.335,1.673-2.508C25.213,42.074,25.647,42.848,26.213,43.491z"/>
<path fill-rule="evenodd" clip-rule="evenodd" fill="#333333" d="M46.559,59.376c0.252-0.492,0.623-0.863,1.115-1.115
	C47.422,58.753,47.05,59.125,46.559,59.376z"/>
<path fill-rule="evenodd" clip-rule="evenodd" fill="#BEBEBE" d="M62.724,44.326c0.052-0.783,0.909-0.763,1.115-1.394
	c0.093,0,0.186,0,0.279,0C63.771,43.515,63.307,43.98,62.724,44.326z"/>
<path fill-rule="evenodd" clip-rule="evenodd" fill="#767676" d="M28.722,64.951c1.266-0.592,1.844-1.873,2.508-3.066
	c1.018,0.004,1.251,0.793,1.951,1.115c-0.19,1.635-2.541,2.395-1.951,3.901C30.392,66.253,29.496,65.662,28.722,64.951z"/>
<path fill-rule="evenodd" clip-rule="evenodd" fill="#333333" d="M55.756,31.784c0.26,0.205,0.422,0.507,0.558,0.836
	C55.739,32.864,55.063,31.897,55.756,31.784z"/>
<path fill-rule="evenodd" clip-rule="evenodd" fill="#333333" d="M68.855,19.242c-0.088-0.492,1.561-0.498,1.115,0.279
	C69.723,19.304,69.341,19.221,68.855,19.242z"/>
<path fill-rule="evenodd" clip-rule="evenodd" fill="#191919" d="M72.757,19.242c-0.326-0.045-0.234-0.508-0.278-0.836
	c0.278,0,0.557,0,0.835,0C73.134,18.689,72.675,18.694,72.757,19.242z"/>
<path fill-rule="evenodd" clip-rule="evenodd" fill="#767676" d="M41.821,25.652c0.086-0.378,0.698-0.231,1.115-0.279
	c0,0.093,0,0.186,0,0.279C42.564,25.652,42.192,25.652,41.821,25.652z"/>
<path fill-rule="evenodd" clip-rule="evenodd" fill="#333333" d="M42.936,25.374c0.405,0.152,1.44-0.326,1.394,0.279
	c-0.465,0-0.929,0-1.394,0C42.936,25.559,42.936,25.467,42.936,25.374z"/>
<path fill-rule="evenodd" clip-rule="evenodd" fill="#333333" d="M43.493,28.718c-1.658-0.478,1.167-0.963,1.394-0.279
	c-0.464,0-0.929,0-1.394,0C43.493,28.532,43.493,28.625,43.493,28.718z"/>
<path fill-rule="evenodd" clip-rule="evenodd" fill="#333333" d="M59.658,34.571c0-0.464,0-0.929,0-1.393
	C60.113,33.052,60.113,34.696,59.658,34.571z"/>
<path fill-rule="evenodd" clip-rule="evenodd" fill="#767676" d="M59.658,34.85c0.54,1.415,2.608,1.415,1.951,2.508
	c-0.861,1.436-1.554-0.603-3.344-0.836c0.36-0.569,1.352-0.507,1.115-1.672C59.473,34.85,59.565,34.85,59.658,34.85z"/>
<path fill-rule="evenodd" clip-rule="evenodd" fill="#767676" d="M51.854,36.522c0.557,0,1.115,0,1.672,0c0,0.093,0,0.186,0,0.278
	C53.037,36.64,51.89,37.138,51.854,36.522z"/>
<path fill-rule="evenodd" clip-rule="evenodd" fill="#333333" d="M47.395,41.26c0.456-0.125,0.456,1.519,0,1.394
	C47.395,42.189,47.395,41.725,47.395,41.26z"/>
<path fill-rule="evenodd" clip-rule="evenodd" fill="#767676" d="M61.052,47.949c-0.994-0.493-2.854-0.119-2.509-1.95
	c1.02-0.747,2.003,0.468,3.065,0.557C61.325,46.922,61.336,47.583,61.052,47.949z"/>
<path fill-rule="evenodd" clip-rule="evenodd" fill="#767676" d="M64.396,47.67c0.887,0.042,1.227,0.632,2.23,0.558
	c0.201,0.852-0.285,1.015-0.278,1.672c-1.036-0.172-1.751-0.664-2.788-0.836c0.285-0.366,0.273-1.028,0.558-1.394
	C64.211,47.67,64.304,47.67,64.396,47.67z"/>
<path fill-rule="evenodd" clip-rule="evenodd" fill="#767676" d="M37.361,52.409c1.208,0,2.416,0,3.624,0
	C40.413,52.872,37.933,52.872,37.361,52.409z"/>
<path fill-rule="evenodd" clip-rule="evenodd" fill="#FFFFFF" d="M55.478,31.505c-0.889-2.04-4.062-5.304-5.853-7.804
	c-0.856-1.194-1.668-1.801-1.393-3.066c0.358-1.649,2.375-1.619,4.459-1.951c5.257-0.837,11.066-1.634,16.165-2.23
	c2.126-0.269,3.103,0.614,3.624,1.951c0.044,0.328-0.048,0.791,0.278,0.836c0,0.279,0,0.557,0,0.836
	c-0.05,0.608,0.229,0.886,0.838,0.836c2.374,0.968,2.317,4.369,3.344,6.688c-0.003,0.28,0.224,0.333,0.278,0.558
	c0,0.186,0,0.372,0,0.558c0,0.464,0,0.929,0,1.393c-0.162,0.58-0.585,0.901-0.836,1.394c-0.581,0.164-0.901,0.586-1.395,0.836
	c-0.995,0.306-1.645,0.956-1.951,1.951c-1.477,3.027-0.448,5.131-1.671,7.247c-0.065,0.115-0.514,0.181-0.559,0.278
	c-0.547,1.214-1.676,1.494-3.065,2.23c-1.632,0.863-3.29,1.196-3.345,3.623c-0.092,0-0.185,0-0.278,0
	c-0.285,0.365-0.273,1.027-0.558,1.394c-0.318,0.981-0.612,1.989-1.394,2.508c-0.491,0.253-0.863,0.624-1.114,1.115
	c-3.553,2.765-7.559,5.076-11.428,7.524c-0.491,0.253-0.863,0.624-1.115,1.116c-0.575,1.004-1.236,1.922-1.394,3.344
	c-0.459,0.124-0.459,2.106,0,2.229c1.227,4.162,3.042,7.735,4.181,11.985c0,0.371,0,0.743,0,1.114
	c-0.208,0.813-0.446,1.425-0.836,1.673c-1.835,1.163-4.495-0.911-6.132-1.951c-0.657-0.418-1.236-0.95-1.951-1.394
	c-0.217-0.136-0.583-0.111-0.836-0.278c-0.444-0.296-0.748-0.86-1.115-1.115c-0.469-0.325-1.041-0.303-1.394-0.558
	c-0.41-0.296-0.693-0.798-1.114-1.114c-2.522-1.896-6.113-4.437-8.641-6.411c-0.675-0.625-1.43-1.171-2.229-1.672
	c-8.487-6.284-16.943-12.6-25.363-18.952c-0.251-0.491-0.623-0.863-1.115-1.115c-0.413-0.236-0.599-0.701-0.557-1.394
	c-0.227-2.308,2.329-2.876,3.902-3.623c4.834-2.298,10.177-5.186,15.608-6.968c0.836,0,1.672,0,2.508,0
	c0.45-0.079,0.48,0.264,0.836,0.279c0.252,0.491,0.624,0.863,1.115,1.115c0.729,0.943,1.578,1.768,2.23,2.787
	c0.304,0.718,0.705,1.339,1.394,1.672c0.059,0.313,0.309,0.434,0.558,0.558c0.801,1.091,1.644,2.161,2.508,3.343
	c1.548,2.12,2.339,3.554,5.295,4.46c0.879,0.271,1.966,0.464,3.066,0.558c-0.199,0.452,1.314,0.452,1.115,0
	c1.348-1.166,4.617-1.603,5.853-3.066c0.897-1.062,0.87-2.561,1.394-4.18c0.456,0.125,0.456-1.519,0-1.394
	c-0.135-1.312-1.032-2.31-1.672-3.344c-0.496-0.801-0.922-1.415-1.394-2.23c-1.096-1.894-2.8-4.383-3.902-6.689
	c0-0.65,0-1.301,0-1.951c0.123-0.806,0.588-1.271,1.394-1.394c0.372,0,0.743,0,1.115,0c0.464,0,0.929,0,1.394,0
	c1.983-0.125,3.124,0.593,3.902,1.672c-0.001,0.28,0.225,0.332,0.278,0.558c0.439,0.675,0.997,1.232,1.673,1.672
	c1.449,0.966,1.206,3.624,2.787,4.459c0.208,0.628,1.563,0.109,2.23,0.278c0.185,0,0.372,0,0.557,0
	c0.405-0.152,1.44,0.326,1.394-0.278c-0.326-0.417-0.347-1.141-0.836-1.394c-0.135-0.329-0.297-0.631-0.558-0.836
	C55.741,31.614,55.714,31.454,55.478,31.505z M68.855,19.242c-5.866,0.73-11.907,1.285-17.28,2.509
	c3.035,3.468,6,7.006,8.083,11.427c0,0.464,0,0.929,0,1.393c0,0.093,0,0.186,0,0.279c-0.093,0-0.186,0-0.278,0
	c0.236,1.166-0.755,1.104-1.115,1.672c-0.462,0.467-1.637,0.222-2.508,0.278c-0.207-0.628-1.563-0.109-2.229-0.278
	c-0.558,0-1.115,0-1.672,0c-0.384,0.012-0.612-0.131-0.836-0.278c-0.252-0.492-0.624-0.864-1.116-1.116
	c-0.656-1.201-1.015-2.7-1.671-3.901c-0.44-0.675-0.998-1.233-1.672-1.672c-0.755-0.173-0.694-1.165-1.672-1.115
	c-0.226-0.684-3.052-0.199-1.394,0.279c0.956,1.941,2.221,3.718,3.344,5.574c1.19,1.966,3.008,4.33,3.345,6.689
	c0,0.743,0,1.486,0,2.229c-0.419,1.923-0.976,3.527-1.673,4.738c-0.614,1.068-0.983,1.244-1.672,1.673
	c-1.676,1.042-3.832,2.275-5.853,2.787c-1.208,0-2.416,0-3.624,0c-2.486-0.393-4.756-1.004-6.131-2.509
	c-0.252-0.491-0.624-0.863-1.115-1.114c-1.396-1.669-2.718-3.414-3.902-5.295c-0.565-0.643-1-1.417-1.672-1.952
	c-1.672-1.122-2.011-3.608-3.902-3.903c-0.914-0.142-2.839,0.935-4.459,1.673c-2.389,1.087-4.321,2.101-6.41,3.065
	c-2.185,1.009-4.762,2.352-6.689,3.066c0.117,0.697,0.915,1.026,1.393,1.393c8.09,6.198,16.334,12.032,24.249,18.117
	c0.774,0.711,1.67,1.303,2.508,1.95c5.772,3.798,10.621,8.518,17.001,11.706c-1.048-4.247-3.168-7.423-3.902-11.984
	c0-0.557,0-1.115,0-1.672c0.11-2.491,1.079-4.124,2.23-5.574c0.491-0.252,0.863-0.623,1.115-1.115
	c1.006-0.946,3.124-1.763,3.901-2.508c1.038-0.994,2.544-1.743,3.624-2.23c0.09-0.041,0.176-0.488,0.278-0.557
	c0.128-0.086,0.415,0.063,0.558,0c0.094-0.043,0.17-0.491,0.279-0.558c0.353-0.221,0.759-0.077,1.114-0.278
	c0.368-0.209,0.512-0.596,0.836-0.837c1.219-0.908,2.41-1.575,2.788-3.345c0.284-0.365,0.273-1.026,0.557-1.394
	c0.158-0.956,0.525-1.705,1.115-2.229c0.583-0.346,1.047-0.811,1.394-1.394c0.918-1.135,2.546-0.963,3.623-1.672
	c0.25-0.165,1.199-1.028,1.394-1.394c0.694-1.301,0.191-3.643,0.557-5.017c0.212-0.797,0.884-1.579,1.114-1.951
	c0.148-0.239,0.099-0.593,0.278-0.836c1.014-1.366,2.559-1.521,3.346-3.344c-0.377-1.946-1.418-3.227-1.673-5.295
	c-2.173-0.056-2.555-1.905-2.787-3.902C70.417,18.744,68.767,18.75,68.855,19.242z"/>
<path fill-rule="evenodd" clip-rule="evenodd" fill="#333333" d="M50.183,40.981c0.459,0.124,0.459,2.106,0,2.229
	C50.183,42.467,50.183,41.725,50.183,40.981z"/>
<path fill-rule="evenodd" clip-rule="evenodd" fill="#BEBEBE" d="M40.427,27.046c0,0.65,0,1.3,0,1.951
	C39.968,28.958,39.968,27.083,40.427,27.046z"/>
<path fill-rule="evenodd" clip-rule="evenodd" fill="#BEBEBE" d="M19.524,35.128c0.212-0.46,2.296-0.46,2.508,0
	C21.196,35.128,20.36,35.128,19.524,35.128z"/>
<path fill-rule="evenodd" clip-rule="evenodd" fill="#333333" d="M47.116,64.671c0,0.743,0,1.486,0,2.229
	C46.657,66.778,46.657,64.795,47.116,64.671z"/>
</svg>
