<?xml version="1.0" encoding="utf-8"?>
<!-- Generator: Adobe Illustrator 15.0.0, SVG Export Plug-In  -->
<!DOCTYPE svg PUBLIC "-//W3C//DTD SVG 1.1//EN" "http://www.w3.org/Graphics/SVG/1.1/DTD/svg11.dtd" [
	<!ENTITY ns_flows "http://ns.adobe.com/Flows/1.0/">
]>
<svg version="1.1"
	 xmlns="http://www.w3.org/2000/svg" xmlns:xlink="http://www.w3.org/1999/xlink" xmlns:a="http://ns.adobe.com/AdobeSVGViewerExtensions/3.0/"
	 x="0px" y="0px" width="142px" height="142px" viewBox="-2.787 -29.878 142 142" enable-background="new -2.787 -29.878 142 142"
	 xml:space="preserve">
<defs>
</defs>
<path fill-rule="evenodd" clip-rule="evenodd" fill="#323232" d="M88.352,34.07c0.371,0,0.743,0,1.114,0
	C89.667,34.521,88.152,34.521,88.352,34.07z"/>
<path fill-rule="evenodd" clip-rule="evenodd" fill="#323232" d="M76.925,15.396c-1.451,0.315-2.621,0.91-2.23,3.066
	c-7.72,1.106-15.808,1.844-23.133,3.345c1.065,1.22,1.959,2.266,3.066,3.623c0.154,0.188,0.435,0.389,0.558,0.558
	c0.351,0.482,0.47,1.171,0.836,1.671c0.322,0.441,1.008,0.829,1.393,1.394c0.193,0.284,0.069,0.339,0.279,0.558
	c0.139,0.144,0.311,0.713,0.557,1.115c0.726,1.178,1.738,2.189,1.672,3.345c-0.065,1.154-1.037,2.41-2.229,2.787
	c-0.918,0.291-5.458,0.147-6.411-0.278c-0.128-0.058-0.175-0.51-0.278-0.558c-1.658-0.747-1.414-2.754-2.509-4.459
	c-0.203-0.316-1.778-1.913-2.23-2.229c-0.866-0.606-1.483-0.969-3.065-1.115c0.904,2.131,2.365,4.082,3.623,6.131
	c0.607,0.989,1.108,2.088,1.672,3.066c0.944,1.635,1.97,2.428,1.951,4.738c-0.011,1.307-1.467,5.423-1.951,6.132
	c-0.213,0.312-1.181,1.323-1.672,1.672c-0.328,0.232-0.744,0.089-1.114,0.278c-1.095,0.561-4.175,2.362-5.575,2.509
	c-0.951,0.1-1.635-0.146-2.508-0.278c-0.449-0.069-0.952,0.098-1.394,0c-0.163-0.036-0.713-0.521-0.836-0.559
	c-0.8-0.234-1.492-0.226-2.23-0.557c-0.265-0.118-0.517-0.409-0.836-0.557c-1.256-0.58-2.345-1.896-3.623-3.624
	c-0.807-1.09-1.668-2.271-2.509-3.344c-0.243-0.312-0.312-0.808-0.558-1.115c-0.191-0.239-0.647-0.323-0.836-0.558
	c-0.279-0.347-0.255-0.762-0.557-1.115c-0.204-0.237-0.636-0.322-0.836-0.558c-0.284-0.332-0.313-0.829-0.558-1.115
	c-0.476-0.556-1.435-1.582-2.508-1.673c-1.118-0.094-2.921,1.23-4.459,1.951c-4.007,1.879-9.247,4.164-12.821,5.854
	c0.209,0.878,1.197,1.336,1.951,1.951c0.339,0.276,0.694,0.433,1.115,0.836c0.494,0.472,1.756,1.112,2.508,1.672
	c3.476,2.585,7.09,5.228,10.591,8.083c0.192,0.156,0.385,0.429,0.557,0.557c0.482,0.359,1.186,0.483,1.672,0.837
	c0.235,0.171,0.326,0.674,0.558,0.835c0.268,0.188,0.592,0.097,0.836,0.279c0.709,0.533,1.15,1.175,1.951,1.672
	c0.202,0.127,0.609,0.115,0.836,0.279c0.236,0.171,0.326,0.674,0.558,0.836c0.269,0.188,0.593,0.094,0.836,0.279
	c4.85,3.683,10.287,8.052,15.608,11.706c1.291,0.887,2.547,1.631,3.902,2.509c0.371,0.24,1.228,1.235,1.951,0.835
	c-0.904-2.042-1.583-3.797-2.23-5.573c-0.322-0.887-0.772-1.839-1.114-2.788c-0.849-2.352-1.17-6.122,0-8.64
	c0.144-0.31,0.415-0.595,0.558-0.836c0.62-1.047,2.044-2.366,3.065-3.345c0.237-0.227,0.603-0.334,0.836-0.558
	c0.25-0.239,1.233-0.656,1.951-1.114c1.979-1.266,4.017-2.437,6.132-3.903c1.033-0.716,2.327-1.554,2.787-2.229
	c0.556-0.817,0.483-1.869,0.836-2.788c0.151-0.393,0.354-0.934,0.558-1.393c1.116-2.521,3.876-3.414,6.688-4.738
	c1.334-2.413,0.687-5.103,1.673-7.247c0.39-0.848,1.402-1.809,2.229-2.508c0.08-0.068,0.204-0.524,0.278-0.557
	c1.05-0.473,2.707-1.832,4.182-2.23c1.062-0.287,2.598-0.121,3.343-0.558c0.249,0.125,0.499,0.246,0.56,0.558
	c0.533,0.768,1.182,1.418,1.951,1.951c1.305,1.11,2.763,2.067,3.9,3.345c-1.618-0.599-2.979-1.197-4.738-1.951
	c-0.705-0.302-1.645-0.88-3.064-0.836c-2.374,0.075-5.67,2.385-6.411,4.459c-0.444,1.247-0.094,2.611-0.278,3.624
	c-0.219,1.207-0.771,2.405-1.395,3.345c-0.912,1.375-2.967,1.719-4.738,2.786c-0.27,0.164-0.798,0.467-1.115,0.837
	c-0.92,1.076-1.09,3.363-1.951,5.018c-0.063,0.121-0.512,0.177-0.558,0.278c-0.588,1.305-1.892,2.102-3.345,3.065
	c-2.8,1.856-5.614,3.59-8.64,5.574c-0.528,0.347-1.444,0.869-1.672,1.115c-0.188,0.202-0.094,0.637-0.279,0.836
	c-1.275,1.37-1.905,3.843-1.115,6.41c0.406,1.321,0.887,2.269,1.394,3.623c0.722,1.933,1.368,3.399,1.951,5.853
	c0.196,0.824,0.583,1.158,0.558,1.952c-0.02,0.637-0.138,0.796-0.278,1.114c-0.261,0.593-0.585,0.762-1.116,1.394
	c-2.439,0.294-4.21-1.464-5.852-2.508c-0.536-0.341-1.191-0.527-1.673-0.837c-0.106-0.068-0.186-0.516-0.279-0.557
	c-0.142-0.064-0.429,0.085-0.557,0c-0.104-0.069-0.188-0.518-0.279-0.559c-0.139-0.062-0.434,0.088-0.557,0
	c-0.537-0.377-0.899-1.031-1.394-1.393c-0.257-0.188-0.351-0.082-0.557-0.279c-0.121-0.115-0.722-0.542-1.115-0.836
	c-1.334-0.996-3.157-2.153-4.738-3.345c-0.692-0.521-1.389-1.375-2.23-1.95c-0.212-0.146-0.598-0.106-0.836-0.279
	c-0.54-0.392-0.806-0.959-1.394-1.394c-0.481-0.355-1.191-0.479-1.672-0.836c-0.486-0.361-0.909-1.018-1.393-1.393
	c-0.264-0.206-0.596-0.362-0.836-0.559c-1.902-1.551-4.758-3.353-6.968-5.018c-0.693-0.521-1.389-1.375-2.23-1.95
	c-0.862-0.589-2.001-1.361-3.065-2.229c-0.339-0.276-0.694-0.433-1.115-0.837c-0.237-0.226-0.603-0.333-0.836-0.557
	c-0.295-0.282-1.319-0.92-1.951-1.394c-0.868-0.651-1.85-1.313-3.066-2.229C3.156,49.456,0.038,47.663,0,45.775
	c-0.036-1.787,1.843-2.792,4.181-3.902c4.681-2.222,6.22-2.72,11.148-5.017c1.875-0.874,3.962-2.191,5.853-1.951
	c1.622,0.207,2.561,1.583,3.623,2.787c0.841,0.953,1.333,1.616,2.23,2.788c0.069,0.09,0.521,0.197,0.557,0.279
	c0.434,0.96,1.414,2.167,2.229,3.345c0.07,0.1,0.518,0.19,0.558,0.278c0.379,0.844,1.863,3.254,2.787,3.902
	c0.645,0.452,2.145,0.853,3.066,1.114c1.156,0.328,2.42,0.637,3.344,0.558c1.07-0.091,2.101-0.783,3.345-1.394
	c1.749-0.858,2.794-0.874,3.624-2.787c0.316-0.73,1.193-2.472,1.115-3.902c-0.054-0.987-0.533-1.901-1.115-2.508
	c-0.227-0.237-0.334-0.603-0.558-0.836c-0.292-0.304-0.679-1.495-1.115-2.229c-0.928-1.563-2.168-3.041-3.345-5.017
	c-0.195-0.328-0.051-0.32-0.279-0.558c-0.227-0.237-0.333-0.603-0.557-0.836c-0.239-0.249-0.76-2.137-0.558-2.787
	c0.392-1.261,2.023-1.554,3.902-1.394c2.889,0.247,2.462,0.346,4.459,2.23c1.536,1.448,3.318,3.169,3.623,5.853
	c1.185,0.488,3.137,0.208,4.738,0.279c0.332-0.698-0.52-1.179-0.836-1.672c-1.739-2.713-3.473-5.187-5.853-8.083
	c-0.983-1.195-2.291-2.112-1.951-3.624c0.381-1.7,3.334-1.785,6.131-2.229c6.575-1.044,13.485-1.69,20.067-2.787
	c0.938-0.157,2.166-0.031,2.229-1.115C76.973,14.605,76.88,15.068,76.925,15.396z"/>
<path fill-rule="evenodd" clip-rule="evenodd" fill="#A9A9A9" d="M93.09,31.84c0.438-0.675,0.996-1.232,1.671-1.672
	C94.323,30.843,93.765,31.4,93.09,31.84z"/>
<path fill-rule="evenodd" clip-rule="evenodd" fill="#737373" d="M102.009,29.332c0.491,0.25,0.813,0.673,1.393,0.836
	c-0.601,0.698-0.88,1.723-1.673,2.23c-0.76,0.203-0.559-0.554-1.114-0.558C100.824,30.747,101.703,30.326,102.009,29.332z"/>
<path fill-rule="evenodd" clip-rule="evenodd" fill="#737373" d="M132.109,10.379c0.757,0.544,1.268,1.333,2.229,1.672
	c-0.002,0.554-0.759,0.354-0.557,1.115c-1.543,0.232-1.833-1.925-3.065-1.115C131.103,11.417,131.68,10.972,132.109,10.379z"/>
<path fill-rule="evenodd" clip-rule="evenodd" fill="#FFFFFF" d="M135.733,0.346c0.709,0.034,1.08,0.405,1.113,1.115
	c0,0.65,0,1.301,0,1.951c-1.214,2.687-2.938,4.864-4.737,6.967c-0.429,0.593-1.006,1.038-1.393,1.672
	c0.276,0.778-0.896,0.905-1.116,1.394c-0.545,1.211-1.809,2.674-2.786,3.901c-0.676,0.85-1.164,1.482-1.951,2.508
	c-0.068,0.091-0.52,0.197-0.558,0.279c-0.288,0.64-0.837,1.237-1.393,1.951c-0.859,1.103-1.599,2.515-2.788,3.345
	c-0.491,0.251-0.861,0.624-1.114,1.115c-0.435,0.791-2.49,1.049-3.902,1.394c-2.833,0.689-6.438,1.604-9.755,2.229
	c-0.557,0-1.113,0-1.673,0c-0.092,0-0.185,0-0.278,0c-0.579-0.163-0.901-0.585-1.393-0.836c-0.623-0.957-1.082-2.078-2.229-2.509
	c0.124-0.455-1.521-0.455-1.395,0c-2.134,0.189-2.151,2.494-3.624,3.345c-0.675,0.44-1.232,0.998-1.671,1.672
	c-0.945,1.006-1.951,1.951-3.624,2.23c-0.371,0-0.743,0-1.114,0c-0.877,0.133-1.09-0.397-1.673-0.558
	c-1.138-1.278-2.596-2.234-3.9-3.345c-0.535-0.768-1.184-1.417-1.951-1.951c-0.061-0.313-0.311-0.434-0.56-0.558
	c-1.995-2.776-4.148-5.48-5.573-8.918c-0.032-0.08,0.026-0.197,0-0.279c-0.391-2.156,0.779-2.75,2.23-3.066
	c0.234-0.601,1.776,0.104,1.951-0.557c10.472-1.792,20.345-4.182,30.101-6.689c0.878-0.33,2.102-0.313,2.787-0.836
	c7.294-2.181,14.212-4.74,21.46-6.968C134.06,0.346,134.897,0.346,135.733,0.346z M129.878,8.707
	c1.387-1.773,2.775-3.544,3.903-5.574c-7.28,2.29-14.156,4.981-21.739,6.968c-0.938,0.177-2.031,0.198-2.508,0.836
	c-9.915,2.535-19.788,5.111-30.658,6.689c-0.802-0.057-1.417,0.071-1.673,0.558c0.797,0.597,0.966,1.822,1.673,2.508
	c0.524,0.199,0.431,0.834,0.557,1.115c0.044,0.096,0.491,0.166,0.557,0.278c0.331,0.559,0.423,1.374,0.838,1.951
	c0.318,0.446,0.976,0.883,1.393,1.394c0.418,0.513,0.681,1.228,1.115,1.672c0.323,0.332,0.92,0.433,1.393,0.836
	c0.435,0.368,0.707,1.042,1.116,1.393c0.232,0.201,0.566,0.09,0.835,0.279c0.232,0.163,0.325,0.66,0.558,0.836
	c1.557,1.18,2.175,0.801,3.346,0c1.25-0.608,2.18-1.537,2.786-2.788c0.93-1.765,2.016-3.372,4.46-3.623c0.648,0,1.3,0,1.951,0
	c2.113,0.115,3.163,1.295,3.9,2.787c0.017,0.357,0.358,0.386,0.278,0.836c0.407-0.152,1.442,0.326,1.395-0.278
	c4.089-1.021,8.176-2.044,12.263-3.065c3.681-4.774,7.455-9.455,11.149-14.214C129.242,9.742,129.861,9.524,129.878,8.707z"/>
<path fill-rule="evenodd" clip-rule="evenodd" fill="#DBDBDB" d="M119.01,26.544c0.253-0.491,0.623-0.863,1.114-1.115
	C120.09,26.139,119.719,26.51,119.01,26.544z"/>
<path fill-rule="evenodd" clip-rule="evenodd" fill="#737373" d="M80.828,28.217c0.768,0.533,1.416,1.183,1.951,1.951
	C82.009,29.635,81.361,28.984,80.828,28.217z"/>
<path fill-rule="evenodd" clip-rule="evenodd" fill="#A9A9A9" d="M90.583,30.447c0.995-0.862,1.925-1.79,2.786-2.788
	C92.762,28.91,91.833,29.838,90.583,30.447z"/>
<path fill-rule="evenodd" clip-rule="evenodd" fill="#737373" d="M129.878,8.707c-0.018,0.817-0.637,1.035-1.113,1.394
	c-0.257-0.858-1.116-1.114-1.673-1.672c0-0.186,0-0.372,0-0.558c0.248-0.124,0.499-0.245,0.559-0.557c0.093,0,0.185,0,0.278,0
	C128.823,7.534,129.148,8.325,129.878,8.707z"/>
<path fill-rule="evenodd" clip-rule="evenodd" fill="#323232" d="M127.092,8.428c-0.217-0.062-0.322-0.233-0.278-0.558
	c0.49,0.08,0.863-1.312,1.115-0.557c-0.094,0-0.186,0-0.278,0c-0.06,0.313-0.311,0.434-0.559,0.557
	C127.092,8.057,127.092,8.242,127.092,8.428z"/>
<path fill-rule="evenodd" clip-rule="evenodd" fill="#A9A9A9" d="M136.846,1.46c0.461,0.038,0.461,1.913,0,1.951
	C136.846,2.761,136.846,2.111,136.846,1.46z"/>
<path fill-rule="evenodd" clip-rule="evenodd" fill="#737373" d="M108.977,8.15c-0.046-1.628-0.945-2.4-0.837-4.181
	c0.488-0.255,1.39-0.096,1.673-0.557c1.142,0.809,0.358,3.544,1.951,3.902C111.079,7.836,109.855,7.82,108.977,8.15z"/>
<path fill-rule="evenodd" clip-rule="evenodd" fill="#737373" d="M76.646,14.56c0.061-0.897-0.492-1.179-0.278-2.229
	c0.465,0,0.928,0,1.393,0c0.282,0.925,0.03,2.385,1.116,2.509c-0.175,0.662-1.717-0.043-1.951,0.557
	C76.88,15.068,76.973,14.605,76.646,14.56z"/>
<path fill-rule="evenodd" clip-rule="evenodd" fill="#323232" d="M97.829,24.036c0.038-0.459,1.913-0.459,1.951,0
	C99.128,24.036,98.477,24.036,97.829,24.036z"/>
<path fill-rule="evenodd" clip-rule="evenodd" fill="#323232" d="M98.385,26.823c-0.126-0.455,1.519-0.455,1.395,0
	C99.315,26.823,98.85,26.823,98.385,26.823z"/>
<path fill-rule="evenodd" clip-rule="evenodd" fill="#737373" d="M105.353,27.38c0.048,0.604-0.987,0.126-1.395,0.278
	c0.08-0.45-0.262-0.479-0.278-0.836c0.095,0,0.187,0,0.278,0c0.487-0.589,0.823-2.317,1.673-1.672
	C107.108,25.64,105.778,26.545,105.353,27.38z"/>
<path fill-rule="evenodd" clip-rule="evenodd" fill="#DBDBDB" d="M133.224,0.346c0.211-0.461,2.298-0.461,2.509,0
	C134.897,0.346,134.06,0.346,133.224,0.346z"/>
<path fill-rule="evenodd" clip-rule="evenodd" fill="#737373" d="M109.535,10.937c0.477-0.638,1.57-0.659,2.508-0.836
	c0.11,1.562,0.817,2.527,0.836,4.181c-0.864-0.028-1.331,0.34-1.952,0.558c-0.326-1.344-0.681-2.662-1.113-3.902
	C109.72,10.937,109.626,10.937,109.535,10.937z"/>
<path fill-rule="evenodd" clip-rule="evenodd" fill="#737373" d="M78.876,20.691c-0.707-0.686-0.876-1.911-1.673-2.508
	c0.256-0.487,0.871-0.615,1.673-0.558C78.778,18.81,80.054,20.099,78.876,20.691z"/>
<path fill-rule="evenodd" clip-rule="evenodd" fill="#737373" d="M103.68,30.167c0.56,0,1.116,0,1.673,0
	C105.399,30.625,103.636,30.625,103.68,30.167z"/>
</svg>
