<?xml version="1.0" encoding="utf-8"?>
<!-- Generator: Adobe Illustrator 15.0.0, SVG Export Plug-In  -->
<!DOCTYPE svg PUBLIC "-//W3C//DTD SVG 1.1//EN" "http://www.w3.org/Graphics/SVG/1.1/DTD/svg11.dtd" [
	<!ENTITY ns_flows "http://ns.adobe.com/Flows/1.0/">
]>
<svg version="1.1"
	 xmlns="http://www.w3.org/2000/svg" xmlns:xlink="http://www.w3.org/1999/xlink" xmlns:a="http://ns.adobe.com/AdobeSVGViewerExtensions/3.0/"
	 x="0px" y="0px" width="142px" height="142px" viewBox="-2.781 -29.935 142 142" enable-background="new -2.781 -29.935 142 142"
	 xml:space="preserve">
<defs>
</defs>
<path fill-rule="evenodd" clip-rule="evenodd" fill="#191919" d="M74.144,15.618c0.086-0.378,0.697-0.231,1.114-0.279
	C75.205,15.751,74.584,15.594,74.144,15.618z"/>
<path fill-rule="evenodd" clip-rule="evenodd" fill="#191919" d="M75.814,18.126c0.052-0.413,0.675-0.256,1.116-0.278
	C76.878,18.26,76.257,18.103,75.814,18.126z"/>
<path fill-rule="evenodd" clip-rule="evenodd" fill="#191919" d="M97.834,23.979c0.038-0.459,1.913-0.459,1.951,0
	C99.134,23.979,98.482,23.979,97.834,23.979z"/>
<path fill-rule="evenodd" clip-rule="evenodd" fill="#191919" d="M98.112,26.766c-0.046-0.457,1.717-0.457,1.673,0
	C99.227,26.766,98.669,26.766,98.112,26.766z"/>
<path fill-rule="evenodd" clip-rule="evenodd" fill="#191919" d="M103.686,30.11c0.56,0,1.116,0,1.673,0
	C105.404,30.568,103.642,30.568,103.686,30.11z"/>
<path fill-rule="evenodd" clip-rule="evenodd" fill="#BDBDBD" d="M52.961,34.013c0.836,0,1.672,0,2.508,0c0,0.093,0,0.186,0,0.278
	C54.713,34.119,53.257,34.645,52.961,34.013z"/>
<path fill-rule="evenodd" clip-rule="evenodd" fill="#BDBDBD" d="M55.748,34.291c-0.047-0.604,0.988-0.126,1.394-0.278
	C57.188,34.617,56.153,34.139,55.748,34.291z"/>
<path fill-rule="evenodd" clip-rule="evenodd" fill="#191919" d="M88.079,34.013c0.465,0,0.928,0,1.393,0
	C89.598,34.467,87.953,34.467,88.079,34.013z"/>
<path fill-rule="evenodd" clip-rule="evenodd" fill="#757575" d="M54.912,32.34c-0.153-0.618,0.533-0.397,0.558-0.836
	c0.237-0.051,0.263,0.109,0.279,0.279c-0.694,0.113-0.017,1.081,0.558,0.836c0.489,0.253,0.51,0.977,0.836,1.394
	c-0.405,0.152-1.44-0.326-1.394,0.278c-0.093,0-0.186,0-0.279,0c0-0.092,0-0.186,0-0.278c-0.069-0.303-0.554-0.189-0.558-0.558
	C54.589,33.043,54.589,32.752,54.912,32.34z"/>
<path fill-rule="evenodd" clip-rule="evenodd" fill="#333333" d="M54.912,33.455c-0.708-0.027-0.708-1.088,0-1.115
	C54.589,32.752,54.589,33.043,54.912,33.455z"/>
<path fill-rule="evenodd" clip-rule="evenodd" fill="#191919" d="M50.174,29.274c-0.734-0.288-0.939-1.105-1.673-1.393
	c-0.053-0.227-0.279-0.278-0.278-0.558C48.99,27.857,49.641,28.506,50.174,29.274z"/>
<path fill-rule="evenodd" clip-rule="evenodd" fill="#757575" d="M27.041,40.144c1.091-0.729,2.56-2.668,3.065-0.279
	c-0.693,0.515-1.573,0.843-1.951,1.673c-0.249-0.124-0.499-0.245-0.558-0.558C27.5,40.614,27.107,40.542,27.041,40.144z"/>
<path fill-rule="evenodd" clip-rule="evenodd" fill="#757575" d="M0.563,47.112c0.492,0.252,0.863,0.624,1.115,1.115
	C1.187,47.975,0.815,47.603,0.563,47.112z"/>
<path fill-rule="evenodd" clip-rule="evenodd" fill="#757575" d="M24.811,65.506c-0.86,0.906-1.708,1.823-2.229,3.066
	c-0.49,0.171-2.126-0.689-2.23-1.114c-0.071-0.294,2.274-2.728,2.508-3.345C23.497,64.592,24.268,64.935,24.811,65.506z"/>
<path fill-rule="evenodd" clip-rule="evenodd" fill="#BDBDBD" d="M73.027,34.291c0.307-0.995,0.956-1.645,1.951-1.951
	C74.237,32.9,73.587,33.55,73.027,34.291z"/>
<path fill-rule="evenodd" clip-rule="evenodd" fill="#333333" d="M76.373,31.504c0.768-1.02,1.181-1.821,0.836-3.344
	c0.395,0.023,0.789,0.045,0.835-0.278c2.763-0.423,4.754,1.017,6.968,1.95c0.754,0.318,1.437,0.384,2.511,0.836
	c0.693,0.292,0.599,0.574,1.113,0.558c1.427-0.045,2.395-1.279,3.344-2.23c0.968-0.967,1.804-1.972,2.509-3.065
	c0.492-0.252,0.863-0.623,1.115-1.115c0.613-0.408,1.196-0.847,2.23-0.836c0.648,0,1.3,0,1.951,0c2.534,0.159,3.54,1.848,4.46,3.623
	c4.297-0.996,8.332-2.258,12.819-3.065c0.697,0.047,0.873-0.428,1.116-0.836c4.892-6.905,10.62-12.976,15.328-20.067
	c0.342-0.122,0.572-0.356,0.557-0.836c-0.322-0.045-0.495,0.062-0.557,0.279c-17.536,6.248-35.812,11.755-56.578,14.772
	c-0.441,0.022-1.064-0.134-1.116,0.278c-0.916,0.012-1.387,0.471-2.509,0.279c-0.278,0-0.557,0-0.835,0
	c-0.535-1.323-1.416-2.3-3.624-1.951c1.59-0.454,3.355-0.732,5.296-0.836c0.44-0.023,1.062,0.134,1.114-0.279
	c19.519-3.042,37.423-7.946,54.348-13.936c2.154-0.761,4.957-2.405,7.246-0.558c0.71,1.695-0.006,3.037-0.835,4.459
	c-0.066,0.115-0.513,0.183-0.557,0.28c-0.064,0.142,0.086,0.429,0,0.557c-0.07,0.104-0.518,0.188-0.558,0.279
	c-0.063,0.139,0.087,0.434,0,0.557c-0.374,0.532-1.079,0.973-1.394,1.394c-0.187,0.25-0.087,0.355-0.279,0.558
	c-0.48,0.501-1.32,1.979-1.951,2.787c-0.423,0.542-0.987,0.87-1.395,1.394c-0.396,0.513-0.687,1.129-1.113,1.672
	c-1.701,2.165-4.007,5.072-6.131,7.804c-0.729,0.935-1.564,2.022-2.51,3.066c-1.148,1.266-2.576,1.686-4.738,2.23
	c-3.14,0.79-6.407,1.461-10.033,2.229c-0.557,0-1.113,0-1.673,0c-0.278,0-0.557,0-0.835,0c-1.295-0.843-1.571-2.704-3.065-3.345
	c0.044-0.457-1.719-0.457-1.673,0c-0.187,0-0.373,0-0.557,0c-0.583,0.346-1.048,0.811-1.395,1.394
	c-1.212,2.286-3.586,4.944-6.689,5.853c-0.465,0-0.928,0-1.393,0C84.194,33.36,80.603,29.17,76.373,31.504z"/>
<path fill-rule="evenodd" clip-rule="evenodd" fill="#191919" d="M96.161,28.16c0.347-0.583,0.812-1.048,1.395-1.394
	C97.209,27.349,96.744,27.813,96.161,28.16z"/>
<path fill-rule="evenodd" clip-rule="evenodd" fill="#191919" d="M94.488,25.93c0.252-0.492,0.625-0.863,1.115-1.115
	C95.352,25.307,94.98,25.678,94.488,25.93z"/>
<path fill-rule="evenodd" clip-rule="evenodd" fill="#191919" d="M117.064,24.536c0.274-0.376,0.743-0.557,1.116-0.836
	C117.938,24.108,117.762,24.583,117.064,24.536z"/>
<path fill-rule="evenodd" clip-rule="evenodd" fill="#191919" d="M133.509,3.076c0.062-0.217,0.234-0.324,0.557-0.279
	c0.016,0.48-0.215,0.715-0.557,0.836C133.681,3.385,133.845,3.134,133.509,3.076z"/>
<path fill-rule="evenodd" clip-rule="evenodd" fill="#191919" d="M77.209,28.16c-0.055-0.226-0.281-0.278-0.278-0.558
	c0.248,0.217,0.629,0.3,1.113,0.28C77.998,28.205,77.604,28.183,77.209,28.16z"/>
<path fill-rule="evenodd" clip-rule="evenodd" fill="#333333" d="M73.587,20.914c-0.609,0.05-0.888-0.229-0.838-0.836
	C73.035,20.35,73.314,20.628,73.587,20.914z"/>
<path fill-rule="evenodd" clip-rule="evenodd" fill="#BDBDBD" d="M61.044,52.686c0.251-0.491,0.623-0.862,1.114-1.115
	C61.907,52.063,61.535,52.434,61.044,52.686z"/>
<path fill-rule="evenodd" clip-rule="evenodd" fill="#BDBDBD" d="M26.205,39.308c0.643-0.085,0.31,0.806,0.836,0.836
	c0.066,0.398,0.458,0.47,0.557,0.836C26.909,40.647,26.508,40.026,26.205,39.308z"/>
<path fill-rule="evenodd" clip-rule="evenodd" fill="#BDBDBD" d="M48.501,27.881c0.734,0.288,0.938,1.105,1.673,1.393
	c0,0.093,0,0.186,0,0.279C49.499,29.113,48.941,28.557,48.501,27.881z"/>
<path fill-rule="evenodd" clip-rule="evenodd" fill="#757575" d="M46.271,29.274c0.769,0.533,1.418,1.183,1.952,1.951
	C47.455,30.692,46.805,30.042,46.271,29.274z"/>
<path fill-rule="evenodd" clip-rule="evenodd" fill="#BDBDBD" d="M31.5,50.177c-0.583-0.345-1.047-0.81-1.394-1.393
	C30.689,49.129,31.154,49.594,31.5,50.177z"/>
<path fill-rule="evenodd" clip-rule="evenodd" fill="#757575" d="M26.205,43.49c-0.981-0.561-1.557,1.312-2.787,1.392
	c-0.099-0.365-0.491-0.438-0.558-0.835c-0.112-1.424,2.425-1.335,1.673-2.508C25.205,42.073,25.639,42.847,26.205,43.49z"/>
<path fill-rule="evenodd" clip-rule="evenodd" fill="#333333" d="M46.551,59.375c0.252-0.492,0.623-0.863,1.115-1.115
	C47.414,58.752,47.042,59.124,46.551,59.375z"/>
<path fill-rule="evenodd" clip-rule="evenodd" fill="#757575" d="M24.254,61.605c0.821,0.304,2.458-3.029,2.787-3.066
	c0.612-0.068,0.783,0.829,1.672,1.115c-0.252,1.573-2.444,2.492-1.952,3.902C25.923,62.909,25.028,62.316,24.254,61.605z"/>
<path fill-rule="evenodd" clip-rule="evenodd" fill="#333333" d="M55.748,31.783c0.26,0.205,0.422,0.507,0.558,0.836
	C55.731,32.863,55.054,31.896,55.748,31.783z"/>
<path fill-rule="evenodd" clip-rule="evenodd" fill="#333333" d="M68.847,19.241c-0.088-0.492,1.561-0.498,1.115,0.279
	C69.715,19.303,69.333,19.22,68.847,19.241z"/>
<path fill-rule="evenodd" clip-rule="evenodd" fill="#191919" d="M72.749,19.241c-0.326-0.045-0.234-0.508-0.278-0.836
	c0.278,0,0.557,0,0.835,0C73.126,18.688,72.667,18.693,72.749,19.241z"/>
<path fill-rule="evenodd" clip-rule="evenodd" fill="#757575" d="M41.813,25.651c0.086-0.378,0.698-0.231,1.115-0.279
	c0,0.093,0,0.186,0,0.279C42.556,25.651,42.184,25.651,41.813,25.651z"/>
<path fill-rule="evenodd" clip-rule="evenodd" fill="#333333" d="M42.927,25.373c0.405,0.152,1.44-0.326,1.394,0.279
	c-0.465,0-0.929,0-1.394,0C42.927,25.558,42.927,25.466,42.927,25.373z"/>
<path fill-rule="evenodd" clip-rule="evenodd" fill="#333333" d="M43.485,28.717c-1.658-0.478,1.167-0.963,1.394-0.279
	c-0.464,0-0.929,0-1.394,0C43.485,28.531,43.485,28.624,43.485,28.717z"/>
<path fill-rule="evenodd" clip-rule="evenodd" fill="#333333" d="M59.65,34.57c0-0.464,0-0.929,0-1.393
	C60.105,33.051,60.105,34.695,59.65,34.57z"/>
<path fill-rule="evenodd" clip-rule="evenodd" fill="#757575" d="M59.65,34.849c0.467,1.376,2.621,1.394,1.951,2.508
	c-0.653,1.089-1.558,0.085-2.787-0.836C58.955,35.826,59.341,35.375,59.65,34.849z"/>
<path fill-rule="evenodd" clip-rule="evenodd" fill="#BDBDBD" d="M71.914,39.586c0.17-0.667-0.351-2.022,0.278-2.229
	C72.021,38.023,72.541,39.379,71.914,39.586z"/>
<path fill-rule="evenodd" clip-rule="evenodd" fill="#333333" d="M50.174,40.98c0.459,0.124,0.459,2.106,0,2.229
	C50.174,42.466,50.174,41.724,50.174,40.98z"/>
<path fill-rule="evenodd" clip-rule="evenodd" fill="#191919" d="M47.387,41.259c0.456-0.125,0.456,1.519,0,1.394
	C47.387,42.188,47.387,41.724,47.387,41.259z"/>
<path fill-rule="evenodd" clip-rule="evenodd" fill="#757575" d="M61.044,47.948c-0.994-0.493-2.854-0.119-2.509-1.95
	c1.02-0.747,2.003,0.468,3.065,0.557C61.317,46.921,61.328,47.583,61.044,47.948z"/>
<path fill-rule="evenodd" clip-rule="evenodd" fill="#757575" d="M64.388,47.112c0.133,0.982,1.314,0.916,2.23,1.115
	c0.201,0.852-0.285,1.015-0.278,1.672c-1.036-0.172-1.751-0.664-2.788-0.836c0.217-0.619,0.586-1.087,0.558-1.951
	C64.203,47.112,64.295,47.112,64.388,47.112z"/>
<path fill-rule="evenodd" clip-rule="evenodd" fill="#757575" d="M37.353,52.408c0.667,0.17,2.022-0.35,2.229,0.278
	C38.916,52.517,37.561,53.036,37.353,52.408z"/>
<path fill-rule="evenodd" clip-rule="evenodd" fill="#757575" d="M47.108,64.67c0,0.743,0,1.486,0,2.229
	C46.648,66.777,46.648,64.794,47.108,64.67z"/>
<path fill-rule="evenodd" clip-rule="evenodd" fill="#191919" d="M44.321,66.622c-0.458,0.046-0.458-1.718,0-1.672
	C44.321,65.506,44.321,66.065,44.321,66.622z"/>
<path fill-rule="evenodd" clip-rule="evenodd" fill="#FFFFFF" d="M55.469,31.504c-0.889-2.04-4.062-5.304-5.853-7.804
	c-0.856-1.194-1.668-1.801-1.393-3.066c0.36-1.66,2.374-1.616,4.459-1.951c5.237-0.841,11.079-1.631,16.165-2.23
	c2.208-0.349,3.088,0.628,3.624,1.951c0.044,0.328-0.048,0.791,0.278,0.836c0,0.279,0,0.557,0,0.836
	c-0.05,0.608,0.229,0.886,0.838,0.836c2.374,0.968,2.317,4.369,3.344,6.688c-0.003,0.28,0.224,0.333,0.278,0.558
	c0.345,1.523-0.068,2.325-0.836,3.344c-0.581,0.164-0.901,0.586-1.395,0.836c-0.995,0.306-1.645,0.956-1.951,1.951
	c-0.452,0.847-0.817,1.784-0.835,3.066c-0.629,0.208-0.108,1.563-0.278,2.229c-0.076,0.607-0.16,1.264-0.558,1.952
	c-0.065,0.115-0.514,0.181-0.559,0.278c-0.554,1.229-1.729,1.519-3.065,2.23c-1.498,0.797-2.942,1.157-3.345,3.065
	c-0.092,0-0.185,0-0.278,0c0.028,0.864-0.341,1.332-0.558,1.951c-0.318,0.981-0.612,1.989-1.394,2.508
	c-0.491,0.253-0.863,0.624-1.114,1.115c-0.19,0.499-1.141,0.885-1.672,1.394c-0.666,0.637-2.565,1.536-3.624,2.229
	c-0.619,0.405-1.314,0.783-1.951,1.394c-0.237,0.228-0.603,0.334-0.836,0.558c-0.253,0.242-1.318,0.679-1.951,1.115
	c-1.34,0.926-2.091,1.769-3.066,2.786c-0.251,0.263-0.585,1.664-0.836,2.509c-0.459,0.124-0.459,2.106,0,2.229
	c0.131,1.246,0.932,2.385,1.394,3.624c0.486,1.302,0.643,2.639,1.115,3.902c0.209,0.559,0.602,1.042,0.836,1.672
	c0.593,1.587,1.666,3.668,0,5.574c-2.967,1.02-5.208-1.5-7.247-2.787c-0.534-0.337-1.106-0.751-1.672-1.114
	c-0.5-0.323-1.245-0.537-1.672-0.837c-0.587-0.412-0.879-1.013-1.394-1.394c-0.478-0.354-1.194-0.481-1.672-0.836
	c-0.466-0.346-0.923-1.028-1.393-1.394c-0.264-0.205-0.596-0.361-0.836-0.557c-2.808-2.291-6.709-4.749-9.755-7.248
	c-0.543-0.571-1.314-0.914-1.951-1.393C15.826,58.791,8.699,53.561,1.678,48.227c-0.251-0.491-0.623-0.863-1.115-1.115
	c-0.413-0.236-0.599-0.701-0.557-1.394c0.18-3.112,4.018-3.606,6.411-4.738c0.367-0.173,0.702-0.668,1.114-0.836
	c0.445-0.181,0.994-0.089,1.394-0.279c3.522-1.661,6.796-3.869,10.591-4.738c0.836,0,1.672,0,2.508,0c0.186,0,0.372,0,0.558,0
	c1.212,1.39,2.6,2.603,3.623,4.181c0.304,0.718,0.705,1.339,1.394,1.672c0.059,0.313,0.309,0.434,0.558,0.558
	c0.699,0.953,1.618,2.126,2.508,3.343c0.804,1.102,1.519,2.642,2.508,3.346c0.568,0.404,2.18,0.863,3.066,1.114
	c1.101,0.313,2.369,0.654,3.344,0.558c0.888-0.087,2.094-0.76,3.345-1.394c1.084-0.55,2.486-0.986,3.066-1.673
	c0.805-0.952,0.93-2.629,1.394-4.18c0.456,0.125,0.456-1.519,0-1.394c-1.857-4.553-4.897-7.923-6.968-12.263c0-0.65,0-1.301,0-1.951
	c0.123-0.806,0.588-1.271,1.394-1.394c0.372,0,0.743,0,1.115,0c0.464,0,0.929,0,1.394,0c1.983-0.125,3.124,0.593,3.902,1.672
	c-0.001,0.28,0.225,0.332,0.278,0.558c0.439,0.675,0.997,1.232,1.673,1.672c1.449,0.966,1.206,3.624,2.787,4.459
	c0.296,0.632,1.752,0.106,2.508,0.278c0.093,0,0.186,0,0.279,0c0.405-0.152,1.44,0.326,1.394-0.278
	c-0.326-0.417-0.347-1.141-0.836-1.394c-0.135-0.329-0.297-0.631-0.558-0.836C55.732,31.613,55.706,31.453,55.469,31.504z
	 M68.847,19.241c-5.866,0.73-11.907,1.285-17.28,2.509c3.053,3.45,5.987,7.019,8.083,11.427c0,0.464,0,0.929,0,1.393
	c0,0.093,0,0.186,0,0.279c-0.309,0.527-0.695,0.977-0.836,1.672c-0.978,0.138-1.814,0.415-3.066,0.278
	c-0.751-0.642-2.688-0.099-3.902-0.278c-2.533-0.439-2.479-3.468-3.623-5.295c-0.534-0.768-1.183-1.418-1.952-1.951
	c-0.656-0.086-0.518-0.968-1.393-0.836c-0.226-0.684-3.052-0.199-1.394,0.279c1.012,1.904,2.198,3.712,3.344,5.574
	c1.202,1.953,3.019,4.322,3.345,6.689c0,0.743,0,1.486,0,2.229c-0.491,1.938-1.11,4.266-1.951,5.296
	c-0.536,0.656-0.848,0.775-1.394,1.115c-2.182,1.355-4.704,2.83-7.247,3.065c-0.207-0.628-1.563-0.108-2.229-0.278
	c-2.35-0.345-4.433-0.956-5.853-2.23c-0.346-0.583-0.811-1.048-1.394-1.393c-1.396-1.669-2.718-3.414-3.902-5.295
	c-0.565-0.643-1-1.417-1.672-1.952c-1.672-1.122-2.011-3.608-3.902-3.903c-0.914-0.142-2.839,0.935-4.459,1.673
	c-2.389,1.087-4.321,2.101-6.41,3.065c-2.185,1.009-4.762,2.352-6.689,3.066c-0.049,0.649,0.755,0.822,1.115,1.114
	c0.674,0.548,1.437,1,1.951,1.394c1.65,1.263,3.15,2.449,4.738,3.623c1.403,1.038,2.78,2.232,3.902,3.066
	c0.441,0.328,0.943,0.496,1.393,0.837c0.408,0.307,0.651,0.77,1.115,1.114c0.48,0.356,1.192,0.479,1.672,0.836
	c0.367,0.273,0.728,0.815,1.115,1.114c1.458,1.126,2.83,1.954,4.181,3.066c0.774,0.711,1.669,1.304,2.508,1.951
	c1.041,0.878,2.468,1.559,3.345,2.23c1.108,0.846,2.112,1.792,3.066,2.508c0.947,0.71,1.759,1.378,2.509,1.95
	c0.243,0.186,0.567,0.091,0.836,0.279c0.232,0.162,0.323,0.662,0.558,0.836c0.245,0.181,0.618,0.113,0.836,0.278
	c0.453,0.347,0.812,0.885,1.114,1.116c0.236,0.18,0.583,0.09,0.836,0.278c0.88,0.653,1.579,1.598,2.508,2.229
	c0.246,0.166,0.624,0.146,0.836,0.278c1.654,1.028,3.194,2.429,5.017,3.065c-1.048-4.247-3.168-7.423-3.902-11.984
	c0-0.557,0-1.115,0-1.672c0.11-2.491,1.079-4.124,2.23-5.574c0.491-0.252,0.863-0.623,1.115-1.115
	c1.006-0.946,3.124-1.763,3.901-2.508c1.038-0.994,2.544-1.743,3.624-2.23c0.09-0.041,0.176-0.488,0.278-0.557
	c0.128-0.086,0.415,0.063,0.558,0c0.094-0.043,0.17-0.491,0.279-0.558c0.353-0.221,0.759-0.077,1.114-0.278
	c0.368-0.209,0.512-0.596,0.836-0.837c1.219-0.908,2.41-1.575,2.788-3.345c0.284-0.365,0.273-1.026,0.557-1.394
	c-0.075-0.909,0.661-1.36,0.836-1.673c0.268-0.476,0.389-1.259,0.836-1.672c0.15-0.138,0.686-0.184,0.836-0.278
	c2.09-1.299,5.085-1.875,5.296-4.459c0.633-0.296,0.105-1.752,0.278-2.508c-0.153-1.268,0.618-2.083,0.836-2.508
	c0.193-0.378,0.053-0.772,0.278-1.115c0.924-1.394,3.017-1.909,3.624-3.623c-0.44-1.882-1.408-3.237-1.673-5.295
	c-2.173-0.056-2.555-1.905-2.787-3.902C70.408,18.743,68.759,18.749,68.847,19.241z"/>
<path fill-rule="evenodd" clip-rule="evenodd" fill="#BDBDBD" d="M40.419,27.045c0,0.65,0,1.3,0,1.951
	C39.96,28.958,39.96,27.083,40.419,27.045z"/>
<path fill-rule="evenodd" clip-rule="evenodd" fill="#BDBDBD" d="M19.516,35.127c0.212-0.46,2.296-0.46,2.508,0
	C21.188,35.127,20.352,35.127,19.516,35.127z"/>
<path fill-rule="evenodd" clip-rule="evenodd" fill="#BDBDBD" d="M51.846,36.521c1.213,0.18,3.15-0.364,3.902,0.278
	C54.534,36.62,52.597,37.163,51.846,36.521z"/>
<path fill-rule="evenodd" clip-rule="evenodd" fill="#BDBDBD" d="M69.684,35.963c-0.173,0.756,0.354,2.212-0.278,2.508
	C69.577,37.715,69.051,36.26,69.684,35.963z"/>
</svg>
