<?xml version="1.0" encoding="utf-8"?>
<!-- Generator: Adobe Illustrator 15.0.0, SVG Export Plug-In  -->
<!DOCTYPE svg PUBLIC "-//W3C//DTD SVG 1.1//EN" "http://www.w3.org/Graphics/SVG/1.1/DTD/svg11.dtd" [
	<!ENTITY ns_flows "http://ns.adobe.com/Flows/1.0/">
]>
<svg version="1.1"
	 xmlns="http://www.w3.org/2000/svg" xmlns:xlink="http://www.w3.org/1999/xlink" xmlns:a="http://ns.adobe.com/AdobeSVGViewerExtensions/3.0/"
	 x="0px" y="0px" width="142px" height="142px" viewBox="-2.722 -29.878 142 142" enable-background="new -2.722 -29.878 142 142"
	 xml:space="preserve">
<defs>
</defs>
<path fill-rule="evenodd" clip-rule="evenodd" fill="#DADADA" d="M53.021,34.07c0.372,0,0.743,0,1.115,0c0,0.093,0,0.186,0,0.278
	C53.718,34.301,53.107,34.448,53.021,34.07z"/>
<path fill-rule="evenodd" clip-rule="evenodd" fill="#A9A9A9" d="M54.135,34.348c0-0.092,0-0.186,0-0.278c0.557,0,1.115,0,1.672,0
	c0,0.093,0,0.186,0,0.278C55.25,34.348,54.692,34.348,54.135,34.348z"/>
<path fill-rule="evenodd" clip-rule="evenodd" fill="#303030" d="M88.417,34.07c0.371,0,0.743,0,1.114,0
	C89.731,34.521,88.217,34.521,88.417,34.07z"/>
<path fill-rule="evenodd" clip-rule="evenodd" fill="#DADADA" d="M54.692,36.856c0-0.093,0-0.186,0-0.278
	c0.49,0.16,1.638-0.337,1.673,0.278C55.808,36.856,55.25,36.856,54.692,36.856z"/>
<path fill-rule="evenodd" clip-rule="evenodd" fill="#DADADA" d="M38.807,49.956c0.464,0,0.929,0,1.393,0
	C40.326,50.411,38.681,50.411,38.807,49.956z"/>
<path fill-rule="evenodd" clip-rule="evenodd" fill="#303030" d="M44.38,65.285c0,0.372,0,0.743,0,1.115
	C43.928,66.6,43.928,65.086,44.38,65.285z"/>
<path fill-rule="evenodd" clip-rule="evenodd" fill="#303030" d="M49.397,28.495c-0.913-0.48-1.317-1.47-2.23-1.951
	c0-0.093,0-0.186,0-0.278C48.028,26.892,48.771,27.635,49.397,28.495z"/>
<path fill-rule="evenodd" clip-rule="evenodd" fill="#303030" d="M27.937,67.794c0.249,0.123,0.498,0.244,0.557,0.558
	c-0.124,0.247-0.244,0.498-0.557,0.557C28.259,68.496,28.259,68.206,27.937,67.794z"/>
<path fill-rule="evenodd" clip-rule="evenodd" fill="#303030" d="M27.101,72.253c0.412,0.323,0.702,0.323,1.115,0
	c-0.078,0.646-0.745,0.642-1.115,0.278C27.101,72.438,27.101,72.346,27.101,72.253z"/>
<path fill-rule="evenodd" clip-rule="evenodd" fill="#A9A9A9" d="M61.104,52.743c0.251-0.491,0.623-0.862,1.114-1.115
	C61.966,52.12,61.595,52.491,61.104,52.743z"/>
<path fill-rule="evenodd" clip-rule="evenodd" fill="#303030" d="M69.743,43.267c0.346-0.583,0.811-1.047,1.393-1.393
	C70.791,42.457,70.326,42.921,69.743,43.267z"/>
<path fill-rule="evenodd" clip-rule="evenodd" fill="#A9A9A9" d="M73.087,34.348c0.354-0.946,1.006-1.596,1.951-1.951
	C74.365,33.024,73.714,33.674,73.087,34.348z"/>
<path fill-rule="evenodd" clip-rule="evenodd" fill="#A9A9A9" d="M93.155,31.84c0.438-0.675,0.996-1.232,1.671-1.672
	C94.388,30.843,93.83,31.4,93.155,31.84z"/>
<path fill-rule="evenodd" clip-rule="evenodd" fill="#FFFFFF" d="M135.798,0.346c0.709,0.034,1.08,0.405,1.113,1.115
	c0,0.65,0,1.301,0,1.951c-0.729,1.625-1.7,3.203-2.786,4.738c-0.817,1.158-1.991,2.534-3.065,3.901
	c-0.879,1.12-1.821,2.16-2.787,3.345c-0.332,0.408-0.637,0.808-1.115,1.394c-0.356,0.437-0.602,0.845-1.114,1.394
	c-0.419,0.448-0.865,1.282-1.395,1.951c-1.39,1.759-2.811,3.736-4.459,5.295c-0.491,0.251-0.861,0.624-1.114,1.115
	c-0.444,0.807-2.452,1.025-3.902,1.394c-2.825,0.718-6.489,1.614-9.755,2.229c-0.557,0-1.113,0-1.673,0
	c-2.346-0.068-2.096-2.735-3.9-3.345c0.124-0.455-1.521-0.455-1.395,0c-2.134,0.189-2.151,2.494-3.624,3.345
	c-0.675,0.44-1.232,0.998-1.671,1.672c-0.945,1.006-1.951,1.951-3.624,2.23c-0.371,0-0.743,0-1.114,0
	c-0.801,0.058-1.416-0.071-1.673-0.558c-0.389-0.54-1.442-0.416-1.951-0.836c-1.851-0.471-3.273-1.371-5.017-1.951
	c0.126-0.455-1.519-0.455-1.393,0c-1.292,0.381-2.266,1.08-3.346,1.672c-0.945,0.354-1.597,1.004-1.951,1.951
	c-0.347,1.047-0.729,2.057-0.835,3.344c-0.615,0.035-0.118,1.183-0.278,1.673c0.149,1.265-0.562,1.669-0.838,2.508
	c-0.582,0.346-1.047,0.81-1.393,1.393c-1.524,1.509-3.824,0.91-4.738,2.509c-0.942,1.649-1.226,4.332-2.787,5.853
	c-0.491,0.253-0.863,0.624-1.114,1.115c-0.964,1.106-3.616,2.55-5.296,3.623c-0.662,0.423-1.313,0.782-1.951,1.394
	c-0.237,0.228-0.603,0.334-0.836,0.558c-0.24,0.229-1.442,0.765-1.951,1.115c-2.021,1.389-3.115,2.403-3.902,5.017
	c-0.458,0.038-0.458,1.913,0,1.951c0.352,2.096,1.205,4.106,1.951,6.131c0.434,1.18,0.794,2.254,1.394,3.902
	c0.552,1.518,1.828,3.495,0,5.296c-0.878,0.262-1.286,0.329-1.951,0.278c-1.088-0.082-1.845-0.794-2.787-1.394
	c-0.198-0.126-0.618-0.115-0.836-0.278c-0.329-0.246-1.05-1.02-1.672-1.394c-4.294-2.58-8.711-6.149-12.82-9.197
	c-0.535-0.581-1.069-1.162-1.952-1.394c-0.059-0.313-0.309-0.435-0.557-0.558c-1.906-1.111-3.503-2.541-5.295-3.902
	c-0.288-0.219-0.787-0.295-1.115-0.558c-0.512-0.407-0.851-0.825-1.672-1.394c-1.588-1.099-3.436-2.613-5.295-3.901
	c-0.1-0.069-0.191-0.518-0.279-0.558c-1.3-0.586-2.625-1.825-3.902-2.787c-1.777-1.338-3.458-2.506-5.295-3.901
	c-0.322-0.246-0.801-0.308-1.115-0.559c-0.54-0.43-0.8-0.79-1.672-1.393c-0.62-0.429-1.654-1.173-1.951-2.23c0-0.649,0-1.3,0-1.951
	c0.791-1.89,3.024-2.268,4.738-3.065c3.398-1.582,6.75-3.257,10.591-5.017c1.929-0.884,3.939-1.996,5.853-1.672
	c1.147,0.194,2.484,1.468,3.624,2.787c0.29,0.336,0.256,0.763,0.557,1.115c0.202,0.235,0.642,0.322,0.836,0.558
	c0.261,0.315,0.292,0.805,0.558,1.115c0.53,0.618,1.498,1.566,2.229,2.508c0.265,0.34,0.268,0.751,0.558,1.115
	c0.396,0.497,0.857,0.896,1.394,1.672c0.845,1.223,1.685,2.366,3.344,3.066c1.104,0.466,2.334,0.687,4.181,1.114
	c-0.126,0.455,1.519,0.455,1.393,0c1.326-1.176,4.621-1.597,5.853-3.066c0.699-0.832,0.957-2.69,1.394-4.18
	c0.458,0.045,0.458-1.718,0-1.672c0-0.093,0-0.186,0-0.279c-0.326-0.417-0.347-1.14-0.836-1.394
	c-0.693-1.287-2.316-3.641-3.345-5.295c-0.143-0.23-0.11-0.56-0.279-0.836c-1.343-2.2-3.847-4.48-2.508-6.689
	c0.204-0.337,0.906-0.906,1.672-0.836c0.651,0,1.301,0,1.952,0c1.292-0.085,2.413,0.002,3.065,0.558c0,0.093,0,0.186,0,0.278
	c0.812,1.046,1.742,1.975,2.787,2.787c1.75,0.852,1.435,3.768,3.066,4.738c0.086,0.378,0.698,0.231,1.115,0.278
	c0.557,0,1.115,0,1.672,0c0.464,0,0.929,0,1.394,0c0.024-0.396,0.046-0.789-0.279-0.836c-1.059-1.163-2.158-3.41-3.344-5.017
	c-0.677-0.917-1.632-2.014-2.508-3.065c-0.697-0.836-1.94-1.967-2.509-3.066c-0.722-1.395-0.423-2.713,1.393-3.344
	c0.738-0.256,1.941-0.094,3.066-0.278c1.905-0.311,3.621-0.974,5.574-0.836c0.49-0.161,1.638,0.336,1.673-0.279
	c0.694-0.234,1.492-0.364,2.508-0.279c0.49-0.16,1.638,0.337,1.672-0.278c12.105-1.736,23.842-3.843,35.117-6.41
	c0.499-0.339,1.622-0.051,1.951-0.558c11.057-2.788,21.316-6.371,31.773-9.755C134.125,0.346,134.962,0.346,135.798,0.346z
	 M99.845,24.036c2.736,0.049,3.372,2.202,4.738,3.623c4.247-1.233,8.757-2.205,13.098-3.344
	c5.289-7.162,11.281-13.618,16.166-21.182c-10.448,3.487-20.766,7.106-32.053,9.755c-0.743,0.185-1.741,0.117-2.229,0.558
	c-9.435,2.363-19.333,4.263-29.821,5.574c-0.405,0.152-1.44-0.325-1.394,0.279c-0.694,0.234-1.494,0.365-2.508,0.279
	c-0.49,0.16-1.637-0.337-1.672,0.278c-0.695,0.235-1.493,0.365-2.509,0.279c-0.49,0.16-1.637-0.337-1.672,0.279
	c-2.661,0.405-5.156,0.975-8.082,1.114c1.028,2.165,2.841,3.732,4.181,5.575c0.292,0.4,0.509,0.921,0.836,1.393
	c1.037,1.496,2.302,2.928,2.787,4.739c0,0.464,0,0.929,0,1.393c-0.231,1.627-1.36,2.355-3.344,2.229
	c-0.035-0.615-1.183-0.118-1.673-0.278c-0.836,0-1.672,0-2.508,0c-0.185,0-0.371,0-0.558,0c-0.015-0.17-0.041-0.33-0.278-0.278
	c-2.192-0.689-2.038-3.723-3.344-5.296c-0.533-0.768-1.184-1.417-1.951-1.951c-0.397-0.066-0.47-0.458-0.836-0.558
	c0.039-0.56-2.869-0.319-1.951,0c2.016,3.093,3.872,6.348,5.853,9.477c0.124,0.711,0.391,1.281,0.835,1.671
	c0.235,0.324,0.368,0.748,0.28,1.394c0,0.65,0,1.3,0,1.951c-0.376,2.04-0.78,4.052-1.951,5.296
	c-0.492,0.252-0.863,0.623-1.115,1.114c0,0.093,0,0.187,0,0.279c-2.103,0.869-3.72,2.226-6.131,2.787c-1.115,0-2.229,0-3.345,0
	c-2.641-0.146-4.648-0.927-6.132-2.23c-0.346-0.583-0.811-1.048-1.394-1.393c-2.114-2.433-4.573-6.152-6.688-8.641
	c-0.911-1.071-1.982-2.384-2.788-2.509c-0.863-0.133-3.136,1.06-4.459,1.673c-1.514,0.701-3.073,1.715-4.181,2.23
	c-1.561,0.725-3.097,1.302-4.459,1.952c-1.516,0.721-2.915,1.386-4.459,1.95c0.117,0.697,0.915,1.026,1.393,1.393
	c8.364,6.408,16.863,12.424,25.084,18.674c0.608,0.878,1.561,1.413,2.508,1.952c5.377,3.726,10.165,8.043,16.166,11.147
	c-1.09-4.298-3.346-7.431-3.902-12.263c0-0.372,0-0.743,0-1.115c-0.084-2.593,1.008-4.01,1.951-5.574
	c0.675-0.439,1.233-0.997,1.673-1.672c1.901-1.26,3.906-2.487,6.131-3.902c2.212-1.406,5.806-3.299,6.689-5.295
	c0.662-1.495,1.019-3.883,1.951-4.738c0.492-0.253,0.863-0.624,1.115-1.115c2.084-1.446,5.567-1.493,5.575-5.016
	c0.615-0.035,0.118-1.183,0.278-1.672c0.14-3.231,2.058-5.066,3.903-6.411c1.088-0.793,2.336-1.479,3.622-1.672
	c1.208,0,2.416,0,3.624,0c1.827,0.401,3.235,1.223,4.738,1.951c0.53,0.398,1.21,0.648,1.951,0.836
	c1.206,0.671,2.258-0.036,3.065-0.557c1.25-0.608,2.18-1.537,2.786-2.788c0.93-1.765,2.016-3.372,4.46-3.623
	C98.542,24.036,99.193,24.036,99.845,24.036z"/>
<path fill-rule="evenodd" clip-rule="evenodd" fill="#DADADA" d="M119.075,26.544c0.253-0.491,0.623-0.863,1.114-1.115
	C120.155,26.139,119.784,26.51,119.075,26.544z"/>
<path fill-rule="evenodd" clip-rule="evenodd" fill="#707070" d="M28.494,68.352c0.883,0.231,1.417,0.813,1.952,1.394
	c-1.125,0.453-1.434,1.725-2.23,2.508c-0.413,0.323-0.703,0.323-1.115,0c-0.761,0.204-0.561-0.554-1.115-0.558
	c0.48-1.098,1.335-1.822,1.951-2.787C28.25,68.85,28.37,68.599,28.494,68.352z"/>
<path fill-rule="evenodd" clip-rule="evenodd" fill="#DADADA" d="M47.167,26.544c0.913,0.48,1.317,1.471,2.23,1.951
	c0.098,0.366,0.491,0.438,0.557,0.836C48.909,28.52,47.979,27.59,47.167,26.544z"/>
<path fill-rule="evenodd" clip-rule="evenodd" fill="#707070" d="M46.053,29.053c0.768,0.534,1.418,1.184,1.951,1.951
	C47.236,30.471,46.586,29.821,46.053,29.053z"/>
<path fill-rule="evenodd" clip-rule="evenodd" fill="#DADADA" d="M47.167,49.398c0.252-0.491,0.624-0.862,1.115-1.114
	c0,0.093,0,0.186,0,0.278C47.714,48.646,47.736,49.317,47.167,49.398z"/>
<path fill-rule="evenodd" clip-rule="evenodd" fill="#A9A9A9" d="M30.166,48.842c0.583,0.345,1.047,0.81,1.394,1.393
	C30.977,49.89,30.512,49.425,30.166,48.842z"/>
<path fill-rule="evenodd" clip-rule="evenodd" fill="#707070" d="M32.117,67.516c-0.947-0.539-1.9-1.074-2.508-1.952
	c0.169,0.017,0.33,0.042,0.278,0.28c1.497-0.549,1.5-2.588,3.066-3.066c0.219,0.616,0.975,0.697,1.393,1.114
	C33.822,65.317,32.447,65.894,32.117,67.516z"/>
<path fill-rule="evenodd" clip-rule="evenodd" fill="#303030" d="M46.331,59.711c0.44-0.675,0.998-1.232,1.673-1.672
	C47.564,58.714,47.006,59.271,46.331,59.711z"/>
<path fill-rule="evenodd" clip-rule="evenodd" fill="#A9A9A9" d="M90.647,30.447c0.995-0.862,1.925-1.79,2.786-2.788
	C92.827,28.91,91.897,29.838,90.647,30.447z"/>
<path fill-rule="evenodd" clip-rule="evenodd" fill="#303030" d="M62.775,44.104c0.251-0.492,0.624-0.863,1.115-1.115
	C63.638,43.479,63.267,43.851,62.775,44.104z"/>
<path fill-rule="evenodd" clip-rule="evenodd" fill="#303030" d="M47.167,49.398c0.568-0.081,0.546-0.753,1.115-0.836
	c-0.252,0.491-0.624,0.863-1.115,1.115C47.167,49.585,47.167,49.491,47.167,49.398z"/>
<path fill-rule="evenodd" clip-rule="evenodd" fill="#A9A9A9" d="M136.911,1.46c0.461,0.038,0.461,1.913,0,1.951
	C136.911,2.761,136.911,2.111,136.911,1.46z"/>
<path fill-rule="evenodd" clip-rule="evenodd" fill="#707070" d="M99.564,10.658c-0.272-0.803-0.926-2.214-0.278-3.066
	c0.372,0,0.743,0,1.115,0c0.282,0.926,0.03,2.385,1.114,2.509C101.187,10.607,100.063,10.319,99.564,10.658z"/>
<path fill-rule="evenodd" clip-rule="evenodd" fill="#707070" d="M62.775,17.347c0.035-0.615,1.183-0.118,1.672-0.278
	C64.413,17.684,63.265,17.187,62.775,17.347z"/>
<path fill-rule="evenodd" clip-rule="evenodd" fill="#707070" d="M58.595,17.905c0.034-0.616,1.182-0.119,1.673-0.279
	C60.232,18.241,59.085,17.744,58.595,17.905z"/>
<path fill-rule="evenodd" clip-rule="evenodd" fill="#707070" d="M68.35,19.298c-0.047-0.604,0.988-0.126,1.394-0.279
	C69.79,19.624,68.754,19.146,68.35,19.298z"/>
<path fill-rule="evenodd" clip-rule="evenodd" fill="#707070" d="M64.169,19.855c0.035-0.615,1.183-0.118,1.672-0.278
	C65.806,20.192,64.659,19.695,64.169,19.855z"/>
<path fill-rule="evenodd" clip-rule="evenodd" fill="#707070" d="M59.988,20.413c0.035-0.616,1.183-0.119,1.672-0.279
	C61.626,20.75,60.478,20.252,59.988,20.413z"/>
<path fill-rule="evenodd" clip-rule="evenodd" fill="#303030" d="M97.894,24.036c0.038-0.459,1.913-0.459,1.951,0
	C99.193,24.036,98.542,24.036,97.894,24.036z"/>
<path fill-rule="evenodd" clip-rule="evenodd" fill="#303030" d="M42.15,25.708c0.038-0.459,1.914-0.459,1.952,0
	C43.451,25.708,42.801,25.708,42.15,25.708z"/>
<path fill-rule="evenodd" clip-rule="evenodd" fill="#303030" d="M98.45,26.823c-0.126-0.455,1.519-0.455,1.395,0
	C99.38,26.823,98.915,26.823,98.45,26.823z"/>
<path fill-rule="evenodd" clip-rule="evenodd" fill="#707070" d="M43.266,28.495c-0.918-0.319,1.99-0.56,1.951,0
	C44.566,28.495,43.916,28.495,43.266,28.495z"/>
<path fill-rule="evenodd" clip-rule="evenodd" fill="#707070" d="M78.384,30.725c-0.126-0.455,1.519-0.455,1.393,0
	C79.312,30.725,78.847,30.725,78.384,30.725z"/>
<path fill-rule="evenodd" clip-rule="evenodd" fill="#707070" d="M87.582,31.004c-0.741-0.188-1.421-0.438-1.951-0.836
	c1.43-0.148,0.526-2.63,2.508-2.229C88.902,28.976,87.562,29.834,87.582,31.004z"/>
<path fill-rule="evenodd" clip-rule="evenodd" fill="#707070" d="M84.793,32.676c0.509,0.421,1.563,0.296,1.951,0.836
	c-0.879,0.422-0.928,1.673-1.393,2.508c-0.366-0.284-1.027-0.273-1.394-0.557C84.027,34.327,84.995,34.086,84.793,32.676z"/>
<path fill-rule="evenodd" clip-rule="evenodd" fill="#303030" d="M59.709,34.627c0-0.464,0-0.929,0-1.393
	C60.165,33.108,60.165,34.752,59.709,34.627z"/>
<path fill-rule="evenodd" clip-rule="evenodd" fill="#707070" d="M56.922,33.512c0.325,0.047,0.303,0.44,0.279,0.836
	c-0.464,0-0.929,0-1.394,0c0-0.092,0-0.186,0-0.278c0.371,0,0.744,0,1.115,0C56.922,33.883,56.922,33.698,56.922,33.512z"/>
<path fill-rule="evenodd" clip-rule="evenodd" fill="#707070" d="M69.743,36.3c-0.16,0.49,0.337,1.637-0.278,1.672
	C69.625,37.481,69.128,36.334,69.743,36.3z"/>
<path fill-rule="evenodd" clip-rule="evenodd" fill="#707070" d="M72.252,37.692c-0.16,0.49,0.336,1.638-0.278,1.673
	C72.134,38.875,71.637,37.728,72.252,37.692z"/>
<path fill-rule="evenodd" clip-rule="evenodd" fill="#707070" d="M49.954,39.644c-0.445-0.391-0.711-0.96-0.835-1.671
	c0.717-0.583,1.924-0.677,2.229-1.672c0.237-0.052,0.263,0.108,0.278,0.278c-0.079,0.849,0.893,1.084,0.279,1.672
	C51.151,38.61,50.184,38.758,49.954,39.644z"/>
<path fill-rule="evenodd" clip-rule="evenodd" fill="#303030" d="M50.234,42.988c0-0.65,0-1.3,0-1.951
	C50.692,41.075,50.692,42.95,50.234,42.988z"/>
<path fill-rule="evenodd" clip-rule="evenodd" fill="#A9A9A9" d="M0.344,44.66c0,0.651,0,1.302,0,1.951
	C-0.115,46.573-0.115,44.698,0.344,44.66z"/>
<path fill-rule="evenodd" clip-rule="evenodd" fill="#707070" d="M47.167,64.449c0,0.65,0,1.301,0,1.951
	C46.709,66.362,46.709,64.487,47.167,64.449z"/>
<path fill-rule="evenodd" clip-rule="evenodd" fill="#DADADA" d="M133.289,0.346c0.211-0.461,2.298-0.461,2.509,0
	C134.962,0.346,134.125,0.346,133.289,0.346z"/>
<path fill-rule="evenodd" clip-rule="evenodd" fill="#DADADA" d="M77.269,28.217c0.57-0.462,3.051-0.462,3.624,0
	C79.685,28.217,78.477,28.217,77.269,28.217z"/>
<path fill-rule="evenodd" clip-rule="evenodd" fill="#707070" d="M99.564,13.445c0.488-0.441,1.486-0.373,2.229-0.558
	c-0.194,1.4,1.356,3.098-0.557,3.066c-1.082-0.126-0.493-1.921-1.114-2.508C99.937,13.445,99.75,13.445,99.564,13.445z"/>
<path fill-rule="evenodd" clip-rule="evenodd" fill="#A9A9A9" d="M52.184,36.578c0.836,0,1.672,0,2.508,0c0,0.093,0,0.186,0,0.278
	C53.937,36.684,52.481,37.21,52.184,36.578z"/>
<path fill-rule="evenodd" clip-rule="evenodd" fill="#707070" d="M47.446,40.759c-1.124,0.177-1.407,1.194-2.788,1.115
	c0.079-0.45-0.263-0.48-0.278-0.836c0.256-1.045,1.462-1.139,2.23-1.672C47.1,39.619,47.12,40.342,47.446,40.759z"/>
<path fill-rule="evenodd" clip-rule="evenodd" fill="#707070" d="M37.691,52.465c1.115,0,2.229,0,3.345,0
	C40.555,52.928,38.172,52.928,37.691,52.465z"/>
<path fill-rule="evenodd" clip-rule="evenodd" fill="#707070" d="M103.745,30.167c0.56,0,1.116,0,1.673,0
	C105.464,30.625,103.701,30.625,103.745,30.167z"/>
<path fill-rule="evenodd" clip-rule="evenodd" fill="#303030" d="M47.446,41.038c0.458-0.046,0.458,1.717,0,1.672
	C47.446,42.152,47.446,41.595,47.446,41.038z"/>
</svg>
