<?xml version="1.0" encoding="utf-8"?>
<!-- Generator: Adobe Illustrator 15.0.0, SVG Export Plug-In  -->
<!DOCTYPE svg PUBLIC "-//W3C//DTD SVG 1.1//EN" "http://www.w3.org/Graphics/SVG/1.1/DTD/svg11.dtd" [
	<!ENTITY ns_flows "http://ns.adobe.com/Flows/1.0/">
]>
<svg version="1.1"
	 xmlns="http://www.w3.org/2000/svg" xmlns:xlink="http://www.w3.org/1999/xlink" xmlns:a="http://ns.adobe.com/AdobeSVGViewerExtensions/3.0/"
	 x="0px" y="0px" width="142px" height="142px" viewBox="-36.269 -2.284 142 142" enable-background="new -36.269 -2.284 142 142"
	 xml:space="preserve">
<defs>
</defs>
<path fill-rule="evenodd" clip-rule="evenodd" fill="#D1D1D1" d="M41.77,2.855c0.038-0.458,1.913-0.458,1.951,0
	C43.07,2.855,42.42,2.855,41.77,2.855z"/>
<path fill-rule="evenodd" clip-rule="evenodd" fill="#727272" d="M23.654,8.43c0.756-0.173,0.694-1.165,1.672-1.115
	c0.719,0.953,1.556,1.789,2.508,2.508c0.093,0,0.186,0,0.278,0c-0.015,0.17-0.041,0.33-0.278,0.279
	c-0.491,0.251-0.863,0.623-1.114,1.115c-0.016,0.17-0.042,0.33-0.28,0.278c-0.251-0.491-0.623-0.863-1.114-1.115
	c-0.44-0.675-0.997-1.232-1.672-1.672C23.654,8.615,23.654,8.522,23.654,8.43z"/>
<path fill-rule="evenodd" clip-rule="evenodd" fill="#727272" d="M29.786,12.053c-0.052-0.237,0.109-0.263,0.278-0.278
	c0,0.092,0,0.185,0,0.278c0.63,1.228,2.109,1.608,2.508,3.066c-0.491,0.252-0.863,0.624-1.115,1.115
	c-1.046-0.813-1.975-1.742-2.787-2.787C28.859,12.799,29.597,12.7,29.786,12.053z"/>
<path fill-rule="evenodd" clip-rule="evenodd" fill="#313131" d="M15.85,23.759c0,0.836,0,1.672,0,2.509c-0.093,0-0.186,0-0.279,0
	C15.744,25.511,15.217,24.055,15.85,23.759z"/>
<path fill-rule="evenodd" clip-rule="evenodd" fill="#A2A2A2" d="M62.673,24.038c0.378,0.086,0.232,0.698,0.278,1.115
	c-0.092,0-0.187,0-0.278,0C62.673,24.781,62.673,24.409,62.673,24.038z"/>
<path fill-rule="evenodd" clip-rule="evenodd" fill="#313131" d="M65.459,26.268c0-0.093,0-0.187,0-0.279
	c0.848,0.175,2.402-0.357,2.787,0.279C67.319,26.268,66.389,26.268,65.459,26.268z"/>
<path fill-rule="evenodd" clip-rule="evenodd" fill="#313131" d="M60.165,26.268c0,0.464,0,0.928,0,1.393
	C59.71,27.786,59.71,26.141,60.165,26.268z"/>
<path fill-rule="evenodd" clip-rule="evenodd" fill="#A2A2A2" d="M62.673,27.661c0.152-0.405-0.325-1.44,0.278-1.393
	c0,0.464,0,0.928,0,1.393C62.86,27.661,62.765,27.661,62.673,27.661z"/>
<path fill-rule="evenodd" clip-rule="evenodd" fill="#727272" d="M65.459,26.268c0.93,0,1.859,0,2.787,0c0,0.371,0,0.743,0,1.114
	c-0.945,0.076-2.258-0.216-2.787,0.279C65.459,27.196,65.459,26.732,65.459,26.268z"/>
<path fill-rule="evenodd" clip-rule="evenodd" fill="#313131" d="M62.673,27.661c0.092,0,0.187,0,0.278,0c0,0.743,0,1.486,0,2.229
	c-0.092,0-0.187,0-0.278,0C62.673,29.147,62.673,28.403,62.673,27.661z"/>
<path fill-rule="evenodd" clip-rule="evenodd" fill="#727272" d="M62.673,29.89c0.092,0,0.187,0,0.278,0c0,0.372,0,0.743,0,1.115
	c-0.092,0-0.187,0-0.278,0C62.673,30.633,62.673,30.262,62.673,29.89z"/>
<path fill-rule="evenodd" clip-rule="evenodd" fill="#313131" d="M62.673,31.005c0.092,0,0.187,0,0.278,0c0,0.557,0,1.114,0,1.672
	C62.336,32.643,62.833,31.495,62.673,31.005z"/>
<path fill-rule="evenodd" clip-rule="evenodd" fill="#313131" d="M69.363,48.007c0.452-0.2,0.452,1.314,0,1.114
	C69.363,48.75,69.363,48.378,69.363,48.007z"/>
<path fill-rule="evenodd" clip-rule="evenodd" fill="#727272" d="M41.77,68.91c0.823,0.385,1.13,1.288,1.951,1.672
	c-0.253,0.491-0.623,0.862-1.114,1.115c-0.068-0.397-0.461-0.471-0.559-0.837c-0.251-0.49-0.623-0.862-1.114-1.114
	C41.09,69.345,41.369,69.066,41.77,68.91z"/>
<path fill-rule="evenodd" clip-rule="evenodd" fill="#727272" d="M44.836,73.648c0.066-0.397,0.459-0.471,0.558-0.837
	c0.092,0,0.186,0,0.278,0c0.675,0.439,1.232,0.997,1.673,1.672c0,0.094,0,0.187,0,0.279c-0.313,0.059-0.435,0.31-0.56,0.558
	c-0.092,0-0.184,0-0.278,0C45.833,74.881,45.276,74.323,44.836,73.648z"/>
<path fill-rule="evenodd" clip-rule="evenodd" fill="#727272" d="M29.786,8.15c1.184-1.417,2.485-2.717,3.902-3.901
	C32.503,5.666,31.203,6.967,29.786,8.15z"/>
<path fill-rule="evenodd" clip-rule="evenodd" fill="#313131" d="M28.113,9.823c0.44-0.675,0.998-1.232,1.673-1.672
	C29.346,8.826,28.788,9.383,28.113,9.823z"/>
<path fill-rule="evenodd" clip-rule="evenodd" fill="#313131" d="M23.654,8.43c1.163-1.789,1.566-1.522,3.066,0
	c0.514,0.523,0.943,1.144,1.114,1.393c-0.953-0.719-1.789-1.555-2.508-2.508C24.348,7.265,24.41,8.256,23.654,8.43z"/>
<path fill-rule="evenodd" clip-rule="evenodd" fill="#313131" d="M23.654,8.708c0.675,0.439,1.232,0.997,1.672,1.672
	C24.651,9.94,24.094,9.383,23.654,8.708z"/>
<path fill-rule="evenodd" clip-rule="evenodd" fill="#313131" d="M23.096,14.84c0.999-1.231,2.113-2.346,3.344-3.345
	c-0.052,0.226-0.279,0.278-0.278,0.558C24.974,12.815,24.285,14.077,23.096,14.84z"/>
<path fill-rule="evenodd" clip-rule="evenodd" fill="#D1D1D1" d="M21.424,16.791c0.491-0.717,1.105-1.31,1.672-1.951
	c1.188-0.763,1.878-2.024,3.066-2.787C24.699,13.749,23.12,15.328,21.424,16.791z"/>
<path fill-rule="evenodd" clip-rule="evenodd" fill="#A2A2A2" d="M18.916,19.299c0.719-0.953,1.555-1.789,2.508-2.508
	C20.705,17.744,19.869,18.58,18.916,19.299z"/>
<path fill-rule="evenodd" clip-rule="evenodd" fill="#D1D1D1" d="M16.965,21.25c0.272-1.028,1.264-1.337,1.951-1.952
	C18.383,20.067,17.732,20.717,16.965,21.25z"/>
<path fill-rule="evenodd" clip-rule="evenodd" fill="#A2A2A2" d="M12.227,32.12c0.719-0.953,1.555-1.789,2.508-2.508
	C14.016,30.564,13.18,31.4,12.227,32.12z"/>
<path fill-rule="evenodd" clip-rule="evenodd" fill="#313131" d="M10.275,33.792c0.346-0.583,0.811-1.047,1.394-1.393
	C11.323,32.982,10.859,33.447,10.275,33.792z"/>
<path fill-rule="evenodd" clip-rule="evenodd" fill="#727272" d="M8.046,59.434c0.572,0.451,0.703,1.341,1.115,1.951
	c-0.853-0.58-1.644,0.828-2.788,0.836c-0.119-0.531-0.6-0.7-0.558-1.393C6.672,60.476,7.809,60.405,8.046,59.434z"/>
<path fill-rule="evenodd" clip-rule="evenodd" fill="#313131" d="M49.575,70.582c0.912-0.48,1.316-1.47,2.229-1.951
	c-2.22,1.855-1.833,2.49,0.558,5.017c2.38,2.519,5.724,5.725,7.803,7.804c1.484,1.483,3.504,3.504,5.295,5.296
	c2.286,2.284,5.876,4.179,4.46,8.361c-0.451,1.334-1.923,3.005-2.787,4.459c-0.194,0.328-0.05,0.318-0.278,0.557
	c-0.216,0.227-1.046,1.654-1.395,2.23c-0.254,0.422-0.404,0.943-0.835,1.394c-0.196,0.205-1.025,1.66-1.395,2.229
	c-0.741,1.146-1.45,2.253-2.229,3.623c-0.655,1.154-0.968,2.319-1.949,3.345c-0.267,0.276-0.729,1.588-1.116,2.229
	c-0.215,0.355-0.623,0.459-0.835,0.837c-0.205,0.359-0.064,0.751-0.279,1.114c-0.067,0.112-0.515,0.183-0.559,0.279
	c-0.19,0.424-0.215,0.834-0.557,1.393c-0.77,1.257-1.869,2.318-2.23,3.345c-0.389,1.108-0.236,2.696-0.557,3.345
	c-0.699,1.421-2.153,1.942-3.622,3.065c-0.549,1.342-1.543,2.948-2.511,4.46c-1.252,1.96-2.213,3.849-5.016,4.181
	c-0.529,0.063-1.185-0.222-1.952-0.279c-0.963-0.072-2.091,0.138-2.508,0c-1.274-0.422-1.745-1.645-3.065-2.509
	c-5.861-0.623-13.042-0.862-19.509-1.393c-1.467-0.12-2.596-0.427-3.902,0.279c-1.631,0.879-2.583,3.266-6.131,2.786
	c-4.099-0.554-5.597-5.015-4.181-8.082c0.077-0.168,0.14-0.64,0.278-0.837c0.829-1.186,3.332-1.729,4.738-2.508
	c1.791-0.993,3.958-3.324,6.41-5.575c0.947-0.869,1.995-1.802,3.066-2.786c0.992-0.912,2.238-1.829,3.065-2.787
	c0.572-0.662,0.902-1.595,1.394-2.229c0.17-0.221,0.379-0.289,0.558-0.558c0.399-0.603,1.29-1.692,1.951-2.509
	c0.383-0.472,0.591-1.109,1.115-1.672c0.113-0.121,0.464-0.154,0.558-0.279c0.841-1.118,1.918-2.807,3.066-4.18
	c0.393-0.472,0.588-1.107,1.114-1.672c1.507-1.62,3.253-3.278,1.672-5.854c-0.217-0.353-0.939-0.726-1.115-1.113
	c-0.064-0.143,0.085-0.432,0-0.559c-0.069-0.102-0.517-0.188-0.558-0.278c-0.064-0.144,0.085-0.43,0-0.558
	c-0.069-0.104-0.517-0.188-0.558-0.278c-0.292-0.646-0.93-1.598-0.836-3.066c1.41,0.202,2.109-0.307,2.788-0.837
	c-0.412,3.665,5.143,5.822,3.624,10.313c-0.427,1.262-1.833,2.854-3.066,4.459c-1.869,2.433-3.81,5.003-5.854,7.524
	c-0.382,0.473-0.591,1.111-1.114,1.673c-0.114,0.122-0.462,0.153-0.558,0.278c-0.191,0.251-0.074,0.617-0.279,0.837
	c-0.114,0.122-0.461,0.152-0.558,0.278c-0.534,0.7-0.882,1.639-1.393,2.229c-0.644,0.746-1.647,1.57-2.508,2.23
	c-1.978,1.514-4.173,4.163-6.411,5.853c-1.191,0.9-2.549,2.566-3.901,3.345c-1.649,0.948-4.021,1.121-4.459,2.509
	c-0.678,2.149,0.818,3.704,2.229,3.902c1.869,0.261,2.704-1.21,4.459-2.229c3.044-1.77,9.02-0.693,14.214-0.28
	c4.012,0.321,8.169,0.382,10.87,0.837c1.443,0.242,2.826,2.444,4.181,2.786c1.044,0.265,2.109-0.19,3.344,0
	c1.374-0.94,2.174-2.447,3.067-3.901c0.671-1.094,1.224-1.981,1.951-3.066c0.812-1.211,1.853-2.169,3.344-3.064
	c-0.091-2.831,1.496-4.577,2.786-6.689c0.36-0.589,0.501-1.382,0.838-1.95c0.065-0.114,0.513-0.184,0.557-0.28
	c1.735-3.852,4.576-7.886,6.968-11.705c0.327-0.524,0.779-1.109,1.114-1.672c0.353-0.594,0.499-1.387,0.835-1.952
	c0.068-0.111,0.515-0.183,0.56-0.278c0.384-0.854,1.081-2.108,1.671-3.066c0.905-1.468,1.763-2.563,1.673-3.623
	c-0.129-1.52-3.386-4.223-4.738-5.574c-3.769-3.768-6.77-6.771-10.312-10.312c-1.726-1.726-3.7-3.227-4.738-5.574
	C48.439,71.491,48.994,71.023,49.575,70.582z"/>
<path fill-rule="evenodd" clip-rule="evenodd" fill="#D1D1D1" d="M49.575,70.582c0.72-0.953,1.555-1.789,2.509-2.508
	c-0.055,0.226-0.281,0.278-0.279,0.558C50.891,69.112,50.487,70.102,49.575,70.582z"/>
<path fill-rule="evenodd" clip-rule="evenodd" fill="#A2A2A2" d="M52.083,68.074c0.532-0.768,1.182-1.417,1.951-1.951
	C53.5,66.891,52.85,67.541,52.083,68.074z"/>
<path fill-rule="evenodd" clip-rule="evenodd" fill="#727272" d="M54.035,66.123c0.625-0.86,1.368-1.604,2.228-2.229
	C55.637,64.753,54.894,65.497,54.035,66.123z"/>
<path fill-rule="evenodd" clip-rule="evenodd" fill="#313131" d="M56.262,63.894c0.48-0.914,1.473-1.317,1.951-2.23
	c0.733-0.289,0.939-1.105,1.673-1.394C58.794,61.594,57.586,62.802,56.262,63.894z"/>
<path fill-rule="evenodd" clip-rule="evenodd" fill="#D1D1D1" d="M58.213,61.664c0.72-0.953,1.557-1.79,2.509-2.509
	c-0.082,0.568-0.754,0.547-0.836,1.115C59.153,60.558,58.947,61.375,58.213,61.664z"/>
<path fill-rule="evenodd" clip-rule="evenodd" fill="#A2A2A2" d="M60.722,59.155c0.532-0.768,1.184-1.418,1.951-1.951
	C62.14,57.972,61.491,58.622,60.722,59.155z"/>
<path fill-rule="evenodd" clip-rule="evenodd" fill="#727272" d="M62.673,57.204c1.835-2.067,3.786-4.019,5.854-5.853
	C66.692,53.418,64.741,55.369,62.673,57.204z"/>
<path fill-rule="evenodd" clip-rule="evenodd" fill="#313131" d="M65.459,27.661c0.529-0.495,1.842-0.203,2.787-0.279
	c-0.295,0.632-1.751,0.106-2.508,0.279c0,1.579,0,3.159,0,4.738c-0.093,0-0.185,0-0.279,0C65.459,30.819,65.459,29.24,65.459,27.661
	z"/>
<path fill-rule="evenodd" clip-rule="evenodd" fill="#A2A2A2" d="M61.279,18.185c1.048,0.812,1.976,1.741,2.789,2.787
	C63.022,20.159,62.092,19.23,61.279,18.185z"/>
<path fill-rule="evenodd" clip-rule="evenodd" fill="#D1D1D1" d="M57.1,13.725c1.25,1.63,2.935,2.824,4.179,4.459
	c-0.859-0.626-1.603-1.37-2.228-2.229C58.318,15.294,57.37,14.848,57.1,13.725z"/>
<path fill-rule="evenodd" clip-rule="evenodd" fill="#313131" d="M54.313,7.036c-0.823-0.385-1.13-1.287-1.951-1.672
	c-0.101-0.366-0.491-0.438-0.558-0.836C52.756,5.247,53.591,6.083,54.313,7.036z"/>
<path fill-rule="evenodd" clip-rule="evenodd" fill="#727272" d="M50.689,3.413c0.49,0.252,0.863,0.624,1.115,1.115
	C51.312,4.276,50.941,3.904,50.689,3.413z"/>
<path fill-rule="evenodd" clip-rule="evenodd" fill="#D1D1D1" d="M52.362,5.364c0.821,0.385,1.128,1.287,1.951,1.672
	c0.188,0.647,0.926,0.747,1.114,1.394C54.289,7.524,53.267,6.502,52.362,5.364z"/>
<path fill-rule="evenodd" clip-rule="evenodd" fill="#A2A2A2" d="M44.556,73.648c0.347-0.584,0.812-1.048,1.395-1.395
	c-0.054,0.226-0.28,0.278-0.278,0.558c-0.093,0-0.187,0-0.278,0c-0.099,0.366-0.491,0.439-0.558,0.837
	C44.743,73.648,44.651,73.648,44.556,73.648z"/>
<path fill-rule="evenodd" clip-rule="evenodd" fill="#727272" d="M43.443,74.763c0.252-0.491,0.623-0.863,1.113-1.114
	C44.306,74.14,43.933,74.511,43.443,74.763z"/>
<path fill-rule="evenodd" clip-rule="evenodd" fill="#A2A2A2" d="M37.869,78.943c0.251-0.491,0.623-0.863,1.114-1.115
	C38.73,78.319,38.36,78.692,37.869,78.943z"/>
<path fill-rule="evenodd" clip-rule="evenodd" fill="#727272" d="M33.966,82.845c1.185-1.416,2.485-2.717,3.903-3.901
	C36.684,80.36,35.383,81.661,33.966,82.845z"/>
<path fill-rule="evenodd" clip-rule="evenodd" fill="#A2A2A2" d="M29.228,87.861c0.626-0.859,1.37-1.603,2.229-2.229
	C30.832,86.493,30.088,87.236,29.228,87.861z"/>
<path fill-rule="evenodd" clip-rule="evenodd" fill="#D1D1D1" d="M10.275,33.792c0.583-0.345,1.047-0.81,1.394-1.393
	c0.226-0.053,0.277-0.28,0.558-0.279c-0.534,0.768-1.184,1.418-1.952,1.952C10.275,33.978,10.275,33.885,10.275,33.792z"/>
<path fill-rule="evenodd" clip-rule="evenodd" fill="#A2A2A2" d="M26.72,11.217c0.251-0.492,0.623-0.863,1.114-1.115
	C27.583,10.593,27.211,10.965,26.72,11.217z"/>
<path fill-rule="evenodd" clip-rule="evenodd" fill="#D1D1D1" d="M31.458,10.102c1.185-1.417,2.485-2.718,3.902-3.902
	c-0.288,0.733-1.105,0.938-1.394,1.672C32.961,8.447,32.462,9.527,31.458,10.102z"/>
<path fill-rule="evenodd" clip-rule="evenodd" fill="#313131" d="M30.064,11.774c0.288-0.734,1.105-0.939,1.394-1.672
	c1.005-0.575,1.504-1.655,2.508-2.23C32.782,9.289,31.481,10.59,30.064,11.774z"/>
<path fill-rule="evenodd" clip-rule="evenodd" fill="#A2A2A2" d="M28.392,13.446c0.346-0.583,0.81-1.047,1.394-1.394
	c-0.189,0.647-0.926,0.746-1.115,1.394C28.578,13.446,28.485,13.446,28.392,13.446z"/>
<path fill-rule="evenodd" clip-rule="evenodd" fill="#727272" d="M22.26,19.578c1.742-1.975,3.6-3.833,5.574-5.574
	C26.092,15.979,24.235,17.836,22.26,19.578z"/>
<path fill-rule="evenodd" clip-rule="evenodd" fill="#727272" d="M18.637,23.201c0.999-1.231,2.114-2.346,3.345-3.345
	C20.983,21.088,19.868,22.203,18.637,23.201z"/>
<path fill-rule="evenodd" clip-rule="evenodd" fill="#A2A2A2" d="M14.178,33.792c0.719-0.953,1.555-1.789,2.509-2.508
	C15.967,32.237,15.131,33.073,14.178,33.792z"/>
<path fill-rule="evenodd" clip-rule="evenodd" fill="#727272" d="M12.227,35.744c0.533-0.768,1.183-1.418,1.951-1.952
	C13.645,34.56,12.994,35.21,12.227,35.744z"/>
<path fill-rule="evenodd" clip-rule="evenodd" fill="#A2A2A2" d="M27.556,85.911c0.533-0.768,1.183-1.418,1.951-1.951
	C28.974,84.728,28.324,85.378,27.556,85.911z"/>
<path fill-rule="evenodd" clip-rule="evenodd" fill="#313131" d="M31.179,82.01c-0.44,0.675-0.997,1.232-1.672,1.672
	c0.75-0.492-0.527-1.505-1.115-2.229c-0.533-0.657-0.808-1.775-1.672-1.672c-1.236,0.157-1.884,0.902-3.345,0.836
	c-0.093,0-0.186,0-0.279,0c-0.539-1.134-1.32-2.025-1.951-3.066c2.105,1.38,4.283-0.913,6.411-0.558
	c2.345,0.394,2.572,2.663,4.18,4.181C31.638,81.539,31.246,81.612,31.179,82.01z"/>
<path fill-rule="evenodd" clip-rule="evenodd" fill="#A2A2A2" d="M31.179,82.01c0.066-0.397,0.458-0.471,0.557-0.837
	c0.366-0.099,0.438-0.49,0.836-0.557C32.227,81.198,31.762,81.663,31.179,82.01z"/>
<path fill-rule="evenodd" clip-rule="evenodd" fill="#D1D1D1" d="M32.572,80.616c0.813-1.047,1.742-1.976,2.787-2.788
	C34.547,78.874,33.618,79.803,32.572,80.616z"/>
<path fill-rule="evenodd" clip-rule="evenodd" fill="#A2A2A2" d="M35.359,77.828c0.533-0.767,1.184-1.418,1.951-1.95
	C36.778,76.646,36.127,77.296,35.359,77.828z"/>
<path fill-rule="evenodd" clip-rule="evenodd" fill="#D1D1D1" d="M41.212,73.091c0.417-0.512,1.164-0.694,1.395-1.394
	c0.491-0.253,0.861-0.624,1.114-1.115c0.092,0,0.186,0,0.278,0C43.148,71.497,42.527,72.64,41.212,73.091z"/>
<path fill-rule="evenodd" clip-rule="evenodd" fill="#727272" d="M47.902,68.631c0.72-0.954,1.555-1.79,2.509-2.509
	C49.691,67.076,48.854,67.912,47.902,68.631z"/>
<path fill-rule="evenodd" clip-rule="evenodd" fill="#A2A2A2" d="M50.411,66.123c0.438-0.675,0.995-1.232,1.673-1.672
	C51.642,65.125,51.085,65.683,50.411,66.123z"/>
<path fill-rule="evenodd" clip-rule="evenodd" fill="#D1D1D1" d="M52.083,64.45c0.188-0.647,0.925-0.746,1.113-1.393
	c0.647-0.189,0.747-0.927,1.395-1.115C53.873,62.895,53.035,63.731,52.083,64.45z"/>
<path fill-rule="evenodd" clip-rule="evenodd" fill="#313131" d="M53.197,63.057c0.906-1.139,1.928-2.161,3.065-3.066
	c-0.385,0.822-1.286,1.128-1.671,1.951C53.944,62.13,53.844,62.868,53.197,63.057z"/>
<path fill-rule="evenodd" clip-rule="evenodd" fill="#727272" d="M56.262,59.991c0.719-0.953,1.557-1.789,2.508-2.509
	C58.051,58.436,57.216,59.272,56.262,59.991z"/>
<path fill-rule="evenodd" clip-rule="evenodd" fill="#A2A2A2" d="M58.77,57.482c0.628-0.86,1.371-1.603,2.23-2.23
	C60.375,56.114,59.632,56.857,58.77,57.482z"/>
<path fill-rule="evenodd" clip-rule="evenodd" fill="#D1D1D1" d="M61,55.252c0.082-0.568,0.755-0.546,0.837-1.114
	c1.046-0.813,1.974-1.741,2.787-2.787c0.979-0.321,1.02-1.58,1.951-1.951c-0.579,1.188-1.606,2.164-2.508,3.065
	C63.089,53.443,62.044,54.317,61,55.252z"/>
<path fill-rule="evenodd" clip-rule="evenodd" fill="#A2A2A2" d="M56.542,17.07c1.974,1.741,3.831,3.6,5.573,5.574
	C60.141,20.902,58.284,19.044,56.542,17.07z"/>
<path fill-rule="evenodd" clip-rule="evenodd" fill="#727272" d="M55.148,15.676c0.583,0.346,1.048,0.811,1.395,1.394
	C55.959,16.724,55.495,16.259,55.148,15.676z"/>
<path fill-rule="evenodd" clip-rule="evenodd" fill="#727272" d="M50.689,7.314c1.046,0.813,1.976,1.742,2.786,2.788
	C52.43,9.29,51.502,8.36,50.689,7.314z"/>
<path fill-rule="evenodd" clip-rule="evenodd" fill="#D1D1D1" d="M50.131,6.479c-0.583-0.346-1.047-0.811-1.394-1.394
	C49.321,5.431,49.786,5.896,50.131,6.479z"/>
<path fill-rule="evenodd" clip-rule="evenodd" fill="#313131" d="M48.18,4.807c0.227,0.053,0.278,0.279,0.558,0.278
	c0.347,0.583,0.811,1.048,1.394,1.394c0.099,0.366,0.491,0.438,0.558,0.835C49.735,6.596,48.9,5.76,48.18,4.807z"/>
<path fill-rule="evenodd" clip-rule="evenodd" fill="#727272" d="M62.673,25.152c0.092,0,0.187,0,0.278,0c0,0.372,0,0.743,0,1.115
	c-0.604-0.047-0.126,0.988-0.278,1.393c-0.836,0-1.673,0-2.509,0c0-0.465,0-0.929,0-1.393c0.836,0,1.673,0,2.509,0
	C62.673,25.896,62.673,25.524,62.673,25.152z"/>
<path fill-rule="evenodd" clip-rule="evenodd" fill="#313131" d="M61.837,54.138c0.812-1.046,1.741-1.975,2.787-2.787
	C63.811,52.397,62.883,53.326,61.837,54.138z"/>
<path fill-rule="evenodd" clip-rule="evenodd" fill="#313131" d="M41.77,68.91c0.48-0.371,1.47,1.119,1.951,1.672
	C42.9,70.197,42.593,69.295,41.77,68.91z"/>
<path fill-rule="evenodd" clip-rule="evenodd" fill="#313131" d="M40.934,69.746c0.491,0.252,0.863,0.624,1.114,1.114
	C41.557,70.609,41.187,70.237,40.934,69.746z"/>
<path fill-rule="evenodd" clip-rule="evenodd" fill="#313131" d="M31.458,16.233c0.252-0.491,0.624-0.863,1.115-1.115
	c-0.399-1.458-1.878-1.838-2.508-3.066c1.006,0.946,2.245,1.657,2.788,3.066C32.204,15.307,32.105,16.045,31.458,16.233z"/>
<path fill-rule="evenodd" clip-rule="evenodd" fill="#313131" d="M46.507,75.32c0.095,0,0.187,0,0.278,0
	c0.125-0.248,0.247-0.499,0.56-0.558c0-0.093,0-0.186,0-0.279C48.026,74.484,46.509,76.002,46.507,75.32z"/>
<path fill-rule="evenodd" clip-rule="evenodd" fill="#727272" d="M15.571,27.661c0-0.465,0-0.929,0-1.393c0.093,0,0.186,0,0.279,0
	C15.697,26.672,16.176,27.708,15.571,27.661z"/>
<path fill-rule="evenodd" clip-rule="evenodd" fill="#727272" d="M65.739,32.399c0,0.464,0,0.929,0,1.393
	c-0.604,0.047-0.127-0.988-0.279-1.393C65.554,32.399,65.646,32.399,65.739,32.399z"/>
<path fill-rule="evenodd" clip-rule="evenodd" fill="#313131" d="M66.576,47.728c0.453-0.2,0.453,1.314,0,1.115
	C66.576,48.471,66.576,48.1,66.576,47.728z"/>
<path fill-rule="evenodd" clip-rule="evenodd" fill="#727272" d="M10.555,58.319c1.084,0.051,2.016-1.498,2.787-0.836
	c1.118,1.618-1.59,1.476-1.951,2.509C10.926,59.62,10.958,58.751,10.555,58.319z"/>
<path fill-rule="evenodd" clip-rule="evenodd" fill="#FFFFFF" d="M33.688,4.249c1.635-1.988,3.643-3.604,6.968-3.902
	c1.393,0,2.787,0,4.181,0c2.661,0.312,4.404,1.542,5.853,3.066c0.252,0.492,0.623,0.863,1.115,1.115
	c0.066,0.398,0.457,0.47,0.558,0.836c0.905,1.139,1.927,2.16,3.065,3.066c1.524,0.799,1.406,3.238,1.673,5.295
	c0.27,1.123,1.218,1.569,1.951,2.23c0.625,0.86,1.368,1.603,2.228,2.229c0.813,1.045,1.743,1.975,2.789,2.787
	c0.677,0.438,1.043,1.186,1.113,2.23c0.171,0.667-0.349,2.022,0.278,2.23c0,0.186,0,0.372,0,0.557c0,0.093,0,0.186,0,0.279
	c0,0.464,0,0.928,0,1.393c0,1.579,0,3.159,0,4.738c0.152,0.405-0.324,1.44,0.279,1.393c0.65,5.296,2.763,9.13,3.624,14.215
	c0,0.371,0,0.743,0,1.114c0,0.372,0,0.744,0,1.115c-0.573,0.077-0.263,1.038-0.836,1.115c-2.067,1.834-4.019,3.786-5.854,5.853
	c-0.768,0.533-1.419,1.183-1.951,1.951c-0.952,0.719-1.789,1.556-2.509,2.509c-0.479,0.913-1.471,1.316-1.951,2.23
	c-0.859,0.625-1.603,1.369-2.228,2.229c-0.77,0.534-1.419,1.184-1.951,1.951c-0.954,0.719-1.789,1.555-2.509,2.508
	c-0.581,0.441-1.136,0.909-1.951,1.115c-0.583,0.16-0.795,0.691-1.673,0.557c-0.583,0.347-1.048,0.811-1.395,1.395
	c-0.49,0.251-0.861,0.623-1.113,1.114c-1.276,1.232-2.903,2.114-4.46,3.065c-0.491,0.252-0.863,0.624-1.114,1.115
	c-1.418,1.185-2.718,2.485-3.903,3.901c-0.853,0.913-1.403,2.128-2.508,2.788c-0.86,0.626-1.603,1.369-2.229,2.229
	c-0.678,0.53-1.378,1.039-2.788,0.837c-1.424-0.258-2.36-1.652-3.065-2.787c-0.132-0.213-0.112-0.59-0.279-0.836
	c-0.3-0.441-0.828-0.699-1.115-1.115c-0.734-1.063-1.542-2.239-2.229-3.344c-0.133-0.213-0.112-0.591-0.279-0.836
	c-0.259-0.383-0.835-0.696-1.115-1.115c-0.333-0.498-0.531-1.199-0.836-1.673c-0.118-0.183-0.454-0.39-0.558-0.557
	c-0.134-0.216-0.111-0.586-0.278-0.837c-0.256-0.382-0.864-0.743-1.115-1.115c-0.182-0.266-0.123-0.583-0.279-0.835
	c-1.028-1.652-2.785-4.042-4.181-5.854c-0.311-1.271,0.048-1.946-0.278-2.787c-0.522-1.243-1.306-2.224-1.672-3.623
	c-0.413-0.61-0.543-1.5-1.115-1.951c-1.101-1.702-1.822-3.52-2.787-5.295c-0.971-1.786-2.301-3.298-2.788-5.574
	c0-0.836,0-1.673,0-2.509c0.349-2.199,3.294-5.48,4.738-7.804c0.236-0.381,0.525-0.893,0.836-1.394
	c0.264-0.424,0.471-0.843,0.836-1.394c0.251-0.378,0.746-1.043,1.394-1.393c0.768-0.534,1.418-1.184,1.952-1.952
	c0.953-0.719,1.789-1.555,2.508-2.508c0.142-0.787,0.674-1.184,0.836-1.951c0.604,0.047,0.126-0.989,0.279-1.393
	c0-0.836,0-1.673,0-2.509c0.006-1.202,0.271-2.145,1.115-2.508c0.768-0.534,1.418-1.184,1.951-1.952
	c0.953-0.719,1.789-1.555,2.508-2.508c1.696-1.463,3.275-3.042,4.738-4.738c-0.001-0.279,0.226-0.332,0.278-0.558
	c0.237,0.051,0.264-0.108,0.28-0.278c0.491-0.252,0.862-0.624,1.114-1.115c0.237,0.051,0.263-0.109,0.278-0.279
	c0.675-0.439,1.233-0.997,1.673-1.672C31.203,6.967,32.503,5.666,33.688,4.249z M41.77,2.855c-2.783,0.468-4.697,1.807-6.411,3.345
	c-1.417,1.185-2.717,2.485-3.902,3.902c-0.288,0.733-1.105,0.938-1.394,1.672c-0.169,0.016-0.33,0.042-0.278,0.278
	c-0.583,0.346-1.048,0.811-1.394,1.394c-0.059,0.313-0.31,0.434-0.558,0.558c-1.975,1.742-3.832,3.6-5.574,5.574
	c-0.016,0.17-0.042,0.33-0.279,0.278c-1.231,0.999-2.346,2.114-3.345,3.345c0,0.093,0,0.186,0,0.278
	c-0.638,0.478-0.102,2.128-0.278,3.066c0.184,2.32-0.512,3.762-1.672,4.738c-0.954,0.719-1.79,1.555-2.509,2.508
	c-0.768,0.534-1.418,1.184-1.951,1.952c-0.208,0.375-0.351,0.843-0.558,1.114c-0.58,0.757-1.557,1.875-1.951,2.509
	c-0.157,0.252-0.097,0.568-0.279,0.836c-0.26,0.384-0.859,0.734-1.115,1.115c-0.167,0.25-0.145,0.621-0.279,0.836
	c-0.807,1.299-3.018,3.821-3.066,5.017c-0.03,0.761,0.646,2.151,1.115,3.066c0.451,0.879,1.235,1.712,1.672,2.508
	c0.528,0.96,0.9,1.883,1.394,2.788c0.499,0.914,1.095,1.767,1.394,2.787c0.403,0.433,0.372,1.301,0.836,1.672
	c0.875,1.448,1.819,2.826,2.229,4.738c0.166,0.577-0.344,1.831,0.279,1.951c2.508,3.531,4.924,7.154,7.246,10.87
	c0.631,1.041,1.412,1.933,1.951,3.066c0.093,0,0.186,0,0.279,0c0.063,0.374,0.394,0.572,0.557,0.836
	c0.157,0.252,0.098,0.568,0.279,0.836c0.276,0.408,0.808,0.667,1.115,1.115c0.166,0.243,0.147,0.624,0.278,0.836
	c0.463,0.743,0.943,1.785,1.952,1.672c0.768-0.533,1.417-1.184,1.951-1.951c0-0.092,0-0.186,0-0.278
	c0.675-0.439,1.232-0.997,1.672-1.672c0.583-0.347,1.048-0.812,1.393-1.394c1.046-0.813,1.975-1.742,2.787-2.788
	c0.768-0.532,1.418-1.183,1.951-1.95c1.074-1.157,2.643-1.817,3.902-2.787c1.314-0.451,1.936-1.594,2.787-2.509
	c0.873-1.077,2.5-1.402,3.902-1.951c0.952-0.72,1.789-1.556,2.509-2.509c0.675-0.439,1.231-0.997,1.673-1.672
	c0.951-0.719,1.789-1.555,2.508-2.508c0.385-0.822,1.286-1.128,1.671-1.951c0.954-0.719,1.789-1.555,2.508-2.509
	c0.862-0.625,1.605-1.369,2.23-2.23c1.044-0.935,2.089-1.809,3.067-2.787c0.901-0.901,1.929-1.877,2.508-3.065
	c0-0.186,0-0.372,0-0.558c0.453,0.199,0.453-1.314,0-1.115c-1.356-4.868-3.462-8.988-3.624-15.051c0-0.558,0-1.115,0-1.672
	c0-0.372,0-0.743,0-1.115c0-0.743,0-1.487,0-2.229c0-0.465,0-0.929,0-1.393c0-0.372,0-0.744,0-1.115
	c-0.046-0.417,0.1-1.029-0.278-1.115c-0.12-0.531-0.602-0.701-0.558-1.394c-1.742-1.974-3.6-3.833-5.573-5.574
	c-0.347-0.583-0.812-1.048-1.395-1.394c-1.33-1.084-0.757-4.074-1.673-5.574c-0.811-1.046-1.74-1.975-2.786-2.788
	c-0.066-0.397-0.459-0.47-0.558-0.835c-0.346-0.583-0.811-1.048-1.394-1.394c-0.279,0.001-0.331-0.226-0.558-0.278
	c-1.188-0.95-2.805-1.468-4.459-1.952C43.683,2.396,41.808,2.396,41.77,2.855z"/>
<path fill-rule="evenodd" clip-rule="evenodd" fill="#D1D1D1" d="M65.181,23.201c0.629,0.208,0.108,1.563,0.278,2.23
	C64.833,25.224,65.352,23.868,65.181,23.201z"/>
<path fill-rule="evenodd" clip-rule="evenodd" fill="#A2A2A2" d="M40.656,0.347c0.753-0.462,3.426-0.462,4.181,0
	C43.443,0.347,42.048,0.347,40.656,0.347z"/>
<path fill-rule="evenodd" clip-rule="evenodd" fill="#A2A2A2" d="M2.472,46.056c0,0.836,0,1.672,0,2.509
	C2.011,48.353,2.011,46.267,2.472,46.056z"/>
<path fill-rule="evenodd" clip-rule="evenodd" fill="#313131" d="M18.637,23.479c-0.176,0.939,0.36,2.589-0.278,3.066
	C18.535,25.607,17.999,23.957,18.637,23.479z"/>
<path fill-rule="evenodd" clip-rule="evenodd" fill="#727272" d="M13.62,64.729c0.623,0.12,0.113,1.373,0.279,1.951
	C13.276,66.561,13.786,65.307,13.62,64.729z"/>
</svg>
