<?xml version="1.0" encoding="utf-8"?>
<!-- Generator: Adobe Illustrator 15.0.0, SVG Export Plug-In  -->
<!DOCTYPE svg PUBLIC "-//W3C//DTD SVG 1.1//EN" "http://www.w3.org/Graphics/SVG/1.1/DTD/svg11.dtd" [
	<!ENTITY ns_flows "http://ns.adobe.com/Flows/1.0/">
]>
<svg version="1.1"
	 xmlns="http://www.w3.org/2000/svg" xmlns:xlink="http://www.w3.org/1999/xlink" xmlns:a="http://ns.adobe.com/AdobeSVGViewerExtensions/3.0/"
	 x="0px" y="0px" width="142px" height="142px" viewBox="-35.902 -2.284 142 142" enable-background="new -35.902 -2.284 142 142"
	 xml:space="preserve">
<defs>
</defs>
<path fill-rule="evenodd" clip-rule="evenodd" fill="#D5D5D5" d="M42.137,2.855c0.038-0.458,1.913-0.458,1.951,0
	C43.437,2.855,42.788,2.855,42.137,2.855z"/>
<path fill-rule="evenodd" clip-rule="evenodd" fill="#303030" d="M16.217,23.479c0,0.93,0,1.858,0,2.788c-0.093,0-0.186,0-0.279,0
	C16.113,25.42,15.582,23.866,16.217,23.479z"/>
<path fill-rule="evenodd" clip-rule="evenodd" fill="#303030" d="M18.726,26.546c0.172-0.756-0.354-2.212,0.278-2.508
	C18.832,24.794,19.358,26.25,18.726,26.546z"/>
<path fill-rule="evenodd" clip-rule="evenodd" fill="#A4A4A4" d="M63.041,26.268c0-0.093,0-0.187,0-0.279c0.092,0,0.187,0,0.278,0
	c0,0.464,0,0.929,0,1.394C62.906,27.33,63.064,26.708,63.041,26.268z"/>
<path fill-rule="evenodd" clip-rule="evenodd" fill="#707070" d="M65.827,25.988c0.93,0,1.859,0,2.787,0c0,0.464,0,0.929,0,1.394
	c-0.835,0-1.671,0-2.508,0c-0.093,0-0.185,0-0.279,0C65.827,26.917,65.827,26.453,65.827,25.988z"/>
<path fill-rule="evenodd" clip-rule="evenodd" fill="#303030" d="M65.827,27.382c0.095,0,0.187,0,0.279,0c0,1.672,0,3.345,0,5.017
	c-0.093,0-0.185,0-0.279,0C65.827,30.727,65.827,29.054,65.827,27.382z"/>
<path fill-rule="evenodd" clip-rule="evenodd" fill="#303030" d="M63.041,27.939c0.092,0,0.187,0,0.278,0c0,0.65,0,1.3,0,1.951
	c-0.092,0-0.187,0-0.278,0C63.041,29.24,63.041,28.59,63.041,27.939z"/>
<path fill-rule="evenodd" clip-rule="evenodd" fill="#707070" d="M63.041,29.89c0.092,0,0.187,0,0.278,0c0,0.465,0,0.929,0,1.394
	c-0.092,0-0.187,0-0.278,0C63.041,30.819,63.041,30.355,63.041,29.89z"/>
<path fill-rule="evenodd" clip-rule="evenodd" fill="#303030" d="M63.041,31.284c0.092,0,0.187,0,0.278,0c0,0.465,0,0.929,0,1.394
	C62.715,32.725,63.193,31.689,63.041,31.284z"/>
<path fill-rule="evenodd" clip-rule="evenodd" fill="#303030" d="M69.73,48.007c0.452-0.2,0.452,1.314,0,1.114
	C69.73,48.75,69.73,48.378,69.73,48.007z"/>
<path fill-rule="evenodd" clip-rule="evenodd" fill="#303030" d="M11.479,65.566c0,0.463,0,0.928,0,1.393
	C11.024,67.084,11.024,65.439,11.479,65.566z"/>
<path fill-rule="evenodd" clip-rule="evenodd" fill="#303030" d="M14.266,130.227c0-0.093,0-0.187,0-0.279
	c0.417,0.048,1.028-0.1,1.115,0.279C15.009,130.227,14.638,130.227,14.266,130.227z"/>
<path fill-rule="evenodd" clip-rule="evenodd" fill="#303030" d="M13.987,132.734c0.372,0,0.743,0,1.115,0c0,0.094,0,0.186,0,0.279
	C14.685,132.966,14.074,133.113,13.987,132.734z"/>
<path fill-rule="evenodd" clip-rule="evenodd" fill="#A4A4A4" d="M6.462,133.293c0.2,0.451-1.314,0.451-1.115,0
	C5.719,133.293,6.09,133.293,6.462,133.293z"/>
<path fill-rule="evenodd" clip-rule="evenodd" fill="#707070" d="M30.431,7.872c1.092-1.324,2.299-2.532,3.624-3.623
	C32.964,5.573,31.756,6.781,30.431,7.872z"/>
<path fill-rule="evenodd" clip-rule="evenodd" fill="#303030" d="M22.627,15.676c2.485-2.717,5.086-5.318,7.804-7.804
	c-1.136,1.558-2.766,2.623-3.902,4.181C25.064,13.096,24.093,14.633,22.627,15.676z"/>
<path fill-rule="evenodd" clip-rule="evenodd" fill="#D5D5D5" d="M19.84,18.463c1.046-0.813,1.975-1.742,2.787-2.788
	c1.466-1.042,2.437-2.58,3.902-3.623c-3.042,3.275-6.202,6.434-9.476,9.476c0-0.093,0-0.185,0-0.278
	C18.099,20.438,19.028,19.509,19.84,18.463z"/>
<path fill-rule="evenodd" clip-rule="evenodd" fill="#303030" d="M17.054,21.25c0.812-1.046,1.741-1.975,2.787-2.787
	C19.028,19.509,18.099,20.438,17.054,21.25z"/>
<path fill-rule="evenodd" clip-rule="evenodd" fill="#A4A4A4" d="M12.594,32.12c0.719-0.953,1.555-1.789,2.508-2.508
	C14.383,30.564,13.547,31.4,12.594,32.12z"/>
<path fill-rule="evenodd" clip-rule="evenodd" fill="#303030" d="M10.643,33.792c0.44-0.675,0.998-1.232,1.672-1.672
	C11.875,32.795,11.318,33.353,10.643,33.792z"/>
<path fill-rule="evenodd" clip-rule="evenodd" fill="#707070" d="M2.561,46.613C2.065,45.9,0.77,45.988,0.052,45.499
	c-0.23-0.788,0.393-0.722,0.279-1.394c1.115,0.037,2.166,1.185,3.066,0.558c-0.233,0.603-0.722,0.951-0.558,1.951
	C2.746,46.613,2.653,46.613,2.561,46.613z"/>
<path fill-rule="evenodd" clip-rule="evenodd" fill="#A4A4A4" d="M27.923,85.911c0.533-0.768,1.183-1.418,1.951-1.951
	C29.341,84.728,28.691,85.378,27.923,85.911z"/>
<path fill-rule="evenodd" clip-rule="evenodd" fill="#A4A4A4" d="M17.054,114.897c0.251-0.492,0.623-0.863,1.114-1.115
	C17.916,114.273,17.545,114.646,17.054,114.897z"/>
<path fill-rule="evenodd" clip-rule="evenodd" fill="#303030" d="M15.381,116.291c0.346-0.583,0.811-1.048,1.393-1.394
	C16.429,115.48,15.964,115.945,15.381,116.291z"/>
<path fill-rule="evenodd" clip-rule="evenodd" fill="#303030" d="M11.2,117.685c0.491,0.251,0.863,0.624,1.115,1.114
	C11.824,118.548,11.452,118.175,11.2,117.685z"/>
<path fill-rule="evenodd" clip-rule="evenodd" fill="#303030" d="M11.2,120.192c-0.183-1.024-1.028-1.387-1.672-1.95
	c-0.049-0.634,0.941-1.625,1.114-1.115c-1.868,0.808,0.38,1.869,0.836,2.787C11.53,120.151,11.37,120.178,11.2,120.192z"/>
<path fill-rule="evenodd" clip-rule="evenodd" fill="#303030" d="M8.97,122.144c0.347-0.583,0.811-1.048,1.394-1.394
	C10.018,121.333,9.554,121.797,8.97,122.144z"/>
<path fill-rule="evenodd" clip-rule="evenodd" fill="#303030" d="M49.664,128.833c0.25-0.491,0.623-0.863,1.114-1.115
	C50.525,128.209,50.155,128.581,49.664,128.833z"/>
<path fill-rule="evenodd" clip-rule="evenodd" fill="#A4A4A4" d="M64.713,85.633c1.511,1.277,2.902,2.671,4.181,4.18
	C67.383,88.537,65.99,87.143,64.713,85.633z"/>
<path fill-rule="evenodd" clip-rule="evenodd" fill="#303030" d="M63.041,83.682c-3.692-3.274-6.898-7.038-10.59-10.313
	c-0.289-0.733-1.106-0.938-1.395-1.672C55.167,75.576,59.162,79.57,63.041,83.682z"/>
<path fill-rule="evenodd" clip-rule="evenodd" fill="#303030" d="M50.778,69.746c0.732-0.288,0.938-1.105,1.673-1.394
	c-0.441,0.675-0.998,1.232-1.673,1.672C50.778,69.932,50.778,69.839,50.778,69.746z"/>
<path fill-rule="evenodd" clip-rule="evenodd" fill="#A4A4A4" d="M52.451,68.074c0.532-0.768,1.182-1.417,1.951-1.951
	C53.867,66.891,53.217,67.541,52.451,68.074z"/>
<path fill-rule="evenodd" clip-rule="evenodd" fill="#707070" d="M54.402,66.123c0.625-0.86,1.368-1.604,2.228-2.229
	C56.004,64.753,55.261,65.497,54.402,66.123z"/>
<path fill-rule="evenodd" clip-rule="evenodd" fill="#303030" d="M56.629,63.894c0.387-0.823,1.288-1.128,1.673-1.952
	c0.913-0.48,1.316-1.47,2.229-1.951C59.348,61.408,58.047,62.709,56.629,63.894z"/>
<path fill-rule="evenodd" clip-rule="evenodd" fill="#D5D5D5" d="M58.302,61.942c0.719-0.953,1.557-1.789,2.508-2.508
	c-0.052,0.226-0.278,0.278-0.278,0.558C59.619,60.472,59.215,61.462,58.302,61.942z"/>
<path fill-rule="evenodd" clip-rule="evenodd" fill="#A4A4A4" d="M60.81,59.434c0.628-0.86,1.371-1.604,2.23-2.229
	C62.414,58.064,61.672,58.808,60.81,59.434z"/>
<path fill-rule="evenodd" clip-rule="evenodd" fill="#707070" d="M63.041,57.204c1.835-2.067,3.786-4.019,5.854-5.853
	C67.059,53.418,65.108,55.369,63.041,57.204z"/>
<path fill-rule="evenodd" clip-rule="evenodd" fill="#A4A4A4" d="M61.089,17.627c1.231,0.998,2.346,2.113,3.346,3.344
	C63.203,19.973,62.088,18.858,61.089,17.627z"/>
<path fill-rule="evenodd" clip-rule="evenodd" fill="#D5D5D5" d="M57.467,13.725c0.978,1.159,2.123,2.148,3.064,3.345
	C59.434,16.03,58.1,15.228,57.467,13.725z"/>
<path fill-rule="evenodd" clip-rule="evenodd" fill="#303030" d="M55.237,7.594c-1.096-0.669-1.69-1.84-2.786-2.509
	c-0.055-0.226-0.281-0.277-0.279-0.558C53.31,5.433,54.332,6.455,55.237,7.594z"/>
<path fill-rule="evenodd" clip-rule="evenodd" fill="#707070" d="M50.499,2.855c0.676,0.44,1.232,0.998,1.673,1.672
	C51.495,4.088,50.938,3.53,50.499,2.855z"/>
<path fill-rule="evenodd" clip-rule="evenodd" fill="#D5D5D5" d="M52.451,5.085c1.096,0.669,1.69,1.839,2.786,2.509
	c0.099,0.366,0.491,0.438,0.558,0.836C54.564,7.431,53.448,6.316,52.451,5.085z"/>
<path fill-rule="evenodd" clip-rule="evenodd" fill="#D5D5D5" d="M50.778,69.746c0.438-0.675,0.995-1.232,1.673-1.672
	c0,0.093,0,0.186,0,0.279C51.715,68.641,51.51,69.458,50.778,69.746z"/>
<path fill-rule="evenodd" clip-rule="evenodd" fill="#D5D5D5" d="M52.451,73.369c3.691,3.274,6.897,7.038,10.59,10.313
	c0.385,0.822,1.288,1.129,1.673,1.951C60.508,81.661,56.421,77.573,52.451,73.369z"/>
<path fill-rule="evenodd" clip-rule="evenodd" fill="#707070" d="M60.532,110.996c0.598-0.611,0.766-1.65,1.395-2.229
	c0.994,0.769,1.995,1.532,3.344,1.95c0.064,1.087-0.599,1.445-0.835,2.229C63.073,112.357,62.187,111.292,60.532,110.996z"/>
<path fill-rule="evenodd" clip-rule="evenodd" fill="#D5D5D5" d="M44.645,136.079c0.252-0.491,0.625-0.863,1.116-1.114
	C45.727,135.674,45.354,136.046,44.645,136.079z"/>
<path fill-rule="evenodd" clip-rule="evenodd" fill="#707070" d="M12.594,118.799c-0.252,0.492-0.624,0.864-1.116,1.115
	c-0.456-0.918-2.704-1.979-0.836-2.787c0.248,0.124,0.499,0.245,0.558,0.558c0.252,0.49,0.624,0.863,1.115,1.114
	C12.408,118.799,12.501,118.799,12.594,118.799z"/>
<path fill-rule="evenodd" clip-rule="evenodd" fill="#D5D5D5" d="M10.643,33.792c0.675-0.439,1.233-0.997,1.672-1.672
	c0.093,0,0.186,0,0.279,0c-0.534,0.768-1.184,1.418-1.952,1.952C10.643,33.978,10.643,33.885,10.643,33.792z"/>
<path fill-rule="evenodd" clip-rule="evenodd" fill="#D5D5D5" d="M31.825,10.102c1.185-1.417,2.485-2.718,3.902-3.902
	c-0.098,0.366-0.491,0.438-0.557,0.836C33.889,7.892,33.105,9.246,31.825,10.102z"/>
<path fill-rule="evenodd" clip-rule="evenodd" fill="#303030" d="M27.923,14.283c1.136-1.558,2.766-2.623,3.901-4.181
	c1.281-0.856,2.064-2.21,3.345-3.066C32.871,9.567,30.455,11.983,27.923,14.283z"/>
<path fill-rule="evenodd" clip-rule="evenodd" fill="#707070" d="M19.004,23.201c2.857-3.089,5.83-6.062,8.919-8.918
	C25.066,17.371,22.094,20.344,19.004,23.201z"/>
<path fill-rule="evenodd" clip-rule="evenodd" fill="#A4A4A4" d="M14.545,33.792c0.719-0.953,1.555-1.789,2.509-2.508
	C16.334,32.237,15.498,33.073,14.545,33.792z"/>
<path fill-rule="evenodd" clip-rule="evenodd" fill="#707070" d="M12.594,35.744c0.533-0.768,1.183-1.418,1.951-1.952
	C14.012,34.56,13.361,35.21,12.594,35.744z"/>
<path fill-rule="evenodd" clip-rule="evenodd" fill="#A4A4A4" d="M29.874,87.583c0.533-0.768,1.184-1.417,1.951-1.95
	C31.292,86.4,30.641,87.05,29.874,87.583z"/>
<path fill-rule="evenodd" clip-rule="evenodd" fill="#A4A4A4" d="M18.726,116.848c0.252-0.49,0.623-0.862,1.115-1.113
	C19.588,116.225,19.217,116.597,18.726,116.848z"/>
<path fill-rule="evenodd" clip-rule="evenodd" fill="#D5D5D5" d="M16.217,119.077c0.251-0.49,0.623-0.862,1.115-1.113
	c-0.083,0.567-0.754,0.546-0.836,1.113C16.403,119.077,16.311,119.077,16.217,119.077z"/>
<path fill-rule="evenodd" clip-rule="evenodd" fill="#303030" d="M10.085,124.931c0.346-0.583,0.811-1.047,1.393-1.394
	C11.133,124.12,10.668,124.585,10.085,124.931z"/>
<path fill-rule="evenodd" clip-rule="evenodd" fill="#A4A4A4" d="M62.483,87.026c1.695,1.463,3.276,3.042,4.738,4.738
	C65.527,90.302,63.946,88.722,62.483,87.026z"/>
<path fill-rule="evenodd" clip-rule="evenodd" fill="#707070" d="M53.286,77.828c3.182,2.95,6.249,6.017,9.197,9.198
	C59.302,84.076,56.235,81.011,53.286,77.828z"/>
<path fill-rule="evenodd" clip-rule="evenodd" fill="#303030" d="M50.22,74.483c0.669,1.097,1.84,1.691,2.509,2.788
	c-1.511-1.277-2.905-2.672-4.182-4.181C49.281,73.379,49.485,74.195,50.22,74.483z"/>
<path fill-rule="evenodd" clip-rule="evenodd" fill="#D5D5D5" d="M50.22,74.483c-0.735-0.288-0.939-1.104-1.673-1.393
	c0-0.094,0-0.186,0-0.279C49.223,73.251,49.78,73.809,50.22,74.483z"/>
<path fill-rule="evenodd" clip-rule="evenodd" fill="#707070" d="M48.826,68.074c0.533-0.768,1.185-1.417,1.952-1.951
	C50.245,66.891,49.593,67.541,48.826,68.074z"/>
<path fill-rule="evenodd" clip-rule="evenodd" fill="#A4A4A4" d="M50.778,66.123c0.532-0.768,1.184-1.417,1.951-1.951
	C52.196,64.939,51.544,65.59,50.778,66.123z"/>
<path fill-rule="evenodd" clip-rule="evenodd" fill="#D5D5D5" d="M52.729,64.172c0.052-0.226,0.278-0.278,0.278-0.558
	c0.821-0.385,1.128-1.287,1.951-1.672C54.332,62.802,53.588,63.545,52.729,64.172z"/>
<path fill-rule="evenodd" clip-rule="evenodd" fill="#303030" d="M53.007,63.614c1.092-1.324,2.3-2.532,3.622-3.623
	c-0.385,0.822-1.286,1.128-1.671,1.951C54.135,62.327,53.829,63.229,53.007,63.614z"/>
<path fill-rule="evenodd" clip-rule="evenodd" fill="#707070" d="M56.629,59.991c0.719-0.953,1.557-1.789,2.508-2.509
	C58.418,58.436,57.583,59.272,56.629,59.991z"/>
<path fill-rule="evenodd" clip-rule="evenodd" fill="#A4A4A4" d="M59.137,57.482c0.628-0.86,1.371-1.603,2.23-2.23
	C60.743,56.114,60,56.857,59.137,57.482z"/>
<path fill-rule="evenodd" clip-rule="evenodd" fill="#D5D5D5" d="M61.368,55.252c0.082-0.568,0.755-0.546,0.837-1.114
	c1.139-0.905,2.16-1.927,3.065-3.065c0.88-0.235,0.793-1.437,1.673-1.672c-0.579,1.188-1.606,2.164-2.508,3.065
	C63.457,53.443,62.412,54.317,61.368,55.252z"/>
<path fill-rule="evenodd" clip-rule="evenodd" fill="#A4A4A4" d="M57.188,17.348c1.882,1.649,3.646,3.415,5.295,5.295
	C60.602,20.995,58.837,19.23,57.188,17.348z"/>
<path fill-rule="evenodd" clip-rule="evenodd" fill="#707070" d="M51.056,7.314c1.046,0.813,1.976,1.742,2.786,2.788
	C52.797,9.29,51.87,8.36,51.056,7.314z"/>
<path fill-rule="evenodd" clip-rule="evenodd" fill="#D5D5D5" d="M50.499,6.479c-0.675-0.44-1.233-0.998-1.673-1.672
	C49.501,5.246,50.058,5.804,50.499,6.479z"/>
<path fill-rule="evenodd" clip-rule="evenodd" fill="#303030" d="M48.547,4.807c0.093,0,0.187,0,0.278,0
	c0.439,0.675,0.998,1.232,1.673,1.672c0.099,0.366,0.491,0.438,0.558,0.835C50.102,6.596,49.267,5.76,48.547,4.807z"/>
<path fill-rule="evenodd" clip-rule="evenodd" fill="#303030" d="M63.041,27.661c-0.848-0.267-2.827,0.597-2.787-0.557
	c-0.362-1.665,1.627-0.975,2.787-1.115c0,0.093,0,0.186,0,0.279c-1.501,0.095-2.216-0.255-2.509,0.278
	C59.72,28.032,62.333,26.909,63.041,27.661z"/>
<path fill-rule="evenodd" clip-rule="evenodd" fill="#303030" d="M62.205,54.138c0.906-1.138,1.928-2.161,3.065-3.065
	C64.365,52.211,63.343,53.233,62.205,54.138z"/>
<path fill-rule="evenodd" clip-rule="evenodd" fill="#303030" d="M13.151,122.144c-0.051-0.237,0.109-0.262,0.279-0.278
	c0.082,0.568,0.753,0.546,0.836,1.115C13.698,122.898,13.719,122.226,13.151,122.144z"/>
<path fill-rule="evenodd" clip-rule="evenodd" fill="#707070" d="M15.938,122.701c0.56,0.568-0.123,0.547-0.279,1.114
	c-0.876,0.134-1.139-0.348-1.394-0.835c-0.083-0.569-0.754-0.547-0.836-1.115c0.156-0.401,0.435-0.68,0.836-0.836
	C14.706,121.704,15.263,122.261,15.938,122.701z"/>
<path fill-rule="evenodd" clip-rule="evenodd" fill="#303030" d="M14.824,120.472c-0.824,1.027,0.889,1.381,1.115,2.229
	c-0.675-0.44-1.233-0.997-1.672-1.672C14.39,120.78,14.511,120.53,14.824,120.472z"/>
<path fill-rule="evenodd" clip-rule="evenodd" fill="#303030" d="M16.496,119.077c0.082-0.567,0.754-0.546,0.836-1.113
	c0.226-0.053,0.278-0.28,0.558-0.279C17.543,118.268,17.079,118.732,16.496,119.077z"/>
<path fill-rule="evenodd" clip-rule="evenodd" fill="#707070" d="M63.041,27.661c-0.707-0.752-3.32,0.371-2.509-1.115
	c0.293-0.533,1.008-0.183,2.509-0.278c0.023,0.441-0.135,1.063,0.278,1.114c0,0.186,0,0.372,0,0.558c-0.092,0-0.187,0-0.278,0
	C63.041,27.847,63.041,27.753,63.041,27.661z"/>
<path fill-rule="evenodd" clip-rule="evenodd" fill="#707070" d="M16.217,26.268c-0.153,0.404,0.326,1.44-0.279,1.393
	c0-0.465,0-0.929,0-1.393C16.031,26.268,16.124,26.268,16.217,26.268z"/>
<path fill-rule="evenodd" clip-rule="evenodd" fill="#707070" d="M66.106,32.399c0,0.464,0,0.929,0,1.393
	c-0.604,0.047-0.127-0.988-0.279-1.393C65.921,32.399,66.013,32.399,66.106,32.399z"/>
<path fill-rule="evenodd" clip-rule="evenodd" fill="#A4A4A4" d="M2.839,46.613c0,0.651,0,1.301,0,1.952
	c-0.624-0.121-0.113-1.374-0.278-1.952C2.653,46.613,2.746,46.613,2.839,46.613z"/>
<path fill-rule="evenodd" clip-rule="evenodd" fill="#303030" d="M66.943,47.728c0.453-0.2,0.453,1.314,0,1.115
	C66.943,48.471,66.943,48.1,66.943,47.728z"/>
<path fill-rule="evenodd" clip-rule="evenodd" fill="#707070" d="M13.987,64.729c0.623,0.12,0.113,1.373,0.279,1.951
	C13.643,66.561,14.153,65.307,13.987,64.729z"/>
<path fill-rule="evenodd" clip-rule="evenodd" fill="#707070" d="M47.991,69.467c0,0.744,0,1.487,0,2.23
	C47.53,71.573,47.53,69.591,47.991,69.467z"/>
<path fill-rule="evenodd" clip-rule="evenodd" fill="#303030" d="M22.349,80.616c0.558,0,1.115,0,1.672,0
	C24.066,81.073,22.303,81.073,22.349,80.616z"/>
<path fill-rule="evenodd" clip-rule="evenodd" fill="#707070" d="M59.697,107.372c-0.598,0.61-0.768,1.649-1.395,2.229
	c0-0.092,0-0.186,0-0.278c-1.084-0.867-2.831-1.072-3.344-2.509c0.489-0.253,0.509-0.977,0.836-1.393
	C57.311,105.855,58.07,107.048,59.697,107.372z"/>
<path fill-rule="evenodd" clip-rule="evenodd" fill="#707070" d="M16.496,130.227c0.757,0.172,2.212-0.354,2.508,0.278
	C18.248,130.333,16.792,130.858,16.496,130.227z"/>
<path fill-rule="evenodd" clip-rule="evenodd" fill="#707070" d="M20.119,130.505c0.756,0.173,2.211-0.354,2.508,0.278
	C21.871,130.611,20.416,131.138,20.119,130.505z"/>
<path fill-rule="evenodd" clip-rule="evenodd" fill="#707070" d="M23.742,130.783c0.757,0.174,2.212-0.354,2.509,0.28
	C25.495,130.89,24.039,131.417,23.742,130.783z"/>
<path fill-rule="evenodd" clip-rule="evenodd" fill="#707070" d="M27.644,131.063c0.667,0.169,2.022-0.352,2.23,0.278
	C29.208,131.171,27.852,131.691,27.644,131.063z"/>
<path fill-rule="evenodd" clip-rule="evenodd" fill="#707070" d="M30.989,131.342c0.756,0.172,2.212-0.354,2.508,0.278
	C32.741,131.447,31.285,131.974,30.989,131.342z"/>
<path fill-rule="evenodd" clip-rule="evenodd" fill="#707070" d="M15.103,132.734c0.405,0.152,1.44-0.325,1.393,0.279
	c-0.464,0-0.929,0-1.393,0C15.103,132.92,15.103,132.828,15.103,132.734z"/>
<path fill-rule="evenodd" clip-rule="evenodd" fill="#707070" d="M17.89,133.014c0.756,0.173,2.211-0.354,2.508,0.279
	C19.641,133.119,18.186,133.646,17.89,133.014z"/>
<path fill-rule="evenodd" clip-rule="evenodd" fill="#707070" d="M21.512,133.293c0.757,0.172,2.212-0.354,2.509,0.278
	C23.265,133.398,21.809,133.925,21.512,133.293z"/>
<path fill-rule="evenodd" clip-rule="evenodd" fill="#707070" d="M25.136,133.571c0.756,0.172,2.212-0.354,2.508,0.278
	C26.888,133.678,25.433,134.203,25.136,133.571z"/>
<path fill-rule="evenodd" clip-rule="evenodd" fill="#707070" d="M28.759,133.85c0.667,0.171,2.021-0.35,2.229,0.278
	C30.322,133.958,28.966,134.478,28.759,133.85z"/>
<path fill-rule="evenodd" clip-rule="evenodd" fill="#707070" d="M32.383,134.128c0.577,0.166,1.831-0.345,1.95,0.278
	C33.756,134.241,32.502,134.751,32.383,134.128z"/>
<path fill-rule="evenodd" clip-rule="evenodd" fill="#303030" d="M39.072,134.128c1.208,0,2.416,0,3.622,0
	C42.123,134.591,39.642,134.591,39.072,134.128z"/>
<path fill-rule="evenodd" clip-rule="evenodd" fill="#303030" d="M38.793,136.915c1.3,0,2.6,0,3.9,0
	C42.033,137.379,39.457,137.379,38.793,136.915z"/>
<path fill-rule="evenodd" clip-rule="evenodd" fill="#FFFFFF" d="M34.055,4.249c1.635-1.988,3.643-3.604,6.968-3.902
	c1.3,0,2.601,0,3.9,0c2.604,0.091,4.083,1.308,5.575,2.508c0.439,0.675,0.996,1.233,1.673,1.672
	c-0.002,0.28,0.225,0.332,0.279,0.558c0.997,1.231,2.113,2.346,3.344,3.345c1.524,0.799,1.406,3.238,1.673,5.295
	c0.633,1.503,1.967,2.305,3.064,3.345c0.249,0.123,0.499,0.244,0.558,0.558c0.999,1.231,2.113,2.346,3.346,3.344
	c0.677,0.438,1.043,1.186,1.113,2.23c0.167,0.578-0.345,1.831,0.278,1.951c0,0.279,0,0.557,0,0.836c0,0.464,0,0.929,0,1.394
	c0,1.672,0,3.345,0,5.017c0.152,0.405-0.324,1.44,0.279,1.393c0.665,5.282,2.752,9.14,3.624,14.215c0,0.371,0,0.743,0,1.114
	c0,0.372,0,0.744,0,1.115c-0.573,0.077-0.263,1.038-0.836,1.115c-2.067,1.834-4.019,3.786-5.854,5.853
	c-0.859,0.626-1.603,1.369-2.23,2.229c-0.951,0.719-1.789,1.556-2.508,2.508c-0.385,0.823-1.286,1.128-1.673,1.952
	c-0.859,0.625-1.603,1.369-2.228,2.229c-0.77,0.534-1.419,1.184-1.951,1.951c-0.678,0.44-1.234,0.997-1.673,1.672
	c0,0.093,0,0.186,0,0.278c-0.596,0.57,0.078,1.103,0.278,1.673c0.288,0.733,1.105,0.938,1.395,1.672
	c3.971,4.204,8.058,8.292,12.263,12.264c1.276,1.51,2.67,2.904,4.181,4.18c0.787,0.698,1.491,1.387,1.671,2.23
	c0.443,2.051-0.433,3.331-1.393,5.017c-0.389,0.681-0.61,1.402-1.115,2.229c-0.347,0.569-1.063,1.121-1.393,1.673
	c-0.425,0.708-0.715,1.546-1.116,2.229c-0.974,1.662-2.526,4.031-3.622,5.575c-0.629,0.579-0.797,1.618-1.395,2.229
	c-1.366,2.73-3.071,5.57-4.737,8.36c-0.85,1.422-1.745,2.368-2.23,4.459c-0.134,0.579-0.002,1.457-0.278,1.951
	c-0.475,0.851-1.749,1.399-2.508,1.951c-0.491,0.252-0.864,0.624-1.114,1.115c-1.206,2.139-2.346,4.344-3.902,6.132
	c-0.491,0.251-0.864,0.623-1.116,1.114c-0.28,0.648-0.96,0.899-1.951,0.836c-1.301,0-2.601,0-3.9,0
	c-2.347,0.024-2.869-1.777-4.46-2.509c-0.12-0.623-1.374-0.112-1.95-0.278c-0.465,0-0.93,0-1.394,0
	c-0.208-0.628-1.563-0.107-2.229-0.278c-0.372,0-0.744,0-1.115,0c-0.296-0.632-1.752-0.106-2.508-0.278c-0.372,0-0.743,0-1.115,0
	c-0.296-0.633-1.752-0.106-2.509-0.278c-0.371,0-0.743,0-1.114,0c-0.297-0.633-1.752-0.106-2.508-0.279c-0.465,0-0.93,0-1.394,0
	c0.047-0.604-0.988-0.127-1.393-0.279c-0.372,0-0.744,0-1.115,0c-3.295-0.136-3.851,2.468-6.41,3.066c-1.115,0-2.23,0-3.345,0
	c-0.186,0-0.372,0-0.558,0c-4.224-1.796-4.385-7.879-0.836-10.034c0.907-0.551,2.051-0.571,3.066-1.114
	c1.394-0.745,2.096-1.898,3.065-2.509c0.583-0.347,1.048-0.811,1.394-1.394c0.366-0.099,0.438-0.49,0.836-0.558
	c0.17-0.015,0.33-0.041,0.278-0.278c0.492-0.251,0.864-0.623,1.116-1.115c0.807-0.957,1.869-1.66,2.787-2.508
	c0.583-0.346,1.048-0.811,1.393-1.394c0.093,0,0.186,0,0.28,0c0.491-0.251,0.862-0.624,1.114-1.115
	c0.22-0.989,1.097-1.487,1.672-2.229c0.168-0.216,0.096-0.593,0.279-0.836c0.107-0.144,0.455-0.145,0.557-0.279
	c0.682-0.896,1.408-1.992,2.23-3.065c0.516-0.675,1.177-1.309,1.672-1.95c1.105-1.435,1.932-2.988,3.065-4.46
	c0.494-0.642,1.188-1.258,1.672-1.951c0.544-0.778,1.041-1.343,1.394-2.23c-0.819-3.321-6.435-7.082-2.787-10.869
	c0.768-0.533,1.417-1.184,1.951-1.951c-0.045-0.323,0.062-0.496,0.279-0.557c-0.889-1.248-1.7-2.574-2.787-3.623
	c-1.153,0.24-2.04,0.747-3.345,0.836c-0.558,0-1.115,0-1.672,0c-0.372,0-0.743,0-1.115,0c-4.364-3.161-6.183-8.868-9.755-12.821
	c0-0.279,0-0.558,0-0.836c0-0.465,0-0.93,0-1.393c-0.574-1.139-1.463-2.947-2.229-4.46c-0.665-1.313-1.525-2.601-2.229-3.902
	c-0.709-1.31-1.212-2.838-1.951-4.181c-0.86-1.563-1.983-2.524-2.23-4.459c0-0.651,0-1.301,0-1.952
	c-0.164-1,0.324-1.348,0.558-1.951c0.96-2.214,2.608-4.071,3.902-6.132c0.123-0.196,0.116-0.619,0.279-0.836
	c0.097-0.129,0.477-0.156,0.557-0.279c0.229-0.349,0.306-1.026,0.558-1.394c0.141-0.206,0.392-0.308,0.557-0.558
	c0.226-0.34,0.756-1.062,1.394-1.393c0.768-0.534,1.418-1.184,1.952-1.952c0.953-0.719,1.789-1.555,2.508-2.508
	c0.142-0.787,0.674-1.184,0.836-1.951c0.604,0.047,0.126-0.989,0.279-1.393c0-0.93,0-1.858,0-2.788
	c-0.063-0.991,0.188-1.669,0.836-1.951c3.274-3.042,6.433-6.201,9.476-9.476c1.136-1.558,2.766-2.623,3.902-4.181
	C31.756,6.781,32.964,5.573,34.055,4.249z M42.137,2.855c-2.823,0.429-4.629,1.875-6.411,3.345
	c-1.417,1.185-2.717,2.485-3.902,3.902c-1.136,1.558-2.766,2.623-3.901,4.181c-3.089,2.856-6.063,5.83-8.919,8.918
	c0,0.278,0,0.558,0,0.836c-0.632,0.296-0.106,1.752-0.278,2.508c0.123,2.259-0.41,3.864-1.672,4.738
	c-0.954,0.719-1.79,1.555-2.509,2.508c-0.768,0.534-1.418,1.184-1.951,1.952c-2.247,3.234-4.251,6.712-6.689,9.755
	c-0.431,0.404-0.585,1.087-0.558,1.95c1.168,3.113,2.935,5.586,4.459,8.362c0.716,1.303,1.261,2.81,1.951,4.181
	c0.766,1.523,2.072,3.138,2.229,4.738c0.166,0.577-0.344,1.831,0.279,1.951c2.809,3.622,4.924,7.881,7.804,11.148
	c2.617,0.317,4.09-1.291,6.131-0.836c1.066,0.238,1.824,1.421,2.508,2.229c0.821,0.97,1.676,1.992,1.951,3.066
	c0,0.65,0,1.301,0,1.951c-0.093,0.65-0.286,1.2-0.836,1.394c-0.767,0.533-1.418,1.183-1.951,1.95
	c-0.968,3.729,3.202,4.554,3.345,8.083c0,0.65,0,1.301,0,1.951c0.252,0.605-0.34,0.956-0.558,1.394
	c-0.188,0.379-0.276,0.981-0.558,1.395c-0.483,0.709-1.429,1.261-1.951,1.95c-0.103,0.136-0.212,0.456-0.279,0.558
	c-0.308,0.463-0.663,0.853-0.836,1.114c-0.307,0.464-0.662,0.854-0.836,1.114c-0.509,0.769-1.344,1.696-1.672,2.23
	c-0.172,0.279-0.395,0.334-0.558,0.558c-1.984,2.724-3.815,5.556-6.131,7.805c-0.492,0.251-0.863,0.623-1.115,1.113
	c-0.156,0.402-0.435,0.681-0.836,0.837c-0.28-0.001-0.332,0.227-0.558,0.279c-0.492,0.251-0.863,0.623-1.115,1.113
	c-0.346,0.585-0.811,1.048-1.394,1.395c-0.313,0.059-0.434,0.309-0.558,0.558c-0.401,0.156-0.68,0.435-0.836,0.836
	c-0.17,0.017-0.33,0.041-0.279,0.278c-0.733,0.289-0.938,1.105-1.672,1.394c-0.583,0.347-1.047,0.811-1.393,1.394
	c-0.943,0.738-1.607,1.589-2.787,2.229c-1.389,0.757-3.381,0.744-4.181,2.23c0,0.093,0,0.186,0,0.278
	c-0.458-0.045-0.458,1.718,0,1.673c0.521,0.872,1.13,1.656,2.229,1.951c-0.199,0.451,1.314,0.451,1.115,0
	c2.127-0.847,2.873-3.073,5.853-3.066c0.65,0,1.301,0,1.951,0c0.372,0,0.743,0,1.115,0s0.743,0,1.115,0
	c0.296,0.632,1.752,0.106,2.508,0.278c0.372,0,0.743,0,1.115,0c0.296,0.633,1.751,0.106,2.508,0.278c0.371,0,0.744,0,1.115,0
	c0.297,0.634,1.752,0.106,2.509,0.28c0.464,0,0.929,0,1.393,0c0.208,0.628,1.564,0.107,2.23,0.278c0.372,0,0.743,0,1.115,0
	c0.296,0.632,1.752,0.105,2.508,0.278c3.125-0.43,3.423,1.965,5.575,2.508c0.57,0.463,3.051,0.463,3.622,0
	c1.226-0.567,1.494-1.977,1.951-2.786c0.219-0.385,0.663-0.55,0.838-0.837c0.751-1.229,1.31-2.86,2.229-3.901
	c0.892-1.011,2.18-1.117,2.786-2.509c0.737-1.013,0.391-2.239,0.836-3.345c0.272-0.678,1.138-1.508,1.395-1.951
	c0.353-0.608,0.593-0.973,0.835-1.393c0.353-0.609,0.593-0.973,0.838-1.394c0.351-0.61,0.591-0.974,0.835-1.395
	c0.353-0.609,0.593-0.973,0.836-1.394c0.353-0.609,0.593-0.973,0.837-1.394c0.505-0.873,0.834-1.566,1.393-2.229
	c0.627-0.58,0.797-1.619,1.395-2.229c1.023-2.459,3.782-6.096,5.295-8.64c0.45-0.761,0.812-1.913,1.114-2.23
	c0.767-0.8,1.73-2.363,1.673-3.345c-0.024-0.4-0.577-0.971-0.558-1.393c-1.462-1.696-3.043-3.275-4.738-4.738
	c-2.948-3.182-6.016-6.248-9.197-9.198c-0.313-0.059-0.435-0.309-0.557-0.557c-0.669-1.097-1.84-1.691-2.509-2.788
	c-0.44-0.675-0.997-1.232-1.673-1.672c-0.49-0.066-0.635-0.479-0.557-1.114c0-0.743,0-1.486,0-2.23
	c0.092-0.65,0.284-1.201,0.835-1.394c0.768-0.533,1.419-1.183,1.952-1.951c0.767-0.533,1.418-1.183,1.951-1.951
	c0.859-0.626,1.603-1.37,2.229-2.23c0.385-0.822,1.286-1.128,1.671-1.951c0.954-0.719,1.789-1.555,2.508-2.509
	c0.862-0.625,1.605-1.369,2.23-2.23c1.044-0.935,2.089-1.809,3.067-2.787c0.901-0.901,1.929-1.877,2.508-3.065
	c0-0.186,0-0.372,0-0.558c0.453,0.199,0.453-1.314,0-1.115c-1.356-4.868-3.462-8.988-3.624-15.051c0-0.464,0-0.929,0-1.394
	c0-0.464,0-0.929,0-1.394c0-0.65,0-1.3,0-1.951c0-0.186,0-0.372,0-0.558c0-0.464,0-0.929,0-1.394
	c-0.164-0.577,0.345-1.831-0.278-1.951c-0.12-0.531-0.602-0.701-0.558-1.394c-1.648-1.881-3.413-3.646-5.295-5.295
	c-2.506-1.026-2.521-4.539-3.346-7.246c-0.811-1.046-1.74-1.975-2.786-2.788c-0.066-0.397-0.459-0.47-0.558-0.835
	c-0.44-0.675-0.997-1.233-1.673-1.672c-0.092,0-0.186,0-0.278,0c-1.284-0.853-2.742-1.53-4.459-1.952
	C44.05,2.396,42.175,2.396,42.137,2.855z"/>
<path fill-rule="evenodd" clip-rule="evenodd" fill="#D5D5D5" d="M65.548,23.201c0.623,0.12,0.114,1.374,0.278,1.951
	C65.204,25.032,65.715,23.779,65.548,23.201z"/>
<path fill-rule="evenodd" clip-rule="evenodd" fill="#D5D5D5" d="M4.232,135.801c1.115,0,2.229,0,3.345,0
	C7.096,136.263,4.713,136.263,4.232,135.801z"/>
<path fill-rule="evenodd" clip-rule="evenodd" fill="#A4A4A4" d="M41.023,0.347c0.663-0.462,3.239-0.462,3.9,0
	C43.624,0.347,42.323,0.347,41.023,0.347z"/>
<path fill-rule="evenodd" clip-rule="evenodd" fill="#707070" d="M63.041,24.038c0.623,0.12,0.114,1.374,0.278,1.951
	c-0.092,0-0.187,0-0.278,0C63.041,25.338,63.041,24.688,63.041,24.038z"/>
<path fill-rule="evenodd" clip-rule="evenodd" fill="#707070" d="M5.347,47.449c-0.027-0.863,0.127-1.546,0.558-1.95
	c0,0.093,0,0.186,0,0.278c0.598,0.554,2.93,0.42,2.229,1.394C7.962,48.903,6.422,47.292,5.347,47.449z"/>
<path fill-rule="evenodd" clip-rule="evenodd" fill="#707070" d="M3.118,129.669c0,0.558,0,1.114,0,1.673
	C2.66,131.387,2.66,129.624,3.118,129.669z"/>
<path fill-rule="evenodd" clip-rule="evenodd" fill="#707070" d="M32.661,82.288c0.459,0.038,0.459,1.913,0,1.951
	C32.661,83.589,32.661,82.938,32.661,82.288z"/>
<path fill-rule="evenodd" clip-rule="evenodd" fill="#707070" d="M33.219,95.666c0.458,0.038,0.458,1.913,0,1.951
	C33.219,96.967,33.219,96.316,33.219,95.666z"/>
<path fill-rule="evenodd" clip-rule="evenodd" fill="#707070" d="M12.315,130.227c0.12-0.623,1.374-0.113,1.951-0.279
	c0,0.093,0,0.187,0,0.279C13.616,130.227,12.965,130.227,12.315,130.227z"/>
</svg>
