<?xml version="1.0" encoding="utf-8"?>
<!-- Generator: Adobe Illustrator 15.0.0, SVG Export Plug-In  -->
<!DOCTYPE svg PUBLIC "-//W3C//DTD SVG 1.1//EN" "http://www.w3.org/Graphics/SVG/1.1/DTD/svg11.dtd" [
	<!ENTITY ns_flows "http://ns.adobe.com/Flows/1.0/">
]>
<svg version="1.1"
	 xmlns="http://www.w3.org/2000/svg" xmlns:xlink="http://www.w3.org/1999/xlink" xmlns:a="http://ns.adobe.com/AdobeSVGViewerExtensions/3.0/"
	 x="0px" y="0px" width="142px" height="142px" viewBox="-36.059 -2.313 142 142" enable-background="new -36.059 -2.313 142 142"
	 xml:space="preserve">
<defs>
</defs>
<path fill-rule="evenodd" clip-rule="evenodd" fill="#C2C2C2" d="M41.98,2.826c-0.125-0.455,1.519-0.455,1.394,0
	C42.909,2.826,42.445,2.826,41.98,2.826z"/>
<path fill-rule="evenodd" clip-rule="evenodd" fill="#787878" d="M24.422,7.843c0.755-0.173,0.693-1.165,1.672-1.115
	c0.719,0.953,1.555,1.789,2.508,2.508c0.093,0,0.186,0,0.278,0c-0.439,0.675-0.997,1.232-1.672,1.672
	C26.446,9.721,25.185,9.031,24.422,7.843z"/>
<path fill-rule="evenodd" clip-rule="evenodd" fill="#787878" d="M62.884,24.287c0.635,0.386,0.104,1.94,0.278,2.788
	c-0.092,0-0.187,0-0.278,0C62.884,26.146,62.884,25.216,62.884,24.287z"/>
<path fill-rule="evenodd" clip-rule="evenodd" fill="#191919" d="M18.569,25.959c0.093,0,0.186,0,0.278,0
	c-0.047,0.417,0.1,1.028-0.278,1.115C18.569,26.703,18.569,26.331,18.569,25.959z"/>
<path fill-rule="evenodd" clip-rule="evenodd" fill="#333333" d="M65.67,31.255c0.095,0,0.187,0,0.279,0c0,0.372,0,0.744,0,1.115
	c-0.093,0-0.185,0-0.279,0C65.67,31.999,65.67,31.627,65.67,31.255z"/>
<path fill-rule="evenodd" clip-rule="evenodd" fill="#787878" d="M65.67,32.37c0.095,0,0.187,0,0.279,0c0,0.372,0,0.743,0,1.115
	C65.538,33.433,65.694,32.811,65.67,32.37z"/>
<path fill-rule="evenodd" clip-rule="evenodd" fill="#191919" d="M53.686,122.672c-0.021,0.441,0.135,1.063-0.278,1.114
	C53.455,123.371,53.308,122.758,53.686,122.672z"/>
<path fill-rule="evenodd" clip-rule="evenodd" fill="#191919" d="M2.961,129.918c0,0.372,0,0.744,0,1.116
	C2.509,131.234,2.509,129.719,2.961,129.918z"/>
<path fill-rule="evenodd" clip-rule="evenodd" fill="#191919" d="M11.88,130.198c0.48-0.463,2.864-0.463,3.344,0
	C14.109,130.198,12.994,130.198,11.88,130.198z"/>
<path fill-rule="evenodd" clip-rule="evenodd" fill="#191919" d="M16.897,130.198c0.577,0.165,1.831-0.345,1.95,0.278
	C18.27,130.31,17.017,130.821,16.897,130.198z"/>
<path fill-rule="evenodd" clip-rule="evenodd" fill="#191919" d="M20.52,130.476c0.578,0.166,1.831-0.345,1.951,0.278
	C21.894,130.589,20.64,131.099,20.52,130.476z"/>
<path fill-rule="evenodd" clip-rule="evenodd" fill="#191919" d="M24.422,130.754c0.49,0.16,1.638-0.336,1.672,0.28
	C25.604,130.873,24.456,131.371,24.422,130.754z"/>
<path fill-rule="evenodd" clip-rule="evenodd" fill="#191919" d="M27.767,131.035c0.577,0.165,1.831-0.345,1.951,0.278
	C29.14,131.146,27.886,131.658,27.767,131.035z"/>
<path fill-rule="evenodd" clip-rule="evenodd" fill="#191919" d="M31.39,131.313c0.577,0.165,1.831-0.345,1.951,0.278
	C32.763,131.426,31.51,131.936,31.39,131.313z"/>
<path fill-rule="evenodd" clip-rule="evenodd" fill="#191919" d="M13.831,132.706c0.578,0.167,1.831-0.344,1.951,0.279
	C15.205,132.819,13.951,133.33,13.831,132.706z"/>
<path fill-rule="evenodd" clip-rule="evenodd" fill="#191919" d="M17.733,132.985c0.49,0.16,1.637-0.337,1.672,0.279
	C18.915,133.103,17.768,133.6,17.733,132.985z"/>
<path fill-rule="evenodd" clip-rule="evenodd" fill="#191919" d="M21.355,133.264c0.49,0.159,1.638-0.338,1.673,0.278
	C22.538,133.382,21.391,133.879,21.355,133.264z"/>
<path fill-rule="evenodd" clip-rule="evenodd" fill="#191919" d="M24.979,133.542c0.49,0.159,1.637-0.338,1.672,0.278
	C26.162,133.661,25.014,134.158,24.979,133.542z"/>
<path fill-rule="evenodd" clip-rule="evenodd" fill="#191919" d="M28.603,133.821c0.49,0.16,1.637-0.337,1.672,0.278
	C29.785,133.939,28.637,134.436,28.603,133.821z"/>
<path fill-rule="evenodd" clip-rule="evenodd" fill="#191919" d="M32.226,134.099c0.489,0.16,1.637-0.336,1.672,0.278
	C33.408,134.218,32.26,134.715,32.226,134.099z"/>
<path fill-rule="evenodd" clip-rule="evenodd" fill="#191919" d="M38.637,134.099c1.3,0,2.6,0,3.9,0
	C41.876,134.562,39.3,134.562,38.637,134.099z"/>
<path fill-rule="evenodd" clip-rule="evenodd" fill="#191919" d="M38.637,136.886c1.3,0,2.6,0,3.9,0
	C41.876,137.35,39.3,137.35,38.637,136.886z"/>
<path fill-rule="evenodd" clip-rule="evenodd" fill="#787878" d="M30.274,7.843c1.556-1.789,3.229-3.461,5.017-5.017
	C33.735,4.615,32.063,6.287,30.274,7.843z"/>
<path fill-rule="evenodd" clip-rule="evenodd" fill="#333333" d="M28.881,9.237c0.347-0.583,0.811-1.047,1.394-1.394
	C29.929,8.426,29.464,8.891,28.881,9.237z"/>
<path fill-rule="evenodd" clip-rule="evenodd" fill="#333333" d="M24.422,7.843c0.462-0.559,0.748-1.295,1.672-1.393
	c0.668,1.096,1.839,1.69,2.508,2.787c-0.953-0.719-1.789-1.555-2.508-2.508C25.115,6.679,25.177,7.67,24.422,7.843z"/>
<path fill-rule="evenodd" clip-rule="evenodd" fill="#333333" d="M25.537,12.582c0.439-0.675,0.997-1.233,1.672-1.672
	c-0.083,0.568-0.754,0.546-0.836,1.115C26.007,12.123,25.934,12.515,25.537,12.582z"/>
<path fill-rule="evenodd" clip-rule="evenodd" fill="#191919" d="M20.52,17.599c1.556-1.789,3.229-3.461,5.017-5.017
	C23.98,14.37,22.308,16.042,20.52,17.599z"/>
<path fill-rule="evenodd" clip-rule="evenodd" fill="#191919" d="M16.897,21.222c0.998-1.232,2.112-2.346,3.344-3.345
	C19.243,19.108,18.128,20.223,16.897,21.222z"/>
<path fill-rule="evenodd" clip-rule="evenodd" fill="#191919" d="M10.208,34.042c0.626-0.86,1.369-1.604,2.23-2.23
	C11.811,32.672,11.067,33.416,10.208,34.042z"/>
<path fill-rule="evenodd" clip-rule="evenodd" fill="#787878" d="M18.847,78.636c0.492,0.251,0.863,0.623,1.115,1.115
	C19.471,79.5,19.099,79.127,18.847,78.636z"/>
<path fill-rule="evenodd" clip-rule="evenodd" fill="#C2C2C2" d="M26.651,79.751c0.358-0.778,1.327,0.127,1.394,0.557
	C27.514,80.19,27.541,79.511,26.651,79.751z"/>
<path fill-rule="evenodd" clip-rule="evenodd" fill="#C2C2C2" d="M28.603,85.046c0.387-0.635,0.964-1.08,1.394-1.672
	C29.898,84.297,29.161,84.583,28.603,85.046z"/>
<path fill-rule="evenodd" clip-rule="evenodd" fill="#333333" d="M16.339,115.147c1.529-1.233,2.7-2.906,3.902-4.459
	c0.165-0.213,0.415-0.371,0.557-0.559c0.285-0.371,0.483-0.86,0.836-1.392c0.063-0.097,0.179-0.43,0.279-0.559
	c0.543-0.702,1.408-1.24,1.951-1.951c0.188-0.245,0.101-0.603,0.278-0.835c1.904-2.489,4.72-5.519,6.411-8.642
	c-0.201-0.773-0.424-1.235-0.836-1.95c-1.366-2.373-5.298-5.873-1.672-9.477c0.093,0,0.186,0,0.278,0
	c-1.616,2.49,0.417,4.33,1.673,6.132c0.145,0.208,0.106,0.605,0.278,0.836c0.101,0.134,0.471,0.152,0.558,0.279
	c0.283,0.414,0.33,1.038,0.558,1.394c0.13,0.205,0.397,0.299,0.557,0.557c0.11,0.18,0.152,0.372,0.279,0.559
	c0.621,0.911,1.191,1.508,1.672,2.229c-1.038-0.496-0.905,1.443-1.394,2.229c-0.125,0.201-0.401,0.303-0.558,0.557
	c-0.22,0.358-0.493,0.599-0.836,1.115c-1.073,1.618-3.067,3.755-4.459,5.574c-0.284,0.373-0.483,0.861-0.836,1.394
	c-0.443,0.668-1.563,1.628-2.229,2.509c-0.188,0.248-0.1,0.603-0.279,0.836c-0.289,0.378-0.94,1.08-1.393,1.672
	c-0.994,1.298-1.907,2.554-3.345,3.623c-0.768,0.534-1.418,1.185-1.952,1.951c-0.647,0.188-0.746,0.927-1.393,1.115
	c-0.675,0.439-1.232,0.997-1.672,1.672c-0.647,0.189-0.746,0.927-1.394,1.115c-0.768,0.532-1.418,1.184-1.951,1.951
	c-0.845,0.566-1.341,1.286-2.23,1.951c-1.214,0.908-4.543,1.058-5.017,3.344c-0.452-0.199-0.452,1.315,0,1.116
	c0.535,1.493,1.374,2.133,2.509,2.229c2.253,0.188,3.964-3.253,6.41-3.066c1.114,0,2.229,0,3.344,0c0.558,0,1.115,0,1.673,0
	c0.12,0.623,1.373,0.112,1.95,0.278c0.558,0,1.115,0,1.672,0c0.12,0.623,1.374,0.113,1.951,0.278c0.65,0,1.301,0,1.951,0
	c0.034,0.616,1.182,0.118,1.672,0.28c0.557,0,1.115,0,1.672,0c0.12,0.623,1.373,0.111,1.951,0.278c0.557,0,1.115,0,1.672,0
	c0.12,0.623,1.374,0.113,1.951,0.278c2.92-0.318,3.493,1.71,5.296,2.508c0.663,0.463,3.239,0.463,3.9,0
	c2.083-1.819,3.104-4.701,4.74-6.968c0.675-0.439,1.231-0.996,1.671-1.672c0.28-0.249,0.983-0.448,1.394-1.114
	c0.283-0.46,0.585-1.618,0.558-1.673c-0.314-0.628-0.908,0.112-1.114-0.558c2.322,0.278,3.44-0.647,4.738-1.394
	c-0.143,0.787-0.675,1.185-0.838,1.951c-0.378,0.086-0.23,0.698-0.278,1.114c-0.072,2.158-1.354,3.104-2.786,3.902
	c-0.583,0.346-1.048,0.811-1.395,1.394c-0.813,1.882-1.926,3.472-3.065,5.295c-0.684,1.096-1.278,1.71-2.508,2.509
	c-0.373,0-0.744,0-1.116,0c-1.301,0-2.601,0-3.9,0c-2.478,0.061-2.823-2.009-4.739-2.509c-0.035-0.614-1.183-0.118-1.672-0.278
	c-0.651,0-1.301,0-1.952,0c-0.035-0.615-1.182-0.118-1.672-0.278c-0.65,0-1.301,0-1.952,0c-0.035-0.616-1.182-0.119-1.672-0.278
	c-0.65,0-1.301,0-1.951,0c-0.035-0.616-1.183-0.119-1.673-0.278c-0.649,0-1.3,0-1.95,0c-0.035-0.616-1.183-0.119-1.672-0.279
	c-0.651,0-1.301,0-1.951,0c-0.12-0.623-1.374-0.112-1.951-0.279c-0.759,0.22-1.385,0.096-1.951,0.279
	c-0.968,0.313-1.383,1.069-2.23,1.672c-1.143,0.814-3.019,1.996-5.574,1.394c-0.196-0.046-0.58-0.439-0.836-0.558
	c-1.975-0.911-4.217-3.99-2.787-7.524c1.183-2.925,5.434-2.494,7.525-5.017c0.768-0.533,1.418-1.185,1.951-1.951
	c0.647-0.188,0.746-0.927,1.393-1.115c0.675-0.439,1.233-0.997,1.672-1.672c0.648-0.189,0.747-0.927,1.394-1.115
	C15.155,116.566,15.806,115.915,16.339,115.147z"/>
<path fill-rule="evenodd" clip-rule="evenodd" fill="#191919" d="M14.388,117.098c0.533-0.768,1.184-1.418,1.951-1.951
	C15.806,115.915,15.155,116.566,14.388,117.098z"/>
<path fill-rule="evenodd" clip-rule="evenodd" fill="#191919" d="M11.322,119.885c0.44-0.675,0.998-1.232,1.672-1.672
	C12.555,118.888,11.997,119.446,11.322,119.885z"/>
<path fill-rule="evenodd" clip-rule="evenodd" fill="#191919" d="M7.978,122.952c0.533-0.769,1.183-1.419,1.951-1.951
	C9.396,121.767,8.746,122.418,7.978,122.952z"/>
<path fill-rule="evenodd" clip-rule="evenodd" fill="#191919" d="M49.227,129.083c0.347-0.583,0.812-1.048,1.395-1.394
	C50.274,128.273,49.81,128.736,49.227,129.083z"/>
<path fill-rule="evenodd" clip-rule="evenodd" fill="#787878" d="M66.786,87.833c0.859,0.627,1.603,1.37,2.229,2.23
	C68.154,89.437,67.411,88.694,66.786,87.833z"/>
<path fill-rule="evenodd" clip-rule="evenodd" fill="#191919" d="M64.835,85.604c-1.188-0.763-1.877-2.024-3.065-2.788
	c-0.054-0.225-0.28-0.277-0.28-0.557C62.722,83.258,63.837,84.372,64.835,85.604z"/>
<path fill-rule="evenodd" clip-rule="evenodd" fill="#333333" d="M58.424,79.193c0.954,0.721,1.789,1.556,2.509,2.509
	C59.98,80.982,59.144,80.147,58.424,79.193z"/>
<path fill-rule="evenodd" clip-rule="evenodd" fill="#333333" d="M50.899,71.668c2.532,2.299,4.946,4.715,7.246,7.246
	C55.613,76.615,53.199,74.2,50.899,71.668z"/>
<path fill-rule="evenodd" clip-rule="evenodd" fill="#191919" d="M51.178,69.438c0.438-0.675,0.998-1.232,1.673-1.672
	C52.41,68.442,51.853,68.999,51.178,69.438z"/>
<path fill-rule="evenodd" clip-rule="evenodd" fill="#C2C2C2" d="M50.621,69.996c0.699-1.438,1.923-2.351,3.064-3.344
	c-0.082,0.568-0.753,0.546-0.835,1.115c-0.675,0.44-1.234,0.997-1.673,1.672C51.054,69.687,50.934,69.937,50.621,69.996z"/>
<path fill-rule="evenodd" clip-rule="evenodd" fill="#787878" d="M53.686,66.651c0.813-1.045,1.741-1.975,2.787-2.787
	C55.661,64.91,54.731,65.839,53.686,66.651z"/>
<path fill-rule="evenodd" clip-rule="evenodd" fill="#333333" d="M56.473,63.865c0.48-0.914,1.473-1.317,1.951-2.23
	c0.093,0,0.187,0,0.278,0C58.077,62.495,57.334,63.238,56.473,63.865z"/>
<path fill-rule="evenodd" clip-rule="evenodd" fill="#191919" d="M58.702,61.635c0.72-0.953,1.557-1.79,2.509-2.509
	C60.491,60.079,59.656,60.916,58.702,61.635z"/>
<path fill-rule="evenodd" clip-rule="evenodd" fill="#C2C2C2" d="M58.424,61.635c1.185-1.417,2.486-2.718,3.902-3.902
	c-0.188,0.648-0.925,0.747-1.115,1.394c-0.952,0.719-1.789,1.556-2.509,2.509C58.61,61.635,58.517,61.635,58.424,61.635z"/>
<path fill-rule="evenodd" clip-rule="evenodd" fill="#787878" d="M62.326,57.732c1.928-2.16,3.971-4.204,6.131-6.131
	C66.529,53.761,64.486,55.805,62.326,57.732z"/>
<path fill-rule="evenodd" clip-rule="evenodd" fill="#191919" d="M61.211,17.599c-1.322-1.092-2.532-2.299-3.622-3.624
	C58.913,15.066,60.121,16.274,61.211,17.599z"/>
<path fill-rule="evenodd" clip-rule="evenodd" fill="#191919" d="M55.916,8.401C55.002,7.92,54.6,6.93,53.686,6.45
	c-0.052-0.226-0.278-0.278-0.278-0.558C54.361,6.612,55.196,7.448,55.916,8.401z"/>
<path fill-rule="evenodd" clip-rule="evenodd" fill="#333333" d="M51.734,4.22c0.676,0.44,1.234,0.997,1.673,1.672
	C52.732,5.453,52.176,4.896,51.734,4.22z"/>
<path fill-rule="evenodd" clip-rule="evenodd" fill="#787878" d="M50.621,3.105c0.49,0.251,0.863,0.624,1.113,1.115
	C51.244,3.968,50.873,3.597,50.621,3.105z"/>
<path fill-rule="evenodd" clip-rule="evenodd" fill="#C2C2C2" d="M53.686,6.45c0.914,0.48,1.316,1.47,2.23,1.951
	c0,0.093,0,0.186,0,0.279C55.057,8.053,54.313,7.31,53.686,6.45z"/>
<path fill-rule="evenodd" clip-rule="evenodd" fill="#C2C2C2" d="M57.589,13.975c1.09,1.324,2.3,2.532,3.622,3.624
	c0.669,1.096,1.839,1.69,2.508,2.787c-2.063-2.167-4.588-3.907-6.408-6.41c-0.045-0.061,0.033-0.212,0-0.279
	C57.547,13.645,57.572,13.805,57.589,13.975z"/>
<path fill-rule="evenodd" clip-rule="evenodd" fill="#C2C2C2" d="M61.77,82.816c1.188,0.764,1.877,2.025,3.065,2.788
	c0.48,0.912,1.471,1.316,1.951,2.229C64.997,86.277,63.324,84.605,61.77,82.816z"/>
<path fill-rule="evenodd" clip-rule="evenodd" fill="#C2C2C2" d="M46.718,120.721c-0.625-0.86-1.368-1.604-2.229-2.229
	c0-0.093,0-0.187,0-0.278c1.046,0.813,1.976,1.741,2.789,2.787C47.051,120.947,46.999,120.72,46.718,120.721z"/>
<path fill-rule="evenodd" clip-rule="evenodd" fill="#C2C2C2" d="M35.013,98.146c0.492,0.252,0.863,0.623,1.115,1.114
	C35.636,99.008,35.264,98.637,35.013,98.146z"/>
<path fill-rule="evenodd" clip-rule="evenodd" fill="#C2C2C2" d="M10.208,34.042c0.86-0.626,1.603-1.37,2.23-2.23
	c0.733-0.289,0.938-1.105,1.672-1.394c-1.184,1.417-2.485,2.718-3.902,3.902C10.208,34.228,10.208,34.135,10.208,34.042z"/>
<path fill-rule="evenodd" clip-rule="evenodd" fill="#C2C2C2" d="M16.897,21.222c1.231-0.999,2.346-2.113,3.344-3.345
	c0.237,0.051,0.262-0.109,0.278-0.278c1.789-1.556,3.461-3.229,5.017-5.017c0.397-0.067,0.47-0.459,0.836-0.558
	c-3.042,3.275-6.202,6.434-9.476,9.476C16.897,21.407,16.897,21.315,16.897,21.222z"/>
<path fill-rule="evenodd" clip-rule="evenodd" fill="#C2C2C2" d="M32.226,9.516c1.462-1.696,3.042-3.275,4.738-4.738
	c-0.082,0.568-0.754,0.546-0.836,1.115c-1.231,0.998-2.347,2.113-3.345,3.344C32.775,9.508,32.442,9.453,32.226,9.516z"/>
<path fill-rule="evenodd" clip-rule="evenodd" fill="#333333" d="M30.832,11.188c0.346-0.583,0.811-1.048,1.394-1.394
	C31.879,10.377,31.415,10.842,30.832,11.188z"/>
<path fill-rule="evenodd" clip-rule="evenodd" fill="#333333" d="M27.487,14.532c0.44-0.675,0.997-1.232,1.672-1.672
	C28.72,13.535,28.163,14.093,27.487,14.532z"/>
<path fill-rule="evenodd" clip-rule="evenodd" fill="#787878" d="M18.847,23.451c0.379-0.989,1.237-1.778,1.951-2.508
	c2.015-2.058,4.43-4.226,6.689-6.41C24.766,17.665,21.57,20.32,18.847,23.451z"/>
<path fill-rule="evenodd" clip-rule="evenodd" fill="#C2C2C2" d="M14.388,33.763c0.626-0.86,1.369-1.604,2.229-2.229
	C15.992,32.394,15.249,33.137,14.388,33.763z"/>
<path fill-rule="evenodd" clip-rule="evenodd" fill="#787878" d="M12.158,35.993c0.626-0.86,1.37-1.604,2.23-2.23
	C13.762,34.624,13.019,35.367,12.158,35.993z"/>
<path fill-rule="evenodd" clip-rule="evenodd" fill="#787878" d="M36.964,96.473c0.491,0.253,0.863,0.624,1.115,1.115
	C37.587,97.337,37.216,96.965,36.964,96.473z"/>
<path fill-rule="evenodd" clip-rule="evenodd" fill="#333333" d="M46.718,116.819c0.768,0.534,1.419,1.185,1.951,1.951
	C47.902,118.238,47.251,117.586,46.718,116.819z"/>
<path fill-rule="evenodd" clip-rule="evenodd" fill="#C2C2C2" d="M67.064,91.736c-0.953-0.72-1.789-1.556-2.508-2.509
	C65.51,89.947,66.346,90.783,67.064,91.736z"/>
<path fill-rule="evenodd" clip-rule="evenodd" fill="#787878" d="M57.867,82.538c2.346,2.114,4.575,4.344,6.689,6.689
	C62.21,87.114,59.98,84.883,57.867,82.538z"/>
<path fill-rule="evenodd" clip-rule="evenodd" fill="#787878" d="M56.473,81.144c0.493,0.252,0.863,0.623,1.116,1.115
	C57.098,82.008,56.725,81.636,56.473,81.144z"/>
<path fill-rule="evenodd" clip-rule="evenodd" fill="#333333" d="M48.669,73.34c2.16,1.928,4.203,3.972,6.133,6.131
	C52.641,77.544,50.597,75.5,48.669,73.34z"/>
<path fill-rule="evenodd" clip-rule="evenodd" fill="#787878" d="M49.227,67.487c0.532-0.768,1.184-1.418,1.951-1.95
	C50.645,66.304,49.994,66.955,49.227,67.487z"/>
<path fill-rule="evenodd" clip-rule="evenodd" fill="#C2C2C2" d="M51.178,65.537c0.188-0.648,0.926-0.747,1.116-1.394
	c0.767-0.534,1.416-1.183,1.951-1.951c0.092,0,0.184,0,0.278,0C53.523,63.423,52.41,64.538,51.178,65.537z"/>
<path fill-rule="evenodd" clip-rule="evenodd" fill="#333333" d="M54.245,62.192c0.625-0.86,1.368-1.604,2.228-2.229
	c-0.479,0.913-1.471,1.317-1.949,2.229C54.429,62.192,54.337,62.192,54.245,62.192z"/>
<path fill-rule="evenodd" clip-rule="evenodd" fill="#787878" d="M56.473,59.962c0.905-1.139,1.928-2.161,3.067-3.066
	C58.635,58.035,57.612,59.057,56.473,59.962z"/>
<path fill-rule="evenodd" clip-rule="evenodd" fill="#C2C2C2" d="M59.54,56.896c0.288-0.733,1.104-0.939,1.393-1.673
	c2.021-1.601,3.554-3.693,5.575-5.295C64.3,52.368,61.978,54.69,59.54,56.896z"/>
<path fill-rule="evenodd" clip-rule="evenodd" fill="#787878" d="M55.358,15.647c2.254,2.021,4.39,4.158,6.411,6.411
	C59.516,20.037,57.378,17.9,55.358,15.647z"/>
<path fill-rule="evenodd" clip-rule="evenodd" fill="#787878" d="M51.456,7.843c0.954,0.719,1.789,1.555,2.509,2.508
	C53.013,9.632,52.176,8.796,51.456,7.843z"/>
<path fill-rule="evenodd" clip-rule="evenodd" fill="#333333" d="M49.507,5.893c0.768,0.533,1.416,1.183,1.949,1.951
	C50.688,7.311,50.038,6.66,49.507,5.893z"/>
<path fill-rule="evenodd" clip-rule="evenodd" fill="#333333" d="M65.67,46.027c0.148-0.225,0.291-0.453,0.279-0.836
	c0.326,0.045,0.236,0.508,0.278,0.836C66.043,46.027,65.856,46.027,65.67,46.027z"/>
<path fill-rule="evenodd" clip-rule="evenodd" fill="#191919" d="M60.933,55.224c1.742-1.974,3.6-3.832,5.575-5.574
	c0,0.093,0,0.186,0,0.278C64.486,51.53,62.954,53.623,60.933,55.224z"/>
<path fill-rule="evenodd" clip-rule="evenodd" fill="#191919" d="M52.294,64.143c0.532-0.768,1.182-1.418,1.951-1.951
	C53.71,62.96,53.061,63.609,52.294,64.143z"/>
<path fill-rule="evenodd" clip-rule="evenodd" fill="#787878" d="M19.962,75.292c0.832-0.469,1.497-1.104,2.508-1.394
	c0.119,0.531,0.601,0.7,0.558,1.394c-0.677,0.531-1.828,0.588-1.951,1.672C20.595,76.517,20.261,75.921,19.962,75.292z"/>
<path fill-rule="evenodd" clip-rule="evenodd" fill="#333333" d="M29.438,12.86c0.953,0.719,1.789,1.555,2.508,2.508
	c0.979,0.049,0.917-0.941,1.672-1.115c-0.463,0.559-0.748,1.295-1.672,1.393C31.278,14.551,30.107,13.956,29.438,12.86z"/>
<path fill-rule="evenodd" clip-rule="evenodd" fill="#787878" d="M30.832,11.188c0.714,1.051,1.686,1.844,2.787,2.508
	c0,0.186,0,0.372,0,0.558c-0.755,0.173-0.693,1.164-1.672,1.115c-0.719-0.953-1.556-1.789-2.508-2.508c-0.093,0-0.186,0-0.279,0
	C29.6,12.185,30.157,11.628,30.832,11.188z"/>
<path fill-rule="evenodd" clip-rule="evenodd" fill="#191919" d="M32.783,9.237c0.999-1.231,2.114-2.346,3.345-3.344
	C35.129,7.124,34.014,8.238,32.783,9.237z"/>
<path fill-rule="evenodd" clip-rule="evenodd" fill="#191919" d="M16.617,118.77c0.534-0.767,1.184-1.417,1.952-1.951
	C18.035,117.586,17.385,118.238,16.617,118.77z"/>
<path fill-rule="evenodd" clip-rule="evenodd" fill="#191919" d="M13.552,121.557c0.44-0.675,0.997-1.232,1.672-1.672
	C14.785,120.56,14.227,121.119,13.552,121.557z"/>
<path fill-rule="evenodd" clip-rule="evenodd" fill="#191919" d="M10.208,124.624c0.533-0.768,1.183-1.419,1.951-1.951
	C11.625,123.44,10.976,124.09,10.208,124.624z"/>
<path fill-rule="evenodd" clip-rule="evenodd" fill="#191919" d="M47.277,127.131c0.438-0.675,0.995-1.231,1.671-1.672
	C48.509,126.135,47.952,126.692,47.277,127.131z"/>
<path fill-rule="evenodd" clip-rule="evenodd" fill="#191919" d="M44.488,118.492c0.861,0.626,1.604,1.369,2.229,2.229
	C45.858,120.095,45.115,119.352,44.488,118.492z"/>
<path fill-rule="evenodd" clip-rule="evenodd" fill="#191919" d="M65.67,25.959c0.647,1.212,0.097,3.62,0.279,5.295
	c-0.093,0-0.185,0-0.279,0C65.67,29.49,65.67,27.725,65.67,25.959z"/>
<path fill-rule="evenodd" clip-rule="evenodd" fill="#333333" d="M63.162,27.075c0,1.951,0,3.902,0,5.852
	c-0.646-1.396-0.097-3.992-0.278-5.852C62.976,27.075,63.07,27.075,63.162,27.075z"/>
<path fill-rule="evenodd" clip-rule="evenodd" fill="#787878" d="M68.737,44.633c0.714,0.511,1.753-0.516,2.787-0.558
	c0.387,0.171,0.042,1.073,0.557,1.115c-0.505,0.795-1.703,0.899-2.786,1.115C69.072,45.784,68.828,45.285,68.737,44.633z"/>
<path fill-rule="evenodd" clip-rule="evenodd" fill="#787878" d="M66.228,46.027c0.284,0.367,0.274,1.027,0.559,1.393
	c-1.557,0.013-2.925,1.282-3.346-0.557c0.473-0.549,1.296-0.748,2.229-0.836C65.856,46.027,66.043,46.027,66.228,46.027z"/>
<path fill-rule="evenodd" clip-rule="evenodd" fill="#787878" d="M66.786,47.699c0.455-0.126,0.455,1.519,0,1.393
	C66.786,48.628,66.786,48.164,66.786,47.699z"/>
<path fill-rule="evenodd" clip-rule="evenodd" fill="#333333" d="M14.109,66.651c-0.629-0.208-0.109-1.563-0.279-2.23
	C14.459,64.629,13.94,65.985,14.109,66.651z"/>
<path fill-rule="evenodd" clip-rule="evenodd" fill="#333333" d="M11.043,64.979c0.624,0.12,0.113,1.374,0.278,1.951
	C10.699,66.81,11.209,65.557,11.043,64.979z"/>
<path fill-rule="evenodd" clip-rule="evenodd" fill="#787878" d="M47.834,69.438c0,0.744,0,1.487,0,2.23
	C47.373,71.544,47.373,69.562,47.834,69.438z"/>
<path fill-rule="evenodd" clip-rule="evenodd" fill="#787878" d="M32.504,84.21c0-0.65,0-1.301,0-1.951
	C32.963,82.297,32.963,84.172,32.504,84.21z"/>
<path fill-rule="evenodd" clip-rule="evenodd" fill="#787878" d="M67.343,92.572c0.457-0.046,0.457,1.718,0,1.672
	C67.343,93.687,67.343,93.128,67.343,92.572z"/>
<path fill-rule="evenodd" clip-rule="evenodd" fill="#191919" d="M38.915,104.556c0.604-0.047,0.126,0.988,0.278,1.394
	C38.588,105.997,39.067,104.96,38.915,104.556z"/>
<path fill-rule="evenodd" clip-rule="evenodd" fill="#787878" d="M57.311,110.688c-0.545-1.068-3.073-1.059-1.673-2.509
	c0.771-0.661,1.702,0.887,2.786,0.837C58.02,109.541,58.016,110.463,57.311,110.688z"/>
<path fill-rule="evenodd" clip-rule="evenodd" fill="#787878" d="M60.933,110.409c0.306,0.996,1.512,1.089,2.229,1.672
	c-0.251,0.493-0.673,0.813-0.836,1.395c-0.831-0.469-1.496-1.104-2.508-1.395c0.11-0.724,0.831-0.84,0.835-1.672
	C60.746,110.409,60.84,110.409,60.933,110.409z"/>
<path fill-rule="evenodd" clip-rule="evenodd" fill="#787878" d="M49.785,119.328c0.557,0,1.114,0,1.671,0
	C51.502,119.785,49.739,119.785,49.785,119.328z"/>
<path fill-rule="evenodd" clip-rule="evenodd" fill="#FFFFFF" d="M35.291,2.826c1.41-1.284,3.123-2.266,5.575-2.508
	c0.488-0.16,1.637,0.337,1.671-0.278c3.66,0.058,6.23,1.202,8.084,3.066c0.252,0.491,0.623,0.863,1.113,1.115
	c0.441,0.675,0.998,1.232,1.673,1.672c0,0.279,0.227,0.332,0.278,0.558c0.628,0.86,1.371,1.603,2.23,2.229
	c1.312,0.825,0.903,3.37,1.395,5.017c0.033,0.067-0.045,0.218,0,0.279c1.82,2.503,4.345,4.243,6.408,6.41
	c0.897,0.497,1.415,1.374,1.673,2.509c0.167,0.577-0.345,1.831,0.278,1.951c0,0.372,0,0.743,0,1.115c0,1.765,0,3.531,0,5.295
	c0,0.372,0,0.744,0,1.115c0.024,0.441-0.132,1.063,0.279,1.115c0.389,4.258,1.767,7.524,2.788,11.148
	c0.091,0.651,0.335,1.151,0.558,1.672c0.234,0.324,0.366,0.747,0.278,1.394c0,0.557,0,1.115,0,1.672
	c0.038,1.153-0.634,1.596-1.116,2.229c-2.16,1.927-4.203,3.971-6.131,6.131c-1.416,1.185-2.718,2.485-3.902,3.902
	c-0.479,0.913-1.471,1.316-1.951,2.23c-1.046,0.812-1.974,1.741-2.787,2.787c-1.142,0.994-2.365,1.907-3.064,3.344
	c-0.055,0.226-0.281,0.278-0.279,0.558c-0.204,0.761,0.554,0.562,0.558,1.115c2.3,2.531,4.714,4.946,7.246,7.246
	c-0.052,0.237,0.108,0.263,0.278,0.278c0.72,0.954,1.557,1.789,2.509,2.509c0.069,0.303,0.555,0.189,0.557,0.558
	c0,0.279,0.227,0.332,0.28,0.557c1.555,1.789,3.228,3.461,5.017,5.017c0.625,0.861,1.368,1.604,2.229,2.23
	c0.598,0.331,0.649,1.208,1.114,1.673c0,1.021,0,2.043,0,3.065c-2.719,5.549-6.265,10.271-9.197,15.607c-0.093,0-0.187,0-0.279,0
	c-0.004,0.832-0.725,0.948-0.835,1.672c-1.739,2.907-3.332,5.961-5.295,8.641c-1.298,0.746-2.416,1.672-4.738,1.394
	c-1.065-0.144-2.09-0.326-2.508-1.114c-0.813-1.046-1.743-1.975-2.789-2.787c-1.897-2.089-3.129-5.188-4.179-7.805
	c-0.615-1.531-1.188-2.83-1.116-4.459c-0.152-0.405,0.326-1.44-0.278-1.394c-0.164-2.529-2.096-3.294-2.787-5.296
	c-0.252-0.491-0.624-0.862-1.115-1.114c-0.697,0.048-0.873-0.429-1.115-0.836c-0.48-0.722-1.051-1.318-1.672-2.229
	c-0.127-0.187-0.169-0.379-0.279-0.559c-0.16-0.258-0.427-0.352-0.557-0.557c-0.228-0.355-0.275-0.979-0.558-1.394
	c-0.086-0.127-0.457-0.146-0.558-0.279c-0.172-0.23-0.134-0.628-0.278-0.836c-1.256-1.802-3.289-3.642-1.673-6.132
	c-0.05-0.236,0.109-0.263,0.279-0.278c0.559-0.463,1.295-0.749,1.394-1.672c-0.433-1.24-1.588-1.757-1.951-3.066
	c-0.067-0.43-1.036-1.335-1.394-0.557c-0.79,0.417-1.834,0.58-2.787,0.836c-0.65,0-1.301,0-1.951,0c-0.279,0-0.558,0-0.836,0
	c-0.076-0.574-1.039-0.264-1.115-0.836c-0.252-0.492-0.624-0.864-1.115-1.115c-0.237,0.051-0.262-0.109-0.278-0.278
	c-0.299-0.631-0.633-1.227-1.115-1.673c-1.982-3.313-4.515-6.075-6.132-9.755c-0.165-0.578,0.345-1.831-0.278-1.951
	c-0.726-1.437-1.465-2.95-2.23-4.459c-1.436-2.836-3.145-5.656-4.738-8.64c-0.838-1.57-1.699-3.102-1.672-4.738
	c0.038-2.228,1.821-4.126,3.344-6.41c0.327-0.491,0.515-1.195,0.836-1.672c0.313-0.463,0.827-0.685,1.115-1.115
	c0.359-0.536,0.507-1.162,0.836-1.672c0.118-0.183,0.454-0.391,0.557-0.557c0.27-0.435,0.359-1.119,1.115-1.394
	c1.417-1.184,2.718-2.485,3.902-3.902c0.618-0.96,1.656-1.503,1.672-3.065c0.643-0.751,0.099-2.688,0.279-3.902
	c-0.008-0.936,0.384-1.474,0.836-1.951c3.274-3.042,6.433-6.201,9.476-9.476c0.082-0.568,0.754-0.546,0.836-1.115
	c0.675-0.44,1.232-0.998,1.672-1.672c0.583-0.346,1.048-0.811,1.394-1.394C32.063,6.287,33.735,4.615,35.291,2.826z M41.98,2.826
	c-2.102,0.22-3.378,1.268-5.017,1.952c-1.696,1.463-3.275,3.042-4.738,4.738c0,0.093,0,0.186,0,0.278
	c-0.583,0.346-1.048,0.811-1.394,1.394c-0.675,0.44-1.232,0.997-1.672,1.672c-0.675,0.44-1.232,0.997-1.672,1.672
	c-2.259,2.184-4.674,4.353-6.689,6.41c-0.714,0.73-1.572,1.52-1.951,2.508c-0.632,0.297-0.106,1.752-0.278,2.509
	c0,0.372,0,0.744,0,1.115c-0.062,2.074-0.717,3.557-1.952,4.459c-0.86,0.626-1.603,1.37-2.229,2.229
	c-0.86,0.626-1.604,1.37-2.23,2.23c-0.208,0.375-0.35,0.844-0.557,1.115c-0.579,0.757-1.557,1.875-1.951,2.508
	c-0.157,0.252-0.098,0.569-0.278,0.836c-0.315,0.463-0.826,0.683-1.115,1.115c-0.167,0.249-0.145,0.62-0.279,0.836
	C7.128,43.77,5.169,45.919,5.19,47.42c0.011,0.773,1.107,2.841,1.394,3.345c0.144,0.252,0.691,0.566,0.836,0.836
	c0.344,0.64,0.511,1.623,0.836,2.23c0.432,0.805,1.069,1.337,1.394,1.951c0.37,0.697,0.492,1.587,0.836,2.23
	c0.385,0.719,1.041,1.285,1.394,1.951c0.778,1.467,1.297,3.013,1.951,4.459c0.17,0.667-0.35,2.022,0.279,2.23
	c2.063,2.769,3.883,5.778,5.853,8.64c0.299,0.63,0.632,1.226,1.115,1.672c0.767,1.557,3.373,0.554,4.738,0.279
	c0.743,0,1.487,0,2.23,0c0.864-0.312,1.037,0.522,1.394,0.837c1.24,1.092,2.486,2.709,3.066,4.18c0,0.65,0,1.301,0,1.951
	c-0.046,1.719-1.944,1.587-1.951,3.344c2.121,2.99,3.823,6.396,6.411,8.919c0.252,0.492,0.623,0.864,1.115,1.115
	c1.404,2.032,3.306,3.568,3.622,6.689c0.161,0.489-0.336,1.637,0.279,1.672c-0.043,1.467,0.429,2.102,0.837,3.066
	c0.699,1.655,1.362,2.902,1.949,4.18c0.735,1.597,1.114,2.687,1.951,3.623c0.533,0.768,1.185,1.419,1.951,1.951
	c0.413,0.146,0.704,0.413,1.116,0.558c-0.046,0.457,1.717,0.457,1.671,0c1.15-0.345,1.936-1.826,2.509-2.787
	c0.685-1.145,1.342-2.277,1.951-3.345c0.559-0.976,1.172-1.943,1.395-2.508c0.705-0.225,0.709-1.147,1.113-1.672
	c2.903-4.995,6.095-9.701,8.919-14.772c0.457,0.046,0.457-1.718,0-1.672c-0.016-0.356-0.356-0.386-0.278-0.836
	c-0.719-0.953-1.555-1.789-2.508-2.509c-2.114-2.346-4.344-4.575-6.689-6.689c-0.171-0.015-0.331-0.041-0.278-0.278
	c-0.253-0.492-0.623-0.863-1.116-1.115c-0.675-0.439-1.232-0.996-1.671-1.673c-1.93-2.159-3.973-4.203-6.133-6.131
	c-0.248-0.588-0.849-0.823-0.835-1.672c0-0.743,0-1.486,0-2.23c0.24-0.873,0.689-1.539,1.393-1.951
	c0.768-0.533,1.418-1.183,1.951-1.95c1.232-0.999,2.346-2.114,3.346-3.345c0.479-0.913,1.471-1.316,1.949-2.229
	c1.14-0.905,2.162-1.928,3.067-3.066c2.438-2.207,4.76-4.529,6.968-6.968c0-0.092,0-0.185,0-0.278
	c-0.002-0.279,0.225-0.332,0.278-0.558c0.455,0.126,0.455-1.519,0-1.393c0-0.093,0-0.186,0-0.279
	c-0.284-0.366-0.274-1.026-0.559-1.393c-0.042-0.328,0.048-0.791-0.278-0.836c-1.099-3.917-2.48-7.553-2.787-12.264
	c0-1.95,0-3.901,0-5.852c-0.175-0.848,0.356-2.401-0.278-2.788c-0.131-0.984-0.703-1.525-1.114-2.229
	c-2.021-2.253-4.157-4.39-6.411-6.411c-1.157-1.071-0.763-3.697-1.394-5.295c-0.72-0.953-1.555-1.789-2.509-2.508
	c-0.533-0.768-1.182-1.418-1.949-1.951c-1.545-1.522-3.273-2.859-6.133-3.066C43.499,2.371,41.855,2.371,41.98,2.826z"/>
<path fill-rule="evenodd" clip-rule="evenodd" fill="#333333" d="M16.061,23.451c-0.18,1.214,0.364,3.151-0.279,3.902
	C15.961,26.14,15.418,24.203,16.061,23.451z"/>
<path fill-rule="evenodd" clip-rule="evenodd" fill="#333333" d="M69.573,47.699c0.456-0.046,0.456,1.718,0,1.672
	C69.573,48.814,69.573,48.256,69.573,47.699z"/>
<path fill-rule="evenodd" clip-rule="evenodd" fill="#333333" d="M21.914,80.587c0.65,0,1.301,0,1.951,0
	C23.827,81.045,21.951,81.045,21.914,80.587z"/>
<path fill-rule="evenodd" clip-rule="evenodd" fill="#333333" d="M70.13,94.801c0-1.022,0-2.044,0-3.065
	C70.593,92.126,70.593,94.411,70.13,94.801z"/>
<path fill-rule="evenodd" clip-rule="evenodd" fill="#333333" d="M41.701,104.278c0.615,0.035,0.118,1.182,0.279,1.672
	C41.365,105.915,41.862,104.767,41.701,104.278z"/>
<path fill-rule="evenodd" clip-rule="evenodd" fill="#C2C2C2" d="M65.392,22.894c0.623,0.12,0.114,1.373,0.278,1.951
	C65.047,24.725,65.559,23.471,65.392,22.894z"/>
<path fill-rule="evenodd" clip-rule="evenodd" fill="#C2C2C2" d="M25.815,77.243c0.124-0.461,2.106-0.461,2.23,0
	C27.302,77.243,26.558,77.243,25.815,77.243z"/>
<path fill-rule="evenodd" clip-rule="evenodd" fill="#787878" d="M40.866,0.318C40.9-0.297,42.048,0.2,42.537,0.04
	C42.503,0.655,41.354,0.158,40.866,0.318z"/>
<path fill-rule="evenodd" clip-rule="evenodd" fill="#333333" d="M18.847,23.451c0,0.836,0,1.673,0,2.509c-0.093,0-0.185,0-0.278,0
	C18.741,25.203,18.215,23.748,18.847,23.451z"/>
<path fill-rule="evenodd" clip-rule="evenodd" fill="#787878" d="M17.454,76.685c0.482,0.446,0.816,1.042,1.115,1.673
	c-0.967,0.24-1.547,0.868-2.23,1.394c-0.716-0.027-0.398-1.088-1.115-1.115C15.692,77.71,17.069,77.694,17.454,76.685z"/>
</svg>
