<?xml version="1.0" encoding="utf-8"?>
<!-- Generator: Adobe Illustrator 15.0.0, SVG Export Plug-In  -->
<!DOCTYPE svg PUBLIC "-//W3C//DTD SVG 1.1//EN" "http://www.w3.org/Graphics/SVG/1.1/DTD/svg11.dtd" [
	<!ENTITY ns_flows "http://ns.adobe.com/Flows/1.0/">
]>
<svg version="1.1"
	 xmlns="http://www.w3.org/2000/svg" xmlns:xlink="http://www.w3.org/1999/xlink" xmlns:a="http://ns.adobe.com/AdobeSVGViewerExtensions/3.0/"
	 x="0px" y="0px" width="142px" height="142px" viewBox="-36.242 -2.326 142 142" enable-background="new -36.242 -2.326 142 142"
	 xml:space="preserve">
<defs>
</defs>
<path fill-rule="evenodd" clip-rule="evenodd" fill="#A6A6A6" d="M6.122,133.251c0.2,0.451-1.314,0.451-1.115,0
	C5.379,133.251,5.75,133.251,6.122,133.251z"/>
<path fill-rule="evenodd" clip-rule="evenodd" fill="#323232" d="M19.222,133.251c0.457-0.046,0.457,1.717,0,1.672
	C19.222,134.365,19.222,133.808,19.222,133.251z"/>
<path fill-rule="evenodd" clip-rule="evenodd" fill="#323232" d="M20.894,133.53c-0.16,0.49,0.337,1.637-0.279,1.672
	C20.776,134.711,20.278,133.565,20.894,133.53z"/>
<path fill-rule="evenodd" clip-rule="evenodd" fill="#737373" d="M16.434,113.741c0.221,0.979,0.976,0.322,1.394,0
	c-0.156,0.402-0.435,0.681-0.836,0.836c-0.492,0.252-0.863,0.624-1.115,1.116c-0.226,0.053-0.278,0.279-0.558,0.278
	c0-0.094,0-0.187,0-0.278c-0.252-0.492-0.624-0.864-1.115-1.116c-0.44-0.675-0.997-1.232-1.672-1.672
	c0.46-0.392,1.415-1.723,1.951-1.115C15.017,112.557,15.667,113.208,16.434,113.741z"/>
<path fill-rule="evenodd" clip-rule="evenodd" fill="#323232" d="M14.484,111.79c0.768,0.533,1.418,1.185,1.95,1.951
	C15.667,113.208,15.017,112.557,14.484,111.79z"/>
<path fill-rule="evenodd" clip-rule="evenodd" fill="#323232" d="M14.205,114.577c0.491,0.252,0.863,0.624,1.115,1.116
	C14.829,115.44,14.457,115.069,14.205,114.577z"/>
<path fill-rule="evenodd" clip-rule="evenodd" fill="#323232" d="M11.697,119.315c0.346-0.582,0.811-1.048,1.394-1.393
	C12.744,118.504,12.28,118.969,11.697,119.315z"/>
<path fill-rule="evenodd" clip-rule="evenodd" fill="#323232" d="M8.63,122.102c0.252-0.491,0.624-0.863,1.115-1.114
	C9.494,121.479,9.123,121.851,8.63,122.102z"/>
<path fill-rule="evenodd" clip-rule="evenodd" fill="#323232" d="M22.845,78.067c-0.756,0.45-1.571,0.844-1.951,1.672
	c-0.271,0.007-0.216,0.34-0.279,0.557c-2.213-1.458-3.544-3.924-5.017-6.132c-1.5-2.247-2.819-4.639-4.46-6.689
	c0.234-2.363-0.491-3.33-1.393-5.017c-1.03-1.926-2.205-4.313-3.345-6.411c-0.743-1.366-1.74-2.713-2.508-4.18
	c-0.787-1.504-1.675-3.288-1.672-4.738c0.004-2.632,2.912-5.727,4.459-8.083c0.782-1.191,1.606-2.442,2.509-3.624
	c0.153-0.201,0.102-0.62,0.278-0.836c0.737-0.901,2.172-1.893,3.344-3.065c1.019-1.019,2.464-2.351,2.788-3.344
	c0.608-1.866-0.249-3.989,0.279-5.575c0.511-1.536,3.578-4.135,5.295-5.853c2.489-2.489,4.729-4.152,6.968-6.689
	c0.445-0.503,0.643-1.157,1.115-1.672c1.603-1.751,3.593-3.624,5.574-5.295c2.007-1.692,4.389-3.324,8.641-3.066
	c1.818,0.11,3.78,0.904,5.016,1.672c0.425,0.264,0.844,0.471,1.395,0.836c0.737,0.489,1.691,1.62,2.509,2.508
	c1.513,1.647,3.257,3.054,3.9,4.459c0.457,0.997,0.339,2.688,0.838,3.902c0.819,1.996,2.963,3.243,4.459,4.738
	c1.102,1.102,3.462,3.064,3.9,5.017c0.569,2.521-0.166,5.052,0,8.083c0.154,2.759,0.689,5.832,1.395,8.361
	c0.403,1.446,1.148,3.489,1.673,5.295c0.463,1.603,1.156,2.945,0.836,4.738c-0.323,1.802-2.854,3.967-4.46,5.574
	c-3.681,3.682-6.638,6.569-10.033,10.034c-1.589,1.62-3.271,3.208-4.738,5.296c1.171,2.367,3.232,3.789,5.017,5.574
	c3.521,3.52,6.588,6.589,10.591,10.592c1.729,1.727,4.287,3.929,4.459,6.131c0.221,2.81-3.167,6.921-4.738,9.477
	c-0.256,0.42-0.404,0.943-0.835,1.394c-0.272,0.283-0.691,1.559-1.116,2.229c-0.065,0.108-0.515,0.186-0.557,0.278
	c-0.064,0.144,0.086,0.43,0,0.558c-0.068,0.104-0.517,0.188-0.557,0.279c-0.822,1.82-2.24,3.963-3.344,5.853
	c-0.249,0.425-0.407,0.944-0.838,1.394c-0.269,0.281-0.709,1.548-1.113,2.229c-0.621,1.046-1.473,2.151-2.23,3.345
	c-0.396,0.623-0.928,1.218-1.115,1.672c-0.531,1.288-0.577,3.581-1.114,4.46c-0.621,1.019-2.166,1.518-3.344,2.508
	c-0.104-1.104,0.255-2.671-0.28-3.345c0.761,0.203,0.561-0.554,1.115-0.557c0.682-1.364,0.387-2.441,0.836-3.623
	c0.408-1.075,1.438-2.05,2.229-3.345c0.358-0.585,0.457-1.307,0.838-1.95c0.065-0.114,0.513-0.184,0.557-0.28
	c1.747-3.878,4.602-7.928,6.968-11.705c0.345-0.554,0.728-1.021,1.114-1.672c0.311-0.521,0.469-1.338,0.835-1.952
	c0.068-0.111,0.515-0.183,0.56-0.278c0.395-0.878,1.052-2.058,1.671-3.066c0.871-1.414,1.767-2.52,1.673-3.623
	c-0.119-1.393-3.845-4.68-5.017-5.853c-3.973-3.973-6.766-6.688-10.591-10.591c-1.78-1.815-4.489-3.937-4.459-6.132
	c0.03-2.296,2.765-4.159,4.459-5.853c3.751-3.75,6.502-7.061,10.033-10.591c1.745-1.745,3.715-3.114,5.017-5.295
	c-1.1-4.734-3.224-9.292-3.902-14.493c-0.447-3.439-0.135-6.939-0.278-10.87c-1.345-1.432-2.694-2.972-4.182-4.459
	c-2.165-2.167-4.714-3.443-4.457-8.083c-1.122-1.457-2.509-2.445-3.624-3.902c-0.571-0.746-1.682-1.715-2.509-2.508
	c-0.136-0.129-0.707-0.338-1.116-0.557c-1.632-0.881-4.644-1.807-7.803-0.558c-0.194,0.077-0.356,0.565-0.836,0.836
	c-0.334,0.189-0.805,0.048-1.115,0.278c-0.768,0.57-1.619,1.619-2.508,2.508c-2.279,2.279-4.43,4.611-6.968,7.247
	c-1.408,1.461-3.13,3.13-4.738,4.738c-1.84,1.839-4.191,4.043-4.459,5.017c-0.371,1.345,0.197,3.506,0,4.459
	c-0.352,1.707-1.819,3.186-3.066,4.459c-1.55,1.585-3.354,2.937-4.738,5.017c-0.735,1.105-1.681,2.648-2.509,3.902
	c-1.213,1.837-3.029,3.743-3.066,5.295c-0.025,1.083,1.111,2.883,1.951,4.459c1.556,2.92,2.857,5.354,4.459,8.361
	c0.84,1.578,1.907,2.999,2.229,4.181c0.234,0.856,0.126,1.612,0.279,2.508c2.137,2.89,3.815,6.141,6.132,9.198
	C20.764,76.768,21.319,78.091,22.845,78.067z"/>
<path fill-rule="evenodd" clip-rule="evenodd" fill="#D7D7D7" d="M44.305,136.038c0.252-0.491,0.625-0.863,1.116-1.114
	C45.387,135.632,45.014,136.004,44.305,136.038z"/>
<path fill-rule="evenodd" clip-rule="evenodd" fill="#D7D7D7" d="M15.877,115.693c0.251-0.492,0.623-0.864,1.115-1.116
	C16.74,115.069,16.369,115.44,15.877,115.693z"/>
<path fill-rule="evenodd" clip-rule="evenodd" fill="#A6A6A6" d="M28.419,85.034c0.251-0.491,0.623-0.863,1.115-1.115
	C29.282,84.411,28.911,84.782,28.419,85.034z"/>
<path fill-rule="evenodd" clip-rule="evenodd" fill="#323232" d="M26.748,85.87c0.568,0.561,0.546-0.123,1.114-0.278
	c-0.234,0.323-0.368,0.747-0.278,1.394C27.207,86.711,27.026,86.241,26.748,85.87z"/>
<path fill-rule="evenodd" clip-rule="evenodd" fill="#A6A6A6" d="M17.55,117.643c0.533-0.768,1.183-1.419,1.951-1.95
	c-0.099,0.365-0.491,0.438-0.558,0.835C18.295,116.716,18.197,117.455,17.55,117.643z"/>
<path fill-rule="evenodd" clip-rule="evenodd" fill="#D7D7D7" d="M15.877,119.036c0.251-0.49,0.623-0.862,1.115-1.113
	c-0.083,0.567-0.754,0.546-0.836,1.113C16.063,119.036,15.971,119.036,15.877,119.036z"/>
<path fill-rule="evenodd" clip-rule="evenodd" fill="#323232" d="M13.09,121.824c0.346-0.583,0.81-1.048,1.394-1.394
	C14.137,121.012,13.673,121.477,13.09,121.824z"/>
<path fill-rule="evenodd" clip-rule="evenodd" fill="#323232" d="M9.746,124.889c0.346-0.583,0.811-1.047,1.393-1.394
	C10.793,124.079,10.329,124.543,9.746,124.889z"/>
<path fill-rule="evenodd" clip-rule="evenodd" fill="#737373" d="M39.567,114.856c-0.225-0.053-0.276-0.279-0.557-0.279
	c-0.575,0.367-1.802,1.524-2.509,0.836c-0.053-0.225-0.279-0.277-0.278-0.557c0.11-1.284,2.12-0.667,2.23-1.951
	c0.729,0.198,0.266,1.591,1.113,1.672C39.567,114.669,39.567,114.763,39.567,114.856z"/>
<path fill-rule="evenodd" clip-rule="evenodd" fill="#323232" d="M16.156,119.036c0.082-0.567,0.754-0.546,0.836-1.113
	c0.093,0,0.186,0,0.278,0C17.019,118.413,16.647,118.785,16.156,119.036z"/>
<path fill-rule="evenodd" clip-rule="evenodd" fill="#323232" d="M17.55,118.201c0.768,0.533,1.418,1.183,1.951,1.95
	C18.733,119.618,18.083,118.968,17.55,118.201z"/>
<path fill-rule="evenodd" clip-rule="evenodd" fill="#323232" d="M20.058,120.708c0.494-0.439,1.708-0.997,1.114-1.673
	C22.501,119.301,20.229,121.134,20.058,120.708z"/>
<path fill-rule="evenodd" clip-rule="evenodd" fill="#737373" d="M18.943,116.528c0.904,0.675,1.459,1.699,2.229,2.508
	c0.594,0.676-0.621,1.233-1.114,1.673c-0.248-0.124-0.499-0.245-0.558-0.558c-0.533-0.768-1.183-1.417-1.951-1.95
	c0.051-0.237-0.109-0.264-0.279-0.278c-0.051-0.237,0.109-0.264,0.279-0.279C18.197,117.455,18.295,116.716,18.943,116.528z"/>
<path fill-rule="evenodd" clip-rule="evenodd" fill="#737373" d="M19.5,130.463c0.542-0.759-0.392-2.993,1.115-2.787
	c1.154-0.039,0.29,1.939,0.557,2.787c0.442,0.023,1.063-0.134,1.115,0.278c-0.465,0-0.929,0-1.394,0
	C20.941,130.138,19.906,130.616,19.5,130.463z"/>
<path fill-rule="evenodd" clip-rule="evenodd" fill="#737373" d="M25.911,76.951c-0.389,0.541-1.443,0.416-1.952,0.836
	c0.985-0.858-1.643-2.941,0.279-3.065C25.341,73.964,25.169,76.462,25.911,76.951z"/>
<path fill-rule="evenodd" clip-rule="evenodd" fill="#A6A6A6" d="M20.615,80.295c0.063-0.217,0.008-0.55,0.279-0.557
	c-0.023,0.44,0.134,1.063-0.279,1.114C20.615,80.667,20.615,80.482,20.615,80.295z"/>
<path fill-rule="evenodd" clip-rule="evenodd" fill="#323232" d="M35.108,95.346c0.636,0.387,0.104,1.94,0.279,2.787
	C34.751,97.747,35.283,96.193,35.108,95.346z"/>
<path fill-rule="evenodd" clip-rule="evenodd" fill="#A6A6A6" d="M37.059,106.215c0-0.371,0-0.743,0-1.115
	C37.511,104.901,37.511,106.415,37.059,106.215z"/>
<path fill-rule="evenodd" clip-rule="evenodd" fill="#737373" d="M41.797,113.462c-0.489-0.254-0.51-0.977-0.836-1.395
	c1.032-0.013,2.761-2.103,3.065-0.278C44.595,112.705,42.42,112.854,41.797,113.462z"/>
<path fill-rule="evenodd" clip-rule="evenodd" fill="#737373" d="M16.156,130.185c0.757,0.172,2.212-0.354,2.508,0.278
	C17.908,130.292,16.452,130.817,16.156,130.185z"/>
<path fill-rule="evenodd" clip-rule="evenodd" fill="#D7D7D7" d="M19.5,130.463c0.405,0.152,1.44-0.325,1.394,0.278
	c-0.49-0.16-1.637,0.338-1.672-0.278C19.315,130.463,19.407,130.463,19.5,130.463z"/>
<path fill-rule="evenodd" clip-rule="evenodd" fill="#737373" d="M23.402,130.742c0.757,0.174,2.212-0.354,2.509,0.28
	C25.155,130.848,23.699,131.375,23.402,130.742z"/>
<path fill-rule="evenodd" clip-rule="evenodd" fill="#737373" d="M27.304,131.022c0.667,0.169,2.022-0.352,2.23,0.278
	C28.868,131.129,27.512,131.65,27.304,131.022z"/>
<path fill-rule="evenodd" clip-rule="evenodd" fill="#737373" d="M30.649,131.3c0.756,0.172,2.212-0.354,2.508,0.278
	C32.401,131.406,30.945,131.932,30.649,131.3z"/>
<path fill-rule="evenodd" clip-rule="evenodd" fill="#737373" d="M13.926,132.693c0.667,0.17,2.022-0.349,2.229,0.279
	C15.489,132.802,14.134,133.322,13.926,132.693z"/>
<path fill-rule="evenodd" clip-rule="evenodd" fill="#737373" d="M17.55,132.972c1.426-0.219,2.024,0.391,3.344,0.279
	c0,0.092,0,0.186,0,0.278c-0.616,0.035-0.118,1.182-0.279,1.672c0,0.278,0,0.558,0,0.836c-0.464,0-0.929,0-1.393,0
	c0-0.371,0-0.743,0-1.114c0.457,0.045,0.457-1.718,0-1.672C18.732,133.09,17.584,133.587,17.55,132.972z"/>
<path fill-rule="evenodd" clip-rule="evenodd" fill="#737373" d="M21.172,133.251c0.757,0.172,2.212-0.354,2.509,0.278
	C22.925,133.357,21.469,133.883,21.172,133.251z"/>
<path fill-rule="evenodd" clip-rule="evenodd" fill="#737373" d="M24.796,133.53c0.756,0.172,2.212-0.354,2.508,0.278
	C26.548,133.636,25.093,134.162,24.796,133.53z"/>
<path fill-rule="evenodd" clip-rule="evenodd" fill="#737373" d="M28.419,133.808c0.756,0.173,2.211-0.354,2.508,0.278
	C30.171,133.915,28.716,134.44,28.419,133.808z"/>
<path fill-rule="evenodd" clip-rule="evenodd" fill="#737373" d="M32.043,134.086c0.577,0.166,1.831-0.345,1.95,0.278
	C33.416,134.2,32.163,134.709,32.043,134.086z"/>
<path fill-rule="evenodd" clip-rule="evenodd" fill="#323232" d="M38.732,134.086c1.208,0,2.416,0,3.622,0
	C41.783,134.549,39.302,134.549,38.732,134.086z"/>
<path fill-rule="evenodd" clip-rule="evenodd" fill="#323232" d="M38.454,136.874c1.3,0,2.6,0,3.9,0
	C41.693,137.337,39.117,137.337,38.454,136.874z"/>
<path fill-rule="evenodd" clip-rule="evenodd" fill="#FFFFFF" d="M23.959,77.787c0.509-0.42,1.563-0.295,1.952-0.836
	c2.617-0.572,3.574,1.259,4.738,2.788c0.698,0.917,1.889,1.733,1.672,2.786c0,0.559,0,1.115,0,1.673
	c-0.046,1.719-1.944,1.587-1.951,3.344c0.896,1.326,1.624,2.575,2.509,3.902c0.746,1.118,2.039,2.263,2.229,3.902
	c0.175,0.847-0.356,2.4,0.279,2.787c0.481,0.455,0.675,1.104,1.115,1.672c0.953,1.231,2.991,2.921,3.344,5.017
	c0.213,1.253-0.462,2.636-0.278,3.903c0.205,1.391,1.473,1.961,1.395,3.343c0.326,0.418,0.347,1.141,0.836,1.395
	c1.889,4.429,5.375,7.261,7.246,11.705c0.535,0.674,0.176,2.24,0.28,3.345c-1.002,2.438-2.376,4.501-3.902,6.411
	c-0.491,0.251-0.864,0.623-1.116,1.114c-0.28,0.648-0.96,0.899-1.951,0.836c-1.301,0-2.601,0-3.9,0
	c-2.37,0.047-2.837-1.81-4.46-2.509c-0.12-0.623-1.374-0.112-1.95-0.278c-0.372,0-0.743,0-1.116,0
	c-0.296-0.632-1.751-0.105-2.508-0.278c-0.372,0-0.744,0-1.115,0c-0.296-0.632-1.752-0.106-2.508-0.278c-0.372,0-0.743,0-1.115,0
	c-0.296-0.633-1.752-0.106-2.509-0.278c-0.093,0-0.186,0-0.278,0c-1.32,0.111-1.918-0.498-3.344-0.279c-0.465,0-0.93,0-1.394,0
	c-0.207-0.628-1.563-0.109-2.229-0.279c-3.454-0.202-4.11,2.394-6.689,3.066c-1.115,0-2.23,0-3.345,0c-0.186,0-0.372,0-0.558,0
	c-4.192-1.849-4.388-7.827-0.836-10.034c0.869-0.539,2.106-0.603,3.066-1.114c1.482-0.79,2.066-1.896,3.065-2.509
	c0.492-0.251,0.863-0.623,1.115-1.114c0.823-0.386,1.129-1.287,1.951-1.673c0.583-0.346,1.047-0.811,1.394-1.393
	c0.913-0.48,1.316-1.472,2.229-1.951c0.28,0.001,0.332-0.226,0.558-0.278c0.491-0.253,0.863-0.624,1.115-1.116
	c0.401-0.155,0.68-0.434,0.836-0.836c0.22-0.989,1.097-1.487,1.672-2.229c0.168-0.216,0.096-0.593,0.279-0.836
	c0.107-0.144,0.455-0.145,0.557-0.279c0.682-0.896,1.408-1.992,2.23-3.065c0.516-0.675,1.177-1.309,1.672-1.95
	c1.105-1.435,1.932-2.988,3.065-4.46c0.494-0.642,1.188-1.258,1.672-1.951c0.544-0.778,1.041-1.343,1.394-2.23
	c-0.252-1.184-0.91-2.244-1.672-3.343c-0.069-0.101-0.518-0.191-0.558-0.28c-0.31-0.688-0.795-1.626-1.393-2.508
	c-0.699-1.028-1.202-1.588-1.952-2.788c-1.243-1.988-3.395-4.198-4.181-6.967c0.413-0.052,0.256-0.674,0.279-1.114
	c0.38-0.828,1.195-1.222,1.951-1.672C23.093,77.849,23.474,77.766,23.959,77.787z M26.748,79.739
	c-0.728,0.107-1.53,0.143-1.952,0.557c-0.377,0.088-0.532,0.396-1.115,0.279c0.561,2.227,2.227,3.347,3.066,5.295
	c0.279,0.371,0.459,0.842,0.836,1.115c-0.089-0.646,0.044-1.07,0.278-1.394c0.059-0.313,0.31-0.434,0.558-0.558
	c0.491-0.252,0.863-0.623,1.115-1.115c-0.012-0.384,0.131-0.612,0.279-0.835C28.627,82.131,28.225,80.396,26.748,79.739z
	 M19.5,115.693c-0.768,0.531-1.418,1.183-1.951,1.95c-0.17,0.016-0.33,0.042-0.279,0.279c-0.093,0-0.186,0-0.278,0
	c-0.492,0.251-0.863,0.623-1.115,1.113c-0.346,0.585-0.811,1.048-1.394,1.395c-0.583,0.346-1.048,0.811-1.394,1.394
	c-0.823,0.385-1.128,1.287-1.952,1.672c-0.583,0.347-1.047,0.811-1.393,1.394c-1.042,0.902-1.912,1.789-3.345,2.508
	c-1.334,0.672-3.284,0.763-3.623,1.952c0,0.093,0,0.186,0,0.278c-0.458-0.045-0.458,1.718,0,1.673
	c0.521,0.872,1.13,1.656,2.229,1.951c-0.199,0.451,1.314,0.451,1.115,0c2.129-0.845,2.914-3.033,5.853-3.066
	c1.022,0,2.044,0,3.066,0c0.372,0,0.743,0,1.115,0c0.296,0.632,1.752,0.106,2.508,0.278c0.186,0,0.372,0,0.558,0
	c0.035,0.616,1.182,0.118,1.672,0.278c0.465,0,0.929,0,1.394,0c0.371,0,0.744,0,1.115,0c0.297,0.634,1.752,0.106,2.509,0.28
	c0.464,0,0.929,0,1.393,0c0.208,0.628,1.564,0.107,2.23,0.278c0.372,0,0.743,0,1.115,0c0.296,0.632,1.752,0.105,2.508,0.278
	c3.083-0.389,3.417,1.973,5.575,2.508c0.57,0.463,3.051,0.463,3.622,0c1.863-1.574,2.809-4.066,4.181-6.131
	c0.459,0.046,0.459-1.718,0-1.672c-1.889-4.243-5.447-6.815-6.968-11.428c0-0.093,0-0.187,0-0.279
	c-0.848-0.081-0.385-1.474-1.113-1.672c-0.907-1.691-2.35-4.031-1.395-6.689c0.452,0.199,0.452-1.314,0-1.115
	c-1.355-2.081-3.217-3.658-4.18-6.131c-0.906,0.265-1.168,1.3-1.672,1.951c-0.862,1.113-2.084,2.589-2.787,3.345
	c-0.203,0.217-0.088,0.589-0.279,0.835c-0.588,0.761-1.39,1.211-1.951,1.952c-0.221,0.292-0.359,0.837-0.558,1.114
	C23.839,110.666,21.337,113.728,19.5,115.693z"/>
<path fill-rule="evenodd" clip-rule="evenodd" fill="#D7D7D7" d="M3.893,135.759c1.115,0,2.229,0,3.345,0
	C6.756,136.221,4.374,136.221,3.893,135.759z"/>
<path fill-rule="evenodd" clip-rule="evenodd" fill="#737373" d="M24.796,80.295c0.422-0.414,1.224-0.449,1.952-0.557
	c0.171,1.035,0.664,1.751,0.836,2.786c-0.788-0.23-0.723,0.393-1.394,0.278c-0.331-0.782-0.627-1.603-0.836-2.508
	C25.167,80.295,24.981,80.295,24.796,80.295z"/>
<path fill-rule="evenodd" clip-rule="evenodd" fill="#737373" d="M46.535,126.284c0.459-0.046,0.459,1.718,0,1.672
	C46.535,127.397,46.535,126.84,46.535,126.284z"/>
<path fill-rule="evenodd" clip-rule="evenodd" fill="#737373" d="M2.778,129.627c0,0.558,0,1.114,0,1.673
	C2.32,131.345,2.32,129.583,2.778,129.627z"/>
<path fill-rule="evenodd" clip-rule="evenodd" fill="#737373" d="M32.321,82.525c0.458-0.046,0.458,1.718,0,1.673
	C32.321,83.64,32.321,83.083,32.321,82.525z"/>
<path fill-rule="evenodd" clip-rule="evenodd" fill="#737373" d="M11.975,130.185c0.39-0.462,2.676-0.462,3.066,0
	C14.019,130.185,12.998,130.185,11.975,130.185z"/>
</svg>
