<?xml version="1.0" encoding="utf-8"?>
<!-- Generator: Adobe Illustrator 15.0.0, SVG Export Plug-In  -->
<!DOCTYPE svg PUBLIC "-//W3C//DTD SVG 1.1//EN" "http://www.w3.org/Graphics/SVG/1.1/DTD/svg11.dtd" [
	<!ENTITY ns_flows "http://ns.adobe.com/Flows/1.0/">
]>
<svg version="1.1"
	 xmlns="http://www.w3.org/2000/svg" xmlns:xlink="http://www.w3.org/1999/xlink" xmlns:a="http://ns.adobe.com/AdobeSVGViewerExtensions/3.0/"
	 x="0px" y="0px" width="142px" height="142px" viewBox="-36.238 -2.396 142 142" enable-background="new -36.238 -2.396 142 142"
	 xml:space="preserve">
<defs>
</defs>
<path fill-rule="evenodd" clip-rule="evenodd" fill="#717171" d="M42.357,68.241c0.568,0.082,0.547,0.754,1.116,0.836
	c0.242,0.408,0.416,0.883,1.113,0.835c-0.25,0.491-1.025,0.461-1.113,1.116c-0.093,0-0.187,0-0.279,0
	C42.738,70.11,40.49,69.048,42.357,68.241z"/>
<path fill-rule="evenodd" clip-rule="evenodd" fill="#313131" d="M13.93,130.115c0-0.093,0-0.187,0-0.279
	c0.417,0.048,1.028-0.1,1.115,0.279C14.673,130.115,14.301,130.115,13.93,130.115z"/>
<path fill-rule="evenodd" clip-rule="evenodd" fill="#313131" d="M30.931,130.115c0,0.372,0,0.743,0,1.115
	C30.479,131.429,30.479,129.916,30.931,130.115z"/>
<path fill-rule="evenodd" clip-rule="evenodd" fill="#313131" d="M13.651,132.623c0.372,0,0.743,0,1.115,0c0,0.094,0,0.186,0,0.279
	C14.349,132.854,13.737,133.001,13.651,132.623z"/>
<path fill-rule="evenodd" clip-rule="evenodd" fill="#A8A8A8" d="M6.125,133.181c0.2,0.451-1.314,0.451-1.115,0
	C5.382,133.181,5.754,133.181,6.125,133.181z"/>
<path fill-rule="evenodd" clip-rule="evenodd" fill="#A8A8A8" d="M30.374,134.016c-0.417-0.047-1.028,0.101-1.115-0.278
	c0.49,0.16,1.638-0.337,1.672,0.278c-0.092,0-0.185,0-0.278,0C30.56,134.016,30.467,134.016,30.374,134.016z"/>
<path fill-rule="evenodd" clip-rule="evenodd" fill="#313131" d="M30.374,134.016c0.093,0,0.186,0,0.279,0
	c-0.152,0.405,0.326,1.44-0.279,1.394C30.374,134.946,30.374,134.481,30.374,134.016z"/>
<path fill-rule="evenodd" clip-rule="evenodd" fill="#313131" d="M28.98,136.525c0.464,0,0.929,0,1.394,0
	C30.499,136.98,28.854,136.98,28.98,136.525z"/>
<path fill-rule="evenodd" clip-rule="evenodd" fill="#A8A8A8" d="M27.587,85.799c0.48-0.913,1.47-1.316,1.951-2.229
	c0.093,0,0.186,0,0.279,0C29.19,84.43,28.447,85.173,27.587,85.799z"/>
<path fill-rule="evenodd" clip-rule="evenodd" fill="#313131" d="M16.159,111.441c0.675,0.439,1.233,0.997,1.672,1.672
	C17.156,112.674,16.599,112.116,16.159,111.441z"/>
<path fill-rule="evenodd" clip-rule="evenodd" fill="#313131" d="M15.881,113.113c0.491,0.253,0.863,0.624,1.115,1.115
	C16.504,113.976,16.132,113.605,15.881,113.113z"/>
<path fill-rule="evenodd" clip-rule="evenodd" fill="#717171" d="M16.717,114.786c0.053-0.227,0.279-0.278,0.278-0.558
	c-0.252-0.491-0.624-0.862-1.115-1.115c-0.366-0.098-0.439-0.491-0.836-0.557c0.252-0.491,0.624-0.863,1.115-1.115
	c0.44,0.675,0.997,1.233,1.672,1.672c0.093,0,0.186,0,0.278,0c-0.082,0.569-0.753,0.547-0.836,1.115
	C17.15,114.476,17.03,114.727,16.717,114.786z"/>
<path fill-rule="evenodd" clip-rule="evenodd" fill="#DBDBDB" d="M16.159,115.064c0.226-0.053,0.278-0.279,0.558-0.278
	c-0.252,0.491-0.624,0.862-1.115,1.115C15.701,115.534,16.093,115.461,16.159,115.064z"/>
<path fill-rule="evenodd" clip-rule="evenodd" fill="#313131" d="M15.044,116.179c0.252-0.492,0.624-0.863,1.115-1.115
	c-0.066,0.397-0.458,0.47-0.557,0.837C15.376,115.954,15.324,116.18,15.044,116.179z"/>
<path fill-rule="evenodd" clip-rule="evenodd" fill="#313131" d="M11.7,119.245c0.346-0.582,0.811-1.048,1.394-1.393
	c-0.083,0.567-0.754,0.546-0.836,1.113C12.031,119.019,11.979,119.246,11.7,119.245z"/>
<path fill-rule="evenodd" clip-rule="evenodd" fill="#313131" d="M8.634,122.032c0.347-0.583,0.811-1.048,1.394-1.394
	C9.682,121.221,9.217,121.685,8.634,122.032z"/>
<path fill-rule="evenodd" clip-rule="evenodd" fill="#717171" d="M7.52,123.147c0.252-0.491,0.623-0.863,1.114-1.115
	C8.382,122.523,8.011,122.894,7.52,123.147z"/>
<path fill-rule="evenodd" clip-rule="evenodd" fill="#313131" d="M28.423,133.738c0.186,0,0.372,0,0.557,0
	c0.161,0.169,0.653,1.322,0,1.394C29.218,134.243,28.738,134.074,28.423,133.738z"/>
<path fill-rule="evenodd" clip-rule="evenodd" fill="#313131" d="M49.327,128.721c0.25-0.491,0.623-0.863,1.114-1.115
	C50.188,128.097,49.818,128.469,49.327,128.721z"/>
<path fill-rule="evenodd" clip-rule="evenodd" fill="#A8A8A8" d="M63.539,84.684c1.789,1.556,3.462,3.229,5.019,5.017
	C66.769,88.145,65.096,86.472,63.539,84.684z"/>
<path fill-rule="evenodd" clip-rule="evenodd" fill="#313131" d="M62.704,83.57c-3.787-3.368-7.084-7.224-10.869-10.591
	c-0.189-0.647-0.927-0.747-1.115-1.394C54.83,75.464,58.825,79.458,62.704,83.57z"/>
<path fill-rule="evenodd" clip-rule="evenodd" fill="#717171" d="M50.162,70.749c0.099,0.366,0.491,0.439,0.558,0.837
	c-0.583-0.346-1.048-0.811-1.393-1.394C49.691,70.291,49.764,70.683,50.162,70.749z"/>
<path fill-rule="evenodd" clip-rule="evenodd" fill="#313131" d="M31.767,81.34c-0.716,0.677-1.316,1.47-1.951,2.229
	c-0.093,0-0.186,0-0.279,0c0.628-0.537-0.035-0.685-0.279-1.115c-0.493-0.871-1.357-2.141-2.229-2.786
	c-3.06,0.983-5.725,1.663-7.804-0.559c-0.067-0.071-0.527-0.21-0.558-0.278c-1.558-3.456-5.832-8.579-7.525-11.427
	c0-0.836,0-1.672,0-2.508c-2.562-4.333-4.481-8.392-6.967-13.099c-0.808-1.53-1.902-2.88-1.951-4.46
	c-0.076-2.424,1.85-4.447,3.344-6.688c0.63-0.945,1.265-2.051,1.951-3.066c0.345-0.51,0.752-0.877,1.114-1.394
	c0.36-0.512,0.53-1.297,0.836-1.673c1.651-2.019,5.347-4.101,6.132-6.41c0.515-1.514-0.236-3.878,0.279-5.575
	c0.492-1.623,3.593-3.872,5.295-5.574c2.507-2.506,4.441-4.22,6.689-6.689c0.432-0.474,0.685-1.2,1.115-1.672
	c0.814-0.894,1.91-1.632,2.787-2.509c1.422-1.422,2.397-2.66,4.181-3.902c0.527-0.368,0.944-0.903,1.393-1.115
	c3.698-1.741,8.29-1.22,11.148,0.558c0.425,0.264,0.844,0.471,1.395,0.836c0.705,0.468,1.728,1.66,2.509,2.508
	c1.534,1.67,3.237,2.976,3.9,4.459c0.446,0.997,0.318,2.647,0.838,3.902c0.721,1.75,2.67,2.949,4.179,4.459
	c1.32,1.319,3.292,2.849,3.902,4.738c0.992,3.064,0.154,10.033,0.836,13.657c0.216,1.147,0.479,2.058,0.837,3.344
	c0.745,2.673,3.035,7.083,2.509,10.034c-0.371,2.071-3.012,3.847-4.738,5.574c-1.899,1.899-3.646,3.646-5.017,5.017
	c-1.789,1.79-3.193,3.717-4.738,5.296c-1.652,1.688-3.794,2.952-4.738,5.294c-0.398-0.065-0.471-0.458-0.835-0.557
	c-0.435-0.403-1.088-0.587-1.673-0.836c-0.099-0.485,0.665-0.737,0.835-1.115c1.187-2.631,5.142-5.207,7.247-7.525
	c0.182-0.2,0.12-0.629,0.278-0.836c0.299-0.389,1.174-1.162,1.673-1.672c1.572-1.605,3.199-3.198,4.738-4.738
	c1.561-1.562,3.411-2.824,4.459-4.738c-1.618-5.907-3.94-11.635-4.181-18.396c-0.017-0.432,0.276-0.752,0.278-0.835
	c0.006-0.212-0.274-0.463-0.278-0.836c0,0.056,0.278-0.113,0.278-0.279c0-0.831-0.569-3.346-0.278-5.017
	c-1.345-1.432-2.694-2.972-4.182-4.459c-2.165-2.167-4.714-3.443-4.457-8.083C51.01,8.17,48.676,3.24,43.752,2.743
	c-1.673-0.168-3.971,0.028-5.853,1.115c-0.116,0.066-0.182,0.514-0.28,0.557c-1.722,0.776-3.241,2.964-4.737,4.459
	c-0.896,0.896-1.688,1.634-2.509,2.508c-2.329,2.483-4.239,4.519-7.247,7.525c-1.803,1.804-4.351,3.615-4.738,5.017
	c-0.301,1.092,0.304,2.984,0,4.459c-0.108,0.525-0.594,1.53-0.836,1.951c-1.462,2.545-4.616,4.082-6.411,6.968
	c-0.706,1.136-2.154,3.08-3.065,4.459c-1.375,2.083-3.03,3.776-3.066,5.295c-0.025,1.083,1.111,2.883,1.951,4.459
	c1.556,2.92,2.857,5.354,4.459,8.361c0.84,1.578,1.907,2.999,2.229,4.181c0.234,0.856,0.126,1.612,0.279,2.508
	c0.912,1.536,2.014,2.858,3.066,4.46c0.658,1,1.102,1.826,1.951,3.064c0.311,0.452,0.771,0.93,1.115,1.394
	c0.43,0.582,0.406,1.25,0.836,1.673c1.018,0.997,2.23,0.781,4.181,0.278c0.935-0.241,1.482-0.729,2.509-0.558
	c2.268,0.38,2.581,2.618,4.18,4.181C31.767,81.155,31.767,81.248,31.767,81.34z"/>
<path fill-rule="evenodd" clip-rule="evenodd" fill="#313131" d="M42.357,68.241c0.19-0.61,0.928,0.528,1.116,0.836
	C42.904,68.995,42.926,68.323,42.357,68.241z"/>
<path fill-rule="evenodd" clip-rule="evenodd" fill="#A8A8A8" d="M42.357,72.142c0.156-0.4,0.435-0.68,0.837-0.835
	c0-0.094,0-0.187,0-0.278c0.093,0,0.187,0,0.279,0C43.221,71.519,42.851,71.891,42.357,72.142z"/>
<path fill-rule="evenodd" clip-rule="evenodd" fill="#A8A8A8" d="M35.111,77.997c0.533-0.769,1.185-1.419,1.951-1.952
	C36.53,76.812,35.879,77.462,35.111,77.997z"/>
<path fill-rule="evenodd" clip-rule="evenodd" fill="#313131" d="M32.325,80.504c0.346-0.584,0.811-1.048,1.394-1.395
	C33.372,79.694,32.907,80.158,32.325,80.504z"/>
<path fill-rule="evenodd" clip-rule="evenodd" fill="#DBDBDB" d="M31.767,81.061c0.248-0.124,0.499-0.244,0.558-0.557
	c0.583-0.347,1.047-0.811,1.394-1.395c0.647-0.188,0.746-0.926,1.393-1.113c-0.998,1.23-2.113,2.346-3.344,3.344
	C31.767,81.248,31.767,81.155,31.767,81.061z"/>
<path fill-rule="evenodd" clip-rule="evenodd" fill="#DBDBDB" d="M51.835,72.979c3.785,3.367,7.082,7.223,10.869,10.591
	c0.082,0.567,0.755,0.547,0.835,1.114C59.522,80.899,55.62,76.998,51.835,72.979z"/>
<path fill-rule="evenodd" clip-rule="evenodd" fill="#DBDBDB" d="M44.309,135.967c0.252-0.491,0.625-0.863,1.116-1.114
	C45.391,135.562,45.018,135.934,44.309,135.967z"/>
<path fill-rule="evenodd" clip-rule="evenodd" fill="#DBDBDB" d="M12.258,118.965c0.082-0.567,0.753-0.546,0.836-1.113
	c0.093,0,0.186,0,0.278,0C13.121,118.342,12.749,118.714,12.258,118.965z"/>
<path fill-rule="evenodd" clip-rule="evenodd" fill="#DBDBDB" d="M17.274,114.228c0.083-0.568,0.754-0.546,0.836-1.115
	c-0.051-0.236,0.109-0.263,0.279-0.278C18.37,113.652,17.752,113.87,17.274,114.228z"/>
<path fill-rule="evenodd" clip-rule="evenodd" fill="#717171" d="M43.474,74.651c0.976-0.887,2.051-3.145,3.624-2.509
	c-0.095,0-0.187,0-0.281,0c-0.599,0.439,1.03,0.997,1.116,1.673c0,0.093,0,0.186,0,0.278c-0.248,0.123-0.499,0.245-0.557,0.558
	c-0.762,0.203-0.562-0.555-1.116-0.558c-0.25-0.49-0.623-0.863-1.113-1.114C44.705,73.654,44.148,74.211,43.474,74.651z"/>
<path fill-rule="evenodd" clip-rule="evenodd" fill="#A8A8A8" d="M37.899,78.832c0.251-0.491,0.623-0.863,1.114-1.115
	C38.761,78.208,38.391,78.581,37.899,78.832z"/>
<path fill-rule="evenodd" clip-rule="evenodd" fill="#717171" d="M35.669,81.061c0.626-0.86,1.37-1.604,2.23-2.229
	C37.272,79.692,36.53,80.435,35.669,81.061z"/>
<path fill-rule="evenodd" clip-rule="evenodd" fill="#313131" d="M34.275,82.455c0.346-0.583,0.811-1.048,1.394-1.394
	C35.323,81.644,34.858,82.109,34.275,82.455z"/>
<path fill-rule="evenodd" clip-rule="evenodd" fill="#A8A8A8" d="M29.538,87.471c0.533-0.768,1.184-1.417,1.951-1.95
	C30.956,86.289,30.305,86.938,29.538,87.471z"/>
<path fill-rule="evenodd" clip-rule="evenodd" fill="#717171" d="M17.553,117.573c0.653-1.019,1.683-1.661,2.508-2.509
	c0.354,0.947,1.545,1.056,1.672,2.23c-0.124,0.248-0.245,0.498-0.558,0.558c-0.647-0.189-0.746-0.927-1.393-1.116
	C18.869,115.548,18.466,117.208,17.553,117.573z"/>
<path fill-rule="evenodd" clip-rule="evenodd" fill="#DBDBDB" d="M15.881,118.965c0.251-0.49,0.623-0.862,1.115-1.113
	c-0.083,0.567-0.754,0.546-0.836,1.113C16.066,118.965,15.974,118.965,15.881,118.965z"/>
<path fill-rule="evenodd" clip-rule="evenodd" fill="#313131" d="M13.094,121.753c0.346-0.583,0.81-1.048,1.394-1.394
	C14.141,120.942,13.677,121.407,13.094,121.753z"/>
<path fill-rule="evenodd" clip-rule="evenodd" fill="#DBDBDB" d="M9.47,124.819c0.251-0.491,0.624-0.862,1.115-1.115
	c-0.083,0.569-0.754,0.547-0.836,1.115C9.656,124.819,9.563,124.819,9.47,124.819z"/>
<path fill-rule="evenodd" clip-rule="evenodd" fill="#A8A8A8" d="M61.868,86.636c1.789,1.556,3.46,3.229,5.017,5.017
	C65.096,90.097,63.425,88.424,61.868,86.636z"/>
<path fill-rule="evenodd" clip-rule="evenodd" fill="#717171" d="M52.949,77.716c3.089,2.857,6.063,5.83,8.919,8.92
	C58.779,83.779,55.806,80.806,52.949,77.716z"/>
<path fill-rule="evenodd" clip-rule="evenodd" fill="#313131" d="M49.884,74.372c0.669,1.097,1.84,1.691,2.509,2.788
	c-1.697-1.464-3.275-3.043-4.738-4.739C48.567,72.902,48.971,73.891,49.884,74.372z"/>
<path fill-rule="evenodd" clip-rule="evenodd" fill="#DBDBDB" d="M49.884,74.372c-0.913-0.48-1.316-1.47-2.229-1.951
	c-0.238,0.053-0.265-0.107-0.278-0.278C48.594,72.502,49.127,73.548,49.884,74.372z"/>
<path fill-rule="evenodd" clip-rule="evenodd" fill="#313131" d="M46.26,74.093c0.555,0.003,0.354,0.761,1.116,0.558
	c0.058-0.313,0.309-0.435,0.557-0.558c0-0.093,0-0.186,0-0.278c0.609,0.188-0.528,0.926-0.835,1.115
	C46.694,74.774,46.416,74.496,46.26,74.093z"/>
<path fill-rule="evenodd" clip-rule="evenodd" fill="#717171" d="M58.522,108.375c0-0.092,0-0.185,0-0.278
	c-0.981-0.875-2.42-1.295-3.344-2.229c0.459-0.47,0.605-1.252,1.114-1.672c1.412,0.324,2.546,2.197,3.902,1.672
	C59.475,106.54,59.416,107.874,58.522,108.375z"/>
<path fill-rule="evenodd" clip-rule="evenodd" fill="#313131" d="M29.538,129.835c0.089,0.646-0.044,1.07-0.279,1.395
	c-0.186,0-0.372,0-0.558,0c0-0.094,0-0.187,0-0.278C29.798,131.397,28.798,129.748,29.538,129.835z"/>
<path fill-rule="evenodd" clip-rule="evenodd" fill="#313131" d="M9.749,124.819c0.082-0.568,0.754-0.546,0.836-1.115
	c0.225-0.053,0.277-0.279,0.557-0.278C10.797,124.008,10.332,124.473,9.749,124.819z"/>
<path fill-rule="evenodd" clip-rule="evenodd" fill="#313131" d="M16.159,118.965c0.082-0.567,0.754-0.546,0.836-1.113
	c0.226-0.053,0.278-0.28,0.558-0.279C17.207,118.156,16.742,118.621,16.159,118.965z"/>
<path fill-rule="evenodd" clip-rule="evenodd" fill="#313131" d="M19.783,116.736c0.647,0.189,0.746,0.927,1.393,1.116
	C20.888,118.389,20.071,117.121,19.783,116.736z"/>
<path fill-rule="evenodd" clip-rule="evenodd" fill="#313131" d="M20.619,114.506c-1.085,1.223,2.018,1.78,1.115,2.788
	c-0.127-1.175-1.318-1.283-1.672-2.23C20.185,114.816,20.306,114.565,20.619,114.506z"/>
<path fill-rule="evenodd" clip-rule="evenodd" fill="#717171" d="M28.98,135.131c0.653-0.071,0.161-1.225,0-1.394
	c0.093,0,0.186,0,0.279,0c0.086,0.379,0.698,0.231,1.115,0.278c0,0.465,0,0.93,0,1.394c0,0.372,0,0.743,0,1.115
	c-0.464,0-0.929,0-1.394,0C28.98,136.06,28.98,135.596,28.98,135.131z"/>
<path fill-rule="evenodd" clip-rule="evenodd" fill="#717171" d="M29.259,88.029c0,0.372,0,0.744,0,1.115
	C28.807,89.343,28.807,87.83,29.259,88.029z"/>
<path fill-rule="evenodd" clip-rule="evenodd" fill="#717171" d="M16.159,130.115c0.757,0.172,2.212-0.354,2.508,0.278
	C17.911,130.221,16.456,130.747,16.159,130.115z"/>
<path fill-rule="evenodd" clip-rule="evenodd" fill="#717171" d="M19.783,130.393c0.756,0.173,2.211-0.354,2.508,0.278
	C21.534,130.5,20.079,131.026,19.783,130.393z"/>
<path fill-rule="evenodd" clip-rule="evenodd" fill="#717171" d="M23.406,130.671c0.757,0.174,2.212-0.354,2.509,0.28
	C25.158,130.778,23.703,131.305,23.406,130.671z"/>
<path fill-rule="evenodd" clip-rule="evenodd" fill="#A8A8A8" d="M27.029,130.952c0.558,0,1.114,0,1.672,0c0,0.092,0,0.185,0,0.278
	C28.212,131.07,27.064,131.566,27.029,130.952z"/>
<path fill-rule="evenodd" clip-rule="evenodd" fill="#717171" d="M30.931,131.23c0.667,0.169,2.022-0.35,2.23,0.278
	c-1.594,0.2-2.49-0.298-3.902-0.278c0.234-0.324,0.368-0.748,0.279-1.395c-0.133-0.969-0.052-1.724,1.115-1.394
	c0.616,0.035,0.119,1.183,0.278,1.673C30.479,129.916,30.479,131.429,30.931,131.23z"/>
<path fill-rule="evenodd" clip-rule="evenodd" fill="#717171" d="M14.766,132.623c0.405,0.152,1.44-0.325,1.393,0.279
	c-0.464,0-0.929,0-1.393,0C14.766,132.808,14.766,132.716,14.766,132.623z"/>
<path fill-rule="evenodd" clip-rule="evenodd" fill="#717171" d="M17.553,132.902c0.756,0.173,2.211-0.354,2.508,0.279
	C19.305,133.007,17.849,133.535,17.553,132.902z"/>
<path fill-rule="evenodd" clip-rule="evenodd" fill="#717171" d="M21.176,133.181c0.757,0.172,2.212-0.354,2.509,0.278
	C22.928,133.287,21.473,133.813,21.176,133.181z"/>
<path fill-rule="evenodd" clip-rule="evenodd" fill="#717171" d="M24.799,133.459c0.756,0.172,2.212-0.354,2.508,0.278
	C26.551,133.566,25.096,134.091,24.799,133.459z"/>
<path fill-rule="evenodd" clip-rule="evenodd" fill="#717171" d="M32.046,134.016c0.577,0.166,1.831-0.345,1.95,0.278
	C33.419,134.129,32.166,134.639,32.046,134.016z"/>
<path fill-rule="evenodd" clip-rule="evenodd" fill="#313131" d="M38.735,134.016c1.208,0,2.416,0,3.622,0
	C41.786,134.479,39.306,134.479,38.735,134.016z"/>
<path fill-rule="evenodd" clip-rule="evenodd" fill="#313131" d="M38.457,136.803c1.3,0,2.6,0,3.9,0
	C41.696,137.267,39.12,137.267,38.457,136.803z"/>
<path fill-rule="evenodd" clip-rule="evenodd" fill="#FFFFFF" d="M47.654,69.355c0.585,0.25,1.238,0.433,1.673,0.836
	c0.345,0.583,0.81,1.048,1.393,1.394c0.188,0.646,0.926,0.746,1.115,1.394c3.785,4.019,7.688,7.92,11.704,11.705
	c1.557,1.788,3.229,3.461,5.019,5.017c0.842,0.181,0.777,1.267,1.393,1.673c0,0.186,0,0.372,0,0.558c0,0.836,0,1.673,0,2.508
	c0.034,0.889-0.855,2.235-1.393,3.066c-0.14,0.217-0.457,0.389-0.559,0.558c-0.663,1.111-1.046,2.322-1.671,3.344
	c-1.272,2.08-2.779,3.962-3.902,6.132c-0.768,0.348-0.806,1.423-1.395,1.951c-1.566,3.141-3.396,6.062-5.295,9.197
	c-0.607,1.003-1.076,2.031-1.951,2.787c-0.333,2.825-1.07,5.249-3.344,6.132c-0.491,0.252-0.864,0.624-1.114,1.115
	c-1.248,2.098-2.342,4.348-3.902,6.132c-0.491,0.251-0.864,0.623-1.116,1.114c-0.28,0.648-0.96,0.899-1.951,0.836
	c-1.301,0-2.601,0-3.9,0c-2.37,0.047-2.837-1.81-4.46-2.509c-0.12-0.623-1.374-0.112-1.95-0.278c-0.372,0-0.743,0-1.116,0
	c-0.034-0.615-1.182-0.118-1.672-0.278c-0.093,0-0.186,0-0.279,0c-0.186,0-0.372,0-0.557,0c-0.372,0-0.744,0-1.115,0
	c-0.296-0.632-1.752-0.106-2.508-0.278c-0.372,0-0.743,0-1.115,0c-0.296-0.633-1.752-0.106-2.509-0.278c-0.371,0-0.743,0-1.114,0
	c-0.297-0.633-1.752-0.106-2.508-0.279c-0.465,0-0.93,0-1.394,0c0.047-0.604-0.988-0.127-1.393-0.279c-0.372,0-0.744,0-1.115,0
	c-3.295-0.136-3.851,2.468-6.41,3.066c-1.115,0-2.23,0-3.345,0c-0.186,0-0.372,0-0.558,0c-4.175-1.798-4.412-7.896-0.836-10.034
	c0.891-0.532,2.124-0.608,3.066-1.114c0.766-0.411,1.226-1.079,1.951-1.394c0.491-0.253,0.863-0.624,1.114-1.115
	c0.583-0.347,1.048-0.811,1.394-1.394c0.733-0.288,0.938-1.104,1.672-1.394c0.279,0.001,0.331-0.226,0.558-0.279
	c0.491-0.251,0.863-0.623,1.114-1.113c0.44-0.676,0.997-1.233,1.672-1.673c0.279,0.001,0.332-0.226,0.558-0.278
	c0.491-0.253,0.863-0.624,1.115-1.115c0.313-0.059,0.433-0.31,0.557-0.558c0.478-0.358,1.096-0.576,1.115-1.394
	c1.964-2.762,4.072-5.42,6.132-8.083c2.012-2.601,4.146-5.204,5.853-8.083c-0.815-3.303-6.437-7.104-2.787-10.869
	c0.86-0.626,1.603-1.369,2.229-2.229c0.634-0.76,1.234-1.553,1.951-2.229c1.231-0.998,2.347-2.113,3.344-3.344
	c0.768-0.534,1.419-1.185,1.951-1.952c1.515-1.552,3.55-2.582,5.295-3.902c0.493-0.251,0.863-0.623,1.116-1.113
	c0.088-0.655,0.863-0.625,1.113-1.116C45.24,69.358,46.362,69.271,47.654,69.355z M47.098,72.142
	c-1.573-0.636-2.648,1.622-3.624,2.509c-1.313,1.196-2.855,2.163-4.46,3.065c-0.491,0.252-0.863,0.624-1.114,1.115
	c-0.86,0.626-1.604,1.369-2.23,2.229c-0.583,0.346-1.048,0.811-1.394,1.394c-0.963,0.988-1.607,2.295-2.787,3.066
	c-0.767,0.533-1.418,1.183-1.951,1.95c-0.063,0.217-0.008,0.55-0.279,0.558c-0.452-0.199-0.452,1.314,0,1.115
	c0.995,2.35,3.223,3.466,3.624,6.41c0,0.65,0,1.301,0,1.951c-0.12,1.915-1.779,3.143-2.788,4.46
	c-0.538,0.703-0.881,1.56-1.394,2.229c-0.523,0.684-1.179,1.313-1.672,1.95c-2.163,2.796-4.191,5.604-6.411,8.361
	c-0.313,0.059-0.434,0.31-0.557,0.558c-0.826,0.848-1.855,1.49-2.508,2.509c-0.28-0.001-0.332,0.227-0.558,0.279
	c-0.492,0.251-0.863,0.623-1.115,1.113c-0.346,0.585-0.811,1.048-1.394,1.395c-0.583,0.346-1.048,0.811-1.394,1.394
	c-0.823,0.385-1.128,1.287-1.952,1.672c-0.279-0.001-0.332,0.226-0.557,0.278c-0.492,0.253-0.864,0.624-1.115,1.115
	c-1.097,2.713-5.423,2.194-6.689,4.738c-0.458-0.045-0.458,1.718,0,1.673c0.521,0.872,1.13,1.656,2.229,1.951
	c-0.199,0.451,1.314,0.451,1.115,0c2.129-0.845,2.914-3.033,5.853-3.066c0.65,0,1.301,0,1.951,0c0.372,0,0.743,0,1.115,0
	s0.743,0,1.115,0c0.296,0.632,1.752,0.106,2.508,0.278c0.372,0,0.743,0,1.115,0c0.296,0.633,1.751,0.106,2.508,0.278
	c0.371,0,0.744,0,1.115,0c0.297,0.634,1.752,0.106,2.509,0.28c0.372,0,0.743,0,1.115,0c0.035,0.614,1.183,0.118,1.672,0.278
	c0.186,0,0.372,0,0.558,0c1.412-0.02,2.308,0.479,3.902,0.278c3.083-0.389,3.417,1.973,5.575,2.508c0.57,0.463,3.051,0.463,3.622,0
	c3.097-2.849,3.955-7.938,8.084-9.754c-0.12-1.667,0.688-3.496,1.113-4.182c0.533-0.854,0.981-1.55,1.395-2.229
	c0.339-0.559,0.533-1.163,0.836-1.673c0.336-0.563,0.814-0.893,1.115-1.394c0.646-1.079,1.056-2.321,1.673-3.345
	c0.646-1.071,1.446-1.877,1.949-3.066c0.894-0.501,0.952-1.835,1.673-2.508c0.478-0.984,1.066-2.061,1.395-2.787
	c0.042-0.094,0.489-0.17,0.557-0.278c0.319-0.509,0.499-1.094,0.836-1.673c0.739-1.267,1.32-2.006,1.951-3.065
	c0.343-0.573,0.513-1.135,0.836-1.673c0.749-1.247,1.757-2.168,1.673-3.345c-0.028-0.408-0.714-0.959-0.558-1.393
	c-1.557-1.788-3.228-3.461-5.017-5.017c-2.856-3.09-5.83-6.063-8.919-8.92c-0.313-0.059-0.435-0.309-0.557-0.557
	c-0.669-1.097-1.84-1.691-2.509-2.788c-0.757-0.823-1.29-1.869-2.508-2.229C47.281,72.142,47.189,72.142,47.098,72.142z"/>
<path fill-rule="evenodd" clip-rule="evenodd" fill="#DBDBDB" d="M3.896,135.689c1.115,0,2.229,0,3.345,0
	C6.76,136.151,4.377,136.151,3.896,135.689z"/>
<path fill-rule="evenodd" clip-rule="evenodd" fill="#A8A8A8" d="M69.95,91.931c0.461,0.211,0.461,2.297,0,2.508
	C69.95,93.604,69.95,92.767,69.95,91.931z"/>
<path fill-rule="evenodd" clip-rule="evenodd" fill="#717171" d="M62.426,107.539c0.843,1.015,2.323,1.393,3.344,2.229
	c-0.267,0.57-0.569,1.103-0.836,1.673c-1.763-0.188-2.484-1.416-3.902-1.951C61.62,108.961,61.658,107.886,62.426,107.539z"/>
<path fill-rule="evenodd" clip-rule="evenodd" fill="#717171" d="M2.781,129.557c0,0.558,0,1.114,0,1.673
	C2.324,131.275,2.324,129.512,2.781,129.557z"/>
<path fill-rule="evenodd" clip-rule="evenodd" fill="#717171" d="M32.882,95.554c0.458,0.038,0.458,1.913,0,1.951
	C32.882,96.855,32.882,96.205,32.882,95.554z"/>
<path fill-rule="evenodd" clip-rule="evenodd" fill="#717171" d="M11.979,130.115c0.12-0.623,1.374-0.113,1.951-0.279
	c0,0.093,0,0.187,0,0.279C13.279,130.115,12.629,130.115,11.979,130.115z"/>
</svg>
