<?xml version="1.0" encoding="utf-8"?>
<!-- Generator: Adobe Illustrator 15.0.0, SVG Export Plug-In  -->
<!DOCTYPE svg PUBLIC "-//W3C//DTD SVG 1.1//EN" "http://www.w3.org/Graphics/SVG/1.1/DTD/svg11.dtd" [
	<!ENTITY ns_flows "http://ns.adobe.com/Flows/1.0/">
]>
<svg version="1.1"
	 xmlns="http://www.w3.org/2000/svg" xmlns:xlink="http://www.w3.org/1999/xlink" xmlns:a="http://ns.adobe.com/AdobeSVGViewerExtensions/3.0/"
	 x="0px" y="0px" width="142px" height="142px" viewBox="-36.239 -2.459 142 142" enable-background="new -36.239 -2.459 142 142"
	 xml:space="preserve">
<defs>
</defs>
<path fill-rule="evenodd" clip-rule="evenodd" fill="#323232" d="M40.686,102.458c0.451-0.199,0.451,1.314,0,1.115
	C40.686,103.203,40.686,102.83,40.686,102.458z"/>
<path fill-rule="evenodd" clip-rule="evenodd" fill="#323232" d="M12.257,130.051c0.211-0.461,2.296-0.461,2.508,0
	C13.929,130.051,13.093,130.051,12.257,130.051z"/>
<path fill-rule="evenodd" clip-rule="evenodd" fill="#323232" d="M13.371,132.838c0-0.094,0-0.186,0-0.279c0.372,0,0.743,0,1.115,0
	c0,0.094,0,0.186,0,0.279C14.114,132.838,13.743,132.838,13.371,132.838z"/>
<path fill-rule="evenodd" clip-rule="evenodd" fill="#A3A3A3" d="M6.125,133.118c0.2,0.451-1.314,0.451-1.115,0
	C5.381,133.118,5.753,133.118,6.125,133.118z"/>
<path fill-rule="evenodd" clip-rule="evenodd" fill="#737373" d="M40.686,136.183c0.092,0,0.187,0,0.278,0
	c0.086,0.378,0.697,0.231,1.114,0.278c0,0.093,0,0.187,0,0.278c0,0.743,0,1.486,0,2.229c-0.463,0-0.928,0-1.393,0
	c0-0.649,0-1.3,0-1.95C40.686,136.74,40.686,136.461,40.686,136.183z"/>
<path fill-rule="evenodd" clip-rule="evenodd" fill="#A3A3A3" d="M40.964,136.183c0.371,0,0.743,0,1.114,0c0,0.093,0,0.186,0,0.278
	C41.661,136.415,41.05,136.561,40.964,136.183z"/>
<path fill-rule="evenodd" clip-rule="evenodd" fill="#323232" d="M40.686,138.969c0.465,0,0.93,0,1.393,0
	C42.204,139.425,40.56,139.425,40.686,138.969z"/>
<path fill-rule="evenodd" clip-rule="evenodd" fill="#323232" d="M49.326,128.378c-0.104-1.104,0.255-2.671-0.28-3.345
	c0.761,0.203,0.561-0.554,1.115-0.557c0.653-1.65,0.55-2.871,1.114-4.181c0.457-1.06,1.492-2.127,2.229-3.345
	c0.665-1.096,1.263-2.204,1.952-3.345c0.33-0.547,0.797-1.139,1.115-1.673c0.365-0.615,0.473-1.346,0.836-1.951
	c0.065-0.111,0.515-0.182,0.557-0.278c0.192-0.424,0.215-0.834,0.557-1.394c0.287-0.467,0.836-0.935,1.116-1.393
	c0.33-0.544,0.463-1.333,0.835-1.952c0.068-0.111,0.516-0.183,0.558-0.278c0.396-0.879,1.071-2.049,1.673-3.065
	c0.29-0.489,0.488-1.092,0.835-1.673c0.068-0.111,0.515-0.183,0.56-0.278c0.387-0.856,1.088-2.118,1.671-3.066
	c0.871-1.414,1.767-2.52,1.673-3.623c-0.119-1.393-3.845-4.68-5.017-5.853c-3.971-3.97-6.729-6.729-10.591-10.591
	c-1.803-1.804-4.489-3.922-4.459-6.132c0.03-2.296,2.765-4.159,4.459-5.853c3.751-3.75,6.502-7.061,10.033-10.591
	c1.745-1.745,3.715-3.114,5.017-5.295c-1.62-6.311-3.887-10.851-4.181-18.396c-0.082-2.098,0.557-4.669,0-6.688
	c-0.425-1.542-2.663-2.942-4.182-4.46c-2.484-2.485-4.495-3.766-4.457-8.361c-1.122-1.457-2.509-2.445-3.624-3.902
	c-0.571-0.746-1.682-1.715-2.509-2.508c-0.136-0.129-0.707-0.338-1.116-0.557c-0.863-0.465-1.599-0.967-3.064-1.115
	c-5.355-0.539-8.129,3.113-11.149,6.132c-3.234,3.235-5.896,6.454-9.476,10.034c-1.865,1.865-4.385,3.737-4.738,5.017
	c-0.371,1.345,0.197,3.506,0,4.459c-0.352,1.707-1.819,3.186-3.066,4.459c-1.55,1.585-3.354,2.937-4.738,5.017
	C9.85,38.902,8.904,40.445,8.076,41.7c-1.213,1.837-3.029,3.743-3.066,5.295c-0.025,1.083,1.111,2.883,1.951,4.459
	c1.556,2.92,2.857,5.354,4.459,8.361c0.84,1.578,1.907,2.999,2.229,4.181c0.234,0.856,0.126,1.612,0.279,2.508
	c0.848,1.445,2.053,2.918,3.066,4.46c0.639,0.973,1.173,1.932,1.951,3.064c0.486,0.709,0.767,1.297,1.394,1.951
	c0.461,0.481,0.863,1.734,1.951,1.952c1.6,0.317,3.34-1.442,5.296-1.116c1.2,0.201,2.11,1.544,3.065,2.788
	c1.037,1.349,2.729,2.998,1.394,5.295c-0.66,1.134-2.786,2.055-2.788,3.902c-0.002,1.378,1.251,2.289,1.951,3.344
	c0.557,0.842,1.486,1.629,1.672,3.345c-0.57,0.268-1.104,0.569-1.672,0.836c-0.568,0.082-0.547,0.755-1.115,0.837
	c0.755-3.147-3.71-4.966-3.624-8.641c0.06-2.516,1.807-3.377,3.345-5.295c-0.675-1.462-1.7-2.574-2.787-3.623
	c-2.182,0.513-3.583,1.177-5.295,0.836c-2.757-0.549-4.016-3.35-5.853-6.133c-1.704-2.579-3.397-5.188-4.739-6.967
	c0-0.836,0-1.672,0-2.508c-2.432-4.091-4.528-8.48-6.967-13.099c-0.81-1.534-1.903-2.921-1.951-4.46
	c-0.076-2.424,1.936-4.578,3.344-6.688c0.667-1,1.31-2.117,1.951-3.066c0.487-0.722,0.746-1.275,1.393-1.951
	c0.037-0.039,0.267-0.262,0.279-0.279c0.129-0.189,0.114-0.635,0.278-0.836c1.612-1.972,5.4-4.163,6.132-6.41
	c0.727-2.229-0.263-3.947,0.279-5.575c0.563-1.691,3.402-3.681,5.295-5.574c2.382-2.382,4.478-4.261,6.689-6.689
	c0.395-0.434,0.676-1.19,1.115-1.672c0.849-0.932,1.921-1.643,2.787-2.509c1.427-1.427,2.399-2.661,4.181-3.902
	c0.527-0.368,0.944-0.903,1.393-1.115c3.079-1.45,8.027-1.232,10.592,0c1.4,0.673,3.035,2.353,4.46,3.902
	c1.431,1.556,3.113,2.737,3.9,4.459c0.455,0.991,0.257,2.487,0.838,3.902c0.683,1.665,2.67,2.949,4.179,4.459
	c1.395,1.394,3.321,2.938,3.902,4.738c1.032,3.19,0.152,10.019,0.836,13.657c0.206,1.084,0.48,2.066,0.837,3.344
	c0.754,2.701,3.039,7.065,2.509,10.034c-0.323,1.802-2.854,3.967-4.46,5.574c-3.681,3.682-6.638,6.569-10.033,10.034
	c-1.589,1.62-3.271,3.208-4.738,5.296c1.171,2.367,3.232,3.789,5.017,5.574c3.513,3.513,6.596,6.596,10.591,10.592
	c1.652,1.651,4.213,3.891,4.459,5.853c0.393,3.12-3.592,7.726-5.295,10.591c-0.194,0.328-0.05,0.319-0.278,0.558
	c-0.272,0.283-0.691,1.559-1.116,2.229c-0.065,0.108-0.515,0.186-0.557,0.278c-0.064,0.144,0.086,0.43,0,0.558
	c-0.068,0.104-0.517,0.188-0.557,0.279c-0.828,1.834-2.198,3.986-3.344,5.853c-0.259,0.42-0.405,0.943-0.838,1.394
	c-0.276,0.289-0.693,1.522-1.113,2.229c-0.647,1.087-1.455,2.122-2.23,3.345c-0.341,0.537-0.938,1.24-1.115,1.672
	c-0.407,0.989-0.427,3.089-0.836,3.902c-0.444,0.888-1.938,1.894-2.787,2.509C49.873,128.029,49.663,128.229,49.326,128.378z"/>
<path fill-rule="evenodd" clip-rule="evenodd" fill="#323232" d="M15.043,110.262c0.675-0.655,1.484,0.918,1.951,1.394
	C16.143,111.392,16.121,110.299,15.043,110.262z"/>
<path fill-rule="evenodd" clip-rule="evenodd" fill="#323232" d="M15.88,113.329c0.568,0.081,0.546,0.754,1.115,0.836
	c0,0.093,0,0.187,0,0.278c-0.093,0-0.186,0-0.278,0C16.634,113.875,15.961,113.897,15.88,113.329z"/>
<path fill-rule="evenodd" clip-rule="evenodd" fill="#D4D4D4" d="M16.158,115c0.226-0.053,0.278-0.279,0.558-0.278
	c-0.252,0.491-0.624,0.862-1.115,1.115C15.7,115.47,16.092,115.398,16.158,115z"/>
<path fill-rule="evenodd" clip-rule="evenodd" fill="#323232" d="M15.043,116.116c0.252-0.492,0.624-0.863,1.115-1.115
	c-0.066,0.397-0.458,0.47-0.557,0.837C15.375,115.89,15.323,116.117,15.043,116.116z"/>
<path fill-rule="evenodd" clip-rule="evenodd" fill="#323232" d="M11.699,119.181c0.346-0.582,0.811-1.048,1.394-1.393
	C12.747,118.371,12.282,118.835,11.699,119.181z"/>
<path fill-rule="evenodd" clip-rule="evenodd" fill="#323232" d="M8.633,121.968c0.252-0.491,0.624-0.863,1.115-1.114
	C9.496,121.345,9.125,121.717,8.633,121.968z"/>
<path fill-rule="evenodd" clip-rule="evenodd" fill="#323232" d="M34.832,134.51c1.902,0.606,3.121,1.896,5.854,1.673
	c0,0.278,0,0.557,0,0.836C38.027,136.89,35.742,136.388,34.832,134.51z"/>
<path fill-rule="evenodd" clip-rule="evenodd" fill="#323232" d="M42.078,136.183c1.296,0.273,1.683-0.361,2.508-0.558
	c-0.497,0.711-1.274,1.14-2.508,1.114c0-0.092,0-0.186,0-0.278S42.078,136.276,42.078,136.183z"/>
<path fill-rule="evenodd" clip-rule="evenodd" fill="#737373" d="M30.094,97.164c0.568-0.082,0.547-0.755,1.115-0.837
	c-0.252,0.492-0.624,0.864-1.115,1.115C30.094,97.349,30.094,97.255,30.094,97.164z"/>
<path fill-rule="evenodd" clip-rule="evenodd" fill="#323232" d="M38.177,97.72c-0.583-0.346-1.048-0.811-1.394-1.394
	C37.366,96.672,37.831,97.137,38.177,97.72z"/>
<path fill-rule="evenodd" clip-rule="evenodd" fill="#D4D4D4" d="M16.995,114.165c0.568-0.082,0.546-0.755,1.114-0.836
	c-0.251,0.491-0.623,0.862-1.114,1.114C16.995,114.351,16.995,114.257,16.995,114.165z"/>
<path fill-rule="evenodd" clip-rule="evenodd" fill="#A3A3A3" d="M19.225,115.837c0.251-0.492,0.623-0.863,1.114-1.115
	C20.087,115.213,19.716,115.584,19.225,115.837z"/>
<path fill-rule="evenodd" clip-rule="evenodd" fill="#323232" d="M16.158,118.902c0.347-0.582,0.811-1.047,1.394-1.393
	C17.206,118.092,16.741,118.557,16.158,118.902z"/>
<path fill-rule="evenodd" clip-rule="evenodd" fill="#323232" d="M13.093,121.69c0.346-0.583,0.81-1.048,1.394-1.394
	C14.14,120.878,13.676,121.343,13.093,121.69z"/>
<path fill-rule="evenodd" clip-rule="evenodd" fill="#323232" d="M10.027,124.477c0.252-0.492,0.623-0.863,1.114-1.115
	C10.89,123.854,10.518,124.225,10.027,124.477z"/>
<path fill-rule="evenodd" clip-rule="evenodd" fill="#323232" d="M34.832,98.278c0.583,0.346,1.048,0.811,1.394,1.394
	C35.643,99.325,35.178,98.861,34.832,98.278z"/>
<path fill-rule="evenodd" clip-rule="evenodd" fill="#323232" d="M18.945,116.394c-0.051-0.237,0.109-0.264,0.279-0.278
	c0.082,0.567,0.754,0.547,0.836,1.115c-0.401-0.156-0.68-0.436-0.836-0.837C19.131,116.394,19.039,116.394,18.945,116.394z"/>
<path fill-rule="evenodd" clip-rule="evenodd" fill="#737373" d="M22.569,116.672c0.408,0.242,0.883,0.418,0.836,1.116
	c-0.647,0.188-0.746,0.926-1.394,1.113c-0.822-0.384-1.128-1.287-1.951-1.671c-0.082-0.568-0.754-0.548-0.836-1.115
	c0-0.094,0-0.187,0-0.278c0.491-0.253,0.862-0.624,1.114-1.115c-0.051-0.237,0.109-0.264,0.279-0.279
	c-0.045,0.324,0.062,0.497,0.279,0.558C21.336,115.676,21.894,116.234,22.569,116.672z"/>
<path fill-rule="evenodd" clip-rule="evenodd" fill="#323232" d="M20.896,115c0.675,0.44,1.233,0.997,1.672,1.672
	C21.894,116.234,21.336,115.676,20.896,115z"/>
<path fill-rule="evenodd" clip-rule="evenodd" fill="#323232" d="M33.438,98.278c-0.199-0.451,1.315-0.451,1.116,0
	C34.182,98.278,33.81,98.278,33.438,98.278z"/>
<path fill-rule="evenodd" clip-rule="evenodd" fill="#737373" d="M37.618,104.688c-0.646,0.933-0.591,2.567-0.557,4.182
	c-0.633-0.297-0.105-1.752-0.278-2.509c-1.095-0.114-2.308-0.108-2.509-1.114C34.563,103.357,36.668,105.629,37.618,104.688z"/>
<path fill-rule="evenodd" clip-rule="evenodd" fill="#737373" d="M18.667,112.493c-0.098,0.365-0.49,0.438-0.558,0.836
	c-0.568,0.081-0.546,0.754-1.114,0.836c-0.568-0.082-0.546-0.755-1.115-0.836c-0.734-0.382-1.057-1.174-1.951-1.395
	c-0.049-0.978,0.941-0.916,1.115-1.672c1.078,0.037,1.099,1.13,1.951,1.394C17.675,111.811,17.588,112.735,18.667,112.493z"/>
<path fill-rule="evenodd" clip-rule="evenodd" fill="#737373" d="M46.537,126.15c0.453-0.2,0.453,1.314,0,1.113
	C46.537,126.892,46.537,126.52,46.537,126.15z"/>
<path fill-rule="evenodd" clip-rule="evenodd" fill="#737373" d="M16.158,130.051c0.757,0.172,2.212-0.354,2.508,0.278
	C17.91,130.158,16.455,130.683,16.158,130.051z"/>
<path fill-rule="evenodd" clip-rule="evenodd" fill="#737373" d="M19.782,130.33c0.756,0.173,2.211-0.354,2.508,0.278
	C21.533,130.436,20.078,130.962,19.782,130.33z"/>
<path fill-rule="evenodd" clip-rule="evenodd" fill="#737373" d="M23.405,130.608c0.757,0.174,2.212-0.354,2.509,0.28
	C25.157,130.714,23.702,131.242,23.405,130.608z"/>
<path fill-rule="evenodd" clip-rule="evenodd" fill="#737373" d="M27.307,130.888c0.667,0.169,2.022-0.352,2.23,0.278
	C28.871,130.996,27.515,131.516,27.307,130.888z"/>
<path fill-rule="evenodd" clip-rule="evenodd" fill="#737373" d="M30.651,131.167c0.756,0.172,2.212-0.354,2.508,0.278
	C32.403,131.272,30.948,131.798,30.651,131.167z"/>
<path fill-rule="evenodd" clip-rule="evenodd" fill="#737373" d="M7.519,132.281c0.085,0.643-0.805,0.31-0.836,0.837
	c-0.093,0-0.186,0-0.279,0c-0.229-0.868-2.288-1.985-0.836-2.788C6.445,129.798,7.104,131.464,7.519,132.281z"/>
<path fill-rule="evenodd" clip-rule="evenodd" fill="#737373" d="M12.257,132.838c0.086-0.378,0.697-0.23,1.114-0.279
	c0,0.094,0,0.186,0,0.279C13,132.838,12.628,132.838,12.257,132.838z"/>
<path fill-rule="evenodd" clip-rule="evenodd" fill="#737373" d="M14.486,132.559c0.489,0.161,1.637-0.337,1.672,0.279
	c-0.557,0-1.115,0-1.672,0C14.486,132.745,14.486,132.653,14.486,132.559z"/>
<path fill-rule="evenodd" clip-rule="evenodd" fill="#737373" d="M17.552,132.838c0.756,0.173,2.211-0.354,2.508,0.279
	C19.304,132.944,17.848,133.471,17.552,132.838z"/>
<path fill-rule="evenodd" clip-rule="evenodd" fill="#737373" d="M21.175,133.118c0.667,0.169,2.022-0.351,2.23,0.278
	C22.738,133.226,21.383,133.746,21.175,133.118z"/>
<path fill-rule="evenodd" clip-rule="evenodd" fill="#737373" d="M24.798,133.396c0.756,0.172,2.212-0.354,2.508,0.278
	C26.55,133.502,25.095,134.028,24.798,133.396z"/>
<path fill-rule="evenodd" clip-rule="evenodd" fill="#737373" d="M42.356,133.396c-0.036,0.459-1.911,0.459-1.949,0
	c0.749-0.551-0.343-2.943,1.113-2.788C42.709,130.627,41.545,133,42.356,133.396z"/>
<path fill-rule="evenodd" clip-rule="evenodd" fill="#737373" d="M28.422,133.674c0.667,0.171,2.021-0.35,2.229,0.278
	C29.985,133.783,28.629,134.302,28.422,133.674z"/>
<path fill-rule="evenodd" clip-rule="evenodd" fill="#FFFFFF" d="M32.881,95.491c1.379-0.392,2.971,0.016,3.902,0.836
	c0.346,0.583,0.811,1.048,1.394,1.394c0.918,1.498,2.412,2.419,2.509,4.738c0,0.371,0,0.744,0,1.115
	c0.164,1-0.324,1.348-0.557,1.951c-0.415,0.422-0.451,1.223-0.56,1.95c1.475,7.539,6.71,11.315,9.477,17.559
	c0.535,0.674,0.176,2.24,0.28,3.345c-1.278,2.718-2.635,5.357-4.74,7.247c-0.825,0.196-1.212,0.831-2.508,0.558
	c-0.371,0-0.743,0-1.114,0c-0.092,0-0.187,0-0.278,0c-2.732,0.223-3.951-1.066-5.854-1.673c-1.277-0.302-2.729-0.429-4.181-0.558
	c-0.208-0.628-1.563-0.107-2.229-0.278c-0.372,0-0.744,0-1.115,0c-0.296-0.632-1.752-0.106-2.508-0.278c-0.464,0-0.929,0-1.394,0
	c-0.208-0.629-1.563-0.109-2.23-0.278c-0.371,0-0.743,0-1.114,0c-0.297-0.633-1.752-0.106-2.508-0.279c-0.465,0-0.93,0-1.394,0
	c-0.035-0.616-1.183-0.118-1.672-0.279c-0.372,0-0.743,0-1.115,0c-0.417,0.049-1.028-0.099-1.114,0.279
	c-1.183,0.211-1.737,1.051-2.788,1.393c-0.511,0.326-0.943,0.729-1.394,1.115c-0.225,0.148-0.453,0.291-0.836,0.279
	c-1.115,0-2.23,0-3.345,0c-0.186,0-0.372,0-0.558,0c-4.181-1.833-4.404-7.849-0.836-10.034c0.878-0.537,2.104-0.598,3.066-1.114
	c1.479-0.796,2.068-1.892,3.065-2.509c0.492-0.251,0.863-0.623,1.115-1.114c0.823-0.386,1.129-1.287,1.951-1.673
	c0.583-0.346,1.047-0.811,1.394-1.393c0.822-0.386,1.128-1.287,1.951-1.673c0.279,0.001,0.332-0.226,0.558-0.278
	c0.491-0.253,0.863-0.624,1.115-1.115c0-0.093,0-0.187,0-0.279c0.093,0,0.185,0,0.278,0c0.491-0.252,0.863-0.623,1.114-1.114
	c0.067-0.397,0.459-0.471,0.558-0.836c3.664-5.162,7.577-10.076,11.427-15.051c0.492-0.251,0.863-0.623,1.115-1.115
	C31.778,96.06,32.312,95.758,32.881,95.491z M20.618,114.443c-0.17,0.016-0.33,0.042-0.279,0.279
	c-0.491,0.252-0.863,0.623-1.114,1.115c0,0.092,0,0.185,0,0.278c-0.17,0.015-0.33,0.041-0.279,0.278
	c-0.647,0.188-0.746,0.927-1.393,1.115c-0.583,0.346-1.047,0.811-1.394,1.393c-0.733,0.289-0.938,1.106-1.672,1.395
	c-0.583,0.346-1.048,0.811-1.394,1.394c-0.823,0.385-1.128,1.287-1.952,1.672c-0.491,0.252-0.862,0.623-1.114,1.115
	c-1.133,0.953-1.996,1.968-3.624,2.786c-1.41,0.71-3.517,0.735-3.623,2.23c-0.455-0.126-0.455,1.52,0,1.395
	c0.35,1.136,1.093,1.879,2.229,2.229c-0.199,0.451,1.314,0.451,1.115,0c0.093,0,0.186,0,0.279,0c0.093,0,0.186,0,0.279,0
	c0.031-0.527,0.921-0.194,0.836-0.837c1.341-0.981,2.423-2.223,4.738-2.229c0.836,0,1.672,0,2.508,0c0.464,0,0.929,0,1.393,0
	c0.296,0.632,1.752,0.106,2.508,0.278c0.372,0,0.743,0,1.115,0c0.296,0.633,1.751,0.106,2.508,0.278c0.371,0,0.744,0,1.115,0
	c0.297,0.634,1.752,0.106,2.509,0.28c0.464,0,0.929,0,1.393,0c0.208,0.628,1.564,0.107,2.23,0.278c0.372,0,0.743,0,1.115,0
	c0.296,0.632,1.752,0.105,2.508,0.278c3.212-0.146,4.135,1.996,7.248,1.951c0.038,0.459,1.913,0.459,1.949,0
	c0.461-0.002,0.901-0.033,1.116-0.278c0.162-0.186,0.149-0.656,0.278-0.837c0.318-0.447,0.38-0.724,0.557-1.114
	c0.042-0.095,0.491-0.171,0.559-0.278c0.311-0.499,0.543-1.188,0.836-1.673c0.471-0.786,1.027-1.315,0.835-1.952
	c0.453,0.201,0.453-1.313,0-1.113c-2.986-5.933-7.939-9.899-9.476-17.28c-0.034-1.614-0.089-3.249,0.557-4.182
	c0.928-2.131-0.54-3.786-1.393-5.017c-0.346-0.583-0.811-1.048-1.394-1.394c-0.093,0-0.186,0-0.278,0
	c0.199-0.451-1.314-0.451-1.116,0c-0.819,0.278-1.165,1.066-1.672,1.672c-1.718,2.053-3.151,4.08-4.738,6.132
	C24.937,108.785,22.584,112.017,20.618,114.443z"/>
<path fill-rule="evenodd" clip-rule="evenodd" fill="#D4D4D4" d="M3.895,135.625c1.115,0,2.229,0,3.345,0
	C6.759,136.087,4.376,136.087,3.895,135.625z"/>
<path fill-rule="evenodd" clip-rule="evenodd" fill="#737373" d="M40.129,105.525c0,0.093,0,0.186,0,0.278
	c0.454,0.774,3.255,0.3,2.228,1.672c-0.358,1.438-1.799-0.27-2.787,0C39.678,106.748,39.714,105.947,40.129,105.525z"/>
<path fill-rule="evenodd" clip-rule="evenodd" fill="#737373" d="M2.78,129.494c0,0.465,0,0.93,0,1.395
	C2.325,131.013,2.325,129.368,2.78,129.494z"/>
<path fill-rule="evenodd" clip-rule="evenodd" fill="#737373" d="M8.076,135.346c0.45-0.386,0.882-0.789,1.394-1.115
	c-0.076,1.47,1.235,1.553,1.394,2.788c-0.858-0.208-0.536,0.766-1.394,0.557C9.193,136.644,8.352,136.279,8.076,135.346z"/>
</svg>
