<?xml version="1.0" encoding="utf-8"?>
<!-- Generator: Adobe Illustrator 15.0.0, SVG Export Plug-In  -->
<!DOCTYPE svg PUBLIC "-//W3C//DTD SVG 1.1//EN" "http://www.w3.org/Graphics/SVG/1.1/DTD/svg11.dtd" [
	<!ENTITY ns_flows "http://ns.adobe.com/Flows/1.0/">
]>
<svg version="1.1"
	 xmlns="http://www.w3.org/2000/svg" xmlns:xlink="http://www.w3.org/1999/xlink" xmlns:a="http://ns.adobe.com/AdobeSVGViewerExtensions/3.0/"
	 x="0px" y="0px" width="142px" height="142px" viewBox="-27.246 -1.228 142 142" enable-background="new -27.246 -1.228 142 142"
	 xml:space="preserve">
<defs>
</defs>
<path fill-rule="evenodd" clip-rule="evenodd" fill="#333333" d="M80.894,35.128c0,0.557,0,1.114,0,1.672
	C80.437,36.846,80.437,35.082,80.894,35.128z"/>
<path fill-rule="evenodd" clip-rule="evenodd" fill="#333333" d="M83.681,36.521c-0.451,0.2-0.451-1.314,0-1.115
	C83.681,35.778,83.681,36.149,83.681,36.521z"/>
<path fill-rule="evenodd" clip-rule="evenodd" fill="#333333" d="M77.55,85.574c0.036,0.5-0.276,0.652-0.837,0.558
	c0-0.093,0-0.186,0-0.279C77.098,85.865,77.326,85.722,77.55,85.574z"/>
<path fill-rule="evenodd" clip-rule="evenodd" fill="#D3D3D3" d="M2.855,98.952c0,0.558,0,1.115,0,1.673
	C2.398,100.67,2.398,98.907,2.855,98.952z"/>
<path fill-rule="evenodd" clip-rule="evenodd" fill="#333333" d="M25.43,113.445c0,0.836,0,1.673,0,2.509c-0.092,0-0.185,0-0.278,0
	C25.324,115.198,24.798,113.741,25.43,113.445z"/>
<path fill-rule="evenodd" clip-rule="evenodd" fill="#333333" d="M26.824,113.725c0,0.743,0,1.486,0,2.229c-0.093,0-0.186,0-0.278,0
	C26.715,115.288,26.196,113.932,26.824,113.725z"/>
<path fill-rule="evenodd" clip-rule="evenodd" fill="#333333" d="M15.397,115.675c0-0.092,0-0.186,0-0.278
	c0.49,0.16,1.638-0.337,1.672,0.278C16.512,115.675,15.955,115.675,15.397,115.675z"/>
<path fill-rule="evenodd" clip-rule="evenodd" fill="#D3D3D3" d="M18.463,115.675c0.464,0,0.929,0,1.394,0c0,0.093,0,0.187,0,0.279
	C19.451,115.802,18.416,116.279,18.463,115.675z"/>
<path fill-rule="evenodd" clip-rule="evenodd" fill="#A3A3A3" d="M19.856,115.954c0-0.093,0-0.187,0-0.279c0.465,0,0.929,0,1.394,0
	c0,0.093,0,0.187,0,0.279C20.786,115.954,20.321,115.954,19.856,115.954z"/>
<path fill-rule="evenodd" clip-rule="evenodd" fill="#717171" d="M21.25,115.954c0-0.093,0-0.187,0-0.279c0.371,0,0.743,0,1.114,0
	c0,0.093,0,0.187,0,0.279C21.994,115.954,21.622,115.954,21.25,115.954z"/>
<path fill-rule="evenodd" clip-rule="evenodd" fill="#333333" d="M22.365,115.954c0-0.093,0-0.187,0-0.279
	c0.578,0.166,1.831-0.345,1.951,0.279C23.666,115.954,23.015,115.954,22.365,115.954z"/>
<path fill-rule="evenodd" clip-rule="evenodd" fill="#333333" d="M15.118,118.184c0.558,0,1.115,0,1.672,0c0,0.093,0,0.186,0,0.279
	C16.301,118.302,15.153,118.799,15.118,118.184z"/>
<path fill-rule="evenodd" clip-rule="evenodd" fill="#717171" d="M16.791,118.463c0-0.094,0-0.187,0-0.279c0.651,0,1.301,0,1.951,0
	c0,0.093,0,0.186,0,0.279C18.091,118.463,17.441,118.463,16.791,118.463z"/>
<path fill-rule="evenodd" clip-rule="evenodd" fill="#A3A3A3" d="M18.742,118.463c0-0.094,0-0.187,0-0.279c0.465,0,0.929,0,1.393,0
	c0,0.093,0,0.186,0,0.279C19.671,118.463,19.207,118.463,18.742,118.463z"/>
<path fill-rule="evenodd" clip-rule="evenodd" fill="#D3D3D3" d="M20.135,118.463c0-0.094,0-0.187,0-0.279
	c0.417,0.048,1.029-0.1,1.116,0.279C20.878,118.463,20.507,118.463,20.135,118.463z"/>
<path fill-rule="evenodd" clip-rule="evenodd" fill="#333333" d="M22.086,118.463c0.65,0,1.3,0,1.951,0c0,0.093,0,0.185,0,0.278
	C23.459,118.575,22.206,119.086,22.086,118.463z"/>
<path fill-rule="evenodd" clip-rule="evenodd" fill="#D3D3D3" d="M26.824,118.741c-0.199-0.452,1.314-0.452,1.115,0
	C27.567,118.741,27.196,118.741,26.824,118.741z"/>
<path fill-rule="evenodd" clip-rule="evenodd" fill="#333333" d="M25.152,119.299c0,0.65,0,1.3,0,1.95
	c1.672,0.65,0.728-1.316,1.394-1.672c0,0.65,0,1.301,0,1.951c-0.558,0-1.116,0-1.672,0
	C25.043,120.861,24.523,119.506,25.152,119.299z"/>
<path fill-rule="evenodd" clip-rule="evenodd" fill="#333333" d="M73.926,1.125c-0.118-0.583,0.19-0.738,0.278-1.115
	c0.325-0.046,0.497,0.062,0.558,0.278C73.772-0.145,74.593,1.235,73.926,1.125z"/>
<path fill-rule="evenodd" clip-rule="evenodd" fill="#333333" d="M73.648,3.076c0.118,0.583-0.19,0.738-0.278,1.115
	c-0.238,0.051-0.263-0.109-0.278-0.279C73.492,3.849,73.187,3.081,73.648,3.076z"/>
<path fill-rule="evenodd" clip-rule="evenodd" fill="#717171" d="M30.168,66.623c1.162-0.046,0.973-1.444,1.673-1.952
	c0.693-0.043,0.862,0.438,1.394,0.558c-0.26,0.971-1.674,1.882-1.115,2.787C31.592,67.428,30.516,67.39,30.168,66.623z"/>
<path fill-rule="evenodd" clip-rule="evenodd" fill="#A3A3A3" d="M5.085,89.197c0.719-0.952,1.555-1.789,2.508-2.508
	C6.874,87.642,6.038,88.479,5.085,89.197z"/>
<path fill-rule="evenodd" clip-rule="evenodd" fill="#717171" d="M3.413,90.869c0.439-0.675,0.997-1.231,1.672-1.672
	C4.645,89.873,4.087,90.43,3.413,90.869z"/>
<path fill-rule="evenodd" clip-rule="evenodd" fill="#333333" d="M7.593,114.839c0.492,0.252,0.863,0.623,1.115,1.115
	C8.217,115.703,7.845,115.33,7.593,114.839z"/>
<path fill-rule="evenodd" clip-rule="evenodd" fill="#717171" d="M24.037,118.741c0-0.094,0-0.186,0-0.278
	c1.015-0.087,1.814,0.044,2.509,0.278c0,0.279,0,0.558,0,0.836c-0.667,0.355,0.278,2.322-1.394,1.672c0-0.65,0-1.3,0-1.95
	C25.433,118.46,24.531,118.804,24.037,118.741z"/>
<path fill-rule="evenodd" clip-rule="evenodd" fill="#333333" d="M43.826,125.431c0.093,0,0.186,0,0.278,0
	c0.764,1.188,2.024,1.877,2.788,3.064C45.753,127.591,44.731,126.568,43.826,125.431z"/>
<path fill-rule="evenodd" clip-rule="evenodd" fill="#D3D3D3" d="M46.892,128.495c-0.764-1.188-2.024-1.877-2.788-3.064
	c1.231,0.998,2.346,2.112,3.346,3.344C47.223,128.721,47.17,128.494,46.892,128.495z"/>
<path fill-rule="evenodd" clip-rule="evenodd" fill="#333333" d="M59.712,137.693c0.252-0.491,0.623-0.862,1.115-1.115
	C60.576,137.07,60.203,137.441,59.712,137.693z"/>
<path fill-rule="evenodd" clip-rule="evenodd" fill="#717171" d="M75.041,83.623c0.176,0.938,1.504,0.727,2.51,0.837
	c0,0.371,0,0.743,0,1.114c-0.225,0.147-0.452,0.291-0.837,0.278c-1.219,0.24-1.897-0.597-2.23,0.279
	C74.948,85.573,74.461,84.065,75.041,83.623z"/>
<path fill-rule="evenodd" clip-rule="evenodd" fill="#D3D3D3" d="M8.708,115.954c-0.252-0.492-0.623-0.863-1.115-1.115
	c0-0.093,0-0.186,0-0.278c0.583,0.346,1.048,0.811,1.394,1.394C8.894,115.954,8.801,115.954,8.708,115.954z"/>
<path fill-rule="evenodd" clip-rule="evenodd" fill="#D3D3D3" d="M15.955,84.46c0.251-0.491,0.623-0.864,1.115-1.115
	C17.035,84.054,16.664,84.426,15.955,84.46z"/>
<path fill-rule="evenodd" clip-rule="evenodd" fill="#A3A3A3" d="M7.036,90.869c0.719-0.952,1.556-1.789,2.509-2.508
	C8.825,89.313,7.989,90.15,7.036,90.869z"/>
<path fill-rule="evenodd" clip-rule="evenodd" fill="#D3D3D3" d="M5.085,93.1c0.271-1.123,1.217-1.569,1.951-2.23
	C6.401,91.63,5.802,92.423,5.085,93.1z"/>
<path fill-rule="evenodd" clip-rule="evenodd" fill="#717171" d="M9.544,112.888c0.491,0.253,0.863,0.624,1.115,1.115
	C10.167,113.751,9.796,113.38,9.544,112.888z"/>
<path fill-rule="evenodd" clip-rule="evenodd" fill="#333333" d="M40.481,120.134c-0.491-0.251-0.863-0.623-1.115-1.113
	C39.857,119.271,40.229,119.644,40.481,120.134z"/>
<path fill-rule="evenodd" clip-rule="evenodd" fill="#333333" d="M47.45,125.151c-0.861-0.627-1.604-1.369-2.23-2.229
	C46.08,123.548,46.823,124.291,47.45,125.151z"/>
<path fill-rule="evenodd" clip-rule="evenodd" fill="#717171" d="M47.45,125.151c0.675,0.439,1.231,0.997,1.673,1.672
	C48.447,126.384,47.888,125.826,47.45,125.151z"/>
<path fill-rule="evenodd" clip-rule="evenodd" fill="#333333" d="M54.974,130.447c-0.583-0.346-1.048-0.811-1.395-1.394
	C54.163,129.399,54.627,129.864,54.974,130.447z"/>
<path fill-rule="evenodd" clip-rule="evenodd" fill="#D3D3D3" d="M82.845,40.702c0.478,0.359,1.096,0.577,1.114,1.394
	C83.327,41.892,83.125,41.257,82.845,40.702z"/>
<path fill-rule="evenodd" clip-rule="evenodd" fill="#FFFFFF" d="M58.598,1.403c5.064,0.602,9.452,1.881,14.493,2.508
	c0.016,0.17,0.04,0.33,0.278,0.279c0.897-0.062,1.18,0.493,2.229,0.278c2.018,0.286,4.193,0.968,6.411,1.394
	c2.195,0.421,4.602,0.274,5.852,1.951c0,0.186,0,0.372,0,0.557c0,0.836,0,1.672,0,2.508c-1.204,8.365-3.063,16.075-4.181,24.527
	c-0.451-0.199-0.451,1.314,0,1.115c0.008,2.234,3.135,3.393,3.346,5.853c0.21,2.477-2.311,5.855-3.624,8.361
	c-0.659,1.258-1.322,2.629-1.952,3.902c-0.703,1.422-1.561,2.699-1.951,3.901c-0.659,2.033-0.751,4.287-1.113,6.411
	c-1.018,5.966-2.276,12.426-3.346,18.673c-0.579,0.442-0.093,1.95-0.558,2.509c-0.705,5.787-2.053,12.191-3.064,18.116
	c-0.828,4.842-1.884,10.104-2.787,15.051c-0.533,2.911-0.994,6.406-2.229,8.64c-0.099,0.179-0.129,0.636-0.278,0.836
	c-0.213,0.283-0.514,0.558-0.838,1.115c-0.145,0.25-0.438,0.367-0.557,0.558c-0.245,0.396-0.325,1.026-0.558,1.393
	c-1.067,1.684-2.315,3.204-3.344,4.738c-0.492,0.253-0.863,0.624-1.115,1.115c-0.225,0.148-0.453,0.29-0.836,0.278
	c-0.65,0-1.302,0-1.951,0c-2.927-0.534-2.606-4.072-4.181-5.852c-1.519-1.719-3.797-1.419-5.295-3.346
	c-1-1.231-2.114-2.346-3.346-3.344c-0.092,0-0.186,0-0.278,0c-0.366-0.099-0.438-0.491-0.836-0.559
	c-0.208-0.628-1.563-0.109-2.229-0.278c-2.791-0.089-1.517-4.243-5.016-3.623c-0.744,0-1.487,0-2.23,0
	c-2.265-0.337-3.21-1.993-5.575-2.229c0.2-0.452-1.314-0.452-1.115,0c-0.093,0-0.186,0-0.278,0
	c-0.695-0.234-1.494-0.365-2.509-0.278c-0.65,0-1.3,0-1.951,0c-0.279,0-0.558,0-0.836,0c-0.087-0.379-0.698-0.231-1.116-0.279
	c-0.464,0-0.928,0-1.393,0c-0.65,0-1.3,0-1.951,0c-0.557,0-1.115,0-1.672,0c-2.96,0.174-4.813-0.761-6.131-2.229
	c-0.346-0.583-0.811-1.048-1.394-1.394c-0.873-0.392-1.345-1.739-1.951-2.787c-0.243-0.421-0.483-0.785-0.836-1.394
	c-0.243-0.421-0.482-0.784-0.836-1.394c-0.243-0.421-0.483-0.784-0.836-1.394c-0.244-0.421-0.483-0.784-0.836-1.395
	c-0.627-1.083-1.965-2.85-1.951-4.736c0-1.116,0-2.23,0-3.346c0.503-2.935,1.557-5.317,3.066-7.247
	c0.675-0.439,1.232-0.996,1.672-1.672c0.953-0.719,1.789-1.556,2.508-2.508c0.259-0.352,0.574-0.888,0.836-1.115
	c0.222-0.192,0.581-0.087,0.836-0.278c0.303-0.228,1.043-1.094,1.672-1.395c0.597-0.285,1.08-0.233,1.672-0.557
	c0.87-0.476,2.012-0.906,2.508-1.672c0.392-0.604,0.677-2.332,0.836-3.066c0.215-0.993,0.182-2.186,0.558-3.345
	c0.46-0.211,0.46-2.297,0-2.508c-0.938-2.5-3.268-3.607-4.181-6.131c0-0.744,0-1.487,0-2.23c0-0.186,0-0.372,0-0.558
	c1.835-2.045,4.784-2.921,7.804-2.508c1.755,0.241,3.608,1.519,5.295,2.508c1.798,1.054,3.42,2.108,4.738,2.788
	c0.348,0.768,1.424,0.806,1.951,1.393c2.018,0.381,3.935,3.015,6.689,2.508c2.674-0.492,2.721-4.358,3.344-7.525
	c3.563-18.101,7.202-34.949,10.591-52.955c0.703-3.729,0.835-8.402,3.346-8.64C56.925,1.403,57.761,1.403,58.598,1.403z
	 M72.532,6.699C67.103,5.999,62.22,4.749,56.925,3.912c-3.929,19.062-8.408,42.149-12.263,61.595
	c-0.322,1.622-0.692,3.9-1.115,4.739c-0.853,1.691-2.701,3.004-5.575,3.065c0.047-0.604-0.989-0.126-1.393-0.278
	c-2.483-0.397-4.037-1.724-5.853-2.787c-0.42-0.51-1.203-0.656-1.672-1.115c-3.262-1.476-5.95-3.526-9.198-5.017
	c0.045-0.458-1.718-0.458-1.672,0c-1.198,0.289-2.428,0.546-3.345,1.115c0.827,2.403,3.32,3.499,4.181,6.132
	c1.198,3.661-0.5,7.753-1.394,11.706c-0.279-0.001-0.332,0.226-0.557,0.278c-0.492,0.251-0.863,0.624-1.115,1.115
	c-0.786,1.493-2.867,1.458-4.181,2.229c-0.112,0.065-0.161,0.469-0.279,0.557c-0.245,0.185-0.619,0.108-0.836,0.279
	c-0.255,0.2-0.442,1.039-1.115,0.836c-0.953,0.719-1.79,1.556-2.509,2.508c-0.733,0.661-1.68,1.107-1.951,2.23
	c-0.807,1.888-1.546,3.842-2.23,5.853c-0.457-0.045-0.457,1.718,0,1.673c1.605,4.712,4.585,8.049,6.689,12.263
	c0.251,0.492,0.623,0.863,1.115,1.115c1.089,0.396,1.738,1.235,3.066,1.394c0.035,0.616,1.183,0.119,1.672,0.278
	c0.558,0,1.115,0,1.672,0c0.465,0,0.93,0,1.394,0c-0.047,0.604,0.988,0.127,1.394,0.279c0.465,0,0.929,0,1.394,0
	c0.371,0,0.743,0,1.114,0c0.65,0,1.301,0,1.951,0c0.279,0,0.558,0,0.836,0c0.093,0,0.186,0,0.278,0c0.373,0,0.744,0,1.116,0
	c0.093,0,0.186,0,0.278,0c0.208,0.628,1.563,0.109,2.23,0.278c2.757-0.063,3.341,2.048,5.853,2.23
	c0.49-0.161,1.637,0.336,1.672-0.279c0.557,0,1.114,0,1.672,0c0.274,0.376,0.744,0.558,1.115,0.837
	c0.252,0.49,0.624,0.862,1.115,1.113c0.287,0.644,0.959,0.899,0.836,1.952c0.093,0,0.186,0,0.278,0
	c0.297,0.632,1.752,0.105,2.508,0.278c0.761-0.203,0.561,0.554,1.115,0.558c0.626,0.86,1.369,1.603,2.23,2.229
	c0.438,0.675,0.997,1.232,1.673,1.672c1.392,0.837,3.017,1.441,4.457,2.23c0.347,0.583,0.812,1.048,1.395,1.394
	c1.092,1.416,1.631,3.386,2.508,5.016c1.293-0.33,2.058-2.059,2.509-2.786c1.021-1.644,2.102-3.109,3.067-4.738
	c0.568-0.963,1.362-1.895,1.671-2.787c0.238-0.691,0.128-1.696,0.278-2.509c0.777-4.173,1.827-8.526,2.508-12.263
	c1.579-8.642,2.885-17.535,4.46-25.363c0.234-0.323,0.368-0.746,0.278-1.394c1.124-6.808,2.202-13.555,3.346-20.067
	c0.389-2.212,0.644-4.731,1.393-6.689c0.421-1.096,1.368-2.183,1.951-3.345c0.609-1.211,1.078-2.473,1.673-3.623
	c0.563-1.09,1.37-2.251,1.951-3.344c0.829-1.564,1.89-3.676,1.393-4.459c-0.019-0.817-0.637-1.035-1.114-1.394
	c-1.092-0.859-1.881-2.022-1.951-3.901c0-0.558,0-1.116,0-1.672c1.084-9.043,3.035-17.218,4.46-25.921
	c-3.536-0.551-6.882-1.293-10.313-1.951C74.492,6.786,73.301,6.953,72.532,6.699z"/>
<path fill-rule="evenodd" clip-rule="evenodd" fill="#717171" d="M75.599,4.469c-1.05,0.214-1.332-0.34-2.229-0.278
	c0.088-0.377,0.396-0.533,0.278-1.115c-0.162-0.905,0.19-1.296,0.278-1.951c0.667,0.11-0.154-1.27,0.836-0.836
	c0.464,0,0.929,0,1.394,0C76.306,2.019,75.591,2.882,75.599,4.469z"/>
<path fill-rule="evenodd" clip-rule="evenodd" fill="#A3A3A3" d="M18.185,64.114c-0.046-0.458,1.717-0.458,1.672,0
	C19.299,64.114,18.742,64.114,18.185,64.114z"/>
<path fill-rule="evenodd" clip-rule="evenodd" fill="#717171" d="M16.512,72.754c0.46,0.211,0.46,2.297,0,2.508
	C16.512,74.426,16.512,73.589,16.512,72.754z"/>
<path fill-rule="evenodd" clip-rule="evenodd" fill="#717171" d="M36.58,73.032c0.404,0.152,1.44-0.325,1.393,0.278
	C37.568,73.158,36.532,73.638,36.58,73.032z"/>
<path fill-rule="evenodd" clip-rule="evenodd" fill="#717171" d="M72.253,83.623c0.09,0.647-0.044,1.07-0.278,1.394
	c-1.156-0.144-2.865,0.265-2.787-1.115C69.443,82.474,70.877,83.779,72.253,83.623z"/>
<path fill-rule="evenodd" clip-rule="evenodd" fill="#717171" d="M25.43,113.445c-0.048-0.454,1.824-0.563,1.394,0.279
	c-0.628,0.207-0.109,1.563-0.278,2.229c-0.372,0-0.743,0-1.116,0C25.43,115.118,25.43,114.281,25.43,113.445z"/>
<path fill-rule="evenodd" clip-rule="evenodd" fill="#717171" d="M26.824,115.954c0.667,0.169,2.022-0.35,2.23,0.278
	C28.387,116.063,27.032,116.582,26.824,115.954z"/>
<path fill-rule="evenodd" clip-rule="evenodd" fill="#717171" d="M34.907,118.463c0.034-0.616,1.182-0.118,1.672-0.279
	C36.544,118.799,35.397,118.302,34.907,118.463z"/>
<path fill-rule="evenodd" clip-rule="evenodd" fill="#D3D3D3" d="M41.596,122.086c0.756,0.172,2.212-0.354,2.508,0.278
	C43.348,122.191,41.893,122.718,41.596,122.086z"/>
<path fill-rule="evenodd" clip-rule="evenodd" fill="#A3A3A3" d="M56.925,137.972c0.649,0,1.301,0,1.951,0
	C58.838,138.432,56.963,138.432,56.925,137.972z"/>
<path fill-rule="evenodd" clip-rule="evenodd" fill="#A3A3A3" d="M56.09,1.403c0.21-0.46,2.296-0.46,2.508,0
	C57.761,1.403,56.925,1.403,56.09,1.403z"/>
<path fill-rule="evenodd" clip-rule="evenodd" fill="#717171" d="M75.041,7.256c-0.579,1.092-0.313,3.031-1.114,3.902
	c-0.903,0.161-1.296-0.19-1.951-0.279c0.06-1.418,0.947-3.211,0.557-4.18C73.301,6.953,74.492,6.786,75.041,7.256z"/>
<path fill-rule="evenodd" clip-rule="evenodd" fill="#A3A3A3" d="M87.862,8.371c0.461,0.212,0.461,2.297,0,2.508
	C87.862,10.043,87.862,9.207,87.862,8.371z"/>
<path fill-rule="evenodd" clip-rule="evenodd" fill="#A3A3A3" d="M12.331,64.393c0,0.743,0,1.486,0,2.23
	C11.872,66.498,11.872,64.516,12.331,64.393z"/>
<path fill-rule="evenodd" clip-rule="evenodd" fill="#717171" d="M29.054,69.13c0.47,0.459,1.252,0.605,1.672,1.115
	c-1.497,0.033-0.974,2.789-2.508,1.952C27.041,71.25,28.826,70.312,29.054,69.13z"/>
<path fill-rule="evenodd" clip-rule="evenodd" fill="#A3A3A3" d="M0.347,98.116c0,1.115,0,2.229,0,3.346
	C-0.116,100.979-0.116,98.597,0.347,98.116z"/>
<path fill-rule="evenodd" clip-rule="evenodd" fill="#717171" d="M13.725,115.396c0.558,0,1.114,0,1.672,0c0,0.093,0,0.187,0,0.278
	C14.908,115.516,13.76,116.013,13.725,115.396z"/>
<path fill-rule="evenodd" clip-rule="evenodd" fill="#A3A3A3" d="M40.76,124.594c0.667,0.169,2.022-0.35,2.229,0.278
	C42.323,124.703,40.967,125.223,40.76,124.594z"/>
<path fill-rule="evenodd" clip-rule="evenodd" fill="#717171" d="M33.514,120.971c0.743,0,1.486,0,2.23,0
	C35.619,121.431,33.637,121.431,33.514,120.971z"/>
</svg>
