<?xml version="1.0" encoding="utf-8"?>
<!-- Generator: Adobe Illustrator 15.0.0, SVG Export Plug-In  -->
<!DOCTYPE svg PUBLIC "-//W3C//DTD SVG 1.1//EN" "http://www.w3.org/Graphics/SVG/1.1/DTD/svg11.dtd" [
	<!ENTITY ns_flows "http://ns.adobe.com/Flows/1.0/">
]>
<svg version="1.1"
	 xmlns="http://www.w3.org/2000/svg" xmlns:xlink="http://www.w3.org/1999/xlink" xmlns:a="http://ns.adobe.com/AdobeSVGViewerExtensions/3.0/"
	 x="0px" y="0px" width="142px" height="142px" viewBox="-27.246 0.217 142 142" enable-background="new -27.246 0.217 142 142"
	 xml:space="preserve">
<defs>
</defs>
<path fill-rule="evenodd" clip-rule="evenodd" fill="#343434" d="M66.402,0.339c-0.2-0.452,1.313-0.452,1.113,0
	C67.145,0.339,66.772,0.339,66.402,0.339z"/>
<path fill-rule="evenodd" clip-rule="evenodd" fill="#343434" d="M80.894,36.572c0,0.557,0,1.114,0,1.672
	C80.437,38.29,80.437,36.526,80.894,36.572z"/>
<path fill-rule="evenodd" clip-rule="evenodd" fill="#343434" d="M83.681,37.965c-0.451,0.2-0.451-1.314,0-1.115
	C83.681,37.222,83.681,37.594,83.681,37.965z"/>
<path fill-rule="evenodd" clip-rule="evenodd" fill="#343434" d="M69.466,85.346c-0.012,0.384,0.133,0.613,0.279,0.837
	C69.06,86.616,68.926,85.236,69.466,85.346z"/>
<path fill-rule="evenodd" clip-rule="evenodd" fill="#D3D3D3" d="M2.855,100.396c0,0.558,0,1.115,0,1.673
	C2.398,102.114,2.398,100.352,2.855,100.396z"/>
<path fill-rule="evenodd" clip-rule="evenodd" fill="#717171" d="M26.824,116.005c-0.604-0.047-0.126,0.988-0.278,1.394
	c-0.372,0-0.743,0-1.116,0c0-0.65,0-1.301,0-1.951C25.115,113.882,27.646,114.525,26.824,116.005z"/>
<path fill-rule="evenodd" clip-rule="evenodd" fill="#343434" d="M25.43,115.447c0,0.65,0,1.301,0,1.951c-0.092,0-0.185,0-0.278,0
	C25.318,116.82,24.808,115.567,25.43,115.447z"/>
<path fill-rule="evenodd" clip-rule="evenodd" fill="#343434" d="M26.824,116.005c0,0.464,0,0.929,0,1.394c-0.093,0-0.186,0-0.278,0
	C26.698,116.993,26.22,115.958,26.824,116.005z"/>
<path fill-rule="evenodd" clip-rule="evenodd" fill="#343434" d="M15.397,117.119c0-0.092,0-0.186,0-0.278
	c0.49,0.16,1.638-0.337,1.672,0.278C16.512,117.119,15.955,117.119,15.397,117.119z"/>
<path fill-rule="evenodd" clip-rule="evenodd" fill="#D3D3D3" d="M18.463,117.119c0.464,0,0.929,0,1.394,0c0,0.093,0,0.187,0,0.279
	C19.451,117.246,18.416,117.724,18.463,117.119z"/>
<path fill-rule="evenodd" clip-rule="evenodd" fill="#A3A3A3" d="M19.856,117.398c0-0.093,0-0.187,0-0.279c0.465,0,0.929,0,1.394,0
	c0,0.093,0,0.187,0,0.279C20.786,117.398,20.321,117.398,19.856,117.398z"/>
<path fill-rule="evenodd" clip-rule="evenodd" fill="#717171" d="M21.25,117.398c0-0.093,0-0.187,0-0.279c0.371,0,0.743,0,1.114,0
	c0,0.093,0,0.187,0,0.279C21.994,117.398,21.622,117.398,21.25,117.398z"/>
<path fill-rule="evenodd" clip-rule="evenodd" fill="#343434" d="M22.365,117.398c0-0.093,0-0.187,0-0.279
	c0.578,0.166,1.831-0.345,1.951,0.279C23.666,117.398,23.015,117.398,22.365,117.398z"/>
<path fill-rule="evenodd" clip-rule="evenodd" fill="#343434" d="M15.118,119.628c0.558,0,1.115,0,1.672,0c0,0.093,0,0.186,0,0.279
	C16.301,119.746,15.153,120.243,15.118,119.628z"/>
<path fill-rule="evenodd" clip-rule="evenodd" fill="#717171" d="M16.791,119.907c0-0.094,0-0.187,0-0.279c0.651,0,1.301,0,1.951,0
	c0,0.093,0,0.186,0,0.279C18.091,119.907,17.441,119.907,16.791,119.907z"/>
<path fill-rule="evenodd" clip-rule="evenodd" fill="#A3A3A3" d="M18.742,119.907c0-0.094,0-0.187,0-0.279c0.465,0,0.929,0,1.393,0
	c0,0.093,0,0.186,0,0.279C19.671,119.907,19.207,119.907,18.742,119.907z"/>
<path fill-rule="evenodd" clip-rule="evenodd" fill="#D3D3D3" d="M20.135,119.907c0-0.094,0-0.187,0-0.279
	c0.417,0.048,1.029-0.1,1.116,0.279C20.878,119.907,20.507,119.907,20.135,119.907z"/>
<path fill-rule="evenodd" clip-rule="evenodd" fill="#343434" d="M22.086,119.907c0.65,0,1.3,0,1.951,0c0,0.093,0,0.185,0,0.278
	C23.459,120.02,22.206,120.53,22.086,119.907z"/>
<path fill-rule="evenodd" clip-rule="evenodd" fill="#D3D3D3" d="M26.824,120.186c-0.199-0.452,1.314-0.452,1.115,0
	C27.567,120.186,27.196,120.186,26.824,120.186z"/>
<path fill-rule="evenodd" clip-rule="evenodd" fill="#717171" d="M30.168,68.067c0.877-0.239,1.156-1.075,1.394-1.952
	c0.877-0.134,1.09,0.397,1.672,0.558c-0.325,0.905-1.74,1.816-1.115,2.787C31.592,68.873,30.516,68.834,30.168,68.067z"/>
<path fill-rule="evenodd" clip-rule="evenodd" fill="#A3A3A3" d="M5.085,90.642c0.719-0.952,1.555-1.789,2.508-2.508
	C6.874,89.086,6.038,89.923,5.085,90.642z"/>
<path fill-rule="evenodd" clip-rule="evenodd" fill="#717171" d="M3.413,92.313c0.439-0.675,0.997-1.231,1.672-1.672
	C4.645,91.317,4.087,91.874,3.413,92.313z"/>
<path fill-rule="evenodd" clip-rule="evenodd" fill="#343434" d="M7.593,116.283c0.492,0.252,0.863,0.623,1.115,1.115
	C8.217,117.147,7.845,116.774,7.593,116.283z"/>
<path fill-rule="evenodd" clip-rule="evenodd" fill="#717171" d="M24.037,120.186c0-0.094,0-0.186,0-0.278
	c1.015-0.087,1.814,0.044,2.509,0.278c0,0.465,0,0.929,0,1.393c0.011,1.203-1.868,1.744-1.394-0.278
	C25.368,120.341,24.997,119.969,24.037,120.186z"/>
<path fill-rule="evenodd" clip-rule="evenodd" fill="#343434" d="M25.152,121.3c-0.474,2.022,1.405,1.481,1.394,0.278
	c0,0.465,0,0.929,0,1.395c-0.465,0-0.93,0-1.394,0C24.934,122.778,24.531,121.417,25.152,121.3z"/>
<path fill-rule="evenodd" clip-rule="evenodd" fill="#343434" d="M43.826,126.875c0.093,0,0.186,0,0.278,0
	c0.764,1.188,2.024,1.877,2.788,3.064C45.753,129.035,44.731,128.013,43.826,126.875z"/>
<path fill-rule="evenodd" clip-rule="evenodd" fill="#D3D3D3" d="M46.892,129.939c-0.764-1.188-2.024-1.877-2.788-3.064
	c1.231,0.998,2.346,2.112,3.346,3.344C47.223,130.165,47.17,129.938,46.892,129.939z"/>
<path fill-rule="evenodd" clip-rule="evenodd" fill="#343434" d="M59.712,139.138c0.252-0.491,0.623-0.862,1.115-1.115
	C60.576,138.515,60.203,138.886,59.712,139.138z"/>
<path fill-rule="evenodd" clip-rule="evenodd" fill="#717171" d="M75.041,85.067c0,0.094,0,0.187,0,0.278
	c0.583,0.441,1.466,0.578,2.51,0.559c0,0.557,0,1.114,0,1.672c-1.012-0.074-2.677-0.976-3.067,0
	C74.738,86.808,74.572,85.618,75.041,85.067z"/>
<path fill-rule="evenodd" clip-rule="evenodd" fill="#D3D3D3" d="M8.708,117.398c-0.252-0.492-0.623-0.863-1.115-1.115
	c0-0.093,0-0.186,0-0.278c0.583,0.346,1.048,0.811,1.394,1.394C8.894,117.398,8.801,117.398,8.708,117.398z"/>
<path fill-rule="evenodd" clip-rule="evenodd" fill="#A3A3A3" d="M7.036,92.313c0.719-0.952,1.556-1.789,2.509-2.508
	C8.825,90.758,7.989,91.595,7.036,92.313z"/>
<path fill-rule="evenodd" clip-rule="evenodd" fill="#D3D3D3" d="M5.085,94.544c0.271-1.123,1.217-1.569,1.951-2.23
	C6.401,93.074,5.802,93.867,5.085,94.544z"/>
<path fill-rule="evenodd" clip-rule="evenodd" fill="#717171" d="M9.544,114.332c0.491,0.253,0.863,0.624,1.115,1.115
	C10.167,115.195,9.796,114.824,9.544,114.332z"/>
<path fill-rule="evenodd" clip-rule="evenodd" fill="#343434" d="M40.481,121.578c-0.491-0.251-0.863-0.623-1.115-1.113
	C39.857,120.716,40.229,121.088,40.481,121.578z"/>
<path fill-rule="evenodd" clip-rule="evenodd" fill="#343434" d="M47.728,126.875c-0.861-0.628-1.604-1.37-2.23-2.23
	C46.358,125.271,47.101,126.014,47.728,126.875z"/>
<path fill-rule="evenodd" clip-rule="evenodd" fill="#717171" d="M47.728,126.875c0.583,0.345,1.048,0.81,1.395,1.393
	C48.538,127.923,48.075,127.458,47.728,126.875z"/>
<path fill-rule="evenodd" clip-rule="evenodd" fill="#343434" d="M54.974,131.892c-0.583-0.346-1.048-0.811-1.395-1.394
	C54.163,130.844,54.627,131.309,54.974,131.892z"/>
<path fill-rule="evenodd" clip-rule="evenodd" fill="#D3D3D3" d="M82.845,42.146c0.478,0.359,1.096,0.577,1.114,1.394
	C83.327,43.336,83.125,42.701,82.845,42.146z"/>
<path fill-rule="evenodd" clip-rule="evenodd" fill="#717171" d="M65.007,6.75c0.77,0.253,1.957,0.086,2.508,0.558
	c-0.735,0.936-0.446,2.897-1.113,3.902c-0.864,0.028-1.547-0.126-1.951-0.558C64.575,9.289,65.025,8.252,65.007,6.75z"/>
<path fill-rule="evenodd" clip-rule="evenodd" fill="#343434" d="M15.955,86.183c0.251-0.491,0.623-0.863,1.115-1.115
	C16.817,85.56,16.446,85.931,15.955,86.183z"/>
<path fill-rule="evenodd" clip-rule="evenodd" fill="#FFFFFF" d="M58.598,2.848c2.534,0.158,4.504,0.884,6.968,1.115
	c0.515,0.414,1.322,0.534,2.228,0.557c5.037,0.771,10.591,1.971,15.609,3.066c1.698,0.371,3.407,0.202,4.459,1.672
	c0,0.186,0,0.372,0,0.557c0,0.836,0,1.672,0,2.508c-1.191,8.377-3.085,16.052-4.181,24.527c-0.451-0.199-0.451,1.314,0,1.115
	c0.006,2.233,3.135,3.386,3.346,5.853c0.21,2.471-2.32,5.838-3.624,8.361c-0.649,1.258-1.289,2.563-1.952,3.902
	c-0.658,1.334-1.568,2.727-1.951,3.901c-0.655,2.021-0.755,4.312-1.113,6.411c-1.022,5.992-2.254,12.423-3.346,18.673
	c-0.469,0.551-0.303,1.74-0.558,2.509c-1.306,9.501-3.466,20.246-5.295,29.822c-0.641,3.354-0.897,6.811-1.673,9.755
	c-0.126,0.48-0.725,1.526-1.113,2.229c-0.099,0.179-0.129,0.636-0.278,0.836c-0.213,0.283-0.514,0.558-0.838,1.115
	c-0.145,0.25-0.438,0.367-0.557,0.558c-0.245,0.396-0.325,1.026-0.558,1.393c-1.067,1.684-2.315,3.204-3.344,4.738
	c-0.492,0.253-0.863,0.624-1.115,1.115c-0.225,0.148-0.453,0.29-0.836,0.278c-0.65,0-1.302,0-1.951,0
	c-2.927-0.534-2.606-4.072-4.181-5.852c-1.519-1.719-3.797-1.419-5.295-3.346c-1-1.231-2.114-2.346-3.346-3.344
	c-0.092,0-0.186,0-0.278,0c-0.366-0.099-0.438-0.491-0.836-0.559c-0.208-0.628-1.563-0.109-2.229-0.278
	c-2.791-0.089-1.517-4.243-5.016-3.623c-0.744,0-1.487,0-2.23,0c-2.265-0.337-3.21-1.993-5.575-2.229c0.2-0.452-1.314-0.452-1.115,0
	c-0.093,0-0.186,0-0.278,0c-0.695-0.234-1.494-0.365-2.509-0.278c-0.65,0-1.3,0-1.951,0c-0.279,0-0.558,0-0.836,0
	c-0.087-0.379-0.698-0.231-1.116-0.279c-0.464,0-0.928,0-1.393,0c-0.65,0-1.3,0-1.951,0c-0.557,0-1.115,0-1.672,0
	c-2.96,0.174-4.813-0.761-6.131-2.229c-0.346-0.583-0.811-1.048-1.394-1.394c-0.873-0.392-1.345-1.739-1.951-2.787
	c-0.243-0.421-0.483-0.785-0.836-1.394c-0.243-0.421-0.482-0.784-0.836-1.394c-0.243-0.421-0.483-0.784-0.836-1.394
	c-0.244-0.421-0.483-0.784-0.836-1.395c-0.627-1.083-1.965-2.85-1.951-4.736c0-1.116,0-2.23,0-3.346
	c0.503-2.935,1.557-5.317,3.066-7.247c0.675-0.439,1.232-0.996,1.672-1.672c0.953-0.719,1.789-1.556,2.508-2.508
	c0.259-0.352,0.574-0.888,0.836-1.115c0.222-0.192,0.581-0.087,0.836-0.278c0.303-0.228,1.043-1.094,1.672-1.395
	c0.597-0.285,1.08-0.233,1.672-0.557c0.87-0.476,2.012-0.906,2.508-1.672c0.392-0.604,0.677-2.332,0.836-3.066
	c0.215-0.993,0.182-2.186,0.558-3.345c0.46-0.211,0.46-2.297,0-2.508c-0.938-2.5-3.268-3.607-4.181-6.131c0-0.744,0-1.487,0-2.23
	c0-0.186,0-0.372,0-0.558c1.023-1.3,2.478-2.168,4.738-2.229c1.208,0,2.416,0,3.624,0c3.711,1.119,6.232,3.429,9.476,5.017
	c0.348,0.768,1.424,0.806,1.951,1.393c2.018,0.381,3.935,3.015,6.689,2.508c2.693-0.495,2.71-4.352,3.344-7.525
	c3.614-18.095,7.103-34.966,10.591-52.955c0.713-3.679,0.831-8.432,3.346-8.64C56.925,2.848,57.761,2.848,58.598,2.848z
	 M65.007,6.75c-2.919-0.239-5.257-1.061-8.082-1.394c-3.929,19.064-8.408,42.149-12.263,61.595c-0.322,1.622-0.692,3.9-1.115,4.739
	c-0.853,1.691-2.701,3.004-5.575,3.065c0.047-0.604-0.989-0.126-1.393-0.278c-2.483-0.397-4.037-1.724-5.853-2.787
	c-0.42-0.51-1.203-0.656-1.672-1.115c-3.262-1.476-5.95-3.526-9.198-5.017c0.045-0.458-1.718-0.458-1.672,0
	c-1.198,0.289-2.428,0.546-3.345,1.115c0.785,2.219,2.833,3.157,3.902,5.574c1.167,2.636,0.55,4.232,0,7.246
	c-0.43,2.354-0.621,4.604-1.672,5.574c-0.492,0.252-0.863,0.624-1.115,1.115c-0.632,0.482-1.179,0.74-1.951,1.114
	c-0.65,0.317-1.602,0.469-2.229,0.837c-0.821,0.481-1.201,1.536-2.229,1.672c-0.953,0.719-1.79,1.556-2.509,2.508
	c-0.733,0.661-1.68,1.107-1.951,2.23c-0.807,1.888-1.546,3.842-2.23,5.853c-0.457-0.045-0.457,1.718,0,1.673
	c1.602,4.716,4.569,8.065,6.689,12.263c0.251,0.492,0.623,0.863,1.115,1.115c1.089,0.396,1.738,1.235,3.066,1.394
	c0.035,0.616,1.183,0.119,1.672,0.278c0.558,0,1.115,0,1.672,0c0.465,0,0.93,0,1.394,0c-0.047,0.604,0.988,0.127,1.394,0.279
	c0.465,0,0.929,0,1.394,0c0.371,0,0.743,0,1.114,0c0.65,0,1.301,0,1.951,0c0.279,0,0.558,0,0.836,0c0.093,0,0.186,0,0.278,0
	c0.373,0,0.744,0,1.116,0c0.093,0,0.186,0,0.278,0c0.208,0.628,1.563,0.109,2.23,0.278c2.757-0.063,3.341,2.048,5.853,2.23
	c0.49-0.161,1.637,0.336,1.672-0.279c0.557,0,1.114,0,1.672,0c0.274,0.376,0.744,0.558,1.115,0.837
	c0.252,0.49,0.624,0.862,1.115,1.113c0.287,0.644,0.959,0.899,0.836,1.952c0.093,0,0.186,0,0.278,0
	c0.297,0.632,1.752,0.105,2.508,0.278c0.876-0.133,0.736,0.75,1.394,0.836c0.627,0.86,1.369,1.603,2.23,2.23
	c0.347,0.583,0.81,1.048,1.395,1.393c1.392,0.837,3.017,1.441,4.457,2.23c0.347,0.583,0.812,1.048,1.395,1.394
	c1.016,1.493,1.683,3.334,2.508,5.016c1.293-0.33,2.058-2.059,2.509-2.786c1.021-1.644,2.102-3.109,3.067-4.738
	c0.568-0.963,1.362-1.895,1.671-2.787c0.238-0.691,0.128-1.696,0.278-2.509c0.777-4.173,1.827-8.526,2.508-12.263
	c1.579-8.642,2.885-17.535,4.46-25.363c0.234-0.323,0.368-0.746,0.278-1.394c1.116-6.83,2.204-13.564,3.346-20.067
	c0.385-2.192,0.646-4.735,1.393-6.689c0.415-1.08,1.358-2.165,1.951-3.345c0.613-1.217,1.092-2.515,1.673-3.623
	c0.589-1.125,1.362-2.222,1.951-3.344c0.785-1.503,1.909-3.7,1.393-4.459c-0.019-0.817-0.637-1.035-1.114-1.394
	c-1.092-0.859-1.881-2.022-1.951-3.901c0-0.558,0-1.116,0-1.672c1.084-9.043,3.035-17.218,4.46-25.921
	C79.33,9.615,73.494,8.39,67.515,7.308C66.964,6.836,65.777,7.003,65.007,6.75z"/>
<path fill-rule="evenodd" clip-rule="evenodd" fill="#717171" d="M67.793,4.52c-0.905-0.023-1.713-0.144-2.228-0.557
	c0.513-0.972,0.562-2.41,0.836-3.624c0.37,0,0.743,0,1.113,0c0.373,0,0.743,0,1.116,0C68.334,1.715,68.203,3.256,67.793,4.52z"/>
<path fill-rule="evenodd" clip-rule="evenodd" fill="#A3A3A3" d="M18.185,65.558c-0.046-0.458,1.717-0.458,1.672,0
	C19.299,65.558,18.742,65.558,18.185,65.558z"/>
<path fill-rule="evenodd" clip-rule="evenodd" fill="#717171" d="M16.512,74.198c0.46,0.211,0.46,2.297,0,2.508
	C16.512,75.87,16.512,75.033,16.512,74.198z"/>
<path fill-rule="evenodd" clip-rule="evenodd" fill="#717171" d="M36.58,74.477c0.404,0.152,1.44-0.325,1.393,0.278
	C37.568,74.603,36.532,75.082,36.58,74.477z"/>
<path fill-rule="evenodd" clip-rule="evenodd" fill="#717171" d="M72.253,85.067c0.09,0.647-0.044,1.07-0.278,1.394
	c-1.05,0.215-1.332-0.34-2.229-0.278c-0.146-0.224-0.291-0.453-0.279-0.837C69.172,83.771,71.322,85.271,72.253,85.067z"/>
<path fill-rule="evenodd" clip-rule="evenodd" fill="#717171" d="M26.824,117.398c0.667,0.169,2.022-0.35,2.23,0.278
	C28.387,117.508,27.032,118.026,26.824,117.398z"/>
<path fill-rule="evenodd" clip-rule="evenodd" fill="#717171" d="M34.907,119.907c0.034-0.616,1.182-0.118,1.672-0.279
	C36.544,120.243,35.397,119.746,34.907,119.907z"/>
<path fill-rule="evenodd" clip-rule="evenodd" fill="#D3D3D3" d="M41.596,123.53c0.756,0.172,2.212-0.354,2.508,0.278
	C43.348,123.636,41.893,124.162,41.596,123.53z"/>
<path fill-rule="evenodd" clip-rule="evenodd" fill="#A3A3A3" d="M56.925,139.416c0.649,0,1.301,0,1.951,0
	C58.838,139.876,56.963,139.876,56.925,139.416z"/>
<path fill-rule="evenodd" clip-rule="evenodd" fill="#D3D3D3" d="M17.069,63.05c0.572-0.462,3.052-0.462,3.624,0
	C19.485,63.05,18.277,63.05,17.069,63.05z"/>
<path fill-rule="evenodd" clip-rule="evenodd" fill="#A3A3A3" d="M56.09,2.848c0.21-0.46,2.296-0.46,2.508,0
	C57.761,2.848,56.925,2.848,56.09,2.848z"/>
<path fill-rule="evenodd" clip-rule="evenodd" fill="#A3A3A3" d="M87.862,9.815c0.461,0.212,0.461,2.297,0,2.508
	C87.862,11.488,87.862,10.651,87.862,9.815z"/>
<path fill-rule="evenodd" clip-rule="evenodd" fill="#A3A3A3" d="M12.331,65.837c0,0.743,0,1.486,0,2.23
	C11.872,67.942,11.872,65.96,12.331,65.837z"/>
<path fill-rule="evenodd" clip-rule="evenodd" fill="#717171" d="M29.054,70.575c0.47,0.459,1.252,0.605,1.672,1.115
	c-1.458,0.029-0.798,2.174-2.508,1.952C27.061,72.715,28.732,71.662,29.054,70.575z"/>
<path fill-rule="evenodd" clip-rule="evenodd" fill="#A3A3A3" d="M0.347,99.561c0,1.115,0,2.229,0,3.346
	C-0.116,102.424-0.116,100.041,0.347,99.561z"/>
<path fill-rule="evenodd" clip-rule="evenodd" fill="#717171" d="M13.725,116.841c0.558,0,1.114,0,1.672,0c0,0.093,0,0.187,0,0.278
	C14.908,116.96,13.76,117.457,13.725,116.841z"/>
<path fill-rule="evenodd" clip-rule="evenodd" fill="#A3A3A3" d="M40.76,126.038c0.667,0.169,2.022-0.35,2.229,0.278
	C42.323,126.147,40.967,126.667,40.76,126.038z"/>
<path fill-rule="evenodd" clip-rule="evenodd" fill="#717171" d="M33.514,122.415c0.743,0,1.486,0,2.23,0
	C35.619,122.875,33.637,122.875,33.514,122.415z"/>
</svg>
