<?xml version="1.0" encoding="utf-8"?>
<!-- Generator: Adobe Illustrator 15.0.0, SVG Export Plug-In  -->
<!DOCTYPE svg PUBLIC "-//W3C//DTD SVG 1.1//EN" "http://www.w3.org/Graphics/SVG/1.1/DTD/svg11.dtd" [
	<!ENTITY ns_flows "http://ns.adobe.com/Flows/1.0/">
]>
<svg version="1.1"
	 xmlns="http://www.w3.org/2000/svg" xmlns:xlink="http://www.w3.org/1999/xlink" xmlns:a="http://ns.adobe.com/AdobeSVGViewerExtensions/3.0/"
	 x="0px" y="0px" width="142px" height="142px" viewBox="-8.575 -2.307 142 142" enable-background="new -8.575 -2.307 142 142"
	 xml:space="preserve">
<defs>
</defs>
<path fill-rule="evenodd" clip-rule="evenodd" fill="#D3D3D3" d="M67.793,2.832c0.389-0.461,2.674-0.461,3.064,0
	C69.836,2.832,68.815,2.832,67.793,2.832z"/>
<path fill-rule="evenodd" clip-rule="evenodd" fill="#2F2F2F" d="M64.168,14.817c-0.045-0.457,1.718-0.457,1.673,0
	C65.283,14.817,64.726,14.817,64.168,14.817z"/>
<path fill-rule="evenodd" clip-rule="evenodd" fill="#2F2F2F" d="M64.448,17.604c-0.2-0.453,1.313-0.453,1.115,0
	C65.191,17.604,64.82,17.604,64.448,17.604z"/>
<path fill-rule="evenodd" clip-rule="evenodd" fill="#D3D3D3" d="M82.286,25.687c0.379,0.086,0.23,0.698,0.278,1.115
	c-0.092,0-0.187,0-0.278,0C82.286,26.43,82.286,26.058,82.286,25.687z"/>
<path fill-rule="evenodd" clip-rule="evenodd" fill="#D3D3D3" d="M84.794,27.081c0.092,0,0.186,0,0.278,0c0,3.251,0,6.503,0,9.754
	C84.423,34.139,84.978,30.24,84.794,27.081z"/>
<path fill-rule="evenodd" clip-rule="evenodd" fill="#2F2F2F" d="M74.48,31.818c0.413,0.052,0.257,0.673,0.281,1.114
	c-0.095,0-0.187,0-0.281,0C74.48,32.562,74.48,32.19,74.48,31.818z"/>
<path fill-rule="evenodd" clip-rule="evenodd" fill="#2F2F2F" d="M71.694,32.376c0.094,0,0.187,0,0.278,0c0,0.372,0,0.743,0,1.115
	C71.559,33.439,71.717,32.817,71.694,32.376z"/>
<path fill-rule="evenodd" clip-rule="evenodd" fill="#6F6F6F" d="M74.48,32.933c0.095,0,0.187,0,0.281,0c0,1.487,0,2.973,0,4.46
	c-0.095,0-0.187,0-0.281,0C74.48,35.906,74.48,34.42,74.48,32.933z"/>
<path fill-rule="evenodd" clip-rule="evenodd" fill="#2F2F2F" d="M71.972,36.835c0,0.465,0,0.93,0,1.394c-0.092,0-0.185,0-0.278,0
	C71.846,37.824,71.37,36.788,71.972,36.835z"/>
<path fill-rule="evenodd" clip-rule="evenodd" fill="#2F2F2F" d="M74.48,37.393c0.095,0,0.187,0,0.281,0
	c-0.154,0.405,0.324,1.441-0.281,1.394C74.48,38.321,74.48,37.857,74.48,37.393z"/>
<path fill-rule="evenodd" clip-rule="evenodd" fill="#6F6F6F" d="M71.694,38.229c0.094,0,0.187,0,0.278,0c0,0.557,0,1.115,0,1.672
	c-0.092,0-0.185,0-0.278,0C71.694,39.344,71.694,38.786,71.694,38.229z"/>
<path fill-rule="evenodd" clip-rule="evenodd" fill="#A1A1A1" d="M71.694,39.901c0.094,0,0.187,0,0.278,0c0,0.836,0,1.673,0,2.509
	c-0.092,0-0.185,0-0.278,0C71.694,41.574,71.694,40.737,71.694,39.901z"/>
<path fill-rule="evenodd" clip-rule="evenodd" fill="#D3D3D3" d="M74.48,39.901c0,0.929,0,1.858,0,2.787
	C74.02,42.388,74.02,40.202,74.48,39.901z"/>
<path fill-rule="evenodd" clip-rule="evenodd" fill="#2F2F2F" d="M19.575,41.294c0,0.372,0,0.743,0,1.115
	C19.124,42.609,19.124,41.095,19.575,41.294z"/>
<path fill-rule="evenodd" clip-rule="evenodd" fill="#2F2F2F" d="M0.344,49.656c0,0.65,0,1.301,0,1.951
	C-0.115,51.569-0.115,49.694,0.344,49.656z"/>
<path fill-rule="evenodd" clip-rule="evenodd" fill="#2F2F2F" d="M2.852,50.213c0.093,0,0.186,0,0.279,0c0,0.464,0,0.929,0,1.394
	C2.527,51.654,3.005,50.618,2.852,50.213z"/>
<path fill-rule="evenodd" clip-rule="evenodd" fill="#D3D3D3" d="M64.448,83.659c0.457-0.045,0.457,1.718,0,1.672
	C64.448,84.773,64.448,84.216,64.448,83.659z"/>
<path fill-rule="evenodd" clip-rule="evenodd" fill="#2F2F2F" d="M125.207,93.971c0.461,0.124,0.461,2.105,0,2.229
	C125.207,95.458,125.207,94.714,125.207,93.971z"/>
<path fill-rule="evenodd" clip-rule="evenodd" fill="#2F2F2F" d="M122.419,94.528c0.093,0,0.187,0,0.279,0c0,0.465,0,0.93,0,1.395
	c-0.093,0-0.187,0-0.279,0C122.419,95.458,122.419,94.993,122.419,94.528z"/>
<path fill-rule="evenodd" clip-rule="evenodd" fill="#2F2F2F" d="M59.431,110.694c0,0.465,0,0.928,0,1.393c-0.093,0-0.186,0-0.279,0
	C59.305,111.682,58.827,110.646,59.431,110.694z"/>
<path fill-rule="evenodd" clip-rule="evenodd" fill="#2F2F2F" d="M61.939,111.251c0.093,0,0.186,0,0.279,0
	c-0.048,0.417,0.099,1.027-0.279,1.114C61.939,111.995,61.939,111.622,61.939,111.251z"/>
<path fill-rule="evenodd" clip-rule="evenodd" fill="#D3D3D3" d="M93.992,134.383c0.649,0,1.3,0,1.949,0
	C95.905,134.842,94.03,134.842,93.992,134.383z"/>
<path fill-rule="evenodd" clip-rule="evenodd" fill="#6F6F6F" d="M36.576,12.587c0.353-1.185-1.213-2.624-1.393-4.181
	c0.712-0.125,1.281-0.391,1.672-0.836c0.989,0.961,1.088,2.813,2.229,3.623C38.443,11.853,37.375,12.086,36.576,12.587z"/>
<path fill-rule="evenodd" clip-rule="evenodd" fill="#2F2F2F" d="M8.427,30.146c0.813-1.046,1.741-1.975,2.787-2.787
	c-0.385,0.822-1.287,1.128-1.672,1.951C8.973,29.392,8.995,30.064,8.427,30.146z"/>
<path fill-rule="evenodd" clip-rule="evenodd" fill="#2F2F2F" d="M3.688,60.526c0.583,0.346,1.047,0.811,1.394,1.393
	C4.499,61.573,4.035,61.109,3.688,60.526z"/>
<path fill-rule="evenodd" clip-rule="evenodd" fill="#D3D3D3" d="M62.497,80.593c0.806,0.122,1.271,0.587,1.394,1.394
	C63.272,81.676,63.135,80.884,62.497,80.593z"/>
<path fill-rule="evenodd" clip-rule="evenodd" fill="#A1A1A1" d="M60.824,118.776c0.675,0.44,1.232,0.997,1.672,1.673
	C61.821,120.009,61.264,119.452,60.824,118.776z"/>
<path fill-rule="evenodd" clip-rule="evenodd" fill="#2F2F2F" d="M63.333,121.563c0.733,0.289,0.939,1.105,1.671,1.395
	c0.054,0.226,0.28,0.277,0.278,0.557C64.516,122.981,63.866,122.332,63.333,121.563z"/>
<path fill-rule="evenodd" clip-rule="evenodd" fill="#6F6F6F" d="M65.283,123.514c0.583,0.347,1.048,0.811,1.395,1.394
	C66.094,124.562,65.629,124.097,65.283,123.514z"/>
<path fill-rule="evenodd" clip-rule="evenodd" fill="#A1A1A1" d="M66.677,124.908c0.675,0.439,1.232,0.998,1.673,1.673
	C67.675,126.141,67.118,125.583,66.677,124.908z"/>
<path fill-rule="evenodd" clip-rule="evenodd" fill="#A1A1A1" d="M119.912,83.102c0.583,0.345,1.048,0.81,1.393,1.393
	C120.721,84.148,120.256,83.685,119.912,83.102z"/>
<path fill-rule="evenodd" clip-rule="evenodd" fill="#D3D3D3" d="M23.477,45.754c0.619,0.31,0.755,1.103,1.394,1.394
	C24.064,47.024,23.6,46.56,23.477,45.754z"/>
<path fill-rule="evenodd" clip-rule="evenodd" fill="#2F2F2F" d="M25.149,35.163c0.252-0.491,0.624-0.862,1.115-1.114
	C26.013,34.54,25.641,34.911,25.149,35.163z"/>
<path fill-rule="evenodd" clip-rule="evenodd" fill="#D3D3D3" d="M65.004,122.958c-0.732-0.289-0.938-1.105-1.671-1.395
	c-0.082-0.568-0.754-0.546-0.836-1.114C63.449,121.168,64.286,122.004,65.004,122.958z"/>
<path fill-rule="evenodd" clip-rule="evenodd" fill="#D3D3D3" d="M5.082,61.919c-0.346-0.583-0.811-1.047-1.394-1.393
	c0-0.093,0-0.186,0-0.279c0.675,0.44,1.233,0.998,1.672,1.672C5.268,61.919,5.175,61.919,5.082,61.919z"/>
<path fill-rule="evenodd" clip-rule="evenodd" fill="#D3D3D3" d="M8.427,30.146c0.568-0.082,0.546-0.754,1.115-0.836
	c-0.252,0.491-0.624,0.863-1.115,1.114C8.427,30.332,8.427,30.239,8.427,30.146z"/>
<path fill-rule="evenodd" clip-rule="evenodd" fill="#2F2F2F" d="M11.214,31.261c0.346-0.583,0.811-1.047,1.394-1.394
	C12.261,30.451,11.797,30.915,11.214,31.261z"/>
<path fill-rule="evenodd" clip-rule="evenodd" fill="#6F6F6F" d="M5.64,58.575c0.583,0.346,1.047,0.811,1.393,1.394
	C6.45,59.622,5.985,59.157,5.64,58.575z"/>
<path fill-rule="evenodd" clip-rule="evenodd" fill="#A1A1A1" d="M63.054,117.383c0.768,0.532,1.418,1.183,1.951,1.95
	C64.238,118.801,63.586,118.15,63.054,117.383z"/>
<path fill-rule="evenodd" clip-rule="evenodd" fill="#6F6F6F" d="M65.004,119.333c0.583,0.347,1.048,0.812,1.395,1.394
	C65.816,120.381,65.351,119.917,65.004,119.333z"/>
<path fill-rule="evenodd" clip-rule="evenodd" fill="#D3D3D3" d="M66.956,121.563c0.647,0.189,0.747,0.927,1.395,1.115
	c0.098,0.366,0.491,0.438,0.557,0.836C68.14,122.981,67.489,122.332,66.956,121.563z"/>
<path fill-rule="evenodd" clip-rule="evenodd" fill="#D3D3D3" d="M69.743,124.351c0.418,0.416,1.174,0.498,1.395,1.114
	C70.32,125.447,70.101,124.828,69.743,124.351z"/>
<path fill-rule="evenodd" clip-rule="evenodd" fill="#2F2F2F" d="M110.714,130.204c0.252-0.491,0.623-0.863,1.113-1.115
	C111.578,129.58,111.205,129.953,110.714,130.204z"/>
<path fill-rule="evenodd" clip-rule="evenodd" fill="#6F6F6F" d="M21.805,47.984c0.492,0.251,0.863,0.623,1.115,1.114
	C22.429,48.846,22.056,48.475,21.805,47.984z"/>
<path fill-rule="evenodd" clip-rule="evenodd" fill="#2F2F2F" d="M22.641,33.769c0.534-0.768,1.184-1.417,1.952-1.951
	C24.059,32.586,23.408,33.236,22.641,33.769z"/>
<path fill-rule="evenodd" clip-rule="evenodd" fill="#2F2F2F" d="M70.301,17.325c-0.585-0.346-1.048-0.81-1.395-1.393
	C69.49,16.278,69.955,16.742,70.301,17.325z"/>
<path fill-rule="evenodd" clip-rule="evenodd" fill="#2F2F2F" d="M68.35,122.678c-0.647-0.188-0.747-0.926-1.395-1.115
	c-0.098-0.365-0.491-0.438-0.557-0.836C67.166,121.26,67.817,121.911,68.35,122.678z"/>
<path fill-rule="evenodd" clip-rule="evenodd" fill="#6F6F6F" d="M64.726,95.922c0.339-0.498,0.052-1.622,0.557-1.951
	c0,0.093,0,0.187,0,0.278c0.583,0.813,2.845-0.058,2.511,1.673C67.28,97.181,65.852,95.766,64.726,95.922z"/>
<path fill-rule="evenodd" clip-rule="evenodd" fill="#A1A1A1" d="M68.072,0.045c1.214,0.18,3.149-0.364,3.9,0.278
	c-1.3,0-2.601,0-3.9,0C68.072,0.231,68.072,0.138,68.072,0.045z"/>
<path fill-rule="evenodd" clip-rule="evenodd" fill="#6F6F6F" d="M37.97,14.817c0.627-0.488,1.567-0.662,2.23-1.115
	c0.33,1.832,2.925,3.876,0.278,4.738C38.905,17.969,39.091,15.74,37.97,14.817z"/>
<path fill-rule="evenodd" clip-rule="evenodd" fill="#6F6F6F" d="M83.957,14.538c0.617,0.035,0.12,1.183,0.28,1.672
	C83.62,16.176,84.117,15.028,83.957,14.538z"/>
<path fill-rule="evenodd" clip-rule="evenodd" fill="#6F6F6F" d="M81.449,16.21c0.623,0.12,0.113,1.374,0.28,1.951
	C81.104,18.042,81.615,16.788,81.449,16.21z"/>
<path fill-rule="evenodd" clip-rule="evenodd" fill="#6F6F6F" d="M52.742,17.604c-0.282,0.461-1.184,0.302-1.672,0.557
	c0.971-0.643-1.509-3.075,0.557-3.066C52.616,14.379,52.456,16.739,52.742,17.604z"/>
<path fill-rule="evenodd" clip-rule="evenodd" fill="#6F6F6F" d="M84.237,17.047c0.627,0.208,0.108,1.563,0.278,2.229
	C83.886,19.069,84.406,17.713,84.237,17.047z"/>
<path fill-rule="evenodd" clip-rule="evenodd" fill="#6F6F6F" d="M81.729,19.276c0.627,0.208,0.108,1.564,0.278,2.23
	C81.378,21.298,81.897,19.943,81.729,19.276z"/>
<path fill-rule="evenodd" clip-rule="evenodd" fill="#6F6F6F" d="M84.515,20.391c0.632,0.297,0.106,1.752,0.279,2.509
	C84.161,22.603,84.688,21.148,84.515,20.391z"/>
<path fill-rule="evenodd" clip-rule="evenodd" fill="#6F6F6F" d="M82.007,22.621c0.631,0.297,0.106,1.752,0.278,2.509
	C81.653,24.833,82.179,23.377,82.007,22.621z"/>
<path fill-rule="evenodd" clip-rule="evenodd" fill="#6F6F6F" d="M74.202,28.753c0.623,0.12,0.114,1.373,0.278,1.951
	C73.857,30.583,74.369,29.33,74.202,28.753z"/>
<path fill-rule="evenodd" clip-rule="evenodd" fill="#A1A1A1" d="M82.286,33.491c0-2.23,0-4.459,0-6.689c0.092,0,0.187,0,0.278,0
	c0,2.23,0,4.459,0,6.689C82.472,33.491,82.377,33.491,82.286,33.491z"/>
<path fill-rule="evenodd" clip-rule="evenodd" fill="#6F6F6F" d="M71.972,42.41c0,0.557,0,1.115,0,1.672
	c-0.615-0.034-0.118-1.182-0.278-1.672C71.788,42.41,71.88,42.41,71.972,42.41z"/>
<path fill-rule="evenodd" clip-rule="evenodd" fill="#6F6F6F" d="M82.564,33.491c-0.187,3.438,0.371,7.617-0.278,10.591
	c0-3.53,0-7.06,0-10.591C82.377,33.491,82.472,33.491,82.564,33.491z"/>
<path fill-rule="evenodd" clip-rule="evenodd" fill="#6F6F6F" d="M0.623,46.869c-0.16,0.49,0.336,1.638-0.279,1.673
	C0.504,48.051,0.007,46.904,0.623,46.869z"/>
<path fill-rule="evenodd" clip-rule="evenodd" fill="#6F6F6F" d="M77.269,50.213c0.836,0,1.671,0,2.509,0
	C79.565,50.674,77.48,50.674,77.269,50.213z"/>
<path fill-rule="evenodd" clip-rule="evenodd" fill="#6F6F6F" d="M109.042,76.969c-0.741-0.188-1.419-0.438-1.951-0.836
	c0.524-0.683,1.052-1.363,1.115-2.508c0.651,0.091,1.152,0.335,1.671,0.557C109.576,75.032,108.539,76.193,109.042,76.969z"/>
<path fill-rule="evenodd" clip-rule="evenodd" fill="#6F6F6F" d="M107.927,79.477c-1.224,0.264-0.381,2.594-2.229,2.23
	c-1.21-0.688,0.465-1.966,0.557-3.065C106.687,79.045,107.554,79.013,107.927,79.477z"/>
<path fill-rule="evenodd" clip-rule="evenodd" fill="#6F6F6F" d="M122.419,93.415c0.379,0.086,0.23,0.696,0.279,1.113
	c-0.093,0-0.187,0-0.279,0C122.419,94.158,122.419,93.785,122.419,93.415z"/>
<path fill-rule="evenodd" clip-rule="evenodd" fill="#6F6F6F" d="M62.497,93.693c0.027,0.863-0.126,1.545-0.558,1.95
	c-0.125-1.082-1.921-0.494-2.508-1.115c-0.114-0.671,0.509-0.604,0.279-1.394C60.627,93.332,61.491,93.583,62.497,93.693z"/>
<path fill-rule="evenodd" clip-rule="evenodd" fill="#A1A1A1" d="M122.699,95.922c-0.024,0.44,0.134,1.063-0.279,1.114
	c0-0.371,0-0.743,0-1.114C122.512,95.922,122.606,95.922,122.699,95.922z"/>
<path fill-rule="evenodd" clip-rule="evenodd" fill="#6F6F6F" d="M59.71,107.907c-0.161,0.49,0.336,1.637-0.279,1.672
	C59.591,109.088,59.094,107.941,59.71,107.907z"/>
<path fill-rule="evenodd" clip-rule="evenodd" fill="#6F6F6F" d="M59.431,112.086c0,1.395,0,2.788,0,4.182
	c-0.643-0.844-0.098-2.875-0.279-4.182C59.245,112.086,59.338,112.086,59.431,112.086z"/>
<path fill-rule="evenodd" clip-rule="evenodd" fill="#FFFFFF" d="M39.085,11.194c4.681-2.162,10.406-5.44,15.608-7.804
	c3.328-1.512,6.525-2.847,11.428-3.066c0.648,0,1.3,0,1.951,0c1.3,0,2.601,0,3.9,0c3.363,0.219,6.327,1.926,8.084,4.181
	c0.739,0.95,1.568,2.467,2.229,3.902c0.793,1.727,1.555,3.43,1.671,6.131c0.16,0.49-0.337,1.638,0.28,1.672c0,0.279,0,0.558,0,0.836
	c0.169,0.666-0.351,2.022,0.278,2.229c0,0.372,0,0.744,0,1.115c0.173,0.757-0.354,2.212,0.279,2.509c0,0.372,0,0.743,0,1.115
	c0,1.022,0,2.043,0,3.066c0.184,3.159-0.371,7.059,0.278,9.754c-0.139,3.167,0.311,6.223-0.278,8.641
	c-0.605,2.486-2.028,3.597-3.903,4.738c-0.37,0-0.743,0-1.113,0c-0.838,0-1.673,0-2.509,0c-3.133-0.677-4.998-2.621-5.297-6.132
	c0-0.557,0-1.115,0-1.672c0-0.836,0-1.672,0-2.509c0-0.557,0-1.115,0-1.672c0-0.464,0-0.929,0-1.394c0-1.114,0-2.23,0-3.344
	c0-0.372,0-0.743,0-1.115c-0.16-0.49,0.339-1.638-0.278-1.672c-0.351-2.439-0.783-5.42-1.673-7.804
	c-0.886-2.377-2.052-4.866-4.458-5.295c0.198-0.453-1.315-0.453-1.115,0c-3.857,0.509-6.605,2.127-10.591,2.508
	c-0.488,0.255-1.391,0.096-1.672,0.558c-4.585,1.077-8.833,3.104-12.542,5.295c-0.188,0.111-0.627,0.123-0.836,0.279
	c-0.116,0.087-0.167,0.493-0.278,0.557c-0.462,0.268-1,0.336-1.394,0.558c-3.384,1.909-7.436,4.304-10.87,6.689
	c-0.492,0.252-0.863,0.623-1.115,1.114c-1.093,1.601-2.178,3.211-2.787,5.296c-0.461,0.211-0.461,2.296,0,2.508
	c0.186,1.115,0.691,1.91,1.114,2.787c0.124,0.806,0.588,1.271,1.394,1.394c3.413,2.018,7.486,2.132,11.148,2.787
	c4.021,0.72,7.846,1.536,11.706,2.23c3.98,0.716,7.683,1.357,11.148,2.787c0.14,0.058,0.455,0.527,0.557,0.558
	c2.207,0.667,4.461,1.799,6.69,2.787c1.14,0.506,2.342,1.067,3.622,1.672c0.812,0.384,2.514,0.898,3.624,1.394
	c1.555,0.694,3.155,1.521,4.738,2.229c9.39,4.202,19.29,8.343,28.985,12.542c0.532,0.397,1.21,0.648,1.951,0.836
	c4.154,1.513,8.071,3.263,10.87,6.133c0.345,0.583,0.81,1.046,1.393,1.393c2.197,2.262,3.742,5.177,3.902,9.477
	c0,0.743,0,1.486,0,2.229c0.002,3.768-1.486,6.993-2.787,10.87c-1.94,5.781-3.766,11.631-5.854,17.559
	c-1.088,3.094-1.938,6.26-3.9,7.804c-1.569,1.232-4.251,1.803-6.968,2.509c-2.949,0.766-5.544,1.658-8.641,1.95
	c-1.395,0-2.787,0-4.182,0c-2.793-0.454-6.353-1.574-9.476-2.509c-4.506-1.347-8.324-2.849-11.706-5.016
	c-1.158-0.743-2.395-1.508-3.344-2.787c-0.44-0.675-0.998-1.233-1.673-1.673c-0.347-0.583-0.812-1.047-1.395-1.394
	c0.002-0.279-0.225-0.331-0.278-0.557c-0.719-0.953-1.556-1.789-2.508-2.509c-0.44-0.676-0.997-1.232-1.672-1.673
	c-0.817-0.482-1.294-1.307-1.394-2.508c0-1.394,0-2.787,0-4.182c0-0.465,0-0.928,0-1.393c0-0.372,0-0.743,0-1.115
	c0.616-0.035,0.119-1.182,0.279-1.672c0.275-4.556,1.638-8.023,2.229-12.264c0.432-0.405,0.585-1.087,0.558-1.95
	c0.604-2.835,1.231-5.645,1.951-8.362c0.457,0.046,0.457-1.717,0-1.672c-0.223-0.521-0.466-1.021-0.558-1.672
	c-0.123-0.807-0.587-1.271-1.394-1.394c-4.373-1.83-9.12-3.011-13.936-4.46c-1.181-0.355-2.424-0.738-3.624-1.114
	c-1.179-0.372-2.221-0.768-3.344-1.115c-2.417-0.749-4.832-1.22-7.247-1.951c-0.571-0.172-1.08-0.667-1.672-0.835
	c-0.625-0.18-1.319-0.089-1.951-0.28c-1.091-0.33-2.252-0.777-3.345-1.114c-3.543-1.092-6.86-2.213-10.591-3.345
	c-1.091-0.331-2.234-0.772-3.345-1.115c-3.047-0.94-6.339-1.3-8.083-3.344c-0.439-0.675-0.997-1.232-1.672-1.672
	c-2.013-1.982-3.162-4.828-3.345-8.64c0-0.65,0-1.301,0-1.951c0-0.371,0-0.743,0-1.114c0.616-0.035,0.119-1.183,0.279-1.673
	c0.974-7.108,3.813-12.351,7.804-16.444c0.491-0.251,0.863-0.623,1.115-1.114c0.385-0.823,1.287-1.129,1.672-1.951
	c7.35-6.028,16.257-10.499,25.362-14.771C37.375,12.086,38.443,11.853,39.085,11.194z M67.793,2.832
	c-11.721,1.102-18.393,7.25-27.594,10.87c-0.663,0.453-1.603,0.627-2.23,1.115c-8.76,4.711-18.038,8.904-25.362,15.05
	c-0.583,0.347-1.047,0.811-1.394,1.394c-3.978,4.477-7.137,9.772-8.083,17.281c-0.616,0.034-0.119,1.182-0.279,1.672
	c0.153,0.405-0.325,1.44,0.279,1.394c0.138,3.021,1.341,4.977,2.508,6.968c0.346,0.583,0.81,1.047,1.393,1.394
	c2.101,1.15,4.625,1.898,7.525,2.787c1.969,0.604,4.156,1.229,6.132,1.672c0.106,0.024,0.688,0.513,0.836,0.558
	c6.869,2.074,14.341,4.346,20.904,6.411c1.094,0.344,2.268,0.781,3.344,1.113c0.655,0.204,1.372,0.113,1.952,0.279
	c0.623,0.179,1.051,0.65,1.672,0.837c1.114,0.334,2.415,0.482,3.623,0.835c3.763,1.1,8.898,2.118,11.427,4.182
	c1.193,0.975,2.712,2.749,2.508,4.18c0,1.208,0,2.416,0,3.624c-0.316,2.749-1.09,5.041-1.673,7.525
	c-0.505,0.329-0.218,1.453-0.557,1.951c-0.663,4.725-1.901,8.875-2.508,13.656c-0.616,0.035-0.119,1.182-0.279,1.673
	c0,0.37,0,0.743,0,1.114c-0.182,2.227,0.243,3.845,1.115,5.018c0.533,0.767,1.184,1.418,1.951,1.95
	c0.347,0.584,0.812,1.048,1.395,1.394c0.065,0.398,0.459,0.471,0.557,0.836c0.533,0.769,1.185,1.418,1.951,1.951
	c0.401,0.156,0.68,0.435,0.836,0.837c0.358,0.477,0.577,1.096,1.395,1.114c5.791,4.799,14.769,6.414,22.854,8.918
	c0.038,0.459,1.913,0.459,1.949,0c5.03-1.288,10.432-2.203,14.773-4.18c0.49-0.251,0.863-0.624,1.113-1.115
	c0.569-1.157,1.158-2.483,1.673-3.902c1.429-3.939,2.572-8.021,3.903-11.984c1.799-5.358,3.734-10.693,5.016-16.165
	c0.413-0.052,0.255-0.674,0.279-1.114c0-0.465,0-0.93,0-1.395c-0.049-0.417,0.1-1.027-0.279-1.113
	c-1.22-8.258-7.818-11.135-14.492-13.938c-0.373-0.464-1.24-0.432-1.673-0.835c-0.187,0-0.373,0-0.557,0
	c-6.438-2.809-12.575-5.358-18.674-8.083c-6.057-2.706-12.261-5.24-18.674-8.083c-1.541-0.683-2.953-1.568-4.46-2.23
	c-0.773-0.339-1.76-0.51-2.508-0.836c-0.824-0.358-1.444-0.774-2.23-1.115c-8.54-3.697-20.486-4.647-30.101-6.689
	C28,51.383,26.9,51.376,25.985,51.05c-0.118-0.043-0.407-0.492-0.557-0.558c-0.437-0.191-0.793-0.097-1.115-0.279
	c-0.428-0.242-0.937-0.763-1.393-1.115c-0.252-0.491-0.624-0.863-1.115-1.114c-1.291-1.311-2.253-2.95-2.229-5.574
	c0-0.372,0-0.744,0-1.115c-0.036-3.566,1.669-5.391,3.065-7.525c0.768-0.533,1.418-1.183,1.952-1.951
	c0.728-0.733,1.784-1.346,2.508-1.672c0.091-0.041,0.174-0.489,0.278-0.557c0.482-0.316,1.092-0.488,1.672-0.836
	c1.745-1.049,3.109-1.849,4.738-2.788c1.319-0.76,2.994-1.641,3.902-2.229c0.883-0.572,1.673-0.951,2.508-1.394
	c3.32-1.758,6.716-3.526,10.87-4.18c0.489-0.255,1.391-0.096,1.672-0.557c4.026-0.712,7.13-2.346,11.427-2.788
	c0.558,0,1.114,0,1.673,0c1.571-0.178,2.18,0.606,3.065,1.115c0.347,0.583,0.81,1.047,1.395,1.393
	c1.97,3.141,3.462,6.756,3.9,11.428c0.167,0.577-0.345,1.831,0.278,1.951c0,0.372,0,0.743,0,1.115c0,0.372,0,0.743,0,1.114
	c0,1.487,0,2.973,0,4.46c0,0.465,0,0.929,0,1.394c0,0.371,0,0.743,0,1.115c-0.46,0.301-0.46,2.487,0,2.787
	c0.106,2.828,1.796,5.226,4.46,5.017c1.761-0.138,2.951-1.652,3.346-3.624c0.649-2.974,0.092-7.153,0.278-10.591
	c0-2.23,0-4.459,0-6.689c-0.048-0.417,0.101-1.028-0.278-1.115c0-0.186,0-0.372,0-0.557c-0.172-0.757,0.353-2.212-0.278-2.509
	c0-0.372,0-0.743,0-1.115c-0.17-0.666,0.349-2.022-0.278-2.23c0-0.372,0-0.743,0-1.114c-0.167-0.577,0.343-1.831-0.28-1.951
	c-1.036-6.953-3.46-12.52-10.591-13.378C70.467,2.371,68.182,2.371,67.793,2.832z"/>
<path fill-rule="evenodd" clip-rule="evenodd" fill="#6F6F6F" d="M52.185,20.67c0.281-0.462,1.184-0.302,1.672-0.558
	c-0.643,0.847,0.486,1.784,0.278,3.066c-0.441,0.023-1.063-0.134-1.114,0.278C52.379,22.891,52.272,21.79,52.185,20.67z"/>
<path fill-rule="evenodd" clip-rule="evenodd" fill="#6F6F6F" d="M84.794,24.015c0.637,0.477,0.102,2.127,0.278,3.066
	c-0.093,0-0.187,0-0.278,0C84.794,26.058,84.794,25.037,84.794,24.015z"/>
<path fill-rule="evenodd" clip-rule="evenodd" fill="#6F6F6F" d="M71.694,30.704c0.617,0.035,0.118,1.183,0.278,1.672
	c-0.092,0-0.185,0-0.278,0C71.694,31.818,71.694,31.261,71.694,30.704z"/>
<path fill-rule="evenodd" clip-rule="evenodd" fill="#6F6F6F" d="M22.362,40.458c0,0.836,0,1.672,0,2.508
	C21.901,42.755,21.901,40.67,22.362,40.458z"/>
<path fill-rule="evenodd" clip-rule="evenodd" fill="#6F6F6F" d="M3.131,48.542c0,0.557,0,1.114,0,1.672c-0.093,0-0.186,0-0.279,0
	C3.013,49.723,2.516,48.575,3.131,48.542z"/>
<path fill-rule="evenodd" clip-rule="evenodd" fill="#A1A1A1" d="M66.956,82.822c0.463,0.572,0.463,3.053,0,3.624
	C66.956,85.238,66.956,84.03,66.956,82.822z"/>
<path fill-rule="evenodd" clip-rule="evenodd" fill="#6F6F6F" d="M62.218,109.579c0,0.557,0,1.115,0,1.673c-0.093,0-0.186,0-0.279,0
	C62.1,110.76,61.603,109.614,62.218,109.579z"/>
<path fill-rule="evenodd" clip-rule="evenodd" fill="#A1A1A1" d="M92.875,136.892c1.395,0,2.787,0,4.182,0
	C96.301,137.356,93.631,137.356,92.875,136.892z"/>
<path fill-rule="evenodd" clip-rule="evenodd" fill="#6F6F6F" d="M66.121,0.324c0.12-0.623,1.374-0.112,1.951-0.278
	c0,0.093,0,0.186,0,0.278C67.42,0.324,66.769,0.324,66.121,0.324z"/>
</svg>
