<?xml version="1.0" encoding="utf-8"?>
<!-- Generator: Adobe Illustrator 15.0.0, SVG Export Plug-In  -->
<!DOCTYPE svg PUBLIC "-//W3C//DTD SVG 1.1//EN" "http://www.w3.org/Graphics/SVG/1.1/DTD/svg11.dtd" [
	<!ENTITY ns_flows "http://ns.adobe.com/Flows/1.0/">
]>
<svg version="1.1"
	 xmlns="http://www.w3.org/2000/svg" xmlns:xlink="http://www.w3.org/1999/xlink" xmlns:a="http://ns.adobe.com/AdobeSVGViewerExtensions/3.0/"
	 x="0px" y="0px" width="142px" height="142px" viewBox="-8.576 -2.307 142 142" enable-background="new -8.576 -2.307 142 142"
	 xml:space="preserve">
<defs>
</defs>
<path fill-rule="evenodd" clip-rule="evenodd" fill="#D6D6D6" d="M67.792,2.832c0.389-0.461,2.674-0.461,3.064,0
	C69.835,2.832,68.814,2.832,67.792,2.832z"/>
<path fill-rule="evenodd" clip-rule="evenodd" fill="#323232" d="M64.167,14.817c-0.125-0.455,1.519-0.455,1.395,0
	C65.097,14.817,64.632,14.817,64.167,14.817z"/>
<path fill-rule="evenodd" clip-rule="evenodd" fill="#323232" d="M64.447,17.604c-0.2-0.453,1.313-0.453,1.115,0
	C65.19,17.604,64.819,17.604,64.447,17.604z"/>
<path fill-rule="evenodd" clip-rule="evenodd" fill="#D6D6D6" d="M82.285,25.687c0.379,0.086,0.23,0.698,0.278,1.115
	c-0.092,0-0.187,0-0.278,0C82.285,26.43,82.285,26.058,82.285,25.687z"/>
<path fill-rule="evenodd" clip-rule="evenodd" fill="#A3A3A3" d="M84.793,25.965c0.092,0,0.186,0,0.278,0c0,0.372,0,0.744,0,1.115
	c-0.093,0-0.187,0-0.278,0C84.793,26.709,84.793,26.337,84.793,25.965z"/>
<path fill-rule="evenodd" clip-rule="evenodd" fill="#A3A3A3" d="M82.285,26.801c0.092,0,0.187,0,0.278,0c0,1.952,0,3.902,0,5.853
	c-0.092,0-0.187,0-0.278,0c0-0.929,0-1.858,0-2.787c0-0.464,0-0.929,0-1.394C82.285,27.917,82.285,27.359,82.285,26.801z"/>
<path fill-rule="evenodd" clip-rule="evenodd" fill="#D6D6D6" d="M84.793,27.081c0.092,0,0.186,0,0.278,0c0,0.464,0,0.929,0,1.393
	s0,0.93,0,1.394c0,2.323,0,4.646,0,6.968C84.422,34.139,84.977,30.24,84.793,27.081z"/>
<path fill-rule="evenodd" clip-rule="evenodd" fill="#323232" d="M79.777,28.474c0,0.464,0,0.93,0,1.394
	C79.32,29.993,79.32,28.348,79.777,28.474z"/>
<path fill-rule="evenodd" clip-rule="evenodd" fill="#717171" d="M79.777,28.474c0.835,0,1.671,0,2.508,0c0,0.464,0,0.93,0,1.394
	c-0.837,0-1.673,0-2.508,0C79.777,29.403,79.777,28.938,79.777,28.474z"/>
<path fill-rule="evenodd" clip-rule="evenodd" fill="#717171" d="M85.072,28.474c0.928,0,1.856,0,2.786,0c0,0.464,0,0.93,0,1.394
	c-0.93,0-1.858,0-2.786,0C85.072,29.403,85.072,28.938,85.072,28.474z"/>
<path fill-rule="evenodd" clip-rule="evenodd" fill="#D6D6D6" d="M71.971,34.327c0.453-0.199,0.453,1.314,0,1.115
	C71.971,35.07,71.971,34.698,71.971,34.327z"/>
<path fill-rule="evenodd" clip-rule="evenodd" fill="#323232" d="M71.971,36.835c0,0.465,0,0.93,0,1.394c-0.092,0-0.185,0-0.278,0
	C71.845,37.824,71.369,36.788,71.971,36.835z"/>
<path fill-rule="evenodd" clip-rule="evenodd" fill="#323232" d="M74.479,37.114c0.095,0,0.187,0,0.281,0
	c-0.154,0.405,0.324,1.44-0.281,1.394C74.479,38.043,74.479,37.578,74.479,37.114z"/>
<path fill-rule="evenodd" clip-rule="evenodd" fill="#717171" d="M71.693,38.229c0.094,0,0.187,0,0.278,0c0,0.65,0,1.3,0,1.951
	c-0.092,0-0.185,0-0.278,0C71.693,39.529,71.693,38.879,71.693,38.229z"/>
<path fill-rule="evenodd" clip-rule="evenodd" fill="#D6D6D6" d="M74.479,39.622c0,1.022,0,2.044,0,3.066
	C74.019,42.298,74.019,40.012,74.479,39.622z"/>
<path fill-rule="evenodd" clip-rule="evenodd" fill="#A3A3A3" d="M71.693,40.18c0.094,0,0.187,0,0.278,0c0,0.743,0,1.486,0,2.23
	c-0.092,0-0.185,0-0.278,0C71.693,41.666,71.693,40.923,71.693,40.18z"/>
<path fill-rule="evenodd" clip-rule="evenodd" fill="#323232" d="M0.343,49.934c0,0.558,0,1.116,0,1.673
	C-0.114,51.653-0.114,49.889,0.343,49.934z"/>
<path fill-rule="evenodd" clip-rule="evenodd" fill="#323232" d="M2.851,49.934c0.093,0,0.186,0,0.279,0c0,0.465,0,0.93,0,1.394
	c-0.093,0-0.186,0-0.279,0C2.851,50.864,2.851,50.399,2.851,49.934z"/>
<path fill-rule="evenodd" clip-rule="evenodd" fill="#717171" d="M10.376,63.871c0.464,0,0.929,0,1.394,0
	C11.896,64.325,10.251,64.325,10.376,63.871z"/>
<path fill-rule="evenodd" clip-rule="evenodd" fill="#323232" d="M8.426,30.146c0.813-1.046,1.741-1.975,2.787-2.787
	C10.4,28.405,9.472,29.333,8.426,30.146z"/>
<path fill-rule="evenodd" clip-rule="evenodd" fill="#323232" d="M3.688,60.526c0.492,0.251,0.863,0.624,1.115,1.115
	C4.311,61.389,3.939,61.017,3.688,60.526z"/>
<path fill-rule="evenodd" clip-rule="evenodd" fill="#D6D6D6" d="M4.802,61.641c-0.251-0.491-0.623-0.863-1.115-1.115
	c0-0.093,0-0.186,0-0.279c0.675,0.44,1.233,0.998,1.672,1.672C5.134,61.866,5.082,61.64,4.802,61.641z"/>
<path fill-rule="evenodd" clip-rule="evenodd" fill="#323232" d="M25.148,35.163c0.252-0.491,0.624-0.862,1.115-1.114
	C26.012,34.54,25.64,34.911,25.148,35.163z"/>
<path fill-rule="evenodd" clip-rule="evenodd" fill="#323232" d="M16.508,61.919c0.533-0.768,1.183-1.418,1.951-1.951
	C17.926,60.736,17.276,61.386,16.508,61.919z"/>
<path fill-rule="evenodd" clip-rule="evenodd" fill="#323232" d="M11.213,31.261c0.346-0.583,0.811-1.047,1.394-1.394
	C12.26,30.451,11.796,30.915,11.213,31.261z"/>
<path fill-rule="evenodd" clip-rule="evenodd" fill="#717171" d="M5.639,58.575c0.583,0.346,1.047,0.811,1.393,1.394
	C6.449,59.622,5.984,59.157,5.639,58.575z"/>
<path fill-rule="evenodd" clip-rule="evenodd" fill="#323232" d="M14.557,59.968c0.44-0.675,0.997-1.232,1.672-1.672
	C15.79,58.971,15.232,59.528,14.557,59.968z"/>
<path fill-rule="evenodd" clip-rule="evenodd" fill="#323232" d="M22.64,33.769c0.534-0.768,1.184-1.417,1.952-1.951
	C24.058,32.586,23.407,33.236,22.64,33.769z"/>
<path fill-rule="evenodd" clip-rule="evenodd" fill="#323232" d="M70.02,17.047c-0.491-0.252-0.861-0.624-1.114-1.115
	C69.397,16.184,69.769,16.556,70.02,17.047z"/>
<path fill-rule="evenodd" clip-rule="evenodd" fill="#323232" d="M50.79,15.375c0.113-0.694,1.081-0.017,0.836,0.558
	C51.342,15.75,51.337,15.291,50.79,15.375z"/>
<path fill-rule="evenodd" clip-rule="evenodd" fill="#717171" d="M38.805,11.472c-0.231-1.533-0.977-2.553-1.672-3.623
	c0.438-0.677,1.186-1.044,2.23-1.115c0.107,0.688,0.53,1.384,0.836,1.951c0.27,0.499,0.378,1.414,1.115,1.394
	C40.672,10.738,39.604,10.971,38.805,11.472z"/>
<path fill-rule="evenodd" clip-rule="evenodd" fill="#323232" d="M23.197,47.426c0.122-0.958-0.11-1.562-0.278-2.229
	c2.587,3.437,5.528,3.566,10.312,4.459c5.311,0.992,10.78,1.724,16.444,2.787c1.635,0.307,2.969,0.717,4.459,1.115
	c2.415,0.645,4.888,1.504,7.247,2.508c0.403,0.172,0.709,0.672,1.115,0.836c0.431,0.175,0.968,0.09,1.394,0.279
	c1.684,0.747,3.326,1.766,5.017,2.508c0.934,0.41,1.907,0.727,2.787,1.115c7.461,3.292,16.007,7.059,23.69,10.313
	c1.378,0.583,2.692,1.056,4.181,1.671c0.141,0.058,0.455,0.526,0.557,0.558c0.247,0.075,0.602-0.099,0.838,0
	c0.892,0.372,1.581,1.002,2.508,1.394c0.824,0.35,1.941,0.483,2.787,0.836c1.11,0.463,2.109,1.103,3.344,1.673
	c1.174,0.54,2.963,1.228,4.46,1.95c0.849,0.411,1.791,0.679,2.508,1.115c0.112,0.068,0.185,0.515,0.28,0.558
	c1.489,0.671,3.883,2.516,5.017,3.901c0.187,0.229,0.106,0.613,0.278,0.837c0.373,0.489,1.286,1.41,1.671,2.229
	c1.074,2.284,1.755,6.41,1.395,9.756c-0.354,3.291-1.925,6.176-2.787,8.919c-0.248,0.786-0.32,1.718-0.557,2.509
	c-0.564,1.877-1.437,4.043-2.229,6.409c-1.156,3.439-2.334,7.463-3.624,11.149c-0.457,1.308-1.12,2.627-1.951,3.901
	c-2.063,3.169-5.031,3.366-10.312,4.738c-3.462,0.899-5.929,1.938-8.641,1.951c-1.914,0.009-3.654-0.548-5.574-1.115
	c-4.119-1.216-8.394-2.387-12.541-3.902c-1.354-0.494-2.233-0.974-3.346-1.672c-0.196-0.123-0.619-0.116-0.835-0.278
	c-0.129-0.096-0.159-0.479-0.279-0.558c-0.437-0.279-1.005-0.303-1.394-0.558c-0.337-0.221-0.521-0.598-0.836-0.836
	c-1.387-1.043-2.504-2.148-3.902-3.623c-1.026-1.081-2.343-2.622-3.624-3.902c-1.397-1.397-2.89-2.501-3.344-3.902
	c-0.868-2.676-0.067-6.129,0.279-8.918c0.926-7.473,2.693-13.005,4.18-20.347c0.288-1.422,0.805-2.837,0.558-4.18
	c-0.754-4.095-8.092-4.82-12.542-6.132c-10.813-3.187-21.228-6.697-32.052-10.034c-1.769-0.545-3.321-1.083-5.295-1.671
	c-0.576-0.172-1.09-0.382-1.672-0.558c-1.095-0.331-2.854-0.402-3.624-1.114c0.372,0,0.743,0,1.115,0
	c-0.125,0.455,1.519,0.455,1.394,0c1.442,0.048,2.216-0.572,3.344-0.836c5.194,1.355,11.18,3.431,16.444,5.017
	c1.115,0.336,2.208,0.492,3.345,0.836c2.014,0.61,4.056,1.591,6.131,2.231c0.538,0.164,1.416,0.111,1.951,0.278
	c1.302,0.402,2.796,1.177,4.459,1.672c1.538,0.457,3.344,0.946,5.017,1.393c4.057,1.084,10.704,2.311,13.1,5.297
	c2.543,3.169,1.446,6.815,0.278,11.705c-0.596,2.494-1.177,5.199-1.673,7.525c-0.51,2.397-1.268,5.088-1.672,7.804
	c-0.205,1.379-0.166,2.927-0.278,4.46c-0.114,1.542-0.574,2.958-0.279,4.18c0.467,1.937,4.814,5.565,6.411,7.247
	c1.835,1.934,3.239,3.197,5.573,4.737c3.862,2.551,10.239,4.227,15.608,5.854c1.722,0.521,3.338,1.04,4.738,1.113
	c3.018,0.162,5.786-0.859,8.919-1.672c2.267-0.587,5.059-1.099,6.968-2.229c1.272-0.754,1.922-1.764,2.787-3.901
	c2.586-6.401,4.784-14.398,6.968-20.903c1.134-3.38,2.809-6.629,2.787-10.591c-0.026-4.48-2.28-8.498-5.017-10.313
	c-0.85-0.563-1.855-1.516-3.065-2.229c-4.115-2.424-10.007-4.428-14.773-6.41c-7.713-3.209-14.687-6.521-22.574-9.755
	c-0.14-0.057-0.457-0.526-0.559-0.557c-0.8-0.242-1.437-0.465-2.23-0.836c-2.331-1.091-4.978-2.203-7.524-3.344
	c-1.494-0.67-2.701-1.244-4.459-1.951c-1.42-0.571-2.936-1.32-4.459-1.951C52.094,55.279,44.441,54.345,37.133,53
	c-4.636-0.853-9.524-1.117-13.657-3.345c0.046,0.324-0.061,0.496-0.278,0.558c0-0.186,0-0.372,0-0.558
	C23.657,49.532,23.657,47.55,23.197,47.426z"/>
<path fill-rule="evenodd" clip-rule="evenodd" fill="#A3A3A3" d="M68.071,0.045c1.214,0.18,3.149-0.364,3.9,0.278
	c-1.3,0-2.601,0-3.9,0C68.071,0.231,68.071,0.138,68.071,0.045z"/>
<path fill-rule="evenodd" clip-rule="evenodd" fill="#717171" d="M65.282,3.111c0.12-0.623,1.374-0.113,1.951-0.279
	C67.113,3.456,65.861,2.945,65.282,3.111z"/>
<path fill-rule="evenodd" clip-rule="evenodd" fill="#717171" d="M83.956,14.538c0.617,0.035,0.12,1.183,0.28,1.672
	C83.619,16.176,84.116,15.028,83.956,14.538z"/>
<path fill-rule="evenodd" clip-rule="evenodd" fill="#717171" d="M81.448,16.21c0.623,0.12,0.113,1.374,0.28,1.951
	C81.103,18.042,81.614,16.788,81.448,16.21z"/>
<path fill-rule="evenodd" clip-rule="evenodd" fill="#717171" d="M52.462,17.604c-0.405,0.431-1.087,0.585-1.951,0.557
	c0.432-1.149-1.421-2.444,0-2.787c0.093,0,0.186,0,0.278,0c0.548-0.083,0.553,0.376,0.836,0.558
	C51.998,16.396,51.524,17.706,52.462,17.604z"/>
<path fill-rule="evenodd" clip-rule="evenodd" fill="#717171" d="M84.236,17.047c0.627,0.208,0.108,1.563,0.278,2.229
	C83.885,19.069,84.405,17.713,84.236,17.047z"/>
<path fill-rule="evenodd" clip-rule="evenodd" fill="#717171" d="M81.728,18.998c0.631,0.296,0.105,1.752,0.278,2.508
	C81.374,21.209,81.9,19.754,81.728,18.998z"/>
<path fill-rule="evenodd" clip-rule="evenodd" fill="#717171" d="M84.514,20.391c0.632,0.297,0.106,1.752,0.279,2.509
	C84.16,22.603,84.687,21.148,84.514,20.391z"/>
<path fill-rule="evenodd" clip-rule="evenodd" fill="#717171" d="M82.006,22.621c0.631,0.297,0.106,1.752,0.278,2.509
	C81.652,24.833,82.178,23.377,82.006,22.621z"/>
<path fill-rule="evenodd" clip-rule="evenodd" fill="#717171" d="M74.201,28.753c0.623,0.12,0.114,1.373,0.278,1.951
	C73.856,30.583,74.368,29.33,74.201,28.753z"/>
<path fill-rule="evenodd" clip-rule="evenodd" fill="#717171" d="M22.361,40.458c0,0.836,0,1.672,0,2.508
	C21.9,42.755,21.9,40.67,22.361,40.458z"/>
<path fill-rule="evenodd" clip-rule="evenodd" fill="#717171" d="M71.971,42.41c0,0.557,0,1.115,0,1.672
	c-0.615-0.034-0.118-1.182-0.278-1.672C71.787,42.41,71.879,42.41,71.971,42.41z"/>
<path fill-rule="evenodd" clip-rule="evenodd" fill="#717171" d="M82.563,32.654c-0.187,3.717,0.371,8.175-0.278,11.427
	c0-3.809,0-7.618,0-11.427C82.376,32.654,82.471,32.654,82.563,32.654z"/>
<path fill-rule="evenodd" clip-rule="evenodd" fill="#717171" d="M0.622,46.869c-0.16,0.49,0.336,1.638-0.279,1.673
	C0.503,48.051,0.006,46.904,0.622,46.869z"/>
<path fill-rule="evenodd" clip-rule="evenodd" fill="#717171" d="M23.197,47.426c0.46,0.124,0.46,2.106,0,2.23
	C23.197,48.913,23.197,48.169,23.197,47.426z"/>
<path fill-rule="evenodd" clip-rule="evenodd" fill="#717171" d="M3.13,48.542c0,0.464,0,0.929,0,1.393c-0.093,0-0.186,0-0.279,0
	C3.004,49.529,2.526,48.494,3.13,48.542z"/>
<path fill-rule="evenodd" clip-rule="evenodd" fill="#717171" d="M3.13,52.443c-0.379-0.086-0.231-0.698-0.279-1.115
	c0.093,0,0.186,0,0.279,0C3.13,51.7,3.13,52.071,3.13,52.443z"/>
<path fill-rule="evenodd" clip-rule="evenodd" fill="#717171" d="M9.262,61.083c-0.816,0.073-0.856-0.63-1.672-0.557
	c0-0.093,0-0.186,0-0.279c0.093,0,0.185,0,0.278,0c0.808-0.493,0.231-2.371,1.672-2.229C11.011,58.544,9.591,59.99,9.262,61.083z"/>
<path fill-rule="evenodd" clip-rule="evenodd" fill="#FFFFFF" d="M41.313,10.079c8.119-3.401,14.158-8.882,24.806-9.755
	c0.648,0,1.3,0,1.951,0c1.3,0,2.601,0,3.9,0c3.824,0.144,6.747,2.407,8.641,5.017c1.848,2.544,2.899,5.467,3.344,9.197
	c0.16,0.49-0.337,1.638,0.28,1.672c0,0.279,0,0.558,0,0.836c0.169,0.666-0.351,2.022,0.278,2.229c0,0.372,0,0.744,0,1.115
	c0.173,0.757-0.354,2.212,0.279,2.509c0,0.372,0,0.743,0,1.115c0,0.65,0,1.3,0,1.951c0,0.372,0,0.744,0,1.115
	c0.184,3.159-0.371,7.059,0.278,9.754c-0.307,3.74,0.633,7.459-0.558,10.034c-0.781,1.689-2.372,2.267-3.624,3.345
	c-0.37,0-0.743,0-1.113,0c-0.838,0-1.673,0-2.509,0c-3.075-0.735-5.03-2.588-5.297-6.132c0-0.557,0-1.115,0-1.672
	c0-0.744,0-1.487,0-2.23c0-0.65,0-1.301,0-1.951c0-0.464,0-0.929,0-1.394c0-0.464,0-0.929,0-1.394c0.453,0.2,0.453-1.314,0-1.115
	c0-0.372,0-0.743,0-1.114c-0.172-0.757,0.354-2.212-0.278-2.509c-0.631-4.078-1.32-8.374-3.344-11.148
	c-0.633-0.868-1.482-1.999-2.787-1.951c0.198-0.453-1.315-0.453-1.115,0c-4.163,0.668-7.419,2.243-11.706,2.787
	c-0.489,0.255-1.391,0.096-1.672,0.557c-4.84,1.364-9.103,3.559-13.1,5.853c-4.013,2.304-7.916,4.662-11.706,7.247
	c-0.492,0.252-0.863,0.623-1.115,1.114c-1.122,1.572-2.195,3.192-2.787,5.296c-0.461,0.211-0.461,2.296,0,2.508
	c0.148,0.78,0.409,1.449,0.558,2.229c0.168,0.668,0.4,1.271,0.278,2.229c0,0.744,0,1.487,0,2.23c0,0.186,0,0.372,0,0.558
	c-0.458,4.373-2.813,6.849-4.738,9.755c-0.768,0.533-1.418,1.183-1.951,1.951c-0.511,0.325-0.944,0.729-1.394,1.115
	c-1.128,0.265-1.902,0.885-3.344,0.836c-0.465,0-0.93,0-1.394,0c-0.372,0-0.743,0-1.115,0c-0.583,0.118-0.738-0.191-1.115-0.279
	c-0.372-0.464-1.239-0.433-1.672-0.836c-0.371-0.28-1.038-0.263-1.115-0.836c-0.439-0.675-0.997-1.232-1.672-1.672
	c-2.013-1.982-3.162-4.828-3.345-8.64c0-0.557,0-1.115,0-1.673c0-0.464,0-0.929,0-1.393c0.616-0.035,0.119-1.183,0.279-1.673
	c0.9-7.275,4.054-12.296,7.804-16.723c1.046-0.813,1.975-1.741,2.787-2.787c8.002-6.49,17.752-11.234,27.592-15.887
	C39.604,10.971,40.672,10.738,41.313,10.079z M67.792,2.832c-0.187,0-0.373,0-0.56,0c-0.577,0.166-1.831-0.344-1.951,0.279
	c-9.276,1.5-15.161,6.392-22.853,9.476c-0.799,0.501-1.867,0.734-2.508,1.394c-9.582,4.818-19.41,9.391-27.314,15.886
	c-0.583,0.347-1.047,0.811-1.394,1.394C7.21,35.712,4.089,41.045,3.13,48.542c-0.604-0.047-0.126,0.988-0.279,1.393
	c0,0.465,0,0.93,0,1.394c0.048,0.417-0.1,1.028,0.279,1.115c0.461,2.418,1.379,4.381,2.508,6.132
	c0.346,0.583,0.81,1.047,1.393,1.394c0.28-0.001,0.332,0.226,0.558,0.278c0,0.093,0,0.186,0,0.279
	c0.816-0.073,0.856,0.63,1.672,0.557c2.057,0.345,4.017,0.017,5.295-1.115c0.675-0.44,1.232-0.997,1.672-1.672
	c1.844-3.073,4.483-5.394,4.459-9.754c-0.014-2.365-1.431-4.663-1.394-6.968c0.056-3.405,1.686-5.141,3.344-7.805
	c0.768-0.533,1.418-1.183,1.952-1.951c3.766-2.965,8.091-5.12,12.263-7.525c4.177-2.407,8.461-4.944,13.657-6.131
	c0.864,0.028,1.545-0.126,1.951-0.557c4.204-0.627,7.347-2.315,11.706-2.788c0.465,0,0.93,0,1.395,0
	c1.589-0.104,2.467,0.507,3.344,1.115c0.253,0.491,0.623,0.863,1.114,1.115c2.241,3.055,3.656,6.935,4.181,11.706
	c0.167,0.577-0.345,1.831,0.278,1.951c0,0.464,0,0.929,0,1.393c0,1.672,0,3.345,0,5.017c0,0.464,0,0.929,0,1.394
	c0,0.372,0,0.743,0,1.115c-0.46,0.39-0.46,2.676,0,3.066c0.141,2.707,1.621,5.092,4.182,5.017c1.896-0.056,3.222-1.505,3.624-3.624
	c0.649-3.252,0.092-7.71,0.278-11.427c0-1.951,0-3.901,0-5.853c-0.048-0.417,0.101-1.028-0.278-1.115c0-0.186,0-0.372,0-0.557
	c-0.172-0.757,0.353-2.212-0.278-2.509c0-0.372,0-0.743,0-1.115c-0.173-0.756,0.353-2.212-0.278-2.508c0-0.278,0-0.557,0-0.836
	c-0.167-0.577,0.343-1.831-0.28-1.951C80.396,9.273,78.011,3.667,70.857,2.832C70.466,2.371,68.181,2.371,67.792,2.832z"/>
<path fill-rule="evenodd" clip-rule="evenodd" fill="#717171" d="M39.92,13.981c0.641-0.659,1.709-0.893,2.508-1.394
	c-0.016,1.753,1.861,2.88,1.393,4.181c-0.816-0.073-0.856,0.63-1.672,0.557C41.129,16.485,41.195,14.409,39.92,13.981z"/>
<path fill-rule="evenodd" clip-rule="evenodd" fill="#717171" d="M51.068,20.948c0.282-0.461,1.184-0.302,1.672-0.557
	c0.478,0.637,0.265,1.965,0.836,2.509c-0.257,0.487-0.872,0.615-1.672,0.557C51.728,22.519,51.707,21.425,51.068,20.948z"/>
<path fill-rule="evenodd" clip-rule="evenodd" fill="#717171" d="M71.693,30.704c0.633,0.296,0.106,1.752,0.278,2.509
	C71.34,32.916,71.865,31.46,71.693,30.704z"/>
<path fill-rule="evenodd" clip-rule="evenodd" fill="#717171" d="M8.147,63.591c-0.091,1.024-0.688,1.542-0.836,2.508
	c-0.788,0.23-0.723-0.393-1.394-0.278c-0.118-1.27,1.28-2.071,0.558-3.066C6.908,63.159,7.775,63.127,8.147,63.591z"/>
<path fill-rule="evenodd" clip-rule="evenodd" fill="#717171" d="M66.12,0.324c0.12-0.623,1.374-0.112,1.951-0.278
	c0,0.093,0,0.186,0,0.278C67.419,0.324,66.768,0.324,66.12,0.324z"/>
<path fill-rule="evenodd" clip-rule="evenodd" fill="#717171" d="M84.793,24.015c0.623,0.12,0.111,1.374,0.278,1.951
	c-0.093,0-0.187,0-0.278,0C84.793,25.315,84.793,24.665,84.793,24.015z"/>
<path fill-rule="evenodd" clip-rule="evenodd" fill="#717171" d="M74.479,32.097c0.647,1.12,0.099,3.434,0.281,5.017
	c-0.095,0-0.187,0-0.281,0C74.479,35.441,74.479,33.769,74.479,32.097z"/>
<path fill-rule="evenodd" clip-rule="evenodd" fill="#717171" d="M77.268,50.213c0.836,0,1.671,0,2.509,0
	C79.564,50.674,77.479,50.674,77.268,50.213z"/>
</svg>
