<?xml version="1.0" encoding="utf-8"?>
<!-- Generator: Adobe Illustrator 15.0.0, SVG Export Plug-In  -->
<!DOCTYPE svg PUBLIC "-//W3C//DTD SVG 1.1//EN" "http://www.w3.org/Graphics/SVG/1.1/DTD/svg11.dtd" [
	<!ENTITY ns_flows "http://ns.adobe.com/Flows/1.0/">
]>
<svg version="1.1"
	 xmlns="http://www.w3.org/2000/svg" xmlns:xlink="http://www.w3.org/1999/xlink" xmlns:a="http://ns.adobe.com/AdobeSVGViewerExtensions/3.0/"
	 x="0px" y="0px" width="142px" height="142px" viewBox="-8.573 -2.31 142 142" enable-background="new -8.573 -2.31 142 142"
	 xml:space="preserve">
<defs>
</defs>
<path fill-rule="evenodd" clip-rule="evenodd" fill="#C2C2C2" d="M68.63,0.321c0-0.092,0-0.186,0-0.278c0.557,0,1.114,0,1.673,0
	c0,0.093,0,0.186,0,0.278C69.744,0.321,69.187,0.321,68.63,0.321z"/>
<path fill-rule="evenodd" clip-rule="evenodd" fill="#C2C2C2" d="M68.073,2.83c0.21-0.46,2.296-0.46,2.508,0
	C69.744,2.83,68.908,2.83,68.073,2.83z"/>
<path fill-rule="evenodd" clip-rule="evenodd" fill="#787878" d="M84.517,21.225c0.093,0,0.187,0,0.279,0c0,0.372,0,0.743,0,1.114
	c-0.093,0-0.187,0-0.279,0C84.517,21.968,84.517,21.597,84.517,21.225z"/>
<path fill-rule="evenodd" clip-rule="evenodd" fill="#C2C2C2" d="M84.517,22.339c0.093,0,0.187,0,0.279,0c0,0.372,0,0.743,0,1.115
	C84.383,23.403,84.539,22.781,84.517,22.339z"/>
<path fill-rule="evenodd" clip-rule="evenodd" fill="#787878" d="M84.796,24.848c0.092,0,0.186,0,0.278,0c0,0.464,0,0.929,0,1.394
	c-0.093,0-0.187,0-0.278,0C84.796,25.777,84.796,25.313,84.796,24.848z"/>
<path fill-rule="evenodd" clip-rule="evenodd" fill="#C2C2C2" d="M82.287,25.684c0.623,0.12,0.112,1.374,0.278,1.951
	c-0.092,0-0.187,0-0.278,0C82.287,26.985,82.287,26.334,82.287,25.684z"/>
<path fill-rule="evenodd" clip-rule="evenodd" fill="#C2C2C2" d="M84.796,26.242c0.092,0,0.186,0,0.278,0c0,2.601,0,5.202,0,7.804
	C84.425,32,84.979,28.752,84.796,26.242z"/>
<path fill-rule="evenodd" clip-rule="evenodd" fill="#787878" d="M82.287,27.635c0.092,0,0.187,0,0.278,0
	c-0.187,5.295,0.371,11.333-0.278,16.165C82.287,38.412,82.287,33.023,82.287,27.635z"/>
<path fill-rule="evenodd" clip-rule="evenodd" fill="#787878" d="M71.695,30.98c0.412,0.052,0.256,0.673,0.278,1.114
	c-0.092,0-0.185,0-0.278,0C71.695,31.723,71.695,31.351,71.695,30.98z"/>
<path fill-rule="evenodd" clip-rule="evenodd" fill="#787878" d="M74.481,32.93c0.095,0,0.187,0,0.281,0c0,1.394,0,2.788,0,4.181
	c-0.095,0-0.187,0-0.281,0C74.481,35.718,74.481,34.324,74.481,32.93z"/>
<path fill-rule="evenodd" clip-rule="evenodd" fill="#191919" d="M71.974,35.997c0,0.372,0,0.743,0,1.115c-0.092,0-0.185,0-0.278,0
	C71.719,36.67,71.561,36.049,71.974,35.997z"/>
<path fill-rule="evenodd" clip-rule="evenodd" fill="#323232" d="M71.695,37.111c0.094,0,0.187,0,0.278,0c0,0.464,0,0.929,0,1.394
	c-0.092,0-0.185,0-0.278,0C71.695,38.041,71.695,37.576,71.695,37.111z"/>
<path fill-rule="evenodd" clip-rule="evenodd" fill="#787878" d="M71.695,38.505c0.094,0,0.187,0,0.278,0
	c-0.174,0.848,0.356,2.4-0.278,2.787C71.695,40.363,71.695,39.435,71.695,38.505z"/>
<path fill-rule="evenodd" clip-rule="evenodd" fill="#C2C2C2" d="M74.481,39.898c0,0.836,0,1.673,0,2.509
	C74.021,42.196,74.021,40.11,74.481,39.898z"/>
<path fill-rule="evenodd" clip-rule="evenodd" fill="#191919" d="M19.577,41.014c0,0.464,0,0.929,0,1.394
	C19.121,42.532,19.121,40.888,19.577,41.014z"/>
<path fill-rule="evenodd" clip-rule="evenodd" fill="#787878" d="M23.2,47.423c0.46,0.124,0.46,2.106,0,2.23
	C23.2,48.91,23.2,48.167,23.2,47.423z"/>
<path fill-rule="evenodd" clip-rule="evenodd" fill="#787878" d="M2.854,49.932c0.023-0.441-0.134-1.063,0.279-1.114
	c0,0.372,0,0.743,0,1.114C3.04,49.932,2.947,49.932,2.854,49.932z"/>
<path fill-rule="evenodd" clip-rule="evenodd" fill="#787878" d="M11.773,63.868c0.125,0.455-1.52,0.455-1.394,0
	C10.843,63.868,11.308,63.868,11.773,63.868z"/>
<path fill-rule="evenodd" clip-rule="evenodd" fill="#191919" d="M67.235,85.05c-0.046,0.417,0.101,1.028-0.278,1.114
	C67.005,85.748,66.859,85.136,67.235,85.05z"/>
<path fill-rule="evenodd" clip-rule="evenodd" fill="#191919" d="M122.421,93.69c0.461,0.39,0.461,2.675,0,3.064
	C122.421,95.733,122.421,94.712,122.421,93.69z"/>
<path fill-rule="evenodd" clip-rule="evenodd" fill="#191919" d="M125.208,93.969c0.461,0.124,0.461,2.105,0,2.229
	C125.208,95.455,125.208,94.712,125.208,93.969z"/>
<path fill-rule="evenodd" clip-rule="evenodd" fill="#191919" d="M62.498,107.625c-0.047,0.418,0.1,1.028-0.278,1.116
	C62.267,108.323,62.12,107.711,62.498,107.625z"/>
<path fill-rule="evenodd" clip-rule="evenodd" fill="#191919" d="M59.711,107.904c-0.048,0.417,0.099,1.028-0.279,1.115
	C59.456,108.577,59.298,107.955,59.711,107.904z"/>
<path fill-rule="evenodd" clip-rule="evenodd" fill="#191919" d="M62.22,110.133c-0.173,0.758,0.354,2.213-0.279,2.51
	C62.113,111.886,61.586,110.431,62.22,110.133z"/>
<path fill-rule="evenodd" clip-rule="evenodd" fill="#191919" d="M59.432,110.691c0,1.857,0,3.716,0,5.574
	C58.969,115.051,58.969,111.906,59.432,110.691z"/>
<path fill-rule="evenodd" clip-rule="evenodd" fill="#191919" d="M96.223,134.381c0.05-0.411,0.674-0.255,1.114-0.278
	C97.284,134.516,96.664,134.358,96.223,134.381z"/>
<path fill-rule="evenodd" clip-rule="evenodd" fill="#191919" d="M92.877,136.89c0.405,0.153,1.44-0.325,1.395,0.279
	C93.867,137.017,92.831,137.494,92.877,136.89z"/>
<path fill-rule="evenodd" clip-rule="evenodd" fill="#191919" d="M95.664,137.169c-0.046-0.604,0.989-0.126,1.395-0.279
	C97.106,137.494,96.07,137.017,95.664,137.169z"/>
<path fill-rule="evenodd" clip-rule="evenodd" fill="#323232" d="M8.986,29.586c0.533-0.768,1.183-1.418,1.951-1.951
	c-0.385,0.823-1.287,1.128-1.672,1.951C9.171,29.586,9.079,29.586,8.986,29.586z"/>
<path fill-rule="evenodd" clip-rule="evenodd" fill="#191919" d="M59.99,117.938c0.491,0.251,0.863,0.623,1.114,1.113
	C60.613,118.801,60.241,118.429,59.99,117.938z"/>
<path fill-rule="evenodd" clip-rule="evenodd" fill="#191919" d="M63.334,121.561c1.325,1.092,2.531,2.3,3.623,3.623
	C65.633,124.093,64.426,122.885,63.334,121.561z"/>
<path fill-rule="evenodd" clip-rule="evenodd" fill="#191919" d="M68.352,126.578c0.583,0.346,1.048,0.811,1.393,1.394
	C69.161,127.626,68.696,127.161,68.352,126.578z"/>
<path fill-rule="evenodd" clip-rule="evenodd" fill="#191919" d="M112.389,132.431c0.438-0.675,0.995-1.232,1.671-1.673
	C113.62,131.434,113.063,131.991,112.389,132.431z"/>
<path fill-rule="evenodd" clip-rule="evenodd" fill="#191919" d="M121.027,84.214c0.49,0.252,0.863,0.623,1.115,1.114
	C121.65,85.076,121.279,84.705,121.027,84.214z"/>
<path fill-rule="evenodd" clip-rule="evenodd" fill="#191919" d="M119.076,82.263c0.492,0.251,0.863,0.624,1.115,1.115
	C119.701,83.126,119.328,82.754,119.076,82.263z"/>
<path fill-rule="evenodd" clip-rule="evenodd" fill="#191919" d="M23.2,45.473c0.491,0.251,0.863,0.623,1.115,1.114
	C23.823,46.335,23.452,45.964,23.2,45.473z"/>
<path fill-rule="evenodd" clip-rule="evenodd" fill="#323232" d="M24.872,35.439c0.346-0.583,0.811-1.047,1.394-1.393
	C25.919,34.628,25.455,35.093,24.872,35.439z"/>
<path fill-rule="evenodd" clip-rule="evenodd" fill="#C2C2C2" d="M73.368,47.703c0.49,0.252,0.863,0.624,1.113,1.115
	C73.991,48.565,73.62,48.194,73.368,47.703z"/>
<path fill-rule="evenodd" clip-rule="evenodd" fill="#191919" d="M82.565,49.096c0.253-0.491,0.623-0.863,1.114-1.114
	C83.429,48.473,83.057,48.844,82.565,49.096z"/>
<path fill-rule="evenodd" clip-rule="evenodd" fill="#787878" d="M83.958,13.421c-0.513-0.602-0.301-1.93-0.835-2.508
	c0.618,0.646,1.087-0.095,1.951,0c0.37,0,0.743,0,1.113,0c-0.034,0.5,0.343,0.588,0.278,1.115c-0.745,0.276-1.468,0.575-2.508,0.558
	C83.958,12.864,83.958,13.142,83.958,13.421z"/>
<path fill-rule="evenodd" clip-rule="evenodd" fill="#C2C2C2" d="M78.385,3.109c0.583,0.346,1.048,0.81,1.395,1.393
	C79.196,4.156,78.731,3.692,78.385,3.109z"/>
<path fill-rule="evenodd" clip-rule="evenodd" fill="#C2C2C2" d="M82.287,49.096c0.345-0.583,0.81-1.047,1.393-1.393
	c0,0.093,0,0.186,0,0.279c-0.491,0.251-0.861,0.623-1.114,1.114C82.474,49.096,82.379,49.096,82.287,49.096z"/>
<path fill-rule="evenodd" clip-rule="evenodd" fill="#323232" d="M16.79,61.638c0.346-0.583,0.81-1.047,1.393-1.394
	C17.837,60.827,17.373,61.292,16.79,61.638z"/>
<path fill-rule="evenodd" clip-rule="evenodd" fill="#C2C2C2" d="M8.149,30.701c0.082-0.568,0.754-0.546,0.836-1.115
	c0.093,0,0.186,0,0.278,0C9.013,30.078,8.641,30.449,8.149,30.701z"/>
<path fill-rule="evenodd" clip-rule="evenodd" fill="#787878" d="M20.97,20.667c0.721-1.552-1.505-2.332-1.393-4.181
	c0.711-0.124,1.281-0.391,1.672-0.836c0.935,1.016,1.359,2.543,2.229,3.623C22.739,19.835,21.916,20.313,20.97,20.667z"/>
<path fill-rule="evenodd" clip-rule="evenodd" fill="#323232" d="M11.215,31.258c0.346-0.583,0.811-1.047,1.394-1.394
	C12.263,30.448,11.798,30.913,11.215,31.258z"/>
<path fill-rule="evenodd" clip-rule="evenodd" fill="#787878" d="M10.101,32.374c0.251-0.491,0.623-0.864,1.115-1.115
	C10.963,31.75,10.592,32.122,10.101,32.374z"/>
<path fill-rule="evenodd" clip-rule="evenodd" fill="#787878" d="M5.641,58.572c0.583,0.346,1.047,0.811,1.393,1.394
	C6.451,59.62,5.987,59.155,5.641,58.572z"/>
<path fill-rule="evenodd" clip-rule="evenodd" fill="#323232" d="M14.56,59.966c0.44-0.675,0.997-1.232,1.672-1.672
	C15.792,58.969,15.235,59.526,14.56,59.966z"/>
<path fill-rule="evenodd" clip-rule="evenodd" fill="#787878" d="M19.019,53.834c-0.748-0.367-1.481-0.749-2.229-1.115
	c-0.23-0.788,0.393-0.723,0.278-1.394c1.146,0.063,1.826,0.59,2.509,1.115c0.302-0.069,0.189-0.554,0.558-0.557
	C19.928,52.699,19.46,53.253,19.019,53.834z"/>
<path fill-rule="evenodd" clip-rule="evenodd" fill="#323232" d="M22.921,33.488c0.346-0.583,0.81-1.048,1.393-1.394
	C23.969,32.678,23.504,33.142,22.921,33.488z"/>
<path fill-rule="evenodd" clip-rule="evenodd" fill="#323232" d="M70.022,17.044c-0.491-0.252-0.861-0.624-1.114-1.115
	C69.399,16.182,69.771,16.553,70.022,17.044z"/>
<path fill-rule="evenodd" clip-rule="evenodd" fill="#787878" d="M73.09,23.454c-0.387-0.636-0.569-1.475-0.838-2.229
	c0.985,0.78,1.739-0.532,3.067-0.279c-0.114,0.672,0.509,0.606,0.278,1.394C74.74,22.689,73.484,22.643,73.09,23.454z"/>
<path fill-rule="evenodd" clip-rule="evenodd" fill="#787878" d="M80.336,47.145c0.448-0.386,0.882-0.79,1.395-1.115
	C81.372,46.508,81.153,47.126,80.336,47.145z"/>
<path fill-rule="evenodd" clip-rule="evenodd" fill="#787878" d="M76.712,5.06c0.49,0.252,0.863,0.624,1.115,1.115
	C77.337,5.922,76.964,5.551,76.712,5.06z"/>
<path fill-rule="evenodd" clip-rule="evenodd" fill="#323232" d="M78.106,13.142c0.4,0.063,0.096,0.832,0.557,0.836
	C78.545,14.678,77.867,13.711,78.106,13.142z"/>
<path fill-rule="evenodd" clip-rule="evenodd" fill="#787878" d="M22.642,22.897c0.805-0.497,1.628-0.973,2.508-1.394
	c-0.323,1.071,0.962,2.684,1.673,3.624c-0.283,0.739-1.289,0.755-1.673,1.394C23.836,25.791,23.792,23.792,22.642,22.897z"/>
<path fill-rule="evenodd" clip-rule="evenodd" fill="#323232" d="M23.2,47.423c0.149-1.078-0.497-1.36-0.278-2.508
	c0.271,0.008,0.216,0.341,0.278,0.558c0.252,0.491,0.624,0.862,1.115,1.114c1.711,2.135,5.475,2.126,8.919,2.788
	c2.129,0.409,4.18,1.044,6.132,1.393c4.348,0.778,8.717,1.301,12.821,2.23c3.931,0.89,7.495,2.292,11.148,3.902
	c13.542,5.966,27.662,12.406,41.805,18.395c1.722,0.729,3.482,1.451,5.297,2.229c3.262,1.399,6.026,2.482,8.64,4.738
	c0.252,0.491,0.625,0.863,1.115,1.115c0.4,0.155,0.68,0.435,0.836,0.836c0.252,0.491,0.623,0.862,1.115,1.114
	c1.599,2.303,3.012,4.794,3.065,8.641c0,0.743,0,1.486,0,2.229c0.038,3.528-1.313,6.47-2.508,10.033
	c-2.238,6.663-4.363,13.427-6.689,20.068c-0.613,1.749-1,3.306-1.951,4.458c-0.676,0.44-1.232,0.998-1.671,1.673
	c-1.994,1.564-7.16,2.627-10.871,3.623c-1.652,0.444-2.482,0.793-4.459,0.836c-0.405,0.153-1.44-0.325-1.395,0.279
	c-0.465,0-0.928,0-1.393,0c0.046-0.604-0.989-0.126-1.395-0.279c-3.131-0.34-6.529-1.818-9.754-2.787
	c-4.774-1.435-10.035-3.017-13.379-6.131c-0.345-0.583-0.81-1.048-1.393-1.394c-0.583-0.347-1.048-0.811-1.395-1.395
	c-1.092-1.323-2.298-2.531-3.623-3.623c-0.575-1.004-1.655-1.504-2.23-2.509c-0.251-0.49-0.623-0.862-1.114-1.113
	c-0.16-0.583-0.691-0.797-0.558-1.673c0-1.858,0-3.717,0-5.574c0-0.559,0-1.115,0-1.672c0.378-0.087,0.231-0.698,0.279-1.115
	c0.587-5.215,1.885-10.572,3.065-15.887c0.563-2.536,2.06-6.525,1.394-8.918c-0.924-3.323-5.439-3.97-9.197-5.017
	c-11.696-3.26-23.735-7.342-35.396-10.871c-1.166-0.353-2.272-0.785-3.345-1.115c-2.565-0.787-5.397-1.283-7.246-2.229
	c0.464,0,0.929,0,1.393,0c-0.125,0.455,1.519,0.455,1.394,0c1.616,0.037,2.417-0.742,3.623-1.116
	c1.847,1.103,4.052,1.333,6.131,1.952c0.943,0.28,1.881,0.827,2.787,1.115c2.897,0.919,6.084,1.827,9.197,2.787
	c7.929,2.444,15.901,4.833,24.248,7.247c2.454,0.71,4.875,1.388,6.41,2.509c0.439,0.675,0.998,1.231,1.673,1.672
	c0.93,1.206,1.549,2.725,1.393,5.017c-0.376,0.086-0.23,0.698-0.278,1.114c-1.26,7.38-3.257,14.023-4.459,21.461
	c-0.378,0.086-0.231,0.698-0.278,1.116c0,0.463,0,0.928,0,1.392c-0.633,0.298-0.106,1.753-0.279,2.51
	c-0.449,3.515,1.357,4.773,2.787,6.409c1.092,1.325,2.3,2.533,3.624,3.624c0.625,0.86,1.368,1.604,2.229,2.229
	c0.251,0.492,0.623,0.863,1.114,1.115c1.663,0.952,3.317,2.211,5.297,3.065c3.767,1.628,7.985,2.584,12.263,3.902
	c2.294,0.708,4.371,1.628,6.968,1.393c0.441-0.022,1.062,0.135,1.114-0.278c4.397-1.176,9.02-2.129,13.1-3.623
	c0.583-0.346,1.048-0.811,1.393-1.394c2.244-5.104,3.771-10.511,5.576-15.887c1.789-5.332,3.811-10.719,5.016-16.444
	c0.461-0.39,0.461-2.675,0-3.064c-0.837-7.774-6.703-10.795-13.378-13.657c-11.862-5.087-23.029-9.872-34.84-15.051
	c-3.552-1.558-6.597-2.937-10.312-4.459c-0.14-0.057-0.455-0.526-0.557-0.558c-1.201-0.363-2.421-0.878-3.623-1.394
	c-0.523-0.224-1.168-0.36-1.673-0.557c-0.141-0.056-0.454-0.526-0.557-0.558c-1.991-0.602-4.677-1.405-7.247-1.95
	c-6.429-1.365-14.34-2.399-21.182-3.902c-1.531-0.336-3.354-0.824-4.738-1.394c-0.034-0.015-0.606-0.549-0.557-0.558
	c-0.305,0.056-0.188,0.564-0.558,0.558c0-0.186,0-0.372,0-0.558C23.66,49.53,23.66,47.547,23.2,47.423z"/>
<path fill-rule="evenodd" clip-rule="evenodd" fill="#191919" d="M64.17,78.361c0.676,0.439,1.232,0.996,1.673,1.672
	C65.168,79.593,64.609,79.036,64.17,78.361z"/>
<path fill-rule="evenodd" clip-rule="evenodd" fill="#191919" d="M64.728,119.052c1.324,1.093,2.532,2.301,3.624,3.624
	C67.027,121.585,65.819,120.377,64.728,119.052z"/>
<path fill-rule="evenodd" clip-rule="evenodd" fill="#191919" d="M70.581,124.905c0.491,0.252,0.863,0.624,1.114,1.115
	C71.204,125.769,70.832,125.397,70.581,124.905z"/>
<path fill-rule="evenodd" clip-rule="evenodd" fill="#191919" d="M110.437,130.479c0.345-0.583,0.81-1.048,1.393-1.394
	C111.484,129.669,111.02,130.134,110.437,130.479z"/>
<path fill-rule="evenodd" clip-rule="evenodd" fill="#787878" d="M66.122,0.321c0.296-0.632,1.751-0.106,2.508-0.278
	c0,0.093,0,0.186,0,0.278C67.795,0.321,66.957,0.321,66.122,0.321z"/>
<path fill-rule="evenodd" clip-rule="evenodd" fill="#787878" d="M70.303,0.043c0.577,0.166,1.829-0.345,1.949,0.278
	c-0.649,0-1.3,0-1.949,0C70.303,0.229,70.303,0.136,70.303,0.043z"/>
<path fill-rule="evenodd" clip-rule="evenodd" fill="#191919" d="M66.4,3.109c0.086-0.378,0.697-0.231,1.113-0.279
	C67.428,3.208,66.816,3.061,66.4,3.109z"/>
<path fill-rule="evenodd" clip-rule="evenodd" fill="#323232" d="M85.074,10.913c-0.2-0.452,1.313-0.452,1.113,0
	C85.817,10.913,85.444,10.913,85.074,10.913z"/>
<path fill-rule="evenodd" clip-rule="evenodd" fill="#191919" d="M80.058,13.7c0.086-0.378,0.697-0.231,1.113-0.279
	c0,0.093,0,0.186,0,0.279C80.801,13.7,80.428,13.7,80.058,13.7z"/>
<path fill-rule="evenodd" clip-rule="evenodd" fill="#787878" d="M80.058,13.7c-0.325,0.234-0.747,0.368-1.395,0.279
	c-0.461-0.004-0.156-0.773-0.557-0.836c0.124-1.084,1.582-0.832,2.508-1.115c0.284,0.366,0.272,1.027,0.557,1.394
	C80.755,13.469,80.144,13.321,80.058,13.7z"/>
<path fill-rule="evenodd" clip-rule="evenodd" fill="#191919" d="M84.238,16.766c0.377,0.086,0.23,0.698,0.278,1.115
	c-0.094,0-0.186,0-0.278,0C84.238,17.509,84.238,17.137,84.238,16.766z"/>
<path fill-rule="evenodd" clip-rule="evenodd" fill="#191919" d="M84.517,20.11c0.379,0.086,0.23,0.698,0.279,1.115
	c-0.093,0-0.187,0-0.279,0C84.517,20.854,84.517,20.482,84.517,20.11z"/>
<path fill-rule="evenodd" clip-rule="evenodd" fill="#323232" d="M81.73,20.389c0.603-0.047,0.124,0.989,0.278,1.394
	C81.403,21.83,81.883,20.794,81.73,20.389z"/>
<path fill-rule="evenodd" clip-rule="evenodd" fill="#C2C2C2" d="M82.009,22.061c0.623,0.12,0.112,1.374,0.278,1.951
	c-0.094,0-0.187,0-0.278,0C82.009,23.362,82.009,22.711,82.009,22.061z"/>
<path fill-rule="evenodd" clip-rule="evenodd" fill="#787878" d="M70.581,24.569c-0.983-0.78-1.738,0.532-3.067,0.279
	c0.23-0.788-0.393-0.722-0.278-1.394c0.859-0.35,2.114-0.303,2.509-1.115C70.131,22.977,70.313,23.815,70.581,24.569z"/>
<path fill-rule="evenodd" clip-rule="evenodd" fill="#191919" d="M84.796,23.733c0.378,0.086,0.229,0.698,0.278,1.115
	c-0.093,0-0.187,0-0.278,0C84.796,24.477,84.796,24.105,84.796,23.733z"/>
<path fill-rule="evenodd" clip-rule="evenodd" fill="#323232" d="M82.287,24.012c0,0.464,0,0.929,0,1.394
	c-0.604,0.047-0.126-0.989-0.278-1.394C82.101,24.012,82.193,24.012,82.287,24.012z"/>
<path fill-rule="evenodd" clip-rule="evenodd" fill="#191919" d="M74.481,31.537c0.605-0.047,0.127,0.989,0.281,1.393
	c-0.095,0-0.187,0-0.281,0C74.481,32.467,74.481,32.002,74.481,31.537z"/>
<path fill-rule="evenodd" clip-rule="evenodd" fill="#323232" d="M71.974,32.094c0,0.558,0,1.116,0,1.672
	c-0.615-0.034-0.118-1.182-0.278-1.672C71.789,32.094,71.882,32.094,71.974,32.094z"/>
<path fill-rule="evenodd" clip-rule="evenodd" fill="#323232" d="M74.763,37.111c-0.167,0.578,0.345,1.831-0.281,1.951
	c0-0.651,0-1.3,0-1.951C74.576,37.111,74.668,37.111,74.763,37.111z"/>
<path fill-rule="evenodd" clip-rule="evenodd" fill="#787878" d="M22.364,42.686c-0.459-0.038-0.459-1.914,0-1.951
	C22.364,41.385,22.364,42.035,22.364,42.686z"/>
<path fill-rule="evenodd" clip-rule="evenodd" fill="#191919" d="M74.481,42.964c0.413,0.052,0.257,0.674,0.281,1.115
	C74.384,43.993,74.53,43.381,74.481,42.964z"/>
<path fill-rule="evenodd" clip-rule="evenodd" fill="#787878" d="M71.695,41.571c0.635,0.386,0.104,1.939,0.278,2.787
	C71.339,43.971,71.869,42.418,71.695,41.571z"/>
<path fill-rule="evenodd" clip-rule="evenodd" fill="#787878" d="M77.271,50.211c0.928,0,1.857,0,2.787,0
	C79.757,50.672,77.569,50.672,77.271,50.211z"/>
<path fill-rule="evenodd" clip-rule="evenodd" fill="#323232" d="M3.133,49.932c0,0.743,0,1.487,0,2.23
	c-0.629-0.208-0.109-1.563-0.279-2.23C2.947,49.932,3.04,49.932,3.133,49.932z"/>
<path fill-rule="evenodd" clip-rule="evenodd" fill="#787878" d="M22.364,53.556c0.745,0.92,3.415,0.969,1.951,2.508
	c-0.771,0.662-1.702-0.886-2.787-0.836c0.161-0.582,0.691-0.795,0.558-1.671C22.178,53.556,22.271,53.556,22.364,53.556z"/>
<path fill-rule="evenodd" clip-rule="evenodd" fill="#FFFFFF" d="M23.478,19.273c8.941-4.917,18.38-9.512,28.15-14.214
	c4.697-2.26,8.22-4.47,14.494-4.738c0.835,0,1.673,0,2.508,0c0.557,0,1.114,0,1.673,0c0.649,0,1.3,0,1.949,0
	c2.633,0.341,4.792,1.154,6.133,2.788c0.347,0.583,0.812,1.047,1.395,1.393c1.564,1.686,2.708,3.794,3.344,6.411
	c0.534,0.579,0.322,1.907,0.835,2.508c-0.194,1.402,0.475,1.943,0.28,3.345c0,0.372,0,0.743,0,1.115
	c0.164,0.578-0.345,1.831,0.278,1.951c0,0.093,0,0.186,0,0.279c0,0.372,0,0.744,0,1.115s0,0.743,0,1.114
	c0.022,0.442-0.134,1.064,0.279,1.115c0,0.093,0,0.187,0,0.279c0,0.372,0,0.743,0,1.115c0,0.464,0,0.929,0,1.394
	c0.184,2.51-0.371,5.758,0.278,7.804c-0.371,4.647,1.02,11.053-1.395,13.657c-0.583,0.346-1.048,0.81-1.393,1.393
	c-0.524,0.591-1.274,0.958-2.229,1.115c-0.93,0-1.859,0-2.787,0c-1.302-0.092-2.189-0.598-2.789-1.394
	c-0.25-0.491-0.623-0.863-1.113-1.115c-0.966-0.614-1.174-1.984-1.395-3.345c-0.174-0.847,0.356-2.401-0.278-2.787
	c0-0.094,0-0.187,0-0.279c0.635-0.387,0.104-1.939,0.278-2.787c0-0.464,0-0.929,0-1.394c0-0.372,0-0.743,0-1.115
	c0-0.743,0-1.486,0-2.23c0-0.557,0-1.115,0-1.672c-0.022-0.441,0.134-1.063-0.278-1.114c-0.019-2.489-0.705-4.312-1.114-6.411
	c-0.269-0.754-0.45-1.593-0.837-2.23c-0.828-2.05-1.663-4.096-3.901-4.737c-0.038-0.459-1.913-0.459-1.951,0
	c-3.728,1.076-7.405,1.866-10.87,2.787c-3.512,0.933-6.642,2.072-9.755,3.624c-6.108,3.043-11.668,6.405-17.001,10.034
	c-0.583,0.346-1.047,0.81-1.394,1.393c-1.008,1.593-2.182,3.021-2.508,5.296c-0.459,0.037-0.459,1.913,0,1.951
	c0.185,0.745,0.116,1.741,0.558,2.229c-0.219,1.148,0.428,1.431,0.278,2.508c0,0.744,0,1.487,0,2.23c0,0.186,0,0.372,0,0.558
	c0.098,1.491-0.494,2.292-0.836,3.345c-0.093,0-0.186,0-0.279,0c0.134,0.876-0.397,1.09-0.558,1.671
	c-0.914,1.874-2.091,3.483-3.345,5.017c-0.583,0.347-1.047,0.811-1.393,1.394c-0.648,0.188-0.746,0.926-1.394,1.114
	c-1.206,0.374-2.007,1.152-3.623,1.116c-0.465,0-0.93,0-1.394,0s-0.929,0-1.393,0c-5.234-1.642-7.97-5.781-8.641-11.985
	c0-0.836,0-1.672,0-2.508c0.101-4.172,1.17-7.25,2.508-10.313c0.571-1.305,1.037-2.82,1.672-3.902
	c0.258-0.438,0.795-0.627,1.115-1.114c0.253-0.385,0.287-1.026,0.557-1.394c0.522-0.71,1.312-1.41,1.951-1.951
	c0.491-0.252,0.863-0.624,1.115-1.115c0.385-0.823,1.287-1.128,1.672-1.951c3.076-2.591,6.433-4.901,10.033-6.968
	C21.916,20.313,22.739,19.835,23.478,19.273z M68.073,2.83c-0.187,0-0.373,0-0.56,0C67.098,2.877,66.486,2.73,66.4,3.109
	C62.1,3.129,58.346,4.847,54.973,6.454c-10.37,4.936-19.655,9.89-29.822,15.05c-0.88,0.421-1.704,0.897-2.508,1.394
	c-3.577,2.089-6.907,4.427-10.033,6.967c-0.583,0.347-1.047,0.811-1.394,1.394c-0.492,0.251-0.863,0.624-1.115,1.115
	c-3.323,4.48-6.356,9.251-6.968,16.444c-0.413,0.052-0.256,0.673-0.279,1.114c0.17,0.667-0.35,2.022,0.279,2.23
	c0.346,2.627,1.37,4.576,2.508,6.411c0.346,0.583,0.81,1.047,1.393,1.394c1.053,0.341,1.574,1.213,3.066,1.115
	c0.038,0.459,1.913,0.459,1.951,0c1.22,0.012,1.72-0.695,2.508-1.115c0.675-0.44,1.232-0.997,1.672-1.672
	c1.016-1.399,2.099-2.732,2.787-4.459c0.441-0.582,0.909-1.135,1.115-1.951c0.375-1.514,0.666-2.673,0.557-4.181
	c-0.122-1.705-1.347-3.45-1.115-5.295c0-0.464,0-0.93,0-1.394c0.166-3.458,1.852-5.394,3.345-7.525
	c0.583-0.347,1.047-0.811,1.393-1.394c5.459-4.044,11.467-7.398,17.838-10.591c1.63-0.817,3.058-1.619,4.738-2.23
	c1.77-0.644,3.606-1.166,5.574-1.671c3.672-0.945,7.603-1.986,11.706-2.788c0.558,0,1.114,0,1.673,0
	c1.435-0.041,2.236,0.551,3.065,1.115c0.253,0.491,0.623,0.863,1.114,1.115c0.953,1.184,1.705,2.57,2.229,4.181
	c0.269,0.754,0.451,1.593,0.838,2.229c0.471,1.667,0.957,3.315,1.113,5.296c0.173,0.756-0.353,2.211,0.278,2.508
	c0,0.093,0,0.186,0,0.279c0,0.465,0,0.93,0,1.393c0,1.394,0,2.788,0,4.181c0,0.651,0,1.3,0,1.951c0,0.279,0,0.557,0,0.836
	c-0.46,0.211-0.46,2.297,0,2.509c0,0.186,0,0.372,0,0.557c0.049,0.417-0.098,1.029,0.281,1.115c0.128,2.688,3.067,4.482,5.573,3.066
	c0.817-0.019,1.036-0.637,1.395-1.115c0.042-0.887,0.631-1.226,0.557-2.23c0.649-4.832,0.092-10.87,0.278-16.165
	c-0.166-0.577,0.345-1.831-0.278-1.951c0-0.093,0-0.186,0-0.278c0-0.465,0-0.929,0-1.394c-0.166-0.578,0.345-1.831-0.278-1.951
	c0-0.093,0-0.186,0-0.279c-0.154-0.405,0.324-1.44-0.278-1.394c0.112-2.528-0.361-4.471-0.56-6.689c0-0.093,0-0.186,0-0.279
	c-0.284-0.366-0.272-1.027-0.557-1.394c-0.535-2.344-1.813-3.947-2.787-5.853c-0.252-0.491-0.625-0.863-1.115-1.115
	c-1.709-1.077-3.519-2.055-6.131-2.23C70.369,2.37,68.283,2.37,68.073,2.83z"/>
<path fill-rule="evenodd" clip-rule="evenodd" fill="#323232" d="M64.17,14.814c-0.045-0.457,1.718-0.457,1.673,0
	C65.284,14.814,64.728,14.814,64.17,14.814z"/>
<path fill-rule="evenodd" clip-rule="evenodd" fill="#323232" d="M0.345,49.375c0,0.836,0,1.672,0,2.508
	C-0.115,51.672-0.115,49.587,0.345,49.375z"/>
<path fill-rule="evenodd" clip-rule="evenodd" fill="#191919" d="M10.101,61.081c0.65,0,1.301,0,1.951,0
	C12.014,61.54,10.138,61.54,10.101,61.081z"/>
<path fill-rule="evenodd" clip-rule="evenodd" fill="#C2C2C2" d="M84.517,17.88c0,0.65,0,1.301,0,1.951
	c-0.623-0.12-0.114-1.373-0.278-1.951C84.331,17.88,84.423,17.88,84.517,17.88z"/>
<path fill-rule="evenodd" clip-rule="evenodd" fill="#787878" d="M74.203,28.75c0.634,0.296,0.106,1.751,0.278,2.508
	C73.851,30.962,74.376,29.506,74.203,28.75z"/>
<path fill-rule="evenodd" clip-rule="evenodd" fill="#323232" d="M63.892,17.602c0.038-0.459,1.913-0.459,1.951,0
	C65.192,17.602,64.542,17.602,63.892,17.602z"/>
</svg>
