<?xml version="1.0" encoding="utf-8"?>
<!-- Generator: Adobe Illustrator 15.0.0, SVG Export Plug-In  -->
<!DOCTYPE svg PUBLIC "-//W3C//DTD SVG 1.1//EN" "http://www.w3.org/Graphics/SVG/1.1/DTD/svg11.dtd" [
	<!ENTITY ns_flows "http://ns.adobe.com/Flows/1.0/">
]>
<svg version="1.1"
	 xmlns="http://www.w3.org/2000/svg" xmlns:xlink="http://www.w3.org/1999/xlink" xmlns:a="http://ns.adobe.com/AdobeSVGViewerExtensions/3.0/"
	 x="0px" y="0px" width="142px" height="142px" viewBox="-8.574 -2.307 142 142" enable-background="new -8.574 -2.307 142 142"
	 xml:space="preserve">
<defs>
</defs>
<path fill-rule="evenodd" clip-rule="evenodd" fill="#D3D3D3" d="M67.794,2.832c0.389-0.461,2.674-0.461,3.064,0
	C69.837,2.832,68.816,2.832,67.794,2.832z"/>
<path fill-rule="evenodd" clip-rule="evenodd" fill="#303030" d="M64.169,14.817c-0.125-0.455,1.519-0.455,1.395,0
	C65.099,14.817,64.634,14.817,64.169,14.817z"/>
<path fill-rule="evenodd" clip-rule="evenodd" fill="#303030" d="M64.449,17.604c-0.2-0.453,1.313-0.453,1.115,0
	C65.192,17.604,64.821,17.604,64.449,17.604z"/>
<path fill-rule="evenodd" clip-rule="evenodd" fill="#D3D3D3" d="M82.287,25.687c0.379,0.086,0.23,0.698,0.278,1.115
	c-0.092,0-0.187,0-0.278,0C82.287,26.43,82.287,26.058,82.287,25.687z"/>
<path fill-rule="evenodd" clip-rule="evenodd" fill="#A2A2A2" d="M84.795,25.965c0.092,0,0.186,0,0.278,0c0,0.372,0,0.744,0,1.115
	c-0.093,0-0.187,0-0.278,0C84.795,26.709,84.795,26.337,84.795,25.965z"/>
<path fill-rule="evenodd" clip-rule="evenodd" fill="#A2A2A2" d="M82.287,26.801c0.092,0,0.187,0,0.278,0c0,1.952,0,3.902,0,5.853
	c-0.092,0-0.187,0-0.278,0C82.287,30.704,82.287,28.753,82.287,26.801z"/>
<path fill-rule="evenodd" clip-rule="evenodd" fill="#D3D3D3" d="M84.795,27.081c0.092,0,0.186,0,0.278,0c0,3.159,0,6.317,0,9.476
	C84.424,33.954,84.979,30.147,84.795,27.081z"/>
<path fill-rule="evenodd" clip-rule="evenodd" fill="#303030" d="M74.481,31.818c0.605-0.047,0.127,0.989,0.281,1.394
	c-0.095,0-0.187,0-0.281,0C74.481,32.748,74.481,32.283,74.481,31.818z"/>
<path fill-rule="evenodd" clip-rule="evenodd" fill="#6F6F6F" d="M74.481,33.212c0.095,0,0.187,0,0.281,0c0,1.3,0,2.601,0,3.901
	c-0.095,0-0.187,0-0.281,0C74.481,35.813,74.481,34.513,74.481,33.212z"/>
<path fill-rule="evenodd" clip-rule="evenodd" fill="#D3D3D3" d="M71.973,34.048c0.457-0.126,0.457,1.519,0,1.393
	C71.973,34.978,71.973,34.513,71.973,34.048z"/>
<path fill-rule="evenodd" clip-rule="evenodd" fill="#303030" d="M71.973,36.835c0,0.465,0,0.93,0,1.394c-0.092,0-0.185,0-0.278,0
	C71.847,37.824,71.371,36.788,71.973,36.835z"/>
<path fill-rule="evenodd" clip-rule="evenodd" fill="#303030" d="M74.481,37.114c0.095,0,0.187,0,0.281,0
	c-0.162,0.49,0.336,1.637-0.281,1.672C74.481,38.229,74.481,37.671,74.481,37.114z"/>
<path fill-rule="evenodd" clip-rule="evenodd" fill="#6F6F6F" d="M71.695,38.229c0.094,0,0.187,0,0.278,0c0,0.557,0,1.115,0,1.672
	c-0.092,0-0.185,0-0.278,0C71.695,39.344,71.695,38.786,71.695,38.229z"/>
<path fill-rule="evenodd" clip-rule="evenodd" fill="#D3D3D3" d="M74.481,39.622c0,1.022,0,2.044,0,3.066
	C74.021,42.298,74.021,40.012,74.481,39.622z"/>
<path fill-rule="evenodd" clip-rule="evenodd" fill="#A2A2A2" d="M71.695,39.901c0.094,0,0.187,0,0.278,0c0,0.836,0,1.673,0,2.509
	c-0.092,0-0.185,0-0.278,0C71.695,41.574,71.695,40.737,71.695,39.901z"/>
<path fill-rule="evenodd" clip-rule="evenodd" fill="#303030" d="M0.345,49.656c0,0.743,0,1.486,0,2.23
	C-0.115,51.762-0.115,49.779,0.345,49.656z"/>
<path fill-rule="evenodd" clip-rule="evenodd" fill="#303030" d="M2.853,49.934c0.093,0,0.186,0,0.279,0c0,0.465,0,0.93,0,1.394
	c-0.093,0-0.186,0-0.279,0C2.853,50.864,2.853,50.399,2.853,49.934z"/>
<path fill-rule="evenodd" clip-rule="evenodd" fill="#D3D3D3" d="M64.449,83.659c0.457-0.045,0.457,1.718,0,1.672
	C64.449,84.773,64.449,84.216,64.449,83.659z"/>
<path fill-rule="evenodd" clip-rule="evenodd" fill="#303030" d="M125.208,93.971c0.461,0.124,0.461,2.105,0,2.229
	C125.208,95.458,125.208,94.714,125.208,93.971z"/>
<path fill-rule="evenodd" clip-rule="evenodd" fill="#303030" d="M122.42,94.25c0.615,0.035,0.119,1.182,0.279,1.673
	c-0.093,0-0.187,0-0.279,0C122.42,95.365,122.42,94.807,122.42,94.25z"/>
<path fill-rule="evenodd" clip-rule="evenodd" fill="#303030" d="M56.645,110.694c-0.125-0.455,1.519-0.455,1.394,0
	C57.574,110.694,57.109,110.694,56.645,110.694z"/>
<path fill-rule="evenodd" clip-rule="evenodd" fill="#303030" d="M63.334,110.973c-0.417-0.048-1.029,0.099-1.115-0.279
	C62.636,110.742,63.248,110.594,63.334,110.973z"/>
<path fill-rule="evenodd" clip-rule="evenodd" fill="#303030" d="M64.727,110.973c0.452-0.2,0.452,1.314,0,1.113
	C64.727,111.715,64.727,111.343,64.727,110.973z"/>
<path fill-rule="evenodd" clip-rule="evenodd" fill="#D3D3D3" d="M93.993,134.383c0.649,0,1.3,0,1.949,0
	C95.906,134.842,94.031,134.842,93.993,134.383z"/>
<path fill-rule="evenodd" clip-rule="evenodd" fill="#303030" d="M8.428,30.146c0.813-1.046,1.741-1.975,2.787-2.787
	C10.402,28.405,9.474,29.333,8.428,30.146z"/>
<path fill-rule="evenodd" clip-rule="evenodd" fill="#303030" d="M3.689,60.526c0.492,0.251,0.863,0.624,1.115,1.115
	C4.313,61.389,3.941,61.017,3.689,60.526z"/>
<path fill-rule="evenodd" clip-rule="evenodd" fill="#D3D3D3" d="M4.804,61.641c-0.251-0.491-0.623-0.863-1.115-1.115
	c0-0.093,0-0.186,0-0.279c0.675,0.44,1.233,0.998,1.672,1.672C5.136,61.866,5.084,61.64,4.804,61.641z"/>
<path fill-rule="evenodd" clip-rule="evenodd" fill="#D3D3D3" d="M62.498,80.593c0.806,0.122,1.271,0.587,1.394,1.394
	C63.273,81.676,63.136,80.884,62.498,80.593z"/>
<path fill-rule="evenodd" clip-rule="evenodd" fill="#303030" d="M56.645,110.973c-0.44,1.09,0.724,0.576,0.836,1.113
	C56.62,112.452,55.899,111.296,56.645,110.973z"/>
<path fill-rule="evenodd" clip-rule="evenodd" fill="#6F6F6F" d="M56.645,110.973c0-0.094,0-0.187,0-0.279c0.464,0,0.929,0,1.394,0
	c0.465,0,0.93,0,1.394,0c0,1.765,0,3.53,0,5.296c-0.642-0.66-0.1-2.502-0.279-3.624c-0.035-0.615-1.182-0.118-1.672-0.279
	C57.368,111.549,56.205,112.063,56.645,110.973z"/>
<path fill-rule="evenodd" clip-rule="evenodd" fill="#A2A2A2" d="M60.825,118.776c0.675,0.44,1.232,0.997,1.672,1.673
	C61.822,120.009,61.265,119.452,60.825,118.776z"/>
<path fill-rule="evenodd" clip-rule="evenodd" fill="#303030" d="M63.334,121.563c0.733,0.289,0.939,1.105,1.671,1.395
	c0.054,0.226,0.28,0.277,0.278,0.557C64.517,122.981,63.867,122.332,63.334,121.563z"/>
<path fill-rule="evenodd" clip-rule="evenodd" fill="#6F6F6F" d="M65.284,123.514c0.583,0.347,1.048,0.811,1.395,1.394
	C66.095,124.562,65.63,124.097,65.284,123.514z"/>
<path fill-rule="evenodd" clip-rule="evenodd" fill="#A2A2A2" d="M66.678,124.908c0.675,0.439,1.232,0.998,1.673,1.673
	C67.676,126.141,67.119,125.583,66.678,124.908z"/>
<path fill-rule="evenodd" clip-rule="evenodd" fill="#A2A2A2" d="M119.913,83.102c0.583,0.345,1.048,0.81,1.393,1.393
	C120.722,84.148,120.257,83.685,119.913,83.102z"/>
<path fill-rule="evenodd" clip-rule="evenodd" fill="#D3D3D3" d="M23.478,45.754c0.553,0.562,1.243,0.987,1.672,1.672
	C24.432,47.029,23.573,46.773,23.478,45.754z"/>
<path fill-rule="evenodd" clip-rule="evenodd" fill="#303030" d="M25.15,35.163c0.252-0.491,0.624-0.862,1.115-1.114
	C26.014,34.54,25.642,34.911,25.15,35.163z"/>
<path fill-rule="evenodd" clip-rule="evenodd" fill="#303030" d="M65.284,19.833c0.156,0.402,0.435,0.68,0.838,0.836
	c0.821-0.385,1.128-1.287,1.951-1.672c0.236-0.051,0.263,0.109,0.278,0.278c-1.303,0.091-1.206,1.582-2.509,1.672
	C65.92,20.457,64.53,20.085,65.284,19.833z"/>
<path fill-rule="evenodd" clip-rule="evenodd" fill="#D3D3D3" d="M78.384,3.111c0.49,0.251,0.863,0.624,1.115,1.115
	C79.007,3.974,78.636,3.603,78.384,3.111z"/>
<path fill-rule="evenodd" clip-rule="evenodd" fill="#6F6F6F" d="M66.957,17.883c0.491,0.252,0.863,0.624,1.116,1.115
	c-0.823,0.385-1.13,1.287-1.951,1.672c-0.403-0.156-0.682-0.435-0.838-0.836C65.67,19.011,66.572,18.705,66.957,17.883z"/>
<path fill-rule="evenodd" clip-rule="evenodd" fill="#D3D3D3" d="M65.005,122.958c-0.732-0.289-0.938-1.105-1.671-1.395
	c-0.082-0.568-0.754-0.546-0.836-1.114C63.45,121.168,64.287,122.004,65.005,122.958z"/>
<path fill-rule="evenodd" clip-rule="evenodd" fill="#303030" d="M11.215,31.261c0.346-0.583,0.811-1.047,1.394-1.394
	C12.262,30.451,11.798,30.915,11.215,31.261z"/>
<path fill-rule="evenodd" clip-rule="evenodd" fill="#6F6F6F" d="M10.1,32.376c0.251-0.491,0.623-0.864,1.115-1.115
	C10.963,31.752,10.591,32.124,10.1,32.376z"/>
<path fill-rule="evenodd" clip-rule="evenodd" fill="#6F6F6F" d="M5.641,58.575c0.583,0.346,1.047,0.811,1.393,1.394
	C6.451,59.622,5.986,59.157,5.641,58.575z"/>
<path fill-rule="evenodd" clip-rule="evenodd" fill="#A2A2A2" d="M62.776,117.104c0.768,0.533,1.419,1.184,1.951,1.95
	C63.96,118.522,63.309,117.872,62.776,117.104z"/>
<path fill-rule="evenodd" clip-rule="evenodd" fill="#6F6F6F" d="M64.727,119.054c0.675,0.44,1.231,0.997,1.673,1.673
	C65.724,120.288,65.167,119.73,64.727,119.054z"/>
<path fill-rule="evenodd" clip-rule="evenodd" fill="#D3D3D3" d="M66.957,121.563c0.647,0.189,0.747,0.927,1.395,1.115
	c0.098,0.366,0.491,0.438,0.557,0.836C68.141,122.981,67.49,122.332,66.957,121.563z"/>
<path fill-rule="evenodd" clip-rule="evenodd" fill="#A2A2A2" d="M68.908,123.514c0.491,0.252,0.863,0.623,1.114,1.115
	C69.531,124.377,69.161,124.006,68.908,123.514z"/>
<path fill-rule="evenodd" clip-rule="evenodd" fill="#303030" d="M110.715,130.204c0.252-0.491,0.623-0.863,1.113-1.115
	C111.579,129.58,111.206,129.953,110.715,130.204z"/>
<path fill-rule="evenodd" clip-rule="evenodd" fill="#6F6F6F" d="M21.527,47.705c0.583,0.346,1.048,0.81,1.394,1.393
	C22.337,48.753,21.873,48.288,21.527,47.705z"/>
<path fill-rule="evenodd" clip-rule="evenodd" fill="#303030" d="M22.642,33.769c0.534-0.768,1.184-1.417,1.952-1.951
	C24.06,32.586,23.409,33.236,22.642,33.769z"/>
<path fill-rule="evenodd" clip-rule="evenodd" fill="#6F6F6F" d="M70.859,14.26c2.467,0.651-0.37,1.833-0.557,3.065
	c-0.493-0.252-0.863-0.624-1.116-1.115C69.571,15.388,70.475,15.082,70.859,14.26z"/>
<path fill-rule="evenodd" clip-rule="evenodd" fill="#303030" d="M68.908,15.932c0.823-0.385,1.128-1.288,1.951-1.672
	c-0.384,0.822-1.288,1.128-1.673,1.951C68.95,16.262,68.924,16.102,68.908,15.932z"/>
<path fill-rule="evenodd" clip-rule="evenodd" fill="#6F6F6F" d="M90.369,71.953c0.433,0.403,1.3,0.372,1.673,0.836
	c-0.636,0.677-0.593,3.167-1.951,2.23C88.679,74.478,91.144,72.722,90.369,71.953z"/>
<path fill-rule="evenodd" clip-rule="evenodd" fill="#303030" d="M68.351,122.678c-0.647-0.188-0.747-0.926-1.395-1.115
	c-0.098-0.365-0.491-0.438-0.557-0.836C67.167,121.26,67.818,121.911,68.351,122.678z"/>
<path fill-rule="evenodd" clip-rule="evenodd" fill="#6F6F6F" d="M62.219,109.579c0,0.372,0,0.743,0,1.115
	c0.086,0.378,0.698,0.231,1.115,0.279c0.463,0,0.928,0,1.393,0c0,0.37,0,0.742,0,1.113c-0.387,0.637-1.94,0.104-2.787,0.279
	C62.115,111.519,61.583,109.965,62.219,109.579z"/>
<path fill-rule="evenodd" clip-rule="evenodd" fill="#A2A2A2" d="M68.073,0.045c1.214,0.18,3.149-0.364,3.9,0.278
	c-1.3,0-2.601,0-3.9,0C68.073,0.231,68.073,0.138,68.073,0.045z"/>
<path fill-rule="evenodd" clip-rule="evenodd" fill="#6F6F6F" d="M65.284,3.111c0.12-0.623,1.374-0.113,1.951-0.279
	C67.115,3.456,65.863,2.945,65.284,3.111z"/>
<path fill-rule="evenodd" clip-rule="evenodd" fill="#6F6F6F" d="M71.138,2.832c0.44,0.023,1.063-0.134,1.113,0.279
	C71.811,3.088,71.19,3.246,71.138,2.832z"/>
<path fill-rule="evenodd" clip-rule="evenodd" fill="#6F6F6F" d="M83.958,14.538c0.617,0.035,0.12,1.183,0.28,1.672
	C83.621,16.176,84.118,15.028,83.958,14.538z"/>
<path fill-rule="evenodd" clip-rule="evenodd" fill="#6F6F6F" d="M81.45,16.21c0.623,0.12,0.113,1.374,0.28,1.951
	C81.105,18.042,81.616,16.788,81.45,16.21z"/>
<path fill-rule="evenodd" clip-rule="evenodd" fill="#6F6F6F" d="M84.238,17.047c0.627,0.208,0.108,1.563,0.278,2.229
	C83.887,19.069,84.407,17.713,84.238,17.047z"/>
<path fill-rule="evenodd" clip-rule="evenodd" fill="#6F6F6F" d="M24.035,18.998c-0.739,0.562-1.563,1.039-2.508,1.394
	c0.378-1.125-1.07-2.576-1.672-3.623c0.438-0.677,1.186-1.044,2.23-1.115C22.504,16.999,23.081,18.187,24.035,18.998z"/>
<path fill-rule="evenodd" clip-rule="evenodd" fill="#6F6F6F" d="M81.73,18.998c0.631,0.296,0.105,1.752,0.278,2.508
	C81.375,21.209,81.902,19.754,81.73,18.998z"/>
<path fill-rule="evenodd" clip-rule="evenodd" fill="#6F6F6F" d="M84.516,20.391c0.632,0.297,0.106,1.752,0.279,2.509
	C84.162,22.603,84.689,21.148,84.516,20.391z"/>
<path fill-rule="evenodd" clip-rule="evenodd" fill="#6F6F6F" d="M23.199,22.621c0.451-0.571,1.341-0.703,1.951-1.115
	c0.361,1.318,2.136,2.688,1.673,3.902c-1.027,0.38-1.271,1.109-1.951,0.278C24.397,25.107,23.823,23.386,23.199,22.621z"/>
<path fill-rule="evenodd" clip-rule="evenodd" fill="#6F6F6F" d="M82.008,22.621c0.631,0.297,0.106,1.752,0.278,2.509
	C81.654,24.833,82.18,23.377,82.008,22.621z"/>
<path fill-rule="evenodd" clip-rule="evenodd" fill="#6F6F6F" d="M74.203,28.753c0.623,0.12,0.114,1.373,0.278,1.951
	C73.858,30.583,74.37,29.33,74.203,28.753z"/>
<path fill-rule="evenodd" clip-rule="evenodd" fill="#6F6F6F" d="M71.973,42.41c0,0.557,0,1.115,0,1.672
	c-0.615-0.034-0.118-1.182-0.278-1.672C71.789,42.41,71.881,42.41,71.973,42.41z"/>
<path fill-rule="evenodd" clip-rule="evenodd" fill="#6F6F6F" d="M82.565,32.654c-0.187,3.717,0.371,8.175-0.278,11.427
	c0-3.809,0-7.618,0-11.427C82.378,32.654,82.473,32.654,82.565,32.654z"/>
<path fill-rule="evenodd" clip-rule="evenodd" fill="#D3D3D3" d="M85.074,42.967c-0.173,0.756,0.353,2.212-0.278,2.509
	C84.967,44.719,84.44,43.263,85.074,42.967z"/>
<path fill-rule="evenodd" clip-rule="evenodd" fill="#6F6F6F" d="M0.624,46.869c-0.16,0.49,0.336,1.638-0.279,1.673
	C0.505,48.051,0.008,46.904,0.624,46.869z"/>
<path fill-rule="evenodd" clip-rule="evenodd" fill="#6F6F6F" d="M3.132,48.542c0,0.464,0,0.929,0,1.393c-0.093,0-0.186,0-0.279,0
	C3.006,49.529,2.528,48.494,3.132,48.542z"/>
<path fill-rule="evenodd" clip-rule="evenodd" fill="#6F6F6F" d="M77.27,50.213c0.836,0,1.671,0,2.509,0
	C79.566,50.674,77.481,50.674,77.27,50.213z"/>
<path fill-rule="evenodd" clip-rule="evenodd" fill="#6F6F6F" d="M3.132,52.443c-0.379-0.086-0.231-0.698-0.279-1.115
	c0.093,0,0.186,0,0.279,0C3.132,51.7,3.132,52.071,3.132,52.443z"/>
<path fill-rule="evenodd" clip-rule="evenodd" fill="#6F6F6F" d="M93.155,70.281c-0.711-0.124-1.28-0.392-1.671-0.836
	c0.678-0.437,1.044-1.186,1.114-2.23c0.878-0.133,1.09,0.397,1.673,0.558C93.833,68.541,93.494,69.41,93.155,70.281z"/>
<path fill-rule="evenodd" clip-rule="evenodd" fill="#A2A2A2" d="M122.7,95.922c-0.024,0.44,0.134,1.063-0.279,1.114
	c0-0.371,0-0.743,0-1.114C122.513,95.922,122.607,95.922,122.7,95.922z"/>
<path fill-rule="evenodd" clip-rule="evenodd" fill="#6F6F6F" d="M59.711,107.907c-0.161,0.49,0.336,1.637-0.279,1.672
	C59.592,109.088,59.095,107.941,59.711,107.907z"/>
<path fill-rule="evenodd" clip-rule="evenodd" fill="#FFFFFF" d="M24.035,18.998c7.94-4.608,18.154-9.192,27.035-13.657
	c4.604-2.315,8.473-4.78,15.051-5.017c0.648,0,1.3,0,1.951,0c1.3,0,2.601,0,3.9,0c2.885,0.182,4.965,1.168,6.411,2.788
	c0.252,0.491,0.623,0.863,1.115,1.115c1.064,0.651,2.044,2.566,2.787,4.181c0.833,1.811,1.557,3.466,1.671,6.131
	c0.16,0.49-0.337,1.638,0.28,1.672c0,0.279,0,0.558,0,0.836c0.169,0.666-0.351,2.022,0.278,2.229c0,0.372,0,0.744,0,1.115
	c0.173,0.757-0.354,2.212,0.279,2.509c0,0.372,0,0.743,0,1.115c0,0.65,0,1.3,0,1.951c0,0.372,0,0.744,0,1.115
	c0.184,3.066-0.371,6.873,0.278,9.476c0,2.136,0,4.273,0,6.41c-0.634,0.296-0.106,1.752-0.278,2.509
	c-0.655,2.598-2.18,4.324-5.017,4.738c-0.838,0-1.673,0-2.509,0c-3.133-0.677-4.998-2.621-5.297-6.132c0-0.557,0-1.115,0-1.672
	c0-0.836,0-1.672,0-2.509c0-0.557,0-1.115,0-1.672c0-0.464,0-0.929,0-1.394c0-0.464,0-0.929,0-1.394
	c0.457,0.126,0.457-1.519,0-1.393c0-0.279,0-0.558,0-0.836c-0.174-0.848,0.356-2.401-0.278-2.788
	c-0.527-4.303-1.703-7.958-3.344-11.148c-0.016-0.169-0.042-0.329-0.278-0.278c-0.253-0.491-0.625-0.863-1.116-1.115
	c-0.671,0.114-0.604-0.509-1.393-0.278c0.198-0.453-1.315-0.453-1.115,0c-3.058,0.468-5.796,1.537-8.641,2.229
	c-2.826,0.689-5.709,1.25-8.361,2.23c-3.367,1.244-6.633,3.168-9.755,5.017c-0.188,0.111-0.627,0.122-0.836,0.278
	c-0.115,0.086-0.17,0.495-0.279,0.558c-0.91,0.518-1.923,0.897-2.787,1.394c-0.525,0.302-0.962,0.567-1.393,0.836
	c-0.195,0.121-0.621,0.117-0.836,0.278c-0.283,0.213-0.557,0.514-1.115,0.836c-0.25,0.145-0.367,0.44-0.557,0.558
	c-0.345,0.212-1.057,0.336-1.394,0.558c-0.808,0.53-1.352,1.255-2.229,1.672c-0.492,0.252-0.863,0.623-1.115,1.114
	c-1.122,1.572-2.195,3.192-2.787,5.296c-0.461,0.211-0.461,2.296,0,2.508c0.186,1.115,0.691,1.91,1.114,2.787
	c0.096,1.02,0.954,1.275,1.672,1.672c5.883,2.206,12.255,2.855,18.396,3.902c1.623,0.277,3.121,0.534,4.738,0.836
	c3.934,0.735,7.55,1.66,10.87,3.065c0.887,0.376,1.622,0.658,2.787,1.116c4.396,1.724,9.5,4.35,14.214,6.41
	c5.133,2.244,10.27,4.508,15.33,6.689c0.391,0.445,0.96,0.712,1.671,0.836c3.13,1.133,6.291,2.567,9.477,3.901
	c2.09,0.875,3.902,1.554,6.133,2.509c2.676,1.146,6.021,2.397,8.641,4.181c0.1,0.069,0.188,0.517,0.278,0.558
	c0.601,0.271,1.778,0.837,2.229,1.673c0.345,0.583,0.81,1.046,1.393,1.393c2.197,2.262,3.742,5.177,3.902,9.477
	c0,0.743,0,1.486,0,2.229c-0.17,4.973-2.618,10.082-4.181,15.051c-1.267,4.027-2.661,8.54-4.18,12.82
	c-1.056,2.969-1.865,6.116-3.624,7.804c-1.188,1.14-3.843,2.107-6.132,2.787c-1.249,0.371-3.304,0.66-5.017,1.115
	c-1.896,0.504-2.867,1.188-5.017,1.114c-1.395,0-2.787,0-4.182,0c-2.436-0.172-5.575-1.492-8.081-2.229
	c-2.353-0.69-4.856-1.332-7.247-2.229c-1.57-0.59-3.333-1.288-4.459-1.951c-0.399-0.233-0.714-0.851-1.116-1.114
	c-0.406-0.268-1.069-0.318-1.393-0.558c-0.389-0.286-0.773-0.82-1.115-1.115c-0.419-0.362-0.96-0.573-1.114-1.114
	c-0.44-0.675-0.998-1.233-1.673-1.673c-0.347-0.583-0.812-1.047-1.395-1.394c0.002-0.279-0.225-0.331-0.278-0.557
	c-0.719-0.953-1.556-1.789-2.508-2.509c-0.44-0.676-0.997-1.232-1.672-1.673c-0.851-0.542-1.401-1.386-1.394-2.786
	c0-1.766,0-3.531,0-5.296c0-0.372,0-0.743,0-1.115c0.616-0.035,0.119-1.182,0.279-1.672c1.018-8.087,3.048-15.161,4.738-22.576
	c0.457,0.046,0.457-1.717,0-1.672c-0.223-0.521-0.466-1.021-0.558-1.672c-0.123-0.807-0.587-1.271-1.394-1.394
	c-4.373-1.83-9.12-3.011-13.936-4.46c-1.193-0.358-2.407-0.731-3.624-1.114c-1.064-0.336-2.207-0.763-3.344-1.115
	c-2.324-0.72-4.841-1.223-7.247-1.951c-0.571-0.172-1.08-0.667-1.672-0.835c-0.625-0.18-1.319-0.089-1.951-0.28
	c-1.091-0.33-2.252-0.777-3.345-1.114c-4.612-1.422-9.04-2.961-13.936-4.46c-3.05-0.933-6.337-1.306-8.083-3.344
	c-0.439-0.675-0.997-1.232-1.672-1.672c-1.986-1.915-3.075-4.729-3.345-8.361c0-0.744,0-1.487,0-2.23c0-0.371,0-0.743,0-1.114
	c0.616-0.035,0.119-1.183,0.279-1.673c0.916-7.259,4.028-12.323,7.804-16.723c1.046-0.813,1.975-1.741,2.787-2.787
	c3.22-2.541,6.477-5.043,10.312-6.968C22.473,20.036,23.296,19.559,24.035,18.998z M67.794,2.832c-0.187,0-0.373,0-0.56,0
	c-0.577,0.166-1.831-0.344-1.951,0.279c-7.977,1.274-14.215,5.418-20.624,8.64c-6.477,3.256-13.054,6.176-19.51,9.754
	c-0.609,0.412-1.5,0.544-1.951,1.115c-3.776,2.17-7.263,4.629-10.591,7.247c-0.583,0.347-1.047,0.811-1.394,1.394
	c-0.492,0.251-0.863,0.624-1.115,1.115c-3.287,4.424-6.162,9.26-6.968,16.166c-0.604-0.047-0.126,0.988-0.279,1.393
	c0,0.465,0,0.93,0,1.394c0.048,0.417-0.1,1.028,0.279,1.115c0.461,2.418,1.379,4.381,2.508,6.132
	c0.346,0.583,0.81,1.047,1.393,1.394c2.063,1.136,4.632,1.9,7.525,2.787c2.019,0.619,4.091,1.215,6.132,1.672
	c0.106,0.024,0.688,0.513,0.836,0.558c7.108,2.146,14.319,4.339,20.904,6.411c1.112,0.35,2.188,0.756,3.344,1.113
	c0.584,0.183,1.302,0.094,1.952,0.279c0.595,0.171,1.073,0.656,1.672,0.837c1.154,0.347,2.451,0.493,3.623,0.835
	c3.748,1.095,8.916,2.132,11.427,4.182c1.188,0.969,2.658,2.645,2.508,4.18c0,1.115,0,2.23,0,3.345
	c-1.374,8.009-3.604,15.164-4.737,23.412c-0.636,0.387-0.104,1.94-0.279,2.787c-0.179,2.037,0.142,3.574,0.836,4.738
	c0.533,0.768,1.185,1.418,1.951,1.95c0.44,0.676,0.997,1.233,1.673,1.673c0.065,0.398,0.459,0.471,0.557,0.836
	c0.533,0.769,1.185,1.418,1.951,1.951c0.253,0.492,0.623,0.863,1.114,1.115c1.652,1.167,3.191,2.317,5.019,3.345
	c5.511,3.099,12.545,4.366,18.952,6.409c0.038,0.459,1.913,0.459,1.949,0c5.03-1.288,10.432-2.203,14.773-4.18
	c0.49-0.251,0.863-0.624,1.113-1.115c0.569-1.157,1.158-2.483,1.673-3.902c1.429-3.939,2.572-8.021,3.903-11.984
	c1.799-5.358,3.734-10.693,5.016-16.165c0.413-0.052,0.255-0.674,0.279-1.114c-0.16-0.491,0.336-1.638-0.279-1.673
	c-0.198-4.31-2.403-7.614-4.737-9.477c-2.541-2.027-5.057-3.155-8.084-4.459c-1.13-0.488-2.244-1.201-3.344-1.672
	c-2.41-1.033-4.95-1.826-7.246-2.787c-0.553-0.232-1.086-0.596-1.673-0.836c-1.725-0.709-3.711-1.396-5.295-2.23
	c-0.373-0.464-1.24-0.433-1.673-0.836c-2.732-0.803-5.207-2.189-7.804-3.344c-1.27-0.565-2.601-1.091-3.902-1.672
	c-0.979-0.438-2.174-1.109-2.787-1.393c-0.389-0.181-1.027-0.12-1.395-0.28c-1.266-0.554-2.359-1.39-3.622-1.95
	c-0.418-0.186-0.701-0.117-1.115-0.279c-0.339-0.134-0.562-0.439-0.836-0.558C65.506,61,62.226,59.74,58.875,58.296
	c-1.349-0.581-2.56-1.247-3.902-1.672c-1.396-0.443-2.904-0.788-4.459-1.114c-6.241-1.313-13.125-2.135-19.231-3.345
	c-2.994-0.594-6.125-1.095-8.361-3.066c-0.346-0.583-0.811-1.047-1.394-1.393c-2.17-2.146-2.478-6.549-1.672-9.198
	c0.553-1.815,2.066-3.556,2.787-4.738c0.768-0.533,1.418-1.183,1.952-1.951c2.969-2.37,6.303-4.176,9.754-6.132
	c3.583-2.029,7.563-4.377,11.148-5.853c2.605-1.072,4.956-1.512,7.804-2.229c3.464-0.873,7.014-2.327,10.87-2.788
	c0.465,0,0.93,0,1.395,0c1.701-0.216,2.435,0.538,3.344,1.115c0.017,0.169,0.042,0.33,0.278,0.278
	c0.253,0.491,0.623,0.863,1.116,1.115c1.991,3.118,3.43,6.788,3.9,11.428c0.167,0.577-0.345,1.831,0.278,1.951
	c0,0.372,0,0.743,0,1.115c0,0.464,0,0.929,0,1.394c0,1.3,0,2.601,0,3.901c0,0.558,0,1.115,0,1.672c0,0.279,0,0.558,0,0.836
	c-0.46,0.39-0.46,2.676,0,3.066c0.263,2.401,0.958,4.2,3.067,4.738c2.269,0.579,4.308-0.619,4.738-3.344
	c0.649-3.252,0.092-7.71,0.278-11.427c0-1.951,0-3.901,0-5.853c-0.048-0.417,0.101-1.028-0.278-1.115c0-0.186,0-0.372,0-0.557
	c-0.172-0.757,0.353-2.212-0.278-2.509c0-0.372,0-0.743,0-1.115c-0.173-0.756,0.353-2.212-0.278-2.508c0-0.278,0-0.557,0-0.836
	c-0.167-0.577,0.343-1.831-0.28-1.951c-1.002-6.43-3.063-11.8-9.198-13.099c-0.05-0.413-0.673-0.256-1.113-0.279
	c-0.093,0-0.187,0-0.279,0C70.468,2.371,68.183,2.371,67.794,2.832z"/>
<path fill-rule="evenodd" clip-rule="evenodd" fill="#6F6F6F" d="M71.695,30.424c0.635,0.387,0.104,1.94,0.278,2.788
	C71.338,32.826,71.869,31.272,71.695,30.424z"/>
<path fill-rule="evenodd" clip-rule="evenodd" fill="#6F6F6F" d="M22.363,40.458c0,0.836,0,1.672,0,2.508
	C21.902,42.755,21.902,40.67,22.363,40.458z"/>
<path fill-rule="evenodd" clip-rule="evenodd" fill="#A2A2A2" d="M66.957,82.822c0.463,0.481,0.463,2.865,0,3.345
	C66.957,85.052,66.957,83.937,66.957,82.822z"/>
<path fill-rule="evenodd" clip-rule="evenodd" fill="#A2A2A2" d="M92.876,136.892c1.395,0,2.787,0,4.182,0
	C96.302,137.356,93.632,137.356,92.876,136.892z"/>
<path fill-rule="evenodd" clip-rule="evenodd" fill="#6F6F6F" d="M66.122,0.324c0.12-0.623,1.374-0.112,1.951-0.278
	c0,0.093,0,0.186,0,0.278C67.421,0.324,66.77,0.324,66.122,0.324z"/>
<path fill-rule="evenodd" clip-rule="evenodd" fill="#6F6F6F" d="M84.795,24.015c0.623,0.12,0.111,1.374,0.278,1.951
	c-0.093,0-0.187,0-0.278,0C84.795,25.315,84.795,24.665,84.795,24.015z"/>
</svg>
