<?xml version="1.0" encoding="utf-8"?>
<!-- Generator: Adobe Illustrator 15.0.0, SVG Export Plug-In  -->
<!DOCTYPE svg PUBLIC "-//W3C//DTD SVG 1.1//EN" "http://www.w3.org/Graphics/SVG/1.1/DTD/svg11.dtd" [
	<!ENTITY ns_flows "http://ns.adobe.com/Flows/1.0/">
]>
<svg version="1.1"
	 xmlns="http://www.w3.org/2000/svg" xmlns:xlink="http://www.w3.org/1999/xlink" xmlns:a="http://ns.adobe.com/AdobeSVGViewerExtensions/3.0/"
	 x="0px" y="0px" width="142px" height="142px" viewBox="-8.576 -2.307 142 142" enable-background="new -8.576 -2.307 142 142"
	 xml:space="preserve">
<defs>
</defs>
<path fill-rule="evenodd" clip-rule="evenodd" fill="#D5D5D5" d="M67.792,2.832c0.389-0.461,2.674-0.461,3.064,0
	C69.835,2.832,68.814,2.832,67.792,2.832z"/>
<path fill-rule="evenodd" clip-rule="evenodd" fill="#323232" d="M64.167,14.817c-0.125-0.455,1.519-0.455,1.395,0
	C65.097,14.817,64.632,14.817,64.167,14.817z"/>
<path fill-rule="evenodd" clip-rule="evenodd" fill="#323232" d="M64.447,17.604c-0.2-0.453,1.313-0.453,1.115,0
	C65.19,17.604,64.819,17.604,64.447,17.604z"/>
<path fill-rule="evenodd" clip-rule="evenodd" fill="#D5D5D5" d="M82.285,25.687c0.379,0.086,0.23,0.698,0.278,1.115
	c-0.092,0-0.187,0-0.278,0C82.285,26.43,82.285,26.058,82.285,25.687z"/>
<path fill-rule="evenodd" clip-rule="evenodd" fill="#A3A3A3" d="M82.285,26.801c0.092,0,0.187,0,0.278,0
	c-0.172,0.757,0.353,2.212-0.278,2.509c0-0.279,0-0.557,0-0.836C82.285,27.917,82.285,27.359,82.285,26.801z"/>
<path fill-rule="evenodd" clip-rule="evenodd" fill="#323232" d="M79.777,28.474c0,0.464,0,0.93,0,1.394
	C79.32,29.993,79.32,28.348,79.777,28.474z"/>
<path fill-rule="evenodd" clip-rule="evenodd" fill="#717171" d="M79.777,28.474c0.835,0,1.671,0,2.508,0c0,0.279,0,0.558,0,0.836
	c0,0.093,0,0.186,0,0.279s0,0.186,0,0.278c-0.837,0-1.673,0-2.508,0C79.777,29.403,79.777,28.938,79.777,28.474z"/>
<path fill-rule="evenodd" clip-rule="evenodd" fill="#717171" d="M85.072,28.474c0.928,0,1.856,0,2.786,0c0,0.464,0,0.93,0,1.394
	c-0.93,0-1.858,0-2.786,0C85.072,29.403,85.072,28.938,85.072,28.474z"/>
<path fill-rule="evenodd" clip-rule="evenodd" fill="#A3A3A3" d="M82.285,29.867c0-0.093,0-0.186,0-0.278
	c0.637,0.477,0.103,2.127,0.278,3.065c-0.092,0-0.187,0-0.278,0C82.285,31.726,82.285,30.796,82.285,29.867z"/>
<path fill-rule="evenodd" clip-rule="evenodd" fill="#D5D5D5" d="M71.971,34.327c0.453-0.199,0.453,1.314,0,1.115
	C71.971,35.07,71.971,34.698,71.971,34.327z"/>
<path fill-rule="evenodd" clip-rule="evenodd" fill="#323232" d="M71.971,36.835c0,0.465,0,0.93,0,1.394c-0.092,0-0.185,0-0.278,0
	C71.845,37.824,71.369,36.788,71.971,36.835z"/>
<path fill-rule="evenodd" clip-rule="evenodd" fill="#323232" d="M74.479,37.114c0.095,0,0.187,0,0.281,0
	c-0.154,0.405,0.324,1.44-0.281,1.394C74.479,38.043,74.479,37.578,74.479,37.114z"/>
<path fill-rule="evenodd" clip-rule="evenodd" fill="#717171" d="M71.693,38.229c0.094,0,0.187,0,0.278,0c0,0.65,0,1.3,0,1.951
	c-0.092,0-0.185,0-0.278,0C71.693,39.529,71.693,38.879,71.693,38.229z"/>
<path fill-rule="evenodd" clip-rule="evenodd" fill="#D5D5D5" d="M74.479,39.622c0,1.022,0,2.044,0,3.066
	C74.019,42.298,74.019,40.012,74.479,39.622z"/>
<path fill-rule="evenodd" clip-rule="evenodd" fill="#A3A3A3" d="M71.693,40.18c0.094,0,0.187,0,0.278,0c0,0.743,0,1.486,0,2.23
	c-0.092,0-0.185,0-0.278,0C71.693,41.666,71.693,40.923,71.693,40.18z"/>
<path fill-rule="evenodd" clip-rule="evenodd" fill="#323232" d="M0.343,49.934c0,0.558,0,1.116,0,1.673
	C-0.114,51.653-0.114,49.889,0.343,49.934z"/>
<path fill-rule="evenodd" clip-rule="evenodd" fill="#323232" d="M2.851,49.934c0.093,0,0.186,0,0.279,0c0,0.465,0,0.93,0,1.394
	c-0.093,0-0.186,0-0.279,0C2.851,50.864,2.851,50.399,2.851,49.934z"/>
<path fill-rule="evenodd" clip-rule="evenodd" fill="#717171" d="M10.376,63.871c0.464,0,0.929,0,1.394,0
	C11.896,64.325,10.251,64.325,10.376,63.871z"/>
<path fill-rule="evenodd" clip-rule="evenodd" fill="#323232" d="M8.426,30.146c0.813-1.046,1.741-1.975,2.787-2.787
	C10.4,28.405,9.472,29.333,8.426,30.146z"/>
<path fill-rule="evenodd" clip-rule="evenodd" fill="#323232" d="M3.688,60.526c0.492,0.251,0.863,0.624,1.115,1.115
	C4.311,61.389,3.939,61.017,3.688,60.526z"/>
<path fill-rule="evenodd" clip-rule="evenodd" fill="#D5D5D5" d="M4.802,61.641c-0.251-0.491-0.623-0.863-1.115-1.115
	c0-0.093,0-0.186,0-0.279c0.675,0.44,1.233,0.998,1.672,1.672C5.134,61.866,5.082,61.64,4.802,61.641z"/>
<path fill-rule="evenodd" clip-rule="evenodd" fill="#323232" d="M25.148,35.163c0.252-0.491,0.624-0.862,1.115-1.114
	C26.012,34.54,25.64,34.911,25.148,35.163z"/>
<path fill-rule="evenodd" clip-rule="evenodd" fill="#323232" d="M16.508,61.919c0.533-0.768,1.183-1.418,1.951-1.951
	C17.926,60.736,17.276,61.386,16.508,61.919z"/>
<path fill-rule="evenodd" clip-rule="evenodd" fill="#323232" d="M11.213,31.261c0.346-0.583,0.811-1.047,1.394-1.394
	C12.26,30.451,11.796,30.915,11.213,31.261z"/>
<path fill-rule="evenodd" clip-rule="evenodd" fill="#717171" d="M5.639,58.575c0.583,0.346,1.047,0.811,1.393,1.394
	C6.449,59.622,5.984,59.157,5.639,58.575z"/>
<path fill-rule="evenodd" clip-rule="evenodd" fill="#323232" d="M14.557,59.968c0.44-0.675,0.997-1.232,1.672-1.672
	C15.79,58.971,15.232,59.528,14.557,59.968z"/>
<path fill-rule="evenodd" clip-rule="evenodd" fill="#323232" d="M22.64,33.769c0.534-0.768,1.184-1.417,1.952-1.951
	C24.058,32.586,23.407,33.236,22.64,33.769z"/>
<path fill-rule="evenodd" clip-rule="evenodd" fill="#323232" d="M70.3,17.325c-0.585-0.346-1.048-0.81-1.395-1.393
	C69.489,16.278,69.954,16.742,70.3,17.325z"/>
<path fill-rule="evenodd" clip-rule="evenodd" fill="#323232" d="M50.79,15.375c0.113-0.694,1.081-0.017,0.836,0.558
	C51.342,15.75,51.337,15.291,50.79,15.375z"/>
<path fill-rule="evenodd" clip-rule="evenodd" fill="#717171" d="M38.805,11.472c-0.231-1.533-0.977-2.553-1.672-3.623
	c0.438-0.677,1.186-1.044,2.23-1.115c0.107,0.688,0.53,1.384,0.836,1.951c0.27,0.499,0.378,1.414,1.115,1.394
	C40.672,10.738,39.604,10.971,38.805,11.472z"/>
<path fill-rule="evenodd" clip-rule="evenodd" fill="#323232" d="M23.197,47.426c0.122-0.958-0.11-1.562-0.278-2.229
	c1.514,1.694,2.23,2.418,3.902,3.066c1.935,0.749,4.237,0.988,6.41,1.394c5.256,0.982,10.79,1.726,16.444,2.787
	c3.146,0.591,5.874,1.292,8.918,2.508c1.306,0.522,2.644,1.439,3.902,1.951c0.431,0.175,0.968,0.09,1.394,0.279
	c1.689,0.75,3.284,1.739,5.017,2.508c0.896,0.397,1.875,0.712,2.787,1.115c7.505,3.312,15.941,7.03,23.69,10.313
	c1.358,0.574,2.706,1.062,4.181,1.671c0.141,0.058,0.455,0.526,0.557,0.558c0.247,0.075,0.602-0.099,0.838,0
	c0.936,0.392,1.572,0.997,2.508,1.394c0.86,0.365,1.861,0.45,2.787,0.836c1.042,0.435,2.162,1.127,3.344,1.673
	c1.182,0.544,2.951,1.221,4.46,1.95c0.775,0.375,1.797,0.682,2.508,1.115c0.112,0.068,0.185,0.515,0.28,0.558
	c1.499,0.676,3.909,2.549,5.017,3.901c0.187,0.229,0.106,0.613,0.278,0.837c0.982,1.284,1.896,2.62,2.509,5.017
	c0.402,1.572,0.833,4.404,0.557,6.968c-0.354,3.301-1.896,6.083-2.787,8.919c-0.248,0.786-0.32,1.718-0.557,2.509
	c-0.566,1.881-1.433,4.031-2.229,6.409c-1.142,3.402-2.328,7.444-3.624,11.149c-0.455,1.3-1.12,2.627-1.951,3.901
	c-1.869,2.872-5.235,3.649-9.477,4.738c-3.78,0.971-6.367,1.937-9.476,1.951c-3.721,0.019-6.523-1.36-10.312-2.509
	c-2.563-0.776-5.61-1.788-8.362-2.787c-3.853-1.398-6.816-3.856-10.033-7.246c-2.484-2.616-6.343-5.846-6.968-7.805
	c-0.846-2.649-0.059-6.039,0.279-8.918c0.875-7.463,2.72-12.98,4.18-20.347c0.304-1.527,0.799-2.87,0.558-4.18
	c-0.754-4.095-8.092-4.82-12.542-6.132c-10.813-3.187-21.228-6.697-32.052-10.034c-1.769-0.545-3.321-1.083-5.295-1.671
	c-0.576-0.172-1.09-0.382-1.672-0.558c-1.095-0.331-2.854-0.402-3.624-1.114c0.372,0,0.743,0,1.115,0
	c-0.125,0.455,1.519,0.455,1.394,0c1.442,0.048,2.216-0.572,3.344-0.836c5.186,1.365,11.178,3.431,16.444,5.017
	c1.115,0.336,2.208,0.492,3.345,0.836c2.014,0.61,4.056,1.591,6.131,2.231c0.538,0.164,1.416,0.111,1.951,0.278
	c1.302,0.402,2.796,1.177,4.459,1.672c1.538,0.457,3.344,0.946,5.017,1.393c4.057,1.084,10.704,2.311,13.1,5.297
	c2.543,3.169,1.446,6.815,0.278,11.705c-0.596,2.494-1.177,5.199-1.673,7.525c-0.51,2.397-1.268,5.088-1.672,7.804
	c-0.205,1.379-0.166,2.927-0.278,4.46c-0.114,1.542-0.574,2.958-0.279,4.18c0.467,1.937,4.814,5.565,6.411,7.247
	c1.835,1.934,3.239,3.197,5.573,4.737c3.862,2.551,10.239,4.227,15.608,5.854c1.722,0.521,3.338,1.04,4.738,1.113
	c3.018,0.162,5.786-0.859,8.919-1.672c2.267-0.587,5.059-1.099,6.968-2.229c1.272-0.754,1.922-1.764,2.787-3.901
	c2.584-6.396,4.836-14.385,6.968-20.903c0.945-2.898,2.029-5.457,2.508-8.361c0.864-5.245-1.406-10.332-4.737-12.543
	c-0.85-0.563-1.855-1.516-3.065-2.229c-4.115-2.424-10.007-4.428-14.773-6.41c-7.713-3.209-14.687-6.521-22.574-9.755
	c-0.14-0.057-0.457-0.526-0.559-0.557c-0.8-0.242-1.437-0.465-2.23-0.836c-2.331-1.091-4.978-2.203-7.524-3.344
	c-1.492-0.669-2.705-1.203-4.459-1.951c-3.222-1.375-6.836-2.967-10.87-3.902c-4.673-1.083-9.593-1.886-14.493-2.787
	c-4.636-0.853-9.524-1.117-13.657-3.345c0.046,0.324-0.061,0.496-0.278,0.558c0-0.186,0-0.372,0-0.558
	C23.657,49.532,23.657,47.55,23.197,47.426z"/>
<path fill-rule="evenodd" clip-rule="evenodd" fill="#A3A3A3" d="M68.071,0.045c1.214,0.18,3.149-0.364,3.9,0.278
	c-1.3,0-2.601,0-3.9,0C68.071,0.231,68.071,0.138,68.071,0.045z"/>
<path fill-rule="evenodd" clip-rule="evenodd" fill="#717171" d="M71.136,2.832c0.44,0.023,1.063-0.134,1.113,0.279
	C71.809,3.088,71.188,3.246,71.136,2.832z"/>
<path fill-rule="evenodd" clip-rule="evenodd" fill="#717171" d="M83.956,14.538c0.617,0.035,0.12,1.183,0.28,1.672
	C83.619,16.176,84.116,15.028,83.956,14.538z"/>
<path fill-rule="evenodd" clip-rule="evenodd" fill="#717171" d="M81.448,16.21c0.623,0.12,0.113,1.374,0.28,1.951
	C81.103,18.042,81.614,16.788,81.448,16.21z"/>
<path fill-rule="evenodd" clip-rule="evenodd" fill="#717171" d="M52.741,17.604c-0.516,0.414-1.324,0.534-2.229,0.557
	c0.386-1.104-1.284-2.582,0-2.787c0.093,0,0.186,0,0.278,0c0.548-0.083,0.553,0.376,0.836,0.558
	c0.372,0.464-0.101,1.773,0.836,1.672C52.555,17.604,52.647,17.604,52.741,17.604z"/>
<path fill-rule="evenodd" clip-rule="evenodd" fill="#717171" d="M84.236,17.047c0.627,0.208,0.108,1.563,0.278,2.229
	C83.885,19.069,84.405,17.713,84.236,17.047z"/>
<path fill-rule="evenodd" clip-rule="evenodd" fill="#717171" d="M81.728,18.998c0.631,0.296,0.105,1.752,0.278,2.508
	C81.374,21.209,81.9,19.754,81.728,18.998z"/>
<path fill-rule="evenodd" clip-rule="evenodd" fill="#717171" d="M84.514,20.391c0.632,0.297,0.106,1.752,0.279,2.509
	C84.16,22.603,84.687,21.148,84.514,20.391z"/>
<path fill-rule="evenodd" clip-rule="evenodd" fill="#717171" d="M82.006,22.621c0.631,0.297,0.106,1.752,0.278,2.509
	C81.652,24.833,82.178,23.377,82.006,22.621z"/>
<path fill-rule="evenodd" clip-rule="evenodd" fill="#717171" d="M74.201,28.753c0.623,0.12,0.114,1.373,0.278,1.951
	C73.856,30.583,74.368,29.33,74.201,28.753z"/>
<path fill-rule="evenodd" clip-rule="evenodd" fill="#717171" d="M22.361,40.458c0,0.836,0,1.672,0,2.508
	C21.9,42.755,21.9,40.67,22.361,40.458z"/>
<path fill-rule="evenodd" clip-rule="evenodd" fill="#717171" d="M71.971,42.41c0,0.557,0,1.115,0,1.672
	c-0.615-0.034-0.118-1.182-0.278-1.672C71.787,42.41,71.879,42.41,71.971,42.41z"/>
<path fill-rule="evenodd" clip-rule="evenodd" fill="#717171" d="M82.563,32.654c-0.187,3.717,0.371,8.175-0.278,11.427
	c0-3.809,0-7.618,0-11.427C82.376,32.654,82.471,32.654,82.563,32.654z"/>
<path fill-rule="evenodd" clip-rule="evenodd" fill="#717171" d="M0.622,46.869c-0.16,0.49,0.336,1.638-0.279,1.673
	C0.503,48.051,0.006,46.904,0.622,46.869z"/>
<path fill-rule="evenodd" clip-rule="evenodd" fill="#717171" d="M23.197,47.426c0.46,0.124,0.46,2.106,0,2.23
	C23.197,48.913,23.197,48.169,23.197,47.426z"/>
<path fill-rule="evenodd" clip-rule="evenodd" fill="#717171" d="M3.13,48.542c0,0.464,0,0.929,0,1.393c-0.093,0-0.186,0-0.279,0
	C3.004,49.529,2.526,48.494,3.13,48.542z"/>
<path fill-rule="evenodd" clip-rule="evenodd" fill="#717171" d="M3.13,52.443c-0.379-0.086-0.231-0.698-0.279-1.115
	c0.093,0,0.186,0,0.279,0C3.13,51.7,3.13,52.071,3.13,52.443z"/>
<path fill-rule="evenodd" clip-rule="evenodd" fill="#717171" d="M9.262,61.083c-0.816,0.073-0.856-0.63-1.672-0.557
	c0-0.093,0-0.186,0-0.279c0.093,0,0.185,0,0.278,0c0.808-0.493,0.231-2.371,1.672-2.229C11.011,58.544,9.591,59.99,9.262,61.083z"/>
<path fill-rule="evenodd" clip-rule="evenodd" fill="#FFFFFF" d="M41.313,10.079c8.119-3.401,14.158-8.882,24.806-9.755
	c0.648,0,1.3,0,1.951,0c1.3,0,2.601,0,3.9,0c3.824,0.144,6.747,2.407,8.641,5.017c1.848,2.544,2.899,5.467,3.344,9.197
	c0.16,0.49-0.337,1.638,0.28,1.672c0,0.279,0,0.558,0,0.836c0.169,0.666-0.351,2.022,0.278,2.229c0,0.372,0,0.744,0,1.115
	c0.173,0.757-0.354,2.212,0.279,2.509c0,0.372,0,0.743,0,1.115c0,0.65,0,1.3,0,1.951c0.184,3.531-0.371,7.803,0.278,10.87
	c-0.307,3.74,0.633,7.459-0.558,10.034c-0.781,1.689-2.372,2.267-3.624,3.345c-0.37,0-0.743,0-1.113,0c-0.838,0-1.673,0-2.509,0
	c-3.075-0.735-5.03-2.588-5.297-6.132c0-0.557,0-1.115,0-1.672c0-0.744,0-1.487,0-2.23c0-0.65,0-1.301,0-1.951
	c0-0.464,0-0.929,0-1.394c0-0.464,0-0.929,0-1.394c0.453,0.2,0.453-1.314,0-1.115c0-0.372,0-0.743,0-1.114
	c-0.172-0.757,0.354-2.212-0.278-2.509c-0.631-4.078-1.32-8.374-3.344-11.148c-0.633-0.868-1.482-1.999-2.787-1.951
	c0.198-0.453-1.315-0.453-1.115,0c-4.163,0.668-7.419,2.243-11.706,2.787c-0.489,0.255-1.391,0.096-1.672,0.557
	c-4.84,1.364-9.103,3.559-13.1,5.853c-4.013,2.304-7.916,4.662-11.706,7.247c-0.492,0.252-0.863,0.623-1.115,1.114
	c-1.122,1.572-2.195,3.192-2.787,5.296c-0.461,0.211-0.461,2.296,0,2.508c0.148,0.78,0.409,1.449,0.558,2.229
	c0.168,0.668,0.4,1.271,0.278,2.229c0,0.744,0,1.487,0,2.23c0,0.186,0,0.372,0,0.558c-0.458,4.373-2.813,6.849-4.738,9.755
	c-0.768,0.533-1.418,1.183-1.951,1.951c-0.511,0.325-0.944,0.729-1.394,1.115c-1.128,0.265-1.902,0.885-3.344,0.836
	c-0.465,0-0.93,0-1.394,0c-0.372,0-0.743,0-1.115,0c-0.583,0.118-0.738-0.191-1.115-0.279c-0.372-0.464-1.239-0.433-1.672-0.836
	c-0.371-0.28-1.038-0.263-1.115-0.836c-0.439-0.675-0.997-1.232-1.672-1.672c-2.013-1.982-3.162-4.828-3.345-8.64
	c0-0.557,0-1.115,0-1.673c0-0.464,0-0.929,0-1.393c0.616-0.035,0.119-1.183,0.279-1.673c0.9-7.275,4.054-12.296,7.804-16.723
	c1.046-0.813,1.975-1.741,2.787-2.787c8.002-6.49,17.752-11.234,27.592-15.887C39.604,10.971,40.672,10.738,41.313,10.079z
	 M67.792,2.832c-10.81,0.898-16.999,6.414-25.364,9.755c-0.799,0.501-1.867,0.734-2.508,1.394
	c-9.577,4.823-19.416,9.384-27.314,15.886c-0.583,0.347-1.047,0.811-1.394,1.394c-3.999,4.455-7.142,9.767-8.083,17.281
	c-0.604-0.047-0.126,0.988-0.279,1.393c0,0.465,0,0.93,0,1.394c0.048,0.417-0.1,1.028,0.279,1.115
	c0.461,2.418,1.379,4.381,2.508,6.132c0.346,0.583,0.81,1.047,1.393,1.394c0.28-0.001,0.332,0.226,0.558,0.278
	c0,0.093,0,0.186,0,0.279c0.816-0.073,0.856,0.63,1.672,0.557c2.057,0.345,4.017,0.017,5.295-1.115
	c0.675-0.44,1.232-0.997,1.672-1.672c1.844-3.073,4.483-5.394,4.459-9.754c-0.014-2.365-1.431-4.663-1.394-6.968
	c0.056-3.405,1.686-5.141,3.344-7.805c0.768-0.533,1.418-1.183,1.952-1.951c3.766-2.965,8.091-5.12,12.263-7.525
	c4.177-2.407,8.461-4.944,13.657-6.131c0.905-0.023,1.714-0.144,2.229-0.557c3.999-0.74,7.176-2.301,11.427-2.788
	c0.465,0,0.93,0,1.395,0c1.589-0.104,2.467,0.507,3.344,1.115c0.347,0.583,0.81,1.047,1.395,1.393
	c1.991,3.118,3.43,6.788,3.9,11.428c0.167,0.577-0.345,1.831,0.278,1.951c0,0.464,0,0.929,0,1.393c0,1.672,0,3.345,0,5.017
	c0,0.464,0,0.929,0,1.394c0,0.372,0,0.743,0,1.115c-0.46,0.39-0.46,2.676,0,3.066c0.141,2.707,1.621,5.092,4.182,5.017
	c1.896-0.056,3.222-1.505,3.624-3.624c0.649-3.252,0.092-7.71,0.278-11.427c-0.176-0.938,0.358-2.589-0.278-3.065
	c0-0.093,0-0.186,0-0.279c0.631-0.296,0.106-1.752,0.278-2.509c-0.048-0.417,0.101-1.028-0.278-1.115c0-0.186,0-0.372,0-0.557
	c-0.172-0.757,0.353-2.212-0.278-2.509c0-0.372,0-0.743,0-1.115c-0.173-0.756,0.353-2.212-0.278-2.508c0-0.278,0-0.557,0-0.836
	c-0.167-0.577,0.343-1.831-0.28-1.951C80.431,9.794,78.402,4.391,72.25,3.111c-0.05-0.413-0.673-0.256-1.113-0.279
	c-0.093,0-0.187,0-0.279,0C70.466,2.371,68.181,2.371,67.792,2.832z"/>
<path fill-rule="evenodd" clip-rule="evenodd" fill="#D5D5D5" d="M85.072,25.965c0,0.836,0,1.672,0,2.508c0,0.464,0,0.93,0,1.394
	c0,2.323,0,4.646,0,6.968c-0.649-3.067-0.095-7.338-0.278-10.87C84.885,25.965,84.979,25.965,85.072,25.965z"/>
<path fill-rule="evenodd" clip-rule="evenodd" fill="#717171" d="M39.92,13.981c0.641-0.659,1.709-0.893,2.508-1.394
	c-0.016,1.753,1.861,2.88,1.393,4.181c-0.816-0.073-0.856,0.63-1.672,0.557C41.129,16.485,41.195,14.409,39.92,13.981z"/>
<path fill-rule="evenodd" clip-rule="evenodd" fill="#717171" d="M51.068,20.948c0.282-0.461,1.184-0.302,1.672-0.557
	c0.478,0.637,0.265,1.965,0.836,2.509c-0.257,0.487-0.872,0.615-1.672,0.557C51.728,22.519,51.707,21.425,51.068,20.948z"/>
<path fill-rule="evenodd" clip-rule="evenodd" fill="#717171" d="M71.693,30.704c0.633,0.296,0.106,1.752,0.278,2.509
	C71.34,32.916,71.865,31.46,71.693,30.704z"/>
<path fill-rule="evenodd" clip-rule="evenodd" fill="#717171" d="M8.147,63.591c-0.091,1.024-0.688,1.542-0.836,2.508
	c-0.788,0.23-0.723-0.393-1.394-0.278c-0.118-1.27,1.28-2.071,0.558-3.066C6.908,63.159,7.775,63.127,8.147,63.591z"/>
<path fill-rule="evenodd" clip-rule="evenodd" fill="#717171" d="M66.12,0.324c0.12-0.623,1.374-0.112,1.951-0.278
	c0,0.093,0,0.186,0,0.278C67.419,0.324,66.768,0.324,66.12,0.324z"/>
<path fill-rule="evenodd" clip-rule="evenodd" fill="#717171" d="M84.793,24.015c0.623,0.12,0.111,1.374,0.278,1.951
	c-0.093,0-0.187,0-0.278,0C84.793,25.315,84.793,24.665,84.793,24.015z"/>
<path fill-rule="evenodd" clip-rule="evenodd" fill="#717171" d="M74.479,32.097c0.647,1.12,0.099,3.434,0.281,5.017
	c-0.095,0-0.187,0-0.281,0C74.479,35.441,74.479,33.769,74.479,32.097z"/>
<path fill-rule="evenodd" clip-rule="evenodd" fill="#717171" d="M77.268,50.213c0.836,0,1.671,0,2.509,0
	C79.564,50.674,77.479,50.674,77.268,50.213z"/>
</svg>
