<?xml version="1.0" encoding="utf-8"?>
<!-- Generator: Adobe Illustrator 15.0.0, SVG Export Plug-In  -->
<!DOCTYPE svg PUBLIC "-//W3C//DTD SVG 1.1//EN" "http://www.w3.org/Graphics/SVG/1.1/DTD/svg11.dtd" [
	<!ENTITY ns_flows "http://ns.adobe.com/Flows/1.0/">
]>
<svg version="1.1"
	 xmlns="http://www.w3.org/2000/svg" xmlns:xlink="http://www.w3.org/1999/xlink" xmlns:a="http://ns.adobe.com/AdobeSVGViewerExtensions/3.0/"
	 x="0px" y="0px" width="142px" height="142px" viewBox="-3.981 -17.09 142 142" enable-background="new -3.981 -17.09 142 142"
	 xml:space="preserve">
<defs>
</defs>
<path fill-rule="evenodd" clip-rule="evenodd" fill="#323232" d="M119.767,5.887c0.413,0.052,0.255,0.674,0.278,1.115
	C119.633,6.95,119.789,6.328,119.767,5.887z"/>
<path fill-rule="evenodd" clip-rule="evenodd" fill="#323232" d="M121.159,5.887c0.413,0.052,0.257,0.674,0.28,1.115
	C121.025,6.95,121.184,6.328,121.159,5.887z"/>
<path fill-rule="evenodd" clip-rule="evenodd" fill="#A9A9A9" d="M120.881,10.903c-0.126-0.455,1.519-0.455,1.395,0
	c-0.095,0-0.187,0-0.278,0C121.624,10.903,121.253,10.903,120.881,10.903z"/>
<path fill-rule="evenodd" clip-rule="evenodd" fill="#DBDBDB" d="M124.783,13.69c0.457-0.045,0.457,1.718,0,1.672
	C124.783,14.806,124.783,14.248,124.783,13.69z"/>
<path fill-rule="evenodd" clip-rule="evenodd" fill="#727272" d="M127.292,14.806c0.092,0,0.186,0,0.278,0c0,0.464,0,0.929,0,1.394
	c-0.093,0-0.187,0-0.278,0C127.292,15.734,127.292,15.27,127.292,14.806z"/>
<path fill-rule="evenodd" clip-rule="evenodd" fill="#323232" d="M124.783,16.199c0,0.557,0,1.114,0,1.672c-0.092,0-0.187,0-0.278,0
	C124.665,17.381,124.168,16.234,124.783,16.199z"/>
<path fill-rule="evenodd" clip-rule="evenodd" fill="#323232" d="M127.292,16.199c0.092,0,0.186,0,0.278,0
	c-0.16,0.489,0.336,1.637-0.278,1.672C127.292,17.313,127.292,16.756,127.292,16.199z"/>
<path fill-rule="evenodd" clip-rule="evenodd" fill="#A9A9A9" d="M63.745,44.07c-0.045-0.458,1.718-0.458,1.672,0
	C64.86,44.07,64.303,44.07,63.745,44.07z"/>
<path fill-rule="evenodd" clip-rule="evenodd" fill="#DBDBDB" d="M50.924,50.202c0,0.65,0,1.301,0,1.951c0,1.208,0,2.416,0,3.623
	c0,0.094,0,0.187,0,0.278C50.46,54.748,50.46,51.509,50.924,50.202z"/>
<path fill-rule="evenodd" clip-rule="evenodd" fill="#323232" d="M50.924,58.285c0.642,0.659,0.1,2.502,0.279,3.623
	c-0.093,0-0.186,0-0.279,0C50.924,60.7,50.924,59.493,50.924,58.285z"/>
<path fill-rule="evenodd" clip-rule="evenodd" fill="#323232" d="M48.138,58.842c0.093,0,0.186,0,0.278,0c0,1.114,0,2.229,0,3.344
	C47.777,61.618,48.315,59.872,48.138,58.842z"/>
<path fill-rule="evenodd" clip-rule="evenodd" fill="#727272" d="M50.924,61.908c0.093,0,0.186,0,0.279,0c0,0.93,0,1.858,0,2.786
	c-0.093,0-0.186,0-0.279,0C50.924,63.766,50.924,62.837,50.924,61.908z"/>
<path fill-rule="evenodd" clip-rule="evenodd" fill="#A9A9A9" d="M50.924,64.694c0.093,0,0.186,0,0.279,0c0,0.372,0,0.743,0,1.116
	C50.825,65.724,50.972,65.112,50.924,64.694z"/>
<path fill-rule="evenodd" clip-rule="evenodd" fill="#323232" d="M82.419,67.482c0.125,0.456-1.519,0.456-1.394,0
	C81.49,67.482,81.955,67.482,82.419,67.482z"/>
<path fill-rule="evenodd" clip-rule="evenodd" fill="#DBDBDB" d="M54.269,68.597c0.372,0,0.743,0,1.115,0
	C55.583,69.048,54.07,69.048,54.269,68.597z"/>
<path fill-rule="evenodd" clip-rule="evenodd" fill="#323232" d="M81.025,70.269c0.465,0,0.93,0,1.394,0
	C82.544,70.724,80.9,70.724,81.025,70.269z"/>
<path fill-rule="evenodd" clip-rule="evenodd" fill="#323232" d="M99.699,63.581c0.761,0.202,0.561-0.554,1.115-0.559
	C100.725,63.345,99.951,64.335,99.699,63.581z"/>
<path fill-rule="evenodd" clip-rule="evenodd" fill="#323232" d="M105.274,54.383c0.25-0.491,0.623-0.864,1.113-1.115
	C106.136,53.759,105.765,54.131,105.274,54.383z"/>
<path fill-rule="evenodd" clip-rule="evenodd" fill="#727272" d="M106.388,53.268c0.533-0.768,1.185-1.417,1.952-1.951
	C107.807,52.084,107.155,52.734,106.388,53.268z"/>
<path fill-rule="evenodd" clip-rule="evenodd" fill="#323232" d="M108.34,51.316c0.252-0.491,0.623-0.863,1.113-1.115
	C109.203,50.693,108.83,51.065,108.34,51.316z"/>
<path fill-rule="evenodd" clip-rule="evenodd" fill="#A9A9A9" d="M121.439,27.069c0.531-0.768,1.183-1.418,1.949-1.951
	C122.856,25.885,122.207,26.535,121.439,27.069z"/>
<path fill-rule="evenodd" clip-rule="evenodd" fill="#323232" d="M123.668,25.118c0.532-0.768,1.184-1.418,1.951-1.951
	C125.086,23.935,124.437,24.585,123.668,25.118z"/>
<path fill-rule="evenodd" clip-rule="evenodd" fill="#323232" d="M115.586,11.182c0.347-0.583,0.81-1.047,1.395-1.394
	C116.634,10.372,116.169,10.836,115.586,11.182z"/>
<path fill-rule="evenodd" clip-rule="evenodd" fill="#323232" d="M113.356,13.69c0.252-0.491,0.623-0.863,1.113-1.115
	C114.22,13.067,113.847,13.438,113.356,13.69z"/>
<path fill-rule="evenodd" clip-rule="evenodd" fill="#727272" d="M89.388,35.151c0.344-0.583,0.809-1.047,1.392-1.393
	C90.435,34.341,89.971,34.806,89.388,35.151z"/>
<path fill-rule="evenodd" clip-rule="evenodd" fill="#DBDBDB" d="M76.287,68.319c-0.733-0.289-0.938-1.105-1.673-1.395
	c-0.052-0.226-0.278-0.277-0.278-0.558C75.103,66.9,75.754,67.55,76.287,68.319z"/>
<path fill-rule="evenodd" clip-rule="evenodd" fill="#727272" d="M49.531,68.875c0.492,0.251,0.864,0.623,1.115,1.114
	C50.155,69.739,49.782,69.367,49.531,68.875z"/>
<path fill-rule="evenodd" clip-rule="evenodd" fill="#A9A9A9" d="M72.105,64.137c0.862,0.626,1.605,1.369,2.23,2.229
	C73.477,65.741,72.733,64.998,72.105,64.137z"/>
<path fill-rule="evenodd" clip-rule="evenodd" fill="#323232" d="M74.614,66.924c0.735,0.289,0.939,1.105,1.673,1.395
	c0.829,0.937,2.264,1.267,3.346,1.95c-0.021-0.001-0.278,0.002-0.278,0c0.065,3.074-0.471,4.018-1.951,5.574
	c-0.207,0.216-0.329,0.657-0.56,0.836c-0.196,0.153-0.627,0.103-0.835,0.279c-0.223,0.187-0.327,0.674-0.558,0.836
	c-0.269,0.188-0.595,0.089-0.837,0.278c-0.229,0.181-0.324,0.674-0.557,0.837c-0.269,0.188-0.596,0.09-0.836,0.278
	c-0.23,0.179-0.324,0.674-0.557,0.836c-0.269,0.188-0.593,0.095-0.838,0.279c-0.435,0.33-0.93,0.759-1.393,1.114
	c-1.843,1.417-3.744,3.043-5.575,4.46c-3.514,2.719-5.8,4.592-12.542,3.901c-2.261-0.231-5.157-1.133-7.247-1.951
	c-0.667-0.261-1.441-0.583-1.951-0.836c-0.31-0.154-0.484-0.638-0.836-0.836c-0.794-0.449-1.949-0.846-2.787-1.394
	c-5.877-3.844-9.659-8.311-15.608-13.936c-1.053-0.996-2.292-1.791-3.344-2.788c-0.521-0.492-0.895-1.215-1.394-1.672
	c-0.473-0.434-1.16-0.647-1.672-1.114c-2-1.821-3.806-3.886-5.854-5.854c-0.979-0.94-2.257-1.772-3.344-2.786
	c-0.493-0.461-0.896-1.218-1.394-1.673c-1.049-0.961-2.051-1.566-3.066-2.787c-0.189-0.228-0.98-0.816-1.115-1.115
	c-0.637-1.412-2.254-3.319-2.508-5.295c-0.359-2.794-0.152-6.493,0-9.755c0.32-6.879,1.142-12.062,3.902-16.722
	c0.124-0.209,0.115-0.594,0.279-0.836c0.262-0.39,0.809-0.7,1.115-1.116c0.188-0.254,0.083-0.353,0.278-0.557
	c0.401-0.417,1.079-1.631,1.672-2.229c0.51-0.514,1.326-0.886,1.951-1.394c0.619-0.501,1.084-0.988,1.673-1.394
	c3.727-2.573,8.5-3.765,14.492-4.459C44.73,5.057,62.764,3.045,81.862,0.87c4.462-0.508,8.999-1.32,12.263-0.557
	c1.627,0.38,3.149,1.308,4.46,2.229c1.302,0.917,2.31,2.284,3.9,2.508c2.196,0.31,4.007-1.048,6.133-0.558
	c1.963,0.454,3.445,2.004,3.065,5.575c-0.163,1.521-0.688,2.576-1.671,3.902c-0.161,0.215-0.385,0.295-0.56,0.557
	c-1.02,1.537-3.211,3.492-4.738,5.017c-1.233,1.236-2.447,2.424-3.622,3.623c-2.868,2.931-4.661,3.867-9.754,4.738
	c-4.524,0.774-10.515,1.676-15.608,2.508c-1.097,0.179-2.29,0.613-3.065,0.558c-1.888-0.136-3.284-1.48-4.739-2.229
	c-5.678,1.105-11.75,1.814-17.56,2.787c-0.236,1.478,1.467,1.269,2.23,1.672c2.3,1.212,5.108,2.666,7.804,3.902
	c3.626,1.661,7.482,3.097,10.592,5.017c-1.389-0.099-2.206-0.767-3.902-0.557c-0.843-0.643-2.875-0.099-4.181-0.279
	c0-0.093,0-0.186,0-0.278c-2.449-0.883-5.289-2.208-8.918-3.902c-1.237-0.577-2.737-1.263-3.902-1.952
	c-0.776-0.458-1.544-0.537-1.951-1.114c-0.911-1.292-0.585-3.483,0.557-4.459c0.806-0.688,1.262-0.521,2.509-0.836
	c3.513-0.889,7.273-1.325,11.427-1.951c2.148-0.324,4.598-0.831,6.131-0.558c1.688,0.3,2.677,1.801,4.182,1.951
	c0.743,0.074,1.809-0.392,2.787-0.557c4.487-0.759,9.42-1.358,14.492-2.23c3.674-0.632,5.329-1.007,7.524-2.787
	c1.819-1.475,3.911-4.189,5.576-5.853c2.654-2.656,6.591-4.969,5.295-9.476c-3.094-0.673-3.685,0.852-6.411,0.557
	c-3.085-0.333-4.772-3.267-7.524-4.459c-2.246-0.973-5.474-0.671-8.92-0.279c-19.451,2.216-39.18,4.618-59.365,6.968
	c-4.424,0.515-7.947,0.84-11.148,2.508c-0.362,0.189-0.307,0.039-0.557,0.279c-0.269,0.257-1.431,0.617-1.951,1.115
	c-0.788,0.754-2.655,1.78-3.624,2.787c-0.326,0.339-0.417,0.858-0.836,1.393c-0.36,0.461-0.774,0.618-1.115,1.116
	c-2.919,4.264-4.063,10.152-4.181,17.837c-0.043,2.826-0.485,6.358,0,8.64c0.269,1.264,2.036,3.375,3.066,4.737
	c0.194,0.257,0.331,0.608,0.557,0.836c0.473,0.476,1.178,0.655,1.672,1.115c2.892,2.69,4.9,4.955,7.525,7.246
	c2.348,2.051,5.029,4.65,7.525,6.969c4.51,4.189,9.062,8.896,13.935,12.82c0.513,0.413,0.886,1.004,1.394,1.394
	c1.539,1.183,3.604,2.362,5.574,3.345c0.961,0.479,1.884,1.003,3.066,1.395c2.617,0.864,7.58,2.275,11.148,1.113
	c1.892-0.616,3.341-2.038,5.017-3.344c3.216-2.505,5.859-4.445,9.477-7.247c1.759-1.363,3.754-2.861,3.9-4.459
	C77.038,69.564,75.618,68.419,74.614,66.924z"/>
<path fill-rule="evenodd" clip-rule="evenodd" fill="#727272" d="M97.469,60.514c0.383-0.64,1.148-0.896,1.673-1.394
	c0.678,1.365,1.981,2.105,2.509,3.623c-0.451-0.079-0.481,0.264-0.836,0.278c-0.555,0.005-0.354,0.761-1.115,0.559
	C99.042,62.473,98.016,61.733,97.469,60.514z"/>
<path fill-rule="evenodd" clip-rule="evenodd" fill="#DBDBDB" d="M115.586,11.182c0.583-0.346,1.048-0.811,1.395-1.394
	c0.092,0,0.184,0,0.278,0c-0.441,0.675-0.998,1.232-1.673,1.673C115.586,11.368,115.586,11.275,115.586,11.182z"/>
<path fill-rule="evenodd" clip-rule="evenodd" fill="#727272" d="M117.537,13.133c0.345-0.583,0.81-1.047,1.393-1.394
	C118.585,12.323,118.12,12.787,117.537,13.133z"/>
<path fill-rule="evenodd" clip-rule="evenodd" fill="#323232" d="M113.635,17.593c0.252-0.491,0.623-0.864,1.115-1.115
	C114.498,16.969,114.125,17.341,113.635,17.593z"/>
<path fill-rule="evenodd" clip-rule="evenodd" fill="#DBDBDB" d="M106.667,30.134c0.252-0.491,0.623-0.863,1.115-1.115
	C107.748,29.729,107.376,30.101,106.667,30.134z"/>
<path fill-rule="evenodd" clip-rule="evenodd" fill="#DBDBDB" d="M91.339,36.824c0.25-0.491,0.623-0.863,1.113-1.115
	C92.2,36.2,91.829,36.572,91.339,36.824z"/>
<path fill-rule="evenodd" clip-rule="evenodd" fill="#323232" d="M86.322,46.579c0.345-0.583,0.81-1.047,1.393-1.394
	C87.368,45.768,86.903,46.233,86.322,46.579z"/>
<path fill-rule="evenodd" clip-rule="evenodd" fill="#A9A9A9" d="M73.778,62.186c0.862,0.627,1.605,1.37,2.23,2.229
	C75.149,63.79,74.406,63.046,73.778,62.186z"/>
<path fill-rule="evenodd" clip-rule="evenodd" fill="#727272" d="M95.518,58.285c-0.585-1.272-1.845-1.87-2.229-3.345
	c0.513-0.325,0.943-0.729,1.395-1.115c1.212,0.738,1.683,2.219,2.786,3.066c-0.539,0.854-1.524,1.262-2.229,1.951
	C95.293,58.616,95.52,58.564,95.518,58.285z"/>
<path fill-rule="evenodd" clip-rule="evenodd" fill="#DBDBDB" d="M104.437,51.595c0.72-0.953,1.557-1.789,2.509-2.508
	C106.226,50.04,105.391,50.876,104.437,51.595z"/>
<path fill-rule="evenodd" clip-rule="evenodd" fill="#A9A9A9" d="M119.767,25.118c0.439-0.675,0.996-1.232,1.673-1.672
	C120.999,24.121,120.442,24.678,119.767,25.118z"/>
<path fill-rule="evenodd" clip-rule="evenodd" fill="#323232" d="M121.997,12.576c0.745,0.324,0.023,1.479-0.838,1.115
	c-0.595,0.13-0.531-0.398-0.557-0.836c0.336,0.314,0.505,0.795,1.395,0.558c0-0.186,0-0.372,0-0.558
	C121.997,12.761,121.997,12.669,121.997,12.576z"/>
<path fill-rule="evenodd" clip-rule="evenodd" fill="#323232" d="M103.88,51.874c0.905-1.139,1.928-2.161,3.065-3.066
	c0,0.093,0,0.186,0,0.279c-0.952,0.719-1.789,1.555-2.509,2.508C104.213,51.648,104.16,51.875,103.88,51.874z"/>
<path fill-rule="evenodd" clip-rule="evenodd" fill="#323232" d="M50.924,52.153c1.717-1.042,2.632-2.797,4.738-2.787
	c1.326,0.006,3.034,0.57,4.738,0.836c3.105,0.484,6.042,0.91,9.197,1.394c1.511,0.231,3.254,0.249,4.738,0.558
	c2.868,0.596,5.171,1.909,7.248,3.345c2.312,1.599,4.151,3.26,6.966,3.623c3.033,0.391,6.114-0.285,6.968-0.836
	c0.002,0.279-0.225,0.331-0.278,0.558c-1.604,1.182-3.109,2.463-4.738,3.623c0.055-0.227,0.28-0.278,0.278-0.558
	c-3.27,0.37-6.339-1.142-8.36-2.509c-0.204-0.138-0.608-0.107-0.835-0.278c-0.134-0.1-0.152-0.471-0.28-0.558
	c-0.271-0.187-0.591-0.093-0.836-0.278c-0.41-0.314-0.966-0.959-1.673-1.394c-0.709-0.437-1.757-1.117-2.508-1.394
	c-1.455-0.538-3.408-0.536-5.295-0.836c-4.078-0.649-8.49-1.515-12.821-2.23c-2.629-0.434-3.243-0.048-5.017,1.394
	c-0.83,0.675-1.431,1.415-2.23,1.951C50.924,54.568,50.924,53.36,50.924,52.153z"/>
<path fill-rule="evenodd" clip-rule="evenodd" fill="#323232" d="M91.339,36.824c0.49-0.252,0.861-0.624,1.113-1.115
	c0.093,0,0.187,0,0.278,0c-0.346,0.583-0.809,1.047-1.392,1.394C91.339,37.01,91.339,36.917,91.339,36.824z"/>
<path fill-rule="evenodd" clip-rule="evenodd" fill="#727272" d="M121.718,8.117c-0.905-0.162-1.298,0.189-1.951,0.278
	c0.232-0.324,0.367-0.747,0.278-1.394c-0.023-0.441,0.135-1.063-0.278-1.115c0-0.186,0-0.372,0-0.558
	c0.527,0.124,1.679-0.379,1.393,0.558c0.024,0.441-0.134,1.063,0.28,1.115C121.321,7.584,121.63,7.739,121.718,8.117z"/>
<path fill-rule="evenodd" clip-rule="evenodd" fill="#323232" d="M120.045,11.182c0.009-0.271,0.341-0.216,0.558-0.279
	c0,0.279,0,0.558,0,0.836C120.3,11.67,120.414,11.186,120.045,11.182z"/>
<path fill-rule="evenodd" clip-rule="evenodd" fill="#727272" d="M120.881,10.903c0.372,0,0.743,0,1.116,0c0,0.558,0,1.115,0,1.672
	c0,0.093,0,0.186,0,0.279c0,0.186,0,0.372,0,0.558c-0.89,0.238-1.059-0.243-1.395-0.558c0-0.372,0-0.743,0-1.115
	c0-0.278,0-0.558,0-0.836C120.694,10.903,120.789,10.903,120.881,10.903z"/>
<path fill-rule="evenodd" clip-rule="evenodd" fill="#727272" d="M124.505,19.265c0-0.465,0-0.929,0-1.394c0.092,0,0.187,0,0.278,0
	C124.631,18.276,125.108,19.312,124.505,19.265z"/>
<path fill-rule="evenodd" clip-rule="evenodd" fill="#727272" d="M82.141,45.463c-0.036-0.987-0.458-1.586-0.837-2.229
	c-0.118-0.77,1.039-0.262,1.115-0.836c0.894,0.408,0.699,1.903,1.393,2.508C83.556,45.394,82.942,45.521,82.141,45.463z"/>
<path fill-rule="evenodd" clip-rule="evenodd" fill="#A9A9A9" d="M68.762,63.581c-0.045-0.458,1.718-0.458,1.673,0
	C69.876,63.581,69.319,63.581,68.762,63.581z"/>
<path fill-rule="evenodd" clip-rule="evenodd" fill="#DBDBDB" d="M48.416,63.581c0.64,0.567,0.101,2.313,0.278,3.344
	C48.056,66.356,48.594,64.61,48.416,63.581z"/>
<path fill-rule="evenodd" clip-rule="evenodd" fill="#727272" d="M55.384,68.597c0.087-1.203-1.333-2.774,0.279-3.066
	c1.084,0.124,0.833,1.583,1.115,2.508c0.185,0,0.371,0,0.557,0C56.913,68.454,56.112,68.489,55.384,68.597z"/>
<path fill-rule="evenodd" clip-rule="evenodd" fill="#FFFFFF" d="M119.767,8.395c0.653-0.089,1.046-0.44,1.951-0.278
	c3.32,0.117,4.935,1.94,5.574,4.738c0,0.65,0,1.3,0,1.951c0,0.464,0,0.929,0,1.394c0,0.557,0,1.114,0,1.672
	c0.206,2.53-0.701,3.945-1.673,5.295c-0.768,0.533-1.419,1.184-1.951,1.951c-0.093,0-0.185,0-0.279,0
	c-0.767,0.533-1.418,1.183-1.949,1.951c-0.759,1.623-2.163,2.586-3.067,4.181c-1.656,2.927-2.283,6.518-3.622,10.033
	c-0.406,1.064-1.17,2.626-1.951,3.902c-0.16,0.261-0.431,0.617-0.557,0.836c-0.848,1.455-1.509,2.919-2.789,4.18
	c-0.49,0.252-0.861,0.624-1.113,1.115c-0.768,0.534-1.419,1.184-1.952,1.951c-0.49,0.251-0.863,0.624-1.113,1.115
	c-2.02,1.605-3.931,3.316-6.133,4.738c-0.524,0.497-1.29,0.754-1.673,1.394c-1.749,1.594-3.874,2.812-5.852,4.46
	c-0.084,0.067-0.202,0.522-0.278,0.557c-0.642,0.288-1.489,0.796-2.23,1.394c-1.641,1.321-3.359,3.405-6.689,3.345
	c-0.464,0-0.929,0-1.394,0s-0.928,0-1.393,0c-1.082-0.684-2.517-1.014-3.346-1.95c-0.533-0.769-1.185-1.419-1.951-1.952
	c-0.625-0.86-1.368-1.604-2.23-2.229c-0.65-0.092-1.149-0.335-1.671-0.557c0.045-0.458-1.718-0.458-1.673,0
	c-4.443,1.688-6.478,5.784-11.148,7.246c-1.178,0.309-2.651,0.32-4.181,0.278c-1.347,0.047-2.032-0.567-2.787-1.115
	c-0.251-0.491-0.624-0.863-1.115-1.114c-0.452-0.477-0.843-1.015-0.836-1.951c-0.178-1.03,0.361-2.776-0.278-3.344
	c0-0.465,0-0.93,0-1.395c0-1.114,0-2.229,0-3.344c0-3.252,0-6.503,0-9.755c0.202-4.527,4.162-5.643,8.362-6.689
	c1.643-0.409,3.477-0.952,5.017-0.836c1.766,0,3.53,0,5.295,0c1.696-0.209,2.514,0.458,3.902,0.557
	c3.956,0.722,6.521,4.212,11.148,3.344c0.802,0.058,1.415-0.07,1.671-0.557c3.266-1.844,3.09-7.131,5.576-9.755
	c0.583-0.345,1.047-0.81,1.392-1.393c2.41-2.909,8.555-2.927,12.544-4.739c0.4-0.182,1.126-0.358,1.392-0.557
	c0.768-0.57,1.118-1.525,1.673-2.508c0.928-1.645,1.613-3.493,2.509-5.575c1.138-2.638,2.384-4.688,4.46-6.689
	c0.49-0.252,0.863-0.624,1.113-1.115c0.253-0.491,0.625-0.863,1.116-1.114c0.675-0.44,1.231-0.998,1.673-1.673
	C117.741,8.971,118.564,8.495,119.767,8.395z M120.603,10.903c-0.217,0.063-0.549,0.007-0.558,0.279
	c-0.555,0.003-0.354,0.76-1.115,0.558c-0.583,0.346-1.048,0.811-1.393,1.394c-0.771,1.273-1.896,2.192-2.787,3.344
	c-0.492,0.251-0.863,0.624-1.115,1.115c-2.507,2.77-3.34,8.994-5.853,11.427c-0.492,0.252-0.863,0.624-1.115,1.115
	c-3.107,3.397-10.42,2.586-13.937,5.575c-0.092,0-0.186,0-0.278,0c-0.49,0.251-0.863,0.624-1.113,1.115c0,0.093,0,0.186,0,0.279
	c-1.461,2.443-1.939,5.865-3.624,8.083c-0.583,0.346-1.048,0.811-1.393,1.394c-0.495,0.25-0.815,0.673-1.395,0.836
	c-0.755,0.268-1.593,0.451-2.229,0.836c-0.187,0-0.371,0-0.558,0c-1.021,0-2.043,0-3.067,0c-4.944-1-7.755-4.136-13.656-4.181
	c0.045-0.458-1.718-0.458-1.672,0c-3.29,0.446-10.981,1.428-12.263,3.623c-0.437,0.747-0.163,1.663-0.558,2.508
	c-0.464,1.307-0.464,4.546,0,5.853c0,0.743,0,1.487,0,2.23c0,1.208,0,2.415,0,3.623c0,0.93,0,1.858,0,2.786
	c0.048,0.418-0.1,1.03,0.279,1.116c0.223,0.52,0.466,1.021,0.558,1.672c0.769,0.438,1.638,0.777,2.508,1.115
	c-0.199,0.451,1.314,0.451,1.115,0c0.728-0.108,1.529-0.144,1.951-0.559c3.935-1.918,5.927-5.778,10.591-6.967
	c1.208,0,2.415,0,3.623,0c1.154-0.039,1.597,0.634,2.229,1.114c0.628,0.86,1.371,1.604,2.23,2.229
	c1.584,1.111,2.39,2.999,5.017,3.066c-0.125,0.456,1.519,0.456,1.394,0c3.763-0.603,5.27-3.463,8.082-5.017
	c1.629-1.16,3.134-2.441,4.738-3.623c0.705-0.689,1.69-1.097,2.229-1.951c2.164-1.646,4.302-3.318,6.411-5.017
	c0.28,0.001,0.333-0.226,0.557-0.279c0.954-0.719,1.789-1.555,2.509-2.508c0-0.093,0-0.187,0-0.279
	c1.248-1.67,2.586-3.296,3.624-5.295c1.078-2.079,1.747-4.363,2.508-6.689c1.511-4.625,3.442-8.882,6.689-11.706
	c0.676-0.439,1.232-0.997,1.673-1.672c1.012-1.402,2.574-2.256,3.065-4.181c0.604,0.047,0.126-0.989,0.278-1.394
	c0-0.558,0-1.115,0-1.672c0-0.279,0-0.558,0-0.836c0.457,0.046,0.457-1.718,0-1.672c-0.4-1.365-1.292-2.239-2.508-2.787
	c0.124-0.455-1.521-0.455-1.395,0C120.789,10.903,120.694,10.903,120.603,10.903z"/>
<path fill-rule="evenodd" clip-rule="evenodd" fill="#DBDBDB" d="M67.926,61.072c0.571-0.463,3.051-0.463,3.623,0
	C70.341,61.072,69.134,61.072,67.926,61.072z"/>
<path fill-rule="evenodd" clip-rule="evenodd" fill="#A9A9A9" d="M127.292,12.854c0.623,0.12,0.112,1.374,0.278,1.951
	c-0.093,0-0.187,0-0.278,0C127.292,14.155,127.292,13.505,127.292,12.854z"/>
<path fill-rule="evenodd" clip-rule="evenodd" fill="#A9A9A9" d="M62.909,41.283c1.306,0.181,3.337-0.364,4.181,0.279
	c-1.765,0-3.53,0-5.295,0C61.881,41.183,62.493,41.331,62.909,41.283z"/>
<path fill-rule="evenodd" clip-rule="evenodd" fill="#727272" d="M82.698,48.251c0.637-0.386,1.475-0.568,2.229-0.836
	c-0.395,1.392,1.815,2.795,0,3.065c-1.271,0.848-0.718-2.152-1.951-2.229C82.884,48.251,82.79,48.251,82.698,48.251z"/>
<path fill-rule="evenodd" clip-rule="evenodd" fill="#727272" d="M53.433,71.105c1.53,0.042,3.003,0.03,4.181-0.278
	c-0.087,1.203,1.333,2.772-0.279,3.065c-1.577,0.184-0.25-2.536-1.672-2.509C54.996,71.214,53.641,71.734,53.433,71.105z"/>
<path fill-rule="evenodd" clip-rule="evenodd" fill="#727272" d="M79.073,48.251c1.024,0,2.046,0,3.067,0
	C81.75,48.712,79.465,48.712,79.073,48.251z"/>
<path fill-rule="evenodd" clip-rule="evenodd" fill="#727272" d="M48.416,49.087c0,3.251,0,6.503,0,9.755c-0.093,0-0.185,0-0.278,0
	C48.322,55.682,47.768,51.783,48.416,49.087z"/>
</svg>
