<?xml version="1.0" encoding="utf-8"?>
<!-- Generator: Adobe Illustrator 15.0.0, SVG Export Plug-In  -->
<!DOCTYPE svg PUBLIC "-//W3C//DTD SVG 1.1//EN" "http://www.w3.org/Graphics/SVG/1.1/DTD/svg11.dtd" [
	<!ENTITY ns_flows "http://ns.adobe.com/Flows/1.0/">
]>
<svg version="1.1"
	 xmlns="http://www.w3.org/2000/svg" xmlns:xlink="http://www.w3.org/1999/xlink" xmlns:a="http://ns.adobe.com/AdobeSVGViewerExtensions/3.0/"
	 x="0px" y="0px" width="142px" height="142px" viewBox="-1.115 -14.274 142 142" enable-background="new -1.115 -14.274 142 142"
	 xml:space="preserve">
<defs>
</defs>
<path fill-rule="evenodd" clip-rule="evenodd" fill="#323232" d="M115.944,0.341c-0.126-0.455,1.519-0.455,1.393,0
	C116.874,0.341,116.409,0.341,115.944,0.341z"/>
<path fill-rule="evenodd" clip-rule="evenodd" fill="#323232" d="M64.104,2.85c0.413,0.052,0.255,0.674,0.279,1.115
	C63.97,3.913,64.126,3.291,64.104,2.85z"/>
<path fill-rule="evenodd" clip-rule="evenodd" fill="#323232" d="M115.666,3.128c0-0.093,0-0.186,0-0.279c0.743,0,1.486,0,2.229,0
	c0,0.093,0,0.186,0,0.279C117.152,3.128,116.409,3.128,115.666,3.128z"/>
<path fill-rule="evenodd" clip-rule="evenodd" fill="#323232" d="M66.333,3.965c0.604-0.047,0.126,0.988,0.278,1.393
	C66.007,5.405,66.486,4.369,66.333,3.965z"/>
<path fill-rule="evenodd" clip-rule="evenodd" fill="#A4A4A4" d="M65.776,5.916c0.047-0.325,0.441-0.303,0.836-0.278
	c0.186,0,0.372,0,0.558,0C67.216,6.241,66.181,5.763,65.776,5.916z"/>
<path fill-rule="evenodd" clip-rule="evenodd" fill="#323232" d="M66.891,8.981c0.413,0.052,0.256,0.674,0.279,1.115
	C66.757,10.044,66.914,9.423,66.891,8.981z"/>
<path fill-rule="evenodd" clip-rule="evenodd" fill="#323232" d="M64.94,10.375c0.413,0.052,0.255,0.674,0.278,1.115
	C64.806,11.438,64.962,10.816,64.94,10.375z"/>
<path fill-rule="evenodd" clip-rule="evenodd" fill="#323232" d="M67.17,11.489c0.451-0.199,0.451,1.315,0,1.115
	C67.17,12.233,67.17,11.861,67.17,11.489z"/>
<path fill-rule="evenodd" clip-rule="evenodd" fill="#717171" d="M129.323,34.623c0.188,0.648,0.926,0.746,1.114,1.394
	c-0.066,0.397-0.459,0.47-0.558,0.836c-0.092,0-0.186,0-0.278,0c-0.387-0.822-1.288-1.128-1.673-1.951
	c0.066-0.398,0.459-0.47,0.558-0.836C128.966,34.05,129.201,34.28,129.323,34.623z"/>
<path fill-rule="evenodd" clip-rule="evenodd" fill="#323232" d="M3.344,35.738c0,0.836,0,1.672,0,2.508c-0.093,0-0.185,0-0.278,0
	C3.238,37.49,2.712,36.034,3.344,35.738z"/>
<path fill-rule="evenodd" clip-rule="evenodd" fill="#323232" d="M5.853,35.738c0.093,0,0.186,0,0.278,0
	c-0.175,0.847,0.357,2.4-0.278,2.787C5.853,37.596,5.853,36.667,5.853,35.738z"/>
<path fill-rule="evenodd" clip-rule="evenodd" fill="#717171" d="M3.066,38.246c0.093,0,0.186,0,0.278,0c0,0.929,0,1.858,0,2.787
	c-0.093,0-0.185,0-0.278,0C3.066,40.104,3.066,39.175,3.066,38.246z"/>
<path fill-rule="evenodd" clip-rule="evenodd" fill="#D4D4D4" d="M5.853,40.197c0,0.93,0,1.858,0,2.787c-0.093,0-0.186,0-0.279,0
	C5.749,42.137,5.217,40.583,5.853,40.197z"/>
<path fill-rule="evenodd" clip-rule="evenodd" fill="#A4A4A4" d="M3.066,41.033c0.093,0,0.186,0,0.278,0c0,0.743,0,1.486,0,2.229
	c-0.093,0-0.185,0-0.278,0C3.066,42.52,3.066,41.776,3.066,41.033z"/>
<path fill-rule="evenodd" clip-rule="evenodd" fill="#A4A4A4" d="M5.574,42.984c0.093,0,0.186,0,0.279,0c0,0.651,0,1.301,0,1.951
	c-0.093,0-0.186,0-0.279,0C5.574,44.285,5.574,43.635,5.574,42.984z"/>
<path fill-rule="evenodd" clip-rule="evenodd" fill="#D4D4D4" d="M3.066,43.262c0.093,0,0.186,0,0.278,0
	c-0.165,0.578,0.345,1.832-0.278,1.952C3.066,44.563,3.066,43.913,3.066,43.262z"/>
<path fill-rule="evenodd" clip-rule="evenodd" fill="#717171" d="M5.574,44.935c0.093,0,0.186,0,0.279,0c0,1.208,0,2.416,0,3.624
	c-0.016,0.17-0.042,0.33-0.279,0.279C5.574,47.537,5.574,46.235,5.574,44.935z"/>
<path fill-rule="evenodd" clip-rule="evenodd" fill="#323232" d="M3.066,47.722c0,0.836,0,1.672,0,2.508c-0.093,0-0.186,0-0.278,0
	C2.959,49.475,2.433,48.019,3.066,47.722z"/>
<path fill-rule="evenodd" clip-rule="evenodd" fill="#717171" d="M2.788,50.23c0.092,0,0.185,0,0.278,0c0,0.65,0,1.3,0,1.951
	c-0.093,0-0.186,0-0.278,0C2.788,51.531,2.788,50.881,2.788,50.23z"/>
<path fill-rule="evenodd" clip-rule="evenodd" fill="#717171" d="M5.295,54.69c0.093,0,0.186,0,0.279,0c0,0.836,0,1.672,0,2.509
	c-0.093,0-0.186,0-0.279,0C5.295,56.362,5.295,55.526,5.295,54.69z"/>
<path fill-rule="evenodd" clip-rule="evenodd" fill="#323232" d="M5.295,57.199c0.093,0,0.186,0,0.279,0
	c-0.166,0.577,0.345,1.831-0.279,1.952C5.295,58.499,5.295,57.849,5.295,57.199z"/>
<path fill-rule="evenodd" clip-rule="evenodd" fill="#323232" d="M2.788,57.477c0,0.744,0,1.487,0,2.23c-0.093,0-0.186,0-0.279,0
	C2.678,59.041,2.158,57.685,2.788,57.477z"/>
<path fill-rule="evenodd" clip-rule="evenodd" fill="#717171" d="M2.508,59.707c0.093,0,0.186,0,0.279,0c0,0.557,0,1.114,0,1.672
	c-0.093,0-0.186,0-0.279,0C2.508,60.821,2.508,60.264,2.508,59.707z"/>
<path fill-rule="evenodd" clip-rule="evenodd" fill="#D4D4D4" d="M5.295,60.264c0,0.558,0,1.115,0,1.673c-0.093,0-0.186,0-0.279,0
	C5.177,61.447,4.68,60.299,5.295,60.264z"/>
<path fill-rule="evenodd" clip-rule="evenodd" fill="#A4A4A4" d="M2.508,61.379c0.093,0,0.186,0,0.279,0c0,0.465,0,0.93,0,1.394
	c-0.093,0-0.186,0-0.279,0C2.508,62.309,2.508,61.844,2.508,61.379z"/>
<path fill-rule="evenodd" clip-rule="evenodd" fill="#A4A4A4" d="M5.017,61.937c0.093,0,0.186,0,0.279,0c0,0.465,0,0.929,0,1.394
	c-0.093,0-0.186,0-0.279,0C5.017,62.865,5.017,62.401,5.017,61.937z"/>
<path fill-rule="evenodd" clip-rule="evenodd" fill="#D4D4D4" d="M2.508,62.772c0.093,0,0.186,0,0.279,0
	c-0.153,0.405,0.325,1.441-0.279,1.394C2.508,63.702,2.508,63.237,2.508,62.772z"/>
<path fill-rule="evenodd" clip-rule="evenodd" fill="#717171" d="M5.017,63.33c0.093,0,0.186,0,0.279,0c0,0.558,0,1.115,0,1.672
	c-0.093,0-0.186,0-0.279,0C5.017,64.445,5.017,63.888,5.017,63.33z"/>
<path fill-rule="evenodd" clip-rule="evenodd" fill="#323232" d="M5.017,65.002c0.093,0,0.186,0,0.279,0
	c-0.16,0.491,0.337,1.638-0.279,1.673C5.017,66.118,5.017,65.56,5.017,65.002z"/>
<path fill-rule="evenodd" clip-rule="evenodd" fill="#323232" d="M2.508,65.56c0,0.559,0,1.115,0,1.672c-0.093,0-0.186,0-0.279,0
	C2.39,66.742,1.893,65.595,2.508,65.56z"/>
<path fill-rule="evenodd" clip-rule="evenodd" fill="#717171" d="M2.229,67.231c0.093,0,0.186,0,0.279,0c0,0.559,0,1.115,0,1.673
	c-0.093,0-0.186,0-0.279,0C2.229,68.347,2.229,67.79,2.229,67.231z"/>
<path fill-rule="evenodd" clip-rule="evenodd" fill="#D4D4D4" d="M5.017,68.068c0,0.371,0,0.743,0,1.114c-0.093,0-0.186,0-0.278,0
	C4.761,68.742,4.604,68.12,5.017,68.068z"/>
<path fill-rule="evenodd" clip-rule="evenodd" fill="#A4A4A4" d="M2.229,68.904c0.093,0,0.186,0,0.279,0c0,0.372,0,0.743,0,1.115
	c-0.093,0-0.186,0-0.279,0C2.229,69.647,2.229,69.276,2.229,68.904z"/>
<path fill-rule="evenodd" clip-rule="evenodd" fill="#A4A4A4" d="M4.738,69.183c0.093,0,0.186,0,0.278,0c0,0.465,0,0.929,0,1.394
	c-0.093,0-0.186,0-0.278,0C4.738,70.111,4.738,69.647,4.738,69.183z"/>
<path fill-rule="evenodd" clip-rule="evenodd" fill="#D4D4D4" d="M2.229,70.02c0.093,0,0.186,0,0.279,0
	c-0.152,0.404,0.326,1.44-0.279,1.394C2.229,70.948,2.229,70.483,2.229,70.02z"/>
<path fill-rule="evenodd" clip-rule="evenodd" fill="#717171" d="M4.738,70.576c0.093,0,0.186,0,0.278,0c0,0.559,0,1.115,0,1.673
	c-0.093,0-0.186,0-0.278,0C4.738,71.691,4.738,71.135,4.738,70.576z"/>
<path fill-rule="evenodd" clip-rule="evenodd" fill="#323232" d="M4.738,72.249c0.093,0,0.186,0,0.278,0
	c-0.16,0.49,0.337,1.637-0.278,1.672C4.738,73.363,4.738,72.806,4.738,72.249z"/>
<path fill-rule="evenodd" clip-rule="evenodd" fill="#323232" d="M2.229,72.806c0,0.465,0,0.93,0,1.394c-0.093,0-0.186,0-0.278,0
	C2.103,73.795,1.625,72.759,2.229,72.806z"/>
<path fill-rule="evenodd" clip-rule="evenodd" fill="#717171" d="M1.951,74.199c0.093,0,0.186,0,0.278,0c0,0.559,0,1.115,0,1.672
	c-0.093,0-0.186,0-0.278,0C1.951,75.314,1.951,74.758,1.951,74.199z"/>
<path fill-rule="evenodd" clip-rule="evenodd" fill="#D4D4D4" d="M4.738,75.036c0,0.465,0,0.929,0,1.394c-0.093,0-0.186,0-0.279,0
	C4.612,76.024,4.134,74.989,4.738,75.036z"/>
<path fill-rule="evenodd" clip-rule="evenodd" fill="#A4A4A4" d="M1.951,75.871c0.093,0,0.186,0,0.278,0c0,0.466,0,0.93,0,1.395
	c-0.093,0-0.186,0-0.278,0C1.951,76.801,1.951,76.337,1.951,75.871z"/>
<path fill-rule="evenodd" clip-rule="evenodd" fill="#A4A4A4" d="M4.459,76.43c0.093,0,0.186,0,0.279,0c0,0.465,0,0.928,0,1.393
	c-0.093,0-0.186,0-0.279,0C4.459,77.357,4.459,76.895,4.459,76.43z"/>
<path fill-rule="evenodd" clip-rule="evenodd" fill="#D4D4D4" d="M1.951,77.266c0.093,0,0.186,0,0.278,0
	c-0.152,0.405,0.326,1.44-0.278,1.394C1.951,78.194,1.951,77.73,1.951,77.266z"/>
<path fill-rule="evenodd" clip-rule="evenodd" fill="#717171" d="M4.459,77.822c0.093,0,0.186,0,0.279,0c0,0.559,0,1.115,0,1.673
	c-0.093,0-0.186,0-0.279,0C4.459,78.938,4.459,78.381,4.459,77.822z"/>
<path fill-rule="evenodd" clip-rule="evenodd" fill="#323232" d="M4.459,79.495c0.093,0,0.186,0,0.279,0
	c-0.152,0.405,0.326,1.44-0.279,1.394C4.459,80.424,4.459,79.96,4.459,79.495z"/>
<path fill-rule="evenodd" clip-rule="evenodd" fill="#323232" d="M1.951,79.774c0,0.557,0,1.114,0,1.673c-0.093,0-0.186,0-0.279,0
	C1.833,80.956,1.335,79.809,1.951,79.774z"/>
<path fill-rule="evenodd" clip-rule="evenodd" fill="#717171" d="M1.672,81.447c0.093,0,0.186,0,0.279,0c0,0.557,0,1.113,0,1.672
	c-0.093,0-0.186,0-0.279,0C1.672,82.561,1.672,82.004,1.672,81.447z"/>
<path fill-rule="evenodd" clip-rule="evenodd" fill="#D4D4D4" d="M4.459,82.282c0,0.558,0,1.115,0,1.673c-0.092,0-0.185,0-0.278,0
	C4.341,83.464,3.844,82.317,4.459,82.282z"/>
<path fill-rule="evenodd" clip-rule="evenodd" fill="#A4A4A4" d="M1.672,83.119c0.093,0,0.186,0,0.279,0c0,1.207,0,2.415,0,3.623
	c-0.093,0-0.186,0-0.279,0C1.672,85.534,1.672,84.326,1.672,83.119z"/>
<path fill-rule="evenodd" clip-rule="evenodd" fill="#A4A4A4" d="M4.181,83.955c0.093,0,0.186,0,0.278,0c0,0.65,0,1.3,0,1.95
	c-0.092,0-0.185,0-0.278,0C4.181,85.255,4.181,84.605,4.181,83.955z"/>
<path fill-rule="evenodd" clip-rule="evenodd" fill="#D4D4D4" d="M4.181,85.905c0.093,0,0.186,0,0.278,0c0,0.465,0,0.93,0,1.394
	C3.855,87.346,4.333,86.311,4.181,85.905z"/>
<path fill-rule="evenodd" clip-rule="evenodd" fill="#323232" d="M26.478,110.432c0-0.093,0-0.186,0-0.278c0.743,0,1.487,0,2.23,0
	c0,0.093,0,0.186,0,0.278C27.964,110.432,27.221,110.432,26.478,110.432z"/>
<path fill-rule="evenodd" clip-rule="evenodd" fill="#323232" d="M26.756,112.94c0.464,0,0.929,0,1.394,0
	C28.276,113.396,26.631,113.396,26.756,112.94z"/>
<path fill-rule="evenodd" clip-rule="evenodd" fill="#323232" d="M65.776,1.735c0.248-0.751,0.778,0.482,0.558,1.115
	C65.577,3.049,66.533,1.536,65.776,1.735z"/>
<path fill-rule="evenodd" clip-rule="evenodd" fill="#717171" d="M9.755,18.179c0.346-0.583,0.811-1.047,1.394-1.393
	C10.803,17.368,10.338,17.833,9.755,18.179z"/>
<path fill-rule="evenodd" clip-rule="evenodd" fill="#323232" d="M8.64,104.857c0.492,0.253,0.864,0.624,1.115,1.116
	C9.263,105.721,8.892,105.35,8.64,104.857z"/>
<path fill-rule="evenodd" clip-rule="evenodd" fill="#D4D4D4" d="M9.755,105.974c-0.251-0.492-0.623-0.863-1.115-1.116
	c-0.052-0.226-0.279-0.277-0.278-0.557c0.768,0.533,1.418,1.183,1.951,1.951C10.087,106.199,10.035,105.973,9.755,105.974z"/>
<path fill-rule="evenodd" clip-rule="evenodd" fill="#323232" d="M131.832,39.361c0.732,0.289,0.938,1.105,1.671,1.394
	C133.118,41.211,132.216,39.828,131.832,39.361z"/>
<path fill-rule="evenodd" clip-rule="evenodd" fill="#323232" d="M133.223,38.803c0.491,0.252,0.864,0.624,1.116,1.115
	C133.848,39.667,133.476,39.295,133.223,38.803z"/>
<path fill-rule="evenodd" clip-rule="evenodd" fill="#717171" d="M131.272,39.083c0.888-0.414,1.088-1.515,1.951-1.952
	c-0.612,0.585-0.612,1.087,0,1.672c0.253,0.492,0.625,0.863,1.116,1.115c-0.1,0.366-0.491,0.438-0.559,0.836
	c-0.093,0-0.185,0-0.278,0c-0.733-0.288-0.938-1.105-1.671-1.394C131.823,39.09,131.489,39.145,131.272,39.083z"/>
<path fill-rule="evenodd" clip-rule="evenodd" fill="#A4A4A4" d="M131.272,5.637c0.77,0.533,1.419,1.183,1.951,1.951
	C132.457,7.055,131.805,6.404,131.272,5.637z"/>
<path fill-rule="evenodd" clip-rule="evenodd" fill="#717171" d="M54.627,98.727c0.675-0.625,1.528-1.073,2.23-1.672
	c-1.36,1.129,0.752,1.739,0.836,3.064c-0.532,0.119-0.504,0.797-1.394,0.559C55.932,99.837,55.604,98.958,54.627,98.727z"/>
<path fill-rule="evenodd" clip-rule="evenodd" fill="#D4D4D4" d="M11.706,19.851c0.346-0.583,0.811-1.047,1.394-1.394
	C12.753,19.04,12.289,19.505,11.706,19.851z"/>
<path fill-rule="evenodd" clip-rule="evenodd" fill="#323232" d="M11.427,20.409c0.053-0.226,0.279-0.278,0.279-0.558
	c0.583-0.346,1.047-0.811,1.394-1.394c0.226-0.052,0.278-0.279,0.557-0.278C13.031,19.039,12.288,19.783,11.427,20.409z"/>
<path fill-rule="evenodd" clip-rule="evenodd" fill="#323232" d="M10.591,102.907c0.583,0.346,1.047,0.811,1.393,1.394
	C11.401,103.955,10.937,103.49,10.591,102.907z"/>
<path fill-rule="evenodd" clip-rule="evenodd" fill="#D4D4D4" d="M128.764,37.688c-0.084-0.643,0.806-0.31,0.837-0.836
	c0.093,0,0.187,0,0.278,0c0.099-0.366,0.491-0.438,0.558-0.836c0.092,0,0.187,0,0.278,0
	C130.26,36.769,129.625,37.342,128.764,37.688z"/>
<path fill-rule="evenodd" clip-rule="evenodd" fill="#717171" d="M129.601,7.588c0.583,0.346,1.048,0.81,1.393,1.393
	C130.411,8.635,129.946,8.171,129.601,7.588z"/>
<path fill-rule="evenodd" clip-rule="evenodd" fill="#323232" d="M129.323,34.623c0.647,0.188,0.745,0.926,1.393,1.115
	c0,0.093,0,0.186,0,0.279c-0.092,0-0.187,0-0.278,0C130.249,35.369,129.511,35.271,129.323,34.623z"/>
<path fill-rule="evenodd" clip-rule="evenodd" fill="#323232" d="M127.928,34.901c0.385,0.823,1.286,1.129,1.673,1.951
	C129.046,36.372,127.558,35.382,127.928,34.901z"/>
<path fill-rule="evenodd" clip-rule="evenodd" fill="#323232" d="M100.335,4.522c0.093,0,0.187,0,0.278,0
	c0.804,0.855,1.876,1.809,2.509,2.23c0.234,0.154,0.368,0.44,0.559,0.557c2.172,1.348,4.46-0.312,6.688-0.278
	c2.216,0.033,3.816,1.469,4.182,3.344c0.2,1.026-0.121,3.684-0.279,4.181c-0.218,0.694-0.909,1.288-1.392,1.951
	c-1.625,2.222-3.393,3.669-5.298,5.575c-2.127,2.127-4.507,5.446-7.246,6.968c-1.517,0.843-3.462,1.274-5.573,1.672
	c-4.277,0.805-8.665,1.295-12.822,1.951c-2.342,0.37-4.653,1.145-6.408,1.115c-2.067-0.035-3.192-1.417-4.46-2.229
	c-5.129,0.989-11.077,1.599-15.887,2.508c-0.602,0.114-1.843-0.161-1.952,0.836c1.411,1.172,3.602,1.872,5.017,2.509
	c1.31,0.588,2.563,1.195,3.624,1.672c1.309,0.588,2.562,1.195,3.623,1.672c2.698,1.213,5.738,2.896,8.083,3.902
	c0.332,0.143,0.692,0.081,1.113,0.279c2.519,1.182,4.813,2.768,7.246,3.344c2.919,0.693,5.397-0.591,6.411-1.951
	c0.647-0.866,1.012-1.848,1.395-2.787c0.557-1.371,0.733-2.953,1.393-4.181c0.164-0.306,0.557-0.42,0.837-0.836
	c1.036-1.547,1.916-2.218,3.344-3.066c0.623-0.369,0.99-0.57,1.673-0.836c1-0.39,1.939-0.585,2.787-0.836
	c1.835-0.544,6.168-1.197,7.246-2.229c0.589-0.564,2.228-2.026,2.509-2.508c0.48-0.824,0.496-1.902,0.835-2.787
	c0.13-0.336,0.407-0.722,0.559-1.115c1.07-2.778,2.381-5.089,3.901-6.968c0.612-0.756,1.172-1.386,1.673-1.951
	c2.258-2.549,5.28-6.534,10.033-5.017c2.029,0.647,3.63,3.125,3.902,5.017c0.164,1.13-0.206,1.901-0.278,3.065
	c-0.108,1.732-0.036,3.358-0.279,4.181c-0.542,1.839-2.57,3.685-4.181,5.296c-1.266,1.265-2.46,2.415-3.344,3.623
	c-0.533,0.727-1.082,1.69-1.395,2.229c-1.973,3.408-2.7,7.956-4.181,11.428c-0.19,0.445-0.952,0.808-0.557,1.393
	c-3.32,2.627-6.622,5.27-10.033,7.804c2.233-1.851,4.095-4.014,5.852-6.688c1.779-2.708,2.961-5.564,4.182-9.198
	c0.797-2.375,1.55-4.603,2.786-6.689c0.928-1.564,2.016-2.988,3.346-4.459c1.797-1.989,4.093-3.733,4.738-5.575
	c0.519-1.487,0.785-3.946,0.557-5.574c-0.362-2.596-1.887-4.14-4.738-3.066c-1.683,0.634-3.996,3.683-5.017,4.738
	c-0.612,0.633-0.989,1.221-1.672,1.951c-0.327,0.349-0.491,0.797-0.836,1.394c-0.587,1.011-1.599,3.16-2.229,4.738
	c-0.593,1.482-0.859,2.944-1.673,4.181c-0.846,1.287-2.06,2.339-3.344,3.066c-3.448,1.95-7.699,1.736-11.149,3.623
	c-1.252,0.685-2.079,1.478-3.067,2.508c-0.442,0.462-0.727,2.067-1.113,3.065c-0.213,0.549-0.609,1.065-0.836,1.673
	c-0.703,1.881-1.242,2.86-2.786,4.181c-0.846,0.721-1.479,1.308-2.511,1.672c-4.363,1.546-8.115-0.965-11.984-2.787
	c-1.48-0.698-3.031-1.293-4.459-1.951c-4.379-2.016-7.81-3.519-12.82-5.854c-1.131-0.527-2.77-1.19-4.181-1.951
	c-1.713-0.923-2.757-1.615-2.787-3.345c-0.022-1.327,0.436-1.925,1.114-2.508c0.781-0.67,1.278-0.525,2.509-0.836
	c3.082-0.779,7.742-1.396,11.427-1.951c2.18-0.329,4.573-0.835,6.131-0.558c1.615,0.288,2.667,1.8,4.182,1.951
	c0.743,0.074,1.809-0.392,2.787-0.557c5.2-0.88,11.77-1.551,17.279-2.788c3.181-0.713,4.644-1.997,6.689-4.181
	c1.288-1.375,2.565-2.845,3.624-3.902c2.6-2.602,6.568-4.922,5.295-9.476c-2.597-0.625-4.193,0.797-6.411,0.557
	c-2.945-0.318-4.792-3.276-7.524-4.459c-1.01-0.437-1.433-0.364-2.787-0.836c0.395,0.024,0.789,0.046,0.835-0.278
	c0.373,0,0.744,0,1.116,0c0.405-0.152,1.44,0.326,1.393-0.279c0.373,0,0.743,0,1.116,0C99.663,4.777,100.284,4.935,100.335,4.522z"
	/>
<path fill-rule="evenodd" clip-rule="evenodd" fill="#323232" d="M78.597,76.708c2.153-2.224,0.589-4.927-1.395-7.246
	c-1.951-2.284-4.011-4.241-7.246-2.23c-0.232,0.145-0.557,0.11-0.836,0.278c-0.395,0.24-0.723,0.825-1.114,1.116
	c-0.503,0.374-0.996,0.51-1.394,0.836c-1.701,1.393-3.169,3.04-5.295,3.901c-1.18,0.479-2.564,0.938-4.181,0.836
	c-1.855-0.115-4.268-1.058-5.295-3.345c-0.815-1.812-0.44-4.729-0.558-7.524c-0.085-2.031-0.456-3.827,0-5.296
	c0.295-0.95,0.612-1.156,1.394-1.951c1.251-1.271,3.777-3.71,5.853-3.902c1.059-0.098,3.849,0.567,5.574,0.836
	c1.92,0.299,3.856,0.577,5.575,0.836c3.982,0.6,7.967,1.066,10.592,1.951c0.144,0.049,0.452,0.526,0.557,0.558
	c0.236,0.071,0.615-0.107,0.835,0c0.215,0.104,0.589,0.678,0.838,0.836c0.421,0.269,0.768,0.32,1.113,0.557
	c1.671,1.143,3.913,3.301,6.133,3.902c2.703,0.732,6.259,0.385,8.917-0.558c-1.685,1.472-3.479,2.837-5.295,4.181
	c0.329-0.43,0.221-0.46-0.278-0.558c-1.186-0.234-3.34-0.07-5.295-0.836c-2.189-0.857-4.392-3.307-6.968-4.737
	c-0.373-0.208-0.726-0.081-1.116-0.28c-0.145-0.074-0.438-0.514-0.557-0.557c-1.48-0.547-3.364-0.529-5.295-0.836
	c-4.078-0.649-8.632-1.538-12.821-2.23c-0.883-0.146-2.085-0.354-2.509-0.278c-0.876,0.155-1.514,1.118-2.508,1.951
	c-0.855,0.717-1.838,0.882-2.23,2.231c-0.524,1.804,0.173,4.223,0.279,6.131c0.111,2.006-0.348,3.854,0.836,5.295
	c7.329,3.774,11.409-8.402,19.231-6.968c2.46,0.452,7.661,5.427,8.084,9.755c0.021,0.23,0.052,0.27,0.278,0.279
	C81.343,74.81,79.983,75.772,78.597,76.708z"/>
<path fill-rule="evenodd" clip-rule="evenodd" fill="#323232" d="M5.853,48.559c0.755,1.843,1.868,3.152,3.066,4.737
	c0.259,0.344,1.062,1.676,1.672,1.951c0.121,0.055,0.463-0.087,0.557,0c1.981,1.838,3.808,3.92,5.853,5.854
	c1.035,0.979,2.301,1.801,3.345,2.787c0.537,0.507,0.904,1.224,1.394,1.672c0.491,0.45,1.173,0.66,1.672,1.115
	c1.986,1.809,3.839,3.921,5.853,5.853c1.029,0.987,2.233,1.762,3.344,2.787c1.946,1.796,3.702,3.923,5.853,5.853
	c1.013,0.909,2.248,1.666,3.345,2.509c0.727,0.559,1.518,1.362,2.509,1.951c0.328,0.194,0.319,0.051,0.557,0.278
	c0.163,0.156,0.873,0.517,1.393,0.837c0.559,0.342,1.056,0.484,1.952,0.836c0.283,0.111,0.632,0.473,0.836,0.557
	c2.843,1.178,6.564,2.11,9.755,1.952c1.578-0.079,2.728-0.695,4.181-1.394c-1.528,1.631-3.385,2.931-5.295,4.18
	c-0.002-0.018,0.002-0.278,0-0.278c-4.234-0.107-8.107-1.085-11.428-2.787c-0.553-0.284-1.033-0.741-1.672-1.114
	c-0.585-0.343-1.382-0.478-1.951-0.837c-0.108-0.067-0.186-0.516-0.279-0.558c-0.143-0.064-0.429,0.086-0.558,0
	c-0.103-0.069-0.188-0.517-0.279-0.557c-1.166-0.526-2.458-1.822-3.623-2.787c-0.52-0.431-1.192-0.678-1.672-1.115
	c-1.739-1.583-3.632-3.805-5.574-5.574c-0.53-0.482-1.162-0.65-1.672-1.115c-1.009-0.919-1.784-2.14-2.787-3.065
	c-0.976-0.899-2.113-1.592-3.066-2.509c-1.908-1.833-3.664-3.825-5.574-5.574c-0.515-0.47-1.121-0.627-1.672-1.114
	c-1.304-1.15-2.728-2.831-4.181-4.181c-1.951-1.813-4.086-3.37-5.575-5.575c0.827-0.196,2.626,0.583,2.23-0.836
	c0.04-1.153-1.939-0.29-2.787-0.557c0-0.465,0-0.929,0-1.394c0-0.836,0-1.672,0-2.508C5.812,48.888,5.837,48.729,5.853,48.559z"/>
<path fill-rule="evenodd" clip-rule="evenodd" fill="#717171" d="M53.233,96.496c-0.311-0.94-2.41-1.965-1.114-2.786
	c1.257-0.837,1.384,1.484,2.508,1.672C54.178,95.769,53.745,96.172,53.233,96.496z"/>
<path fill-rule="evenodd" clip-rule="evenodd" fill="#717171" d="M112.598,0.62c0.036-0.616,1.185-0.118,1.673-0.279
	C114.237,0.957,113.089,0.459,112.598,0.62z"/>
<path fill-rule="evenodd" clip-rule="evenodd" fill="#717171" d="M119.009,0.341c0.405,0.153,1.44-0.325,1.395,0.279
	C120,0.468,118.963,0.945,119.009,0.341z"/>
<path fill-rule="evenodd" clip-rule="evenodd" fill="#717171" d="M110.09,0.899c0.036-0.616,1.184-0.119,1.673-0.279
	C111.729,1.235,110.582,0.739,110.09,0.899z"/>
<path fill-rule="evenodd" clip-rule="evenodd" fill="#717171" d="M107.582,1.177c0.036-0.615,1.183-0.118,1.673-0.278
	C109.221,1.515,108.073,1.017,107.582,1.177z"/>
<path fill-rule="evenodd" clip-rule="evenodd" fill="#717171" d="M105.074,1.456c0.036-0.616,1.182-0.118,1.673-0.279
	C106.712,1.793,105.565,1.295,105.074,1.456z"/>
<path fill-rule="evenodd" clip-rule="evenodd" fill="#717171" d="M102.566,1.735c0.035-0.616,1.182-0.118,1.673-0.279
	C104.205,2.071,103.056,1.575,102.566,1.735z"/>
<path fill-rule="evenodd" clip-rule="evenodd" fill="#717171" d="M100.057,2.014c0.036-0.615,1.182-0.119,1.673-0.279
	C101.694,2.351,100.548,1.853,100.057,2.014z"/>
<path fill-rule="evenodd" clip-rule="evenodd" fill="#717171" d="M97.828,2.292c-0.046-0.604,0.989-0.126,1.395-0.279
	C99.268,2.618,98.232,2.14,97.828,2.292z"/>
<path fill-rule="evenodd" clip-rule="evenodd" fill="#717171" d="M90.024,3.128c0.034-0.616,1.183-0.118,1.673-0.279
	C91.661,3.465,90.513,2.968,90.024,3.128z"/>
<path fill-rule="evenodd" clip-rule="evenodd" fill="#717171" d="M117.895,2.85c0.405,0.152,1.441-0.325,1.393,0.279
	c-0.465,0-0.928,0-1.393,0C117.895,3.036,117.895,2.942,117.895,2.85z"/>
<path fill-rule="evenodd" clip-rule="evenodd" fill="#717171" d="M111.485,3.407c0.034-0.616,1.182-0.119,1.673-0.279
	C113.122,3.744,111.973,3.247,111.485,3.407z"/>
<path fill-rule="evenodd" clip-rule="evenodd" fill="#717171" d="M108.976,3.686c0.034-0.615,1.183-0.118,1.673-0.278
	C110.613,4.023,109.465,3.525,108.976,3.686z"/>
<path fill-rule="evenodd" clip-rule="evenodd" fill="#717171" d="M82.778,3.965c0.034-0.616,1.182-0.119,1.673-0.279
	C84.415,4.301,83.267,3.804,82.778,3.965z"/>
<path fill-rule="evenodd" clip-rule="evenodd" fill="#717171" d="M80.27,4.243c0.033-0.616,1.182-0.118,1.67-0.278
	C81.907,4.58,80.758,4.083,80.27,4.243z"/>
<path fill-rule="evenodd" clip-rule="evenodd" fill="#717171" d="M77.761,4.522c0.034-0.615,1.182-0.119,1.671-0.279
	C79.398,4.859,78.25,4.362,77.761,4.522z"/>
<path fill-rule="evenodd" clip-rule="evenodd" fill="#717171" d="M75.253,4.801c0.033-0.616,1.182-0.119,1.671-0.279
	C76.89,5.138,75.742,4.64,75.253,4.801z"/>
<path fill-rule="evenodd" clip-rule="evenodd" fill="#A4A4A4" d="M99.222,4.801c0.086-0.378,0.697-0.231,1.113-0.279
	C100.284,4.935,99.663,4.777,99.222,4.801z"/>
<path fill-rule="evenodd" clip-rule="evenodd" fill="#717171" d="M72.743,5.08c0.036-0.616,1.185-0.119,1.673-0.279
	C74.381,5.416,73.234,4.919,72.743,5.08z"/>
<path fill-rule="evenodd" clip-rule="evenodd" fill="#A4A4A4" d="M96.713,5.08c-0.048-0.604,0.988-0.126,1.393-0.279
	C98.154,5.405,97.119,4.927,96.713,5.08z"/>
<path fill-rule="evenodd" clip-rule="evenodd" fill="#717171" d="M94.484,5.358c0.086-0.378,0.697-0.231,1.113-0.278
	c-0.046,0.325-0.44,0.302-0.835,0.278C94.67,5.358,94.576,5.358,94.484,5.358z"/>
<path fill-rule="evenodd" clip-rule="evenodd" fill="#717171" d="M91.697,5.637c0.034-0.616,1.183-0.119,1.671-0.279
	C93.333,5.974,92.186,5.476,91.697,5.637z"/>
<path fill-rule="evenodd" clip-rule="evenodd" fill="#717171" d="M89.189,5.916c0.034-0.616,1.182-0.118,1.671-0.278
	C90.826,6.252,89.677,5.755,89.189,5.916z"/>
<path fill-rule="evenodd" clip-rule="evenodd" fill="#717171" d="M60.48,6.473c0.035-0.616,1.183-0.119,1.672-0.279
	C62.118,6.81,60.97,6.313,60.48,6.473z"/>
<path fill-rule="evenodd" clip-rule="evenodd" fill="#717171" d="M81.94,6.752c0.036-0.616,1.185-0.119,1.673-0.279
	C83.58,7.088,82.431,6.591,81.94,6.752z"/>
<path fill-rule="evenodd" clip-rule="evenodd" fill="#717171" d="M55.742,7.03c0.035-0.615,1.182-0.118,1.672-0.278
	C57.38,7.367,56.232,6.87,55.742,7.03z"/>
<path fill-rule="evenodd" clip-rule="evenodd" fill="#717171" d="M79.432,7.03c0.036-0.615,1.184-0.118,1.673-0.278
	C81.071,7.367,79.923,6.87,79.432,7.03z"/>
<path fill-rule="evenodd" clip-rule="evenodd" fill="#717171" d="M76.924,7.309c0.035-0.615,1.182-0.118,1.673-0.278
	C78.563,7.646,77.415,7.148,76.924,7.309z"/>
<path fill-rule="evenodd" clip-rule="evenodd" fill="#717171" d="M51.004,7.588c0.035-0.616,1.182-0.119,1.672-0.279
	C52.642,7.924,51.494,7.428,51.004,7.588z"/>
<path fill-rule="evenodd" clip-rule="evenodd" fill="#717171" d="M74.416,7.588c0.034-0.616,1.182-0.119,1.673-0.279
	C76.054,7.924,74.907,7.428,74.416,7.588z"/>
<path fill-rule="evenodd" clip-rule="evenodd" fill="#717171" d="M71.908,7.866c0.034-0.615,1.182-0.118,1.673-0.278
	C73.544,8.203,72.398,7.706,71.908,7.866z"/>
<path fill-rule="evenodd" clip-rule="evenodd" fill="#717171" d="M46.266,8.145c0.035-0.615,1.183-0.118,1.672-0.279
	C47.904,8.482,46.756,7.985,46.266,8.145z"/>
<path fill-rule="evenodd" clip-rule="evenodd" fill="#717171" d="M67.17,8.424c0.034-0.616,1.182-0.118,1.672-0.279
	C68.807,8.761,67.659,8.264,67.17,8.424z"/>
<path fill-rule="evenodd" clip-rule="evenodd" fill="#717171" d="M41.528,8.703c0.035-0.616,1.183-0.119,1.672-0.279
	C43.166,9.039,42.018,8.542,41.528,8.703z"/>
<path fill-rule="evenodd" clip-rule="evenodd" fill="#717171" d="M62.153,8.981c0.035-0.615,1.183-0.118,1.672-0.278
	C63.79,9.318,62.643,8.821,62.153,8.981z"/>
<path fill-rule="evenodd" clip-rule="evenodd" fill="#717171" d="M36.79,9.26c0.035-0.616,1.182-0.118,1.672-0.279
	C38.427,9.597,37.279,9.1,36.79,9.26z"/>
<path fill-rule="evenodd" clip-rule="evenodd" fill="#717171" d="M57.415,9.539c0.035-0.616,1.183-0.118,1.672-0.278
	C59.052,9.875,57.905,9.378,57.415,9.539z"/>
<path fill-rule="evenodd" clip-rule="evenodd" fill="#717171" d="M32.052,9.817c0.035-0.615,1.182-0.119,1.672-0.279
	C33.689,10.154,32.542,9.657,32.052,9.817z"/>
<path fill-rule="evenodd" clip-rule="evenodd" fill="#717171" d="M54.906,9.817c0.034-0.615,1.182-0.119,1.672-0.279
	C56.544,10.154,55.396,9.657,54.906,9.817z"/>
<path fill-rule="evenodd" clip-rule="evenodd" fill="#717171" d="M50.168,10.375c0.035-0.615,1.183-0.118,1.673-0.278
	C51.806,10.711,50.658,10.215,50.168,10.375z"/>
<path fill-rule="evenodd" clip-rule="evenodd" fill="#717171" d="M25.084,10.653c0.034-0.615,1.182-0.118,1.672-0.279
	C26.722,10.991,25.574,10.493,25.084,10.653z"/>
<path fill-rule="evenodd" clip-rule="evenodd" fill="#717171" d="M45.43,10.933c0.035-0.616,1.183-0.119,1.672-0.279
	C47.068,11.269,45.92,10.772,45.43,10.933z"/>
<path fill-rule="evenodd" clip-rule="evenodd" fill="#717171" d="M43.2,11.211c0.035-0.616,1.183-0.118,1.672-0.278
	C44.838,11.548,43.69,11.051,43.2,11.211z"/>
<path fill-rule="evenodd" clip-rule="evenodd" fill="#717171" d="M40.692,11.489c0.035-0.615,1.183-0.118,1.672-0.278
	C42.329,11.827,41.182,11.329,40.692,11.489z"/>
<path fill-rule="evenodd" clip-rule="evenodd" fill="#717171" d="M35.954,12.047c0.035-0.616,1.183-0.119,1.672-0.279
	C37.591,12.384,36.443,11.887,35.954,12.047z"/>
<path fill-rule="evenodd" clip-rule="evenodd" fill="#717171" d="M33.724,12.326c0.035-0.615,1.182-0.118,1.672-0.278
	C35.362,12.663,34.214,12.166,33.724,12.326z"/>
<path fill-rule="evenodd" clip-rule="evenodd" fill="#717171" d="M28.986,12.883c0.035-0.616,1.183-0.118,1.672-0.279
	C30.624,13.22,29.476,12.723,28.986,12.883z"/>
<path fill-rule="evenodd" clip-rule="evenodd" fill="#717171" d="M26.756,13.162c0.035-0.615,1.182-0.119,1.672-0.279
	C28.394,13.499,27.246,13.001,26.756,13.162z"/>
<path fill-rule="evenodd" clip-rule="evenodd" fill="#D4D4D4" d="M136.01,20.965c0.463,0.391,0.463,2.676,0,3.066
	C136.01,23.01,136.01,21.988,136.01,20.965z"/>
<path fill-rule="evenodd" clip-rule="evenodd" fill="#717171" d="M138.799,23.474c-0.16,0.49,0.336,1.638-0.281,1.672
	c0-0.557,0-1.115,0-1.672C138.613,23.474,138.705,23.474,138.799,23.474z"/>
<path fill-rule="evenodd" clip-rule="evenodd" fill="#717171" d="M3.624,32.114c-0.161,0.49,0.336,1.638-0.279,1.672
	C3.505,33.297,3.008,32.149,3.624,32.114z"/>
<path fill-rule="evenodd" clip-rule="evenodd" fill="#D4D4D4" d="M5.574,52.739c0,0.464,0,0.929,0,1.393c0,0.186,0,0.372,0,0.558
	c-0.093,0-0.186,0-0.279,0c0.178-1.03-0.361-2.776,0.279-3.344C5.574,51.81,5.574,52.274,5.574,52.739z"/>
<path fill-rule="evenodd" clip-rule="evenodd" fill="#717171" d="M5.574,54.132c0-0.464,0-0.929,0-1.393
	c0.848,0.267,2.827-0.597,2.787,0.557c0.396,1.419-1.403,0.641-2.23,0.836C5.946,54.132,5.76,54.132,5.574,54.132z"/>
<path fill-rule="evenodd" clip-rule="evenodd" fill="#717171" d="M1.951,86.742c0,0.649,0,1.3,0,1.951
	c-0.623-0.12-0.113-1.375-0.279-1.951C1.765,86.742,1.858,86.742,1.951,86.742z"/>
<path fill-rule="evenodd" clip-rule="evenodd" fill="#717171" d="M28.708,110.153c0.464,0,0.929,0,1.393,0
	c0.047,0.605-0.988,0.127-1.393,0.278C28.708,110.339,28.708,110.246,28.708,110.153z"/>
<path fill-rule="evenodd" clip-rule="evenodd" fill="#717171" d="M29.822,112.94c-0.047-0.604,0.988-0.126,1.394-0.278
	C31.263,113.267,30.228,112.788,29.822,112.94z"/>
<path fill-rule="evenodd" clip-rule="evenodd" fill="#FFFFFF" d="M114.271,0.341c0.558,0,1.116,0,1.673,0c0.465,0,0.93,0,1.393,0
	c0.559,0,1.116,0,1.673,0c-0.046,0.604,0.99,0.127,1.395,0.279c4.838,0.456,8.188,2.402,10.868,5.017
	c0.533,0.767,1.185,1.417,1.951,1.951c2.791,3.062,4.826,6.88,5.295,12.263c0,1.208,0,2.416,0,3.623c0,0.558,0,1.115,0,1.672
	c-0.348,5.411-2.516,9.002-5.295,11.984c-0.863,0.437-1.063,1.538-1.951,1.952c-24.664,19.463-49.466,38.793-74.415,57.972
	c-0.702,0.599-1.555,1.047-2.23,1.672c-0.36,0.721-0.987,0.938-1.672,1.393c-0.669,0.445-1.678,1.582-2.508,2.23
	c-0.245,0.191-0.619,0.076-0.836,0.278c-0.122,0.114-0.153,0.462-0.279,0.558c-0.251,0.191-0.617,0.074-0.836,0.278
	c-0.123,0.115-0.152,0.46-0.278,0.559c-0.217,0.166-0.593,0.096-0.836,0.278c-0.322,0.241-0.817,0.95-1.394,1.394
	c-4.033,3.098-8.213,6.222-14.771,6.968c-0.405,0.152-1.44-0.326-1.394,0.278c-0.558,0-1.115,0-1.672,0c-0.464,0-0.929,0-1.394,0
	c-7.51-0.2-12.555-2.868-16.444-6.688c-0.533-0.769-1.183-1.418-1.951-1.951c-0.877-0.397-1.293-1.352-1.951-2.229
	c-0.978-1.307-2.017-3.533-2.787-5.575c-0.913-2.418-1.725-4.338-1.672-7.803c0-0.651,0-1.302,0-1.951c0-1.208,0-2.416,0-3.623
	c0-0.559,0-1.115,0-1.672c0-0.559,0-1.116,0-1.673c0-0.372,0-0.744,0-1.115c0.604,0.047,0.126-0.988,0.278-1.394
	c0-0.465,0-0.929,0-1.395c0-0.557,0-1.113,0-1.672c0-0.464,0-0.929,0-1.394c0-0.464,0-0.928,0-1.393
	c0.604,0.047,0.126-0.989,0.279-1.394c0-0.372,0-0.743,0-1.115c0-0.558,0-1.114,0-1.673c0-0.557,0-1.113,0-1.672
	c0-0.465,0-0.929,0-1.394c0.604,0.048,0.126-0.988,0.279-1.394c0-0.464,0-0.929,0-1.394c0-0.558,0-1.115,0-1.672
	c0-0.743,0-1.486,0-2.23c0-0.558,0-1.115,0-1.672c0.64-0.66,0.1-2.501,0.278-3.623c0-0.651,0-1.301,0-1.951c0-0.836,0-1.672,0-2.508
	c0-0.836,0-1.672,0-2.508c0.623-0.12,0.113-1.374,0.278-1.952c0-0.743,0-1.486,0-2.229c0-0.929,0-1.858,0-2.787
	c0-0.836,0-1.672,0-2.508c0-0.65,0-1.301,0-1.951c0.616-0.035,0.119-1.182,0.279-1.672c0.558-6.131,2.96-10.418,6.131-13.936
	c0.583-0.346,1.048-0.811,1.394-1.393c3.428-3.261,7.669-5.709,13.936-6.132c0.49-0.16,1.637,0.337,1.672-0.279
	c1.737-0.213,3.293-0.608,5.296-0.557c0.489-0.16,1.637,0.337,1.672-0.279c0.978-0.137,1.814-0.415,3.066-0.278
	c0.489-0.16,1.637,0.336,1.672-0.279c0.978-0.137,1.814-0.415,3.066-0.278c0.49-0.16,1.638,0.336,1.672-0.279
	c0.978-0.137,1.814-0.416,3.065-0.279c0.491-0.16,1.639,0.337,1.672-0.279c0.978-0.137,1.815-0.415,3.066-0.278
	c0.49-0.16,1.637,0.336,1.672-0.279c0.781-0.333,1.923-0.306,3.065-0.278c0.49-0.16,1.638,0.336,1.672-0.278
	c0.978-0.138,1.814-0.416,3.066-0.279c0.49-0.161,1.637,0.337,1.672-0.279c0.897,0.061,1.18-0.493,2.229-0.279
	c0.464,0,0.929,0,1.394,0c0.405-0.152,1.44,0.326,1.394-0.278C68.985,5.409,70.62,5,72.743,5.08c0.491-0.16,1.639,0.336,1.673-0.279
	c0.278,0,0.557,0,0.838,0c0.488-0.161,1.637,0.337,1.671-0.279c0.278,0,0.557,0,0.837,0c0.489-0.16,1.637,0.337,1.671-0.279
	c0.278,0,0.559,0,0.838,0c0.488-0.16,1.637,0.337,1.67-0.278c0.281,0,0.56,0,0.838,0c0.489-0.161,1.637,0.336,1.673-0.279
	c1.815-0.227,3.45-0.637,5.573-0.557c0.489-0.161,1.637,0.337,1.673-0.279c1.968-0.261,3.895-0.565,6.131-0.557
	c0.404-0.153,1.44,0.325,1.395-0.279c0.278,0,0.557,0,0.835,0c0.491-0.161,1.637,0.337,1.673-0.279c0.278,0,0.557,0,0.836,0
	c0.49-0.16,1.639,0.336,1.673-0.279c0.278,0,0.557,0,0.835,0c0.491-0.161,1.639,0.337,1.673-0.279c0.278,0,0.557,0,0.835,0
	c0.491-0.16,1.64,0.337,1.673-0.278c0.279,0,0.558,0,0.836,0c0.491-0.16,1.639,0.336,1.673-0.279c0.278,0,0.557,0,0.835,0
	C113.089,0.459,114.237,0.957,114.271,0.341z M113.993,3.128c-0.278,0-0.557,0-0.835,0c-0.491,0.16-1.639-0.337-1.673,0.279
	c-0.278,0-0.558,0-0.836,0c-0.49,0.16-1.639-0.337-1.673,0.278c-2.738,0.328-5.341,0.792-8.362,0.836c-0.092,0-0.186,0-0.278,0
	c-0.416,0.048-1.027-0.1-1.113,0.279c-0.373,0-0.743,0-1.116,0c-0.404,0.152-1.44-0.326-1.393,0.279c-0.372,0-0.743,0-1.116,0
	c-0.416,0.047-1.027-0.1-1.113,0.278c-0.373,0-0.743,0-1.116,0c-0.488,0.16-1.637-0.336-1.671,0.279c-0.28,0-0.559,0-0.837,0
	c-0.489,0.16-1.637-0.337-1.671,0.278c-1.817,0.228-3.452,0.637-5.576,0.558c-0.488,0.16-1.637-0.337-1.673,0.279
	c-0.278,0-0.557,0-0.835,0c-0.489,0.16-1.637-0.337-1.673,0.278c-0.278,0-0.557,0-0.835,0c-0.491,0.16-1.638-0.337-1.673,0.278
	c-0.279,0-0.558,0-0.836,0c-0.491,0.161-1.639-0.336-1.673,0.279c-0.278,0-0.557,0-0.835,0c-0.491,0.16-1.639-0.336-1.673,0.278
	c-0.978,0.138-1.814,0.416-3.066,0.279c-0.49,0.161-1.638-0.337-1.672,0.279c-0.093,0-0.187,0-0.279,0
	c-0.958-0.122-1.562,0.11-2.229,0.279c-0.279,0-0.558,0-0.836,0c-0.489,0.16-1.637-0.337-1.672,0.278
	c-0.978,0.138-1.814,0.416-3.066,0.279c-0.489,0.16-1.637-0.337-1.672,0.278c-0.279,0-0.557,0-0.836,0
	c-0.49,0.16-1.638-0.336-1.672,0.279c-0.781,0.334-1.923,0.307-3.065,0.279c-0.49,0.161-1.638-0.337-1.673,0.278
	c-0.781,0.334-1.923,0.307-3.066,0.279c-0.49,0.161-1.638-0.336-1.672,0.279c-0.186,0-0.372,0-0.557,0
	c-0.49,0.16-1.637-0.337-1.672,0.278c-0.279,0-0.557,0-0.836,0c-0.49,0.16-1.637-0.336-1.672,0.278
	c-0.781,0.334-1.923,0.307-3.066,0.279c-0.49,0.16-1.637-0.337-1.672,0.279c-0.185,0-0.372,0-0.557,0
	c-0.49,0.16-1.638-0.337-1.672,0.278c-0.978,0.137-1.814,0.416-3.066,0.279c-0.49,0.161-1.637-0.337-1.672,0.279
	c-0.186,0-0.372,0-0.558,0c-0.49,0.16-1.637-0.336-1.672,0.279c-5.605,0.434-9.705,2.372-13.1,5.017
	c-0.279-0.001-0.332,0.226-0.557,0.278c-0.583,0.347-1.047,0.811-1.394,1.394c0,0.28-0.226,0.332-0.279,0.558
	c-2.765,3.46-4.671,7.778-5.296,13.378c-0.623,0.12-0.112,1.374-0.278,1.951c0,0.929,0,1.858,0,2.787c0,0.558,0,1.115,0,1.672
	c-0.636,0.387-0.104,1.94-0.279,2.787c0,0.651,0,1.301,0,1.951c0,1.3,0,2.602,0,3.902c0,0.836,0,1.672,0,2.508
	c-0.64,0.568-0.101,2.314-0.279,3.344c0,0.836,0,1.672,0,2.509c0,0.65,0,1.3,0,1.952c0,0.37,0,0.743,0,1.113
	c-0.615,0.035-0.119,1.184-0.279,1.673c0,0.465,0,0.929,0,1.394c0,0.558,0,1.115,0,1.672c0,0.558,0,1.116,0,1.673
	c0,0.465,0,0.929,0,1.394c-0.413,0.052-0.255,0.674-0.278,1.114c0,0.465,0,0.929,0,1.394c0,0.559,0,1.115,0,1.673
	c0,0.557,0,1.114,0,1.672c0,0.372,0,0.743,0,1.115c-0.604-0.047-0.126,0.988-0.279,1.394c0,0.465,0,0.928,0,1.393
	c0,0.559,0,1.115,0,1.673c0,0.465,0,0.929,0,1.394s0,0.929,0,1.394c-0.615,0.035-0.118,1.182-0.278,1.673c0,0.65,0,1.3,0,1.95
	c0.152,0.405-0.326,1.44,0.278,1.394c0.518,6.729,2.712,11.781,6.132,15.608c0.346,0.583,0.81,1.048,1.393,1.394
	c3.504,2.813,7.445,5.189,13.1,5.853c-0.047,0.605,0.988,0.127,1.393,0.278c0.743,0,1.487,0,2.23,0
	c0.405-0.151,1.44,0.327,1.393-0.278c10.663-1.601,15.679-8.848,23.133-13.657c0.512-0.324,0.944-0.728,1.394-1.114
	c0.95-0.909,2.082-1.634,3.066-2.509c1.91-1.249,3.768-2.549,5.295-4.18c5.313-3.886,10.347-8.048,15.608-11.985
	c1.386-0.936,2.746-1.898,3.902-3.065c3.656-2.754,7.154-5.666,10.868-8.361c1.815-1.344,3.61-2.709,5.295-4.181
	c2.414-2.047,4.961-3.959,7.527-5.854c3.411-2.534,6.713-5.176,10.033-7.804c4.108-3.323,8.288-6.576,12.541-9.755
	c0.861-0.346,1.496-0.92,1.951-1.672c0-0.093,0-0.186,0-0.279c2.963-2.705,4.622-6.713,5.295-11.706c0.463-0.39,0.463-2.675,0-3.066
	c-0.615-5.051-2.502-8.831-5.017-11.984c-0.345-0.583-0.81-1.047-1.393-1.393c-2.801-2.124-5.928-3.92-10.313-4.459
	c0.049-0.604-0.987-0.126-1.393-0.279c-0.743,0-1.486,0-2.229,0C115.175,3.01,114.027,2.513,113.993,3.128z"/>
<path fill-rule="evenodd" clip-rule="evenodd" fill="#D4D4D4" d="M3.066,52.182c-0.179,1.122,0.362,2.963-0.278,3.623
	c0-0.558,0-1.115,0-1.672c0-0.557,0-1.115,0-1.672c0-0.093,0-0.186,0-0.278C2.88,52.182,2.973,52.182,3.066,52.182z"/>
<path fill-rule="evenodd" clip-rule="evenodd" fill="#717171" d="M113.993,3.128c0.034-0.616,1.183-0.118,1.673-0.279
	c0,0.093,0,0.186,0,0.279C115.109,3.128,114.55,3.128,113.993,3.128z"/>
<path fill-rule="evenodd" clip-rule="evenodd" fill="#717171" d="M64.661,8.703c0.667-0.169,1.271-0.4,2.229-0.279
	c0,0.186,0,0.372,0,0.557c0.023,0.442-0.134,1.063,0.279,1.115c0,0.465,0,0.929,0,1.393c0,0.372,0,0.744,0,1.115
	c-1.209,0.042-2.311,0.827-1.952-1.115c-0.023-0.441,0.134-1.063-0.278-1.115C64.977,9.688,64.982,9.032,64.661,8.703z"/>
<path fill-rule="evenodd" clip-rule="evenodd" fill="#A4A4A4" d="M138.518,19.851c0.642,0.66,0.101,2.501,0.281,3.623
	c-0.095,0-0.187,0-0.281,0C138.518,22.267,138.518,21.059,138.518,19.851z"/>
<path fill-rule="evenodd" clip-rule="evenodd" fill="#717171" d="M6.131,33.787c0,0.65,0,1.301,0,1.951c-0.092,0-0.186,0-0.278,0
	C6.019,35.16,5.508,33.907,6.131,33.787z"/>
<path fill-rule="evenodd" clip-rule="evenodd" fill="#717171" d="M25.084,110.153c0.464,0,0.928,0,1.393,0c0,0.093,0,0.186,0,0.278
	C26.072,110.28,25.037,110.759,25.084,110.153z"/>
<path fill-rule="evenodd" clip-rule="evenodd" fill="#717171" d="M64.104,2.85c0-0.372,0-0.743,0-1.115c0.558,0,1.115,0,1.672,0
	c0.757-0.199-0.199,1.314,0.558,1.115c0,0.372,0,0.743,0,1.115c0.152,0.404-0.326,1.44,0.278,1.393c0,0.093,0,0.186,0,0.279
	c-0.395-0.024-0.789-0.046-0.836,0.278c-0.465,0-0.929,0-1.394,0c0-0.65,0-1.301,0-1.951C64.359,3.523,64.516,2.901,64.104,2.85z"/>
<path fill-rule="evenodd" clip-rule="evenodd" fill="#717171" d="M2.788,54.132C1.844,54.054,1.187,53.689,0,53.854
	c0-0.464,0-0.929,0-1.394c0.929,0,1.858,0,2.788,0C2.788,53.018,2.788,53.576,2.788,54.132z"/>
</svg>
