<?xml version="1.0" encoding="utf-8"?>
<!-- Generator: Adobe Illustrator 15.0.0, SVG Export Plug-In  -->
<!DOCTYPE svg PUBLIC "-//W3C//DTD SVG 1.1//EN" "http://www.w3.org/Graphics/SVG/1.1/DTD/svg11.dtd" [
	<!ENTITY ns_flows "http://ns.adobe.com/Flows/1.0/">
]>
<svg version="1.1"
	 xmlns="http://www.w3.org/2000/svg" xmlns:xlink="http://www.w3.org/1999/xlink" xmlns:a="http://ns.adobe.com/AdobeSVGViewerExtensions/3.0/"
	 x="0px" y="0px" width="142px" height="142px" viewBox="-4.121 -15.949 142 142" enable-background="new -4.121 -15.949 142 142"
	 xml:space="preserve">
<defs>
</defs>
<path fill-rule="evenodd" clip-rule="evenodd" fill="#333333" d="M60.261,0.339c-0.199-0.452,1.315-0.452,1.115,0
	C61.004,0.339,60.633,0.339,60.261,0.339z"/>
<path fill-rule="evenodd" clip-rule="evenodd" fill="#333333" d="M61.376,0.618c0.413,0.051,0.256,0.673,0.279,1.115
	C61.243,1.681,61.4,1.059,61.376,0.618z"/>
<path fill-rule="evenodd" clip-rule="evenodd" fill="#333333" d="M89.527,1.175c0.21-0.46,2.296-0.46,2.508,0
	C91.2,1.175,90.362,1.175,89.527,1.175z"/>
<path fill-rule="evenodd" clip-rule="evenodd" fill="#333333" d="M59.425,2.011c0.413,0.052,0.255,0.674,0.279,1.115
	C59.292,3.074,59.448,2.452,59.425,2.011z"/>
<path fill-rule="evenodd" clip-rule="evenodd" fill="#333333" d="M61.655,3.126c0.413,0.052,0.255,0.673,0.279,1.115
	c-0.093,0-0.186,0-0.279,0C61.655,3.869,61.655,3.498,61.655,3.126z"/>
<path fill-rule="evenodd" clip-rule="evenodd" fill="#333333" d="M89.805,3.962c0-0.093,0-0.186,0-0.279
	c0.667,0.17,2.021-0.35,2.229,0.279C91.292,3.962,90.548,3.962,89.805,3.962z"/>
<path fill-rule="evenodd" clip-rule="evenodd" fill="#333333" d="M106.249,5.634c0.038-0.458,1.914-0.458,1.952,0
	C107.549,5.634,106.9,5.634,106.249,5.634z"/>
<path fill-rule="evenodd" clip-rule="evenodd" fill="#333333" d="M62.212,7.864c0.605-0.047,0.126,0.989,0.279,1.394
	C61.887,9.305,62.365,8.269,62.212,7.864z"/>
<path fill-rule="evenodd" clip-rule="evenodd" fill="#333333" d="M106.528,8.421c-0.125-0.456,1.519-0.456,1.394,0
	C107.457,8.421,106.993,8.421,106.528,8.421z"/>
<path fill-rule="evenodd" clip-rule="evenodd" fill="#D3D3D3" d="M108.757,8.979c0.455-0.125,0.455,1.519,0,1.394
	C108.757,9.908,108.757,9.443,108.757,8.979z"/>
<path fill-rule="evenodd" clip-rule="evenodd" fill="#333333" d="M60.261,9.258c0.413,0.051,0.255,0.673,0.279,1.115
	C60.127,10.32,60.285,9.699,60.261,9.258z"/>
<path fill-rule="evenodd" clip-rule="evenodd" fill="#D3D3D3" d="M124.644,14.832c0.455-0.125,0.455,1.519,0,1.394
	C124.644,15.761,124.644,15.296,124.644,14.832z"/>
<path fill-rule="evenodd" clip-rule="evenodd" fill="#6F6F6F" d="M127.153,15.947c0.092,0,0.186,0,0.278,0c0,0.464,0,0.929,0,1.394
	c-0.093,0-0.187,0-0.278,0C127.153,16.875,127.153,16.411,127.153,15.947z"/>
<path fill-rule="evenodd" clip-rule="evenodd" fill="#333333" d="M124.644,17.34c0,0.464,0,0.929,0,1.394c-0.092,0-0.187,0-0.278,0
	C124.518,18.329,124.04,17.293,124.644,17.34z"/>
<path fill-rule="evenodd" clip-rule="evenodd" fill="#333333" d="M127.153,17.34c0.092,0,0.186,0,0.278,0
	c-0.16,0.489,0.336,1.637-0.278,1.672C127.153,18.455,127.153,17.897,127.153,17.34z"/>
<path fill-rule="evenodd" clip-rule="evenodd" fill="#333333" d="M67.229,27.374c-0.199-0.452,1.314-0.452,1.115,0
	C67.972,27.374,67.601,27.374,67.229,27.374z"/>
<path fill-rule="evenodd" clip-rule="evenodd" fill="#333333" d="M73.361,29.046c0.2,0.452-1.314,0.452-1.113,0
	C72.618,29.046,72.991,29.046,73.361,29.046z"/>
<path fill-rule="evenodd" clip-rule="evenodd" fill="#333333" d="M71.966,31.833c0.56,0,1.116,0,1.673,0
	C73.686,32.291,71.922,32.291,71.966,31.833z"/>
<path fill-rule="evenodd" clip-rule="evenodd" fill="#333333" d="M0.338,34.063c0,0.836,0,1.672,0,2.508c-0.093,0-0.185,0-0.278,0
	C0.232,35.815-0.293,34.359,0.338,34.063z"/>
<path fill-rule="evenodd" clip-rule="evenodd" fill="#333333" d="M2.847,34.063c0.093,0,0.186,0,0.278,0
	c-0.175,0.847,0.357,2.4-0.278,2.787C2.847,35.921,2.847,34.992,2.847,34.063z"/>
<path fill-rule="evenodd" clip-rule="evenodd" fill="#6F6F6F" d="M0.06,36.571c0.093,0,0.186,0,0.278,0c0,0.836,0,1.672,0,2.508
	c-0.093,0-0.185,0-0.278,0C0.06,38.244,0.06,37.408,0.06,36.571z"/>
<path fill-rule="evenodd" clip-rule="evenodd" fill="#D3D3D3" d="M2.847,38.801c0,0.836,0,1.672,0,2.508c-0.093,0-0.186,0-0.279,0
	C2.741,40.553,2.215,39.097,2.847,38.801z"/>
<path fill-rule="evenodd" clip-rule="evenodd" fill="#A1A1A1" d="M0.06,39.08c0.093,0,0.186,0,0.278,0c0,0.743,0,1.486,0,2.229
	c-0.093,0-0.185,0-0.278,0C0.06,40.566,0.06,39.823,0.06,39.08z"/>
<path fill-rule="evenodd" clip-rule="evenodd" fill="#D3D3D3" d="M0.06,41.309c0.093,0,0.186,0,0.278,0
	c-0.17,0.667,0.35,2.022-0.278,2.23C0.06,42.796,0.06,42.052,0.06,41.309z"/>
<path fill-rule="evenodd" clip-rule="evenodd" fill="#A1A1A1" d="M2.568,41.309c0.093,0,0.186,0,0.279,0c0,0.743,0,1.487,0,2.23
	c-0.093,0-0.186,0-0.279,0C2.568,42.796,2.568,42.052,2.568,41.309z"/>
<path fill-rule="evenodd" clip-rule="evenodd" fill="#333333" d="M89.249,57.754c-0.127-0.456,1.519-0.456,1.392,0
	C90.175,57.754,89.712,57.754,89.249,57.754z"/>
<path fill-rule="evenodd" clip-rule="evenodd" fill="#333333" d="M89.249,58.311c-0.161,0.49,0.336,1.638-0.279,1.673
	C89.129,59.492,88.633,58.346,89.249,58.311z"/>
<path fill-rule="evenodd" clip-rule="evenodd" fill="#333333" d="M90.64,58.311c-0.16,0.49,0.337,1.638-0.278,1.673
	C90.522,59.492,90.026,58.346,90.64,58.311z"/>
<path fill-rule="evenodd" clip-rule="evenodd" fill="#333333" d="M50.785,59.426c0.64,0.567,0.101,2.314,0.279,3.345
	c-0.093,0-0.186,0-0.279,0C50.785,61.655,50.785,60.54,50.785,59.426z"/>
<path fill-rule="evenodd" clip-rule="evenodd" fill="#333333" d="M47.999,59.983c0.093,0,0.186,0,0.278,0c0,1.114,0,2.229,0,3.344
	C47.638,62.759,48.176,61.013,47.999,59.983z"/>
<path fill-rule="evenodd" clip-rule="evenodd" fill="#6F6F6F" d="M50.785,62.771c0.093,0,0.186,0,0.279,0c0,0.743,0,1.486,0,2.229
	c-0.093,0-0.186,0-0.279,0C50.785,64.257,50.785,63.514,50.785,62.771z"/>
<path fill-rule="evenodd" clip-rule="evenodd" fill="#333333" d="M90.083,63.049c0.465,0,0.93,0,1.395,0
	c-0.072,0.579-1.227,0.076-1.395,0.558C90.083,63.42,90.083,63.235,90.083,63.049z"/>
<path fill-rule="evenodd" clip-rule="evenodd" fill="#A1A1A1" d="M50.785,65c0.093,0,0.186,0,0.279,0c0,0.557,0,1.115,0,1.672
	C50.449,66.638,50.946,65.49,50.785,65z"/>
<path fill-rule="evenodd" clip-rule="evenodd" fill="#333333" d="M79.215,71.688c0.456-0.045,0.456,1.719,0,1.673
	C79.215,72.804,79.215,72.246,79.215,71.688z"/>
<path fill-rule="evenodd" clip-rule="evenodd" fill="#333333" d="M53.852,88.412c0-0.094,0-0.187,0-0.279c0.743,0,1.486,0,2.229,0
	C55.874,88.762,54.518,88.241,53.852,88.412z"/>
<path fill-rule="evenodd" clip-rule="evenodd" fill="#333333" d="M53.572,90.92c0.929,0,1.858,0,2.788,0
	C56.059,91.382,53.873,91.382,53.572,90.92z"/>
<path fill-rule="evenodd" clip-rule="evenodd" fill="#6F6F6F" d="M6.749,16.504c0.346-0.583,0.811-1.047,1.394-1.393
	C7.797,15.693,7.332,16.158,6.749,16.504z"/>
<path fill-rule="evenodd" clip-rule="evenodd" fill="#333333" d="M3.405,53.015c0.491,0.252,0.863,0.624,1.115,1.115
	C4.028,53.878,3.656,53.506,3.405,53.015z"/>
<path fill-rule="evenodd" clip-rule="evenodd" fill="#333333" d="M5.077,54.688c0.366,0.099,0.438,0.491,0.836,0.557
	c0.099,0.366,0.491,0.438,0.557,0.836C5.887,55.735,5.423,55.271,5.077,54.688z"/>
<path fill-rule="evenodd" clip-rule="evenodd" fill="#D3D3D3" d="M6.47,56.081c-0.066-0.398-0.458-0.47-0.557-0.836
	c0.583,0.346,1.047,0.811,1.393,1.394C6.941,56.54,6.868,56.147,6.47,56.081z"/>
<path fill-rule="evenodd" clip-rule="evenodd" fill="#333333" d="M8.979,58.311c0.366,0.1,0.439,0.491,0.836,0.557
	c0.082,0.569,0.754,0.547,0.836,1.116C9.976,59.544,9.418,58.985,8.979,58.311z"/>
<path fill-rule="evenodd" clip-rule="evenodd" fill="#D3D3D3" d="M10.651,59.983c-0.082-0.569-0.754-0.547-0.836-1.116
	c0.583,0.347,1.047,0.812,1.394,1.395C10.982,60.209,10.931,59.982,10.651,59.983z"/>
<path fill-rule="evenodd" clip-rule="evenodd" fill="#A1A1A1" d="M11.208,60.262c0.491,0.252,0.863,0.623,1.115,1.115
	C11.832,61.125,11.46,60.753,11.208,60.262z"/>
<path fill-rule="evenodd" clip-rule="evenodd" fill="#6F6F6F" d="M12.323,61.377c0.491,0.251,0.863,0.623,1.115,1.114
	C12.946,62.239,12.575,61.867,12.323,61.377z"/>
<path fill-rule="evenodd" clip-rule="evenodd" fill="#333333" d="M13.438,62.491c0.226,0.054,0.278,0.28,0.557,0.279
	c0.082,0.567,0.754,0.547,0.836,1.114C14.249,63.538,13.784,63.074,13.438,62.491z"/>
<path fill-rule="evenodd" clip-rule="evenodd" fill="#D3D3D3" d="M14.832,63.885c-0.082-0.567-0.754-0.547-0.836-1.114
	c0.675,0.439,1.233,0.996,1.672,1.673C15.302,64.344,15.229,63.951,14.832,63.885z"/>
<path fill-rule="evenodd" clip-rule="evenodd" fill="#A1A1A1" d="M15.668,64.443c0.491,0.251,0.863,0.623,1.114,1.113
	C16.291,65.306,15.919,64.934,15.668,64.443z"/>
<path fill-rule="evenodd" clip-rule="evenodd" fill="#333333" d="M17.619,66.394c0.226,0.053,0.278,0.279,0.558,0.278
	c0.082,0.568,0.754,0.547,0.836,1.115C18.429,67.441,17.965,66.977,17.619,66.394z"/>
<path fill-rule="evenodd" clip-rule="evenodd" fill="#D3D3D3" d="M19.012,67.787c-0.082-0.568-0.754-0.547-0.836-1.115
	c0.675,0.439,1.232,0.998,1.672,1.673C19.482,68.245,19.41,67.854,19.012,67.787z"/>
<path fill-rule="evenodd" clip-rule="evenodd" fill="#6F6F6F" d="M20.685,69.18c0.491,0.253,0.863,0.624,1.115,1.115
	C21.308,70.044,20.937,69.672,20.685,69.18z"/>
<path fill-rule="evenodd" clip-rule="evenodd" fill="#333333" d="M21.799,70.295c0.226,0.053,0.278,0.279,0.558,0.279
	c0.082,0.568,0.754,0.546,0.836,1.114C22.61,71.343,22.146,70.878,21.799,70.295z"/>
<path fill-rule="evenodd" clip-rule="evenodd" fill="#D3D3D3" d="M23.193,71.688c-0.082-0.568-0.754-0.546-0.836-1.114
	c0.675,0.438,1.232,0.997,1.672,1.672C23.663,72.148,23.591,71.756,23.193,71.688z"/>
<path fill-rule="evenodd" clip-rule="evenodd" fill="#A1A1A1" d="M24.029,72.246c0.491,0.252,0.863,0.623,1.115,1.115
	C24.653,73.109,24.281,72.738,24.029,72.246z"/>
<path fill-rule="evenodd" clip-rule="evenodd" fill="#333333" d="M25.98,74.196c0.366,0.1,0.438,0.492,0.836,0.559
	c0.188,0.647,0.926,0.746,1.114,1.393C27.164,75.615,26.513,74.965,25.98,74.196z"/>
<path fill-rule="evenodd" clip-rule="evenodd" fill="#D3D3D3" d="M27.931,76.147c-0.188-0.646-0.926-0.745-1.114-1.393
	c0.86,0.627,1.604,1.369,2.23,2.229C28.478,76.902,28.5,76.23,27.931,76.147z"/>
<path fill-rule="evenodd" clip-rule="evenodd" fill="#A1A1A1" d="M29.046,76.984c0.491,0.251,0.862,0.623,1.114,1.115
	C29.669,77.847,29.298,77.476,29.046,76.984z"/>
<path fill-rule="evenodd" clip-rule="evenodd" fill="#6F6F6F" d="M30.161,78.1c0.491,0.251,0.863,0.624,1.115,1.114
	C30.784,78.963,30.413,78.59,30.161,78.1z"/>
<path fill-rule="evenodd" clip-rule="evenodd" fill="#333333" d="M31.276,79.214c0.226,0.054,0.277,0.279,0.557,0.278
	c0.099,0.367,0.491,0.439,0.558,0.837C31.899,80.076,31.527,79.705,31.276,79.214z"/>
<path fill-rule="evenodd" clip-rule="evenodd" fill="#D3D3D3" d="M32.391,80.329c-0.067-0.397-0.459-0.47-0.558-0.837
	c0.491,0.252,0.863,0.624,1.115,1.115C32.722,80.555,32.67,80.328,32.391,80.329z"/>
<path fill-rule="evenodd" clip-rule="evenodd" fill="#A1A1A1" d="M75.034,64.722c0.491,0.251,0.863,0.623,1.114,1.113
	C75.657,65.584,75.285,65.212,75.034,64.722z"/>
<path fill-rule="evenodd" clip-rule="evenodd" fill="#333333" d="M105.135,55.524c0.25-0.491,0.623-0.864,1.113-1.115
	C105.997,54.9,105.625,55.272,105.135,55.524z"/>
<path fill-rule="evenodd" clip-rule="evenodd" fill="#6F6F6F" d="M106.249,54.409c0.533-0.768,1.185-1.417,1.952-1.951
	C107.667,53.226,107.016,53.875,106.249,54.409z"/>
<path fill-rule="evenodd" clip-rule="evenodd" fill="#333333" d="M108.201,52.458c0.252-0.491,0.623-0.863,1.113-1.115
	C109.064,51.834,108.691,52.206,108.201,52.458z"/>
<path fill-rule="evenodd" clip-rule="evenodd" fill="#A1A1A1" d="M121.579,27.932c0.439-0.675,0.996-1.233,1.671-1.673
	C122.811,26.934,122.254,27.492,121.579,27.932z"/>
<path fill-rule="evenodd" clip-rule="evenodd" fill="#333333" d="M123.529,26.259c0.532-0.768,1.184-1.418,1.951-1.951
	C124.947,25.076,124.297,25.726,123.529,26.259z"/>
<path fill-rule="evenodd" clip-rule="evenodd" fill="#333333" d="M115.447,12.323c0.347-0.583,0.81-1.047,1.395-1.394
	C116.495,11.513,116.03,11.978,115.447,12.323z"/>
<path fill-rule="evenodd" clip-rule="evenodd" fill="#333333" d="M113.217,14.832c0.252-0.491,0.623-0.863,1.113-1.115
	C114.081,14.208,113.708,14.58,113.217,14.832z"/>
<path fill-rule="evenodd" clip-rule="evenodd" fill="#6F6F6F" d="M89.249,36.292c0.344-0.583,0.809-1.047,1.392-1.393
	C90.295,35.482,89.832,35.947,89.249,36.292z"/>
<path fill-rule="evenodd" clip-rule="evenodd" fill="#333333" d="M99.002,26.259c0.764-1.188,2.023-1.877,2.787-3.066
	c0.646-0.188,0.745-0.926,1.395-1.114C101.906,23.588,100.513,24.981,99.002,26.259z"/>
<path fill-rule="evenodd" clip-rule="evenodd" fill="#D3D3D3" d="M101.79,23.193c0.533-0.768,1.184-1.418,1.951-1.951
	c-0.099,0.366-0.491,0.438-0.557,0.836C102.535,22.267,102.436,23.004,101.79,23.193z"/>
<path fill-rule="evenodd" clip-rule="evenodd" fill="#A1A1A1" d="M103.741,21.242c0.625-0.861,1.368-1.604,2.229-2.23
	C105.343,19.873,104.6,20.616,103.741,21.242z"/>
<path fill-rule="evenodd" clip-rule="evenodd" fill="#6F6F6F" d="M105.97,19.012c0.625-0.86,1.368-1.603,2.23-2.23
	C107.573,17.643,106.83,18.386,105.97,19.012z"/>
<path fill-rule="evenodd" clip-rule="evenodd" fill="#333333" d="M108.201,16.782c0.438-0.675,0.997-1.232,1.673-1.671
	C109.432,15.786,108.875,16.343,108.201,16.782z"/>
<path fill-rule="evenodd" clip-rule="evenodd" fill="#D3D3D3" d="M115.447,12.323c0.583-0.346,1.048-0.811,1.395-1.394
	c0.092,0,0.184,0,0.278,0c-0.441,0.675-0.998,1.232-1.673,1.673C115.447,12.509,115.447,12.416,115.447,12.323z"/>
<path fill-rule="evenodd" clip-rule="evenodd" fill="#6F6F6F" d="M37.686,84.51c0.524,0.497,1.29,0.754,1.672,1.394
	c-0.916,0.293-1.219,1.197-1.672,1.95c-0.858,0.208-0.536-0.765-1.394-0.557C36.583,86.194,37.672,85.89,37.686,84.51z"/>
<path fill-rule="evenodd" clip-rule="evenodd" fill="#D3D3D3" d="M8.7,18.176c0.346-0.583,0.811-1.047,1.394-1.394
	C9.748,17.365,9.283,17.83,8.7,18.176z"/>
<path fill-rule="evenodd" clip-rule="evenodd" fill="#333333" d="M8.421,18.734c0.053-0.226,0.279-0.278,0.279-0.558
	c0.583-0.346,1.047-0.811,1.394-1.394c0.226-0.052,0.278-0.279,0.557-0.278C10.025,17.364,9.282,18.108,8.421,18.734z"/>
<path fill-rule="evenodd" clip-rule="evenodd" fill="#D3D3D3" d="M5.913,51.901c0.583,0.345,1.047,0.81,1.393,1.393
	C6.723,52.948,6.259,52.483,5.913,51.901z"/>
<path fill-rule="evenodd" clip-rule="evenodd" fill="#333333" d="M7.306,53.294c-0.346-0.583-0.81-1.048-1.393-1.393
	c0-0.093,0-0.186,0-0.28c0.768,0.534,1.418,1.184,1.951,1.951C7.638,53.52,7.586,53.293,7.306,53.294z"/>
<path fill-rule="evenodd" clip-rule="evenodd" fill="#A1A1A1" d="M8.7,54.409c0.491,0.251,0.863,0.624,1.115,1.115
	C9.323,55.272,8.952,54.9,8.7,54.409z"/>
<path fill-rule="evenodd" clip-rule="evenodd" fill="#D3D3D3" d="M9.815,55.524c0.226,0.052,0.278,0.279,0.557,0.278
	c0.083,0.569,0.754,0.546,0.836,1.115C10.625,56.571,10.161,56.106,9.815,55.524z"/>
<path fill-rule="evenodd" clip-rule="evenodd" fill="#333333" d="M11.208,56.917c-0.082-0.568-0.754-0.546-0.836-1.115
	c0.583,0.346,1.048,0.81,1.394,1.393C11.54,57.143,11.488,56.916,11.208,56.917z"/>
<path fill-rule="evenodd" clip-rule="evenodd" fill="#6F6F6F" d="M11.766,57.195c0.491,0.252,0.863,0.624,1.115,1.115
	C12.39,58.06,12.018,57.688,11.766,57.195z"/>
<path fill-rule="evenodd" clip-rule="evenodd" fill="#D3D3D3" d="M13.717,59.146c0.366,0.099,0.438,0.491,0.836,0.558
	c0.082,0.568,0.754,0.547,0.836,1.114C14.714,60.379,14.156,59.822,13.717,59.146z"/>
<path fill-rule="evenodd" clip-rule="evenodd" fill="#333333" d="M15.389,60.818c-0.082-0.567-0.754-0.546-0.836-1.114
	c0.583,0.347,1.047,0.812,1.393,1.394C15.721,61.044,15.669,60.817,15.389,60.818z"/>
<path fill-rule="evenodd" clip-rule="evenodd" fill="#6F6F6F" d="M15.946,61.098c0.492,0.252,0.863,0.624,1.115,1.115
	C16.57,61.961,16.198,61.589,15.946,61.098z"/>
<path fill-rule="evenodd" clip-rule="evenodd" fill="#A1A1A1" d="M17.062,62.213c0.491,0.252,0.863,0.623,1.115,1.114
	C17.685,63.075,17.313,62.704,17.062,62.213z"/>
<path fill-rule="evenodd" clip-rule="evenodd" fill="#D3D3D3" d="M18.176,63.327c0.366,0.099,0.438,0.491,0.836,0.558
	c0.099,0.366,0.491,0.439,0.558,0.837C18.987,64.375,18.522,63.911,18.176,63.327z"/>
<path fill-rule="evenodd" clip-rule="evenodd" fill="#333333" d="M19.57,64.722c-0.067-0.397-0.459-0.471-0.558-0.837
	c0.492,0.252,0.863,0.623,1.115,1.115C19.901,64.947,19.849,64.721,19.57,64.722z"/>
<path fill-rule="evenodd" clip-rule="evenodd" fill="#6F6F6F" d="M20.127,65c0.492,0.251,0.864,0.623,1.115,1.115
	C20.75,65.863,20.379,65.491,20.127,65z"/>
<path fill-rule="evenodd" clip-rule="evenodd" fill="#A1A1A1" d="M21.242,66.115c0.491,0.251,0.863,0.623,1.115,1.114
	C21.866,66.978,21.494,66.605,21.242,66.115z"/>
<path fill-rule="evenodd" clip-rule="evenodd" fill="#D3D3D3" d="M22.357,67.229c0.366,0.099,0.438,0.491,0.836,0.558
	c0.098,0.366,0.49,0.438,0.557,0.836C23.167,68.276,22.703,67.813,22.357,67.229z"/>
<path fill-rule="evenodd" clip-rule="evenodd" fill="#333333" d="M23.75,68.623c-0.067-0.397-0.459-0.47-0.557-0.836
	c0.583,0.346,1.047,0.81,1.394,1.393C24.221,69.082,24.148,68.69,23.75,68.623z"/>
<path fill-rule="evenodd" clip-rule="evenodd" fill="#A1A1A1" d="M25.422,70.017c0.492,0.251,0.863,0.623,1.115,1.114
	C26.046,70.88,25.674,70.508,25.422,70.017z"/>
<path fill-rule="evenodd" clip-rule="evenodd" fill="#D3D3D3" d="M26.538,71.131c0.366,0.1,0.438,0.491,0.836,0.558
	c0.082,0.568,0.754,0.547,0.836,1.115C27.535,72.364,26.977,71.807,26.538,71.131z"/>
<path fill-rule="evenodd" clip-rule="evenodd" fill="#333333" d="M28.21,72.804c-0.082-0.568-0.754-0.547-0.836-1.115
	c0.674,0.439,1.232,0.997,1.672,1.673C28.68,73.263,28.607,72.87,28.21,72.804z"/>
<path fill-rule="evenodd" clip-rule="evenodd" fill="#6F6F6F" d="M29.046,73.361c0.491,0.251,0.862,0.624,1.114,1.114
	C29.669,74.225,29.298,73.852,29.046,73.361z"/>
<path fill-rule="evenodd" clip-rule="evenodd" fill="#A1A1A1" d="M30.161,74.476c0.583,0.346,1.047,0.811,1.394,1.394
	C30.972,75.523,30.507,75.059,30.161,74.476z"/>
<path fill-rule="evenodd" clip-rule="evenodd" fill="#D3D3D3" d="M31.555,75.869c0.568,0.082,0.546,0.755,1.115,0.837
	c0.098,0.365,0.491,0.438,0.557,0.836C32.551,77.103,31.994,76.545,31.555,75.869z"/>
<path fill-rule="evenodd" clip-rule="evenodd" fill="#333333" d="M33.227,77.542c-0.066-0.397-0.459-0.471-0.557-0.836
	c0.491,0.251,0.863,0.623,1.115,1.114C33.559,77.768,33.506,77.541,33.227,77.542z"/>
<path fill-rule="evenodd" clip-rule="evenodd" fill="#D3D3D3" d="M73.918,67.229c0.688,0.333,1.09,0.954,1.394,1.672
	C74.624,68.569,74.222,67.947,73.918,67.229z"/>
<path fill-rule="evenodd" clip-rule="evenodd" fill="#A1A1A1" d="M71.688,65.278c1.124,0.271,1.571,1.218,2.23,1.951
	C73.065,66.69,72.52,65.841,71.688,65.278z"/>
<path fill-rule="evenodd" clip-rule="evenodd" fill="#6F6F6F" d="M49.392,70.017c0.492,0.251,0.864,0.623,1.115,1.114
	C50.016,70.88,49.643,70.508,49.392,70.017z"/>
<path fill-rule="evenodd" clip-rule="evenodd" fill="#D3D3D3" d="M104.576,52.458c0.533-0.768,1.185-1.417,1.952-1.951
	C105.995,51.274,105.343,51.925,104.576,52.458z"/>
<path fill-rule="evenodd" clip-rule="evenodd" fill="#333333" d="M103.741,53.015c0.905-1.139,1.928-2.161,3.065-3.066
	c-0.053,0.226-0.278,0.278-0.278,0.558c-0.768,0.533-1.419,1.183-1.952,1.951C104.211,52.556,104.139,52.948,103.741,53.015z"/>
<path fill-rule="evenodd" clip-rule="evenodd" fill="#A1A1A1" d="M119.627,26.259c0.439-0.675,0.996-1.232,1.673-1.672
	C120.86,25.262,120.303,25.819,119.627,26.259z"/>
<path fill-rule="evenodd" clip-rule="evenodd" fill="#6F6F6F" d="M117.398,14.274c0.345-0.583,0.81-1.047,1.393-1.394
	C118.446,13.464,117.981,13.928,117.398,14.274z"/>
<path fill-rule="evenodd" clip-rule="evenodd" fill="#333333" d="M113.496,18.734c0.252-0.491,0.623-0.864,1.115-1.115
	C114.359,18.11,113.986,18.482,113.496,18.734z"/>
<path fill-rule="evenodd" clip-rule="evenodd" fill="#D3D3D3" d="M106.528,31.275c0.252-0.491,0.623-0.863,1.115-1.115
	C107.609,30.87,107.237,31.242,106.528,31.275z"/>
<path fill-rule="evenodd" clip-rule="evenodd" fill="#D3D3D3" d="M91.2,37.965c0.25-0.491,0.623-0.863,1.113-1.115
	C92.061,37.341,91.69,37.713,91.2,37.965z"/>
<path fill-rule="evenodd" clip-rule="evenodd" fill="#333333" d="M86.183,47.72c0.345-0.583,0.81-1.047,1.393-1.394
	C87.229,46.909,86.764,47.374,86.183,47.72z"/>
<path fill-rule="evenodd" clip-rule="evenodd" fill="#333333" d="M97.608,23.75c0.627-0.86,1.371-1.604,2.23-2.23
	C99.213,22.381,98.47,23.124,97.608,23.75z"/>
<path fill-rule="evenodd" clip-rule="evenodd" fill="#6F6F6F" d="M99.838,21.521c0.627-0.86,1.37-1.603,2.229-2.23
	C101.443,20.152,100.7,20.895,99.838,21.521z"/>
<path fill-rule="evenodd" clip-rule="evenodd" fill="#A1A1A1" d="M102.068,19.291c0.627-0.86,1.37-1.603,2.229-2.229
	C103.672,17.922,102.929,18.665,102.068,19.291z"/>
<path fill-rule="evenodd" clip-rule="evenodd" fill="#D3D3D3" d="M104.297,17.062c0.099-0.366,0.491-0.439,0.558-0.836
	c0.823-0.385,1.13-1.287,1.951-1.672C106.086,15.506,105.251,16.342,104.297,17.062z"/>
<path fill-rule="evenodd" clip-rule="evenodd" fill="#333333" d="M104.855,16.225c0.813-1.045,1.742-1.975,2.788-2.787
	c-0.082,0.568-0.755,0.546-0.837,1.115C105.985,14.938,105.678,15.84,104.855,16.225z"/>
<path fill-rule="evenodd" clip-rule="evenodd" fill="#333333" d="M91.2,37.965c0.49-0.252,0.861-0.624,1.113-1.115
	c0.093,0,0.187,0,0.278,0c-0.346,0.583-0.809,1.047-1.392,1.394C91.2,38.151,91.2,38.058,91.2,37.965z"/>
<path fill-rule="evenodd" clip-rule="evenodd" fill="#6F6F6F" d="M89.249,57.754c0.464,0,0.927,0,1.392,0c0,0.185,0,0.37,0,0.557
	c-0.614,0.035-0.118,1.182-0.278,1.673c0.209,0.628,1.563,0.108,2.229,0.278c-0.719,0.61-2.839,0.249-3.622,0
	c0-0.093,0-0.187,0-0.278c0.615-0.035,0.118-1.183,0.279-1.673C89.249,58.124,89.249,57.938,89.249,57.754z"/>
<path fill-rule="evenodd" clip-rule="evenodd" fill="#333333" d="M62.491,10.373c0.694,0.113,0.017,1.081-0.557,0.836
	C62.115,10.925,62.575,10.92,62.491,10.373z"/>
<path fill-rule="evenodd" clip-rule="evenodd" fill="#6F6F6F" d="M59.147,7.306c1.104-0.476,2.85-0.308,4.181-0.557
	c-0.087,0.378-0.698,0.231-1.115,0.279c0,0.278,0,0.558,0,0.836c0.152,0.405-0.325,1.441,0.279,1.394c0,0.372,0,0.743,0,1.115
	c0.083,0.547-0.376,0.552-0.557,0.836c-0.737-0.007-1.747,0.26-1.394-0.836c-0.024-0.441,0.134-1.063-0.279-1.115
	c0.224-0.967-0.415-1.071-0.278-1.952C59.705,7.306,59.425,7.306,59.147,7.306z"/>
<path fill-rule="evenodd" clip-rule="evenodd" fill="#6F6F6F" d="M87.018,1.454c0.034-0.616,1.183-0.118,1.673-0.279
	C88.655,1.791,87.507,1.293,87.018,1.454z"/>
<path fill-rule="evenodd" clip-rule="evenodd" fill="#6F6F6F" d="M79.772,2.29c0.034-0.616,1.182-0.119,1.673-0.279
	C81.409,2.626,80.261,2.129,79.772,2.29z"/>
<path fill-rule="evenodd" clip-rule="evenodd" fill="#6F6F6F" d="M77.264,2.568c0.033-0.616,1.182-0.118,1.67-0.278
	C78.901,2.905,77.752,2.408,77.264,2.568z"/>
<path fill-rule="evenodd" clip-rule="evenodd" fill="#6F6F6F" d="M74.755,2.847c0.034-0.615,1.182-0.119,1.671-0.279
	C76.392,3.184,75.245,2.687,74.755,2.847z"/>
<path fill-rule="evenodd" clip-rule="evenodd" fill="#6F6F6F" d="M72.248,3.126c0.033-0.616,1.182-0.119,1.671-0.279
	C73.884,3.463,72.736,2.965,72.248,3.126z"/>
<path fill-rule="evenodd" clip-rule="evenodd" fill="#6F6F6F" d="M69.737,3.405c0.036-0.616,1.185-0.119,1.673-0.279
	C71.375,3.741,70.228,3.245,69.737,3.405z"/>
<path fill-rule="evenodd" clip-rule="evenodd" fill="#6F6F6F" d="M88.691,3.962c0.086-0.379,0.697-0.231,1.114-0.279
	c0,0.093,0,0.186,0,0.279C89.434,3.962,89.062,3.962,88.691,3.962z"/>
<path fill-rule="evenodd" clip-rule="evenodd" fill="#6F6F6F" d="M62.491,4.241c0.035-0.616,1.183-0.118,1.673-0.278
	C64.129,4.578,62.981,4.081,62.491,4.241z"/>
<path fill-rule="evenodd" clip-rule="evenodd" fill="#6F6F6F" d="M57.753,4.798c-0.047-0.605,0.989-0.126,1.394-0.279
	C59.194,5.124,58.158,4.646,57.753,4.798z"/>
<path fill-rule="evenodd" clip-rule="evenodd" fill="#6F6F6F" d="M52.736,5.355c0.035-0.615,1.182-0.118,1.672-0.278
	C54.374,5.692,53.227,5.195,52.736,5.355z"/>
<path fill-rule="evenodd" clip-rule="evenodd" fill="#6F6F6F" d="M76.426,5.355c0.036-0.615,1.184-0.118,1.673-0.278
	C78.065,5.692,76.917,5.195,76.426,5.355z"/>
<path fill-rule="evenodd" clip-rule="evenodd" fill="#6F6F6F" d="M73.918,5.634c0.035-0.615,1.182-0.118,1.673-0.278
	C75.557,5.971,74.409,5.474,73.918,5.634z"/>
<path fill-rule="evenodd" clip-rule="evenodd" fill="#6F6F6F" d="M47.999,5.913c0.035-0.616,1.182-0.119,1.672-0.279
	C49.636,6.25,48.488,5.753,47.999,5.913z"/>
<path fill-rule="evenodd" clip-rule="evenodd" fill="#6F6F6F" d="M71.41,5.913c0.034-0.616,1.182-0.119,1.673-0.279
	C73.048,6.25,71.901,5.753,71.41,5.913z"/>
<path fill-rule="evenodd" clip-rule="evenodd" fill="#6F6F6F" d="M68.902,6.191c0.034-0.615,1.182-0.118,1.673-0.278
	C70.539,6.528,69.392,6.031,68.902,6.191z"/>
<path fill-rule="evenodd" clip-rule="evenodd" fill="#6F6F6F" d="M43.26,6.47c0.035-0.615,1.183-0.118,1.672-0.279
	C44.898,6.807,43.75,6.31,43.26,6.47z"/>
<path fill-rule="evenodd" clip-rule="evenodd" fill="#6F6F6F" d="M64.164,6.749c0.034-0.616,1.182-0.118,1.672-0.279
	C65.801,7.086,64.653,6.589,64.164,6.749z"/>
<path fill-rule="evenodd" clip-rule="evenodd" fill="#6F6F6F" d="M38.522,7.028c0.035-0.616,1.183-0.119,1.672-0.279
	C40.16,7.364,39.012,6.868,38.522,7.028z"/>
<path fill-rule="evenodd" clip-rule="evenodd" fill="#6F6F6F" d="M33.784,7.585c0.035-0.616,1.182-0.118,1.672-0.279
	C35.421,7.922,34.273,7.425,33.784,7.585z"/>
<path fill-rule="evenodd" clip-rule="evenodd" fill="#6F6F6F" d="M54.409,7.864c0.035-0.616,1.183-0.118,1.672-0.278
	C56.046,8.201,54.899,7.704,54.409,7.864z"/>
<path fill-rule="evenodd" clip-rule="evenodd" fill="#6F6F6F" d="M29.046,8.143c0.035-0.615,1.182-0.119,1.672-0.279
	C30.684,8.479,29.536,7.982,29.046,8.143z"/>
<path fill-rule="evenodd" clip-rule="evenodd" fill="#6F6F6F" d="M51.9,8.143c0.034-0.615,1.182-0.119,1.672-0.279
	C53.538,8.479,52.391,7.982,51.9,8.143z"/>
<path fill-rule="evenodd" clip-rule="evenodd" fill="#6F6F6F" d="M47.162,8.7c0.035-0.615,1.183-0.118,1.673-0.278
	C48.8,9.037,47.652,8.54,47.162,8.7z"/>
<path fill-rule="evenodd" clip-rule="evenodd" fill="#6F6F6F" d="M22.079,8.979C22.113,8.363,23.26,8.86,23.75,8.7
	C23.716,9.316,22.568,8.818,22.079,8.979z"/>
<path fill-rule="evenodd" clip-rule="evenodd" fill="#6F6F6F" d="M101.511,8.7c0.93,0,1.856,0,2.786,0
	C103.998,9.162,101.811,9.162,101.511,8.7z"/>
<path fill-rule="evenodd" clip-rule="evenodd" fill="#6F6F6F" d="M42.424,9.258c0.035-0.616,1.183-0.119,1.672-0.279
	C44.062,9.594,42.915,9.097,42.424,9.258z"/>
<path fill-rule="evenodd" clip-rule="evenodd" fill="#6F6F6F" d="M40.194,9.536c0.035-0.616,1.183-0.118,1.672-0.278
	C41.832,9.873,40.685,9.376,40.194,9.536z"/>
<path fill-rule="evenodd" clip-rule="evenodd" fill="#6F6F6F" d="M37.686,9.814c0.035-0.615,1.183-0.118,1.672-0.278
	C39.323,10.152,38.176,9.654,37.686,9.814z"/>
<path fill-rule="evenodd" clip-rule="evenodd" fill="#6F6F6F" d="M30.718,10.651c0.035-0.615,1.182-0.118,1.672-0.278
	C32.356,10.988,31.208,10.491,30.718,10.651z"/>
<path fill-rule="evenodd" clip-rule="evenodd" fill="#6F6F6F" d="M23.75,11.487c0.035-0.615,1.182-0.119,1.672-0.279
	C25.388,11.824,24.24,11.327,23.75,11.487z"/>
<path fill-rule="evenodd" clip-rule="evenodd" fill="#A1A1A1" d="M120.463,12.044c-0.046-0.458,1.719-0.458,1.673,0
	C121.579,12.044,121.02,12.044,120.463,12.044z"/>
<path fill-rule="evenodd" clip-rule="evenodd" fill="#6F6F6F" d="M124.366,20.406c0-0.558,0-1.116,0-1.672c0.092,0,0.187,0,0.278,0
	C124.484,19.224,124.981,20.371,124.366,20.406z"/>
<path fill-rule="evenodd" clip-rule="evenodd" fill="#6F6F6F" d="M66.672,30.161c-0.046-0.457,1.718-0.457,1.672,0
	C67.787,30.161,67.229,30.161,66.672,30.161z"/>
<path fill-rule="evenodd" clip-rule="evenodd" fill="#6F6F6F" d="M0.618,30.439c-0.161,0.49,0.336,1.638-0.279,1.672
	C0.499,31.622,0.002,30.474,0.618,30.439z"/>
<path fill-rule="evenodd" clip-rule="evenodd" fill="#6F6F6F" d="M73.639,44.375c-0.711-0.125-1.279-0.391-1.673-0.836
	c0.333-0.876,0.942-1.475,1.116-2.508c0.531,0.12,0.699,0.601,1.393,0.557C74.469,42.731,73.061,43.522,73.639,44.375z"/>
<path fill-rule="evenodd" clip-rule="evenodd" fill="#6F6F6F" d="M2.847,43.539c0,0.836,0,1.672,0,2.508
	c-0.632-0.296-0.106-1.751-0.279-2.508C2.662,43.539,2.754,43.539,2.847,43.539z"/>
<path fill-rule="evenodd" clip-rule="evenodd" fill="#6F6F6F" d="M70.853,46.047c0.433,0.403,1.3,0.372,1.673,0.836
	c-0.095,0-0.187,0-0.278,0c-0.844,0.47-0.676,3.085-2.23,1.951C69.276,47.984,70.693,46.92,70.853,46.047z"/>
<path fill-rule="evenodd" clip-rule="evenodd" fill="#333333" d="M54.688,50.785c0.038-0.458,1.913-0.458,1.951,0
	C55.988,50.785,55.338,50.785,54.688,50.785z"/>
<path fill-rule="evenodd" clip-rule="evenodd" fill="#A1A1A1" d="M68.623,64.722c-0.045-0.458,1.718-0.458,1.673,0
	C69.737,64.722,69.18,64.722,68.623,64.722z"/>
<path fill-rule="evenodd" clip-rule="evenodd" fill="#D3D3D3" d="M48.277,65c0.638,0.477,0.102,2.127,0.278,3.065
	C47.918,67.588,48.454,65.938,48.277,65z"/>
<path fill-rule="evenodd" clip-rule="evenodd" fill="#6F6F6F" d="M53.293,72.246c0.93,0,1.859,0,2.787,0
	C55.781,72.707,53.594,72.707,53.293,72.246z"/>
<path fill-rule="evenodd" clip-rule="evenodd" fill="#333333" d="M76.426,73.361c0-0.465,0-0.929,0-1.394
	C76.883,71.843,76.883,73.486,76.426,73.361z"/>
<path fill-rule="evenodd" clip-rule="evenodd" fill="#6F6F6F" d="M40.751,83.395c-0.412-0.145-0.702-0.412-1.114-0.558
	c0-0.093,0-0.186,0-0.278c0.529-0.93,0.987-2.555,2.229-1.951C42.708,81.795,41.021,82.434,40.751,83.395z"/>
<path fill-rule="evenodd" clip-rule="evenodd" fill="#6F6F6F" d="M52.736,88.133c0.372,0,0.744,0,1.115,0c0,0.093,0,0.186,0,0.279
	C53.41,88.389,52.788,88.546,52.736,88.133z"/>
<path fill-rule="evenodd" clip-rule="evenodd" fill="#FFFFFF" d="M88.691,1.175c0.278,0,0.558,0,0.836,0c0.835,0,1.673,0,2.508,0
	c2.01-0.042,3.652,0.737,5.295,1.672c0.343,0.195,0.912,0.417,1.116,0.558c1.24,0.852,2.023,2.518,3.9,2.787
	c1.274,0.183,2.2-0.648,3.902-0.558c0.651,0,1.301,0,1.952,0c1.643,0.216,2.75,0.966,3.064,2.509c0,1.208,0,2.416,0,3.624
	c0.053,1.63-0.705,2.454-1.392,3.345c-0.676,0.439-1.234,0.997-1.673,1.671c-0.862,0.627-1.605,1.37-2.23,2.23
	c-0.861,0.626-1.604,1.369-2.229,2.23c-0.768,0.533-1.418,1.183-1.951,1.951c-0.764,1.188-2.023,1.877-2.787,3.066
	c-0.795,0.528-1.587,1.267-2.508,1.673c-1.607,0.707-3.492,0.748-5.576,1.114c-5.103,0.899-11.716,2.213-17.279,2.788
	c-0.557,0-1.113,0-1.673,0c-1.765,0-2.559-0.971-3.622-1.673c0.046-0.457-1.718-0.457-1.672,0
	c-5.427,0.891-10.862,1.774-16.445,2.509c-0.447,0.941,0.71,0.866,1.116,1.114c1.061,0.653,2.673,1.256,4.18,1.952
	c1.777,0.82,3.503,1.945,5.295,2.787c0.484,0.227,1.094,0.295,1.672,0.558c2.849,1.294,6.312,2.978,9.475,4.459
	c0.394,0.445,0.962,0.712,1.673,0.836c3.224,1.224,5.47,3.192,8.92,1.951c0.673-0.242,1.258-0.262,1.673-0.558
	c2.626-1.878,2.628-7.03,5.017-9.477c0.583-0.345,1.047-0.81,1.392-1.393c2.41-2.909,8.555-2.927,12.544-4.739
	c0.4-0.182,1.126-0.358,1.392-0.557c0.768-0.57,1.118-1.525,1.673-2.508c0.928-1.645,1.613-3.493,2.509-5.575
	c1.138-2.638,2.384-4.688,4.46-6.689c0.49-0.252,0.863-0.624,1.113-1.115c0.253-0.491,0.625-0.863,1.116-1.114
	c0.675-0.44,1.231-0.998,1.673-1.673c0.559-0.775,1.614-1.487,2.508-1.672c3.394-0.708,7.139,1.271,7.525,4.738
	c0,0.65,0,1.3,0,1.951c0,0.464,0,0.929,0,1.394c0,0.557,0,1.114,0,1.672c0.206,2.53-0.701,3.945-1.673,5.295
	c-0.768,0.533-1.419,1.184-1.951,1.951c-0.093,0-0.185,0-0.279,0c-0.675,0.44-1.231,0.998-1.671,1.673
	c-0.879,1.679-2.382,2.757-3.346,4.459c-2.233,3.942-3.073,9.856-5.573,13.936c-0.16,0.261-0.431,0.617-0.557,0.836
	c-0.872,1.499-1.497,2.896-2.789,4.18c-0.49,0.252-0.861,0.624-1.113,1.115c-0.768,0.534-1.419,1.184-1.952,1.951
	c-0.49,0.251-0.863,0.624-1.113,1.115c-1.531,1.399-3.324,2.577-5.019,3.902c-2.302,1.801-4.247,3.716-8.639,3.623
	c-0.465,0-0.93,0-1.395,0s-0.928,0-1.393,0c-2.63-0.085-4.726-1.249-6.689-2.509c-0.619-0.396-1.023-0.684-1.673-1.114
	c-0.877-0.583-2.283-1.961-3.624-2.509c-1.268-0.52-3.454-0.85-5.017-1.115c-5.143-0.873-10.356-1.292-15.886-2.508
	c-2.075,0.898-3.508,2.438-5.017,3.901c0,0.743,0,1.487,0,2.23c0,1.114,0,2.229,0,3.345c0,0.743,0,1.486,0,2.229
	c0.161,0.49-0.336,1.638,0.279,1.672c0.236,0.846,0.479,1.891,0.836,2.229c0.198,0.188,1.611,0.783,1.951,0.837
	c2.805,0.44,5.57-1.936,8.361-4.182c2.75-2.212,5.119-4.128,8.641-3.623c1.959,0.281,2.923,1.298,4.181,2.788
	c0.251,0.49,0.623,0.862,1.114,1.113c1.553,1.423,2.864,3.083,3.067,5.854c0,0.558,0,1.115,0,1.673c0,0.371,0,0.743,0,1.114
	c-2.238,3.868-6.966,6.608-10.871,9.755c-0.784,0.631-1.586,1.224-2.508,1.951c-0.934,0.737-1.959,1.662-3.066,2.509
	c-1.341,1.025-3.733,2.223-6.41,2.229c-0.929,0-1.858,0-2.788,0c-6.15-0.261-10.249-2.571-14.214-5.017
	c-0.382-0.64-1.148-0.896-1.672-1.394c-1.878-1.002-3.446-2.313-4.738-3.902c-0.251-0.491-0.624-0.863-1.115-1.115
	c-0.28,0.001-0.332-0.225-0.557-0.278c-0.252-0.49-0.624-0.863-1.115-1.114c-0.252-0.492-0.623-0.864-1.114-1.115
	c-0.626-0.86-1.37-1.603-2.23-2.229c-0.398-0.066-0.47-0.459-0.836-0.559c-0.401-0.155-0.68-0.434-0.836-0.835
	c-0.252-0.492-0.624-0.863-1.115-1.115c-0.44-0.675-0.997-1.233-1.672-1.672c-0.279,0-0.332-0.227-0.558-0.279
	c-0.252-0.491-0.624-0.862-1.115-1.115c-0.401-0.155-0.68-0.434-0.836-0.835c-0.44-0.675-0.997-1.233-1.672-1.673
	c-0.279,0.001-0.332-0.226-0.558-0.278c-0.401-0.156-0.68-0.435-0.836-0.837c-0.251-0.49-0.623-0.862-1.114-1.113
	c-0.439-0.677-0.997-1.233-1.672-1.673c-0.279,0.001-0.332-0.226-0.557-0.279c-0.252-0.491-0.624-0.863-1.115-1.114
	c-0.252-0.492-0.624-0.863-1.115-1.115c-0.346-0.583-0.811-1.048-1.394-1.395c-0.397-0.065-0.47-0.457-0.836-0.557
	c-0.675-0.439-1.232-0.997-1.672-1.672c-0.346-0.583-0.81-1.048-1.393-1.394c-0.398-0.066-0.47-0.458-0.836-0.557
	c-0.249-0.124-0.499-0.245-0.558-0.558c-0.252-0.491-0.624-0.863-1.115-1.115c-1.903-2.371-3.765-4.782-3.345-9.476
	c0.628-0.208,0.108-1.563,0.278-2.23c0-0.743,0-1.486,0-2.229c0-0.836,0-1.672,0-2.508c0-0.836,0-1.672,0-2.508
	c0-0.65,0-1.301,0-1.951c0.616-0.035,0.119-1.182,0.279-1.672c0.558-6.131,2.96-10.418,6.131-13.936
	c0.583-0.346,1.048-0.811,1.394-1.393C11.6,11.878,15.8,9.39,22.079,8.979c0.49-0.16,1.637,0.337,1.672-0.279
	c1.737-0.213,3.293-0.608,5.296-0.557c0.489-0.16,1.637,0.337,1.672-0.279c0.978-0.137,1.814-0.415,3.066-0.278
	c0.489-0.16,1.637,0.336,1.672-0.279c0.978-0.137,1.814-0.415,3.066-0.278c0.49-0.16,1.638,0.336,1.672-0.279
	c0.978-0.137,1.814-0.416,3.065-0.279c0.491-0.16,1.639,0.337,1.672-0.279c0.978-0.137,1.815-0.415,3.066-0.278
	c0.49-0.16,1.637,0.336,1.672-0.279c0.781-0.333,1.923-0.306,3.065-0.278c0.49-0.16,1.638,0.336,1.672-0.278
	c1.019-0.189,2.027-0.389,3.344-0.279c0.405-0.152,1.441,0.325,1.394-0.279c0.185,0,0.372,0,0.558,0c0.186,0,0.371,0,0.557,0
	c0.578-0.166,1.832,0.344,1.951-0.279c0.093,0,0.186,0,0.279,0c0.49-0.16,1.638,0.337,1.673-0.278
	c1.815-0.228,3.45-0.638,5.573-0.558c0.491-0.16,1.639,0.336,1.673-0.279c0.278,0,0.557,0,0.838,0
	c0.488-0.161,1.637,0.337,1.671-0.279c0.278,0,0.557,0,0.837,0c0.489-0.16,1.637,0.337,1.671-0.279c0.278,0,0.559,0,0.838,0
	c0.488-0.16,1.637,0.337,1.67-0.278c0.281,0,0.56,0,0.838,0c0.489-0.161,1.637,0.336,1.673-0.279
	c1.725-0.318,3.51-0.576,5.573-0.557C87.507,1.293,88.655,1.791,88.691,1.175z M88.691,3.962c-3.508,0.394-6.793,1.012-10.592,1.115
	c-0.489,0.16-1.637-0.337-1.673,0.278c-0.278,0-0.557,0-0.835,0c-0.491,0.16-1.638-0.337-1.673,0.278c-0.279,0-0.558,0-0.836,0
	c-0.491,0.161-1.639-0.336-1.673,0.279c-0.278,0-0.557,0-0.835,0c-0.491,0.16-1.639-0.336-1.673,0.278
	c-0.978,0.138-1.814,0.416-3.066,0.279c-0.49,0.161-1.638-0.337-1.672,0.279c-0.279,0-0.558,0-0.836,0
	c-1.331,0.25-3.077,0.082-4.181,0.557c-0.978,0.138-1.814,0.416-3.066,0.279c-0.489,0.16-1.637-0.337-1.672,0.278
	c-0.279,0-0.557,0-0.836,0c-0.49,0.16-1.638-0.336-1.672,0.279c-0.781,0.334-1.923,0.307-3.065,0.279
	c-0.49,0.161-1.638-0.337-1.673,0.278c-0.781,0.334-1.923,0.307-3.066,0.279c-0.49,0.161-1.638-0.336-1.672,0.279
	c-0.186,0-0.372,0-0.557,0c-0.49,0.16-1.637-0.337-1.672,0.278c-0.279,0-0.557,0-0.836,0c-0.49,0.16-1.637-0.336-1.672,0.278
	c-1.64,0.312-3.358,0.544-5.295,0.558c-0.49,0.16-1.638-0.337-1.672,0.278c-1.737,0.214-3.293,0.609-5.296,0.558
	c-0.49,0.16-1.637-0.336-1.672,0.279c-5.605,0.434-9.705,2.372-13.1,5.017c-0.279-0.001-0.332,0.226-0.557,0.278
	c-0.583,0.347-1.047,0.811-1.394,1.394c0,0.28-0.226,0.332-0.279,0.558c-2.765,3.46-4.671,7.778-5.296,13.378
	c-0.623,0.12-0.112,1.374-0.278,1.951c0,0.929,0,1.858,0,2.787c0,0.65,0,1.301,0,1.951c-0.632,0.296-0.106,1.752-0.279,2.508
	c0,0.743,0,1.487,0,2.23c0.173,0.757-0.354,2.212,0.279,2.508c0.533,2.348,1.809,3.952,3.066,5.574c0,0.094,0,0.187,0,0.28
	c0.346,0.582,0.81,1.047,1.393,1.393c0.28-0.001,0.332,0.226,0.558,0.278c0.402,0.156,0.68,0.435,0.836,0.836
	c0.251,0.492,0.623,0.863,1.115,1.115c0.346,0.583,0.811,1.047,1.394,1.393c0.28-0.001,0.332,0.226,0.558,0.278
	c0.252,0.492,0.624,0.864,1.115,1.115c0.401,0.156,0.68,0.435,0.836,0.836c0.439,0.676,0.997,1.232,1.672,1.672
	c0.28-0.001,0.332,0.226,0.557,0.279c0.252,0.491,0.624,0.863,1.115,1.115c0.252,0.491,0.624,0.862,1.115,1.114
	c0.346,0.584,0.811,1.048,1.394,1.395c0.279-0.001,0.332,0.226,0.557,0.278c0.252,0.491,0.624,0.863,1.115,1.115
	c0.252,0.49,0.624,0.862,1.115,1.114c0.346,0.583,0.811,1.047,1.394,1.394c0.397,0.067,0.47,0.459,0.836,0.557
	c0.401,0.156,0.68,0.436,0.835,0.837c0.252,0.491,0.624,0.863,1.115,1.114c0.439,0.676,0.997,1.233,1.672,1.673
	c0.397,0.066,0.47,0.459,0.836,0.558c0.251,0.49,0.623,0.863,1.114,1.114c0.346,0.583,0.811,1.048,1.394,1.394
	c0.439,0.676,0.997,1.233,1.672,1.673c0.28-0.001,0.332,0.226,0.558,0.278c1.93,1.601,3.729,3.332,5.853,4.738
	c0,0.093,0,0.186,0,0.278c0.412,0.146,0.702,0.413,1.114,0.558c3.351,2.225,7.14,4.01,11.985,4.738
	c0.052,0.413,0.673,0.256,1.115,0.279c0.667-0.171,2.022,0.35,2.229-0.279c1.122-0.024,1.523-0.063,2.23-0.279
	c2.014-0.613,3.477-2.226,5.295-3.623c2.319-1.782,4.643-3.447,6.689-5.017c0.562-0.431,1.05-1.136,1.393-1.394
	c0.245-0.182,0.621-0.111,0.838-0.278c0.126-0.098,0.154-0.443,0.278-0.558c0.219-0.204,0.585-0.088,0.835-0.278
	c0.127-0.097,0.156-0.445,0.279-0.559c0.198-0.184,0.635-0.09,0.837-0.278c0.77-0.716,1.286-1.65,1.671-2.508
	c0.457,0.125,0.457-1.519,0-1.394c0.034-1.427-0.823-1.964-1.114-3.066c-0.304-0.718-0.705-1.339-1.394-1.672
	c-0.659-0.733-1.106-1.68-2.23-1.951c-0.364-0.284-1.027-0.273-1.393-0.557c0.045-0.458-1.718-0.458-1.673,0
	c-4.896,1.792-6.738,6.638-12.542,7.524c-0.928,0-1.857,0-2.787,0c-1.347,0.047-2.032-0.567-2.787-1.115
	c-0.251-0.491-0.624-0.863-1.115-1.114c-0.452-0.477-0.843-1.015-0.836-1.951c-0.176-0.938,0.36-2.589-0.278-3.065
	c0-0.557,0-1.115,0-1.673c0-1.114,0-2.229,0-3.344c0-1.208,0-2.416,0-3.624c0.38-1.54,1.995-2.861,3.066-3.344
	c0.082-0.037,0.188-0.488,0.278-0.558c1.04-0.795,1.864-1.582,3.066-1.672c0.65,0,1.301,0,1.951,0
	c5.642,0.802,10.875,1.353,15.887,2.23c1.643,0.289,3.61,0.559,5.017,1.115c0.85,0.336,1.696,1.162,2.508,1.672
	c0.291,0.182,0.597,0.096,0.836,0.279c0.204,0.155,0.313,0.39,0.559,0.558c0.398,0.273,0.989,0.557,1.393,0.837
	c0.347,0.238,0.763,0.887,1.115,1.113c0.251,0.163,0.621,0.155,0.836,0.278c1.126,0.652,2.506,1.151,4.181,1.395
	c0.783,0.249,2.903,0.61,3.622,0c4.913-1.221,7.509-4.754,11.149-7.247c0.398-0.067,0.471-0.459,0.835-0.558
	c0.768-0.533,1.419-1.183,1.952-1.951c0-0.279,0.226-0.332,0.278-0.558c1.248-1.67,2.586-3.296,3.624-5.295
	c1.078-2.079,1.747-4.363,2.508-6.689c1.511-4.625,3.442-8.882,6.689-11.706c0.676-0.439,1.232-0.997,1.673-1.672
	c1.012-1.402,2.574-2.256,3.065-4.181c0.615-0.035,0.118-1.183,0.278-1.672c0-0.464,0-0.93,0-1.394c0-0.372,0-0.743,0-1.115
	c0.455,0.125,0.455-1.519,0-1.394c-0.4-1.365-1.292-2.239-2.508-2.787c0.046-0.458-1.719-0.458-1.673,0
	c-0.726,0.112-0.84,0.832-1.673,0.836c-0.583,0.346-1.048,0.811-1.393,1.394c-0.771,1.273-1.896,2.192-2.787,3.344
	c-0.492,0.251-0.863,0.624-1.115,1.115c-2.517,2.793-3.334,8.989-5.853,11.427c-0.492,0.252-0.863,0.624-1.115,1.115
	c-3.107,3.397-10.42,2.586-13.937,5.575c-0.092,0-0.186,0-0.278,0c-0.49,0.251-0.863,0.624-1.113,1.115c0,0.093,0,0.186,0,0.279
	c-1.461,2.443-1.939,5.865-3.624,8.083c-0.583,0.346-1.048,0.811-1.393,1.394c-1.223,0.73-2.168,1.735-4.182,1.672
	c-1.021,0-2.043,0-3.067,0c-2.656-0.315-4.325-1.62-6.408-2.508c-0.373-0.464-1.24-0.434-1.673-0.836
	c-3.816-1.464-7.646-3.625-10.87-5.017c-0.494-0.213-1.148-0.314-1.672-0.558c-1.646-0.764-3.736-2.072-5.853-3.065
	c-0.589-0.277-1.179-0.327-1.672-0.558c-0.973-0.455-2.261-1-2.787-1.672c-0.311-0.396-0.484-0.865-0.558-1.672
	c-0.339-3.711,2.87-3.723,5.853-4.181c4.619-0.709,10.153-1.592,13.936-1.951c0.372,0,0.743,0,1.115,0
	c2-0.143,2.238,1.477,3.903,1.672c-0.201,0.452,1.313,0.452,1.113,0c3.522-0.554,7.545-1.043,11.428-1.672
	c4.52-0.732,10.399-1.407,12.819-3.624c0.862-0.626,1.605-1.37,2.23-2.23c0.861-0.625,1.604-1.369,2.229-2.23
	c0.861-0.625,1.604-1.369,2.229-2.229c0.954-0.719,1.789-1.555,2.509-2.508c0.082-0.568,0.755-0.547,0.837-1.115
	c0.741-0.653,0.846-1.941,1.114-3.066c0.455,0.125,0.455-1.52,0-1.394c-0.396-0.066-0.471-0.459-0.836-0.557
	c0.125-0.456-1.519-0.456-1.394,0c-1.034-0.197-1.196,0.476-2.23,0.278c-0.93,0-1.856,0-2.786,0
	c-1.625,0.218-2.208-0.95-2.787-1.394c-0.234-0.18-0.585-0.09-0.837-0.278c-0.815-0.611-1.393-1.475-2.23-1.951
	c-1.002-0.571-2.428-1.027-3.622-1.115c-0.208-0.629-1.563-0.109-2.229-0.279C89.388,3.731,88.777,3.583,88.691,3.962z"/>
<path fill-rule="evenodd" clip-rule="evenodd" fill="#D3D3D3" d="M60.261,4.52c-0.046-0.604,0.989-0.126,1.394-0.279
	c0.093,0,0.186,0,0.279,0c0.093,0,0.186,0,0.278,0C62.093,4.864,60.839,4.354,60.261,4.52z"/>
<path fill-rule="evenodd" clip-rule="evenodd" fill="#6F6F6F" d="M111.265,8.143c0.463,0.572,0.463,3.052,0,3.624
	C111.265,10.558,111.265,9.35,111.265,8.143z"/>
<path fill-rule="evenodd" clip-rule="evenodd" fill="#A1A1A1" d="M127.153,13.996c0.623,0.12,0.112,1.374,0.278,1.951
	c-0.093,0-0.187,0-0.278,0C127.153,15.296,127.153,14.646,127.153,13.996z"/>
<path fill-rule="evenodd" clip-rule="evenodd" fill="#6F6F6F" d="M3.125,32.112c0,0.65,0,1.301,0,1.951c-0.092,0-0.186,0-0.278,0
	C3.013,33.485,2.502,32.232,3.125,32.112z"/>
<path fill-rule="evenodd" clip-rule="evenodd" fill="#6F6F6F" d="M59.425,2.011c-0.153-0.405,0.326-1.44-0.278-1.393
	c0.086-0.378,0.698-0.231,1.114-0.279c0.372,0,0.743,0,1.115,0c0,0.093,0,0.186,0,0.279c0.023,0.441-0.134,1.063,0.279,1.115
	c0,0.464,0,0.929,0,1.394c0,0.372,0,0.743,0,1.115c-0.405,0.153-1.44-0.326-1.394,0.279c-0.186,0-0.371,0-0.557,0
	c0-0.465,0-0.929,0-1.394C59.681,2.685,59.838,2.063,59.425,2.011z"/>
<path fill-rule="evenodd" clip-rule="evenodd" fill="#6F6F6F" d="M78.934,49.392c1.024,0,2.046,0,3.067,0
	C81.611,49.854,79.326,49.854,78.934,49.392z"/>
<path fill-rule="evenodd" clip-rule="evenodd" fill="#6F6F6F" d="M48.277,56.359c0,1.208,0,2.416,0,3.624c-0.093,0-0.185,0-0.278,0
	C48.177,58.861,47.636,57.02,48.277,56.359z"/>
<path fill-rule="evenodd" clip-rule="evenodd" fill="#6F6F6F" d="M88.691,63.049c0.465,0,0.928,0,1.393,0c0,0.187,0,0.371,0,0.558
	c0,0.743,0,1.486,0,2.229c-0.557,0-1.114,0-1.673,0C88.489,64.893,88.855,64.235,88.691,63.049z"/>
</svg>
