<?xml version="1.0" encoding="utf-8"?>
<!-- Generator: Adobe Illustrator 15.0.0, SVG Export Plug-In  -->
<!DOCTYPE svg PUBLIC "-//W3C//DTD SVG 1.1//EN" "http://www.w3.org/Graphics/SVG/1.1/DTD/svg11.dtd" [
	<!ENTITY ns_flows "http://ns.adobe.com/Flows/1.0/">
]>
<svg version="1.1"
	 xmlns="http://www.w3.org/2000/svg" xmlns:xlink="http://www.w3.org/1999/xlink" xmlns:a="http://ns.adobe.com/AdobeSVGViewerExtensions/3.0/"
	 x="0px" y="0px" width="142px" height="142px" viewBox="-3.984 -14.276 142 142" enable-background="new -3.984 -14.276 142 142"
	 xml:space="preserve">
<defs>
</defs>
<path fill-rule="evenodd" clip-rule="evenodd" fill="#323232" d="M113.354,0.339c-0.201-0.452,1.313-0.452,1.113,0
	C114.097,0.339,113.724,0.339,113.354,0.339z"/>
<path fill-rule="evenodd" clip-rule="evenodd" fill="#323232" d="M112.796,3.126c0-0.093,0-0.186,0-0.279c0.743,0,1.486,0,2.229,0
	c0,0.093,0,0.186,0,0.279C114.283,3.126,113.54,3.126,112.796,3.126z"/>
<path fill-rule="evenodd" clip-rule="evenodd" fill="#727272" d="M97.188,5.078c0,0.372,0,0.743,0,1.115
	C96.735,6.392,96.735,4.878,97.188,5.078z"/>
<path fill-rule="evenodd" clip-rule="evenodd" fill="#323232" d="M106.385,7.307c0.038-0.458,1.914-0.458,1.952,0
	C107.686,7.307,107.037,7.307,106.385,7.307z"/>
<path fill-rule="evenodd" clip-rule="evenodd" fill="#DBDBDB" d="M102.205,7.864c0.373,0,0.743,0,1.116,0
	C103.519,8.316,102.006,8.316,102.205,7.864z"/>
<path fill-rule="evenodd" clip-rule="evenodd" fill="#323232" d="M106.665,10.094c-0.125-0.456,1.519-0.456,1.394,0
	C107.593,10.094,107.129,10.094,106.665,10.094z"/>
<path fill-rule="evenodd" clip-rule="evenodd" fill="#DBDBDB" d="M108.894,10.651c0.455-0.125,0.455,1.519,0,1.394
	C108.894,11.581,108.894,11.116,108.894,10.651z"/>
<path fill-rule="evenodd" clip-rule="evenodd" fill="#A7A7A7" d="M135.649,21.521c0.095,0,0.187,0,0.281,0c0,0.65,0,1.301,0,1.951
	c-0.095,0-0.187,0-0.281,0C135.649,22.822,135.649,22.172,135.649,21.521z"/>
<path fill-rule="evenodd" clip-rule="evenodd" fill="#A7A7A7" d="M133.141,21.8c0.459-0.045,0.459,1.718,0,1.672
	C133.141,22.915,133.141,22.357,133.141,21.8z"/>
<path fill-rule="evenodd" clip-rule="evenodd" d="M95.515,30.161c-0.014,0.356-0.356,0.386-0.278,0.836
	c-0.787,0.23-0.722-0.393-1.393-0.279c-0.102-0.937,1.206-0.464,1.671-0.836C95.515,29.976,95.515,30.068,95.515,30.161z"/>
<path fill-rule="evenodd" clip-rule="evenodd" fill="#DBDBDB" d="M62.907,46.884c0.086-0.378,0.698-0.231,1.115-0.279
	c0,0.093,0,0.186,0,0.279C63.65,46.884,63.278,46.884,62.907,46.884z"/>
<path fill-rule="evenodd" clip-rule="evenodd" fill="#A7A7A7" d="M64.021,46.884c0-0.093,0-0.186,0-0.279c0.372,0,0.743,0,1.115,0
	c0,0.093,0,0.186,0,0.279C64.765,46.884,64.394,46.884,64.021,46.884z"/>
<path fill-rule="evenodd" clip-rule="evenodd" fill="#DBDBDB" d="M65.137,46.884c0-0.093,0-0.186,0-0.279
	c0.441,0.023,1.063-0.134,1.114,0.279C65.88,46.884,65.508,46.884,65.137,46.884z"/>
<path fill-rule="evenodd" clip-rule="evenodd" fill="#DBDBDB" d="M50.922,53.016c0,0.65,0,1.301,0,1.951c0,1.208,0,2.416,0,3.623
	c0,0.094,0,0.187,0,0.278C50.458,57.562,50.458,54.323,50.922,53.016z"/>
<path fill-rule="evenodd" clip-rule="evenodd" fill="#323232" d="M48.135,61.656c0.093,0,0.186,0,0.278,0c0,0.371,0,0.743,0,1.114
	c-0.093,0-0.185,0-0.278,0C48.135,62.399,48.135,62.027,48.135,61.656z"/>
<path fill-rule="evenodd" clip-rule="evenodd" fill="#323232" d="M45.626,62.771c0,0.372,0,0.743,0,1.115
	C45.175,64.085,45.175,62.57,45.626,62.771z"/>
<path fill-rule="evenodd" clip-rule="evenodd" fill="#A7A7A7" d="M48.135,62.771c0.093,0,0.186,0,0.278,0c0,0.372,0,0.743,0,1.115
	C48.001,63.834,48.158,63.212,48.135,62.771z"/>
<path fill-rule="evenodd" clip-rule="evenodd" fill="#A7A7A7" d="M50.922,62.771c0.093,0,0.186,0,0.279,0
	c-0.047,0.417,0.1,1.028-0.279,1.115C50.922,63.514,50.922,63.143,50.922,62.771z"/>
<path fill-rule="evenodd" clip-rule="evenodd" fill="#727272" d="M50.922,64.443c0.093,0,0.186,0,0.279,0c0,0.928,0,1.857,0,2.786
	c-0.093,0-0.186,0-0.279,0C50.922,66.301,50.922,65.371,50.922,64.443z"/>
<path fill-rule="evenodd" clip-rule="evenodd" fill="#A7A7A7" d="M50.922,67.229c0.093,0,0.186,0,0.279,0c0,0.372,0,0.743,0,1.115
	C50.822,68.259,50.97,67.647,50.922,67.229z"/>
<path fill-rule="evenodd" clip-rule="evenodd" fill="#323232" d="M81.023,73.083c0.465,0,0.93,0,1.394,0
	C82.542,73.538,80.898,73.538,81.023,73.083z"/>
<path fill-rule="evenodd" clip-rule="evenodd" fill="#727272" d="M97.466,63.328c0.886-0.786,1.643-1.702,2.787-2.229
	c-0.12,0.343-0.354,0.572-0.836,0.558c0.333,1.524,1.517,2.198,2.23,3.344c-0.347,0.768-0.878,1.353-1.951,1.395
	C99.248,65.077,98.213,64.346,97.466,63.328z"/>
<path fill-rule="evenodd" clip-rule="evenodd" fill="#A7A7A7" d="M128.681,38.801c0.441-0.674,0.998-1.232,1.673-1.672
	C129.916,37.804,129.359,38.362,128.681,38.801z"/>
<path fill-rule="evenodd" clip-rule="evenodd" fill="#A7A7A7" d="M128.403,5.635c0.676,0.439,1.234,0.997,1.673,1.671
	C129.401,6.867,128.844,6.31,128.403,5.635z"/>
<path fill-rule="evenodd" clip-rule="evenodd" fill="#727272" d="M126.175,3.963c-0.471-0.459-1.254-0.606-1.673-1.115
	c1.17-0.316,0.787-2.185,2.229-2.229c0.122,0.248,0.245,0.498,0.558,0.557C127.317,2.504,126.213,2.701,126.175,3.963z"/>
<path fill-rule="evenodd" clip-rule="evenodd" fill="#DBDBDB" d="M76.285,71.133c-0.733-0.289-0.938-1.105-1.673-1.395
	c-0.052-0.226-0.278-0.277-0.278-0.558C75.1,69.714,75.751,70.364,76.285,71.133z"/>
<path fill-rule="evenodd" clip-rule="evenodd" fill="#A7A7A7" d="M71.825,66.951c1.221,0.36,1.753,1.406,2.509,2.229
	C73.377,68.559,72.764,67.592,71.825,66.951z"/>
<path fill-rule="evenodd" clip-rule="evenodd" fill="#727272" d="M49.528,71.689c0.492,0.251,0.864,0.623,1.115,1.114
	C50.152,72.553,49.78,72.181,49.528,71.689z"/>
<path fill-rule="evenodd" clip-rule="evenodd" fill="#727272" d="M89.385,37.965c0.344-0.583,0.809-1.047,1.392-1.393
	C90.432,37.155,89.968,37.62,89.385,37.965z"/>
<path fill-rule="evenodd" clip-rule="evenodd" fill="#A7A7A7" d="M91.615,36.015c0.345-0.583,0.81-1.048,1.393-1.394
	C92.663,35.204,92.198,35.668,91.615,36.015z"/>
<path fill-rule="evenodd" clip-rule="evenodd" fill="#323232" d="M98.861,24.309c0.25-0.491,0.623-0.863,1.114-1.115
	C99.724,23.685,99.352,24.057,98.861,24.309z"/>
<path fill-rule="evenodd" clip-rule="evenodd" fill="#727272" d="M99.975,23.193c0.627-0.86,1.37-1.603,2.229-2.23
	C101.58,21.825,100.836,22.568,99.975,23.193z"/>
<path fill-rule="evenodd" clip-rule="evenodd" fill="#A7A7A7" d="M102.205,20.963c0.719-0.953,1.557-1.789,2.508-2.508
	C103.994,19.408,103.159,20.245,102.205,20.963z"/>
<path fill-rule="evenodd" clip-rule="evenodd" fill="#DBDBDB" d="M104.712,18.455c0.055-0.225,0.281-0.277,0.279-0.557
	c1.005-0.575,1.504-1.654,2.508-2.229C106.688,16.714,105.758,17.643,104.712,18.455z"/>
<path fill-rule="evenodd" clip-rule="evenodd" fill="#323232" d="M104.992,17.898c0.813-1.045,1.742-1.975,2.788-2.787
	c-0.054,0.226-0.28,0.277-0.28,0.557C106.496,16.244,105.997,17.323,104.992,17.898z"/>
<path fill-rule="evenodd" clip-rule="evenodd" fill="#323232" d="M97.188,4.52c0,0.186,0,0.372,0,0.558
	c-0.453-0.199-0.453,1.314,0,1.115c-0.181,1.389,0.773,1.643,1.114,2.508c-2.156-1.813-4.25-3.155-6.688-3.345
	c-1.419-0.11-2.972,0.366-4.738,0.558C66.209,8.157,44.357,10.5,23.608,13.16c-3.997,0.513-7.196,1.371-10.033,3.066
	c-1.758,1.05-3.444,2.288-4.46,3.344c-0.297,0.309-0.434,0.879-0.836,1.393c-0.365,0.468-0.807,0.666-1.115,1.116
	c-2.926,4.272-4.063,10.142-4.181,17.837c-0.042,2.759-0.498,6.302,0,8.64c0.268,1.258,2.034,3.372,3.066,4.737
	c0.194,0.257,0.331,0.608,0.557,0.836c0.473,0.476,1.178,0.655,1.672,1.115c2.145,1.995,4.146,4.24,5.853,5.854
	c1.127,1.065,2.277,1.777,3.345,2.787c0.503,0.477,0.848,1.172,1.394,1.672c0.47,0.431,1.18,0.666,1.672,1.115
	c2.012,1.833,3.823,3.905,5.853,5.853c1.099,1.055,2.321,1.843,3.344,2.787c1.98,1.828,3.706,3.926,5.853,5.853
	c1.003,0.901,2.204,1.632,3.345,2.509c0.736,0.565,1.542,1.377,2.509,1.951c0.328,0.194,0.319,0.051,0.557,0.278
	c0.163,0.156,0.873,0.517,1.393,0.837c0.559,0.342,1.056,0.484,1.952,0.836c2.987,1.172,8.173,3.308,12.542,2.229
	c1.926-0.476,3.612-2.015,5.295-3.345c0.97-0.766,2.004-1.695,3.066-2.508c0.197-0.151,0.627-0.104,0.836-0.279
	c0.323-0.271,0.506-0.856,0.836-1.115c0.241-0.188,0.607-0.103,0.835-0.278c0.452-0.345,1.035-1.179,1.673-1.672
	c0.243-0.188,0.605-0.104,0.836-0.279c0.419-0.318,0.996-0.869,1.673-1.394c1.694-1.313,3.809-2.793,3.9-4.738
	c0.093-1.91-1.256-3.021-2.229-4.459c0.735,0.289,0.939,1.105,1.673,1.395c0.829,0.937,2.264,1.267,3.346,1.95
	c-0.021-0.001-0.278,0.002-0.278,0c0.065,3.051-0.451,3.998-1.951,5.574c-0.207,0.216-0.329,0.657-0.56,0.836
	c-0.194,0.152-0.629,0.104-0.835,0.279c-0.23,0.197-0.323,0.652-0.558,0.836c-0.212,0.164-0.603,0.098-0.837,0.278
	c-0.23,0.18-0.324,0.674-0.557,0.837c-0.269,0.188-0.594,0.091-0.836,0.278c-0.863,0.665-1.591,1.528-2.508,2.229
	c-0.269,0.204-0.596,0.359-0.838,0.557c-0.407,0.333-0.807,0.638-1.393,1.115c-0.438,0.357-0.845,0.603-1.394,1.115
	c-0.335,0.313-0.882,0.636-1.394,1.114c-0.31,0.291-0.699,0.438-1.114,0.837c-0.243,0.232-0.625,0.201-1.115,0.557
	c-0.421,0.307-0.738,0.715-1.394,1.115c-2.341,1.436-4.909,2.448-9.755,1.951c-2.343-0.24-5.128-1.122-7.247-1.951
	c-0.667-0.261-1.441-0.583-1.951-0.836c-0.31-0.154-0.484-0.638-0.836-0.836c-0.794-0.449-1.949-0.846-2.787-1.394
	c-1.178-0.771-2.316-1.701-3.345-2.509c-4.415-3.466-7.715-7.127-12.263-11.427c-1.053-0.996-2.292-1.791-3.344-2.788
	c-0.543-0.513-0.888-1.209-1.394-1.672c-0.473-0.434-1.16-0.647-1.672-1.114c-1.954-1.779-3.757-3.84-5.854-5.854
	c-0.985-0.946-2.227-1.745-3.344-2.786c-0.531-0.496-0.798-1.127-1.394-1.673c-1.033-0.946-2.061-1.578-3.066-2.787
	c-0.189-0.228-0.98-0.816-1.115-1.115c-0.634-1.406-2.252-3.307-2.508-5.295c-0.355-2.762-0.15-6.457,0-9.755
	c0.28-6.175,0.896-11.76,3.345-16.166c0.277-0.498,0.726-0.802,1.115-1.393c0.313-0.478,0.55-1.294,0.836-1.673
	c0.333-0.44,1.057-0.713,1.394-1.115c0.186-0.221,0.111-0.616,0.279-0.835c0.395-0.516,1.024-0.917,1.951-1.672
	c0.462-0.377,0.956-0.804,1.394-1.115c0.515-0.366,1.077-0.47,1.673-0.836c0.551-0.339,1.008-0.925,1.394-1.115
	c1.33-0.654,2.924-0.954,4.459-1.394c0.874-0.25,1.429-0.425,2.229-0.557c9.952-1.642,22.583-2.685,32.888-3.902
	c9.931-1.172,19.761-2.483,30.379-3.623C89.34,2.782,93.732,2.012,97.188,4.52z"/>
<path fill-rule="evenodd" clip-rule="evenodd" fill="#323232" d="M108.337,18.455c0.438-0.675,0.997-1.232,1.673-1.671
	C109.569,17.458,109.012,18.016,108.337,18.455z"/>
<path fill-rule="evenodd" clip-rule="evenodd" fill="#727272" d="M106.107,20.685c0.625-0.86,1.368-1.603,2.23-2.23
	C107.709,19.316,106.966,20.059,106.107,20.685z"/>
<path fill-rule="evenodd" clip-rule="evenodd" fill="#A7A7A7" d="M103.599,23.193c0.719-0.953,1.555-1.789,2.508-2.508
	C105.388,21.638,104.55,22.474,103.599,23.193z"/>
<path fill-rule="evenodd" clip-rule="evenodd" fill="#DBDBDB" d="M101.648,25.145c0.532-0.767,1.184-1.418,1.951-1.951
	c-0.055,0.227-0.28,0.278-0.278,0.558C102.587,24.04,102.381,24.856,101.648,25.145z"/>
<path fill-rule="evenodd" clip-rule="evenodd" fill="#323232" d="M101.37,25.702c0.052-0.226,0.278-0.278,0.278-0.558
	c0.733-0.288,0.939-1.105,1.673-1.393C102.788,24.519,102.136,25.169,101.37,25.702z"/>
<path fill-rule="evenodd" clip-rule="evenodd" fill="#A7A7A7" d="M93.564,37.687c0.252-0.491,0.625-0.863,1.116-1.114
	C94.427,37.063,94.057,37.435,93.564,37.687z"/>
<path fill-rule="evenodd" clip-rule="evenodd" fill="#DBDBDB" d="M91.336,39.917c0.094-1.02,0.953-1.276,1.671-1.672
	C92.579,38.929,91.889,39.354,91.336,39.917z"/>
<path fill-rule="evenodd" clip-rule="evenodd" fill="#323232" d="M86.32,49.393c0.345-0.583,0.81-1.047,1.393-1.394
	C87.366,48.582,86.901,49.047,86.32,49.393z"/>
<path fill-rule="evenodd" clip-rule="evenodd" fill="#A7A7A7" d="M73.776,65c0.862,0.627,1.605,1.37,2.23,2.229
	C75.147,66.604,74.404,65.86,73.776,65z"/>
<path fill-rule="evenodd" clip-rule="evenodd" fill="#727272" d="M95.237,61.656c-0.148-0.401,1.086-0.68,0.278-0.837
	c-0.519-1.403-3.43-2.893-1.114-3.902c1.691-0.687,1.894,2.326,3.344,2.788C96.927,60.373,96.032,60.964,95.237,61.656z"/>
<path fill-rule="evenodd" clip-rule="evenodd" fill="#A7A7A7" d="M126.732,37.129c0.533-0.768,1.183-1.418,1.949-1.951
	C128.149,35.946,127.5,36.596,126.732,37.129z"/>
<path fill-rule="evenodd" clip-rule="evenodd" fill="#727272" d="M126.732,7.586c0.583,0.346,1.048,0.81,1.393,1.393
	C127.542,8.633,127.077,8.169,126.732,7.586z"/>
<path fill-rule="evenodd" clip-rule="evenodd" fill="#323232" d="M62.907,44.097c-1.066-0.471-2.837-1.599-4.181-2.229
	c-0.398-0.188-0.986-0.09-1.393-0.279c-0.483-0.225-1.145-0.784-1.951-1.115c-0.905-0.373-1.952-0.876-3.065-1.393
	c-1.918-0.892-4.693-1.513-4.738-4.181c-0.022-1.318,0.414-1.906,1.114-2.508c0.783-0.672,1.21-0.507,2.509-0.836
	c3.278-0.83,7.335-1.334,11.427-1.951c2.222-0.335,4.642-0.824,6.131-0.558c1.575,0.28,2.433,1.777,4.182,1.951
	c1.258,0.125,3.99-0.855,5.573-1.115c3.911-0.641,7.663-0.977,11.706-1.672c1.963-0.338,4.161-0.613,5.295-1.115
	c1.204-0.532,1.857-1.796,2.787-1.951c-1.116,1.485-1.846,3.357-2.787,5.017c0-0.093,0-0.185,0-0.278
	c-0.465,0.372-1.772-0.101-1.671,0.836c-0.48-0.507-1.311-0.836-1.673,0c-3.54,0.49-10.123,1.438-15.05,2.229
	c-2.479,0.398-3.862,1.068-5.854,0.558c-1.164-0.298-2.161-1.346-3.065-1.951c-5.137,1.159-10.688,1.335-16.166,2.508
	c-0.418,0.089-1.673-0.066-1.673,0.836c0.56,0.822,1.619,0.964,2.509,1.394c5.626,2.717,12.407,5.556,18.117,8.64
	c-1.389-0.099-2.206-0.767-3.902-0.557C66.244,43.733,64.213,44.277,62.907,44.097z"/>
<path fill-rule="evenodd" clip-rule="evenodd" fill="#323232" d="M98.861,33.227c1.691-0.44,4.464-0.874,5.295-1.672
	c0.577-0.554,0.848-0.766,1.395-1.394c0.387-0.445,0.945-0.825,1.114-1.114c0.471-0.807,0.505-1.926,0.835-2.787
	c0.152-0.394,0.375-0.641,0.559-1.115c1.026-2.662,2.408-5.123,3.901-6.968c0.568-0.702,1.189-1.404,1.673-1.951
	c1.432-1.617,3.037-3.53,4.737-4.459c2.855-1.56,6.233-0.641,7.806,1.394c1.549,2.006,1.292,3.234,1.114,6.131
	c-0.112,1.808,0.04,3.491-0.279,4.46c-0.284,0.862-1.182,1.901-1.951,2.787c-0.663,0.762-1.753,1.458-2.508,2.23
	c-1.557,1.59-3.153,3.538-4.182,5.295c-1.871,3.2-2.636,7.188-3.902,10.313c-0.214,0.531-0.339,1.173-0.557,1.672
	c-0.192,0.439-0.945,0.817-0.557,1.393c-3.32,2.627-6.622,5.27-10.033,7.804c2.178-2.083,4.569-4.189,6.408-7.246
	c1.605-2.664,2.705-5.932,3.903-9.476c2.015-5.958,4.07-8.63,7.805-12.263c2.18-2.125,3.628-3.604,3.344-8.362
	c-0.152-2.539-0.437-3.06-1.951-3.902c-2.913-1.618-5.902,2.771-7.804,4.738c-0.646,0.668-0.976,1.205-1.672,1.951
	c-0.327,0.349-0.491,0.797-0.836,1.394c-0.292,0.504-1.062,1.646-1.395,2.508c-0.242,0.627-0.32,1.641-0.557,2.229
	c-0.108,0.268-0.427,0.502-0.557,0.836c-0.283,0.717-0.686,2.349-1.116,3.066c-0.066,0.112-0.515,0.183-0.557,0.279
	c-2.479,5.499-10.271,3.814-15.33,7.247c0.124-0.248,0.244-0.499,0.557-0.558c0.493-0.251,0.863-0.623,1.116-1.114
	c0.608-0.878,1.468-1.506,1.951-2.509c1.233-0.2,2.163,1.349,2.786,0.836c0.535-0.752,0.701-1.345-0.557-1.393
	C98.861,33.413,98.861,33.32,98.861,33.227z"/>
<path fill-rule="evenodd" clip-rule="evenodd" fill="#323232" d="M50.922,54.967c1.67-1.142,2.625-2.593,4.738-2.787
	c0.721-0.067,1.847,0.409,2.787,0.558c4.531,0.713,9.292,1.15,13.937,1.951c2.742,0.473,5.269,1.107,7.246,2.229
	c0.601,0.343,1.088,1,1.671,1.394c0.573,0.386,1.386,0.72,1.951,1.115c0.669,0.466,1.023,1.058,1.673,1.393
	c2.454,1.266,6.834,1.581,10.312,0.558c0.054-0.226,0.28-0.277,0.278-0.558c0.808,0.157-0.427,0.436-0.278,0.837
	c-1.604,1.182-3.109,2.463-4.738,3.623c0.055-0.227,0.28-0.278,0.278-0.558c-3.27,0.37-6.339-1.142-8.36-2.509
	c-0.204-0.138-0.608-0.107-0.835-0.278c-0.134-0.1-0.152-0.471-0.28-0.558c-0.271-0.187-0.591-0.093-0.836-0.278
	c-0.41-0.314-0.966-0.959-1.673-1.394c-0.709-0.437-1.757-1.117-2.508-1.394c-1.455-0.538-3.408-0.536-5.295-0.836
	c-4.078-0.649-8.49-1.515-12.821-2.23c-2.629-0.434-3.243-0.048-5.017,1.394c-0.83,0.675-1.431,1.415-2.23,1.951
	C50.922,57.382,50.922,56.174,50.922,54.967z"/>
<path fill-rule="evenodd" clip-rule="evenodd" fill="#323232" d="M50.922,64.164c0.528-0.494,1.841-0.203,2.787-0.278
	c0-0.279,0-0.558,0-0.836c-0.296-0.633-1.752-0.106-2.508-0.279c-0.093,0-0.186,0-0.279,0c0-0.558,0-1.114,0-1.672
	c0.604-0.048,0.127,0.988,0.279,1.393c1.038,0.172,2.943-0.526,2.788,0.837c0.155,1.363-1.75,0.665-2.788,0.836
	c0,0.093,0,0.186,0,0.279c-0.093,0-0.186,0-0.279,0C50.922,64.35,50.922,64.257,50.922,64.164z"/>
<path fill-rule="evenodd" clip-rule="evenodd" fill="#727272" d="M51.201,62.771c0.756,0.173,2.212-0.354,2.508,0.279
	c0,0.278,0,0.557,0,0.836c-0.946,0.075-2.259-0.216-2.787,0.278c0-0.093,0-0.186,0-0.278C51.301,63.799,51.153,63.188,51.201,62.771
	z"/>
<path fill-rule="evenodd" clip-rule="evenodd" fill="#727272" d="M109.729,0.618c0.036-0.616,1.185-0.118,1.673-0.279
	C111.368,0.955,110.22,0.458,109.729,0.618z"/>
<path fill-rule="evenodd" clip-rule="evenodd" fill="#727272" d="M116.14,0.339c0.405,0.153,1.44-0.325,1.395,0.279
	C117.13,0.466,116.094,0.943,116.14,0.339z"/>
<path fill-rule="evenodd" clip-rule="evenodd" fill="#727272" d="M107.221,0.897c0.036-0.616,1.184-0.119,1.673-0.279
	C108.86,1.233,107.712,0.737,107.221,0.897z"/>
<path fill-rule="evenodd" clip-rule="evenodd" fill="#727272" d="M104.712,1.175c0.036-0.615,1.183-0.118,1.673-0.278
	C106.352,1.513,105.204,1.015,104.712,1.175z"/>
<path fill-rule="evenodd" clip-rule="evenodd" fill="#727272" d="M102.205,1.454c0.036-0.616,1.182-0.118,1.673-0.279
	C103.843,1.791,102.696,1.293,102.205,1.454z"/>
<path fill-rule="evenodd" clip-rule="evenodd" fill="#727272" d="M115.026,2.848c0.405,0.152,1.441-0.325,1.393,0.279
	c-0.465,0-0.928,0-1.393,0C115.026,3.034,115.026,2.94,115.026,2.848z"/>
<path fill-rule="evenodd" clip-rule="evenodd" fill="#727272" d="M108.616,3.405c0.034-0.616,1.182-0.119,1.673-0.279
	C110.252,3.742,109.104,3.245,108.616,3.405z"/>
<path fill-rule="evenodd" clip-rule="evenodd" fill="#727272" d="M106.107,3.684c0.034-0.615,1.183-0.118,1.673-0.278
	C107.744,4.021,106.596,3.523,106.107,3.684z"/>
<path fill-rule="evenodd" clip-rule="evenodd" fill="#727272" d="M103.599,3.963c0.034-0.616,1.182-0.119,1.673-0.279
	C105.236,4.299,104.087,3.802,103.599,3.963z"/>
<path fill-rule="evenodd" clip-rule="evenodd" fill="#727272" d="M101.09,4.241c0.034-0.616,1.183-0.118,1.671-0.278
	C102.727,4.578,101.58,4.081,101.09,4.241z"/>
<path fill-rule="evenodd" clip-rule="evenodd" fill="#727272" d="M123.108,5.078c0.631,0.298,1.227,0.632,1.673,1.115
	c-0.999,0.312-0.943,2.816-2.229,1.951C121.145,7.256,123.371,6.532,123.108,5.078z"/>
<path fill-rule="evenodd" clip-rule="evenodd" fill="#727272" d="M101.648,10.373c0.93,0,1.856,0,2.786,0
	C104.134,10.834,101.948,10.834,101.648,10.373z"/>
<path fill-rule="evenodd" clip-rule="evenodd" fill="#727272" d="M135.93,23.472c-0.16,0.49,0.336,1.638-0.281,1.672
	c0-0.557,0-1.115,0-1.672C135.744,23.472,135.835,23.472,135.93,23.472z"/>
<path fill-rule="evenodd" clip-rule="evenodd" fill="#727272" d="M95.237,30.998c-0.03,0.712-0.511,0.976-0.836,1.394
	c-0.859-0.371-2.836-0.72-2.229-1.672c0.362-0.836,1.192-0.507,1.673,0C94.515,30.605,94.45,31.228,95.237,30.998z"/>
<path fill-rule="evenodd" clip-rule="evenodd" fill="#727272" d="M48.414,63.886c0,0.371,0,0.743,0,1.114
	c-0.271-0.007-0.216-0.341-0.278-0.557c-0.211-0.811-2.297,0.252-2.509-0.558c0-0.372,0-0.743,0-1.115c0.836,0,1.672,0,2.509,0
	C48.158,63.212,48.001,63.834,48.414,63.886z"/>
<path fill-rule="evenodd" clip-rule="evenodd" fill="#A7A7A7" d="M68.759,66.395c-0.045-0.458,1.718-0.458,1.673,0
	C69.874,66.395,69.317,66.395,68.759,66.395z"/>
<path fill-rule="evenodd" clip-rule="evenodd" fill="#DBDBDB" d="M48.414,66.395c0.64,0.567,0.101,2.313,0.278,3.344
	C48.053,69.17,48.592,67.424,48.414,66.395z"/>
<path fill-rule="evenodd" clip-rule="evenodd" fill="#727272" d="M53.43,73.919c0.93,0,1.859,0,2.787,0
	C55.917,74.38,53.731,74.38,53.43,73.919z"/>
<path fill-rule="evenodd" clip-rule="evenodd" fill="#FFFFFF" d="M111.402,0.339c0.651,0,1.301,0,1.952,0c0.37,0,0.743,0,1.113,0
	c0.559,0,1.116,0,1.673,0c-0.046,0.604,0.99,0.127,1.395,0.279c2.879,0.188,5.085,1.047,6.968,2.229
	c0.419,0.509,1.202,0.656,1.673,1.115c1.01,0.289,1.729,0.871,2.228,1.672c0.441,0.675,0.998,1.232,1.673,1.671
	c2.991,3.049,5.033,7.045,5.573,12.542c0,0.558,0,1.114,0,1.672c0,0.65,0,1.301,0,1.951c0,0.558,0,1.115,0,1.672
	c-0.376,5.382-2.496,9.022-5.295,11.984c-0.675,0.44-1.231,0.998-1.673,1.672c-4.491,3.991-9.445,7.426-14.214,11.148
	c-4.722,3.688-9.336,7.617-14.214,11.149c-1.145,0.527-1.901,1.443-2.787,2.229c-1.749,1.594-3.874,2.812-5.852,4.46
	c-0.084,0.067-0.202,0.522-0.278,0.557c-0.642,0.288-1.489,0.796-2.23,1.394c-1.641,1.321-3.359,3.405-6.689,3.345
	c-0.464,0-0.929,0-1.394,0s-0.928,0-1.393,0c-1.082-0.684-2.517-1.014-3.346-1.95c-0.533-0.769-1.185-1.419-1.951-1.952
	c-0.756-0.823-1.288-1.869-2.509-2.229c-0.364-0.284-1.027-0.273-1.393-0.557c0.045-0.458-1.718-0.458-1.673,0
	c-4.896,1.792-6.738,6.638-12.542,7.524c-0.928,0-1.857,0-2.787,0c-1.347,0.047-2.032-0.567-2.787-1.115
	c-0.251-0.491-0.624-0.863-1.115-1.114c-0.452-0.477-0.843-1.015-0.836-1.951c-0.178-1.03,0.361-2.776-0.278-3.344
	c0-0.465,0-0.93,0-1.395c0-0.371,0-0.743,0-1.114c0-0.372,0-0.743,0-1.115c0-0.371,0-0.743,0-1.114c0-3.252,0-6.503,0-9.755
	c0.202-4.527,4.162-5.643,8.362-6.689c1.643-0.409,3.477-0.952,5.017-0.836c1.766,0,3.53,0,5.295,0
	c1.696-0.209,2.514,0.458,3.902,0.557c3.205,0.752,5.369,2.63,8.081,3.344c2.389,0.63,5.436-0.442,6.689-2.229
	c0.232-0.33,0.089-0.743,0.279-1.115c0.274-0.532,0.696-1.437,1.115-2.509c0.638-1.634,1.076-3.333,2.23-4.459
	c0.583-0.345,1.047-0.81,1.392-1.393c0.122-0.343,0.356-0.573,0.838-0.558c0.583-0.347,1.048-0.811,1.393-1.394
	c0.276-0.931,1.117-1.297,1.394-2.229c0.325-0.418,0.806-0.682,0.836-1.394c-0.078-0.45,0.265-0.48,0.278-0.836
	c0.941-1.659,1.671-3.531,2.787-5.017c0.1-0.366,0.492-0.438,0.559-0.836c0.491-0.252,0.863-0.624,1.114-1.115
	c0.861-0.625,1.604-1.369,2.229-2.23c0.954-0.719,1.789-1.555,2.508-2.508c1.046-0.812,1.976-1.741,2.787-2.787
	c0-0.28,0.227-0.332,0.28-0.557c0.741-0.653,0.846-1.941,1.114-3.066c0.455,0.125,0.455-1.52,0-1.394
	c-0.367-0.099-0.438-0.491-0.836-0.557c0.125-0.456-1.519-0.456-1.394,0c-1.034-0.197-1.196,0.476-2.23,0.278
	c-0.93,0-1.856,0-2.786,0c-1.775,0.104-2.326-1.017-3.346-1.672c-0.341-0.866-1.295-1.12-1.114-2.508c0-0.372,0-0.743,0-1.115
	c0-0.186,0-0.372,0-0.558c0.647-2.048,2.17-3.219,5.017-3.066c0.491-0.161,1.639,0.337,1.673-0.279c0.278,0,0.557,0,0.835,0
	c0.491-0.16,1.64,0.337,1.673-0.278c0.279,0,0.558,0,0.836,0c0.491-0.16,1.639,0.336,1.673-0.279c0.278,0,0.557,0,0.835,0
	C110.22,0.458,111.368,0.955,111.402,0.339z M111.124,3.126c-0.278,0-0.557,0-0.835,0c-0.491,0.16-1.639-0.337-1.673,0.279
	c-0.278,0-0.558,0-0.836,0c-0.49,0.16-1.639-0.337-1.673,0.278c-0.278,0-0.557,0-0.835,0c-0.491,0.16-1.639-0.336-1.673,0.279
	c-0.278,0-0.557,0-0.838,0c-0.488,0.16-1.637-0.337-1.671,0.278c-2.492,0.842-0.65,3.25,1.114,3.623
	c-0.198,0.452,1.314,0.452,1.116,0c1.056-0.152,1.74-0.674,3.064-0.558c0.651,0,1.301,0,1.952,0c1.643,0.216,2.75,0.966,3.064,2.509
	c0,1.208,0,2.416,0,3.624c0.053,1.63-0.705,2.454-1.392,3.345c-0.676,0.439-1.234,0.997-1.673,1.671
	c-0.862,0.627-1.605,1.37-2.23,2.23c-0.953,0.72-1.789,1.556-2.508,2.508c-0.768,0.533-1.419,1.184-1.951,1.951
	c0,0.28-0.227,0.332-0.278,0.558c-1.689,1.934-2.785,4.462-3.903,6.968c-0.488,0.253-0.509,0.976-0.835,1.394
	c-0.483,1.003-1.343,1.63-1.951,2.509c-0.491,0.251-0.864,0.623-1.116,1.114c-0.313,0.059-0.433,0.31-0.557,0.558
	c-0.718,0.396-1.577,0.653-1.671,1.672c-1.461,2.443-1.939,5.865-3.624,8.083c-0.583,0.346-1.048,0.811-1.393,1.394
	c-1.223,0.73-2.168,1.735-4.182,1.672c-1.021,0-2.043,0-3.067,0c-4.712-0.955-7.5-3.833-12.82-4.181
	c-0.051-0.413-0.673-0.256-1.114-0.279c-0.372,0-0.743,0-1.115,0c-0.417,0.047-1.028-0.1-1.115,0.279
	c-4.694,1.345-11.49,0.587-11.985,6.131c-0.464,1.307-0.464,4.546,0,5.853c0,0.743,0,1.487,0,2.23c0,0.558,0,1.114,0,1.672
	c0,0.372,0,0.743,0,1.115c0,0.093,0,0.186,0,0.278s0,0.186,0,0.279c0,0.928,0,1.857,0,2.786c0.048,0.418-0.1,1.029,0.279,1.115
	c0.047,0.79,0.511,1.162,0.558,1.951c7.696,4.902,12.061-9.746,20.626-6.41c0.226,0.088,0.934,0.777,1.392,1.114
	c0.628,0.86,1.371,1.604,2.23,2.229c1.435,1.075,2.346,2.672,4.459,3.066c0.038,0.459,1.913,0.459,1.951,0
	c3.763-0.603,5.27-3.463,8.082-5.017c1.629-1.16,3.134-2.441,4.738-3.623c0.795-0.692,1.69-1.283,2.508-1.951
	c1.651-1.695,3.665-3.026,5.576-4.46c3.411-2.534,6.713-5.176,10.033-7.804c1.654-1.292,3.313-2.778,4.737-3.901
	c0.705-0.557,1.703-1.157,2.23-1.394c0.086-0.039,0.182-0.488,0.278-0.557c1.498-1.077,3.287-2.69,4.738-3.345
	c0.488-0.221,0.614-1.392,1.394-1.115c0.768-0.533,1.417-1.183,1.949-1.951c2.238-3.152,4.136-6.643,4.46-11.706
	c0.459,0.046,0.459-1.718,0-1.672c-0.307-5.639-2.432-9.459-5.017-12.821c-0.345-0.583-0.81-1.047-1.393-1.393
	c-0.549-0.475-1.394-0.651-1.673-1.394c-0.092,0-0.186,0-0.278,0c-0.446-0.482-1.042-0.816-1.673-1.115
	c-2.117-0.762-4.079-1.681-6.689-1.951c0.049-0.604-0.987-0.126-1.393-0.279c-0.743,0-1.486,0-2.229,0
	C112.306,3.008,111.158,2.511,111.124,3.126z"/>
<path fill-rule="evenodd" clip-rule="evenodd" fill="#727272" d="M111.124,3.126c0.034-0.616,1.183-0.118,1.673-0.279
	c0,0.093,0,0.186,0,0.279C112.24,3.126,111.681,3.126,111.124,3.126z"/>
<path fill-rule="evenodd" clip-rule="evenodd" fill="#727272" d="M111.402,9.815c0.463,0.572,0.463,3.052,0,3.624
	C111.402,12.231,111.402,11.023,111.402,9.815z"/>
<path fill-rule="evenodd" clip-rule="evenodd" fill="#727272" d="M97.466,32.67c0.693-0.043,0.863,0.438,1.395,0.557
	c0,0.093,0,0.186,0,0.279c1.258,0.048,1.092,0.641,0.557,1.393c-0.623,0.513-1.553-1.036-2.786-0.836
	C96.958,33.646,96.978,32.923,97.466,32.67z"/>
<path fill-rule="evenodd" clip-rule="evenodd" fill="#A7A7A7" d="M62.907,44.097c1.306,0.181,3.337-0.364,4.181,0.279
	c-1.765,0-3.53,0-5.295,0C61.878,43.997,62.49,44.145,62.907,44.097z"/>
<path fill-rule="evenodd" clip-rule="evenodd" fill="#727272" d="M135.649,19.849c0.617,0.035,0.121,1.183,0.281,1.672
	c-0.095,0-0.187,0-0.281,0C135.649,20.963,135.649,20.407,135.649,19.849z"/>
<path fill-rule="evenodd" clip-rule="evenodd" fill="#727272" d="M79.071,51.065c1.024,0,2.046,0,3.067,0
	C81.748,51.526,79.462,51.526,79.071,51.065z"/>
<path fill-rule="evenodd" clip-rule="evenodd" fill="#727272" d="M48.414,51.901c0,3.251,0,6.503,0,9.755c-0.093,0-0.185,0-0.278,0
	C48.319,58.496,47.765,54.597,48.414,51.901z"/>
<path fill-rule="evenodd" clip-rule="evenodd" fill="#323232" d="M80.465,70.296c0.651,0,1.301,0,1.951,0
	C82.378,70.755,80.503,70.755,80.465,70.296z"/>
</svg>
