<?xml version="1.0" encoding="utf-8"?>
<!-- Generator: Adobe Illustrator 15.0.0, SVG Export Plug-In  -->
<!DOCTYPE svg PUBLIC "-//W3C//DTD SVG 1.1//EN" "http://www.w3.org/Graphics/SVG/1.1/DTD/svg11.dtd" [
	<!ENTITY ns_flows "http://ns.adobe.com/Flows/1.0/">
]>
<svg version="1.1"
	 xmlns="http://www.w3.org/2000/svg" xmlns:xlink="http://www.w3.org/1999/xlink" xmlns:a="http://ns.adobe.com/AdobeSVGViewerExtensions/3.0/"
	 x="0px" y="0px" width="142px" height="142px" viewBox="-4.072 -16.778 142 142" enable-background="new -4.072 -16.778 142 142"
	 xml:space="preserve">
<defs>
</defs>
<path fill-rule="evenodd" clip-rule="evenodd" fill="#1B1B1B" d="M89.575,0.346c0.3-0.461,2.486-0.461,2.786,0
	C91.432,0.346,90.503,0.346,89.575,0.346z"/>
<path fill-rule="evenodd" clip-rule="evenodd" fill="#1B1B1B" d="M87.066,0.625c-0.048-0.604,0.988-0.126,1.393-0.279
	C88.507,0.95,87.472,0.472,87.066,0.625z"/>
<path fill-rule="evenodd" clip-rule="evenodd" fill="#1B1B1B" d="M84.559,0.903c-0.048-0.604,0.987-0.126,1.393-0.279
	C85.999,1.229,84.963,0.75,84.559,0.903z"/>
<path fill-rule="evenodd" clip-rule="evenodd" fill="#1B1B1B" d="M82.328,1.182c0.053-0.413,0.674-0.255,1.114-0.278
	c-0.016,0.17-0.04,0.33-0.278,0.278c-0.092,0-0.187,0-0.278,0C82.699,1.182,82.515,1.182,82.328,1.182z"/>
<path fill-rule="evenodd" clip-rule="evenodd" fill="#1B1B1B" d="M79.82,1.461c0.052-0.413,0.673-0.256,1.114-0.279
	C80.882,1.594,80.261,1.438,79.82,1.461z"/>
<path fill-rule="evenodd" clip-rule="evenodd" fill="#1B1B1B" d="M77.313,1.739c0.05-0.413,0.673-0.255,1.113-0.278
	C78.374,1.874,77.753,1.716,77.313,1.739z"/>
<path fill-rule="evenodd" clip-rule="evenodd" fill="#1B1B1B" d="M74.804,2.018c0.05-0.413,0.673-0.255,1.114-0.279
	C75.865,2.152,75.244,1.995,74.804,2.018z"/>
<path fill-rule="evenodd" clip-rule="evenodd" fill="#1B1B1B" d="M72.296,2.297c-0.049-0.604,0.987-0.126,1.392-0.279
	c0,0.093,0,0.186,0,0.279c-0.092,0-0.186,0-0.278,0C73.039,2.297,72.666,2.297,72.296,2.297z"/>
<path fill-rule="evenodd" clip-rule="evenodd" fill="#1B1B1B" d="M69.785,2.576c-0.047-0.604,0.99-0.126,1.395-0.279
	C71.228,2.901,70.192,2.423,69.785,2.576z"/>
<path fill-rule="evenodd" clip-rule="evenodd" fill="#1B1B1B" d="M67.277,2.854c-0.046-0.604,0.989-0.126,1.394-0.278
	C68.719,3.18,67.683,2.702,67.277,2.854z"/>
<path fill-rule="evenodd" clip-rule="evenodd" fill="#1B1B1B" d="M65.048,3.133c0.051-0.413,0.673-0.256,1.114-0.279
	C66.111,3.267,65.489,3.109,65.048,3.133z"/>
<path fill-rule="evenodd" clip-rule="evenodd" fill="#1B1B1B" d="M89.297,3.133c0.391-0.462,2.674-0.462,3.064,0
	C91.34,3.133,90.318,3.133,89.297,3.133z"/>
<path fill-rule="evenodd" clip-rule="evenodd" fill="#1B1B1B" d="M62.54,3.412c0.052-0.413,0.673-0.255,1.115-0.278
	C63.603,3.546,62.98,3.389,62.54,3.412z"/>
<path fill-rule="evenodd" clip-rule="evenodd" fill="#1B1B1B" d="M86.788,3.412c0.086-0.378,0.697-0.231,1.114-0.278
	C87.85,3.546,87.229,3.389,86.788,3.412z"/>
<path fill-rule="evenodd" clip-rule="evenodd" fill="#1B1B1B" d="M60.031,3.69c-0.047-0.604,0.989-0.126,1.394-0.279
	C61.472,4.016,60.437,3.538,60.031,3.69z"/>
<path fill-rule="evenodd" clip-rule="evenodd" fill="#1B1B1B" d="M84.28,3.69c0.086-0.378,0.697-0.231,1.113-0.279
	C85.342,3.824,84.721,3.667,84.28,3.69z"/>
<path fill-rule="evenodd" clip-rule="evenodd" fill="#1B1B1B" d="M57.523,3.969c-0.047-0.605,0.989-0.126,1.394-0.279
	C58.963,4.294,57.928,3.817,57.523,3.969z"/>
<path fill-rule="evenodd" clip-rule="evenodd" fill="#1B1B1B" d="M81.771,3.969c0.006-0.271,0.341-0.217,0.557-0.279
	c0.093,0,0.187,0,0.279,0c0.186,0,0.37,0,0.557,0C83.212,4.294,82.177,3.817,81.771,3.969z"/>
<path fill-rule="evenodd" clip-rule="evenodd" fill="#1B1B1B" d="M55.293,4.248c0.052-0.413,0.673-0.256,1.115-0.279
	C56.356,4.382,55.734,4.225,55.293,4.248z"/>
<path fill-rule="evenodd" clip-rule="evenodd" fill="#1B1B1B" d="M79.264,4.248c0-0.093,0-0.187,0-0.279c0.184,0,0.37,0,0.557,0
	c0.278,0,0.557,0,0.835,0C80.702,4.574,79.668,4.095,79.264,4.248z"/>
<path fill-rule="evenodd" clip-rule="evenodd" fill="#1B1B1B" d="M52.785,4.526c0.052-0.413,0.673-0.255,1.115-0.278
	C53.848,4.661,53.226,4.503,52.785,4.526z"/>
<path fill-rule="evenodd" clip-rule="evenodd" fill="#1B1B1B" d="M76.753,4.526c-0.046-0.604,0.99-0.126,1.395-0.278
	C78.193,4.852,77.16,4.374,76.753,4.526z"/>
<path fill-rule="evenodd" clip-rule="evenodd" fill="#1B1B1B" d="M50.276,4.805c-0.046-0.604,0.989-0.126,1.394-0.278
	C51.717,5.131,50.681,4.653,50.276,4.805z"/>
<path fill-rule="evenodd" clip-rule="evenodd" fill="#1B1B1B" d="M74.523,4.805c0.088-0.378,0.699-0.23,1.116-0.278
	C75.587,4.939,74.966,4.782,74.523,4.805z"/>
<path fill-rule="evenodd" clip-rule="evenodd" fill="#1B1B1B" d="M106.297,4.805c0.038-0.458,1.914-0.458,1.952,0
	C107.598,4.805,106.948,4.805,106.297,4.805z"/>
<path fill-rule="evenodd" clip-rule="evenodd" fill="#1B1B1B" d="M48.047,5.084c0.052-0.413,0.673-0.255,1.115-0.279
	C49.11,5.218,48.488,5.061,48.047,5.084z"/>
<path fill-rule="evenodd" clip-rule="evenodd" fill="#1B1B1B" d="M72.015,5.084c0.087-0.378,0.699-0.231,1.116-0.279
	C73.079,5.218,72.458,5.061,72.015,5.084z"/>
<path fill-rule="evenodd" clip-rule="evenodd" fill="#1B1B1B" d="M45.817,5.362c0.052-0.413,0.674-0.255,1.115-0.278
	C46.88,5.497,46.258,5.339,45.817,5.362z"/>
<path fill-rule="evenodd" clip-rule="evenodd" fill="#1B1B1B" d="M69.507,5.362c0.009-0.271,0.341-0.216,0.559-0.278
	c0.185,0,0.371,0,0.558,0C70.57,5.497,69.949,5.339,69.507,5.362z"/>
<path fill-rule="evenodd" clip-rule="evenodd" fill="#1B1B1B" d="M43.308,5.641c0.052-0.413,0.674-0.255,1.116-0.279
	c0,0.093,0,0.186,0,0.279c-0.093,0-0.186,0-0.279,0C43.866,5.641,43.587,5.641,43.308,5.641z"/>
<path fill-rule="evenodd" clip-rule="evenodd" fill="#1B1B1B" d="M66.999,5.641c0.086-0.378,0.698-0.231,1.115-0.279
	C68.062,5.775,67.441,5.618,66.999,5.641z"/>
<path fill-rule="evenodd" clip-rule="evenodd" fill="#1B1B1B" d="M41.079,5.92c0.052-0.413,0.674-0.255,1.115-0.279
	C42.142,6.054,41.52,5.897,41.079,5.92z"/>
<path fill-rule="evenodd" clip-rule="evenodd" fill="#1B1B1B" d="M64.491,5.92c-0.047-0.604,0.988-0.126,1.394-0.279
	C65.931,6.246,64.896,5.768,64.491,5.92z"/>
<path fill-rule="evenodd" clip-rule="evenodd" fill="#1B1B1B" d="M38.57,6.199c0.052-0.413,0.673-0.256,1.115-0.279
	C39.633,6.333,39.012,6.176,38.57,6.199z"/>
<path fill-rule="evenodd" clip-rule="evenodd" fill="#1B1B1B" d="M62.261,6.199c0.086-0.378,0.698-0.231,1.115-0.279
	C63.324,6.333,62.702,6.176,62.261,6.199z"/>
<path fill-rule="evenodd" clip-rule="evenodd" fill="#1B1B1B" d="M36.341,6.477c0.052-0.413,0.674-0.255,1.115-0.278
	C37.404,6.611,36.782,6.454,36.341,6.477z"/>
<path fill-rule="evenodd" clip-rule="evenodd" fill="#1B1B1B" d="M59.753,6.477c0-0.092,0-0.186,0-0.278c0.278,0,0.557,0,0.836,0
	c0.093,0,0.186,0,0.278,0C60.815,6.611,60.194,6.454,59.753,6.477z"/>
<path fill-rule="evenodd" clip-rule="evenodd" fill="#1B1B1B" d="M33.833,6.756c0.051-0.413,0.673-0.255,1.115-0.279
	C34.896,6.89,34.274,6.733,33.833,6.756z"/>
<path fill-rule="evenodd" clip-rule="evenodd" fill="#1B1B1B" d="M57.244,6.756c0.086-0.378,0.698-0.231,1.115-0.279
	C58.307,6.89,57.686,6.733,57.244,6.756z"/>
<path fill-rule="evenodd" clip-rule="evenodd" fill="#1B1B1B" d="M31.603,7.035c0.051-0.413,0.673-0.255,1.115-0.278
	C32.666,7.169,32.044,7.012,31.603,7.035z"/>
<path fill-rule="evenodd" clip-rule="evenodd" fill="#1B1B1B" d="M54.736,7.035c-0.047-0.604,0.988-0.126,1.393-0.278
	C56.176,7.361,55.141,6.882,54.736,7.035z"/>
<path fill-rule="evenodd" clip-rule="evenodd" fill="#1B1B1B" d="M29.095,7.313c0.051-0.413,0.673-0.256,1.114-0.279
	c0,0.093,0,0.186,0,0.279c-0.093,0-0.186,0-0.278,0C29.651,7.313,29.373,7.313,29.095,7.313z"/>
<path fill-rule="evenodd" clip-rule="evenodd" fill="#1B1B1B" d="M52.506,7.313c0.087-0.378,0.698-0.231,1.115-0.279
	C53.569,7.448,52.947,7.291,52.506,7.313z"/>
<path fill-rule="evenodd" clip-rule="evenodd" fill="#1B1B1B" d="M26.865,7.592c0.052-0.413,0.673-0.255,1.114-0.279
	C27.928,7.727,27.306,7.569,26.865,7.592z"/>
<path fill-rule="evenodd" clip-rule="evenodd" fill="#1B1B1B" d="M49.998,7.592c-0.047-0.604,0.989-0.126,1.394-0.279
	C51.438,7.917,50.403,7.44,49.998,7.592z"/>
<path fill-rule="evenodd" clip-rule="evenodd" fill="#1B1B1B" d="M47.768,7.871c0.086-0.378,0.698-0.231,1.115-0.278
	C48.831,8.005,48.209,7.848,47.768,7.871z"/>
<path fill-rule="evenodd" clip-rule="evenodd" fill="#1B1B1B" d="M22.127,8.149c-0.047-0.604,0.988-0.126,1.393-0.279
	C23.567,8.476,22.531,7.998,22.127,8.149z"/>
<path fill-rule="evenodd" clip-rule="evenodd" fill="#1B1B1B" d="M45.26,8.149c-0.047-0.604,0.988-0.126,1.394-0.279
	C46.701,8.476,45.665,7.998,45.26,8.149z"/>
<path fill-rule="evenodd" clip-rule="evenodd" fill="#1B1B1B" d="M102.954,8.149c-0.049-0.604,0.987-0.126,1.392-0.279
	C104.395,8.476,103.358,7.998,102.954,8.149z"/>
<path fill-rule="evenodd" clip-rule="evenodd" fill="#1B1B1B" d="M43.03,8.429c0.086-0.379,0.698-0.231,1.115-0.279
	C44.093,8.563,43.471,8.406,43.03,8.429z"/>
<path fill-rule="evenodd" clip-rule="evenodd" fill="#1B1B1B" d="M40.521,8.707c-0.047-0.604,0.989-0.126,1.394-0.278
	C41.962,9.033,40.926,8.555,40.521,8.707z"/>
<path fill-rule="evenodd" clip-rule="evenodd" fill="#1B1B1B" d="M38.292,8.985c0.045-0.326,0.508-0.235,0.836-0.278
	c0.093,0,0.186,0,0.279,0C39.355,9.12,38.733,8.962,38.292,8.985z"/>
<path fill-rule="evenodd" clip-rule="evenodd" fill="#1B1B1B" d="M35.784,9.265c0.045-0.327,0.508-0.235,0.836-0.279
	c0.092,0,0.185,0,0.278,0c0.093,0,0.185,0,0.278,0C37.224,9.59,36.188,9.112,35.784,9.265z"/>
<path fill-rule="evenodd" clip-rule="evenodd" fill="#1B1B1B" d="M33.554,9.543c0.086-0.378,0.698-0.231,1.115-0.279
	C34.617,9.677,33.996,9.521,33.554,9.543z"/>
<path fill-rule="evenodd" clip-rule="evenodd" fill="#1B1B1B" d="M31.324,9.822c0-0.093,0-0.186,0-0.278c0.279,0,0.557,0,0.836,0
	c0.093,0,0.186,0,0.279,0C32.387,9.956,31.766,9.799,31.324,9.822z"/>
<path fill-rule="evenodd" clip-rule="evenodd" fill="#1B1B1B" d="M111.313,10.937c0.152-0.405-0.326-1.44,0.279-1.394
	C111.44,9.948,111.919,10.984,111.313,10.937z"/>
<path fill-rule="evenodd" clip-rule="evenodd" fill="#1B1B1B" d="M28.815,10.101c0.087-0.378,0.698-0.231,1.115-0.279
	C29.879,10.235,29.257,10.077,28.815,10.101z"/>
<path fill-rule="evenodd" clip-rule="evenodd" fill="#1B1B1B" d="M26.586,10.379c0.086-0.378,0.698-0.231,1.115-0.279
	C27.649,10.514,27.027,10.356,26.586,10.379z"/>
<path fill-rule="evenodd" clip-rule="evenodd" fill="#1B1B1B" d="M24.078,10.658c-0.047-0.604,0.989-0.126,1.393-0.279
	C25.518,10.984,24.482,10.505,24.078,10.658z"/>
<path fill-rule="evenodd" clip-rule="evenodd" fill="#1B1B1B" d="M21.848,10.937c0.086-0.378,0.698-0.231,1.115-0.279
	C22.911,11.071,22.289,10.914,21.848,10.937z"/>
<path fill-rule="evenodd" clip-rule="evenodd" fill="#1B1B1B" d="M120.79,11.215c-0.198-0.452,1.314-0.452,1.116,0
	C121.533,11.215,121.162,11.215,120.79,11.215z"/>
<path fill-rule="evenodd" clip-rule="evenodd" fill="#1B1B1B" d="M127.201,18.741c0.178-1.214-0.365-3.151,0.278-3.902
	C127.299,16.053,127.844,17.989,127.201,18.741z"/>
<path fill-rule="evenodd" clip-rule="evenodd" fill="#1B1B1B" d="M124.692,16.232c-0.176,0.938,0.358,2.589-0.278,3.065
	C124.591,18.36,124.056,16.709,124.692,16.232z"/>
<path fill-rule="evenodd" clip-rule="evenodd" fill="#1B1B1B" d="M67.277,26.545c-0.199-0.452,1.314-0.452,1.115,0
	C68.021,26.545,67.649,26.545,67.277,26.545z"/>
<path fill-rule="evenodd" clip-rule="evenodd" fill="#1B1B1B" d="M65.327,26.823c0.052-0.413,0.673-0.256,1.115-0.278
	C66.355,26.923,65.744,26.776,65.327,26.823z"/>
<path fill-rule="evenodd" clip-rule="evenodd" fill="#1B1B1B" d="M81.493,27.103c0.05-0.414,0.673-0.256,1.114-0.279
	C82.521,27.202,81.91,27.055,81.493,27.103z"/>
<path fill-rule="evenodd" clip-rule="evenodd" fill="#1B1B1B" d="M72.015,28.217c0.56,0,1.116,0,1.673,0
	C73.734,28.674,71.971,28.674,72.015,28.217z"/>
<path fill-rule="evenodd" clip-rule="evenodd" fill="#1B1B1B" d="M52.506,28.774c0.052-0.413,0.674-0.256,1.115-0.279
	C53.535,28.875,52.923,28.727,52.506,28.774z"/>
<path fill-rule="evenodd" clip-rule="evenodd" fill="#1B1B1B" d="M66.999,29.332c-0.125-0.455,1.519-0.455,1.394,0
	C67.928,29.332,67.464,29.332,66.999,29.332z"/>
<path fill-rule="evenodd" clip-rule="evenodd" fill="#1B1B1B" d="M3.453,29.332c-0.048,0.417,0.099,1.029-0.279,1.115
	C3.198,30.005,3.041,29.384,3.453,29.332z"/>
<path fill-rule="evenodd" clip-rule="evenodd" fill="#1B1B1B" d="M0.666,29.61c-0.048,0.417,0.1,1.028-0.279,1.115
	C0.435,30.308,0.288,29.697,0.666,29.61z"/>
<path fill-rule="evenodd" clip-rule="evenodd" fill="#1B1B1B" d="M54.178,31.283c0.052-0.413,0.674-0.256,1.115-0.278
	C55.242,31.417,54.62,31.259,54.178,31.283z"/>
<path fill-rule="evenodd" clip-rule="evenodd" fill="#1B1B1B" d="M72.015,31.004c0.56,0,1.116,0,1.673,0
	C73.734,31.461,71.971,31.461,72.015,31.004z"/>
<path fill-rule="evenodd" clip-rule="evenodd" fill="#1B1B1B" d="M50.555,31.84c0.016-0.17,0.042-0.33,0.278-0.279
	c0.186,0,0.372,0,0.558,0c0.093,0,0.185,0,0.278,0C51.618,31.975,50.996,31.817,50.555,31.84z"/>
<path fill-rule="evenodd" clip-rule="evenodd" fill="#1B1B1B" d="M2.896,34.627c0.174-0.847-0.357-2.4,0.278-2.787
	c-0.181,1.491,0.366,3.71-0.278,4.738c0-0.465,0-0.929,0-1.394C2.896,34.999,2.896,34.813,2.896,34.627z"/>
<path fill-rule="evenodd" clip-rule="evenodd" fill="#1B1B1B" d="M0.387,32.955c0,1.394,0,2.788,0,4.181c0,0.093,0,0.186,0,0.279
	c-0.152,0.405,0.326,1.44-0.278,1.394C0.291,36.947-0.259,34.353,0.387,32.955z"/>
<path fill-rule="evenodd" clip-rule="evenodd" fill="#1B1B1B" d="M16.274,33.234c0.207-0.629,1.563-0.109,2.229-0.279
	c0,0.093,0,0.186,0,0.279C17.76,33.234,17.017,33.234,16.274,33.234z"/>
<path fill-rule="evenodd" clip-rule="evenodd" fill="#323232" d="M18.503,33.234c0-0.093,0-0.186,0-0.279c0.465,0,0.929,0,1.394,0
	c0,0.093,0,0.186,0,0.279C19.432,33.234,18.968,33.234,18.503,33.234z"/>
<path fill-rule="evenodd" clip-rule="evenodd" fill="#333333" d="M19.897,33.234c0-0.093,0-0.186,0-0.279c1.208,0,2.415,0,3.623,0
	C22.86,33.596,21.019,33.055,19.897,33.234z"/>
<path fill-rule="evenodd" clip-rule="evenodd" fill="#1B1B1B" d="M19.618,36.021c0-0.093,0-0.186,0-0.279c0.929,0,1.858,0,2.787,0
	C22.019,36.377,20.465,35.846,19.618,36.021z"/>
<path fill-rule="evenodd" clip-rule="evenodd" fill="#1B1B1B" d="M2.896,44.939c-0.461-0.3-0.461-2.486,0-2.787
	C2.896,43.082,2.896,44.011,2.896,44.939z"/>
<path fill-rule="evenodd" clip-rule="evenodd" fill="#1B1B1B" d="M78.982,48.563c0.465,0,0.93,0,1.395,0c0.093,0,0.187,0,0.278,0
	c0.465,0,0.93,0,1.395,0C81.659,49.024,79.374,49.024,78.982,48.563z"/>
<path fill-rule="evenodd" clip-rule="evenodd" fill="#1B1B1B" d="M54.736,49.956c0.038-0.458,1.913-0.458,1.951,0
	C56.037,49.956,55.386,49.956,54.736,49.956z"/>
<path fill-rule="evenodd" clip-rule="evenodd" fill="#1B1B1B" d="M70.065,51.907c0.417,0.048,1.028-0.1,1.114,0.279
	C70.739,52.163,70.116,52.32,70.065,51.907z"/>
<path fill-rule="evenodd" clip-rule="evenodd" fill="#1B1B1B" d="M72.015,54.973c0.417,0.048,1.03-0.1,1.116,0.279
	C72.714,55.205,72.102,55.352,72.015,54.973z"/>
<path fill-rule="evenodd" clip-rule="evenodd" fill="#1B1B1B" d="M48.325,55.53c0,1.022,0,2.044,0,3.066c0,0.186,0,0.371,0,0.558
	c0,0.092,0,0.186,0,0.278c0,0.186,0,0.372,0,0.557c0,0.93,0,1.858,0,2.788C47.861,61.009,47.861,57.3,48.325,55.53z"/>
<path fill-rule="evenodd" clip-rule="evenodd" fill="#1B1B1B" d="M50.833,58.317c0.647,1.676,0.096,4.55,0.279,6.688
	c-0.632-0.295-0.106-1.751-0.279-2.508c0-0.186,0-0.371,0-0.557C50.833,60.733,50.833,59.525,50.833,58.317z"/>
<path fill-rule="evenodd" clip-rule="evenodd" fill="#1B1B1B" d="M92.361,59.433c-0.3,0.461-2.486,0.461-2.786,0
	C90.503,59.433,91.432,59.433,92.361,59.433z"/>
<path fill-rule="evenodd" clip-rule="evenodd" fill="#1B1B1B" d="M87.624,61.941c0.186,0,0.37,0,0.557,0
	c0.216,0.062,0.551,0.008,0.559,0.278C88.32,62.173,87.71,62.319,87.624,61.941z"/>
<path fill-rule="evenodd" clip-rule="evenodd" fill="#1B1B1B" d="M90.41,62.22c0.373,0,0.743,0,1.116,0
	C91.725,62.671,90.212,62.671,90.41,62.22z"/>
<path fill-rule="evenodd" clip-rule="evenodd" fill="#1B1B1B" d="M76.475,70.859c0.238-0.05,0.265,0.109,0.278,0.279
	c0,0.093,0,0.187,0,0.278c0,0.094,0,0.187,0,0.278c0,0.094,0,0.187,0,0.279c0.046,0.324-0.06,0.496-0.278,0.558
	C76.475,71.975,76.475,71.417,76.475,70.859z"/>
<path fill-rule="evenodd" clip-rule="evenodd" fill="#1B1B1B" d="M79.264,70.859c0.454-0.125,0.454,1.52,0,1.395
	c0-0.187,0-0.372,0-0.559C79.264,71.417,79.264,71.139,79.264,70.859z"/>
<path fill-rule="evenodd" clip-rule="evenodd" fill="#1B1B1B" d="M53.342,71.417c0.93,0,1.859,0,2.787,0
	C55.829,71.878,53.643,71.878,53.342,71.417z"/>
<path fill-rule="evenodd" clip-rule="evenodd" fill="#1B1B1B" d="M53.063,87.304c1.208,0,2.416,0,3.624,0
	c-0.208,0.629-1.563,0.108-2.23,0.279c-0.093,0-0.186,0-0.279,0C53.737,87.56,53.115,87.717,53.063,87.304z"/>
<path fill-rule="evenodd" clip-rule="evenodd" fill="#1B1B1B" d="M53.621,90.091c0.836,0,1.672,0,2.508,0c0.093,0,0.186,0,0.279,0
	C56.107,90.553,53.921,90.553,53.621,90.091z"/>
<path fill-rule="evenodd" clip-rule="evenodd" fill="#1B1B1B" d="M6.24,16.232c0.813-1.046,1.742-1.975,2.787-2.787
	C8.215,14.491,7.286,15.42,6.24,16.232z"/>
<path fill-rule="evenodd" clip-rule="evenodd" fill="#1B1B1B" d="M3.453,52.186c1.138,0.905,2.16,1.927,3.065,3.066
	C5.38,54.347,4.358,53.324,3.453,52.186z"/>
<path fill-rule="evenodd" clip-rule="evenodd" fill="#1B1B1B" d="M8.191,56.646c0.86,0.626,1.604,1.368,2.229,2.229
	C9.561,58.249,8.817,57.506,8.191,56.646z"/>
<path fill-rule="evenodd" clip-rule="evenodd" fill="#1B1B1B" d="M12.372,60.548c0.86,0.626,1.604,1.369,2.23,2.229
	C13.741,62.15,12.998,61.408,12.372,60.548z"/>
<path fill-rule="evenodd" clip-rule="evenodd" fill="#1B1B1B" d="M16.552,64.449c0.953,0.72,1.789,1.556,2.508,2.509
	C18.108,66.238,17.271,65.402,16.552,64.449z"/>
<path fill-rule="evenodd" clip-rule="evenodd" fill="#1B1B1B" d="M20.733,68.351c0.953,0.72,1.789,1.556,2.509,2.509
	C22.289,70.14,21.452,69.305,20.733,68.351z"/>
<path fill-rule="evenodd" clip-rule="evenodd" fill="#1B1B1B" d="M24.914,72.254c1.046,0.813,1.975,1.74,2.787,2.786
	C26.655,74.228,25.726,73.3,24.914,72.254z"/>
<path fill-rule="evenodd" clip-rule="evenodd" fill="#1B1B1B" d="M30.209,77.271c0.86,0.626,1.604,1.369,2.23,2.229
	C31.579,78.874,30.835,78.131,30.209,77.271z"/>
<path fill-rule="evenodd" clip-rule="evenodd" fill="#1B1B1B" d="M33.554,80.336c0.491,0.252,0.863,0.623,1.115,1.115
	C34.177,81.199,33.806,80.827,33.554,80.336z"/>
<path fill-rule="evenodd" clip-rule="evenodd" fill="#1B1B1B" d="M75.918,64.728c0.583,0.347,1.048,0.811,1.395,1.395
	C76.729,65.775,76.265,65.312,75.918,64.728z"/>
<path fill-rule="evenodd" clip-rule="evenodd" fill="#1B1B1B" d="M105.462,54.416c1.184-1.417,2.484-2.717,3.9-3.902
	C108.179,51.931,106.878,53.232,105.462,54.416z"/>
<path fill-rule="evenodd" clip-rule="evenodd" fill="#1B1B1B" d="M123.857,25.151c0.345-0.583,0.81-1.047,1.393-1.393
	C124.903,24.341,124.438,24.805,123.857,25.151z"/>
<path fill-rule="evenodd" clip-rule="evenodd" fill="#1B1B1B" d="M124.971,9.543c0.583,0.346,1.048,0.811,1.395,1.394
	c-0.398-0.067-0.471-0.459-0.837-0.558c0.052-0.237-0.108-0.263-0.278-0.279C125.25,9.821,125.023,9.769,124.971,9.543z"/>
<path fill-rule="evenodd" clip-rule="evenodd" fill="#1B1B1B" d="M113.544,13.724c0.347-0.583,0.812-1.048,1.394-1.394
	C114.592,12.913,114.127,13.378,113.544,13.724z"/>
<path fill-rule="evenodd" clip-rule="evenodd" fill="#1B1B1B" d="M111.313,16.232c0.347-0.583,0.812-1.048,1.395-1.394
	C112.361,15.422,111.896,15.886,111.313,16.232z"/>
<path fill-rule="evenodd" clip-rule="evenodd" fill="#1B1B1B" d="M89.018,35.742c0.533-0.768,1.183-1.418,1.949-1.951
	C90.435,34.559,89.785,35.209,89.018,35.742z"/>
<path fill-rule="evenodd" clip-rule="evenodd" fill="#1B1B1B" d="M84.28,44.939c0.344-0.583,0.809-1.047,1.392-1.393
	C85.325,44.129,84.863,44.594,84.28,44.939z"/>
<path fill-rule="evenodd" clip-rule="evenodd" fill="#1B1B1B" d="M99.329,25.151c0.998-1.231,2.114-2.346,3.344-3.344
	C101.676,23.038,100.562,24.153,99.329,25.151z"/>
<path fill-rule="evenodd" clip-rule="evenodd" fill="#1B1B1B" d="M106.576,17.625c0-0.279,0.226-0.332,0.278-0.557
	c0.402-0.156,0.681-0.435,0.837-0.836c0.912-0.48,1.316-1.471,2.23-1.951C108.922,15.513,107.808,16.627,106.576,17.625z"/>
<path fill-rule="evenodd" clip-rule="evenodd" fill="#1B1B1B" d="M111.035,6.477c-0.49-0.251-0.863-0.623-1.113-1.115
	C110.412,5.614,110.783,5.986,111.035,6.477z"/>
<path fill-rule="evenodd" clip-rule="evenodd" fill="#1B1B1B" d="M49.162,68.909c0.675,0.439,1.233,0.996,1.672,1.672
	C50.158,70.141,49.602,69.584,49.162,68.909z"/>
<path fill-rule="evenodd" clip-rule="evenodd" fill="#1B1B1B" d="M49.998,53.301c0.252-0.491,0.624-0.863,1.115-1.115
	C50.86,52.677,50.489,53.049,49.998,53.301z"/>
<path fill-rule="evenodd" clip-rule="evenodd" fill="#1B1B1B" d="M103.232,52.743c0.438-0.675,0.995-1.232,1.671-1.671
	C104.464,51.747,103.907,52.304,103.232,52.743z"/>
<path fill-rule="evenodd" clip-rule="evenodd" fill="#1B1B1B" d="M105.74,50.235c0.438-0.675,0.998-1.233,1.671-1.672
	c-0.052,0.226-0.278,0.277-0.278,0.557C106.485,49.309,106.388,50.046,105.74,50.235z"/>
<path fill-rule="evenodd" clip-rule="evenodd" fill="#1B1B1B" d="M118.281,26.823c0.347-0.583,0.812-1.047,1.395-1.394
	C119.329,26.013,118.864,26.477,118.281,26.823z"/>
<path fill-rule="evenodd" clip-rule="evenodd" fill="#1B1B1B" d="M121.349,23.758c0.625-0.861,1.368-1.604,2.229-2.23
	C122.951,22.388,122.208,23.131,121.349,23.758z"/>
<path fill-rule="evenodd" clip-rule="evenodd" fill="#1B1B1B" d="M123.02,11.494c0.491,0.252,0.863,0.624,1.116,1.115
	C123.643,12.357,123.272,11.986,123.02,11.494z"/>
<path fill-rule="evenodd" clip-rule="evenodd" fill="#1B1B1B" d="M117.446,13.445c0.345-0.583,0.81-1.047,1.393-1.394
	C118.494,12.635,118.029,13.099,117.446,13.445z"/>
<path fill-rule="evenodd" clip-rule="evenodd" fill="#1B1B1B" d="M115.217,15.953c0.345-0.583,0.809-1.047,1.392-1.393
	C116.265,15.143,115.8,15.607,115.217,15.953z"/>
<path fill-rule="evenodd" clip-rule="evenodd" fill="#1B1B1B" d="M113.266,18.183c0.252-0.491,0.623-0.863,1.113-1.115
	C114.129,17.56,113.756,17.932,113.266,18.183z"/>
<path fill-rule="evenodd" clip-rule="evenodd" fill="#1B1B1B" d="M86.231,46.891c0.345-0.583,0.81-1.047,1.393-1.394
	C87.277,46.08,86.813,46.545,86.231,46.891z"/>
<path fill-rule="evenodd" clip-rule="evenodd" fill="#1B1B1B" d="M97.1,23.479c1.463-1.695,3.043-3.275,4.738-4.737
	C100.375,20.437,98.797,22.016,97.1,23.479z"/>
<path fill-rule="evenodd" clip-rule="evenodd" fill="#1B1B1B" d="M105.462,14.839c0.719-0.953,1.555-1.79,2.508-2.509
	C107.251,13.283,106.413,14.119,105.462,14.839z"/>
<path fill-rule="evenodd" clip-rule="evenodd" fill="#1B1B1B" d="M106.297,7.592c0.583-0.654,2.511-0.295,2.509,0.557
	C108.356,7.577,107.409,7.503,106.297,7.592z"/>
<path fill-rule="evenodd" clip-rule="evenodd" fill="#1B1B1B" d="M7.912,18.461c0.906-1.138,1.927-2.16,3.066-3.065
	C10.073,16.535,9.05,17.557,7.912,18.461z"/>
<path fill-rule="evenodd" clip-rule="evenodd" fill="#1B1B1B" d="M5.404,50.235c1.324,1.091,2.532,2.299,3.623,3.623
	C7.703,52.767,6.495,51.56,5.404,50.235z"/>
<path fill-rule="evenodd" clip-rule="evenodd" fill="#1B1B1B" d="M12.929,57.481c-0.953-0.719-1.789-1.556-2.509-2.508
	C11.374,55.692,12.21,56.529,12.929,57.481z"/>
<path fill-rule="evenodd" clip-rule="evenodd" fill="#1B1B1B" d="M16.274,60.826c-0.386-0.822-1.287-1.129-1.672-1.951
	c1.046,0.813,1.975,1.742,2.787,2.787C16.82,61.58,16.842,60.908,16.274,60.826z"/>
<path fill-rule="evenodd" clip-rule="evenodd" fill="#1B1B1B" d="M19.061,63.056c0.953,0.72,1.79,1.556,2.508,2.509
	c-0.226-0.054-0.277-0.279-0.557-0.278c0.051-0.238-0.108-0.264-0.279-0.28C20.348,64.184,19.446,63.878,19.061,63.056z"/>
<path fill-rule="evenodd" clip-rule="evenodd" fill="#1B1B1B" d="M25.75,69.466c-0.953-0.719-1.79-1.555-2.508-2.508
	C24.194,67.678,25.031,68.514,25.75,69.466z"/>
<path fill-rule="evenodd" clip-rule="evenodd" fill="#1B1B1B" d="M27.422,70.859c1.231,0.998,2.346,2.113,3.344,3.345
	C29.535,73.206,28.42,72.091,27.422,70.859z"/>
<path fill-rule="evenodd" clip-rule="evenodd" fill="#1B1B1B" d="M32.718,75.877c0.768,0.532,1.417,1.183,1.951,1.95
	C33.901,77.295,33.25,76.644,32.718,75.877z"/>
<path fill-rule="evenodd" clip-rule="evenodd" fill="#1B1B1B" d="M36.898,79.778c-0.491-0.251-0.863-0.623-1.115-1.115
	C36.275,78.915,36.646,79.287,36.898,79.778z"/>
<path fill-rule="evenodd" clip-rule="evenodd" fill="#1B1B1B" d="M62.261,68.351c0.252-0.49,0.624-0.862,1.115-1.114
	C63.124,67.728,62.752,68.1,62.261,68.351z"/>
<path fill-rule="evenodd" clip-rule="evenodd" fill="#7F7F7F" d="M11.535,33.791c0.492,0.251,0.864,0.624,1.115,1.115
	C12.159,34.654,11.787,34.283,11.535,33.791z"/>
<path fill-rule="evenodd" clip-rule="evenodd" fill="#7F7F7F" d="M15.716,46.612c0.533-0.768,1.183-1.418,1.951-1.951
	C17.134,45.428,16.484,46.079,15.716,46.612z"/>
<path fill-rule="evenodd" clip-rule="evenodd" fill="#7F7F7F" d="M16.552,51.907c0.583,0.346,1.048,0.811,1.394,1.394
	C17.363,52.955,16.898,52.49,16.552,51.907z"/>
<path fill-rule="evenodd" clip-rule="evenodd" fill="#7F7F7F" d="M23.799,52.186c-0.298-0.334,0.283-0.817,0.557-1.114
	c0.92-0.999,2.501-2.268,3.623-3.345c-0.098,0.366-0.49,0.438-0.557,0.836c0.626,0.86,1.369,1.604,2.229,2.229
	c0.226,0.053,0.278,0.28,0.558,0.28c0.045,0.324-0.062,0.495-0.278,0.557c-0.492,0.252-0.864,0.624-1.115,1.115
	c-0.093,0-0.186,0-0.279,0c-0.533-0.767-1.183-1.417-1.951-1.951c-0.248-0.123-0.499-0.244-0.558-0.557
	C24.905,50.506,24.459,51.453,23.799,52.186z"/>
<path fill-rule="evenodd" clip-rule="evenodd" fill="#1B1B1B" d="M26.586,50.792c0.768,0.534,1.418,1.184,1.951,1.951
	C27.77,52.21,27.119,51.561,26.586,50.792z"/>
<path fill-rule="evenodd" clip-rule="evenodd" fill="#333333" d="M28.815,52.743c0.251-0.491,0.624-0.863,1.115-1.115
	C29.679,52.12,29.307,52.492,28.815,52.743z"/>
<path fill-rule="evenodd" clip-rule="evenodd" fill="#1B1B1B" d="M27.422,48.563c0.86,0.626,1.603,1.369,2.229,2.229
	C28.792,50.167,28.048,49.423,27.422,48.563z"/>
<path fill-rule="evenodd" clip-rule="evenodd" fill="#1B1B1B" d="M28.537,47.169c0.189-0.647,0.927-0.746,1.115-1.394
	c0.093,0,0.186,0,0.279,0C29.584,46.358,29.12,46.823,28.537,47.169z"/>
<path fill-rule="evenodd" clip-rule="evenodd" fill="#7F7F7F" d="M29.651,45.775c0.626-0.86,1.37-1.603,2.23-2.229
	c-0.48,0.913-1.471,1.316-1.951,2.229C29.837,45.775,29.745,45.775,29.651,45.775z"/>
<path fill-rule="evenodd" clip-rule="evenodd" fill="#7F7F7F" d="M32.439,32.955c0.358-0.477,0.576-1.095,1.394-1.114
	C33.383,32.227,32.95,32.63,32.439,32.955z"/>
<path fill-rule="evenodd" clip-rule="evenodd" fill="#1B1B1B" d="M38.57,29.61c0.676,0.439,1.233,0.998,1.672,1.672
	c0.698,0.047,0.873-0.428,1.115-0.836c0.509,0.173-0.482,1.165-1.115,1.115C39.857,30.739,38.956,30.433,38.57,29.61z"/>
<path fill-rule="evenodd" clip-rule="evenodd" fill="#7F7F7F" d="M15.995,24.873c0.783-1.128-1.136-1.536-1.115-2.787
	c0.366-0.098,0.438-0.491,0.836-0.558c1.307,0.086,1.127,1.66,2.229,1.951C17.215,23.863,16.986,24.75,15.995,24.873z"/>
<path fill-rule="evenodd" clip-rule="evenodd" fill="#7F7F7F" d="M17.946,26.823c0.73-0.385,0.959-1.27,1.951-1.394
	c-0.007,0.271-0.341,0.217-0.558,0.279c0.053,0.226,0.28,0.277,0.279,0.558c0.28,0.37,0.264,1.037,0.836,1.115
	c0.302,0.069,0.188,0.554,0.557,0.558c-0.089,0.654-0.863,0.624-1.115,1.115C19.125,28.431,18.859,27.304,17.946,26.823z"/>
<path fill-rule="evenodd" clip-rule="evenodd" fill="#7F7F7F" d="M26.865,34.07c0.491,0.251,0.863,0.623,1.114,1.114
	C27.488,34.933,27.116,34.562,26.865,34.07z"/>
<path fill-rule="evenodd" clip-rule="evenodd" fill="#333333" d="M17.946,48.842c-0.71-1.093,1.12-2.03,1.951-2.508
	C19.38,47.303,17.859,47.269,17.946,48.842z"/>
<path fill-rule="evenodd" clip-rule="evenodd" fill="#7F7F7F" d="M21.012,51.072c0.74-1.27,3.972-2.885,1.394-4.181
	c-0.346-0.583-0.811-1.047-1.394-1.394c0.583-0.532,1.331-0.898,2.23-1.115c0.053,0.225,0.279,0.278,0.278,0.557
	c0.44,0.675,0.997,1.232,1.672,1.672C23.871,48.17,22.665,49.844,21.012,51.072z"/>
<path fill-rule="evenodd" clip-rule="evenodd" fill="#7F7F7F" d="M26.865,44.939c0.905-1.138,1.927-2.161,3.066-3.065
	C29.025,43.012,28.003,44.034,26.865,44.939z"/>
<path fill-rule="evenodd" clip-rule="evenodd" fill="#1B1B1B" d="M19.618,26.266c0.572,0.078,0.556,0.744,0.836,1.115
	C19.882,27.303,19.898,26.636,19.618,26.266z"/>
<path fill-rule="evenodd" clip-rule="evenodd" fill="#1B1B1B" d="M36.062,24.873c0.834,0.002,1.171,0.501,1.394,1.115
	C37.167,26.524,36.351,25.256,36.062,24.873z"/>
<path fill-rule="evenodd" clip-rule="evenodd" fill="#1B1B1B" d="M28.815,38.808c0.323-0.234,0.748-0.368,1.394-0.279
	c-0.072,0.579-1.225,0.076-1.394,0.558C28.815,38.994,28.815,38.901,28.815,38.808z"/>
<path fill-rule="evenodd" clip-rule="evenodd" fill="#333333" d="M23.52,44.939c0.583,0.346,1.047,0.811,1.394,1.394
	c1.077-0.038,1.099-1.131,1.951-1.394c-0.439,0.675-0.997,1.232-1.672,1.672C24.517,46.172,23.96,45.615,23.52,44.939z"/>
<path fill-rule="evenodd" clip-rule="evenodd" fill="#1B1B1B" d="M21.012,45.497c0.583,0.346,1.047,0.811,1.394,1.394
	c-0.755-0.173-0.694-1.164-1.672-1.115C20.682,45.539,20.842,45.513,21.012,45.497z"/>
<path fill-rule="evenodd" clip-rule="evenodd" fill="#333333" d="M126.365,10.937c-0.398-0.067-0.471-0.459-0.837-0.558
	c0.052-0.237-0.108-0.263-0.278-0.279c0-0.28-0.227-0.332-0.279-0.557c-3.129-2.811-8.717-0.1-10.033,2.787
	c-0.346,0.583-0.811,1.048-1.394,1.394c-0.082,0.568-0.754,0.546-0.836,1.115c-0.347,0.583-0.812,1.047-1.395,1.394
	c-2.031,2.38-3.273,5.921-4.181,8.918c-0.03,0.101-0.497,0.421-0.557,0.558c-0.223,0.507-0.277,1.295-0.558,1.672
	c-0.957,1.285-3.015,2.325-4.459,2.787c-1.061,0.339-2.38,0.257-3.624,0.557c-0.952,0.23-2.05,0.748-3.065,1.115
	c-1.09,0.394-2.298,0.599-3.065,1.114c-0.225,0.151-0.429,0.879-0.838,0.836c-0.532,0.768-1.182,1.418-1.949,1.951
	c-1.557,2.161-2.216,5.217-3.346,7.804c-0.347,0.583-0.809,1.047-1.392,1.393c-1.531,0.766-3.446,1.439-5.576,0.836
	c-0.092,0-0.184,0-0.278,0c-9.187-4.654-19.064-8.621-28.15-13.378c0.063-0.216,0.008-0.55,0.279-0.557
	c0.016-0.17,0.042-0.33,0.278-0.279c0.186,0,0.372,0,0.558,0c0.093,0,0.185,0,0.278,0c1.121,0.192,1.591-0.267,2.508-0.279
	c0.052-0.413,0.674-0.256,1.115-0.278c4.124-0.336,7.769-1.151,11.706-1.673c-0.125-0.455,1.519-0.455,1.394,0
	c1.063,0.702,1.857,1.673,3.622,1.673c0.56,0,1.116,0,1.673,0c5.373-0.667,10.603-1.475,15.609-2.509c0.092,0,0.186,0,0.278,0
	c4.013-0.353,7.549-1.184,9.754-3.345c0.998-1.231,2.114-2.346,3.344-3.344c1.139-1.558,2.767-2.623,3.903-4.181
	c0-0.279,0.226-0.332,0.278-0.557c0.402-0.156,0.681-0.435,0.837-0.836c0.912-0.48,1.316-1.471,2.23-1.951
	c0.687-0.891,1.444-1.714,1.392-3.345c0.152-0.405-0.326-1.44,0.279-1.394c0-0.743,0-1.486,0-2.23
	c-0.392-0.072-0.317-0.611-0.558-0.836c-0.49-0.251-0.863-0.623-1.113-1.115c-0.583-0.16-0.798-0.69-1.673-0.558
	c-0.651,0-1.301,0-1.952,0c-0.092,0-0.186,0-0.278,0c-0.905,0.024-1.715,0.144-2.229,0.558c-0.092,0-0.187,0-0.278,0
	c-2.252,0.2-3.216-1.212-4.182-1.951C98.646,2.888,97.5,2.402,97.1,2.018c-1.09-1.043-3.067-1.569-4.738-1.672
	c-0.93,0-1.858,0-2.786,0c-0.371,0-0.743,0-1.116,0c0.048,0.604-0.987,0.126-1.393,0.279c-0.372,0-0.743,0-1.115,0
	c0.048,0.604-0.988,0.126-1.393,0.279c-0.373,0-0.743,0-1.116,0c-0.016,0.17-0.04,0.33-0.278,0.278c-0.092,0-0.187,0-0.278,0
	c-0.187,0-0.371,0-0.558,0c-0.464,0-0.929,0-1.394,0c-0.053,0.413-0.674,0.256-1.114,0.279c-0.465,0-0.93,0-1.395,0
	c-0.052,0.413-0.673,0.255-1.113,0.278c-0.465,0-0.93,0-1.395,0c-0.053,0.413-0.674,0.256-1.114,0.279c-0.372,0-0.743,0-1.116,0
	c0,0.093,0,0.186,0,0.279c-0.092,0-0.186,0-0.278,0c-0.37,0-0.743,0-1.113,0c-0.373,0-0.743,0-1.116,0
	c0.048,0.604-0.987,0.126-1.395,0.279c-0.37,0-0.742,0-1.114,0c0.048,0.604-0.988,0.126-1.394,0.278c-0.372,0-0.743,0-1.115,0
	c-0.051,0.413-0.673,0.255-1.114,0.279c-0.465,0-0.929,0-1.394,0c-0.052,0.413-0.674,0.255-1.115,0.278c-0.093,0-0.186,0-0.279,0
	s-0.186,0-0.278,0c-0.186,0-0.372,0-0.558,0c0.047,0.604-0.988,0.126-1.394,0.279c-0.372,0-0.743,0-1.114,0
	c0.046,0.604-0.989,0.126-1.394,0.279c-0.372,0-0.743,0-1.115,0c-0.052,0.413-0.674,0.255-1.115,0.279c-0.465,0-0.929,0-1.393,0
	c-0.052,0.413-0.674,0.255-1.115,0.278c-0.372,0-0.743,0-1.115,0c0.047,0.604-0.989,0.126-1.394,0.278c-0.371,0-0.743,0-1.114,0
	c-0.051,0.414-0.673,0.256-1.115,0.279c-0.093,0-0.186,0-0.279,0s-0.186,0-0.279,0c-0.186,0-0.372,0-0.557,0
	c-0.052,0.413-0.674,0.255-1.115,0.278c-0.464,0-0.929,0-1.393,0c0,0.093,0,0.186,0,0.279c-0.093,0-0.186,0-0.279,0
	c-0.278,0-0.557,0-0.836,0c-0.371,0-0.743,0-1.114,0c-0.052,0.413-0.674,0.256-1.115,0.279c-0.464,0-0.929,0-1.393,0
	c-0.052,0.413-0.674,0.256-1.115,0.279c-0.371,0-0.743,0-1.114,0c-0.052,0.413-0.674,0.255-1.115,0.278c-0.464,0-0.929,0-1.394,0
	c-0.052,0.413-0.673,0.256-1.115,0.279c-0.372,0-0.743,0-1.115,0c-0.052,0.413-0.674,0.255-1.115,0.278c-0.465,0-0.929,0-1.394,0
	c0,0.093,0,0.186,0,0.279c-0.093,0-0.186,0-0.278,0c-0.279,0-0.558,0-0.836,0c-0.372,0-0.743,0-1.116,0
	c-0.051,0.413-0.673,0.256-1.114,0.279c-0.372,0-0.743,0-1.115,0c-0.442,0.023-1.063-0.134-1.115,0.278c-0.372,0-0.744,0-1.115,0
	c0.047,0.605-0.989,0.127-1.393,0.279c-5.805,0.327-9.654,2.61-13.1,5.296c-0.812,1.045-1.741,1.975-2.787,2.787
	c-2.782,3.535-5.105,7.53-5.574,13.378c-0.048,0.417,0.1,1.028-0.279,1.115c0,0.743,0,1.486,0,2.229c0,1.394,0,2.788,0,4.181
	c0,0.093,0,0.186,0,0.279c-0.152,0.405,0.326,1.44-0.278,1.394c0.245,2.686-0.337,5.152,0,7.247
	c0.437,2.715,2.168,4.448,3.345,6.131c1.138,0.905,2.16,1.927,3.065,3.066c0.733,0.288,0.939,1.104,1.672,1.395
	c0.86,0.626,1.604,1.368,2.229,2.229c0.823,0.386,1.129,1.287,1.951,1.673c0.86,0.626,1.604,1.369,2.23,2.229
	c0.822,0.385,1.128,1.287,1.951,1.672c0.953,0.72,1.789,1.556,2.508,2.509c0.734,0.288,0.939,1.105,1.672,1.393
	c0.953,0.72,1.789,1.556,2.509,2.509c0.733,0.288,0.938,1.105,1.672,1.395c1.046,0.813,1.975,1.74,2.787,2.786
	c1.004,0.575,1.504,1.655,2.508,2.23c0.86,0.626,1.604,1.369,2.23,2.229c0.568,0.082,0.546,0.754,1.115,0.836
	c0.491,0.252,0.863,0.623,1.115,1.115c4.524,3.744,9.299,7.237,16.444,8.361c0.093,0,0.186,0,0.279,0
	c0.207,0.628,1.563,0.108,2.229,0.278c0.836,0,1.672,0,2.508,0c0.093,0,0.186,0,0.279,0c0.186,0,0.372,0,0.557,0
	c1.957-0.147,3.907-0.927,5.017-1.672c0.771-0.518,1.416-0.984,1.951-1.395c0.182-0.138,0.354-0.394,0.558-0.557
	c0.742-0.592,1.393-0.967,1.951-1.394c0.184-0.14,0.35-0.395,0.558-0.558c2.15-1.693,4.063-3.162,6.41-5.017
	c2.406-1.899,5.746-3.671,5.854-7.246c0-0.187,0-0.372,0-0.559c0-0.278,0-0.557,0-0.836c-0.004-2.227-1.099-3.362-1.951-4.737
	c-0.583-0.347-1.048-0.811-1.395-1.395c-2.45-2.654-3.603-4.303-7.804-3.623c-1.252,0.203-2.118,0.943-2.788,1.394
	c-0.175,0.118-0.43,0.194-0.558,0.279c-0.635,0.422-1.123,0.721-1.672,1.115c-1.864,1.338-3.442,3.308-5.295,4.18
	c-2.956,1.393-7.14,0.838-6.689-3.066c-0.632-0.295-0.106-1.751-0.279-2.508c0-0.186,0-0.371,0-0.557c0-1.208,0-2.416,0-3.624
	c0-0.093,0-0.186,0-0.279c-0.122-0.957,0.111-1.562,0.279-2.229c1.498-0.918,2.522-2.309,4.181-3.066
	c0.28,0.001,0.332-0.225,0.558-0.278c5.199,1.025,10.625,1.825,16.164,2.508c0.417,0.048,1.03-0.1,1.116,0.279
	c6.409,0.651,8.15,5.971,14.493,6.689c0.186,0,0.37,0,0.557,0c0.216,0.062,0.551,0.008,0.559,0.278c0.558,0,1.114,0,1.671,0
	c0.373,0,0.743,0,1.116,0c4.081,0.088,6.104-1.6,8.36-3.345c1.913-1.479,3.849-2.972,5.575-4.459c1.184-1.417,2.484-2.717,3.9-3.902
	c0.617-0.667,1.046-1.39,1.395-1.951c0.104-0.167,0.437-0.377,0.557-0.558c2.242-3.368,3.639-7.422,5.017-11.427
	c1.611-4.682,3.951-8.637,7.527-11.428c0.345-0.583,0.81-1.047,1.393-1.393c0.969-1.354,2.053-2.592,1.951-5.017
	c0.178-1.214-0.365-3.151,0.278-3.902C127.649,12.996,126.887,12.087,126.365,10.937z M124.414,19.298
	c-0.016,1.007-0.695,1.35-0.837,2.23c-0.626,0.86-1.369,1.604-2.229,2.23c-0.677,0.439-1.233,0.997-1.673,1.672
	c-0.347,0.583-0.812,1.047-1.395,1.394c-0.532,0.732-1.037,1.382-1.673,2.23c-2.159,2.888-3.43,8.146-5.016,11.985
	c-1.156,2.795-2.417,5.345-4.182,7.525c-0.052,0.226-0.278,0.277-0.278,0.557c-0.647,0.189-0.745,0.926-1.393,1.115
	c-0.156,0.401-0.435,0.68-0.837,0.836c-0.439,0.675-0.996,1.232-1.671,1.671c-3.376,2.199-5.864,5.286-10.035,6.689
	c-0.093,0-0.185,0-0.278,0c-0.187,0-0.371,0-0.558,0c-0.3,0.461-2.486,0.461-2.786,0c-7.103-0.517-8.827-6.409-15.888-6.968
	c-0.278,0-0.557,0-0.835,0c-0.036-0.615-1.182-0.118-1.673-0.279c-0.44-0.023-1.063,0.134-1.114-0.279
	c-1.363-0.124-2.399-0.574-3.903-0.557c-0.186,0-0.371,0-0.558,0c-0.034-0.616-1.182-0.119-1.672-0.278
	c-0.086-0.379-0.697-0.231-1.115-0.28c-2.042-0.28-3.873-0.771-6.131-0.836c-0.65,0-1.301,0-1.951,0
	c-1.812,0.14-2.38,1.522-3.624,2.23c-0.252,0.491-0.624,0.863-1.115,1.115c-0.755,0.545-1.52,1.082-1.672,2.229
	c0,1.022,0,2.044,0,3.066c0,0.186,0,0.371,0,0.558c0,0.092,0,0.186,0,0.278c0,0.186,0,0.372,0,0.557c0,0.93,0,1.858,0,2.788
	c-0.008,2.33-0.212,4.856,0.836,6.132c0.675,0.439,1.233,0.996,1.672,1.672c0.839,0.276,1.244,0.986,2.508,0.836
	c0.93,0,1.859,0,2.787,0c2.787-0.279,4.411-1.722,6.132-3.066c0.252-0.49,0.624-0.862,1.115-1.114
	c2.336-1.238,3.418-3.377,6.131-3.344c1.817,0.021,3.258,1.19,4.46,2.508c0.204,0.223,0.084,0.576,0.278,0.836
	c0.107,0.144,0.456,0.144,0.559,0.279c0.663,0.871,1.378,1.826,1.671,3.344c0.238-0.05,0.265,0.109,0.278,0.279
	c0,0.093,0,0.187,0,0.278c0,0.094,0,0.187,0,0.278c0,0.094,0,0.187,0,0.279c0.046,0.324-0.06,0.496-0.278,0.558
	c-0.475,1.317-1.423,2.235-2.508,3.065c-0.196,0.15-0.628,0.104-0.836,0.279c-0.353,0.295-0.503,0.854-0.835,1.114
	c-0.243,0.188-0.607,0.104-0.838,0.279c-1.054,0.806-2.693,2.237-3.902,3.345c-0.226,0.053-0.278,0.279-0.557,0.278
	c-3.418,2.156-5.581,5.567-10.312,6.41c-0.208,0.629-1.563,0.108-2.23,0.279c-0.093,0-0.186,0-0.279,0
	c-0.441-0.023-1.063,0.134-1.115-0.279c-7.025-0.871-11.633-4.161-16.165-7.525c-0.491-0.251-0.863-0.623-1.115-1.115
	c-0.569-0.081-0.547-0.754-1.115-0.836c-0.768-0.532-1.418-1.184-1.951-1.95c-0.823-0.386-1.129-1.287-1.951-1.673
	c-1.231-0.998-2.346-2.113-3.344-3.345c-0.734-0.288-0.939-1.105-1.672-1.394c-0.953-0.719-1.79-1.555-2.508-2.508
	c-0.734-0.289-0.939-1.105-1.673-1.394c-0.226-0.054-0.277-0.279-0.557-0.278c0.051-0.238-0.108-0.264-0.279-0.28
	c-0.385-0.822-1.287-1.128-1.672-1.95c-0.733-0.288-0.938-1.104-1.672-1.394c-0.568-0.082-0.547-0.754-1.115-0.836
	c-0.386-0.822-1.287-1.129-1.672-1.951c-0.734-0.289-0.939-1.105-1.672-1.394c-0.953-0.719-1.789-1.556-2.509-2.508
	c-0.647-0.188-0.746-0.926-1.394-1.115c-1.324-1.091-2.532-2.299-3.623-3.623c-1.024-1.298-1.711-2.935-2.508-4.46
	c0-0.092,0-0.185,0-0.278c0-0.186,0-0.372,0-0.558c-0.461-0.3-0.461-2.486,0-2.787c0-1.857,0-3.716,0-5.574c0-0.465,0-0.929,0-1.394
	c0-0.186,0-0.371,0-0.558c0.174-0.847-0.357-2.4,0.278-2.787c0-0.465,0-0.929,0-1.394c0.024-0.441-0.133-1.063,0.279-1.115
	c0.266-1.963,0.916-3.543,1.393-5.295c0-0.093,0-0.186,0-0.278c1.087-1.701,1.939-3.636,3.066-5.296
	c0.906-1.138,1.927-2.16,3.066-3.065c3.021-2.088,6.26-3.959,10.869-4.459c0.086-0.378,0.698-0.231,1.115-0.279
	c0.372,0,0.743,0,1.115,0c-0.047-0.604,0.989-0.126,1.393-0.279c0.372,0,0.744,0,1.115,0c0.086-0.378,0.698-0.231,1.115-0.279
	c0.372,0,0.743,0,1.115,0c0.087-0.378,0.698-0.231,1.115-0.279c0.464,0,0.929,0,1.394,0c0-0.093,0-0.186,0-0.278
	c0.279,0,0.557,0,0.836,0c0.093,0,0.186,0,0.279,0c0.372,0,0.743,0,1.115,0c0.086-0.378,0.698-0.231,1.115-0.279
	c0.372,0,0.743,0,1.115,0c0.045-0.327,0.508-0.235,0.836-0.279c0.092,0,0.185,0,0.278,0c0.093,0,0.185,0,0.278,0
	c0.372,0,0.743,0,1.115,0c0.045-0.326,0.508-0.235,0.836-0.278c0.093,0,0.186,0,0.279,0c0.093,0,0.186,0,0.279,0
	c0.278,0,0.557,0,0.836,0c-0.047-0.604,0.989-0.126,1.394-0.278c0.372,0,0.743,0,1.115,0c0.086-0.379,0.698-0.231,1.115-0.279
	c0.372,0,0.744,0,1.115,0c-0.047-0.604,0.988-0.126,1.394-0.279c0.371,0,0.743,0,1.115,0c0.086-0.378,0.698-0.231,1.115-0.278
	c0.371,0,0.743,0,1.114,0c-0.047-0.604,0.989-0.126,1.394-0.279c0.093,0,0.185,0,0.278,0c0.279,0,0.558,0,0.836,0
	c0.087-0.378,0.698-0.231,1.115-0.279c0.372,0,0.744,0,1.115,0c-0.047-0.604,0.988-0.126,1.393-0.278c0.372,0,0.743,0,1.115,0
	c0.086-0.378,0.698-0.231,1.115-0.279c0.465,0,0.929,0,1.394,0c0-0.092,0-0.186,0-0.278c0.278,0,0.557,0,0.836,0
	c0.093,0,0.186,0,0.278,0c0.465,0,0.929,0,1.394,0c0.086-0.378,0.698-0.231,1.115-0.279c0.372,0,0.743,0,1.115,0
	c-0.047-0.604,0.988-0.126,1.394-0.279c0.372,0,0.743,0,1.115,0c0.086-0.378,0.698-0.231,1.115-0.279c0.465,0,0.929,0,1.393,0
	c0.009-0.271,0.341-0.216,0.559-0.278c0.185,0,0.371,0,0.558,0c0.092,0,0.186,0,0.278,0c0.37,0,0.743,0,1.113,0
	c0.087-0.378,0.699-0.231,1.116-0.279c0.465,0,0.93,0,1.393,0c0.088-0.378,0.699-0.23,1.116-0.278c0.37,0,0.743,0,1.113,0
	c-0.046-0.604,0.99-0.126,1.395-0.278c0.373,0,0.743,0,1.116,0c0-0.093,0-0.187,0-0.279c0.184,0,0.37,0,0.557,0
	c0.278,0,0.557,0,0.835,0c0.373,0,0.744,0,1.116,0c0.006-0.271,0.341-0.217,0.557-0.279c0.093,0,0.187,0,0.279,0
	c0.186,0,0.37,0,0.557,0c0.373,0,0.743,0,1.116,0c0.086-0.378,0.697-0.231,1.113-0.279c0.465,0,0.93,0,1.395,0
	c0.086-0.378,0.697-0.231,1.114-0.278c0.092,0,0.186,0,0.278,0c0.094,0,0.187,0,0.278,0c0.28,0,0.559,0,0.838,0
	c0.391-0.462,2.674-0.462,3.064,0c4.719,0.485,5.592,4.813,10.593,5.016c-0.049-0.604,0.987-0.126,1.392-0.279
	c0.968,0.224,1.072-0.415,1.951-0.278c0.583-0.654,2.511-0.295,2.509,0.557c0,0.372,0,0.744,0,1.115c0,0.093,0,0.186,0,0.279
	c-0.286,0.921-0.286,2.129-0.836,2.787c-0.719,0.953-1.557,1.789-2.508,2.509c-1.044,1.465-2.58,2.436-3.624,3.902
	c-1.463,1.695-3.041,3.274-4.738,4.737c-1.725,1.248-4.439,1.507-6.689,2.23c-0.092,0-0.187,0-0.278,0
	c-2.753,0.127-4.973,0.787-7.524,1.115c-0.087,0.378-0.697,0.231-1.114,0.279c-2.863,0.109-5.074,0.872-7.806,1.114
	c0.047,0.458-1.717,0.458-1.673,0c-1.44-0.325-1.692-1.836-3.622-1.672c-0.372,0-0.744,0-1.115,0c-0.278,0-0.557,0-0.836,0
	c-0.086,0.378-0.698,0.231-1.115,0.278c-1.914,0.13-3.791,0.298-5.295,0.836c-0.093,0-0.186,0-0.278,0
	c-2.254,0.069-4.04,0.606-6.132,0.836c-0.086,0.379-0.697,0.231-1.115,0.279c-3.109-0.001-4.815,0.863-5.017,3.066
	c-0.234,2.564,1.581,3.349,3.902,4.459c2.063,0.986,4.321,2.056,5.853,2.509c0.008,0.271,0.341,0.216,0.557,0.279
	c4.224,2.347,8.552,4.014,13.1,6.131c2.243,1.044,4.984,2.854,8.081,3.345c0.465,0,0.93,0,1.395,0c0.093,0,0.187,0,0.278,0
	c0.465,0,0.93,0,1.395,0c2.014,0.063,2.959-0.942,4.182-1.672c0.345-0.583,0.81-1.047,1.393-1.394
	c1.639-2.184,1.763-4.333,3.064-6.968c1.128-2.279,3.646-4.002,6.689-4.738c2.276-0.551,4.564-0.733,6.689-1.672
	c0.523-0.23,1.488-0.531,1.951-0.836c0.247-0.163,0.329-0.657,0.558-0.836c0.484-0.377,1.464-0.875,1.951-1.672
	c0.3-0.493,0.364-1.163,0.557-1.672c0.271-0.008,0.217-0.342,0.278-0.558c1.381-2.708,2.224-5.952,3.903-8.362
	c0.252-0.491,0.623-0.863,1.113-1.115c0.082-0.568,0.756-0.546,0.838-1.115c0.345-0.583,0.809-1.047,1.392-1.393
	c0.083-0.568,0.756-0.546,0.838-1.115c0.345-0.583,0.81-1.047,1.393-1.394c0.699-0.231,1.096-0.764,1.951-0.836
	c-0.198-0.452,1.314-0.452,1.116,0c0.498-0.035,0.587,0.342,1.113,0.279c0.491,0.252,0.863,0.624,1.116,1.115
	c0.541,0.851,0.635,2.15,0.557,3.623C124.517,17.171,125.051,18.821,124.414,19.298z"/>
<path fill-rule="evenodd" clip-rule="evenodd" fill="#7F7F7F" d="M36.341,27.659c-0.209-0.905-1.061-1.168-1.394-1.951
	c0-0.186,0-0.372,0-0.558c0.583,0.118,0.738-0.191,1.115-0.278c0.289,0.384,1.105,1.652,1.394,1.115
	c0.754,0.505-0.485,1.351-0.836,1.672C36.527,27.659,36.434,27.659,36.341,27.659z"/>
<path fill-rule="evenodd" clip-rule="evenodd" fill="#7F7F7F" d="M39.686,28.217c0.37,0.931,1.22,1.381,1.672,2.229
	c-0.242,0.408-0.417,0.884-1.115,0.836c-0.439-0.675-0.997-1.233-1.672-1.672c-0.093,0-0.186,0-0.279,0
	c0.281-0.556,1.232-0.44,1.115-1.394C39.5,28.217,39.592,28.217,39.686,28.217z"/>
<path fill-rule="evenodd" clip-rule="evenodd" fill="#7F7F7F" d="M10.979,29.889c0,0.836,0,1.672,0,2.508
	C10.518,32.186,10.518,30.101,10.979,29.889z"/>
<path fill-rule="evenodd" clip-rule="evenodd" fill="#333333" d="M14.602,35.742c1.672,0,3.344,0,5.017,0c0,0.093,0,0.186,0,0.279
	C18.035,35.839,15.721,36.387,14.602,35.742z"/>
<path fill-rule="evenodd" clip-rule="evenodd" fill="#7F7F7F" d="M28.815,38.808c0-0.558,0-1.115,0-1.672
	c0.396,0.023,0.79,0.046,0.836-0.279c0.465,0.372,0.433,1.24,0.836,1.672c-0.093,0-0.186,0-0.279,0
	C29.563,38.44,29.139,38.574,28.815,38.808z"/>
<path fill-rule="evenodd" clip-rule="evenodd" fill="#7F7F7F" d="M26.028,39.087c-0.441-0.69-1.95-0.114-2.508,0
	c0.227-0.964-0.521-1.177,0-1.672c0.756-0.173,2.212,0.354,2.508-0.279c0.623,0.12,0.113,1.374,0.279,1.951
	C26.214,39.087,26.122,39.087,26.028,39.087z"/>
<path fill-rule="evenodd" clip-rule="evenodd" fill="#333333" d="M35.504,22.364c-0.045-0.458,1.719-0.458,1.672,0
	C36.62,22.364,36.062,22.364,35.504,22.364z"/>
<path fill-rule="evenodd" clip-rule="evenodd" fill="#333333" d="M29.373,33.791c0,0.65,0,1.301,0,1.951
	C28.914,35.705,28.914,33.829,29.373,33.791z"/>
<path fill-rule="evenodd" clip-rule="evenodd" fill="#FFFFFF" d="M17.946,23.479c1.745-1.452,3.558-3.234,6.41-2.508
	c0.734,0.187,1.772,1.093,2.23,1.672c0.566,0.718,0.382,2.112,1.393,2.508c3.168-0.27,4.644-2.23,7.525-2.787
	c0.558,0,1.116,0,1.672,0c2.496,0.216,3.83,3.548,2.509,5.853c-0.093,0-0.186,0-0.279,0c0.117,0.954-0.834,0.838-1.115,1.394
	c-1.267,0.962-3.102,1.356-4.459,2.23c-0.817,0.019-1.035,0.637-1.394,1.114c0.159,0.565-0.498,0.771-0.558,1.394
	c-0.13,1.351,1.157,2.374,1.394,3.902c0.339,2.2-0.2,4.158-1.394,5.296c-0.86,0.626-1.604,1.369-2.23,2.229
	c-0.188,0.648-0.926,0.747-1.115,1.394c-0.123,0.248-0.245,0.499-0.558,0.557c-1.122,1.077-2.703,2.346-3.623,3.345
	c-0.274,0.297-0.855,0.78-0.557,1.114c-0.754,1.51-4.101,2.326-5.853,1.115c-0.346-0.583-0.811-1.047-1.394-1.394
	c-1.013-0.882-2.212-3.79-0.836-5.295c0.768-0.533,1.418-1.184,1.951-1.951c2.128-2.517,6.519-2.771,8.361-5.574
	c0.093,0,0.186,0,0.279,0c-0.166-0.578,0.344-1.832-0.279-1.951c-0.521-1.15-1.752-1.592-3.623-1.394c-0.929,0-1.858,0-2.787,0
	c-1.672,0-3.344,0-5.017,0c-0.279,0-0.558,0-0.836,0c-0.077-0.574-1.039-0.263-1.115-0.836c-0.251-0.492-0.624-0.864-1.115-1.115
	c-0.119-0.531-0.6-0.7-0.557-1.394c0-0.836,0-1.672,0-2.508c0.62-2.724,3.323-3.365,5.016-5.017
	C16.986,24.75,17.215,23.863,17.946,23.479z M34.947,25.708c-3.271,0.934-6.055,3.493-8.919,1.672
	c-1.293-0.822-0.87-2.09-2.229-3.623c-2.23-0.372-2.703,1.013-3.902,1.672c-0.992,0.124-1.221,1.009-1.951,1.394
	c-0.595,1.196-4.392,2.217-4.459,4.181C13.453,32,14,33.419,16.274,33.234c0.743,0,1.486,0,2.229,0c0.465,0,0.929,0,1.394,0
	c1.122-0.179,2.963,0.362,3.623-0.279c1.113,0.375,2.771,0.203,3.345,1.116c0.251,0.491,0.623,0.863,1.114,1.114
	c0.453,0.477,0.844,1.015,0.836,1.951c0,0.557,0,1.115,0,1.672c0,0.093,0,0.186,0,0.279c-0.411,3.212-3.168,4.078-5.574,5.295
	c-0.899,0.216-1.647,0.583-2.23,1.115c-0.17,0.016-0.33,0.042-0.279,0.278c-0.397,0.067-0.47,0.459-0.836,0.558
	c-0.831,0.478-2.661,1.415-1.951,2.508c0.695,1.07,0.896,2.634,3.066,2.23c1.653-1.228,2.859-2.902,4.181-4.46
	c0.675-0.44,1.233-0.997,1.672-1.672c1.139-0.905,2.16-1.927,3.066-3.065c0.474-0.827,0.708-1.893,0.557-3.345
	c-0.403-0.433-0.372-1.301-0.836-1.672c-0.087-0.377-0.396-0.532-0.278-1.115c0-0.65,0-1.301,0-1.951
	c0.571-3.794,3.926-4.808,6.968-6.132c0.093,0,0.186,0,0.279,0c0.351-0.321,1.59-1.167,0.836-1.672
	c-0.223-0.614-0.56-1.113-1.394-1.115c-0.376,0.087-0.532,0.396-1.115,0.278C34.947,25.337,34.947,25.522,34.947,25.708z"/>
</svg>
