<?xml version="1.0" encoding="utf-8"?>
<!-- Generator: Adobe Illustrator 15.0.0, SVG Export Plug-In  -->
<!DOCTYPE svg PUBLIC "-//W3C//DTD SVG 1.1//EN" "http://www.w3.org/Graphics/SVG/1.1/DTD/svg11.dtd" [
	<!ENTITY ns_flows "http://ns.adobe.com/Flows/1.0/">
]>
<svg version="1.1"
	 xmlns="http://www.w3.org/2000/svg" xmlns:xlink="http://www.w3.org/1999/xlink" xmlns:a="http://ns.adobe.com/AdobeSVGViewerExtensions/3.0/"
	 x="0px" y="0px" width="142px" height="142px" viewBox="-4.045 -15.711 142 142" enable-background="new -4.045 -15.711 142 142"
	 xml:space="preserve">
<defs>
</defs>
<path fill-rule="evenodd" clip-rule="evenodd" fill="#BEBEBE" d="M63.124,4.479C63.17,4.152,63.633,4.244,63.96,4.2
	c0.186,0,0.372,0,0.558,0C64.565,4.804,63.529,4.326,63.124,4.479z"/>
<path fill-rule="evenodd" clip-rule="evenodd" fill="#191919" d="M43.335,6.708c0.087-0.378,0.698-0.231,1.116-0.279
	C44.399,6.842,43.777,6.685,43.335,6.708z"/>
<path fill-rule="evenodd" clip-rule="evenodd" fill="#191919" d="M40.827,6.987c-0.047-0.604,0.989-0.126,1.394-0.279
	C42.268,7.313,41.232,6.834,40.827,6.987z"/>
<path fill-rule="evenodd" clip-rule="evenodd" fill="#191919" d="M38.598,7.266c0.086-0.378,0.698-0.231,1.115-0.279
	C39.661,7.4,39.039,7.243,38.598,7.266z"/>
<path fill-rule="evenodd" clip-rule="evenodd" fill="#BEBEBE" d="M61.452,7.266c-0.047-0.604,0.988-0.126,1.394-0.279
	c-0.062,0.217-0.233,0.324-0.558,0.279c-0.093,0-0.186,0-0.278,0C61.824,7.266,61.638,7.266,61.452,7.266z"/>
<path fill-rule="evenodd" clip-rule="evenodd" fill="#191919" d="M36.089,7.544c-0.047-0.604,0.989-0.126,1.394-0.278
	C37.53,7.87,36.495,7.392,36.089,7.544z"/>
<path fill-rule="evenodd" clip-rule="evenodd" fill="#191919" d="M33.86,7.823c0.086-0.378,0.698-0.231,1.115-0.279
	C34.923,7.957,34.301,7.8,33.86,7.823z"/>
<path fill-rule="evenodd" clip-rule="evenodd" fill="#191919" d="M31.352,8.102c-0.047-0.604,0.988-0.126,1.394-0.278
	C32.792,8.428,31.756,7.949,31.352,8.102z"/>
<path fill-rule="evenodd" clip-rule="evenodd" fill="#191919" d="M29.122,8.38c0.086-0.378,0.697-0.231,1.114-0.279
	C30.185,8.515,29.563,8.357,29.122,8.38z"/>
<path fill-rule="evenodd" clip-rule="evenodd" fill="#191919" d="M26.892,8.659c0.086-0.378,0.698-0.231,1.114-0.279
	C27.955,8.793,27.333,8.636,26.892,8.659z"/>
<path fill-rule="evenodd" clip-rule="evenodd" fill="#191919" d="M24.383,8.938c-0.046-0.604,0.989-0.125,1.394-0.278
	C25.824,9.264,24.789,8.785,24.383,8.938z"/>
<path fill-rule="evenodd" clip-rule="evenodd" fill="#191919" d="M22.154,9.216c-0.047-0.604,0.988-0.126,1.393-0.279
	C23.594,9.542,22.559,9.064,22.154,9.216z"/>
<path fill-rule="evenodd" clip-rule="evenodd" fill="#BEBEBE" d="M108.833,9.216c0.455-0.125,0.455,1.519,0,1.394
	C108.833,10.146,108.833,9.681,108.833,9.216z"/>
<path fill-rule="evenodd" clip-rule="evenodd" fill="#191919" d="M35.811,10.332c0.034-0.616,1.182-0.118,1.672-0.279
	c-0.062,0.218-0.233,0.325-0.558,0.279C36.554,10.332,36.183,10.332,35.811,10.332z"/>
<path fill-rule="evenodd" clip-rule="evenodd" fill="#191919" d="M33.581,10.61c0.052-0.413,0.674-0.256,1.115-0.279
	C34.645,10.744,34.023,10.587,33.581,10.61z"/>
<path fill-rule="evenodd" clip-rule="evenodd" fill="#191919" d="M31.352,10.889c0.051-0.413,0.673-0.255,1.115-0.278
	C32.415,11.023,31.793,10.866,31.352,10.889z"/>
<path fill-rule="evenodd" clip-rule="evenodd" fill="#191919" d="M28.843,11.167c0.052-0.413,0.674-0.255,1.115-0.279
	C29.906,11.302,29.284,11.144,28.843,11.167z"/>
<path fill-rule="evenodd" clip-rule="evenodd" fill="#191919" d="M26.613,11.446c0.051-0.413,0.673-0.255,1.115-0.279
	C27.676,11.581,27.055,11.423,26.613,11.446z"/>
<path fill-rule="evenodd" clip-rule="evenodd" fill="#191919" d="M24.105,11.725c-0.047-0.604,0.989-0.126,1.393-0.279
	C25.545,12.051,24.51,11.572,24.105,11.725z"/>
<path fill-rule="evenodd" clip-rule="evenodd" fill="#191919" d="M21.875,12.004c-0.047-0.604,0.989-0.126,1.394-0.279
	C23.315,12.329,22.28,11.851,21.875,12.004z"/>
<path fill-rule="evenodd" clip-rule="evenodd" fill="#191919" d="M120.817,12.282c-0.198-0.452,1.314-0.452,1.116,0
	C121.561,12.282,121.189,12.282,120.817,12.282z"/>
<path fill-rule="evenodd" clip-rule="evenodd" fill="#191919" d="M127.507,15.906c-0.181,1.214,0.364,3.15-0.278,3.902
	C127.406,18.594,126.863,16.657,127.507,15.906z"/>
<path fill-rule="evenodd" clip-rule="evenodd" fill="#191919" d="M124.72,17.299c-0.176,0.938,0.358,2.589-0.278,3.065
	C124.618,19.427,124.083,17.776,124.72,17.299z"/>
<path fill-rule="evenodd" clip-rule="evenodd" fill="#191919" d="M90.159,26.775c0.052-0.413,0.673-0.255,1.116-0.279
	C91.223,26.91,90.6,26.752,90.159,26.775z"/>
<path fill-rule="evenodd" clip-rule="evenodd" fill="#191919" d="M67.305,27.612c-0.199-0.452,1.314-0.452,1.115,0
	C68.048,27.612,67.676,27.612,67.305,27.612z"/>
<path fill-rule="evenodd" clip-rule="evenodd" fill="#191919" d="M65.354,27.89c0.052-0.413,0.673-0.256,1.115-0.278
	C66.417,28.024,65.795,27.867,65.354,27.89z"/>
<path fill-rule="evenodd" clip-rule="evenodd" fill="#191919" d="M83.191,27.89c0.052-0.413,0.673-0.256,1.116-0.278
	C84.255,28.024,83.632,27.867,83.191,27.89z"/>
<path fill-rule="evenodd" clip-rule="evenodd" fill="#191919" d="M81.521,28.169c0.05-0.414,0.673-0.256,1.114-0.279
	C82.582,28.303,81.961,28.146,81.521,28.169z"/>
<path fill-rule="evenodd" clip-rule="evenodd" fill="#191919" d="M59.78,28.726c0.051-0.413,0.673-0.255,1.114-0.278
	C60.843,28.86,60.221,28.704,59.78,28.726z"/>
<path fill-rule="evenodd" clip-rule="evenodd" fill="#191919" d="M58.108,29.005c0.051-0.414,0.673-0.256,1.115-0.279
	C59.171,29.139,58.549,28.982,58.108,29.005z"/>
<path fill-rule="evenodd" clip-rule="evenodd" fill="#191919" d="M76.224,29.005c0.052-0.414,0.673-0.256,1.116-0.279
	C77.287,29.139,76.664,28.982,76.224,29.005z"/>
<path fill-rule="evenodd" clip-rule="evenodd" fill="#191919" d="M56.156,29.284c0.052-0.412,0.674-0.255,1.115-0.278
	C57.22,29.418,56.598,29.261,56.156,29.284z"/>
<path fill-rule="evenodd" clip-rule="evenodd" fill="#191919" d="M74.551,29.284c0.052-0.412,0.675-0.255,1.116-0.278
	C75.614,29.418,74.993,29.261,74.551,29.284z"/>
<path fill-rule="evenodd" clip-rule="evenodd" fill="#191919" d="M72.042,29.284c0.56,0,1.116,0,1.673,0
	C73.762,29.741,71.998,29.741,72.042,29.284z"/>
<path fill-rule="evenodd" clip-rule="evenodd" fill="#191919" d="M52.533,29.841c0.052-0.413,0.674-0.256,1.115-0.279
	C53.597,29.975,52.975,29.818,52.533,29.841z"/>
<path fill-rule="evenodd" clip-rule="evenodd" fill="#191919" d="M86.537,30.12c0.05-0.413,0.673-0.256,1.114-0.279
	C87.599,30.254,86.978,30.097,86.537,30.12z"/>
<path fill-rule="evenodd" clip-rule="evenodd" fill="#191919" d="M67.026,30.398c-0.125-0.455,1.519-0.455,1.394,0
	C67.955,30.398,67.491,30.398,67.026,30.398z"/>
<path fill-rule="evenodd" clip-rule="evenodd" fill="#191919" d="M84.864,30.398c0.052-0.413,0.673-0.255,1.114-0.278
	C85.928,30.533,85.305,30.375,84.864,30.398z"/>
<path fill-rule="evenodd" clip-rule="evenodd" fill="#191919" d="M3.48,30.398c-0.048,0.417,0.099,1.029-0.279,1.115
	C3.249,31.097,3.102,30.485,3.48,30.398z"/>
<path fill-rule="evenodd" clip-rule="evenodd" fill="#191919" d="M0.693,30.677c-0.048,0.417,0.1,1.028-0.279,1.115
	C0.438,31.351,0.28,30.729,0.693,30.677z"/>
<path fill-rule="evenodd" clip-rule="evenodd" fill="#191919" d="M77.896,31.513c0.052-0.413,0.673-0.255,1.113-0.278
	C78.96,31.647,78.337,31.49,77.896,31.513z"/>
<path fill-rule="evenodd" clip-rule="evenodd" fill="#191919" d="M54.206,32.35c0.052-0.413,0.674-0.256,1.115-0.278
	C55.269,32.483,54.647,32.326,54.206,32.35z"/>
<path fill-rule="evenodd" clip-rule="evenodd" fill="#191919" d="M72.042,32.071c0.56,0,1.116,0,1.673,0
	C73.762,32.528,71.998,32.528,72.042,32.071z"/>
<path fill-rule="evenodd" clip-rule="evenodd" fill="#191919" d="M3.201,33.186c-0.181,1.398,0.365,3.524-0.278,4.46
	C3.104,36.247,2.558,34.121,3.201,33.186z"/>
<path fill-rule="evenodd" clip-rule="evenodd" fill="#191919" d="M0.414,34.021c-0.182,1.769,0.368,4.27-0.278,5.575
	C0.318,37.828-0.232,35.327,0.414,34.021z"/>
<path fill-rule="evenodd" clip-rule="evenodd" fill="#191919" d="M16.022,34.301c0.297-0.633,1.752-0.106,2.508-0.279
	c0,0.093,0,0.186,0,0.279C17.694,34.301,16.858,34.301,16.022,34.301z"/>
<path fill-rule="evenodd" clip-rule="evenodd" fill="#323232" d="M18.53,34.301c0-0.093,0-0.186,0-0.279c1.487,0,2.973,0,4.46,0
	c0,0.093,0,0.186,0,0.279C21.503,34.301,20.017,34.301,18.53,34.301z"/>
<path fill-rule="evenodd" clip-rule="evenodd" fill="#191919" d="M19.646,37.088c0-0.093,0-0.186,0-0.279c0.929,0,1.858,0,2.787,0
	C22.046,37.444,20.492,36.913,19.646,37.088z"/>
<path fill-rule="evenodd" clip-rule="evenodd" fill="#777777" d="M65.632,42.941c0-0.093,0-0.186,0-0.279
	c0.405,0.152,1.441-0.325,1.394,0.279C66.562,42.941,66.097,42.941,65.632,42.941z"/>
<path fill-rule="evenodd" clip-rule="evenodd" fill="#191919" d="M2.923,43.219c0,0.929,0,1.858,0,2.787
	C2.461,45.706,2.461,43.52,2.923,43.219z"/>
<path fill-rule="evenodd" clip-rule="evenodd" fill="#777777" d="M81.24,45.728c-0.604-0.046-0.126,0.989-0.278,1.394
	c-0.371,0-0.743,0-1.114,0c0-0.279,0-0.558,0-0.836c0-0.464,0-0.929,0-1.394c0-0.186,0-0.372,0-0.558c0.465,0,0.928,0,1.393,0
	C81.24,44.798,81.24,45.263,81.24,45.728z"/>
<path fill-rule="evenodd" clip-rule="evenodd" fill="#191919" d="M79.848,44.892c0,0.464,0,0.929,0,1.394c-0.094,0-0.187,0-0.278,0
	C79.722,45.88,79.242,44.845,79.848,44.892z"/>
<path fill-rule="evenodd" clip-rule="evenodd" fill="#BEBEBE" d="M63.124,45.449c0.301-0.462,2.487-0.462,2.788,0
	C64.983,45.449,64.053,45.449,63.124,45.449z"/>
<path fill-rule="evenodd" clip-rule="evenodd" fill="#BEBEBE" d="M79.848,49.63c0.371,0,0.743,0,1.114,0
	C81.162,50.082,79.647,50.082,79.848,49.63z"/>
<path fill-rule="evenodd" clip-rule="evenodd" fill="#191919" d="M54.763,51.023c0.038-0.458,1.913-0.458,1.951,0
	C56.064,51.023,55.414,51.023,54.763,51.023z"/>
<path fill-rule="evenodd" clip-rule="evenodd" fill="#191919" d="M57.55,51.023c0.417,0.048,1.028-0.1,1.114,0.279
	C58.248,51.254,57.636,51.402,57.55,51.023z"/>
<path fill-rule="evenodd" clip-rule="evenodd" fill="#191919" d="M79.569,51.581c0,0.278,0,0.558,0,0.836c0,0.093,0,0.185,0,0.278
	C79.116,52.895,79.116,51.381,79.569,51.581z"/>
<path fill-rule="evenodd" clip-rule="evenodd" fill="#323232" d="M79.569,52.695c0-0.093,0-0.186,0-0.278c0.465,0,0.928,0,1.393,0
	C81.01,53.021,79.974,52.543,79.569,52.695z"/>
<path fill-rule="evenodd" clip-rule="evenodd" fill="#191919" d="M55.042,53.81c-0.046-0.457,1.718-0.457,1.672,0
	C56.156,53.81,55.599,53.81,55.042,53.81z"/>
<path fill-rule="evenodd" clip-rule="evenodd" fill="#191919" d="M19.924,54.646c0.452-0.2,0.452,1.314,0,1.115
	C19.924,55.39,19.924,55.019,19.924,54.646z"/>
<path fill-rule="evenodd" clip-rule="evenodd" fill="#191919" d="M72.042,56.04c0.417,0.048,1.03-0.1,1.116,0.279
	C72.718,56.296,72.095,56.453,72.042,56.04z"/>
<path fill-rule="evenodd" clip-rule="evenodd" fill="#191919" d="M50.861,58.548c0.624,0.12,0.113,1.374,0.279,1.951
	c-0.093,0-0.186,0-0.279,0C50.861,59.849,50.861,59.199,50.861,58.548z"/>
<path fill-rule="evenodd" clip-rule="evenodd" fill="#323232" d="M48.074,59.664c0.093,0,0.186,0,0.278,0c0,1.021,0,2.044,0,3.065
	c-0.093,0-0.185,0-0.278,0C48.074,61.708,48.074,60.685,48.074,59.664z"/>
<path fill-rule="evenodd" clip-rule="evenodd" fill="#777777" d="M18.81,62.451c-0.459-0.038-0.459-1.913,0-1.951
	C18.81,61.15,18.81,61.8,18.81,62.451z"/>
<path fill-rule="evenodd" clip-rule="evenodd" fill="#323232" d="M50.861,60.5c0.093,0,0.186,0,0.279,0c0,1.021,0,2.044,0,3.065
	c-0.093,0-0.186,0-0.279,0C50.861,62.543,50.861,61.521,50.861,60.5z"/>
<path fill-rule="evenodd" clip-rule="evenodd" fill="#191919" d="M89.603,60.5c0.835,0,1.673,0,2.508,0
	C91.898,60.96,89.813,60.96,89.603,60.5z"/>
<path fill-rule="evenodd" clip-rule="evenodd" fill="#191919" d="M48.074,62.729c0.093,0,0.186,0,0.278,0c0,0.558,0,1.115,0,1.672
	C47.737,64.367,48.234,63.219,48.074,62.729z"/>
<path fill-rule="evenodd" clip-rule="evenodd" fill="#191919" d="M87.651,63.008c0.416,0.047,1.029-0.101,1.115,0.278
	C88.324,63.263,87.703,63.42,87.651,63.008z"/>
<path fill-rule="evenodd" clip-rule="evenodd" fill="#191919" d="M90.159,63.287c0.557,0,1.116,0,1.673,0
	C91.878,63.745,90.113,63.745,90.159,63.287z"/>
<path fill-rule="evenodd" clip-rule="evenodd" fill="#777777" d="M50.861,63.565c0.093,0,0.186,0,0.279,0c0,0.93,0,1.859,0,2.788
	C50.504,65.966,51.036,64.413,50.861,63.565z"/>
<path fill-rule="evenodd" clip-rule="evenodd" fill="#777777" d="M68.978,64.959c-0.2-0.453,1.313-0.453,1.115,0
	C69.721,64.959,69.35,64.959,68.978,64.959z"/>
<path fill-rule="evenodd" clip-rule="evenodd" fill="#191919" d="M6.267,17.299c0.813-1.046,1.742-1.975,2.787-2.787
	C8.242,15.558,7.313,16.487,6.267,17.299z"/>
<path fill-rule="evenodd" clip-rule="evenodd" fill="#191919" d="M3.48,53.253c1.231,0.998,2.346,2.113,3.344,3.344
	C5.593,55.599,4.479,54.484,3.48,53.253z"/>
<path fill-rule="evenodd" clip-rule="evenodd" fill="#191919" d="M8.218,57.713c0.86,0.626,1.604,1.368,2.229,2.229
	C9.588,59.316,8.845,58.573,8.218,57.713z"/>
<path fill-rule="evenodd" clip-rule="evenodd" fill="#191919" d="M12.399,61.615c0.953,0.719,1.789,1.555,2.508,2.508
	C13.954,63.404,13.118,62.567,12.399,61.615z"/>
<path fill-rule="evenodd" clip-rule="evenodd" fill="#191919" d="M16.58,65.516c0.226,0.053,0.278,0.279,0.558,0.278
	c0.098,0.367,0.491,0.439,0.557,0.837C17.203,66.379,16.831,66.008,16.58,65.516z"/>
<path fill-rule="evenodd" clip-rule="evenodd" fill="#323232" d="M17.694,66.631c0.569,0.082,0.546,0.754,1.115,0.836
	c0,0.093,0,0.186,0,0.278C18.318,67.495,17.946,67.122,17.694,66.631z"/>
<path fill-rule="evenodd" clip-rule="evenodd" fill="#BEBEBE" d="M20.203,68.861c-0.647-0.188-0.746-0.927-1.393-1.115
	c0-0.093,0-0.186,0-0.278C19.393,67.813,19.857,68.278,20.203,68.861z"/>
<path fill-rule="evenodd" clip-rule="evenodd" fill="#777777" d="M20.203,68.861c0.675,0.439,1.233,0.997,1.672,1.672
	C21.2,70.094,20.643,69.536,20.203,68.861z"/>
<path fill-rule="evenodd" clip-rule="evenodd" fill="#323232" d="M21.875,70.533c0.492,0.252,0.863,0.624,1.115,1.115
	C22.499,71.396,22.127,71.025,21.875,70.533z"/>
<path fill-rule="evenodd" clip-rule="evenodd" fill="#BEBEBE" d="M24.383,72.762c-0.491-0.251-0.863-0.623-1.114-1.114
	C23.76,71.9,24.132,72.272,24.383,72.762z"/>
<path fill-rule="evenodd" clip-rule="evenodd" fill="#777777" d="M24.383,72.762c0.675,0.44,1.233,0.998,1.672,1.672
	C25.38,73.996,24.823,73.438,24.383,72.762z"/>
<path fill-rule="evenodd" clip-rule="evenodd" fill="#323232" d="M26.056,74.434c0.583,0.347,1.048,0.812,1.394,1.395
	C26.866,75.482,26.402,75.018,26.056,74.434z"/>
<path fill-rule="evenodd" clip-rule="evenodd" fill="#191919" d="M27.45,75.829c0.093,0,0.186,0,0.278,0
	c0.188,0.647,0.926,0.746,1.115,1.394C28.26,76.876,27.795,76.412,27.45,75.829z"/>
<path fill-rule="evenodd" clip-rule="evenodd" fill="#BEBEBE" d="M28.843,77.222c-0.188-0.647-0.926-0.746-1.115-1.394
	c0.768,0.533,1.418,1.183,1.951,1.951C29.313,77.681,29.241,77.29,28.843,77.222z"/>
<path fill-rule="evenodd" clip-rule="evenodd" fill="#777777" d="M29.679,77.78c0.675,0.439,1.233,0.997,1.673,1.672
	C30.676,79.012,30.119,78.456,29.679,77.78z"/>
<path fill-rule="evenodd" clip-rule="evenodd" fill="#323232" d="M31.352,79.452c0.492,0.252,0.863,0.623,1.115,1.115
	C31.975,80.314,31.603,79.943,31.352,79.452z"/>
<path fill-rule="evenodd" clip-rule="evenodd" fill="#777777" d="M75.667,65.516c0.49,0.253,0.863,0.623,1.113,1.115
	C76.29,66.379,75.919,66.008,75.667,65.516z"/>
<path fill-rule="evenodd" clip-rule="evenodd" fill="#191919" d="M103.538,57.155c0.25-0.491,0.623-0.862,1.113-1.115
	C104.401,56.532,104.028,56.903,103.538,57.155z"/>
<path fill-rule="evenodd" clip-rule="evenodd" fill="#191919" d="M105.489,55.482c1.184-1.417,2.484-2.717,3.9-3.902
	C108.206,52.998,106.905,54.299,105.489,55.482z"/>
<path fill-rule="evenodd" clip-rule="evenodd" fill="#191919" d="M120.261,29.841c0.252-0.492,0.623-0.863,1.115-1.115
	C121.124,29.217,120.751,29.59,120.261,29.841z"/>
<path fill-rule="evenodd" clip-rule="evenodd" fill="#191919" d="M123.885,26.218c0.345-0.583,0.81-1.047,1.393-1.393
	C124.931,25.408,124.466,25.872,123.885,26.218z"/>
<path fill-rule="evenodd" clip-rule="evenodd" fill="#191919" d="M124.998,10.61c0.583,0.346,1.048,0.811,1.395,1.394
	C125.81,11.658,125.345,11.193,124.998,10.61z"/>
<path fill-rule="evenodd" clip-rule="evenodd" fill="#191919" d="M115.801,12.282c0.252-0.491,0.623-0.863,1.116-1.115
	C116.664,11.659,116.292,12.031,115.801,12.282z"/>
<path fill-rule="evenodd" clip-rule="evenodd" fill="#191919" d="M113.571,14.791c0.347-0.583,0.812-1.048,1.394-1.394
	C114.619,13.98,114.154,14.445,113.571,14.791z"/>
<path fill-rule="evenodd" clip-rule="evenodd" fill="#191919" d="M111.341,17.299c0.347-0.583,0.812-1.048,1.395-1.394
	C112.389,16.489,111.924,16.953,111.341,17.299z"/>
<path fill-rule="evenodd" clip-rule="evenodd" fill="#191919" d="M101.865,23.431c1.004-0.575,1.504-1.654,2.508-2.23
	c-0.719,0.953-1.555,1.79-2.508,2.509C101.865,23.617,101.865,23.524,101.865,23.431z"/>
<path fill-rule="evenodd" clip-rule="evenodd" fill="#BEBEBE" d="M101.865,23.431c1.184-1.417,2.486-2.718,3.902-3.902
	c-0.288,0.734-1.105,0.939-1.395,1.672C103.369,21.776,102.869,22.855,101.865,23.431z"/>
<path fill-rule="evenodd" clip-rule="evenodd" fill="#777777" d="M105.768,19.528c0.72-0.953,1.555-1.789,2.509-2.508
	C107.557,17.973,106.72,18.81,105.768,19.528z"/>
<path fill-rule="evenodd" clip-rule="evenodd" fill="#323232" d="M108.276,17.02c0.438-0.675,0.997-1.232,1.673-1.671
	C109.508,16.023,108.951,16.581,108.276,17.02z"/>
<path fill-rule="evenodd" clip-rule="evenodd" fill="#777777" d="M94.34,35.416c0.251-0.491,0.623-0.863,1.114-1.115
	C95.204,34.792,94.831,35.164,94.34,35.416z"/>
<path fill-rule="evenodd" clip-rule="evenodd" fill="#BEBEBE" d="M91.275,38.481c0.018-0.817,0.637-1.036,1.113-1.394
	c-0.082,0.568-0.753,0.546-0.835,1.115C91.604,38.439,91.445,38.465,91.275,38.481z"/>
<path fill-rule="evenodd" clip-rule="evenodd" fill="#BEBEBE" d="M73.994,63.844c0.675,0.438,1.231,0.997,1.673,1.672
	C74.991,65.077,74.435,64.519,73.994,63.844z"/>
<path fill-rule="evenodd" clip-rule="evenodd" fill="#BEBEBE" d="M76.78,77.78c0.253-0.491,0.625-0.863,1.116-1.115
	C77.644,77.156,77.273,77.528,76.78,77.78z"/>
<path fill-rule="evenodd" clip-rule="evenodd" fill="#BEBEBE" d="M15.465,47.958c0.099-0.366,0.491-0.438,0.557-0.836
	c0.226-0.053,0.278-0.28,0.558-0.279C16.328,47.334,15.956,47.706,15.465,47.958z"/>
<path fill-rule="evenodd" clip-rule="evenodd" fill="#777777" d="M16.58,46.842c0.251-0.491,0.624-0.863,1.115-1.115
	C17.442,46.219,17.071,46.591,16.58,46.842z"/>
<path fill-rule="evenodd" clip-rule="evenodd" fill="#777777" d="M26.892,35.137c0.491,0.251,0.863,0.623,1.114,1.114
	C27.515,36,27.144,35.628,26.892,35.137z"/>
<path fill-rule="evenodd" clip-rule="evenodd" fill="#BEBEBE" d="M17.973,50.187c-0.775-1.25,0.97-2.367,1.951-2.787
	c-0.417,0.511-1.164,0.695-1.394,1.393C17.921,48.834,17.932,49.496,17.973,50.187z"/>
<path fill-rule="evenodd" clip-rule="evenodd" fill="#777777" d="M20.482,65.516c0.583,0.346,1.047,0.811,1.393,1.394
	C21.292,66.564,20.828,66.099,20.482,65.516z"/>
<path fill-rule="evenodd" clip-rule="evenodd" fill="#BEBEBE" d="M21.875,66.91c0.226,0.053,0.278,0.279,0.558,0.279
	c0.082,0.568,0.754,0.546,0.836,1.114C22.686,67.958,22.221,67.493,21.875,66.91z"/>
<path fill-rule="evenodd" clip-rule="evenodd" fill="#323232" d="M23.547,68.303c0.491,0.252,0.863,0.624,1.115,1.114
	C24.171,69.167,23.799,68.794,23.547,68.303z"/>
<path fill-rule="evenodd" clip-rule="evenodd" fill="#777777" d="M24.663,69.417c0.583,0.347,1.047,0.812,1.393,1.395
	C25.473,70.465,25.008,70,24.663,69.417z"/>
<path fill-rule="evenodd" clip-rule="evenodd" fill="#BEBEBE" d="M26.056,70.812c0.226,0.054,0.278,0.279,0.558,0.278
	c0.082,0.568,0.754,0.546,0.836,1.115C26.866,71.86,26.402,71.395,26.056,70.812z"/>
<path fill-rule="evenodd" clip-rule="evenodd" fill="#323232" d="M27.728,72.206c0.583,0.346,1.047,0.811,1.394,1.394
	C28.539,73.253,28.074,72.789,27.728,72.206z"/>
<path fill-rule="evenodd" clip-rule="evenodd" fill="#777777" d="M29.122,73.599c0.767,0.532,1.418,1.184,1.95,1.951
	C30.305,75.017,29.654,74.367,29.122,73.599z"/>
<path fill-rule="evenodd" clip-rule="evenodd" fill="#BEBEBE" d="M31.072,75.55c0.367,0.098,0.439,0.491,0.836,0.557
	c0.082,0.569,0.754,0.547,0.836,1.115C32.07,76.783,31.513,76.225,31.072,75.55z"/>
<path fill-rule="evenodd" clip-rule="evenodd" fill="#323232" d="M33.023,77.222c0.492,0.251,0.863,0.623,1.115,1.115
	C33.646,78.084,33.275,77.713,33.023,77.222z"/>
<path fill-rule="evenodd" clip-rule="evenodd" fill="#BEBEBE" d="M75.109,68.861c-0.641-0.383-0.897-1.147-1.395-1.672
	C74.404,67.522,74.805,68.143,75.109,68.861z"/>
<path fill-rule="evenodd" clip-rule="evenodd" fill="#777777" d="M72.323,65.794c0.581,0.347,1.048,0.811,1.392,1.395
	C73.132,66.842,72.667,66.378,72.323,65.794z"/>
<path fill-rule="evenodd" clip-rule="evenodd" fill="#777777" d="M49.467,70.254c0.492,0.251,0.864,0.623,1.115,1.114
	C50.091,71.118,49.719,70.746,49.467,70.254z"/>
<path fill-rule="evenodd" clip-rule="evenodd" fill="#BEBEBE" d="M49.747,47.122c0.252-0.492,0.623-0.863,1.114-1.115
	C50.609,46.498,50.238,46.87,49.747,47.122z"/>
<path fill-rule="evenodd" clip-rule="evenodd" fill="#777777" d="M89.603,36.251c0.252-0.491,0.623-0.863,1.113-1.114
	C90.466,35.628,90.093,36,89.603,36.251z"/>
<path fill-rule="evenodd" clip-rule="evenodd" fill="#BEBEBE" d="M91.275,34.858c0.621-0.958,1.589-1.569,2.228-2.508
	C93.145,33.568,92.099,34.102,91.275,34.858z"/>
<path fill-rule="evenodd" clip-rule="evenodd" fill="#777777" d="M100.192,21.48c0.721-0.953,1.557-1.789,2.508-2.508
	C101.981,19.925,101.146,20.761,100.192,21.48z"/>
<path fill-rule="evenodd" clip-rule="evenodd" fill="#BEBEBE" d="M102.7,18.972c0.289-0.734,1.106-0.939,1.395-1.672
	c0.954-0.719,1.789-1.555,2.509-2.508c0.092,0,0.186,0,0.278,0C105.605,16.301,104.211,17.694,102.7,18.972z"/>
<path fill-rule="evenodd" clip-rule="evenodd" fill="#323232" d="M106.604,14.791c0.252-0.491,0.623-0.863,1.115-1.115
	c-0.082,0.568-0.755,0.546-0.837,1.115C106.789,14.791,106.695,14.791,106.604,14.791z"/>
<path fill-rule="evenodd" clip-rule="evenodd" fill="#191919" d="M104.095,17.299c0.72-0.953,1.557-1.789,2.509-2.508
	C105.884,15.744,105.049,16.58,104.095,17.299z"/>
<path fill-rule="evenodd" clip-rule="evenodd" fill="#191919" d="M97.127,24.545c0.627-0.86,1.37-1.603,2.229-2.229
	c-0.188,0.647-0.925,0.746-1.115,1.393C97.674,23.792,97.696,24.463,97.127,24.545z"/>
<path fill-rule="evenodd" clip-rule="evenodd" fill="#191919" d="M70.65,28.448c0.553,0.003,0.354,0.76,1.113,0.558
	c0,0.093,0,0.186,0,0.278c-0.759,0.203-0.561-0.554-1.113-0.558C70.65,28.633,70.65,28.541,70.65,28.448z"/>
<path fill-rule="evenodd" clip-rule="evenodd" fill="#323232" d="M76.502,71.648c0.617,0.035,0.118,1.183,0.278,1.673
	c-0.248,0.171-0.497,0.336-0.557,0C76.841,73.286,76.342,72.137,76.502,71.648z"/>
<path fill-rule="evenodd" clip-rule="evenodd" fill="#191919" d="M32.745,77.222c-0.082-0.568-0.754-0.546-0.836-1.115
	c0.491,0.253,0.863,0.624,1.115,1.115C32.931,77.222,32.838,77.222,32.745,77.222z"/>
<path fill-rule="evenodd" clip-rule="evenodd" fill="#191919" d="M27.45,72.206c-0.082-0.569-0.754-0.547-0.836-1.115
	c0.491,0.252,0.863,0.623,1.115,1.115C27.635,72.206,27.542,72.206,27.45,72.206z"/>
<path fill-rule="evenodd" clip-rule="evenodd" fill="#191919" d="M23.269,68.303c-0.082-0.568-0.754-0.546-0.836-1.114
	c0.491,0.252,0.863,0.623,1.115,1.114C23.454,68.303,23.362,68.303,23.269,68.303z"/>
<path fill-rule="evenodd" clip-rule="evenodd" fill="#191919" d="M7.939,19.528c0.906-1.138,1.927-2.16,3.066-3.065
	C10.1,17.602,9.078,18.624,7.939,19.528z"/>
<path fill-rule="evenodd" clip-rule="evenodd" fill="#191919" d="M5.431,51.302c1.324,1.091,2.532,2.299,3.623,3.623
	C7.73,53.834,6.522,52.626,5.431,51.302z"/>
<path fill-rule="evenodd" clip-rule="evenodd" fill="#191919" d="M10.448,56.04c1.046,0.813,1.975,1.741,2.788,2.787
	C12.189,58.014,11.261,57.085,10.448,56.04z"/>
<path fill-rule="evenodd" clip-rule="evenodd" fill="#191919" d="M14.629,59.942c0.647,0.189,0.746,0.927,1.393,1.114
	c0,0.094,0,0.187,0,0.279C15.439,60.99,14.975,60.525,14.629,59.942z"/>
<path fill-rule="evenodd" clip-rule="evenodd" fill="#323232" d="M44.451,6.429c0.371,0,0.743,0,1.114,0c0.465,0,0.929,0,1.394,0
	c-3.487,0.879-6.575,2.158-9.476,3.623c-0.491,0.161-1.638-0.336-1.672,0.279c-0.372,0-0.744,0-1.115,0
	c-0.441,0.023-1.063-0.134-1.115,0.279c-0.372,0-0.743,0-1.115,0c-0.441,0.023-1.063-0.134-1.115,0.278c-0.465,0-0.929,0-1.394,0
	c-0.441,0.023-1.063-0.134-1.115,0.279c-0.372,0-0.743,0-1.115,0c-0.441,0.023-1.063-0.134-1.115,0.279c-0.372,0-0.743,0-1.115,0
	c-0.404,0.152-1.44-0.326-1.393,0.279c-0.279,0-0.558,0-0.836,0c-0.405,0.152-1.441-0.326-1.394,0.279
	c-4.549,0.56-7.879,2.34-10.869,4.459c-1.139,0.905-2.161,1.927-3.066,3.065c-2.007,3.103-3.762,6.457-4.459,10.87
	c-0.379,0.087-0.231,0.698-0.279,1.115c0,0.558,0,1.115,0,1.672c-0.644,0.935-0.098,3.062-0.278,4.46c0,1.857,0,3.716,0,5.574
	c-0.461,0.301-0.461,2.487,0,2.787c0.277,2.324,1.574,3.629,2.508,5.296c1.091,1.324,2.299,2.532,3.623,3.623
	c0.648,0.188,0.747,0.926,1.394,1.115c0.813,1.045,1.741,1.974,2.788,2.787c0.647,0.189,0.746,0.927,1.394,1.115
	c0.346,0.583,0.81,1.048,1.393,1.394c-0.179,2.037,0.707,3.01,1.115,4.459c-0.28,0.001-0.332-0.226-0.558-0.278
	c-0.734-0.288-0.938-1.104-1.672-1.394c-0.719-0.953-1.555-1.789-2.508-2.508c-0.822-0.386-1.128-1.287-1.951-1.673
	c-0.626-0.86-1.369-1.603-2.229-2.229c-0.647-0.189-0.746-0.927-1.394-1.116c-0.999-1.231-2.113-2.346-3.344-3.344
	c-0.932-1.431-2.888-3.325-3.345-5.853c-0.423-2.34,0.307-4.897,0-7.804c0.646-1.305,0.096-3.806,0.278-5.575
	c0-0.743,0-1.486,0-2.229c0.379-0.086,0.231-0.697,0.279-1.115c0.469-5.848,2.792-9.843,5.574-13.378
	c1.046-0.813,1.975-1.742,2.787-2.787c3.407-2.725,7.296-4.967,13.1-5.296c0.404-0.152,1.44,0.326,1.393-0.279
	c0.279,0,0.558,0,0.836,0c0.405-0.152,1.44,0.326,1.394-0.278c0.372,0,0.743,0,1.115,0c0.441-0.023,1.063,0.134,1.114-0.279
	c0.373,0,0.744,0,1.116,0c0.441-0.023,1.063,0.134,1.114-0.279c0.372,0,0.743,0,1.115,0c0.404-0.152,1.44,0.326,1.394-0.278
	c0.372,0,0.743,0,1.115,0c0.441-0.023,1.063,0.134,1.115-0.279c0.372,0,0.743,0,1.115,0c0.405-0.152,1.441,0.326,1.394-0.278
	c0.372,0,0.743,0,1.114,0c0.441-0.023,1.063,0.134,1.115-0.279c0.371,0,0.743,0,1.114,0c0.405-0.152,1.441,0.326,1.394-0.279
	c0.371,0,0.743,0,1.114,0C43.777,6.685,44.399,6.842,44.451,6.429z"/>
<path fill-rule="evenodd" clip-rule="evenodd" fill="#191919" d="M103.26,53.81c0.532-0.767,1.182-1.417,1.951-1.951
	C104.678,52.627,104.026,53.277,103.26,53.81z"/>
<path fill-rule="evenodd" clip-rule="evenodd" fill="#191919" d="M105.768,51.302c0.438-0.675,0.998-1.233,1.671-1.672
	C107,50.305,106.442,50.862,105.768,51.302z"/>
<path fill-rule="evenodd" clip-rule="evenodd" fill="#191919" d="M118.309,27.89c0.347-0.583,0.812-1.047,1.395-1.394
	C119.356,27.08,118.892,27.544,118.309,27.89z"/>
<path fill-rule="evenodd" clip-rule="evenodd" fill="#191919" d="M121.376,24.825c0.625-0.861,1.368-1.604,2.229-2.23
	C122.979,23.455,122.235,24.198,121.376,24.825z"/>
<path fill-rule="evenodd" clip-rule="evenodd" fill="#191919" d="M123.047,12.561c0.491,0.252,0.863,0.624,1.116,1.115
	C123.67,13.424,123.3,13.053,123.047,12.561z"/>
<path fill-rule="evenodd" clip-rule="evenodd" fill="#191919" d="M117.474,14.512c0.345-0.583,0.81-1.047,1.393-1.394
	C118.521,13.702,118.057,14.166,117.474,14.512z"/>
<path fill-rule="evenodd" clip-rule="evenodd" fill="#191919" d="M115.244,17.02c0.345-0.583,0.809-1.047,1.392-1.393
	C116.292,16.21,115.827,16.674,115.244,17.02z"/>
<path fill-rule="evenodd" clip-rule="evenodd" fill="#191919" d="M113.293,19.25c0.252-0.491,0.623-0.863,1.113-1.115
	C114.156,18.626,113.783,18.999,113.293,19.25z"/>
<path fill-rule="evenodd" clip-rule="evenodd" fill="#323232" d="M116.917,11.167c1.759-1.891,5.964-2.52,8.081-0.557
	c0.347,0.583,0.812,1.047,1.395,1.394c0.521,1.15,1.284,2.059,1.114,3.902c-0.644,0.751-0.101,2.688-0.278,3.902
	c0.198,2.521-0.978,3.666-1.951,5.017c-0.583,0.346-1.048,0.81-1.393,1.393c-0.954,0.719-1.791,1.556-2.509,2.508
	c-0.492,0.252-0.863,0.624-1.115,1.115c-1.181,1.546-1.966,3.153-2.787,5.017c-0.061,0.137-0.527,0.457-0.557,0.558
	c-1.307,4.317-2.701,9.157-5.019,12.821c-0.215,0.339-0.573,0.707-0.836,1.114c-0.513,0.8-0.972,1.38-1.673,2.23
	c-1.416,1.185-2.717,2.485-3.9,3.902c-0.366,0.099-0.438,0.491-0.838,0.558c-0.49,0.252-0.863,0.624-1.113,1.115
	c-3.586,2.36-5.862,6.03-11.706,6.132c-0.557,0-1.116,0-1.673,0c-0.465,0-0.928,0-1.393,0c-0.086-0.379-0.699-0.231-1.115-0.278
	c-6.365-0.696-8.076-6.046-14.493-6.689c-0.086-0.378-0.699-0.231-1.116-0.279c-5.306-0.545-10.145-1.56-15.328-2.23
	c0.045-0.457-1.718-0.457-1.672,0c-1.375,1.227-3.055,2.148-4.181,3.623c0-1.393,0-2.787,0-4.18c1.601-0.442,1.939-2.149,3.902-2.23
	c0.65,0,1.301,0,1.951,0c0.278,0,0.557,0,0.836,0c0.086,0.379,0.698,0.231,1.114,0.279c5.227,0.578,9.581,1.353,14.494,2.229
	c1.964,0.35,4.011,0.504,5.573,1.394c0.611,0.348,1.116,0.872,1.951,1.394c0.836,0.522,1.128,0.803,1.952,1.395
	c0.727,0.521,1.7,0.898,2.508,1.671c0.663,0.636,2.931,0.864,4.46,1.115c0.21,0.461,2.296,0.461,2.508,0
	c5.261-0.685,7.406-4.486,11.149-6.689c0.767-0.533,1.418-1.183,1.951-1.951c0.248-0.123,0.497-0.244,0.557-0.557
	c0.675-0.44,1.232-0.998,1.671-1.672c2.292-3.038,4.228-6.763,5.575-10.87c1.331-4.055,2.575-8.094,5.295-10.87
	c0.583-0.346,1.048-0.81,1.395-1.394c0.439-0.675,0.996-1.232,1.673-1.672c0.859-0.626,1.603-1.37,2.229-2.23
	c0.04-0.983,0.797-1.246,0.837-2.23c0.637-0.477,0.103-2.127,0.278-3.065c0.078-1.473-0.016-2.772-0.557-3.623
	c-0.253-0.492-0.625-0.863-1.116-1.115c-0.499,0.035-0.587-0.341-1.113-0.279c0.198-0.452-1.314-0.452-1.116,0
	c-1-0.07-1.021,0.837-1.951,0.836c-0.583,0.346-1.048,0.811-1.393,1.394c-0.082,0.568-0.755,0.546-0.838,1.115
	c-0.583,0.346-1.047,0.811-1.392,1.393c-0.082,0.569-0.756,0.547-0.838,1.115c-0.49,0.252-0.861,0.624-1.113,1.115
	c-0.558,0.808-0.868,1.59-1.395,2.787c-0.061,0.137-0.527,0.457-0.558,0.558c-0.074,0.247,0.099,0.6,0,0.836
	c-0.058,0.139-0.526,0.455-0.557,0.558c-0.076,0.249,0.094,0.595,0,0.836c-0.056,0.141-0.526,0.454-0.557,0.557
	c-0.365,1.206-0.768,2.173-1.395,3.344c-0.493,0.919-0.751,1.866-1.395,2.509c-0.221,0.222-0.569,0.079-0.835,0.278
	c-0.131,0.098-0.156,0.477-0.279,0.558c-1.058,0.694-2.552,1.229-3.902,1.672c-1.869,0.614-3.895,0.775-5.852,1.394
	c-1.284,0.405-2.307,1.044-3.624,1.672c0.124-0.805,1.199-0.659,1.394-1.394c0.491-0.252,0.864-0.624,1.114-1.115
	c0.604-0.699,0.88-1.723,1.673-2.229c3.717-0.878,6.655-0.999,8.641-3.345c1.457-1.723,1.957-5.038,3.065-7.525
	c0.16-0.361,0.393-0.78,0.557-1.114c0.497-1.008,1.25-1.737,1.951-2.787c0.583-0.346,1.048-0.811,1.395-1.394
	c0.082-0.568,0.754-0.547,0.836-1.115c0.583-0.346,1.048-0.811,1.394-1.394c0.083-0.568,0.754-0.546,0.836-1.115
	C116.292,12.031,116.664,11.659,116.917,11.167z"/>
<path fill-rule="evenodd" clip-rule="evenodd" fill="#777777" d="M15.186,48.515c-0.897-0.404-1.562-1.039-2.508-1.393
	c0.163-0.58,0.586-0.901,0.836-1.394c0.896,0.404,1.562,1.039,2.508,1.394c-0.066,0.397-0.458,0.47-0.557,0.836
	C15.403,48.174,15.457,48.507,15.186,48.515z"/>
<path fill-rule="evenodd" clip-rule="evenodd" fill="#191919" d="M91.554,38.203c0.082-0.568,0.753-0.547,0.835-1.115
	c0.093,0,0.187,0,0.278,0C92.415,37.579,92.044,37.951,91.554,38.203z"/>
<path fill-rule="evenodd" clip-rule="evenodd" fill="#323232" d="M97.127,24.545c0.569-0.082,0.547-0.754,1.114-0.836
	c-1.04,1.561-1.81,3.393-2.787,5.017c-0.911-0.084-2.298,0.315-3.622,0.558c-1.353,0.248-2.809,0.56-4.181,0.558
	c-0.441,0.023-1.064-0.134-1.114,0.279c-0.187,0-0.373,0-0.559,0c-0.441,0.023-1.063-0.134-1.114,0.278
	c-1.999,0.231-3.654,0.806-5.854,0.836c-0.44,0.023-1.062-0.134-1.113,0.278c-1.448,0.131-2.53,0.629-4.182,0.558
	c-0.557,0-1.113,0-1.673,0c-1.839,0.075-2.556-0.975-3.622-1.673c0.125-0.455-1.519-0.455-1.394,0
	c-3.938,0.522-7.583,1.337-11.706,1.673c-0.441,0.022-1.063-0.134-1.115,0.278c-1.267,0.312-2.896,0.263-3.902,0.836
	c0.288,0.888,1.54,1.213,2.509,1.672c3.438,1.628,7.18,3.307,10.87,5.017c1.779,0.824,3.458,1.662,5.296,2.508
	c1.012,0.465,2.188,0.705,2.786,1.394c-1.677-0.18-2.858-0.857-4.737-0.836c0.047-0.604-0.989-0.127-1.394-0.279
	c-1.021,0-2.043,0-3.065,0c-0.865-0.765-2.293-1.21-3.902-1.951c-1.147-0.528-2.537-1.331-3.901-1.951
	c-2.424-1.102-6.665-2.124-7.247-4.18c-0.794-2.804,1.289-5.028,5.017-4.738c0.441-0.023,1.063,0.134,1.115-0.279
	c0.918-0.012,1.388-0.47,2.508-0.279c0.442-0.023,1.063,0.134,1.115-0.278c0.279,0,0.557,0,0.836,0
	c0.441-0.023,1.063,0.134,1.115-0.279c0.185,0,0.372,0,0.558,0c0.441-0.022,1.063,0.134,1.114-0.278
	c1.503-0.169,2.772-0.573,4.459-0.558c0.441-0.023,1.063,0.134,1.115-0.278c0.279,0,0.558,0,0.836,0c0.372,0,0.743,0,1.115,0
	c1.204-0.182,1.563,0.481,2.23,0.836c0,0.093,0,0.186,0,0.278c0.553,0.003,0.354,0.761,1.113,0.558c0.095,0,0.187,0,0.278,0
	c-0.044,0.458,1.72,0.458,1.673,0c0.279,0,0.558,0,0.836,0c0.442-0.023,1.063,0.134,1.116-0.278c0.186,0,0.37,0,0.557,0
	c0.44-0.023,1.063,0.134,1.116-0.279c1.446-0.131,2.53-0.628,4.181-0.557c0.44-0.024,1.062,0.133,1.114-0.279
	c0.186,0,0.37,0,0.557,0c0.44-0.023,1.063,0.134,1.116-0.278c1.997-0.232,3.654-0.806,5.852-0.836
	c0.44-0.023,1.063,0.134,1.116-0.279C93.471,26.092,95.53,25.55,97.127,24.545z"/>
<path fill-rule="evenodd" clip-rule="evenodd" fill="#777777" d="M76.224,73.321c0.06,0.336,0.309,0.171,0.557,0
	c-0.402,0.524-0.408,1.447-1.113,1.672c-0.399-0.81-1.726-0.691-2.23-1.394c0.12-0.531,0.602-0.7,0.558-1.394
	C74.743,72.572,75.477,72.954,76.224,73.321z"/>
<path fill-rule="evenodd" clip-rule="evenodd" fill="#191919" d="M61.452,1.413c-0.452,0.2-0.452-1.314,0-1.115
	C61.452,0.669,61.452,1.041,61.452,1.413z"/>
<path fill-rule="evenodd" clip-rule="evenodd" fill="#323232" d="M63.403,0.855c0.604-0.047,0.126,0.988,0.278,1.393
	C63.077,2.296,63.556,1.26,63.403,0.855z"/>
<path fill-rule="evenodd" clip-rule="evenodd" fill="#323232" d="M61.452,2.249c0.605-0.047,0.126,0.989,0.279,1.394
	C61.127,3.689,61.604,2.654,61.452,2.249z"/>
<path fill-rule="evenodd" clip-rule="evenodd" fill="#777777" d="M63.682,2.249C63.458,3.216,64.097,3.32,63.96,4.2
	c-0.328,0.043-0.791-0.048-0.836,0.278c-0.464,0-0.929,0-1.393,0c0-0.278,0-0.558,0-0.836c-0.153-0.405,0.326-1.441-0.279-1.394
	c0-0.278,0-0.557,0-0.836c0-0.372,0-0.743,0-1.115c0.967,0.223,1.071-0.415,1.951-0.279c0,0.279,0,0.558,0,0.836
	C63.556,1.26,63.077,2.296,63.682,2.249z"/>
<path fill-rule="evenodd" clip-rule="evenodd" fill="#323232" d="M89.881,4.2c0.124-0.46,2.105-0.46,2.229,0
	C91.367,4.2,90.624,4.2,89.881,4.2z"/>
<path fill-rule="evenodd" clip-rule="evenodd" fill="#191919" d="M48.074,6.151c-0.047-0.604,0.989-0.126,1.393-0.279
	C49.515,6.477,48.479,5.999,48.074,6.151z"/>
<path fill-rule="evenodd" clip-rule="evenodd" fill="#191919" d="M45.565,6.429c0.208-0.628,1.563-0.108,2.23-0.278
	c-0.047,0.324-0.44,0.302-0.836,0.278C46.495,6.429,46.03,6.429,45.565,6.429z"/>
<path fill-rule="evenodd" clip-rule="evenodd" fill="#323232" d="M62.288,7.266c0,0.464,0,0.929,0,1.394
	c-0.604,0.047-0.126-0.988-0.278-1.394C62.103,7.266,62.195,7.266,62.288,7.266z"/>
<path fill-rule="evenodd" clip-rule="evenodd" fill="#323232" d="M106.604,8.659c-0.125-0.456,1.519-0.456,1.394,0
	C107.532,8.659,107.068,8.659,106.604,8.659z"/>
<path fill-rule="evenodd" clip-rule="evenodd" fill="#323232" d="M64.24,8.102c0.604-0.047,0.125,0.989,0.278,1.394
	C63.914,9.542,64.392,8.507,64.24,8.102z"/>
<path fill-rule="evenodd" clip-rule="evenodd" fill="#777777" d="M101.309,8.938c1.021,0,2.043,0,3.064,0
	C103.982,9.399,101.699,9.399,101.309,8.938z"/>
<path fill-rule="evenodd" clip-rule="evenodd" fill="#323232" d="M62.288,9.774c0.605-0.047,0.126,0.989,0.279,1.394
	C61.963,11.214,62.44,10.179,62.288,9.774z"/>
<path fill-rule="evenodd" clip-rule="evenodd" fill="#777777" d="M64.518,9.496c-0.39,0.801,0.76,1.416,0,1.672
	c-0.967-0.224-1.071,0.415-1.951,0.279c0-0.093,0-0.186,0-0.279c-0.152-0.405,0.326-1.44-0.279-1.394c0-0.372,0-0.743,0-1.115
	c0-0.464,0-0.929,0-1.394c0.324,0.045,0.496-0.062,0.558-0.279c0.464,0,0.929,0,1.394,0c0,0.372,0,0.743,0,1.115
	C64.392,8.507,63.914,9.542,64.518,9.496z"/>
<path fill-rule="evenodd" clip-rule="evenodd" fill="#191919" d="M108.833,10.889c-0.022,0.441,0.134,1.063-0.278,1.115
	C108.603,11.587,108.454,10.975,108.833,10.889z"/>
<path fill-rule="evenodd" clip-rule="evenodd" fill="#777777" d="M111.341,12.282c0.167-0.577-0.344-1.831,0.279-1.951
	C111.453,10.909,111.964,12.163,111.341,12.282z"/>
<path fill-rule="evenodd" clip-rule="evenodd" fill="#777777" d="M10.727,32.35c0.413,0.052,0.255,0.673,0.279,1.115
	C10.592,33.413,10.75,32.791,10.727,32.35z"/>
<path fill-rule="evenodd" clip-rule="evenodd" fill="#777777" d="M22.99,34.021c0.577,0.167,1.831-0.344,1.951,0.279
	c-0.65,0-1.3,0-1.951,0C22.99,34.208,22.99,34.115,22.99,34.021z"/>
<path fill-rule="evenodd" clip-rule="evenodd" fill="#323232" d="M28.843,38.203c0.459,0.038,0.459,1.913,0,1.951
	C28.843,39.503,28.843,38.853,28.843,38.203z"/>
<path fill-rule="evenodd" clip-rule="evenodd" fill="#191919" d="M61.452,42.941c0.051-0.413,0.673-0.256,1.115-0.279
	c0,0.093,0,0.186,0,0.279C62.195,42.941,61.824,42.941,61.452,42.941z"/>
<path fill-rule="evenodd" clip-rule="evenodd" fill="#323232" d="M79.848,47.122c-0.396,0.024-0.789,0.045-0.838-0.279
	c0.341-0.031,0.661-0.083,0.56-0.557c0.092,0,0.185,0,0.278,0C79.848,46.564,79.848,46.842,79.848,47.122z"/>
<path fill-rule="evenodd" clip-rule="evenodd" fill="#323232" d="M81.24,45.728c-0.217,0.96,0.156,1.331,1.115,1.115
	c0.047,0.604-0.989,0.126-1.394,0.279C81.114,46.716,80.637,45.681,81.24,45.728z"/>
<path fill-rule="evenodd" clip-rule="evenodd" fill="#777777" d="M18.53,48.793c1.199,0.521,2.58,0.934,1.952,1.951
	c-0.615,0.996-0.958,0.129-2.23-0.278c-0.237,0.051-0.263-0.109-0.279-0.279C17.932,49.496,17.921,48.834,18.53,48.793z"/>
<path fill-rule="evenodd" clip-rule="evenodd" fill="#777777" d="M80.962,49.63c0.465,0,0.93,0,1.394,0
	c0.047,0.604-0.989,0.126-1.394,0.279c0,0.836,0,1.672,0,2.508c-0.465,0-0.928,0-1.393,0c0-0.278,0-0.558,0-0.836
	c0-0.558,0-1.114,0-1.672c-0.217-0.063-0.551-0.008-0.56-0.279c0.281,0,0.56,0,0.838,0C79.647,50.082,81.162,50.082,80.962,49.63z"
	/>
<path fill-rule="evenodd" clip-rule="evenodd" fill="#BEBEBE" d="M48.353,65.794c0.633,0.297,0.106,1.753,0.278,2.509
	C47.999,68.007,48.525,66.551,48.353,65.794z"/>
<path fill-rule="evenodd" clip-rule="evenodd" fill="#777777" d="M53.091,72.484c1.115,0,2.229,0,3.345,0
	C55.955,72.946,53.571,72.946,53.091,72.484z"/>
<path fill-rule="evenodd" clip-rule="evenodd" fill="#777777" d="M79.291,74.434c0.393,0.814,1.53,0.885,2.229,1.395
	c0.229,0.787-0.395,0.723-0.28,1.394c-1.282-0.019-1.81-0.792-2.787-1.115c0.16-0.583,0.691-0.795,0.557-1.673
	C79.104,74.434,79.196,74.434,79.291,74.434z"/>
<path fill-rule="evenodd" clip-rule="evenodd" fill="#FFFFFF" d="M64.518,4.2c8.343-0.947,16.62-1.961,25.084-2.788
	c0.928,0,1.856,0,2.786,0c1.863,0.12,3.591,0.717,5.017,1.672c0.609,0.408,1.136,0.796,1.951,1.394
	c0.726,0.532,1.833,1.771,3.065,1.951c1.332,0.194,2.198-0.594,3.902-0.558c0.651,0,1.301,0,1.952,0
	c2.312,0.291,3.441,1.761,3.344,4.46c-0.623,0.12-0.112,1.374-0.279,1.951c-0.092,1.395-0.859,2.114-1.392,3.066
	c-0.676,0.439-1.234,0.997-1.673,1.671c-0.954,0.72-1.789,1.556-2.509,2.508c-1.416,1.185-2.719,2.485-3.902,3.902
	c0,0.093,0,0.187,0,0.279c-2.156,2.21-3.538,5.194-4.738,8.362c-0.793,0.507-1.069,1.531-1.673,2.229
	c-0.491,0.252-0.863,0.624-1.114,1.115c-0.194,0.735-1.27,0.589-1.394,1.394c0.052,0.237-0.108,0.263-0.279,0.279
	c-0.092,0-0.186,0-0.278,0c-0.477,0.358-1.096,0.577-1.113,1.394c0.048,0.299-0.579,0.831-0.838,1.394
	c-0.879,1.911-1.206,4.498-2.229,6.131c-0.068,0.111-0.609,0.536-0.836,0.836c-0.915,1.211-2.82,2.456-5.017,2.788
	c-0.464,0-0.929,0-1.394,0c-0.371,0-0.743,0-1.114,0c-0.278,0-0.557,0-0.838,0c-4.844-0.915-7.502-4.017-13.098-4.181
	c-0.301-0.462-2.487-0.462-2.788,0c-2.591,0.104-5.296,0.888-7.804,1.672c-0.623,0.195-0.941,0.09-1.393,0.279
	c-1.933,0.803-3.529,2.282-3.066,5.853c0,1.394,0,2.787,0,4.18c0,0.372,0,0.743,0,1.115c0,0.65,0,1.301,0,1.951
	c0,1.021,0,2.044,0,3.065c0.175,0.848-0.356,2.401,0.279,2.788c0.05,1.159,0.415,2.374,0.836,2.786
	c0.055,0.056,1.555,0.812,1.672,0.837c5.825,1.25,10.518-9.067,17.559-7.805c0.936,0.167,1.961,0.834,2.787,1.673
	c0.44,0.675,0.997,1.232,1.673,1.672c0.252,0.492,0.623,0.863,1.113,1.115c1.172,1.336,2.166,2.851,2.511,5.017
	c0,0.65,0,1.301,0,1.951c0,0.278,0,0.557,0,0.835c-0.095,0-0.187,0-0.281,0c0.135,0.878-0.396,1.09-0.557,1.673
	c-0.124,0.249-0.244,0.498-0.557,0.558c-0.491,0.252-0.863,0.624-1.116,1.115c-0.41,0.769-0.978,0.933-1.671,1.394
	c-0.667,0.441-1.648,1.557-2.508,2.229c-0.245,0.191-0.619,0.076-0.838,0.279c-0.368,0.342-0.741,0.887-1.393,1.393
	c-0.216,0.169-0.592,0.097-0.837,0.278c-0.143,0.108-0.144,0.456-0.278,0.559c-0.345,0.262-0.823,0.328-1.114,0.557
	c-0.682,0.534-1.246,1.397-1.952,1.951c-0.244,0.191-0.619,0.076-0.836,0.278c-0.122,0.114-0.153,0.462-0.278,0.559
	c-0.251,0.19-0.617,0.074-0.836,0.278c-0.121,0.112-0.154,0.463-0.279,0.557c-0.215,0.162-0.596,0.1-0.836,0.279
	c-0.139,0.104-0.146,0.461-0.278,0.558c-0.212,0.154-0.6,0.102-0.836,0.278c-0.338,0.254-0.854,0.77-1.673,1.115
	c-0.936,0.395-2.024,0.718-3.623,0.836c-1.115,0-2.23,0-3.345,0c-9.611-0.887-15.329-5.668-20.903-10.591
	c-0.252-0.492-0.623-0.863-1.115-1.115c-0.44-0.675-0.998-1.232-1.673-1.672c-0.533-0.769-1.183-1.418-1.951-1.951
	c-0.093,0-0.186,0-0.278,0c-0.346-0.583-0.811-1.048-1.394-1.395c-0.439-0.674-0.997-1.231-1.672-1.672
	c-0.251-0.49-0.623-0.862-1.114-1.114c-0.093,0-0.187,0-0.279,0c-0.252-0.491-0.624-0.863-1.115-1.115
	c-0.439-0.675-0.997-1.232-1.672-1.672c-0.346-0.583-0.81-1.048-1.393-1.394c-0.569-0.082-0.546-0.754-1.115-0.836
	c-0.066-0.397-0.459-0.47-0.557-0.837c-0.408-1.449-1.294-2.422-1.115-4.459c0-0.093,0-0.186,0-0.279
	c-0.007-2.05,0.709-3.378,1.115-5.016c0.457,0.045,0.457-1.718,0-1.672c-0.522-2.079-2.449-2.754-1.951-5.853
	c0.271-0.007,0.217-0.341,0.279-0.557c0.491-0.252,0.863-0.623,1.115-1.115c0.491-0.251,0.863-0.624,1.115-1.115
	c1.45-2.375,9.165-3.344,8.64-6.968c-0.204-1.409-1.526-2.162-3.902-1.951c-0.929,0-1.858,0-2.787,0c-1.672,0-3.344,0-5.017,0
	c-2.06-0.264-3.132-1.513-3.623-3.345c-0.024-0.441,0.133-1.063-0.279-1.115c0.066-2.868,1.42-3.359,3.623-5.017
	c6.897-5.191,15.78-12.25,22.298-16.723c0.137-0.095,0.338,0.002,0.278-0.279c0.324,0.045,0.496-0.062,0.558-0.279
	c2.901-1.465,5.989-2.744,9.476-3.623c0.396,0.024,0.789,0.046,0.836-0.278c0.093,0,0.186,0,0.279,0
	c0.405-0.152,1.44,0.326,1.393-0.279c4.185-0.368,8.155-0.949,12.264-1.393c0.464,0,0.929,0,1.393,0
	C63.529,4.326,64.565,4.804,64.518,4.2z M89.881,4.2C81.069,4.865,72.783,6.055,64.24,6.987c-0.465,0-0.93,0-1.394,0
	c-0.405,0.153-1.44-0.326-1.394,0.279c-5.9,0.725-12.843,1.256-17.559,2.787c-1.592,0.517-3.538,1.508-4.738,2.23
	c-1.911,1.15-3.534,2.599-5.295,3.902c-1.062,0.785-2.533,1.608-3.345,2.229c-1.108,0.847-2.112,1.792-3.065,2.508
	c-0.947,0.711-1.759,1.379-2.509,1.951c-0.243,0.186-0.567,0.091-0.836,0.279c-0.232,0.162-0.323,0.662-0.558,0.836
	c-0.245,0.182-0.619,0.112-0.836,0.279c-0.453,0.347-0.813,0.883-1.115,1.115c-0.235,0.181-0.582,0.09-0.836,0.279
	c-0.839,0.623-1.571,1.524-2.508,2.229c-1.798,1.354-4.854,2.739-4.738,4.459c0.081,1.21,0.723,1.913,2.508,1.951
	c0.836,0,1.672,0,2.508,0c1.487,0,2.973,0,4.46,0c0.65,0,1.3,0,1.951,0c0.937-0.008,1.475,0.383,1.951,0.836
	c0.251,0.491,0.623,0.863,1.114,1.114c0.453,0.477,0.844,1.015,0.836,1.951c0,0.65,0,1.3,0,1.951
	c-0.805,4.583-6.001,4.774-8.918,7.247c-0.981,0.419-2.726,1.537-1.951,2.787c0.016,0.17,0.042,0.33,0.279,0.279
	c0.729,1.221,1.623,2.279,1.672,4.18c0,0.372,0,0.743,0,1.115c0.106,2.056-1.111,2.791-1.115,4.738
	c-0.459,0.038-0.459,1.913,0,1.951c0.148,1.431,0.97,2.189,1.672,3.065c0.346,0.583,0.81,1.048,1.393,1.394
	c0.346,0.583,0.811,1.048,1.394,1.394c0.093,0,0.185,0,0.278,0c0.252,0.491,0.624,0.863,1.115,1.114
	c0.346,0.583,0.81,1.048,1.393,1.395c0.346,0.583,0.811,1.048,1.394,1.394c0.093,0,0.186,0,0.278,0
	c0.346,0.583,0.811,1.048,1.394,1.394c0.532,0.768,1.183,1.418,1.95,1.951c0.44,0.675,0.998,1.232,1.673,1.672
	c0.093,0,0.186,0,0.278,0c0.252,0.491,0.623,0.862,1.115,1.115c5.226,4.437,10.351,8.973,18.952,10.033
	c0.571,0.462,3.052,0.462,3.624,0c2.01-0.239,2.886-0.801,4.18-1.673c1.101-0.741,2.174-1.55,3.066-2.229
	c0.135-0.102,0.135-0.449,0.279-0.557c0.243-0.184,0.619-0.111,0.836-0.279c0.654-0.507,1.039-1.063,1.393-1.394
	c0.218-0.201,0.592-0.087,0.836-0.278c0.668-0.523,1.283-1.151,1.951-1.672c2.243-1.749,4.285-3.444,6.411-5.018
	c0-0.093,0-0.186,0-0.278c0.705-0.225,0.711-1.147,1.113-1.672c-0.16-0.49,0.339-1.638-0.278-1.673
	c-0.299-1.094-0.918-1.868-1.393-2.787c-0.305-0.718-0.705-1.339-1.395-1.672c-0.344-0.584-0.811-1.048-1.392-1.395
	c-0.786-0.237-1.145-0.899-2.23-0.835c0.198-0.453-1.315-0.453-1.115,0c-5.206,1.482-6.874,6.504-12.542,7.524
	c-1.115,0-2.23,0-3.345,0c-1.145-0.063-1.825-0.59-2.508-1.115c-0.251-0.491-0.624-0.863-1.115-1.114
	c-0.286-0.643-0.959-0.898-0.836-1.951c-0.172-0.756,0.354-2.212-0.278-2.509c0-0.464,0-0.929,0-1.394c0-0.557,0-1.114,0-1.672
	c0-1.021,0-2.044,0-3.065c0-3.066,0-6.132,0-9.197c0.08-1.5,0.508-2.651,1.394-3.345c0.491-0.252,0.863-0.624,1.114-1.115
	c0.944-1.004,2.283-1.302,3.624-1.672c2.314-0.638,4.5-1.257,6.968-1.393c0.372,0,0.743,0,1.115,0c1.022,0,2.044,0,3.065,0
	c0.465,0,0.93,0,1.394,0c1.879-0.021,3.061,0.656,4.737,0.836c2.657,0.782,4.542,2.333,7.246,3.065
	c0.049,0.325,0.441,0.303,0.838,0.279c0.371,0,0.743,0,1.114,0c0.404-0.153,1.44,0.325,1.394-0.279
	c4.847-1.099,4.176-7.716,7.247-10.591c0.49-0.251,0.863-0.623,1.113-1.114c0.063-0.217,0.234-0.324,0.56-0.279
	c0.823-0.756,1.869-1.29,2.228-2.508c0.715-1.144,1.593-2.124,1.951-3.624c0.978-1.624,1.747-3.456,2.787-5.017
	c0.19-0.647,0.928-0.746,1.115-1.393c0.156-0.402,0.436-0.68,0.836-0.836c0.953-0.719,1.789-1.555,2.508-2.508
	c1.511-1.278,2.905-2.671,4.182-4.181c0.082-0.568,0.755-0.547,0.837-1.115c0.247-0.589,0.848-0.824,0.836-1.672
	c0.412-0.052,0.256-0.674,0.278-1.115c0-0.093,0-0.186,0-0.278c0.455,0.125,0.455-1.52,0-1.394c-0.438-0.025-0.219-0.71-0.836-0.557
	c0.125-0.456-1.519-0.456-1.394,0c-1.05-0.214-1.333,0.34-2.23,0.278c-1.021,0-2.043,0-3.064,0c-3.645-1-4.845-4.446-9.198-4.737
	C91.986,3.74,90.005,3.74,89.881,4.2z"/>
<path fill-rule="evenodd" clip-rule="evenodd" fill="#323232" d="M89.603,1.413c0.3-0.461,2.486-0.461,2.786,0
	C91.459,1.413,90.53,1.413,89.603,1.413z"/>
<path fill-rule="evenodd" clip-rule="evenodd" fill="#323232" d="M106.324,5.872c0.038-0.458,1.914-0.458,1.952,0
	C107.625,5.872,106.976,5.872,106.324,5.872z"/>
<path fill-rule="evenodd" clip-rule="evenodd" fill="#323232" d="M14.629,36.809c1.672,0,3.344,0,5.017,0c0,0.093,0,0.186,0,0.279
	C18.063,36.906,15.749,37.454,14.629,36.809z"/>
<path fill-rule="evenodd" clip-rule="evenodd" fill="#323232" d="M79.291,71.648c0.458,0.038,0.458,1.913,0,1.951
	C79.291,72.949,79.291,72.298,79.291,71.648z"/>
<path fill-rule="evenodd" clip-rule="evenodd" fill="#323232" d="M53.369,91.158c1.115,0,2.23,0,3.345,0
	C56.233,91.62,53.851,91.62,53.369,91.158z"/>
<path fill-rule="evenodd" clip-rule="evenodd" fill="#BEBEBE" d="M62.567,42.662c1.022,0,2.044,0,3.065,0c0,0.093,0,0.186,0,0.279
	c-1.021,0-2.043,0-3.065,0C62.567,42.848,62.567,42.755,62.567,42.662z"/>
<path fill-rule="evenodd" clip-rule="evenodd" fill="#777777" d="M48.353,50.466c0,3.065,0,6.131,0,9.197c-0.093,0-0.185,0-0.278,0
	C48.258,56.689,47.704,52.976,48.353,50.466z"/>
<path fill-rule="evenodd" clip-rule="evenodd" fill="#323232" d="M17.137,54.368c0.457-0.046,0.457,1.718,0,1.672
	C17.137,55.482,17.137,54.925,17.137,54.368z"/>
<path fill-rule="evenodd" clip-rule="evenodd" fill="#323232" d="M53.091,88.371c1.208,0,2.416,0,3.624,0
	C56.143,88.833,53.662,88.833,53.091,88.371z"/>
</svg>
