<?xml version="1.0" encoding="utf-8"?>
<!-- Generator: Adobe Illustrator 15.0.0, SVG Export Plug-In  -->
<!DOCTYPE svg PUBLIC "-//W3C//DTD SVG 1.1//EN" "http://www.w3.org/Graphics/SVG/1.1/DTD/svg11.dtd" [
	<!ENTITY ns_flows "http://ns.adobe.com/Flows/1.0/">
]>
<svg version="1.1"
	 xmlns="http://www.w3.org/2000/svg" xmlns:xlink="http://www.w3.org/1999/xlink" xmlns:a="http://ns.adobe.com/AdobeSVGViewerExtensions/3.0/"
	 x="0px" y="0px" width="142px" height="142px" viewBox="-4.135 -16.778 142 142" enable-background="new -4.135 -16.778 142 142"
	 xml:space="preserve">
<defs>
</defs>
<path fill-rule="evenodd" clip-rule="evenodd" fill="#1A1A1A" d="M89.513,0.346c0.3-0.461,2.486-0.461,2.786,0
	c-0.278,0-0.557,0-0.835,0c-0.095,0-0.187,0-0.278,0C90.626,0.346,90.069,0.346,89.513,0.346z"/>
<path fill-rule="evenodd" clip-rule="evenodd" fill="#1A1A1A" d="M87.004,0.625c-0.048-0.604,0.988-0.126,1.393-0.279
	c0,0.093,0,0.186,0,0.279c-0.185,0-0.371,0-0.557,0C87.562,0.625,87.282,0.625,87.004,0.625z"/>
<path fill-rule="evenodd" clip-rule="evenodd" fill="#1A1A1A" d="M84.496,0.903c-0.048-0.604,0.987-0.126,1.393-0.279
	C85.937,1.229,84.9,0.75,84.496,0.903z"/>
<path fill-rule="evenodd" clip-rule="evenodd" fill="#1A1A1A" d="M81.987,1.182c-0.048-0.604,0.988-0.126,1.393-0.278
	C83.428,1.507,82.393,1.029,81.987,1.182z"/>
<path fill-rule="evenodd" clip-rule="evenodd" fill="#1A1A1A" d="M79.479,1.461c-0.048-0.604,0.987-0.126,1.393-0.279
	C80.92,1.786,79.884,1.309,79.479,1.461z"/>
<path fill-rule="evenodd" clip-rule="evenodd" fill="#1A1A1A" d="M76.971,1.739c-0.048-0.604,0.988-0.126,1.393-0.278
	C78.411,2.065,77.376,1.587,76.971,1.739z"/>
<path fill-rule="evenodd" clip-rule="evenodd" fill="#1A1A1A" d="M74.741,2.018c0.05-0.413,0.673-0.255,1.114-0.279
	C75.803,2.152,75.182,1.995,74.741,2.018z"/>
<path fill-rule="evenodd" clip-rule="evenodd" fill="#1A1A1A" d="M72.233,2.297c-0.049-0.604,0.987-0.126,1.392-0.279
	c-0.016,0.17-0.042,0.33-0.278,0.279c-0.092,0-0.187,0-0.278,0C72.79,2.297,72.512,2.297,72.233,2.297z"/>
<path fill-rule="evenodd" clip-rule="evenodd" fill="#1A1A1A" d="M69.723,2.576c-0.047-0.604,0.99-0.126,1.395-0.279
	C71.165,2.901,70.13,2.423,69.723,2.576z"/>
<path fill-rule="evenodd" clip-rule="evenodd" fill="#1A1A1A" d="M67.215,2.854c-0.046-0.604,0.989-0.126,1.394-0.278
	C68.656,3.18,67.621,2.702,67.215,2.854z"/>
<path fill-rule="evenodd" clip-rule="evenodd" fill="#1A1A1A" d="M64.707,3.133C64.66,2.528,65.695,3.006,66.1,2.854
	C66.147,3.458,65.112,2.98,64.707,3.133z"/>
<path fill-rule="evenodd" clip-rule="evenodd" fill="#1A1A1A" d="M89.234,3.133c0.391-0.462,2.674-0.462,3.064,0
	C91.277,3.133,90.256,3.133,89.234,3.133z"/>
<path fill-rule="evenodd" clip-rule="evenodd" fill="#1A1A1A" d="M62.198,3.412c-0.047-0.604,0.989-0.126,1.394-0.278
	C63.639,3.737,62.604,3.259,62.198,3.412z"/>
<path fill-rule="evenodd" clip-rule="evenodd" fill="#1A1A1A" d="M86.726,3.412c0.086-0.378,0.697-0.231,1.114-0.278
	C87.787,3.546,87.166,3.389,86.726,3.412z"/>
<path fill-rule="evenodd" clip-rule="evenodd" fill="#1A1A1A" d="M59.969,3.69c-0.047-0.604,0.989-0.126,1.394-0.279
	C61.409,4.016,60.374,3.538,59.969,3.69z"/>
<path fill-rule="evenodd" clip-rule="evenodd" fill="#1A1A1A" d="M84.218,3.69c0.086-0.378,0.697-0.231,1.113-0.279
	C85.279,3.824,84.658,3.667,84.218,3.69z"/>
<path fill-rule="evenodd" clip-rule="evenodd" fill="#1A1A1A" d="M57.46,3.969c-0.047-0.605,0.989-0.126,1.394-0.279
	C58.901,4.294,57.866,3.817,57.46,3.969z"/>
<path fill-rule="evenodd" clip-rule="evenodd" fill="#1A1A1A" d="M81.709,3.969c-0.048-0.605,0.988-0.126,1.393-0.279
	C83.149,4.294,82.114,3.817,81.709,3.969z"/>
<path fill-rule="evenodd" clip-rule="evenodd" fill="#1A1A1A" d="M54.952,4.248c-0.047-0.604,0.989-0.127,1.394-0.279
	C56.392,4.574,55.357,4.095,54.952,4.248z"/>
<path fill-rule="evenodd" clip-rule="evenodd" fill="#1A1A1A" d="M79.201,4.248c-0.049-0.604,0.987-0.127,1.392-0.279
	C80.64,4.574,79.605,4.095,79.201,4.248z"/>
<path fill-rule="evenodd" clip-rule="evenodd" fill="#1A1A1A" d="M52.722,4.526c0.052-0.413,0.673-0.255,1.115-0.278
	C53.786,4.661,53.164,4.503,52.722,4.526z"/>
<path fill-rule="evenodd" clip-rule="evenodd" fill="#1A1A1A" d="M76.69,4.526c0.046-0.327,0.509-0.235,0.838-0.278
	c0.186,0,0.37,0,0.557,0C78.131,4.852,77.098,4.374,76.69,4.526z"/>
<path fill-rule="evenodd" clip-rule="evenodd" fill="#1A1A1A" d="M50.213,4.805c-0.046-0.604,0.989-0.126,1.394-0.278
	C51.655,5.131,50.619,4.653,50.213,4.805z"/>
<path fill-rule="evenodd" clip-rule="evenodd" fill="#1A1A1A" d="M74.461,4.805c0.088-0.378,0.699-0.23,1.116-0.278
	C75.524,4.939,74.903,4.782,74.461,4.805z"/>
<path fill-rule="evenodd" clip-rule="evenodd" fill="#1A1A1A" d="M106.234,4.805c0.038-0.458,1.914-0.458,1.952,0
	C107.535,4.805,106.886,4.805,106.234,4.805z"/>
<path fill-rule="evenodd" clip-rule="evenodd" fill="#1A1A1A" d="M47.984,5.084c0.052-0.413,0.673-0.255,1.115-0.279
	C49.048,5.218,48.426,5.061,47.984,5.084z"/>
<path fill-rule="evenodd" clip-rule="evenodd" fill="#1A1A1A" d="M71.952,5.084c0.087-0.378,0.699-0.231,1.116-0.279
	C73.017,5.218,72.396,5.061,71.952,5.084z"/>
<path fill-rule="evenodd" clip-rule="evenodd" fill="#1A1A1A" d="M45.476,5.362c-0.047-0.604,0.989-0.126,1.394-0.278
	C46.917,5.688,45.881,5.21,45.476,5.362z"/>
<path fill-rule="evenodd" clip-rule="evenodd" fill="#1A1A1A" d="M69.444,5.362c0.087-0.378,0.699-0.231,1.116-0.278
	C70.508,5.497,69.887,5.339,69.444,5.362z"/>
<path fill-rule="evenodd" clip-rule="evenodd" fill="#1A1A1A" d="M43.246,5.641c0.052-0.413,0.674-0.255,1.116-0.279
	C44.309,5.775,43.687,5.618,43.246,5.641z"/>
<path fill-rule="evenodd" clip-rule="evenodd" fill="#1A1A1A" d="M66.937,5.641c0.086-0.378,0.698-0.231,1.115-0.279
	C67.999,5.775,67.378,5.618,66.937,5.641z"/>
<path fill-rule="evenodd" clip-rule="evenodd" fill="#1A1A1A" d="M40.737,5.92c-0.047-0.604,0.989-0.126,1.394-0.279
	C42.178,6.246,41.143,5.768,40.737,5.92z"/>
<path fill-rule="evenodd" clip-rule="evenodd" fill="#1A1A1A" d="M64.428,5.92c-0.047-0.604,0.988-0.126,1.394-0.279
	C65.869,6.246,64.833,5.768,64.428,5.92z"/>
<path fill-rule="evenodd" clip-rule="evenodd" fill="#1A1A1A" d="M38.508,6.199c0.052-0.413,0.673-0.256,1.115-0.279
	C39.571,6.333,38.949,6.176,38.508,6.199z"/>
<path fill-rule="evenodd" clip-rule="evenodd" fill="#1A1A1A" d="M62.198,6.199c0.086-0.378,0.698-0.231,1.115-0.279
	C63.261,6.333,62.64,6.176,62.198,6.199z"/>
<path fill-rule="evenodd" clip-rule="evenodd" fill="#1A1A1A" d="M36,6.477c-0.047-0.604,0.989-0.126,1.394-0.278
	C37.44,6.803,36.405,6.325,36,6.477z"/>
<path fill-rule="evenodd" clip-rule="evenodd" fill="#1A1A1A" d="M59.69,6.477c0.086-0.378,0.697-0.23,1.114-0.278
	C60.753,6.611,60.131,6.454,59.69,6.477z"/>
<path fill-rule="evenodd" clip-rule="evenodd" fill="#1A1A1A" d="M33.77,6.756c0.051-0.413,0.673-0.255,1.115-0.279
	C34.833,6.89,34.211,6.733,33.77,6.756z"/>
<path fill-rule="evenodd" clip-rule="evenodd" fill="#1A1A1A" d="M57.182,6.756c-0.047-0.604,0.989-0.126,1.393-0.279
	C58.622,7.082,57.586,6.604,57.182,6.756z"/>
<path fill-rule="evenodd" clip-rule="evenodd" fill="#1A1A1A" d="M31.262,7.035c-0.047-0.604,0.988-0.126,1.394-0.278
	C32.702,7.361,31.666,6.882,31.262,7.035z"/>
<path fill-rule="evenodd" clip-rule="evenodd" fill="#1A1A1A" d="M54.673,7.035c0.045-0.327,0.508-0.235,0.836-0.278
	c0.093,0,0.186,0,0.279,0c0.093,0,0.186,0,0.278,0C56.114,7.361,55.078,6.882,54.673,7.035z"/>
<path fill-rule="evenodd" clip-rule="evenodd" fill="#1A1A1A" d="M29.032,7.313c0.051-0.413,0.673-0.256,1.114-0.279
	C30.095,7.448,29.473,7.291,29.032,7.313z"/>
<path fill-rule="evenodd" clip-rule="evenodd" fill="#1A1A1A" d="M52.443,7.313c0.087-0.378,0.698-0.231,1.115-0.279
	C53.507,7.448,52.885,7.291,52.443,7.313z"/>
<path fill-rule="evenodd" clip-rule="evenodd" fill="#1A1A1A" d="M26.802,7.592c0.052-0.413,0.673-0.255,1.114-0.279
	c-0.061,0.217-0.233,0.324-0.557,0.279c-0.093,0-0.187,0-0.279,0S26.895,7.592,26.802,7.592z"/>
<path fill-rule="evenodd" clip-rule="evenodd" fill="#1A1A1A" d="M49.935,7.592c-0.047-0.604,0.989-0.126,1.394-0.279
	C51.375,7.917,50.34,7.44,49.935,7.592z"/>
<path fill-rule="evenodd" clip-rule="evenodd" fill="#1A1A1A" d="M24.293,7.871c-0.046-0.604,0.989-0.125,1.394-0.278
	C25.734,8.197,24.699,7.718,24.293,7.871z"/>
<path fill-rule="evenodd" clip-rule="evenodd" fill="#1A1A1A" d="M47.706,7.871c0.086-0.378,0.698-0.231,1.115-0.278
	C48.769,8.005,48.146,7.848,47.706,7.871z"/>
<path fill-rule="evenodd" clip-rule="evenodd" fill="#1A1A1A" d="M22.064,8.149c-0.047-0.604,0.988-0.126,1.393-0.279
	C23.504,8.476,22.469,7.998,22.064,8.149z"/>
<path fill-rule="evenodd" clip-rule="evenodd" fill="#1A1A1A" d="M45.197,8.149c-0.047-0.604,0.988-0.126,1.394-0.279
	C46.638,8.476,45.602,7.998,45.197,8.149z"/>
<path fill-rule="evenodd" clip-rule="evenodd" fill="#1A1A1A" d="M101.219,7.871c0.44,0.023,1.063-0.134,1.113,0.279
	C101.915,8.102,101.305,8.25,101.219,7.871z"/>
<path fill-rule="evenodd" clip-rule="evenodd" fill="#1A1A1A" d="M102.892,8.149c-0.049-0.604,0.987-0.126,1.392-0.279
	C104.332,8.476,103.296,7.998,102.892,8.149z"/>
<path fill-rule="evenodd" clip-rule="evenodd" fill="#1A1A1A" d="M42.967,8.429c0.086-0.379,0.698-0.231,1.115-0.279
	C44.031,8.563,43.409,8.406,42.967,8.429z"/>
<path fill-rule="evenodd" clip-rule="evenodd" fill="#1A1A1A" d="M40.459,8.707c-0.047-0.604,0.989-0.126,1.394-0.278
	C41.899,9.033,40.864,8.555,40.459,8.707z"/>
<path fill-rule="evenodd" clip-rule="evenodd" fill="#1A1A1A" d="M38.229,8.985c0.086-0.378,0.698-0.231,1.115-0.278
	C39.292,9.12,38.67,8.962,38.229,8.985z"/>
<path fill-rule="evenodd" clip-rule="evenodd" fill="#1A1A1A" d="M35.721,9.265c-0.047-0.604,0.988-0.126,1.393-0.279
	C37.162,9.59,36.125,9.112,35.721,9.265z"/>
<path fill-rule="evenodd" clip-rule="evenodd" fill="#1A1A1A" d="M33.491,9.543c0.086-0.378,0.698-0.231,1.115-0.279
	C34.555,9.677,33.933,9.521,33.491,9.543z"/>
<path fill-rule="evenodd" clip-rule="evenodd" fill="#1A1A1A" d="M31.262,9.822c0.045-0.326,0.508-0.235,0.836-0.278
	c0.093,0,0.186,0,0.279,0C32.325,9.956,31.703,9.799,31.262,9.822z"/>
<path fill-rule="evenodd" clip-rule="evenodd" fill="#1A1A1A" d="M111.251,9.543c0.095,0,0.187,0,0.279,0
	c-0.161,0.49,0.336,1.637-0.279,1.672c0-0.278,0-0.557,0-0.836S111.251,9.822,111.251,9.543z"/>
<path fill-rule="evenodd" clip-rule="evenodd" fill="#1A1A1A" d="M28.753,10.101c-0.051-0.237,0.109-0.263,0.279-0.279
	c0.093,0,0.185,0,0.278,0c0.186,0,0.372,0,0.558,0C29.816,10.235,29.194,10.077,28.753,10.101z"/>
<path fill-rule="evenodd" clip-rule="evenodd" fill="#1A1A1A" d="M26.523,10.379c0.086-0.378,0.698-0.231,1.115-0.279
	C27.586,10.514,26.965,10.356,26.523,10.379z"/>
<path fill-rule="evenodd" clip-rule="evenodd" fill="#1A1A1A" d="M24.015,10.658c-0.047-0.604,0.989-0.126,1.393-0.279
	C25.456,10.984,24.42,10.505,24.015,10.658z"/>
<path fill-rule="evenodd" clip-rule="evenodd" fill="#1A1A1A" d="M21.785,10.937c-0.051-0.237,0.109-0.263,0.279-0.279
	c0.092,0,0.185,0,0.278,0c0.186,0,0.372,0,0.558,0C22.849,11.071,22.227,10.914,21.785,10.937z"/>
<path fill-rule="evenodd" clip-rule="evenodd" fill="#1A1A1A" d="M120.728,11.215c0.008-0.271,0.341-0.216,0.559-0.278
	c0.185,0,0.371,0,0.558,0c0,0.093,0,0.186,0,0.278C121.471,11.215,121.1,11.215,120.728,11.215z"/>
<path fill-rule="evenodd" clip-rule="evenodd" fill="#1A1A1A" d="M127.139,18.741c0.178-1.214-0.365-3.151,0.278-3.902
	C127.236,16.053,127.781,17.989,127.139,18.741z"/>
<path fill-rule="evenodd" clip-rule="evenodd" fill="#1A1A1A" d="M124.63,16.232c0,0.743,0,1.486,0,2.229c0,0.187,0,0.373,0,0.558
	c0.05,0.237-0.108,0.263-0.278,0.278C124.528,18.36,123.993,16.709,124.63,16.232z"/>
<path fill-rule="evenodd" clip-rule="evenodd" fill="#1A1A1A" d="M90.069,25.708c0.052-0.413,0.673-0.255,1.116-0.279
	C91.099,25.808,90.486,25.661,90.069,25.708z"/>
<path fill-rule="evenodd" clip-rule="evenodd" fill="#1A1A1A" d="M67.215,26.545c-0.125-0.456,1.52-0.456,1.394,0
	C68.144,26.545,67.68,26.545,67.215,26.545z"/>
<path fill-rule="evenodd" clip-rule="evenodd" fill="#1A1A1A" d="M65.264,26.823c0.052-0.413,0.673-0.256,1.115-0.278
	c-0.007,0.271-0.341,0.216-0.557,0.278c-0.093,0-0.186,0-0.279,0C65.45,26.823,65.357,26.823,65.264,26.823z"/>
<path fill-rule="evenodd" clip-rule="evenodd" fill="#1A1A1A" d="M83.102,26.823c0.052-0.413,0.673-0.256,1.116-0.278
	C84.131,26.923,83.519,26.776,83.102,26.823z"/>
<path fill-rule="evenodd" clip-rule="evenodd" fill="#1A1A1A" d="M81.431,27.103c0.05-0.414,0.673-0.256,1.114-0.279
	C82.458,27.202,81.848,27.055,81.431,27.103z"/>
<path fill-rule="evenodd" clip-rule="evenodd" fill="#1A1A1A" d="M59.69,27.659c0.051-0.413,0.673-0.255,1.114-0.278
	C60.718,27.759,60.107,27.612,59.69,27.659z"/>
<path fill-rule="evenodd" clip-rule="evenodd" fill="#1A1A1A" d="M76.134,27.938c0.052-0.414,0.673-0.256,1.116-0.279
	C77.163,28.038,76.551,27.891,76.134,27.938z"/>
<path fill-rule="evenodd" clip-rule="evenodd" fill="#1A1A1A" d="M56.066,28.217c0.052-0.412,0.674-0.255,1.115-0.278
	c0.051,0.237-0.109,0.263-0.279,0.278c-0.093,0-0.186,0-0.278,0C56.438,28.217,56.252,28.217,56.066,28.217z"/>
<path fill-rule="evenodd" clip-rule="evenodd" fill="#1A1A1A" d="M74.461,28.217c0.052-0.412,0.675-0.255,1.116-0.278
	C75.49,28.316,74.878,28.169,74.461,28.217z"/>
<path fill-rule="evenodd" clip-rule="evenodd" fill="#1A1A1A" d="M71.952,28.496c0-0.093,0-0.186,0-0.279c0.56,0,1.116,0,1.673,0
	c0.053,0.237-0.107,0.263-0.278,0.279c-0.092,0-0.187,0-0.278,0c-0.278,0-0.557,0-0.835,0
	C72.139,28.496,72.047,28.496,71.952,28.496z"/>
<path fill-rule="evenodd" clip-rule="evenodd" fill="#1A1A1A" d="M52.443,28.774c0.052-0.413,0.674-0.256,1.115-0.279
	C53.472,28.875,52.861,28.727,52.443,28.774z"/>
<path fill-rule="evenodd" clip-rule="evenodd" fill="#1A1A1A" d="M86.447,29.053c0.05-0.413,0.673-0.256,1.114-0.279
	C87.509,29.187,86.888,29.03,86.447,29.053z"/>
<path fill-rule="evenodd" clip-rule="evenodd" fill="#1A1A1A" d="M66.937,29.332c-0.125-0.455,1.519-0.455,1.394,0
	C67.865,29.332,67.401,29.332,66.937,29.332z"/>
<path fill-rule="evenodd" clip-rule="evenodd" fill="#1A1A1A" d="M84.774,29.332c0.052-0.413,0.673-0.255,1.114-0.278
	C85.838,29.466,85.215,29.309,84.774,29.332z"/>
<path fill-rule="evenodd" clip-rule="evenodd" fill="#1A1A1A" d="M3.391,29.332c-0.048,0.417,0.099,1.029-0.279,1.115
	c0-0.092,0-0.185,0-0.278s0-0.186,0-0.279C3.066,29.565,3.173,29.393,3.391,29.332z"/>
<path fill-rule="evenodd" clip-rule="evenodd" fill="#1A1A1A" d="M0.604,29.61c0,0.186,0,0.372,0,0.558
	c-0.063,0.216-0.008,0.55-0.279,0.557C0.372,30.308,0.225,29.697,0.604,29.61z"/>
<path fill-rule="evenodd" clip-rule="evenodd" fill="#1A1A1A" d="M77.807,30.446c0.052-0.413,0.673-0.255,1.113-0.278
	C78.87,30.581,78.247,30.423,77.807,30.446z"/>
<path fill-rule="evenodd" clip-rule="evenodd" fill="#1A1A1A" d="M57.739,30.725c0.052-0.412,0.674-0.255,1.116-0.279
	C58.802,30.859,58.18,30.702,57.739,30.725z"/>
<path fill-rule="evenodd" clip-rule="evenodd" fill="#1A1A1A" d="M54.116,31.283c0-0.093,0-0.186,0-0.278c0.186,0,0.372,0,0.558,0
	c0.186,0,0.372,0,0.557,0C55.179,31.417,54.558,31.259,54.116,31.283z"/>
<path fill-rule="evenodd" clip-rule="evenodd" fill="#1A1A1A" d="M71.952,31.004c0.465,0,0.93,0,1.395,0c0.093,0,0.187,0,0.278,0
	C73.672,31.461,71.908,31.461,71.952,31.004z"/>
<path fill-rule="evenodd" clip-rule="evenodd" fill="#1A1A1A" d="M3.111,32.119c-0.181,1.398,0.365,3.524-0.278,4.46
	c0-0.186,0-0.373,0-0.558c0-0.186,0-0.372,0-0.558C3.011,34.434,2.472,32.687,3.111,32.119z"/>
<path fill-rule="evenodd" clip-rule="evenodd" fill="#1A1A1A" d="M0.324,32.955c0,0.744,0,1.487,0,2.23c0,0.093,0,0.186,0,0.278
	c0,0.279,0,0.558,0,0.836c0,0.186,0,0.372,0,0.558c-0.165,0.578,0.345,1.831-0.278,1.951C0.229,36.947-0.322,34.353,0.324,32.955z"
	/>
<path fill-rule="evenodd" clip-rule="evenodd" fill="#1A1A1A" d="M16.49,33.234c0.296-0.633,1.752-0.106,2.508-0.279
	c0,0.093,0,0.186,0,0.279C18.162,33.234,17.326,33.234,16.49,33.234z"/>
<path fill-rule="evenodd" clip-rule="evenodd" fill="#323232" d="M18.998,33.234c0-0.093,0-0.186,0-0.279c0.372,0,0.743,0,1.115,0
	c0,0.093,0,0.186,0,0.279C19.741,33.234,19.37,33.234,18.998,33.234z"/>
<path fill-rule="evenodd" clip-rule="evenodd" fill="#1A1A1A" d="M18.998,36.021c0-0.093,0-0.186,0-0.279c0.929,0,1.858,0,2.787,0
	C21.399,36.377,19.846,35.846,18.998,36.021z"/>
<path fill-rule="evenodd" clip-rule="evenodd" fill="#1A1A1A" d="M2.554,44.661c0.17-0.666-0.35-2.022,0.279-2.229
	c0,0.836,0,1.672,0,2.508c-0.093,0-0.186,0-0.279,0C2.554,44.847,2.554,44.754,2.554,44.661z"/>
<path fill-rule="evenodd" clip-rule="evenodd" fill="#1A1A1A" d="M78.92,46.055c0-0.093,0-0.186,0-0.279
	c0.417,0.048,1.03-0.1,1.116,0.279c-0.278,0-0.557,0-0.835,0C79.106,46.055,79.015,46.055,78.92,46.055z"/>
<path fill-rule="evenodd" clip-rule="evenodd" fill="#1A1A1A" d="M78.92,48.563c1.116,0,2.23,0,3.346,0
	C81.785,49.025,79.401,49.025,78.92,48.563z"/>
<path fill-rule="evenodd" clip-rule="evenodd" fill="#1A1A1A" d="M54.673,49.956c0.038-0.458,1.913-0.458,1.951,0
	C55.974,49.956,55.324,49.956,54.673,49.956z"/>
<path fill-rule="evenodd" clip-rule="evenodd" fill="#1A1A1A" d="M58.575,50.235c-0.441-0.024-1.063,0.134-1.114-0.279
	C57.877,50.004,58.489,49.856,58.575,50.235z"/>
<path fill-rule="evenodd" clip-rule="evenodd" fill="#1A1A1A" d="M66.379,51.35c0.417,0.047,1.028-0.1,1.115,0.278
	C67.053,51.605,66.431,51.763,66.379,51.35z"/>
<path fill-rule="evenodd" clip-rule="evenodd" fill="#1A1A1A" d="M54.952,52.743c-0.047-0.604,0.989-0.126,1.394-0.278
	c0.093,0,0.186,0,0.279,0c0,0.093,0,0.186,0,0.278C56.066,52.743,55.509,52.743,54.952,52.743z"/>
<path fill-rule="evenodd" clip-rule="evenodd" fill="#1A1A1A" d="M71.952,54.973c0.417,0.048,1.03-0.1,1.116,0.279
	C72.651,55.205,72.039,55.352,71.952,54.973z"/>
<path fill-rule="evenodd" clip-rule="evenodd" fill="#1A1A1A" d="M48.263,55.53c0,2.508,0,5.018,0,7.525
	C47.799,61.193,47.799,57.393,48.263,55.53z"/>
<path fill-rule="evenodd" clip-rule="evenodd" fill="#1A1A1A" d="M51.05,65.006c-0.647-1.767-0.095-4.734-0.279-6.968
	C51.419,59.807,50.867,62.774,51.05,65.006z"/>
<path fill-rule="evenodd" clip-rule="evenodd" fill="#1A1A1A" d="M92.299,59.433c-0.3,0.461-2.486,0.461-2.786,0
	C90.44,59.433,91.369,59.433,92.299,59.433z"/>
<path fill-rule="evenodd" clip-rule="evenodd" fill="#1A1A1A" d="M87.562,61.941c0.416,0.047,1.029-0.101,1.115,0.278
	C88.258,62.173,87.647,62.319,87.562,61.941z"/>
<path fill-rule="evenodd" clip-rule="evenodd" fill="#1A1A1A" d="M90.069,62.22c0.557,0,1.116,0,1.673,0
	C91.788,62.678,90.023,62.678,90.069,62.22z"/>
<path fill-rule="evenodd" clip-rule="evenodd" fill="#1A1A1A" d="M76.412,70.859c0.459-0.045,0.459,1.719,0,1.673
	C76.412,71.975,76.412,71.417,76.412,70.859z"/>
<path fill-rule="evenodd" clip-rule="evenodd" fill="#1A1A1A" d="M79.201,70.859c0.456-0.045,0.456,1.719,0,1.673
	C79.201,71.975,79.201,71.417,79.201,70.859z"/>
<path fill-rule="evenodd" clip-rule="evenodd" fill="#1A1A1A" d="M53.279,71.417c0.93,0,1.859,0,2.787,0
	C55.767,71.878,53.58,71.878,53.279,71.417z"/>
<path fill-rule="evenodd" clip-rule="evenodd" fill="#1A1A1A" d="M53.001,87.304c1.208,0,2.416,0,3.624,0
	c-0.478,0.638-2.127,0.103-3.066,0.279c-0.092,0-0.186,0-0.279,0C53.043,87.634,53.017,87.474,53.001,87.304z"/>
<path fill-rule="evenodd" clip-rule="evenodd" fill="#1A1A1A" d="M53.558,90.091c0.372,0,0.744,0,1.115,0c0.557,0,1.115,0,1.672,0
	C56.045,90.553,53.859,90.553,53.558,90.091z"/>
<path fill-rule="evenodd" clip-rule="evenodd" fill="#1A1A1A" d="M6.177,16.232c0.813-1.046,1.742-1.975,2.787-2.787
	C8.152,14.491,7.223,15.42,6.177,16.232z"/>
<path fill-rule="evenodd" clip-rule="evenodd" fill="#1A1A1A" d="M3.391,52.186c1.231,0.998,2.346,2.113,3.344,3.344
	C5.503,54.532,4.389,53.417,3.391,52.186z"/>
<path fill-rule="evenodd" clip-rule="evenodd" fill="#1A1A1A" d="M8.128,56.646c0.953,0.718,1.789,1.554,2.508,2.508
	C9.684,58.434,8.848,57.599,8.128,56.646z"/>
<path fill-rule="evenodd" clip-rule="evenodd" fill="#1A1A1A" d="M12.309,60.548c0.953,0.719,1.789,1.555,2.508,2.508
	C13.864,62.337,13.028,61.5,12.309,60.548z"/>
<path fill-rule="evenodd" clip-rule="evenodd" fill="#1A1A1A" d="M16.49,64.449c1.046,0.813,1.975,1.742,2.787,2.787
	C18.231,66.425,17.302,65.495,16.49,64.449z"/>
<path fill-rule="evenodd" clip-rule="evenodd" fill="#1A1A1A" d="M20.67,68.351c1.046,0.813,1.975,1.742,2.787,2.788
	C22.412,70.326,21.483,69.396,20.67,68.351z"/>
<path fill-rule="evenodd" clip-rule="evenodd" fill="#1A1A1A" d="M24.851,72.254c0.28-0.001,0.332,0.225,0.557,0.278
	c0.124,0.248,0.245,0.498,0.558,0.557c0.481,0.914,1.471,1.317,1.951,2.229C26.778,74.414,25.756,73.392,24.851,72.254z"/>
<path fill-rule="evenodd" clip-rule="evenodd" fill="#1A1A1A" d="M30.146,77.271c0.093,0,0.186,0,0.279,0
	c0.575,1.004,1.654,1.504,2.23,2.508C31.702,79.06,30.866,78.223,30.146,77.271z"/>
<path fill-rule="evenodd" clip-rule="evenodd" fill="#1A1A1A" d="M33.491,80.336c0.583,0.346,1.048,0.811,1.394,1.394
	C34.302,81.384,33.837,80.919,33.491,80.336z"/>
<path fill-rule="evenodd" clip-rule="evenodd" fill="#1A1A1A" d="M75.855,64.728c0.583,0.347,1.048,0.811,1.395,1.395
	C76.667,65.775,76.202,65.312,75.855,64.728z"/>
<path fill-rule="evenodd" clip-rule="evenodd" fill="#1A1A1A" d="M103.448,56.088c0.25-0.491,0.623-0.862,1.113-1.115
	C104.312,55.465,103.938,55.836,103.448,56.088z"/>
<path fill-rule="evenodd" clip-rule="evenodd" fill="#1A1A1A" d="M105.399,54.416c0.082-0.568,0.753-0.546,0.835-1.115
	c0.237,0.051,0.263-0.108,0.279-0.279c1.096-0.669,1.69-1.839,2.786-2.508C108.116,51.931,106.815,53.232,105.399,54.416z"/>
<path fill-rule="evenodd" clip-rule="evenodd" fill="#1A1A1A" d="M120.171,28.496c0.568-0.082,0.547-0.754,1.115-0.836
	c-0.252,0.491-0.625,0.864-1.115,1.115C120.171,28.682,120.171,28.588,120.171,28.496z"/>
<path fill-rule="evenodd" clip-rule="evenodd" fill="#1A1A1A" d="M123.795,25.151c0.438-0.675,0.995-1.232,1.671-1.672
	C125.026,24.154,124.47,24.711,123.795,25.151z"/>
<path fill-rule="evenodd" clip-rule="evenodd" fill="#1A1A1A" d="M124.908,9.543c0.583,0.346,1.048,0.811,1.395,1.394
	C125.72,10.591,125.255,10.126,124.908,9.543z"/>
<path fill-rule="evenodd" clip-rule="evenodd" fill="#1A1A1A" d="M115.711,11.215c0.252-0.491,0.623-0.863,1.116-1.115
	C116.574,10.592,116.202,10.964,115.711,11.215z"/>
<path fill-rule="evenodd" clip-rule="evenodd" fill="#1A1A1A" d="M113.481,13.724c0.347-0.583,0.812-1.048,1.394-1.394
	C114.529,12.913,114.064,13.378,113.481,13.724z"/>
<path fill-rule="evenodd" clip-rule="evenodd" fill="#1A1A1A" d="M111.251,16.232c0.347-0.583,0.812-1.048,1.395-1.394
	C112.299,15.422,111.834,15.886,111.251,16.232z"/>
<path fill-rule="evenodd" clip-rule="evenodd" fill="#1A1A1A" d="M88.955,35.742c0.533-0.768,1.183-1.418,1.949-1.951
	C90.372,34.559,89.723,35.209,88.955,35.742z"/>
<path fill-rule="evenodd" clip-rule="evenodd" fill="#1A1A1A" d="M84.218,44.939c0.344-0.583,0.809-1.047,1.392-1.393
	c-0.082,0.568-0.753,0.546-0.835,1.114C84.548,44.714,84.496,44.94,84.218,44.939z"/>
<path fill-rule="evenodd" clip-rule="evenodd" fill="#1A1A1A" d="M98.988,25.43c1.092-1.324,2.298-2.532,3.622-3.623
	C101.521,23.131,100.313,24.338,98.988,25.43z"/>
<path fill-rule="evenodd" clip-rule="evenodd" fill="#1A1A1A" d="M106.514,17.625c0.997-1.231,2.113-2.346,3.346-3.344
	C108.859,15.513,107.745,16.627,106.514,17.625z"/>
<path fill-rule="evenodd" clip-rule="evenodd" fill="#1A1A1A" d="M110.973,6.477c-0.49-0.251-0.863-0.623-1.113-1.115
	C110.35,5.614,110.721,5.986,110.973,6.477z"/>
<path fill-rule="evenodd" clip-rule="evenodd" fill="#1A1A1A" d="M99.267,3.412c0.491,0.252,0.864,0.624,1.114,1.115
	C99.89,4.275,99.52,3.903,99.267,3.412z"/>
<path fill-rule="evenodd" clip-rule="evenodd" fill="#1A1A1A" d="M8.128,17.905c1.096-0.669,1.691-1.84,2.788-2.509
	c-0.906,1.139-1.928,2.161-3.066,3.065C7.903,18.236,8.129,18.185,8.128,17.905z"/>
<path fill-rule="evenodd" clip-rule="evenodd" fill="#1A1A1A" d="M8.964,53.858c-1.324-1.091-2.532-2.299-3.623-3.623
	C6.666,51.327,7.873,52.534,8.964,53.858z"/>
<path fill-rule="evenodd" clip-rule="evenodd" fill="#1A1A1A" d="M10.358,54.973c0.953,0.719,1.79,1.556,2.509,2.508
	C11.914,56.763,11.078,55.926,10.358,54.973z"/>
<path fill-rule="evenodd" clip-rule="evenodd" fill="#1A1A1A" d="M14.539,58.875c1.046,0.813,1.975,1.742,2.787,2.787
	C16.28,60.85,15.352,59.921,14.539,58.875z"/>
<path fill-rule="evenodd" clip-rule="evenodd" fill="#1A1A1A" d="M18.72,62.777c1.045,0.813,1.975,1.741,2.787,2.787
	c-0.093,0-0.186,0-0.278,0c0.051-0.237-0.109-0.263-0.279-0.278C20.375,64.281,19.294,63.781,18.72,62.777z"/>
<path fill-rule="evenodd" clip-rule="evenodd" fill="#1A1A1A" d="M22.9,66.679c1.045,0.813,1.975,1.742,2.787,2.787
	C24.642,68.653,23.712,67.725,22.9,66.679z"/>
<path fill-rule="evenodd" clip-rule="evenodd" fill="#1A1A1A" d="M27.081,70.581c1.325,1.092,2.532,2.299,3.624,3.623
	C29.38,73.113,28.172,71.905,27.081,70.581z"/>
<path fill-rule="evenodd" clip-rule="evenodd" fill="#1A1A1A" d="M32.655,75.877c0.86,0.626,1.603,1.369,2.229,2.229
	C34.024,77.48,33.281,76.737,32.655,75.877z"/>
<path fill-rule="evenodd" clip-rule="evenodd" fill="#1A1A1A" d="M35.721,78.663c0.491,0.252,0.863,0.624,1.115,1.115
	C36.345,79.527,35.973,79.155,35.721,78.663z"/>
<path fill-rule="evenodd" clip-rule="evenodd" fill="#1A1A1A" d="M62.198,68.351c0.252-0.49,0.624-0.862,1.115-1.114
	C63.062,67.728,62.69,68.1,62.198,68.351z"/>
<path fill-rule="evenodd" clip-rule="evenodd" fill="#1A1A1A" d="M49.099,68.909c0.675,0.439,1.233,0.996,1.672,1.672
	C50.096,70.141,49.539,69.584,49.099,68.909z"/>
<path fill-rule="evenodd" clip-rule="evenodd" fill="#1A1A1A" d="M49.935,53.301c0.252-0.491,0.624-0.863,1.115-1.115
	C50.798,52.677,50.426,53.049,49.935,53.301z"/>
<path fill-rule="evenodd" clip-rule="evenodd" fill="#1A1A1A" d="M103.17,52.743c0.532-0.767,1.182-1.417,1.951-1.951
	C104.588,51.561,103.937,52.21,103.17,52.743z"/>
<path fill-rule="evenodd" clip-rule="evenodd" fill="#1A1A1A" d="M105.678,50.235c0.438-0.675,0.998-1.233,1.671-1.672
	C106.91,49.238,106.353,49.795,105.678,50.235z"/>
<path fill-rule="evenodd" clip-rule="evenodd" fill="#1A1A1A" d="M118.219,26.823c0.347-0.583,0.812-1.047,1.395-1.394
	C119.267,26.013,118.802,26.477,118.219,26.823z"/>
<path fill-rule="evenodd" clip-rule="evenodd" fill="#1A1A1A" d="M121.564,23.479c0.533-0.767,1.183-1.418,1.95-1.951
	C122.981,22.295,122.332,22.946,121.564,23.479z"/>
<path fill-rule="evenodd" clip-rule="evenodd" fill="#1A1A1A" d="M122.957,11.494c0.491,0.252,0.863,0.624,1.116,1.115
	C123.58,12.357,123.21,11.986,122.957,11.494z"/>
<path fill-rule="evenodd" clip-rule="evenodd" fill="#1A1A1A" d="M117.384,13.445c0.345-0.583,0.81-1.047,1.393-1.394
	C118.432,12.635,117.967,13.099,117.384,13.445z"/>
<path fill-rule="evenodd" clip-rule="evenodd" fill="#1A1A1A" d="M115.154,15.953c0.345-0.583,0.809-1.047,1.392-1.393
	C116.202,15.143,115.737,15.607,115.154,15.953z"/>
<path fill-rule="evenodd" clip-rule="evenodd" fill="#1A1A1A" d="M86.169,46.891c0.345-0.583,0.81-1.047,1.393-1.394
	C87.215,46.08,86.75,46.545,86.169,46.891z"/>
<path fill-rule="evenodd" clip-rule="evenodd" fill="#1A1A1A" d="M70.561,27.381c0.37,0.279,0.841,0.459,1.113,0.836
	c-0.759,0.203-0.561-0.554-1.113-0.558C70.561,27.566,70.561,27.474,70.561,27.381z"/>
<path fill-rule="evenodd" clip-rule="evenodd" fill="#1A1A1A" d="M97.037,23.479c1.463-1.695,3.043-3.275,4.738-4.737
	C100.313,20.437,98.734,22.016,97.037,23.479z"/>
<path fill-rule="evenodd" clip-rule="evenodd" fill="#1A1A1A" d="M105.399,14.839c0.719-0.953,1.555-1.79,2.508-2.509
	C107.188,13.283,106.351,14.119,105.399,14.839z"/>
<path fill-rule="evenodd" clip-rule="evenodd" fill="#1A1A1A" d="M107.349,7.313c0.876-0.132,1.14,0.348,1.395,0.836
	c-0.449-0.572-1.396-0.646-2.509-0.557c0.009-0.271,0.341-0.216,0.558-0.279C106.979,7.313,107.164,7.313,107.349,7.313z"/>
<path fill-rule="evenodd" clip-rule="evenodd" fill="#1A1A1A" d="M113.203,17.905c0.568-0.082,0.547-0.754,1.113-0.836
	c-0.25,0.491-0.623,0.863-1.113,1.115C113.203,18.09,113.203,17.998,113.203,17.905z"/>
<path fill-rule="evenodd" clip-rule="evenodd" fill="#808080" d="M11.473,33.791c0.492,0.251,0.864,0.624,1.115,1.115
	C12.096,34.654,11.725,34.283,11.473,33.791z"/>
<path fill-rule="evenodd" clip-rule="evenodd" fill="#333333" d="M23.458,39.087c-0.343-0.122-0.572-0.357-0.557-0.836
	c0.226-0.053,0.277-0.28,0.557-0.279C23.135,38.384,23.135,38.674,23.458,39.087z"/>
<path fill-rule="evenodd" clip-rule="evenodd" fill="#808080" d="M15.654,46.612c0.533-0.768,1.183-1.418,1.951-1.951
	C17.072,45.428,16.421,46.079,15.654,46.612z"/>
<path fill-rule="evenodd" clip-rule="evenodd" fill="#808080" d="M16.49,51.907c0.583,0.346,1.048,0.811,1.394,1.394
	C17.3,52.955,16.836,52.49,16.49,51.907z"/>
<path fill-rule="evenodd" clip-rule="evenodd" fill="#1A1A1A" d="M22.9,53.022c0.082-0.568,0.754-0.546,0.836-1.115
	c0.093,0,0.186,0,0.279,0C23.763,52.399,23.392,52.771,22.9,53.022z"/>
<path fill-rule="evenodd" clip-rule="evenodd" fill="#808080" d="M23.736,51.907c0.812-1.045,1.741-1.975,2.787-2.787
	c-0.669,1.097-1.839,1.691-2.508,2.787C23.922,51.907,23.829,51.907,23.736,51.907z"/>
<path fill-rule="evenodd" clip-rule="evenodd" fill="#333333" d="M26.523,49.12c-0.051-0.237,0.108-0.263,0.279-0.278
	c0.675,0.439,1.232,0.997,1.672,1.672C27.623,50.25,27.601,49.157,26.523,49.12z"/>
<path fill-rule="evenodd" clip-rule="evenodd" fill="#808080" d="M29.868,51.628c0,0.093,0,0.186,0,0.279
	c-0.583-0.346-1.047-0.81-1.394-1.394c-0.44-0.675-0.997-1.232-1.672-1.672c0.439-0.675,0.997-1.233,1.672-1.672
	c-0.047,0.697,0.428,0.873,0.836,1.114c0.44,0.676,0.997,1.233,1.672,1.672c0,0.187,0,0.372,0,0.558
	C30.491,50.766,30.12,51.138,29.868,51.628z"/>
<path fill-rule="evenodd" clip-rule="evenodd" fill="#323232" d="M29.868,51.628c0.252-0.491,0.623-0.863,1.114-1.115
	C30.731,51.005,30.359,51.377,29.868,51.628z"/>
<path fill-rule="evenodd" clip-rule="evenodd" fill="#1A1A1A" d="M29.311,48.284c0.551,0.575,2.259,1.442,1.672,2.23
	c0-0.186,0-0.371,0-0.558C30.307,49.517,29.75,48.959,29.311,48.284z"/>
<path fill-rule="evenodd" clip-rule="evenodd" fill="#1A1A1A" d="M28.474,47.169c0.189-0.647,0.927-0.746,1.115-1.394
	c0.093,0,0.186,0,0.279,0C29.522,46.358,29.058,46.823,28.474,47.169z"/>
<path fill-rule="evenodd" clip-rule="evenodd" fill="#808080" d="M29.589,45.775c0.626-0.86,1.37-1.603,2.23-2.229
	c-0.48,0.913-1.471,1.316-1.951,2.229C29.775,45.775,29.682,45.775,29.589,45.775z"/>
<path fill-rule="evenodd" clip-rule="evenodd" fill="#808080" d="M32.376,32.955c0.358-0.477,0.576-1.095,1.394-1.114
	C33.32,32.227,32.888,32.63,32.376,32.955z"/>
<path fill-rule="evenodd" clip-rule="evenodd" fill="#808080" d="M38.787,23.2c0.799-0.501,1.555-1.047,2.229-1.672
	c0.654,0.089,0.625,0.863,1.115,1.115c-0.623,0.771-1.75,1.038-2.23,1.951C39.515,24.144,39.112,23.711,38.787,23.2z"/>
<path fill-rule="evenodd" clip-rule="evenodd" fill="#808080" d="M23.458,37.972c0-0.093,0-0.186,0-0.279
	c1.663-0.269,1.081,1.707,2.508,1.673c-0.333,0.688-0.954,1.089-1.672,1.393c0.151-0.986-0.987-0.685-0.836-1.671
	C23.135,38.674,23.135,38.384,23.458,37.972z"/>
<path fill-rule="evenodd" clip-rule="evenodd" fill="#808080" d="M13.146,27.103c0.075-1.47-1.235-1.553-1.394-2.788
	c0.531-0.12,0.7-0.601,1.394-0.557c0.515,0.692,0.842,1.572,1.672,1.951C14.435,26.348,13.669,26.604,13.146,27.103z"/>
<path fill-rule="evenodd" clip-rule="evenodd" fill="#808080" d="M16.49,27.938c0.004,0.831,0.725,0.947,0.836,1.672
	c0.323,0.413,0.323,0.703,0,1.115c-0.069,0.303-0.554,0.189-0.558,0.558c-0.844-0.467-1.189-2.569-2.229-1.951
	C14.955,28.632,15.79,28.354,16.49,27.938z"/>
<path fill-rule="evenodd" clip-rule="evenodd" fill="#808080" d="M26.802,34.07c0.491,0.251,0.863,0.623,1.114,1.114
	C27.425,34.933,27.054,34.562,26.802,34.07z"/>
<path fill-rule="evenodd" clip-rule="evenodd" fill="#333333" d="M17.883,48.842c-0.71-1.093,1.12-2.03,1.951-2.508
	C19.453,47.438,17.736,47.208,17.883,48.842z"/>
<path fill-rule="evenodd" clip-rule="evenodd" fill="#808080" d="M20.949,51.072c0.812-1.046,1.742-1.975,2.787-2.788
	C22.924,49.33,21.995,50.259,20.949,51.072z"/>
<path fill-rule="evenodd" clip-rule="evenodd" fill="#808080" d="M25.688,44.939c0.237-0.051,0.263,0.109,0.278,0.279
	c0.875,0.132,0.736-0.75,1.394-0.836c-0.489-0.44-0.579-1.28-1.394-1.394c0.382-0.64,1.148-0.896,1.672-1.394
	c-0.043,0.693,0.438,0.863,0.558,1.394c1.023,0.001,1.068-0.976,1.672-1.394c-0.381,1.288-1.654,1.934-2.508,2.788
	c-0.932,0.932-1.641,2.048-2.787,2.787c0-0.093,0-0.187,0-0.279c-0.534-0.768-1.184-1.418-1.952-1.951c0-0.186,0-0.372,0-0.557
	c1.02,0.183,1.07-0.603,1.952-0.558C24.824,44.316,25.196,44.688,25.688,44.939z"/>
<path fill-rule="evenodd" clip-rule="evenodd" fill="#333333" d="M34.885,26.266c-0.119,0.582,0.191,0.737,0.279,1.115
	C34.714,27.5,34.229,26.341,34.885,26.266z"/>
<path fill-rule="evenodd" clip-rule="evenodd" fill="#333333" d="M17.326,30.725c0.323-0.412,0.323-0.702,0-1.115
	c0.35,0.114,0.569,0.359,0.557,0.836C17.604,30.445,17.552,30.672,17.326,30.725z"/>
<path fill-rule="evenodd" clip-rule="evenodd" fill="#1A1A1A" d="M24.851,43.546c-0.132,0.875,0.75,0.736,0.836,1.393
	c-0.492-0.252-0.864-0.624-1.115-1.115C24.521,43.588,24.681,43.562,24.851,43.546z"/>
<path fill-rule="evenodd" clip-rule="evenodd" fill="#1A1A1A" d="M22.621,44.939c0.768,0.533,1.418,1.183,1.952,1.951
	C23.805,46.357,23.155,45.708,22.621,44.939z"/>
<path fill-rule="evenodd" clip-rule="evenodd" fill="#808080" d="M37.394,26.545c-0.481-0.731-1.607,1.709-2.23,0.836
	c-0.088-0.377-0.397-0.533-0.279-1.115c0.194-0.734,1.269-0.589,1.394-1.394c0.186,0,0.372,0,0.558,0
	C36.95,25.342,38.149,26.125,37.394,26.545z"/>
<path fill-rule="evenodd" clip-rule="evenodd" fill="#808080" d="M10.916,32.397c-0.461-0.211-0.461-2.296,0-2.508
	C10.916,30.725,10.916,31.562,10.916,32.397z"/>
<path fill-rule="evenodd" clip-rule="evenodd" fill="#333333" d="M20.113,32.955c1.491,0.182,3.71-0.365,4.738,0.279
	c-1.579,0-3.159,0-4.738,0C20.113,33.141,20.113,33.048,20.113,32.955z"/>
<path fill-rule="evenodd" clip-rule="evenodd" fill="#333333" d="M126.303,10.937c-0.583-0.346-1.048-0.811-1.395-1.394
	c-1.753-1.906-6.785-1.244-8.081,0.557c-0.253,0.492-0.625,0.863-1.116,1.115c-0.082,0.568-0.753,0.547-0.836,1.115
	c-0.346,0.583-0.811,1.048-1.394,1.394c-0.082,0.568-0.754,0.546-0.836,1.115c-0.347,0.583-0.812,1.047-1.395,1.394
	c-0.541,0.773-0.961,1.166-1.392,1.951c-0.552,1.002-0.786,1.753-1.116,2.508c-0.802,1.833-1.486,3.729-2.229,5.296
	c-1.531,3.232-4.34,4.21-8.641,4.738c0,0.093,0,0.186,0,0.279c-0.093,0-0.185,0-0.279,0c-2.776,0.38-4.904,1.412-6.689,2.787
	c-0.532,0.768-1.182,1.418-1.949,1.951c-1.557,2.161-2.216,5.217-3.346,7.804c-0.082,0.568-0.753,0.546-0.835,1.114
	c-0.227,0.053-0.278,0.28-0.557,0.279c-1.274,0.492-2.358,1.174-4.182,1.115c-0.278,0-0.557,0-0.835,0c-0.095,0-0.187,0-0.281,0
	c0-0.093,0-0.186,0-0.279c-1.578-0.522-2.578-1.066-3.9-1.672c-7.7-3.528-15.96-7.151-23.133-10.87
	c-0.522-0.271-1.636-0.175-1.673-1.115c1.006-0.573,2.635-0.524,3.902-0.836c0-0.093,0-0.186,0-0.278c0.186,0,0.372,0,0.558,0
	c0.186,0,0.372,0,0.557,0c1.121,0.191,1.591-0.268,2.508-0.279c0.052-0.412,0.674-0.255,1.116-0.279
	c2.686-0.008,4.524-0.863,7.246-0.836c0-0.093,0-0.186,0-0.279c0.093,0,0.186,0,0.279,0c0.186,0,0.372,0,0.558,0
	c-0.125-0.455,1.519-0.455,1.394,0c1.066,0.698,1.783,1.748,3.622,1.673c0.465,0,0.93,0,1.395,0c0.093,0,0.187,0,0.278,0
	c0.095,0,0.187,0,0.279,0c1.142-0.066,2.279-0.137,3.066-0.558c0.093,0,0.185,0,0.279,0c0.184,0,0.37,0,0.557,0
	c0.052-0.413,0.673-0.255,1.113-0.278c1.865-0.087,3.559-0.345,5.019-0.836c0.093,0,0.185,0,0.279,0c0.184,0,0.37,0,0.557,0
	c0.052-0.413,0.673-0.255,1.114-0.278c0.186,0,0.372,0,0.559,0c0.05-0.413,0.673-0.256,1.114-0.279
	c4.478-0.447,8.811-1.037,11.427-3.345c1.092-1.324,2.298-2.532,3.622-3.623c1.139-1.558,2.767-2.623,3.903-4.181
	c0.997-1.231,2.113-2.346,3.346-3.344c0.65-0.834,1.35-1.623,1.392-3.066c0-0.278,0-0.557,0-0.836s0-0.558,0-0.836
	c0.095,0,0.187,0,0.279,0c0.086-1.292-0.003-2.413-0.558-3.066c-0.49-0.251-0.863-0.623-1.113-1.115
	c-0.583-0.16-0.798-0.69-1.673-0.558c-0.651,0-1.301,0-1.952,0c-2.211,0.175-4.281,1.063-5.854-0.278
	c-0.491-0.251-0.861-0.624-1.114-1.115c-1.45-0.872-2.616-2.028-4.459-2.508c-0.093,0-0.187,0-0.278,0
	c-0.445-0.483-1.255-0.604-2.23-0.558c-0.278,0-0.557,0-0.835,0c-0.095,0-0.187,0-0.278,0c-0.56,0-1.116,0-1.673,0
	c-0.371,0-0.743,0-1.116,0c0,0.093,0,0.186,0,0.279c-0.185,0-0.371,0-0.557,0c-0.278,0-0.558,0-0.836,0c-0.372,0-0.743,0-1.115,0
	c0.048,0.604-0.988,0.126-1.393,0.279c-0.373,0-0.743,0-1.116,0c0.048,0.604-0.987,0.126-1.393,0.278c-0.372,0-0.743,0-1.115,0
	c0.048,0.604-0.988,0.127-1.393,0.279c-0.373,0-0.743,0-1.116,0c0.048,0.604-0.987,0.126-1.393,0.278c-0.372,0-0.743,0-1.115,0
	c-0.053,0.413-0.674,0.256-1.114,0.279c-0.372,0-0.743,0-1.116,0c-0.016,0.17-0.042,0.33-0.278,0.279c-0.092,0-0.187,0-0.278,0
	c-0.278,0-0.557,0-0.835,0c-0.187,0-0.373,0-0.56,0c-0.184,0-0.37,0-0.557,0c0.048,0.604-0.987,0.126-1.395,0.279
	c-0.37,0-0.742,0-1.114,0c0.048,0.604-0.988,0.126-1.394,0.278c-0.372,0-0.743,0-1.115,0c0.047,0.604-0.988,0.126-1.394,0.279
	c-0.372,0-0.743,0-1.115,0c0.047,0.604-0.988,0.126-1.394,0.278c-0.278,0-0.557,0-0.836,0c0.047,0.604-0.988,0.126-1.394,0.279
	c-0.372,0-0.743,0-1.114,0c0.046,0.604-0.989,0.126-1.394,0.279c-0.372,0-0.743,0-1.115,0c0.046,0.604-0.989,0.126-1.394,0.279
	c-0.372,0-0.743,0-1.115,0c-0.052,0.413-0.674,0.255-1.115,0.278c-0.372,0-0.743,0-1.115,0c0.047,0.604-0.989,0.126-1.394,0.278
	c-0.371,0-0.743,0-1.114,0c-0.051,0.414-0.673,0.256-1.115,0.279c-0.372,0-0.743,0-1.115,0c0.047,0.604-0.989,0.126-1.394,0.278
	c-0.371,0-0.743,0-1.114,0c-0.052,0.413-0.674,0.256-1.116,0.279c-0.371,0-0.743,0-1.114,0c0.047,0.605-0.989,0.126-1.394,0.279
	c-0.371,0-0.743,0-1.114,0c-0.052,0.413-0.674,0.256-1.115,0.279c-0.371,0-0.743,0-1.114,0C37.44,6.803,36.405,6.325,36,6.477
	c-0.372,0-0.743,0-1.115,0c-0.052,0.413-0.673,0.256-1.115,0.279c-0.372,0-0.743,0-1.115,0c0.046,0.604-0.989,0.126-1.394,0.278
	c-0.372,0-0.743,0-1.115,0c-0.052,0.413-0.673,0.256-1.114,0.279c-0.372,0-0.743,0-1.116,0c-0.061,0.217-0.233,0.324-0.557,0.279
	c-0.093,0-0.187,0-0.279,0s-0.186,0-0.278,0c-0.372,0-0.743,0-1.115,0c0.046,0.604-0.989,0.126-1.394,0.278
	c-0.278,0-0.557,0-0.836,0c0.047,0.605-0.989,0.127-1.393,0.279c-5.804,0.329-9.693,2.571-13.1,5.296
	c-0.812,1.045-1.741,1.975-2.787,2.787c-2.762,3.462-5,7.449-5.574,13.099c0,0.093,0,0.186,0,0.279c0,0.186,0,0.372,0,0.558
	c-0.063,0.216-0.008,0.55-0.279,0.557c0,0.743,0,1.486,0,2.229c0,0.744,0,1.487,0,2.23c0,0.093,0,0.186,0,0.278
	c0,0.279,0,0.558,0,0.836c0,0.186,0,0.372,0,0.558c-0.165,0.578,0.345,1.831-0.278,1.951c0,1.394,0,2.787,0,4.18
	c0,0.279,0,0.558,0,0.836c-0.2,4.103,1.667,6.137,3.345,8.361c1.231,0.998,2.346,2.113,3.344,3.344
	c0.647,0.189,0.746,0.927,1.394,1.116c0.953,0.718,1.789,1.554,2.508,2.508c0.733,0.288,0.938,1.104,1.672,1.394
	c0.953,0.719,1.789,1.555,2.508,2.508c0.734,0.289,0.938,1.105,1.672,1.394c1.046,0.813,1.975,1.742,2.787,2.787
	c0.648,0.189,0.746,0.927,1.394,1.114c1.046,0.813,1.975,1.742,2.787,2.788c0.648,0.188,0.747,0.927,1.394,1.115
	c0.28-0.001,0.332,0.225,0.557,0.278c0.124,0.248,0.245,0.498,0.558,0.557c0.481,0.914,1.471,1.317,1.951,2.229
	c0.914,0.481,1.317,1.471,2.23,1.952c0.093,0,0.186,0,0.279,0c0.575,1.004,1.654,1.504,2.23,2.508
	c0.397,0.067,0.47,0.459,0.836,0.558c0.583,0.346,1.048,0.811,1.394,1.394c1.309,0.921,2.336,2.123,3.902,2.787
	c0.114,0.351,0.36,0.569,0.836,0.558c1.631,1.342,3.515,2.432,5.853,3.065c0.062,0.217,0.233,0.324,0.558,0.279
	c2.109,0.957,4.494,1.638,7.525,1.672c0.372,0,0.744,0,1.115,0c0.557,0,1.115,0,1.672,0c2.052-0.028,2.919-0.354,4.459-1.115
	c0.809-0.399,1.473-1.027,1.951-1.393c0.236-0.181,0.582-0.091,0.836-0.279c0.614-0.455,1.253-1.352,1.672-1.673
	c0.229-0.175,0.596-0.09,0.836-0.278c0.625-0.488,1.246-1.346,1.673-1.672c0.228-0.176,0.596-0.091,0.835-0.279
	c0.625-0.488,1.247-1.346,1.673-1.672c0.229-0.175,0.596-0.091,0.836-0.278c0.597-0.467,1.229-1.333,1.673-1.673
	c0.229-0.175,0.595-0.091,0.835-0.278c0.521-0.408,1.274-1.367,1.673-1.673c0.215-0.164,0.621-0.095,0.836-0.278
	c1.608-1.387,2.166-2.607,3.067-3.902c0-0.371,0-0.743,0-1.114c0-0.558,0-1.115,0-1.673c-0.004-2.227-1.099-3.362-1.951-4.737
	c-0.583-0.347-1.048-0.811-1.395-1.395c-1.813-2.651-4.908-4.639-8.641-3.344c-0.802,0.277-1.045,0.575-1.393,0.836
	c-0.224,0.168-0.634,0.145-0.836,0.278c-0.706,0.467-1.279,1.027-1.672,1.395c-0.211,0.197-0.605,0.087-0.836,0.278
	c-0.46,0.382-0.752,0.815-1.115,1.115c-2.721,2.239-5.826,4.815-9.476,2.786c-0.262-1.039-1.053-1.549-0.836-3.066
	c-0.647-1.767-0.095-4.734-0.279-6.968c0-0.557,0-1.113,0-1.672c1.126-1.475,2.806-2.396,4.181-3.623
	c-0.047-0.604,0.989-0.126,1.394-0.278c0.093,0,0.186,0,0.279,0c0,0.093,0,0.186,0,0.278c5.183,0.67,10.021,1.685,15.328,2.23
	c0.417,0.048,1.03-0.1,1.116,0.279c6.417,0.644,8.128,5.993,14.493,6.689c0.416,0.047,1.029-0.101,1.115,0.278
	c0.465,0,0.928,0,1.393,0c0.557,0,1.116,0,1.673,0c5.844-0.102,8.12-3.771,11.706-6.132c0.25-0.491,0.623-0.862,1.113-1.115
	c0.399-0.066,0.472-0.458,0.838-0.558c0.082-0.568,0.753-0.546,0.835-1.115c0.237,0.051,0.263-0.108,0.279-0.279
	c1.096-0.669,1.69-1.839,2.786-2.508c2.344-2.853,4.43-6.322,5.854-10.312c0.719-2.015,1.132-4.185,1.951-6.131
	c0.841-2.002,1.961-3.597,3.065-5.296c0-0.093,0-0.186,0-0.279c0.568-0.082,0.547-0.754,1.115-0.836
	c0.718-0.953,1.555-1.789,2.509-2.508c0.438-0.675,0.995-1.232,1.671-1.672c0.749-1.388,1.895-2.378,1.673-4.737
	c0.178-1.214-0.365-3.151,0.278-3.902C127.587,12.996,126.824,12.087,126.303,10.937z M124.352,19.298
	c-0.04,0.984-0.797,1.247-0.837,2.23c-0.533,0.767-1.183,1.418-1.95,1.951c-0.769,0.533-1.418,1.184-1.951,1.951
	c-0.347,0.583-0.812,1.047-1.395,1.394c-0.532,0.732-1.037,1.382-1.673,2.23c-2.62,3.504-3.674,9.82-5.852,14.214
	c-0.81,1.633-2.204,3.552-3.346,5.296c-0.438,0.675-0.996,1.232-1.671,1.672c-0.124,0.248-0.244,0.498-0.557,0.557
	c-0.533,0.769-1.185,1.418-1.951,1.951c-3.376,2.199-5.864,5.286-10.035,6.689c-0.093,0-0.185,0-0.278,0c-0.187,0-0.371,0-0.558,0
	c-0.3,0.461-2.486,0.461-2.786,0c-4.239-0.135-6.735-2.838-9.755-4.738c-2.907-1.83-7.225-2.695-12.264-3.066
	c-0.441-0.023-1.063,0.134-1.115-0.278c-0.897,0.061-1.179-0.493-2.229-0.278c-0.249-0.217-0.63-0.3-1.116-0.28
	c-1.634-0.038-2.694-0.649-4.459-0.557c-0.441-0.024-1.063,0.134-1.114-0.279c-0.279,0-0.558,0-0.836,0c-0.65,0-1.301,0-1.951,0
	c-1.812,0.14-2.38,1.522-3.624,2.23c-0.252,0.491-0.624,0.863-1.115,1.115c-0.755,0.545-1.52,1.082-1.672,2.229
	c0,2.508,0,5.018,0,7.525c-0.031,2.261-0.164,4.623,0.836,5.854c0.675,0.439,1.233,0.996,1.672,1.672
	c0.839,0.276,1.244,0.986,2.508,0.836c0.93,0,1.859,0,2.787,0c2.787-0.279,4.411-1.722,6.132-3.066
	c0.252-0.49,0.624-0.862,1.115-1.114c2.319-1.228,3.473-3.363,6.131-3.344c1.823,0.012,3.245,1.179,4.46,2.508
	c0.204,0.223,0.084,0.576,0.278,0.836c0.107,0.144,0.456,0.144,0.559,0.279c0.663,0.871,1.378,1.826,1.671,3.344
	c0.459-0.045,0.459,1.719,0,1.673c-0.453,1.276-1.374,2.199-2.508,3.065c-0.196,0.15-0.628,0.104-0.836,0.279
	c-0.322,0.271-0.507,0.856-0.835,1.114c-0.243,0.188-0.607,0.104-0.838,0.279c-0.417,0.318-1.044,0.907-1.673,1.393
	c-2.178,1.688-4.506,3.685-6.967,5.575c-1.894,1.455-3.615,2.732-6.131,3.065c-0.478,0.638-2.127,0.103-3.066,0.279
	c-0.092,0-0.186,0-0.279,0c-0.236,0.051-0.262-0.109-0.278-0.279c-0.186,0-0.371,0-0.558,0c-0.093,0-0.186,0-0.278,0
	c-3.54-0.733-6.551-1.996-9.476-3.345c-0.122-0.343-0.357-0.572-0.836-0.558c-1.706-1.175-3.258-2.502-5.017-3.623
	c-0.491-0.251-0.863-0.623-1.115-1.115c-0.366-0.098-0.439-0.49-0.836-0.557c-0.86-0.626-1.604-1.369-2.229-2.229
	c-0.823-0.386-1.129-1.287-1.951-1.673c-1.324-1.091-2.532-2.299-3.624-3.623c-0.647-0.188-0.746-0.926-1.393-1.115
	c-1.046-0.813-1.975-1.741-2.787-2.787c-0.648-0.188-0.747-0.926-1.394-1.114c-0.093,0-0.186,0-0.278,0
	c0.051-0.237-0.109-0.263-0.279-0.278c-0.575-1.005-1.655-1.505-2.229-2.509c-0.648-0.189-0.747-0.927-1.394-1.115
	c-1.046-0.813-1.975-1.741-2.787-2.787c-0.734-0.289-0.939-1.105-1.672-1.394c-0.953-0.719-1.789-1.556-2.509-2.508
	c-0.647-0.188-0.746-0.926-1.394-1.115c-1.324-1.091-2.532-2.299-3.623-3.623c-0.935-1.667-2.231-2.972-2.508-5.296
	c-0.093,0-0.186,0-0.279,0c0-0.092,0-0.186,0-0.279c0.17-0.666-0.35-2.022,0.279-2.229c0-1.393,0-2.787,0-4.181
	c0-0.093,0-0.186,0-0.279c0-0.464,0-0.929,0-1.393c0-0.186,0-0.373,0-0.558c0-0.186,0-0.372,0-0.558
	c0.178-1.029-0.361-2.776,0.278-3.344c0-0.557,0-1.114,0-1.672c0-0.092,0-0.185,0-0.278s0-0.186,0-0.279
	c-0.045-0.324,0.062-0.496,0.279-0.558c0.697-4.413,2.452-7.767,4.459-10.87c0.053-0.225,0.28-0.277,0.279-0.557
	c1.096-0.669,1.691-1.84,2.788-2.509c2.978-2.131,6.325-3.894,10.869-4.459c-0.051-0.237,0.109-0.263,0.279-0.279
	c0.092,0,0.185,0,0.278,0c0.186,0,0.372,0,0.558,0c0.372,0,0.743,0,1.115,0c-0.047-0.604,0.989-0.126,1.393-0.279
	c0.372,0,0.744,0,1.115,0c0.086-0.378,0.698-0.231,1.115-0.279c0.372,0,0.743,0,1.115,0c-0.051-0.237,0.109-0.263,0.279-0.279
	c0.093,0,0.185,0,0.278,0c0.186,0,0.372,0,0.558,0c0.464,0,0.929,0,1.394,0c0.045-0.326,0.508-0.235,0.836-0.278
	c0.093,0,0.186,0,0.279,0c0.372,0,0.743,0,1.115,0c0.086-0.378,0.698-0.231,1.115-0.279c0.372,0,0.743,0,1.115,0
	c-0.047-0.604,0.988-0.126,1.393-0.279c0.372,0,0.743,0,1.115,0c0.086-0.378,0.698-0.231,1.115-0.278c0.372,0,0.743,0,1.115,0
	c-0.047-0.604,0.989-0.126,1.394-0.278c0.372,0,0.743,0,1.115,0c0.086-0.379,0.698-0.231,1.115-0.279c0.372,0,0.744,0,1.115,0
	c-0.047-0.604,0.988-0.126,1.394-0.279c0.371,0,0.743,0,1.115,0c0.086-0.378,0.698-0.231,1.115-0.278c0.371,0,0.743,0,1.114,0
	c-0.047-0.604,0.989-0.126,1.394-0.279c0.093,0,0.185,0,0.278,0c0.279,0,0.558,0,0.836,0c0.087-0.378,0.698-0.231,1.115-0.279
	c0.372,0,0.744,0,1.115,0c0.045-0.327,0.508-0.235,0.836-0.278c0.093,0,0.186,0,0.279,0c0.093,0,0.186,0,0.278,0
	c0.372,0,0.743,0,1.115,0c-0.047-0.604,0.989-0.126,1.393-0.279c0.372,0,0.743,0,1.116,0c0.086-0.378,0.697-0.23,1.114-0.278
	c0.465,0,0.929,0,1.394,0c0.086-0.378,0.698-0.231,1.115-0.279c0.372,0,0.743,0,1.115,0c-0.047-0.604,0.988-0.126,1.394-0.279
	c0.372,0,0.743,0,1.115,0c0.086-0.378,0.698-0.231,1.115-0.279c0.465,0,0.929,0,1.393,0c0.087-0.378,0.699-0.231,1.116-0.278
	c0.465,0,0.93,0,1.392,0c0.087-0.378,0.699-0.231,1.116-0.279c0.465,0,0.93,0,1.393,0c0.088-0.378,0.699-0.23,1.116-0.278
	c0.37,0,0.743,0,1.113,0c0.046-0.327,0.509-0.235,0.838-0.278c0.186,0,0.37,0,0.557,0c0.373,0,0.743,0,1.116,0
	c-0.049-0.604,0.987-0.127,1.392-0.279c0.373,0,0.744,0,1.116,0c-0.048-0.605,0.988-0.126,1.393-0.279c0.373,0,0.743,0,1.116,0
	c0.086-0.378,0.697-0.231,1.113-0.279c0.465,0,0.93,0,1.395,0c0.086-0.378,0.697-0.231,1.114-0.278c0.465,0,0.93,0,1.395,0
	c0.391-0.462,2.674-0.462,3.064,0c0.187,0,0.371,0,0.558,0c0.094,0,0.186,0,0.278,0c3.268,1.006,4.76,3.787,8.084,4.737
	c0.44,0.023,1.063-0.134,1.113,0.279c0.187,0,0.373,0,0.56,0c-0.049-0.604,0.987-0.126,1.392-0.279
	c0.906,0.162,1.297-0.189,1.951-0.278c0.009-0.271,0.341-0.216,0.558-0.279c0.187,0,0.372,0,0.557,0
	c0.876-0.132,1.14,0.348,1.395,0.836c0.048,1.721-0.232,3.112-0.836,4.181c-0.719,0.953-1.557,1.789-2.508,2.509
	c-1.044,1.465-2.58,2.436-3.624,3.902c-1.463,1.695-3.041,3.274-4.738,4.737c-1.597,1.005-3.656,1.547-5.852,1.951
	c-0.087,0.378-0.699,0.231-1.116,0.279c-2.197,0.03-3.854,0.604-5.852,0.836c-0.087,0.378-0.699,0.231-1.116,0.278
	c-0.187,0-0.371,0-0.557,0c-0.087,0.378-0.697,0.231-1.114,0.279c-1.65-0.071-2.734,0.425-4.181,0.557
	c-0.087,0.379-0.699,0.231-1.116,0.279c-0.187,0-0.371,0-0.557,0c-0.087,0.378-0.699,0.23-1.116,0.278c-0.278,0-0.557,0-0.836,0
	c0.053,0.237-0.107,0.263-0.278,0.279c-0.092,0-0.187,0-0.278,0c-0.278,0-0.557,0-0.835,0c-0.095,0-0.187,0-0.281,0
	c0-0.093,0-0.186,0-0.279c-0.092,0-0.184,0-0.278,0c-0.759,0.203-0.561-0.554-1.113-0.558c0-0.093,0-0.185,0-0.278
	c-0.644-0.287-0.899-0.959-1.952-0.836c-0.465,0-0.929,0-1.394,0c-0.278,0-0.557,0-0.836,0c-0.007,0.271-0.341,0.216-0.557,0.278
	c-0.093,0-0.186,0-0.279,0c-0.092,0-0.185,0-0.278,0c-1.688-0.016-2.956,0.388-4.459,0.558c-0.086,0.378-0.697,0.231-1.114,0.278
	c-1.121-0.192-1.591,0.267-2.509,0.279c0.051,0.237-0.109,0.263-0.279,0.278c-0.093,0-0.186,0-0.278,0c-0.186,0-0.372,0-0.558,0
	c-1.12-0.191-1.59,0.267-2.508,0.279c-0.086,0.379-0.697,0.231-1.115,0.279c-2.563-0.127-4.808,0.784-5.017,3.066
	c-0.107,1.176,0.09,2.419,1.394,3.066c0.007,0.271,0.34,0.216,0.557,0.278c7.154,3.743,14.455,6.789,22.018,10.313
	c2.454,1.144,4.742,2.734,7.524,3.066c1.116,0,2.23,0,3.346,0c1.815-0.042,2.747-0.969,3.903-1.672
	c0.345-0.583,0.81-1.047,1.393-1.394c1.949-2.282,1.772-5.414,3.624-8.083c0.067-0.1,0.517-0.191,0.557-0.279
	c0.547-1.215,2.058-1.868,3.622-2.509c0.661-0.27,1.292-0.676,1.951-0.836c2.292-0.554,4.526-0.694,6.689-1.672
	c0.545-0.246,1.419-0.483,1.951-0.836c0.247-0.163,0.329-0.657,0.558-0.836c0.164-0.128,0.681-0.123,0.835-0.278
	c0.223-0.221,0.08-0.57,0.28-0.836c0.097-0.13,0.475-0.155,0.558-0.278c1.94-2.956,2.788-7.849,5.017-10.87c0-0.093,0-0.185,0-0.278
	c0.568-0.082,0.547-0.754,1.113-0.836c0.082-0.568,0.756-0.546,0.838-1.115c0.345-0.583,0.809-1.047,1.392-1.393
	c0.083-0.568,0.756-0.546,0.838-1.115c0.345-0.583,0.81-1.047,1.393-1.394c0.93,0.001,0.951-0.907,1.951-0.836
	c0.008-0.271,0.341-0.216,0.559-0.278c0.185,0,0.371,0,0.558,0c0,0.093,0,0.186,0,0.278c0.498-0.035,0.587,0.342,1.113,0.279
	c0.491,0.252,0.863,0.624,1.116,1.115c0.541,0.851,0.635,2.15,0.557,3.623c0,0.743,0,1.486,0,2.229c0,0.187,0,0.373,0,0.558
	C124.68,19.256,124.521,19.282,124.352,19.298z"/>
<path fill-rule="evenodd" clip-rule="evenodd" fill="#333333" d="M14.539,35.742c1.486,0,2.973,0,4.459,0c0,0.093,0,0.186,0,0.279
	C17.6,35.84,15.474,36.386,14.539,35.742z"/>
<path fill-rule="evenodd" clip-rule="evenodd" fill="#333333" d="M35.442,22.364c-0.045-0.458,1.719-0.458,1.672,0
	C36.558,22.364,36,22.364,35.442,22.364z"/>
<path fill-rule="evenodd" clip-rule="evenodd" fill="#333333" d="M29.311,33.791c0,0.65,0,1.301,0,1.951
	C28.852,35.705,28.852,33.829,29.311,33.791z"/>
<path fill-rule="evenodd" clip-rule="evenodd" fill="#333333" d="M28.753,37.136c0.459,0.038,0.459,1.913,0,1.951
	C28.753,38.436,28.753,37.786,28.753,37.136z"/>
<path fill-rule="evenodd" clip-rule="evenodd" fill="#FFFFFF" d="M14.817,25.708c2.626-1.278,5.33-5.793,9.476-4.738
	c0.701,0.179,1.766,1.083,2.23,1.672c0.54,0.684,0.343,2.013,1.393,2.508c3.168-0.27,4.644-2.23,7.525-2.787
	c0.558,0,1.116,0,1.672,0c0.186,0,0.372,0,0.558,0c0.077,0.574,1.038,0.262,1.115,0.836c0.325,0.511,0.729,0.943,1.115,1.394
	c1.444,4.884-3.331,5.705-6.131,7.247c-0.817,0.019-1.035,0.637-1.394,1.114c0.156,0.545-0.504,0.848-0.558,1.394
	c-0.136,1.394,1.196,2.611,1.394,4.181c0.268,2.137-0.225,3.929-1.394,5.017c-0.86,0.626-1.604,1.369-2.23,2.229
	c-0.188,0.648-0.926,0.747-1.115,1.394c-0.675,0.439-1.232,0.997-1.672,1.672c-0.17,0.016-0.33,0.042-0.279,0.278
	c-1.046,0.813-1.975,1.742-2.787,2.787c-0.082,0.568-0.754,0.547-0.836,1.115c-0.956,0.889-3.829,1.274-5.017,0.279
	c-0.346-0.583-0.811-1.047-1.394-1.394c-1.013-0.882-2.212-3.79-0.836-5.295c0.768-0.533,1.418-1.184,1.951-1.951
	c1.684-1.847,4.45-2.611,6.689-3.902c0.718-0.303,1.34-0.704,1.672-1.393c1.003-2.621-1.163-4.131-4.181-3.624
	c-0.929,0-1.858,0-2.787,0c-1.486,0-2.973,0-4.459,0c-0.714-0.215-1.58-0.278-1.951-0.836c-0.251-0.492-0.624-0.864-1.115-1.115
	c-0.119-0.531-0.6-0.7-0.557-1.394c0-0.836,0-1.672,0-2.508c0-0.186,0-0.372,0-0.558c0.655-0.831,1.044-1.928,2.229-2.229
	C13.669,26.604,14.435,26.348,14.817,25.708z M36.278,24.873c-2.773,0.836-6.235,3.828-9.198,3.066
	c-0.381-0.099-1.784-1.195-1.951-1.394c-0.519-0.617-0.49-1.999-1.394-2.787c-1.854-0.382-2.886,0.927-3.902,1.672
	c-1.032,0.757-2.467,1.874-3.345,2.509c-0.7,0.415-1.535,0.694-1.951,1.393c-2.101,1.051-0.928,4.595,1.951,3.902
	c0.836,0,1.672,0,2.508,0c0.372,0,0.743,0,1.115,0c1.579,0,3.159,0,4.738,0c0.937-0.008,1.475,0.383,1.951,0.836
	c0.251,0.491,0.623,0.863,1.114,1.114c0.453,0.477,0.844,1.015,0.836,1.951c0,0.65,0,1.3,0,1.951
	c0.037,1.244-0.613,1.802-1.115,2.508c-0.524,0.498-1.29,0.754-1.672,1.394c-0.412,0.146-0.702,0.413-1.115,0.558
	c-0.17,0.016-0.33,0.042-0.278,0.278c-0.882-0.045-0.932,0.741-1.952,0.558c0,0.186,0,0.372,0,0.557
	c-1.387,0.007-1.928,0.858-2.787,1.394c-0.831,0.478-2.661,1.415-1.951,2.508c0.695,1.07,0.896,2.634,3.066,2.23
	c1.045-0.813,1.975-1.742,2.787-2.788c0.082-0.568,0.754-0.546,0.836-1.114c1.146-0.739,1.855-1.855,2.787-2.787
	c0.854-0.854,2.127-1.5,2.508-2.788c1.471-1.729-0.227-4.169-0.558-5.853c0-0.65,0-1.301,0-1.951
	c0.374-4.736,5.604-4.615,8.083-7.246c0.755-0.42-0.444-1.203-0.558-1.672C36.65,24.873,36.464,24.873,36.278,24.873z"/>
</svg>
