<?xml version="1.0" encoding="utf-8"?>
<!-- Generator: Adobe Illustrator 15.0.0, SVG Export Plug-In  -->
<!DOCTYPE svg PUBLIC "-//W3C//DTD SVG 1.1//EN" "http://www.w3.org/Graphics/SVG/1.1/DTD/svg11.dtd" [
	<!ENTITY ns_flows "http://ns.adobe.com/Flows/1.0/">
]>
<svg version="1.1"
	 xmlns="http://www.w3.org/2000/svg" xmlns:xlink="http://www.w3.org/1999/xlink" xmlns:a="http://ns.adobe.com/AdobeSVGViewerExtensions/3.0/"
	 x="0px" y="0px" width="142px" height="142px" viewBox="-13.591 -2.309 142 142" enable-background="new -13.591 -2.309 142 142"
	 xml:space="preserve">
<defs>
</defs>
<path fill-rule="evenodd" clip-rule="evenodd" fill="#1A1A1A" d="M47.447,0.322c0.386-0.635,1.94-0.104,2.788-0.278
	c-0.121,0.623-1.374,0.113-1.952,0.278c-0.093,0-0.185,0-0.278,0C47.818,0.322,47.632,0.322,47.447,0.322z"/>
<path fill-rule="evenodd" clip-rule="evenodd" fill="#1A1A1A" d="M53.3,0.322c0-0.092,0-0.186,0-0.278
	c0.441,0.023,1.063-0.134,1.115,0.278c-0.279,0-0.557,0-0.836,0C53.486,0.322,53.393,0.322,53.3,0.322z"/>
<path fill-rule="evenodd" clip-rule="evenodd" fill="#1A1A1A" d="M47.447,3.11c0.052-0.413,0.674-0.256,1.115-0.279
	C48.51,3.244,47.888,3.086,47.447,3.11z"/>
<path fill-rule="evenodd" clip-rule="evenodd" fill="#1A1A1A" d="M59.432,5.061c0.379,0.086,0.231,0.698,0.278,1.115
	C59.298,6.124,59.455,5.502,59.432,5.061z"/>
<path fill-rule="evenodd" clip-rule="evenodd" fill="#1A1A1A" d="M42.43,15.931c0.184-2.603-0.37-5.944,0.279-8.083
	c0,2.787,0,5.574,0,8.361c-0.093,0-0.186,0-0.279,0C42.43,16.116,42.43,16.023,42.43,15.931z"/>
<path fill-rule="evenodd" clip-rule="evenodd" fill="#1A1A1A" d="M39.921,8.684c0,2.043,0,4.087,0,6.131
	C39.458,13.416,39.458,10.083,39.921,8.684z"/>
<path fill-rule="evenodd" clip-rule="evenodd" fill="#1A1A1A" d="M62.496,10.914c6.133,0.185,13.007-0.371,18.674,0.279
	C75.04,11.007,68.164,11.563,62.496,10.914z"/>
<path fill-rule="evenodd" clip-rule="evenodd" fill="#1A1A1A" d="M62.496,13.701c1.395,0,2.789,0,4.182,0c0.278,0,0.557,0,0.837,0
	c0.928,0,1.857,0,2.787,0c0.278,0,0.557,0,0.835,0c1.673,0,3.346,0,5.017,0c0.093,0,0.187,0,0.279,0c0.372,0,0.743,0,1.115,0
	c0.187,0,0.371,0,0.558,0c0.939,0.176,2.588-0.359,3.064,0.279C75.04,13.794,68.164,14.351,62.496,13.701z"/>
<path fill-rule="evenodd" clip-rule="evenodd" fill="#1A1A1A" d="M84.237,17.324c0.093,0,0.187,0,0.278,0c0,0.093,0,0.186,0,0.279
	c-0.184,1.953,0.369,4.641-0.278,6.131C84.237,21.598,84.237,19.46,84.237,17.324z"/>
<path fill-rule="evenodd" clip-rule="evenodd" fill="#1A1A1A" d="M39.921,18.439c0.093,0,0.186,0,0.279,0c0,0.092,0,0.186,0,0.279
	c0,0.464,0,0.929,0,1.393c0,0.093,0,0.186,0,0.279c0,0.186,0,0.372,0,0.557c0,0.093,0,0.186,0,0.279c0,0.278,0,0.557,0,0.836
	C39.56,21.402,40.101,19.561,39.921,18.439z"/>
<path fill-rule="evenodd" clip-rule="evenodd" fill="#1A1A1A" d="M42.709,19.832c0.641,0.66,0.1,2.502,0.278,3.623
	C42.346,22.796,42.888,20.954,42.709,19.832z"/>
<path fill-rule="evenodd" clip-rule="evenodd" fill="#1A1A1A" d="M87.024,22.619c0-0.929,0-1.858,0-2.787
	C87.485,20.133,87.485,22.319,87.024,22.619z"/>
<path fill-rule="evenodd" clip-rule="evenodd" fill="#1A1A1A" d="M87.024,25.128c-0.173,0.756,0.353,2.212-0.278,2.508
	c0-0.279,0-0.557,0-0.836c0-0.092,0-0.186,0-0.278C86.898,26.116,86.419,25.081,87.024,25.128z"/>
<path fill-rule="evenodd" clip-rule="evenodd" fill="#1A1A1A" d="M40.201,25.407c0.641,0.66,0.1,2.501,0.278,3.623
	C39.838,28.37,40.379,26.528,40.201,25.407z"/>
<path fill-rule="evenodd" clip-rule="evenodd" fill="#1A1A1A" d="M84.237,25.964c0,0.186,0,0.372,0,0.558
	c-0.166,0.578,0.345,1.831-0.28,1.951C84.131,27.716,83.604,26.261,84.237,25.964z"/>
<path fill-rule="evenodd" clip-rule="evenodd" fill="#1A1A1A" d="M42.987,29.866c0-1.022,0-2.043,0-3.066
	c0.641,0.66,0.1,2.502,0.279,3.623c-0.17-0.015-0.33-0.042-0.279-0.278C42.987,30.052,42.987,29.959,42.987,29.866z"/>
<path fill-rule="evenodd" clip-rule="evenodd" fill="#1A1A1A" d="M86.467,31.817c0.165-0.578-0.344-1.831,0.279-1.951
	C86.579,30.444,87.09,31.697,86.467,31.817z"/>
<path fill-rule="evenodd" clip-rule="evenodd" fill="#1A1A1A" d="M83.957,30.423c-0.164,0.578,0.345,1.832-0.278,1.952
	C83.845,31.797,83.336,30.543,83.957,30.423z"/>
<path fill-rule="evenodd" clip-rule="evenodd" fill="#1A1A1A" d="M40.479,32.931c0.464,1.955,0.464,5.85,0,7.805
	C40.479,38.134,40.479,35.533,40.479,32.931z"/>
<path fill-rule="evenodd" clip-rule="evenodd" fill="#1A1A1A" d="M86.467,33.211c-0.151,0.404,0.325,1.44-0.28,1.393
	C86.341,34.199,85.862,33.164,86.467,33.211z"/>
<path fill-rule="evenodd" clip-rule="evenodd" fill="#1A1A1A" d="M83.679,33.768c-0.046,0.417,0.1,1.029-0.278,1.115
	C83.448,34.466,83.302,33.854,83.679,33.768z"/>
<path fill-rule="evenodd" clip-rule="evenodd" fill="#1A1A1A" d="M43.266,34.883c0.463,0.846,0.463,3.613,0,4.459
	C43.266,37.856,43.266,36.369,43.266,34.883z"/>
<path fill-rule="evenodd" clip-rule="evenodd" fill="#1A1A1A" d="M86.187,35.719c-0.021,0.441,0.135,1.063-0.278,1.114
	C85.956,36.417,85.811,35.805,86.187,35.719z"/>
<path fill-rule="evenodd" clip-rule="evenodd" fill="#1A1A1A" d="M83.4,35.998c-0.047,0.417,0.1,1.028-0.279,1.115
	C83.17,36.696,83.021,36.083,83.4,35.998z"/>
<path fill-rule="evenodd" clip-rule="evenodd" fill="#1A1A1A" d="M11.214,38.228c-0.199-0.452,1.314-0.452,1.115,0
	C11.958,38.228,11.586,38.228,11.214,38.228z"/>
<path fill-rule="evenodd" clip-rule="evenodd" fill="#1A1A1A" d="M2.853,45.474c0.183-1.861-0.368-4.456,0.279-5.854
	c0,13.378,0,26.756,0,40.135c-0.641-0.66-0.1-2.503-0.279-3.624c0-0.278,0-0.558,0-0.836c0-2.229,0-4.46,0-6.689
	c0-0.186,0-0.372,0-0.558c0-3.716,0-7.433,0-11.148c0-0.279,0-0.557,0-0.836c0-1.579,0-3.159,0-4.738c0-0.093,0-0.186,0-0.278
	c0-1.487,0-2.973,0-4.46c0-0.093,0-0.186,0-0.278c0-0.186,0-0.372,0-0.558C2.853,45.66,2.853,45.567,2.853,45.474z"/>
<path fill-rule="evenodd" clip-rule="evenodd" fill="#1A1A1A" d="M0.345,39.899c0,0.558,0,1.115,0,1.673
	C-0.113,41.618-0.113,39.854,0.345,39.899z"/>
<path fill-rule="evenodd" clip-rule="evenodd" fill="#1A1A1A" d="M43.266,42.129c-0.152,0.405,0.326,1.441-0.279,1.394
	C43.14,43.118,42.662,42.082,43.266,42.129z"/>
<path fill-rule="evenodd" clip-rule="evenodd" fill="#1A1A1A" d="M40.479,42.408c-0.152,0.404,0.326,1.44-0.278,1.393
	C40.353,43.396,39.875,42.361,40.479,42.408z"/>
<path fill-rule="evenodd" clip-rule="evenodd" fill="#1A1A1A" d="M17.346,44.359c-0.153,0.405,0.326,1.44-0.279,1.394
	C17.22,45.348,16.742,44.312,17.346,44.359z"/>
<path fill-rule="evenodd" clip-rule="evenodd" fill="#1A1A1A" d="M42.709,45.752c0.047-0.417-0.1-1.028,0.278-1.115
	C42.94,45.055,43.087,45.667,42.709,45.752z"/>
<path fill-rule="evenodd" clip-rule="evenodd" fill="#1A1A1A" d="M40.201,44.916c-0.048,0.417,0.1,1.029-0.279,1.115
	C39.945,45.59,39.788,44.968,40.201,44.916z"/>
<path fill-rule="evenodd" clip-rule="evenodd" fill="#1A1A1A" d="M42.43,47.982c0.047-0.417-0.1-1.029,0.279-1.115
	C42.661,47.284,42.809,47.896,42.43,47.982z"/>
<path fill-rule="evenodd" clip-rule="evenodd" fill="#1A1A1A" d="M39.365,50.491c-0.048,0.417,0.099,1.028-0.28,1.115
	C39.109,51.165,38.952,50.542,39.365,50.491z"/>
<path fill-rule="evenodd" clip-rule="evenodd" fill="#1A1A1A" d="M41.873,52.163c-0.048,0.417,0.099,1.029-0.279,1.115
	C41.642,52.861,41.494,52.249,41.873,52.163z"/>
<path fill-rule="evenodd" clip-rule="evenodd" fill="#1A1A1A" d="M39.085,52.441c-0.047,0.417,0.1,1.029-0.278,1.115
	C38.83,53.115,38.673,52.493,39.085,52.441z"/>
<path fill-rule="evenodd" clip-rule="evenodd" fill="#1A1A1A" d="M41.315,56.064c0.153-0.404-0.326-1.44,0.279-1.393
	C41.442,55.076,41.919,56.112,41.315,56.064z"/>
<path fill-rule="evenodd" clip-rule="evenodd" fill="#1A1A1A" d="M81.729,54.95c0.014-0.17,0.04-0.33,0.278-0.278
	c-0.024,0.441,0.134,1.063-0.278,1.115c0-0.093,0-0.186,0-0.278C81.729,55.321,81.729,55.136,81.729,54.95z"/>
<path fill-rule="evenodd" clip-rule="evenodd" fill="#1A1A1A" d="M38.807,54.95c0,1.301,0,2.602,0,3.902
	C38.344,58.189,38.344,55.613,38.807,54.95z"/>
<path fill-rule="evenodd" clip-rule="evenodd" fill="#1A1A1A" d="M81.729,56.622c-0.024,0.441,0.132,1.063-0.281,1.115
	C81.497,57.32,81.351,56.708,81.729,56.622z"/>
<path fill-rule="evenodd" clip-rule="evenodd" fill="#1A1A1A" d="M78.94,56.901c-0.046,0.417,0.101,1.029-0.278,1.115
	C78.71,57.599,78.562,56.987,78.94,56.901z"/>
<path fill-rule="evenodd" clip-rule="evenodd" fill="#1A1A1A" d="M12.05,57.18c-0.023,0.441,0.134,1.063-0.278,1.115
	C11.819,57.877,11.672,57.266,12.05,57.18z"/>
<path fill-rule="evenodd" clip-rule="evenodd" fill="#1A1A1A" d="M9.264,57.458c0,0.186,0,0.372,0,0.558c0,0.185,0,0.371,0,0.557
	c0,0.65,0,1.3,0,1.951C8.802,60.134,8.802,57.849,9.264,57.458z"/>
<path fill-rule="evenodd" clip-rule="evenodd" fill="#888888" d="M46.89,58.294c0.372,0,0.743,0,1.115,0c0,0.464,0,0.929,0,1.394
	c0,0.372,0,0.743,0,1.115c0,0.093,0,0.186,0,0.278c-0.465,0-0.929,0-1.394,0C47.105,60.554,46.814,59.241,46.89,58.294z"/>
<path fill-rule="evenodd" clip-rule="evenodd" fill="#1A1A1A" d="M81.17,60.245c0.154-0.404-0.324-1.44,0.278-1.393
	C81.297,59.257,81.775,60.292,81.17,60.245z"/>
<path fill-rule="evenodd" clip-rule="evenodd" fill="#1A1A1A" d="M11.772,59.409c0.378,0.086,0.231,0.698,0.278,1.115
	C11.638,60.473,11.795,59.851,11.772,59.409z"/>
<path fill-rule="evenodd" clip-rule="evenodd" fill="#1A1A1A" d="M78.662,59.409c-0.046,0.417,0.1,1.029-0.278,1.115
	C78.432,60.107,78.283,59.496,78.662,59.409z"/>
<path fill-rule="evenodd" clip-rule="evenodd" fill="#1A1A1A" d="M48.004,59.688c0.093,0,0.186,0,0.278,0c0,0.372,0,0.743,0,1.115
	c-0.093,0-0.185,0-0.278,0C48.004,60.431,48.004,60.06,48.004,59.688z"/>
<path fill-rule="evenodd" clip-rule="evenodd" fill="#888888" d="M37.971,60.803c0.372,0,0.743,0,1.114,0c0.558,0,1.116,0,1.672,0
	c0.093,0,0.187,0,0.279,0c0.464,0,0.929,0,1.394,0c1.208,0,2.416,0,3.623,0c0,0.093,0,0.186,0,0.278
	C43.45,60.897,40.109,61.451,37.971,60.803z"/>
<path fill-rule="evenodd" clip-rule="evenodd" fill="#1A1A1A" d="M50.513,61.082c0-0.093,0-0.186,0-0.278
	c0.756,0.172,2.212-0.354,2.508,0.278C52.185,61.082,51.349,61.082,50.513,61.082z"/>
<path fill-rule="evenodd" clip-rule="evenodd" fill="#1A1A1A" d="M65.005,61.639c0.757,0.172,2.214-0.354,2.51,0.278
	C66.758,61.745,65.301,62.271,65.005,61.639z"/>
<path fill-rule="evenodd" clip-rule="evenodd" fill="#1A1A1A" d="M69.186,61.917c0.417,0.048,1.03-0.1,1.116,0.279
	C69.885,62.149,69.272,62.296,69.186,61.917z"/>
<path fill-rule="evenodd" clip-rule="evenodd" fill="#1A1A1A" d="M71.137,62.196c0.417,0.047,1.03-0.1,1.116,0.279
	C71.834,62.428,71.224,62.575,71.137,62.196z"/>
<path fill-rule="evenodd" clip-rule="evenodd" fill="#1A1A1A" d="M74.202,62.753c-0.416-0.047-1.027,0.1-1.113-0.278
	C73.505,62.522,74.116,62.375,74.202,62.753z"/>
<path fill-rule="evenodd" clip-rule="evenodd" fill="#1A1A1A" d="M77.826,63.312c-0.416-0.048-1.027,0.1-1.113-0.279
	C77.129,63.08,77.74,62.933,77.826,63.312z"/>
<path fill-rule="evenodd" clip-rule="evenodd" fill="#1A1A1A" d="M0.345,63.312c0,0.371,0,0.743,0,1.114
	C-0.107,64.625-0.107,63.112,0.345,63.312z"/>
<path fill-rule="evenodd" clip-rule="evenodd" fill="#888888" d="M32.954,63.59c2.048-0.464,6.036-0.464,8.083,0
	C38.342,63.59,35.648,63.59,32.954,63.59z"/>
<path fill-rule="evenodd" clip-rule="evenodd" fill="#888888" d="M46.61,63.869c0-0.093,0-0.187,0-0.279c0.465,0,0.929,0,1.394,0
	c0,0.743,0,1.487,0,2.23c0,0.093,0,0.185,0,0.278s0,0.186,0,0.279c-0.372,0-0.743,0-1.115,0c-0.218-0.062-0.324-0.233-0.279-0.557
	C46.61,65.169,46.61,64.519,46.61,63.869z"/>
<path fill-rule="evenodd" clip-rule="evenodd" fill="#888888" d="M51.07,63.869c0-0.093,0-0.187,0-0.279
	c1.213,0.18,3.15-0.363,3.902,0.279c-0.372,0-0.743,0-1.115,0c-0.093,0-0.186,0-0.279,0C52.742,63.869,51.906,63.869,51.07,63.869z"
	/>
<path fill-rule="evenodd" clip-rule="evenodd" fill="#1A1A1A" d="M66.121,64.426c0.576,0.166,1.831-0.344,1.951,0.279
	C67.495,64.539,66.241,65.049,66.121,64.426z"/>
<path fill-rule="evenodd" clip-rule="evenodd" fill="#1A1A1A" d="M87.303,64.983c0.491,0.16,1.637-0.337,1.673,0.278
	C88.484,65.102,87.337,65.599,87.303,64.983z"/>
<path fill-rule="evenodd" clip-rule="evenodd" fill="#1A1A1A" d="M91.763,65.262c3.066,0.186,6.873-0.37,9.476,0.28
	c-2.508,0-5.017,0-7.524,0c-0.465,0-0.93,0-1.395,0C92.103,65.479,91.771,65.533,91.763,65.262z"/>
<path fill-rule="evenodd" clip-rule="evenodd" fill="#1A1A1A" d="M104.304,65.82c-0.405-0.153-1.44,0.326-1.393-0.278
	C103.315,65.693,104.352,65.215,104.304,65.82z"/>
<path fill-rule="evenodd" clip-rule="evenodd" fill="#1A1A1A" d="M48.004,66.098c0-0.093,0-0.186,0-0.278c0.093,0,0.186,0,0.278,0
	c1.122,0.179,2.964-0.362,3.624,0.278C50.605,66.098,49.305,66.098,48.004,66.098z"/>
<path fill-rule="evenodd" clip-rule="evenodd" fill="#1A1A1A" d="M53.578,66.098c0.121-0.623,1.374-0.113,1.952-0.278
	C55.41,66.443,54.156,65.933,53.578,66.098z"/>
<path fill-rule="evenodd" clip-rule="evenodd" fill="#1A1A1A" d="M105.698,65.82c0.44,0.023,1.063-0.134,1.113,0.278
	C106.396,66.051,105.784,66.198,105.698,65.82z"/>
<path fill-rule="evenodd" clip-rule="evenodd" fill="#1A1A1A" d="M108.206,66.098c0.44,0.023,1.063-0.134,1.114,0.279
	C108.903,66.33,108.292,66.477,108.206,66.098z"/>
<path fill-rule="evenodd" clip-rule="evenodd" fill="#1A1A1A" d="M46.89,66.377c0.372,0,0.743,0,1.115,0
	C48.204,66.829,46.69,66.829,46.89,66.377z"/>
<path fill-rule="evenodd" clip-rule="evenodd" fill="#1A1A1A" d="M110.715,66.377c0.44,0.023,1.063-0.134,1.115,0.279
	C111.411,66.608,110.801,66.755,110.715,66.377z"/>
<path fill-rule="evenodd" clip-rule="evenodd" fill="#1A1A1A" d="M83.4,67.213c-0.279,0-0.558,0-0.836,0
	C81.503,67.053,83.65,66.561,83.4,67.213z"/>
<path fill-rule="evenodd" clip-rule="evenodd" fill="#1A1A1A" d="M85.63,67.492c0.442,0.023,1.063-0.134,1.116,0.279
	C86.329,67.723,85.716,67.87,85.63,67.492z"/>
<path fill-rule="evenodd" clip-rule="evenodd" fill="#888888" d="M62.777,67.771c0.41,0.052,0.254,0.674,0.278,1.115
	C62.643,68.834,62.799,68.212,62.777,67.771z"/>
<path fill-rule="evenodd" clip-rule="evenodd" fill="#1A1A1A" d="M87.859,67.771c0.577,0.166,1.831-0.345,1.951,0.279
	C89.234,67.883,87.979,68.394,87.859,67.771z"/>
<path fill-rule="evenodd" clip-rule="evenodd" fill="#1A1A1A" d="M79.778,68.049c0.853-0.048-0.125,1.613-0.279,0.558
	C79.716,68.545,79.822,68.374,79.778,68.049z"/>
<path fill-rule="evenodd" clip-rule="evenodd" fill="#1A1A1A" d="M92.876,68.049c2.976,0.185,6.688-0.37,9.198,0.279
	C99.101,68.144,95.387,68.698,92.876,68.049z"/>
<path fill-rule="evenodd" clip-rule="evenodd" fill="#1A1A1A" d="M103.468,68.328c0.405,0.152,1.44-0.326,1.393,0.279
	C104.456,68.454,103.42,68.933,103.468,68.328z"/>
<path fill-rule="evenodd" clip-rule="evenodd" fill="#888888" d="M60.267,68.607c0.379,0.086,0.232,0.698,0.28,1.115
	c-0.094,0-0.186,0-0.28,0C60.267,69.35,60.267,68.978,60.267,68.607z"/>
<path fill-rule="evenodd" clip-rule="evenodd" fill="#1A1A1A" d="M105.977,68.607c0.404,0.152,1.44-0.326,1.395,0.278
	C106.964,68.733,105.929,69.211,105.977,68.607z"/>
<path fill-rule="evenodd" clip-rule="evenodd" fill="#1A1A1A" d="M108.484,68.885c0.278,0,0.558,0,0.836,0c0.187,0,0.372,0,0.559,0
	c0,0.093,0,0.186,0,0.279C109.473,69.012,108.437,69.49,108.484,68.885z"/>
<path fill-rule="evenodd" clip-rule="evenodd" fill="#1A1A1A" d="M85.073,69.722c-0.441-0.022-1.064,0.134-1.116-0.279
	C84.376,69.491,84.986,69.343,85.073,69.722z"/>
<path fill-rule="evenodd" clip-rule="evenodd" fill="#1A1A1A" d="M88.138,70c0.419,0.048,1.03-0.1,1.116,0.279
	C88.813,70.256,88.19,70.413,88.138,70z"/>
<path fill-rule="evenodd" clip-rule="evenodd" fill="#333333" d="M63.056,70.279c0.092,0,0.185,0,0.278,0c0,0.465,0,0.929,0,1.394
	c-0.094,0-0.187,0-0.278,0C63.056,71.208,63.056,70.744,63.056,70.279z"/>
<path fill-rule="evenodd" clip-rule="evenodd" fill="#1A1A1A" d="M90.09,70.279c0.404,0.152,1.44-0.326,1.394,0.278
	C91.079,70.405,90.043,70.884,90.09,70.279z"/>
<path fill-rule="evenodd" clip-rule="evenodd" fill="#1A1A1A" d="M92.319,70.558c0.404,0.152,1.44-0.326,1.395,0.278
	C93.307,70.684,92.273,71.162,92.319,70.558z"/>
<path fill-rule="evenodd" clip-rule="evenodd" fill="#1A1A1A" d="M116.568,70.558c0.377,0.086,0.23,0.697,0.278,1.115
	C116.435,71.621,116.591,70.999,116.568,70.558z"/>
<path fill-rule="evenodd" clip-rule="evenodd" fill="#1A1A1A" d="M60.267,70.836c0.095,0,0.187,0,0.28,0c0,1.394,0,2.788,0,4.182
	C59.903,74.174,60.447,72.143,60.267,70.836z"/>
<path fill-rule="evenodd" clip-rule="evenodd" fill="#1A1A1A" d="M95.943,71.116c-0.442-0.024-1.063,0.133-1.116-0.28
	C95.244,70.885,95.857,70.737,95.943,71.116z"/>
<path fill-rule="evenodd" clip-rule="evenodd" fill="#888888" d="M63.056,71.673c0.092,0,0.185,0,0.278,0c0,2.229,0,4.459,0,6.689
	C62.687,76.687,63.237,73.812,63.056,71.673z"/>
<path fill-rule="evenodd" clip-rule="evenodd" fill="#1A1A1A" d="M86.187,72.508c0.419,0.049,1.03-0.099,1.116,0.279
	C86.862,72.765,86.239,72.922,86.187,72.508z"/>
<path fill-rule="evenodd" clip-rule="evenodd" fill="#1A1A1A" d="M88.417,72.787c0.418,0.048,1.029-0.099,1.115,0.279
	C89.092,73.043,88.469,73.2,88.417,72.787z"/>
<path fill-rule="evenodd" clip-rule="evenodd" fill="#1A1A1A" d="M82.843,73.066c-0.176,0.938,0.359,2.589-0.278,3.065
	C82.741,75.193,82.206,73.544,82.843,73.066z"/>
<path fill-rule="evenodd" clip-rule="evenodd" fill="#1A1A1A" d="M90.646,73.066c0.419,0.048,1.029-0.1,1.116,0.278
	C91.321,73.321,90.698,73.479,90.646,73.066z"/>
<path fill-rule="evenodd" clip-rule="evenodd" fill="#1A1A1A" d="M92.876,73.345c0.419,0.048,1.03-0.1,1.116,0.279
	C93.552,73.6,92.928,73.757,92.876,73.345z"/>
<path fill-rule="evenodd" clip-rule="evenodd" fill="#1A1A1A" d="M95.105,73.624c0.419,0.047,1.03-0.101,1.116,0.278
	C95.781,73.88,95.158,74.036,95.105,73.624z"/>
<path fill-rule="evenodd" clip-rule="evenodd" fill="#1A1A1A" d="M80.057,74.459c0,0.187,0,0.372,0,0.559c0,0.186,0,0.371,0,0.557
	c-0.049,0.417,0.1,1.029-0.278,1.115C79.946,76.023,79.428,74.668,80.057,74.459z"/>
<path fill-rule="evenodd" clip-rule="evenodd" fill="#888888" d="M60.547,75.296c0.647,2.603,0.093,6.41,0.278,9.476
	c-0.094,0-0.186,0-0.278,0c0-0.836,0-1.671,0-2.508c0-0.093,0-0.187,0-0.278C60.547,79.756,60.547,77.525,60.547,75.296z"/>
<path fill-rule="evenodd" clip-rule="evenodd" fill="#888888" d="M18.74,77.804c0.047-0.416-0.1-1.028,0.278-1.114
	C18.971,77.107,19.118,77.718,18.74,77.804z"/>
<path fill-rule="evenodd" clip-rule="evenodd" fill="#888888" d="M21.526,77.525c0,0.372,0,0.743,0,1.115c-0.093,0-0.186,0-0.278,0
	C21.271,78.199,21.114,77.577,21.526,77.525z"/>
<path fill-rule="evenodd" clip-rule="evenodd" fill="#1A1A1A" d="M82.286,78.362c0-0.278,0-0.559,0-0.837c0.092,0,0.187,0,0.278,0
	c-0.023,0.441,0.135,1.063-0.278,1.115C82.286,78.548,82.286,78.454,82.286,78.362z"/>
<path fill-rule="evenodd" clip-rule="evenodd" fill="#888888" d="M18.46,79.476c0.016-0.169,0.042-0.329,0.279-0.278
	c-0.17,0.667,0.35,2.022-0.279,2.23C18.46,80.777,18.46,80.127,18.46,79.476z"/>
<path fill-rule="evenodd" clip-rule="evenodd" fill="#888888" d="M21.248,80.87c0,0.65,0,1.301,0,1.95
	c-0.016,0.171-0.042,0.331-0.279,0.28C21.139,82.433,20.619,81.078,21.248,80.87z"/>
<path fill-rule="evenodd" clip-rule="evenodd" fill="#1A1A1A" d="M25.15,81.985c0.405,0.152,1.44-0.325,1.394,0.278
	C26.139,82.111,25.103,82.589,25.15,81.985z"/>
<path fill-rule="evenodd" clip-rule="evenodd" fill="#1A1A1A" d="M54.972,82.264c1.305-0.646,3.805-0.096,5.575-0.278
	c0,0.092,0,0.186,0,0.278c-0.186,0-0.372,0-0.559,0c-0.557,0-1.114,0-1.671,0c-0.744,0-1.487,0-2.23,0c-0.278,0-0.557,0-0.836,0
	C55.158,82.264,55.065,82.264,54.972,82.264z"/>
<path fill-rule="evenodd" clip-rule="evenodd" fill="#1A1A1A" d="M63.334,82.264c0-0.093,0-0.187,0-0.278c4.087,0,8.176,0,12.263,0
	c-0.659,0.641-2.502,0.1-3.622,0.278c-0.094,0-0.187,0-0.28,0c-2.509,0-5.017,0-7.525,0C63.891,82.264,63.612,82.264,63.334,82.264z
	"/>
<path fill-rule="evenodd" clip-rule="evenodd" fill="#1A1A1A" d="M18.46,82.82c0,0.465,0,0.93,0,1.395c-0.092,0-0.185,0-0.278,0
	C18.334,83.81,17.856,82.773,18.46,82.82z"/>
<path fill-rule="evenodd" clip-rule="evenodd" fill="#1A1A1A" d="M25.429,84.771c2.51,0.185,5.758-0.369,7.804,0.279
	C30.723,84.866,27.475,85.42,25.429,84.771z"/>
<path fill-rule="evenodd" clip-rule="evenodd" fill="#1A1A1A" d="M44.102,85.051c1.121-0.646,3.434-0.097,5.017-0.279
	c0.093,0,0.187,0,0.28,0c1.672,0,3.344,0,5.016,0c0.093,0,0.186,0,0.279,0c0.557,0,1.114,0,1.672,0c0.278,0,0.557,0,0.836,0
	c1.115,0,2.229,0,3.345,0c0,0.094,0,0.187,0,0.279C55.065,85.051,49.583,85.051,44.102,85.051z"/>
<path fill-rule="evenodd" clip-rule="evenodd" fill="#333333" d="M60.547,85.051c0-0.093,0-0.186,0-0.279c0.093,0,0.185,0,0.278,0
	c0,0.558,0,1.115,0,1.673c-0.094,0-0.186,0-0.278,0C60.547,85.98,60.547,85.516,60.547,85.051z"/>
<path fill-rule="evenodd" clip-rule="evenodd" fill="#1A1A1A" d="M63.612,85.051c0.016-0.171,0.042-0.33,0.278-0.279
	c0.093,0,0.187,0,0.278,0c0.095,0,0.187,0,0.279,0c3.624,0,7.246,0,10.87,0C71.973,85.421,67.421,84.865,63.612,85.051z"/>
<path fill-rule="evenodd" clip-rule="evenodd" fill="#323232" d="M60.547,86.444c0.093,0,0.185,0,0.278,0c0,0.371,0,0.743,0,1.114
	c-0.094,0-0.186,0-0.278,0C60.547,87.188,60.547,86.815,60.547,86.444z"/>
<path fill-rule="evenodd" clip-rule="evenodd" fill="#1A1A1A" d="M2.853,89.231c0.17-0.666-0.35-2.022,0.279-2.229
	c0,3.158,0,6.317,0,9.476c-0.642-0.751-0.099-2.688-0.279-3.901c0-0.279,0-0.558,0-0.836c0-0.744,0-1.487,0-2.23
	C2.853,89.417,2.853,89.323,2.853,89.231z"/>
<path fill-rule="evenodd" clip-rule="evenodd" fill="#323232" d="M18.182,87.002c0.093,0,0.186,0,0.278,0c0,1.021,0,2.043,0,3.065
	c-0.092,0-0.185,0-0.278,0C18.182,89.045,18.182,88.023,18.182,87.002z"/>
<path fill-rule="evenodd" clip-rule="evenodd" fill="#323232" d="M20.969,88.116c0.093,0,0.186,0,0.279,0c0,0.65,0,1.301,0,1.951
	c-0.093,0-0.186,0-0.279,0C20.969,89.417,20.969,88.767,20.969,88.116z"/>
<path fill-rule="evenodd" clip-rule="evenodd" fill="#888888" d="M60.825,89.51c0.461,0.212,0.461,2.297,0,2.509
	C60.825,91.183,60.825,90.347,60.825,89.51z"/>
<path fill-rule="evenodd" clip-rule="evenodd" fill="#333333" d="M18.182,90.067c0.093,0,0.186,0,0.278,0c0,0.465,0,0.929,0,1.394
	c-0.092,0-0.185,0-0.278,0C18.182,90.996,18.182,90.532,18.182,90.067z"/>
<path fill-rule="evenodd" clip-rule="evenodd" fill="#1A1A1A" d="M20.969,90.067c0.093,0,0.186,0,0.279,0c0,0.558,0,1.115,0,1.673
	c-0.093,0-0.186,0-0.279,0C20.969,91.183,20.969,90.625,20.969,90.067z"/>
<path fill-rule="evenodd" clip-rule="evenodd" fill="#323232" d="M18.182,91.461c0.093,0,0.186,0,0.278,0c0,0.558,0,1.115,0,1.672
	c-0.092,0-0.185,0-0.278,0C18.182,92.576,18.182,92.019,18.182,91.461z"/>
<path fill-rule="evenodd" clip-rule="evenodd" fill="#323232" d="M20.969,91.74c0.093,0,0.186,0,0.279,0c0,0.557,0,1.114,0,1.673
	c-0.093,0-0.186,0-0.279,0C20.969,92.854,20.969,92.297,20.969,91.74z"/>
<path fill-rule="evenodd" clip-rule="evenodd" fill="#1A1A1A" d="M0.345,92.854c0,0.094,0,0.186,0,0.278c0,0.094,0,0.187,0,0.28
	c0,0.092,0,0.185,0,0.278c0,0.278,0,0.557,0,0.835c0,0.187,0,0.372,0,0.559C-0.115,94.96-0.115,92.979,0.345,92.854z"/>
<path fill-rule="evenodd" clip-rule="evenodd" fill="#1A1A1A" d="M18.182,93.133c0.093,0,0.186,0,0.278,0c0,1.58,0,3.159,0,4.738
	c-0.092,0-0.185,0-0.278,0c-0.216-0.062-0.549-0.007-0.558-0.278C18.842,97.487,17.864,94.239,18.182,93.133z"/>
<path fill-rule="evenodd" clip-rule="evenodd" fill="#333333" d="M20.969,93.413c0.093,0,0.186,0,0.279,0c0,1.672,0,3.343,0,5.016
	c-0.093,0-0.186,0-0.279,0C20.969,96.756,20.969,95.085,20.969,93.413z"/>
<path fill-rule="evenodd" clip-rule="evenodd" fill="#888888" d="M54.136,97.593c0-0.093,0-0.187,0-0.278c1.022,0,2.044,0,3.066,0
	C56.725,97.952,55.074,97.416,54.136,97.593z"/>
<path fill-rule="evenodd" clip-rule="evenodd" fill="#888888" d="M14.28,100.381c0-0.651,0-1.302,0-1.952c1.394,0,2.787,0,4.18,0
	c0,0.65,0,1.301,0,1.952c-0.371,0-0.743,0-1.114,0C16.324,100.381,15.302,100.381,14.28,100.381z"/>
<path fill-rule="evenodd" clip-rule="evenodd" fill="#888888" d="M20.969,98.429c0.093,0,0.186,0,0.279,0c1.301,0,2.601,0,3.902,0
	c0,0.65,0,1.301,0,1.952c-1.214,0.179-3.151-0.364-3.902,0.278c-0.093,0-0.186,0-0.279,0C20.969,99.915,20.969,99.173,20.969,98.429
	z"/>
<path fill-rule="evenodd" clip-rule="evenodd" fill="#1A1A1A" d="M3.411,100.101c0.578,0.167,1.831-0.344,1.951,0.28
	C4.784,100.214,3.531,100.724,3.411,100.101z"/>
<path fill-rule="evenodd" clip-rule="evenodd" fill="#1A1A1A" d="M8.427,100.381c0.843-0.645,2.875-0.1,4.181-0.28
	c0.404,0.152,1.44-0.325,1.393,0.28C12.144,100.381,10.285,100.381,8.427,100.381z"/>
<path fill-rule="evenodd" clip-rule="evenodd" fill="#1A1A1A" d="M43.545,100.381c0-0.094,0-0.187,0-0.28c3.902,0,7.804,0,11.706,0
	C51.905,100.75,47.355,100.194,43.545,100.381z"/>
<path fill-rule="evenodd" clip-rule="evenodd" fill="#333333" d="M20.969,100.659c0.093,0,0.186,0,0.279,0c0,1.858,0,3.715,0,5.573
	c-0.093,0-0.186,0-0.279,0C20.969,104.374,20.969,102.518,20.969,100.659z"/>
<path fill-rule="evenodd" clip-rule="evenodd" fill="#1A1A1A" d="M18.182,101.494c0.093,0,0.186,0,0.278,0c0,0.65,0,1.302,0,1.951
	c-0.092,0-0.185,0-0.278,0C18.182,102.796,18.182,102.145,18.182,101.494z"/>
<path fill-rule="evenodd" clip-rule="evenodd" fill="#323232" d="M18.182,103.445c0.093,0,0.186,0,0.278,0c0,0.558,0,1.115,0,1.672
	c-0.092,0-0.185,0-0.278,0C18.182,104.561,18.182,104.003,18.182,103.445z"/>
<path fill-rule="evenodd" clip-rule="evenodd" fill="#888888" d="M36.577,104.282c0.093,0,0.186,0,0.279,0c0,3.251,0,6.503,0,9.755
	c-0.093,0-0.186,0-0.279,0c0-0.094,0-0.187,0-0.279C36.577,110.599,36.577,107.44,36.577,104.282z"/>
<path fill-rule="evenodd" clip-rule="evenodd" fill="#888888" d="M39.365,107.905c0,1.021,0,2.044,0,3.066
	C38.902,110.581,38.902,108.295,39.365,107.905z"/>
<path fill-rule="evenodd" clip-rule="evenodd" fill="#333333" d="M20.969,111.25c0.093,0,0.186,0,0.279,0c0,4.83,0,9.661,0,14.492
	c-0.093,0-0.186,0-0.279,0C20.969,120.911,20.969,116.08,20.969,111.25z"/>
<path fill-rule="evenodd" clip-rule="evenodd" fill="#323232" d="M18.182,117.103c0.093,0,0.186,0,0.278,0c0,2.601,0,5.202,0,7.804
	c-0.092,0-0.185,0-0.278,0C18.182,122.305,18.182,119.703,18.182,117.103z"/>
<path fill-rule="evenodd" clip-rule="evenodd" fill="#888888" d="M38.528,121.283c0.464,2.326,0.464,6.593,0,8.919
	C38.528,127.229,38.528,124.256,38.528,121.283z"/>
<path fill-rule="evenodd" clip-rule="evenodd" fill="#1A1A1A" d="M30.724,121.562c0,2.509,0,5.018,0,7.525
	C30.26,127.226,30.26,123.424,30.724,121.562z"/>
<path fill-rule="evenodd" clip-rule="evenodd" fill="#323232" d="M20.969,125.742c0.093,0,0.186,0,0.279,0c0,0.465,0,0.929,0,1.394
	c-0.093,0-0.186,0-0.279,0C20.969,126.671,20.969,126.207,20.969,125.742z"/>
<path fill-rule="evenodd" clip-rule="evenodd" fill="#888888" d="M26.543,133.825c0.093,0,0.186,0,0.279,0c0.929,0,1.858,0,2.787,0
	C29.219,134.287,26.934,134.287,26.543,133.825z"/>
<path fill-rule="evenodd" clip-rule="evenodd" fill="#1A1A1A" d="M41.594,3.388c0.346-0.583,0.811-1.047,1.394-1.394
	C42.642,2.578,42.177,3.042,41.594,3.388z"/>
<path fill-rule="evenodd" clip-rule="evenodd" fill="#888888" d="M24.593,66.098c0.626-0.86,1.369-1.604,2.229-2.229
	C26.196,64.729,25.453,65.472,24.593,66.098z"/>
<path fill-rule="evenodd" clip-rule="evenodd" fill="#1A1A1A" d="M0.902,98.429c0.583,0.346,1.048,0.811,1.394,1.394
	C1.713,99.476,1.249,99.012,0.902,98.429z"/>
<path fill-rule="evenodd" clip-rule="evenodd" fill="#1A1A1A" d="M39.643,137.17c0.412,0.322,0.702,0.322,1.114,0
	c-0.078,0.646-0.744,0.642-1.114,0.278C39.643,137.355,39.643,137.262,39.643,137.17z"/>
<path fill-rule="evenodd" clip-rule="evenodd" fill="#888888" d="M39.643,134.382c-0.029,1.196,2.4,2.095,1.114,2.788
	c-0.412,0.322-0.702,0.322-1.114,0c-0.463-0.559-0.748-1.296-1.672-1.394C38.563,135.347,39.009,134.77,39.643,134.382z"/>
<path fill-rule="evenodd" clip-rule="evenodd" fill="#888888" d="M60.547,98.986c0.249,0.958,0.678,1.736,1.114,2.508
	c-0.192,0.551-0.743,0.743-1.395,0.837c-0.5-0.8-0.733-1.867-1.393-2.509c0.116-0.627,1.529,0.042,1.393-0.836
	C60.361,98.986,60.453,98.986,60.547,98.986z"/>
<path fill-rule="evenodd" clip-rule="evenodd" fill="#333333" d="M60.825,98.986c0.251-0.491,0.623-0.862,1.114-1.115
	C61.688,98.363,61.316,98.734,60.825,98.986z"/>
<path fill-rule="evenodd" clip-rule="evenodd" fill="#1A1A1A" d="M61.383,10.635c-0.491-0.252-0.863-0.624-1.116-1.115
	C60.76,9.772,61.13,10.144,61.383,10.635z"/>
<path fill-rule="evenodd" clip-rule="evenodd" fill="#1A1A1A" d="M58.317,2.552c-0.492-0.252-0.863-0.624-1.115-1.115
	C57.693,1.689,58.065,2.061,58.317,2.552z"/>
<path fill-rule="evenodd" clip-rule="evenodd" fill="#888888" d="M60.267,63.033c0.583,0.346,1.048,0.811,1.395,1.393
	C61.078,64.08,60.613,63.616,60.267,63.033z"/>
<path fill-rule="evenodd" clip-rule="evenodd" fill="#1A1A1A" d="M58.038,11.192c0.583,0.346,1.047,0.811,1.394,1.394
	C58.849,12.24,58.384,11.775,58.038,11.192z"/>
<path fill-rule="evenodd" clip-rule="evenodd" fill="#1A1A1A" d="M55.25,3.388c0.492,0.252,0.864,0.624,1.115,1.115
	C55.874,4.251,55.502,3.88,55.25,3.388z"/>
<path fill-rule="evenodd" clip-rule="evenodd" fill="#1A1A1A" d="M43.545,5.339c0.347-0.583,0.81-1.048,1.394-1.394
	C44.593,4.529,44.128,4.993,43.545,5.339z"/>
<path fill-rule="evenodd" clip-rule="evenodd" fill="#333333" d="M46.61,58.294c0.093,0,0.186,0,0.279,0
	c-0.076,0.946,0.216,2.26-0.279,2.787c-0.185,0-0.371,0-0.557,0c0-0.093,0-0.186,0-0.278C47.184,60.911,46.36,59.066,46.61,58.294z"
	/>
<path fill-rule="evenodd" clip-rule="evenodd" fill="#1A1A1A" d="M3.132,39.342c0.066-0.398,0.459-0.47,0.558-0.836
	c0.17-0.016,0.33-0.042,0.279-0.278c0.186,0,0.372,0,0.557,0C4.076,38.613,3.643,39.017,3.132,39.342z"/>
<path fill-rule="evenodd" clip-rule="evenodd" fill="#1A1A1A" d="M4.247,97.593c-0.697,0.047-0.873-0.428-1.115-0.837
	C3.503,97.036,3.973,97.216,4.247,97.593z"/>
<path fill-rule="evenodd" clip-rule="evenodd" fill="#323232" d="M46.61,58.294c0.035-0.616,1.183-0.119,1.672-0.278
	c0,0.557,0,1.114,0,1.672c-0.093,0-0.185,0-0.278,0c0-0.464,0-0.929,0-1.394c-0.372,0-0.743,0-1.115,0
	C46.796,58.294,46.704,58.294,46.61,58.294z"/>
<path fill-rule="evenodd" clip-rule="evenodd" fill="#888888" d="M20.412,135.776c-0.413-0.517-1.44-0.417-1.394-1.395
	C19.602,134.729,20.066,135.192,20.412,135.776z"/>
<path fill-rule="evenodd" clip-rule="evenodd" fill="#888888" d="M26.822,67.492c0.346-0.583,0.811-1.047,1.394-1.394
	C27.87,66.681,27.405,67.146,26.822,67.492z"/>
<path fill-rule="evenodd" clip-rule="evenodd" fill="#888888" d="M37.971,99.822c0.346-0.583,0.811-1.048,1.394-1.394
	C39.018,99.012,38.554,99.476,37.971,99.822z"/>
<path fill-rule="evenodd" clip-rule="evenodd" fill="#1A1A1A" d="M23.199,81.428c-0.647-0.188-0.746-0.926-1.394-1.115
	c0-0.094,0-0.186,0-0.278C22.388,80.38,22.853,80.845,23.199,81.428z"/>
<path fill-rule="evenodd" clip-rule="evenodd" fill="#1A1A1A" d="M82.564,67.771c0.605-0.046,0.126,0.989,0.278,1.394
	c0.171,0.016,0.331,0.042,0.278,0.278C82.41,69.412,82.568,68.51,82.564,67.771z"/>
<path fill-rule="evenodd" clip-rule="evenodd" fill="#333333" d="M20.969,83.101c0.237,0.051,0.263-0.109,0.279-0.28
	c0.933,0.576,0.243,0.245,0,0.559c0,0.465,0,0.929,0,1.393c-0.093,0-0.186,0-0.279,0C20.969,84.215,20.969,83.657,20.969,83.101z"/>
<path fill-rule="evenodd" clip-rule="evenodd" fill="#1A1A1A" d="M29.052,118.218c0.252-0.492,0.624-0.863,1.115-1.115
	C29.915,117.594,29.543,117.966,29.052,118.218z"/>
<path fill-rule="evenodd" clip-rule="evenodd" fill="#1A1A1A" d="M25.15,98.429c0.576,0.24,0.294,1.939,0,2.23
	c-1.301,0-2.601,0-3.902,0c0.751-0.643,2.688-0.1,3.902-0.278C25.15,99.729,25.15,99.079,25.15,98.429z"/>
<path fill-rule="evenodd" clip-rule="evenodd" fill="#333333" d="M57.202,95.363c-0.541,0.111-0.407-1.27,0.278-0.837
	C57.333,94.751,57.19,94.979,57.202,95.363z"/>
<path fill-rule="evenodd" clip-rule="evenodd" fill="#1A1A1A" d="M31.003,120.168c0.252-0.49,0.623-0.862,1.115-1.115
	C31.866,119.545,31.494,119.917,31.003,120.168z"/>
<path fill-rule="evenodd" clip-rule="evenodd" fill="#888888" d="M36.298,133.547c0.194-1.495-1.38-1.222-1.393-2.508
	c0.53-0.121,0.7-0.602,1.393-0.559c0.397,0.719,0.653,1.577,1.672,1.672C37.638,132.843,37.017,133.243,36.298,133.547z"/>
<path fill-rule="evenodd" clip-rule="evenodd" fill="#333333" d="M36.856,115.151c0-0.371,0-0.743,0-1.114c-0.093,0-0.186,0-0.279,0
	c0-0.094,0-0.187,0-0.279c-0.093,0-0.186,0-0.279,0c-0.342,2.816-4.738,1.579-6.131,3.345c-0.252,0.491-0.624,0.863-1.115,1.115
	c-0.727,0.945-1.282,2.063-1.114,3.901c-0.46,0.123-0.46,2.105,0,2.23c-0.416,3.115,1.013,8.072-1.115,9.476
	c0.929,0,1.858,0,2.787,0c0.279,0,0.558,0,0.836,0c0.487-1.185,0.208-3.138,0.279-4.738c-0.464-1.861-0.464-5.663,0-7.525
	c-0.114-0.671,0.509-0.606,0.279-1.394c0.252-0.49,0.623-0.862,1.115-1.115c1.992-0.33,3.888-0.756,5.296-1.671
	C37.487,116.378,36.898,116.038,36.856,115.151z"/>
<path fill-rule="evenodd" clip-rule="evenodd" fill="#888888" d="M31.839,61.082c0.035-0.615,1.182-0.119,1.672-0.278
	C33.477,61.419,32.329,60.921,31.839,61.082z"/>
<path fill-rule="evenodd" clip-rule="evenodd" fill="#333333" d="M48.283,60.803c0.743,0,1.487,0,2.23,0c0,0.093,0,0.186,0,0.278
	c-0.836,0-1.672,0-2.508,0c0-0.093,0-0.186,0-0.278C48.098,60.803,48.19,60.803,48.283,60.803z"/>
<path fill-rule="evenodd" clip-rule="evenodd" fill="#FFFFFF" d="M53.021,61.082c2.673-0.257,4.309,0.522,6.131,1.115
	c0.274,0.376,0.744,0.557,1.114,0.836c0.347,0.583,0.812,1.047,1.395,1.393c0.016,0.17,0.042,0.33,0.278,0.279
	c0.148,0.224,0.291,0.452,0.278,0.836c0.249,0.681,0.649,1.208,0.56,2.229c0.021,0.442-0.135,1.063,0.278,1.115
	c0,0.465,0,0.929,0,1.394s0,0.929,0,1.394c0.182,2.139-0.369,5.014,0.278,6.689c0,1.207,0,2.415,0,3.623c0,0.092,0,0.186,0,0.278
	c0,1.672,0,3.345,0,5.017c0,2.229,0,4.46,0,6.689c0.082,1.848-0.709,2.821-1.395,3.901c-0.491,0.253-0.863,0.624-1.114,1.115
	c-0.094,0-0.186,0-0.278,0c-0.094,0-0.186,0-0.28,0c0.137,0.878-1.276,0.209-1.393,0.836c-0.094,0-0.187,0-0.278,0
	c-0.49,0.16-1.638-0.337-1.673,0.278c-0.557,0-1.115,0-1.672,0c-3.902,0-7.804,0-11.706,0c-0.441,0.023-1.063-0.134-1.115,0.28
	c-1.937,0.013-2.779,1.121-2.787,3.064c-0.378,0.087-0.231,0.698-0.278,1.115c0,1.115,0,2.229,0,3.345
	c-0.462,0.39-0.462,2.676,0,3.066c-0.46,3.896,1.365,5.509,1.672,8.64c0.178,1.029-0.361,2.776,0.278,3.345c0,2.229,0,4.458,0,6.688
	c-0.616,0.035-0.118,1.183-0.278,1.673c-0.238,1.248-0.579,2.394-1.394,3.064c-0.634,0.388-1.08,0.965-1.672,1.395
	c-0.723,0.299-1.367,0.678-2.509,0.558c-0.464,0-0.929,0-1.393,0c-4.088,0-8.176,0-12.263,0c-0.692,0.042-1.157-0.145-1.394-0.558
	c-0.346-0.584-0.811-1.048-1.394-1.395c-0.486-0.255-0.615-0.871-0.558-1.672c0-2.601,0-5.202,0-7.804s0-5.203,0-7.804
	c0-3.994,0-7.99,0-11.985c0-0.557,0-1.114,0-1.672c0-0.649,0-1.301,0-1.951c0-0.37,0-0.743,0-1.113c0-0.651,0-1.302,0-1.952
	c0-0.186,0-0.371,0-0.558c0-1.579,0-3.158,0-4.738c0-0.557,0-1.114,0-1.672c0-0.465,0-0.929,0-1.394c0-1.022,0-2.044,0-3.065
	c0-0.929,0-1.858,0-2.787c0-0.465,0-0.93,0-1.395s0-0.929,0-1.393c0.629-0.208,0.109-1.563,0.279-2.23c0-0.278,0-0.557,0-0.835
	c0-0.187,0-0.372,0-0.559c0.378-0.086,0.231-0.696,0.278-1.114c0-0.278,0-0.558,0-0.836c-0.001-0.279,0.226-0.332,0.279-0.558
	c0-0.093,0-0.186,0-0.278c1.16-3.579,3.126-6.351,5.296-8.919c0.86-0.626,1.604-1.369,2.229-2.229
	c1.311-1.291,2.776-2.427,5.017-2.788c0.489-0.16,1.637,0.337,1.672-0.278c1.486,0,2.973,0,4.459,0
	c2.139,0.648,5.479,0.094,8.083,0.278c0.186,0,0.372,0,0.557,0c0.465,0,0.929,0,1.394,0c0.836,0,1.672,0,2.508,0
	S52.185,61.082,53.021,61.082z M32.954,63.59c-2.108,0.307-3.24,1.591-4.738,2.508c-0.583,0.346-1.047,0.811-1.394,1.394
	c-2.019,3.092-4.516,5.705-5.296,10.034c-0.412,0.052-0.255,0.674-0.278,1.115c0,0.557,0,1.115,0,1.672c0,0.187,0,0.371,0,0.558
	c-0.629,0.208-0.109,1.563-0.279,2.23c0,0.557,0,1.114,0,1.671c0,1.115,0,2.23,0,3.345c0,0.65,0,1.301,0,1.951
	c0,0.558,0,1.115,0,1.673c0,0.557,0,1.114,0,1.673c0,1.672,0,3.343,0,5.016c0,0.744,0,1.486,0,2.23c0,1.858,0,3.715,0,5.573
	c0,1.673,0,3.345,0,5.018c0,4.83,0,9.661,0,14.492c0,0.465,0,0.929,0,1.394c0.182,1.491-0.366,3.711,0.279,4.738
	c-0.23,0.788,0.393,0.723,0.278,1.395c1.085,0.773,3.19,0.525,5.017,0.557c0.39,0.462,2.675,0.462,3.066,0c0.279,0,0.558,0,0.836,0
	c1.301,0,2.601,0,3.902,0c0.417-0.047,1.028,0.1,1.114-0.278c0.279,0,0.558,0,0.836,0c0.718-0.304,1.34-0.704,1.672-1.395
	c0.047-0.789,0.511-1.161,0.558-1.95c0.464-2.326,0.464-6.593,0-8.919c0.173-1.753-0.801-2.358-0.836-3.901
	c-0.093,0-0.186,0-0.278,0c0.074-1.004-0.515-1.344-0.558-2.23c0-0.371,0-0.743,0-1.114c0-3.252,0-6.504,0-9.755
	c0-0.558,0-1.115,0-1.673c0.333-0.968,0.436-2.165,1.115-2.787c0.583-0.347,1.047-0.811,1.394-1.394
	c0.666-0.448,1.312-0.917,2.508-0.836c4.087,0,8.175,0,12.263,0c0.938-0.177,2.589,0.359,3.066-0.278c0.185,0,0.371,0,0.557,0
	c1.042,0.019,1.597-0.448,1.951-1.115c0.332-0.783,0.627-1.603,0.837-2.508c0.615-0.035,0.118-1.184,0.278-1.673
	c0.461-0.212,0.461-2.297,0-2.509c0-0.649,0-1.3,0-1.951c0-0.371,0-0.743,0-1.114c0-0.558,0-1.115,0-1.673
	c-0.186-3.065,0.369-6.873-0.278-9.476c0-0.093,0-0.186,0-0.278c0-1.394,0-2.788,0-4.182c0-0.371,0-0.743,0-1.114
	c-0.048-0.417,0.099-1.028-0.28-1.115c-0.146-1.526-0.622-2.721-1.671-3.345c0-0.093,0-0.185,0-0.278
	c-0.816,0.073-0.857-0.63-1.673-0.558c-0.015-0.17-0.042-0.33-0.279-0.278c-0.853,0.202-0.819-0.481-1.672-0.278
	c-0.751-0.643-2.688-0.1-3.902-0.279c-1.022,0-2.044,0-3.066,0c-0.465,0-0.929,0-1.394,0c-0.278,0-0.557,0-0.836,0
	c-1.579,0-3.159,0-4.738,0C38.989,63.125,35.001,63.125,32.954,63.59z"/>
<path fill-rule="evenodd" clip-rule="evenodd" fill="#333333" d="M60.267,70.836c0-0.371,0-0.743,0-1.114c0.095,0,0.187,0,0.28,0
	c0,0.371,0,0.743,0,1.114C60.453,70.836,60.361,70.836,60.267,70.836z"/>
<path fill-rule="evenodd" clip-rule="evenodd" fill="#333333" d="M41.037,63.59c1.419,1.182,2.822,2.381,5.574,2.23
	c0-0.651,0-1.301,0-1.951c0-0.093,0-0.187,0-0.279c-0.278,0-0.557,0-0.836,0C44.195,63.59,42.616,63.59,41.037,63.59z"/>
<path fill-rule="evenodd" clip-rule="evenodd" fill="#333333" d="M56.644,64.147c-0.853,0.202-0.819-0.481-1.672-0.278
	c-0.372,0-0.743,0-1.115,0c-0.093,0-0.186,0-0.279,0c-0.836,0-1.672,0-2.508,0c0-0.093,0-0.187,0-0.279c-1.022,0-2.044,0-3.066,0
	c0,0.743,0,1.487,0,2.23c0.093,0,0.186,0,0.278,0c1.122,0.179,2.964-0.362,3.624,0.278c0.558,0,1.115,0,1.672,0
	c0.121-0.623,1.374-0.113,1.952-0.278c1.325,0.117,2.01-0.405,3.066-0.558c0-0.093,0-0.185,0-0.278
	c-0.816,0.073-0.857-0.63-1.673-0.558C56.908,64.256,56.881,64.096,56.644,64.147z"/>
<path fill-rule="evenodd" clip-rule="evenodd" fill="#333333" d="M116.568,70.558c-0.549-2.332-2.1-3.662-4.738-3.902
	c-0.419-0.048-1.029,0.1-1.115-0.279c-0.465,0-0.93,0-1.395,0c-0.417-0.047-1.028,0.1-1.114-0.279c-0.465,0-0.93,0-1.395,0
	c-0.416-0.047-1.027,0.1-1.113-0.278c-0.465,0-0.93,0-1.395,0c-0.405-0.153-1.44,0.326-1.393-0.278c-0.559,0-1.116,0-1.673,0
	c-2.508,0-5.017,0-7.524,0c-0.465,0-0.93,0-1.395,0c-0.217-0.063-0.549-0.008-0.557-0.28c-0.744,0-1.487,0-2.23,0
	c-0.092,0-0.187,0-0.278,0c-0.094,0-0.187,0-0.278,0c-0.491-0.16-1.639,0.337-1.673-0.278c-1.751-0.199-3.224-0.677-5.017-0.836
	c-0.092,0-0.187,0-0.278,0c-0.114-0.537-1.082-0.22-0.838-1.115c0-0.464,0-0.929,0-1.394c0-0.465,0-0.929,0-1.394
	c0.154-0.404-0.324-1.44,0.278-1.393c0-0.372,0-0.743,0-1.115c0.049-0.417-0.098-1.028,0.281-1.115c0-0.278,0-0.558,0-0.836
	c0-0.093,0-0.186,0-0.278c0-0.187,0-0.372,0-0.558c0.014-0.17,0.04-0.33,0.278-0.278c0.545-6.702,3.149-11.344,3.9-17.838
	c0.048-0.417-0.098-1.028,0.278-1.114c0-0.372,0-0.743,0-1.116c0.154-0.404-0.324-1.44,0.28-1.393c0-0.465,0-0.93,0-1.394
	c0.165-0.578-0.344-1.831,0.279-1.951c0-0.743,0-1.487,0-2.229c0-0.279,0-0.557,0-0.836c0-0.092,0-0.186,0-0.278
	c0.152-0.405-0.327-1.44,0.278-1.394c0-0.836,0-1.673,0-2.509c0-0.929,0-1.858,0-2.787c0.435-5.266-1.491-8.171-5.854-8.64
	c-6.13-0.185-13.006,0.371-18.674-0.279c-0.526,0.063-0.614-0.314-1.113-0.279c-0.491-0.252-0.863-0.624-1.116-1.115
	c-0.239-1.061-0.754-1.847-0.557-3.345c-0.412-0.051-0.255-0.673-0.278-1.115c0.012-1.22-0.696-1.719-1.115-2.508
	c-0.492-0.252-0.863-0.624-1.115-1.115c-0.848-0.454-1.374-1.228-2.788-1.115c-0.279,0-0.557,0-0.836,0c-0.092,0-0.185,0-0.278,0
	c0-0.092,0-0.186,0-0.278c-1.022,0-2.044,0-3.065,0c-0.121,0.623-1.374,0.113-1.952,0.278c-0.093,0-0.185,0-0.278,0
	c-0.186,0-0.372,0-0.558,0c-2.084-0.04-3.241,0.847-4.459,1.672c-0.346,0.583-0.811,1.048-1.394,1.394
	c-0.972,1.351-1.879,2.766-1.672,5.296c0,2.043,0,4.087,0,6.131c0,1.208,0,2.416,0,3.624c0.093,0,0.186,0,0.279,0
	c0,0.092,0,0.186,0,0.279c0,0.464,0,0.929,0,1.393c0,0.093,0,0.186,0,0.279c0,0.186,0,0.372,0,0.557c0,0.093,0,0.186,0,0.279
	c0,0.278,0,0.557,0,0.836c0,1.115,0,2.229,0,3.345c0.641,0.66,0.1,2.501,0.278,3.623c0,1.301,0,2.602,0,3.901
	c0.464,1.955,0.464,5.85,0,7.805c0,0.557,0,1.115,0,1.672c-0.152,0.404,0.326,1.44-0.278,1.393c0,0.372,0,0.743,0,1.115
	c-0.048,0.417,0.1,1.029-0.279,1.115c-0.038,1.634-0.65,2.694-0.557,4.459c-0.048,0.417,0.099,1.028-0.28,1.115
	c0,0.279,0,0.557,0,0.836c-0.047,0.417,0.1,1.029-0.278,1.115c0,0.464,0,0.929,0,1.393c0,1.301,0,2.602,0,3.902
	c-0.223,0.966,0.416,1.071,0.278,1.951c0.558,0,1.116,0,1.672,0c0.093,0,0.187,0,0.279,0c0.464,0,0.929,0,1.394,0
	c-0.728-1.224-1.194-2.708-1.115-4.739c0.153-0.404-0.326-1.44,0.279-1.393c0-0.279,0-0.558,0-0.836c0-0.187,0-0.372,0-0.558
	c0.048-0.417-0.1-1.029,0.279-1.115c0.131-1.448,0.628-2.53,0.557-4.18c0.047-0.417-0.1-1.029,0.279-1.115c0-0.372,0-0.743,0-1.115
	c0.047-0.417-0.1-1.028,0.278-1.115c0-0.372,0-0.743,0-1.115c0.152-0.405-0.326-1.441,0.279-1.394c0-0.929,0-1.857,0-2.787
	c0-1.486,0-2.973,0-4.459c0-1.487,0-2.973,0-4.46c-0.17-0.015-0.33-0.042-0.279-0.278c0-0.093,0-0.186,0-0.279
	c0-1.022,0-2.043,0-3.066c0-1.115,0-2.229,0-3.345c-0.641-0.659-0.1-2.501-0.278-3.623c0-0.093,0-0.186,0-0.278
	c0-0.093,0-0.186,0-0.279c0-1.021,0-2.043,0-3.065c-0.093,0-0.186,0-0.279,0c0-0.093,0-0.186,0-0.278
	c0.184-2.603-0.37-5.944,0.279-8.083c0.022-1.093,0.491-1.738,0.836-2.508c0.347-0.583,0.81-1.048,1.394-1.394
	c0.878,0.135,0.631-0.855,1.672-0.558c0-0.093,0-0.186,0-0.278c0.093,0,0.186,0,0.279,0c0.186,0,0.372,0,0.557,0
	c0.052-0.413,0.674-0.256,1.115-0.279c2.375,0.04,5.073-0.242,6.688,0.558c0.492,0.252,0.864,0.624,1.115,1.115
	c0.907,1.88,0.249,5.326,1.672,6.689c0.583,0.346,1.047,0.811,1.394,1.394c0.829,0.563,1.633,1.156,3.064,1.115
	c1.395,0,2.789,0,4.182,0c0.278,0,0.557,0,0.837,0c0.928,0,1.857,0,2.787,0c0.278,0,0.557,0,0.835,0c1.673,0,3.346,0,5.017,0
	c0.093,0,0.187,0,0.279,0c0.372,0,0.743,0,1.115,0c0.187,0,0.371,0,0.558,0c0.939,0.176,2.588-0.359,3.064,0.279
	c1.724,0.414,2.865,1.409,3.067,3.344c0.093,0,0.187,0,0.278,0c0,0.093,0,0.186,0,0.279c-0.184,1.953,0.369,4.641-0.278,6.131
	c0,0.743,0,1.486,0,2.229c0,0.186,0,0.372,0,0.558c-0.166,0.578,0.345,1.831-0.28,1.951c0,0.65,0,1.301,0,1.951
	c-0.164,0.578,0.345,1.832-0.278,1.952c0,0.464,0,0.929,0,1.393c-0.046,0.417,0.1,1.029-0.278,1.115c0,0.372,0,0.743,0,1.115
	c-0.047,0.417,0.1,1.028-0.279,1.115c-0.366,2.048-0.976,3.855-1.392,5.853c0,0.093,0,0.186,0,0.279
	c-1.252,2.744-1.939,6.052-2.23,9.755c0,0.093,0,0.186,0,0.279c-0.448,0.945-0.572,2.216-0.559,3.623
	c-0.046,0.417,0.101,1.029-0.278,1.115c0,0.278,0,0.557,0,0.836c0,0.186,0,0.372,0,0.557c-0.046,0.417,0.1,1.029-0.278,1.115
	c-0.175,0.847,0.356,2.4-0.278,2.787c-0.093,0-0.187,0-0.279,0c-0.416-0.048-1.027,0.1-1.113-0.279
	c-0.918-0.012-1.389-0.471-2.511-0.279c-0.416-0.047-1.027,0.1-1.113-0.278c-0.187,0-0.371,0-0.558,0c-0.094,0-0.186,0-0.278,0
	c-0.419-0.047-1.029,0.1-1.116-0.279c-0.278,0-0.557,0-0.835,0c-0.417-0.047-1.029,0.1-1.116-0.279c-0.557,0-1.113,0-1.671,0
	c-0.757-0.172-2.214,0.354-2.51-0.278c-2.105,0.031-4.483-0.211-5.853,0.557c0.274,0.376,0.744,0.557,1.114,0.836
	c0.583,0.346,1.048,0.811,1.395,1.393c0.016,0.17,0.042,0.33,0.278,0.279c0.569-0.64,2.314-0.102,3.346-0.279
	c0.278,0,0.557,0,0.836,0c0.576,0.166,1.831-0.344,1.951,0.279c2.323,0.348,4.575,0.47,6.968,0.836
	c2.016,0.308,4.796,0.388,4.738,2.508c0.853-0.048-0.125,1.613-0.279,0.558c-4.156-1.14-8.146-2.446-12.543-3.345
	c-0.092,0-0.185,0-0.278,0c-1.324-0.85-3.197,0.14-4.46,0.28c0.249,0.681,0.649,1.208,0.56,2.229
	c0.41,0.052,0.254,0.674,0.278,1.115c0,0.465,0,0.929,0,1.394c0.092,0,0.185,0,0.278,0c-0.206-1.414,0.691-1.725,1.114-2.509
	c5.016,0.651,8.999,2.337,13.657,3.346c0.092,0,0.186,0,0.278,0c0.282,0.46,1.184,0.301,1.673,0.557c0,0.929,0,1.858,0,2.786
	c0,0.187,0,0.372,0,0.559c0,0.186,0,0.371,0,0.557c-0.049,0.417,0.1,1.029-0.278,1.115c-0.148,3.012-1.423,4.896-4.182,5.296
	c-0.659,0.641-2.502,0.1-3.622,0.278c-0.094,0-0.187,0-0.28,0c-2.509,0-5.017,0-7.525,0c-0.062,0.218-0.232,0.324-0.557,0.278
	c0.032,0.804-0.152,1.825,0.278,2.229c0.093,0,0.187,0,0.278,0c0.095,0,0.187,0,0.279,0c3.624,0,7.246,0,10.87,0
	c4.103-0.262,6.373-2.359,6.968-6.131c0-0.093,0-0.187,0-0.278c0-0.278,0-0.559,0-0.837c0.092,0,0.187,0,0.278,0
	c0-0.465,0-0.929,0-1.394c0.177-0.938-0.358-2.588,0.278-3.065c0.032-1.876,2.048-0.035,3.344-0.559
	c0.419,0.049,1.03-0.099,1.116,0.279c0.37,0,0.743,0,1.114,0c0.418,0.048,1.029-0.099,1.115,0.279c0.278,0,0.558,0,0.836,0
	c0.094,0,0.186,0,0.278,0c0.419,0.048,1.029-0.1,1.116,0.278c0.37,0,0.743,0,1.113,0c0.419,0.048,1.03-0.1,1.116,0.279
	c0.37,0,0.743,0,1.113,0c0.419,0.047,1.03-0.101,1.116,0.278c5.872,0.816,9.851,3.527,16.723,3.345
	c0.607-0.354,1.201-0.72,1.743-1.139c0.146-0.047,0.229-0.116,0.253-0.197c0.001-0.001,0.001-0.001,0.001-0.001
	c1.113-0.935,1.924-2.171,1.905-4.237C116.435,71.621,116.591,70.999,116.568,70.558z M111.271,74.459
	c-1.389,0.204-3.44-0.468-4.738-0.835c-3.72-1.056-6.671-2.133-8.919-2.229c-0.044-0.327-0.507-0.235-0.836-0.278
	c-0.186,0-0.372,0-0.557,0c-0.094,0-0.187,0-0.278,0c-0.442-0.024-1.063,0.133-1.116-0.28c-0.37,0-0.743,0-1.113,0
	c-0.407-0.152-1.44,0.326-1.395-0.278c-0.278,0-0.557,0-0.836,0c-0.404-0.152-1.44,0.326-1.394-0.278c-0.279,0-0.558,0-0.836,0
	c-0.44-0.023-1.063,0.134-1.116-0.279c-1.149,0.035-1.744-0.484-3.064-0.278c-0.441-0.022-1.064,0.134-1.116-0.279
	c-0.278,0-0.557,0-0.836,0c-0.711-0.031-0.553-0.933-0.557-1.672c0-0.186,0-0.372,0-0.558c-1.062-0.16,1.086-0.652,0.836,0
	c0.669,0.169,1.271,0.401,2.229,0.279c0.442,0.023,1.063-0.134,1.116,0.279c0.37,0,0.743,0,1.113,0
	c0.577,0.166,1.831-0.345,1.951,0.279c1.022,0,2.044,0,3.065,0c2.976,0.185,6.688-0.37,9.198,0.279c0.464,0,0.929,0,1.394,0
	c0.405,0.152,1.44-0.326,1.393,0.279c0.373,0,0.743,0,1.116,0c0.404,0.152,1.44-0.326,1.395,0.278c0.37,0,0.743,0,1.113,0
	c0.278,0,0.558,0,0.836,0c0.187,0,0.372,0,0.559,0c0,0.093,0,0.186,0,0.279c2.346,0.174,4.061,0.655,4.18,2.508
	C114.175,73.472,112.822,74.233,111.271,74.459z"/>
<path fill-rule="evenodd" clip-rule="evenodd" fill="#333333" d="M12.05,60.524c-0.412-0.052-0.255-0.674-0.278-1.115
	c0-0.186,0-0.372,0-0.557c0-0.186,0-0.372,0-0.558c0.047-0.417-0.1-1.029,0.278-1.115c1.075-4.407,4.596-6.368,5.017-11.427
	c0.152-0.405-0.326-1.441,0.279-1.394c0.433-4.973-0.439-7.798-3.345-8.919c-3.828,0.354-9.185-0.823-11.706,0.836
	c-0.583,0.346-1.047,0.811-1.394,1.394c-0.317,0.611-0.719,1.138-0.557,2.229c0,0.558,0,1.115,0,1.673c0,1.021,0,2.043,0,3.065
	c0,0.093,0,0.186,0,0.278c0,5.017,0,10.034,0,15.051c0,0.093,0,0.186,0,0.278c0.058,1.773-0.454,1.689,0,3.066
	c0,0.371,0,0.743,0,1.114c0.062,0.527-0.314,0.616-0.279,1.116c0.17,0.015,0.33,0.041,0.279,0.278c-0.155-0.001-0.316,0.226,0,0.278
	c0,2.044,0,4.088,0,6.131c0,0.278,0,0.558,0,0.837c-0.1,4.74,0.07,13.297,0,19.788c0,0.094,0,0.186,0,0.278c0,0.094,0,0.187,0,0.28
	c0,0.092,0,0.185,0,0.278c0,0.278,0,0.557,0,0.835c0,0.187,0,0.372,0,0.559c-0.054,1.354-0.063,2.664,0.557,3.344
	c0.583,0.346,1.048,0.811,1.394,1.394c0.377,0.088,0.532,0.396,1.115,0.278c0.578,0.167,1.831-0.344,1.951,0.28
	c1.022,0,2.044,0,3.066,0c0.843-0.645,2.875-0.1,4.181-0.28c0.404,0.152,1.44-0.325,1.393,0.28c0.093,0,0.186,0,0.279,0
	c0-0.651,0-1.302,0-1.952c1.394,0,2.787,0,4.18,0c0-0.186,0-0.371,0-0.558c-0.092,0-0.185,0-0.278,0
	c-0.216-0.062-0.549-0.007-0.558-0.278c-1.208,0-2.415,0-3.623,0c-0.186,0-0.372,0-0.557,0c-3.066,0-6.132,0-9.198,0
	c-0.697,0.047-0.873-0.428-1.115-0.837c0-0.092,0-0.185,0-0.278c-0.642-0.751-0.099-2.688-0.279-3.901c0-0.279,0-0.558,0-0.836
	c0-0.744,0-1.487,0-2.23c0-0.093,0-0.187,0-0.278c0.17-0.666-0.35-2.022,0.279-2.229c0-2.416,0-4.831,0-7.246
	c-0.641-0.66-0.1-2.503-0.279-3.624c0-0.278,0-0.558,0-0.836c0-2.229,0-4.46,0-6.689c0-0.186,0-0.372,0-0.558
	c0-3.716,0-7.433,0-11.148c0-0.279,0-0.557,0-0.836c0-1.579,0-3.159,0-4.738c0-0.093,0-0.186,0-0.278c0-1.487,0-2.973,0-4.46
	c0-0.093,0-0.186,0-0.278c0-0.186,0-0.372,0-0.558c0-0.093,0-0.186,0-0.278c0.183-1.861-0.368-4.456,0.279-5.854
	c0-0.093,0-0.185,0-0.278c0.066-0.398,0.459-0.47,0.558-0.836c0.17-0.016,0.33-0.042,0.279-0.278c0.186,0,0.372,0,0.557,0
	c2.23,0,4.459,0,6.689,0c-0.199-0.452,1.314-0.452,1.115,0c0.877-0.134,1.089,0.396,1.672,0.557
	c2.24,7.048-1.675,10.898-3.623,14.772c-0.685,1.36-1.26,2.254-1.115,3.901c0,0.186,0,0.372,0,0.558c0,0.185,0,0.371,0,0.557
	c0,0.65,0,1.3,0,1.951c-0.055,1.887,0.922,3.467,1.672,5.017c1.587,3.278,3.197,6.085,4.738,8.917
	c0.818,1.505,1.414,3.127,2.508,4.46c0.063,0.217,0.007,0.55,0.278,0.557c0.016-0.169,0.042-0.329,0.279-0.278
	c0-0.278,0-0.557,0-0.835c0-0.187,0-0.372,0-0.559c0.047-0.416-0.1-1.028,0.278-1.114c0-0.278,0-0.558,0-0.836
	c-0.001-0.279,0.226-0.332,0.279-0.558c0-0.093,0-0.186,0-0.278c-1.51-2.174-2.696-4.529-3.902-6.968
	C14.219,65.67,12.772,63.288,12.05,60.524z"/>
<path fill-rule="evenodd" clip-rule="evenodd" fill="#333333" d="M59.988,82.264c-0.557,0-1.114,0-1.671,0c-0.744,0-1.487,0-2.23,0
	c-0.278,0-0.557,0-0.836,0c-0.093,0-0.186,0-0.278,0c-1.579,0-3.159,0-4.738,0c-0.093,0-0.186,0-0.279,0c-0.743,0-1.486,0-2.229,0
	c-0.186,0-0.372,0-0.557,0c-0.558,0-1.115,0-1.672,0c-0.093,0-0.187,0-0.279,0c-5.296,0-10.591,0-15.887,0c-0.093,0-0.186,0-0.279,0
	c-0.836,0-1.672,0-2.508,0c-0.405-0.152-1.44,0.325-1.394-0.278c-1.019,0.184-1.069-0.604-1.951-0.558
	c-0.647-0.188-0.746-0.926-1.394-1.115c0-0.094,0-0.186,0-0.278c0.045-0.325-0.062-0.496-0.279-0.559c0-0.278,0-0.557,0-0.835
	c-0.093,0-0.186,0-0.278,0c0,0.557,0,1.115,0,1.672c0,0.187,0,0.371,0,0.558c0,0.65,0,1.301,0,1.95c0.933,0.576,0.243,0.245,0,0.559
	c1.127,0.73,2.179,1.536,4.181,1.393c2.51,0.185,5.758-0.369,7.804,0.279c3.623,0,7.246,0,10.869,0
	c1.121-0.646,3.434-0.097,5.017-0.279c0.093,0,0.187,0,0.28,0c1.672,0,3.344,0,5.016,0c0.093,0,0.186,0,0.279,0
	c0.557,0,1.114,0,1.672,0c0.278,0,0.557,0,0.836,0c1.115,0,2.229,0,3.345,0c0-0.836,0-1.671,0-2.508
	C60.361,82.264,60.175,82.264,59.988,82.264z"/>
<path fill-rule="evenodd" clip-rule="evenodd" fill="#333333" d="M63.891,84.771c-0.236-0.051-0.263,0.108-0.278,0.279
	c0,0.744,0,1.486,0,2.229c-0.092,0-0.187,0-0.278,0c0-1.672,0-3.345,0-5.017c0.278,0,0.557,0,0.835,0
	c-0.062,0.218-0.232,0.324-0.557,0.278C63.645,83.346,63.46,84.367,63.891,84.771z"/>
<path fill-rule="evenodd" clip-rule="evenodd" fill="#1A1A1A" d="M20.969,88.116c0-1.114,0-2.229,0-3.345c0.093,0,0.186,0,0.279,0
	c0,1.115,0,2.23,0,3.345C21.155,88.116,21.063,88.116,20.969,88.116z"/>
<path fill-rule="evenodd" clip-rule="evenodd" fill="#1A1A1A" d="M60.547,93.691c0-2.045,0-4.088,0-6.133c0.093,0,0.185,0,0.278,0
	c0,0.651,0,1.302,0,1.951c0,0.837,0,1.673,0,2.509C60.665,92.508,61.162,93.656,60.547,93.691z"/>
<path fill-rule="evenodd" clip-rule="evenodd" fill="#888888" d="M63.334,93.97c0-2.229,0-4.46,0-6.689c0.092,0,0.187,0,0.278,0
	C63.428,89.42,63.981,92.294,63.334,93.97z"/>
<path fill-rule="evenodd" clip-rule="evenodd" fill="#888888" d="M57.759,97.314c0.184-1.02-0.603-1.069-0.557-1.951
	c-0.012-0.384,0.131-0.612,0.278-0.837c1.403-1.058,1.021,1.651,2.229,1.673C59.355,96.866,58.801,97.333,57.759,97.314z"/>
<path fill-rule="evenodd" clip-rule="evenodd" fill="#888888" d="M56.923,100.101c0.035-0.615,1.183-0.118,1.673-0.278
	C58.561,100.438,57.413,99.94,56.923,100.101z"/>
<path fill-rule="evenodd" clip-rule="evenodd" fill="#323232" d="M42.43,100.381c0.052-0.414,0.673-0.257,1.115-0.28
	c0,0.094,0,0.187,0,0.28C43.174,100.381,42.802,100.381,42.43,100.381z"/>
<path fill-rule="evenodd" clip-rule="evenodd" fill="#1A1A1A" d="M14.28,100.381c1.022,0,2.044,0,3.066,0c0,0.092,0,0.185,0,0.278
	C16.408,100.482,14.757,101.018,14.28,100.381z"/>
<path fill-rule="evenodd" clip-rule="evenodd" fill="#333333" d="M36.856,102.609c0,0.558,0,1.115,0,1.673c-0.093,0-0.186,0-0.279,0
	C36.737,103.791,36.24,102.645,36.856,102.609z"/>
<path fill-rule="evenodd" clip-rule="evenodd" fill="#1A1A1A" d="M39.365,104.561c0.047-0.417-0.1-1.028,0.278-1.115
	C39.62,103.888,39.777,104.509,39.365,104.561z"/>
<path fill-rule="evenodd" clip-rule="evenodd" fill="#323232" d="M21.248,106.232c0,1.673,0,3.345,0,5.018c-0.093,0-0.186,0-0.279,0
	c0-1.673,0-3.345,0-5.018C21.063,106.232,21.155,106.232,21.248,106.232z"/>
<path fill-rule="evenodd" clip-rule="evenodd" fill="#333333" d="M18.182,117.103c0-3.994,0-7.99,0-11.985c0.093,0,0.186,0,0.278,0
	c0,3.995,0,7.991,0,11.985C18.368,117.103,18.275,117.103,18.182,117.103z"/>
<path fill-rule="evenodd" clip-rule="evenodd" fill="#888888" d="M41.037,119.611c0.64,0.567,0.101,2.313,0.278,3.345
	C40.676,122.388,41.215,120.641,41.037,119.611z"/>
<path fill-rule="evenodd" clip-rule="evenodd" fill="#888888" d="M41.037,131.317c0.16-0.49-0.337-1.638,0.278-1.673
	C41.155,130.134,41.652,131.282,41.037,131.317z"/>
<path fill-rule="evenodd" clip-rule="evenodd" fill="#1A1A1A" d="M21.248,131.874c-0.645-1.027-0.097-3.247-0.279-4.738
	c0.093,0,0.186,0,0.279,0C21.248,128.716,21.248,130.295,21.248,131.874z"/>
<path fill-rule="evenodd" clip-rule="evenodd" fill="#333333" d="M18.46,132.71c-0.647-2.046-0.094-5.294-0.278-7.804
	c0.093,0,0.186,0,0.278,0C18.46,127.508,18.46,130.109,18.46,132.71z"/>
<path fill-rule="evenodd" clip-rule="evenodd" fill="#1A1A1A" d="M34.348,133.825c0.051-0.412,0.673-0.255,1.114-0.278
	C35.376,133.925,34.764,133.778,34.348,133.825z"/>
<path fill-rule="evenodd" clip-rule="evenodd" fill="#888888" d="M21.806,136.334c4.087,0,8.175,0,12.263,0c0,0.093,0,0.186,0,0.278
	C30.073,136.427,25.337,136.982,21.806,136.334z"/>
<path fill-rule="evenodd" clip-rule="evenodd" fill="#333333" d="M34.069,136.334c0.464,0,0.929,0,1.393,0
	c0.047,0.604-0.989,0.126-1.393,0.278C34.069,136.52,34.069,136.427,34.069,136.334z"/>
<path fill-rule="evenodd" clip-rule="evenodd" fill="#333333" d="M18.46,84.215c0,0.929,0,1.858,0,2.787c-0.092,0-0.185,0-0.278,0
	c0-0.929,0-1.858,0-2.787C18.275,84.215,18.368,84.215,18.46,84.215z"/>
<path fill-rule="evenodd" clip-rule="evenodd" fill="#333333" d="M41.873,97.593c3.531-0.649,8.268-0.094,12.263-0.278
	c0,0.092,0,0.186,0,0.278C50.048,97.593,45.96,97.593,41.873,97.593z"/>
<path fill-rule="evenodd" clip-rule="evenodd" fill="#333333" d="M17.346,100.381c0.371,0,0.743,0,1.114,0c0,0.37,0,0.743,0,1.113
	c-0.092,0-0.185,0-0.278,0c0.051-0.607-0.229-0.887-0.836-0.835C17.346,100.565,17.346,100.473,17.346,100.381z"/>
</svg>
