<?xml version="1.0" encoding="utf-8"?>
<!-- Generator: Adobe Illustrator 15.0.0, SVG Export Plug-In  -->
<!DOCTYPE svg PUBLIC "-//W3C//DTD SVG 1.1//EN" "http://www.w3.org/Graphics/SVG/1.1/DTD/svg11.dtd" [
	<!ENTITY ns_flows "http://ns.adobe.com/Flows/1.0/">
]>
<svg version="1.1"
	 xmlns="http://www.w3.org/2000/svg" xmlns:xlink="http://www.w3.org/1999/xlink" xmlns:a="http://ns.adobe.com/AdobeSVGViewerExtensions/3.0/"
	 x="0px" y="0px" width="142px" height="142px" viewBox="-13.587 -2.31 142 142" enable-background="new -13.587 -2.31 142 142"
	 xml:space="preserve">
<defs>
</defs>
<path fill-rule="evenodd" clip-rule="evenodd" fill="#7C7C7C" d="M48.566,0.321c0-0.092,0-0.186,0-0.278c0.929,0,1.858,0,2.787,0
	c0,0.093,0,0.186,0,0.278C50.424,0.321,49.495,0.321,48.566,0.321z"/>
<path fill-rule="evenodd" clip-rule="evenodd" fill="#CACACA" d="M51.353,0.321c0-0.092,0-0.186,0-0.278c0.372,0,0.743,0,1.115,0
	c0,0.093,0,0.186,0,0.278C52.096,0.321,51.725,0.321,51.353,0.321z"/>
<path fill-rule="evenodd" clip-rule="evenodd" fill="#CACACA" d="M49.681,2.829c0.571-0.462,3.052-0.462,3.623,0
	C52.096,2.829,50.889,2.829,49.681,2.829z"/>
<path fill-rule="evenodd" clip-rule="evenodd" fill="#7C7C7C" d="M42.434,8.961c0.152-0.405-0.326-1.44,0.279-1.393
	c0,0.464,0,0.929,0,1.393C42.62,8.961,42.527,8.961,42.434,8.961z"/>
<path fill-rule="evenodd" clip-rule="evenodd" fill="#181818" d="M39.925,8.404c0,0.464,0,0.929,0,1.393c-0.093,0-0.186,0-0.278,0
	C39.799,9.393,39.321,8.356,39.925,8.404z"/>
<path fill-rule="evenodd" clip-rule="evenodd" fill="#343434" d="M42.434,8.961c0.093,0,0.186,0,0.279,0c0,1.672,0,3.344,0,5.017
	c-0.093,0-0.186,0-0.279,0C42.434,12.305,42.434,10.633,42.434,8.961z"/>
<path fill-rule="evenodd" clip-rule="evenodd" fill="#343434" d="M39.647,9.797c0.093,0,0.186,0,0.278,0c0,1.115,0,2.23,0,3.345
	c-0.093,0-0.186,0-0.278,0C39.647,12.027,39.647,10.912,39.647,9.797z"/>
<path fill-rule="evenodd" clip-rule="evenodd" fill="#181818" d="M39.647,13.142c0.093,0,0.186,0,0.278,0c0,0.558,0,1.115,0,1.672
	C39.31,14.78,39.807,13.632,39.647,13.142z"/>
<path fill-rule="evenodd" clip-rule="evenodd" fill="#7C7C7C" d="M63.616,13.978c0-0.093,0-0.186,0-0.279c0.371,0,0.743,0,1.114,0
	c0,0.093,0,0.186,0,0.279C64.359,13.978,63.987,13.978,63.616,13.978z"/>
<path fill-rule="evenodd" clip-rule="evenodd" fill="#7C7C7C" d="M42.434,13.978c0.093,0,0.186,0,0.279,0c0,0.929,0,1.858,0,2.787
	c-0.093,0-0.186,0-0.279,0C42.434,15.836,42.434,14.907,42.434,13.978z"/>
<path fill-rule="evenodd" clip-rule="evenodd" fill="#CACACA" d="M39.925,15.929c0.629,0.207,0.109,1.563,0.279,2.229
	c-0.093,0-0.187,0-0.279,0C39.925,17.416,39.925,16.672,39.925,15.929z"/>
<path fill-rule="evenodd" clip-rule="evenodd" fill="#CACACA" d="M42.434,16.765c0.093,0,0.186,0,0.279,0c0,0.743,0,1.486,0,2.229
	C42.084,18.788,42.604,17.432,42.434,16.765z"/>
<path fill-rule="evenodd" clip-rule="evenodd" fill="#7C7C7C" d="M84.241,17.322c0.64,0.568,0.101,2.315,0.278,3.345
	c-0.092,0-0.186,0-0.278,0C84.241,19.552,84.241,18.438,84.241,17.322z"/>
<path fill-rule="evenodd" clip-rule="evenodd" fill="#7C7C7C" d="M39.925,18.159c0.093,0,0.186,0,0.279,0c0,0.65,0,1.3,0,1.951
	c-0.093,0-0.187,0-0.279,0C39.925,19.459,39.925,18.809,39.925,18.159z"/>
<path fill-rule="evenodd" clip-rule="evenodd" fill="#181818" d="M87.028,18.159c0.463,0.938,0.463,3.8,0,4.738
	C87.028,21.318,87.028,19.738,87.028,18.159z"/>
<path fill-rule="evenodd" clip-rule="evenodd" fill="#181818" d="M42.713,19.552c0.413,0.051,0.255,0.673,0.278,1.115
	c-0.093,0-0.186,0-0.278,0C42.713,20.295,42.713,19.924,42.713,19.552z"/>
<path fill-rule="evenodd" clip-rule="evenodd" fill="#343434" d="M39.925,20.109c0.093,0,0.186,0,0.279,0c0,0.464,0,0.929,0,1.394
	c-0.093,0-0.187,0-0.279,0C39.925,21.039,39.925,20.574,39.925,20.109z"/>
<path fill-rule="evenodd" clip-rule="evenodd" fill="#343434" d="M42.713,20.667c0.093,0,0.186,0,0.278,0c0,0.464,0,0.929,0,1.394
	c-0.093,0-0.186,0-0.278,0C42.713,21.596,42.713,21.131,42.713,20.667z"/>
<path fill-rule="evenodd" clip-rule="evenodd" fill="#343434" d="M84.241,20.667c0.093,0,0.187,0,0.278,0c0,0.464,0,0.929,0,1.394
	c-0.092,0-0.186,0-0.278,0C84.241,21.596,84.241,21.131,84.241,20.667z"/>
<path fill-rule="evenodd" clip-rule="evenodd" fill="#181818" d="M39.925,21.503c0.093,0,0.186,0,0.279,0c0,0.372,0,0.743,0,1.115
	C39.826,22.532,39.973,21.92,39.925,21.503z"/>
<path fill-rule="evenodd" clip-rule="evenodd" fill="#7C7C7C" d="M42.713,22.061c0.093,0,0.186,0,0.278,0c0,0.557,0,1.115,0,1.672
	c-0.093,0-0.186,0-0.278,0C42.713,23.175,42.713,22.618,42.713,22.061z"/>
<path fill-rule="evenodd" clip-rule="evenodd" fill="#7C7C7C" d="M84.241,22.061c0.093,0,0.187,0,0.278,0c0,0.65,0,1.301,0,1.951
	c-0.092,0-0.186,0-0.278,0C84.241,23.361,84.241,22.711,84.241,22.061z"/>
<path fill-rule="evenodd" clip-rule="evenodd" fill="#CACACA" d="M40.205,23.175c0.615,0.035,0.118,1.183,0.278,1.672
	c-0.093,0-0.186,0-0.278,0C40.205,24.29,40.205,23.733,40.205,23.175z"/>
<path fill-rule="evenodd" clip-rule="evenodd" fill="#CACACA" d="M87.028,23.454c0,0.465,0,0.93,0,1.394c-0.095,0-0.187,0-0.278,0
	C86.902,24.442,86.423,23.407,87.028,23.454z"/>
<path fill-rule="evenodd" clip-rule="evenodd" fill="#CACACA" d="M42.713,23.733c0.093,0,0.186,0,0.278,0c0,0.743,0,1.486,0,2.229
	C42.363,25.755,42.882,24.399,42.713,23.733z"/>
<path fill-rule="evenodd" clip-rule="evenodd" fill="#CACACA" d="M84.241,24.012c0.093,0,0.187,0,0.278,0
	c-0.152,0.405,0.325,1.44-0.278,1.394C84.241,24.94,84.241,24.476,84.241,24.012z"/>
<path fill-rule="evenodd" clip-rule="evenodd" fill="#7C7C7C" d="M40.205,24.848c0.093,0,0.186,0,0.278,0c0,0.743,0,1.486,0,2.23
	c-0.093,0-0.186,0-0.278,0C40.205,26.334,40.205,25.591,40.205,24.848z"/>
<path fill-rule="evenodd" clip-rule="evenodd" fill="#7C7C7C" d="M86.75,24.848c0.092,0,0.184,0,0.278,0c0,0.372,0,0.743,0,1.115
	c-0.095,0-0.187,0-0.278,0C86.75,25.591,86.75,25.219,86.75,24.848z"/>
<path fill-rule="evenodd" clip-rule="evenodd" fill="#181818" d="M42.991,26.242c0.413,0.051,0.255,0.673,0.279,1.114
	c-0.092,0-0.186,0-0.279,0C42.991,26.984,42.991,26.613,42.991,26.242z"/>
<path fill-rule="evenodd" clip-rule="evenodd" fill="#343434" d="M40.205,27.078c0.093,0,0.186,0,0.278,0c0,0.464,0,0.929,0,1.393
	c-0.093,0-0.186,0-0.278,0C40.205,28.006,40.205,27.542,40.205,27.078z"/>
<path fill-rule="evenodd" clip-rule="evenodd" fill="#343434" d="M42.991,27.356c0.093,0,0.187,0,0.279,0c0,0.465,0,0.929,0,1.394
	c-0.092,0-0.186,0-0.279,0C42.991,28.285,42.991,27.821,42.991,27.356z"/>
<path fill-rule="evenodd" clip-rule="evenodd" fill="#7C7C7C" d="M83.961,27.356c0.094,0,0.187,0,0.28,0c0,0.465,0,0.929,0,1.394
	c-0.094,0-0.187,0-0.28,0C83.961,28.285,83.961,27.821,83.961,27.356z"/>
<path fill-rule="evenodd" clip-rule="evenodd" fill="#CACACA" d="M86.75,28.192c0,0.464,0,0.929,0,1.394c-0.095,0-0.187,0-0.279,0
	C86.623,29.181,86.145,28.145,86.75,28.192z"/>
<path fill-rule="evenodd" clip-rule="evenodd" fill="#181818" d="M40.205,28.471c0.093,0,0.186,0,0.278,0c0,0.372,0,0.743,0,1.115
	C40.105,29.5,40.251,28.888,40.205,28.471z"/>
<path fill-rule="evenodd" clip-rule="evenodd" fill="#7C7C7C" d="M42.991,28.75c0.093,0,0.187,0,0.279,0c0,0.743,0,1.486,0,2.229
	c-0.092,0-0.186,0-0.279,0C42.991,30.236,42.991,29.493,42.991,28.75z"/>
<path fill-rule="evenodd" clip-rule="evenodd" fill="#CACACA" d="M83.961,28.75c0.094,0,0.187,0,0.28,0
	c-0.023,0.441,0.135,1.063-0.28,1.114C83.961,29.493,83.961,29.121,83.961,28.75z"/>
<path fill-rule="evenodd" clip-rule="evenodd" fill="#7C7C7C" d="M86.471,29.586c0.093,0,0.185,0,0.279,0c0,0.372,0,0.743,0,1.115
	c-0.095,0-0.187,0-0.279,0C86.471,30.329,86.471,29.958,86.471,29.586z"/>
<path fill-rule="evenodd" clip-rule="evenodd" fill="#CACACA" d="M40.483,30.143c0.628,0.208,0.109,1.563,0.278,2.23
	c-0.092,0-0.186,0-0.278,0C40.483,31.63,40.483,30.886,40.483,30.143z"/>
<path fill-rule="evenodd" clip-rule="evenodd" fill="#CACACA" d="M42.991,30.979c0.093,0,0.187,0,0.279,0c0,0.836,0,1.672,0,2.508
	C42.638,33.191,43.164,31.735,42.991,30.979z"/>
<path fill-rule="evenodd" clip-rule="evenodd" fill="#7C7C7C" d="M40.483,32.373c0.093,0,0.186,0,0.278,0c0,1.115,0,2.229,0,3.345
	c-0.092,0-0.186,0-0.278,0C40.483,34.602,40.483,33.488,40.483,32.373z"/>
<path fill-rule="evenodd" clip-rule="evenodd" fill="#181818" d="M43.27,34.324c0.464,1.214,0.464,4.36,0,5.574
	C43.27,38.04,43.27,36.182,43.27,34.324z"/>
<path fill-rule="evenodd" clip-rule="evenodd" fill="#343434" d="M40.483,35.718c0.093,0,0.186,0,0.278,0c0,1.114,0,2.229,0,3.344
	c-0.092,0-0.186,0-0.278,0C40.483,37.947,40.483,36.832,40.483,35.718z"/>
<path fill-rule="evenodd" clip-rule="evenodd" fill="#7C7C7C" d="M5.087,38.226c1.862-0.464,5.663-0.464,7.525,0
	C10.104,38.226,7.595,38.226,5.087,38.226z"/>
<path fill-rule="evenodd" clip-rule="evenodd" fill="#7C7C7C" d="M40.483,39.062c0.093,0,0.186,0,0.278,0c0,0.65,0,1.3,0,1.951
	c-0.092,0-0.186,0-0.278,0C40.483,40.362,40.483,39.712,40.483,39.062z"/>
<path fill-rule="evenodd" clip-rule="evenodd" fill="#181818" d="M0.349,39.619c0,1.487,0,2.973,0,4.459
	C-0.115,43.233-0.115,40.466,0.349,39.619z"/>
<path fill-rule="evenodd" clip-rule="evenodd" fill="#CACACA" d="M14.563,40.177c0.463,0.846,0.463,3.614,0,4.459
	C14.563,43.15,14.563,41.663,14.563,40.177z"/>
<path fill-rule="evenodd" clip-rule="evenodd" fill="#CACACA" d="M40.483,41.013c0.093,0,0.186,0,0.278,0
	c-0.047,0.417,0.1,1.028-0.278,1.114C40.483,41.756,40.483,41.384,40.483,41.013z"/>
<path fill-rule="evenodd" clip-rule="evenodd" fill="#181818" d="M0.349,47.702c0,6.503,0,13.006,0,19.509
	C-0.116,61.358-0.116,53.556,0.349,47.702z"/>
<path fill-rule="evenodd" clip-rule="evenodd" fill="#CACACA" d="M50.238,61.08c0.836,0,1.672,0,2.508,0c0,0.093,0,0.186,0,0.279
	C51.99,61.187,50.534,61.713,50.238,61.08z"/>
<path fill-rule="evenodd" clip-rule="evenodd" fill="#7C7C7C" d="M81.174,63.31c-0.458-0.038-0.458-1.913,0-1.951
	C81.174,62.009,81.174,62.659,81.174,63.31z"/>
<path fill-rule="evenodd" clip-rule="evenodd" fill="#181818" d="M65.009,61.638c0.848,0.175,2.402-0.357,2.789,0.278
	C66.95,61.741,65.396,62.273,65.009,61.638z"/>
<path fill-rule="evenodd" clip-rule="evenodd" fill="#181818" d="M69.189,61.916c0.417,0.048,1.03-0.1,1.116,0.279
	C69.889,62.147,69.276,62.294,69.189,61.916z"/>
<path fill-rule="evenodd" clip-rule="evenodd" fill="#181818" d="M71.141,62.195c0.417,0.047,1.03-0.1,1.116,0.279
	C71.838,62.426,71.228,62.573,71.141,62.195z"/>
<path fill-rule="evenodd" clip-rule="evenodd" fill="#181818" d="M73.093,62.474c0.416,0.047,1.027-0.1,1.113,0.278
	C73.79,62.705,73.179,62.852,73.093,62.474z"/>
<path fill-rule="evenodd" clip-rule="evenodd" fill="#181818" d="M75.044,62.752c0.416,0.048,1.027-0.099,1.113,0.279
	C75.741,62.983,75.13,63.131,75.044,62.752z"/>
<path fill-rule="evenodd" clip-rule="evenodd" fill="#181818" d="M76.717,63.031c0.416,0.047,1.027-0.1,1.113,0.279
	C77.414,63.262,76.803,63.41,76.717,63.031z"/>
<path fill-rule="evenodd" clip-rule="evenodd" fill="#7C7C7C" d="M43.549,63.588c2.787,0,5.574,0,8.361,0c0,0.093,0,0.186,0,0.279
	C49.214,63.683,45.78,64.237,43.549,63.588z"/>
<path fill-rule="evenodd" clip-rule="evenodd" fill="#CACACA" d="M51.91,63.868c0-0.093,0-0.187,0-0.279
	c0.577,0.166,1.831-0.344,1.951,0.279C53.211,63.868,52.561,63.868,51.91,63.868z"/>
<path fill-rule="evenodd" clip-rule="evenodd" fill="#181818" d="M65.846,64.424c0.665,0.17,2.021-0.35,2.23,0.279
	C67.409,64.534,66.055,65.053,65.846,64.424z"/>
<path fill-rule="evenodd" clip-rule="evenodd" fill="#181818" d="M69.189,64.704c0.417,0.047,1.03-0.1,1.116,0.278
	C69.889,64.934,69.276,65.082,69.189,64.704z"/>
<path fill-rule="evenodd" clip-rule="evenodd" fill="#181818" d="M87.585,64.982c0.404,0.153,1.44-0.326,1.395,0.278
	C88.575,65.108,87.539,65.586,87.585,64.982z"/>
<path fill-rule="evenodd" clip-rule="evenodd" fill="#181818" d="M92.045,65.26c2.973,0.185,6.688-0.37,9.197,0.28
	C98.268,65.354,94.555,65.91,92.045,65.26z"/>
<path fill-rule="evenodd" clip-rule="evenodd" fill="#181818" d="M75.044,65.54c0.416,0.047,1.027-0.1,1.113,0.278
	C75.741,65.771,75.13,65.917,75.044,65.54z"/>
<path fill-rule="evenodd" clip-rule="evenodd" fill="#181818" d="M102.915,65.54c0.489,0.16,1.637-0.337,1.671,0.278
	C104.097,65.658,102.949,66.155,102.915,65.54z"/>
<path fill-rule="evenodd" clip-rule="evenodd" fill="#181818" d="M46.894,65.818c1.583,0.182,3.896-0.367,5.017,0.278
	C50.327,65.915,48.013,66.463,46.894,65.818z"/>
<path fill-rule="evenodd" clip-rule="evenodd" fill="#181818" d="M53.582,66.097c0.121-0.623,1.374-0.113,1.952-0.278
	C55.414,66.441,54.16,65.932,53.582,66.097z"/>
<path fill-rule="evenodd" clip-rule="evenodd" fill="#181818" d="M105.702,65.818c0.44,0.023,1.063-0.134,1.113,0.278
	C106.399,66.05,105.788,66.196,105.702,65.818z"/>
<path fill-rule="evenodd" clip-rule="evenodd" fill="#181818" d="M108.21,66.097c0.405,0.153,1.44-0.326,1.395,0.279
	C109.198,66.224,108.162,66.701,108.21,66.097z"/>
<path fill-rule="evenodd" clip-rule="evenodd" fill="#181818" d="M110.719,66.375c0.44,0.023,1.063-0.134,1.115,0.279
	C111.415,66.606,110.805,66.754,110.719,66.375z"/>
<path fill-rule="evenodd" clip-rule="evenodd" fill="#181818" d="M85.634,67.49c0.417,0.047,1.029-0.1,1.116,0.279
	C86.333,67.722,85.72,67.869,85.634,67.49z"/>
<path fill-rule="evenodd" clip-rule="evenodd" fill="#181818" d="M87.585,67.769c0.667,0.17,2.021-0.35,2.229,0.279
	C89.147,67.878,87.793,68.397,87.585,67.769z"/>
<path fill-rule="evenodd" clip-rule="evenodd" fill="#181818" d="M92.88,68.048c2.976,0.185,6.688-0.37,9.198,0.279
	C99.104,68.142,95.391,68.696,92.88,68.048z"/>
<path fill-rule="evenodd" clip-rule="evenodd" fill="#181818" d="M103.472,68.327c0.405,0.152,1.44-0.326,1.393,0.279
	C104.46,68.453,103.424,68.931,103.472,68.327z"/>
<path fill-rule="evenodd" clip-rule="evenodd" fill="#181818" d="M105.98,68.605c0.404,0.152,1.44-0.326,1.395,0.278
	C106.968,68.732,105.933,69.209,105.98,68.605z"/>
<path fill-rule="evenodd" clip-rule="evenodd" fill="#CACACA" d="M80.061,68.884c0.463,0.938,0.463,3.8,0,4.739
	c0-0.651,0-1.301,0-1.951C80.061,70.743,80.061,69.813,80.061,68.884z"/>
<path fill-rule="evenodd" clip-rule="evenodd" fill="#181818" d="M108.488,68.884c0.405,0.152,1.44-0.325,1.395,0.279
	C109.477,69.01,108.44,69.489,108.488,68.884z"/>
<path fill-rule="evenodd" clip-rule="evenodd" fill="#181818" d="M83.961,69.441c0.419,0.048,1.029-0.1,1.116,0.279
	C84.66,69.673,84.049,69.82,83.961,69.441z"/>
<path fill-rule="evenodd" clip-rule="evenodd" fill="#181818" d="M88.142,69.999c0.419,0.048,1.03-0.1,1.116,0.279
	C88.841,70.23,88.229,70.377,88.142,69.999z"/>
<path fill-rule="evenodd" clip-rule="evenodd" fill="#181818" d="M90.094,70.278c0.404,0.152,1.44-0.326,1.394,0.278
	C91.083,70.404,90.047,70.882,90.094,70.278z"/>
<path fill-rule="evenodd" clip-rule="evenodd" fill="#CACACA" d="M82.568,72.228c0.16-0.489-0.337-1.637,0.278-1.672
	c0,0.559,0,1.115,0,1.672C82.755,72.228,82.661,72.228,82.568,72.228z"/>
<path fill-rule="evenodd" clip-rule="evenodd" fill="#181818" d="M92.602,70.556c0.417,0.048,1.029-0.1,1.116,0.278
	C93.301,70.788,92.688,70.935,92.602,70.556z"/>
<path fill-rule="evenodd" clip-rule="evenodd" fill="#181818" d="M94.831,70.834c0.417,0.049,1.03-0.099,1.116,0.28
	C95.53,71.066,94.918,71.213,94.831,70.834z"/>
<path fill-rule="evenodd" clip-rule="evenodd" fill="#181818" d="M0.349,72.228c0,1.208,0,2.416,0,3.624
	C-0.114,75.281-0.114,72.8,0.349,72.228z"/>
<path fill-rule="evenodd" clip-rule="evenodd" fill="#7C7C7C" d="M82.568,72.228c0.093,0,0.187,0,0.278,0c0,0.837,0,1.673,0,2.509
	c-0.092,0-0.186,0-0.278,0C82.568,73.901,82.568,73.065,82.568,72.228z"/>
<path fill-rule="evenodd" clip-rule="evenodd" fill="#181818" d="M60.271,72.506c0.095,0,0.187,0,0.28,0c0,1.116,0,2.23,0,3.346
	C59.91,75.284,60.449,73.538,60.271,72.506z"/>
<path fill-rule="evenodd" clip-rule="evenodd" fill="#181818" d="M86.19,72.506c0.419,0.049,1.03-0.099,1.116,0.279
	C86.866,72.763,86.243,72.92,86.19,72.506z"/>
<path fill-rule="evenodd" clip-rule="evenodd" fill="#181818" d="M88.142,72.786c0.405,0.152,1.44-0.325,1.395,0.279
	C89.132,72.913,88.096,73.39,88.142,72.786z"/>
<path fill-rule="evenodd" clip-rule="evenodd" fill="#181818" d="M90.372,73.065c0.404,0.152,1.44-0.326,1.395,0.278
	C91.361,73.191,90.325,73.669,90.372,73.065z"/>
<path fill-rule="evenodd" clip-rule="evenodd" fill="#181818" d="M92.602,73.343c0.404,0.152,1.44-0.326,1.395,0.279
	C93.591,73.469,92.556,73.948,92.602,73.343z"/>
<path fill-rule="evenodd" clip-rule="evenodd" fill="#181818" d="M95.109,73.623c0.419,0.047,1.03-0.101,1.116,0.278
	C95.785,73.878,95.162,74.035,95.109,73.623z"/>
<path fill-rule="evenodd" clip-rule="evenodd" fill="#7C7C7C" d="M63.06,73.901c0.092,0,0.185,0,0.278,0c0,2.137,0,4.273,0,6.41
	c-0.094,0-0.187,0-0.278,0C63.06,78.174,63.06,76.038,63.06,73.901z"/>
<path fill-rule="evenodd" clip-rule="evenodd" fill="#CACACA" d="M60.551,77.246c0.463,1.03,0.463,3.987,0,5.017
	c0-0.093,0-0.187,0-0.278C60.551,80.404,60.551,78.826,60.551,77.246z"/>
<path fill-rule="evenodd" clip-rule="evenodd" fill="#7C7C7C" d="M31.564,78.083c0,1.392,0,2.786,0,4.18c-0.65,0-1.3,0-1.951,0
	c0-1.394,0-2.788,0-4.18C30.264,78.083,30.914,78.083,31.564,78.083z"/>
<path fill-rule="evenodd" clip-rule="evenodd" fill="#343434" d="M31.564,78.083c0.644,0.842,0.099,2.873,0.279,4.18
	c-0.093,0-0.186,0-0.279,0C31.564,80.869,31.564,79.474,31.564,78.083z"/>
<path fill-rule="evenodd" clip-rule="evenodd" fill="#CACACA" d="M0.349,78.917c0.464,3.16,0.464,8.268,0,11.428
	C0.349,86.536,0.349,82.727,0.349,78.917z"/>
<path fill-rule="evenodd" clip-rule="evenodd" fill="#CACACA" d="M63.06,80.311c0.092,0,0.185,0,0.278,0c0,0.558,0,1.115,0,1.673
	c0,0.092,0,0.186,0,0.278C62.715,82.142,63.224,80.889,63.06,80.311z"/>
<path fill-rule="evenodd" clip-rule="evenodd" fill="#181818" d="M54.14,82.262c0.936-0.645,3.061-0.098,4.46-0.278
	c0,0.092,0,0.186,0,0.278C57.113,82.262,55.627,82.262,54.14,82.262z"/>
<path fill-rule="evenodd" clip-rule="evenodd" fill="#343434" d="M58.6,82.262c0-0.093,0-0.187,0-0.278c0.649,0,1.301,0,1.951,0
	c0,0.092,0,0.186,0,0.278C59.9,82.262,59.249,82.262,58.6,82.262z"/>
<path fill-rule="evenodd" clip-rule="evenodd" fill="#CACACA" d="M31.564,82.262c0.094,0,0.186,0,0.279,0c4.459,0,8.918,0,13.378,0
	C41.318,82.727,35.467,82.727,31.564,82.262z"/>
<path fill-rule="evenodd" clip-rule="evenodd" fill="#7C7C7C" d="M2.857,93.412c0.185-3.253-0.37-7.246,0.279-10.034
	c0,3.345,0,6.688,0,10.034C3.043,93.412,2.95,93.412,2.857,93.412z"/>
<path fill-rule="evenodd" clip-rule="evenodd" fill="#CACACA" d="M31.564,84.77c-0.037,0.459-1.913,0.459-1.951,0
	C30.264,84.77,30.914,84.77,31.564,84.77z"/>
<path fill-rule="evenodd" clip-rule="evenodd" fill="#7C7C7C" d="M40.761,85.049c4.46-0.649,10.126-0.094,15.051-0.279
	c0,0.094,0,0.187,0,0.279C50.795,85.049,45.778,85.049,40.761,85.049z"/>
<path fill-rule="evenodd" clip-rule="evenodd" fill="#343434" d="M55.812,85.049c0-0.093,0-0.186,0-0.279
	c1.491,0.182,3.71-0.365,4.739,0.279C58.971,85.049,57.391,85.049,55.812,85.049z"/>
<path fill-rule="evenodd" clip-rule="evenodd" fill="#CACACA" d="M63.338,84.77c0,0.094,0,0.187,0,0.279c0,0.836,0,1.673,0,2.508
	C62.877,87.257,62.877,85.071,63.338,84.77z"/>
<path fill-rule="evenodd" clip-rule="evenodd" fill="#181818" d="M68.076,85.049c0-0.093,0-0.186,0-0.279c1.486,0,2.973,0,4.459,0
	c0,0.094,0,0.187,0,0.279C71.049,85.049,69.563,85.049,68.076,85.049z"/>
<path fill-rule="evenodd" clip-rule="evenodd" fill="#7C7C7C" d="M60.551,85.049c0.646,1.213,0.097,3.62,0.278,5.296
	c-0.094,0-0.186,0-0.278,0C60.551,88.58,60.551,86.814,60.551,85.049z"/>
<path fill-rule="evenodd" clip-rule="evenodd" fill="#181818" d="M63.338,88.952c0.635,0.387,0.104,1.939,0.278,2.787
	c-0.092,0-0.187,0-0.278,0C63.338,90.81,63.338,89.88,63.338,88.952z"/>
<path fill-rule="evenodd" clip-rule="evenodd" fill="#343434" d="M60.551,90.345c0.093,0,0.185,0,0.278,0c0,0.465,0,0.929,0,1.394
	c-0.094,0-0.186,0-0.278,0C60.551,91.274,60.551,90.81,60.551,90.345z"/>
<path fill-rule="evenodd" clip-rule="evenodd" fill="#181818" d="M57.763,91.739c0.038-0.459,1.913-0.459,1.951,0
	c-0.558,0-1.114,0-1.672,0C57.949,91.739,57.856,91.739,57.763,91.739z"/>
<path fill-rule="evenodd" clip-rule="evenodd" fill="#181818" d="M0.349,91.739c0,1.208,0,2.416,0,3.623
	C-0.114,94.79-0.114,92.31,0.349,91.739z"/>
<path fill-rule="evenodd" clip-rule="evenodd" fill="#343434" d="M63.338,92.017c0-0.093,0-0.186,0-0.278c0.092,0,0.187,0,0.278,0
	c0.465,0,0.93,0,1.393,0c0,0.093,0,0.186,0,0.278C64.452,92.017,63.895,92.017,63.338,92.017z"/>
<path fill-rule="evenodd" clip-rule="evenodd" fill="#7C7C7C" d="M63.338,92.017c0.557,0,1.114,0,1.671,0
	c0.417,0.048,1.029-0.1,1.116,0.278c0,0.093,0,0.187,0,0.279c0,0.186,0,0.372,0,0.557c-0.93,0-1.857,0-2.787,0
	C63.338,92.76,63.338,92.388,63.338,92.017z"/>
<path fill-rule="evenodd" clip-rule="evenodd" fill="#343434" d="M63.338,93.412c0-0.094,0-0.187,0-0.28c0.93,0,1.857,0,2.787,0
	C65.738,93.768,64.186,93.236,63.338,93.412z"/>
<path fill-rule="evenodd" clip-rule="evenodd" fill="#343434" d="M2.857,93.412c0.093,0,0.186,0,0.279,0c0,0.37,0,0.743,0,1.113
	c-0.093,0-0.186,0-0.279,0C2.857,94.155,2.857,93.782,2.857,93.412z"/>
<path fill-rule="evenodd" clip-rule="evenodd" fill="#7C7C7C" d="M42.713,97.591c0-0.093,0-0.187,0-0.278c0.65,0,1.301,0,1.951,0
	c0,0.092,0,0.186,0,0.278C44.014,97.591,43.363,97.591,42.713,97.591z"/>
<path fill-rule="evenodd" clip-rule="evenodd" fill="#343434" d="M44.664,97.591c0-0.093,0-0.187,0-0.278c0.743,0,1.486,0,2.23,0
	c0,0.092,0,0.186,0,0.278C46.15,97.591,45.407,97.591,44.664,97.591z"/>
<path fill-rule="evenodd" clip-rule="evenodd" fill="#7C7C7C" d="M46.894,97.591c0-0.093,0-0.187,0-0.278c3.437,0,6.875,0,10.313,0
	C54.325,97.961,50.239,97.407,46.894,97.591z"/>
<path fill-rule="evenodd" clip-rule="evenodd" fill="#CACACA" d="M4.808,97.591c2.323,0,4.646,0,6.968,0
	C10.099,98.055,6.485,98.055,4.808,97.591z"/>
<path fill-rule="evenodd" clip-rule="evenodd" fill="#181818" d="M53.861,100.099c0.929,0,1.858,0,2.787,0
	C56.348,100.561,54.162,100.561,53.861,100.099z"/>
<path fill-rule="evenodd" clip-rule="evenodd" fill="#CACACA" d="M39.369,104.281c0,3.158,0,6.316,0,9.476
	C38.904,111.246,38.904,106.791,39.369,104.281z"/>
<path fill-rule="evenodd" clip-rule="evenodd" fill="#CACACA" d="M36.581,109.854c0.093,0,0.186,0,0.279,0c0,1.116,0,2.229,0,3.345
	c-0.093,0-0.186,0-0.279,0C36.581,112.083,36.581,110.97,36.581,109.854z"/>
<path fill-rule="evenodd" clip-rule="evenodd" fill="#7C7C7C" d="M36.581,113.199c0.093,0,0.186,0,0.279,0c0,0.465,0,0.93,0,1.394
	c-0.325-0.046-0.303-0.439-0.279-0.836C36.581,113.571,36.581,113.385,36.581,113.199z"/>
<path fill-rule="evenodd" clip-rule="evenodd" fill="#181818" d="M30.728,121.56c0,2.509,0,5.018,0,7.525
	C30.264,127.224,30.264,123.422,30.728,121.56z"/>
<path fill-rule="evenodd" clip-rule="evenodd" fill="#181818" d="M27.941,121.839c0,0.836,0,1.672,0,2.509
	C27.48,124.136,27.48,122.051,27.941,121.839z"/>
<path fill-rule="evenodd" clip-rule="evenodd" fill="#CACACA" d="M38.532,122.118c0.378,0.087,0.231,0.698,0.278,1.115
	c-0.093,0-0.185,0-0.278,0C38.532,122.861,38.532,122.49,38.532,122.118z"/>
<path fill-rule="evenodd" clip-rule="evenodd" fill="#CACACA" d="M41.041,122.955c0.093,0,0.186,0,0.278,0c0,0.649,0,1.3,0,1.95
	C40.696,124.785,41.206,123.532,41.041,122.955z"/>
<path fill-rule="evenodd" clip-rule="evenodd" fill="#7C7C7C" d="M38.532,123.233c0.093,0,0.186,0,0.278,0
	c-0.183,1.861,0.368,4.455-0.278,5.853C38.532,127.134,38.532,125.183,38.532,123.233z"/>
<path fill-rule="evenodd" clip-rule="evenodd" fill="#181818" d="M20.973,124.069c0.093,0,0.186,0,0.279,0c0,0.371,0,0.744,0,1.114
	c-0.093,0-0.186,0-0.279,0C20.973,124.813,20.973,124.44,20.973,124.069z"/>
<path fill-rule="evenodd" clip-rule="evenodd" fill="#343434" d="M20.973,125.183c0.093,0,0.186,0,0.279,0c0,1.395,0,2.788,0,4.182
	c-0.093,0-0.186,0-0.279,0C20.973,127.971,20.973,126.578,20.973,125.183z"/>
<path fill-rule="evenodd" clip-rule="evenodd" fill="#7C7C7C" d="M33.793,133.824c-3.624-0.186-7.988,0.371-11.148-0.278
	c1.579,0,3.159,0,4.738,0c1.021,0,2.044,0,3.065,0c1.115,0,2.23,0,3.344,0C33.793,133.637,33.793,133.731,33.793,133.824z"/>
<path fill-rule="evenodd" clip-rule="evenodd" fill="#CACACA" d="M33.793,133.824c0-0.093,0-0.187,0-0.278c0.465,0,0.93,0,1.394,0
	C35.234,134.149,34.199,133.671,33.793,133.824z"/>
<path fill-rule="evenodd" clip-rule="evenodd" fill="#181818" d="M21.81,136.333c0.371,0,0.743,0,1.115,0c0,0.093,0,0.186,0,0.278
	C22.483,136.587,21.861,136.745,21.81,136.333z"/>
<path fill-rule="evenodd" clip-rule="evenodd" fill="#343434" d="M41.598,3.387c0.346-0.583,0.811-1.047,1.394-1.394
	C42.646,2.576,42.181,3.041,41.598,3.387z"/>
<path fill-rule="evenodd" clip-rule="evenodd" fill="#343434" d="M23.203,81.426c-0.491-0.252-0.863-0.623-1.115-1.115
	C22.58,80.563,22.951,80.935,23.203,81.426z"/>
<path fill-rule="evenodd" clip-rule="evenodd" fill="#7C7C7C" d="M1.185,98.707c0.648,0.467,1.178,1.052,1.951,1.393
	c-0.497,0.805-0.974,1.629-1.394,2.509c-0.412-0.146-0.703-0.413-1.115-0.557c-0.012-1.221,0.695-1.721,1.115-2.509
	C1.644,99.176,1.251,99.104,1.185,98.707z"/>
<path fill-rule="evenodd" clip-rule="evenodd" fill="#343434" d="M19.022,134.38c0.377,0.273,0.558,0.745,0.836,1.115
	C19.45,135.253,18.975,135.079,19.022,134.38z"/>
<path fill-rule="evenodd" clip-rule="evenodd" fill="#343434" d="M38.811,134.939c0.252-0.492,0.624-0.863,1.115-1.115
	C39.674,134.315,39.302,134.687,38.811,134.939z"/>
<path fill-rule="evenodd" clip-rule="evenodd" fill="#7C7C7C" d="M60.829,98.707c0.251-0.491,0.623-0.864,1.114-1.115
	C61.691,98.083,61.32,98.455,60.829,98.707z"/>
<path fill-rule="evenodd" clip-rule="evenodd" fill="#181818" d="M65.009,92.017c0-0.093,0-0.186,0-0.278
	c0.646-0.09,1.069,0.045,1.395,0.278c0.046,0.324-0.063,0.495-0.278,0.558c0-0.093,0-0.187,0-0.279
	C66.038,91.917,65.426,92.065,65.009,92.017z"/>
<path fill-rule="evenodd" clip-rule="evenodd" fill="#343434" d="M82.568,67.49c-0.555-1.209-0.915-2.614-1.395-3.902
	c1.747,0.855,4.161,1.043,6.411,1.394c-0.046,0.604,0.99,0.126,1.395,0.278c1.021,0,2.043,0,3.065,0
	c2.51,0.649,6.223,0.094,9.197,0.28c0.557,0,1.114,0,1.673,0c0.034,0.615,1.182,0.118,1.671,0.278c0.373,0,0.743,0,1.116,0
	c0.086,0.378,0.697,0.231,1.113,0.278c0.465,0,0.93,0,1.395,0c-0.048,0.604,0.988,0.127,1.395,0.279c0.37,0,0.743,0,1.114,0
	c0.086,0.378,0.696,0.231,1.115,0.279c1.827-0.097,4.214,1.668,4.738,3.066c1.378,3.674-1.188,6.496-3.624,7.525
	c-6.886,0.195-10.856-2.522-16.723-3.345c-0.086-0.379-0.697-0.231-1.116-0.278c-0.37,0-0.743,0-1.113,0
	c0.046-0.605-0.99-0.127-1.395-0.279c-0.278,0-0.557,0-0.835,0c0.046-0.604-0.99-0.126-1.395-0.278c-0.278,0-0.558,0-0.836,0
	c0.046-0.604-0.989-0.127-1.395-0.279c-0.278,0-0.557,0-0.835,0c-0.086-0.378-0.697-0.23-1.116-0.279
	c-1.426,0.22-2.023-0.391-3.344-0.278c0-0.557,0-1.113,0-1.672c0-0.371,0-0.743,0-1.115c0-0.093,0-0.186,0-0.278
	c0.249,0.216,0.629,0.299,1.114,0.278c0.088,0.378,0.699,0.231,1.116,0.279c1.32-0.206,1.915,0.313,3.064,0.278
	c0.087,0.379,0.699,0.231,1.116,0.279c0.278,0,0.557,0,0.836,0c-0.047,0.604,0.989,0.126,1.394,0.278c0.371,0,0.743,0,1.114,0
	c0.086,0.379,0.699,0.231,1.116,0.278c0.37,0,0.743,0,1.113,0c0.087,0.379,0.699,0.231,1.116,0.28
	c2.715,0.143,5.844,1.068,10.033,2.229c1.34,0.371,3.317,1.279,5.017,1.114c1.645-0.158,3.197-0.758,3.065-2.786
	c-0.119-1.854-1.834-2.334-4.18-2.508c0.046-0.604-0.989-0.127-1.395-0.279c-0.37,0-0.743,0-1.113,0
	c0.046-0.604-0.99-0.126-1.395-0.278c-0.373,0-0.743,0-1.116,0c0.048-0.604-0.987-0.126-1.393-0.279c-0.465,0-0.93,0-1.394,0
	c-2.511-0.649-6.223-0.094-9.198-0.279c-1.021,0-2.043,0-3.065,0c-0.208-0.629-1.563-0.109-2.229-0.279c-0.278,0-0.557,0-0.835,0
	c-0.087-0.378-0.699-0.231-1.116-0.279C84.409,67.863,83.33,66.657,82.568,67.49z"/>
<path fill-rule="evenodd" clip-rule="evenodd" fill="#343434" d="M57.206,1.436c0.491,0.252,0.863,0.624,1.115,1.115
	C57.829,2.299,57.458,1.927,57.206,1.436z"/>
<path fill-rule="evenodd" clip-rule="evenodd" fill="#CACACA" d="M15.121,36.275c0.578,0.165,0.95,0.536,1.115,1.115
	C15.744,37.138,15.372,36.767,15.121,36.275z"/>
<path fill-rule="evenodd" clip-rule="evenodd" fill="#7C7C7C" d="M41.041,62.752c-0.568-0.082-0.546-0.753-1.115-0.836
	c-0.053-0.225-0.28-0.278-0.278-0.557C40.229,61.705,40.694,62.169,41.041,62.752z"/>
<path fill-rule="evenodd" clip-rule="evenodd" fill="#CACACA" d="M41.598,59.408c0.396,0.533,0.861,0.998,1.394,1.394
	C42.186,60.678,41.721,60.214,41.598,59.408z"/>
<path fill-rule="evenodd" clip-rule="evenodd" fill="#CACACA" d="M77.552,81.426c0.449-0.386,0.882-0.79,1.393-1.115
	C78.586,80.789,78.369,81.407,77.552,81.426z"/>
<path fill-rule="evenodd" clip-rule="evenodd" fill="#343434" d="M58.321,11.469c0.402,0.156,0.68,0.435,0.835,0.836
	c0.051,0.238-0.108,0.263-0.278,0.279C59.081,11.824,58.324,12.023,58.321,11.469z"/>
<path fill-rule="evenodd" clip-rule="evenodd" fill="#CACACA" d="M19.301,98.427c0.492,0.252,0.863,0.623,1.115,1.115
	C19.924,99.292,19.552,98.918,19.301,98.427z"/>
<path fill-rule="evenodd" clip-rule="evenodd" fill="#343434" d="M36.86,132.988c0.251-0.491,0.624-0.863,1.115-1.115
	C37.723,132.365,37.351,132.736,36.86,132.988z"/>
<path fill-rule="evenodd" clip-rule="evenodd" fill="#CACACA" d="M37.975,99.821c0.252-0.491,0.623-0.863,1.114-1.114
	C38.838,99.198,38.466,99.57,37.975,99.821z"/>
<path fill-rule="evenodd" clip-rule="evenodd" fill="#343434" d="M20.137,82.262c0.492,0.251,0.864,0.624,1.115,1.115
	C20.76,83.125,20.389,82.753,20.137,82.262z"/>
<path fill-rule="evenodd" clip-rule="evenodd" fill="#7C7C7C" d="M26.269,85.049c0-0.093,0-0.186,0-0.279c1.115,0,2.229,0,3.344,0
	c0.038,0.459,1.914,0.459,1.951,0c2.882,0.185,6.501-0.369,8.919,0.279c-2.88,0-5.76,0-8.64,0c-0.643,0.751-0.099,2.688-0.279,3.902
	c-0.65,0-1.3,0-1.951,0c0-1.208,0-2.416,0-3.624C29.045,84.688,27.298,85.227,26.269,85.049z"/>
<path fill-rule="evenodd" clip-rule="evenodd" fill="#7C7C7C" d="M58.042,91.739c0.558,0,1.115,0,1.672,0c0.278,0,0.557,0,0.837,0
	c0.093,0,0.185,0,0.278,0c-0.46,0.619,0.059,1.511-0.278,1.673c-0.036-0.616-1.184-0.12-1.673-0.28
	c-0.045-0.326-0.508-0.235-0.836-0.278C58.042,92.482,58.042,92.11,58.042,91.739z"/>
<path fill-rule="evenodd" clip-rule="evenodd" fill="#181818" d="M29.056,118.216c0.252-0.492,0.624-0.863,1.115-1.115
	C29.919,117.592,29.547,117.964,29.056,118.216z"/>
<path fill-rule="evenodd" clip-rule="evenodd" fill="#343434" d="M46.894,65.818c-1.308,0.006-2.017,0.041-3.066-0.278
	c-0.56-0.17-0.917-0.562-1.672-1.116c-0.93-0.682-1.668-1.11-2.23-2.508c0.569,0.083,0.547,0.754,1.115,0.836
	c0.77,0.345,1.416,0.814,2.508,0.836c2.231,0.649,5.666,0.094,8.361,0.279c0.65,0,1.301,0,1.951,0
	c2.033,0.009,3.601,0.486,4.738,1.393c-1.032,0.177-1.66,0.757-3.066,0.558c-0.578,0.166-1.831-0.345-1.952,0.278
	c-0.557,0-1.114,0-1.672,0C50.79,65.452,48.477,66,46.894,65.818z"/>
<path fill-rule="evenodd" clip-rule="evenodd" fill="#181818" d="M63.616,68.605c0.242-0.408,0.417-0.883,1.114-0.836
	C64.458,68.146,63.987,68.327,63.616,68.605z"/>
<path fill-rule="evenodd" clip-rule="evenodd" fill="#343434" d="M29.613,88.952c0.65,0,1.301,0,1.951,0
	c0.18-1.214-0.363-3.151,0.279-3.902c0,1.394,0,2.786,0,4.181C31.177,89.06,29.821,89.58,29.613,88.952z"/>
<path fill-rule="evenodd" clip-rule="evenodd" fill="#343434" d="M57.763,91.739c0.093,0,0.187,0,0.279,0c0,0.371,0,0.743,0,1.114
	c0.329,0.043,0.792-0.048,0.836,0.278c-0.372,0-0.744,0-1.115,0C57.763,92.667,57.763,92.204,57.763,91.739z"/>
<path fill-rule="evenodd" clip-rule="evenodd" fill="#181818" d="M31.007,120.167c0.252-0.49,0.623-0.862,1.115-1.115
	C31.87,119.543,31.498,119.916,31.007,120.167z"/>
<path fill-rule="evenodd" clip-rule="evenodd" fill="#343434" d="M47.451,0.321c0.086-0.378,0.698-0.231,1.115-0.278
	c0,0.093,0,0.186,0,0.278C48.194,0.321,47.822,0.321,47.451,0.321z"/>
<path fill-rule="evenodd" clip-rule="evenodd" fill="#7C7C7C" d="M52.468,0.042c0.666,0.169,2.022-0.35,2.23,0.278
	c-0.743,0-1.487,0-2.23,0C52.468,0.229,52.468,0.135,52.468,0.042z"/>
<path fill-rule="evenodd" clip-rule="evenodd" fill="#181818" d="M47.729,3.108c0.086-0.378,0.698-0.231,1.115-0.279
	C48.758,3.208,48.146,3.061,47.729,3.108z"/>
<path fill-rule="evenodd" clip-rule="evenodd" fill="#CACACA" d="M56.927,6.174c0.636,0.387,0.104,1.94,0.279,2.787
	C56.57,8.575,57.102,7.021,56.927,6.174z"/>
<path fill-rule="evenodd" clip-rule="evenodd" fill="#343434" d="M65.289,10.912c5.203,0.185,11.147-0.371,15.885,0.279
	c-5.295,0-10.59,0-15.885,0C65.289,11.098,65.289,11.005,65.289,10.912z"/>
<path fill-rule="evenodd" clip-rule="evenodd" fill="#7C7C7C" d="M60.271,13.142c-0.637,0.822-0.912,2.629-2.229,1.951
	c-0.743-0.946,0.658-1.612,0.836-2.508c0.17-0.016,0.329-0.042,0.278-0.279C59.528,12.585,59.998,12.765,60.271,13.142z"/>
<path fill-rule="evenodd" clip-rule="evenodd" fill="#343434" d="M62.5,13.699c0.373,0,0.744,0,1.116,0c0,0.093,0,0.186,0,0.279
	C63.199,13.931,62.587,14.077,62.5,13.699z"/>
<path fill-rule="evenodd" clip-rule="evenodd" fill="#343434" d="M64.73,13.699c5.481,0.186,11.706-0.371,16.722,0.279
	c-5.573,0-11.146,0-16.722,0C64.73,13.885,64.73,13.792,64.73,13.699z"/>
<path fill-rule="evenodd" clip-rule="evenodd" fill="#343434" d="M87.028,25.962c-0.167,0.578,0.345,1.831-0.278,1.951
	c0-0.65,0-1.301,0-1.951C86.842,25.962,86.934,25.962,87.028,25.962z"/>
<path fill-rule="evenodd" clip-rule="evenodd" fill="#343434" d="M83.961,30.421c-0.152,0.405,0.326,1.441-0.278,1.394
	C83.837,31.41,83.357,30.375,83.961,30.421z"/>
<path fill-rule="evenodd" clip-rule="evenodd" fill="#343434" d="M86.75,30.701c-0.152,0.405,0.324,1.44-0.279,1.393
	c0-0.464,0-0.929,0-1.393C86.563,30.701,86.655,30.701,86.75,30.701z"/>
<path fill-rule="evenodd" clip-rule="evenodd" fill="#7C7C7C" d="M3.136,39.619c0,13.75,0,27.5,0,41.25c-0.093,0-0.186,0-0.279,0
	C3.043,67.211,2.485,52.812,3.136,39.619z"/>
<path fill-rule="evenodd" clip-rule="evenodd" fill="#CACACA" d="M43.27,40.456c0,0.743,0,1.487,0,2.229c-0.092,0-0.186,0-0.279,0
	C43.161,42.019,42.642,40.663,43.27,40.456z"/>
<path fill-rule="evenodd" clip-rule="evenodd" fill="#181818" d="M43.27,42.685c-0.047,0.417,0.1,1.029-0.279,1.115
	c0-0.372,0-0.743,0-1.115C43.084,42.685,43.178,42.685,43.27,42.685z"/>
<path fill-rule="evenodd" clip-rule="evenodd" fill="#7C7C7C" d="M17.071,45.751c0-0.558,0-1.115,0-1.672c0.093,0,0.186,0,0.279,0
	C17.189,44.569,17.687,45.716,17.071,45.751z"/>
<path fill-rule="evenodd" clip-rule="evenodd" fill="#181818" d="M38.811,54.67c0,0.372,0,0.743,0,1.115c-0.093,0-0.185,0-0.278,0
	C38.555,55.343,38.398,54.721,38.811,54.67z"/>
<path fill-rule="evenodd" clip-rule="evenodd" fill="#181818" d="M41.598,55.227c-0.047,0.417,0.1,1.029-0.279,1.116
	C41.342,55.901,41.185,55.279,41.598,55.227z"/>
<path fill-rule="evenodd" clip-rule="evenodd" fill="#343434" d="M9.268,57.178c0,0.372,0,0.743,0,1.115c-0.093,0-0.186,0-0.279,0
	C9.036,57.876,8.889,57.264,9.268,57.178z"/>
<path fill-rule="evenodd" clip-rule="evenodd" fill="#7C7C7C" d="M38.811,55.785c0,1.022,0,2.044,0,3.066
	c-0.638-0.478-0.102-2.128-0.278-3.066C38.625,55.785,38.718,55.785,38.811,55.785z"/>
<path fill-rule="evenodd" clip-rule="evenodd" fill="#7C7C7C" d="M9.268,58.293c0,0.743,0,1.486,0,2.23
	c-0.629-0.208-0.109-1.563-0.279-2.23C9.082,58.293,9.174,58.293,9.268,58.293z"/>
<path fill-rule="evenodd" clip-rule="evenodd" fill="#7C7C7C" d="M52.746,61.08c0.756,0.172,2.212-0.354,2.508,0.279
	c-0.836,0-1.672,0-2.508,0C52.746,61.266,52.746,61.173,52.746,61.08z"/>
<path fill-rule="evenodd" clip-rule="evenodd" fill="#7C7C7C" d="M82.847,69.441c-0.615-0.035-0.118-1.183-0.278-1.672
	c0.605-0.046,0.126,0.989,0.278,1.394C82.847,69.256,82.847,69.349,82.847,69.441z"/>
<path fill-rule="evenodd" clip-rule="evenodd" fill="#343434" d="M82.847,74.737c-0.152,0.405,0.327,1.441-0.278,1.394
	c0-0.464,0-0.929,0-1.394C82.661,74.737,82.755,74.737,82.847,74.737z"/>
<path fill-rule="evenodd" clip-rule="evenodd" fill="#181818" d="M25.711,81.984c0.441,0.022,1.063-0.135,1.115,0.278
	C26.409,82.214,25.797,82.362,25.711,81.984z"/>
<path fill-rule="evenodd" clip-rule="evenodd" fill="#343434" d="M63.338,81.984c4.087,0,8.176,0,12.263,0
	c-3.532,0.649-8.268,0.093-12.263,0.278C63.338,82.169,63.338,82.076,63.338,81.984z"/>
<path fill-rule="evenodd" clip-rule="evenodd" fill="#CACACA" d="M3.136,83.099c-0.629-0.209-0.109-1.564-0.279-2.23
	c0.093,0,0.186,0,0.279,0C3.136,81.612,3.136,82.354,3.136,83.099z"/>
<path fill-rule="evenodd" clip-rule="evenodd" fill="#343434" d="M25.154,84.77c0.372,0,0.743,0,1.115,0c0,0.094,0,0.187,0,0.279
	C25.852,85.001,25.24,85.149,25.154,84.77z"/>
<path fill-rule="evenodd" clip-rule="evenodd" fill="#343434" d="M63.338,84.77c1.579,0,3.157,0,4.738,0c0,0.094,0,0.187,0,0.279
	c-1.581,0-3.159,0-4.738,0C63.338,84.957,63.338,84.864,63.338,84.77z"/>
<path fill-rule="evenodd" clip-rule="evenodd" fill="#343434" d="M72.535,84.77c0.928,0,1.857,0,2.787,0
	c-0.387,0.637-1.941,0.104-2.787,0.279C72.535,84.957,72.535,84.864,72.535,84.77z"/>
<path fill-rule="evenodd" clip-rule="evenodd" fill="#7C7C7C" d="M3.136,94.525c0,0.559,0,1.115,0,1.673
	c0.414,0.917,0.434-0.827,0.836-0.836c-0.041-1.12,0.714-0.737,1.393-0.558c0.714,0.987-0.754,1.717-0.836,2.787
	c-1.499-0.081-1.829-1.33-1.672-3.066C2.95,94.525,3.043,94.525,3.136,94.525z"/>
<path fill-rule="evenodd" clip-rule="evenodd" fill="#343434" d="M41.598,97.591c0.052-0.413,0.674-0.256,1.115-0.278
	c0,0.092,0,0.186,0,0.278C42.341,97.591,41.97,97.591,41.598,97.591z"/>
<path fill-rule="evenodd" clip-rule="evenodd" fill="#7C7C7C" d="M3.415,100.099c4.459,0.186,9.661-0.37,13.657,0.28
	C12.611,100.193,7.41,100.75,3.415,100.099z"/>
<path fill-rule="evenodd" clip-rule="evenodd" fill="#7C7C7C" d="M36.86,102.608c0,2.416,0,4.831,0,7.246c-0.093,0-0.186,0-0.279,0
	C36.765,107.53,36.212,104.469,36.86,102.608z"/>
<path fill-rule="evenodd" clip-rule="evenodd" fill="#343434" d="M18.186,101.214c0.65,9.197,0.093,19.603,0.278,29.265
	c-0.092,0-0.185,0-0.278,0C18.186,120.724,18.186,110.97,18.186,101.214z"/>
<path fill-rule="evenodd" clip-rule="evenodd" fill="#7C7C7C" d="M41.041,120.446c0.632,0.297,0.106,1.751,0.278,2.509
	c-0.093,0-0.185,0-0.278,0C41.041,122.118,41.041,121.282,41.041,120.446z"/>
<path fill-rule="evenodd" clip-rule="evenodd" fill="#CACACA" d="M41.041,131.038c0.179-1.122-0.363-2.965,0.278-3.625
	C41.14,128.535,41.682,130.377,41.041,131.038z"/>
<path fill-rule="evenodd" clip-rule="evenodd" fill="#181818" d="M21.252,129.365c0,1.021,0,2.043,0,3.065
	c-0.638-0.478-0.103-2.127-0.279-3.065C21.066,129.365,21.159,129.365,21.252,129.365z"/>
<path fill-rule="evenodd" clip-rule="evenodd" fill="#7C7C7C" d="M18.464,130.479c0,0.743,0,1.486,0,2.229
	c-0.628-0.207-0.109-1.563-0.278-2.229C18.279,130.479,18.372,130.479,18.464,130.479z"/>
<path fill-rule="evenodd" clip-rule="evenodd" fill="#7C7C7C" d="M34.352,136.053c0.65,0,1.301,0,1.951,0
	c-0.12,0.623-1.374,0.113-1.951,0.279C34.352,136.239,34.352,136.146,34.352,136.053z"/>
<path fill-rule="evenodd" clip-rule="evenodd" fill="#343434" d="M22.924,136.333c1.486,0,2.973,0,4.459,0
	c-0.936,0.644-3.061,0.097-4.459,0.278C22.924,136.518,22.924,136.425,22.924,136.333z"/>
<path fill-rule="evenodd" clip-rule="evenodd" fill="#FFFFFF" d="M42.991,1.993c1.289-0.756,2.367-1.721,4.459-1.672
	c0.372,0,0.743,0,1.115,0c0.929,0,1.858,0,2.787,0c0.372,0,0.743,0,1.115,0c0.743,0,1.487,0,2.23,0
	c1.038,0.169,1.825,0.59,2.508,1.115c0.251,0.491,0.623,0.863,1.115,1.115c0.418,0.789,1.126,1.289,1.115,2.508
	c0.169,0.667-0.35,2.022,0.278,2.229c-0.092,1.021,0.31,1.549,0.557,2.23c0.413,0.703,1.08,1.152,1.951,1.394
	c0.187,0,0.373,0,0.56,0c0.294,0.632,1.751,0.106,2.508,0.279c5.295,0,10.59,0,15.885,0c3.771,0.504,5.902,2.645,5.854,6.968
	c0,1.579,0,3.159,0,4.738c0,0.185,0,0.372,0,0.557c-0.605-0.046-0.126,0.989-0.278,1.394c0,0.372,0,0.743,0,1.115
	c0,0.65,0,1.301,0,1.951c0,0.093,0,0.186,0,0.279c-0.605-0.047-0.127,0.988-0.279,1.394c0,0.372,0,0.743,0,1.115
	c0,0.464,0,0.929,0,1.393c-0.014,6.469-2.462,11.462-3.624,17.001c-0.809,3.857-1.216,7.739-1.673,12.264
	c-0.458,0.038-0.458,1.913,0,1.951c0,0.093,0,0.185,0,0.278c0.479,1.288,0.84,2.692,1.395,3.902c0,0.093,0,0.186,0,0.279
	c0.16,0.49-0.337,1.638,0.278,1.672c0,0.372,0,0.744,0,1.115c-0.615,0.035-0.118,1.183-0.278,1.672c0,0.837,0,1.673,0,2.509
	c0,0.465,0,0.93,0,1.394c-0.04,5.254-2.29,8.301-7.246,8.64c-0.93,0-1.859,0-2.787,0c-1.486,0-2.973,0-4.459,0
	c-1.581,0-3.159,0-4.738,0c-0.461,0.301-0.461,2.487,0,2.787c0,0.465,0,0.93,0,1.395c0,0.929,0,1.858,0,2.787
	c0,0.093,0,0.186,0,0.278c0,0.371,0,0.743,0,1.114c0,0.094,0,0.187,0,0.28c-0.12,1.736-0.497,3.219-1.395,4.18
	c-0.491,0.251-0.863,0.624-1.114,1.115c-0.916,0.942-2.378,1.338-4.181,1.393c-0.929,0-1.857,0-2.787,0c-1.394,0-2.787,0-4.181,0
	c-2.417,0.185-5.572-0.369-7.525,0.28c-2.051,0.177-2.805,1.653-2.787,3.901c-0.465,2.51-0.465,6.965,0,9.476
	c0.338,2.448,1.723,3.851,1.672,6.689c0,0.836,0,1.672,0,2.509c0.166,0.577-0.345,1.83,0.278,1.95c0,0.836,0,1.673,0,2.508
	c-0.641,0.66-0.1,2.503-0.278,3.625c-0.05,1.25-0.58,2.021-1.115,2.786c-0.491,0.252-0.863,0.623-1.115,1.115
	c-0.788,0.419-1.289,1.127-2.508,1.114c-0.65,0-1.301,0-1.951,0c-4.553,0-9.105,0-13.657,0c-0.204-0.26-0.507-0.422-0.836-0.558
	c-0.279-0.37-0.459-0.842-0.836-1.115c-0.486-0.255-0.615-0.871-0.558-1.672c0-0.743,0-1.486,0-2.229
	c-0.185-9.662,0.372-20.067-0.278-29.265c-0.242-0.407-0.417-0.884-1.115-0.835c-3.996-0.65-9.197-0.095-13.657-0.28
	c-0.093,0-0.186,0-0.279,0c-0.773-0.341-1.303-0.926-1.951-1.393c-0.093,0-0.186,0-0.279,0c-0.337-0.964-0.754-1.848-0.557-3.345
	c0-1.207,0-2.415,0-3.623c0-0.465,0-0.929,0-1.394c0.464-3.16,0.464-8.268,0-11.428c0-1.021,0-2.043,0-3.065
	c0-1.208,0-2.416,0-3.624c0-1.672,0-3.344,0-5.017c0-6.503,0-13.006,0-19.509c0-1.208,0-2.416,0-3.624c0-1.486,0-2.973,0-4.459
	c0.313-2.194,1.41-3.607,3.624-3.901c3.159,0,6.317,0,9.476,0c0.801-0.058,1.416,0.07,1.672,0.557
	c0.251,0.492,0.623,0.863,1.115,1.115c0.583,0.253,0.849,0.823,0.836,1.672c0,1.672,0,3.345,0,5.017c0,0.558,0,1.115,0,1.672
	c-0.414,5.253-4.333,7.001-5.017,11.984c-0.46,0.212-0.46,2.297,0,2.508c0.826,3.766,2.986,6.995,4.738,10.313
	c1.721,3.259,3.4,6.546,5.296,9.755c0.251,0.492,0.624,0.863,1.115,1.115c0.825,0.196,1.213,0.83,2.508,0.558
	c0.086,0.378,0.698,0.23,1.115,0.278c0.929,0,1.858,0,2.787,0c0.65,0,1.301,0,1.951,0c3.903,0.465,9.754,0.465,13.657,0
	c2.973,0,5.946,0,8.918,0c1.487,0,2.973,0,4.46,0c0.649,0,1.301,0,1.951,0c0.463-1.029,0.463-3.986,0-5.017c0-0.465,0-0.93,0-1.394
	c0-1.115,0-2.229,0-3.346c-0.18-1.12,0.361-2.963-0.28-3.623c0.002-1.765-0.969-2.56-1.671-3.624
	c-1.137-0.906-2.705-1.383-4.738-1.393c-0.12-0.624-1.374-0.113-1.951-0.279c-2.788,0-5.574,0-8.361,0
	c-1.092-0.022-1.739-0.491-2.508-0.836c-0.346-0.583-0.811-1.047-1.394-1.393c-0.639-0.477-0.659-1.571-0.836-2.508
	c0-1.022,0-2.044,0-3.066c0-0.372,0-0.743,0-1.115c0.406-4.332,1.262-8.214,1.672-12.542c0.378-0.086,0.231-0.698,0.278-1.114
	c0-0.651,0-1.301,0-1.951c0-1.115,0-2.23,0-3.344c0-1.116,0-2.23,0-3.345c-0.169-0.667,0.35-2.022-0.278-2.23
	c0-0.186,0-0.372,0-0.557c0-0.372,0-0.744,0-1.115c0-0.464,0-0.929,0-1.393c0-0.744,0-1.487,0-2.23
	c-0.16-0.49,0.337-1.638-0.278-1.672c0-0.186,0-0.372,0-0.558c0-0.372,0-0.743,0-1.115c0-0.464,0-0.929,0-1.394
	c0-0.65,0-1.3,0-1.951c-0.17-0.667,0.35-2.022-0.279-2.229c0-0.372,0-0.744,0-1.115c0-0.557,0-1.115,0-1.672
	c0-1.115,0-2.229,0-3.345c0-0.464,0-0.929,0-1.393c-0.142-2.372,0.844-3.616,1.672-5.017C42.181,3.041,42.646,2.576,42.991,1.993z
	 M49.681,2.829c-0.278,0-0.558,0-0.836,0c-0.417,0.048-1.028-0.099-1.115,0.279c-2.948,0.211-4.348,1.969-5.017,4.459
	c-0.604-0.047-0.126,0.988-0.279,1.393c0,1.672,0,3.344,0,5.017c0,0.929,0,1.858,0,2.787c0.169,0.667-0.35,2.022,0.279,2.229
	c0,0.186,0,0.372,0,0.558c0,0.372,0,0.743,0,1.115c0,0.464,0,0.929,0,1.394c0,0.557,0,1.115,0,1.672
	c0.169,0.666-0.35,2.022,0.278,2.229c0,0.093,0,0.186,0,0.279c0,0.371,0,0.743,0,1.114c0,0.465,0,0.929,0,1.394
	c0,0.743,0,1.486,0,2.229c0.173,0.756-0.354,2.211,0.279,2.508c0,0.278,0,0.558,0,0.836c0,1.858,0,3.716,0,5.574
	c0,0.186,0,0.372,0,0.558c-0.628,0.208-0.109,1.563-0.279,2.229c0,0.372,0,0.743,0,1.115c-0.215,4.058-1.371,7.176-1.394,11.427
	c-0.413,0.052-0.255,0.674-0.279,1.116c-0.137,1.251,0.142,2.088,0.279,3.065c0.124,0.806,0.588,1.271,1.394,1.394
	c1.938,0.57,4.867,0.15,7.247,0.278c0.296,0.633,1.751,0.106,2.508,0.279c0.836,0,1.672,0,2.508,0
	c1.382,0.105,2.61,0.363,3.624,0.836c0.973,0.792,2.107,1.422,2.787,2.509c0.375,0.183,0.519,0.595,0.557,1.115
	c1.042,1.932,0.838,5.109,0.838,8.083c0,2.137,0,4.273,0,6.41c0.164,0.578-0.345,1.831,0.278,1.951
	c3.995-0.186,8.73,0.371,12.263-0.278c1.02,0.184,1.07-0.604,1.951-0.558c0.817-0.02,1.034-0.638,1.393-1.115
	c0.15-0.966,0.747-1.483,0.838-2.509c0.623-0.12,0.111-1.373,0.278-1.95c0-0.465,0-0.93,0-1.395c0-0.278,0-0.557,0-0.835
	c0.463-0.938,0.463-3.801,0-4.739c-0.063-0.216-0.009-0.55-0.278-0.557c0.027-0.865-0.341-1.332-0.558-1.951
	c-0.038-1.263-0.683-1.919-0.837-3.065c0-0.465,0-0.929,0-1.394c0.635-0.387,0.104-1.939,0.278-2.787
	c0.533-3.882,0.777-7.426,1.395-10.59c0.096-0.492,0.144-1.119,0.278-1.673c0.02-0.086,0.517-0.426,0.557-0.557
	c0.104-0.341-0.098-0.773,0-1.115c0.455-1.583,1.032-2.8,1.395-4.459c0.593-2.718,1.528-5.573,1.393-8.919
	c0.604,0.047,0.126-0.989,0.278-1.394c0-0.185,0-0.371,0-0.557c0.415-0.052,0.257-0.673,0.28-1.114c0-0.465,0-0.929,0-1.394
	c0-0.558,0-1.114,0-1.672c0-0.093,0-0.186,0-0.278c0.604,0.047,0.126-0.989,0.278-1.394c0-0.65,0-1.301,0-1.951
	c0-0.464,0-0.929,0-1.394c-0.178-1.03,0.361-2.776-0.278-3.345c0-0.372,0-0.743,0-1.115c-0.705-0.968-1.555-1.791-2.789-2.229
	c-5.016-0.65-11.24-0.093-16.722-0.279c-0.371,0-0.743,0-1.114,0c-0.372,0-0.743,0-1.116,0c-1.02,0.092-1.548-0.31-2.229-0.558
	c-0.272-0.376-0.742-0.557-1.114-0.836c-0.155-0.401-0.434-0.68-0.835-0.836c-0.42-0.789-1.127-1.288-1.115-2.508
	c-0.175-0.847,0.356-2.4-0.279-2.787c-0.417-1.906-1.615-3.03-3.623-3.345C52.732,2.367,50.252,2.367,49.681,2.829z M5.087,38.226
	c-0.927,0.188-1.702,0.527-1.951,1.393c-0.65,13.192-0.093,27.592-0.279,41.25c0.17,0.666-0.35,2.021,0.279,2.23
	c0,0.092,0,0.185,0,0.278c-0.649,2.788-0.094,6.781-0.279,10.034c0,0.37,0,0.743,0,1.113c-0.156,1.736,0.174,2.985,1.672,3.066
	c0.093,0,0.186,0,0.278,0c1.677,0.464,5.291,0.464,6.968,0c2.542,0.244,6.229-0.655,7.525,0.836
	c0.251,0.491,0.624,0.864,1.115,1.115c0.413,0.236,0.599,0.701,0.557,1.394c0,7.711,0,15.422,0,23.133c0,0.371,0,0.744,0,1.114
	c0,1.395,0,2.788,0,4.182c0.176,0.938-0.359,2.588,0.279,3.065c-0.04,0.876,0.714,0.958,1.394,1.115
	c3.16,0.649,7.524,0.093,11.148,0.278c0.405-0.152,1.441,0.325,1.394-0.278c0.877,0.133,1.09-0.396,1.672-0.558
	c0.491-0.252,0.863-0.623,1.115-1.115c0.176-0.938,0.8-1.43,0.558-2.787c0.646-1.397,0.096-3.991,0.278-5.853
	c-0.047-0.417,0.1-1.028-0.278-1.115c0.083-1.942-0.531-3.186-0.836-4.737c-0.312-0.897-0.762-1.653-0.836-2.788
	c0-0.464,0-0.929,0-1.394c0-1.115,0-2.229,0-3.345c0-2.415,0-4.83,0-7.246c0.216-1.084,0.222-2.379,1.115-2.787
	c0.491-0.251,0.863-0.623,1.114-1.114c0.42-0.789,1.445-0.971,2.509-1.115c0.372,0,0.744,0,1.115,0c0.65,0,1.301,0,1.951,0
	c0.743,0,1.486,0,2.23,0c3.345-0.185,7.431,0.37,10.313-0.278c2.194-0.221,3.125-1.706,3.345-3.901
	c0.337-0.162-0.182-1.054,0.278-1.673c0-0.465,0-0.929,0-1.394c-0.182-1.676,0.367-4.083-0.278-5.296
	c-1.028-0.645-3.248-0.098-4.739-0.279c-4.924,0.186-10.59-0.37-15.051,0.279c-0.092,0-0.186,0-0.278,0
	c-2.417-0.648-6.037-0.095-8.919-0.279c-0.65,0-1.3,0-1.951,0c-1.115,0-2.229,0-3.344,0c-0.372,0-0.744,0-1.115,0
	c-1.848,0.083-2.822-0.709-3.902-1.393c-0.251-0.491-0.624-0.864-1.115-1.115c-2.27-3.252-3.996-6.826-5.853-10.313
	c-1.878-3.525-4.232-7.029-5.017-11.427c0-0.744,0-1.487,0-2.23c0-0.372,0-0.743,0-1.115c0.669-5.276,4.654-7.237,5.295-12.542
	c0.463-0.846,0.463-3.613,0-4.459c-0.165-1.137-0.815-1.787-1.951-1.951C10.75,37.762,6.949,37.762,5.087,38.226z"/>
<path fill-rule="evenodd" clip-rule="evenodd" fill="#181818" d="M62.781,10.912c0.835,0,1.671,0,2.508,0c0,0.093,0,0.186,0,0.279
	C64.532,11.018,63.075,11.544,62.781,10.912z"/>
<path fill-rule="evenodd" clip-rule="evenodd" fill="#343434" d="M84.241,25.684c0,0.558,0,1.115,0,1.672c-0.094,0-0.187,0-0.28,0
	C84.123,26.866,83.624,25.719,84.241,25.684z"/>
<path fill-rule="evenodd" clip-rule="evenodd" fill="#181818" d="M12.054,57.735c0,0.836,0,1.672,0,2.508
	C11.594,60.032,11.594,57.947,12.054,57.735z"/>
<path fill-rule="evenodd" clip-rule="evenodd" fill="#343434" d="M58.878,62.195c1.585-0.644,3.861-0.599,6.131-0.557
	c0.387,0.635,1.941,0.104,2.789,0.278c0.464,0,0.927,0,1.392,0c0.087,0.378,0.699,0.231,1.116,0.279c0.278,0,0.557,0,0.835,0
	c0.087,0.378,0.697,0.231,1.116,0.279c0.278,0,0.557,0,0.836,0c0.086,0.378,0.697,0.231,1.113,0.278c0.28,0,0.56,0,0.838,0
	c0.086,0.379,0.697,0.231,1.113,0.279c0.187,0,0.373,0,0.56,0c0.086,0.378,0.697,0.231,1.113,0.279c0.187,0,0.371,0,0.558,0
	c0.154,1.146,0.799,1.802,0.837,3.065c-0.947-0.261-2.043-0.373-3.067-0.557c-0.086-0.378-0.697-0.231-1.113-0.278
	c-1.804,0.037-3.056-0.476-4.738-0.558c-0.086-0.378-0.699-0.231-1.116-0.278c-0.37,0-0.743,0-1.113,0
	c-0.209-0.629-1.565-0.109-2.23-0.279c-1.306,0.18-3.337-0.364-4.181,0.279C60.985,63.617,59.851,62.987,58.878,62.195z"/>
<path fill-rule="evenodd" clip-rule="evenodd" fill="#343434" d="M62.222,65.818c2.393-1.593,4.744-0.574,6.968,0
	c3.753,0.968,7.311,1.914,10.593,2.787c0-0.093,0-0.186,0-0.279c0.27,0.007,0.216,0.341,0.278,0.557c0,0.929,0,1.859,0,2.788
	c-5.209-1.203-9.847-2.974-15.33-3.902c-0.697-0.047-0.872,0.428-1.114,0.836c-0.515,1.343-0.19,3.527-0.278,5.295
	c-0.094,0-0.187,0-0.278,0C63.06,70.927,63.264,67.75,62.222,65.818z"/>
<path fill-rule="evenodd" clip-rule="evenodd" fill="#343434" d="M80.061,74.458c0,0.465,0,0.93,0,1.395c-0.093,0-0.187,0-0.278,0
	C79.934,75.447,79.455,74.411,80.061,74.458z"/>
<path fill-rule="evenodd" clip-rule="evenodd" fill="#181818" d="M42.155,100.379c1.953-0.649,5.108-0.096,7.525-0.28
	C47.727,100.748,44.572,100.195,42.155,100.379z"/>
<path fill-rule="evenodd" clip-rule="evenodd" fill="#343434" d="M20.973,100.936c0.65,7.154,0.093,15.515,0.279,23.133
	c-0.093,0-0.186,0-0.279,0C20.973,116.358,20.973,108.647,20.973,100.936z"/>
<path fill-rule="evenodd" clip-rule="evenodd" fill="#343434" d="M30.171,117.101c1.449-1.431,4.722-1.038,6.131-2.509
	c0.043-0.328-0.048-0.79,0.279-0.836c-0.024,0.396-0.046,0.79,0.279,0.836c0.074,1.135,0.524,1.891,0.836,2.788
	c-1.693,0.722-3.421,1.409-5.574,1.671c-0.492,0.253-0.863,0.625-1.115,1.115c0.23,0.787-0.393,0.723-0.279,1.394
	c-0.464,1.862-0.464,5.664,0,7.525c-0.134,1.444,0.3,3.459-0.279,4.46c-1.021,0-2.044,0-3.065,0c1.139-2.113,0.3-6.202,0.558-9.197
	c0-0.837,0-1.673,0-2.509c-0.145-1.724,0.451-2.707,1.114-3.623C29.547,117.964,29.919,117.592,30.171,117.101z"/>
<path fill-rule="evenodd" clip-rule="evenodd" fill="#CACACA" d="M3.972,35.718c2.511-0.465,6.965-0.465,9.476,0
	C10.289,35.718,7.131,35.718,3.972,35.718z"/>
<path fill-rule="evenodd" clip-rule="evenodd" fill="#CACACA" d="M17.071,39.062c0.645,1.12,0.097,3.434,0.279,5.017
	c-0.093,0-0.186,0-0.279,0C17.071,42.407,17.071,40.734,17.071,39.062z"/>
<path fill-rule="evenodd" clip-rule="evenodd" fill="#7C7C7C" d="M78.666,59.129c-0.175,0.848,0.356,2.4-0.278,2.787
	C78.562,61.069,78.031,59.516,78.666,59.129z"/>
<path fill-rule="evenodd" clip-rule="evenodd" fill="#CACACA" d="M80.061,75.852c-0.167,0.577,0.345,1.83-0.278,1.95
	c0-0.649,0-1.3,0-1.95C79.874,75.852,79.968,75.852,80.061,75.852z"/>
<path fill-rule="evenodd" clip-rule="evenodd" fill="#CACACA" d="M20.694,136.053c4.552,0,9.104,0,13.657,0c0,0.093,0,0.186,0,0.279
	c-2.323,0-4.646,0-6.968,0c-1.487,0-2.973,0-4.459,0c-0.372,0-0.744,0-1.115,0C21.368,136.309,20.747,136.466,20.694,136.053z"/>
<path fill-rule="evenodd" clip-rule="evenodd" fill="#7C7C7C" d="M59.436,5.059c0.628,0.208,0.108,1.563,0.278,2.229
	C59.086,7.082,59.604,5.726,59.436,5.059z"/>
<path fill-rule="evenodd" clip-rule="evenodd" fill="#7C7C7C" d="M60.271,9.519c0.238-0.051,0.265,0.109,0.28,0.278
	c0.703-0.412,1.15-1.078,1.393-1.951c0.693-0.043,0.863,0.438,1.395,0.558c-0.064,1.145-1.23,1.186-1.116,2.508
	C61.351,10.67,60.684,10.222,60.271,9.519z"/>
<path fill-rule="evenodd" clip-rule="evenodd" fill="#343434" d="M60.271,68.884c0.642,0.66,0.101,2.502,0.28,3.623
	c-0.094,0-0.186,0-0.28,0C60.271,71.299,60.271,70.091,60.271,68.884z"/>
</svg>
