<?xml version="1.0" encoding="utf-8"?>
<!-- Generator: Adobe Illustrator 15.0.0, SVG Export Plug-In  -->
<!DOCTYPE svg PUBLIC "-//W3C//DTD SVG 1.1//EN" "http://www.w3.org/Graphics/SVG/1.1/DTD/svg11.dtd" [
	<!ENTITY ns_flows "http://ns.adobe.com/Flows/1.0/">
]>
<svg version="1.1"
	 xmlns="http://www.w3.org/2000/svg" xmlns:xlink="http://www.w3.org/1999/xlink" xmlns:a="http://ns.adobe.com/AdobeSVGViewerExtensions/3.0/"
	 x="0px" y="0px" width="142px" height="142px" viewBox="-9.754 -2.224 142 142" enable-background="new -9.754 -2.224 142 142"
	 xml:space="preserve">
<defs>
</defs>
<path fill-rule="evenodd" clip-rule="evenodd" fill="#D6D6D6" d="M8.919,38.312c-0.047-0.604,0.988-0.126,1.393-0.279
	c0,0.093,0,0.186,0,0.279C9.849,38.312,9.384,38.312,8.919,38.312z"/>
<path fill-rule="evenodd" clip-rule="evenodd" fill="#ABABAB" d="M10.313,38.312c0-0.093,0-0.186,0-0.279c1.58,0,3.159,0,4.738,0
	c0,0.093,0,0.186,0,0.279C13.472,38.312,11.892,38.312,10.313,38.312z"/>
<path fill-rule="evenodd" clip-rule="evenodd" fill="#D6D6D6" d="M15.051,38.312c0-0.093,0-0.186,0-0.279
	c0.405,0.153,1.44-0.325,1.394,0.279C15.98,38.312,15.515,38.312,15.051,38.312z"/>
<path fill-rule="evenodd" clip-rule="evenodd" fill="#D6D6D6" d="M18.396,40.82c0.616,0.034,0.118,1.182,0.278,1.672
	c-0.093,0-0.186,0-0.278,0C18.396,41.935,18.396,41.377,18.396,40.82z"/>
<path fill-rule="evenodd" clip-rule="evenodd" fill="#323232" d="M4.181,42.493c0,2.787,0,5.574,0,8.361
	C3.717,48.714,3.717,44.632,4.181,42.493z"/>
<path fill-rule="evenodd" clip-rule="evenodd" fill="#ABABAB" d="M18.396,42.493c0.093,0,0.186,0,0.278,0
	c-0.16,0.49,0.337,1.638-0.278,1.672C18.396,43.607,18.396,43.05,18.396,42.493z"/>
<path fill-rule="evenodd" clip-rule="evenodd" fill="#323232" d="M4.181,54.477c0,1.394,0,2.788,0,4.181
	C3.718,57.903,3.718,55.231,4.181,54.477z"/>
<path fill-rule="evenodd" clip-rule="evenodd" fill="#323232" d="M13.1,58.101c0,0.65,0,1.301,0,1.951
	C12.641,60.014,12.641,58.138,13.1,58.101z"/>
<path fill-rule="evenodd" clip-rule="evenodd" fill="#323232" d="M0,59.215c0.844-0.643,2.875-0.098,4.181-0.278
	c0,0.092,0,0.186,0,0.278C2.788,59.215,1.394,59.215,0,59.215z"/>
<path fill-rule="evenodd" clip-rule="evenodd" fill="#ABABAB" d="M6.689,59.215c0.459,0.038,0.459,1.913,0,1.951
	C6.689,60.516,6.689,59.865,6.689,59.215z"/>
<path fill-rule="evenodd" clip-rule="evenodd" fill="#323232" d="M44.594,71.479c0.605-0.048,0.127,0.988,0.279,1.393
	c-0.093,0-0.186,0-0.279,0C44.594,72.408,44.594,71.944,44.594,71.479z"/>
<path fill-rule="evenodd" clip-rule="evenodd" fill="#D6D6D6" d="M4.181,71.757c0.463,1.214,0.463,4.359,0,5.574
	C4.181,75.473,4.181,73.616,4.181,71.757z"/>
<path fill-rule="evenodd" clip-rule="evenodd" fill="#727272" d="M44.594,72.872c0.093,0,0.187,0,0.279,0c0,0.744,0,1.487,0,2.23
	c-0.093,0-0.186,0-0.279,0C44.594,74.359,44.594,73.616,44.594,72.872z"/>
<path fill-rule="evenodd" clip-rule="evenodd" fill="#D6D6D6" d="M42.086,73.708c0.615,0.035,0.119,1.182,0.279,1.672
	c-0.093,0-0.186,0-0.279,0C42.086,74.823,42.086,74.265,42.086,73.708z"/>
<path fill-rule="evenodd" clip-rule="evenodd" fill="#ABABAB" d="M44.594,75.102c0.093,0,0.187,0,0.279,0c0,0.836,0,1.672,0,2.508
	c-0.093,0-0.186,0-0.279,0C44.594,76.774,44.594,75.938,44.594,75.102z"/>
<path fill-rule="evenodd" clip-rule="evenodd" fill="#ABABAB" d="M42.086,75.38c0.093,0,0.186,0,0.279,0c0,0.836,0,1.672,0,2.508
	c-0.093,0-0.186,0-0.279,0C42.086,77.052,42.086,76.216,42.086,75.38z"/>
<path fill-rule="evenodd" clip-rule="evenodd" fill="#D6D6D6" d="M44.594,77.61c0.093,0,0.187,0,0.279,0c0,0.372,0,0.743,0,1.115
	C44.46,78.673,44.618,78.051,44.594,77.61z"/>
<path fill-rule="evenodd" clip-rule="evenodd" fill="#727272" d="M42.086,77.888c0.093,0,0.186,0,0.279,0c0,0.744,0,1.487,0,2.23
	c-0.093,0-0.186,0-0.279,0C42.086,79.375,42.086,78.632,42.086,77.888z"/>
<path fill-rule="evenodd" clip-rule="evenodd" fill="#727272" d="M44.873,82.348c0.615,0.035,0.119,1.182,0.278,1.672
	c-0.093,0-0.185,0-0.278,0C44.873,83.463,44.873,82.905,44.873,82.348z"/>
<path fill-rule="evenodd" clip-rule="evenodd" fill="#D6D6D6" d="M42.365,84.02c0.378,0.087,0.231,0.698,0.278,1.115
	c-0.093,0-0.185,0-0.278,0C42.365,84.763,42.365,84.392,42.365,84.02z"/>
<path fill-rule="evenodd" clip-rule="evenodd" fill="#ABABAB" d="M44.873,84.02c0.093,0,0.186,0,0.278,0c0,0.372,0,0.743,0,1.115
	c0,0.744,0,1.486,0,2.229c-0.093,0-0.185,0-0.278,0C44.873,86.25,44.873,85.135,44.873,84.02z"/>
<path fill-rule="evenodd" clip-rule="evenodd" fill="#ABABAB" d="M42.365,85.135c0.093,0,0.186,0,0.278,0c0,0.836,0,1.673,0,2.508
	c-0.093,0-0.185,0-0.278,0C42.365,86.808,42.365,85.971,42.365,85.135z"/>
<path fill-rule="evenodd" clip-rule="evenodd" fill="#ABABAB" d="M12.264,97.677c-0.663,0.463-3.239,0.463-3.902,0
	C9.662,97.677,10.963,97.677,12.264,97.677z"/>
<path fill-rule="evenodd" clip-rule="evenodd" fill="#323232" d="M38.184,101.022c0.577,0.165,1.831-0.345,1.951,0.278
	C39.558,101.135,38.304,101.645,38.184,101.022z"/>
<path fill-rule="evenodd" clip-rule="evenodd" fill="#D6D6D6" d="M43.201,102.416c0,0.092,0,0.187,0,0.278c0,0.093,0,0.187,0,0.279
	c0,0.465,0,0.929,0,1.394c-0.094,0-0.187,0-0.28,0C43.088,103.789,42.578,102.536,43.201,102.416z"/>
<path fill-rule="evenodd" clip-rule="evenodd" fill="#323232" d="M43.201,102.973c0-0.093,0-0.187,0-0.279
	c0.417,0.048,1.028-0.1,1.114,0.279C43.944,102.973,43.572,102.973,43.201,102.973z"/>
<path fill-rule="evenodd" clip-rule="evenodd" fill="#ABABAB" d="M40.414,103.251c0.093,0,0.186,0,0.279,0
	c-0.185,2.975,0.37,6.688-0.279,9.197C40.414,109.383,40.414,106.317,40.414,103.251z"/>
<path fill-rule="evenodd" clip-rule="evenodd" fill="#ABABAB" d="M42.921,104.367c0.093,0,0.186,0,0.28,0c0,1.765,0,3.53,0,5.295
	c-0.094,0-0.187,0-0.28,0C42.921,107.897,42.921,106.131,42.921,104.367z"/>
<path fill-rule="evenodd" clip-rule="evenodd" fill="#323232" d="M37.348,116.073c0.052-0.413,0.674-0.257,1.115-0.278
	C38.376,116.171,37.765,116.024,37.348,116.073z"/>
<path fill-rule="evenodd" clip-rule="evenodd" fill="#727272" d="M19.51,116.908c0-0.092,0-0.186,0-0.278c0.929,0,1.858,0,2.787,0
	c0,0.465,0,0.93,0,1.395C21.853,117.167,19.106,118.613,19.51,116.908z"/>
<path fill-rule="evenodd" clip-rule="evenodd" fill="#ABABAB" d="M24.806,116.629c0.452-0.199,0.452,1.314,0,1.115
	C24.806,117.373,24.806,117.001,24.806,116.629z"/>
<path fill-rule="evenodd" clip-rule="evenodd" fill="#323232" d="M31.774,121.925c0,0.464,0,0.929,0,1.394
	C31.318,123.444,31.318,121.799,31.774,121.925z"/>
<path fill-rule="evenodd" clip-rule="evenodd" fill="#323232" d="M34.282,123.041c0.048-0.418-0.1-1.029,0.279-1.115
	c0,0.371,0,0.743,0,1.115C34.468,123.041,34.375,123.041,34.282,123.041z"/>
<path fill-rule="evenodd" clip-rule="evenodd" fill="#727272" d="M34.282,123.041c0.093,0,0.186,0,0.279,0c0,2.321,0,4.645,0,6.967
	c-0.093,0-0.186,0-0.279,0C34.282,127.685,34.282,125.362,34.282,123.041z"/>
<path fill-rule="evenodd" clip-rule="evenodd" fill="#727272" d="M22.019,126.942c0.093,0,0.186,0,0.278,0c0,1.394,0,2.787,0,4.182
	c-0.092,0-0.185,0-0.278,0C22.019,129.729,22.019,128.335,22.019,126.942z"/>
<path fill-rule="evenodd" clip-rule="evenodd" fill="#D6D6D6" d="M31.774,129.729c0.46,0.3,0.46,2.487,0,2.787
	C31.774,131.586,31.774,130.659,31.774,129.729z"/>
<path fill-rule="evenodd" clip-rule="evenodd" fill="#323232" d="M22.019,131.124c0.093,0,0.186,0,0.278,0c0,0.463,0,0.928,0,1.393
	C21.693,132.564,22.171,131.528,22.019,131.124z"/>
<path fill-rule="evenodd" clip-rule="evenodd" fill="#323232" d="M24.806,131.124c0.413,0.051,0.255,0.673,0.279,1.113
	C24.706,132.151,24.853,131.54,24.806,131.124z"/>
<path fill-rule="evenodd" clip-rule="evenodd" fill="#ABABAB" d="M28.429,133.91c0-0.093,0-0.187,0-0.278c0.372,0,0.743,0,1.115,0
	C29.458,134.009,28.846,133.863,28.429,133.91z"/>
<path fill-rule="evenodd" clip-rule="evenodd" fill="#D6D6D6" d="M27.593,136.418c-0.047-0.604,0.988-0.127,1.394-0.279
	c0,0.093,0,0.186,0,0.279C28.521,136.418,28.057,136.418,27.593,136.418z"/>
<path fill-rule="evenodd" clip-rule="evenodd" fill="#323232" d="M25.921,136.418c0.557,0,1.115,0,1.672,0c0.464,0,0.929,0,1.394,0
	c0.651,0,1.301,0,1.952,0C29.908,136.882,26.951,136.882,25.921,136.418z"/>
<path fill-rule="evenodd" clip-rule="evenodd" fill="#323232" d="M44.873,80.676c0.327,0.044,0.235,0.508,0.278,0.836
	c-0.321,1.259,1.175,0.788,1.672,0.836c5.057,0.486,11.921-0.363,17.279,0c0.507-2.625,0.28-5.855,0.28-8.919
	c0-2.683-0.094-4.532,0.836-6.132c0.629-1.081,0.629-1.408,1.951-1.951c2.09-0.857,5.596,0.51,8.919,1.394
	c2.713,0.722,5.428,1.692,7.804,1.951c-0.451-0.571-0.219-1.827-0.836-2.23c-3.005-0.722-5.796-1.038-8.641-1.394
	c-2.923-0.365-6.034-0.946-9.197-0.558c-2.157,0.265-4.53,1.461-6.689,1.672c-1.808,0.177-4.083,0.13-6.132,0
	c-1.827-0.115-4.579-0.362-5.853-1.115c-2.091-1.235-3.92-3.664-4.181-6.967c-0.36-4.561,1.563-10,1.951-15.33
	c0.42-5.767-0.062-11.995-0.278-17.837c-0.243-6.547-0.914-13.179-0.279-18.116c0.061-0.471,0.687-2.104,1.115-2.787
	c0.152-0.242,0.676-0.329,0.836-0.558c0.186-0.266,0.062-0.62,0.278-0.836c0.248-0.248,1.01-0.583,1.394-0.836
	c1.171-0.774,2.39-1.43,4.738-1.672c2.604-0.269,6.302-0.131,7.804,0.558c0.156,0.071,0.519,0.62,0.836,0.836
	c0.308,0.209,0.582,0.31,0.836,0.557c0.539,0.524,1.229,1.316,1.394,1.672c1.238,2.676-0.248,4.099,1.395,6.131
	c1.611,1.996,6.733,1.394,10.869,1.394c3.986,0,8.997-0.679,11.705,0.278c1.166,0.412,3.128,2.21,3.625,3.624
	c0.648,1.851,0.278,4.445,0.278,6.689c0,6.067-0.491,13.809-1.673,18.674c-0.437,1.802-1.187,3.599-1.673,5.295
	c-1.529,5.329-2.198,10.945-2.509,17.837c1.301,0.932,3.094,0.848,4.738,1.115c7.589,1.232,18.037,0.302,25.642,1.951
	c2.851,0.618,5.07,1.862,5.297,4.739c0.213,2.717-1.767,5.366-4.181,5.853c-2.458,0.494-5.268-0.489-7.525-1.115
	c-4.243-1.176-9.013-2.452-14.216-3.065c-2.601-0.308-5.188-0.458-7.804-0.837c-0.576,3.584-0.526,6.438-1.673,8.919
	c-0.348,0.756-1.1,1.813-2.228,2.509c-3.104,1.913-9.47,0.846-15.608,1.114c-0.813,4.365,0.429,9.423-1.116,12.264
	c-0.096,0.179-0.412,0.325-0.557,0.558c-2.687,4.367-12.363,1.45-18.952,2.508c-0.828,0.134-2.324,0.154-2.508,1.394
	c-0.278,0-0.558,0-0.836,0c0-0.464,0-0.929,0-1.394c0.042-0.886,0.632-1.226,0.558-2.229c3.853-1.727,16.679,0.863,19.231-1.394
	c2.612-2.31,0.343-7.333,1.115-11.706c-5.958,0.548-12.84,0.168-19.232,0.279c0-0.372,0-0.743,0-1.115
	c-0.16-0.49,0.337-1.637-0.278-1.672C44.873,81.791,44.873,81.233,44.873,80.676z M78.319,13.785c-1.845,0-3.678-0.029-5.575,0
	c-1.974,0.03-4.022,0.393-5.573,0.279c-2.853-0.21-4.988-1.799-5.854-3.902c-0.544-1.324-0.437-3.542-0.836-4.738
	c-0.86-2.583-4.249-3.002-8.361-2.509c-2.173,0.262-3.86,1.181-4.459,2.509c-0.045,0.101-0.494,0.157-0.557,0.279
	c-0.425,0.818-0.781,3.14-0.836,4.738c-0.08,2.312,0.222,4.949,0.279,7.804c0.181,9.169,1.116,20.057,0,28.428
	c-0.5,3.746-2.298,10.523-0.836,13.657c0.264,0.567,1.709,2.095,1.95,2.23c1.144,0.64,3.258,0.742,5.017,0.836
	c1.928,0.103,4.325,0.157,5.854,0c2.428-0.251,4.591-1.439,6.689-1.672c3.159-0.351,5.982,0.248,8.641,0.557
	c2.753,0.32,5.371,0.626,8.36,1.115c0.358-6.405,1.031-12.394,2.508-17.559c0.743-2.602,1.799-5.553,2.229-7.804
	c0.185-0.958,0.146-2.008,0.279-3.065c0.787-6.232,1.206-12.359,0.557-19.231C85.673,13.106,81.763,13.785,78.319,13.785z
	 M86.679,69.527c2.909,0.094,5.602,0.78,8.362,1.115c2.757,0.335,5.582,0.417,8.639,1.115c1.993,0.455,4.734,1.536,7.527,2.229
	c1.818,0.452,6.688,1.525,6.688-1.951c0-2.958-3.673-2.767-6.409-3.066c-2.854-0.311-6.441-0.89-8.919-0.836
	c-5.565,0.123-12.333,0.093-16.166-1.115C86.183,68.167,86.83,68.45,86.679,69.527z M68.841,67.855
	c-0.489-0.06-0.97,0.262-1.114,0.558c-1.256,1.328-0.657,3.886-0.557,5.853c0.136,2.709-0.104,5.601,0,8.083
	c4.586-0.574,11.992,0.756,14.492-1.115c2.383-1.781,2.102-4.954,2.23-9.476C79.423,70.699,73.271,68.394,68.841,67.855z"/>
<path fill-rule="evenodd" clip-rule="evenodd" fill="#727272" d="M30.938,66.461c0.345-0.583,0.81-1.047,1.393-1.394
	C31.985,65.651,31.52,66.116,30.938,66.461z"/>
<path fill-rule="evenodd" clip-rule="evenodd" fill="#323232" d="M4.181,39.705c0.312-1.36,0.622-2.722,1.951-3.065
	c-0.703,0.877-1.524,1.635-1.672,3.065C4.367,39.705,4.274,39.705,4.181,39.705z"/>
<path fill-rule="evenodd" clip-rule="evenodd" fill="#323232" d="M19.51,116.908c-0.404,1.705,2.342,0.26,2.787,1.116
	c0,2.972,0,5.945,0,8.918c-0.092,0-0.185,0-0.278,0c0-2.88,0-5.76,0-8.64c-0.563-0.83-3.324,0.536-2.787-1.395
	C19.325,116.908,19.417,116.908,19.51,116.908z"/>
<path fill-rule="evenodd" clip-rule="evenodd" fill="#323232" d="M31.216,136.139c0.5,0.035,0.588-0.341,1.114-0.278
	c-0.066,0.49-0.479,0.636-1.114,0.558C31.216,136.325,31.216,136.232,31.216,136.139z"/>
<path fill-rule="evenodd" clip-rule="evenodd" fill="#ABABAB" d="M32.052,68.97c0.439-0.675,0.997-1.232,1.672-1.672
	C33.285,67.973,32.728,68.531,32.052,68.97z"/>
<path fill-rule="evenodd" clip-rule="evenodd" fill="#D6D6D6" d="M27.314,75.102c0.252-0.492,0.623-0.863,1.115-1.115
	C28.1,74.401,28.188,75.232,27.314,75.102z"/>
<path fill-rule="evenodd" clip-rule="evenodd" fill="#323232" d="M19.51,74.265c1.006,1.41,2.249,2.582,5.017,2.23
	c-0.007,0.271-0.341,0.216-0.558,0.278c0.296,1.371,1.215,2.382,1.952,3.345c0.129,0.169,0.12,0.673,0.278,0.836
	c0.22,0.228,0.569,0.078,0.836,0.278c0.103,0.077,0.182,0.509,0.278,0.558c0.434,0.219,1.713,0.488,2.23,0.558
	c3.586,0.476,8.607-0.357,12.542,0c0-0.743,0-1.486,0-2.229c0.093,0,0.186,0,0.279,0c0,1.301,0,2.602,0,3.901
	c0,0.372,0,0.743,0,1.115c-4.364-0.212-8.509,0.289-11.985,0c-1.705-0.143-3.869-0.568-5.017-1.394
	c-0.096-0.069-0.192-0.518-0.278-0.557c-0.725-0.328-1.351-1.042-1.951-1.952C21.803,79.217,20.562,76.484,19.51,74.265z"/>
<path fill-rule="evenodd" clip-rule="evenodd" fill="#323232" d="M37.905,101.022c-0.725,1.933,1.361,1.054,1.951,1.672
	c-1.26,0.053-2.644,0.229-2.23-1.394C37.576,101.063,37.735,101.037,37.905,101.022z"/>
<path fill-rule="evenodd" clip-rule="evenodd" fill="#727272" d="M37.905,101.022c0.093,0,0.186,0,0.279,0
	c0.12,0.623,1.374,0.113,1.951,0.278c0.093,0,0.186,0,0.279,0c0.152,0.406-0.326,1.44,0.279,1.394c0,0.187,0,0.371,0,0.558
	c-0.093,0-0.186,0-0.279,0c0.103-0.475-0.217-0.525-0.558-0.558C39.267,102.076,37.181,102.955,37.905,101.022z"/>
<path fill-rule="evenodd" clip-rule="evenodd" fill="#323232" d="M24.806,118.024c0.393-0.815,2.856,0.439,2.787-0.837
	c0.069-1.276-2.394-0.021-2.787-0.836c0-5.017,0-10.034,0-15.051c0.65,4.46,0.094,10.126,0.279,15.051
	c1.16,0.14,3.15-0.549,2.787,1.115c-0.143,0.972-1.821,0.408-2.787,0.558c-0.185,3.438,0.371,7.616-0.279,10.59
	C24.806,125.083,24.806,121.554,24.806,118.024z"/>
<path fill-rule="evenodd" clip-rule="evenodd" fill="#323232" d="M10.87,61.166c0-0.65,0-1.301,0-1.951
	c-1.213-0.18-3.15,0.364-3.902-0.278c1.338,0.241,3.716-0.558,4.18,0.557C10.988,59.984,11.486,61.131,10.87,61.166z"/>
<path fill-rule="evenodd" clip-rule="evenodd" fill="#727272" d="M17.001,69.806c-1.478-0.287-2.236,1.907-3.065,0.558
	c-0.69-1.329,1.239-1.482,2.229-1.951c0.093,0,0.186,0,0.279,0C16.401,69.105,16.882,69.275,17.001,69.806z"/>
<path fill-rule="evenodd" clip-rule="evenodd" fill="#727272" d="M24.806,116.629c0-0.092,0-0.186,0-0.278
	c0.393,0.814,2.856-0.44,2.787,0.836c0.069,1.276-2.394,0.021-2.787,0.837c0-0.094,0-0.187,0-0.279
	C25.258,117.944,25.258,116.43,24.806,116.629z"/>
<path fill-rule="evenodd" clip-rule="evenodd" fill="#ABABAB" d="M13.657,35.524c1.214,0.18,3.15-0.363,3.902,0.279
	C16.346,35.624,14.409,36.167,13.657,35.524z"/>
<path fill-rule="evenodd" clip-rule="evenodd" fill="#727272" d="M4.46,39.705c-0.023,0.441,0.134,1.063-0.279,1.115
	c0-0.372,0-0.744,0-1.115C4.274,39.705,4.367,39.705,4.46,39.705z"/>
<path fill-rule="evenodd" clip-rule="evenodd" fill="#323232" d="M6.689,50.575c0-2.416,0-4.831,0-7.247c0.093,0,0.186,0,0.279,0
	c0,2.416,0,4.831,0,7.247C6.875,50.575,6.783,50.575,6.689,50.575z"/>
<path fill-rule="evenodd" clip-rule="evenodd" fill="#727272" d="M6.689,59.215c0-2.88,0-5.76,0-8.64c0.093,0,0.186,0,0.279,0
	c0,2.787,0,5.574,0,8.361c0.751,0.642,2.688,0.099,3.902,0.278c0,0.65,0,1.301,0,1.951c-1.301,0-2.602,0-3.902,0
	c0,11.799,0,23.597,0,35.396c-0.65-11.241-0.093-23.69-0.279-35.396C7.148,61.128,7.148,59.253,6.689,59.215z"/>
<path fill-rule="evenodd" clip-rule="evenodd" fill="#727272" d="M4.181,59.215c0,0.743,0,1.486,0,2.23
	C3.265,60.874,1.358,61.294,0,61.166c0-0.65,0-1.301,0-1.951C1.394,59.215,2.788,59.215,4.181,59.215z"/>
<path fill-rule="evenodd" clip-rule="evenodd" fill="#727272" d="M19.51,68.691c-0.441-0.581-0.909-1.135-1.115-1.951
	c0.966,0.693,1.382-1.089,2.787-0.836c0.119,0.53,0.601,0.7,0.558,1.393C20.884,67.65,19.747,67.72,19.51,68.691z"/>
<path fill-rule="evenodd" clip-rule="evenodd" fill="#727272" d="M42.643,87.643c-0.183,1.861,0.368,4.456-0.278,5.854
	c0-1.952,0-3.903,0-5.854C42.458,87.643,42.55,87.643,42.643,87.643z"/>
<path fill-rule="evenodd" clip-rule="evenodd" fill="#D6D6D6" d="M45.151,87.365c-0.184,2.325,0.369,5.386-0.278,7.246
	c0-2.415,0-4.83,0-7.246C44.966,87.365,45.059,87.365,45.151,87.365z"/>
<path fill-rule="evenodd" clip-rule="evenodd" fill="#D6D6D6" d="M13.378,97.677c2.789,0.185,6.316-0.37,8.64,0.278
	C19.23,97.771,15.703,98.326,13.378,97.677z"/>
<path fill-rule="evenodd" clip-rule="evenodd" fill="#D6D6D6" d="M43.201,111.613c-0.624-0.12-0.113-1.374-0.28-1.951
	c0.093,0,0.186,0,0.28,0C43.201,110.313,43.201,110.962,43.201,111.613z"/>
<path fill-rule="evenodd" clip-rule="evenodd" fill="#ABABAB" d="M43.201,111.891c-0.173,0.757,0.354,2.212-0.28,2.509
	C43.094,113.643,42.568,112.188,43.201,111.891z"/>
<path fill-rule="evenodd" clip-rule="evenodd" fill="#ABABAB" d="M34.561,130.007c-0.178,1.03,0.361,2.776-0.279,3.346
	c0-1.116,0-2.229,0-3.346C34.375,130.007,34.468,130.007,34.561,130.007z"/>
<path fill-rule="evenodd" clip-rule="evenodd" fill="#ABABAB" d="M28.986,136.139c0.743,0,1.487,0,2.23,0c0,0.093,0,0.186,0,0.279
	c-0.093,0-0.186,0-0.278,0c-0.651,0-1.301,0-1.952,0C28.986,136.325,28.986,136.232,28.986,136.139z"/>
<path fill-rule="evenodd" clip-rule="evenodd" fill="#FFFFFF" d="M7.805,35.804c1.398-0.182,3.524,0.364,4.459-0.279
	c0.465,0,0.929,0,1.394,0c0.751,0.642,2.688,0.099,3.902,0.279c1.953,0.369,3.068,1.577,3.344,3.623c0,2.136,0,4.273,0,6.41
	c-0.399,5.175-4.057,7.091-5.017,11.706c-0.46,0.212-0.46,2.297,0,2.509c0.239,2.826,1.778,4.353,2.509,6.689
	c0.206,0.816,0.673,1.37,1.115,1.951c0.489,0.962,0.968,2.07,1.672,3.066c0.661,0.935,1.146,2.101,2.23,2.229
	c3.14,0.375,5.21-6.293,7.525-7.525c0.582-0.346,1.047-0.81,1.393-1.394c1.403-1.105,2.615-2.402,5.017-2.508
	c0.836,0,1.672,0,2.508,0c3.676,0.877,4.566,4.539,4.738,8.919c0,0.465,0,0.929,0,1.393c0,0.744,0,1.487,0,2.23
	c0,0.836,0,1.672,0,2.508c0.024,0.441-0.133,1.063,0.279,1.115c0,0.65,0,1.3,0,1.951c0,0.557,0,1.114,0,1.672
	c0,0.557,0,1.115,0,1.672c0,1.115,0,2.229,0,3.345c0,2.416,0,4.831,0,7.246c0.098,1.492-0.495,2.293-0.836,3.345
	c0.074,1.004-0.516,1.344-0.558,2.229c-0.629,0.209-0.109,1.564-0.278,2.23c-0.624,0.12-0.113,1.373-0.28,1.951
	c0,1.765,0,3.53,0,5.295c0.167,0.577-0.344,1.831,0.28,1.951c0,0.092,0,0.186,0,0.278c-0.633,0.297-0.107,1.752-0.28,2.509
	c0.116,1.71-1.207,2.644-2.229,3.624c-1.418,1.358-6.678,0.326-6.132,3.901c-0.378,0.086-0.231,0.697-0.279,1.115
	c0,2.321,0,4.645,0,6.967c0,1.116,0,2.229,0,3.346c-0.093,1.393-0.827,2.145-1.951,2.508c-0.526-0.063-0.614,0.313-1.114,0.278
	c-0.743,0-1.487,0-2.23,0c-0.405,0.152-1.441-0.325-1.394,0.279c-0.557,0-1.115,0-1.672,0c-2.421-0.088-3.56-1.458-3.624-3.902
	c0-0.465,0-0.93,0-1.393c0-1.395,0-2.788,0-4.182c0-2.973,0-5.946,0-8.918c0-0.465,0-0.93,0-1.395
	c-0.185-5.109,0.371-10.962-0.278-15.607c-0.366-0.1-0.438-0.491-0.836-0.557c-4.089-0.65-9.383-0.095-13.936-0.28
	c-3.963-0.187-3.066-5.94-3.066-10.869c0-4.511,0-9.149,0-11.984c0.463-1.215,0.463-4.36,0-5.574c0-3.438,0-6.875,0-10.313
	c0-0.744,0-1.487,0-2.23c0-0.093,0-0.186,0-0.278c0-0.093,0-0.186,0-0.279c0-1.394,0-2.787,0-4.181c-0.241-0.939-0.11-2.442,0-3.623
	c0-2.787,0-5.574,0-8.361c0-0.558,0-1.115,0-1.672c0.413-0.052,0.255-0.674,0.279-1.115c0.148-1.43,0.969-2.188,1.672-3.065
	C6.386,36.057,6.955,35.79,7.805,35.804z M8.919,38.312c-1.054,0.339-1.654,1.133-1.951,2.229c-0.636,0.386-0.104,1.94-0.279,2.787
	c0,2.416,0,4.831,0,7.247c0,2.88,0,5.76,0,8.64c0,0.65,0,1.301,0,1.951c0.186,11.706-0.372,24.155,0.279,35.396
	c0.222,0.614,0.559,1.113,1.394,1.115c0.663,0.463,3.239,0.463,3.902,0c0.372,0,0.743,0,1.115,0c2.324,0.648,5.852,0.094,8.64,0.278
	c1.774,0.27,2.846,1.242,2.787,3.345c0,5.017,0,10.034,0,15.051c0,0.093,0,0.187,0,0.278c0,0.372,0,0.743,0,1.115
	c0,0.093,0,0.186,0,0.279c0,3.53,0,7.06,0,10.59c-0.24,1.111,0.417,2.06,0,2.51c0.047,0.416-0.1,1.027,0.279,1.113
	c-0.23,0.788,0.393,0.723,0.278,1.395c0.093,0,0.187,0,0.279,0c0.386,0.635,1.94,0.104,2.787,0.278
	c0.417-0.047,1.028,0.1,1.115-0.278c1.292,0.178,1.724-0.506,2.23-1.115c0.46-0.3,0.46-2.487,0-2.787c0-2.137,0-4.273,0-6.41
	c0-0.465,0-0.93,0-1.394c-0.149-3.958,2.229-5.39,5.574-5.853c0.417-0.049,1.029,0.099,1.115-0.278
	c1.352-0.414,1.954-1.578,1.951-3.346c0.648-2.51,0.094-6.223,0.279-9.197c0-0.187,0-0.371,0-0.558c0-0.557,0-1.115,0-1.672
	c-0.002-3.068,1.337-4.795,1.672-7.524c0.646-1.398,0.096-3.993,0.278-5.854c0-0.835,0-1.672,0-2.508
	c-0.047-0.417,0.1-1.028-0.278-1.115c0-1.3,0-2.601,0-3.901c0-0.743,0-1.486,0-2.23c0-0.836,0-1.672,0-2.508
	c-0.16-0.49,0.336-1.637-0.279-1.672c0-0.465,0-0.93,0-1.395c-0.169-0.666,0.35-2.021-0.279-2.229
	c-0.542-1.861-0.793-4.545-2.509-5.017c-2.143-0.589-4.552,1.931-5.574,2.229c-0.675,0.44-1.233,0.998-1.672,1.672
	c-0.31,0.994-1.125,1.733-1.672,2.509c-0.637,0.903-1,1.933-1.951,2.508c-0.492,0.252-0.863,0.623-1.115,1.115
	c-0.542,0.852-1.386,1.401-2.787,1.394c-2.768,0.352-4.01-0.82-5.017-2.23c-1.123-1.2-1.905-2.74-2.509-4.459
	c-0.119-0.531-0.6-0.701-0.557-1.394c-0.093,0-0.187,0-0.279,0c-0.882-2.276-2.49-3.828-2.787-6.689c0-1.858,0-3.716,0-5.575
	c0.988-4.679,4.694-6.639,5.017-11.984c0.616-0.034,0.118-1.182,0.278-1.672c-0.16-0.49,0.337-1.638-0.278-1.672
	c-0.274-1.213-0.776-2.197-1.951-2.508c0.046-0.604-0.989-0.126-1.394-0.279c-1.579,0-3.159,0-4.738,0
	C9.908,38.186,8.872,37.708,8.919,38.312z"/>
<path fill-rule="evenodd" clip-rule="evenodd" fill="#D6D6D6" d="M13.1,58.101c0.166-0.578-0.345-1.831,0.278-1.952
	c0,1.858,0,3.716,0,5.575c-0.616-0.035-0.118-1.183-0.278-1.672C13.1,59.401,13.1,58.75,13.1,58.101z"/>
<path fill-rule="evenodd" clip-rule="evenodd" fill="#ABABAB" d="M7.805,35.804c0.935-0.644,3.061-0.098,4.459-0.279
	C11.329,36.168,9.203,35.622,7.805,35.804z"/>
<path fill-rule="evenodd" clip-rule="evenodd" fill="#ABABAB" d="M20.904,39.427c0.464,1.492,0.464,4.919,0,6.41
	C20.904,43.7,20.904,41.563,20.904,39.427z"/>
<path fill-rule="evenodd" clip-rule="evenodd" fill="#727272" d="M6.968,40.542c0,0.929,0,1.858,0,2.787c-0.093,0-0.186,0-0.279,0
	C6.864,42.481,6.333,40.928,6.968,40.542z"/>
<path fill-rule="evenodd" clip-rule="evenodd" fill="#ABABAB" d="M15.887,57.542c0,0.836,0,1.672,0,2.509
	C15.426,59.84,15.426,57.754,15.887,57.542z"/>
<path fill-rule="evenodd" clip-rule="evenodd" fill="#ABABAB" d="M37.348,62.56c0.212-0.461,2.297-0.461,2.508,0
	C39.02,62.56,38.184,62.56,37.348,62.56z"/>
<path fill-rule="evenodd" clip-rule="evenodd" fill="#727272" d="M41.807,70.084c0.629,0.208,0.109,1.563,0.279,2.229
	C41.457,72.107,41.977,70.751,41.807,70.084z"/>
<path fill-rule="evenodd" clip-rule="evenodd" fill="#ABABAB" d="M7.247,100.185c4.553,0.186,9.847-0.37,13.936,0.28
	C16.629,100.279,11.335,100.835,7.247,100.185z"/>
<path fill-rule="evenodd" clip-rule="evenodd" fill="#727272" d="M43.479,100.185c0,0.465,0,0.93,0,1.394c0.278,0,0.558,0,0.836,0
	c0.558,0,1.115,0,1.672,0c0,0.465,0,0.929,0,1.395c-0.558,0-1.115,0-1.672,0c-0.086-0.379-0.698-0.231-1.114-0.279
	c0-0.092,0-0.187,0-0.278C43.371,101.75,42.851,100.394,43.479,100.185z"/>
<path fill-rule="evenodd" clip-rule="evenodd" fill="#727272" d="M25.642,133.631c0.929,0,1.858,0,2.787,0c0,0.092,0,0.186,0,0.278
	C27.582,133.736,26.028,134.266,25.642,133.631z"/>
<path fill-rule="evenodd" clip-rule="evenodd" fill="#323232" d="M22.019,101.022c0.649,4.646,0.093,10.498,0.278,15.607
	c-0.929,0-1.857,0-2.787,0c0.296-0.632,1.752-0.106,2.508-0.278C22.019,111.242,22.019,106.131,22.019,101.022z"/>
<path fill-rule="evenodd" clip-rule="evenodd" fill="#ABABAB" d="M40.692,101.022c0,0.557,0,1.115,0,1.672
	c-0.604,0.047-0.126-0.987-0.279-1.394C40.429,101.13,40.456,100.971,40.692,101.022z"/>
</svg>
