<?xml version="1.0" encoding="utf-8"?>
<!-- Generator: Adobe Illustrator 15.0.0, SVG Export Plug-In  -->
<!DOCTYPE svg PUBLIC "-//W3C//DTD SVG 1.1//EN" "http://www.w3.org/Graphics/SVG/1.1/DTD/svg11.dtd" [
	<!ENTITY ns_flows "http://ns.adobe.com/Flows/1.0/">
]>
<svg version="1.1"
	 xmlns="http://www.w3.org/2000/svg" xmlns:xlink="http://www.w3.org/1999/xlink" xmlns:a="http://ns.adobe.com/AdobeSVGViewerExtensions/3.0/"
	 x="0px" y="0px" width="142px" height="142px" viewBox="-13.811 -2.307 142 142" enable-background="new -13.811 -2.307 142 142"
	 xml:space="preserve">
<defs>
</defs>
<path fill-rule="evenodd" clip-rule="evenodd" fill="#D4D4D4" d="M49.179,2.833c0.753-0.463,3.426-0.463,4.18,0
	C51.965,2.833,50.571,2.833,49.179,2.833z"/>
<path fill-rule="evenodd" clip-rule="evenodd" fill="#333333" d="M39.702,8.964c0,1.672,0,3.344,0,5.017
	C39.239,12.951,39.239,9.994,39.702,8.964z"/>
<path fill-rule="evenodd" clip-rule="evenodd" fill="#333333" d="M42.21,9.522c0.093,0,0.186,0,0.279,0c0,1.394,0,2.787,0,4.181
	c-0.093,0-0.186,0-0.279,0C42.21,12.309,42.21,10.916,42.21,9.522z"/>
<path fill-rule="evenodd" clip-rule="evenodd" fill="#333333" d="M64.229,11.194c4.924-0.464,11.798-0.464,16.722,0
	C75.377,11.194,69.804,11.194,64.229,11.194z"/>
<path fill-rule="evenodd" clip-rule="evenodd" fill="#333333" d="M64.785,13.981c0-0.093,0-0.186,0-0.279
	c5.203,0.186,11.148-0.371,15.887,0.279C75.377,13.981,70.082,13.981,64.785,13.981z"/>
<path fill-rule="evenodd" clip-rule="evenodd" fill="#333333" d="M37.751,15.653c0.12-0.623,1.374-0.113,1.951-0.278
	c0,0.093,0,0.186,0,0.278C39.051,15.653,38.402,15.653,37.751,15.653z"/>
<path fill-rule="evenodd" clip-rule="evenodd" fill="#333333" d="M44.998,15.375c0.455-0.126,0.455,1.519,0,1.394
	C44.998,16.304,44.998,15.839,44.998,15.375z"/>
<path fill-rule="evenodd" clip-rule="evenodd" fill="#6C6C6C" d="M37.751,15.653c0.651,0,1.3,0,1.951,0c0,0.186,0,0.372,0,0.558
	c0,0.186,0,0.372,0,0.558c-0.404,0.152-1.44-0.326-1.393,0.279c-0.465,0-0.93,0-1.394,0c0-0.465,0-0.929,0-1.394
	C37.194,15.653,37.472,15.653,37.751,15.653z"/>
<path fill-rule="evenodd" clip-rule="evenodd" fill="#D4D4D4" d="M39.702,16.211c0.414,0.052,0.256,0.674,0.279,1.115
	c-0.093,0-0.187,0-0.279,0c0-0.093,0-0.186,0-0.278c0-0.093,0-0.186,0-0.279C39.702,16.583,39.702,16.396,39.702,16.211z"/>
<path fill-rule="evenodd" clip-rule="evenodd" fill="#333333" d="M38.309,17.047c-0.047-0.604,0.989-0.126,1.393-0.279
	c0,0.093,0,0.186,0,0.279C39.238,17.047,38.773,17.047,38.309,17.047z"/>
<path fill-rule="evenodd" clip-rule="evenodd" fill="#9D9D9D" d="M39.702,17.326c0.093,0,0.186,0,0.279,0c0,0.558,0,1.115,0,1.672
	c-0.093,0-0.187,0-0.279,0C39.702,18.441,39.702,17.883,39.702,17.326z"/>
<path fill-rule="evenodd" clip-rule="evenodd" fill="#6C6C6C" d="M39.702,18.998c0.093,0,0.186,0,0.279,0c0,0.464,0,0.929,0,1.394
	c-0.093,0-0.187,0-0.279,0C39.702,19.927,39.702,19.462,39.702,18.998z"/>
<path fill-rule="evenodd" clip-rule="evenodd" fill="#333333" d="M42.489,20.113c0.615,0.035,0.118,1.183,0.278,1.672
	c-0.093,0-0.186,0-0.278,0C42.489,21.228,42.489,20.67,42.489,20.113z"/>
<path fill-rule="evenodd" clip-rule="evenodd" fill="#333333" d="M39.702,20.392c0.093,0,0.186,0,0.279,0c0,0.465,0,0.93,0,1.394
	C39.376,21.833,39.854,20.797,39.702,20.392z"/>
<path fill-rule="evenodd" clip-rule="evenodd" fill="#333333" d="M86.805,20.67c0.454-0.125,0.454,1.519,0,1.394
	C86.805,21.6,86.805,21.135,86.805,20.67z"/>
<path fill-rule="evenodd" clip-rule="evenodd" fill="#6C6C6C" d="M42.489,21.785c0.093,0,0.186,0,0.278,0c0,0.372,0,0.744,0,1.115
	c-0.093,0-0.186,0-0.278,0C42.489,22.529,42.489,22.157,42.489,21.785z"/>
<path fill-rule="evenodd" clip-rule="evenodd" fill="#D4D4D4" d="M39.981,22.9c0.604-0.047,0.126,0.988,0.278,1.393
	c-0.093,0-0.186,0-0.278,0C39.981,23.829,39.981,23.365,39.981,22.9z"/>
<path fill-rule="evenodd" clip-rule="evenodd" fill="#9D9D9D" d="M42.489,22.9c0.093,0,0.186,0,0.278,0c0,0.557,0,1.115,0,1.672
	c-0.093,0-0.186,0-0.278,0C42.489,24.015,42.489,23.457,42.489,22.9z"/>
<path fill-rule="evenodd" clip-rule="evenodd" fill="#9D9D9D" d="M84.018,23.179c0.093,0,0.187,0,0.278,0c0,0.372,0,0.743,0,1.115
	c-0.092,0-0.186,0-0.278,0C84.018,23.922,84.018,23.55,84.018,23.179z"/>
<path fill-rule="evenodd" clip-rule="evenodd" fill="#9D9D9D" d="M39.981,24.293c0.093,0,0.186,0,0.278,0c0,0.465,0,0.929,0,1.394
	c-0.093,0-0.186,0-0.278,0C39.981,25.223,39.981,24.758,39.981,24.293z"/>
<path fill-rule="evenodd" clip-rule="evenodd" fill="#D4D4D4" d="M84.018,24.293c0.093,0,0.187,0,0.278,0
	c-0.023,0.441,0.135,1.063-0.278,1.115C84.018,25.037,84.018,24.665,84.018,24.293z"/>
<path fill-rule="evenodd" clip-rule="evenodd" fill="#D4D4D4" d="M42.489,24.572c0.093,0,0.186,0,0.278,0c0,0.465,0,0.929,0,1.394
	C42.164,26.013,42.642,24.977,42.489,24.572z"/>
<path fill-rule="evenodd" clip-rule="evenodd" fill="#6C6C6C" d="M39.981,25.687c0.093,0,0.186,0,0.278,0c0,0.558,0,1.115,0,1.672
	c-0.093,0-0.186,0-0.278,0C39.981,26.802,39.981,26.245,39.981,25.687z"/>
<path fill-rule="evenodd" clip-rule="evenodd" fill="#333333" d="M84.018,25.966c0,0.372,0,0.744,0,1.115c-0.094,0-0.187,0-0.28,0
	C83.785,26.664,83.639,26.052,84.018,25.966z"/>
<path fill-rule="evenodd" clip-rule="evenodd" fill="#333333" d="M86.526,26.245c0.092,0,0.184,0,0.278,0
	c-0.048,0.417,0.1,1.028-0.278,1.114C86.526,26.988,86.526,26.616,86.526,26.245z"/>
<path fill-rule="evenodd" clip-rule="evenodd" fill="#333333" d="M42.768,26.802c0.616,0.035,0.118,1.183,0.279,1.672
	c-0.092,0-0.186,0-0.279,0C42.768,27.917,42.768,27.359,42.768,26.802z"/>
<path fill-rule="evenodd" clip-rule="evenodd" fill="#6C6C6C" d="M83.737,27.081c0.094,0,0.187,0,0.28,0c0,0.372,0,0.743,0,1.115
	c-0.094,0-0.187,0-0.28,0C83.737,27.824,83.737,27.453,83.737,27.081z"/>
<path fill-rule="evenodd" clip-rule="evenodd" fill="#333333" d="M39.981,27.359c0.093,0,0.186,0,0.278,0c0,0.465,0,0.929,0,1.394
	C39.655,28.8,40.133,27.765,39.981,27.359z"/>
<path fill-rule="evenodd" clip-rule="evenodd" fill="#9D9D9D" d="M83.737,28.196c0.094,0,0.187,0,0.28,0
	c-0.023,0.441,0.135,1.063-0.28,1.115C83.737,28.938,83.737,28.567,83.737,28.196z"/>
<path fill-rule="evenodd" clip-rule="evenodd" fill="#6C6C6C" d="M42.768,28.474c0.093,0,0.187,0,0.279,0c0,0.464,0,0.93,0,1.394
	c-0.092,0-0.186,0-0.279,0C42.768,29.404,42.768,28.938,42.768,28.474z"/>
<path fill-rule="evenodd" clip-rule="evenodd" fill="#D4D4D4" d="M40.259,29.868c0.616,0.035,0.118,1.183,0.278,1.672
	c-0.092,0-0.186,0-0.278,0C40.259,30.983,40.259,30.425,40.259,29.868z"/>
<path fill-rule="evenodd" clip-rule="evenodd" fill="#9D9D9D" d="M42.768,29.868c0.093,0,0.187,0,0.279,0c0,0.557,0,1.115,0,1.672
	c-0.092,0-0.186,0-0.279,0C42.768,30.983,42.768,30.425,42.768,29.868z"/>
<path fill-rule="evenodd" clip-rule="evenodd" fill="#9D9D9D" d="M40.259,31.54c0.093,0,0.186,0,0.278,0c0,0.65,0,1.301,0,1.951
	c-0.092,0-0.186,0-0.278,0C40.259,32.841,40.259,32.19,40.259,31.54z"/>
<path fill-rule="evenodd" clip-rule="evenodd" fill="#D4D4D4" d="M42.768,31.54c0.093,0,0.187,0,0.279,0c0,0.743,0,1.486,0,2.229
	C42.418,33.563,42.938,32.207,42.768,31.54z"/>
<path fill-rule="evenodd" clip-rule="evenodd" fill="#333333" d="M43.046,35.442c0.462,0.481,0.462,2.864,0,3.345
	C43.046,37.672,43.046,36.557,43.046,35.442z"/>
<path fill-rule="evenodd" clip-rule="evenodd" fill="#333333" d="M40.259,36.835c0.093,0,0.186,0,0.278,0c0,0.372,0,0.743,0,1.115
	c-0.092,0-0.186,0-0.278,0C40.259,37.579,40.259,37.208,40.259,36.835z"/>
<path fill-rule="evenodd" clip-rule="evenodd" fill="#9D9D9D" d="M4.863,38.229c1.862-0.464,5.663-0.464,7.525,0
	C9.88,38.229,7.372,38.229,4.863,38.229z"/>
<path fill-rule="evenodd" clip-rule="evenodd" fill="#6C6C6C" d="M40.259,37.95c0.093,0,0.186,0,0.278,0c0,0.836,0,1.672,0,2.509
	c-0.092,0-0.186,0-0.278,0C40.259,39.623,40.259,38.787,40.259,37.95z"/>
<path fill-rule="evenodd" clip-rule="evenodd" fill="#9D9D9D" d="M40.259,40.459c0.093,0,0.186,0,0.278,0
	c-0.047,0.417,0.1,1.028-0.278,1.115C40.259,41.202,40.259,40.831,40.259,40.459z"/>
<path fill-rule="evenodd" clip-rule="evenodd" fill="#9D9D9D" d="M14.339,40.738c0.462,0.39,0.462,2.675,0,3.065
	C14.339,42.782,14.339,41.76,14.339,40.738z"/>
<path fill-rule="evenodd" clip-rule="evenodd" fill="#D4D4D4" d="M16.848,43.525c0.047-0.417-0.1-1.029,0.279-1.115
	c0,0.372,0,0.743,0,1.115C17.033,43.525,16.941,43.525,16.848,43.525z"/>
<path fill-rule="evenodd" clip-rule="evenodd" fill="#6C6C6C" d="M65.065,61.919c0-0.092,0-0.186,0-0.278c0.371,0,0.743,0,1.114,0
	c0,0.093,0,0.186,0,0.278C65.809,61.919,65.437,61.919,65.065,61.919z"/>
<path fill-rule="evenodd" clip-rule="evenodd" fill="#333333" d="M66.18,61.919c0-0.092,0-0.186,0-0.278
	c0.416,0.047,1.029-0.1,1.115,0.278C66.923,61.919,66.552,61.919,66.18,61.919z"/>
<path fill-rule="evenodd" clip-rule="evenodd" fill="#D4D4D4" d="M78.164,62.755c0.693,0.113,0.212,1.277-0.558,0.836
	c0-0.093,0-0.186,0-0.278C77.947,63.281,78.266,63.23,78.164,62.755z"/>
<path fill-rule="evenodd" clip-rule="evenodd" fill="#D4D4D4" d="M49.735,63.313c1.394,0,2.787,0,4.181,0
	C53.162,63.776,50.49,63.776,49.735,63.313z"/>
<path fill-rule="evenodd" clip-rule="evenodd" fill="#9D9D9D" d="M61.72,64.428c0.297-0.632,1.753-0.106,2.509-0.278
	c0,0.093,0,0.186,0,0.278C63.393,64.428,62.558,64.428,61.72,64.428z"/>
<path fill-rule="evenodd" clip-rule="evenodd" fill="#D4D4D4" d="M64.229,64.428c0-0.093,0-0.186,0-0.278
	c0.416,0.047,1.029-0.1,1.115,0.278C64.972,64.428,64.601,64.428,64.229,64.428z"/>
<path fill-rule="evenodd" clip-rule="evenodd" fill="#333333" d="M65.901,64.428c0.37,0,0.743,0,1.113,0c0,0.093,0,0.187,0,0.279
	C66.598,64.659,65.987,64.807,65.901,64.428z"/>
<path fill-rule="evenodd" clip-rule="evenodd" fill="#D4D4D4" d="M89.034,65.264c0.557,0,1.114,0,1.671,0c0,0.094,0,0.187,0,0.28
	C90.216,65.382,89.068,65.88,89.034,65.264z"/>
<path fill-rule="evenodd" clip-rule="evenodd" fill="#9D9D9D" d="M90.705,65.543c0-0.093,0-0.186,0-0.28c0.465,0,0.93,0,1.395,0
	c0,0.094,0,0.187,0,0.28C91.635,65.543,91.17,65.543,90.705,65.543z"/>
<path fill-rule="evenodd" clip-rule="evenodd" fill="#6C6C6C" d="M92.1,65.543c0-0.093,0-0.186,0-0.28c0.372,0,0.743,0,1.116,0
	c0,0.094,0,0.187,0,0.28C92.843,65.543,92.472,65.543,92.1,65.543z"/>
<path fill-rule="evenodd" clip-rule="evenodd" fill="#333333" d="M93.216,65.543c0-0.093,0-0.186,0-0.28
	c0.665,0.17,2.021-0.35,2.229,0.28C94.702,65.543,93.959,65.543,93.216,65.543z"/>
<path fill-rule="evenodd" clip-rule="evenodd" fill="#333333" d="M96.28,65.543c0.754-0.463,3.426-0.463,4.182,0
	C99.067,65.543,97.673,65.543,96.28,65.543z"/>
<path fill-rule="evenodd" clip-rule="evenodd" d="M82.345,67.494c-0.128-1.144,0.595,0.114,1.393-0.279
	C83.785,67.82,82.75,67.341,82.345,67.494z"/>
<path fill-rule="evenodd" clip-rule="evenodd" fill="#D4D4D4" d="M64.507,67.772c-0.198-0.452,1.313-0.452,1.115,0
	C65.25,67.772,64.879,67.772,64.507,67.772z"/>
<path fill-rule="evenodd" clip-rule="evenodd" fill="#9D9D9D" d="M85.41,67.494c0.404,0.153,1.44-0.326,1.395,0.279
	c-0.095,0-0.187,0-0.278,0C86.109,67.725,85.496,67.872,85.41,67.494z"/>
<path fill-rule="evenodd" clip-rule="evenodd" fill="#9D9D9D" d="M79.279,68.609c0.325-0.047,0.303-0.441,0.279-0.836
	C80.34,67.72,79.586,69.751,79.279,68.609z"/>
<path fill-rule="evenodd" clip-rule="evenodd" fill="#333333" d="M86.526,67.772c0.092,0,0.184,0,0.278,0
	c-0.082,0.755,0.391,2.064-0.838,1.672C86.439,69.175,86.685,68.674,86.526,67.772z"/>
<path fill-rule="evenodd" clip-rule="evenodd" fill="#D4D4D4" d="M90.705,68.051c0-0.093,0-0.186,0-0.279
	c0.491,0.16,1.639-0.336,1.673,0.279C91.821,68.051,91.264,68.051,90.705,68.051z"/>
<path fill-rule="evenodd" clip-rule="evenodd" fill="#333333" d="M92.935,68.051c0.651,0,1.303,0,1.951,0c0,0.093,0,0.186,0,0.279
	C94.31,68.164,93.055,68.674,92.935,68.051z"/>
<path fill-rule="evenodd" clip-rule="evenodd" fill="#6C6C6C" d="M94.886,68.33c0-0.093,0-0.186,0-0.279c0.744,0,1.487,0,2.23,0
	c0,0.093,0,0.186,0,0.279C96.373,68.33,95.63,68.33,94.886,68.33z"/>
<path fill-rule="evenodd" clip-rule="evenodd" fill="#333333" d="M97.116,68.33c0-0.093,0-0.186,0-0.279c1.021,0,2.043,0,3.067,0
	c0,0.093,0,0.186,0,0.279C99.159,68.33,98.138,68.33,97.116,68.33z"/>
<path fill-rule="evenodd" clip-rule="evenodd" fill="#333333" d="M60.327,70.002c0,1.301,0,2.602,0,3.902
	C59.864,73.241,59.864,70.665,60.327,70.002z"/>
<path fill-rule="evenodd" clip-rule="evenodd" fill="#9D9D9D" d="M82.345,73.626c0.152-0.405-0.326-1.441,0.278-1.395
	c0,0.465,0,0.93,0,1.395C82.531,73.626,82.438,73.626,82.345,73.626z"/>
<path fill-rule="evenodd" clip-rule="evenodd" fill="#6C6C6C" d="M62.836,73.068c0.092,0,0.185,0,0.278,0c0,1.301,0,2.602,0,3.901
	c-0.094,0-0.187,0-0.278,0C62.836,75.67,62.836,74.369,62.836,73.068z"/>
<path fill-rule="evenodd" clip-rule="evenodd" fill="#9D9D9D" d="M111.61,74.461c0.044,0.458-1.719,0.458-1.673,0
	C110.495,74.461,111.052,74.461,111.61,74.461z"/>
<path fill-rule="evenodd" clip-rule="evenodd" fill="#D4D4D4" d="M60.327,76.97c0.463,1.123,0.463,4.174,0,5.296
	c0-0.093,0-0.187,0-0.278C60.327,80.314,60.327,78.643,60.327,76.97z"/>
<path fill-rule="evenodd" clip-rule="evenodd" fill="#9D9D9D" d="M62.836,76.97c0.092,0,0.185,0,0.278,0c0,1.673,0,3.345,0,5.018
	C62.469,80.867,63.016,78.554,62.836,76.97z"/>
<path fill-rule="evenodd" clip-rule="evenodd" fill="#D4D4D4" d="M0.125,78.086c0.464,3.53,0.464,9.009,0,12.541
	C0.125,86.446,0.125,82.266,0.125,78.086z"/>
<path fill-rule="evenodd" clip-rule="evenodd" fill="#9D9D9D" d="M2.633,78.643c0.093,0,0.186,0,0.279,0c0,3.809,0,7.618,0,11.427
	c-0.093,0-0.186,0-0.279,0C2.633,86.261,2.633,82.451,2.633,78.643z"/>
<path fill-rule="evenodd" clip-rule="evenodd" fill="#333333" d="M50.851,79.478c0,0.93,0,1.859,0,2.788c-0.093,0-0.186,0-0.279,0
	C50.746,81.418,50.215,79.864,50.851,79.478z"/>
<path fill-rule="evenodd" clip-rule="evenodd" fill="#6C6C6C" d="M50.851,79.478c0.372,0,0.743,0,1.115,0c0,0.93,0,1.859,0,2.788
	c-0.372,0-0.743,0-1.115,0C50.851,81.337,50.851,80.407,50.851,79.478z"/>
<path fill-rule="evenodd" clip-rule="evenodd" fill="#333333" d="M51.965,79.478c0.635,0.387,0.104,1.94,0.279,2.788
	c-0.093,0-0.186,0-0.279,0C51.965,81.337,51.965,80.407,51.965,79.478z"/>
<path fill-rule="evenodd" clip-rule="evenodd" fill="#333333" d="M55.588,82.266c1.028-0.646,3.247-0.097,4.739-0.278
	c0,0.092,0,0.186,0,0.278C58.747,82.266,57.167,82.266,55.588,82.266z"/>
<path fill-rule="evenodd" clip-rule="evenodd" fill="#333333" d="M68.409,82.266c-1.677-0.183-4.083,0.366-5.295-0.278
	c1.765,0,3.53,0,5.295,0C68.409,82.079,68.409,82.173,68.409,82.266z"/>
<path fill-rule="evenodd" clip-rule="evenodd" fill="#333333" d="M72.033,82.266c0-0.093,0-0.187,0-0.278c0.836,0,1.671,0,2.509,0
	c0,0.092,0,0.186,0,0.278C73.704,82.266,72.869,82.266,72.033,82.266z"/>
<path fill-rule="evenodd" clip-rule="evenodd" fill="#D4D4D4" d="M26.603,82.266c6.875,0,13.75,0,20.625,0
	C41.002,82.73,32.828,82.73,26.603,82.266z"/>
<path fill-rule="evenodd" clip-rule="evenodd" fill="#D4D4D4" d="M47.506,82.266c0.372,0,0.743,0,1.115,0
	C48.82,82.718,47.307,82.718,47.506,82.266z"/>
<path fill-rule="evenodd" clip-rule="evenodd" fill="#6C6C6C" d="M46.112,85.053c0-0.093,0-0.186,0-0.279c1.486,0,2.973,0,4.459,0
	c0,0.094,0,0.187,0,0.279C49.085,85.053,47.599,85.053,46.112,85.053z"/>
<path fill-rule="evenodd" clip-rule="evenodd" fill="#9D9D9D" d="M50.571,85.053c0-0.093,0-0.186,0-0.279c0.558,0,1.115,0,1.673,0
	c0,0.094,0,0.187,0,0.279c-0.093,0-0.186,0-0.279,0c-0.372,0-0.743,0-1.115,0C50.758,85.053,50.665,85.053,50.571,85.053z"/>
<path fill-rule="evenodd" clip-rule="evenodd" fill="#6C6C6C" d="M52.244,85.053c0-0.093,0-0.186,0-0.279c1.672,0,3.344,0,5.017,0
	c0,0.094,0,0.187,0,0.279C55.588,85.053,53.916,85.053,52.244,85.053z"/>
<path fill-rule="evenodd" clip-rule="evenodd" fill="#333333" d="M57.261,85.053c0-0.093,0-0.186,0-0.279
	c0.938,0.177,2.589-0.358,3.066,0.279C59.305,85.053,58.282,85.053,57.261,85.053z"/>
<path fill-rule="evenodd" clip-rule="evenodd" fill="#D4D4D4" d="M63.114,84.773c0,0.094,0,0.187,0,0.279c0,0.93,0,1.857,0,2.786
	C62.651,87.449,62.651,85.165,63.114,84.773z"/>
<path fill-rule="evenodd" clip-rule="evenodd" fill="#333333" d="M63.114,85.053c0-0.093,0-0.186,0-0.279c2.136,0,4.273,0,6.411,0
	C67.942,85.421,65.159,84.869,63.114,85.053z"/>
<path fill-rule="evenodd" clip-rule="evenodd" fill="#333333" d="M69.804,84.773c1.671,0,3.344,0,5.017,0
	C73.79,85.236,70.833,85.236,69.804,84.773z"/>
<path fill-rule="evenodd" clip-rule="evenodd" fill="#6C6C6C" d="M50.851,85.053c0.372,0,0.743,0,1.115,0
	c-0.25,0.771,0.572,2.616-0.558,2.508C50.278,87.669,51.101,85.824,50.851,85.053z"/>
<path fill-rule="evenodd" clip-rule="evenodd" fill="#9D9D9D" d="M60.327,85.053c0.632,0.296,0.106,1.752,0.278,2.508
	c-0.094,0-0.186,0-0.278,0C60.327,86.726,60.327,85.889,60.327,85.053z"/>
<path fill-rule="evenodd" clip-rule="evenodd" fill="#333333" d="M63.114,90.349c0.459,0.038,0.459,1.913,0,1.95
	C63.114,91.648,63.114,90.998,63.114,90.349z"/>
<path fill-rule="evenodd" clip-rule="evenodd" fill="#6C6C6C" d="M9.601,97.595c-0.465,0-0.929,0-1.394,0
	c0.276-0.932-0.708-3.124,0.836-2.787C10.198,94.768,9.334,96.747,9.601,97.595z"/>
<path fill-rule="evenodd" clip-rule="evenodd" fill="#D4D4D4" d="M4.306,97.595c1.3,0,2.602,0,3.902,0c0.465,0,0.929,0,1.394,0
	c1.858,0,3.716,0,5.574,0C12.201,98.06,7.28,98.06,4.306,97.595z"/>
<path fill-rule="evenodd" clip-rule="evenodd" fill="#6C6C6C" d="M8.208,100.383c0.186,0,0.372,0,0.557,0c0.279,0,0.558,0,0.836,0
	c0,0.835,0,1.672,0,2.508c-0.465,0-0.929,0-1.394,0C8.208,102.055,8.208,101.218,8.208,100.383z"/>
<path fill-rule="evenodd" clip-rule="evenodd" fill="#333333" d="M20.75,101.218c0.464,9.013,0.464,19.974,0,28.986
	C20.75,120.542,20.75,110.88,20.75,101.218z"/>
<path fill-rule="evenodd" clip-rule="evenodd" fill="#333333" d="M8.208,102.891c0.465,0,0.929,0,1.394,0
	C9.727,103.346,8.082,103.346,8.208,102.891z"/>
<path fill-rule="evenodd" clip-rule="evenodd" fill="#D4D4D4" d="M39.145,104.005c0,2.787,0,5.574,0,8.361c-0.094,0-0.187,0-0.28,0
	C39.05,109.67,38.496,106.236,39.145,104.005z"/>
<path fill-rule="evenodd" clip-rule="evenodd" fill="#D4D4D4" d="M27.718,128.253c0.632,0.296,0.106,1.752,0.278,2.508
	c-0.093,0-0.186,0-0.278,0C27.718,129.925,27.718,129.089,27.718,128.253z"/>
<path fill-rule="evenodd" clip-rule="evenodd" fill="#9D9D9D" d="M30.226,128.253c0.093,0,0.186,0,0.279,0c0,0.929,0,1.858,0,2.788
	C29.869,130.654,30.4,129.101,30.226,128.253z"/>
<path fill-rule="evenodd" clip-rule="evenodd" fill="#9D9D9D" d="M27.718,130.761c0.092,0,0.186,0,0.278,0
	c-0.152,0.406,0.326,1.44-0.278,1.394C27.718,131.69,27.718,131.226,27.718,130.761z"/>
<path fill-rule="evenodd" clip-rule="evenodd" fill="#D4D4D4" d="M22.422,133.827c1.3,0,2.601,0,3.902,0
	C25.661,134.29,23.084,134.29,22.422,133.827z"/>
<path fill-rule="evenodd" clip-rule="evenodd" fill="#D4D4D4" d="M40.538,63.035c0.492,0.252,0.864,0.624,1.116,1.115
	c-0.568-0.083-0.742-0.559-1.116-0.836C40.538,63.22,40.538,63.127,40.538,63.035z"/>
<path fill-rule="evenodd" clip-rule="evenodd" fill="#9D9D9D" d="M114.397,76.134c0.25-0.491,0.623-0.863,1.114-1.114
	C115.261,75.51,114.889,75.882,114.397,76.134z"/>
<path fill-rule="evenodd" clip-rule="evenodd" fill="#D4D4D4" d="M114.397,67.772c0.566,0.083,0.741,0.559,1.114,0.836
	c0,0.093,0,0.186,0,0.278C115.021,68.635,114.647,68.264,114.397,67.772z"/>
<path fill-rule="evenodd" clip-rule="evenodd" fill="#333333" d="M56.982,1.439c0.491,0.252,0.863,0.624,1.115,1.115
	C57.605,2.302,57.234,1.931,56.982,1.439z"/>
<path fill-rule="evenodd" clip-rule="evenodd" fill="#D4D4D4" d="M84.296,12.588c0.71,0.034,1.08,0.406,1.114,1.115
	C84.919,13.451,84.547,13.079,84.296,12.588z"/>
<path fill-rule="evenodd" clip-rule="evenodd" fill="#333333" d="M57.818,11.194c0.583,0.346,1.047,0.811,1.394,1.394
	C58.629,12.242,58.164,11.777,57.818,11.194z"/>
<path fill-rule="evenodd" clip-rule="evenodd" fill="#6C6C6C" d="M42.21,13.703c0.093,0,0.186,0,0.279,0c0,0.464,0,0.929,0,1.394
	c0.296,0.632,1.752,0.106,2.508,0.279c0,0.464,0,0.929,0,1.394c-0.836,0-1.672,0-2.508,0c-0.152-0.405,0.325-1.44-0.279-1.394
	C42.21,14.817,42.21,14.26,42.21,13.703z"/>
<path fill-rule="evenodd" clip-rule="evenodd" fill="#333333" d="M28.832,118.22c0.252-0.492,0.624-0.863,1.115-1.115
	C29.695,117.596,29.324,117.968,28.832,118.22z"/>
<path fill-rule="evenodd" clip-rule="evenodd" fill="#333333" d="M50.571,85.053c0.094,0,0.187,0,0.279,0
	c0.25,0.771-0.573,2.616,0.557,2.508c1.13,0.108,0.307-1.736,0.558-2.508c0.093,0,0.186,0,0.279,0
	c-0.276,0.932,0.708,3.124-0.836,2.786C50.045,87.995,50.742,86.09,50.571,85.053z"/>
<path fill-rule="evenodd" clip-rule="evenodd" fill="#9D9D9D" d="M49.179,0.046c1.583,0.182,3.896-0.367,5.016,0.278
	c-1.672,0-3.344,0-5.016,0C49.179,0.232,49.179,0.139,49.179,0.046z"/>
<path fill-rule="evenodd" clip-rule="evenodd" fill="#9D9D9D" d="M56.703,6.177c0.636,0.387,0.104,1.94,0.279,2.787
	C56.346,8.578,56.878,7.024,56.703,6.177z"/>
<path fill-rule="evenodd" clip-rule="evenodd" fill="#6C6C6C" d="M61.998,10.916c0.407,0.153,1.44-0.326,1.395,0.279
	C62.988,11.042,61.952,11.52,61.998,10.916z"/>
<path fill-rule="evenodd" clip-rule="evenodd" fill="#9D9D9D" d="M86.805,24.293c0,0.65,0,1.301,0,1.952c-0.095,0-0.187,0-0.278,0
	C86.692,25.667,86.182,24.414,86.805,24.293z"/>
<path fill-rule="evenodd" clip-rule="evenodd" fill="#6C6C6C" d="M86.526,29.032c-0.177,0.847,0.356,2.4-0.279,2.787
	C86.422,30.972,85.889,29.418,86.526,29.032z"/>
<path fill-rule="evenodd" clip-rule="evenodd" fill="#6C6C6C" d="M83.737,30.704c-0.168,0.667,0.351,2.022-0.278,2.229
	C83.629,32.268,83.11,30.912,83.737,30.704z"/>
<path fill-rule="evenodd" clip-rule="evenodd" fill="#6C6C6C" d="M86.247,32.933c-0.16,0.491,0.337,1.639-0.28,1.672
	C86.129,34.116,85.631,32.968,86.247,32.933z"/>
<path fill-rule="evenodd" clip-rule="evenodd" fill="#6C6C6C" d="M85.967,35.442c-0.152,0.405,0.327,1.44-0.278,1.394
	C85.843,36.431,85.364,35.396,85.967,35.442z"/>
<path fill-rule="evenodd" clip-rule="evenodd" fill="#6C6C6C" d="M40.259,36.835c0-1.114,0-2.23,0-3.344c0.093,0,0.186,0,0.278,0
	c0,1.114,0,2.23,0,3.344C40.445,36.835,40.352,36.835,40.259,36.835z"/>
<path fill-rule="evenodd" clip-rule="evenodd" fill="#9D9D9D" d="M43.046,40.459c-0.177,0.938,0.359,2.588-0.279,3.066
	C42.944,42.586,42.409,40.936,43.046,40.459z"/>
<path fill-rule="evenodd" clip-rule="evenodd" fill="#6C6C6C" d="M39.981,44.082c0.152-0.405-0.326-1.44,0.278-1.394
	C40.107,43.094,40.585,44.129,39.981,44.082z"/>
<path fill-rule="evenodd" clip-rule="evenodd" fill="#9D9D9D" d="M17.126,43.525c-0.17,0.667,0.35,2.022-0.279,2.229
	c0-0.743,0-1.486,0-2.229C16.941,43.525,17.033,43.525,17.126,43.525z"/>
<path fill-rule="evenodd" clip-rule="evenodd" fill="#6C6C6C" d="M42.768,44.361c-0.152,0.405,0.326,1.44-0.278,1.394
	C42.642,45.35,42.164,44.313,42.768,44.361z"/>
<path fill-rule="evenodd" clip-rule="evenodd" fill="#6C6C6C" d="M42.489,46.59c-0.152,0.405,0.325,1.44-0.279,1.394
	C42.363,47.579,41.885,46.543,42.489,46.59z"/>
<path fill-rule="evenodd" clip-rule="evenodd" fill="#6C6C6C" d="M42.21,48.542c-0.023,0.441,0.134,1.063-0.279,1.114
	C41.955,49.215,41.797,48.593,42.21,48.542z"/>
<path fill-rule="evenodd" clip-rule="evenodd" fill="#6C6C6C" d="M79.837,49.099c0.021-0.441-0.135-1.063,0.278-1.114
	C80.091,48.426,80.249,49.047,79.837,49.099z"/>
<path fill-rule="evenodd" clip-rule="evenodd" fill="#6C6C6C" d="M41.932,50.214c-0.023,0.441,0.134,1.063-0.278,1.115
	C41.676,50.887,41.519,50.265,41.932,50.214z"/>
<path fill-rule="evenodd" clip-rule="evenodd" fill="#6C6C6C" d="M38.865,52.443c-0.16,0.49,0.337,1.638-0.278,1.672
	C38.747,53.625,38.25,52.479,38.865,52.443z"/>
<path fill-rule="evenodd" clip-rule="evenodd" fill="#6C6C6C" d="M79.001,54.394c0.022-0.441-0.134-1.063,0.278-1.114
	C79.256,53.721,79.412,54.343,79.001,54.394z"/>
<path fill-rule="evenodd" clip-rule="evenodd" fill="#6C6C6C" d="M41.374,54.116c-0.16,0.49,0.337,1.637-0.279,1.672
	C41.256,55.298,40.759,54.15,41.374,54.116z"/>
<path fill-rule="evenodd" clip-rule="evenodd" fill="#6C6C6C" d="M38.587,58.854c-0.462-0.663-0.462-3.239,0-3.902
	C38.587,56.252,38.587,57.553,38.587,58.854z"/>
<path fill-rule="evenodd" clip-rule="evenodd" fill="#6C6C6C" d="M11.831,56.903c-0.152,0.405,0.326,1.44-0.278,1.394
	C11.705,57.892,11.227,56.856,11.831,56.903z"/>
<path fill-rule="evenodd" clip-rule="evenodd" fill="#6C6C6C" d="M41.095,58.018c0.379,0.086,0.231,0.698,0.279,1.114
	C40.996,59.046,41.143,58.435,41.095,58.018z"/>
<path fill-rule="evenodd" clip-rule="evenodd" fill="#6C6C6C" d="M81.229,58.575c-0.16,0.49,0.339,1.638-0.278,1.672
	C81.11,59.757,80.614,58.61,81.229,58.575z"/>
<path fill-rule="evenodd" clip-rule="evenodd" fill="#6C6C6C" d="M78.442,59.411c-0.16,0.49,0.337,1.638-0.278,1.672
	C78.324,60.594,77.827,59.446,78.442,59.411z"/>
<path fill-rule="evenodd" clip-rule="evenodd" fill="#6C6C6C" d="M68.409,61.919c0.404,0.152,1.44-0.325,1.395,0.279
	C69.396,62.046,68.361,62.524,68.409,61.919z"/>
<path fill-rule="evenodd" clip-rule="evenodd" fill="#9D9D9D" d="M80.95,61.083c0,0.744,0,1.487,0,2.23
	C80.492,63.19,80.492,61.208,80.95,61.083z"/>
<path fill-rule="evenodd" clip-rule="evenodd" fill="#6C6C6C" d="M70.639,62.198c0.441,0.023,1.064-0.134,1.116,0.279
	C71.313,62.454,70.691,62.611,70.639,62.198z"/>
<path fill-rule="evenodd" clip-rule="evenodd" fill="#6C6C6C" d="M74.542,62.755c0.44,0.023,1.062-0.134,1.113,0.279
	C75.215,63.011,74.594,63.168,74.542,62.755z"/>
<path fill-rule="evenodd" clip-rule="evenodd" fill="#6C6C6C" d="M45.833,63.035c0.667,0.169,2.022-0.35,2.229,0.279
	C47.397,63.143,46.041,63.663,45.833,63.035z"/>
<path fill-rule="evenodd" clip-rule="evenodd" fill="#9D9D9D" d="M67.015,64.428c0.407,0.152,1.44-0.326,1.395,0.279
	c-0.465,0-0.93,0-1.395,0C67.015,64.614,67.015,64.521,67.015,64.428z"/>
<path fill-rule="evenodd" clip-rule="evenodd" fill="#6C6C6C" d="M86.805,64.985c0.488,0.16,1.637-0.337,1.671,0.278
	C87.986,65.104,86.839,65.601,86.805,64.985z"/>
<path fill-rule="evenodd" clip-rule="evenodd" fill="#6C6C6C" d="M75.099,65.543c0.44,0.022,1.063-0.134,1.114,0.278
	C75.771,65.799,75.15,65.956,75.099,65.543z"/>
<path fill-rule="evenodd" clip-rule="evenodd" fill="#D4D4D4" d="M101.297,65.543c0.848,0.175,2.4-0.357,2.787,0.278
	C103.236,65.647,101.684,66.178,101.297,65.543z"/>
<path fill-rule="evenodd" clip-rule="evenodd" fill="#9D9D9D" d="M49.735,65.822c1.858,0,3.716,0,5.575,0
	c-1.305,0.646-3.806,0.096-5.575,0.278C49.735,66.007,49.735,65.915,49.735,65.822z"/>
<path fill-rule="evenodd" clip-rule="evenodd" fill="#6C6C6C" d="M104.921,65.822c0.489,0.16,1.637-0.337,1.671,0.278
	C106.104,65.94,104.955,66.437,104.921,65.822z"/>
<path fill-rule="evenodd" clip-rule="evenodd" fill="#6C6C6C" d="M107.43,66.1c0.488,0.16,1.637-0.336,1.671,0.279
	C108.611,66.218,107.464,66.716,107.43,66.1z"/>
<path fill-rule="evenodd" clip-rule="evenodd" fill="#6C6C6C" d="M110.216,66.379c0.405,0.152,1.44-0.325,1.395,0.279
	C111.204,66.505,110.168,66.984,110.216,66.379z"/>
<path fill-rule="evenodd" clip-rule="evenodd" fill="#6C6C6C" d="M83.737,67.215c0.854-0.202,0.821,0.481,1.673,0.279
	c0.086,0.378,0.699,0.231,1.116,0.279c0.158,0.902-0.087,1.402-0.56,1.672c-0.44,0.023-1.062-0.134-1.113,0.279
	c-1.034,0.197-1.196-0.477-2.23-0.279c-0.088-0.655-0.44-1.046-0.278-1.951C82.75,67.341,83.785,67.82,83.737,67.215z"/>
<path fill-rule="evenodd" clip-rule="evenodd" fill="#6C6C6C" d="M100.184,68.051c0.665,0.169,2.021-0.35,2.229,0.279
	c-0.743,0-1.486,0-2.229,0C100.184,68.237,100.184,68.144,100.184,68.051z"/>
<path fill-rule="evenodd" clip-rule="evenodd" fill="#6C6C6C" d="M103.248,68.33c0.489,0.16,1.637-0.337,1.673,0.279
	C104.431,68.448,103.282,68.945,103.248,68.33z"/>
<path fill-rule="evenodd" clip-rule="evenodd" fill="#6C6C6C" d="M105.757,68.609c0.488,0.16,1.637-0.337,1.673,0.278
	C106.938,68.727,105.791,69.225,105.757,68.609z"/>
<path fill-rule="evenodd" clip-rule="evenodd" fill="#6C6C6C" d="M108.265,68.887c0.577,0.166,1.831-0.344,1.951,0.279
	C109.64,69,108.385,69.511,108.265,68.887z"/>
<path fill-rule="evenodd" clip-rule="evenodd" fill="#333333" d="M63.114,69.445c0,1.208,0,2.417,0,3.624c-0.094,0-0.187,0-0.278,0
	C63.014,71.946,62.473,70.104,63.114,69.445z"/>
<path fill-rule="evenodd" clip-rule="evenodd" fill="#6C6C6C" d="M87.361,70.002c0.404,0.153,1.44-0.326,1.395,0.279
	C88.352,70.129,87.315,70.606,87.361,70.002z"/>
<path fill-rule="evenodd" clip-rule="evenodd" fill="#6C6C6C" d="M89.591,70.281c0.405,0.152,1.44-0.326,1.395,0.278
	C90.579,70.407,89.545,70.886,89.591,70.281z"/>
<path fill-rule="evenodd" clip-rule="evenodd" fill="#6C6C6C" d="M91.821,70.56c0.488,0.16,1.637-0.337,1.673,0.278
	C93.003,70.678,91.855,71.176,91.821,70.56z"/>
<path fill-rule="evenodd" clip-rule="evenodd" fill="#D4D4D4" d="M79.279,71.396c0.279,0,0.558,0,0.836,0
	c-0.173,0.756,0.354,2.212-0.278,2.508c0-0.743,0-1.486,0-2.229C79.512,71.72,79.34,71.612,79.279,71.396z"/>
<path fill-rule="evenodd" clip-rule="evenodd" fill="#6C6C6C" d="M92.656,73.347c0.491,0.16,1.639-0.337,1.673,0.279
	C93.841,73.465,92.692,73.963,92.656,73.347z"/>
<path fill-rule="evenodd" clip-rule="evenodd" fill="#6C6C6C" d="M82.623,73.626c-0.17,0.666,0.351,2.021-0.278,2.229
	c0-0.743,0-1.486,0-2.229C82.438,73.626,82.531,73.626,82.623,73.626z"/>
<path fill-rule="evenodd" clip-rule="evenodd" fill="#6C6C6C" d="M79.837,74.74c-0.173,0.757,0.353,2.212-0.278,2.509
	C79.73,76.493,79.203,75.036,79.837,74.74z"/>
<path fill-rule="evenodd" clip-rule="evenodd" fill="#6C6C6C" d="M24.652,81.987c0.405,0.152,1.44-0.325,1.394,0.278
	C25.64,82.113,24.605,82.591,24.652,81.987z"/>
<path fill-rule="evenodd" clip-rule="evenodd" fill="#6C6C6C" d="M68.409,81.987c1.208,0,2.416,0,3.624,0c0,0.092,0,0.186,0,0.278
	c-1.208,0-2.416,0-3.624,0C68.409,82.173,68.409,82.079,68.409,81.987z"/>
<path fill-rule="evenodd" clip-rule="evenodd" fill="#6C6C6C" d="M74.542,81.987c0.37,0,0.743,0,1.113,0
	c-0.086,0.378-0.697,0.23-1.113,0.278C74.542,82.173,74.542,82.079,74.542,81.987z"/>
<path fill-rule="evenodd" clip-rule="evenodd" fill="#6C6C6C" d="M25.209,84.773c0.743,0,1.486,0,2.229,0c0,0.094,0,0.187,0,0.279
	C26.772,84.883,25.417,85.402,25.209,84.773z"/>
<path fill-rule="evenodd" clip-rule="evenodd" fill="#9D9D9D" d="M27.438,84.773c6.225,0,12.449,0,18.674,0c0,0.094,0,0.187,0,0.279
	c-6.225,0-12.449,0-18.674,0C27.438,84.96,27.438,84.867,27.438,84.773z"/>
<path fill-rule="evenodd" clip-rule="evenodd" fill="#6C6C6C" d="M60.605,87.561c-0.184,1.954,0.369,4.642-0.278,6.133
	c0-2.045,0-4.088,0-6.133C60.42,87.561,60.512,87.561,60.605,87.561z"/>
<path fill-rule="evenodd" clip-rule="evenodd" fill="#6C6C6C" d="M2.912,96.479c-0.647-1.581-0.095-4.364-0.279-6.41
	c0.093,0,0.186,0,0.279,0C2.912,92.207,2.912,94.343,2.912,96.479z"/>
<path fill-rule="evenodd" clip-rule="evenodd" fill="#6C6C6C" d="M41.653,97.595c4.553-0.65,10.312-0.093,15.329-0.278
	C52.429,97.965,46.67,97.409,41.653,97.595z"/>
<path fill-rule="evenodd" clip-rule="evenodd" fill="#9D9D9D" d="M8.765,100.383c1.49-0.647,4.178-0.097,6.132-0.28
	c0,0.094,0,0.187,0,0.28c-1.766,0-3.531,0-5.296,0C9.322,100.383,9.044,100.383,8.765,100.383z"/>
<path fill-rule="evenodd" clip-rule="evenodd" fill="#6C6C6C" d="M14.897,100.103c0.577,0.167,1.831-0.344,1.951,0.28
	c-0.65,0-1.301,0-1.951,0C14.897,100.289,14.897,100.196,14.897,100.103z"/>
<path fill-rule="evenodd" clip-rule="evenodd" fill="#9D9D9D" d="M38.865,114.596c0-0.743,0-1.485,0-2.229c0.093,0,0.186,0,0.28,0
	C38.975,113.033,39.495,114.389,38.865,114.596z"/>
<path fill-rule="evenodd" clip-rule="evenodd" fill="#6C6C6C" d="M18.241,130.204c0,0.837,0,1.672,0,2.508
	c-0.632-0.296-0.106-1.752-0.278-2.508C18.056,130.204,18.148,130.204,18.241,130.204z"/>
<path fill-rule="evenodd" clip-rule="evenodd" fill="#9D9D9D" d="M30.226,133.271c0.152-0.406-0.325-1.441,0.279-1.395
	C30.352,132.281,30.83,133.316,30.226,133.271z"/>
<path fill-rule="evenodd" clip-rule="evenodd" fill="#FFFFFF" d="M39.702,8.964c0.013-5.376,2.772-8.005,7.525-8.64
	c0.651,0,1.301,0,1.952,0c1.672,0,3.344,0,5.016,0c1.414-0.112,1.94,0.661,2.788,1.115c0.251,0.491,0.623,0.863,1.115,1.115
	c0.418,0.789,1.126,1.289,1.115,2.508c0.173,0.757-0.354,2.212,0.278,2.509c0.279,1.672,1.122,2.78,2.508,3.344
	c-0.046,0.604,0.99,0.126,1.395,0.279c0.278,0,0.557,0,0.836,0c5.575,0,11.148,0,16.722,0c1.633-0.053,2.587,0.572,3.346,1.394
	c0.251,0.491,0.623,0.863,1.114,1.115c1.681,1.107,1.406,4.169,1.395,6.968c0,0.464,0,0.929,0,1.394c0,0.743,0,1.486,0,2.229
	c-0.623,0.121-0.112,1.374-0.278,1.952c0,0.371,0,0.743,0,1.114c0,0.558,0,1.115,0,1.672c-0.638,0.387-0.104,1.94-0.279,2.787
	c0,0.372,0,0.743,0,1.114c-0.616,0.035-0.118,1.183-0.28,1.672c0,0.279,0,0.558,0,0.836c-0.603-0.046-0.124,0.989-0.278,1.394
	c-0.172,3.806-1.938,7.524-2.787,11.149c-0.793,3.39-0.978,6.792-1.673,10.591c-0.614,0.035-0.118,1.182-0.278,1.672
	c0,0.279,0,0.558,0,0.836c-0.458,0.124-0.458,2.106,0,2.23c0,0.093,0,0.185,0,0.278c1.511,0.906,3.981,0.852,5.854,1.394
	c0.034,0.615,1.182,0.119,1.671,0.278c0.186,0,0.372,0,0.559,0c0.034,0.616,1.182,0.119,1.671,0.28c0.465,0,0.93,0,1.395,0
	c0.372,0,0.743,0,1.116,0c0.743,0,1.486,0,2.229,0c0.364-0.335,0.437-0.109,0.835,0c1.393,0,2.787,0,4.182,0
	c0.278,0,0.557,0,0.835,0c0.387,0.635,1.939,0.104,2.787,0.278c0.278,0,0.557,0,0.837,0c0.034,0.615,1.183,0.118,1.671,0.278
	c0.278,0,0.56,0,0.838,0c0.034,0.616,1.182,0.118,1.671,0.279c0.372,0,0.743,0,1.115,0c-0.048,0.605,0.988,0.126,1.395,0.279
	c1.246,0.054,2.296,0.303,2.787,1.115c0.25,0.492,0.623,0.863,1.114,1.115c0.582,0.253,0.849,0.823,0.837,1.672
	c0,0.837,0,1.672,0,2.509c-0.101,0.831-0.162,1.696-0.837,1.951c-0.491,0.251-0.864,0.623-1.114,1.114
	c-0.391,0.445-0.962,0.712-1.673,0.836c-1.395,0-2.787,0-4.182,0c-4.834-1.018-9.107-2.598-14.214-3.344
	c-0.034-0.616-1.182-0.119-1.673-0.279c-3.628-0.087-6.595-0.836-10.033-1.115c-0.604-0.047-0.126,0.989-0.278,1.395
	c0,0.743,0,1.486,0,2.229c0.139,5.619-2.29,8.673-7.524,8.918c-1.673,0-3.346,0-5.017,0c-0.095,0-0.187,0-0.278,0
	c-2.138,0-4.275,0-6.411,0c-0.463,0.392-0.463,2.676,0,3.065c0,0.837,0,1.673,0,2.51c0,0.649,0,1.3,0,1.95
	c0.141,4.246-1.729,7.321-5.575,7.804c-3.043,0.383-8.348,0.129-11.427,0.28c-0.245,0.011-0.264-0.28-0.279-0.28
	c-0.208,0.008-0.3,0.347-0.557,0.28c-0.945-0.25-3.523-0.284-4.459,0.278c-1.193,0.715-1.476,1.925-1.672,3.344
	c-0.649,2.231-0.095,5.665-0.28,8.361c0,0.744,0,1.486,0,2.229c-0.33,4.222-5.855,3.249-8.082,5.574
	c0.118,0.583-0.191,0.738-0.279,1.115c-0.647,1.768-0.095,4.736-0.279,6.968c0.175,0.848-0.356,2.401,0.279,2.788
	c0,0.278,0,0.557,0,0.835c-0.604-0.047-0.126,0.988-0.279,1.395c-0.249,1.794-1.271,2.815-3.065,3.065c-1.858,0-3.716,0-5.574,0
	c-2.033-0.29-3.234-1.412-3.345-3.624c0-0.836,0-1.671,0-2.508c-0.185-9.569,0.372-19.882-0.278-28.986
	c-0.078-0.573-0.745-0.556-1.115-0.835c-0.12-0.624-1.374-0.113-1.951-0.28c-1.954,0.184-4.642-0.367-6.132,0.28
	c-0.186,0-0.372,0-0.557,0c-1.12-0.646-3.434-0.098-5.017-0.28c-4.116-0.788-3.078-5.807-3.066-9.476
	c0.464-3.532,0.464-9.011,0-12.541c-0.045-9.028,0.059-22.2,0-33.168c-0.021-3.979-0.877-8.386,3.345-9.197
	c3.438,0,6.875,0,10.312,0c1.652,0.484,2.823,1.45,3.066,3.344c0.166,0.577-0.345,1.831,0.279,1.951c0,0.464,0,0.929,0,1.394
	c-0.378,0.086-0.231,0.697-0.279,1.115c0,0.743,0,1.486,0,2.229c-0.44,4.949-3.73,7.047-5.017,11.148
	c-0.604-0.047-0.126,0.989-0.278,1.394c0.308,4.51,2.985,8.492,5.295,12.822c0.796,1.49,1.693,3.534,2.787,5.295
	c0.396,0.638,1.122,1.899,1.672,2.786c0.652,1.048,1.561,2.53,3.345,2.788c-0.047,0.604,0.988,0.126,1.394,0.278
	c0.186,0,0.372,0,0.557,0c6.225,0.465,14.399,0.465,20.625,0c0.093,0,0.186,0,0.279,0c-0.199,0.452,1.314,0.452,1.115,0
	c0.65,0,1.301,0,1.951,0c0.094,0,0.187,0,0.279,0c0.372,0,0.743,0,1.115,0c0.093,0,0.186,0,0.279,0c1.114,0,2.23,0,3.344,0
	c1.579,0,3.159,0,4.739,0c0.463-1.122,0.463-4.173,0-5.296c0-1.021,0-2.044,0-3.065c0-1.301,0-2.602,0-3.902
	c0.078-2.615,1.058-4.331,3.344-4.738c0.93,0,1.857,0,2.787,0c3.811,0.65,7.2,1.72,10.592,2.788
	c0.515,0.414,1.324,0.534,2.229,0.558c0.307,1.142,1.061-0.889,0.279-0.836c-0.047-1.719-1.91-1.622-3.346-1.951
	c-0.051-0.413-0.674-0.256-1.114-0.278c-2.473-0.037-4.451-0.566-6.689-0.836c0.046-0.605-0.987-0.127-1.395-0.279
	c-0.37,0-0.743,0-1.113,0c-0.187,0-0.373,0-0.558,0c-0.086-0.378-0.699-0.231-1.115-0.278c-0.756,0.172-2.212-0.354-2.509,0.278
	c-2.269,0.333-3.905,1.297-6.41,1.394c-1.858,0-3.716,0-5.575,0c-0.929,0-1.857,0-2.787,0c-2.499,0.176-4.157-0.489-5.295-1.672
	c-0.252-0.491-0.624-0.863-1.116-1.115c-1.15-0.893-1.785-2.303-1.951-4.181c0-1.301,0-2.602,0-3.902c0-0.278,0-0.558,0-0.836
	c0.616-0.035,0.119-1.183,0.278-1.672c0.151-3.008,0.838-5.48,1.116-8.361c0.604,0.047,0.126-0.988,0.278-1.394
	c0-0.372,0-0.743,0-1.114c0.378-0.087,0.231-0.698,0.278-1.115c0-0.836,0-1.672,0-2.509c0-0.372,0-0.743,0-1.115
	c0-1.114,0-2.23,0-3.344c0-0.65,0-1.301,0-1.951c-0.16-0.49,0.337-1.637-0.278-1.672c0-0.371,0-0.743,0-1.114
	c0-0.465,0-0.929,0-1.394c0-0.558,0-1.114,0-1.672c0-0.464,0-0.929,0-1.394c-0.152-0.405,0.326-1.44-0.278-1.393
	c0-0.372,0-0.743,0-1.115c0-0.464,0-0.929,0-1.394c0-0.464,0-0.929,0-1.394c0-0.557,0-1.115,0-1.672
	c-0.023-0.441,0.134-1.063-0.279-1.115c0-0.186,0-0.372,0-0.558c0-0.093,0-0.186,0-0.278c0-0.465,0-0.929,0-1.394
	C39.702,12.309,39.702,10.637,39.702,8.964z M49.179,2.833c-3.638,0.171-5.974,1.646-6.689,4.739
	c-0.624,0.12-0.113,1.373-0.279,1.951c0,1.394,0,2.787,0,4.181c0,0.558,0,1.115,0,1.672c0.179,1.122-0.362,2.963,0.279,3.623
	c0,0.372,0,0.743,0,1.115c0,0.558,0,1.115,0,1.672c0,0.372,0,0.744,0,1.115c0,0.557,0,1.115,0,1.672
	c0.152,0.405-0.326,1.441,0.278,1.394c0,0.279,0,0.558,0,0.836c0,0.558,0,1.115,0,1.672c0,0.464,0,0.93,0,1.394
	c0,0.557,0,1.115,0,1.672c0.17,0.667-0.35,2.022,0.279,2.229c0,0.558,0,1.115,0,1.672c0,1.115,0,2.23,0,3.345
	c0,0.558,0,1.115,0,1.672c-0.638,0.477-0.102,2.127-0.279,3.066c0,0.278,0,0.557,0,0.836c-0.604-0.047-0.126,0.989-0.278,1.394
	c0,0.279,0,0.558,0,0.836c-0.604-0.047-0.126,0.989-0.279,1.394c0,0.186,0,0.371,0,0.558c-0.413,0.051-0.256,0.673-0.279,1.114
	c0,0.186,0,0.372,0,0.558c-0.413,0.051-0.256,0.673-0.278,1.115c0.164,1.187-0.201,1.843-0.279,2.787
	c-0.615,0.035-0.118,1.183-0.279,1.672c0,0.743,0,1.487,0,2.23c0.048,0.417-0.1,1.028,0.279,1.114
	c0.753,2.035,2.056,3.519,4.459,3.902c0.208,0.628,1.563,0.108,2.229,0.279c0.558,0,1.116,0,1.672,0
	c0.755,0.463,3.426,0.463,4.181,0c2.333-0.269,4.059-1.144,6.411-1.394c1.579,0,3.157,0,4.738,0c0.371,0,0.743,0,1.114,0
	c0.372,0,0.743,0,1.115,0c0.371,0,0.743,0,1.114,0c-0.048,0.604,0.987,0.126,1.395,0.279c0.278,0,0.557,0,0.835,0
	c0.053,0.413,0.674,0.255,1.116,0.279c1.186-0.165,1.843,0.2,2.787,0.278c0.052,0.413,0.673,0.256,1.113,0.279
	c0.577,0.166,1.831-0.345,1.951,0.279c0,0.093,0,0.185,0,0.278c0.77,0.44,1.251-0.724,0.558-0.836c0-0.557,0-1.114,0-1.672
	c0.615-0.035,0.118-1.182,0.278-1.672c-0.082-1.94,0.25-3.466,0.559-5.017c0.411-0.051,0.255-0.673,0.278-1.114
	c-0.076-1.655,0.303-2.855,0.558-4.181c0.412-0.051,0.254-0.673,0.278-1.114c1.069-5.061,2.942-9.321,3.344-15.051
	c0.629-0.207,0.11-1.563,0.278-2.229c0-0.464,0-0.929,0-1.394c0.415-0.052,0.257-0.673,0.28-1.115c0-0.372,0-0.743,0-1.115
	s0-0.744,0-1.115c0-0.186,0-0.372,0-0.557c0.413-0.052,0.255-0.674,0.278-1.115c0-0.372,0-0.743,0-1.115
	c-0.184-1.953,0.369-4.642-0.278-6.131c-0.415-1.724-1.408-2.865-3.346-3.066c-4.738-0.65-10.684-0.093-15.887-0.279
	c-0.741,0-1.484,0-2.228,0c-1.591,0.104-2.467-0.507-3.346-1.115c-0.347-0.583-0.811-1.047-1.394-1.394
	c-0.237-0.785-0.9-1.144-0.835-2.23c-0.175-0.847,0.356-2.4-0.279-2.787c-0.389-1.84-1.607-2.852-3.345-3.345
	C52.605,2.37,49.932,2.37,49.179,2.833z M2.912,39.623c-0.65,12.449-0.093,26.106-0.279,39.02c0,3.809,0,7.618,0,11.427
	c0.184,2.046-0.369,4.829,0.279,6.41c0.203,0.634,0.839,0.834,1.394,1.115c2.975,0.465,7.895,0.465,10.87,0
	c3.293-0.228,5.331,0.802,5.574,3.623c0,9.662,0,19.324,0,28.986c-0.147,1.447,0.367,2.233,0.557,3.345
	c0.486-0.021,0.868,0.063,1.115,0.278c0.663,0.463,3.239,0.463,3.902,0c0.752-0.27,1.345-0.699,1.394-1.673
	c0.604,0.047,0.126-0.987,0.278-1.394c-0.172-0.756,0.354-2.212-0.278-2.508c0.25-4.017-0.834-7.682,1.114-10.033
	c0.492-0.252,0.863-0.624,1.115-1.115c1.449-1.431,4.722-1.038,6.131-2.509c-0.137-0.88,0.502-0.983,0.279-1.95
	c0.649-2.789,0.094-6.782,0.279-10.034c0.324-3.021,1.995-4.693,5.017-5.017c5.017-0.186,10.776,0.37,15.329-0.278
	c2.047-0.275,2.993-1.652,3.345-3.623c0.647-1.491,0.095-4.179,0.278-6.133c-0.172-0.756,0.354-2.212-0.278-2.508
	c-0.478-0.638-2.128-0.103-3.066-0.279c-1.672,0-3.345,0-5.017,0c-0.558,0-1.115,0-1.673,0c-1.486,0-2.973,0-4.459,0
	c-6.225,0-12.449,0-18.674,0c-0.743,0-1.486,0-2.229,0c-1.421,0.168-2.713-0.469-3.344-0.836c-2.092-1.217-2.803-2.802-4.181-5.295
	c-2.623-4.745-6.425-11.312-8.083-15.608c-0.369-0.956-0.691-1.515-0.557-2.508c0-1.022,0-2.044,0-3.066
	c0.467-5.85,5.103-7.531,5.295-13.657c0.462-0.39,0.462-2.675,0-3.065c-0.069-1.418-0.606-2.367-1.951-2.508
	c-1.862-0.464-5.663-0.464-7.525,0C3.868,38.349,3.333,38.929,2.912,39.623z M82.345,67.494c-0.162,0.905,0.19,1.296,0.278,1.951
	c1.034-0.198,1.196,0.476,2.23,0.279c1.016-0.086,1.813,0.044,2.508,0.278c-0.046,0.604,0.99,0.127,1.395,0.279
	c0.278,0,0.557,0,0.835,0c-0.046,0.604,0.988,0.126,1.395,0.278c0.278,0,0.558,0,0.836,0c0.034,0.616,1.182,0.118,1.673,0.278
	c6.364,0.324,10.933,2.445,16.443,3.623c-0.046,0.458,1.717,0.458,1.673,0c3.679-0.909,2.236-5.672-1.395-5.294
	c-0.12-0.624-1.374-0.113-1.951-0.279c-0.278,0-0.557,0-0.835,0c-0.036-0.615-1.185-0.119-1.673-0.278c-0.278,0-0.558,0-0.836,0
	c-0.036-0.616-1.184-0.119-1.673-0.279c-0.278,0-0.557,0-0.835,0c-0.208-0.629-1.564-0.109-2.229-0.279c-1.024,0-2.046,0-3.067,0
	c-0.743,0-1.486,0-2.23,0c-0.648,0-1.3,0-1.951,0c-0.184,0-0.37,0-0.557,0c-0.034-0.615-1.182-0.119-1.673-0.279
	c-1.021,0-2.044,0-3.065,0c-0.278,0-0.557,0-0.835,0c0.046-0.604-0.99-0.126-1.395-0.279c-0.852,0.202-0.819-0.48-1.673-0.279
	C82.939,67.607,82.217,66.35,82.345,67.494z M64.507,67.772c-0.689,0.333-1.09,0.955-1.393,1.672
	c-0.642,0.66-0.101,2.501-0.278,3.624c0,1.301,0,2.602,0,3.901c0.18,1.584-0.367,3.897,0.278,5.018
	c1.212,0.645,3.618,0.096,5.295,0.278c1.208,0,2.416,0,3.624,0c0.836,0,1.671,0,2.509,0c0.416-0.048,1.027,0.1,1.113-0.278
	c2.342-0.54,3.631-2.131,3.903-4.738c0.631-0.297,0.105-1.752,0.278-2.509c0-0.279,0-0.558,0-0.836
	c0.633-0.296,0.105-1.752,0.278-2.508c-0.278,0-0.557,0-0.836,0c-4.771-0.989-9.142-2.379-13.657-3.624
	C65.82,67.321,64.309,67.321,64.507,67.772z"/>
<path fill-rule="evenodd" clip-rule="evenodd" fill="#D4D4D4" d="M42.21,15.375c0.604-0.047,0.126,0.988,0.279,1.394
	c0,0.743,0,1.486,0,2.229C41.848,18.338,42.39,16.497,42.21,15.375z"/>
<path fill-rule="evenodd" clip-rule="evenodd" fill="#D4D4D4" d="M3.47,35.721c2.789-0.465,7.523-0.465,10.312,0
	C10.345,35.721,6.907,35.721,3.47,35.721z"/>
<path fill-rule="evenodd" clip-rule="evenodd" fill="#D4D4D4" d="M60.327,61.919c1.026-0.645,3.246-0.097,4.738-0.278
	c0,0.093,0,0.186,0,0.278C63.484,61.919,61.906,61.919,60.327,61.919z"/>
<path fill-rule="evenodd" clip-rule="evenodd" fill="#D4D4D4" d="M108.543,76.97c1.395,0,2.787,0,4.182,0
	C111.972,77.433,109.299,77.433,108.543,76.97z"/>
<path fill-rule="evenodd" clip-rule="evenodd" fill="#9D9D9D" d="M59.212,5.063c0.632,0.297,0.106,1.752,0.278,2.509
	C58.857,7.275,59.385,5.819,59.212,5.063z"/>
<path fill-rule="evenodd" clip-rule="evenodd" fill="#6C6C6C" d="M42.489,7.571c0,0.65,0,1.3,0,1.951c-0.093,0-0.186,0-0.279,0
	C42.376,8.944,41.866,7.691,42.489,7.571z"/>
<path fill-rule="evenodd" clip-rule="evenodd" fill="#6C6C6C" d="M84.018,17.047c0.647,1.489,0.095,4.178,0.278,6.131
	c-0.092,0-0.186,0-0.278,0C84.018,21.135,84.018,19.091,84.018,17.047z"/>
<path fill-rule="evenodd" clip-rule="evenodd" fill="#9D9D9D" d="M16.848,39.065c0.623,0.12,0.113,1.374,0.279,1.951
	C16.503,40.896,17.013,39.643,16.848,39.065z"/>
<path fill-rule="evenodd" clip-rule="evenodd" fill="#6C6C6C" d="M2.912,39.623c0,13.007,0,26.013,0,39.02c-0.093,0-0.186,0-0.279,0
	C2.819,65.729,2.262,52.072,2.912,39.623z"/>
<path fill-rule="evenodd" clip-rule="evenodd" fill="#9D9D9D" d="M63.671,65.264c0.301-0.461,2.486-0.461,2.787,0
	C65.528,65.264,64.601,65.264,63.671,65.264z"/>
<path fill-rule="evenodd" clip-rule="evenodd" fill="#9D9D9D" d="M87.64,67.772c1.021,0,2.044,0,3.065,0c0,0.093,0,0.186,0,0.279
	C89.768,67.875,88.116,68.411,87.64,67.772z"/>
<path fill-rule="evenodd" clip-rule="evenodd" fill="#6C6C6C" d="M77.05,68.051c1.014,0.086,1.813-0.044,2.509-0.279
	c0.023,0.396,0.046,0.79-0.279,0.836C78.374,68.585,77.564,68.465,77.05,68.051z"/>
<path fill-rule="evenodd" clip-rule="evenodd" fill="#9D9D9D" d="M116.349,70.56c0.461,0.212,0.461,2.297,0,2.509
	C116.349,72.231,116.349,71.396,116.349,70.56z"/>
<path fill-rule="evenodd" clip-rule="evenodd" fill="#9D9D9D" d="M3.191,100.103c1.583,0.183,3.896-0.366,5.017,0.28
	C6.624,100.199,4.311,100.748,3.191,100.103z"/>
<path fill-rule="evenodd" clip-rule="evenodd" fill="#9D9D9D" d="M36.636,102.611c-0.185,3.252,0.37,7.245-0.279,10.034
	C36.542,109.393,35.987,105.4,36.636,102.611z"/>
<path fill-rule="evenodd" clip-rule="evenodd" fill="#6C6C6C" d="M30.504,121.285c0,2.322,0,4.646,0,6.968c-0.093,0-0.186,0-0.279,0
	C30.41,126.021,29.857,123.053,30.504,121.285z"/>
<path fill-rule="evenodd" clip-rule="evenodd" fill="#9D9D9D" d="M21.586,136.336c1.858,0,3.716,0,5.574,0
	C25.945,136.8,22.8,136.8,21.586,136.336z"/>
<path fill-rule="evenodd" clip-rule="evenodd" fill="#6C6C6C" d="M47.227,0.324c0.12-0.623,1.374-0.112,1.952-0.278
	c0,0.093,0,0.186,0,0.278C48.528,0.324,47.878,0.324,47.227,0.324z"/>
<path fill-rule="evenodd" clip-rule="evenodd" fill="#6C6C6C" d="M62.558,13.703c0.743,0,1.486,0,2.228,0c0,0.093,0,0.186,0,0.279
	C64.12,13.812,62.764,14.331,62.558,13.703z"/>
<path fill-rule="evenodd" clip-rule="evenodd" fill="#6C6C6C" d="M9.044,57.46c0,1.022,0,2.044,0,3.066
	C8.582,60.136,8.582,57.851,9.044,57.46z"/>
<path fill-rule="evenodd" clip-rule="evenodd" fill="#6C6C6C" d="M46.949,65.822c0.929,0,1.857,0,2.787,0c0,0.093,0,0.185,0,0.278
	C48.889,65.926,47.335,66.458,46.949,65.822z"/>
<path fill-rule="evenodd" clip-rule="evenodd" fill="#333333" d="M17.962,101.218c0.65,9.104,0.093,19.417,0.278,28.986
	c-0.092,0-0.185,0-0.278,0C17.962,120.542,17.962,110.88,17.962,101.218z"/>
</svg>
