<?xml version="1.0" encoding="utf-8"?>
<!-- Generator: Adobe Illustrator 15.0.0, SVG Export Plug-In  -->
<!DOCTYPE svg PUBLIC "-//W3C//DTD SVG 1.1//EN" "http://www.w3.org/Graphics/SVG/1.1/DTD/svg11.dtd" [
	<!ENTITY ns_flows "http://ns.adobe.com/Flows/1.0/">
]>
<svg version="1.1"
	 xmlns="http://www.w3.org/2000/svg" xmlns:xlink="http://www.w3.org/1999/xlink" xmlns:a="http://ns.adobe.com/AdobeSVGViewerExtensions/3.0/"
	 x="0px" y="0px" width="142px" height="142px" viewBox="-11.085 -2.144 142 142" enable-background="new -11.085 -2.144 142 142"
	 xml:space="preserve">
<defs>
</defs>
<path fill-rule="evenodd" clip-rule="evenodd" fill="#A0A0A0" d="M9.261,38.392c0-0.093,0-0.186,0-0.279c1.208,0,2.415,0,3.623,0
	c0,0.093,0,0.186,0,0.279C11.676,38.392,10.468,38.392,9.261,38.392z"/>
<path fill-rule="evenodd" clip-rule="evenodd" fill="#323232" d="M5.637,41.179c0.093,0,0.186,0,0.279,0c0,2.043,0,4.087,0,6.131
	c-0.093,0-0.186,0-0.279,0C5.637,45.267,5.637,43.223,5.637,41.179z"/>
<path fill-rule="evenodd" clip-rule="evenodd" fill="#A0A0A0" d="M17.064,41.179c0.378,0.086,0.231,0.698,0.278,1.114
	c-0.093,0-0.186,0-0.278,0C17.064,41.922,17.064,41.55,17.064,41.179z"/>
<path fill-rule="evenodd" clip-rule="evenodd" fill="#323232" d="M0.341,47.311c0,0.464,0,0.929,0,1.394
	C-0.114,48.83-0.114,47.185,0.341,47.311z"/>
<path fill-rule="evenodd" clip-rule="evenodd" fill="#A0A0A0" d="M3.129,48.705c-0.456,0.125-0.456-1.52,0-1.394
	C3.129,47.775,3.129,48.24,3.129,48.705z"/>
<path fill-rule="evenodd" clip-rule="evenodd" fill="#727272" d="M5.637,47.311c0.093,0,0.186,0,0.279,0
	c0.875,0.239,2.881-0.652,2.508,0.836c0.04,1.154-1.939,0.29-2.787,0.558C5.637,48.24,5.637,47.775,5.637,47.311z"/>
<path fill-rule="evenodd" clip-rule="evenodd" fill="#D5D5D5" d="M5.637,52.885c0,2.973,0,5.946,0,8.919c-0.093,0-0.186,0-0.279,0
	C5.543,58.922,4.988,55.302,5.637,52.885z"/>
<path fill-rule="evenodd" clip-rule="evenodd" fill="#A0A0A0" d="M2.85,53.164c0.093,0,0.186,0,0.279,0c0,4.181,0,8.361,0,12.542
	c-0.093,0-0.186,0-0.279,0C2.85,61.525,2.85,57.344,2.85,53.164z"/>
<path fill-rule="evenodd" clip-rule="evenodd" fill="#323232" d="M11.769,57.901c0,0.836,0,1.672,0,2.508
	C11.308,60.198,11.308,58.113,11.769,57.901z"/>
<path fill-rule="evenodd" clip-rule="evenodd" fill="#323232" d="M14.556,60.131c-0.458-0.038-0.458-1.913,0-1.951
	C14.556,58.831,14.556,59.481,14.556,60.131z"/>
<path fill-rule="evenodd" clip-rule="evenodd" fill="#323232" d="M47.723,61.525c0.038-0.459,1.913-0.459,1.951,0
	C49.023,61.525,48.373,61.525,47.723,61.525z"/>
<path fill-rule="evenodd" clip-rule="evenodd" fill="#323232" d="M50.51,61.525c0.39-0.462,2.675-0.462,3.066,0
	C52.554,61.525,51.531,61.525,50.51,61.525z"/>
<path fill-rule="evenodd" clip-rule="evenodd" fill="#D5D5D5" d="M2.85,65.706c0.093,0,0.186,0,0.279,0
	C2.943,72.395,3.5,79.827,2.85,86.051C2.85,79.27,2.85,72.488,2.85,65.706z"/>
<path fill-rule="evenodd" clip-rule="evenodd" fill="#323232" d="M40.197,69.05c0,0.372,0,0.744,0,1.115c-0.093,0-0.186,0-0.278,0
	C39.966,69.748,39.819,69.136,40.197,69.05z"/>
<path fill-rule="evenodd" clip-rule="evenodd" fill="#323232" d="M62.772,69.05c0.095,0,0.187,0,0.28,0c0,1.672,0,3.344,0,5.017
	C62.406,72.946,62.955,70.633,62.772,69.05z"/>
<path fill-rule="evenodd" clip-rule="evenodd" fill="#727272" d="M39.919,70.165c0.092,0,0.185,0,0.278,0c0,1.301,0,2.602,0,3.902
	c-0.093,0-0.186,0-0.278,0C39.919,72.766,39.919,71.465,39.919,70.165z"/>
<path fill-rule="evenodd" clip-rule="evenodd" fill="#D5D5D5" d="M42.706,70.722c0,0.65,0,1.302,0,1.95
	C42.247,72.635,42.247,70.76,42.706,70.722z"/>
<path fill-rule="evenodd" clip-rule="evenodd" fill="#727272" d="M65.561,73.789c0.092,0,0.185,0,0.278,0c0,1.579,0,3.158,0,4.738
	c-0.094,0-0.187,0-0.278,0C65.561,76.947,65.561,75.368,65.561,73.789z"/>
<path fill-rule="evenodd" clip-rule="evenodd" fill="#323232" d="M39.919,74.067c0.092,0,0.185,0,0.278,0c0,0.743,0,1.486,0,2.229
	C39.569,76.088,40.088,74.733,39.919,74.067z"/>
<path fill-rule="evenodd" clip-rule="evenodd" fill="#323232" d="M42.706,74.903c0.463,0.846,0.463,3.613,0,4.459
	C42.706,77.875,42.706,76.389,42.706,74.903z"/>
<path fill-rule="evenodd" clip-rule="evenodd" fill="#D5D5D5" d="M63.052,77.412c0.644,0.936,0.097,3.062,0.278,4.459
	c-0.094,0-0.186,0-0.278,0C63.052,80.383,63.052,78.898,63.052,77.412z"/>
<path fill-rule="evenodd" clip-rule="evenodd" fill="#A0A0A0" d="M65.561,78.527c0.092,0,0.185,0,0.278,0c0,1.207,0,2.415,0,3.623
	c-0.094,0-0.187,0-0.278,0C65.561,80.942,65.561,79.734,65.561,78.527z"/>
<path fill-rule="evenodd" clip-rule="evenodd" fill="#323232" d="M34.902,79.92c-0.125-0.456,1.52-0.456,1.393,0
	C35.831,79.92,35.367,79.92,34.902,79.92z"/>
<path fill-rule="evenodd" clip-rule="evenodd" fill="#A0A0A0" d="M63.052,81.871c0.093,0,0.185,0,0.278,0c0,1.208,0,2.416,0,3.623
	c-0.094,0-0.186,0-0.278,0c0-0.186,0-0.371,0-0.558c0-0.836,0-1.671,0-2.508C63.052,82.242,63.052,82.056,63.052,81.871z"/>
<path fill-rule="evenodd" clip-rule="evenodd" fill="#D5D5D5" d="M65.561,82.15c0.092,0,0.185,0,0.278,0c0,0.092,0,0.186,0,0.278
	c0,0.837,0,1.672,0,2.508c0,0.558,0,1.115,0,1.673C65.194,85.672,65.741,83.547,65.561,82.15z"/>
<path fill-rule="evenodd" clip-rule="evenodd" fill="#727272" d="M5.358,82.428c0.093,0,0.186,0,0.279,0c0,4.088,0,8.176,0,12.263
	c-0.093,0-0.186,0-0.279,0C5.358,90.604,5.358,86.516,5.358,82.428z"/>
<path fill-rule="evenodd" clip-rule="evenodd" fill="#A0A0A0" d="M31,82.707c-0.405-0.152-1.44,0.327-1.393-0.278
	c0.463,0,0.928,0,1.393,0C31,82.52,31,82.614,31,82.707z"/>
<path fill-rule="evenodd" clip-rule="evenodd" fill="#A0A0A0" d="M34.902,82.707c-0.125-0.454,1.52-0.454,1.393,0
	C35.831,82.707,35.367,82.707,34.902,82.707z"/>
<path fill-rule="evenodd" clip-rule="evenodd" fill="#A0A0A0" d="M5.358,94.691c0.093,0,0.186,0,0.279,0c0,0.465,0,0.93,0,1.395
	C5.033,96.132,5.511,95.097,5.358,94.691z"/>
<path fill-rule="evenodd" clip-rule="evenodd" fill="#323232" d="M51.067,94.97c-0.126-0.455,1.519-0.455,1.393,0
	C51.996,94.97,51.531,94.97,51.067,94.97z"/>
<path fill-rule="evenodd" clip-rule="evenodd" fill="#A0A0A0" d="M51.067,97.757c-0.126-0.455,1.519-0.455,1.393,0
	C51.996,97.757,51.531,97.757,51.067,97.757z"/>
<path fill-rule="evenodd" clip-rule="evenodd" fill="#A0A0A0" d="M10.097,98.036c-0.756-0.172-2.212,0.354-2.508-0.278
	c0.836,0,1.672,0,2.508,0C10.097,97.85,10.097,97.943,10.097,98.036z"/>
<path fill-rule="evenodd" clip-rule="evenodd" fill="#D5D5D5" d="M10.097,98.036c0-0.093,0-0.186,0-0.278c2.137,0,4.273,0,6.41,0
	C14.924,98.405,12.143,97.852,10.097,98.036z"/>
<path fill-rule="evenodd" clip-rule="evenodd" fill="#A0A0A0" d="M9.817,100.545c0-0.094,0-0.187,0-0.28c1.672,0,3.345,0,5.017,0
	c0,0.094,0,0.187,0,0.28C13.162,100.545,11.49,100.545,9.817,100.545z"/>
<path fill-rule="evenodd" clip-rule="evenodd" fill="#727272" d="M51.067,100.265c0.464,0,0.929,0,1.393,0c0,0.93,0,1.858,0,2.788
	c-0.464,0-0.929,0-1.393,0C51.067,102.124,51.067,101.195,51.067,100.265z"/>
<path fill-rule="evenodd" clip-rule="evenodd" fill="#323232" d="M20.966,103.889c0,4.459,0,8.919,0,13.378
	c-0.092,0-0.185,0-0.278,0C20.873,112.9,20.316,107.792,20.966,103.889z"/>
<path fill-rule="evenodd" clip-rule="evenodd" fill="#323232" d="M23.475,104.167c0.093,0,0.186,0,0.279,0c0,4.367,0,8.733,0,13.1
	c-0.093,0-0.186,0-0.279,0C23.475,112.901,23.475,108.535,23.475,104.167z"/>
<path fill-rule="evenodd" clip-rule="evenodd" fill="#D5D5D5" d="M41.87,104.167c0,3.252,0,6.504,0,9.755
	C41.405,111.32,41.405,106.772,41.87,104.167z"/>
<path fill-rule="evenodd" clip-rule="evenodd" fill="#A0A0A0" d="M20.966,117.546c0,0.558,0,1.114,0,1.671
	C20.509,119.264,20.509,117.5,20.966,117.546z"/>
<path fill-rule="evenodd" clip-rule="evenodd" fill="#A0A0A0" d="M23.475,117.546c0.458-0.047,0.458,1.718,0,1.671
	C23.475,118.661,23.475,118.104,23.475,117.546z"/>
<path fill-rule="evenodd" clip-rule="evenodd" fill="#A0A0A0" d="M41.034,122.841c0.378,0.086,0.231,0.698,0.278,1.114
	c-0.093,0-0.185,0-0.278,0C41.034,123.585,41.034,123.212,41.034,122.841z"/>
<path fill-rule="evenodd" clip-rule="evenodd" fill="#D5D5D5" d="M43.542,123.677c0.093,0,0.186,0,0.278,0c0,0.465,0,0.929,0,1.394
	C43.216,125.118,43.695,124.083,43.542,123.677z"/>
<path fill-rule="evenodd" clip-rule="evenodd" fill="#727272" d="M41.034,123.956c0.093,0,0.186,0,0.278,0c0,1.486,0,2.974,0,4.46
	c-0.093,0-0.185,0-0.278,0C41.034,126.929,41.034,125.442,41.034,123.956z"/>
<path fill-rule="evenodd" clip-rule="evenodd" fill="#D5D5D5" d="M43.82,127.022c0,0.65,0,1.301,0,1.951c-0.093,0-0.185,0-0.278,0
	C43.708,128.395,43.197,127.142,43.82,127.022z"/>
<path fill-rule="evenodd" clip-rule="evenodd" fill="#A0A0A0" d="M41.034,128.416c0.093,0,0.186,0,0.278,0
	c-0.023,0.441,0.134,1.063-0.278,1.115C41.034,129.159,41.034,128.787,41.034,128.416z"/>
<path fill-rule="evenodd" clip-rule="evenodd" fill="#A0A0A0" d="M29.607,133.99c0-0.093,0-0.187,0-0.278c0.092,0,0.185,0,0.278,0
	c1.021,0,2.044,0,3.065,0c0,0.092,0,0.186,0,0.278C31.836,133.99,30.721,133.99,29.607,133.99z"/>
<path fill-rule="evenodd" clip-rule="evenodd" fill="#727272" d="M32.951,133.99c0-0.093,0-0.187,0-0.278c0.836,0,1.672,0,2.508,0
	c0,0.092,0,0.186,0,0.278C34.623,133.99,33.787,133.99,32.951,133.99z"/>
<path fill-rule="evenodd" clip-rule="evenodd" fill="#A0A0A0" d="M35.459,133.99c0-0.093,0-0.187,0-0.278c0.465,0,0.929,0,1.394,0
	C36.899,134.315,35.864,133.837,35.459,133.99z"/>
<path fill-rule="evenodd" clip-rule="evenodd" fill="#323232" d="M24.59,136.499c1.672,0,3.344,0,5.017,0
	C28.577,136.962,25.62,136.962,24.59,136.499z"/>
<path fill-rule="evenodd" clip-rule="evenodd" fill="#323232" d="M65.839,84.936c0-0.836,0-1.671,0-2.508
	c4.868-0.651,13.008,0.978,15.328-1.672c1.675-1.911,1.107-5.017,1.395-8.919c-2.645-0.757-5.344-1.516-8.082-2.23
	c-2.584-0.674-5.255-1.92-8.084-1.394c-0.947,1.096-0.427,3.662-0.557,5.575c-0.094,0-0.187,0-0.278,0
	c-0.177-2.611,0.459-6.034-0.56-7.804c2.905-1.947,7.223,0.272,10.313,1.115c1.318,0.359,2.685,0.508,3.903,0.836
	c1.063,0.287,2.275,1.277,3.344,0.558c-0.415-0.422-0.449-1.223-0.558-1.951c-5.449-0.776-11.445-2.489-17.56-1.672
	c-0.236,0.051-0.263-0.109-0.278-0.279c-0.253-0.491-0.623-0.863-1.114-1.114c-0.222-0.615-1.311-0.363-1.395-1.115
	c6.251-1.502,13.329,0.464,19.231,1.115c0.444-6.367,0.894-12.317,2.508-17.837c0.491-1.674,1.244-3.292,1.673-5.017
	c0.945-3.799,1.088-7.762,1.393-11.985c0.29-3.99,0.587-8.306,0-12.821c-2.113-2.614-5.908-1.951-9.475-1.951
	c-1.858,0-3.878-0.039-5.854,0c-3.368,0.066-5.394,0.397-7.804-0.558c-0.851-0.337-1.776-0.651-2.229-1.115
	c-0.175-0.178-0.131-0.642-0.279-0.836c-0.183-0.239-0.387-0.244-0.558-0.558c-0.917-1.68-0.454-3.294-1.115-5.295
	c-0.775-2.351-3.306-2.783-7.246-2.509c-5.244,0.366-6.819,2.395-6.968,7.804c-0.068,2.454,0.212,5.054,0.279,7.804
	c0.177,7.39,1.1,15.599,0.557,23.69c-0.229,3.419-0.933,6.931-1.393,10.034c-0.496,3.336-1.224,6.682,0.836,9.198
	c0.186,0,0.371,0,0.557,0c-1.778,0.451-3.083,1.376-4.181,2.509c0.189-0.648,0.927-0.747,1.116-1.394
	c-3.485-4.689-0.262-12.371,0.278-19.789c0.539-7.396-0.222-15.485-0.558-22.854c-0.215-4.724-0.454-9.573,0-13.099
	c0.004-0.03,0.193-0.841,0.279-1.115c0.032-0.104,0.504-1.144,0.836-1.672c0.152-0.242,0.676-0.329,0.836-0.558
	c0.186-0.266,0.062-0.62,0.278-0.836c0.201-0.201,0.625-0.386,0.836-0.558c1.645-1.341,6.982-2.687,11.148-1.951
	c2.363,0.417,4.695,2.422,5.296,4.181c0.635,1.86-0.178,3.973,1.115,5.574c2.641,3.271,17.82-0.007,22.574,1.672
	c1.162,0.411,3.132,2.219,3.625,3.624c0.813,2.322,0.402,7.499,0.278,10.313c-0.251,5.703-0.611,11.361-1.951,16.166
	c-0.099,0.351-0.729,1.473-0.836,1.951c-1.313,5.842-3.055,12.264-3.067,20.067c0.962,0.641,2.222,0.861,3.624,1.115
	c4.811,0.871,11.79,0.501,17.839,0.836c1.979,0.109,4.161,0.605,6.13,0.835c1.284,0.15,2.32,0.047,3.346,0.279
	c2.296,0.519,4.538,2.176,4.738,4.739c0.213,2.717-1.767,5.366-4.181,5.853c-2.458,0.494-5.268-0.489-7.525-1.115
	c-4.243-1.176-9.013-2.452-14.216-3.065c-2.601-0.308-5.188-0.458-7.804-0.837c-0.645,3.927-0.469,6.313-1.673,8.919
	c-0.334,0.728-1.102,1.813-2.228,2.509C78.727,85.67,72.012,84.712,65.839,84.936z M85.348,69.607
	c2.909,0.094,5.602,0.78,8.362,1.115c2.757,0.335,5.582,0.417,8.639,1.115c1.991,0.455,4.738,1.528,7.527,2.229
	c1.818,0.457,6.688,1.521,6.688-1.951c0-2.958-3.723-2.773-6.409-3.066c-2.959-0.322-6.459-0.882-8.919-0.836
	c-5.485,0.104-12.313,0.125-16.166-1.115C84.852,68.247,85.499,68.53,85.348,69.607z"/>
<path fill-rule="evenodd" clip-rule="evenodd" fill="#727272" d="M34.902,79.92c0.465,0,0.929,0,1.393,0
	c0.24,0.875-0.651,2.881,0.836,2.508c-0.045,0.326-0.508,0.235-0.836,0.278c0.126-0.454-1.519-0.454-1.393,0c-1.3,0-2.602,0-3.902,0
	c0-0.093,0-0.187,0-0.278c1.046-0.374,2.963,0.518,3.624,0C35.281,81.913,34.729,81.164,34.902,79.92z"/>
<path fill-rule="evenodd" clip-rule="evenodd" fill="#323232" d="M2.85,43.688c-0.205-3.643-0.015-6.89,2.787-7.525
	c-2.154,1.19-2.854,3.835-2.508,7.525C3.036,43.688,2.943,43.688,2.85,43.688z"/>
<path fill-rule="evenodd" clip-rule="evenodd" fill="#727272" d="M2.85,43.688c0.093,0,0.186,0,0.279,0c0,1.208,0,2.415,0,3.623
	c-0.456-0.125-0.456,1.519,0,1.394c0,1.486,0,2.972,0,4.459c-0.093,0-0.186,0-0.279,0c0-1.394,0-2.787,0-4.181
	c-0.296-0.633-1.752-0.106-2.509-0.278c0-0.465,0-0.93,0-1.394c0.836,0,1.672,0,2.509,0C2.85,46.103,2.85,44.896,2.85,43.688z"/>
<path fill-rule="evenodd" clip-rule="evenodd" fill="#323232" d="M3.686,98.873c0.554,0.003,0.354,0.76,1.115,0.557
	c0,0.093,0,0.187,0,0.279c-0.761,0.202-0.561-0.554-1.115-0.558C3.686,99.058,3.686,98.965,3.686,98.873z"/>
<path fill-rule="evenodd" clip-rule="evenodd" fill="#323232" d="M16.786,119.217c1.358,0.129,3.265-0.291,4.18,0.279
	c0,3.53,0,7.061,0,10.591c-0.092,0-0.185,0-0.278,0c0-3.437,0-6.875,0-10.312C20.025,118.953,17.449,120.042,16.786,119.217z"/>
<path fill-rule="evenodd" clip-rule="evenodd" fill="#323232" d="M21.523,134.826c0.511,0.325,0.944,0.729,1.394,1.115
	C22.1,135.922,21.882,135.304,21.523,134.826z"/>
<path fill-rule="evenodd" clip-rule="evenodd" fill="#323232" d="M41.312,135.105c0.252-0.492,0.624-0.863,1.115-1.115
	C42.175,134.481,41.804,134.853,41.312,135.105z"/>
<path fill-rule="evenodd" clip-rule="evenodd" fill="#D5D5D5" d="M63.052,63.476c0.491,0.251,0.861,0.623,1.114,1.114
	C63.675,64.338,63.303,63.967,63.052,63.476z"/>
<path fill-rule="evenodd" clip-rule="evenodd" fill="#323232" d="M39.361,133.154c0.251-0.491,0.624-0.863,1.115-1.115
	C40.224,132.531,39.853,132.902,39.361,133.154z"/>
<path fill-rule="evenodd" clip-rule="evenodd" fill="#D5D5D5" d="M22.917,81.871c0.583,0.347,1.047,0.812,1.394,1.395
	C23.728,82.918,23.263,82.455,22.917,81.871z"/>
<path fill-rule="evenodd" clip-rule="evenodd" fill="#323232" d="M19.852,77.412c1.067,1.44,1.913,3.104,3.066,4.459
	c0.346,0.584,0.81,1.048,1.394,1.395c0.5,0.707,1.531,0.884,2.229,1.393C22.527,84.026,21.354,80.553,19.852,77.412z"/>
<path fill-rule="evenodd" clip-rule="evenodd" fill="#727272" d="M51.067,94.97c0.464,0,0.929,0,1.393,0c0,0.836,0,1.672,0,2.509
	c2.416,0,4.832,0,7.247,0c-1.861,0.646-4.922,0.094-7.247,0.278c0.126-0.455-1.519-0.455-1.393,0c-2.23,0-4.46,0-6.689,0
	c1.675-0.647,4.55-0.095,6.689-0.278C51.067,96.642,51.067,95.806,51.067,94.97z"/>
<path fill-rule="evenodd" clip-rule="evenodd" fill="#323232" d="M23.475,119.497c0.916-0.57,2.822-0.15,4.181-0.279
	c0,0.094,0,0.187,0,0.279c-1.301,0-2.601,0-3.902,0c-0.185,3.531,0.371,7.803-0.279,10.87
	C23.475,126.744,23.475,123.121,23.475,119.497z"/>
<path fill-rule="evenodd" clip-rule="evenodd" fill="#727272" d="M20.688,117.267c0.093,0,0.186,0,0.278,0c0,0.093,0,0.186,0,0.279
	c-0.457-0.047-0.457,1.718,0,1.671c0,0.094,0,0.187,0,0.279c-0.916-0.57-2.822-0.15-4.18-0.279c0-0.649,0-1.3,0-1.95
	C18.086,117.267,19.387,117.267,20.688,117.267z"/>
<path fill-rule="evenodd" clip-rule="evenodd" fill="#727272" d="M23.475,117.546c0-0.094,0-0.187,0-0.279c0.093,0,0.186,0,0.279,0
	c1.214,0.18,3.151-0.363,3.902,0.279c0,0.558,0,1.114,0,1.671c-1.358,0.129-3.265-0.291-4.181,0.279c0-0.093,0-0.186,0-0.279
	C23.932,119.264,23.932,117.5,23.475,117.546z"/>
<path fill-rule="evenodd" clip-rule="evenodd" fill="#FFFFFF" d="M13.162,35.604c3.712-0.274,6.016,0.859,6.411,3.902
	c0.177,0.938-0.359,2.589,0.279,3.066c0,0.464,0,0.929,0,1.393c-0.628,0.208-0.109,1.564-0.279,2.23
	c-0.411,5.256-4.324,7.01-5.017,11.985c-0.458,0.038-0.458,1.913,0,1.951c0.978,4.641,4.333,9.964,6.968,14.492
	c0.503,0.866,0.87,1.937,1.394,2.788c0.225,0.366,0.795,0.628,1.114,1.115c0.298,0.452,0.295,1.072,0.558,1.394
	c1.279,1.561,2.567,2.149,5.017,2.508c-0.047,0.605,0.988,0.126,1.393,0.278c1.301,0,2.602,0,3.902,0c0.465,0,0.929,0,1.393,0
	c0.329-0.043,0.792,0.048,0.836-0.278c3.031-0.034,2.999-3.132,3.066-6.132c0-0.743,0-1.486,0-2.229c0-1.301,0-2.602,0-3.902
	c0-0.371,0-0.743,0-1.115c-0.067-2.204,0.488-3.785,1.393-5.016c1.099-1.132,2.403-2.058,4.181-2.509c0.65,0,1.3,0,1.951,0
	c0.65,0,1.301,0,1.951,0c0.278,0,0.557,0,0.836,0c1.021,0,2.044,0,3.066,0c0.929,0,1.858,0,2.787,0
	c0.035,0.615,1.182,0.118,1.672,0.279c1.582-0.189,2.285,0.501,3.623,0.557c0.084,0.752,1.173,0.5,1.395,1.115
	c0.251,0.491,0.623,0.862,1.114,1.114c0.016,0.17,0.042,0.33,0.278,0.279c0.375,0.183,0.519,0.595,0.557,1.115
	c1.019,1.771,0.383,5.193,0.56,7.804c0,1.579,0,3.158,0,4.738c0,1.207,0,2.415,0,3.623c0.18,1.397-0.367,3.522,0.278,4.459
	c0.046,1.792,0.054,3.92,0,5.853c-0.086,3.018-0.145,4.881-1.951,6.411c-0.221,0.186-0.583,0.089-0.836,0.278
	c-0.3,0.225-0.796,0.942-1.951,0.836c-1.769,0.183-4.27-0.367-5.575,0.278c-1.022,0-2.043,0-3.066,0c-0.464,0-0.929,0-1.393,0
	c-4.188,0.222-9.28-1.01-9.197,3.902c-0.465,2.604-0.465,7.152,0,9.755c0.427,2.452,1.821,3.939,1.672,6.968
	c0,0.929,0,1.858,0,2.787c0.153,0.406-0.326,1.44,0.278,1.394c0,0.651,0,1.301,0,1.951c-0.623,0.12-0.113,1.373-0.278,1.951
	c0,0.65,0,1.301,0,1.95c0.178,1.573-0.606,2.182-1.115,3.066c-0.491,0.252-0.863,0.623-1.115,1.115
	c-0.847,0.453-1.373,1.228-2.787,1.114c-0.743,0-1.486,0-2.23,0c-4.273,0-8.547,0-12.82,0c-0.324,0.046-0.496-0.062-0.557-0.278
	c-0.45-0.387-0.883-0.79-1.394-1.115c-0.233-0.603-0.721-0.951-0.558-1.951c0-0.928,0-1.857,0-2.787c0-3.53,0-7.061,0-10.591
	c0-0.093,0-0.186,0-0.279c0-0.557,0-1.113,0-1.671c0-0.094,0-0.187,0-0.279c0-4.459,0-8.919,0-13.378
	c0.013-1.592,0.019-3.178-1.393-3.344c-1.028-0.646-3.248-0.099-4.738-0.28c-1.672,0-3.345,0-5.017,0c-1.208,0-2.415,0-3.623,0
	c-0.692,0.043-1.157-0.143-1.394-0.557c0-0.093,0-0.187,0-0.279c-0.761,0.203-0.561-0.554-1.115-0.557
	c-0.119-0.532-0.796-0.504-0.557-1.394c-0.179-1.122,0.362-2.964-0.279-3.623c0-2.602,0-5.203,0-7.805
	c0.65-6.225,0.093-13.656,0.279-20.345c0-4.181,0-8.362,0-12.542c0-1.487,0-2.973,0-4.459c0-0.465,0-0.93,0-1.394
	c0-1.208,0-2.415,0-3.623c-0.346-3.69,0.354-6.335,2.508-7.525c0.045-0.327,0.508-0.235,0.836-0.278
	C8.612,35.7,11.487,36.252,13.162,35.604z M7.588,38.392c-0.836,0.278-1.394,0.835-1.672,1.672
	c-0.413,0.052-0.256,0.674-0.279,1.115c0,2.043,0,4.087,0,6.131c0,0.464,0,0.929,0,1.394c0,1.393,0,2.787,0,4.18
	c-0.649,2.417-0.094,6.038-0.279,8.919c0,6.875,0,13.75,0,20.625c0,4.088,0,8.176,0,12.263c0.152,0.406-0.326,1.441,0.279,1.395
	c0.023,1.184,0.903,1.512,1.951,1.672c0.296,0.633,1.752,0.106,2.508,0.278c2.046-0.184,4.828,0.369,6.41-0.278
	c0.65,0,1.301,0,1.951,0c0.208,0.628,1.563,0.109,2.23,0.278c1.706,0.245,2.578,1.324,2.787,3.066c0,1.021,0,2.043,0,3.065
	c0,4.367,0,8.733,0,13.1c0,0.093,0,0.186,0,0.279c0,0.558,0,1.114,0,1.671c0,0.094,0,0.187,0,0.279c0,3.624,0,7.247,0,10.87
	c-0.091,1.299,0.218,2.198,0.557,3.066c0.527-0.063,0.616,0.313,1.115,0.278c0.935,0.645,3.061,0.097,4.46,0.278
	c1.114,0,2.229,0,3.344,0c0.836,0,1.672,0,2.508,0c0.405-0.152,1.44,0.325,1.394-0.278c1.039,0.017,1.763-0.281,2.508-0.558
	c0.491-0.252,0.863-0.623,1.115-1.115c0.07-0.951,0.705-1.339,0.558-2.508c0.413-0.053,0.255-0.674,0.278-1.115
	c0-1.486,0-2.974,0-4.46c-0.047-0.416,0.1-1.028-0.278-1.114c-0.069-1.975-0.529-3.559-0.836-5.295
	c-0.367-0.841-0.9-1.516-0.836-2.788c0-3.437,0-6.875,0-10.312c0-0.558,0-1.115,0-1.673c0.343-3.001,2.015-4.674,5.017-5.017
	c2.229,0,4.459,0,6.689,0c0.464,0,0.929,0,1.393,0c2.325-0.185,5.386,0.368,7.247-0.278c1.232-0.161,2.023-0.765,2.786-1.394
	c0.044-0.036,0.248,0.043,0.278,0c1.507-2.13,0.028-7.382,0.559-10.592c0-1.207,0-2.415,0-3.623
	c-0.182-1.397,0.365-3.523-0.278-4.459c0-1.115,0-2.229,0-3.345c0-1.673,0-3.345,0-5.017c-0.048-0.417,0.099-1.028-0.28-1.115
	c-0.151-1.148-0.872-1.729-1.393-2.509c-0.094,0-0.187,0-0.278,0c-1.17-0.781-2.926-0.976-4.738-1.114
	c-2.604-0.464-7.152-0.464-9.755,0c-0.488,0.255-1.39,0.096-1.672,0.558c-1.921,0.773-1.859,3.529-2.229,5.853
	c-0.459,0.038-0.459,1.913,0,1.95c0,0.744,0,1.487,0,2.23c0,1.486,0,2.973,0,4.459c0.199,1.407-0.381,2.036-0.558,3.066
	c-0.782,0.375-0.726,1.191-1.394,1.672c-0.578,0.417-2.574,0.647-2.788,1.115c-0.557,0-1.114,0-1.672,0c-0.557,0-1.114,0-1.672,0
	c-1.58,0-3.159,0-4.738,0c-0.035-0.615-1.183-0.118-1.672-0.279c-0.49-0.16-1.638,0.337-1.672-0.278
	c-0.699-0.509-1.729-0.686-2.229-1.393c-0.346-0.583-0.811-1.048-1.394-1.395c-1.153-1.355-1.999-3.019-3.066-4.459
	c-2.333-3.136-3.861-6.904-5.574-10.313c-1.043-2.074-2.627-3.932-2.508-6.689c0-0.836,0-1.672,0-2.508
	c0.332-5.707,4.62-7.457,5.295-12.821c0.636-0.386,0.104-1.939,0.278-2.787c-0.047-0.417,0.1-1.028-0.278-1.114
	c-0.142-1.345-0.496-2.477-1.672-2.787c-0.296-0.633-1.752-0.106-2.508-0.279c-1.208,0-2.416,0-3.623,0
	C8.771,38.273,7.623,37.776,7.588,38.392z"/>
<path fill-rule="evenodd" clip-rule="evenodd" fill="#727272" d="M12.884,38.113c0.756,0.173,2.212-0.354,2.508,0.279
	c-0.836,0-1.672,0-2.508,0C12.884,38.299,12.884,38.206,12.884,38.113z"/>
<path fill-rule="evenodd" clip-rule="evenodd" fill="#727272" d="M5.916,40.064c0,0.372,0,0.743,0,1.115c-0.093,0-0.186,0-0.279,0
	C5.66,40.738,5.503,40.116,5.916,40.064z"/>
<path fill-rule="evenodd" clip-rule="evenodd" fill="#727272" d="M17.343,42.293c-0.175,0.848,0.357,2.401-0.278,2.787
	c0-0.929,0-1.858,0-2.787C17.157,42.293,17.25,42.293,17.343,42.293z"/>
<path fill-rule="evenodd" clip-rule="evenodd" fill="#D5D5D5" d="M19.852,43.966c-0.17,0.667,0.35,2.022-0.279,2.23
	C19.743,45.53,19.223,44.174,19.852,43.966z"/>
<path fill-rule="evenodd" clip-rule="evenodd" fill="#727272" d="M56.363,61.525c0.49,0.161,1.638-0.337,1.672,0.279
	C57.545,61.643,56.397,62.14,56.363,61.525z"/>
<path fill-rule="evenodd" clip-rule="evenodd" fill="#323232" d="M44.936,64.87c0.282-0.462,1.184-0.303,1.672-0.558
	c3.251,0,6.503,0,9.755,0c1.812,0.139,3.568,0.333,4.738,1.114C56.561,66.589,48.792,66.796,44.936,64.87z"/>
<path fill-rule="evenodd" clip-rule="evenodd" fill="#727272" d="M62.772,67.935c0.379,0.086,0.232,0.698,0.28,1.115
	c-0.094,0-0.186,0-0.28,0C62.772,68.678,62.772,68.307,62.772,67.935z"/>
<path fill-rule="evenodd" clip-rule="evenodd" fill="#A0A0A0" d="M5.358,82.428c0-6.875,0-13.75,0-20.625c0.093,0,0.186,0,0.279,0
	c0,6.875,0,13.75,0,20.625C5.544,82.428,5.452,82.428,5.358,82.428z"/>
<path fill-rule="evenodd" clip-rule="evenodd" fill="#323232" d="M37.967,85.215c0.214-0.468,2.209-0.698,2.788-1.115
	c0.667-0.48,0.611-1.297,1.394-1.672c6.967,0,13.935,0,20.904,0c0,0.837,0,1.672,0,2.508C56.071,85.487,46.259,85.101,37.967,85.215
	z"/>
<path fill-rule="evenodd" clip-rule="evenodd" fill="#727272" d="M28.213,84.936c0.49,0.161,1.637-0.336,1.672,0.279
	C29.396,85.055,28.248,85.552,28.213,84.936z"/>
<path fill-rule="evenodd" clip-rule="evenodd" fill="#727272" d="M63.331,85.494c-0.53,3.21,0.948,8.462-0.559,10.592
	c-0.03,0.043-0.234-0.036-0.278,0c1.05-2.668,0.362-7.071,0.559-10.592C63.145,85.494,63.237,85.494,63.331,85.494z"/>
<path fill-rule="evenodd" clip-rule="evenodd" fill="#D5D5D5" d="M2.85,93.856c0.641,0.659,0.1,2.501,0.279,3.623
	C2.488,96.819,3.029,94.977,2.85,93.856z"/>
<path fill-rule="evenodd" clip-rule="evenodd" fill="#D5D5D5" d="M18.458,97.757c0.667,0.169,2.022-0.35,2.23,0.278
	C20.021,97.867,18.666,98.385,18.458,97.757z"/>
<path fill-rule="evenodd" clip-rule="evenodd" fill="#D5D5D5" d="M55.526,100.265c1.305-0.646,3.806-0.096,5.575-0.278
	C59.795,100.633,57.295,100.083,55.526,100.265z"/>
<path fill-rule="evenodd" clip-rule="evenodd" fill="#727272" d="M14.834,100.265c1.491,0.182,3.71-0.365,4.738,0.28
	c-1.579,0-3.159,0-4.738,0C14.834,100.452,14.834,100.359,14.834,100.265z"/>
<path fill-rule="evenodd" clip-rule="evenodd" fill="#A0A0A0" d="M39.361,104.447c0,3.437,0,6.875,0,10.312
	c-0.217-0.062-0.324-0.233-0.279-0.557c0-3.252,0-6.504,0-9.755C39.175,104.447,39.268,104.447,39.361,104.447z"/>
<path fill-rule="evenodd" clip-rule="evenodd" fill="#323232" d="M39.361,114.758c-0.064,1.272,0.469,1.947,0.836,2.788
	c-1.99,1.168-5.309,1.008-6.689,2.786c-0.792,3.853,0.235,9.525-0.558,13.379c-1.021,0-2.044,0-3.065,0
	c-0.155-0.238,0.264-0.242,0.278-0.278c1.349-3.405-0.392-10.97,0.558-13.657c0.398-1.129,1.702-2.399,3.065-3.066
	c1.491-0.729,4.054-0.571,5.017-1.951c0.122-0.175-0.04-0.582,0.279-0.557C39.037,114.525,39.144,114.697,39.361,114.758z"/>
<path fill-rule="evenodd" clip-rule="evenodd" fill="#A0A0A0" d="M43.82,128.973c-0.166,0.577,0.345,1.83-0.278,1.95
	c0-0.649,0-1.3,0-1.95C43.635,128.973,43.728,128.973,43.82,128.973z"/>
<path fill-rule="evenodd" clip-rule="evenodd" fill="#727272" d="M20.966,130.087c0,0.93,0,1.859,0,2.787
	c-0.635-0.386-0.104-1.939-0.278-2.787C20.781,130.087,20.874,130.087,20.966,130.087z"/>
<path fill-rule="evenodd" clip-rule="evenodd" fill="#727272" d="M36.295,136.219c0.744,0,1.487,0,2.23,0
	c-0.208,0.629-1.563,0.108-2.23,0.279C36.295,136.405,36.295,136.312,36.295,136.219z"/>
<path fill-rule="evenodd" clip-rule="evenodd" fill="#D5D5D5" d="M6.474,35.884c1.675-0.648,4.55-0.095,6.688-0.279
	C11.487,36.252,8.612,35.7,6.474,35.884z"/>
<path fill-rule="evenodd" clip-rule="evenodd" fill="#A0A0A0" d="M19.573,39.507c0.638,0.477,0.103,2.127,0.279,3.066
	C19.213,42.096,19.75,40.445,19.573,39.507z"/>
<path fill-rule="evenodd" clip-rule="evenodd" fill="#D5D5D5" d="M6.195,100.265c1.208,0,2.415,0,3.623,0c0,0.094,0,0.187,0,0.28
	C8.696,100.366,6.854,100.907,6.195,100.265z"/>
<path fill-rule="evenodd" clip-rule="evenodd" fill="#D5D5D5" d="M23.475,136.219c4.273,0,8.547,0,12.82,0c0,0.093,0,0.186,0,0.279
	c-2.229,0-4.459,0-6.688,0c-1.673,0-3.345,0-5.017,0C24.148,136.475,23.526,136.632,23.475,136.219z"/>
<path fill-rule="evenodd" clip-rule="evenodd" fill="#727272" d="M7.588,38.392c0.035-0.616,1.182-0.119,1.672-0.279
	c0,0.093,0,0.186,0,0.279C8.703,38.392,8.146,38.392,7.588,38.392z"/>
<path fill-rule="evenodd" clip-rule="evenodd" fill="#727272" d="M46.607,64.312c2.604-0.464,7.152-0.464,9.755,0
	C53.111,64.312,49.859,64.312,46.607,64.312z"/>
<path fill-rule="evenodd" clip-rule="evenodd" fill="#727272" d="M43.542,120.89c0.635,0.387,0.104,1.939,0.278,2.787
	c-0.093,0-0.185,0-0.278,0C43.542,122.749,43.542,121.819,43.542,120.89z"/>
<path fill-rule="evenodd" clip-rule="evenodd" fill="#727272" d="M25.147,133.711c1.487,0,2.973,0,4.46,0c0,0.092,0,0.186,0,0.278
	C28.208,133.808,26.082,134.356,25.147,133.711z"/>
<path fill-rule="evenodd" clip-rule="evenodd" fill="#727272" d="M34.623,85.215c0.558,0,1.115,0,1.672,0
	c-0.275,0.932,0.709,3.124-0.836,2.786C34.183,88.071,35.438,85.608,34.623,85.215z"/>
<path fill-rule="evenodd" clip-rule="evenodd" fill="#727272" d="M23.475,101.102c0.638,0.477,0.103,2.127,0.279,3.065
	c-0.093,0-0.186,0-0.279,0C23.475,103.145,23.475,102.124,23.475,101.102z"/>
<path fill-rule="evenodd" clip-rule="evenodd" fill="#727272" d="M39.361,102.774c0,0.558,0,1.115,0,1.673c-0.093,0-0.186,0-0.279,0
	C39.243,103.956,38.746,102.809,39.361,102.774z"/>
</svg>
