<?xml version="1.0" encoding="utf-8"?>
<!-- Generator: Adobe Illustrator 15.0.0, SVG Export Plug-In  -->
<!DOCTYPE svg PUBLIC "-//W3C//DTD SVG 1.1//EN" "http://www.w3.org/Graphics/SVG/1.1/DTD/svg11.dtd" [
	<!ENTITY ns_flows "http://ns.adobe.com/Flows/1.0/">
]>
<svg version="1.1"
	 xmlns="http://www.w3.org/2000/svg" xmlns:xlink="http://www.w3.org/1999/xlink" xmlns:a="http://ns.adobe.com/AdobeSVGViewerExtensions/3.0/"
	 x="0px" y="0px" width="142px" height="142px" viewBox="-9.754 -2.22 142 142" enable-background="new -9.754 -2.22 142 142"
	 xml:space="preserve">
<defs>
</defs>
<path fill-rule="evenodd" clip-rule="evenodd" fill="#323232" d="M4.181,40.267c0,0.65,0,1.3,0,1.951
	C3.722,42.18,3.722,40.305,4.181,40.267z"/>
<path fill-rule="evenodd" clip-rule="evenodd" fill="#323232" d="M6.689,41.661c0.023-0.442-0.134-1.063,0.279-1.115
	c0,0.372,0,0.743,0,1.115C6.875,41.661,6.783,41.661,6.689,41.661z"/>
<path fill-rule="evenodd" clip-rule="evenodd" fill="#9C9C9C" d="M18.396,40.546c0.638,0.477,0.102,2.127,0.278,3.066
	c-0.093,0-0.186,0-0.278,0C18.396,42.59,18.396,41.567,18.396,40.546z"/>
<path fill-rule="evenodd" clip-rule="evenodd" fill="#D5D5D5" d="M20.904,40.825c0.093,0,0.186,0,0.279,0c0,0.929,0,1.858,0,2.787
	c-0.093,0-0.186,0-0.279,0C20.904,42.683,20.904,41.753,20.904,40.825z"/>
<path fill-rule="evenodd" clip-rule="evenodd" fill="#D5D5D5" d="M18.396,43.612c0.093,0,0.186,0,0.278,0
	c-0.023,0.441,0.134,1.063-0.278,1.115C18.396,44.355,18.396,43.983,18.396,43.612z"/>
<path fill-rule="evenodd" clip-rule="evenodd" fill="#323232" d="M0,63.4c0.844-0.643,2.875-0.099,4.181-0.279
	c0,0.093,0,0.186,0,0.279C2.788,63.4,1.394,63.4,0,63.4z"/>
<path fill-rule="evenodd" clip-rule="evenodd" fill="#323232" d="M10.87,63.122c-0.663,0.462-3.239,0.462-3.902,0
	C8.269,63.122,9.569,63.122,10.87,63.122z"/>
<path fill-rule="evenodd" clip-rule="evenodd" fill="#727272" d="M0,63.4c1.394,0,2.788,0,4.181,0c0,0.65,0,1.301,0,1.95
	c-1.394,0-2.787,0-4.181,0C0,64.701,0,64.05,0,63.4z"/>
<path fill-rule="evenodd" clip-rule="evenodd" fill="#9C9C9C" d="M6.689,63.4c0.459,0.038,0.459,1.913,0,1.95
	C6.689,64.701,6.689,64.05,6.689,63.4z"/>
<path fill-rule="evenodd" clip-rule="evenodd" fill="#323232" d="M11.148,64.515c-0.043,0.328,0.048,0.792-0.278,0.836
	C10.708,64.784,11.06,63.155,11.148,64.515z"/>
<path fill-rule="evenodd" clip-rule="evenodd" fill="#D5D5D5" d="M4.181,77.893c0.464,3.626,0.464,9.197,0,12.821
	C4.181,86.44,4.181,82.166,4.181,77.893z"/>
<path fill-rule="evenodd" clip-rule="evenodd" fill="#9C9C9C" d="M6.689,78.729c0.093,0,0.186,0,0.279,0c0,3.809,0,7.618,0,11.427
	c-0.093,0-0.186,0-0.279,0C6.689,86.348,6.689,82.538,6.689,78.729z"/>
<path fill-rule="evenodd" clip-rule="evenodd" fill="#9C9C9C" d="M31.495,85.14c0-0.093,0-0.186,0-0.279
	c2.232,0.184,5.2-0.368,6.968,0.279C36.14,85.14,33.817,85.14,31.495,85.14z"/>
<path fill-rule="evenodd" clip-rule="evenodd" fill="#323232" d="M4.181,93.502c0,0.835,0,1.672,0,2.508
	C3.721,95.798,3.721,93.713,4.181,93.502z"/>
<path fill-rule="evenodd" clip-rule="evenodd" fill="#D5D5D5" d="M8.362,97.682c3.251,0,6.503,0,9.755,0
	C15.513,98.146,10.965,98.146,8.362,97.682z"/>
<path fill-rule="evenodd" clip-rule="evenodd" fill="#323232" d="M40.692,101.305c0,0.372,0,0.743,0,1.115c-0.093,0-0.186,0-0.279,0
	C40.461,102.003,40.314,101.391,40.692,101.305z"/>
<path fill-rule="evenodd" clip-rule="evenodd" fill="#727272" d="M40.414,102.42c0.093,0,0.186,0,0.279,0c0,0.558,0,1.114,0,1.672
	c-0.093,0-0.186,0-0.279,0C40.414,103.534,40.414,102.978,40.414,102.42z"/>
<path fill-rule="evenodd" clip-rule="evenodd" fill="#D5D5D5" d="M43.201,103.256c0,1.301,0,2.602,0,3.902c0,0.464,0,0.929,0,1.393
	c0,1.767,0,3.531,0,5.296C42.736,110.965,42.736,106.138,43.201,103.256z"/>
<path fill-rule="evenodd" clip-rule="evenodd" fill="#9C9C9C" d="M40.414,104.092c0.093,0,0.186,0,0.279,0c0,1.022,0,2.044,0,3.066
	c-0.093,0-0.186,0-0.279,0C40.414,106.136,40.414,105.114,40.414,104.092z"/>
<path fill-rule="evenodd" clip-rule="evenodd" fill="#323232" d="M37.905,107.158c0,0.464,0,0.929,0,1.393
	C37.45,108.678,37.45,107.032,37.905,107.158z"/>
<path fill-rule="evenodd" clip-rule="evenodd" fill="#727272" d="M37.905,107.158c0.836,0,1.672,0,2.508,0c0,0.464,0,0.929,0,1.393
	c-0.836,0-1.672,0-2.508,0C37.905,108.087,37.905,107.622,37.905,107.158z"/>
<path fill-rule="evenodd" clip-rule="evenodd" fill="#D5D5D5" d="M40.414,107.158c0.093,0,0.186,0,0.279,0c0,0.464,0,0.929,0,1.393
	c-0.093,0-0.186,0-0.279,0C40.414,108.087,40.414,107.622,40.414,107.158z"/>
<path fill-rule="evenodd" clip-rule="evenodd" fill="#727272" d="M43.201,107.158c0.929,0,1.857,0,2.787,0c0,0.464,0,0.929,0,1.393
	c-0.929,0-1.858,0-2.787,0C43.201,108.087,43.201,107.622,43.201,107.158z"/>
<path fill-rule="evenodd" clip-rule="evenodd" fill="#323232" d="M19.51,108.551c0,0.372,0,0.743,0,1.115
	C19.059,109.866,19.059,108.352,19.51,108.551z"/>
<path fill-rule="evenodd" clip-rule="evenodd" fill="#727272" d="M19.51,108.551c0.743,0,1.487,0,2.23,0c0.093,0,0.186,0,0.278,0
	c0.023,0.442-0.134,1.063,0.278,1.115c0,0.093,0,0.187,0,0.278c-0.092,0-0.185,0-0.278,0c-0.756-0.172-2.212,0.354-2.508-0.278
	C19.51,109.294,19.51,108.923,19.51,108.551z"/>
<path fill-rule="evenodd" clip-rule="evenodd" fill="#9C9C9C" d="M22.019,108.551c0.093,0,0.186,0,0.278,0c0,0.372,0,0.743,0,1.115
	C21.884,109.614,22.042,108.993,22.019,108.551z"/>
<path fill-rule="evenodd" clip-rule="evenodd" fill="#9C9C9C" d="M24.806,108.551c0.452-0.199,0.452,1.315,0,1.115
	C24.806,109.294,24.806,108.923,24.806,108.551z"/>
<path fill-rule="evenodd" clip-rule="evenodd" fill="#323232" d="M22.019,109.944c0.093,0,0.186,0,0.278,0
	c0,6.689,0,13.379,0,20.067c-0.092,0-0.185,0-0.278,0C22.019,123.323,22.019,116.634,22.019,109.944z"/>
<path fill-rule="evenodd" clip-rule="evenodd" fill="#9C9C9C" d="M42.365,122.766c0.604-0.048,0.126,0.988,0.278,1.394
	c-0.093,0-0.185,0-0.278,0C42.365,123.694,42.365,123.23,42.365,122.766z"/>
<path fill-rule="evenodd" clip-rule="evenodd" fill="#D5D5D5" d="M44.873,123.323c0.093,0,0.186,0,0.278,0c0,0.557,0,1.115,0,1.672
	C44.536,124.961,45.033,123.813,44.873,123.323z"/>
<path fill-rule="evenodd" clip-rule="evenodd" fill="#727272" d="M42.365,124.159c0.093,0,0.186,0,0.278,0c0,1.394,0,2.787,0,4.181
	c-0.093,0-0.185,0-0.278,0C42.365,126.946,42.365,125.553,42.365,124.159z"/>
<path fill-rule="evenodd" clip-rule="evenodd" fill="#D5D5D5" d="M45.151,126.946c0,0.743,0,1.486,0,2.229c-0.093,0-0.185,0-0.278,0
	C45.043,128.51,44.523,127.153,45.151,126.946z"/>
<path fill-rule="evenodd" clip-rule="evenodd" fill="#9C9C9C" d="M42.365,128.34c0.093,0,0.186,0,0.278,0
	c-0.023,0.441,0.134,1.063-0.278,1.115C42.365,129.083,42.365,128.711,42.365,128.34z"/>
<path fill-rule="evenodd" clip-rule="evenodd" fill="#9C9C9C" d="M29.544,133.914c0-0.093,0-0.187,0-0.278c0.558,0,1.115,0,1.672,0
	c1.021,0,2.044,0,3.065,0c0,0.092,0,0.186,0,0.278C32.703,133.914,31.123,133.914,29.544,133.914z"/>
<path fill-rule="evenodd" clip-rule="evenodd" fill="#727272" d="M34.282,133.914c0-0.093,0-0.187,0-0.278c0.836,0,1.672,0,2.508,0
	c0,0.092,0,0.186,0,0.278C35.954,133.914,35.118,133.914,34.282,133.914z"/>
<path fill-rule="evenodd" clip-rule="evenodd" fill="#9C9C9C" d="M36.79,133.914c0-0.093,0-0.187,0-0.278c0.558,0,1.115,0,1.672,0
	C38.428,134.251,37.281,133.754,36.79,133.914z"/>
<path fill-rule="evenodd" clip-rule="evenodd" fill="#323232" d="M25.921,136.423c1.672,0,3.344,0,5.017,0
	C29.908,136.887,26.951,136.887,25.921,136.423z"/>
<path fill-rule="evenodd" clip-rule="evenodd" fill="#323232" d="M22.854,134.75c0.511,0.325,0.944,0.729,1.394,1.115
	C23.431,135.847,23.213,135.229,22.854,134.75z"/>
<path fill-rule="evenodd" clip-rule="evenodd" fill="#323232" d="M42.643,135.029c0.252-0.492,0.624-0.863,1.115-1.115
	C43.506,134.405,43.135,134.777,42.643,135.029z"/>
<path fill-rule="evenodd" clip-rule="evenodd" fill="#FFFFFF" d="M17.56,35.808c1.924,0.305,3.039,1.42,3.344,3.344
	c0,0.557,0,1.115,0,1.672c0,0.929,0,1.858,0,2.787c0,0.743,0,1.486,0,2.229c-0.451,6.221-6.275,8.299-5.017,15.329
	c0.215,0.713,0.278,1.581,0.836,1.951c1.376,2.745,2.997,6.115,5.017,9.754c0.965,1.74,2.158,3.969,3.344,6.132
	c1.035,1.888,2.673,3.344,5.854,3.345c2.324,0.648,5.851,0.094,8.64,0.278c2.287,0.036,3.135,1.511,4.459,2.509
	c1.427,1.639,1.111,5.021,1.114,8.082c-0.623,0.12-0.113,1.375-0.278,1.952c0.034,1.24-0.688,1.728-0.836,2.786
	c-0.275,0.654-0.489,1.369-0.558,2.229c-0.615,0.035-0.119,1.183-0.278,1.673c0,0.371,0,0.744,0,1.115c0,0.092,0,0.186,0,0.278
	c-0.465,2.882-0.465,7.709,0,10.591c0.465,2.414,1.793,3.966,1.672,6.968c0,0.836,0,1.672,0,2.509
	c0.16,0.49-0.337,1.638,0.278,1.672c0,0.651,0,1.301,0,1.951c-0.628,0.207-0.108,1.563-0.278,2.229c0,0.558,0,1.115,0,1.672
	c0.041,1.435-0.551,2.236-1.115,3.066c-0.491,0.252-0.863,0.623-1.115,1.115c-0.847,0.453-1.373,1.228-2.787,1.114
	c-0.65,0-1.3,0-1.951,0c-4.367,0-8.733,0-13.1,0c-0.324,0.046-0.496-0.062-0.557-0.278c-0.45-0.387-0.883-0.79-1.394-1.115
	c-0.233-0.603-0.721-0.951-0.558-1.951c0-0.928,0-1.857,0-2.787c0-6.688,0-13.378,0-20.067c0-0.092,0-0.186,0-0.278
	c0-0.372,0-0.743,0-1.115c-0.184-2.323,0.37-5.386-0.278-7.246c-0.078-0.573-0.745-0.556-1.115-0.835
	c-0.477-0.639-2.128-0.104-3.066-0.28c-3.437,0-6.875,0-10.312,0c-2.178-0.33-3.45-1.567-3.345-4.18c0-0.836,0-1.673,0-2.508
	c0-0.93,0-1.859,0-2.788c0.464-3.624,0.464-9.195,0-12.821c0-4.18,0-8.361,0-12.542c0-0.649,0-1.3,0-1.95c0-0.093,0-0.186,0-0.279
	c0-6.968,0-13.936,0-20.904c0-0.65,0-1.3,0-1.951c0.016-2.585,1.291-3.912,3.345-4.459C10.87,35.808,14.215,35.808,17.56,35.808z
	 M6.968,40.546c-0.413,0.052-0.256,0.673-0.279,1.115c0,7.246,0,14.492,0,21.739c0,0.65,0,1.301,0,1.95c0,4.46,0,8.919,0,13.379
	c0,3.809,0,7.618,0,11.427c0.184,2.046-0.369,4.829,0.279,6.41c-0.001,0.28,0.226,0.332,0.279,0.558
	c0.412,0.145,0.702,0.412,1.115,0.558c2.604,0.464,7.151,0.464,9.755,0c3.827-0.297,6.615,0.445,6.689,3.901c0,2.23,0,4.46,0,6.689
	c0,0.094,0,0.187,0,0.278c0,0.372,0,0.743,0,1.115c0,0.093,0,0.187,0,0.278c0,6.782,0,13.565,0,20.347
	c0.002,1.577,0.08,3.078,1.394,3.345c0.568,0.639,2.315,0.102,3.345,0.278c1.579,0,3.159,0,4.738,0c0.836,0,1.672,0,2.508,0
	c0.491-0.16,1.638,0.337,1.672-0.278c1.004,0.074,1.343-0.515,2.23-0.558c0.491-0.252,0.863-0.623,1.115-1.115
	c0.07-0.951,0.705-1.339,0.558-2.508c0.413-0.053,0.255-0.674,0.278-1.115c0-1.394,0-2.787,0-4.181
	c-0.152-0.405,0.326-1.441-0.278-1.394c0-0.465,0-0.929,0-1.394c-0.16-0.49,0.336-1.637-0.279-1.672
	c-0.275-0.654-0.489-1.369-0.558-2.229c-0.367-0.841-0.9-1.516-0.836-2.788c0-2.044,0-4.087,0-6.132c0-0.464,0-0.929,0-1.393
	c0-1.022,0-2.044,0-3.066c0-0.558,0-1.114,0-1.672c0-0.372,0-0.743,0-1.115c-0.238-3.118,0.976-4.783,1.672-6.968
	c0.463-1.399,0.463-4.732,0-6.132c-0.671-1.651-1.719-2.927-3.902-3.065c-1.768-0.647-4.736-0.096-6.968-0.279
	c-0.743,0-1.486,0-2.229,0c-2.001,0.144-3.054-0.662-4.181-1.393c-0.346-0.583-0.811-1.048-1.394-1.394
	c-3.478-5.906-6.876-11.891-9.755-18.396c-0.284-0.366-0.273-1.027-0.558-1.394c-0.321-0.33-0.315-0.985-0.278-1.672
	c0-1.022,0-2.044,0-3.066c0.466-5.572,4.653-7.424,5.295-12.82c0.413-0.052,0.255-0.674,0.278-1.115
	c-0.176-0.938,0.36-2.589-0.278-3.066c-0.178-1.216-0.667-2.121-1.951-2.229c-1.862-0.464-5.663-0.464-7.525,0
	C7.813,38.603,6.836,39.021,6.968,40.546z"/>
<path fill-rule="evenodd" clip-rule="evenodd" fill="#323232" d="M40.692,133.078c0.251-0.491,0.624-0.863,1.115-1.115
	C41.555,132.455,41.184,132.826,40.692,133.078z"/>
<path fill-rule="evenodd" clip-rule="evenodd" fill="#323232" d="M23.691,82.074c0.583,0.346,1.047,0.811,1.394,1.394
	C24.501,83.122,24.037,82.657,23.691,82.074z"/>
<path fill-rule="evenodd" clip-rule="evenodd" fill="#727272" d="M6.689,41.661c0.093,0,0.186,0,0.279,0c0,7.153,0,14.307,0,21.46
	c0.663,0.462,3.239,0.462,3.902,0c0.966-0.149,1.484-0.746,2.508-0.836c0.285,0.366,0.273,1.027,0.558,1.394
	c-1.059,0.148-1.545,0.87-2.788,0.836c-0.088-1.36-0.44,0.269-0.278,0.836c-1.301,0-2.602,0-3.902,0c0,4.46,0,8.919,0,13.379
	c-0.093,0-0.186,0-0.279,0c0-4.46,0-8.919,0-13.379c0.459-0.037,0.459-1.913,0-1.95C6.689,56.153,6.689,48.907,6.689,41.661z"/>
<path fill-rule="evenodd" clip-rule="evenodd" fill="#323232" d="M24.806,109.944c0.393-0.814,2.856,0.44,2.787-0.835
	c0.069-1.276-2.394-0.021-2.787-0.837c0-2.229,0-4.459,0-6.689c0.647,1.583,0.095,4.364,0.279,6.411
	c0.453,0.848,3.089-0.488,2.787,1.115c0.384,1.776-2.834-0.049-2.787,1.393c-0.186,6.504,0.372,13.75-0.279,19.789
	C24.806,123.51,24.806,116.727,24.806,109.944z"/>
<path fill-rule="evenodd" clip-rule="evenodd" fill="#727272" d="M24.806,108.551c0-0.092,0-0.185,0-0.278
	c0.393,0.815,2.856-0.439,2.787,0.837c0.069,1.275-2.394,0.021-2.787,0.835c0-0.092,0-0.186,0-0.278
	C25.258,109.866,25.258,108.352,24.806,108.551z"/>
<path fill-rule="evenodd" clip-rule="evenodd" fill="#D5D5D5" d="M7.526,35.808c2.696-0.465,7.337-0.465,10.034,0
	C14.215,35.808,10.87,35.808,7.526,35.808z"/>
<path fill-rule="evenodd" clip-rule="evenodd" fill="#9C9C9C" d="M8.919,38.316c1.862-0.464,5.663-0.464,7.525,0
	C13.936,38.316,11.428,38.316,8.919,38.316z"/>
<path fill-rule="evenodd" clip-rule="evenodd" fill="#727272" d="M20.904,39.152c0.615,0.034,0.118,1.182,0.279,1.672
	c-0.093,0-0.186,0-0.279,0C20.904,40.267,20.904,39.709,20.904,39.152z"/>
<path fill-rule="evenodd" clip-rule="evenodd" fill="#9C9C9C" d="M21.183,43.612c-0.17,0.667,0.35,2.022-0.279,2.229
	c0-0.743,0-1.486,0-2.229C20.997,43.612,21.089,43.612,21.183,43.612z"/>
<path fill-rule="evenodd" clip-rule="evenodd" fill="#727272" d="M16.723,63.122c-0.558-0.371-0.621-1.238-0.836-1.951
	c1.242,0.034,1.729-0.688,2.787-0.836c-0.006,0.657,0.48,0.821,0.279,1.672C18.037,62.205,16.855,62.139,16.723,63.122z"/>
<path fill-rule="evenodd" clip-rule="evenodd" fill="#D5D5D5" d="M30.938,82.353c2.879,0,5.76,0,8.64,0c0,0.092,0,0.186,0,0.278
	C36.789,82.446,33.262,83.001,30.938,82.353z"/>
<path fill-rule="evenodd" clip-rule="evenodd" fill="#323232" d="M44.037,85.14c-1.324-0.998-2.173-2.473-4.459-2.509
	c0-0.093,0-0.187,0-0.278c8.175,0,16.351,0,24.525,0c0.507-2.625,0.28-5.855,0.28-8.919c0-2.683-0.094-4.532,0.836-6.132
	c0.629-1.081,0.629-1.408,1.951-1.951c2.09-0.857,5.596,0.51,8.919,1.394c2.713,0.722,5.428,1.692,7.804,1.951
	c-0.451-0.571-0.219-1.827-0.836-2.23c-2.993-0.762-5.87-1.047-8.641-1.394c-2.983-0.372-6.09-0.938-9.197-0.558
	c-2.106,0.259-4.688,1.477-6.689,1.672c-1.841,0.18-4.107,0.128-6.132,0c-1.838-0.116-4.572-0.358-5.853-1.115
	c-1.209-0.713-3.106-2.818-3.624-4.18c-1.767-4.659,1.002-12.734,1.394-18.117c0.422-5.801-0.064-12.058-0.278-17.837
	c-0.246-6.62-0.92-13.129-0.279-18.116c0.071-0.549,0.57-1.92,1.115-2.787c0.152-0.242,0.676-0.329,0.836-0.558
	c0.186-0.266,0.062-0.62,0.278-0.836c0.314-0.314,0.948-0.542,1.394-0.836c1.134-0.75,2.469-1.438,4.738-1.672
	c2.633-0.272,6.271-0.145,7.804,0.558c0.128,0.059,0.175,0.51,0.279,0.557c0.142,0.064,0.429-0.085,0.557,0
	c0.104,0.069,0.188,0.517,0.279,0.558c0.645,0.291,0.875,0.654,1.394,1.394c0.313,0.446,0.788,0.974,0.836,1.115
	c0.744,2.179-0.188,3.961,1.115,5.574c1.611,1.996,6.733,1.394,10.869,1.394c3.986,0,8.997-0.679,11.705,0.278
	c1.166,0.412,3.128,2.21,3.625,3.624c0.648,1.851,0.278,4.445,0.278,6.689c0,6.067-0.491,13.809-1.673,18.674
	c-0.437,1.802-1.187,3.599-1.673,5.295c-1.529,5.329-2.198,10.945-2.509,17.837c1.301,0.932,3.094,0.848,4.738,1.115
	c7.589,1.232,18.037,0.302,25.642,1.951c2.851,0.618,5.07,1.862,5.297,4.739c0.213,2.717-1.767,5.366-4.181,5.853
	c-2.458,0.494-5.268-0.489-7.525-1.115c-4.243-1.176-9.013-2.452-14.216-3.065c-2.601-0.308-5.188-0.458-7.804-0.837
	c-0.576,3.584-0.526,6.438-1.673,8.919c-0.348,0.756-1.1,1.813-2.228,2.509c-3.104,1.913-9.47,0.846-15.608,1.114
	c-0.89,4.49,0.533,9.184-1.116,12.264c-0.094,0.176-0.414,0.328-0.557,0.558c-1.572,2.555-5.064,2.508-9.754,2.508
	c-3.287,0-7.409-0.519-9.755,0c-1.236,0.273-2.829,1.136-2.787,2.788c-0.093,0-0.186,0-0.278,0c0-0.371,0-0.744,0-1.115
	c0.615-0.034,0.118-1.183,0.278-1.673c0.069-0.86,0.283-1.575,0.558-2.229c3.853-1.727,16.679,0.863,19.231-1.394
	c2.612-2.31,0.343-7.333,1.115-11.706C58.857,85.369,50.833,85.053,44.037,85.14z M78.319,13.79c-1.849,0-3.836-0.04-5.854,0
	c-1.976,0.039-4.099,0.441-5.573,0.279c-2.673-0.294-4.744-2.042-5.575-3.902c-0.679-1.521-0.386-3.386-0.836-4.738
	c-0.86-2.583-4.287-2.998-8.361-2.509c-1.538,0.186-2.774,0.712-3.623,1.394c-1.755,1.41-2.205,3.665-2.229,6.968
	c-0.073,9.664,1.697,24.758,0.279,35.396c-0.498,3.733-2.375,10.357-0.836,13.657c0.385,0.827,1.872,2.186,1.95,2.23
	c1.143,0.64,3.303,0.744,5.017,0.836c2.065,0.11,4.348,0.155,5.854,0c2.672-0.276,4.91-1.464,6.967-1.672
	c3.157-0.32,5.95,0.24,8.641,0.557c2.559,0.301,5.079,0.663,8.082,1.115c0.336-6.409,1.063-12.392,2.508-17.559
	c0.689-2.463,1.813-5.629,2.229-7.804c0.181-0.943,0.148-1.986,0.279-3.065c0.751-6.241,1.228-12.364,0.557-19.231
	C85.566,13.124,81.786,13.79,78.319,13.79z M86.679,69.532c2.909,0.094,5.602,0.78,8.362,1.115c2.757,0.335,5.582,0.417,8.639,1.115
	c1.993,0.455,4.734,1.536,7.527,2.229c1.818,0.452,6.688,1.525,6.688-1.951c0-2.958-3.723-2.773-6.409-3.066
	c-2.959-0.322-6.459-0.882-8.919-0.836c-5.485,0.104-12.313,0.125-16.166-1.115C86.183,68.171,86.83,68.454,86.679,69.532z
	 M68.841,67.859c-0.489-0.06-0.97,0.262-1.114,0.558c-1.236,1.306-0.669,3.637-0.557,5.574c0.15,2.635-0.116,5.822,0,8.361
	c4.533-0.592,12.057,0.707,14.492-1.115c2.368-1.771,2.11-4.959,2.23-9.476C79.423,70.703,73.271,68.398,68.841,67.859z"/>
<path fill-rule="evenodd" clip-rule="evenodd" fill="#727272" d="M6.968,96.566c-0.647-1.581-0.095-4.364-0.279-6.41
	c0.093,0,0.186,0,0.279,0C6.968,92.294,6.968,94.43,6.968,96.566z"/>
<path fill-rule="evenodd" clip-rule="evenodd" fill="#D5D5D5" d="M45.151,93.222c-0.166,0.578,0.345,1.831-0.278,1.952
	C45.039,94.597,44.528,93.342,45.151,93.222z"/>
<path fill-rule="evenodd" clip-rule="evenodd" fill="#727272" d="M17.838,100.189c0.938,0.177,2.589-0.358,3.066,0.28
	c-1.022,0-2.044,0-3.066,0C17.838,100.376,17.838,100.283,17.838,100.189z"/>
<path fill-rule="evenodd" clip-rule="evenodd" fill="#9C9C9C" d="M40.692,108.551c0,2.045,0,4.088,0,6.132
	c-0.217-0.062-0.324-0.233-0.279-0.557c0-1.858,0-3.717,0-5.575C40.506,108.551,40.599,108.551,40.692,108.551z"/>
<path fill-rule="evenodd" clip-rule="evenodd" fill="#323232" d="M40.692,114.683c-0.064,1.272,0.469,1.947,0.836,2.788
	c-1.99,1.168-5.309,1.008-6.689,2.786c-0.792,3.853,0.235,9.525-0.558,13.379c-1.021,0-2.044,0-3.065,0
	c-0.155-0.238,0.264-0.242,0.278-0.278c1.349-3.405-0.392-10.97,0.558-13.657c0.398-1.129,1.702-2.399,3.065-3.066
	c1.491-0.729,4.054-0.571,5.017-1.951c0.122-0.175-0.04-0.582,0.279-0.557C40.368,114.449,40.475,114.621,40.692,114.683z"/>
<path fill-rule="evenodd" clip-rule="evenodd" fill="#727272" d="M42.086,119.7c0.615,0.035,0.119,1.182,0.279,1.672
	C41.749,121.337,42.247,120.189,42.086,119.7z"/>
<path fill-rule="evenodd" clip-rule="evenodd" fill="#727272" d="M45.151,129.176c-0.16,0.49,0.337,1.638-0.278,1.672
	c0-0.557,0-1.114,0-1.672C44.966,129.176,45.059,129.176,45.151,129.176z"/>
<path fill-rule="evenodd" clip-rule="evenodd" fill="#727272" d="M22.297,130.012c0,0.93,0,1.859,0,2.787
	c-0.635-0.386-0.104-1.939-0.278-2.787C22.112,130.012,22.205,130.012,22.297,130.012z"/>
<path fill-rule="evenodd" clip-rule="evenodd" fill="#D5D5D5" d="M24.806,136.144c4.367,0,8.733,0,13.1,0c0,0.093,0,0.186,0,0.279
	c-2.323,0-4.645,0-6.967,0c-1.673,0-3.345,0-5.017,0C25.479,136.399,24.857,136.557,24.806,136.144z"/>
<path fill-rule="evenodd" clip-rule="evenodd" fill="#9C9C9C" d="M37.905,136.144c0.65,0,1.301,0,1.951,0
	c-0.12,0.623-1.374,0.113-1.951,0.279C37.905,136.329,37.905,136.236,37.905,136.144z"/>
<path fill-rule="evenodd" clip-rule="evenodd" fill="#727272" d="M42.365,88.205c0.463,1.399,0.463,4.732,0,6.132
	C42.365,92.294,42.365,90.249,42.365,88.205z"/>
<path fill-rule="evenodd" clip-rule="evenodd" fill="#9C9C9C" d="M7.526,100.189c3.438,0,6.875,0,10.312,0c0,0.094,0,0.187,0,0.28
	C14.492,100.284,10.407,100.839,7.526,100.189z"/>
<path fill-rule="evenodd" clip-rule="evenodd" fill="#727272" d="M43.479,100.189c-0.16,0.49,0.336,1.639-0.278,1.673
	C43.361,101.372,42.864,100.225,43.479,100.189z"/>
<path fill-rule="evenodd" clip-rule="evenodd" fill="#727272" d="M44.873,120.814c0.632,0.297,0.106,1.753,0.278,2.509
	c-0.093,0-0.185,0-0.278,0C44.873,122.486,44.873,121.65,44.873,120.814z"/>
<path fill-rule="evenodd" clip-rule="evenodd" fill="#727272" d="M26.199,133.636c1.115,0,2.23,0,3.345,0c0,0.092,0,0.186,0,0.278
	C28.514,133.737,26.768,134.274,26.199,133.636z"/>
<path fill-rule="evenodd" clip-rule="evenodd" fill="#727272" d="M13.1,57.547c0,1.022,0,2.044,0,3.066
	C12.638,60.223,12.638,57.938,13.1,57.547z"/>
<path fill-rule="evenodd" clip-rule="evenodd" fill="#727272" d="M29.265,84.86c0.743,0,1.486,0,2.229,0c0,0.094,0,0.187,0,0.279
	C30.829,84.97,29.473,85.489,29.265,84.86z"/>
<path fill-rule="evenodd" clip-rule="evenodd" fill="#323232" d="M22.019,101.305c0.648,1.86,0.095,4.923,0.278,7.246
	c-0.092,0-0.185,0-0.278,0c-0.093,0-0.186,0-0.278,0C22.36,106.663,21.855,103.649,22.019,101.305z"/>
</svg>
