<?xml version="1.0" encoding="utf-8"?>
<!-- Generator: Adobe Illustrator 15.0.0, SVG Export Plug-In  -->
<!DOCTYPE svg PUBLIC "-//W3C//DTD SVG 1.1//EN" "http://www.w3.org/Graphics/SVG/1.1/DTD/svg11.dtd" [
	<!ENTITY ns_flows "http://ns.adobe.com/Flows/1.0/">
]>
<svg version="1.1"
	 xmlns="http://www.w3.org/2000/svg" xmlns:xlink="http://www.w3.org/1999/xlink" xmlns:a="http://ns.adobe.com/AdobeSVGViewerExtensions/3.0/"
	 x="0px" y="0px" width="142px" height="142px" viewBox="-8.875 -21.305 142 142" enable-background="new -8.875 -21.305 142 142"
	 xml:space="preserve">
<defs>
</defs>
<path fill-rule="evenodd" clip-rule="evenodd" fill="#7A7A7A" d="M17.045,2.23c0-0.093,0-0.186,0-0.279c0.464,0,0.929,0,1.394,0
	c0,0.093,0,0.186,0,0.279C17.974,2.23,17.509,2.23,17.045,2.23z"/>
<path fill-rule="evenodd" clip-rule="evenodd" fill="#181818" d="M105.119,3.344c-0.127-0.455,1.519-0.455,1.392,0
	C106.046,3.344,105.581,3.344,105.119,3.344z"/>
<path fill-rule="evenodd" clip-rule="evenodd" fill="#C2C2C2" d="M15.93,4.738c-0.199-0.452,1.314-0.452,1.115,0
	C16.673,4.738,16.302,4.738,15.93,4.738z"/>
<path fill-rule="evenodd" clip-rule="evenodd" fill="#181818" d="M61.082,5.017c0.212-0.461,2.296-0.461,2.508,0
	c-0.65,0-1.301,0-1.951,0C61.453,5.017,61.267,5.017,61.082,5.017z"/>
<path fill-rule="evenodd" clip-rule="evenodd" fill="#181818" d="M66.934,5.295c-0.404-0.152-1.44,0.326-1.393-0.278
	C65.946,5.169,66.981,4.691,66.934,5.295z"/>
<path fill-rule="evenodd" clip-rule="evenodd" fill="#181818" d="M68.05,5.295c0.44,0.023,1.062-0.134,1.114,0.279
	C68.747,5.527,68.136,5.674,68.05,5.295z"/>
<path fill-rule="evenodd" clip-rule="evenodd" fill="#181818" d="M70.558,5.574c0.405,0.153,1.44-0.326,1.393,0.279
	C71.546,5.701,70.51,6.179,70.558,5.574z"/>
<path fill-rule="evenodd" clip-rule="evenodd" fill="#181818" d="M73.345,5.853c0.404,0.152,1.44-0.326,1.395,0.279
	C74.332,5.979,73.297,6.458,73.345,5.853z"/>
<path fill-rule="evenodd" clip-rule="evenodd" fill="#181818" d="M105.119,6.132c0.122-0.46,2.105-0.46,2.229,0
	C106.605,6.132,105.862,6.132,105.119,6.132z"/>
<path fill-rule="evenodd" clip-rule="evenodd" fill="#181818" d="M76.132,6.132c0.404,0.152,1.44-0.326,1.394,0.279
	C77.121,6.258,76.085,6.736,76.132,6.132z"/>
<path fill-rule="evenodd" clip-rule="evenodd" fill="#181818" d="M78.64,6.411c0.404,0.152,1.44-0.326,1.395,0.278
	C79.63,6.537,78.594,7.015,78.64,6.411z"/>
<path fill-rule="evenodd" clip-rule="evenodd" fill="#181818" d="M81.148,6.689c0.442,0.023,1.063-0.134,1.115,0.279
	C81.848,6.92,81.234,7.067,81.148,6.689z"/>
<path fill-rule="evenodd" clip-rule="evenodd" fill="#C2C2C2" d="M59.966,7.804c0.087-0.378,0.698-0.231,1.115-0.278
	c0,0.093,0,0.186,0,0.278C60.71,7.804,60.339,7.804,59.966,7.804z"/>
<path fill-rule="evenodd" clip-rule="evenodd" fill="#7A7A7A" d="M61.082,7.804c0-0.092,0-0.186,0-0.278
	c0.577,0.166,1.831-0.345,1.951,0.278C62.382,7.804,61.732,7.804,61.082,7.804z"/>
<path fill-rule="evenodd" clip-rule="evenodd" fill="#181818" d="M73.345,8.64c0.491,0.161,1.637-0.337,1.673,0.279
	C74.526,8.758,73.379,9.256,73.345,8.64z"/>
<path fill-rule="evenodd" clip-rule="evenodd" fill="#181818" d="M76.132,8.919c0.49,0.16,1.637-0.337,1.673,0.279
	C77.313,9.038,76.168,9.534,76.132,8.919z"/>
<path fill-rule="evenodd" clip-rule="evenodd" fill="#181818" d="M78.918,9.198c0.405,0.152,1.44-0.326,1.395,0.278
	C79.908,9.324,78.872,9.802,78.918,9.198z"/>
<path fill-rule="evenodd" clip-rule="evenodd" fill="#181818" d="M115.431,10.87c0.462,0.571,0.462,3.052,0,3.624
	C115.431,13.285,115.431,12.078,115.431,10.87z"/>
<path fill-rule="evenodd" clip-rule="evenodd" fill="#181818" d="M112.922,12.821c-0.152,0.405,0.324,1.44-0.278,1.394
	C112.796,13.81,112.317,12.774,112.922,12.821z"/>
<path fill-rule="evenodd" clip-rule="evenodd" fill="#7A7A7A" d="M2.831,19.789c-0.458,0.046-0.458-1.718,0-1.672
	C2.831,18.674,2.831,19.231,2.831,19.789z"/>
<path fill-rule="evenodd" clip-rule="evenodd" fill="#181818" d="M105.954,19.51c0.034-0.616,1.182-0.118,1.673-0.278
	C107.591,19.847,106.443,19.35,105.954,19.51z"/>
<path fill-rule="evenodd" clip-rule="evenodd" fill="#C2C2C2" d="M76.41,21.74c0.457-0.126,0.457,1.519,0,1.393
	C76.41,22.668,76.41,22.204,76.41,21.74z"/>
<path fill-rule="evenodd" clip-rule="evenodd" fill="#181818" d="M104.838,22.019c1.024,0,2.046,0,3.067,0
	C107.515,22.48,105.229,22.48,104.838,22.019z"/>
<path fill-rule="evenodd" clip-rule="evenodd" fill="#181818" d="M91.74,26.478c-0.024,0.441,0.134,1.063-0.278,1.114
	C91.51,27.175,91.361,26.564,91.74,26.478z"/>
<path fill-rule="evenodd" clip-rule="evenodd" fill="#181818" d="M88.953,26.756c-0.152,0.405,0.324,1.44-0.28,1.394
	C88.827,27.745,88.349,26.709,88.953,26.756z"/>
<path fill-rule="evenodd" clip-rule="evenodd" fill="#181818" d="M91.462,28.986c-0.173,0.756,0.353,2.212-0.279,2.508
	C91.355,30.738,90.828,29.283,91.462,28.986z"/>
<path fill-rule="evenodd" clip-rule="evenodd" fill="#181818" d="M88.673,29.544c0,2.229,0,4.459,0,6.688
	C88.21,34.648,88.21,31.127,88.673,29.544z"/>
<path fill-rule="evenodd" clip-rule="evenodd" fill="#181818" d="M91.183,34.561c0.623,0.12,0.112,1.373,0.279,1.951
	C90.839,36.391,91.348,35.138,91.183,34.561z"/>
<path fill-rule="evenodd" clip-rule="evenodd" fill="#333333" d="M17.603,36.512c0-0.093,0-0.187,0-0.28c0.65,0,1.301,0,1.951,0
	C19.434,36.856,18.18,36.345,17.603,36.512z"/>
<path fill-rule="evenodd" clip-rule="evenodd" fill="#181818" d="M88.673,37.068c0.415,0.052,0.257,0.674,0.28,1.115
	C88.541,38.132,88.697,37.51,88.673,37.068z"/>
<path fill-rule="evenodd" clip-rule="evenodd" fill="#C2C2C2" d="M72.51,37.626c0.37,0,0.743,0,1.113,0
	C73.823,38.078,72.309,38.078,72.51,37.626z"/>
<path fill-rule="evenodd" clip-rule="evenodd" fill="#7A7A7A" d="M65.263,39.577c0.371,0,0.743,0,1.114,0c0,0.093,0,0.186,0,0.279
	C65.96,39.808,65.35,39.956,65.263,39.577z"/>
<path fill-rule="evenodd" clip-rule="evenodd" fill="#C2C2C2" d="M66.377,39.856c0-0.093,0-0.186,0-0.279
	c0.417,0.047,1.027-0.1,1.116,0.279C67.12,39.856,66.75,39.856,66.377,39.856z"/>
<path fill-rule="evenodd" clip-rule="evenodd" fill="#7A7A7A" d="M68.606,39.856c0.417,0.047,1.028-0.1,1.114,0.278
	c-0.092,0-0.185,0-0.278,0C69.115,40.091,68.65,40.183,68.606,39.856z"/>
<path fill-rule="evenodd" clip-rule="evenodd" fill="#181818" d="M70.558,43.479c0.461,0.39,0.461,2.675,0,3.066
	C70.558,45.523,70.558,44.5,70.558,43.479z"/>
<path fill-rule="evenodd" clip-rule="evenodd" fill="#181818" d="M68.05,44.594c-0.16,0.49,0.337,1.638-0.278,1.672
	C67.932,45.776,67.433,44.628,68.05,44.594z"/>
<path fill-rule="evenodd" clip-rule="evenodd" fill="#181818" d="M102.608,61.316c0.453-0.199,0.453,1.314,0,1.115
	C102.608,62.06,102.608,61.688,102.608,61.316z"/>
<path fill-rule="evenodd" clip-rule="evenodd" fill="#181818" d="M100.101,62.71c0-0.093,0-0.186,0-0.278c0.372,0,0.743,0,1.115,0
	C101.13,62.81,100.519,62.662,100.101,62.71z"/>
<path fill-rule="evenodd" clip-rule="evenodd" fill="#333333" d="M97.035,62.71c0.092,0,0.187,0,0.278,0c0,0.93,0,1.858,0,2.787
	c-0.092,0-0.187,0-0.278,0C97.035,64.568,97.035,63.64,97.035,62.71z"/>
<path fill-rule="evenodd" clip-rule="evenodd" fill="#7A7A7A" d="M97.035,65.497c0.092,0,0.187,0,0.278,0
	c-0.022,0.441,0.134,1.063-0.278,1.115C97.035,66.24,97.035,65.869,97.035,65.497z"/>
<path fill-rule="evenodd" clip-rule="evenodd" fill="#C2C2C2" d="M40.735,74.695c0,0.557,0,1.114,0,1.672
	C40.278,76.413,40.278,74.649,40.735,74.695z"/>
<path fill-rule="evenodd" clip-rule="evenodd" fill="#C2C2C2" d="M37.949,74.974c0.093,0,0.186,0,0.278,0c0,0.371,0,0.743,0,1.115
	c-0.093,0-0.186,0-0.278,0C37.949,75.717,37.949,75.345,37.949,74.974z"/>
<path fill-rule="evenodd" clip-rule="evenodd" fill="#181818" d="M65.263,93.647c0-0.094,0-0.187,0-0.279c0.649,0,1.301,0,1.949,0
	c0,0.093,0,0.186,0,0.279C66.563,93.647,65.912,93.647,65.263,93.647z"/>
<path fill-rule="evenodd" clip-rule="evenodd" fill="#181818" d="M21.504,2.508c0.45,0.079,0.48-0.263,0.836-0.278
	c0,0.186,0,0.372,0,0.557C21.945,2.812,21.551,2.833,21.504,2.508z"/>
<path fill-rule="evenodd" clip-rule="evenodd" fill="#C2C2C2" d="M6.176,32.331c-0.492-0.252-0.864-0.623-1.115-1.115
	C5.552,31.468,5.924,31.839,6.176,32.331z"/>
<path fill-rule="evenodd" clip-rule="evenodd" fill="#7A7A7A" d="M30.702,30.38c0.252-0.492,0.624-0.864,1.116-1.115
	C31.565,29.756,31.193,30.128,30.702,30.38z"/>
<path fill-rule="evenodd" clip-rule="evenodd" fill="#C2C2C2" d="M42.129,25.642c0.829,0.378,1.157,1.258,1.671,1.951
	C42.996,27.19,42.726,26.252,42.129,25.642z"/>
<path fill-rule="evenodd" clip-rule="evenodd" fill="#7A7A7A" d="M43.801,27.592c0.492,0.252,0.864,0.624,1.116,1.115
	C44.425,28.456,44.053,28.084,43.801,27.592z"/>
<path fill-rule="evenodd" clip-rule="evenodd" fill="#181818" d="M48.539,33.167c0.769,0.533,1.418,1.184,1.951,1.951
	C49.723,34.584,49.072,33.934,48.539,33.167z"/>
<path fill-rule="evenodd" clip-rule="evenodd" fill="#181818" d="M65.263,49.889c0.345-0.583,0.81-1.047,1.393-1.394
	C66.311,49.079,65.846,49.543,65.263,49.889z"/>
<path fill-rule="evenodd" clip-rule="evenodd" fill="#181818" d="M54.671,55.742c0.078-0.572,0.744-0.557,1.115-0.836
	C55.708,55.479,55.042,55.462,54.671,55.742z"/>
<path fill-rule="evenodd" clip-rule="evenodd" fill="#7A7A7A" d="M43.522,62.71c0.252-0.491,0.624-0.862,1.115-1.114
	C44.386,62.087,44.014,62.458,43.522,62.71z"/>
<path fill-rule="evenodd" clip-rule="evenodd" fill="#7A7A7A" d="M42.129,86.68c0.767,0.532,1.417,1.183,1.951,1.95
	C43.312,88.098,42.663,87.446,42.129,86.68z"/>
<path fill-rule="evenodd" clip-rule="evenodd" fill="#7A7A7A" d="M88.673,88.352c0.905-1.139,1.927-2.16,3.067-3.065
	C90.834,86.424,89.813,87.446,88.673,88.352z"/>
<path fill-rule="evenodd" clip-rule="evenodd" fill="#181818" d="M95.084,15.887c0.054-0.226,0.28-0.278,0.278-0.558
	c1.789,1.556,3.462,3.229,5.019,5.017c-1.837-1.416-3.182-3.323-5.019-4.739C95.414,15.845,95.254,15.871,95.084,15.887z"/>
<path fill-rule="evenodd" clip-rule="evenodd" fill="#181818" d="M96.479,8.919c0.997-1.231,2.113-2.346,3.343-3.345
	C98.824,6.806,97.708,7.92,96.479,8.919z"/>
<path fill-rule="evenodd" clip-rule="evenodd" fill="#181818" d="M30.423,8.083c-0.675-0.44-1.232-0.998-1.672-1.672
	C29.426,6.85,29.983,7.408,30.423,8.083z"/>
<path fill-rule="evenodd" clip-rule="evenodd" fill="#C2C2C2" d="M27.915,5.853c0.366,0.099,0.438,0.491,0.836,0.558
	c0.44,0.675,0.997,1.232,1.672,1.672c0.053,0.226,0.279,0.277,0.278,0.557C29.656,7.828,28.727,6.899,27.915,5.853z"/>
<path fill-rule="evenodd" clip-rule="evenodd" fill="#C2C2C2" d="M72.788,8.919c0.767,0.533,1.418,1.183,1.951,1.951
	C73.972,10.337,73.32,9.687,72.788,8.919z"/>
<path fill-rule="evenodd" clip-rule="evenodd" fill="#7A7A7A" d="M91.74,42.921c0.583,0.346,1.048,0.811,1.393,1.394
	C92.552,43.969,92.087,43.505,91.74,42.921z"/>
<path fill-rule="evenodd" clip-rule="evenodd" fill="#7A7A7A" d="M68.05,52.398c0.25-0.492,0.623-0.863,1.114-1.115
	C68.913,51.774,68.541,52.146,68.05,52.398z"/>
<path fill-rule="evenodd" clip-rule="evenodd" fill="#C2C2C2" d="M50.49,35.118c-0.533-0.768-1.183-1.418-1.951-1.951
	c-0.053-0.226-0.279-0.277-0.278-0.557c0.953,0.719,1.79,1.555,2.508,2.508C50.676,35.118,50.583,35.118,50.49,35.118z"/>
<path fill-rule="evenodd" clip-rule="evenodd" fill="#C2C2C2" d="M31.817,29.265c0.333-0.689,0.954-1.089,1.671-1.394
	C33.107,28.511,32.341,28.768,31.817,29.265z"/>
<path fill-rule="evenodd" clip-rule="evenodd" fill="#333333" d="M99.821,5.574c1.491-1.02,2.733-2.286,5.298-2.23
	c0.462,0,0.927,0,1.392,0c0.642,0.066,1.084-0.089,1.673,0c2.06,0.313,4.53,2.205,5.853,4.181c0.591,0.882,1.288,1.646,1.395,3.344
	c0,1.208,0,2.416,0,3.624c-0.828,4.189-3.404,6.631-7.525,7.525c-1.021,0-2.043,0-3.067,0c-2.091,0.048-3.169-0.917-4.457-1.672
	c-1.557-1.789-3.229-3.461-5.019-5.017c0.002,0.279-0.225,0.332-0.278,0.558c-1.377,3.269-2.819,6.471-3.344,10.591
	c-0.379,0.086-0.23,0.697-0.278,1.114c0,0.465,0,0.929,0,1.394c-0.634,0.296-0.106,1.751-0.279,2.508c0,1.021,0,2.044,0,3.066
	c0.165,0.577-0.344,1.831,0.279,1.951c0.437,3.929,2.069,6.662,3.344,9.754c-0.674-0.535-1.106-1.309-1.673-1.95
	c-0.345-0.583-0.81-1.048-1.393-1.394c-0.8-0.502-1.555-1.047-2.23-1.672c0.03-1.237-0.779-1.636-0.557-3.065
	c-0.023-0.441,0.135-1.063-0.28-1.115c0-0.278,0-0.557,0-0.836c0-2.229,0-4.459,0-6.688c0-0.465,0-0.93,0-1.394
	c0.604,0.047,0.128-0.988,0.28-1.394c0.365-5.302,2.062-9.271,4.18-12.821c-3.278-2.482-7.638-3.882-12.82-4.459
	c0.046-0.604-0.989-0.126-1.395-0.278c-0.37,0-0.743,0-1.113,0c-0.036-0.616-1.183-0.119-1.673-0.279c-0.371,0-0.743,0-1.114,0
	c-0.036-0.616-1.182-0.118-1.673-0.279c-0.324-0.045-0.495,0.062-0.557,0.279c-2.3-2.067-5.478-3.256-9.198-3.902
	c0.65,0,1.301,0,1.951,0c-0.048,0.604,0.988,0.126,1.393,0.278c0.373,0,0.743,0,1.116,0c0.086,0.378,0.697,0.231,1.114,0.279
	c0.465,0,0.929,0,1.394,0c-0.048,0.604,0.988,0.126,1.393,0.279c0.465,0,0.93,0,1.395,0c-0.048,0.604,0.987,0.126,1.395,0.279
	c0.465,0,0.928,0,1.393,0c-0.047,0.604,0.989,0.126,1.394,0.279c0.371,0,0.744,0,1.114,0c-0.046,0.604,0.99,0.126,1.395,0.278
	c0.37,0,0.743,0,1.114,0c0.086,0.378,0.699,0.231,1.115,0.279c5.117,0.457,8.985,2.163,12.263,4.459
	c0.712-0.774,1.305-1.669,1.952-2.508C97.708,7.92,98.824,6.806,99.821,5.574z M105.119,6.132c-1.433,0.148-2.252,0.907-3.346,1.394
	c-0.583,0.346-1.048,0.811-1.393,1.394c-0.171,0.016-0.331,0.042-0.28,0.279c-0.676,0.44-1.232,0.997-1.671,1.672
	c-0.307,0.809-0.892,1.34-1.395,1.951c0.062,0.216,0.008,0.55,0.278,0.558c1.557,1.789,3.229,3.461,5.017,5.017
	c1.124,0.456,2.38,0.779,3.624,1.115c0.489-0.16,1.637,0.337,1.673-0.278c2.511-0.833,4.386-2.303,5.017-5.017
	c0.603,0.046,0.126-0.989,0.278-1.394c-0.014-1.843-0.888-2.829-1.395-4.181c-0.345-0.583-0.81-1.048-1.393-1.393
	c-1.023-0.278-1.672-0.93-2.786-1.115C107.225,5.672,105.241,5.672,105.119,6.132z"/>
<path fill-rule="evenodd" clip-rule="evenodd" fill="#7A7A7A" d="M5.896,28.428c0.768,0.534,1.418,1.184,1.951,1.952
	C7.08,29.846,6.43,29.196,5.896,28.428z"/>
<path fill-rule="evenodd" clip-rule="evenodd" fill="#C2C2C2" d="M28.751,28.428c0.491-0.251,0.863-0.623,1.115-1.114
	c0.226-0.053,0.278-0.279,0.558-0.279c-0.571,0.822-1.239,1.548-2.23,1.951C28.317,28.738,28.438,28.487,28.751,28.428z"/>
<path fill-rule="evenodd" clip-rule="evenodd" fill="#7A7A7A" d="M37.112,21.182c0.323-0.413,0.323-0.702,0-1.115
	c0.646,0.078,0.641,0.745,0.279,1.115C37.298,21.182,37.205,21.182,37.112,21.182z"/>
<path fill-rule="evenodd" clip-rule="evenodd" fill="#7A7A7A" d="M26.521,8.083c0.768,0.533,1.418,1.183,1.951,1.951
	C27.705,9.5,27.054,8.851,26.521,8.083z"/>
<path fill-rule="evenodd" clip-rule="evenodd" fill="#181818" d="M28.751,28.428c0.252-0.491,0.624-0.863,1.115-1.114
	C29.614,27.805,29.242,28.177,28.751,28.428z"/>
<path fill-rule="evenodd" clip-rule="evenodd" fill="#181818" d="M100.381,8.919c0.345-0.583,0.81-1.047,1.393-1.394
	C101.429,8.108,100.964,8.573,100.381,8.919z"/>
<path fill-rule="evenodd" clip-rule="evenodd" fill="#181818" d="M98.43,10.87c0.438-0.675,0.995-1.232,1.671-1.672
	C99.661,9.873,99.104,10.43,98.43,10.87z"/>
<path fill-rule="evenodd" clip-rule="evenodd" fill="#181818" d="M97.313,13.378c1.789,1.556,3.462,3.228,5.017,5.017
	C100.543,16.839,98.87,15.167,97.313,13.378z"/>
<path fill-rule="evenodd" clip-rule="evenodd" fill="#181818" d="M110.135,7.247c0.583,0.345,1.048,0.81,1.393,1.393
	C110.944,8.294,110.479,7.83,110.135,7.247z"/>
<path fill-rule="evenodd" clip-rule="evenodd" fill="#C2C2C2" d="M49.654,13.657c0.49-0.904,1.394-1.394,2.23-1.951
	C51.345,12.561,50.358,12.968,49.654,13.657z"/>
<path fill-rule="evenodd" clip-rule="evenodd" fill="#7A7A7A" d="M50.212,30.937c0.86,0.626,1.603,1.37,2.229,2.23
	C51.581,32.541,50.838,31.797,50.212,30.937z"/>
<path fill-rule="evenodd" clip-rule="evenodd" fill="#7A7A7A" d="M70.837,10.591c0.859,0.626,1.603,1.369,2.229,2.229
	C72.207,12.194,71.464,11.451,70.837,10.591z"/>
<path fill-rule="evenodd" clip-rule="evenodd" fill="#181818" d="M66.934,52.12c0.347-0.584,0.812-1.049,1.395-1.395
	C67.981,51.309,67.517,51.773,66.934,52.12z"/>
<path fill-rule="evenodd" clip-rule="evenodd" fill="#181818" d="M58.852,56.578c0.274-0.377,0.744-0.557,1.115-0.836
	c-0.053,0.226-0.279,0.278-0.278,0.558C59.643,56.626,59.18,56.535,58.852,56.578z"/>
<path fill-rule="evenodd" clip-rule="evenodd" fill="#333333" d="M63.312,39.577c0.278,0,0.557,0,0.836,0c0.372,0,0.743,0,1.115,0
	c0.087,0.378,0.697,0.231,1.114,0.279c0.373,0,0.743,0,1.116,0c0.37,0,0.743,0,1.113,0c0.044,0.327,0.509,0.235,0.836,0.278
	c0.322,1.165,1.242,1.732,1.115,3.345c0,1.021,0,2.044,0,3.066c-0.218,1.919-1.22,3.054-2.229,4.18
	c-0.583,0.346-1.048,0.811-1.395,1.395c-2.199,1.329-4.376,2.682-6.967,3.622c-0.371,0.279-0.841,0.459-1.115,0.836
	c-3.064,0.466-6.13,0.931-8.918,1.673c1.483-0.933,2.9-1.932,4.738-2.509c0.371-0.28,1.038-0.264,1.115-0.836
	c3.191-1.64,6.301-3.36,9.477-5.017c0.583-0.346,1.048-0.81,1.393-1.394c0.539-0.576,0.68-1.55,1.116-2.23
	c0.615-0.034,0.118-1.182,0.278-1.672C67.509,41.882,65.948,40.192,63.312,39.577z"/>
<path fill-rule="evenodd" clip-rule="evenodd" fill="#333333" d="M71.115,40.134c0.719-0.135,2.486,0.079,1.673,0.558
	C72.834,39.903,71.069,40.924,71.115,40.134z"/>
<path fill-rule="evenodd" clip-rule="evenodd" fill="#C2C2C2" d="M44.081,66.055c0.607-1.25,1.536-2.179,2.787-2.787
	c-0.124,0.248-0.245,0.499-0.558,0.557c-0.675,0.44-1.232,0.998-1.672,1.673C44.514,65.746,44.393,65.995,44.081,66.055z"/>
<path fill-rule="evenodd" clip-rule="evenodd" fill="#C2C2C2" d="M44.359,85.007c0.288,0.734,1.105,0.939,1.394,1.673
	c-0.822-0.572-1.548-1.239-1.952-2.23C44.049,84.573,44.3,84.694,44.359,85.007z"/>
<path fill-rule="evenodd" clip-rule="evenodd" fill="#C2C2C2" d="M87.002,86.121c0.583-0.346,1.048-0.81,1.393-1.393
	c0.648-0.188,0.747-0.926,1.395-1.115c-0.994,1.144-1.907,2.367-3.344,3.066C86.567,86.431,86.689,86.181,87.002,86.121z"/>
<path fill-rule="evenodd" clip-rule="evenodd" fill="#C2C2C2" d="M91.183,45.987c-0.568-0.082-0.547-0.754-1.115-0.836
	c-0.249-0.123-0.499-0.245-0.558-0.558C90.228,44.898,90.851,45.298,91.183,45.987z"/>
<path fill-rule="evenodd" clip-rule="evenodd" fill="#181818" d="M90.067,45.151c0.568,0.082,0.547,0.754,1.115,0.836
	c0,0.093,0,0.186,0,0.278C90.69,46.014,90.319,45.643,90.067,45.151z"/>
<path fill-rule="evenodd" clip-rule="evenodd" fill="#7A7A7A" d="M97.035,60.76c0.429,0.477-0.099,1.015,0.278,1.95
	c-0.092,0-0.187,0-0.278,0c-0.557,0-1.114,0-1.673,0c-0.278,0-0.557,0-0.836,0c-0.088-0.646,0.045-1.07,0.279-1.394
	c0.743,0,1.486,0,2.229,0C97.035,61.131,97.035,60.944,97.035,60.76z"/>
<path fill-rule="evenodd" clip-rule="evenodd" fill="#181818" d="M87.002,86.121c0.347-0.583,0.81-1.047,1.393-1.393
	C88.05,85.312,87.585,85.775,87.002,86.121z"/>
<path fill-rule="evenodd" clip-rule="evenodd" fill="#181818" d="M45.752,86.68c-0.289-0.733-1.105-0.938-1.394-1.673
	c0.675,0.439,1.233,0.997,1.672,1.673C45.938,86.68,45.846,86.68,45.752,86.68z"/>
<path fill-rule="evenodd" clip-rule="evenodd" fill="#181818" d="M44.637,65.497c0.44-0.675,0.998-1.232,1.672-1.673
	C45.87,64.501,45.313,65.058,44.637,65.497z"/>
<path fill-rule="evenodd" clip-rule="evenodd" fill="#181818" d="M95.362,62.71c-0.042,0.692-0.943,0.082-1.114,0
	c0.124-0.526-0.379-1.679,0.558-1.394c-0.234,0.323-0.367,0.747-0.279,1.394C94.806,62.71,95.084,62.71,95.362,62.71z"/>
<path fill-rule="evenodd" clip-rule="evenodd" fill="#7A7A7A" d="M22.34,2.23c0.043-0.887,0.632-1.226,0.558-2.23
	c0.651,0.092,1.151,0.335,1.672,0.558c-0.312,0.896-0.763,1.653-0.836,2.787c-0.693,0.043-0.862-0.437-1.394-0.557
	C22.34,2.602,22.34,2.416,22.34,2.23z"/>
<path fill-rule="evenodd" clip-rule="evenodd" fill="#333333" d="M18.439,1.951c0.441,0.024,1.063-0.133,1.114,0.279
	c-0.372,0-0.743,0-1.114,0C18.439,2.137,18.439,2.044,18.439,1.951z"/>
<path fill-rule="evenodd" clip-rule="evenodd" fill="#7A7A7A" d="M22.898,6.132c-0.973,0.338-0.589,3.169-2.23,1.951
	c-0.939-0.868,0.655-1.56,0.279-2.788C21.661,5.511,22.527,5.574,22.898,6.132z"/>
<path fill-rule="evenodd" clip-rule="evenodd" fill="#7A7A7A" d="M0.043,19.51c0.636,0.386,0.104,1.94,0.279,2.787
	C-0.313,21.91,0.218,20.357,0.043,19.51z"/>
<path fill-rule="evenodd" clip-rule="evenodd" fill="#7A7A7A" d="M78.918,24.248c0-1.394,0-2.787,0-4.181
	C79.383,20.822,79.383,23.494,78.918,24.248z"/>
<path fill-rule="evenodd" clip-rule="evenodd" fill="#7A7A7A" d="M15.652,36.232c0.65,0,1.3,0,1.951,0c0,0.093,0,0.187,0,0.28
	C17.025,36.345,15.771,36.856,15.652,36.232z"/>
<path fill-rule="evenodd" clip-rule="evenodd" fill="#333333" d="M64.704,36.79c0.417,0.048,1.029-0.1,1.116,0.278
	C65.377,37.045,64.757,37.203,64.704,36.79z"/>
<path fill-rule="evenodd" clip-rule="evenodd" fill="#181818" d="M68.05,37.068c0.417,0.048,1.027-0.1,1.114,0.279
	C68.723,37.324,68.102,37.482,68.05,37.068z"/>
<path fill-rule="evenodd" clip-rule="evenodd" fill="#181818" d="M60.524,39.298c0.558,0,1.115,0,1.672,0c0,0.093,0,0.186,0,0.279
	C61.707,39.417,60.559,39.914,60.524,39.298z"/>
<path fill-rule="evenodd" clip-rule="evenodd" fill="#7A7A7A" d="M47.146,59.645c-0.728-1.038-1.023-2.506-1.951-3.345
	c0.458-0.564,0.932-1.112,1.951-1.115c0.903,0.955,1.098,2.619,2.229,3.345C48.621,58.889,48.113,59.497,47.146,59.645z"/>
<path fill-rule="evenodd" clip-rule="evenodd" fill="#7A7A7A" d="M58.573,59.366c0.086-0.379,0.698-0.231,1.115-0.278
	C59.636,59.499,59.014,59.342,58.573,59.366z"/>
<path fill-rule="evenodd" clip-rule="evenodd" fill="#7A7A7A" d="M50.49,61.038c0.544,1.406,1.632,2.27,1.951,3.901
	c-0.856,0.073-1.253,0.605-1.951,0.836c-0.259-1.505-1.547-1.981-1.672-3.623c-0.092,0-0.186,0-0.279,0
	C48.99,61.581,49.88,61.45,50.49,61.038z"/>
<path fill-rule="evenodd" clip-rule="evenodd" fill="#333333" d="M100.101,62.71c-0.177,1.03,0.362,2.776-0.279,3.345
	c0-1.207,0-2.415,0-3.623c0.095,0,0.187,0,0.279,0C100.101,62.524,100.101,62.617,100.101,62.71z"/>
<path fill-rule="evenodd" clip-rule="evenodd" fill="#C2C2C2" d="M99.821,66.333c-0.16,0.49,0.337,1.638-0.278,1.673
	C99.703,67.516,99.207,66.368,99.821,66.333z"/>
<path fill-rule="evenodd" clip-rule="evenodd" fill="#7A7A7A" d="M38.227,72.744c0,0.743,0,1.486,0,2.229c-0.093,0-0.186,0-0.278,0
	C38.118,74.308,37.599,72.951,38.227,72.744z"/>
<path fill-rule="evenodd" clip-rule="evenodd" fill="#333333" d="M40.735,76.646c0.413,0.052,0.255,0.674,0.279,1.114
	C40.636,77.674,40.783,77.063,40.735,76.646z"/>
<path fill-rule="evenodd" clip-rule="evenodd" fill="#7A7A7A" d="M38.227,76.089c0,0.649,0,1.3,0,1.95
	c-0.623-0.119-0.113-1.374-0.278-1.95C38.042,76.089,38.134,76.089,38.227,76.089z"/>
<path fill-rule="evenodd" clip-rule="evenodd" fill="#333333" d="M67.212,93.368c0.744,0,1.487,0,2.23,0
	c-0.207,0.629-1.563,0.108-2.23,0.279C67.212,93.554,67.212,93.461,67.212,93.368z"/>
<path fill-rule="evenodd" clip-rule="evenodd" fill="#FFFFFF" d="M14.815,2.23c0.743,0,1.486,0,2.229,0c0.464,0,0.929,0,1.394,0
	c0.372,0,0.743,0,1.114,0c0.88-0.137,0.985,0.502,1.951,0.278c0.047,0.325,0.44,0.303,0.836,0.279c0.531,0.12,0.7,0.601,1.394,0.557
	c1.526,0.704,3.062,1.397,4.181,2.509c0.812,1.046,1.741,1.975,2.787,2.787c2.216,2.188,4.168,4.635,6.689,7.525
	c0.59,0.677,2.014,2.487,2.23,2.509c0.524,0.053,2.677-2.454,3.623-3.066c0.426-0.275,0.88-0.975,1.393-1.393
	c0.361-0.294,0.776-0.268,1.115-0.558c0.336-0.288,0.493-0.835,0.836-1.115c0.355-0.289,0.846-0.313,1.114-0.557
	c0.958-0.873,1.714-1.837,2.787-2.787c0.267-0.236,0.59-0.654,0.836-0.836c0.333-0.246,0.949-0.266,1.394-0.558
	c0.374-0.245,0.506-0.649,0.836-0.836c1.592-0.901,2.979-1.289,5.295-1.672c0.847-0.175,2.401,0.357,2.787-0.278
	c0.65,0,1.301,0,1.951,0c3.721,0.646,6.898,1.834,9.198,3.902c0.532,0.768,1.184,1.418,1.951,1.951
	c2.262,2.198,3.896,5.022,4.179,9.198c0,1.394,0,2.787,0,4.181c-0.214,2.417-0.917,4.636-1.393,6.968
	c-0.446,2.197-0.833,4.464-1.394,6.689c5.185,0.389,10.026,1.121,13.378,3.344c0.676,0.625,1.431,1.17,2.23,1.672
	c0.347,0.583,0.812,1.047,1.393,1.394c0.566,0.642,0.999,1.416,1.673,1.95c2.67,3.926,4.613,8.58,5.016,14.772
	c0,0.465,0,0.929,0,1.394c0,1.208,0,2.416,0,3.623c0,0.093,0,0.186,0,0.278c-0.614,0.035-0.118,1.183-0.278,1.673
	c-0.819,7.541-3.794,12.928-7.803,17.28c-1.141,0.905-2.162,1.927-3.067,3.065c-4.84,4.263-11.039,7.171-19.509,7.804
	c-1.857,0-3.717,0-5.574,0c-8.367-0.644-14.741-3.282-19.509-7.525c-0.534-0.768-1.184-1.418-1.951-1.95
	c-1.901-2.281-3.603-4.76-3.902-8.641c0-0.65,0-1.301,0-1.95c0-0.372,0-0.744,0-1.115c0-0.743,0-1.486,0-2.229
	c0.673-4.438,2.638-7.581,5.295-10.034c0.492-0.252,0.863-0.623,1.115-1.114c0.723-0.765,1.743-1.231,2.509-1.951
	c0.967-0.147,1.475-0.756,2.229-1.115c0.324,0.045,0.496-0.061,0.558-0.278c2.788-0.742,5.854-1.207,8.918-1.673
	c0.328-0.043,0.791,0.048,0.836-0.278c3.284-0.805,5.984-2.191,8.362-3.901c0.491-0.253,0.863-0.624,1.114-1.115
	c1.937-2.801,3.104-6.372,3.624-10.591c0.813-0.479-0.954-0.692-1.673-0.558c-0.465,0-0.93,0-1.395,0
	c-0.086-0.378-0.697-0.231-1.114-0.278c-0.37,0-0.743,0-1.113,0c-0.089-0.378-0.699-0.231-1.116-0.279c-0.371,0-0.743,0-1.114,0
	c-0.372,0-0.743,0-1.115,0c-0.12-0.624-1.374-0.113-1.951-0.279c-0.558,0-1.115,0-1.672,0c-4.097-0.548-7.49-1.8-9.755-4.181
	c-0.719-0.953-1.555-1.79-2.508-2.508c-1.298-1.117-2.415-2.416-3.344-3.902c-0.252-0.492-0.624-0.863-1.116-1.115
	c-0.514-0.692-0.842-1.572-1.671-1.951c-1.105-0.66-1.656-1.875-2.508-2.787c-1.282,0.508-2.096,1.668-3.066,2.508
	c-1.001,0.867-2.083,1.625-3.066,2.508c-0.717,0.304-1.339,0.705-1.671,1.394c-0.492,0.251-0.864,0.624-1.116,1.115
	c-2.98,2.686-6.122,5.212-11.148,5.852c-0.65,0-1.301,0-1.951,0c-0.651,0-1.301,0-1.951,0c-4.051-0.408-7.32-1.599-9.476-3.901
	c-0.252-0.491-0.624-0.863-1.115-1.115c-0.472,0.031-0.826-0.534-1.115-0.836c-0.279-0.292-0.622-0.554-0.836-0.836
	c-0.224-0.296-0.305-0.999-0.558-1.394c-0.29-0.455-0.627-0.692-0.836-1.115c-0.686-1.394-1.174-2.739-1.393-4.738
	c-0.175-0.847,0.356-2.401-0.279-2.787c-0.144-1.772,0.161-3.049,0.558-4.738c0.31-1.318,0.471-2.51,1.115-3.623
	c0.066-0.115,0.514-0.181,0.558-0.279C4.204,6.587,9.364,2.765,14.815,2.23z M15.93,4.738C8.512,6.146,3.731,10.19,2.831,18.116
	c-0.458-0.046-0.458,1.718,0,1.672c-0.079,3.98,1.562,6.242,3.065,8.64c0.533,0.768,1.184,1.418,1.951,1.952
	c2.276,1.533,4.726,2.892,8.361,3.065c0.39,0.462,2.676,0.462,3.066,0c4.055-0.404,6.297-2.622,8.918-4.459
	c0.991-0.403,1.659-1.129,2.23-1.951c2.091-2.089,4.317-4.043,6.689-5.853c0.093,0,0.186,0,0.279,0
	c0.362-0.37,0.368-1.037-0.279-1.115c-2.838-3.386-5.933-6.517-8.64-10.034c-0.533-0.768-1.183-1.418-1.951-1.951
	c-1.318-0.54-2.063-1.654-3.624-1.951c-0.371-0.558-1.237-0.621-1.951-0.836c-1.389-0.098-2.207-0.766-3.902-0.557
	C17.245,4.286,15.731,4.286,15.93,4.738z M59.966,7.804c-3.419,0.575-5.908,2.081-8.082,3.902c-0.836,0.557-1.74,1.047-2.23,1.951
	c-1.898,1.883-4.038,3.708-5.854,5.295c-0.693,0.607-1.298,1.4-2.229,1.672c1.041,2.058,2.979,3.388,4.459,5.017
	c0.167,0.184,0.14,0.655,0.279,0.836c0.125,0.163,0.404,0.383,0.558,0.557c1.197,1.352,2.532,2.435,3.345,3.901
	c0.626,0.86,1.369,1.604,2.229,2.23c3.084,2.211,6.761,3.831,12.263,3.624c0.053,0.413,0.673,0.255,1.116,0.278
	c0.743,0,1.486,0,2.229,0c0.052,0.414,0.673,0.256,1.114,0.279c1.426-0.219,2.025,0.391,3.346,0.278
	c-0.201,0.452,1.313,0.452,1.113,0c0.627-5.134,2.044-9.476,2.787-14.493c0.457,0.126,0.457-1.519,0-1.393
	c-0.185-3.902-1.623-6.552-3.344-8.919c-0.627-0.86-1.37-1.604-2.229-2.229c-2.236-1.295-4.404-2.657-7.804-2.788
	c-0.12-0.623-1.374-0.113-1.951-0.278C60.665,7.573,60.053,7.426,59.966,7.804z M75.574,40.692
	c-0.919,6.601-2.639,11.635-6.968,14.771c-2.39,1.732-5.465,2.849-8.918,3.625c-0.417,0.047-1.029-0.101-1.115,0.278
	c-3.047,0.204-5.64,0.863-8.083,1.672c-0.61,0.412-1.5,0.543-1.951,1.114c-0.585,0.344-1.086,0.771-1.672,1.115
	c-1.251,0.608-2.18,1.537-2.787,2.787c-1.586,2.409-3.116,4.875-3.345,8.641c-0.458-0.046-0.458,1.718,0,1.672
	c0,0.093,0,0.185,0,0.278c0.047,0.417-0.1,1.028,0.279,1.114c0.158,3.002,1.567,4.751,2.787,6.689
	c0.403,0.991,1.129,1.658,1.952,2.23c0.093,0,0.186,0,0.278,0c4.317,3.579,9.8,5.993,17.002,6.688
	c0.208,0.629,1.563,0.108,2.23,0.279c0.649,0,1.301,0,1.949,0c0.668-0.171,2.023,0.35,2.23-0.279
	c7.374-0.522,12.471-3.322,17.003-6.688c1.437-0.699,2.35-1.923,3.344-3.066c0.082-0.727,0.711-1.165,1.113-1.672
	c0.291-0.364,0.718-0.991,0.838-1.115c0.222-0.233,0.33-0.599,0.557-0.836c0.449-0.469,0.561-0.923,0.836-1.394
	c1.875-3.212,3.729-7.41,3.902-11.984c0.412-0.052,0.256-0.674,0.278-1.115c0-0.929,0-1.857,0-2.787
	c-0.377-0.936,0.15-1.474-0.278-1.95c-0.507-6.275-2.781-10.783-5.853-14.494c0-0.093,0-0.185,0-0.278
	c-0.332-0.689-0.955-1.089-1.673-1.394c-2.963-2.333-7.17-3.421-11.984-3.902C77.487,40.233,75.612,40.233,75.574,40.692z"/>
<path fill-rule="evenodd" clip-rule="evenodd" fill="#181818" d="M16.209,33.445c1.022,0,2.043,0,3.066,0
	C18.885,33.907,16.599,33.907,16.209,33.445z"/>
<path fill-rule="evenodd" clip-rule="evenodd" fill="#333333" d="M63.59,96.155c1.857,0,3.717,0,5.574,0
	C67.949,96.619,64.805,96.619,63.59,96.155z"/>
<path fill-rule="evenodd" clip-rule="evenodd" fill="#C2C2C2" d="M14.815,2.23c0.208-0.629,1.563-0.109,2.229-0.279
	c0,0.093,0,0.186,0,0.279C16.302,2.23,15.559,2.23,14.815,2.23z"/>
<path fill-rule="evenodd" clip-rule="evenodd" fill="#C2C2C2" d="M58.852,5.295c0.208-0.628,1.563-0.108,2.23-0.278
	c0.186,0,0.372,0,0.557,0C61.252,5.652,59.699,5.121,58.852,5.295z"/>
<path fill-rule="evenodd" clip-rule="evenodd" fill="#C2C2C2" d="M62.196,39.298c0.577,0.166,1.831-0.345,1.951,0.279
	c-0.279,0-0.558,0-0.836,0c-0.372,0-0.744,0-1.115,0C62.196,39.484,62.196,39.391,62.196,39.298z"/>
<path fill-rule="evenodd" clip-rule="evenodd" fill="#C2C2C2" d="M75.574,40.692c0.038-0.459,1.913-0.459,1.951,0
	C76.875,40.692,76.226,40.692,75.574,40.692z"/>
<path fill-rule="evenodd" clip-rule="evenodd" fill="#7A7A7A" d="M99.821,61.038c0.848,0.174,2.402-0.356,2.787,0.278
	c0,0.371,0,0.743,0,1.115c-0.463,0-0.928,0-1.393,0c-0.372,0-0.743,0-1.115,0c-0.093,0-0.185,0-0.279,0
	C99.821,61.967,99.821,61.503,99.821,61.038z"/>
<path fill-rule="evenodd" clip-rule="evenodd" fill="#333333" d="M63.033,93.368c0.744,0,1.487,0,2.23,0c0,0.093,0,0.186,0,0.279
	C64.596,93.477,63.24,93.997,63.033,93.368z"/>
</svg>
