<?xml version="1.0" encoding="utf-8"?>
<!-- Generator: Adobe Illustrator 15.0.0, SVG Export Plug-In  -->
<!DOCTYPE svg PUBLIC "-//W3C//DTD SVG 1.1//EN" "http://www.w3.org/Graphics/SVG/1.1/DTD/svg11.dtd" [
	<!ENTITY ns_flows "http://ns.adobe.com/Flows/1.0/">
]>
<svg version="1.1"
	 xmlns="http://www.w3.org/2000/svg" xmlns:xlink="http://www.w3.org/1999/xlink" xmlns:a="http://ns.adobe.com/AdobeSVGViewerExtensions/3.0/"
	 x="0px" y="0px" width="142px" height="142px" viewBox="-8.875 -23.213 142 142" enable-background="new -8.875 -23.213 142 142"
	 xml:space="preserve">
<defs>
</defs>
<path fill-rule="evenodd" clip-rule="evenodd" fill="#303030" d="M105.119,1.436c-0.201-0.452,1.313-0.452,1.113,0
	C105.862,1.436,105.489,1.436,105.119,1.436z"/>
<path fill-rule="evenodd" clip-rule="evenodd" fill="#A4A4A4" d="M63.868,5.896c0-0.092,0-0.186,0-0.278
	c0.441,0.023,1.063-0.134,1.114,0.278C64.612,5.896,64.24,5.896,63.868,5.896z"/>
<path fill-rule="evenodd" clip-rule="evenodd" fill="#303030" d="M112.922,11.191c-0.023,0.441,0.135,1.063-0.278,1.116
	C112.689,11.889,112.543,11.277,112.922,11.191z"/>
<path fill-rule="evenodd" clip-rule="evenodd" fill="#A4A4A4" d="M2.552,16.766c0.153-0.405-0.325-1.44,0.279-1.394
	c0,0.464,0,0.929,0,1.394C2.738,16.766,2.645,16.766,2.552,16.766z"/>
<path fill-rule="evenodd" clip-rule="evenodd" fill="#303030" d="M105.954,17.602c-0.048-0.604,0.987-0.126,1.395-0.278
	C107.395,17.928,106.358,17.449,105.954,17.602z"/>
<path fill-rule="evenodd" clip-rule="evenodd" fill="#303030" d="M106.79,20.389c0-0.093,0-0.186,0-0.278c0.372,0,0.743,0,1.115,0
	C107.854,20.523,107.23,20.366,106.79,20.389z"/>
<path fill-rule="evenodd" clip-rule="evenodd" fill="#303030" d="M88.673,27.636c0,0.464,0,0.929,0,1.393c-0.092,0-0.185,0-0.278,0
	C88.549,28.624,88.069,27.588,88.673,27.636z"/>
<path fill-rule="evenodd" clip-rule="evenodd" fill="#303030" d="M91.183,28.192c0.093,0,0.185,0,0.279,0
	c-0.049,0.417,0.098,1.029-0.279,1.115C91.183,28.936,91.183,28.564,91.183,28.192z"/>
<path fill-rule="evenodd" clip-rule="evenodd" fill="#303030" d="M16.766,29.028c-0.169,0.667,0.35,2.022-0.278,2.23
	C16.657,30.592,16.138,29.236,16.766,29.028z"/>
<path fill-rule="evenodd" clip-rule="evenodd" fill="#303030" d="M17.881,29.028c0.636,0.387,0.104,1.94,0.279,2.788
	c-0.093,0-0.186,0-0.279,0C17.881,30.887,17.881,29.958,17.881,29.028z"/>
<path fill-rule="evenodd" clip-rule="evenodd" fill="#6F6F6F" d="M88.395,29.028c0.094,0,0.187,0,0.278,0c0,1.301,0,2.602,0,3.903
	c-0.092,0-0.185,0-0.278,0C88.395,31.63,88.395,30.329,88.395,29.028z"/>
<path fill-rule="evenodd" clip-rule="evenodd" fill="#303030" d="M63.59,32.374c-0.199-0.452,1.314-0.452,1.114,0
	C64.333,32.374,63.961,32.374,63.59,32.374z"/>
<path fill-rule="evenodd" clip-rule="evenodd" fill="#303030" d="M63.59,32.652c-0.047,0.417,0.1,1.028-0.278,1.115
	C63.359,33.35,63.211,32.738,63.59,32.652z"/>
<path fill-rule="evenodd" clip-rule="evenodd" fill="#303030" d="M91.183,32.652c0.413,0.051,0.255,0.673,0.279,1.115
	c-0.095,0-0.187,0-0.279,0C91.183,33.396,91.183,33.024,91.183,32.652z"/>
<path fill-rule="evenodd" clip-rule="evenodd" fill="#303030" d="M64.982,32.931c-0.047,0.417,0.101,1.028-0.278,1.114
	C64.753,33.629,64.605,33.017,64.982,32.931z"/>
<path fill-rule="evenodd" clip-rule="evenodd" fill="#303030" d="M88.395,32.931c0.094,0,0.187,0,0.278,0c0,0.371,0,0.743,0,1.114
	C88.262,33.994,88.418,33.373,88.395,32.931z"/>
<path fill-rule="evenodd" clip-rule="evenodd" fill="#A4A4A4" d="M17.881,34.324c0.126,0.456-1.519,0.456-1.393,0
	C16.952,34.324,17.417,34.324,17.881,34.324z"/>
<path fill-rule="evenodd" clip-rule="evenodd" fill="#303030" d="M16.488,34.882c-0.074,1.188-0.151,2.38,0.836,2.508
	c-0.373,0-0.744,0-1.115,0C16.381,36.634,15.855,35.178,16.488,34.882z"/>
<path fill-rule="evenodd" clip-rule="evenodd" fill="#303030" d="M17.881,35.439c-0.165,0.577,0.345,1.831-0.278,1.951
	C17.768,36.813,17.258,35.559,17.881,35.439z"/>
<path fill-rule="evenodd" clip-rule="evenodd" fill="#303030" d="M62.753,39.063c0,0.464,0,0.929,0,1.394
	C62.298,40.582,62.298,38.937,62.753,39.063z"/>
<path fill-rule="evenodd" clip-rule="evenodd" fill="#303030" d="M64.147,39.341c-0.048,0.417,0.1,1.029-0.279,1.115
	C63.916,40.039,63.769,39.427,64.147,39.341z"/>
<path fill-rule="evenodd" clip-rule="evenodd" fill="#303030" d="M70.558,43.243c0.093,0,0.187,0,0.279,0
	c-0.049,0.417,0.1,1.028-0.279,1.114C70.558,43.986,70.558,43.615,70.558,43.243z"/>
<path fill-rule="evenodd" clip-rule="evenodd" fill="#303030" d="M99.821,59.688c0.463,0.662,0.463,3.238,0,3.901
	C99.821,62.288,99.821,60.987,99.821,59.688z"/>
<path fill-rule="evenodd" clip-rule="evenodd" fill="#303030" d="M97.035,59.966c0.092,0,0.187,0,0.278,0c0,1.115,0,2.23,0,3.345
	c-0.092,0-0.187,0-0.278,0C97.035,62.196,97.035,61.081,97.035,59.966z"/>
<path fill-rule="evenodd" clip-rule="evenodd" fill="#D5D5D5" d="M40.735,72.229c0,0.837,0,1.673,0,2.509
	C40.274,74.525,40.274,72.44,40.735,72.229z"/>
<path fill-rule="evenodd" clip-rule="evenodd" fill="#303030" d="M64.147,91.739c0-0.094,0-0.187,0-0.279
	c0.405,0.153,1.44-0.326,1.394,0.279C65.077,91.739,64.612,91.739,64.147,91.739z"/>
<path fill-rule="evenodd" clip-rule="evenodd" fill="#303030" d="M65.82,91.739c0.296-0.634,1.751-0.106,2.508-0.279
	c0,0.093,0,0.186,0,0.279C67.493,91.739,66.655,91.739,65.82,91.739z"/>
<path fill-rule="evenodd" clip-rule="evenodd" fill="#303030" d="M63.868,94.247c0.465,0,0.93,0,1.395,0c0,0.094,0,0.186,0,0.278
	C64.856,94.373,63.821,94.853,63.868,94.247z"/>
<path fill-rule="evenodd" clip-rule="evenodd" fill="#6F6F6F" d="M65.263,94.525c0-0.093,0-0.185,0-0.278c0.558,0,1.114,0,1.671,0
	c0,0.094,0,0.186,0,0.278C66.377,94.525,65.82,94.525,65.263,94.525z"/>
<path fill-rule="evenodd" clip-rule="evenodd" fill="#303030" d="M66.934,94.525c0-0.093,0-0.185,0-0.278c0.56,0,1.116,0,1.673,0
	C68.572,94.863,67.425,94.365,66.934,94.525z"/>
<path fill-rule="evenodd" clip-rule="evenodd" fill="#303030" d="M3.667,6.453c0.626-0.86,1.369-1.603,2.229-2.229
	C5.271,5.084,4.527,5.827,3.667,6.453z"/>
<path fill-rule="evenodd" clip-rule="evenodd" fill="#303030" d="M4.503,29.028c0.492,0.252,0.863,0.624,1.115,1.116
	C5.126,29.892,4.755,29.521,4.503,29.028z"/>
<path fill-rule="evenodd" clip-rule="evenodd" fill="#6F6F6F" d="M15.652,34.324c0.278,0,0.557,0,0.836,0
	c-0.126,0.456,1.519,0.456,1.393,0c0.558,0,1.115,0,1.672,0c0.047,0.605-0.988,0.127-1.393,0.28
	c-0.327,0.044-0.235,0.508-0.279,0.836c-0.623,0.12-0.113,1.373-0.278,1.951c-0.093,0-0.186,0-0.278,0
	c-0.988-0.128-0.911-1.32-0.836-2.508C16.424,34.48,15.656,34.784,15.652,34.324z"/>
<path fill-rule="evenodd" clip-rule="evenodd" fill="#6F6F6F" d="M30.423,28.75c0.252-0.491,0.623-0.863,1.115-1.114
	C31.286,28.127,30.915,28.499,30.423,28.75z"/>
<path fill-rule="evenodd" clip-rule="evenodd" fill="#A4A4A4" d="M38.785,21.225c0.122-0.342,0.356-0.572,0.836-0.557
	c0.052,0.225,0.279,0.277,0.278,0.557C39.487,20.902,39.197,20.902,38.785,21.225z"/>
<path fill-rule="evenodd" clip-rule="evenodd" fill="#A4A4A4" d="M47.982,30.422c0.492,0.252,0.863,0.624,1.115,1.115
	C48.605,31.286,48.234,30.914,47.982,30.422z"/>
<path fill-rule="evenodd" clip-rule="evenodd" fill="#D5D5D5" d="M49.097,31.537c0.583,0.346,1.047,0.811,1.393,1.394
	C49.773,32.719,49.31,32.254,49.097,31.537z"/>
<path fill-rule="evenodd" clip-rule="evenodd" fill="#6F6F6F" d="M42.687,61.638c0.252-0.49,0.623-0.862,1.114-1.114
	C43.55,61.015,43.178,61.387,42.687,61.638z"/>
<path fill-rule="evenodd" clip-rule="evenodd" fill="#303030" d="M87.002,87.838c0.122-0.344,0.356-0.573,0.835-0.559
	c0.055,0.226,0.281,0.278,0.279,0.559C87.703,87.514,87.415,87.514,87.002,87.838z"/>
<path fill-rule="evenodd" clip-rule="evenodd" fill="#303030" d="M88.673,88.673c0.493,0.252,0.863,0.624,1.116,1.115
	C89.298,89.536,88.925,89.165,88.673,88.673z"/>
<path fill-rule="evenodd" clip-rule="evenodd" fill="#303030" d="M90.902,90.067c0.124-0.648,1.232-0.746,0.56-1.395
	c0.224,0.053,0.276,0.279,0.557,0.278C91.766,89.443,91.396,89.814,90.902,90.067z"/>
<path fill-rule="evenodd" clip-rule="evenodd" fill="#6F6F6F" d="M90.902,84.213c0.253-0.49,0.625-0.862,1.116-1.114
	C91.766,83.59,91.396,83.962,90.902,84.213z"/>
<path fill-rule="evenodd" clip-rule="evenodd" fill="#303030" d="M95.641,13.699c0.094,0,0.187,0,0.28,0
	c0.438,0.675,0.996,1.233,1.671,1.673c0.099,0.366,0.491,0.438,0.56,0.836C97.197,15.489,96.362,14.652,95.641,13.699z"/>
<path fill-rule="evenodd" clip-rule="evenodd" fill="#303030" d="M98.43,16.487c0.224,0.053,0.278,0.28,0.557,0.279
	c0.188,0.647,0.926,0.746,1.114,1.394C99.425,17.72,98.868,17.162,98.43,16.487z"/>
<path fill-rule="evenodd" clip-rule="evenodd" fill="#D5D5D5" d="M100.101,18.159c-0.188-0.648-0.926-0.747-1.114-1.394
	c0.675,0.44,1.232,0.997,1.673,1.672C100.433,18.385,100.381,18.159,100.101,18.159z"/>
<path fill-rule="evenodd" clip-rule="evenodd" fill="#6F6F6F" d="M114.316,15.651c0.579,1.241,3.254,1.731,1.393,3.065
	c-1.206-0.104-1.749-2.01-2.787-1.393C113.309,16.688,113.886,16.243,114.316,15.651z"/>
<path fill-rule="evenodd" clip-rule="evenodd" fill="#6F6F6F" d="M97.592,5.896c0.347-0.583,0.812-1.047,1.395-1.393
	C98.64,5.085,98.175,5.55,97.592,5.896z"/>
<path fill-rule="evenodd" clip-rule="evenodd" fill="#303030" d="M96.479,7.011c0.25-0.492,0.623-0.863,1.113-1.115
	C97.342,6.387,96.969,6.759,96.479,7.011z"/>
<path fill-rule="evenodd" clip-rule="evenodd" fill="#D5D5D5" d="M97.592,15.372c-0.675-0.44-1.232-0.998-1.671-1.673
	C96.597,14.139,97.153,14.697,97.592,15.372z"/>
<path fill-rule="evenodd" clip-rule="evenodd" fill="#6F6F6F" d="M87.837,87.279c0.347-0.583,0.812-1.048,1.395-1.394
	c0.729,0.944,1.577,1.768,2.23,2.787c0.673,0.648-0.436,0.746-0.56,1.395c-0.222,0.147-0.45,0.29-0.835,0.278
	c-0.053-0.227-0.278-0.278-0.278-0.558c-0.253-0.491-0.623-0.863-1.116-1.115c-0.099-0.365-0.489-0.438-0.557-0.835
	C88.118,87.558,87.892,87.505,87.837,87.279z"/>
<path fill-rule="evenodd" clip-rule="evenodd" fill="#D5D5D5" d="M5.618,30.144c-0.251-0.492-0.623-0.864-1.115-1.116
	c-0.053-0.225-0.28-0.277-0.279-0.557c0.675,0.439,1.233,0.997,1.672,1.672C5.804,30.144,5.711,30.144,5.618,30.144z"/>
<path fill-rule="evenodd" clip-rule="evenodd" fill="#303030" d="M6.176,7.847c0.345-0.583,0.81-1.048,1.393-1.394
	C7.223,7.036,6.759,7.501,6.176,7.847z"/>
<path fill-rule="evenodd" clip-rule="evenodd" fill="#D5D5D5" d="M28.472,27.078c0.083-0.568,0.754-0.546,0.836-1.115
	c0.226-0.053,0.278-0.28,0.557-0.279C29.52,26.267,29.056,26.731,28.472,27.078z"/>
<path fill-rule="evenodd" clip-rule="evenodd" fill="#303030" d="M28.193,27.078c0.252-0.492,0.623-0.863,1.115-1.115
	c-0.083,0.569-0.754,0.547-0.836,1.115C28.379,27.078,28.287,27.078,28.193,27.078z"/>
<path fill-rule="evenodd" clip-rule="evenodd" fill="#D5D5D5" d="M99.543,7.568c0.253-0.491,0.623-0.863,1.116-1.115
	C100.406,6.944,100.034,7.316,99.543,7.568z"/>
<path fill-rule="evenodd" clip-rule="evenodd" fill="#303030" d="M98.986,8.404c0.099-0.367,0.491-0.438,0.557-0.836
	c0.491-0.252,0.863-0.624,1.116-1.115c0.225-0.053,0.276-0.279,0.557-0.278C100.589,7.035,99.846,7.778,98.986,8.404z"/>
<path fill-rule="evenodd" clip-rule="evenodd" fill="#6F6F6F" d="M97.87,12.027c0.493,0.252,0.863,0.625,1.116,1.116
	C98.495,12.891,98.123,12.519,97.87,12.027z"/>
<path fill-rule="evenodd" clip-rule="evenodd" fill="#303030" d="M100.938,15.093c-0.768-0.533-1.418-1.183-1.951-1.951
	C99.754,13.675,100.404,14.326,100.938,15.093z"/>
<path fill-rule="evenodd" clip-rule="evenodd" fill="#6F6F6F" d="M100.938,15.093c0.491,0.251,0.863,0.624,1.114,1.115
	C101.561,15.957,101.188,15.584,100.938,15.093z"/>
<path fill-rule="evenodd" clip-rule="evenodd" fill="#6F6F6F" d="M112.087,13.979c-0.165,0.58-0.587,0.9-0.838,1.394
	c-0.092,0-0.187,0-0.278,0c-0.172-1.058-2.384-1.172-1.673-2.229c0.303-0.069,0.19-0.555,0.559-0.558
	C110.875,12.775,111.215,13.641,112.087,13.979z"/>
<path fill-rule="evenodd" clip-rule="evenodd" fill="#303030" d="M50.769,10.634c0.568-0.082,0.547-0.754,1.115-0.836
	c-0.252,0.491-0.624,0.863-1.115,1.115C50.769,10.82,50.769,10.727,50.769,10.634z"/>
<path fill-rule="evenodd" clip-rule="evenodd" fill="#A4A4A4" d="M49.654,11.749c0.251-0.491,0.623-0.863,1.115-1.115
	c0,0.093,0,0.186,0,0.279C50.201,10.994,50.223,11.667,49.654,11.749z"/>
<path fill-rule="evenodd" clip-rule="evenodd" fill="#303030" d="M41.851,18.438c0.226-0.053,0.278-0.279,0.557-0.279
	c-0.003,0.554-0.76,0.354-0.557,1.115C41.354,19.069,41.811,18.768,41.851,18.438z"/>
<path fill-rule="evenodd" clip-rule="evenodd" fill="#D5D5D5" d="M41.851,19.553c-0.343-0.122-0.572-0.356-0.558-0.836
	c0.226-0.053,0.278-0.279,0.558-0.278c-0.04,0.33-0.497,0.631,0,0.836C41.851,19.367,41.851,19.459,41.851,19.553z"/>
<path fill-rule="evenodd" clip-rule="evenodd" fill="#A4A4A4" d="M49.933,28.75c0.491,0.252,0.863,0.624,1.115,1.115
	C50.557,29.613,50.185,29.241,49.933,28.75z"/>
<path fill-rule="evenodd" clip-rule="evenodd" fill="#6F6F6F" d="M51.048,29.865c0.492,0.252,0.863,0.624,1.115,1.115
	C51.671,30.728,51.3,30.356,51.048,29.865z"/>
<path fill-rule="evenodd" clip-rule="evenodd" fill="#303030" d="M67.493,49.653c0.25-0.491,0.623-0.862,1.113-1.115
	C68.354,49.03,67.983,49.401,67.493,49.653z"/>
<path fill-rule="evenodd" clip-rule="evenodd" fill="#303030" d="M44.359,63.867c0.251-0.491,0.623-0.863,1.114-1.114
	C45.222,63.244,44.85,63.616,44.359,63.867z"/>
<path fill-rule="evenodd" clip-rule="evenodd" fill="#D5D5D5" d="M86.164,85.05c0.091-0.654,0.864-0.623,1.116-1.115
	c0.236,0.052,0.263-0.108,0.278-0.278c0.227-0.053,0.278-0.279,0.558-0.278C87.739,84.207,86.857,84.535,86.164,85.05z"/>
<path fill-rule="evenodd" clip-rule="evenodd" fill="#A4A4A4" d="M88.116,83.378c0.252-0.492,0.625-0.863,1.115-1.115
	C88.979,82.754,88.608,83.125,88.116,83.378z"/>
<path fill-rule="evenodd" clip-rule="evenodd" fill="#D5D5D5" d="M89.231,81.984c0.567-0.082,0.547-0.754,1.114-0.836
	c-0.253,0.49-0.623,0.862-1.114,1.114C89.231,82.17,89.231,82.076,89.231,81.984z"/>
<path fill-rule="evenodd" clip-rule="evenodd" fill="#303030" d="M89.231,81.984c0.251-0.492,0.623-0.863,1.114-1.115
	c0,0.093,0,0.186,0,0.279C89.778,81.23,89.799,81.902,89.231,81.984z"/>
<path fill-rule="evenodd" clip-rule="evenodd" fill="#303030" d="M86.445,82.82c0.566,0.082,0.545,0.754,1.113,0.836
	c-0.016,0.17-0.042,0.33-0.278,0.278C87.198,83.367,86.525,83.388,86.445,82.82z"/>
<path fill-rule="evenodd" clip-rule="evenodd" fill="#6F6F6F" d="M84.215,81.148c1.162-0.817,1.535,1.137,2.23,1.672
	c0.08,0.567,0.753,0.547,0.835,1.114c-0.252,0.492-1.025,0.461-1.116,1.115c-0.092,0-0.184,0-0.278,0
	c-0.224-0.054-0.276-0.279-0.557-0.278c-0.099-0.367-0.491-0.438-0.557-0.837c-0.253-0.49-0.623-0.863-1.116-1.114
	c-0.052-0.226-0.278-0.278-0.278-0.558c0-0.093,0-0.187,0-0.278C83.78,81.828,84.059,81.55,84.215,81.148z"/>
<path fill-rule="evenodd" clip-rule="evenodd" fill="#303030" d="M83.378,82.263c-0.609-0.189,0.528-0.927,0.837-1.114
	c-0.156,0.401-0.435,0.68-0.837,0.836C83.378,82.076,83.378,82.17,83.378,82.263z"/>
<path fill-rule="evenodd" clip-rule="evenodd" fill="#303030" d="M83.656,82.82c0.493,0.251,0.863,0.624,1.116,1.114
	C84.281,83.684,83.908,83.312,83.656,82.82z"/>
<path fill-rule="evenodd" clip-rule="evenodd" fill="#303030" d="M85.329,84.771c0.28-0.001,0.333,0.225,0.557,0.278
	c-0.154,0.401-0.435,0.68-0.835,0.836C85.207,85.318,85.89,85.339,85.329,84.771z"/>
<path fill-rule="evenodd" clip-rule="evenodd" fill="#6F6F6F" d="M63.59,32.652c0-0.093,0-0.186,0-0.279c0.371,0,0.743,0,1.114,0
	c0.271,0.007,0.217,0.341,0.278,0.558c-0.377,0.086-0.229,0.698-0.278,1.114c0,0.372,0,0.743,0,1.115
	c0.324-0.045,0.497,0.062,0.559,0.279c-0.745-0.185-1.742-0.117-2.23-0.558c0.377-0.086,0.23-0.698,0.279-1.115
	C63.689,33.68,63.543,33.069,63.59,32.652z"/>
<path fill-rule="evenodd" clip-rule="evenodd" fill="#6F6F6F" d="M14.815,0.322c0.297-0.633,1.752-0.106,2.509-0.279
	C17.027,0.675,15.572,0.149,14.815,0.322z"/>
<path fill-rule="evenodd" clip-rule="evenodd" fill="#6F6F6F" d="M17.603,0.042c0.49,0.161,1.637-0.336,1.672,0.279
	C18.785,0.162,17.637,0.658,17.603,0.042z"/>
<path fill-rule="evenodd" clip-rule="evenodd" fill="#D5D5D5" d="M106.79,1.436c0.576,0.167,1.831-0.344,1.951,0.279
	C108.164,1.549,106.91,2.06,106.79,1.436z"/>
<path fill-rule="evenodd" clip-rule="evenodd" fill="#D5D5D5" d="M16.209,2.83c-0.125-0.456,1.519-0.456,1.394,0
	C17.138,2.83,16.673,2.83,16.209,2.83z"/>
<path fill-rule="evenodd" clip-rule="evenodd" fill="#6F6F6F" d="M64.704,3.109c0.667,0.17,2.023-0.35,2.229,0.278
	C66.269,3.218,64.912,3.737,64.704,3.109z"/>
<path fill-rule="evenodd" clip-rule="evenodd" fill="#6F6F6F" d="M67.493,3.387c0.488,0.161,1.637-0.337,1.671,0.279
	C68.675,3.505,67.526,4.003,67.493,3.387z"/>
<path fill-rule="evenodd" clip-rule="evenodd" fill="#6F6F6F" d="M70.001,3.666c0.489,0.161,1.637-0.337,1.671,0.279
	C71.183,3.785,70.035,4.281,70.001,3.666z"/>
<path fill-rule="evenodd" clip-rule="evenodd" fill="#6F6F6F" d="M72.788,3.945c0.488,0.16,1.637-0.336,1.673,0.279
	C73.97,4.063,72.822,4.561,72.788,3.945z"/>
<path fill-rule="evenodd" clip-rule="evenodd" fill="#303030" d="M104.838,4.224c0.089-0.378,0.699-0.231,1.116-0.279
	c0,0.093,0,0.186,0,0.279C105.581,4.224,105.211,4.224,104.838,4.224z"/>
<path fill-rule="evenodd" clip-rule="evenodd" fill="#6F6F6F" d="M105.954,3.945c0.489,0.16,1.637-0.336,1.673,0.279
	c-0.559,0-1.116,0-1.673,0C105.954,4.131,105.954,4.038,105.954,3.945z"/>
<path fill-rule="evenodd" clip-rule="evenodd" fill="#6F6F6F" d="M75.574,4.224c0.491,0.161,1.637-0.337,1.673,0.279
	C76.757,4.342,75.608,4.839,75.574,4.224z"/>
<path fill-rule="evenodd" clip-rule="evenodd" fill="#6F6F6F" d="M78.361,4.502c0.491,0.16,1.637-0.337,1.673,0.278
	C79.543,4.621,78.397,5.118,78.361,4.502z"/>
<path fill-rule="evenodd" clip-rule="evenodd" fill="#6F6F6F" d="M65.82,5.896c0.488,0.161,1.637-0.336,1.673,0.279
	C67.002,6.014,65.854,6.511,65.82,5.896z"/>
<path fill-rule="evenodd" clip-rule="evenodd" fill="#6F6F6F" d="M68.328,6.175c0.489,0.16,1.637-0.337,1.673,0.278
	C69.51,6.293,68.362,6.79,68.328,6.175z"/>
<path fill-rule="evenodd" clip-rule="evenodd" fill="#6F6F6F" d="M70.837,6.453c0.576,0.166,1.831-0.344,1.951,0.279
	C72.211,6.566,70.957,7.077,70.837,6.453z"/>
<path fill-rule="evenodd" clip-rule="evenodd" fill="#6F6F6F" d="M73.623,6.732c0.577,0.166,1.831-0.344,1.951,0.279
	C74.997,6.845,73.743,7.355,73.623,6.732z"/>
<path fill-rule="evenodd" clip-rule="evenodd" fill="#6F6F6F" d="M76.41,7.011c0.579,0.166,1.831-0.345,1.951,0.279
	C77.784,7.124,76.53,7.634,76.41,7.011z"/>
<path fill-rule="evenodd" clip-rule="evenodd" fill="#6F6F6F" d="M115.431,12.585c0-1.115,0-2.23,0-3.345
	C115.893,9.721,115.893,12.104,115.431,12.585z"/>
<path fill-rule="evenodd" clip-rule="evenodd" fill="#6F6F6F" d="M2.831,18.438c-0.616-0.035-0.119-1.183-0.279-1.672
	c0.093,0,0.186,0,0.279,0C2.831,17.323,2.831,17.88,2.831,18.438z"/>
<path fill-rule="evenodd" clip-rule="evenodd" fill="#6F6F6F" d="M0.043,18.716c0.616,0.035,0.119,1.183,0.279,1.672
	C-0.293,20.354,0.204,19.206,0.043,18.716z"/>
<path fill-rule="evenodd" clip-rule="evenodd" fill="#6F6F6F" d="M88.953,24.848c-0.166,0.577,0.345,1.831-0.28,1.951
	C88.839,26.222,88.33,24.968,88.953,24.848z"/>
<path fill-rule="evenodd" clip-rule="evenodd" fill="#6F6F6F" d="M91.462,26.799c0,0.464,0,0.929,0,1.393c-0.095,0-0.187,0-0.279,0
	C91.335,27.788,90.856,26.752,91.462,26.799z"/>
<path fill-rule="evenodd" clip-rule="evenodd" fill="#6F6F6F" d="M15.373,31.537c0.441-0.023,1.063,0.134,1.115-0.279
	c0.628-0.208,0.109-1.563,0.278-2.23c0.372,0,0.743,0,1.115,0c0,0.93,0,1.859,0,2.788C17.125,31.644,15.669,32.17,15.373,31.537z"/>
<path fill-rule="evenodd" clip-rule="evenodd" fill="#A4A4A4" d="M91.462,33.767c0,0.372,0,0.743,0,1.115
	c-0.379-0.086-0.232-0.698-0.279-1.115C91.275,33.767,91.367,33.767,91.462,33.767z"/>
<path fill-rule="evenodd" clip-rule="evenodd" fill="#6F6F6F" d="M60.802,37.39c1.555-0.161,2.465,0.322,3.624,0.558
	c-0.233,0.323-0.367,0.747-0.278,1.393c-0.379,0.086-0.231,0.698-0.279,1.115c-0.372,0-0.743,0-1.115,0c0-0.464,0-0.929,0-1.394
	c0-0.372,0-0.743,0-1.115C62.716,37.149,60.84,38.188,60.802,37.39z"/>
<path fill-rule="evenodd" clip-rule="evenodd" fill="#303030" d="M68.05,42.686c-0.16,0.49,0.337,1.638-0.278,1.672
	C67.932,43.868,67.433,42.72,68.05,42.686z"/>
<path fill-rule="evenodd" clip-rule="evenodd" fill="#A4A4A4" d="M97.035,58.293c0.615,0.035,0.118,1.184,0.278,1.673
	c-0.092,0-0.187,0-0.278,0C97.035,59.408,97.035,58.852,97.035,58.293z"/>
<path fill-rule="evenodd" clip-rule="evenodd" fill="#6F6F6F" d="M97.313,63.311c-0.164,0.577,0.345,1.831-0.278,1.95
	c0-0.649,0-1.3,0-1.95C97.127,63.311,97.222,63.311,97.313,63.311z"/>
<path fill-rule="evenodd" clip-rule="evenodd" fill="#A4A4A4" d="M38.227,72.787c0,1.021,0,2.043,0,3.064
	c-0.638-0.477-0.102-2.127-0.278-3.064C38.042,72.787,38.134,72.787,38.227,72.787z"/>
<path fill-rule="evenodd" clip-rule="evenodd" fill="#6F6F6F" d="M62.753,91.46c0.464,0,0.929,0,1.394,0c0,0.093,0,0.186,0,0.279
	C63.742,91.587,62.707,92.064,62.753,91.46z"/>
<path fill-rule="evenodd" clip-rule="evenodd" fill="#6F6F6F" d="M68.328,91.46c0.465,0,0.93,0,1.393,0
	c0.048,0.604-0.988,0.127-1.393,0.279C68.328,91.646,68.328,91.553,68.328,91.46z"/>
<path fill-rule="evenodd" clip-rule="evenodd" fill="#6F6F6F" d="M61.082,93.969c0.49,0.16,1.638-0.338,1.672,0.278
	C62.264,94.087,61.116,94.585,61.082,93.969z"/>
<path fill-rule="evenodd" clip-rule="evenodd" fill="#6F6F6F" d="M69.721,94.247c0.036-0.616,1.184-0.118,1.673-0.278
	C71.359,94.585,70.211,94.087,69.721,94.247z"/>
<path fill-rule="evenodd" clip-rule="evenodd" fill="#FFFFFF" d="M5.896,4.224c2.394-1.88,4.993-3.555,8.919-3.902
	c0.757-0.173,2.212,0.354,2.509-0.279c0.092,0,0.185,0,0.278,0c0.035,0.616,1.183,0.119,1.672,0.279
	c1.555-0.11,3.017,0.515,4.459,1.114c0.82,0.342,1.476,0.678,2.23,1.115c0.209,0.122,0.593,0.118,0.836,0.279
	c0.62,0.412,1.071,1.107,1.672,1.672c1.523,1.433,3.513,3.312,5.017,5.016c0.52,0.589,0.883,1.372,1.394,1.952
	c1.379,1.564,3.362,3.472,4.738,5.295c3.933-3.028,7.824-7.073,11.984-10.313c0.398-0.31,0.923-0.664,1.393-1.114
	c0.648-0.621,3.381-1.595,4.738-1.952c1.654-0.434,4.233-0.232,6.967-0.278c0.208,0.628,1.564,0.109,2.229,0.278
	c0.187,0,0.373,0,0.56,0c0.033,0.616,1.182,0.118,1.671,0.279c0.278,0,0.557,0,0.837,0c0.034,0.615,1.182,0.119,1.671,0.279
	c0.373,0,0.743,0,1.116,0c0.034,0.616,1.182,0.118,1.673,0.279c0.37,0,0.743,0,1.113,0c0.034,0.616,1.183,0.118,1.673,0.279
	c0.371,0,0.743,0,1.114,0c0.036,0.615,1.182,0.118,1.673,0.278c6.126,0.284,10.692,2.128,14.492,4.738
	c0.712-0.774,1.305-1.669,1.952-2.508c0.49-0.251,0.863-0.624,1.113-1.115c0.583-0.345,1.048-0.81,1.395-1.393
	c1.521-1.545,3.197-2.935,6.133-3.066c0.37,0,0.743,0,1.113,0c0.187,0,0.373,0,0.558,0c0.12,0.624,1.374,0.113,1.951,0.279
	c3.638,1.101,6.098,3.378,6.689,7.525c0,1.115,0,2.23,0,3.345c-0.199,1.196-0.455,2.332-1.114,3.066
	c-0.431,0.592-1.008,1.038-1.395,1.672c-1.151,1.448-2.753,2.451-5.017,2.787c-0.372,0-0.743,0-1.115,0c-0.649,0-1.301,0-1.952,0
	c-1.927-0.023-3.209-0.692-4.179-1.672c-0.44-0.675-0.998-1.232-1.673-1.672c-0.278,0.001-0.333-0.226-0.557-0.279
	c-0.238,0.051-0.265-0.109-0.278-0.279c-0.068-0.397-0.461-0.47-0.56-0.836c-0.438-0.675-0.995-1.233-1.671-1.673
	c-0.094,0-0.187,0-0.28,0c-1.309,1.555-2.111,3.687-2.787,5.854c-0.694,2.231-1.1,4.66-1.392,7.247
	c-0.605-0.047-0.127,0.989-0.279,1.393c0,0.372,0,0.744,0,1.115c0,1.115,0,2.229,0,3.345c0,0.372,0,0.743,0,1.115
	c0.047,0.417-0.1,1.029,0.279,1.115c1.506,9.548,8.41,13.701,8.359,24.806c0,1.3,0,2.601,0,3.901
	c-0.34,8.764-3.512,14.696-7.803,19.51c-0.491,0.252-0.863,0.624-1.116,1.114c-0.438,0.677-0.995,1.233-1.671,1.673
	c-0.583,0.346-1.048,0.811-1.395,1.394c-0.479-0.015-0.713,0.215-0.835,0.559c-4.186,3.061-8.974,5.519-15.608,6.131
	c-0.489,0.16-1.637-0.338-1.673,0.278c-0.371,0-0.741,0-1.114,0c-0.557,0-1.113,0-1.673,0c-0.557,0-1.113,0-1.671,0
	c-0.465,0-0.93,0-1.395,0c-0.372,0-0.743,0-1.115,0c-0.034-0.616-1.182-0.118-1.672-0.278c-3.909-0.176-7.717-1.699-11.148-3.345
	c-3.275-1.571-6.369-3.671-8.361-6.131c-0.175-0.218-0.103-0.374-0.279-0.559c-0.227-0.236-0.334-0.603-0.558-0.836
	c-1.235-1.289-2.366-4.495-2.508-7.247c0-1.021,0-2.043,0-3.064c0-0.559,0-1.115,0-1.673c0.409-4.237,2.213-7.077,4.459-9.477
	c0.491-0.251,0.863-0.623,1.114-1.114c3.203-3.388,9.04-5.81,13.657-8.361c1.681-0.929,3.465-1.728,5.295-2.787
	c1.745-1.01,4.321-2.451,5.018-5.018c0.615-0.034,0.118-1.182,0.278-1.672c-0.413-2.374-1.747-3.828-3.624-4.738
	c-1.158-0.235-2.069-0.719-3.624-0.558c-4.643-0.28-7.933-1.914-10.312-4.459c-0.346-0.583-0.81-1.048-1.393-1.394
	c-0.252-0.491-0.624-0.863-1.115-1.115c-2.781-2.979-5.557-5.963-8.083-9.198c0.001-0.279-0.226-0.332-0.278-0.557
	c-0.48-0.016-0.715,0.214-0.836,0.557c-2.208,2.344-4.726,4.379-7.247,6.411c-0.492,0.251-0.863,0.623-1.115,1.114
	c-2.835,2.646-5.958,5.005-10.87,5.574c-0.557,0-1.114,0-1.672,0c-0.464,0-0.929,0-1.393,0c-0.279,0-0.558,0-0.836,0
	c-4.274-0.371-7.598-1.692-9.755-4.18c-0.439-0.675-0.997-1.233-1.672-1.672c-2.109-1.885-3.455-4.535-3.901-8.083
	c-0.16-0.49,0.336-1.637-0.279-1.672c0-0.557,0-1.115,0-1.672c0.636-0.386,0.104-1.939,0.279-2.787
	c0.317-3.399,1.74-5.692,3.344-7.804C4.527,5.827,5.271,5.084,5.896,4.224z M16.209,2.83c-3.549,0.539-6.354,1.821-8.64,3.623
	C6.986,6.799,6.521,7.264,6.176,7.847c-1.611,2.012-2.84,4.407-3.345,7.525c-0.604-0.047-0.126,0.989-0.279,1.394
	c0.161,0.49-0.336,1.638,0.279,1.672c0.97,7.577,5.275,11.819,12.542,13.099c0.297,0.633,1.752,0.106,2.508,0.279
	c0.093,0,0.186,0,0.279,0c4.343-0.581,7.323-2.524,10.033-4.738c0.093,0,0.186,0,0.279,0c0.583-0.347,1.047-0.811,1.394-1.394
	c2.253-2.484,4.87-4.606,7.525-6.689c-0.421-1.346-1.629-2.345-2.508-3.344c-0.981-1.116-1.81-2.229-2.787-3.344
	c-0.918-1.048-2.06-1.925-3.066-3.066c-0.966-1.095-1.74-2.537-2.788-3.345c-0.486-0.375-1.335-0.494-1.95-0.836
	c0.03,0.017-0.271-0.271-0.279-0.279c-0.25-0.239-0.195-0.09-0.557-0.278c-1.708-0.891-3.654-1.467-5.853-1.672
	C17.728,2.375,16.083,2.375,16.209,2.83z M101.216,6.175c-0.28-0.001-0.332,0.226-0.557,0.278c-0.493,0.252-0.863,0.624-1.116,1.115
	c-0.065,0.398-0.458,0.47-0.557,0.836c-0.535,0.951-1.271,1.703-1.951,2.508c-0.244,0.896,0.919,0.382,0.835,1.114
	c0.253,0.492,0.625,0.864,1.116,1.116c0.533,0.768,1.184,1.418,1.951,1.951c0.251,0.491,0.623,0.863,1.114,1.115
	c1.044,0.722,2.526,1.005,3.902,1.394c0.404-0.152,1.44,0.326,1.395-0.278c1.709-0.056,2.286-1.245,3.622-1.672
	c0-0.093,0-0.186,0-0.279c0.092,0,0.187,0,0.278,0c0.251-0.493,0.673-0.813,0.838-1.394c0.22-0.521,0.465-1.021,0.557-1.672
	c0.413-0.052,0.255-0.674,0.278-1.116c-0.234-3.854-2.241-5.932-5.295-6.967c-0.036-0.615-1.184-0.119-1.673-0.279
	c-0.417,0.047-1.027-0.1-1.116,0.279C103.363,4.606,102.244,5.344,101.216,6.175z M60.246,5.896
	c-3.59,0.499-6.058,2.119-8.361,3.902c-0.568,0.082-0.547,0.754-1.115,0.836c-0.492,0.252-0.863,0.624-1.115,1.115
	c-2.236,2.317-4.762,4.342-7.247,6.411c-0.279,0-0.332,0.226-0.557,0.279c-0.28-0.001-0.332,0.226-0.558,0.278
	c-0.015,0.48,0.215,0.714,0.558,0.836c2.277,2.063,4.263,4.593,6.131,6.689c0.686,0.769,1.586,1.479,1.951,2.508
	c0.252,0.491,0.624,0.863,1.115,1.115c0.252,0.492,0.624,0.863,1.115,1.115c2.717,2.207,6.184,3.664,10.87,3.902
	c0.488,0.44,1.485,0.373,2.23,0.558c2.903,0.861,4.866,2.939,5.295,6.131c0,0.558,0,1.115,0,1.672c0,0.372,0,0.743,0,1.114
	c-0.098,1.947-1.012,3.076-1.951,4.181c-0.49,0.252-0.863,0.624-1.113,1.115c-0.708,0.872-2.034,1.377-3.067,1.95
	c-2.817,1.567-5.355,3.008-8.083,4.46c-3.816,2.033-8.228,3.993-10.87,6.689c-0.491,0.251-0.863,0.623-1.114,1.114
	c-1.748,2.247-3.036,4.955-3.624,8.361c-0.461,0.212-0.461,2.297,0,2.509c0.458,2.979,1.252,5.152,2.509,6.968
	c0.383,0.554,1.158,1.081,1.393,1.394c0.198,0.263,0.066,0.613,0.279,0.836c0.216,0.227,0.585,0.368,0.836,0.559
	c0.345,0.26,0.544,0.606,0.836,0.835c0.623,0.487,1.934,1.111,2.229,1.394c0.228,0.218,0.254,0.084,0.558,0.279
	c0.268,0.171,0.598,0.708,0.836,0.837c0.728,0.391,1.617,0.459,2.508,0.835c0.208,0.088,0.547,0.447,0.836,0.557
	c3.003,1.146,5.972,1.703,9.197,2.23c-0.046,0.604,0.989,0.127,1.394,0.279c0.465,0,0.93,0,1.394,0c0.093,0,0.185,0,0.279,0
	c0.835,0,1.673,0,2.508,0c0.404-0.152,1.44,0.325,1.393-0.279c6.286-0.682,11.11-2.826,15.33-5.574
	c0.4-0.156,0.681-0.435,0.835-0.836c0.095,0,0.187,0,0.278,0c0.693-0.515,1.575-0.843,1.952-1.672
	c0.492-0.253,0.863-0.624,1.115-1.115c0.491-0.252,0.861-0.624,1.114-1.114c0-0.094,0-0.187,0-0.279
	c3.361-4.071,5.701-9.163,6.689-15.608c0.623-0.119,0.114-1.373,0.278-1.95c0-1.114,0-2.229,0-3.345
	c-0.16-0.489,0.337-1.638-0.278-1.673c-0.924-10.168-7.871-14.076-8.362-24.248c0-0.372,0-0.743,0-1.114c0-1.301,0-2.602,0-3.903
	c0-0.464,0-0.929,0-1.393c0-0.279,0-0.558,0-0.836c0.625-0.12,0.114-1.374,0.28-1.951c0.307-5.452,2.248-9.271,4.18-13.1
	c-2.545-1.417-5.197-2.644-8.36-3.344c-2.021-0.448-4.129-0.881-6.411-1.115c-0.12-0.624-1.372-0.113-1.951-0.279
	c-0.278,0-0.558,0-0.836,0c-0.12-0.623-1.374-0.113-1.951-0.279c-0.278,0-0.557,0-0.835,0c-0.12-0.623-1.375-0.113-1.951-0.279
	c-0.279,0-0.558,0-0.836,0c-0.036-0.616-1.184-0.118-1.673-0.278c-0.278,0-0.557,0-0.835,0c-0.036-0.616-1.185-0.119-1.673-0.279
	c-0.279,0-0.558,0-0.838,0c-0.051-0.413-0.673-0.255-1.114-0.278C62.747,5.796,60.905,5.254,60.246,5.896z"/>
<path fill-rule="evenodd" clip-rule="evenodd" fill="#D5D5D5" d="M0.323,14.257c-0.175,0.848,0.356,2.401-0.279,2.787
	C0.218,16.197-0.313,14.644,0.323,14.257z"/>
<path fill-rule="evenodd" clip-rule="evenodd" fill="#6F6F6F" d="M60.246,5.896c0.66-0.641,2.501-0.1,3.623-0.278
	c0,0.093,0,0.186,0,0.278C62.661,5.896,61.453,5.896,60.246,5.896z"/>
<path fill-rule="evenodd" clip-rule="evenodd" fill="#6F6F6F" d="M104.838,20.11c0.651,0,1.303,0,1.952,0c0,0.093,0,0.185,0,0.278
	C106.213,20.223,104.958,20.733,104.838,20.11z"/>
<path fill-rule="evenodd" clip-rule="evenodd" fill="#6F6F6F" d="M70.558,41.571c0.615,0.035,0.118,1.183,0.279,1.672
	c-0.093,0-0.187,0-0.279,0C70.558,42.686,70.558,42.128,70.558,41.571z"/>
<path fill-rule="evenodd" clip-rule="evenodd" fill="#6F6F6F" d="M38.227,71.114c0,0.558,0,1.114,0,1.673c-0.093,0-0.186,0-0.278,0
	C38.109,72.297,37.611,71.149,38.227,71.114z"/>
</svg>
