<?xml version="1.0" encoding="utf-8"?>
<!-- Generator: Adobe Illustrator 15.0.0, SVG Export Plug-In  -->
<!DOCTYPE svg PUBLIC "-//W3C//DTD SVG 1.1//EN" "http://www.w3.org/Graphics/SVG/1.1/DTD/svg11.dtd" [
	<!ENTITY ns_flows "http://ns.adobe.com/Flows/1.0/">
]>
<svg version="1.1"
	 xmlns="http://www.w3.org/2000/svg" xmlns:xlink="http://www.w3.org/1999/xlink" xmlns:a="http://ns.adobe.com/AdobeSVGViewerExtensions/3.0/"
	 x="0px" y="0px" width="142px" height="142px" viewBox="-7.45 -45.806 142 142" enable-background="new -7.45 -45.806 142 142"
	 xml:space="preserve">
<defs>
</defs>
<path fill-rule="evenodd" clip-rule="evenodd" fill="#A5A5A5" d="M23.487,6.994c0.3-0.461,2.486-0.461,2.787,0
	C25.345,6.994,24.417,6.994,23.487,6.994z"/>
<path fill-rule="evenodd" clip-rule="evenodd" fill="#343434" d="M86.754,16.47c0-0.093,0-0.186,0-0.279
	c0.404,0.153,1.44-0.326,1.395,0.279C87.684,16.47,87.219,16.47,86.754,16.47z"/>
<path fill-rule="evenodd" clip-rule="evenodd" fill="#343434" d="M86.476,18.978c0.465,0,0.93,0,1.395,0c0,0.093,0,0.186,0,0.278
	C87.465,19.104,86.43,19.582,86.476,18.978z"/>
<path fill-rule="evenodd" clip-rule="evenodd" fill="#737373" d="M87.871,19.256c0-0.093,0-0.185,0-0.278c0.37,0,0.743,0,1.113,0
	c0,0.093,0,0.186,0,0.278C88.614,19.256,88.241,19.256,87.871,19.256z"/>
<path fill-rule="evenodd" clip-rule="evenodd" fill="#343434" d="M44.112,40.438c0.052-0.413,0.673-0.256,1.114-0.278
	c0,0.093,0,0.187,0,0.278C44.855,40.438,44.483,40.438,44.112,40.438z"/>
<path fill-rule="evenodd" clip-rule="evenodd" fill="#343434" d="M63.9,41.274c-0.199-0.451,1.314-0.451,1.115,0
	C64.643,41.274,64.271,41.274,63.9,41.274z"/>
<path fill-rule="evenodd" clip-rule="evenodd" fill="#D5D5D5" d="M46.898,42.947c-0.125-0.455,1.52-0.455,1.394,0
	C47.828,42.947,47.363,42.947,46.898,42.947z"/>
<path fill-rule="evenodd" clip-rule="evenodd" fill="#343434" d="M44.391,43.227c0-0.094,0-0.187,0-0.279c0.372,0,0.743,0,1.115,0
	C45.454,43.359,44.832,43.202,44.391,43.227z"/>
<path fill-rule="evenodd" clip-rule="evenodd" fill="#343434" d="M49.407,42.947c0.093,0,0.186,0,0.279,0c0,0.836,0,1.672,0,2.509
	c-0.093,0-0.186,0-0.279,0C49.407,44.619,49.407,43.783,49.407,42.947z"/>
<path fill-rule="evenodd" clip-rule="evenodd" fill="#737373" d="M49.686,42.947c0.372,0,0.743,0,1.115,0c0,0.836,0,1.672,0,2.509
	c-0.372,0-0.743,0-1.115,0C49.686,44.619,49.686,43.783,49.686,42.947z"/>
<path fill-rule="evenodd" clip-rule="evenodd" fill="#343434" d="M50.801,42.947c0.093,0,0.186,0,0.279,0c0,0.836,0,1.672,0,2.509
	c-0.093,0-0.186,0-0.279,0C50.801,44.619,50.801,43.783,50.801,42.947z"/>
<path fill-rule="evenodd" clip-rule="evenodd" fill="#343434" d="M55.26,45.456c0.569-0.641,2.315-0.102,3.345-0.279
	C58.037,45.816,56.29,45.277,55.26,45.456z"/>
<path fill-rule="evenodd" clip-rule="evenodd" fill="#D5D5D5" d="M114.069,45.177c0.835,0,1.673,0,2.508,0
	C116.365,45.638,114.279,45.638,114.069,45.177z"/>
<path fill-rule="evenodd" clip-rule="evenodd" fill="#343434" d="M38.259,45.734c0.052-0.413,0.674-0.255,1.115-0.278
	c0,0.092,0,0.186,0,0.278C39.002,45.734,38.63,45.734,38.259,45.734z"/>
<path fill-rule="evenodd" clip-rule="evenodd" fill="#737373" d="M39.374,45.734c0-0.093,0-0.187,0-0.278c1.857,0,3.716,0,5.574,0
	c0,0.092,0,0.186,0,0.278C43.09,45.734,41.231,45.734,39.374,45.734z"/>
<path fill-rule="evenodd" clip-rule="evenodd" fill="#A5A5A5" d="M44.948,45.734c0-0.093,0-0.187,0-0.278c1.301,0,2.602,0,3.902,0
	c0,0.092,0,0.186,0,0.278C47.549,45.734,46.249,45.734,44.948,45.734z"/>
<path fill-rule="evenodd" clip-rule="evenodd" fill="#D5D5D5" d="M48.85,45.734c0-0.093,0-0.187,0-0.278c0.186,0,0.371,0,0.557,0
	c0.093,0,0.186,0,0.279,0c0.372,0,0.743,0,1.115,0c0.093,0,0.186,0,0.279,0c0.464,0,0.929,0,1.394,0
	C51.813,46.097,49.971,45.555,48.85,45.734z"/>
<path fill-rule="evenodd" clip-rule="evenodd" fill="#D5D5D5" d="M41.882,48.243c1.675-0.647,4.55-0.096,6.689-0.279
	c0,0.093,0,0.186,0,0.279C46.342,48.243,44.112,48.243,41.882,48.243z"/>
<path fill-rule="evenodd" clip-rule="evenodd" fill="#A5A5A5" d="M48.571,48.243c0-0.094,0-0.187,0-0.279c0.372,0,0.744,0,1.115,0
	c0,0.093,0,0.186,0,0.279c-0.093,0-0.186,0-0.279,0C49.128,48.243,48.85,48.243,48.571,48.243z"/>
<path fill-rule="evenodd" clip-rule="evenodd" fill="#737373" d="M51.358,48.243c0-0.094,0-0.187,0-0.279c1.486,0,2.973,0,4.459,0
	c0,0.093,0,0.186,0,0.279C54.331,48.243,52.845,48.243,51.358,48.243z"/>
<path fill-rule="evenodd" clip-rule="evenodd" fill="#343434" d="M55.818,48.243c0-0.094,0-0.187,0-0.279c0.929,0,1.857,0,2.787,0
	C58.218,48.6,56.665,48.068,55.818,48.243z"/>
<path fill-rule="evenodd" clip-rule="evenodd" fill="#343434" d="M38.538,48.521c0-0.093,0-0.186,0-0.278c0.372,0,0.743,0,1.115,0
	C39.601,48.655,38.979,48.498,38.538,48.521z"/>
<path fill-rule="evenodd" clip-rule="evenodd" fill="#343434" d="M49.407,48.243c0.093,0,0.186,0,0.279,0c0,0.465,0,0.929,0,1.393
	C49.082,49.684,49.56,48.647,49.407,48.243z"/>
<path fill-rule="evenodd" clip-rule="evenodd" fill="#737373" d="M49.686,48.243c0.372,0,0.743,0,1.115,0
	c0.152,0.404-0.326,1.44,0.279,1.393c0,0.372,0,0.743,0,1.115c-0.465,0-0.929,0-1.394,0c0-0.372,0-0.743,0-1.115
	C49.686,49.172,49.686,48.708,49.686,48.243z"/>
<path fill-rule="evenodd" clip-rule="evenodd" fill="#343434" d="M50.801,48.243c0.093,0,0.186,0,0.279,0c0,0.465,0,0.929,0,1.393
	C50.475,49.684,50.953,48.647,50.801,48.243z"/>
<path fill-rule="evenodd" clip-rule="evenodd" fill="#343434" d="M49.686,50.751c0.465,0,0.929,0,1.394,0
	C51.205,51.207,49.56,51.207,49.686,50.751z"/>
<path fill-rule="evenodd" clip-rule="evenodd" fill="#737373" d="M30.734,33.471c0.809,0.307,1.978,0.252,2.787,0.558
	c-0.477,1.196-0.549,2.796-0.836,4.181c-0.671,0.114-0.605-0.509-1.394-0.278c-0.181-0.284-0.641-0.288-0.557-0.836
	c0.047-1.253,0.221-2.381,0.557-3.345C30.967,33.795,30.795,33.688,30.734,33.471z"/>
<path fill-rule="evenodd" clip-rule="evenodd" fill="#343434" d="M30.734,37.095c-0.084,0.548,0.376,0.552,0.557,0.836
	C30.717,38.175,30.04,37.208,30.734,37.095z"/>
<path fill-rule="evenodd" clip-rule="evenodd" fill="#343434" d="M61.949,47.128c0.252-0.491,0.624-0.862,1.115-1.115
	C62.812,46.505,62.44,46.876,61.949,47.128z"/>
<path fill-rule="evenodd" clip-rule="evenodd" fill="#343434" d="M63.622,44.34c0.067-0.489,0.48-0.634,1.115-0.557
	c0,0.093,0,0.187,0,0.278C64.153,43.944,63.998,44.253,63.622,44.34z"/>
<path fill-rule="evenodd" clip-rule="evenodd" fill="#737373" d="M71.426,11.174c0.581,0.346,1.048,0.81,1.393,1.393
	C72.236,12.222,71.771,11.757,71.426,11.174z"/>
<path fill-rule="evenodd" clip-rule="evenodd" fill="#343434" d="M68.081,7.83c1.232,0.998,2.346,2.114,3.346,3.345
	c-0.366-0.099-0.438-0.491-0.837-0.558C69.919,9.521,68.75,8.926,68.081,7.83z"/>
<path fill-rule="evenodd" clip-rule="evenodd" fill="#D5D5D5" d="M62.228,2.255c2.115,1.695,3.739,3.879,5.853,5.574
	c0.669,1.096,1.839,1.691,2.509,2.787C67.686,7.946,64.899,5.159,62.228,2.255z"/>
<path fill-rule="evenodd" clip-rule="evenodd" fill="#D5D5D5" d="M9.273,9.502c-0.346,0.583-0.811,1.048-1.394,1.393
	C7.859,9.946,8.699,9.857,9.273,9.502z"/>
<path fill-rule="evenodd" clip-rule="evenodd" fill="#737373" d="M9.831,12.567c0.251-0.491,0.623-0.863,1.114-1.115
	C10.693,11.944,10.322,12.315,9.831,12.567z"/>
<path fill-rule="evenodd" clip-rule="evenodd" fill="#343434" d="M121.593,42.947c0.347-0.584,0.812-1.047,1.395-1.394
	C122.641,42.137,122.176,42.602,121.593,42.947z"/>
<path fill-rule="evenodd" clip-rule="evenodd" fill="#D5D5D5" d="M71.705,15.355c-0.575-1.004-1.654-1.504-2.229-2.508
	c0.951,0.719,1.789,1.556,2.508,2.508C71.889,15.355,71.797,15.355,71.705,15.355z"/>
<path fill-rule="evenodd" clip-rule="evenodd" fill="#343434" d="M67.802,11.453c0.733,0.289,0.939,1.105,1.673,1.394
	c0.575,1.004,1.654,1.504,2.229,2.508C70.287,14.171,68.986,12.87,67.802,11.453z"/>
<path fill-rule="evenodd" clip-rule="evenodd" fill="#737373" d="M64.737,8.387c1.139,0.905,2.16,1.927,3.065,3.065
	C66.665,10.548,65.642,9.525,64.737,8.387z"/>
<path fill-rule="evenodd" clip-rule="evenodd" fill="#A5A5A5" d="M63.343,6.994c0.583,0.346,1.046,0.811,1.394,1.394
	C64.153,8.041,63.689,7.577,63.343,6.994z"/>
<path fill-rule="evenodd" clip-rule="evenodd" fill="#737373" d="M60.556,4.207c1.046,0.812,1.975,1.741,2.788,2.787
	C62.297,6.181,61.368,5.252,60.556,4.207z"/>
<path fill-rule="evenodd" clip-rule="evenodd" fill="#343434" d="M34.079,30.405c-0.119,0.582,0.19,0.738,0.278,1.115
	c-0.093,0-0.186,0-0.278,0c-0.217-0.249-0.3-0.629-0.279-1.115C33.892,30.405,33.985,30.405,34.079,30.405z"/>
<path fill-rule="evenodd" clip-rule="evenodd" fill="#343434" d="M33.799,27.061c0.45-0.078,0.48,0.264,0.836,0.278
	c0.024,0.396,0.047,0.79-0.278,0.837c0-0.278,0-0.557,0-0.837C34.033,27.386,33.861,27.278,33.799,27.061z"/>
<path fill-rule="evenodd" clip-rule="evenodd" fill="#737373" d="M44.669,7.551c0.372-0.465,1.239-0.434,1.672-0.836
	c0.065,1.426,1.719,2.939-0.279,3.345c-0.605-0.602-0.788-1.627-1.115-2.508C44.855,7.551,44.763,7.551,44.669,7.551z"/>
<path fill-rule="evenodd" clip-rule="evenodd" fill="#737373" d="M31.849,30.962c0.138-1.534,0.235-3.108,0.836-4.18
	c0.249,0.216,0.629,0.3,1.115,0.278c0.062,0.218,0.233,0.325,0.558,0.278c0,0.28,0,0.559,0,0.837c0.214,1.05-0.34,1.332-0.278,2.229
	c-0.093,0-0.187,0-0.279,0c-0.021,0.486,0.062,0.866,0.279,1.115C33.673,30.996,32.254,31.486,31.849,30.962z"/>
<path fill-rule="evenodd" clip-rule="evenodd" fill="#737373" d="M45.226,4.207c-0.391,0.445-0.96,0.712-1.671,0.836
	c0.114-1.323-0.951-1.465-0.836-2.788c0.671,0.114,0.606-0.509,1.394-0.278C44.328,2.875,44.694,3.624,45.226,4.207z"/>
<path fill-rule="evenodd" clip-rule="evenodd" fill="#737373" d="M20.7,7.272c0.035-0.615,1.182-0.118,1.672-0.278
	C22.338,7.609,21.19,7.112,20.7,7.272z"/>
<path fill-rule="evenodd" clip-rule="evenodd" fill="#343434" d="M107.936,10.895c0.125-0.459,2.105-0.459,2.23,0
	C109.423,10.895,108.679,10.895,107.936,10.895z"/>
<path fill-rule="evenodd" clip-rule="evenodd" fill="#D5D5D5" d="M88.706,16.47c0.649,0,1.301,0,1.951,0c0,0.093,0,0.186,0,0.278
	C90.08,16.583,88.826,17.093,88.706,16.47z"/>
<path fill-rule="evenodd" clip-rule="evenodd" fill="#737373" d="M90.657,16.47c1.208,0,2.414,0,3.622,0
	c-0.659,0.641-2.5,0.1-3.622,0.278C90.657,16.656,90.657,16.563,90.657,16.47z"/>
<path fill-rule="evenodd" clip-rule="evenodd" fill="#737373" d="M82.854,18.699c0.665,0.17,2.021-0.35,2.228,0.279
	C84.417,18.808,83.06,19.328,82.854,18.699z"/>
<path fill-rule="evenodd" clip-rule="evenodd" fill="#737373" d="M121.315,25.667c-0.705-0.224-0.711-1.147-1.115-1.673
	c1.123-0.176,1.408-1.194,2.788-1.115c-0.014,0.477,0.206,0.723,0.557,0.836C123.167,24.731,121.568,24.527,121.315,25.667z"/>
<path fill-rule="evenodd" clip-rule="evenodd" fill="#737373" d="M117.691,25.11c0.509,0.42,0.657,1.202,1.116,1.672
	c-1.179,0.195-2.467,2.22-3.065,0.557C114.9,26.077,117.815,26.545,117.691,25.11z"/>
<path fill-rule="evenodd" clip-rule="evenodd" fill="#737373" d="M55.818,37.931c0.461,0.211,0.461,2.297,0,2.508
	C55.818,39.604,55.818,38.767,55.818,37.931z"/>
<path fill-rule="evenodd" clip-rule="evenodd" fill="#737373" d="M45.226,40.16c2.602,0,5.203,0,7.805,0
	c-2.047,0.647-5.294,0.095-7.805,0.278C45.226,40.347,45.226,40.253,45.226,40.16z"/>
<path fill-rule="evenodd" clip-rule="evenodd" fill="#737373" d="M41.325,40.718c0.035-0.616,1.183-0.118,1.672-0.279
	C42.962,41.055,41.815,40.557,41.325,40.718z"/>
<path fill-rule="evenodd" clip-rule="evenodd" fill="#737373" d="M70.032,41.554c0.667,0.17,2.021-0.35,2.23,0.278
	C71.594,41.662,70.241,42.183,70.032,41.554z"/>
<path fill-rule="evenodd" clip-rule="evenodd" fill="#737373" d="M73.656,41.832c0.665,0.17,2.021-0.349,2.23,0.279
	C75.219,41.941,73.863,42.461,73.656,41.832z"/>
<path fill-rule="evenodd" clip-rule="evenodd" fill="#737373" d="M77.278,42.111c0.668,0.169,2.021-0.35,2.23,0.278
	C78.843,42.22,77.487,42.739,77.278,42.111z"/>
<path fill-rule="evenodd" clip-rule="evenodd" fill="#737373" d="M80.624,42.39c0.666,0.169,2.021-0.35,2.23,0.278
	C82.187,42.499,80.831,43.019,80.624,42.39z"/>
<path fill-rule="evenodd" clip-rule="evenodd" fill="#737373" d="M83.967,42.668c0.668,0.171,2.021-0.35,2.23,0.279
	C85.531,42.777,84.174,43.297,83.967,42.668z"/>
<path fill-rule="evenodd" clip-rule="evenodd" fill="#737373" d="M42.997,43.227c-0.047-0.605,0.988-0.127,1.394-0.279
	c0,0.093,0,0.186,0,0.279C43.926,43.227,43.461,43.227,42.997,43.227z"/>
<path fill-rule="evenodd" clip-rule="evenodd" fill="#737373" d="M87.589,42.947c0.668,0.17,2.023-0.351,2.23,0.279
	C89.155,43.056,87.798,43.576,87.589,42.947z"/>
<path fill-rule="evenodd" clip-rule="evenodd" fill="#737373" d="M90.935,43.227c0.666,0.169,2.021-0.351,2.23,0.278
	C92.499,43.334,91.144,43.854,90.935,43.227z"/>
<path fill-rule="evenodd" clip-rule="evenodd" fill="#737373" d="M94.279,43.505c0.668,0.17,2.023-0.35,2.23,0.278
	C95.844,43.614,94.488,44.133,94.279,43.505z"/>
<path fill-rule="evenodd" clip-rule="evenodd" fill="#737373" d="M64.737,43.783c0.404,0.153,1.44-0.325,1.393,0.278
	c-0.464,0-0.928,0-1.393,0C64.737,43.97,64.737,43.876,64.737,43.783z"/>
<path fill-rule="evenodd" clip-rule="evenodd" fill="#737373" d="M97.625,43.783c0.665,0.17,2.021-0.35,2.23,0.278
	C99.188,43.893,97.832,44.412,97.625,43.783z"/>
<path fill-rule="evenodd" clip-rule="evenodd" fill="#737373" d="M67.524,44.062c0.757,0.174,2.212-0.354,2.508,0.278
	C69.275,44.168,67.82,44.694,67.524,44.062z"/>
<path fill-rule="evenodd" clip-rule="evenodd" fill="#737373" d="M101.247,44.062c0.577,0.166,1.832-0.344,1.952,0.278
	C102.622,44.175,101.368,44.686,101.247,44.062z"/>
<path fill-rule="evenodd" clip-rule="evenodd" fill="#737373" d="M71.146,44.34c0.757,0.174,2.214-0.354,2.51,0.279
	C72.899,44.447,71.442,44.974,71.146,44.34z"/>
<path fill-rule="evenodd" clip-rule="evenodd" fill="#737373" d="M104.592,44.34c0.577,0.167,1.831-0.344,1.952,0.279
	C105.965,44.453,104.713,44.964,104.592,44.34z"/>
<path fill-rule="evenodd" clip-rule="evenodd" fill="#737373" d="M74.77,44.619c0.757,0.173,2.212-0.354,2.508,0.279
	C76.523,44.726,75.067,45.252,74.77,44.619z"/>
<path fill-rule="evenodd" clip-rule="evenodd" fill="#737373" d="M107.936,44.619c0.668,0.17,2.021-0.35,2.23,0.279
	C109.501,44.729,108.145,45.249,107.936,44.619z"/>
<path fill-rule="evenodd" clip-rule="evenodd" fill="#737373" d="M78.394,44.898c0.665,0.17,2.021-0.35,2.229,0.278
	C79.957,45.007,78.6,45.527,78.394,44.898z"/>
<path fill-rule="evenodd" clip-rule="evenodd" fill="#737373" d="M111.282,44.898c0.665,0.17,2.021-0.35,2.23,0.278
	C112.845,45.007,111.489,45.527,111.282,44.898z"/>
<path fill-rule="evenodd" clip-rule="evenodd" fill="#737373" d="M81.738,45.177c0.667,0.17,2.021-0.35,2.229,0.279
	C83.3,45.286,81.946,45.806,81.738,45.177z"/>
<path fill-rule="evenodd" clip-rule="evenodd" fill="#737373" d="M85.362,45.456c0.665,0.169,2.021-0.351,2.228,0.278
	C86.924,45.564,85.569,46.084,85.362,45.456z"/>
<path fill-rule="evenodd" clip-rule="evenodd" fill="#737373" d="M35.75,46.013c0.035-0.615,1.183-0.118,1.672-0.278
	C37.388,46.35,36.24,45.853,35.75,46.013z"/>
<path fill-rule="evenodd" clip-rule="evenodd" fill="#737373" d="M88.706,45.734c0.665,0.17,2.021-0.35,2.229,0.278
	C90.268,45.843,88.914,46.362,88.706,45.734z"/>
<path fill-rule="evenodd" clip-rule="evenodd" fill="#737373" d="M92.049,46.013c0.667,0.171,2.023-0.35,2.229,0.278
	C93.614,46.122,92.257,46.641,92.049,46.013z"/>
<path fill-rule="evenodd" clip-rule="evenodd" fill="#737373" d="M95.395,46.291c0.755,0.173,2.212-0.354,2.509,0.279
	C97.146,46.397,95.692,46.925,95.395,46.291z"/>
<path fill-rule="evenodd" clip-rule="evenodd" fill="#737373" d="M28.504,46.85c0.035-0.616,1.183-0.118,1.672-0.279
	C30.142,47.186,28.994,46.689,28.504,46.85z"/>
<path fill-rule="evenodd" clip-rule="evenodd" fill="#737373" d="M99.017,46.57c0.667,0.17,2.023-0.349,2.229,0.279
	C100.582,46.679,99.226,47.199,99.017,46.57z"/>
<path fill-rule="evenodd" clip-rule="evenodd" fill="#737373" d="M102.363,46.85c0.665,0.169,2.021-0.35,2.229,0.278
	C103.925,46.959,102.569,47.478,102.363,46.85z"/>
<path fill-rule="evenodd" clip-rule="evenodd" fill="#737373" d="M23.766,47.406c0.035-0.616,1.183-0.118,1.672-0.278
	C25.404,47.744,24.256,47.246,23.766,47.406z"/>
<path fill-rule="evenodd" clip-rule="evenodd" fill="#737373" d="M105.707,47.128c0.667,0.169,2.021-0.35,2.229,0.278
	C107.271,47.237,105.915,47.757,105.707,47.128z"/>
<path fill-rule="evenodd" clip-rule="evenodd" fill="#A5A5A5" d="M21.536,47.406c0.464,0,0.929,0,1.394,0
	C23.055,47.862,21.411,47.862,21.536,47.406z"/>
<path fill-rule="evenodd" clip-rule="evenodd" fill="#737373" d="M109.052,47.406c0.665,0.17,2.021-0.35,2.229,0.279
	C110.615,47.516,109.258,48.035,109.052,47.406z"/>
<path fill-rule="evenodd" clip-rule="evenodd" fill="#A5A5A5" d="M114.347,47.686c1.021,0,2.044,0,3.065,0
	c-0.477,0.638-2.128,0.103-3.065,0.278C114.347,47.871,114.347,47.778,114.347,47.686z"/>
<path fill-rule="evenodd" clip-rule="evenodd" fill="#D5D5D5" d="M49.686,47.964c0.557,0,1.115,0,1.672,0c0,0.093,0,0.186,0,0.279
	c-0.093,0-0.186,0-0.279,0s-0.186,0-0.279,0c-0.372,0-0.743,0-1.115,0C49.686,48.149,49.686,48.057,49.686,47.964z"/>
<path fill-rule="evenodd" clip-rule="evenodd" fill="#A5A5A5" d="M37.422,48.521c0.086-0.378,0.698-0.231,1.115-0.278
	c0,0.093,0,0.186,0,0.278C38.166,48.521,37.795,48.521,37.422,48.521z"/>
<path fill-rule="evenodd" clip-rule="evenodd" fill="#737373" d="M32.406,49.079c0.034-0.616,1.182-0.118,1.672-0.279
	C34.044,49.416,32.896,48.919,32.406,49.079z"/>
<path fill-rule="evenodd" clip-rule="evenodd" fill="#737373" d="M30.176,49.357c0.035-0.616,1.182-0.118,1.672-0.278
	C31.814,49.694,30.666,49.197,30.176,49.357z"/>
<path fill-rule="evenodd" clip-rule="evenodd" fill="#737373" d="M27.667,49.636c0.035-0.615,1.183-0.118,1.673-0.278
	C29.306,49.974,28.158,49.476,27.667,49.636z"/>
<path fill-rule="evenodd" clip-rule="evenodd" fill="#737373" d="M22.93,50.194c0.035-0.616,1.182-0.119,1.672-0.278
	C24.567,50.53,23.42,50.034,22.93,50.194z"/>
<path fill-rule="evenodd" clip-rule="evenodd" fill="#FFFFFF" d="M45.226,4.207c2.05-1.166,5.745-2.817,8.919-3.624
	c3.842-0.976,6.387-0.918,8.082,1.672c2.671,2.903,5.458,5.69,8.362,8.361c0.398,0.067,0.471,0.459,0.837,0.558
	c0.345,0.583,0.81,1.047,1.393,1.393c2.729,2.475,7.408,2.997,11.984,3.624c0.12,0.624,1.374,0.113,1.951,0.279
	c0.465,0,0.93,0,1.395,0c0.187,0,0.37,0,0.557,0c0.12,0.623,1.374,0.113,1.951,0.278c1.122-0.179,2.963,0.363,3.622-0.278
	c5.483-0.929,7.752-5.07,13.657-5.575c0.743,0,1.487,0,2.23,0c0.44,0.024,1.063-0.134,1.115,0.279
	c2.683,0.854,3.723,3.678,5.017,5.853c1.366,2.299,2.777,4.618,3.901,6.967c0.404,0.525,0.41,1.449,1.115,1.673
	c1.903,3.669,4.396,6.753,6.131,10.591c0,0.743,0,1.486,0,2.229c-1.437,4.972-4.512,8.309-10.033,9.197c-1.021,0-2.044,0-3.065,0
	c-0.651,0-1.3,0-1.951,0c-0.371,0-0.743,0-1.114,0c-0.208-0.629-1.564-0.109-2.229-0.279c-0.373,0-0.743,0-1.116,0
	c-0.208-0.628-1.563-0.109-2.229-0.278c-0.37,0-0.743,0-1.114,0c-0.208-0.628-1.564-0.109-2.229-0.278c-0.372,0-0.743,0-1.116,0
	c-0.206-0.628-1.563-0.109-2.229-0.279c-0.37,0-0.743,0-1.113,0c-0.297-0.633-1.754-0.106-2.509-0.279c-0.373,0-0.743,0-1.116,0
	c-0.206-0.628-1.563-0.107-2.229-0.278c-0.37,0-0.743,0-1.114,0c-0.208-0.628-1.564-0.108-2.229-0.278c-0.37,0-0.743,0-1.116,0
	c-0.206-0.629-1.563-0.109-2.228-0.278c-0.465,0-0.93,0-1.395,0c-0.208-0.629-1.563-0.109-2.229-0.279c-0.37,0-0.743,0-1.114,0
	c-0.208-0.628-1.564-0.108-2.229-0.278c-0.372,0-0.743,0-1.116,0c-0.296-0.633-1.751-0.106-2.508-0.279c-0.371,0-0.743,0-1.114,0
	c-0.296-0.633-1.753-0.105-2.51-0.279c-0.371,0-0.741,0-1.114,0c-0.296-0.632-1.751-0.104-2.508-0.278c-0.465,0-0.93,0-1.395,0
	c0.048-0.604-0.988-0.125-1.393-0.278c-0.635-0.077-1.048,0.067-1.115,0.557c-0.092,0.652-0.335,1.152-0.558,1.673
	c-0.491,0.253-0.863,0.624-1.115,1.115c-0.417,0.326-1.14,0.347-1.394,0.836c-0.65,0-1.3,0-1.951,0c-0.93,0-1.858,0-2.787,0
	c-1.487,0-2.973,0-4.459,0c-0.558,0-1.115,0-1.672,0c-0.371,0-0.743,0-1.115,0c-2.139,0.184-5.014-0.368-6.689,0.279
	c-0.744,0-1.487,0-2.23,0c-0.372,0-0.743,0-1.115,0c-0.417,0.047-1.029-0.1-1.115,0.278c-1.018,0.189-2.026,0.39-3.344,0.278
	c-0.491,0.161-1.638-0.337-1.672,0.279c-0.186,0-0.372,0-0.558,0c-0.49,0.16-1.638-0.338-1.672,0.278c-0.279,0-0.558,0-0.836,0
	c-0.49,0.16-1.638-0.337-1.673,0.278c-0.977,0.138-1.813,0.416-3.066,0.28c-0.49,0.159-1.637-0.338-1.672,0.278
	c-2.074,0.122-3.682-0.221-3.902-1.951c0-0.837,0-1.673,0-2.509c0-0.278,0-0.558,0-0.836c2.833-2.123,6.972-1.896,10.87-2.509
	c3.754-0.589,7.619-1.629,11.427-1.672c0.49-0.161,1.637,0.337,1.672-0.279c0.372,0,0.743,0,1.115,0c0.372,0,0.743,0,1.114,0
	c2.511-0.184,5.758,0.369,7.805-0.278c-0.177-0.256,0.273-0.238,0.279-0.278c0.319-2.161-1.531-2.336-3.624-2.787
	c-5.063-1.093-11.177-1.849-16.165-3.066c-0.81-0.306-1.979-0.251-2.787-0.558c-5.007-0.497-11.319-2.052-17.001-3.065
	c-2.792-0.499-5.8-0.818-8.361-1.673c-2.699-0.899-4.899-2.156-5.295-4.738c-0.488-3.177,1.483-5.42,3.065-7.525
	c1.541-2.049,2.99-4.097,4.738-5.575c0.583-0.345,1.048-0.81,1.394-1.393c0.854-1.266,2.679-1.869,4.459-2.787
	c2.051-1.058,4.126-2.398,7.804-2.229c2.137,0,4.274,0,6.411,0c3.369,0.161,5.67,1.39,8.64,1.95c0.212,0.461,2.296,0.461,2.508,0
	c1.644-0.308,2.996-0.905,4.46-1.393C44.266,4.918,44.835,4.652,45.226,4.207z M56.932,2.813c-3.828,1.003-7.34,2.321-10.59,3.902
	c-0.433,0.403-1.301,0.372-1.672,0.836c-3.171,2.012-7.862,1.933-11.148,1.114c-1.781-0.443-3.157-1.123-4.459-1.394
	c-0.941-0.196-1.977,0.063-2.788-0.278c-0.3-0.461-2.486-0.461-2.787,0c-0.372,0-0.743,0-1.115,0
	c-0.49,0.16-1.638-0.337-1.672,0.278c-4.114,0.532-6.768,2.523-9.755,4.181c-0.491,0.252-0.863,0.624-1.114,1.115
	c-1.219,1.637-2.383,3.032-3.902,5.017c-1.117,1.459-3.454,3.667-3.066,5.853c0.501,2.818,6.458,3.389,9.477,3.901
	c6.455,1.1,14.384,2.674,19.51,3.623c0.405,0.524,1.824,0.034,2.23,0.559c0.092,0,0.186,0,0.278,0
	c3.477,0.28,9.018,1.615,12.542,2.229c3.86,0.672,8.571,0.759,8.919,4.181c0,0.836,0,1.673,0,2.508
	c-0.106,2.31-2.169,2.663-4.738,2.509c-0.093,0-0.186,0-0.279,0c-0.372,0-0.743,0-1.115,0c-0.093,0-0.186,0-0.279,0
	c-0.372,0-0.743,0-1.115,0c0.126-0.455-1.519-0.455-1.394,0c-0.464,0-0.929,0-1.393,0c-0.372,0-0.743,0-1.115,0
	c-0.405,0.152-1.441-0.326-1.394,0.279c-3.003,0.294-6.714,1.028-10.87,1.672c-2.405,0.372-5.998,0.654-8.361,1.114
	c-1.193,0.232-2.563,0.138-2.229,1.394c-0.125,0.456,1.519,0.456,1.394,0c0.279,0,0.558,0,0.836,0
	c0.491-0.16,1.638,0.338,1.672-0.278c0.978-0.138,1.814-0.416,3.066-0.278c0.49-0.16,1.638,0.336,1.672-0.279
	c1.816-0.228,3.451-0.638,5.574-0.558c0.49-0.16,1.638,0.337,1.672-0.278c0.279,0,0.558,0,0.836,0c0.372,0,0.744,0,1.115,0
	c1.857,0,3.716,0,5.574,0c1.301,0,2.602,0,3.902,0c1.121-0.18,2.963,0.362,3.623-0.278c0.929,0,1.858,0,2.787,0
	c1.03-0.179,2.777,0.36,3.345-0.279c3.338,0.273,1.833-4.299,5.295-3.902c0.372,0,0.743,0,1.115,0c0.371,0,0.743,0,1.114,0
	c0.297,0.634,1.753,0.106,2.508,0.279c0.465,0,0.93,0,1.395,0c0.209,0.629,1.563,0.108,2.23,0.278c0.464,0,0.929,0,1.394,0
	c0.207,0.629,1.563,0.109,2.23,0.279c0.463,0,0.928,0,1.392,0c0.209,0.628,1.565,0.108,2.23,0.278c0.37,0,0.743,0,1.115,0
	c0.207,0.629,1.563,0.109,2.23,0.278c0.37,0,0.743,0,1.113,0c0.207,0.629,1.563,0.109,2.23,0.279c0.465,0,0.928,0,1.392,0
	c0.209,0.629,1.565,0.108,2.23,0.279c0.372,0,0.745,0,1.115,0c0.209,0.628,1.563,0.107,2.23,0.278c0.37,0,0.743,0,1.113,0
	c0.209,0.628,1.565,0.109,2.23,0.278c0.372,0,0.743,0,1.115,0c0.207,0.629,1.563,0.109,2.23,0.278c0.465,0,0.928,0,1.392,0
	c0.121,0.624,1.375,0.113,1.952,0.278c0.465,0,0.929,0,1.394,0c0.121,0.624,1.373,0.113,1.952,0.279c0.462,0,0.927,0,1.392,0
	c0.209,0.63,1.565,0.109,2.23,0.279c0.372,0,0.743,0,1.115,0c0.207,0.629,1.563,0.108,2.23,0.278c0.184,0,0.37,0,0.557,0
	c0.21,0.461,2.296,0.461,2.508,0c1.945-0.469,3.538-1.292,5.017-2.229c0.583-0.346,1.048-0.811,1.395-1.394
	c0.615-1.428,1.49-2.598,1.949-4.181c-1.895-3.678-4.381-6.767-6.13-10.591c-0.459-0.471-0.607-1.252-1.116-1.672
	c-1.576-2.82-4.041-6.829-5.573-9.477c-1.04-1.794-2.446-2.479-4.738-1.951c-1.721,0.397-2.412,1.03-3.624,1.672
	c-0.619,0.33-1.366,0.498-1.949,0.836c-1.218,0.703-2.3,1.712-3.624,2.229c-2.148,0.84-4.424,0.919-7.247,0.836
	c-0.12-0.623-1.374-0.113-1.951-0.278c-0.37,0-0.743,0-1.113,0c-0.465,0-0.93,0-1.395,0s-0.93,0-1.395,0
	c-0.206-0.628-1.563-0.109-2.228-0.279c-4.161-0.113-7.093-1.457-10.313-2.508c-0.066-0.398-0.459-0.47-0.558-0.836
	c-0.719-0.953-1.557-1.789-2.508-2.508c-0.733-0.289-0.939-1.105-1.673-1.394c-0.905-1.138-1.927-2.16-3.065-3.065
	c-0.347-0.583-0.811-1.047-1.394-1.394c-0.813-1.046-1.742-1.975-2.788-2.787c-0.664-0.451-1.229-1.001-1.951-1.394
	C58.65,2.356,56.887,2.356,56.932,2.813z"/>
<path fill-rule="evenodd" clip-rule="evenodd" fill="#D5D5D5" d="M21.536,4.485c1.492-0.464,4.919-0.464,6.411,0
	C25.81,4.485,23.673,4.485,21.536,4.485z"/>
<path fill-rule="evenodd" clip-rule="evenodd" fill="#D5D5D5" d="M88.984,18.978c0.577,0.166,1.831-0.344,1.951,0.278
	c-0.65,0-1.3,0-1.951,0C88.984,19.164,88.984,19.071,88.984,18.978z"/>
<path fill-rule="evenodd" clip-rule="evenodd" fill="#737373" d="M56.932,2.813c-0.045-0.457,1.718-0.457,1.673,0
	C58.047,2.813,57.49,2.813,56.932,2.813z"/>
<path fill-rule="evenodd" clip-rule="evenodd" fill="#737373" d="M36.586,6.436c0.836,0,1.672,0,2.508,0
	C38.883,6.896,36.798,6.896,36.586,6.436z"/>
<path fill-rule="evenodd" clip-rule="evenodd" fill="#737373" d="M84.803,16.191c0.651,0,1.302,0,1.951,0c0,0.093,0,0.186,0,0.279
	C86.177,16.304,84.923,16.814,84.803,16.191z"/>
<path fill-rule="evenodd" clip-rule="evenodd" fill="#A5A5A5" d="M127.446,36.259c0.461,0.123,0.461,2.105,0,2.229
	C127.446,37.745,127.446,37.002,127.446,36.259z"/>
<path fill-rule="evenodd" clip-rule="evenodd" fill="#737373" d="M66.129,41.274c0.757,0.173,2.214-0.354,2.508,0.279
	C67.882,41.381,66.426,41.908,66.129,41.274z"/>
<path fill-rule="evenodd" clip-rule="evenodd" fill="#A5A5A5" d="M19.028,45.734c0,0.836,0,1.672,0,2.509
	C18.567,48.031,18.567,45.946,19.028,45.734z"/>
<path fill-rule="evenodd" clip-rule="evenodd" fill="#737373" d="M112.396,47.686c0.651,0,1.3,0,1.951,0c0,0.093,0,0.186,0,0.278
	C113.77,47.798,112.516,48.309,112.396,47.686z"/>
</svg>
