<?xml version="1.0" encoding="utf-8"?>
<!-- Generator: Adobe Illustrator 15.0.0, SVG Export Plug-In  -->
<!DOCTYPE svg PUBLIC "-//W3C//DTD SVG 1.1//EN" "http://www.w3.org/Graphics/SVG/1.1/DTD/svg11.dtd" [
	<!ENTITY ns_flows "http://ns.adobe.com/Flows/1.0/">
]>
<svg version="1.1"
	 xmlns="http://www.w3.org/2000/svg" xmlns:xlink="http://www.w3.org/1999/xlink" xmlns:a="http://ns.adobe.com/AdobeSVGViewerExtensions/3.0/"
	 x="0px" y="0px" width="142px" height="142px" viewBox="-7.457 -45.797 142 142" enable-background="new -7.457 -45.797 142 142"
	 xml:space="preserve">
<defs>
</defs>
<path fill-rule="evenodd" clip-rule="evenodd" fill="#767676" d="M57.204,2.821c-0.2-0.452,1.314-0.452,1.115,0
	C57.947,2.821,57.576,2.821,57.204,2.821z"/>
<path fill-rule="evenodd" clip-rule="evenodd" fill="#767676" d="M38.53,6.444c0.046,0.458-1.718,0.458-1.672,0
	C37.415,6.444,37.973,6.444,38.53,6.444z"/>
<path fill-rule="evenodd" clip-rule="evenodd" fill="#181818" d="M37.137,9.231c0.372,0,0.743,0,1.115,0
	C38.451,9.684,36.938,9.684,37.137,9.231z"/>
<path fill-rule="evenodd" clip-rule="evenodd" fill="#333333" d="M93.158,13.969c-0.126-0.455,1.519-0.455,1.393,0
	C94.086,13.969,93.623,13.969,93.158,13.969z"/>
<path fill-rule="evenodd" clip-rule="evenodd" fill="#BCBCBC" d="M84.239,16.199c0.37,0,0.743,0,1.115,0c0,0.093,0,0.186,0,0.279
	C84.936,16.431,84.325,16.578,84.239,16.199z"/>
<path fill-rule="evenodd" clip-rule="evenodd" fill="#767676" d="M85.354,16.478c0-0.093,0-0.186,0-0.279c0.465,0,0.928,0,1.393,0
	c0,0.093,0,0.186,0,0.279C86.282,16.478,85.819,16.478,85.354,16.478z"/>
<path fill-rule="evenodd" clip-rule="evenodd" fill="#BCBCBC" d="M88.977,16.478c0.465,0,0.93,0,1.395,0c0,0.093,0,0.186,0,0.278
	C89.967,16.604,88.931,17.082,88.977,16.478z"/>
<path fill-rule="evenodd" clip-rule="evenodd" fill="#BCBCBC" d="M93.437,16.756c0.052-0.412,0.673-0.255,1.114-0.278
	C94.5,16.891,93.877,16.733,93.437,16.756z"/>
<path fill-rule="evenodd" clip-rule="evenodd" fill="#767676" d="M87.863,19.265c0-0.093,0-0.185,0-0.278c0.465,0,0.928,0,1.392,0
	c0,0.093,0,0.186,0,0.278C88.791,19.265,88.328,19.265,87.863,19.265z"/>
<path fill-rule="evenodd" clip-rule="evenodd" fill="#BCBCBC" d="M89.255,19.265c0-0.093,0-0.185,0-0.278
	c0.405,0.153,1.44-0.326,1.395,0.278C90.185,19.265,89.72,19.265,89.255,19.265z"/>
<path fill-rule="evenodd" clip-rule="evenodd" fill="#181818" d="M91.485,19.265c0.743,0,1.486,0,2.229,0c0,0.093,0,0.186,0,0.279
	C93.048,19.374,91.693,19.894,91.485,19.265z"/>
<path fill-rule="evenodd" clip-rule="evenodd" fill="#BCBCBC" d="M2.855,22.331c0,0.372,0,0.743,0,1.115
	C2.403,23.645,2.403,22.131,2.855,22.331z"/>
<path fill-rule="evenodd" clip-rule="evenodd" fill="#181818" d="M44.104,40.447c2.324-0.648,5.852-0.093,8.64-0.278
	C50.42,40.816,46.893,40.262,44.104,40.447z"/>
<path fill-rule="evenodd" clip-rule="evenodd" fill="#181818" d="M41.039,40.726c-0.047-0.604,0.988-0.127,1.393-0.279
	C42.479,41.052,41.443,40.574,41.039,40.726z"/>
<path fill-rule="evenodd" clip-rule="evenodd" fill="#181818" d="M39.087,41.004c0.086-0.378,0.698-0.231,1.115-0.278
	C40.151,41.139,39.529,40.982,39.087,41.004z"/>
<path fill-rule="evenodd" clip-rule="evenodd" fill="#181818" d="M35.186,41.562c0.086-0.379,0.698-0.23,1.115-0.279
	C36.249,41.696,35.627,41.539,35.186,41.562z"/>
<path fill-rule="evenodd" clip-rule="evenodd" fill="#BCBCBC" d="M65.286,41.283c0.465,0,0.93,0,1.395,0c0,0.094,0,0.187,0,0.279
	C66.274,41.41,65.239,41.888,65.286,41.283z"/>
<path fill-rule="evenodd" clip-rule="evenodd" fill="#767676" d="M66.681,41.562c0-0.093,0-0.186,0-0.279c0.371,0,0.743,0,1.114,0
	c0,0.094,0,0.187,0,0.279C67.424,41.562,67.052,41.562,66.681,41.562z"/>
<path fill-rule="evenodd" clip-rule="evenodd" fill="#767676" d="M71.419,41.84c-0.442-0.022-1.063,0.134-1.116-0.278
	c0.373,0,0.744,0,1.116,0C71.419,41.655,71.419,41.748,71.419,41.84z"/>
<path fill-rule="evenodd" clip-rule="evenodd" fill="#767676" d="M75.041,42.12c-0.44-0.023-1.063,0.133-1.113-0.279
	c0.37,0,0.743,0,1.113,0C75.041,41.933,75.041,42.027,75.041,42.12z"/>
<path fill-rule="evenodd" clip-rule="evenodd" fill="#767676" d="M78.665,42.398c-0.442-0.022-1.063,0.135-1.115-0.278
	c0.372,0,0.743,0,1.115,0C78.665,42.212,78.665,42.306,78.665,42.398z"/>
<path fill-rule="evenodd" clip-rule="evenodd" fill="#767676" d="M108.767,42.12c0.463,0,0.928,0,1.393,0c0,0.278,0,0.557,0,0.836
	c-0.623,0.12-0.112,1.374-0.278,1.951c-0.093,0-0.187,0-0.279,0c-0.046-0.325-0.44-0.303-0.835-0.279c0-0.649,0-1.301,0-1.951
	C108.767,42.492,108.767,42.306,108.767,42.12z"/>
<path fill-rule="evenodd" clip-rule="evenodd" fill="#181818" d="M27.939,42.676c0.086-0.377,0.697-0.23,1.115-0.278
	C29.002,42.811,28.381,42.654,27.939,42.676z"/>
<path fill-rule="evenodd" clip-rule="evenodd" fill="#181818" d="M26.267,42.956c0.087-0.378,0.698-0.23,1.115-0.279
	C27.33,43.089,26.708,42.932,26.267,42.956z"/>
<path fill-rule="evenodd" clip-rule="evenodd" fill="#181818" d="M43.547,43.235c0.207-0.63,1.563-0.109,2.229-0.279
	C45.57,43.584,44.214,43.064,43.547,43.235z"/>
<path fill-rule="evenodd" clip-rule="evenodd" fill="#767676" d="M88.977,43.235c-0.44-0.024-1.063,0.133-1.113-0.279
	c0.37,0,0.743,0,1.113,0C88.977,43.048,88.977,43.141,88.977,43.235z"/>
<path fill-rule="evenodd" clip-rule="evenodd" fill="#181818" d="M40.76,43.513c-0.047-0.604,0.989-0.126,1.394-0.278
	C42.2,43.838,41.165,43.361,40.76,43.513z"/>
<path fill-rule="evenodd" clip-rule="evenodd" fill="#181818" d="M38.809,43.792c0.052-0.413,0.673-0.256,1.114-0.278
	C39.872,43.925,39.25,43.768,38.809,43.792z"/>
<path fill-rule="evenodd" clip-rule="evenodd" fill="#181818" d="M36.858,44.07c0.052-0.411,0.673-0.255,1.115-0.278
	C37.921,44.205,37.299,44.047,36.858,44.07z"/>
<path fill-rule="evenodd" clip-rule="evenodd" fill="#767676" d="M68.352,44.348c0-0.092,0-0.185,0-0.278
	c0.417,0.048,1.03-0.099,1.116,0.278C69.095,44.348,68.725,44.348,68.352,44.348z"/>
<path fill-rule="evenodd" clip-rule="evenodd" fill="#181818" d="M33.235,44.627c0.051-0.412,0.673-0.255,1.114-0.279
	C34.298,44.762,33.676,44.605,33.235,44.627z"/>
<path fill-rule="evenodd" clip-rule="evenodd" fill="#767676" d="M71.976,44.627c0-0.093,0-0.186,0-0.279
	c0.417,0.048,1.028-0.099,1.114,0.279C72.719,44.627,72.347,44.627,71.976,44.627z"/>
<path fill-rule="evenodd" clip-rule="evenodd" fill="#767676" d="M75.598,44.907c0-0.093,0-0.186,0-0.279
	c0.417,0.048,1.03-0.099,1.116,0.279C76.342,44.907,75.971,44.907,75.598,44.907z"/>
<path fill-rule="evenodd" clip-rule="evenodd" fill="#BCBCBC" d="M107.372,44.627c0.371,0,0.743,0,1.114,0c0.094,0,0.186,0,0.28,0
	c0.395-0.023,0.789-0.046,0.835,0.279C108.935,44.737,107.58,45.257,107.372,44.627z"/>
<path fill-rule="evenodd" clip-rule="evenodd" fill="#181818" d="M29.611,45.185c0.052-0.413,0.674-0.256,1.115-0.278
	C30.675,45.319,30.053,45.162,29.611,45.185z"/>
<path fill-rule="evenodd" clip-rule="evenodd" fill="#181818" d="M27.939,45.464c0.051-0.413,0.673-0.257,1.115-0.279
	C29.002,45.597,28.381,45.44,27.939,45.464z"/>
<path fill-rule="evenodd" clip-rule="evenodd" fill="#181818" d="M54.417,45.464c1.028-0.646,3.248-0.098,4.738-0.279
	C58.127,45.83,55.908,45.282,54.417,45.464z"/>
<path fill-rule="evenodd" clip-rule="evenodd" fill="#767676" d="M82.566,45.464c0-0.093,0-0.187,0-0.279
	c0.416,0.048,1.029-0.1,1.115,0.279C83.31,45.464,82.938,45.464,82.566,45.464z"/>
<path fill-rule="evenodd" clip-rule="evenodd" fill="#BCBCBC" d="M114.34,45.185c0.651,0,1.301,0,1.951,0
	C116.253,45.645,114.378,45.645,114.34,45.185z"/>
<path fill-rule="evenodd" clip-rule="evenodd" fill="#181818" d="M38.251,45.743c2.046-0.648,5.294-0.094,7.804-0.278
	C44.009,46.112,40.761,45.558,38.251,45.743z"/>
<path fill-rule="evenodd" clip-rule="evenodd" fill="#181818" d="M35.464,46.021c-0.046-0.604,0.989-0.126,1.394-0.278
	C36.905,46.347,35.869,45.869,35.464,46.021z"/>
<path fill-rule="evenodd" clip-rule="evenodd" fill="#181818" d="M22.644,46.299c0.052-0.411,0.674-0.255,1.115-0.278
	C23.707,46.434,23.085,46.277,22.644,46.299z"/>
<path fill-rule="evenodd" clip-rule="evenodd" fill="#181818" d="M33.235,46.299c0.051-0.411,0.673-0.255,1.114-0.278
	C34.298,46.434,33.676,46.277,33.235,46.299z"/>
<path fill-rule="evenodd" clip-rule="evenodd" fill="#181818" d="M30.727,46.579c-0.047-0.604,0.988-0.126,1.393-0.279
	C32.167,46.905,31.131,46.426,30.727,46.579z"/>
<path fill-rule="evenodd" clip-rule="evenodd" fill="#767676" d="M96.224,46.579c0-0.093,0-0.186,0-0.279
	c0.416,0.049,1.027-0.099,1.115,0.279C96.967,46.579,96.596,46.579,96.224,46.579z"/>
<path fill-rule="evenodd" clip-rule="evenodd" fill="#181818" d="M28.497,46.858c0.052-0.413,0.674-0.256,1.115-0.279
	C29.56,46.992,28.938,46.834,28.497,46.858z"/>
<path fill-rule="evenodd" clip-rule="evenodd" fill="#181818" d="M25.988,47.136c-0.047-0.605,0.988-0.126,1.394-0.278
	C27.429,47.461,26.394,46.984,25.988,47.136z"/>
<path fill-rule="evenodd" clip-rule="evenodd" fill="#181818" d="M23.758,47.415c0.052-0.413,0.674-0.255,1.115-0.278
	C24.821,47.549,24.2,47.391,23.758,47.415z"/>
<path fill-rule="evenodd" clip-rule="evenodd" fill="#BCBCBC" d="M110.716,47.694c0-0.093,0-0.187,0-0.279
	c0.417,0.048,1.029-0.099,1.116,0.279C111.459,47.694,111.089,47.694,110.716,47.694z"/>
<path fill-rule="evenodd" clip-rule="evenodd" fill="#767676" d="M113.224,47.972c0-0.093,0-0.186,0-0.278c0.465,0,0.93,0,1.395,0
	c0,0.093,0,0.186,0,0.278C114.153,47.972,113.688,47.972,113.224,47.972z"/>
<path fill-rule="evenodd" clip-rule="evenodd" fill="#181818" d="M51.072,48.251c2.046-0.648,5.293-0.095,7.804-0.279
	C56.83,48.621,53.583,48.067,51.072,48.251z"/>
<path fill-rule="evenodd" clip-rule="evenodd" fill="#181818" d="M37.694,48.53c0.297-0.633,1.752-0.106,2.509-0.278
	C39.906,48.883,38.451,48.357,37.694,48.53z"/>
<path fill-rule="evenodd" clip-rule="evenodd" fill="#181818" d="M35.186,48.808c-0.047-0.604,0.989-0.125,1.394-0.278
	C36.626,49.134,35.591,48.656,35.186,48.808z"/>
<path fill-rule="evenodd" clip-rule="evenodd" fill="#181818" d="M32.956,49.087c0.052-0.413,0.674-0.256,1.115-0.279
	C33.984,49.187,33.373,49.041,32.956,49.087z"/>
<path fill-rule="evenodd" clip-rule="evenodd" fill="#181818" d="M30.448,49.366c-0.047-0.604,0.988-0.126,1.394-0.278
	C31.888,49.692,30.853,49.213,30.448,49.366z"/>
<path fill-rule="evenodd" clip-rule="evenodd" fill="#181818" d="M28.218,49.644c0.051-0.412,0.673-0.255,1.115-0.278
	C29.247,49.745,28.635,49.597,28.218,49.644z"/>
<path fill-rule="evenodd" clip-rule="evenodd" fill="#181818" d="M25.71,49.924c-0.047-0.605,0.988-0.128,1.393-0.28
	C27.15,50.25,26.115,49.771,25.71,49.924z"/>
<path fill-rule="evenodd" clip-rule="evenodd" fill="#181818" d="M23.48,50.203c0.052-0.413,0.673-0.257,1.114-0.278
	C24.508,50.301,23.897,50.154,23.48,50.203z"/>
<path fill-rule="evenodd" clip-rule="evenodd" fill="#181818" d="M7.594,10.903c0.439-0.675,0.997-1.232,1.672-1.672
	C8.826,9.907,8.269,10.464,7.594,10.903z"/>
<path fill-rule="evenodd" clip-rule="evenodd" fill="#BCBCBC" d="M7.314,11.461c0.053-0.225,0.28-0.278,0.279-0.558
	c0.675-0.439,1.232-0.997,1.672-1.672c0.093,0,0.186,0,0.279,0C8.918,10.092,8.175,10.835,7.314,11.461z"/>
<path fill-rule="evenodd" clip-rule="evenodd" fill="#181818" d="M52.466,37.66c0.093,0,0.186,0,0.278,0
	c0.004,0.555,0.761,0.354,0.558,1.115C52.925,38.501,52.745,38.031,52.466,37.66z"/>
<path fill-rule="evenodd" clip-rule="evenodd" fill="#181818" d="M19.021,45.464c0.019-0.817,0.637-1.036,1.115-1.395
	C19.811,44.582,19.407,45.014,19.021,45.464z"/>
<path fill-rule="evenodd" clip-rule="evenodd" fill="#181818" d="M61.942,47.136c0.252-0.491,0.624-0.862,1.115-1.115
	C62.805,46.513,62.433,46.884,61.942,47.136z"/>
<path fill-rule="evenodd" clip-rule="evenodd" fill="#181818" d="M113.783,12.855c-0.493-0.252-0.863-0.624-1.116-1.116
	C113.158,11.991,113.53,12.364,113.783,12.855z"/>
<path fill-rule="evenodd" clip-rule="evenodd" fill="#333333" d="M94.551,14.527c0.789-0.046-0.23,1.717,0.559,1.672
	c0.05,0.237-0.108,0.263-0.28,0.279C94.446,16.119,94.555,15.268,94.551,14.527z"/>
<path fill-rule="evenodd" clip-rule="evenodd" fill="#767676" d="M71.419,11.183c0.491,0.252,0.861,0.623,1.114,1.115
	C72.042,12.045,71.67,11.674,71.419,11.183z"/>
<path fill-rule="evenodd" clip-rule="evenodd" fill="#333333" d="M69.189,8.953c0.859,0.626,1.603,1.37,2.229,2.23
	C70.558,10.557,69.814,9.813,69.189,8.953z"/>
<path fill-rule="evenodd" clip-rule="evenodd" fill="#181818" d="M62.22,1.985c2.44,2.206,4.761,4.529,6.969,6.967
	c-0.367-0.099-0.439-0.491-0.838-0.557C66.473,6.095,64.101,4.285,62.22,1.985z"/>
<path fill-rule="evenodd" clip-rule="evenodd" fill="#BCBCBC" d="M61.664,1.706c0.225,0.053,0.277,0.28,0.557,0.279
	c1.881,2.3,4.252,4.11,6.131,6.41C66.006,6.282,63.776,4.052,61.664,1.706z"/>
<path fill-rule="evenodd" clip-rule="evenodd" fill="#767676" d="M9.544,12.855c0.346-0.583,0.811-1.047,1.393-1.394
	C10.592,12.044,10.127,12.509,9.544,12.855z"/>
<path fill-rule="evenodd" clip-rule="evenodd" fill="#333333" d="M68.073,11.739c1.324,1.092,2.532,2.3,3.624,3.624
	C70.373,14.272,69.165,13.064,68.073,11.739z"/>
<path fill-rule="evenodd" clip-rule="evenodd" fill="#767676" d="M60.27,3.936c2.718,2.485,5.319,5.087,7.804,7.804
	C65.356,9.255,62.755,6.653,60.27,3.936z"/>
<path fill-rule="evenodd" clip-rule="evenodd" fill="#333333" d="M109.881,44.907c0.166-0.577-0.345-1.831,0.278-1.951
	c0.002,0.739-0.106,1.592,0.278,1.951C110.251,44.907,110.066,44.907,109.881,44.907z"/>
<path fill-rule="evenodd" clip-rule="evenodd" fill="#767676" d="M93.158,13.969c0.465,0,0.928,0,1.393,0c0,0.186,0,0.372,0,0.558
	c0.004,0.74-0.104,1.591,0.278,1.951c-0.093,0-0.185,0-0.278,0c-0.441,0.023-1.063-0.134-1.114,0.278c-1.021,0-2.044,0-3.065,0
	c0-0.092,0-0.185,0-0.278c0.928,0,1.857,0,2.787,0c0.456,0.045,0.456-1.718,0-1.672C93.158,14.527,93.158,14.248,93.158,13.969z"/>
<path fill-rule="evenodd" clip-rule="evenodd" fill="#767676" d="M31.841,4.772c0.068-0.86,0.282-1.576,0.558-2.229
	c0.787-0.23,0.722,0.393,1.393,0.279c0,1.114-0.557,1.673-0.557,2.787c-0.497-0.154-1.158-0.143-1.394-0.557
	C31.841,4.958,31.841,4.865,31.841,4.772z"/>
<path fill-rule="evenodd" clip-rule="evenodd" fill="#BCBCBC" d="M22.922,7.002c0.663-0.463,3.239-0.463,3.902,0
	C25.524,7.002,24.223,7.002,22.922,7.002z"/>
<path fill-rule="evenodd" clip-rule="evenodd" fill="#767676" d="M32.677,8.396c-0.639,0.477-0.659,1.57-0.836,2.508
	c-0.852,0.202-1.016-0.285-1.672-0.278c0.255-0.953,0.418-1.997,0.836-2.787C31.198,8.387,32.561,7.769,32.677,8.396z"/>
<path fill-rule="evenodd" clip-rule="evenodd" fill="#333333" d="M107.929,10.903c0.125-0.459,2.105-0.459,2.23,0
	C109.416,10.903,108.672,10.903,107.929,10.903z"/>
<path fill-rule="evenodd" clip-rule="evenodd" fill="#333333" d="M108.208,13.691c-0.045-0.458,1.719-0.458,1.673,0
	C109.323,13.691,108.767,13.691,108.208,13.691z"/>
<path fill-rule="evenodd" clip-rule="evenodd" fill="#333333" d="M93.158,14.806c0.456-0.045,0.456,1.718,0,1.672
	C93.158,15.92,93.158,15.363,93.158,14.806z"/>
<path fill-rule="evenodd" clip-rule="evenodd" fill="#333333" d="M86.747,16.199c0.491,0.161,1.637-0.337,1.673,0.279
	c-0.557,0-1.116,0-1.673,0C86.747,16.385,86.747,16.292,86.747,16.199z"/>
<path fill-rule="evenodd" clip-rule="evenodd" fill="#333333" d="M95.109,20.101c0.603-0.047,0.126,0.988,0.278,1.394
	C94.783,21.542,95.262,20.506,95.109,20.101z"/>
<path fill-rule="evenodd" clip-rule="evenodd" fill="#333333" d="M93.715,20.38c0.615,0.034,0.118,1.182,0.278,1.672
	C93.378,22.018,93.875,20.87,93.715,20.38z"/>
<path fill-rule="evenodd" clip-rule="evenodd" fill="#767676" d="M95.388,21.495c0.286,0.937-0.867,0.434-1.395,0.558
	c-0.16-0.491,0.337-1.638-0.278-1.672c0-0.279,0-0.558,0-0.836c0-0.093,0-0.186,0-0.279c0.465,0,0.93,0,1.395,0
	c0,0.279,0,0.558,0,0.836C95.262,20.506,94.783,21.542,95.388,21.495z"/>
<path fill-rule="evenodd" clip-rule="evenodd" fill="#333333" d="M39.645,28.184c0.441,0.022,1.063-0.135,1.115,0.278
	C40.319,28.439,39.697,28.596,39.645,28.184z"/>
<path fill-rule="evenodd" clip-rule="evenodd" fill="#333333" d="M38.53,30.692c-0.023,0.442,0.134,1.064-0.279,1.115
	C38.275,31.367,38.117,30.745,38.53,30.692z"/>
<path fill-rule="evenodd" clip-rule="evenodd" fill="#767676" d="M40.203,35.43c-1.032,0.548-0.43,2.729-1.115,3.623
	c-0.372,0-0.743,0-1.114,0c-0.372,0-0.743,0-1.115,0c0.351-1.322,0.447-2.896,0.836-4.18c0.917,0.011,1.388,0.471,2.509,0.278
	C40.203,35.245,40.203,35.338,40.203,35.43z"/>
<path fill-rule="evenodd" clip-rule="evenodd" fill="#333333" d="M52.744,37.66c1.253,0.048,2.381,0.222,3.345,0.558
	c0.28,2.509-0.66,3.8-1.951,4.738c-2.787,0-5.574,0-8.361,0c-0.667,0.17-2.022-0.351-2.229,0.279c-0.465,0-0.929,0-1.394,0
	c-0.405,0.152-1.44-0.326-1.394,0.278c-0.278,0-0.557,0-0.836,0c-0.441,0.022-1.063-0.135-1.114,0.278c-0.279,0-0.558,0-0.836,0
	c-0.442,0.023-1.063-0.133-1.115,0.278c-0.917,0.012-1.388,0.471-2.508,0.278c-0.441,0.024-1.063-0.133-1.114,0.279
	c-0.918,0.013-1.388,0.472-2.509,0.279c-0.441,0.022-1.063-0.135-1.115,0.278c-0.185,0-0.372,0-0.557,0
	c-0.441,0.022-1.063-0.134-1.115,0.279c-1.449,0.131-2.531,0.628-4.181,0.557c-0.441,0.023-1.063-0.133-1.115,0.278
	c-0.909-0.107-1.097,0.331-1.115,0.559c-0.08,1.047,1.296,0.368,2.229,0.557c0.441-0.023,1.063,0.135,1.115-0.278
	c0.372,0,0.743,0,1.115,0c0.405-0.152,1.44,0.325,1.394-0.278c0.372,0,0.743,0,1.115,0c0.441-0.023,1.063,0.134,1.115-0.279
	c0.372,0,0.743,0,1.115,0c0.405-0.152,1.44,0.326,1.393-0.279c0.372,0,0.743,0,1.116,0c0.441-0.022,1.063,0.135,1.114-0.278
	c0.372,0,0.743,0,1.115,0c0.405-0.152,1.44,0.326,1.394-0.278c0.465,0,0.93,0,1.394,0c2.51-0.185,5.757,0.369,7.804-0.278
	c2.788,0,5.575,0,8.361,0c1.491-0.183,3.711,0.365,4.738-0.279c1.956-0.089,1.721-2.366,2.787-3.345
	c0.801,0.778,1.189,1.97,2.788,1.951c0,0.093,0,0.187,0,0.278c-1.481-0.272-1.029,1.388-1.673,1.951
	c-0.491,0.253-0.863,0.624-1.115,1.115c-0.417,0.326-1.14,0.347-1.394,0.836c-0.557,0-1.115,0-1.672,0
	c-2.51,0.185-5.757-0.369-7.804,0.279c-3.624,0-7.247,0-10.87,0c-0.756,0.172-2.212-0.354-2.509,0.278c-0.371,0-0.743,0-1.115,0
	c-0.405,0.153-1.44-0.326-1.394,0.278c-0.371,0-0.743,0-1.114,0c-0.441,0.023-1.063-0.134-1.115,0.279c-0.372,0-0.743,0-1.115,0
	c-0.405,0.152-1.44-0.326-1.394,0.278c-0.372,0-0.743,0-1.115,0c-0.442,0.023-1.063-0.134-1.115,0.278c-0.372,0-0.744,0-1.115,0
	c-0.405,0.152-1.44-0.325-1.393,0.28c-0.372,0-0.743,0-1.116,0c-0.441,0.021-1.063-0.135-1.114,0.278
	c-3.672,0.764-5.553-1.657-4.459-4.738c0.386-0.45,0.79-0.883,1.115-1.395c1.733-0.681,3.877-0.953,6.131-1.114
	c0.442-0.023,1.063,0.134,1.115-0.279c0.186,0,0.372,0,0.558,0c0.441-0.022,1.063,0.135,1.115-0.278
	c2.042-0.28,3.873-0.772,6.131-0.836c0.441-0.023,1.063,0.134,1.115-0.279c0.943-0.078,1.6-0.443,2.787-0.278
	c0.441-0.022,1.063,0.135,1.115-0.278c0.279,0,0.557,0,0.836,0c0.404-0.152,1.44,0.326,1.393-0.279c0.558,0,1.115,0,1.672,0
	c2.789-0.185,6.316,0.369,8.64-0.278c0.414-0.236,0.6-0.701,0.558-1.394C53.505,38.014,52.748,38.214,52.744,37.66z"/>
<path fill-rule="evenodd" clip-rule="evenodd" fill="#333333" d="M37.973,39.053c0.371,0,0.743,0,1.114,0
	C39.287,39.505,37.773,39.505,37.973,39.053z"/>
<path fill-rule="evenodd" clip-rule="evenodd" fill="#181818" d="M67.795,41.283c0.44,0.023,1.063-0.134,1.116,0.279
	c-0.373,0-0.743,0-1.116,0C67.795,41.469,67.795,41.376,67.795,41.283z"/>
<path fill-rule="evenodd" clip-rule="evenodd" fill="#181818" d="M71.419,41.562c0.44,0.022,1.062-0.134,1.114,0.278
	c-0.371,0-0.743,0-1.114,0C71.419,41.748,71.419,41.655,71.419,41.562z"/>
<path fill-rule="evenodd" clip-rule="evenodd" fill="#181818" d="M75.041,41.84c0.44,0.023,1.064-0.134,1.116,0.279
	c-0.373,0-0.743,0-1.116,0C75.041,42.027,75.041,41.933,75.041,41.84z"/>
<path fill-rule="evenodd" clip-rule="evenodd" fill="#333333" d="M108.767,42.12c-0.126-0.456,1.519-0.456,1.393,0
	C109.694,42.12,109.229,42.12,108.767,42.12z"/>
<path fill-rule="evenodd" clip-rule="evenodd" fill="#181818" d="M78.665,42.12c0.441,0.023,1.063-0.134,1.114,0.278
	c-0.371,0-0.743,0-1.114,0C78.665,42.306,78.665,42.212,78.665,42.12z"/>
<path fill-rule="evenodd" clip-rule="evenodd" fill="#BCBCBC" d="M80.058,42.398c0.651,0,1.303,0,1.951,0c0,0.094,0,0.187,0,0.278
	C81.432,42.511,80.178,43.021,80.058,42.398z"/>
<path fill-rule="evenodd" clip-rule="evenodd" fill="#181818" d="M82.009,42.398c0.441,0.023,1.064-0.134,1.116,0.278
	c-0.373,0-0.745,0-1.116,0C82.009,42.584,82.009,42.492,82.009,42.398z"/>
<path fill-rule="evenodd" clip-rule="evenodd" fill="#333333" d="M85.354,42.676c0.405,0.152,1.44-0.325,1.393,0.279
	C86.343,42.804,85.307,43.282,85.354,42.676z"/>
<path fill-rule="evenodd" clip-rule="evenodd" fill="#181818" d="M88.977,42.956c0.441,0.023,1.064-0.134,1.114,0.279
	c-0.371,0-0.743,0-1.114,0C88.977,43.141,88.977,43.048,88.977,42.956z"/>
<path fill-rule="evenodd" clip-rule="evenodd" fill="#BCBCBC" d="M90.371,43.235c0.649,0,1.301,0,1.949,0c0,0.092,0,0.185,0,0.278
	C91.743,43.348,90.491,43.858,90.371,43.235z"/>
<path fill-rule="evenodd" clip-rule="evenodd" fill="#181818" d="M92.32,43.235c0.443,0.022,1.064-0.135,1.116,0.278
	c-0.373,0-0.743,0-1.116,0C92.32,43.419,92.32,43.327,92.32,43.235z"/>
<path fill-rule="evenodd" clip-rule="evenodd" fill="#BCBCBC" d="M93.715,43.513c0.651,0,1.3,0,1.951,0c0,0.092,0,0.186,0,0.278
	C95.089,43.626,93.835,44.136,93.715,43.513z"/>
<path fill-rule="evenodd" clip-rule="evenodd" fill="#181818" d="M95.666,43.513c0.441,0.022,1.064-0.135,1.114,0.278
	c-0.371,0-0.743,0-1.114,0C95.666,43.699,95.666,43.605,95.666,43.513z"/>
<path fill-rule="evenodd" clip-rule="evenodd" fill="#181818" d="M99.01,43.792c0.443,0.023,1.063-0.133,1.116,0.278
	C99.686,44.047,99.062,44.205,99.01,43.792z"/>
<path fill-rule="evenodd" clip-rule="evenodd" fill="#333333" d="M67.238,44.07c0.37,0,0.743,0,1.113,0c0,0.094,0,0.187,0,0.278
	C67.911,44.327,67.29,44.483,67.238,44.07z"/>
<path fill-rule="evenodd" clip-rule="evenodd" fill="#181818" d="M102.355,44.07c0.44,0.024,1.062-0.133,1.114,0.278
	C103.028,44.327,102.407,44.483,102.355,44.07z"/>
<path fill-rule="evenodd" clip-rule="evenodd" fill="#333333" d="M70.86,44.348c0.372,0,0.743,0,1.115,0c0,0.094,0,0.187,0,0.279
	C71.535,44.605,70.912,44.762,70.86,44.348z"/>
<path fill-rule="evenodd" clip-rule="evenodd" fill="#333333" d="M105.699,44.348c0.404,0.153,1.44-0.325,1.395,0.279
	C106.688,44.476,105.653,44.954,105.699,44.348z"/>
<path fill-rule="evenodd" clip-rule="evenodd" fill="#333333" d="M74.484,44.627c0.37,0,0.743,0,1.113,0c0,0.094,0,0.187,0,0.279
	C75.157,44.883,74.536,45.041,74.484,44.627z"/>
<path fill-rule="evenodd" clip-rule="evenodd" fill="#333333" d="M78.108,44.907c0.371,0,0.743,0,1.114,0c0,0.093,0,0.186,0,0.278
	C78.781,45.162,78.158,45.319,78.108,44.907z"/>
<path fill-rule="evenodd" clip-rule="evenodd" fill="#BCBCBC" d="M110.716,44.907c0.651,0,1.302,0,1.951,0c0,0.093,0,0.186,0,0.278
	C112.09,45.02,110.836,45.531,110.716,44.907z"/>
<path fill-rule="evenodd" clip-rule="evenodd" fill="#181818" d="M112.667,44.907c0.44,0.022,1.063-0.135,1.116,0.278
	c-0.373,0-0.743,0-1.116,0C112.667,45.092,112.667,45,112.667,44.907z"/>
<path fill-rule="evenodd" clip-rule="evenodd" fill="#333333" d="M81.452,45.185c0.37,0,0.743,0,1.114,0c0,0.093,0,0.187,0,0.279
	C82.125,45.44,81.504,45.597,81.452,45.185z"/>
<path fill-rule="evenodd" clip-rule="evenodd" fill="#333333" d="M85.074,45.464c0.579,0.165,1.831-0.345,1.951,0.278
	C86.448,45.577,85.194,46.087,85.074,45.464z"/>
<path fill-rule="evenodd" clip-rule="evenodd" fill="#333333" d="M88.42,45.743c0.371,0,0.743,0,1.114,0c0,0.092,0,0.186,0,0.278
	C89.093,45.999,88.472,46.156,88.42,45.743z"/>
<path fill-rule="evenodd" clip-rule="evenodd" fill="#333333" d="M91.764,46.021c0.373,0,0.743,0,1.116,0c0,0.094,0,0.187,0,0.278
	C92.438,46.277,91.815,46.434,91.764,46.021z"/>
<path fill-rule="evenodd" clip-rule="evenodd" fill="#333333" d="M95.109,46.299c0.37,0,0.743,0,1.114,0c0,0.094,0,0.187,0,0.279
	C95.782,46.556,95.159,46.712,95.109,46.299z"/>
<path fill-rule="evenodd" clip-rule="evenodd" fill="#333333" d="M98.731,46.579c0.577,0.166,1.831-0.344,1.951,0.279
	C100.105,46.691,98.852,47.203,98.731,46.579z"/>
<path fill-rule="evenodd" clip-rule="evenodd" fill="#333333" d="M102.077,46.858c0.577,0.165,1.831-0.345,1.949,0.278
	C103.449,46.97,102.195,47.481,102.077,46.858z"/>
<path fill-rule="evenodd" clip-rule="evenodd" fill="#333333" d="M105.421,47.136c0.417,0.048,1.027-0.1,1.116,0.278
	C106.094,47.391,105.473,47.549,105.421,47.136z"/>
<path fill-rule="evenodd" clip-rule="evenodd" fill="#333333" d="M112.11,47.694c0.37,0,0.743,0,1.113,0c0,0.093,0,0.186,0,0.278
	C112.783,47.95,112.162,48.106,112.11,47.694z"/>
<path fill-rule="evenodd" clip-rule="evenodd" fill="#BCBCBC" d="M114.618,47.694c0.93,0,1.859,0,2.787,0
	c-0.387,0.636-1.939,0.104-2.787,0.278C114.618,47.879,114.618,47.787,114.618,47.694z"/>
<path fill-rule="evenodd" clip-rule="evenodd" fill="#181818" d="M108.767,50.203c0.383,0.012,0.611-0.132,0.835-0.278
	C110.034,50.609,108.654,50.744,108.767,50.203z"/>
<path fill-rule="evenodd" clip-rule="evenodd" fill="#FFFFFF" d="M38.53,6.444c3.67-0.191,6.896-2.556,10.034-3.901
	c1.032-0.442,1.94-0.688,3.344-1.115c0.271-0.083,0.702-0.138,1.115-0.278c0.759-0.259,1.031-0.506,2.229-0.836
	c2.089-0.574,5.402-0.491,6.411,1.394c2.113,2.346,4.342,4.576,6.688,6.689c0.398,0.066,0.471,0.458,0.838,0.557
	c0.625,0.86,1.368,1.604,2.229,2.23c0.251,0.491,0.623,0.863,1.114,1.115c2.55,2.651,7.149,3.254,11.706,3.902
	c0.086,0.378,0.696,0.231,1.115,0.279c0.465,0,0.928,0,1.393,0c0.557,0,1.116,0,1.673,0c0.187,0,0.371,0,0.557,0
	c-0.046,0.604,0.99,0.126,1.395,0.278c1.021,0,2.044,0,3.065,0c0.44-0.023,1.063,0.134,1.114-0.278c0.094,0,0.186,0,0.278,0
	c0.172-0.016,0.33-0.042,0.28-0.279c5.104-0.934,7.214-4.861,12.819-5.296c0.743,0,1.487,0,2.23,0
	c1.092,0.023,1.738,0.492,2.508,0.836c0.253,0.492,0.623,0.864,1.116,1.116c3.552,5.78,6.682,11.66,10.312,17.559
	c1.176,1.91,2.506,3.74,3.344,5.854c0,0.836,0,1.672,0,2.508c-1.667,4.648-4.536,8.099-10.033,8.919c-0.928,0-1.857,0-2.787,0
	c-0.465,0-0.93,0-1.395,0c-0.37,0-0.743,0-1.113,0c-0.093,0-0.187,0-0.278,0c-0.087-0.378-0.699-0.231-1.116-0.279
	c-0.835,0-1.671,0-2.508,0c-0.558,0-1.114,0-1.671,0c-0.089-0.378-0.699-0.23-1.116-0.278c-0.465,0-0.93,0-1.395,0
	c-0.118-0.623-1.372-0.113-1.949-0.278c-0.465,0-0.93,0-1.395,0c-0.12-0.623-1.374-0.113-1.951-0.279c-0.465,0-0.93,0-1.393,0
	c-0.088-0.378-0.699-0.23-1.115-0.279c-0.371,0-0.744,0-1.114,0c-0.095,0-0.187,0-0.28,0c-0.118-0.623-1.373-0.112-1.949-0.278
	c-0.373,0-0.743,0-1.116,0c-0.092,0-0.187,0-0.278,0c-0.12-0.623-1.375-0.113-1.951-0.278c-0.371,0-0.743,0-1.114,0
	c-0.465,0-0.93,0-1.395,0c-0.12-0.623-1.372-0.113-1.951-0.278c-0.465,0-0.928,0-1.393,0c-0.086-0.379-0.699-0.231-1.115-0.279
	c-0.371,0-0.744,0-1.114,0c-0.092,0-0.187,0-0.278,0c-0.12-0.623-1.375-0.112-1.951-0.278c-0.371,0-0.743,0-1.114,0
	c-0.465,0-0.93,0-1.395,0c-0.086-0.378-0.699-0.231-1.116-0.279c-0.37,0-0.743,0-1.113,0c-0.465,0-0.93,0-1.395,0
	c-0.086-0.378-0.697-0.231-1.114-0.279c-0.372,0-0.743,0-1.115,0c-0.463,0-0.928,0-1.393,0c-0.086-0.377-0.699-0.23-1.116-0.278
	c-0.37,0-0.743,0-1.113,0c-0.187,0-0.373,0-0.558,0c-0.12-0.623-1.375-0.112-1.951-0.278c-1.598,0.019-1.986-1.173-2.788-1.951
	c-0.148-0.78-0.409-1.448-0.558-2.229c-1.153-1.077-3.55-0.91-5.295-1.395c-0.964-0.336-2.091-0.51-3.345-0.558
	c-0.092,0-0.185,0-0.278,0c-3.916-0.914-7.992-1.67-12.263-2.229c0-0.092,0-0.186,0-0.278c-1.121,0.192-1.591-0.268-2.509-0.278
	c-9.204-1.964-20.306-3.437-29.822-5.575c-3.06-0.687-6.098-1.257-7.525-4.18c0-0.186,0-0.372,0-0.558c0-1.021,0-2.044,0-3.066
	c0.806-2.827,2.765-5.023,4.459-7.247c0.461-0.604,0.947-0.946,1.394-1.672c0.213-0.346,0.491-0.817,1.115-1.115
	c0.86-0.626,1.604-1.369,2.23-2.229c1.542-1.223,4.089-2.724,6.41-3.624c1.447-0.56,2.911-1.025,5.296-1.114
	c2.322,0,4.645,0,6.968,0c1.412-0.182,2.497,1.059,3.623,0.278c0,0.093,0,0.186,0,0.279c0.236,0.414,0.897,0.403,1.394,0.557
	c1.044,0.442,2.357,0.616,3.623,0.836C36.812,6.902,38.576,6.902,38.53,6.444z M57.204,2.821c-7.415,1.04-11.175,5.734-18.953,6.41
	c-0.372,0-0.743,0-1.115,0c-1.828,0.062-2.882-0.648-4.459-0.836c-0.117-0.626-1.479-0.008-1.672-0.558
	c-1.295-0.377-2.728-0.617-4.181-0.836c-0.663-0.463-3.239-0.463-3.902,0c-5.319,0.162-8.526,2.437-11.985,4.459
	c-0.583,0.347-1.047,0.811-1.393,1.394c-2.234,3.154-5.023,5.753-6.689,9.476c-0.452-0.2-0.452,1.314,0,1.115
	c1.208,2.655,4.486,3.056,7.247,3.623c2.966,0.609,6.389,1.12,9.476,1.672c6.311,1.129,12.83,2.436,18.673,3.345
	c0.405,0.524,1.824,0.034,2.23,0.558c3.602,0.59,10.185,1.741,14.493,2.509c1.053,0.188,2.037,0.363,3.066,0.557
	c2.004,0.378,4.418,0.73,5.296,1.673c0.113,0.121,0.219,0.719,0.278,0.836c0.464,0.911,0.698,2.092,1.115,3.065
	c0.185,0,0.371,0,0.557,0c-0.047,0.605,0.988,0.127,1.395,0.279c0.371,0,0.743,0,1.114,0c0.373,0,0.743,0,1.116,0
	c0.463,0,0.927,0,1.392,0c0.053,0.412,0.674,0.256,1.116,0.278c0.371,0,0.743,0,1.114,0c0.465,0,0.93,0,1.395,0
	c0.05,0.412,0.673,0.256,1.113,0.279c0.373,0,0.743,0,1.116,0c0.465,0,0.928,0,1.393,0c0.052,0.413,0.673,0.256,1.115,0.278
	c0.371,0,0.743,0,1.114,0c0.092,0,0.187,0,0.278,0c0.12,0.623,1.374,0.113,1.951,0.278c0.371,0,0.743,0,1.116,0
	c0.743,0,1.484,0,2.229,0c-0.048,0.605,0.988,0.128,1.393,0.279c0.371,0,0.743,0,1.116,0c0.05,0.412,0.673,0.255,1.113,0.279
	c0.371,0,0.743,0,1.114,0c0.094,0,0.187,0,0.28,0c0.12,0.623,1.372,0.113,1.949,0.278c0.373,0,0.743,0,1.116,0
	c0.092,0,0.187,0,0.278,0c0.12,0.623,1.374,0.113,1.951,0.278c0.371,0,0.743,0,1.114,0c0.743,0,1.486,0,2.229,0
	c0.052,0.413,0.676,0.256,1.116,0.278c0.743,0,1.486,0,2.229,0c0.052,0.413,0.673,0.257,1.114,0.278c0.743,0,1.486,0,2.229,0
	c-0.046,0.605,0.989,0.128,1.395,0.279c0.092,0,0.187,0,0.278,0c0.208,0.63,1.563,0.109,2.229,0.279c0.093,0,0.187,0,0.279,0
	c0.186,0,0.37,0,0.557,0c0.094,0,0.187,0,0.278,0c0.12,0.624,1.374,0.113,1.951,0.278c0.373,0,0.743,0,1.116,0
	c0.185,0,0.37,0,0.557,0c0.038,0.46,1.913,0.46,1.951,0c4.687-0.794,7.423-3.538,8.639-7.804c-1.248-2.212-2.702-4.762-3.9-6.689
	c-0.477-0.765-0.939-1.465-1.395-2.229c-1.296-2.18-2.847-4.865-3.9-6.689c-0.517-0.891-0.994-1.536-1.395-2.229
	c-1.16-2.003-1.949-4.45-3.902-5.853c-0.187,0-0.371,0-0.557,0c0.046-0.458-1.718-0.458-1.673,0
	c-5.518,0.614-7.423,4.84-13.099,5.295c0,0.093,0,0.186,0,0.278c-0.465,0-0.93,0-1.395,0c-0.743,0-1.486,0-2.229,0
	c-0.278,0-0.558,0-0.836,0c0.046-0.604-0.989-0.125-1.395-0.278c-0.464,0-0.927,0-1.392,0c-0.56,0-1.116,0-1.673,0
	c-0.187,0-0.371,0-0.558,0c-0.477-0.638-2.127-0.102-3.066-0.279c-4.208-0.531-8.139-1.337-10.869-3.344
	c-1.092-1.324-2.3-2.532-3.624-3.624c-2.484-2.717-5.086-5.318-7.804-7.804c-0.722-0.299-1.036-1.007-1.951-1.114
	C58.518,2.369,57.004,2.369,57.204,2.821z"/>
<path fill-rule="evenodd" clip-rule="evenodd" fill="#BCBCBC" d="M21.25,4.494c1.677-0.464,5.291-0.464,6.968,0
	C25.895,4.494,23.573,4.494,21.25,4.494z"/>
<path fill-rule="evenodd" clip-rule="evenodd" fill="#767676" d="M82.566,18.708c0.939,0.177,2.59-0.359,3.066,0.279
	C84.693,18.81,83.045,19.345,82.566,18.708z"/>
<path fill-rule="evenodd" clip-rule="evenodd" fill="#BCBCBC" d="M0.347,21.495c0,1.021,0,2.044,0,3.066
	C-0.115,24.17-0.115,21.885,0.347,21.495z"/>
<path fill-rule="evenodd" clip-rule="evenodd" fill="#BCBCBC" d="M127.438,36.267c0.463,0.211,0.463,2.297,0,2.508
	C127.438,37.939,127.438,37.103,127.438,36.267z"/>
<path fill-rule="evenodd" clip-rule="evenodd" fill="#BCBCBC" d="M64.729,43.792c0.576,0.166,1.831-0.345,1.951,0.278
	c-0.65,0-1.302,0-1.951,0C64.729,43.978,64.729,43.884,64.729,43.792z"/>
<path fill-rule="evenodd" clip-rule="evenodd" fill="#BCBCBC" d="M79.223,44.907c0.576,0.166,1.831-0.345,1.951,0.278
	c-0.651,0-1.303,0-1.951,0C79.223,45.092,79.223,45,79.223,44.907z"/>
<path fill-rule="evenodd" clip-rule="evenodd" fill="#BCBCBC" d="M89.534,45.743c0.576,0.165,1.831-0.345,1.951,0.278
	c-0.649,0-1.301,0-1.951,0C89.534,45.928,89.534,45.834,89.534,45.743z"/>
<path fill-rule="evenodd" clip-rule="evenodd" fill="#BCBCBC" d="M92.88,46.021c0.576,0.166,1.831-0.345,1.949,0.278
	c-0.649,0-1.301,0-1.949,0C92.88,46.208,92.88,46.115,92.88,46.021z"/>
<path fill-rule="evenodd" clip-rule="evenodd" fill="#333333" d="M86.19,18.986c0.557,0,1.113,0,1.673,0c0,0.093,0,0.186,0,0.278
	C87.372,19.105,86.225,19.602,86.19,18.986z"/>
<path fill-rule="evenodd" clip-rule="evenodd" fill="#333333" d="M108.767,42.676c0,0.65,0,1.302,0,1.951c-0.095,0-0.187,0-0.28,0
	C108.652,44.05,108.142,42.796,108.767,42.676z"/>
<path fill-rule="evenodd" clip-rule="evenodd" fill="#767676" d="M38.53,30.692c-0.219-1.147,0.428-1.43,0.279-2.508
	c0.278,0,0.558,0,0.836,0c0.052,0.412,0.674,0.255,1.115,0.278c0.803,1.186-0.55,2.601-0.278,4.181
	c-0.406-0.523-1.825-0.033-2.23-0.558c0-0.093,0-0.186,0-0.278C38.665,31.756,38.507,31.134,38.53,30.692z"/>
<path fill-rule="evenodd" clip-rule="evenodd" fill="#767676" d="M108.208,47.415c0.837,0,1.673,0,2.508,0c0,0.093,0,0.187,0,0.279
	c-1.272-0.158-1.032,1.197-1.114,2.23c-0.224,0.146-0.452,0.29-0.835,0.278c-0.28,0-0.559,0-0.838,0
	C108.007,49.258,108.372,48.602,108.208,47.415z"/>
</svg>
