<?xml version="1.0" encoding="utf-8"?>
<!-- Generator: Adobe Illustrator 15.0.0, SVG Export Plug-In  -->
<!DOCTYPE svg PUBLIC "-//W3C//DTD SVG 1.1//EN" "http://www.w3.org/Graphics/SVG/1.1/DTD/svg11.dtd" [
	<!ENTITY ns_flows "http://ns.adobe.com/Flows/1.0/">
]>
<svg version="1.1"
	 xmlns="http://www.w3.org/2000/svg" xmlns:xlink="http://www.w3.org/1999/xlink" xmlns:a="http://ns.adobe.com/AdobeSVGViewerExtensions/3.0/"
	 x="0px" y="0px" width="142px" height="142px" viewBox="-7.457 -45.711 142 142" enable-background="new -7.457 -45.711 142 142"
	 xml:space="preserve">
<defs>
</defs>
<path fill-rule="evenodd" clip-rule="evenodd" fill="#767676" d="M57.204,2.907c-0.2-0.452,1.314-0.452,1.115,0
	C57.947,2.907,57.576,2.907,57.204,2.907z"/>
<path fill-rule="evenodd" clip-rule="evenodd" fill="#767676" d="M38.53,6.53c0.046,0.458-1.718,0.458-1.672,0
	C37.415,6.53,37.973,6.53,38.53,6.53z"/>
<path fill-rule="evenodd" clip-rule="evenodd" fill="#191919" d="M37.137,9.317c0.372,0,0.743,0,1.115,0
	C38.451,9.77,36.938,9.77,37.137,9.317z"/>
<path fill-rule="evenodd" clip-rule="evenodd" fill="#333333" d="M93.158,15.449c0.452-0.2,0.452,1.314,0,1.115
	C93.158,16.192,93.158,15.821,93.158,15.449z"/>
<path fill-rule="evenodd" clip-rule="evenodd" fill="#BCBCBC" d="M84.239,16.285c0.37,0,0.743,0,1.115,0c0,0.093,0,0.186,0,0.279
	C84.936,16.517,84.325,16.664,84.239,16.285z"/>
<path fill-rule="evenodd" clip-rule="evenodd" fill="#767676" d="M85.354,16.564c0-0.093,0-0.186,0-0.279c0.465,0,0.928,0,1.393,0
	c0,0.093,0,0.186,0,0.279C86.282,16.564,85.819,16.564,85.354,16.564z"/>
<path fill-rule="evenodd" clip-rule="evenodd" fill="#BCBCBC" d="M88.977,16.564c0.558,0,1.114,0,1.673,0c0,0.093,0,0.186,0,0.278
	C90.159,16.682,89.013,17.18,88.977,16.564z"/>
<path fill-rule="evenodd" clip-rule="evenodd" fill="#BCBCBC" d="M93.437,16.842c0.052-0.412,0.673-0.255,1.114-0.278
	C94.5,16.977,93.877,16.819,93.437,16.842z"/>
<path fill-rule="evenodd" clip-rule="evenodd" fill="#767676" d="M87.863,19.351c0-0.093,0-0.185,0-0.278c0.465,0,0.928,0,1.392,0
	c0,0.093,0,0.186,0,0.278C88.791,19.351,88.328,19.351,87.863,19.351z"/>
<path fill-rule="evenodd" clip-rule="evenodd" fill="#BCBCBC" d="M89.255,19.351c0-0.093,0-0.185,0-0.278
	c0.405,0.153,1.44-0.326,1.395,0.278C90.185,19.351,89.72,19.351,89.255,19.351z"/>
<path fill-rule="evenodd" clip-rule="evenodd" fill="#191919" d="M91.485,19.351c0.743,0,1.486,0,2.229,0c0,0.093,0,0.186,0,0.279
	C93.048,19.46,91.693,19.98,91.485,19.351z"/>
<path fill-rule="evenodd" clip-rule="evenodd" fill="#BCBCBC" d="M2.855,22.417c0,0.372,0,0.743,0,1.115
	C2.403,23.731,2.403,22.217,2.855,22.417z"/>
<path fill-rule="evenodd" clip-rule="evenodd" fill="#191919" d="M44.104,40.533c2.324-0.648,5.852-0.093,8.64-0.278
	C50.42,40.902,46.893,40.348,44.104,40.533z"/>
<path fill-rule="evenodd" clip-rule="evenodd" fill="#191919" d="M41.039,40.812c-0.047-0.604,0.988-0.127,1.393-0.279
	C42.479,41.138,41.443,40.66,41.039,40.812z"/>
<path fill-rule="evenodd" clip-rule="evenodd" fill="#191919" d="M39.087,41.09c0.086-0.378,0.698-0.231,1.115-0.278
	C40.151,41.225,39.529,41.068,39.087,41.09z"/>
<path fill-rule="evenodd" clip-rule="evenodd" fill="#191919" d="M35.186,41.648c0.086-0.379,0.698-0.23,1.115-0.279
	C36.249,41.782,35.627,41.625,35.186,41.648z"/>
<path fill-rule="evenodd" clip-rule="evenodd" fill="#BCBCBC" d="M65.565,41.369c0.372,0,0.743,0,1.115,0c0,0.094,0,0.187,0,0.279
	C66.238,41.625,65.616,41.782,65.565,41.369z"/>
<path fill-rule="evenodd" clip-rule="evenodd" fill="#767676" d="M66.681,41.648c0-0.093,0-0.186,0-0.279c0.371,0,0.743,0,1.114,0
	c0,0.094,0,0.187,0,0.279C67.424,41.648,67.052,41.648,66.681,41.648z"/>
<path fill-rule="evenodd" clip-rule="evenodd" fill="#767676" d="M71.419,41.926c-0.442-0.022-1.063,0.134-1.116-0.278
	c0.373,0,0.744,0,1.116,0C71.419,41.741,71.419,41.833,71.419,41.926z"/>
<path fill-rule="evenodd" clip-rule="evenodd" fill="#767676" d="M75.041,42.206c-0.44-0.023-1.063,0.133-1.113-0.279
	c0.37,0,0.743,0,1.113,0C75.041,42.019,75.041,42.113,75.041,42.206z"/>
<path fill-rule="evenodd" clip-rule="evenodd" fill="#767676" d="M108.767,42.206c0.463,0,0.928,0,1.393,0c0,0.278,0,0.557,0,0.836
	c-0.623,0.12-0.112,1.374-0.278,1.951c-0.187,0-0.371,0-0.558,0c-0.062-0.218-0.234-0.325-0.557-0.279c0-0.649,0-1.301,0-1.951
	C108.767,42.578,108.767,42.392,108.767,42.206z"/>
<path fill-rule="evenodd" clip-rule="evenodd" fill="#191919" d="M26.267,43.042c0.087-0.378,0.698-0.23,1.115-0.279
	C27.33,43.175,26.708,43.018,26.267,43.042z"/>
<path fill-rule="evenodd" clip-rule="evenodd" fill="#191919" d="M43.547,43.321c0.207-0.63,1.563-0.109,2.229-0.279
	C45.57,43.67,44.214,43.15,43.547,43.321z"/>
<path fill-rule="evenodd" clip-rule="evenodd" fill="#767676" d="M88.977,43.321c-0.44-0.024-1.063,0.133-1.113-0.279
	c0.37,0,0.743,0,1.113,0C88.977,43.134,88.977,43.227,88.977,43.321z"/>
<path fill-rule="evenodd" clip-rule="evenodd" fill="#191919" d="M40.76,43.599c-0.047-0.604,0.989-0.126,1.394-0.278
	C42.2,43.924,41.165,43.447,40.76,43.599z"/>
<path fill-rule="evenodd" clip-rule="evenodd" fill="#191919" d="M38.809,43.877c0.052-0.413,0.673-0.256,1.114-0.278
	C39.872,44.011,39.25,43.854,38.809,43.877z"/>
<path fill-rule="evenodd" clip-rule="evenodd" fill="#191919" d="M36.858,44.156c0.052-0.411,0.673-0.255,1.115-0.278
	C37.921,44.291,37.299,44.133,36.858,44.156z"/>
<path fill-rule="evenodd" clip-rule="evenodd" fill="#767676" d="M68.352,44.434c0-0.092,0-0.185,0-0.278
	c0.417,0.048,1.03-0.099,1.116,0.278C69.095,44.434,68.725,44.434,68.352,44.434z"/>
<path fill-rule="evenodd" clip-rule="evenodd" fill="#767676" d="M71.976,44.713c0-0.093,0-0.186,0-0.279
	c0.417,0.048,1.028-0.099,1.114,0.279C72.719,44.713,72.347,44.713,71.976,44.713z"/>
<path fill-rule="evenodd" clip-rule="evenodd" fill="#767676" d="M75.598,44.993c0-0.093,0-0.186,0-0.279
	c0.417,0.048,1.03-0.099,1.116,0.279C76.342,44.993,75.971,44.993,75.598,44.993z"/>
<path fill-rule="evenodd" clip-rule="evenodd" fill="#BCBCBC" d="M107.372,44.713c0.371,0,0.743,0,1.114,0c0.094,0,0.186,0,0.28,0
	c0.322-0.046,0.495,0.062,0.557,0.279C108.746,44.826,107.492,45.336,107.372,44.713z"/>
<path fill-rule="evenodd" clip-rule="evenodd" fill="#191919" d="M29.611,45.271c0.052-0.413,0.674-0.256,1.115-0.278
	C30.675,45.405,30.053,45.248,29.611,45.271z"/>
<path fill-rule="evenodd" clip-rule="evenodd" fill="#191919" d="M54.696,45.55c0.936-0.645,3.061-0.099,4.459-0.279
	C58.22,45.915,56.094,45.369,54.696,45.55z"/>
<path fill-rule="evenodd" clip-rule="evenodd" fill="#767676" d="M82.566,45.55c0-0.093,0-0.187,0-0.279
	c0.416,0.048,1.029-0.1,1.115,0.279C83.31,45.55,82.938,45.55,82.566,45.55z"/>
<path fill-rule="evenodd" clip-rule="evenodd" fill="#BCBCBC" d="M114.34,45.271c0.651,0,1.301,0,1.951,0
	C116.253,45.731,114.378,45.731,114.34,45.271z"/>
<path fill-rule="evenodd" clip-rule="evenodd" fill="#191919" d="M38.251,45.829c1.954-0.648,5.108-0.095,7.525-0.278
	C43.824,46.198,40.669,45.644,38.251,45.829z"/>
<path fill-rule="evenodd" clip-rule="evenodd" fill="#191919" d="M35.464,46.107c-0.046-0.604,0.989-0.126,1.394-0.278
	C36.905,46.433,35.869,45.955,35.464,46.107z"/>
<path fill-rule="evenodd" clip-rule="evenodd" fill="#191919" d="M33.235,46.385c0.051-0.411,0.673-0.255,1.114-0.278
	C34.298,46.52,33.676,46.363,33.235,46.385z"/>
<path fill-rule="evenodd" clip-rule="evenodd" fill="#191919" d="M30.727,46.665c-0.047-0.604,0.988-0.126,1.393-0.279
	C32.167,46.991,31.131,46.512,30.727,46.665z"/>
<path fill-rule="evenodd" clip-rule="evenodd" fill="#767676" d="M96.224,46.665c0-0.093,0-0.186,0-0.279
	c0.416,0.049,1.027-0.099,1.115,0.279C96.967,46.665,96.596,46.665,96.224,46.665z"/>
<path fill-rule="evenodd" clip-rule="evenodd" fill="#191919" d="M28.497,46.944c0.052-0.413,0.674-0.256,1.115-0.279
	C29.56,47.078,28.938,46.92,28.497,46.944z"/>
<path fill-rule="evenodd" clip-rule="evenodd" fill="#191919" d="M25.988,47.222c-0.047-0.605,0.988-0.126,1.394-0.278
	C27.429,47.547,26.394,47.07,25.988,47.222z"/>
<path fill-rule="evenodd" clip-rule="evenodd" fill="#191919" d="M23.758,47.5c0.052-0.413,0.674-0.255,1.115-0.278
	C24.821,47.635,24.2,47.477,23.758,47.5z"/>
<path fill-rule="evenodd" clip-rule="evenodd" fill="#BCBCBC" d="M110.716,47.78c0-0.093,0-0.187,0-0.279
	c0.417,0.048,1.029-0.099,1.116,0.279C111.459,47.78,111.089,47.78,110.716,47.78z"/>
<path fill-rule="evenodd" clip-rule="evenodd" fill="#767676" d="M113.224,48.058c0-0.093,0-0.186,0-0.278c0.465,0,0.93,0,1.395,0
	c0,0.093,0,0.186,0,0.278C114.153,48.058,113.688,48.058,113.224,48.058z"/>
<path fill-rule="evenodd" clip-rule="evenodd" fill="#191919" d="M50.793,48.337c2.139-0.648,5.48-0.095,8.083-0.279
	C56.738,48.707,53.396,48.153,50.793,48.337z"/>
<path fill-rule="evenodd" clip-rule="evenodd" fill="#191919" d="M37.694,48.616c0.297-0.633,1.752-0.106,2.509-0.278
	C39.906,48.969,38.451,48.443,37.694,48.616z"/>
<path fill-rule="evenodd" clip-rule="evenodd" fill="#191919" d="M35.186,48.894c-0.047-0.604,0.989-0.125,1.394-0.278
	C36.626,49.22,35.591,48.742,35.186,48.894z"/>
<path fill-rule="evenodd" clip-rule="evenodd" fill="#191919" d="M32.956,49.173c0.052-0.413,0.674-0.256,1.115-0.279
	C33.984,49.273,33.373,49.126,32.956,49.173z"/>
<path fill-rule="evenodd" clip-rule="evenodd" fill="#191919" d="M30.448,49.452c-0.047-0.604,0.988-0.126,1.394-0.278
	C31.888,49.778,30.853,49.299,30.448,49.452z"/>
<path fill-rule="evenodd" clip-rule="evenodd" fill="#191919" d="M28.218,49.73c0.051-0.412,0.673-0.255,1.115-0.278
	C29.247,49.831,28.635,49.683,28.218,49.73z"/>
<path fill-rule="evenodd" clip-rule="evenodd" fill="#191919" d="M25.71,50.01c0.051-0.414,0.673-0.257,1.114-0.28
	C26.738,50.109,26.126,49.961,25.71,50.01z"/>
<path fill-rule="evenodd" clip-rule="evenodd" fill="#191919" d="M23.48,50.289c0.052-0.413,0.673-0.257,1.114-0.278
	C24.508,50.387,23.897,50.24,23.48,50.289z"/>
<path fill-rule="evenodd" clip-rule="evenodd" fill="#191919" d="M7.872,10.711c0.346-0.583,0.811-1.047,1.394-1.394
	C8.92,9.901,8.455,10.365,7.872,10.711z"/>
<path fill-rule="evenodd" clip-rule="evenodd" fill="#BCBCBC" d="M7.314,11.547c0.099-0.366,0.491-0.438,0.558-0.836
	c0.583-0.346,1.048-0.81,1.394-1.394c0.093,0,0.186,0,0.279,0C8.918,10.178,8.175,10.921,7.314,11.547z"/>
<path fill-rule="evenodd" clip-rule="evenodd" fill="#191919" d="M52.466,37.746c0.093,0,0.186,0,0.278,0
	c0.004,0.555,0.761,0.354,0.558,1.115C52.925,38.587,52.745,38.117,52.466,37.746z"/>
<path fill-rule="evenodd" clip-rule="evenodd" fill="#191919" d="M19.021,45.55c0.019-0.817,0.637-1.036,1.115-1.395
	C19.811,44.667,19.407,45.1,19.021,45.55z"/>
<path fill-rule="evenodd" clip-rule="evenodd" fill="#191919" d="M61.942,47.222c0.252-0.491,0.624-0.862,1.115-1.115
	C62.805,46.599,62.433,46.97,61.942,47.222z"/>
<path fill-rule="evenodd" clip-rule="evenodd" fill="#191919" d="M113.783,12.941c-0.493-0.252-0.863-0.624-1.116-1.116
	C113.158,12.077,113.53,12.45,113.783,12.941z"/>
<path fill-rule="evenodd" clip-rule="evenodd" fill="#333333" d="M93.158,14.613c-0.754-0.25,0.128-1.131,0.835-0.836
	c-0.044,0.327-0.507,0.235-0.835,0.278C93.158,14.241,93.158,14.427,93.158,14.613z"/>
<path fill-rule="evenodd" clip-rule="evenodd" fill="#333333" d="M69.189,9.039c0.951,0.719,1.789,1.555,2.508,2.508
	C70.744,10.828,69.908,9.992,69.189,9.039z"/>
<path fill-rule="evenodd" clip-rule="evenodd" fill="#191919" d="M62.22,2.071c2.44,2.206,4.761,4.529,6.969,6.967
	c-0.569-0.082-0.547-0.754-1.116-0.836C66.286,5.996,64.008,4.279,62.22,2.071z"/>
<path fill-rule="evenodd" clip-rule="evenodd" fill="#BCBCBC" d="M61.664,1.792c0.225,0.053,0.277,0.28,0.557,0.279
	c1.788,2.208,4.066,3.924,5.853,6.131C65.82,6.182,63.684,4.045,61.664,1.792z"/>
<path fill-rule="evenodd" clip-rule="evenodd" fill="#767676" d="M9.544,12.941c0.346-0.583,0.811-1.047,1.393-1.394
	C10.592,12.13,10.127,12.595,9.544,12.941z"/>
<path fill-rule="evenodd" clip-rule="evenodd" fill="#333333" d="M67.795,11.547c1.416,1.185,2.719,2.485,3.902,3.902
	C70.279,14.265,68.979,12.964,67.795,11.547z"/>
<path fill-rule="evenodd" clip-rule="evenodd" fill="#767676" d="M60.27,4.021c2.625,2.393,5.134,4.901,7.525,7.525
	C65.17,9.155,62.662,6.646,60.27,4.021z"/>
<path fill-rule="evenodd" clip-rule="evenodd" fill="#333333" d="M109.881,44.993c0.166-0.577-0.345-1.831,0.278-1.951
	c0.002,0.739-0.106,1.592,0.278,1.951C110.251,44.993,110.066,44.993,109.881,44.993z"/>
<path fill-rule="evenodd" clip-rule="evenodd" fill="#333333" d="M30.727,10.711c0.583,0.118,0.738-0.191,1.115-0.278
	c0.28,0.838-0.621,0.494-1.115,0.557C30.727,10.897,30.727,10.804,30.727,10.711z"/>
<path fill-rule="evenodd" clip-rule="evenodd" fill="#767676" d="M93.993,13.777c0.938-0.286,0.435,0.867,0.558,1.394
	c0,0.464,0,0.929,0,1.394c-0.441,0.023-1.063-0.134-1.114,0.278c-0.93,0-1.859,0-2.787,0c0-0.092,0-0.185,0-0.278
	c0.836,0,1.671,0,2.509,0c0.452,0.199,0.452-1.314,0-1.115c0-0.279,0-0.558,0-0.836c0-0.186,0-0.372,0-0.558
	C93.486,14.012,93.949,14.104,93.993,13.777z"/>
<path fill-rule="evenodd" clip-rule="evenodd" fill="#767676" d="M31.284,5.137c0.093,0,0.186,0,0.279,0
	c0.571-0.544,0.358-1.872,0.836-2.509c0.787-0.23,0.722,0.393,1.393,0.279c0,1.114-0.557,1.673-0.557,2.787
	c-0.655-0.088-1.046-0.44-1.952-0.278C31.284,5.322,31.284,5.229,31.284,5.137z"/>
<path fill-rule="evenodd" clip-rule="evenodd" fill="#BCBCBC" d="M22.922,7.088c0.663-0.463,3.239-0.463,3.902,0
	C25.524,7.088,24.223,7.088,22.922,7.088z"/>
<path fill-rule="evenodd" clip-rule="evenodd" fill="#767676" d="M30.727,10.711c-0.186,0-0.372,0-0.558,0
	c0.255-0.953,0.418-1.997,0.836-2.787c0.193,0.549,1.555-0.069,1.672,0.558c-0.701,0.228-0.389,1.469-0.836,1.951
	C31.465,10.52,31.309,10.829,30.727,10.711z"/>
<path fill-rule="evenodd" clip-rule="evenodd" fill="#333333" d="M107.929,10.989c0.125-0.459,2.105-0.459,2.23,0
	C109.416,10.989,108.672,10.989,107.929,10.989z"/>
<path fill-rule="evenodd" clip-rule="evenodd" fill="#333333" d="M108.208,13.777c-0.045-0.458,1.719-0.458,1.673,0
	C109.323,13.777,108.767,13.777,108.208,13.777z"/>
<path fill-rule="evenodd" clip-rule="evenodd" fill="#333333" d="M86.747,16.285c0.491,0.161,1.637-0.337,1.673,0.279
	c-0.557,0-1.116,0-1.673,0C86.747,16.471,86.747,16.378,86.747,16.285z"/>
<path fill-rule="evenodd" clip-rule="evenodd" fill="#333333" d="M95.109,19.63c0.603-0.047,0.126,0.988,0.278,1.393
	C94.783,21.07,95.262,20.034,95.109,19.63z"/>
<path fill-rule="evenodd" clip-rule="evenodd" fill="#333333" d="M93.715,19.909c0.605-0.047,0.126,0.988,0.278,1.394
	C93.391,21.349,93.867,20.314,93.715,19.909z"/>
<path fill-rule="evenodd" clip-rule="evenodd" fill="#767676" d="M95.388,21.023c0,0.372,0,0.743,0,1.116c-0.465,0-0.93,0-1.395,0
	c0-0.28,0-0.558,0-0.836c-0.152-0.405,0.327-1.44-0.278-1.394c0-0.093,0-0.186,0-0.279c0-0.093,0-0.186,0-0.279
	c0.465,0,0.93,0,1.395,0c0,0.093,0,0.186,0,0.279C95.262,20.034,94.783,21.07,95.388,21.023z"/>
<path fill-rule="evenodd" clip-rule="evenodd" fill="#767676" d="M32.12,31.056c0.941-0.73,0.525-2.819,1.116-3.901
	c1.05-0.214,1.332,0.34,2.229,0.278c-0.233,0.789-0.324,1.721-0.558,2.509c-0.378,0.087-0.231,0.698-0.279,1.114
	c0,0.187,0,0.372,0,0.559C34.069,31.151,32.561,31.637,32.12,31.056z"/>
<path fill-rule="evenodd" clip-rule="evenodd" fill="#333333" d="M34.628,31.056c0.048-0.416-0.1-1.027,0.279-1.114
	C34.884,30.383,35.041,31.005,34.628,31.056z"/>
<path fill-rule="evenodd" clip-rule="evenodd" fill="#333333" d="M31.841,34.959c-0.048,0.416,0.1,1.027-0.279,1.113
	C31.586,35.632,31.429,35.01,31.841,34.959z"/>
<path fill-rule="evenodd" clip-rule="evenodd" fill="#333333" d="M33.792,36.073c-0.023,0.442,0.134,1.064-0.278,1.116
	C33.561,36.771,33.414,36.161,33.792,36.073z"/>
<path fill-rule="evenodd" clip-rule="evenodd" fill="#333333" d="M52.744,37.746c1.253,0.048,2.381,0.222,3.345,0.558
	c0.3,2.53-0.734,3.725-1.951,4.738c-2.787,0-5.574,0-8.361,0c-0.667,0.17-2.022-0.351-2.229,0.279c-0.465,0-0.929,0-1.394,0
	c-0.405,0.152-1.44-0.326-1.394,0.278c-0.278,0-0.557,0-0.836,0c-0.441,0.022-1.063-0.135-1.114,0.278c-0.279,0-0.558,0-0.836,0
	c-0.442,0.023-1.063-0.133-1.115,0.278c-2.092,0.23-3.877,0.769-6.131,0.837c-0.441,0.022-1.063-0.135-1.115,0.278
	c-1.313,0.063-2.773,0.605-4.181,0.836c-1.39,0.228-3.006-0.152-3.902,0.837c-0.17,1.099,1.531,0.327,2.229,0.557
	c0.441-0.023,1.063,0.135,1.115-0.278c0.372,0,0.743,0,1.115,0c0.405-0.152,1.44,0.325,1.394-0.278c0.372,0,0.743,0,1.115,0
	c0.441-0.023,1.063,0.134,1.115-0.279c0.372,0,0.743,0,1.115,0c0.405-0.152,1.44,0.326,1.393-0.279c0.372,0,0.743,0,1.116,0
	c0.441-0.022,1.063,0.135,1.114-0.278c0.372,0,0.743,0,1.115,0c0.405-0.152,1.44,0.326,1.394-0.278c0.465,0,0.93,0,1.394,0
	c2.417-0.185,5.572,0.369,7.525-0.278c2.973,0,5.946,0,8.919,0c1.398-0.182,3.524,0.364,4.459-0.279
	c1.89-0.153,1.824-2.264,2.787-3.345c0.801,0.778,1.189,1.97,2.788,1.951c0,0.093,0,0.187,0,0.278
	c-1.449-0.24-1.162,1.254-1.673,1.951c-0.491,0.253-0.863,0.624-1.115,1.115c-0.417,0.326-1.14,0.347-1.394,0.836
	c-0.557,0-1.115,0-1.672,0c-2.603,0.185-5.943-0.369-8.083,0.279c-3.53,0-7.061,0-10.591,0c-0.756,0.172-2.212-0.354-2.509,0.278
	c-0.371,0-0.743,0-1.115,0c-0.405,0.153-1.44-0.326-1.394,0.278c-0.371,0-0.743,0-1.114,0c-0.441,0.023-1.063-0.134-1.115,0.279
	c-0.372,0-0.743,0-1.115,0c-0.405,0.152-1.44-0.326-1.394,0.278c-0.372,0-0.743,0-1.115,0c-0.442,0.023-1.063-0.134-1.115,0.278
	c-0.465,0-0.929,0-1.394,0c-0.441,0.023-1.063-0.134-1.114,0.28c-0.372,0-0.743,0-1.116,0c-0.441,0.021-1.063-0.135-1.114,0.278
	c-3.672,0.764-5.553-1.657-4.459-4.738c0.386-0.45,0.79-0.883,1.115-1.395c1.733-0.681,3.877-0.953,6.131-1.114
	c0.442-0.023,1.063,0.134,1.115-0.279c2.605-0.367,4.965-0.98,7.804-1.114c0.441-0.023,1.063,0.134,1.115-0.279
	c0.943-0.078,1.6-0.443,2.787-0.278c0.441-0.022,1.063,0.135,1.115-0.278c0.279,0,0.557,0,0.836,0
	c0.404-0.152,1.44,0.326,1.393-0.279c0.558,0,1.115,0,1.672,0c2.789-0.185,6.316,0.369,8.64-0.278
	c0.414-0.236,0.6-0.701,0.558-1.394C53.505,38.1,52.748,38.3,52.744,37.746z"/>
<path fill-rule="evenodd" clip-rule="evenodd" fill="#333333" d="M67.795,41.369c0.44,0.023,1.063-0.134,1.116,0.279
	c-0.373,0-0.743,0-1.116,0C67.795,41.555,67.795,41.462,67.795,41.369z"/>
<path fill-rule="evenodd" clip-rule="evenodd" fill="#333333" d="M71.419,41.648c0.44,0.022,1.062-0.134,1.114,0.278
	c-0.371,0-0.743,0-1.114,0C71.419,41.833,71.419,41.741,71.419,41.648z"/>
<path fill-rule="evenodd" clip-rule="evenodd" fill="#333333" d="M75.041,41.926c0.44,0.023,1.064-0.134,1.116,0.279
	c-0.373,0-0.743,0-1.116,0C75.041,42.113,75.041,42.019,75.041,41.926z"/>
<path fill-rule="evenodd" clip-rule="evenodd" fill="#333333" d="M108.767,42.206c-0.126-0.456,1.519-0.456,1.393,0
	C109.694,42.206,109.229,42.206,108.767,42.206z"/>
<path fill-rule="evenodd" clip-rule="evenodd" fill="#333333" d="M78.387,42.206c0.405,0.152,1.44-0.326,1.393,0.278
	C79.375,42.332,78.339,42.81,78.387,42.206z"/>
<path fill-rule="evenodd" clip-rule="evenodd" fill="#BCBCBC" d="M80.058,42.484c0.651,0,1.303,0,1.951,0c0,0.094,0,0.187,0,0.278
	C81.432,42.597,80.178,43.107,80.058,42.484z"/>
<path fill-rule="evenodd" clip-rule="evenodd" fill="#333333" d="M82.009,42.484c0.441,0.023,1.064-0.134,1.116,0.278
	c-0.373,0-0.745,0-1.116,0C82.009,42.67,82.009,42.578,82.009,42.484z"/>
<path fill-rule="evenodd" clip-rule="evenodd" fill="#333333" d="M84.518,42.762c0.577,0.167,1.831-0.345,1.951,0.279
	C85.892,42.875,84.638,43.386,84.518,42.762z"/>
<path fill-rule="evenodd" clip-rule="evenodd" fill="#333333" d="M88.977,43.042c0.441,0.023,1.064-0.134,1.114,0.279
	c-0.371,0-0.743,0-1.114,0C88.977,43.227,88.977,43.134,88.977,43.042z"/>
<path fill-rule="evenodd" clip-rule="evenodd" fill="#BCBCBC" d="M90.371,43.321c0.649,0,1.301,0,1.949,0c0,0.092,0,0.185,0,0.278
	C91.743,43.434,90.491,43.944,90.371,43.321z"/>
<path fill-rule="evenodd" clip-rule="evenodd" fill="#333333" d="M92.32,43.321c0.443,0.022,1.064-0.135,1.116,0.278
	c-0.373,0-0.743,0-1.116,0C92.32,43.505,92.32,43.413,92.32,43.321z"/>
<path fill-rule="evenodd" clip-rule="evenodd" fill="#BCBCBC" d="M93.715,43.599c0.651,0,1.3,0,1.951,0c0,0.092,0,0.186,0,0.278
	C95.089,43.712,93.835,44.222,93.715,43.599z"/>
<path fill-rule="evenodd" clip-rule="evenodd" fill="#333333" d="M95.666,43.599c0.441,0.022,1.064-0.135,1.114,0.278
	c-0.371,0-0.743,0-1.114,0C95.666,43.785,95.666,43.691,95.666,43.599z"/>
<path fill-rule="evenodd" clip-rule="evenodd" fill="#333333" d="M99.01,43.877c0.443,0.023,1.063-0.133,1.116,0.278
	C99.686,44.133,99.062,44.291,99.01,43.877z"/>
<path fill-rule="evenodd" clip-rule="evenodd" fill="#333333" d="M67.238,44.156c0.37,0,0.743,0,1.113,0c0,0.094,0,0.187,0,0.278
	C67.911,44.413,67.29,44.569,67.238,44.156z"/>
<path fill-rule="evenodd" clip-rule="evenodd" fill="#333333" d="M102.355,44.156c0.44,0.024,1.062-0.133,1.114,0.278
	C103.028,44.413,102.407,44.569,102.355,44.156z"/>
<path fill-rule="evenodd" clip-rule="evenodd" fill="#333333" d="M70.86,44.434c0.372,0,0.743,0,1.115,0c0,0.094,0,0.187,0,0.279
	C71.535,44.691,70.912,44.848,70.86,44.434z"/>
<path fill-rule="evenodd" clip-rule="evenodd" fill="#333333" d="M105.699,44.434c0.404,0.153,1.44-0.325,1.395,0.279
	C106.688,44.562,105.653,45.04,105.699,44.434z"/>
<path fill-rule="evenodd" clip-rule="evenodd" fill="#333333" d="M74.484,44.713c0.37,0,0.743,0,1.113,0c0,0.094,0,0.187,0,0.279
	C75.157,44.969,74.536,45.126,74.484,44.713z"/>
<path fill-rule="evenodd" clip-rule="evenodd" fill="#333333" d="M78.108,44.993c0.371,0,0.743,0,1.114,0c0,0.093,0,0.186,0,0.278
	C78.781,45.248,78.158,45.405,78.108,44.993z"/>
<path fill-rule="evenodd" clip-rule="evenodd" fill="#BCBCBC" d="M110.716,44.993c0.651,0,1.302,0,1.951,0c0,0.093,0,0.186,0,0.278
	C112.09,45.106,110.836,45.617,110.716,44.993z"/>
<path fill-rule="evenodd" clip-rule="evenodd" fill="#333333" d="M112.667,44.993c0.44,0.022,1.063-0.135,1.116,0.278
	c-0.373,0-0.743,0-1.116,0C112.667,45.178,112.667,45.085,112.667,44.993z"/>
<path fill-rule="evenodd" clip-rule="evenodd" fill="#333333" d="M81.452,45.271c0.37,0,0.743,0,1.114,0c0,0.093,0,0.187,0,0.279
	C82.125,45.526,81.504,45.683,81.452,45.271z"/>
<path fill-rule="evenodd" clip-rule="evenodd" fill="#333333" d="M85.074,45.55c0.579,0.165,1.831-0.345,1.951,0.278
	C86.448,45.663,85.194,46.173,85.074,45.55z"/>
<path fill-rule="evenodd" clip-rule="evenodd" fill="#333333" d="M88.42,45.829c0.371,0,0.743,0,1.114,0c0,0.092,0,0.186,0,0.278
	C89.093,46.084,88.472,46.242,88.42,45.829z"/>
<path fill-rule="evenodd" clip-rule="evenodd" fill="#333333" d="M91.764,46.107c0.373,0,0.743,0,1.116,0c0,0.094,0,0.187,0,0.278
	C92.438,46.363,91.815,46.52,91.764,46.107z"/>
<path fill-rule="evenodd" clip-rule="evenodd" fill="#333333" d="M95.109,46.385c0.37,0,0.743,0,1.114,0c0,0.094,0,0.187,0,0.279
	C95.782,46.642,95.159,46.798,95.109,46.385z"/>
<path fill-rule="evenodd" clip-rule="evenodd" fill="#333333" d="M98.731,46.665c0.577,0.166,1.831-0.344,1.951,0.279
	C100.105,46.777,98.852,47.289,98.731,46.665z"/>
<path fill-rule="evenodd" clip-rule="evenodd" fill="#333333" d="M102.077,46.944c0.577,0.165,1.831-0.345,1.949,0.278
	C103.449,47.056,102.195,47.567,102.077,46.944z"/>
<path fill-rule="evenodd" clip-rule="evenodd" fill="#333333" d="M105.421,47.222c0.577,0.166,1.831-0.345,1.951,0.278
	C106.795,47.335,105.541,47.845,105.421,47.222z"/>
<path fill-rule="evenodd" clip-rule="evenodd" fill="#333333" d="M112.11,47.78c0.37,0,0.743,0,1.113,0c0,0.093,0,0.186,0,0.278
	C112.783,48.036,112.162,48.192,112.11,47.78z"/>
<path fill-rule="evenodd" clip-rule="evenodd" fill="#BCBCBC" d="M114.618,47.78c0.93,0,1.859,0,2.787,0
	c-0.387,0.636-1.939,0.104-2.787,0.278C114.618,47.965,114.618,47.873,114.618,47.78z"/>
<path fill-rule="evenodd" clip-rule="evenodd" fill="#191919" d="M108.767,50.289c0.383,0.012,0.611-0.132,0.835-0.278
	C110.034,50.695,108.654,50.83,108.767,50.289z"/>
<path fill-rule="evenodd" clip-rule="evenodd" fill="#FFFFFF" d="M38.53,6.53c3.677-0.194,6.898-2.558,10.034-3.901
	c1.032-0.442,1.94-0.688,3.344-1.115c0.271-0.083,0.702-0.138,1.115-0.278c0.245-0.084,0.686-0.519,0.836-0.558
	c0.435-0.114,0.954,0.097,1.393,0c0.125-0.027,0.761-0.546,0.836-0.557c2.573-0.384,4.303,0.15,5.575,1.672
	c2.021,2.253,4.157,4.39,6.41,6.411c0.569,0.082,0.547,0.754,1.116,0.836c0.719,0.953,1.555,1.789,2.508,2.508
	c2.532,3.228,7.413,4.107,12.542,4.738c0.086,0.378,0.696,0.231,1.115,0.279c0.465,0,0.928,0,1.393,0c0.557,0,1.116,0,1.673,0
	c0.187,0,0.371,0,0.557,0c0.036,0.616,1.183,0.118,1.673,0.278c0.928,0,1.857,0,2.787,0c0.44-0.023,1.063,0.134,1.114-0.278
	c0.324,0.045,0.496-0.062,0.559-0.279c5.104-0.934,7.214-4.861,12.819-5.296c0.743,0,1.487,0,2.23,0
	c1.092,0.023,1.738,0.492,2.508,0.836c0.253,0.492,0.623,0.864,1.116,1.116c1.959,2.816,3.736,6.767,5.852,10.033
	c0.731,1.127,1.601,3,2.509,4.459c0.559,0.9,1.468,2.381,2.229,3.623c1.242,2.027,3.229,4.168,3.346,6.133
	c0.183,3.099-3.338,7.499-5.575,8.918c-1.549,0.983-2.653,1.377-4.738,1.673c-0.928,0-1.857,0-2.787,0c-0.465,0-0.93,0-1.395,0
	c-0.37,0-0.743,0-1.113,0c-0.093,0-0.187,0-0.278,0c-0.087-0.378-0.699-0.231-1.116-0.279c-0.835,0-1.671,0-2.508,0
	c-0.279,0-0.558,0-0.836,0c-0.12-0.623-1.374-0.112-1.951-0.278c-0.465,0-0.93,0-1.395,0c-0.118-0.623-1.372-0.113-1.949-0.278
	c-0.465,0-0.93,0-1.395,0c-0.12-0.623-1.374-0.113-1.951-0.279c-0.465,0-0.93,0-1.393,0c-0.088-0.378-0.699-0.23-1.115-0.279
	c-0.371,0-0.744,0-1.114,0c-0.095,0-0.187,0-0.28,0c-0.118-0.623-1.373-0.112-1.949-0.278c-0.373,0-0.743,0-1.116,0
	c-0.092,0-0.187,0-0.278,0c-0.12-0.623-1.375-0.113-1.951-0.278c-0.371,0-0.743,0-1.114,0c-0.465,0-0.93,0-1.395,0
	c-0.12-0.623-1.372-0.113-1.951-0.278c-0.465,0-0.928,0-1.393,0c-0.086-0.379-0.699-0.231-1.115-0.279c-0.371,0-0.744,0-1.114,0
	c-0.092,0-0.187,0-0.278,0c-0.12-0.623-1.375-0.112-1.951-0.278c-0.371,0-0.743,0-1.114,0c-0.465,0-0.93,0-1.395,0
	c-0.086-0.378-0.699-0.231-1.116-0.279c-0.37,0-0.743,0-1.113,0c-0.465,0-0.93,0-1.395,0c-0.086-0.378-0.697-0.231-1.114-0.279
	c-0.372,0-0.743,0-1.115,0c-0.463,0-0.928,0-1.393,0c-0.086-0.377-0.699-0.23-1.116-0.278c-0.37,0-0.743,0-1.113,0
	c-0.187,0-0.373,0-0.558,0c-0.12-0.623-1.375-0.112-1.951-0.278c-1.598,0.019-1.986-1.173-2.788-1.951
	c-0.275-0.654-0.489-1.369-0.558-2.229c-1.153-1.077-3.55-0.91-5.295-1.395c-0.964-0.336-2.091-0.51-3.345-0.558
	c-0.092,0-0.185,0-0.278,0c-5.828-1.326-12.015-2.292-18.116-3.345c-0.441-0.581-1.95-0.094-2.508-0.557
	c-5.207-0.934-11.334-2.07-17.001-3.066C9.211,29.79,3.054,29.5,0.347,25.204c0-0.186,0-0.372,0-0.558c0-1.021,0-2.044,0-3.066
	c0.058-1.524,1.142-2.565,1.951-3.623c0.285-0.373,0.483-0.862,0.836-1.394c0.974-1.469,2.756-3.521,4.181-5.017
	c0.86-0.626,1.604-1.369,2.23-2.229c0.784-1.086,2.79-1.667,4.459-2.508c0.382-0.192,0.515-0.671,0.836-0.836
	c0.39-0.201,0.692-0.11,1.115-0.279C17.313,5.152,18.9,4.663,21.25,4.58c2.322,0,4.645,0,6.968,0
	c1.324-0.117,2.01,0.405,3.065,0.558c0,0.092,0,0.185,0,0.278c0.905-0.162,1.297,0.19,1.952,0.278
	c1.245,0.241,2.129,0.843,3.623,0.836C36.812,6.988,38.576,6.988,38.53,6.53z M57.204,2.907c-7.415,1.04-11.175,5.734-18.953,6.41
	c-0.372,0-0.743,0-1.115,0c-1.828,0.062-2.882-0.648-4.459-0.836c-0.117-0.626-1.479-0.008-1.672-0.558
	c-1.417-0.256-2.649-0.695-4.181-0.836c-0.663-0.463-3.239-0.463-3.902,0c-5.319,0.162-8.526,2.437-11.985,4.459
	c-0.583,0.347-1.047,0.811-1.393,1.394c-2.234,3.154-5.023,5.753-6.689,9.476c-0.452-0.2-0.452,1.314,0,1.115
	c0.882,2.28,3.631,2.841,5.854,3.345c2.476,0.561,5.216,0.938,7.804,1.394c5.195,0.912,10.748,2.076,15.607,2.786
	c0.441,0.581,1.95,0.095,2.508,0.559c7.202,1.366,14.675,2.571,22.019,3.901c3.157,0.572,6.005,0.895,6.968,2.787
	c0.47,0.924,0.592,2.169,1.115,3.065c0.278,0,0.557,0,0.836,0c0.051,0.413,0.673,0.256,1.115,0.279c0.371,0,0.743,0,1.114,0
	c0.373,0,0.743,0,1.116,0c0.463,0,0.927,0,1.392,0c0.053,0.412,0.674,0.256,1.116,0.278c0.371,0,0.743,0,1.114,0
	c0.465,0,0.93,0,1.395,0c0.05,0.412,0.673,0.256,1.113,0.279c0.373,0,0.743,0,1.116,0c0.743,0,1.486,0,2.229,0
	c-0.048,0.604,0.988,0.126,1.393,0.278c0.092,0,0.187,0,0.278,0c0.12,0.623,1.374,0.113,1.951,0.278c0.371,0,0.743,0,1.116,0
	c0.465,0,0.928,0,1.393,0c0.12,0.624,1.374,0.113,1.951,0.279c0.465,0,0.93,0,1.395,0c0.05,0.412,0.673,0.255,1.113,0.279
	c0.371,0,0.743,0,1.114,0c0.094,0,0.187,0,0.28,0c0.12,0.623,1.372,0.113,1.949,0.278c0.373,0,0.743,0,1.116,0
	c0.092,0,0.187,0,0.278,0c0.12,0.623,1.374,0.113,1.951,0.278c0.371,0,0.743,0,1.114,0c0.743,0,1.486,0,2.229,0
	c0.052,0.413,0.676,0.256,1.116,0.278c0.743,0,1.486,0,2.229,0c0.052,0.413,0.673,0.257,1.114,0.278c0.743,0,1.486,0,2.229,0
	c-0.046,0.605,0.989,0.128,1.395,0.279c0.092,0,0.187,0,0.278,0c0.12,0.623,1.374,0.112,1.951,0.279c0.187,0,0.371,0,0.558,0
	c0.186,0,0.37,0,0.557,0c0.094,0,0.187,0,0.278,0c0.12,0.624,1.374,0.113,1.951,0.278c0.373,0,0.743,0,1.116,0
	c0.185,0,0.37,0,0.557,0c0.038,0.46,1.913,0.46,1.951,0c4.654-0.828,7.447-3.517,8.639-7.804c-1.248-2.212-2.7-4.756-3.9-6.689
	c-0.477-0.765-0.939-1.465-1.395-2.229c-1.296-2.18-2.847-4.865-3.9-6.689c-0.623-1.074-1.188-2.227-1.673-3.065
	c-0.473-0.814-0.888-1.439-1.395-2.229c-0.665-1.035-1.105-2.149-2.229-2.787c-0.187,0-0.371,0-0.557,0
	c0.046-0.458-1.718-0.458-1.673,0c-5.5,0.631-7.419,4.844-13.099,5.295c0,0.093,0,0.186,0,0.278c-0.465,0-0.93,0-1.395,0
	c-0.743,0-1.486,0-2.229,0c-0.278,0-0.558,0-0.836,0c0.046-0.604-0.989-0.125-1.395-0.278c-0.464,0-0.927,0-1.392,0
	c-0.56,0-1.116,0-1.673,0c-0.187,0-0.371,0-0.558,0c-0.477-0.638-2.127-0.102-3.066-0.279c-4.208-0.531-8.139-1.337-10.869-3.344
	c-1.184-1.417-2.486-2.718-3.902-3.902c-2.392-2.625-4.9-5.133-7.525-7.525c-0.722-0.299-1.036-1.007-1.951-1.114
	C58.518,2.455,57.004,2.455,57.204,2.907z"/>
<path fill-rule="evenodd" clip-rule="evenodd" fill="#333333" d="M94.551,15.17c0.757-0.199-0.199,1.314,0.559,1.115
	c-0.063,0.217-0.234,0.324-0.559,0.279C94.551,16.1,94.551,15.635,94.551,15.17z"/>
<path fill-rule="evenodd" clip-rule="evenodd" fill="#333333" d="M86.19,19.072c0.557,0,1.113,0,1.673,0c0,0.093,0,0.186,0,0.278
	C87.372,19.191,86.225,19.688,86.19,19.072z"/>
<path fill-rule="evenodd" clip-rule="evenodd" fill="#333333" d="M108.767,42.762c0,0.65,0,1.302,0,1.951c-0.095,0-0.187,0-0.28,0
	C108.652,44.136,108.142,42.882,108.767,42.762z"/>
<path fill-rule="evenodd" clip-rule="evenodd" fill="#BCBCBC" d="M21.25,4.58c1.677-0.464,5.291-0.464,6.968,0
	C25.895,4.58,23.573,4.58,21.25,4.58z"/>
<path fill-rule="evenodd" clip-rule="evenodd" fill="#767676" d="M82.566,18.793c0.939,0.177,2.59-0.359,3.066,0.279
	C84.693,18.896,83.045,19.431,82.566,18.793z"/>
<path fill-rule="evenodd" clip-rule="evenodd" fill="#BCBCBC" d="M0.347,21.581c0,1.021,0,2.044,0,3.066
	C-0.115,24.256-0.115,21.971,0.347,21.581z"/>
<path fill-rule="evenodd" clip-rule="evenodd" fill="#BCBCBC" d="M64.729,43.877c0.576,0.166,1.831-0.345,1.951,0.278
	c-0.65,0-1.302,0-1.951,0C64.729,44.064,64.729,43.97,64.729,43.877z"/>
<path fill-rule="evenodd" clip-rule="evenodd" fill="#BCBCBC" d="M79.223,44.993c0.576,0.166,1.831-0.345,1.951,0.278
	c-0.651,0-1.303,0-1.951,0C79.223,45.178,79.223,45.085,79.223,44.993z"/>
<path fill-rule="evenodd" clip-rule="evenodd" fill="#BCBCBC" d="M89.534,45.829c0.576,0.165,1.831-0.345,1.951,0.278
	c-0.649,0-1.301,0-1.951,0C89.534,46.014,89.534,45.92,89.534,45.829z"/>
<path fill-rule="evenodd" clip-rule="evenodd" fill="#BCBCBC" d="M92.88,46.107c0.576,0.166,1.831-0.345,1.949,0.278
	c-0.649,0-1.301,0-1.949,0C92.88,46.293,92.88,46.201,92.88,46.107z"/>
<path fill-rule="evenodd" clip-rule="evenodd" fill="#767676" d="M31.841,33.844c0.559,0.463,2.067-0.024,2.508,0.557
	c-0.462,0.283-0.303,1.185-0.558,1.672c-0.378,0.088-0.231,0.698-0.278,1.116c0,0.371,0,0.743,0,1.114
	c-0.958,0.122-1.563-0.11-2.23-0.278c-0.162-0.905,0.19-1.297,0.279-1.952c0.378-0.086,0.231-0.697,0.279-1.113
	C31.841,34.587,31.841,34.216,31.841,33.844z"/>
<path fill-rule="evenodd" clip-rule="evenodd" fill="#767676" d="M108.208,47.5c0.837,0,1.673,0,2.508,0c0,0.093,0,0.187,0,0.279
	c-1.272-0.158-1.032,1.197-1.114,2.23c-0.224,0.146-0.452,0.29-0.835,0.278c-0.28,0-0.559,0-0.838,0
	C108.007,49.344,108.372,48.688,108.208,47.5z"/>
</svg>
