<?xml version="1.0" encoding="utf-8"?>
<!-- Generator: Adobe Illustrator 15.0.0, SVG Export Plug-In  -->
<!DOCTYPE svg PUBLIC "-//W3C//DTD SVG 1.1//EN" "http://www.w3.org/Graphics/SVG/1.1/DTD/svg11.dtd" [
	<!ENTITY ns_flows "http://ns.adobe.com/Flows/1.0/">
]>
<svg version="1.1"
	 xmlns="http://www.w3.org/2000/svg" xmlns:xlink="http://www.w3.org/1999/xlink" xmlns:a="http://ns.adobe.com/AdobeSVGViewerExtensions/3.0/"
	 x="0px" y="0px" width="142px" height="142px" viewBox="-7.447 -45.806 142 142" enable-background="new -7.447 -45.806 142 142"
	 xml:space="preserve">
<defs>
</defs>
<path fill-rule="evenodd" clip-rule="evenodd" fill="#A4A4A4" d="M23.49,6.994c0.39-0.462,2.675-0.462,3.066,0
	C25.534,6.994,24.512,6.994,23.49,6.994z"/>
<path fill-rule="evenodd" clip-rule="evenodd" fill="#343434" d="M86.757,16.47c0-0.093,0-0.186,0-0.279
	c0.417,0.047,1.029-0.1,1.116,0.279C87.5,16.47,87.128,16.47,86.757,16.47z"/>
<path fill-rule="evenodd" clip-rule="evenodd" fill="#343434" d="M86.757,18.978c0.371,0,0.743,0,1.116,0c0,0.093,0,0.186,0,0.278
	C87.455,19.209,86.843,19.356,86.757,18.978z"/>
<path fill-rule="evenodd" clip-rule="evenodd" fill="#727272" d="M87.874,19.256c0-0.093,0-0.185,0-0.278c0.37,0,0.743,0,1.113,0
	c0,0.093,0,0.186,0,0.278C88.617,19.256,88.244,19.256,87.874,19.256z"/>
<path fill-rule="evenodd" clip-rule="evenodd" fill="#A4A4A4" d="M88.987,19.256c0-0.093,0-0.185,0-0.278c0.371,0,0.743,0,1.114,0
	c0,0.093,0,0.186,0,0.278C89.73,19.256,89.358,19.256,88.987,19.256z"/>
<path fill-rule="evenodd" clip-rule="evenodd" fill="#D5D5D5" d="M90.101,19.256c0-0.093,0-0.185,0-0.278
	c0.442,0.023,1.063-0.134,1.116,0.278C90.846,19.256,90.474,19.256,90.101,19.256z"/>
<path fill-rule="evenodd" clip-rule="evenodd" fill="#343434" d="M44.394,40.438c0.051-0.413,0.673-0.256,1.115-0.278
	c0,0.093,0,0.187,0,0.278C45.137,40.438,44.766,40.438,44.394,40.438z"/>
<path fill-rule="evenodd" clip-rule="evenodd" fill="#343434" d="M67.527,41.554c0-0.093,0-0.186,0-0.279
	c0.416,0.049,1.027-0.1,1.113,0.279C68.27,41.554,67.897,41.554,67.527,41.554z"/>
<path fill-rule="evenodd" clip-rule="evenodd" fill="#343434" d="M78.397,42.39c0-0.092,0-0.186,0-0.278
	c0.417,0.047,1.028-0.101,1.114,0.278C79.14,42.39,78.768,42.39,78.397,42.39z"/>
<path fill-rule="evenodd" clip-rule="evenodd" fill="#D5D5D5" d="M46.345,42.947c0.211-0.46,2.296-0.46,2.508,0
	C48.017,42.947,47.181,42.947,46.345,42.947z"/>
<path fill-rule="evenodd" clip-rule="evenodd" fill="#343434" d="M44.394,43.227c0-0.094,0-0.187,0-0.279c0.372,0,0.743,0,1.115,0
	C45.457,43.359,44.834,43.202,44.394,43.227z"/>
<path fill-rule="evenodd" clip-rule="evenodd" fill="#343434" d="M49.41,42.947c0.093,0,0.186,0,0.279,0c0,0.836,0,1.672,0,2.509
	c-0.093,0-0.186,0-0.279,0C49.41,44.619,49.41,43.783,49.41,42.947z"/>
<path fill-rule="evenodd" clip-rule="evenodd" fill="#727272" d="M49.689,42.947c0.372,0,0.743,0,1.115,0c0,0.836,0,1.672,0,2.509
	c-0.372,0-0.743,0-1.115,0C49.689,44.619,49.689,43.783,49.689,42.947z"/>
<path fill-rule="evenodd" clip-rule="evenodd" fill="#343434" d="M50.804,42.947c0.093,0,0.186,0,0.279,0c0,0.836,0,1.672,0,2.509
	c-0.093,0-0.186,0-0.279,0C50.804,44.619,50.804,43.783,50.804,42.947z"/>
<path fill-rule="evenodd" clip-rule="evenodd" fill="#343434" d="M71.149,44.34c0.372,0,0.743,0,1.116,0c0,0.094,0,0.187,0,0.279
	C71.848,44.572,71.237,44.72,71.149,44.34z"/>
<path fill-rule="evenodd" clip-rule="evenodd" fill="#343434" d="M55.821,45.456c0.386-0.636,1.94-0.104,2.787-0.279
	C58.221,45.813,56.668,45.28,55.821,45.456z"/>
<path fill-rule="evenodd" clip-rule="evenodd" fill="#343434" d="M81.741,45.177c0.371,0,0.743,0,1.116,0c0,0.093,0,0.187,0,0.279
	C82.438,45.408,81.827,45.555,81.741,45.177z"/>
<path fill-rule="evenodd" clip-rule="evenodd" fill="#343434" d="M38.262,45.734c-0.047-0.604,0.988-0.126,1.394-0.278
	c0,0.092,0,0.186,0,0.278C39.19,45.734,38.726,45.734,38.262,45.734z"/>
<path fill-rule="evenodd" clip-rule="evenodd" fill="#727272" d="M39.655,45.734c0-0.093,0-0.187,0-0.278c2.044,0,4.087,0,6.132,0
	c0,0.092,0,0.186,0,0.278C43.743,45.734,41.699,45.734,39.655,45.734z"/>
<path fill-rule="evenodd" clip-rule="evenodd" fill="#A4A4A4" d="M45.787,45.734c0-0.093,0-0.187,0-0.278c1.208,0,2.415,0,3.623,0
	c0,0.092,0,0.186,0,0.278C48.202,45.734,46.995,45.734,45.787,45.734z"/>
<path fill-rule="evenodd" clip-rule="evenodd" fill="#D5D5D5" d="M49.41,45.734c0-0.093,0-0.187,0-0.278c0.093,0,0.186,0,0.279,0
	c0.372,0,0.743,0,1.115,0c0.093,0,0.186,0,0.279,0c0.558,0,1.115,0,1.672,0C52.187,46.095,50.44,45.557,49.41,45.734z"/>
<path fill-rule="evenodd" clip-rule="evenodd" fill="#343434" d="M112.399,47.686c0.373,0,0.743,0,1.116,0c0,0.093,0,0.186,0,0.278
	C113.096,47.916,112.485,48.063,112.399,47.686z"/>
<path fill-rule="evenodd" clip-rule="evenodd" fill="#D5D5D5" d="M41.049,48.243c1.953-0.648,5.107-0.096,7.525-0.279
	c0,0.093,0,0.186,0,0.279C46.065,48.243,43.558,48.243,41.049,48.243z"/>
<path fill-rule="evenodd" clip-rule="evenodd" fill="#A4A4A4" d="M48.574,48.243c0-0.094,0-0.187,0-0.279
	c0.417,0.048,1.028-0.1,1.115,0.279c-0.093,0-0.186,0-0.279,0C49.131,48.243,48.853,48.243,48.574,48.243z"/>
<path fill-rule="evenodd" clip-rule="evenodd" fill="#343434" d="M55.821,48.243c0-0.094,0-0.187,0-0.279c0.929,0,1.857,0,2.787,0
	C58.221,48.6,56.668,48.068,55.821,48.243z"/>
<path fill-rule="evenodd" clip-rule="evenodd" fill="#343434" d="M38.541,48.521c0-0.093,0-0.186,0-0.278c0.372,0,0.743,0,1.115,0
	C39.604,48.655,38.982,48.498,38.541,48.521z"/>
<path fill-rule="evenodd" clip-rule="evenodd" fill="#343434" d="M49.41,48.243c0.093,0,0.186,0,0.279,0c0,0.557,0,1.114,0,1.673
	C49.073,49.881,49.571,48.732,49.41,48.243z"/>
<path fill-rule="evenodd" clip-rule="evenodd" fill="#343434" d="M51.083,49.916c-0.458,0.045-0.458-1.72,0-1.673
	C51.083,48.8,51.083,49.357,51.083,49.916z"/>
<path fill-rule="evenodd" clip-rule="evenodd" fill="#343434" d="M49.689,50.751c0.465,0,0.929,0,1.394,0
	C51.208,51.207,49.563,51.207,49.689,50.751z"/>
<path fill-rule="evenodd" clip-rule="evenodd" fill="#D5D5D5" d="M7.882,10.895c0.212-0.716,0.677-1.181,1.394-1.393
	C8.93,10.085,8.465,10.55,7.882,10.895z"/>
<path fill-rule="evenodd" clip-rule="evenodd" fill="#727272" d="M45.509,40.16c2.508,0,5.017,0,7.525,0
	c-0.045-0.325,0.062-0.496,0.279-0.557c-0.063,0.081,0.082,0.507,0,0.557c-1.656,1.001-5.567-0.166-7.804,0.278
	C45.509,40.347,45.509,40.253,45.509,40.16z"/>
<path fill-rule="evenodd" clip-rule="evenodd" fill="#343434" d="M19.031,45.177c0.252-0.491,0.624-0.862,1.115-1.115
	C19.894,44.554,19.522,44.925,19.031,45.177z"/>
<path fill-rule="evenodd" clip-rule="evenodd" fill="#343434" d="M61.952,47.128c0.252-0.491,0.624-0.862,1.115-1.115
	C62.815,46.505,62.443,46.876,61.952,47.128z"/>
<path fill-rule="evenodd" clip-rule="evenodd" fill="#727272" d="M63.625,44.34c-0.033-0.794,2.181-0.767,2.508-0.278
	C65.26,44.119,64.087,43.874,63.625,44.34z"/>
<path fill-rule="evenodd" clip-rule="evenodd" fill="#727272" d="M71.708,11.453c0.491,0.252,0.863,0.624,1.114,1.115
	C72.331,12.315,71.958,11.944,71.708,11.453z"/>
<path fill-rule="evenodd" clip-rule="evenodd" fill="#343434" d="M68.083,7.83c1.324,1.091,2.532,2.299,3.624,3.623
	c-0.366-0.098-0.438-0.49-0.837-0.558C70.109,9.707,68.847,9.018,68.083,7.83z"/>
<path fill-rule="evenodd" clip-rule="evenodd" fill="#D5D5D5" d="M62.23,2.255c2.115,1.695,3.739,3.879,5.853,5.574
	c0.764,1.188,2.025,1.877,2.787,3.065C67.875,8.131,64.995,5.251,62.23,2.255z"/>
<path fill-rule="evenodd" clip-rule="evenodd" fill="#727272" d="M9.555,12.847c0.346-0.583,0.811-1.047,1.393-1.394
	C10.602,12.036,10.138,12.5,9.555,12.847z"/>
<path fill-rule="evenodd" clip-rule="evenodd" fill="#343434" d="M121.596,42.947c0.347-0.584,0.812-1.047,1.395-1.394
	C122.644,42.137,122.179,42.602,121.596,42.947z"/>
<path fill-rule="evenodd" clip-rule="evenodd" fill="#727272" d="M121.318,31.241c0.483,0.447,0.815,1.041,1.114,1.673
	c-1.292-0.195-2.284,1.989-3.065,0.557C118.664,32.347,120.984,32.218,121.318,31.241z"/>
<path fill-rule="evenodd" clip-rule="evenodd" fill="#D5D5D5" d="M71.708,15.355c-0.669-1.096-1.839-1.691-2.508-2.788
	c1.046,0.813,1.973,1.742,2.786,2.788C71.892,15.355,71.8,15.355,71.708,15.355z"/>
<path fill-rule="evenodd" clip-rule="evenodd" fill="#343434" d="M67.527,11.174c0.733,0.289,0.939,1.105,1.673,1.393
	c0.669,1.097,1.839,1.691,2.508,2.788C70.197,14.078,68.803,12.684,67.527,11.174z"/>
<path fill-rule="evenodd" clip-rule="evenodd" fill="#727272" d="M64.182,7.83c1.232,0.998,2.347,2.114,3.345,3.345
	C66.295,10.176,65.18,9.061,64.182,7.83z"/>
<path fill-rule="evenodd" clip-rule="evenodd" fill="#727272" d="M60.559,4.207c1.046,0.812,1.975,1.741,2.788,2.787
	C62.3,6.181,61.371,5.252,60.559,4.207z"/>
<path fill-rule="evenodd" clip-rule="evenodd" fill="#727272" d="M44.672,7.551c0.372-0.465,1.239-0.434,1.672-0.836
	c0.065,1.426,1.719,2.939-0.279,3.345c-0.605-0.602-0.788-1.627-1.115-2.508C44.858,7.551,44.766,7.551,44.672,7.551z"/>
<path fill-rule="evenodd" clip-rule="evenodd" fill="#727272" d="M45.229,4.207c-0.391,0.445-0.96,0.712-1.671,0.836
	c0.114-1.323-0.951-1.465-0.836-2.788c0.671,0.114,0.606-0.509,1.394-0.278C44.331,2.875,44.697,3.624,45.229,4.207z"/>
<path fill-rule="evenodd" clip-rule="evenodd" fill="#727272" d="M20.703,7.272c0.035-0.615,1.182-0.118,1.672-0.278
	C22.341,7.609,21.193,7.112,20.703,7.272z"/>
<path fill-rule="evenodd" clip-rule="evenodd" fill="#343434" d="M107.939,10.895c0.125-0.459,2.105-0.459,2.23,0
	C109.426,10.895,108.682,10.895,107.939,10.895z"/>
<path fill-rule="evenodd" clip-rule="evenodd" fill="#D5D5D5" d="M88.708,16.47c0.649,0,1.301,0,1.951,0c0,0.093,0,0.186,0,0.278
	C90.083,16.583,88.829,17.093,88.708,16.47z"/>
<path fill-rule="evenodd" clip-rule="evenodd" fill="#727272" d="M90.66,16.47c1.301,0,2.601,0,3.901,0
	c-0.75,0.642-2.688,0.099-3.901,0.278C90.66,16.656,90.66,16.563,90.66,16.47z"/>
<path fill-rule="evenodd" clip-rule="evenodd" fill="#727272" d="M82.857,18.699c0.665,0.17,2.021-0.35,2.228,0.279
	C84.419,18.808,83.063,19.328,82.857,18.699z"/>
<path fill-rule="evenodd" clip-rule="evenodd" fill="#727272" d="M123.547,29.848c1.261-0.039,1.459-1.143,2.787-1.115
	c0.24,0.226,0.166,0.764,0.557,0.837c-0.33,1.063-1.898,0.887-2.229,1.951C124.153,31.101,124.006,30.317,123.547,29.848z"/>
<path fill-rule="evenodd" clip-rule="evenodd" fill="#727272" d="M41.049,32.635c-1.043,0.021-1.927-0.117-2.509-0.558
	c0.093,0,0.186,0,0.279,0c0.658-1.014,0.182-3.162,1.114-3.901c0.655,0.089,1.046,0.44,1.952,0.278
	C41.497,29.738,41.399,31.313,41.049,32.635z"/>
<path fill-rule="evenodd" clip-rule="evenodd" fill="#727272" d="M55.821,37.931c0.46,0.124,0.46,2.106,0,2.229
	C55.821,39.417,55.821,38.674,55.821,37.931z"/>
<path fill-rule="evenodd" clip-rule="evenodd" fill="#727272" d="M41.328,40.718C41.362,40.102,42.51,40.6,43,40.438
	C42.965,41.055,41.818,40.557,41.328,40.718z"/>
<path fill-rule="evenodd" clip-rule="evenodd" fill="#727272" d="M66.132,41.274c0.465,0,0.93,0,1.395,0c0,0.094,0,0.187,0,0.279
	C67.122,41.401,66.085,41.88,66.132,41.274z"/>
<path fill-rule="evenodd" clip-rule="evenodd" fill="#727272" d="M69.756,41.554c0.755,0.172,2.212-0.354,2.509,0.278
	C71.507,41.659,70.053,42.187,69.756,41.554z"/>
<path fill-rule="evenodd" clip-rule="evenodd" fill="#727272" d="M73.378,41.832c0.758,0.173,2.214-0.354,2.511,0.279
	C75.131,41.939,73.675,42.465,73.378,41.832z"/>
<path fill-rule="evenodd" clip-rule="evenodd" fill="#A4A4A4" d="M77.002,42.111c0.465,0,0.93,0,1.395,0c0,0.093,0,0.187,0,0.278
	C77.991,42.237,76.955,42.716,77.002,42.111z"/>
<path fill-rule="evenodd" clip-rule="evenodd" fill="#727272" d="M80.626,42.39c0.666,0.169,2.021-0.35,2.23,0.278
	C82.19,42.499,80.833,43.019,80.626,42.39z"/>
<path fill-rule="evenodd" clip-rule="evenodd" fill="#D5D5D5" d="M51.361,42.947c0.296-0.633,1.752-0.105,2.508-0.279
	C53.573,43.302,52.118,42.774,51.361,42.947z"/>
<path fill-rule="evenodd" clip-rule="evenodd" fill="#727272" d="M83.97,42.668c0.668,0.171,2.021-0.35,2.23,0.279
	C85.534,42.777,84.177,43.297,83.97,42.668z"/>
<path fill-rule="evenodd" clip-rule="evenodd" fill="#727272" d="M43,43.227c-0.047-0.605,0.988-0.127,1.394-0.279
	c0,0.093,0,0.186,0,0.279C43.929,43.227,43.464,43.227,43,43.227z"/>
<path fill-rule="evenodd" clip-rule="evenodd" fill="#727272" d="M87.592,42.947c0.668,0.17,2.023-0.351,2.23,0.279
	C89.158,43.056,87.801,43.576,87.592,42.947z"/>
<path fill-rule="evenodd" clip-rule="evenodd" fill="#727272" d="M90.938,43.227c0.666,0.169,2.021-0.351,2.23,0.278
	C92.501,43.334,91.147,43.854,90.938,43.227z"/>
<path fill-rule="evenodd" clip-rule="evenodd" fill="#727272" d="M94.282,43.505c0.668,0.17,2.023-0.35,2.23,0.278
	C95.847,43.614,94.491,44.133,94.282,43.505z"/>
<path fill-rule="evenodd" clip-rule="evenodd" fill="#727272" d="M97.627,43.783c0.665,0.17,2.021-0.35,2.23,0.278
	C99.191,43.893,97.834,44.412,97.627,43.783z"/>
<path fill-rule="evenodd" clip-rule="evenodd" fill="#727272" d="M67.527,44.062c0.757,0.174,2.212-0.354,2.508,0.278
	C69.278,44.168,67.823,44.694,67.527,44.062z"/>
<path fill-rule="evenodd" clip-rule="evenodd" fill="#727272" d="M100.971,44.062c0.667,0.17,2.021-0.35,2.23,0.278
	C102.537,44.171,101.18,44.69,100.971,44.062z"/>
<path fill-rule="evenodd" clip-rule="evenodd" fill="#A4A4A4" d="M72.265,44.34c0.404,0.153,1.44-0.325,1.394,0.279
	c-0.465,0-0.93,0-1.394,0C72.265,44.526,72.265,44.434,72.265,44.34z"/>
<path fill-rule="evenodd" clip-rule="evenodd" fill="#727272" d="M104.317,44.34c0.665,0.171,2.021-0.349,2.23,0.279
	C105.879,44.449,104.524,44.969,104.317,44.34z"/>
<path fill-rule="evenodd" clip-rule="evenodd" fill="#727272" d="M74.773,44.619c0.757,0.173,2.212-0.354,2.508,0.279
	C76.526,44.726,75.07,45.252,74.773,44.619z"/>
<path fill-rule="evenodd" clip-rule="evenodd" fill="#727272" d="M107.939,44.619c0.577,0.166,1.831-0.344,1.952,0.279
	C109.314,44.731,108.059,45.242,107.939,44.619z"/>
<path fill-rule="evenodd" clip-rule="evenodd" fill="#727272" d="M78.397,44.898c0.665,0.17,2.021-0.35,2.229,0.278
	C79.959,45.007,78.603,45.527,78.397,44.898z"/>
<path fill-rule="evenodd" clip-rule="evenodd" fill="#727272" d="M111.285,44.898c0.665,0.17,2.021-0.35,2.23,0.278
	C112.848,45.007,111.492,45.527,111.285,44.898z"/>
<path fill-rule="evenodd" clip-rule="evenodd" fill="#A4A4A4" d="M82.857,45.177c0.404,0.152,1.438-0.326,1.393,0.279
	c-0.465,0-0.93,0-1.393,0C82.857,45.363,82.857,45.27,82.857,45.177z"/>
<path fill-rule="evenodd" clip-rule="evenodd" fill="#D5D5D5" d="M114.072,45.177c0.649,0,1.3,0,1.951,0
	C115.985,45.637,114.11,45.637,114.072,45.177z"/>
<path fill-rule="evenodd" clip-rule="evenodd" fill="#727272" d="M85.365,45.456c0.665,0.169,2.021-0.351,2.228,0.278
	C86.927,45.564,85.572,46.084,85.365,45.456z"/>
<path fill-rule="evenodd" clip-rule="evenodd" fill="#727272" d="M35.753,46.013c0.035-0.615,1.183-0.118,1.672-0.278
	C37.391,46.35,36.243,45.853,35.753,46.013z"/>
<path fill-rule="evenodd" clip-rule="evenodd" fill="#727272" d="M88.708,45.734c0.665,0.17,2.021-0.35,2.229,0.278
	C90.271,45.843,88.917,46.362,88.708,45.734z"/>
<path fill-rule="evenodd" clip-rule="evenodd" fill="#727272" d="M33.246,46.291c0.034-0.614,1.182-0.118,1.671-0.278
	C34.883,46.629,33.735,46.131,33.246,46.291z"/>
<path fill-rule="evenodd" clip-rule="evenodd" fill="#727272" d="M92.052,46.013c0.758,0.173,2.212-0.354,2.509,0.278
	C93.805,46.119,92.349,46.646,92.052,46.013z"/>
<path fill-rule="evenodd" clip-rule="evenodd" fill="#727272" d="M95.676,46.291c0.665,0.171,2.021-0.35,2.23,0.279
	C97.239,46.4,95.885,46.921,95.676,46.291z"/>
<path fill-rule="evenodd" clip-rule="evenodd" fill="#727272" d="M28.507,46.85c0.035-0.616,1.183-0.118,1.672-0.279
	C30.145,47.186,28.997,46.689,28.507,46.85z"/>
<path fill-rule="evenodd" clip-rule="evenodd" fill="#727272" d="M99.02,46.57c0.667,0.17,2.023-0.349,2.229,0.279
	C100.584,46.679,99.229,47.199,99.02,46.57z"/>
<path fill-rule="evenodd" clip-rule="evenodd" fill="#727272" d="M102.366,46.85c0.665,0.169,2.021-0.35,2.229,0.278
	C103.928,46.959,102.572,47.478,102.366,46.85z"/>
<path fill-rule="evenodd" clip-rule="evenodd" fill="#727272" d="M23.769,47.406c0.035-0.616,1.183-0.118,1.672-0.278
	C25.407,47.744,24.259,47.246,23.769,47.406z"/>
<path fill-rule="evenodd" clip-rule="evenodd" fill="#727272" d="M105.709,47.128c0.667,0.169,2.021-0.35,2.229,0.278
	C107.274,47.237,105.917,47.757,105.709,47.128z"/>
<path fill-rule="evenodd" clip-rule="evenodd" fill="#727272" d="M21.539,47.406c0.464,0,0.929,0,1.394,0
	C23.058,47.862,21.414,47.862,21.539,47.406z"/>
<path fill-rule="evenodd" clip-rule="evenodd" fill="#727272" d="M109.055,47.406c0.665,0.17,2.021-0.35,2.229,0.279
	C110.618,47.516,109.261,48.035,109.055,47.406z"/>
<path fill-rule="evenodd" clip-rule="evenodd" fill="#727272" d="M37.425,48.521c0.086-0.378,0.698-0.231,1.115-0.278
	c0,0.093,0,0.186,0,0.278C38.169,48.521,37.798,48.521,37.425,48.521z"/>
<path fill-rule="evenodd" clip-rule="evenodd" fill="#727272" d="M32.409,49.079c0.034-0.616,1.182-0.118,1.672-0.279
	C34.047,49.416,32.899,48.919,32.409,49.079z"/>
<path fill-rule="evenodd" clip-rule="evenodd" fill="#727272" d="M27.67,49.636c0.035-0.615,1.183-0.118,1.673-0.278
	C29.309,49.974,28.161,49.476,27.67,49.636z"/>
<path fill-rule="evenodd" clip-rule="evenodd" fill="#727272" d="M22.933,50.194c0.035-0.616,1.182-0.119,1.672-0.278
	C24.57,50.53,23.423,50.034,22.933,50.194z"/>
<path fill-rule="evenodd" clip-rule="evenodd" fill="#FFFFFF" d="M45.229,4.207c2.05-1.166,5.745-2.817,8.919-3.624
	c3.842-0.976,6.387-0.918,8.082,1.672c2.764,2.996,5.645,5.876,8.64,8.64c0.398,0.067,0.471,0.459,0.837,0.558
	c0.251,0.492,0.623,0.863,1.114,1.115c2.753,2.45,7.366,3.04,11.984,3.624c0.12,0.624,1.374,0.113,1.951,0.279
	c0.371,0,0.743,0,1.116,0c0.278,0,0.557,0,0.835,0c0.12,0.623,1.374,0.113,1.951,0.278c1.214-0.179,3.151,0.364,3.901-0.278
	c5.246-1.072,7.566-5.07,13.378-5.575c0.743,0,1.487,0,2.23,0c2.58,0.074,3.854,2.156,5.295,4.46
	c0.232,0.371,0.314,0.994,0.559,1.393c0.567,0.931,1.603,2.23,2.229,3.345c0.253,0.451,0.301,0.948,0.558,1.394
	c0.24,0.418,0.599,0.695,0.835,1.115c0.688,1.223,1.196,2.419,1.951,3.624c0.592,0.939,1.487,2.271,1.951,3.623
	c0.459,0.47,0.605,1.253,1.114,1.673c1.086,1.359,1.715,2.502,2.509,4.18c0.236,0.499,0.509,0.578,0.559,1.395
	c0.12,2.002-1.839,5.624-3.067,6.967c-1.845,2.022-4.874,3.342-7.246,3.624c-1.301,0-2.601,0-3.9,0c-0.373,0-0.743,0-1.116,0
	c-0.371,0-0.743,0-1.114,0c-0.208-0.629-1.564-0.109-2.229-0.279c-0.373,0-0.743,0-1.116,0c-0.208-0.628-1.563-0.109-2.229-0.278
	c-0.37,0-0.743,0-1.114,0c-0.208-0.628-1.564-0.109-2.229-0.278c-0.372,0-0.743,0-1.116,0c-0.206-0.628-1.563-0.109-2.229-0.279
	c-0.37,0-0.743,0-1.113,0c-0.209-0.629-1.565-0.108-2.23-0.279c-0.372,0-0.743,0-1.115,0c-0.297-0.632-1.751-0.105-2.509-0.278
	c-0.37,0-0.743,0-1.114,0c-0.208-0.628-1.564-0.108-2.229-0.278c-0.37,0-0.743,0-1.116,0c-0.206-0.629-1.563-0.109-2.228-0.278
	c-0.372,0-0.745,0-1.115,0c0.046-0.605-0.988-0.127-1.393-0.279c-0.373,0-0.745,0-1.116,0c-0.37,0-0.743,0-1.114,0
	c-0.208-0.628-1.564-0.108-2.229-0.278c-0.372,0-0.743,0-1.116,0c-0.296-0.633-1.751-0.106-2.508-0.279c-0.371,0-0.743,0-1.114,0
	c0.047-0.604-0.989-0.126-1.394-0.279c-0.373,0-0.744,0-1.116,0c-0.371,0-0.741,0-1.114,0c-0.296-0.632-1.751-0.104-2.508-0.278
	c-0.465,0-0.93,0-1.395,0c-0.327-0.488-2.541-0.516-2.508,0.278c-0.092,0.652-0.335,1.152-0.558,1.673
	c-0.491,0.253-0.863,0.624-1.115,1.115c-0.417,0.326-1.14,0.347-1.394,0.836c-0.65,0-1.3,0-1.951,0c-0.93,0-1.858,0-2.787,0
	c-2.084,0.053-4.454-0.181-6.132,0.279c-0.086-0.379-0.698-0.231-1.115-0.279c-2.417,0.184-5.572-0.369-7.525,0.279
	c-0.465,0-0.929,0-1.394,0c-0.372,0-0.743,0-1.115,0c-0.417,0.047-1.029-0.1-1.115,0.278c-1.187,0.021-1.949,0.467-3.344,0.278
	c-0.491,0.161-1.638-0.337-1.672,0.279c-0.978,0.138-1.814,0.416-3.066,0.278c-0.49,0.16-1.638-0.337-1.673,0.278
	c-0.977,0.138-1.813,0.416-3.066,0.28c-0.49,0.159-1.637-0.338-1.672,0.278c-2.139,0.188-3.747-0.155-3.902-1.951
	c0-0.837,0-1.673,0-2.509c0-0.187,0-0.371,0-0.558c0.491-0.252,0.863-0.623,1.115-1.115c3.281-0.933,6.775-1.393,10.313-1.95
	c3.503-0.554,7.167-1.153,10.87-1.394c0.49-0.161,1.637,0.337,1.672-0.279c0.464,0,0.929,0,1.394,0c0.372,0,0.743,0,1.115,0
	c2.236-0.444,6.148,0.723,7.804-0.278c0.082-0.05-0.063-0.476,0-0.557c-0.044-2.771-3.412-2.393-5.575-2.788
	c-2.453-0.448-4.97-1.018-6.968-1.394c-0.551-0.471-1.739-0.304-2.508-0.557c-5.907-0.916-13.162-2.21-20.903-3.624
	c-3.014-0.551-7.027-1.128-10.313-1.951c-3.667-0.918-6.537-2.49-6.967-5.295c-0.508-3.31,1.554-5.498,3.065-7.525
	c1.576-2.114,2.99-4.083,4.738-5.575c0.583-0.345,1.048-0.81,1.394-1.393c0.854-1.266,2.679-1.869,4.459-2.787
	c2.057-1.061,4.133-2.358,7.804-2.229c2.137,0,4.274,0,6.411,0c3.369,0.161,5.67,1.39,8.64,1.95c0.212,0.461,2.296,0.461,2.508,0
	c1.644-0.308,2.996-0.905,4.46-1.393C44.269,4.918,44.838,4.652,45.229,4.207z M46.345,6.715c-0.433,0.403-1.301,0.372-1.672,0.836
	c-3.133,1.997-7.878,1.945-11.148,1.114c-2.437-0.619-4.766-1.51-6.968-1.672c-0.391-0.462-2.676-0.462-3.066,0
	c-0.372,0-0.743,0-1.115,0c-0.49,0.16-1.638-0.337-1.672,0.278c-4.114,0.532-6.768,2.523-9.755,4.181
	c-0.583,0.347-1.047,0.811-1.393,1.394c-0.782,1.057-1.605,2.249-2.23,3.065c-0.347,0.453-0.883,0.813-1.115,1.115
	c-0.18,0.235-0.09,0.583-0.279,0.836c-0.515,0.693-1.403,1.317-1.951,2.229c-0.603,1.004-1.325,2.163-1.115,3.345
	c0.397,2.236,4.333,3.05,7.247,3.623c3.414,0.672,7.045,1.218,9.476,1.672c7.4,1.384,13.615,2.421,18.952,3.345
	c0.582,0.44,1.466,0.578,2.509,0.558c1.895,0.389,4.264,0.673,6.688,1.115c3.588,0.655,7.804,0.936,8.083,4.181
	c0,0.743,0,1.486,0,2.229c-0.001,1.484-0.693,2.279-1.951,2.508c-0.756,0.174-2.212-0.354-2.508,0.279c-0.093,0-0.186,0-0.279,0
	s-0.186,0-0.279,0c-0.372,0-0.743,0-1.115,0c-0.093,0-0.186,0-0.279,0c-0.186,0-0.372,0-0.557,0c-0.212-0.46-2.297-0.46-2.508,0
	c-0.279,0-0.558,0-0.836,0c-0.372,0-0.743,0-1.115,0C43.988,43.1,42.953,42.621,43,43.227c-3.003,0.287-6.583,1.021-10.87,1.672
	c-2.321,0.354-6.06,0.673-8.361,1.114c-1.209,0.232-2.538,0.119-2.229,1.394c-0.125,0.456,1.519,0.456,1.394,0
	c0.279,0,0.558,0,0.836,0c0.491-0.16,1.638,0.338,1.672-0.278c0.978-0.138,1.814-0.416,3.066-0.278
	c0.49-0.16,1.638,0.336,1.672-0.279c0.977-0.138,1.814-0.415,3.066-0.279c0.489-0.16,1.637,0.338,1.671-0.278
	c0.279,0,0.558,0,0.836,0c0.49-0.16,1.638,0.337,1.672-0.278c0.279,0,0.558,0,0.836,0c0.464,0,0.929,0,1.394,0
	c2.044,0,4.087,0,6.132,0c1.208,0,2.415,0,3.623,0c1.03-0.178,2.776,0.36,3.344-0.278c1.022,0,2.044,0,3.066,0
	c0.847-0.176,2.4,0.356,2.787-0.279c0.646,0.089,1.07-0.044,1.394-0.278c1.339-1.095,1.29-3.023,3.065-3.624
	c0.905-0.305,1.644,0.02,3.065,0c-0.047,0.605,0.989,0.127,1.395,0.279c0.37,0,0.743,0,1.113,0c0.373,0,0.744,0,1.116,0
	c0.297,0.633,1.751,0.105,2.509,0.278c0.37,0,0.743,0,1.113,0c0.297,0.633,1.753,0.107,2.511,0.279c0.37,0,0.743,0,1.113,0
	c-0.048,0.604,0.988,0.126,1.395,0.278c0.371,0,0.743,0,1.114,0c0.37,0,0.743,0,1.115,0c0.207,0.629,1.563,0.109,2.23,0.278
	c0.37,0,0.743,0,1.113,0c0.207,0.629,1.563,0.109,2.23,0.279c0.465,0,0.928,0,1.392,0c0.209,0.629,1.565,0.108,2.23,0.279
	c0.372,0,0.745,0,1.115,0c0.209,0.628,1.563,0.107,2.23,0.278c0.37,0,0.743,0,1.113,0c0.209,0.628,1.565,0.109,2.23,0.278
	c0.372,0,0.743,0,1.115,0c0.207,0.629,1.563,0.109,2.23,0.278c0.37,0,0.743,0,1.113,0c0.209,0.629,1.565,0.109,2.23,0.278
	c0.372,0,0.743,0,1.115,0c0.207,0.629,1.563,0.109,2.23,0.279c0.462,0,0.927,0,1.392,0c0.12,0.623,1.375,0.112,1.952,0.279
	c0.464,0,0.929,0,1.394,0c0.207,0.629,1.563,0.108,2.23,0.278c0.184,0,0.37,0,0.557,0c0.038,0.46,1.913,0.46,1.951,0
	c2.368-0.233,3.933-1.269,5.573-2.229c0.583-0.346,1.048-0.811,1.395-1.394c0.607-1.436,1.559-2.527,1.949-4.181
	c-0.681-1.641-1.841-2.803-2.508-4.459c-0.299-0.632-0.631-1.226-1.114-1.673c-0.23-0.521-0.545-0.659-0.835-1.114
	c-0.211-0.328-0.361-0.787-0.56-1.116c-0.939-1.558-1.677-3.039-2.508-4.458c-1.347-2.298-2.454-4.232-3.9-6.689
	c-1.589-2.695-2.534-5.011-6.133-4.181c-1.795,0.415-2.382,1.014-3.624,1.672c-0.619,0.33-1.366,0.498-1.949,0.836
	c-1.263,0.728-2.298,1.711-3.624,2.229c-2.034,0.795-4.25,0.932-6.968,0.836c-0.053-0.412-0.674-0.255-1.116-0.278
	c-0.371,0-0.743,0-1.114,0c-0.37,0-0.743,0-1.113,0c-0.373,0-0.745,0-1.116,0c-0.557,0-1.114,0-1.673,0
	c-0.206-0.628-1.563-0.109-2.228-0.279c-4.161-0.113-7.093-1.457-10.313-2.508c-0.066-0.398-0.459-0.47-0.558-0.836
	c-0.813-1.046-1.74-1.975-2.786-2.788c-0.733-0.288-0.939-1.104-1.673-1.393c-0.998-1.231-2.113-2.347-3.345-3.345
	c-0.401-0.156-0.679-0.435-0.835-0.836c-0.813-1.046-1.742-1.975-2.788-2.787c-0.664-0.451-1.229-1.001-1.951-1.394
	c0.045-0.457-1.718-0.457-1.673,0C53.107,3.816,49.595,5.134,46.345,6.715z"/>
<path fill-rule="evenodd" clip-rule="evenodd" fill="#D5D5D5" d="M21.539,4.485c1.492-0.464,4.919-0.464,6.411,0
	C25.813,4.485,23.676,4.485,21.539,4.485z"/>
<path fill-rule="evenodd" clip-rule="evenodd" fill="#727272" d="M56.935,2.813c-0.045-0.457,1.718-0.457,1.673,0
	C58.05,2.813,57.493,2.813,56.935,2.813z"/>
<path fill-rule="evenodd" clip-rule="evenodd" fill="#727272" d="M36.589,6.436c0.836,0,1.672,0,2.508,0
	C38.886,6.896,36.801,6.896,36.589,6.436z"/>
<path fill-rule="evenodd" clip-rule="evenodd" fill="#727272" d="M84.806,16.191c0.651,0,1.302,0,1.951,0c0,0.093,0,0.186,0,0.279
	C86.18,16.304,84.926,16.814,84.806,16.191z"/>
<path fill-rule="evenodd" clip-rule="evenodd" fill="#727272" d="M38.262,34.865c0.769,0.253,1.958,0.086,2.508,0.557
	c-0.608,0.972-0.623,2.535-0.836,3.901c-0.958,0.122-1.562-0.109-2.229-0.278C37.697,37.458,38.413,36.595,38.262,34.865z"/>
<path fill-rule="evenodd" clip-rule="evenodd" fill="#A4A4A4" d="M19.031,45.734c0,0.836,0,1.672,0,2.509
	C18.57,48.031,18.57,45.946,19.031,45.734z"/>
<path fill-rule="evenodd" clip-rule="evenodd" fill="#A4A4A4" d="M113.515,47.686c1.3,0,2.6,0,3.9,0
	c-0.751,0.643-2.688,0.1-3.9,0.278C113.515,47.871,113.515,47.778,113.515,47.686z"/>
<path fill-rule="evenodd" clip-rule="evenodd" fill="#727272" d="M49.689,48.243c1.678-0.46,4.047-0.227,6.132-0.279
	c0,0.093,0,0.186,0,0.279c-1.579,0-3.159,0-4.738,0c-0.458-0.047-0.458,1.718,0,1.673c0,0.278,0,0.557,0,0.835
	c-0.465,0-0.929,0-1.394,0c0-0.278,0-0.557,0-0.835C49.689,49.357,49.689,48.8,49.689,48.243z"/>
</svg>
