<?xml version="1.0" encoding="utf-8"?>
<!-- Generator: Adobe Illustrator 15.0.0, SVG Export Plug-In  -->
<!DOCTYPE svg PUBLIC "-//W3C//DTD SVG 1.1//EN" "http://www.w3.org/Graphics/SVG/1.1/DTD/svg11.dtd" [
	<!ENTITY ns_flows "http://ns.adobe.com/Flows/1.0/">
]>
<svg version="1.1"
	 xmlns="http://www.w3.org/2000/svg" xmlns:xlink="http://www.w3.org/1999/xlink" xmlns:a="http://ns.adobe.com/AdobeSVGViewerExtensions/3.0/"
	 x="0px" y="0px" width="142px" height="142px" viewBox="-2.721 -4.239 142 142" enable-background="new -2.721 -4.239 142 142"
	 xml:space="preserve">
<defs>
</defs>
<path fill-rule="evenodd" clip-rule="evenodd" fill="#303030" d="M115.452,0.343c-0.044-0.458,1.719-0.458,1.673,0
	C116.568,0.343,116.011,0.343,115.452,0.343z"/>
<path fill-rule="evenodd" clip-rule="evenodd" fill="#303030" d="M121.585,5.081c0.092,0,0.186,0,0.278,0
	c-0.16,0.49,0.336,1.638-0.278,1.673C121.585,6.196,121.585,5.639,121.585,5.081z"/>
<path fill-rule="evenodd" clip-rule="evenodd" fill="#303030" d="M118.241,5.917c0.044-0.327,0.507-0.235,0.835-0.278
	c0,0.372,0,0.743,0,1.115c-0.092,0-0.187,0-0.278,0C118.77,6.316,118.834,5.787,118.241,5.917z"/>
<path fill-rule="evenodd" clip-rule="evenodd" fill="#303030" d="M118.798,9.82c0,0.372,0,0.743,0,1.115c-0.094,0-0.187,0-0.278,0
	C118.565,10.518,118.419,9.906,118.798,9.82z"/>
<path fill-rule="evenodd" clip-rule="evenodd" fill="#303030" d="M121.306,10.098c0.093,0,0.187,0,0.279,0
	c-0.049,0.417,0.1,1.029-0.279,1.115C121.306,10.841,121.306,10.47,121.306,10.098z"/>
<path fill-rule="evenodd" clip-rule="evenodd" fill="#6F6F6F" d="M118.52,10.935c0.092,0,0.185,0,0.278,0c0,0.372,0,0.743,0,1.115
	c-0.094,0-0.187,0-0.278,0C118.52,11.678,118.52,11.306,118.52,10.935z"/>
<path fill-rule="evenodd" clip-rule="evenodd" fill="#D3D3D3" d="M121.306,11.771c0,0.743,0,1.486,0,2.23
	C120.846,13.876,120.846,11.894,121.306,11.771z"/>
<path fill-rule="evenodd" clip-rule="evenodd" fill="#303030" d="M101.238,26.264c0.461,0.124,0.461,2.105,0,2.229
	C101.238,27.75,101.238,27.006,101.238,26.264z"/>
<path fill-rule="evenodd" clip-rule="evenodd" fill="#303030" d="M98.451,26.542c0.092,0,0.187,0,0.278,0
	c-0.16,0.49,0.337,1.638-0.278,1.672C98.451,27.657,98.451,27.1,98.451,26.542z"/>
<path fill-rule="evenodd" clip-rule="evenodd" fill="#303030" d="M118.52,33.231c-0.126-0.455,1.519-0.455,1.393,0
	C119.447,33.231,118.984,33.231,118.52,33.231z"/>
<path fill-rule="evenodd" clip-rule="evenodd" fill="#303030" d="M91.762,33.789c0-0.093,0-0.186,0-0.279c0.373,0,0.743,0,1.116,0
	C92.825,33.923,92.202,33.765,91.762,33.789z"/>
<path fill-rule="evenodd" clip-rule="evenodd" fill="#A3A3A3" d="M80.615,35.74c0.122-0.46,2.105-0.46,2.229,0
	C82.1,35.74,81.358,35.74,80.615,35.74z"/>
<path fill-rule="evenodd" clip-rule="evenodd" fill="#303030" d="M91.483,36.297c0.557,0,1.116,0,1.673,0
	C93.202,36.754,91.438,36.754,91.483,36.297z"/>
<path fill-rule="evenodd" clip-rule="evenodd" fill="#D3D3D3" d="M98.173,59.43c0.571-0.462,3.051-0.462,3.622,0
	C100.589,59.43,99.381,59.43,98.173,59.43z"/>
<path fill-rule="evenodd" clip-rule="evenodd" fill="#303030" d="M103.189,59.43c0.372,0,0.743,0,1.116,0
	C104.504,59.882,102.989,59.882,103.189,59.43z"/>
<path fill-rule="evenodd" clip-rule="evenodd" fill="#303030" d="M84.516,80.055c0-0.094,0-0.187,0-0.279
	c0.417,0.048,1.029-0.1,1.116,0.279C85.259,80.055,84.889,80.055,84.516,80.055z"/>
<path fill-rule="evenodd" clip-rule="evenodd" fill="#D3D3D3" d="M43.545,86.465c0,0.371,0,0.743,0,1.114
	C43.093,87.779,43.093,86.265,43.545,86.465z"/>
<path fill-rule="evenodd" clip-rule="evenodd" fill="#303030" d="M62.219,91.483c-0.125-0.456,1.52-0.456,1.394,0
	C63.148,91.483,62.684,91.483,62.219,91.483z"/>
<path fill-rule="evenodd" clip-rule="evenodd" fill="#303030" d="M65.285,109.598c0.452-0.2,0.452,1.314,0,1.115
	C65.285,110.341,65.285,109.97,65.285,109.598z"/>
<path fill-rule="evenodd" clip-rule="evenodd" fill="#D3D3D3" d="M44.103,113.221c0.455-0.125,0.455,1.519,0,1.394
	C44.103,114.15,44.103,113.686,44.103,113.221z"/>
<path fill-rule="evenodd" clip-rule="evenodd" fill="#303030" d="M26.822,130.501c0-0.093,0-0.186,0-0.279c1.022,0,2.044,0,3.066,0
	c0,0.094,0,0.187,0,0.279C28.867,130.501,27.844,130.501,26.822,130.501z"/>
<path fill-rule="evenodd" clip-rule="evenodd" fill="#303030" d="M26.544,133.01c1.115,0,2.23,0,3.344,0
	C29.408,133.472,27.025,133.472,26.544,133.01z"/>
<path fill-rule="evenodd" clip-rule="evenodd" fill="#303030" d="M105.141,14.558c0.438-0.675,0.998-1.232,1.673-1.672
	C106.373,13.561,105.815,14.118,105.141,14.558z"/>
<path fill-rule="evenodd" clip-rule="evenodd" fill="#303030" d="M101.238,17.902c0.44-0.675,0.997-1.232,1.673-1.672
	C102.472,16.905,101.913,17.463,101.238,17.902z"/>
<path fill-rule="evenodd" clip-rule="evenodd" fill="#303030" d="M72.531,37.133c0.44-0.675,0.998-1.232,1.673-1.672
	C73.764,36.136,73.206,36.694,72.531,37.133z"/>
<path fill-rule="evenodd" clip-rule="evenodd" fill="#6F6F6F" d="M51.349,59.709c0.252-0.491,0.624-0.863,1.115-1.115
	C52.212,59.085,51.84,59.457,51.349,59.709z"/>
<path fill-rule="evenodd" clip-rule="evenodd" fill="#6F6F6F" d="M49.955,61.103c0.252-0.492,0.625-0.863,1.116-1.115
	C50.819,60.479,50.447,60.851,49.955,61.103z"/>
<path fill-rule="evenodd" clip-rule="evenodd" fill="#6F6F6F" d="M41.594,119.075c0.346-0.583,0.811-1.048,1.394-1.394
	C42.642,118.264,42.178,118.729,41.594,119.075z"/>
<path fill-rule="evenodd" clip-rule="evenodd" fill="#303030" d="M39.364,121.026c0.252-0.492,0.624-0.863,1.115-1.115
	C40.228,120.402,39.855,120.773,39.364,121.026z"/>
<path fill-rule="evenodd" clip-rule="evenodd" fill="#303030" d="M36.299,123.812c0.252-0.49,0.624-0.863,1.115-1.114
	C37.162,123.188,36.79,123.561,36.299,123.812z"/>
<path fill-rule="evenodd" clip-rule="evenodd" fill="#6F6F6F" d="M54.136,124.091c0.252-0.491,0.623-0.863,1.115-1.115
	C55,123.468,54.628,123.839,54.136,124.091z"/>
<path fill-rule="evenodd" clip-rule="evenodd" fill="#303030" d="M55.251,122.976c0.251-0.491,0.624-0.862,1.115-1.115
	C56.114,122.353,55.743,122.724,55.251,122.976z"/>
<path fill-rule="evenodd" clip-rule="evenodd" fill="#303030" d="M64.17,107.09c-0.491-0.253-0.863-0.624-1.115-1.115
	C63.546,106.226,63.918,106.598,64.17,107.09z"/>
<path fill-rule="evenodd" clip-rule="evenodd" fill="#303030" d="M59.71,95.941c0.347-0.583,0.811-1.048,1.394-1.394
	C60.758,95.13,60.293,95.595,59.71,95.941z"/>
<path fill-rule="evenodd" clip-rule="evenodd" fill="#303030" d="M76.991,91.483c0.252-0.492,0.623-0.864,1.113-1.116
	C77.854,90.859,77.481,91.23,76.991,91.483z"/>
<path fill-rule="evenodd" clip-rule="evenodd" fill="#303030" d="M87.583,79.498c0.242,0.573-0.724,1.252-0.838,0.558
	C87.362,80.208,87.142,79.523,87.583,79.498z"/>
<path fill-rule="evenodd" clip-rule="evenodd" fill="#303030" d="M84.794,78.382c-0.044-0.323,0.063-0.496,0.278-0.557
	c-0.433,0.99,0.948,0.168,0.838,0.836C85.327,78.779,85.171,78.47,84.794,78.382z"/>
<path fill-rule="evenodd" clip-rule="evenodd" fill="#A3A3A3" d="M89.254,63.89c0.252-0.492,0.623-0.863,1.115-1.115
	C90.117,63.266,89.744,63.638,89.254,63.89z"/>
<path fill-rule="evenodd" clip-rule="evenodd" fill="#D3D3D3" d="M123.536,18.738c0.412,0.888,1.515,1.086,1.951,1.951
	C124.491,20.384,123.841,19.733,123.536,18.738z"/>
<path fill-rule="evenodd" clip-rule="evenodd" fill="#D3D3D3" d="M62.776,105.975c0.093,0,0.186,0,0.279,0
	c0.251,0.491,0.624,0.862,1.115,1.115c0.053,0.225,0.279,0.277,0.278,0.557C63.773,107.208,63.216,106.65,62.776,105.975z"/>
<path fill-rule="evenodd" clip-rule="evenodd" fill="#6F6F6F" d="M3.411,120.189c0.583,0.346,1.048,0.811,1.394,1.394
	c-0.955,0.658-1.451,2.681-2.787,1.394C2.066,121.631,3.362,121.535,3.411,120.189z"/>
<path fill-rule="evenodd" clip-rule="evenodd" fill="#D3D3D3" d="M0.902,117.959c0.491,0.251,0.863,0.624,1.115,1.115
	C1.308,119.041,0.937,118.668,0.902,117.959z"/>
<path fill-rule="evenodd" clip-rule="evenodd" fill="#303030" d="M108.206,15.394c0.252-0.491,0.623-0.863,1.115-1.115
	C109.069,14.77,108.698,15.142,108.206,15.394z"/>
<path fill-rule="evenodd" clip-rule="evenodd" fill="#303030" d="M106.535,17.066c0.25-0.491,0.623-0.863,1.113-1.115
	C107.396,16.442,107.025,16.814,106.535,17.066z"/>
<path fill-rule="evenodd" clip-rule="evenodd" fill="#303030" d="M103.468,19.574c0.252-0.491,0.623-0.863,1.116-1.115
	C104.331,18.951,103.959,19.323,103.468,19.574z"/>
<path fill-rule="evenodd" clip-rule="evenodd" fill="#303030" d="M97.895,34.625c0.438-0.675,0.997-1.233,1.671-1.672
	C99.126,33.627,98.569,34.185,97.895,34.625z"/>
<path fill-rule="evenodd" clip-rule="evenodd" fill="#303030" d="M63.612,51.626c0.252-0.492,0.624-0.863,1.115-1.115
	C64.476,51.003,64.104,51.375,63.612,51.626z"/>
<path fill-rule="evenodd" clip-rule="evenodd" fill="#D3D3D3" d="M58.596,56.922c0.252-0.492,0.624-0.863,1.115-1.115
	c-0.082,0.569-0.754,0.546-0.836,1.115C58.782,56.922,58.688,56.922,58.596,56.922z"/>
<path fill-rule="evenodd" clip-rule="evenodd" fill="#303030" d="M54.136,60.545c0.226-0.053,0.278-0.279,0.557-0.279
	c-0.251,0.491-0.623,0.863-1.114,1.115C53.677,61.015,54.07,60.942,54.136,60.545z"/>
<path fill-rule="evenodd" clip-rule="evenodd" fill="#D3D3D3" d="M53.021,61.66c0.251-0.491,0.624-0.863,1.115-1.115
	c-0.066,0.397-0.459,0.47-0.557,0.836C53.353,61.434,53.301,61.661,53.021,61.66z"/>
<path fill-rule="evenodd" clip-rule="evenodd" fill="#D3D3D3" d="M51.627,63.332c0.019-0.817,0.638-1.035,1.116-1.393
	C52.461,62.493,52.261,63.129,51.627,63.332z"/>
<path fill-rule="evenodd" clip-rule="evenodd" fill="#6F6F6F" d="M107.092,42.986c0.345-0.583,0.81-1.047,1.393-1.393
	C108.14,42.176,107.675,42.64,107.092,42.986z"/>
<path fill-rule="evenodd" clip-rule="evenodd" fill="#303030" d="M114.06,36.576c0.251-0.491,0.623-0.863,1.114-1.115
	C114.923,35.952,114.551,36.324,114.06,36.576z"/>
<path fill-rule="evenodd" clip-rule="evenodd" fill="#A3A3A3" d="M115.452,35.182c0.252-0.491,0.625-0.863,1.116-1.115
	C116.315,34.559,115.945,34.931,115.452,35.182z"/>
<path fill-rule="evenodd" clip-rule="evenodd" fill="#303030" d="M51.627,71.972c0.079,0.45-0.263,0.479-0.278,0.836
	c-0.324,0.046-0.496-0.062-0.558-0.279C51.41,72.683,51.189,71.998,51.627,71.972z"/>
<path fill-rule="evenodd" clip-rule="evenodd" fill="#303030" d="M58.875,56.922c0.082-0.569,0.754-0.546,0.836-1.115
	c0.568-0.082,0.546-0.754,1.115-0.836C60.292,55.739,59.642,56.389,58.875,56.922z"/>
<path fill-rule="evenodd" clip-rule="evenodd" fill="#6F6F6F" d="M81.729,79.776c0-0.093,0-0.186,0-0.278
	c-0.763-0.631-3.123,0.336-2.508-1.672c0.763-0.835,1.841,0.371,3.065,0C82.178,78.552,82.144,79.354,81.729,79.776z"/>
<path fill-rule="evenodd" clip-rule="evenodd" fill="#D3D3D3" d="M43.545,120.747c0.252-0.491,0.623-0.863,1.114-1.115
	c-0.082,0.569-0.753,0.547-0.836,1.115C43.731,120.747,43.638,120.747,43.545,120.747z"/>
<path fill-rule="evenodd" clip-rule="evenodd" fill="#303030" d="M40.758,123.534c0.251-0.491,0.624-0.863,1.115-1.114
	C41.622,122.91,41.25,123.282,40.758,123.534z"/>
<path fill-rule="evenodd" clip-rule="evenodd" fill="#6F6F6F" d="M6.755,119.631c-0.635-0.387-1.08-0.964-1.672-1.394
	c0.093,0,0.186,0,0.279,0c0.657-0.802,1.084-2.458,2.508-1.672C8.672,117.662,6.017,118.599,6.755,119.631z"/>
<path fill-rule="evenodd" clip-rule="evenodd" fill="#D3D3D3" d="M52.185,122.419c0.347-0.583,0.811-1.048,1.394-1.394
	C53.233,121.609,52.769,122.073,52.185,122.419z"/>
<path fill-rule="evenodd" clip-rule="evenodd" fill="#303030" d="M51.627,122.698c0.627-0.86,1.37-1.604,2.23-2.23
	c-0.053,0.226-0.279,0.279-0.278,0.559c-0.583,0.346-1.047,0.811-1.394,1.394C51.96,122.472,51.908,122.699,51.627,122.698z"/>
<path fill-rule="evenodd" clip-rule="evenodd" fill="#6F6F6F" d="M61.104,107.925c0.582,0.347,1.047,0.811,1.393,1.395
	C61.915,108.973,61.45,108.509,61.104,107.925z"/>
<path fill-rule="evenodd" clip-rule="evenodd" fill="#303030" d="M43.824,120.747c0.083-0.568,0.754-0.546,0.836-1.115
	c0.093,0,0.187,0,0.279,0C44.688,120.124,44.315,120.495,43.824,120.747z"/>
<path fill-rule="evenodd" clip-rule="evenodd" fill="#303030" d="M115.73,3.13c-0.124-0.456,1.521-0.456,1.395,0
	C116.66,3.13,116.195,3.13,115.73,3.13z"/>
<path fill-rule="evenodd" clip-rule="evenodd" fill="#6F6F6F" d="M121.306,3.688c0.998-0.077,2.166-0.975,3.065-0.279
	c0,0.186,0,0.372,0,0.558c-0.124,1.084-1.582,0.833-2.508,1.114c-0.093,0-0.187,0-0.278,0
	C121.814,4.294,121.191,4.359,121.306,3.688z"/>
<path fill-rule="evenodd" clip-rule="evenodd" fill="#A3A3A3" d="M119.076,6.754c-0.16,0.49,0.337,1.637-0.278,1.672
	c0-0.558,0-1.115,0-1.672C118.89,6.754,118.984,6.754,119.076,6.754z"/>
<path fill-rule="evenodd" clip-rule="evenodd" fill="#A3A3A3" d="M121.585,8.426c0,0.558,0,1.115,0,1.672c-0.093,0-0.187,0-0.279,0
	C121.467,9.608,120.97,8.461,121.585,8.426z"/>
<path fill-rule="evenodd" clip-rule="evenodd" fill="#A3A3A3" d="M118.798,12.049c0,0.929,0,1.858,0,2.787
	c-0.635-0.386-0.104-1.94-0.278-2.787C118.611,12.049,118.704,12.049,118.798,12.049z"/>
<path fill-rule="evenodd" clip-rule="evenodd" fill="#A3A3A3" d="M135.799,30.165c0.459,0.038,0.459,1.914,0,1.952
	C135.799,31.466,135.799,30.816,135.799,30.165z"/>
<path fill-rule="evenodd" clip-rule="evenodd" fill="#6F6F6F" d="M86.467,33.231c0.758,0.173,2.212-0.354,2.509,0.279
	C88.22,33.337,86.764,33.864,86.467,33.231z"/>
<path fill-rule="evenodd" clip-rule="evenodd" fill="#A3A3A3" d="M90.091,33.51c0.558,0,1.114,0,1.671,0c0,0.093,0,0.186,0,0.279
	C91.273,33.628,90.125,34.125,90.091,33.51z"/>
<path fill-rule="evenodd" clip-rule="evenodd" fill="#6F6F6F" d="M84.237,35.74c0.667,0.17,2.021-0.35,2.229,0.278
	C85.8,35.849,84.445,36.368,84.237,35.74z"/>
<path fill-rule="evenodd" clip-rule="evenodd" fill="#303030" d="M118.52,36.018c-0.126-0.455,1.519-0.455,1.393,0
	C119.447,36.018,118.984,36.018,118.52,36.018z"/>
<path fill-rule="evenodd" clip-rule="evenodd" fill="#6F6F6F" d="M87.861,36.018c0.665,0.17,2.021-0.35,2.229,0.279
	C89.424,36.127,88.067,36.647,87.861,36.018z"/>
<path fill-rule="evenodd" clip-rule="evenodd" fill="#A3A3A3" d="M127.438,36.018c0.371,0,0.743,0,1.114,0
	C128.751,36.47,127.238,36.47,127.438,36.018z"/>
<path fill-rule="evenodd" clip-rule="evenodd" fill="#A3A3A3" d="M107.648,48.282c0,0.65,0,1.3,0,1.951
	C107.19,50.195,107.19,48.32,107.648,48.282z"/>
<path fill-rule="evenodd" clip-rule="evenodd" fill="#6F6F6F" d="M101.238,56.643c1.115,0,2.229,0,3.346,0
	c-0.569,0.64-2.316,0.101-3.346,0.279C101.238,56.829,101.238,56.736,101.238,56.643z"/>
<path fill-rule="evenodd" clip-rule="evenodd" fill="#6F6F6F" d="M45.496,68.627c-0.354,0.854-0.395,2.021-0.836,2.787
	c-0.069-0.102,0.092-0.482,0-0.558c-0.977-0.807-2.783-0.837-3.901-1.393c0.309-0.528,0.355-1.317,0.557-1.952
	C43.06,67.533,43.979,68.379,45.496,68.627z"/>
<path fill-rule="evenodd" clip-rule="evenodd" fill="#6F6F6F" d="M47.447,71.694c0.177-0.938,0.198-2.032,0.836-2.508
	c0,0.092,0,0.185,0,0.278c0.985,0.838,4.547,0.388,3.344,2.508c-0.438,0.025-0.218,0.711-0.836,0.557
	C49.417,72.512,48.823,71.71,47.447,71.694z"/>
<path fill-rule="evenodd" clip-rule="evenodd" fill="#6F6F6F" d="M44.381,73.087c-0.152,0.404,0.326,1.44-0.278,1.394
	C44.255,74.076,43.777,73.041,44.381,73.087z"/>
<path fill-rule="evenodd" clip-rule="evenodd" fill="#6F6F6F" d="M46.89,74.481c-0.166,0.576,0.345,1.831-0.278,1.951
	C46.777,75.854,46.267,74.601,46.89,74.481z"/>
<path fill-rule="evenodd" clip-rule="evenodd" fill="#6F6F6F" d="M84.516,79.776c-0.114-0.672,0.509-0.605,0.278-1.394
	c0.377,0.088,0.533,0.396,1.116,0.279c0.557,0,1.113,0,1.673,0c0,0.278,0,0.557,0,0.836c-0.441,0.025-0.221,0.711-0.838,0.558
	c-0.37,0-0.743,0-1.113,0C85.545,79.676,84.933,79.824,84.516,79.776z"/>
<path fill-rule="evenodd" clip-rule="evenodd" fill="#6F6F6F" d="M64.448,91.483c0.578,0.165,1.832-0.346,1.952,0.278
	C65.822,91.594,64.569,92.106,64.448,91.483z"/>
<path fill-rule="evenodd" clip-rule="evenodd" fill="#303030" d="M61.94,94.269c-0.047-0.604,0.988-0.126,1.394-0.278
	c0,0.092,0,0.186,0,0.278C62.869,94.269,62.404,94.269,61.94,94.269z"/>
<path fill-rule="evenodd" clip-rule="evenodd" fill="#6F6F6F" d="M63.334,93.991c0.441,0.023,1.063-0.134,1.114,0.278
	c-0.371,0-0.743,0-1.114,0C63.334,94.176,63.334,94.083,63.334,93.991z"/>
<path fill-rule="evenodd" clip-rule="evenodd" fill="#6F6F6F" d="M46.89,111.549c-0.18,1.213,0.364,3.15-0.278,3.902
	C46.791,114.237,46.248,112.3,46.89,111.549z"/>
<path fill-rule="evenodd" clip-rule="evenodd" fill="#6F6F6F" d="M0.345,114.615c0,0.743,0,1.486,0,2.229
	C-0.115,116.721-0.115,114.739,0.345,114.615z"/>
<path fill-rule="evenodd" clip-rule="evenodd" fill="#6F6F6F" d="M58.596,116.009c-0.161,0.488,0.337,1.637-0.279,1.672
	C58.478,117.19,57.98,116.043,58.596,116.009z"/>
<path fill-rule="evenodd" clip-rule="evenodd" fill="#D3D3D3" d="M60.825,118.795c0.166-0.577-0.345-1.831,0.279-1.951
	C60.938,117.421,61.448,118.675,60.825,118.795z"/>
<path fill-rule="evenodd" clip-rule="evenodd" fill="#6F6F6F" d="M25.708,130.222c0.372,0,0.743,0,1.115,0c0,0.094,0,0.187,0,0.279
	C26.381,130.479,25.759,130.635,25.708,130.222z"/>
<path fill-rule="evenodd" clip-rule="evenodd" fill="#A3A3A3" d="M29.888,130.222c0.465,0,0.929,0,1.394,0
	c0.047,0.605-0.989,0.127-1.394,0.279C29.888,130.409,29.888,130.316,29.888,130.222z"/>
<path fill-rule="evenodd" clip-rule="evenodd" fill="#6F6F6F" d="M31.003,133.01c0.035-0.616,1.183-0.118,1.673-0.279
	C32.641,133.346,31.494,132.85,31.003,133.01z"/>
<path fill-rule="evenodd" clip-rule="evenodd" fill="#FFFFFF" d="M106.813,12.885c0.793-1.363,2.003-2.307,2.787-4.181
	c0.553-1.324,0.631-2.873,1.113-4.18c0.465-1.254,0.903-2.604,1.951-3.345c0.329-0.232,0.743-0.089,1.116-0.279
	c0.341-0.175,0.627-0.789,1.671-0.557c0.559,0,1.116,0,1.673,0c2.318,0.191,3.492,1.524,4.181,3.345
	c-0.114,0.671,0.509,0.606,0.279,1.393c0,0.558,0,1.115,0,1.673c0,0.557,0,1.114,0,1.672c-0.615,0.035-0.118,1.183-0.279,1.672
	c0,0.372,0,0.743,0,1.115c0,0.186,0,0.372,0,0.558c-0.46,0.124-0.46,2.105,0,2.23c0.552,1.772,1.272,3.372,2.23,4.738
	c0.305,0.995,0.955,1.646,1.951,1.951c2.753,2.265,5.407,4.542,8.082,6.968c0.801,0.726,1.995,1.265,2.229,2.508
	c0,0.651,0,1.301,0,1.952c-0.135,1.194-1.225,1.826-1.951,2.787c-0.854,1.131-2.224,2.613-3.622,3.624c-0.187,0-0.373,0-0.56,0
	c-1.021,0-2.043,0-3.064,0c-2.417-0.65-4.608-1.525-6.689-2.509c0.126-0.455-1.519-0.455-1.393,0
	c-2.114,1.616-3.128,4.093-5.297,5.853c-1.048,0.851-1.97,1.124-3.065,1.951c-0.64,0.483-0.979,1.229-1.673,1.951
	c-0.234,0.244-0.605,1.718-0.836,2.508c-0.458,0.038-0.458,1.913,0,1.951c0.237,1.251,0.598,2.376,0.558,3.902
	c0,0.65,0,1.301,0,1.952c-0.391,2.025-1.505,3.326-3.9,3.344c-0.373,0-0.744,0-1.116,0c-0.465,0-0.93,0-1.395,0
	c-0.571-0.462-3.051-0.462-3.622,0c-2.332,0.499-4.189,1.011-6.133,2.229c-0.57,0.359-0.901,1.077-1.671,1.115
	c-0.492,0.252-0.863,0.623-1.115,1.115c-0.573,1.477-1.855,2.519-2.509,4.18c-1.094,2.784-0.991,6.362-1.673,9.756
	c-0.216,0.061-0.322,0.233-0.278,0.557c0.23,0.788-0.393,0.722-0.278,1.394c0,0.093,0,0.186,0,0.279
	c0.026,1.009-0.318,1.794-0.557,2.508c-0.239,0.71-0.407,1.631-0.836,2.23c-0.859,1.197-2.61,1.371-3.624,2.508
	c-0.808,0.906-0.635,1.854-1.395,3.065c-0.49,0.252-0.861,0.624-1.113,1.116c-2.252,1.371-4.532,2.714-8.083,2.786
	c-1.208,0-2.415,0-3.623,0c-0.279,0-0.557,0-0.836,0c-0.051-0.412-0.673-0.255-1.114-0.278c-0.405,0.152-1.441-0.326-1.394,0.278
	c-0.224,0.147-0.453,0.291-0.836,0.278c-0.583,0.346-1.047,0.811-1.394,1.394c-1.017,1.492-2.407,2.61-3.344,4.182
	c2.038,2.05,4.524,3.649,6.41,5.853c0.44,0.675,0.997,1.232,1.672,1.672c0.649,0.28,0.899,0.96,0.836,1.951c0,0.372,0,0.743,0,1.115
	c-0.638,2.8-3.227,3.648-4.18,6.131c-0.624,0.12-0.113,1.374-0.279,1.951c-0.178,2.331-3.676,1.341-4.459,3.065
	c-0.491,0.253-0.863,0.624-1.115,1.115c-0.492,0.252-0.863,0.624-1.115,1.115c-1.709,1.817-3.977,3.134-6.689,4.181
	c-0.899,0.347-1.867,0.495-2.788,0.837c-0.143,0.053-0.453,0.525-0.557,0.557c-3.458,1.045-7.077,2.682-11.427,3.065
	c-0.49,0.161-1.638-0.337-1.673,0.279c-0.372,0-0.743,0-1.115,0c-1.114,0-2.229,0-3.344,0c-10.464-0.593-15.058-7.054-21.739-11.428
	c-0.346-0.583-0.811-1.048-1.394-1.394c-0.817-0.019-1.035-0.637-1.393-1.114c-0.252-0.491-0.624-0.864-1.115-1.115
	c-0.49-0.067-0.635-0.479-0.557-1.115c0-0.743,0-1.486,0-2.229c0.074-1.319,1.217-1.568,1.672-2.508c0.279,0,0.557,0,0.835,0
	c0.836,0,1.672,0,2.509,0c1.521-0.043,2.814,0.734,4.181,1.114c1.402,0.389,2.83,0.468,4.181,0.837
	c0.646,0.175,1.281,0.661,1.951,0.835c0.743,0.193,1.491,0.075,2.23,0.279c0.148,0.04,0.731,0.534,0.836,0.558
	c1.216,0.273,2.463,0.345,3.623,0.836c1.372,0.582,2.957,2.079,4.459,3.065c1.411,0.927,2.906,2.012,4.46,3.066
	c1.783,1.211,3.07,2.401,5.017,1.114c0.491-0.251,0.863-0.624,1.115-1.114c0.822-0.386,1.128-1.287,1.951-1.672
	c0.491-0.253,0.864-0.624,1.115-1.115c0.568-0.082,0.547-0.754,1.115-0.836c0.583-0.346,1.047-0.811,1.394-1.394
	c0.313-1.081,0.848-1.939,1.115-3.066c0.455,0.125,0.455-1.519,0-1.394c-0.693-3.543,1.851-5.706,3.902-8.082
	c1.49-1.727,2.92-3.323,4.18-4.738c-3.617-3.723-8.369-6.31-11.148-10.87c0-0.371,0-0.743,0-1.114c0-0.93,0-1.858,0-2.788
	c0.022-0.084-0.029-0.195,0-0.278c1.178-3.404,3.106-6.316,3.066-10.869c0.604,0.047,0.126-0.989,0.278-1.394
	c-0.037-0.688-0.042-1.344,0.278-1.673c0.441-0.767,0.482-1.934,0.836-2.787c0.924-3.07,2.516-5.474,4.459-7.525
	c0.492-0.252,0.864-0.624,1.116-1.115c-0.052-0.237,0.108-0.262,0.278-0.278c0.491-0.252,0.863-0.624,1.115-1.115
	c7.774-6.069,13.405-14.28,20.067-21.461c0.675-0.439,1.232-0.998,1.673-1.672c1.505-0.91,2.706-2.123,5.017-2.23
	c2.043,0,4.087,0,6.132,0c0.371,0,0.744,0,1.114,0c0.297,0.633,1.753,0.106,2.509,0.279c0.37,0,0.743,0,1.115,0
	c0.034,0.616,1.183,0.118,1.671,0.279c0.44-0.024,1.063,0.134,1.116-0.279c3.285-0.338,5.042-2.204,5.573-5.295
	c0.615-0.035,0.118-1.183,0.278-1.672c0-0.929,0-1.858,0-2.787c0.076-2.711,1.305-4.271,2.509-5.853
	c0.675-0.439,1.233-0.997,1.673-1.672c0.767-0.533,1.462-1.139,2.229-1.672C105.815,14.118,106.373,13.561,106.813,12.885z
	 M115.73,3.13c-2.702,0.428-2.39,3.646-3.344,6.132c-0.883,2.305-2.111,3.625-3.065,5.017c-0.492,0.252-0.863,0.624-1.115,1.115
	c-0.059,0.313-0.309,0.434-0.558,0.558c-0.49,0.252-0.863,0.624-1.113,1.115c-0.735,0.382-1.058,1.173-1.951,1.394
	c-0.493,0.252-0.864,0.624-1.116,1.115c-1.3,1.672-2.186,3.759-2.229,6.689c0,0.743,0,1.486,0,2.229
	c0.048,2.093-0.916,3.172-1.673,4.46c-0.674,0.439-1.232,0.997-1.671,1.672c-1.345,0.793-2.475,1.799-4.738,1.672
	c-0.557,0-1.116,0-1.673,0c-0.465,0-0.928,0-1.393,0c-0.208-0.629-1.564-0.109-2.229-0.279c-0.465,0-0.93,0-1.395,0
	c-0.208-0.628-1.563-0.108-2.229-0.278c-0.465,0-0.93,0-1.393,0c-0.124-0.46-2.107-0.46-2.229,0
	c-1.381,0.285-2.585,0.672-3.346,1.115c-0.383,0.223-0.91,0.408-1.114,0.558c-1.04,0.755-1.767,2.17-2.789,3.344
	c-1.189,1.371-2.743,2.753-3.622,3.902c-0.535,0.7-0.986,1.134-1.394,1.672c-1.145,1.516-2.606,2.799-3.623,4.181
	c-0.491,0.252-0.863,0.624-1.115,1.115c-0.77,1.273-1.895,2.192-2.787,3.344c-0.568,0.082-0.546,0.754-1.115,0.836
	c-0.491,0.252-0.863,0.624-1.115,1.115c-1.063,1.352-2.497,2.334-3.902,3.344c-0.279,0-0.331,0.226-0.557,0.279
	c-0.491,0.252-0.863,0.624-1.115,1.115c-0.016,0.17-0.042,0.33-0.278,0.279c-0.478,0.358-1.097,0.576-1.116,1.393
	c-1.257,1.809-2.576,3.556-3.344,5.854c-0.639,0.476-0.659,1.569-0.836,2.508c-0.306,0.81-0.251,1.978-0.558,2.787
	c-0.623,0.12-0.113,1.373-0.278,1.951c-0.053,4.313-1.661,7.072-3.066,10.033c-0.452-0.2-0.452,1.313,0,1.114
	c0.533,2.16,2.064,3.393,3.344,4.46c2.528,2.105,4.853,4.14,7.247,6.131c2.519-2.329,3.935-6.493,8.083-6.688
	c0.465,0,0.929,0,1.394,0c0.279,0,0.558,0,0.836,0c0.121,0.623,1.374,0.111,1.952,0.278c3.813-0.183,6.871-1.119,9.197-2.788
	c0.795-2.734,2.312-4.748,5.019-5.574c0.296-1.281,1.018-2.139,1.113-3.623c0.415-0.422,0.449-1.224,0.558-1.95
	c0.522-11.371,4.479-19.305,14.771-20.904c1.395,0,2.789,0,4.182,0c1.029-0.178,2.776,0.361,3.346-0.279
	c1.827-0.885,0.416-2.866,0.557-5.017c0-1.487,0-2.973,0-4.46c0.162-1.882,0.966-3.122,1.951-4.181
	c0.583-0.346,1.048-0.81,1.393-1.393c0.699-0.975,1.999-1.347,3.067-1.951c0.709-1.148,1.696-2.02,2.508-3.066
	c0.491-0.251,0.863-0.624,1.114-1.115c0.016-0.17,0.042-0.33,0.278-0.279c0.493-0.251,0.863-0.624,1.116-1.115
	c0.28-0.648,0.959-0.899,1.951-0.836c0.465,0,0.928,0,1.393,0c2.809,0.629,5.046,1.829,7.526,2.787c-0.2,0.452,1.313,0.452,1.114,0
	c1.016-0.356,1.603-1.212,2.508-2.229c0.393-0.442,2.266-2.484,2.229-2.788c-0.018-0.147-2.933-2.396-3.064-2.508
	c-1.137-0.96-2.372-1.907-3.067-2.508c-0.95-0.822-1.846-1.961-2.787-2.787c-0.568-0.5-1.25-0.728-1.671-1.115
	c-1.976-1.808-3.447-4.494-3.902-7.247c0-0.929,0-1.858,0-2.787c0-0.372,0-0.743,0-1.115s0-0.743,0-1.115c0-0.465,0-0.93,0-1.394
	c0.615-0.035,0.118-1.182,0.278-1.672c0-0.372,0-0.743,0-1.115c-0.03-0.714-0.158-1.329-0.557-1.672
	c-0.493-0.25-0.813-0.673-1.395-0.836C117.251,2.675,115.606,2.675,115.73,3.13z M46.89,111.549
	c-0.642,0.751-0.099,2.688-0.278,3.902c0.063,2.013-1.007,2.895-1.672,4.18c-0.093,0-0.186,0-0.279,0
	c-0.491,0.252-0.862,0.624-1.114,1.115c-0.44,0.676-0.997,1.232-1.672,1.673c-0.491,0.251-0.863,0.623-1.115,1.114
	c-2.183,1.978-3.978,4.271-7.525,3.623c-0.966-0.176-2.21-1.185-3.345-1.951c-3.751-2.533-7.175-5.763-11.706-6.968
	c-0.784-0.208-1.495-0.361-2.229-0.557c-3.011-0.801-5.588-1.471-8.362-2.229c-1.311-0.36-2.927-1.074-4.459-0.559
	c-0.926,1.825,1.246,2.294,1.951,3.345c0.593,0.43,1.038,1.007,1.672,1.394c2.458,1.185,4.751,3.732,6.689,5.018
	c0.463,0.307,0.853,0.662,1.115,0.835c0.657,0.438,1.067,0.728,1.672,1.115c2.701,1.732,5.853,3.017,9.476,3.623
	c0.052,0.413,0.674,0.257,1.115,0.279c1.022,0,2.044,0,3.066,0c0.405-0.152,1.441,0.326,1.394-0.279
	c4.803-0.515,9.376-2.607,12.821-3.901c2.758-1.036,5.777-1.962,7.524-3.623c0.28,0.001,0.333-0.226,0.558-0.278
	c0.583-0.347,1.048-0.811,1.394-1.394c-0.001-0.279,0.225-0.333,0.278-0.559c0.889-1.526,2.473-2.357,4.459-2.786
	c0.616-0.035,0.118-1.184,0.279-1.672c0.333-3.197,3.604-3.457,3.902-6.689c-0.346-0.584-0.811-1.048-1.393-1.395
	c-2.569-1.611-4.249-4.112-6.968-5.573C51.905,105.601,48.666,107.843,46.89,111.549z"/>
<path fill-rule="evenodd" clip-rule="evenodd" fill="#D3D3D3" d="M79.221,33.231c1.398-0.463,4.731-0.463,6.132,0
	C83.308,33.231,81.264,33.231,79.221,33.231z"/>
<path fill-rule="evenodd" clip-rule="evenodd" fill="#D3D3D3" d="M126.602,38.527c1.021,0,2.043,0,3.064,0
	C129.277,38.989,126.992,38.989,126.602,38.527z"/>
<path fill-rule="evenodd" clip-rule="evenodd" fill="#D3D3D3" d="M105.141,47.167c0,1.487,0,2.973,0,4.46
	C104.678,50.78,104.678,48.013,105.141,47.167z"/>
<path fill-rule="evenodd" clip-rule="evenodd" fill="#D3D3D3" d="M2.853,112.107c0.212-0.461,2.297-0.461,2.509,0
	C4.525,112.107,3.689,112.107,2.853,112.107z"/>
<path fill-rule="evenodd" clip-rule="evenodd" fill="#6F6F6F" d="M118.52,3.967c0.398,0.344,0.526,0.958,0.557,1.672
	c-0.328,0.043-0.791-0.048-0.835,0.278c-0.968,0.126-2.088,0.688-2.23-0.558C115.955,4.005,118.219,4.967,118.52,3.967z"/>
<path fill-rule="evenodd" clip-rule="evenodd" fill="#A3A3A3" d="M97.057,56.922c0.844-0.643,2.877-0.098,4.182-0.279
	c0,0.093,0,0.186,0,0.279C99.846,56.922,98.451,56.922,97.057,56.922z"/>
<path fill-rule="evenodd" clip-rule="evenodd" fill="#A3A3A3" d="M41.037,85.628c0,0.93,0,1.858,0,2.788
	C40.575,88.116,40.575,85.929,41.037,85.628z"/>
<path fill-rule="evenodd" clip-rule="evenodd" fill="#6F6F6F" d="M98.729,23.755c0,0.929,0,1.858,0,2.787c-0.092,0-0.187,0-0.278,0
	C98.626,25.695,98.095,24.142,98.729,23.755z"/>
<path fill-rule="evenodd" clip-rule="evenodd" fill="#6F6F6F" d="M108.206,54.134c0.459,0.038,0.459,1.914,0,1.952
	C108.206,55.435,108.206,54.785,108.206,54.134z"/>
<path fill-rule="evenodd" clip-rule="evenodd" fill="#6F6F6F" d="M65.285,94.269c1.208,0,2.416,0,3.623,0
	C68.336,94.732,65.856,94.732,65.285,94.269z"/>
</svg>
