<?xml version="1.0" encoding="utf-8"?>
<!-- Generator: Adobe Illustrator 15.0.0, SVG Export Plug-In  -->
<!DOCTYPE svg PUBLIC "-//W3C//DTD SVG 1.1//EN" "http://www.w3.org/Graphics/SVG/1.1/DTD/svg11.dtd" [
	<!ENTITY ns_flows "http://ns.adobe.com/Flows/1.0/">
]>
<svg version="1.1"
	 xmlns="http://www.w3.org/2000/svg" xmlns:xlink="http://www.w3.org/1999/xlink" xmlns:a="http://ns.adobe.com/AdobeSVGViewerExtensions/3.0/"
	 x="0px" y="0px" width="142px" height="142px" viewBox="-2.721 -4.564 142 142" enable-background="new -2.721 -4.564 142 142"
	 xml:space="preserve">
<defs>
</defs>
<path fill-rule="evenodd" clip-rule="evenodd" d="M56.923,98.96c0.124-0.248,0.245-0.498,0.557-0.557
	c0.216,0.062,0.55,0.007,0.558,0.278c-0.492,0.251-0.863,0.623-1.115,1.115c-0.016,0.17-0.041,0.329-0.279,0.278
	C55.79,99.802,56.965,99.332,56.923,98.96z"/>
<path fill-rule="evenodd" clip-rule="evenodd" fill="#D6D6D6" d="M44.103,113.174c0.452-0.199,0.452,1.314,0,1.115
	C44.103,113.917,44.103,113.546,44.103,113.174z"/>
<path fill-rule="evenodd" clip-rule="evenodd" fill="#323232" d="M35.184,122.651c-0.048,0.418,0.099,1.028-0.279,1.115
	C34.953,123.349,34.806,122.737,35.184,122.651z"/>
<path fill-rule="evenodd" clip-rule="evenodd" fill="#D6D6D6" d="M34.069,124.045c0.278,0,0.557,0,0.836,0c0.093,0,0.186,0,0.279,0
	C35.384,124.497,33.87,124.497,34.069,124.045z"/>
<path fill-rule="evenodd" clip-rule="evenodd" fill="#323232" d="M26.822,130.176c0-0.093,0-0.186,0-0.279c0.929,0,1.858,0,2.788,0
	c0,0.094,0,0.187,0,0.279C28.681,130.176,27.751,130.176,26.822,130.176z"/>
<path fill-rule="evenodd" clip-rule="evenodd" fill="#323232" d="M26.544,132.685c1.115,0,2.23,0,3.344,0
	C29.408,133.147,27.025,133.147,26.544,132.685z"/>
<path fill-rule="evenodd" clip-rule="evenodd" fill="#737373" d="M41.594,118.75c0.346-0.583,0.811-1.048,1.394-1.394
	C42.642,117.939,42.178,118.404,41.594,118.75z"/>
<path fill-rule="evenodd" clip-rule="evenodd" fill="#323232" d="M39.364,120.701c0.252-0.492,0.624-0.863,1.115-1.115
	C40.228,120.077,39.855,120.448,39.364,120.701z"/>
<path fill-rule="evenodd" clip-rule="evenodd" fill="#323232" d="M36.299,123.487c0.252-0.49,0.624-0.863,1.115-1.114
	C37.162,122.863,36.79,123.236,36.299,123.487z"/>
<path fill-rule="evenodd" clip-rule="evenodd" fill="#A6A6A6" d="M2.018,118.75c0.491,0.251,0.863,0.623,1.115,1.114
	c-0.226-0.053-0.278-0.279-0.558-0.278C2.476,119.219,2.084,119.147,2.018,118.75z"/>
<path fill-rule="evenodd" clip-rule="evenodd" fill="#323232" d="M1.46,122.094c-0.343-0.123-0.573-0.357-0.558-0.837
	c0.226-0.053,0.277-0.279,0.558-0.278C1.137,121.392,1.137,121.681,1.46,122.094z"/>
<path fill-rule="evenodd" clip-rule="evenodd" fill="#737373" d="M3.968,120.421c-1.232,0.079-1.177,2.582-2.508,1.673
	c-0.323-0.413-0.323-0.702,0-1.115c0.281-0.555,0.482-1.191,1.115-1.394c0.28-0.001,0.332,0.226,0.558,0.278
	C3.357,120.103,3.896,120.03,3.968,120.421z"/>
<path fill-rule="evenodd" clip-rule="evenodd" fill="#737373" d="M54.136,123.766c0.252-0.491,0.623-0.863,1.115-1.115
	C55,123.143,54.628,123.514,54.136,123.766z"/>
<path fill-rule="evenodd" clip-rule="evenodd" fill="#323232" d="M61.383,96.731c0.252-0.491,0.624-0.862,1.115-1.115
	C62.246,96.108,61.874,96.479,61.383,96.731z"/>
<path fill-rule="evenodd" clip-rule="evenodd" fill="#323232" d="M52.185,100.076c-0.996-1.138-3.279-2.965-5.295-4.738
	c-1.833-1.612-4.083-3.168-5.017-4.738c-0.922-1.551-1.495-3.797-0.836-5.853c0.169-0.53,0.583-0.77,0.836-1.394
	c0.663-1.636,1.276-3.198,1.672-5.017c0.34-1.563,0.524-4.039,0.836-5.854c0.76-4.423,2.383-7.741,4.738-10.869
	c0.17-0.227,0.383-0.274,0.557-0.558c0.331-0.538,1.185-1.541,1.951-2.23c0.336-0.301,0.741-0.259,1.116-0.557
	c0.241-0.193,0.323-0.641,0.557-0.836c0.332-0.277,0.814-0.318,1.115-0.558c0.239-0.19,0.323-0.647,0.557-0.836
	c0.333-0.268,0.825-0.309,1.115-0.558c2.123-1.819,4.558-4.788,6.689-7.246c0.226-0.26,0.587-0.525,0.836-0.836
	c0.296-0.368,0.268-0.791,0.558-1.114c0.445-0.498,1.207-0.861,1.672-1.394c0.294-0.337,0.262-0.802,0.558-1.115
	c0.215-0.228,0.634-0.322,0.836-0.557c0.283-0.331,0.251-0.758,0.557-1.115c0.205-0.238,0.633-0.323,0.836-0.558
	c0.802-0.925,1.395-1.799,2.229-2.787c0.068-0.081,0.524-0.204,0.559-0.279c0.762-1.691,2.863-3.453,4.738-4.459
	c2.557-1.374,5.862-1.473,10.312-1.115c3.328,0.269,5.896,0.965,8.36,0c1.244-0.486,2.883-2.004,3.346-3.066
	c1.021-2.337-0.11-4.84,0.557-7.525c0.403-1.621,1.863-3.622,2.787-5.017c0.028-0.042,0.221-0.497,0.278-0.558
	c0.221-0.229,0.569-0.078,0.838-0.278c0.311-0.232,0.823-0.943,1.392-1.394c0.699-0.553,1.569-0.991,2.23-1.672
	c0.38-0.391,0.462-0.914,0.837-1.393c0.335-0.43,0.823-0.667,1.114-1.115c1.236-1.898,1.675-3.989,2.508-6.41
	c0.415-1.202,0.707-2.376,1.395-3.066c0.482-0.486,1.499-0.63,2.229-1.394c1.511-0.021,3.054-0.084,3.903,0.279
	c1.025,0.44,2.681,1.557,3.064,2.508c1.322,3.27-0.801,9.474,0.558,12.821c1.1,2.71,3.354,4.801,5.854,6.689
	c0.523,0.396,1,0.879,1.671,1.394c1.156,0.885,2.502,2.413,3.902,3.624c0.329,0.284,0.892,0.366,1.114,0.557
	c0.571,0.488,1.623,1.607,1.673,2.787c0.07,1.617-1.601,3.117-2.787,4.46c-1.604,1.817-3.057,4.029-6.968,3.066
	c-0.404-0.1-0.717-0.407-1.113-0.558c-1.837-0.695-4.201-1.316-5.854-2.229c-2.1,0.817-3.458,2.976-5.017,4.738
	c-0.458,0.517-0.915,1.294-1.394,1.672c-1.351,1.068-2.966,1.313-3.901,2.508c-0.18,0.229-0.136,0.607-0.28,0.836
	c-0.181,0.291-0.989,1.323-1.114,1.952c-0.238,1.202,0.078,2.894,0.279,4.459c0.186,1.442,0.739,2.764,0.557,3.901
	c-0.057,0.364-1.096,2.743-2.509,3.345c-2.178,0.928-5.739,0.026-8.081,0.279c-4.725,0.509-8.379,3.489-10.312,6.968
	c-2.639,4.744-1.747,11.968-4.182,17.28c-1.018,2.22-1.296,1.961-4.181,3.623c-0.204,1.139-0.605,1.927-1.116,2.787
	c-0.625,1.056-1.435,1.589-3.344,2.508c-1.951,0.94-4.598,1.901-7.525,1.951c-2.82,0.05-6.771-1.606-7.525,1.951
	c0.647-0.188,0.746-0.926,1.394-1.114c-0.189,0.646-0.926,0.746-1.116,1.394c-0.689-0.977-3.212-1.172-4.18-0.279
	c0.588-1.102,1.438-1.993,2.23-2.787c0.827-0.829,1.75-2.014,3.344-2.229c1.939-0.264,4.032,0.35,6.131,0.278
	c3.343-0.115,5.696-1.41,8.083-2.509c0.671-0.907,0.492-1.934,1.115-3.066c0.064-0.118,0.514-0.179,0.558-0.279
	c0.568-1.259,2.191-1.892,3.624-2.786c0.96-2.989,1.509-6.012,1.951-8.919c0.387-2.553,0.679-4.678,1.393-6.689
	c0.941-2.659,2.27-4.726,4.459-6.689c1.202-1.077,2.383-2.016,4.182-2.787c1.42-0.609,3.604-1.231,5.573-1.394
	c2.304-0.189,5.104,0.56,6.968-0.557c0.593-2.742-0.978-4.973-0.557-8.362c0.106-0.854,0.629-1.788,1.113-2.787
	c0.453-0.931,0.82-1.875,1.395-2.508c1.156-1.274,2.741-1.552,4.182-2.787c2.016-1.732,3.758-5.813,6.689-6.411
	c1.639-0.334,3.175,0.399,5.017,1.115c1.555,0.604,3.51,1.865,5.016,1.672c1.389-0.178,1.93-1.275,2.787-2.229
	c0.813-0.905,1.793-1.801,2.229-2.788c-1.512-1.002-2.94-2.582-4.459-3.901c-0.481-0.417-1.176-0.68-1.673-1.115
	c-0.952-0.836-1.77-1.914-2.787-2.787c-1.021-0.877-1.987-1.512-2.786-2.509c-1.349-1.679-2.785-3.853-3.065-6.688
	c-0.198-1.984,0.353-5.017,0.278-7.247c-0.038-1.085,0.495-1.736-0.278-2.787c-1.07-1.454-3.931-1.392-4.738,0.558
	c-0.054,0.128-0.158,0.578-0.278,0.835c-0.521,1.107-0.562,2.47-1.116,3.902c-0.37,0.956-2.031,3.723-3.065,5.017
	c-0.182,0.229-0.675,0.325-0.837,0.558c-0.187,0.267-0.064,0.616-0.278,0.836c-0.351,0.359-1.004,0.58-1.671,1.115
	c-0.229,0.182-0.327,0.673-0.56,0.836c-0.268,0.188-0.601,0.078-0.835,0.278c-0.943,0.813-2.222,2.059-2.508,2.508
	c-0.461,0.721-1.188,2.369-1.395,3.624c-0.381,2.324,0.152,5.17-0.558,6.967c-0.943,2.396-3.889,4.888-6.41,5.296
	c-4.679,0.757-11.474-1.629-15.606-0.279c-0.146,0.048-0.453,0.526-0.56,0.558c-0.863,0.261-0.787,0.188-1.671,0.836
	c-0.267,0.195-0.892,0.348-1.115,0.557c-0.229,0.214-0.315,0.812-0.558,1.115c-0.26,0.324-0.641,0.62-0.835,0.836
	c-1.271,1.407-2.621,2.716-3.903,4.181c-0.241,0.276-0.297,0.821-0.557,1.115c-0.465,0.525-1.21,0.867-1.673,1.394
	c-0.53,0.604-0.863,1.326-1.393,1.951c-0.299,0.352-0.601,0.524-0.836,0.836c-0.915,1.21-2.352,2.766-3.624,4.181
	c-0.999,1.111-2.016,2.375-3.066,3.344c-2.329,2.149-5.161,3.717-6.968,5.853c-0.237,0.28-0.287,0.737-0.558,1.115
	c-0.257,0.359-0.595,0.484-0.836,0.836c-2.02,2.96-3.263,6.782-3.902,11.707c-0.18,1.377-0.193,2.769-0.558,4.18
	c-0.296,1.148-1.112,2.543-1.672,3.902c-0.5,1.215-0.942,1.916-0.836,3.065c0.191,2.083,2.659,3.761,4.738,5.575
	c1.715,1.496,2.886,2.794,4.738,4.18c0.205,0.153,0.951,1.043,1.115,0.558c0.093,0,0.186,0,0.279,0
	C53.645,98.376,53.089,99.4,52.185,100.076z"/>
<path fill-rule="evenodd" clip-rule="evenodd" fill="#D6D6D6" d="M60.269,96.731c0.365,0.098,0.438,0.49,0.836,0.558
	c0.401,0.155,0.679,0.435,0.836,0.837C61.223,97.821,60.601,97.42,60.269,96.731z"/>
<path fill-rule="evenodd" clip-rule="evenodd" fill="#D6D6D6" d="M0.902,117.634c0.491,0.251,0.863,0.624,1.115,1.115
	C1.308,118.715,0.937,118.343,0.902,117.634z"/>
<path fill-rule="evenodd" clip-rule="evenodd" fill="#D6D6D6" d="M43.267,120.701c0.346-0.583,0.811-1.048,1.393-1.395
	c-0.188,0.648-0.926,0.746-1.114,1.395C43.452,120.701,43.359,120.701,43.267,120.701z"/>
<path fill-rule="evenodd" clip-rule="evenodd" fill="#323232" d="M40.758,123.208c0.251-0.491,0.624-0.863,1.115-1.114
	C41.622,122.584,41.25,122.957,40.758,123.208z"/>
<path fill-rule="evenodd" clip-rule="evenodd" fill="#737373" d="M6.198,118.75c-0.799-0.502-1.554-1.047-2.229-1.673
	c0.186,0,0.372,0,0.557,0c0.454-0.754,0.757-1.658,1.672-1.95c0.124,0.248,0.245,0.498,0.558,0.558c0,0.186,0,0.37,0,0.557
	c-0.129,0.893-1.061,0.982-1.115,1.951C5.889,118.315,6.139,118.437,6.198,118.75z"/>
<path fill-rule="evenodd" clip-rule="evenodd" fill="#D6D6D6" d="M52.464,121.815c0.252-0.491,0.624-0.863,1.115-1.114
	C53.327,121.191,52.956,121.563,52.464,121.815z"/>
<path fill-rule="evenodd" clip-rule="evenodd" fill="#323232" d="M51.627,122.373c0.627-0.86,1.37-1.604,2.23-2.23
	c-0.053,0.226-0.279,0.279-0.278,0.559c-0.492,0.251-0.863,0.623-1.115,1.114C52.098,121.914,52.026,122.306,51.627,122.373z"/>
<path fill-rule="evenodd" clip-rule="evenodd" fill="#D6D6D6" d="M58.039,98.125c0.491,0.251,0.862,0.623,1.114,1.113
	C58.662,98.988,58.29,98.616,58.039,98.125z"/>
<path fill-rule="evenodd" clip-rule="evenodd" fill="#737373" d="M57.48,98.404c0.008-0.271,0.341-0.217,0.558-0.278
	c0.251,0.49,0.623,0.862,1.114,1.113c0.237-0.051,0.264,0.109,0.279,0.279c-0.093,0-0.186,0-0.279,0
	c-0.491,0.252-0.863,0.623-1.114,1.115c-0.053,0.226-0.28,0.277-0.279,0.557c-0.494,0.594-1.708-0.621-1.115-1.114
	c0.238,0.051,0.263-0.108,0.279-0.278c0.491-0.252,0.863-0.624,1.115-1.115C58.031,98.411,57.697,98.465,57.48,98.404z"/>
<path fill-rule="evenodd" clip-rule="evenodd" fill="#323232" d="M56.923,99.797c0.252-0.492,0.624-0.864,1.115-1.115
	C57.787,99.173,57.415,99.545,56.923,99.797z"/>
<path fill-rule="evenodd" clip-rule="evenodd" fill="#323232" d="M54.136,102.027c0.963-0.987,1.607-2.295,2.787-3.066
	c0.042,0.371-1.133,0.842-0.279,1.115c-0.593,0.493,0.621,1.708,1.115,1.114c1.092,0.91,2.169,1.799,3.345,2.787
	c1.143,0.963,2.297,2.503,3.901,3.345c-0.77,0.81-1.326,1.833-2.229,2.508c0-0.092,0-0.185,0-0.278
	c-0.962-1.491-2.467-2.377-3.902-3.623C57.34,104.595,56.152,102.903,54.136,102.027z"/>
<path fill-rule="evenodd" clip-rule="evenodd" fill="#323232" d="M58.039,100.633c0.251-0.492,0.623-0.863,1.114-1.115
	C58.901,100.009,58.53,100.381,58.039,100.633z"/>
<path fill-rule="evenodd" clip-rule="evenodd" fill="#323232" d="M43.545,120.701c0.188-0.648,0.926-0.746,1.114-1.395
	c0.093,0,0.187,0,0.279,0C44.593,119.89,44.128,120.354,43.545,120.701z"/>
<path fill-rule="evenodd" clip-rule="evenodd" fill="#323232" d="M32.955,128.225c0,0.372,0,0.743,0,1.115
	c0.324-0.045,0.496,0.062,0.557,0.278c-0.186,0-0.372,0-0.557,0C32.793,129.45,32.302,128.297,32.955,128.225z"/>
<path fill-rule="evenodd" clip-rule="evenodd" fill="#323232" d="M6.198,115.126c0.093,0,0.186,0,0.279,0
	c-0.042,0.371,1.133,0.841,0.278,1.114c0-0.187,0-0.371,0-0.557C6.442,115.625,6.322,115.375,6.198,115.126z"/>
<path fill-rule="evenodd" clip-rule="evenodd" fill="#737373" d="M33.233,126.553c-0.047,0.604,0.989,0.126,1.394,0.278
	c-0.113,0.559-0.69,2.066,0,2.509c-0.086,0.379-0.698,0.231-1.115,0.278c-0.062-0.217-0.233-0.323-0.557-0.278
	c0-0.372,0-0.743,0-1.115c0-0.558,0-1.114,0-1.672C33.047,126.553,33.14,126.553,33.233,126.553z"/>
<path fill-rule="evenodd" clip-rule="evenodd" fill="#737373" d="M60.269,96.731c-0.238,0.051-0.264-0.108-0.28-0.278
	c0.189-0.647,0.927-0.747,1.116-1.394c0.098-0.367,0.491-0.438,0.557-0.837c0.47,0.346,1.424,0.811,0.836,1.394
	c-0.491,0.253-0.863,0.624-1.115,1.115c-0.053,0.226-0.28,0.278-0.278,0.558C60.707,97.221,60.634,96.829,60.269,96.731z"/>
<path fill-rule="evenodd" clip-rule="evenodd" fill="#A6A6A6" d="M46.89,113.174c-0.169,0.667,0.35,2.022-0.278,2.23
	c0-0.743,0-1.487,0-2.23C46.704,113.174,46.797,113.174,46.89,113.174z"/>
<path fill-rule="evenodd" clip-rule="evenodd" fill="#737373" d="M0.345,114.29c0,0.743,0,1.486,0,2.229
	C-0.115,116.396-0.115,114.414,0.345,114.29z"/>
<path fill-rule="evenodd" clip-rule="evenodd" fill="#737373" d="M58.596,115.684c-0.161,0.488,0.337,1.637-0.279,1.672
	C58.478,116.865,57.98,115.718,58.596,115.684z"/>
<path fill-rule="evenodd" clip-rule="evenodd" fill="#D6D6D6" d="M60.825,118.47c0.166-0.577-0.345-1.831,0.279-1.951
	C60.938,117.096,61.448,118.35,60.825,118.47z"/>
<path fill-rule="evenodd" clip-rule="evenodd" fill="#737373" d="M34.069,124.045c-0.324,0.045-0.497-0.063-0.558-0.279
	c-0.149-1.078,0.498-1.36,0.279-2.509c0.465,0,0.929,0,1.394,0c0.523,0.532-0.166,0.505,0,1.394
	c-0.378,0.086-0.231,0.698-0.279,1.115c0,0.093,0,0.186,0,0.279C34.626,124.045,34.348,124.045,34.069,124.045z"/>
<path fill-rule="evenodd" clip-rule="evenodd" fill="#737373" d="M44.381,125.996c-0.133-1.539-1.055-2.289-1.115-3.901
	c0.583-0.161,0.796-0.691,1.672-0.559c1.121,0.737,0.795,2.922,1.951,3.623C46.119,125.502,45.397,125.897,44.381,125.996z"/>
<path fill-rule="evenodd" clip-rule="evenodd" fill="#737373" d="M25.708,129.897c0.372,0,0.743,0,1.115,0c0,0.094,0,0.187,0,0.279
	C26.381,130.154,25.759,130.31,25.708,129.897z"/>
<path fill-rule="evenodd" clip-rule="evenodd" fill="#737373" d="M29.61,129.897c0.464,0,0.929,0,1.393,0
	c0.047,0.605-0.988,0.127-1.393,0.279C29.61,130.083,29.61,129.991,29.61,129.897z"/>
<path fill-rule="evenodd" clip-rule="evenodd" fill="#FFFFFF" d="M55.809,96.173c0.968-0.893,3.491-0.697,4.18,0.279
	c0.016,0.17,0.042,0.329,0.28,0.278c0.333,0.689,0.954,1.09,1.672,1.395c1.037,0.565,1.801,1.644,2.787,2.508
	c0.34,0.299,0.8,0.281,1.115,0.557c0.282,0.247,0.418,0.745,0.836,1.115c0.798,0.708,2.046,1.316,2.229,2.787
	c0.34,2.718-2.863,4.998-4.738,7.246c-0.389,0.468-0.471,0.963-0.836,1.395c-0.909,1.073-1.945,1.574-2.229,2.786
	c-0.624,0.12-0.113,1.374-0.279,1.951c-0.303,1.647-2.153,1.749-3.623,2.23c-0.98,0.32-1.021,1.58-1.951,1.95
	c-0.492,0.252-0.863,0.624-1.115,1.115c-1.754,1.684-3.67,3.205-6.41,3.901c-0.718,0.489-2.014,0.402-2.508,1.116
	c-4.88,1.529-8.91,3.91-15.33,3.901c-1.114,0-2.229,0-3.344,0c-5.315-0.143-9.971-2.538-13.378-5.018
	c-3.189-2.32-6.204-4.92-9.198-7.246c-0.073-0.392-0.611-0.318-0.836-0.558C2.88,119.373,2.509,119,2.018,118.75
	c-0.252-0.491-0.624-0.864-1.115-1.115c-0.49-0.067-0.635-0.479-0.557-1.115c0-0.743,0-1.486,0-2.229
	c0.074-1.319,1.217-1.568,1.672-2.508c0.279,0,0.557,0,0.835,0c0.836,0,1.672,0,2.509,0c2.403,0.227,5.578,1.457,8.361,2.229
	c1.398,0.389,2.854,0.471,4.181,0.836c0.148,0.04,0.731,0.534,0.836,0.558c1.965,0.44,3.652,0.665,5.295,1.672
	c0.402,0.246,0.735,0.863,1.115,1.115c0.552,0.365,1.165,0.494,1.672,0.836c0.452,0.304,0.666,0.809,1.115,1.114
	c0.524,0.358,1.194,0.49,1.672,0.837c0.407,0.295,0.69,0.82,1.115,1.115c0.262,0.181,0.586,0.123,0.836,0.278
	c0.512,0.317,1.141,0.967,1.951,1.394c0.061,0.217,0.233,0.324,0.558,0.279c-0.199,0.451,1.314,0.451,1.115,0
	c0.412-0.146,0.702-0.413,1.115-0.559c0.491-0.251,0.863-0.624,1.115-1.114c0.822-0.386,1.128-1.287,1.951-1.672
	c0.491-0.253,0.864-0.624,1.115-1.115c0.568-0.082,0.547-0.754,1.115-0.836c0.583-0.346,1.047-0.811,1.394-1.394
	c0.313-1.081,0.848-1.939,1.115-3.066c0.452,0.199,0.452-1.314,0-1.115c-0.255-1.802-0.048-3.353,0.836-4.737
	c0.286-0.449,0.78-0.677,1.115-1.115c0.188-0.246,0.101-0.604,0.278-0.835c0.333-0.437,1.135-1.062,1.673-1.673
	c1.515-1.724,2.904-3.328,4.18-4.738c0.904-0.676,1.46-1.699,2.23-2.509C54.762,96.984,55.225,96.519,55.809,96.173z M56.923,98.96
	c-1.18,0.771-1.824,2.079-2.787,3.066c-2.231,3.249-5.47,5.491-7.247,9.197c-0.623,0.119-0.113,1.374-0.278,1.95
	c0,0.743,0,1.487,0,2.23c-0.052,1.806-1.027,2.688-1.672,3.901c-0.093,0-0.186,0-0.279,0c-0.583,0.347-1.047,0.812-1.393,1.395
	c-0.346,0.583-0.811,1.047-1.394,1.394c-0.491,0.251-0.863,0.623-1.115,1.114c-1.644,1.051-2.336,3.053-4.738,3.345
	c-0.929,0-1.857,0-2.787,0c-0.093,0-0.186,0-0.278,0c-2.324-0.877-4.224-2.695-6.411-4.181c-2.059-1.397-4.187-3.057-6.689-3.902
	c-2.646-0.896-5.533-1.487-8.361-2.229c-2.648-0.695-5.452-1.95-8.361-1.673c-0.75,1.246,0.346,1.729,0.836,2.509
	c0.675,0.626,1.431,1.171,2.229,1.673c6.139,4.081,10.618,9.82,19.51,11.147c0.052,0.413,0.674,0.257,1.115,0.279
	c0.929,0,1.858,0,2.788,0c0.405-0.152,1.44,0.326,1.393-0.279c0.88,0.137,0.984-0.502,1.952-0.278c0.185,0,0.372,0,0.557,0
	c0.417-0.047,1.028,0.101,1.115-0.278c3.402-0.965,6.55-2.183,9.755-3.345c1.016-0.099,1.737-0.493,2.508-0.837
	c1.714-0.794,3.279-1.736,4.738-2.786c0.398-0.066,0.471-0.459,0.836-0.558c0.492-0.252,0.863-0.624,1.115-1.114
	c-0.001-0.279,0.225-0.333,0.278-0.559c0.889-1.526,2.473-2.357,4.459-2.786c0.616-0.035,0.118-1.184,0.279-1.672
	c0.58-2.766,2.763-3.928,4.181-5.854c0.904-0.675,1.46-1.698,2.229-2.508c0.173-0.755,1.165-0.693,1.115-1.672
	c-1.991-2.283-4.569-3.978-6.688-6.132c-0.016-0.17-0.042-0.33-0.279-0.279c-0.252-0.49-0.623-0.862-1.114-1.113
	c-0.217,0.062-0.55,0.007-0.558,0.278C57.168,98.462,57.047,98.712,56.923,98.96z"/>
<path fill-rule="evenodd" clip-rule="evenodd" fill="#D6D6D6" d="M2.853,111.782c0.212-0.461,2.297-0.461,2.509,0
	C4.525,111.782,3.689,111.782,2.853,111.782z"/>
<path fill-rule="evenodd" clip-rule="evenodd" fill="#D6D6D6" d="M33.233,126.553c0.93,0,1.858,0,2.787,0
	c0.047,0.604-0.989,0.126-1.394,0.278C34.222,126.679,33.186,127.158,33.233,126.553z"/>
<path fill-rule="evenodd" clip-rule="evenodd" fill="#737373" d="M46.89,111.224c0,0.65,0,1.301,0,1.95c-0.093,0-0.186,0-0.278,0
	C46.777,112.598,46.267,111.343,46.89,111.224z"/>
<path fill-rule="evenodd" clip-rule="evenodd" fill="#737373" d="M45.218,128.784c0.495-0.714,1.79-0.627,2.508-1.116
	c-0.007,1.771,1.073,2.458,1.115,4.181c-0.882-0.046-0.932,0.741-1.951,0.558C46.217,131.313,46.325,129.44,45.218,128.784z"/>
</svg>
