<?xml version="1.0" encoding="utf-8"?>
<!-- Generator: Adobe Illustrator 15.0.0, SVG Export Plug-In  -->
<!DOCTYPE svg PUBLIC "-//W3C//DTD SVG 1.1//EN" "http://www.w3.org/Graphics/SVG/1.1/DTD/svg11.dtd" [
	<!ENTITY ns_flows "http://ns.adobe.com/Flows/1.0/">
]>
<svg version="1.1"
	 xmlns="http://www.w3.org/2000/svg" xmlns:xlink="http://www.w3.org/1999/xlink" xmlns:a="http://ns.adobe.com/AdobeSVGViewerExtensions/3.0/"
	 x="0px" y="0px" width="142px" height="142px" viewBox="-2.784 -4.241 142 142" enable-background="new -2.784 -4.241 142 142"
	 xml:space="preserve">
<defs>
</defs>
<path fill-rule="evenodd" clip-rule="evenodd" fill="#323232" d="M115.389,0.341c-0.124-0.455,1.521-0.455,1.395,0
	C116.319,0.341,115.854,0.341,115.389,0.341z"/>
<path fill-rule="evenodd" clip-rule="evenodd" fill="#323232" d="M121.522,4.801c0.458,0.038,0.458,1.913,0,1.951
	C121.522,6.102,121.522,5.451,121.522,4.801z"/>
<path fill-rule="evenodd" clip-rule="evenodd" fill="#323232" d="M118.735,5.079c0.615,0.035,0.118,1.183,0.278,1.673
	c-0.092,0-0.187,0-0.278,0C118.735,6.194,118.735,5.637,118.735,5.079z"/>
<path fill-rule="evenodd" clip-rule="evenodd" fill="#323232" d="M118.735,9.818c0,0.372,0,0.743,0,1.115c-0.094,0-0.187,0-0.278,0
	C118.502,10.516,118.356,9.904,118.735,9.818z"/>
<path fill-rule="evenodd" clip-rule="evenodd" fill="#323232" d="M121.243,10.096c0.093,0,0.187,0,0.279,0
	c-0.049,0.417,0.1,1.029-0.279,1.115C121.243,10.839,121.243,10.468,121.243,10.096z"/>
<path fill-rule="evenodd" clip-rule="evenodd" fill="#727272" d="M118.457,10.933c0.092,0,0.185,0,0.278,0c0,0.372,0,0.743,0,1.115
	c-0.094,0-0.187,0-0.278,0C118.457,11.676,118.457,11.304,118.457,10.933z"/>
<path fill-rule="evenodd" clip-rule="evenodd" fill="#D3D3D3" d="M121.243,11.769c0,0.65,0,1.301,0,1.951
	C120.785,13.682,120.785,11.807,121.243,11.769z"/>
<path fill-rule="evenodd" clip-rule="evenodd" fill="#323232" d="M98.388,26.54c0.092,0,0.187,0,0.278,0
	c-0.16,0.49,0.337,1.638-0.278,1.672C98.388,27.655,98.388,27.098,98.388,26.54z"/>
<path fill-rule="evenodd" clip-rule="evenodd" fill="#323232" d="M101.175,26.54c0.458-0.045,0.458,1.718,0,1.672
	C101.175,27.655,101.175,27.098,101.175,26.54z"/>
<path fill-rule="evenodd" clip-rule="evenodd" fill="#323232" d="M118.457,33.229c-0.126-0.455,1.519-0.455,1.393,0
	C119.384,33.229,118.921,33.229,118.457,33.229z"/>
<path fill-rule="evenodd" clip-rule="evenodd" fill="#323232" d="M91.42,33.787c0-0.093,0-0.186,0-0.279c0.557,0,1.116,0,1.673,0
	C93.057,34.124,91.912,33.626,91.42,33.787z"/>
<path fill-rule="evenodd" clip-rule="evenodd" fill="#A3A3A3" d="M80.552,35.738c0.122-0.46,2.105-0.46,2.229,0
	C82.037,35.738,81.295,35.738,80.552,35.738z"/>
<path fill-rule="evenodd" clip-rule="evenodd" fill="#323232" d="M91.42,36.295c0.557,0,1.116,0,1.673,0
	C93.139,36.752,91.375,36.752,91.42,36.295z"/>
<path fill-rule="evenodd" clip-rule="evenodd" fill="#D3D3D3" d="M74.419,53.296c-0.2-0.451,1.314-0.451,1.114,0
	C75.163,53.296,74.791,53.296,74.419,53.296z"/>
<path fill-rule="evenodd" clip-rule="evenodd" fill="#323232" d="M106.75,65.281c0.206-0.628,1.563-0.108,2.229-0.278
	C108.772,65.63,107.416,65.112,106.75,65.281z"/>
<path fill-rule="evenodd" clip-rule="evenodd" fill="#323232" d="M103.126,10.933c0.49,0.251,0.863,0.623,1.116,1.115
	C103.75,11.795,103.378,11.424,103.126,10.933z"/>
<path fill-rule="evenodd" clip-rule="evenodd" fill="#323232" d="M101.732,12.326c-0.609-0.189,0.529-0.926,0.838-1.115
	C102.487,11.78,101.814,11.757,101.732,12.326z"/>
<path fill-rule="evenodd" clip-rule="evenodd" fill="#323232" d="M102.57,13.441c0.49,0.251,0.863,0.623,1.113,1.115
	C103.193,14.304,102.82,13.932,102.57,13.441z"/>
<path fill-rule="evenodd" clip-rule="evenodd" fill="#727272" d="M103.683,15.671c0.322-0.413,0.322-0.703,0-1.115
	c-0.25-0.492-0.623-0.863-1.113-1.115c-0.083-0.568-0.756-0.546-0.838-1.115c0.082-0.569,0.755-0.546,0.838-1.115
	c0.226-0.053,0.278-0.28,0.557-0.278c0.252,0.491,0.623,0.863,1.116,1.115c0.438,0.675,0.995,1.232,1.67,1.672
	c0.053,0.237-0.107,0.263-0.278,0.279c-0.49,0.252-0.863,0.624-1.113,1.115C104.154,15.211,104.082,15.604,103.683,15.671z"/>
<path fill-rule="evenodd" clip-rule="evenodd" fill="#323232" d="M101.175,17.9c0.44-0.675,0.997-1.232,1.673-1.672
	C102.409,16.903,101.85,17.461,101.175,17.9z"/>
<path fill-rule="evenodd" clip-rule="evenodd" fill="#323232" d="M72.468,37.131c0.44-0.675,0.998-1.232,1.673-1.672
	C73.701,36.134,73.143,36.692,72.468,37.131z"/>
<path fill-rule="evenodd" clip-rule="evenodd" fill="#323232" d="M63.271,44.378c0.491,0.251,0.863,0.623,1.114,1.114
	C63.894,45.241,63.522,44.869,63.271,44.378z"/>
<path fill-rule="evenodd" clip-rule="evenodd" fill="#727272" d="M62.713,45.771c-0.366-0.099-0.438-0.491-0.836-0.558
	c0.346-0.469,0.81-1.423,1.394-0.836c0.251,0.491,0.623,0.863,1.114,1.114c0.226,0.053,0.278,0.28,0.558,0.279
	c-0.098,0.366-0.49,0.438-0.558,0.836c-0.123,0.248-0.244,0.498-0.557,0.557c0-0.093,0-0.186,0-0.278
	C63.576,46.395,63.205,46.023,62.713,45.771z"/>
<path fill-rule="evenodd" clip-rule="evenodd" fill="#323232" d="M62.713,45.771c0.492,0.252,0.863,0.624,1.115,1.115
	C63.337,46.634,62.965,46.263,62.713,45.771z"/>
<path fill-rule="evenodd" clip-rule="evenodd" fill="#323232" d="M89.191,63.888c-1.295,1.69-2.735,4.284-3.344,7.247
	c-0.314,1.522-0.309,3.39-0.558,5.018c-0.354,2.307-0.811,4.741-1.673,6.967c-0.096,0.245-0.109,0.768-0.278,1.114
	c-0.062,0.126-0.511,0.177-0.557,0.279c-0.599,1.325-2.113,1.946-3.624,2.787c-0.211,1.153-0.607,1.931-1.116,2.787
	c-0.627,1.062-1.467,1.604-3.344,2.508c-1.925,0.929-4.818,1.936-7.804,1.951c-1.71,0.01-3.403-0.755-5.016-0.278
	c-0.913,0.27-1.047,0.497-1.672,1.115c-1.305,1.291-2.514,2.916-3.902,4.459c0.311,1.053,1.489,1.619,2.508,2.509
	c1.221,1.064,2.594,2.395,3.902,3.623c1.153,1.082,2.834,2.064,2.508,4.738c-0.32,2.621-2.931,3.318-4.18,5.574
	c0.197,1.498-0.221,2.38-0.558,3.344c-0.782,0.798-2.2,0.96-3.345,1.395c-1.548,1.188-2.47,2.872-4.181,4.18
	c-0.846,0.647-2.393,1.635-3.623,2.23c-1.019,0.492-2.099,0.639-3.345,1.114c-6.129,2.341-12.357,5.536-20.903,4.46
	c-7.436-0.938-12.11-5.198-17.28-9.198c-0.936-0.724-2.025-1.433-3.065-2.229c-2.009-1.537-4.634-3.581-4.738-5.573
	c-0.037-0.707,0.246-2.028,0.836-2.788c2.054-2.642,6.754-0.55,9.755,0.278c2.428,0.672,4.905,1.248,7.525,1.952
	c1.298,0.347,2.42,0.678,3.624,1.114c0.984,0.356,1.404,0.668,2.508,1.394c0.493,0.324,1.189,0.5,1.672,0.836
	c0.238,0.167,0.325,0.675,0.557,0.836c0.265,0.186,0.588,0.111,0.836,0.279c0.178,0.121,0.392,0.454,0.558,0.557
	c0.787,0.489,1.872,1.252,2.787,1.952c0.523,0.399,1.414,0.954,2.23,1.393c2.734,1.469,4.499-1.056,6.688-3.065
	c1.332-1.222,3.683-3.041,4.181-4.459c0.52-1.48-0.029-4.082,0.279-5.574c0.445-2.158,2.43-3.595,3.902-5.296
	c1.465-1.693,2.721-3.473,4.18-5.017c-2.126-2.183-4.97-4.394-7.525-6.689c-1.869-1.679-4.965-4.45-3.623-8.64
	c0.134-0.418,0.642-0.916,0.836-1.394c0.664-1.639,1.278-3.206,1.672-5.017c0.364-1.672,0.484-3.808,0.836-5.854
	c0.716-4.16,2.411-7.778,4.738-10.869c0.17-0.227,0.383-0.274,0.557-0.558c0.374-0.606,1.746-2.125,2.508-2.787
	c0.212-0.185,0.622-0.115,0.836-0.279c0.19-0.145,0.345-0.387,0.558-0.557c1.765-1.41,3.909-3.521,5.574-5.017
	c-0.7,1.046-0.106,2.779,0.558,3.345c-2.508,2.284-6.466,4.899-8.919,8.361c-0.203,0.287-0.342,0.55-0.557,0.836
	c-1.363,1.822-2.865,5.261-3.345,8.361c-0.234,1.514,0.027,3.054-0.278,4.738c-0.116,0.638-0.58,1.339-0.836,2.229
	c-0.231,0.803-0.271,1.791-0.558,2.509c-0.549,1.374-1.875,2.258-1.672,4.459c0.101,1.095,1.018,2.366,1.951,3.345
	c0.469,0.492,1.157,0.661,1.672,1.115c0.427,0.376,0.688,1.019,1.115,1.394c0.4,0.352,1.085,0.604,1.671,1.114
	c0.229,0.199,0.323,0.653,0.558,0.837c0.191,0.148,0.639,0.106,0.836,0.278c0.538,0.47,2.136,2.567,2.787,2.508
	c0.408-0.037,1.804-2.29,2.23-2.786c0.206-0.239,0.628-0.323,0.836-0.559c1.482-1.677,2.11-3.054,4.181-3.343
	c2.216-0.312,4.357,0.375,6.41,0.278c3.223-0.154,5.299-1.357,7.804-2.509c0.671-0.907,0.492-1.934,1.115-3.066
	c0.064-0.118,0.514-0.179,0.558-0.279c0.568-1.259,2.191-1.892,3.624-2.786c1.264-3.372,1.536-7.533,2.229-11.427
	c0.691-3.894,1.879-7.212,4.18-9.477C88.101,62.562,88.736,63.135,89.191,63.888z M54.352,102.35
	c-0.824,0.471-1.168,1.068-1.672,1.672c-0.302,0.36-0.51,0.737-0.836,1.115c-1.344,1.557-4.67,4.645-5.017,5.853
	c-0.579,2.02,0.255,4.305-0.558,6.41c-0.779,2.02-3.544,4.221-5.017,5.574c-1.78,1.636-3.789,4.063-6.41,4.181
	c-1.728,0.077-3.616-0.984-4.459-1.673c-0.249-0.202-0.551-0.357-0.836-0.557c-2.19-1.53-4.456-3.453-6.689-4.46
	c-0.09-0.04-0.175-0.487-0.278-0.557c-0.128-0.086-0.415,0.064-0.558,0c-0.103-0.046-0.154-0.497-0.278-0.558
	c-0.6-0.294-1.56-0.352-2.23-0.558c-2.288-0.703-4.951-1.321-7.246-1.951c-1.57-0.431-3.152-0.977-4.739-1.393
	c-1.387-0.365-3.234-1.418-4.738-0.279c-0.378,1.038,0.469,1.237,0.836,1.672c0.95,1.124,2.466,2.071,3.344,2.787
	c1.266,1.032,2.422,1.856,3.624,2.788c1.2,0.928,2.684,2.021,3.624,2.786c2.204,1.798,4.888,3.306,7.525,4.182
	c6.188,2.053,12.439,0.614,18.116-1.395c2.552-0.902,5.251-1.792,7.525-2.787c1.254-0.548,2.42-1.189,3.066-1.672
	c0.287-0.215,0.561-0.338,0.836-0.558c2.357-1.879,3.331-4.884,6.968-5.017c-0.183-4.363,3.109-5.253,4.459-8.083
	C60.25,107.042,57.282,104.715,54.352,102.35z"/>
<path fill-rule="evenodd" clip-rule="evenodd" fill="#323232" d="M94.486,68.347c0.227,0.053,0.278,0.279,0.559,0.278
	c0.099,0.366,0.491,0.438,0.557,0.837C95.111,69.209,94.738,68.838,94.486,68.347z"/>
<path fill-rule="evenodd" clip-rule="evenodd" fill="#D3D3D3" d="M95.601,69.462c-0.065-0.398-0.458-0.471-0.557-0.837
	c0.491,0.252,0.861,0.623,1.114,1.115C95.934,69.687,95.88,69.461,95.601,69.462z"/>
<path fill-rule="evenodd" clip-rule="evenodd" fill="#323232" d="M106.75,66.953c0.707,0.027,0.707,1.088,0,1.115
	C107.073,67.656,107.073,67.366,106.75,66.953z"/>
<path fill-rule="evenodd" clip-rule="evenodd" fill="#727272" d="M132.392,36.295c0.345-0.583,0.81-1.048,1.393-1.394
	c0.092,0,0.187,0,0.278,0c0.332,0.689,0.955,1.09,1.673,1.394c0.044,0.693-0.438,0.863-0.557,1.393
	C133.949,37.608,133.372,35.736,132.392,36.295z"/>
<path fill-rule="evenodd" clip-rule="evenodd" fill="#D3D3D3" d="M64.385,46.608c0.067-0.398,0.459-0.47,0.558-0.836
	c0.099-0.366,0.491-0.438,0.558-0.836c0.093,0,0.185,0,0.278,0C65.475,45.653,65.075,46.275,64.385,46.608z"/>
<path fill-rule="evenodd" clip-rule="evenodd" fill="#A3A3A3" d="M104.521,15.113c0.25-0.491,0.623-0.863,1.113-1.115
	C105.382,14.49,105.011,14.861,104.521,15.113z"/>
<path fill-rule="evenodd" clip-rule="evenodd" fill="#323232" d="M107.585,15.949c0.441-0.675,0.998-1.232,1.673-1.672
	c-0.264,0.852-1.355,0.874-1.394,1.951c0.248,0.124,0.498,0.245,0.557,0.558C108.021,16.629,107.742,16.351,107.585,15.949z"/>
<path fill-rule="evenodd" clip-rule="evenodd" fill="#727272" d="M106.192,17.342c0.347-0.583,0.811-1.047,1.394-1.393
	c0.156,0.402,0.436,0.68,0.836,0.836c0.082,0.568,0.755,0.546,0.837,1.114c0.087,0.657,0.968,0.519,0.836,1.394
	c-0.248,0.124-0.499,0.244-0.557,0.557c-0.367,0.098-0.439,0.491-0.838,0.557c-0.188-0.647-0.926-0.746-1.114-1.394
	c-0.252-0.491-0.623-0.863-1.113-1.115C106.417,17.675,106.192,17.623,106.192,17.342z"/>
<path fill-rule="evenodd" clip-rule="evenodd" fill="#323232" d="M103.405,19.572c0.252-0.491,0.623-0.863,1.116-1.115
	C104.268,18.949,103.896,19.321,103.405,19.572z"/>
<path fill-rule="evenodd" clip-rule="evenodd" fill="#323232" d="M97.832,34.623c0.438-0.675,0.997-1.233,1.671-1.672
	C99.063,33.625,98.506,34.183,97.832,34.623z"/>
<path fill-rule="evenodd" clip-rule="evenodd" fill="#D3D3D3" d="M65.501,49.395c0.303-0.718,0.704-1.339,1.393-1.672
	c-0.082,0.568-0.753,0.546-0.836,1.115C65.934,49.085,65.813,49.335,65.501,49.395z"/>
<path fill-rule="evenodd" clip-rule="evenodd" fill="#323232" d="M97.553,67.511c-0.491-0.252-0.864-0.624-1.116-1.115
	C96.928,66.647,97.3,67.02,97.553,67.511z"/>
<path fill-rule="evenodd" clip-rule="evenodd" fill="#D3D3D3" d="M98.945,68.347c0.735-0.194,0.59-1.269,1.395-1.394
	C100.12,67.495,99.328,68.889,98.945,68.347z"/>
<path fill-rule="evenodd" clip-rule="evenodd" fill="#727272" d="M102.012,65.002c0.086-0.657,0.968-0.519,0.836-1.393
	c-0.525-0.684-1.154-1.263-1.395-2.23c0.412-0.146,0.703-0.413,1.116-0.558c0.625,0.676,1.071,1.529,1.673,2.23
	c0,0.093,0,0.186,0,0.278C103.066,63.457,102.958,64.648,102.012,65.002z"/>
<path fill-rule="evenodd" clip-rule="evenodd" fill="#A3A3A3" d="M130.998,33.787c0.099-0.366,0.491-0.439,0.557-0.836
	c0.367-0.099,0.439-0.49,0.838-0.558C132.045,32.977,131.581,33.44,130.998,33.787z"/>
<path fill-rule="evenodd" clip-rule="evenodd" fill="#727272" d="M130.163,31.835c0.418,0.417,1.172,0.499,1.392,1.115
	c-0.065,0.397-0.458,0.47-0.557,0.836c-0.124,0.248-0.244,0.498-0.557,0.557c0.052-1.353-1.627-0.975-1.673-2.229
	C129.26,31.87,129.582,31.231,130.163,31.835z"/>
<path fill-rule="evenodd" clip-rule="evenodd" fill="#323232" d="M128.768,32.115c0.054-0.226,0.28-0.278,0.278-0.558
	c0.37-0.362,1.038-0.368,1.116,0.278C129.582,31.231,129.26,31.87,128.768,32.115z"/>
<path fill-rule="evenodd" clip-rule="evenodd" fill="#727272" d="M68.845,49.673c-0.052,0.226-0.28,0.278-0.279,0.557
	c-1.15,0.805-1.548-1.123-2.508-1.394c0.083-0.568,0.754-0.546,0.836-1.115c0.125-0.248,0.245-0.499,0.558-0.558
	c-0.362,0.371-0.367,1.038,0.279,1.115C67.919,48.927,68.656,49.026,68.845,49.673z"/>
<path fill-rule="evenodd" clip-rule="evenodd" fill="#323232" d="M67.73,48.28c0.384,0.288,1.652,1.104,1.115,1.394
	C68.656,49.026,67.919,48.927,67.73,48.28z"/>
<path fill-rule="evenodd" clip-rule="evenodd" fill="#323232" d="M106.472,17.9c0.49,0.252,0.861,0.624,1.113,1.115
	C107.095,18.764,106.722,18.392,106.472,17.9z"/>
<path fill-rule="evenodd" clip-rule="evenodd" fill="#323232" d="M109.538,19.851c0.058-0.313,0.309-0.434,0.557-0.557
	c0.132-0.875-0.749-0.737-0.836-1.394c0.478,0.359,1.097,0.577,1.114,1.394C110.006,19.392,109.934,19.785,109.538,19.851z"/>
<path fill-rule="evenodd" clip-rule="evenodd" fill="#323232" d="M115.111,3.128c-0.124-0.456,1.519-0.456,1.395,0
	C116.041,3.128,115.576,3.128,115.111,3.128z"/>
<path fill-rule="evenodd" clip-rule="evenodd" fill="#A3A3A3" d="M119.013,6.752c-0.16,0.49,0.337,1.637-0.278,1.672
	c0-0.558,0-1.115,0-1.672C118.827,6.752,118.921,6.752,119.013,6.752z"/>
<path fill-rule="evenodd" clip-rule="evenodd" fill="#A3A3A3" d="M121.522,7.309c0,0.93,0,1.858,0,2.787c-0.093,0-0.187,0-0.279,0
	C121.417,9.249,120.886,7.696,121.522,7.309z"/>
<path fill-rule="evenodd" clip-rule="evenodd" fill="#A3A3A3" d="M118.735,12.047c0,0.929,0,1.858,0,2.787
	c-0.635-0.386-0.104-1.94-0.278-2.787C118.548,12.047,118.641,12.047,118.735,12.047z"/>
<path fill-rule="evenodd" clip-rule="evenodd" fill="#A3A3A3" d="M135.736,30.163c0.459,0.038,0.459,1.914,0,1.952
	C135.736,31.464,135.736,30.814,135.736,30.163z"/>
<path fill-rule="evenodd" clip-rule="evenodd" fill="#727272" d="M86.404,33.229c0.758,0.173,2.212-0.354,2.509,0.279
	C88.157,33.335,86.701,33.862,86.404,33.229z"/>
<path fill-rule="evenodd" clip-rule="evenodd" fill="#A3A3A3" d="M90.028,33.508c0.465,0,0.928,0,1.393,0c0,0.093,0,0.186,0,0.279
	C91.016,33.634,89.98,34.112,90.028,33.508z"/>
<path fill-rule="evenodd" clip-rule="evenodd" fill="#727272" d="M84.174,35.738c0.667,0.17,2.021-0.35,2.229,0.278
	C85.737,35.847,84.382,36.366,84.174,35.738z"/>
<path fill-rule="evenodd" clip-rule="evenodd" fill="#323232" d="M118.457,36.016c-0.126-0.455,1.519-0.455,1.393,0
	C119.384,36.016,118.921,36.016,118.457,36.016z"/>
<path fill-rule="evenodd" clip-rule="evenodd" fill="#727272" d="M87.798,36.016c0.665,0.17,2.021-0.35,2.229,0.279
	C89.361,36.125,88.004,36.646,87.798,36.016z"/>
<path fill-rule="evenodd" clip-rule="evenodd" fill="#A3A3A3" d="M127.375,36.016c0.371,0,0.743,0,1.114,0
	C128.688,36.468,127.175,36.468,127.375,36.016z"/>
<path fill-rule="evenodd" clip-rule="evenodd" fill="#A3A3A3" d="M107.585,48.28c0,0.65,0,1.3,0,1.951
	C107.127,50.193,107.127,48.318,107.585,48.28z"/>
<path fill-rule="evenodd" clip-rule="evenodd" fill="#727272" d="M73.584,50.788c0.3-0.461,2.486-0.461,2.786,0
	C75.441,50.788,74.511,50.788,73.584,50.788z"/>
<path fill-rule="evenodd" clip-rule="evenodd" fill="#727272" d="M64.665,53.296c0.035-0.615,1.182-0.118,1.672-0.278
	C66.302,53.633,65.154,53.136,64.665,53.296z"/>
<path fill-rule="evenodd" clip-rule="evenodd" fill="#323232" d="M62.435,53.018c-0.311,0.343-0.242,0.573,0.279,0.558
	c-0.086,0.378-0.698,0.231-1.115,0.278C61.754,53.452,62.034,53.174,62.435,53.018z"/>
<path fill-rule="evenodd" clip-rule="evenodd" fill="#323232" d="M105.634,54.69c0.739,1.027,1.074,2.457,1.673,3.623
	c-0.932,0.184-1.362,0.867-2.229,1.115c-5.716-0.271-10.668,0.042-13.657,2.509c-0.861-0.347-1.494-0.92-1.951-1.673
	c2.898-3.605,9.474-3.534,15.608-3.902C105.238,55.78,105.769,55.567,105.634,54.69z"/>
<path fill-rule="evenodd" clip-rule="evenodd" fill="#727272" d="M111.21,63.051c0-0.558,0-1.114,0-1.672
	C111.667,61.334,111.667,63.097,111.21,63.051z"/>
<path fill-rule="evenodd" clip-rule="evenodd" fill="#FFFFFF" d="M105.913,13.719c1.093-1.477,2.37-2.382,3.346-4.459
	c1.345-2.865,1.097-6.495,3.344-8.083c0.329-0.232,0.743-0.089,1.116-0.279c0.341-0.175,0.627-0.789,1.671-0.557
	c0.465,0,0.93,0,1.395,0c2.86,0.205,4.333,1.798,4.738,4.459c0,0.65,0,1.301,0,1.951c0,0.186,0,0.372,0,0.557
	c-0.636,0.387-0.104,1.939-0.279,2.787c0,0.372,0,0.743,0,1.115c0,0.186,0,0.372,0,0.558c-0.458,0.038-0.458,1.913,0,1.951
	c0.617,3.83,3.025,5.881,5.574,8.083c1.574,1.361,3.077,2.718,4.737,4.181c1.307,1.15,3.254,2.28,4.182,4.18
	c0,0.651,0,1.301,0,1.952c-0.128,1.451-1.427,1.732-1.951,2.787c-0.583,0.346-1.048,0.811-1.393,1.394
	c-0.419,1.068-1.431,1.543-2.229,2.229c-0.187,0-0.373,0-0.56,0c-1.021,0-2.043,0-3.064,0c-2.415-0.652-4.536-1.595-6.689-2.509
	c0.126-0.455-1.519-0.455-1.393,0c-2.114,1.616-3.128,4.093-5.297,5.853c-1.048,0.851-1.97,1.124-3.065,1.951
	c-0.64,0.483-0.979,1.229-1.673,1.951c-0.234,0.244-0.605,1.718-0.836,2.508c-0.458,0.038-0.458,1.913,0,1.951
	c0.56,4.364,2.691,7.157,3.625,11.149c0,0.558,0,1.114,0,1.672c-0.207,1.189-0.86,1.928-2.23,1.951
	c-0.667,0.17-2.023-0.35-2.229,0.278c-0.278,0-0.559,0-0.838,0c-0.555,0.282-1.189,0.482-1.392,1.115
	c-1.804,1.755-4.87,7.461-8.362,3.345c-0.253-0.492-0.623-0.863-1.114-1.115c-0.28,0.001-0.332-0.226-0.559-0.278
	c-1.865-1.386-3.462-3.041-5.295-4.459c-0.455-0.752-1.09-1.326-1.951-1.672c0-0.093,0-0.186,0-0.278
	c-2.084-1.332-3.743-3.151-5.574-4.739c-1.761-1.526-3.502-3.305-6.132-3.902c0.2-0.451-1.314-0.451-1.114,0
	c-1.541,0.407-3.848,1.66-6.41,2.23c-1.224,0.273-2.573,0.34-3.902,0.558c-1.875,0.307-3.335,1.208-4.459,0
	c-0.664-0.566-1.258-2.299-0.558-3.345c1.344-2.094,3.146-3.729,4.738-5.575c0.313-0.059,0.434-0.309,0.557-0.557
	c0.689-0.333,1.09-0.955,1.394-1.673c2.144-2.687,4.461-5.201,6.689-7.804c0.675-0.439,1.232-0.998,1.673-1.672
	c1.505-0.91,2.706-2.123,5.017-2.23c2.043,0,4.087,0,6.132,0c0.371,0,0.744,0,1.114,0c0.297,0.633,1.753,0.106,2.509,0.279
	c0.37,0,0.743,0,1.115,0c-0.048,0.604,0.988,0.126,1.393,0.279c0.491-0.161,1.637,0.336,1.673-0.279
	c3.043-0.487,4.809-2.252,5.295-5.295c0.615-0.035,0.118-1.183,0.278-1.672c0-0.929,0-1.858,0-2.787
	c0.12-2.667,1.307-4.269,2.509-5.853c0.675-0.439,1.233-0.997,1.673-1.672c0.366-0.099,0.438-0.491,0.835-0.557
	c0.398-0.067,0.471-0.459,0.838-0.558c0.49-0.252,0.861-0.624,1.113-1.115C105.805,13.982,105.965,13.957,105.913,13.719z
	 M115.111,3.128c-0.593,0.429-1.038,1.006-1.671,1.394c-0.48,4.166-2.107,7.184-4.182,9.754c-0.675,0.44-1.231,0.997-1.673,1.672
	c-0.583,0.346-1.047,0.811-1.394,1.393c-0.611,0.317-0.926,0.933-1.671,1.115c-0.493,0.252-0.864,0.624-1.116,1.115
	c-1.336,1.729-2.248,3.883-2.229,6.968c0,0.558,0,1.115,0,1.672c0.128,2.264-0.88,3.395-1.673,4.738
	c-0.674,0.439-1.232,0.997-1.671,1.672c-1.345,0.793-2.475,1.799-4.738,1.672c-0.557,0-1.116,0-1.673,0c-0.465,0-0.928,0-1.393,0
	c-0.208-0.629-1.564-0.109-2.229-0.279c-0.465,0-0.93,0-1.395,0c-0.208-0.628-1.563-0.108-2.229-0.278c-0.465,0-0.93,0-1.393,0
	c-0.124-0.46-2.107-0.46-2.229,0c-0.821,0.37-1.76,0.254-2.511,0.558c-2.292,0.925-3.716,3.179-5.017,4.738
	c-0.14,0.17-0.395,0.384-0.557,0.558c-1.781,1.904-3.378,3.906-5.017,5.574c-0.313,0.059-0.433,0.31-0.558,0.558
	c-0.688,0.333-1.089,0.954-1.393,1.672c-0.921,1.309-2.061,2.399-3.066,3.623c-0.401,0.156-0.68,0.435-0.836,0.836
	c0.417-0.047,1.029,0.1,1.115-0.278c0.359-0.385,1.211-0.276,1.951-0.28c0.49-0.16,1.638,0.337,1.672-0.278
	c2.927-0.231,4.408-1.91,7.248-2.229c0.927,0,1.856,0,2.786,0c3.155,0.312,5.047,2.521,6.968,4.181
	c2.054,1.776,4.007,3.575,6.131,5.295c0.457,0.752,1.09,1.326,1.951,1.673c1.619,1.54,3.34,2.978,5.017,4.459
	c0.252,0.491,0.625,0.863,1.116,1.115c0.656,0.085,0.519,0.968,1.392,0.836c0.383,0.542,1.175-0.853,1.395-1.394
	c0.565-0.642,1-1.415,1.673-1.951c0.946-0.354,1.054-1.545,2.23-1.673c0-0.093,0-0.185,0-0.278c0.931-0.646,2.565-0.592,4.179-0.558
	c0.446-1.192-0.949-2.694-1.114-4.181c-0.599-1.166-0.934-2.596-1.673-3.623c-0.314-0.893-0.566-1.849-0.557-3.065
	c0-1.487,0-2.973,0-4.46c0.671-3.787,2.925-5.994,6.133-7.246c0.328-0.592,0.875-1.07,1.392-1.672
	c1.493-1.735,3.42-4.874,5.854-5.017c0.465,0,0.928,0,1.393,0c2.809,0.629,5.046,1.829,7.526,2.787c-0.2,0.452,1.313,0.452,1.114,0
	c0.861-0.346,1.494-0.919,1.951-1.672c0.313-0.059,0.433-0.31,0.557-0.557c0.583-0.347,1.048-0.811,1.395-1.394
	c-0.132-0.875,0.749-0.736,0.835-1.394c-2.047-1.574-4.125-3.28-6.132-5.016c-1.112-0.963-2.198-2.271-3.344-2.787
	c-0.076-0.034-0.196-0.489-0.278-0.558c-2.236-1.863-4.281-4.482-4.738-7.804c0-0.929,0-1.858,0-2.787c0-0.372,0-0.743,0-1.115
	s0-0.743,0-1.115c0-0.465,0-0.93,0-1.394c0.615-0.035,0.118-1.182,0.278-1.672c-0.16-0.49,0.337-1.638-0.278-1.673
	c-0.204-1.189-0.859-1.928-2.229-1.951C116.629,2.673,114.987,2.673,115.111,3.128z"/>
<path fill-rule="evenodd" clip-rule="evenodd" fill="#D3D3D3" d="M79.158,33.229c1.398-0.463,4.731-0.463,6.132,0
	C83.245,33.229,81.201,33.229,79.158,33.229z"/>
<path fill-rule="evenodd" clip-rule="evenodd" fill="#D3D3D3" d="M126.539,38.525c1.021,0,2.043,0,3.064,0
	C129.214,38.987,126.929,38.987,126.539,38.525z"/>
<path fill-rule="evenodd" clip-rule="evenodd" fill="#D3D3D3" d="M105.078,47.165c0,1.487,0,2.973,0,4.46
	C104.615,50.778,104.615,48.011,105.078,47.165z"/>
<path fill-rule="evenodd" clip-rule="evenodd" fill="#727272" d="M104.521,66.396c0.202-0.633,0.837-0.833,1.392-1.115
	c0.005,0.832,0.726,0.948,0.838,1.672c0.322,0.413,0.322,0.703,0,1.115c-0.225,0.147-0.453,0.291-0.838,0.279
	C105.499,67.647,105.22,66.812,104.521,66.396z"/>
<path fill-rule="evenodd" clip-rule="evenodd" fill="#727272" d="M98.667,23.753c0,0.929,0,1.858,0,2.787c-0.092,0-0.187,0-0.278,0
	C98.563,25.693,98.032,24.14,98.667,23.753z"/>
</svg>
