<?xml version="1.0" encoding="utf-8"?>
<!-- Generator: Adobe Illustrator 15.0.0, SVG Export Plug-In  -->
<!DOCTYPE svg PUBLIC "-//W3C//DTD SVG 1.1//EN" "http://www.w3.org/Graphics/SVG/1.1/DTD/svg11.dtd" [
	<!ENTITY ns_flows "http://ns.adobe.com/Flows/1.0/">
]>
<svg version="1.1"
	 xmlns="http://www.w3.org/2000/svg" xmlns:xlink="http://www.w3.org/1999/xlink" xmlns:a="http://ns.adobe.com/AdobeSVGViewerExtensions/3.0/"
	 x="0px" y="0px" width="142px" height="142px" viewBox="-2.775 -4.239 142 142" enable-background="new -2.775 -4.239 142 142"
	 xml:space="preserve">
<defs>
</defs>
<path fill-rule="evenodd" clip-rule="evenodd" fill="#191919" d="M115.397,0.343c-0.044-0.458,1.719-0.458,1.673,0
	C116.514,0.343,115.956,0.343,115.397,0.343z"/>
<path fill-rule="evenodd" clip-rule="evenodd" fill="#191919" d="M115.397,3.13c-0.124-0.456,1.521-0.456,1.395,0
	C116.327,3.13,115.862,3.13,115.397,3.13z"/>
<path fill-rule="evenodd" clip-rule="evenodd" fill="#191919" d="M118.743,4.803c0.461,0.3,0.461,2.487,0,2.787
	C118.743,6.661,118.743,5.732,118.743,4.803z"/>
<path fill-rule="evenodd" clip-rule="evenodd" fill="#191919" d="M121.53,4.803c0.46,0.124,0.46,2.106,0,2.229
	C121.53,6.289,121.53,5.546,121.53,4.803z"/>
<path fill-rule="evenodd" clip-rule="evenodd" fill="#191919" d="M121.53,8.983c-0.171,0.667,0.351,2.022-0.279,2.229
	C121.422,10.546,120.9,9.191,121.53,8.983z"/>
<path fill-rule="evenodd" clip-rule="evenodd" fill="#191919" d="M118.743,9.82c-0.17,0.666,0.349,2.022-0.278,2.229
	C118.633,11.383,118.114,10.027,118.743,9.82z"/>
<path fill-rule="evenodd" clip-rule="evenodd" fill="#191919" d="M118.465,13.721c0.41,0.052,0.254,0.674,0.278,1.115
	C118.33,14.785,118.486,14.163,118.465,13.721z"/>
<path fill-rule="evenodd" clip-rule="evenodd" fill="#191919" d="M98.675,23.755c-0.18,1.491,0.367,3.711-0.278,4.738
	C98.579,27.002,98.03,24.783,98.675,23.755z"/>
<path fill-rule="evenodd" clip-rule="evenodd" fill="#191919" d="M101.184,26.264c0.461,0.124,0.461,2.105,0,2.229
	C101.184,27.75,101.184,27.006,101.184,26.264z"/>
<path fill-rule="evenodd" clip-rule="evenodd" fill="#191919" d="M79.166,33.231c0.086-0.378,0.697-0.231,1.113-0.278
	C80.229,33.365,79.606,33.208,79.166,33.231z"/>
<path fill-rule="evenodd" clip-rule="evenodd" fill="#191919" d="M83.347,32.953c0.577,0.166,1.831-0.344,1.951,0.278
	C84.72,33.065,83.467,33.576,83.347,32.953z"/>
<path fill-rule="evenodd" clip-rule="evenodd" fill="#191919" d="M118.465,33.231c-0.126-0.455,1.519-0.455,1.393,0
	C119.393,33.231,118.93,33.231,118.465,33.231z"/>
<path fill-rule="evenodd" clip-rule="evenodd" fill="#191919" d="M86.969,33.231c0.577,0.167,1.831-0.344,1.952,0.279
	C88.344,33.344,87.089,33.854,86.969,33.231z"/>
<path fill-rule="evenodd" clip-rule="evenodd" fill="#191919" d="M90.594,33.51c0.927,0,1.856,0,2.786,0
	C93.079,33.971,90.894,33.971,90.594,33.51z"/>
<path fill-rule="evenodd" clip-rule="evenodd" fill="#191919" d="M81.117,35.74c-0.2-0.452,1.314-0.452,1.114,0
	C81.86,35.74,81.488,35.74,81.117,35.74z"/>
<path fill-rule="evenodd" clip-rule="evenodd" fill="#191919" d="M84.183,35.74c0.577,0.166,1.831-0.345,1.951,0.278
	C85.557,35.853,84.303,36.363,84.183,35.74z"/>
<path fill-rule="evenodd" clip-rule="evenodd" fill="#191919" d="M118.465,36.018c-0.126-0.455,1.519-0.455,1.393,0
	C119.393,36.018,118.93,36.018,118.465,36.018z"/>
<path fill-rule="evenodd" clip-rule="evenodd" fill="#191919" d="M87.807,36.018c0.577,0.166,1.829-0.344,1.949,0.279
	C89.179,36.131,87.927,36.641,87.807,36.018z"/>
<path fill-rule="evenodd" clip-rule="evenodd" fill="#191919" d="M91.429,36.297c0.557,0,1.116,0,1.673,0
	C93.147,36.754,91.383,36.754,91.429,36.297z"/>
<path fill-rule="evenodd" clip-rule="evenodd" fill="#191919" d="M108.151,54.134c0.459,0.038,0.459,1.914,0,1.952
	C108.151,55.435,108.151,54.785,108.151,54.134z"/>
<path fill-rule="evenodd" clip-rule="evenodd" fill="#C4C4C4" d="M98.675,56.922c0-0.093,0-0.186,0-0.279c0.558,0,1.116,0,1.673,0
	c0,0.093,0,0.186,0,0.279C99.791,56.922,99.232,56.922,98.675,56.922z"/>
<path fill-rule="evenodd" clip-rule="evenodd" fill="#C4C4C4" d="M98.396,59.43c0.213-0.461,2.298-0.461,2.509,0
	C100.069,59.43,99.232,59.43,98.396,59.43z"/>
<path fill-rule="evenodd" clip-rule="evenodd" fill="#323232" d="M106.759,61.103c0.603-0.047,0.126,0.988,0.278,1.393
	c-0.094,0-0.187,0-0.278,0C106.759,62.031,106.759,61.566,106.759,61.103z"/>
<path fill-rule="evenodd" clip-rule="evenodd" fill="#323232" d="M68.574,94.547c0,0.372,0,0.743,0,1.115
	C68.123,95.862,68.123,94.348,68.574,94.547z"/>
<path fill-rule="evenodd" clip-rule="evenodd" fill="#191919" d="M44.048,111.828c0,0.465,0,0.929,0,1.394
	C43.593,113.346,43.593,111.703,44.048,111.828z"/>
<path fill-rule="evenodd" clip-rule="evenodd" fill="#C4C4C4" d="M42.097,122.976c0,0.371,0,0.744,0,1.115
	C41.645,124.291,41.645,122.777,42.097,122.976z"/>
<path fill-rule="evenodd" clip-rule="evenodd" fill="#191919" d="M31.785,130.222c0.052-0.411,0.674-0.255,1.115-0.278
	C32.848,130.357,32.226,130.201,31.785,130.222z"/>
<path fill-rule="evenodd" clip-rule="evenodd" fill="#191919" d="M25.932,130.222c1.579,0,3.159,0,4.738,0
	C29.732,130.686,26.87,130.686,25.932,130.222z"/>
<path fill-rule="evenodd" clip-rule="evenodd" fill="#191919" d="M31.506,133.01c0.052-0.413,0.674-0.256,1.115-0.279
	C32.535,133.109,31.923,132.963,31.506,133.01z"/>
<path fill-rule="evenodd" clip-rule="evenodd" fill="#191919" d="M26.489,133.01c1.208,0,2.416,0,3.623,0
	C29.541,133.472,27.061,133.472,26.489,133.01z"/>
<path fill-rule="evenodd" clip-rule="evenodd" fill="#191919" d="M111.497,2.573c0.345-0.583,0.81-1.047,1.393-1.393
	C112.545,1.763,112.08,2.227,111.497,2.573z"/>
<path fill-rule="evenodd" clip-rule="evenodd" fill="#191919" d="M104.529,15.115c0.812-1.046,1.74-1.975,2.786-2.787
	C106.502,13.374,105.575,14.303,104.529,15.115z"/>
<path fill-rule="evenodd" clip-rule="evenodd" fill="#191919" d="M101.184,17.902c0.44-0.675,0.997-1.232,1.673-1.672
	C102.417,16.905,101.858,17.463,101.184,17.902z"/>
<path fill-rule="evenodd" clip-rule="evenodd" fill="#191919" d="M95.889,32.673c0.438-0.674,0.997-1.232,1.673-1.672
	C97.12,31.677,96.563,32.234,95.889,32.673z"/>
<path fill-rule="evenodd" clip-rule="evenodd" fill="#191919" d="M72.477,37.133c0.347-0.583,0.812-1.047,1.395-1.394
	C73.524,36.323,73.06,36.788,72.477,37.133z"/>
<path fill-rule="evenodd" clip-rule="evenodd" fill="#191919" d="M70.804,39.084c0.252-0.491,0.623-0.863,1.116-1.115
	C71.667,38.46,71.297,38.833,70.804,39.084z"/>
<path fill-rule="evenodd" clip-rule="evenodd" fill="#191919" d="M68.853,41.314c0.252-0.492,0.624-0.863,1.115-1.115
	C69.717,40.69,69.345,41.063,68.853,41.314z"/>
<path fill-rule="evenodd" clip-rule="evenodd" fill="#191919" d="M66.902,43.544c0.347-0.583,0.811-1.048,1.394-1.394
	C67.95,42.732,67.485,43.197,66.902,43.544z"/>
<path fill-rule="evenodd" clip-rule="evenodd" fill="#191919" d="M65.23,45.494c0.251-0.491,0.624-0.863,1.115-1.114
	C66.093,44.871,65.722,45.243,65.23,45.494z"/>
<path fill-rule="evenodd" clip-rule="evenodd" fill="#191919" d="M63.279,47.724c0.251-0.491,0.623-0.863,1.114-1.114
	C64.143,47.101,63.771,47.473,63.279,47.724z"/>
<path fill-rule="evenodd" clip-rule="evenodd" fill="#191919" d="M61.328,49.954c0.346-0.583,0.811-1.047,1.394-1.394
	C62.375,49.144,61.912,49.608,61.328,49.954z"/>
<path fill-rule="evenodd" clip-rule="evenodd" fill="#191919" d="M59.656,51.905c0.252-0.491,0.624-0.864,1.115-1.115
	C60.519,51.282,60.147,51.653,59.656,51.905z"/>
<path fill-rule="evenodd" clip-rule="evenodd" fill="#191919" d="M56.869,54.971c0.626-0.86,1.37-1.604,2.229-2.229
	C58.473,53.601,57.729,54.345,56.869,54.971z"/>
<path fill-rule="evenodd" clip-rule="evenodd" fill="#787878" d="M49.9,61.103c0.627-0.861,1.37-1.604,2.23-2.229
	C51.504,59.733,50.762,60.476,49.9,61.103z"/>
<path fill-rule="evenodd" clip-rule="evenodd" fill="#C4C4C4" d="M42.655,91.761c0.491,0.251,0.862,0.623,1.114,1.114
	C43.278,92.624,42.906,92.251,42.655,91.761z"/>
<path fill-rule="evenodd" clip-rule="evenodd" fill="#787878" d="M41.261,119.353c0.44-0.676,0.998-1.233,1.672-1.672
	C42.494,118.356,41.936,118.914,41.261,119.353z"/>
<path fill-rule="evenodd" clip-rule="evenodd" fill="#191919" d="M38.753,121.583c0.439-0.675,0.997-1.233,1.672-1.672
	c0,0.093,0,0.186,0,0.278C39.691,120.478,39.486,121.294,38.753,121.583z"/>
<path fill-rule="evenodd" clip-rule="evenodd" fill="#191919" d="M35.965,124.091c0.346-0.583,0.811-1.048,1.394-1.394
	C37.013,123.281,36.548,123.746,35.965,124.091z"/>
<path fill-rule="evenodd" clip-rule="evenodd" fill="#787878" d="M54.082,124.091c0.252-0.491,0.623-0.863,1.115-1.115
	C54.945,123.468,54.573,123.839,54.082,124.091z"/>
<path fill-rule="evenodd" clip-rule="evenodd" fill="#C4C4C4" d="M55.754,122.14c0.463-0.559,0.749-1.296,1.672-1.394
	C56.834,121.176,56.389,121.751,55.754,122.14z"/>
<path fill-rule="evenodd" clip-rule="evenodd" fill="#C4C4C4" d="M103.97,66.677c0.359-0.478,0.577-1.096,1.395-1.115
	C104.916,65.948,104.482,66.351,103.97,66.677z"/>
<path fill-rule="evenodd" clip-rule="evenodd" fill="#191919" d="M110.381,59.151c-0.491-0.252-0.863-0.624-1.114-1.115
	C109.758,58.289,110.131,58.66,110.381,59.151z"/>
<path fill-rule="evenodd" clip-rule="evenodd" fill="#191919" d="M114.005,40.756c0.251-0.491,0.623-0.863,1.114-1.114
	C114.868,40.133,114.496,40.505,114.005,40.756z"/>
<path fill-rule="evenodd" clip-rule="evenodd" fill="#191919" d="M115.956,38.527c0.345-0.583,0.81-1.048,1.393-1.394
	C117.004,37.716,116.537,38.18,115.956,38.527z"/>
<path fill-rule="evenodd" clip-rule="evenodd" fill="#191919" d="M132.4,36.297c0.25-0.492,0.623-0.863,1.114-1.115
	C133.262,35.674,132.892,36.045,132.4,36.297z"/>
<path fill-rule="evenodd" clip-rule="evenodd" fill="#191919" d="M134.35,34.067c0.253-0.492,0.625-0.863,1.116-1.115
	C135.213,33.444,134.843,33.815,134.35,34.067z"/>
<path fill-rule="evenodd" clip-rule="evenodd" fill="#191919" d="M133.235,27.378c0.491,0.252,0.864,0.623,1.114,1.114
	C133.858,28.242,133.488,27.87,133.235,27.378z"/>
<path fill-rule="evenodd" clip-rule="evenodd" fill="#191919" d="M131.284,25.706c0.491,0.251,0.863,0.623,1.116,1.115
	C131.907,26.569,131.537,26.198,131.284,25.706z"/>
<path fill-rule="evenodd" clip-rule="evenodd" fill="#191919" d="M129.055,23.755c0.583,0.346,1.048,0.811,1.395,1.394
	C129.866,24.803,129.401,24.338,129.055,23.755z"/>
<path fill-rule="evenodd" clip-rule="evenodd" fill="#191919" d="M126.825,21.804c0.583,0.346,1.048,0.811,1.394,1.394
	C127.637,22.852,127.172,22.387,126.825,21.804z"/>
<path fill-rule="evenodd" clip-rule="evenodd" fill="#191919" d="M124.874,20.132c0.492,0.252,0.863,0.624,1.115,1.115
	C125.499,20.995,125.126,20.624,124.874,20.132z"/>
<path fill-rule="evenodd" clip-rule="evenodd" fill="#191919" d="M112.332,38.527c0.253-0.492,0.623-0.863,1.116-1.115
	C113.195,37.903,112.823,38.275,112.332,38.527z"/>
<path fill-rule="evenodd" clip-rule="evenodd" fill="#191919" d="M114.283,36.297c0.253-0.492,0.623-0.863,1.114-1.115
	C115.147,35.674,114.774,36.045,114.283,36.297z"/>
<path fill-rule="evenodd" clip-rule="evenodd" fill="#191919" d="M130.449,34.346c0.345-0.583,0.81-1.047,1.393-1.394
	C131.497,33.536,131.032,34,130.449,34.346z"/>
<path fill-rule="evenodd" clip-rule="evenodd" fill="#191919" d="M131.284,29.329c0.491,0.251,0.863,0.624,1.116,1.115
	C131.907,30.192,131.537,29.821,131.284,29.329z"/>
<path fill-rule="evenodd" clip-rule="evenodd" fill="#191919" d="M129.055,27.378c0.583,0.346,1.048,0.811,1.395,1.394
	C129.866,28.426,129.401,27.961,129.055,27.378z"/>
<path fill-rule="evenodd" clip-rule="evenodd" fill="#191919" d="M126.825,25.427c0.583,0.346,1.048,0.811,1.394,1.394
	C127.637,26.475,127.172,26.01,126.825,25.427z"/>
<path fill-rule="evenodd" clip-rule="evenodd" fill="#191919" d="M124.874,23.755c0.492,0.252,0.863,0.624,1.115,1.115
	C125.499,24.618,125.126,24.247,124.874,23.755z"/>
<path fill-rule="evenodd" clip-rule="evenodd" fill="#191919" d="M122.646,21.804c0.581,0.346,1.046,0.811,1.393,1.394
	C123.455,22.852,122.99,22.387,122.646,21.804z"/>
<path fill-rule="evenodd" clip-rule="evenodd" fill="#191919" d="M113.448,4.524c0.25-0.492,0.623-0.864,1.114-1.115
	C114.31,3.9,113.939,4.272,113.448,4.524z"/>
<path fill-rule="evenodd" clip-rule="evenodd" fill="#191919" d="M106.759,16.788c0.625-0.86,1.368-1.604,2.229-2.23
	C108.361,15.417,107.618,16.161,106.759,16.788z"/>
<path fill-rule="evenodd" clip-rule="evenodd" fill="#191919" d="M103.135,19.853c0.44-0.675,0.997-1.232,1.673-1.672
	C104.367,18.856,103.81,19.414,103.135,19.853z"/>
<path fill-rule="evenodd" clip-rule="evenodd" fill="#191919" d="M98.118,34.346c0.347-0.583,0.812-1.047,1.393-1.394
	C99.166,33.536,98.701,34,98.118,34.346z"/>
<path fill-rule="evenodd" clip-rule="evenodd" fill="#191919" d="M74.149,39.363c0.533-0.768,1.184-1.418,1.951-1.951
	C75.567,38.18,74.917,38.83,74.149,39.363z"/>
<path fill-rule="evenodd" clip-rule="evenodd" fill="#191919" d="M72.477,41.314c0.252-0.492,0.623-0.863,1.116-1.115
	C73.34,40.69,72.968,41.063,72.477,41.314z"/>
<path fill-rule="evenodd" clip-rule="evenodd" fill="#191919" d="M70.525,43.544c0.346-0.583,0.812-1.048,1.395-1.394
	C71.573,42.732,71.108,43.197,70.525,43.544z"/>
<path fill-rule="evenodd" clip-rule="evenodd" fill="#191919" d="M68.574,45.773c0.347-0.583,0.811-1.048,1.394-1.394
	C69.622,44.962,69.157,45.427,68.574,45.773z"/>
<path fill-rule="evenodd" clip-rule="evenodd" fill="#191919" d="M66.902,47.724c0.252-0.491,0.624-0.863,1.116-1.114
	C67.766,47.101,67.394,47.473,66.902,47.724z"/>
<path fill-rule="evenodd" clip-rule="evenodd" fill="#191919" d="M64.951,49.954c0.252-0.492,0.624-0.863,1.115-1.115
	C65.814,49.331,65.443,49.702,64.951,49.954z"/>
<path fill-rule="evenodd" clip-rule="evenodd" fill="#191919" d="M63,52.184c0.346-0.583,0.811-1.047,1.393-1.394
	C64.048,51.374,63.583,51.837,63,52.184z"/>
<path fill-rule="evenodd" clip-rule="evenodd" fill="#323232" d="M112.89,1.18c0.839-0.276,1.243-0.986,2.508-0.836
	c0.559,0,1.116,0,1.673,0c2.614,0.358,4.101,1.844,4.46,4.459c0,0.743,0,1.486,0,2.229c0,0.65,0,1.301,0,1.951
	c-0.63,0.208-0.108,1.563-0.279,2.229c-0.21,4.392,1.463,6.898,3.623,8.919c0.252,0.492,0.625,0.863,1.115,1.115
	c0.367,0.098,0.438,0.491,0.836,0.558c0.347,0.583,0.812,1.047,1.394,1.394c0.365,0.098,0.439,0.491,0.836,0.557
	c0.347,0.583,0.812,1.048,1.395,1.394c0.364,0.098,0.438,0.491,0.835,0.557c0.253,0.492,0.623,0.863,1.116,1.115
	c0.364,0.098,0.437,0.49,0.835,0.557c0.253,0.491,0.623,0.863,1.114,1.114c1.437,0.473,2.316,3.018,1.116,4.46
	c-0.491,0.252-0.863,0.623-1.116,1.115c-0.082,0.568-0.753,0.546-0.835,1.115c-0.491,0.252-0.864,0.623-1.114,1.115
	c-0.267,0.605-0.916,1.001-1.395,1.393c-0.423,0.347-0.844,0.977-1.395,1.115c-3.087,0.773-7.332-2.038-9.754-2.788
	c0.126-0.455-1.519-0.455-1.393,0c-0.493,0.252-0.863,0.624-1.116,1.115c-0.583,0.346-1.048,0.811-1.393,1.394
	c-0.082,0.568-0.755,0.546-0.837,1.115c-0.491,0.251-0.863,0.623-1.114,1.114c-0.339,0.399-0.703,1.068-1.115,1.394
	c-1.084,0.859-2.715,1.187-3.623,2.23c-0.162,0.187-0.12,0.391-0.278,0.557c-0.229,0.237-0.334,0.603-0.559,0.836
	c-0.116,0.121-0.756,1.691-0.836,2.229c-0.286,1.919,0.518,3.593,0.558,6.132c0,0.65,0,1.301,0,1.952
	c0.166,0.889-0.523,0.862,0,1.393c-0.996-0.118-1.486-0.742-2.787-0.557c-0.008-0.271-0.341-0.216-0.557-0.279
	c1.625-2.058-0.651-5.757,0-9.477c0.102-0.585,0.665-1.98,1.113-2.787c0.106-0.192,0.453-0.39,0.56-0.558
	c0.903-1.457,2.626-3.447,4.738-3.902c0.188-0.647,0.925-0.746,1.113-1.394c0.491-0.252,0.863-0.624,1.116-1.115
	c0.08-0.568,0.753-0.547,0.835-1.115c0.491-0.252,0.864-0.624,1.114-1.115c0.467-0.833,1.276-1.326,1.951-1.951
	c0.373,0,0.743,0,1.116,0c0.465,0,0.928,0,1.393,0c0.961-0.011,2.538,0.743,4.181,1.394c2.767,1.096,4.688,2.543,6.411-0.279
	c0.583-0.346,1.048-0.811,1.393-1.394c0.475-0.547,0.65-1.393,1.394-1.672c-0.156-0.402-0.435-0.681-0.835-0.836
	c-0.253-0.491-0.625-0.864-1.116-1.115c-0.366-0.099-0.438-0.491-0.835-0.557c-0.347-0.583-0.812-1.048-1.395-1.394
	c-0.364-0.099-0.438-0.491-0.836-0.557c-0.346-0.583-0.811-1.048-1.394-1.394c-0.365-0.098-0.439-0.491-0.836-0.558
	c-0.252-0.491-0.623-0.863-1.115-1.115c-0.365-0.098-0.438-0.49-0.836-0.557c-0.347-0.583-0.812-1.048-1.393-1.394
	c-1.947-1.678-3.409-3.838-3.902-6.968c-0.024-0.441,0.132-1.063-0.278-1.115c0-0.557,0-1.115,0-1.672
	c0.627-0.208,0.108-1.563,0.278-2.229c0-0.743,0-1.487,0-2.23c0.461-0.3,0.461-2.487,0-2.787c-0.345-0.864-0.848-1.569-1.951-1.672
	c0.126-0.456-1.519-0.456-1.395,0c-0.225,0.147-0.451,0.291-0.835,0.279c-0.491,0.251-0.864,0.623-1.114,1.115
	c-0.511,4.322-2.214,7.449-4.46,10.033c-0.861,0.626-1.604,1.37-2.229,2.23c-0.733,0.381-1.058,1.173-1.951,1.393
	c-0.676,0.44-1.232,0.998-1.673,1.672c-1.086,1.702-1.93,3.644-1.951,6.411c0,0.743,0,1.486,0,2.229
	c0.048,2.093-0.916,3.172-1.673,4.46c-0.581,0.346-1.046,0.81-1.393,1.394c-1.354,0.969-2.593,2.054-5.017,1.951
	c-0.557,0-1.116,0-1.673,0s-1.114,0-1.673,0c-0.12-0.623-1.372-0.113-1.949-0.279c-0.559,0-1.116,0-1.673,0
	c-0.12-0.623-1.374-0.112-1.951-0.278c-0.649,0-1.301,0-1.951,0c0.2-0.452-1.314-0.452-1.114,0
	c-2.174,0.056-3.474,0.987-5.017,1.672c-0.768,0.533-1.418,1.183-1.951,1.951c-0.099,0.366-0.491,0.438-0.557,0.836
	c-0.493,0.252-0.864,0.624-1.116,1.115c-0.099,0.366-0.491,0.438-0.557,0.836c-0.583,0.346-1.049,0.811-1.395,1.394
	c-0.099,0.366-0.49,0.438-0.558,0.836c-0.583,0.346-1.047,0.811-1.394,1.394c-0.098,0.366-0.491,0.438-0.557,0.836
	c-0.492,0.251-0.864,0.623-1.116,1.114c-0.082,0.568-0.753,0.546-0.836,1.115c-0.491,0.252-0.863,0.624-1.115,1.115
	c-0.098,0.366-0.49,0.438-0.558,0.836c-0.583,0.346-1.047,0.81-1.393,1.394c-0.078,0.419-1.198,1.173-0.558,1.394
	c-2.793,0.922-5.457,1.975-7.804,3.344c0.489-0.905,1.395-1.394,2.23-1.951c0.86-0.626,1.604-1.37,2.229-2.229
	c0.099-0.366,0.491-0.438,0.558-0.836c0.492-0.252,0.863-0.624,1.115-1.115c0.099-0.366,0.491-0.438,0.558-0.836
	c0.583-0.346,1.047-0.811,1.394-1.394c0.099-0.366,0.491-0.439,0.558-0.836c0.491-0.251,0.863-0.623,1.114-1.114
	c0.083-0.569,0.754-0.547,0.836-1.116c0.492-0.251,0.863-0.623,1.115-1.114c0.098-0.367,0.491-0.438,0.557-0.836
	c0.583-0.347,1.048-0.812,1.394-1.394c0.099-0.366,0.491-0.438,0.557-0.836c0.492-0.251,0.864-0.624,1.115-1.115
	c0.082-0.568,0.754-0.546,0.836-1.114c0.493-0.252,0.863-0.624,1.116-1.115c0.098-0.366,0.49-0.438,0.557-0.836
	c0.583-0.346,1.048-0.811,1.395-1.394c1.477-1.124,2.917-2.286,5.295-2.509c0.44-0.022,1.063,0.134,1.113-0.278
	c1.024,0,2.046,0,3.067,0c0.12,0.623,1.373,0.113,1.951,0.278c0.558,0,1.114,0,1.671,0c0.12,0.624,1.375,0.113,1.952,0.279
	c0.557,0,1.115,0,1.673,0c0.3,0.461,2.485,0.461,2.786,0c1.023-0.09,1.543-0.687,2.509-0.836c0.675-0.439,1.231-0.997,1.673-1.672
	c0.147-0.965,0.745-1.483,0.835-2.508c0.646-1.027,0.099-3.247,0.278-4.738c0.076-2.711,1.305-4.271,2.509-5.853
	c0.675-0.439,1.233-0.997,1.673-1.672c0.612-0.316,0.925-0.932,1.673-1.115c1.046-0.813,1.973-1.742,2.786-2.787
	c1.402-1.961,2.583-4.542,3.344-7.525c0.234-0.915,0.196-1.658,0.838-2.23C112.08,2.227,112.545,1.763,112.89,1.18z"/>
<path fill-rule="evenodd" clip-rule="evenodd" fill="#C4C4C4" d="M108.988,58.037c0.093,0,0.185,0,0.278,0
	c0.251,0.491,0.623,0.863,1.114,1.115c0,0.093,0,0.186,0,0.279C109.798,59.084,109.333,58.62,108.988,58.037z"/>
<path fill-rule="evenodd" clip-rule="evenodd" fill="#323232" d="M40.704,127.157c1.193,0.944,2.409,1.864,4.738,1.672
	c-3.99,1.585-7.696,3.452-12.82,3.902c-0.441,0.023-1.063-0.134-1.115,0.279c-0.464,0-0.929,0-1.394,0c-1.208,0-2.416,0-3.623,0
	c-6.622-0.124-11.648-3.689-15.887-6.968c-0.895-0.693-1.933-1.363-3.066-2.23c-1.343-1.027-2.957-2.394-4.459-3.623
	c-1.311-1.071-3.246-2.162-3.066-4.737c0.087-1.259,1.196-3.234,2.787-3.624c1.492-0.365,3.299,0.388,5.017,0.836
	c3.273,0.854,6.067,1.651,9.198,2.509c3.062,0.839,5.639,1.442,8.083,3.065c0.104,0.069,0.188,0.517,0.279,0.558
	c0.142,0.064,0.429-0.085,0.558,0c0.103,0.068,0.188,0.517,0.278,0.558c1.699,0.766,3.158,2.104,5.017,3.345
	c1.639,1.093,2.819,2.172,4.738,1.394c0.583-0.346,1.047-0.811,1.394-1.394c0.647-0.188,0.746-0.927,1.394-1.115
	c0.733-0.288,0.938-1.104,1.672-1.394c-0.231,0.697-0.764,1.094-0.836,1.951c-0.632,0.296-0.106,1.752-0.279,2.509
	c-0.583,0.346-1.047,0.811-1.393,1.394c-1.257,0.958-2.547,1.297-4.181,1.114c-1.159-0.129-2.094-0.879-3.344-1.673
	c-1.508-0.955-2.912-2.003-4.459-3.064c-0.482-0.332-0.916-0.787-1.394-1.115c-0.511-0.352-1.134-0.479-1.673-0.837
	c-0.626-0.414-1.186-1.15-1.951-1.393c-1.55-0.491-3.142-0.681-4.738-1.115c-2.895-0.789-5.829-1.619-9.198-2.508
	c-1.196-0.316-3.135-1.679-4.181,0c0,0.278,0,0.558,0,0.836c0.252,0.491,0.624,0.862,1.115,1.114
	c7.168,4.445,11.835,11.391,22.019,12.82c0.938,0.464,3.8,0.464,4.738,0c0.372,0,0.743,0,1.115,0
	c0.441-0.021,1.063,0.135,1.115-0.278c2.862-0.482,5.247-1.441,7.804-2.229C41.109,127.591,40.675,127.469,40.704,127.157z"/>
<path fill-rule="evenodd" clip-rule="evenodd" fill="#C4C4C4" d="M51.852,62.775c0.533-0.768,1.183-1.418,1.951-1.952
	C53.27,61.591,52.62,62.241,51.852,62.775z"/>
<path fill-rule="evenodd" clip-rule="evenodd" fill="#191919" d="M51.852,62.775c0.768-0.534,1.418-1.184,1.951-1.952
	c0.093,0,0.187,0,0.279,0c-0.626,0.86-1.37,1.604-2.229,2.23C51.852,62.96,51.852,62.868,51.852,62.775z"/>
<path fill-rule="evenodd" clip-rule="evenodd" fill="#C4C4C4" d="M92.264,63.053c-0.957-0.354-1.542-1.546,0-1.672
	C91.188,61.942,91.625,62.292,92.264,63.053z"/>
<path fill-rule="evenodd" clip-rule="evenodd" fill="#C4C4C4" d="M95.609,65.84c0.611,0.597,1.549,0.868,1.952,1.672
	C96.868,66.998,95.988,66.67,95.609,65.84z"/>
<path fill-rule="evenodd" clip-rule="evenodd" fill="#787878" d="M102.021,65.004c0.345-0.583,0.81-1.048,1.393-1.393
	C103.068,64.193,102.604,64.658,102.021,65.004z"/>
<path fill-rule="evenodd" clip-rule="evenodd" fill="#787878" d="M108.43,61.103c-0.781-0.053-0.028,1.978,0.278,0.836
	c0.815,0.478-0.953,0.692-1.671,0.557c-0.152-0.405,0.324-1.44-0.278-1.393c0-0.372,0-0.744,0-1.115
	C107.69,59.984,107.911,60.694,108.43,61.103z"/>
<path fill-rule="evenodd" clip-rule="evenodd" fill="#191919" d="M108.43,61.103c0.148,0.224,0.292,0.453,0.278,0.836
	C108.401,63.08,107.648,61.05,108.43,61.103z"/>
<path fill-rule="evenodd" clip-rule="evenodd" fill="#323232" d="M107.037,66.677c0.495,0.341,0.057,1.616,1.393,1.115
	c0.048,0.604-0.987,0.126-1.393,0.278C107.037,67.606,107.037,67.141,107.037,66.677z"/>
<path fill-rule="evenodd" clip-rule="evenodd" fill="#787878" d="M66.066,94.547c0-0.093,0-0.186,0-0.278
	c1.406,0.238,1.559,0.075,3.066,0c-0.008,0.271-0.342,0.217-0.558,0.278c-0.452-0.199-0.452,1.314,0,1.115c0,0.465,0,0.929,0,1.394
	c-0.464,0-0.929,0-1.393,0c0-0.186,0-0.372,0-0.558c-0.166-0.577,0.344-1.831-0.279-1.951
	C66.624,94.547,66.345,94.547,66.066,94.547z"/>
<path fill-rule="evenodd" clip-rule="evenodd" fill="#C4C4C4" d="M42.375,122.14c0.306-0.995,0.956-1.646,1.951-1.951
	C43.585,120.749,42.935,121.399,42.375,122.14z"/>
<path fill-rule="evenodd" clip-rule="evenodd" fill="#C4C4C4" d="M51.573,122.698c0.712-0.774,1.456-1.518,2.23-2.23
	C53.449,121.601,52.477,122.115,51.573,122.698z"/>
<path fill-rule="evenodd" clip-rule="evenodd" fill="#787878" d="M60.771,107.647c0.675,0.439,1.233,0.997,1.672,1.673
	C61.768,108.88,61.21,108.322,60.771,107.647z"/>
<path fill-rule="evenodd" clip-rule="evenodd" fill="#787878" d="M54.082,102.352c0.252-0.756,1.026,0.234,1.115,0.557
	C54.643,102.906,54.842,102.149,54.082,102.352z"/>
<path fill-rule="evenodd" clip-rule="evenodd" fill="#191919" d="M37.917,126.042c0.345-0.583,0.81-1.048,1.393-1.394
	c0.093,0,0.187,0,0.279,0c0,0.092,0,0.186,0,0.278C38.61,124.877,38.672,125.869,37.917,126.042z"/>
<path fill-rule="evenodd" clip-rule="evenodd" fill="#191919" d="M2.798,116.288c0.492,0.251,0.864,0.623,1.115,1.114
	C3.422,117.15,3.05,116.779,2.798,116.288z"/>
<path fill-rule="evenodd" clip-rule="evenodd" fill="#787878" d="M58.541,115.73c0.214,1.051-0.34,1.332-0.279,2.229
	c-0.851-0.201-1.016,0.285-1.672,0.278c0.165-1.094-1.53-0.327-1.115-1.672c0.392-0.073,0.317-0.611,0.558-0.836
	c0.748,0.366,1.481,0.748,2.229,1.114C58.31,116.428,58.163,115.816,58.541,115.73z"/>
<path fill-rule="evenodd" clip-rule="evenodd" fill="#787878" d="M73.312,50.79c0.391-0.461,2.677-0.461,3.067,0
	C75.357,50.79,74.336,50.79,73.312,50.79z"/>
<path fill-rule="evenodd" clip-rule="evenodd" fill="#787878" d="M97.002,56.922c0.036-0.616,1.185-0.119,1.673-0.279
	c0,0.093,0,0.186,0,0.279C98.118,56.922,97.562,56.922,97.002,56.922z"/>
<path fill-rule="evenodd" clip-rule="evenodd" fill="#787878" d="M100.348,56.643c1.486,0,2.974,0,4.46,0
	c0.216,0.063,0.549,0.007,0.557,0.279c-1.673,0-3.344,0-5.017,0C100.348,56.829,100.348,56.736,100.348,56.643z"/>
<path fill-rule="evenodd" clip-rule="evenodd" fill="#191919" d="M102.299,59.43c1.03,0.178,2.777-0.361,3.344,0.279
	C104.613,59.531,102.866,60.07,102.299,59.43z"/>
<path fill-rule="evenodd" clip-rule="evenodd" fill="#787878" d="M51.016,64.168c0,0.186,0,0.372,0,0.558
	c1.183,0.711,2.596,1.094,3.065,2.229c-0.475,0.548-0.651,1.393-1.393,1.672c-0.748-0.719-2.772-2.396-3.345-1.951
	C49.71,65.649,50.27,64.815,51.016,64.168z"/>
<path fill-rule="evenodd" clip-rule="evenodd" fill="#787878" d="M106.2,65.283c0.208-0.628,1.564-0.108,2.229-0.278
	c0,0.372,0,0.743,0,1.115c0,0.558,0,1.115,0,1.672c-1.336,0.501-0.897-0.774-1.393-1.115c0-0.465,0-0.929,0-1.394
	C106.759,65.283,106.48,65.283,106.2,65.283z"/>
<path fill-rule="evenodd" clip-rule="evenodd" fill="#191919" d="M108.43,66.119c0.459-0.045,0.459,1.718,0,1.672
	C108.43,67.234,108.43,66.677,108.43,66.119z"/>
<path fill-rule="evenodd" clip-rule="evenodd" fill="#191919" d="M44.048,75.317c-0.048,0.417,0.1,1.029-0.279,1.115
	C43.793,75.99,43.635,75.368,44.048,75.317z"/>
<path fill-rule="evenodd" clip-rule="evenodd" fill="#323232" d="M46.835,75.595c-0.152,0.405,0.326,1.44-0.278,1.394
	C46.708,76.584,46.231,75.548,46.835,75.595z"/>
<path fill-rule="evenodd" clip-rule="evenodd" fill="#787878" d="M82.51,75.874c-0.022,0.441,0.134,1.063-0.278,1.115
	C82.279,76.572,82.131,75.96,82.51,75.874z"/>
<path fill-rule="evenodd" clip-rule="evenodd" fill="#787878" d="M40.982,85.628c0,1.022,0,2.045,0,3.066
	C40.52,88.304,40.52,86.019,40.982,85.628z"/>
<path fill-rule="evenodd" clip-rule="evenodd" fill="#191919" d="M65.509,91.483c0.464,0,0.929,0,1.393,0c0,0.092,0,0.185,0,0.278
	C66.498,91.609,65.462,92.086,65.509,91.483z"/>
<path fill-rule="evenodd" clip-rule="evenodd" fill="#787878" d="M66.902,91.483c0.394-1.066-0.728-2.031,0-2.51
	c0.672,0.114,0.607-0.509,1.394-0.278c0,0.929,0,1.858,0,2.788c0.278,0,0.557,0,0.836,0c-0.208,0.628-1.563,0.107-2.23,0.278
	C66.902,91.667,66.902,91.575,66.902,91.483z"/>
<path fill-rule="evenodd" clip-rule="evenodd" fill="#787878" d="M61.886,94.269c0.124-0.46,2.106-0.46,2.229,0
	C63.372,94.269,62.629,94.269,61.886,94.269z"/>
<path fill-rule="evenodd" clip-rule="evenodd" fill="#191919" d="M64.951,94.269c0.372,0,0.743,0,1.115,0c0,0.093,0,0.186,0,0.278
	C65.625,94.525,65.003,94.682,64.951,94.269z"/>
<path fill-rule="evenodd" clip-rule="evenodd" fill="#323232" d="M67.181,97.056c0.464,0,0.929,0,1.393,0
	C68.701,97.511,67.055,97.511,67.181,97.056z"/>
<path fill-rule="evenodd" clip-rule="evenodd" fill="#323232" d="M65.23,109.32c0.456-0.126,0.456,1.519,0,1.394
	C65.23,110.249,65.23,109.784,65.23,109.32z"/>
<path fill-rule="evenodd" clip-rule="evenodd" fill="#787878" d="M46.557,115.73c0.18-1.307-0.365-3.337,0.278-4.181
	C46.655,112.855,47.2,114.886,46.557,115.73z"/>
<path fill-rule="evenodd" clip-rule="evenodd" fill="#787878" d="M61.05,117.959c0.289,1.104,1.756,1.03,2.508,1.672
	c-0.12,0.531-0.6,0.701-0.557,1.395c-1.142-0.067-1.469-0.948-2.508-1.115c0-0.093,0-0.187,0-0.279
	c-0.006-0.656,0.48-0.82,0.278-1.672C60.864,117.959,60.957,117.959,61.05,117.959z"/>
<path fill-rule="evenodd" clip-rule="evenodd" fill="#FFFFFF" d="M73.312,50.79c1.024,0,2.046,0,3.067,0
	c0.671,0.069,1.309,0.039,1.951,0.279c1.806,0.675,3.995,3.072,5.574,4.459c1.887,1.66,3.489,3.334,5.573,4.459
	c2.123-1.408,4.268-2.794,7.524-3.065c0.56,0,1.116,0,1.673,0c0.558,0,1.116,0,1.673,0c1.673,0,3.344,0,5.017,0
	c1.301-0.185,1.791,0.439,2.787,0.557c0.225,0.24,0.763,0.166,0.837,0.558c0.345,0.583,0.81,1.048,1.393,1.394
	c2.069,1.42,1.086,5.968-1.951,5.574c-0.665,0.17-2.021-0.35-2.229,0.278c-0.449-0.079-0.479,0.264-0.836,0.279
	c-0.817,0.019-1.035,0.637-1.395,1.115c-0.374,0.994-1.278,1.804-1.949,2.509c-0.812,0.849-1.231,1.774-2.51,1.95
	c-2.018,0.275-3.107-1.124-4.458-2.23c-1.601-1.31-4.355-3.767-5.575-5.016c-1.358,1.564-2.637,3.366-3.344,5.853
	c-0.682,2.397-0.667,5.39-1.116,8.083c-0.194,1.179-0.515,2.426-0.835,3.623c-0.785,2.939-1.761,4.822-4.738,5.574
	c-0.411,0.726-0.524,1.569-0.835,2.229c-1.367,2.885-5.117,4.52-9.477,5.017c-1.507,0.075-1.66,0.238-3.066,0
	c-0.372,0-0.743,0-1.115,0c-0.278,0-0.558,0-0.836,0c-0.124-0.46-2.106-0.46-2.229,0c-2.49,1.227-3.672,3.761-5.574,5.574
	c0.374,1.018,1.418,1.507,2.229,2.229c0.749,0.667,1.448,1.545,2.229,2.229c0.21,0.185,0.623,0.116,0.836,0.279
	c0.38,0.29,1.179,1.174,1.673,1.672c0.833,0.841,1.82,1.505,1.951,3.066c0,0.464,0,0.929,0,1.394
	c-0.594,3.215-4.17,3.447-4.18,7.246c-0.093,0-0.186,0-0.279,0c0.202,0.852-0.285,1.016-0.278,1.672
	c-0.885,0.509-1.494,1.293-3.066,1.115c-0.923,0.098-1.208,0.835-1.672,1.394c0.012,0.477-0.207,0.722-0.557,0.836
	c-0.492,0.252-0.863,0.624-1.115,1.115c-2.232,2.228-5.118,3.8-8.64,4.737c-2.329,0.192-3.545-0.728-4.738-1.672
	c-0.469-0.646-1.042-1.187-1.115-2.229c0-0.093,0-0.187,0-0.278c0-0.837,0-1.673,0-2.509c0.073-0.857,0.605-1.254,0.836-1.951
	c0-0.093,0-0.186,0-0.278c0.366-0.099,0.438-0.49,0.836-0.558c0.675-0.439,1.233-0.997,1.672-1.672
	c0.491-1.367,1.327-2.39,1.115-4.46c0-0.465,0-0.929,0-1.394c-0.002-1.131,0.254-2.115,0.836-3.065
	c0.666-1.089,2.087-2.498,3.066-3.623c1.461-1.684,2.924-3.238,4.18-4.738c-2.666-2.629-5.772-4.819-8.361-7.525
	c-0.252-0.491-0.623-0.863-1.114-1.114c-0.899-0.681-1.392-1.768-1.672-3.066c0-1.021,0-2.044,0-3.066
	c0.832-3.162,2.836-5.153,2.787-9.196c0.379-0.086,0.231-0.698,0.279-1.115c0.259-4.201,1.354-7.565,3.065-10.313
	c0.494-0.9,1.04-1.748,1.672-2.509c0.417-0.418,0.499-1.173,1.114-1.393c0.861-0.626,1.604-1.37,2.23-2.229
	c0.805-0.681,1.558-1.416,2.508-1.951c2.348-1.37,5.011-2.422,7.804-3.344c1.905-0.481,4.733-0.499,6.689-1.116
	C70.594,52.001,71.673,50.781,73.312,50.79z M82.51,75.874c0.406-5.817,1.797-10.652,4.738-13.935
	c-1.6-1.186-3.769-2.985-5.017-4.181c-0.165-0.158-0.373-0.117-0.558-0.279c-1.919-1.679-3.424-3.792-5.854-4.181
	c-1.855-0.296-2.729,0.312-3.9,0.836c-0.638,0.286-1.277,0.628-1.952,0.836c-1.679,0.52-3.381,0.529-5.017,0.836
	c-1.454,0.273-3.849,1.013-4.737,1.394c-2.456,1.052-4.552,2.098-6.132,3.623c-0.092,0-0.186,0-0.279,0
	c-0.768,0.534-1.418,1.184-1.951,1.952c0,0.093,0,0.186,0,0.278c-0.082,0.568-0.754,0.546-0.836,1.115
	c-0.747,0.647-1.306,1.481-1.672,2.509c-1.229,2.58-2.543,5.075-2.509,8.918c-0.604-0.047-0.126,0.989-0.278,1.394
	c-0.323,1.438-0.259,2.761-0.558,3.901c-0.024,0.094-0.516,0.421-0.558,0.559c-0.102,0.334,0.125,0.789,0,1.114
	c-0.312,0.82-1.107,1.515-1.393,2.23c-0.658,1.638-0.682,2.981,0,4.18c0.821,1.443,1.586,2.027,2.787,3.066
	c2.426,2.1,5.097,4.349,7.247,6.131c2.524-2.311,3.881-6.196,7.804-6.688c0.65,0,1.3,0,1.951,0c0.557,0,1.115,0,1.673,0
	c-0.047,0.604,0.988,0.126,1.393,0.278c0.667-0.171,2.023,0.35,2.23-0.278c2.635-0.34,4.628-1.318,6.41-2.51
	c0.833-2.698,2.34-4.72,5.019-5.574c0.688-2.004,1.534-3.852,1.671-6.41C82.644,76.937,82.487,76.315,82.51,75.874z M98.396,59.43
	c-2.536,0.158-4.257,1.131-6.133,1.951c-1.542,0.126-0.957,1.318,0,1.672c1.358,0.688,2.36,1.729,3.346,2.787
	c0.379,0.83,1.259,1.158,1.952,1.672c0.656,0.085,0.519,0.968,1.392,0.836c1.166-0.972,1.943-2.332,3.067-3.345
	c0.583-0.346,1.048-0.811,1.393-1.393c0.806-0.681,1.807-1.167,3.346-1.116c0.092,0,0.185,0,0.278,0
	c0.718,0.135,2.486-0.079,1.671-0.557c0.014-0.384-0.13-0.613-0.278-0.836c-0.519-0.409-0.739-1.119-1.671-1.115
	c-0.052-0.413-0.675-0.255-1.116-0.278c-0.566-0.64-2.313-0.101-3.344-0.279c-0.465,0-0.93,0-1.394,0
	C100.694,58.969,98.609,58.969,98.396,59.43z M54.082,102.352c-1.082,1.414-2.388,2.759-3.623,4.18
	c-1.342,1.545-3.08,3.214-3.624,5.018c-0.643,0.844-0.098,2.874-0.278,4.181c-0.224,2.006-1.211,3.248-2.23,4.459
	c-0.995,0.306-1.646,0.956-1.951,1.951c0.012,0.384-0.131,0.612-0.279,0.836c-0.452-0.199-0.452,1.314,0,1.115
	c1.521,4.494,7.401-0.097,9.476-1.394c0.904-0.583,1.876-1.097,2.23-2.23c0.78-0.892,1.37-1.974,2.787-2.229
	c0.657,0.007,0.821-0.479,1.672-0.278c-0.061-0.897,0.493-1.179,0.279-2.229c-0.073-0.815,0.63-0.856,0.557-1.672
	c0.645-0.563,1.489-0.927,1.672-1.951c0.775-0.713,1.925-1.048,1.672-2.787c-0.439-0.676-0.997-1.233-1.672-1.673
	c-2.031-1.405-3.739-3.136-5.574-4.738C55.108,102.586,54.334,101.596,54.082,102.352z"/>
<path fill-rule="evenodd" clip-rule="evenodd" fill="#323232" d="M61.886,91.483c0.038-0.46,1.913-0.46,1.951,0
	C63.186,91.483,62.536,91.483,61.886,91.483z"/>
<path fill-rule="evenodd" clip-rule="evenodd" fill="#191919" d="M66.902,94.547c0.624,0.12,0.113,1.374,0.279,1.951
	C66.558,96.378,67.068,95.125,66.902,94.547z"/>
<path fill-rule="evenodd" clip-rule="evenodd" fill="#787878" d="M39.588,122.14c0,0.836,0,1.672,0,2.509c-0.092,0-0.186,0-0.279,0
	C39.482,123.892,38.956,122.436,39.588,122.14z"/>
<path fill-rule="evenodd" clip-rule="evenodd" fill="#787878" d="M47.114,65.004c-0.927-0.931-2.041-1.675-3.345-2.229
	c0.073-0.856,0.605-1.253,0.836-1.952c1.929-0.104,2.614,2.323,4.181,1.672C48.154,63.257,47.608,64.104,47.114,65.004z"/>
</svg>
