<?xml version="1.0" encoding="utf-8"?>
<!-- Generator: Adobe Illustrator 15.0.0, SVG Export Plug-In  -->
<!DOCTYPE svg PUBLIC "-//W3C//DTD SVG 1.1//EN" "http://www.w3.org/Graphics/SVG/1.1/DTD/svg11.dtd" [
	<!ENTITY ns_flows "http://ns.adobe.com/Flows/1.0/">
]>
<svg version="1.1"
	 xmlns="http://www.w3.org/2000/svg" xmlns:xlink="http://www.w3.org/1999/xlink" xmlns:a="http://ns.adobe.com/AdobeSVGViewerExtensions/3.0/"
	 x="0px" y="0px" width="142px" height="142px" viewBox="-2.721 -4.239 142 142" enable-background="new -2.721 -4.239 142 142"
	 xml:space="preserve">
<defs>
</defs>
<path fill-rule="evenodd" clip-rule="evenodd" fill="#2F2F2F" d="M115.452,0.343c-0.044-0.458,1.719-0.458,1.673,0
	C116.568,0.343,116.011,0.343,115.452,0.343z"/>
<path fill-rule="evenodd" clip-rule="evenodd" fill="#2F2F2F" d="M121.585,4.803c0.46,0.124,0.46,2.106,0,2.229
	C121.585,6.289,121.585,5.546,121.585,4.803z"/>
<path fill-rule="evenodd" clip-rule="evenodd" fill="#2F2F2F" d="M118.798,5.081c0.615,0.035,0.118,1.183,0.278,1.673
	c-0.092,0-0.187,0-0.278,0C118.798,6.196,118.798,5.639,118.798,5.081z"/>
<path fill-rule="evenodd" clip-rule="evenodd" fill="#2F2F2F" d="M118.798,9.82c0,0.372,0,0.743,0,1.115c-0.094,0-0.187,0-0.278,0
	C118.565,10.518,118.419,9.906,118.798,9.82z"/>
<path fill-rule="evenodd" clip-rule="evenodd" fill="#2F2F2F" d="M121.306,10.098c0.093,0,0.187,0,0.279,0
	c-0.049,0.417,0.1,1.029-0.279,1.115C121.306,10.841,121.306,10.47,121.306,10.098z"/>
<path fill-rule="evenodd" clip-rule="evenodd" fill="#707070" d="M118.52,10.935c0.092,0,0.185,0,0.278,0c0,0.372,0,0.743,0,1.115
	c-0.094,0-0.187,0-0.278,0C118.52,11.678,118.52,11.306,118.52,10.935z"/>
<path fill-rule="evenodd" clip-rule="evenodd" fill="#D4D4D4" d="M121.306,11.771c0,0.65,0,1.301,0,1.951
	C120.848,13.684,120.848,11.809,121.306,11.771z"/>
<path fill-rule="evenodd" clip-rule="evenodd" fill="#2F2F2F" d="M101.238,26.264c0.461,0.124,0.461,2.105,0,2.229
	C101.238,27.75,101.238,27.006,101.238,26.264z"/>
<path fill-rule="evenodd" clip-rule="evenodd" fill="#2F2F2F" d="M98.451,26.542c0.092,0,0.187,0,0.278,0
	c-0.16,0.49,0.337,1.638-0.278,1.672C98.451,27.657,98.451,27.1,98.451,26.542z"/>
<path fill-rule="evenodd" clip-rule="evenodd" fill="#2F2F2F" d="M118.52,33.231c-0.126-0.455,1.519-0.455,1.393,0
	C119.447,33.231,118.984,33.231,118.52,33.231z"/>
<path fill-rule="evenodd" clip-rule="evenodd" fill="#2F2F2F" d="M87.861,33.51c0-0.093,0-0.186,0-0.279
	c0.417,0.047,1.027-0.1,1.114,0.279C88.604,33.51,88.231,33.51,87.861,33.51z"/>
<path fill-rule="evenodd" clip-rule="evenodd" fill="#2F2F2F" d="M91.483,33.789c0-0.093,0-0.186,0-0.279c0.465,0,0.93,0,1.395,0
	C92.924,34.114,91.888,33.636,91.483,33.789z"/>
<path fill-rule="evenodd" clip-rule="evenodd" fill="#2F2F2F" d="M91.483,36.297c0.557,0,1.116,0,1.673,0
	C93.202,36.754,91.438,36.754,91.483,36.297z"/>
<path fill-rule="evenodd" clip-rule="evenodd" fill="#D4D4D4" d="M98.451,59.43c0.391-0.462,2.677-0.462,3.065,0
	C100.495,59.43,99.473,59.43,98.451,59.43z"/>
<path fill-rule="evenodd" clip-rule="evenodd" fill="#2F2F2F" d="M103.189,59.43c0.372,0,0.743,0,1.116,0
	C104.504,59.882,102.989,59.882,103.189,59.43z"/>
<path fill-rule="evenodd" clip-rule="evenodd" fill="#2F2F2F" d="M44.103,75.317c-0.048,0.417,0.1,1.029-0.279,1.115
	C43.872,76.014,43.724,75.403,44.103,75.317z"/>
<path fill-rule="evenodd" clip-rule="evenodd" fill="#D4D4D4" d="M43.545,86.465c0,0.371,0,0.743,0,1.114
	C43.093,87.779,43.093,86.265,43.545,86.465z"/>
<path fill-rule="evenodd" clip-rule="evenodd" fill="#2F2F2F" d="M62.219,91.483c-0.125-0.456,1.52-0.456,1.394,0
	C63.148,91.483,62.684,91.483,62.219,91.483z"/>
<path fill-rule="evenodd" clip-rule="evenodd" fill="#2F2F2F" d="M67.514,91.761c0.052-0.413,0.674-0.257,1.115-0.278
	C68.543,91.86,67.931,91.712,67.514,91.761z"/>
<path fill-rule="evenodd" clip-rule="evenodd" fill="#2F2F2F" d="M65.285,109.32c0.456-0.126,0.456,1.519,0,1.394
	C65.285,110.249,65.285,109.784,65.285,109.32z"/>
<path fill-rule="evenodd" clip-rule="evenodd" fill="#D4D4D4" d="M44.103,113.5c0.452-0.199,0.452,1.314,0,1.115
	C44.103,114.243,44.103,113.872,44.103,113.5z"/>
<path fill-rule="evenodd" clip-rule="evenodd" fill="#2F2F2F" d="M26.822,130.501c0-0.093,0-0.186,0-0.279c0.929,0,1.858,0,2.788,0
	c0,0.094,0,0.187,0,0.279C28.681,130.501,27.751,130.501,26.822,130.501z"/>
<path fill-rule="evenodd" clip-rule="evenodd" fill="#2F2F2F" d="M26.544,133.01c1.208,0,2.416,0,3.623,0
	C29.595,133.472,27.116,133.472,26.544,133.01z"/>
<path fill-rule="evenodd" clip-rule="evenodd" fill="#2F2F2F" d="M105.141,14.558c0.438-0.675,0.998-1.232,1.673-1.672
	C106.373,13.561,105.815,14.118,105.141,14.558z"/>
<path fill-rule="evenodd" clip-rule="evenodd" fill="#2F2F2F" d="M101.238,17.902c0.44-0.675,0.997-1.232,1.673-1.672
	C102.472,16.905,101.913,17.463,101.238,17.902z"/>
<path fill-rule="evenodd" clip-rule="evenodd" fill="#2F2F2F" d="M72.531,37.133c0.44-0.675,0.998-1.232,1.673-1.672
	C73.764,36.136,73.206,36.694,72.531,37.133z"/>
<path fill-rule="evenodd" clip-rule="evenodd" fill="#707070" d="M49.955,61.103c0.627-0.861,1.37-1.604,2.23-2.229
	C51.559,59.733,50.816,60.476,49.955,61.103z"/>
<path fill-rule="evenodd" clip-rule="evenodd" fill="#707070" d="M46.332,66.398c-1.28-0.578-2.441-1.275-3.623-1.951
	c0.231-0.697,0.763-1.095,0.836-1.951c1.387,0.438,2.939,1.997,4.181,1.672C47.129,64.779,46.96,65.817,46.332,66.398z"/>
<path fill-rule="evenodd" clip-rule="evenodd" fill="#A4A4A4" d="M42.709,91.761c0.583,0.346,1.047,0.811,1.394,1.394
	C43.52,92.808,43.055,92.344,42.709,91.761z"/>
<path fill-rule="evenodd" clip-rule="evenodd" fill="#707070" d="M41.594,119.075c0.346-0.583,0.811-1.048,1.394-1.394
	C42.642,118.264,42.178,118.729,41.594,119.075z"/>
<path fill-rule="evenodd" clip-rule="evenodd" fill="#2F2F2F" d="M39.364,121.026c0.252-0.492,0.624-0.863,1.115-1.115
	C40.228,120.402,39.855,120.773,39.364,121.026z"/>
<path fill-rule="evenodd" clip-rule="evenodd" fill="#2F2F2F" d="M36.299,123.812c0.346-0.583,0.811-1.048,1.394-1.393
	C37.346,123.002,36.882,123.467,36.299,123.812z"/>
<path fill-rule="evenodd" clip-rule="evenodd" fill="#707070" d="M14.281,128.55c0.47,0.459,1.252,0.605,1.672,1.115
	c-0.525,0.683-1.153,1.262-1.394,2.229c-0.693,0.043-0.863-0.438-1.394-0.557C13.121,130.063,14.865,129.48,14.281,128.55z"/>
<path fill-rule="evenodd" clip-rule="evenodd" fill="#707070" d="M54.136,124.091c0.252-0.491,0.623-0.863,1.115-1.115
	C55,123.468,54.628,123.839,54.136,124.091z"/>
<path fill-rule="evenodd" clip-rule="evenodd" fill="#2F2F2F" d="M55.251,122.976c0.251-0.491,0.624-0.862,1.115-1.115
	C56.114,122.353,55.743,122.724,55.251,122.976z"/>
<path fill-rule="evenodd" clip-rule="evenodd" fill="#2F2F2F" d="M64.17,107.09c-0.491-0.253-0.863-0.624-1.115-1.115
	C63.546,106.226,63.918,106.598,64.17,107.09z"/>
<path fill-rule="evenodd" clip-rule="evenodd" fill="#2F2F2F" d="M59.71,95.941c0.347-0.583,0.811-1.048,1.394-1.394
	C60.758,95.13,60.293,95.595,59.71,95.941z"/>
<path fill-rule="evenodd" clip-rule="evenodd" fill="#2F2F2F" d="M76.991,91.483c0.675,0.438,1.231,0.996,1.673,1.672
	c0.696,0.047,0.871-0.429,1.113-0.837c0.511,0.173-0.48,1.164-1.113,1.115C78.277,92.611,77.375,92.305,76.991,91.483z"/>
<path fill-rule="evenodd" clip-rule="evenodd" fill="#A4A4A4" d="M88.696,64.726c0.516-0.693,0.842-1.573,1.673-1.951
	C89.772,63.385,89.502,64.323,88.696,64.726z"/>
<path fill-rule="evenodd" clip-rule="evenodd" fill="#707070" d="M76.991,91.483c0.252-0.492,0.623-0.864,1.113-1.116
	c0.387,0.823,1.288,1.129,1.673,1.951c-0.242,0.408-0.417,0.884-1.113,0.837C78.223,92.479,77.666,91.921,76.991,91.483z"/>
<path fill-rule="evenodd" clip-rule="evenodd" fill="#D4D4D4" d="M62.776,105.975c0.093,0,0.186,0,0.279,0
	c0.251,0.491,0.624,0.862,1.115,1.115c0.053,0.225,0.279,0.277,0.278,0.557C63.773,107.208,63.216,106.65,62.776,105.975z"/>
<path fill-rule="evenodd" clip-rule="evenodd" fill="#D4D4D4" d="M0.902,117.959c0.491,0.251,0.863,0.624,1.115,1.115
	C1.308,119.041,0.937,118.668,0.902,117.959z"/>
<path fill-rule="evenodd" clip-rule="evenodd" fill="#2F2F2F" d="M108.206,15.394c0.252-0.491,0.623-0.863,1.115-1.115
	C109.069,14.77,108.698,15.142,108.206,15.394z"/>
<path fill-rule="evenodd" clip-rule="evenodd" fill="#2F2F2F" d="M106.535,17.066c0.25-0.491,0.623-0.863,1.113-1.115
	C107.396,16.442,107.025,16.814,106.535,17.066z"/>
<path fill-rule="evenodd" clip-rule="evenodd" fill="#2F2F2F" d="M103.468,19.574c0.252-0.491,0.623-0.863,1.116-1.115
	C104.331,18.951,103.959,19.323,103.468,19.574z"/>
<path fill-rule="evenodd" clip-rule="evenodd" fill="#2F2F2F" d="M97.895,34.625c0.438-0.675,0.997-1.233,1.671-1.672
	C99.126,33.627,98.569,34.185,97.895,34.625z"/>
<path fill-rule="evenodd" clip-rule="evenodd" fill="#2F2F2F" d="M63.612,51.626c0.252-0.492,0.624-0.863,1.115-1.115
	C64.476,51.003,64.104,51.375,63.612,51.626z"/>
<path fill-rule="evenodd" clip-rule="evenodd" fill="#D4D4D4" d="M58.596,56.922c0.626-0.86,1.37-1.604,2.229-2.23
	c0,0.093,0,0.186,0,0.279c-0.768,0.533-1.418,1.183-1.951,1.951C58.782,56.922,58.688,56.922,58.596,56.922z"/>
<path fill-rule="evenodd" clip-rule="evenodd" fill="#2F2F2F" d="M53.579,61.381c0.252-0.492,0.623-0.863,1.114-1.115
	C54.442,60.757,54.07,61.129,53.579,61.381z"/>
<path fill-rule="evenodd" clip-rule="evenodd" fill="#A4A4A4" d="M44.66,90.088c0.492,0.252,0.864,0.624,1.116,1.114
	C45.284,90.952,44.912,90.58,44.66,90.088z"/>
<path fill-rule="evenodd" clip-rule="evenodd" fill="#2F2F2F" d="M57.202,94.547c0.252-0.49,0.624-0.863,1.115-1.114
	C58.065,93.923,57.694,94.296,57.202,94.547z"/>
<path fill-rule="evenodd" clip-rule="evenodd" fill="#707070" d="M76.155,88.137c-0.164,0.581-0.587,0.901-0.837,1.394
	c-0.093,0-0.185,0-0.279,0c-0.354-0.946-1.544-1.056-1.673-2.229c0.367-0.098,0.439-0.491,0.838-0.558
	C75.056,87.007,75.077,88.1,76.155,88.137z"/>
<path fill-rule="evenodd" clip-rule="evenodd" fill="#A4A4A4" d="M87.583,61.939c0.25-0.492,0.623-0.864,1.113-1.116
	C88.444,61.315,88.073,61.687,87.583,61.939z"/>
<path fill-rule="evenodd" clip-rule="evenodd" fill="#2F2F2F" d="M74.482,89.81c0.507-1.233-2.364-1.821-0.835-3.066
	c0.232-0.189,0.509-0.323,0.557,0c-0.398,0.066-0.471,0.46-0.838,0.558c0.129,1.174,1.318,1.283,1.673,2.229
	C74.813,89.584,74.761,89.811,74.482,89.81z"/>
<path fill-rule="evenodd" clip-rule="evenodd" fill="#707070" d="M48.562,68.07c0.502-0.798,0.735-1.866,1.393-2.508
	c0,0.093,0,0.186,0,0.279c0.67,0.156,1.052,0.752,1.672,1.115c0.533,0.311,1.704,0.205,1.673,1.115
	c-0.404,0.524-0.41,1.448-1.115,1.673C51.137,69.14,49.688,67.692,48.562,68.07z"/>
<path fill-rule="evenodd" clip-rule="evenodd" fill="#2F2F2F" d="M58.875,56.922c0.533-0.768,1.183-1.418,1.951-1.951
	C60.292,55.739,59.642,56.389,58.875,56.922z"/>
<path fill-rule="evenodd" clip-rule="evenodd" fill="#D4D4D4" d="M43.267,121.026c0.346-0.583,0.811-1.048,1.393-1.395
	c-0.188,0.648-0.926,0.746-1.114,1.395C43.452,121.026,43.359,121.026,43.267,121.026z"/>
<path fill-rule="evenodd" clip-rule="evenodd" fill="#2F2F2F" d="M40.758,123.534c0.251-0.491,0.624-0.863,1.115-1.114
	C41.622,122.91,41.25,123.282,40.758,123.534z"/>
<path fill-rule="evenodd" clip-rule="evenodd" fill="#D4D4D4" d="M52.464,122.14c0.252-0.491,0.624-0.863,1.115-1.114
	C53.327,121.516,52.956,121.888,52.464,122.14z"/>
<path fill-rule="evenodd" clip-rule="evenodd" fill="#2F2F2F" d="M51.907,122.419c0.533-0.768,1.183-1.419,1.951-1.952
	c-0.053,0.226-0.279,0.279-0.278,0.559c-0.492,0.251-0.863,0.623-1.115,1.114C52.238,122.194,52.187,122.42,51.907,122.419z"/>
<path fill-rule="evenodd" clip-rule="evenodd" fill="#707070" d="M61.104,107.925c0.582,0.347,1.047,0.811,1.393,1.395
	C61.915,108.973,61.45,108.509,61.104,107.925z"/>
<path fill-rule="evenodd" clip-rule="evenodd" fill="#2F2F2F" d="M43.545,121.026c0.188-0.648,0.926-0.746,1.114-1.395
	c0.093,0,0.187,0,0.279,0C44.593,120.215,44.128,120.679,43.545,121.026z"/>
<path fill-rule="evenodd" clip-rule="evenodd" fill="#A4A4A4" d="M119.076,6.754c-0.16,0.49,0.337,1.637-0.278,1.672
	c0-0.558,0-1.115,0-1.672C118.89,6.754,118.984,6.754,119.076,6.754z"/>
<path fill-rule="evenodd" clip-rule="evenodd" fill="#A4A4A4" d="M121.585,8.426c0,0.558,0,1.115,0,1.672c-0.093,0-0.187,0-0.279,0
	C121.467,9.608,120.97,8.461,121.585,8.426z"/>
<path fill-rule="evenodd" clip-rule="evenodd" fill="#A4A4A4" d="M118.798,12.049c0,0.929,0,1.858,0,2.787
	c-0.635-0.386-0.104-1.94-0.278-2.787C118.611,12.049,118.704,12.049,118.798,12.049z"/>
<path fill-rule="evenodd" clip-rule="evenodd" fill="#707070" d="M123.258,18.181c-0.706-0.224-0.712-1.147-1.116-1.672
	c1.328,0.027,1.526-1.076,2.787-1.115c0.037,0.519,0.184,0.932,0.559,1.115C124.979,17.301,123.698,17.321,123.258,18.181z"/>
<path fill-rule="evenodd" clip-rule="evenodd" fill="#707070" d="M119.633,17.624c0.571,0.45,0.704,1.341,1.116,1.951
	c-1.33-0.294-2.012,1.504-2.789,0.836C116.35,18.724,119.485,19.141,119.633,17.624z"/>
<path fill-rule="evenodd" clip-rule="evenodd" fill="#A4A4A4" d="M135.799,30.165c0.459,0.038,0.459,1.914,0,1.952
	C135.799,31.466,135.799,30.816,135.799,30.165z"/>
<path fill-rule="evenodd" clip-rule="evenodd" fill="#A4A4A4" d="M86.467,33.231c0.465,0,0.93,0,1.395,0c0,0.093,0,0.186,0,0.279
	C87.454,33.358,86.419,33.835,86.467,33.231z"/>
<path fill-rule="evenodd" clip-rule="evenodd" fill="#A4A4A4" d="M90.091,33.51c0.465,0,0.928,0,1.393,0c0,0.093,0,0.186,0,0.279
	C91.079,33.636,90.043,34.114,90.091,33.51z"/>
<path fill-rule="evenodd" clip-rule="evenodd" fill="#A4A4A4" d="M80.615,35.74c0.21-0.461,2.296-0.461,2.508,0
	C82.286,35.74,81.45,35.74,80.615,35.74z"/>
<path fill-rule="evenodd" clip-rule="evenodd" fill="#707070" d="M84.237,35.74c0.757,0.172,2.212-0.354,2.508,0.278
	C85.99,35.845,84.533,36.372,84.237,35.74z"/>
<path fill-rule="evenodd" clip-rule="evenodd" fill="#2F2F2F" d="M118.52,36.018c-0.126-0.455,1.519-0.455,1.393,0
	C119.447,36.018,118.984,36.018,118.52,36.018z"/>
<path fill-rule="evenodd" clip-rule="evenodd" fill="#707070" d="M87.861,36.018c0.755,0.173,2.212-0.354,2.508,0.279
	C89.612,36.125,88.158,36.651,87.861,36.018z"/>
<path fill-rule="evenodd" clip-rule="evenodd" fill="#A4A4A4" d="M127.438,36.018c0.371,0,0.743,0,1.114,0
	C128.751,36.47,127.238,36.47,127.438,36.018z"/>
<path fill-rule="evenodd" clip-rule="evenodd" fill="#A4A4A4" d="M107.648,50.232c-0.458-0.038-0.458-1.913,0-1.951
	C107.648,48.932,107.648,49.582,107.648,50.232z"/>
<path fill-rule="evenodd" clip-rule="evenodd" fill="#707070" d="M100.96,56.643c1.208,0,2.416,0,3.624,0
	c-0.659,0.641-2.503,0.1-3.624,0.279C100.96,56.829,100.96,56.736,100.96,56.643z"/>
<path fill-rule="evenodd" clip-rule="evenodd" fill="#707070" d="M44.381,73.087c-0.152,0.404,0.326,1.44-0.278,1.394
	C44.255,74.076,43.777,73.041,44.381,73.087z"/>
<path fill-rule="evenodd" clip-rule="evenodd" fill="#707070" d="M46.89,74.481c-0.169,0.666,0.35,2.021-0.278,2.229
	C46.781,76.044,46.261,74.688,46.89,74.481z"/>
<path fill-rule="evenodd" clip-rule="evenodd" fill="#707070" d="M64.448,91.483c0.578,0.165,1.832-0.346,1.952,0.278
	C65.822,91.594,64.569,92.106,64.448,91.483z"/>
<path fill-rule="evenodd" clip-rule="evenodd" fill="#2F2F2F" d="M61.94,94.269c-0.047-0.604,0.988-0.126,1.394-0.278
	c0,0.092,0,0.186,0,0.278C62.869,94.269,62.404,94.269,61.94,94.269z"/>
<path fill-rule="evenodd" clip-rule="evenodd" fill="#A4A4A4" d="M63.334,93.991c0.441,0.023,1.063-0.134,1.114,0.278
	c-0.371,0-0.743,0-1.114,0C63.334,94.176,63.334,94.083,63.334,93.991z"/>
<path fill-rule="evenodd" clip-rule="evenodd" fill="#A4A4A4" d="M46.89,113.5c-0.169,0.667,0.35,2.022-0.278,2.23
	c0-0.743,0-1.487,0-2.23C46.704,113.5,46.797,113.5,46.89,113.5z"/>
<path fill-rule="evenodd" clip-rule="evenodd" fill="#707070" d="M0.345,114.615c0,0.743,0,1.486,0,2.229
	C-0.115,116.721-0.115,114.739,0.345,114.615z"/>
<path fill-rule="evenodd" clip-rule="evenodd" fill="#707070" d="M58.596,116.009c-0.161,0.488,0.337,1.637-0.279,1.672
	C58.478,117.19,57.98,116.043,58.596,116.009z"/>
<path fill-rule="evenodd" clip-rule="evenodd" fill="#D4D4D4" d="M60.825,118.795c0.166-0.577-0.345-1.831,0.279-1.951
	C60.938,117.421,61.448,118.675,60.825,118.795z"/>
<path fill-rule="evenodd" clip-rule="evenodd" fill="#707070" d="M17.346,127.436c-0.47-0.459-1.252-0.606-1.672-1.115
	c1.497-0.033,0.973-2.789,2.508-1.95C19.36,125.316,17.575,126.254,17.346,127.436z"/>
<path fill-rule="evenodd" clip-rule="evenodd" fill="#A4A4A4" d="M25.708,130.222c0.372,0,0.743,0,1.115,0c0,0.094,0,0.187,0,0.279
	C26.381,130.479,25.759,130.635,25.708,130.222z"/>
<path fill-rule="evenodd" clip-rule="evenodd" fill="#707070" d="M29.61,130.222c0.464,0,0.929,0,1.393,0
	c0.047,0.605-0.988,0.127-1.393,0.279C29.61,130.409,29.61,130.316,29.61,130.222z"/>
<path fill-rule="evenodd" clip-rule="evenodd" fill="#FFFFFF" d="M106.813,12.885c1.511-1.605,2.524-3.736,3.344-6.689
	c0.225-0.808,0.522-1.494,0.835-2.229c0.101-0.233-0.107-0.607,0-0.836c0.051-0.104,0.834-0.803,1.116-1.115
	c0.337-0.372,0.669-0.688,1.114-1.115c0.23-0.22,1.233-0.57,2.229-0.557c0.559,0,1.116,0,1.673,0
	c2.614,0.358,4.101,1.844,4.46,4.459c0,0.743,0,1.486,0,2.229c0,0.464,0,0.929,0,1.394c-0.615,0.035-0.118,1.183-0.279,1.672
	c0,0.372,0,0.743,0,1.115c0,0.186,0,0.372,0,0.558c-0.458,0.038-0.458,1.913,0,1.951c0.311,0.897,0.476,1.941,0.836,2.788
	c0.404,0.524,0.41,1.448,1.116,1.672c0.648,1.347,2.294,2.477,3.622,3.624c1.618,1.397,3.059,2.702,4.737,4.181
	c1.307,1.15,3.254,2.28,4.182,4.18c0,0.651,0,1.301,0,1.952c-0.135,1.194-1.225,1.826-1.951,2.787
	c-0.854,1.131-2.224,2.613-3.622,3.624c-0.187,0-0.373,0-0.56,0c-1.021,0-2.043,0-3.064,0c-2.417-0.65-4.608-1.525-6.689-2.509
	c0.126-0.455-1.519-0.455-1.393,0c-1.539,1.282-2.49,2.834-3.902,4.46c-0.201,0.229-0.653,0.322-0.836,0.557
	c-0.423,0.542-0.482,0.864-1.395,1.394c-0.28,0.164-0.603,0.414-0.835,0.557c-0.589,0.363-1.497,0.636-1.951,1.115
	c-0.131,0.137-0.325,0.778-0.558,1.115c-0.416,0.602-1.26,1.901-1.395,3.066c-0.458,0.038-0.458,1.913,0,1.951
	c0.237,1.251,0.598,2.376,0.558,3.902c0,0.65,0,1.301,0,1.952c-0.391,2.025-1.505,3.326-3.9,3.344c-0.373,0-0.744,0-1.116,0
	c-0.557,0-1.114,0-1.673,0c-0.389-0.462-2.675-0.462-3.065,0c-1.338,0.304-2.466,0.411-3.624,0.836
	c-1.661,0.61-2.947,1.762-4.458,2.509c-0.831,0.378-1.157,1.258-1.673,1.951c-2.136,2.724-2.887,7.161-3.624,11.985
	c-0.408,2.689-0.727,5.201-1.671,7.246c-0.076,0.161-0.144,0.646-0.278,0.837c-1.004,1.4-2.729,1.498-3.624,2.508
	c-0.848,0.955-0.539,1.75-1.395,3.065c-0.49,0.252-0.861,0.624-1.113,1.116c-2.252,1.371-4.532,2.714-8.083,2.786
	c-1.208,0-2.415,0-3.623,0c-0.279,0-0.557,0-0.836,0c-0.051-0.412-0.673-0.255-1.114-0.278c-0.405,0.152-1.441-0.326-1.394,0.278
	c-0.224,0.147-0.453,0.291-0.836,0.278c-0.583,0.346-1.047,0.811-1.394,1.394c-0.934,1.575-2.446,2.57-3.344,4.182
	c2.065,2.021,4.504,3.671,6.41,5.853c0.44,0.675,0.997,1.232,1.672,1.672c0.583,0.253,0.85,0.822,0.836,1.673
	c0,0.464,0,0.929,0,1.394c-0.638,2.8-3.227,3.648-4.18,6.131c-0.624,0.12-0.113,1.374-0.279,1.951
	c-0.178,2.331-3.676,1.341-4.459,3.065c-0.491,0.253-0.863,0.624-1.115,1.115c-0.492,0.252-0.863,0.624-1.115,1.115
	c-0.534,0.563-1.044,1.221-1.672,1.672c-0.356,0.256-0.932,0.255-1.393,0.558c-0.346,0.228-0.479,0.645-0.836,0.836
	c-0.711,0.38-1.616,0.47-2.509,0.836c-0.14,0.058-0.455,0.526-0.558,0.558c-5.068,1.532-10.803,4.385-17.001,4.46
	c-1.208,0-2.416,0-3.623,0c-4.553-0.093-7.683-1.608-10.591-3.345c-0.42-0.51-1.203-0.656-1.672-1.115
	c-1.22-0.607-2.243-1.387-3.345-2.229c-0.716-0.548-1.397-1.382-2.23-1.95c-2.066-1.414-4.768-3.285-6.688-5.296
	c-0.252-0.491-0.624-0.864-1.115-1.115c-0.49-0.067-0.635-0.479-0.557-1.115c0-0.743,0-1.486,0-2.229
	c0.074-1.319,1.217-1.568,1.672-2.508c0.279,0,0.557,0,0.835,0c0.836,0,1.672,0,2.509,0c1.521-0.048,2.813,0.742,4.181,1.114
	c1.432,0.391,2.821,0.459,4.181,0.837c0.678,0.188,1.306,0.668,1.951,0.835c0.743,0.193,1.491,0.075,2.23,0.279
	c0.148,0.04,0.731,0.534,0.836,0.558c1.188,0.267,2.497,0.358,3.623,0.836c1.369,0.58,2.988,2.042,4.459,3.065
	c0.999,0.696,1.973,1.162,3.066,1.951c1.466,1.059,4.213,3.926,6.411,2.229c0.583-0.345,1.047-0.81,1.394-1.393
	c0.733-0.289,0.938-1.106,1.672-1.394c0.491-0.253,0.864-0.624,1.115-1.115c0.568-0.082,0.547-0.754,1.115-0.836
	c0.583-0.346,1.047-0.811,1.394-1.394c0.313-1.081,0.848-1.939,1.115-3.066c0.452,0.199,0.452-1.314,0-1.115
	c-0.32-1.771-0.022-3.393,0.836-4.737c0.318-0.498,0.76-0.65,1.115-1.115c0.188-0.246,0.101-0.604,0.278-0.835
	c0.333-0.437,1.135-1.062,1.673-1.673c1.521-1.729,2.868-3.343,4.18-4.738c-2.617-2.492-5.554-4.665-8.082-7.246
	c-0.346-0.583-0.811-1.048-1.394-1.394c-0.963-0.71-1.589-1.756-1.672-3.345c0-0.93,0-1.858,0-2.788
	c0.904-3.091,2.7-5.289,2.787-9.196c0.379-0.086,0.231-0.698,0.279-1.115c0-0.279,0-0.558,0-0.836
	c0.604,0.047,0.126-0.989,0.278-1.394c0.163-2.717,1.052-4.708,1.951-6.689c0.628-0.581,0.797-1.619,1.394-2.23
	c0.425-1.34,1.398-2.132,2.229-3.065c0.861-0.626,1.604-1.37,2.23-2.229c1.21-1.067,2.367-2.4,3.902-3.345
	c0.694-0.427,1.949-1.595,2.787-2.508c0.365-0.397,0.478-0.979,0.836-1.393c0.284-0.329,0.831-0.509,1.115-0.836
	c0.352-0.405,0.479-0.981,0.836-1.394c0.284-0.328,0.831-0.508,1.115-0.836c0.364-0.421,0.487-0.99,0.836-1.394
	c0.284-0.328,0.832-0.508,1.115-0.836c0.369-0.427,0.437-0.935,0.836-1.394c0.854-0.98,2.036-2.153,3.065-3.344
	c1.33-1.539,2.598-2.945,3.902-4.459c0.675-0.439,1.232-0.998,1.673-1.672c1.522-0.985,2.862-2.153,5.295-2.23
	c1.859,0,3.717,0,5.573,0c0.465,0,0.93,0,1.395,0c-0.048,0.604,0.987,0.127,1.395,0.279c0.37,0,0.743,0,1.114,0
	c0.37,0,0.743,0,1.115,0c-0.048,0.604,0.988,0.126,1.393,0.279c0.404-0.153,1.44,0.325,1.395-0.279
	c3.285-0.338,5.042-2.204,5.573-5.295c0.615-0.035,0.118-1.183,0.278-1.672c0-0.929,0-1.858,0-2.787
	c0.076-2.711,1.305-4.271,2.509-5.853c0.675-0.439,1.233-0.997,1.673-1.672c0.767-0.533,1.462-1.139,2.229-1.672
	C105.815,14.118,106.373,13.561,106.813,12.885z M118.798,5.081c0-1.784-2.302-2.327-3.624-1.951
	c-1.459,0.415-1.89,3.09-2.787,5.574c-0.4,1.109-0.671,2.306-1.113,3.066c-0.285,0.487-0.902,0.821-1.116,1.115
	c-0.183,0.25-0.11,0.616-0.278,0.836c-0.145,0.188-0.563,0.211-0.558,0.558c-0.492,0.252-0.863,0.624-1.115,1.115
	c-0.059,0.313-0.309,0.434-0.558,0.558c-0.49,0.252-0.863,0.624-1.113,1.115c-0.735,0.382-1.058,1.173-1.951,1.394
	c-0.493,0.252-0.864,0.624-1.116,1.115c-1.3,1.672-2.186,3.759-2.229,6.689c0,0.743,0,1.486,0,2.229
	c0.048,2.093-0.916,3.172-1.673,4.46c-0.674,0.439-1.232,0.997-1.671,1.672c-1.345,0.793-2.475,1.799-4.738,1.672
	c-0.557,0-1.116,0-1.673,0c-0.371,0-0.743,0-1.114,0c-0.296-0.633-1.753-0.106-2.508-0.279c-0.373,0-0.745,0-1.116,0
	c-0.296-0.632-1.751-0.106-2.508-0.278c-0.371,0-0.743,0-1.114,0c-0.212-0.461-2.298-0.461-2.508,0
	c-1.381,0.285-2.585,0.672-3.346,1.115c-0.383,0.223-0.91,0.408-1.114,0.558c-1.04,0.755-1.767,2.17-2.789,3.344
	c-1.189,1.371-2.743,2.753-3.622,3.902c-0.535,0.7-0.986,1.134-1.394,1.672c-1.145,1.516-2.606,2.799-3.623,4.181
	c-0.491,0.252-0.863,0.624-1.115,1.115c-0.836,1.115-1.605,2.296-2.787,3.065c-0.86,0.626-1.604,1.37-2.229,2.23
	c-1.063,1.352-2.497,2.334-3.902,3.344c-0.491,0.252-0.862,0.624-1.114,1.115c-1.444,1.157-2.385,2.818-3.624,4.18
	c-0.658,0.642-0.891,1.71-1.393,2.508c-0.582,2.113-1.375,4.014-1.672,6.411c-0.628,0.207-0.109,1.563-0.278,2.229
	c-0.149,4.124-1.641,6.906-3.066,9.755c-0.452-0.2-0.452,1.313,0,1.114c0.23,0.978,0.839,1.577,1.114,2.509
	c0.252,0.491,0.624,0.863,1.116,1.114c1.292,0.558,2.218,1.795,3.065,2.509c1.82,1.532,3.522,2.982,5.295,4.459
	c0.981-1.248,2.056-2.403,3.066-3.623c0.492-0.251,0.863-0.624,1.115-1.114c0.825-1.126,1.949-1.954,3.902-1.95
	c0.465,0,0.929,0,1.394,0c0.279,0,0.558,0,0.836,0c0.121,0.623,1.374,0.111,1.952,0.278c0.372,0,0.743,0,1.114,0
	c0.417-0.049,1.029,0.099,1.115-0.278c2.485-0.024,3.956-1.062,5.854-1.673c0.278,0.001,0.331-0.226,0.557-0.279
	c0.095,0,0.187,0,0.279,0c0.25-0.492,0.673-0.813,0.837-1.394c0.248-2.816,2.354-3.775,4.46-4.738
	c1.528-3.127,1.62-7.179,2.229-10.87c0.697-4.244,2.162-8.52,4.738-10.59c0.49-0.252,0.861-0.624,1.113-1.116
	c2.04-2.048,4.604-3.571,8.36-3.901c1.303,0,2.603,0,3.903,0c1.121-0.179,2.965,0.362,3.624-0.279
	c1.827-0.885,0.416-2.866,0.557-5.017c0-1.487,0-2.973,0-4.46c0.671-3.787,2.925-5.994,6.133-7.246
	c0.328-0.592,0.875-1.07,1.392-1.672c1.493-1.735,3.42-4.874,5.854-5.017c0.465,0,0.928,0,1.393,0
	c2.809,0.629,5.046,1.829,7.526,2.787c-0.2,0.452,1.313,0.452,1.114,0c2.053-1.196,3.235-3.268,4.737-5.017
	c-1.073-0.389-1.62-1.427-2.229-1.95c-0.358-0.307-0.787-0.271-1.116-0.558c-1.06-0.93-1.995-2.141-3.064-3.065
	c-0.521-0.45-1.112-0.637-1.671-1.114c-0.236-0.201-0.321-0.633-0.56-0.836c-0.302-0.26-0.817-0.287-1.113-0.558
	c-1.063-0.967-1.953-2.139-2.787-3.345c-0.412-0.609-0.545-1.5-1.116-1.951c-0.366-0.84-0.899-1.515-0.835-2.787
	c0-0.929,0-1.858,0-2.787c0-0.372,0-0.743,0-1.115s0-0.743,0-1.115c0-0.465,0-0.93,0-1.394c0.615-0.035,0.118-1.182,0.278-1.672
	C118.916,6.264,119.413,5.116,118.798,5.081z M46.89,111.549c-0.623,0.119-0.113,1.374-0.278,1.95c0,0.743,0,1.487,0,2.23
	c-0.042,1.816-0.969,2.747-1.672,3.901c-0.093,0-0.186,0-0.279,0c-0.583,0.347-1.047,0.812-1.393,1.395
	c-0.346,0.583-0.811,1.047-1.394,1.394c-0.491,0.251-0.863,0.623-1.115,1.114c-2.212,1.949-3.917,4.302-7.525,3.623
	c-0.832-0.156-2.202-1.188-3.345-1.951c-0.883-0.589-2.294-1.479-2.787-1.951c-0.677-0.648-1.231-0.9-1.951-1.394
	c-1.834-1.254-3.182-2.351-5.296-3.065c-3.067-1.037-6.032-1.515-8.64-2.229c-1.317-0.36-2.749-0.744-4.181-1.114
	c-1.222-0.317-3.407-1.723-3.901,0c-0.612,1.393,1.965,2.695,2.787,3.065c0.082,0.036,0.188,0.488,0.278,0.558
	c0.776,0.594,1.172,0.993,1.672,1.393c0.327,0.262,0.814,0.331,1.115,0.559c2.356,1.779,4.587,3.672,6.688,5.295
	c0.42,0.509,1.203,0.656,1.672,1.115c2.583,1.133,5.149,2.282,8.361,2.786c0.052,0.413,0.674,0.257,1.115,0.279
	c0.929,0,1.858,0,2.788,0c0.405-0.152,1.44,0.326,1.393-0.279c2.981-0.454,6.071-1.136,8.361-1.95
	c2.362-0.84,4.931-1.851,7.247-2.788c1.875-0.758,4.157-1.987,5.295-3.064c0.28,0.001,0.332-0.226,0.557-0.279
	c0.492-0.252,0.863-0.624,1.115-1.114c-0.001-0.279,0.225-0.333,0.278-0.559c0.889-1.526,2.473-2.357,4.459-2.786
	c0.616-0.035,0.118-1.184,0.279-1.672c0.333-3.197,3.604-3.457,3.902-6.689c-0.346-0.584-0.811-1.048-1.393-1.395
	c-1.293-0.746-2.25-1.835-3.345-2.786c-1.135-0.986-2.249-2.064-3.624-2.787C51.905,105.601,48.666,107.843,46.89,111.549z"/>
<path fill-rule="evenodd" clip-rule="evenodd" fill="#D4D4D4" d="M79.499,33.231c1.214-0.463,4.359-0.463,5.573,0
	C83.216,33.231,81.358,33.231,79.499,33.231z"/>
<path fill-rule="evenodd" clip-rule="evenodd" fill="#D4D4D4" d="M126.602,38.527c1.021,0,2.043,0,3.064,0
	C129.277,38.989,126.992,38.989,126.602,38.527z"/>
<path fill-rule="evenodd" clip-rule="evenodd" fill="#D4D4D4" d="M105.141,47.167c0,1.487,0,2.973,0,4.46
	C104.678,50.78,104.678,48.013,105.141,47.167z"/>
<path fill-rule="evenodd" clip-rule="evenodd" fill="#D4D4D4" d="M2.853,112.107c0.212-0.461,2.297-0.461,2.509,0
	C4.525,112.107,3.689,112.107,2.853,112.107z"/>
<path fill-rule="evenodd" clip-rule="evenodd" fill="#A4A4A4" d="M97.057,56.922c0.754-0.642,2.688-0.099,3.903-0.279
	c0,0.093,0,0.186,0,0.279C99.659,56.922,98.359,56.922,97.057,56.922z"/>
<path fill-rule="evenodd" clip-rule="evenodd" fill="#A4A4A4" d="M41.037,85.628c0,0.93,0,1.858,0,2.788
	C40.575,88.116,40.575,85.929,41.037,85.628z"/>
<path fill-rule="evenodd" clip-rule="evenodd" fill="#707070" d="M46.89,111.549c0,0.65,0,1.301,0,1.95c-0.093,0-0.186,0-0.278,0
	C46.777,112.923,46.267,111.668,46.89,111.549z"/>
<path fill-rule="evenodd" clip-rule="evenodd" fill="#707070" d="M98.729,23.755c0,0.929,0,1.858,0,2.787c-0.092,0-0.187,0-0.278,0
	C98.626,25.695,98.095,24.142,98.729,23.755z"/>
<path fill-rule="evenodd" clip-rule="evenodd" fill="#707070" d="M108.206,54.134c0.459,0.038,0.459,1.914,0,1.952
	C108.206,55.435,108.206,54.785,108.206,54.134z"/>
<path fill-rule="evenodd" clip-rule="evenodd" fill="#707070" d="M65.285,94.269c1.208,0,2.416,0,3.623,0
	C68.336,94.732,65.856,94.732,65.285,94.269z"/>
</svg>
