<?xml version="1.0" encoding="utf-8"?>
<!-- Generator: Adobe Illustrator 15.0.0, SVG Export Plug-In  -->
<!DOCTYPE svg PUBLIC "-//W3C//DTD SVG 1.1//EN" "http://www.w3.org/Graphics/SVG/1.1/DTD/svg11.dtd" [
	<!ENTITY ns_flows "http://ns.adobe.com/Flows/1.0/">
]>
<svg version="1.1"
	 xmlns="http://www.w3.org/2000/svg" xmlns:xlink="http://www.w3.org/1999/xlink" xmlns:a="http://ns.adobe.com/AdobeSVGViewerExtensions/3.0/"
	 x="0px" y="0px" width="142px" height="142px" viewBox="-2.786 -27.374 142 142" enable-background="new -2.786 -27.374 142 142"
	 xml:space="preserve">
<defs>
</defs>
<path fill-rule="evenodd" clip-rule="evenodd" fill="#0D0D0D" d="M33.725,0.342c-0.126-0.456,1.52-0.456,1.394,0
	C34.654,0.342,34.19,0.342,33.725,0.342z"/>
<path fill-rule="evenodd" clip-rule="evenodd" fill="#202020" d="M36.233,6.752c0.638,0.477,0.103,2.127,0.279,3.066
	c-0.093,0-0.186,0-0.279,0C36.233,8.795,36.233,7.774,36.233,6.752z"/>
<path fill-rule="evenodd" clip-rule="evenodd" fill="#0D0D0D" d="M39.021,6.752c0.64,0.568,0.101,2.314,0.278,3.344
	C38.659,9.528,39.198,7.782,39.021,6.752z"/>
<path fill-rule="evenodd" clip-rule="evenodd" fill="#0D0D0D" d="M36.233,9.818c0.093,0,0.186,0,0.279,0c0,0.372,0,0.743,0,1.115
	C36.1,10.881,36.257,10.259,36.233,9.818z"/>
<path fill-rule="evenodd" clip-rule="evenodd" fill="#0D0D0D" d="M89.467,27.376c0.17,0.016,0.33,0.042,0.278,0.279
	c-0.05,0.413-0.673,0.256-1.114,0.279C88.693,27.533,89.463,27.837,89.467,27.376z"/>
<path fill-rule="evenodd" clip-rule="evenodd" fill="#0D0D0D" d="M80.269,27.934c-0.404-0.153-1.44,0.326-1.392-0.279
	C79.281,27.808,80.317,27.33,80.269,27.934z"/>
<path fill-rule="evenodd" clip-rule="evenodd" fill="#7C7C7C" d="M85.845,28.213c0-0.093,0-0.186,0-0.279c0.928,0,1.856,0,2.786,0
	c0,0.093,0,0.186,0,0.279C87.701,28.213,86.772,28.213,85.845,28.213z"/>
<path fill-rule="evenodd" clip-rule="evenodd" fill="#0D0D0D" d="M75.531,30.163c0.416,0.048,1.029-0.1,1.115,0.28
	C76.23,30.395,75.617,30.542,75.531,30.163z"/>
<path fill-rule="evenodd" clip-rule="evenodd" fill="#7C7C7C" d="M86.123,31.836c0.615,0.035,0.118,1.182,0.278,1.672
	c0,0.371,0,0.744,0,1.115C85.117,34.479,86.215,32.574,86.123,31.836z"/>
<path fill-rule="evenodd" clip-rule="evenodd" fill="#0D0D0D" d="M77.204,33.508c-0.2-0.452,1.313-0.452,1.115,0
	C77.947,33.508,77.576,33.508,77.204,33.508z"/>
<path fill-rule="evenodd" clip-rule="evenodd" d="M100.337,36.574c0.053-0.413,0.674-0.255,1.114-0.279c0.187,0,0.372,0,0.559,0
	c0,0.092,0,0.186,0,0.279C101.451,36.574,100.895,36.574,100.337,36.574z"/>
<path fill-rule="evenodd" clip-rule="evenodd" fill="#0D0D0D" d="M74.974,37.131c0,1.115,0,2.229,0,3.345
	C74.511,39.995,74.511,37.612,74.974,37.131z"/>
<path fill-rule="evenodd" clip-rule="evenodd" fill="#202020" d="M77.761,37.131c0,1.115,0,2.229,0,3.345
	C77.3,39.995,77.3,37.612,77.761,37.131z"/>
<path fill-rule="evenodd" clip-rule="evenodd" fill="#7C7C7C" d="M94.483,38.525c0-0.093,0-0.186,0-0.278
	c0.419,0.047,1.029-0.1,1.115,0.278c-0.186,0-0.37,0-0.557,0S94.67,38.525,94.483,38.525z"/>
<path fill-rule="evenodd" clip-rule="evenodd" fill="#0D0D0D" d="M24.806,54.969c-0.199-0.452,1.314-0.452,1.115,0
	C25.549,54.969,25.178,54.969,24.806,54.969z"/>
<path fill-rule="evenodd" clip-rule="evenodd" fill="#0D0D0D" d="M20.347,56.363c0,0.464,0,0.928,0,1.393
	C19.892,57.882,19.892,56.237,20.347,56.363z"/>
<path fill-rule="evenodd" clip-rule="evenodd" fill="#202020" d="M23.134,56.363c0,0.464,0,0.928,0,1.393
	C22.679,57.882,22.679,56.237,23.134,56.363z"/>
<path fill-rule="evenodd" clip-rule="evenodd" fill="#0D0D0D" d="M34.282,77.544c0.452-0.199,0.452,1.314,0,1.115
	C34.282,78.289,34.282,77.916,34.282,77.544z"/>
<path fill-rule="evenodd" clip-rule="evenodd" fill="#0D0D0D" d="M25.085,86.742c0.65,0,1.3,0,1.951,0
	C26.998,87.201,25.123,87.201,25.085,86.742z"/>
<path fill-rule="evenodd" clip-rule="evenodd" fill="#0D0D0D" d="M30.381,2.85c0.532-0.768,1.183-1.418,1.95-1.951
	C31.799,1.667,31.148,2.317,30.381,2.85z"/>
<path fill-rule="evenodd" clip-rule="evenodd" fill="#202020" d="M26.757,6.752c1.092-1.324,2.3-2.532,3.624-3.623
	C29.29,4.453,28.082,5.661,26.757,6.752z"/>
<path fill-rule="evenodd" clip-rule="evenodd" fill="#0D0D0D" d="M22.019,11.49c1.463-1.696,3.042-3.275,4.738-4.738
	C25.294,8.447,23.715,10.027,22.019,11.49z"/>
<path fill-rule="evenodd" clip-rule="evenodd" fill="#0D0D0D" d="M13.658,19.851c1.556-1.788,3.228-3.46,5.017-5.017
	C17.119,16.624,15.446,18.295,13.658,19.851z"/>
<path fill-rule="evenodd" clip-rule="evenodd" fill="#202020" d="M11.985,21.802c0.44-0.675,0.997-1.232,1.672-1.672
	C13.218,20.805,12.661,21.363,11.985,21.802z"/>
<path fill-rule="evenodd" clip-rule="evenodd" fill="#0D0D0D" d="M10.592,23.196c0.346-0.583,0.811-1.048,1.394-1.394
	C11.639,22.386,11.175,22.85,10.592,23.196z"/>
<path fill-rule="evenodd" clip-rule="evenodd" fill="#202020" d="M8.362,25.704c0.626-0.86,1.369-1.604,2.229-2.229
	C9.965,24.335,9.222,25.078,8.362,25.704z"/>
<path fill-rule="evenodd" clip-rule="evenodd" fill="#0D0D0D" d="M20.904,84.234c0.583,0.346,1.048,0.811,1.394,1.394
	C21.715,85.282,21.25,84.817,20.904,84.234z"/>
<path fill-rule="evenodd" clip-rule="evenodd" fill="#0D0D0D" d="M35.119,82.283c0.251-0.491,0.623-0.863,1.115-1.115
	C35.981,81.66,35.61,82.031,35.119,82.283z"/>
<path fill-rule="evenodd" clip-rule="evenodd" fill="#0D0D0D" d="M31.495,68.626c0.583,0.346,1.047,0.811,1.394,1.394
	C32.306,69.673,31.841,69.209,31.495,68.626z"/>
<path fill-rule="evenodd" clip-rule="evenodd" fill="#0D0D0D" d="M25.364,65.002c0.583,0.346,1.047,0.811,1.393,1.394
	C26.174,66.049,25.71,65.586,25.364,65.002z"/>
<path fill-rule="evenodd" clip-rule="evenodd" fill="#202020" d="M27.593,56.083c0.83,0.378,1.157,1.259,1.672,1.952
	C28.46,57.632,28.19,56.695,27.593,56.083z"/>
<path fill-rule="evenodd" clip-rule="evenodd" fill="#0D0D0D" d="M31.217,60.543c0.491,0.251,0.863,0.623,1.114,1.115
	C31.84,61.406,31.469,61.035,31.217,60.543z"/>
<path fill-rule="evenodd" clip-rule="evenodd" fill="#0D0D0D" d="M77.482,56.641c0.347-0.583,0.812-1.048,1.395-1.394
	C78.53,55.831,78.065,56.295,77.482,56.641z"/>
<path fill-rule="evenodd" clip-rule="evenodd" fill="#202020" d="M85.845,38.525c-0.091-0.646,0.044-1.07,0.278-1.394
	c0.236-0.051,0.263,0.108,0.278,0.279C85.645,37.211,86.602,38.724,85.845,38.525z"/>
<path fill-rule="evenodd" clip-rule="evenodd" fill="#202020" d="M135.733,13.72c0.566,0.083,0.743,0.558,1.113,0.836
	c0,0.093,0,0.186,0,0.279C136.356,14.583,135.985,14.211,135.733,13.72z"/>
<path fill-rule="evenodd" clip-rule="evenodd" fill="#0D0D0D" d="M35.955,0.62c0.583,0.346,1.047,0.811,1.394,1.394
	C36.765,1.668,36.301,1.203,35.955,0.62z"/>
<path fill-rule="evenodd" clip-rule="evenodd" fill="#202020" d="M32.331,4.801c0.385-0.822,1.287-1.128,1.673-1.951
	c0.697-0.047,0.873,0.428,1.115,0.836C33.984,2.321,33.321,4.38,32.331,4.801z"/>
<path fill-rule="evenodd" clip-rule="evenodd" fill="#0D0D0D" d="M28.708,8.703c1.091-1.324,2.298-2.532,3.623-3.623
	C31.24,6.404,30.033,7.611,28.708,8.703z"/>
<path fill-rule="evenodd" clip-rule="evenodd" fill="#202020" d="M22.577,14.834c1.463-1.696,3.042-3.275,4.738-4.738
	C25.852,11.792,24.272,13.372,22.577,14.834z"/>
<path fill-rule="evenodd" clip-rule="evenodd" fill="#202020" d="M15.608,21.802c1.649-1.881,3.415-3.647,5.296-5.295
	C19.255,18.388,17.49,20.154,15.608,21.802z"/>
<path fill-rule="evenodd" clip-rule="evenodd" fill="#0D0D0D" d="M13.937,23.753c0.439-0.675,0.997-1.232,1.672-1.672
	C15.169,22.756,14.611,23.313,13.937,23.753z"/>
<path fill-rule="evenodd" clip-rule="evenodd" fill="#202020" d="M12.543,25.147c0.346-0.583,0.811-1.047,1.394-1.394
	C13.591,24.336,13.126,24.801,12.543,25.147z"/>
<path fill-rule="evenodd" clip-rule="evenodd" fill="#0D0D0D" d="M10.313,27.655c0.534-0.768,1.184-1.418,1.952-1.951
	C11.731,26.472,11.081,27.122,10.313,27.655z"/>
<path fill-rule="evenodd" clip-rule="evenodd" fill="#202020" d="M22.577,81.725c0.626,0.675,1.276,1.324,1.951,1.952
	C23.581,83.322,22.931,82.672,22.577,81.725z"/>
<path fill-rule="evenodd" clip-rule="evenodd" fill="#202020" d="M21.183,54.132c0.251-0.49,0.623-0.862,1.115-1.113
	C22.046,53.509,21.674,53.881,21.183,54.132z"/>
<path fill-rule="evenodd" clip-rule="evenodd" fill="#0D0D0D" d="M29.544,54.132c0.492,0.253,0.863,0.624,1.115,1.115
	C30.168,54.996,29.796,54.625,29.544,54.132z"/>
<path fill-rule="evenodd" clip-rule="evenodd" fill="#0D0D0D" d="M41.529,68.348c0.768,0.531,1.418,1.183,1.951,1.95
	C42.712,69.765,42.062,69.115,41.529,68.348z"/>
<path fill-rule="evenodd" clip-rule="evenodd" fill="#202020" d="M75.531,54.691c0.347-0.583,0.812-1.048,1.395-1.394
	C76.579,53.88,76.114,54.344,75.531,54.691z"/>
<path fill-rule="evenodd" clip-rule="evenodd" fill="#323232" d="M97.271,26.541c1.093-0.582,3.486-1.023,5.296-1.673
	c0.751-0.269,1.432-0.832,2.229-1.114c0.741-0.263,1.713-0.268,2.508-0.558c0.762-0.277,1.465-0.832,2.23-1.115
	c0.398-0.148,1.014-0.132,1.392-0.279c0.187-0.072,0.684-0.5,0.838-0.557c1.479-0.546,3.173-0.823,4.738-1.394
	c0.715-0.26,1.4-0.807,2.229-1.115c0.459-0.17,0.863-0.073,1.393-0.278c0.187-0.072,0.683-0.501,0.837-0.558
	c1.451-0.535,3.17-0.807,4.738-1.393c0.722-0.271,1.477-0.833,2.229-1.115c1.23-0.46,2.16-0.548,3.622-1.115
	c0.735-0.285,2.915-1.506,4.182-0.558c0.252,0.492,0.623,0.863,1.113,1.115c1.493,2.829-2.142,4.367-4.457,5.853
	c-0.764,0.489-1.343,0.824-2.229,1.394c-0.345,0.221-0.848,0.382-1.116,0.558c-0.722,0.473-1.326,1.269-1.951,1.672
	c-0.469,0.304-1.012,0.31-1.393,0.557c-0.366,0.239-0.517,0.625-0.837,0.836c-0.394,0.259-1.024,0.315-1.393,0.558
	c-0.349,0.229-0.495,0.617-0.836,0.836c-0.69,0.443-1.511,0.652-2.229,1.115c-0.682,0.436-1.311,1.241-1.951,1.672
	c-0.417,0.28-1.042,0.327-1.395,0.558c-0.293,0.192-0.533,0.639-0.836,0.836c-0.448,0.29-0.963,0.274-1.394,0.557
	c-0.321,0.21-0.473,0.594-0.836,0.836c-0.313,0.209-0.819,0.36-1.115,0.558c-0.297,0.199-0.545,0.649-0.836,0.836
	c-0.413,0.268-0.907,0.257-1.395,0.558c-0.276,0.171-0.517,0.633-0.835,0.836c-0.407,0.258-0.994,0.294-1.395,0.557
	c-0.293,0.191-0.535,0.636-0.836,0.836c-1.57,1.048-3.411,2.303-4.459,2.508c-1.396,0.274-2.799-0.151-4.182-0.278
	c-1.582-0.146-3.447-0.104-3.9-0.558c0.187,0,0.371,0,0.557,0c1.647-0.118,2.675-0.856,3.344-1.951
	c0.239,0.051,0.265-0.109,0.279-0.279c0.5-0.035,0.589,0.341,1.115,0.279c0.558,0,1.114,0,1.673,0
	c0.236,0.051,0.263-0.109,0.278-0.279c2.082-0.835,3.905-2.044,5.853-3.344c5.177-3.454,11.133-7.31,16.723-10.87
	c2.445-1.557,4.819-3.463,7.526-4.738c-1.126-0.158-2.5,0.617-3.902,1.115c-0.627,0.222-1.259,0.589-1.951,0.836
	c-0.64,0.228-1.541,0.304-2.23,0.557c-5.343,1.967-10.157,3.92-16.165,6.132c-0.695,0.256-1.553,0.316-2.23,0.557
	c-1.151,0.41-2.682,1.173-3.9,1.672c-0.343,0.14-1.521-0.011-1.673,0.558c-0.078,0.291,0.036,0.522-0.278,0.557
	c0.168-1.469-0.393-2.208-1.395-2.508C98.712,26.214,97.677,26.693,97.271,26.541z"/>
<path fill-rule="evenodd" clip-rule="evenodd" fill="#7C7C7C" d="M99.5,34.344c0.048,0.325,0.442,0.303,0.837,0.279
	c0.034,0.615,1.183,0.119,1.673,0.279c0,0.464,0,0.929,0,1.394c-0.187,0-0.372,0-0.559,0c-0.122-0.46-2.105-0.46-2.229,0
	c-0.015,0.17-0.04,0.33-0.279,0.279C99.275,35.736,99.26,34.55,99.5,34.344z"/>
<path fill-rule="evenodd" clip-rule="evenodd" fill="#7C7C7C" d="M90.304,37.968c0-0.093,0-0.186,0-0.279
	c0.659,0.549,2.492-0.077,3.065,0.558c-0.092,0-0.187,0-0.278,0s-0.187,0-0.278,0c-0.605-0.047-0.126,0.988-0.278,1.394
	c0,0.278,0,0.557,0,0.836c-0.605-0.047-0.127,0.988-0.281,1.393c-0.086,0.378-0.696,0.231-1.113,0.278
	c-0.044-0.326-0.509-0.235-0.836-0.278c0-0.279,0-0.558,0-0.836c0-0.278,0-0.557,0-0.836c0.604,0.047,0.127-0.988,0.279-1.393
	C90.606,38.408,90.629,38.014,90.304,37.968z"/>
<path fill-rule="evenodd" clip-rule="evenodd" fill="#323232" d="M91.418,27.376c0.651,0,1.3,0,1.951,0c0.093,0,0.187,0,0.278,0
	c-0.372,0.464-1.24,0.433-1.673,0.836C91.715,28.009,91.554,27.706,91.418,27.376z"/>
<path fill-rule="evenodd" clip-rule="evenodd" fill="#7C7C7C" d="M96.991,32.672c0.04,1.154-0.076,2.153-0.557,2.788
	c-0.371,0-0.743,0-1.114,0c0.049-0.792-1.823,0.336-1.395-0.836c0-0.186,0-0.371,0-0.558c0.558,0,1.116,0,1.673,0
	C97.117,34.654,96.408,33.017,96.991,32.672z"/>
<path fill-rule="evenodd" clip-rule="evenodd" fill="#323232" d="M86.123,31.836c-0.024-0.396-0.046-0.79,0.278-0.836
	c0.114,0.559,0.689,2.068,0,2.509C86.241,33.018,86.738,31.871,86.123,31.836z"/>
<path fill-rule="evenodd" clip-rule="evenodd" fill="#323232" d="M93.926,34.623c-0.429,1.173,1.443,0.044,1.395,0.836
	c-0.324-0.046-0.496,0.061-0.559,0.279c-0.449,0.078-0.479-0.264-0.836-0.279C93.734,35.234,93.493,34.696,93.926,34.623z"/>
<path fill-rule="evenodd" clip-rule="evenodd" fill="#323232" d="M91.14,42.148c-0.998,0.5-1.599-0.773-0.836-1.115
	c0,0.279,0,0.558,0,0.836C90.631,41.913,91.096,41.822,91.14,42.148z"/>
<path fill-rule="evenodd" clip-rule="evenodd" fill="#0D0D0D" d="M94.762,27.098c0.088-0.378,0.699-0.231,1.116-0.278
	C95.791,27.197,95.181,27.05,94.762,27.098z"/>
<path fill-rule="evenodd" clip-rule="evenodd" fill="#0D0D0D" d="M93.369,27.376c0.086-0.378,0.697-0.231,1.114-0.279
	c-0.044,0.327-0.507,0.235-0.836,0.279C93.556,27.376,93.462,27.376,93.369,27.376z"/>
<path fill-rule="evenodd" clip-rule="evenodd" fill="#202020" d="M75.531,27.376c0.577,0.166,1.831-0.344,1.951,0.279
	C76.905,27.489,75.651,28,75.531,27.376z"/>
<path fill-rule="evenodd" clip-rule="evenodd" fill="#202020" d="M81.941,27.934c1.301,0,2.601,0,3.903,0c0,0.093,0,0.186,0,0.279
	c-0.187,0-0.373,0-0.558,0C84.256,28.035,82.511,28.574,81.941,27.934z"/>
<path fill-rule="evenodd" clip-rule="evenodd" fill="#323232" d="M90.025,28.492c-0.789,0.23-0.723-0.393-1.395-0.279
	c0-0.093,0-0.186,0-0.279c0.441-0.023,1.064,0.134,1.114-0.279c0.303,0.069,0.19,0.554,0.559,0.558
	C90.354,28.45,90.194,28.476,90.025,28.492z"/>
<path fill-rule="evenodd" clip-rule="evenodd" fill="#7C7C7C" d="M96.435,29.606c-0.088-0.492,1.561-0.498,1.116,0.278
	c-0.095,0-0.187,0-0.279,0C97.226,29.558,96.763,29.65,96.435,29.606z"/>
<path fill-rule="evenodd" clip-rule="evenodd" fill="#0D0D0D" d="M83.336,31.557c0.447-1.097-1.204-0.097-1.115-0.836
	c0.465,0,0.93,0,1.394,0C83.639,31.116,83.661,31.51,83.336,31.557z"/>
<path fill-rule="evenodd" clip-rule="evenodd" fill="#7C7C7C" d="M99.78,32.115c-0.152,0.405,0.324,1.441-0.28,1.394
	C99.654,33.104,99.175,32.067,99.78,32.115z"/>
<path fill-rule="evenodd" clip-rule="evenodd" fill="#202020" d="M91.418,32.672c-0.152,0.405,0.326,1.44-0.278,1.394
	C91.292,33.661,90.813,32.625,91.418,32.672z"/>
<path fill-rule="evenodd" clip-rule="evenodd" fill="#323232" d="M93.926,34.065c-0.046-0.457,1.72-0.457,1.673,0
	C95.042,34.065,94.483,34.065,93.926,34.065z"/>
<path fill-rule="evenodd" clip-rule="evenodd" fill="#7C7C7C" d="M87.237,34.623c0.442,0.023,1.063-0.134,1.115,0.279
	C87.912,34.878,87.289,35.036,87.237,34.623z"/>
<path fill-rule="evenodd" clip-rule="evenodd" fill="#202020" d="M100.337,34.623c0.558,0,1.114,0,1.673,0
	c0.32,0.33,0.314,0.985,0.278,1.672c-0.016,0.17-0.042,0.33-0.278,0.279c0-0.093,0-0.187,0-0.279c0-0.464,0-0.929,0-1.394
	C101.52,34.742,100.371,35.238,100.337,34.623z"/>
<path fill-rule="evenodd" clip-rule="evenodd" fill="#0D0D0D" d="M90.025,34.902c0.371,0,0.743,0,1.114,0c0,0.093,0,0.186,0,0.278
	C90.699,35.157,90.075,35.314,90.025,34.902z"/>
<path fill-rule="evenodd" clip-rule="evenodd" fill="#323232" d="M93.091,35.459c0.152-0.405-0.326-1.44,0.278-1.394
	c0,0.465,0,0.93,0,1.394C93.277,35.459,93.183,35.459,93.091,35.459z"/>
<path fill-rule="evenodd" clip-rule="evenodd" d="M95.32,35.459c0.371,0,0.743,0,1.114,0c-0.034,0.615-1.182,0.118-1.673,0.279
	C94.824,35.521,94.996,35.414,95.32,35.459z"/>
<path fill-rule="evenodd" clip-rule="evenodd" fill="#0D0D0D" d="M99.222,36.295c0.124-0.46,2.107-0.46,2.229,0
	c-0.44,0.023-1.062-0.134-1.114,0.279C99.811,36.637,99.722,36.26,99.222,36.295z"/>
<path fill-rule="evenodd" clip-rule="evenodd" fill="#7C7C7C" d="M87.796,37.41c0.404,0.153,1.44-0.326,1.393,0.278
	c-0.093,0-0.187,0-0.278,0C88.469,37.666,87.846,37.823,87.796,37.41z"/>
<path fill-rule="evenodd" clip-rule="evenodd" fill="#0D0D0D" d="M89.188,37.688c0.372,0,0.743,0,1.115,0c0,0.093,0,0.186,0,0.279
	c-0.404-0.152-1.44,0.326-1.394-0.279C89.002,37.688,89.096,37.688,89.188,37.688z"/>
<path fill-rule="evenodd" clip-rule="evenodd" fill="#202020" d="M93.369,38.247c0.371,0,0.743,0,1.114,0c0,0.093,0,0.185,0,0.278
	c-0.405-0.153-1.44,0.326-1.393-0.278C93.183,38.247,93.277,38.247,93.369,38.247z"/>
<path fill-rule="evenodd" clip-rule="evenodd" fill="#323232" d="M92.534,39.64c0.152-0.405-0.327-1.44,0.278-1.394
	C92.66,38.652,93.137,39.687,92.534,39.64z"/>
<path fill-rule="evenodd" clip-rule="evenodd" fill="#7C7C7C" d="M85.845,38.525c0,0.465,0,0.929,0,1.394c-0.373,0-0.743,0-1.116,0
	c-0.216-0.248-0.299-0.629-0.278-1.114c0-0.279,0-0.558,0-0.836c0.413-0.052,0.257-0.674,0.278-1.115
	c0.324,0.234,0.747,0.368,1.395,0.279C85.889,37.455,85.754,37.879,85.845,38.525z"/>
<path fill-rule="evenodd" clip-rule="evenodd" fill="#202020" d="M84.45,38.804c-0.021,0.485,0.063,0.866,0.278,1.114
	c-0.837,0.281-0.493-0.621-0.557-1.114C84.264,38.804,84.358,38.804,84.45,38.804z"/>
<path fill-rule="evenodd" clip-rule="evenodd" fill="#202020" d="M90.583,38.804c-0.152,0.404,0.324,1.44-0.279,1.393
	C90.456,39.792,89.978,38.757,90.583,38.804z"/>
<path fill-rule="evenodd" clip-rule="evenodd" fill="#202020" d="M92.534,40.477c-0.154,0.404,0.324,1.44-0.281,1.393
	C92.407,41.464,91.929,40.429,92.534,40.477z"/>
<path fill-rule="evenodd" clip-rule="evenodd" fill="#202020" d="M47.382,74.479c-0.047-0.604,0.988-0.127,1.394-0.279
	C48.823,74.804,47.787,74.327,47.382,74.479z"/>
<path fill-rule="evenodd" clip-rule="evenodd" fill="#323232" d="M32.331,0.899c0.532-0.119,0.505-0.796,1.394-0.557
	c0.465,0,0.929,0,1.394,0c0.45-0.079,0.48,0.263,0.836,0.278c0.346,0.583,0.811,1.048,1.394,1.394
	c0.793,1.343,1.799,2.475,1.672,4.738c0.178,1.03-0.361,2.776,0.278,3.344c0.047,2.235,1.76,3.041,3.902,4.459
	c1.372,0.909,2.775,1.848,3.902,2.508c3.031,1.778,6.151,3.032,8.64,4.181c1.587,0.732,2.964,1.647,4.46,2.23
	c0.397,0.155,0.928,0.103,1.393,0.278c0.354,0.134,0.775,0.446,1.115,0.558c3.82,1.249,8.293,2.275,12.82,3.065
	c0.12,0.623,1.374,0.113,1.951,0.279c0.465,0,0.93,0,1.395,0c-0.049,0.604,0.987,0.126,1.392,0.279c0.56,0,1.116,0,1.673,0
	c0.569,0.64,2.314,0.101,3.346,0.279c-0.797,0.597-1.58,1.208-1.673,2.508c-0.464,0-0.929,0-1.394,0c-0.558,0-1.114,0-1.671,0
	c-0.297-0.632-1.753-0.106-2.511-0.278c-0.463,0-0.928,0-1.393,0c-0.086-0.379-0.699-0.231-1.115-0.28
	c-13.289-1.541-25.818-7.559-35.117-13.935c-2.287-1.568-3.852-2.672-3.902-5.295c0-0.372,0-0.743,0-1.115
	c-0.176-0.938,0.359-2.589-0.279-3.066c-0.135-1.258-0.891-1.896-1.115-3.065c-0.242-0.408-0.417-0.884-1.115-0.836
	c-0.386,0.823-1.288,1.128-1.673,1.951c0,0.093,0,0.186,0,0.279c-1.324,1.091-2.531,2.299-3.623,3.623
	c-0.346,0.583-0.811,1.047-1.394,1.394c-1.695,1.463-3.274,3.042-4.738,4.738c-0.44,0.675-0.998,1.233-1.672,1.673
	c-1.881,1.648-3.647,3.414-5.296,5.295c0,0.093,0,0.186,0,0.279c-0.675,0.44-1.232,0.997-1.672,1.672
	c-0.583,0.346-1.047,0.811-1.394,1.394c0.001,0.28-0.226,0.332-0.278,0.557c-0.768,0.533-1.418,1.184-1.952,1.951
	C7.001,31.59,5.069,36.904,2.788,41.87c7.166,12.716,13.125,26.64,19.789,39.855c0.354,0.947,1.004,1.597,1.951,1.952
	c2.763,1.174,5.6-1.594,6.967-2.51c1.15-0.771,2.546-1.397,2.787-2.508c0.452,0.199,0.452-1.314,0-1.115
	c-0.325-0.871-0.85-1.641-1.115-2.229c-0.041-0.092-0.488-0.177-0.557-0.28c-0.086-0.128,0.064-0.414,0-0.557
	c-0.041-0.09-0.489-0.177-0.558-0.279c-0.086-0.126,0.063-0.416,0-0.557c-0.041-0.091-0.488-0.176-0.558-0.279
	c-0.085-0.128,0.064-0.415,0-0.558c-0.038-0.084-0.488-0.185-0.558-0.278c-0.352-0.479-0.525-1.214-1.115-1.672
	c-0.204-0.159-0.648-0.162-0.836-0.279c-0.726-0.451-1.391-0.702-2.23-1.115c-0.877-0.431-1.721-0.699-2.229-1.113
	c-0.723-0.592-0.938-0.961-1.394-1.673c-1.676-2.621-2.212-5.616-2.787-8.92c0-0.465,0-0.929,0-1.393
	c-0.082-1.104,0.341-1.703,0.836-2.23c0.491-0.251,0.863-0.623,1.115-1.113c0.477-0.453,1.014-0.845,1.951-0.837
	c0.743,0,1.486,0,2.229,0c1.513,0.158,2.339,1.005,3.066,1.95c0.252,0.492,0.624,0.863,1.115,1.115
	c3.603,4.388,7.399,8.58,10.87,13.101c0.533,0.767,1.184,1.417,1.951,1.95c3.873,3.068,7.656-0.087,11.148-2.23
	c2.605-1.599,4.927-3.159,6.968-4.459c5.258-3.348,9.734-6.557,13.936-8.918c0.583-0.347,1.048-0.811,1.395-1.394
	c0.627-1.689,1.757-2.367,1.673-3.903c-0.091-1.633-2.32-3.156-3.067-5.294c-0.403-1.156-0.505-2.212-0.558-3.623
	c0-1.116,0-2.23,0-3.345c-0.166-2.118,0.509-3.394,2.23-3.623c0.372,0,0.743,0,1.115,0c1.751,0.013,3.262,0.268,4.738,0.557
	c0.152,0.405-0.326,1.44,0.278,1.394c0.213,0.717,0.676,1.181,1.393,1.393c-0.021,0.441,0.135,1.063-0.278,1.115
	c0.148-1.406-2.084-0.945-3.065-1.115c-1.182-0.204-2.404-0.439-3.346-0.557c-0.146,0.224-0.29,0.453-0.278,0.836
	c-0.461,0.48-0.461,2.864,0,3.345c0.307,0.916,0.242,1.635,0.559,2.508c0.733,2.027,2.761,3.421,3.065,5.295
	c0.483,2.976-0.922,4.816-2.508,6.968c-0.583,0.346-1.048,0.811-1.395,1.394c-1.715,1.074-4.264,3.185-6.411,4.459
	c-0.327,0.195-0.318,0.052-0.557,0.279c-0.237,0.227-0.603,0.334-0.836,0.558c-0.236,0.227-0.603,0.333-0.836,0.557
	c-0.322,0.309-1.486,0.635-2.229,1.115c-0.105,0.069-0.187,0.517-0.278,0.558c-0.143,0.064-0.429-0.085-0.558,0
	c-0.104,0.069-0.188,0.517-0.278,0.557c-2.5,1.127-5.202,3.472-7.804,5.018c-0.328,0.194-0.32,0.051-0.558,0.279
	c-0.298,0.284-1.488,0.666-2.23,1.114c-0.111,0.067-0.183,0.514-0.279,0.557c-1.726,0.778-3.622,2.435-5.853,2.509
	c-0.405,0.152-1.44-0.325-1.394,0.279c-0.186,0-0.372,0-0.558,0c-0.035-0.616-1.182-0.118-1.672-0.279
	c-3.366-0.532-5.238-3.509-7.246-5.852c-1.958-2.284-4.067-4.443-5.575-6.689c-0.251-0.492-0.623-0.864-1.114-1.115
	c-0.609-0.879-1.468-1.506-1.952-2.508c-0.515-0.693-0.842-1.574-1.672-1.952c-0.612-0.316-0.926-0.933-1.672-1.114
	c0.199-0.452-1.314-0.452-1.115,0c-0.924,0.098-1.209,0.835-1.672,1.394c-0.455-0.126-0.455,1.52,0,1.393
	c0.646,2.514,1.352,4.967,2.23,7.247c0.346,0.584,0.811,1.047,1.393,1.394c1.767,0.557,3.363,1.282,4.738,2.23
	c0.346,0.583,0.811,1.047,1.394,1.394c1.42,2.296,3.391,4.04,4.181,6.968c0,0.743,0,1.486,0,2.229
	c0.123,1.052-0.55,1.309-0.836,1.95c-0.492,0.252-0.863,0.624-1.115,1.115c-2.611,1.569-4.492,3.87-8.083,4.459
	c-0.651,0-1.301,0-1.951,0c-1.251-0.049-2.021-0.58-2.787-1.114c-0.346-0.583-0.811-1.048-1.394-1.394
	c-2.345-2.899-4.026-7.573-5.853-11.428c-3.198-6.748-6.488-13.409-10.034-20.624c-0.905-1.843-2.1-4.238-3.345-6.411
	c-0.494-0.861-1.639-2.543-1.672-3.901c-0.05-2.051,1.578-4.64,2.508-6.689c1.429-3.147,3.315-7.091,5.853-9.476
	c0.86-0.626,1.603-1.369,2.229-2.229c0-0.093,0-0.187,0-0.279c0.583-0.346,1.047-0.81,1.394-1.394
	c0.675-0.439,1.233-0.997,1.672-1.672c0-0.093,0-0.186,0-0.279c1.789-1.556,3.461-3.228,5.017-5.017
	c1.231-0.999,2.346-2.113,3.344-3.344c1.696-1.463,3.275-3.043,4.738-4.738c1.325-1.091,2.533-2.299,3.624-3.623
	c0-0.093,0-0.186,0-0.279C31.148,2.317,31.799,1.667,32.331,0.899z"/>
<path fill-rule="evenodd" clip-rule="evenodd" fill="#202020" d="M78.039,30.443c0.758,0.172,2.214-0.354,2.511,0.278
	C79.792,30.549,78.336,31.075,78.039,30.443z"/>
<path fill-rule="evenodd" clip-rule="evenodd" fill="#202020" d="M24.249,52.182c0.124-0.461,2.106-0.461,2.229,0
	C25.735,52.182,24.992,52.182,24.249,52.182z"/>
<path fill-rule="evenodd" clip-rule="evenodd" fill="#202020" d="M45.152,74.2c0.49,0.161,1.637-0.337,1.672,0.279
	C46.334,74.319,45.187,74.816,45.152,74.2z"/>
<path fill-rule="evenodd" clip-rule="evenodd" fill="#202020" d="M37.07,76.988c0.46,0.123,0.46,2.105,0,2.229
	C37.07,78.474,37.07,77.731,37.07,76.988z"/>
<path fill-rule="evenodd" clip-rule="evenodd" fill="#7C7C7C" d="M89.467,27.376c-0.146-0.224-0.291-0.453-0.278-0.836
	c0.857,0.208,0.536-0.765,1.395-0.557c0.162,0.579,0.585,0.9,0.835,1.393c0.136,0.33,0.297,0.632,0.557,0.836
	c-0.112,0.471-1.635,0.93-1.949,0.279c0.169-0.016,0.329-0.042,0.278-0.279c-0.368-0.003-0.256-0.489-0.559-0.558
	C89.797,27.418,89.637,27.393,89.467,27.376z"/>
<path fill-rule="evenodd" clip-rule="evenodd" fill="#7C7C7C" d="M96.713,26.819c0.008-0.271,0.343-0.217,0.559-0.279
	c0.405,0.152,1.44-0.326,1.393,0.279C98.016,26.819,97.364,26.819,96.713,26.819z"/>
<path fill-rule="evenodd" clip-rule="evenodd" fill="#7C7C7C" d="M93.647,30.443c0.307,0.994,1.187,1.416,1.395,2.508
	c-0.568,0.2-1.104,0.874-1.673,0.278c0,0.279,0,0.558,0,0.836c-0.604-0.046-0.126,0.989-0.278,1.394
	c-0.968,0.223-1.072-0.416-1.951-0.279c0-0.092,0-0.185,0-0.278c0-0.279,0-0.558,0-0.836c0.604,0.047,0.126-0.989,0.278-1.394
	c0.649-1.672-1.316-0.727-1.673-1.393C91.512,31.465,92.712,31.086,93.647,30.443z"/>
<path fill-rule="evenodd" clip-rule="evenodd" fill="#7C7C7C" d="M83.058,34.065c0.042-0.328-0.048-0.791,0.278-0.836
	c0,0.743,0,1.486,0,2.23C82.731,35.506,83.21,34.471,83.058,34.065z"/>
<path fill-rule="evenodd" clip-rule="evenodd" fill="#FEFEFE" d="M95.878,26.819c0.278,0,0.557,0,0.835,0c0.651,0,1.303,0,1.951,0
	c1.002,0.3,1.563,1.039,1.395,2.508c0.194,1.218-0.475,1.57-0.278,2.788c-0.605-0.047-0.126,0.989-0.28,1.394
	c0,0.279,0,0.557,0,0.836c-0.24,0.206-0.225,1.392-0.558,2.23c-0.669,1.095-1.696,1.833-3.344,1.951
	c-0.086-0.378-0.696-0.231-1.115-0.278c-0.371,0-0.743,0-1.114,0c-0.573-0.635-2.406-0.009-3.065-0.558c-0.372,0-0.743,0-1.115,0
	c0.048-0.604-0.988-0.125-1.393-0.278c-0.465,0-0.93,0-1.395,0c-0.016-0.17-0.042-0.33-0.278-0.279
	c-0.647,0.089-1.07-0.045-1.395-0.279c-0.717-0.212-1.18-0.676-1.393-1.393c0-0.744,0-1.487,0-2.23c0-0.558,0-1.115,0-1.672
	c0.325-0.047,0.303-0.441,0.278-0.836c0.093-1.301,0.876-1.912,1.673-2.508c0.185,0,0.371,0,0.558,0c0.928,0,1.856,0,2.786,0
	c0.672-0.114,0.605,0.509,1.395,0.279c0.314,0.651,1.837,0.192,1.949-0.279c0.433-0.404,1.301-0.372,1.673-0.836
	c0.329-0.043,0.792,0.048,0.836-0.279c0.094,0,0.187,0,0.278,0C95.181,27.05,95.791,27.197,95.878,26.819z M96.435,29.606
	c-0.789,0.418-2.104,0.311-2.787,0.836c-0.936,0.643-2.136,1.022-3.902,0.836c-0.665-0.368-2.48-1.034-3.344-0.279
	c-0.324,0.047-0.303,0.441-0.278,0.836c0.092,0.738-1.006,2.643,0.278,2.787c0.278,0,0.557,0,0.836,0
	c0.052,0.413,0.675,0.255,1.115,0.279c0.558,0,1.114,0,1.673,0c0.05,0.413,0.674,0.255,1.114,0.278
	c0.879-0.136,0.983,0.502,1.951,0.279c0.092,0,0.187,0,0.278,0c0.187,0,0.371,0,0.557,0c0.357,0.015,0.387,0.357,0.836,0.279
	c0.491-0.161,1.639,0.336,1.673-0.279c0.48-0.635,0.597-1.633,0.557-2.788c-0.194-1.217,0.475-1.569,0.28-2.787
	c0.093,0,0.185,0,0.279,0C97.995,29.109,96.347,29.115,96.435,29.606z"/>
</svg>
