<?xml version="1.0" encoding="utf-8"?>
<!-- Generator: Adobe Illustrator 15.0.0, SVG Export Plug-In  -->
<!DOCTYPE svg PUBLIC "-//W3C//DTD SVG 1.1//EN" "http://www.w3.org/Graphics/SVG/1.1/DTD/svg11.dtd" [
	<!ENTITY ns_flows "http://ns.adobe.com/Flows/1.0/">
]>
<svg version="1.1"
	 xmlns="http://www.w3.org/2000/svg" xmlns:xlink="http://www.w3.org/1999/xlink" xmlns:a="http://ns.adobe.com/AdobeSVGViewerExtensions/3.0/"
	 x="0px" y="0px" width="142px" height="142px" viewBox="-2.785 -27.376 142 142" enable-background="new -2.785 -27.376 142 142"
	 xml:space="preserve">
<defs>
</defs>
<path fill-rule="evenodd" clip-rule="evenodd" fill="#191919" d="M33.726,0.339c-0.2-0.453,1.314-0.453,1.115,0
	C34.469,0.339,34.098,0.339,33.726,0.339z"/>
<path fill-rule="evenodd" clip-rule="evenodd" fill="#191919" d="M36.234,6.75c0.643,0.751,0.099,2.688,0.279,3.902
	C35.871,9.9,36.415,7.963,36.234,6.75z"/>
<path fill-rule="evenodd" clip-rule="evenodd" fill="#191919" d="M39.021,7.307c0.64,0.568,0.101,2.314,0.278,3.345
	C38.66,10.083,39.199,8.337,39.021,7.307z"/>
<path fill-rule="evenodd" clip-rule="evenodd" fill="#787878" d="M19.79,16.505c-0.195-1.218,0.475-1.57,0.279-2.788
	c0.671-0.114,0.605,0.509,1.393,0.279c0.063,1.178-0.43,1.8-0.557,2.787c-0.093,0-0.186,0-0.279,0
	C20.58,16.458,20.186,16.48,19.79,16.505z"/>
<path fill-rule="evenodd" clip-rule="evenodd" fill="#C2C2C2" d="M18.676,19.292c-0.199-0.452,1.314-0.452,1.114,0
	c-0.278,0-0.557,0-0.836,0C18.861,19.292,18.769,19.292,18.676,19.292z"/>
<path fill-rule="evenodd" clip-rule="evenodd" fill="#191919" d="M75.532,27.374c0.406,0.153,1.44-0.326,1.395,0.279
	C76.521,27.5,75.486,27.978,75.532,27.374z"/>
<path fill-rule="evenodd" clip-rule="evenodd" fill="#191919" d="M78.32,27.653c0.405,0.152,1.44-0.326,1.393,0.279
	C79.309,27.779,78.272,28.257,78.32,27.653z"/>
<path fill-rule="evenodd" clip-rule="evenodd" fill="#191919" d="M89.189,27.932c-0.046-0.604,0.989-0.126,1.395-0.279
	C90.63,28.257,89.594,27.779,89.189,27.932z"/>
<path fill-rule="evenodd" clip-rule="evenodd" fill="#191919" d="M81.942,27.932c1.766,0,3.53,0,5.296,0
	C86.116,28.395,83.064,28.395,81.942,27.932z"/>
<path fill-rule="evenodd" clip-rule="evenodd" fill="#191919" d="M76.091,30.161c0.417,0.048,1.027-0.1,1.114,0.28
	C76.788,30.392,76.177,30.54,76.091,30.161z"/>
<path fill-rule="evenodd" clip-rule="evenodd" fill="#191919" d="M91.419,30.44c0.052-0.413,0.673-0.256,1.116-0.28
	C92.482,30.574,91.859,30.417,91.419,30.44z"/>
<path fill-rule="evenodd" clip-rule="evenodd" fill="#191919" d="M78.32,30.44c0.577,0.165,1.829-0.345,1.949,0.278
	C79.693,30.553,78.438,31.063,78.32,30.44z"/>
<path fill-rule="evenodd" clip-rule="evenodd" fill="#191919" d="M88.632,30.719c0.034-0.615,1.183-0.119,1.673-0.278
	C90.269,31.055,89.123,30.559,88.632,30.719z"/>
<path fill-rule="evenodd" clip-rule="evenodd" fill="#191919" d="M84.729,30.719c0.465,0,0.93,0,1.395,0
	C86.25,31.174,84.605,31.174,84.729,30.719z"/>
<path fill-rule="evenodd" clip-rule="evenodd" fill="#191919" d="M81.107,33.785c0.417,0.047,1.027-0.1,1.114,0.278
	C81.805,34.016,81.193,34.163,81.107,33.785z"/>
<path fill-rule="evenodd" clip-rule="evenodd" fill="#191919" d="M83.059,34.063c0.417,0.047,1.028-0.1,1.114,0.279
	C83.756,34.294,83.145,34.441,83.059,34.063z"/>
<path fill-rule="evenodd" clip-rule="evenodd" fill="#191919" d="M89.189,34.899c0.416,0.047,1.029-0.1,1.115,0.278
	C89.889,35.13,89.275,35.277,89.189,34.899z"/>
<path fill-rule="evenodd" clip-rule="evenodd" fill="#191919" d="M91.141,35.178c0.417,0.048,1.027-0.1,1.113,0.279
	C91.838,35.409,91.227,35.556,91.141,35.178z"/>
<path fill-rule="evenodd" clip-rule="evenodd" fill="#191919" d="M93.092,35.457c0.417,0.047,1.027-0.1,1.114,0.279
	C93.789,35.688,93.178,35.835,93.092,35.457z"/>
<path fill-rule="evenodd" clip-rule="evenodd" fill="#191919" d="M79.156,36.293c0.417,0.047,1.027-0.1,1.113,0.279
	C79.829,36.548,79.208,36.706,79.156,36.293z"/>
<path fill-rule="evenodd" clip-rule="evenodd" fill="#191919" d="M77.762,37.129c0,1.115,0,2.229,0,3.345
	C77.301,39.993,77.301,37.609,77.762,37.129z"/>
<path fill-rule="evenodd" clip-rule="evenodd" fill="#191919" d="M85.288,37.129c0.417,0.047,1.028-0.1,1.114,0.279
	C85.962,37.384,85.339,37.542,85.288,37.129z"/>
<path fill-rule="evenodd" clip-rule="evenodd" fill="#191919" d="M87.238,37.408c0.416,0.047,1.029-0.1,1.115,0.278
	C87.913,37.663,87.29,37.82,87.238,37.408z"/>
<path fill-rule="evenodd" clip-rule="evenodd" fill="#191919" d="M74.975,37.686c0,0.836,0,1.672,0,2.508
	C74.515,39.983,74.515,37.898,74.975,37.686z"/>
<path fill-rule="evenodd" clip-rule="evenodd" fill="#191919" d="M89.189,37.686c0.416,0.048,1.029-0.099,1.115,0.279
	C89.862,37.942,89.241,38.099,89.189,37.686z"/>
<path fill-rule="evenodd" clip-rule="evenodd" fill="#191919" d="M93.37,38.244c0.417,0.047,1.028-0.1,1.114,0.278
	C94.043,38.5,93.422,38.657,93.37,38.244z"/>
<path fill-rule="evenodd" clip-rule="evenodd" fill="#191919" d="M95.321,38.522c0.417,0.048,1.028-0.1,1.114,0.279
	C95.995,38.778,95.374,38.935,95.321,38.522z"/>
<path fill-rule="evenodd" clip-rule="evenodd" fill="#191919" d="M97.272,38.802c0.417,0.047,1.028-0.1,1.114,0.278
	C97.946,39.057,97.323,39.214,97.272,38.802z"/>
<path fill-rule="evenodd" clip-rule="evenodd" fill="#787878" d="M23.135,57.753c-0.452,0.2-0.452-1.313,0-1.114
	C23.135,57.01,23.135,57.382,23.135,57.753z"/>
<path fill-rule="evenodd" clip-rule="evenodd" fill="#787878" d="M53.236,66.951c0.455-0.126,0.455,1.52,0,1.395
	C53.236,67.881,53.236,67.416,53.236,66.951z"/>
<path fill-rule="evenodd" clip-rule="evenodd" fill="#C2C2C2" d="M46.547,71.688c0.372,0,0.743,0,1.115,0
	C47.861,72.142,46.347,72.142,46.547,71.688z"/>
<path fill-rule="evenodd" clip-rule="evenodd" fill="#191919" d="M24.529,8.979c1.648-1.882,3.414-3.647,5.295-5.295
	C28.175,5.565,26.41,7.331,24.529,8.979z"/>
<path fill-rule="evenodd" clip-rule="evenodd" fill="#323232" d="M29.824,3.684c1.209-1.207,1.923-2.909,3.902-3.345
	c0.372,0,0.743,0,1.115,0c1.571-0.053,2.318,1.585,3.066,2.787c0.497,0.8,1.318,2.206,1.114,4.181
	c0.178,1.03-0.361,2.776,0.278,3.345c0.212,1.853,1.924,2.595,3.902,3.901c3.24,2.14,6.545,4.114,10.313,5.854
	c2.926,1.351,5.83,2.77,9.197,3.902c3.557,1.194,8.427,2.415,12.82,3.065c-0.046,0.604,0.989,0.126,1.395,0.279
	c0.464,0,0.929,0,1.394,0c-0.048,0.604,0.988,0.126,1.393,0.279c0.743,0,1.486,0,2.229,0c1.122,0.463,4.174,0.463,5.296,0
	c0.65,0,1.302,0,1.951,0c0.404-0.153,1.44,0.326,1.395-0.279c5.12-0.354,10.169-2.231,14.771-3.902
	c1.733-0.629,3.466-1.283,5.295-1.951c2.214-0.808,4.646-1.613,6.968-2.508c0.373-0.144,0.752-0.424,1.116-0.558
	c1.719-0.626,3.544-0.933,5.573-1.672c0.145-0.052,0.453-0.526,0.558-0.557c1.538-0.465,3.175-1.094,4.737-1.673
	c2.809-1.039,7.112-2.734,7.527,0.836c0.062,0.548,0.063,1.121-0.281,1.672c-0.49,0.251-0.861,0.624-1.113,1.115
	c-4.992,3.129-10.287,6.733-15.887,10.313c-0.351,0.224-0.706,0.295-1.114,0.557c-0.593,0.379-1.062,0.837-1.951,1.394
	c-0.948,0.592-1.903,1.217-3.065,1.951c-0.379,0.239-0.741,0.341-1.116,0.558c-0.114,0.066-0.18,0.513-0.278,0.558
	c-1.366,0.616-3.007,1.862-4.459,2.787c-0.301,0.191-0.802,0.348-1.114,0.557c-0.901,0.604-2.27,1.956-3.902,2.229
	c-1.733,0.292-2.995-0.209-4.46-0.278c-0.086-0.378-0.697-0.231-1.114-0.278c-0.28,0-0.559,0-0.837,0
	c-0.086-0.379-0.697-0.231-1.114-0.279c-0.278,0-0.559,0-0.837,0c-0.086-0.378-0.697-0.231-1.114-0.278
	c-1.32,0.206-1.915-0.313-3.065-0.279c-0.086-0.378-0.699-0.231-1.115-0.279c-0.278,0-0.558,0-0.836,0
	c-0.086-0.378-0.699-0.231-1.115-0.278c-0.279,0-0.558,0-0.836,0c-0.086-0.378-0.697-0.231-1.114-0.279
	c-1.942,0.084-3.249-0.467-5.019-0.557c-0.086-0.378-0.696-0.231-1.113-0.279c-0.737,0.007-1.747-0.26-1.395,0.836
	c-0.461,0.48-0.461,2.864,0,3.345c0.227,1.083,0.259,2.016,0.559,2.787c1.162,2.988,4.222,3.966,2.787,8.64
	c-0.063,0.201-0.515,0.537-0.838,1.116c-0.246,0.442-0.29,1.018-0.557,1.392c-0.216,0.305-0.799,0.45-1.113,0.837
	c-0.56,0.687-0.545,0.847-1.116,1.394c-1.183,1.133-3.604,2.538-5.295,3.623c-1,0.643-2.055,1.307-3.066,1.951
	c-0.496,0.315-1.198,0.517-1.673,0.836c-0.458,0.309-0.685,0.839-1.114,1.115C65.812,64.5,65.21,64.648,64.663,65
	c-1.035,0.665-2.343,1.713-3.623,2.509c-0.985,0.612-2.458,1.503-3.624,2.229c-0.544,0.339-1.197,0.517-1.672,0.836
	c-0.525,0.354-0.78,0.928-1.394,1.114c0.527-0.681,1.065-1.35,1.394-2.229c0.629-0.207,0.109-1.563,0.279-2.229
	c0.512-0.047,0.922-0.902,1.393-1.114c0.135-0.061,0.443,0.087,0.558,0c0.09-0.07,0.196-0.521,0.278-0.558
	c0.498-0.225,1.054-0.106,0.558-0.837c0.584,0.777,1.471,0.448,1.394-0.835c0.664,0.5,1.389-0.223,1.95-0.558
	c1.12-0.67,2.292-1.659,3.624-2.509c2.308-1.472,4.939-3.11,7.524-4.738c0.355-0.223,0.819-0.366,1.116-0.557
	c0.106-0.069,0.187-0.516,0.278-0.558c1.332-0.602,3.911-3.359,3.903-5.296c-0.005-0.765-0.223-0.72-0.56-1.394
	c-0.353-0.71-0.655-1.261-1.113-1.95c-0.085-0.129-0.161-0.383-0.279-0.559c-0.14-0.206-0.729-0.603-0.837-0.836
	c-0.188-0.413-0.13-1.162-0.278-1.672c-0.255-0.876-0.77-1.44-0.558-3.066c0-0.836,0-1.672,0-2.508
	c-0.616-4.436,2.775-4.802,6.133-3.901c0.086,0.378,0.697,0.231,1.114,0.278c0.278,0,0.559,0,0.837,0
	c0.086,0.378,0.697,0.231,1.114,0.279c1.943-0.084,3.249,0.467,5.017,0.558c0.086,0.378,0.699,0.231,1.115,0.278
	c0.279,0,0.558,0,0.836,0c0.086,0.378,0.697,0.231,1.113,0.279c0.281,0,0.56,0,0.838,0c0.086,0.378,0.697,0.231,1.114,0.279
	c2.622-0.298,4.878,1.16,7.524,0.836c1.334-0.163,2.633-1.24,4.181-2.23c0.646-0.413,1.316-0.704,1.952-1.115
	c1.09-0.706,1.616-1.22,2.786-1.951c0.318-0.199,0.846-0.384,1.116-0.558c0.577-0.37,1.078-1.007,1.673-1.394
	c0.318-0.208,0.785-0.333,1.114-0.557c0.296-0.204,0.526-0.355,0.835-0.558c0.32-0.209,0.842-0.381,1.116-0.558
	c0.105-0.068,0.186-0.516,0.278-0.558c0.145-0.064,0.427,0.085,0.557,0c5.459-3.536,10.117-7.015,15.052-9.754
	c0.553-0.004,0.353-0.761,1.114-0.558c-0.091-0.594-1.217,0.044-1.395,0.278c-4.165,1.608-8.008,2.911-12.263,4.459
	c-0.819,0.299-1.728,0.549-2.509,0.836c-0.812,0.299-1.46,0.843-2.229,1.116c-0.777,0.275-1.713,0.27-2.509,0.557
	c-1.561,0.565-3.167,1.375-4.737,1.952c-4.454,1.633-9.585,3.71-15.328,4.18c-0.443,0.024-1.064-0.133-1.116,0.28
	c-0.371,0-0.743,0-1.114,0c-0.49,0.16-1.639-0.337-1.673,0.278c-0.835,0-1.673,0-2.508,0c-0.465,0-0.93,0-1.395,0
	c-0.719,0.22-2.917-0.147-4.46,0c-0.12-0.624-1.372-0.113-1.949-0.278c-0.372,0-0.743,0-1.115,0
	c-0.087-0.379-0.697-0.231-1.114-0.28c-5.349-0.498-10.949-1.783-15.887-3.623c-1.222-0.455-2.216-1.057-3.624-1.673
	c-5.581-2.44-11.469-5.296-16.723-9.197c-0.772-0.573-1.355-0.955-1.95-1.672c-0.822-0.99-1.449-1.487-1.394-3.344
	c-0.18-1.214,0.364-3.151-0.279-3.902c-0.073-1.692-1.009-2.521-1.672-3.623c-1.784,0.91-2.86,2.528-4.18,3.901
	c-1.882,1.649-3.647,3.415-5.296,5.296c-0.646,1.259-2.391,2.129-3.344,3.345c-0.049,0.062-0.562,0.571-0.558,0.557
	c-0.12,0.439,0.294,0.488,0.278,0.836c-0.226-0.053-0.278-0.279-0.557-0.278c0.127-0.987,0.62-1.609,0.557-2.787
	c-0.788,0.23-0.722-0.393-1.393-0.279c0.195,1.217-0.475,1.57-0.279,2.788c-0.49,0.16-1.637-0.337-1.672,0.278
	c-0.856,0.073-1.253,0.604-1.951,0.836c2.624-3.043,5.737-5.597,8.362-8.64C26.41,7.331,28.175,5.565,29.824,3.684z"/>
<path fill-rule="evenodd" clip-rule="evenodd" fill="#191919" d="M13.938,19.57c0.439-0.675,0.997-1.232,1.672-1.672
	C15.17,18.573,14.612,19.131,13.938,19.57z"/>
<path fill-rule="evenodd" clip-rule="evenodd" fill="#C2C2C2" d="M13.659,20.127c0.053-0.226,0.28-0.277,0.279-0.557
	c0.675-0.439,1.232-0.997,1.672-1.672c0.093,0,0.186,0,0.279,0C15.263,18.758,14.519,19.502,13.659,20.127z"/>
<path fill-rule="evenodd" clip-rule="evenodd" fill="#787878" d="M12.544,21.243c0.252-0.491,0.624-0.863,1.115-1.115
	C13.407,20.619,13.035,20.991,12.544,21.243z"/>
<path fill-rule="evenodd" clip-rule="evenodd" fill="#C2C2C2" d="M10.314,23.751c0.771-0.81,1.326-1.833,2.23-2.508
	C11.937,22.214,11.292,23.149,10.314,23.751z"/>
<path fill-rule="evenodd" clip-rule="evenodd" fill="#787878" d="M8.921,25.145c0.346-0.583,0.81-1.047,1.393-1.394
	C9.968,24.334,9.504,24.798,8.921,25.145z"/>
<path fill-rule="evenodd" clip-rule="evenodd" fill="#191919" d="M35.12,82.28c0.251-0.491,0.623-0.863,1.115-1.115
	C35.982,81.657,35.611,82.028,35.12,82.28z"/>
<path fill-rule="evenodd" clip-rule="evenodd" fill="#191919" d="M32.611,69.738c-0.492-0.252-0.863-0.624-1.115-1.114
	C31.987,68.875,32.359,69.247,32.611,69.738z"/>
<path fill-rule="evenodd" clip-rule="evenodd" fill="#323232" d="M26.758,55.245c0.492,0.252,0.863,0.624,1.115,1.115
	C27.382,56.108,27.01,55.737,26.758,55.245z"/>
<path fill-rule="evenodd" clip-rule="evenodd" fill="#787878" d="M39.579,70.296c0.768,0.532,1.418,1.184,1.951,1.951
	C40.762,71.714,40.112,71.063,39.579,70.296z"/>
<path fill-rule="evenodd" clip-rule="evenodd" fill="#191919" d="M135.734,18.456c0.252-0.491,0.623-0.863,1.113-1.115
	C136.598,17.833,136.225,18.204,135.734,18.456z"/>
<path fill-rule="evenodd" clip-rule="evenodd" fill="#191919" d="M132.11,17.062c0.178-0.234,1.304-0.872,1.395-0.278
	c-0.762-0.204-0.562,0.554-1.114,0.558C132.44,17.104,132.28,17.078,132.11,17.062z"/>
<path fill-rule="evenodd" clip-rule="evenodd" fill="#191919" d="M25.086,12.324c1.649-1.881,3.414-3.646,5.296-5.296
	C28.732,8.91,26.967,10.675,25.086,12.324z"/>
<path fill-rule="evenodd" clip-rule="evenodd" fill="#787878" d="M58.531,62.213c0.257,0.858,1.116,1.114,1.673,1.673
	c0.077,1.283-0.81,1.612-1.394,0.835c-0.588-0.247-0.824-0.847-1.672-0.835c0.173-0.756,1.165-0.694,1.115-1.673
	C58.345,62.213,58.438,62.213,58.531,62.213z"/>
<path fill-rule="evenodd" clip-rule="evenodd" fill="#191919" d="M42.923,53.573c-0.583-0.346-1.047-0.811-1.394-1.394
	C42.113,52.525,42.577,52.99,42.923,53.573z"/>
<path fill-rule="evenodd" clip-rule="evenodd" fill="#C2C2C2" d="M41.53,52.18c0.346,0.583,0.811,1.048,1.394,1.394
	c0.313,0.059,0.434,0.31,0.558,0.557c-1.152-0.52-1.988-1.356-2.508-2.508C41.285,51.681,41.406,51.932,41.53,52.18z"/>
<path fill-rule="evenodd" clip-rule="evenodd" fill="#C2C2C2" d="M31.218,68.624c0.092,0,0.186,0,0.278,0
	c0.252,0.49,0.624,0.862,1.115,1.114c0,0.093,0,0.186,0,0.279C32.028,69.671,31.563,69.207,31.218,68.624z"/>
<path fill-rule="evenodd" clip-rule="evenodd" fill="#C2C2C2" d="M34.841,82.28c0.346-0.583,0.811-1.047,1.394-1.394
	c0,0.093,0,0.187,0,0.278c-0.492,0.252-0.863,0.624-1.115,1.115C35.026,82.28,34.934,82.28,34.841,82.28z"/>
<path fill-rule="evenodd" clip-rule="evenodd" fill="#C2C2C2" d="M22.299,85.346c-0.583-0.345-1.048-0.81-1.394-1.393
	C21.488,84.299,21.953,84.763,22.299,85.346z"/>
<path fill-rule="evenodd" clip-rule="evenodd" fill="#787878" d="M15.889,21.521c0.439-0.675,0.997-1.232,1.672-1.672
	C17.121,20.524,16.564,21.082,15.889,21.521z"/>
<path fill-rule="evenodd" clip-rule="evenodd" fill="#C2C2C2" d="M13.659,24.029c0.607-0.972,1.253-1.906,2.23-2.508
	c-0.053,0.226-0.28,0.278-0.279,0.558c-0.491,0.252-0.863,0.623-1.114,1.115C14.339,23.595,14.06,23.874,13.659,24.029z"/>
<path fill-rule="evenodd" clip-rule="evenodd" fill="#787878" d="M12.544,25.145c0.252-0.492,0.624-0.863,1.115-1.115
	C13.407,24.521,13.035,24.893,12.544,25.145z"/>
<path fill-rule="evenodd" clip-rule="evenodd" fill="#C2C2C2" d="M10.872,26.817c0.44-0.675,0.997-1.233,1.672-1.672
	c-0.053,0.226-0.28,0.278-0.278,0.557c-0.492,0.252-0.864,0.624-1.115,1.115C11.057,26.817,10.965,26.817,10.872,26.817z"/>
<path fill-rule="evenodd" clip-rule="evenodd" fill="#323232" d="M10.036,27.932c0.082-0.568,0.754-0.546,0.836-1.115
	c0.093,0,0.186,0,0.279,0C10.898,27.308,10.527,27.68,10.036,27.932z"/>
<path fill-rule="evenodd" clip-rule="evenodd" fill="#787878" d="M11.708,59.704c1.791-0.16,2.542-1.359,4.181-1.671
	c0.124,0.711,0.391,1.28,0.836,1.671c-0.235,0.797-1.325,0.772-1.951,1.115c-0.635,0.348-1.525,0.693-1.672,1.394
	C12.573,61.44,12.34,60.373,11.708,59.704z"/>
<path fill-rule="evenodd" clip-rule="evenodd" fill="#787878" d="M22.856,82.28c0.492,0.252,0.863,0.624,1.115,1.114
	C23.479,83.144,23.108,82.771,22.856,82.28z"/>
<path fill-rule="evenodd" clip-rule="evenodd" fill="#787878" d="M21.184,54.13c0.251-0.49,0.623-0.862,1.115-1.113
	C22.047,53.507,21.675,53.879,21.184,54.13z"/>
<path fill-rule="evenodd" clip-rule="evenodd" fill="#323232" d="M28.709,53.295c0.491,0.251,0.863,0.623,1.114,1.113
	C29.333,54.157,28.961,53.785,28.709,53.295z"/>
<path fill-rule="evenodd" clip-rule="evenodd" fill="#C2C2C2" d="M41.251,68.065c0.717,0.678,1.317,1.471,1.951,2.23
	C42.38,69.724,41.654,69.058,41.251,68.065z"/>
<path fill-rule="evenodd" clip-rule="evenodd" fill="#323232" d="M39.3,53.852c0.768,0.533,1.418,1.183,1.951,1.951
	C40.483,55.271,39.833,54.619,39.3,53.852z"/>
<path fill-rule="evenodd" clip-rule="evenodd" fill="#787878" d="M54.908,62.213c0.053-1.353-1.626-0.974-1.672-2.229
	c1.024,0.184,1.874,0.542,3.066,0.558C55.804,61.064,55.548,61.831,54.908,62.213z"/>
<path fill-rule="evenodd" clip-rule="evenodd" fill="#191919" d="M11.15,26.817c0.251-0.492,0.623-0.863,1.115-1.115
	C12.014,26.193,11.642,26.565,11.15,26.817z"/>
<path fill-rule="evenodd" clip-rule="evenodd" fill="#191919" d="M14.495,23.193c0.251-0.492,0.623-0.863,1.114-1.115
	C15.358,22.57,14.986,22.941,14.495,23.193z"/>
<path fill-rule="evenodd" clip-rule="evenodd" fill="#191919" d="M18.397,61.656c-0.541,0.109-0.407-1.271,0.279-0.837
	C18.528,61.044,18.385,61.271,18.397,61.656z"/>
<path fill-rule="evenodd" clip-rule="evenodd" fill="#191919" d="M51.285,70.296c0.122-0.343,0.356-0.572,0.836-0.558
	C51.999,70.081,51.764,70.311,51.285,70.296z"/>
<path fill-rule="evenodd" clip-rule="evenodd" fill="#191919" d="M20.348,20.407c-0.047,0.417,0.1,1.028-0.278,1.114
	C20.092,21.08,19.935,20.458,20.348,20.407z"/>
<path fill-rule="evenodd" clip-rule="evenodd" fill="#787878" d="M24.25,52.18c0.124-0.461,2.106-0.461,2.229,0
	C25.736,52.18,24.993,52.18,24.25,52.18z"/>
<path fill-rule="evenodd" clip-rule="evenodd" fill="#787878" d="M23.414,59.426c0.872-0.335,1.858-0.557,2.787-0.836
	c-0.006,0.657,0.48,0.82,0.279,1.672c-1.007,0.108-1.86,0.37-2.509,0.836C23.345,60.98,23.963,59.619,23.414,59.426z"/>
<path fill-rule="evenodd" clip-rule="evenodd" fill="#787878" d="M9.199,60.541c0.544,0.85,0.873,1.914,1.394,2.787
	C9.059,63.56,8.04,64.306,6.969,65c-0.677-0.438-1.043-1.186-1.114-2.23c1.27-0.4,2.387-0.957,3.344-1.672
	C9.199,60.913,9.199,60.728,9.199,60.541z"/>
<path fill-rule="evenodd" clip-rule="evenodd" fill="#787878" d="M21.462,62.213c-0.368-0.003-0.254-0.488-0.557-0.557
	c-0.5,0.227-2.762,1.614-2.508,0c-0.012-0.385,0.131-0.612,0.279-0.837c0.527-0.309,1.316-0.355,1.951-0.558
	c0.093,0,0.186,0,0.279,0C20.952,61.052,21.416,61.424,21.462,62.213z"/>
<path fill-rule="evenodd" clip-rule="evenodd" fill="#C2C2C2" d="M56.023,67.229c-0.169,0.667,0.35,2.022-0.279,2.229
	c0.178-1.029-0.361-2.775,0.279-3.344C56.023,66.486,56.023,66.858,56.023,67.229z"/>
<path fill-rule="evenodd" clip-rule="evenodd" fill="#787878" d="M37.071,79.215c0-0.743,0-1.486,0-2.229
	C37.531,77.108,37.531,79.091,37.071,79.215z"/>
<path fill-rule="evenodd" clip-rule="evenodd" fill="#787878" d="M25.365,83.953c0.558,0,1.115,0,1.672,0
	C27.083,84.409,25.319,84.409,25.365,83.953z"/>
<path fill-rule="evenodd" clip-rule="evenodd" fill="#FFFFFF" d="M16.167,17.619c0.698-0.231,1.095-0.763,1.951-0.836
	c0.836,0,1.672,0,2.509,0c0.093,0,0.186,0,0.279,0c0.279-0.001,0.332,0.225,0.557,0.278c0.884,0.362,1.739,1.064,2.23,1.672
	c0.24,0.298,0.33,1.036,0.558,1.394c0.302,0.475,0.63,0.689,0.836,1.115c0.757,1.568,0.88,2.91,1.115,4.459
	c0.241,1.588,0.209,3.193,0.557,4.739c0.24,1.061,0.924,2.065,1.394,3.065c0.255,0.543,0.296,1.232,0.558,1.672
	c0.292,0.492,0.783,0.641,1.114,1.115c1.284,1.836,2.436,3.663,3.624,5.295c0.551,0.758,1.24,1.546,1.951,2.509
	c1.724,2.332,3.78,4.926,5.574,7.525c0.521,1.151,1.356,1.988,2.508,2.508c0.788,0.348,1.792,1.298,2.787,1.673
	c4.309,1.622,11.885,0.886,12.542,4.181c0.119,0.598,0.095,1.493-0.279,2.229c-0.093,0-0.186,0-0.279,0
	c0.05,0.979-0.941,0.917-1.115,1.673c-0.411,0.703-0.985,1.244-1.115,2.229c-0.64,0.568-0.101,2.314-0.279,3.344
	c-0.329,0.88-0.867,1.549-1.394,2.229c-2.663,2.712-10.01,4.055-12.821,0.559c-0.533-0.768-1.183-1.419-1.951-1.951
	c-3.944-4.604-7.853-9.242-11.706-13.936c-0.252-0.491-0.624-0.863-1.115-1.115c-1.218-1.07-3.539-0.304-3.623,1.394
	c-0.452-0.199-0.452,1.314,0,1.114c-0.006,0.657,0.48,0.821,0.279,1.673c0.549,0.193-0.069,1.555,0.557,1.672
	c0.772,1.506,0.741,3.482,1.952,4.738c1.418,1.474,3.94,1.143,5.295,2.788c0.346,0.583,0.81,1.047,1.394,1.394
	c0.732,0.376,1.484,1.873,2.229,2.786c0.643,0.788,1.883,2.702,2.23,4.182c0,0.743,0,1.486,0,2.229
	c-0.125,0.712-0.392,1.281-0.836,1.672c-0.583,0.347-1.047,0.811-1.394,1.394c-2.297,1.791-4.499,3.677-7.804,4.459
	c-0.558,0-1.115,0-1.672,0c-1.449-0.037-2.366-0.606-3.066-1.394c-0.346-0.583-0.811-1.047-1.394-1.393
	c-2.155-2.571-3.982-6.89-5.574-10.313c-1.624-3.491-3.185-6.959-4.738-10.313c-0.521-0.873-0.85-1.938-1.394-2.787
	c-2.26-4.309-4.411-9.095-6.967-13.936c-0.887-1.679-2.177-3.283-2.23-4.738c-0.065-1.779,1.571-4.07,2.508-6.131
	c0.906-1.994,1.59-4.324,2.508-5.854c0.252-0.42,0.847-0.746,1.115-1.114c0.188-0.258,0.097-0.599,0.279-0.836
	c0.569-0.744,1.651-1.951,2.508-2.787c0.583-0.346,1.047-0.811,1.393-1.394c0.978-0.602,1.623-1.537,2.23-2.508
	c0.491-0.252,0.863-0.624,1.115-1.115c0.86-0.625,1.604-1.369,2.23-2.229C15.837,17.661,15.997,17.635,16.167,17.619z
	 M18.676,19.292c-0.042,0.515-0.944,0.171-1.115,0.557c-0.675,0.44-1.233,0.998-1.672,1.672c-0.977,0.602-1.623,1.537-2.23,2.508
	c-0.491,0.252-0.863,0.624-1.115,1.115c-0.675,0.439-1.232,0.997-1.672,1.672c-0.082,0.568-0.754,0.546-0.836,1.115
	c-3.149,3.912-5.15,8.972-7.247,13.936c3.17,5.749,6.218,11.62,8.919,17.837c0.633,0.669,0.866,1.736,1.394,2.509
	c3.327,6.614,6.182,13.699,9.754,20.067c0.252,0.491,0.624,0.863,1.115,1.114c0.858-0.207,0.536,0.766,1.394,0.559
	c-0.046,0.456,1.718,0.456,1.672,0c1.427-0.577,2.662-1.492,4.181-2.509c1.355-0.907,3.275-1.705,3.344-3.345
	c0.024-0.58-0.863-1.95-1.115-2.508c-0.042-0.093-0.489-0.173-0.557-0.278c-0.202-0.313-0.313-0.752-0.558-1.116
	c-0.849-1.262-1.793-2.91-2.787-3.623c-0.948-0.681-3.605-1.12-4.181-1.672c-0.188-0.181-0.333-0.101-0.558-0.278
	c-2.059-1.638-2.447-3.604-3.345-6.411c-0.046-0.789-0.511-1.161-0.557-1.951c-0.093,0-0.186,0-0.279,0
	c-0.127-2.073-0.786-4.89,0.558-6.132c0.491-0.251,0.863-0.623,1.115-1.113c0.477-0.453,1.014-0.845,1.951-0.837
	c0.743,0,1.486,0,2.229,0c0.985,0.13,1.526,0.703,2.23,1.115c0.252,0.49,0.623,0.862,1.114,1.113
	c3.841,4.522,7.718,9.007,11.427,13.657c0.403,0.992,1.129,1.658,1.951,2.23c1.275,0.303,1.796,1.362,3.345,1.393
	c-0.2,0.453,1.314,0.453,1.115,0c1.313-0.358,2.603-0.741,3.623-1.393c0.479,0.015,0.714-0.215,0.836-0.558
	c0.568-0.082,0.546-0.754,1.115-0.836c0-0.187,0-0.372,0-0.557c0.455,0.125,0.455-1.521,0-1.395
	c-0.025-2.162,0.824-3.449,1.672-4.738c0.64-0.382,0.896-1.148,1.394-1.672c-1.192-0.016-2.042-0.374-3.066-0.558
	c-4.52-0.869-9.375-1.401-11.985-4.181c-0.533-0.769-1.183-1.418-1.951-1.951c-3.369-4.442-6.383-8.433-9.476-12.542
	c-1.459-1.938-2.999-4.128-3.901-6.132c-0.047-0.102-0.497-0.153-0.558-0.278c-0.314-0.647-0.36-1.595-0.558-2.23
	c-0.04-0.127-0.521-0.669-0.557-0.836c-0.099-0.443,0.085-0.947,0-1.393c-0.133-0.692-0.472-1.42-0.558-2.23
	c-0.08-0.751,0.17-1.861,0-2.787c-0.056-0.304-0.451-0.745-0.558-1.115c-0.18-0.628-0.083-1.228-0.279-1.672
	c-0.143-0.325-0.603-0.453-0.836-0.836c-0.521-0.858-0.509-1.79-1.394-1.951c-0.114-0.35-0.359-0.569-0.836-0.557
	C19.99,18.84,18.477,18.84,18.676,19.292z"/>
<path fill-rule="evenodd" clip-rule="evenodd" fill="#323232" d="M25.365,86.739c0.558,0,1.115,0,1.672,0
	C27.083,87.197,25.319,87.197,25.365,86.739z"/>
<path fill-rule="evenodd" clip-rule="evenodd" fill="#C2C2C2" d="M18.118,16.783c0.035-0.616,1.183-0.118,1.672-0.278
	c0.396-0.025,0.79-0.047,0.836,0.278C19.79,16.783,18.954,16.783,18.118,16.783z"/>
<path fill-rule="evenodd" clip-rule="evenodd" fill="#787878" d="M18.954,19.292c0.279,0,0.558,0,0.836,0
	c0.477-0.012,0.722,0.207,0.836,0.557c-0.217,0.062-0.324,0.233-0.279,0.558c-0.413,0.051-0.255,0.673-0.278,1.114
	c0.119,1.036-1.278,0.52-1.115,0.558C17.971,21.852,19.032,20.229,18.954,19.292z"/>
</svg>
