<?xml version="1.0" encoding="utf-8"?>
<!-- Generator: Adobe Illustrator 15.0.0, SVG Export Plug-In  -->
<!DOCTYPE svg PUBLIC "-//W3C//DTD SVG 1.1//EN" "http://www.w3.org/Graphics/SVG/1.1/DTD/svg11.dtd" [
	<!ENTITY ns_flows "http://ns.adobe.com/Flows/1.0/">
]>
<svg version="1.1"
	 xmlns="http://www.w3.org/2000/svg" xmlns:xlink="http://www.w3.org/1999/xlink" xmlns:a="http://ns.adobe.com/AdobeSVGViewerExtensions/3.0/"
	 x="0px" y="0px" width="142px" height="142px" viewBox="-2.785 -24.876 142 142" enable-background="new -2.785 -24.876 142 142"
	 xml:space="preserve">
<defs>
</defs>
<path fill-rule="evenodd" clip-rule="evenodd" fill="#191919" d="M39.021,9.527C39.637,9.563,39.14,10.71,39.3,11.2
	c-0.093,0-0.185,0-0.278,0C39.021,10.643,39.021,10.085,39.021,9.527z"/>
<path fill-rule="evenodd" clip-rule="evenodd" fill="#191919" d="M78.32,30.152c0.405,0.152,1.44-0.326,1.393,0.279
	C79.309,30.278,78.272,30.757,78.32,30.152z"/>
<path fill-rule="evenodd" clip-rule="evenodd" fill="#191919" d="M89.189,30.431c-0.046-0.604,0.989-0.126,1.395-0.279
	C90.63,30.757,89.594,30.278,89.189,30.431z"/>
<path fill-rule="evenodd" clip-rule="evenodd" fill="#191919" d="M82.222,30.431c1.673,0,3.346,0,5.017,0
	C86.208,30.895,83.251,30.895,82.222,30.431z"/>
<path fill-rule="evenodd" clip-rule="evenodd" fill="#191919" d="M91.419,32.94c0.052-0.413,0.673-0.256,1.116-0.28
	C92.482,33.074,91.859,32.917,91.419,32.94z"/>
<path fill-rule="evenodd" clip-rule="evenodd" fill="#191919" d="M79.156,33.218c-0.2-0.452,1.314-0.452,1.113,0
	C79.899,33.218,79.526,33.218,79.156,33.218z"/>
<path fill-rule="evenodd" clip-rule="evenodd" fill="#191919" d="M88.632,33.218c0.034-0.615,1.183-0.119,1.673-0.278
	C90.269,33.555,89.123,33.058,88.632,33.218z"/>
<path fill-rule="evenodd" clip-rule="evenodd" fill="#191919" d="M81.107,36.284c0.417,0.047,1.027-0.1,1.114,0.278
	C81.805,36.516,81.193,36.662,81.107,36.284z"/>
<path fill-rule="evenodd" clip-rule="evenodd" fill="#191919" d="M83.059,36.563c0.417,0.047,1.028-0.1,1.114,0.279
	C83.756,36.794,83.145,36.941,83.059,36.563z"/>
<path fill-rule="evenodd" clip-rule="evenodd" fill="#191919" d="M85.008,36.841c0.417,0.048,1.03-0.1,1.116,0.279
	C85.707,37.072,85.097,37.22,85.008,36.841z"/>
<path fill-rule="evenodd" clip-rule="evenodd" fill="#191919" d="M89.189,37.399c0.416,0.047,1.029-0.1,1.115,0.278
	C89.889,37.63,89.275,37.777,89.189,37.399z"/>
<path fill-rule="evenodd" clip-rule="evenodd" fill="#191919" d="M91.141,37.677c0.417,0.048,1.027-0.1,1.113,0.279
	C91.838,37.909,91.227,38.056,91.141,37.677z"/>
<path fill-rule="evenodd" clip-rule="evenodd" fill="#191919" d="M93.092,37.957c0.417,0.047,1.027-0.1,1.114,0.279
	C93.789,38.188,93.178,38.335,93.092,37.957z"/>
<path fill-rule="evenodd" clip-rule="evenodd" fill="#191919" d="M79.156,38.792c0.417,0.047,1.027-0.1,1.113,0.279
	C79.829,39.048,79.208,39.206,79.156,38.792z"/>
<path fill-rule="evenodd" clip-rule="evenodd" fill="#191919" d="M83.337,39.35c0.417,0.048,1.028-0.1,1.114,0.279
	C84.011,39.605,83.39,39.762,83.337,39.35z"/>
<path fill-rule="evenodd" clip-rule="evenodd" fill="#191919" d="M85.288,39.628c0.417,0.047,1.028-0.1,1.114,0.279
	C85.962,39.884,85.339,40.042,85.288,39.628z"/>
<path fill-rule="evenodd" clip-rule="evenodd" fill="#191919" d="M74.975,39.907c0,0.464,0,0.929,0,1.394c-0.092,0-0.186,0-0.278,0
	C74.849,40.896,74.37,39.86,74.975,39.907z"/>
<path fill-rule="evenodd" clip-rule="evenodd" fill="#191919" d="M87.238,39.907c0.416,0.047,1.029-0.1,1.115,0.278
	C87.913,40.163,87.29,40.32,87.238,39.907z"/>
<path fill-rule="evenodd" clip-rule="evenodd" fill="#191919" d="M89.189,40.186c0.416,0.048,1.029-0.099,1.115,0.279
	C89.862,40.441,89.241,40.598,89.189,40.186z"/>
<path fill-rule="evenodd" clip-rule="evenodd" fill="#191919" d="M93.37,40.744c0.417,0.047,1.028-0.1,1.114,0.278
	C94.043,40.999,93.422,41.156,93.37,40.744z"/>
<path fill-rule="evenodd" clip-rule="evenodd" fill="#191919" d="M95.321,41.022c0.417,0.048,1.028-0.1,1.114,0.279
	C95.995,41.277,95.374,41.435,95.321,41.022z"/>
<path fill-rule="evenodd" clip-rule="evenodd" fill="#191919" d="M97.272,41.301c0.417,0.047,1.028-0.1,1.114,0.278
	C97.946,41.556,97.323,41.714,97.272,41.301z"/>
<path fill-rule="evenodd" clip-rule="evenodd" fill="#777777" d="M30.66,54.122c0.366,0.098,0.438,0.49,0.836,0.558
	c0,0.092,0,0.186,0,0.278c-0.385,0.822-1.287,1.128-1.672,1.95c-0.491-0.251-0.862-0.623-1.114-1.113
	C29.532,55.409,29.838,54.507,30.66,54.122z"/>
<path fill-rule="evenodd" clip-rule="evenodd" fill="#777777" d="M23.135,60.252c-0.452,0.2-0.452-1.313,0-1.114
	C23.135,59.509,23.135,59.881,23.135,60.252z"/>
<path fill-rule="evenodd" clip-rule="evenodd" fill="#BDBDBD" d="M46.547,74.188c0.372,0,0.743,0,1.115,0
	C47.861,74.641,46.347,74.641,46.547,74.188z"/>
<path fill-rule="evenodd" clip-rule="evenodd" fill="#191919" d="M30.66,5.068c0.44-0.675,0.997-1.232,1.672-1.672
	C31.893,4.071,31.335,4.629,30.66,5.068z"/>
<path fill-rule="evenodd" clip-rule="evenodd" fill="#BDBDBD" d="M30.103,5.904c0.099-0.366,0.491-0.438,0.558-0.836
	c0.675-0.439,1.232-0.997,1.672-1.672c0.093,0,0.187,0,0.279,0C31.892,4.349,31.056,5.185,30.103,5.904z"/>
<path fill-rule="evenodd" clip-rule="evenodd" fill="#777777" d="M27.315,8.691c0.813-1.045,1.742-1.975,2.787-2.787
	C29.291,6.95,28.361,7.879,27.315,8.691z"/>
<path fill-rule="evenodd" clip-rule="evenodd" fill="#333333" d="M24.807,11.2c0.719-0.953,1.555-1.789,2.508-2.508
	c-0.575,1.004-1.655,1.504-2.229,2.508C24.993,11.2,24.9,11.2,24.807,11.2z"/>
<path fill-rule="evenodd" clip-rule="evenodd" fill="#191919" d="M22.578,13.43c0.626-0.86,1.369-1.604,2.229-2.23
	C24.181,12.061,23.438,12.804,22.578,13.43z"/>
<path fill-rule="evenodd" clip-rule="evenodd" fill="#BDBDBD" d="M16.725,19.283c2.067-1.834,4.018-3.786,5.853-5.853
	c0.86-0.626,1.604-1.369,2.229-2.23c0.093,0,0.186,0,0.279,0c-3.693,3.925-7.502,7.734-11.427,11.427
	c0.053-0.226,0.28-0.277,0.279-0.557C14.983,21.257,15.912,20.329,16.725,19.283z"/>
<path fill-rule="evenodd" clip-rule="evenodd" fill="#191919" d="M13.938,22.07c0.812-1.046,1.741-1.975,2.787-2.787
	C15.912,20.329,14.983,21.257,13.938,22.07z"/>
<path fill-rule="evenodd" clip-rule="evenodd" fill="#777777" d="M12.544,23.742c0.252-0.491,0.624-0.863,1.115-1.115
	C13.407,23.119,13.035,23.49,12.544,23.742z"/>
<path fill-rule="evenodd" clip-rule="evenodd" fill="#191919" d="M10.593,25.693c0.252-0.492,0.624-0.863,1.115-1.115
	c0,0.093,0,0.186,0,0.278C11.14,24.939,11.161,25.611,10.593,25.693z"/>
<path fill-rule="evenodd" clip-rule="evenodd" fill="#BDBDBD" d="M10.314,26.25c0.053-0.226,0.28-0.278,0.279-0.558
	c0.568-0.082,0.547-0.753,1.115-0.836C11.362,25.44,10.897,25.904,10.314,26.25z"/>
<path fill-rule="evenodd" clip-rule="evenodd" fill="#777777" d="M9.199,27.365c0.252-0.491,0.624-0.863,1.115-1.114
	C10.063,26.742,9.691,27.113,9.199,27.365z"/>
<path fill-rule="evenodd" clip-rule="evenodd" fill="#333333" d="M8.084,28.48c0.252-0.492,0.624-0.864,1.115-1.116
	C8.948,27.857,8.576,28.229,8.084,28.48z"/>
<path fill-rule="evenodd" clip-rule="evenodd" fill="#191919" d="M35.12,84.78c0.251-0.491,0.623-0.863,1.115-1.115
	C35.982,84.157,35.611,84.528,35.12,84.78z"/>
<path fill-rule="evenodd" clip-rule="evenodd" fill="#BDBDBD" d="M31.218,71.124c0.583,0.346,1.047,0.811,1.394,1.394
	C32.028,72.17,31.563,71.707,31.218,71.124z"/>
<path fill-rule="evenodd" clip-rule="evenodd" fill="#BDBDBD" d="M25.365,67.5c0.386,0.45,0.79,0.882,1.115,1.394
	C26.002,68.535,25.384,68.317,25.365,67.5z"/>
<path fill-rule="evenodd" clip-rule="evenodd" fill="#191919" d="M26.201,57.466c0.093,0,0.186,0,0.279,0
	c0.564,0.767-0.852,1.418-1.394,1.951c-0.047,0.697,0.428,0.872,0.836,1.115c-0.173,0.509-1.165-0.482-1.115-1.115
	c0.675-0.439,1.233-0.998,1.672-1.673C26.242,57.795,26.217,57.636,26.201,57.466z"/>
<path fill-rule="evenodd" clip-rule="evenodd" fill="#777777" d="M26.479,57.466c0.86,0.626,1.604,1.369,2.23,2.229
	c-0.401-0.156-0.681-0.435-0.836-0.836c-0.822,0.385-1.128,1.287-1.951,1.673c-0.408-0.243-0.884-0.418-0.836-1.115
	C25.628,58.884,27.043,58.233,26.479,57.466z"/>
<path fill-rule="evenodd" clip-rule="evenodd" fill="#777777" d="M39.579,72.795c0.768,0.532,1.418,1.184,1.951,1.951
	C40.762,74.213,40.112,73.562,39.579,72.795z"/>
<path fill-rule="evenodd" clip-rule="evenodd" fill="#191919" d="M77.483,59.138c0.347-0.583,0.812-1.048,1.395-1.394
	C78.531,58.328,78.066,58.792,77.483,59.138z"/>
<path fill-rule="evenodd" clip-rule="evenodd" fill="#191919" d="M135.734,20.955c0.252-0.491,0.623-0.863,1.113-1.115
	C136.598,20.332,136.225,20.703,135.734,20.955z"/>
<path fill-rule="evenodd" clip-rule="evenodd" fill="#BDBDBD" d="M39.579,14.266c0.387,0.45,0.79,0.883,1.115,1.394
	C40.216,15.301,39.598,15.083,39.579,14.266z"/>
<path fill-rule="evenodd" clip-rule="evenodd" fill="#777777" d="M32.611,3.396c0.089-1.297-0.556-1.859-0.558-3.065
	c0.671,0.114,0.606-0.509,1.394-0.279c0.443,0.951,0.382,2.405,1.394,2.788C33.777,2.704,33.062,2.918,32.611,3.396z"/>
<path fill-rule="evenodd" clip-rule="evenodd" fill="#FFFFFF" d="M34.841,2.839c2.357,0.528,4.12,3.483,4.181,6.688
	c0,0.558,0,1.116,0,1.672c0.166,0.578-0.344,1.832,0.278,1.952c-0.035,0.499,0.342,0.587,0.279,1.114
	c0.019,0.817,0.637,1.035,1.115,1.394c1.488,0.515,2.604,1.685,3.901,2.508c0.711,0.451,1.48,0.673,2.23,1.115
	c1.818,1.071,3.976,2.278,6.132,3.344c3.48,1.721,7.203,3.498,11.427,4.738c3.818,1.122,8.015,2.217,12.821,2.788
	c1.035,0.73,1.981,1.548,1.673,3.624c0.222,0.966-0.415,1.071-0.278,1.951c-0.63,0.673-0.59,2.012-0.838,3.066
	c0,0.279,0,0.557,0,0.836c-0.461,0.48-0.461,2.864,0,3.345c0,0.278,0,0.557,0,0.835c0.255,0.489,0.096,1.391,0.559,1.672
	c0.521,2.007,2.897,3.47,3.065,6.131c0.146,2.317-0.955,4.289-2.508,5.854c-0.676,0.439-1.234,0.996-1.673,1.672
	c-0.339,0.721-1.747,1.222-2.509,1.951c-0.236,0.228-0.603,0.333-0.835,0.558c-0.238,0.227-0.604,0.334-0.838,0.557
	c-0.236,0.227-0.601,0.334-0.835,0.558c-0.285,0.272-1.564,0.685-2.23,1.115c-0.105,0.068-0.187,0.517-0.278,0.558
	c-0.143,0.063-0.429-0.085-0.557,0c-0.103,0.069-0.188,0.517-0.279,0.557c-0.145,0.065-0.425-0.084-0.557,0
	c-0.106,0.069-0.186,0.516-0.278,0.558c-1.441,0.65-3.214,1.809-4.738,2.787c-2.143,1.376-4.358,3.002-6.689,4.46
	c-0.417,0.261-0.943,0.404-1.393,0.836c-0.309,0.296-1.548,0.707-2.23,1.115c-0.112,0.067-0.183,0.514-0.278,0.557
	c-0.994,0.448-2.271,1.183-3.902,1.394c-1.115,0-2.229,0-3.345,0c-1.729-0.222-2.976-0.927-3.902-1.95
	c-0.533-0.768-1.183-1.419-1.951-1.951c-1.784-2.192-3.749-4.265-5.574-6.41c-0.288-0.339-0.261-0.744-0.558-1.116
	c-0.192-0.239-0.645-0.322-0.836-0.557c-0.278-0.34-0.264-0.747-0.558-1.115c-0.845-1.058-2.667-2.271-3.344-3.901
	c-0.626-0.86-1.37-1.604-2.23-2.229c-0.093,0-0.186,0-0.279,0c-1.254-0.674-2.99,0.271-3.066,1.672
	c-0.452-0.199-0.452,1.314,0,1.114c0.472,2.688,1.363,4.955,2.23,7.247c0.019,0.817,0.637,1.035,1.115,1.394
	c1.685,0.639,3.601,1.044,4.738,2.23c0.346,0.583,0.81,1.047,1.394,1.394c0.732,0.376,1.484,1.873,2.229,2.786
	c0.643,0.788,1.883,2.702,2.23,4.182c0,0.743,0,1.486,0,2.229c-0.125,0.712-0.392,1.281-0.836,1.672
	c-0.583,0.347-1.047,0.811-1.394,1.394c-2.297,1.791-4.499,3.677-7.804,4.459c-0.558,0-1.115,0-1.672,0
	c-1.449-0.037-2.366-0.606-3.066-1.394c-0.346-0.583-0.811-1.047-1.394-1.393c-3.609-4.66-5.518-11.02-8.361-16.444
	c-0.452-0.662-0.627-1.603-1.115-2.229c-2.649-5.214-5.451-11.573-8.641-17.56c-1.029-1.933-2.727-4.226-2.787-5.853
	c-0.065-1.774,1.54-4,2.508-6.131c0.944-2.077,1.622-4.377,2.508-5.854c0.067-0.112,0.515-0.183,0.558-0.278
	c0.064-0.143-0.086-0.429,0-0.558c0.069-0.103,0.517-0.188,0.557-0.278c0.371-0.822,1.209-1.942,1.951-2.787
	c0.492-0.252,0.863-0.624,1.115-1.116c0.492-0.251,0.863-0.623,1.115-1.114c0.583-0.346,1.048-0.811,1.394-1.394
	c0-0.092,0-0.185,0-0.278c0.156-0.401,0.435-0.68,0.836-0.836c0.491-0.252,0.863-0.624,1.115-1.115
	c3.925-3.693,7.734-7.502,11.427-11.427c0.575-1.004,1.655-1.504,2.229-2.508c1.046-0.812,1.975-1.741,2.787-2.787
	c0.953-0.719,1.789-1.555,2.509-2.508C33.062,2.918,33.777,2.704,34.841,2.839z M35.398,6.462c-0.358-0.478-0.576-1.096-1.394-1.115
	c0,0.28-0.226,0.332-0.279,0.557c-0.492,0.252-0.863,0.624-1.115,1.115c-1.231,0.999-2.346,2.113-3.345,3.344
	c0,0.093,0,0.187,0,0.28c-0.86,0.625-1.603,1.369-2.229,2.229c-0.953,0.719-1.79,1.555-2.508,2.508
	c-1.51,1.277-2.904,2.671-4.181,4.181c-1.603,1.371-3.089,2.857-4.459,4.459c-0.583,0.346-1.048,0.811-1.394,1.394
	c0,0.093,0,0.186,0,0.278c-0.156,0.401-0.435,0.68-0.836,0.836c-0.491,0.252-0.863,0.624-1.115,1.115
	c-0.675,0.439-1.232,0.997-1.672,1.672c-0.082,0.568-0.754,0.546-0.836,1.115c-3.149,3.912-5.15,8.972-7.247,13.936
	c3.996,7.153,7.59,14.707,11.149,22.297c0.231,0.697,0.764,1.094,0.836,1.951c0.093,0,0.186,0,0.278,0
	c2.512,5.478,4.927,11.052,7.804,16.165c0.252,0.491,0.624,0.863,1.115,1.114c0.858-0.207,0.536,0.766,1.394,0.559
	c-0.046,0.456,1.718,0.456,1.672,0c1.427-0.577,2.662-1.492,4.181-2.509c1.355-0.907,3.275-1.705,3.344-3.345
	c0.022-0.532-0.858-1.939-1.115-2.508c-0.042-0.093-0.489-0.173-0.557-0.278c-0.185-0.287-0.347-0.803-0.558-1.116
	c-0.966-1.437-1.956-3.026-2.787-3.623c-0.959-0.688-3.572-1.089-4.181-1.672c-0.188-0.181-0.333-0.101-0.558-0.278
	c-1.892-1.505-2.492-3.355-3.345-6.133c-0.797-2.596-1.908-6.605-0.278-8.361c0.491-0.251,0.863-0.623,1.115-1.113
	c0.477-0.453,1.014-0.845,1.951-0.837c0.743,0,1.486,0,2.229,0c0.809,0.214,1.603,0.44,1.951,1.115c0.093,0,0.186,0,0.279,0
	c0.252,0.49,0.623,0.862,1.114,1.113c0,0.094,0,0.187,0,0.28c0.398,0.065,0.47,0.458,0.836,0.557
	c3.425,4.379,7.178,8.431,10.591,12.82c0.403,0.992,1.129,1.658,1.951,2.23c1.275,0.303,1.796,1.362,3.345,1.393
	c-0.2,0.453,1.314,0.453,1.115,0c1.753-0.235,2.61-1.049,3.623-1.671c0.599-0.369,1.183-0.536,1.672-0.837
	c0.431-0.265,0.752-0.394,1.115-0.557c0.096-0.043,0.166-0.491,0.279-0.559c0.611-0.362,1.399-0.489,1.951-0.836
	c0.461-0.29,0.927-0.816,1.394-1.114c0.604-0.386,1.111-0.749,1.672-1.115c0.619-0.404,1.672-0.848,1.951-1.114
	c0.234-0.225,0.599-0.331,0.836-0.558c0.227-0.218,0.257-0.085,0.558-0.279c4.32-2.797,8.421-5.766,12.82-8.36
	c0.583-0.347,1.048-0.811,1.395-1.394c0.815-1.641,1.839-2.557,1.673-4.182c-0.125-1.21-1.253-1.828-1.673-2.508
	c-0.689-1.117-1.055-2.065-1.395-3.066c-0.339-0.498-0.051-1.622-0.558-1.951c0-0.464,0-0.929,0-1.394c0-0.464,0-0.929,0-1.393
	c0-0.465,0-0.93,0-1.394c0.055-2.827,0.924-4.836,1.395-7.247c-1.236,0.185-2.514-0.316-3.902-0.557
	c-1.298-0.226-2.846-0.246-4.181-0.558c-0.606-0.142-1.279-0.637-1.951-0.836c-0.776-0.23-1.502-0.343-2.23-0.558
	c-4.686-1.383-8.64-3.159-12.542-5.017c-2.477-1.18-4.941-2.567-7.524-4.181c-3.533-2.206-7.227-3.689-7.525-7.804
	c-0.18-1.214,0.364-3.151-0.279-3.902c0.089-0.646-0.045-1.07-0.279-1.394C36.163,6.998,35.191,7.32,35.398,6.462z"/>
<path fill-rule="evenodd" clip-rule="evenodd" fill="#BDBDBD" d="M77.205,59.138c0.438-0.676,0.997-1.232,1.673-1.672
	c0,0.093,0,0.185,0,0.278c-0.583,0.346-1.048,0.811-1.395,1.394C77.391,59.138,77.297,59.138,77.205,59.138z"/>
<path fill-rule="evenodd" clip-rule="evenodd" fill="#BDBDBD" d="M34.841,84.78c0.346-0.583,0.811-1.047,1.394-1.394
	c0,0.093,0,0.187,0,0.278c-0.492,0.252-0.863,0.624-1.115,1.115C35.026,84.78,34.934,84.78,34.841,84.78z"/>
<path fill-rule="evenodd" clip-rule="evenodd" fill="#BDBDBD" d="M22.299,87.845c-0.583-0.345-1.048-0.81-1.394-1.393
	C21.488,86.798,21.953,87.262,22.299,87.845z"/>
<path fill-rule="evenodd" clip-rule="evenodd" fill="#BDBDBD" d="M29.266,10.363c0.999-1.231,2.114-2.345,3.345-3.344
	c-0.099,0.366-0.491,0.438-0.558,0.835C30.958,8.524,30.363,9.695,29.266,10.363z"/>
<path fill-rule="evenodd" clip-rule="evenodd" fill="#333333" d="M27.037,12.872c0.626-0.86,1.369-1.604,2.229-2.229
	C28.641,11.503,27.897,12.246,27.037,12.872z"/>
<path fill-rule="evenodd" clip-rule="evenodd" fill="#777777" d="M24.529,15.38c0.719-0.953,1.555-1.789,2.508-2.508
	C26.318,13.825,25.481,14.661,24.529,15.38z"/>
<path fill-rule="evenodd" clip-rule="evenodd" fill="#BDBDBD" d="M20.348,19.561c1.277-1.509,2.671-2.903,4.181-4.181
	C23.251,16.891,21.858,18.284,20.348,19.561z"/>
<path fill-rule="evenodd" clip-rule="evenodd" fill="#777777" d="M15.889,24.021c1.37-1.603,2.856-3.089,4.459-4.459
	C18.978,21.165,17.491,22.651,15.889,24.021z"/>
<path fill-rule="evenodd" clip-rule="evenodd" fill="#BDBDBD" d="M14.495,25.415c0.346-0.583,0.811-1.048,1.394-1.394
	c-0.053,0.226-0.28,0.278-0.279,0.558C15.041,24.66,15.063,25.332,14.495,25.415z"/>
<path fill-rule="evenodd" clip-rule="evenodd" fill="#777777" d="M12.544,27.644c0.252-0.492,0.624-0.863,1.115-1.115
	C13.407,27.021,13.035,27.393,12.544,27.644z"/>
<path fill-rule="evenodd" clip-rule="evenodd" fill="#BDBDBD" d="M10.872,29.316c0.44-0.675,0.997-1.233,1.672-1.672
	c0.001,0.28-0.226,0.332-0.278,0.557c-0.492,0.252-0.864,0.624-1.115,1.115C11.057,29.316,10.965,29.316,10.872,29.316z"/>
<path fill-rule="evenodd" clip-rule="evenodd" fill="#333333" d="M10.036,30.431c0.082-0.568,0.754-0.546,0.836-1.115
	c0.093,0,0.186,0,0.279,0C10.898,29.808,10.527,30.179,10.036,30.431z"/>
<path fill-rule="evenodd" clip-rule="evenodd" fill="#777777" d="M22.856,84.78c0.492,0.252,0.863,0.624,1.115,1.114
	C23.479,85.643,23.108,85.271,22.856,84.78z"/>
<path fill-rule="evenodd" clip-rule="evenodd" fill="#777777" d="M21.184,56.629c0.251-0.49,0.623-0.862,1.115-1.113
	C22.047,56.006,21.675,56.378,21.184,56.629z"/>
<path fill-rule="evenodd" clip-rule="evenodd" fill="#BDBDBD" d="M41.251,70.565c0.717,0.678,1.317,1.471,1.951,2.23
	C42.38,72.223,41.654,71.557,41.251,70.565z"/>
<path fill-rule="evenodd" clip-rule="evenodd" fill="#777777" d="M75.532,57.188c0.347-0.583,0.812-1.048,1.395-1.394
	C76.58,56.377,76.115,56.841,75.532,57.188z"/>
<path fill-rule="evenodd" clip-rule="evenodd" fill="#BDBDBD" d="M33.726,5.904c0.053-0.225,0.279-0.277,0.279-0.557
	c0.817,0.019,1.035,0.637,1.394,1.115C34.786,6.259,34.472,5.154,33.726,5.904z"/>
<path fill-rule="evenodd" clip-rule="evenodd" fill="#777777" d="M35.398,6.462c-0.208,0.858,0.765,0.536,0.557,1.393
	c-0.171,0.387-1.073,0.042-1.115,0.558c-0.847-0.269-0.606-1.623-1.115-2.229c-0.568,0.082-0.546,0.753-1.115,0.836
	c0.251-0.492,0.623-0.863,1.115-1.115C34.472,5.154,34.786,6.259,35.398,6.462z"/>
<path fill-rule="evenodd" clip-rule="evenodd" fill="#191919" d="M30.66,57.745c-0.366-0.099-0.438-0.491-0.836-0.557
	c0-0.094,0-0.187,0-0.28c0.385-0.822,1.287-1.128,1.672-1.95c0.093,0,0.186,0,0.279,0c-0.385,0.822-1.287,1.128-1.672,1.95
	C30.169,57.307,30.562,57.378,30.66,57.745z"/>
<path fill-rule="evenodd" clip-rule="evenodd" fill="#333333" d="M30.66,54.122c0.188-0.609,0.926,0.527,1.115,0.836
	c-0.093,0-0.186,0-0.279,0c0-0.093,0-0.187,0-0.278C31.099,54.612,31.026,54.219,30.66,54.122z"/>
<path fill-rule="evenodd" clip-rule="evenodd" fill="#191919" d="M11.15,29.316c0.251-0.492,0.623-0.863,1.115-1.115
	C12.014,28.693,11.642,29.064,11.15,29.316z"/>
<path fill-rule="evenodd" clip-rule="evenodd" fill="#191919" d="M14.495,25.415c0.568-0.083,0.546-0.755,1.114-0.836
	c-0.251,0.491-0.623,0.863-1.114,1.115C14.495,25.6,14.495,25.507,14.495,25.415z"/>
<path fill-rule="evenodd" clip-rule="evenodd" fill="#191919" d="M29.266,10.363c1.097-0.668,1.691-1.839,2.788-2.508
	c-0.813,1.046-1.742,1.975-2.788,2.788C29.266,10.55,29.266,10.457,29.266,10.363z"/>
<path fill-rule="evenodd" clip-rule="evenodd" fill="#333333" d="M90.584,30.152c5.12-0.354,10.169-2.231,14.771-3.902
	c1.733-0.629,3.466-1.283,5.295-1.951c2.214-0.808,4.646-1.613,6.968-2.508c0.373-0.144,0.752-0.424,1.116-0.558
	c1.719-0.626,3.544-0.933,5.573-1.672c0.145-0.052,0.453-0.526,0.558-0.557c1.538-0.465,3.175-1.094,4.737-1.673
	c2.809-1.039,7.112-2.734,7.527,0.836c0.062,0.548,0.063,1.121-0.281,1.672c-0.49,0.251-0.861,0.624-1.113,1.115
	c-4.994,3.123-10.292,6.734-15.887,10.313c-0.331,0.211-0.781,0.344-1.114,0.557c-0.362,0.232-0.519,0.634-0.838,0.836
	c-0.719,0.461-1.555,0.672-2.229,1.116c-0.318,0.21-0.473,0.593-0.835,0.836c-0.587,0.393-1.497,0.643-2.23,1.115
	c-0.105,0.068-0.186,0.516-0.278,0.558c-1.366,0.616-3.007,1.862-4.459,2.787c-0.301,0.191-0.802,0.348-1.114,0.557
	c-0.901,0.604-2.27,1.956-3.902,2.229c-1.733,0.292-2.995-0.209-4.46-0.278c-0.086-0.378-0.697-0.231-1.114-0.278
	c-0.28,0-0.559,0-0.837,0c-0.086-0.379-0.697-0.231-1.114-0.279c-0.278,0-0.559,0-0.837,0c-0.086-0.378-0.697-0.231-1.114-0.278
	c-1.32,0.206-1.915-0.313-3.065-0.279c-0.086-0.378-0.699-0.231-1.115-0.279c-0.278,0-0.558,0-0.836,0
	c-0.086-0.378-0.699-0.231-1.115-0.278c-0.279,0-0.558,0-0.836,0c-0.086-0.378-0.697-0.231-1.114-0.279c-0.28,0-0.559,0-0.837,0
	c-0.086-0.378-0.697-0.231-1.114-0.279c-1.322,0.206-1.917-0.313-3.067-0.278c-0.086-0.378-0.696-0.231-1.113-0.279
	c-0.465,0-0.93,0-1.395,0c0.248-1.054,0.208-2.393,0.838-3.066c0.603,0.417,1.568,0.475,2.508,0.558
	c0.086,0.378,0.697,0.231,1.114,0.278c0.278,0,0.559,0,0.837,0c0.086,0.378,0.697,0.231,1.114,0.279c0.278,0,0.557,0,0.835,0
	c0.089,0.378,0.699,0.231,1.116,0.279c1.32-0.206,1.915,0.313,3.065,0.279c0.086,0.378,0.699,0.231,1.115,0.278
	c0.279,0,0.558,0,0.836,0c0.086,0.378,0.697,0.231,1.113,0.279c0.281,0,0.56,0,0.838,0c0.086,0.378,0.697,0.231,1.114,0.279
	c3.445,0.03,6.861,1.587,9.754,0c1.014-0.556,2.336-1.707,3.624-2.509c4.608-2.865,9.029-5.824,13.379-8.64
	c0.316-0.205,0.76-0.329,1.114-0.558c0.106-0.068,0.187-0.516,0.278-0.557c0.145-0.065,0.427,0.084,0.559,0
	c0.55-0.354,1.097-1.016,1.671-1.394c0.665-0.437,1.593-0.706,2.23-1.115c0.65-0.417,1.052-0.989,1.673-1.394
	c0.304-0.199,0.815-0.354,1.113-0.558c0.672-0.457,1.709-1.298,2.789-1.672c0.553-0.004,0.353-0.761,1.114-0.558
	c-0.091-0.594-1.217,0.044-1.395,0.278c-4.165,1.608-8.008,2.911-12.263,4.459c-0.819,0.299-1.728,0.549-2.509,0.836
	c-0.812,0.299-1.46,0.843-2.229,1.116c-0.777,0.275-1.713,0.27-2.509,0.557c-1.561,0.565-3.167,1.375-4.737,1.952
	c-4.454,1.633-9.585,3.71-15.328,4.18c-0.443,0.024-1.064-0.133-1.116,0.28c-0.371,0-0.743,0-1.114,0
	c-0.49,0.16-1.639-0.337-1.673,0.278c-3.567,0.248-4.479-0.014-8.362,0c0.201-0.452-1.313-0.452-1.113,0
	c0.046,0.324-0.063,0.496-0.278,0.558c0.309-2.075-0.638-2.893-1.673-3.624c0.372,0,0.743,0,1.115,0
	c-0.048,0.604,0.988,0.126,1.393,0.279c0.838,0,1.673,0,2.509,0c1.029,0.463,3.986,0.463,5.017,0c0.65,0,1.302,0,1.951,0
	C89.594,30.278,90.63,30.757,90.584,30.152z"/>
<path fill-rule="evenodd" clip-rule="evenodd" fill="#191919" d="M132.11,19.561c0.178-0.234,1.304-0.872,1.395-0.278
	c-0.762-0.204-0.562,0.554-1.114,0.558C132.44,19.603,132.28,19.577,132.11,19.561z"/>
<path fill-rule="evenodd" clip-rule="evenodd" fill="#333333" d="M79.713,43.809c0.086-0.378,0.697-0.231,1.116-0.279
	c0,0.279,0,0.558,0,0.836C80.391,44.247,80.591,43.49,79.713,43.809z"/>
<path fill-rule="evenodd" clip-rule="evenodd" fill="#333333" d="M36.234,9.249c0.643,0.751,0.099,2.688,0.279,3.902
	C35.871,12.4,36.415,10.463,36.234,9.249z"/>
<path fill-rule="evenodd" clip-rule="evenodd" fill="#333333" d="M39.3,11.2c0,0.651,0,1.301,0,1.952
	c-0.623-0.12-0.113-1.374-0.278-1.952C39.115,11.2,39.207,11.2,39.3,11.2z"/>
<path fill-rule="evenodd" clip-rule="evenodd" fill="#333333" d="M74.975,41.301c0,0.464,0,0.929,0,1.393
	c-0.604,0.047-0.126-0.988-0.278-1.393C74.789,41.301,74.883,41.301,74.975,41.301z"/>
<path fill-rule="evenodd" clip-rule="evenodd" fill="#333333" d="M78.32,44.088c0.087-0.378,0.697-0.231,1.114-0.279
	C79.383,44.222,78.762,44.065,78.32,44.088z"/>
<path fill-rule="evenodd" clip-rule="evenodd" fill="#777777" d="M72.745,46.317c-1.452-1.835,2.18-0.971,2.229-2.229
	c0.507,0.33,0.219,1.454,0.558,1.951c-0.329,0.321-0.984,0.315-1.671,0.278C73.488,46.317,73.118,46.317,72.745,46.317z"/>
<path fill-rule="evenodd" clip-rule="evenodd" fill="#777777" d="M80.829,44.367c0,0.278,0,0.557,0,0.836
	c-1.148-0.219-1.431,0.428-2.509,0.279c-0.463-0.281-0.304-1.184-0.559-1.672c0.227,0.053,0.278,0.28,0.559,0.279
	c0.441-0.023,1.063,0.134,1.114-0.279c0.092,0,0.187,0,0.278,0C80.591,43.49,80.391,44.247,80.829,44.367z"/>
<path fill-rule="evenodd" clip-rule="evenodd" fill="#333333" d="M72.745,46.317c0.373,0,0.743,0,1.116,0
	C74.06,46.77,72.547,46.77,72.745,46.317z"/>
<path fill-rule="evenodd" clip-rule="evenodd" fill="#777777" d="M24.25,54.679c0.124-0.461,2.106-0.461,2.229,0
	C25.736,54.679,24.993,54.679,24.25,54.679z"/>
<path fill-rule="evenodd" clip-rule="evenodd" fill="#777777" d="M13.938,66.664c1.525-0.333,2.377-1.339,3.902-1.673
	c0.267,0.57,0.569,1.103,0.836,1.673c-0.879,0.979-2.281,1.436-3.624,1.951c-0.093,0-0.186,0-0.278,0
	C14.701,67.757,14.168,67.361,13.938,66.664z"/>
<path fill-rule="evenodd" clip-rule="evenodd" fill="#777777" d="M11.429,67.779c0.488,0.627,0.663,1.567,1.115,2.229
	c-1.442,0.416-2.435,1.281-3.902,1.672c-0.231-0.697-0.763-1.094-0.836-1.951C8.979,69.044,10.411,68.619,11.429,67.779z"/>
<path fill-rule="evenodd" clip-rule="evenodd" fill="#777777" d="M37.071,81.714c0-0.743,0-1.486,0-2.229
	C37.531,79.608,37.531,81.59,37.071,81.714z"/>
<path fill-rule="evenodd" clip-rule="evenodd" fill="#777777" d="M25.365,86.453c0.558,0,1.115,0,1.672,0
	C27.083,86.909,25.319,86.909,25.365,86.453z"/>
<path fill-rule="evenodd" clip-rule="evenodd" fill="#333333" d="M25.365,89.239c0.558,0,1.115,0,1.672,0
	C27.083,89.697,25.319,89.697,25.365,89.239z"/>
<path fill-rule="evenodd" clip-rule="evenodd" fill="#BDBDBD" d="M45.432,76.697c1.115,0,2.23,0,3.345,0
	C48.296,77.16,45.913,77.16,45.432,76.697z"/>
<path fill-rule="evenodd" clip-rule="evenodd" fill="#333333" d="M77.762,39.628c0,1.115,0,2.229,0,3.345
	C77.301,42.492,77.301,40.109,77.762,39.628z"/>
</svg>
