<?xml version="1.0" encoding="utf-8"?>
<!-- Generator: Adobe Illustrator 15.0.0, SVG Export Plug-In  -->
<!DOCTYPE svg PUBLIC "-//W3C//DTD SVG 1.1//EN" "http://www.w3.org/Graphics/SVG/1.1/DTD/svg11.dtd" [
	<!ENTITY ns_flows "http://ns.adobe.com/Flows/1.0/">
]>
<svg version="1.1"
	 xmlns="http://www.w3.org/2000/svg" xmlns:xlink="http://www.w3.org/1999/xlink" xmlns:a="http://ns.adobe.com/AdobeSVGViewerExtensions/3.0/"
	 x="0px" y="0px" width="142px" height="142px" viewBox="-2.721 -27.512 142 142" enable-background="new -2.721 -27.512 142 142"
	 xml:space="preserve">
<defs>
</defs>
<path fill-rule="evenodd" clip-rule="evenodd" fill="#303030" d="M39.086,7.171c0.635,0.386,0.104,1.94,0.278,2.787
	C38.729,9.572,39.261,8.018,39.086,7.171z"/>
<path fill-rule="evenodd" clip-rule="evenodd" fill="#303030" d="M36.299,7.728c0.093,0,0.186,0,0.279,0c0,0.836,0,1.672,0,2.509
	C35.945,9.94,36.471,8.485,36.299,7.728z"/>
<path fill-rule="evenodd" clip-rule="evenodd" fill="#D3D3D3" d="M133.29,16.369c0.333-0.844,1.373,0.196,0.279,0.278
	C133.553,16.478,133.527,16.317,133.29,16.369z"/>
<path fill-rule="evenodd" clip-rule="evenodd" fill="#D3D3D3" d="M80.056,27.796c0.373,0,0.743,0,1.116,0c0,0.093,0,0.186,0,0.279
	C80.755,28.027,80.143,28.174,80.056,27.796z"/>
<path fill-rule="evenodd" clip-rule="evenodd" fill="#A3A3A3" d="M81.172,28.075c0-0.093,0-0.186,0-0.279c0.371,0,0.743,0,1.114,0
	c0,0.093,0,0.186,0,0.279C81.915,28.075,81.543,28.075,81.172,28.075z"/>
<path fill-rule="evenodd" clip-rule="evenodd" fill="#707070" d="M82.286,28.075c0-0.093,0-0.186,0-0.279c1.58,0,3.159,0,4.737,0
	c0,0.093,0,0.186,0,0.279C85.445,28.075,83.866,28.075,82.286,28.075z"/>
<path fill-rule="evenodd" clip-rule="evenodd" fill="#A3A3A3" d="M87.023,28.075c0-0.093,0-0.186,0-0.279c0.373,0,0.743,0,1.116,0
	C88.088,28.208,87.465,28.051,87.023,28.075z"/>
<path fill-rule="evenodd" clip-rule="evenodd" fill="#A3A3A3" d="M80.334,30.583c0-0.093,0-0.186,0-0.278c0.373,0,0.744,0,1.116,0
	c0,0.093,0,0.185,0,0.278C81.078,30.583,80.707,30.583,80.334,30.583z"/>
<path fill-rule="evenodd" clip-rule="evenodd" fill="#D3D3D3" d="M81.45,30.583c0-0.093,0-0.186,0-0.278
	c0.44,0.022,1.063-0.134,1.114,0.278C82.193,30.583,81.821,30.583,81.45,30.583z"/>
<path fill-rule="evenodd" clip-rule="evenodd" fill="#D3D3D3" d="M100.402,36.436c0.558,0,1.114,0,1.673,0
	C102.119,36.893,100.356,36.893,100.402,36.436z"/>
<path fill-rule="evenodd" clip-rule="evenodd" fill="#303030" d="M75.039,37.55c0,0.836,0,1.672,0,2.508
	C74.579,39.847,74.579,37.762,75.039,37.55z"/>
<path fill-rule="evenodd" clip-rule="evenodd" fill="#303030" d="M77.548,38.387c0.094,0,0.187,0,0.278,0c0,0.372,0,0.743,0,1.115
	c-0.092,0-0.185,0-0.278,0C77.548,39.13,77.548,38.758,77.548,38.387z"/>
<path fill-rule="evenodd" clip-rule="evenodd" fill="#D3D3D3" d="M46.611,71.553c0.372,0,0.743,0,1.115,0
	C47.925,72.006,46.412,72.006,46.611,71.553z"/>
<path fill-rule="evenodd" clip-rule="evenodd" fill="#303030" d="M25.429,86.604c0.464,0,0.929,0,1.393,0
	C26.948,87.06,25.303,87.06,25.429,86.604z"/>
<path fill-rule="evenodd" clip-rule="evenodd" fill="#D3D3D3" d="M31.003,2.433c0.517-0.413,0.418-1.44,1.394-1.393
	C32.051,1.623,31.586,2.087,31.003,2.433z"/>
<path fill-rule="evenodd" clip-rule="evenodd" fill="#A3A3A3" d="M29.888,3.548c0.252-0.492,0.624-0.864,1.115-1.115
	C30.751,2.925,30.38,3.296,29.888,3.548z"/>
<path fill-rule="evenodd" clip-rule="evenodd" fill="#707070" d="M27.102,6.335c0.813-1.045,1.741-1.975,2.787-2.787
	C29.076,4.593,28.147,5.523,27.102,6.335z"/>
<path fill-rule="evenodd" clip-rule="evenodd" fill="#303030" d="M23.479,9.958c1.091-1.324,2.299-2.532,3.623-3.623
	c-0.481,0.914-1.471,1.316-1.951,2.229C24.417,8.853,24.211,9.67,23.479,9.958z"/>
<path fill-rule="evenodd" clip-rule="evenodd" fill="#D3D3D3" d="M22.92,10.794c0.099-0.366,0.491-0.438,0.558-0.836
	c0.733-0.288,0.938-1.105,1.672-1.394C24.524,9.425,23.781,10.168,22.92,10.794z"/>
<path fill-rule="evenodd" clip-rule="evenodd" fill="#A3A3A3" d="M18.182,15.533c1.464-1.696,3.043-3.275,4.738-4.738
	C21.458,12.49,19.878,14.069,18.182,15.533z"/>
<path fill-rule="evenodd" clip-rule="evenodd" fill="#303030" d="M14.281,19.156c0.533-0.768,1.184-1.418,1.951-1.951
	C15.699,17.973,15.048,18.623,14.281,19.156z"/>
<path fill-rule="evenodd" clip-rule="evenodd" fill="#303030" d="M11.215,22.5c0.346-0.583,0.811-1.048,1.394-1.394
	c-0.099,0.366-0.491,0.438-0.558,0.836C11.685,22.041,11.613,22.434,11.215,22.5z"/>
<path fill-rule="evenodd" clip-rule="evenodd" fill="#D3D3D3" d="M10.936,23.058c0.053-0.226,0.279-0.277,0.279-0.557
	c0.398-0.067,0.47-0.459,0.836-0.558C11.799,22.434,11.427,22.806,10.936,23.058z"/>
<path fill-rule="evenodd" clip-rule="evenodd" fill="#707070" d="M8.985,25.009c0.251-0.492,0.624-0.863,1.115-1.115
	C9.848,24.385,9.477,24.757,8.985,25.009z"/>
<path fill-rule="evenodd" clip-rule="evenodd" fill="#303030" d="M7.87,26.124c0.251-0.491,0.624-0.863,1.115-1.115
	C8.733,25.5,8.362,25.872,7.87,26.124z"/>
<path fill-rule="evenodd" clip-rule="evenodd" fill="#A3A3A3" d="M40.201,70.718c0.491,0.251,0.863,0.623,1.115,1.114
	C40.824,71.58,40.453,71.209,40.201,70.718z"/>
<path fill-rule="evenodd" clip-rule="evenodd" fill="#303030" d="M135.799,18.32c0.252-0.491,0.623-0.863,1.113-1.115
	C136.662,17.697,136.289,18.068,135.799,18.32z"/>
<path fill-rule="evenodd" clip-rule="evenodd" fill="#707070" d="M68.351,25.845c-0.149-1.079,0.498-1.361,0.278-2.508
	c0.496-0.521,0.708,0.226,1.673,0c0.079,1.166-1.071,2.58,0,3.065C69.573,26.294,68.772,26.259,68.351,25.845z"/>
<path fill-rule="evenodd" clip-rule="evenodd" fill="#D3D3D3" d="M36.02,0.761c0.709,0.034,1.081,0.406,1.115,1.115
	C36.644,1.624,36.272,1.252,36.02,0.761z"/>
<path fill-rule="evenodd" clip-rule="evenodd" fill="#707070" d="M134.404,13.303c0.337-0.873,0.557-1.859,0.838-2.787
	c0.787-0.23,0.721,0.393,1.392,0.278c-0.002,1.206-0.646,1.769-0.557,3.066c-0.225-0.053-0.278-0.28-0.557-0.279
	C135.435,13.204,134.823,13.35,134.404,13.303z"/>
<path fill-rule="evenodd" clip-rule="evenodd" fill="#D3D3D3" d="M77.548,56.225c0.252-0.491,0.623-0.863,1.116-1.115
	C78.63,55.818,78.257,56.19,77.548,56.225z"/>
<path fill-rule="evenodd" clip-rule="evenodd" fill="#D3D3D3" d="M14.281,19.156c0.768-0.533,1.418-1.183,1.951-1.951
	c0.226-0.053,0.278-0.28,0.558-0.279c-0.719,0.954-1.555,1.79-2.508,2.509C14.281,19.341,14.281,19.249,14.281,19.156z"/>
<path fill-rule="evenodd" clip-rule="evenodd" fill="#707070" d="M32.676,4.384c0.288-0.734,1.105-0.939,1.394-1.672
	c0.697-0.047,0.873,0.428,1.115,0.836C34.181,2.273,33.553,3.947,32.676,4.384z"/>
<path fill-rule="evenodd" clip-rule="evenodd" fill="#D3D3D3" d="M29.052,8.008c0.813-1.046,1.742-1.975,2.787-2.788
	c0,0.093,0,0.186,0,0.279C30.743,6.168,30.148,7.338,29.052,8.008z"/>
<path fill-rule="evenodd" clip-rule="evenodd" fill="#303030" d="M27.102,10.237c0.48-0.913,1.47-1.316,1.951-2.229
	c1.096-0.669,1.691-1.84,2.787-2.509C30.376,7.195,28.797,8.774,27.102,10.237z"/>
<path fill-rule="evenodd" clip-rule="evenodd" fill="#707070" d="M24.872,12.467c0.626-0.86,1.37-1.604,2.23-2.23
	C26.475,11.098,25.731,11.841,24.872,12.467z"/>
<path fill-rule="evenodd" clip-rule="evenodd" fill="#A3A3A3" d="M19.854,17.483c1.556-1.789,3.229-3.461,5.017-5.017
	C23.315,14.255,21.644,15.927,19.854,17.483z"/>
<path fill-rule="evenodd" clip-rule="evenodd" fill="#707070" d="M15.953,21.385c0.813-1.045,1.741-1.975,2.787-2.787
	C17.928,19.644,16.999,20.573,15.953,21.385z"/>
<path fill-rule="evenodd" clip-rule="evenodd" fill="#D3D3D3" d="M14.281,23.058c0.252-0.492,0.624-0.863,1.115-1.115
	c-0.053,0.226-0.279,0.277-0.279,0.558C14.75,22.599,14.678,22.991,14.281,23.058z"/>
<path fill-rule="evenodd" clip-rule="evenodd" fill="#303030" d="M13.723,23.894c0.099-0.366,0.491-0.438,0.558-0.836
	c0.397-0.066,0.47-0.459,0.836-0.557C14.771,23.083,14.306,23.548,13.723,23.894z"/>
<path fill-rule="evenodd" clip-rule="evenodd" fill="#D3D3D3" d="M10.936,26.681c0.252-0.492,0.624-0.863,1.115-1.115
	c0,0.093,0,0.186,0,0.279C11.483,25.927,11.504,26.599,10.936,26.681z"/>
<path fill-rule="evenodd" clip-rule="evenodd" fill="#303030" d="M10.1,27.796c0.082-0.568,0.754-0.546,0.836-1.115
	c0.568-0.083,0.547-0.754,1.115-0.836C11.518,26.612,10.867,27.263,10.1,27.796z"/>
<path fill-rule="evenodd" clip-rule="evenodd" fill="#707070" d="M21.249,53.994c0.251-0.49,0.623-0.862,1.115-1.113
	C22.111,53.371,21.74,53.743,21.249,53.994z"/>
<path fill-rule="evenodd" clip-rule="evenodd" fill="#303030" d="M30.446,54.831c-0.768-0.533-1.418-1.184-1.952-1.95
	C29.262,53.412,29.913,54.063,30.446,54.831z"/>
<path fill-rule="evenodd" clip-rule="evenodd" fill="#A3A3A3" d="M41.873,68.767c0.491,0.251,0.863,0.623,1.115,1.115
	C42.496,69.63,42.125,69.257,41.873,68.767z"/>
<path fill-rule="evenodd" clip-rule="evenodd" fill="#707070" d="M65.564,60.962c-0.591,0.34-0.81,1.049-1.673,1.115
	c0.65-0.923-0.702-1.771-1.115-2.509c0.418-0.325,0.682-0.805,1.394-0.836C64.615,59.496,65.21,60.107,65.564,60.962z"/>
<path fill-rule="evenodd" clip-rule="evenodd" fill="#707070" d="M132.733,16.647c0.006-0.271,0.341-0.216,0.557-0.278
	c0.237-0.052,0.263,0.108,0.279,0.278c-0.227,0.053-0.279,0.279-0.558,0.278C133.063,16.689,132.903,16.664,132.733,16.647z"/>
<path fill-rule="evenodd" clip-rule="evenodd" fill="#303030" d="M132.175,16.926c0.008-0.271,0.343-0.216,0.559-0.278
	c0.17,0.016,0.329,0.042,0.278,0.278c-0.227,0.053-0.278,0.28-0.557,0.279C132.439,17.035,132.413,16.875,132.175,16.926z"/>
<path fill-rule="evenodd" clip-rule="evenodd" fill="#707070" d="M67.236,28.354c0.498,0.338,1.622,0.051,1.951,0.557
	c-0.567,0.893-0.126,3.417-1.673,2.508C66.238,31.101,68.244,29.252,67.236,28.354z"/>
<path fill-rule="evenodd" clip-rule="evenodd" fill="#A3A3A3" d="M136.912,14.975c0.461,0.038,0.461,1.913,0,1.951
	C136.912,16.275,136.912,15.625,136.912,14.975z"/>
<path fill-rule="evenodd" clip-rule="evenodd" fill="#707070" d="M75.318,27.238c0.49,0.16,1.639-0.337,1.673,0.279
	C76.5,27.357,75.354,27.854,75.318,27.238z"/>
<path fill-rule="evenodd" clip-rule="evenodd" fill="#707070" d="M77.826,27.517c0.491,0.161,1.639-0.337,1.673,0.279
	C79.01,27.636,77.862,28.132,77.826,27.517z"/>
<path fill-rule="evenodd" clip-rule="evenodd" fill="#707070" d="M76.155,30.025c0.489,0.161,1.637-0.336,1.671,0.28
	C77.337,30.144,76.189,30.641,76.155,30.025z"/>
<path fill-rule="evenodd" clip-rule="evenodd" fill="#A3A3A3" d="M86.745,30.583c0.659-0.642,2.503-0.1,3.624-0.278
	C89.708,30.945,87.867,30.404,86.745,30.583z"/>
<path fill-rule="evenodd" clip-rule="evenodd" fill="#707070" d="M78.664,33.37c0.404,0.152,1.44-0.326,1.392,0.279
	C79.651,33.497,78.615,33.974,78.664,33.37z"/>
<path fill-rule="evenodd" clip-rule="evenodd" fill="#707070" d="M86.745,34.485c0.405,0.153,1.44-0.326,1.395,0.279
	C87.735,34.611,86.699,35.089,86.745,34.485z"/>
<path fill-rule="evenodd" clip-rule="evenodd" fill="#707070" d="M88.696,34.764c0.405,0.152,1.44-0.326,1.395,0.278
	C89.685,34.89,88.648,35.368,88.696,34.764z"/>
<path fill-rule="evenodd" clip-rule="evenodd" fill="#707070" d="M96.778,35.878c0.407,0.152,1.44-0.325,1.395,0.279
	C97.769,36.005,96.732,36.483,96.778,35.878z"/>
<path fill-rule="evenodd" clip-rule="evenodd" fill="#707070" d="M75.318,35.321c-0.152,0.404,0.326,1.44-0.279,1.393
	C75.191,36.309,74.713,35.274,75.318,35.321z"/>
<path fill-rule="evenodd" clip-rule="evenodd" fill="#707070" d="M77.826,39.502c0,0.372,0,0.743,0,1.115
	c-0.377-0.086-0.23-0.698-0.278-1.115C77.642,39.502,77.734,39.502,77.826,39.502z"/>
<path fill-rule="evenodd" clip-rule="evenodd" fill="#707070" d="M0.345,40.338c0,0.743,0,1.486,0,2.229
	C-0.115,42.444-0.115,40.462,0.345,40.338z"/>
<path fill-rule="evenodd" clip-rule="evenodd" fill="#A3A3A3" d="M23.199,56.225c0,0.558,0,1.114,0,1.673
	C22.742,57.942,22.742,56.179,23.199,56.225z"/>
<path fill-rule="evenodd" clip-rule="evenodd" fill="#707070" d="M12.33,60.405c-0.533-0.583-0.899-1.331-1.115-2.229
	c1.456-0.131,2.758-1.88,3.902-1.394c0.267,0.568,0.569,1.103,0.836,1.672c-1.243,0.522-2.225,1.306-3.623,1.672
	C12.33,60.219,12.33,60.313,12.33,60.405z"/>
<path fill-rule="evenodd" clip-rule="evenodd" fill="#FFFFFF" d="M32.396,1.04c0.591-1.062,2.939-1.556,3.624-0.279
	c0.252,0.492,0.624,0.863,1.115,1.115c1.254,1.161,2.011,2.82,1.951,5.295c0.175,0.847-0.357,2.4,0.278,2.787
	c-0.271,1.25,0.752,2.185,1.673,3.066c0.236,0.227,0.603,0.333,0.836,0.557c0.237,0.227,0.603,0.333,0.836,0.558
	c0.237,0.227,0.602,0.333,0.836,0.557c0.237,0.227,0.603,0.334,0.836,0.558c0.237,0.227,0.603,0.333,0.836,0.558
	c0.273,0.262,1.581,0.742,2.229,1.114c0.655,0.377,1.112,0.81,1.672,1.115c1.283,0.699,2.519,1.141,3.624,1.672
	c1.898,0.914,3.48,1.933,5.574,2.788c2.993,1.222,6.419,2.281,10.034,3.345c0.422,0.414,1.223,0.449,1.951,0.557
	c1.86,0.089,3.344,0.559,5.017,0.836c0.035,0.616,1.182,0.119,1.673,0.279c0.278,0,0.557,0,0.835,0
	c0.036,0.615,1.184,0.119,1.673,0.279c0.187,0,0.373,0,0.557,0c0.087,0.378,0.699,0.231,1.116,0.279c0.371,0,0.743,0,1.114,0
	c1.58,0,3.159,0,4.737,0c0.441-0.023,1.064,0.134,1.116-0.279c8.941-0.504,16.284-3.832,23.412-6.411
	c7.256-2.626,14.22-5.205,21.738-7.804c0.744,0,1.487,0,2.23,0c0.278-0.001,0.332,0.226,0.557,0.279
	c0.366,0.099,0.438,0.491,0.835,0.557c0,0.186,0,0.372,0,0.558c0,0.65,0,1.3,0,1.951c0,0.093,0,0.186,0,0.279
	c-0.49,0.251-0.861,0.624-1.113,1.115c-2.931,2.033-6.074,3.761-9.197,5.853c-0.327,0.218-0.487,0.606-0.836,0.836
	c-0.669,0.439-1.557,0.679-2.229,1.115c-0.695,0.45-1.322,0.978-1.951,1.394c-0.389,0.256-0.758,0.327-1.114,0.558
	c-0.106,0.068-0.188,0.516-0.28,0.558c-2.694,1.215-5.651,3.556-8.36,5.295c-0.354,0.228-0.699,0.278-1.116,0.558
	c-0.256,0.172-0.497,0.614-0.835,0.836c-0.651,0.428-1.583,0.696-2.23,1.115c-1.725,1.117-2.563,2.384-4.737,2.508
	c-1.116,0-2.23,0-3.346,0c-7.553-0.622-14.318-2.032-21.739-2.787c0,0.186,0,0.372,0,0.557c-0.615,0.035-0.118,1.183-0.278,1.672
	c0,0.372,0,0.743,0,1.115c0.048,0.417-0.099,1.028,0.278,1.115c0.15,3.38,2.524,4.536,3.346,7.247c0,0.929,0,1.857,0,2.787
	c-0.212,2.11-1.24,3.406-2.508,4.459c-0.493,0.252-0.864,0.624-1.116,1.115c-0.884,1.182-2.945,2.379-4.46,3.344
	c-0.196,0.127-0.617,0.115-0.835,0.279c-0.129,0.096-0.158,0.479-0.278,0.558c-0.361,0.231-1.008,0.311-1.395,0.557
	c-0.285,0.183-0.616,0.522-1.114,0.837c-0.761,0.479-1.427,1.044-2.23,1.394c-0.631,0.298-1.226,0.633-1.672,1.114
	c-3.655,2.494-7.622,5.012-11.707,7.525c-1.674,1.03-2.727,2.062-5.017,2.229c-1.115,0-2.229,0-3.345,0
	c-1.966-0.17-3.172-1.101-4.181-2.229c-0.252-0.491-0.624-0.863-1.115-1.114c-0.867-0.44-1.242-1.395-1.951-2.229
	c-0.525-0.62-1.31-1.192-1.951-1.951c-0.191-0.227-0.083-0.627-0.279-0.837c-0.294-0.314-0.954-0.868-1.394-1.394
	c-0.291-0.347-0.557-0.783-0.836-1.114c-0.823-0.979-1.758-2.131-2.788-3.345c-0.543-0.642-1.357-1.265-1.951-1.95
	c-0.596-0.69-1-1.688-1.672-2.23c-1.278-1.034-3.097-1.665-4.181,0.558c-0.457-0.046-0.457,1.718,0,1.673
	c0.488,1.377,0.71,2.665,1.115,3.901c0.299,0.912,0.706,1.901,1.115,2.786c0.52,1.127,1.402,1.581,2.787,2.23
	c1.904,0.894,3.35,1.438,4.738,3.066c0.917,1.074,1.444,2.112,2.229,3.344c0.555,0.871,1.783,2.148,1.951,3.624
	c0,0.649,0,1.301,0,1.95c0.045,2.4-3.203,4.344-5.575,5.853c-0.197,0.126-0.618,0.115-0.836,0.278
	c-0.113,0.085-0.172,0.498-0.278,0.559c-1.272,0.709-2.31,1.073-3.624,1.114c-0.464,0-0.929,0-1.393,0
	c-4.892-0.516-7.244-7.235-9.198-11.426c-2.396-5.143-4.609-9.641-6.41-13.657c-0.453-0.663-0.627-1.604-1.115-2.23
	c-2.081-4.202-4.151-8.333-6.41-12.542c-0.704-1.312-1.573-2.66-1.951-4.181c0-0.743,0-1.486,0-2.229
	c2.259-4.988,4.11-10.383,7.525-14.215c0.492-0.252,0.863-0.623,1.115-1.115c0.491-0.251,0.863-0.624,1.115-1.115
	c0.156-0.401,0.435-0.68,0.836-0.836c0.491-0.252,0.863-0.624,1.115-1.115c0.067-0.397,0.459-0.47,0.558-0.836
	c0.439-0.675,0.997-1.232,1.672-1.672c0.953-0.719,1.789-1.555,2.508-2.509c0.346-0.583,0.81-1.047,1.393-1.393
	c1.696-1.463,3.275-3.042,4.738-4.738c0.86-0.626,1.604-1.369,2.23-2.23c0.48-0.913,1.47-1.316,1.951-2.229
	c1.045-0.812,1.974-1.742,2.787-2.787c0.492-0.252,0.863-0.624,1.115-1.115C31.586,2.087,32.051,1.623,32.396,1.04z M35.184,3.548
	c-0.242-0.408-0.417-0.884-1.115-0.836c-0.289,0.733-1.105,0.938-1.394,1.672c-0.156,0.401-0.435,0.68-0.836,0.835
	c-1.045,0.813-1.975,1.742-2.787,2.788c-0.48,0.913-1.47,1.316-1.951,2.229c-0.86,0.626-1.604,1.37-2.23,2.23
	c-1.789,1.556-3.461,3.228-5.017,5.017c-0.252,0.492-0.624,0.863-1.114,1.115c-1.046,0.813-1.975,1.742-2.787,2.787
	c-0.059,0.313-0.31,0.435-0.558,0.558c-0.491,0.252-0.863,0.623-1.115,1.115c-0.067,0.398-0.459,0.47-0.558,0.836
	c-0.439,0.675-0.997,1.233-1.672,1.672c-0.491,0.252-0.863,0.624-1.115,1.115c-0.082,0.568-0.754,0.546-0.836,1.115
	c-3.175,3.886-5.044,9.077-7.247,13.936c2.939,5.329,5.805,10.732,8.362,16.444c0.216,0.898,0.583,1.646,1.115,2.229
	c2.072,4.082,4.763,9.817,6.688,13.936c1.456,3.112,3.585,9.148,6.689,9.477c2.08,0.219,3.413-1.212,5.017-2.23
	c0.393-0.249,0.745-0.3,1.115-0.558c1.195-0.83,2.167-1.558,2.787-2.787c-0.343-1.55-1.31-2.823-2.23-4.181
	c-0.797-1.176-1.664-2.835-2.787-3.623c-1.057-0.741-3.475-0.995-4.181-1.672c-0.188-0.181-0.333-0.101-0.558-0.278
	c-3.12-2.482-4.322-8.13-4.459-13.379c0.574-0.076,0.262-1.038,0.836-1.115c0.491-0.251,0.863-0.623,1.115-1.113
	c0.477-0.453,1.014-0.845,1.951-0.837c0.65,0,1.3,0,1.951,0c1.204-0.183,1.562,0.48,2.229,0.837c0.534,0.767,1.184,1.417,1.952,1.95
	c0.911,1.123,1.869,2.225,2.787,3.345c1.024,1.249,2.506,2.658,3.066,3.901c0.034,0.075,0.489,0.198,0.557,0.278
	c0.602,0.711,0.86,1.343,1.394,1.951c1.292,1.476,2.728,2.732,3.623,4.46c0.252,0.49,0.623,0.863,1.115,1.115
	c1.201,0.564,2.117,1.412,3.624,1.671c-0.2,0.453,1.314,0.453,1.115,0c1.701-0.414,2.806-0.973,3.901-1.671
	c4.211-2.688,8.22-5.262,12.264-7.805c0.863-0.066,1.082-0.775,1.673-1.115c1.003-0.555,1.748-1.274,2.787-1.95
	c3.487-2.266,7.783-4.194,9.476-7.247c1.939-3.493-0.747-4.466-1.951-7.246c-0.491-1.136-0.808-2.445-0.836-4.46
	c0-0.836,0-1.672,0-2.508c0-0.278,0-0.557,0-0.836c0.605,0.047,0.127-0.989,0.279-1.393c0.09-1.676,1.376-2.154,3.346-1.951
	c-0.049,0.604,0.987,0.126,1.392,0.279c2.421,0.088,4.576,0.441,6.689,0.836c-0.046,0.604,0.99,0.126,1.395,0.279
	c0.187,0,0.371,0,0.557,0c-0.048,0.604,0.988,0.126,1.395,0.278c2.418,0.089,4.574,0.442,6.688,0.836
	c-0.046,0.604,0.99,0.126,1.395,0.279c0.804,0.033,1.825-0.152,2.229,0.279c-0.046,0.457,1.717,0.457,1.673,0
	c2.938-1.183,5.535-3.591,8.082-4.738c0.092-0.042,0.172-0.489,0.278-0.557c0.32-0.207,0.783-0.341,1.116-0.558
	c1.677-1.096,3.297-2.166,4.737-3.066c0.315-0.197,0.85-0.385,1.114-0.558c0.583-0.378,1.116-1.031,1.673-1.394
	c0.13-0.084,0.415,0.065,0.557,0c0.093-0.042,0.173-0.489,0.279-0.557c0.284-0.183,0.803-0.351,1.115-0.558
	c0.307-0.203,0.539-0.354,0.836-0.558c0.376-0.257,0.799-0.352,1.115-0.557c0.607-0.396,1.095-1.018,1.671-1.394
	c0.131-0.085,0.415,0.064,0.56,0c0.09-0.042,0.172-0.489,0.278-0.558c0.32-0.206,0.783-0.341,1.114-0.557
	c0.308-0.203,0.538-0.354,0.837-0.557c0.328-0.225,0.793-0.35,1.114-0.558c0.572-0.373,1.048-0.994,1.673-1.393
	c0.316-0.204,0.783-0.351,1.113-0.558c0.325-0.202,0.665-0.653,1.116-0.557c0.278,0,0.33-0.226,0.557-0.279
	c0.278,0.001,0.331-0.225,0.558-0.278c1.094-0.082,0.054-1.123-0.279-0.278c-0.216,0.062-0.551,0.007-0.557,0.278
	c-0.216,0.063-0.551,0.007-0.559,0.278c-7.535,2.739-15.53,5.746-22.574,8.362c-0.828,0.307-1.699,0.538-2.509,0.836
	c-5.066,1.862-10.352,3.882-16.723,4.181c-1.121,0.178-2.965-0.363-3.624,0.278c-1.393,0-2.786,0-4.181,0
	c-0.051-0.413-0.674-0.256-1.114-0.278c-0.372,0-0.743,0-1.116,0c-0.648,0-1.3,0-1.949,0c-0.186,0-0.372,0-0.559,0
	c-0.034-0.616-1.182-0.119-1.671-0.28c-2.713,0.018-4.74-0.648-6.968-1.114c-0.33-0.506-1.454-0.219-1.951-0.557
	c-6.429-1.099-13.735-5.076-19.789-7.804c-0.098-0.044-0.162-0.492-0.279-0.558c-1.268-0.707-3.41-1.491-4.181-2.229
	c-0.234-0.224-0.599-0.33-0.836-0.557c-0.233-0.224-0.599-0.331-0.836-0.558c-0.234-0.224-0.599-0.331-0.836-0.558
	c-1.87-1.791-4.262-2.767-3.902-5.853c0-0.836,0-1.672,0-2.509c-0.152-0.404,0.326-1.44-0.279-1.393
	C36.211,5.122,35.461,4.572,35.184,3.548z"/>
<path fill-rule="evenodd" clip-rule="evenodd" fill="#D3D3D3" d="M133.29,13.582c0.087-0.378,0.697-0.231,1.114-0.279
	c0.419,0.047,1.03-0.099,1.116,0.279C134.777,13.582,134.034,13.582,133.29,13.582z"/>
<path fill-rule="evenodd" clip-rule="evenodd" fill="#707070" d="M36.299,6.335c0.604-0.047,0.126,0.989,0.279,1.393
	c-0.093,0-0.186,0-0.279,0C36.299,7.265,36.299,6.8,36.299,6.335z"/>
<path fill-rule="evenodd" clip-rule="evenodd" fill="#707070" d="M77.826,36.714c0,0.558,0,1.115,0,1.672c-0.092,0-0.185,0-0.278,0
	C77.708,37.897,77.211,36.75,77.826,36.714z"/>
<path fill-rule="evenodd" clip-rule="evenodd" fill="#A3A3A3" d="M99.565,38.944c1.115,0,2.229,0,3.346,0
	C102.43,39.406,100.048,39.406,99.565,38.944z"/>
<path fill-rule="evenodd" clip-rule="evenodd" fill="#A3A3A3" d="M81.172,47.863c0.461,0.3,0.461,2.486,0,2.787
	C81.172,49.721,81.172,48.792,81.172,47.863z"/>
<path fill-rule="evenodd" clip-rule="evenodd" fill="#707070" d="M8.706,59.29c0.488,0.626,0.663,1.567,1.115,2.23
	c-1.287,0.57-2.344,1.372-3.902,1.672c-0.232-0.697-0.764-1.095-0.836-1.951C6.426,60.726,7.827,60.269,8.706,59.29z"/>
<path fill-rule="evenodd" clip-rule="evenodd" fill="#707070" d="M65.564,64.307c0.446-0.481,1.041-0.816,1.672-1.114
	c0.346,0.861,0.688,1.728,1.393,2.229c0.086,0.642-0.805,0.31-0.836,0.836C66.397,66.26,66.797,64.467,65.564,64.307z"/>
<path fill-rule="evenodd" clip-rule="evenodd" fill="#A3A3A3" d="M45.496,74.062c1.115,0,2.23,0,3.345,0
	C48.36,74.524,45.977,74.524,45.496,74.062z"/>
<path fill-rule="evenodd" clip-rule="evenodd" fill="#707070" d="M78.385,30.305c0.649,0,1.301,0,1.949,0c0,0.093,0,0.185,0,0.278
	C79.758,30.417,78.503,30.927,78.385,30.305z"/>
<path fill-rule="evenodd" clip-rule="evenodd" fill="#707070" d="M24.314,52.044c0.038-0.46,1.913-0.46,1.951,0
	C25.615,52.044,24.965,52.044,24.314,52.044z"/>
<path fill-rule="evenodd" clip-rule="evenodd" fill="#707070" d="M37.135,76.85c0.458,0.038,0.458,1.913,0,1.95
	C37.135,78.15,37.135,77.499,37.135,76.85z"/>
</svg>
