<?xml version="1.0" encoding="utf-8"?>
<!-- Generator: Adobe Illustrator 15.0.0, SVG Export Plug-In  -->
<!DOCTYPE svg PUBLIC "-//W3C//DTD SVG 1.1//EN" "http://www.w3.org/Graphics/SVG/1.1/DTD/svg11.dtd" [
	<!ENTITY ns_flows "http://ns.adobe.com/Flows/1.0/">
]>
<svg version="1.1"
	 xmlns="http://www.w3.org/2000/svg" xmlns:xlink="http://www.w3.org/1999/xlink" xmlns:a="http://ns.adobe.com/AdobeSVGViewerExtensions/3.0/"
	 x="0px" y="0px" width="142px" height="142px" viewBox="-2.96 -27.376 142 142" enable-background="new -2.96 -27.376 142 142"
	 xml:space="preserve">
<defs>
</defs>
<path fill-rule="evenodd" clip-rule="evenodd" fill="#191919" d="M38.847,7.028c0.604-0.047,0.126,0.989,0.278,1.394
	c-0.093,0-0.185,0-0.278,0C38.847,7.957,38.847,7.493,38.847,7.028z"/>
<path fill-rule="evenodd" clip-rule="evenodd" fill="#191919" d="M89.015,27.932c-0.046-0.604,0.989-0.126,1.395-0.279
	C90.455,28.257,89.419,27.779,89.015,27.932z"/>
<path fill-rule="evenodd" clip-rule="evenodd" fill="#C0C0C0" d="M80.095,27.932c0.56,0,1.116,0,1.673,0c0,0.093,0,0.186,0,0.279
	C81.279,28.05,80.131,28.547,80.095,27.932z"/>
<path fill-rule="evenodd" clip-rule="evenodd" fill="#797979" d="M81.768,28.21c0-0.093,0-0.186,0-0.279c0.373,0,0.744,0,1.116,0
	c0,0.093,0,0.186,0,0.279C82.512,28.21,82.141,28.21,81.768,28.21z"/>
<path fill-rule="evenodd" clip-rule="evenodd" fill="#343434" d="M82.884,28.21c0-0.093,0-0.186,0-0.279c0.371,0,0.743,0,1.114,0
	c0,0.093,0,0.186,0,0.279C83.627,28.21,83.255,28.21,82.884,28.21z"/>
<path fill-rule="evenodd" clip-rule="evenodd" fill="#191919" d="M83.998,28.21c0-0.093,0-0.186,0-0.279c1.021,0,2.043,0,3.065,0
	c0,0.093,0,0.186,0,0.279c-0.371,0-0.744,0-1.114,0c-0.373,0-0.743,0-1.116,0C84.555,28.21,84.276,28.21,83.998,28.21z"/>
<path fill-rule="evenodd" clip-rule="evenodd" fill="#C0C0C0" d="M84.833,28.21c0.373,0,0.743,0,1.116,0c0,0.093,0,0.186,0,0.279
	C85.532,28.441,84.922,28.589,84.833,28.21z"/>
<path fill-rule="evenodd" clip-rule="evenodd" fill="#797979" d="M85.949,28.489c0-0.093,0-0.186,0-0.279c0.37,0,0.743,0,1.114,0
	c0.216,0.062,0.551,0.007,0.559,0.279C87.063,28.489,86.506,28.489,85.949,28.489z"/>
<path fill-rule="evenodd" clip-rule="evenodd" fill="#C0C0C0" d="M89.015,28.489c0.465,0,0.93,0,1.395,0c0,0.092,0,0.185,0,0.279
	C90.004,28.615,88.969,29.094,89.015,28.489z"/>
<path fill-rule="evenodd" clip-rule="evenodd" fill="#797979" d="M90.409,28.768c0-0.094,0-0.187,0-0.279
	c0.404,0.152,1.44-0.326,1.392,0.279C91.336,28.768,90.873,28.768,90.409,28.768z"/>
<path fill-rule="evenodd" clip-rule="evenodd" fill="#C0C0C0" d="M93.195,28.768c0.465,0,0.93,0,1.393,0c0,0.093,0,0.186,0,0.278
	C94.184,28.894,93.149,29.372,93.195,28.768z"/>
<path fill-rule="evenodd" clip-rule="evenodd" fill="#797979" d="M94.588,29.046c0-0.093,0-0.186,0-0.278
	c0.406,0.152,1.442-0.326,1.395,0.278C95.518,29.046,95.055,29.046,94.588,29.046z"/>
<path fill-rule="evenodd" clip-rule="evenodd" fill="#C0C0C0" d="M80.376,30.719c0-0.093,0-0.186,0-0.278
	c0.404,0.152,1.438-0.326,1.392,0.278C81.304,30.719,80.839,30.719,80.376,30.719z"/>
<path fill-rule="evenodd" clip-rule="evenodd" fill="#797979" d="M83.998,30.997c0-0.093,0-0.186,0-0.278c0.37,0,0.743,0,1.115,0
	c0,0.093,0,0.186,0,0.278C84.741,30.997,84.368,30.997,83.998,30.997z"/>
<path fill-rule="evenodd" clip-rule="evenodd" fill="#C0C0C0" d="M85.113,30.997c0-0.093,0-0.186,0-0.278
	c0.441,0.023,1.063-0.134,1.114,0.278C85.857,30.997,85.484,30.997,85.113,30.997z"/>
<path fill-rule="evenodd" clip-rule="evenodd" fill="#797979" d="M88.179,31.276c0-0.093,0-0.186,0-0.279c0.371,0,0.743,0,1.114,0
	c0,0.093,0,0.186,0,0.279C88.922,31.276,88.55,31.276,88.179,31.276z"/>
<path fill-rule="evenodd" clip-rule="evenodd" fill="#C0C0C0" d="M89.293,31.276c0-0.093,0-0.186,0-0.279
	c0.404,0.152,1.44-0.325,1.395,0.279C90.223,31.276,89.758,31.276,89.293,31.276z"/>
<path fill-rule="evenodd" clip-rule="evenodd" fill="#797979" d="M92.36,31.555c0-0.093,0-0.186,0-0.278c0.465,0,0.928,0,1.392,0
	c0,0.093,0,0.185,0,0.278C93.288,31.555,92.825,31.555,92.36,31.555z"/>
<path fill-rule="evenodd" clip-rule="evenodd" fill="#C0C0C0" d="M93.752,31.555c0-0.093,0-0.186,0-0.278
	c0.441,0.023,1.064-0.134,1.116,0.278C94.496,31.555,94.125,31.555,93.752,31.555z"/>
<path fill-rule="evenodd" clip-rule="evenodd" fill="#191919" d="M74.8,37.408c0,0.372,0,0.743,0,1.115c-0.092,0-0.186,0-0.278,0
	C74.569,38.105,74.422,37.494,74.8,37.408z"/>
<path fill-rule="evenodd" clip-rule="evenodd" fill="#C0C0C0" d="M89.571,37.686c0.419,0.048,1.029-0.099,1.116,0.279
	C90.271,37.917,89.657,38.065,89.571,37.686z"/>
<path fill-rule="evenodd" clip-rule="evenodd" fill="#191919" d="M95.146,38.522c0.441,0.023,1.063-0.134,1.114,0.279
	C95.82,38.778,95.199,38.935,95.146,38.522z"/>
<path fill-rule="evenodd" clip-rule="evenodd" fill="#191919" d="M97.098,38.802c0.417,0.047,1.028-0.1,1.114,0.278
	C97.771,39.057,97.148,39.214,97.098,38.802z"/>
<path fill-rule="evenodd" clip-rule="evenodd" fill="#797979" d="M22.96,57.753c-0.452,0.2-0.452-1.313,0-1.114
	C22.96,57.01,22.96,57.382,22.96,57.753z"/>
<path fill-rule="evenodd" clip-rule="evenodd" fill="#C0C0C0" d="M46.372,71.688c0.372,0,0.743,0,1.115,0
	C47.686,72.142,46.172,72.142,46.372,71.688z"/>
<path fill-rule="evenodd" clip-rule="evenodd" fill="#191919" d="M30.764,2.29c0.346-0.583,0.811-1.047,1.394-1.394
	C31.812,1.479,31.347,1.944,30.764,2.29z"/>
<path fill-rule="evenodd" clip-rule="evenodd" fill="#C0C0C0" d="M29.928,3.405c0.083-0.568,0.754-0.546,0.836-1.115
	c0.583-0.346,1.048-0.811,1.394-1.394c0.093,0,0.187,0,0.279,0C31.717,1.85,30.881,2.686,29.928,3.405z"/>
<path fill-rule="evenodd" clip-rule="evenodd" fill="#797979" d="M27.141,6.192c0.813-1.045,1.742-1.975,2.787-2.787
	C29.116,4.451,28.187,5.38,27.141,6.192z"/>
<path fill-rule="evenodd" clip-rule="evenodd" fill="#343434" d="M24.911,8.422c0.626-0.86,1.369-1.604,2.229-2.23
	C26.515,7.052,25.771,7.795,24.911,8.422z"/>
<path fill-rule="evenodd" clip-rule="evenodd" fill="#191919" d="M22.403,10.93c0.719-0.953,1.555-1.789,2.508-2.508
	c0,0.093,0,0.186,0,0.278C23.907,9.275,23.407,10.355,22.403,10.93z"/>
<path fill-rule="evenodd" clip-rule="evenodd" fill="#C0C0C0" d="M16.55,16.783c2.067-1.834,4.018-3.786,5.853-5.853
	c1.004-0.575,1.504-1.655,2.508-2.23c-3.693,3.925-7.502,7.734-11.427,11.427c0.053-0.226,0.28-0.277,0.279-0.557
	C14.808,18.758,15.737,17.829,16.55,16.783z"/>
<path fill-rule="evenodd" clip-rule="evenodd" fill="#191919" d="M13.763,19.57c0.812-1.046,1.741-1.975,2.787-2.787
	C15.737,17.829,14.808,18.758,13.763,19.57z"/>
<path fill-rule="evenodd" clip-rule="evenodd" fill="#797979" d="M12.369,21.243c0.252-0.491,0.624-0.863,1.115-1.115
	C13.232,20.619,12.86,20.991,12.369,21.243z"/>
<path fill-rule="evenodd" clip-rule="evenodd" fill="#191919" d="M10.418,23.193c0.252-0.492,0.624-0.863,1.115-1.115
	c0,0.093,0,0.186,0,0.278C10.965,22.44,10.986,23.111,10.418,23.193z"/>
<path fill-rule="evenodd" clip-rule="evenodd" fill="#C0C0C0" d="M10.139,23.751c0.053-0.226,0.28-0.278,0.279-0.558
	c0.568-0.082,0.547-0.753,1.115-0.836C11.187,22.94,10.722,23.405,10.139,23.751z"/>
<path fill-rule="evenodd" clip-rule="evenodd" fill="#797979" d="M9.024,24.865c0.252-0.491,0.624-0.863,1.115-1.114
	C9.888,24.242,9.516,24.614,9.024,24.865z"/>
<path fill-rule="evenodd" clip-rule="evenodd" fill="#343434" d="M7.91,25.981c0.252-0.492,0.624-0.864,1.115-1.116
	C8.773,25.357,8.401,25.729,7.91,25.981z"/>
<path fill-rule="evenodd" clip-rule="evenodd" fill="#191919" d="M34.945,82.28c0.251-0.491,0.623-0.863,1.115-1.115
	C35.808,81.657,35.437,82.028,34.945,82.28z"/>
<path fill-rule="evenodd" clip-rule="evenodd" fill="#191919" d="M32.437,69.738c-0.492-0.252-0.863-0.624-1.115-1.114
	C31.813,68.875,32.185,69.247,32.437,69.738z"/>
<path fill-rule="evenodd" clip-rule="evenodd" fill="#C0C0C0" d="M25.19,65c0.386,0.45,0.79,0.882,1.115,1.394
	C25.827,66.035,25.209,65.817,25.19,65z"/>
<path fill-rule="evenodd" clip-rule="evenodd" fill="#343434" d="M26.583,55.245c0.492,0.252,0.863,0.624,1.115,1.115
	C27.207,56.108,26.835,55.737,26.583,55.245z"/>
<path fill-rule="evenodd" clip-rule="evenodd" fill="#797979" d="M32.715,62.213c-1.055-0.632-1.336,1.533-2.788,1.394
	c-0.099-0.366-0.491-0.438-0.557-0.837c0.387-0.913,1.281-1.319,1.951-1.95c0.647,0.188,0.746,0.927,1.394,1.115
	C32.715,62.026,32.715,62.12,32.715,62.213z"/>
<path fill-rule="evenodd" clip-rule="evenodd" fill="#797979" d="M39.404,70.296c0.768,0.532,1.418,1.184,1.951,1.951
	C40.587,71.714,39.937,71.063,39.404,70.296z"/>
<path fill-rule="evenodd" clip-rule="evenodd" fill="#191919" d="M77.309,56.639c0.347-0.583,0.812-1.048,1.395-1.394
	C78.356,55.828,77.892,56.293,77.309,56.639z"/>
<path fill-rule="evenodd" clip-rule="evenodd" fill="#191919" d="M135.56,18.456c0.252-0.491,0.623-0.863,1.113-1.115
	C136.423,17.833,136.05,18.204,135.56,18.456z"/>
<path fill-rule="evenodd" clip-rule="evenodd" fill="#FFFFFF" d="M34.666,0.339c2.397,0.509,4.062,3.538,4.181,6.688
	c0,0.465,0,0.929,0,1.394c0.17,0.667-0.35,2.022,0.278,2.23c0,0.185,0,0.371,0,0.557c0.148,0.224,0.291,0.453,0.279,0.836
	c0.252,0.492,0.624,0.863,1.115,1.115c2.425,1.305,4.703,2.899,7.247,4.459c2.589,1.587,6.515,3.307,9.755,4.738
	c6.03,2.665,12.873,4.675,20.904,5.296c0.086,0.378,0.696,0.231,1.113,0.279c0.187,0,0.373,0,0.557,0
	c0.036,0.616,1.185,0.118,1.673,0.279c0.373,0,0.744,0,1.116,0c0.371,0,0.743,0,1.114,0c0.278,0,0.557,0,0.835,0
	c0.089,0.378,0.699,0.231,1.116,0.279c0.557,0,1.114,0,1.673,0c0.465,0,0.928,0,1.393,0c-0.046,0.604,0.989,0.126,1.395,0.279
	c0.464,0,0.927,0,1.392,0s0.93,0,1.395,0c-0.046,0.604,0.988,0.126,1.393,0.278c0.467,0,0.93,0,1.395,0
	c0.877-0.134,1.09,0.397,1.673,0.558c0.783,0.61,1.675,1.112,1.671,2.508c0,0.743,0,1.486,0,2.229
	c0.23,0.788-0.391,0.722-0.278,1.394c-0.691,1.537-2.082,2.377-3.901,2.787c-1.65-0.022-2.87-0.473-4.459-0.557
	c-0.087-0.378-0.697-0.231-1.116-0.279c-0.185,0-0.371,0-0.557,0c-2.406-0.212-5.411-0.747-8.36-1.114
	c-1.292-0.161-3.188-0.991-3.067,0.557c-0.461,0.48-0.461,2.864,0,3.345c-0.373,3.403,3.422,5.434,3.624,8.639
	c0.141,2.212-0.93,4.174-2.508,5.854c-0.676,0.439-1.234,0.996-1.673,1.672c-1.92,1.763-4.977,3.383-7.525,5.018
	c-0.435,0.278-0.927,0.667-1.394,1.113c-0.284,0.273-1.564,0.686-2.23,1.116c-0.106,0.068-0.187,0.516-0.278,0.557
	c-0.142,0.064-0.429-0.085-0.558,0c-0.104,0.069-0.188,0.518-0.279,0.558c-0.142,0.064-0.429-0.086-0.558,0
	c-0.103,0.068-0.188,0.517-0.278,0.558c-0.142,0.064-0.429-0.085-0.558,0c-0.104,0.069-0.188,0.517-0.278,0.558
	c-0.144,0.064-0.427-0.085-0.558,0c-0.561,0.364-1.061,0.994-1.672,1.394c-0.298,0.194-0.333,0.063-0.558,0.278
	c-0.237,0.228-0.603,0.334-0.836,0.559c-0.25,0.239-1.649,1.027-2.23,1.393c-1.052,0.661-2.355,1.438-3.623,2.229
	c-1.745,1.089-3.998,2.53-6.968,2.509c0.047-0.604-0.988-0.127-1.394-0.279c-1.729-0.222-2.976-0.927-3.902-1.95
	c-0.533-0.768-1.183-1.419-1.951-1.951c-2.239-2.685-4.635-5.213-6.688-8.083c0-0.093,0-0.187,0-0.278
	c-0.648-0.188-0.747-0.927-1.394-1.115c-1.166-1.528-2.457-2.931-3.623-4.459c-0.252-0.491-0.624-0.863-1.115-1.115
	c-1.218-1.07-3.539-0.304-3.623,1.394c-0.452-0.199-0.452,1.314,0,1.114c0.472,2.688,1.363,4.955,2.23,7.247
	c0.019,0.817,0.637,1.035,1.115,1.394c1.685,0.639,3.601,1.044,4.738,2.23c0.346,0.583,0.81,1.047,1.394,1.394
	c0.732,0.376,1.484,1.873,2.229,2.786c0.643,0.788,1.883,2.702,2.23,4.182c0,0.743,0,1.486,0,2.229
	c-0.125,0.712-0.392,1.281-0.836,1.672c-0.583,0.347-1.047,0.811-1.394,1.394c-2.297,1.791-4.499,3.677-7.804,4.459
	c-0.558,0-1.115,0-1.672,0c-1.449-0.037-2.366-0.606-3.066-1.394c-0.346-0.583-0.811-1.047-1.394-1.393
	c-2.276-2.756-4.153-7.221-5.853-10.87c-1.703-3.656-3.204-7.289-5.017-10.592c-0.25-0.959-0.678-1.737-1.115-2.508
	c-1.563-2.804-2.803-5.902-4.46-9.197c-0.973-1.935-2.531-4.124-3.623-6.411c-1.621-3.397,0.04-5.048,1.672-8.64
	c0.939-2.066,1.604-4.348,2.508-5.854c0.067-0.112,0.515-0.183,0.558-0.278c0.064-0.143-0.086-0.429,0-0.558
	c0.069-0.103,0.517-0.188,0.557-0.278c0.39-0.866,1.259-1.999,1.951-2.787c0.492-0.252,0.863-0.624,1.115-1.116
	c0.492-0.251,0.863-0.623,1.115-1.114c0.583-0.346,1.048-0.811,1.394-1.394c0-0.092,0-0.185,0-0.278
	c0.156-0.401,0.435-0.68,0.836-0.836c0.491-0.252,0.863-0.624,1.115-1.115c3.925-3.693,7.734-7.502,11.427-11.427
	c0-0.093,0-0.186,0-0.278c0.86-0.626,1.604-1.37,2.229-2.23c1.046-0.812,1.975-1.741,2.787-2.787
	c0.953-0.719,1.789-1.555,2.509-2.508c0.183-0.374,0.596-0.519,1.115-0.557C33.923,0.339,34.294,0.339,34.666,0.339z M34.387,3.126
	c-0.675-0.657-1.484,0.917-1.951,1.394c-1.231,0.999-2.346,2.113-3.345,3.344c-0.575,1.005-1.654,1.505-2.229,2.509
	c-1.046,0.813-1.975,1.742-2.787,2.788c-1.417,1.184-2.718,2.484-3.902,3.901c-1.603,1.371-3.089,2.857-4.459,4.459
	c-0.583,0.346-1.048,0.811-1.394,1.394c0,0.093,0,0.186,0,0.278c-0.156,0.401-0.435,0.68-0.836,0.836
	c-0.491,0.252-0.863,0.624-1.115,1.115c-0.675,0.439-1.232,0.997-1.672,1.672c-0.082,0.568-0.754,0.546-0.836,1.115
	c-3.149,3.912-5.15,8.972-7.247,13.936c3.084,5.462,5.875,11.22,8.641,17.001c0.237,0.785,0.9,1.144,0.836,2.229
	c0.092,0,0.185,0,0.278,0c3.558,6.94,6.542,14.455,10.312,21.183c0.252,0.491,0.624,0.863,1.115,1.114
	c0.858-0.207,0.536,0.766,1.394,0.559c-0.046,0.456,1.718,0.456,1.672,0c1.427-0.577,2.662-1.492,4.181-2.509
	c1.355-0.907,3.275-1.705,3.344-3.345c0.022-0.532-0.858-1.939-1.115-2.508c-0.042-0.093-0.489-0.173-0.557-0.278
	c-0.185-0.287-0.347-0.803-0.558-1.116c-0.966-1.437-1.956-3.026-2.787-3.623c-0.705-0.506-1.8-0.52-2.508-0.836
	c-0.319-0.143-0.771-0.389-1.115-0.558c-2.735-1.346-3.823-4.383-4.738-7.524c-0.655-2.248-1.51-6.291,0-7.526
	c0.491-0.251,0.863-0.623,1.115-1.113c0.477-0.453,1.014-0.845,1.951-0.837c0.743,0,1.486,0,2.229,0
	c0.985,0.13,1.526,0.703,2.23,1.115c0.252,0.49,0.623,0.862,1.114,1.113c1.15,1.545,2.657,2.733,3.624,4.46c0,0.093,0,0.187,0,0.279
	c0.75-0.192,0.539,0.576,0.836,0.836c0.093,0,0.186,0,0.279,0c0.016,0.17,0.042,0.33,0.279,0.278
	c2.046,2.691,4.404,5.072,6.41,7.804c0.403,0.992,1.129,1.658,1.951,2.23c1.275,0.303,1.796,1.362,3.345,1.393
	c-0.2,0.453,1.314,0.453,1.115,0c1.753-0.235,2.61-1.049,3.623-1.671c0.599-0.369,1.183-0.536,1.672-0.837
	c0.431-0.265,0.752-0.394,1.115-0.557c0.096-0.043,0.166-0.491,0.279-0.559c0.611-0.362,1.399-0.489,1.951-0.836
	c0.461-0.29,0.927-0.816,1.394-1.114c0.604-0.386,1.111-0.749,1.672-1.115c0.619-0.404,1.672-0.848,1.951-1.114
	c0.234-0.225,0.599-0.331,0.836-0.558c0.227-0.218,0.257-0.085,0.558-0.279c4.32-2.797,8.421-5.766,12.82-8.36
	c0.583-0.347,1.048-0.811,1.395-1.394c0.831-1.625,1.831-2.619,1.673-4.182c-0.156-1.518-2.387-3.205-3.067-5.295
	c-0.401-1.236-0.389-2.221-0.558-3.624c0-0.557,0-1.114,0-1.672c0-0.372,0-0.743,0-1.115c0-0.279,0-0.558,0-0.836
	c0.413-0.052,0.257-0.674,0.279-1.115c0.444-2.433,2.296-1.962,4.737-1.672c3.033,0.36,6.602,0.845,8.92,1.115
	c0.827,0.474,2.296,0.307,3.343,0.558c1.367-0.066,2.112,0.491,3.625,0.279c0.694-0.792,1.38-1.592,1.113-3.345
	c-0.669-0.259-0.737-1.12-1.949-0.836c-0.052-0.413-0.675-0.255-1.116-0.278c-0.464,0-0.927,0-1.392,0c-0.373,0-0.745,0-1.116,0
	c-0.187,0-0.371,0-0.557,0c0.046-0.604-0.99-0.127-1.395-0.279c-0.371,0-0.743,0-1.114,0c-0.465,0-0.93,0-1.395,0
	c-0.186,0-0.37,0-0.557,0c-0.052-0.413-0.673-0.255-1.114-0.278c-0.372,0-0.745,0-1.115,0c-0.558,0-1.114,0-1.673,0
	c-0.185,0-0.371,0-0.558,0c0.047-0.604-0.987-0.126-1.392-0.278c-0.743,0-1.487,0-2.23,0c-0.465,0-0.93,0-1.394,0
	c-0.053-0.413-0.674-0.256-1.116-0.28c-1.225,0.016-2.477-0.353-3.622-0.557c-1.346-0.239-2.667-0.27-3.902-0.558
	c-0.689-0.161-1.277-0.637-1.951-0.836c-0.766-0.227-1.471-0.333-2.23-0.558c-7.216-2.13-13.581-5.293-19.231-8.64
	c-2.409-1.427-4.792-2.841-6.689-4.738c-0.093,0-0.186,0-0.278,0c-0.164-0.58-0.586-0.901-0.836-1.394
	c-0.275-0.654-0.489-1.369-0.558-2.229c-0.18-1.214,0.364-3.151-0.279-3.902C36.06,4.984,35.089,4.189,34.387,3.126z"/>
<path fill-rule="evenodd" clip-rule="evenodd" fill="#C0C0C0" d="M39.404,12.045c0.366,0.098,0.438,0.491,0.836,0.558
	c0.053,0.226,0.28,0.277,0.279,0.558C40.028,12.908,39.656,12.537,39.404,12.045z"/>
<path fill-rule="evenodd" clip-rule="evenodd" fill="#C0C0C0" d="M77.03,56.639c0.438-0.676,0.997-1.232,1.673-1.672
	c0,0.093,0,0.185,0,0.278c-0.583,0.346-1.048,0.811-1.395,1.394C77.216,56.639,77.122,56.639,77.03,56.639z"/>
<path fill-rule="evenodd" clip-rule="evenodd" fill="#C0C0C0" d="M31.043,68.624c0.092,0,0.186,0,0.278,0
	c0.252,0.49,0.624,0.862,1.115,1.114c0,0.093,0,0.186,0,0.279C31.853,69.671,31.389,69.207,31.043,68.624z"/>
<path fill-rule="evenodd" clip-rule="evenodd" fill="#C0C0C0" d="M34.666,82.28c0.346-0.583,0.811-1.047,1.394-1.394
	c0,0.093,0,0.187,0,0.278c-0.492,0.252-0.863,0.624-1.115,1.115C34.852,82.28,34.759,82.28,34.666,82.28z"/>
<path fill-rule="evenodd" clip-rule="evenodd" fill="#C0C0C0" d="M22.124,85.346c-0.583-0.345-1.048-0.81-1.394-1.393
	C21.313,84.299,21.778,84.763,22.124,85.346z"/>
<path fill-rule="evenodd" clip-rule="evenodd" fill="#797979" d="M32.437,4.52c0.467-0.476,1.275-2.05,1.951-1.394
	C33.31,3.164,33.288,4.257,32.437,4.52z"/>
<path fill-rule="evenodd" clip-rule="evenodd" fill="#C0C0C0" d="M29.091,7.864c0.999-1.231,2.114-2.345,3.345-3.344
	c-0.099,0.366-0.491,0.438-0.558,0.835c-0.953,0.72-1.789,1.556-2.508,2.508C29.278,7.864,29.185,7.864,29.091,7.864z"/>
<path fill-rule="evenodd" clip-rule="evenodd" fill="#343434" d="M26.862,10.373c0.575-1.004,1.654-1.504,2.229-2.509
	c0.093,0,0.187,0,0.279,0C28.651,8.817,27.815,9.653,26.862,10.373z"/>
<path fill-rule="evenodd" clip-rule="evenodd" fill="#797979" d="M24.075,13.16c0.812-1.046,1.741-1.975,2.787-2.788
	C26.05,11.418,25.121,12.347,24.075,13.16z"/>
<path fill-rule="evenodd" clip-rule="evenodd" fill="#C0C0C0" d="M20.173,17.062c1.185-1.417,2.485-2.718,3.902-3.901
	C22.891,14.577,21.59,15.877,20.173,17.062z"/>
<path fill-rule="evenodd" clip-rule="evenodd" fill="#797979" d="M15.714,21.521c1.37-1.603,2.856-3.089,4.459-4.459
	C18.803,18.665,17.316,20.151,15.714,21.521z"/>
<path fill-rule="evenodd" clip-rule="evenodd" fill="#C0C0C0" d="M14.32,22.915c0.346-0.583,0.811-1.048,1.394-1.394
	c-0.053,0.226-0.28,0.278-0.279,0.558C14.866,22.16,14.888,22.833,14.32,22.915z"/>
<path fill-rule="evenodd" clip-rule="evenodd" fill="#797979" d="M12.369,25.145c0.252-0.492,0.624-0.863,1.115-1.115
	C13.232,24.521,12.86,24.893,12.369,25.145z"/>
<path fill-rule="evenodd" clip-rule="evenodd" fill="#C0C0C0" d="M10.697,26.817c0.44-0.675,0.997-1.233,1.672-1.672
	c0.001,0.28-0.226,0.332-0.278,0.557c-0.492,0.252-0.864,0.624-1.115,1.115C10.882,26.817,10.79,26.817,10.697,26.817z"/>
<path fill-rule="evenodd" clip-rule="evenodd" fill="#343434" d="M9.861,27.932c0.082-0.568,0.754-0.546,0.836-1.115
	c0.093,0,0.186,0,0.279,0C10.724,27.308,10.352,27.68,9.861,27.932z"/>
<path fill-rule="evenodd" clip-rule="evenodd" fill="#797979" d="M22.681,82.28c0.492,0.252,0.863,0.624,1.115,1.114
	C23.305,83.144,22.933,82.771,22.681,82.28z"/>
<path fill-rule="evenodd" clip-rule="evenodd" fill="#797979" d="M21.009,54.13c0.251-0.49,0.623-0.862,1.115-1.113
	C21.872,53.507,21.5,53.879,21.009,54.13z"/>
<path fill-rule="evenodd" clip-rule="evenodd" fill="#343434" d="M28.535,53.295c0.491,0.251,0.863,0.623,1.114,1.113
	C29.158,54.157,28.787,53.785,28.535,53.295z"/>
<path fill-rule="evenodd" clip-rule="evenodd" fill="#C0C0C0" d="M41.076,68.065c0.717,0.678,1.317,1.471,1.951,2.23
	C42.205,69.724,41.479,69.058,41.076,68.065z"/>
<path fill-rule="evenodd" clip-rule="evenodd" fill="#797979" d="M75.357,54.688c0.347-0.583,0.812-1.048,1.395-1.394
	C76.405,53.878,75.94,54.342,75.357,54.688z"/>
<path fill-rule="evenodd" clip-rule="evenodd" fill="#797979" d="M89.852,32.949c0-0.279,0-0.558,0-0.836
	c0.323,0.234,0.747,0.368,1.393,0.278c0,0.279,0,0.558,0,0.836c-0.379,0.087-0.23,0.698-0.278,1.115
	c-0.519,1.262,1.002,0.485,1.113,1.115c-1.047-0.251-2.516-0.083-3.343-0.558c0.725,0.167,1.003-0.112,0.835-0.836
	C89.95,33.977,89.804,33.365,89.852,32.949z"/>
<path fill-rule="evenodd" clip-rule="evenodd" fill="#343434" d="M34.387,59.983c0.568-0.082,0.546-0.755,1.115-0.836
	c-0.082,0.568-0.754,0.546-0.836,1.114C34.429,60.313,34.403,60.153,34.387,59.983z"/>
<path fill-rule="evenodd" clip-rule="evenodd" fill="#191919" d="M36.06,57.753c0.351,0.114,0.57,0.36,0.557,0.837
	c-0.279-0.001-0.332,0.226-0.557,0.278C36.382,58.456,36.382,58.166,36.06,57.753z"/>
<path fill-rule="evenodd" clip-rule="evenodd" fill="#797979" d="M33.272,58.868c1.157-0.01,2.055-2.438,2.787-1.115
	c0.323,0.413,0.323,0.703,0,1.115c-0.28,0-0.332,0.227-0.557,0.279c-0.569,0.081-0.547,0.754-1.115,0.836c-0.093,0-0.186,0-0.279,0
	c-0.297-0.26-0.086-1.028-0.836-0.836C33.272,59.055,33.272,58.961,33.272,58.868z"/>
<path fill-rule="evenodd" clip-rule="evenodd" fill="#191919" d="M10.976,26.817c0.251-0.492,0.623-0.863,1.115-1.115
	C11.839,26.193,11.467,26.565,10.976,26.817z"/>
<path fill-rule="evenodd" clip-rule="evenodd" fill="#191919" d="M14.32,22.915c0.568-0.083,0.546-0.755,1.114-0.836
	c-0.251,0.491-0.623,0.863-1.114,1.115C14.32,23.101,14.32,23.008,14.32,22.915z"/>
<path fill-rule="evenodd" clip-rule="evenodd" fill="#191919" d="M29.371,7.864c0.719-0.953,1.555-1.789,2.508-2.508
	C31.16,6.309,30.324,7.145,29.371,7.864z"/>
<path fill-rule="evenodd" clip-rule="evenodd" fill="#191919" d="M131.936,17.062c0.236-0.414,0.897-0.403,1.395-0.557
	c-0.272,0.376-0.744,0.556-1.114,0.836C132.266,17.104,132.105,17.078,131.936,17.062z"/>
<path fill-rule="evenodd" clip-rule="evenodd" fill="#343434" d="M33.551,0.339c-0.2-0.453,1.314-0.453,1.115,0
	C34.294,0.339,33.923,0.339,33.551,0.339z"/>
<path fill-rule="evenodd" clip-rule="evenodd" fill="#343434" d="M36.06,6.75c0.643,0.751,0.099,2.688,0.279,3.902
	C35.696,9.9,36.24,7.963,36.06,6.75z"/>
<path fill-rule="evenodd" clip-rule="evenodd" fill="#343434" d="M39.125,8.422c0,0.743,0,1.487,0,2.23
	c-0.628-0.208-0.108-1.563-0.278-2.23C38.94,8.422,39.032,8.422,39.125,8.422z"/>
<path fill-rule="evenodd" clip-rule="evenodd" fill="#797979" d="M39.125,11.209c0.968-0.24,1.547-0.869,2.23-1.394
	c0.643-0.086,0.31,0.805,0.836,0.836c-0.06,1.24-1.455,1.146-1.951,1.951c-0.398-0.066-0.47-0.459-0.836-0.558
	C39.416,11.662,39.273,11.433,39.125,11.209z"/>
<path fill-rule="evenodd" clip-rule="evenodd" fill="#343434" d="M78.425,27.653c0.44,0.023,1.062-0.134,1.113,0.279
	C79.121,27.884,78.511,28.031,78.425,27.653z"/>
<path fill-rule="evenodd" clip-rule="evenodd" fill="#343434" d="M75.636,30.161c0.442,0.024,1.063-0.133,1.116,0.28
	C76.335,30.392,75.724,30.54,75.636,30.161z"/>
<path fill-rule="evenodd" clip-rule="evenodd" fill="#797979" d="M78.146,30.44c0.743,0,1.487,0,2.23,0c0,0.093,0,0.185,0,0.278
	C79.709,30.549,78.353,31.069,78.146,30.44z"/>
<path fill-rule="evenodd" clip-rule="evenodd" fill="#343434" d="M82.325,30.719c0.559,0,1.115,0,1.673,0c0,0.093,0,0.186,0,0.278
	C83.507,30.837,82.361,31.334,82.325,30.719z"/>
<path fill-rule="evenodd" clip-rule="evenodd" fill="#343434" d="M86.784,30.997c0.465,0,0.93,0,1.395,0c0,0.093,0,0.186,0,0.279
	C87.774,31.124,86.738,31.602,86.784,30.997z"/>
<path fill-rule="evenodd" clip-rule="evenodd" fill="#343434" d="M91.244,31.276c0.371,0,0.743,0,1.116,0c0,0.093,0,0.185,0,0.278
	C91.941,31.507,91.33,31.654,91.244,31.276z"/>
<path fill-rule="evenodd" clip-rule="evenodd" fill="#343434" d="M89.852,32.949c-0.048,0.417,0.099,1.028-0.28,1.114
	C89.619,33.646,89.473,33.035,89.852,32.949z"/>
<path fill-rule="evenodd" clip-rule="evenodd" fill="#343434" d="M90.966,34.342c0.048-0.417-0.101-1.028,0.278-1.115
	C91.196,33.644,91.345,34.256,90.966,34.342z"/>
<path fill-rule="evenodd" clip-rule="evenodd" fill="#797979" d="M75.079,35.457c-0.022,0.441,0.134,1.063-0.279,1.115
	C74.849,36.155,74.7,35.543,75.079,35.457z"/>
<path fill-rule="evenodd" clip-rule="evenodd" fill="#343434" d="M89.015,38.802c-0.152,0.404,0.326,1.44-0.278,1.393
	C88.888,39.79,88.409,38.754,89.015,38.802z"/>
<path fill-rule="evenodd" clip-rule="evenodd" fill="#343434" d="M74.8,38.522c0,0.558,0,1.115,0,1.672
	c-0.614-0.034-0.118-1.182-0.278-1.672C74.614,38.522,74.708,38.522,74.8,38.522z"/>
<path fill-rule="evenodd" clip-rule="evenodd" fill="#343434" d="M90.409,39.358c0.454,1.127-0.844,1.916-1.395,1.116
	C90.351,40.974,89.912,39.7,90.409,39.358z"/>
<path fill-rule="evenodd" clip-rule="evenodd" fill="#797979" d="M24.075,52.18c0.124-0.461,2.106-0.461,2.229,0
	C25.562,52.18,24.818,52.18,24.075,52.18z"/>
<path fill-rule="evenodd" clip-rule="evenodd" fill="#797979" d="M9.861,62.491C8.604,63,7.207,63.369,6.238,64.164
	c-0.533-0.583-0.899-1.331-1.115-2.229c1.342-0.516,2.744-0.973,3.624-1.951C9.183,60.754,9.611,61.532,9.861,62.491z"/>
<path fill-rule="evenodd" clip-rule="evenodd" fill="#797979" d="M36.896,79.215c0-0.743,0-1.486,0-2.229
	C37.356,77.108,37.356,79.091,36.896,79.215z"/>
<path fill-rule="evenodd" clip-rule="evenodd" fill="#797979" d="M25.19,83.953c0.558,0,1.115,0,1.672,0
	C26.908,84.409,25.144,84.409,25.19,83.953z"/>
<path fill-rule="evenodd" clip-rule="evenodd" fill="#343434" d="M90.409,27.653c5.12-0.354,10.169-2.231,14.771-3.902
	c1.733-0.629,3.466-1.283,5.295-1.951c2.214-0.808,4.646-1.613,6.968-2.508c0.373-0.144,0.752-0.424,1.116-0.558
	c1.719-0.626,3.544-0.933,5.573-1.672c0.145-0.052,0.453-0.526,0.558-0.557c1.538-0.465,3.175-1.094,4.737-1.673
	c2.809-1.039,7.112-2.734,7.527,0.836c0.062,0.548,0.063,1.121-0.281,1.672c-0.49,0.251-0.861,0.624-1.113,1.115
	c-4.994,3.123-10.292,6.734-15.887,10.313c-0.331,0.211-0.781,0.344-1.114,0.557c-0.362,0.232-0.519,0.634-0.838,0.836
	c-0.719,0.461-1.555,0.672-2.229,1.116c-0.318,0.21-0.473,0.593-0.835,0.836c-0.587,0.393-1.497,0.643-2.23,1.115
	c-0.105,0.068-0.186,0.516-0.278,0.558c-1.366,0.616-3.007,1.862-4.459,2.787c-0.301,0.191-0.802,0.348-1.114,0.557
	c-0.901,0.604-2.27,1.956-3.902,2.229c-1.733,0.292-2.995-0.209-4.46-0.278c-0.086-0.378-0.697-0.231-1.114-0.278
	c-0.28,0-0.559,0-0.837,0c-0.052-0.414-0.673-0.256-1.114-0.279c1.819-0.409,3.21-1.25,3.901-2.787
	c0.557,1.81,4.257,0.316,5.297-0.279c0.294-0.169,0.501-0.612,0.835-0.836c1.227-0.822,2.845-1.614,4.182-2.508
	c0.604-0.405,1.102-0.863,1.951-1.394c0.923-0.579,2.051-1.283,3.065-1.951c0.378-0.25,0.799-0.354,1.113-0.558
	c0.106-0.068,0.188-0.516,0.28-0.558c2.721-1.227,5.647-3.554,8.36-5.296c2.813-1.805,5.462-3.546,8.084-5.016
	c0.37-0.28,0.842-0.46,1.114-0.836c-0.497,0.153-1.158,0.143-1.395,0.557c-9.025,3.337-18.131,6.641-27.313,10.034
	c-0.425,0.158-0.68,0.108-1.116,0.279c-0.258,0.102-0.657,0.497-0.835,0.558c-1.611,0.556-3.801,0.699-5.017,1.672
	c-0.583-0.161-0.796-0.691-1.673-0.558c0.048-0.604-0.988-0.126-1.395-0.278c-0.463,0-0.928,0-1.393,0s-0.93,0-1.395,0
	c0.049-0.604-0.987-0.127-1.392-0.279c-0.465,0-0.93,0-1.395,0s-0.928,0-1.393,0c-0.008-0.271-0.343-0.217-0.559-0.279
	c0-0.093,0-0.186,0-0.279c0.65,0,1.302,0,1.951,0C89.419,27.779,90.455,28.257,90.409,27.653z"/>
<path fill-rule="evenodd" clip-rule="evenodd" fill="#343434" d="M99.326,32.112c0.461,0.124,0.461,2.106,0,2.229
	C99.326,33.599,99.326,32.855,99.326,32.112z"/>
<path fill-rule="evenodd" clip-rule="evenodd" fill="#343434" d="M25.19,86.739c0.558,0,1.115,0,1.672,0
	C26.908,87.197,25.144,87.197,25.19,86.739z"/>
<path fill-rule="evenodd" clip-rule="evenodd" fill="#797979" d="M37.732,14.275c-0.928,0.17-2.21,2.063-2.788,0.836
	c-0.787-1.208,1.204-1.666,1.951-2.23C37.146,13.374,37.568,13.695,37.732,14.275z"/>
<path fill-rule="evenodd" clip-rule="evenodd" fill="#343434" d="M77.587,37.129c0,1.115,0,2.229,0,3.345
	C77.126,39.993,77.126,37.609,77.587,37.129z"/>
<path fill-rule="evenodd" clip-rule="evenodd" fill="#797979" d="M89.015,37.686c0.186,0,0.372,0,0.557,0
	c0.086,0.379,0.699,0.231,1.116,0.279c0.114,0.671-0.509,0.606-0.278,1.393c-0.497,0.341-0.059,1.616-1.395,1.116
	c-0.236,0.05-0.263-0.109-0.278-0.28c0.604,0.047,0.126-0.988,0.278-1.393C89.015,38.429,89.015,38.058,89.015,37.686z"/>
<path fill-rule="evenodd" clip-rule="evenodd" fill="#797979" d="M11.254,58.868c1.753,0.016,2.88-1.862,4.18-1.394
	c-0.072,0.816,0.63,0.856,0.558,1.673c-1.017,0.84-2.45,1.267-3.623,1.95c-0.093,0-0.186,0-0.278,0
	C12.155,60.012,11.492,59.653,11.254,58.868z"/>
<path fill-rule="evenodd" clip-rule="evenodd" fill="#797979" d="M45.257,74.197c0.405,0.152,1.44-0.325,1.394,0.279
	C46.246,74.324,45.21,74.802,45.257,74.197z"/>
</svg>
