<?xml version="1.0" encoding="utf-8"?>
<!-- Generator: Adobe Illustrator 15.0.0, SVG Export Plug-In  -->
<!DOCTYPE svg PUBLIC "-//W3C//DTD SVG 1.1//EN" "http://www.w3.org/Graphics/SVG/1.1/DTD/svg11.dtd" [
	<!ENTITY ns_flows "http://ns.adobe.com/Flows/1.0/">
]>
<svg version="1.1"
	 xmlns="http://www.w3.org/2000/svg" xmlns:xlink="http://www.w3.org/1999/xlink" xmlns:a="http://ns.adobe.com/AdobeSVGViewerExtensions/3.0/"
	 x="0px" y="0px" width="142px" height="142px" viewBox="-2.786 -27.374 142 142" enable-background="new -2.786 -27.374 142 142"
	 xml:space="preserve">
<defs>
</defs>
<path fill-rule="evenodd" clip-rule="evenodd" fill="#0D0D0D" d="M33.725,0.342c-0.126-0.456,1.52-0.456,1.394,0
	C34.654,0.342,34.19,0.342,33.725,0.342z"/>
<path fill-rule="evenodd" clip-rule="evenodd" fill="#202020" d="M36.233,6.752c0.638,0.477,0.103,2.127,0.279,3.066
	c-0.093,0-0.186,0-0.279,0C36.233,8.795,36.233,7.774,36.233,6.752z"/>
<path fill-rule="evenodd" clip-rule="evenodd" fill="#0D0D0D" d="M39.021,6.752c0.64,0.568,0.101,2.314,0.278,3.344
	C38.659,9.528,39.198,7.782,39.021,6.752z"/>
<path fill-rule="evenodd" clip-rule="evenodd" fill="#0D0D0D" d="M36.233,9.818c0.093,0,0.186,0,0.279,0c0,0.372,0,0.743,0,1.115
	C36.1,10.881,36.257,10.259,36.233,9.818z"/>
<path fill-rule="evenodd" clip-rule="evenodd" fill="#0D0D0D" d="M80.269,27.934c-0.404-0.153-1.44,0.326-1.392-0.279
	C79.281,27.808,80.317,27.33,80.269,27.934z"/>
<path fill-rule="evenodd" clip-rule="evenodd" fill="#0D0D0D" d="M75.531,30.163c0.416,0.048,1.029-0.1,1.115,0.28
	C76.23,30.395,75.617,30.542,75.531,30.163z"/>
<path fill-rule="evenodd" clip-rule="evenodd" fill="#0D0D0D" d="M77.204,33.508c-0.2-0.452,1.313-0.452,1.115,0
	C77.947,33.508,77.576,33.508,77.204,33.508z"/>
<path fill-rule="evenodd" clip-rule="evenodd" fill="#0D0D0D" d="M74.974,37.131c0,1.115,0,2.229,0,3.345
	C74.511,39.995,74.511,37.612,74.974,37.131z"/>
<path fill-rule="evenodd" clip-rule="evenodd" fill="#0D0D0D" d="M24.806,54.969c-0.199-0.452,1.314-0.452,1.115,0
	C25.549,54.969,25.178,54.969,24.806,54.969z"/>
<path fill-rule="evenodd" clip-rule="evenodd" fill="#0D0D0D" d="M20.347,56.363c0,0.464,0,0.928,0,1.393
	C19.892,57.882,19.892,56.237,20.347,56.363z"/>
<path fill-rule="evenodd" clip-rule="evenodd" fill="#202020" d="M23.134,56.363c0,0.464,0,0.928,0,1.393
	C22.679,57.882,22.679,56.237,23.134,56.363z"/>
<path fill-rule="evenodd" clip-rule="evenodd" fill="#0D0D0D" d="M34.282,77.544c0.452-0.199,0.452,1.314,0,1.115
	C34.282,78.289,34.282,77.916,34.282,77.544z"/>
<path fill-rule="evenodd" clip-rule="evenodd" fill="#0D0D0D" d="M25.085,86.742c0.65,0,1.3,0,1.951,0
	C26.998,87.201,25.123,87.201,25.085,86.742z"/>
<path fill-rule="evenodd" clip-rule="evenodd" fill="#0D0D0D" d="M30.381,2.85c0.532-0.768,1.183-1.418,1.95-1.951
	C31.799,1.667,31.148,2.317,30.381,2.85z"/>
<path fill-rule="evenodd" clip-rule="evenodd" fill="#202020" d="M26.757,6.752c1.092-1.324,2.3-2.532,3.624-3.623
	C29.29,4.453,28.082,5.661,26.757,6.752z"/>
<path fill-rule="evenodd" clip-rule="evenodd" fill="#0D0D0D" d="M22.019,11.49c1.463-1.696,3.042-3.275,4.738-4.738
	C25.294,8.447,23.715,10.027,22.019,11.49z"/>
<path fill-rule="evenodd" clip-rule="evenodd" fill="#0D0D0D" d="M13.658,19.851c1.556-1.788,3.228-3.46,5.017-5.017
	C17.119,16.624,15.446,18.295,13.658,19.851z"/>
<path fill-rule="evenodd" clip-rule="evenodd" fill="#202020" d="M12.265,21.523c0.345-0.583,0.81-1.047,1.393-1.394
	C13.312,20.713,12.848,21.178,12.265,21.523z"/>
<path fill-rule="evenodd" clip-rule="evenodd" fill="#0D0D0D" d="M10.313,23.475c0.534-0.768,1.184-1.418,1.952-1.952
	c-0.385,0.823-1.288,1.128-1.673,1.952C10.499,23.475,10.406,23.475,10.313,23.475z"/>
<path fill-rule="evenodd" clip-rule="evenodd" fill="#202020" d="M8.641,25.426c0.385-0.822,1.287-1.128,1.672-1.951
	c0.093,0,0.186,0,0.279,0C10.059,24.242,9.409,24.893,8.641,25.426z"/>
<path fill-rule="evenodd" clip-rule="evenodd" fill="#0D0D0D" d="M7.526,26.541c0.252-0.491,0.624-0.863,1.115-1.115
	C8.389,25.917,8.017,26.289,7.526,26.541z"/>
<path fill-rule="evenodd" clip-rule="evenodd" fill="#0D0D0D" d="M20.904,84.234c0.583,0.346,1.048,0.811,1.394,1.394
	C21.715,85.282,21.25,84.817,20.904,84.234z"/>
<path fill-rule="evenodd" clip-rule="evenodd" fill="#0D0D0D" d="M35.119,82.283c0.251-0.491,0.623-0.863,1.115-1.115
	C35.981,81.66,35.61,82.031,35.119,82.283z"/>
<path fill-rule="evenodd" clip-rule="evenodd" fill="#0D0D0D" d="M31.495,68.626c0.583,0.346,1.047,0.811,1.394,1.394
	C32.306,69.673,31.841,69.209,31.495,68.626z"/>
<path fill-rule="evenodd" clip-rule="evenodd" fill="#0D0D0D" d="M25.364,65.002c0.583,0.346,1.047,0.811,1.393,1.394
	C26.174,66.049,25.71,65.586,25.364,65.002z"/>
<path fill-rule="evenodd" clip-rule="evenodd" fill="#202020" d="M27.593,56.083c0.83,0.378,1.157,1.259,1.672,1.952
	C28.46,57.632,28.19,56.695,27.593,56.083z"/>
<path fill-rule="evenodd" clip-rule="evenodd" fill="#0D0D0D" d="M77.482,56.641c0.347-0.583,0.812-1.048,1.395-1.394
	C78.53,55.831,78.065,56.295,77.482,56.641z"/>
<path fill-rule="evenodd" clip-rule="evenodd" fill="#323232" d="M97.271,26.541c1.093-0.582,3.486-1.023,5.296-1.673
	c0.751-0.269,1.432-0.832,2.229-1.114c0.741-0.263,1.713-0.268,2.508-0.558c0.762-0.277,1.465-0.832,2.23-1.115
	c0.398-0.148,1.014-0.132,1.392-0.279c0.187-0.072,0.684-0.5,0.838-0.557c1.479-0.546,3.173-0.823,4.738-1.394
	c0.715-0.26,1.4-0.807,2.229-1.115c0.459-0.17,0.863-0.073,1.393-0.278c0.187-0.072,0.683-0.501,0.837-0.558
	c1.451-0.535,3.17-0.807,4.738-1.393c0.722-0.271,1.477-0.833,2.229-1.115c1.23-0.46,2.16-0.548,3.622-1.115
	c0.735-0.285,2.915-1.506,4.182-0.558c0.252,0.492,0.623,0.863,1.113,1.115c1.493,2.828-2.245,4.435-4.457,5.853
	c-0.705,0.452-1.418,0.872-2.229,1.394c-0.337,0.215-0.854,0.386-1.116,0.558c-0.731,0.48-1.286,1.244-1.951,1.672
	c-0.469,0.304-1.012,0.31-1.393,0.557c-0.316,0.206-0.463,0.591-0.837,0.836c-0.371,0.245-0.97,0.281-1.393,0.558
	c-0.349,0.229-0.495,0.617-0.836,0.836c-0.665,0.426-1.546,0.676-2.229,1.115c-0.72,0.46-1.19,1.161-1.951,1.672
	c-0.351,0.235-0.974,0.282-1.395,0.558c-0.293,0.192-0.533,0.638-0.836,0.836c-1.127,0.731-2.123,1.132-3.345,1.951
	c-0.359,0.24-0.518,0.63-0.836,0.836c-0.413,0.268-0.907,0.257-1.395,0.558c-0.276,0.171-0.517,0.633-0.835,0.836
	c-0.353,0.224-1.046,0.329-1.395,0.557c-0.398,0.262-0.461,0.586-0.836,0.836c-2.592,1.729-3.413,2.715-7.246,2.508
	c-0.803-0.043-3.684-0.704-3.902-0.557c-0.192,0.128,0.356,1.831-0.278,1.672c-0.196-1.22,0.146-1.899,0.835-2.23
	c1.104-0.384,1.724-1.252,2.23-2.23c1.975,1.25,4.649,0.027,6.132-1.394c0.269-0.256,1.603-0.983,2.229-1.394
	c0.357-0.233,0.813-0.364,1.114-0.558c0.106-0.068,0.187-0.516,0.28-0.557c0.768-0.346,1.575-0.796,2.509-1.394
	c0.318-0.204,0.841-0.383,1.113-0.558c0.106-0.068,0.187-0.516,0.279-0.557c1.292-0.582,2.76-1.589,4.181-2.509
	c5.607-3.631,10.438-6.977,15.33-9.754c-1.214-0.128-2.458,0.601-3.902,1.115c-0.623,0.221-1.236,0.582-1.951,0.836
	c-0.64,0.227-1.545,0.301-2.23,0.557c-1.282,0.479-2.561,1.189-3.9,1.672c-1.37,0.494-2.776,0.894-4.182,1.394
	c-2.226,0.79-5.15,1.986-8.083,3.066c-0.695,0.256-1.553,0.316-2.23,0.557c-1.151,0.41-2.682,1.173-3.9,1.672
	c-0.343,0.14-1.521-0.011-1.673,0.558c-0.078,0.291,0.036,0.522-0.278,0.557c0.168-1.469-0.393-2.208-1.395-2.508
	C98.712,26.214,97.677,26.693,97.271,26.541z"/>
<path fill-rule="evenodd" clip-rule="evenodd" fill="#202020" d="M135.733,13.72c0.49,0.251,0.863,0.623,1.113,1.115
	C136.356,14.583,135.985,14.211,135.733,13.72z"/>
<path fill-rule="evenodd" clip-rule="evenodd" fill="#0D0D0D" d="M93.369,27.376c0.12-0.438,0.876-0.238,0.557-1.115
	c0.379,0.086,0.232,0.698,0.279,1.115c-0.187,0-0.371,0-0.558,0C93.556,27.376,93.462,27.376,93.369,27.376z"/>
<path fill-rule="evenodd" clip-rule="evenodd" fill="#0D0D0D" d="M35.955,0.62c0.583,0.346,1.047,0.811,1.394,1.394
	C36.765,1.668,36.301,1.203,35.955,0.62z"/>
<path fill-rule="evenodd" clip-rule="evenodd" fill="#202020" d="M32.331,4.801c0.385-0.822,1.287-1.128,1.673-1.951
	c0.697-0.047,0.873,0.428,1.115,0.836C33.984,2.321,33.321,4.38,32.331,4.801z"/>
<path fill-rule="evenodd" clip-rule="evenodd" fill="#0D0D0D" d="M28.708,8.703c1.091-1.324,2.298-2.532,3.623-3.623
	C31.24,6.404,30.033,7.611,28.708,8.703z"/>
<path fill-rule="evenodd" clip-rule="evenodd" fill="#202020" d="M22.577,14.834c1.463-1.696,3.042-3.275,4.738-4.738
	C25.852,11.792,24.272,13.372,22.577,14.834z"/>
<path fill-rule="evenodd" clip-rule="evenodd" fill="#202020" d="M15.608,21.802c1.556-1.788,3.229-3.46,5.017-5.017
	C19.069,18.574,17.397,20.247,15.608,21.802z"/>
<path fill-rule="evenodd" clip-rule="evenodd" fill="#0D0D0D" d="M13.937,23.753c0.439-0.675,0.997-1.232,1.672-1.672
	C15.169,22.756,14.611,23.313,13.937,23.753z"/>
<path fill-rule="evenodd" clip-rule="evenodd" fill="#202020" d="M12.543,25.147c0.346-0.583,0.811-1.047,1.394-1.394
	C13.591,24.336,13.126,24.801,12.543,25.147z"/>
<path fill-rule="evenodd" clip-rule="evenodd" fill="#0D0D0D" d="M10.313,27.655c0.534-0.768,1.184-1.418,1.952-1.951
	C11.731,26.472,11.081,27.122,10.313,27.655z"/>
<path fill-rule="evenodd" clip-rule="evenodd" fill="#202020" d="M22.577,81.725c0.626,0.675,1.276,1.324,1.951,1.952
	C23.581,83.322,22.931,82.672,22.577,81.725z"/>
<path fill-rule="evenodd" clip-rule="evenodd" fill="#202020" d="M21.183,54.132c0.251-0.49,0.623-0.862,1.115-1.113
	C22.046,53.509,21.674,53.881,21.183,54.132z"/>
<path fill-rule="evenodd" clip-rule="evenodd" fill="#0D0D0D" d="M29.544,54.132c0.492,0.253,0.863,0.624,1.115,1.115
	C30.168,54.996,29.796,54.625,29.544,54.132z"/>
<path fill-rule="evenodd" clip-rule="evenodd" fill="#0D0D0D" d="M41.529,68.348c0.768,0.531,1.418,1.183,1.951,1.95
	C42.712,69.765,42.062,69.115,41.529,68.348z"/>
<path fill-rule="evenodd" clip-rule="evenodd" fill="#202020" d="M74.974,54.969c0.535-0.673,1.309-1.107,1.952-1.672
	C76.471,54.049,75.836,54.624,74.974,54.969z"/>
<path fill-rule="evenodd" clip-rule="evenodd" fill="#7B7B7B" d="M94.483,38.247c0.789,0.343,1.721,0.343,2.508,0
	c-0.688,0.331-1.031,1.01-0.835,2.23c0,0.278,0,0.557,0,0.835c-0.465,0-0.928,0-1.395,0c0-0.464,0-0.929,0-1.394
	c0.457,0.126,0.457-1.519,0-1.394c-0.092,0-0.185,0-0.278,0C94.483,38.432,94.483,38.339,94.483,38.247z"/>
<path fill-rule="evenodd" clip-rule="evenodd" fill="#323232" d="M90.304,26.819c0,0.278,0,0.557,0,0.836
	c1.15,0.035,1.745-0.484,3.065-0.279c0.093,0,0.187,0,0.278,0c-1.273,0.406-2.279,1.908-3.902,1.115
	C90.296,28.298,89.677,26.937,90.304,26.819z"/>
<path fill-rule="evenodd" clip-rule="evenodd" fill="#202020" d="M87.518,33.508c-0.688,0.433-0.821-0.947-0.28-0.836
	C87.159,33.123,87.501,33.152,87.518,33.508z"/>
<path fill-rule="evenodd" clip-rule="evenodd" fill="#7B7B7B" d="M93.926,26.262c-0.134-0.635-0.553-1.424,0-1.951
	c0.373,0,0.744,0,1.116,0c0.07,0.952,0.703,1.338,0.557,2.508c0.279,0,0.558,0,0.836,0c-0.383,0.546-1.707,0.15-2.229,0.557
	C94.158,26.96,94.305,26.348,93.926,26.262z"/>
<path fill-rule="evenodd" clip-rule="evenodd" fill="#202020" d="M88.91,26.262c-0.239-0.568,0.438-1.536,0.557-0.836
	C89.066,25.489,89.37,26.258,88.91,26.262z"/>
<path fill-rule="evenodd" clip-rule="evenodd" fill="#7B7B7B" d="M89.467,25.426c0.583-0.118,0.739,0.191,1.116,0.278
	c0.118,0.583-0.192,0.738-0.279,1.115c-0.627,0.117-0.008,1.479-0.559,1.672c-0.831-0.561-2.629-0.158-3.9-0.279
	c0-0.093,0-0.186,0-0.279c0.835,0,1.673,0,2.508,0c0.461-0.282,0.303-1.184,0.558-1.672C89.37,26.258,89.066,25.489,89.467,25.426z"
	/>
<path fill-rule="evenodd" clip-rule="evenodd" fill="#202020" d="M75.531,27.376c0.577,0.166,1.831-0.344,1.951,0.279
	C76.905,27.489,75.651,28,75.531,27.376z"/>
<path fill-rule="evenodd" clip-rule="evenodd" fill="#202020" d="M81.663,27.934c1.395,0,2.787,0,4.182,0c0,0.093,0,0.186,0,0.279
	c-0.187,0-0.373,0-0.558,0C84.166,28.034,82.322,28.575,81.663,27.934z"/>
<path fill-rule="evenodd" clip-rule="evenodd" fill="#FDFDFD" d="M100.059,29.327c0.194,1.218-0.475,1.57-0.278,2.788
	c-0.605-0.047-0.126,0.989-0.28,1.394c0.192,1.121-0.267,1.591-0.278,2.508c-0.507,0.978-1.126,1.846-2.23,2.23
	c-0.787,0.343-1.719,0.343-2.508,0c-0.465,0-0.928,0-1.393,0c-0.187,0-0.373,0-0.557,0c0.046-0.604-0.99-0.127-1.395-0.279
	c-0.827-0.475-2.294-0.307-3.344-0.558c-0.465,0-0.93,0-1.395,0c-0.086-0.378-0.697-0.231-1.114-0.279
	c-0.705-0.504-1.82-0.594-1.951-1.672c0-0.744,0-1.487,0-2.23c0-0.558,0-1.115,0-1.672c0.327-0.044,0.234-0.508,0.278-0.836
	c0.093-1.301,0.876-1.912,1.673-2.508c0.185,0,0.371,0,0.558,0c1.271,0.121,3.069-0.282,3.9,0.279
	c1.623,0.792,2.629-0.709,3.902-1.115c0.187,0,0.371,0,0.558,0c0.522-0.407,1.847-0.011,2.229-0.557c0.094,0,0.187,0,0.278,0
	c0.651,0,1.303,0,1.951,0C99.666,27.119,100.227,27.858,100.059,29.327z M97.271,29.885c1.196-1.282-2.776,0.148-3.066,0.278
	c-1.099,0.388-1.589,1.384-3.065,1.394c-0.093,0-0.187,0-0.278,0c-1.236-0.158-1.886-0.902-3.344-0.836
	c-1.517-0.308-1.341,1.075-1.395,2.23c-0.32,0.329-0.316,0.984-0.278,1.672c0.465,0,0.928,0,1.393,0
	c0.745,0.555,2.458,0.144,3.346,0.557c0.092,0,0.186,0,0.278,0c0.186,0,0.37,0,0.557,0c0.052,0.413,0.673,0.256,1.116,0.279
	c1.24-0.219,1.671,0.371,2.786,0.279c1.875,0.389,1.383-1.591,1.671-2.787C96.777,31.621,97.428,31.157,97.271,29.885z"/>
<path fill-rule="evenodd" clip-rule="evenodd" fill="#7B7B7B" d="M87.237,32.672c-0.137-0.879,0.502-0.984,0.28-1.951
	c1.458-0.066,2.107,0.678,3.344,0.836c0,0.465,0,0.929,0,1.394c0,0.278,0,0.557,0,0.836c-0.605-0.047-0.127,0.989-0.278,1.393
	c-0.888-0.413-2.601-0.002-3.346-0.557c0.736-0.007,1.746,0.26,1.394-0.836c0.385-0.359,0.276-1.211,0.279-1.951
	c-0.644,0.286,0.008,1.866-1.114,1.672c-0.095,0-0.187,0-0.278,0C87.501,33.152,87.159,33.123,87.237,32.672z"/>
<path fill-rule="evenodd" clip-rule="evenodd" fill="#7B7B7B" d="M97.271,29.885c-0.062-0.217-0.234-0.324-0.559-0.278
	c-0.852,0.692,0.335,1.692,0,2.787c-0.465,0-0.928,0-1.393,0c0-0.093,0-0.185,0-0.278c-0.023-0.441,0.135-1.063-0.278-1.115
	c0.012-0.383-0.132-0.612-0.28-0.836c-0.185,0-0.371,0-0.557,0C94.495,30.033,98.468,28.603,97.271,29.885z"/>
<path fill-rule="evenodd" clip-rule="evenodd" fill="#0D0D0D" d="M83.336,31.557c0.447-1.097-1.204-0.097-1.115-0.836
	c0.465,0,0.93,0,1.394,0C83.57,31.049,83.663,31.513,83.336,31.557z"/>
<path fill-rule="evenodd" clip-rule="evenodd" fill="#323232" d="M95.32,32.115c-0.412-0.052-0.256-0.674-0.278-1.115
	C95.455,31.052,95.297,31.673,95.32,32.115z"/>
<path fill-rule="evenodd" clip-rule="evenodd" fill="#323232" d="M90.861,32.951c0-0.465,0-0.929,0-1.394c0.092,0,0.186,0,0.278,0
	C90.987,31.962,91.466,32.998,90.861,32.951z"/>
<path fill-rule="evenodd" clip-rule="evenodd" fill="#323232" d="M95.32,32.393c0.465,0,0.928,0,1.393,0
	C96.839,32.849,95.194,32.849,95.32,32.393z"/>
<path fill-rule="evenodd" clip-rule="evenodd" fill="#202020" d="M87.796,33.508c1.122,0.193,0.471-1.387,1.114-1.672
	c-0.003,0.74,0.105,1.592-0.279,1.951C88.303,33.743,87.84,33.835,87.796,33.508z"/>
<path fill-rule="evenodd" clip-rule="evenodd" fill="#7B7B7B" d="M95.599,32.951c0.465,0,0.93,0,1.393,0
	c-0.288,1.196,0.204,3.176-1.671,2.787c0-0.372,0-0.743,0-1.115C95.936,34.588,95.438,33.44,95.599,32.951z"/>
<path fill-rule="evenodd" clip-rule="evenodd" fill="#7B7B7B" d="M99.78,32.115c-0.152,0.405,0.324,1.441-0.28,1.394
	C99.654,33.104,99.175,32.067,99.78,32.115z"/>
<path fill-rule="evenodd" clip-rule="evenodd" fill="#202020" d="M95.599,32.951c-0.16,0.489,0.337,1.637-0.278,1.672
	c0-0.558,0-1.115,0-1.672C95.413,32.951,95.507,32.951,95.599,32.951z"/>
<path fill-rule="evenodd" clip-rule="evenodd" fill="#202020" d="M90.583,35.18c0.151-0.404-0.327-1.44,0.278-1.393
	c0,0.465,0,0.929,0,1.393C90.769,35.18,90.675,35.18,90.583,35.18z"/>
<path fill-rule="evenodd" clip-rule="evenodd" fill="#323232" d="M91.418,35.18c0.417,0.048,1.029-0.1,1.116,0.279
	C92.091,35.436,91.47,35.593,91.418,35.18z"/>
<path fill-rule="evenodd" clip-rule="evenodd" fill="#202020" d="M85.287,37.131c0.417,0.047,1.028-0.1,1.114,0.279
	c-0.404-0.152-1.44,0.326-1.395-0.279C85.102,37.131,85.193,37.131,85.287,37.131z"/>
<path fill-rule="evenodd" clip-rule="evenodd" fill="#202020" d="M91.14,37.968c0.404,0.152,1.44-0.326,1.395,0.279
	C92.129,38.094,91.094,38.572,91.14,37.968z"/>
<path fill-rule="evenodd" clip-rule="evenodd" fill="#202020" d="M93.091,38.247c0.465,0,0.928,0,1.393,0c0,0.093,0,0.185,0,0.278
	C94.078,38.372,93.043,38.851,93.091,38.247z"/>
<path fill-rule="evenodd" clip-rule="evenodd" fill="#323232" d="M90.025,39.083c0.046-0.417-0.1-1.028,0.278-1.115
	C90.28,38.409,90.437,39.031,90.025,39.083z"/>
<path fill-rule="evenodd" clip-rule="evenodd" fill="#202020" d="M88.074,38.247c-0.152,0.405,0.324,1.44-0.278,1.394
	C87.948,39.235,87.47,38.2,88.074,38.247z"/>
<path fill-rule="evenodd" clip-rule="evenodd" fill="#323232" d="M94.762,38.525c0.457-0.125,0.457,1.52,0,1.394
	C94.762,39.454,94.762,38.99,94.762,38.525z"/>
<path fill-rule="evenodd" clip-rule="evenodd" fill="#202020" d="M77.761,39.64c-0.461-0.211-0.461-2.297,0-2.509
	C77.761,37.968,77.761,38.804,77.761,39.64z"/>
<path fill-rule="evenodd" clip-rule="evenodd" fill="#202020" d="M90.025,39.918c-0.154,0.405,0.325,1.441-0.28,1.394
	C89.899,40.907,89.421,39.871,90.025,39.918z"/>
<path fill-rule="evenodd" clip-rule="evenodd" fill="#323232" d="M87.796,40.477c-0.501,1.336,0.773,0.898,1.114,1.393
	c-0.465,0-0.93,0-1.393,0C87.67,41.464,87.19,40.429,87.796,40.477z"/>
<path fill-rule="evenodd" clip-rule="evenodd" fill="#202020" d="M47.382,74.479c-0.047-0.604,0.988-0.127,1.394-0.279
	C48.823,74.804,47.787,74.327,47.382,74.479z"/>
<path fill-rule="evenodd" clip-rule="evenodd" fill="#323232" d="M32.331,0.899c0.532-0.119,0.505-0.796,1.394-0.557
	c0.465,0,0.929,0,1.394,0c0.45-0.079,0.48,0.263,0.836,0.278c0.346,0.583,0.811,1.048,1.394,1.394
	c0.793,1.343,1.799,2.475,1.672,4.738c0.178,1.03-0.361,2.776,0.278,3.344c0.047,2.235,1.76,3.041,3.902,4.459
	c1.372,0.909,2.775,1.848,3.902,2.508c3.031,1.778,6.151,3.032,8.64,4.181c1.587,0.732,2.964,1.647,4.46,2.23
	c0.397,0.155,0.928,0.103,1.393,0.278c0.354,0.134,0.775,0.446,1.115,0.558c3.82,1.249,8.293,2.275,12.82,3.065
	c0.12,0.623,1.374,0.113,1.951,0.279c0.465,0,0.93,0,1.395,0c-0.049,0.604,0.987,0.126,1.392,0.279c0.465,0,0.93,0,1.395,0
	c0.659,0.641,2.503,0.1,3.624,0.279c-0.797,0.597-1.58,1.208-1.673,2.508c-0.464,0-0.929,0-1.394,0c-0.558,0-1.114,0-1.671,0
	c-0.297-0.632-1.753-0.106-2.511-0.278c-0.463,0-0.928,0-1.393,0c-0.086-0.379-0.699-0.231-1.115-0.28
	c-13.301-1.534-25.814-7.557-35.117-13.935c-2.287-1.568-3.852-2.672-3.902-5.295c0-0.372,0-0.743,0-1.115
	c-0.176-0.938,0.359-2.589-0.279-3.066c-0.135-1.258-0.891-1.896-1.115-3.065c-0.242-0.408-0.417-0.884-1.115-0.836
	c-0.386,0.823-1.288,1.128-1.673,1.951c0,0.093,0,0.186,0,0.279c-1.324,1.091-2.531,2.299-3.623,3.623
	c-0.346,0.583-0.811,1.047-1.394,1.394c-1.695,1.463-3.274,3.042-4.738,4.738c-0.533,0.768-1.183,1.417-1.951,1.951
	c-1.789,1.556-3.461,3.229-5.017,5.017c0,0.093,0,0.186,0,0.279c-0.675,0.44-1.232,0.997-1.672,1.672
	c-0.583,0.346-1.047,0.811-1.394,1.394c0.001,0.28-0.226,0.332-0.278,0.557c-0.768,0.533-1.418,1.184-1.952,1.951
	c-3.307,3.939-5.251,9.242-7.525,14.214c7.169,12.713,13.127,26.636,19.789,39.855c0.354,0.947,1.004,1.597,1.951,1.952
	c2.763,1.174,5.6-1.594,6.967-2.51c1.15-0.771,2.546-1.397,2.787-2.508c0.452,0.199,0.452-1.314,0-1.115
	c-0.417-0.808-0.855-1.654-1.115-2.229c-0.041-0.092-0.488-0.177-0.557-0.28c-0.086-0.128,0.064-0.414,0-0.557
	c-0.041-0.09-0.489-0.177-0.558-0.279c-0.086-0.126,0.063-0.416,0-0.557c-0.041-0.091-0.488-0.176-0.558-0.279
	c-0.085-0.128,0.064-0.415,0-0.558c-0.038-0.084-0.488-0.185-0.558-0.278c-0.352-0.479-0.525-1.214-1.115-1.672
	c-0.204-0.159-0.648-0.162-0.836-0.279c-0.726-0.451-1.391-0.702-2.23-1.115c-0.877-0.431-1.721-0.699-2.229-1.113
	c-0.723-0.592-0.938-0.961-1.394-1.673c-1.676-2.621-2.212-5.616-2.787-8.92c0-0.465,0-0.929,0-1.393
	c-0.082-1.104,0.341-1.703,0.836-2.23c0.491-0.251,0.863-0.623,1.115-1.113c0.477-0.453,1.014-0.845,1.951-0.837
	c0.743,0,1.486,0,2.229,0c1.513,0.158,2.339,1.005,3.066,1.95c0.252,0.492,0.624,0.863,1.115,1.115
	c3.603,4.388,7.399,8.58,10.87,13.101c0.533,0.767,1.184,1.417,1.951,1.95c3.888,3.055,7.621-0.064,11.148-2.23
	c3.062-1.878,5.482-3.844,8.083-5.017c0.092-0.042,0.172-0.488,0.279-0.558c0.132-0.084,0.413,0.065,0.557,0
	c0.09-0.04,0.176-0.487,0.279-0.557c0.128-0.085,0.415,0.063,0.557,0c0.092-0.041,0.174-0.489,0.279-0.558
	c0.129-0.086,0.414,0.064,0.557,0c0.09-0.041,0.176-0.488,0.279-0.558c0.127-0.085,0.415,0.064,0.557,0
	c0.095-0.042,0.169-0.489,0.279-0.558c0.665-0.408,1.911-0.81,2.229-1.114c0.234-0.225,0.599-0.33,0.837-0.558
	c0.233-0.224,0.599-0.331,0.836-0.557c1.418-1.359,3.339-1.992,4.737-3.066c0.862-0.346,1.497-0.92,1.952-1.672
	c0.627-1.689,1.757-2.367,1.673-3.903c-0.091-1.633-2.32-3.156-3.067-5.294c-0.403-1.156-0.505-2.212-0.558-3.623
	c0-1.116,0-2.23,0-3.345c-0.166-2.118,0.509-3.394,2.23-3.623c0.372,0,0.743,0,1.115,0c1.751,0.013,3.262,0.268,4.738,0.557
	c0.152,0.405-0.326,1.44,0.278,1.394c0.131,1.078,1.246,1.168,1.951,1.672c-0.094,0-0.186,0-0.28,0
	c-2.534-0.067-4.632-0.57-6.968-0.836c-0.146,0.224-0.29,0.453-0.278,0.836c-0.461,0.211-0.461,2.297,0,2.509
	c0.103,1.269,0.154,2.212,0.559,3.344c0.718,2.012,2.77,3.466,3.065,5.295c0.479,2.963-0.919,4.823-2.508,6.968
	c-0.583,0.346-1.048,0.811-1.395,1.394c-1.715,1.074-4.264,3.185-6.411,4.459c-0.327,0.195-0.318,0.052-0.557,0.279
	c-0.237,0.227-0.603,0.334-0.836,0.558c-0.236,0.227-0.603,0.333-0.836,0.557c-0.322,0.309-1.486,0.635-2.229,1.115
	c-0.105,0.069-0.187,0.517-0.278,0.558c-0.143,0.064-0.429-0.085-0.558,0c-0.104,0.069-0.188,0.517-0.278,0.557
	c-2.5,1.127-5.202,3.472-7.804,5.018c-0.328,0.194-0.32,0.051-0.558,0.279c-0.298,0.284-1.488,0.666-2.23,1.114
	c-0.111,0.067-0.183,0.514-0.279,0.557c-1.726,0.778-3.622,2.435-5.853,2.509c-0.405,0.152-1.44-0.325-1.394,0.279
	c-0.186,0-0.372,0-0.558,0c-0.035-0.616-1.182-0.118-1.672-0.279c-3.158-0.412-5.122-3.369-6.968-5.573
	c-1.14-1.361-2.349-2.634-3.624-4.182c-0.422-0.512-0.937-0.983-1.394-1.673c-0.93-1.4-2.984-3.076-3.902-4.736
	c-0.515-0.693-0.842-1.574-1.672-1.952c-0.612-0.316-0.926-0.933-1.672-1.114c0.199-0.452-1.314-0.452-1.115,0
	c-0.924,0.098-1.209,0.835-1.672,1.394c-0.455-0.126-0.455,1.52,0,1.393c0.646,2.514,1.352,4.967,2.23,7.247
	c0.346,0.584,0.811,1.047,1.393,1.394c1.767,0.557,3.363,1.282,4.738,2.23c0.346,0.583,0.811,1.047,1.394,1.394
	c1.42,2.296,3.391,4.04,4.181,6.968c0,0.743,0,1.486,0,2.229c0.123,1.052-0.55,1.309-0.836,1.95
	c-0.492,0.252-0.863,0.624-1.115,1.115c-2.611,1.569-4.492,3.87-8.083,4.459c-0.651,0-1.301,0-1.951,0
	c-1.251-0.049-2.021-0.58-2.787-1.114c-0.346-0.583-0.811-1.048-1.394-1.394c-3.236-4.557-5.711-11.131-8.361-16.723
	c-2.392-5.048-4.848-9.841-7.525-15.329c-0.898-1.842-2.097-4.233-3.345-6.411c-0.454-0.793-1.64-2.599-1.672-3.901
	c-0.035-1.394,0.718-2.952,1.394-4.459c0.544-1.214,1.41-2.452,1.951-3.623c0.354-0.767,0.5-1.542,0.836-2.23
	c0.367-0.751,0.756-1.564,1.394-2.23c0.227-0.237,0.333-0.602,0.557-0.835c0.297-0.309,0.841-1.36,1.394-1.951
	c0.491-0.252,0.863-0.624,1.115-1.115c0.768-0.533,1.418-1.184,1.951-1.951c0.385-0.823,1.288-1.128,1.673-1.952
	c0.583-0.346,1.047-0.81,1.393-1.394c0-0.093,0-0.186,0-0.279c1.789-1.556,3.461-3.228,5.017-5.017
	c1.231-0.999,2.346-2.113,3.344-3.344c1.696-1.463,3.275-3.043,4.738-4.738c1.325-1.091,2.533-2.299,3.624-3.623
	c0-0.093,0-0.186,0-0.279C31.148,2.317,31.799,1.667,32.331,0.899z"/>
<path fill-rule="evenodd" clip-rule="evenodd" fill="#202020" d="M78.039,30.443c0.758,0.172,2.214-0.354,2.511,0.278
	C79.792,30.549,78.336,31.075,78.039,30.443z"/>
<path fill-rule="evenodd" clip-rule="evenodd" fill="#202020" d="M24.249,52.182c0.124-0.461,2.106-0.461,2.229,0
	C25.735,52.182,24.992,52.182,24.249,52.182z"/>
<path fill-rule="evenodd" clip-rule="evenodd" fill="#202020" d="M45.152,74.2c0.49,0.161,1.637-0.337,1.672,0.279
	C46.334,74.319,45.187,74.816,45.152,74.2z"/>
<path fill-rule="evenodd" clip-rule="evenodd" fill="#202020" d="M37.07,76.988c0.46,0.123,0.46,2.105,0,2.229
	C37.07,78.474,37.07,77.731,37.07,76.988z"/>
<path fill-rule="evenodd" clip-rule="evenodd" fill="#7B7B7B" d="M96.713,26.819c0.008-0.271,0.343-0.217,0.559-0.279
	c0.405,0.152,1.44-0.326,1.393,0.279C98.016,26.819,97.364,26.819,96.713,26.819z"/>
<path fill-rule="evenodd" clip-rule="evenodd" fill="#7B7B7B" d="M83.058,34.065c0.042-0.328-0.048-0.791,0.278-0.836
	c0,0.743,0,1.486,0,2.23C82.731,35.506,83.21,34.471,83.058,34.065z"/>
<path fill-rule="evenodd" clip-rule="evenodd" fill="#7B7B7B" d="M87.796,37.41c1.05,0.251,2.517,0.083,3.344,0.558
	c-0.278,0-0.557,0-0.836,0c-0.378,0.086-0.232,0.697-0.278,1.115c0,0.278,0,0.558,0,0.836c-0.604-0.047-0.126,0.989-0.28,1.394
	c0.13,0.595-0.396,0.531-0.835,0.558c-0.341-0.495-1.615-0.057-1.114-1.393c0-0.28,0-0.558,0-0.836
	c0.603,0.047,0.126-0.988,0.278-1.394C88.152,37.796,87.81,37.766,87.796,37.41z"/>
</svg>
