<?xml version="1.0" encoding="utf-8"?>
<!-- Generator: Adobe Illustrator 15.0.0, SVG Export Plug-In  -->
<!DOCTYPE svg PUBLIC "-//W3C//DTD SVG 1.1//EN" "http://www.w3.org/Graphics/SVG/1.1/DTD/svg11.dtd" [
	<!ENTITY ns_flows "http://ns.adobe.com/Flows/1.0/">
]>
<svg version="1.1"
	 xmlns="http://www.w3.org/2000/svg" xmlns:xlink="http://www.w3.org/1999/xlink" xmlns:a="http://ns.adobe.com/AdobeSVGViewerExtensions/3.0/"
	 x="0px" y="0px" width="142px" height="142px" viewBox="-2.743 -33.223 142 142" enable-background="new -2.743 -33.223 142 142"
	 xml:space="preserve">
<defs>
</defs>
<path fill-rule="evenodd" clip-rule="evenodd" fill="#181818" d="M35.998,0.345c0.124-0.46,2.106-0.46,2.23,0
	c-0.651,0-1.301,0-1.951,0C36.184,0.345,36.09,0.345,35.998,0.345z"/>
<path fill-rule="evenodd" clip-rule="evenodd" fill="#797979" d="M23.456,4.526c0-0.093,0-0.186,0-0.279c0.557,0,1.115,0,1.672,0
	c0,0.093,0,0.186,0,0.279C24.571,4.526,24.013,4.526,23.456,4.526z"/>
<path fill-rule="evenodd" clip-rule="evenodd" fill="#333333" d="M25.128,4.526c0-0.093,0-0.186,0-0.279c0.929,0,1.858,0,2.787,0
	c0,0.093,0,0.186,0,0.279C26.986,4.526,26.057,4.526,25.128,4.526z"/>
<path fill-rule="evenodd" clip-rule="evenodd" fill="#181818" d="M27.915,4.526c0-0.093,0-0.186,0-0.279c0.464,0,0.929,0,1.393,0
	c0,0.093,0,0.186,0,0.279C28.844,4.526,28.379,4.526,27.915,4.526z"/>
<path fill-rule="evenodd" clip-rule="evenodd" fill="#C5C5C5" d="M36.276,4.526c-0.046-0.457,1.718-0.457,1.673,0
	C37.391,4.526,36.833,4.526,36.276,4.526z"/>
<path fill-rule="evenodd" clip-rule="evenodd" fill="#333333" d="M38.228,4.526c0-0.093,0-0.186,0-0.279c1.672,0,3.344,0,5.017,0
	c0,0.093,0,0.186,0,0.279C41.572,4.526,39.899,4.526,38.228,4.526z"/>
<path fill-rule="evenodd" clip-rule="evenodd" fill="#797979" d="M43.244,4.526c0-0.093,0-0.186,0-0.279c17.373,0,34.746,0,52.119,0
	c0,0.093,0,0.186,0,0.279C77.99,4.526,60.617,4.526,43.244,4.526z"/>
<path fill-rule="evenodd" clip-rule="evenodd" fill="#C5C5C5" d="M95.363,4.526c0-0.093,0-0.186,0-0.279c0.371,0,0.743,0,1.114,0
	c0,0.093,0,0.186,0,0.279C96.106,4.526,95.734,4.526,95.363,4.526z"/>
<path fill-rule="evenodd" clip-rule="evenodd" fill="#C5C5C5" d="M64.983,7.034c10.128-0.464,22.204-0.464,32.331,0
	C86.536,7.034,75.761,7.034,64.983,7.034z"/>
<path fill-rule="evenodd" clip-rule="evenodd" fill="#181818" d="M25.407,7.034c0.558,0,1.115,0,1.672,0c0,0.093,0,0.186,0,0.279
	C26.589,7.153,25.441,7.65,25.407,7.034z"/>
<path fill-rule="evenodd" clip-rule="evenodd" fill="#181818" d="M33.768,7.313c0-0.093,0-0.186,0-0.279c0.743,0,1.486,0,2.229,0
	c0,0.093,0,0.186,0,0.279C35.254,7.313,34.511,7.313,33.768,7.313z"/>
<path fill-rule="evenodd" clip-rule="evenodd" fill="#333333" d="M35.998,7.313c0-0.093,0-0.186,0-0.279c0.093,0,0.186,0,0.279,0
	c0,1.394,0,2.788,0,4.181C35.634,10.464,36.177,8.527,35.998,7.313z"/>
<path fill-rule="evenodd" clip-rule="evenodd" fill="#797979" d="M36.276,7.034c0.65,0,1.3,0,1.951,0c0,0.093,0,0.186,0,0.279
	c0,1.3,0,2.601,0,3.901c-0.651,0-1.301,0-1.951,0C36.276,9.822,36.276,8.428,36.276,7.034z"/>
<path fill-rule="evenodd" clip-rule="evenodd" fill="#181818" d="M38.228,7.313c0-0.093,0-0.186,0-0.279c1.301,0,2.601,0,3.901,0
	C41.378,7.676,39.441,7.133,38.228,7.313z"/>
<path fill-rule="evenodd" clip-rule="evenodd" fill="#181818" d="M106.791,10.658c0.389-0.462,2.675-0.462,3.065,0
	C108.834,10.658,107.813,10.658,106.791,10.658z"/>
<path fill-rule="evenodd" clip-rule="evenodd" fill="#181818" d="M111.251,10.658c0.44,0.023,1.062-0.134,1.113,0.278
	C111.948,10.889,111.337,11.036,111.251,10.658z"/>
<path fill-rule="evenodd" clip-rule="evenodd" fill="#C5C5C5" d="M100.38,10.937c0.623,0.12,0.112,1.373,0.278,1.951
	c-0.092,0-0.186,0-0.278,0C100.38,12.237,100.38,11.587,100.38,10.937z"/>
<path fill-rule="evenodd" clip-rule="evenodd" fill="#181818" d="M114.873,11.215c0.44,0.023,1.063-0.134,1.115,0.279
	C115.57,11.446,114.959,11.594,114.873,11.215z"/>
<path fill-rule="evenodd" clip-rule="evenodd" fill="#C5C5C5" d="M102.889,11.494c0.092,0,0.186,0,0.278,0c0,1.208,0,2.416,0,3.623
	C102.525,14.458,103.066,12.616,102.889,11.494z"/>
<path fill-rule="evenodd" clip-rule="evenodd" fill="#797979" d="M100.38,12.887c0.093,0,0.187,0,0.278,0c0,1.394,0,2.787,0,4.181
	c-0.092,0-0.186,0-0.278,0C100.38,15.674,100.38,14.281,100.38,12.887z"/>
<path fill-rule="evenodd" clip-rule="evenodd" fill="#181818" d="M106.513,13.445c0.661-0.463,3.237-0.463,3.9,0
	C109.113,13.445,107.813,13.445,106.513,13.445z"/>
<path fill-rule="evenodd" clip-rule="evenodd" fill="#181818" d="M111.251,13.445c0.416,0.047,1.027-0.1,1.113,0.279
	C111.948,13.676,111.337,13.823,111.251,13.445z"/>
<path fill-rule="evenodd" clip-rule="evenodd" fill="#181818" d="M113.2,13.724c0.416,0.047,1.029-0.1,1.115,0.278
	C113.899,13.955,113.286,14.102,113.2,13.724z"/>
<path fill-rule="evenodd" clip-rule="evenodd" fill="#181818" d="M116.824,14.281c0.417,0.048,1.027-0.1,1.113,0.279
	C117.521,14.512,116.91,14.659,116.824,14.281z"/>
<path fill-rule="evenodd" clip-rule="evenodd" fill="#797979" d="M103.167,17.904c0.092,0,0.187,0,0.278,0c0,0.465,0,0.929,0,1.394
	c-0.092,0-0.187,0-0.278,0C103.167,18.833,103.167,18.369,103.167,17.904z"/>
<path fill-rule="evenodd" clip-rule="evenodd" fill="#C5C5C5" d="M100.658,19.019c0.379,0.087,0.23,0.698,0.279,1.116
	c-0.093,0-0.187,0-0.279,0C100.658,19.762,100.658,19.391,100.658,19.019z"/>
<path fill-rule="evenodd" clip-rule="evenodd" fill="#C5C5C5" d="M103.167,19.298c0.092,0,0.187,0,0.278,0c0,0.372,0,0.743,0,1.115
	C103.032,20.361,103.19,19.739,103.167,19.298z"/>
<path fill-rule="evenodd" clip-rule="evenodd" fill="#797979" d="M100.658,20.134c0.093,0,0.187,0,0.279,0c0,0.371,0,0.743,0,1.114
	c-0.093,0-0.187,0-0.279,0C100.658,20.877,100.658,20.505,100.658,20.134z"/>
<path fill-rule="evenodd" clip-rule="evenodd" fill="#797979" d="M103.445,22.085c0.094,0,0.187,0,0.278,0c0,0.464,0,0.929,0,1.393
	c-0.092,0-0.185,0-0.278,0C103.445,23.014,103.445,22.549,103.445,22.085z"/>
<path fill-rule="evenodd" clip-rule="evenodd" fill="#C5C5C5" d="M100.938,23.2c0.454-0.125,0.454,1.519,0,1.394
	c0-0.093,0-0.187,0-0.28C100.938,23.943,100.938,23.571,100.938,23.2z"/>
<path fill-rule="evenodd" clip-rule="evenodd" fill="#181818" d="M131.595,26.823c0.615,0.035,0.118,1.182,0.279,1.672
	C131.259,28.461,131.756,27.313,131.595,26.823z"/>
<path fill-rule="evenodd" clip-rule="evenodd" fill="#181818" d="M134.382,27.102c0.633,0.296,0.106,1.752,0.278,2.508
	C134.029,29.313,134.554,27.858,134.382,27.102z"/>
<path fill-rule="evenodd" clip-rule="evenodd" fill="#797979" d="M0.044,29.053c0.093,0,0.186,0,0.279,0c0,1.765,0,3.53,0,5.295
	c-0.093,0-0.186,0-0.279,0C0.044,32.583,0.044,30.818,0.044,29.053z"/>
<path fill-rule="evenodd" clip-rule="evenodd" fill="#333333" d="M97.872,32.119c0.198,0.452-1.314,0.452-1.116,0
	C97.129,32.119,97.499,32.119,97.872,32.119z"/>
<path fill-rule="evenodd" clip-rule="evenodd" fill="#333333" d="M99.265,32.119c0.456-0.126,0.456,1.519,0,1.393
	C99.265,33.047,99.265,32.583,99.265,32.119z"/>
<path fill-rule="evenodd" clip-rule="evenodd" fill="#797979" d="M91.183,32.397c0.93,0,1.859,0,2.786,0c0,0.371,0,0.743,0,1.114
	c-0.667,0.17-2.021-0.35-2.229,0.279c-0.187,0-0.37,0-0.557,0C91.183,33.326,91.183,32.862,91.183,32.397z"/>
<path fill-rule="evenodd" clip-rule="evenodd" fill="#C5C5C5" d="M96.478,32.397c0.453-0.2,0.453,1.313,0,1.114
	C96.478,33.141,96.478,32.769,96.478,32.397z"/>
<path fill-rule="evenodd" clip-rule="evenodd" fill="#333333" d="M91.739,33.791c0.209-0.629,1.563-0.109,2.229-0.279
	c0,0.093,0,0.187,0,0.279C93.226,33.791,92.482,33.791,91.739,33.791z"/>
<path fill-rule="evenodd" clip-rule="evenodd" fill="#181818" d="M96.756,33.791c0.297-0.633,1.753-0.106,2.509-0.279
	C98.968,34.145,97.514,33.618,96.756,33.791z"/>
<path fill-rule="evenodd" clip-rule="evenodd" fill="#C5C5C5" d="M93.969,33.791c0.453-0.2,0.453,1.314,0,1.115
	C93.969,34.534,93.969,34.163,93.969,33.791z"/>
<path fill-rule="evenodd" clip-rule="evenodd" fill="#333333" d="M0.044,34.348c0.093,0,0.186,0,0.279,0c0,4.088,0,8.176,0,12.264
	c-0.093,0-0.186,0-0.279,0C0.044,42.523,0.044,38.436,0.044,34.348z"/>
<path fill-rule="evenodd" clip-rule="evenodd" fill="#181818" d="M2.831,34.906c0.629,0.208,0.109,1.563,0.279,2.229
	c-0.093,0-0.186,0-0.279,0C2.831,36.392,2.831,35.649,2.831,34.906z"/>
<path fill-rule="evenodd" clip-rule="evenodd" fill="#333333" d="M2.831,37.135c0.093,0,0.186,0,0.279,0c0,1.208,0,2.416,0,3.624
	c-0.093,0-0.186,0-0.279,0C2.831,39.551,2.831,38.343,2.831,37.135z"/>
<path fill-rule="evenodd" clip-rule="evenodd" fill="#797979" d="M63.312,39.086c0-0.093,0-0.186,0-0.278c3.53,0,7.061,0,10.592,0
	c0,0.093,0,0.186,0,0.278C70.372,39.086,66.842,39.086,63.312,39.086z"/>
<path fill-rule="evenodd" clip-rule="evenodd" fill="#C5C5C5" d="M73.903,39.086c0-0.093,0-0.186,0-0.278c3.529,0,7.06,0,10.59,0
	C81.521,39.456,77.341,38.901,73.903,39.086z"/>
<path fill-rule="evenodd" clip-rule="evenodd" fill="#181818" d="M126.3,40.759c0.125-0.46,2.105-0.46,2.23,0
	C127.787,40.759,127.043,40.759,126.3,40.759z"/>
<path fill-rule="evenodd" clip-rule="evenodd" fill="#181818" d="M2.831,40.759c0.093,0,0.186,0,0.279,0c0,1.579,0,3.158,0,4.738
	c-0.093,0-0.186,0-0.279,0C2.831,43.917,2.831,42.338,2.831,40.759z"/>
<path fill-rule="evenodd" clip-rule="evenodd" fill="#181818" d="M131.874,40.759c0.458,0.038,0.458,1.913,0,1.951
	C131.874,42.059,131.874,41.409,131.874,40.759z"/>
<path fill-rule="evenodd" clip-rule="evenodd" fill="#C5C5C5" d="M71.114,41.594c2.883-0.648,6.968-0.093,10.313-0.278
	c0,0.094,0,0.187,0,0.278C77.99,41.594,74.552,41.594,71.114,41.594z"/>
<path fill-rule="evenodd" clip-rule="evenodd" fill="#797979" d="M81.428,41.594c0-0.092,0-0.185,0-0.278c2.322,0,4.646,0,6.968,0
	c0,0.094,0,0.187,0,0.278C86.074,41.594,83.75,41.594,81.428,41.594z"/>
<path fill-rule="evenodd" clip-rule="evenodd" fill="#181818" d="M48.54,41.873c0-0.093,0-0.186,0-0.279c6.318,0,12.635,0,18.952,0
	C61.732,42.244,54.764,41.688,48.54,41.873z"/>
<path fill-rule="evenodd" clip-rule="evenodd" fill="#181818" d="M17.881,42.431c0.387-0.636,1.94-0.104,2.787-0.278
	c0,0.093,0,0.186,0,0.278C19.74,42.431,18.811,42.431,17.881,42.431z"/>
<path fill-rule="evenodd" clip-rule="evenodd" fill="#181818" d="M127.416,43.267c0.604-0.047,0.124,0.989,0.278,1.394
	C127.09,44.707,127.568,43.672,127.416,43.267z"/>
<path fill-rule="evenodd" clip-rule="evenodd" fill="#181818" d="M119.054,44.104c0,0.65,0,1.3,0,1.95
	C118.595,46.016,118.595,44.141,119.054,44.104z"/>
<path fill-rule="evenodd" clip-rule="evenodd" fill="#797979" d="M17.045,45.218c0.208-0.629,1.563-0.108,2.229-0.278
	c0,0.093,0,0.186,0,0.278C18.532,45.218,17.788,45.218,17.045,45.218z"/>
<path fill-rule="evenodd" clip-rule="evenodd" fill="#181818" d="M0.044,46.611c0.093,0,0.186,0,0.279,0c0,0.465,0,0.929,0,1.394
	C-0.282,48.052,0.196,47.017,0.044,46.611z"/>
<path fill-rule="evenodd" clip-rule="evenodd" fill="#181818" d="M130.203,47.448c0.465,0,0.927,0,1.392,0
	C131.722,47.902,130.076,47.902,130.203,47.448z"/>
<path fill-rule="evenodd" clip-rule="evenodd" fill="#181818" d="M122.119,55.251c0.461,0.124,0.461,2.106,0,2.23
	C122.119,56.738,122.119,55.994,122.119,55.251z"/>
<path fill-rule="evenodd" clip-rule="evenodd" fill="#181818" d="M124.906,55.251c0.46,0.124,0.46,2.106,0,2.23
	C124.906,56.738,124.906,55.994,124.906,55.251z"/>
<path fill-rule="evenodd" clip-rule="evenodd" fill="#797979" d="M24.013,58.596c-0.405-0.152-1.44,0.326-1.393-0.278
	c0.464,0,0.929,0,1.393,0C24.013,58.409,24.013,58.503,24.013,58.596z"/>
<path fill-rule="evenodd" clip-rule="evenodd" fill="#C5C5C5" d="M24.013,58.596c0-0.093,0-0.187,0-0.278c0.465,0,0.93,0,1.394,0
	C25.454,58.922,24.418,58.443,24.013,58.596z"/>
<path fill-rule="evenodd" clip-rule="evenodd" fill="#797979" d="M25.128,61.104c0-0.093,0-0.186,0-0.278c0.372,0,0.743,0,1.115,0
	c0,0.093,0,0.186,0,0.278C25.871,61.104,25.5,61.104,25.128,61.104z"/>
<path fill-rule="evenodd" clip-rule="evenodd" fill="#181818" d="M32.653,64.728c0.093,0,0.186,0,0.279,0c0,0.371,0,0.743,0,1.114
	c-0.093,0-0.186,0-0.279,0C32.653,65.471,32.653,65.099,32.653,64.728z"/>
<path fill-rule="evenodd" clip-rule="evenodd" fill="#181818" d="M108.184,67.794c-0.046-0.605,0.989-0.127,1.395-0.279
	C109.624,68.119,108.588,67.642,108.184,67.794z"/>
<path fill-rule="evenodd" clip-rule="evenodd" fill="#797979" d="M23.177,68.072c-0.49-0.16-1.638,0.337-1.672-0.278
	c0.558,0,1.115,0,1.672,0C23.177,67.887,23.177,67.979,23.177,68.072z"/>
<path fill-rule="evenodd" clip-rule="evenodd" fill="#333333" d="M23.177,68.072c0-0.093,0-0.186,0-0.278c0.372,0,0.743,0,1.115,0
	c0,0.093,0,0.186,0,0.278C23.92,68.072,23.548,68.072,23.177,68.072z"/>
<path fill-rule="evenodd" clip-rule="evenodd" fill="#181818" d="M24.292,68.072c0-0.093,0-0.186,0-0.278c0.65,0,1.3,0,1.951,0
	c0,0.093,0,0.186,0,0.278C25.592,68.072,24.942,68.072,24.292,68.072z"/>
<path fill-rule="evenodd" clip-rule="evenodd" fill="#181818" d="M34.883,67.794c21.646,0,43.294,0,64.94,0
	C78.825,68.259,55.879,68.259,34.883,67.794z"/>
<path fill-rule="evenodd" clip-rule="evenodd" fill="#181818" d="M107.348,70.58c0.209-0.628,1.563-0.108,2.23-0.278
	C109.369,70.931,108.013,70.411,107.348,70.58z"/>
<path fill-rule="evenodd" clip-rule="evenodd" fill="#181818" d="M35.162,70.58c20.903,0,41.807,0,62.71,0
	C77.619,71.045,55.414,71.045,35.162,70.58z"/>
<path fill-rule="evenodd" clip-rule="evenodd" fill="#333333" d="M35.998,0.345c0.093,0,0.186,0,0.279,0
	c-0.128,1.358,0.292,3.265-0.279,4.181c-2.229,0-4.459,0-6.689,0c0-0.093,0-0.186,0-0.279c2.137,0,4.274,0,6.411,0
	C36.361,3.496,35.818,1.56,35.998,0.345z"/>
<path fill-rule="evenodd" clip-rule="evenodd" fill="#797979" d="M7.291,11.494c0.252-0.492,0.624-0.864,1.115-1.115
	C8.153,10.87,7.782,11.243,7.291,11.494z"/>
<path fill-rule="evenodd" clip-rule="evenodd" fill="#C5C5C5" d="M6.455,62.777c0.674,0.439,1.232,0.996,1.672,1.672
	C7.451,64.009,6.894,63.452,6.455,62.777z"/>
<path fill-rule="evenodd" clip-rule="evenodd" fill="#797979" d="M8.126,64.449c0.748,0.459,1.234,1.182,1.951,1.672
	c-0.689,0.266-1.38,1.016-1.672,1.951c-0.858,0.207-0.536-0.766-1.394-0.558C7.17,66.21,9.417,65.543,8.126,64.449z"/>
<path fill-rule="evenodd" clip-rule="evenodd" fill="#797979" d="M30.424,69.467c0.251-0.492,0.623-0.864,1.114-1.116
	c0,0.093,0,0.187,0,0.279c-0.237-0.051-0.262,0.108-0.278,0.278C30.894,69.007,30.821,69.399,30.424,69.467z"/>
<path fill-rule="evenodd" clip-rule="evenodd" fill="#181818" d="M31.26,68.908c0.016-0.17,0.042-0.329,0.278-0.278
	c0.189,0.647,0.926,0.746,1.115,1.394C32.005,69.834,31.907,69.097,31.26,68.908z"/>
<path fill-rule="evenodd" clip-rule="evenodd" fill="#181818" d="M119.61,66.121c0.347-0.582,0.812-1.047,1.395-1.394
	C120.658,65.311,120.193,65.775,119.61,66.121z"/>
<path fill-rule="evenodd" clip-rule="evenodd" fill="#181818" d="M121.563,64.171c0.252-0.492,0.623-0.864,1.115-1.115
	C122.426,63.546,122.053,63.919,121.563,64.171z"/>
<path fill-rule="evenodd" clip-rule="evenodd" fill="#181818" d="M127.973,46.054c0.491,0.252,0.864,0.624,1.114,1.116
	C128.596,46.917,128.224,46.546,127.973,46.054z"/>
<path fill-rule="evenodd" clip-rule="evenodd" fill="#181818" d="M130.76,16.79c0.573,0.078,0.557,0.744,0.835,1.115
	C131.022,17.827,131.038,17.16,130.76,16.79z"/>
<path fill-rule="evenodd" clip-rule="evenodd" fill="#181818" d="M128.53,14.281c0.49,0.252,0.863,0.624,1.113,1.115
	C129.153,15.144,128.782,14.772,128.53,14.281z"/>
<path fill-rule="evenodd" clip-rule="evenodd" fill="#797979" d="M36.276,0.345c0.65,0,1.3,0,1.951,0c0,1.301,0,2.601,0,3.902
	c0,0.093,0,0.186,0,0.279c-0.093,0-0.186,0-0.278,0c0.045-0.457-1.719-0.457-1.673,0c-0.093,0-0.186,0-0.279,0
	C36.568,3.61,36.148,1.704,36.276,0.345z"/>
<path fill-rule="evenodd" clip-rule="evenodd" fill="#C5C5C5" d="M94.248,39.644c0.252-0.491,0.625-0.862,1.115-1.115
	C95.111,39.021,94.74,39.392,94.248,39.644z"/>
<path fill-rule="evenodd" clip-rule="evenodd" fill="#797979" d="M44.359,57.202c0.346-0.583,0.811-1.047,1.394-1.393
	C45.406,56.393,44.942,56.857,44.359,57.202z"/>
<path fill-rule="evenodd" clip-rule="evenodd" fill="#C5C5C5" d="M29.866,47.448c-0.672-0.536-1.106-1.31-1.672-1.951
	C28.946,45.952,29.52,46.587,29.866,47.448z"/>
<path fill-rule="evenodd" clip-rule="evenodd" fill="#797979" d="M13.422,47.17c0.251-0.492,0.623-0.864,1.115-1.116
	C14.285,46.546,13.914,46.917,13.422,47.17z"/>
<path fill-rule="evenodd" clip-rule="evenodd" fill="#797979" d="M16.488,55.251c0.492,0.252,0.863,0.624,1.115,1.115
	C17.112,56.114,16.739,55.743,16.488,55.251z"/>
<path fill-rule="evenodd" clip-rule="evenodd" fill="#C5C5C5" d="M30.424,59.153c0.578,0.165,0.95,0.536,1.114,1.115
	C31.047,60.017,30.675,59.645,30.424,59.153z"/>
<path fill-rule="evenodd" clip-rule="evenodd" fill="#797979" d="M8.405,14.002c0.252-0.491,0.624-0.863,1.115-1.115
	C9.268,13.378,8.896,13.751,8.405,14.002z"/>
<path fill-rule="evenodd" clip-rule="evenodd" fill="#797979" d="M8.126,60.826c0.675,0.439,1.232,0.996,1.672,1.673
	C9.124,62.059,8.566,61.501,8.126,60.826z"/>
<path fill-rule="evenodd" clip-rule="evenodd" fill="#C5C5C5" d="M28.194,67.794c0.533-0.397,0.997-0.86,1.394-1.394
	C29.464,67.206,29,67.67,28.194,67.794z"/>
<path fill-rule="evenodd" clip-rule="evenodd" fill="#C5C5C5" d="M15.931,58.317c-0.583-0.347-1.048-0.811-1.394-1.395
	C15.12,57.27,15.584,57.734,15.931,58.317z"/>
<path fill-rule="evenodd" clip-rule="evenodd" fill="#C5C5C5" d="M11.471,45.218c0.647-0.188,0.746-0.926,1.393-1.114
	c-0.346,0.583-0.81,1.048-1.393,1.394C11.471,45.403,11.471,45.311,11.471,45.218z"/>
<path fill-rule="evenodd" clip-rule="evenodd" fill="#C5C5C5" d="M42.687,55.251c0.082-0.567,0.754-0.546,0.836-1.114
	c-0.052-0.236,0.109-0.263,0.278-0.279C43.782,54.675,43.165,54.893,42.687,55.251z"/>
<path fill-rule="evenodd" clip-rule="evenodd" fill="#181818" d="M42.408,55.251c0.252-0.49,0.624-0.862,1.115-1.114
	c-0.082,0.568-0.754,0.547-0.836,1.114C42.594,55.251,42.501,55.251,42.408,55.251z"/>
<path fill-rule="evenodd" clip-rule="evenodd" fill="#797979" d="M35.719,50.792c1.19-0.11,1.368-1.233,2.508-1.394
	c-0.208,0.858,0.765,0.536,0.558,1.394c-0.84,0.367-1.72,0.696-1.952,1.673C36.351,52.018,36.018,51.423,35.719,50.792z"/>
<path fill-rule="evenodd" clip-rule="evenodd" fill="#181818" d="M11.471,45.218c0.346-0.583,0.81-1.047,1.393-1.394
	c0,0.093,0,0.186,0,0.279C12.217,44.292,12.119,45.03,11.471,45.218z"/>
<path fill-rule="evenodd" clip-rule="evenodd" fill="#797979" d="M10.356,62.777c1.034-0.36,0.898-1.89,2.23-1.951
	c0.124,0.248,0.244,0.497,0.558,0.557c0.027,1.328-1.279,1.323-1.394,2.509C11.195,63.61,10.56,63.409,10.356,62.777z"/>
<path fill-rule="evenodd" clip-rule="evenodd" fill="#181818" d="M117.659,64.171c0.253-0.492,0.625-0.864,1.116-1.115
	C118.522,63.546,118.15,63.919,117.659,64.171z"/>
<path fill-rule="evenodd" clip-rule="evenodd" fill="#181818" d="M130.203,42.988c0.614,0.035,0.118,1.183,0.278,1.672
	c0.89,0.239,0.861-0.438,1.393-0.557c-0.255,0.488-0.518,0.968-1.393,0.836C130.097,44.58,130.205,43.729,130.203,42.988z"/>
<path fill-rule="evenodd" clip-rule="evenodd" fill="#181818" d="M128.53,18.462c0.572,0.078,0.557,0.744,0.835,1.115
	C128.792,19.499,128.811,18.833,128.53,18.462z"/>
<path fill-rule="evenodd" clip-rule="evenodd" fill="#797979" d="M34.325,53.857c-0.875,0.317-2.034,2.109-2.787,0.837
	c-0.612-0.959,1.255-1.417,1.951-1.951c0.093,0,0.186,0,0.279,0C33.913,53.155,34.181,53.445,34.325,53.857z"/>
<path fill-rule="evenodd" clip-rule="evenodd" fill="#797979" d="M96.478,32.397c0.17-0.667-0.349-2.022,0.278-2.23
	c0,0.65,0,1.301,0,1.951c-0.198,0.452,1.314,0.452,1.116,0c0.465,0,0.928,0,1.393,0c0,0.464,0,0.929,0,1.393
	c-0.756,0.173-2.212-0.354-2.509,0.279c-0.172,0.756,0.354,2.211-0.278,2.508c0-0.929,0-1.857,0-2.787
	C96.931,33.711,96.931,32.198,96.478,32.397z"/>
<path fill-rule="evenodd" clip-rule="evenodd" fill="#797979" d="M96.478,4.247c0.491,0.161,1.639-0.336,1.673,0.279
	c-0.557,0-1.116,0-1.673,0C96.478,4.433,96.478,4.34,96.478,4.247z"/>
<path fill-rule="evenodd" clip-rule="evenodd" fill="#181818" d="M22.062,7.313c-0.047-0.604,0.989-0.126,1.394-0.279
	C23.502,7.639,22.467,7.161,22.062,7.313z"/>
<path fill-rule="evenodd" clip-rule="evenodd" fill="#333333" d="M27.079,7.034c2.229,0,4.459,0,6.689,0c0,0.093,0,0.186,0,0.279
	c-2.23,0-4.46,0-6.689,0C27.079,7.22,27.079,7.127,27.079,7.034z"/>
<path fill-rule="evenodd" clip-rule="evenodd" fill="#797979" d="M102.889,9.543c0.623,0.12,0.112,1.374,0.278,1.951
	c-0.093,0-0.187,0-0.278,0C102.889,10.844,102.889,10.193,102.889,9.543z"/>
<path fill-rule="evenodd" clip-rule="evenodd" fill="#181818" d="M103.167,16.51c0.604-0.047,0.126,0.989,0.278,1.394
	c-0.092,0-0.187,0-0.278,0C103.167,17.439,103.167,16.975,103.167,16.51z"/>
<path fill-rule="evenodd" clip-rule="evenodd" fill="#333333" d="M100.658,17.068c0,0.464,0,0.929,0,1.394
	c-0.604,0.047-0.126-0.989-0.278-1.394C100.473,17.068,100.566,17.068,100.658,17.068z"/>
<path fill-rule="evenodd" clip-rule="evenodd" fill="#181818" d="M103.445,20.691c0.605-0.047,0.126,0.989,0.278,1.394
	c-0.092,0-0.185,0-0.278,0C103.445,21.621,103.445,21.156,103.445,20.691z"/>
<path fill-rule="evenodd" clip-rule="evenodd" fill="#333333" d="M100.938,21.249c0,0.465,0,0.93,0,1.394
	c-0.604,0.047-0.127-0.989-0.279-1.394C100.751,21.249,100.845,21.249,100.938,21.249z"/>
<path fill-rule="evenodd" clip-rule="evenodd" fill="#C5C5C5" d="M103.445,25.43c0-0.651,0-1.301,0-1.952c0.094,0,0.187,0,0.278,0
	C103.56,24.056,104.068,25.31,103.445,25.43z"/>
<path fill-rule="evenodd" clip-rule="evenodd" fill="#181818" d="M91.183,32.397c0.296-0.633,1.753-0.106,2.508-0.279
	c0.16-0.49-0.336-1.638,0.278-1.672c0,0.65,0,1.3,0,1.951C93.042,32.397,92.112,32.397,91.183,32.397z"/>
<path fill-rule="evenodd" clip-rule="evenodd" fill="#181818" d="M86.723,38.808c0.387-0.635,1.941-0.104,2.787-0.279
	C89.123,39.164,87.57,38.632,86.723,38.808z"/>
<path fill-rule="evenodd" clip-rule="evenodd" fill="#797979" d="M49.933,38.808c2.137,0,4.274,0,6.411,0c0,0.093,0,0.186,0,0.278
	c-2.137,0-4.274,0-6.411,0C49.933,38.993,49.933,38.9,49.933,38.808z"/>
<path fill-rule="evenodd" clip-rule="evenodd" fill="#333333" d="M56.344,38.808c2.322,0,4.645,0,6.968,0c0,0.093,0,0.186,0,0.278
	c-2.323,0-4.646,0-6.968,0C56.344,38.993,56.344,38.9,56.344,38.808z"/>
<path fill-rule="evenodd" clip-rule="evenodd" fill="#333333" d="M88.396,41.315c0.558,0,1.114,0,1.673,0
	c-0.036,0.616-1.184,0.119-1.673,0.278C88.396,41.502,88.396,41.409,88.396,41.315z"/>
<path fill-rule="evenodd" clip-rule="evenodd" fill="#333333" d="M20.668,42.152c2.139,0.183,5.014-0.369,6.689,0.278
	c-2.229,0-4.459,0-6.689,0C20.668,42.338,20.668,42.245,20.668,42.152z"/>
<path fill-rule="evenodd" clip-rule="evenodd" fill="#333333" d="M19.275,44.939c2.603,0.184,5.944-0.369,8.083,0.278
	c-2.694,0-5.388,0-8.083,0C19.275,45.125,19.275,45.032,19.275,44.939z"/>
<path fill-rule="evenodd" clip-rule="evenodd" fill="#333333" d="M3.11,45.497c0,1.208,0,2.416,0,3.623
	c-0.641-0.659-0.1-2.502-0.279-3.623C2.924,45.497,3.017,45.497,3.11,45.497z"/>
<path fill-rule="evenodd" clip-rule="evenodd" fill="#333333" d="M46.867,53.021c0-0.743,0-1.486,0-2.229
	C47.328,50.916,47.328,52.898,46.867,53.021z"/>
<path fill-rule="evenodd" clip-rule="evenodd" fill="#181818" d="M44.081,51.35c0.452-0.199,0.452,1.314,0,1.115
	C44.081,52.093,44.081,51.722,44.081,51.35z"/>
<path fill-rule="evenodd" clip-rule="evenodd" fill="#333333" d="M25.685,58.317c0.391-0.462,2.676-0.462,3.066,0
	C27.729,58.317,26.707,58.317,25.685,58.317z"/>
<path fill-rule="evenodd" clip-rule="evenodd" fill="#333333" d="M26.243,67.794c0.557,0,1.115,0,1.672,0
	c-0.035,0.615-1.183,0.118-1.672,0.278C26.243,67.979,26.243,67.887,26.243,67.794z"/>
<path fill-rule="evenodd" clip-rule="evenodd" fill="#FFFFFF" d="M8.405,10.379c3.461-3.042,7.555-5.451,13.657-5.853
	c0.464,0,0.929,0,1.394,0c0.557,0,1.115,0,1.672,0c0.929,0,1.858,0,2.787,0c0.464,0,0.929,0,1.393,0c2.23,0,4.46,0,6.689,0
	c0.093,0,0.186,0,0.279,0c0.557,0,1.115,0,1.673,0c0.092,0,0.185,0,0.278,0c1.672,0,3.344,0,5.017,0c17.373,0,34.746,0,52.119,0
	c0.371,0,0.743,0,1.114,0c0.557,0,1.116,0,1.673,0c2.753,0.499,4.346,2.158,4.738,5.017c0,0.65,0,1.301,0,1.951
	c0.178,1.122-0.363,2.963,0.278,3.623c0,0.464,0,0.929,0,1.393c0,0.465,0,0.929,0,1.394s0,0.929,0,1.394
	c0.023,0.441-0.135,1.063,0.278,1.115c0,0.093,0,0.186,0,0.279c0,0.464,0,0.929,0,1.394s0,0.929,0,1.393c0,0.651,0,1.301,0,1.952
	c-0.018,0.817-0.637,1.035-1.114,1.393c-2.62,0.353-5.563,0.383-5.575,3.345c-0.627,0.208-0.108,1.563-0.278,2.23
	c0,0.371,0,0.743,0,1.114c0,0.93,0,1.858,0,2.787c-0.07,1.044-0.437,1.793-1.114,2.23c-0.49,0.252-0.863,0.624-1.115,1.115
	c-0.97,0.98-2.252,1.649-4.18,1.672c-0.559,0-1.115,0-1.673,0c-2.321,0-4.646,0-6.968,0c-3.346,0.186-7.431-0.37-10.313,0.278
	c-1.206,0-2.415,0-3.623,0c-6.317,0-12.634,0-18.952,0c-0.578,0.167-1.831-0.344-1.951,0.279c-1.686,0.247-2.674,1.293-2.788,2.23
	c-0.089,0.743,0.939,2.396,1.115,2.786c0.044,0.1,0.492,0.162,0.557,0.28c0.731,1.322,1.222,2.612,1.394,3.622
	c0,0.743,0,1.486,0,2.229c-0.05,1.251-0.58,2.021-1.114,2.788c-0.583,0.346-1.048,0.81-1.394,1.393
	c-1.601,1.415-3.86,1.779-5.853,1.115c-2.003-0.668-2.866-3.046-3.902-4.181c-0.17-0.016-0.33-0.041-0.279-0.279
	c-0.145-0.412-0.412-0.702-0.557-1.114c-0.093,0-0.186,0-0.279,0c-1.143-1.83-2.458-3.487-3.624-5.295
	c-0.346-0.861-0.92-1.496-1.672-1.951c-0.384,0.012-0.612-0.132-0.836-0.279c-2.139-0.647-5.48-0.095-8.083-0.278
	c-0.667,0.17-2.022-0.351-2.229,0.278c-1.093,0.022-1.738,0.491-2.508,0.836c-0.492,0.252-0.863,0.624-1.115,1.116
	c0,0.092,0,0.185,0,0.278c-0.093,0-0.187,0-0.279,0c0.16,0.488-0.337,1.637,0.279,1.672c0.983,2.082,1.856,4.274,3.065,6.131
	c0.251,0.492,0.624,0.863,1.115,1.115c1.581,0.741,2.635,2.01,5.017,1.951c-0.047,0.604,0.988,0.126,1.393,0.278
	c0.405-0.152,1.441,0.326,1.394-0.278c0.093,0,0.186,0,0.278,0c1.022,0,2.044,0,3.066,0c0.849-0.013,1.419,0.254,1.672,0.836
	c0.251,0.491,0.623,0.863,1.114,1.115c0.711,0.497,1.141,1.275,1.115,2.509c0,0.649,0,1.3,0,1.95c0,0.371,0,0.743,0,1.114
	c-0.576,0.634-0.57,1.847-1.115,2.509c-0.491,0.252-0.863,0.624-1.114,1.116c-0.642,0.752-1.708,1.078-3.066,1.113
	c-1.393,0-2.787,0-4.181,0c-0.279,0-0.557,0-0.836,0c-0.296-0.632-1.752-0.105-2.509-0.278c-4.016-0.629-7.11-2.18-9.754-4.181
	c-0.717-0.49-1.204-1.213-1.951-1.672c-0.439-0.676-0.998-1.232-1.672-1.672c-3.404-3.564-5.851-8.086-6.132-14.772
	c0-0.465,0-0.929,0-1.394c0-4.088,0-8.175,0-12.264c0-1.765,0-3.53,0-5.295c0-0.929,0-1.858,0-2.787
	c0.645-6.603,3.186-11.307,6.968-14.771C7.782,11.243,8.153,10.87,8.405,10.379z M64.983,7.034c-7.618,0-15.236,0-22.854,0
	c-1.3,0-2.601,0-3.901,0c-0.651,0-1.301,0-1.951,0c-0.093,0-0.186,0-0.279,0c-0.743,0-1.486,0-2.229,0c-2.23,0-4.46,0-6.689,0
	c-0.558,0-1.115,0-1.672,0c-0.651,0-1.301,0-1.951,0c-0.405,0.153-1.441-0.325-1.394,0.279c-5.661,0.377-9.105,2.972-12.542,5.574
	c-0.491,0.252-0.863,0.624-1.115,1.115c-2.512,3.434-5.092,6.801-5.295,12.542c-0.633,0.297-0.106,1.752-0.279,2.509
	c0,1.951,0,3.902,0,5.853c0,0.743,0,1.486,0,2.229c0,1.208,0,2.416,0,3.624c0,1.579,0,3.158,0,4.738
	c0.18,1.121-0.362,2.964,0.279,3.623c0.461,5.113,2.7,8.448,5.017,11.706c0.439,0.675,0.997,1.232,1.672,1.673
	c0.279-0.001,0.332,0.225,0.557,0.278c0.204,0.632,0.839,0.833,1.394,1.114c2.615,1.938,5.592,3.514,9.755,3.902
	c0.035,0.615,1.183,0.118,1.672,0.278c0.372,0,0.743,0,1.115,0c0.65,0,1.3,0,1.951,0c0.49-0.16,1.638,0.337,1.672-0.278
	c0.093,0,0.186,0,0.279,0c0.806-0.124,1.27-0.588,1.394-1.394c-0.063-0.527,0.314-0.615,0.278-1.115
	c0.461-0.211,0.461-2.297,0-2.508c-0.396-0.719-0.652-1.577-1.672-1.673c-0.12-0.623-1.374-0.113-1.951-0.278
	c-0.372,0-0.743,0-1.115,0c-1.394,0-2.787,0-4.181,0c-2.201-0.308-3.872-1.146-5.017-2.509c-0.346-0.583-0.811-1.048-1.394-1.395
	c-1.787-2.115-3.039-4.765-3.902-7.803c0-0.559,0-1.115,0-1.672c-0.008-0.937,0.384-1.475,0.836-1.951
	c0.583-0.346,1.047-0.811,1.393-1.394c0-0.094,0-0.187,0-0.279c1.425-0.713,2.707-1.567,5.017-1.394c0.929,0,1.858,0,2.787,0
	c2.229,0,4.459,0,6.689,0c1.395,0.069,1.786,0.525,2.508,1.114c0.869,0.709,1.797,1.578,2.23,2.23
	c0.434,0.655,0.698,1.091,1.115,1.673c0.814,1.135,1.872,2.178,2.23,3.344c0.092,0,0.186,0,0.279,0
	c0.298,0.631,0.632,1.226,1.114,1.673c1.043,1.613,2.903,4.562,5.574,2.786c0.094,0,0.186,0,0.279,0
	c0.478-0.358,1.095-0.576,1.114-1.394c-0.114-0.671,0.51-0.605,0.279-1.393c0.452,0.199,0.452-1.314,0-1.115
	c-0.481-2.692-3.531-4.975-3.066-8.083c0.095-0.637,0.958-1.462,1.114-1.673c0.201-0.267,0.052-0.614,0.279-0.835
	c0.254-0.246,0.983-0.622,1.394-0.837c0.907-0.473,2.002-0.911,3.066-0.836c1.022,0,2.044,0,3.065,0c2.137,0,4.274,0,6.411,0
	c2.322,0,4.645,0,6.968,0c3.53,0,7.061,0,10.592,0c3.438-0.185,7.617,0.37,10.59-0.278c0.743,0,1.486,0,2.229,0
	c0.848-0.175,2.4,0.356,2.787-0.279c2.765,0.07,4.037-1.351,4.459-3.623c0.453,0.199,0.453-1.314,0-1.115c0-0.093,0-0.186,0-0.279
	c0-0.371,0-0.743,0-1.114c0-0.651,0-1.301,0-1.951c0.057-3.474,1.844-5.219,4.738-5.853c0.743,0,1.486,0,2.23,0
	c0.454,0.125,0.454-1.52,0-1.394c0-0.186,0-0.372,0-0.557c0-0.464,0-0.929,0-1.394c0-0.371,0-0.743,0-1.114
	c-0.049-0.417,0.1-1.029-0.279-1.116c0-0.185,0-0.371,0-0.557c0-0.465,0-0.929,0-1.394c0-1.394,0-2.788,0-4.181
	c-0.166-0.578,0.345-1.831-0.278-1.951c-0.002-2.321-1.226-3.42-3.065-3.902C87.188,6.57,75.111,6.57,64.983,7.034z"/>
<path fill-rule="evenodd" clip-rule="evenodd" fill="#333333" d="M22.062,4.526c-0.047-0.604,0.989-0.126,1.394-0.279
	c0,0.093,0,0.186,0,0.279C22.991,4.526,22.526,4.526,22.062,4.526z"/>
<path fill-rule="evenodd" clip-rule="evenodd" fill="#333333" d="M103.167,11.494c1.105-0.381,1.993-0.979,3.624-0.836
	c1.021,0,2.043,0,3.065,0c0.465,0,0.93,0,1.395,0c0.086,0.378,0.697,0.23,1.113,0.278c1.122-0.192,1.591,0.267,2.509,0.278
	c0.086,0.379,0.697,0.231,1.115,0.279c4.544,0.563,9.342,0.876,12.542,2.787c0.252,0.492,0.623,0.863,1.113,1.115
	c0.479,0.358,1.096,0.576,1.116,1.394c0.278,0.37,0.263,1.037,0.835,1.115c1.282,2.712,2.673,5.318,2.787,9.198
	c0.172,0.756-0.353,2.211,0.278,2.508c0,2.222,0,5.067,0,8.083c0,2.843,0.433,6.176-0.278,7.804
	c-0.056,0.13-0.509,0.174-0.557,0.278c-0.349,0.772-0.764,1.544-2.23,1.673c-0.465,0-0.927,0-1.392,0
	c-0.583,0.118-0.739-0.191-1.116-0.278c-0.25-0.492-0.623-0.864-1.114-1.116c-0.234-0.323-0.368-0.747-0.278-1.394
	c-0.154-0.404,0.325-1.44-0.278-1.394c-2.041,0.468-3.801,1.22-5.854,1.673c0.909,3.642,3.043,6.062,3.344,10.312
	c0,0.743,0,1.487,0,2.23c-0.179,2.422-1.057,4.146-2.229,5.574c-0.492,0.251-0.863,0.623-1.115,1.115
	c-0.125,0.248-0.245,0.498-0.558,0.557c-0.583,0.347-1.048,0.812-1.395,1.394c-2.818,1.919-5.593,3.882-10.032,4.181
	c-0.668,0.17-2.021-0.35-2.23,0.278c-3.159,0-6.318,0-9.476,0c-20.903,0-41.807,0-62.71,0c-1.165,0.143-1.889-0.155-2.508-0.557
	c-0.189-0.647-0.926-0.746-1.115-1.394c0-0.093,0-0.187,0-0.279c0.545-0.662,0.54-1.875,1.115-2.509c0.093,0,0.186,0,0.279,0
	c0.402,0.9,0.808,1.794,1.951,1.952c20.996,0.465,43.942,0.465,64.94,0c2.787,0,5.573,0,8.36,0c0.404-0.152,1.44,0.325,1.395-0.279
	c3.335-0.474,5.642-1.976,8.081-3.344c0.491-0.252,0.863-0.625,1.116-1.115c1.639-1.334,2.835-3.111,3.344-5.574
	c0.461-0.124,0.461-2.106,0-2.23c-0.477-3.609-2.424-5.749-3.065-9.197c0-0.65,0-1.3,0-1.95c1.028-2.503,4.392-2.669,7.246-3.345
	c0.743,0,1.487,0,2.23,0c1.062,0.239,1.606,0.994,1.673,2.229c0.002,0.74-0.106,1.592,0.278,1.951
	c0.875,0.132,1.138-0.348,1.393-0.836c0-0.465,0-0.93,0-1.394c0.458-0.038,0.458-1.913,0-1.951c0-4.088,0-8.176,0-12.264
	c-0.161-0.49,0.336-1.638-0.279-1.672c-0.314-2.844-1.442-4.874-2.229-7.246c-0.278-0.371-0.263-1.037-0.835-1.115
	c-1.565-3.266-6.632-3.031-10.593-3.902c-0.086-0.379-0.696-0.231-1.113-0.279c-1.122,0.192-1.591-0.267-2.509-0.279
	c-0.086-0.378-0.699-0.231-1.115-0.278c-0.278,0-0.558,0-0.836,0c-0.086-0.378-0.697-0.231-1.113-0.279c-0.281,0-0.56,0-0.838,0
	c-0.663-0.463-3.239-0.463-3.9,0c-1.501,0.172-2.654,0.69-3.346,1.672C103.167,13.91,103.167,12.702,103.167,11.494z"/>
<path fill-rule="evenodd" clip-rule="evenodd" fill="#333333" d="M0.323,26.266c0,0.929,0,1.858,0,2.787c-0.093,0-0.186,0-0.279,0
	C0.218,28.205-0.313,26.652,0.323,26.266z"/>
<path fill-rule="evenodd" clip-rule="evenodd" fill="#181818" d="M3.11,26.544c-0.173,0.757,0.354,2.212-0.279,2.509
	C3.003,28.296,2.477,26.841,3.11,26.544z"/>
<path fill-rule="evenodd" clip-rule="evenodd" fill="#333333" d="M46.867,39.086c0.477-0.637,2.127-0.102,3.065-0.278
	c0,0.093,0,0.186,0,0.278C48.911,39.086,47.889,39.086,46.867,39.086z"/>
<path fill-rule="evenodd" clip-rule="evenodd" fill="#333333" d="M10.635,47.448c0,0.557,0,1.113,0,1.672
	C10.178,49.166,10.178,47.402,10.635,47.448z"/>
<path fill-rule="evenodd" clip-rule="evenodd" fill="#181818" d="M26.243,60.826c0.578,0.165,1.831-0.345,1.951,0.278
	c-0.65,0-1.301,0-1.951,0C26.243,61.012,26.243,60.919,26.243,60.826z"/>
<path fill-rule="evenodd" clip-rule="evenodd" fill="#333333" d="M32.653,62.777c0.623,0.119,0.112,1.373,0.279,1.95
	c-0.093,0-0.186,0-0.279,0C32.653,64.077,32.653,63.427,32.653,62.777z"/>
<path fill-rule="evenodd" clip-rule="evenodd" fill="#333333" d="M23.177,70.58c1.394,0,2.788,0,4.181,0
	C26.603,71.043,23.931,71.043,23.177,70.58z"/>
<path fill-rule="evenodd" clip-rule="evenodd" fill="#C5C5C5" d="M20.947,60.826c1.394,0,2.787,0,4.181,0c0,0.093,0,0.186,0,0.278
	C23.822,60.924,21.791,61.469,20.947,60.826z"/>
<path fill-rule="evenodd" clip-rule="evenodd" fill="#797979" d="M19.832,70.302c0.757,0.173,2.212-0.354,2.509,0.278
	C21.584,70.408,20.129,70.934,19.832,70.302z"/>
<path fill-rule="evenodd" clip-rule="evenodd" fill="#797979" d="M98.707,24.594c0.209-0.629,1.564-0.109,2.23-0.28
	c0,0.093,0,0.187,0,0.28C100.193,24.594,99.45,24.594,98.707,24.594z"/>
<path fill-rule="evenodd" clip-rule="evenodd" fill="#333333" d="M46.589,41.873c0.12-0.623,1.373-0.112,1.951-0.279
	c0,0.094,0,0.187,0,0.279C47.889,41.873,47.239,41.873,46.589,41.873z"/>
<path fill-rule="evenodd" clip-rule="evenodd" fill="#333333" d="M13.422,47.448c0,0.557,0,1.113,0,1.672
	c-0.616-0.035-0.119-1.184-0.279-1.672C13.236,47.448,13.329,47.448,13.422,47.448z"/>
<path fill-rule="evenodd" clip-rule="evenodd" fill="#333333" d="M29.866,62.777c0.461,0.211,0.461,2.297,0,2.508
	C29.866,64.449,29.866,63.612,29.866,62.777z"/>
</svg>
