<?xml version="1.0" encoding="utf-8"?>
<!-- Generator: Adobe Illustrator 15.0.0, SVG Export Plug-In  -->
<!DOCTYPE svg PUBLIC "-//W3C//DTD SVG 1.1//EN" "http://www.w3.org/Graphics/SVG/1.1/DTD/svg11.dtd" [
	<!ENTITY ns_flows "http://ns.adobe.com/Flows/1.0/">
]>
<svg version="1.1"
	 xmlns="http://www.w3.org/2000/svg" xmlns:xlink="http://www.w3.org/1999/xlink" xmlns:a="http://ns.adobe.com/AdobeSVGViewerExtensions/3.0/"
	 x="0px" y="0px" width="142px" height="142px" viewBox="-1.669 -34.62 142 142" enable-background="new -1.669 -34.62 142 142"
	 xml:space="preserve">
<defs>
</defs>
<path fill-rule="evenodd" clip-rule="evenodd" fill="#323232" d="M51.286,0.341c-0.126-0.455,1.519-0.455,1.393,0
	C52.215,0.341,51.75,0.341,51.286,0.341z"/>
<path fill-rule="evenodd" clip-rule="evenodd" fill="#181818" d="M52.679,0.341c0.633,0.297,0.106,1.752,0.279,2.508
	C52.325,2.554,52.852,1.098,52.679,0.341z"/>
<path fill-rule="evenodd" clip-rule="evenodd" fill="#181818" d="M77.763,2.85c2.232-0.464,6.407-0.464,8.641,0
	C83.523,2.85,80.642,2.85,77.763,2.85z"/>
<path fill-rule="evenodd" clip-rule="evenodd" fill="#181818" d="M105.076,2.85c0.939-0.463,3.801-0.463,4.738,0
	C108.235,2.85,106.657,2.85,105.076,2.85z"/>
<path fill-rule="evenodd" clip-rule="evenodd" fill="#181818" d="M110.652,2.85c0.033-0.616,1.182-0.118,1.673-0.278
	c0,0.093,0,0.186,0,0.278C111.765,2.85,111.208,2.85,110.652,2.85z"/>
<path fill-rule="evenodd" clip-rule="evenodd" fill="#767676" d="M24.25,3.128c0-0.093,0-0.186,0-0.279c0.836,0,1.672,0,2.508,0
	c0,0.093,0,0.186,0,0.279C25.923,3.128,25.086,3.128,24.25,3.128z"/>
<path fill-rule="evenodd" clip-rule="evenodd" fill="#C6C6C6" d="M26.759,3.128c0-0.093,0-0.186,0-0.279c0.743,0,1.487,0,2.23,0
	c0,0.093,0,0.186,0,0.279C28.246,3.128,27.502,3.128,26.759,3.128z"/>
<path fill-rule="evenodd" clip-rule="evenodd" fill="#767676" d="M28.989,3.128c0-0.093,0-0.186,0-0.279c1.486,0,2.973,0,4.459,0
	c0,0.093,0,0.186,0,0.279C31.961,3.128,30.475,3.128,28.989,3.128z"/>
<path fill-rule="evenodd" clip-rule="evenodd" fill="#323232" d="M33.448,3.128c0-0.093,0-0.186,0-0.279c3.066,0,6.132,0,9.198,0
	c0,0.093,0,0.186,0,0.279C39.58,3.128,36.514,3.128,33.448,3.128z"/>
<path fill-rule="evenodd" clip-rule="evenodd" fill="#C6C6C6" d="M51.564,3.128c-0.2-0.452,1.314-0.452,1.114,0
	C52.308,3.128,51.936,3.128,51.564,3.128z"/>
<path fill-rule="evenodd" clip-rule="evenodd" fill="#C6C6C6" d="M66.336,3.128c0-0.093,0-0.186,0-0.279c2.137,0,4.273,0,6.411,0
	C71.164,3.497,68.382,2.945,66.336,3.128z"/>
<path fill-rule="evenodd" clip-rule="evenodd" fill="#C6C6C6" d="M24.808,5.637c1.584-0.464,5.104-0.464,6.689,0
	C29.268,5.637,27.038,5.637,24.808,5.637z"/>
<path fill-rule="evenodd" clip-rule="evenodd" fill="#C6C6C6" d="M58.253,5.637c2.974-0.648,7.153-0.094,10.591-0.278
	c0,0.093,0,0.186,0,0.278C65.314,5.637,61.783,5.637,58.253,5.637z"/>
<path fill-rule="evenodd" clip-rule="evenodd" fill="#767676" d="M68.844,5.637c0-0.092,0-0.185,0-0.278c3.065,0,6.133,0,9.198,0
	c0,0.093,0,0.186,0,0.278C74.977,5.637,71.91,5.637,68.844,5.637z"/>
<path fill-rule="evenodd" clip-rule="evenodd" fill="#767676" d="M86.683,5.637c0-0.092,0-0.185,0-0.278c6.223,0,12.449,0,18.674,0
	c0,0.093,0,0.186,0,0.278C99.132,5.637,92.906,5.637,86.683,5.637z"/>
<path fill-rule="evenodd" clip-rule="evenodd" fill="#181818" d="M33.448,5.637c2.88,0,5.76,0,8.641,0
	C39.855,6.101,35.681,6.101,33.448,5.637z"/>
<path fill-rule="evenodd" clip-rule="evenodd" fill="#181818" d="M52.679,5.637c0.093,0,0.187,0,0.279,0
	c-0.175,0.847,0.356,2.401-0.279,2.788C52.679,7.495,52.679,6.566,52.679,5.637z"/>
<path fill-rule="evenodd" clip-rule="evenodd" fill="#323232" d="M51.286,6.752c0.615,0.034,0.118,1.182,0.278,1.672
	C50.949,8.39,51.446,7.242,51.286,6.752z"/>
<path fill-rule="evenodd" clip-rule="evenodd" fill="#181818" d="M107.865,9.261c0.389-0.462,2.675-0.462,3.065,0
	C109.908,9.261,108.886,9.261,107.865,9.261z"/>
<path fill-rule="evenodd" clip-rule="evenodd" fill="#181818" d="M112.325,9.261c0.416,0.047,1.027-0.1,1.113,0.278
	C113.022,9.491,112.411,9.639,112.325,9.261z"/>
<path fill-rule="evenodd" clip-rule="evenodd" fill="#181818" d="M115.947,9.817c0.416,0.048,1.029-0.1,1.115,0.279
	C116.644,10.049,116.033,10.196,115.947,9.817z"/>
<path fill-rule="evenodd" clip-rule="evenodd" fill="#181818" d="M107.586,12.047c0.661-0.463,3.237-0.463,3.9,0
	C110.187,12.047,108.886,12.047,107.586,12.047z"/>
<path fill-rule="evenodd" clip-rule="evenodd" fill="#181818" d="M112.325,12.047c0.416,0.047,1.027-0.1,1.113,0.279
	C113.022,12.279,112.411,12.426,112.325,12.047z"/>
<path fill-rule="evenodd" clip-rule="evenodd" fill="#181818" d="M114.274,12.326c0.416,0.047,1.029-0.1,1.115,0.278
	C114.973,12.557,114.36,12.705,114.274,12.326z"/>
<path fill-rule="evenodd" clip-rule="evenodd" fill="#181818" d="M115.947,12.604c0.416,0.048,1.029-0.1,1.115,0.279
	C116.644,12.836,116.033,12.983,115.947,12.604z"/>
<path fill-rule="evenodd" clip-rule="evenodd" fill="#181818" d="M101.732,12.883c-0.048,0.417,0.101,1.029-0.278,1.115
	C101.501,13.582,101.354,12.97,101.732,12.883z"/>
<path fill-rule="evenodd" clip-rule="evenodd" fill="#181818" d="M117.898,12.883c0.417,0.048,1.027-0.1,1.113,0.279
	C118.595,13.115,117.984,13.262,117.898,12.883z"/>
<path fill-rule="evenodd" clip-rule="evenodd" fill="#181818" d="M101.454,14.277c0.636,0.387,0.104,1.94,0.278,2.788
	C101.097,16.678,101.628,15.125,101.454,14.277z"/>
<path fill-rule="evenodd" clip-rule="evenodd" fill="#181818" d="M104.241,15.671c0.623,0.12,0.114,1.374,0.278,1.95
	C103.896,17.501,104.407,16.248,104.241,15.671z"/>
<path fill-rule="evenodd" clip-rule="evenodd" fill="#181818" d="M101.732,18.737c0.634,0.296,0.106,1.751,0.279,2.508
	C101.379,20.948,101.905,19.493,101.732,18.737z"/>
<path fill-rule="evenodd" clip-rule="evenodd" fill="#181818" d="M104.519,19.573c0.629,0.207,0.11,1.563,0.278,2.229
	C104.17,21.595,104.689,20.239,104.519,19.573z"/>
<path fill-rule="evenodd" clip-rule="evenodd" fill="#181818" d="M99.781,23.196c0.053-0.413,0.676-0.256,1.116-0.28
	C100.845,23.33,100.222,23.173,99.781,23.196z"/>
<path fill-rule="evenodd" clip-rule="evenodd" fill="#767676" d="M135.177,24.311c0.633,0.296,0.106,1.752,0.278,2.508
	C134.825,26.523,135.349,25.067,135.177,24.311z"/>
<path fill-rule="evenodd" clip-rule="evenodd" fill="#767676" d="M3.904,25.705c0.023-0.442-0.133-1.063,0.279-1.115
	c0,0.372,0,0.743,0,1.115C4.09,25.705,3.998,25.705,3.904,25.705z"/>
<path fill-rule="evenodd" clip-rule="evenodd" fill="#181818" d="M137.963,25.146c0.379,0.087,0.232,0.698,0.281,1.115
	c-0.095,0-0.187,0-0.281,0C137.963,25.89,137.963,25.519,137.963,25.146z"/>
<path fill-rule="evenodd" clip-rule="evenodd" fill="#181818" d="M132.668,25.425c0.615,0.035,0.118,1.182,0.279,1.672
	C132.333,27.063,132.83,25.916,132.668,25.425z"/>
<path fill-rule="evenodd" clip-rule="evenodd" fill="#323232" d="M137.963,26.262c0.095,0,0.187,0,0.281,0c0,1.022,0,2.043,0,3.066
	c-0.095,0-0.187,0-0.281,0C137.963,28.305,137.963,27.284,137.963,26.262z"/>
<path fill-rule="evenodd" clip-rule="evenodd" fill="#767676" d="M1.118,26.819c0.093,0,0.186,0,0.279,0c0,0.743,0,1.486,0,2.23
	c-0.093,0-0.186,0-0.279,0C1.118,28.305,1.118,27.562,1.118,26.819z"/>
<path fill-rule="evenodd" clip-rule="evenodd" fill="#C6C6C6" d="M3.904,27.655c0,1.58,0,3.159,0,4.738
	C3.441,31.455,3.441,28.593,3.904,27.655z"/>
<path fill-rule="evenodd" clip-rule="evenodd" fill="#181818" d="M97.83,28.492c-0.183,2.046,0.369,4.827-0.278,6.41
	C97.736,32.855,97.182,30.074,97.83,28.492z"/>
<path fill-rule="evenodd" clip-rule="evenodd" fill="#767676" d="M135.456,28.77c0,3.159,0,6.317,0,9.476
	C134.993,35.735,134.993,31.281,135.456,28.77z"/>
<path fill-rule="evenodd" clip-rule="evenodd" fill="#C6C6C6" d="M1.118,29.049c0.093,0,0.186,0,0.279,0c0,0.465,0,0.929,0,1.393
	c-0.093,0-0.186,0-0.279,0C1.118,29.978,1.118,29.514,1.118,29.049z"/>
<path fill-rule="evenodd" clip-rule="evenodd" fill="#181818" d="M95.042,29.049c0,0.465,0,0.929,0,1.393
	C94.588,30.568,94.588,28.923,95.042,29.049z"/>
<path fill-rule="evenodd" clip-rule="evenodd" fill="#181818" d="M137.963,29.328c0.095,0,0.187,0,0.281,0
	c-0.16,0.49,0.336,1.637-0.281,1.672C137.963,30.442,137.963,29.885,137.963,29.328z"/>
<path fill-rule="evenodd" clip-rule="evenodd" fill="#767676" d="M1.118,30.442c0.093,0,0.186,0,0.279,0c0,1.116,0,2.23,0,3.345
	c-0.093,0-0.186,0-0.279,0C1.118,32.672,1.118,31.558,1.118,30.442z"/>
<path fill-rule="evenodd" clip-rule="evenodd" fill="#C6C6C6" d="M137.963,33.23c0,0.557,0,1.114,0,1.671
	C137.507,34.947,137.507,33.184,137.963,33.23z"/>
<path fill-rule="evenodd" clip-rule="evenodd" fill="#181818" d="M3.904,33.508c0.414,0.051,0.256,0.673,0.279,1.115
	c-0.093,0-0.186,0-0.279,0C3.904,34.251,3.904,33.88,3.904,33.508z"/>
<path fill-rule="evenodd" clip-rule="evenodd" fill="#323232" d="M1.118,33.787c0.093,0,0.186,0,0.279,0c0,0.465,0,0.93,0,1.394
	c-0.093,0-0.186,0-0.279,0C1.118,34.716,1.118,34.251,1.118,33.787z"/>
<path fill-rule="evenodd" clip-rule="evenodd" fill="#181818" d="M1.118,35.18c0.093,0,0.186,0,0.279,0c0,0.743,0,1.486,0,2.23
	C0.768,37.203,1.288,35.847,1.118,35.18z"/>
<path fill-rule="evenodd" clip-rule="evenodd" fill="#181818" d="M137.963,36.574c0.605-0.047,0.127,0.989,0.281,1.394
	c-0.095,0-0.187,0-0.281,0C137.963,37.503,137.963,37.039,137.963,36.574z"/>
<path fill-rule="evenodd" clip-rule="evenodd" fill="#181818" d="M88.354,37.41c0.386-0.635,1.94-0.104,2.788-0.279
	C90.755,37.767,89.201,37.235,88.354,37.41z"/>
<path fill-rule="evenodd" clip-rule="evenodd" fill="#181818" d="M48.22,37.688c7.804-0.65,16.816-0.093,25.084-0.278
	C65.5,38.06,56.488,37.503,48.22,37.688z"/>
<path fill-rule="evenodd" clip-rule="evenodd" fill="#181818" d="M1.396,37.968c0,0.65,0,1.3,0,1.95c-0.093,0-0.186,0-0.279,0
	C1.283,39.341,0.773,38.088,1.396,37.968z"/>
<path fill-rule="evenodd" clip-rule="evenodd" fill="#323232" d="M137.963,37.968c0.095,0,0.187,0,0.281,0c0,0.557,0,1.115,0,1.672
	c-0.095,0-0.187,0-0.281,0C137.963,39.083,137.963,38.524,137.963,37.968z"/>
<path fill-rule="evenodd" clip-rule="evenodd" fill="#181818" d="M127.374,39.361c0.209-0.629,1.563-0.109,2.23-0.278
	c0,0.092,0,0.185,0,0.278C128.861,39.361,128.117,39.361,127.374,39.361z"/>
<path fill-rule="evenodd" clip-rule="evenodd" fill="#181818" d="M132.948,39.361c0.458-0.046,0.458,1.718,0,1.672
	C132.948,40.476,132.948,39.918,132.948,39.361z"/>
<path fill-rule="evenodd" clip-rule="evenodd" fill="#767676" d="M137.963,39.64c0.095,0,0.187,0,0.281,0c0,1.58,0,3.159,0,4.738
	c-0.095,0-0.187,0-0.281,0C137.963,42.799,137.963,41.22,137.963,39.64z"/>
<path fill-rule="evenodd" clip-rule="evenodd" fill="#323232" d="M1.118,39.918c0.093,0,0.186,0,0.279,0c0,0.837,0,1.673,0,2.509
	c-0.093,0-0.186,0-0.279,0C1.118,41.591,1.118,40.755,1.118,39.918z"/>
<path fill-rule="evenodd" clip-rule="evenodd" fill="#181818" d="M83.896,40.196c1.767-0.646,4.734-0.094,6.966-0.278
	C89.095,40.566,86.127,40.014,83.896,40.196z"/>
<path fill-rule="evenodd" clip-rule="evenodd" fill="#181818" d="M47.941,40.476c5.947-0.649,13.099-0.093,19.51-0.279
	C61.504,40.847,54.352,40.29,47.941,40.476z"/>
<path fill-rule="evenodd" clip-rule="evenodd" fill="#181818" d="M3.904,40.476c0.093,0,0.186,0,0.279,0
	c-0.16,0.49,0.336,1.638-0.279,1.672C3.904,41.591,3.904,41.033,3.904,40.476z"/>
<path fill-rule="evenodd" clip-rule="evenodd" fill="#181818" d="M19.233,41.033c2.326-0.464,6.594-0.464,8.919,0
	C25.18,41.033,22.207,41.033,19.233,41.033z"/>
<path fill-rule="evenodd" clip-rule="evenodd" fill="#181818" d="M128.49,41.869c0.604-0.047,0.124,0.989,0.278,1.394
	C128.164,43.31,128.642,42.274,128.49,41.869z"/>
<path fill-rule="evenodd" clip-rule="evenodd" fill="#767676" d="M1.118,42.427c0.093,0,0.186,0,0.279,0c0,0.558,0,1.115,0,1.673
	c-0.093,0-0.186,0-0.279,0C1.118,43.542,1.118,42.984,1.118,42.427z"/>
<path fill-rule="evenodd" clip-rule="evenodd" fill="#181818" d="M120.127,42.706c0,0.65,0,1.3,0,1.95
	C119.668,44.618,119.668,42.743,120.127,42.706z"/>
<path fill-rule="evenodd" clip-rule="evenodd" fill="#181818" d="M42.088,42.984c0.413,0.051,0.255,0.673,0.278,1.115
	C41.954,44.047,42.111,43.425,42.088,42.984z"/>
<path fill-rule="evenodd" clip-rule="evenodd" fill="#181818" d="M18.397,43.82c2.604-0.464,7.151-0.464,9.755,0
	C24.901,43.82,21.649,43.82,18.397,43.82z"/>
<path fill-rule="evenodd" clip-rule="evenodd" fill="#767676" d="M135.177,45.772c0.094,0,0.187,0,0.278,0
	c-0.152,0.403,0.326,1.439-0.278,1.392C135.177,46.7,135.177,46.236,135.177,45.772z"/>
<path fill-rule="evenodd" clip-rule="evenodd" fill="#181818" d="M11.708,46.051c0,0.557,0,1.113,0,1.672
	C11.251,47.769,11.251,46.005,11.708,46.051z"/>
<path fill-rule="evenodd" clip-rule="evenodd" fill="#181818" d="M131.277,46.051c0.465,0,0.927,0,1.392,0
	C132.795,46.505,131.15,46.505,131.277,46.051z"/>
<path fill-rule="evenodd" clip-rule="evenodd" fill="#181818" d="M14.496,46.329c0,0.371,0,0.743,0,1.115
	C14.044,47.644,14.044,46.13,14.496,46.329z"/>
<path fill-rule="evenodd" clip-rule="evenodd" fill="#181818" d="M45.154,49.674c0.457-0.046,0.457,1.718,0,1.672
	C45.154,50.789,45.154,50.23,45.154,49.674z"/>
<path fill-rule="evenodd" clip-rule="evenodd" fill="#181818" d="M47.941,49.674c0.459,0.038,0.459,1.912,0,1.95
	C47.941,50.974,47.941,50.324,47.941,49.674z"/>
<path fill-rule="evenodd" clip-rule="evenodd" fill="#181818" d="M123.193,53.854c0.461,0.124,0.461,2.106,0,2.23
	C123.193,55.341,123.193,54.597,123.193,53.854z"/>
<path fill-rule="evenodd" clip-rule="evenodd" fill="#181818" d="M125.98,53.854c0.46,0.124,0.46,2.106,0,2.23
	C125.98,55.341,125.98,54.597,125.98,53.854z"/>
<path fill-rule="evenodd" clip-rule="evenodd" fill="#181818" d="M26.759,56.92c0.301-0.462,2.487-0.462,2.787,0
	C28.617,56.92,27.688,56.92,26.759,56.92z"/>
<path fill-rule="evenodd" clip-rule="evenodd" fill="#181818" d="M42.088,57.198c0.052-0.412,0.673-0.255,1.114-0.278
	C43.151,57.333,42.53,57.176,42.088,57.198z"/>
<path fill-rule="evenodd" clip-rule="evenodd" fill="#181818" d="M26.202,59.707c0.48-0.462,2.864-0.462,3.344,0
	C28.431,59.707,27.316,59.707,26.202,59.707z"/>
<path fill-rule="evenodd" clip-rule="evenodd" fill="#181818" d="M30.939,61.38c0.636,0.387,0.104,1.939,0.279,2.786
	C30.583,63.779,31.114,62.226,30.939,61.38z"/>
<path fill-rule="evenodd" clip-rule="evenodd" fill="#181818" d="M33.727,61.38c0.638,0.477,0.102,2.126,0.279,3.064
	C33.368,63.968,33.903,62.317,33.727,61.38z"/>
<path fill-rule="evenodd" clip-rule="evenodd" fill="#181818" d="M89.748,62.494c0.125-0.46,2.105-0.46,2.23,0
	c-0.093,0-0.187,0-0.278,0C91.048,62.494,90.397,62.494,89.748,62.494z"/>
<path fill-rule="evenodd" clip-rule="evenodd" fill="#323232" d="M91.7,62.494c0.092,0,0.186,0,0.278,0c0,1.301,0,2.601,0,3.902
	C91.334,65.645,91.877,63.708,91.7,62.494z"/>
<path fill-rule="evenodd" clip-rule="evenodd" fill="#181818" d="M109.257,66.396c-0.046-0.605,0.989-0.127,1.395-0.279
	c0,0.093,0,0.186,0,0.279C110.187,66.396,109.722,66.396,109.257,66.396z"/>
<path fill-rule="evenodd" clip-rule="evenodd" fill="#767676" d="M23.136,66.675c-0.441-0.023-1.063,0.134-1.115-0.278
	c0.372,0,0.743,0,1.115,0C23.136,66.489,23.136,66.582,23.136,66.675z"/>
<path fill-rule="evenodd" clip-rule="evenodd" fill="#C6C6C6" d="M113.438,66.675c0-0.093,0-0.186,0-0.278c0.651,0,1.301,0,1.951,0
	C115.269,67.02,114.015,66.51,113.438,66.675z"/>
<path fill-rule="evenodd" clip-rule="evenodd" fill="#C6C6C6" d="M96.715,69.183c0.481-0.462,2.863-0.462,3.344,0
	c-0.37,0-0.743,0-1.113,0C98.203,69.183,97.459,69.183,96.715,69.183z"/>
<path fill-rule="evenodd" clip-rule="evenodd" fill="#C6C6C6" d="M107.027,69.183c0.038-0.459,1.914-0.459,1.952,0
	C108.328,69.183,107.678,69.183,107.027,69.183z"/>
<path fill-rule="evenodd" clip-rule="evenodd" fill="#C6C6C6" d="M112.603,69.183c0.296-0.632,1.751-0.105,2.508-0.278
	c0,0.093,0,0.187,0,0.278C114.274,69.183,113.438,69.183,112.603,69.183z"/>
<path fill-rule="evenodd" clip-rule="evenodd" fill="#767676" d="M24.808,69.462c0-0.093,0-0.186,0-0.279c2.508,0,5.017,0,7.525,0
	c0,0.094,0,0.187,0,0.279C29.825,69.462,27.316,69.462,24.808,69.462z"/>
<path fill-rule="evenodd" clip-rule="evenodd" fill="#181818" d="M91.978,69.462c0-0.093,0-0.186,0-0.279c1.578,0,3.157,0,4.737,0
	c0.744,0,1.487,0,2.23,0C97.178,69.831,94.209,69.278,91.978,69.462z"/>
<path fill-rule="evenodd" clip-rule="evenodd" fill="#767676" d="M7.807,10.654c0.252-0.492,0.624-0.863,1.115-1.115
	C8.669,10.03,8.298,10.402,7.807,10.654z"/>
<path fill-rule="evenodd" clip-rule="evenodd" fill="#181818" d="M7.249,61.38c0.768,0.532,1.418,1.183,1.951,1.95
	C8.433,62.797,7.782,62.146,7.249,61.38z"/>
<path fill-rule="evenodd" clip-rule="evenodd" fill="#C6C6C6" d="M9.2,63.33c-0.533-0.768-1.183-1.418-1.951-1.95
	c0-0.094,0-0.187,0-0.278c0.953,0.718,1.789,1.554,2.508,2.508C9.532,63.557,9.48,63.33,9.2,63.33z"/>
<path fill-rule="evenodd" clip-rule="evenodd" fill="#323232" d="M32.333,69.462c0-0.093,0-0.186,0-0.279
	c19.138,0,38.275,0,57.414,0c0.571,0.917,0.15,2.823,0.279,4.182c-0.644-0.752-0.099-2.688-0.279-3.902
	C70.609,69.462,51.472,69.462,32.333,69.462z"/>
<path fill-rule="evenodd" clip-rule="evenodd" fill="#767676" d="M130.161,62.773c0.44-0.676,0.998-1.233,1.673-1.672
	C131.393,61.775,130.835,62.333,130.161,62.773z"/>
<path fill-rule="evenodd" clip-rule="evenodd" fill="#323232" d="M130.161,8.981c0.768,0.534,1.418,1.184,1.951,1.951
	C131.344,10.399,130.694,9.749,130.161,8.981z"/>
<path fill-rule="evenodd" clip-rule="evenodd" fill="#767676" d="M51.286,0.341c0.464,0,0.929,0,1.393,0
	c0.173,0.757-0.354,2.212,0.279,2.508c4.459,0,8.918,0,13.378,0c0,0.093,0,0.186,0,0.279c-4.553,0-9.105,0-13.657,0
	c0.2-0.452-1.314-0.452-1.114,0c-2.973,0-5.946,0-8.919,0c0-0.093,0-0.186,0-0.279c2.787,0,5.574,0,8.361,0
	C51.64,2.554,51.113,1.098,51.286,0.341z"/>
<path fill-rule="evenodd" clip-rule="evenodd" fill="#C6C6C6" d="M8.921,13.441c0.521-1.152,1.357-1.988,2.508-2.508
	c-0.124,0.248-0.244,0.498-0.557,0.557c-0.583,0.346-1.047,0.811-1.394,1.394C9.355,13.132,9.234,13.382,8.921,13.441z"/>
<path fill-rule="evenodd" clip-rule="evenodd" fill="#323232" d="M9.479,59.707c0.675,0.439,1.232,0.996,1.672,1.673
	C10.476,60.939,9.919,60.383,9.479,59.707z"/>
<path fill-rule="evenodd" clip-rule="evenodd" fill="#C6C6C6" d="M128.209,61.102c0.623-0.958,1.591-1.57,2.229-2.51
	C130.079,59.811,129.033,60.345,128.209,61.102z"/>
<path fill-rule="evenodd" clip-rule="evenodd" fill="#C6C6C6" d="M129.882,12.326c-0.647-0.189-0.745-0.927-1.393-1.115
	c-0.248-0.124-0.499-0.245-0.559-0.558C128.792,11,129.427,11.574,129.882,12.326z"/>
<path fill-rule="evenodd" clip-rule="evenodd" fill="#181818" d="M128.49,11.211c0.647,0.188,0.745,0.926,1.393,1.115
	c0,0.093,0,0.186,0,0.278C129.299,12.259,128.834,11.794,128.49,11.211z"/>
<path fill-rule="evenodd" clip-rule="evenodd" fill="#181818" d="M96.159,25.425c0.345-0.583,0.81-1.047,1.393-1.393
	C97.207,24.615,96.742,25.08,96.159,25.425z"/>
<path fill-rule="evenodd" clip-rule="evenodd" fill="#181818" d="M42.924,40.196c0.252-0.49,0.623-0.862,1.115-1.113
	C43.787,39.573,43.416,39.945,42.924,40.196z"/>
<path fill-rule="evenodd" clip-rule="evenodd" fill="#181818" d="M39.023,52.739c0.582,0.347,1.047,0.81,1.393,1.394
	C39.833,53.787,39.368,53.322,39.023,52.739z"/>
<path fill-rule="evenodd" clip-rule="evenodd" fill="#181818" d="M32.054,43.263c0.492,0.252,0.864,0.624,1.115,1.115
	C32.678,44.126,32.306,43.754,32.054,43.263z"/>
<path fill-rule="evenodd" clip-rule="evenodd" fill="#181818" d="M13.102,51.346c0.374,0.184,0.519,0.596,0.558,1.114
	C13.286,52.277,13.14,51.864,13.102,51.346z"/>
<path fill-rule="evenodd" clip-rule="evenodd" fill="#181818" d="M9.479,12.883c0.346-0.583,0.811-1.047,1.394-1.394
	C10.526,12.073,10.062,12.538,9.479,12.883z"/>
<path fill-rule="evenodd" clip-rule="evenodd" fill="#181818" d="M129.604,12.883c0.566,0.083,0.547,0.755,1.113,0.836
	c0.238-0.051,0.265,0.108,0.278,0.279C130.18,13.979,129.962,13.361,129.604,12.883z"/>
<path fill-rule="evenodd" clip-rule="evenodd" fill="#181818" d="M132.948,16.785c0.146,0.413,0.412,0.702,0.559,1.115
	C133.446,18.641,132.388,16.664,132.948,16.785z"/>
<path fill-rule="evenodd" clip-rule="evenodd" fill="#181818" d="M98.108,27.376c0.253-0.492,0.625-0.863,1.116-1.115
	C98.971,26.753,98.601,27.125,98.108,27.376z"/>
<path fill-rule="evenodd" clip-rule="evenodd" fill="#181818" d="M44.875,56.362c0.252-0.491,0.624-0.862,1.115-1.115
	C45.739,55.739,45.367,56.11,44.875,56.362z"/>
<path fill-rule="evenodd" clip-rule="evenodd" fill="#181818" d="M36.793,54.412c0.767,0.532,1.418,1.183,1.951,1.95
	C37.976,55.829,37.325,55.179,36.793,54.412z"/>
<path fill-rule="evenodd" clip-rule="evenodd" fill="#181818" d="M30.104,45.214c0.491,0.252,0.863,0.623,1.115,1.115
	C30.727,46.076,30.355,45.705,30.104,45.214z"/>
<path fill-rule="evenodd" clip-rule="evenodd" fill="#181818" d="M15.611,50.23c0.374,0.184,0.519,0.597,0.557,1.115
	C15.794,51.162,15.649,50.75,15.611,50.23z"/>
<path fill-rule="evenodd" clip-rule="evenodd" fill="#181818" d="M131.277,41.591c0.775,0.652-0.293,1.625,0.835,1.672
	c0.36,0.016,0.442-0.576,0.836-0.557c-0.255,0.488-0.518,0.968-1.393,0.836C131.17,43.183,131.279,42.331,131.277,41.591z"/>
<path fill-rule="evenodd" clip-rule="evenodd" fill="#181818" d="M118.733,62.773c0.253-0.492,0.625-0.864,1.116-1.115
	C119.596,62.148,119.224,62.521,118.733,62.773z"/>
<path fill-rule="evenodd" clip-rule="evenodd" fill="#181818" d="M134.621,20.966c-0.047,0.807-0.936-1.219-0.279-1.115
	C134.305,20.352,134.682,20.439,134.621,20.966z"/>
<path fill-rule="evenodd" clip-rule="evenodd" fill="#323232" d="M135.177,44.378c-0.673,0.719-1.16,1.627-2.509,1.673
	c-0.465,0-0.927,0-1.392,0c-0.583,0.118-0.739-0.191-1.116-0.278c-0.25-0.492-0.623-0.864-1.114-1.116
	c-0.234-0.323-0.368-0.747-0.278-1.394c-0.154-0.404,0.325-1.44-0.278-1.394c-2.041,0.468-3.801,1.22-5.854,1.673
	c0.909,3.642,3.043,6.062,3.344,10.312c0,0.743,0,1.487,0,2.23c-0.179,2.422-1.057,4.146-2.229,5.574
	c-0.492,0.251-0.863,0.623-1.115,1.115c-0.125,0.248-0.245,0.498-0.558,0.557c-0.583,0.347-1.048,0.812-1.395,1.394
	c-0.226,0.053-0.278,0.279-0.557,0.279c-0.37,0.278-0.842,0.459-1.116,0.836c-1.05,0.342-2.224,0.563-3.622,0.558
	c-0.65,0-1.3,0-1.951,0c-0.93,0-1.857,0-2.786,0c0-0.094,0-0.187,0-0.279c3.335-0.474,5.642-1.976,8.081-3.344
	c0.491-0.252,0.863-0.625,1.116-1.115c1.639-1.334,2.835-3.111,3.344-5.574c0.461-0.124,0.461-2.106,0-2.23
	c-0.477-3.609-2.424-5.749-3.065-9.197c0-0.65,0-1.3,0-1.95c1.028-2.503,4.392-2.669,7.246-3.345c0.743,0,1.487,0,2.23,0
	c1.062,0.239,1.606,0.994,1.673,2.229c0.002,0.74-0.106,1.592,0.278,1.951c0.875,0.132,1.138-0.348,1.393-0.836
	c0-0.559,0-1.115,0-1.673c0.458,0.046,0.458-1.718,0-1.672c0-4.088,0-8.176,0-12.264c-0.161-0.49,0.336-1.638-0.279-1.672
	c-0.118-1.833-0.869-3.033-1.113-4.738c0.881-0.327,1.905-0.509,2.508-1.115c0.236-0.051,0.263,0.108,0.278,0.278
	c-0.656-0.104,0.232,1.922,0.279,1.115c0.576,0.725,0.591,2.01,0.557,3.344c0.172,0.756-0.353,2.212,0.278,2.508
	c0,0.65,0,1.301,0,1.951c-0.463,2.511-0.463,6.965,0,9.476c0,1.858,0,3.717,0,5.574C135.185,43.828,135.239,44.161,135.177,44.378z"
	/>
<path fill-rule="evenodd" clip-rule="evenodd" fill="#181818" d="M129.046,44.656c0.491,0.252,0.864,0.624,1.114,1.116
	C129.669,45.52,129.297,45.148,129.046,44.656z"/>
<path fill-rule="evenodd" clip-rule="evenodd" fill="#181818" d="M122.636,62.773c0.252-0.492,0.623-0.864,1.115-1.115
	C123.5,62.148,123.126,62.521,122.636,62.773z"/>
<path fill-rule="evenodd" clip-rule="evenodd" fill="#181818" d="M120.684,64.724c0.347-0.582,0.812-1.047,1.395-1.394
	C121.732,63.913,121.267,64.378,120.684,64.724z"/>
<path fill-rule="evenodd" clip-rule="evenodd" fill="#181818" d="M119.011,65.839c0.274-0.377,0.746-0.558,1.116-0.836
	c-0.054,0.226-0.28,0.277-0.278,0.557C119.803,65.887,119.34,65.795,119.011,65.839z"/>
<path fill-rule="evenodd" clip-rule="evenodd" fill="#767676" d="M5.02,52.182c1.392,0.394,2.795-1.814,3.065,0
	c0.93,1.352-1.986,0.884-2.229,1.951C5.385,53.675,5.51,52.621,5.02,52.182z"/>
<path fill-rule="evenodd" clip-rule="evenodd" fill="#767676" d="M2.511,53.018c0.471,0.459,0.346,1.513,0.836,1.951
	c-1.242-0.034-1.729,0.688-2.788,0.836c-0.12-0.53-0.6-0.7-0.557-1.393C0.604,53.712,2.281,54.089,2.511,53.018z"/>
<path fill-rule="evenodd" clip-rule="evenodd" fill="#767676" d="M89.748,62.494c0.649,0,1.301,0,1.952,0
	c0.178,1.214-0.365,3.15,0.278,3.902c5.76,0,11.52,0,17.279,0c0.465,0,0.93,0,1.395,0c0.929,0,1.856,0,2.786,0
	c0,0.093,0,0.186,0,0.278c-7.793,0.044-16.792-0.062-23.69,0c0-0.093,0-0.186,0-0.278C89.748,65.095,89.748,63.795,89.748,62.494z"
	/>
<path fill-rule="evenodd" clip-rule="evenodd" fill="#323232" d="M112.325,2.571c1.212,0.18,3.149-0.363,3.9,0.278
	c-1.301,0-2.601,0-3.9,0C112.325,2.757,112.325,2.665,112.325,2.571z"/>
<path fill-rule="evenodd" clip-rule="evenodd" fill="#181818" d="M23.136,3.128c0.086-0.378,0.698-0.231,1.115-0.279
	c0,0.093,0,0.186,0,0.279C23.879,3.128,23.507,3.128,23.136,3.128z"/>
<path fill-rule="evenodd" clip-rule="evenodd" fill="#FFFFFF" d="M116.225,2.85c6.168,0.521,10.46,2.919,13.936,6.132
	c0.533,0.768,1.184,1.418,1.951,1.951c1.471,1.874,3.037,3.651,3.902,6.132c0.403,0.433,0.371,1.3,0.836,1.672
	c0.553,1.954,1.188,3.828,1.113,6.41c0,0.372,0,0.743,0,1.115c0,1.022,0,2.043,0,3.066c0,0.557,0,1.114,0,1.672
	c0,0.743,0,1.486,0,2.23c-0.456-0.046-0.456,1.717,0,1.671c0,0.558,0,1.115,0,1.672c0,0.465,0,0.929,0,1.394
	c0,0.557,0,1.115,0,1.672c0,1.58,0,3.159,0,4.738c0,0.465,0,0.93,0,1.395c0,0.185,0,0.37,0,0.557
	c-0.631,0.297-0.105,1.752-0.278,2.508c-0.755,5.283-3.007,9.069-5.852,12.265c-0.675,0.438-1.232,0.996-1.673,1.672
	c-3.394,3.108-7.265,5.74-13.379,6.131c-0.557,0-1.113,0-1.671,0c-0.757,0.173-2.212-0.354-2.508,0.278c-1.208,0-2.416,0-3.624,0
	c-0.038-0.459-1.914-0.459-1.952,0c-2.321,0-4.644,0-6.968,0c-0.48-0.462-2.862-0.462-3.344,0c-1.58,0-3.159,0-4.737,0
	c-0.743,0-1.487,0-2.23,0c-19.139,0-38.276,0-57.414,0c-2.508,0-5.017,0-7.525,0c-0.651,0-1.301,0-1.951,0c-0.372,0-0.744,0-1.115,0
	c-0.086-0.377-0.698-0.23-1.115-0.278c-4.607-0.781-8.005-2.771-10.87-5.295c-0.719-0.954-1.555-1.79-2.508-2.508
	c-1.702-1.644-2.977-3.713-3.901-6.133c-0.49-0.438-0.366-1.492-0.836-1.951c-0.348-1.417-0.909-2.621-0.836-4.459
	c-0.023-0.441,0.134-1.063-0.278-1.114c0-0.465,0-0.929,0-1.394c0-0.651,0-1.302,0-1.951c0-0.558,0-1.115,0-1.673
	c0-0.836,0-1.672,0-2.509c0-0.65,0-1.3,0-1.95c0-0.187,0-0.372,0-0.558c0-0.744,0-1.487,0-2.23c0-0.464,0-0.929,0-1.394
	c0-1.115,0-2.229,0-3.345c0-0.464,0-0.928,0-1.393c0-0.744,0-1.487,0-2.23c0-0.372,0-0.743,0-1.114
	c0.109-7.044,2.979-11.329,6.41-15.051c0.491-0.252,0.863-0.624,1.115-1.115c3.242-2.891,6.818-5.445,12.264-6.131
	c0.441-0.024,1.063,0.134,1.115-0.279c0.278,0,0.558,0,0.836,0c0.372,0,0.743,0,1.115,0c0.836,0,1.672,0,2.508,0
	c0.743,0,1.487,0,2.23,0c1.486,0,2.973,0,4.459,0c3.066,0,6.132,0,9.198,0c2.973,0,5.946,0,8.919,0c0.371,0,0.743,0,1.114,0
	c4.552,0,9.104,0,13.657,0c2.046-0.183,4.828,0.369,6.411-0.279c1.671,0,3.344,0,5.017,0c2.879,0,5.76,0,8.641,0
	c6.223,0,12.447,0,18.672,0c1.581,0,3.159,0,4.738,0c0.28,0,0.559,0,0.838,0c0.557,0,1.113,0,1.673,0
	C113.625,2.85,114.924,2.85,116.225,2.85z M24.808,5.637c-6.005,0.22-9.846,2.604-13.378,5.296c-1.151,0.52-1.988,1.356-2.508,2.508
	c-2.212,3.083-4.505,6.085-4.738,11.148c-0.413,0.052-0.256,0.673-0.279,1.115c0,0.371,0,0.743,0,1.114c0,0.279,0,0.558,0,0.836
	c-0.463,0.938-0.463,3.8,0,4.738c0,0.372,0,0.743,0,1.115s0,0.743,0,1.115c0,1.951,0,3.901,0,5.853c0,0.558,0,1.115,0,1.672
	c0,0.651,0,1.302,0,1.952c0.166,0.576-0.344,1.831,0.279,1.951c-0.21,2.532,0.609,4.034,0.836,6.131
	c0.49,0.439,0.366,1.493,0.836,1.951c0.996,2.07,2.28,3.852,3.623,5.574c0.44,0.676,0.997,1.232,1.672,1.673
	c3.063,2.23,6.194,4.396,10.87,5.017c0.051,0.412,0.673,0.255,1.115,0.278c0.464,0,0.929,0,1.394,0c2.415,0,4.831,0,7.246,0
	c19.324,0,38.647,0,57.972,0c6.898-0.062,15.897,0.044,23.69,0c0.577-0.165,1.831,0.345,1.951-0.278
	c1.398,0.005,2.572-0.216,3.622-0.558c0.329-0.044,0.792,0.048,0.838-0.279c2.658-0.625,4.692-1.841,6.411-3.065
	c0.621-0.444,1.092-1.258,1.949-1.393c0.823-0.757,1.869-1.291,2.229-2.51c2.08-3.31,4.38-6.396,4.738-11.428
	c0.604,0.048,0.126-0.988,0.278-1.392c0-0.651,0-1.302,0-1.952c0-1.857,0-3.716,0-5.574c0-3.159,0-6.317,0-9.476
	c0-0.65,0-1.301,0-1.951c-0.172-0.756,0.354-2.212-0.278-2.508c0.034-1.334,0.02-2.62-0.557-3.344
	c0.062-0.527-0.315-0.615-0.279-1.115c-0.016-0.17-0.042-0.33-0.278-0.278c0.063-0.527-0.314-0.615-0.278-1.115
	c-0.062-0.216-0.008-0.55-0.278-0.557c-0.146-0.413-0.413-0.702-0.559-1.115c-0.728-0.853-1.002-2.157-1.952-2.787
	c-0.014-0.17-0.04-0.33-0.278-0.279c-0.082-0.568-0.753-0.546-0.835-1.115c0-0.092,0-0.185,0-0.278
	c-0.455-0.752-1.09-1.326-1.951-1.672c-3.136-2.531-6.592-4.743-11.984-5.017c-0.478-0.637-2.128-0.102-3.065-0.278
	c-2.509,0-5.017,0-7.524,0c-6.225,0-12.451,0-18.674,0c-2.881,0-5.76,0-8.641,0c-3.065,0-6.133,0-9.198,0
	c-3.438,0.185-7.617-0.37-10.591,0.278c-1.766,0-3.53,0-5.295,0c-0.093,0-0.186,0-0.279,0c-0.464,0-0.929,0-1.393,0
	c-3.066,0-6.132,0-9.198,0c-2.88,0-5.76,0-8.641,0c-0.65,0-1.3,0-1.95,0C29.913,5.173,26.392,5.173,24.808,5.637z"/>
<path fill-rule="evenodd" clip-rule="evenodd" fill="#767676" d="M21.185,3.408c0.086-0.378,0.698-0.231,1.115-0.279
	C22.248,3.542,21.626,3.384,21.185,3.408z"/>
<path fill-rule="evenodd" clip-rule="evenodd" fill="#323232" d="M78.042,5.358c2.881,0,5.76,0,8.641,0c0,0.093,0,0.186,0,0.278
	c-2.881,0-5.76,0-8.641,0C78.042,5.544,78.042,5.452,78.042,5.358z"/>
<path fill-rule="evenodd" clip-rule="evenodd" fill="#323232" d="M105.357,5.358c2.508,0,5.016,0,7.524,0c0,0.093,0,0.186,0,0.278
	c-2.509,0-5.017,0-7.524,0C105.357,5.544,105.357,5.452,105.357,5.358z"/>
<path fill-rule="evenodd" clip-rule="evenodd" fill="#181818" d="M112.881,5.358c0.938,0.177,2.588-0.359,3.065,0.278
	c-1.022,0-2.044,0-3.065,0C112.881,5.544,112.881,5.452,112.881,5.358z"/>
<path fill-rule="evenodd" clip-rule="evenodd" fill="#767676" d="M51.286,6.752c0-0.372,0-0.744,0-1.115c0.464,0,0.929,0,1.393,0
	c0,0.929,0,1.858,0,2.788c-0.371,0-0.743,0-1.114,0C51.404,7.934,51.901,6.786,51.286,6.752z"/>
<path fill-rule="evenodd" clip-rule="evenodd" fill="#767676" d="M131.555,20.688c-0.272-0.008-0.217-0.341-0.278-0.558
	c0-0.279,0-0.557,0-0.836c0.965-0.149,1.482-0.746,2.508-0.836c-0.036,0.5,0.341,0.588,0.278,1.115
	C133.46,20.178,132.436,20.361,131.555,20.688z"/>
<path fill-rule="evenodd" clip-rule="evenodd" fill="#323232" d="M1.396,25.705c0,0.371,0,0.743,0,1.114c-0.093,0-0.186,0-0.279,0
	C1.141,26.377,0.983,25.755,1.396,25.705z"/>
<path fill-rule="evenodd" clip-rule="evenodd" fill="#181818" d="M4.184,25.705c-0.048,0.417,0.1,1.028-0.279,1.114
	c0-0.372,0-0.743,0-1.114C3.998,25.705,4.09,25.705,4.184,25.705z"/>
<path fill-rule="evenodd" clip-rule="evenodd" fill="#323232" d="M3.904,40.476c0-1.951,0-3.902,0-5.853c0.093,0,0.186,0,0.279,0
	c0,1.951,0,3.901,0,5.853C4.09,40.476,3.998,40.476,3.904,40.476z"/>
<path fill-rule="evenodd" clip-rule="evenodd" fill="#181818" d="M135.456,43.82c0,0.65,0,1.301,0,1.952c-0.092,0-0.185,0-0.278,0
	c0-0.465,0-0.93,0-1.395C135.239,44.161,135.185,43.828,135.456,43.82z"/>
<path fill-rule="evenodd" clip-rule="evenodd" fill="#181818" d="M3.904,44.1c0.624,0.12,0.113,1.373,0.279,1.951
	C3.561,45.931,4.07,44.676,3.904,44.1z"/>
<path fill-rule="evenodd" clip-rule="evenodd" fill="#323232" d="M138.245,44.378c-0.154,0.405,0.324,1.44-0.281,1.395
	c0-0.465,0-0.93,0-1.395C138.058,44.378,138.15,44.378,138.245,44.378z"/>
<path fill-rule="evenodd" clip-rule="evenodd" fill="#323232" d="M1.396,44.1c0,0.649,0,1.3,0,1.951
	c-0.623-0.12-0.113-1.375-0.279-1.951C1.21,44.1,1.303,44.1,1.396,44.1z"/>
<path fill-rule="evenodd" clip-rule="evenodd" fill="#767676" d="M137.963,46.329c-0.172,0.756,0.355,2.212-0.278,2.508
	C137.858,48.081,137.333,46.626,137.963,46.329z"/>
<path fill-rule="evenodd" clip-rule="evenodd" fill="#323232" d="M1.396,47.444c0.413,0.051,0.255,0.673,0.278,1.114
	C1.296,48.473,1.444,47.86,1.396,47.444z"/>
<path fill-rule="evenodd" clip-rule="evenodd" fill="#181818" d="M23.136,66.396c0.405,0.152,1.44-0.326,1.394,0.278
	c-0.465,0-0.93,0-1.394,0C23.136,66.582,23.136,66.489,23.136,66.396z"/>
<path fill-rule="evenodd" clip-rule="evenodd" fill="#767676" d="M20.627,68.904c0.417,0.048,1.028-0.099,1.115,0.278
	C21.301,69.16,20.679,69.317,20.627,68.904z"/>
<path fill-rule="evenodd" clip-rule="evenodd" fill="#767676" d="M115.111,68.904c0.558,0,1.114,0,1.671,0
	c-0.034,0.616-1.182,0.118-1.671,0.278C115.111,69.091,115.111,68.997,115.111,68.904z"/>
<path fill-rule="evenodd" clip-rule="evenodd" fill="#767676" d="M91.978,69.462c0,1.301,0,2.601,0,3.902
	c-0.906-0.161-1.297,0.189-1.951,0.278c0-0.093,0-0.186,0-0.278c-0.129-1.358,0.292-3.265-0.279-4.182c0.743,0,1.487,0,2.23,0
	C91.978,69.276,91.978,69.369,91.978,69.462z"/>
<path fill-rule="evenodd" clip-rule="evenodd" fill="#323232" d="M101.732,12.883c0.556-2.697,3.176-3.327,6.133-3.623
	c1.021,0,2.043,0,3.065,0c0.465,0,0.93,0,1.395,0c0.086,0.378,0.697,0.23,1.113,0.278c1.122-0.192,1.591,0.267,2.509,0.278
	c0.086,0.379,0.697,0.231,1.115,0.279c4.544,0.563,9.342,0.876,12.542,2.787c0.358,0.478,0.576,1.096,1.392,1.115
	c0.95,0.629,1.225,1.934,1.952,2.787c-0.56-0.121,0.498,1.855,0.559,1.115c0.271,0.007,0.217,0.341,0.278,0.557
	c-1.025,0.09-1.543,0.688-2.508,0.836c0,0.279,0,0.557,0,0.836c-0.545-1.356-1.215-2.191-1.952-3.345
	c-0.26-0.408-0.256-0.849-0.557-1.114c-0.028-0.024-0.751-0.345-1.115-0.558c-1.92-1.117-5.64-1.375-8.642-1.95
	c-0.086-0.379-0.696-0.231-1.113-0.279c-0.278,0-0.558,0-0.836,0c-0.086-0.378-0.699-0.231-1.115-0.279c-0.187,0-0.371,0-0.558,0
	c-0.086-0.378-0.699-0.231-1.115-0.278c-0.278,0-0.558,0-0.836,0c-0.086-0.378-0.697-0.231-1.113-0.279c-0.281,0-0.56,0-0.838,0
	c-0.663-0.463-3.239-0.463-3.9,0c-1.339,0.057-2.098,0.691-3.067,1.115c-0.234,0.694-0.364,1.493-0.278,2.508
	c0.166,0.577-0.345,1.831,0.278,1.95c0,0.651,0,1.301,0,1.952c0.17,0.667-0.349,2.022,0.278,2.229
	c0.078,1.771-0.032,2.625-0.835,3.344c-1.202,1.075-3.298,0.227-4.738,1.115c-0.491,0.251-0.863,0.623-1.116,1.115
	c0.036,0.5-0.341,0.588-0.278,1.115c-0.647,1.582-0.094,4.364-0.278,6.41c-0.84,3.062-2.947,4.856-6.689,5.017
	c-2.231,0.185-5.199-0.368-6.966,0.278c-5.483,0-10.965,0-16.445,0c-6.411,0.187-13.563-0.37-19.51,0.279
	c-1.594,0.079-2.32,1.025-3.066,1.951c0.407,3.031,2.906,3.971,3.066,7.247c0,0.65,0,1.3,0,1.95
	c-0.221,1.638-0.788,2.929-1.951,3.623c-0.492,0.253-0.863,0.624-1.115,1.115c-0.583,0.161-0.795,0.691-1.672,0.558
	c-0.441,0.023-1.063-0.134-1.114,0.278c-1.611,0.218-2.437-0.35-3.345-0.836c-0.533-0.768-1.184-1.418-1.951-1.95
	c-0.233-0.466-0.513-0.664-0.836-1.115c-0.472-0.657-0.852-1.213-1.394-1.951c-0.226-0.308-0.342-0.812-0.557-1.115
	c-0.945-1.327-2.195-2.332-2.788-3.901c-0.252-0.492-0.624-0.863-1.115-1.115c-0.125-0.804-1.199-0.659-1.394-1.394
	c-0.186,0-0.372,0-0.557,0c-2.604-0.464-7.152-0.464-9.755,0c-2.061,0.076-3.219,1.055-3.901,2.509
	c-0.452-0.199-0.452,1.314,0,1.115c0.14,1.16,0.975,1.625,1.115,2.786c0.038,0.52,0.183,0.932,0.557,1.115
	c1.771,3.617,4.685,6.092,10.591,5.574c0.929,0,1.858,0,2.787,0c2.544,0.336,3.828,1.933,4.181,4.46
	c0.176,0.938-0.359,2.588,0.279,3.064c0.12,0.531,0.601,0.701,0.557,1.395c1.989,0.918,4.3,0.558,6.41,0.558
	c15.672,0,32.762,0,48.774,0c0,0.093,0,0.186,0,0.278c-19.324,0-38.648,0-57.972,0c-0.094-0.929-0.807-1.236-0.558-2.509
	c-0.175-0.847,0.357-2.399-0.279-2.786c-0.304-0.719-0.704-1.341-1.394-1.673c-0.48-0.462-2.864-0.462-3.344,0
	c-7.083,0.486-10.46-2.733-12.542-7.247c-0.039-0.519-0.184-0.931-0.558-1.114c-0.417-1.255-1.423-1.922-1.394-3.623
	c0-0.559,0-1.115,0-1.672c0.775-3.406,3.239-5.123,7.525-5.018c2.973,0,5.946,0,8.919,0c2.151-0.108,2.991,1.097,3.901,2.229
	c0.252,0.491,0.624,0.863,1.115,1.115c1.941,2.797,4,5.477,5.854,8.361c0.345,0.583,0.81,1.048,1.393,1.394
	c2.327,0.794,4.381-0.721,4.739-2.787c0.457,0.046,0.457-1.718,0-1.672c-0.646-2.142-2.326-3.249-2.788-5.574
	c-0.023-0.442,0.134-1.064-0.278-1.115c-0.12-1.327,0.331-2.085,0.836-2.788c0.491-0.251,0.863-0.623,1.115-1.113
	c1.127-0.731,2.179-1.537,4.181-1.395c8.269-0.186,17.28,0.371,25.084-0.278c5.017,0,10.033,0,15.05,0
	c0.847-0.175,2.401,0.356,2.788-0.279c3.21-0.319,4.27-2.79,3.9-6.689c0-0.464,0-0.928,0-1.393
	c-0.144-1.724,0.453-2.708,1.116-3.624c0.583-0.346,1.048-0.811,1.393-1.393c0.785-0.237,1.144-0.9,2.229-0.836
	c0.441-0.023,1.064,0.134,1.116-0.28c0.37,0,0.743,0,1.114,0c0-0.557,0-1.114,0-1.671c-0.173-0.757,0.354-2.212-0.279-2.508
	c0-0.558,0-1.116,0-1.672c-0.174-0.848,0.357-2.401-0.278-2.788c0-0.093,0-0.186,0-0.278
	C101.833,13.912,101.684,13.3,101.732,12.883z"/>
<path fill-rule="evenodd" clip-rule="evenodd" fill="#323232" d="M22.857,69.183c0.65,0,1.3,0,1.951,0c0,0.094,0,0.187,0,0.279
	C24.23,69.296,22.977,69.807,22.857,69.183z"/>
<path fill-rule="evenodd" clip-rule="evenodd" fill="#767676" d="M136.014,17.064c1.242,0.034,1.728-0.688,2.787-0.836
	c0.12,0.53,0.601,0.7,0.557,1.393c-0.869,0.338-1.738,0.677-2.508,1.116C136.385,18.364,136.417,17.497,136.014,17.064z"/>
</svg>
