<?xml version="1.0" encoding="utf-8"?>
<!-- Generator: Adobe Illustrator 15.0.0, SVG Export Plug-In  -->
<!DOCTYPE svg PUBLIC "-//W3C//DTD SVG 1.1//EN" "http://www.w3.org/Graphics/SVG/1.1/DTD/svg11.dtd" [
	<!ENTITY ns_flows "http://ns.adobe.com/Flows/1.0/">
]>
<svg version="1.1"
	 xmlns="http://www.w3.org/2000/svg" xmlns:xlink="http://www.w3.org/1999/xlink" xmlns:a="http://ns.adobe.com/AdobeSVGViewerExtensions/3.0/"
	 x="0px" y="0px" width="142px" height="142px" viewBox="-2.743 -33.119 142 142" enable-background="new -2.743 -33.119 142 142"
	 xml:space="preserve">
<defs>
</defs>
<path fill-rule="evenodd" clip-rule="evenodd" fill="#797979" d="M23.456,4.629c0-0.093,0-0.186,0-0.279c0.557,0,1.115,0,1.672,0
	c0,0.093,0,0.186,0,0.279C24.571,4.629,24.013,4.629,23.456,4.629z"/>
<path fill-rule="evenodd" clip-rule="evenodd" fill="#333333" d="M25.128,4.629c0-0.093,0-0.186,0-0.279c0.929,0,1.858,0,2.787,0
	c0,0.093,0,0.186,0,0.279C26.986,4.629,26.057,4.629,25.128,4.629z"/>
<path fill-rule="evenodd" clip-rule="evenodd" fill="#181818" d="M27.915,4.629c0-0.093,0-0.186,0-0.279c0.464,0,0.929,0,1.393,0
	c0,0.093,0,0.186,0,0.279C28.844,4.629,28.379,4.629,27.915,4.629z"/>
<path fill-rule="evenodd" clip-rule="evenodd" fill="#333333" d="M29.308,4.629c0-0.093,0-0.186,0-0.279c4.46,0,8.919,0,13.379,0
	c0,0.093,0,0.186,0,0.279C38.228,4.629,33.768,4.629,29.308,4.629z"/>
<path fill-rule="evenodd" clip-rule="evenodd" fill="#C5C5C5" d="M43.244,4.629c-0.046-0.457,1.718-0.457,1.672,0
	C44.359,4.629,43.801,4.629,43.244,4.629z"/>
<path fill-rule="evenodd" clip-rule="evenodd" fill="#C5C5C5" d="M95.363,4.629c0-0.093,0-0.186,0-0.279c0.465,0,0.928,0,1.393,0
	c0,0.093,0,0.186,0,0.279C96.291,4.629,95.828,4.629,95.363,4.629z"/>
<path fill-rule="evenodd" clip-rule="evenodd" fill="#C5C5C5" d="M64.983,7.138c10.128-0.464,22.204-0.464,32.331,0
	C86.536,7.138,75.761,7.138,64.983,7.138z"/>
<path fill-rule="evenodd" clip-rule="evenodd" fill="#181818" d="M25.407,7.138c0.558,0,1.115,0,1.672,0c0,0.093,0,0.186,0,0.279
	C26.589,7.256,25.441,7.753,25.407,7.138z"/>
<path fill-rule="evenodd" clip-rule="evenodd" fill="#333333" d="M27.079,7.417c0-0.093,0-0.186,0-0.279c2.044,0,4.087,0,6.131,0
	c0,0.093,0,0.186,0,0.279C31.167,7.417,29.123,7.417,27.079,7.417z"/>
<path fill-rule="evenodd" clip-rule="evenodd" fill="#181818" d="M33.21,7.417c0-0.093,0-0.186,0-0.279c2.973,0,5.946,0,8.918,0
	C39.712,7.787,36.092,7.232,33.21,7.417z"/>
<path fill-rule="evenodd" clip-rule="evenodd" fill="#333333" d="M42.965,7.138c0.093,0,0.186,0,0.279,0c0,1.394,0,2.788,0,4.181
	C42.601,10.476,43.146,8.444,42.965,7.138z"/>
<path fill-rule="evenodd" clip-rule="evenodd" fill="#797979" d="M43.244,7.138c0.65,0,1.301,0,1.951,0c0,1.394,0,2.788,0,4.181
	c-0.65,0-1.301,0-1.951,0C43.244,9.925,43.244,8.532,43.244,7.138z"/>
<path fill-rule="evenodd" clip-rule="evenodd" fill="#181818" d="M106.791,10.762c0.389-0.462,2.675-0.462,3.065,0
	C108.834,10.762,107.813,10.762,106.791,10.762z"/>
<path fill-rule="evenodd" clip-rule="evenodd" fill="#181818" d="M111.251,10.762c0.44,0.023,1.062-0.134,1.113,0.278
	C111.948,10.992,111.337,11.14,111.251,10.762z"/>
<path fill-rule="evenodd" clip-rule="evenodd" fill="#C5C5C5" d="M100.38,11.04c0.623,0.12,0.112,1.373,0.278,1.951
	c-0.092,0-0.186,0-0.278,0C100.38,12.341,100.38,11.69,100.38,11.04z"/>
<path fill-rule="evenodd" clip-rule="evenodd" fill="#181818" d="M114.873,11.318c0.44,0.023,1.063-0.134,1.115,0.279
	C115.57,11.55,114.959,11.697,114.873,11.318z"/>
<path fill-rule="evenodd" clip-rule="evenodd" fill="#C5C5C5" d="M102.889,11.598c0.092,0,0.186,0,0.278,0c0,1.208,0,2.416,0,3.623
	C102.525,14.561,103.066,12.719,102.889,11.598z"/>
<path fill-rule="evenodd" clip-rule="evenodd" fill="#797979" d="M100.38,12.991c0.093,0,0.187,0,0.278,0c0,1.394,0,2.787,0,4.181
	c-0.092,0-0.186,0-0.278,0C100.38,15.778,100.38,14.384,100.38,12.991z"/>
<path fill-rule="evenodd" clip-rule="evenodd" fill="#181818" d="M106.513,13.548c0.661-0.463,3.237-0.463,3.9,0
	C109.113,13.548,107.813,13.548,106.513,13.548z"/>
<path fill-rule="evenodd" clip-rule="evenodd" fill="#181818" d="M111.251,13.548c0.416,0.047,1.027-0.1,1.113,0.279
	C111.948,13.78,111.337,13.927,111.251,13.548z"/>
<path fill-rule="evenodd" clip-rule="evenodd" fill="#181818" d="M113.2,13.827c0.416,0.047,1.029-0.1,1.115,0.278
	C113.899,14.058,113.286,14.206,113.2,13.827z"/>
<path fill-rule="evenodd" clip-rule="evenodd" fill="#181818" d="M116.824,14.384c0.417,0.048,1.027-0.1,1.113,0.279
	C117.521,14.616,116.91,14.763,116.824,14.384z"/>
<path fill-rule="evenodd" clip-rule="evenodd" fill="#797979" d="M103.167,18.008c0.092,0,0.187,0,0.278,0c0,0.372,0,0.743,0,1.114
	c-0.092,0-0.187,0-0.278,0C103.167,18.751,103.167,18.379,103.167,18.008z"/>
<path fill-rule="evenodd" clip-rule="evenodd" fill="#C5C5C5" d="M100.658,19.122c0.379,0.087,0.23,0.698,0.279,1.116
	c-0.093,0-0.187,0-0.279,0C100.658,19.865,100.658,19.494,100.658,19.122z"/>
<path fill-rule="evenodd" clip-rule="evenodd" fill="#C5C5C5" d="M103.167,19.122c0.092,0,0.187,0,0.278,0c0,0.465,0,0.93,0,1.394
	C102.842,20.563,103.319,19.527,103.167,19.122z"/>
<path fill-rule="evenodd" clip-rule="evenodd" fill="#797979" d="M100.658,20.238c0.093,0,0.187,0,0.279,0c0,0.371,0,0.743,0,1.114
	c-0.093,0-0.187,0-0.279,0C100.658,20.981,100.658,20.609,100.658,20.238z"/>
<path fill-rule="evenodd" clip-rule="evenodd" fill="#797979" d="M103.445,22.188c0.094,0,0.187,0,0.278,0c0,0.372,0,0.743,0,1.115
	c-0.092,0-0.185,0-0.278,0C103.445,22.931,103.445,22.56,103.445,22.188z"/>
<path fill-rule="evenodd" clip-rule="evenodd" fill="#C5C5C5" d="M100.938,23.303c0.452-0.199,0.452,1.314,0,1.114
	C100.938,24.046,100.938,23.675,100.938,23.303z"/>
<path fill-rule="evenodd" clip-rule="evenodd" fill="#181818" d="M131.595,26.926c0.615,0.035,0.118,1.182,0.279,1.672
	C131.259,28.564,131.756,27.417,131.595,26.926z"/>
<path fill-rule="evenodd" clip-rule="evenodd" fill="#181818" d="M134.382,27.206c0.633,0.296,0.106,1.752,0.278,2.508
	C134.029,29.417,134.554,27.962,134.382,27.206z"/>
<path fill-rule="evenodd" clip-rule="evenodd" fill="#797979" d="M0.044,29.156c0.093,0,0.186,0,0.279,0c0,1.765,0,3.53,0,5.295
	c-0.093,0-0.186,0-0.279,0C0.044,32.686,0.044,30.921,0.044,29.156z"/>
<path fill-rule="evenodd" clip-rule="evenodd" fill="#181818" d="M93.969,30.55c0,0.557,0,1.115,0,1.672c-0.092,0-0.186,0-0.278,0
	C93.851,31.732,93.354,30.584,93.969,30.55z"/>
<path fill-rule="evenodd" clip-rule="evenodd" fill="#181818" d="M91.183,32.501c-0.046-0.604,0.989-0.127,1.395-0.279
	c0,0.093,0,0.186,0,0.279C92.112,32.501,91.647,32.501,91.183,32.501z"/>
<path fill-rule="evenodd" clip-rule="evenodd" fill="#333333" d="M92.577,32.501c0-0.093,0-0.186,0-0.279c0.37,0,0.743,0,1.113,0
	c0.093,0,0.187,0,0.278,0c0,0.093,0,0.186,0,0.279C93.505,32.501,93.042,32.501,92.577,32.501z"/>
<path fill-rule="evenodd" clip-rule="evenodd" fill="#333333" d="M99.265,32.222c0.456-0.126,0.456,1.519,0,1.393
	C99.265,33.151,99.265,32.686,99.265,32.222z"/>
<path fill-rule="evenodd" clip-rule="evenodd" fill="#797979" d="M91.183,32.501c0.465,0,0.93,0,1.395,0s0.928,0,1.392,0
	c0,0.371,0,0.743,0,1.114c-0.927,0-1.856,0-2.786,0C91.183,33.244,91.183,32.872,91.183,32.501z"/>
<path fill-rule="evenodd" clip-rule="evenodd" fill="#C5C5C5" d="M96.478,32.501c0.453-0.2,0.453,1.313,0,1.114
	C96.478,33.244,96.478,32.872,96.478,32.501z"/>
<path fill-rule="evenodd" clip-rule="evenodd" fill="#333333" d="M91.183,33.615c0.93,0,1.859,0,2.786,0c0,0.093,0,0.187,0,0.279
	C93.122,33.72,91.569,34.251,91.183,33.615z"/>
<path fill-rule="evenodd" clip-rule="evenodd" fill="#181818" d="M96.756,33.895c0.036-0.616,1.185-0.119,1.673-0.279
	C98.395,34.231,97.247,33.734,96.756,33.895z"/>
<path fill-rule="evenodd" clip-rule="evenodd" fill="#C5C5C5" d="M93.969,33.895c0.453-0.2,0.453,1.314,0,1.115
	C93.969,34.638,93.969,34.266,93.969,33.895z"/>
<path fill-rule="evenodd" clip-rule="evenodd" fill="#333333" d="M0.044,34.451c0.093,0,0.186,0,0.279,0c0,4.088,0,8.176,0,12.264
	c-0.093,0-0.186,0-0.279,0C0.044,42.627,0.044,38.54,0.044,34.451z"/>
<path fill-rule="evenodd" clip-rule="evenodd" fill="#181818" d="M2.831,35.009c0.633,0.296,0.106,1.752,0.279,2.508
	c-0.093,0-0.186,0-0.279,0C2.831,36.681,2.831,35.845,2.831,35.009z"/>
<path fill-rule="evenodd" clip-rule="evenodd" fill="#333333" d="M2.831,37.518c0.093,0,0.186,0,0.279,0c0,1.115,0,2.229,0,3.345
	c-0.093,0-0.186,0-0.279,0C2.831,39.747,2.831,38.632,2.831,37.518z"/>
<path fill-rule="evenodd" clip-rule="evenodd" fill="#797979" d="M63.312,39.189c0-0.093,0-0.186,0-0.278c3.53,0,7.061,0,10.592,0
	c0,0.093,0,0.186,0,0.278C70.372,39.189,66.842,39.189,63.312,39.189z"/>
<path fill-rule="evenodd" clip-rule="evenodd" fill="#C5C5C5" d="M73.903,39.189c0-0.093,0-0.186,0-0.278c3.529,0,7.06,0,10.59,0
	C81.521,39.56,77.341,39.005,73.903,39.189z"/>
<path fill-rule="evenodd" clip-rule="evenodd" fill="#181818" d="M126.3,40.862c0.125-0.46,2.105-0.46,2.23,0
	C127.787,40.862,127.043,40.862,126.3,40.862z"/>
<path fill-rule="evenodd" clip-rule="evenodd" fill="#181818" d="M2.831,40.862c0.093,0,0.186,0,0.279,0c0,1.579,0,3.158,0,4.738
	c-0.093,0-0.186,0-0.279,0C2.831,44.021,2.831,42.441,2.831,40.862z"/>
<path fill-rule="evenodd" clip-rule="evenodd" fill="#181818" d="M131.874,40.862c0.458-0.046,0.458,1.718,0,1.672
	C131.874,41.977,131.874,41.419,131.874,40.862z"/>
<path fill-rule="evenodd" clip-rule="evenodd" fill="#C5C5C5" d="M71.114,41.697c3.067-0.648,7.339-0.093,10.87-0.278
	c0,0.094,0,0.187,0,0.278C78.362,41.697,74.738,41.697,71.114,41.697z"/>
<path fill-rule="evenodd" clip-rule="evenodd" fill="#797979" d="M81.984,41.697c0-0.092,0-0.185,0-0.278c2.138,0,4.273,0,6.411,0
	c0,0.094,0,0.187,0,0.278C86.258,41.697,84.122,41.697,81.984,41.697z"/>
<path fill-rule="evenodd" clip-rule="evenodd" fill="#181818" d="M48.818,41.977c0-0.093,0-0.186,0-0.279c6.131,0,12.264,0,18.395,0
	C61.639,42.348,54.858,41.791,48.818,41.977z"/>
<path fill-rule="evenodd" clip-rule="evenodd" fill="#181818" d="M17.881,42.534c0.387-0.636,1.94-0.104,2.787-0.278
	c0,0.093,0,0.186,0,0.278C19.74,42.534,18.811,42.534,17.881,42.534z"/>
<path fill-rule="evenodd" clip-rule="evenodd" fill="#181818" d="M127.416,43.37c0.604-0.047,0.124,0.989,0.278,1.394
	C127.09,44.811,127.568,43.775,127.416,43.37z"/>
<path fill-rule="evenodd" clip-rule="evenodd" fill="#181818" d="M119.054,44.207c0,0.65,0,1.3,0,1.95
	C118.595,46.119,118.595,44.244,119.054,44.207z"/>
<path fill-rule="evenodd" clip-rule="evenodd" fill="#797979" d="M17.045,45.321c0.208-0.629,1.563-0.108,2.229-0.278
	c0,0.093,0,0.186,0,0.278C18.532,45.321,17.788,45.321,17.045,45.321z"/>
<path fill-rule="evenodd" clip-rule="evenodd" fill="#181818" d="M0.044,46.715c0.093,0,0.186,0,0.279,0c0,0.465,0,0.929,0,1.394
	C-0.282,48.155,0.196,47.12,0.044,46.715z"/>
<path fill-rule="evenodd" clip-rule="evenodd" fill="#181818" d="M130.203,47.552c0.465,0,0.927,0,1.392,0
	C131.722,48.006,130.076,48.006,130.203,47.552z"/>
<path fill-rule="evenodd" clip-rule="evenodd" fill="#181818" d="M122.119,55.354c0.461,0.124,0.461,2.106,0,2.23
	C122.119,56.842,122.119,56.098,122.119,55.354z"/>
<path fill-rule="evenodd" clip-rule="evenodd" fill="#181818" d="M124.906,55.354c0.46,0.124,0.46,2.106,0,2.23
	C124.906,56.842,124.906,56.098,124.906,55.354z"/>
<path fill-rule="evenodd" clip-rule="evenodd" fill="#797979" d="M24.013,58.699c-0.405-0.152-1.44,0.326-1.393-0.278
	c0.464,0,0.929,0,1.393,0C24.013,58.513,24.013,58.606,24.013,58.699z"/>
<path fill-rule="evenodd" clip-rule="evenodd" fill="#C5C5C5" d="M24.013,58.699c0-0.093,0-0.187,0-0.278c0.465,0,0.93,0,1.394,0
	C25.454,59.025,24.418,58.547,24.013,58.699z"/>
<path fill-rule="evenodd" clip-rule="evenodd" fill="#797979" d="M25.128,61.208c0-0.093,0-0.186,0-0.278c0.372,0,0.743,0,1.115,0
	c0,0.093,0,0.186,0,0.278C25.871,61.208,25.5,61.208,25.128,61.208z"/>
<path fill-rule="evenodd" clip-rule="evenodd" fill="#181818" d="M32.653,64.831c0.093,0,0.186,0,0.279,0c0,0.371,0,0.743,0,1.114
	c-0.093,0-0.186,0-0.279,0C32.653,65.574,32.653,65.202,32.653,64.831z"/>
<path fill-rule="evenodd" clip-rule="evenodd" fill="#181818" d="M108.184,67.897c-0.046-0.605,0.989-0.127,1.395-0.279
	C109.624,68.223,108.588,67.745,108.184,67.897z"/>
<path fill-rule="evenodd" clip-rule="evenodd" fill="#797979" d="M22.898,68.176c-0.441-0.023-1.063,0.134-1.114-0.278
	c0.372,0,0.743,0,1.114,0C22.898,67.99,22.898,68.083,22.898,68.176z"/>
<path fill-rule="evenodd" clip-rule="evenodd" fill="#333333" d="M22.898,68.176c0-0.093,0-0.186,0-0.278c0.465,0,0.93,0,1.394,0
	c0,0.093,0,0.186,0,0.278C23.828,68.176,23.363,68.176,22.898,68.176z"/>
<path fill-rule="evenodd" clip-rule="evenodd" fill="#181818" d="M24.292,68.176c0-0.093,0-0.186,0-0.278c0.65,0,1.3,0,1.951,0
	c0,0.093,0,0.186,0,0.278C25.592,68.176,24.942,68.176,24.292,68.176z"/>
<path fill-rule="evenodd" clip-rule="evenodd" fill="#181818" d="M34.883,67.897c21.646,0,43.294,0,64.94,0
	C78.825,68.362,55.879,68.362,34.883,67.897z"/>
<path fill-rule="evenodd" clip-rule="evenodd" fill="#181818" d="M107.348,70.684c0.209-0.628,1.563-0.108,2.23-0.278
	C109.369,71.034,108.013,70.515,107.348,70.684z"/>
<path fill-rule="evenodd" clip-rule="evenodd" fill="#181818" d="M35.162,70.684c20.903,0,41.807,0,62.71,0
	C77.619,71.148,55.414,71.148,35.162,70.684z"/>
<path fill-rule="evenodd" clip-rule="evenodd" fill="#797979" d="M7.291,11.598c0.252-0.492,0.624-0.864,1.115-1.115
	C8.153,10.974,7.782,11.346,7.291,11.598z"/>
<path fill-rule="evenodd" clip-rule="evenodd" fill="#797979" d="M5.061,61.208c-0.98-0.636-1.617,1.055-2.787,1.114
	c-0.12-0.53-0.601-0.7-0.558-1.393c1.05-0.065,1.18-1.05,2.23-1.115C4.333,60.264,4.735,60.697,5.061,61.208z"/>
<path fill-rule="evenodd" clip-rule="evenodd" fill="#C5C5C5" d="M6.455,62.881c0.674,0.439,1.232,0.996,1.672,1.672
	C7.451,64.112,6.894,63.556,6.455,62.881z"/>
<path fill-rule="evenodd" clip-rule="evenodd" fill="#797979" d="M30.424,69.57c0.251-0.492,0.623-0.864,1.114-1.116
	c0,0.093,0,0.187,0,0.279c-0.237-0.051-0.262,0.108-0.278,0.278C30.894,69.11,30.821,69.503,30.424,69.57z"/>
<path fill-rule="evenodd" clip-rule="evenodd" fill="#181818" d="M31.26,69.012c0.016-0.17,0.042-0.329,0.278-0.278
	c0.189,0.647,0.926,0.746,1.115,1.394C32.005,69.938,31.907,69.2,31.26,69.012z"/>
<path fill-rule="evenodd" clip-rule="evenodd" fill="#181818" d="M119.61,66.225c0.347-0.582,0.812-1.047,1.395-1.394
	C120.658,65.414,120.193,65.879,119.61,66.225z"/>
<path fill-rule="evenodd" clip-rule="evenodd" fill="#181818" d="M121.563,64.274c0.252-0.492,0.623-0.864,1.115-1.115
	C122.426,63.649,122.053,64.022,121.563,64.274z"/>
<path fill-rule="evenodd" clip-rule="evenodd" fill="#181818" d="M127.973,46.157c0.491,0.252,0.864,0.624,1.114,1.116
	C128.596,47.021,128.224,46.649,127.973,46.157z"/>
<path fill-rule="evenodd" clip-rule="evenodd" fill="#181818" d="M132.989,46.993c0.251-0.49,0.623-0.862,1.114-1.114
	C133.853,46.37,133.48,46.742,132.989,46.993z"/>
<path fill-rule="evenodd" clip-rule="evenodd" fill="#181818" d="M130.76,16.893c0.573,0.078,0.557,0.744,0.835,1.115
	C131.022,17.93,131.038,17.263,130.76,16.893z"/>
<path fill-rule="evenodd" clip-rule="evenodd" fill="#181818" d="M128.53,14.384c0.49,0.252,0.863,0.624,1.113,1.115
	C129.153,15.248,128.782,14.876,128.53,14.384z"/>
<path fill-rule="evenodd" clip-rule="evenodd" fill="#333333" d="M42.965,4.351c0.471-0.867-0.634-3.602,0-4.18
	c0.425-0.388,1.606-0.035,2.23,0.278c-0.65,0-1.301,0-1.951,0C43.064,1.663,43.607,3.6,42.965,4.351z"/>
<path fill-rule="evenodd" clip-rule="evenodd" fill="#797979" d="M42.965,4.351c0.642-0.751,0.099-2.688,0.279-3.902
	c0.65,0,1.301,0,1.951,0c0.381,0.921-0.529,3.348,0,3.902c0.249,0.261,4.53,0,6.41,0c14.034,0,31.077,0,43.758,0
	c0,0.093,0,0.186,0,0.279c-16.816,0-33.631,0-50.447,0c0.045-0.457-1.718-0.457-1.672,0c-0.186,0-0.372,0-0.557,0
	c0-0.093,0-0.186,0-0.279C42.78,4.351,42.873,4.351,42.965,4.351z"/>
<path fill-rule="evenodd" clip-rule="evenodd" fill="#C5C5C5" d="M94.248,39.747c0.252-0.491,0.625-0.862,1.115-1.115
	C95.111,39.124,94.74,39.495,94.248,39.747z"/>
<path fill-rule="evenodd" clip-rule="evenodd" fill="#797979" d="M44.359,57.306c0.346-0.583,0.811-1.047,1.394-1.393
	C45.406,56.496,44.942,56.961,44.359,57.306z"/>
<path fill-rule="evenodd" clip-rule="evenodd" fill="#797979" d="M13.422,47.273c0.251-0.492,0.623-0.864,1.115-1.116
	C14.285,46.649,13.914,47.021,13.422,47.273z"/>
<path fill-rule="evenodd" clip-rule="evenodd" fill="#797979" d="M16.488,55.354c0.492,0.252,0.863,0.624,1.115,1.115
	C17.112,56.218,16.739,55.847,16.488,55.354z"/>
<path fill-rule="evenodd" clip-rule="evenodd" fill="#C5C5C5" d="M30.424,59.257c0.093,0,0.185,0,0.278,0
	c0.082,0.568,0.754,0.547,0.836,1.115C31.047,60.12,30.675,59.748,30.424,59.257z"/>
<path fill-rule="evenodd" clip-rule="evenodd" fill="#797979" d="M8.405,14.105c0.252-0.491,0.624-0.863,1.115-1.115
	C9.268,13.482,8.896,13.854,8.405,14.105z"/>
<path fill-rule="evenodd" clip-rule="evenodd" fill="#797979" d="M5.897,57.863c0.929,0.585,1.512-1.16,2.787-1.115
	c0.24,0.226,0.166,0.765,0.558,0.837c-0.507,0.793-1.531,1.07-2.23,1.672c-0.092,0-0.185,0-0.278,0
	C6.865,58.382,5.982,58.521,5.897,57.863z"/>
<path fill-rule="evenodd" clip-rule="evenodd" fill="#797979" d="M8.126,60.93c0.675,0.439,1.232,0.996,1.672,1.673
	C9.124,62.162,8.566,61.604,8.126,60.93z"/>
<path fill-rule="evenodd" clip-rule="evenodd" fill="#C5C5C5" d="M9.799,62.603c0.511,0.324,0.943,0.728,1.394,1.113
	C10.375,63.698,10.157,63.079,9.799,62.603z"/>
<path fill-rule="evenodd" clip-rule="evenodd" fill="#C5C5C5" d="M28.194,67.897c0.533-0.397,0.997-0.86,1.394-1.394
	C29.464,67.31,29,67.773,28.194,67.897z"/>
<path fill-rule="evenodd" clip-rule="evenodd" fill="#C5C5C5" d="M15.931,58.421c-0.583-0.347-1.048-0.811-1.394-1.395
	C15.12,57.373,15.584,57.838,15.931,58.421z"/>
<path fill-rule="evenodd" clip-rule="evenodd" fill="#C5C5C5" d="M11.471,45.321c0.647-0.188,0.746-0.926,1.393-1.114
	c-0.346,0.583-0.81,1.048-1.393,1.394C11.471,45.507,11.471,45.414,11.471,45.321z"/>
<path fill-rule="evenodd" clip-rule="evenodd" fill="#C5C5C5" d="M42.687,55.354c0.082-0.567,0.754-0.546,0.836-1.114
	c-0.052-0.236,0.109-0.263,0.278-0.279C43.782,54.778,43.165,54.996,42.687,55.354z"/>
<path fill-rule="evenodd" clip-rule="evenodd" fill="#181818" d="M42.408,55.354c0.252-0.49,0.624-0.862,1.115-1.114
	c-0.082,0.568-0.754,0.547-0.836,1.114C42.594,55.354,42.501,55.354,42.408,55.354z"/>
<path fill-rule="evenodd" clip-rule="evenodd" fill="#797979" d="M35.998,51.175c0.549-0.752,1.268-1.333,2.23-1.673
	c-0.208,0.858,0.765,0.536,0.558,1.394c-0.677,0.531-1.828,0.589-1.952,1.673C36.509,52.15,36.029,51.887,35.998,51.175z"/>
<path fill-rule="evenodd" clip-rule="evenodd" fill="#181818" d="M11.471,45.321c0.346-0.583,0.81-1.047,1.393-1.394
	c0,0.093,0,0.186,0,0.279C12.217,44.396,12.119,45.134,11.471,45.321z"/>
<path fill-rule="evenodd" clip-rule="evenodd" fill="#181818" d="M117.659,64.274c0.253-0.492,0.625-0.864,1.116-1.115
	C118.522,63.649,118.15,64.022,117.659,64.274z"/>
<path fill-rule="evenodd" clip-rule="evenodd" fill="#181818" d="M130.203,43.092c0.614,0.035,0.118,1.183,0.278,1.672
	c0.89,0.239,0.861-0.438,1.393-0.557c-0.255,0.488-0.518,0.968-1.393,0.836C130.097,44.684,130.205,43.832,130.203,43.092z"/>
<path fill-rule="evenodd" clip-rule="evenodd" fill="#181818" d="M31.538,60.372c-0.082-0.568-0.754-0.547-0.836-1.115
	c0.491,0.252,0.863,0.624,1.115,1.115C31.724,60.372,31.631,60.372,31.538,60.372z"/>
<path fill-rule="evenodd" clip-rule="evenodd" fill="#797979" d="M34.325,53.961c-0.877,0.423-1.36,1.241-2.508,1.394
	c0.282-0.458-0.563-0.744-0.557-0.836c0.053-0.815,1.569-1.13,2.229-1.672c0.093,0,0.186,0,0.279,0
	C33.913,53.259,34.181,53.549,34.325,53.961z"/>
<path fill-rule="evenodd" clip-rule="evenodd" fill="#797979" d="M96.478,32.501c0.17-0.667-0.349-2.022,0.278-2.23
	c0,0.65,0,1.301,0,1.951c0.838,0,1.673,0,2.509,0c0,0.464,0,0.929,0,1.393c-0.279,0-0.558,0-0.836,0
	c-0.488,0.161-1.637-0.336-1.673,0.279c-0.172,0.756,0.354,2.211-0.278,2.508c0-0.929,0-1.857,0-2.787
	C96.931,33.814,96.931,32.301,96.478,32.501z"/>
<path fill-rule="evenodd" clip-rule="evenodd" fill="#797979" d="M96.756,4.351c0.407,0.153,1.44-0.326,1.395,0.279
	c-0.465,0-0.93,0-1.395,0C96.756,4.537,96.756,4.444,96.756,4.351z"/>
<path fill-rule="evenodd" clip-rule="evenodd" fill="#181818" d="M22.062,7.417c0.086-0.378,0.698-0.231,1.115-0.279
	C23.091,7.517,22.479,7.369,22.062,7.417z"/>
<path fill-rule="evenodd" clip-rule="evenodd" fill="#797979" d="M102.889,11.598c0-0.65,0-1.301,0-1.951
	c0.623,0.12,0.112,1.374,0.278,1.951C103.074,11.598,102.98,11.598,102.889,11.598z"/>
<path fill-rule="evenodd" clip-rule="evenodd" fill="#181818" d="M103.167,16.614c0.604-0.047,0.126,0.989,0.278,1.394
	c-0.092,0-0.187,0-0.278,0C103.167,17.543,103.167,17.079,103.167,16.614z"/>
<path fill-rule="evenodd" clip-rule="evenodd" fill="#181818" d="M100.658,17.172c0,0.558,0,1.114,0,1.672
	c-0.614-0.035-0.118-1.183-0.278-1.672C100.473,17.172,100.566,17.172,100.658,17.172z"/>
<path fill-rule="evenodd" clip-rule="evenodd" fill="#181818" d="M103.445,20.795c0.605-0.047,0.126,0.989,0.278,1.394
	c-0.092,0-0.185,0-0.278,0C103.445,21.724,103.445,21.259,103.445,20.795z"/>
<path fill-rule="evenodd" clip-rule="evenodd" fill="#333333" d="M100.938,21.352c0,0.465,0,0.93,0,1.394
	c-0.604,0.047-0.127-0.989-0.279-1.394C100.751,21.352,100.845,21.352,100.938,21.352z"/>
<path fill-rule="evenodd" clip-rule="evenodd" fill="#C5C5C5" d="M103.445,25.812c0-0.836,0-1.672,0-2.508c0.094,0,0.187,0,0.278,0
	C103.552,24.06,104.078,25.515,103.445,25.812z"/>
<path fill-rule="evenodd" clip-rule="evenodd" fill="#C5C5C5" d="M99.823,27.206c0.297-0.633,1.751-0.107,2.508-0.279
	C102.035,27.559,100.578,27.033,99.823,27.206z"/>
<path fill-rule="evenodd" clip-rule="evenodd" fill="#181818" d="M86.723,38.911c0.387-0.635,1.941-0.104,2.787-0.279
	C89.123,39.268,87.57,38.736,86.723,38.911z"/>
<path fill-rule="evenodd" clip-rule="evenodd" fill="#797979" d="M49.933,38.911c2.509,0,5.017,0,7.525,0c0,0.093,0,0.186,0,0.278
	c-2.508,0-5.017,0-7.525,0C49.933,39.097,49.933,39.004,49.933,38.911z"/>
<path fill-rule="evenodd" clip-rule="evenodd" fill="#333333" d="M57.458,38.911c1.952,0,3.902,0,5.854,0c0,0.093,0,0.186,0,0.278
	c-1.951,0-3.902,0-5.854,0C57.458,39.097,57.458,39.004,57.458,38.911z"/>
<path fill-rule="evenodd" clip-rule="evenodd" fill="#333333" d="M88.396,41.419c0.558,0,1.114,0,1.673,0
	c-0.036,0.616-1.184,0.119-1.673,0.278C88.396,41.605,88.396,41.513,88.396,41.419z"/>
<path fill-rule="evenodd" clip-rule="evenodd" fill="#333333" d="M20.668,42.256c2.139,0.183,5.014-0.369,6.689,0.278
	c-2.229,0-4.459,0-6.689,0C20.668,42.441,20.668,42.349,20.668,42.256z"/>
<path fill-rule="evenodd" clip-rule="evenodd" fill="#333333" d="M19.275,45.043c2.603,0.184,5.944-0.369,8.083,0.278
	c-2.694,0-5.388,0-8.083,0C19.275,45.229,19.275,45.136,19.275,45.043z"/>
<path fill-rule="evenodd" clip-rule="evenodd" fill="#333333" d="M3.11,45.601c0,1.208,0,2.416,0,3.623
	c-0.641-0.659-0.1-2.502-0.279-3.623C2.924,45.601,3.017,45.601,3.11,45.601z"/>
<path fill-rule="evenodd" clip-rule="evenodd" fill="#333333" d="M46.867,50.896c0.46,0.124,0.46,2.106,0,2.229
	C46.867,52.382,46.867,51.639,46.867,50.896z"/>
<path fill-rule="evenodd" clip-rule="evenodd" fill="#181818" d="M44.081,51.453c0.452-0.199,0.452,1.314,0,1.115
	C44.081,52.196,44.081,51.825,44.081,51.453z"/>
<path fill-rule="evenodd" clip-rule="evenodd" fill="#333333" d="M25.685,58.421c0.391-0.462,2.676-0.462,3.066,0
	C27.729,58.421,26.707,58.421,25.685,58.421z"/>
<path fill-rule="evenodd" clip-rule="evenodd" fill="#333333" d="M26.243,60.93c0.578,0.165,1.831-0.345,1.951,0.278
	c-0.65,0-1.301,0-1.951,0C26.243,61.115,26.243,61.022,26.243,60.93z"/>
<path fill-rule="evenodd" clip-rule="evenodd" fill="#333333" d="M26.243,67.897c0.557,0,1.115,0,1.672,0
	c-0.035,0.615-1.183,0.118-1.672,0.278C26.243,68.083,26.243,67.99,26.243,67.897z"/>
<path fill-rule="evenodd" clip-rule="evenodd" fill="#FFFFFF" d="M8.405,10.482c3.461-3.042,7.555-5.451,13.657-5.853
	c0.464,0,0.929,0,1.394,0c0.557,0,1.115,0,1.672,0c0.929,0,1.858,0,2.787,0c0.464,0,0.929,0,1.393,0c4.46,0,8.919,0,13.379,0
	c0.186,0,0.371,0,0.557,0c0.557,0,1.115,0,1.672,0c16.816,0,33.63,0,50.447,0c0.465,0,0.928,0,1.393,0s0.93,0,1.395,0
	c2.753,0.499,4.346,2.158,4.738,5.017c0,0.65,0,1.301,0,1.951c0.178,1.122-0.363,2.963,0.278,3.623c0,0.464,0,0.929,0,1.393
	c0,0.465,0,0.929,0,1.394c0,0.372,0,0.743,0,1.114c0.152,0.405-0.325,1.441,0.278,1.394c0,0.093,0,0.186,0,0.279
	c0,0.464,0,0.929,0,1.394c0,0.372,0,0.743,0,1.115c0,0.836,0,1.672,0,2.508c-0.25,0.491-0.623,0.863-1.114,1.115
	c-0.757,0.172-2.211-0.354-2.508,0.279c-1.787,0.257-2.887,1.202-3.067,3.065c-0.627,0.208-0.108,1.563-0.278,2.23
	c0,0.371,0,0.743,0,1.114c0,0.93,0,1.858,0,2.787c-0.07,1.044-0.437,1.793-1.114,2.23c-0.49,0.252-0.863,0.624-1.115,1.115
	c-0.97,0.98-2.252,1.649-4.18,1.672c-0.559,0-1.115,0-1.673,0c-2.138,0-4.273,0-6.411,0c-3.531,0.186-7.803-0.37-10.87,0.278
	c-1.3,0-2.6,0-3.901,0c-6.131,0-12.264,0-18.395,0c-0.667,0.171-2.022-0.349-2.229,0.279c-1.686,0.247-2.674,1.293-2.788,2.23
	c-0.201,1.672,3.234,4.589,3.066,6.688c0,0.743,0,1.486,0,2.229c-0.05,1.251-0.58,2.021-1.114,2.788
	c-0.583,0.346-1.048,0.81-1.394,1.393c-1.601,1.415-3.86,1.779-5.853,1.115c-2.003-0.668-2.866-3.046-3.902-4.181
	c-0.237,0.051-0.263-0.108-0.279-0.279c-0.145-0.412-0.412-0.702-0.557-1.114c-0.093,0-0.186,0-0.279,0
	c-1.969-2.584-3.325-5.78-6.132-7.525c-2.139-0.647-5.48-0.095-8.083-0.278c-0.667,0.17-2.022-0.351-2.229,0.278
	c-1.265-0.149-1.67,0.561-2.508,0.836c-0.492,0.252-0.863,0.624-1.115,1.116c0,0.092,0,0.185,0,0.278c-0.093,0-0.187,0-0.279,0
	c0.16,0.488-0.337,1.637,0.279,1.672c0.983,2.082,1.856,4.274,3.065,6.131c0.251,0.492,0.624,0.863,1.115,1.115
	c1.581,0.741,2.635,2.01,5.017,1.951c-0.047,0.604,0.988,0.126,1.393,0.278c0.405-0.152,1.441,0.326,1.394-0.278
	c0.093,0,0.186,0,0.278,0c1.022,0,2.044,0,3.066,0c0.849-0.013,1.419,0.254,1.672,0.836c0.251,0.491,0.623,0.863,1.114,1.115
	c0.093,0,0.186,0,0.279,0c0.276,0.839,0.986,1.243,0.836,2.509c0,0.649,0,1.3,0,1.95c0,0.371,0,0.743,0,1.114
	c-0.576,0.634-0.57,1.847-1.115,2.509c-0.491,0.252-0.863,0.624-1.114,1.116c-0.696,0.696-1.57,1.216-3.066,1.113
	c-1.393,0-2.787,0-4.181,0c-0.279,0-0.557,0-0.836,0c-0.296-0.632-1.752-0.105-2.509-0.278c-4.982-0.87-8.784-2.922-11.706-5.853
	c-0.439-0.676-0.998-1.232-1.672-1.672c-0.689-0.333-1.09-0.955-1.394-1.673c-0.325-0.511-0.728-0.944-1.115-1.394
	c-1.963-3.146-3.49-6.73-3.623-11.706c0-0.465,0-0.929,0-1.394c0-4.088,0-8.175,0-12.264c0-1.765,0-3.53,0-5.295
	c0-0.929,0-1.858,0-2.787c0.645-6.603,3.186-11.307,6.968-14.771C7.782,11.346,8.153,10.974,8.405,10.482z M64.983,7.138
	c-6.596,0-13.192,0-19.788,0c-0.65,0-1.301,0-1.951,0c-0.093,0-0.186,0-0.279,0c-0.278,0-0.558,0-0.836,0c-2.972,0-5.945,0-8.918,0
	c-2.044,0-4.087,0-6.131,0c-0.558,0-1.115,0-1.672,0c-0.743,0-1.487,0-2.23,0c-0.417,0.048-1.028-0.099-1.115,0.279
	c-5.661,0.377-9.105,2.972-12.542,5.574c-0.491,0.252-0.863,0.624-1.115,1.115C5.893,17.54,3.313,20.906,3.11,26.647
	C2.481,26.855,3,28.211,2.831,28.877c0,2.044,0,4.088,0,6.132c0,0.836,0,1.672,0,2.508c0,1.115,0,2.229,0,3.345
	c0,1.579,0,3.158,0,4.738c0.18,1.121-0.362,2.964,0.279,3.623c0.251,3.558,1.599,6.019,2.787,8.64
	c0.085,0.658,0.968,0.519,0.836,1.394c0.093,0,0.186,0,0.278,0c0,0.093,0,0.186,0,0.279c0.617,0.219,0.698,0.975,1.115,1.394
	c0.439,0.675,0.997,1.232,1.672,1.673c0.358,0.477,0.576,1.096,1.394,1.113c2.969,1.955,5.939,3.91,10.591,4.182
	c0.051,0.412,0.673,0.255,1.114,0.278c0.465,0,0.93,0,1.394,0c0.65,0,1.3,0,1.951,0c0.49-0.16,1.638,0.337,1.672-0.278
	c0.093,0,0.186,0,0.279,0c0.806-0.124,1.27-0.588,1.394-1.394c-0.063-0.527,0.314-0.615,0.278-1.115
	c0.461-0.211,0.461-2.297,0-2.508c-0.396-0.719-0.652-1.577-1.672-1.673c-0.12-0.623-1.374-0.113-1.951-0.278
	c-0.372,0-0.743,0-1.115,0c-1.487,0-2.973,0-4.459,0c-1.97-0.446-3.68-1.151-4.738-2.509c-0.346-0.583-0.811-1.048-1.394-1.395
	c-1.787-2.115-3.039-4.765-3.902-7.803c0-0.559,0-1.115,0-1.672c-0.008-0.937,0.384-1.475,0.836-1.951
	c0.583-0.346,1.047-0.811,1.393-1.394c0-0.094,0-0.187,0-0.279c1.425-0.713,2.707-1.567,5.017-1.394c0.929,0,1.858,0,2.787,0
	c2.229,0,4.459,0,6.689,0c1.387,0.067,1.764,0.507,2.508,1.114c0.869,0.709,1.797,1.578,2.23,2.23
	c0.43,0.646,0.688,1.076,1.115,1.673c0.833,1.16,2.04,2.859,2.787,3.623c0.031,0.712,0.511,0.976,0.836,1.394
	c1.043,1.613,2.903,4.562,5.574,2.786c0.094,0,0.186,0,0.279,0c0.478-0.358,1.095-0.576,1.114-1.394
	c-0.114-0.671,0.51-0.605,0.279-1.393c0.452,0.199,0.452-1.314,0-1.115c-0.481-2.692-3.531-4.975-3.066-8.083
	c0.095-0.637,0.958-1.462,1.114-1.673c0.201-0.267,0.052-0.614,0.279-0.835c0.749-0.729,3.05-1.703,4.459-1.673
	c1.022,0,2.044,0,3.065,0c2.509,0,5.017,0,7.525,0c1.952,0,3.902,0,5.854,0c3.53,0,7.061,0,10.592,0
	c3.438-0.185,7.617,0.37,10.59-0.278c0.743,0,1.486,0,2.229,0c0.848-0.175,2.4,0.356,2.787-0.279
	c2.765,0.07,4.037-1.351,4.459-3.623c0.453,0.199,0.453-1.314,0-1.115c0-0.093,0-0.186,0-0.279c0-0.371,0-0.743,0-1.114
	c0-0.093,0-0.186,0-0.279c0-0.558,0-1.115,0-1.672c0.03-3.5,1.88-5.182,4.738-5.853c0.667-0.17,2.021,0.35,2.23-0.28
	c0.452,0.2,0.452-1.313,0-1.114c0-0.186,0-0.372,0-0.557c0-0.464,0-0.929,0-1.394c0-0.371,0-0.743,0-1.114
	c-0.049-0.417,0.1-1.029-0.279-1.116c0-0.092,0-0.185,0-0.278c0-0.558,0-1.114,0-1.672c0-1.394,0-2.788,0-4.181
	c-0.166-0.578,0.345-1.831-0.278-1.951c-0.002-2.321-1.226-3.42-3.065-3.902C87.188,6.673,75.111,6.673,64.983,7.138z"/>
<path fill-rule="evenodd" clip-rule="evenodd" fill="#333333" d="M22.062,4.629c-0.047-0.604,0.989-0.126,1.394-0.279
	c0,0.093,0,0.186,0,0.279C22.991,4.629,22.526,4.629,22.062,4.629z"/>
<path fill-rule="evenodd" clip-rule="evenodd" fill="#333333" d="M103.167,11.598c1.105-0.381,1.993-0.979,3.624-0.836
	c1.021,0,2.043,0,3.065,0c0.465,0,0.93,0,1.395,0c0.086,0.378,0.697,0.23,1.113,0.278c1.122-0.192,1.591,0.267,2.509,0.278
	c0.086,0.379,0.697,0.231,1.115,0.279c4.522,0.588,9.378,0.841,12.542,2.787c0.252,0.492,0.623,0.863,1.113,1.115
	c0.479,0.358,1.096,0.576,1.116,1.394c0.278,0.37,0.263,1.037,0.835,1.115c1.282,2.712,2.673,5.318,2.787,9.198
	c0.172,0.756-0.353,2.211,0.278,2.508c0,5.109,0,10.22,0,15.329c-0.258,0.205-0.421,0.507-0.557,0.836
	c-0.491,0.252-0.863,0.624-1.114,1.114c-0.532,0.119-0.505,0.797-1.395,0.559c-0.465,0-0.927,0-1.392,0
	c-0.583,0.118-0.739-0.191-1.116-0.278c-0.25-0.492-0.623-0.864-1.114-1.116c-0.234-0.323-0.368-0.747-0.278-1.394
	c-0.154-0.404,0.325-1.44-0.278-1.394c-2.041,0.468-3.801,1.22-5.854,1.673c0.909,3.642,3.043,6.062,3.344,10.312
	c0,0.743,0,1.487,0,2.23c-0.179,2.422-1.057,4.146-2.229,5.574c-0.492,0.251-0.863,0.623-1.115,1.115
	c-0.125,0.248-0.245,0.498-0.558,0.557c-0.583,0.347-1.048,0.812-1.395,1.394c-2.818,1.919-5.593,3.882-10.032,4.181
	c-0.668,0.17-2.021-0.35-2.23,0.278c-3.159,0-6.318,0-9.476,0c-20.903,0-41.807,0-62.71,0c-1.165,0.143-1.889-0.155-2.508-0.557
	c-0.189-0.647-0.926-0.746-1.115-1.394c0-0.093,0-0.187,0-0.279c0.545-0.662,0.54-1.875,1.115-2.509c0.093,0,0.186,0,0.279,0
	c0.402,0.9,0.808,1.794,1.951,1.952c20.996,0.465,43.942,0.465,64.94,0c2.787,0,5.573,0,8.36,0c0.404-0.152,1.44,0.325,1.395-0.279
	c3.335-0.474,5.642-1.976,8.081-3.344c0.491-0.252,0.863-0.625,1.116-1.115c1.639-1.334,2.835-3.111,3.344-5.574
	c0.461-0.124,0.461-2.106,0-2.23c-0.477-3.609-2.424-5.749-3.065-9.197c0-0.65,0-1.3,0-1.95c1.028-2.503,4.392-2.669,7.246-3.345
	c0.743,0,1.487,0,2.23,0c1.062,0.239,1.606,0.994,1.673,2.229c0.002,0.74-0.106,1.592,0.278,1.951
	c0.875,0.132,1.138-0.348,1.393-0.836c0-0.559,0-1.115,0-1.673c0.458,0.046,0.458-1.718,0-1.672c0-4.088,0-8.176,0-12.264
	c-0.161-0.49,0.336-1.638-0.279-1.672c-0.246-2.319-0.981-4.002-1.951-6.131c-1.046-2.301-1.627-3.82-3.9-4.738
	c-2.159-0.871-4.948-0.639-7.806-1.393c-0.086-0.379-0.696-0.231-1.113-0.279c-1.122,0.192-1.591-0.267-2.509-0.279
	c-0.086-0.378-0.699-0.231-1.115-0.278c-0.278,0-0.558,0-0.836,0c-0.086-0.378-0.697-0.231-1.113-0.279c-0.281,0-0.56,0-0.838,0
	c-0.663-0.463-3.239-0.463-3.9,0c-1.501,0.172-2.654,0.69-3.346,1.672C103.167,14.013,103.167,12.805,103.167,11.598z"/>
<path fill-rule="evenodd" clip-rule="evenodd" fill="#333333" d="M0.323,26.369c0,0.929,0,1.858,0,2.787c-0.093,0-0.186,0-0.279,0
	C0.218,28.309-0.313,26.756,0.323,26.369z"/>
<path fill-rule="evenodd" clip-rule="evenodd" fill="#181818" d="M3.11,26.647c-0.17,0.667,0.35,2.022-0.279,2.23
	C3,28.211,2.481,26.855,3.11,26.647z"/>
<path fill-rule="evenodd" clip-rule="evenodd" fill="#333333" d="M46.867,39.189c0.477-0.637,2.127-0.102,3.065-0.278
	c0,0.093,0,0.186,0,0.278C48.911,39.189,47.889,39.189,46.867,39.189z"/>
<path fill-rule="evenodd" clip-rule="evenodd" fill="#333333" d="M10.635,47.552c0,0.557,0,1.113,0,1.672
	C10.178,49.27,10.178,47.506,10.635,47.552z"/>
<path fill-rule="evenodd" clip-rule="evenodd" fill="#333333" d="M32.653,62.881c0.623,0.119,0.112,1.373,0.279,1.95
	c-0.093,0-0.186,0-0.279,0C32.653,64.181,32.653,63.53,32.653,62.881z"/>
<path fill-rule="evenodd" clip-rule="evenodd" fill="#333333" d="M23.177,70.684c1.394,0,2.788,0,4.181,0
	C26.603,71.146,23.931,71.146,23.177,70.684z"/>
<path fill-rule="evenodd" clip-rule="evenodd" fill="#C5C5C5" d="M20.668,60.93c1.487,0,2.973,0,4.459,0c0,0.093,0,0.186,0,0.278
	C23.73,61.027,21.604,61.573,20.668,60.93z"/>
<path fill-rule="evenodd" clip-rule="evenodd" fill="#797979" d="M19.832,70.405c0.757,0.173,2.212-0.354,2.509,0.278
	C21.584,70.512,20.129,71.037,19.832,70.405z"/>
<path fill-rule="evenodd" clip-rule="evenodd" fill="#797979" d="M98.707,24.697c0.209-0.629,1.564-0.109,2.23-0.28
	C100.729,25.047,99.374,24.527,98.707,24.697z"/>
<path fill-rule="evenodd" clip-rule="evenodd" fill="#333333" d="M46.589,41.977c0.207-0.628,1.563-0.108,2.229-0.279
	c0,0.094,0,0.187,0,0.279C48.075,41.977,47.332,41.977,46.589,41.977z"/>
<path fill-rule="evenodd" clip-rule="evenodd" fill="#333333" d="M13.422,47.552c0,0.557,0,1.113,0,1.672
	c-0.616-0.035-0.119-1.184-0.279-1.672C13.236,47.552,13.329,47.552,13.422,47.552z"/>
<path fill-rule="evenodd" clip-rule="evenodd" fill="#333333" d="M29.866,62.881c0.461,0.211,0.461,2.297,0,2.508
	C29.866,64.553,29.866,63.716,29.866,62.881z"/>
</svg>
