<?xml version="1.0" encoding="utf-8"?>
<!-- Generator: Adobe Illustrator 15.0.0, SVG Export Plug-In  -->
<!DOCTYPE svg PUBLIC "-//W3C//DTD SVG 1.1//EN" "http://www.w3.org/Graphics/SVG/1.1/DTD/svg11.dtd" [
	<!ENTITY ns_flows "http://ns.adobe.com/Flows/1.0/">
]>
<svg version="1.1"
	 xmlns="http://www.w3.org/2000/svg" xmlns:xlink="http://www.w3.org/1999/xlink" xmlns:a="http://ns.adobe.com/AdobeSVGViewerExtensions/3.0/"
	 x="0px" y="0px" width="142px" height="142px" viewBox="-11.968 -43.533 142 142" enable-background="new -11.968 -43.533 142 142"
	 xml:space="preserve">
<defs>
</defs>
<path fill-rule="evenodd" clip-rule="evenodd" fill="#C5C5C5" d="M98.123,2.855c-0.2-0.452,1.314-0.452,1.114,0
	C98.866,2.855,98.494,2.855,98.123,2.855z"/>
<path fill-rule="evenodd" clip-rule="evenodd" fill="#C5C5C5" d="M93.942,4.807c0,0.372,0,0.743,0,1.115
	C93.489,6.121,93.489,4.607,93.942,4.807z"/>
<path fill-rule="evenodd" clip-rule="evenodd" fill="#C5C5C5" d="M91.433,8.708c0.413,0.052,0.257,0.674,0.279,1.116
	c-0.093,0-0.187,0-0.279,0C91.433,9.451,91.433,9.08,91.433,8.708z"/>
<path fill-rule="evenodd" clip-rule="evenodd" fill="#797979" d="M91.433,9.824c0.093,0,0.187,0,0.279,0c0,0.371,0,0.743,0,1.114
	c-0.093,0-0.187,0-0.279,0C91.433,10.567,91.433,10.195,91.433,9.824z"/>
<path fill-rule="evenodd" clip-rule="evenodd" fill="#797979" d="M94.22,11.774c0.094,0,0.187,0,0.278,0c0,0.372,0,0.743,0,1.115
	c-0.092,0-0.185,0-0.278,0C94.22,12.517,94.22,12.146,94.22,11.774z"/>
<path fill-rule="evenodd" clip-rule="evenodd" fill="#C5C5C5" d="M91.712,12.611c0.412,0.052,0.256,0.673,0.278,1.114
	c-0.093,0-0.187,0-0.278,0C91.712,13.354,91.712,12.982,91.712,12.611z"/>
<path fill-rule="evenodd" clip-rule="evenodd" fill="#181818" d="M84.744,19.857c0,0.65,0,1.301,0,1.951
	C84.286,21.771,84.286,19.895,84.744,19.857z"/>
<path fill-rule="evenodd" clip-rule="evenodd" fill="#C5C5C5" d="M124.878,21.25c0.379,0.086,0.232,0.698,0.278,1.115
	c-0.092,0-0.185,0-0.278,0C124.878,21.994,124.878,21.622,124.878,21.25z"/>
<path fill-rule="evenodd" clip-rule="evenodd" fill="#797979" d="M124.878,22.365c0.094,0,0.187,0,0.278,0c0,0.65,0,1.301,0,1.952
	C124.534,24.196,125.044,22.943,124.878,22.365z"/>
<path fill-rule="evenodd" clip-rule="evenodd" fill="#353535" d="M63.005,25.988c-0.126-0.455,1.519-0.455,1.395,0
	C63.935,25.988,63.47,25.988,63.005,25.988z"/>
<path fill-rule="evenodd" clip-rule="evenodd" fill="#797979" d="M127.665,25.988c0.095,0,0.187,0,0.281,0c0,3.159,0,6.318,0,9.477
	c-0.095,0-0.187,0-0.281,0C127.665,32.307,127.665,29.147,127.665,25.988z"/>
<path fill-rule="evenodd" clip-rule="evenodd" fill="#353535" d="M47.676,28.775c0-0.093,0-0.186,0-0.278c2.137,0,4.273,0,6.411,0
	c0,0.093,0,0.186,0,0.278C51.949,28.775,49.813,28.775,47.676,28.775z"/>
<path fill-rule="evenodd" clip-rule="evenodd" fill="#C5C5C5" d="M63.005,28.775c-0.126-0.455,1.519-0.455,1.395,0
	C63.935,28.775,63.47,28.775,63.005,28.775z"/>
<path fill-rule="evenodd" clip-rule="evenodd" fill="#C5C5C5" d="M64.957,28.775c0-0.093,0-0.186,0-0.278c3.438,0,6.874,0,10.312,0
	C72.387,29.146,68.302,28.591,64.957,28.775z"/>
<path fill-rule="evenodd" clip-rule="evenodd" fill="#181818" d="M117.075,30.448c0.125-0.46,2.105-0.46,2.23,0
	C118.562,30.448,117.818,30.448,117.075,30.448z"/>
<path fill-rule="evenodd" clip-rule="evenodd" fill="#C5C5C5" d="M125.157,30.17c0.459,0.038,0.459,1.913,0,1.95
	C125.157,31.47,125.157,30.819,125.157,30.17z"/>
<path fill-rule="evenodd" clip-rule="evenodd" fill="#181818" d="M122.649,30.448c0.458-0.046,0.458,1.718,0,1.672
	C122.649,31.563,122.649,31.005,122.649,30.448z"/>
<path fill-rule="evenodd" clip-rule="evenodd" fill="#C5C5C5" d="M61.889,31.283c-0.199-0.451,1.316-0.451,1.116,0
	C62.632,31.283,62.262,31.283,61.889,31.283z"/>
<path fill-rule="evenodd" clip-rule="evenodd" fill="#C5C5C5" d="M64.4,31.283c2.138-0.647,5.479-0.094,8.081-0.278
	c0,0.094,0,0.187,0,0.278c-2.601,0-5.202,0-7.803,0C64.583,31.283,64.492,31.283,64.4,31.283z"/>
<path fill-rule="evenodd" clip-rule="evenodd" fill="#797979" d="M72.481,31.283c0-0.092,0-0.185,0-0.278c2.23,0,4.46,0,6.689,0
	c0,0.094,0,0.187,0,0.278C76.941,31.283,74.711,31.283,72.481,31.283z"/>
<path fill-rule="evenodd" clip-rule="evenodd" fill="#181818" d="M39.593,31.563c0-0.093,0-0.186,0-0.279c6.225,0,12.449,0,18.673,0
	C52.6,31.934,45.725,31.377,39.593,31.563z"/>
<path fill-rule="evenodd" clip-rule="evenodd" fill="#181818" d="M64.4,31.283c0.092,0,0.184,0,0.278,0
	c-0.177,0.848,0.356,2.401-0.278,2.788C64.4,33.143,64.4,32.213,64.4,31.283z"/>
<path fill-rule="evenodd" clip-rule="evenodd" fill="#181818" d="M8.656,32.12c0.477-0.638,2.127-0.103,3.066-0.278
	c0,0.093,0,0.186,0,0.278C10.7,32.12,9.678,32.12,8.656,32.12z"/>
<path fill-rule="evenodd" clip-rule="evenodd" fill="#181818" d="M118.191,32.956c0.604-0.047,0.124,0.989,0.278,1.394
	C117.865,34.396,118.343,33.361,118.191,32.956z"/>
<path fill-rule="evenodd" clip-rule="evenodd" fill="#797979" d="M7.82,34.907c0.386-0.636,1.94-0.104,2.787-0.278
	c0,0.093,0,0.186,0,0.278C9.678,34.907,8.75,34.907,7.82,34.907z"/>
<path fill-rule="evenodd" clip-rule="evenodd" fill="#181818" d="M124.878,36.579c0.048-0.416-0.099-1.028,0.278-1.114
	c0,0.371,0,0.743,0,1.114C125.065,36.579,124.972,36.579,124.878,36.579z"/>
<path fill-rule="evenodd" clip-rule="evenodd" fill="#353535" d="M124.878,36.579c0.094,0,0.187,0,0.278,0c0,0.372,0,0.744,0,1.115
	c-0.092,0-0.185,0-0.278,0C124.878,37.323,124.878,36.951,124.878,36.579z"/>
<path fill-rule="evenodd" clip-rule="evenodd" fill="#181818" d="M120.978,37.138c0.465,0,0.927,0,1.392,0
	C122.497,37.592,120.851,37.592,120.978,37.138z"/>
<path fill-rule="evenodd" clip-rule="evenodd" fill="#797979" d="M124.878,37.694c0.094,0,0.187,0,0.278,0
	c-0.152,0.404,0.326,1.44-0.278,1.394C124.878,38.623,124.878,38.159,124.878,37.694z"/>
<path fill-rule="evenodd" clip-rule="evenodd" fill="#181818" d="M112.894,44.94c0.461,0.124,0.461,2.106,0,2.23
	C112.894,46.428,112.894,45.684,112.894,44.94z"/>
<path fill-rule="evenodd" clip-rule="evenodd" fill="#181818" d="M115.681,44.94c0.46,0.124,0.46,2.106,0,2.23
	C115.681,46.428,115.681,45.684,115.681,44.94z"/>
<path fill-rule="evenodd" clip-rule="evenodd" fill="#C5C5C5" d="M12.559,48.007c0.372,0,0.743,0,1.114,0c0,0.092,0,0.186,0,0.278
	C13.231,48.263,12.61,48.42,12.559,48.007z"/>
<path fill-rule="evenodd" clip-rule="evenodd" fill="#797979" d="M13.673,48.285c0-0.093,0-0.187,0-0.278c0.372,0,0.743,0,1.115,0
	c0,0.092,0,0.186,0,0.278C14.416,48.285,14.044,48.285,13.673,48.285z"/>
<path fill-rule="evenodd" clip-rule="evenodd" fill="#C5C5C5" d="M14.788,48.285c0-0.093,0-0.187,0-0.278c0.372,0,0.743,0,1.115,0
	C15.816,48.386,15.205,48.238,14.788,48.285z"/>
<path fill-rule="evenodd" clip-rule="evenodd" fill="#797979" d="M15.624,50.794c0-0.093,0-0.186,0-0.278c0.372,0,0.743,0,1.115,0
	c0,0.093,0,0.186,0,0.278C16.367,50.794,15.996,50.794,15.624,50.794z"/>
<path fill-rule="evenodd" clip-rule="evenodd" fill="#181818" d="M98.958,57.483c-0.046-0.605,0.989-0.127,1.395-0.279
	c0,0.093,0,0.186,0,0.279C99.888,57.483,99.423,57.483,98.958,57.483z"/>
<path fill-rule="evenodd" clip-rule="evenodd" fill="#C5C5C5" d="M72.759,57.762c0.038-0.459,1.914-0.459,1.952,0
	C74.06,57.762,73.411,57.762,72.759,57.762z"/>
<path fill-rule="evenodd" clip-rule="evenodd" fill="#797979" d="M104.812,57.762c-3.532-0.185-7.803,0.37-10.87-0.278
	c1.673,0,3.346,0,5.017,0c0.465,0,0.93,0,1.395,0c1.486,0,2.973,0,4.459,0C104.812,57.576,104.812,57.669,104.812,57.762z"/>
<path fill-rule="evenodd" clip-rule="evenodd" fill="#C5C5C5" d="M104.812,57.762c0-0.093,0-0.186,0-0.278c0.371,0,0.743,0,1.114,0
	C105.84,57.861,105.229,57.715,104.812,57.762z"/>
<path fill-rule="evenodd" clip-rule="evenodd" fill="#C5C5C5" d="M84.744,60.27c3.997-0.464,9.939-0.464,13.937,0
	c-3.344,0-6.689,0-10.033,0C87.346,60.27,86.046,60.27,84.744,60.27z"/>
<path fill-rule="evenodd" clip-rule="evenodd" fill="#181818" d="M25.937,60.27c0.371,0,0.743,0,1.115,0c0,0.094,0,0.187,0,0.279
	C26.61,60.525,25.988,60.683,25.937,60.27z"/>
<path fill-rule="evenodd" clip-rule="evenodd" fill="#181818" d="M57.988,60.549c0-0.093,0-0.186,0-0.279c4.831,0,9.663,0,14.493,0
	c0,0.094,0,0.187,0,0.279C67.651,60.549,62.819,60.549,57.988,60.549z"/>
<path fill-rule="evenodd" clip-rule="evenodd" fill="#797979" d="M72.759,60.27c0.651,0,1.301,0,1.952,0c0,0.094,0,0.187,0,0.279
	c0,1.301,0,2.601,0,3.902c-0.651,0-1.301,0-1.952,0C72.759,63.058,72.759,61.664,72.759,60.27z"/>
<path fill-rule="evenodd" clip-rule="evenodd" fill="#181818" d="M74.711,60.549c0-0.093,0-0.186,0-0.279c3.344,0,6.689,0,10.032,0
	c1.303,0,2.603,0,3.903,0C84.558,60.92,79.263,60.363,74.711,60.549z"/>
<path fill-rule="evenodd" clip-rule="evenodd" fill="#797979" d="M89.482,14.283c0.124-0.806,2.105,0.248,2.23-0.558
	c0.092,0,0.186,0,0.278,0C91.892,14.65,90.383,14.163,89.482,14.283z"/>
<path fill-rule="evenodd" clip-rule="evenodd" fill="#353535" d="M85.86,16.512c0.251-0.491,0.623-0.863,1.114-1.115
	C86.721,15.889,86.351,16.261,85.86,16.512z"/>
<path fill-rule="evenodd" clip-rule="evenodd" fill="#797979" d="M63.005,25.988c0.465,0,0.93,0,1.395,0
	c0.248,0.772-0.573,2.616,0.557,2.509c0,0.093,0,0.186,0,0.278c-0.187,0-0.373,0-0.557,0c0.124-0.455-1.521-0.455-1.395,0
	c-2.974,0-5.946,0-8.919,0c0-0.093,0-0.186,0-0.278c2.879,0,5.76,0,8.641,0C63.36,28.201,62.833,26.745,63.005,25.988z"/>
<path fill-rule="evenodd" clip-rule="evenodd" fill="#181818" d="M33.183,44.94c0.252-0.49,0.624-0.862,1.115-1.114
	C34.046,44.317,33.674,44.689,33.183,44.94z"/>
<path fill-rule="evenodd" clip-rule="evenodd" fill="#181818" d="M2.246,34.907c0.346-0.583,0.81-1.047,1.393-1.394
	c0,0.093,0,0.186,0,0.279C2.992,33.981,2.894,34.72,2.246,34.907z"/>
<path fill-rule="evenodd" clip-rule="evenodd" fill="#C5C5C5" d="M6.706,48.007c-0.583-0.347-1.048-0.811-1.394-1.395
	C5.895,46.959,6.359,47.424,6.706,48.007z"/>
<path fill-rule="evenodd" clip-rule="evenodd" fill="#181818" d="M21.755,57.762c0.492,0.252,0.46,1.025,1.115,1.114
	c0.098,0.367,0.491,0.439,0.558,0.837C22.783,59.149,21.939,58.786,21.755,57.762z"/>
<path fill-rule="evenodd" clip-rule="evenodd" fill="#353535" d="M119.862,54.139c0.347-0.583,0.812-1.048,1.395-1.394
	C120.91,53.328,120.445,53.793,119.862,54.139z"/>
<path fill-rule="evenodd" clip-rule="evenodd" fill="#C5C5C5" d="M120.418,5.085c0.77,0.533,1.419,1.183,1.951,1.951
	C121.603,6.503,120.952,5.853,120.418,5.085z"/>
<path fill-rule="evenodd" clip-rule="evenodd" fill="#C5C5C5" d="M2.246,34.907c0.647-0.188,0.746-0.926,1.393-1.114
	c-0.346,0.583-0.81,1.048-1.393,1.394C2.246,35.093,2.246,35,2.246,34.907z"/>
<path fill-rule="evenodd" clip-rule="evenodd" fill="#C5C5C5" d="M33.183,44.94c0.492-0.251,0.863-0.623,1.115-1.114
	c-0.052-0.236,0.109-0.263,0.278-0.279c-0.214,0.902-0.771,1.459-1.672,1.673C32.853,44.982,33.013,44.957,33.183,44.94z"/>
<path fill-rule="evenodd" clip-rule="evenodd" fill="#C5C5C5" d="M84.744,29.611c0.347-0.583,0.812-1.047,1.395-1.393
	c0,0.093,0,0.186,0,0.279c-0.49,0.252-0.863,0.624-1.115,1.114C84.93,29.611,84.836,29.611,84.744,29.611z"/>
<path fill-rule="evenodd" clip-rule="evenodd" fill="#797979" d="M35.134,46.892c0.252-0.49,0.624-0.863,1.115-1.114
	C35.997,46.268,35.625,46.641,35.134,46.892z"/>
<path fill-rule="evenodd" clip-rule="evenodd" fill="#C5C5C5" d="M20.641,37.138c-0.672-0.536-1.106-1.31-1.672-1.951
	C19.721,35.642,20.294,36.276,20.641,37.138z"/>
<path fill-rule="evenodd" clip-rule="evenodd" fill="#797979" d="M4.197,36.859c0.251-0.492,0.623-0.864,1.115-1.116
	C5.06,36.235,4.688,36.606,4.197,36.859z"/>
<path fill-rule="evenodd" clip-rule="evenodd" fill="#797979" d="M7.263,44.94c0.492,0.252,0.863,0.624,1.115,1.115
	C7.887,45.804,7.514,45.433,7.263,44.94z"/>
<path fill-rule="evenodd" clip-rule="evenodd" fill="#C5C5C5" d="M21.199,48.843c0.491,0.252,0.862,0.624,1.114,1.115
	C21.822,49.706,21.45,49.334,21.199,48.843z"/>
<path fill-rule="evenodd" clip-rule="evenodd" fill="#353535" d="M117.632,52.467c0.532-0.768,1.184-1.419,1.951-1.951
	C119.05,51.282,118.399,51.933,117.632,52.467z"/>
<path fill-rule="evenodd" clip-rule="evenodd" fill="#797979" d="M120.418,8.708c-0.566-0.082-0.547-0.753-1.113-0.836
	c-0.099-0.366-0.491-0.438-0.558-0.836C119.423,7.476,119.98,8.034,120.418,8.708z"/>
<path fill-rule="evenodd" clip-rule="evenodd" fill="#181818" d="M120.978,32.678c0.614,0.035,0.118,1.183,0.278,1.672
	c0.89,0.239,0.861-0.438,1.393-0.557c-0.255,0.488-0.518,0.968-1.393,0.836C120.872,34.27,120.98,33.418,120.978,32.678z"/>
<path fill-rule="evenodd" clip-rule="evenodd" fill="#181818" d="M108.434,53.86c0.253-0.492,0.625-0.864,1.116-1.115
	C109.297,53.235,108.925,53.608,108.434,53.86z"/>
<path fill-rule="evenodd" clip-rule="evenodd" fill="#797979" d="M72.481,57.483c0.823-0.663-0.267-3.24,0.558-3.902
	c0.559,0,1.115,0,1.673,0c0,1.301,0,2.601,0,3.902c5.573,0,11.148,0,16.722,0c-5.017,0.649-11.241,0.093-16.722,0.278
	c-0.038-0.459-1.914-0.459-1.952,0c-2.321,0-4.646,0-6.968,0c0-0.093,0-0.186,0-0.278C68.022,57.483,70.251,57.483,72.481,57.483z"
	/>
<path fill-rule="evenodd" clip-rule="evenodd" fill="#181818" d="M85.023,29.611c0.252-0.49,0.625-0.862,1.115-1.114
	C85.886,28.988,85.515,29.36,85.023,29.611z"/>
<path fill-rule="evenodd" clip-rule="evenodd" fill="#353535" d="M122.091,15.676c-0.276-3.254-1.698-5.361-2.786-7.804
	c0.566,0.083,0.547,0.754,1.113,0.836c1.521,1.825,2.978,3.713,3.346,6.689C122.911,15.195,122.945,15.878,122.091,15.676z"/>
<path fill-rule="evenodd" clip-rule="evenodd" fill="#353535" d="M125.157,35.187c-0.894,0.686-1.218,1.938-2.787,1.951
	c-0.465,0-0.927,0-1.392,0c-0.487,0.02-0.868-0.063-1.116-0.278c-0.25-0.492-0.623-0.864-1.114-1.116
	c-0.234-0.323-0.368-0.747-0.278-1.394c-0.154-0.404,0.325-1.44-0.278-1.394c-2.041,0.468-3.801,1.22-5.854,1.673
	c0.909,3.642,3.043,6.062,3.344,10.312c0,0.743,0,1.487,0,2.23c-0.179,2.422-1.057,4.146-2.229,5.574
	c-0.492,0.251-0.863,0.623-1.115,1.115c-0.061,0.313-0.309,0.434-0.558,0.557c-0.583,0.347-1.048,0.812-1.395,1.394
	c-0.511,0.325-0.943,0.729-1.392,1.115c-0.788,0.42-1.926,0.492-3.067,0.558c-0.371,0-0.743,0-1.114,0c-1.486,0-2.973,0-4.459,0
	c0-0.094,0-0.187,0-0.279c3.335-0.474,5.642-1.976,8.081-3.344c0.491-0.252,0.863-0.625,1.116-1.115
	c1.639-1.334,2.835-3.111,3.344-5.574c0.461-0.124,0.461-2.106,0-2.23c0.056-0.948-0.501-1.823-0.836-2.786
	c-0.576-1.665-1.402-3.536-1.951-5.295c-0.871-2.789-0.635-4.065,2.23-5.297c0.465-0.199,1.328-0.368,1.951-0.558
	c1.046-0.317,1.542-0.465,2.786-0.557c0.743,0,1.487,0,2.23,0c0.186,0,0.37,0,0.557,0c0.36,0.755,1.24,0.99,1.116,2.229
	c0.002,0.74-0.106,1.592,0.278,1.951c0.875,0.132,1.138-0.348,1.393-0.836c0-0.559,0-1.115,0-1.673c0.458,0.046,0.458-1.718,0-1.672
	c0-4.088,0-8.176,0-12.264c0-0.372,0-0.743,0-1.115c0.33-0.32,0.985-0.315,1.673-0.278c0.168,1.503,0.572,2.771,0.557,4.459
	c0,0.372,0,0.743,0,1.115c0.166,0.578-0.345,1.831,0.278,1.952c0,1.95,0,3.901,0,5.853c0,0.649,0,1.3,0,1.95
	C125.157,33.143,125.157,34.164,125.157,35.187z"/>
<path fill-rule="evenodd" clip-rule="evenodd" fill="#181818" d="M118.748,35.743c0.491,0.252,0.864,0.624,1.114,1.116
	C119.371,36.606,118.999,36.235,118.748,35.743z"/>
<path fill-rule="evenodd" clip-rule="evenodd" fill="#181818" d="M112.337,53.86c0.252-0.492,0.623-0.864,1.115-1.115
	C113.201,53.235,112.828,53.608,112.337,53.86z"/>
<path fill-rule="evenodd" clip-rule="evenodd" fill="#181818" d="M110.385,55.811c0.347-0.582,0.812-1.047,1.395-1.394
	C111.433,55,110.968,55.465,110.385,55.811z"/>
<path fill-rule="evenodd" clip-rule="evenodd" fill="#353535" d="M72.481,57.483c0.471-0.868-0.635-3.603,0-4.182
	c0.425-0.388,1.607-0.034,2.23,0.279c-0.558,0-1.114,0-1.673,0C72.214,54.243,73.304,56.82,72.481,57.483z"/>
<path fill-rule="evenodd" clip-rule="evenodd" fill="#353535" d="M23.428,59.713c-0.067-0.397-0.459-0.47-0.558-0.837
	c0.668,0.634,1.736,0.866,2.508,1.394C24.378,60.434,24.03,59.946,23.428,59.713z"/>
<path fill-rule="evenodd" clip-rule="evenodd" fill="#797979" d="M97.007,0.348c0.663-0.463,3.239-0.463,3.902,0
	C99.609,0.348,98.309,0.348,97.007,0.348z"/>
<path fill-rule="evenodd" clip-rule="evenodd" fill="#353535" d="M93.942,6.758c0.604-0.047,0.126,0.988,0.278,1.394
	c-0.092,0-0.187,0-0.278,0C93.942,7.687,93.942,7.222,93.942,6.758z"/>
<path fill-rule="evenodd" clip-rule="evenodd" fill="#181818" d="M91.433,7.315c0,0.371,0,0.743,0,1.114
	c-0.378-0.086-0.23-0.698-0.278-1.114C91.248,7.315,91.341,7.315,91.433,7.315z"/>
<path fill-rule="evenodd" clip-rule="evenodd" fill="#353535" d="M94.22,10.381c0.605-0.047,0.126,0.989,0.278,1.394
	c-0.092,0-0.185,0-0.278,0C94.22,11.31,94.22,10.845,94.22,10.381z"/>
<path fill-rule="evenodd" clip-rule="evenodd" fill="#353535" d="M91.712,10.938c0,0.465,0,0.93,0,1.394
	c-0.604,0.047-0.127-0.989-0.279-1.394C91.526,10.938,91.62,10.938,91.712,10.938z"/>
<path fill-rule="evenodd" clip-rule="evenodd" fill="#797979" d="M127.386,14.283c0.527-0.31,1.318-0.356,1.952-0.558
	c-0.201,0.852,0.286,1.016,0.278,1.672c-1.114,0-1.673,0.557-2.787,0.558c0.114-0.671-0.509-0.605-0.278-1.394
	C126.946,14.585,127.34,14.607,127.386,14.283z"/>
<path fill-rule="evenodd" clip-rule="evenodd" fill="#353535" d="M126.273,14.283c0.37,0,0.743,0,1.113,0
	c-0.046,0.324-0.44,0.302-0.835,0.278C126.381,14.545,126.22,14.52,126.273,14.283z"/>
<path fill-rule="evenodd" clip-rule="evenodd" fill="#C5C5C5" d="M94.22,15.397c0-0.836,0-1.672,0-2.508c0.094,0,0.187,0,0.278,0
	C94.327,13.646,94.853,15.101,94.22,15.397z"/>
<path fill-rule="evenodd" clip-rule="evenodd" fill="#797979" d="M121.813,17.349c-0.837-0.012-0.81-1.979,0.278-1.672
	c0.854,0.202,0.819-0.481,1.673-0.279c0.285,0.366,0.272,1.028,0.558,1.394c-0.688-0.037-1.343-0.042-1.673,0.278
	C122.253,17.046,121.859,17.024,121.813,17.349z"/>
<path fill-rule="evenodd" clip-rule="evenodd" fill="#C5C5C5" d="M90.598,16.792c0.206-0.629,1.563-0.109,2.229-0.279
	C92.62,17.141,91.263,16.622,90.598,16.792z"/>
<path fill-rule="evenodd" clip-rule="evenodd" fill="#797979" d="M127.665,21.808c-0.623-0.121-0.111-1.374-0.278-1.951
	C128.009,19.977,127.5,21.23,127.665,21.808z"/>
<path fill-rule="evenodd" clip-rule="evenodd" fill="#797979" d="M87.252,25.988c0.185-2.046-0.369-4.828,0.278-6.41
	C87.348,21.625,87.9,24.406,87.252,25.988z"/>
<path fill-rule="evenodd" clip-rule="evenodd" fill="#181818" d="M78.055,28.497c0.208-0.629,1.564-0.109,2.229-0.279
	C80.079,28.847,78.722,28.328,78.055,28.497z"/>
<path fill-rule="evenodd" clip-rule="evenodd" fill="#797979" d="M40.708,28.497c2.323,0,4.646,0,6.968,0c0,0.093,0,0.186,0,0.278
	c-2.323,0-4.645,0-6.968,0C40.708,28.683,40.708,28.59,40.708,28.497z"/>
<path fill-rule="evenodd" clip-rule="evenodd" fill="#353535" d="M79.17,31.005c0.558,0,1.114,0,1.673,0
	c-0.036,0.616-1.184,0.119-1.673,0.278C79.17,31.191,79.17,31.099,79.17,31.005z"/>
<path fill-rule="evenodd" clip-rule="evenodd" fill="#353535" d="M11.722,31.842c2.046,0.183,4.828-0.369,6.41,0.278
	c-2.137,0-4.274,0-6.41,0C11.722,32.027,11.722,31.935,11.722,31.842z"/>
<path fill-rule="evenodd" clip-rule="evenodd" fill="#797979" d="M64.4,34.071c-2.025,0.631-1.271-1.519-1.395-2.788
	c0.465,0,0.93,0,1.395,0C64.4,32.213,64.4,33.143,64.4,34.071z"/>
<path fill-rule="evenodd" clip-rule="evenodd" fill="#353535" d="M10.607,34.629c2.418,0.184,5.572-0.369,7.525,0.278
	c-2.508,0-5.017,0-7.525,0C10.607,34.814,10.607,34.722,10.607,34.629z"/>
<path fill-rule="evenodd" clip-rule="evenodd" fill="#353535" d="M127.946,35.465c-0.171,0.666,0.349,2.022-0.281,2.229
	c0-0.743,0-1.486,0-2.229C127.759,35.465,127.851,35.465,127.946,35.465z"/>
<path fill-rule="evenodd" clip-rule="evenodd" fill="#797979" d="M4.754,39.924c0.901,0.109,2.303-1.774,2.787-0.278
	c1.059,1.48-2.075,0.795-1.951,2.23C5.193,41.344,4.942,40.664,4.754,39.924z"/>
<path fill-rule="evenodd" clip-rule="evenodd" fill="#353535" d="M34.855,41.039c0.455-0.125,0.455,1.52,0,1.394
	C34.855,41.968,34.855,41.504,34.855,41.039z"/>
<path fill-rule="evenodd" clip-rule="evenodd" fill="#353535" d="M16.46,48.007c0.301-0.462,2.487-0.462,2.787,0
	C18.318,48.007,17.389,48.007,16.46,48.007z"/>
<path fill-rule="evenodd" clip-rule="evenodd" fill="#353535" d="M20.641,52.467c0.636,0.387,0.104,1.939,0.279,2.786
	C20.284,54.866,20.816,53.313,20.641,52.467z"/>
<path fill-rule="evenodd" clip-rule="evenodd" fill="#C5C5C5" d="M91.991,57.483c0.557,0,1.115,0,1.673,0
	C93.709,57.939,91.944,57.939,91.991,57.483z"/>
<path fill-rule="evenodd" clip-rule="evenodd" fill="#797979" d="M104.255,60.27c0.385-0.635,1.939-0.103,2.786-0.278
	C106.656,60.626,105.101,60.096,104.255,60.27z"/>
<path fill-rule="evenodd" clip-rule="evenodd" fill="#353535" d="M27.051,60.27c10.313,0,20.625,0,30.937,0c0,0.094,0,0.187,0,0.279
	c-10.313,0-20.625,0-30.937,0C27.051,60.456,27.051,60.363,27.051,60.27z"/>
<path fill-rule="evenodd" clip-rule="evenodd" fill="#353535" d="M72.759,60.27c0,1.395,0,2.788,0,4.182
	c-0.643-0.752-0.098-2.688-0.278-3.902c0-0.093,0-0.186,0-0.279C72.574,60.27,72.667,60.27,72.759,60.27z"/>
<path fill-rule="evenodd" clip-rule="evenodd" fill="#FFFFFF" d="M91.433,3.97c0.471-2.595,3.042-3.091,5.574-3.623
	c1.302,0,2.602,0,3.902,0c4.155,0.456,8.949,1.173,13.101,1.951c2.702,0.506,5.03,0.906,6.408,2.787
	c0.533,0.768,1.185,1.418,1.951,1.951c1.934,1.783,3.24,4.194,3.903,7.247c-0.053,0.236,0.108,0.262,0.278,0.278
	c-0.23,0.788,0.393,0.722,0.278,1.394c0.124,1.363,0.575,2.399,0.557,3.902c0.167,0.577-0.345,1.831,0.278,1.951
	c0,0.557,0,1.115,0,1.672c0,0.836,0,1.672,0,2.508c0,3.159,0,6.318,0,9.477c0,0.743,0,1.486,0,2.229
	c-0.048,7.104-3.085,11.22-6.408,15.051c-0.583,0.346-1.048,0.811-1.395,1.394c-3.357,2.866-7.084,5.365-12.82,5.853
	c-0.847,0.176-2.401-0.356-2.786,0.278c-1.859,0-3.717,0-5.575,0c-3.997-0.464-9.939-0.464-13.937,0c-3.343,0-6.688,0-10.032,0
	c-0.651,0-1.301,0-1.952,0c-0.092,0-0.186,0-0.278,0c-4.83,0-9.662,0-14.493,0c-10.313,0-20.625,0-30.937,0
	c-0.372,0-0.744,0-1.115,0c-0.186,0-0.372,0-0.558,0c-0.772-0.527-1.84-0.76-2.508-1.394c-0.655-0.089-0.624-0.862-1.115-1.114
	c-0.448-0.667-0.917-1.313-0.836-2.509c-0.175-0.847,0.357-2.399-0.279-2.786c-0.396-0.719-0.652-1.577-1.672-1.673
	c-0.208-0.628-1.563-0.108-2.229-0.278c-0.372,0-0.744,0-1.115,0c-1.301,0-2.601,0-3.902,0c-2.201-0.308-3.872-1.146-5.017-2.509
	c-0.346-0.583-0.811-1.048-1.394-1.395c-1.022-0.929-1.711-2.19-2.229-3.622c-0.404-0.433-0.372-1.301-0.836-1.673
	c-0.345-0.771-0.814-1.415-0.836-2.508c0-0.559,0-1.115,0-1.672c-0.008-0.937,0.384-1.475,0.836-1.951
	c0.583-0.346,1.047-0.811,1.393-1.394c0-0.094,0-0.187,0-0.279c1.425-0.713,2.707-1.567,5.017-1.394c1.022,0,2.044,0,3.066,0
	c2.136,0,4.273,0,6.41,0c2.448-0.062,4.397,3.029,5.853,5.018c0.443,0.604,0.973,1.086,1.394,1.672
	c2.009,2.8,3.674,7.675,7.525,6.41c0.901-0.214,1.458-0.771,1.672-1.673c-0.035-0.499,0.341-0.588,0.279-1.114
	c0.455,0.126,0.455-1.519,0-1.394c-0.73-3.059-4.677-6.266-2.23-9.756c0.133-0.189,0.377-0.674,0.557-0.835
	c0.223-0.199,0.578-0.085,0.836-0.278c0.766-0.575,1.715-1.461,3.623-1.395c1.022,0,2.044,0,3.065,0c2.323,0,4.646,0,6.968,0
	c2.137,0,4.273,0,6.411,0c2.973,0,5.945,0,8.919,0c0.465,0,0.93,0,1.395,0c0.184,0,0.37,0,0.557,0
	c3.346-0.185,7.431,0.37,10.312-0.278c0.93,0,1.859,0,2.787,0c0.667-0.169,2.023,0.35,2.229-0.279c3.7,0.076,4.828-2.418,4.459-6.41
	c0-0.65,0-1.301,0-1.951c0.032-1.455,0.447-2.527,1.116-3.345c0.491-0.251,0.861-0.624,1.114-1.115
	c0.789-0.419,1.288-1.127,2.508-1.114c0.901-0.121,2.41,0.367,2.509-0.558c-0.022-0.441,0.134-1.063-0.278-1.114
	c0-0.094,0-0.187,0-0.279c0-0.464,0-0.929,0-1.394c0-0.371,0-0.743,0-1.114c-0.022-0.441,0.134-1.063-0.279-1.116
	c0-0.092,0-0.185,0-0.278c0-0.371,0-0.743,0-1.114C91.433,6.2,91.433,5.085,91.433,3.97z M98.123,2.855
	c-0.328,0.044-0.791-0.048-0.835,0.279c-1.613-0.033-2.316,0.843-3.346,1.394c0,0.093,0,0.186,0,0.279
	c-0.453-0.2-0.453,1.314,0,1.115c0,0.278,0,0.558,0,0.836c0,0.464,0,0.929,0,1.394c0.166,0.577-0.345,1.831,0.278,1.951
	c0,0.093,0,0.186,0,0.279c0,0.464,0,0.929,0,1.394c0,0.372,0,0.743,0,1.115c0,0.836,0,1.672,0,2.508
	c-0.358,0.478-0.575,1.096-1.393,1.115c-0.667,0.17-2.023-0.35-2.229,0.279c-1.579,0.374-2.759,1.144-3.067,2.787
	c-0.647,1.582-0.094,4.364-0.278,6.41c-0.07,1.044-0.437,1.793-1.114,2.23c-0.583,0.346-1.048,0.81-1.395,1.393
	c-1.027,0.738-2.091,1.438-3.9,1.394c-0.559,0-1.115,0-1.673,0c-2.229,0-4.459,0-6.689,0c-2.603,0.185-5.943-0.369-8.081,0.278
	c-0.465,0-0.93,0-1.395,0c0.2-0.451-1.315-0.451-1.116,0c-1.206,0-2.415,0-3.623,0c-6.224,0-12.449,0-18.673,0
	c-0.667,0.171-2.022-0.349-2.229,0.279c-2.692,0.582-3.202,2.122-2.23,3.902c0.223,0.409,0.407,0.781,0.558,1.114
	c0.044,0.1,0.492,0.162,0.557,0.28c0.748,1.34,1.154,2.639,1.394,3.622c0,0.743,0,1.486,0,2.229
	c-0.095,1.392-0.668,2.305-1.394,3.066c-0.491,0.251-0.863,0.624-1.115,1.114c-1.498,1.534-4.288,1.636-5.853,1.115
	c-2.149-0.716-3.862-4.344-5.017-5.853c-0.534-0.698-1.204-1.297-1.672-1.951c-0.358-0.5-0.527-1.248-0.836-1.672
	c-0.435-0.599-1.138-0.755-1.115-1.394c-0.346-0.861-0.92-1.496-1.672-1.951c-0.384,0.012-0.612-0.132-0.836-0.279
	c-1.953-0.647-5.107-0.095-7.525-0.278c-0.847,0.175-2.4-0.357-2.787,0.278c-1.265-0.149-1.67,0.561-2.508,0.836
	c-0.492,0.252-0.863,0.624-1.115,1.116c0,0.092,0,0.185,0,0.278c-0.458-0.046-0.458,1.718,0,1.672
	c0.145,0.412,0.412,0.702,0.557,1.114c0.188,0.74,0.438,1.42,0.836,1.952c0.465,1.112,1.126,2.031,1.672,3.064
	c0.251,0.492,0.624,0.863,1.115,1.115c1.342,0.702,2.453,1.635,4.181,1.951c0.051,0.413,0.673,0.256,1.114,0.278
	c0.372,0,0.743,0,1.115,0c0.417-0.047,1.029,0.101,1.115-0.278c0.186,0,0.372,0,0.557,0c0.929,0,1.858,0,2.787,0
	c0.831,0.099,1.697,0.161,1.952,0.836c0.251,0.491,0.623,0.863,1.114,1.115c0.711,0.497,1.141,1.275,1.115,2.509
	c0.172,0.756-0.354,2.212,0.279,2.508c-0.23,0.787,0.393,0.723,0.278,1.394c0.876,0.331,1.475,0.94,2.509,1.115
	c12.542,0.649,26.292,0.093,39.297,0.278c2.322,0,4.646,0,6.968,0c0.651,0,1.301,0,1.952,0c5.48-0.186,11.705,0.371,16.722-0.278
	c0.187,0,0.371,0,0.558,0c-0.047,0.456,1.719,0.456,1.673,0c0.092,0,0.186,0,0.278,0c3.067,0.648,7.338,0.094,10.87,0.278
	c0.417-0.047,1.028,0.1,1.114-0.278c1.142-0.065,2.279-0.138,3.067-0.558c3.616-0.749,6.158-2.574,8.639-4.459
	c0.767-0.534,1.418-1.185,1.951-1.951c2.446-3.128,4.866-6.284,5.295-11.428c0.604,0.047,0.126-0.989,0.278-1.394
	c0-0.371,0-0.743,0-1.115c0-0.371,0-0.743,0-1.114c0-0.093,0-0.186,0-0.278c0-1.022,0-2.044,0-3.066c0.459-0.037,0.459-1.912,0-1.95
	c0-1.952,0-3.903,0-5.853c0-0.651,0-1.301,0-1.952c-0.046-0.417,0.101-1.029-0.278-1.115c0.016-1.688-0.389-2.956-0.557-4.459
	c-0.285-0.366-0.272-1.028-0.558-1.394c-0.368-2.976-1.825-4.865-3.346-6.689c-0.438-0.674-0.995-1.232-1.671-1.672
	c-1.959-1.602-4.81-2.017-7.805-2.508c-3.282-0.539-7.116-1.233-10.312-1.394c0.048-0.604-0.988-0.126-1.395-0.279
	C99.437,2.403,97.922,2.403,98.123,2.855z"/>
<path fill-rule="evenodd" clip-rule="evenodd" fill="#181818" d="M97.288,3.134c0.044-0.327,0.507-0.235,0.835-0.279
	c0.371,0,0.743,0,1.114,0c0.406,0.152,1.442-0.325,1.395,0.279C99.515,3.134,98.401,3.134,97.288,3.134z"/>
<path fill-rule="evenodd" clip-rule="evenodd" fill="#181818" d="M121.813,17.349c0.046-0.325,0.44-0.303,0.836-0.279
	c0,0.372,0,0.743,0,1.115C121.981,18.295,122.805,16.915,121.813,17.349z"/>
<path fill-rule="evenodd" clip-rule="evenodd" fill="#353535" d="M127.665,23.48c0.634,0.296,0.106,1.752,0.281,2.508
	c-0.095,0-0.187,0-0.281,0C127.665,25.152,127.665,24.317,127.665,23.48z"/>
<path fill-rule="evenodd" clip-rule="evenodd" fill="#353535" d="M37.642,28.775c0.477-0.637,2.127-0.102,3.065-0.278
	c0,0.093,0,0.186,0,0.278C39.686,28.775,38.664,28.775,37.642,28.775z"/>
<path fill-rule="evenodd" clip-rule="evenodd" fill="#353535" d="M1.41,37.138c0,0.557,0,1.113,0,1.672
	C0.953,38.855,0.953,37.092,1.41,37.138z"/>
<path fill-rule="evenodd" clip-rule="evenodd" fill="#353535" d="M37.642,40.481c0.46,0.124,0.46,2.106,0,2.229
	C37.642,41.968,37.642,41.225,37.642,40.481z"/>
<path fill-rule="evenodd" clip-rule="evenodd" fill="#353535" d="M16.739,50.516c0.667,0.17,2.022-0.35,2.229,0.278
	c-0.743,0-1.487,0-2.229,0C16.739,50.701,16.739,50.608,16.739,50.516z"/>
<path fill-rule="evenodd" clip-rule="evenodd" fill="#353535" d="M23.428,52.467c0.632,0.296,0.106,1.752,0.279,2.508
	C23.074,54.679,23.601,53.223,23.428,52.467z"/>
<path fill-rule="evenodd" clip-rule="evenodd" fill="#C5C5C5" d="M94.22,8.151c0,0.65,0,1.3,0,1.951
	c-0.623-0.12-0.112-1.374-0.278-1.951C94.034,8.151,94.128,8.151,94.22,8.151z"/>
<path fill-rule="evenodd" clip-rule="evenodd" fill="#C5C5C5" d="M11.722,50.516c1.301,0,2.601,0,3.902,0c0,0.093,0,0.186,0,0.278
	C14.41,50.614,12.473,51.157,11.722,50.516z"/>
<path fill-rule="evenodd" clip-rule="evenodd" fill="#797979" d="M91.433,3.97c0,1.115,0,2.229,0,3.345c-0.092,0-0.186,0-0.278,0
	C91.333,6.285,90.794,4.539,91.433,3.97z"/>
<path fill-rule="evenodd" clip-rule="evenodd" fill="#353535" d="M37.364,31.563c0.207-0.628,1.563-0.108,2.229-0.279
	c0,0.094,0,0.187,0,0.279C38.85,31.563,38.107,31.563,37.364,31.563z"/>
<path fill-rule="evenodd" clip-rule="evenodd" fill="#353535" d="M4.197,37.138c0,0.557,0,1.113,0,1.672
	C3.739,38.855,3.739,37.092,4.197,37.138z"/>
<path fill-rule="evenodd" clip-rule="evenodd" fill="#797979" d="M2.246,41.317c0.464,0.372,0.433,1.24,0.836,1.673
	c-1.323-0.115-1.465,0.951-2.788,0.836C-0.779,42.251,1.363,41.828,2.246,41.317z"/>
<path fill-rule="evenodd" clip-rule="evenodd" fill="#353535" d="M26.494,57.483c13.099,0,26.199,0,39.297,0
	c0,0.093,0,0.186,0,0.278C52.786,57.576,39.036,58.133,26.494,57.483z"/>
</svg>
