<?xml version="1.0" encoding="utf-8"?>
<!-- Generator: Adobe Illustrator 15.0.0, SVG Export Plug-In  -->
<!DOCTYPE svg PUBLIC "-//W3C//DTD SVG 1.1//EN" "http://www.w3.org/Graphics/SVG/1.1/DTD/svg11.dtd" [
	<!ENTITY ns_flows "http://ns.adobe.com/Flows/1.0/">
]>
<svg version="1.1"
	 xmlns="http://www.w3.org/2000/svg" xmlns:xlink="http://www.w3.org/1999/xlink" xmlns:a="http://ns.adobe.com/AdobeSVGViewerExtensions/3.0/"
	 x="0px" y="0px" width="142px" height="142px" viewBox="-11.94 -43.534 142 142" enable-background="new -11.94 -43.534 142 142"
	 xml:space="preserve">
<defs>
</defs>
<path fill-rule="evenodd" clip-rule="evenodd" fill="#2F2F2F" d="M97.594,0.347c0.389-0.462,2.675-0.462,3.065,0
	C99.637,0.347,98.615,0.347,97.594,0.347z"/>
<path fill-rule="evenodd" clip-rule="evenodd" fill="#2F2F2F" d="M97.872,3.133c0.297-0.632,1.751-0.106,2.509-0.279
	c0,0.093,0,0.186,0,0.279C99.543,3.133,98.708,3.133,97.872,3.133z"/>
<path fill-rule="evenodd" clip-rule="evenodd" fill="#D2D2D2" d="M93.97,5.084c0,0.371,0,0.743,0,1.114
	C93.517,6.398,93.517,4.885,93.97,5.084z"/>
<path fill-rule="evenodd" clip-rule="evenodd" fill="#2F2F2F" d="M94.248,10.659c0.413,0.051,0.257,0.673,0.278,1.115
	c-0.092,0-0.185,0-0.278,0C94.248,11.402,94.248,11.03,94.248,10.659z"/>
<path fill-rule="evenodd" clip-rule="evenodd" fill="#2F2F2F" d="M91.461,10.937c0.093,0,0.187,0,0.279,0c0,0.372,0,0.743,0,1.115
	C91.327,12,91.483,11.378,91.461,10.937z"/>
<path fill-rule="evenodd" clip-rule="evenodd" fill="#D2D2D2" d="M122.677,19.02c0.646,1.583,0.096,4.364,0.278,6.411
	c-0.093,0-0.185,0-0.278,0C122.677,23.293,122.677,21.157,122.677,19.02z"/>
<path fill-rule="evenodd" clip-rule="evenodd" fill="#A1A1A1" d="M125.185,19.02c0.094,0,0.187,0,0.278,0c0,2.23,0,4.46,0,6.689
	c-0.092,0-0.185,0-0.278,0C125.185,23.479,125.185,21.25,125.185,19.02z"/>
<path fill-rule="evenodd" clip-rule="evenodd" fill="#A1A1A1" d="M122.677,25.43c0.094,0,0.186,0,0.278,0
	c-0.185,2.51,0.37,5.758-0.278,7.803C122.677,30.634,122.677,28.032,122.677,25.43z"/>
<path fill-rule="evenodd" clip-rule="evenodd" fill="#2F2F2F" d="M56.344,25.987c-0.126-0.455,1.519-0.455,1.393,0
	C57.273,25.987,56.808,25.987,56.344,25.987z"/>
<path fill-rule="evenodd" clip-rule="evenodd" fill="#2F2F2F" d="M78.363,28.496c0.034-0.616,1.182-0.119,1.671-0.279
	c0,0.093,0,0.186,0,0.279C79.477,28.496,78.92,28.496,78.363,28.496z"/>
<path fill-rule="evenodd" clip-rule="evenodd" fill="#2F2F2F" d="M37.949,28.774c0.208-0.628,1.563-0.108,2.23-0.278
	c0,0.093,0,0.186,0,0.278C39.436,28.774,38.692,28.774,37.949,28.774z"/>
<path fill-rule="evenodd" clip-rule="evenodd" fill="#A1A1A1" d="M56.344,28.774c-0.126-0.455,1.519-0.455,1.393,0
	C57.273,28.774,56.808,28.774,56.344,28.774z"/>
<path fill-rule="evenodd" clip-rule="evenodd" fill="#A1A1A1" d="M61.36,28.774c0-0.093,0-0.186,0-0.278c2.694,0,5.389,0,8.084,0
	c0,0.093,0,0.186,0,0.278C66.749,28.774,64.055,28.774,61.36,28.774z"/>
<path fill-rule="evenodd" clip-rule="evenodd" fill="#D2D2D2" d="M69.444,28.774c0-0.093,0-0.186,0-0.278c2.135,0,4.272,0,6.408,0
	C74.271,29.144,71.489,28.592,69.444,28.774z"/>
<path fill-rule="evenodd" clip-rule="evenodd" fill="#D2D2D2" d="M61.082,31.282c1.953-0.646,5.108-0.094,7.524-0.278
	c0,0.094,0,0.187,0,0.278C66.099,31.282,63.59,31.282,61.082,31.282z"/>
<path fill-rule="evenodd" clip-rule="evenodd" fill="#A1A1A1" d="M68.606,31.282c0-0.092,0-0.185,0-0.278c2.229,0,4.46,0,6.689,0
	c0,0.094,0,0.187,0,0.278C73.066,31.282,70.836,31.282,68.606,31.282z"/>
<path fill-rule="evenodd" clip-rule="evenodd" fill="#6D6D6D" d="M75.296,31.282c0-0.092,0-0.185,0-0.278c1.3,0,2.601,0,3.902,0
	c0,0.094,0,0.187,0,0.278C77.896,31.282,76.596,31.282,75.296,31.282z"/>
<path fill-rule="evenodd" clip-rule="evenodd" fill="#2F2F2F" d="M79.198,31.282c0-0.092,0-0.185,0-0.278c0.371,0,0.743,0,1.114,0
	C80.261,31.417,79.64,31.261,79.198,31.282z"/>
<path fill-rule="evenodd" clip-rule="evenodd" fill="#2F2F2F" d="M38.228,31.562c0.843-0.643,2.875-0.098,4.18-0.279
	C41.565,31.927,39.534,31.382,38.228,31.562z"/>
<path fill-rule="evenodd" clip-rule="evenodd" fill="#2F2F2F" d="M43.802,31.282c3.995,0,7.99,0,11.984,0
	C52.44,31.747,47.148,31.747,43.802,31.282z"/>
<path fill-rule="evenodd" clip-rule="evenodd" fill="#6D6D6D" d="M56.344,31.282c0.464,0,0.929,0,1.393,0
	c-0.276,0.933,0.709,3.126-0.836,2.788C55.747,34.109,56.611,32.131,56.344,31.282z"/>
<path fill-rule="evenodd" clip-rule="evenodd" fill="#2F2F2F" d="M9.521,32.119c2.14-0.464,6.221-0.464,8.361,0
	C15.095,32.119,12.307,32.119,9.521,32.119z"/>
<path fill-rule="evenodd" clip-rule="evenodd" fill="#2F2F2F" d="M118.219,32.955c0.604-0.047,0.124,0.989,0.278,1.394
	C117.893,34.396,118.371,33.36,118.219,32.955z"/>
<path fill-rule="evenodd" clip-rule="evenodd" fill="#2F2F2F" d="M11.471,34.906c0-0.093,0-0.186,0-0.278
	c1.954,0.183,4.642-0.368,6.131,0.278C15.559,34.906,13.515,34.906,11.471,34.906z"/>
<path fill-rule="evenodd" clip-rule="evenodd" fill="#2F2F2F" d="M1.438,37.137c0,0.557,0,1.113,0,1.672
	C0.98,38.854,0.98,37.091,1.438,37.137z"/>
<path fill-rule="evenodd" clip-rule="evenodd" fill="#2F2F2F" d="M34.883,41.038c0.452-0.199,0.452,1.314,0,1.115
	C34.883,41.781,34.883,41.41,34.883,41.038z"/>
<path fill-rule="evenodd" clip-rule="evenodd" fill="#2F2F2F" d="M115.709,44.939c0.458,0.038,0.458,1.913,0,1.951
	C115.709,46.241,115.709,45.59,115.709,44.939z"/>
<path fill-rule="evenodd" clip-rule="evenodd" fill="#2F2F2F" d="M112.922,45.219c0.455-0.126,0.455,1.52,0,1.393
	C112.922,46.147,112.922,45.683,112.922,45.219z"/>
<path fill-rule="evenodd" clip-rule="evenodd" fill="#A1A1A1" d="M15.374,48.006c-0.124,0.46-2.106,0.46-2.23,0
	C13.886,48.006,14.63,48.006,15.374,48.006z"/>
<path fill-rule="evenodd" clip-rule="evenodd" fill="#2F2F2F" d="M23.456,52.744c0.628,0.207,0.109,1.563,0.279,2.229
	C23.105,54.766,23.625,53.41,23.456,52.744z"/>
<path fill-rule="evenodd" clip-rule="evenodd" fill="#2F2F2F" d="M20.668,54.138c0.413,0.052,0.256,0.674,0.279,1.114
	C20.535,55.2,20.692,54.578,20.668,54.138z"/>
<path fill-rule="evenodd" clip-rule="evenodd" fill="#A1A1A1" d="M79.756,57.761c0.038-0.459,1.913-0.459,1.951,0
	C81.056,57.761,80.406,57.761,79.756,57.761z"/>
<path fill-rule="evenodd" clip-rule="evenodd" fill="#2F2F2F" d="M85.607,57.761c0-0.093,0-0.186,0-0.278c0.559,0,1.116,0,1.673,0
	c0,0.093,0,0.186,0,0.278C86.724,57.761,86.166,57.761,85.607,57.761z"/>
<path fill-rule="evenodd" clip-rule="evenodd" fill="#6D6D6D" d="M87.28,57.761c0-0.093,0-0.186,0-0.278c0.93,0,1.859,0,2.787,0
	c0,0.093,0,0.186,0,0.278C89.14,57.761,88.21,57.761,87.28,57.761z"/>
<path fill-rule="evenodd" clip-rule="evenodd" fill="#A1A1A1" d="M90.067,57.761c0-0.093,0-0.186,0-0.278c2.229,0,4.459,0,6.688,0
	c0,0.093,0,0.186,0,0.278C94.526,57.761,92.297,57.761,90.067,57.761z"/>
<path fill-rule="evenodd" clip-rule="evenodd" fill="#D2D2D2" d="M96.756,57.761c0-0.093,0-0.186,0-0.278c0.56,0,1.116,0,1.673,0
	C98.396,58.098,97.247,57.601,96.756,57.761z"/>
<path fill-rule="evenodd" clip-rule="evenodd" fill="#D2D2D2" d="M90.067,60.269c1.582-0.646,4.365-0.095,6.41-0.278
	c0,0.093,0,0.187,0,0.278C94.342,60.269,92.204,60.269,90.067,60.269z"/>
<path fill-rule="evenodd" clip-rule="evenodd" fill="#2F2F2F" d="M25.964,60.269c12.914,0,25.828,0,38.742,0
	C52.441,60.733,38.228,60.733,25.964,60.269z"/>
<path fill-rule="evenodd" clip-rule="evenodd" fill="#2F2F2F" d="M75.018,60.269c1.578,0,3.159,0,4.738,0c0,0.094,0,0.187,0,0.279
	C78.265,60.366,76.045,60.914,75.018,60.269z"/>
<path fill-rule="evenodd" clip-rule="evenodd" fill="#6D6D6D" d="M79.756,60.548c0-0.093,0-0.186,0-0.279c0.65,0,1.3,0,1.951,0
	c0,1.395,0,2.788,0,4.182c-0.651,0-1.301,0-1.951,0C79.756,63.148,79.756,61.849,79.756,60.548z"/>
<path fill-rule="evenodd" clip-rule="evenodd" fill="#2F2F2F" d="M81.707,60.269c2.138,0,4.273,0,6.41,0
	c-0.989,0.996-5.074-0.355-5.854,0.279c-1.132,0.924,0.477,2.621-0.557,3.902C81.707,63.057,81.707,61.663,81.707,60.269z"/>
<path fill-rule="evenodd" clip-rule="evenodd" fill="#2F2F2F" d="M91.74,2.854c0.252-0.491,0.623-0.863,1.115-1.115
	C92.604,2.231,92.23,2.603,91.74,2.854z"/>
<path fill-rule="evenodd" clip-rule="evenodd" fill="#A1A1A1" d="M89.51,14.282c0.124-0.806,2.105,0.248,2.23-0.558
	C92.555,14.378,90.317,14.328,89.51,14.282z"/>
<path fill-rule="evenodd" clip-rule="evenodd" fill="#6D6D6D" d="M56.344,25.987c0.464,0,0.929,0,1.393,0c0,0.836,0,1.672,0,2.509
	c1.208,0,2.416,0,3.624,0c0,0.093,0,0.186,0,0.278c-1.208,0-2.416,0-3.624,0c0.126-0.455-1.519-0.455-1.393,0
	c-5.389,0-10.777,0-16.166,0c0-0.093,0-0.186,0-0.278c5.295,0,10.59,0,15.886,0C56.698,28.2,56.171,26.744,56.344,25.987z"/>
<path fill-rule="evenodd" clip-rule="evenodd" fill="#2F2F2F" d="M32.653,31.282c0.346-0.582,0.811-1.047,1.394-1.392
	C33.701,30.472,33.236,30.937,32.653,31.282z"/>
<path fill-rule="evenodd" clip-rule="evenodd" fill="#D2D2D2" d="M32.932,45.219c0.553-0.563,1.11-1.119,1.672-1.673
	C34.39,44.448,33.833,45.005,32.932,45.219z"/>
<path fill-rule="evenodd" clip-rule="evenodd" fill="#2F2F2F" d="M30.145,45.219c-0.491-0.252-0.863-0.624-1.114-1.115
	C29.521,44.355,29.893,44.728,30.145,45.219z"/>
<path fill-rule="evenodd" clip-rule="evenodd" fill="#6D6D6D" d="M22.063,58.318c0.491,0.252,0.863,0.623,1.114,1.115
	C22.686,59.181,22.314,58.81,22.063,58.318z"/>
<path fill-rule="evenodd" clip-rule="evenodd" fill="#6D6D6D" d="M110.971,55.252c0.627-0.86,1.37-1.604,2.229-2.229
	C112.575,53.883,111.832,54.626,110.971,55.252z"/>
<path fill-rule="evenodd" clip-rule="evenodd" fill="#2F2F2F" d="M118.775,35.742c0.491,0.252,0.864,0.624,1.114,1.116
	C119.398,36.605,119.026,36.234,118.775,35.742z"/>
<path fill-rule="evenodd" clip-rule="evenodd" fill="#2F2F2F" d="M123.792,36.578c0.251-0.49,0.623-0.862,1.114-1.114
	C124.655,35.955,124.283,36.327,123.792,36.578z"/>
<path fill-rule="evenodd" clip-rule="evenodd" fill="#D2D2D2" d="M3.667,33.792c-0.251,0.49-0.623,0.862-1.115,1.114
	C2.586,34.197,2.958,33.826,3.667,33.792z"/>
<path fill-rule="evenodd" clip-rule="evenodd" fill="#6D6D6D" d="M35.162,46.891c0.346-0.583,0.811-1.047,1.394-1.393
	C36.209,46.081,35.745,46.546,35.162,46.891z"/>
<path fill-rule="evenodd" clip-rule="evenodd" fill="#6D6D6D" d="M27.079,46.055c0.491,0.252,0.863,0.624,1.115,1.115
	C27.703,46.918,27.331,46.547,27.079,46.055z"/>
<path fill-rule="evenodd" clip-rule="evenodd" fill="#A1A1A1" d="M7.291,44.939c0.492,0.252,0.863,0.624,1.115,1.115
	C7.915,45.803,7.542,45.432,7.291,44.939z"/>
<path fill-rule="evenodd" clip-rule="evenodd" fill="#D2D2D2" d="M21.227,48.842c0.578,0.165,0.95,0.536,1.114,1.115
	C21.85,49.705,21.478,49.333,21.227,48.842z"/>
<path fill-rule="evenodd" clip-rule="evenodd" fill="#D2D2D2" d="M108.74,53.58c0.768-0.906,1.798-1.549,2.511-2.509
	C110.828,52.322,109.824,52.991,108.74,53.58z"/>
<path fill-rule="evenodd" clip-rule="evenodd" fill="#2F2F2F" d="M79.756,53.58c-0.053-0.237,0.107-0.263,0.278-0.279
	c2.843-0.797,1.757,2.331,1.951,4.182c-0.642-0.659-0.101-2.502-0.278-3.623C81.587,53.234,80.332,53.746,79.756,53.58z"/>
<path fill-rule="evenodd" clip-rule="evenodd" fill="#6D6D6D" d="M79.756,53.58c0.576,0.166,1.831-0.346,1.951,0.279
	c0.178,1.121-0.363,2.964,0.278,3.623c1.208,0,2.416,0,3.622,0c0,0.093,0,0.186,0,0.278c-1.3,0-2.601,0-3.9,0
	c-0.038-0.459-1.913-0.459-1.951,0c-9.104,0-18.209,0-27.314,0c0-0.093,0-0.186,0-0.278c9.105,0,18.211,0,27.314,0
	C79.756,56.181,79.756,54.881,79.756,53.58z"/>
<path fill-rule="evenodd" clip-rule="evenodd" fill="#6D6D6D" d="M101.494,0.347c0.407,0.152,1.44-0.326,1.395,0.278
	C102.484,0.473,101.448,0.951,101.494,0.347z"/>
<path fill-rule="evenodd" clip-rule="evenodd" fill="#A1A1A1" d="M100.381,2.854c0.44,0.023,1.063-0.134,1.113,0.279
	c-0.37,0-0.743,0-1.113,0C100.381,3.041,100.381,2.947,100.381,2.854z"/>
<path fill-rule="evenodd" clip-rule="evenodd" fill="#6D6D6D" d="M93.97,6.757c0.633,0.296,0.106,1.751,0.278,2.508
	C93.617,8.969,94.142,7.513,93.97,6.757z"/>
<path fill-rule="evenodd" clip-rule="evenodd" fill="#6D6D6D" d="M91.461,9.265c0.615,0.035,0.118,1.182,0.279,1.672
	c-0.093,0-0.187,0-0.279,0C91.461,10.38,91.461,9.823,91.461,9.265z"/>
<path fill-rule="evenodd" clip-rule="evenodd" fill="#6D6D6D" d="M122.955,8.986c1.162-0.14,1.627-0.976,2.788-1.115
	c-0.006,0.657,0.479,0.82,0.279,1.672c-0.862,0.347-2.187,0.229-2.23,1.394C123.251,10.548,123.376,9.495,122.955,8.986z"/>
<path fill-rule="evenodd" clip-rule="evenodd" fill="#6D6D6D" d="M94.526,11.773c0,0.65,0,1.301,0,1.951
	c-0.623-0.12-0.112-1.373-0.278-1.951C94.342,11.773,94.435,11.773,94.526,11.773z"/>
<path fill-rule="evenodd" clip-rule="evenodd" fill="#D2D2D2" d="M90.346,16.791c0.387-0.636,1.941-0.104,2.788-0.279
	C92.747,17.147,91.192,16.615,90.346,16.791z"/>
<path fill-rule="evenodd" clip-rule="evenodd" fill="#6D6D6D" d="M122.397,16.232c0.615,0.035,0.118,1.183,0.279,1.672
	C122.062,17.871,122.559,16.723,122.397,16.232z"/>
<path fill-rule="evenodd" clip-rule="evenodd" fill="#6D6D6D" d="M80.034,28.217c0.372,0,0.743,0,1.115,0
	c-0.086,0.378-0.699,0.231-1.115,0.279C80.034,28.403,80.034,28.311,80.034,28.217z"/>
<path fill-rule="evenodd" clip-rule="evenodd" fill="#D2D2D2" d="M125.463,25.709c-0.185,2.882,0.371,6.501-0.278,8.919
	c0-2.973,0-5.946,0-8.919C125.278,25.709,125.371,25.709,125.463,25.709z"/>
<path fill-rule="evenodd" clip-rule="evenodd" fill="#2F2F2F" d="M121.006,32.677c0.614,0.035,0.118,1.183,0.278,1.672
	C120.667,34.314,121.166,33.167,121.006,32.677z"/>
<path fill-rule="evenodd" clip-rule="evenodd" fill="#6D6D6D" d="M109.856,33.792c0,0.65,0,1.3,0,1.95
	C109.397,35.704,109.397,33.829,109.856,33.792z"/>
<path fill-rule="evenodd" clip-rule="evenodd" fill="#2F2F2F" d="M121.006,37.137c0.465,0,0.927,0,1.392,0
	C122.524,37.591,120.879,37.591,121.006,37.137z"/>
<path fill-rule="evenodd" clip-rule="evenodd" fill="#2F2F2F" d="M37.67,40.76c0.459,0.038,0.459,1.912,0,1.95
	C37.67,42.06,37.67,41.41,37.67,40.76z"/>
<path fill-rule="evenodd" clip-rule="evenodd" fill="#6D6D6D" d="M4.782,40.202c0.949-0.242,2.302-1.841,3.066-0.558
	c0.297,1.783-2.004,0.969-2.229,2.23C5.154,41.503,5.186,40.635,4.782,40.202z"/>
<path fill-rule="evenodd" clip-rule="evenodd" fill="#6D6D6D" d="M25.407,57.482c0.372,0,0.743,0,1.115,0c0,0.093,0,0.186,0,0.278
	C26.081,57.737,25.458,57.895,25.407,57.482z"/>
<path fill-rule="evenodd" clip-rule="evenodd" fill="#2F2F2F" d="M26.522,57.482c8.64,0,17.28,0,25.919,0c0,0.093,0,0.186,0,0.278
	c-8.64,0-17.28,0-25.919,0C26.522,57.668,26.522,57.575,26.522,57.482z"/>
<path fill-rule="evenodd" clip-rule="evenodd" fill="#A1A1A1" d="M96.478,59.99c1.208,0,2.416,0,3.624,0
	c-0.661,0.642-2.502,0.101-3.624,0.278C96.478,60.177,96.478,60.083,96.478,59.99z"/>
<path fill-rule="evenodd" clip-rule="evenodd" fill="#FFFFFF" d="M92.855,1.74c1.408-0.635,2.599-1.489,4.738-1.393
	c1.021,0,2.043,0,3.065,0c0.278,0,0.557,0,0.835,0c-0.046,0.604,0.99,0.126,1.395,0.278c4.155,0.603,9.075,0.862,13.101,1.951
	c0.639,0.173,1.31,0.276,1.949,0.558c2.294,1.008,4.061,3.161,5.017,5.853c0.421,0.508,0.296,1.562,0.837,1.951
	c0.834,1.582,1.301,3.532,1.393,5.854c0,0.743,0,1.486,0,2.229c0,2.23,0,4.46,0,6.689c0,2.973,0,5.946,0,8.919
	c0.08,0.45-0.263,0.479-0.278,0.836c-0.491,0.252-0.863,0.624-1.114,1.114c-0.532,0.119-0.505,0.797-1.395,0.559
	c-0.465,0-0.927,0-1.392,0c-0.583,0.118-0.739-0.191-1.116-0.278c-0.25-0.492-0.623-0.864-1.114-1.116
	c-0.234-0.323-0.368-0.747-0.278-1.394c-0.154-0.404,0.325-1.44-0.278-1.394c-2.043,0.466-3.851,1.167-5.854,1.673
	c0.909,3.642,3.043,6.062,3.344,10.312c0,0.65,0,1.302,0,1.951c-0.11,2.77-1.128,4.631-2.509,6.132
	c-0.859,0.626-1.603,1.369-2.229,2.229c-2.861,2.341-5.962,4.442-10.869,4.738c-1.208,0-2.416,0-3.624,0
	c-2.045,0.184-4.828-0.368-6.41,0.278c-0.649,0-1.301,0-1.95,0c-2.137,0-4.272,0-6.41,0c-0.651,0-1.301,0-1.951,0
	c-1.579,0-3.16,0-4.738,0c-2.08-0.002-8.899,0.137-10.312,0c-12.914,0-25.828,0-38.742,0c-1.334,0.128-2.214-0.201-2.788-0.835
	c-0.251-0.492-0.623-0.863-1.114-1.115c-0.591-0.804-1.235-1.553-1.115-3.066c-0.023-0.44,0.134-1.063-0.279-1.114
	c0.318-2.454-0.849-3.424-2.787-3.623c-2.044,0-4.088,0-6.132,0c-4.562-0.827-7.064-3.713-8.64-7.525
	c-0.125-0.712-0.392-1.282-0.836-1.673c-0.345-0.771-0.814-1.415-0.836-2.508c0-0.559,0-1.115,0-1.672
	c0.081-1.035,0.315-1.915,1.115-2.23c0.492-0.252,0.863-0.624,1.115-1.114c1.107-1.401,3.186-1.831,5.854-1.673
	c2.787,0,5.574,0,8.361,0c3.182,0.179,5.092,3.321,6.689,5.574c1.607,2.268,3.047,4.524,4.459,6.41
	c0.251,0.491,0.623,0.863,1.114,1.115c0.918,0.471,1.782,0.165,2.787,0c0.901-0.214,1.458-0.771,1.672-1.673
	c-0.114-0.671,0.51-0.605,0.279-1.393c0.452,0.199,0.452-1.314,0-1.115c-0.314-2.659-2.606-3.34-2.788-6.132
	c0-0.743,0-1.486,0-2.229c-0.239-0.89,0.439-0.862,0.558-1.395c0.583-0.346,1.047-0.811,1.394-1.392
	c1.15-0.523,2.059-1.287,3.902-1.116c0.743,0,1.487,0,2.23,0c5.388,0,10.777,0,16.166,0c0.464,0,0.929,0,1.393,0
	c1.208,0,2.416,0,3.624,0c2.694,0,5.389,0,8.084,0c2.045-0.183,4.826,0.369,6.408-0.278c0.838,0,1.673,0,2.511,0
	c0.557,0,1.113,0,1.671,0c0.416-0.047,1.029,0.1,1.115-0.279c1.333-0.56,2.707-0.787,3.344-2.23c1.09-2.47-0.639-6.571,0.836-8.918
	c0.13-0.204,0.4-0.301,0.559-0.558c0.705-1.146,1.526-1.774,3.622-2.229c0.808,0.045,3.045,0.096,2.23-0.558
	c0-0.558,0-1.114,0-1.672c0-0.372,0-0.743,0-1.115c-0.161-0.49,0.336-1.637-0.279-1.672c0-0.464,0-0.929,0-1.394
	c0-1.3,0-2.601,0-3.902c-0.118-0.582,0.19-0.737,0.279-1.115C92.23,2.603,92.604,2.231,92.855,1.74z M97.872,3.133
	c-1.896,0.056-3.359,0.542-3.902,1.951c-0.453-0.199-0.453,1.314,0,1.114c0,0.186,0,0.372,0,0.558
	c0.172,0.756-0.353,2.212,0.278,2.508c0,0.464,0,0.929,0,1.394c0,0.372,0,0.743,0,1.115c0.166,0.578-0.345,1.831,0.278,1.951
	c0.171,1.564-0.528,2.258-1.393,2.787c-0.847,0.175-2.401-0.357-2.788,0.279c-1.21,0.646-2.547,1.168-2.787,2.787
	c-0.647,1.49-0.094,4.178-0.278,6.131c-0.609,3.478-2.993,5.181-6.968,5.295c-0.371,0-0.743,0-1.114,0c-1.302,0-2.603,0-3.902,0
	c-2.229,0-4.46,0-6.689,0c-2.416,0.185-5.571-0.368-7.524,0.278c-1.115,0-2.229,0-3.345,0c-0.463,0-0.929,0-1.393,0
	c-0.187,0-0.372,0-0.558,0c-3.995,0-7.99,0-11.984,0c-0.532,0.524-0.505-0.164-1.394,0c-1.306,0.182-3.337-0.363-4.18,0.279
	c-1.996-0.138-2.789,0.928-3.624,1.951c0.365,3.073,2.911,3.965,3.066,7.247c0,0.65,0,1.3,0,1.95
	c-0.116,1.185-0.487,2.114-1.114,2.788c-0.583,0.346-1.048,0.81-1.394,1.393c-0.437,0.678-1.186,1.044-2.23,1.115
	c-0.928,0-1.857,0-2.787,0c-0.936,0.008-1.474-0.384-1.951-0.836c-0.251-0.491-0.624-0.863-1.115-1.115
	c-3.061-3.535-5.232-7.96-8.64-11.148c-0.279,0-0.557,0-0.836,0c-1.489-0.646-4.178-0.096-6.131-0.278
	c-1.214,0.18-3.151-0.363-3.902,0.278c-2.505,0.205-4.287,2.777-2.787,5.296c0.403,0.433,0.372,1.301,0.836,1.673
	c0.392,1.187,1.235,1.923,1.672,3.064c0.251,0.492,0.624,0.863,1.115,1.115c1.419,0.811,2.734,1.725,4.738,1.951
	c0.124,0.46,2.106,0.46,2.23,0c0.464,0,0.929,0,1.394,0c0.835,0,1.672,0,2.508,0c0.992-0.063,1.67,0.188,1.952,0.836
	c0.251,0.491,0.623,0.863,1.114,1.115c0.766,0.535,1.199,1.402,1.115,2.787c0.169,0.666-0.351,2.021,0.279,2.229
	c0.014,1.379,0.782,2.005,1.672,2.509c0.052,0.412,0.674,0.255,1.115,0.278c8.64,0,17.28,0,25.919,0c9.105,0,18.211,0,27.314,0
	c0.65,0,1.3,0,1.951,0c1.3,0,2.601,0,3.9,0c0.559,0,1.116,0,1.673,0c0.93,0,1.859,0,2.787,0c2.229,0,4.459,0,6.688,0
	c0.491-0.16,1.64,0.337,1.673-0.278c4.392-0.348,7.499-1.977,10.312-3.902c1.084-0.589,2.088-1.258,2.511-2.509
	c0.825-1.216,1.543-2.543,1.671-4.46c0.455,0.127,0.455-1.519,0-1.393c-0.369-3.812-2.398-5.963-3.065-9.477c0-0.65,0-1.3,0-1.95
	c1.066-2.465,4.39-2.671,7.246-3.345c0.649,0,1.301,0,1.951,0c1.345,0.049,1.832,0.954,1.952,2.229
	c0.16,0.49-0.339,1.638,0.278,1.672c0.907,0.073,1.34-0.33,1.393-1.115c0.648-2.045,0.094-5.293,0.278-7.803
	c-0.183-2.046,0.368-4.828-0.278-6.411c0-0.372,0-0.743,0-1.115c-0.161-0.49,0.336-1.637-0.279-1.672
	c-0.216-1.64-0.865-2.85-1.113-4.459c-0.387-0.45-0.236-1.437-0.838-1.672c-0.362-0.646-0.454-1.018-0.835-1.672
	c-0.806-1.385-1.271-1.593-2.509-2.23c-4.194-2.158-10.804-1.829-15.608-3.065c-0.05-0.413-0.673-0.255-1.113-0.279
	C99.623,3.027,98.169,2.501,97.872,3.133z"/>
<path fill-rule="evenodd" clip-rule="evenodd" fill="#D2D2D2" d="M11.75,50.515c2.044,0,4.088,0,6.132,0
	C16.482,50.978,13.149,50.978,11.75,50.515z"/>
<path fill-rule="evenodd" clip-rule="evenodd" fill="#6D6D6D" d="M91.461,3.969c0,1.301,0,2.602,0,3.902
	C90.998,7.208,90.998,4.632,91.461,3.969z"/>
<path fill-rule="evenodd" clip-rule="evenodd" fill="#6D6D6D" d="M121.284,11.773c-1.252-0.221-2.33,1.718-3.065,0.279
	c-0.707-1.129,1.773-1.095,2.228-1.951C121.048,10.336,120.897,11.324,121.284,11.773z"/>
<path fill-rule="evenodd" clip-rule="evenodd" fill="#6D6D6D" d="M87.559,19.578c-0.183,1.953,0.369,4.642-0.278,6.131
	C87.465,23.755,86.911,21.067,87.559,19.578z"/>
<path fill-rule="evenodd" clip-rule="evenodd" fill="#A1A1A1" d="M32.096,32.677c0,0.743,0,1.486,0,2.229
	C31.636,34.782,31.636,32.8,32.096,32.677z"/>
<path fill-rule="evenodd" clip-rule="evenodd" fill="#6D6D6D" d="M7.569,34.906c0.751-0.642,2.688-0.099,3.902-0.278
	c0,0.093,0,0.186,0,0.278C10.17,34.906,8.87,34.906,7.569,34.906z"/>
<path fill-rule="evenodd" clip-rule="evenodd" fill="#6D6D6D" d="M2.274,41.316c0.445,0.391,0.712,0.961,0.836,1.673
	c-1.323-0.115-1.465,0.951-2.788,0.836C-0.871,42.131,1.581,42.017,2.274,41.316z"/>
<path fill-rule="evenodd" clip-rule="evenodd" fill="#A1A1A1" d="M30.145,48.006c0.93,0,1.859,0,2.787,0
	C32.632,48.468,30.446,48.468,30.145,48.006z"/>
<path fill-rule="evenodd" clip-rule="evenodd" fill="#6D6D6D" d="M125.185,16.791c0.629,0.207,0.11,1.563,0.278,2.229
	c-0.092,0-0.185,0-0.278,0C125.185,18.277,125.185,17.533,125.185,16.791z"/>
<path fill-rule="evenodd" clip-rule="evenodd" fill="#6D6D6D" d="M117.103,30.447c0.038-0.459,1.914-0.459,1.951,0
	C118.403,30.447,117.752,30.447,117.103,30.447z"/>
<path fill-rule="evenodd" clip-rule="evenodd" fill="#2F2F2F" d="M16.767,48.006c0.211-0.461,2.296-0.461,2.508,0
	C18.439,48.006,17.603,48.006,16.767,48.006z"/>
</svg>
