<?xml version="1.0" encoding="utf-8"?>
<!-- Generator: Adobe Illustrator 15.0.0, SVG Export Plug-In  -->
<!DOCTYPE svg PUBLIC "-//W3C//DTD SVG 1.1//EN" "http://www.w3.org/Graphics/SVG/1.1/DTD/svg11.dtd" [
	<!ENTITY ns_flows "http://ns.adobe.com/Flows/1.0/">
]>
<svg version="1.1"
	 xmlns="http://www.w3.org/2000/svg" xmlns:xlink="http://www.w3.org/1999/xlink" xmlns:a="http://ns.adobe.com/AdobeSVGViewerExtensions/3.0/"
	 x="0px" y="0px" width="142px" height="142px" viewBox="-2.72 -11.487 142 142" enable-background="new -2.72 -11.487 142 142"
	 xml:space="preserve">
<defs>
</defs>
<path fill-rule="evenodd" clip-rule="evenodd" fill="#191919" d="M122.142,0.341c-0.126-0.455,1.519-0.455,1.395,0
	C123.072,0.341,122.607,0.341,122.142,0.341z"/>
<path fill-rule="evenodd" clip-rule="evenodd" fill="#191919" d="M121.306,3.128c0.301-0.461,2.486-0.461,2.787,0
	C123.164,3.128,122.236,3.128,121.306,3.128z"/>
<path fill-rule="evenodd" clip-rule="evenodd" fill="#191919" d="M136.913,13.998c0.379,0.086,0.232,0.698,0.281,1.115
	C136.781,15.062,136.937,14.439,136.913,13.998z"/>
<path fill-rule="evenodd" clip-rule="evenodd" fill="#191919" d="M72.253,16.506c0,0.465,0,0.929,0,1.394
	C71.798,18.026,71.798,16.381,72.253,16.506z"/>
<path fill-rule="evenodd" clip-rule="evenodd" fill="#191919" d="M97.057,20.687c0.391-0.461,2.677-0.461,3.067,0
	C99.103,20.687,98.082,20.687,97.057,20.687z"/>
<path fill-rule="evenodd" clip-rule="evenodd" fill="#191919" d="M97.057,23.474c0.481-0.462,2.865-0.462,3.346,0
	C99.288,23.474,98.173,23.474,97.057,23.474z"/>
<path fill-rule="evenodd" clip-rule="evenodd" fill="#191919" d="M89.254,25.982c0,0.65,0,1.301,0,1.951
	C88.795,27.896,88.795,26.021,89.254,25.982z"/>
<path fill-rule="evenodd" clip-rule="evenodd" fill="#797979" d="M75.875,29.885c0.062-0.218,0.234-0.324,0.559-0.279
	c0.185,0,0.371,0,0.558,0C76.939,30.019,76.318,29.861,75.875,29.885z"/>
<path fill-rule="evenodd" clip-rule="evenodd" fill="#C4C4C4" d="M76.712,32.394c-0.126-0.456,1.519-0.456,1.393,0
	C77.642,32.394,77.177,32.394,76.712,32.394z"/>
<path fill-rule="evenodd" clip-rule="evenodd" fill="#797979" d="M97.617,35.459c-0.127-0.455,1.519-0.455,1.392,0
	C98.543,35.459,98.082,35.459,97.617,35.459z"/>
<path fill-rule="evenodd" clip-rule="evenodd" fill="#797979" d="M89.533,37.41c0-0.093,0-0.186,0-0.278c0.372,0,0.743,0,1.116,0
	c0,0.093,0,0.186,0,0.278C90.276,37.41,89.905,37.41,89.533,37.41z"/>
<path fill-rule="evenodd" clip-rule="evenodd" fill="#797979" d="M128.832,55.805c0.452-0.199,0.452,1.314,0,1.115
	C128.832,56.548,128.832,56.177,128.832,55.805z"/>
<path fill-rule="evenodd" clip-rule="evenodd" fill="#797979" d="M120.471,57.756c-0.442-0.023-1.063,0.134-1.116-0.279
	c0.373,0,0.743,0,1.116,0C120.471,57.57,120.471,57.663,120.471,57.756z"/>
<path fill-rule="evenodd" clip-rule="evenodd" fill="#C4C4C4" d="M122.42,57.756c0.838,0,1.673,0,2.509,0c0,0.093,0,0.186,0,0.278
	C124.173,57.862,122.717,58.388,122.42,57.756z"/>
<path fill-rule="evenodd" clip-rule="evenodd" fill="#797979" d="M124.929,58.034c0-0.092,0-0.185,0-0.278c0.929,0,1.858,0,2.788,0
	C127.331,58.391,125.776,57.859,124.929,58.034z"/>
<path fill-rule="evenodd" clip-rule="evenodd" fill="#797979" d="M121.306,60.543c0-0.093,0-0.186,0-0.279c0.558,0,1.114,0,1.673,0
	c0,0.093,0,0.186,0,0.279C122.42,60.543,121.864,60.543,121.306,60.543z"/>
<path fill-rule="evenodd" clip-rule="evenodd" fill="#797979" d="M97.337,73.363c0-0.093,0-0.187,0-0.278c0.463,0,0.928,0,1.393,0
	c0,0.092,0,0.186,0,0.278C98.265,73.363,97.8,73.363,97.337,73.363z"/>
<path fill-rule="evenodd" clip-rule="evenodd" fill="#C4C4C4" d="M98.73,73.363c0-0.093,0-0.187,0-0.278c0.373,0,0.743,0,1.116,0
	C99.76,73.463,99.147,73.316,98.73,73.363z"/>
<path fill-rule="evenodd" clip-rule="evenodd" fill="#C4C4C4" d="M98.173,75.872c-0.046-0.604,0.987-0.127,1.393-0.279
	c0,0.094,0,0.187,0,0.279C99.103,75.872,98.638,75.872,98.173,75.872z"/>
<path fill-rule="evenodd" clip-rule="evenodd" fill="#797979" d="M99.566,75.872c0-0.093,0-0.186,0-0.279c0.465,0,0.93,0,1.395,0
	c0,0.094,0,0.187,0,0.279C100.496,75.872,100.031,75.872,99.566,75.872z"/>
<path fill-rule="evenodd" clip-rule="evenodd" fill="#333333" d="M100.96,75.872c0-0.093,0-0.186,0-0.279c1.115,0,2.229,0,3.346,0
	c0,0.094,0,0.187,0,0.279C103.19,75.872,102.076,75.872,100.96,75.872z"/>
<path fill-rule="evenodd" clip-rule="evenodd" fill="#797979" d="M104.306,75.872c0-0.093,0-0.186,0-0.279
	c0.416,0.049,1.027-0.1,1.113,0.279C105.049,75.872,104.676,75.872,104.306,75.872z"/>
<path fill-rule="evenodd" clip-rule="evenodd" fill="#C4C4C4" d="M110.714,76.15c0.053-0.412,0.674-0.256,1.116-0.278
	c-0.008,0.271-0.341,0.216-0.557,0.278C111.087,76.15,110.901,76.15,110.714,76.15z"/>
<path fill-rule="evenodd" clip-rule="evenodd" fill="#191919" d="M72.532,15.392c0.252-0.492,0.623-0.863,1.116-1.115
	C73.395,14.769,73.023,15.14,72.532,15.392z"/>
<path fill-rule="evenodd" clip-rule="evenodd" fill="#797979" d="M72.81,86.463c0.533-0.768,1.185-1.418,1.951-1.95
	C74.229,85.279,73.578,85.93,72.81,86.463z"/>
<path fill-rule="evenodd" clip-rule="evenodd" fill="#333333" d="M114.896,74.479c0.44-0.676,0.997-1.233,1.673-1.672
	C116.127,73.481,115.571,74.039,114.896,74.479z"/>
<path fill-rule="evenodd" clip-rule="evenodd" fill="#191919" d="M91.762,26.541c0.347-0.583,0.812-1.048,1.395-1.394
	C92.81,25.73,92.345,26.194,91.762,26.541z"/>
<path fill-rule="evenodd" clip-rule="evenodd" fill="#191919" d="M133.012,24.868c0.347-0.583,0.81-1.047,1.393-1.394
	C134.06,24.057,133.595,24.522,133.012,24.868z"/>
<path fill-rule="evenodd" clip-rule="evenodd" fill="#191919" d="M128.832,2.571c1.138,0.905,2.161,1.927,3.065,3.065
	C130.758,4.731,129.737,3.709,128.832,2.571z"/>
<path fill-rule="evenodd" clip-rule="evenodd" fill="#191919" d="M89.811,29.606c0.675,0.44,1.234,0.997,1.673,1.672
	C90.809,30.839,90.251,30.281,89.811,29.606z"/>
<path fill-rule="evenodd" clip-rule="evenodd" fill="#191919" d="M89.811,24.589c0.347-0.583,0.812-1.047,1.395-1.393
	C90.859,23.779,90.394,24.244,89.811,24.589z"/>
<path fill-rule="evenodd" clip-rule="evenodd" fill="#191919" d="M131.061,22.917c0.347-0.582,0.812-1.047,1.395-1.393
	C132.109,22.106,131.644,22.571,131.061,22.917z"/>
<path fill-rule="evenodd" clip-rule="evenodd" fill="#191919" d="M126.602,4.243c1.324,1.091,2.532,2.299,3.624,3.624
	C128.902,6.775,127.694,5.567,126.602,4.243z"/>
<path fill-rule="evenodd" clip-rule="evenodd" fill="#191919" d="M75.04,17.621c-0.654-0.076-0.17-1.234,0.279-1.115
	C75.102,16.755,75.02,17.136,75.04,17.621z"/>
<path fill-rule="evenodd" clip-rule="evenodd" fill="#333333" d="M73.648,14.276c6.799-2.746,15.584-5.04,23.409-7.246
	c5.88-1.657,11.632-3.316,17.561-5.017c2.718-0.78,4.23-1.71,7.524-1.672c0.465,0,0.93,0,1.395,0
	c2.767-0.259,3.872,1.144,5.295,2.23c0.905,1.138,1.927,2.16,3.065,3.065c1.947,2.513,4.199,4.721,5.016,8.361
	c0.024,0.441-0.132,1.063,0.281,1.115c-0.551,3.167-1.459,5.975-2.789,8.361c-0.583,0.347-1.046,0.811-1.393,1.394
	c-0.831,0.653-2.632,1.437-4.181,2.229c-1.252,0.641-2.391,1.507-3.344,1.672c-2.162,0.375-4.369-0.475-6.689-1.115
	c-5.319-1.467-12.615-3.253-18.396-4.181c-0.48-0.462-2.864-0.462-3.346,0c-1.614,0.242-2.53,1.184-3.9,1.672
	c-0.583,0.346-1.048,0.811-1.395,1.394c0.209,2.909,4.315,3.913,6.689,5.295c0.547,0.318,0.825,0.514,1.114,0.836
	c-2.056-0.199-3.364,0.353-4.738,0.836c-0.844-1.014-2.324-1.392-3.344-2.229c-0.438-0.675-0.998-1.232-1.673-1.672
	c-0.16-0.583-0.691-0.795-0.557-1.672c0-0.65,0-1.301,0-1.951c-0.238-0.889,0.438-0.862,0.557-1.394
	c0.583-0.345,1.048-0.81,1.395-1.393c1.757-1.031,3.131-2.443,5.852-2.509c1.024,0,2.046,0,3.067,0
	c5.537,0.553,12.67,2.359,18.396,3.902c2.1,0.566,4.115,1.476,5.573,1.394c2.648-0.148,4.323-2.541,6.968-3.066
	c0.583-0.346,1.048-0.81,1.395-1.393c0.052-1.218,0.779-2.036,1.114-3.066c0.172-0.528,0.092-1.308,0.278-1.951
	c0.187-0.643,0.581-0.88,0.557-1.394c-0.061-1.331-1.276-2.845-1.949-3.902c-0.787-1.234-1.559-2.292-2.229-3.344
	c-1.092-1.325-2.3-2.532-3.624-3.624c-0.958-0.25-1.213-1.204-2.509-1.115c-0.301-0.461-2.486-0.461-2.787,0
	c-7.362,1.842-14.382,3.967-22.019,6.132c-1.499,0.425-3.847,1.103-5.853,1.672c-0.41,0.117-0.691,0.436-1.116,0.558
	c-0.957,0.276-2.113,0.295-3.064,0.558c-0.516,0.142-0.852,0.413-1.393,0.557c-3.938,1.046-8.305,2.6-12.543,3.902
	c-0.449-0.119-0.934,1.039-0.279,1.115c0.272,0.936,1.166,1.578,1.673,2.509c0.399,0.733,1.006,1.788,1.114,2.787
	c0.255,2.326-1.027,4.404-1.393,6.689c-0.324-0.045-0.497,0.061-0.559,0.279c-1.621,0.144-2.34,1.189-3.344,1.951
	c0.261-1.188,0.93-2.8,1.395-4.181c0.45-1.348,1.164-2.84,1.113-3.902c-0.107-2.355-2.329-3.032-2.786-5.852
	c0-0.465,0-0.929,0-1.394c-0.118-0.583,0.19-0.738,0.278-1.115C73.023,15.14,73.395,14.769,73.648,14.276z"/>
<path fill-rule="evenodd" clip-rule="evenodd" fill="#797979" d="M84.794,33.229c0.092-1.024,0.688-1.542,0.838-2.509
	c0.875-0.133,1.09,0.397,1.671,0.558c-0.219,0.931-1.495,1.855-0.836,2.787C85.636,34.061,85.52,33.341,84.794,33.229z"/>
<path fill-rule="evenodd" clip-rule="evenodd" fill="#797979" d="M26.266,86.742c0.58-0.853-0.828-1.644-0.836-2.788
	c0.531-0.119,0.7-0.6,1.393-0.557c0.51,0.698,0.58,1.835,1.394,2.229C27.635,86.068,27.082,86.535,26.266,86.742z"/>
<path fill-rule="evenodd" clip-rule="evenodd" fill="#C4C4C4" d="M70.859,84.791c0.054-0.226,0.28-0.277,0.278-0.557
	c0.583-0.347,1.048-0.812,1.395-1.395c0.227-0.054,0.278-0.279,0.557-0.278C72.463,83.422,71.72,84.165,70.859,84.791z"/>
<path fill-rule="evenodd" clip-rule="evenodd" fill="#797979" d="M83.124,35.459c0.756,0.171,1.305,0.553,1.671,1.115
	c-0.038,0.983-0.797,1.246-0.835,2.23c-0.788,0.23-0.724-0.393-1.395-0.279C82.224,37.032,83.903,36.512,83.124,35.459z"/>
<path fill-rule="evenodd" clip-rule="evenodd" fill="#333333" d="M110.993,70.577c0.12-0.699,0.798,0.267,0.56,0.836
	C111.149,71.349,111.454,70.581,110.993,70.577z"/>
<path fill-rule="evenodd" clip-rule="evenodd" fill="#333333" d="M110.158,71.691c-0.677-0.175-0.146-1.408,0.557-1.114
	C110.594,71.015,109.839,70.814,110.158,71.691z"/>
<path fill-rule="evenodd" clip-rule="evenodd" fill="#191919" d="M71.137,84.234c0.347-0.584,0.812-1.048,1.395-1.395
	C72.185,83.423,71.72,83.888,71.137,84.234z"/>
<path fill-rule="evenodd" clip-rule="evenodd" fill="#797979" d="M47.727,108.481c0.007-1.587-0.708-2.451-0.558-4.181
	c0.668-0.169,1.272-0.4,2.23-0.279c0.081,1.499,0.292,2.867,0.836,3.902C50.054,108.209,48.578,108.115,47.727,108.481z"/>
<path fill-rule="evenodd" clip-rule="evenodd" fill="#797979" d="M110.714,70.577c0.095,0,0.187,0,0.278,0
	c0.461,0.004,0.156,0.771,0.56,0.836c0.553,0.19-0.175,1.66,0.835,1.394c-0.747,0.47-2.572,1.317-3.624,0.557
	c1.753,0.325,1.825-0.413,1.395-1.672C109.839,70.814,110.594,71.015,110.714,70.577z"/>
<path fill-rule="evenodd" clip-rule="evenodd" fill="#333333" d="M90.649,34.623c0.052-0.413,0.673-0.255,1.113-0.278
	C91.71,34.757,91.089,34.6,90.649,34.623z"/>
<path fill-rule="evenodd" clip-rule="evenodd" fill="#333333" d="M88.418,37.131c0.371,0,0.743,0,1.114,0c0,0.093,0,0.186,0,0.278
	C89.092,37.387,88.471,37.544,88.418,37.131z"/>
<path fill-rule="evenodd" clip-rule="evenodd" fill="#333333" d="M90.649,37.131c0.37,0,0.743,0,1.113,0
	c-0.086,0.378-0.697,0.231-1.113,0.278C90.649,37.317,90.649,37.224,90.649,37.131z"/>
<path fill-rule="evenodd" clip-rule="evenodd" fill="#333333" d="M117.125,57.477c-0.2-0.452,1.314-0.452,1.116,0
	C117.869,57.477,117.499,57.477,117.125,57.477z"/>
<path fill-rule="evenodd" clip-rule="evenodd" fill="#191919" d="M120.471,57.477c0.404,0.152,1.438-0.326,1.393,0.279
	c-0.465,0-0.93,0-1.393,0C120.471,57.663,120.471,57.57,120.471,57.477z"/>
<path fill-rule="evenodd" clip-rule="evenodd" fill="#333333" d="M114.618,59.707c0,0.744,0,1.487,0,2.231
	C114.157,61.813,114.157,59.831,114.618,59.707z"/>
<path fill-rule="evenodd" clip-rule="evenodd" fill="#797979" d="M117.404,60.264c-0.124-0.455,1.519-0.455,1.395,0
	C118.333,60.264,117.869,60.264,117.404,60.264z"/>
<path fill-rule="evenodd" clip-rule="evenodd" fill="#333333" d="M119.913,60.264c0.465,0,0.929,0,1.394,0c0,0.093,0,0.186,0,0.279
	C120.902,60.391,119.866,60.869,119.913,60.264z"/>
<path fill-rule="evenodd" clip-rule="evenodd" fill="#C4C4C4" d="M122.979,60.264c2.044,0,4.087,0,6.131,0
	c-1.49,0.647-4.177,0.096-6.131,0.279C122.979,60.45,122.979,60.357,122.979,60.264z"/>
<path fill-rule="evenodd" clip-rule="evenodd" fill="#191919" d="M117.404,60.264c0,0.464,0,0.929,0,1.393
	C116.949,61.784,116.949,60.139,117.404,60.264z"/>
<path fill-rule="evenodd" clip-rule="evenodd" fill="#191919" d="M117.96,66.675c0.461,0.037,0.461,1.912,0,1.95
	C117.96,67.976,117.96,67.325,117.96,66.675z"/>
<path fill-rule="evenodd" clip-rule="evenodd" fill="#333333" d="M96.222,73.363c0.086-0.379,0.699-0.23,1.115-0.278
	c0,0.092,0,0.186,0,0.278C96.965,73.363,96.594,73.363,96.222,73.363z"/>
<path fill-rule="evenodd" clip-rule="evenodd" fill="#333333" d="M106.536,73.085c0.44,0.023,1.062-0.134,1.113,0.278
	C107.208,73.341,106.585,73.498,106.536,73.085z"/>
<path fill-rule="evenodd" clip-rule="evenodd" fill="#797979" d="M112.945,75.593c-0.116,1.325,0.406,2.011,0.559,3.065
	c-0.854-0.2-1.018,0.286-1.673,0.279c0.062-1.178-0.431-1.8-0.557-2.787c0.216-0.063,0.549-0.007,0.557-0.278
	C112.315,75.893,112.698,75.81,112.945,75.593z"/>
<path fill-rule="evenodd" clip-rule="evenodd" fill="#797979" d="M29.331,88.136c0.323,0.978,1.098,1.504,1.116,2.786
	c-0.226,0.24-0.764,0.167-0.836,0.559c-0.808-0.401-1.149-1.268-1.394-2.23C27.507,88.545,28.92,88.539,29.331,88.136z"/>
<path fill-rule="evenodd" clip-rule="evenodd" fill="#191919" d="M68.073,93.71c-0.459-0.038-0.459-1.914,0-1.951
	C68.073,92.409,68.073,93.059,68.073,93.71z"/>
<path fill-rule="evenodd" clip-rule="evenodd" fill="#797979" d="M0.346,101.793c0,0.835,0,1.672,0,2.508
	C-0.115,104.089-0.115,102.004,0.346,101.793z"/>
<path fill-rule="evenodd" clip-rule="evenodd" fill="#333333" d="M5.92,104.858c0.086-0.379,0.698-0.231,1.114-0.279
	c0,0.093,0,0.186,0,0.279C6.663,104.858,6.292,104.858,5.92,104.858z"/>
<path fill-rule="evenodd" clip-rule="evenodd" fill="#797979" d="M7.034,104.579c0.578,0.166,1.831-0.344,1.952,0.279
	c-0.651,0-1.301,0-1.952,0C7.034,104.765,7.034,104.672,7.034,104.579z"/>
<path fill-rule="evenodd" clip-rule="evenodd" fill="#797979" d="M3.411,107.366c0.929,0,1.858,0,2.787,0c0,0.093,0,0.187,0,0.278
	C5.352,107.471,3.798,108.001,3.411,107.366z"/>
<path fill-rule="evenodd" clip-rule="evenodd" fill="#333333" d="M6.198,107.366c0.372,0,0.744,0,1.115,0
	c-0.086,0.379-0.698,0.231-1.115,0.278C6.198,107.553,6.198,107.459,6.198,107.366z"/>
<path fill-rule="evenodd" clip-rule="evenodd" fill="#333333" d="M8.149,107.366c0.455-0.125,0.455,1.519,0,1.395
	C8.149,108.296,8.149,107.831,8.149,107.366z"/>
<path fill-rule="evenodd" clip-rule="evenodd" fill="#797979" d="M51.628,110.433c-0.044,0.326-0.508,0.234-0.836,0.278
	c-0.451,0.47,0.508,1.895,0.279,3.066c0.118,0.582-0.191,0.738-0.279,1.114c-0.186,0-0.372,0-0.557,0c-0.372,0-0.743,0-1.115,0
	c-0.631-1.041,0.065-3.41-1.394-3.623C48.959,110.921,50.237,110.62,51.628,110.433z"/>
<path fill-rule="evenodd" clip-rule="evenodd" fill="#797979" d="M7.313,116.563c-0.461-0.3-0.461-2.485,0-2.786
	C7.313,114.706,7.313,115.636,7.313,116.563z"/>
<path fill-rule="evenodd" clip-rule="evenodd" fill="#333333" d="M49.12,114.892c0.372,0,0.743,0,1.115,0
	C50.434,115.344,48.92,115.344,49.12,114.892z"/>
<path fill-rule="evenodd" clip-rule="evenodd" fill="#FFFFFF" d="M72.532,31.836c1.004-0.762,1.723-1.808,3.344-1.951
	c0.442-0.023,1.063,0.134,1.116-0.279c3.971-0.163,5.276,2.342,7.803,3.624c0.726,0.111,0.842,0.831,1.673,0.836
	c1.326,0.253,2.526,0.633,4.182,0.557c0.44-0.023,1.062,0.134,1.113-0.278c1.328,0.027,2.082-0.52,3.065-0.836
	c1.374-0.483,2.683-1.035,4.738-0.836c6.274,2.934,16.207,7.942,23.692,11.706c2.52,1.268,5.966,2.922,6.968,4.738
	c0.633,1.15,0.909,3.303,1.113,5.575c0.167,1.852,0.521,2.755-0.278,4.18c-0.415,0.738-0.695,0.903-1.951,1.394
	c-2.044,0-4.087,0-6.131,0c-0.559,0-1.115,0-1.673,0c-0.465,0-0.929,0-1.394,0c-0.371,0-0.744,0-1.114,0
	c0.124-0.455-1.519-0.455-1.395,0c-0.455-0.125-0.455,1.52,0,1.393c0.124,1.734,0.545,3.173,0.557,5.018c0,0.65,0,1.301,0,1.95
	c-0.084,1.773-0.543,3.172-1.392,4.182c-0.676,0.438-1.232,0.996-1.673,1.672c-0.722,0.3-1.036,1.008-1.951,1.114
	c-0.247,0.217-0.63,0.3-1.114,0.279c-0.442,0.022-1.063-0.134-1.116,0.278c-0.557,0-1.113,0-1.671,0
	c-0.387-0.636-1.941-0.104-2.788-0.278c-0.279,0-0.558,0-0.836,0c-0.086-0.379-0.697-0.23-1.113-0.279c-1.116,0-2.23,0-3.346,0
	c-0.465,0-0.93,0-1.395,0c-0.405,0.152-1.438-0.325-1.393,0.279c-9.69,0.992-17.175,4.191-23.412,8.641
	c-0.767,0.532-1.418,1.183-1.951,1.95c-0.81,1.419-1.725,2.735-1.951,4.739c-0.461,0.299-0.461,2.486,0,2.786
	c0.261,1.928,0.886,3.683,1.395,5.575c0.501,1.859,1.362,3.768,0.557,5.573c-0.619,1.387-2.426,1.739-4.459,2.229
	c-4.996,1.204-12.031,2.144-16.723,3.066c-1.391,0.188-2.669,0.488-3.901,0.836c-7.508,1.489-18.309,3.931-27.592,5.574
	c-0.826,0.146-1.676,0.119-2.508,0.279c-3.046,0.583-9.43,3.13-10.313-0.559c0-0.928,0-1.857,0-2.786
	c0.09-1.861,0.746-3.156,0.836-5.017c0.455,0.124,0.455-1.52,0-1.395c-0.279,0-0.558,0-0.836,0c-0.372,0-0.743,0-1.115,0
	c-0.929,0-1.858,0-2.787,0c-1.682-0.36-2.705-1.384-3.065-3.065c0-0.836,0-1.673,0-2.508c0-0.187,0-0.373,0-0.559
	c0.605-1.262,1.93-1.564,3.065-2.229c6.992-4.094,15.396-8.276,22.854-12.263c0.816-0.207,1.37-0.674,1.951-1.115
	c8.291-4.266,16.686-8.911,25.084-13.378c2.71-1.442,5.5-2.671,7.525-5.017C64.815,55.521,68.629,43.634,72.532,31.836z
	 M76.712,32.394c-0.186,0-0.372,0-0.557,0c-1.376,0.669-1.521,2.344-2.229,4.459c-3.282,9.773-6.036,18.56-9.198,27.593
	c-0.708,2.021-1.421,4.024-2.23,5.017c-0.546,0.669-0.848,0.976-1.393,1.394c-0.605,0.463-0.938,0.63-1.394,0.836
	c-0.092,0.041-0.173,0.489-0.278,0.558c-0.3,0.193-0.818,0.371-1.115,0.558c-1.316,0.823-2.812,1.5-4.181,2.229
	c-8.562,4.561-16.284,8.54-24.526,13.1c-0.071,0.039-0.204-0.032-0.279,0c-0.411,0.403-1.824,0.409-1.114,1.114
	c-1.723,0.027-2.391,1.013-3.623,1.672c-0.488,0.261-1.199,0.304-1.673,0.559c-0.536,0.287-0.857,0.827-1.394,1.114
	c-0.959,0.514-2.164,0.762-3.345,1.394c-0.969,0.52-1.938,1.35-3.065,1.95c-0.9,0.481-1.711,0.779-2.23,1.115
	c-1.338,0.867-2.555,1.364-4.181,2.229c-0.787,0.42-2.022,1.091-3.065,1.672c-1.577,0.879-2.837,1.099-2.788,2.23
	c0.057,1.281,1.744,1.875,3.066,1.673c0.372,0,0.743,0,1.114,0c0.651,0,1.301,0,1.952,0c1.136,0.164,1.786,0.814,1.951,1.951
	c0,0.649,0,1.3,0,1.951c-0.226,2.467-1.008,4.379-1.115,6.967c13.194-1.856,25.289-4.812,37.905-7.246
	c0.852-0.366,2.327-0.272,2.509-0.558c6.648-1.434,14.165-2,20.067-4.181c-0.27-3.818-2.047-6.129-2.229-10.033
	c0-0.651,0-1.301,0-1.951c0.215-3.036,1.184-5.319,2.786-6.968c0.861-0.626,1.604-1.369,2.229-2.229
	c5.896-4.883,13.617-7.938,23.134-9.198c0.372,0,0.743,0,1.115,0c0.463,0,0.928,0,1.393,0c0.417-0.047,1.03,0.1,1.116-0.278
	c0.278,0,0.557,0,0.835,0c1.301,0,2.601,0,3.903,0c0.648,0,1.3,0,1.951,0c0.05,0.413,0.673,0.256,1.113,0.278
	c0.371,0,0.744,0,1.114,0c1.052,0.761,2.877-0.087,3.624-0.557c1.132-1.098,2.772-1.688,2.787-3.901
	c0.461-0.302,0.461-2.487,0-2.788c0.036-1.616-0.525-2.634-0.557-4.18c0-0.744,0-1.487,0-2.231c0.288-1.29,1.007-2.151,2.508-2.229
	c0.373,0,0.743,0,1.116,0c0.37,0,0.743,0,1.113,0c0.053,0.413,0.674,0.255,1.116,0.279c0.463,0,0.928,0,1.393,0
	c0.187,0,0.372,0,0.557,0c0.297,0.632,1.753,0.106,2.509,0.278c0.847-0.175,2.401,0.357,2.788-0.278
	c0.383,0.012,0.611-0.131,0.836-0.279c-0.002-0.28,0.226-0.332,0.278-0.558c0.452,0.199,0.452-1.314,0-1.115
	c-0.16-0.877-0.068-2.062-0.278-3.066c-0.617-2.942-1.655-3.18-4.182-4.459c-8.28-4.193-17.891-9.257-25.363-12.82
	c0.127-0.455-1.519-0.455-1.392,0c-2.008,0.5-3.372,1.646-5.854,1.672c-0.37,0-0.743,0-1.113,0c-0.373,0-0.744,0-1.116,0
	c-0.371,0-0.743,0-1.114,0c-1.42,0.025-2.203-0.584-3.624-0.558c-0.366-0.562-0.915-0.943-1.671-1.115
	c-1.813-0.882-2.833-2.557-5.019-3.065C78.231,31.938,76.586,31.938,76.712,32.394z"/>
<path fill-rule="evenodd" clip-rule="evenodd" fill="#333333" d="M100.681,73.085c0.663-0.463,3.24-0.463,3.903,0
	C103.282,73.085,101.982,73.085,100.681,73.085z"/>
<path fill-rule="evenodd" clip-rule="evenodd" fill="#333333" d="M10.937,106.81c0.459,0.037,0.459,1.913,0,1.951
	C10.937,108.109,10.937,107.459,10.937,106.81z"/>
<path fill-rule="evenodd" clip-rule="evenodd" fill="#333333" d="M51.071,113.777c0.491-0.089,0.497,1.561-0.279,1.114
	C50.88,114.516,51.189,114.359,51.071,113.777z"/>
<path fill-rule="evenodd" clip-rule="evenodd" fill="#797979" d="M106.255,75.872c0.847,0.175,2.401-0.357,2.788,0.278
	C108.196,75.976,106.642,76.508,106.255,75.872z"/>
<path fill-rule="evenodd" clip-rule="evenodd" fill="#333333" d="M115.174,66.117c0.461,0.301,0.461,2.486,0,2.788
	C115.174,67.976,115.174,67.046,115.174,66.117z"/>
<path fill-rule="evenodd" clip-rule="evenodd" fill="#333333" d="M70.859,91.202c0,0.928,0,1.856,0,2.786
	C70.398,93.688,70.398,91.501,70.859,91.202z"/>
</svg>
