<?xml version="1.0" encoding="utf-8"?>
<!-- Generator: Adobe Illustrator 15.0.0, SVG Export Plug-In  -->
<!DOCTYPE svg PUBLIC "-//W3C//DTD SVG 1.1//EN" "http://www.w3.org/Graphics/SVG/1.1/DTD/svg11.dtd" [
	<!ENTITY ns_flows "http://ns.adobe.com/Flows/1.0/">
]>
<svg version="1.1"
	 xmlns="http://www.w3.org/2000/svg" xmlns:xlink="http://www.w3.org/1999/xlink" xmlns:a="http://ns.adobe.com/AdobeSVGViewerExtensions/3.0/"
	 x="0px" y="0px" width="142px" height="142px" viewBox="-2.72 -11.49 142 142" enable-background="new -2.72 -11.49 142 142"
	 xml:space="preserve">
<defs>
</defs>
<path fill-rule="evenodd" clip-rule="evenodd" fill="#191919" d="M122.42,0.339c-0.198-0.452,1.314-0.452,1.116,0
	C123.164,0.339,122.793,0.339,122.42,0.339z"/>
<path fill-rule="evenodd" clip-rule="evenodd" fill="#191919" d="M121.306,3.125c0.301-0.461,2.486-0.461,2.787,0
	C123.164,3.125,122.236,3.125,121.306,3.125z"/>
<path fill-rule="evenodd" clip-rule="evenodd" fill="#191919" d="M136.913,13.996c0.379,0.086,0.232,0.698,0.281,1.115
	C136.781,15.059,136.937,14.437,136.913,13.996z"/>
<path fill-rule="evenodd" clip-rule="evenodd" fill="#191919" d="M72.253,16.504c0,0.465,0,0.929,0,1.394
	C71.798,18.023,71.798,16.379,72.253,16.504z"/>
<path fill-rule="evenodd" clip-rule="evenodd" fill="#191919" d="M97.057,20.685c0.391-0.461,2.677-0.461,3.067,0
	C99.103,20.685,98.082,20.685,97.057,20.685z"/>
<path fill-rule="evenodd" clip-rule="evenodd" fill="#191919" d="M97.057,23.472c0.481-0.462,2.865-0.462,3.346,0
	C99.288,23.472,98.173,23.472,97.057,23.472z"/>
<path fill-rule="evenodd" clip-rule="evenodd" fill="#191919" d="M89.254,25.98c0,0.65,0,1.301,0,1.951
	C88.795,27.893,88.795,26.018,89.254,25.98z"/>
<path fill-rule="evenodd" clip-rule="evenodd" fill="#797979" d="M75.875,29.882c0.062-0.218,0.234-0.324,0.559-0.279
	c0.185,0,0.371,0,0.558,0C76.939,30.016,76.318,29.859,75.875,29.882z"/>
<path fill-rule="evenodd" clip-rule="evenodd" fill="#C3C3C3" d="M76.712,32.391c-0.126-0.456,1.519-0.456,1.393,0
	C77.642,32.391,77.177,32.391,76.712,32.391z"/>
<path fill-rule="evenodd" clip-rule="evenodd" fill="#797979" d="M89.533,37.407c0-0.093,0-0.186,0-0.278c0.372,0,0.743,0,1.116,0
	c0,0.093,0,0.186,0,0.278C90.276,37.407,89.905,37.407,89.533,37.407z"/>
<path fill-rule="evenodd" clip-rule="evenodd" fill="#797979" d="M128.832,55.802c0.452-0.199,0.452,1.314,0,1.115
	C128.832,56.545,128.832,56.174,128.832,55.802z"/>
<path fill-rule="evenodd" clip-rule="evenodd" fill="#191919" d="M117.125,57.475c-0.2-0.452,1.314-0.452,1.116,0
	C117.869,57.475,117.499,57.475,117.125,57.475z"/>
<path fill-rule="evenodd" clip-rule="evenodd" fill="#797979" d="M120.471,57.753c-0.442-0.023-1.063,0.134-1.116-0.279
	c0.373,0,0.743,0,1.116,0C120.471,57.567,120.471,57.66,120.471,57.753z"/>
<path fill-rule="evenodd" clip-rule="evenodd" fill="#C3C3C3" d="M122.42,57.753c0.838,0,1.673,0,2.509,0c0,0.093,0,0.186,0,0.278
	C124.173,57.86,122.717,58.386,122.42,57.753z"/>
<path fill-rule="evenodd" clip-rule="evenodd" fill="#797979" d="M124.929,58.032c0-0.092,0-0.185,0-0.278c0.929,0,1.858,0,2.788,0
	C127.331,58.389,125.776,57.857,124.929,58.032z"/>
<path fill-rule="evenodd" clip-rule="evenodd" fill="#797979" d="M117.404,60.262c-0.124-0.455,1.519-0.455,1.395,0
	C118.333,60.262,117.869,60.262,117.404,60.262z"/>
<path fill-rule="evenodd" clip-rule="evenodd" fill="#797979" d="M121.306,60.541c0-0.093,0-0.186,0-0.279c0.649,0,1.301,0,1.952,0
	c0,0.093,0,0.186,0,0.279C122.607,60.541,121.956,60.541,121.306,60.541z"/>
<path fill-rule="evenodd" clip-rule="evenodd" fill="#797979" d="M97.337,73.361c0-0.093,0-0.187,0-0.278c0.371,0,0.744,0,1.114,0
	c0,0.092,0,0.186,0,0.278C98.082,73.361,97.708,73.361,97.337,73.361z"/>
<path fill-rule="evenodd" clip-rule="evenodd" fill="#C3C3C3" d="M98.452,73.361c0-0.093,0-0.187,0-0.278c0.465,0,0.93,0,1.395,0
	C99.892,73.688,98.856,73.208,98.452,73.361z"/>
<path fill-rule="evenodd" clip-rule="evenodd" fill="#797979" d="M110.993,73.361c-0.122,0.46-2.105,0.46-2.229,0
	C109.506,73.361,110.25,73.361,110.993,73.361z"/>
<path fill-rule="evenodd" clip-rule="evenodd" fill="#C3C3C3" d="M98.173,75.87c-0.046-0.604,0.987-0.127,1.393-0.279
	c0,0.094,0,0.187,0,0.279C99.103,75.87,98.638,75.87,98.173,75.87z"/>
<path fill-rule="evenodd" clip-rule="evenodd" fill="#797979" d="M99.566,75.87c0-0.093,0-0.186,0-0.279c0.465,0,0.93,0,1.395,0
	c0,0.094,0,0.187,0,0.279C100.496,75.87,100.031,75.87,99.566,75.87z"/>
<path fill-rule="evenodd" clip-rule="evenodd" fill="#191919" d="M72.532,15.389c0.252-0.492,0.623-0.863,1.116-1.115
	C73.395,14.766,73.023,15.138,72.532,15.389z"/>
<path fill-rule="evenodd" clip-rule="evenodd" fill="#797979" d="M25.151,87.296c0.58-0.853-0.828-1.644-0.836-2.786
	c0.531-0.12,0.7-0.602,1.393-0.559c0.509,0.699,0.58,1.837,1.394,2.23C26.521,86.623,25.966,87.09,25.151,87.296z"/>
<path fill-rule="evenodd" clip-rule="evenodd" fill="#797979" d="M42.431,112.38c0.287-0.179,1.476-0.373,2.509-0.557
	c-0.1,1.68,0.657,2.501,0.557,4.18c-0.667,0.169-1.271,0.4-2.229,0.279C43.187,114.785,42.975,113.417,42.431,112.38z"/>
<path fill-rule="evenodd" clip-rule="evenodd" fill="#797979" d="M73.088,86.182c0.441-0.676,0.998-1.232,1.673-1.672
	C74.321,85.185,73.764,85.742,73.088,86.182z"/>
<path fill-rule="evenodd" clip-rule="evenodd" fill="#333333" d="M114.896,74.476c0.44-0.676,0.997-1.233,1.673-1.672
	C116.127,73.479,115.571,74.037,114.896,74.476z"/>
<path fill-rule="evenodd" clip-rule="evenodd" fill="#191919" d="M91.762,26.816c0.099-0.924,0.836-1.209,1.395-1.672
	C92.768,25.779,92.193,26.224,91.762,26.816z"/>
<path fill-rule="evenodd" clip-rule="evenodd" fill="#191919" d="M133.012,24.866c0.347-0.583,0.81-1.047,1.393-1.394
	C134.06,24.055,133.595,24.52,133.012,24.866z"/>
<path fill-rule="evenodd" clip-rule="evenodd" fill="#191919" d="M128.832,2.569c1.138,0.905,2.161,1.927,3.065,3.065
	C130.758,4.729,129.737,3.707,128.832,2.569z"/>
<path fill-rule="evenodd" clip-rule="evenodd" fill="#191919" d="M89.811,29.604c0.675,0.44,1.234,0.997,1.673,1.672
	C90.809,30.836,90.251,30.279,89.811,29.604z"/>
<path fill-rule="evenodd" clip-rule="evenodd" fill="#191919" d="M89.811,24.586c0.347-0.583,0.812-1.047,1.395-1.393
	C90.859,23.776,90.394,24.241,89.811,24.586z"/>
<path fill-rule="evenodd" clip-rule="evenodd" fill="#191919" d="M131.061,22.914c0.347-0.582,0.812-1.047,1.395-1.393
	C132.109,22.104,131.644,22.568,131.061,22.914z"/>
<path fill-rule="evenodd" clip-rule="evenodd" fill="#191919" d="M126.602,4.241c1.324,1.091,2.532,2.299,3.624,3.624
	C128.902,6.773,127.694,5.565,126.602,4.241z"/>
<path fill-rule="evenodd" clip-rule="evenodd" fill="#191919" d="M75.04,17.619c-0.654-0.076-0.17-1.234,0.279-1.115
	C75.102,16.752,75.02,17.133,75.04,17.619z"/>
<path fill-rule="evenodd" clip-rule="evenodd" fill="#333333" d="M73.648,14.274c6.806-2.747,15.582-5.039,23.409-7.246
	c5.893-1.66,11.636-3.317,17.561-5.017c2.714-0.779,4.373-1.775,7.803-1.672c0.373,0,0.743,0,1.116,0
	c2.767-0.259,3.872,1.144,5.295,2.23c0.905,1.138,1.927,2.16,3.065,3.065c1.947,2.513,4.199,4.721,5.016,8.361
	c0.024,0.441-0.132,1.063,0.281,1.115c-0.551,3.167-1.459,5.975-2.789,8.361c-0.583,0.347-1.046,0.811-1.393,1.394
	c-0.831,0.653-2.632,1.437-4.181,2.229c-2.023,1.036-2.616,1.903-5.573,1.672c-1.724-0.134-3.849-0.847-5.854-1.393
	c-5.274-1.438-11.053-3-17.001-3.902c-0.48-0.462-2.864-0.462-3.346,0c-1.614,0.242-2.53,1.184-3.9,1.672
	c-0.559,0.463-1.296,0.749-1.395,1.672c1.04,3.514,5.441,3.663,7.804,5.853c-2.056-0.199-3.364,0.353-4.738,0.836
	c-0.844-1.014-2.324-1.392-3.344-2.229c-0.438-0.675-0.998-1.232-1.673-1.672c-0.16-0.583-0.691-0.795-0.557-1.672
	c0-0.65,0-1.301,0-1.951c-0.238-0.889,0.438-0.862,0.557-1.394c0.583-0.345,1.048-0.81,1.395-1.393
	c1.757-1.031,3.131-2.443,5.852-2.509c1.024,0,2.046,0,3.067,0c5.537,0.553,12.67,2.359,18.396,3.902
	c2.1,0.566,4.115,1.476,5.573,1.394c2.648-0.148,4.323-2.541,6.968-3.066c0.583-0.346,1.048-0.81,1.395-1.393
	c0.042-1.186,0.785-2.053,1.114-3.066c0.166-0.513,0.111-1.373,0.278-1.951c0.187-0.644,0.579-0.88,0.557-1.394
	c-0.063-1.495-1.152-2.676-1.949-3.902c-0.739-1.133-1.559-2.319-2.229-3.344c-1.092-1.325-2.3-2.532-3.624-3.624
	c-0.958-0.25-1.213-1.204-2.509-1.115c-0.301-0.461-2.486-0.461-2.787,0c-7.362,1.842-14.382,3.967-22.019,6.132
	c-1.499,0.425-3.847,1.103-5.853,1.672c-0.41,0.117-0.691,0.436-1.116,0.558c-0.957,0.276-2.113,0.295-3.064,0.558
	c-0.516,0.142-0.852,0.413-1.393,0.557c-3.938,1.046-8.305,2.6-12.543,3.902c-0.449-0.119-0.934,1.039-0.279,1.115
	c0.272,0.936,1.166,1.578,1.673,2.509c0.399,0.733,1.006,1.788,1.114,2.787c0.255,2.326-1.027,4.404-1.393,6.689
	c-0.324-0.045-0.497,0.061-0.559,0.279c-1.621,0.144-2.34,1.189-3.344,1.951c0.261-1.188,0.93-2.8,1.395-4.181
	c0.45-1.348,1.164-2.84,1.113-3.902c-0.107-2.355-2.329-3.032-2.786-5.852c0-0.465,0-0.929,0-1.394
	c-0.118-0.583,0.19-0.738,0.278-1.115C73.023,15.138,73.395,14.766,73.648,14.274z"/>
<path fill-rule="evenodd" clip-rule="evenodd" fill="#797979" d="M112.387,75.87c0.567-0.454,1.459-0.585,1.951-1.115
	c0.063,1.145,0.592,1.825,1.114,2.509c0.086,0.643-0.806,0.31-0.835,0.836C113.094,78.135,113.677,76.067,112.387,75.87z"/>
<path fill-rule="evenodd" clip-rule="evenodd" fill="#C3C3C3" d="M70.859,84.789c0.054-0.226,0.28-0.277,0.278-0.557
	c0.583-0.347,1.048-0.812,1.395-1.395c0.227-0.054,0.278-0.279,0.557-0.278C72.463,83.419,71.72,84.163,70.859,84.789z"/>
<path fill-rule="evenodd" clip-rule="evenodd" fill="#333333" d="M113.223,72.247c0.252-0.491,0.625-0.863,1.115-1.115
	C114.086,71.624,113.715,71.995,113.223,72.247z"/>
<path fill-rule="evenodd" clip-rule="evenodd" fill="#797979" d="M114.896,58.868c0.252-0.492,0.623-0.863,1.115-1.115
	C115.759,58.245,115.386,58.617,114.896,58.868z"/>
<path fill-rule="evenodd" clip-rule="evenodd" fill="#797979" d="M81.729,34.62c0.794,0.229,1.415,0.629,1.673,1.394
	c-0.13,0.985-0.705,1.526-1.115,2.229c-0.413-0.145-0.701-0.412-1.114-0.557c-0.295-1.329,1.503-2.01,0.835-2.787
	C81.771,34.95,81.746,34.791,81.729,34.62z"/>
<path fill-rule="evenodd" clip-rule="evenodd" fill="#191919" d="M71.137,84.232c0.347-0.584,0.812-1.048,1.395-1.395
	C72.185,83.42,71.72,83.885,71.137,84.232z"/>
<path fill-rule="evenodd" clip-rule="evenodd" fill="#333333" d="M90.649,34.62c0.052-0.413,0.673-0.255,1.113-0.278
	C91.71,34.754,91.089,34.597,90.649,34.62z"/>
<path fill-rule="evenodd" clip-rule="evenodd" fill="#797979" d="M97.617,35.457c-0.127-0.455,1.519-0.455,1.392,0
	C98.543,35.457,98.082,35.457,97.617,35.457z"/>
<path fill-rule="evenodd" clip-rule="evenodd" fill="#333333" d="M88.418,37.129c0.371,0,0.743,0,1.114,0c0,0.093,0,0.186,0,0.278
	C89.116,37.36,88.504,37.507,88.418,37.129z"/>
<path fill-rule="evenodd" clip-rule="evenodd" fill="#333333" d="M90.649,37.129c0.37,0,0.743,0,1.113,0
	c-0.052,0.413-0.673,0.255-1.113,0.278C90.649,37.314,90.649,37.222,90.649,37.129z"/>
<path fill-rule="evenodd" clip-rule="evenodd" fill="#191919" d="M120.471,57.475c0.404,0.152,1.438-0.326,1.393,0.279
	c-0.465,0-0.93,0-1.393,0C120.471,57.66,120.471,57.567,120.471,57.475z"/>
<path fill-rule="evenodd" clip-rule="evenodd" fill="#333333" d="M114.618,61.935c-0.461-0.125-0.461-2.107,0-2.231
	C114.618,60.448,114.618,61.191,114.618,61.935z"/>
<path fill-rule="evenodd" clip-rule="evenodd" fill="#333333" d="M119.913,60.262c0.465,0,0.929,0,1.394,0c0,0.093,0,0.186,0,0.279
	C120.902,60.388,119.866,60.867,119.913,60.262z"/>
<path fill-rule="evenodd" clip-rule="evenodd" fill="#C3C3C3" d="M123.258,60.262c1.856,0,3.714,0,5.573,0
	c-1.305,0.646-3.807,0.096-5.573,0.279C123.258,60.448,123.258,60.355,123.258,60.262z"/>
<path fill-rule="evenodd" clip-rule="evenodd" fill="#191919" d="M117.404,61.376c-0.453,0.199-0.453-1.314,0-1.115
	C117.404,60.633,117.404,61.005,117.404,61.376z"/>
<path fill-rule="evenodd" clip-rule="evenodd" fill="#333333" d="M96.222,73.361c0.052-0.412,0.673-0.255,1.115-0.278
	c0,0.092,0,0.186,0,0.278C96.965,73.361,96.594,73.361,96.222,73.361z"/>
<path fill-rule="evenodd" clip-rule="evenodd" fill="#333333" d="M100.96,75.59c1.306,0.181,3.337-0.364,4.181,0.279
	c-1.395,0-2.787,0-4.181,0C100.96,75.777,100.96,75.684,100.96,75.59z"/>
<path fill-rule="evenodd" clip-rule="evenodd" fill="#333333" d="M96.779,76.148c0.052-0.412,0.675-0.256,1.116-0.278
	C97.809,76.248,97.198,76.101,96.779,76.148z"/>
<path fill-rule="evenodd" clip-rule="evenodd" fill="#797979" d="M28.217,88.69c0.194,0.902,1.906,2.368,0.558,3.066
	c-0.896,0.624-1.414-1.059-1.672-1.951c0-0.186,0-0.372,0-0.558C27.862,89.451,27.663,88.694,28.217,88.69z"/>
<path fill-rule="evenodd" clip-rule="evenodd" fill="#191919" d="M68.073,91.756c0,0.65,0,1.3,0,1.951
	C67.613,93.669,67.613,91.793,68.073,91.756z"/>
<path fill-rule="evenodd" clip-rule="evenodd" fill="#797979" d="M0.346,101.791c0,0.835,0,1.672,0,2.508
	C-0.115,104.086-0.115,102.001,0.346,101.791z"/>
<path fill-rule="evenodd" clip-rule="evenodd" fill="#333333" d="M5.92,104.856c0.052-0.413,0.673-0.256,1.114-0.279
	c0,0.093,0,0.186,0,0.279C6.663,104.856,6.292,104.856,5.92,104.856z"/>
<path fill-rule="evenodd" clip-rule="evenodd" fill="#797979" d="M7.034,104.577c0.578,0.166,1.831-0.344,1.952,0.279
	c-0.651,0-1.301,0-1.952,0C7.034,104.762,7.034,104.669,7.034,104.577z"/>
<path fill-rule="evenodd" clip-rule="evenodd" fill="#797979" d="M41.874,109.593c0.1-1.68-0.658-2.501-0.558-4.181
	c0.897,0.062,1.18-0.492,2.23-0.278c-0.099,1.584,0.581,2.392,0.558,3.902c0.186,0,0.372,0,0.557,0
	C43.978,109.468,42.847,109.452,41.874,109.593z"/>
<path fill-rule="evenodd" clip-rule="evenodd" fill="#333333" d="M10.937,106.807c0.459,0.037,0.459,1.913,0,1.951
	C10.937,108.107,10.937,107.457,10.937,106.807z"/>
<path fill-rule="evenodd" clip-rule="evenodd" fill="#797979" d="M3.411,107.364c0.929,0,1.858,0,2.787,0c0,0.093,0,0.187,0,0.278
	C5.352,107.468,3.798,107.999,3.411,107.364z"/>
<path fill-rule="evenodd" clip-rule="evenodd" fill="#333333" d="M6.198,107.364c0.372,0,0.744,0,1.115,0
	c-0.086,0.379-0.698,0.231-1.115,0.278C6.198,107.55,6.198,107.457,6.198,107.364z"/>
<path fill-rule="evenodd" clip-rule="evenodd" fill="#FFFFFF" d="M72.532,31.833c1.004-0.762,1.723-1.808,3.344-1.951
	c0.442-0.023,1.063,0.134,1.116-0.279c3.077-0.012,4.85,1.281,6.41,2.788c0.419,0.509,1.202,0.655,1.671,1.114
	c1.719,0.512,3.229,1.23,5.576,1.115c0.44-0.023,1.062,0.134,1.113-0.278c1.328,0.027,2.082-0.52,3.065-0.836
	c1.374-0.483,2.683-1.035,4.738-0.836c2.454,0.962,5.133,2.442,8.083,3.902c5.083,2.514,10.557,5.446,15.888,8.083
	c1.816,0.898,4.041,1.869,5.573,3.344c1.3,1.251,1.479,1.567,1.951,4.181c0.227,1.252,1.012,3.581,0.557,5.574
	c-0.264,1.164-1.191,1.878-1.951,2.23c-0.16,0.075-0.418,0.428-0.835,0.278c-1.859,0-3.717,0-5.573,0c-0.651,0-1.303,0-1.952,0
	c-0.465,0-0.929,0-1.394,0c-0.371,0-0.744,0-1.114,0c0.124-0.455-1.519-0.455-1.395,0c-0.453-0.199-0.453,1.314,0,1.115
	c0.052,1.898,0.559,3.343,0.557,5.296c0,0.65,0,1.301,0,1.95c0.034,1.891-0.608,3.106-1.392,4.182
	c-0.676,0.438-1.232,0.996-1.673,1.672c-0.227,0.053-0.278,0.279-0.558,0.278c-0.492,0.53-1.384,0.661-1.951,1.115
	c-0.673,0.534-2.239,0.176-3.344,0.278c-0.387-0.636-1.941-0.104-2.788-0.278c-0.371,0-0.743,0-1.114,0
	c-0.844-0.644-2.875-0.099-4.181-0.279c-0.465,0-0.93,0-1.395,0c-0.405,0.152-1.438-0.325-1.393,0.279c-0.092,0-0.187,0-0.278,0
	c-0.441,0.022-1.064-0.134-1.116,0.278c-9.182,0.944-16.047,4.205-22.018,8.362c-0.675,0.439-1.231,0.996-1.673,1.672
	c-1.001,1.413-1.957,2.874-2.229,5.018c-0.461,0.299-0.461,2.486,0,2.786c0.263,1.938,0.875,3.653,1.395,5.575
	c0.501,1.861,1.378,3.797,0.557,5.573c-0.759,1.646-3.623,1.952-6.131,2.508c-6.67,1.479-16.212,2.844-21.739,4.182
	c-1.033,0.184-2.222,0.378-2.509,0.557c-4.916,0.805-10.303,2.35-17.28,3.623c-2.583,0.472-5.434,0.748-8.919,1.395
	c-0.735,0.136-1.443,0.432-2.229,0.557c-1.979,0.315-4.606,1.262-6.132-0.278c-2.164-2.185,0.564-7.283,0.558-10.034
	c-0.086-0.378-0.698-0.23-1.115-0.278c-0.372,0-0.743,0-1.115,0c-0.929,0-1.858,0-2.787,0c-1.682-0.36-2.705-1.384-3.065-3.065
	c0-0.836,0-1.673,0-2.508c0-0.187,0-0.373,0-0.559c1.479-1.845,3.828-2.829,5.853-3.901c6.132-3.248,12.68-6.698,18.953-10.034
	c0.815-0.206,1.37-0.674,1.951-1.114c8.53-4.458,17.224-9.052,25.92-13.657c2.856-1.513,5.621-2.964,7.804-5.295
	C64.803,55.505,68.621,43.623,72.532,31.833z M76.712,32.391c-0.521,0.222-1.021,0.465-1.673,0.557
	c-2.788,9.2-6.022,18.285-8.918,27.036c-1.042,3.148-1.907,7.373-3.623,9.476c-0.546,0.669-0.848,0.976-1.393,1.394
	c-0.749,0.572-1.229,0.941-1.952,1.394c-0.768,0.48-1.389,0.77-1.951,1.114c-0.963,0.591-3.129,1.479-3.623,1.951
	c-0.589,0.563-1.105,0.543-1.672,0.836c-1.619,0.836-2.875,1.81-4.181,2.508c-0.794,0.426-1.521,0.742-2.23,1.116
	c-5.964,3.149-11.793,6.162-17.28,8.918c-0.554,0.004-0.354,0.761-1.115,0.558c0,0.186,0,0.372,0,0.558
	c-1.919,0.518-3.719,1.493-5.017,2.229c-2.621,1.485-4.477,2.571-7.525,4.182c-2.81,1.483-6.315,3.096-9.198,4.736
	c-1.295,0.739-2.539,1.333-2.509,2.23c0.044,1.273,1.812,1.9,3.066,1.673c0.372,0,0.743,0,1.114,0c0.651,0,1.301,0,1.952,0
	c1.136,0.164,1.786,0.814,1.951,1.951c0,0.649,0,1.3,0,1.951c-0.226,2.467-1.008,4.379-1.115,6.967
	c11.143-1.585,21.577-3.879,32.052-6.132c0.973-0.142,2.104-0.125,2.787-0.557c8.289-2.024,17.975-2.65,25.642-5.296
	c-0.27-3.818-2.047-6.129-2.229-10.033c0-0.651,0-1.301,0-1.951c0.154-3.098,1.211-5.292,2.786-6.968
	c0.861-0.626,1.604-1.369,2.229-2.229c2.793-2.715,6.483-4.285,10.313-5.854c3.803-1.557,8.056-2.883,12.82-3.345
	c0.372,0,0.743,0,1.115,0c0.371,0,0.744,0,1.114,0c0.404-0.152,1.44,0.327,1.395-0.278c0.185,0,0.37,0,0.557,0
	c1.393,0,2.787,0,4.182,0c1.696-0.21,2.526,0.445,4.179,0.278c0.124,0.46,2.107,0.46,2.229,0c0.095,0,0.187,0,0.281,0
	c0.364-0.283,1.025-0.273,1.392-0.557c0-0.094,0-0.187,0-0.279c0.281,0.001,0.333-0.226,0.558-0.278
	c0.492-0.252,0.863-0.623,1.115-1.115c0.407-0.613,0.848-1.197,0.836-2.229c0.461-0.302,0.461-2.487,0-2.788
	c0.036-1.616-0.525-2.634-0.557-4.18c0-0.744,0-1.487,0-2.231c-0.013-0.383,0.13-0.612,0.278-0.836
	c0.49-0.251,0.863-0.624,1.115-1.115c0.377-0.087,0.531-0.397,1.114-0.279c0.373,0,0.743,0,1.116,0c0.37,0,0.743,0,1.113,0
	c0.053,0.413,0.674,0.255,1.116,0.279c0.463,0,0.928,0,1.393,0c0.187,0,0.372,0,0.557,0c0.297,0.632,1.753,0.106,2.509,0.278
	c0.847-0.175,2.401,0.357,2.788-0.278c0.383,0.012,0.611-0.131,0.836-0.279c-0.002-0.28,0.226-0.332,0.278-0.558
	c0.452,0.199,0.452-1.314,0-1.115c-0.503-1.627-0.112-4.121-1.114-5.574c-0.467-0.675-1.997-1.268-3.346-1.951
	c-8.275-4.192-17.904-9.24-25.363-12.82c0.127-0.455-1.519-0.455-1.392,0c-2.008,0.5-3.372,1.646-5.854,1.672
	c-0.37,0-0.743,0-1.113,0c-0.373,0-0.744,0-1.116,0c-0.371,0-0.743,0-1.114,0c-2.081,0.037-3.119-0.969-5.017-1.115
	c-0.258-0.765-0.879-1.165-1.673-1.394c-1.027-0.924-2.071-1.83-3.624-2.229C78.231,31.936,76.586,31.936,76.712,32.391z"/>
<path fill-rule="evenodd" clip-rule="evenodd" fill="#333333" d="M117.96,66.672c0.461,0.037,0.461,1.912,0,1.95
	C117.96,67.973,117.96,67.323,117.96,66.672z"/>
<path fill-rule="evenodd" clip-rule="evenodd" fill="#333333" d="M100.403,73.083c0.754-0.463,3.426-0.463,4.182,0
	C103.19,73.083,101.795,73.083,100.403,73.083z"/>
<path fill-rule="evenodd" clip-rule="evenodd" fill="#797979" d="M106.255,75.87c0.847,0.175,2.401-0.357,2.788,0.278
	C108.196,75.973,106.642,76.505,106.255,75.87z"/>
<path fill-rule="evenodd" clip-rule="evenodd" fill="#797979" d="M83.402,32.391c1.411-0.119,0.936-2.827,2.509-1.952
	c1.109,0.878-0.617,1.876-0.838,3.066C84.604,33.046,83.821,32.9,83.402,32.391z"/>
<path fill-rule="evenodd" clip-rule="evenodd" fill="#333333" d="M115.174,66.115c0.461,0.301,0.461,2.486,0,2.788
	C115.174,67.973,115.174,67.043,115.174,66.115z"/>
<path fill-rule="evenodd" clip-rule="evenodd" fill="#797979" d="M111.274,73.361c0.084-1.115-1.796-2.252-0.56-2.786
	c1.082-0.736,1.641,1.031,1.951,1.95c0,0.093,0,0.186,0,0.279C112.299,73.087,111.638,73.078,111.274,73.361z"/>
<path fill-rule="evenodd" clip-rule="evenodd" fill="#797979" d="M70.859,91.2c0,0.928,0,1.856,0,2.786
	C70.398,93.686,70.398,91.499,70.859,91.2z"/>
</svg>
