<?xml version="1.0" encoding="utf-8"?>
<!-- Generator: Adobe Illustrator 15.0.0, SVG Export Plug-In  -->
<!DOCTYPE svg PUBLIC "-//W3C//DTD SVG 1.1//EN" "http://www.w3.org/Graphics/SVG/1.1/DTD/svg11.dtd" [
	<!ENTITY ns_flows "http://ns.adobe.com/Flows/1.0/">
]>
<svg version="1.1"
	 xmlns="http://www.w3.org/2000/svg" xmlns:xlink="http://www.w3.org/1999/xlink" xmlns:a="http://ns.adobe.com/AdobeSVGViewerExtensions/3.0/"
	 x="0px" y="0px" width="142px" height="142px" viewBox="-2.72 -11.49 142 142" enable-background="new -2.72 -11.49 142 142"
	 xml:space="preserve">
<defs>
</defs>
<path fill-rule="evenodd" clip-rule="evenodd" fill="#303030" d="M122.42,0.339c-0.198-0.452,1.314-0.452,1.116,0
	C123.164,0.339,122.793,0.339,122.42,0.339z"/>
<path fill-rule="evenodd" clip-rule="evenodd" fill="#303030" d="M72.253,16.504c0,0.372,0,0.743,0,1.115
	C71.8,17.818,71.8,16.305,72.253,16.504z"/>
<path fill-rule="evenodd" clip-rule="evenodd" fill="#6F6F6F" d="M126.044,55.245c0.465,0,0.928,0,1.395,0c0,0.836,0,1.672,0,2.509
	c-0.373,0-0.745,0-1.116,0c-0.023-0.441,0.135-1.063-0.278-1.115C126.044,56.174,126.044,55.709,126.044,55.245z"/>
<path fill-rule="evenodd" clip-rule="evenodd" fill="#303030" d="M126.044,56.639c0.413,0.051,0.255,0.673,0.278,1.115
	c-0.092,0-0.186,0-0.278,0C126.044,57.382,126.044,57.01,126.044,56.639z"/>
<path fill-rule="evenodd" clip-rule="evenodd" fill="#D5D5D5" d="M121.864,57.753c0.557,0,1.115,0,1.673,0c0,0.093,0,0.186,0,0.278
	C123.045,57.872,121.898,58.369,121.864,57.753z"/>
<path fill-rule="evenodd" clip-rule="evenodd" fill="#A3A3A3" d="M123.537,58.032c0-0.092,0-0.185,0-0.278c0.835,0,1.673,0,2.508,0
	c0.093,0,0.187,0,0.278,0c0,0.093,0,0.186,0,0.278C125.393,58.032,124.464,58.032,123.537,58.032z"/>
<path fill-rule="evenodd" clip-rule="evenodd" fill="#303030" d="M120.191,60.262c0.372,0,0.743,0,1.115,0c0,0.093,0,0.186,0,0.279
	C120.89,60.493,120.279,60.64,120.191,60.262z"/>
<path fill-rule="evenodd" clip-rule="evenodd" fill="#6F6F6F" d="M121.306,60.541c0-0.093,0-0.186,0-0.279c0.371,0,0.744,0,1.114,0
	c0,0.093,0,0.186,0,0.279C122.05,60.541,121.677,60.541,121.306,60.541z"/>
<path fill-rule="evenodd" clip-rule="evenodd" fill="#A3A3A3" d="M122.42,60.541c0-0.093,0-0.186,0-0.279c0.559,0,1.116,0,1.673,0
	c0,0.093,0,0.186,0,0.279C123.537,60.541,122.979,60.541,122.42,60.541z"/>
<path fill-rule="evenodd" clip-rule="evenodd" fill="#303030" d="M126.044,60.541c0.093,0,0.187,0,0.278,0c0,0.93,0,1.857,0,2.786
	C125.688,62.941,126.219,61.387,126.044,60.541z"/>
<path fill-rule="evenodd" clip-rule="evenodd" fill="#6F6F6F" d="M126.323,60.541c0.371,0,0.743,0,1.116,0c0,0.93,0,1.857,0,2.786
	c-0.373,0-0.745,0-1.116,0C126.323,62.398,126.323,61.47,126.323,60.541z"/>
<path fill-rule="evenodd" clip-rule="evenodd" fill="#303030" d="M127.439,60.541c0.092,0,0.185,0,0.278,0
	c-0.176,0.847,0.356,2.4-0.278,2.786C127.439,62.398,127.439,61.47,127.439,60.541z"/>
<path fill-rule="evenodd" clip-rule="evenodd" fill="#303030" d="M117.96,66.672c0.461,0.037,0.461,1.912,0,1.95
	C117.96,67.973,117.96,67.323,117.96,66.672z"/>
<path fill-rule="evenodd" clip-rule="evenodd" fill="#303030" d="M115.174,66.951c0.094,0,0.187,0,0.278,0
	c-0.152,0.405,0.326,1.44-0.278,1.394C115.174,67.879,115.174,67.416,115.174,66.951z"/>
<path fill-rule="evenodd" clip-rule="evenodd" fill="#303030" d="M100.681,73.083c0.571-0.463,3.052-0.463,3.625,0
	C103.097,73.083,101.889,73.083,100.681,73.083z"/>
<path fill-rule="evenodd" clip-rule="evenodd" fill="#A3A3A3" d="M99.008,75.87c0.053-0.413,0.676-0.256,1.116-0.279
	c0,0.094,0,0.187,0,0.279C99.751,75.87,99.381,75.87,99.008,75.87z"/>
<path fill-rule="evenodd" clip-rule="evenodd" fill="#6F6F6F" d="M100.125,75.87c0-0.093,0-0.186,0-0.279c0.371,0,0.743,0,1.114,0
	c0,0.094,0,0.187,0,0.279C100.868,75.87,100.496,75.87,100.125,75.87z"/>
<path fill-rule="evenodd" clip-rule="evenodd" fill="#303030" d="M101.239,75.87c0-0.093,0-0.186,0-0.279c0.93,0,1.858,0,2.786,0
	c0,0.094,0,0.187,0,0.279C103.097,75.87,102.168,75.87,101.239,75.87z"/>
<path fill-rule="evenodd" clip-rule="evenodd" fill="#303030" d="M68.073,91.756c0,0.557,0,1.115,0,1.672
	C67.615,93.474,67.615,91.71,68.073,91.756z"/>
<path fill-rule="evenodd" clip-rule="evenodd" fill="#303030" d="M72.532,15.389c0.252-0.492,0.623-0.863,1.116-1.115
	C73.395,14.766,73.023,15.138,72.532,15.389z"/>
<path fill-rule="evenodd" clip-rule="evenodd" fill="#6F6F6F" d="M51.628,73.361c0.407-0.678-0.708-1.763-1.114-2.508
	c0.418-0.326,0.682-0.806,1.394-0.837c0.597,0.611,0.766,1.65,1.394,2.23C53.077,72.952,52.153,72.958,51.628,73.361z"/>
<path fill-rule="evenodd" clip-rule="evenodd" fill="#6F6F6F" d="M39.644,112.938c0.683-0.432,1.814-0.415,2.787-0.558
	c-0.007,1.588,0.708,2.451,0.558,4.181c-0.88-0.136-0.984,0.502-1.951,0.279c-0.332-1.154-0.548-2.426-0.836-3.624
	C40.194,112.947,39.86,113,39.644,112.938z"/>
<path fill-rule="evenodd" clip-rule="evenodd" fill="#303030" d="M71.417,106.529c0.251-0.492,0.623-0.864,1.114-1.116
	C72.279,105.905,71.909,106.276,71.417,106.529z"/>
<path fill-rule="evenodd" clip-rule="evenodd" fill="#6F6F6F" d="M73.088,86.182c0.347-0.583,0.812-1.048,1.395-1.394
	C74.136,85.372,73.671,85.836,73.088,86.182z"/>
<path fill-rule="evenodd" clip-rule="evenodd" fill="#303030" d="M129.945,59.983c0.253-0.491,0.626-0.864,1.116-1.115
	C130.809,59.36,130.438,59.731,129.945,59.983z"/>
<path fill-rule="evenodd" clip-rule="evenodd" fill="#303030" d="M131.897,5.634c-0.365-0.099-0.438-0.491-0.836-0.557
	c-0.052-0.226-0.28-0.278-0.278-0.558c0-0.093,0-0.186,0-0.279c0.733-0.288,0.938-1.105,1.673-1.394
	c0.046-0.698-0.429-0.873-0.838-1.115c0.175-0.509,1.164,0.481,1.116,1.115c-0.733,0.289-0.939,1.105-1.673,1.394
	C130.929,5.116,131.81,4.978,131.897,5.634z"/>
<path fill-rule="evenodd" clip-rule="evenodd" fill="#6F6F6F" d="M130.783,4.52c-0.491-0.252-0.863-0.624-1.116-1.115
	c0.823-0.385,1.13-1.287,1.951-1.672c0.409,0.242,0.884,0.417,0.838,1.115c-0.735,0.289-0.939,1.105-1.673,1.394
	C130.783,4.333,130.783,4.427,130.783,4.52z"/>
<path fill-rule="evenodd" clip-rule="evenodd" fill="#D5D5D5" d="M131.061,5.077c0.398,0.066,0.471,0.458,0.836,0.557
	c0.054,0.226,0.28,0.278,0.278,0.558C131.684,5.94,131.314,5.568,131.061,5.077z"/>
<path fill-rule="evenodd" clip-rule="evenodd" fill="#303030" d="M60.826,71.131c0.44-0.675,0.997-1.232,1.672-1.672
	C62.059,70.134,61.501,70.692,60.826,71.131z"/>
<path fill-rule="evenodd" clip-rule="evenodd" fill="#D5D5D5" d="M71.137,84.232c0.583-0.347,1.048-0.812,1.395-1.395
	c0.092,0,0.187,0,0.278,0c-0.438,0.676-0.998,1.232-1.673,1.673C71.137,84.417,71.137,84.324,71.137,84.232z"/>
<path fill-rule="evenodd" clip-rule="evenodd" fill="#6F6F6F" d="M127.717,5.355c0.491,0.252,0.861,0.624,1.114,1.115
	c-0.946,0.354-1.056,1.546-2.229,1.672c-0.125-0.248-0.245-0.498-0.558-0.557c0-0.093,0-0.186,0-0.279
	c0.676-0.439,1.232-0.997,1.673-1.672C127.717,5.542,127.717,5.449,127.717,5.355z"/>
<path fill-rule="evenodd" clip-rule="evenodd" fill="#303030" d="M126.044,7.307c0.438-0.675,0.996-1.232,1.673-1.672
	C127.277,6.31,126.72,6.867,126.044,7.307z"/>
<path fill-rule="evenodd" clip-rule="evenodd" fill="#303030" d="M126.044,7.585c0.313,0.059,0.433,0.309,0.558,0.557
	c1.174-0.126,1.283-1.318,2.229-1.672c0.248,0.124,0.499,0.245,0.557,0.558C128.06,6.002,127.079,9.93,126.044,7.585z"/>
<path fill-rule="evenodd" clip-rule="evenodd" fill="#303030" d="M126.044,55.245c0.008-0.271,0.341-0.216,0.558-0.278
	c1.664-0.363,0.976,1.627,1.115,2.787c-0.094,0-0.187,0-0.278,0c0-0.836,0-1.673,0-2.509
	C126.972,55.245,126.509,55.245,126.044,55.245z"/>
<path fill-rule="evenodd" clip-rule="evenodd" fill="#303030" d="M113.223,72.247c0.252-0.491,0.625-0.863,1.115-1.115
	C114.086,71.624,113.715,71.995,113.223,72.247z"/>
<path fill-rule="evenodd" clip-rule="evenodd" fill="#303030" d="M71.137,84.232c0.347-0.584,0.812-1.048,1.395-1.395
	C72.185,83.42,71.72,83.885,71.137,84.232z"/>
<path fill-rule="evenodd" clip-rule="evenodd" fill="#6F6F6F" d="M136.913,13.996c0.461,0.124,0.461,2.106,0,2.23
	C136.913,15.482,136.913,14.739,136.913,13.996z"/>
<path fill-rule="evenodd" clip-rule="evenodd" fill="#6F6F6F" d="M75.04,16.783c0,0.372,0,0.744,0,1.115
	C74.587,18.097,74.587,16.583,75.04,16.783z"/>
<path fill-rule="evenodd" clip-rule="evenodd" fill="#6F6F6F" d="M77.548,22.636c0.461,0.212,0.461,2.296,0,2.508
	C77.548,24.308,77.548,23.472,77.548,22.636z"/>
<path fill-rule="evenodd" clip-rule="evenodd" fill="#A3A3A3" d="M123.258,25.98c0.465,0,0.927,0,1.392,0
	C124.777,26.436,123.131,26.436,123.258,25.98z"/>
<path fill-rule="evenodd" clip-rule="evenodd" fill="#6F6F6F" d="M128.832,55.524c0.454-0.126,0.454,1.519,0,1.393
	C128.832,56.453,128.832,55.988,128.832,55.524z"/>
<path fill-rule="evenodd" clip-rule="evenodd" fill="#6F6F6F" d="M119.077,57.475c0.667,0.17,2.021-0.35,2.229,0.279
	C120.639,57.583,119.285,58.103,119.077,57.475z"/>
<path fill-rule="evenodd" clip-rule="evenodd" fill="#D5D5D5" d="M127.439,57.753c0.092,0,0.185,0,0.278,0c0.093,0,0.185,0,0.278,0
	c-0.036,0.616-1.182,0.118-1.673,0.278c0-0.092,0-0.185,0-0.278C126.694,57.753,127.066,57.753,127.439,57.753z"/>
<path fill-rule="evenodd" clip-rule="evenodd" fill="#303030" d="M114.618,59.704c0,0.651,0,1.301,0,1.951
	C114.159,61.617,114.159,59.742,114.618,59.704z"/>
<path fill-rule="evenodd" clip-rule="evenodd" fill="#D5D5D5" d="M124.093,60.262c1.579,0,3.159,0,4.738,0
	c-0.086,0.378-0.697,0.231-1.114,0.279c-0.094,0-0.187,0-0.278,0c-0.373,0-0.745,0-1.116,0c-0.092,0-0.186,0-0.278,0
	c-0.651,0-1.3,0-1.951,0C124.093,60.448,124.093,60.355,124.093,60.262z"/>
<path fill-rule="evenodd" clip-rule="evenodd" fill="#6F6F6F" d="M115.174,65.836c0.379,0.086,0.232,0.697,0.278,1.114
	c-0.092,0-0.185,0-0.278,0C115.174,66.58,115.174,66.208,115.174,65.836z"/>
<path fill-rule="evenodd" clip-rule="evenodd" fill="#6F6F6F" d="M105.698,73.083c0.491,0.16,1.639-0.338,1.673,0.278
	C106.88,73.201,105.734,73.699,105.698,73.083z"/>
<path fill-rule="evenodd" clip-rule="evenodd" fill="#A3A3A3" d="M104.025,75.59c0.491,0.161,1.639-0.336,1.673,0.279
	c-0.557,0-1.113,0-1.673,0C104.025,75.777,104.025,75.684,104.025,75.59z"/>
<path fill-rule="evenodd" clip-rule="evenodd" fill="#6F6F6F" d="M95.665,76.148c0.121-0.622,1.375-0.112,1.952-0.278
	C97.497,76.493,96.242,75.983,95.665,76.148z"/>
<path fill-rule="evenodd" clip-rule="evenodd" fill="#6F6F6F" d="M106.536,75.87c0.577,0.166,1.831-0.344,1.949,0.278
	C107.908,75.983,106.654,76.493,106.536,75.87z"/>
<path fill-rule="evenodd" clip-rule="evenodd" fill="#6F6F6F" d="M70.859,91.2c0,1.021,0,2.042,0,3.064
	C70.398,93.874,70.398,91.589,70.859,91.2z"/>
<path fill-rule="evenodd" clip-rule="evenodd" fill="#6F6F6F" d="M0.346,101.791c0,0.835,0,1.672,0,2.508
	C-0.115,104.086-0.115,102.001,0.346,101.791z"/>
<path fill-rule="evenodd" clip-rule="evenodd" fill="#6F6F6F" d="M6.198,104.856c0.301-0.461,2.487-0.461,2.788,0
	C8.057,104.856,7.127,104.856,6.198,104.856z"/>
<path fill-rule="evenodd" clip-rule="evenodd" fill="#6F6F6F" d="M3.69,107.364c1.115,0,2.23,0,3.344,0
	C6.554,107.826,4.17,107.826,3.69,107.364z"/>
<path fill-rule="evenodd" clip-rule="evenodd" fill="#303030" d="M10.937,107.085c0.455-0.125,0.455,1.519,0,1.394
	C10.937,108.014,10.937,107.55,10.937,107.085z"/>
<path fill-rule="evenodd" clip-rule="evenodd" fill="#6F6F6F" d="M39.644,110.151c-0.209-1.191-1.128-3.135-0.557-4.181
	c0.657,0.006,0.82-0.48,1.672-0.278c0.543,1.036,0.755,2.403,0.836,3.901c0.186,0,0.372,0,0.557,0
	C41.601,110.064,40.413,109.898,39.644,110.151z"/>
<path fill-rule="evenodd" clip-rule="evenodd" fill="#6F6F6F" d="M9.822,115.725c0.372,0,0.743,0,1.115,0
	C11.136,116.177,9.622,116.177,9.822,115.725z"/>
<path fill-rule="evenodd" clip-rule="evenodd" fill="#FFFFFF" d="M73.648,14.274c6.793-2.769,15.584-5.04,23.409-7.246
	c6.81-1.919,13.453-4.021,20.347-5.853c1.528-0.406,2.687-1.047,5.017-0.836c0.373,0,0.743,0,1.116,0
	c3.268-0.201,4.514,1.617,6.13,3.066c0.253,0.491,0.625,0.863,1.116,1.115c-0.002,0.279,0.227,0.332,0.278,0.558
	c0.253,0.491,0.623,0.863,1.114,1.115c2.077,2.104,3.87,4.492,4.737,7.804c0,0.743,0,1.486,0,2.23
	c-0.466,2.296-1.094,4.771-2.229,6.688c-0.852,1.438-1.987,2.186-4.179,3.345c-1.641,0.867-3.128,1.868-4.738,2.23
	c-1.208,0-2.416,0-3.624,0c-5.345-1.437-11.386-2.921-17.558-4.181c-4.27-0.871-7.613-1.67-10.871,0.558
	c-0.717,0.49-1.7,1.254-1.951,2.229c0.373,1.563,1.571,1.93,3.065,2.787c8.144,4.666,17.173,8.575,26.2,13.378
	c1.408,0.75,3.328,1.625,5.017,2.508c3.552,1.859,4.618,3.038,5.295,7.804c0.271,1.902,0.655,4.124-0.278,5.296
	c-0.49,0.251-0.863,0.624-1.116,1.115c-0.246,0.216-0.629,0.299-1.113,0.278c-1.579,0-3.159,0-4.738,0c-0.557,0-1.114,0-1.673,0
	c-0.37,0-0.743,0-1.114,0c-0.372,0-0.743,0-1.115,0c-0.371,0-0.743,0-1.114,0c-0.068-0.403-2.294-0.648-1.951,0.279
	c0.393,1.93,0.848,3.797,0.835,6.132c0,0.65,0,1.301,0,1.95c0.177,2.323-1.02,3.875-2.508,5.297
	c-1.805,1.724-3.06,2.531-6.968,2.229c-0.118-0.622-1.372-0.112-1.949-0.278c-0.28,0-0.56,0-0.838,0
	c-0.034-0.615-1.182-0.118-1.673-0.279c-0.928,0-1.856,0-2.786,0c-0.371,0-0.743,0-1.114,0c-0.44,0.023-1.063-0.134-1.116,0.279
	c-0.465,0-0.927,0-1.392,0c-0.577,0.166-1.831-0.344-1.952,0.278c-8.484,1.457-15.479,4.402-21.182,8.641
	c-0.583,0.346-1.048,0.811-1.395,1.394c-0.894,1.521-1.913,2.916-2.229,5.018c-0.461,0.39-0.461,2.674,0,3.064
	c0.486,2.674,1.585,4.733,1.951,7.526c0,0.929,0,1.857,0,2.786c0.078,0.45-0.263,0.48-0.278,0.836
	c-0.491,0.252-0.863,0.624-1.114,1.116c-9.047,2.565-19.594,3.632-28.987,5.852c-0.973,0.143-2.104,0.126-2.787,0.558
	c-6.425,1.51-15.586,3.156-23.969,4.738c-2.915,0.55-7.595,2.112-8.361-1.115c0-0.836,0-1.672,0-2.508
	c-0.485-1.807,1.56-4.852,0.836-6.411c-0.16-0.344-0.642-0.256-1.115-0.278c-1.114,0-2.229,0-3.344,0
	c-1.878-0.259-3.016-1.258-3.344-3.065c0-0.836,0-1.673,0-2.508c0-0.187,0-0.373,0-0.559c1.428-2.103,4.018-2.772,6.132-3.901
	c1.575-0.842,2.948-1.837,4.738-2.787c0.321-0.171,0.554-0.115,0.836-0.279c4.005-2.318,9.18-4.857,13.657-7.246
	c8.608-4.593,17.158-9.414,25.92-13.657c0.525-0.403,1.449-0.409,1.673-1.114c1.093-0.406,2.494-1.308,3.902-2.23
	c0.611-0.399,1.375-0.626,1.951-1.113c1.705-1.448,2.394-4.102,3.345-6.968c1.668-5.031,3.84-10.925,5.575-16.167
	c1.728-5.221,3.445-10.932,5.294-16.444c0.691-2.055,1.731-4.334,1.673-5.575c-0.114-2.468-2.944-3.774-2.786-6.131
	c0-0.372,0-0.743,0-1.115c-0.118-0.583,0.19-0.738,0.278-1.115C73.023,15.138,73.395,14.766,73.648,14.274z M121.028,3.125
	c-2.079,0.364-3.862,1.093-5.854,1.673c-3.178,0.926-6.798,2.001-9.755,2.787c-0.49,0.13-0.884,0.41-1.395,0.557
	c-0.991,0.286-2.115,0.291-3.064,0.558c-0.974,0.273-1.842,0.843-2.787,1.115c-0.981,0.283-2.08,0.286-3.065,0.558
	c-0.421,0.116-0.709,0.442-1.116,0.557c-2.687,0.762-4.84,1.249-7.246,1.951c-3.824,1.116-7.635,2.165-11.148,3.623
	c-0.15,0.063-0.345,0.006-0.278,0.279c-0.093,0-0.185,0-0.279,0c-0.452-0.199-0.452,1.314,0,1.115
	c1.086,1.329,2.271,2.56,2.509,4.738c0,0.836,0,1.672,0,2.508c-0.854,3.656-2.13,7.25-3.344,10.87
	c-2.895,8.624-6.161,18.142-8.919,26.478c-0.821,2.479-1.387,5.563-2.787,6.968c-0.675,0.439-1.232,0.997-1.672,1.672
	c-1.8,1.451-3.94,2.563-6.132,3.623c-0.695,0.142-1.145,0.527-1.672,0.836c-7.101,4.064-15.037,7.992-22.019,11.706
	c-1.293,0.688-3.021,1.684-3.901,2.23c-0.891,0.554-1.765,0.717-2.508,1.114c-1.09,0.582-1.993,1.383-3.066,1.951
	c-0.957,0.507-2.121,0.814-2.787,1.115c-0.1,0.045-0.159,0.493-0.279,0.557c-1.083,0.582-2.257,1.099-3.345,1.672
	c-3.222,1.702-6.568,3.366-9.476,5.017c-0.987,0.562-2.523,0.842-2.788,2.23c0.387,1.286,1.448,1.896,3.345,1.673
	c0.929,0,1.858,0,2.788,0c1.189,0.204,1.928,0.859,1.951,2.229c0,0.465,0,0.929,0,1.394c-0.035,2.751-0.891,4.684-1.115,7.246
	c-0.2,0.452,1.314,0.452,1.115,0c9.596-1.831,19.154-3.699,28.707-5.574c0.769-0.253,1.958-0.087,2.508-0.558
	c4.5-1.126,9.386-1.918,14.215-2.786c4.813-0.866,9.654-1.586,13.936-3.066c-0.351-3.829-2.224-6.138-2.229-10.313
	c0-0.557,0-1.115,0-1.672c0.098-3.34,1.247-5.628,3.064-7.246c0.675-0.44,1.234-0.997,1.673-1.673
	c2.723-2.809,6.485-4.552,10.313-6.132c3.913-1.614,8.381-3.005,13.377-3.345c0.848-0.174,2.4,0.357,2.787-0.278
	c0.464,0,0.929,0,1.394,0c1.208,0,2.416,0,3.625,0c0.462,0,0.927,0,1.392,0c0.036,0.616,1.183,0.118,1.673,0.278
	c0.278,0,0.558,0,0.836,0c0.3,0.462,2.486,0.462,2.786,0c0.986-0.13,1.527-0.703,2.23-1.114c0.492-0.252,0.863-0.623,1.115-1.115
	c0.367-0.841,0.899-1.515,0.836-2.787c0.604,0.047,0.126-0.988,0.278-1.394c-0.046-0.417,0.101-1.028-0.278-1.114
	c-0.263-1.317-0.543-2.614-0.557-4.182c0-0.649,0-1.3,0-1.951c0.338-2.03,2.401-2.699,4.459-2.229
	c0.208,0.628,1.563,0.109,2.229,0.279c0.187,0,0.371,0,0.558,0c0.034,0.616,1.182,0.118,1.673,0.278c0.928,0,1.856,0,2.786,0
	c0.491-0.16,1.637,0.337,1.673-0.278c0.093,0,0.187,0,0.278,0c0.066-0.397,0.459-0.47,0.558-0.836c0.454,0.126,0.454-1.519,0-1.393
	c-0.433-1.704-0.517-3.756-1.114-5.296c-7.737-4.612-17.003-8.758-25.084-12.821c-1.669-0.838-3.442-1.661-5.017-2.508
	c-0.309-0.166-0.527-0.659-0.838-0.836c-2.895-1.655-7.006-2.477-7.524-6.132c0-0.65,0-1.301,0-1.951
	c0.102-1.354,1.216-2.301,2.229-3.066c1.452-1.095,3.502-2.123,5.573-2.229c1.024,0,2.046,0,3.067,0
	c8.471,1.006,15.711,3.243,23.134,5.295c-0.127,0.456,1.519,0.456,1.392,0c1.194-0.518,2.57-1.26,3.903-1.95
	c1.308-0.679,2.803-1.147,3.622-2.23c0.551-0.725,0.69-2.071,1.115-3.345c0.403-1.207,1.192-2.633,1.114-3.623
	c-0.092-1.172-1.286-2.465-1.671-3.066c-0.288-0.449-0.337-0.786-0.559-1.115c-0.878-1.299-1.863-2.462-2.787-3.623
	c-0.058-0.313-0.309-0.434-0.557-0.558c-0.253-0.491-0.623-0.863-1.114-1.115c-1.111-0.747-1.785-1.932-3.346-2.23
	C123.891,2.664,121.509,2.664,121.028,3.125z"/>
<path fill-rule="evenodd" clip-rule="evenodd" fill="#D5D5D5" d="M122.142,28.489c1.208,0,2.416,0,3.624,0
	C125.193,28.951,122.713,28.951,122.142,28.489z"/>
<path fill-rule="evenodd" clip-rule="evenodd" fill="#6F6F6F" d="M121.028,3.125c0.481-0.461,2.863-0.461,3.344,0
	C123.258,3.125,122.142,3.125,121.028,3.125z"/>
<path fill-rule="evenodd" clip-rule="evenodd" fill="#6F6F6F" d="M117.125,60.541c-0.343-0.927,1.883-0.682,1.951-0.279
	C118.335,60.265,117.484,60.157,117.125,60.541z"/>
<path fill-rule="evenodd" clip-rule="evenodd" fill="#6F6F6F" d="M96.5,73.361c0.387-0.635,1.941-0.104,2.787-0.278
	C98.901,73.718,97.348,73.187,96.5,73.361z"/>
<path fill-rule="evenodd" clip-rule="evenodd" fill="#6F6F6F" d="M108.207,73.361c0.93,0,1.859,0,2.786,0
	C110.693,73.823,108.506,73.823,108.207,73.361z"/>
<path fill-rule="evenodd" clip-rule="evenodd" fill="#6F6F6F" d="M53.022,75.59c0.527-0.309,0.977-0.694,1.672-0.836
	c-0.016,1.208,1.841,2.303,0.558,3.066C53.855,78.519,53.932,76.209,53.022,75.59z"/>
<path fill-rule="evenodd" clip-rule="evenodd" fill="#A3A3A3" d="M72.81,101.791c0.461,0.3,0.461,2.486,0,2.786
	C72.81,103.648,72.81,102.719,72.81,101.791z"/>
<path fill-rule="evenodd" clip-rule="evenodd" fill="#A3A3A3" d="M7.313,114.053c0,0.836,0,1.672,0,2.508
	C6.853,116.35,6.853,114.264,7.313,114.053z"/>
<path fill-rule="evenodd" clip-rule="evenodd" fill="#303030" d="M97.057,20.685c0.391-0.461,2.677-0.461,3.067,0
	C99.103,20.685,98.082,20.685,97.057,20.685z"/>
<path fill-rule="evenodd" clip-rule="evenodd" fill="#6F6F6F" d="M89.254,25.98c0,0.65,0,1.301,0,1.951
	C88.795,27.893,88.795,26.018,89.254,25.98z"/>
</svg>
