<?xml version="1.0" encoding="utf-8"?>
<!-- Generator: Adobe Illustrator 15.0.0, SVG Export Plug-In  -->
<!DOCTYPE svg PUBLIC "-//W3C//DTD SVG 1.1//EN" "http://www.w3.org/Graphics/SVG/1.1/DTD/svg11.dtd" [
	<!ENTITY ns_flows "http://ns.adobe.com/Flows/1.0/">
]>
<svg version="1.1"
	 xmlns="http://www.w3.org/2000/svg" xmlns:xlink="http://www.w3.org/1999/xlink" xmlns:a="http://ns.adobe.com/AdobeSVGViewerExtensions/3.0/"
	 x="0px" y="0px" width="142px" height="142px" viewBox="-2.72 -11.49 142 142" enable-background="new -2.72 -11.49 142 142"
	 xml:space="preserve">
<defs>
</defs>
<path fill-rule="evenodd" clip-rule="evenodd" fill="#303030" d="M122.42,0.339c-0.198-0.452,1.314-0.452,1.116,0
	C123.164,0.339,122.793,0.339,122.42,0.339z"/>
<path fill-rule="evenodd" clip-rule="evenodd" fill="#303030" d="M72.253,16.783c0,0.372,0,0.744,0,1.115
	C71.8,18.097,71.8,16.583,72.253,16.783z"/>
<path fill-rule="evenodd" clip-rule="evenodd" fill="#303030" d="M99.008,20.685c0-0.093,0-0.186,0-0.278
	c0.419,0.047,1.03-0.1,1.116,0.278C99.751,20.685,99.381,20.685,99.008,20.685z"/>
<path fill-rule="evenodd" clip-rule="evenodd" fill="#303030" d="M97.337,23.472c0.051-0.412,0.674-0.255,1.114-0.278
	C98.4,23.606,97.779,23.449,97.337,23.472z"/>
<path fill-rule="evenodd" clip-rule="evenodd" fill="#303030" d="M98.73,23.193c0.417,0.047,1.03-0.1,1.116,0.278
	C99.429,23.424,98.816,23.571,98.73,23.193z"/>
<path fill-rule="evenodd" clip-rule="evenodd" fill="#707070" d="M126.044,55.245c0.465,0,0.928,0,1.395,0c0,0.836,0,1.672,0,2.509
	c-0.373,0-0.745,0-1.116,0c-0.092,0-0.186,0-0.278,0C126.044,56.917,126.044,56.081,126.044,55.245z"/>
<path fill-rule="evenodd" clip-rule="evenodd" fill="#303030" d="M120.471,57.753c0-0.093,0-0.186,0-0.279
	c0.417,0.047,1.027-0.1,1.114,0.279C121.214,57.753,120.841,57.753,120.471,57.753z"/>
<path fill-rule="evenodd" clip-rule="evenodd" fill="#D4D4D4" d="M122.142,57.753c0.559,0,1.116,0,1.673,0c0,0.093,0,0.186,0,0.278
	C123.324,57.872,122.178,58.369,122.142,57.753z"/>
<path fill-rule="evenodd" clip-rule="evenodd" fill="#A3A3A3" d="M123.815,58.032c0-0.092,0-0.185,0-0.278c0.743,0,1.486,0,2.229,0
	c0.093,0,0.187,0,0.278,0c0,0.093,0,0.186,0,0.278C125.488,58.032,124.65,58.032,123.815,58.032z"/>
<path fill-rule="evenodd" clip-rule="evenodd" fill="#303030" d="M120.191,60.262c0.372,0,0.743,0,1.115,0c0,0.093,0,0.186,0,0.279
	C120.89,60.493,120.279,60.64,120.191,60.262z"/>
<path fill-rule="evenodd" clip-rule="evenodd" fill="#707070" d="M121.306,60.541c0-0.093,0-0.186,0-0.279c0.371,0,0.744,0,1.114,0
	c0,0.093,0,0.186,0,0.279C122.05,60.541,121.677,60.541,121.306,60.541z"/>
<path fill-rule="evenodd" clip-rule="evenodd" fill="#A3A3A3" d="M122.42,60.541c0-0.093,0-0.186,0-0.279c0.465,0,0.93,0,1.395,0
	c0,0.093,0,0.186,0,0.279C123.35,60.541,122.885,60.541,122.42,60.541z"/>
<path fill-rule="evenodd" clip-rule="evenodd" fill="#303030" d="M126.044,60.541c0.093,0,0.187,0,0.278,0c0,0.93,0,1.857,0,2.786
	C125.688,62.941,126.219,61.387,126.044,60.541z"/>
<path fill-rule="evenodd" clip-rule="evenodd" fill="#707070" d="M126.323,60.541c0.371,0,0.743,0,1.116,0c0,0.93,0,1.857,0,2.786
	c-0.373,0-0.745,0-1.116,0C126.323,62.398,126.323,61.47,126.323,60.541z"/>
<path fill-rule="evenodd" clip-rule="evenodd" fill="#303030" d="M127.439,60.541c0.092,0,0.185,0,0.278,0
	c-0.176,0.847,0.356,2.4-0.278,2.786C127.439,62.398,127.439,61.47,127.439,60.541z"/>
<path fill-rule="evenodd" clip-rule="evenodd" fill="#303030" d="M115.174,66.951c0.094,0,0.187,0,0.278,0
	c-0.152,0.405,0.326,1.44-0.278,1.394C115.174,67.879,115.174,67.416,115.174,66.951z"/>
<path fill-rule="evenodd" clip-rule="evenodd" fill="#303030" d="M117.96,66.951c0.457-0.126,0.457,1.519,0,1.394
	C117.96,67.879,117.96,67.416,117.96,66.951z"/>
<path fill-rule="evenodd" clip-rule="evenodd" fill="#303030" d="M100.681,73.083c0.571-0.463,3.052-0.463,3.625,0
	C103.097,73.083,101.889,73.083,100.681,73.083z"/>
<path fill-rule="evenodd" clip-rule="evenodd" fill="#707070" d="M99.846,75.87c0-0.093,0-0.186,0-0.279c0.37,0,0.743,0,1.114,0
	c0,0.094,0,0.187,0,0.279C100.589,75.87,100.216,75.87,99.846,75.87z"/>
<path fill-rule="evenodd" clip-rule="evenodd" fill="#303030" d="M100.96,75.87c0-0.093,0-0.186,0-0.279c1.115,0,2.229,0,3.346,0
	c0,0.094,0,0.187,0,0.279C103.19,75.87,102.076,75.87,100.96,75.87z"/>
<path fill-rule="evenodd" clip-rule="evenodd" fill="#303030" d="M68.073,91.756c0,0.557,0,1.115,0,1.672
	C67.615,93.474,67.615,91.71,68.073,91.756z"/>
<path fill-rule="evenodd" clip-rule="evenodd" fill="#303030" d="M70.859,93.428c-0.455,0.125-0.455-1.519,0-1.394
	C70.859,92.5,70.859,92.963,70.859,93.428z"/>
<path fill-rule="evenodd" clip-rule="evenodd" fill="#303030" d="M10.937,107.085c0.455-0.125,0.455,1.519,0,1.394
	C10.937,108.014,10.937,107.55,10.937,107.085z"/>
<path fill-rule="evenodd" clip-rule="evenodd" fill="#303030" d="M72.532,15.389c0.252-0.492,0.623-0.863,1.116-1.115
	C73.395,14.766,73.023,15.138,72.532,15.389z"/>
<path fill-rule="evenodd" clip-rule="evenodd" fill="#707070" d="M51.628,73.361c0.514-0.785-0.726-1.746-1.114-2.508
	c0.418-0.326,0.682-0.806,1.394-0.837c0.597,0.611,0.766,1.65,1.394,2.23C53.077,72.952,52.153,72.958,51.628,73.361z"/>
<path fill-rule="evenodd" clip-rule="evenodd" fill="#707070" d="M73.088,86.182c0.347-0.583,0.812-1.048,1.395-1.394
	C74.136,85.372,73.671,85.836,73.088,86.182z"/>
<path fill-rule="evenodd" clip-rule="evenodd" fill="#303030" d="M114.896,74.476c0.44-0.676,0.997-1.233,1.673-1.672
	C116.127,73.479,115.571,74.037,114.896,74.476z"/>
<path fill-rule="evenodd" clip-rule="evenodd" fill="#303030" d="M129.945,59.983c0.253-0.491,0.626-0.864,1.116-1.115
	C130.809,59.36,130.438,59.731,129.945,59.983z"/>
<path fill-rule="evenodd" clip-rule="evenodd" fill="#303030" d="M131.897,5.634c-0.365-0.099-0.438-0.491-0.836-0.557
	c-0.052-0.226-0.28-0.278-0.278-0.558c0-0.093,0-0.186,0-0.279c0.675-0.439,1.232-0.997,1.673-1.672
	c-0.72-1.781-1.557,0.452-2.511,0.836c0.387-0.823,1.289-1.128,1.673-1.951c0.569,0.083,0.547,0.754,1.116,0.836
	c-0.128,1.174-1.318,1.283-1.673,2.23C131.143,5.087,131.814,5.066,131.897,5.634z"/>
<path fill-rule="evenodd" clip-rule="evenodd" fill="#707070" d="M130.783,4.52c-0.491-0.252-0.863-0.624-1.116-1.115
	c0.095,0,0.187,0,0.278,0c0.954-0.384,1.791-2.617,2.511-0.836c-0.44,0.675-0.998,1.232-1.673,1.672
	C130.783,4.333,130.783,4.427,130.783,4.52z"/>
<path fill-rule="evenodd" clip-rule="evenodd" fill="#D4D4D4" d="M131.061,5.077c0.398,0.066,0.471,0.458,0.836,0.557
	c0.054,0.226,0.28,0.278,0.278,0.558C131.684,5.94,131.314,5.568,131.061,5.077z"/>
<path fill-rule="evenodd" clip-rule="evenodd" fill="#303030" d="M61.105,70.853c0.439-0.676,0.997-1.232,1.672-1.672
	C62.337,69.856,61.78,70.413,61.105,70.853z"/>
<path fill-rule="evenodd" clip-rule="evenodd" fill="#D4D4D4" d="M71.137,84.232c0.649-0.189,0.747-0.927,1.395-1.116
	c-0.347,0.584-0.812,1.048-1.395,1.395C71.137,84.417,71.137,84.324,71.137,84.232z"/>
<path fill-rule="evenodd" clip-rule="evenodd" fill="#707070" d="M90.091,29.882c0.491,0.252,0.861,0.624,1.114,1.115
	C90.714,30.746,90.342,30.374,90.091,29.882z"/>
<path fill-rule="evenodd" clip-rule="evenodd" fill="#707070" d="M127.717,5.355c0.491,0.252,0.861,0.624,1.114,1.115
	c-0.946,0.354-1.056,1.546-2.229,1.672c-0.125-0.248-0.245-0.498-0.558-0.557c0.385-0.823,1.286-1.128,1.673-1.951
	C127.717,5.542,127.717,5.449,127.717,5.355z"/>
<path fill-rule="evenodd" clip-rule="evenodd" fill="#303030" d="M129.388,7.028c-1.393-1.012-1.991,2.6-3.344,0.836
	c-0.515-0.86,1.068-1.604,1.673-2.23c-0.387,0.823-1.288,1.128-1.673,1.951c0.313,0.059,0.433,0.309,0.558,0.557
	c1.174-0.126,1.283-1.318,2.229-1.672C129.08,6.594,129.331,6.715,129.388,7.028z"/>
<path fill-rule="evenodd" clip-rule="evenodd" fill="#303030" d="M126.044,55.245c0.008-0.271,0.341-0.216,0.558-0.278
	c1.664-0.363,0.976,1.627,1.115,2.787c-0.094,0-0.187,0-0.278,0c0-0.836,0-1.673,0-2.509
	C126.972,55.245,126.509,55.245,126.044,55.245z"/>
<path fill-rule="evenodd" clip-rule="evenodd" fill="#303030" d="M113.223,72.247c0.252-0.491,0.625-0.863,1.115-1.115
	C114.086,71.624,113.715,71.995,113.223,72.247z"/>
<path fill-rule="evenodd" clip-rule="evenodd" fill="#303030" d="M71.137,84.232c0.347-0.584,0.812-1.048,1.395-1.395
	c0,0.093,0,0.187,0,0.278C71.884,83.305,71.787,84.042,71.137,84.232z"/>
<path fill-rule="evenodd" clip-rule="evenodd" fill="#707070" d="M121.028,3.125c0.481-0.461,2.863-0.461,3.344,0
	C123.258,3.125,122.142,3.125,121.028,3.125z"/>
<path fill-rule="evenodd" clip-rule="evenodd" fill="#707070" d="M136.913,13.996c0.461,0.124,0.461,2.106,0,2.23
	C136.913,15.482,136.913,14.739,136.913,13.996z"/>
<path fill-rule="evenodd" clip-rule="evenodd" fill="#707070" d="M77.548,22.636c0.461,0.212,0.461,2.296,0,2.508
	C77.548,24.308,77.548,23.472,77.548,22.636z"/>
<path fill-rule="evenodd" clip-rule="evenodd" fill="#A3A3A3" d="M123.258,25.98c0.465,0,0.927,0,1.392,0
	C124.777,26.436,123.131,26.436,123.258,25.98z"/>
<path fill-rule="evenodd" clip-rule="evenodd" fill="#707070" d="M128.832,55.524c0.454-0.126,0.454,1.519,0,1.393
	C128.832,56.453,128.832,55.988,128.832,55.524z"/>
<path fill-rule="evenodd" clip-rule="evenodd" fill="#707070" d="M119.077,57.475c0.465,0,0.93,0,1.395,0c0,0.093,0,0.186,0,0.279
	C120.065,57.601,119.029,58.079,119.077,57.475z"/>
<path fill-rule="evenodd" clip-rule="evenodd" fill="#D4D4D4" d="M127.439,57.753c0.092,0,0.185,0,0.278,0c0.093,0,0.185,0,0.278,0
	c-0.036,0.616-1.182,0.118-1.673,0.278c0-0.092,0-0.185,0-0.278C126.694,57.753,127.066,57.753,127.439,57.753z"/>
<path fill-rule="evenodd" clip-rule="evenodd" fill="#707070" d="M117.125,60.541c-0.11-0.694,1.741-0.825,1.951-0.279
	C118.335,60.265,117.484,60.157,117.125,60.541z"/>
<path fill-rule="evenodd" clip-rule="evenodd" fill="#303030" d="M114.618,59.704c0,0.651,0,1.301,0,1.951
	C114.159,61.617,114.159,59.742,114.618,59.704z"/>
<path fill-rule="evenodd" clip-rule="evenodd" fill="#D4D4D4" d="M123.815,60.262c1.765,0,3.53,0,5.295,0
	c0.048,0.605-0.987,0.126-1.393,0.279c-0.094,0-0.187,0-0.278,0c-0.373,0-0.745,0-1.116,0c-0.092,0-0.186,0-0.278,0
	c-0.743,0-1.486,0-2.229,0C123.815,60.448,123.815,60.355,123.815,60.262z"/>
<path fill-rule="evenodd" clip-rule="evenodd" fill="#707070" d="M115.174,65.836c0.379,0.086,0.232,0.697,0.278,1.114
	c-0.092,0-0.185,0-0.278,0C115.174,66.58,115.174,66.208,115.174,65.836z"/>
<path fill-rule="evenodd" clip-rule="evenodd" fill="#707070" d="M105.698,73.083c0.491,0.16,1.639-0.338,1.673,0.278
	C106.88,73.201,105.734,73.699,105.698,73.083z"/>
<path fill-rule="evenodd" clip-rule="evenodd" fill="#D4D4D4" d="M97.895,75.87c0.12-0.623,1.372-0.112,1.951-0.279
	c0,0.094,0,0.187,0,0.279C99.195,75.87,98.543,75.87,97.895,75.87z"/>
<path fill-rule="evenodd" clip-rule="evenodd" fill="#707070" d="M104.306,75.59c0.404,0.152,1.44-0.325,1.392,0.279
	c-0.465,0-0.93,0-1.392,0C104.306,75.777,104.306,75.684,104.306,75.59z"/>
<path fill-rule="evenodd" clip-rule="evenodd" fill="#707070" d="M95.665,76.148c0.121-0.622,1.375-0.112,1.952-0.278
	C97.497,76.493,96.242,75.983,95.665,76.148z"/>
<path fill-rule="evenodd" clip-rule="evenodd" fill="#707070" d="M106.536,75.87c0.577,0.166,1.831-0.344,1.949,0.278
	C107.908,75.983,106.654,76.493,106.536,75.87z"/>
<path fill-rule="evenodd" clip-rule="evenodd" fill="#707070" d="M0.346,101.791c0,0.835,0,1.672,0,2.508
	C-0.115,104.086-0.115,102.001,0.346,101.791z"/>
<path fill-rule="evenodd" clip-rule="evenodd" fill="#707070" d="M3.69,107.364c1.115,0,2.23,0,3.344,0
	C6.554,107.826,4.17,107.826,3.69,107.364z"/>
<path fill-rule="evenodd" clip-rule="evenodd" fill="#707070" d="M49.12,108.201c-0.11-1.293-1.072-3.191-0.558-4.182
	c0.657,0.006,0.821-0.479,1.673-0.278c0.958,0.808,0.274,3.256,1.393,3.901C51.077,108.114,49.889,107.947,49.12,108.201z"/>
<path fill-rule="evenodd" clip-rule="evenodd" fill="#707070" d="M7.313,114.053c0,0.836,0,1.672,0,2.508
	C6.853,116.35,6.853,114.264,7.313,114.053z"/>
<path fill-rule="evenodd" clip-rule="evenodd" fill="#707070" d="M9.822,115.725c0.372,0,0.743,0,1.115,0
	C11.136,116.177,9.622,116.177,9.822,115.725z"/>
<path fill-rule="evenodd" clip-rule="evenodd" fill="#FFFFFF" d="M73.648,14.274c6.806-2.747,15.582-5.039,23.409-7.246
	c5.893-1.66,11.636-3.317,17.561-5.017c2.714-0.779,4.373-1.775,7.803-1.672c0.373,0,0.743,0,1.116,0
	c3.268-0.201,4.514,1.617,6.13,3.066c0.253,0.491,0.625,0.863,1.116,1.115c-0.002,0.279,0.227,0.332,0.278,0.558
	c0.253,0.491,0.623,0.863,1.114,1.115c2.077,2.104,3.87,4.492,4.737,7.804c0,0.743,0,1.486,0,2.23
	c-0.466,2.296-1.094,4.771-2.229,6.688c-0.852,1.438-1.987,2.186-4.179,3.345c-1.641,0.867-3.128,1.868-4.738,2.23
	c-1.116,0-2.229,0-3.346,0c-7.555-1.642-14.387-4.008-22.574-5.017c-0.086-0.378-0.699-0.231-1.116-0.278c-0.092,0-0.187,0-0.278,0
	c-0.44,0.023-1.063-0.134-1.114,0.278c-2.544,0.522-4.539,1.593-5.575,3.624c0.653,1.783,2.555,2.754,4.182,3.623
	c1.626,0.87,3.365,1.673,5.017,2.509c6.563,3.324,12.928,6.263,20.067,10.033c1.408,0.744,3.33,1.625,5.017,2.508
	c3.552,1.859,4.618,3.038,5.295,7.804c0.271,1.902,0.655,4.124-0.278,5.296c-0.49,0.251-0.863,0.624-1.116,1.115
	c-0.222,0.147-0.45,0.291-0.835,0.278c-1.765,0-3.53,0-5.295,0c-0.465,0-0.93,0-1.395,0c-0.37,0-0.743,0-1.114,0
	c-0.372,0-0.743,0-1.115,0c-0.371,0-0.743,0-1.114,0c-0.21-0.546-2.062-0.416-1.951,0.279c0.404,2.011,0.888,3.943,0.835,6.41
	c0,0.465,0,0.929,0,1.394c0.187,2.138-0.606,3.295-1.392,4.46c-0.676,0.438-1.232,0.996-1.673,1.672
	c-1.316,1.377-3.466,1.923-6.411,1.672c-0.118-0.622-1.372-0.112-1.949-0.278c-0.28,0-0.56,0-0.838,0
	c0.049-0.604-0.987-0.127-1.392-0.279c-1.116,0-2.23,0-3.346,0c-0.371,0-0.744,0-1.114,0c-0.579,0.167-1.831-0.344-1.951,0.279
	c-0.095,0-0.187,0-0.278,0c-0.577,0.166-1.831-0.344-1.952,0.278c-8.47,1.472-15.528,4.354-21.182,8.641
	c-0.583,0.346-1.048,0.811-1.395,1.394c-0.955,1.738-2.242,3.146-2.229,5.853c-0.455-0.125-0.455,1.519,0,1.394
	c0.15,3.288,1.616,5.258,1.951,8.362c0,0.929,0,1.857,0,2.786c-0.118,2.244-2.497,2.207-5.017,2.787
	c-0.836,0.192-1.698,0.677-2.508,0.837c-4.245,0.836-10.072,1.492-13.378,2.229c-0.973,0.141-2.104,0.125-2.787,0.557
	c-5.884,1.375-12.817,2.634-20.625,4.182c-4.149,0.822-10.282,2.342-15.608,3.064c-2.892,0.395-4.833,0.688-5.574-1.672
	c0-0.836,0-1.672,0-2.508c-0.485-1.807,1.56-4.852,0.836-6.411c-0.16-0.344-0.642-0.256-1.115-0.278c-1.114,0-2.229,0-3.344,0
	c-1.878-0.259-3.016-1.258-3.344-3.065c0-0.836,0-1.673,0-2.508c0-0.187,0-0.373,0-0.559c1.428-2.103,4.018-2.772,6.132-3.901
	c1.575-0.842,2.948-1.837,4.738-2.787c0.321-0.171,0.554-0.115,0.836-0.279c4.005-2.318,9.18-4.857,13.657-7.246
	c8.608-4.593,17.158-9.414,25.92-13.657c0.525-0.403,1.449-0.409,1.673-1.114c1.109-0.421,2.442-1.273,3.902-2.23
	c0.595-0.389,1.351-0.605,1.951-1.113c1.682-1.428,2.405-4.135,3.345-6.968c1.677-5.06,3.855-10.972,5.575-16.167
	c1.744-5.27,3.427-10.877,5.294-16.444c0.706-2.099,1.729-4.392,1.673-5.575c-0.107-2.33-2.782-3.796-2.786-5.852
	c0-0.372,0-0.744,0-1.115c-0.091-0.646,0.044-1.07,0.278-1.394C73.023,15.138,73.395,14.766,73.648,14.274z M121.028,3.125
	c-4.022,0.917-7.783,2.156-11.706,3.345C97.787,9.967,85.979,12.689,75.04,16.783c0.169,2.62,2.475,3.1,2.509,5.853
	c0,0.836,0,1.672,0,2.508c-0.869,3.703-2.156,7.328-3.344,10.87c-3.6,10.721-7.061,21.312-10.592,32.052
	c-0.572,0.077-0.556,0.744-0.836,1.115c-0.675,0.439-1.233,0.996-1.672,1.672c-1.817,1.62-4.099,2.775-6.411,3.901
	c-0.695,0.142-1.145,0.527-1.672,0.836c-7.101,4.064-15.037,7.992-22.019,11.706c-1.293,0.688-3.021,1.684-3.901,2.23
	c-0.891,0.554-1.765,0.717-2.508,1.114c-1.09,0.582-1.993,1.383-3.066,1.951c-0.957,0.507-2.121,0.814-2.787,1.115
	c-0.1,0.045-0.159,0.493-0.279,0.557c-1.083,0.582-2.257,1.099-3.345,1.672c-3.222,1.702-6.568,3.366-9.476,5.017
	c-0.987,0.562-2.523,0.842-2.788,2.23c0.387,1.286,1.448,1.896,3.345,1.673c0.929,0,1.858,0,2.788,0
	c1.344,0.05,1.833,0.954,1.951,2.229c0,0.465,0,0.929,0,1.394c-0.035,2.751-0.891,4.684-1.115,7.246c-0.2,0.452,1.314,0.452,1.115,0
	c12.886-2.35,25.417-5.055,38.184-7.524c0.769-0.254,1.957-0.087,2.508-0.559c6.13-1.395,13.148-1.902,18.674-3.901
	c-0.351-3.829-2.224-6.138-2.229-10.313c0-0.557,0-1.115,0-1.672c0.098-3.34,1.247-5.628,3.064-7.246
	c0.583-0.347,1.048-0.811,1.395-1.395c0-0.092,0-0.186,0-0.278c6.229-4.921,13.897-8.399,23.969-9.477
	c0.848-0.174,2.4,0.357,2.787-0.278c0.464,0,0.929,0,1.394,0c1.208,0,2.416,0,3.625,0c0.462,0,0.927,0,1.392,0
	c0.036,0.616,1.183,0.118,1.673,0.278c0.278,0,0.558,0,0.836,0c0.3,0.462,2.486,0.462,2.786,0c0.986-0.13,1.527-0.703,2.23-1.114
	c0.492-0.252,0.863-0.623,1.115-1.115c0.367-0.841,0.899-1.515,0.836-2.787c0.604,0.047,0.126-0.988,0.278-1.394
	c-0.046-0.417,0.101-1.028-0.278-1.114c-0.263-1.317-0.543-2.614-0.557-4.182c0-0.649,0-1.3,0-1.951
	c0.378-1.992,2.317-2.783,4.459-2.229c-0.048,0.604,0.988,0.126,1.395,0.279c0.37,0,0.743,0,1.114,0c0.186,0,0.37,0,0.557,0
	c0.036,0.616,1.182,0.118,1.673,0.278c0.835,0,1.673,0,2.508,0c0.491-0.16,1.637,0.337,1.673-0.278c0.093,0,0.187,0,0.278,0
	c0.066-0.397,0.459-0.47,0.558-0.836c0.454,0.126,0.454-1.519,0-1.393c-0.433-1.704-0.517-3.756-1.114-5.296
	c-5.802-3.548-12.221-6.371-18.396-9.477c-3.104-1.561-6.176-3.207-9.197-4.738c-3.109-1.575-6.141-3.085-8.919-5.017
	c-0.253-0.491-0.623-0.863-1.114-1.115c-0.452-0.477-0.846-1.015-0.837-1.951c0-0.65,0-1.301,0-1.951
	c-0.261-0.954,0.625-1.403,1.115-1.95c0.908-1.015,1.758-1.698,2.787-2.23c1.112-0.575,2.49-1.127,3.9-1.115
	c0.651,0,1.303,0,1.951,0c0.373,0,0.743,0,1.116,0c8.473,1.003,15.709,3.243,23.134,5.295c-0.127,0.456,1.519,0.456,1.392,0
	c1.194-0.518,2.57-1.26,3.903-1.95c1.308-0.679,2.803-1.147,3.622-2.23c0.555-0.73,0.683-2.049,1.115-3.345
	c0.401-1.206,1.194-2.635,1.114-3.623c-0.03-0.378-0.442-0.566-0.557-0.836c-0.209-0.5-0.103-1.06-0.278-1.394
	c-0.11-0.208-0.708-0.634-0.836-0.836c-0.301-0.469-0.343-0.797-0.559-1.115c-0.878-1.299-1.863-2.462-2.787-3.623
	c-0.058-0.313-0.309-0.434-0.557-0.558c-0.253-0.491-0.623-0.863-1.114-1.115c-1.111-0.747-1.785-1.932-3.346-2.23
	C123.891,2.664,121.509,2.664,121.028,3.125z"/>
<path fill-rule="evenodd" clip-rule="evenodd" fill="#D4D4D4" d="M122.42,28.489c1.116,0,2.229,0,3.346,0
	C125.286,28.951,122.901,28.951,122.42,28.489z"/>
<path fill-rule="evenodd" clip-rule="evenodd" fill="#707070" d="M96.5,73.361c0.387-0.635,1.941-0.104,2.787-0.278
	C98.901,73.718,97.348,73.187,96.5,73.361z"/>
<path fill-rule="evenodd" clip-rule="evenodd" fill="#707070" d="M108.207,73.361c0.93,0,1.859,0,2.786,0
	C110.693,73.823,108.506,73.823,108.207,73.361z"/>
<path fill-rule="evenodd" clip-rule="evenodd" fill="#707070" d="M53.022,75.59c0.527-0.309,0.977-0.694,1.672-0.836
	c-0.016,1.208,1.841,2.303,0.558,3.066C53.669,77.916,53.909,76.191,53.022,75.59z"/>
<path fill-rule="evenodd" clip-rule="evenodd" fill="#A3A3A3" d="M72.81,101.791c0.461,0.3,0.461,2.486,0,2.786
	C72.81,103.648,72.81,102.719,72.81,101.791z"/>
<path fill-rule="evenodd" clip-rule="evenodd" fill="#707070" d="M49.12,110.987c0.683-0.432,1.814-0.416,2.787-0.557
	c0.032,1.547,0.593,2.565,0.557,4.18c-0.88-0.136-0.984,0.503-1.951,0.279c-0.451-1.035-0.467-2.506-0.836-3.623
	C49.67,110.995,49.336,111.049,49.12,110.987z"/>
<path fill-rule="evenodd" clip-rule="evenodd" fill="#707070" d="M97.057,20.685c0.12-0.623,1.375-0.113,1.951-0.278
	c0,0.093,0,0.186,0,0.278C98.36,20.685,97.708,20.685,97.057,20.685z"/>
<path fill-rule="evenodd" clip-rule="evenodd" fill="#707070" d="M89.254,25.98c0,0.65,0,1.301,0,1.951
	C88.795,27.893,88.795,26.018,89.254,25.98z"/>
<path fill-rule="evenodd" clip-rule="evenodd" fill="#707070" d="M6.198,104.856c0.301-0.461,2.487-0.461,2.788,0
	C8.057,104.856,7.127,104.856,6.198,104.856z"/>
</svg>
