<?xml version="1.0" encoding="utf-8"?>
<!-- Generator: Adobe Illustrator 15.0.0, SVG Export Plug-In  -->
<!DOCTYPE svg PUBLIC "-//W3C//DTD SVG 1.1//EN" "http://www.w3.org/Graphics/SVG/1.1/DTD/svg11.dtd" [
	<!ENTITY ns_flows "http://ns.adobe.com/Flows/1.0/">
]>
<svg version="1.1"
	 xmlns="http://www.w3.org/2000/svg" xmlns:xlink="http://www.w3.org/1999/xlink" xmlns:a="http://ns.adobe.com/AdobeSVGViewerExtensions/3.0/"
	 x="0px" y="0px" width="142px" height="142px" viewBox="-12.147 -2.284 142 142" enable-background="new -12.147 -2.284 142 142"
	 xml:space="preserve">
<defs>
</defs>
<path fill-rule="evenodd" clip-rule="evenodd" fill="#D5D5D5" d="M7.919,2.855c-0.045-0.457,1.718-0.457,1.672,0
	C9.035,2.855,8.477,2.855,7.919,2.855z"/>
<path fill-rule="evenodd" clip-rule="evenodd" fill="#343434" d="M41.365,8.43c0,0.557,0,1.115,0,1.672
	C40.907,10.147,40.907,8.384,41.365,8.43z"/>
<path fill-rule="evenodd" clip-rule="evenodd" fill="#717171" d="M13.494,20.693c0.093,0,0.186,0,0.279,0
	c0.082,0.568,0.754,0.546,0.836,1.115c-0.397,0.067-0.47,0.459-0.836,0.557c-0.657,0.086-0.518,0.968-1.393,0.836
	c-0.059-0.313-0.31-0.434-0.558-0.558c0.289-0.733,1.105-0.938,1.394-1.672C13.385,20.956,13.545,20.93,13.494,20.693z"/>
<path fill-rule="evenodd" clip-rule="evenodd" fill="#343434" d="M77.876,36.858c0.452-0.199,0.452,1.315,0,1.115
	C77.876,37.601,77.876,37.23,77.876,36.858z"/>
<path fill-rule="evenodd" clip-rule="evenodd" fill="#343434" d="M57.809,37.973c0-0.092,0-0.185,0-0.278
	c0.417,0.047,1.029-0.1,1.115,0.278C58.552,37.973,58.181,37.973,57.809,37.973z"/>
<path fill-rule="evenodd" clip-rule="evenodd" fill="#D5D5D5" d="M59.481,37.973c0.464,0,0.929,0,1.394,0c0,0.093,0,0.186,0,0.279
	C60.47,38.099,59.435,38.577,59.481,37.973z"/>
<path fill-rule="evenodd" clip-rule="evenodd" fill="#A7A7A7" d="M60.875,38.252c0-0.093,0-0.186,0-0.279c0.372,0,0.743,0,1.115,0
	c0,0.093,0,0.186,0,0.279C61.618,38.252,61.247,38.252,60.875,38.252z"/>
<path fill-rule="evenodd" clip-rule="evenodd" fill="#717171" d="M61.99,38.252c0-0.093,0-0.186,0-0.279c0.371,0,0.743,0,1.114,0
	c0,0.093,0,0.186,0,0.279C62.733,38.252,62.361,38.252,61.99,38.252z"/>
<path fill-rule="evenodd" clip-rule="evenodd" fill="#343434" d="M63.104,38.252c0-0.093,0-0.186,0-0.279
	c0.404,0.153,1.44-0.325,1.395,0.279C64.034,38.252,63.569,38.252,63.104,38.252z"/>
<path fill-rule="evenodd" clip-rule="evenodd" fill="#343434" d="M57.53,40.481c0.372,0,0.744,0,1.116,0c0,0.093,0,0.186,0,0.279
	C58.228,40.713,57.617,40.86,57.53,40.481z"/>
<path fill-rule="evenodd" clip-rule="evenodd" fill="#717171" d="M58.646,40.76c0-0.093,0-0.186,0-0.279c0.371,0,0.743,0,1.115,0
	c0,0.093,0,0.186,0,0.279C59.389,40.76,59.017,40.76,58.646,40.76z"/>
<path fill-rule="evenodd" clip-rule="evenodd" fill="#A7A7A7" d="M59.76,40.76c0-0.093,0-0.186,0-0.279c0.463,0,0.928,0,1.393,0
	c0,0.093,0,0.186,0,0.279C60.688,40.76,60.224,40.76,59.76,40.76z"/>
<path fill-rule="evenodd" clip-rule="evenodd" fill="#D5D5D5" d="M61.153,40.76c0-0.093,0-0.186,0-0.279
	c0.442,0.023,1.063-0.134,1.115,0.279C61.896,40.76,61.525,40.76,61.153,40.76z"/>
<path fill-rule="evenodd" clip-rule="evenodd" fill="#343434" d="M62.826,40.76c0.465,0,0.93,0,1.395,0c0,0.093,0,0.186,0,0.279
	C63.813,40.886,62.778,41.365,62.826,40.76z"/>
<path fill-rule="evenodd" clip-rule="evenodd" fill="#343434" d="M72.023,42.433c0.465,0,0.93,0,1.395,0
	C73.542,42.888,71.897,42.888,72.023,42.433z"/>
<path fill-rule="evenodd" clip-rule="evenodd" fill="#A7A7A7" d="M70.351,64.729c0.647,1.768,0.097,4.736,0.278,6.968
	c-0.092,0-0.184,0-0.278,0C70.351,69.375,70.351,67.052,70.351,64.729z"/>
<path fill-rule="evenodd" clip-rule="evenodd" fill="#D5D5D5" d="M70.351,71.697c0.095,0,0.187,0,0.278,0
	c-0.184,3.067,0.371,6.873-0.278,9.476C70.351,78.015,70.351,74.855,70.351,71.697z"/>
<path fill-rule="evenodd" clip-rule="evenodd" fill="#343434" d="M70.351,85.911c0,0.372,0,0.743,0,1.115
	C69.898,87.226,69.898,85.712,70.351,85.911z"/>
<path fill-rule="evenodd" clip-rule="evenodd" fill="#343434" d="M92.368,89.813c0.777-0.445,0.771,1.204,0.28,1.115
	C92.669,90.443,92.587,90.062,92.368,89.813z"/>
<path fill-rule="evenodd" clip-rule="evenodd" fill="#A7A7A7" d="M87.352,105.142c-0.451,0.201-0.451-1.313,0-1.114
	C87.352,104.398,87.352,104.771,87.352,105.142z"/>
<path fill-rule="evenodd" clip-rule="evenodd" fill="#D5D5D5" d="M111.601,134.406c0.465,0,0.928,0,1.393,0
	C113.119,134.862,111.475,134.862,111.601,134.406z"/>
<path fill-rule="evenodd" clip-rule="evenodd" fill="#717171" d="M1.509,12.331C2,12.583,2.372,12.955,2.624,13.446
	C2.133,13.195,1.761,12.823,1.509,12.331z"/>
<path fill-rule="evenodd" clip-rule="evenodd" fill="#343434" d="M12.658,19.578c0.491,0.252,0.863,0.624,1.115,1.115
	c-0.093,0-0.186,0-0.279,0C13.412,20.125,12.74,20.146,12.658,19.578z"/>
<path fill-rule="evenodd" clip-rule="evenodd" fill="#343434" d="M13.772,22.365c-0.358,0.478-0.576,1.096-1.393,1.115
	c-0.156-0.401-0.436-0.68-0.836-0.836c0.439-0.675,0.997-1.232,1.672-1.672c-0.289,0.734-1.105,0.939-1.394,1.672
	c0.248,0.124,0.499,0.245,0.558,0.558C13.254,23.333,13.115,22.451,13.772,22.365z"/>
<path fill-rule="evenodd" clip-rule="evenodd" fill="#343434" d="M22.691,35.744c0.768,0.533,1.418,1.183,1.951,1.951
	C23.874,37.162,23.225,36.511,22.691,35.744z"/>
<path fill-rule="evenodd" clip-rule="evenodd" fill="#D5D5D5" d="M67.285,58.876c0.902,0.213,1.459,0.771,1.673,1.672
	C68.592,59.8,67.729,59.547,67.285,58.876z"/>
<path fill-rule="evenodd" clip-rule="evenodd" fill="#A7A7A7" d="M106.025,133.85c0.493,0.252,0.863,0.623,1.116,1.115
	C106.65,134.713,106.277,134.341,106.025,133.85z"/>
<path fill-rule="evenodd" clip-rule="evenodd" fill="#717171" d="M95.992,64.729c-0.575-0.818-0.777-2.01-1.113-3.066
	c0.925,1.231,2.59-0.692,4.179-0.558c0.216,0.62,0.587,1.086,0.559,1.951c-1.174,0.405-2.214,0.945-3.624,1.115
	C95.992,64.357,95.992,64.543,95.992,64.729z"/>
<path fill-rule="evenodd" clip-rule="evenodd" fill="#343434" d="M78.156,11.495c-0.678-0.439-1.234-0.997-1.673-1.672
	C77.158,10.263,77.715,10.82,78.156,11.495z"/>
<path fill-rule="evenodd" clip-rule="evenodd" fill="#343434" d="M70.351,30.447c0.491,0.252,0.863,0.624,1.116,1.115
	C70.974,31.311,70.604,30.939,70.351,30.447z"/>
<path fill-rule="evenodd" clip-rule="evenodd" fill="#343434" d="M48.333,34.907c-0.675-0.44-1.233-0.998-1.672-1.672
	C47.335,33.674,47.893,34.232,48.333,34.907z"/>
<path fill-rule="evenodd" clip-rule="evenodd" fill="#343434" d="M31.053,12.61c-0.568-0.083-0.546-0.754-1.115-0.836
	c-0.251-0.492-0.623-0.864-1.114-1.115c-0.082-0.568-0.754-0.547-0.836-1.115C29.125,10.45,30.147,11.472,31.053,12.61z"/>
<path fill-rule="evenodd" clip-rule="evenodd" fill="#D5D5D5" d="M27.708,9.544c0.093,0,0.186,0,0.278,0
	c0.082,0.568,0.754,0.546,0.836,1.115C28.332,10.407,27.96,10.036,27.708,9.544z"/>
<path fill-rule="evenodd" clip-rule="evenodd" fill="#D5D5D5" d="M29.938,11.774c0.569,0.082,0.547,0.753,1.115,0.836
	c0,0.093,0,0.186,0,0.279C30.561,12.637,30.189,12.266,29.938,11.774z"/>
<path fill-rule="evenodd" clip-rule="evenodd" fill="#D5D5D5" d="M24.643,37.694c-0.533-0.768-1.184-1.418-1.951-1.951
	c0-0.093,0-0.186,0-0.279c0.86,0.626,1.604,1.37,2.229,2.23C24.829,37.694,24.736,37.694,24.643,37.694z"/>
<path fill-rule="evenodd" clip-rule="evenodd" fill="#A7A7A7" d="M13.772,20.693c0.492,0.251,0.863,0.624,1.115,1.115
	c-0.093,0-0.186,0-0.279,0C14.527,21.239,13.854,21.261,13.772,20.693z"/>
<path fill-rule="evenodd" clip-rule="evenodd" fill="#D5D5D5" d="M3.46,10.38c0.291,0.639,1.084,0.775,1.394,1.394
	C4.048,11.651,3.583,11.186,3.46,10.38z"/>
<path fill-rule="evenodd" clip-rule="evenodd" fill="#343434" d="M15.724,18.742c-0.675-0.44-1.233-0.998-1.672-1.672
	C14.727,17.51,15.284,18.066,15.724,18.742z"/>
<path fill-rule="evenodd" clip-rule="evenodd" fill="#717171" d="M69.516,57.204c0.583,0.346,1.048,0.81,1.392,1.394
	C70.324,58.251,69.86,57.787,69.516,57.204z"/>
<path fill-rule="evenodd" clip-rule="evenodd" fill="#343434" d="M89.86,78.387c-0.581-0.347-1.046-0.811-1.393-1.395
	C89.051,77.339,89.516,77.804,89.86,78.387z"/>
<path fill-rule="evenodd" clip-rule="evenodd" fill="#A7A7A7" d="M107.698,131.898c0.491,0.252,0.863,0.624,1.116,1.115
	C108.321,132.762,107.95,132.391,107.698,131.898z"/>
<path fill-rule="evenodd" clip-rule="evenodd" fill="#D5D5D5" d="M46.103,14.84c-0.806-0.123-1.271-0.587-1.394-1.394
	C45.223,13.862,45.688,14.327,46.103,14.84z"/>
<path fill-rule="evenodd" clip-rule="evenodd" fill="#D5D5D5" d="M71.745,28.218c0.092,0,0.187,0,0.278,0
	c0.438,0.675,0.996,1.232,1.673,1.672c0.052,0.226,0.278,0.278,0.278,0.557C73.113,29.821,72.37,29.078,71.745,28.218z"/>
<path fill-rule="evenodd" clip-rule="evenodd" fill="#343434" d="M44.431,34.907c0.86,0.626,1.604,1.369,2.23,2.229
	C45.8,36.511,45.057,35.767,44.431,34.907z"/>
<path fill-rule="evenodd" clip-rule="evenodd" fill="#343434" d="M26.593,12.053c0.768,0.533,1.418,1.183,1.952,1.951
	C27.776,13.471,27.127,12.82,26.593,12.053z"/>
<path fill-rule="evenodd" clip-rule="evenodd" fill="#343434" d="M73.696,29.89c-0.677-0.439-1.234-0.997-1.673-1.672
	C72.699,28.658,73.256,29.215,73.696,29.89z"/>
<path fill-rule="evenodd" clip-rule="evenodd" fill="#343434" d="M74.811,12.053c0.49,0.252,0.863,0.624,1.115,1.115
	C75.434,12.916,75.063,12.544,74.811,12.053z"/>
<path fill-rule="evenodd" clip-rule="evenodd" fill="#343434" d="M17.675,19.021c0.082-0.568,0.754-0.546,0.836-1.115
	C19.12,18.095,17.982,18.832,17.675,19.021z"/>
<path fill-rule="evenodd" clip-rule="evenodd" fill="#717171" d="M15.724,18.742c0.98-0.331,1.444-2.315,2.787-1.394
	c0,0.186,0,0.372,0,0.558c-0.082,0.568-0.754,0.546-0.836,1.115c-0.408,0.243-0.884,0.417-0.836,1.115
	C16.452,19.686,16.048,19.253,15.724,18.742z"/>
<path fill-rule="evenodd" clip-rule="evenodd" fill="#A7A7A7" d="M45.267,3.413c-0.046-0.604,0.989-0.126,1.394-0.278
	C46.708,3.739,45.672,3.26,45.267,3.413z"/>
<path fill-rule="evenodd" clip-rule="evenodd" fill="#717171" d="M46.939,3.134c0.405,0.152,1.44-0.326,1.394,0.278
	C47.928,3.26,46.893,3.739,46.939,3.134z"/>
<path fill-rule="evenodd" clip-rule="evenodd" fill="#717171" d="M68.678,25.988c-0.433-0.403-1.3-0.372-1.671-0.836
	c0.92-0.746,0.968-3.415,2.509-1.951C70.028,23.823,68.479,24.755,68.678,25.988z"/>
<path fill-rule="evenodd" clip-rule="evenodd" fill="#D5D5D5" d="M65.334,38.252c0.758,0.173,2.212-0.354,2.509,0.278
	C67.087,38.358,65.631,38.884,65.334,38.252z"/>
<path fill-rule="evenodd" clip-rule="evenodd" fill="#343434" d="M72.023,39.645c0.465,0,0.93,0,1.395,0
	C73.542,40.101,71.897,40.101,72.023,39.645z"/>
<path fill-rule="evenodd" clip-rule="evenodd" fill="#717171" d="M53.907,40.203c0.577,0.166,1.831-0.345,1.951,0.279
	C55.281,40.315,54.027,40.826,53.907,40.203z"/>
<path fill-rule="evenodd" clip-rule="evenodd" fill="#717171" d="M64.221,40.76c0.665,0.169,2.021-0.35,2.228,0.279
	c-0.741,0-1.484,0-2.228,0C64.221,40.946,64.221,40.853,64.221,40.76z"/>
<path fill-rule="evenodd" clip-rule="evenodd" fill="#D5D5D5" d="M73.138,69.467c-0.642-0.751-0.099-2.688-0.278-3.901
	c0.094,0,0.186,0,0.278,0C73.138,66.866,73.138,68.167,73.138,69.467z"/>
<path fill-rule="evenodd" clip-rule="evenodd" fill="#343434" d="M83.173,75.32c0.036-0.459,1.913-0.459,1.949,0
	C84.473,75.32,83.821,75.32,83.173,75.32z"/>
<path fill-rule="evenodd" clip-rule="evenodd" fill="#A7A7A7" d="M72.859,78.943c0.184-2.974-0.369-6.688,0.278-9.197
	c0,3.065,0,6.132,0,9.197C73.045,78.943,72.953,78.943,72.859,78.943z"/>
<path fill-rule="evenodd" clip-rule="evenodd" fill="#717171" d="M88.468,81.73c0.459,0.124,0.459,2.106,0,2.229
	C88.468,83.217,88.468,82.474,88.468,81.73z"/>
<path fill-rule="evenodd" clip-rule="evenodd" fill="#717171" d="M73.138,88.141c-0.647-2.51-0.095-6.224-0.278-9.197
	c0.094,0,0.186,0,0.278,0C73.138,82.01,73.138,85.075,73.138,88.141z"/>
<path fill-rule="evenodd" clip-rule="evenodd" fill="#343434" d="M90.139,89.534c0.023-0.441-0.133-1.063,0.28-1.114
	c0,0.371,0,0.743,0,1.114C90.324,89.534,90.232,89.534,90.139,89.534z"/>
<path fill-rule="evenodd" clip-rule="evenodd" fill="#717171" d="M87.63,88.698c-0.406,0.522-0.01,1.847-0.557,2.229
	c-0.019-1.188-1.765-0.65-2.509-1.115c0-0.465,0-0.928,0-1.393C85.837,88.264,86.302,88.913,87.63,88.698z"/>
<path fill-rule="evenodd" clip-rule="evenodd" fill="#717171" d="M89.86,90.928c-0.23-0.787,0.395-0.721,0.278-1.394
	c0.094,0,0.186,0,0.28,0c0.966-0.223,1.069,0.415,1.949,0.278c0.219,0.249,0.301,0.631,0.28,1.115
	C92.524,92.131,90.802,90.704,89.86,90.928z"/>
<path fill-rule="evenodd" clip-rule="evenodd" fill="#717171" d="M84.844,102.355c-0.161,0.489,0.336,1.638-0.279,1.672
	C84.726,103.537,84.229,102.391,84.844,102.355z"/>
<path fill-rule="evenodd" clip-rule="evenodd" fill="#717171" d="M84.564,104.863c0.623,0.12,0.114,1.375,0.279,1.951
	C84.221,106.694,84.731,105.441,84.564,104.863z"/>
<path fill-rule="evenodd" clip-rule="evenodd" fill="#717171" d="M115.502,131.342c0.452-0.2,0.452,1.313,0,1.114
	C115.502,132.085,115.502,131.713,115.502,131.342z"/>
<path fill-rule="evenodd" clip-rule="evenodd" fill="#FFFFFF" d="M6.805,0.347c1.208,0,2.416,0,3.623,0
	c5.599,0.833,11.196,4.276,15.33,7.247c0.096,0.069,0.192,0.518,0.279,0.557c0.545,0.246,1.312,0.559,1.672,1.394
	c0.251,0.491,0.624,0.863,1.115,1.115c0.491,0.251,0.863,0.624,1.114,1.115c0.252,0.491,0.624,0.863,1.115,1.115
	c1.269,0.751,2.013,2.219,3.066,3.623c0.328,0.438,0.804,0.717,1.114,1.115c0.192,0.245,0.077,0.618,0.279,0.836
	c0.733,0.788,1.929,2.222,2.787,3.344c0.285,0.373,0.483,0.862,0.836,1.394c0.471,0.71,1.524,1.847,2.229,2.787
	c1.67,2.227,3.501,4.785,5.296,7.247c0.439,0.674,0.997,1.232,1.672,1.672c2.017,1.419,4.25,2.625,7.525,2.787
	c0.121,0.623,1.374,0.113,1.951,0.278c0.372,0,0.743,0,1.115,0c0.186,0,0.372,0,0.557,0c-0.046,0.604,0.989,0.126,1.394,0.279
	c0.372,0,0.743,0,1.115,0c0.371,0,0.743,0,1.114,0c0.465,0,0.93,0,1.395,0c0.278,0,0.557,0,0.835,0
	c0.297,0.632,1.753,0.106,2.509,0.278c1.805-0.04,2.824,0.706,4.181,1.115c-0.126,0.456,1.519,0.456,1.395,0
	c0.745-0.183,1.06-0.798,1.671-1.115c0.246-3.776-2.36-4.701-3.622-6.968c-0.253-0.491-0.625-0.863-1.116-1.115
	c-0.884-0.694-1.827-1.331-2.786-1.951c-0.391-0.445-0.96-0.712-1.673-0.836c-4.877-1.982-11.652-5.475-17.001-8.362
	c-0.318-0.171-0.555-0.115-0.836-0.278c-1.273-0.738-3.557-1.825-4.737-3.065c-1.068-1.122-2.172-3.242-1.952-5.853
	c0-0.558,0-1.115,0-1.672c0-2.695,1.65-3.739,3.066-5.017c0.279,0,0.558,0,0.836,0c0.405-0.152,1.441,0.326,1.394-0.278
	c0.092,0,0.186,0,0.279,0c-0.047,0.604,0.989,0.126,1.394,0.278c6.291,0.696,13.569,2.174,19.788,3.345
	c2.273,0.428,4.478,0.564,6.132,1.393c0.868,0.436,1.447,1.258,2.23,1.672c0.438,0.675,0.995,1.233,1.673,1.672
	c2.708,3.276,3.738,8.987,5.295,13.936c3.672,11.676,7.885,24.561,11.428,36.232c0.336,1.056,0.538,2.248,1.113,3.066
	c5.291,15.625,10.446,34.461,16.444,51.562c0.883,2.517,1.759,5.317,3.065,8.361c1.113,2.592,3.245,5.606,2.788,8.361
	c-0.353,2.118-1.883,3.44-4.459,3.901c-1.022,0-2.044,0-3.067,0c-1.787-0.07-2.759-0.957-3.622-1.95
	c-0.253-0.492-0.623-0.863-1.116-1.115c-1.078-0.604-1.378-1.398-2.229-2.508c-0.068-0.092-0.52-0.197-0.558-0.278
	c-0.262-0.584-0.789-1.472-1.392-2.23c-0.405-0.507-1.008-0.911-1.395-1.395c-0.311-0.386-0.267-0.806-0.558-1.113
	c-1.877-1.987-4.074-4.612-6.132-6.969c-0.411-0.471-0.934-0.865-1.395-1.393c-0.286-0.331-0.314-0.813-0.557-1.116
	c-0.283-0.354-1.665-1.041-1.951-1.672c-0.055-0.122,0.088-0.461,0-0.558c-2.246-2.474-4.791-4.227-5.017-7.804
	c-0.165-0.576,0.344-1.831-0.279-1.951c0-0.278,0-0.557,0-0.836c0.615-0.034,0.118-1.183,0.279-1.672
	c0.526-4.025,1.517-7.588,2.229-11.428c0.547-0.383,0.15-1.707,0.557-2.229c0.051-1.81,0.553-3.165,0.838-4.738
	c0.459-0.123,0.459-2.105,0-2.229c-0.785-1.909-2.218-3.172-4.182-3.902c-1.648,0.452-2.069,2.354-2.786,4.182
	c-0.413,1.049-1.076,2.508-1.673,3.901c-0.773,1.803-1.762,5.547-4.46,5.854c-0.557,0-1.114,0-1.671,0
	c-2.384-0.312-3.476-1.914-3.346-4.738c0-0.372,0-0.743,0-1.115c0-1.579,0-3.158,0-4.738c0.649-2.603,0.095-6.408,0.278-9.476
	c-0.182-2.232,0.369-5.2-0.278-6.968c-0.014-1.844-0.793-2.922-1.393-4.181c-0.214-0.901-0.771-1.459-1.673-1.672
	c-9.646-5.143-20.275-9.648-30.658-14.493c-2.855-1.333-5.913-2.811-8.918-4.459c-0.937-0.514-2.049-1.202-2.788-2.229
	c-0.626-0.86-1.37-1.604-2.229-2.23c-2.656-2.217-3.7-6.712-5.574-10.033c-0.226-0.401-0.325-1.041-0.557-1.394
	c-0.493-0.748-1.531-1.262-1.672-2.23c-0.252-0.491-0.624-0.863-1.115-1.115c-0.252-0.491-0.624-0.863-1.115-1.115
	c-0.922-0.844-1.879-1.435-3.066-2.23c-0.336-0.225-0.539-0.664-0.836-0.836c-2.007-1.161-4.738-1.411-6.131-3.066
	C2.372,12.955,2,12.583,1.509,12.331C-2.127,7.622,1.268,0.722,6.805,0.347z M7.919,2.855C5.473,3.474,3.305,4.373,2.903,7.036
	c-0.459,0.038-0.459,1.913,0,1.951c0.284,0.366,0.273,1.027,0.557,1.394c0.124,0.806,0.588,1.271,1.394,1.394
	c3.477,1.354,6.671,2.99,9.198,5.295c0.439,0.675,0.997,1.232,1.672,1.672c0.325,0.511,0.729,0.943,1.115,1.393
	c1.014,0.851,1.689,1.883,2.229,2.788c0.717,1.199,1.427,2.339,1.952,3.623c0.358,0.879,0.476,1.991,0.836,2.787
	c1.173,2.593,3.77,5.865,5.853,7.247c0.935,0.62,1.882,1.083,3.065,1.672c2.555,1.27,5.075,2.746,7.525,3.901
	c0.436,0.207,0.871,0.066,1.394,0.279c0.428,0.174,0.693,0.639,1.115,0.836c2.825,1.318,5.466,2.463,8.082,3.623
	c5.235,2.321,10.771,4.989,15.609,7.247c1.801,0.84,4.119,2,5.017,3.066c0.345,0.583,0.809,1.047,1.392,1.394
	c0.942,1.196,1.842,2.435,1.952,4.459c0,0.836,0,1.672,0,2.509c0.18,1.213-0.363,3.15,0.278,3.901c0,0.093,0,0.186,0,0.279
	c-0.647,2.51-0.095,6.224-0.278,9.197c0.184,2.974-0.369,6.688,0.278,9.197c0.09,0.654,0.863,0.624,1.115,1.115
	c1.663-0.138,1.711-2.172,2.23-3.345c0.581-1.314,1.396-2.583,1.951-3.901c1.126-2.684,1.589-6.013,4.738-6.689
	c0.648,0,1.3,0,1.949,0c1.542,0.13,2.357,0.987,3.346,1.672c0.347,0.584,0.812,1.048,1.393,1.395
	c2.313,2.335,1.432,6.708,0.559,10.033c-0.413,0.052-0.257,0.673-0.28,1.114c0.116,0.673-0.509,0.606-0.278,1.394
	c-0.659,4.543-1.783,8.621-2.509,13.1c-0.451-0.199-0.451,1.315,0,1.114c0.118,1.904,0.693,2.806,1.395,3.903
	c1.186,1.856,2.599,2.999,3.902,4.459c0.435,0.488,0.699,1.194,1.114,1.672c0.471,0.543,0.985,0.932,1.395,1.394
	c4.523,5.125,8.907,10.299,12.541,15.329c0.252,0.492,0.623,0.863,1.116,1.115c0.917,0.475,1.692,1.094,2.786,1.393
	c-0.126,0.456,1.519,0.456,1.393,0c1.1-0.385,2.228-0.745,2.509-1.95c0.452,0.199,0.452-1.314,0-1.114
	c-4.991-9.928-8.154-21.187-11.706-32.331c-3.593-11.272-7.057-22.648-10.59-33.725c-0.295-0.82-0.383-1.846-0.838-2.508
	C87.921,49.521,83.437,34.57,79.27,21.25c-0.963-3.077-1.778-6.271-3.344-8.083c-0.252-0.491-0.625-0.863-1.115-1.115
	c-1.021-0.61-1.665-1.273-2.787-1.672c-1.658-0.589-3.412-0.792-5.295-1.115c-2.315-0.397-4.854-0.713-7.248-1.115
	C54.501,7.315,49.544,5.857,45.267,6.2c-0.43,0.592-0.801,1.242-1.114,1.951c-0.459,0.038-0.459,1.914,0,1.952
	c-0.151,1.451,0.535,2.066,0.557,3.344c0.123,0.806,0.588,1.271,1.394,1.394c7.043,3.362,13.705,7.105,20.904,10.313
	c0.371,0.464,1.238,0.433,1.671,0.836c1.246,0.52,2.353,1.179,3.067,2.23c0.625,0.86,1.368,1.603,2.229,2.229
	c1.686,1.752,3.437,3.439,3.901,6.411c0,0.372,0,0.743,0,1.115c-0.357,2.616-1.844,4.102-4.458,4.46c-0.465,0-0.93,0-1.395,0
	c-2.023-0.301-3.502-1.144-5.575-1.394c-0.206-0.629-1.563-0.109-2.228-0.279c-0.465,0-0.93,0-1.395,0c-0.187,0-0.373,0-0.558,0
	c-0.052-0.413-0.673-0.256-1.115-0.279c-0.465,0-0.93,0-1.393,0c-0.372,0-0.744,0-1.115,0c-0.372,0-0.744,0-1.116,0
	c-0.557,0-1.114,0-1.672,0c-0.12-0.624-1.374-0.113-1.951-0.279c-3.146-0.292-5.313-1.563-7.247-3.066
	c-0.626-0.86-1.37-1.604-2.23-2.229c-5.319-6.944-10.374-14.153-15.886-20.903c-0.534-0.768-1.184-1.418-1.952-1.951
	C21.843,8.07,16.621,4.56,9.592,2.855C9.638,2.398,7.874,2.398,7.919,2.855z"/>
<path fill-rule="evenodd" clip-rule="evenodd" fill="#A7A7A7" d="M6.805,0.347c0.571-0.462,3.052-0.462,3.623,0
	C9.22,0.347,8.013,0.347,6.805,0.347z"/>
<path fill-rule="evenodd" clip-rule="evenodd" fill="#717171" d="M2.903,7.036c0,0.651,0,1.301,0,1.951
	C2.444,8.949,2.444,7.074,2.903,7.036z"/>
<path fill-rule="evenodd" clip-rule="evenodd" fill="#717171" d="M67.564,28.497c-0.788,0.329-0.848,1.382-1.116,2.23
	c-0.876,0.133-1.088-0.397-1.671-0.558c0.33-0.876,0.939-1.475,1.114-2.508C66.604,27.785,67.174,28.051,67.564,28.497z"/>
<path fill-rule="evenodd" clip-rule="evenodd" fill="#717171" d="M55.858,37.694c0.65,0,1.301,0,1.951,0c0,0.093,0,0.186,0,0.278
	C57.231,37.807,55.979,38.317,55.858,37.694z"/>
<path fill-rule="evenodd" clip-rule="evenodd" fill="#717171" d="M92.368,62.778c0.455,0.662,0.543,1.688,0.838,2.508
	c-1.569-0.074-2.966,1.486-4.182,0.836c-0.092-0.651-0.335-1.151-0.557-1.672c1.212-0.552,2.688-0.841,3.9-1.393
	C92.368,62.964,92.368,62.871,92.368,62.778z"/>
<path fill-rule="evenodd" clip-rule="evenodd" fill="#717171" d="M72.859,63.057c0.633,0.296,0.105,1.752,0.278,2.509
	c-0.093,0-0.185,0-0.278,0C72.859,64.729,72.859,63.894,72.859,63.057z"/>
<path fill-rule="evenodd" clip-rule="evenodd" fill="#A7A7A7" d="M110.764,136.915c1.023,0,2.045,0,3.067,0
	C113.44,137.378,111.154,137.378,110.764,136.915z"/>
<path fill-rule="evenodd" clip-rule="evenodd" fill="#343434" d="M44.152,8.15c0,0.651,0,1.301,0,1.952
	C43.693,10.064,43.693,8.188,44.152,8.15z"/>
<path fill-rule="evenodd" clip-rule="evenodd" fill="#717171" d="M73.696,91.765c0.557,0,1.114,0,1.671,0
	C75.413,92.221,73.65,92.221,73.696,91.765z"/>
</svg>
