<?xml version="1.0" encoding="utf-8"?>
<!-- Generator: Adobe Illustrator 15.0.0, SVG Export Plug-In  -->
<!DOCTYPE svg PUBLIC "-//W3C//DTD SVG 1.1//EN" "http://www.w3.org/Graphics/SVG/1.1/DTD/svg11.dtd" [
	<!ENTITY ns_flows "http://ns.adobe.com/Flows/1.0/">
]>
<svg version="1.1"
	 xmlns="http://www.w3.org/2000/svg" xmlns:xlink="http://www.w3.org/1999/xlink" xmlns:a="http://ns.adobe.com/AdobeSVGViewerExtensions/3.0/"
	 x="0px" y="0px" width="142px" height="142px" viewBox="-33.94 -2.31 142 142" enable-background="new -33.94 -2.31 142 142"
	 xml:space="preserve">
<defs>
</defs>
<path fill-rule="evenodd" clip-rule="evenodd" fill="#C3C3C3" d="M49.952,0.321c0-0.092,0-0.186,0-0.278c0.465,0,0.928,0,1.393,0
	c0,0.093,0,0.186,0,0.278C50.88,0.321,50.417,0.321,49.952,0.321z"/>
<path fill-rule="evenodd" clip-rule="evenodd" fill="#797979" d="M51.345,0.321c0-0.092,0-0.186,0-0.278c0.372,0,0.743,0,1.115,0
	c0,0.093,0,0.186,0,0.278C52.088,0.321,51.717,0.321,51.345,0.321z"/>
<path fill-rule="evenodd" clip-rule="evenodd" fill="#C3C3C3" d="M49.396,2.829c0.122-0.459,2.105-0.459,2.229,0
	C50.88,2.829,50.139,2.829,49.396,2.829z"/>
<path fill-rule="evenodd" clip-rule="evenodd" fill="#C3C3C3" d="M5.079,15.372c-0.046-0.458,1.718-0.458,1.673,0
	C6.194,15.372,5.636,15.372,5.079,15.372z"/>
<path fill-rule="evenodd" clip-rule="evenodd" fill="#333333" d="M20.965,22.897c0.093,0,0.186,0,0.279,0
	c-0.047,0.417,0.1,1.028-0.279,1.115C20.965,23.64,20.965,23.269,20.965,22.897z"/>
<path fill-rule="evenodd" clip-rule="evenodd" fill="#C3C3C3" d="M22.917,25.405c0.464,0,0.929,0,1.394,0c0,0.093,0,0.186,0,0.278
	C23.905,25.531,22.87,26.01,22.917,25.405z"/>
<path fill-rule="evenodd" clip-rule="evenodd" fill="#797979" d="M24.31,25.684c0-0.093,0-0.186,0-0.278c0.743,0,1.486,0,2.23,0
	C26.332,26.034,24.977,25.514,24.31,25.684z"/>
<path fill-rule="evenodd" clip-rule="evenodd" fill="#C3C3C3" d="M23.195,28.192c0-0.093,0-0.186,0-0.279
	c0.49,0.16,1.637-0.337,1.672,0.279C24.31,28.192,23.752,28.192,23.195,28.192z"/>
<path fill-rule="evenodd" clip-rule="evenodd" fill="#191919" d="M28.769,54.391c0.605-0.047,0.127,0.989,0.28,1.394
	C28.444,55.832,28.922,54.796,28.769,54.391z"/>
<path fill-rule="evenodd" clip-rule="evenodd" fill="#191919" d="M31.557,54.67c0.605-0.047,0.126,0.989,0.279,1.393
	C31.231,56.11,31.709,55.075,31.557,54.67z"/>
<path fill-rule="evenodd" clip-rule="evenodd" fill="#191919" d="M44.936,54.948c-0.152,0.405,0.324,1.441-0.28,1.394
	C44.81,55.937,44.331,54.901,44.936,54.948z"/>
<path fill-rule="evenodd" clip-rule="evenodd" fill="#191919" d="M41.59,56.342c0.017-0.17,0.042-0.33,0.278-0.279
	c0.64,0.569,0.103,2.315,0.278,3.345C41.329,59.017,42.407,56.732,41.59,56.342z"/>
<path fill-rule="evenodd" clip-rule="evenodd" fill="#191919" d="M29.049,56.899c0.412,0.052,0.255,0.673,0.278,1.115
	C28.949,57.928,29.096,57.316,29.049,56.899z"/>
<path fill-rule="evenodd" clip-rule="evenodd" fill="#191919" d="M31.835,57.178c0.413,0.051,0.255,0.673,0.279,1.115
	C31.701,58.241,31.858,57.619,31.835,57.178z"/>
<path fill-rule="evenodd" clip-rule="evenodd" fill="#191919" d="M44.655,58.293c0.379,0.087,0.232,0.698,0.28,1.115
	C44.522,59.356,44.679,58.734,44.655,58.293z"/>
<path fill-rule="evenodd" clip-rule="evenodd" fill="#191919" d="M29.327,59.129c0.413,0.052,0.255,0.674,0.278,1.115
	C29.228,60.158,29.375,59.546,29.327,59.129z"/>
<path fill-rule="evenodd" clip-rule="evenodd" fill="#191919" d="M32.114,59.408c0.604-0.047,0.126,0.989,0.278,1.394
	C31.788,60.848,32.267,59.813,32.114,59.408z"/>
<path fill-rule="evenodd" clip-rule="evenodd" fill="#191919" d="M29.605,61.359c0.413,0.052,0.255,0.673,0.279,1.115
	C29.506,62.388,29.653,61.776,29.605,61.359z"/>
<path fill-rule="evenodd" clip-rule="evenodd" fill="#191919" d="M32.393,61.638c0.413,0.052,0.256,0.673,0.279,1.114
	C32.259,62.701,32.417,62.079,32.393,61.638z"/>
<path fill-rule="evenodd" clip-rule="evenodd" fill="#191919" d="M29.885,63.588c0.413,0.052,0.255,0.674,0.278,1.115
	C29.785,64.617,29.932,64.005,29.885,63.588z"/>
<path fill-rule="evenodd" clip-rule="evenodd" fill="#191919" d="M32.671,63.868c0.413,0.051,0.255,0.673,0.279,1.114
	C32.538,64.93,32.695,64.309,32.671,63.868z"/>
<path fill-rule="evenodd" clip-rule="evenodd" fill="#191919" d="M30.163,65.818c0.413,0.051,0.255,0.673,0.278,1.115
	C30.063,66.847,30.21,66.235,30.163,65.818z"/>
<path fill-rule="evenodd" clip-rule="evenodd" fill="#191919" d="M32.95,66.097c0.604-0.046,0.126,0.989,0.278,1.394
	C32.625,67.537,33.103,66.502,32.95,66.097z"/>
<path fill-rule="evenodd" clip-rule="evenodd" fill="#191919" d="M30.441,68.327c0.413,0.052,0.255,0.673,0.279,1.115
	C30.342,69.355,30.489,68.743,30.441,68.327z"/>
<path fill-rule="evenodd" clip-rule="evenodd" fill="#191919" d="M33.229,68.605c0.413,0.052,0.256,0.673,0.279,1.115
	C33.095,69.668,33.252,69.047,33.229,68.605z"/>
<path fill-rule="evenodd" clip-rule="evenodd" fill="#191919" d="M30.721,70.556c0.413,0.052,0.255,0.673,0.278,1.115
	C30.621,71.585,30.768,70.973,30.721,70.556z"/>
<path fill-rule="evenodd" clip-rule="evenodd" fill="#191919" d="M33.508,70.834c0.413,0.053,0.255,0.675,0.278,1.115
	C33.374,71.898,33.531,71.276,33.508,70.834z"/>
<path fill-rule="evenodd" clip-rule="evenodd" fill="#191919" d="M30.999,72.786c0.604-0.047,0.126,0.989,0.279,1.394
	C30.673,74.227,31.152,73.191,30.999,72.786z"/>
<path fill-rule="evenodd" clip-rule="evenodd" fill="#191919" d="M33.786,73.343c0.604-0.046,0.126,0.988,0.279,1.394
	C33.461,74.784,33.939,73.749,33.786,73.343z"/>
<path fill-rule="evenodd" clip-rule="evenodd" fill="#191919" d="M31.278,75.573c0.604-0.047,0.126,0.989,0.279,1.394
	C30.952,77.013,31.431,75.978,31.278,75.573z"/>
<path fill-rule="evenodd" clip-rule="evenodd" fill="#191919" d="M34.065,75.852c0.604-0.047,0.126,0.988,0.279,1.394
	C33.74,77.292,34.217,76.257,34.065,75.852z"/>
<path fill-rule="evenodd" clip-rule="evenodd" fill="#191919" d="M31.557,78.083c0.605-0.049,0.126,0.987,0.279,1.392
	C31.231,79.522,31.709,78.486,31.557,78.083z"/>
<path fill-rule="evenodd" clip-rule="evenodd" fill="#191919" d="M34.344,78.639c0.413,0.052,0.255,0.673,0.278,1.115
	C34.21,79.702,34.367,79.08,34.344,78.639z"/>
<path fill-rule="evenodd" clip-rule="evenodd" fill="#191919" d="M31.835,80.869c0.604-0.047,0.126,0.988,0.279,1.394
	C31.51,82.309,31.988,81.274,31.835,80.869z"/>
<path fill-rule="evenodd" clip-rule="evenodd" fill="#191919" d="M34.623,81.147c0.604-0.047,0.126,0.989,0.278,1.394
	C34.297,82.587,34.775,81.552,34.623,81.147z"/>
<path fill-rule="evenodd" clip-rule="evenodd" fill="#191919" d="M32.114,83.656c0.604-0.047,0.126,0.988,0.278,1.394
	C31.788,85.097,32.267,84.061,32.114,83.656z"/>
<path fill-rule="evenodd" clip-rule="evenodd" fill="#191919" d="M34.901,83.934c0.604-0.047,0.127,0.988,0.279,1.394
	C34.576,85.375,35.053,84.339,34.901,83.934z"/>
<path fill-rule="evenodd" clip-rule="evenodd" fill="#191919" d="M32.393,86.164c0.605-0.047,0.126,0.989,0.279,1.394
	C32.067,87.605,32.545,86.57,32.393,86.164z"/>
<path fill-rule="evenodd" clip-rule="evenodd" fill="#191919" d="M35.18,86.722c0.604-0.048,0.126,0.988,0.278,1.393
	C34.854,88.163,35.333,87.126,35.18,86.722z"/>
<path fill-rule="evenodd" clip-rule="evenodd" fill="#191919" d="M59.429,87.835c0.412,0.053,0.254,0.675,0.278,1.116
	C59.294,88.9,59.45,88.278,59.429,87.835z"/>
<path fill-rule="evenodd" clip-rule="evenodd" fill="#191919" d="M62.215,87.835c0.463,0.663,0.463,3.241,0,3.903
	C62.215,90.438,62.215,89.137,62.215,87.835z"/>
<path fill-rule="evenodd" clip-rule="evenodd" fill="#191919" d="M32.671,89.23c0.615,0.035,0.118,1.182,0.279,1.672
	C32.334,90.868,32.832,89.72,32.671,89.23z"/>
<path fill-rule="evenodd" clip-rule="evenodd" fill="#191919" d="M35.458,89.508c0.624,0.12,0.113,1.375,0.278,1.951
	C35.114,91.339,35.625,90.085,35.458,89.508z"/>
<path fill-rule="evenodd" clip-rule="evenodd" fill="#191919" d="M32.95,92.575c0.464,1.307,0.464,4.546,0,5.853
	C32.95,96.476,32.95,94.525,32.95,92.575z"/>
<path fill-rule="evenodd" clip-rule="evenodd" fill="#191919" d="M35.737,93.412c0.463,0.845,0.463,3.612,0,4.458
	C35.737,96.383,35.737,94.897,35.737,93.412z"/>
<path fill-rule="evenodd" clip-rule="evenodd" fill="#191919" d="M35.737,99.542c-0.047,0.417,0.1,1.029-0.278,1.115
	C35.506,100.24,35.359,99.628,35.737,99.542z"/>
<path fill-rule="evenodd" clip-rule="evenodd" fill="#191919" d="M32.95,99.821c-0.047,0.417,0.1,1.029-0.279,1.115
	C32.695,100.495,32.538,99.873,32.95,99.821z"/>
<path fill-rule="evenodd" clip-rule="evenodd" fill="#191919" d="M35.458,101.493c-0.047,0.418,0.1,1.029-0.278,1.115
	C35.227,102.191,35.081,101.579,35.458,101.493z"/>
<path fill-rule="evenodd" clip-rule="evenodd" fill="#191919" d="M32.393,103.444c-0.047,0.417,0.1,1.029-0.278,1.115
	C32.137,104.118,31.98,103.497,32.393,103.444z"/>
<path fill-rule="evenodd" clip-rule="evenodd" fill="#191919" d="M34.344,108.46c-0.048,0.417,0.099,1.029-0.279,1.115
	C34.113,109.159,33.965,108.547,34.344,108.46z"/>
<path fill-rule="evenodd" clip-rule="evenodd" fill="#191919" d="M33.508,114.036c-0.048,0.416,0.099,1.028-0.279,1.114
	C33.276,114.734,33.129,114.122,33.508,114.036z"/>
<path fill-rule="evenodd" clip-rule="evenodd" fill="#191919" d="M32.95,117.659c-0.047,0.416,0.1,1.028-0.279,1.114
	C32.719,118.357,32.572,117.745,32.95,117.659z"/>
<path fill-rule="evenodd" clip-rule="evenodd" fill="#191919" d="M29.605,121.003c-0.047,0.416,0.1,1.028-0.278,1.114
	C29.35,121.676,29.193,121.055,29.605,121.003z"/>
<path fill-rule="evenodd" clip-rule="evenodd" fill="#191919" d="M32.114,122.675c-0.047,0.417,0.1,1.028-0.279,1.114
	C31.883,123.374,31.736,122.761,32.114,122.675z"/>
<path fill-rule="evenodd" clip-rule="evenodd" fill="#191919" d="M31.835,124.626c0,1.114,0,2.229,0,3.345
	C31.373,127.49,31.373,125.107,31.835,124.626z"/>
<path fill-rule="evenodd" clip-rule="evenodd" fill="#191919" d="M29.049,124.905c0,1.022,0,2.043,0,3.066
	C28.586,127.581,28.586,125.295,29.049,124.905z"/>
<path fill-rule="evenodd" clip-rule="evenodd" fill="#191919" d="M36.016,136.333c1.021,0,2.043,0,3.066,0
	C38.691,136.793,36.406,136.793,36.016,136.333z"/>
<path fill-rule="evenodd" clip-rule="evenodd" fill="#191919" d="M41.59,135.496c0.533-0.768,1.185-1.417,1.951-1.95
	C43.009,134.313,42.357,134.962,41.59,135.496z"/>
<path fill-rule="evenodd" clip-rule="evenodd" fill="#191919" d="M56.92,100.658c0.438-0.677,0.996-1.233,1.671-1.673
	C58.152,99.66,57.595,100.217,56.92,100.658z"/>
<path fill-rule="evenodd" clip-rule="evenodd" fill="#797979" d="M68.904,37.668c0.25-0.491,0.623-0.863,1.114-1.115
	C69.768,37.045,69.396,37.417,68.904,37.668z"/>
<path fill-rule="evenodd" clip-rule="evenodd" fill="#797979" d="M62.215,3.387c0.675,0.44,1.232,0.997,1.673,1.672
	C63.213,4.619,62.653,4.063,62.215,3.387z"/>
<path fill-rule="evenodd" clip-rule="evenodd" fill="#C3C3C3" d="M44.936,41.013c0.251-0.491,0.623-0.863,1.114-1.115
	C45.797,40.389,45.427,40.761,44.936,41.013z"/>
<path fill-rule="evenodd" clip-rule="evenodd" fill="#C3C3C3" d="M33.229,50.21c0.366,0.099,0.438,0.491,0.836,0.557
	c0.069,0.303,0.554,0.189,0.558,0.558C33.805,51.306,33.587,50.688,33.229,50.21z"/>
<path fill-rule="evenodd" clip-rule="evenodd" fill="#C3C3C3" d="M61.937,6.731c-0.647-0.189-0.747-0.926-1.395-1.115
	c-0.248-0.124-0.499-0.245-0.557-0.558C60.847,5.406,61.481,5.979,61.937,6.731z"/>
<path fill-rule="evenodd" clip-rule="evenodd" fill="#191919" d="M60.542,5.617c0.647,0.188,0.747,0.926,1.395,1.115
	c0,0.093,0,0.186,0,0.278C61.354,6.664,60.889,6.2,60.542,5.617z"/>
<path fill-rule="evenodd" clip-rule="evenodd" fill="#797979" d="M34.901,49.653c-0.082,0.568-0.753,0.546-0.836,1.115
	c-0.398-0.066-0.47-0.458-0.836-0.557c-0.248-0.124-0.498-0.245-0.557-0.558c0.95-0.175,1.461-2.241,2.229-1.672
	C35.514,48.566,35.514,49.067,34.901,49.653z"/>
<path fill-rule="evenodd" clip-rule="evenodd" fill="#191919" d="M34.901,49.653c0.613-0.585,0.613-1.086,0-1.672
	c0.408,0.242,0.884,0.417,0.836,1.114C35.372,49.194,35.299,49.586,34.901,49.653z"/>
<path fill-rule="evenodd" clip-rule="evenodd" fill="#797979" d="M21.244,22.897c0-0.093,0-0.186,0-0.279c0.372,0,0.744,0,1.115,0
	c0,0.558,0,1.115,0,1.672c-0.118,0.583,0.191,0.738,0.278,1.115c-0.992-0.11-1.67-0.1-1.951-0.279
	c0.378-0.086,0.231-0.698,0.278-1.115C21.344,23.925,21.197,23.313,21.244,22.897z"/>
<path fill-rule="evenodd" clip-rule="evenodd" fill="#191919" d="M33.229,131.873c0.492,0.252,0.864,0.624,1.116,1.115
	C33.852,132.736,33.48,132.365,33.229,131.873z"/>
<path fill-rule="evenodd" clip-rule="evenodd" fill="#191919" d="M53.296,100.658c0.252-0.492,0.623-0.863,1.116-1.115
	C54.159,100.034,53.787,100.405,53.296,100.658z"/>
<path fill-rule="evenodd" clip-rule="evenodd" fill="#191919" d="M55.247,98.427c0.438-0.676,0.998-1.232,1.673-1.673
	C56.479,97.431,55.922,97.988,55.247,98.427z"/>
<path fill-rule="evenodd" clip-rule="evenodd" fill="#333333" d="M41.868,56.063c1.309-2.129,2.869-4.005,4.46-5.853
	c-0.481,1.562-1.2,2.888-1.393,4.738c-0.604-0.047-0.126,0.989-0.28,1.394c0,0.65,0,1.3,0,1.951c0.023,0.441-0.133,1.063,0.28,1.115
	c0.909,5.029,3.59,7.88,6.409,11.427c2.63,3.309,5.148,6.293,7.805,10.034c0.615,0.869,1.145,1.816,1.671,2.787
	c0.775,1.428,1.385,2.063,1.395,4.18c0,1.302,0,2.603,0,3.903c-0.234,3.389-2.102,5.145-3.624,7.246
	c-0.675,0.439-1.232,0.996-1.671,1.673c-1.568,2.252-3.544,4.173-4.738,6.688c-1.22,2.57-1.863,5.455-2.786,8.362
	c-0.423,1.328-0.974,2.779-1.395,4.18c-0.813,2.711-1.606,5.553-2.509,8.64c-0.543,1.858-1.1,3.546-1.951,5.018
	c-0.767,0.533-1.418,1.183-1.951,1.95c-0.839,0.276-1.244,0.986-2.508,0.837c-1.022,0-2.044,0-3.066,0
	c-4.447-0.662-6.474-3.746-6.967-8.361c0-1.023,0-2.044,0-3.066c-0.165-1.188,0.2-1.843,0.278-2.787
	c0.378-0.086,0.231-0.698,0.278-1.114c0.758-5.56,1.615-11.021,2.509-16.444c0.378-0.086,0.231-0.698,0.278-1.115
	c-0.191-1.12,0.267-1.59,0.279-2.508c0.378-0.086,0.231-0.698,0.279-1.115c0-0.465,0-0.929,0-1.394c0.464-1.307,0.464-4.546,0-5.853
	c0-0.558,0-1.115,0-1.673c-0.161-0.49,0.336-1.637-0.279-1.672c0-0.558,0-1.115,0-1.673c-0.152-0.404,0.326-1.44-0.279-1.394
	c0-0.37,0-0.743,0-1.114c-0.152-0.405,0.326-1.44-0.278-1.394c0-0.465,0-0.929,0-1.394c-0.153-0.405,0.326-1.44-0.279-1.394
	c0-0.465,0-0.93,0-1.395c-0.153-0.404,0.326-1.44-0.279-1.392c0-0.373,0-0.745,0-1.116c-0.152-0.404,0.326-1.44-0.279-1.394
	c0-0.464,0-0.929,0-1.394c-0.152-0.404,0.326-1.44-0.279-1.394c0-0.371,0-0.743,0-1.114c-0.023-0.442,0.134-1.063-0.278-1.115
	c0-0.371,0-0.743,0-1.115c-0.024-0.441,0.134-1.063-0.279-1.115c0-0.464,0-0.929,0-1.394c-0.023-0.441,0.134-1.063-0.278-1.115
	c0-0.372,0-0.743,0-1.115c-0.023-0.441,0.134-1.063-0.278-1.115c0-0.372,0-0.743,0-1.115c-0.024-0.441,0.134-1.063-0.279-1.115
	c0-0.372,0-0.744,0-1.115c-0.023-0.441,0.134-1.063-0.278-1.115c0-0.372,0-0.743,0-1.114c-0.023-0.442,0.134-1.063-0.278-1.115
	c0-0.372,0-0.743,0-1.115c-0.153-0.405,0.325-1.441-0.28-1.394c-0.049-2.65-0.147-5.35,1.116-6.688
	c-0.226,1.99,0.296,3.233,1.114,4.181c-0.582,0.989-1.907,1.665-1.394,2.508c0.638,1.048,1.024,0.104,1.951-0.835
	c0,0.372,0,0.743,0,1.115c0.152,0.405-0.325,1.44,0.279,1.393c0,0.372,0,0.744,0,1.115c0.023,0.441-0.134,1.063,0.279,1.115
	c0,0.372,0,0.743,0,1.115c0.152,0.405-0.326,1.44,0.278,1.394c0,0.278,0,0.557,0,0.836c0.024,0.441-0.134,1.063,0.279,1.114
	c0,0.372,0,0.743,0,1.116c0.023,0.441-0.134,1.063,0.279,1.114c0,0.372,0,0.743,0,1.115c0.152,0.405-0.326,1.44,0.278,1.394
	c0,0.372,0,0.743,0,1.115c0.024,0.441-0.133,1.063,0.279,1.115c0,0.371,0,0.743,0,1.114c0.023,0.441-0.134,1.063,0.278,1.115
	c0,0.465,0,0.93,0,1.394c0.153,0.405-0.325,1.44,0.279,1.394c0,0.372,0,0.743,0,1.115c0.152,0.405-0.325,1.439,0.279,1.394
	c0,0.464,0,0.929,0,1.394c0.022,0.44-0.134,1.063,0.278,1.115c0,0.463,0,0.928,0,1.393c0.152,0.405-0.326,1.44,0.278,1.394
	c0,0.465,0,0.93,0,1.394c0.152,0.405-0.325,1.441,0.279,1.394c0,0.466,0,0.93,0,1.395c0.152,0.404-0.326,1.44,0.278,1.393
	c0,0.465,0,0.929,0,1.394c0.166,0.577-0.344,1.831,0.278,1.951c0,0.65,0,1.301,0,1.952c0,1.485,0,2.972,0,4.458
	c0,0.558,0,1.115,0,1.673c-0.378,0.086-0.231,0.697-0.278,1.115c0,0.278,0,0.557,0,0.835c-0.378,0.086-0.231,0.698-0.278,1.115
	c-0.031,2.198-0.605,3.854-0.836,5.853c-0.379,0.087-0.231,0.698-0.279,1.115c0.016,1.688-0.389,2.956-0.557,4.46
	c-0.379,0.086-0.231,0.698-0.279,1.114c0.192,1.121-0.267,1.591-0.278,2.509c-0.378,0.086-0.231,0.698-0.279,1.114
	c0.128,1.616-0.464,2.509-0.557,3.902c-0.378,0.086-0.231,0.698-0.279,1.114c0,0.279,0,0.559,0,0.837
	c-0.462,0.48-0.462,2.863,0,3.345c0.11,1.654,0.812,2.719,1.393,3.901c0.252,0.492,0.624,0.863,1.116,1.115
	c2.129,0.938,4.462,1.137,6.131-0.279c1.779-1.509,2.136-5.256,3.065-8.36c0.89-2.975,1.96-5.801,2.787-8.361
	c2.098-6.487,3.546-11.983,6.968-15.329c0.491-0.253,0.863-0.624,1.116-1.115c0.082-0.569,0.753-0.547,0.835-1.115
	c0.675-0.439,1.232-0.996,1.673-1.673c1.372-2.156,2.897-4.161,2.787-7.803c-0.024-0.441,0.134-1.063-0.278-1.116
	c-0.421-2.766-2.208-4.431-3.903-6.688c-0.188-0.251-0.098-0.602-0.278-0.836c-0.15-0.195-0.385-0.334-0.557-0.557
	c-0.663-0.858-1.553-1.688-2.23-2.788c-0.454-0.737-1.502-1.871-2.229-2.787c-1.151-1.449-2.412-2.845-3.624-4.459
	c-0.16-0.214-0.099-0.596-0.278-0.836c-0.104-0.14-0.461-0.147-0.557-0.278c-0.154-0.212-0.103-0.6-0.279-0.836
	c-0.294-0.391-0.917-0.991-1.394-1.951c-0.8-1.611-1.783-3.881-1.952-6.411C41.971,58.378,42.508,56.632,41.868,56.063z"/>
<path fill-rule="evenodd" clip-rule="evenodd" fill="#797979" d="M47.723,0.321c0.206-0.628,1.563-0.109,2.229-0.278
	c0,0.093,0,0.186,0,0.278C49.209,0.321,48.466,0.321,47.723,0.321z"/>
<path fill-rule="evenodd" clip-rule="evenodd" fill="#333333" d="M52.46,0.042c0.441,0.023,1.064-0.134,1.114,0.278
	c-0.37,0-0.743,0-1.114,0C52.46,0.229,52.46,0.135,52.46,0.042z"/>
<path fill-rule="evenodd" clip-rule="evenodd" fill="#191919" d="M16.785,15.372c0.464,0,0.929,0,1.394,0
	C18.304,15.826,16.659,15.826,16.785,15.372z"/>
<path fill-rule="evenodd" clip-rule="evenodd" fill="#333333" d="M0.341,17.322c-0.455,0.126-0.455-1.519,0-1.393
	C0.341,16.393,0.341,16.858,0.341,17.322z"/>
<path fill-rule="evenodd" clip-rule="evenodd" fill="#797979" d="M16.228,18.159c0.836,0,1.672,0,2.508,0
	C18.524,18.619,16.439,18.619,16.228,18.159z"/>
<path fill-rule="evenodd" clip-rule="evenodd" fill="#191919" d="M20.965,22.897c-0.43-0.842,1.442-0.733,1.394-0.279
	c-0.372,0-0.743,0-1.115,0c0,0.093,0,0.186,0,0.279C21.151,22.897,21.059,22.897,20.965,22.897z"/>
<path fill-rule="evenodd" clip-rule="evenodd" fill="#333333" d="M22.359,22.618c0.457-0.045,0.457,1.718,0,1.672
	C22.359,23.733,22.359,23.175,22.359,22.618z"/>
<path fill-rule="evenodd" clip-rule="evenodd" fill="#797979" d="M73.364,22.339c0.997-0.077,2.165-0.975,3.064-0.278
	c0.926,2.025-2.123,1.053-2.508,1.672c-0.667,1.073,0.715,1.982-0.278,3.065C73.582,25.279,73.835,23.448,73.364,22.339z"/>
<path fill-rule="evenodd" clip-rule="evenodd" fill="#797979" d="M70.575,22.618c0.442,0.488,0.375,1.485,0.559,2.23
	c-0.896-0.725-3.331,1.437-3.066-1.115c0.545-0.572,1.871-0.358,2.508-0.836C70.575,22.804,70.575,22.711,70.575,22.618z"/>
<path fill-rule="evenodd" clip-rule="evenodd" fill="#797979" d="M25.982,28.192c0.208-0.628,1.563-0.109,2.23-0.279
	C28.004,28.542,26.648,28.022,25.982,28.192z"/>
<path fill-rule="evenodd" clip-rule="evenodd" fill="#333333" d="M22.081,28.192c-0.166,0.577,0.344,1.831-0.279,1.951
	C21.968,29.566,21.457,28.312,22.081,28.192z"/>
<path fill-rule="evenodd" clip-rule="evenodd" fill="#797979" d="M21.802,30.143c0,0.278,0,0.558,0,0.836
	c-0.787,0.23-0.722-0.393-1.394-0.279c0-0.279,0-0.558,0-0.836c0.624-0.12,0.113-1.374,0.279-1.951c0.836,0,1.672,0,2.508,0
	c0,0.093,0,0.186,0,0.279c-0.371,0-0.743,0-1.115,0C21.457,28.312,21.968,29.566,21.802,30.143z"/>
<path fill-rule="evenodd" clip-rule="evenodd" fill="#797979" d="M47.444,30.979c0.641,0.751,0.098,2.688,0.278,3.902
	c-0.095,0-0.187,0-0.278,0C47.444,33.581,47.444,32.28,47.444,30.979z"/>
<path fill-rule="evenodd" clip-rule="evenodd" fill="#333333" d="M44.655,31.258c0.412,0.052,0.256,0.674,0.28,1.115
	C44.557,32.286,44.703,31.675,44.655,31.258z"/>
<path fill-rule="evenodd" clip-rule="evenodd" fill="#333333" d="M44.936,34.324c-0.152,0.405,0.324,1.44-0.28,1.394
	C44.81,35.313,44.331,34.277,44.936,34.324z"/>
<path fill-rule="evenodd" clip-rule="evenodd" fill="#333333" d="M47.723,34.881c-0.049,0.417,0.098,1.029-0.278,1.115
	c0-0.372,0-0.743,0-1.115C47.536,34.881,47.628,34.881,47.723,34.881z"/>
<path fill-rule="evenodd" clip-rule="evenodd" fill="#333333" d="M64.166,38.783c0.558,0,1.114,0,1.671,0
	C65.883,39.241,64.12,39.241,64.166,38.783z"/>
<path fill-rule="evenodd" clip-rule="evenodd" fill="#797979" d="M32.393,52.998c-0.618-0.153-0.396,0.532-0.836,0.558
	c-0.927,0.939-1.313,1.884-1.951,0.835c-0.513-0.843,0.812-1.519,1.394-2.508c0.658,0.085,0.518,0.968,1.394,0.836
	C32.393,52.812,32.393,52.904,32.393,52.998z"/>
<path fill-rule="evenodd" clip-rule="evenodd" fill="#FFFFFF" d="M32.671,7.01c1.221,0.194,2.394-1.099,3.345-1.672
	c0.548-0.33,1.112-0.498,1.672-0.836c2.62-1.581,5.691-3.797,10.035-4.181c0.743,0,1.486,0,2.229,0c0.465,0,0.928,0,1.393,0
	c0.372,0,0.743,0,1.115,0c0.371,0,0.744,0,1.114,0c3.554,0.35,6.511,1.294,8.641,3.066c0.438,0.676,0.998,1.232,1.673,1.672
	c0.365,0.395,1.442,1.485,1.949,2.229c0.469,0.687,0.701,1.538,1.116,2.23c0.427,0.715,1.008,1.231,1.393,1.951
	c0.353,0.657,0.45,1.507,0.837,2.23c0.367,0.685,1.05,1.296,1.393,1.951c1.034,1.974,1.939,4.353,2.789,6.689
	c0.471,1.109,0.218,2.94,0.278,4.459c-0.779,3.681-1.915,7.005-3.624,9.755c-0.491,0.252-0.864,0.624-1.114,1.115
	c-0.749,0.646-1.69,1.097-3.067,1.115c-0.557,0-1.113,0-1.671,0c-3.191,0.115-5.892-4.79-8.919-1.672
	c-0.271,0.28-0.322,0.75-0.557,1.115c-0.068,0.106-0.518,0.186-0.558,0.278c-0.322,0.715-0.813,1.63-1.394,2.509
	c-0.223,0.334-0.283,0.769-0.558,1.114c-0.402,0.503-0.885,0.859-1.395,1.672c-1.134,1.815-3.047,4.673-4.459,6.411
	c-1.591,1.847-3.151,3.723-4.46,5.853c-0.236-0.051-0.262,0.109-0.278,0.279c-2.535,1.704-3.66,0.501-6.131-1.116
	c-0.705-0.46-1.329-0.798-1.951-1.393c-0.038-0.037-0.262-0.267-0.279-0.279c-0.265-0.182-0.732-0.21-0.836-0.558
	c0-0.093,0-0.186,0-0.279c-0.875,0.132-0.736-0.75-1.394-0.836c-0.818-0.947-1.34-2.19-1.114-4.181
	c1.287-3.361,5.148-4.659,8.918-6.411c2.118-0.983,6.003-2.127,5.853-5.574c0.604,0.046,0.128-0.989,0.28-1.394
	c0-0.65,0-1.301,0-1.951c-0.024-0.441,0.132-1.063-0.28-1.115c-0.507-3.486-0.557-7.431-2.787-9.197
	c-6.304,0.199-7.606,5.399-13.656,5.853c-0.667,0.169-2.022-0.35-2.23,0.279c-0.372,0-0.743,0-1.115,0
	c-0.035-0.616-1.183-0.119-1.672-0.279c-0.836,0-1.672,0-2.508,0c-0.093,0-0.186,0-0.279,0c-5.937-0.718-10.73-3.571-15.329-6.132
	c-1.661-0.924-4.407-2.06-4.738-4.459c0-0.464,0-0.929,0-1.393c0.477-1.754,1.575-2.885,3.624-3.066c1.208,0,2.415,0,3.624,0
	c3.513,0.388,5.771,2.032,9.197,2.508c-0.126,0.455,1.519,0.455,1.394,0c1.397-0.03,2.563-0.833,3.623-1.394
	c0.56-0.296,1.149-0.529,1.672-0.836c0.978-0.574,1.839-1.213,3.066-1.951c0.525-0.315,1.203-0.544,1.672-0.836
	c0.109-0.067,0.185-0.515,0.278-0.558c0.699-0.315,1.757-0.709,2.508-1.393C31.656,8.058,33.238,7.716,32.671,7.01z M49.396,2.829
	c-6.56,0.596-9.947,4.361-14.773,6.689c-0.779,0.428-1.572,0.843-2.23,1.394c-4.548,2.419-8.125,5.81-13.657,7.247
	c-0.835,0-1.671,0-2.508,0c-3.48-0.607-6.1-2.075-9.476-2.787c0.045-0.458-1.719-0.458-1.673,0
	c-1.045,0.162-1.854,0.562-2.229,1.394c0.877,1.396,2.59,1.772,3.902,2.508c0.699,0.394,1.261,1.025,1.95,1.394
	c0.748,0.4,1.482,0.733,2.229,1.115c2.827,1.445,6.02,2.97,9.755,3.345c0.28,0.179,0.959,0.169,1.951,0.279c0.093,0,0.187,0,0.279,0
	c-0.047,0.604,0.989,0.126,1.394,0.278c0.667-0.17,2.022,0.35,2.23-0.278c5.768-0.363,7.605-4.658,12.542-5.853
	c1.021,0,2.043,0,3.064,0c4.698,0.877,4.384,6.765,5.298,11.427c0,1.3,0,2.601,0,3.902c0,0.372,0,0.743,0,1.115
	c-0.205,1.563-0.365,3.167-1.395,3.902c-0.491,0.252-0.863,0.624-1.114,1.115c-1.723,1.67-5.876,3.215-8.083,4.18
	c-0.638,0.279-1.498,0.669-1.672,0.836c-0.468,0.448-1.046,0.766-1.394,1.115c-0.795,0.799-1.396,1.369-1.115,2.508
	c0.059,0.313,0.31,0.434,0.557,0.558c0.359,0.478,0.577,1.096,1.394,1.115c1.644,1.051,3.136,2.252,5.016,3.065
	c0.368-0.689,1.086-1.269,1.395-1.672c0.178-0.232,0.09-0.59,0.278-0.836c0.459-0.601,1.36-1.264,1.673-1.672
	c0.176-0.232,0.09-0.591,0.278-0.836c0.623-0.811,1.362-1.426,1.951-2.23c0.367-0.502,0.505-0.896,0.836-1.394
	c0.406-0.609,1.144-1.338,1.395-1.672c0.168-0.227,0.14-0.631,0.278-0.836c0.118-0.174,0.437-0.364,0.557-0.558
	c0.158-0.253,0.099-0.565,0.278-0.836c0.28-0.418,0.855-0.733,1.116-1.115c0.166-0.246,0.146-0.623,0.278-0.836
	c1.186-1.91,2.827-4.478,4.181-5.574c3.234-2.623,6.754-0.133,9.755,1.672c0.036,0.459,1.913,0.459,1.949,0
	c0.817,0.073,0.857-0.63,1.673-0.558c1.531-3.208,3.193-6.283,3.624-10.591c-0.184-0.745-0.116-1.742-0.559-2.23
	c-2.572-5.51-5.072-11.092-8.639-15.608c0-0.093,0-0.185,0-0.278c-0.455-0.752-1.09-1.326-1.951-1.672
	c-2.356-1.174-5.043-2.019-8.36-2.23C51.501,2.37,49.518,2.37,49.396,2.829z"/>
<path fill-rule="evenodd" clip-rule="evenodd" fill="#333333" d="M20.687,27.914c-0.166,0.577,0.344,1.831-0.279,1.951
	c0-0.65,0-1.3,0-1.951C20.501,27.914,20.594,27.914,20.687,27.914z"/>
<path fill-rule="evenodd" clip-rule="evenodd" fill="#C3C3C3" d="M3.964,12.863c0.572-0.463,3.051-0.463,3.624,0
	C6.379,12.863,5.172,12.863,3.964,12.863z"/>
<path fill-rule="evenodd" clip-rule="evenodd" fill="#C3C3C3" d="M39.082,19.552c0.39-0.462,2.676-0.462,3.064,0
	C41.125,19.552,40.104,19.552,39.082,19.552z"/>
<path fill-rule="evenodd" clip-rule="evenodd" fill="#797979" d="M30.999,8.404c-0.656-1.203-1.583-2.134-1.95-3.623
	c0.642-0.287,0.898-0.96,1.95-0.836c0.472,1.108,1.314,1.844,1.672,3.065C33.238,7.716,31.656,8.058,30.999,8.404z"/>
<path fill-rule="evenodd" clip-rule="evenodd" fill="#797979" d="M32.393,10.912c0.658-0.55,1.451-0.965,2.23-1.394
	c0.257,1.693,1.461,2.441,1.951,3.902c-0.929,0-0.952,0.907-1.951,0.836c-0.771-0.996-1.534-1.997-1.951-3.345
	C32.579,10.912,32.485,10.912,32.393,10.912z"/>
<path fill-rule="evenodd" clip-rule="evenodd" fill="#333333" d="M63.888,35.996c0.649,0,1.301,0,1.949,0
	C65.801,36.456,63.924,36.456,63.888,35.996z"/>
</svg>
