<?xml version="1.0" encoding="utf-8"?>
<!-- Generator: Adobe Illustrator 15.0.0, SVG Export Plug-In  -->
<!DOCTYPE svg PUBLIC "-//W3C//DTD SVG 1.1//EN" "http://www.w3.org/Graphics/SVG/1.1/DTD/svg11.dtd" [
	<!ENTITY ns_flows "http://ns.adobe.com/Flows/1.0/">
]>
<svg version="1.1"
	 xmlns="http://www.w3.org/2000/svg" xmlns:xlink="http://www.w3.org/1999/xlink" xmlns:a="http://ns.adobe.com/AdobeSVGViewerExtensions/3.0/"
	 x="0px" y="0px" width="142px" height="142px" viewBox="-33.94 -2.31 142 142" enable-background="new -33.94 -2.31 142 142"
	 xml:space="preserve">
<defs>
</defs>
<path fill-rule="evenodd" clip-rule="evenodd" fill="#C3C3C3" d="M49.952,0.321c0-0.092,0-0.186,0-0.278c0.465,0,0.928,0,1.393,0
	c0,0.093,0,0.186,0,0.278C50.88,0.321,50.417,0.321,49.952,0.321z"/>
<path fill-rule="evenodd" clip-rule="evenodd" fill="#787878" d="M51.345,0.321c0-0.092,0-0.186,0-0.278c0.372,0,0.743,0,1.115,0
	c0,0.093,0,0.186,0,0.278C52.088,0.321,51.717,0.321,51.345,0.321z"/>
<path fill-rule="evenodd" clip-rule="evenodd" fill="#C3C3C3" d="M49.396,2.829c0.122-0.459,2.105-0.459,2.229,0
	C50.88,2.829,50.139,2.829,49.396,2.829z"/>
<path fill-rule="evenodd" clip-rule="evenodd" fill="#C3C3C3" d="M5.079,15.372c-0.046-0.458,1.718-0.458,1.673,0
	C6.194,15.372,5.636,15.372,5.079,15.372z"/>
<path fill-rule="evenodd" clip-rule="evenodd" fill="#C3C3C3" d="M22.917,25.405c0.464,0,0.929,0,1.394,0c0,0.093,0,0.186,0,0.278
	C23.905,25.531,22.87,26.01,22.917,25.405z"/>
<path fill-rule="evenodd" clip-rule="evenodd" fill="#787878" d="M24.31,25.684c0-0.093,0-0.186,0-0.278c0.743,0,1.486,0,2.23,0
	C26.332,26.034,24.977,25.514,24.31,25.684z"/>
<path fill-rule="evenodd" clip-rule="evenodd" fill="#C3C3C3" d="M23.195,28.192c0-0.093,0-0.186,0-0.279
	c0.49,0.16,1.637-0.337,1.672,0.279C24.31,28.192,23.752,28.192,23.195,28.192z"/>
<path fill-rule="evenodd" clip-rule="evenodd" fill="#787878" d="M56.92,35.996c-0.2-0.452,1.314-0.452,1.114,0
	C57.663,35.996,57.291,35.996,56.92,35.996z"/>
<path fill-rule="evenodd" clip-rule="evenodd" fill="#191919" d="M28.769,54.391c0.605-0.047,0.127,0.989,0.28,1.394
	C28.444,55.832,28.922,54.796,28.769,54.391z"/>
<path fill-rule="evenodd" clip-rule="evenodd" fill="#191919" d="M31.557,54.67c0.605-0.047,0.126,0.989,0.279,1.393
	C31.231,56.11,31.709,55.075,31.557,54.67z"/>
<path fill-rule="evenodd" clip-rule="evenodd" fill="#191919" d="M44.936,54.948c-0.152,0.405,0.324,1.441-0.28,1.394
	C44.81,55.937,44.331,54.901,44.936,54.948z"/>
<path fill-rule="evenodd" clip-rule="evenodd" fill="#191919" d="M41.59,56.342c0.061-0.313,0.309-0.435,0.557-0.558
	c0,1.208,0,2.415,0,3.623C41.329,59.017,42.407,56.732,41.59,56.342z"/>
<path fill-rule="evenodd" clip-rule="evenodd" fill="#191919" d="M29.049,56.899c0.412,0.052,0.255,0.673,0.278,1.115
	C28.949,57.928,29.096,57.316,29.049,56.899z"/>
<path fill-rule="evenodd" clip-rule="evenodd" fill="#191919" d="M31.835,57.178c0.413,0.051,0.255,0.673,0.279,1.115
	C31.701,58.241,31.858,57.619,31.835,57.178z"/>
<path fill-rule="evenodd" clip-rule="evenodd" fill="#191919" d="M44.655,58.293c0.379,0.087,0.232,0.698,0.28,1.115
	C44.522,59.356,44.679,58.734,44.655,58.293z"/>
<path fill-rule="evenodd" clip-rule="evenodd" fill="#191919" d="M29.327,59.129c0.413,0.052,0.255,0.674,0.278,1.115
	C29.228,60.158,29.375,59.546,29.327,59.129z"/>
<path fill-rule="evenodd" clip-rule="evenodd" fill="#191919" d="M32.114,59.408c0.604-0.047,0.126,0.989,0.278,1.394
	C31.788,60.848,32.267,59.813,32.114,59.408z"/>
<path fill-rule="evenodd" clip-rule="evenodd" fill="#191919" d="M29.605,61.359c0.413,0.052,0.255,0.673,0.279,1.115
	C29.506,62.388,29.653,61.776,29.605,61.359z"/>
<path fill-rule="evenodd" clip-rule="evenodd" fill="#191919" d="M32.393,61.638c0.413,0.052,0.256,0.673,0.279,1.114
	C32.259,62.701,32.417,62.079,32.393,61.638z"/>
<path fill-rule="evenodd" clip-rule="evenodd" fill="#191919" d="M29.885,63.588c0.413,0.052,0.255,0.674,0.278,1.115
	C29.785,64.617,29.932,64.005,29.885,63.588z"/>
<path fill-rule="evenodd" clip-rule="evenodd" fill="#191919" d="M32.671,63.868c0.413,0.051,0.255,0.673,0.279,1.114
	C32.538,64.93,32.695,64.309,32.671,63.868z"/>
<path fill-rule="evenodd" clip-rule="evenodd" fill="#191919" d="M30.163,65.818c0.413,0.051,0.255,0.673,0.278,1.115
	C30.063,66.847,30.21,66.235,30.163,65.818z"/>
<path fill-rule="evenodd" clip-rule="evenodd" fill="#191919" d="M32.95,66.097c0.604-0.046,0.126,0.989,0.278,1.394
	C32.625,67.537,33.103,66.502,32.95,66.097z"/>
<path fill-rule="evenodd" clip-rule="evenodd" fill="#191919" d="M30.441,68.327c0.413,0.052,0.255,0.673,0.279,1.115
	C30.342,69.355,30.489,68.743,30.441,68.327z"/>
<path fill-rule="evenodd" clip-rule="evenodd" fill="#191919" d="M33.229,68.605c0.413,0.052,0.256,0.673,0.279,1.115
	C33.095,69.668,33.252,69.047,33.229,68.605z"/>
<path fill-rule="evenodd" clip-rule="evenodd" fill="#191919" d="M30.721,70.556c0.413,0.052,0.255,0.673,0.278,1.115
	C30.621,71.585,30.768,70.973,30.721,70.556z"/>
<path fill-rule="evenodd" clip-rule="evenodd" fill="#191919" d="M33.508,70.834c0.413,0.053,0.255,0.675,0.278,1.115
	C33.374,71.898,33.531,71.276,33.508,70.834z"/>
<path fill-rule="evenodd" clip-rule="evenodd" fill="#191919" d="M30.999,72.786c0.604-0.047,0.126,0.989,0.279,1.394
	C30.673,74.227,31.152,73.191,30.999,72.786z"/>
<path fill-rule="evenodd" clip-rule="evenodd" fill="#191919" d="M33.786,73.343c0.604-0.046,0.126,0.988,0.279,1.394
	C33.461,74.784,33.939,73.749,33.786,73.343z"/>
<path fill-rule="evenodd" clip-rule="evenodd" fill="#191919" d="M31.278,75.573c0.604-0.047,0.126,0.989,0.279,1.394
	C30.952,77.013,31.431,75.978,31.278,75.573z"/>
<path fill-rule="evenodd" clip-rule="evenodd" fill="#191919" d="M34.065,75.852c0.604-0.047,0.126,0.988,0.279,1.394
	C33.74,77.292,34.217,76.257,34.065,75.852z"/>
<path fill-rule="evenodd" clip-rule="evenodd" fill="#191919" d="M31.557,78.083c0.605-0.049,0.126,0.987,0.279,1.392
	C31.231,79.522,31.709,78.486,31.557,78.083z"/>
<path fill-rule="evenodd" clip-rule="evenodd" fill="#191919" d="M34.344,78.639c0.413,0.052,0.255,0.673,0.278,1.115
	C34.21,79.702,34.367,79.08,34.344,78.639z"/>
<path fill-rule="evenodd" clip-rule="evenodd" fill="#191919" d="M31.835,80.869c0.604-0.047,0.126,0.988,0.279,1.394
	C31.51,82.309,31.988,81.274,31.835,80.869z"/>
<path fill-rule="evenodd" clip-rule="evenodd" fill="#191919" d="M34.623,81.147c0.616,0.035,0.118,1.183,0.278,1.672
	C34.286,82.785,34.782,81.637,34.623,81.147z"/>
<path fill-rule="evenodd" clip-rule="evenodd" fill="#191919" d="M32.114,83.656c0.604-0.047,0.126,0.988,0.278,1.394
	C31.788,85.097,32.267,84.061,32.114,83.656z"/>
<path fill-rule="evenodd" clip-rule="evenodd" fill="#191919" d="M34.901,83.934c0.604-0.047,0.127,0.988,0.279,1.394
	C34.576,85.375,35.053,84.339,34.901,83.934z"/>
<path fill-rule="evenodd" clip-rule="evenodd" fill="#191919" d="M32.393,86.164c0.605-0.047,0.126,0.989,0.279,1.394
	C32.067,87.605,32.545,86.57,32.393,86.164z"/>
<path fill-rule="evenodd" clip-rule="evenodd" fill="#191919" d="M35.18,86.722c0.604-0.048,0.126,0.988,0.278,1.393
	C34.854,88.163,35.333,87.126,35.18,86.722z"/>
<path fill-rule="evenodd" clip-rule="evenodd" fill="#191919" d="M59.429,87.835c0.412,0.053,0.254,0.675,0.278,1.116
	C59.294,88.9,59.45,88.278,59.429,87.835z"/>
<path fill-rule="evenodd" clip-rule="evenodd" fill="#191919" d="M62.215,87.835c0.463,0.663,0.463,3.241,0,3.903
	C62.215,90.438,62.215,89.137,62.215,87.835z"/>
<path fill-rule="evenodd" clip-rule="evenodd" fill="#191919" d="M32.671,88.952c0.624,0.119,0.113,1.373,0.279,1.95
	C32.327,90.782,32.837,89.529,32.671,88.952z"/>
<path fill-rule="evenodd" clip-rule="evenodd" fill="#191919" d="M35.458,89.508c0.624,0.12,0.113,1.375,0.278,1.951
	C35.114,91.339,35.625,90.085,35.458,89.508z"/>
<path fill-rule="evenodd" clip-rule="evenodd" fill="#191919" d="M32.95,92.575c0.464,1.307,0.464,4.546,0,5.853
	C32.95,96.476,32.95,94.525,32.95,92.575z"/>
<path fill-rule="evenodd" clip-rule="evenodd" fill="#191919" d="M35.737,93.412c0.463,0.845,0.463,3.612,0,4.458
	C35.737,96.383,35.737,94.897,35.737,93.412z"/>
<path fill-rule="evenodd" clip-rule="evenodd" fill="#191919" d="M35.737,99.542c-0.047,0.417,0.1,1.029-0.278,1.115
	C35.506,100.24,35.359,99.628,35.737,99.542z"/>
<path fill-rule="evenodd" clip-rule="evenodd" fill="#191919" d="M32.95,99.821c-0.047,0.417,0.1,1.029-0.279,1.115
	C32.695,100.495,32.538,99.873,32.95,99.821z"/>
<path fill-rule="evenodd" clip-rule="evenodd" fill="#191919" d="M35.458,101.493c-0.047,0.418,0.1,1.029-0.278,1.115
	C35.227,102.191,35.081,101.579,35.458,101.493z"/>
<path fill-rule="evenodd" clip-rule="evenodd" fill="#191919" d="M32.393,103.444c-0.047,0.417,0.1,1.029-0.278,1.115
	C32.137,104.118,31.98,103.497,32.393,103.444z"/>
<path fill-rule="evenodd" clip-rule="evenodd" fill="#191919" d="M34.344,108.46c-0.048,0.417,0.099,1.029-0.279,1.115
	C34.113,109.159,33.965,108.547,34.344,108.46z"/>
<path fill-rule="evenodd" clip-rule="evenodd" fill="#191919" d="M32.95,117.659c-0.047,0.416,0.1,1.028-0.279,1.114
	C32.719,118.357,32.572,117.745,32.95,117.659z"/>
<path fill-rule="evenodd" clip-rule="evenodd" fill="#191919" d="M32.114,122.675c-0.047,0.417,0.1,1.028-0.279,1.114
	C31.883,123.374,31.736,122.761,32.114,122.675z"/>
<path fill-rule="evenodd" clip-rule="evenodd" fill="#191919" d="M31.835,124.626c0,1.114,0,2.229,0,3.345
	C31.373,127.49,31.373,125.107,31.835,124.626z"/>
<path fill-rule="evenodd" clip-rule="evenodd" fill="#191919" d="M29.049,124.905c0,0.93,0,1.858,0,2.787
	C28.587,127.392,28.587,125.206,29.049,124.905z"/>
<path fill-rule="evenodd" clip-rule="evenodd" fill="#191919" d="M36.016,136.333c1.021,0,2.043,0,3.066,0
	C38.691,136.793,36.406,136.793,36.016,136.333z"/>
<path fill-rule="evenodd" clip-rule="evenodd" fill="#191919" d="M41.59,135.496c0.533-0.768,1.185-1.417,1.951-1.95
	C43.009,134.313,42.357,134.962,41.59,135.496z"/>
<path fill-rule="evenodd" clip-rule="evenodd" fill="#191919" d="M56.92,100.658c0.438-0.677,0.996-1.233,1.671-1.673
	C58.152,99.66,57.595,100.217,56.92,100.658z"/>
<path fill-rule="evenodd" clip-rule="evenodd" fill="#787878" d="M68.904,37.668c0.25-0.491,0.623-0.863,1.114-1.115
	C69.768,37.045,69.396,37.417,68.904,37.668z"/>
<path fill-rule="evenodd" clip-rule="evenodd" fill="#787878" d="M62.215,3.387c0.675,0.44,1.232,0.997,1.673,1.672
	C63.213,4.619,62.653,4.063,62.215,3.387z"/>
<path fill-rule="evenodd" clip-rule="evenodd" fill="#C3C3C3" d="M44.936,41.013c0.251-0.491,0.623-0.863,1.114-1.115
	C45.797,40.389,45.427,40.761,44.936,41.013z"/>
<path fill-rule="evenodd" clip-rule="evenodd" fill="#C3C3C3" d="M33.229,50.21c0.492,0.252,0.864,0.624,1.116,1.115
	C33.852,51.073,33.48,50.702,33.229,50.21z"/>
<path fill-rule="evenodd" clip-rule="evenodd" fill="#C3C3C3" d="M61.937,6.731c-0.647-0.189-0.747-0.926-1.395-1.115
	c-0.248-0.124-0.499-0.245-0.557-0.558C60.847,5.406,61.481,5.979,61.937,6.731z"/>
<path fill-rule="evenodd" clip-rule="evenodd" fill="#191919" d="M60.542,5.617c0.647,0.188,0.747,0.926,1.395,1.115
	c0,0.093,0,0.186,0,0.278C61.354,6.664,60.889,6.2,60.542,5.617z"/>
<path fill-rule="evenodd" clip-rule="evenodd" fill="#333333" d="M67.51,28.471c-0.244-0.574,0.724-1.251,0.836-0.557
	C67.729,27.76,67.948,28.446,67.51,28.471z"/>
<path fill-rule="evenodd" clip-rule="evenodd" fill="#787878" d="M32.671,49.653c0.237-0.051,0.263,0.109,0.279,0.278
	c0.752-0.455,1.326-1.089,1.672-1.95c0.858-0.208,0.536,0.765,1.394,0.558c-0.091,1.302-1.445,1.342-1.394,2.787
	c-0.093,0-0.186,0-0.278,0c-0.252-0.491-0.624-0.863-1.116-1.115C32.981,50.087,32.73,49.966,32.671,49.653z"/>
<path fill-rule="evenodd" clip-rule="evenodd" fill="#787878" d="M28.491,27.914c1.02,0.183,1.069-0.603,1.951-0.558
	c-0.696,0.899,0.203,2.068,0.279,3.065c-0.279,0-0.558,0-0.836,0c-0.451,0.08-0.48-0.263-0.836-0.278
	C28.9,29.362,28.639,28.694,28.491,27.914z"/>
<path fill-rule="evenodd" clip-rule="evenodd" fill="#333333" d="M29.885,30.421c0.11,0.541-1.27,0.407-0.836-0.278
	C29.405,30.159,29.434,30.501,29.885,30.421z"/>
<path fill-rule="evenodd" clip-rule="evenodd" fill="#787878" d="M73.086,29.307c0.646,0.466,1.5,0.728,2.508,0.836
	c0.202,0.853-0.48,0.82-0.278,1.672c-1.036-0.172-1.753-0.665-2.789-0.836C72.783,30.491,72.623,29.589,73.086,29.307z"/>
<path fill-rule="evenodd" clip-rule="evenodd" fill="#191919" d="M33.229,131.873c0.492,0.252,0.864,0.624,1.116,1.115
	C33.852,132.736,33.48,132.365,33.229,131.873z"/>
<path fill-rule="evenodd" clip-rule="evenodd" fill="#191919" d="M53.296,100.658c0.252-0.492,0.623-0.863,1.116-1.115
	C54.159,100.034,53.787,100.405,53.296,100.658z"/>
<path fill-rule="evenodd" clip-rule="evenodd" fill="#191919" d="M55.247,98.427c0.438-0.676,0.998-1.232,1.673-1.673
	C56.479,97.431,55.922,97.988,55.247,98.427z"/>
<path fill-rule="evenodd" clip-rule="evenodd" fill="#333333" d="M42.146,55.785c1.132-2.12,2.705-3.8,4.182-5.574
	c-0.481,1.562-1.2,2.888-1.393,4.738c-0.604-0.047-0.126,0.989-0.28,1.394c0,0.65,0,1.3,0,1.951c0.023,0.441-0.133,1.063,0.28,1.115
	c1.713,7.113,5.964,10.937,10.312,16.444c1.759,2.229,4.003,4.91,5.573,7.804c0.775,1.428,1.385,2.063,1.395,4.18
	c0,1.302,0,2.603,0,3.903c-0.234,3.389-2.102,5.145-3.624,7.246c-0.675,0.439-1.232,0.996-1.671,1.673
	c-1.568,2.252-3.544,4.173-4.738,6.688c-1.22,2.57-1.863,5.455-2.786,8.362c-0.423,1.328-0.974,2.779-1.395,4.18
	c-0.813,2.711-1.606,5.553-2.509,8.64c-0.543,1.858-1.1,3.546-1.951,5.018c-0.767,0.533-1.418,1.183-1.951,1.95
	c-0.839,0.276-1.244,0.986-2.508,0.837c-1.022,0-2.044,0-3.066,0c-4.464-0.739-6.609-3.797-6.967-8.641c0-0.929,0-1.857,0-2.787
	c0.786-7.017,2.056-13.551,3.065-20.346c0.378-0.086,0.231-0.698,0.278-1.115c-0.191-1.12,0.267-1.59,0.279-2.508
	c0.378-0.086,0.231-0.698,0.279-1.115c0-0.465,0-0.929,0-1.394c0.464-1.307,0.464-4.546,0-5.853c0-0.558,0-1.115,0-1.673
	c-0.166-0.577,0.345-1.831-0.279-1.95c0-0.465,0-0.93,0-1.395c-0.152-0.404,0.326-1.44-0.279-1.394c0-0.37,0-0.743,0-1.114
	c-0.152-0.405,0.326-1.44-0.278-1.394c0-0.465,0-0.929,0-1.394c-0.153-0.405,0.326-1.44-0.279-1.394c0-0.465,0-0.93,0-1.395
	c-0.153-0.404,0.326-1.44-0.279-1.392c0-0.373,0-0.745,0-1.116c-0.152-0.404,0.326-1.44-0.279-1.394c0-0.464,0-0.929,0-1.394
	c-0.152-0.404,0.326-1.44-0.279-1.394c0-0.371,0-0.743,0-1.114c-0.023-0.442,0.134-1.063-0.278-1.115c0-0.371,0-0.743,0-1.115
	c-0.024-0.441,0.134-1.063-0.279-1.115c0-0.464,0-0.929,0-1.394c-0.023-0.441,0.134-1.063-0.278-1.115c0-0.372,0-0.743,0-1.115
	c-0.023-0.441,0.134-1.063-0.278-1.115c0-0.372,0-0.743,0-1.115c-0.024-0.441,0.134-1.063-0.279-1.115c0-0.372,0-0.744,0-1.115
	c-0.023-0.441,0.134-1.063-0.278-1.115c0-0.372,0-0.743,0-1.114c-0.023-0.442,0.134-1.063-0.278-1.115c0-0.372,0-0.743,0-1.115
	c-0.153-0.405,0.325-1.441-0.28-1.394c-0.049-2.65-0.147-5.35,1.116-6.688c-0.342,2.478,0.648,3.625,1.672,4.738
	c-0.751,0.549-1.333,1.268-1.672,2.23c0.585,0.613,1.086,0.613,1.672,0c0.152,0.405-0.325,1.44,0.279,1.393c0,0.372,0,0.744,0,1.115
	c0.023,0.441-0.134,1.063,0.279,1.115c0,0.372,0,0.743,0,1.115c0.152,0.405-0.326,1.44,0.278,1.394c0,0.278,0,0.557,0,0.836
	c0.024,0.441-0.134,1.063,0.279,1.114c0,0.372,0,0.743,0,1.116c0.023,0.441-0.134,1.063,0.279,1.114c0,0.372,0,0.743,0,1.115
	c0.152,0.405-0.326,1.44,0.278,1.394c0,0.372,0,0.743,0,1.115c0.024,0.441-0.133,1.063,0.279,1.115c0,0.371,0,0.743,0,1.114
	c0.023,0.441-0.134,1.063,0.278,1.115c0,0.465,0,0.93,0,1.394c0.153,0.405-0.325,1.44,0.279,1.394c0,0.372,0,0.743,0,1.115
	c0.152,0.405-0.325,1.439,0.279,1.394c0,0.464,0,0.929,0,1.394c0.022,0.44-0.134,1.063,0.278,1.115c0,0.463,0,0.928,0,1.393
	c0.16,0.49-0.337,1.638,0.278,1.672c0,0.372,0,0.744,0,1.115c0.152,0.405-0.325,1.441,0.279,1.394c0,0.466,0,0.93,0,1.395
	c0.152,0.404-0.326,1.44,0.278,1.393c0,0.465,0,0.929,0,1.394c0.166,0.577-0.344,1.831,0.278,1.951c0,0.65,0,1.301,0,1.952
	c0,1.485,0,2.972,0,4.458c0,0.558,0,1.115,0,1.673c-0.378,0.086-0.231,0.697-0.278,1.115c0,0.278,0,0.557,0,0.835
	c-0.378,0.086-0.231,0.698-0.278,1.115c-0.031,2.198-0.605,3.854-0.836,5.853c-0.379,0.087-0.231,0.698-0.279,1.115
	c-0.152,2.913-0.777,5.355-1.115,8.083c-0.378,0.086-0.231,0.698-0.279,1.114c0.128,1.616-0.464,2.509-0.557,3.902
	c-0.378,0.086-0.231,0.698-0.279,1.114c0,0.279,0,0.559,0,0.837c-0.462,0.48-0.462,2.863,0,3.345
	c0.11,1.654,0.812,2.719,1.393,3.901c0.252,0.492,0.624,0.863,1.116,1.115c2.129,0.938,4.462,1.137,6.131-0.279
	c1.779-1.509,2.136-5.256,3.065-8.36c0.89-2.975,1.96-5.801,2.787-8.361c2.098-6.487,3.546-11.983,6.968-15.329
	c0.491-0.253,0.863-0.624,1.116-1.115c0.082-0.569,0.753-0.547,0.835-1.115c0.675-0.439,1.232-0.996,1.673-1.673
	c1.311-2.219,2.933-4.127,2.787-7.803c-0.024-0.441,0.134-1.063-0.278-1.116c-0.421-2.766-2.208-4.431-3.903-6.688
	c-0.188-0.251-0.098-0.602-0.278-0.836c-0.15-0.195-0.385-0.334-0.557-0.557c-0.663-0.858-1.553-1.688-2.23-2.788
	c-0.454-0.737-1.502-1.871-2.229-2.787c-1.144-1.439-2.404-2.864-3.624-4.459c-0.164-0.216-0.096-0.594-0.278-0.836
	c-0.104-0.14-0.461-0.147-0.557-0.278c-0.154-0.212-0.103-0.6-0.279-0.836c-0.294-0.391-0.917-0.991-1.394-1.951
	c-0.804-1.62-1.779-3.875-1.952-6.411C42.146,58.2,42.146,56.993,42.146,55.785z"/>
<path fill-rule="evenodd" clip-rule="evenodd" fill="#787878" d="M32.671,53.276c-0.386,0.449-0.79,0.883-1.115,1.394
	c-0.586,0.613-1.087,0.613-1.672,0c0.339-0.962,0.92-1.681,1.672-2.23C31.928,52.719,32.398,52.899,32.671,53.276z"/>
<path fill-rule="evenodd" clip-rule="evenodd" fill="#787878" d="M47.723,0.321c0.206-0.628,1.563-0.109,2.229-0.278
	c0,0.093,0,0.186,0,0.278C49.209,0.321,48.466,0.321,47.723,0.321z"/>
<path fill-rule="evenodd" clip-rule="evenodd" fill="#333333" d="M52.46,0.042c0.441,0.023,1.064-0.134,1.114,0.278
	c-0.37,0-0.743,0-1.114,0C52.46,0.229,52.46,0.135,52.46,0.042z"/>
<path fill-rule="evenodd" clip-rule="evenodd" fill="#787878" d="M29.885,12.305c0.725,1.226,1.544,2.358,2.229,3.624
	c-0.586,0.343-1.087,0.771-1.673,1.115c-1.048-0.81-1.61-2.106-2.229-3.345c-0.093,0-0.186,0-0.279,0
	C28.477,13.127,29.248,12.784,29.885,12.305z"/>
<path fill-rule="evenodd" clip-rule="evenodd" fill="#191919" d="M16.785,15.372c0.464,0,0.929,0,1.394,0
	C18.304,15.826,16.659,15.826,16.785,15.372z"/>
<path fill-rule="evenodd" clip-rule="evenodd" fill="#333333" d="M0.341,17.322c-0.455,0.126-0.455-1.519,0-1.393
	C0.341,16.393,0.341,16.858,0.341,17.322z"/>
<path fill-rule="evenodd" clip-rule="evenodd" fill="#787878" d="M16.228,18.159c0.836,0,1.672,0,2.508,0
	C18.524,18.619,16.439,18.619,16.228,18.159z"/>
<path fill-rule="evenodd" clip-rule="evenodd" fill="#787878" d="M27.655,24.569c-0.481-1.267-0.87-2.224,0.278-2.23
	c1.236-0.006,0.951,1.191,1.394,2.509c-0.324,0.234-0.748,0.368-1.394,0.279C27.979,24.802,27.872,24.63,27.655,24.569z"/>
<path fill-rule="evenodd" clip-rule="evenodd" fill="#333333" d="M21.523,25.126c0.417,0.047,1.028-0.1,1.114,0.279
	C22.196,25.382,21.574,25.539,21.523,25.126z"/>
<path fill-rule="evenodd" clip-rule="evenodd" fill="#333333" d="M27.376,25.405c0.015-0.356,0.357-0.386,0.279-0.836
	c0.217,0.062,0.324,0.233,0.278,0.558C27.926,25.397,27.592,25.342,27.376,25.405z"/>
<path fill-rule="evenodd" clip-rule="evenodd" fill="#787878" d="M73.643,26.798c0-1.021,0-2.043,0-3.065
	C74.104,24.123,74.104,26.408,73.643,26.798z"/>
<path fill-rule="evenodd" clip-rule="evenodd" fill="#787878" d="M21.244,27.914c0.65,0,1.301,0,1.951,0c0,0.093,0,0.186,0,0.279
	C22.618,28.026,21.365,28.537,21.244,27.914z"/>
<path fill-rule="evenodd" clip-rule="evenodd" fill="#787878" d="M27.097,28.192c0.052-0.413,0.674-0.256,1.115-0.279
	C28.125,28.292,27.514,28.145,27.097,28.192z"/>
<path fill-rule="evenodd" clip-rule="evenodd" fill="#787878" d="M68.346,27.914c1.088-0.215,1.446,1.03,2.229,0.279
	c-0.267,0.754-0.451,1.593-0.835,2.229c-0.076-1.234-3.078-0.682-2.23-1.951C67.948,28.446,67.729,27.76,68.346,27.914z"/>
<path fill-rule="evenodd" clip-rule="evenodd" fill="#787878" d="M47.444,30.979c0.641,0.751,0.098,2.688,0.278,3.902
	c-0.095,0-0.187,0-0.278,0C47.444,33.581,47.444,32.28,47.444,30.979z"/>
<path fill-rule="evenodd" clip-rule="evenodd" fill="#333333" d="M44.655,31.258c0.412,0.052,0.256,0.674,0.28,1.115
	C44.557,32.286,44.703,31.675,44.655,31.258z"/>
<path fill-rule="evenodd" clip-rule="evenodd" fill="#333333" d="M44.936,34.324c-0.048,0.417,0.099,1.028-0.28,1.115
	C44.679,34.998,44.522,34.375,44.936,34.324z"/>
<path fill-rule="evenodd" clip-rule="evenodd" fill="#333333" d="M47.723,34.881c-0.049,0.417,0.098,1.029-0.278,1.115
	c0-0.372,0-0.743,0-1.115C47.536,34.881,47.628,34.881,47.723,34.881z"/>
<path fill-rule="evenodd" clip-rule="evenodd" fill="#333333" d="M64.166,38.783c0.558,0,1.114,0,1.671,0
	C65.883,39.241,64.12,39.241,64.166,38.783z"/>
<path fill-rule="evenodd" clip-rule="evenodd" fill="#FFFFFF" d="M28.769,9.797c0.402-0.292,1.753-0.938,2.509-1.393
	c0.32-0.193,0.511-0.653,0.836-0.836c0.361-0.205,0.75-0.064,1.114-0.279c1.357-0.795,2.581-1.695,3.902-2.508
	c3.453-2.125,6.126-3.93,10.592-4.46c0.743,0,1.486,0,2.229,0c0.465,0,0.928,0,1.393,0c0.372,0,0.743,0,1.115,0
	c0.371,0,0.744,0,1.114,0c3.554,0.35,6.511,1.294,8.641,3.066c0.438,0.676,0.998,1.232,1.673,1.672
	c2.178,2.106,3.907,5.79,5.573,8.919c1.72,3.226,3.643,6.278,4.182,9.755c0,1.022,0,2.044,0,3.065
	c0.146,1.169-0.487,1.557-0.557,2.509c-0.463,0.282-0.303,1.184-0.56,1.672c-0.779,1.914-1.324,4.063-2.508,5.574
	c-0.491,0.252-0.864,0.624-1.114,1.115c-0.749,0.646-1.69,1.097-3.067,1.115c-0.557,0-1.113,0-1.671,0
	c-2.813-0.16-3.914-2.032-6.132-2.787c0.2-0.452-1.314-0.452-1.114,0c-1.61,0.49-2.248,2.148-3.067,3.345
	c-2.352,3.436-4.902,7.364-7.524,10.87c-1.477,1.774-3.05,3.455-4.182,5.574c-0.248,0.123-0.496,0.245-0.557,0.558
	c-3.463,2.309-6.439-1.753-8.918-3.066c-0.273-0.377-0.743-0.557-1.115-0.836c-1.023-1.113-2.014-2.26-1.672-4.738
	c1.648-4.125,6.739-5.123,10.87-7.247c2.182-1.122,3.916-1.905,3.9-5.017c0.379-0.086,0.232-0.697,0.28-1.115
	c0-0.65,0-1.301,0-1.951c-0.024-0.441,0.132-1.063-0.28-1.115c-0.507-3.486-0.557-7.431-2.787-9.197
	c-5.524,0.048-6.929,4.219-11.427,5.295c-0.881-0.045-0.931,0.741-1.951,0.558c-0.093,0-0.186,0-0.278,0
	c-0.441,0.023-1.063-0.134-1.115,0.279c-0.743,0-1.486,0-2.229,0c-0.035-0.616-1.183-0.119-1.672-0.279c-0.65,0-1.301,0-1.951,0
	c-6.475-0.423-11.421-3.49-16.165-6.132c-1.661-0.924-4.407-2.06-4.738-4.459c0-0.464,0-0.929,0-1.393
	c0.477-1.754,1.575-2.885,3.624-3.066c1.208,0,2.415,0,3.624,0c3.513,0.388,5.771,2.032,9.197,2.508
	c-0.126,0.455,1.519,0.455,1.394,0c3.461-0.72,5.637-2.724,8.361-4.181C27.32,10.763,28.112,10.348,28.769,9.797z M49.396,2.829
	c-4.14,0.238-7.072,2.187-9.479,3.624c-1.198,0.716-2.182,1.278-3.344,1.951c-2.294,1.329-4.4,2.712-6.688,3.901
	c-0.637,0.479-1.408,0.822-1.952,1.394c-3.034,1.519-5.388,3.716-9.198,4.459c-0.835,0-1.671,0-2.508,0
	c-3.48-0.607-6.1-2.075-9.476-2.787c0.045-0.458-1.719-0.458-1.673,0c-1.045,0.162-1.854,0.562-2.229,1.394
	c0.834,1.191,2.359,1.792,3.623,2.508c4.438,2.515,9.06,5.459,15.051,5.854c0.051,0.413,0.673,0.255,1.114,0.279
	c0.093,0,0.187,0,0.279,0c-0.047,0.604,0.989,0.126,1.394,0.278c0.667-0.17,2.022,0.35,2.23-0.278c0.279,0,0.557,0,0.836,0
	c0.216-0.063,0.55-0.008,0.557-0.279c0.646,0.089,1.07-0.045,1.394-0.279c3.792-1.224,5.688-4.345,9.755-5.295
	c1.021,0,2.043,0,3.064,0c4.736,0.839,4.366,6.784,5.298,11.427c0,1.3,0,2.601,0,3.902c0,0.372,0,0.743,0,1.115
	c-0.205,1.563-0.365,3.167-1.395,3.902c-0.491,0.252-0.863,0.624-1.114,1.115c-1.05,1.287-2.829,1.75-4.46,2.508
	c-2.061,0.958-4.392,2.087-5.853,3.065c-1.187,0.795-2.257,1.309-1.951,3.066c0.059,0.313,0.31,0.434,0.557,0.558
	c0.252,0.492,0.624,0.863,1.116,1.115c0.093,0,0.185,0,0.278,0c1.644,1.051,3.136,2.252,5.016,3.065
	c0.387-0.706,1.076-1.255,1.395-1.672c0.178-0.232,0.09-0.59,0.278-0.836c0.459-0.601,1.36-1.264,1.673-1.672
	c0.176-0.232,0.09-0.591,0.278-0.836c0.591-0.769,1.381-1.448,1.951-2.23c0.367-0.502,0.505-0.896,0.836-1.394
	c0.406-0.609,1.144-1.338,1.395-1.672c0.168-0.227,0.14-0.631,0.278-0.836c0.118-0.174,0.437-0.364,0.557-0.558
	c0.158-0.253,0.099-0.565,0.278-0.836c0.28-0.418,0.855-0.733,1.116-1.115c0.166-0.246,0.146-0.623,0.278-0.836
	c0.103-0.166,0.437-0.377,0.557-0.557c1.269-1.901,2.262-3.933,3.624-5.017c3.256-2.592,6.74-0.154,9.755,1.672
	c0.036,0.459,1.913,0.459,1.949,0c2.683-0.477,2.867-3.451,3.903-5.575c0.384-0.636,0.568-1.475,0.835-2.229
	c0.545-1.818,0.731-3.731,0.28-5.017c-0.879-2.501-3.367-6.993-4.738-9.476c-0.789-1.428-1.277-2.544-1.951-3.623
	c-0.763-1.225-1.555-2.271-2.229-3.066c0-0.093,0-0.185,0-0.278c-0.455-0.752-1.09-1.326-1.951-1.672
	c-2.356-1.174-5.043-2.019-8.36-2.23C51.501,2.37,49.518,2.37,49.396,2.829z"/>
<path fill-rule="evenodd" clip-rule="evenodd" fill="#C3C3C3" d="M3.964,12.863c0.572-0.463,3.051-0.463,3.624,0
	C6.379,12.863,5.172,12.863,3.964,12.863z"/>
<path fill-rule="evenodd" clip-rule="evenodd" fill="#C3C3C3" d="M39.082,19.552c0.39-0.462,2.676-0.462,3.064,0
	C41.125,19.552,40.104,19.552,39.082,19.552z"/>
<path fill-rule="evenodd" clip-rule="evenodd" fill="#787878" d="M26.54,11.191c-0.838-1.02-1.216-2.501-2.23-3.345
	c0.119-0.4,0.502-0.621,0.836-0.836c0.021-0.014,1.084-0.545,0.836-0.557c1.339,0.066,1.271,3.047,2.787,3.344
	C28.112,10.348,27.32,10.763,26.54,11.191z"/>
<path fill-rule="evenodd" clip-rule="evenodd" fill="#333333" d="M63.888,35.996c0.649,0,1.301,0,1.949,0
	C65.801,36.456,63.924,36.456,63.888,35.996z"/>
</svg>
