<?xml version="1.0" encoding="utf-8"?>
<!-- Generator: Adobe Illustrator 15.0.0, SVG Export Plug-In  -->
<!DOCTYPE svg PUBLIC "-//W3C//DTD SVG 1.1//EN" "http://www.w3.org/Graphics/SVG/1.1/DTD/svg11.dtd" [
	<!ENTITY ns_flows "http://ns.adobe.com/Flows/1.0/">
]>
<svg version="1.1"
	 xmlns="http://www.w3.org/2000/svg" xmlns:xlink="http://www.w3.org/1999/xlink" xmlns:a="http://ns.adobe.com/AdobeSVGViewerExtensions/3.0/"
	 x="0px" y="0px" width="142px" height="142px" viewBox="-33.94 -2.313 142 142" enable-background="new -33.94 -2.313 142 142"
	 xml:space="preserve">
<defs>
</defs>
<path fill-rule="evenodd" clip-rule="evenodd" fill="#1A1A1A" d="M47.723,0.318c0.034-0.615,1.182-0.118,1.673-0.278
	C49.359,0.655,48.211,0.158,47.723,0.318z"/>
<path fill-rule="evenodd" clip-rule="evenodd" fill="#1A1A1A" d="M51.903,0.04c0.489,0.16,1.637-0.337,1.671,0.278
	C53.086,0.158,51.938,0.655,51.903,0.04z"/>
<path fill-rule="evenodd" clip-rule="evenodd" fill="#1A1A1A" d="M47.723,3.105c0.052-0.413,0.673-0.256,1.113-0.279
	C48.786,3.24,48.163,3.082,47.723,3.105z"/>
<path fill-rule="evenodd" clip-rule="evenodd" fill="#1A1A1A" d="M52.46,2.826c0.417,0.048,1.028-0.099,1.114,0.279
	C53.157,3.058,52.547,3.205,52.46,2.826z"/>
<path fill-rule="evenodd" clip-rule="evenodd" fill="#1A1A1A" d="M16.228,15.369c0.441,0.023,1.063-0.134,1.115,0.278
	C16.925,15.6,16.313,15.747,16.228,15.369z"/>
<path fill-rule="evenodd" clip-rule="evenodd" fill="#1A1A1A" d="M0.341,15.926c0,0.464,0,0.929,0,1.393
	C-0.114,17.445-0.114,15.8,0.341,15.926z"/>
<path fill-rule="evenodd" clip-rule="evenodd" fill="#1A1A1A" d="M16.506,18.156c0.743,0,1.486,0,2.229,0
	C18.612,18.616,16.63,18.616,16.506,18.156z"/>
<path fill-rule="evenodd" clip-rule="evenodd" fill="#1A1A1A" d="M73.643,23.73c0.461,0.3,0.461,2.487,0,2.787
	C73.643,25.588,73.643,24.659,73.643,23.73z"/>
<path fill-rule="evenodd" clip-rule="evenodd" fill="#1A1A1A" d="M20.965,25.124c0.405,0.152,1.441-0.326,1.394,0.279
	C21.954,25.25,20.918,25.728,20.965,25.124z"/>
<path fill-rule="evenodd" clip-rule="evenodd" fill="#1A1A1A" d="M24.589,25.402c0.558,0,1.115,0,1.672,0
	C26.307,25.859,24.543,25.859,24.589,25.402z"/>
<path fill-rule="evenodd" clip-rule="evenodd" fill="#1A1A1A" d="M71.134,25.681c-0.048,0.417,0.099,1.029-0.278,1.115
	C70.901,26.379,70.756,25.767,71.134,25.681z"/>
<path fill-rule="evenodd" clip-rule="evenodd" fill="#1A1A1A" d="M19.015,27.632c0.417,0.048,1.028-0.1,1.114,0.279
	C19.688,27.887,19.066,28.044,19.015,27.632z"/>
<path fill-rule="evenodd" clip-rule="evenodd" fill="#1A1A1A" d="M21.244,27.911c0.49,0.16,1.638-0.337,1.672,0.279
	C22.426,28.029,21.279,28.526,21.244,27.911z"/>
<path fill-rule="evenodd" clip-rule="evenodd" fill="#1A1A1A" d="M44.655,30.698c0.604-0.047,0.128,0.988,0.28,1.393
	C44.331,32.138,44.81,31.103,44.655,30.698z"/>
<path fill-rule="evenodd" clip-rule="evenodd" fill="#1A1A1A" d="M47.444,30.977c0.462,1.03,0.462,3.987,0,5.017
	C47.444,34.321,47.444,32.648,47.444,30.977z"/>
<path fill-rule="evenodd" clip-rule="evenodd" fill="#1A1A1A" d="M44.936,34.599c-0.162,0.491,0.337,1.638-0.28,1.673
	C44.815,35.782,44.318,34.634,44.936,34.599z"/>
<path fill-rule="evenodd" clip-rule="evenodd" fill="#1A1A1A" d="M64.166,35.993c0.558,0,1.114,0,1.671,0
	C65.883,36.451,64.12,36.451,64.166,35.993z"/>
<path fill-rule="evenodd" clip-rule="evenodd" fill="#1A1A1A" d="M64.166,38.78c0.465,0,0.928,0,1.393,0
	C65.685,39.236,64.04,39.236,64.166,38.78z"/>
<path fill-rule="evenodd" clip-rule="evenodd" fill="#1A1A1A" d="M31.557,51.322c0,0.65,0,1.301,0,1.951
	C31.098,53.235,31.098,51.36,31.557,51.322z"/>
<path fill-rule="evenodd" clip-rule="evenodd" fill="#1A1A1A" d="M28.769,54.388c0.605-0.047,0.127,0.989,0.28,1.394
	C28.444,55.829,28.922,54.793,28.769,54.388z"/>
<path fill-rule="evenodd" clip-rule="evenodd" fill="#1A1A1A" d="M31.557,54.667c0.605-0.047,0.126,0.989,0.279,1.393
	c-0.093,0-0.186,0-0.279,0C31.557,55.596,31.557,55.131,31.557,54.667z"/>
<path fill-rule="evenodd" clip-rule="evenodd" fill="#1A1A1A" d="M44.936,54.945c-0.152,0.405,0.324,1.441-0.28,1.394
	C44.81,55.934,44.331,54.898,44.936,54.945z"/>
<path fill-rule="evenodd" clip-rule="evenodd" fill="#1A1A1A" d="M42.146,55.224c0,1.394,0,2.788,0,4.181
	C41.685,58.65,41.685,55.979,42.146,55.224z"/>
<path fill-rule="evenodd" clip-rule="evenodd" fill="#1A1A1A" d="M29.049,56.896c0.324,0.047,0.302,0.441,0.278,0.836
	c0,0.093,0,0.186,0,0.279C28.949,57.925,29.096,57.313,29.049,56.896z"/>
<path fill-rule="evenodd" clip-rule="evenodd" fill="#1A1A1A" d="M44.655,58.29c0.379,0.087,0.232,0.698,0.28,1.115
	C44.522,59.353,44.679,58.731,44.655,58.29z"/>
<path fill-rule="evenodd" clip-rule="evenodd" fill="#C1C1C1" d="M30.721,69.717c0.604-0.047,0.126,0.988,0.278,1.395
	c-0.17-0.017-0.33-0.043-0.278-0.28c0-0.092,0-0.185,0-0.278C30.721,70.275,30.721,69.996,30.721,69.717z"/>
<path fill-rule="evenodd" clip-rule="evenodd" fill="#C1C1C1" d="M33.508,71.39c0.413,0.051,0.255,0.673,0.278,1.113
	c0,0.094,0,0.187,0,0.279C33.182,72.831,33.66,71.794,33.508,71.39z"/>
<path fill-rule="evenodd" clip-rule="evenodd" fill="#C1C1C1" d="M32.95,91.178c0.413,0.052,0.255,0.674,0.278,1.114
	c-0.092,0-0.185,0-0.278,0C32.95,91.921,32.95,91.549,32.95,91.178z"/>
<path fill-rule="evenodd" clip-rule="evenodd" fill="#777777" d="M32.95,92.292c0.093,0,0.186,0,0.278,0c0,0.465,0,0.93,0,1.395
	c-0.092,0-0.185,0-0.278,0C32.95,93.222,32.95,92.757,32.95,92.292z"/>
<path fill-rule="evenodd" clip-rule="evenodd" fill="#323232" d="M32.95,93.687c0.093,0,0.186,0,0.278,0c0,0.371,0,0.743,0,1.114
	c-0.092,0-0.185,0-0.278,0C32.95,94.43,32.95,94.058,32.95,93.687z"/>
<path fill-rule="evenodd" clip-rule="evenodd" fill="#777777" d="M32.95,97.588c0.093,0,0.186,0,0.278,0
	c-0.047,0.417,0.1,1.028-0.278,1.115C32.95,98.332,32.95,97.96,32.95,97.588z"/>
<path fill-rule="evenodd" clip-rule="evenodd" fill="#C1C1C1" d="M30.721,114.589c-0.048,0.418,0.1,1.028-0.279,1.116
	C30.489,115.288,30.342,114.676,30.721,114.589z"/>
<path fill-rule="evenodd" clip-rule="evenodd" fill="#1A1A1A" d="M41.59,22.058c0.817,0.019,1.036,0.637,1.395,1.115
	C42.474,22.847,42.041,22.444,41.59,22.058z"/>
<path fill-rule="evenodd" clip-rule="evenodd" fill="#1A1A1A" d="M31.278,133.821c0.491,0.252,0.863,0.623,1.115,1.115
	C31.901,134.684,31.53,134.312,31.278,133.821z"/>
<path fill-rule="evenodd" clip-rule="evenodd" fill="#777777" d="M49.114,115.984c0.247-0.776,0.349-1.696,0.838-2.23
	c0.389,0.54,1.442,0.416,1.951,0.836c0.146,0.225,0.291,0.453,0.278,0.836c0,0.28,0,0.559,0,0.837
	c-1.035-0.173-1.751-0.664-2.786-0.837C49.439,115.75,49.333,115.921,49.114,115.984z"/>
<path fill-rule="evenodd" clip-rule="evenodd" fill="#777777" d="M55.247,75.849c1.14-0.16,1.11-1.491,2.509-1.395
	c0.124,0.249,0.244,0.499,0.557,0.559c-0.116,1.276-1.452,1.333-1.949,2.229C55.746,77.022,55.664,76.268,55.247,75.849z"/>
<path fill-rule="evenodd" clip-rule="evenodd" fill="#323232" d="M44.936,59.405c0.567,3.148,2.006,5.427,3.344,7.804
	c-0.227-0.052-0.278-0.279-0.557-0.278c-1.074-1.436-3.344-1.675-5.295-2.229c0.492-0.064,1.394,0.28,1.113-0.558
	c-0.833-1.211-1.29-2.799-1.395-4.738c0-1.393,0-2.787,0-4.181c0.042-1.68,0.331-3.145,0.838-4.459
	c0.19-0.493,0.393-1.072,0.557-1.393c0.32-0.629,1.044-1.575,1.673-2.23c0.227-0.237,0.333-0.602,0.558-0.836
	c0.753-0.786,1.727-2.729,2.508-3.902c1.591-2.386,3.193-4.729,4.738-6.968c0.583-0.346,1.048-0.811,1.395-1.393
	c0.522-0.372,1.21-0.744,1.671-0.836c3.321-0.662,5.722,1.964,8.083,2.787c-0.046,0.458,1.717,0.458,1.671,0
	c1.983-0.305,2.681-2.243,3.346-3.902c0.676-1.683,1.074-3.65,1.673-5.295c0.377-0.086,0.23-0.698,0.278-1.115
	c-0.334-3.896-2.727-7.731-4.737-11.427c-0.668-1.223-1.475-2.542-2.23-3.902c-0.673-1.209-1.43-2.444-2.508-3.623
	c-0.591-0.645-1.396-1.624-1.951-1.951c-0.828-0.489-2.021-0.53-3.065-0.836c-0.985-0.289-1.961-0.874-3.067-0.836
	c-0.086-0.378-0.697-0.231-1.114-0.279c-1.208,0-2.416,0-3.624,0c-0.44,0.023-1.062-0.134-1.113,0.279
	c-2.608,0.42-4.906,1.451-6.968,2.787c-0.217,0.14-0.389,0.456-0.558,0.558c-0.581,0.347-1.372,0.492-1.951,0.835
	c-0.592,0.352-1.1,0.769-1.673,1.115c-3.236,1.958-6.47,4.021-10.033,6.131c-2.456,1.455-4.806,3.062-7.805,3.624
	c-0.743,0-1.486,0-2.229,0c-4.747-0.264-7.664-3.551-12.821-2.509c-0.366,0.099-0.438,0.491-0.836,0.558
	c-0.024,0.396-0.046,0.789,0.278,0.836c1.072,1.343,2.751,1.699,4.181,2.508c0.682,0.386,1.291,1.048,1.951,1.393
	c3.313,1.735,7.05,3.575,11.706,4.181c-0.047,0.604,0.989,0.126,1.394,0.279c0.743,0,1.486,0,2.229,0
	c-0.045,0.457,1.718,0.457,1.672,0c1.519-0.188,2.681-0.342,3.902-0.836c0.736-0.298,1.569-0.76,2.229-1.394
	c0.237-0.227,0.603-0.333,0.836-0.558c0.238-0.227,0.603-0.333,0.836-0.557c0.108-0.104,0.725-0.567,1.115-0.836
	c1.457-1.004,5.661-3.002,8.361-1.394c0.439,0.676,0.998,1.232,1.673,1.672c1.396,2.504,1.833,5.97,2.23,9.477
	c0,1.672,0,3.344,0,5.017c-0.695,9.71-14.422,6.389-15.888,15.329c-0.459,0.038-0.459,1.913,0,1.951c0,0.464,0,0.929,0,1.394
	c0,0.464,0,0.929,0,1.393c-0.324-0.045-0.496,0.062-0.558,0.279c-0.949-0.021-1.038,0.819-1.394,1.393c-0.093,0-0.186,0-0.278,0
	c0.023-0.395,0.045-0.789-0.278-0.836c0-0.372,0-0.743,0-1.115c-0.153-0.405,0.325-1.441-0.28-1.394
	c-0.249-3.641,0.127-5.107,1.394-7.246c2.13-3.597,7.06-4.997,11.148-7.247c1.837-1.011,3.062-1.238,3.344-3.623
	c0.617-0.035,0.118-1.182,0.28-1.673c0-0.836,0-1.672,0-2.508c-0.152-0.405,0.324-1.44-0.28-1.393
	c-0.569-2.496-0.762-5.37-1.671-7.525c-0.358-0.478-0.577-1.096-1.395-1.115c-1.324,0.08-2.334,0.112-3.344,0.557
	c-0.823,0.363-1.293,1.232-1.952,1.672c-0.367,0.246-0.973,0.282-1.394,0.558c-0.349,0.229-0.492,0.618-0.836,0.836
	c-0.367,0.233-0.899,0.257-1.394,0.558c-0.308,0.187-0.547,0.7-0.836,0.836c-0.274,0.129-0.958,0.109-1.394,0.278
	c-1.582,0.613-4.123,1.129-7.525,0.836c-0.034-0.616-1.182-0.119-1.672-0.279c-0.372,0-0.743,0-1.115,0
	c-0.086-0.378-0.698-0.231-1.114-0.279c-5.521-0.918-10.845-3.959-15.33-6.689c-1.785-1.085-3.212-1.738-3.345-3.623
	c0-0.464,0-0.929,0-1.393c-0.114-0.83,0.733-1.735,1.394-2.23c3.448-2.585,10.851,0.408,14.493,1.672
	c0.086,0.378,0.698,0.231,1.115,0.278c5.286-1.578,9.579-4.72,14.214-7.525c2.203-1.333,4.462-2.84,6.689-4.18
	c0.554-0.333,1.323-0.464,1.951-0.836c0.479-0.284,0.916-0.887,1.393-1.115c0.4-0.191,0.688-0.11,1.116-0.278
	c1.21-0.475,2.837-1.398,5.017-1.394c0.488-0.16,1.637,0.337,1.673-0.278c0.835,0,1.671,0,2.508,0
	c0.034,0.615,1.183,0.118,1.671,0.278c3.317,0.214,5.86,1.201,8.084,2.508c0.812,1.046,1.741,1.975,2.786,2.788
	c2.114,2.34,3.467,5.426,5.017,8.361c1.631,3.09,3.521,5.793,4.182,9.755c0,0.929,0,1.858,0,2.787
	c-0.438,3.927-1.949,6.784-3.346,9.755c-0.676,0.439-1.232,0.997-1.671,1.672c-0.894,0.409-1.549,1.053-3.067,0.836
	c-0.465,0-0.928,0-1.393,0c-3.554,0.022-3.946-3.114-7.803-2.787c-0.585,0.346-1.048,0.811-1.395,1.394
	c-0.718,1.246-1.465,2.427-2.229,3.624c-0.203,0.315-0.331,0.761-0.558,1.114c-0.069,0.106-0.517,0.187-0.557,0.279
	c-0.066,0.143,0.084,0.429,0,0.557c-0.07,0.104-0.517,0.188-0.559,0.279c-0.064,0.143,0.086,0.43,0,0.557
	c-0.068,0.103-0.518,0.188-0.558,0.279c-0.526,1.167-1.633,2.635-2.508,3.902c-1.364,1.973-2.675,3.786-3.065,6.967
	c-0.604-0.047-0.126,0.989-0.28,1.394c0,0.65,0,1.3,0,1.951C44.679,58.731,44.522,59.353,44.936,59.405z"/>
<path fill-rule="evenodd" clip-rule="evenodd" fill="#1A1A1A" d="M54.969,37.387c0.347-0.583,0.81-1.047,1.395-1.394
	C56.017,36.576,55.552,37.041,54.969,37.387z"/>
<path fill-rule="evenodd" clip-rule="evenodd" fill="#1A1A1A" d="M68.626,37.944c0.438-0.675,0.995-1.232,1.671-1.672
	C69.858,36.947,69.301,37.504,68.626,37.944z"/>
<path fill-rule="evenodd" clip-rule="evenodd" fill="#1A1A1A" d="M61.658,2.826c1.046,0.813,1.974,1.742,2.786,2.788
	C63.399,4.801,62.47,3.872,61.658,2.826z"/>
<path fill-rule="evenodd" clip-rule="evenodd" fill="#1A1A1A" d="M53.018,35.436c0.347-0.583,0.812-1.047,1.395-1.393
	C54.065,34.625,53.601,35.09,53.018,35.436z"/>
<path fill-rule="evenodd" clip-rule="evenodd" fill="#1A1A1A" d="M3.128,17.041C2.803,16.994,2.826,16.6,2.85,16.205
	c0.397-0.067,0.47-0.459,0.836-0.558C3.567,16.179,2.889,16.151,3.128,17.041z"/>
<path fill-rule="evenodd" clip-rule="evenodd" fill="#1A1A1A" d="M43.541,19.828c0.676,0.44,1.232,0.997,1.673,1.672
	C44.539,21.06,43.98,20.503,43.541,19.828z"/>
<path fill-rule="evenodd" clip-rule="evenodd" fill="#FFFFFF" d="M29.605,57.732c0.355-0.574,0.444-1.414,1.394-1.393
	c0.65,0,1.301,0,1.951,0c2.568,1.241,6.011,1.606,7.247,4.181c0.177,0.938-0.359,2.589,0.278,3.065
	c0.185,0.838,0.962,1.082,1.952,1.115c1.951,0.555,4.221,0.794,5.295,2.229c0.345,0.583,0.809,1.047,1.392,1.394
	c2.185,2.37,3.978,5.128,6.133,7.525c0.417,0.419,0.499,1.173,1.116,1.394c2.092,3.388,5.305,5.657,5.852,10.59
	c0,1.395,0,2.788,0,4.182c-0.058,1.172-0.515,2.206-1.116,3.345c-0.27,0.515-0.515,1.192-0.835,1.672
	c-0.068,0.103-0.517,0.189-0.557,0.279c-0.171,0.377-0.19,0.66-0.558,1.114c-0.184,0.227-0.675,0.326-0.837,0.558
	c-0.188,0.27-0.074,0.604-0.278,0.836c-1.154,1.32-2.452,2.372-3.622,3.902c-0.215,0.279-0.345,0.549-0.56,0.836
	c-1.117,1.494-1.921,3.896-2.786,6.132c-0.255,0.659-0.992,1.793-1.114,3.065c-0.489,0.534-0.591,1.454-0.838,2.23
	c-0.793,3.036-2.163,6.875-3.343,10.869c-0.826,2.795-1.168,5.904-3.065,7.804c-0.868,0.868-1.998,1.407-3.624,1.673
	c-1.115,0-2.229,0-3.345,0c-1.302-0.185-2.447-0.526-3.065-1.394c-0.346-0.583-0.811-1.048-1.394-1.394
	c-1.403-1.198-2.03-3.174-2.229-5.574c0-1.023,0-2.044,0-3.066c0.244-3.286,0.962-6.098,1.393-9.196
	c0.379-0.088,0.231-0.698,0.279-1.116c0-0.092,0-0.186,0-0.278s0-0.186,0-0.278c0.59-5.264,1.744-9.962,2.229-15.329
	c0.378-0.087,0.231-0.698,0.278-1.115c0-0.929,0-1.858,0-2.787c0-0.371,0-0.743,0-1.114c0-0.465,0-0.93,0-1.395
	c-0.023-0.44,0.134-1.063-0.278-1.114c0-0.093,0-0.187,0-0.279c-0.023-0.44,0.134-1.063-0.279-1.115
	c-0.293-5.931-1.036-11.413-1.672-17.001c0-0.558,0-1.114,0-1.671c-0.152-0.406,0.326-1.442-0.278-1.395
	c-0.4-3.037-0.783-6.093-1.115-9.197C29.605,59.591,29.605,58.662,29.605,57.732z M41.033,67.208
	c-2.707-0.359-3.648-2.484-3.345-5.853c-1.758-0.936-3.816-1.572-5.574-2.508c0.438,3.835,0.985,7.562,1.394,11.427
	c0,0.372,0,0.743,0,1.115c0.152,0.404-0.326,1.44,0.278,1.393c0.492,4.525,1.003,9.031,1.394,13.657
	c0.047,0.417-0.1,1.028,0.278,1.114c0,0.651,0,1.302,0,1.951c0,0.372,0,0.743,0,1.115c0.166,0.577-0.344,1.831,0.278,1.951
	c0,0.186,0,0.372,0,0.557c0,1.673,0,3.345,0,5.018c-0.376,5.662-1.673,10.404-2.229,15.887c-0.452,0.755-0.359,2.056-0.558,3.065
	c-0.247,2.819-1.106,5.025-1.115,8.082c-0.461,0.213-0.461,2.297,0,2.509c-0.104,1.962,0.859,2.857,1.393,4.181
	c0.252,0.492,0.624,0.863,1.116,1.115c2.293,1.184,5.037,1.02,6.411-0.279c0.741-0.701,1.17-2.592,1.673-4.181
	c1.41-4.463,3.075-10.438,4.179-13.936c0.463-0.281,0.303-1.184,0.559-1.672c1.715-5.159,3.646-10.103,7.247-13.378
	c0.903-0.489,1.392-1.395,1.951-2.229c1.477-2.046,3.071-3.77,3.344-6.411c0.515-4.997-3.38-8.617-5.295-11.706
	c-0.389-0.634-0.966-1.08-1.395-1.672c-1.292-1.398-2.557-3-3.903-4.738c-1.893-2.444-3.255-5.271-6.968-5.295
	C42.097,67.075,41.474,67.232,41.033,67.208z"/>
<path fill-rule="evenodd" clip-rule="evenodd" fill="#C1C1C1" d="M47.723,66.93c0.278-0.001,0.33,0.226,0.557,0.278
	c0.082,0.569,0.755,0.547,0.835,1.115C48.531,67.978,48.067,67.513,47.723,66.93z"/>
<path fill-rule="evenodd" clip-rule="evenodd" fill="#C1C1C1" d="M32.393,134.936c-0.251-0.492-0.624-0.863-1.115-1.115
	c0-0.093,0-0.187,0-0.278c0.583,0.346,1.048,0.811,1.394,1.394C32.579,134.936,32.485,134.936,32.393,134.936z"/>
<path fill-rule="evenodd" clip-rule="evenodd" fill="#777777" d="M33.229,131.87c0.492,0.252,0.864,0.624,1.116,1.115
	C33.852,132.733,33.48,132.362,33.229,131.87z"/>
<path fill-rule="evenodd" clip-rule="evenodd" fill="#C1C1C1" d="M54.412,99.54c0.688-0.704,1.096-1.69,1.951-2.229
	C55.804,98.145,55.315,99.05,54.412,99.54z"/>
<path fill-rule="evenodd" clip-rule="evenodd" fill="#777777" d="M54.412,79.193c-0.992-0.567-1.469,1.402-2.787,1.395
	c-0.12-0.531-0.601-0.701-0.559-1.395c0.692-0.515,1.572-0.842,1.951-1.672C53.446,78.113,54.023,78.559,54.412,79.193z"/>
<path fill-rule="evenodd" clip-rule="evenodd" fill="#323232" d="M44.655,113.753c-0.686,0.434-0.819-0.946-0.278-0.836
	C44.364,113.301,44.509,113.53,44.655,113.753z"/>
<path fill-rule="evenodd" clip-rule="evenodd" fill="#777777" d="M32.95,117.098c0.198-1.01,0.105-2.311,0.558-3.065
	c-0.041,0.783,0.683,0.803,1.393,0.836c0.087,0.378,0.698,0.231,1.115,0.278c0,0.278,0,0.559,0,0.837
	c-0.324,0.233-0.748,0.367-1.394,0.278C33.483,115.959,33.248,116.56,32.95,117.098z"/>
<path fill-rule="evenodd" clip-rule="evenodd" fill="#777777" d="M29.605,57.732c0,0.929,0,1.858,0,2.788
	c-0.632-0.297-0.105-1.752-0.278-2.508c0-0.093,0-0.186,0-0.279C29.42,57.732,29.512,57.732,29.605,57.732z"/>
<path fill-rule="evenodd" clip-rule="evenodd" fill="#777777" d="M40.476,63.585c-0.638-0.477-0.102-2.127-0.278-3.065
	C40.835,60.997,40.3,62.647,40.476,63.585z"/>
<path fill-rule="evenodd" clip-rule="evenodd" fill="#777777" d="M41.033,67.208c0.44,0.024,1.063-0.134,1.113,0.279
	C41.73,67.44,41.119,67.587,41.033,67.208z"/>
<path fill-rule="evenodd" clip-rule="evenodd" fill="#323232" d="M33.786,70.275c-0.046-0.605,0.989-0.126,1.394-0.279
	C35.227,70.6,34.191,70.123,33.786,70.275z"/>
<path fill-rule="evenodd" clip-rule="evenodd" fill="#323232" d="M29.327,70.832c-0.047-0.604,0.988-0.126,1.394-0.278
	c0,0.094,0,0.187,0,0.278C30.256,70.832,29.792,70.832,29.327,70.832z"/>
<path fill-rule="evenodd" clip-rule="evenodd" fill="#323232" d="M27.097,71.112c-0.047-0.605,0.988-0.128,1.394-0.28
	C28.538,71.437,27.502,70.958,27.097,71.112z"/>
<path fill-rule="evenodd" clip-rule="evenodd" fill="#777777" d="M26.819,72.783c0.4-0.83-0.979-1.697,0.278-1.671
	c0.405-0.153,1.44,0.325,1.394-0.28c0.278,0,0.558,0,0.836,0c0.464,0,0.929,0,1.394,0c-0.051,0.237,0.108,0.264,0.278,0.28
	c0,0.557,0,1.113,0,1.671c-0.371,0-0.743,0-1.114,0c-0.405,0.152-1.44-0.325-1.394,0.279c-0.278,0-0.558,0-0.836,0
	C27.205,73.141,27.175,72.798,26.819,72.783z"/>
<path fill-rule="evenodd" clip-rule="evenodd" fill="#1A1A1A" d="M37.688,71.947c0-0.372,0-0.743,0-1.115
	C38.141,70.632,38.141,72.146,37.688,71.947z"/>
<path fill-rule="evenodd" clip-rule="evenodd" fill="#323232" d="M35.458,72.225c0.052-0.411,0.673-0.255,1.115-0.278
	C36.522,72.36,35.9,72.203,35.458,72.225z"/>
<path fill-rule="evenodd" clip-rule="evenodd" fill="#777777" d="M35.458,72.225c-0.852-0.201-1.015,0.285-1.672,0.278
	c-0.023-0.44,0.134-1.063-0.278-1.113c0-0.372,0-0.743,0-1.115c0.093,0,0.186,0,0.278,0c0.405-0.152,1.441,0.325,1.394-0.279
	c0.372,0,0.743,0,1.114,0c0.465,0,0.929,0,1.394,0c0,0.279,0,0.558,0,0.836c0,0.372,0,0.743,0,1.115c-0.371,0-0.743,0-1.115,0
	C36.132,71.97,35.51,71.814,35.458,72.225z"/>
<path fill-rule="evenodd" clip-rule="evenodd" fill="#323232" d="M28.491,73.062c-0.046-0.604,0.989-0.127,1.394-0.279
	C29.932,73.387,28.896,72.91,28.491,73.062z"/>
<path fill-rule="evenodd" clip-rule="evenodd" fill="#1A1A1A" d="M26.819,72.783c0.356,0.016,0.386,0.358,0.836,0.279
	C27.765,73.603,26.385,73.468,26.819,72.783z"/>
<path fill-rule="evenodd" clip-rule="evenodd" fill="#1A1A1A" d="M35.18,86.44c0.413,0.052,0.255,0.674,0.278,1.114
	C35.081,87.468,35.227,86.857,35.18,86.44z"/>
<path fill-rule="evenodd" clip-rule="evenodd" fill="#777777" d="M62.215,87.833c0.463,0.756,0.463,3.427,0,4.182
	C62.215,90.621,62.215,89.227,62.215,87.833z"/>
<path fill-rule="evenodd" clip-rule="evenodd" fill="#323232" d="M35.458,89.505c0.413,0.053,0.255,0.675,0.278,1.115
	c-0.092,0-0.185,0-0.278,0C35.458,90.249,35.458,89.877,35.458,89.505z"/>
<path fill-rule="evenodd" clip-rule="evenodd" fill="#1A1A1A" d="M32.671,89.784c0.413,0.053,0.255,0.675,0.279,1.115
	C32.572,90.813,32.719,90.202,32.671,89.784z"/>
<path fill-rule="evenodd" clip-rule="evenodd" fill="#1A1A1A" d="M33.229,94.801c0,0.929,0,1.858,0,2.787c-0.092,0-0.185,0-0.278,0
	c0-0.929,0-1.858,0-2.787C33.043,94.801,33.136,94.801,33.229,94.801z"/>
<path fill-rule="evenodd" clip-rule="evenodd" fill="#777777" d="M44.377,112.917c0-0.278,0-0.558,0-0.837
	c1.035,0.173,1.753,0.665,2.788,0.837c-0.256,0.488-0.096,1.391-0.559,1.672c-0.389-0.54-1.442-0.415-1.951-0.836
	C44.509,113.53,44.364,113.301,44.377,112.917z"/>
<path fill-rule="evenodd" clip-rule="evenodd" fill="#777777" d="M27.933,114.033c0.237-0.817,0.702,0.362,1.394,0
	c-0.047,0.604,0.988,0.126,1.394,0.278c0,0.093,0,0.187,0,0.278c-0.378,0.087-0.231,0.698-0.279,1.116c-0.093,0-0.186,0-0.278,0
	c-0.086-0.379-0.698-0.231-1.114-0.28c-0.28,0-0.558,0-0.836,0C27.979,115.102,27.845,114.679,27.933,114.033z"/>
<path fill-rule="evenodd" clip-rule="evenodd" fill="#1A1A1A" d="M29.327,114.033c0.464,0,0.929,0,1.394,0c0,0.093,0,0.186,0,0.278
	C30.315,114.159,29.28,114.636,29.327,114.033z"/>
<path fill-rule="evenodd" clip-rule="evenodd" fill="#323232" d="M34.901,114.869c0.417,0.047,1.029-0.1,1.115,0.278
	C35.599,115.1,34.988,115.247,34.901,114.869z"/>
<path fill-rule="evenodd" clip-rule="evenodd" fill="#323232" d="M52.182,115.425c0.013-0.383-0.132-0.611-0.278-0.836
	C52.589,114.157,52.723,115.537,52.182,115.425z"/>
<path fill-rule="evenodd" clip-rule="evenodd" fill="#323232" d="M29.049,115.425c0.417,0.049,1.028-0.099,1.114,0.28
	C29.722,115.681,29.1,115.838,29.049,115.425z"/>
<path fill-rule="evenodd" clip-rule="evenodd" fill="#323232" d="M34.623,116.262c0.646,0.089,1.07-0.045,1.394-0.278
	c0.286,0.937-0.867,0.434-1.394,0.557C34.623,116.449,34.623,116.355,34.623,116.262z"/>
<path fill-rule="evenodd" clip-rule="evenodd" fill="#323232" d="M31.835,125.18c0,0.837,0,1.673,0,2.509
	C31.375,127.477,31.375,125.393,31.835,125.18z"/>
<path fill-rule="evenodd" clip-rule="evenodd" fill="#777777" d="M35.737,136.33c1.116,0,2.23,0,3.345,0
	C38.602,136.791,36.218,136.791,35.737,136.33z"/>
<path fill-rule="evenodd" clip-rule="evenodd" fill="#323232" d="M36.294,69.996c-0.125-0.455,1.52-0.455,1.394,0
	C37.224,69.996,36.759,69.996,36.294,69.996z"/>
<path fill-rule="evenodd" clip-rule="evenodd" fill="#323232" d="M35.737,93.128c0.463,1.03,0.463,3.987,0,5.018
	C35.737,96.473,35.737,94.801,35.737,93.128z"/>
<path fill-rule="evenodd" clip-rule="evenodd" fill="#323232" d="M27.933,114.033c-0.088,0.646,0.045,1.069,0.279,1.393
	C27.371,115.855,27.479,113.983,27.933,114.033z"/>
<path fill-rule="evenodd" clip-rule="evenodd" fill="#323232" d="M29.049,124.902c0,1.022,0,2.043,0,3.066
	C28.586,127.578,28.586,125.292,29.049,124.902z"/>
<path fill-rule="evenodd" clip-rule="evenodd" fill="#C1C1C1" d="M30.999,56.339c0.062-0.217,0.233-0.324,0.558-0.279
	c0.093,0,0.186,0,0.279,0c0.417,0.048,1.029-0.1,1.115,0.279C32.3,56.339,31.649,56.339,30.999,56.339z"/>
<path fill-rule="evenodd" clip-rule="evenodd" fill="#C1C1C1" d="M35.737,90.621c0,0.65,0,1.301,0,1.951
	c-0.623-0.12-0.112-1.374-0.278-1.951C35.552,90.621,35.645,90.621,35.737,90.621z"/>
</svg>
