<?xml version="1.0" encoding="utf-8"?>
<!-- Generator: Adobe Illustrator 15.0.0, SVG Export Plug-In  -->
<!DOCTYPE svg PUBLIC "-//W3C//DTD SVG 1.1//EN" "http://www.w3.org/Graphics/SVG/1.1/DTD/svg11.dtd" [
	<!ENTITY ns_flows "http://ns.adobe.com/Flows/1.0/">
]>
<svg version="1.1"
	 xmlns="http://www.w3.org/2000/svg" xmlns:xlink="http://www.w3.org/1999/xlink" xmlns:a="http://ns.adobe.com/AdobeSVGViewerExtensions/3.0/"
	 x="0px" y="0px" width="142px" height="142px" viewBox="-33.94 -2.313 142 142" enable-background="new -33.94 -2.313 142 142"
	 xml:space="preserve">
<defs>
</defs>
<path fill-rule="evenodd" clip-rule="evenodd" fill="#1A1A1A" d="M47.723,0.318c0.034-0.615,1.182-0.118,1.673-0.278
	C49.359,0.655,48.211,0.158,47.723,0.318z"/>
<path fill-rule="evenodd" clip-rule="evenodd" fill="#1A1A1A" d="M51.625,0.04c0.489,0.16,1.637-0.337,1.671,0.278
	C52.807,0.158,51.659,0.655,51.625,0.04z"/>
<path fill-rule="evenodd" clip-rule="evenodd" fill="#1A1A1A" d="M52.46,2.826c0.417,0.048,1.028-0.099,1.114,0.279
	C53.157,3.058,52.547,3.205,52.46,2.826z"/>
<path fill-rule="evenodd" clip-rule="evenodd" fill="#1A1A1A" d="M16.228,15.369c0.441,0.023,1.063-0.134,1.115,0.278
	C16.925,15.6,16.313,15.747,16.228,15.369z"/>
<path fill-rule="evenodd" clip-rule="evenodd" fill="#1A1A1A" d="M0.341,15.926c0,0.464,0,0.929,0,1.393
	C-0.114,17.445-0.114,15.8,0.341,15.926z"/>
<path fill-rule="evenodd" clip-rule="evenodd" fill="#1A1A1A" d="M16.506,18.156c0.743,0,1.486,0,2.229,0
	C18.612,18.616,16.63,18.616,16.506,18.156z"/>
<path fill-rule="evenodd" clip-rule="evenodd" fill="#1A1A1A" d="M73.643,23.73c0.461,0.3,0.461,2.487,0,2.787
	C73.643,25.588,73.643,24.659,73.643,23.73z"/>
<path fill-rule="evenodd" clip-rule="evenodd" fill="#1A1A1A" d="M20.965,25.124c0.405,0.152,1.441-0.326,1.394,0.279
	C21.954,25.25,20.918,25.728,20.965,25.124z"/>
<path fill-rule="evenodd" clip-rule="evenodd" fill="#1A1A1A" d="M24.868,25.402c0.465,0,0.929,0,1.393,0
	C26.387,25.857,24.742,25.857,24.868,25.402z"/>
<path fill-rule="evenodd" clip-rule="evenodd" fill="#1A1A1A" d="M71.134,25.681c-0.048,0.417,0.099,1.029-0.278,1.115
	C70.901,26.379,70.756,25.767,71.134,25.681z"/>
<path fill-rule="evenodd" clip-rule="evenodd" fill="#1A1A1A" d="M19.015,27.632c0.417,0.048,1.028-0.1,1.114,0.279
	C19.688,27.887,19.066,28.044,19.015,27.632z"/>
<path fill-rule="evenodd" clip-rule="evenodd" fill="#1A1A1A" d="M21.244,27.911c0.49,0.16,1.638-0.337,1.672,0.279
	C22.426,28.029,21.279,28.526,21.244,27.911z"/>
<path fill-rule="evenodd" clip-rule="evenodd" fill="#1A1A1A" d="M44.655,30.698c0.604-0.047,0.128,0.988,0.28,1.393
	C44.331,32.138,44.81,31.103,44.655,30.698z"/>
<path fill-rule="evenodd" clip-rule="evenodd" fill="#1A1A1A" d="M47.444,30.977c0.462,1.03,0.462,3.987,0,5.017
	C47.444,34.321,47.444,32.648,47.444,30.977z"/>
<path fill-rule="evenodd" clip-rule="evenodd" fill="#1A1A1A" d="M44.936,34.599c-0.162,0.491,0.337,1.638-0.28,1.673
	C44.815,35.782,44.318,34.634,44.936,34.599z"/>
<path fill-rule="evenodd" clip-rule="evenodd" fill="#1A1A1A" d="M64.166,35.993c0.558,0,1.114,0,1.671,0
	C65.883,36.451,64.12,36.451,64.166,35.993z"/>
<path fill-rule="evenodd" clip-rule="evenodd" fill="#1A1A1A" d="M64.166,38.78c0.558,0,1.114,0,1.671,0
	C65.883,39.238,64.12,39.238,64.166,38.78z"/>
<path fill-rule="evenodd" clip-rule="evenodd" fill="#1A1A1A" d="M31.557,51.322c0,0.558,0,1.115,0,1.672
	C31.099,53.041,31.099,51.277,31.557,51.322z"/>
<path fill-rule="evenodd" clip-rule="evenodd" fill="#1A1A1A" d="M28.769,54.388c0.605-0.047,0.127,0.989,0.28,1.394
	C28.444,55.829,28.922,54.793,28.769,54.388z"/>
<path fill-rule="evenodd" clip-rule="evenodd" fill="#1A1A1A" d="M31.557,54.667c0.605-0.047,0.126,0.989,0.279,1.393
	c-0.093,0-0.186,0-0.279,0C31.557,55.596,31.557,55.131,31.557,54.667z"/>
<path fill-rule="evenodd" clip-rule="evenodd" fill="#1A1A1A" d="M44.936,54.945c-0.152,0.405,0.324,1.441-0.28,1.394
	C44.81,55.934,44.331,54.898,44.936,54.945z"/>
<path fill-rule="evenodd" clip-rule="evenodd" fill="#1A1A1A" d="M42.146,55.224c0,1.394,0,2.788,0,4.181
	C41.685,58.65,41.685,55.979,42.146,55.224z"/>
<path fill-rule="evenodd" clip-rule="evenodd" fill="#1A1A1A" d="M29.049,56.896c0.324,0.047,0.302,0.441,0.278,0.836
	c0,0.093,0,0.186,0,0.279C28.949,57.925,29.096,57.313,29.049,56.896z"/>
<path fill-rule="evenodd" clip-rule="evenodd" fill="#1A1A1A" d="M44.655,58.29c0.379,0.087,0.232,0.698,0.28,1.115
	C44.522,59.353,44.679,58.731,44.655,58.29z"/>
<path fill-rule="evenodd" clip-rule="evenodd" fill="#C3C3C3" d="M33.786,74.176c0.413,0.053,0.256,0.675,0.279,1.115
	C33.687,75.206,33.834,74.593,33.786,74.176z"/>
<path fill-rule="evenodd" clip-rule="evenodd" fill="#C3C3C3" d="M31.278,75.013c0.413,0.051,0.255,0.673,0.279,1.114
	C31.144,76.076,31.301,75.454,31.278,75.013z"/>
<path fill-rule="evenodd" clip-rule="evenodd" fill="#C3C3C3" d="M32.95,91.178c0.413,0.052,0.255,0.674,0.278,1.114
	c-0.092,0-0.185,0-0.278,0C32.95,91.921,32.95,91.549,32.95,91.178z"/>
<path fill-rule="evenodd" clip-rule="evenodd" fill="#777777" d="M32.95,92.292c0.093,0,0.186,0,0.278,0c0,0.465,0,0.93,0,1.395
	c-0.092,0-0.185,0-0.278,0C32.95,93.222,32.95,92.757,32.95,92.292z"/>
<path fill-rule="evenodd" clip-rule="evenodd" fill="#323232" d="M32.95,93.687c0.093,0,0.186,0,0.278,0c0,0.371,0,0.743,0,1.114
	c-0.092,0-0.185,0-0.278,0C32.95,94.43,32.95,94.058,32.95,93.687z"/>
<path fill-rule="evenodd" clip-rule="evenodd" fill="#777777" d="M32.95,97.588c0.093,0,0.186,0,0.278,0
	c-0.047,0.417,0.1,1.028-0.278,1.115C32.95,98.332,32.95,97.96,32.95,97.588z"/>
<path fill-rule="evenodd" clip-rule="evenodd" fill="#1A1A1A" d="M41.59,22.058c0.817,0.019,1.036,0.637,1.395,1.115
	C42.474,22.847,42.041,22.444,41.59,22.058z"/>
<path fill-rule="evenodd" clip-rule="evenodd" fill="#323232" d="M29.885,76.685c0.034-0.615,1.182-0.118,1.672-0.278
	c0,0.186,0,0.371,0,0.557C31.228,76.643,30.572,76.649,29.885,76.685z"/>
<path fill-rule="evenodd" clip-rule="evenodd" fill="#1A1A1A" d="M31.278,133.821c0.491,0.252,0.863,0.623,1.115,1.115
	C31.901,134.684,31.53,134.312,31.278,133.821z"/>
<path fill-rule="evenodd" clip-rule="evenodd" fill="#777777" d="M50.509,69.996c1.274,0.665,2.192-2.543,3.344-0.557
	c-0.062,1.332-1.591,1.195-1.949,2.23C51.263,71.286,51.006,70.52,50.509,69.996z"/>
<path fill-rule="evenodd" clip-rule="evenodd" fill="#323232" d="M44.936,59.405c0.567,3.148,2.006,5.427,3.344,7.804
	c-0.092,0-0.187,0-0.278,0c-1.148-1.546-3.397-1.99-5.573-2.508c0.492-0.064,1.394,0.28,1.113-0.558
	c-0.833-1.211-1.29-2.799-1.395-4.738c0-1.393,0-2.787,0-4.181c0.042-1.68,0.331-3.145,0.838-4.459
	c0.19-0.493,0.393-1.072,0.557-1.393c0.32-0.629,1.044-1.575,1.673-2.23c0.227-0.237,0.333-0.602,0.558-0.836
	c0.753-0.786,1.727-2.729,2.508-3.902c1.591-2.386,3.193-4.729,4.738-6.968c0.583-0.346,1.048-0.811,1.395-1.393
	c0.522-0.372,1.21-0.744,1.671-0.836c3.321-0.662,5.722,1.964,8.083,2.787c-0.046,0.458,1.717,0.458,1.671,0
	c1.983-0.305,2.681-2.243,3.346-3.902c0.676-1.683,1.074-3.65,1.673-5.295c0.377-0.086,0.23-0.698,0.278-1.115
	c-0.513-3.731-2.14-6.869-3.624-9.754c-1.486-2.894-3.283-5.626-5.017-8.361C62.241,7.073,61.87,6.701,61.38,6.45
	c-0.125-0.249-0.247-0.499-0.56-0.558c-0.25-0.491-0.623-0.863-1.113-1.115c-2.114-0.489-3.702-1.501-6.133-1.672
	c-0.086-0.378-0.697-0.231-1.114-0.279c-3.794-0.249-7.1,0.59-9.754,1.952c-1.353,0.692-2.921,1.872-4.46,2.787
	c-0.328,0.195-0.32,0.05-0.558,0.278c-0.272,0.261-1.572,0.724-2.229,1.115c-2.328,1.384-5.175,3.455-7.804,5.017
	c-0.328,0.194-0.319,0.05-0.558,0.279c-0.288,0.275-1.518,0.706-2.229,1.115c-1.651,0.949-3.646,2.556-6.132,2.787
	c-0.743,0-1.486,0-2.229,0c-4.747-0.264-7.664-3.551-12.821-2.509c-0.366,0.099-0.438,0.491-0.836,0.558
	c-0.024,0.396-0.046,0.789,0.278,0.836c1.072,1.343,2.751,1.699,4.181,2.508c0.682,0.386,1.291,1.048,1.951,1.393
	c3.313,1.735,7.05,3.575,11.706,4.181c-0.047,0.604,0.989,0.126,1.394,0.279c0.836,0,1.672,0,2.508,0
	c-0.125,0.455,1.52,0.455,1.393,0c1.519-0.188,2.681-0.342,3.902-0.836c0.736-0.298,1.569-0.76,2.229-1.394
	c0.237-0.227,0.603-0.333,0.836-0.558c0.238-0.227,0.603-0.333,0.836-0.557c0.108-0.104,0.725-0.567,1.115-0.836
	c1.457-1.004,5.661-3.002,8.361-1.394c0.439,0.676,0.998,1.232,1.673,1.672c1.396,2.504,1.833,5.97,2.23,9.477
	c0,1.672,0,3.344,0,5.017c-0.695,9.71-14.422,6.389-15.888,15.329c-0.458-0.045-0.458,1.718,0,1.672c0,0.558,0,1.115,0,1.672
	c0,0.464,0,0.929,0,1.393c-0.324-0.045-0.496,0.062-0.558,0.279c-0.949-0.021-1.038,0.819-1.394,1.393c-0.093,0-0.186,0-0.278,0
	c0.023-0.395,0.045-0.789-0.278-0.836c0-0.372,0-0.743,0-1.115c-0.153-0.405,0.325-1.441-0.28-1.394
	c-0.249-3.641,0.127-5.107,1.394-7.246c2.13-3.597,7.06-4.997,11.148-7.247c1.837-1.011,3.062-1.238,3.344-3.623
	c0.617-0.035,0.118-1.182,0.28-1.673c0-0.836,0-1.672,0-2.508c-0.152-0.405,0.324-1.44-0.28-1.393
	c-0.569-2.496-0.762-5.37-1.671-7.525c-0.358-0.478-0.577-1.096-1.395-1.115c-1.324,0.08-2.334,0.112-3.344,0.557
	c-0.823,0.363-1.293,1.232-1.952,1.672c-0.367,0.246-0.973,0.282-1.394,0.558c-0.349,0.229-0.492,0.618-0.836,0.836
	c-0.367,0.233-0.899,0.257-1.394,0.558c-0.308,0.187-0.547,0.7-0.836,0.836c-0.274,0.129-0.958,0.109-1.394,0.278
	c-1.582,0.613-4.123,1.129-7.525,0.836c-0.034-0.616-1.182-0.119-1.672-0.279c-0.372,0-0.743,0-1.115,0
	c-0.086-0.378-0.698-0.231-1.114-0.279c-5.502-0.904-10.883-3.983-15.33-6.689c-1.764-1.073-3.144-1.609-3.345-3.623
	c0-0.464,0-0.929,0-1.393c-0.082-0.828,0.649-1.671,1.394-2.23c3.44-2.579,10.847,0.426,14.493,1.672
	c0.086,0.378,0.698,0.231,1.115,0.278c5.572-1.575,9.714-4.961,14.493-7.804c2.2-1.309,4.582-2.762,6.967-4.181
	c2.705-1.608,5.26-2.977,8.92-3.345c0.488-0.16,1.637,0.337,1.673-0.278c0.743,0,1.484,0,2.229,0
	c0.034,0.615,1.182,0.118,1.671,0.278c3.494,0.131,6.061,1.186,8.362,2.508c0.812,1.046,1.741,1.975,2.786,2.788
	c2.114,2.34,3.467,5.426,5.017,8.361c1.631,3.09,3.521,5.793,4.182,9.755c0,0.929,0,1.858,0,2.787
	c-0.438,3.927-1.949,6.784-3.346,9.755c-0.676,0.439-1.232,0.997-1.671,1.672c-0.874,0.336-1.383,1.033-2.789,0.836
	c-0.557,0-1.113,0-1.671,0c-3.472,0.034-3.898-2.977-7.524-2.787c-0.926,0.098-1.21,0.835-1.673,1.394
	c-0.718,1.246-1.465,2.427-2.229,3.624c-0.203,0.315-0.331,0.761-0.558,1.114c-0.069,0.106-0.517,0.187-0.557,0.279
	c-0.066,0.143,0.084,0.429,0,0.557c-0.07,0.104-0.517,0.188-0.559,0.279c-0.064,0.143,0.086,0.43,0,0.557
	c-0.068,0.103-0.518,0.188-0.558,0.279c-0.526,1.167-1.633,2.635-2.508,3.902c-1.364,1.973-2.675,3.786-3.065,6.967
	c-0.604-0.047-0.126,0.989-0.28,1.394c0,0.65,0,1.3,0,1.951C44.679,58.731,44.522,59.353,44.936,59.405z"/>
<path fill-rule="evenodd" clip-rule="evenodd" fill="#1A1A1A" d="M54.969,37.387c0.463-0.559,0.747-1.295,1.673-1.394
	C56.049,36.422,55.604,37,54.969,37.387z"/>
<path fill-rule="evenodd" clip-rule="evenodd" fill="#1A1A1A" d="M68.626,37.944c0.438-0.675,0.995-1.232,1.671-1.672
	C69.858,36.947,69.301,37.504,68.626,37.944z"/>
<path fill-rule="evenodd" clip-rule="evenodd" fill="#1A1A1A" d="M61.658,2.826c1.046,0.813,1.974,1.742,2.786,2.788
	C63.399,4.801,62.47,3.872,61.658,2.826z"/>
<path fill-rule="evenodd" clip-rule="evenodd" fill="#1A1A1A" d="M53.018,35.436c0.347-0.583,0.812-1.047,1.395-1.393
	C54.065,34.625,53.601,35.09,53.018,35.436z"/>
<path fill-rule="evenodd" clip-rule="evenodd" fill="#1A1A1A" d="M61.38,6.45c0.49,0.251,0.861,0.623,1.113,1.115
	C62.003,7.313,61.63,6.941,61.38,6.45z"/>
<path fill-rule="evenodd" clip-rule="evenodd" fill="#1A1A1A" d="M59.707,4.778c0.49,0.252,0.863,0.624,1.113,1.115
	C60.33,5.641,59.959,5.269,59.707,4.778z"/>
<path fill-rule="evenodd" clip-rule="evenodd" fill="#1A1A1A" d="M3.128,17.041C2.803,16.994,2.826,16.6,2.85,16.205
	c0.397-0.067,0.47-0.459,0.836-0.558C3.567,16.179,2.889,16.151,3.128,17.041z"/>
<path fill-rule="evenodd" clip-rule="evenodd" fill="#1A1A1A" d="M43.541,19.828c0.676,0.44,1.232,0.997,1.673,1.672
	C44.539,21.06,43.98,20.503,43.541,19.828z"/>
<path fill-rule="evenodd" clip-rule="evenodd" fill="#C3C3C3" d="M48.001,67.208c0.092,0,0.187,0,0.278,0
	c0.082,0.569,0.755,0.547,0.835,1.115C48.624,68.072,48.253,67.7,48.001,67.208z"/>
<path fill-rule="evenodd" clip-rule="evenodd" fill="#C3C3C3" d="M32.393,134.936c-0.251-0.492-0.624-0.863-1.115-1.115
	c0-0.093,0-0.187,0-0.278c0.583,0.346,1.048,0.811,1.394,1.394C32.579,134.936,32.485,134.936,32.393,134.936z"/>
<path fill-rule="evenodd" clip-rule="evenodd" fill="#777777" d="M33.229,131.87c0.492,0.252,0.864,0.624,1.116,1.115
	C33.852,132.733,33.48,132.362,33.229,131.87z"/>
<path fill-rule="evenodd" clip-rule="evenodd" fill="#C3C3C3" d="M54.412,99.54c0.688-0.704,1.096-1.69,1.951-2.229
	C55.804,98.145,55.315,99.05,54.412,99.54z"/>
<path fill-rule="evenodd" clip-rule="evenodd" fill="#777777" d="M46.885,74.455c-0.884-1.306,1.372-1.497,1.673-2.508
	c0.429,0.593,1.006,1.038,1.395,1.673c-0.665-0.583-1.229,0.625-1.951,0.835C47.588,74.778,47.298,74.778,46.885,74.455z"/>
<path fill-rule="evenodd" clip-rule="evenodd" fill="#1A1A1A" d="M46.885,74.455c0.413,0.323,0.703,0.323,1.116,0
	c-0.078,0.646-0.745,0.642-1.116,0.279C46.885,74.641,46.885,74.548,46.885,74.455z"/>
<path fill-rule="evenodd" clip-rule="evenodd" fill="#323232" d="M33.786,73.898c0-0.278,0-0.558,0-0.836
	c0.407,0.336,0.269,1.218,1.394,0.836C35.108,74.55,33.956,74.058,33.786,73.898z"/>
<path fill-rule="evenodd" clip-rule="evenodd" fill="#323232" d="M36.294,73.898c0.375-0.536,2.638-0.613,1.952,0.836
	c-0.327-0.045-0.236-0.508-0.279-0.836C37.409,73.898,36.853,73.898,36.294,73.898z"/>
<path fill-rule="evenodd" clip-rule="evenodd" fill="#777777" d="M33.786,74.176c0-0.093,0-0.186,0-0.278
	c0.169,0.16,1.322,0.652,1.394,0c0.372,0,0.743,0,1.114,0c0.558,0,1.115,0,1.673,0c0.043,0.328-0.048,0.791,0.279,0.836
	c0,0.372,0,0.743,0,1.115c-0.465,0-0.929,0-1.394,0c-0.491,0.159-1.638-0.337-1.672,0.278c-1.097-0.353-0.83,0.657-0.836,1.394
	c-0.629-0.207-0.109-1.563-0.279-2.229C34.042,74.851,34.199,74.229,33.786,74.176z"/>
<path fill-rule="evenodd" clip-rule="evenodd" fill="#777777" d="M29.605,121c-0.548,0.659,0.078,2.493-0.557,3.065
	c-0.008-0.736,0.259-1.746-0.836-1.394c-0.087-0.378-0.698-0.23-1.115-0.279c-0.186,0-0.372,0-0.557,0c0-0.464,0-0.928,0-1.393
	c0.279,0,0.557,0,0.836,0c0.086,0.378,0.698,0.231,1.115,0.278C29.074,121.397,29.229,121.087,29.605,121z"/>
<path fill-rule="evenodd" clip-rule="evenodd" fill="#323232" d="M34.901,122.672c0.078,0.728,0.094,1.395-0.836,1.114
	c0-0.092,0-0.186,0-0.278C35.056,123.942,34.233,122.562,34.901,122.672z"/>
<path fill-rule="evenodd" clip-rule="evenodd" fill="#777777" d="M29.605,57.732c0,0.929,0,1.858,0,2.788
	c-0.632-0.297-0.105-1.752-0.278-2.508c0-0.093,0-0.186,0-0.279C29.42,57.732,29.512,57.732,29.605,57.732z"/>
<path fill-rule="evenodd" clip-rule="evenodd" fill="#777777" d="M40.476,63.585c-0.638-0.477-0.102-2.127-0.278-3.065
	C40.835,60.997,40.3,62.647,40.476,63.585z"/>
<path fill-rule="evenodd" clip-rule="evenodd" fill="#777777" d="M41.033,67.208c0.44,0.024,1.063-0.134,1.113,0.279
	C41.706,67.464,41.085,67.622,41.033,67.208z"/>
<path fill-rule="evenodd" clip-rule="evenodd" fill="#323232" d="M28.491,74.734c-0.046-0.604,0.989-0.127,1.394-0.279
	C29.932,75.06,28.896,74.582,28.491,74.734z"/>
<path fill-rule="evenodd" clip-rule="evenodd" fill="#777777" d="M27.097,75.292c-0.286-0.937,0.867-0.434,1.394-0.558
	c0.405-0.152,1.441,0.326,1.394-0.279c0.728,0.078,1.394,0.095,1.114-0.835c0.604-0.047,0.126,0.987,0.279,1.394
	c0.023,0.44-0.134,1.063,0.279,1.114c0,0.093,0,0.186,0,0.279c-0.49,0.16-1.638-0.337-1.672,0.278c-0.279,0-0.558,0-0.836,0
	c-0.558,0-1.116,0-1.673,0C27.224,76.28,27.702,75.245,27.097,75.292z"/>
<path fill-rule="evenodd" clip-rule="evenodd" fill="#323232" d="M35.18,76.127c0.035-0.615,1.182-0.119,1.672-0.278
	C36.817,76.464,35.67,75.967,35.18,76.127z"/>
<path fill-rule="evenodd" clip-rule="evenodd" fill="#323232" d="M27.097,75.292c0.604-0.047,0.126,0.988,0.279,1.394
	c0.557,0,1.115,0,1.673,0C28.231,77.483,26.483,76.848,27.097,75.292z"/>
<path fill-rule="evenodd" clip-rule="evenodd" fill="#1A1A1A" d="M34.623,80.866c0.378,0.086,0.231,0.698,0.278,1.115
	C34.523,81.894,34.67,81.283,34.623,80.866z"/>
<path fill-rule="evenodd" clip-rule="evenodd" fill="#1A1A1A" d="M35.18,86.44c0.378,0.087,0.231,0.697,0.278,1.114
	C35.081,87.468,35.227,86.857,35.18,86.44z"/>
<path fill-rule="evenodd" clip-rule="evenodd" fill="#777777" d="M62.215,87.833c0.463,0.756,0.463,3.427,0,4.182
	C62.215,90.621,62.215,89.227,62.215,87.833z"/>
<path fill-rule="evenodd" clip-rule="evenodd" fill="#1A1A1A" d="M35.458,89.505c0.378,0.086,0.231,0.698,0.278,1.115
	c-0.092,0-0.185,0-0.278,0C35.458,90.249,35.458,89.877,35.458,89.505z"/>
<path fill-rule="evenodd" clip-rule="evenodd" fill="#1A1A1A" d="M32.671,89.784c0.378,0.087,0.231,0.698,0.279,1.115
	C32.572,90.813,32.719,90.202,32.671,89.784z"/>
<path fill-rule="evenodd" clip-rule="evenodd" fill="#1A1A1A" d="M33.229,94.801c0,0.929,0,1.858,0,2.787c-0.092,0-0.185,0-0.278,0
	c0-0.929,0-1.858,0-2.787C33.043,94.801,33.136,94.801,33.229,94.801z"/>
<path fill-rule="evenodd" clip-rule="evenodd" fill="#777777" d="M46.606,114.311c-0.783-0.332-1.603-0.627-2.508-0.836
	c-0.114-0.672,0.509-0.605,0.278-1.395c1.328-0.253,2.083,1.06,3.067,0.279C47.256,113.101,47.005,113.779,46.606,114.311z"/>
<path fill-rule="evenodd" clip-rule="evenodd" fill="#777777" d="M49.952,113.753c0.905,0.209,1.725,0.505,2.508,0.836
	c0.23,0.788-0.393,0.722-0.278,1.395c-1.136-0.073-1.891-0.524-2.786-0.837C49.548,114.651,49.537,113.989,49.952,113.753z"/>
<path fill-rule="evenodd" clip-rule="evenodd" fill="#323232" d="M27.376,121c0.441,0.022,1.063-0.135,1.115,0.278
	C28.074,121.232,27.462,121.378,27.376,121z"/>
<path fill-rule="evenodd" clip-rule="evenodd" fill="#777777" d="M32.393,121c-0.024,0.396-0.046,0.789,0.279,0.836
	c0.086,0.378,0.698,0.23,1.115,0.278c0.494,0.063,1.396-0.281,1.115,0.558c-0.667-0.11,0.155,1.27-0.836,0.836
	c-0.186,0-0.372,0-0.557,0c-0.087-0.378-0.698-0.231-1.115-0.278c-0.303,0.068-0.188,0.554-0.557,0.557
	C32.149,122.987,31.892,121.614,32.393,121z"/>
<path fill-rule="evenodd" clip-rule="evenodd" fill="#1A1A1A" d="M32.671,121.836c0.441,0.023,1.063-0.134,1.115,0.278
	C33.37,122.067,32.758,122.214,32.671,121.836z"/>
<path fill-rule="evenodd" clip-rule="evenodd" fill="#323232" d="M27.097,122.393c0.417,0.049,1.028-0.099,1.115,0.279
	C27.771,122.649,27.149,122.806,27.097,122.393z"/>
<path fill-rule="evenodd" clip-rule="evenodd" fill="#323232" d="M32.393,123.23c0.417,0.047,1.028-0.1,1.115,0.278
	C33.066,123.486,32.444,123.643,32.393,123.23z"/>
<path fill-rule="evenodd" clip-rule="evenodd" fill="#323232" d="M31.835,125.18c0,1.022,0,2.045,0,3.066
	C31.374,127.857,31.374,125.571,31.835,125.18z"/>
<path fill-rule="evenodd" clip-rule="evenodd" fill="#777777" d="M35.737,136.33c1.116,0,2.23,0,3.345,0
	C38.602,136.791,36.218,136.791,35.737,136.33z"/>
<path fill-rule="evenodd" clip-rule="evenodd" fill="#FFFFFF" d="M29.605,57.732c0.355-0.574,0.444-1.414,1.394-1.393
	c0.65,0,1.301,0,1.951,0c2.568,1.241,6.011,1.606,7.247,4.181c0.177,0.938-0.359,2.589,0.278,3.065
	c0.185,0.838,0.962,1.082,1.952,1.115c2.176,0.518,4.425,0.961,5.573,2.508c0.252,0.492,0.623,0.863,1.113,1.115
	c0.642,0.382,0.898,1.147,1.395,1.672c0.497,0.524,0.754,1.29,1.395,1.673c2.591,3.308,5.253,6.524,7.804,10.313
	c1.184,1.759,2.392,2.952,2.508,5.852c0,1.395,0,2.788,0,4.182c-0.058,1.172-0.515,2.206-1.116,3.345
	c-0.27,0.515-0.515,1.192-0.835,1.672c-0.068,0.103-0.517,0.189-0.557,0.279c-0.171,0.377-0.19,0.66-0.558,1.114
	c-0.184,0.227-0.675,0.326-0.837,0.558c-0.188,0.27-0.074,0.604-0.278,0.836c-1.154,1.32-2.452,2.372-3.622,3.902
	c-0.215,0.279-0.345,0.549-0.56,0.836c-1.117,1.494-1.921,3.896-2.786,6.132c-0.255,0.659-0.992,1.793-1.114,3.065
	c-0.415,0.235-0.404,0.897-0.557,1.394c-0.998,3.403-2.663,8.546-3.903,12.821c-0.679,2.34-1.155,4.663-2.786,6.409
	c-0.888,0.95-1.733,1.786-3.624,1.952c-1.115,0-2.229,0-3.345,0c-1.302-0.185-2.447-0.526-3.065-1.394
	c-0.346-0.583-0.811-1.048-1.394-1.394c-1.426-1.175-1.961-3.241-2.229-5.574c0-1.023,0-2.044,0-3.066c0-0.278,0-0.557,0-0.836
	c0.634-0.572,0.008-2.406,0.557-3.065c1.075-7.473,2.429-14.665,3.345-22.297c0.378-0.087,0.231-0.698,0.278-1.115
	c0-0.929,0-1.858,0-2.787c0-0.371,0-0.743,0-1.114c0-0.465,0-0.93,0-1.395c-0.023-0.44,0.134-1.063-0.278-1.114
	c0-0.093,0-0.187,0-0.279c-0.047-0.417,0.1-1.028-0.279-1.115c-0.076-4.568-0.883-8.407-1.115-12.82c0-0.186,0-0.371,0-0.557
	c0-0.094,0-0.187,0-0.279c-0.023-0.441,0.134-1.063-0.279-1.114c-0.152-0.406,0.326-1.44-0.279-1.394
	c-0.174-4.657-1.007-8.655-1.394-13.1C29.605,59.591,29.605,58.662,29.605,57.732z M41.033,67.208
	c-2.707-0.359-3.648-2.484-3.345-5.853c-1.758-0.936-3.816-1.572-5.574-2.508c0.539,4.756,1.25,9.34,1.672,14.214
	c0,0.278,0,0.558,0,0.836c0,0.093,0,0.186,0,0.278c0.048,0.417-0.099,1.029,0.279,1.115c0.17,0.666-0.35,2.022,0.279,2.229
	c-0.195,1.401,0.472,1.942,0.278,3.345c0.048,0.417-0.1,1.028,0.278,1.115c-0.208,1.787,0.326,2.833,0.279,4.459
	c0.047,0.417-0.1,1.028,0.278,1.114c0,0.651,0,1.302,0,1.951c0,0.372,0,0.743,0,1.115c0.166,0.577-0.344,1.831,0.278,1.951
	c0,0.186,0,0.372,0,0.557c0,1.673,0,3.345,0,5.018c-0.792,7.939-2.338,15.127-3.344,22.854c-0.5,0.613-0.243,1.986-0.557,2.786
	c0,0.465,0,0.93,0,1.394c-0.462,0.391-0.462,2.677,0,3.066c0.101,1.571,0.899,2.445,1.393,3.623
	c0.252,0.492,0.624,0.863,1.116,1.115c2.292,1.177,5.023,1.031,6.411-0.279c0.751-0.711,1.168-2.591,1.673-4.181
	c1.437-4.543,3.167-10.527,4.179-14.214c0.398-0.532,0.649-1.21,0.838-1.951c1.488-5.107,3.571-9.62,6.968-12.82
	c0.903-0.489,1.392-1.395,1.951-2.229c1.468-2.088,3.061-3.676,3.344-6.411c0.351-3.387-0.996-5.463-2.23-7.246
	c-0.24-0.347-0.313-0.769-0.557-1.115c-0.657-0.927-1.727-1.878-2.229-2.508c-0.255-0.319-0.299-0.792-0.558-1.115
	c-1.438-1.795-3.273-3.622-4.181-5.295c-0.389-0.635-0.966-1.08-1.395-1.673c-1.677-1.946-2.833-4.413-6.411-4.459
	C42.097,67.075,41.474,67.232,41.033,67.208z"/>
<path fill-rule="evenodd" clip-rule="evenodd" fill="#323232" d="M35.737,93.128c0.463,1.03,0.463,3.987,0,5.018
	C35.737,96.473,35.737,94.801,35.737,93.128z"/>
<path fill-rule="evenodd" clip-rule="evenodd" fill="#323232" d="M29.049,124.902c0,1.022,0,2.043,0,3.066
	C28.586,127.578,28.586,125.292,29.049,124.902z"/>
<path fill-rule="evenodd" clip-rule="evenodd" fill="#C3C3C3" d="M30.999,56.339c0.062-0.217,0.233-0.324,0.558-0.279
	c0.093,0,0.186,0,0.279,0c0.417,0.048,1.029-0.1,1.115,0.279C32.3,56.339,31.649,56.339,30.999,56.339z"/>
<path fill-rule="evenodd" clip-rule="evenodd" fill="#C3C3C3" d="M35.737,90.621c0,0.65,0,1.301,0,1.951
	c-0.623-0.12-0.112-1.374-0.278-1.951C35.552,90.621,35.645,90.621,35.737,90.621z"/>
</svg>
