<?xml version="1.0" encoding="utf-8"?>
<!-- Generator: Adobe Illustrator 15.0.0, SVG Export Plug-In  -->
<!DOCTYPE svg PUBLIC "-//W3C//DTD SVG 1.1//EN" "http://www.w3.org/Graphics/SVG/1.1/DTD/svg11.dtd" [
	<!ENTITY ns_flows "http://ns.adobe.com/Flows/1.0/">
]>
<svg version="1.1"
	 xmlns="http://www.w3.org/2000/svg" xmlns:xlink="http://www.w3.org/1999/xlink" xmlns:a="http://ns.adobe.com/AdobeSVGViewerExtensions/3.0/"
	 x="0px" y="0px" width="142px" height="142px" viewBox="-33.94 -2.307 142 142" enable-background="new -33.94 -2.307 142 142"
	 xml:space="preserve">
<defs>
</defs>
<path fill-rule="evenodd" clip-rule="evenodd" fill="#D5D5D5" d="M49.114,2.832c0.301-0.461,2.488-0.461,2.789,0
	C50.974,2.832,50.044,2.832,49.114,2.832z"/>
<path fill-rule="evenodd" clip-rule="evenodd" fill="#D5D5D5" d="M22.638,25.408c0.372,0,0.743,0,1.115,0c0,0.093,0,0.186,0,0.278
	C23.312,25.664,22.69,25.821,22.638,25.408z"/>
<path fill-rule="evenodd" clip-rule="evenodd" fill="#A6A6A6" d="M23.752,25.687c0-0.093,0-0.186,0-0.278c0.372,0,0.744,0,1.115,0
	c0,0.093,0,0.186,0,0.278C24.496,25.687,24.124,25.687,23.752,25.687z"/>
<path fill-rule="evenodd" clip-rule="evenodd" fill="#333333" d="M65.559,35.999c0.2,0.452-1.314,0.452-1.114,0
	C64.815,35.999,65.188,35.999,65.559,35.999z"/>
<path fill-rule="evenodd" clip-rule="evenodd" fill="#333333" d="M64.444,38.786c0.371,0,0.744,0,1.114,0
	C65.759,39.238,64.244,39.238,64.444,38.786z"/>
<path fill-rule="evenodd" clip-rule="evenodd" fill="#D5D5D5" d="M44.655,56.624c0,0.372,0,0.743,0,1.115
	C44.204,57.938,44.204,56.424,44.655,56.624z"/>
<path fill-rule="evenodd" clip-rule="evenodd" fill="#D5D5D5" d="M59.707,89.511c0.452-0.199,0.452,1.314,0,1.115
	C59.707,90.254,59.707,89.883,59.707,89.511z"/>
<path fill-rule="evenodd" clip-rule="evenodd" fill="#333333" d="M32.95,93.693c0.093,0,0.186,0,0.278,0c0,1.3,0,2.601,0,3.901
	c-0.092,0-0.185,0-0.278,0C32.95,96.293,32.95,94.993,32.95,93.693z"/>
<path fill-rule="evenodd" clip-rule="evenodd" fill="#333333" d="M29.049,125.186c0,0.837,0,1.673,0,2.509
	C28.588,127.483,28.588,125.399,29.049,125.186z"/>
<path fill-rule="evenodd" clip-rule="evenodd" fill="#333333" d="M31.557,127.416c0.169-0.666-0.35-2.021,0.279-2.229
	c0,0.744,0,1.486,0,2.229C31.742,127.416,31.649,127.416,31.557,127.416z"/>
<path fill-rule="evenodd" clip-rule="evenodd" fill="#333333" d="M37.409,131.041c0,0.37,0,0.743,0,1.113
	C36.958,132.354,36.958,130.839,37.409,131.041z"/>
<path fill-rule="evenodd" clip-rule="evenodd" fill="#A6A6A6" d="M37.688,136.614c0-0.093,0-0.186,0-0.278c0.372,0,0.743,0,1.115,0
	c-0.046,0.324-0.439,0.302-0.835,0.278C37.874,136.614,37.781,136.614,37.688,136.614z"/>
<path fill-rule="evenodd" clip-rule="evenodd" fill="#333333" d="M39.36,137.45c0.413,0.052,0.256,0.674,0.278,1.115
	C39.227,138.513,39.384,137.891,39.36,137.45z"/>
<path fill-rule="evenodd" clip-rule="evenodd" fill="#333333" d="M37.967,137.728c0.413,0.053,0.255,0.675,0.279,1.115
	C37.833,138.792,37.99,138.17,37.967,137.728z"/>
<path fill-rule="evenodd" clip-rule="evenodd" fill="#A6A6A6" d="M30.999,46.033c0.252-0.492,0.624-0.863,1.115-1.115
	C31.862,45.409,31.491,45.781,30.999,46.033z"/>
<path fill-rule="evenodd" clip-rule="evenodd" fill="#D5D5D5" d="M31.557,133.827c0.492,0.252,0.863,0.623,1.115,1.115
	C32.258,134.613,31.426,134.701,31.557,133.827z"/>
<path fill-rule="evenodd" clip-rule="evenodd" fill="#333333" d="M57.477,100.102c0.253-0.491,0.623-0.862,1.114-1.114
	C58.341,99.479,57.968,99.851,57.477,100.102z"/>
<path fill-rule="evenodd" clip-rule="evenodd" fill="#333333" d="M46.05,51.05c-0.046-0.324,0.062-0.497,0.278-0.558
	c-0.152,0.618,0.533,0.396,0.557,0.836C46.437,51.407,46.406,51.064,46.05,51.05z"/>
<path fill-rule="evenodd" clip-rule="evenodd" fill="#717171" d="M68.904,37.671c0.25-0.491,0.623-0.863,1.114-1.115
	C69.768,37.048,69.396,37.419,68.904,37.671z"/>
<path fill-rule="evenodd" clip-rule="evenodd" fill="#717171" d="M62.215,3.39c0.675,0.44,1.232,0.997,1.673,1.672
	C63.213,4.622,62.653,4.065,62.215,3.39z"/>
<path fill-rule="evenodd" clip-rule="evenodd" fill="#D5D5D5" d="M40.197,133.27c0.251-0.492,0.623-0.863,1.114-1.116
	C41.059,132.646,40.688,133.017,40.197,133.27z"/>
<path fill-rule="evenodd" clip-rule="evenodd" fill="#333333" d="M54.969,98.709c0.347-0.583,0.81-1.048,1.395-1.394
	C56.017,97.899,55.552,98.364,54.969,98.709z"/>
<path fill-rule="evenodd" clip-rule="evenodd" fill="#333333" d="M53.018,35.441c0.347-0.583,0.812-1.047,1.395-1.393
	C54.065,34.631,53.601,35.096,53.018,35.441z"/>
<path fill-rule="evenodd" clip-rule="evenodd" fill="#D5D5D5" d="M62.215,7.292c-0.699-0.787-1.442-1.53-2.229-2.229
	C61.073,5.459,61.816,6.203,62.215,7.292z"/>
<path fill-rule="evenodd" clip-rule="evenodd" fill="#333333" d="M39.917,133.27c0.347-0.584,0.812-1.048,1.395-1.395
	c0,0.093,0,0.187,0,0.278c-0.491,0.253-0.863,0.624-1.114,1.116C40.104,133.27,40.012,133.27,39.917,133.27z"/>
<path fill-rule="evenodd" clip-rule="evenodd" fill="#333333" d="M38.246,131.041c0.247-0.752,0.778,0.481,0.557,1.113
	C38.046,132.354,39.003,130.839,38.246,131.041z"/>
<path fill-rule="evenodd" clip-rule="evenodd" fill="#717171" d="M39.36,44.082c0.455-0.66,1.637-0.593,2.229-1.115
	c-0.928,1.007,1.515,2.583,0,3.345C39.925,46.49,40.74,44.188,39.36,44.082z"/>
<path fill-rule="evenodd" clip-rule="evenodd" fill="#A6A6A6" d="M49.396,0.045c1.212,0.18,3.149-0.364,3.9,0.278
	c-1.3,0-2.601,0-3.9,0C49.396,0.231,49.396,0.138,49.396,0.045z"/>
<path fill-rule="evenodd" clip-rule="evenodd" fill="#717171" d="M25.146,12.03c-0.828-1.031-1.331-2.386-2.23-3.344
	c0.634-0.482,1.077-1.153,2.23-1.115c0.49,1.274,1.228,2.301,1.951,3.344C26.516,11.355,25.962,11.823,25.146,12.03z"/>
<path fill-rule="evenodd" clip-rule="evenodd" fill="#717171" d="M6.194,12.587c0.405,0.152,1.441-0.326,1.394,0.279
	C7.183,12.713,6.147,13.192,6.194,12.587z"/>
<path fill-rule="evenodd" clip-rule="evenodd" fill="#717171" d="M26.261,14.538c0.581-0.627,1.619-0.796,2.23-1.394
	c0.208,1.618,2.395,2.542,1.672,4.181c-0.693-0.043-0.862,0.438-1.394,0.558c-0.77-0.995-1.533-1.997-1.95-3.345
	C26.633,14.538,26.447,14.538,26.261,14.538z"/>
<path fill-rule="evenodd" clip-rule="evenodd" fill="#333333" d="M0.341,17.325c-0.455,0.126-0.455-1.519,0-1.393
	C0.341,16.396,0.341,16.861,0.341,17.325z"/>
<path fill-rule="evenodd" clip-rule="evenodd" fill="#717171" d="M20.408,25.129c0.578,0.166,1.832-0.344,1.952,0.279
	C21.782,25.242,20.528,25.752,20.408,25.129z"/>
<path fill-rule="evenodd" clip-rule="evenodd" fill="#717171" d="M24.868,25.408c0.65,0,1.301,0,1.951,0
	c-0.121,0.623-1.374,0.113-1.951,0.278C24.868,25.594,24.868,25.501,24.868,25.408z"/>
<path fill-rule="evenodd" clip-rule="evenodd" fill="#717171" d="M71.134,25.687c-0.023,0.441,0.135,1.063-0.278,1.115
	C70.878,26.36,70.722,25.739,71.134,25.687z"/>
<path fill-rule="evenodd" clip-rule="evenodd" fill="#717171" d="M56.642,35.999c-0.126-0.455,1.519-0.455,1.393,0
	C57.569,35.999,57.106,35.999,56.642,35.999z"/>
<path fill-rule="evenodd" clip-rule="evenodd" fill="#717171" d="M44.936,34.605c-0.166,0.578,0.345,1.832-0.28,1.952
	C44.821,35.979,44.311,34.726,44.936,34.605z"/>
<path fill-rule="evenodd" clip-rule="evenodd" fill="#717171" d="M39.917,40.737c-0.39,0.445-0.959,0.711-1.671,0.836
	c0.58-0.853-0.829-1.645-0.837-2.788c0.171-0.387,1.073-0.042,1.115-0.557C39.184,38.871,39.417,39.938,39.917,40.737z"/>
<path fill-rule="evenodd" clip-rule="evenodd" fill="#717171" d="M43.819,49.377c-0.412,0.795-0.57,1.844-1.113,2.508
	c0-0.186,0-0.372,0-0.558c-0.471-0.841-3.087-0.673-1.951-2.23C41.512,48.284,42.858,50.355,43.819,49.377z"/>
<path fill-rule="evenodd" clip-rule="evenodd" fill="#D5D5D5" d="M28.769,52.443c0.638,0.477,0.102,2.128,0.28,3.066
	C28.411,55.032,28.946,53.381,28.769,52.443z"/>
<path fill-rule="evenodd" clip-rule="evenodd" fill="#717171" d="M29.049,56.345c0.615,0.035,0.118,1.183,0.278,1.672
	C28.711,57.982,29.208,56.835,29.049,56.345z"/>
<path fill-rule="evenodd" clip-rule="evenodd" fill="#717171" d="M31.835,57.181c0.615,0.035,0.118,1.183,0.279,1.672
	C31.499,58.818,31.996,57.671,31.835,57.181z"/>
<path fill-rule="evenodd" clip-rule="evenodd" fill="#717171" d="M30.163,65.263c0.615,0.035,0.119,1.183,0.278,1.673
	C29.826,66.901,30.324,65.753,30.163,65.263z"/>
<path fill-rule="evenodd" clip-rule="evenodd" fill="#717171" d="M32.95,66.1c0.616,0.035,0.119,1.183,0.278,1.672
	C32.613,67.737,33.11,66.59,32.95,66.1z"/>
<path fill-rule="evenodd" clip-rule="evenodd" fill="#717171" d="M30.441,67.772c0.616,0.035,0.119,1.183,0.279,1.672
	C30.105,69.41,30.602,68.262,30.441,67.772z"/>
<path fill-rule="evenodd" clip-rule="evenodd" fill="#717171" d="M33.508,70.837c0.615,0.035,0.118,1.184,0.278,1.672
	C33.171,72.475,33.668,71.328,33.508,70.837z"/>
<path fill-rule="evenodd" clip-rule="evenodd" fill="#717171" d="M34.065,75.019c-0.615-0.035-0.119-1.184-0.279-1.673
	C34.402,73.381,33.905,74.529,34.065,75.019z"/>
<path fill-rule="evenodd" clip-rule="evenodd" fill="#717171" d="M31.278,75.019c0.616,0.034,0.118,1.182,0.279,1.672
	C30.941,76.656,31.438,75.508,31.278,75.019z"/>
<path fill-rule="evenodd" clip-rule="evenodd" fill="#717171" d="M34.065,76.133c0.616,0.035,0.119,1.183,0.279,1.672
	C33.728,77.771,34.226,76.624,34.065,76.133z"/>
<path fill-rule="evenodd" clip-rule="evenodd" fill="#717171" d="M31.557,77.805c0.616,0.035,0.119,1.183,0.279,1.672
	C31.22,79.444,31.717,78.295,31.557,77.805z"/>
<path fill-rule="evenodd" clip-rule="evenodd" fill="#717171" d="M34.344,78.642c0.615,0.035,0.118,1.182,0.278,1.672
	C34.007,80.28,34.504,79.132,34.344,78.642z"/>
<path fill-rule="evenodd" clip-rule="evenodd" fill="#717171" d="M31.835,80.314c0.623,0.12,0.113,1.374,0.279,1.951
	C31.491,82.145,32.001,80.892,31.835,80.314z"/>
<path fill-rule="evenodd" clip-rule="evenodd" fill="#717171" d="M34.623,81.429c0.616,0.034,0.118,1.183,0.278,1.673
	C34.286,83.067,34.782,81.918,34.623,81.429z"/>
<path fill-rule="evenodd" clip-rule="evenodd" fill="#717171" d="M32.114,83.102c0.616,0.033,0.118,1.182,0.278,1.671
	C31.777,84.739,32.274,83.591,32.114,83.102z"/>
<path fill-rule="evenodd" clip-rule="evenodd" fill="#717171" d="M34.901,83.937c0.624,0.12,0.113,1.374,0.279,1.951
	C34.557,85.768,35.067,84.515,34.901,83.937z"/>
<path fill-rule="evenodd" clip-rule="evenodd" fill="#717171" d="M32.393,85.888c0.616,0.035,0.119,1.184,0.279,1.672
	C32.056,87.526,32.553,86.378,32.393,85.888z"/>
<path fill-rule="evenodd" clip-rule="evenodd" fill="#717171" d="M35.18,86.725c0.623,0.119,0.113,1.373,0.278,1.95
	C34.835,88.556,35.345,87.301,35.18,86.725z"/>
<path fill-rule="evenodd" clip-rule="evenodd" fill="#717171" d="M32.671,88.675c0.624,0.12,0.113,1.374,0.279,1.951
	C32.327,90.506,32.837,89.253,32.671,88.675z"/>
<path fill-rule="evenodd" clip-rule="evenodd" fill="#717171" d="M62.215,88.118c0.463,0.572,0.463,3.052,0,3.624
	C62.215,90.534,62.215,89.325,62.215,88.118z"/>
<path fill-rule="evenodd" clip-rule="evenodd" fill="#717171" d="M35.458,89.79c0.628,0.209,0.109,1.564,0.278,2.23
	C35.109,91.812,35.628,90.458,35.458,89.79z"/>
<path fill-rule="evenodd" clip-rule="evenodd" fill="#333333" d="M35.737,97.873c0-1.486,0-2.973,0-4.458
	C36.2,94.259,36.2,97.027,35.737,97.873z"/>
<path fill-rule="evenodd" clip-rule="evenodd" fill="#717171" d="M33.229,97.594c-0.152,0.404,0.326,1.44-0.278,1.394
	c0-0.465,0-0.929,0-1.394C33.043,97.594,33.136,97.594,33.229,97.594z"/>
<path fill-rule="evenodd" clip-rule="evenodd" fill="#717171" d="M35.737,98.988c-0.16,0.489,0.337,1.638-0.278,1.673
	C35.619,100.17,35.122,99.023,35.737,98.988z"/>
<path fill-rule="evenodd" clip-rule="evenodd" fill="#A6A6A6" d="M31.835,127.416c0,0.372,0,0.744,0,1.115
	c-0.378-0.086-0.231-0.697-0.279-1.115C31.649,127.416,31.742,127.416,31.835,127.416z"/>
<path fill-rule="evenodd" clip-rule="evenodd" fill="#717171" d="M39.082,133.548c-0.035,0.615-1.183,0.118-1.673,0.278
	c0-0.557,0-1.115,0-1.673c0-0.37,0-0.743,0-1.113c0.279,0,0.558,0,0.837,0c0.757-0.201-0.2,1.313,0.557,1.113
	C38.715,132.801,38.848,133.225,39.082,133.548z"/>
<path fill-rule="evenodd" clip-rule="evenodd" fill="#717171" d="M39.639,138.565c0.251,0.72-1.574,1.367-1.393,0.278
	c-0.023-0.44,0.134-1.063-0.279-1.115c0-0.371,0-0.743,0-1.114c0.396,0.023,0.79,0.046,0.835-0.278c0.187,0,0.372,0,0.558,0
	c0,0.371,0,0.743,0,1.114C39.384,137.891,39.227,138.513,39.639,138.565z"/>
<path fill-rule="evenodd" clip-rule="evenodd" fill="#FFFFFF" d="M27.097,10.915c1.816-1.421,4.98-3.059,7.804-4.738
	c2.575-1.532,5.022-3.358,7.527-4.459c1.774-0.781,2.984-1.172,5.295-1.394c0.557,0,1.113,0,1.673,0c1.3,0,2.601,0,3.9,0
	c3.74,0.256,6.791,1.198,8.919,3.066c0.438,0.676,0.998,1.232,1.673,1.672c2.356,2.202,3.898,5.73,5.853,9.476
	c1.595,3.057,3.436,5.709,3.902,9.198c0,0.929,0,1.858,0,2.787c-0.533,4.02-1.936,7.169-3.624,10.034
	c-0.491,0.252-0.864,0.624-1.114,1.115c-0.837,0.649-1.694,1.279-3.346,1.115c-0.37,0-0.743,0-1.114,0
	c-3.083,0.017-4.114-2.016-6.41-2.787c0.126-0.455-1.519-0.455-1.393,0c-2.406,1.822-3.65,4.778-5.297,7.247
	c-1.659,2.488-3.462,4.791-5.017,7.247c-0.217,0.061-0.324,0.233-0.278,0.558c-0.415,0.236-0.403,0.897-0.558,1.393
	c-0.456,1.216-0.494,2.85-0.837,4.181c-0.451-0.199-0.451,1.314,0,1.115c0.326,2.971,1.298,5.373,2.51,7.525
	c1.901,3.382,5.051,6.827,7.804,10.313c0.328,0.417,0.721,0.93,1.114,1.394c0.743,0.876,1.677,1.978,2.508,3.066
	c0.172,0.223,0.096,0.579,0.28,0.836c0.609,0.857,1.457,1.63,1.949,2.509c0.868,1.538,1.314,2.443,1.395,4.737
	c0,1.207,0,2.416,0,3.624c-0.269,3.355-2.041,5.204-3.624,7.246c-0.491,0.252-0.861,0.623-1.114,1.114
	c-0.839,1.037-1.673,1.968-2.508,3.066c-0.682,0.896-1.585,1.884-2.229,3.065c-1.052,1.927-1.773,4.876-2.787,7.805
	c-1.841,5.311-3.165,10.167-5.017,15.886c-0.37,1.14-0.621,1.995-1.116,3.066c-0.641,1.387-2.317,3.099-4.459,3.345
	c-0.186,0-0.371,0-0.558,0c-0.372,0-0.743,0-1.115,0c-0.557,0-1.115,0-1.672,0c-1.5-0.08-2.651-0.508-3.345-1.394
	c-0.252-0.492-0.623-0.863-1.115-1.115c-1.522-1.358-2.523-3.237-2.508-6.132c0-0.836,0-1.672,0-2.509
	c0.997-9.036,2.68-17.387,3.901-26.198c0.604,0.047,0.126-0.989,0.278-1.394c0-1.301,0-2.602,0-3.901
	c-0.166-0.577,0.345-1.831-0.278-1.951c0-0.372,0-0.744,0-1.115c-0.166-0.577,0.345-1.831-0.279-1.951c0-0.371,0-0.743,0-1.115
	c-0.16-0.488,0.337-1.637-0.279-1.672c0-0.371,0-0.743,0-1.115c-0.16-0.489,0.337-1.638-0.278-1.671c0-0.28,0-0.559,0-0.837
	c-0.166-0.577,0.344-1.831-0.279-1.951c0-0.278,0-0.557,0-0.837c-0.16-0.489,0.337-1.637-0.279-1.672c0-0.371,0-0.743,0-1.114
	c-0.161-0.49,0.337-1.638-0.279-1.672c-0.236-1.809-0.567-3.521-0.557-5.575c-0.161-0.49,0.337-1.637-0.279-1.672
	c0-0.279,0-0.558,0-0.836c-0.16-0.49,0.337-1.638-0.278-1.673c-0.374-2.32-0.778-4.61-0.836-7.246
	c-0.16-0.49,0.337-1.638-0.278-1.672c0-0.279,0-0.558,0-0.836c-0.178-0.938,0.358-2.589-0.28-3.066
	c-0.149-3.031,0.793-4.967,2.23-6.41c0.492-0.252,0.863-0.624,1.115-1.115c1.614-1.544,3.928-2.389,6.132-3.344
	c0.712-0.125,1.281-0.392,1.671-0.836c1.951-1.023,4.249-1.699,4.738-4.181c0.625-0.12,0.114-1.374,0.28-1.952
	c0.028-2.43-0.37-4.506-0.837-6.967c-0.425-2.252-0.592-4.593-2.23-5.296c-2.954-1.267-6.617,2.801-9.197,4.181
	c-1.467,0.785-2.441,1.248-4.459,1.394c-2.323,0-4.646,0-6.968,0c-5.11-0.074-9.265-2.428-13.1-4.46
	c-1.469-0.778-3.024-1.635-4.459-2.508c-1.415-0.861-3.285-1.737-3.345-3.623c0-0.464,0-0.929,0-1.393
	c0.391-1.84,1.61-2.85,3.624-3.066c0.577-0.167,1.831,0.344,1.951-0.279c0.093,0,0.186,0,0.278,0
	c-0.047,0.604,0.989,0.126,1.394,0.279c1.521,0.104,3.435,0.769,5.295,1.394c1.571,0.528,3.375,1.448,4.738,1.393
	c1.419-0.057,2.758-1.083,3.902-1.672c1.218-0.627,2.46-1.22,3.623-1.951C25.962,11.823,26.516,11.355,27.097,10.915z M49.114,2.832
	c-4.026,0.25-7.104,2.458-9.476,3.902c-0.452,0.276-0.979,0.309-1.393,0.557c-3.177,1.912-6.526,4.341-9.755,5.853
	c-0.611,0.597-1.649,0.767-2.23,1.394c-2.222,1.494-4.392,3.04-7.525,3.624c-0.743,0-1.486,0-2.229,0
	c-2.199,0.031-4.371-1.226-6.689-1.951c-0.954-0.298-2.558-0.851-3.624-0.836c-0.925,0.012-2.781-0.115-3.066,1.394
	C3.076,17.74,4.265,17.819,4.8,18.162c0.677,0.433,1.304,1.03,1.952,1.394c0.373,0.21,0.75,0.073,1.114,0.278
	c0.326,0.185,0.505,0.658,0.836,0.836c0.742,0.4,1.528,0.762,2.229,1.115c2.839,1.428,5.946,2.734,9.476,3.345
	c0.121,0.623,1.374,0.113,1.952,0.279c0.093,0,0.186,0,0.278,0c0.052,0.413,0.674,0.255,1.115,0.278c0.372,0,0.744,0,1.115,0
	c0.577-0.166,1.831,0.345,1.951-0.278c5.725-0.414,9.598-7.126,15.609-6.132c1.161,0.193,2.241,1.403,2.786,2.23
	c1.469,2.232,1.793,6.267,2.23,9.755c0,1.487,0,2.973,0,4.46c0.014,4.381-2.733,6.001-5.854,7.246
	c-0.593,0.521-1.774,0.455-2.229,1.115c-3.222,1.702-7.14,2.708-7.804,6.968c-0.461,0.3-0.461,2.486,0,2.787
	c0.021,1.187,0.466,1.949,0.279,3.344c0.16,0.49-0.336,1.637,0.279,1.672c0.264,2.43,0.823,4.565,0.836,7.246
	c0.16,0.49-0.337,1.638,0.278,1.672c0.138,0.977,0.416,1.814,0.279,3.065c0.16,0.49-0.337,1.638,0.278,1.672
	c0,0.279,0,0.559,0,0.837c0.16,0.489-0.336,1.638,0.279,1.673c0,0.371,0,0.743,0,1.114c0.161,0.49-0.337,1.638,0.279,1.672
	c0,0.28,0,0.559,0,0.837c0.16,0.49-0.337,1.638,0.278,1.672c0,0.371,0,0.743,0,1.115c0.16,0.489-0.337,1.638,0.278,1.673
	c0,0.278,0,0.557,0,0.835c0.166,0.578-0.344,1.831,0.279,1.951c0,0.278,0,0.558,0,0.837c0.165,0.576-0.345,1.831,0.278,1.95
	c0,0.371,0,0.743,0,1.114c0.17,0.668-0.35,2.022,0.278,2.23c0,0.465,0,0.93,0,1.395c0,1.485,0,2.972,0,4.458
	c0,0.372,0,0.743,0,1.115c-0.615,0.035-0.118,1.183-0.278,1.673c-0.946,8.438-2.584,16.182-3.623,24.525
	c-0.628,0.208-0.109,1.563-0.279,2.229c0.048,0.418-0.1,1.029,0.279,1.115c0.777,2.847,2.188,5.06,5.574,5.296
	c0.49-0.16,1.638,0.337,1.673-0.278c0.356-0.016,0.386-0.357,0.835-0.278c0.095,0,0.187,0,0.28,0
	c0.491-0.253,0.861-0.624,1.114-1.116c0-0.092,0-0.186,0-0.278c4.247-11.36,5.788-25.429,13.657-33.166
	c0.583-0.346,1.048-0.811,1.395-1.394c1.526-1.818,2.818-3.871,3.344-6.689c0.452,0.199,0.452-1.314,0-1.115
	c-0.369-1.094-0.187-2.316-0.558-3.345c-0.188-0.521-0.817-0.914-1.115-1.394c-0.217-0.349-0.057-0.78-0.278-1.114
	c-0.154-0.23-0.676-0.321-0.836-0.557c-0.086-0.127,0.063-0.417,0-0.559c-0.042-0.09-0.488-0.175-0.557-0.278
	c-0.086-0.128,0.062-0.415,0-0.558c-0.04-0.084-0.489-0.184-0.56-0.278c-1.574-2.146-3.289-4.33-4.737-6.132
	c-0.399-0.497-0.71-1.153-1.114-1.672c-0.775-0.991-1.777-1.837-2.508-2.788c-0.826-1.069-1.505-2.186-2.23-3.344
	c-1.406-2.242-2.837-4.795-3.067-8.083c0-1.393,0-2.787,0-4.181c-0.05-1.35,0.223-2.379,0.56-3.344
	c0.543-0.664,0.701-1.713,1.113-2.508c1.356-2.406,2.932-4.676,4.46-6.968c1.553-2.329,3.136-4.641,4.738-6.968
	c0.583-0.346,1.048-0.811,1.395-1.393c3.884-2.655,7.24,1.269,10.032,1.951c-0.2,0.452,1.314,0.452,1.114,0
	c2.549-0.162,2.835-2.414,3.624-4.459c0.649-1.681,1.377-3.336,1.673-4.738c0.413-0.051,0.255-0.673,0.278-1.115
	c-0.142-0.972-0.092-1.524-0.278-2.23c-0.753-2.852-2.512-5.735-3.902-8.361c-1.515-2.858-3.021-5.55-4.738-7.804
	c-0.398-1.088-1.142-1.832-2.229-2.229c-2.198-1.24-5.104-1.77-8.082-2.23C51.603,2.371,49.415,2.371,49.114,2.832z"/>
<path fill-rule="evenodd" clip-rule="evenodd" fill="#D5D5D5" d="M21.244,27.917c2.323,0,4.646,0,6.968,0
	C26.535,28.38,22.921,28.38,21.244,27.917z"/>
<path fill-rule="evenodd" clip-rule="evenodd" fill="#A6A6A6" d="M3.964,12.866c0.12-0.624,1.374-0.113,1.951-0.279
	C5.795,13.21,4.542,12.7,3.964,12.866z"/>
<path fill-rule="evenodd" clip-rule="evenodd" fill="#717171" d="M31.557,51.05c0,0.929,0,1.857,0,2.787
	C31.095,53.536,31.095,51.35,31.557,51.05z"/>
<path fill-rule="evenodd" clip-rule="evenodd" fill="#717171" d="M46.05,51.05c0.356,0.015,0.387,0.357,0.835,0.278
	c0.817-0.073,0.857,0.63,1.673,0.558c0.114,0.671-0.509,0.606-0.278,1.394c-1.216,0.01-1.645-0.77-2.787-0.836
	C45.646,51.947,45.635,51.286,46.05,51.05z"/>
<path fill-rule="evenodd" clip-rule="evenodd" fill="#717171" d="M32.95,91.742c0.623,0.12,0.113,1.374,0.278,1.951
	c-0.092,0-0.185,0-0.278,0C32.95,93.042,32.95,92.391,32.95,91.742z"/>
<path fill-rule="evenodd" clip-rule="evenodd" fill="#717171" d="M47.723,0.324c0.034-0.615,1.182-0.118,1.673-0.278
	c0,0.093,0,0.186,0,0.278C48.836,0.324,48.279,0.324,47.723,0.324z"/>
<path fill-rule="evenodd" clip-rule="evenodd" fill="#717171" d="M16.506,18.162c0.743,0,1.486,0,2.229,0
	C18.612,18.622,16.63,18.622,16.506,18.162z"/>
<path fill-rule="evenodd" clip-rule="evenodd" fill="#717171" d="M73.643,23.736c0.461,0.3,0.461,2.487,0,2.787
	C73.643,25.594,73.643,24.665,73.643,23.736z"/>
<path fill-rule="evenodd" clip-rule="evenodd" fill="#717171" d="M47.444,31.261c0.462,0.846,0.462,3.613,0,4.46
	C47.444,34.234,47.444,32.748,47.444,31.261z"/>
<path fill-rule="evenodd" clip-rule="evenodd" fill="#717171" d="M42.146,55.229c0,1.394,0,2.788,0,4.181
	C41.685,58.656,41.685,55.984,42.146,55.229z"/>
<path fill-rule="evenodd" clip-rule="evenodd" fill="#717171" d="M36.016,136.335c0.557,0,1.115,0,1.672,0c0,0.093,0,0.186,0,0.278
	C37.198,136.454,36.051,136.951,36.016,136.335z"/>
</svg>
