<?xml version="1.0" encoding="utf-8"?>
<!-- Generator: Adobe Illustrator 15.0.0, SVG Export Plug-In  -->
<!DOCTYPE svg PUBLIC "-//W3C//DTD SVG 1.1//EN" "http://www.w3.org/Graphics/SVG/1.1/DTD/svg11.dtd" [
	<!ENTITY ns_flows "http://ns.adobe.com/Flows/1.0/">
]>
<svg version="1.1"
	 xmlns="http://www.w3.org/2000/svg" xmlns:xlink="http://www.w3.org/1999/xlink" xmlns:a="http://ns.adobe.com/AdobeSVGViewerExtensions/3.0/"
	 x="0px" y="0px" width="142px" height="142px" viewBox="-33.94 -2.307 142 142" enable-background="new -33.94 -2.307 142 142"
	 xml:space="preserve">
<defs>
</defs>
<path fill-rule="evenodd" clip-rule="evenodd" fill="#D4D4D4" d="M49.114,2.832c0.301-0.461,2.488-0.461,2.789,0
	C50.974,2.832,50.044,2.832,49.114,2.832z"/>
<path fill-rule="evenodd" clip-rule="evenodd" fill="#D4D4D4" d="M22.638,25.408c0.372,0,0.743,0,1.115,0c0,0.093,0,0.186,0,0.278
	C23.312,25.664,22.69,25.821,22.638,25.408z"/>
<path fill-rule="evenodd" clip-rule="evenodd" fill="#A6A6A6" d="M23.752,25.687c0-0.093,0-0.186,0-0.278c0.372,0,0.744,0,1.115,0
	c0,0.093,0,0.186,0,0.278C24.496,25.687,24.124,25.687,23.752,25.687z"/>
<path fill-rule="evenodd" clip-rule="evenodd" fill="#343434" d="M65.559,35.999c0.2,0.452-1.314,0.452-1.114,0
	C64.815,35.999,65.188,35.999,65.559,35.999z"/>
<path fill-rule="evenodd" clip-rule="evenodd" fill="#343434" d="M64.166,38.786c0.465,0,0.928,0,1.393,0
	C65.685,39.242,64.04,39.242,64.166,38.786z"/>
<path fill-rule="evenodd" clip-rule="evenodd" fill="#D4D4D4" d="M59.707,89.511c0.452-0.199,0.452,1.314,0,1.115
	C59.707,90.254,59.707,89.883,59.707,89.511z"/>
<path fill-rule="evenodd" clip-rule="evenodd" fill="#343434" d="M32.95,93.415c0.093,0,0.186,0,0.278,0c0,1.393,0,2.786,0,4.18
	c-0.092,0-0.185,0-0.278,0C32.95,96.201,32.95,94.807,32.95,93.415z"/>
<path fill-rule="evenodd" clip-rule="evenodd" fill="#343434" d="M35.737,93.415c0.463,0.845,0.463,3.612,0,4.458
	C35.737,96.386,35.737,94.9,35.737,93.415z"/>
<path fill-rule="evenodd" clip-rule="evenodd" fill="#343434" d="M29.049,125.186c0,0.837,0,1.673,0,2.509
	C28.588,127.483,28.588,125.399,29.049,125.186z"/>
<path fill-rule="evenodd" clip-rule="evenodd" fill="#343434" d="M31.557,127.416c0.169-0.666-0.35-2.021,0.279-2.229
	c0,0.744,0,1.486,0,2.229C31.742,127.416,31.649,127.416,31.557,127.416z"/>
<path fill-rule="evenodd" clip-rule="evenodd" fill="#A6A6A6" d="M30.999,46.033c0.252-0.492,0.624-0.863,1.115-1.115
	C31.862,45.409,31.491,45.781,30.999,46.033z"/>
<path fill-rule="evenodd" clip-rule="evenodd" fill="#D4D4D4" d="M31.557,133.827c0.492,0.252,0.863,0.623,1.115,1.115
	C32.258,134.613,31.426,134.701,31.557,133.827z"/>
<path fill-rule="evenodd" clip-rule="evenodd" fill="#343434" d="M57.477,100.102c0.253-0.491,0.623-0.862,1.114-1.114
	C58.341,99.479,57.968,99.851,57.477,100.102z"/>
<path fill-rule="evenodd" clip-rule="evenodd" fill="#727272" d="M68.904,37.671c0.25-0.491,0.623-0.863,1.114-1.115
	C69.768,37.048,69.396,37.419,68.904,37.671z"/>
<path fill-rule="evenodd" clip-rule="evenodd" fill="#727272" d="M62.215,3.39c0.675,0.44,1.232,0.997,1.673,1.672
	C63.213,4.622,62.653,4.065,62.215,3.39z"/>
<path fill-rule="evenodd" clip-rule="evenodd" fill="#727272" d="M30.441,132.711c0.491,0.252,0.864,0.624,1.115,1.115
	c-1.208,0.187-1.497,1.29-2.788,1.394c-0.239-0.225-0.165-0.764-0.557-0.837C28.711,133.583,29.43,133.001,30.441,132.711z"/>
<path fill-rule="evenodd" clip-rule="evenodd" fill="#727272" d="M34.344,132.991c-0.877-0.609-1.537-1.437-1.952-2.509
	c1.022,0.891,2.146-2.187,3.066-0.558c0.875,1.298-1.692,1.178-1.672,2.509C34.035,132.556,34.285,132.678,34.344,132.991z"/>
<path fill-rule="evenodd" clip-rule="evenodd" fill="#D4D4D4" d="M40.197,133.27c0.251-0.492,0.623-0.863,1.114-1.116
	C41.059,132.646,40.688,133.017,40.197,133.27z"/>
<path fill-rule="evenodd" clip-rule="evenodd" fill="#343434" d="M54.969,98.709c0.347-0.583,0.81-1.048,1.395-1.394
	C56.017,97.899,55.552,98.364,54.969,98.709z"/>
<path fill-rule="evenodd" clip-rule="evenodd" fill="#343434" d="M53.018,35.441c0.347-0.583,0.812-1.047,1.395-1.393
	C54.065,34.631,53.601,35.096,53.018,35.441z"/>
<path fill-rule="evenodd" clip-rule="evenodd" fill="#D4D4D4" d="M62.215,7.292c-0.699-0.787-1.442-1.53-2.229-2.229
	C61.073,5.459,61.816,6.203,62.215,7.292z"/>
<path fill-rule="evenodd" clip-rule="evenodd" fill="#343434" d="M39.917,133.27c0.347-0.584,0.812-1.048,1.395-1.395
	c0,0.093,0,0.187,0,0.278c-0.491,0.253-0.863,0.624-1.114,1.116C40.104,133.27,40.012,133.27,39.917,133.27z"/>
<path fill-rule="evenodd" clip-rule="evenodd" fill="#A6A6A6" d="M49.396,0.045c1.212,0.18,3.149-0.364,3.9,0.278
	c-1.3,0-2.601,0-3.9,0C49.396,0.231,49.396,0.138,49.396,0.045z"/>
<path fill-rule="evenodd" clip-rule="evenodd" fill="#727272" d="M34.344,6.456c-0.684,0.524-1.263,1.153-2.23,1.393
	c0.487-1.234-1.139-2.507-1.673-3.623c0.284-0.739,1.289-0.755,1.673-1.394C33.018,3.879,33.671,5.177,34.344,6.456z"/>
<path fill-rule="evenodd" clip-rule="evenodd" fill="#727272" d="M3.964,12.866c0.035-0.616,1.182-0.119,1.672-0.279
	C5.602,13.203,4.454,12.706,3.964,12.866z"/>
<path fill-rule="evenodd" clip-rule="evenodd" fill="#727272" d="M6.194,12.587c0.405,0.152,1.441-0.326,1.394,0.279
	C7.183,12.713,6.147,13.192,6.194,12.587z"/>
<path fill-rule="evenodd" clip-rule="evenodd" fill="#343434" d="M0.341,17.325c-0.455,0.126-0.455-1.519,0-1.393
	C0.341,16.396,0.341,16.861,0.341,17.325z"/>
<path fill-rule="evenodd" clip-rule="evenodd" fill="#727272" d="M20.408,25.129c0.578,0.166,1.832-0.344,1.952,0.279
	C21.782,25.242,20.528,25.752,20.408,25.129z"/>
<path fill-rule="evenodd" clip-rule="evenodd" fill="#727272" d="M24.868,25.408c0.65,0,1.301,0,1.951,0
	c-0.121,0.623-1.374,0.113-1.951,0.278C24.868,25.594,24.868,25.501,24.868,25.408z"/>
<path fill-rule="evenodd" clip-rule="evenodd" fill="#727272" d="M56.642,35.999c-0.126-0.455,1.519-0.455,1.393,0
	C57.569,35.999,57.106,35.999,56.642,35.999z"/>
<path fill-rule="evenodd" clip-rule="evenodd" fill="#727272" d="M44.936,34.605c-0.166,0.578,0.345,1.832-0.28,1.952
	C44.821,35.979,44.311,34.726,44.936,34.605z"/>
<path fill-rule="evenodd" clip-rule="evenodd" fill="#727272" d="M40.476,40.458c-0.391,0.445-0.961,0.712-1.673,0.836
	c0.115-1.323-0.951-1.464-0.835-2.787c0.519-0.038,0.93-0.183,1.115-0.558C39.889,38.444,39.718,39.915,40.476,40.458z"/>
<path fill-rule="evenodd" clip-rule="evenodd" fill="#727272" d="M41.59,42.967c0.092,1.1,1.767,2.376,0.557,3.066
	c-1.7,0.216-1.088-1.885-2.229-2.23C40.29,43.338,41.157,43.37,41.59,42.967z"/>
<path fill-rule="evenodd" clip-rule="evenodd" fill="#727272" d="M43.541,49.934c-0.421,0.509-0.296,1.563-0.835,1.952
	c-0.722-0.809-3.236-0.527-2.23-2.23C41.173,48.902,42.714,50.777,43.541,49.934z"/>
<path fill-rule="evenodd" clip-rule="evenodd" fill="#727272" d="M45.214,53c0.188-0.741,0.439-1.419,0.836-1.951
	c0.328,0.786,1.382,0.847,2.229,1.114c0.09,0.646-0.044,1.07-0.278,1.394C46.749,53.734,45.979,52.438,45.214,53z"/>
<path fill-rule="evenodd" clip-rule="evenodd" fill="#D4D4D4" d="M28.769,52.443c0.638,0.477,0.102,2.128,0.28,3.066
	C28.411,55.032,28.946,53.381,28.769,52.443z"/>
<path fill-rule="evenodd" clip-rule="evenodd" fill="#727272" d="M29.049,56.345c0.615,0.035,0.118,1.183,0.278,1.672
	C28.711,57.982,29.208,56.835,29.049,56.345z"/>
<path fill-rule="evenodd" clip-rule="evenodd" fill="#727272" d="M31.835,57.181c0.615,0.035,0.118,1.183,0.279,1.672
	C31.499,58.818,31.996,57.671,31.835,57.181z"/>
<path fill-rule="evenodd" clip-rule="evenodd" fill="#727272" d="M32.393,61.919c0.605-0.047,0.126,0.989,0.279,1.394
	C32.067,63.36,32.545,62.324,32.393,61.919z"/>
<path fill-rule="evenodd" clip-rule="evenodd" fill="#727272" d="M30.163,65.263c0.615,0.035,0.119,1.183,0.278,1.673
	C29.826,66.901,30.324,65.753,30.163,65.263z"/>
<path fill-rule="evenodd" clip-rule="evenodd" fill="#727272" d="M32.95,66.1c0.616,0.035,0.119,1.183,0.278,1.672
	C32.613,67.737,33.11,66.59,32.95,66.1z"/>
<path fill-rule="evenodd" clip-rule="evenodd" fill="#727272" d="M30.441,67.772c0.616,0.035,0.119,1.183,0.279,1.672
	C30.105,69.41,30.602,68.262,30.441,67.772z"/>
<path fill-rule="evenodd" clip-rule="evenodd" fill="#727272" d="M33.229,68.608c0.616,0.035,0.119,1.182,0.279,1.672
	C32.892,70.246,33.39,69.098,33.229,68.608z"/>
<path fill-rule="evenodd" clip-rule="evenodd" fill="#727272" d="M33.508,70.837c0.615,0.035,0.118,1.184,0.278,1.672
	C33.171,72.475,33.668,71.328,33.508,70.837z"/>
<path fill-rule="evenodd" clip-rule="evenodd" fill="#727272" d="M34.065,75.019c-0.615-0.035-0.119-1.184-0.279-1.673
	C34.402,73.381,33.905,74.529,34.065,75.019z"/>
<path fill-rule="evenodd" clip-rule="evenodd" fill="#727272" d="M31.278,75.019c0.616,0.034,0.118,1.182,0.279,1.672
	C30.941,76.656,31.438,75.508,31.278,75.019z"/>
<path fill-rule="evenodd" clip-rule="evenodd" fill="#727272" d="M34.065,76.133c0.616,0.035,0.119,1.183,0.279,1.672
	C33.728,77.771,34.226,76.624,34.065,76.133z"/>
<path fill-rule="evenodd" clip-rule="evenodd" fill="#727272" d="M31.557,77.805c0.616,0.035,0.119,1.183,0.279,1.672
	C31.22,79.444,31.717,78.295,31.557,77.805z"/>
<path fill-rule="evenodd" clip-rule="evenodd" fill="#727272" d="M34.344,78.642c0.615,0.035,0.118,1.182,0.278,1.672
	C34.007,80.28,34.504,79.132,34.344,78.642z"/>
<path fill-rule="evenodd" clip-rule="evenodd" fill="#727272" d="M31.835,80.314c0.623,0.12,0.113,1.374,0.279,1.951
	C31.491,82.145,32.001,80.892,31.835,80.314z"/>
<path fill-rule="evenodd" clip-rule="evenodd" fill="#727272" d="M34.623,81.429c0.616,0.034,0.118,1.183,0.278,1.673
	C34.286,83.067,34.782,81.918,34.623,81.429z"/>
<path fill-rule="evenodd" clip-rule="evenodd" fill="#727272" d="M32.114,83.102c0.616,0.033,0.118,1.182,0.278,1.671
	C31.777,84.739,32.274,83.591,32.114,83.102z"/>
<path fill-rule="evenodd" clip-rule="evenodd" fill="#727272" d="M34.901,84.216c0.616,0.034,0.118,1.183,0.279,1.672
	C34.564,85.853,35.062,84.707,34.901,84.216z"/>
<path fill-rule="evenodd" clip-rule="evenodd" fill="#727272" d="M32.393,85.888c0.616,0.035,0.119,1.184,0.279,1.672
	C32.056,87.526,32.553,86.378,32.393,85.888z"/>
<path fill-rule="evenodd" clip-rule="evenodd" fill="#727272" d="M35.18,86.725c0.623,0.119,0.113,1.373,0.278,1.95
	C34.835,88.556,35.345,87.301,35.18,86.725z"/>
<path fill-rule="evenodd" clip-rule="evenodd" fill="#727272" d="M32.671,88.675c0.624,0.12,0.113,1.374,0.279,1.951
	C32.327,90.506,32.837,89.253,32.671,88.675z"/>
<path fill-rule="evenodd" clip-rule="evenodd" fill="#727272" d="M62.215,88.118c0.463,0.572,0.463,3.052,0,3.624
	C62.215,90.534,62.215,89.325,62.215,88.118z"/>
<path fill-rule="evenodd" clip-rule="evenodd" fill="#727272" d="M35.458,89.79c0.628,0.209,0.109,1.564,0.278,2.23
	C35.109,91.812,35.628,90.458,35.458,89.79z"/>
<path fill-rule="evenodd" clip-rule="evenodd" fill="#727272" d="M32.95,91.742c0.616,0.034,0.119,1.182,0.278,1.673
	c-0.092,0-0.185,0-0.278,0C32.95,92.856,32.95,92.298,32.95,91.742z"/>
<path fill-rule="evenodd" clip-rule="evenodd" fill="#727272" d="M33.229,97.594c-0.152,0.404,0.326,1.44-0.278,1.394
	c0-0.465,0-0.929,0-1.394C33.043,97.594,33.136,97.594,33.229,97.594z"/>
<path fill-rule="evenodd" clip-rule="evenodd" fill="#727272" d="M35.737,98.988c-0.16,0.489,0.337,1.638-0.278,1.673
	C35.619,100.17,35.122,99.023,35.737,98.988z"/>
<path fill-rule="evenodd" clip-rule="evenodd" fill="#A6A6A6" d="M31.835,127.416c0,0.372,0,0.744,0,1.115
	c-0.378-0.086-0.231-0.697-0.279-1.115C31.649,127.416,31.742,127.416,31.835,127.416z"/>
<path fill-rule="evenodd" clip-rule="evenodd" fill="#FFFFFF" d="M34.344,6.456c4.208-2.297,7.504-5.503,13.378-6.132
	c0.557,0,1.113,0,1.673,0c1.3,0,2.601,0,3.9,0c3.74,0.256,6.791,1.198,8.919,3.066c0.438,0.676,0.998,1.232,1.673,1.672
	c2.356,2.202,3.898,5.73,5.853,9.476c1.595,3.057,3.436,5.709,3.902,9.198c0,0.929,0,1.858,0,2.787
	c-0.533,4.02-1.936,7.169-3.624,10.034c-0.491,0.252-0.864,0.624-1.114,1.115c-0.837,0.649-1.694,1.279-3.346,1.115
	c-0.465,0-0.928,0-1.393,0c-2.853-0.12-3.916-2.029-6.132-2.787c0.126-0.455-1.519-0.455-1.393,0
	c-1.22,0.617-1.751,1.984-2.789,3.066c-0.349,0.364-0.888,1.738-1.393,2.509c-0.633,0.963-1.224,1.625-1.951,2.787
	c-1.271,2.038-3.147,4.33-4.459,6.689c-0.396,0.531-0.647,1.21-0.836,1.951c-1.26,4.613-0.002,8.792,1.951,12.263
	c1.882,3.348,5.049,6.824,7.804,10.313c0.366,0.465,0.739,0.952,1.114,1.394c0.783,0.923,1.656,1.951,2.508,3.066
	c0.172,0.223,0.096,0.579,0.28,0.836c0.64,0.899,1.438,1.6,1.949,2.509c0.621,1.1,1.423,2.589,1.395,4.737c0,1.207,0,2.416,0,3.624
	c-0.269,3.355-2.041,5.204-3.624,7.246c-0.491,0.252-0.861,0.623-1.114,1.114c-1.608,2.178-3.584,4.022-5.017,6.689
	c-0.939,1.746-1.809,4.599-2.786,7.525c-0.431,1.288-0.697,2.775-1.116,4.181c-0.381,1.278-1.021,2.391-1.393,3.623
	c-0.22,0.732-0.304,1.373-0.559,2.23c-1.311,4.44-2.043,11.743-7.804,11.984c-0.929,0-1.858,0-2.787,0
	c-1.5-0.08-2.651-0.508-3.345-1.394c-0.252-0.492-0.623-0.863-1.115-1.115c-0.251-0.491-0.624-0.863-1.115-1.115
	c-0.672-1.464-1.546-2.728-1.393-5.017c0-0.836,0-1.672,0-2.509c0.997-9.036,2.68-17.387,3.901-26.198
	c0.604,0.047,0.126-0.989,0.278-1.394c0-1.394,0-2.787,0-4.18c-0.16-0.491,0.337-1.639-0.278-1.673c0-0.372,0-0.744,0-1.115
	c-0.166-0.577,0.345-1.831-0.279-1.951c0-0.371,0-0.743,0-1.115c-0.16-0.488,0.337-1.637-0.279-1.672c0-0.371,0-0.743,0-1.115
	c-0.16-0.489,0.337-1.638-0.278-1.671c0-0.28,0-0.559,0-0.837c-0.166-0.577,0.344-1.831-0.279-1.951c0-0.278,0-0.557,0-0.837
	c-0.16-0.489,0.337-1.637-0.279-1.672c0-0.371,0-0.743,0-1.114c-0.161-0.49,0.337-1.638-0.279-1.672
	c-0.236-1.809-0.567-3.521-0.557-5.575c-0.161-0.49,0.337-1.637-0.279-1.672c0-0.279,0-0.558,0-0.836
	c-0.16-0.49,0.337-1.638-0.278-1.673c-0.374-2.32-0.778-4.61-0.836-7.246c-0.16-0.49,0.337-1.638-0.278-1.672
	c0-0.279,0-0.558,0-0.836c-0.178-0.938,0.358-2.589-0.28-3.066c-0.149-3.031,0.793-4.967,2.23-6.41
	c0.492-0.252,0.863-0.624,1.115-1.115c1.787-1.649,4.308-2.566,6.688-3.623c0.712-0.124,1.282-0.391,1.673-0.836
	c1.81-0.885,3.732-1.655,4.18-3.902c0.625-0.12,0.114-1.374,0.28-1.952c-0.042-2.504-0.335-4.658-0.837-7.246
	c-0.476-2.441-0.846-4.883-2.787-5.295c-2.004-0.426-4.093,1.417-6.131,2.787c-0.882,0.593-1.844,1.174-2.788,1.672
	c-1.438,0.759-2.121,1.363-4.18,1.394c-2.323,0-4.646,0-6.968,0c-5.139,0.041-8.999-2.441-12.821-4.46
	c-1.49-0.787-3.292-1.627-4.738-2.508c-1.443-0.878-3.252-1.713-3.345-3.623c0-0.464,0-0.929,0-1.393
	c0.391-1.84,1.61-2.85,3.624-3.066c0.489-0.16,1.637,0.336,1.672-0.279c0.186,0,0.372,0,0.558,0
	c-0.047,0.604,0.989,0.126,1.394,0.279c2.422,0.14,5.203,1.581,7.524,2.229c2.673,0.747,3.882,0.186,6.411-1.115
	c3.428-1.763,7.286-4.31,10.591-6.132C33.082,7.609,33.661,6.98,34.344,6.456z M49.114,2.832c-5.688,0.629-8.919,3.716-13.098,5.854
	c-0.805,0.403-1.654,0.761-2.23,1.394c-5.003,2.708-8.994,6.427-15.051,8.083c-0.743,0-1.486,0-2.229,0
	c-2.199,0.031-4.371-1.226-6.689-1.951c-0.954-0.298-2.558-0.851-3.624-0.836c-0.925,0.012-2.781-0.115-3.066,1.394
	C3.076,17.74,4.265,17.819,4.8,18.162c0.677,0.433,1.304,1.03,1.952,1.394c0.373,0.21,0.75,0.073,1.114,0.278
	c0.326,0.185,0.505,0.658,0.836,0.836c0.742,0.4,1.528,0.762,2.229,1.115c2.839,1.428,5.946,2.734,9.476,3.345
	c0.121,0.623,1.374,0.113,1.952,0.279c0.093,0,0.186,0,0.278,0c0.052,0.413,0.674,0.255,1.115,0.278c0.372,0,0.744,0,1.115,0
	c0.577-0.166,1.831,0.345,1.951-0.278c5.725-0.414,9.598-7.126,15.609-6.132c1.161,0.193,2.241,1.403,2.786,2.23
	c1.469,2.232,1.793,6.267,2.23,9.755c0,1.487,0,2.973,0,4.46c0.014,4.381-2.733,6.001-5.854,7.246
	c-0.433,0.403-1.3,0.372-1.673,0.836c-3.345,1.857-7.65,2.755-8.36,7.247c-0.461,0.3-0.461,2.486,0,2.787
	c0.021,1.187,0.466,1.949,0.279,3.344c0.16,0.49-0.336,1.637,0.279,1.672c0.137,0.978,0.415,1.814,0.278,3.065
	c0.152,0.405-0.325,1.441,0.279,1.394c0.289,0.733,0.333,1.71,0.279,2.787c0.16,0.49-0.337,1.638,0.278,1.672
	c0,0.279,0,0.558,0,0.836c0.161,0.49-0.337,1.637,0.279,1.672c0,0.186,0,0.372,0,0.557c0.16,0.49-0.337,1.638,0.278,1.672
	c0,0.279,0,0.559,0,0.837c0.16,0.489-0.336,1.638,0.279,1.673c0,0.371,0,0.743,0,1.114c0.161,0.49-0.337,1.638,0.279,1.672
	c0,0.28,0,0.559,0,0.837c0.16,0.49-0.337,1.638,0.278,1.672c0,0.371,0,0.743,0,1.115c0.16,0.489-0.337,1.638,0.278,1.673
	c0,0.371,0,0.743,0,1.114c0.161,0.49-0.336,1.637,0.279,1.672c0,0.278,0,0.558,0,0.837c0.165,0.576-0.345,1.831,0.278,1.95
	c0,0.371,0,0.743,0,1.114c0.17,0.668-0.35,2.022,0.278,2.23c0,0.465,0,0.93,0,1.395c0,1.485,0,2.972,0,4.458
	c0,0.372,0,0.743,0,1.115c-0.615,0.035-0.118,1.183-0.278,1.673c-0.946,8.438-2.584,16.182-3.623,24.525
	c-0.628,0.208-0.109,1.563-0.279,2.229c0.048,0.418-0.1,1.029,0.279,1.115c0.309,0.528,0.355,1.317,0.557,1.951
	c0.415,1.072,1.074,1.899,1.952,2.509c1.588,0.783,3.79,1.098,5.573,0.279c0.095,0,0.187,0,0.28,0
	c0.491-0.253,0.861-0.624,1.114-1.116c0-0.092,0-0.186,0-0.278c4.247-11.36,5.788-25.429,13.657-33.166
	c0.583-0.346,1.048-0.811,1.395-1.394c1.452-1.892,2.864-3.824,3.344-6.689c0.452,0.199,0.452-1.314,0-1.115
	c-0.055-1.57-0.77-3.225-1.116-3.901c-0.196-0.384-0.058-0.761-0.278-1.115c-0.289-0.468-1.02-0.856-1.393-1.393
	c-0.088-0.126,0.063-0.418,0-0.559c-0.042-0.09-0.488-0.175-0.557-0.278c-0.086-0.128,0.062-0.415,0-0.558
	c-0.04-0.084-0.489-0.184-0.56-0.278c-1.582-2.156-3.289-4.33-4.737-6.132c-0.433-0.539-0.716-1.162-1.114-1.672
	c-0.768-0.979-1.777-1.838-2.508-2.788c-0.826-1.069-1.505-2.186-2.23-3.344c-1.414-2.255-2.833-4.792-3.067-8.083
	c0-1.393,0-2.787,0-4.181c-0.05-1.35,0.223-2.379,0.56-3.344c0.539-0.389,0.414-1.443,0.835-1.952
	c1.156-2.683,3.193-4.931,4.738-7.246c1.631-2.445,2.949-4.937,4.738-7.247c0.583-0.346,1.048-0.811,1.395-1.393
	c3.884-2.655,7.24,1.269,10.032,1.951c-0.2,0.452,1.314,0.452,1.114,0c2.528-0.174,2.753-2.203,3.624-4.459
	c1.074-2.781,2.372-5.43,1.673-8.083c-0.665-2.518-2.444-5.606-3.902-8.361c-1.713-3.235-3.46-6.204-4.738-7.804
	c-0.398-1.088-1.142-1.832-2.229-2.229c-2.198-1.24-5.104-1.77-8.082-2.23C51.603,2.371,49.415,2.371,49.114,2.832z"/>
<path fill-rule="evenodd" clip-rule="evenodd" fill="#D4D4D4" d="M21.244,27.917c2.323,0,4.646,0,6.968,0
	C26.535,28.38,22.921,28.38,21.244,27.917z"/>
<path fill-rule="evenodd" clip-rule="evenodd" fill="#727272" d="M33.786,10.079c0.576-0.632,1.425-0.99,2.23-1.394
	c0.139,1.539,1.965,2.858,1.672,3.902c-0.58,0.163-0.9,0.585-1.394,0.836c-1.106-0.752-1.527-2.189-2.229-3.344
	C33.972,10.079,33.879,10.079,33.786,10.079z"/>
<path fill-rule="evenodd" clip-rule="evenodd" fill="#727272" d="M31.557,51.05c0,0.929,0,1.857,0,2.787
	C31.095,53.536,31.095,51.35,31.557,51.05z"/>
<path fill-rule="evenodd" clip-rule="evenodd" fill="#727272" d="M47.723,0.324c0.034-0.615,1.182-0.118,1.673-0.278
	c0,0.093,0,0.186,0,0.278C48.836,0.324,48.279,0.324,47.723,0.324z"/>
<path fill-rule="evenodd" clip-rule="evenodd" fill="#727272" d="M16.506,18.162c0.743,0,1.486,0,2.229,0
	C18.612,18.622,16.63,18.622,16.506,18.162z"/>
<path fill-rule="evenodd" clip-rule="evenodd" fill="#727272" d="M73.643,23.736c0.461,0.3,0.461,2.487,0,2.787
	C73.643,25.594,73.643,24.665,73.643,23.736z"/>
<path fill-rule="evenodd" clip-rule="evenodd" fill="#727272" d="M47.444,31.261c0.462,0.846,0.462,3.613,0,4.46
	C47.444,34.234,47.444,32.748,47.444,31.261z"/>
<path fill-rule="evenodd" clip-rule="evenodd" fill="#727272" d="M42.146,55.229c0,1.394,0,2.788,0,4.181
	C41.685,58.656,41.685,55.984,42.146,55.229z"/>
<path fill-rule="evenodd" clip-rule="evenodd" fill="#727272" d="M36.016,136.335c0.929,0,1.858,0,2.787,0
	C38.503,136.795,36.316,136.795,36.016,136.335z"/>
</svg>
