<?xml version="1.0" encoding="utf-8"?>
<!-- Generator: Adobe Illustrator 15.0.0, SVG Export Plug-In  -->
<!DOCTYPE svg PUBLIC "-//W3C//DTD SVG 1.1//EN" "http://www.w3.org/Graphics/SVG/1.1/DTD/svg11.dtd" [
	<!ENTITY ns_flows "http://ns.adobe.com/Flows/1.0/">
]>
<svg version="1.1"
	 xmlns="http://www.w3.org/2000/svg" xmlns:xlink="http://www.w3.org/1999/xlink" xmlns:a="http://ns.adobe.com/AdobeSVGViewerExtensions/3.0/"
	 x="0px" y="0px" width="142px" height="142px" viewBox="-3.278 -2.312 142 142" enable-background="new -3.278 -2.312 142 142"
	 xml:space="preserve">
<defs>
</defs>
<path fill-rule="evenodd" clip-rule="evenodd" fill="#191919" d="M82.288,0.319c0.118-0.623,1.372-0.112,1.949-0.278
	c0,0.093,0,0.186,0,0.278c-0.37,0-0.743,0-1.114,0C82.844,0.319,82.566,0.319,82.288,0.319z"/>
<path fill-rule="evenodd" clip-rule="evenodd" fill="#191919" d="M86.746,0.041c0.404,0.152,1.44-0.326,1.394,0.278
	C87.735,0.167,86.699,0.645,86.746,0.041z"/>
<path fill-rule="evenodd" clip-rule="evenodd" fill="#191919" d="M80.058,0.599c0.086-0.379,0.697-0.231,1.113-0.279
	c0,0.093,0,0.186,0,0.279c-0.092,0-0.186,0-0.278,0C80.615,0.599,80.336,0.599,80.058,0.599z"/>
<path fill-rule="evenodd" clip-rule="evenodd" fill="#191919" d="M82.007,3.107c-0.046-0.604,0.989-0.126,1.395-0.279
	C83.448,3.432,82.412,2.954,82.007,3.107z"/>
<path fill-rule="evenodd" clip-rule="evenodd" fill="#191919" d="M87.304,2.828c0.417,0.048,1.027-0.099,1.114,0.279
	C88.001,3.059,87.39,3.206,87.304,2.828z"/>
<path fill-rule="evenodd" clip-rule="evenodd" fill="#8A8A8A" d="M85.353,9.517c-0.046-0.457,1.717-0.457,1.673,0
	C86.466,9.517,85.91,9.517,85.353,9.517z"/>
<path fill-rule="evenodd" clip-rule="evenodd" fill="#191919" d="M64.449,13.419c0,0.372,0,0.743,0,1.115c0,0.187,0,0.372,0,0.558
	c0,0.093,0,0.186,0,0.279C63.99,15.332,63.99,13.457,64.449,13.419z"/>
<path fill-rule="evenodd" clip-rule="evenodd" fill="#191919" d="M134.963,14.255c0.378,0.086,0.23,0.697,0.278,1.115
	C134.829,15.318,134.985,14.696,134.963,14.255z"/>
<path fill-rule="evenodd" clip-rule="evenodd" fill="#8A8A8A" d="M97.059,19.829c0-0.093,0-0.186,0-0.278
	c0.416,0.047,1.027-0.1,1.113,0.278C97.802,19.829,97.429,19.829,97.059,19.829z"/>
<path fill-rule="evenodd" clip-rule="evenodd" fill="#191919" d="M135.242,19.551c-0.187,6.411,0.37,13.563-0.278,19.51
	c0-0.093,0-0.186,0-0.279C135.15,32.464,134.592,25.404,135.242,19.551z"/>
<path fill-rule="evenodd" clip-rule="evenodd" fill="#191919" d="M132.455,21.223c0,1.486,0,2.973,0,4.459c0,0.186,0,0.372,0,0.558
	c0,1.114,0,2.229,0,3.344c0,0.186,0,0.372,0,0.557c0,1.487,0,2.973,0,4.459c0,0.187,0,0.373,0,0.558c0,1.115,0,2.23,0,3.345
	c0,0.186,0,0.372,0,0.558c0,2.044,0,4.088,0,6.131c-0.092,0-0.187,0-0.278,0c-0.17-0.016-0.33-0.041-0.278-0.279
	C132.733,37.667,131.62,28.47,132.455,21.223z"/>
<path fill-rule="evenodd" clip-rule="evenodd" fill="#191919" d="M87.026,22.059c0.092,0,0.184,0,0.278,0c0.278,0,0.557,0,0.835,0
	c0,0.093,0,0.186,0,0.278C87.723,22.291,87.112,22.437,87.026,22.059z"/>
<path fill-rule="evenodd" clip-rule="evenodd" fill="#8A8A8A" d="M94.829,23.452c0.371,0,0.743,0,1.114,0c0,0.093,0,0.187,0,0.279
	C95.526,23.684,94.916,23.831,94.829,23.452z"/>
<path fill-rule="evenodd" clip-rule="evenodd" fill="#8A8A8A" d="M99.008,23.731c0.465,0,0.93,0,1.395,0c0,0.093,0,0.186,0,0.279
	C99.998,23.857,98.962,24.336,99.008,23.731z"/>
<path fill-rule="evenodd" clip-rule="evenodd" fill="#8A8A8A" d="M98.172,26.519c0-0.093,0-0.186,0-0.278
	c0.405,0.152,1.44-0.326,1.395,0.278C99.102,26.519,98.637,26.519,98.172,26.519z"/>
<path fill-rule="evenodd" clip-rule="evenodd" fill="#8A8A8A" d="M78.107,29.027c0,0.372,0,0.743,0,1.115
	C77.654,30.341,77.654,28.828,78.107,29.027z"/>
<path fill-rule="evenodd" clip-rule="evenodd" fill="#8A8A8A" d="M110.995,37.667c0-0.093,0-0.186,0-0.279
	c0.665,0.169,2.021-0.35,2.229,0.279C112.481,37.667,111.738,37.667,110.995,37.667z"/>
<path fill-rule="evenodd" clip-rule="evenodd" fill="#191919" d="M134.963,39.339c0.459,0.038,0.459,1.913,0,1.951
	c0-0.278,0-0.557,0-0.836C134.963,40.083,134.963,39.711,134.963,39.339z"/>
<path fill-rule="evenodd" clip-rule="evenodd" fill="#8A8A8A" d="M103.467,41.569c0.463,0.3,0.463,2.486,0,2.787
	C103.467,43.427,103.467,42.498,103.467,41.569z"/>
<path fill-rule="evenodd" clip-rule="evenodd" fill="#191919" d="M17.068,47.421c0.48-0.461,2.864-0.461,3.344,0
	C19.297,47.421,18.183,47.421,17.068,47.421z"/>
<path fill-rule="evenodd" clip-rule="evenodd" fill="#191919" d="M14.838,47.701c0.086-0.379,0.698-0.231,1.115-0.279
	c-0.062,0.218-0.233,0.324-0.557,0.279C15.21,47.701,15.024,47.701,14.838,47.701z"/>
<path fill-rule="evenodd" clip-rule="evenodd" fill="#191919" d="M27.38,47.701c-0.199-0.452,1.314-0.452,1.115,0
	C28.124,47.701,27.752,47.701,27.38,47.701z"/>
<path fill-rule="evenodd" clip-rule="evenodd" fill="#8A8A8A" d="M105.418,47.701c0,0.464,0,0.929,0,1.393
	C104.964,49.22,104.964,47.575,105.418,47.701z"/>
<path fill-rule="evenodd" clip-rule="evenodd" fill="#191919" d="M16.511,50.209c0.568-0.64,2.314-0.101,3.344-0.279
	c0.093,0,0.186,0,0.279,0c0,0.094,0,0.187,0,0.279C18.926,50.209,17.718,50.209,16.511,50.209z"/>
<path fill-rule="evenodd" clip-rule="evenodd" fill="#333333" d="M132.176,50.209c0.457-0.046,0.457,1.718,0,1.672
	C132.176,51.324,132.176,50.766,132.176,50.209z"/>
<path fill-rule="evenodd" clip-rule="evenodd" fill="#191919" d="M84.237,51.324c0.623,0.12,0.114,1.374,0.278,1.951
	C83.892,53.154,84.403,51.901,84.237,51.324z"/>
<path fill-rule="evenodd" clip-rule="evenodd" fill="#191919" d="M87.026,51.603c0.463,0.754,0.463,3.426,0,4.181
	c0-0.093,0-0.186,0-0.278c0-0.187,0-0.372,0-0.558C87.026,53.833,87.026,52.717,87.026,51.603z"/>
<path fill-rule="evenodd" clip-rule="evenodd" fill="#8A8A8A" d="M127.438,52.438c0.356-0.015,0.385-0.357,0.836-0.279
	c0.341,0.032,0.659,0.083,0.557,0.558c0,0.279,0,0.558,0,0.836c-0.603-0.047-0.126,0.988-0.278,1.393
	c-0.489-0.16-1.637,0.337-1.671-0.278c0.092,0,0.185,0,0.278,0c0.604,0.047,0.126-0.989,0.278-1.394
	C127.438,52.996,127.438,52.717,127.438,52.438z"/>
<path fill-rule="evenodd" clip-rule="evenodd" fill="#191919" d="M84.515,54.389c0,0.186,0,0.373,0,0.558c0,0.093,0,0.186,0,0.278
	c-0.062,0.217-0.006,0.551-0.278,0.558C84.389,55.378,83.913,54.342,84.515,54.389z"/>
<path fill-rule="evenodd" clip-rule="evenodd" fill="#191919" d="M87.026,56.619c-0.048,0.417,0.098,1.028-0.28,1.115
	C86.793,57.317,86.647,56.706,87.026,56.619z"/>
<path fill-rule="evenodd" clip-rule="evenodd" fill="#191919" d="M86.746,58.57c-0.047,0.417,0.1,1.028-0.279,1.115
	C86.515,59.268,86.367,58.657,86.746,58.57z"/>
<path fill-rule="evenodd" clip-rule="evenodd" fill="#191919" d="M2.854,61.357c0.048-0.417-0.099-1.029,0.279-1.115
	C3.085,60.66,3.232,61.271,2.854,61.357z"/>
<path fill-rule="evenodd" clip-rule="evenodd" fill="#191919" d="M0.345,60.521c0,0.092,0,0.186,0,0.279c0,0.371,0,0.743,0,1.114
	c0,0.372,0,0.743,0,1.115C-0.115,62.818-0.115,60.733,0.345,60.521z"/>
<path fill-rule="evenodd" clip-rule="evenodd" fill="#191919" d="M124.652,62.193c0,1.3,0,2.602,0,3.902
	C124.189,65.433,124.189,62.856,124.652,62.193z"/>
<path fill-rule="evenodd" clip-rule="evenodd" fill="#191919" d="M127.438,62.193c-0.023,0.441,0.133,1.063-0.278,1.115
	C127.206,62.891,127.06,62.28,127.438,62.193z"/>
<path fill-rule="evenodd" clip-rule="evenodd" fill="#191919" d="M52.743,63.03c0-0.093,0-0.186,0-0.279c0.093,0,0.186,0,0.279,0
	c-0.023,0.442,0.134,1.063-0.279,1.116c0-0.187,0-0.373,0-0.558C52.743,63.215,52.743,63.123,52.743,63.03z"/>
<path fill-rule="evenodd" clip-rule="evenodd" fill="#191919" d="M127.16,65.259c0.377,0.087,0.23,0.698,0.278,1.115
	C127.026,66.323,127.182,65.701,127.16,65.259z"/>
<path fill-rule="evenodd" clip-rule="evenodd" fill="#191919" d="M51.907,66.653c0.093,0,0.186,0,0.279,0
	c-0.023,0.441,0.134,1.063-0.279,1.115c0-0.186,0-0.372,0-0.558C51.907,67.025,51.907,66.838,51.907,66.653z"/>
<path fill-rule="evenodd" clip-rule="evenodd" fill="#191919" d="M49.398,66.932c-0.152,0.405,0.326,1.44-0.278,1.394
	C49.272,67.92,48.794,66.885,49.398,66.932z"/>
<path fill-rule="evenodd" clip-rule="evenodd" fill="#191919" d="M127.438,67.21c0.604-0.047,0.127,0.989,0.278,1.394
	C127.112,68.651,127.59,67.615,127.438,67.21z"/>
<path fill-rule="evenodd" clip-rule="evenodd" fill="#191919" d="M124.93,69.162c0.412,0.051,0.254,0.673,0.278,1.115
	C124.795,70.225,124.952,69.603,124.93,69.162z"/>
<path fill-rule="evenodd" clip-rule="evenodd" fill="#191919" d="M127.716,69.44c0.379,0.086,0.23,0.698,0.279,1.115
	C127.583,70.503,127.739,69.881,127.716,69.44z"/>
<path fill-rule="evenodd" clip-rule="evenodd" fill="#191919" d="M51.907,69.997c-0.152,0.405,0.326,1.441-0.279,1.395
	C51.781,70.985,51.302,69.95,51.907,69.997z"/>
<path fill-rule="evenodd" clip-rule="evenodd" fill="#191919" d="M49.12,70.555c-0.047,0.417,0.1,1.029-0.278,1.115
	C48.888,71.252,48.742,70.641,49.12,70.555z"/>
<path fill-rule="evenodd" clip-rule="evenodd" fill="#191919" d="M125.208,71.392c0.413,0.051,0.255,0.673,0.278,1.113
	C125.075,72.454,125.231,71.832,125.208,71.392z"/>
<path fill-rule="evenodd" clip-rule="evenodd" fill="#191919" d="M127.996,71.67c0.378,0.086,0.23,0.698,0.278,1.114
	C127.861,72.732,128.019,72.11,127.996,71.67z"/>
<path fill-rule="evenodd" clip-rule="evenodd" fill="#191919" d="M125.487,73.621c0.413,0.051,0.255,0.673,0.278,1.114
	C125.353,74.684,125.509,74.062,125.487,73.621z"/>
<path fill-rule="evenodd" clip-rule="evenodd" fill="#191919" d="M128.274,73.899c0.379,0.086,0.23,0.698,0.278,1.115
	C128.139,74.962,128.297,74.34,128.274,73.899z"/>
<path fill-rule="evenodd" clip-rule="evenodd" fill="#191919" d="M125.765,75.851c0.413,0.052,0.257,0.674,0.279,1.114
	c0,0.093,0,0.187,0,0.279C125.439,77.29,125.917,76.256,125.765,75.851z"/>
<path fill-rule="evenodd" clip-rule="evenodd" fill="#191919" d="M128.552,76.129c0.605-0.047,0.126,0.988,0.278,1.394
	c-0.324-0.047-0.303-0.44-0.278-0.836C128.552,76.501,128.552,76.314,128.552,76.129z"/>
<path fill-rule="evenodd" clip-rule="evenodd" fill="#191919" d="M9.543,76.408c0.413,0.052,0.255,0.674,0.278,1.114
	c-0.169-0.016-0.33-0.042-0.278-0.278c0-0.093,0-0.187,0-0.279C9.543,76.779,9.543,76.594,9.543,76.408z"/>
<path fill-rule="evenodd" clip-rule="evenodd" fill="#191919" d="M126.044,78.081c0.604-0.049,0.126,0.987,0.278,1.392
	C125.717,79.521,126.196,78.484,126.044,78.081z"/>
<path fill-rule="evenodd" clip-rule="evenodd" fill="#191919" d="M128.831,78.638c0.379,0.086,0.232,0.698,0.278,1.115
	C128.697,79.7,128.855,79.078,128.831,78.638z"/>
<path fill-rule="evenodd" clip-rule="evenodd" fill="#191919" d="M7.034,78.916c0.624,0.12,0.113,1.373,0.279,1.951
	C6.69,80.747,7.2,79.493,7.034,78.916z"/>
<path fill-rule="evenodd" clip-rule="evenodd" fill="#191919" d="M79.22,79.473c-0.046,0.418,0.101,1.03-0.278,1.116
	C78.966,80.147,78.808,79.525,79.22,79.473z"/>
<path fill-rule="evenodd" clip-rule="evenodd" fill="#191919" d="M9.821,79.753c0.413,0.051,0.255,0.673,0.279,1.114
	C9.688,80.815,9.844,80.193,9.821,79.753z"/>
<path fill-rule="evenodd" clip-rule="evenodd" fill="#191919" d="M126.323,80.589c0.412,0.051,0.256,0.673,0.278,1.114
	C126.188,81.651,126.346,81.029,126.323,80.589z"/>
<path fill-rule="evenodd" clip-rule="evenodd" fill="#191919" d="M129.387,81.982c-0.41-0.052-0.254-0.674-0.278-1.115
	C129.488,80.953,129.341,81.565,129.387,81.982z"/>
<path fill-rule="evenodd" clip-rule="evenodd" fill="#191919" d="M78.942,81.146c-0.048,0.417,0.101,1.029-0.278,1.115
	C78.685,81.819,78.529,81.198,78.942,81.146z"/>
<path fill-rule="evenodd" clip-rule="evenodd" fill="#191919" d="M126.601,82.817c0.324,0.048,0.303,0.441,0.28,0.837
	c0,0.093,0,0.187,0,0.278C126.466,83.882,126.625,83.26,126.601,82.817z"/>
<path fill-rule="evenodd" clip-rule="evenodd" fill="#191919" d="M129.668,84.212c-0.413-0.052-0.257-0.674-0.281-1.114
	C129.766,83.184,129.62,83.794,129.668,84.212z"/>
<path fill-rule="evenodd" clip-rule="evenodd" fill="#191919" d="M126.881,85.048c0.627,0.208,0.108,1.563,0.278,2.229
	c0,0.278,0,0.557,0,0.836c-0.166,0.577,0.343,1.831-0.278,1.951C126.881,88.393,126.881,86.721,126.881,85.048z"/>
<path fill-rule="evenodd" clip-rule="evenodd" fill="#191919" d="M80.893,85.884c-0.048,0.417,0.101,1.029-0.278,1.115
	C80.661,86.582,80.514,85.97,80.893,85.884z"/>
<path fill-rule="evenodd" clip-rule="evenodd" fill="#191919" d="M129.668,89.507c0-1.207,0-2.416,0-3.623
	C130.131,86.456,130.131,88.936,129.668,89.507z"/>
<path fill-rule="evenodd" clip-rule="evenodd" fill="#191919" d="M78.107,86.162c-0.049,0.417,0.098,1.029-0.279,1.115
	C77.85,86.837,77.694,86.215,78.107,86.162z"/>
<path fill-rule="evenodd" clip-rule="evenodd" fill="#191919" d="M41.037,86.441c0,0.836,0,1.672,0,2.509
	C40.576,88.739,40.576,86.653,41.037,86.441z"/>
<path fill-rule="evenodd" clip-rule="evenodd" fill="#191919" d="M80.615,88.113c-0.048,0.417,0.099,1.029-0.278,1.115
	C80.382,88.811,80.236,88.2,80.615,88.113z"/>
<path fill-rule="evenodd" clip-rule="evenodd" fill="#191919" d="M77.828,88.393c-0.048,0.416,0.099,1.028-0.28,1.114
	C77.572,89.065,77.416,88.444,77.828,88.393z"/>
<path fill-rule="evenodd" clip-rule="evenodd" fill="#191919" d="M129.387,92.573c0.154-0.404-0.324-1.44,0.281-1.394
	C129.514,91.585,129.993,92.62,129.387,92.573z"/>
<path fill-rule="evenodd" clip-rule="evenodd" fill="#191919" d="M126.881,91.737c-0.048,0.416,0.099,1.028-0.28,1.114
	C126.649,92.435,126.5,91.823,126.881,91.737z"/>
<path fill-rule="evenodd" clip-rule="evenodd" fill="#191919" d="M51.628,95.082c-0.417-0.048-1.028,0.099-1.114-0.279
	C50.955,94.826,51.576,94.669,51.628,95.082z"/>
<path fill-rule="evenodd" clip-rule="evenodd" fill="#191919" d="M15.674,98.147c-0.413-0.052-0.255-0.674-0.278-1.115
	C15.809,97.084,15.651,97.706,15.674,98.147z"/>
<path fill-rule="evenodd" clip-rule="evenodd" fill="#191919" d="M12.888,98.705c0.093,0,0.185,0,0.278,0c0,0.278,0,0.557,0,0.836
	c0,0.186,0,0.371,0,0.557C12.562,100.146,13.04,99.109,12.888,98.705z"/>
<path fill-rule="evenodd" clip-rule="evenodd" fill="#191919" d="M15.674,98.983c0.623,0.12,0.113,1.373,0.279,1.951
	C15.33,100.814,15.84,99.561,15.674,98.983z"/>
<path fill-rule="evenodd" clip-rule="evenodd" fill="#191919" d="M68.909,102.05c-0.038,0.458-1.914,0.458-1.952,0
	C67.607,102.05,68.258,102.05,68.909,102.05z"/>
<path fill-rule="evenodd" clip-rule="evenodd" fill="#191919" d="M67.236,104.836c0.464,0,0.929,0,1.394,0
	C68.755,105.292,67.11,105.292,67.236,104.836z"/>
<path fill-rule="evenodd" clip-rule="evenodd" fill="#191919" d="M15.674,107.623c0.166-0.577-0.344-1.83,0.279-1.95
	C15.788,106.25,16.297,107.504,15.674,107.623z"/>
<path fill-rule="evenodd" clip-rule="evenodd" fill="#191919" d="M13.166,106.509c0,0.093,0,0.186,0,0.278
	c-0.153,0.405,0.326,1.44-0.278,1.394C13.048,107.691,12.551,106.543,13.166,106.509z"/>
<path fill-rule="evenodd" clip-rule="evenodd" fill="#191919" d="M122.143,106.787c-0.048,0.417,0.099,1.029-0.28,1.115
	C121.911,107.485,121.765,106.874,122.143,106.787z"/>
<path fill-rule="evenodd" clip-rule="evenodd" fill="#191919" d="M15.396,110.131c0.152-0.403-0.326-1.439,0.278-1.392
	C15.522,109.144,16,110.18,15.396,110.131z"/>
<path fill-rule="evenodd" clip-rule="evenodd" fill="#191919" d="M12.888,109.296c-0.048,0.417,0.099,1.028-0.279,1.114
	C12.632,109.97,12.475,109.348,12.888,109.296z"/>
<path fill-rule="evenodd" clip-rule="evenodd" fill="#191919" d="M124.372,111.247c0.166-0.577-0.345-1.831,0.28-1.951
	C124.485,109.873,124.995,111.127,124.372,111.247z"/>
<path fill-rule="evenodd" clip-rule="evenodd" fill="#191919" d="M121.863,110.131c-0.152,0.406,0.326,1.441-0.278,1.395
	C121.737,111.121,121.26,110.085,121.863,110.131z"/>
<path fill-rule="evenodd" clip-rule="evenodd" fill="#191919" d="M15.117,112.082c0.048-0.416-0.099-1.027,0.279-1.113
	C15.348,111.384,15.495,111.996,15.117,112.082z"/>
<path fill-rule="evenodd" clip-rule="evenodd" fill="#191919" d="M52.186,115.707c1.304-0.647,3.805-0.097,5.574-0.28
	C56.455,116.073,53.954,115.523,52.186,115.707z"/>
<path fill-rule="evenodd" clip-rule="evenodd" fill="#191919" d="M60.826,115.427c0.847,0.176,2.4-0.356,2.787,0.28
	C62.766,115.531,61.212,116.063,60.826,115.427z"/>
<path fill-rule="evenodd" clip-rule="evenodd" fill="#191919" d="M44.382,115.985c0.751-0.643,2.688-0.1,3.902-0.278
	C47.532,116.349,45.595,115.805,44.382,115.985z"/>
<path fill-rule="evenodd" clip-rule="evenodd" fill="#191919" d="M24.593,116.264c0.052-0.413,0.673-0.256,1.115-0.278
	C25.656,116.396,25.034,116.24,24.593,116.264z"/>
<path fill-rule="evenodd" clip-rule="evenodd" fill="#191919" d="M14.281,117.937c0,0.743,0,1.485,0,2.229c-0.093,0-0.186,0-0.279,0
	c0-0.093,0-0.187,0-0.278C14.168,119.31,13.658,118.056,14.281,117.937z"/>
<path fill-rule="evenodd" clip-rule="evenodd" fill="#191919" d="M50.514,118.493c0.12-0.623,1.373-0.113,1.951-0.278
	c0.279,0,0.558,0,0.836,0c0.372,0,0.743,0,1.115,0c0.093,0,0.186,0,0.279,0c0.092,0,0.185,0,0.278,0
	C54.037,118.859,51.912,118.313,50.514,118.493z"/>
<path fill-rule="evenodd" clip-rule="evenodd" fill="#191919" d="M62.498,118.215c0.417,0.047,1.029-0.101,1.115,0.278
	C63.171,118.471,62.55,118.627,62.498,118.215z"/>
<path fill-rule="evenodd" clip-rule="evenodd" fill="#191919" d="M11.494,118.493c0,0.465,0,0.929,0,1.394
	C11.039,120.012,11.039,118.368,11.494,118.493z"/>
<path fill-rule="evenodd" clip-rule="evenodd" fill="#191919" d="M27.102,118.771c-0.047-0.604,0.988-0.126,1.394-0.278
	c0.093,0,0.186,0,0.278,0c0.578,0.165,1.832-0.345,1.952,0.278C29.517,118.771,28.31,118.771,27.102,118.771z"/>
<path fill-rule="evenodd" clip-rule="evenodd" fill="#191919" d="M42.431,118.771c0.843-0.643,2.875-0.098,4.181-0.278
	C45.769,119.137,43.736,118.592,42.431,118.771z"/>
<path fill-rule="evenodd" clip-rule="evenodd" fill="#191919" d="M83.123,123.231c0.756,0.172,2.212-0.354,2.509,0.278
	c-0.557,0-1.116,0-1.673,0c-0.092,0-0.187,0-0.278,0C83.463,123.448,83.131,123.502,83.123,123.231z"/>
<path fill-rule="evenodd" clip-rule="evenodd" fill="#191919" d="M16.232,123.51c0.557,0,1.115,0,1.672,0
	C17.95,123.968,16.186,123.968,16.232,123.51z"/>
<path fill-rule="evenodd" clip-rule="evenodd" fill="#191919" d="M83.402,126.019c0.465,0,0.93,0,1.394,0c0.279,0,0.558,0,0.836,0
	c0.17,0.016,0.33,0.042,0.278,0.279C85.155,126.124,83.698,126.651,83.402,126.019z"/>
<path fill-rule="evenodd" clip-rule="evenodd" fill="#191919" d="M16.232,126.298c0.557,0,1.115,0,1.672,0
	C17.95,126.754,16.186,126.754,16.232,126.298z"/>
<path fill-rule="evenodd" clip-rule="evenodd" fill="#191919" d="M108.486,137.167c0.051-0.413,0.674-0.255,1.114-0.279
	C109.514,137.267,108.903,137.119,108.486,137.167z"/>
<path fill-rule="evenodd" clip-rule="evenodd" fill="#191919" d="M72.531,100.378c0.441-0.677,0.998-1.233,1.673-1.673
	C73.763,99.38,73.207,99.937,72.531,100.378z"/>
<path fill-rule="evenodd" clip-rule="evenodd" fill="#191919" d="M47.448,93.967c-0.861-0.626-1.604-1.369-2.229-2.229
	C46.078,92.363,46.821,93.106,47.448,93.967z"/>
<path fill-rule="evenodd" clip-rule="evenodd" fill="#191919" d="M12.888,124.347c0.491,0.251,0.863,0.623,1.115,1.114
	C13.511,125.209,13.139,124.837,12.888,124.347z"/>
<path fill-rule="evenodd" clip-rule="evenodd" fill="#191919" d="M19.855,125.739c0.082-0.567,0.754-0.546,0.836-1.114
	c0.237,0.051,0.263-0.109,0.278-0.278c0.093,0,0.186,0,0.279,0C20.903,124.93,20.438,125.395,19.855,125.739z"/>
<path fill-rule="evenodd" clip-rule="evenodd" fill="#191919" d="M96.221,130.478c0.493,0.252,0.863,0.623,1.116,1.115
	C96.846,131.34,96.474,130.969,96.221,130.478z"/>
<path fill-rule="evenodd" clip-rule="evenodd" fill="#191919" d="M98.172,132.429c0.647,0.188,0.745,0.927,1.395,1.115
	c-0.052,0.236,0.108,0.263,0.278,0.278c0.082,0.568,0.754,0.547,0.836,1.115C99.729,134.218,98.892,133.382,98.172,132.429z"/>
<path fill-rule="evenodd" clip-rule="evenodd" fill="#191919" d="M132.455,10.075c0.491,0.251,0.863,0.623,1.114,1.115
	C133.078,10.938,132.706,10.566,132.455,10.075z"/>
<path fill-rule="evenodd" clip-rule="evenodd" fill="#8A8A8A" d="M76.712,33.486c0.49,0.251,0.863,0.623,1.115,1.114
	C77.335,34.349,76.964,33.978,76.712,33.486z"/>
<path fill-rule="evenodd" clip-rule="evenodd" fill="#191919" d="M74.482,102.328c0.347-0.583,0.812-1.048,1.395-1.394
	C75.53,101.518,75.065,101.982,74.482,102.328z"/>
<path fill-rule="evenodd" clip-rule="evenodd" fill="#191919" d="M43.267,93.688c0.861,0.626,1.604,1.369,2.23,2.229
	C44.637,95.291,43.894,94.548,43.267,93.688z"/>
<path fill-rule="evenodd" clip-rule="evenodd" fill="#191919" d="M6.756,56.619c0.626-0.86,1.369-1.603,2.229-2.23
	C8.359,55.25,7.616,55.993,6.756,56.619z"/>
<path fill-rule="evenodd" clip-rule="evenodd" fill="#191919" d="M14.838,122.116c0.386,0.45,0.79,0.883,1.115,1.394
	C15.476,123.151,14.857,122.934,14.838,122.116z"/>
<path fill-rule="evenodd" clip-rule="evenodd" fill="#191919" d="M18.183,123.51c0.251-0.491,0.623-0.863,1.114-1.115
	C19.045,122.886,18.674,123.259,18.183,123.51z"/>
<path fill-rule="evenodd" clip-rule="evenodd" fill="#191919" d="M20.691,118.771c0.44-0.675,0.997-1.232,1.672-1.672
	C21.924,117.775,21.367,118.332,20.691,118.771z"/>
<path fill-rule="evenodd" clip-rule="evenodd" fill="#191919" d="M98.451,128.806c1.141,0.905,2.162,1.928,3.067,3.065
	C100.378,130.967,99.357,129.943,98.451,128.806z"/>
<path fill-rule="evenodd" clip-rule="evenodd" fill="#191919" d="M125.765,59.406c-0.326,0.417-0.347,1.14-0.835,1.394
	C125.022,60.15,125.214,59.599,125.765,59.406z"/>
<path fill-rule="evenodd" clip-rule="evenodd" fill="#191919" d="M130.503,12.025c0.491,0.252,0.863,0.624,1.114,1.115
	C131.126,12.888,130.756,12.517,130.503,12.025z"/>
<path fill-rule="evenodd" clip-rule="evenodd" fill="#8A8A8A" d="M118.241,36.273c0.583,0.346,1.048,0.811,1.393,1.394
	C119.05,37.321,118.585,36.856,118.241,36.273z"/>
<path fill-rule="evenodd" clip-rule="evenodd" fill="#8A8A8A" d="M93.713,20.944c0.557,0,1.115,0,1.673,0c0,0.465,0,0.929,0,1.394
	c-0.836,0-1.673,0-2.509,0c0.099,0.367,0.491,0.439,0.557,0.836c-0.853,0.001-1.21-1.926-0.557-2.508
	C92.921,20.992,93.386,20.9,93.713,20.944z"/>
<path fill-rule="evenodd" clip-rule="evenodd" fill="#191919" d="M92.877,20.666c0.124-0.248,0.244-0.498,0.557-0.558
	c-0.553,0.643,0.07,0.31,0.279,0.836C93.386,20.9,92.921,20.992,92.877,20.666z"/>
<path fill-rule="evenodd" clip-rule="evenodd" fill="#8A8A8A" d="M112.666,24.289c-0.583-0.346-1.048-0.81-1.393-1.393
	C111.856,23.241,112.321,23.706,112.666,24.289z"/>
<path fill-rule="evenodd" clip-rule="evenodd" fill="#191919" d="M113.502,25.682c0.491,0.252,0.863,0.624,1.114,1.115
	C114.125,26.545,113.753,26.174,113.502,25.682z"/>
<path fill-rule="evenodd" clip-rule="evenodd" fill="#191919" d="M124.372,27.076c0.252-0.492,0.625-0.863,1.115-1.115
	C125.235,26.453,124.864,26.824,124.372,27.076z"/>
<path fill-rule="evenodd" clip-rule="evenodd" fill="#333333" d="M91.483,8.402c0.77,0.533,1.419,1.184,1.951,1.951
	C92.667,9.82,92.016,9.17,91.483,8.402z"/>
<path fill-rule="evenodd" clip-rule="evenodd" fill="#8A8A8A" d="M80.336,9.517c0.25-0.491,0.623-0.863,1.113-1.115
	C81.198,8.894,80.827,9.265,80.336,9.517z"/>
<path fill-rule="evenodd" clip-rule="evenodd" fill="#333333" d="M80.893,17.321c0.859,0.626,1.603,1.37,2.229,2.23
	C82.261,18.925,81.518,18.181,80.893,17.321z"/>
<path fill-rule="evenodd" clip-rule="evenodd" fill="#8A8A8A" d="M132.176,45.192c0.092,0,0.187,0,0.278,0
	c0.017,0.17,0.042,0.33,0.278,0.279c0.156,0.401,0.436,0.68,0.836,0.836c0,0.279,0.227,0.332,0.278,0.557
	C133.172,46.425,132.615,45.867,132.176,45.192z"/>
<path fill-rule="evenodd" clip-rule="evenodd" fill="#191919" d="M82.844,15.37c0.859,0.626,1.603,1.369,2.23,2.23
	C84.212,16.974,83.469,16.23,82.844,15.37z"/>
<path fill-rule="evenodd" clip-rule="evenodd" fill="#8A8A8A" d="M80.893,33.208c0.515-0.507,0.362-1.683,0.836-2.23
	c0.646-0.089,1.069,0.044,1.394,0.278c0.074,1.003-0.515,1.344-0.557,2.23c0.044,0.327,0.507,0.235,0.836,0.278
	C82.895,34.343,81.131,33.821,80.893,33.208z"/>
<path fill-rule="evenodd" clip-rule="evenodd" fill="#333333" d="M120.192,42.962c0.491,0.251,0.861,0.624,1.114,1.115
	C120.815,43.826,120.443,43.454,120.192,42.962z"/>
<path fill-rule="evenodd" clip-rule="evenodd" fill="#8A8A8A" d="M116.568,38.225c0.491,0.251,0.863,0.624,1.116,1.115
	C117.191,39.087,116.82,38.716,116.568,38.225z"/>
<path fill-rule="evenodd" clip-rule="evenodd" fill="#8A8A8A" d="M105.418,35.437c0.493,0.252,0.864,0.624,1.116,1.115
	C106.042,36.3,105.671,35.929,105.418,35.437z"/>
<path fill-rule="evenodd" clip-rule="evenodd" fill="#8A8A8A" d="M90.648,24.01c0.49,0.251,0.863,0.623,1.113,1.115
	C91.271,24.873,90.9,24.501,90.648,24.01z"/>
<path fill-rule="evenodd" clip-rule="evenodd" fill="#8A8A8A" d="M106.256,17.6c0.603,0.046,0.126-0.989,0.278-1.394
	c0.521,0.407,1.848,0.011,2.229,0.558c-0.386,0.829-0.891,2.409,0.279,2.508c-1.208-0.278-2.57-0.401-3.625-0.835
	c0.279,0,0.56,0,0.838,0C106.256,18.157,106.256,17.878,106.256,17.6z"/>
<path fill-rule="evenodd" clip-rule="evenodd" fill="#8A8A8A" d="M112.946,20.944c0.673,0.44,1.232,0.998,1.671,1.672
	C113.941,22.177,113.384,21.619,112.946,20.944z"/>
<path fill-rule="evenodd" clip-rule="evenodd" fill="#191919" d="M89.812,10.632c0.676,0.44,1.232,0.998,1.671,1.672
	C90.808,11.865,90.251,11.307,89.812,10.632z"/>
<path fill-rule="evenodd" clip-rule="evenodd" fill="#191919" d="M128.274,52.16c0-0.093,0-0.186,0-0.278
	c0.575-0.245,1.252,0.723,0.557,0.836C128.933,52.243,128.615,52.191,128.274,52.16z"/>
<path fill-rule="evenodd" clip-rule="evenodd" fill="#333333" d="M107.649,10.353c0-0.278,0-0.558,0-0.836
	c0.396-0.024,0.789-0.046,0.837,0.278C107.867,9.643,108.087,10.328,107.649,10.353z"/>
<path fill-rule="evenodd" clip-rule="evenodd" fill="#333333" d="M67.793,10.075C67.814,10.006,67.481,9.669,67.793,10.075
	L67.793,10.075z"/>
<path fill-rule="evenodd" clip-rule="evenodd" fill="#323232" d="M109.043,9.795c1.058-0.561,1.104,1.268,0.557,1.394
	c0-0.372,0-0.743,0-1.115C109.276,10.12,109.105,10.013,109.043,9.795z"/>
<path fill-rule="evenodd" clip-rule="evenodd" fill="#333333" d="M87.026,22.059c-0.649-2.135,1.767-1.205,3.065-1.394
	c0,0.093,0,0.186,0,0.278c-0.93,0-1.859,0-2.787,0c0,0.373,0,0.744,0,1.115C87.209,22.059,87.118,22.059,87.026,22.059z"/>
<path fill-rule="evenodd" clip-rule="evenodd" fill="#323232" d="M127.438,52.438c-0.13-0.594,0.397-0.531,0.836-0.557
	c0,0.093,0,0.186,0,0.278C127.823,52.082,127.794,52.423,127.438,52.438z"/>
<path fill-rule="evenodd" clip-rule="evenodd" fill="#333333" d="M130.225,57.734c0.236,0.051,0.263-0.108,0.278-0.279
	c0.187,0,0.371,0,0.557,0C130.75,57.55,130.155,58.935,130.225,57.734z"/>
<path fill-rule="evenodd" clip-rule="evenodd" fill="#333333" d="M107.649,10.632c-0.022,0.441,0.134,1.063-0.278,1.115
	C107.394,11.306,107.236,10.684,107.649,10.632z"/>
<path fill-rule="evenodd" clip-rule="evenodd" fill="#8A8A8A" d="M79.22,14.255c-0.461-0.212-0.461-2.297,0-2.508
	C79.22,12.583,79.22,13.419,79.22,14.255z"/>
<path fill-rule="evenodd" clip-rule="evenodd" fill="#8A8A8A" d="M109.6,11.189c0.194,1.238-0.884,2.503,0.278,3.066
	c-0.886-0.229-2.052-0.178-2.787-0.558c-0.162-0.905,0.19-1.297,0.279-1.951c0.412-0.052,0.256-0.674,0.278-1.115
	c0-0.093,0-0.186,0-0.279c0.438-0.025,0.218-0.71,0.837-0.558c0.185,0,0.371,0,0.558,0c0.062,0.218,0.232,0.324,0.557,0.279
	C109.6,10.446,109.6,10.817,109.6,11.189z"/>
<path fill-rule="evenodd" clip-rule="evenodd" fill="#323232" d="M106.535,16.206c-0.152,0.405,0.324,1.44-0.278,1.394
	c0-0.465,0-0.929,0-1.394C106.348,16.206,106.441,16.206,106.535,16.206z"/>
<path fill-rule="evenodd" clip-rule="evenodd" fill="#323232" d="M95.107,17.042c0.038-0.459,1.914-0.459,1.952,0
	C96.408,17.042,95.756,17.042,95.107,17.042z"/>
<path fill-rule="evenodd" clip-rule="evenodd" fill="#333333" d="M94.829,19.829c0.207-0.628,1.563-0.108,2.23-0.278
	c0,0.093,0,0.186,0,0.278C96.316,19.829,95.572,19.829,94.829,19.829z"/>
<path fill-rule="evenodd" clip-rule="evenodd" fill="#333333" d="M86.188,22.059c0-0.65,0-1.301,0-1.951
	C86.647,20.146,86.647,22.021,86.188,22.059z"/>
<path fill-rule="evenodd" clip-rule="evenodd" fill="#323232" d="M88.139,22.059c0.491,0.161,1.637-0.337,1.673,0.278
	c-0.559,0-1.115,0-1.673,0C88.139,22.245,88.139,22.152,88.139,22.059z"/>
<path fill-rule="evenodd" clip-rule="evenodd" fill="#8A8A8A" d="M90.091,20.944c0,0.558,0,1.115,0,1.672
	c-0.171-0.015-0.331-0.042-0.279-0.279c-0.036-0.615-1.182-0.118-1.673-0.278c-0.278,0-0.557,0-0.835,0c0-0.372,0-0.743,0-1.115
	C88.232,20.944,89.162,20.944,90.091,20.944z"/>
<path fill-rule="evenodd" clip-rule="evenodd" fill="#8A8A8A" d="M126.601,22.896c0-0.836,0-1.672,0-2.509
	C127.062,20.599,127.062,22.684,126.601,22.896z"/>
<path fill-rule="evenodd" clip-rule="evenodd" fill="#333333" d="M95.943,23.452c0.577,0.167,1.831-0.344,1.951,0.279
	c-0.651,0-1.3,0-1.951,0C95.943,23.639,95.943,23.545,95.943,23.452z"/>
<path fill-rule="evenodd" clip-rule="evenodd" fill="#333333" d="M100.403,23.731c0.44,0.023,1.063-0.134,1.115,0.279
	c-0.372,0-0.743,0-1.115,0C100.403,23.917,100.403,23.824,100.403,23.731z"/>
<path fill-rule="evenodd" clip-rule="evenodd" fill="#323232" d="M96.221,26.24c0.651,0,1.303,0,1.951,0c0,0.092,0,0.185,0,0.278
	C97.595,26.353,96.341,26.863,96.221,26.24z"/>
<path fill-rule="evenodd" clip-rule="evenodd" fill="#323232" d="M100.403,26.519c0.404,0.152,1.44-0.326,1.394,0.278
	C101.392,26.645,100.356,27.123,100.403,26.519z"/>
<path fill-rule="evenodd" clip-rule="evenodd" fill="#8A8A8A" d="M118.519,28.469c1.021,0,2.044,0,3.065,0
	C121.194,28.931,118.91,28.931,118.519,28.469z"/>
<path fill-rule="evenodd" clip-rule="evenodd" fill="#333333" d="M107.649,29.863c0-0.836,0-1.672,0-2.508
	C108.11,27.566,108.11,29.651,107.649,29.863z"/>
<path fill-rule="evenodd" clip-rule="evenodd" fill="#191919" d="M104.862,29.863c0.048-0.417-0.1-1.028,0.278-1.114
	C105.119,29.189,105.275,29.811,104.862,29.863z"/>
<path fill-rule="evenodd" clip-rule="evenodd" fill="#333333" d="M104.862,31.256c0,0.372,0,0.744,0,1.115c-0.092,0-0.187,0-0.278,0
	C104.631,31.955,104.483,31.343,104.862,31.256z"/>
<path fill-rule="evenodd" clip-rule="evenodd" fill="#8A8A8A" d="M104.862,32.372c0,0.557,0,1.115,0,1.672
	c-0.615-0.035-0.118-1.183-0.278-1.672C104.675,32.372,104.77,32.372,104.862,32.372z"/>
<path fill-rule="evenodd" clip-rule="evenodd" fill="#333333" d="M98.451,34.601c-0.046-0.457,1.72-0.457,1.673,0
	C99.567,34.601,99.008,34.601,98.451,34.601z"/>
<path fill-rule="evenodd" clip-rule="evenodd" fill="#333333" d="M109.6,34.601c0.44,0.024,1.063-0.133,1.116,0.279
	C110.273,34.857,109.652,35.014,109.6,34.601z"/>
<path fill-rule="evenodd" clip-rule="evenodd" fill="#8A8A8A" d="M112.108,34.88c0.94,0.176,2.589-0.359,3.065,0.278
	C114.236,34.982,112.585,35.518,112.108,34.88z"/>
<path fill-rule="evenodd" clip-rule="evenodd" fill="#191919" d="M98.451,37.388c-0.046-0.458,1.72-0.458,1.673,0
	C99.567,37.388,99.008,37.388,98.451,37.388z"/>
<path fill-rule="evenodd" clip-rule="evenodd" fill="#8A8A8A" d="M82.288,36.552c-1.262-0.425-0.605,1.069-1.116,1.393
	c-0.412,0.052-0.256,0.674-0.278,1.115c-0.693,0.042-1.158-0.144-1.395-0.558c0-0.093,0-0.186,0-0.278
	c0.489-0.534,0.592-1.453,0.838-2.23C80.571,36.595,82.114,35.891,82.288,36.552z"/>
<path fill-rule="evenodd" clip-rule="evenodd" fill="#8A8A8A" d="M94.55,37.388c1.021,0,2.044,0,3.065,0
	C97.225,37.85,94.939,37.85,94.55,37.388z"/>
<path fill-rule="evenodd" clip-rule="evenodd" fill="#333333" d="M109.6,37.388c0.465,0,0.93,0,1.395,0c0,0.093,0,0.186,0,0.279
	C110.587,37.514,109.552,37.993,109.6,37.388z"/>
<path fill-rule="evenodd" clip-rule="evenodd" fill="#333333" d="M109.322,51.045c0.052-0.413,0.673-0.256,1.113-0.279
	c0,0.093,0,0.186,0,0.279C110.065,51.045,109.692,51.045,109.322,51.045z"/>
<path fill-rule="evenodd" clip-rule="evenodd" fill="#8A8A8A" d="M110.435,50.766c0.668,0.17,2.023-0.35,2.23,0.279
	c-0.743,0-1.487,0-2.23,0C110.435,50.952,110.435,50.859,110.435,50.766z"/>
<path fill-rule="evenodd" clip-rule="evenodd" fill="#191919" d="M134.963,52.16c0-0.929,0-1.858,0-2.787
	C135.424,49.673,135.424,51.859,134.963,52.16z"/>
<path fill-rule="evenodd" clip-rule="evenodd" fill="#333333" d="M109.043,53.554c0.465,0,0.929,0,1.392,0
	c0.049,0.604-0.987,0.126-1.392,0.279C109.043,53.739,109.043,53.646,109.043,53.554z"/>
<path fill-rule="evenodd" clip-rule="evenodd" fill="#191919" d="M127.438,53.275c-0.152,0.405,0.325,1.44-0.278,1.394
	C127.312,54.263,126.833,53.228,127.438,53.275z"/>
<path fill-rule="evenodd" clip-rule="evenodd" fill="#333333" d="M128.552,54.947c0.152-0.405-0.324-1.44,0.278-1.393
	c0,0.464,0,0.929,0,1.393C128.739,54.947,128.644,54.947,128.552,54.947z"/>
<path fill-rule="evenodd" clip-rule="evenodd" fill="#333333" d="M135.242,15.37c-0.413-0.052-0.257-0.674-0.278-1.115
	c-0.013-1.475-0.854-2.12-1.395-3.066c-0.491-0.252-0.863-0.624-1.114-1.115c-2.712-2.119-6.918-2.745-11.148-3.345
	c-0.093,0-0.187,0-0.278,0c-6.301-1.504-12.826-2.782-19.51-3.902c-0.094,0-0.187,0-0.28,0c-4.171-1.03-8.398-2.007-13.099-2.508
	c-0.404-0.152-1.44,0.326-1.394-0.278c-0.836,0-1.671,0-2.509,0c0,0.093,0,0.186,0,0.278c-0.37,0-0.743,0-1.114,0
	c-0.278,0-0.557,0-0.835,0c-0.373,0-0.745,0-1.116,0c0,0.093,0,0.186,0,0.279c-0.092,0-0.186,0-0.278,0c-0.278,0-0.557,0-0.835,0
	c-4.098,0.6-7.407,2.057-10.035,4.181c-2.537,2.049-4.811,4.902-5.574,8.64c0,0.372,0,0.743,0,1.115c0,0.187,0,0.372,0,0.558
	c0,0.093,0,0.186,0,0.279c0.23,2.04,1.408,3.582,2.508,5.295c1.698,2.643,3.541,5.768,5.017,8.083
	c0.314,0.493,0.657,0.833,0.835,1.114c0.255,0.4,0.287,0.947,0.56,1.394c0.763,1.253,1.851,2.241,2.229,3.624
	c0.278-0.001,0.331,0.226,0.557,0.278c0.063,0.217,0.009,0.55,0.279,0.558c0,0.185,0,0.371,0,0.557
	c1.742,1.68,2.554,4.24,3.624,6.132c0.212,0.377,0.627,0.475,0.835,0.836c0.327,0.57,0.489,1.368,0.836,1.951
	c0.366,0.615,0.817,1.055,1.115,1.672c0.646,1.333,1.185,2.826,1.393,4.459c0.623,0.12,0.114,1.374,0.278,1.951
	c0,0.371,0,0.743,0,1.114c0,0.186,0,0.373,0,0.558c0,0.093,0,0.186,0,0.278c-0.062,0.217-0.006,0.551-0.278,0.558
	c-0.158,2.441-0.812,4.39-1.114,6.689c0,0.093,0,0.186,0,0.278c-0.412,0.052-0.256,0.674-0.278,1.116c0,0.092,0,0.186,0,0.278
	c-1.282,5.036-2.666,9.97-3.624,15.328c-0.046,0.418,0.101,1.03-0.278,1.116c0,0.186,0,0.371,0,0.557
	c-0.048,0.417,0.101,1.029-0.278,1.115c-0.242,1.245-0.678,2.296-0.557,3.901c-0.049,0.417,0.098,1.029-0.279,1.115
	c0,0.372,0,0.743,0,1.115c-0.048,0.416,0.099,1.028-0.28,1.114c-0.645,1.615-0.645,3.641-1.113,5.017
	c-0.562,1.65-1.699,2.735-2.23,4.182c-0.44,0.675-0.997,1.231-1.673,1.673c-1.122,0.642-2.202,1.327-3.622,1.672
	c-0.038,0.458-1.914,0.458-1.952,0c-5.512-1.921-8.374-6.491-15.329-6.968c-0.417-0.048-1.028,0.099-1.114-0.279
	c-1.096-0.205-2.021-0.582-3.066-0.836c-0.861-0.626-1.604-1.369-2.229-2.229c-0.764-1.41-1.722-2.634-1.672-4.182
	c0.031-1.011,0.875-2.417,1.115-2.787c1.264-1.951,2.203-4.039,3.344-5.853c1.677-2.662,3.764-4.765,3.623-7.524
	c0.153-0.406-0.326-1.441,0.279-1.395c0-0.743,0-1.486,0-2.229c0-0.186,0-0.372,0-0.558c0-0.185,0-0.372,0-0.557
	c0.093,0,0.186,0,0.279,0c0.311-0.804,0.501-1.728,0.557-2.787c0-0.187,0-0.373,0-0.558c0-0.093,0-0.186,0-0.279
	c0-0.093,0-0.186,0-0.279c0.093,0,0.186,0,0.279,0c0.296-6.107-5.085-7.531-9.198-9.197c-2.16-0.875-4.058-1.802-5.853-2.508
	c-1.117-0.44-2.099-0.739-3.065-1.116c-2.417-0.939-4.653-1.856-6.411-2.229c-0.372,0-0.743,0-1.115,0
	c-1.163-0.244-1.777,0.766-2.787,0.836c-1.562,0.107-2.617-0.849-4.181-1.116c-1.115,0-2.229,0-3.344,0c-0.372,0-0.743,0-1.115,0
	c-0.062,0.218-0.233,0.324-0.557,0.279c-0.186,0-0.372,0-0.558,0c-0.093,0-0.186,0-0.279,0c-4.261,0.663-6.567,3.28-8.64,6.132
	c-0.517-0.072-0.923,0.492-1.394,0.836c-1.776,1.294-4.438,2.994-4.181,5.853c0,0.092,0,0.186,0,0.279c0,0.371,0,0.743,0,1.114
	c0,0.372,0,0.743,0,1.115c0.418,2.527,1.911,4.5,2.787,6.132c0.318,0.591,0.521,1.323,0.836,1.952
	c1.162,2.31,3.185,4.43,3.066,7.803c0.624,0.12,0.113,1.373,0.279,1.951c0.583,3.97,2.33,6.774,3.624,10.033
	c0.043,0.329-0.048,0.791,0.278,0.837c0.509,2.37,1.366,4.394,1.673,6.968c0.093,0,0.185,0,0.278,0c0,0.278,0,0.557,0,0.836
	c0,0.186,0,0.371,0,0.557c0,2.044,0,4.088,0,6.132c0,0.093,0,0.187,0,0.279s0,0.186,0,0.278c-0.153,0.405,0.326,1.44-0.278,1.394
	c0,0.372,0,0.743,0,1.115c-0.048,0.417,0.099,1.028-0.279,1.114c0,0.186,0,0.372,0,0.559c0,0.092,0,0.186,0,0.278
	c-0.578,2.209-1.061,4.514-1.115,7.246c0,0.465,0,0.929,0,1.394c-0.129,2.08,0.841,3.061,1.394,4.46
	c0.491,0.251,0.863,0.623,1.115,1.114c0.667,0.354,1.026,1.018,2.229,0.837c0.557,0,1.115,0,1.672,0
	c1,0.163,1.348-0.325,1.951-0.559c0.082-0.567,0.754-0.546,0.836-1.114c0.237,0.051,0.263-0.109,0.278-0.278
	c0.093,0,0.186,0,0.279,0c0.408-0.614,0.847-1.197,0.836-2.23c0.324-0.047,0.302-0.44,0.278-0.836
	c0.996-1.42,2.151-2.68,4.738-2.509c-0.047-0.604,0.988-0.126,1.394-0.278c0.093,0,0.186,0,0.278,0
	c0.578,0.165,1.832-0.345,1.952,0.278c3.902,0,7.804,0,11.706,0c0.843-0.643,2.875-0.098,4.181-0.278c1.3,0,2.602,0,3.902,0
	c0.12-0.623,1.373-0.113,1.951-0.278c0.279,0,0.558,0,0.836,0c0.372,0,0.743,0,1.115,0c0.093,0,0.186,0,0.279,0
	c0.092,0,0.185,0,0.278,0c2.509,0,5.017,0,7.525,0c0.417,0.047,1.029-0.101,1.115,0.278c1.189,0.172,1.934,0.337,3.066,0.557
	c1.329,0.26,2.912,0.543,4.181,0.837c2.021,0.469,3.438,1.308,4.738,2.229c1.048,0.745,2.174,1.714,3.065,2.23
	c1.24,0.718,2.973,1.893,4.738,1.672c0.465,0,0.93,0,1.394,0c0.279,0,0.558,0,0.836,0c0.17,0.016,0.33,0.042,0.278,0.279
	c3.887,0.944,7.402,2.259,10.312,4.18c0.493,0.252,0.863,0.623,1.116,1.115c0.4,0.156,0.679,0.435,0.835,0.836
	c0.647,0.188,0.745,0.927,1.395,1.115c-0.052,0.236,0.108,0.263,0.278,0.278c0.082,0.568,0.754,0.547,0.836,1.115
	c2.003,1.341,4.349,2.341,7.805,2.229c0.051-0.413,0.674-0.255,1.114-0.279c3.019-0.12,4.325-1.946,5.295-3.622
	c0.631-1.088,1.288-2.214,1.951-3.346c0.493-0.839,1.136-1.596,1.673-2.509c0.511-0.869,0.884-1.915,1.395-2.786
	c0.521-0.892,1.284-1.625,1.671-2.509c0.455-1.034,0.479-2.11,0.837-3.345c0.771-2.662,1.901-5.051,1.95-7.524
	c0.166-0.577-0.345-1.831,0.28-1.951c-0.053-2.731,0.913-4.311,1.671-5.854c1.49-3.04,2.929-6.53,3.064-10.869
	c0.154-0.404-0.324-1.44,0.281-1.394c0-0.558,0-1.115,0-1.673c0-1.207,0-2.416,0-3.623c0-0.558,0-1.115,0-1.672
	c-0.413-0.052-0.257-0.674-0.281-1.114c0-0.372,0-0.745,0-1.115c-0.41-0.052-0.254-0.674-0.278-1.115c0-0.371,0-0.743,0-1.114
	c-0.412-0.053-0.254-0.675-0.278-1.115c0-0.372,0-0.743,0-1.115c-0.324-0.047-0.303-0.44-0.278-0.836c0-0.186,0-0.372,0-0.558
	c0-0.371,0-0.743,0-1.114c-0.413-0.053-0.255-0.675-0.278-1.115c0-0.371,0-0.743,0-1.115c-0.413-0.052-0.255-0.674-0.278-1.114
	c0-0.372,0-0.743,0-1.115c-0.413-0.052-0.257-0.674-0.279-1.115c0-0.278,0-0.558,0-0.836c-0.604,0.047-0.126-0.989-0.278-1.394
	c0-0.278,0-0.557,0-0.836c-0.412-0.051-0.256-0.673-0.278-1.115c0-0.649,0-1.3,0-1.95c0.046-0.417-0.1-1.029,0.278-1.115
	c0.249-0.586,0.433-1.239,0.836-1.672c0-0.093,0-0.186,0-0.279c1.268-1.24,3.071-1.946,4.181-3.344
	c-0.53,0.12-0.701,0.6-1.395,0.557c-0.311,0.095-0.905,1.48-0.835,0.279c-0.651,0-1.3,0-1.951,0c0,0.372,0,0.744,0,1.115
	c-0.234,0.323-0.367,0.747-0.278,1.393c-0.279,0-0.558,0-0.836,0c-0.094,0-0.187,0-0.278,0c0-0.65,0-1.301,0-1.951
	c0-0.093,0-0.186,0-0.278c-0.479,0.358-1.098,0.576-1.116,1.393c-0.326,0.417-0.347,1.14-0.835,1.394
	c-0.234,0.324-0.369,0.747-0.278,1.393c0,1.3,0,2.602,0,3.902c-0.207,1.321,0.313,1.917,0.278,3.066
	c0.412,0.051,0.254,0.673,0.278,1.115c0,0.372,0,0.743,0,1.115c0.413,0.051,0.255,0.673,0.278,1.113c0,0.373,0,0.744,0,1.116
	c0.413,0.051,0.255,0.673,0.278,1.114c0,0.372,0,0.743,0,1.115c0.413,0.052,0.257,0.674,0.279,1.114c0,0.093,0,0.187,0,0.279
	c0,0.278,0,0.557,0,0.837c0.604-0.049,0.126,0.987,0.278,1.392c0,0.094,0,0.187,0,0.28c0,0.278,0,0.557,0,0.836
	c0.412,0.051,0.256,0.673,0.278,1.114c0,0.371,0,0.743,0,1.114c0.324,0.048,0.303,0.441,0.28,0.837c0,0.093,0,0.187,0,0.278
	c0,0.093,0,0.187,0,0.279c0,0.278,0,0.557,0,0.836c0.627,0.208,0.108,1.563,0.278,2.229c0,0.278,0,0.557,0,0.836
	c-0.166,0.577,0.343,1.831-0.278,1.951c0,0.558,0,1.115,0,1.673c-0.048,0.416,0.099,1.028-0.28,1.114
	c-0.423,2.687-0.854,4.591-1.671,6.689c-0.907,2.326-2.604,4.53-2.787,7.246c-0.048,0.417,0.099,1.029-0.28,1.115
	c0,0.743,0,1.486,0,2.229c-0.152,0.406,0.326,1.441-0.278,1.395c-0.629,1.924-1.174,4.558-1.671,6.411
	c-0.599,2.226-1.429,3.729-2.511,5.573c-0.608,1.04-1.27,2.175-1.671,3.066c-0.044,0.097-0.492,0.163-0.559,0.278
	c-0.524,0.911-1.065,2.339-1.393,3.065c-0.044,0.096-0.49,0.166-0.557,0.279c-0.871,1.472-1.082,2.642-2.229,3.345
	c-2.688,1.645-7.128,0.6-9.477-1.673c-1.14-0.904-2.161-1.928-3.067-3.065c-3.313-2.724-7.538-4.538-12.819-5.296
	c-0.557,0-1.116,0-1.673,0c-0.092,0-0.187,0-0.278,0c-0.217-0.062-0.549-0.008-0.558-0.278c-0.092,0-0.186,0-0.278,0
	c-0.094,0-0.186,0-0.278,0c-0.318-0.331-1.104-0.547-1.673-0.837c-0.307-0.155-0.328-0.41-0.557-0.557
	c-0.345-0.218-0.789-0.052-1.116-0.279c-0.535-0.372-0.713-1.065-1.113-1.394c-0.203-0.164-0.647-0.149-0.838-0.278
	c-0.76-0.52-1.454-1.306-2.229-1.672c-0.545-0.259-1.208-0.322-1.949-0.558c-2.389-0.758-6.088-1.608-9.478-1.95
	c-0.847-0.176-2.4,0.356-2.787-0.28c-1.022,0-2.044,0-3.066,0c-1.305,0.646-3.806,0.097-5.574,0.28c-1.301,0-2.602,0-3.902,0
	c-0.751,0.642-2.688,0.098-3.902,0.278c-5.017,0-10.034,0-15.051,0c-0.093,0-0.185,0-0.278,0c-1.115,0-2.23,0-3.345,0
	c-0.052,0.411-0.674,0.255-1.115,0.278c-1.086-0.064-1.445,0.599-2.23,0.836c-0.439,0.676-0.997,1.232-1.672,1.672
	c-0.65,1.022-1.394,1.95-1.394,3.623c-0.252,0.491-0.624,0.864-1.114,1.115c-0.093,0-0.186,0-0.279,0
	c0.045,0.458-1.718,0.458-1.672,0c-0.093,0-0.186,0-0.279,0c-0.478-0.358-1.096-0.576-1.115-1.394
	c-0.046-0.789-0.511-1.161-0.557-1.951c-0.093,0-0.186,0-0.279,0c0-0.093,0-0.187,0-0.278c0.166-0.577-0.345-1.831,0.279-1.95
	c0.231-2,0.805-3.654,0.835-5.854c0.048-0.416-0.099-1.027,0.279-1.113c0-0.279,0-0.559,0-0.838
	c0.152-0.403-0.326-1.439,0.278-1.392c0-0.372,0-0.744,0-1.116c0.166-0.577-0.344-1.83,0.279-1.95c0-1.58,0-3.158,0-4.738
	c-0.623-0.12-0.113-1.374-0.279-1.951c0-0.278,0-0.558,0-0.836c-0.413-0.052-0.255-0.674-0.278-1.115
	c-0.819-6.334-3.731-10.576-5.296-16.165c-0.413-0.052-0.256-0.674-0.279-1.114c0-0.744,0-1.487,0-2.23
	c-0.169-0.016-0.33-0.042-0.278-0.278c0-0.093,0-0.187,0-0.279c0-0.186,0-0.371,0-0.557c-0.38-2.89-2.179-4.956-3.345-7.247
	c-0.695-1.366-1.651-3.188-2.23-4.181c-0.656-1.127-1.024-2.491-1.115-3.623c0.048-0.417-0.099-1.029,0.279-1.115
	c0.434-1.981,2.308-2.523,3.624-3.623c0.309-0.424,0.647-0.819,1.014-1.187c0.044-0.007,0.078-0.022,0.104-0.04
	c0.005-0.004,0.01-0.008,0.015-0.012c0.022-0.021,0.036-0.046,0.031-0.08c0,0,0,0,0-0.001c0.335-0.323,0.684-0.632,1.065-0.91
	c1.669-2.232,3.997-3.807,7.525-4.18c0.568-0.64,2.314-0.101,3.344-0.279c0.093,0,0.186,0,0.279,0c0,0.094,0,0.187,0,0.279
	c1.263,0.216,1.61,0.942,2.788,1.115c2.368,0.348,3.639-0.863,5.016-0.836c0.615,0.012,1.792,0.446,2.788,0.836
	c4.921,1.926,9.186,3.574,13.657,5.574c3.097,1.387,6.083,2.179,5.853,5.853c-0.087,0.377-0.396,0.533-0.278,1.116
	c-0.152,1.055-0.674,1.741-0.558,3.065c-0.152,0.405,0.326,1.44-0.278,1.394c0,0.743,0,1.486,0,2.229
	c-0.047,0.417,0.1,1.029-0.278,1.115c-0.625,2.462-2.373,4.343-3.623,6.411c-0.76,1.255-1.579,3.031-2.23,3.901
	c-0.97,1.296-1.877,2.718-1.951,4.459c0,0.836,0,1.672,0,2.509c0.063,2.259,1.276,3.367,2.229,4.738
	c0.861,0.626,1.604,1.369,2.23,2.229c1.058,0.895,2.547,1.313,4.181,1.672c1.292,0.283,2.834,0.165,4.18,0.558
	c1.069,0.311,2.064,1.14,3.065,1.672c1.084,0.577,2.156,1.101,3.066,1.672c2.508,1.577,4.672,3.354,7.246,3.345
	c0.464,0,0.929,0,1.394,0c2.711-0.075,4.27-1.303,5.852-2.508c0.347-0.583,0.812-1.048,1.395-1.394
	c2.498-2.889,3.903-6.874,4.46-11.706c0.046-0.418-0.101-1.028,0.278-1.115c0-0.371,0-0.743,0-1.114
	c0.046-0.417-0.101-1.029,0.278-1.115c0.77-5.732,2.358-10.648,3.344-16.165c0.415-0.422,0.451-1.223,0.559-1.951
	c0.602-2.65,1.307-5.195,1.671-8.083c0.049-0.417-0.1-1.028,0.279-1.115c0-0.279,0-0.557,0-0.836
	c0.048-0.417-0.099-1.028,0.28-1.115c0-0.278,0-0.558,0-0.836c0-0.093,0-0.186,0-0.278c0-0.187,0-0.372,0-0.558
	c0-1.114,0-2.229,0-3.344c-0.287-6.218-4.06-8.949-5.854-13.657c-0.412,0.052-0.256,0.674-0.278,1.115
	c-0.693,0.042-1.158-0.144-1.395-0.558c0-0.093,0-0.186,0-0.278c0.489-0.534,0.592-1.453,0.838-2.23
	c-0.385,0.012-0.613-0.131-0.838-0.278c-0.092,0-0.184,0-0.278,0c-0.45-0.387-0.881-0.79-1.393-1.116
	c-0.492-0.251-0.863-0.623-1.115-1.114c-0.066-0.397-0.459-0.47-0.558-0.836c-0.24-0.225-0.166-0.763-0.557-0.836
	c-0.19-1.019-0.391-2.026-0.28-3.345c-1.522-1.448-2.168-3.778-3.622-5.295c-0.063-0.216-0.008-0.55-0.278-0.558
	c-1.096-3.64-5.28-5.987-4.182-9.476c0.286-0.906,1.163-2.212,1.951-3.345c2.027-2.913,4.873-4.522,8.082-5.574
	c0.659-0.216,2.113-0.628,2.229-0.836c0.095,0,0.187,0,0.278,0c1.034,0.198,1.198-0.476,2.23-0.278
	c-0.046-0.604,0.989-0.126,1.395-0.279c1.3,0,2.6,0,3.902,0c0.417,0.048,1.027-0.099,1.114,0.279
	c2.586,0.386,4.859,1.085,7.524,1.393c0.094,0,0.187,0,0.278,0c4.494,1.083,9.2,1.949,13.936,2.787c0.095,0,0.187,0,0.278,0
	c4.927,1.3,10.312,2.138,15.609,3.066c0.092,0,0.186,0,0.278,0c0.048,0.325,0.44,0.303,0.837,0.279c0.093,0,0.185,0,0.278,0
	c0.968,0.518,2.082,0.891,3.065,1.394c0.491,0.252,0.863,0.624,1.114,1.115c1.24,1.734,0.739,5.207,0.837,8.083
	c0,1.486,0,2.973,0,4.459c0,0.186,0,0.372,0,0.558c0,1.114,0,2.229,0,3.344c0,0.186,0,0.372,0,0.557c0,1.487,0,2.973,0,4.459
	c0,0.187,0,0.373,0,0.558c0,1.115,0,2.23,0,3.345c0,0.186,0,0.372,0,0.558c0,2.044,0,4.088,0,6.131
	c0.017,0.17,0.042,0.33,0.278,0.279c0.156,0.401,0.436,0.68,0.836,0.836c0,0.279,0.227,0.332,0.278,0.557
	c0.453,0.663,0.627,1.603,1.116,2.229c0.322-1.994-0.441-5.287,0.278-7.524c-0.092,0-0.187,0-0.278,0c0-0.094,0-0.187,0-0.279
	c0-0.278,0-0.557,0-0.836c0-0.372,0-0.743,0-1.115c0-0.093,0-0.187,0-0.279c0-0.093,0-0.186,0-0.279
	c0.187-6.317-0.371-13.377,0.278-19.231C135.242,18.157,135.242,16.764,135.242,15.37z M67.793,10.075
	C67.481,9.669,67.814,10.006,67.793,10.075L67.793,10.075z"/>
<path fill-rule="evenodd" clip-rule="evenodd" fill="#FFFFFF" d="M81.45,8.402c1.983-2.372,7.914-1.996,10.033,0
	c0.533,0.768,1.185,1.418,1.951,1.951c3.549,2.12,8.949,2.386,13.657,3.345c0.735,0.379,1.901,0.329,2.787,0.558
	c1.915,0.011,4.219,0.913,6.689,1.393c4.64,0.903,9.486,0.614,10.033,4.738c0,0.836,0,1.672,0,2.509
	c-0.211,1.182-0.595,2.19-1.114,3.065c-0.49,0.252-0.863,0.624-1.115,1.115c-0.852,0.541-1.644,1.143-2.787,1.393
	c-1.021,0-2.044,0-3.065,0c-1.585-0.272-2.829-0.886-3.902-1.672c-0.251-0.491-0.623-0.863-1.114-1.115
	c-0.086-0.657-0.968-0.519-0.837-1.394c-0.345-0.583-0.81-1.048-1.393-1.393c-3.729-1.661-8.771-2.007-13.101-3.066
	c-0.086-0.378-0.697-0.231-1.113-0.278c-0.668,0.17-2.023-0.35-2.23,0.278c-0.787-0.23-0.723,0.393-1.395,0.279
	c-0.313,0.06-0.433,0.31-0.557,0.558c-0.653,0.583-0.296,2.51,0.557,2.508c0.788-0.23,0.724,0.393,1.395,0.278
	c0.087,0.379,0.697,0.231,1.114,0.279c0.651,0,1.3,0,1.951,0c0.371,0,0.743,0,1.114,0c-0.046,0.604,0.989,0.126,1.395,0.279
	c0.372,0,0.743,0,1.115,0c3.115,0.043,5.684,0.633,6.131,3.344c0,0.836,0,1.672,0,2.508c-0.008,1.451-0.64,2.904,0,4.181
	c0.603,0.233,0.951,0.722,1.951,0.557c0.052,0.414,0.673,0.256,1.116,0.279c0.462,0,0.927,0,1.392,0
	c0.478,0.638,2.128,0.102,3.065,0.278c1.223,0.173,2.402,0.388,3.067,1.115c0.345,0.583,0.81,1.047,1.393,1.394
	c0.423,0.617,1.105,1.295,1.395,1.672c0.174,0.228,0.09,0.598,0.278,0.836c1.134,1.437,2.009,2.035,3.902,2.508
	c2.206,0.552,5.309,1.26,6.689,2.229c-0.052,0.238,0.108,0.263,0.278,0.279c0.438,0.675,0.996,1.233,1.671,1.672
	c0.453,0.663,0.627,1.603,1.116,2.229c0,0.093,0,0.187,0,0.279c0,0.929,0,1.857,0,2.787c-0.28,2.136-1.032,3.799-2.509,4.738
	c-0.53,0.12-0.701,0.6-1.395,0.557c-0.186,0-0.37,0-0.557,0c-1.208,0-2.416,0-3.622,0c-0.187,0-0.373,0-0.559,0
	c-1.232-0.415-2.511-0.594-3.622-0.836c-1.314-0.285-2.621-0.461-3.903-0.836c-2.668-0.78-5.303-2.333-8.362-2.229
	c-0.463,0-0.927,0-1.392,0c-0.651,0-1.301,0-1.952,0c-1.977-0.445-4.082-1.922-4.459-4.181c-0.276-1.659,0.435-3.287,0.835-5.017
	c0.463-0.301,0.463-2.486,0-2.787c-0.242-1.987-1.29-3.168-2.508-4.181c-0.278,0-0.557,0-0.836,0c0.047-0.458-1.719-0.458-1.673,0
	c-0.278,0-0.557,0-0.835,0c-1.021,0-2.044,0-3.065,0c-2.723-0.5-3.264-3.036-5.575-3.066c-1.955-0.025-4.191,3.006-6.688,2.23
	c-0.174-0.662-1.717,0.043-1.951-0.558c-0.385,0.012-0.613-0.131-0.838-0.278c-0.092,0-0.184,0-0.278,0
	c-0.45-0.387-0.881-0.79-1.393-1.116c-0.252-0.491-0.625-0.863-1.115-1.114c-0.066-0.397-0.459-0.47-0.558-0.836
	c-0.24-0.225-0.166-0.763-0.557-0.836c-0.19-1.019-0.391-2.026-0.28-3.345c0.495-1.581,1.05-2.42,2.229-3.344
	c2.473-1.936,7.958-1.947,5.575-5.574c-0.627-0.86-1.37-1.604-2.229-2.23c-0.601-0.979-1.517-1.642-1.673-3.065
	c0-0.836,0-1.672,0-2.508c-0.038-1.154,0.633-1.596,1.116-2.23C80.827,9.265,81.198,8.894,81.45,8.402z M85.353,9.517
	c-2.769,0.274-4.854,3.695-2.509,5.853c0.625,0.86,1.368,1.604,2.23,2.23c0.418,0.788,1.126,1.288,1.113,2.508
	c0,0.65,0,1.301,0,1.951c-0.408,4.422-6.234,3.428-8.081,6.41c0,0.186,0,0.372,0,0.558c-0.453-0.199-0.453,1.314,0,1.115
	c0.214,1.735,1.462,2.439,2.786,3.066c0.238,0.613,2.002,1.135,2.509,0.557c3.021-1.103,3.811-2.69,6.689-2.229
	c2.157,0.346,3.508,3.076,5.573,3.345c0.945,0.123,1.903-0.424,2.786-0.279c0.558,0,1.116,0,1.673,0
	c5.78,0.21,7.283,7.729,5.295,13.1c-0.454-0.126-0.454,1.519,0,1.393c0.47,0.834,1.276,1.326,1.952,1.952c0.65,0,1.3,0,1.951,0
	c0.37,0,0.743,0,1.113,0c0.743,0,1.487,0,2.23,0c4.977,0.97,8.865,3.028,14.216,3.623c0.034,0.615,1.182,0.118,1.671,0.278
	c0.092,0,0.187,0,0.278,0c2.364,0.228,3.096-1.178,3.346-3.065c0.457,0.045,0.457-1.718,0-1.672
	c-0.579-5.089-7.801-3.534-10.87-6.132c-0.253-0.491-0.623-0.863-1.114-1.115c-0.827-1.218-1.999-2.09-2.508-3.623
	c-0.253-0.491-0.625-0.863-1.116-1.115c-1.229-0.072-1.745-0.855-3.344-0.558c-0.208-0.628-1.564-0.109-2.229-0.279
	c-0.465,0-0.93,0-1.395,0c-1.136-0.166-2.475-0.127-3.065-0.836c-0.252-0.492-0.623-0.863-1.116-1.115
	c-0.412-0.237-0.599-0.702-0.557-1.393c0-0.558,0-1.116,0-1.672c0-0.372,0-0.743,0-1.115c0-0.464,0-0.929,0-1.394
	c0.413-0.052,0.257-0.673,0.278-1.114c0-0.373,0-0.744,0-1.115c-0.913-0.479-1.907-0.879-3.344-0.836
	c0.047-0.604-0.989-0.126-1.394-0.278c-0.279,0-0.558,0-0.836,0c0.046-0.604-0.989-0.126-1.395-0.278c-0.648,0-1.3,0-1.951,0
	c-1.857,0-3.518-0.199-4.46-1.115c-0.25-0.492-0.623-0.863-1.113-1.115c-0.413-0.237-0.6-0.702-0.557-1.394c0-0.557,0-1.115,0-1.672
	c0-0.092,0-0.186,0-0.278c0.486-2.393,2.135-3.624,5.016-3.623c0.649,0,1.301,0,1.952,0c3.109,0.141,5.562,0.94,8.359,1.394
	c1.055,0.434,2.417,0.557,3.625,0.835c1.508,0.351,3.047,0.669,3.902,1.672c0.438,0.675,0.995,1.233,1.671,1.672
	c1.34,1.746,3.592,3.951,6.411,3.345c0.517-0.111,2.117-1.252,2.508-1.951c0.324-0.58,0.673-2.67,0.557-3.066
	c-0.599-2.04-4.649-1.974-7.246-2.508c-3.019-0.622-5.547-1.287-8.082-1.672c-0.382-0.547-1.708-0.15-2.229-0.558
	c-0.094,0-0.187,0-0.278,0c-5.43-0.797-11.203-1.247-14.773-3.902c-0.438-0.674-0.995-1.232-1.671-1.672
	c-0.877-0.423-1.673-0.929-2.786-1.115C87.07,9.06,85.307,9.06,85.353,9.517z"/>
<path fill-rule="evenodd" clip-rule="evenodd" fill="#8A8A8A" d="M107.091,53.554c0.651,0,1.301,0,1.952,0c0,0.092,0,0.185,0,0.279
	C108.466,53.667,107.212,54.177,107.091,53.554z"/>
<path fill-rule="evenodd" clip-rule="evenodd" fill="#8A8A8A" d="M126.881,57.455c1.206,0,2.414,0,3.622,0
	c-0.016,0.17-0.042,0.33-0.278,0.279c-0.651,0-1.3,0-1.951,0c0,0.372,0,0.744,0,1.115c-0.234,0.323-0.367,0.747-0.278,1.393
	c-0.279,0-0.558,0-0.836,0c-0.094,0-0.187,0-0.278,0c0-0.65,0-1.301,0-1.951c0-0.093,0-0.186,0-0.278
	C126.881,57.827,126.881,57.641,126.881,57.455z"/>
</svg>
