<?xml version="1.0" encoding="utf-8"?>
<!-- Generator: Adobe Illustrator 15.0.0, SVG Export Plug-In  -->
<!DOCTYPE svg PUBLIC "-//W3C//DTD SVG 1.1//EN" "http://www.w3.org/Graphics/SVG/1.1/DTD/svg11.dtd" [
	<!ENTITY ns_flows "http://ns.adobe.com/Flows/1.0/">
]>
<svg version="1.1"
	 xmlns="http://www.w3.org/2000/svg" xmlns:xlink="http://www.w3.org/1999/xlink" xmlns:a="http://ns.adobe.com/AdobeSVGViewerExtensions/3.0/"
	 x="0px" y="0px" width="142px" height="142px" viewBox="-3.278 -1.271 142 142" enable-background="new -3.278 -1.271 142 142"
	 xml:space="preserve">
<defs>
</defs>
<path fill-rule="evenodd" clip-rule="evenodd" fill="#747474" d="M83.123,1.359c0-0.092,0-0.186,0-0.278c0.465,0,0.928,0,1.393,0
	c0,0.093,0,0.186,0,0.278C84.05,1.359,83.587,1.359,83.123,1.359z"/>
<path fill-rule="evenodd" clip-rule="evenodd" fill="#BDBDBD" d="M84.515,1.359c0-0.092,0-0.186,0-0.278c0.651,0,1.303,0,1.951,0
	c0,0.093,0,0.186,0,0.278C85.818,1.359,85.167,1.359,84.515,1.359z"/>
<path fill-rule="evenodd" clip-rule="evenodd" fill="#BDBDBD" d="M84.237,3.868c0.124-0.459,2.105-0.459,2.229,0
	C85.723,3.868,84.98,3.868,84.237,3.868z"/>
<path fill-rule="evenodd" clip-rule="evenodd" fill="#BDBDBD" d="M132.455,16.41c0.463,0.846,0.463,3.613,0,4.459
	C132.455,19.383,132.455,17.896,132.455,16.41z"/>
<path fill-rule="evenodd" clip-rule="evenodd" fill="#747474" d="M134.963,20.312c0.092,0,0.187,0,0.278,0c0,0.744,0,1.487,0,2.23
	c-0.092,0-0.187,0-0.278,0C134.963,21.798,134.963,21.055,134.963,20.312z"/>
<path fill-rule="evenodd" clip-rule="evenodd" fill="#191919" d="M132.455,21.706c0,0.558,0,1.115,0,1.672c-0.092,0-0.187,0-0.278,0
	C132.336,22.888,131.837,21.74,132.455,21.706z"/>
<path fill-rule="evenodd" clip-rule="evenodd" fill="#323232" d="M134.963,22.542c0.092,0,0.187,0,0.278,0c0,2.602,0,5.203,0,7.804
	c-0.092,0-0.187,0-0.278,0C134.963,27.745,134.963,25.143,134.963,22.542z"/>
<path fill-rule="evenodd" clip-rule="evenodd" fill="#323232" d="M132.176,23.377c0.092,0,0.187,0,0.278,0c0,3.81,0,7.619,0,11.427
	c-0.092,0-0.187,0-0.278,0C132.176,30.996,132.176,27.187,132.176,23.377z"/>
<path fill-rule="evenodd" clip-rule="evenodd" fill="#191919" d="M134.963,30.346c0.092,0,0.187,0,0.278,0c0,1.579,0,3.159,0,4.738
	c-0.092,0-0.187,0-0.278,0C134.963,33.505,134.963,31.925,134.963,30.346z"/>
<path fill-rule="evenodd" clip-rule="evenodd" fill="#191919" d="M129.668,35.084c0.296-0.633,1.751-0.106,2.508-0.279
	C131.879,35.438,130.423,34.911,129.668,35.084z"/>
<path fill-rule="evenodd" clip-rule="evenodd" fill="#BDBDBD" d="M132.455,36.198c-0.452,0.2-0.452-1.313,0-1.114
	C132.455,35.456,132.455,35.827,132.455,36.198z"/>
<path fill-rule="evenodd" clip-rule="evenodd" fill="#191919" d="M137.75,35.084c0.455-0.126,0.455,1.519,0,1.393
	C137.75,36.013,137.75,35.548,137.75,35.084z"/>
<path fill-rule="evenodd" clip-rule="evenodd" fill="#191919" d="M17.068,48.461c0.48-0.461,2.864-0.461,3.344,0
	C19.297,48.461,18.183,48.461,17.068,48.461z"/>
<path fill-rule="evenodd" clip-rule="evenodd" fill="#191919" d="M14.838,48.741c0.086-0.379,0.698-0.231,1.115-0.279
	C15.901,48.875,15.28,48.717,14.838,48.741z"/>
<path fill-rule="evenodd" clip-rule="evenodd" fill="#191919" d="M27.38,48.741c-0.199-0.452,1.314-0.452,1.115,0
	C28.124,48.741,27.752,48.741,27.38,48.741z"/>
<path fill-rule="evenodd" clip-rule="evenodd" fill="#191919" d="M16.511,51.249c0.571-0.462,3.051-0.462,3.623,0
	C18.926,51.249,17.718,51.249,16.511,51.249z"/>
<path fill-rule="evenodd" clip-rule="evenodd" fill="#191919" d="M84.515,55.429c0,0.465,0,0.929,0,1.394c-0.092,0-0.184,0-0.278,0
	C84.389,56.418,83.913,55.382,84.515,55.429z"/>
<path fill-rule="evenodd" clip-rule="evenodd" fill="#191919" d="M84.237,57.938c-0.046,0.417,0.101,1.029-0.278,1.115
	C83.983,58.611,83.824,57.99,84.237,57.938z"/>
<path fill-rule="evenodd" clip-rule="evenodd" fill="#191919" d="M3.132,61.282c-0.047,0.417,0.1,1.029-0.279,1.115
	C2.901,61.98,2.754,61.369,3.132,61.282z"/>
<path fill-rule="evenodd" clip-rule="evenodd" fill="#191919" d="M0.345,61.562c0,0.836,0,1.672,0,2.508
	C-0.115,63.858-0.115,61.773,0.345,61.562z"/>
<path fill-rule="evenodd" clip-rule="evenodd" fill="#191919" d="M127.16,64.349c0.046-0.417-0.1-1.029,0.278-1.115
	C127.415,63.675,127.571,64.296,127.16,64.349z"/>
<path fill-rule="evenodd" clip-rule="evenodd" fill="#BDBDBD" d="M104.027,63.791c-0.2-0.452,1.313-0.452,1.113,0
	C104.77,63.791,104.397,63.791,104.027,63.791z"/>
<path fill-rule="evenodd" clip-rule="evenodd" fill="#191919" d="M53.022,63.791c-0.023,0.442,0.134,1.063-0.279,1.116
	C52.791,64.489,52.644,63.877,53.022,63.791z"/>
<path fill-rule="evenodd" clip-rule="evenodd" fill="#191919" d="M124.372,64.906c0.629,0.207,0.109,1.563,0.28,2.229
	C124.023,66.928,124.542,65.572,124.372,64.906z"/>
<path fill-rule="evenodd" clip-rule="evenodd" fill="#191919" d="M94.55,65.742c0.649,0,1.301,0,1.949,0
	C96.463,66.201,94.586,66.201,94.55,65.742z"/>
<path fill-rule="evenodd" clip-rule="evenodd" fill="#191919" d="M127.16,66.299c0.377,0.087,0.23,0.698,0.278,1.115
	C127.026,67.363,127.182,66.741,127.16,66.299z"/>
<path fill-rule="evenodd" clip-rule="evenodd" fill="#191919" d="M49.398,67.972c-0.152,0.405,0.326,1.44-0.278,1.394
	C49.272,68.96,48.794,67.925,49.398,67.972z"/>
<path fill-rule="evenodd" clip-rule="evenodd" fill="#191919" d="M127.438,68.529c0.379,0.086,0.23,0.698,0.278,1.115
	C127.304,69.592,127.46,68.97,127.438,68.529z"/>
<path fill-rule="evenodd" clip-rule="evenodd" fill="#191919" d="M124.93,70.202c0.412,0.051,0.254,0.673,0.278,1.115
	C124.795,71.265,124.952,70.643,124.93,70.202z"/>
<path fill-rule="evenodd" clip-rule="evenodd" fill="#191919" d="M127.716,70.48c0.379,0.086,0.23,0.698,0.279,1.115
	C127.583,71.543,127.739,70.921,127.716,70.48z"/>
<path fill-rule="evenodd" clip-rule="evenodd" fill="#191919" d="M51.907,70.759c-0.16,0.49,0.337,1.638-0.279,1.673
	C51.789,71.941,51.292,70.794,51.907,70.759z"/>
<path fill-rule="evenodd" clip-rule="evenodd" fill="#191919" d="M49.12,71.595c-0.047,0.417,0.1,1.029-0.278,1.115
	C48.888,72.292,48.742,71.681,49.12,71.595z"/>
<path fill-rule="evenodd" clip-rule="evenodd" fill="#191919" d="M125.208,72.432c0.413,0.051,0.255,0.673,0.278,1.113
	C125.075,73.494,125.231,72.872,125.208,72.432z"/>
<path fill-rule="evenodd" clip-rule="evenodd" fill="#191919" d="M127.996,72.71c0.378,0.086,0.23,0.698,0.278,1.114
	C127.861,73.772,128.019,73.15,127.996,72.71z"/>
<path fill-rule="evenodd" clip-rule="evenodd" fill="#191919" d="M125.487,74.661c0.413,0.051,0.255,0.673,0.278,1.114
	C125.353,75.724,125.509,75.102,125.487,74.661z"/>
<path fill-rule="evenodd" clip-rule="evenodd" fill="#191919" d="M128.274,74.939c0.379,0.086,0.23,0.698,0.278,1.115
	C128.139,76.002,128.297,75.38,128.274,74.939z"/>
<path fill-rule="evenodd" clip-rule="evenodd" fill="#191919" d="M125.765,76.891c0.605-0.047,0.127,0.988,0.279,1.394
	C125.439,78.33,125.917,77.296,125.765,76.891z"/>
<path fill-rule="evenodd" clip-rule="evenodd" fill="#191919" d="M128.552,77.169c0.605-0.047,0.126,0.988,0.278,1.394
	C128.228,78.609,128.705,77.574,128.552,77.169z"/>
<path fill-rule="evenodd" clip-rule="evenodd" fill="#191919" d="M9.543,77.448c0.413,0.052,0.255,0.674,0.278,1.114
	C9.409,78.511,9.566,77.89,9.543,77.448z"/>
<path fill-rule="evenodd" clip-rule="evenodd" fill="#191919" d="M126.044,79.121c0.604-0.049,0.126,0.987,0.278,1.392
	C125.717,80.561,126.196,79.524,126.044,79.121z"/>
<path fill-rule="evenodd" clip-rule="evenodd" fill="#191919" d="M128.831,79.678c0.379,0.086,0.232,0.698,0.278,1.115
	C128.697,80.74,128.855,80.118,128.831,79.678z"/>
<path fill-rule="evenodd" clip-rule="evenodd" fill="#191919" d="M7.034,79.956c0.624,0.12,0.113,1.373,0.279,1.951
	C6.69,81.787,7.2,80.533,7.034,79.956z"/>
<path fill-rule="evenodd" clip-rule="evenodd" fill="#191919" d="M9.821,80.793c0.413,0.051,0.255,0.673,0.279,1.114
	C9.688,81.855,9.844,81.233,9.821,80.793z"/>
<path fill-rule="evenodd" clip-rule="evenodd" fill="#191919" d="M126.323,81.629c0.412,0.051,0.256,0.673,0.278,1.114
	C126.188,82.691,126.346,82.069,126.323,81.629z"/>
<path fill-rule="evenodd" clip-rule="evenodd" fill="#191919" d="M129.109,81.907c0.379,0.086,0.232,0.698,0.278,1.115
	C128.977,82.971,129.133,82.349,129.109,81.907z"/>
<path fill-rule="evenodd" clip-rule="evenodd" fill="#191919" d="M78.942,82.186c-0.048,0.417,0.101,1.029-0.278,1.115
	C78.685,82.859,78.529,82.238,78.942,82.186z"/>
<path fill-rule="evenodd" clip-rule="evenodd" fill="#191919" d="M126.601,83.857c0.412,0.053,0.256,0.675,0.28,1.115
	C126.466,84.922,126.625,84.3,126.601,83.857z"/>
<path fill-rule="evenodd" clip-rule="evenodd" fill="#191919" d="M129.387,84.138c0.379,0.086,0.232,0.696,0.281,1.114
	C129.255,85.2,129.412,84.578,129.387,84.138z"/>
<path fill-rule="evenodd" clip-rule="evenodd" fill="#191919" d="M126.881,86.366c0.463,0.938,0.463,3.8,0,4.738
	C126.881,89.525,126.881,87.945,126.881,86.366z"/>
<path fill-rule="evenodd" clip-rule="evenodd" fill="#191919" d="M80.893,86.924c-0.048,0.417,0.101,1.029-0.278,1.115
	C80.661,87.622,80.514,87.01,80.893,86.924z"/>
<path fill-rule="evenodd" clip-rule="evenodd" fill="#191919" d="M129.668,86.924c0.463,0.572,0.463,3.052,0,3.623
	C129.668,89.34,129.668,88.131,129.668,86.924z"/>
<path fill-rule="evenodd" clip-rule="evenodd" fill="#191919" d="M78.107,87.202c-0.049,0.417,0.098,1.029-0.279,1.115
	C77.85,87.877,77.694,87.255,78.107,87.202z"/>
<path fill-rule="evenodd" clip-rule="evenodd" fill="#191919" d="M41.037,87.481c0,0.836,0,1.672,0,2.509
	C40.576,89.779,40.576,87.693,41.037,87.481z"/>
<path fill-rule="evenodd" clip-rule="evenodd" fill="#191919" d="M80.615,89.153c-0.048,0.417,0.099,1.029-0.278,1.115
	C80.382,89.851,80.236,89.24,80.615,89.153z"/>
<path fill-rule="evenodd" clip-rule="evenodd" fill="#191919" d="M77.828,89.433c-0.048,0.416,0.099,1.028-0.28,1.114
	C77.572,90.105,77.416,89.484,77.828,89.433z"/>
<path fill-rule="evenodd" clip-rule="evenodd" fill="#191919" d="M129.668,92.22c-0.154,0.405,0.324,1.44-0.281,1.394
	C129.542,93.209,129.063,92.173,129.668,92.22z"/>
<path fill-rule="evenodd" clip-rule="evenodd" fill="#191919" d="M15.396,98.072c0.413,0.052,0.255,0.674,0.278,1.115
	C15.262,99.136,15.419,98.514,15.396,98.072z"/>
<path fill-rule="evenodd" clip-rule="evenodd" fill="#191919" d="M12.888,99.745c0.604-0.048,0.125,0.988,0.278,1.393
	C12.562,101.186,13.04,100.149,12.888,99.745z"/>
<path fill-rule="evenodd" clip-rule="evenodd" fill="#191919" d="M15.674,100.023c0.623,0.12,0.113,1.373,0.279,1.951
	C15.33,101.854,15.84,100.601,15.674,100.023z"/>
<path fill-rule="evenodd" clip-rule="evenodd" fill="#191919" d="M66.957,103.09c0.65,0,1.301,0,1.952,0
	C68.871,103.548,66.995,103.548,66.957,103.09z"/>
<path fill-rule="evenodd" clip-rule="evenodd" fill="#191919" d="M67.236,105.876c0.464,0,0.929,0,1.394,0
	C68.755,106.332,67.11,106.332,67.236,105.876z"/>
<path fill-rule="evenodd" clip-rule="evenodd" fill="#191919" d="M15.953,106.713c-0.166,0.577,0.344,1.831-0.279,1.95
	C15.84,108.086,15.33,106.833,15.953,106.713z"/>
<path fill-rule="evenodd" clip-rule="evenodd" fill="#191919" d="M13.166,107.27c-0.166,0.578,0.345,1.831-0.278,1.951
	C13.053,108.644,12.543,107.39,13.166,107.27z"/>
<path fill-rule="evenodd" clip-rule="evenodd" fill="#191919" d="M122.143,107.827c-0.048,0.417,0.099,1.029-0.28,1.115
	C121.911,108.525,121.765,107.914,122.143,107.827z"/>
<path fill-rule="evenodd" clip-rule="evenodd" fill="#191919" d="M15.674,109.779c-0.152,0.404,0.326,1.44-0.278,1.392
	C15.548,110.768,15.07,109.731,15.674,109.779z"/>
<path fill-rule="evenodd" clip-rule="evenodd" fill="#191919" d="M124.652,110.058c-0.171,0.666,0.349,2.021-0.28,2.229
	C124.542,111.62,124.023,110.265,124.652,110.058z"/>
<path fill-rule="evenodd" clip-rule="evenodd" fill="#191919" d="M12.888,110.336c-0.048,0.417,0.099,1.028-0.279,1.114
	C12.632,111.01,12.475,110.388,12.888,110.336z"/>
<path fill-rule="evenodd" clip-rule="evenodd" fill="#191919" d="M121.863,111.171c-0.152,0.406,0.326,1.441-0.278,1.395
	C121.737,112.161,121.26,111.125,121.863,111.171z"/>
<path fill-rule="evenodd" clip-rule="evenodd" fill="#191919" d="M15.396,112.009c-0.048,0.415,0.099,1.027-0.279,1.113
	C15.165,112.706,15.018,112.095,15.396,112.009z"/>
<path fill-rule="evenodd" clip-rule="evenodd" fill="#191919" d="M52.186,116.747c1.304-0.647,3.805-0.097,5.574-0.28
	C56.455,117.113,53.954,116.563,52.186,116.747z"/>
<path fill-rule="evenodd" clip-rule="evenodd" fill="#191919" d="M60.826,116.467c0.756,0.174,2.212-0.354,2.508,0.28
	C62.578,116.573,61.122,117.101,60.826,116.467z"/>
<path fill-rule="evenodd" clip-rule="evenodd" fill="#191919" d="M44.103,117.025c0.844-0.644,2.875-0.099,4.181-0.278
	C47.44,117.39,45.409,116.844,44.103,117.025z"/>
<path fill-rule="evenodd" clip-rule="evenodd" fill="#191919" d="M14.281,118.977c0,0.743,0,1.485,0,2.229
	C13.821,121.081,13.821,119.1,14.281,118.977z"/>
<path fill-rule="evenodd" clip-rule="evenodd" fill="#191919" d="M50.514,119.533c0.935-0.644,3.061-0.098,4.459-0.278
	C54.037,119.899,51.912,119.353,50.514,119.533z"/>
<path fill-rule="evenodd" clip-rule="evenodd" fill="#191919" d="M62.498,119.255c0.417,0.047,1.029-0.101,1.115,0.278
	C63.171,119.511,62.55,119.667,62.498,119.255z"/>
<path fill-rule="evenodd" clip-rule="evenodd" fill="#191919" d="M11.494,119.533c0,0.465,0,0.929,0,1.394
	C11.039,121.052,11.039,119.408,11.494,119.533z"/>
<path fill-rule="evenodd" clip-rule="evenodd" fill="#191919" d="M27.102,119.812c0.663-0.463,3.239-0.463,3.902,0
	C29.703,119.812,28.402,119.812,27.102,119.812z"/>
<path fill-rule="evenodd" clip-rule="evenodd" fill="#191919" d="M42.431,119.812c0.843-0.643,2.875-0.098,4.181-0.278
	C45.769,120.177,43.736,119.632,42.431,119.812z"/>
<path fill-rule="evenodd" clip-rule="evenodd" fill="#191919" d="M83.123,124.271c0.756,0.172,2.212-0.354,2.509,0.278
	C84.874,124.378,83.419,124.903,83.123,124.271z"/>
<path fill-rule="evenodd" clip-rule="evenodd" fill="#191919" d="M16.232,124.55c0.557,0,1.115,0,1.672,0
	C17.95,125.008,16.186,125.008,16.232,124.55z"/>
<path fill-rule="evenodd" clip-rule="evenodd" fill="#191919" d="M83.402,127.059c0.757,0.173,2.211-0.354,2.508,0.279
	C85.155,127.164,83.698,127.691,83.402,127.059z"/>
<path fill-rule="evenodd" clip-rule="evenodd" fill="#191919" d="M16.232,127.338c0.557,0,1.115,0,1.672,0
	C17.95,127.794,16.186,127.794,16.232,127.338z"/>
<path fill-rule="evenodd" clip-rule="evenodd" fill="#191919" d="M108.486,138.207c0.051-0.413,0.674-0.255,1.114-0.279
	C109.514,138.307,108.903,138.159,108.486,138.207z"/>
<path fill-rule="evenodd" clip-rule="evenodd" fill="#323232" d="M103.749,1.081c-0.241-0.569,0.438-1.536,0.557-0.836
	C103.902,0.308,104.207,1.077,103.749,1.081z"/>
<path fill-rule="evenodd" clip-rule="evenodd" fill="#191919" d="M72.531,101.418c0.347-0.584,0.812-1.048,1.395-1.395
	C73.579,100.606,73.114,101.071,72.531,101.418z"/>
<path fill-rule="evenodd" clip-rule="evenodd" fill="#191919" d="M45.218,92.777c0.86,0.626,1.603,1.369,2.229,2.229
	C46.587,94.381,45.844,93.638,45.218,92.777z"/>
<path fill-rule="evenodd" clip-rule="evenodd" fill="#191919" d="M12.888,125.387c0.491,0.251,0.863,0.623,1.115,1.114
	C13.511,126.249,13.139,125.877,12.888,125.387z"/>
<path fill-rule="evenodd" clip-rule="evenodd" fill="#191919" d="M19.855,126.779c0.346-0.583,0.811-1.048,1.394-1.393
	C20.903,125.97,20.438,126.435,19.855,126.779z"/>
<path fill-rule="evenodd" clip-rule="evenodd" fill="#191919" d="M96.221,131.518c0.493,0.252,0.863,0.623,1.116,1.115
	C96.846,132.38,96.474,132.009,96.221,131.518z"/>
<path fill-rule="evenodd" clip-rule="evenodd" fill="#191919" d="M98.172,133.469c0.954,0.72,1.789,1.555,2.509,2.509
	C99.729,135.258,98.892,134.422,98.172,133.469z"/>
<path fill-rule="evenodd" clip-rule="evenodd" fill="#BDBDBD" d="M127.996,61.84c0.304-0.995,0.955-1.646,1.951-1.951
	C129.206,60.448,128.554,61.099,127.996,61.84z"/>
<path fill-rule="evenodd" clip-rule="evenodd" fill="#747474" d="M131.898,58.495c0.438-0.675,0.996-1.232,1.671-1.672
	C133.13,57.499,132.573,58.056,131.898,58.495z"/>
<path fill-rule="evenodd" clip-rule="evenodd" fill="#747474" d="M103.749,1.081c0.458-0.004,0.153-0.773,0.557-0.836
	c0.903-0.161,1.296,0.19,1.951,0.279c-0.248,1.23-1.076,3.082-0.559,4.181c-0.788-0.234-1.72-0.323-2.509-0.557
	C103.206,2.955,103.564,2.105,103.749,1.081z"/>
<path fill-rule="evenodd" clip-rule="evenodd" fill="#747474" d="M126.323,63.791c0.347-0.583,0.812-1.047,1.394-1.393
	c0.045,0.324-0.062,0.496-0.278,0.557c-0.402,0.156-0.681,0.435-0.837,0.836C126.508,63.791,126.415,63.791,126.323,63.791z"/>
<path fill-rule="evenodd" clip-rule="evenodd" fill="#BDBDBD" d="M87.583,62.676c0.491,0.252,0.863,0.623,1.114,1.114
	C88.206,63.539,87.833,63.167,87.583,62.676z"/>
<path fill-rule="evenodd" clip-rule="evenodd" fill="#BDBDBD" d="M69.745,10c0.396-1.089,1.14-1.832,2.229-2.229
	C71.134,8.417,70.391,9.16,69.745,10z"/>
<path fill-rule="evenodd" clip-rule="evenodd" fill="#BDBDBD" d="M129.947,56.545c0.639-0.476,1.196-1.033,1.671-1.672
	C131.405,55.773,130.846,56.331,129.947,56.545z"/>
<path fill-rule="evenodd" clip-rule="evenodd" fill="#747474" d="M102.076,6.655c0.774,0.433,2.357,0.058,2.508,1.115
	c0.082,1.475-0.484,2.303-0.557,3.623c-0.79,0.23-0.724-0.393-1.395-0.278c-0.181-0.284-0.642-0.289-0.557-0.836
	c0-0.186,0-0.372,0-0.557c0.378-0.086,0.229-0.698,0.278-1.115C102.164,7.429,102.924,7.032,102.076,6.655z"/>
<path fill-rule="evenodd" clip-rule="evenodd" fill="#747474" d="M72.252,25.05c0.779-0.429,1.573-0.844,2.229-1.394
	c0.655,0.089,0.625,0.863,1.116,1.115c-0.559,0.835-1.949,0.838-2.229,1.951C72.86,26.302,72.711,25.52,72.252,25.05z"/>
<path fill-rule="evenodd" clip-rule="evenodd" fill="#323232" d="M102.632,11.115c-0.278,0-0.557,0-0.836,0
	c-0.023-0.396-0.046-0.79,0.279-0.836C101.991,10.826,102.452,10.831,102.632,11.115z"/>
<path fill-rule="evenodd" clip-rule="evenodd" fill="#191919" d="M68.909,28.952c0.109,0.541-1.27,0.407-0.837-0.279
	C68.296,28.821,68.525,28.964,68.909,28.952z"/>
<path fill-rule="evenodd" clip-rule="evenodd" fill="#747474" d="M129.668,35.084c0.755-0.173,2.211,0.354,2.508-0.279
	c0.092,0,0.187,0,0.278,0c0,0.093,0,0.186,0,0.279c-0.452-0.199-0.452,1.314,0,1.114c0,4.924,0,9.848,0,14.771
	c-0.092,0-0.187,0-0.278,0c0-4.738,0-9.476,0-14.213c-0.297-0.633-1.753-0.106-2.508-0.279
	C129.668,36.013,129.668,35.548,129.668,35.084z"/>
<path fill-rule="evenodd" clip-rule="evenodd" fill="#191919" d="M74.482,103.368c0.347-0.583,0.812-1.048,1.395-1.394
	C75.53,102.558,75.065,103.022,74.482,103.368z"/>
<path fill-rule="evenodd" clip-rule="evenodd" fill="#191919" d="M43.267,94.729c0.861,0.626,1.604,1.369,2.23,2.229
	C44.637,96.331,43.894,95.588,43.267,94.729z"/>
<path fill-rule="evenodd" clip-rule="evenodd" fill="#191919" d="M42.152,84.694c-0.327,0.417-0.347,1.14-0.836,1.394
	C41.409,85.438,41.602,84.888,42.152,84.694z"/>
<path fill-rule="evenodd" clip-rule="evenodd" fill="#191919" d="M6.756,57.659c0.626-0.86,1.369-1.603,2.229-2.23
	C8.359,56.29,7.616,57.033,6.756,57.659z"/>
<path fill-rule="evenodd" clip-rule="evenodd" fill="#191919" d="M14.838,123.156c0.386,0.45,0.79,0.883,1.115,1.394
	C15.476,124.191,14.857,123.974,14.838,123.156z"/>
<path fill-rule="evenodd" clip-rule="evenodd" fill="#191919" d="M18.183,124.55c0.251-0.491,0.623-0.863,1.114-1.115
	C19.045,123.926,18.674,124.299,18.183,124.55z"/>
<path fill-rule="evenodd" clip-rule="evenodd" fill="#191919" d="M20.413,120.09c0.533-0.767,1.183-1.417,1.951-1.95
	C21.831,118.907,21.18,119.558,20.413,120.09z"/>
<path fill-rule="evenodd" clip-rule="evenodd" fill="#191919" d="M98.451,129.846c1.141,0.905,2.162,1.928,3.067,3.065
	C100.378,132.007,99.357,130.983,98.451,129.846z"/>
<path fill-rule="evenodd" clip-rule="evenodd" fill="#323232" d="M126.323,63.791c0.092,0,0.186,0,0.278,0
	c0.156-0.401,0.435-0.68,0.837-0.836c0,0.093,0,0.186,0,0.279c-0.378,0.086-0.232,0.698-0.278,1.115c0,0.65,0,1.301,0,1.95
	c0.022,0.442-0.134,1.064,0.278,1.115c0,0.372,0,0.744,0,1.115c0.022,0.441-0.134,1.063,0.278,1.115c0,0.278,0,0.558,0,0.836
	c0.022,0.441-0.134,1.063,0.279,1.115c0,0.372,0,0.743,0,1.115c0.023,0.44-0.135,1.063,0.278,1.114c0,0.372,0,0.744,0,1.115
	c0.023,0.44-0.135,1.063,0.278,1.115c0,0.371,0,0.743,0,1.114c0.152,0.405-0.324,1.44,0.278,1.394c0,0.372,0,0.743,0,1.115
	c0.024,0.44-0.134,1.063,0.278,1.115c0,0.371,0,0.743,0,1.114c0.024,0.441-0.132,1.063,0.278,1.115c0,0.37,0,0.743,0,1.115
	c0.024,0.44-0.132,1.063,0.281,1.114c0,0.557,0,1.114,0,1.672c0,1.207,0,2.416,0,3.623c0,0.558,0,1.115,0,1.673
	c-0.605-0.047-0.127,0.989-0.281,1.394c-0.313,3.803-0.899,6.354-2.228,9.197c-0.917,1.962-2.46,3.974-2.508,7.247
	c-0.629,0.207-0.11,1.563-0.28,2.229c0.124,1.915-0.808,3.529-1.393,5.573c-0.785,2.744-1.046,4.561-2.23,6.689
	c-1.666,2.993-3.656,6.041-5.575,9.197c-0.435,0.719-0.663,1.392-1.113,1.951c-0.904,1.119-2.364,2.095-4.46,2.229
	c-0.44,0.024-1.063-0.134-1.114,0.279c-3.456,0.111-5.802-0.889-7.805-2.229c-0.72-0.954-1.555-1.789-2.509-2.509
	c-0.156-0.401-0.435-0.68-0.835-0.836c-0.253-0.492-0.623-0.863-1.116-1.115c-2.871-1.959-6.438-3.222-10.312-4.18
	c-0.297-0.634-1.751-0.106-2.508-0.279c-4.504,0.111-6.337-3.8-9.755-5.296c-1.669-0.729-3.351-0.723-5.017-1.114
	c-1.549-0.364-3.068-1.019-5.017-1.115c-0.086-0.379-0.698-0.231-1.115-0.278c-2.508,0-5.017,0-7.525,0
	c-1.398,0.181-3.524-0.365-4.459,0.278c-1.301,0-2.602,0-3.902,0c-1.306,0.181-3.337-0.364-4.181,0.278c-3.809,0-7.618,0-11.427,0
	c-0.663-0.463-3.239-0.463-3.902,0c-4.197-0.388-4.584,3.034-5.853,5.575c-0.583,0.345-1.048,0.81-1.394,1.393
	c-0.603,0.233-0.951,0.722-1.951,0.559c-0.558,0-1.115,0-1.672,0c-1.204,0.181-1.563-0.482-2.229-0.837
	c-0.252-0.491-0.624-0.863-1.115-1.114c-0.553-1.399-1.523-2.38-1.394-4.46c0-0.465,0-0.929,0-1.394
	c0.001-3.065,0.79-5.342,1.115-8.083c0.378-0.086,0.23-0.697,0.279-1.114c0-0.372,0-0.743,0-1.115
	c0.623-0.12,0.113-1.373,0.278-1.951c0-2.044,0-4.088,0-6.132c-0.153-0.404,0.326-1.44-0.278-1.393
	c-0.655-3.713-1.531-6.554-2.788-9.755c-0.107-0.274-0.483-0.644-0.557-0.837c-0.29-0.753-0.282-1.542-0.558-2.229
	c-0.5-1.246-1.375-2.323-1.672-3.623c-0.101-0.441,0.076-0.946,0-1.394c-0.166-0.578,0.345-1.831-0.279-1.951
	c0.003-1.902-0.52-3.611-1.394-5.017c-0.542-0.873-1.302-2.662-1.951-3.902c-1.201-2.294-2.849-3.994-3.345-6.967
	c0-0.836,0-1.672,0-2.508c-0.286-3.484,3.372-4.888,5.853-7.247c1.007-0.958,1.822-2.261,2.787-3.066
	c0.567-0.474,1.315-0.75,1.951-1.115c1.017-0.584,2.104-1.526,3.902-1.393c0.441-0.024,1.063,0.134,1.115-0.279
	c0.372,0,0.744,0,1.115,0c1.115,0,2.229,0,3.344,0c1.29,0.026,2.151,1.061,3.345,1.116c1.341,0.062,2.188-0.787,3.623-0.836
	c0.372,0,0.743,0,1.115,0c3.905,1.239,8.593,2.991,13.657,5.017c1.946,0.779,4.278,1.893,6.41,3.066
	c1.213,0.667,1.805,0.789,2.787,1.951c0.996,1.179,1.871,2.452,1.672,5.017c-0.378,0.086-0.231,0.698-0.279,1.116
	c-0.094,2.135-0.958,3.5-0.836,5.853c-0.615,0.035-0.118,1.183-0.279,1.673c-0.066,1.353-0.308,2.78-1.114,3.623
	c-0.227,0.236-0.333,0.602-0.558,0.836c-0.228,0.236-0.334,0.603-0.558,0.836c-0.227,0.237-0.333,0.603-0.557,0.836
	c-0.228,0.237-0.333,0.603-0.558,0.837c-0.297,0.31-0.731,1.549-1.115,2.229c-1.472,2.613-3.65,5.033-3.623,7.245
	c0.02,1.632,1,2.482,1.672,3.903c0.625,0.86,1.369,1.604,2.229,2.229c2.183,0.697,4.009,0.964,6.131,1.394
	c2.016,0.408,3.075,1.045,4.738,1.951c0.774,0.422,1.368,0.616,2.23,1.114c1.747,1.012,3.943,2.929,6.41,3.624
	c0.038,0.458,1.914,0.458,1.952,0c1.42-0.345,2.5-1.03,3.622-1.672c0.583-0.347,1.048-0.812,1.395-1.395
	c1.93-2.438,2.854-5.877,3.622-9.477c0.379-0.086,0.232-0.698,0.28-1.114c0-0.372,0-0.743,0-1.115
	c0.377-0.086,0.23-0.698,0.279-1.115c-0.121-1.605,0.314-2.656,0.557-3.901c0.379-0.086,0.23-0.698,0.278-1.115
	c1.264-8.119,3.681-15.087,5.017-23.132c0.379-0.086,0.232-0.698,0.278-1.115c0-0.372,0-0.743,0-1.115c0.095,0,0.187,0,0.278,0
	c-0.05,0.237,0.11,0.263,0.28,0.278c0.381,1.662,1.146,2.942,1.95,4.181c-0.918,0.891-0.592,2.26-0.836,3.345
	c-0.232,1.033-0.609,2.076-0.835,3.066c-1.421,6.217-3.147,12.543-4.182,19.231c-0.379,0.086-0.232,0.698-0.278,1.115
	c0,0.371,0,0.743,0,1.114c-0.379,0.087-0.232,0.697-0.278,1.115c-0.557,4.832-1.962,8.817-4.46,11.706
	c-0.583,0.346-1.048,0.811-1.395,1.394c-1.582,1.205-3.141,2.433-5.852,2.508c-0.465,0-0.93,0-1.394,0
	c-4.791-0.419-8.333-4.925-12.821-6.41c-3.223-1.066-6.783-0.529-8.918-2.508c-0.626-0.86-1.369-1.604-2.23-2.229
	c-0.953-1.371-2.166-2.479-2.229-4.738c0-0.837,0-1.673,0-2.509c-0.089-0.646,0.045-1.069,0.279-1.394
	c0.489-0.254,0.51-0.977,0.836-1.394c1.12-2.127,2.104-4.162,3.344-6.132c1.139-1.808,2.803-3.506,3.345-5.853
	c0.378-0.086,0.231-0.698,0.278-1.115c0-0.743,0-1.486,0-2.229c0.604,0.047,0.126-0.989,0.278-1.394
	c0.069-2.132,1.187-4.162,0.558-6.131c-0.714-2.236-4.585-3.638-7.247-4.739c-3.349-1.385-7.426-2.882-11.427-4.459
	c-1.063-0.419-2.348-1.082-2.787-1.115c-1.472-0.109-2.882,0.921-4.738,0.836c-1.709-0.079-2.424-0.752-3.624-1.115
	c-0.572-0.462-3.052-0.462-3.623,0c-3.529,0.373-5.856,1.948-7.525,4.18c-0.86,0.627-1.604,1.37-2.229,2.23
	c-1.315,1.1-3.189,1.642-3.624,3.623c-0.378,0.086-0.231,0.698-0.279,1.115c0.351,3.258,2.468,5.386,3.623,8.083
	c0.111,0.257,0.103,0.762,0.279,1.115c0.767,1.531,2.753,3.186,2.787,5.854c0.023,0.441-0.134,1.063,0.278,1.114
	c0,0.743,0,1.486,0,2.23c0.023,0.44-0.134,1.063,0.279,1.114c1.535,5.619,4.492,9.814,5.296,16.165
	c0.023,0.441-0.134,1.063,0.278,1.115c0,0.278,0,0.558,0,0.836c0.166,0.577-0.344,1.831,0.279,1.951c0,1.58,0,3.158,0,4.738
	c-0.623,0.12-0.113,1.373-0.279,1.95c0,0.372,0,0.744,0,1.116c-0.604-0.048-0.126,0.988-0.278,1.392c0,0.279,0,0.559,0,0.838
	c-0.378,0.086-0.231,0.697-0.279,1.113c-0.03,2.2-0.604,3.854-0.835,5.854c-0.46,0.123-0.46,2.104,0,2.229
	c0.046,0.79,0.511,1.162,0.557,1.951c0.019,0.817,0.637,1.035,1.115,1.394c0.093,0,0.186,0,0.279,0
	c-0.046,0.458,1.718,0.458,1.672,0c0.093,0,0.186,0,0.279,0c0.491-0.251,0.862-0.624,1.114-1.115
	c-0.044-1.53,0.674-2.299,1.115-3.345c0.768-0.532,1.418-1.183,1.951-1.95c1.901-1.591,6.904-1.114,11.427-1.114
	c3.63,0,7.271,0,10.312,0c1.306-0.182,3.338,0.364,4.181-0.278c1.3,0,2.601,0,3.902,0c1.768-0.184,4.269,0.366,5.574-0.28
	c1.022,0,2.044,0,3.066,0c0.296,0.634,1.752,0.106,2.508,0.28c2.147-0.033,4.342,0.634,6.411,1.113
	c1.639,0.382,3.468,0.595,4.737,1.116c3.226,1.319,5.089,4.709,8.641,5.295c0.297,0.632,1.751,0.106,2.509,0.278
	c5.291,0.748,9.478,2.601,12.819,5.296c0.906,1.138,1.928,2.161,3.067,3.065c2.044,1.956,5.704,3.054,8.36,2.229
	c1.757-0.545,2.526-2.11,3.624-3.901c0.405-0.66,0.865-1.887,1.393-2.788c0.196-0.333,0.609-0.434,0.837-0.835
	c0.203-0.359,0.063-0.752,0.279-1.115c0.065-0.112,0.513-0.183,0.557-0.279c0.192-0.425,0.227-0.828,0.557-1.394
	c1.244-2.117,2.118-3.358,2.789-5.852c0.489-1.827,1.078-4.619,1.671-6.411c0.604,0.047,0.126-0.988,0.278-1.395
	c0-0.742,0-1.485,0-2.229c0.379-0.086,0.232-0.698,0.28-1.115c0.002-3.055,2.46-5.342,3.344-8.082
	c0.221-0.685,0.126-1.546,0.278-2.23c0.383-1.718,1.106-3.772,1.116-6.41c0.463-0.938,0.463-3.8,0-4.738c0-0.464,0-0.929,0-1.394
	c-0.024-0.44,0.132-1.063-0.28-1.115c0-0.371,0-0.743,0-1.114c-0.022-0.441,0.134-1.063-0.278-1.114c0-0.373,0-0.744,0-1.116
	c-0.152-0.404,0.326-1.44-0.278-1.392c0-0.28,0-0.559,0-0.837c-0.152-0.405,0.326-1.44-0.279-1.394c0-0.372,0-0.743,0-1.115
	c-0.023-0.441,0.135-1.063-0.278-1.114c0-0.372,0-0.743,0-1.116c-0.023-0.44,0.135-1.063-0.278-1.113c0-0.372,0-0.743,0-1.115
	c-0.024-0.441,0.134-1.063-0.278-1.115c0.034-1.15-0.485-1.746-0.278-3.066c-0.171-0.666,0.349-2.022-0.28-2.229
	c-0.093,0-0.185,0-0.279,0C124.719,64.417,125.662,64.244,126.323,63.791z"/>
<path fill-rule="evenodd" clip-rule="evenodd" fill="#191919" d="M82.007,1.359c0.086-0.378,0.699-0.231,1.115-0.278
	c0,0.093,0,0.186,0,0.278C82.75,1.359,82.379,1.359,82.007,1.359z"/>
<path fill-rule="evenodd" clip-rule="evenodd" fill="#747474" d="M86.466,1.081c0.491,0.16,1.637-0.337,1.673,0.278
	c-0.557,0-1.113,0-1.673,0C86.466,1.267,86.466,1.174,86.466,1.081z"/>
<path fill-rule="evenodd" clip-rule="evenodd" fill="#191919" d="M82.566,4.147c0.086-0.378,0.697-0.231,1.114-0.279
	C83.594,4.246,82.983,4.099,82.566,4.147z"/>
<path fill-rule="evenodd" clip-rule="evenodd" fill="#191919" d="M102.354,8.606c-0.049,0.417,0.1,1.028-0.278,1.115
	C102.124,9.304,101.975,8.692,102.354,8.606z"/>
<path fill-rule="evenodd" clip-rule="evenodd" fill="#747474" d="M64.449,16.688c-0.46-0.124-0.46-2.105,0-2.229
	C64.449,15.202,64.449,15.945,64.449,16.688z"/>
<path fill-rule="evenodd" clip-rule="evenodd" fill="#191919" d="M67.236,14.738c0,0.464,0,0.929,0,1.394
	C66.781,16.257,66.781,14.612,67.236,14.738z"/>
<path fill-rule="evenodd" clip-rule="evenodd" fill="#323232" d="M129.668,35.084c0,0.464,0,0.929,0,1.393
	C129.211,36.603,129.211,34.958,129.668,35.084z"/>
<path fill-rule="evenodd" clip-rule="evenodd" fill="#191919" d="M134.963,53.2c0-5.574,0-11.148,0-16.723c0.092,0,0.187,0,0.278,0
	C135.055,41.959,135.612,48.183,134.963,53.2z"/>
<path fill-rule="evenodd" clip-rule="evenodd" fill="#323232" d="M132.455,50.97c-0.17,0.667,0.349,2.022-0.278,2.23
	c0-0.743,0-1.487,0-2.23C132.268,50.97,132.363,50.97,132.455,50.97z"/>
<path fill-rule="evenodd" clip-rule="evenodd" fill="#747474" d="M87.026,52.643c0.639,0.568,0.1,2.314,0.278,3.344
	C86.663,55.419,87.202,53.672,87.026,52.643z"/>
<path fill-rule="evenodd" clip-rule="evenodd" fill="#191919" d="M84.237,52.921c0.413,0.051,0.257,0.673,0.278,1.115
	C84.137,53.95,84.285,53.338,84.237,52.921z"/>
<path fill-rule="evenodd" clip-rule="evenodd" fill="#BDBDBD" d="M84.515,56.823c0-0.465,0-0.929,0-1.394c0-0.278,0-0.557,0-0.835
	c0.634,0.296,0.106,1.752,0.28,2.508C84.625,57.086,84.465,57.06,84.515,56.823z"/>
<path fill-rule="evenodd" clip-rule="evenodd" fill="#747474" d="M104.027,63.791c-0.234,1.351,1.414,2.692-0.278,3.066
	c-1.497,0.102-0.558-2.231-1.673-2.508C102.404,63.842,103.528,64.129,104.027,63.791z"/>
<path fill-rule="evenodd" clip-rule="evenodd" fill="#323232" d="M115.173,67.972c0.465,0,0.93,0,1.395,0
	C116.694,68.427,115.049,68.427,115.173,67.972z"/>
<path fill-rule="evenodd" clip-rule="evenodd" fill="#FFFFFF" d="M64.449,14.459c0.044-0.17-0.058-0.391,0-0.557
	c1.049-3.03,3.286-6.575,5.574-8.362c0.259-0.202,0.949-0.273,1.395-0.557c0.406-0.26,0.703-0.613,1.113-0.836
	c2.467-1.341,5.87-2.431,9.477-2.788c0.372,0,0.743,0,1.115,0c0.465,0,0.928,0,1.393,0c0.651,0,1.303,0,1.951,0
	c0.56,0,1.116,0,1.673,0c5.197,0.749,10.025,1.867,15.05,2.788c0.789,0.234,1.721,0.323,2.509,0.557
	c4.427,0.927,10.501,2,16.165,3.066c6.008,1.131,11.832,1.813,13.101,7.525c0,1.672,0,3.345,0,5.016c0,0.744,0,1.487,0,2.23
	c0,2.602,0,5.203,0,7.804c0,1.579,0,3.159,0,4.738c0,0.464,0,0.929,0,1.393c0,5.575,0,11.148,0,16.723
	c0,1.673-0.743,2.602-1.395,3.624c-0.675,0.44-1.232,0.997-1.671,1.672c-0.543,0.572-1.314,0.916-1.951,1.394
	c-0.996,0.305-1.647,0.956-1.951,1.951c-0.055,0.226-0.281,0.277-0.279,0.557c-0.582,0.346-1.047,0.811-1.394,1.393
	c-0.661,0.453-1.604,0.627-2.23,1.116c-3.091,0.438-4.403,2.655-7.524,3.065c-0.465,0-0.93,0-1.395,0
	c-4.171-0.566-5.808-3.667-10.033-4.181c0.2-0.452-1.313-0.452-1.113,0c-0.499,0.339-1.623,0.051-1.951,0.558
	c-1.802,0.522-3.126,1.52-5.576,1.394c-0.648,0-1.3,0-1.949,0c-2.519-0.084-4.518-0.686-5.854-1.952
	c-0.251-0.491-0.623-0.862-1.114-1.114c-0.326-0.418-0.806-0.682-0.837-1.394c-0.804-1.239-1.569-2.519-1.95-4.181
	c-0.174-0.756,0.354-2.211-0.28-2.508c0-0.186,0-0.372,0-0.558c-0.021-0.442,0.135-1.063-0.278-1.115
	c-0.417-4.694-3.157-8.041-5.295-11.706c-0.667-1.144-1.334-2.281-1.951-3.345c-0.124-0.214-0.116-0.584-0.278-0.836
	c-0.257-0.398-0.874-0.729-1.114-1.115c-0.179-0.285-0.126-0.573-0.28-0.836c-0.145-0.25-0.438-0.367-0.557-0.558
	c-0.229-0.372-0.309-1.001-0.558-1.394c-1.122-1.768-2.544-3.327-3.344-5.295c-0.417-0.327-0.329-1.158-1.115-1.115
	c-1.172-3.937-4.255-5.964-5.296-10.034C64.449,15.945,64.449,15.202,64.449,14.459z M84.237,3.868c-0.187,0-0.37,0-0.557,0
	c-0.417,0.048-1.028-0.099-1.114,0.279c-4.474,0.266-7.648,1.829-10.592,3.623c-1.09,0.397-1.833,1.141-2.229,2.229
	c-0.863,1.553-2.204,2.628-2.509,4.738c-0.455-0.125-0.455,1.519,0,1.394c0.052,0.163-0.068,0.401,0,0.557
	c1.231,2.83,4.081,5.627,5.017,8.362c0.459,0.47,0.607,1.252,1.116,1.672c2.639,4.105,5.074,8.146,7.524,12.263
	c2.393,4.021,5.544,8.08,6.133,13.657c0.176,1.03-0.363,2.776,0.278,3.344c1.111,3.348,2.352,6.567,6.409,6.968
	c0.572,0.462,3.053,0.462,3.624,0c1.563-0.294,2.868-0.847,4.181-1.393c1.185-0.488,3.136-0.208,4.738-0.279
	c2.126,0.107,3.498,1.067,5.017,1.951c0.32,0.187,0.693,0.288,1.114,0.557c0.248,0.16,0.603,0.719,0.837,0.836
	c3.538,1.778,4.313-0.255,7.524-1.672c1.03-0.454,2.879-0.632,3.623-1.114c0.791-0.513,1.025-1.498,1.673-2.23
	c0.776-0.88,1.858-1.658,2.508-1.951c0.505-0.228,0.739-0.945,1.395-1.114c0.899-0.214,1.458-0.771,1.671-1.672
	c0.222-0.521,0.467-1.021,0.559-1.673c0.627-0.208,0.108-1.563,0.278-2.23c0-4.923,0-9.847,0-14.771c0-0.371,0-0.743,0-1.114
	c0-0.093,0-0.187,0-0.279c0-3.809,0-7.618,0-11.427c0-0.557,0-1.114,0-1.672c0-0.279,0-0.558,0-0.836
	c0.463-0.846,0.463-3.613,0-4.459c-0.338-2.434-2.096-3.55-4.181-4.181c-0.106-0.032-0.411-0.513-0.558-0.558
	c-1.945-0.591-5.11-0.743-7.246-1.115c-0.345-0.06-0.717-0.478-1.115-0.558c-2.785-0.555-5.98-0.875-8.639-1.393
	c-2.964-0.578-5.199-1.644-6.133-0.836c-0.15-1.057-1.733-0.682-2.508-1.115c-5.35-0.784-10.178-2.086-15.609-2.788
	C86.342,3.408,84.361,3.408,84.237,3.868z"/>
<path fill-rule="evenodd" clip-rule="evenodd" fill="#BDBDBD" d="M134.963,15.295c0.645,1.12,0.096,3.434,0.278,5.016
	c-0.092,0-0.187,0-0.278,0C134.963,18.64,134.963,16.968,134.963,15.295z"/>
<path fill-rule="evenodd" clip-rule="evenodd" fill="#747474" d="M69.745,26.722c0.786-0.043,0.698,0.788,1.115,1.115
	c-0.763,0.26-1.189,0.855-1.951,1.115c-0.384,0.012-0.612-0.131-0.837-0.279c-0.302-0.069-0.188-0.554-0.557-0.557
	C68.091,27.484,68.94,27.126,69.745,26.722z"/>
<path fill-rule="evenodd" clip-rule="evenodd" fill="#747474" d="M101.518,61.562c0.042-1.16-1.378-2.73,0.278-3.066
	c1.404-0.01,0.439,2.348,1.671,2.509c0.848,0.174,2.402-0.357,2.789,0.278C104.654,61.354,102.703,61.074,101.518,61.562z"/>
<path fill-rule="evenodd" clip-rule="evenodd" fill="#323232" d="M93.713,62.955c1.208,0,2.416,0,3.624,0
	C96.766,63.417,94.286,63.417,93.713,62.955z"/>
<path fill-rule="evenodd" clip-rule="evenodd" fill="#747474" d="M134.963,35.084c0.092,0,0.187,0,0.278,0
	c0.825-0.382,1.214,0.163,2.508,0c0,0.464,0,0.929,0,1.393c-0.835,0-1.673,0-2.508,0c-0.092,0-0.187,0-0.278,0
	C134.963,36.013,134.963,35.548,134.963,35.084z"/>
</svg>
