<?xml version="1.0" encoding="utf-8"?>
<!-- Generator: Adobe Illustrator 15.0.0, SVG Export Plug-In  -->
<!DOCTYPE svg PUBLIC "-//W3C//DTD SVG 1.1//EN" "http://www.w3.org/Graphics/SVG/1.1/DTD/svg11.dtd" [
	<!ENTITY ns_flows "http://ns.adobe.com/Flows/1.0/">
]>
<svg version="1.1"
	 xmlns="http://www.w3.org/2000/svg" xmlns:xlink="http://www.w3.org/1999/xlink" xmlns:a="http://ns.adobe.com/AdobeSVGViewerExtensions/3.0/"
	 x="0px" y="0px" width="142px" height="142px" viewBox="-3.278 -2.037 142 142" enable-background="new -3.278 -2.037 142 142"
	 xml:space="preserve">
<defs>
</defs>
<path fill-rule="evenodd" clip-rule="evenodd" fill="#D1D1D1" d="M83.958,3.102c0.301-0.461,2.486-0.461,2.787,0
	C85.818,3.102,84.888,3.102,83.958,3.102z"/>
<path fill-rule="evenodd" clip-rule="evenodd" fill="#A0A0A0" d="M132.455,16.202c0.636,0.386,0.104,1.939,0.278,2.787
	c-0.092,0-0.186,0-0.278,0C132.455,18.06,132.455,17.131,132.455,16.202z"/>
<path fill-rule="evenodd" clip-rule="evenodd" fill="#A0A0A0" d="M134.963,18.71c0.092,0,0.187,0,0.278,0c0,0.464,0,0.929,0,1.393
	c-0.092,0-0.187,0-0.278,0C134.963,19.639,134.963,19.174,134.963,18.71z"/>
<path fill-rule="evenodd" clip-rule="evenodd" fill="#D1D1D1" d="M132.455,18.989c0.093,0,0.187,0,0.278,0
	c-0.151,0.405,0.327,1.44-0.278,1.393C132.455,19.918,132.455,19.454,132.455,18.989z"/>
<path fill-rule="evenodd" clip-rule="evenodd" fill="#6D6D6D" d="M134.963,20.104c0.092,0,0.187,0,0.278,0c0,0.651,0,1.301,0,1.951
	c-0.092,0-0.187,0-0.278,0C134.963,21.404,134.963,20.754,134.963,20.104z"/>
<path fill-rule="evenodd" clip-rule="evenodd" fill="#303030" d="M132.455,21.498c0,3.995,0,7.989,0,11.985
	c-0.092,0-0.187,0-0.278,0C132.361,29.579,131.806,24.936,132.455,21.498z"/>
<path fill-rule="evenodd" clip-rule="evenodd" fill="#303030" d="M134.963,22.055c0.092,0,0.187,0,0.278,0
	c-0.187,5.575,0.37,11.891-0.278,17.001C134.963,33.389,134.963,27.722,134.963,22.055z"/>
<path fill-rule="evenodd" clip-rule="evenodd" fill="#6D6D6D" d="M132.176,33.482c0.092,0,0.187,0,0.278,0
	c0,5.667,0,11.333,0,17.001c-0.092,0-0.187,0-0.278,0C132.176,44.816,132.176,39.149,132.176,33.482z"/>
<path fill-rule="evenodd" clip-rule="evenodd" fill="#303030" d="M17.068,47.696c0.051-0.413,0.673-0.255,1.115-0.278
	c0,0.093,0,0.186,0,0.278C17.812,47.696,17.44,47.696,17.068,47.696z"/>
<path fill-rule="evenodd" clip-rule="evenodd" fill="#303030" d="M134.963,49.926c0.459,0.124,0.459,2.106,0,2.23
	C134.963,51.412,134.963,50.669,134.963,49.926z"/>
<path fill-rule="evenodd" clip-rule="evenodd" fill="#303030" d="M17.347,50.483c0-0.093,0-0.186,0-0.279c0.465,0,0.929,0,1.394,0
	C18.787,50.809,17.752,50.331,17.347,50.483z"/>
<path fill-rule="evenodd" clip-rule="evenodd" fill="#303030" d="M132.176,50.483c0.092,0,0.187,0,0.278,0
	c-0.152,0.405,0.325,1.44-0.278,1.394C132.176,51.412,132.176,50.947,132.176,50.483z"/>
<path fill-rule="evenodd" clip-rule="evenodd" fill="#D1D1D1" d="M50.234,61.632c0.456-0.125,0.456,1.52,0,1.393
	C50.234,62.561,50.234,62.097,50.234,61.632z"/>
<path fill-rule="evenodd" clip-rule="evenodd" fill="#303030" d="M129.668,86.158c0.46,0.48,0.46,2.864,0,3.345
	C129.668,88.388,129.668,87.273,129.668,86.158z"/>
<path fill-rule="evenodd" clip-rule="evenodd" fill="#303030" d="M126.881,86.437c0.092,0,0.185,0,0.278,0c0,0.929,0,1.858,0,2.788
	c-0.094,0-0.187,0-0.278,0C126.881,88.295,126.881,87.365,126.881,86.437z"/>
<path fill-rule="evenodd" clip-rule="evenodd" fill="#D1D1D1" d="M13.166,100.931c0.413,0.051,0.255,0.673,0.279,1.114
	c-0.093,0-0.186,0-0.279,0C13.166,101.674,13.166,101.302,13.166,100.931z"/>
<path fill-rule="evenodd" clip-rule="evenodd" fill="#A0A0A0" d="M13.166,102.045c0.093,0,0.186,0,0.279,0c0,0.929,0,1.858,0,2.787
	c-0.093,0-0.186,0-0.279,0C13.166,103.903,13.166,102.974,13.166,102.045z"/>
<path fill-rule="evenodd" clip-rule="evenodd" fill="#D1D1D1" d="M15.674,102.045c0.093,0,0.186,0,0.279,0c0,0.744,0,1.486,0,2.229
	c-0.093,0-0.186,0-0.279,0C15.674,103.531,15.674,102.789,15.674,102.045z"/>
<path fill-rule="evenodd" clip-rule="evenodd" fill="#A0A0A0" d="M15.674,104.274c0.093,0,0.186,0,0.279,0c0,0.558,0,1.114,0,1.673
	c-0.093,0-0.186,0-0.279,0C15.674,105.389,15.674,104.832,15.674,104.274z"/>
<path fill-rule="evenodd" clip-rule="evenodd" fill="#D1D1D1" d="M13.166,104.832c0.093,0,0.186,0,0.279,0
	c-0.152,0.404,0.326,1.44-0.279,1.394C13.166,105.761,13.166,105.297,13.166,104.832z"/>
<path fill-rule="evenodd" clip-rule="evenodd" fill="#303030" d="M67.236,105.11c0.464,0,0.929,0,1.394,0
	C68.755,105.566,67.11,105.566,67.236,105.11z"/>
<path fill-rule="evenodd" clip-rule="evenodd" fill="#303030" d="M52.186,115.981c0.12-0.624,1.373-0.113,1.95-0.28
	c0,0.094,0,0.187,0,0.28C53.487,115.981,52.836,115.981,52.186,115.981z"/>
<path fill-rule="evenodd" clip-rule="evenodd" fill="#6D6D6D" d="M54.136,115.981c0-0.094,0-0.187,0-0.28c0.65,0,1.301,0,1.951,0
	c0,0.094,0,0.187,0,0.28C55.437,115.981,54.787,115.981,54.136,115.981z"/>
<path fill-rule="evenodd" clip-rule="evenodd" fill="#A0A0A0" d="M56.087,115.981c0-0.094,0-0.187,0-0.28c1.858,0,3.716,0,5.574,0
	c0,0.094,0,0.187,0,0.28C59.804,115.981,57.945,115.981,56.087,115.981z"/>
<path fill-rule="evenodd" clip-rule="evenodd" fill="#303030" d="M44.103,116.26c0.121-0.623,1.374-0.113,1.952-0.278
	c0,0.092,0,0.185,0,0.278C45.403,116.26,44.753,116.26,44.103,116.26z"/>
<path fill-rule="evenodd" clip-rule="evenodd" fill="#6D6D6D" d="M46.054,116.26c0-0.094,0-0.187,0-0.278c0.557,0,1.115,0,1.672,0
	c0,0.092,0,0.185,0,0.278C47.169,116.26,46.611,116.26,46.054,116.26z"/>
<path fill-rule="evenodd" clip-rule="evenodd" fill="#A0A0A0" d="M47.727,116.26c0-0.094,0-0.187,0-0.278c0.65,0,1.3,0,1.951,0
	c0,0.092,0,0.185,0,0.278C49.027,116.26,48.376,116.26,47.727,116.26z"/>
<path fill-rule="evenodd" clip-rule="evenodd" fill="#D1D1D1" d="M49.678,116.26c0-0.094,0-0.187,0-0.278c0.464,0,0.929,0,1.393,0
	C51.118,116.585,50.082,116.106,49.678,116.26z"/>
<path fill-rule="evenodd" clip-rule="evenodd" fill="#D1D1D1" d="M55.809,118.489c1.306-0.464,4.546-0.464,5.853,0
	C59.711,118.489,57.76,118.489,55.809,118.489z"/>
<path fill-rule="evenodd" clip-rule="evenodd" fill="#D1D1D1" d="M48.005,118.768c-0.047-0.604,0.989-0.126,1.393-0.278
	c0,0.092,0,0.186,0,0.278C48.935,118.768,48.47,118.768,48.005,118.768z"/>
<path fill-rule="evenodd" clip-rule="evenodd" fill="#A0A0A0" d="M49.398,118.768c0-0.093,0-0.187,0-0.278c0.558,0,1.116,0,1.672,0
	c0,0.092,0,0.186,0,0.278C50.514,118.768,49.956,118.768,49.398,118.768z"/>
<path fill-rule="evenodd" clip-rule="evenodd" fill="#6D6D6D" d="M51.07,118.768c0-0.093,0-0.187,0-0.278c0.558,0,1.116,0,1.673,0
	c0,0.092,0,0.186,0,0.278C52.186,118.768,51.628,118.768,51.07,118.768z"/>
<path fill-rule="evenodd" clip-rule="evenodd" fill="#303030" d="M52.743,118.768c0-0.093,0-0.187,0-0.278c0.65,0,1.3,0,1.951,0
	C54.574,119.112,53.32,118.603,52.743,118.768z"/>
<path fill-rule="evenodd" clip-rule="evenodd" fill="#303030" d="M11.494,118.768c0,0.465,0,0.929,0,1.394
	C11.039,120.286,11.039,118.643,11.494,118.768z"/>
<path fill-rule="evenodd" clip-rule="evenodd" fill="#A0A0A0" d="M26.265,119.046c5.017-0.649,11.241-0.093,16.723-0.278
	c0,0.093,0,0.187,0,0.278C37.415,119.046,31.839,119.046,26.265,119.046z"/>
<path fill-rule="evenodd" clip-rule="evenodd" fill="#6D6D6D" d="M42.988,119.046c0-0.092,0-0.186,0-0.278c0.558,0,1.114,0,1.672,0
	c0,0.093,0,0.187,0,0.278C44.103,119.046,43.546,119.046,42.988,119.046z"/>
<path fill-rule="evenodd" clip-rule="evenodd" fill="#303030" d="M44.661,119.046c0-0.092,0-0.186,0-0.278c0.65,0,1.301,0,1.951,0
	C46.491,119.391,45.238,118.881,44.661,119.046z"/>
<path fill-rule="evenodd" clip-rule="evenodd" fill="#303030" d="M85.353,123.784c-0.491-0.16-1.639,0.338-1.673-0.278
	C84.17,123.666,85.317,123.169,85.353,123.784z"/>
<path fill-rule="evenodd" clip-rule="evenodd" fill="#303030" d="M83.402,126.293c0.576,0.166,1.831-0.345,1.951,0.279
	C84.776,126.405,83.522,126.917,83.402,126.293z"/>
<path fill-rule="evenodd" clip-rule="evenodd" fill="#D1D1D1" d="M106.813,134.653c0.558,0,1.114,0,1.673,0
	C108.53,135.111,106.767,135.111,106.813,134.653z"/>
<path fill-rule="evenodd" clip-rule="evenodd" fill="#A0A0A0" d="M68.351,6.726c0.252-0.492,0.624-0.864,1.115-1.115
	C69.214,6.102,68.842,6.474,68.351,6.726z"/>
<path fill-rule="evenodd" clip-rule="evenodd" fill="#6D6D6D" d="M60.547,98.7c0.183-0.931,0.866-1.363,1.114-2.229
	c0.89-0.239,0.862,0.438,1.394,0.557c-0.09,1.141-1.638,1.919-1.115,2.788C61.43,99.49,60.997,99.086,60.547,98.7z"/>
<path fill-rule="evenodd" clip-rule="evenodd" fill="#303030" d="M47.169,93.963c-0.676-0.44-1.232-0.997-1.672-1.673
	C46.172,92.729,46.729,93.286,47.169,93.963z"/>
<path fill-rule="evenodd" clip-rule="evenodd" fill="#D1D1D1" d="M5.083,54.664c0.552-0.562,1.11-1.12,1.672-1.672
	C6.359,53.709,6.103,54.569,5.083,54.664z"/>
<path fill-rule="evenodd" clip-rule="evenodd" fill="#303030" d="M22.642,120.997c0.252-0.491,0.624-0.863,1.115-1.114
	C23.505,120.373,23.134,120.745,22.642,120.997z"/>
<path fill-rule="evenodd" clip-rule="evenodd" fill="#D1D1D1" d="M96.78,131.311c1.088,0.397,1.831,1.14,2.229,2.229
	C98.174,132.888,97.627,131.948,96.78,131.311z"/>
<path fill-rule="evenodd" clip-rule="evenodd" fill="#6D6D6D" d="M99.008,133.54c0.492,0.251,0.863,0.623,1.115,1.113
	C99.633,134.402,99.26,134.03,99.008,133.54z"/>
<path fill-rule="evenodd" clip-rule="evenodd" fill="#A0A0A0" d="M128.274,60.517c0.252-0.491,0.623-0.863,1.113-1.115
	C129.137,59.893,128.764,60.265,128.274,60.517z"/>
<path fill-rule="evenodd" clip-rule="evenodd" fill="#303030" d="M133.569,11.464c-0.491-0.252-0.863-0.624-1.114-1.115
	C132.946,10.601,133.318,10.972,133.569,11.464z"/>
<path fill-rule="evenodd" clip-rule="evenodd" fill="#D1D1D1" d="M132.176,10.349c0.092,0,0.187,0,0.278,0
	c0.251,0.491,0.623,0.863,1.114,1.115c0,0.093,0,0.186,0,0.278C132.986,11.396,132.521,10.932,132.176,10.349z"/>
<path fill-rule="evenodd" clip-rule="evenodd" fill="#A0A0A0" d="M70.301,8.397c0.252-0.491,0.623-0.863,1.116-1.115
	C71.165,7.774,70.794,8.146,70.301,8.397z"/>
<path fill-rule="evenodd" clip-rule="evenodd" fill="#303030" d="M74.482,102.603c0.347-0.583,0.812-1.048,1.395-1.394
	C75.53,101.792,75.065,102.257,74.482,102.603z"/>
<path fill-rule="evenodd" clip-rule="evenodd" fill="#6D6D6D" d="M7.313,56.336c0.251-0.491,0.624-0.863,1.115-1.115
	C8.176,55.713,7.805,56.084,7.313,56.336z"/>
<path fill-rule="evenodd" clip-rule="evenodd" fill="#6D6D6D" d="M99.008,129.638c0.677,0.439,1.233,0.996,1.673,1.673
	C100.005,130.87,99.449,130.313,99.008,129.638z"/>
<path fill-rule="evenodd" clip-rule="evenodd" fill="#D1D1D1" d="M102.354,132.981c-1.021-0.095-1.276-0.954-1.673-1.671
	C101.366,131.74,101.791,132.429,102.354,132.981z"/>
<path fill-rule="evenodd" clip-rule="evenodd" fill="#A0A0A0" d="M126.323,58.845c0.252-0.491,0.623-0.863,1.115-1.115
	C127.186,58.221,126.813,58.593,126.323,58.845z"/>
<path fill-rule="evenodd" clip-rule="evenodd" fill="#6D6D6D" d="M130.503,12.3c0.491,0.252,0.863,0.624,1.114,1.115
	C131.126,13.163,130.756,12.791,130.503,12.3z"/>
<path fill-rule="evenodd" clip-rule="evenodd" fill="#6D6D6D" d="M81.45,3.381c0.121-0.623,1.375-0.113,1.952-0.279
	C83.282,3.726,82.027,3.215,81.45,3.381z"/>
<path fill-rule="evenodd" clip-rule="evenodd" fill="#6D6D6D" d="M108.764,4.496c-0.974-0.142-2.105-0.125-2.786-0.558
	c1.44-0.324,0.863-2.666,1.393-3.902c1.033-0.197,1.195,0.476,2.229,0.279C109.29,1.678,108.993,3.052,108.764,4.496z"/>
<path fill-rule="evenodd" clip-rule="evenodd" fill="#6D6D6D" d="M18.183,47.417c0.577,0.166,1.831-0.344,1.951,0.278
	c-0.65,0-1.301,0-1.951,0C18.183,47.604,18.183,47.511,18.183,47.417z"/>
<path fill-rule="evenodd" clip-rule="evenodd" fill="#6D6D6D" d="M23.478,48.812c0.465,0,0.93,0,1.394,0
	C24.998,49.266,23.353,49.266,23.478,48.812z"/>
<path fill-rule="evenodd" clip-rule="evenodd" fill="#6D6D6D" d="M16.232,50.483c0.086-0.378,0.698-0.231,1.115-0.279
	c0,0.094,0,0.187,0,0.279C16.975,50.483,16.604,50.483,16.232,50.483z"/>
<path fill-rule="evenodd" clip-rule="evenodd" fill="#6D6D6D" d="M84.515,54.664c-0.164,0.578,0.345,1.832-0.278,1.952
	C84.403,56.038,83.892,54.784,84.515,54.664z"/>
<path fill-rule="evenodd" clip-rule="evenodd" fill="#6D6D6D" d="M124.652,66.927c0.603-0.047,0.124,0.989,0.278,1.394
	C124.325,68.368,124.804,67.333,124.652,66.927z"/>
<path fill-rule="evenodd" clip-rule="evenodd" fill="#6D6D6D" d="M51.907,69.157c-0.172,0.756,0.354,2.212-0.279,2.509
	C51.801,70.908,51.274,69.454,51.907,69.157z"/>
<path fill-rule="evenodd" clip-rule="evenodd" fill="#6D6D6D" d="M127.716,69.714c0.615,0.035,0.119,1.182,0.279,1.673
	C127.38,71.353,127.877,70.204,127.716,69.714z"/>
<path fill-rule="evenodd" clip-rule="evenodd" fill="#6D6D6D" d="M127.996,71.944c0.614,0.035,0.118,1.182,0.278,1.672
	C127.659,73.582,128.156,72.434,127.996,71.944z"/>
<path fill-rule="evenodd" clip-rule="evenodd" fill="#6D6D6D" d="M128.274,74.174c0.615,0.035,0.118,1.183,0.278,1.672
	C127.937,75.812,128.434,74.664,128.274,74.174z"/>
<path fill-rule="evenodd" clip-rule="evenodd" fill="#6D6D6D" d="M128.552,76.403c0.615,0.035,0.118,1.183,0.278,1.672
	C128.215,78.041,128.712,76.894,128.552,76.403z"/>
<path fill-rule="evenodd" clip-rule="evenodd" fill="#6D6D6D" d="M126.044,78.075c0.614,0.035,0.118,1.183,0.278,1.672
	C125.708,79.714,126.205,78.565,126.044,78.075z"/>
<path fill-rule="evenodd" clip-rule="evenodd" fill="#6D6D6D" d="M7.034,78.355c0.633,0.295,0.106,1.751,0.279,2.508
	C6.681,80.565,7.207,79.11,7.034,78.355z"/>
<path fill-rule="evenodd" clip-rule="evenodd" fill="#6D6D6D" d="M126.323,80.306c0.617,0.035,0.118,1.182,0.278,1.672
	C125.986,81.943,126.483,80.795,126.323,80.306z"/>
<path fill-rule="evenodd" clip-rule="evenodd" fill="#6D6D6D" d="M129.387,83.372c0.617,0.033,0.121,1.182,0.281,1.671
	C129.051,85.009,129.548,83.861,129.387,83.372z"/>
<path fill-rule="evenodd" clip-rule="evenodd" fill="#6D6D6D" d="M126.881,85.043c0.604-0.047,0.124,0.989,0.278,1.394
	c-0.094,0-0.187,0-0.278,0C126.881,85.973,126.881,85.508,126.881,85.043z"/>
<path fill-rule="evenodd" clip-rule="evenodd" fill="#A0A0A0" d="M127.16,89.225c-0.16,0.49,0.337,1.637-0.278,1.672
	c0-0.558,0-1.115,0-1.672C126.973,89.225,127.066,89.225,127.16,89.225z"/>
<path fill-rule="evenodd" clip-rule="evenodd" fill="#6D6D6D" d="M10.658,90.896c0.558,0.371,0.621,1.237,0.836,1.951
	c-1.006,0.108-1.859,0.37-2.508,0.837c-0.487-0.258-0.615-0.872-0.557-1.673C9.344,91.812,10.525,91.879,10.658,90.896z"/>
<path fill-rule="evenodd" clip-rule="evenodd" fill="#6D6D6D" d="M14.002,91.732c-0.415-0.236-0.404-0.897-0.558-1.394
	c1.162,0.025,2.346-1.555,3.066-0.279C16.682,91.626,14.905,91.242,14.002,91.732z"/>
<path fill-rule="evenodd" clip-rule="evenodd" fill="#6D6D6D" d="M129.668,90.896c-0.167,0.577,0.345,1.831-0.281,1.951
	C129.554,92.27,129.045,91.017,129.668,90.896z"/>
<path fill-rule="evenodd" clip-rule="evenodd" fill="#6D6D6D" d="M58.875,100.931c0.63,0.297,1.226,0.632,1.672,1.114
	c-1.28,0.25-1.095,2.668-2.788,1.672C57.125,102.736,58.814,102.101,58.875,100.931z"/>
<path fill-rule="evenodd" clip-rule="evenodd" fill="#6D6D6D" d="M66.957,102.324c0.65,0,1.301,0,1.952,0
	C68.871,102.782,66.995,102.782,66.957,102.324z"/>
<path fill-rule="evenodd" clip-rule="evenodd" fill="#6D6D6D" d="M15.953,105.947c-0.166,0.577,0.344,1.831-0.279,1.95
	c0-0.65,0-1.301,0-1.95C15.768,105.947,15.86,105.947,15.953,105.947z"/>
<path fill-rule="evenodd" clip-rule="evenodd" fill="#6D6D6D" d="M13.166,106.783c-0.166,0.577,0.345,1.83-0.278,1.95
	C13.053,108.156,12.543,106.902,13.166,106.783z"/>
<path fill-rule="evenodd" clip-rule="evenodd" fill="#6D6D6D" d="M15.674,108.733c-0.16,0.49,0.337,1.638-0.278,1.672
	C15.556,109.917,15.059,108.769,15.674,108.733z"/>
<path fill-rule="evenodd" clip-rule="evenodd" fill="#6D6D6D" d="M61.662,115.701c0.49,0.161,1.638-0.336,1.672,0.28
	c-0.557,0-1.115,0-1.672,0C61.662,115.888,61.662,115.795,61.662,115.701z"/>
<path fill-rule="evenodd" clip-rule="evenodd" fill="#6D6D6D" d="M117.125,124.342c-0.402,0.525-0.408,1.448-1.113,1.672
	c0-0.092,0-0.185,0-0.278c-0.491-0.918-3.077-1.057-1.673-2.229C115.278,122.676,116.121,124.313,117.125,124.342z"/>
<path fill-rule="evenodd" clip-rule="evenodd" fill="#303030" d="M16.232,126.572c0.557,0,1.115,0,1.672,0
	C17.95,127.028,16.186,127.028,16.232,126.572z"/>
<path fill-rule="evenodd" clip-rule="evenodd" fill="#FFFFFF" d="M69.465,5.611c2.566-2.63,7.461-4.687,12.822-5.017
	c1.949,0,3.9,0,5.852,0c6.223,0.838,11.937,2.185,17.839,3.345c0.681,0.432,1.813,0.416,2.786,0.558
	c5.237,0.966,11.372,2.077,17.001,3.345c2.499,0.563,5.083,0.843,6.411,2.508c0.345,0.583,0.81,1.047,1.393,1.393
	c0.934,0.46,1.246,1.542,1.395,2.788c0,1.393,0,2.787,0,4.181c0,0.464,0,0.929,0,1.393c0,0.651,0,1.301,0,1.951
	c0,5.667,0,11.334,0,17.001c0.086,2.731-0.061,7.274,0,10.87c0,0.743,0,1.486,0,2.23c0.092,3.706-2.913,5.825-5.576,7.246
	c-0.49,0.252-0.861,0.624-1.113,1.115c0.012,0.478-0.206,0.722-0.558,0.836c-1.035,2.617-0.092,5.358,0,8.361
	c0.161,0.49-0.336,1.638,0.279,1.673c0,0.185,0,0.37,0,0.557c0.16,0.489-0.337,1.638,0.278,1.672c0,0.187,0,0.371,0,0.558
	c0.16,0.49-0.337,1.638,0.278,1.672c0,0.187,0,0.372,0,0.558c0.16,0.49-0.337,1.638,0.278,1.672
	c0.215,1.738,0.609,3.294,0.557,5.297c0.161,0.489-0.336,1.637,0.281,1.671c0,0.372,0,0.744,0,1.115c0,1.115,0,2.229,0,3.345
	c0,0.465,0,0.929,0,1.394c-0.623,0.12-0.114,1.373-0.281,1.951c-0.326,2.99-0.597,5.315-1.392,7.524
	c-1.032,2.868-3.046,4.575-3.344,8.361c-0.638,0.387-0.104,1.94-0.28,2.788c0.132,1.887-0.84,3.639-1.393,5.573
	c-0.978,3.411-1.379,6.088-3.346,8.361c-0.509,0.42-0.655,1.203-1.114,1.673c-0.25,1.385-1.462,2.641-2.229,3.901
	c-0.276,0.454-0.311,0.978-0.558,1.394c-1.426,2.393-2.63,4.455-6.132,4.738c-1.208,0-2.416,0-3.622,0
	c-2.616-0.172-4.428-1.147-5.854-2.509c-0.252-0.49-0.623-0.862-1.115-1.113c-0.397-1.09-1.141-1.832-2.229-2.229
	c-2.948-2.441-6.928-3.85-11.427-4.738c-0.12-0.624-1.375-0.113-1.951-0.279c-1.731-0.044-3.142-0.619-4.46-1.394
	c-0.655-0.385-1.094-0.963-1.673-1.394c-0.284-0.211-0.768-0.261-1.114-0.558c-0.559-0.479-1.462-1.493-2.508-1.951
	c-1.861-0.813-3.888-0.954-5.854-1.394c-1.794-0.401-3.822-0.842-6.132-1.114c-1.307-0.464-4.546-0.464-5.853,0
	c-0.372,0-0.743,0-1.115,0c-0.651,0-1.301,0-1.951,0c-0.557,0-1.115,0-1.673,0c-0.557,0-1.114,0-1.672,0
	c-0.404,0.152-1.44-0.326-1.393,0.278c-0.464,0-0.929,0-1.394,0c-0.65,0-1.301,0-1.951,0c-0.558,0-1.115,0-1.672,0
	c-5.482,0.186-11.706-0.371-16.723,0.278c-1.092,0.022-1.738,0.492-2.508,0.837c-0.492,0.251-0.863,0.623-1.115,1.114
	c-0.694,2.743-1.506,5.369-4.738,5.575c-0.558,0-1.115,0-1.672,0c-0.372,0-0.743,0-1.115,0c-2.066-1.278-3.494-3.195-3.623-6.411
	c0-0.465,0-0.929,0-1.394c0.097-3.713,1.025-6.593,1.394-10.034c0.623-0.12,0.113-1.373,0.278-1.95c0-0.187,0-0.371,0-0.558
	c0.604,0.047,0.126-0.989,0.279-1.394c0-0.929,0-1.858,0-2.787c-0.023-0.441,0.134-1.063-0.279-1.114
	c-0.358-2.895-1.008-5.496-1.672-8.083c-0.215-0.714-0.278-1.58-0.836-1.951c-0.956-3.503-3.022-5.897-3.345-10.033
	c-0.173-0.757,0.354-2.213-0.279-2.508c-0.196-0.817-0.343-2.353-0.836-3.346c-0.223-0.45-0.838-0.872-1.115-1.394
	c-0.568-1.073-0.874-2.337-1.394-3.345c-1.238-2.396-2.901-4.079-3.345-6.967c0-0.836,0-1.672,0-2.508
	c0.007-3.617,2.678-4.568,4.738-6.132c1.02-0.095,1.275-0.954,1.672-1.672c2.375-2.828,5.044-5.361,10.313-5.296
	c0.372,0,0.743,0,1.115,0c0.65,0,1.3,0,1.951,0c1.549-0.062,2.12,0.853,3.344,1.116c-0.125,0.455,1.52,0.455,1.394,0
	c0.715-0.364,2.158-1.155,3.345-1.116c0.811,0.027,1.978,0.886,3.344,1.394c1.093,0.407,2.296,0.707,3.345,1.114
	c2.125,0.828,4.541,1.767,6.41,2.509c4.582,1.818,9.802,3.563,11.148,6.968c0.114,0.289,0.377,0.599,0.279,1.115
	c0,1.115,0,2.229,0,3.345c-0.09,1.86-0.746,3.156-0.836,5.016c-0.632,0.297-0.106,1.751-0.279,2.509
	c-0.068,3.522-2.625,5.731-4.459,8.918c-0.669,1.163-1.306,2.481-1.951,3.623c-0.869,1.539-1.688,2.676-1.672,3.901
	c0.022,1.817,1.103,2.689,1.951,4.182c0.44,0.676,0.997,1.232,1.672,1.673c1.322,0.838,4.442,1.272,6.41,1.672
	c2.692,0.546,4.679,1.773,6.968,3.065c0.45,0.386,0.882,0.79,1.393,1.115c1.757,0.751,3.036,1.98,5.017,2.509
	c0.038,0.458,1.914,0.458,1.952,0c1.561-0.241,2.793-1.226,3.9-2.23c1.074-0.974,2.148-2.08,2.789-3.345
	c1.389-2.748,1.699-6.394,2.229-10.033c1.431-9.812,5.047-20.98,6.409-30.101c0.623-0.12,0.114-1.374,0.278-1.952
	c0.028-2.152-0.486-4.195-1.113-5.852c-0.183-0.481-0.112-1.037-0.279-1.394c-0.348-0.746-0.979-1.214-1.394-1.951
	c-0.808-1.438-1.435-3.055-2.23-4.459c-0.372-0.66-0.968-1.246-1.392-1.951c-0.855-1.419-1.549-2.653-2.509-4.181
	c-0.2-0.316-0.33-0.76-0.559-1.114c-1.703-2.664-4.025-6.16-5.853-9.198c-0.831-1.38-1.669-2.843-2.508-4.181
	c-1.041-1.659-2.116-2.811-2.23-4.738c0-0.65,0-1.301,0-1.951c0.509-3.114,2.149-5.098,3.902-6.967
	C68.842,6.474,69.214,6.102,69.465,5.611z M83.958,3.102c-0.187,0-0.371,0-0.557,0c-0.577,0.166-1.831-0.344-1.952,0.279
	c-2.067,0.575-3.935,0.738-5.573,1.393c-1.61,0.643-2.873,1.946-4.459,2.508c-0.493,0.252-0.864,0.624-1.116,1.115
	c-0.785,1.555-2.141,2.904-2.786,4.46c-1.133,2.733,0.792,4.459,1.672,6.41c0.044,0.097,0.491,0.165,0.558,0.278
	c0.642,1.11,1.153,2.458,1.673,3.345c1.765,3.02,3.62,5.593,5.017,7.804c0.913,1.447,1.893,3.096,2.508,4.46
	c0.042,0.092,0.489,0.172,0.557,0.278c0.203,0.313,0.359,0.787,0.56,1.115c1.312,2.156,2.534,4.235,3.622,6.132
	c1.603,2.793,3.262,5.604,3.346,9.197c0,1.3,0,2.601,0,3.902c-0.657,7.245-2.927,15.253-4.46,21.739
	c-1.238,5.232-1.769,11.785-3.067,16.444c-0.865,3.104-1.861,5.274-3.622,7.246c-0.583,0.346-1.048,0.811-1.395,1.394
	c-1.582,1.205-3.141,2.433-5.852,2.508c-0.465,0-0.93,0-1.394,0c-3.04-0.211-4.77-1.732-6.688-3.065
	c-0.447-0.482-1.042-0.817-1.672-1.114c-1.8-0.48-3.015-1.926-5.017-2.509c-0.993-0.29-2.243-0.357-3.344-0.558
	c-1.167-0.212-2.311-0.195-3.345-0.558c-1.771-0.619-3.78-3.021-4.738-4.459c-0.833-1.251-1.399-2.158-1.394-3.623
	c0-0.837,0-1.673,0-2.509c0.22-2.827,2.149-4.41,3.065-6.132c0.476-0.892,0.741-1.906,1.116-2.509
	c0.794-1.278,1.864-2.621,2.508-3.623c0.881-1.37,1.395-3.013,1.393-5.016c0.629-0.208,0.109-1.564,0.278-2.23
	c0.03-1.643,0.503-2.842,0.836-4.181c0.456,0.126,0.456-1.519,0-1.393c-0.511-2.39-3.539-3.676-6.132-4.459
	c-0.102-0.031-0.417-0.5-0.557-0.557c-2.619-1.084-5.267-2.021-7.804-2.787c-0.103-0.032-0.417-0.502-0.557-0.558
	c-0.242-0.095-0.587,0.075-0.836,0c-0.103-0.031-0.416-0.502-0.558-0.558c-0.931-0.361-2.051-0.446-3.065-0.836
	c-0.994-0.382-1.765-1.095-2.788-1.115c-0.791-0.016-1.512,0.401-2.229,0.558c-3.055,0.667-4.559-0.538-6.968-1.116
	c-0.464,0-0.929,0-1.394,0c-0.417,0.048-1.029-0.099-1.115,0.279c-3.717,0.463-5.906,2.455-7.804,4.738
	c-0.492,0.252-0.864,0.624-1.115,1.115c-1.259,1.727-3.504,1.835-4.181,3.624c-0.185,0.489-0.306,1.691-0.279,2.229
	c0.048,0.94,0.776,2.425,1.394,3.624c0.562,1.09,1.372,1.939,1.951,3.065c0.297,0.578,0.279,1.377,0.558,1.951
	c0.261,0.539,0.828,0.865,1.115,1.394c0.911,1.675,1.679,3.065,1.672,4.46c0.175,0.846-0.357,2.399,0.278,2.786
	c0.532,4.3,2.594,7.069,3.624,10.87c0.154,0.496,0.143,1.157,0.558,1.394c0.736,2.329,1.649,4.483,1.672,7.525
	c0,0.929,0,1.858,0,2.787c0,0.744,0,1.486,0,2.229c0,0.558,0,1.114,0,1.673c0,0.649,0,1.3,0,1.95c0,0.279,0,0.558,0,0.836
	c-0.616,0.035-0.118,1.184-0.278,1.672c-0.08,2.802-0.705,5.057-1.115,7.526c-0.459,0.038-0.459,1.913,0,1.951
	c0.11,1.84,0.761,3.142,1.951,3.901c-0.046,0.458,1.718,0.458,1.672,0c0.551-0.497,1.244-0.816,1.393-1.115
	c0.149-0.298-0.143-0.812,0-1.114c1.209-2.556,2.312-4.524,5.296-5.017c6.039-0.186,12.821,0.371,18.395-0.278
	c0.371,0,0.743,0,1.114,0c0.651,0,1.301,0,1.952,0c0.557,0,1.115,0,1.672,0c0.65,0,1.3,0,1.951,0
	c0.404-0.153,1.44,0.325,1.393-0.278c0.373,0,0.744,0,1.116,0c0.65,0,1.301,0,1.95,0c0.65,0,1.301,0,1.951,0
	c1.858,0,3.716,0,5.574,0c0.558,0,1.115,0,1.672,0c2.428,0.012,4.459,0.661,6.411,1.113c1.993,0.463,4.076,0.737,5.854,1.673
	c2.685,1.415,4.582,4.635,8.082,4.738c0.034,0.616,1.182,0.118,1.673,0.278c2.508-0.132,3.965,0.801,5.573,1.394
	c3.29,1.213,6.2,2.118,8.082,4.46c0.44,0.675,0.997,1.232,1.673,1.673c0.396,0.717,0.652,1.576,1.673,1.671
	c1.256,0.789,2.927,1.161,4.459,1.672c-0.046,0.458,1.717,0.458,1.673,0c2.934-0.227,3.584-1.922,4.46-3.623
	c0.218-0.427,0.639-0.493,0.835-0.836c0.213-0.369,0.074-0.753,0.279-1.114c0.166-0.296,0.679-0.562,0.835-0.836
	c0.471-0.82,0.633-1.651,1.116-2.23c0.705-0.224,0.711-1.146,1.113-1.672c2.488-3.922,3.654-9.166,4.738-14.493
	c0.637-0.387,0.104-1.939,0.28-2.787c0.154-2.101,0.705-3.06,1.393-4.459c0.459-0.935,1.305-1.826,1.673-2.787
	c0.886-2.313,1.166-6.102,1.673-8.919c0.615-0.035,0.118-1.182,0.278-1.672c0-0.93,0-1.859,0-2.788
	c-0.154-0.404,0.325-1.44-0.278-1.394c-0.139-0.978-0.417-1.813-0.28-3.065c-0.16-0.49,0.339-1.637-0.278-1.672
	c0-0.187,0-0.372,0-0.559c-0.16-0.489,0.336-1.637-0.278-1.672c-0.396-3.229-0.982-6.266-1.114-9.754
	c-0.154-0.405,0.324-1.441-0.278-1.394c0-0.186,0-0.372,0-0.558c0-1.3,0-2.602,0-3.902c0.04-1.725,0.731-2.797,1.671-3.623
	c0.49-0.252,0.863-0.624,1.115-1.115c1.499-2.031,4.729-2.332,4.738-5.853c0.604,0.047,0.126-0.989,0.278-1.394
	c0-5.667,0-11.334,0-17.001c0-3.996,0-7.99,0-11.985c0-0.372,0-0.743,0-1.115c0.605,0.047,0.127-0.988,0.278-1.393
	c-0.174-0.848,0.357-2.401-0.278-2.787c-0.104-1.104-0.393-2.024-0.837-2.788c-0.251-0.491-0.623-0.863-1.114-1.115
	c-6.253-2.76-14.897-3.127-22.018-5.017c-0.553-0.471-1.74-0.304-2.508-0.557c-6.52-1.101-12.729-2.509-19.232-3.624
	C86.445,2.641,84.259,2.641,83.958,3.102z"/>
<path fill-rule="evenodd" clip-rule="evenodd" fill="#D1D1D1" d="M134.963,14.53c0.643,0.843,0.098,2.875,0.278,4.181
	c-0.092,0-0.187,0-0.278,0C134.963,17.317,134.963,15.923,134.963,14.53z"/>
<path fill-rule="evenodd" clip-rule="evenodd" fill="#D1D1D1" d="M9.543,76.683c0.636,0.387,0.104,1.939,0.278,2.786
	C9.186,79.082,9.718,77.528,9.543,76.683z"/>
<path fill-rule="evenodd" clip-rule="evenodd" fill="#D1D1D1" d="M122.143,107.062c-0.176,0.848,0.356,2.4-0.28,2.787
	C122.04,109.002,121.506,107.448,122.143,107.062z"/>
<path fill-rule="evenodd" clip-rule="evenodd" fill="#D1D1D1" d="M24.593,116.538c5.575-0.65,12.356-0.094,18.395-0.278
	C37.414,116.909,30.632,116.353,24.593,116.538z"/>
<path fill-rule="evenodd" clip-rule="evenodd" fill="#A0A0A0" d="M82.288,0.594c1.307-0.463,4.546-0.463,5.852,0
	C86.188,0.594,84.237,0.594,82.288,0.594z"/>
<path fill-rule="evenodd" clip-rule="evenodd" fill="#6D6D6D" d="M105.978,6.726c0.768,0.253,1.955,0.086,2.508,0.557
	c-1.282,1.058,0.049,5.267-3.067,3.624C105.066,10.078,106.028,8.178,105.978,6.726z"/>
<path fill-rule="evenodd" clip-rule="evenodd" fill="#A0A0A0" d="M52.743,60.796c0.462,0.48,0.462,2.864,0,3.345
	C52.743,63.025,52.743,61.911,52.743,60.796z"/>
<path fill-rule="evenodd" clip-rule="evenodd" fill="#A0A0A0" d="M49.398,67.206c-0.169,0.666,0.351,2.022-0.278,2.23
	C49.29,68.77,48.77,67.414,49.398,67.206z"/>
<path fill-rule="evenodd" clip-rule="evenodd" fill="#6D6D6D" d="M15.674,99.258c0.636,0.387,0.104,1.94,0.279,2.787
	c-0.093,0-0.186,0-0.279,0C15.674,101.116,15.674,100.187,15.674,99.258z"/>
<path fill-rule="evenodd" clip-rule="evenodd" fill="#6D6D6D" d="M124.652,108.733c-0.177,0.848,0.356,2.401-0.28,2.788
	C124.547,110.674,124.014,109.12,124.652,108.733z"/>
<path fill-rule="evenodd" clip-rule="evenodd" fill="#6D6D6D" d="M14.281,117.932c0,0.649,0,1.301,0,1.951
	C13.822,119.845,13.822,117.97,14.281,117.932z"/>
<path fill-rule="evenodd" clip-rule="evenodd" fill="#6D6D6D" d="M119.633,125.456c0.19,1.111,1.398,1.205,2.229,1.673
	c-0.118,0.531-0.599,0.7-0.557,1.394c-1.2-0.192-1.711-1.075-2.787-1.394C118.978,126.659,119.125,125.876,119.633,125.456z"/>
<path fill-rule="evenodd" clip-rule="evenodd" fill="#A0A0A0" d="M105.978,137.162c1.206,0,2.414,0,3.622,0
	C109.029,137.625,106.548,137.625,105.978,137.162z"/>
<path fill-rule="evenodd" clip-rule="evenodd" fill="#6D6D6D" d="M64.449,13.693c0,0.65,0,1.301,0,1.951
	C63.99,15.606,63.99,13.731,64.449,13.693z"/>
<path fill-rule="evenodd" clip-rule="evenodd" fill="#6D6D6D" d="M87.026,51.877c0.461,0.663,0.461,3.239,0,3.902
	C87.026,54.478,87.026,53.177,87.026,51.877z"/>
<path fill-rule="evenodd" clip-rule="evenodd" fill="#6D6D6D" d="M0.345,60.796c0,0.836,0,1.672,0,2.508
	C-0.115,63.093-0.115,61.007,0.345,60.796z"/>
<path fill-rule="evenodd" clip-rule="evenodd" fill="#6D6D6D" d="M124.652,62.468c0,1.3,0,2.602,0,3.902
	C124.189,65.707,124.189,63.131,124.652,62.468z"/>
<path fill-rule="evenodd" clip-rule="evenodd" fill="#6D6D6D" d="M41.037,86.716c0,0.836,0,1.672,0,2.509
	C40.576,89.014,40.576,86.928,41.037,86.716z"/>
<path fill-rule="evenodd" clip-rule="evenodd" fill="#303030" d="M16.232,123.784c0.557,0,1.115,0,1.672,0
	C17.95,124.242,16.186,124.242,16.232,123.784z"/>
</svg>
