<?xml version="1.0" encoding="utf-8"?>
<!-- Generator: Adobe Illustrator 15.0.0, SVG Export Plug-In  -->
<!DOCTYPE svg PUBLIC "-//W3C//DTD SVG 1.1//EN" "http://www.w3.org/Graphics/SVG/1.1/DTD/svg11.dtd" [
	<!ENTITY ns_flows "http://ns.adobe.com/Flows/1.0/">
]>
<svg version="1.1"
	 xmlns="http://www.w3.org/2000/svg" xmlns:xlink="http://www.w3.org/1999/xlink" xmlns:a="http://ns.adobe.com/AdobeSVGViewerExtensions/3.0/"
	 x="0px" y="0px" width="142px" height="142px" viewBox="-3.278 0.175 142 142" enable-background="new -3.278 0.175 142 142"
	 xml:space="preserve">
<defs>
</defs>
<path fill-rule="evenodd" clip-rule="evenodd" fill="#D1D1D1" d="M83.958,5.314c0.301-0.461,2.486-0.461,2.787,0
	C85.818,5.314,84.888,5.314,83.958,5.314z"/>
<path fill-rule="evenodd" clip-rule="evenodd" fill="#9F9F9F" d="M132.455,18.135c0.638,0.478,0.103,2.128,0.278,3.066
	c-0.092,0-0.186,0-0.278,0C132.455,20.179,132.455,19.158,132.455,18.135z"/>
<path fill-rule="evenodd" clip-rule="evenodd" fill="#9F9F9F" d="M134.963,20.923c0.092,0,0.187,0,0.278,0c0,0.464,0,0.929,0,1.393
	c-0.092,0-0.187,0-0.278,0C134.963,21.852,134.963,21.387,134.963,20.923z"/>
<path fill-rule="evenodd" clip-rule="evenodd" fill="#D1D1D1" d="M132.455,21.202c0.093,0,0.187,0,0.278,0
	c-0.151,0.405,0.327,1.44-0.278,1.393C132.455,22.13,132.455,21.666,132.455,21.202z"/>
<path fill-rule="evenodd" clip-rule="evenodd" fill="#6D6D6D" d="M134.963,22.316c0.092,0,0.187,0,0.278,0c0,0.651,0,1.301,0,1.951
	c-0.092,0-0.187,0-0.278,0C134.963,23.617,134.963,22.967,134.963,22.316z"/>
<path fill-rule="evenodd" clip-rule="evenodd" fill="#303030" d="M134.963,24.267c0.092,0,0.187,0,0.278,0
	c-0.187,5.575,0.37,11.891-0.278,17.001C134.963,35.602,134.963,29.935,134.963,24.267z"/>
<path fill-rule="evenodd" clip-rule="evenodd" fill="#6D6D6D" d="M132.176,36.809c0.092,0,0.187,0,0.278,0
	c0,5.295,0,10.591,0,15.887c-0.092,0-0.187,0-0.278,0C132.176,47.4,132.176,42.104,132.176,36.809z"/>
<path fill-rule="evenodd" clip-rule="evenodd" fill="#303030" d="M17.068,49.908c0.051-0.413,0.673-0.255,1.115-0.278
	c0,0.093,0,0.186,0,0.278C17.812,49.908,17.44,49.908,17.068,49.908z"/>
<path fill-rule="evenodd" clip-rule="evenodd" fill="#303030" d="M27.38,50.188c-0.199-0.452,1.314-0.452,1.115,0
	C28.124,50.188,27.752,50.188,27.38,50.188z"/>
<path fill-rule="evenodd" clip-rule="evenodd" fill="#303030" d="M134.963,52.138c0.459,0.124,0.459,2.106,0,2.23
	C134.963,53.625,134.963,52.881,134.963,52.138z"/>
<path fill-rule="evenodd" clip-rule="evenodd" fill="#303030" d="M17.347,52.696c0-0.093,0-0.186,0-0.279
	c0.756,0.173,2.212-0.354,2.508,0.279C19.019,52.696,18.183,52.696,17.347,52.696z"/>
<path fill-rule="evenodd" clip-rule="evenodd" fill="#303030" d="M132.176,52.696c0.092,0,0.187,0,0.278,0
	c-0.152,0.405,0.325,1.44-0.278,1.394C132.176,53.625,132.176,53.16,132.176,52.696z"/>
<path fill-rule="evenodd" clip-rule="evenodd" fill="#303030" d="M84.237,54.368c0.413,0.051,0.257,0.673,0.278,1.115
	C84.103,55.431,84.261,54.809,84.237,54.368z"/>
<path fill-rule="evenodd" clip-rule="evenodd" fill="#D1D1D1" d="M50.234,63.844c0.456-0.125,0.456,1.52,0,1.393
	C50.234,64.773,50.234,64.309,50.234,63.844z"/>
<path fill-rule="evenodd" clip-rule="evenodd" fill="#303030" d="M129.668,88.371c0.46,0.48,0.46,2.864,0,3.345
	C129.668,90.6,129.668,89.486,129.668,88.371z"/>
<path fill-rule="evenodd" clip-rule="evenodd" fill="#303030" d="M126.881,88.649c0.092,0,0.185,0,0.278,0c0,0.929,0,1.858,0,2.788
	c-0.094,0-0.187,0-0.278,0C126.881,90.507,126.881,89.578,126.881,88.649z"/>
<path fill-rule="evenodd" clip-rule="evenodd" fill="#9F9F9F" d="M13.166,103.978c0.64,0.568,0.101,2.315,0.279,3.345
	c-0.093,0-0.186,0-0.279,0C13.166,106.208,13.166,105.093,13.166,103.978z"/>
<path fill-rule="evenodd" clip-rule="evenodd" fill="#D1D1D1" d="M15.674,104.257c0.093,0,0.186,0,0.279,0c0,0.744,0,1.486,0,2.229
	c-0.093,0-0.186,0-0.279,0C15.674,105.744,15.674,105.001,15.674,104.257z"/>
<path fill-rule="evenodd" clip-rule="evenodd" fill="#9F9F9F" d="M15.674,106.487c0.093,0,0.186,0,0.279,0c0,0.558,0,1.114,0,1.673
	c-0.093,0-0.186,0-0.279,0C15.674,107.601,15.674,107.044,15.674,106.487z"/>
<path fill-rule="evenodd" clip-rule="evenodd" fill="#D1D1D1" d="M13.166,107.323c0.093,0,0.186,0,0.279,0
	c-0.047,0.417,0.1,1.029-0.279,1.115C13.166,108.066,13.166,107.695,13.166,107.323z"/>
<path fill-rule="evenodd" clip-rule="evenodd" fill="#303030" d="M67.236,107.323c0.464,0,0.929,0,1.394,0
	C68.755,107.779,67.11,107.779,67.236,107.323z"/>
<path fill-rule="evenodd" clip-rule="evenodd" fill="#303030" d="M52.464,118.194c0.12-0.624,1.374-0.113,1.951-0.28
	c0,0.094,0,0.187,0,0.28C53.765,118.194,53.115,118.194,52.464,118.194z"/>
<path fill-rule="evenodd" clip-rule="evenodd" fill="#6D6D6D" d="M54.415,118.194c0-0.094,0-0.187,0-0.28c0.558,0,1.115,0,1.672,0
	c0,0.094,0,0.187,0,0.28C55.53,118.194,54.973,118.194,54.415,118.194z"/>
<path fill-rule="evenodd" clip-rule="evenodd" fill="#9F9F9F" d="M56.087,118.194c0-0.094,0-0.187,0-0.28c1.858,0,3.716,0,5.574,0
	c0,0.094,0,0.187,0,0.28C59.804,118.194,57.945,118.194,56.087,118.194z"/>
<path fill-rule="evenodd" clip-rule="evenodd" fill="#303030" d="M44.382,118.472c0.12-0.623,1.374-0.113,1.951-0.278
	c0,0.092,0,0.185,0,0.278C45.683,118.472,45.032,118.472,44.382,118.472z"/>
<path fill-rule="evenodd" clip-rule="evenodd" fill="#6D6D6D" d="M46.333,118.472c0-0.094,0-0.187,0-0.278c0.558,0,1.115,0,1.672,0
	c0,0.092,0,0.185,0,0.278C47.448,118.472,46.89,118.472,46.333,118.472z"/>
<path fill-rule="evenodd" clip-rule="evenodd" fill="#9F9F9F" d="M48.005,118.472c0-0.094,0-0.187,0-0.278c0.465,0,0.93,0,1.393,0
	c0,0.092,0,0.185,0,0.278C48.935,118.472,48.47,118.472,48.005,118.472z"/>
<path fill-rule="evenodd" clip-rule="evenodd" fill="#D1D1D1" d="M49.398,118.472c0-0.094,0-0.187,0-0.278c0.651,0,1.301,0,1.952,0
	C51.229,118.817,49.976,118.305,49.398,118.472z"/>
<path fill-rule="evenodd" clip-rule="evenodd" fill="#D1D1D1" d="M55.809,120.702c1.306-0.464,4.546-0.464,5.853,0
	C59.711,120.702,57.76,120.702,55.809,120.702z"/>
<path fill-rule="evenodd" clip-rule="evenodd" fill="#D1D1D1" d="M47.727,120.98c0.034-0.616,1.182-0.119,1.671-0.278
	c0,0.092,0,0.186,0,0.278C48.841,120.98,48.284,120.98,47.727,120.98z"/>
<path fill-rule="evenodd" clip-rule="evenodd" fill="#9F9F9F" d="M49.398,120.98c0-0.093,0-0.187,0-0.278c0.558,0,1.116,0,1.672,0
	c0,0.092,0,0.186,0,0.278C50.514,120.98,49.956,120.98,49.398,120.98z"/>
<path fill-rule="evenodd" clip-rule="evenodd" fill="#6D6D6D" d="M51.07,120.98c0-0.093,0-0.187,0-0.278c0.558,0,1.116,0,1.673,0
	c0,0.092,0,0.186,0,0.278C52.186,120.98,51.628,120.98,51.07,120.98z"/>
<path fill-rule="evenodd" clip-rule="evenodd" fill="#303030" d="M52.743,120.98c0-0.093,0-0.187,0-0.278c0.65,0,1.3,0,1.951,0
	C54.574,121.325,53.32,120.815,52.743,120.98z"/>
<path fill-rule="evenodd" clip-rule="evenodd" fill="#303030" d="M11.494,120.98c0,0.372,0,0.743,0,1.115
	C11.042,122.294,11.042,120.781,11.494,120.98z"/>
<path fill-rule="evenodd" clip-rule="evenodd" fill="#9F9F9F" d="M26.265,121.258c4.925-0.648,11.056-0.093,16.444-0.278
	c0,0.093,0,0.187,0,0.278C37.228,121.258,31.747,121.258,26.265,121.258z"/>
<path fill-rule="evenodd" clip-rule="evenodd" fill="#6D6D6D" d="M42.709,121.258c0-0.092,0-0.186,0-0.278c0.557,0,1.115,0,1.672,0
	c0,0.093,0,0.187,0,0.278C43.824,121.258,43.267,121.258,42.709,121.258z"/>
<path fill-rule="evenodd" clip-rule="evenodd" fill="#303030" d="M44.382,121.258c0-0.092,0-0.186,0-0.278c0.743,0,1.486,0,2.229,0
	C46.404,121.608,45.048,121.088,44.382,121.258z"/>
<path fill-rule="evenodd" clip-rule="evenodd" fill="#303030" d="M85.353,125.997c-0.491-0.16-1.639,0.338-1.673-0.278
	C84.17,125.878,85.317,125.381,85.353,125.997z"/>
<path fill-rule="evenodd" clip-rule="evenodd" fill="#303030" d="M83.402,128.505c0.576,0.166,1.831-0.345,1.951,0.279
	C84.776,128.618,83.522,129.129,83.402,128.505z"/>
<path fill-rule="evenodd" clip-rule="evenodd" fill="#D1D1D1" d="M106.813,136.866c0.558,0,1.114,0,1.673,0
	C108.53,137.324,106.767,137.324,106.813,136.866z"/>
<path fill-rule="evenodd" clip-rule="evenodd" fill="#9F9F9F" d="M68.351,8.938c0.252-0.492,0.624-0.864,1.115-1.115
	C69.214,8.314,68.842,8.687,68.351,8.938z"/>
<path fill-rule="evenodd" clip-rule="evenodd" fill="#303030" d="M47.169,96.175c-0.676-0.44-1.232-0.997-1.672-1.673
	C46.172,94.942,46.729,95.499,47.169,96.175z"/>
<path fill-rule="evenodd" clip-rule="evenodd" fill="#D1D1D1" d="M7.592,54.368c0.252-0.492,0.624-0.863,1.115-1.115
	C8.455,53.745,8.083,54.116,7.592,54.368z"/>
<path fill-rule="evenodd" clip-rule="evenodd" fill="#D1D1D1" d="M5.083,56.876c0.552-0.562,1.11-1.12,1.672-1.672
	C6.359,55.922,6.103,56.781,5.083,56.876z"/>
<path fill-rule="evenodd" clip-rule="evenodd" fill="#303030" d="M12.888,126.833c0.491,0.251,0.863,0.623,1.115,1.114
	C13.511,127.696,13.139,127.324,12.888,126.833z"/>
<path fill-rule="evenodd" clip-rule="evenodd" fill="#303030" d="M22.642,123.209c0.252-0.491,0.624-0.863,1.115-1.114
	C23.505,122.585,23.134,122.958,22.642,123.209z"/>
<path fill-rule="evenodd" clip-rule="evenodd" fill="#D1D1D1" d="M96.78,133.523c1.122,0.27,1.569,1.217,2.229,1.95
	c-0.365-0.099-0.438-0.491-0.836-0.558C98.048,134.112,96.974,134.256,96.78,133.523z"/>
<path fill-rule="evenodd" clip-rule="evenodd" fill="#303030" d="M98.172,134.916c0.398,0.066,0.471,0.459,0.836,0.558
	c0.054,0.226,0.28,0.278,0.28,0.558C98.797,135.778,98.425,135.407,98.172,134.916z"/>
<path fill-rule="evenodd" clip-rule="evenodd" fill="#303030" d="M113.224,137.981c0.25-0.491,0.623-0.862,1.114-1.115
	C114.085,137.358,113.715,137.73,113.224,137.981z"/>
<path fill-rule="evenodd" clip-rule="evenodd" fill="#9F9F9F" d="M128.274,62.729c0.252-0.491,0.623-0.863,1.113-1.115
	C129.137,62.105,128.764,62.478,128.274,62.729z"/>
<path fill-rule="evenodd" clip-rule="evenodd" fill="#303030" d="M133.569,13.676c-0.491-0.252-0.863-0.624-1.114-1.115
	C132.946,12.813,133.318,13.185,133.569,13.676z"/>
<path fill-rule="evenodd" clip-rule="evenodd" fill="#D1D1D1" d="M132.176,12.562c0.092,0,0.187,0,0.278,0
	c0.251,0.491,0.623,0.863,1.114,1.115c0,0.093,0,0.186,0,0.278C132.986,13.609,132.521,13.145,132.176,12.562z"/>
<path fill-rule="evenodd" clip-rule="evenodd" fill="#9F9F9F" d="M70.301,10.61c0.252-0.491,0.623-0.863,1.116-1.115
	C71.165,9.987,70.794,10.359,70.301,10.61z"/>
<path fill-rule="evenodd" clip-rule="evenodd" fill="#303030" d="M74.204,105.093c0.533-0.768,1.185-1.418,1.951-1.95
	C75.623,103.91,74.971,104.56,74.204,105.093z"/>
<path fill-rule="evenodd" clip-rule="evenodd" fill="#6D6D6D" d="M7.313,58.548c0.251-0.491,0.624-0.863,1.115-1.115
	C8.176,57.925,7.805,58.296,7.313,58.548z"/>
<path fill-rule="evenodd" clip-rule="evenodd" fill="#9F9F9F" d="M3.411,61.614c0.252-0.491,0.624-0.863,1.115-1.114
	C4.274,60.991,3.902,61.362,3.411,61.614z"/>
<path fill-rule="evenodd" clip-rule="evenodd" fill="#6D6D6D" d="M99.008,131.85c0.677,0.439,1.233,0.996,1.673,1.673
	C100.005,133.083,99.449,132.525,99.008,131.85z"/>
<path fill-rule="evenodd" clip-rule="evenodd" fill="#D1D1D1" d="M102.354,135.194c-1.021-0.095-1.276-0.954-1.673-1.671
	C101.366,133.953,101.791,134.641,102.354,135.194z"/>
<path fill-rule="evenodd" clip-rule="evenodd" fill="#9F9F9F" d="M126.323,61.057c0.252-0.491,0.623-0.863,1.115-1.115
	C127.186,60.434,126.813,60.805,126.323,61.057z"/>
<path fill-rule="evenodd" clip-rule="evenodd" fill="#6D6D6D" d="M130.503,14.512c0.491,0.252,0.863,0.624,1.114,1.115
	C131.126,15.375,130.756,15.003,130.503,14.512z"/>
<path fill-rule="evenodd" clip-rule="evenodd" fill="#6D6D6D" d="M115.732,128.785c0-0.094,0-0.187,0-0.279
	c-0.346-1.112-2.822-0.721-1.951-2.23c0.878-1.108,1.876,0.617,3.065,0.837C116.547,127.743,116.213,128.336,115.732,128.785z"/>
<path fill-rule="evenodd" clip-rule="evenodd" fill="#6D6D6D" d="M97.616,4.479c-1.042,0.021-1.928-0.117-2.509-0.557
	c0.942-0.732,0.525-2.82,1.114-3.902c0.88-0.137,0.985,0.502,1.951,0.278C98.333,2.037,97.738,3.021,97.616,4.479z"/>
<path fill-rule="evenodd" clip-rule="evenodd" fill="#6D6D6D" d="M94.829,6.708c0.558,0.463,2.067-0.023,2.509,0.558
	c-1.214,0.831,0.192,4.281-2.23,3.902C93.278,10.588,95.013,8.221,94.829,6.708z"/>
<path fill-rule="evenodd" clip-rule="evenodd" fill="#303030" d="M132.176,36.809c0.185-4.274-0.37-9.289,0.278-13.099
	c0,4.366,0,8.733,0,13.099C132.363,36.809,132.268,36.809,132.176,36.809z"/>
<path fill-rule="evenodd" clip-rule="evenodd" fill="#6D6D6D" d="M18.183,49.63c0.577,0.166,1.831-0.344,1.951,0.278
	c-0.65,0-1.301,0-1.951,0C18.183,49.816,18.183,49.723,18.183,49.63z"/>
<path fill-rule="evenodd" clip-rule="evenodd" fill="#6D6D6D" d="M23.478,51.024c0.465,0,0.93,0,1.394,0
	C24.998,51.479,23.353,51.479,23.478,51.024z"/>
<path fill-rule="evenodd" clip-rule="evenodd" fill="#9F9F9F" d="M16.232,52.696c0.086-0.378,0.698-0.231,1.115-0.279
	c0,0.094,0,0.187,0,0.279C16.975,52.696,16.604,52.696,16.232,52.696z"/>
<path fill-rule="evenodd" clip-rule="evenodd" fill="#6D6D6D" d="M27.38,52.975c-0.199-0.452,1.314-0.452,1.115,0
	C28.124,52.975,27.752,52.975,27.38,52.975z"/>
<path fill-rule="evenodd" clip-rule="evenodd" fill="#6D6D6D" d="M84.515,56.876c-0.164,0.578,0.345,1.832-0.278,1.952
	C84.403,58.25,83.892,56.997,84.515,56.876z"/>
<path fill-rule="evenodd" clip-rule="evenodd" fill="#6D6D6D" d="M124.652,69.14c0.603-0.047,0.124,0.989,0.278,1.394
	C124.325,70.58,124.804,69.545,124.652,69.14z"/>
<path fill-rule="evenodd" clip-rule="evenodd" fill="#6D6D6D" d="M127.438,69.976c0.604-0.047,0.127,0.989,0.278,1.394
	C127.112,71.417,127.59,70.381,127.438,69.976z"/>
<path fill-rule="evenodd" clip-rule="evenodd" fill="#6D6D6D" d="M51.907,71.369c-0.172,0.756,0.354,2.212-0.279,2.509
	C51.801,73.121,51.274,71.666,51.907,71.369z"/>
<path fill-rule="evenodd" clip-rule="evenodd" fill="#6D6D6D" d="M127.716,71.927c0.615,0.035,0.119,1.182,0.279,1.673
	C127.38,73.565,127.877,72.417,127.716,71.927z"/>
<path fill-rule="evenodd" clip-rule="evenodd" fill="#6D6D6D" d="M127.996,74.157c0.614,0.035,0.118,1.182,0.278,1.672
	C127.659,75.794,128.156,74.646,127.996,74.157z"/>
<path fill-rule="evenodd" clip-rule="evenodd" fill="#6D6D6D" d="M128.274,76.386c0.615,0.035,0.118,1.183,0.278,1.672
	C127.937,78.024,128.434,76.876,128.274,76.386z"/>
<path fill-rule="evenodd" clip-rule="evenodd" fill="#6D6D6D" d="M128.552,78.616c0.615,0.035,0.118,1.183,0.278,1.672
	C128.215,80.253,128.712,79.106,128.552,78.616z"/>
<path fill-rule="evenodd" clip-rule="evenodd" fill="#6D6D6D" d="M126.044,80.288c0.614,0.035,0.118,1.183,0.278,1.672
	C125.708,81.926,126.205,80.778,126.044,80.288z"/>
<path fill-rule="evenodd" clip-rule="evenodd" fill="#6D6D6D" d="M7.034,80.568c0.633,0.295,0.106,1.751,0.279,2.508
	C6.681,82.778,7.207,81.323,7.034,80.568z"/>
<path fill-rule="evenodd" clip-rule="evenodd" fill="#6D6D6D" d="M126.323,82.518c0.617,0.035,0.118,1.182,0.278,1.672
	C125.986,84.156,126.483,83.007,126.323,82.518z"/>
<path fill-rule="evenodd" clip-rule="evenodd" fill="#6D6D6D" d="M126.601,84.748c0.617,0.035,0.118,1.182,0.28,1.672
	C126.264,86.385,126.761,85.238,126.601,84.748z"/>
<path fill-rule="evenodd" clip-rule="evenodd" fill="#6D6D6D" d="M129.387,85.584c0.617,0.033,0.121,1.182,0.281,1.671
	C129.051,87.221,129.548,86.074,129.387,85.584z"/>
<path fill-rule="evenodd" clip-rule="evenodd" fill="#6D6D6D" d="M126.881,87.255c0.604-0.047,0.124,0.989,0.278,1.394
	c-0.094,0-0.187,0-0.278,0C126.881,88.185,126.881,87.72,126.881,87.255z"/>
<path fill-rule="evenodd" clip-rule="evenodd" fill="#6D6D6D" d="M80.615,90.321c-0.152,0.406,0.324,1.441-0.278,1.395
	C80.489,91.31,80.009,90.275,80.615,90.321z"/>
<path fill-rule="evenodd" clip-rule="evenodd" fill="#9F9F9F" d="M127.16,91.437c-0.16,0.49,0.337,1.637-0.278,1.672
	c0-0.558,0-1.115,0-1.672C126.973,91.437,127.066,91.437,127.16,91.437z"/>
<path fill-rule="evenodd" clip-rule="evenodd" fill="#6D6D6D" d="M14.002,93.945c-0.541-0.389-0.416-1.442-0.836-1.951
	c1.072,0.075,2.854-1.756,3.066,0C17.067,93.25,13.814,92.446,14.002,93.945z"/>
<path fill-rule="evenodd" clip-rule="evenodd" fill="#6D6D6D" d="M129.668,93.109c-0.167,0.577,0.345,1.831-0.281,1.951
	C129.554,94.482,129.045,93.229,129.668,93.109z"/>
<path fill-rule="evenodd" clip-rule="evenodd" fill="#6D6D6D" d="M62.219,102.028c-0.417-0.326-1.14-0.347-1.394-0.836
	c0.793-0.508,1.07-1.532,1.672-2.23c0.413,0.146,0.702,0.413,1.115,0.558C63.628,100.835,62.64,101.147,62.219,102.028z"/>
<path fill-rule="evenodd" clip-rule="evenodd" fill="#6D6D6D" d="M66.957,104.537c0.65,0,1.301,0,1.952,0
	C68.871,104.995,66.995,104.995,66.957,104.537z"/>
<path fill-rule="evenodd" clip-rule="evenodd" fill="#6D6D6D" d="M15.953,108.16c-0.16,0.489,0.337,1.638-0.279,1.672
	c0-0.558,0-1.115,0-1.672C15.768,108.16,15.86,108.16,15.953,108.16z"/>
<path fill-rule="evenodd" clip-rule="evenodd" fill="#6D6D6D" d="M13.166,108.996c-0.166,0.577,0.345,1.83-0.278,1.95
	C13.053,110.369,12.543,109.115,13.166,108.996z"/>
<path fill-rule="evenodd" clip-rule="evenodd" fill="#6D6D6D" d="M15.674,110.946c-0.16,0.49,0.337,1.638-0.278,1.672
	C15.556,112.129,15.059,110.981,15.674,110.946z"/>
<path fill-rule="evenodd" clip-rule="evenodd" fill="#6D6D6D" d="M61.662,117.914c0.49,0.161,1.638-0.336,1.672,0.28
	c-0.557,0-1.115,0-1.672,0C61.662,118.1,61.662,118.007,61.662,117.914z"/>
<path fill-rule="evenodd" clip-rule="evenodd" fill="#303030" d="M16.232,128.785c0.557,0,1.115,0,1.672,0
	C17.95,129.241,16.186,129.241,16.232,128.785z"/>
<path fill-rule="evenodd" clip-rule="evenodd" fill="#6D6D6D" d="M118.241,129.898c0.299-0.63,0.631-1.225,1.114-1.672
	c0.094,1.207,1.544,1.059,2.229,1.672c-0.162,0.58-0.585,0.902-0.836,1.395C120.014,130.726,119.104,130.334,118.241,129.898z"/>
<path fill-rule="evenodd" clip-rule="evenodd" fill="#FFFFFF" d="M69.465,7.823c2.566-2.63,7.461-4.687,12.822-5.017
	c1.949,0,3.9,0,5.852,0c2.669,0.027,4.452,0.938,6.968,1.115c0.581,0.44,1.467,0.578,2.509,0.557
	c7.753,1.413,16.973,3.441,25.363,5.017c1.44,0.271,2.778,0.476,4.181,0.836c2.02,0.52,3.925,0.825,5.017,2.23
	c0.345,0.583,0.81,1.047,1.393,1.393c0.797,0.598,1.302,1.486,1.395,2.788c0,1.393,0,2.787,0,4.181c0,0.464,0,0.929,0,1.393
	c0,0.651,0,1.301,0,1.951c0,5.667,0,11.334,0,17.001c0,3.624,0,7.247,0,10.87c0,0.743,0,1.486,0,2.23
	c0.092,3.706-2.913,5.825-5.576,7.246c-0.49,0.252-0.861,0.624-1.113,1.115c0.012,0.478-0.206,0.722-0.558,0.836
	c-0.727,2.029-0.435,3.962-0.278,6.41c0.152,0.405-0.326,1.441,0.278,1.394c0,0.186,0,0.372,0,0.558
	c0.161,0.49-0.336,1.638,0.279,1.673c0,0.185,0,0.37,0,0.557c0.16,0.489-0.337,1.638,0.278,1.672c0,0.187,0,0.371,0,0.558
	c0.16,0.49-0.337,1.638,0.278,1.672c0,0.187,0,0.372,0,0.558c0.16,0.49-0.337,1.638,0.278,1.672
	c0.215,1.738,0.609,3.294,0.557,5.297c0.161,0.489-0.336,1.637,0.281,1.671c0,0.372,0,0.744,0,1.115c0,1.115,0,2.229,0,3.345
	c0,0.465,0,0.929,0,1.394c-0.623,0.12-0.114,1.373-0.281,1.951c-0.326,2.99-0.597,5.315-1.392,7.524
	c-1.032,2.868-3.046,4.575-3.344,8.361c-0.638,0.387-0.104,1.94-0.28,2.788c0.132,1.887-0.84,3.639-1.393,5.573
	c-0.481,1.677-0.613,3.495-1.116,4.738c-0.637,1.578-1.903,2.766-2.508,4.181c-0.483,0.447-0.815,1.042-1.114,1.672
	c-1.084,2.541-2.646,4.602-3.902,6.968c-0.491,0.253-0.864,0.624-1.114,1.115c-1.021,0.65-1.951,1.395-3.624,1.394
	c-1.208,0-2.416,0-3.622,0c-3.079-0.265-5.199-1.489-6.689-3.344c0-0.279-0.227-0.332-0.28-0.558
	c-0.659-0.733-1.106-1.681-2.229-1.95c-2.971-2.419-6.863-3.914-11.427-4.738c-0.12-0.624-1.375-0.113-1.951-0.279
	c-1.729-0.041-3.153-0.627-4.46-1.394c-1.645-0.966-3.252-3.008-5.295-3.902c-1.863-0.814-3.975-0.958-5.854-1.394
	c-1.875-0.434-3.797-0.886-6.132-1.114c-1.307-0.464-4.546-0.464-5.853,0c-0.372,0-0.743,0-1.115,0c-0.651,0-1.301,0-1.951,0
	c-0.557,0-1.115,0-1.673,0c-0.557,0-1.114,0-1.672,0c-0.489,0.159-1.637-0.338-1.671,0.278c-0.372,0-0.744,0-1.115,0
	c-0.743,0-1.486,0-2.229,0c-0.558,0-1.115,0-1.672,0c-5.389,0.186-11.52-0.37-16.444,0.278c-1.092,0.022-1.738,0.492-2.508,0.837
	c-0.492,0.251-0.863,0.623-1.115,1.114c-0.694,2.743-1.506,5.369-4.738,5.575c-0.558,0-1.115,0-1.672,0
	c-1.204,0.181-1.563-0.482-2.229-0.837c-0.252-0.491-0.624-0.863-1.115-1.114c-0.593-1.452-1.587-2.502-1.394-4.738
	c0-0.372,0-0.743,0-1.115c0.097-3.713,1.025-6.593,1.394-10.034c0.623-0.12,0.113-1.373,0.278-1.95c0-0.187,0-0.371,0-0.558
	c0.378-0.086,0.231-0.698,0.279-1.115c-0.178-1.029,0.361-2.776-0.279-3.345c-0.217-3.592-1.015-6.602-1.951-9.476
	c-0.029-0.715-0.157-1.328-0.557-1.672c-1.12-3.247-2.99-5.743-3.345-9.755c-0.173-0.757,0.354-2.213-0.279-2.508
	c-0.148-0.737-0.416-2.5-0.836-3.346c-0.242-0.488-0.795-0.79-1.115-1.394c-0.538-1.014-0.871-2.332-1.394-3.345
	c-1.195-2.315-2.916-4.107-3.345-6.967c0-0.836,0-1.672,0-2.508c0.007-3.617,2.678-4.568,4.738-6.132
	c1.02-0.095,1.275-0.954,1.672-1.672c0.156-0.401,0.435-0.68,0.836-0.836c0.492-0.252,0.863-0.624,1.115-1.115
	c1.847-2.055,4.435-3.369,8.362-3.345c0.372,0,0.743,0,1.115,0c0.65,0,1.3,0,1.951,0c1.549-0.062,2.12,0.853,3.344,1.116
	c-0.125,0.455,1.52,0.455,1.394,0c0.839-0.277,1.244-0.986,2.508-0.836c0.372,0,0.743,0,1.115,0
	c1.583,0.336,3.307,1.001,5.017,1.672c1.978,0.776,4.083,1.595,6.41,2.508c2.309,0.906,5.295,2.096,7.804,3.344
	c2.582,1.286,4.511,2.279,5.017,5.296c0,1.115,0,2.229,0,3.345c-0.09,1.86-0.746,3.156-0.836,5.016
	c-0.632,0.297-0.106,1.751-0.279,2.509c-0.049,1.308-0.323,2.797-1.114,3.623c-0.267,0.278-0.698,1.61-1.116,2.229
	c-0.371,0.551-1.074,0.915-1.393,1.394c-0.403,0.604-0.477,1.313-0.836,1.951c-1.483,2.632-3.65,5.034-3.623,7.245
	c0.022,1.817,1.103,2.689,1.951,4.182c0.44,0.676,0.997,1.232,1.672,1.673c1.31,0.835,4.488,1.282,6.41,1.672
	c2.791,0.565,5.08,1.903,7.247,3.345c0.254,0.489,0.977,0.51,1.394,0.836c1.436,0.979,2.906,1.926,4.738,2.509
	c0.038,0.458,1.914,0.458,1.952,0c1.679-0.278,2.976-1.304,4.182-2.509c1.05-1.05,2.188-2.262,2.786-3.623
	c0.318-0.725,0.323-1.633,0.558-2.508c0.507-1.891,1.279-4.551,1.673-7.248c0.477-3.287,0.843-6.917,1.67-10.312
	c1.676-6.86,3.608-13.428,4.46-19.51c0.623-0.12,0.114-1.374,0.278-1.952c0-0.464,0-0.929,0-1.393
	c-0.021-0.442,0.135-1.063-0.278-1.115c0.17-1.267-0.437-2.25-0.835-3.344c-0.158-0.436-0.114-1.047-0.279-1.394
	c-0.318-0.671-1.005-1.259-1.394-1.951c-1.223-2.176-2.341-4.282-3.622-6.41c-0.842-1.392-1.573-2.693-2.509-4.181
	c-0.2-0.316-0.33-0.76-0.559-1.114c-1.715-2.682-4.02-6.12-5.853-9.198c-0.824-1.382-1.669-2.842-2.508-4.181
	c-1.033-1.647-2.131-2.845-2.23-4.738c0-0.65,0-1.301,0-1.951c0.509-3.114,2.149-5.098,3.902-6.967
	C68.842,8.687,69.214,8.314,69.465,7.823z M83.958,5.314c-2.604,0.359-4.895,0.669-6.968,1.394
	c-2.132,0.745-3.753,1.873-5.573,2.787c-0.493,0.252-0.864,0.624-1.116,1.115c-0.785,1.555-2.141,2.904-2.786,4.46
	c-1.133,2.733,0.792,4.459,1.672,6.41c0.044,0.097,0.491,0.165,0.558,0.278c0.642,1.11,1.153,2.458,1.673,3.345
	c1.765,3.02,3.62,5.593,5.017,7.804c0.913,1.447,1.893,3.096,2.508,4.46c0.042,0.092,0.489,0.172,0.557,0.278
	c0.203,0.313,0.359,0.787,0.56,1.115c1.312,2.156,2.534,4.235,3.622,6.132c1.603,2.793,3.262,5.604,3.346,9.197
	c0,1.3,0,2.601,0,3.902c-1.19,11.725-5.003,20.825-6.411,32.329c-0.605-0.046-0.126,0.989-0.278,1.395
	c-0.547,4.656-1.859,8.547-4.182,11.428c-0.767,0.532-1.418,1.183-1.951,1.95c-1.563,1.039-3.021,2.182-5.574,2.229
	c-0.465,0-0.93,0-1.394,0c-2.769-0.204-4.509-1.437-6.132-2.786c-0.093,0-0.186,0-0.278,0c-0.22-0.616-0.975-0.698-1.394-1.115
	c-1.264-0.304-1.888-0.914-2.787-1.394c-0.829-0.442-1.579-0.815-2.509-1.115c-2.173-0.7-4.656-0.586-6.967-1.394
	c-1.758-0.614-3.787-3.03-4.738-4.459c-0.833-1.251-1.399-2.158-1.394-3.623c0-0.837,0-1.673,0-2.509
	c0.062-2.366,1.306-3.143,2.229-4.738c0.651-1.124,1.05-2.564,1.672-3.622c0.244-0.415,0.865-0.748,1.115-1.116
	c0.167-0.245,0.146-0.622,0.278-0.836c0.104-0.166,0.437-0.377,0.558-0.558c1.214-1.81,2.307-3.696,2.229-6.41
	c0.629-0.208,0.109-1.564,0.278-2.23c0.03-1.643,0.503-2.842,0.836-4.181c0.456,0.126,0.456-1.519,0-1.393
	c-0.63-3.205-6.072-4.391-8.64-5.574c-0.468-0.216-1.02-0.386-1.393-0.558c-0.756-0.348-1.263-0.57-1.951-0.836
	c-3.233-1.245-6.937-2.706-9.755-3.901c0.199-0.452-1.314-0.452-1.115,0c-1.172,0.722-2.575,1.004-4.181,0.836
	c-1.38-0.145-2.215-1.131-3.345-1.115c-0.296-0.633-1.752-0.106-2.508-0.279c-0.417,0.048-1.029-0.099-1.115,0.279
	c-3.717,0.463-5.906,2.455-7.804,4.738c-0.492,0.252-0.864,0.624-1.115,1.115C6.52,59.335,5.714,60.109,4.526,60.5
	c-0.491,0.251-0.863,0.623-1.115,1.114c-0.057,0.773-0.59,2.024-0.558,2.787c0.091,2.104,2.058,4.186,3.345,6.689
	c0.303,0.589,0.263,1.343,0.558,1.951c0.261,0.539,0.829,0.865,1.115,1.394c0.288,0.534,0.533,1.088,0.836,1.673
	c0.529,1.02,0.907,1.828,0.836,2.787c0.176,0.938-0.359,2.588,0.278,3.064c0.556,3.905,2.485,6.436,3.345,10.034
	c0.421,0.509,0.295,1.563,0.836,1.951c0.736,2.329,1.649,4.483,1.672,7.525c0,0.929,0,1.858,0,2.787c0,0.744,0,1.486,0,2.229
	c0,0.558,0,1.114,0,1.673c0,0.557,0,1.114,0,1.672c0,0.371,0,0.743,0,1.114c-0.616,0.035-0.118,1.184-0.278,1.672
	c-0.08,2.802-0.705,5.057-1.115,7.526c-0.459,0.038-0.459,1.913,0,1.951c0.11,1.84,0.761,3.142,1.951,3.901
	c-0.046,0.458,1.718,0.458,1.672,0c0.551-0.497,1.244-0.816,1.393-1.115c0.149-0.298-0.143-0.812,0-1.114
	c1.209-2.556,2.312-4.524,5.296-5.017c6.132-0.186,13.006,0.371,18.673-0.278c0.372,0,0.744,0,1.115,0c0.65,0,1.301,0,1.951,0
	c0.558,0,1.115,0,1.672,0c0.465,0,0.93,0,1.393,0c0.578-0.167,1.832,0.345,1.952-0.278c0.372,0,0.743,0,1.115,0
	c0.65,0,1.301,0,1.951,0c0.558,0,1.115,0,1.672,0c1.858,0,3.716,0,5.574,0c0.558,0,1.115,0,1.672,0
	c2.438,0.014,4.46,0.661,6.411,1.113c2.009,0.467,4.051,0.725,5.854,1.673c2.675,1.408,4.52,4.638,8.082,4.738
	c0.034,0.616,1.182,0.118,1.673,0.278c2.488-0.139,3.994,0.812,5.573,1.394c3.308,1.22,6.128,2.149,8.082,4.46
	c0.44,0.675,0.997,1.232,1.673,1.673c0.396,0.717,0.652,1.576,1.673,1.671c1.256,0.789,2.927,1.161,4.459,1.672
	c-0.046,0.458,1.717,0.458,1.673,0c4.586-0.523,4.942-5.275,7.246-8.081c0.481-0.448,0.815-1.042,1.114-1.673
	c0.017-0.357,0.097-0.646,0.278-0.837c0.232-0.24,0.086-0.222,0.278-0.557c0.487-0.84,1.021-1.293,1.395-1.951
	c0.64-1.123,0.781-3.056,1.116-4.181c0.773-2.609,1.679-4.776,1.949-7.525c0.637-0.387,0.104-1.939,0.28-2.787
	c0.154-2.101,0.705-3.06,1.393-4.459c0.459-0.934,1.309-1.826,1.673-2.787c0.444-1.177,0.549-2.776,0.836-4.181
	c0.31-1.525,0.809-3.386,0.837-4.738c0.615-0.035,0.118-1.182,0.278-1.672c0-0.93,0-1.859,0-2.788
	c-0.154-0.404,0.325-1.44-0.278-1.394c0-0.278,0-0.557,0-0.836c-0.162-0.49,0.337-1.637-0.28-1.672c0-0.187,0-0.372,0-0.558
	c-0.16-0.49,0.339-1.637-0.278-1.672c0-0.187,0-0.372,0-0.559c-0.16-0.489,0.336-1.637-0.278-1.672
	c-0.396-3.229-0.982-6.266-1.114-9.754c-0.154-0.405,0.324-1.441-0.278-1.394c0-0.186,0-0.372,0-0.558c0-1.208,0-2.416,0-3.623
	c-0.046-1.902,0.69-3.023,1.671-3.902c0.49-0.252,0.863-0.624,1.115-1.115c1.517-2.013,4.748-2.313,4.738-5.853
	c0.604,0.047,0.126-0.989,0.278-1.394c0-5.296,0-10.591,0-15.887c0-4.366,0-8.733,0-13.099c0-0.372,0-0.743,0-1.115
	c0.605,0.047,0.127-0.988,0.278-1.393c-0.176-0.938,0.359-2.589-0.278-3.066c-0.218-0.896-0.383-1.847-0.837-2.508
	c-0.251-0.491-0.623-0.863-1.114-1.115c-2.146-1.204-5.855-1.977-8.641-2.508c-8.435-1.612-17.011-3.031-24.525-4.738
	c-0.441-0.581-1.951-0.094-2.509-0.558c-2.889-0.271-5.301-1.016-8.083-1.394C86.445,4.854,84.259,4.854,83.958,5.314z"/>
<path fill-rule="evenodd" clip-rule="evenodd" fill="#D1D1D1" d="M134.963,16.742c0.643,0.843,0.098,2.875,0.278,4.181
	c-0.092,0-0.187,0-0.278,0C134.963,19.529,134.963,18.135,134.963,16.742z"/>
<path fill-rule="evenodd" clip-rule="evenodd" fill="#D1D1D1" d="M9.543,78.895c0.638,0.477,0.102,2.127,0.278,3.064
	C9.184,81.483,9.719,79.833,9.543,78.895z"/>
<path fill-rule="evenodd" clip-rule="evenodd" fill="#D1D1D1" d="M122.143,109.274c-0.176,0.848,0.356,2.4-0.28,2.787
	C122.04,111.214,121.506,109.661,122.143,109.274z"/>
<path fill-rule="evenodd" clip-rule="evenodd" fill="#D1D1D1" d="M24.593,118.75c5.667-0.65,12.542-0.094,18.673-0.278
	C37.599,119.122,30.726,118.565,24.593,118.75z"/>
<path fill-rule="evenodd" clip-rule="evenodd" fill="#9F9F9F" d="M82.288,2.806c1.307-0.463,4.546-0.463,5.852,0
	C86.188,2.806,84.237,2.806,82.288,2.806z"/>
<path fill-rule="evenodd" clip-rule="evenodd" fill="#9F9F9F" d="M52.743,63.008c0.462,0.48,0.462,2.864,0,3.345
	C52.743,65.237,52.743,64.123,52.743,63.008z"/>
<path fill-rule="evenodd" clip-rule="evenodd" fill="#9F9F9F" d="M49.398,69.418c-0.169,0.666,0.351,2.022-0.278,2.23
	C49.29,70.982,48.77,69.626,49.398,69.418z"/>
<path fill-rule="evenodd" clip-rule="evenodd" fill="#6D6D6D" d="M11.215,94.502c-1.035,0.172-1.751,0.664-2.787,0.836
	c0.23-0.788-0.393-0.722-0.279-1.394c0.663-0.546,1.876-0.539,2.509-1.114C11.058,93.174,11.186,93.788,11.215,94.502z"/>
<path fill-rule="evenodd" clip-rule="evenodd" fill="#6D6D6D" d="M15.674,101.47c0.636,0.387,0.104,1.94,0.279,2.787
	c-0.093,0-0.186,0-0.279,0C15.674,103.329,15.674,102.399,15.674,101.47z"/>
<path fill-rule="evenodd" clip-rule="evenodd" fill="#6D6D6D" d="M59.432,103.421c0.419,0.417,1.174,0.499,1.394,1.115
	c-1.075,0.235-1.07,2.688-2.508,1.672C57.612,105.158,59.102,104.321,59.432,103.421z"/>
<path fill-rule="evenodd" clip-rule="evenodd" fill="#6D6D6D" d="M124.652,110.946c-0.177,0.848,0.356,2.401-0.28,2.788
	C124.547,112.886,124.014,111.333,124.652,110.946z"/>
<path fill-rule="evenodd" clip-rule="evenodd" fill="#6D6D6D" d="M14.281,120.144c0,0.649,0,1.301,0,1.951
	C13.822,122.057,13.822,120.182,14.281,120.144z"/>
<path fill-rule="evenodd" clip-rule="evenodd" fill="#9F9F9F" d="M105.978,139.375c1.206,0,2.414,0,3.622,0
	C109.029,139.837,106.548,139.837,105.978,139.375z"/>
<path fill-rule="evenodd" clip-rule="evenodd" fill="#6D6D6D" d="M64.449,15.906c0,0.65,0,1.301,0,1.951
	C63.99,17.819,63.99,15.944,64.449,15.906z"/>
<path fill-rule="evenodd" clip-rule="evenodd" fill="#6D6D6D" d="M87.026,54.089c0.461,0.663,0.461,3.239,0,3.902
	C87.026,56.69,87.026,55.39,87.026,54.089z"/>
<path fill-rule="evenodd" clip-rule="evenodd" fill="#6D6D6D" d="M0.345,63.008c0,0.836,0,1.672,0,2.508
	C-0.115,65.305-0.115,63.22,0.345,63.008z"/>
<path fill-rule="evenodd" clip-rule="evenodd" fill="#6D6D6D" d="M124.652,64.959c0,1.208,0,2.416,0,3.623
	C124.189,68.011,124.189,65.53,124.652,64.959z"/>
<path fill-rule="evenodd" clip-rule="evenodd" fill="#6D6D6D" d="M41.037,88.928c0,0.836,0,1.672,0,2.509
	C40.576,91.226,40.576,89.14,41.037,88.928z"/>
<path fill-rule="evenodd" clip-rule="evenodd" fill="#303030" d="M16.232,125.997c0.557,0,1.115,0,1.672,0
	C17.95,126.455,16.186,126.455,16.232,125.997z"/>
</svg>
