<?xml version="1.0" encoding="utf-8"?>
<!-- Generator: Adobe Illustrator 15.0.0, SVG Export Plug-In  -->
<!DOCTYPE svg PUBLIC "-//W3C//DTD SVG 1.1//EN" "http://www.w3.org/Graphics/SVG/1.1/DTD/svg11.dtd" [
	<!ENTITY ns_flows "http://ns.adobe.com/Flows/1.0/">
]>
<svg version="1.1"
	 xmlns="http://www.w3.org/2000/svg" xmlns:xlink="http://www.w3.org/1999/xlink" xmlns:a="http://ns.adobe.com/AdobeSVGViewerExtensions/3.0/"
	 x="0px" y="0px" width="142px" height="142px" viewBox="-3.278 -0.401 142 142" enable-background="new -3.278 -0.401 142 142"
	 xml:space="preserve">
<defs>
</defs>
<path fill-rule="evenodd" clip-rule="evenodd" fill="#757575" d="M83.123,2.229c0-0.092,0-0.186,0-0.278c0.558,0,1.114,0,1.673,0
	c0,0.093,0,0.186,0,0.278C84.237,2.229,83.68,2.229,83.123,2.229z"/>
<path fill-rule="evenodd" clip-rule="evenodd" fill="#BDBDBD" d="M84.237,4.738c0.213-0.46,2.298-0.46,2.509,0
	C85.91,4.738,85.075,4.738,84.237,4.738z"/>
<path fill-rule="evenodd" clip-rule="evenodd" fill="#BDBDBD" d="M132.455,17.28c0.463,0.846,0.463,3.613,0,4.459
	C132.455,20.253,132.455,18.767,132.455,17.28z"/>
<path fill-rule="evenodd" clip-rule="evenodd" fill="#757575" d="M134.963,21.182c0.092,0,0.187,0,0.278,0c0,0.744,0,1.487,0,2.23
	c-0.092,0-0.187,0-0.278,0C134.963,22.668,134.963,21.925,134.963,21.182z"/>
<path fill-rule="evenodd" clip-rule="evenodd" fill="#191919" d="M132.455,22.576c0,0.558,0,1.115,0,1.672c-0.092,0-0.187,0-0.278,0
	C132.336,23.758,131.837,22.61,132.455,22.576z"/>
<path fill-rule="evenodd" clip-rule="evenodd" fill="#323232" d="M134.963,23.412c0.092,0,0.187,0,0.278,0c0,2.694,0,5.389,0,8.083
	c-0.092,0-0.187,0-0.278,0C134.963,28.8,134.963,26.106,134.963,23.412z"/>
<path fill-rule="evenodd" clip-rule="evenodd" fill="#323232" d="M132.176,24.248c0.092,0,0.187,0,0.278,0c0,3.81,0,7.619,0,11.427
	c-0.092,0-0.187,0-0.278,0C132.176,31.866,132.176,28.057,132.176,24.248z"/>
<path fill-rule="evenodd" clip-rule="evenodd" fill="#191919" d="M134.963,31.495c0.092,0,0.187,0,0.278,0c0,1.486,0,2.973,0,4.459
	c-0.092,0-0.187,0-0.278,0C134.963,34.467,134.963,32.981,134.963,31.495z"/>
<path fill-rule="evenodd" clip-rule="evenodd" fill="#191919" d="M129.668,35.954c0.296-0.633,1.751-0.106,2.508-0.279
	C131.879,36.308,130.423,35.781,129.668,35.954z"/>
<path fill-rule="evenodd" clip-rule="evenodd" fill="#191919" d="M137.75,35.954c0.455-0.126,0.455,1.519,0,1.393
	C137.75,36.883,137.75,36.418,137.75,35.954z"/>
<path fill-rule="evenodd" clip-rule="evenodd" fill="#191919" d="M17.068,49.332c0.39-0.461,2.675-0.461,3.065,0
	C19.112,49.332,18.09,49.332,17.068,49.332z"/>
<path fill-rule="evenodd" clip-rule="evenodd" fill="#191919" d="M14.838,49.611c0.086-0.379,0.698-0.231,1.115-0.279
	C15.901,49.745,15.28,49.587,14.838,49.611z"/>
<path fill-rule="evenodd" clip-rule="evenodd" fill="#191919" d="M27.38,49.611c-0.199-0.452,1.314-0.452,1.115,0
	C28.124,49.611,27.752,49.611,27.38,49.611z"/>
<path fill-rule="evenodd" clip-rule="evenodd" fill="#191919" d="M16.511,52.119c0.571-0.462,3.051-0.462,3.623,0
	C18.926,52.119,17.718,52.119,16.511,52.119z"/>
<path fill-rule="evenodd" clip-rule="evenodd" fill="#191919" d="M84.515,56.299c0,0.558,0,1.116,0,1.672c-0.092,0-0.184,0-0.278,0
	C84.397,57.482,83.9,56.334,84.515,56.299z"/>
<path fill-rule="evenodd" clip-rule="evenodd" fill="#191919" d="M3.132,62.152c-0.047,0.417,0.1,1.029-0.279,1.115
	C2.901,62.85,2.754,62.239,3.132,62.152z"/>
<path fill-rule="evenodd" clip-rule="evenodd" fill="#191919" d="M0.345,62.432c0,0.836,0,1.672,0,2.508
	C-0.115,64.729-0.115,62.643,0.345,62.432z"/>
<path fill-rule="evenodd" clip-rule="evenodd" fill="#191919" d="M127.16,65.219c0.046-0.417-0.1-1.029,0.278-1.115
	C127.415,64.545,127.571,65.167,127.16,65.219z"/>
<path fill-rule="evenodd" clip-rule="evenodd" fill="#BDBDBD" d="M104.027,64.661c-0.2-0.452,1.313-0.452,1.113,0
	C104.77,64.661,104.397,64.661,104.027,64.661z"/>
<path fill-rule="evenodd" clip-rule="evenodd" fill="#191919" d="M53.022,64.661c-0.023,0.442,0.134,1.063-0.279,1.116
	C52.791,65.359,52.644,64.747,53.022,64.661z"/>
<path fill-rule="evenodd" clip-rule="evenodd" fill="#191919" d="M124.372,65.776c0.629,0.207,0.109,1.563,0.28,2.229
	C124.023,67.798,124.542,66.442,124.372,65.776z"/>
<path fill-rule="evenodd" clip-rule="evenodd" fill="#191919" d="M127.16,67.169c0.377,0.087,0.23,0.698,0.278,1.115
	C127.026,68.233,127.182,67.611,127.16,67.169z"/>
<path fill-rule="evenodd" clip-rule="evenodd" fill="#191919" d="M52.186,68.563c-0.023,0.441,0.134,1.063-0.279,1.115
	C51.955,69.261,51.807,68.649,52.186,68.563z"/>
<path fill-rule="evenodd" clip-rule="evenodd" fill="#191919" d="M49.398,68.842c-0.152,0.405,0.326,1.44-0.278,1.394
	C49.272,69.831,48.794,68.795,49.398,68.842z"/>
<path fill-rule="evenodd" clip-rule="evenodd" fill="#191919" d="M124.652,69.12c0.41,0.052,0.254,0.674,0.278,1.115
	C124.517,70.184,124.673,69.562,124.652,69.12z"/>
<path fill-rule="evenodd" clip-rule="evenodd" fill="#191919" d="M127.438,69.12c0.604-0.047,0.127,0.989,0.278,1.394
	C127.112,70.562,127.59,69.525,127.438,69.12z"/>
<path fill-rule="evenodd" clip-rule="evenodd" fill="#191919" d="M124.93,71.072c0.412,0.051,0.254,0.673,0.278,1.115
	C124.795,72.135,124.952,71.513,124.93,71.072z"/>
<path fill-rule="evenodd" clip-rule="evenodd" fill="#191919" d="M127.716,71.35c0.379,0.086,0.23,0.698,0.279,1.115
	C127.583,72.413,127.739,71.791,127.716,71.35z"/>
<path fill-rule="evenodd" clip-rule="evenodd" fill="#191919" d="M51.907,71.629c-0.16,0.49,0.337,1.638-0.279,1.673
	C51.789,72.812,51.292,71.664,51.907,71.629z"/>
<path fill-rule="evenodd" clip-rule="evenodd" fill="#191919" d="M49.12,72.465c-0.047,0.417,0.1,1.029-0.278,1.115
	C48.888,73.162,48.742,72.551,49.12,72.465z"/>
<path fill-rule="evenodd" clip-rule="evenodd" fill="#191919" d="M125.208,73.302c0.413,0.051,0.255,0.673,0.278,1.113
	C125.075,74.364,125.231,73.742,125.208,73.302z"/>
<path fill-rule="evenodd" clip-rule="evenodd" fill="#191919" d="M127.996,73.58c0.378,0.086,0.23,0.698,0.278,1.114
	C127.861,74.643,128.019,74.021,127.996,73.58z"/>
<path fill-rule="evenodd" clip-rule="evenodd" fill="#191919" d="M125.487,75.531c0.413,0.051,0.255,0.673,0.278,1.114
	C125.353,76.594,125.509,75.972,125.487,75.531z"/>
<path fill-rule="evenodd" clip-rule="evenodd" fill="#191919" d="M128.274,75.81c0.379,0.086,0.23,0.698,0.278,1.115
	C128.139,76.872,128.297,76.25,128.274,75.81z"/>
<path fill-rule="evenodd" clip-rule="evenodd" fill="#191919" d="M125.765,77.761c0.413,0.052,0.257,0.674,0.279,1.114
	C125.631,78.824,125.79,78.202,125.765,77.761z"/>
<path fill-rule="evenodd" clip-rule="evenodd" fill="#191919" d="M128.552,78.039c0.379,0.087,0.232,0.698,0.278,1.115
	C128.418,79.103,128.577,78.48,128.552,78.039z"/>
<path fill-rule="evenodd" clip-rule="evenodd" fill="#191919" d="M9.543,78.318c0.413,0.052,0.255,0.674,0.278,1.114
	C9.409,79.381,9.566,78.76,9.543,78.318z"/>
<path fill-rule="evenodd" clip-rule="evenodd" fill="#191919" d="M126.044,79.991c0.604-0.049,0.126,0.987,0.278,1.392
	C125.717,81.431,126.196,80.395,126.044,79.991z"/>
<path fill-rule="evenodd" clip-rule="evenodd" fill="#191919" d="M128.831,80.548c0.379,0.086,0.232,0.698,0.278,1.115
	C128.697,81.61,128.855,80.988,128.831,80.548z"/>
<path fill-rule="evenodd" clip-rule="evenodd" fill="#191919" d="M7.034,80.826c0.624,0.12,0.113,1.373,0.279,1.951
	C6.69,82.657,7.2,81.403,7.034,80.826z"/>
<path fill-rule="evenodd" clip-rule="evenodd" fill="#191919" d="M79.22,81.383c-0.046,0.418,0.101,1.03-0.278,1.116
	C78.966,82.058,78.808,81.436,79.22,81.383z"/>
<path fill-rule="evenodd" clip-rule="evenodd" fill="#191919" d="M9.821,81.663c0.413,0.051,0.255,0.673,0.279,1.114
	C9.688,82.726,9.844,82.104,9.821,81.663z"/>
<path fill-rule="evenodd" clip-rule="evenodd" fill="#191919" d="M126.323,82.499c0.412,0.051,0.256,0.673,0.278,1.114
	C126.188,83.562,126.346,82.939,126.323,82.499z"/>
<path fill-rule="evenodd" clip-rule="evenodd" fill="#191919" d="M129.109,82.777c0.379,0.086,0.232,0.698,0.278,1.115
	C128.977,83.841,129.133,83.219,129.109,82.777z"/>
<path fill-rule="evenodd" clip-rule="evenodd" fill="#191919" d="M78.942,83.056c-0.048,0.417,0.101,1.029-0.278,1.115
	C78.685,83.729,78.529,83.108,78.942,83.056z"/>
<path fill-rule="evenodd" clip-rule="evenodd" fill="#191919" d="M126.601,84.728c0.412,0.053,0.256,0.675,0.28,1.115
	C126.466,85.792,126.625,85.17,126.601,84.728z"/>
<path fill-rule="evenodd" clip-rule="evenodd" fill="#191919" d="M129.387,85.008c0.379,0.086,0.232,0.696,0.281,1.114
	C129.255,86.07,129.412,85.448,129.387,85.008z"/>
<path fill-rule="evenodd" clip-rule="evenodd" fill="#191919" d="M126.881,87.236c0.463,0.938,0.463,3.8,0,4.738
	C126.881,90.396,126.881,88.815,126.881,87.236z"/>
<path fill-rule="evenodd" clip-rule="evenodd" fill="#191919" d="M80.893,87.794c-0.048,0.417,0.101,1.029-0.278,1.115
	C80.661,88.492,80.514,87.88,80.893,87.794z"/>
<path fill-rule="evenodd" clip-rule="evenodd" fill="#191919" d="M129.668,87.794c0.463,0.572,0.463,3.052,0,3.623
	C129.668,90.21,129.668,89.001,129.668,87.794z"/>
<path fill-rule="evenodd" clip-rule="evenodd" fill="#191919" d="M78.107,88.072c-0.049,0.417,0.098,1.029-0.279,1.115
	C77.85,88.747,77.694,88.125,78.107,88.072z"/>
<path fill-rule="evenodd" clip-rule="evenodd" fill="#191919" d="M41.037,88.352c0,0.836,0,1.672,0,2.509
	C40.576,90.649,40.576,88.563,41.037,88.352z"/>
<path fill-rule="evenodd" clip-rule="evenodd" fill="#191919" d="M80.615,90.023c-0.048,0.417,0.099,1.029-0.278,1.115
	C80.382,90.721,80.236,90.11,80.615,90.023z"/>
<path fill-rule="evenodd" clip-rule="evenodd" fill="#191919" d="M77.828,90.303c-0.048,0.416,0.099,1.028-0.28,1.114
	C77.572,90.976,77.416,90.354,77.828,90.303z"/>
<path fill-rule="evenodd" clip-rule="evenodd" fill="#191919" d="M129.668,93.09c-0.154,0.405,0.324,1.44-0.281,1.394
	C129.542,94.079,129.063,93.043,129.668,93.09z"/>
<path fill-rule="evenodd" clip-rule="evenodd" fill="#191919" d="M15.396,98.942c0.413,0.052,0.255,0.674,0.278,1.115
	C15.262,100.006,15.419,99.384,15.396,98.942z"/>
<path fill-rule="evenodd" clip-rule="evenodd" fill="#191919" d="M12.888,100.615c0.604-0.048,0.125,0.988,0.278,1.393
	C12.562,102.056,13.04,101.02,12.888,100.615z"/>
<path fill-rule="evenodd" clip-rule="evenodd" fill="#191919" d="M15.674,100.894c0.623,0.12,0.113,1.373,0.279,1.951
	C15.33,102.725,15.84,101.471,15.674,100.894z"/>
<path fill-rule="evenodd" clip-rule="evenodd" fill="#191919" d="M66.957,103.96c0.65,0,1.301,0,1.952,0
	C68.871,104.418,66.995,104.418,66.957,103.96z"/>
<path fill-rule="evenodd" clip-rule="evenodd" fill="#191919" d="M67.236,106.746c0.464,0,0.929,0,1.394,0
	C68.755,107.202,67.11,107.202,67.236,106.746z"/>
<path fill-rule="evenodd" clip-rule="evenodd" fill="#191919" d="M15.953,107.305c-0.169,0.666,0.35,2.021-0.279,2.229
	C15.844,108.867,15.325,107.512,15.953,107.305z"/>
<path fill-rule="evenodd" clip-rule="evenodd" fill="#191919" d="M13.166,108.419c-0.16,0.49,0.337,1.637-0.278,1.672
	C13.048,109.602,12.551,108.453,13.166,108.419z"/>
<path fill-rule="evenodd" clip-rule="evenodd" fill="#191919" d="M122.143,108.697c-0.048,0.417,0.099,1.029-0.28,1.115
	C121.911,109.396,121.765,108.784,122.143,108.697z"/>
<path fill-rule="evenodd" clip-rule="evenodd" fill="#191919" d="M15.674,110.649c-0.152,0.404,0.326,1.44-0.278,1.392
	C15.548,111.638,15.07,110.602,15.674,110.649z"/>
<path fill-rule="evenodd" clip-rule="evenodd" fill="#191919" d="M124.652,110.928c-0.171,0.666,0.349,2.021-0.28,2.229
	C124.542,112.49,124.023,111.135,124.652,110.928z"/>
<path fill-rule="evenodd" clip-rule="evenodd" fill="#191919" d="M12.888,111.206c-0.048,0.417,0.099,1.028-0.279,1.114
	C12.632,111.88,12.475,111.258,12.888,111.206z"/>
<path fill-rule="evenodd" clip-rule="evenodd" fill="#191919" d="M121.863,112.041c-0.152,0.406,0.326,1.441-0.278,1.395
	C121.737,113.031,121.26,111.995,121.863,112.041z"/>
<path fill-rule="evenodd" clip-rule="evenodd" fill="#191919" d="M15.396,112.879c-0.048,0.415,0.099,1.027-0.279,1.113
	C15.165,113.576,15.018,112.965,15.396,112.879z"/>
<path fill-rule="evenodd" clip-rule="evenodd" fill="#191919" d="M52.186,117.617c1.489-0.647,4.178-0.097,6.131-0.28
	C56.827,117.984,54.139,117.434,52.186,117.617z"/>
<path fill-rule="evenodd" clip-rule="evenodd" fill="#191919" d="M61.104,117.337c0.757,0.174,2.212-0.354,2.509,0.28
	C62.856,117.443,61.401,117.971,61.104,117.337z"/>
<path fill-rule="evenodd" clip-rule="evenodd" fill="#191919" d="M44.382,117.896c0.751-0.643,2.688-0.1,3.902-0.278
	C47.532,118.259,45.595,117.715,44.382,117.896z"/>
<path fill-rule="evenodd" clip-rule="evenodd" fill="#191919" d="M24.593,118.174c0.052-0.413,0.673-0.256,1.115-0.278
	C25.656,118.307,25.034,118.15,24.593,118.174z"/>
<path fill-rule="evenodd" clip-rule="evenodd" fill="#191919" d="M14.281,119.847c0,0.743,0,1.485,0,2.229
	C13.821,121.951,13.821,119.97,14.281,119.847z"/>
<path fill-rule="evenodd" clip-rule="evenodd" fill="#191919" d="M50.514,120.403c0.935-0.644,3.061-0.098,4.459-0.278
	C54.037,120.77,51.912,120.223,50.514,120.403z"/>
<path fill-rule="evenodd" clip-rule="evenodd" fill="#191919" d="M62.498,120.125c0.417,0.047,1.029-0.101,1.115,0.278
	C63.171,120.381,62.55,120.537,62.498,120.125z"/>
<path fill-rule="evenodd" clip-rule="evenodd" fill="#191919" d="M11.494,120.403c0,0.465,0,0.929,0,1.394
	C11.039,121.922,11.039,120.278,11.494,120.403z"/>
<path fill-rule="evenodd" clip-rule="evenodd" fill="#191919" d="M27.102,120.682c0.938-0.463,3.8-0.463,4.738,0
	C30.26,120.682,28.681,120.682,27.102,120.682z"/>
<path fill-rule="evenodd" clip-rule="evenodd" fill="#191919" d="M42.431,120.682c0.843-0.643,2.875-0.098,4.181-0.278
	C45.769,121.047,43.736,120.502,42.431,120.682z"/>
<path fill-rule="evenodd" clip-rule="evenodd" fill="#191919" d="M83.123,125.142c0.756,0.172,2.212-0.354,2.509,0.278
	C84.874,125.248,83.419,125.773,83.123,125.142z"/>
<path fill-rule="evenodd" clip-rule="evenodd" fill="#191919" d="M16.232,125.42c0.557,0,1.115,0,1.672,0
	C17.95,125.878,16.186,125.878,16.232,125.42z"/>
<path fill-rule="evenodd" clip-rule="evenodd" fill="#191919" d="M83.402,127.929c0.757,0.173,2.211-0.354,2.508,0.279
	C85.155,128.034,83.698,128.562,83.402,127.929z"/>
<path fill-rule="evenodd" clip-rule="evenodd" fill="#191919" d="M16.232,128.208c0.557,0,1.115,0,1.672,0
	C17.95,128.664,16.186,128.664,16.232,128.208z"/>
<path fill-rule="evenodd" clip-rule="evenodd" fill="#191919" d="M108.486,139.077c0.051-0.413,0.674-0.255,1.114-0.279
	C109.514,139.177,108.903,139.029,108.486,139.077z"/>
<path fill-rule="evenodd" clip-rule="evenodd" fill="#191919" d="M72.531,102.288c0.347-0.584,0.812-1.048,1.395-1.395
	C73.579,101.477,73.114,101.941,72.531,102.288z"/>
<path fill-rule="evenodd" clip-rule="evenodd" fill="#191919" d="M45.218,93.647c0.86,0.626,1.603,1.369,2.229,2.229
	C46.587,95.251,45.844,94.508,45.218,93.647z"/>
<path fill-rule="evenodd" clip-rule="evenodd" fill="#191919" d="M12.888,126.257c0.491,0.251,0.863,0.623,1.115,1.114
	C13.511,127.119,13.139,126.747,12.888,126.257z"/>
<path fill-rule="evenodd" clip-rule="evenodd" fill="#191919" d="M19.855,127.649c0.346-0.583,0.811-1.048,1.394-1.393
	C20.903,126.84,20.438,127.305,19.855,127.649z"/>
<path fill-rule="evenodd" clip-rule="evenodd" fill="#191919" d="M22.642,122.633c0.346-0.582,0.811-1.047,1.394-1.394
	C23.689,121.823,23.225,122.287,22.642,122.633z"/>
<path fill-rule="evenodd" clip-rule="evenodd" fill="#191919" d="M96.221,132.388c0.493,0.252,0.863,0.623,1.116,1.115
	C96.846,133.25,96.474,132.879,96.221,132.388z"/>
<path fill-rule="evenodd" clip-rule="evenodd" fill="#191919" d="M98.172,134.339c0.954,0.72,1.789,1.555,2.509,2.509
	C99.729,136.128,98.892,135.292,98.172,134.339z"/>
<path fill-rule="evenodd" clip-rule="evenodd" fill="#BDBDBD" d="M127.996,62.71c0.304-0.995,0.955-1.646,1.951-1.951
	C129.206,61.318,128.554,61.969,127.996,62.71z"/>
<path fill-rule="evenodd" clip-rule="evenodd" fill="#757575" d="M131.898,59.365c0.438-0.675,0.996-1.232,1.671-1.672
	C133.13,58.369,132.573,58.926,131.898,59.365z"/>
<path fill-rule="evenodd" clip-rule="evenodd" fill="#757575" d="M126.323,64.661c0.347-0.583,0.812-1.047,1.394-1.393
	c0.045,0.324-0.062,0.496-0.278,0.557c-0.402,0.156-0.681,0.435-0.837,0.836C126.508,64.661,126.415,64.661,126.323,64.661z"/>
<path fill-rule="evenodd" clip-rule="evenodd" fill="#BDBDBD" d="M88.697,64.661c-0.491-0.251-0.863-0.623-1.114-1.114
	C88.074,63.798,88.446,64.169,88.697,64.661z"/>
<path fill-rule="evenodd" clip-rule="evenodd" fill="#BDBDBD" d="M69.745,10.87c0.271-1.123,1.218-1.569,1.951-2.229
	C71.157,9.495,70.307,10.039,69.745,10.87z"/>
<path fill-rule="evenodd" clip-rule="evenodd" fill="#757575" d="M71.974,25.362c0.271,0.008,0.217,0.342,0.278,0.558
	c0.779-0.429,1.573-0.844,2.229-1.394c0.655,0.089,0.625,0.863,1.116,1.115c-0.559,0.835-1.949,0.838-2.229,1.951
	C72.925,26.827,72.239,26.306,71.974,25.362z"/>
<path fill-rule="evenodd" clip-rule="evenodd" fill="#BDBDBD" d="M129.947,57.415c0.639-0.476,1.196-1.033,1.671-1.672
	C131.405,56.644,130.846,57.201,129.947,57.415z"/>
<path fill-rule="evenodd" clip-rule="evenodd" fill="#323232" d="M97.616,6.689c0.187,0,0.37,0,0.557,0
	c0.194,0.225,0.435,0.763,0,0.836C98.327,6.907,97.642,7.128,97.616,6.689z"/>
<path fill-rule="evenodd" clip-rule="evenodd" fill="#323232" d="M99.845,10.591c0,0.278,0,0.557,0,0.836
	c-0.395,0.024-0.789,0.045-0.837-0.279C99.627,11.302,99.407,10.616,99.845,10.591z"/>
<path fill-rule="evenodd" clip-rule="evenodd" fill="#191919" d="M68.909,29.822c0.109,0.541-1.27,0.407-0.837-0.279
	C68.296,29.691,68.525,29.834,68.909,29.822z"/>
<path fill-rule="evenodd" clip-rule="evenodd" fill="#191919" d="M74.482,104.238c0.347-0.583,0.812-1.048,1.395-1.394
	C75.53,103.428,75.065,103.893,74.482,104.238z"/>
<path fill-rule="evenodd" clip-rule="evenodd" fill="#191919" d="M71.974,105.91c0.078-0.572,0.745-0.557,1.116-0.836
	C73.012,105.646,72.344,105.631,71.974,105.91z"/>
<path fill-rule="evenodd" clip-rule="evenodd" fill="#191919" d="M43.267,95.599c0.861,0.626,1.604,1.369,2.23,2.229
	C44.637,97.201,43.894,96.458,43.267,95.599z"/>
<path fill-rule="evenodd" clip-rule="evenodd" fill="#191919" d="M6.756,58.529c0.626-0.86,1.369-1.603,2.229-2.23
	C8.359,57.16,7.616,57.903,6.756,58.529z"/>
<path fill-rule="evenodd" clip-rule="evenodd" fill="#191919" d="M14.838,124.026c0.386,0.45,0.79,0.883,1.115,1.394
	C15.476,125.062,14.857,124.844,14.838,124.026z"/>
<path fill-rule="evenodd" clip-rule="evenodd" fill="#191919" d="M18.183,125.42c0.251-0.491,0.623-0.863,1.114-1.115
	C19.045,124.796,18.674,125.169,18.183,125.42z"/>
<path fill-rule="evenodd" clip-rule="evenodd" fill="#191919" d="M20.413,120.96c0.533-0.767,1.183-1.417,1.951-1.95
	C21.831,119.777,21.18,120.428,20.413,120.96z"/>
<path fill-rule="evenodd" clip-rule="evenodd" fill="#191919" d="M98.451,130.716c1.141,0.905,2.162,1.928,3.067,3.065
	C100.378,132.877,99.357,131.854,98.451,130.716z"/>
<path fill-rule="evenodd" clip-rule="evenodd" fill="#323232" d="M126.323,64.661c0.092,0,0.186,0,0.278,0
	c0.156-0.401,0.435-0.68,0.837-0.836c0,0.093,0,0.186,0,0.279c-0.378,0.086-0.232,0.698-0.278,1.115c0,0.65,0,1.301,0,1.95
	c0.022,0.442-0.134,1.064,0.278,1.115c0,0.279,0,0.558,0,0.836c0.152,0.405-0.326,1.441,0.278,1.394c0,0.278,0,0.558,0,0.836
	c0.022,0.441-0.134,1.063,0.279,1.115c0,0.372,0,0.743,0,1.115c0.023,0.44-0.135,1.063,0.278,1.114c0,0.372,0,0.744,0,1.115
	c0.023,0.44-0.135,1.063,0.278,1.115c0,0.371,0,0.743,0,1.114c0.024,0.441-0.134,1.063,0.278,1.115c0,0.464,0,0.929,0,1.394
	c0.024,0.44-0.134,1.063,0.278,1.115c0,0.371,0,0.743,0,1.114c0.024,0.441-0.132,1.063,0.278,1.115c0,0.37,0,0.743,0,1.115
	c0.024,0.44-0.132,1.063,0.281,1.114c0,0.557,0,1.114,0,1.672c0,1.207,0,2.416,0,3.623c0,0.558,0,1.115,0,1.673
	c-0.605-0.047-0.127,0.989-0.281,1.394c-0.313,3.803-0.899,6.354-2.228,9.197c-0.917,1.962-2.46,3.974-2.508,7.247
	c-0.629,0.207-0.11,1.563-0.28,2.229c-0.015,2.148-0.813,3.786-1.393,5.853c-0.728,2.587-1.101,4.381-2.23,6.41
	c-1.666,2.993-3.656,6.041-5.575,9.197c-0.435,0.719-0.663,1.392-1.113,1.951c-0.904,1.119-2.364,2.095-4.46,2.229
	c-0.44,0.024-1.063-0.134-1.114,0.279c-3.456,0.111-5.802-0.889-7.805-2.229c-0.72-0.954-1.555-1.789-2.509-2.509
	c-0.156-0.401-0.435-0.68-0.835-0.836c-0.253-0.492-0.623-0.863-1.116-1.115c-2.871-1.959-6.438-3.222-10.312-4.18
	c-0.297-0.634-1.751-0.106-2.508-0.279c-4.504,0.111-6.337-3.8-9.755-5.296c-1.669-0.73-3.36-0.726-5.017-1.114
	c-1.547-0.362-3.084-0.962-5.017-1.115c-0.086-0.379-0.698-0.231-1.115-0.278c-2.508,0-5.017,0-7.525,0
	c-1.398,0.181-3.524-0.365-4.459,0.278c-1.301,0-2.602,0-3.902,0c-1.306,0.181-3.337-0.364-4.181,0.278c-3.53,0-7.061,0-10.591,0
	c-0.938-0.463-3.8-0.463-4.738,0c-1.407-0.198-2.035,0.381-3.065,0.558c-0.583,0.347-1.048,0.812-1.394,1.394
	c-0.414,1.258-0.575,2.771-1.393,3.624c-0.583,0.345-1.048,0.81-1.394,1.393c-0.603,0.233-0.951,0.722-1.951,0.559
	c-0.558,0-1.115,0-1.672,0c-1.204,0.181-1.563-0.482-2.229-0.837c-0.252-0.491-0.624-0.863-1.115-1.114
	c-0.553-1.399-1.523-2.38-1.394-4.46c0-0.465,0-0.929,0-1.394c0.001-3.065,0.79-5.342,1.115-8.083
	c0.378-0.086,0.23-0.697,0.279-1.114c0-0.372,0-0.743,0-1.115c0.616-0.035,0.118-1.182,0.278-1.672c0-2.138,0-4.274,0-6.411
	c-0.153-0.404,0.326-1.44-0.278-1.393c-0.655-3.713-1.531-6.554-2.788-9.755c-0.107-0.274-0.483-0.644-0.557-0.837
	c-0.29-0.753-0.282-1.542-0.558-2.229c-0.5-1.246-1.375-2.323-1.672-3.623c-0.101-0.441,0.076-0.946,0-1.394
	c-0.166-0.578,0.345-1.831-0.279-1.951c0.003-1.902-0.52-3.611-1.394-5.017c-0.542-0.873-1.302-2.662-1.951-3.902
	c-1.201-2.294-2.849-3.994-3.345-6.967c0-0.836,0-1.672,0-2.508c0-0.558,0-1.115,0-1.672c1.048-2.156,3.395-3.374,5.295-5.017
	c0.06-0.052,0.534-0.226,0.558-0.279c0.525-1.164,1.889-2.39,3.066-3.345c0.085-0.069,0.2-0.522,0.279-0.558
	c0.142-0.063,0.429,0.085,0.557,0c0.104-0.069,0.188-0.517,0.279-0.558c0.149-0.066,0.417,0.081,0.558,0
	c1.051-0.607,1.931-1.474,3.902-1.393c0.441-0.024,1.063,0.134,1.115-0.279c0.372,0,0.744,0,1.115,0c1.021,0,2.043,0,3.065,0
	c1.457-0.116,2.359,1.057,3.624,1.116c1.34,0.062,2.126-0.764,3.623-0.836c0.372,0,0.743,0,1.115,0
	c3.878,1.285,8.592,2.99,13.657,5.017c1.946,0.779,4.278,1.893,6.41,3.066c1.213,0.667,1.805,0.789,2.787,1.951
	c0.996,1.179,1.871,2.452,1.672,5.017c-0.378,0.086-0.231,0.698-0.279,1.116c-0.056,1.059-0.247,1.982-0.557,2.787
	c-0.379,0.086-0.231,0.698-0.279,1.115c0,0.651,0,1.301,0,1.951c-0.615,0.035-0.118,1.183-0.279,1.673
	c-0.066,1.353-0.308,2.78-1.114,3.623c-0.183,0.19-0.226,0.896-0.558,1.394c-0.194,0.29-1.07,0.907-1.394,1.393
	c-0.194,0.292-0.066,0.336-0.279,0.559c-0.238,0.248-0.759,1.319-1.115,1.95c-0.646,1.146-1.31,2.489-1.951,3.623
	c-0.799,1.415-1.638,2.497-1.672,3.623c-0.049,1.548,0.909,2.771,1.672,4.182c0.625,0.86,1.369,1.604,2.229,2.229
	c2.413,0.936,4.768,0.913,6.967,1.394c1.226,0.268,2.649,1.268,3.902,1.951c0.774,0.422,1.368,0.616,2.23,1.114
	c1.747,1.012,3.943,2.929,6.41,3.624c0.038,0.458,1.914,0.458,1.952,0c1.42-0.345,2.5-1.03,3.622-1.672
	c0.583-0.347,1.048-0.812,1.395-1.395c1.93-2.438,2.854-5.877,3.622-9.477c0.379-0.086,0.232-0.698,0.28-1.114
	c0-0.372,0-0.743,0-1.115c0.377-0.086,0.23-0.698,0.279-1.115c-0.121-1.605,0.314-2.656,0.557-3.901
	c0.379-0.086,0.23-0.698,0.278-1.115c0-0.186,0-0.371,0-0.557c0.379-0.086,0.232-0.698,0.278-1.116
	c1.493-7.984,3.824-15.128,5.017-23.411c0.095,0,0.187,0,0.278,0c0.095,0,0.187,0,0.28,0c0.381,1.662,1.146,2.942,1.95,4.181
	c-0.918,0.891-0.592,2.26-0.836,3.345c-0.232,1.033-0.609,2.076-0.835,3.066c-1.421,6.217-3.147,12.543-4.182,19.231
	c-0.379,0.086-0.232,0.698-0.278,1.115c0,0.371,0,0.743,0,1.114c-0.379,0.087-0.232,0.697-0.278,1.115
	c-0.557,4.832-1.962,8.817-4.46,11.706c-0.583,0.346-1.048,0.811-1.395,1.394c-0.656,0.086-0.519,0.968-1.392,0.836
	c-0.371,0.279-1.038,0.264-1.116,0.836c-1.184,0.21-1.765,1.023-3.344,0.836c-0.465,0-0.93,0-1.394,0
	c-2.65-0.011-4.906-1.872-7.246-3.345c-0.933-0.586-1.996-1.103-3.066-1.672c-1.021-0.544-1.951-1.348-3.065-1.672
	c-1.855-0.541-4.688-0.294-6.689-1.115c-0.438-0.18-1.033-0.806-1.672-1.114c-0.626-0.86-1.369-1.604-2.23-2.229
	c-0.953-1.371-2.166-2.479-2.229-4.738c0-0.837,0-1.673,0-2.509c0.005-1.395,0.76-2.949,1.672-3.902
	c0.81-0.846,1.491-3.396,2.509-4.458c0.227-0.238,0.333-0.604,0.557-0.837c0.228-0.237,0.333-0.603,0.558-0.836
	c0.853-0.89,2.041-3.082,2.509-4.738c0.378-0.086,0.231-0.698,0.278-1.115c0-0.743,0-1.486,0-2.229
	c0.604,0.047,0.126-0.989,0.278-1.394c0.063-2.108,1.188-4.158,0.558-6.131c-0.709-2.223-4.574-3.63-7.247-4.739
	c-3.316-1.375-7.386-2.866-11.427-4.459c-1.052-0.415-2.384-1.085-2.787-1.115c-1.472-0.109-2.882,0.921-4.738,0.836
	c-1.709-0.079-2.424-0.752-3.624-1.115c-0.572-0.462-3.052-0.462-3.623,0c-3.529,0.373-5.856,1.948-7.525,4.18
	c-0.86,0.627-1.604,1.37-2.229,2.23c-1.315,1.1-3.189,1.642-3.624,3.623c-0.378,0.086-0.231,0.698-0.279,1.115
	c0.351,3.258,2.468,5.386,3.623,8.083c0.111,0.257,0.103,0.762,0.279,1.115c0.767,1.531,2.753,3.186,2.787,5.854
	c0.023,0.441-0.134,1.063,0.278,1.114c0,0.743,0,1.486,0,2.23c0.023,0.44-0.134,1.063,0.279,1.114
	c1.535,5.619,4.492,9.814,5.296,16.165c0.023,0.441-0.134,1.063,0.278,1.115c0,0.278,0,0.558,0,0.836
	c0.166,0.577-0.344,1.831,0.279,1.951c0,1.485,0,2.973,0,4.46c-0.628,0.207-0.109,1.563-0.279,2.229c0,0.372,0,0.744,0,1.116
	c-0.604-0.048-0.126,0.988-0.278,1.392c0,0.279,0,0.559,0,0.838c-0.378,0.086-0.231,0.697-0.279,1.113
	c-0.03,2.2-0.604,3.854-0.835,5.854c-0.46,0.123-0.46,2.104,0,2.229c0.046,0.79,0.511,1.162,0.557,1.951
	c0.019,0.817,0.637,1.035,1.115,1.394c0.093,0,0.186,0,0.279,0c-0.046,0.458,1.718,0.458,1.672,0c0.093,0,0.186,0,0.279,0
	c0.491-0.251,0.862-0.624,1.114-1.115c-0.044-1.53,0.674-2.299,1.115-3.345c0.768-0.532,1.418-1.183,1.951-1.95
	c0.785-0.237,1.144-0.9,2.23-0.836c0.441-0.023,1.063,0.133,1.115-0.278c6.225,0,12.449,0,18.674,0
	c1.213-0.181,3.15,0.363,3.902-0.278c1.3,0,2.601,0,3.902,0c1.953-0.184,4.641,0.367,6.131-0.28c0.929,0,1.857,0,2.787,0
	c0.297,0.634,1.752,0.106,2.509,0.28c1.982,0.016,4.162,0.655,6.132,1.113c1.645,0.382,3.453,0.589,4.737,1.116
	c3.226,1.319,5.089,4.709,8.641,5.295c0.297,0.632,1.751,0.106,2.509,0.278c5.281,0.758,9.506,2.572,12.819,5.296
	c0.906,1.138,1.928,2.161,3.067,3.065c2.044,1.956,5.704,3.054,8.36,2.229c1.757-0.545,2.526-2.11,3.624-3.901
	c0.405-0.66,0.865-1.887,1.393-2.788c0.196-0.333,0.609-0.434,0.837-0.835c0.203-0.359,0.063-0.752,0.279-1.115
	c0.065-0.112,0.513-0.183,0.557-0.279c0.192-0.425,0.227-0.828,0.557-1.394c1.244-2.117,2.118-3.358,2.789-5.852
	c0.489-1.827,1.078-4.619,1.671-6.411c0.604,0.047,0.126-0.988,0.278-1.395c0-0.742,0-1.485,0-2.229
	c0.379-0.086,0.232-0.698,0.28-1.115c0.061-2.965,2.136-4.951,3.065-7.525c1.016-2.814,1.22-5.54,1.673-9.197
	c0.463-0.938,0.463-3.8,0-4.738c0-0.464,0-0.929,0-1.394c-0.024-0.44,0.132-1.063-0.28-1.115c0-0.371,0-0.743,0-1.114
	c-0.022-0.441,0.134-1.063-0.278-1.114c0-0.373,0-0.744,0-1.116c-0.152-0.404,0.326-1.44-0.278-1.392c0-0.373,0-0.745,0-1.116
	c-0.022-0.44,0.134-1.063-0.279-1.114c0-0.372,0-0.743,0-1.115c-0.023-0.441,0.135-1.063-0.278-1.114c0-0.372,0-0.743,0-1.116
	c-0.023-0.44,0.135-1.063-0.278-1.113c0-0.372,0-0.743,0-1.115c-0.024-0.441,0.134-1.063-0.278-1.115c0-0.279,0-0.558,0-0.836
	c-0.024-0.441,0.132-1.063-0.278-1.115c0-0.372,0-0.743,0-1.115c-0.171-0.666,0.349-2.022-0.28-2.229c-0.093,0-0.185,0-0.279,0
	C124.838,65.406,125.477,64.931,126.323,64.661z"/>
<path fill-rule="evenodd" clip-rule="evenodd" fill="#757575" d="M98.73,4.181c0.4-1.273,0.681-2.665,0.837-4.181
	c0.637,0.292,1.681,0.177,2.229,0.557c-0.256,1.324-0.416,2.742-0.837,3.902C99.91,4.674,99.627,4.119,98.73,4.181z"/>
<path fill-rule="evenodd" clip-rule="evenodd" fill="#191919" d="M82.007,2.229c0.086-0.378,0.699-0.231,1.115-0.278
	c0,0.093,0,0.186,0,0.278C82.75,2.229,82.379,2.229,82.007,2.229z"/>
<path fill-rule="evenodd" clip-rule="evenodd" fill="#BDBDBD" d="M84.795,1.951c1.03,0.178,2.775-0.361,3.344,0.278
	c-1.113,0-2.229,0-3.344,0C84.795,2.137,84.795,2.044,84.795,1.951z"/>
<path fill-rule="evenodd" clip-rule="evenodd" fill="#191919" d="M82.566,5.017c0.086-0.378,0.697-0.231,1.114-0.279
	C83.594,5.116,82.983,4.969,82.566,5.017z"/>
<path fill-rule="evenodd" clip-rule="evenodd" fill="#757575" d="M100.403,7.525c-0.017,1.192-0.375,2.041-0.558,3.066
	c-0.438,0.025-0.218,0.711-0.837,0.557c-0.525-0.124-1.679,0.379-1.393-0.557c0.379-0.086,0.23-0.698,0.278-1.115
	c-0.162-0.905,0.19-1.297,0.278-1.951c0.435-0.073,0.194-0.611,0-0.836C98.744,7.14,100,6.907,100.403,7.525z"/>
<path fill-rule="evenodd" clip-rule="evenodd" fill="#191919" d="M97.894,9.477c-0.048,0.417,0.101,1.028-0.278,1.115
	C97.664,10.174,97.515,9.563,97.894,9.477z"/>
<path fill-rule="evenodd" clip-rule="evenodd" fill="#323232" d="M64.449,17.559c-0.46-0.124-0.46-2.105,0-2.229
	C64.449,16.072,64.449,16.815,64.449,17.559z"/>
<path fill-rule="evenodd" clip-rule="evenodd" fill="#191919" d="M67.236,15.608c0,0.464,0,0.929,0,1.394
	C66.781,17.127,66.781,15.482,67.236,15.608z"/>
<path fill-rule="evenodd" clip-rule="evenodd" fill="#323232" d="M129.668,35.954c0,0.464,0,0.929,0,1.393
	C129.211,37.473,129.211,35.828,129.668,35.954z"/>
<path fill-rule="evenodd" clip-rule="evenodd" fill="#757575" d="M132.176,51.84c0-4.831,0-9.661,0-14.493c-0.837,0-1.673,0-2.508,0
	c0-0.464,0-0.929,0-1.393c0.755-0.173,2.211,0.354,2.508-0.279c0.092,0,0.187,0,0.278,0c-0.088,4.397,0.063,10.874,0,16.165
	C132.363,51.84,132.268,51.84,132.176,51.84z"/>
<path fill-rule="evenodd" clip-rule="evenodd" fill="#191919" d="M134.963,54.07c0-5.574,0-11.148,0-16.723c0.092,0,0.187,0,0.278,0
	C135.055,42.829,135.612,49.053,134.963,54.07z"/>
<path fill-rule="evenodd" clip-rule="evenodd" fill="#323232" d="M132.455,51.84c-0.17,0.667,0.349,2.022-0.278,2.23
	c0-0.743,0-1.487,0-2.23C132.268,51.84,132.363,51.84,132.455,51.84z"/>
<path fill-rule="evenodd" clip-rule="evenodd" fill="#757575" d="M87.026,53.513c0.639,0.568,0.1,2.314,0.278,3.344
	C86.663,56.289,87.202,54.542,87.026,53.513z"/>
<path fill-rule="evenodd" clip-rule="evenodd" fill="#191919" d="M84.237,53.792c0.605-0.047,0.126,0.988,0.278,1.394
	C83.913,55.232,84.389,54.196,84.237,53.792z"/>
<path fill-rule="evenodd" clip-rule="evenodd" fill="#BDBDBD" d="M84.515,55.464c0.634,0.296,0.106,1.752,0.28,2.508
	c-0.094,0-0.186,0-0.28,0c0-0.557,0-1.115,0-1.672C84.515,56.021,84.515,55.743,84.515,55.464z"/>
<path fill-rule="evenodd" clip-rule="evenodd" fill="#191919" d="M94.55,66.612c0.649,0,1.301,0,1.949,0
	C96.463,67.071,94.586,67.071,94.55,66.612z"/>
<path fill-rule="evenodd" clip-rule="evenodd" fill="#757575" d="M104.027,64.661c-0.234,1.351,1.414,2.692-0.278,3.066
	c-1.497,0.102-0.558-2.231-1.673-2.508C102.404,64.712,103.528,65,104.027,64.661z"/>
<path fill-rule="evenodd" clip-rule="evenodd" fill="#323232" d="M115.173,68.842c0.465,0,0.93,0,1.395,0
	C116.694,69.297,115.049,69.297,115.173,68.842z"/>
<path fill-rule="evenodd" clip-rule="evenodd" fill="#FFFFFF" d="M64.449,15.329c0.044-0.17-0.058-0.391,0-0.557
	C66.971,7.483,73.028,3.15,82.007,2.229c0.372,0,0.743,0,1.115,0c0.558,0,1.114,0,1.673,0c1.114,0,2.23,0,3.344,0
	c3.799,0.383,6.97,1.392,10.591,1.951c0.897-0.062,1.18,0.493,2.229,0.279c4.828,1.333,11.434,2.34,18.116,3.623
	c2.987,0.574,6.15,1.139,8.92,1.951c3.491,1.026,6.162,2.335,6.968,6.132c0,1.672,0,3.345,0,5.016c0,0.744,0,1.487,0,2.23
	c0,2.694,0,5.389,0,8.083c0,1.486,0,2.973,0,4.459c0,0.464,0,0.929,0,1.393c0,5.575,0,11.148,0,16.723
	c-0.042,1.63-0.686,2.66-1.395,3.624c-0.675,0.44-1.232,0.997-1.671,1.672c-0.543,0.572-1.314,0.916-1.951,1.394
	c-0.996,0.305-1.647,0.956-1.951,1.951c-0.055,0.226-0.281,0.277-0.279,0.557c-0.582,0.346-1.047,0.811-1.394,1.393
	c-0.846,0.27-1.484,0.746-2.23,1.116c-3.091,0.438-4.403,2.655-7.524,3.065c-0.465,0-0.93,0-1.395,0
	c-4.171-0.566-5.808-3.667-10.033-4.181c0.2-0.452-1.313-0.452-1.113,0c-0.499,0.339-1.623,0.051-1.951,0.558
	c-1.802,0.522-3.126,1.52-5.576,1.394c-0.648,0-1.3,0-1.949,0c-2.566-0.035-4.518-0.686-5.854-1.952
	c-0.251-0.491-0.623-0.862-1.114-1.114c-0.326-0.418-0.806-0.682-0.837-1.394c-0.804-1.239-1.569-2.519-1.95-4.181
	c-0.174-0.756,0.354-2.211-0.28-2.508c0-0.093,0-0.186,0-0.279c-0.152-0.405,0.327-1.441-0.278-1.394
	c-0.272-4.426-3.029-7.749-5.017-11.148c-0.176-0.304-0.11-0.566-0.278-0.836c-2.492-4.008-5.567-8.695-8.082-13.1
	c-0.417-0.327-0.329-1.158-1.115-1.115c-1.172-3.937-4.255-5.964-5.296-10.034C64.449,16.815,64.449,16.072,64.449,15.329z
	 M84.237,4.738c-0.187,0-0.37,0-0.557,0c-0.417,0.048-1.028-0.099-1.114,0.279c-4.63,0.202-7.633,2.029-10.87,3.623
	c-0.733,0.66-1.681,1.107-1.951,2.229c-0.863,1.553-2.204,2.628-2.509,4.738c-0.455-0.125-0.455,1.519,0,1.394
	c0.115,1.17,0.644,1.802,1.115,2.509c0.402,0.602,1.014,1.071,1.394,1.671c0.221,0.352,0.078,0.761,0.278,1.115
	c0.184,0.326,0.646,0.513,0.837,0.836c0.415,0.709,0.661,1.496,1.114,2.229c0.265,0.943,0.951,1.465,1.395,2.23
	c2.639,4.105,5.074,8.146,7.524,12.263c2.393,4.021,5.544,8.08,6.133,13.657c0.176,1.03-0.363,2.776,0.278,3.344
	c1.111,3.348,2.352,6.567,6.409,6.968c0.572,0.462,3.053,0.462,3.624,0c1.563-0.294,2.868-0.847,4.181-1.393
	c1.185-0.488,3.136-0.208,4.738-0.279c4.68,0.041,6.198,4.594,10.59,3.902c1.16-0.183,2.351-1.544,3.902-2.23
	c1.148-0.507,2.837-0.604,3.623-1.114c0.757-0.491,1.014-1.483,1.673-2.23c0.759-0.86,1.816-1.639,2.508-1.951
	c0.505-0.228,0.739-0.945,1.395-1.114c0.899-0.214,1.458-0.771,1.671-1.672c0.222-0.521,0.467-1.021,0.559-1.673
	c0.627-0.208,0.108-1.563,0.278-2.23c0.063-5.291-0.088-11.768,0-16.165c0-3.809,0-7.618,0-11.427c0-0.557,0-1.114,0-1.672
	c0-0.279,0-0.558,0-0.836c0.463-0.846,0.463-3.613,0-4.459c-0.393-1.484-0.972-2.769-2.229-3.623
	c-0.417-0.283-1.497-0.42-1.951-0.558c-0.106-0.032-0.411-0.513-0.558-0.558c-1.893-0.575-4.421-0.626-6.968-1.115
	c-6.25-1.2-14.893-3.318-20.346-3.902C100,6.907,98.744,7.14,98.172,6.689c-0.187,0-0.37,0-0.557,0
	c-3.763-0.512-7.064-1.485-10.87-1.952C86.535,4.278,84.45,4.278,84.237,4.738z"/>
<path fill-rule="evenodd" clip-rule="evenodd" fill="#BDBDBD" d="M134.963,16.166c0.645,1.12,0.096,3.434,0.278,5.016
	c-0.092,0-0.187,0-0.278,0C134.963,19.51,134.963,17.838,134.963,16.166z"/>
<path fill-rule="evenodd" clip-rule="evenodd" fill="#757575" d="M69.745,27.592c0.786-0.043,0.698,0.788,1.115,1.115
	c-0.763,0.26-1.189,0.855-1.951,1.115c-0.384,0.012-0.612-0.131-0.837-0.279c-0.302-0.069-0.188-0.554-0.557-0.557
	C68.091,28.354,68.94,27.996,69.745,27.592z"/>
<path fill-rule="evenodd" clip-rule="evenodd" fill="#757575" d="M101.518,62.432c0.042-1.16-1.378-2.73,0.278-3.066
	c1.404-0.01,0.439,2.348,1.671,2.509c0.848,0.174,2.402-0.357,2.789,0.278C104.654,62.224,102.703,61.944,101.518,62.432z"/>
<path fill-rule="evenodd" clip-rule="evenodd" fill="#323232" d="M93.713,63.825c1.208,0,2.416,0,3.624,0
	C96.766,64.287,94.286,64.287,93.713,63.825z"/>
<path fill-rule="evenodd" clip-rule="evenodd" fill="#757575" d="M134.963,35.954c0.092,0,0.187,0,0.278,0
	c0.825-0.382,1.214,0.163,2.508,0c0,0.464,0,0.929,0,1.393c-0.835,0-1.673,0-2.508,0c-0.092,0-0.187,0-0.278,0
	C134.963,36.883,134.963,36.418,134.963,35.954z"/>
</svg>
