<?xml version="1.0" encoding="utf-8"?>
<!-- Generator: Adobe Illustrator 15.0.0, SVG Export Plug-In  -->
<!DOCTYPE svg PUBLIC "-//W3C//DTD SVG 1.1//EN" "http://www.w3.org/Graphics/SVG/1.1/DTD/svg11.dtd" [
	<!ENTITY ns_flows "http://ns.adobe.com/Flows/1.0/">
]>
<svg version="1.1"
	 xmlns="http://www.w3.org/2000/svg" xmlns:xlink="http://www.w3.org/1999/xlink" xmlns:a="http://ns.adobe.com/AdobeSVGViewerExtensions/3.0/"
	 x="0px" y="0px" width="142px" height="142px" viewBox="-3.278 -2.312 142 142" enable-background="new -3.278 -2.312 142 142"
	 xml:space="preserve">
<defs>
</defs>
<path fill-rule="evenodd" clip-rule="evenodd" fill="#191919" d="M82.288,0.319c0.118-0.623,1.372-0.112,1.949-0.278
	C84.117,0.664,82.865,0.154,82.288,0.319z"/>
<path fill-rule="evenodd" clip-rule="evenodd" fill="#191919" d="M86.746,0.041c0.404,0.152,1.44-0.326,1.394,0.278
	C87.735,0.167,86.699,0.645,86.746,0.041z"/>
<path fill-rule="evenodd" clip-rule="evenodd" fill="#191919" d="M80.058,0.599c0.086-0.379,0.697-0.231,1.113-0.279
	c-0.016,0.17-0.042,0.33-0.278,0.279C80.615,0.599,80.336,0.599,80.058,0.599z"/>
<path fill-rule="evenodd" clip-rule="evenodd" fill="#191919" d="M82.007,3.107c0.016-0.17,0.042-0.33,0.28-0.279
	c0.092,0,0.185,0,0.278,0c0.278,0,0.557,0,0.836,0C83.448,3.432,82.412,2.954,82.007,3.107z"/>
<path fill-rule="evenodd" clip-rule="evenodd" fill="#191919" d="M87.304,2.828c0.417,0.048,1.027-0.099,1.114,0.279
	C88.001,3.059,87.39,3.206,87.304,2.828z"/>
<path fill-rule="evenodd" clip-rule="evenodd" fill="#898989" d="M85.353,9.517c-0.046-0.457,1.717-0.457,1.673,0
	C86.466,9.517,85.91,9.517,85.353,9.517z"/>
<path fill-rule="evenodd" clip-rule="evenodd" fill="#191919" d="M64.449,13.419c0,0.65,0,1.301,0,1.951
	C63.99,15.332,63.99,13.457,64.449,13.419z"/>
<path fill-rule="evenodd" clip-rule="evenodd" fill="#191919" d="M134.963,14.255c0.378,0.086,0.23,0.697,0.278,1.115
	c-0.092,0-0.187,0-0.278,0c0-0.093,0-0.186,0-0.279C134.963,14.813,134.963,14.534,134.963,14.255z"/>
<path fill-rule="evenodd" clip-rule="evenodd" fill="#898989" d="M97.059,19.829c0-0.093,0-0.186,0-0.278
	c0.416,0.047,1.027-0.1,1.113,0.278C97.802,19.829,97.429,19.829,97.059,19.829z"/>
<path fill-rule="evenodd" clip-rule="evenodd" fill="#191919" d="M135.242,19.551c-0.187,6.782,0.37,14.307-0.278,20.625
	c0-1.208,0-2.415,0-3.623c0-0.093,0-0.186,0-0.279c0-0.743,0-1.486,0-2.229c0-0.187,0-0.372,0-0.558
	C135.147,28.933,134.592,23.639,135.242,19.551z"/>
<path fill-rule="evenodd" clip-rule="evenodd" fill="#898989" d="M87.304,22.059c0-0.372,0-0.743,0-1.115c0.928,0,1.857,0,2.787,0
	c0,0.465,0,0.929,0,1.394c-0.093,0-0.187,0-0.279,0c-0.036-0.615-1.182-0.118-1.673-0.278
	C87.861,22.059,87.583,22.059,87.304,22.059z"/>
<path fill-rule="evenodd" clip-rule="evenodd" fill="#191919" d="M132.455,21.223c0,1.021,0,2.044,0,3.065c0,0.093,0,0.186,0,0.279
	c0,1.673,0,3.345,0,5.017c0,0.186,0,0.372,0,0.557c0,0.372,0,0.743,0,1.115c0,0.093,0,0.186,0,0.279c0,2.322,0,4.646,0,6.968
	c0,0.186,0,0.372,0,0.558c0,2.044,0,4.088,0,6.131c-0.092,0-0.187,0-0.278,0c-0.17-0.016-0.33-0.041-0.278-0.279
	C132.733,37.667,131.62,28.47,132.455,21.223z"/>
<path fill-rule="evenodd" clip-rule="evenodd" fill="#191919" d="M87.026,22.059c0.092,0,0.184,0,0.278,0c0.278,0,0.557,0,0.835,0
	c0,0.093,0,0.186,0,0.278C87.723,22.291,87.112,22.437,87.026,22.059z"/>
<path fill-rule="evenodd" clip-rule="evenodd" fill="#898989" d="M94.829,23.452c0.371,0,0.743,0,1.114,0c0,0.093,0,0.187,0,0.279
	C95.526,23.684,94.916,23.831,94.829,23.452z"/>
<path fill-rule="evenodd" clip-rule="evenodd" fill="#898989" d="M99.008,23.731c0.372,0,0.745,0,1.115,0c0,0.093,0,0.186,0,0.279
	C99.708,23.963,99.096,24.109,99.008,23.731z"/>
<path fill-rule="evenodd" clip-rule="evenodd" fill="#898989" d="M98.172,26.519c0-0.093,0-0.186,0-0.278
	c0.405,0.152,1.44-0.326,1.395,0.278C99.102,26.519,98.637,26.519,98.172,26.519z"/>
<path fill-rule="evenodd" clip-rule="evenodd" fill="#898989" d="M78.107,29.027c0,0.372,0,0.743,0,1.115
	C77.654,30.341,77.654,28.828,78.107,29.027z"/>
<path fill-rule="evenodd" clip-rule="evenodd" fill="#898989" d="M110.995,37.667c0-0.093,0-0.186,0-0.279
	c0.665,0.169,2.021-0.35,2.229,0.279C112.481,37.667,111.738,37.667,110.995,37.667z"/>
<path fill-rule="evenodd" clip-rule="evenodd" fill="#898989" d="M103.467,41.569c0.463,0.3,0.463,2.486,0,2.787
	C103.467,43.427,103.467,42.498,103.467,41.569z"/>
<path fill-rule="evenodd" clip-rule="evenodd" fill="#191919" d="M17.068,47.421c0.48-0.461,2.864-0.461,3.344,0
	c-0.279,0-0.558,0-0.836,0c-0.279,0-0.558,0-0.836,0c-0.186,0-0.372,0-0.557,0C17.812,47.421,17.44,47.421,17.068,47.421z"/>
<path fill-rule="evenodd" clip-rule="evenodd" fill="#191919" d="M27.38,47.701c-0.199-0.452,1.314-0.452,1.115,0
	C28.124,47.701,27.752,47.701,27.38,47.701z"/>
<path fill-rule="evenodd" clip-rule="evenodd" fill="#898989" d="M105.418,47.701c0,0.464,0,0.929,0,1.393
	C104.964,49.22,104.964,47.575,105.418,47.701z"/>
<path fill-rule="evenodd" clip-rule="evenodd" fill="#191919" d="M16.511,50.209c0.571-0.462,3.051-0.462,3.623,0
	C18.926,50.209,17.718,50.209,16.511,50.209z"/>
<path fill-rule="evenodd" clip-rule="evenodd" fill="#333333" d="M132.176,50.488c0.379,0.086,0.23,0.698,0.278,1.115
	c-0.092,0-0.187,0-0.278,0C132.176,51.23,132.176,50.859,132.176,50.488z"/>
<path fill-rule="evenodd" clip-rule="evenodd" fill="#191919" d="M84.237,51.324c0.605-0.047,0.126,0.989,0.278,1.394
	c0,0.093,0,0.186,0,0.279s0,0.186,0,0.279C83.892,53.154,84.403,51.901,84.237,51.324z"/>
<path fill-rule="evenodd" clip-rule="evenodd" fill="#191919" d="M87.026,55.505c0-1.301,0-2.602,0-3.902
	C87.487,52.265,87.487,54.842,87.026,55.505z"/>
<path fill-rule="evenodd" clip-rule="evenodd" fill="#191919" d="M84.515,54.389c-0.152,0.405,0.327,1.441-0.278,1.394
	C84.389,55.378,83.913,54.342,84.515,54.389z"/>
<path fill-rule="evenodd" clip-rule="evenodd" fill="#191919" d="M87.026,56.619c-0.048,0.417,0.098,1.028-0.28,1.115
	c0-0.093,0-0.186,0-0.279c0-0.093,0-0.185,0-0.278C86.807,56.96,86.753,56.627,87.026,56.619z"/>
<path fill-rule="evenodd" clip-rule="evenodd" fill="#898989" d="M128.274,57.734c0-0.093,0-0.186,0-0.279c0.743,0,1.486,0,2.229,0
	C130.295,58.084,128.941,57.564,128.274,57.734z"/>
<path fill-rule="evenodd" clip-rule="evenodd" fill="#191919" d="M86.466,59.685c0.049-0.417-0.1-1.028,0.279-1.115
	C86.699,58.987,86.845,59.599,86.466,59.685z"/>
<path fill-rule="evenodd" clip-rule="evenodd" fill="#191919" d="M3.132,60.242c-0.047,0.417,0.1,1.029-0.279,1.115
	C2.901,60.94,2.754,60.329,3.132,60.242z"/>
<path fill-rule="evenodd" clip-rule="evenodd" fill="#191919" d="M0.345,60.521c0,0.836,0,1.672,0,2.508
	C-0.115,62.818-0.115,60.733,0.345,60.521z"/>
<path fill-rule="evenodd" clip-rule="evenodd" fill="#191919" d="M124.652,62.193c0,1.3,0,2.602,0,3.902
	C124.189,65.433,124.189,62.856,124.652,62.193z"/>
<path fill-rule="evenodd" clip-rule="evenodd" fill="#191919" d="M127.16,63.309c0.046-0.417-0.1-1.029,0.278-1.115
	C127.415,62.635,127.571,63.256,127.16,63.309z"/>
<path fill-rule="evenodd" clip-rule="evenodd" fill="#191919" d="M53.022,62.75c-0.023,0.442,0.134,1.063-0.279,1.116
	C52.791,63.449,52.644,62.837,53.022,62.75z"/>
<path fill-rule="evenodd" clip-rule="evenodd" fill="#191919" d="M127.438,66.374c-0.412-0.051-0.256-0.673-0.278-1.115
	C127.537,65.346,127.39,65.957,127.438,66.374z"/>
<path fill-rule="evenodd" clip-rule="evenodd" fill="#191919" d="M51.907,67.768c0.048-0.417-0.1-1.028,0.279-1.115
	C52.163,67.094,52.32,67.716,51.907,67.768z"/>
<path fill-rule="evenodd" clip-rule="evenodd" fill="#191919" d="M49.398,66.932c0,0.278,0,0.557,0,0.836c0,0.093,0,0.186,0,0.279
	c-0.015,0.17-0.041,0.33-0.278,0.279C49.272,67.92,48.794,66.885,49.398,66.932z"/>
<path fill-rule="evenodd" clip-rule="evenodd" fill="#191919" d="M127.438,67.21c0.604-0.047,0.127,0.989,0.278,1.394
	C127.112,68.651,127.59,67.615,127.438,67.21z"/>
<path fill-rule="evenodd" clip-rule="evenodd" fill="#191919" d="M124.93,69.162c0.092,0,0.185,0,0.278,0c0,0.278,0,0.557,0,0.835
	c0,0.093,0,0.187,0,0.279C124.795,70.225,124.952,69.603,124.93,69.162z"/>
<path fill-rule="evenodd" clip-rule="evenodd" fill="#191919" d="M127.716,69.44c0.379,0.086,0.23,0.698,0.279,1.115
	C127.583,70.503,127.739,69.881,127.716,69.44z"/>
<path fill-rule="evenodd" clip-rule="evenodd" fill="#191919" d="M51.907,69.719c-0.16,0.49,0.337,1.638-0.279,1.673
	C51.789,70.901,51.292,69.754,51.907,69.719z"/>
<path fill-rule="evenodd" clip-rule="evenodd" fill="#191919" d="M49.12,70.555c-0.047,0.417,0.1,1.029-0.278,1.115
	C48.888,71.252,48.742,70.641,49.12,70.555z"/>
<path fill-rule="evenodd" clip-rule="evenodd" fill="#191919" d="M125.208,71.392c0.413,0.051,0.255,0.673,0.278,1.113
	C125.075,72.454,125.231,71.832,125.208,71.392z"/>
<path fill-rule="evenodd" clip-rule="evenodd" fill="#191919" d="M127.996,71.948c0-0.092,0-0.187,0-0.278
	c0.378,0.086,0.23,0.698,0.278,1.114c-0.171-0.016-0.331-0.042-0.278-0.279C127.996,72.32,127.996,72.135,127.996,71.948z"/>
<path fill-rule="evenodd" clip-rule="evenodd" fill="#191919" d="M125.487,73.621c0.413,0.051,0.255,0.673,0.278,1.114
	C125.353,74.684,125.509,74.062,125.487,73.621z"/>
<path fill-rule="evenodd" clip-rule="evenodd" fill="#191919" d="M128.552,75.293c-0.605,0.047-0.126-0.988-0.278-1.394
	C128.878,73.853,128.4,74.889,128.552,75.293z"/>
<path fill-rule="evenodd" clip-rule="evenodd" fill="#191919" d="M125.765,75.851c0.171,0.016,0.331,0.041,0.279,0.278
	c0,0.279,0,0.558,0,0.836C125.631,76.914,125.79,76.292,125.765,75.851z"/>
<path fill-rule="evenodd" clip-rule="evenodd" fill="#191919" d="M128.552,76.129c0.605-0.047,0.126,0.988,0.278,1.394
	c-0.092,0-0.187,0-0.278,0c0-0.187,0-0.371,0-0.558c0-0.092,0-0.186,0-0.278C128.552,76.501,128.552,76.314,128.552,76.129z"/>
<path fill-rule="evenodd" clip-rule="evenodd" fill="#191919" d="M9.543,76.408c0.413,0.052,0.255,0.674,0.278,1.114
	C9.409,77.471,9.566,76.85,9.543,76.408z"/>
<path fill-rule="evenodd" clip-rule="evenodd" fill="#191919" d="M126.044,78.081c0.604-0.049,0.126,0.987,0.278,1.392
	C125.717,79.521,126.196,78.484,126.044,78.081z"/>
<path fill-rule="evenodd" clip-rule="evenodd" fill="#191919" d="M7.034,78.638c0.628,0.207,0.109,1.563,0.279,2.229
	C6.685,80.659,7.204,79.304,7.034,78.638z"/>
<path fill-rule="evenodd" clip-rule="evenodd" fill="#191919" d="M128.831,78.638c0.379,0.086,0.232,0.698,0.278,1.115
	C128.697,79.7,128.855,79.078,128.831,78.638z"/>
<path fill-rule="evenodd" clip-rule="evenodd" fill="#191919" d="M79.22,79.473c-0.046,0.418,0.101,1.03-0.278,1.116
	C78.966,80.147,78.808,79.525,79.22,79.473z"/>
<path fill-rule="evenodd" clip-rule="evenodd" fill="#191919" d="M9.821,79.753c0.413,0.051,0.255,0.673,0.279,1.114
	C9.688,80.815,9.844,80.193,9.821,79.753z"/>
<path fill-rule="evenodd" clip-rule="evenodd" fill="#191919" d="M126.323,80.589c0.412,0.051,0.256,0.673,0.278,1.114
	C126.188,81.651,126.346,81.029,126.323,80.589z"/>
<path fill-rule="evenodd" clip-rule="evenodd" fill="#191919" d="M129.109,80.867c0.379,0.086,0.232,0.698,0.278,1.115
	C128.977,81.931,129.133,81.309,129.109,80.867z"/>
<path fill-rule="evenodd" clip-rule="evenodd" fill="#191919" d="M78.942,81.146c-0.048,0.417,0.101,1.029-0.278,1.115
	C78.685,81.819,78.529,81.198,78.942,81.146z"/>
<path fill-rule="evenodd" clip-rule="evenodd" fill="#191919" d="M126.601,82.817c0.094,0,0.187,0,0.28,0c0,0.094,0,0.187,0,0.28
	c0,0.278,0,0.557,0,0.835C126.466,83.882,126.625,83.26,126.601,82.817z"/>
<path fill-rule="evenodd" clip-rule="evenodd" fill="#191919" d="M129.387,83.098c0.379,0.086,0.232,0.696,0.281,1.114
	c-0.171-0.016-0.331-0.042-0.281-0.279c0-0.092,0-0.186,0-0.278C129.387,83.469,129.387,83.282,129.387,83.098z"/>
<path fill-rule="evenodd" clip-rule="evenodd" fill="#191919" d="M126.881,85.326c0.463,0.938,0.463,3.8,0,4.738
	C126.881,88.485,126.881,86.905,126.881,85.326z"/>
<path fill-rule="evenodd" clip-rule="evenodd" fill="#191919" d="M80.893,85.884c-0.048,0.417,0.101,1.029-0.278,1.115
	c0-0.094,0-0.187,0-0.278C80.657,86.392,80.567,85.929,80.893,85.884z"/>
<path fill-rule="evenodd" clip-rule="evenodd" fill="#191919" d="M129.668,87.277c0-0.465,0-0.929,0-1.394
	c0.463,0.572,0.463,3.052,0,3.623c0-0.649,0-1.3,0-1.951C129.668,87.464,129.668,87.37,129.668,87.277z"/>
<path fill-rule="evenodd" clip-rule="evenodd" fill="#191919" d="M78.107,86.162c-0.049,0.417,0.098,1.029-0.279,1.115
	C77.85,86.837,77.694,86.215,78.107,86.162z"/>
<path fill-rule="evenodd" clip-rule="evenodd" fill="#191919" d="M41.037,86.441c0,0.371,0,0.743,0,1.114c0,0.187,0,0.372,0,0.558
	c0,0.372,0,0.744,0,1.115C40.576,88.928,40.576,86.742,41.037,86.441z"/>
<path fill-rule="evenodd" clip-rule="evenodd" fill="#191919" d="M80.336,88.113c0.092,0,0.185,0,0.278,0
	c-0.048,0.417,0.099,1.029-0.278,1.115c0-0.187,0-0.371,0-0.558C80.336,88.485,80.336,88.3,80.336,88.113z"/>
<path fill-rule="evenodd" clip-rule="evenodd" fill="#191919" d="M77.828,88.393c-0.048,0.416,0.099,1.028-0.28,1.114
	C77.572,89.065,77.416,88.444,77.828,88.393z"/>
<path fill-rule="evenodd" clip-rule="evenodd" fill="#191919" d="M129.668,91.18c-0.154,0.405,0.324,1.44-0.281,1.394
	C129.542,92.169,129.063,91.133,129.668,91.18z"/>
<path fill-rule="evenodd" clip-rule="evenodd" fill="#191919" d="M126.881,91.737c-0.048,0.416,0.099,1.028-0.28,1.114
	C126.649,92.435,126.5,91.823,126.881,91.737z"/>
<path fill-rule="evenodd" clip-rule="evenodd" fill="#191919" d="M15.674,98.147c-0.413-0.052-0.255-0.674-0.278-1.115
	C15.809,97.084,15.651,97.706,15.674,98.147z"/>
<path fill-rule="evenodd" clip-rule="evenodd" fill="#191919" d="M12.888,98.705c0.604-0.048,0.125,0.988,0.278,1.393
	C12.562,100.146,13.04,99.109,12.888,98.705z"/>
<path fill-rule="evenodd" clip-rule="evenodd" fill="#191919" d="M15.953,100.935c-0.623-0.12-0.113-1.374-0.279-1.951
	C16.297,99.104,15.788,100.356,15.953,100.935z"/>
<path fill-rule="evenodd" clip-rule="evenodd" fill="#191919" d="M66.957,102.05c0.65,0,1.301,0,1.952,0c0,0.092,0,0.185,0,0.278
	c-0.187,0-0.372,0-0.558,0C67.946,102.176,66.911,102.653,66.957,102.05z"/>
<path fill-rule="evenodd" clip-rule="evenodd" fill="#191919" d="M67.236,104.836c0.464,0,0.929,0,1.394,0
	C68.755,105.292,67.11,105.292,67.236,104.836z"/>
<path fill-rule="evenodd" clip-rule="evenodd" fill="#191919" d="M15.953,105.395c-0.169,0.666,0.35,2.021-0.279,2.229
	C15.844,106.957,15.325,105.602,15.953,105.395z"/>
<path fill-rule="evenodd" clip-rule="evenodd" fill="#191919" d="M13.166,106.509c-0.16,0.49,0.337,1.637-0.278,1.672
	C13.048,107.691,12.551,106.543,13.166,106.509z"/>
<path fill-rule="evenodd" clip-rule="evenodd" fill="#191919" d="M122.143,106.787c-0.048,0.417,0.099,1.029-0.28,1.115
	C121.911,107.485,121.765,106.874,122.143,106.787z"/>
<path fill-rule="evenodd" clip-rule="evenodd" fill="#191919" d="M15.396,110.131c0.152-0.403-0.326-1.439,0.278-1.392
	C15.522,109.144,16,110.18,15.396,110.131z"/>
<path fill-rule="evenodd" clip-rule="evenodd" fill="#191919" d="M124.372,109.296c0-0.094,0-0.187,0-0.278c0.094,0,0.186,0,0.28,0
	c-0.171,0.666,0.349,2.021-0.28,2.229C124.372,110.596,124.372,109.946,124.372,109.296z"/>
<path fill-rule="evenodd" clip-rule="evenodd" fill="#191919" d="M12.888,109.296c-0.048,0.417,0.099,1.028-0.279,1.114
	C12.632,109.97,12.475,109.348,12.888,109.296z"/>
<path fill-rule="evenodd" clip-rule="evenodd" fill="#191919" d="M121.863,110.131c-0.152,0.406,0.326,1.441-0.278,1.395
	C121.737,111.121,121.26,110.085,121.863,110.131z"/>
<path fill-rule="evenodd" clip-rule="evenodd" fill="#191919" d="M15.117,112.082c0.048-0.416-0.099-1.027,0.279-1.113
	C15.348,111.384,15.495,111.996,15.117,112.082z"/>
<path fill-rule="evenodd" clip-rule="evenodd" fill="#191919" d="M52.186,115.707c1.489-0.647,4.178-0.097,6.131-0.28
	c-0.016,0.171-0.042,0.33-0.279,0.28c-0.093,0-0.186,0-0.279,0c-0.836,0-1.672,0-2.508,0c-0.093,0-0.186,0-0.279,0
	c-0.836,0-1.672,0-2.508,0C52.371,115.707,52.279,115.707,52.186,115.707z"/>
<path fill-rule="evenodd" clip-rule="evenodd" fill="#191919" d="M61.104,115.427c0.757,0.174,2.212-0.354,2.509,0.28
	c-0.372,0-0.743,0-1.115,0c-0.093,0-0.186,0-0.279,0C61.802,115.658,61.191,115.806,61.104,115.427z"/>
<path fill-rule="evenodd" clip-rule="evenodd" fill="#191919" d="M44.103,115.985c0.844-0.644,2.875-0.099,4.181-0.278
	c-0.12,0.623-1.374,0.111-1.951,0.278c-0.093,0-0.186,0-0.278,0C45.403,115.985,44.753,115.985,44.103,115.985z"/>
<path fill-rule="evenodd" clip-rule="evenodd" fill="#191919" d="M14.281,117.937c0,0.743,0,1.485,0,2.229
	C13.821,120.041,13.821,118.06,14.281,117.937z"/>
<path fill-rule="evenodd" clip-rule="evenodd" fill="#191919" d="M50.514,118.493c0.935-0.644,3.061-0.098,4.459-0.278
	C54.037,118.859,51.912,118.313,50.514,118.493z"/>
<path fill-rule="evenodd" clip-rule="evenodd" fill="#191919" d="M62.219,118.215c0.372,0,0.743,0,1.115,0
	c0.17,0.015,0.33,0.041,0.279,0.278C63.208,118.34,62.172,118.819,62.219,118.215z"/>
<path fill-rule="evenodd" clip-rule="evenodd" fill="#191919" d="M11.494,118.493c0,0.278,0,0.557,0,0.836c0,0.093,0,0.186,0,0.279
	c0,0.092,0,0.186,0,0.278C11.039,120.012,11.039,118.368,11.494,118.493z"/>
<path fill-rule="evenodd" clip-rule="evenodd" fill="#191919" d="M27.102,118.771c0.663-0.463,3.239-0.463,3.902,0
	C29.703,118.771,28.402,118.771,27.102,118.771z"/>
<path fill-rule="evenodd" clip-rule="evenodd" fill="#191919" d="M42.431,118.771c0-0.092,0-0.186,0-0.278c0.093,0,0.186,0,0.279,0
	c1.301,0,2.601,0,3.902,0C45.769,119.137,43.736,118.592,42.431,118.771z"/>
<path fill-rule="evenodd" clip-rule="evenodd" fill="#191919" d="M83.123,123.231c0.756,0.172,2.212-0.354,2.509,0.278
	c-0.557,0-1.116,0-1.673,0c-0.092,0-0.187,0-0.278,0C83.463,123.448,83.131,123.502,83.123,123.231z"/>
<path fill-rule="evenodd" clip-rule="evenodd" fill="#191919" d="M16.232,123.51c0.557,0,1.115,0,1.672,0
	c-0.016,0.17-0.042,0.331-0.279,0.278c-0.185,0-0.372,0-0.557,0C16.74,123.745,16.277,123.837,16.232,123.51z"/>
<path fill-rule="evenodd" clip-rule="evenodd" fill="#191919" d="M83.402,126.019c0.757,0.173,2.211-0.354,2.508,0.279
	C85.155,126.124,83.698,126.651,83.402,126.019z"/>
<path fill-rule="evenodd" clip-rule="evenodd" fill="#191919" d="M16.232,126.298c0.557,0,1.115,0,1.672,0
	C17.95,126.754,16.186,126.754,16.232,126.298z"/>
<path fill-rule="evenodd" clip-rule="evenodd" fill="#191919" d="M108.486,137.167c0.051-0.413,0.674-0.255,1.114-0.279
	C109.514,137.267,108.903,137.119,108.486,137.167z"/>
<path fill-rule="evenodd" clip-rule="evenodd" fill="#191919" d="M65.007,11.468c0.093-0.65,0.285-1.201,0.836-1.393
	C65.516,10.491,65.496,11.214,65.007,11.468z"/>
<path fill-rule="evenodd" clip-rule="evenodd" fill="#191919" d="M72.531,100.378c0.347-0.584,0.812-1.048,1.395-1.395
	C73.579,99.566,73.114,100.031,72.531,100.378z"/>
<path fill-rule="evenodd" clip-rule="evenodd" fill="#191919" d="M45.218,91.737c0.86,0.626,1.603,1.369,2.229,2.229
	C46.587,93.341,45.844,92.598,45.218,91.737z"/>
<path fill-rule="evenodd" clip-rule="evenodd" fill="#191919" d="M12.888,124.347c0.491,0.251,0.863,0.623,1.115,1.114
	C13.511,125.209,13.139,124.837,12.888,124.347z"/>
<path fill-rule="evenodd" clip-rule="evenodd" fill="#191919" d="M19.855,125.739c0.346-0.583,0.811-1.048,1.394-1.393
	C20.903,124.93,20.438,125.395,19.855,125.739z"/>
<path fill-rule="evenodd" clip-rule="evenodd" fill="#191919" d="M22.642,120.723c0.346-0.582,0.811-1.047,1.394-1.394
	C23.689,119.913,23.225,120.377,22.642,120.723z"/>
<path fill-rule="evenodd" clip-rule="evenodd" fill="#191919" d="M96.221,130.478c0.493,0.252,0.863,0.623,1.116,1.115
	C96.846,131.34,96.474,130.969,96.221,130.478z"/>
<path fill-rule="evenodd" clip-rule="evenodd" fill="#191919" d="M98.172,132.429c0.954,0.72,1.789,1.555,2.509,2.509
	C99.729,134.218,98.892,133.382,98.172,132.429z"/>
<path fill-rule="evenodd" clip-rule="evenodd" fill="#191919" d="M132.455,10.075c0.491,0.251,0.863,0.623,1.114,1.115
	C133.078,10.938,132.706,10.566,132.455,10.075z"/>
<path fill-rule="evenodd" clip-rule="evenodd" fill="#898989" d="M132.176,45.192c0.092,0,0.187,0,0.278,0
	c0.017,0.17,0.042,0.33,0.278,0.279c0.156,0.401,0.436,0.68,0.836,0.836c0,0.279,0.227,0.332,0.278,0.557
	C133.172,46.425,132.615,45.867,132.176,45.192z"/>
<path fill-rule="evenodd" clip-rule="evenodd" fill="#191919" d="M130.503,12.025c0.491,0.252,0.863,0.624,1.114,1.115
	C131.126,12.888,130.756,12.517,130.503,12.025z"/>
<path fill-rule="evenodd" clip-rule="evenodd" fill="#898989" d="M118.241,36.273c0.583,0.346,1.048,0.811,1.393,1.394
	C119.05,37.321,118.585,36.856,118.241,36.273z"/>
<path fill-rule="evenodd" clip-rule="evenodd" fill="#898989" d="M93.713,20.944c0.557,0,1.115,0,1.673,0c0,0.465,0,0.929,0,1.394
	c-0.836,0-1.673,0-2.509,0c0.099,0.367,0.491,0.439,0.557,0.836c-0.853,0.001-1.21-1.926-0.557-2.508
	C92.921,20.992,93.386,20.9,93.713,20.944z"/>
<path fill-rule="evenodd" clip-rule="evenodd" fill="#191919" d="M92.877,20.666c0.124-0.248,0.244-0.498,0.557-0.558
	c-0.553,0.643,0.07,0.31,0.279,0.836C93.386,20.9,92.921,20.992,92.877,20.666z"/>
<path fill-rule="evenodd" clip-rule="evenodd" fill="#898989" d="M112.666,24.289c-0.583-0.346-1.048-0.81-1.393-1.393
	C111.856,23.241,112.321,23.706,112.666,24.289z"/>
<path fill-rule="evenodd" clip-rule="evenodd" fill="#191919" d="M113.502,25.682c0.491,0.252,0.863,0.624,1.114,1.115
	C114.125,26.545,113.753,26.174,113.502,25.682z"/>
<path fill-rule="evenodd" clip-rule="evenodd" fill="#191919" d="M124.372,27.076c0.252-0.492,0.625-0.863,1.115-1.115
	C125.235,26.453,124.864,26.824,124.372,27.076z"/>
<path fill-rule="evenodd" clip-rule="evenodd" fill="#333333" d="M91.483,8.402c0.77,0.533,1.419,1.184,1.951,1.951
	C92.667,9.82,92.016,9.17,91.483,8.402z"/>
<path fill-rule="evenodd" clip-rule="evenodd" fill="#898989" d="M80.058,9.795c0.345-0.583,0.809-1.047,1.392-1.393
	C81.104,8.985,80.639,9.45,80.058,9.795z"/>
<path fill-rule="evenodd" clip-rule="evenodd" fill="#333333" d="M80.893,17.321c0.859,0.626,1.603,1.37,2.229,2.23
	C82.261,18.925,81.518,18.181,80.893,17.321z"/>
<path fill-rule="evenodd" clip-rule="evenodd" fill="#898989" d="M134.963,52.438c0,0.186,0,0.372,0,0.558
	c0.631,0.575,1.845,0.569,2.508,1.115c0.078,0.45-0.265,0.48-0.278,0.836c-0.225,0.148-0.453,0.291-0.838,0.278
	c-0.885-0.042-1.226-0.631-2.229-0.557C134.703,54.223,134.47,52.967,134.963,52.438z"/>
<path fill-rule="evenodd" clip-rule="evenodd" fill="#898989" d="M77.828,34.601c-0.492-0.251-0.863-0.623-1.115-1.114
	C77.203,33.738,77.576,34.109,77.828,34.601z"/>
<path fill-rule="evenodd" clip-rule="evenodd" fill="#191919" d="M82.844,15.37c0.859,0.626,1.603,1.369,2.23,2.23
	C84.212,16.974,83.469,16.23,82.844,15.37z"/>
<path fill-rule="evenodd" clip-rule="evenodd" fill="#898989" d="M81.171,33.208c-0.092-1.022,0.311-1.549,0.558-2.23
	c0.646-0.089,1.069,0.044,1.394,0.278c0.074,1.003-0.515,1.344-0.557,2.23c0.044,0.327,0.507,0.235,0.836,0.278
	C83.035,34.293,81.169,33.97,81.171,33.208z"/>
<path fill-rule="evenodd" clip-rule="evenodd" fill="#333333" d="M120.192,42.962c0.491,0.251,0.861,0.624,1.114,1.115
	C120.815,43.826,120.443,43.454,120.192,42.962z"/>
<path fill-rule="evenodd" clip-rule="evenodd" fill="#898989" d="M116.568,38.225c0.491,0.251,0.863,0.624,1.116,1.115
	C117.191,39.087,116.82,38.716,116.568,38.225z"/>
<path fill-rule="evenodd" clip-rule="evenodd" fill="#898989" d="M105.418,35.437c0.493,0.252,0.864,0.624,1.116,1.115
	C106.042,36.3,105.671,35.929,105.418,35.437z"/>
<path fill-rule="evenodd" clip-rule="evenodd" fill="#898989" d="M90.648,24.01c0.49,0.251,0.863,0.623,1.113,1.115
	C91.271,24.873,90.9,24.501,90.648,24.01z"/>
<path fill-rule="evenodd" clip-rule="evenodd" fill="#898989" d="M106.256,17.6c0.603,0.046,0.126-0.989,0.278-1.394
	c0.521,0.407,1.848,0.011,2.229,0.558c-0.386,0.829-0.891,2.409,0.279,2.508c-1.208-0.278-2.57-0.401-3.625-0.835
	c0.279,0,0.56,0,0.838,0C106.256,18.157,106.256,17.878,106.256,17.6z"/>
<path fill-rule="evenodd" clip-rule="evenodd" fill="#898989" d="M112.946,20.944c0.673,0.44,1.232,0.998,1.671,1.672
	C113.941,22.177,113.384,21.619,112.946,20.944z"/>
<path fill-rule="evenodd" clip-rule="evenodd" fill="#191919" d="M89.812,10.632c0.676,0.44,1.232,0.998,1.671,1.672
	C90.808,11.865,90.251,11.307,89.812,10.632z"/>
<path fill-rule="evenodd" clip-rule="evenodd" fill="#333333" d="M107.649,10.353c0-0.278,0-0.558,0-0.836
	c0.396-0.024,0.789-0.046,0.837,0.278C107.867,9.643,108.087,10.328,107.649,10.353z"/>
<path fill-rule="evenodd" clip-rule="evenodd" fill="#323232" d="M109.043,9.795c1.058-0.561,1.104,1.268,0.557,1.394
	c0-0.372,0-0.743,0-1.115C109.276,10.12,109.105,10.013,109.043,9.795z"/>
<path fill-rule="evenodd" clip-rule="evenodd" fill="#333333" d="M87.026,22.059c-0.649-2.135,1.767-1.205,3.065-1.394
	c0,0.093,0,0.186,0,0.278c-0.93,0-1.859,0-2.787,0c0,0.373,0,0.744,0,1.115C87.209,22.059,87.118,22.059,87.026,22.059z"/>
<path fill-rule="evenodd" clip-rule="evenodd" fill="#191919" d="M98.451,128.806c1.141,0.905,2.162,1.928,3.067,3.065
	C100.378,130.967,99.357,129.943,98.451,128.806z"/>
<path fill-rule="evenodd" clip-rule="evenodd" fill="#191919" d="M20.413,119.05c0.533-0.767,1.183-1.417,1.951-1.95
	c-0.188,0.647-0.926,0.747-1.114,1.394c-0.238-0.051-0.263,0.108-0.279,0.278C20.69,118.771,20.638,118.997,20.413,119.05z"/>
<path fill-rule="evenodd" clip-rule="evenodd" fill="#191919" d="M18.183,123.51c0.251-0.491,0.623-0.863,1.114-1.115
	C19.045,122.886,18.674,123.259,18.183,123.51z"/>
<path fill-rule="evenodd" clip-rule="evenodd" fill="#191919" d="M6.756,56.619c0.626-0.86,1.369-1.603,2.229-2.23
	C8.359,55.25,7.616,55.993,6.756,56.619z"/>
<path fill-rule="evenodd" clip-rule="evenodd" fill="#191919" d="M41.316,85.048c0.093-0.65,0.286-1.2,0.836-1.394
	c0,0.093,0,0.187,0,0.278C41.578,84.01,41.89,84.972,41.316,85.048z"/>
<path fill-rule="evenodd" clip-rule="evenodd" fill="#191919" d="M43.267,93.688c0.861,0.626,1.604,1.369,2.23,2.229
	C44.637,95.291,43.894,94.548,43.267,93.688z"/>
<path fill-rule="evenodd" clip-rule="evenodd" fill="#191919" d="M71.974,104c0.078-0.572,0.745-0.557,1.116-0.836
	C73.012,103.736,72.344,103.721,71.974,104z"/>
<path fill-rule="evenodd" clip-rule="evenodd" fill="#191919" d="M74.482,102.328c0.347-0.583,0.812-1.048,1.395-1.394
	C75.53,101.518,75.065,101.982,74.482,102.328z"/>
<path fill-rule="evenodd" clip-rule="evenodd" fill="#333333" d="M136.355,55.225c0.385,0.013,0.613-0.13,0.838-0.278
	C137.625,55.632,136.246,55.766,136.355,55.225z"/>
<path fill-rule="evenodd" clip-rule="evenodd" fill="#333333" d="M80.615,84.769C80.683,84.79,81.019,84.457,80.615,84.769
	L80.615,84.769z"/>
<path fill-rule="evenodd" clip-rule="evenodd" fill="#333333" d="M13.166,119.05C13.187,118.982,12.854,118.645,13.166,119.05
	L13.166,119.05z"/>
<path fill-rule="evenodd" clip-rule="evenodd" fill="#333333" d="M135.242,15.37c-0.092,0-0.187,0-0.278,0c0-0.093,0-0.186,0-0.279
	c0-0.279,0-0.558,0-0.836c-0.042-1.444-0.741-2.232-1.395-3.066c-0.491-0.252-0.863-0.624-1.114-1.115
	c-0.37,0.02-0.358-0.412-0.557-0.558c-0.565-0.413-1.469-0.538-2.229-0.836c-2.419-0.95-5.147-1.45-7.806-1.951
	c-11.237-2.115-22.869-4.761-33.724-6.411c-0.404-0.152-1.44,0.326-1.394-0.278c-0.836,0-1.671,0-2.509,0
	c-0.12,0.623-1.372,0.113-1.949,0.278c-0.373,0-0.745,0-1.116,0c-0.016,0.17-0.042,0.33-0.278,0.279c-0.278,0-0.557,0-0.835,0
	c-6.754,1.145-11.711,4.084-14.215,9.476c-0.327,0.417-0.347,1.14-0.836,1.393c-0.234,0.603-0.722,0.951-0.558,1.951
	c0,0.65,0,1.301,0,1.951c0,0.372,0,0.743,0,1.115c2.033,3.275,4.275,6.925,6.131,10.034c0.541,0.904,0.947,1.486,1.395,2.23
	c0.522,0.869,0.981,1.541,1.395,2.229c0.723,1.211,1.264,2.348,2.229,3.344c-0.016,0.479,0.215,0.714,0.557,0.836
	c2.522,5.561,6.67,9.495,8.082,16.166c0.605-0.047,0.126,0.989,0.278,1.394c0,0.093,0,0.186,0,0.279s0,0.186,0,0.279
	c0,0.371,0,0.743,0,1.114c-0.152,0.405,0.327,1.441-0.278,1.394c-1.1,8.468-3.534,15.604-5.017,23.689
	c-0.046,0.418,0.101,1.03-0.278,1.116c0,0.186,0,0.371,0,0.557c-0.048,0.417,0.101,1.029-0.278,1.115
	c-0.242,1.245-0.678,2.296-0.557,3.901c-0.049,0.417,0.098,1.029-0.279,1.115c0,0.372,0,0.743,0,1.115
	c-0.048,0.416,0.099,1.028-0.28,1.114c-0.768,3.6-1.692,7.039-3.622,9.477c-0.347,0.583-0.812,1.048-1.395,1.395
	c-1.122,0.642-2.202,1.327-3.622,1.672c0,0.092,0,0.185,0,0.278c-0.187,0-0.372,0-0.558,0c-0.405-0.152-1.44,0.325-1.394-0.278
	c-5.425-1.915-8.334-6.344-15.05-6.968c-0.093,0-0.186,0-0.279,0c-1.289-0.477-2.917-0.614-4.18-1.115
	c-0.861-0.626-1.604-1.369-2.229-2.229c-0.764-1.423-1.722-2.613-1.672-4.182c0.03-0.974,0.875-2.417,1.115-2.787
	c1.268-1.956,2.215-4.018,3.344-5.853c1.676-2.724,3.757-4.763,3.623-7.524c0.161-0.49-0.336-1.638,0.279-1.673
	c0-0.65,0-1.3,0-1.951c0.048-0.417-0.1-1.028,0.279-1.115c0.311-0.804,0.501-1.728,0.557-2.787c0.047-0.417-0.1-1.029,0.279-1.116
	c-0.17-0.666,0.35-2.022-0.279-2.229c0.007-0.937-0.384-1.475-0.836-1.951c0-0.186,0-0.372,0-0.557
	c-2.854-2.592-6.728-4.042-10.591-5.575c-3.826-1.518-7.877-3.029-11.706-4.459c-0.093,0-0.186,0-0.279,0
	c-0.046-0.325-0.44-0.303-0.836-0.279c-0.372,0-0.743,0-1.115,0c-1.163-0.244-1.777,0.766-2.787,0.836
	c-1.562,0.107-2.617-0.849-4.181-1.116c-0.279,0-0.558,0-0.836,0c-0.279,0-0.558,0-0.836,0c-0.186,0-0.372,0-0.557,0
	c-0.372,0-0.743,0-1.115,0c-5.863-0.009-8.674,3.033-11.148,6.411c-0.466-0.106-0.933,0.5-1.394,0.836
	c-1.893,1.379-4.313,2.922-4.181,5.853c0,0.836,0,1.672,0,2.508c0,0.372,0,0.743,0,1.115c1.476,2.273,2.425,4.583,3.623,6.969
	c1.105,2.197,3.103,4.374,3.066,7.524c0.628,0.207,0.109,1.563,0.279,2.229c0.205,2.134,0.753,3.416,1.394,5.017
	c1.524,3.81,3.644,8.272,4.181,12.821c0.604-0.048,0.125,0.988,0.278,1.393c0,2.137,0,4.273,0,6.411
	c-0.16,0.49,0.337,1.637-0.278,1.672c0,0.372,0,0.743,0,1.115c-0.048,0.417,0.099,1.028-0.279,1.114
	c-0.326,2.741-1.114,5.018-1.115,8.083c0,0.278,0,0.557,0,0.836c0,0.093,0,0.186,0,0.279c0,0.092,0,0.186,0,0.278
	c-0.173,2.125,0.819,3.083,1.394,4.46c0.491,0.251,0.863,0.623,1.115,1.114c0.667,0.354,1.026,1.018,2.229,0.837
	c0.557,0,1.115,0,1.672,0c1,0.163,1.348-0.325,1.951-0.559c0.346-0.583,0.811-1.048,1.394-1.393
	c0.724-0.949,0.999-2.346,1.393-3.624c0.346-0.582,0.811-1.047,1.394-1.394c1.031-0.177,1.659-0.756,3.065-0.558
	c0.663-0.463,3.239-0.463,3.902,0c3.809,0,7.619,0,11.427,0c0-0.092,0-0.186,0-0.278c0.093,0,0.186,0,0.279,0
	c1.301,0,2.601,0,3.902,0c1.3,0,2.602,0,3.902,0c0.935-0.644,3.061-0.098,4.459-0.278c2.323,0,4.646,0,6.968,0
	c0.093,0,0.186,0,0.279,0c0.372,0,0.743,0,1.115,0c0.17,0.015,0.33,0.041,0.279,0.278c0.98,0.314,1.517,0.103,2.508,0.278
	c0.419,0.075,0.972,0.464,1.394,0.558c0.729,0.164,1.354,0.139,1.95,0.279c2.667,0.625,4.46,1.32,6.133,2.508
	c1.238,0.88,2.198,1.841,3.344,2.509c1.269,0.739,3.031,1.446,4.46,1.394c0.757,0.173,2.211-0.354,2.508,0.279
	c3.873,0.958,7.44,2.221,10.312,4.18c0.493,0.252,0.863,0.623,1.116,1.115c0.4,0.156,0.679,0.435,0.835,0.836
	c0.954,0.72,1.789,1.555,2.509,2.509c2.003,1.341,4.349,2.341,7.805,2.229c0.051-0.413,0.674-0.255,1.114-0.279
	c3.019-0.12,4.325-1.946,5.295-3.622c0.631-1.088,1.288-2.214,1.951-3.346c0.493-0.839,1.136-1.596,1.673-2.509
	c0.511-0.869,0.884-1.915,1.395-2.786c0.521-0.892,1.284-1.625,1.671-2.509c0.455-1.034,0.479-2.11,0.837-3.345
	c0.771-2.662,1.901-5.051,1.95-7.524c0-0.651,0-1.301,0-1.951c0-0.094,0-0.187,0-0.278c0.094,0,0.186,0,0.28,0
	c0.044-2.658,0.899-4,1.671-5.575c1.488-3.033,2.937-6.563,3.064-10.869c0.154-0.404-0.324-1.44,0.281-1.394
	c0-0.558,0-1.115,0-1.673c0-0.649,0-1.3,0-1.951c0-0.092,0-0.186,0-0.278c0-0.465,0-0.929,0-1.394c0-0.558,0-1.115,0-1.672
	c-0.171-0.016-0.331-0.042-0.281-0.279c0-0.092,0-0.186,0-0.278c0-0.186,0-0.372,0-0.557c0-0.372,0-0.745,0-1.115
	c-0.41-0.052-0.254-0.674-0.278-1.115c0-0.371,0-0.743,0-1.114c-0.412-0.053-0.254-0.675-0.278-1.115c0-0.372,0-0.743,0-1.115
	c-0.092,0-0.187,0-0.278,0c0-0.187,0-0.371,0-0.558c0-0.092,0-0.186,0-0.278c0-0.186,0-0.372,0-0.558c0-0.278,0-0.558,0-0.836
	c-0.605,0.047-0.126-0.988-0.278-1.394c0-0.371,0-0.743,0-1.115c-0.171-0.016-0.331-0.042-0.278-0.279c0-0.185,0-0.37,0-0.557
	c0-0.092,0-0.187,0-0.278c0-0.372,0-0.743,0-1.115c-0.413-0.052-0.257-0.674-0.279-1.115c0-0.278,0-0.558,0-0.836
	c-0.604,0.047-0.126-0.989-0.278-1.394c0-0.092,0-0.185,0-0.278c0-0.186,0-0.372,0-0.558c-0.412-0.051-0.256-0.673-0.278-1.115
	c0-0.649,0-1.3,0-1.95c0.046-0.417-0.1-1.029,0.278-1.115c0.613-2.639,3.162-3.342,4.738-5.017c-0.657-0.006-0.821,0.48-1.673,0.278
	c-0.208,0.629-1.563,0.109-2.229,0.279c0-0.093,0-0.186,0-0.279c-0.278,0-0.558,0-0.836,0c-0.094,0-0.186,0-0.278,0
	c-1.029,1.387-2.498,2.334-2.508,4.738c0,1.3,0,2.602,0,3.902c-0.207,1.321,0.313,1.917,0.278,3.066c0.092,0,0.185,0,0.278,0
	c0,0.278,0,0.557,0,0.835c0,0.093,0,0.187,0,0.279c0,0.372,0,0.743,0,1.115c0.413,0.051,0.255,0.673,0.278,1.113
	c0,0.373,0,0.744,0,1.116c0.413,0.051,0.255,0.673,0.278,1.114c0,0.372,0,0.743,0,1.115c0.171,0.016,0.331,0.041,0.279,0.278
	c0,0.279,0,0.558,0,0.836c0,0.371,0,0.743,0,1.116c0.604-0.049,0.126,0.987,0.278,1.392c0,0.372,0,0.743,0,1.116
	c0.412,0.051,0.256,0.673,0.278,1.114c0,0.371,0,0.743,0,1.114c0.094,0,0.187,0,0.28,0c0,0.094,0,0.187,0,0.28
	c0,0.278,0,0.557,0,0.835c0,0.465,0,0.93,0,1.394c0.463,0.938,0.463,3.8,0,4.738c0,0.558,0,1.115,0,1.673
	c-0.048,0.416,0.099,1.028-0.28,1.114c-0.567,2.508-0.783,5.058-1.671,7.246c-0.89,2.191-2.859,3.958-2.787,6.689
	c-0.048,0.417,0.099,1.029-0.28,1.115c0,0.743,0,1.486,0,2.229c-0.152,0.406,0.326,1.441-0.278,1.395
	c-0.718,2.243-1.148,4.461-1.671,6.411c-0.604,2.238-1.522,3.89-2.511,5.573c-2.079,3.547-3.992,6.884-6.13,10.034
	c-0.217,0.063-0.551,0.007-0.557,0.278c-3.364,1.247-7.339-0.036-9.198-1.951c-1.14-0.904-2.161-1.928-3.067-3.065
	c-3.313-2.724-7.538-4.538-12.819-5.296c-0.557,0-1.116,0-1.673,0c-0.092,0-0.187,0-0.278,0c-0.217-0.062-0.549-0.008-0.558-0.278
	c-1.917-0.294-3.047-1.398-4.181-2.229c-1.284-0.942-2.428-1.795-3.902-2.509c-3.094-1.497-7.443-2.3-11.427-2.786
	c-0.372,0-0.743,0-1.115,0c-0.093,0-0.186,0-0.279,0c-0.417-0.049-1.028,0.099-1.115-0.28c-0.929,0-1.857,0-2.787,0
	c-0.016,0.171-0.042,0.33-0.279,0.28c-0.093,0-0.186,0-0.279,0c-0.836,0-1.672,0-2.508,0c-0.093,0-0.186,0-0.279,0
	c-0.836,0-1.672,0-2.508,0c-0.093,0-0.186,0-0.278,0c-0.093,0-0.186,0-0.279,0c-1.208,0-2.416,0-3.623,0
	c-0.12,0.623-1.374,0.111-1.951,0.278c-0.093,0-0.186,0-0.278,0c-0.651,0-1.301,0-1.952,0c-0.185,0-0.371,0-0.557,0
	c-0.187,0-0.372,0-0.558,0c-4.181,0-8.361,0-12.542,0c-0.093,0-0.186,0-0.278,0c-2.993-0.021-6.21-0.266-7.804,1.114
	c-0.188,0.647-0.926,0.747-1.114,1.394c-0.238-0.051-0.263,0.108-0.279,0.278c-0.279-0.001-0.332,0.226-0.557,0.278
	c-0.441,1.046-1.16,1.814-1.115,3.345c-0.252,0.491-0.624,0.864-1.114,1.115c-0.093,0-0.186,0-0.279,0
	c-0.016,0.17-0.042,0.331-0.279,0.278c-0.185,0-0.372,0-0.557,0c-0.328-0.043-0.792,0.049-0.836-0.278
	c-1.147-0.618-1.6-1.931-1.951-3.345c-0.46-0.124-0.46-2.105,0-2.229c0.124-1.363,0.574-2.4,0.557-3.902c0-0.094,0-0.187,0-0.279
	c0.616-0.034,0.118-1.183,0.278-1.673c0.048-0.416-0.099-1.027,0.279-1.113c0-0.279,0-0.559,0-0.838
	c0.152-0.403-0.326-1.439,0.278-1.392c0-0.372,0-0.744,0-1.116c0.17-0.666-0.35-2.021,0.279-2.229c0-1.487,0-2.975,0-4.46
	c-0.623-0.12-0.113-1.374-0.279-1.951c0-0.278,0-0.558,0-0.836c-0.413-0.052-0.255-0.674-0.278-1.115
	c-0.804-6.351-3.761-10.546-5.296-16.165c-0.413-0.052-0.256-0.674-0.279-1.114c0-0.744,0-1.487,0-2.23
	c-0.413-0.052-0.255-0.673-0.278-1.114c-0.184-1.97-0.85-2.946-1.672-4.46c-0.271-0.499-0.864-0.877-1.115-1.394
	c-0.31-0.639-0.271-1.393-0.558-1.951c-1.2-2.334-3.237-4.532-3.345-7.247c0.048-0.417-0.099-1.029,0.279-1.115
	c0.434-1.981,2.308-2.523,3.624-3.623c0.626-0.86,1.369-1.603,2.229-2.23c1.669-2.232,3.997-3.807,7.525-4.18
	c0.571-0.462,3.051-0.462,3.623,0c0.899,0.216,1.647,0.583,2.229,1.115c2.363,0.608,4.249-0.862,5.574-0.836
	c1.104,0.021,3.377,1.106,5.575,1.951c3.903,1.501,7.347,2.883,10.87,4.459c1.924,0.861,4.126,1.561,5.016,2.787
	c1.594,2.194,0.11,4.921,0,7.247c0,0.278,0,0.557,0,0.836c0,0.093,0,0.186,0,0.279c-0.015,0.17-0.041,0.33-0.278,0.279
	c0,0.743,0,1.486,0,2.229c-0.047,0.417,0.1,1.029-0.278,1.115c-0.158,1.521-1.353,2.841-1.951,3.623
	c-0.182,0.238-0.09,0.578-0.279,0.836c-0.313,0.431-0.848,0.695-1.115,1.115c-0.619,0.976-0.851,2.084-1.394,3.065
	c-0.566,1.023-1.265,1.891-1.95,2.788c0,0.185,0,0.371,0,0.557c0,0.093,0,0.187,0,0.278c-0.574,0.077-0.263,1.039-0.836,1.115
	c-0.234,0.324-0.368,0.747-0.279,1.394c0,0.371,0,0.743,0,1.114c0,0.187,0,0.372,0,0.558c0,0.372,0,0.744,0,1.115
	c0.189,2.041,1.297,3.162,2.229,4.46c0.861,0.626,1.604,1.369,2.23,2.229c0.969,0.669,2.247,1.348,3.623,1.672
	c1.472,0.348,3.192,0.107,4.738,0.558c1.069,0.311,2.064,1.14,3.065,1.672c1.084,0.577,2.156,1.101,3.066,1.672
	c2.508,1.577,4.672,3.354,7.246,3.345c0.464,0,0.929,0,1.394,0c1.491,0.099,2.292-0.493,3.344-0.836
	c0.078-0.572,0.745-0.557,1.116-0.836c0.873,0.132,0.735-0.75,1.392-0.836c0.347-0.583,0.812-1.048,1.395-1.394
	c2.484-2.812,3.805-6.786,4.46-11.428c0-0.093,0-0.187,0-0.278c0-0.187,0-0.371,0-0.558c0-0.186,0-0.371,0-0.558
	c0.092,0,0.185,0,0.278,0c0-0.371,0-0.743,0-1.114c0-0.094,0-0.187,0-0.278c0.042-0.329-0.048-0.792,0.278-0.837
	c1.385-9.207,4.095-17.087,5.573-26.199c0.049-0.417-0.1-1.028,0.279-1.115c0-0.279,0-0.557,0-0.836c0-0.093,0-0.186,0-0.279
	c0-0.093,0-0.185,0-0.278c0.062-0.216,0.008-0.549,0.28-0.558c0-0.372,0-0.743,0-1.114c0-1.301,0-2.602,0-3.902
	c-0.299-6.206-4.041-8.967-5.854-13.657c-0.412,0.052-0.256,0.674-0.278,1.115c-0.693,0.042-1.158-0.144-1.395-0.558
	c0.333-0.783,0.627-1.602,0.838-2.508c-0.095,0-0.187,0-0.278,0c-0.356-0.016-0.387-0.357-0.838-0.278
	c-0.016-0.17-0.042-0.33-0.278-0.279c-0.569-0.082-0.547-0.754-1.114-0.836c-0.492-0.251-0.863-0.623-1.115-1.114
	c-0.061-0.313-0.309-0.434-0.558-0.558c-0.452-1.313-1.081-2.448-0.837-4.459c-2.162-2.678-4.279-6.801-6.131-9.754
	c-1.125-1.794-2.59-3.545-1.951-5.575c0.303-0.961,0.97-1.541,1.394-2.229c0.333-0.544,0.486-1.202,0.835-1.672
	c1.128-1.517,2.749-2.859,4.182-3.623c1.932-1.031,3.854-1.385,5.852-2.23c0.095,0,0.187,0,0.278,0
	c1.034,0.198,1.198-0.476,2.23-0.278c0.016-0.17,0.042-0.33,0.28-0.279c0.092,0,0.185,0,0.278,0c0.278,0,0.557,0,0.836,0
	c1.3,0,2.6,0,3.902,0c0.417,0.048,1.027-0.099,1.114,0.279c4.952,0.9,9.7,2.005,14.771,2.787c0.095,0,0.187,0,0.278,0
	c2.021,0.675,4.357,1.032,6.689,1.393c0.095,0,0.187,0,0.278,0c6.315,1.956,14.481,2.057,20.068,4.738
	c0.491,0.252,0.863,0.624,1.114,1.115c1.174,1.614,0.775,4.8,0.837,7.525c0,0.186,0,0.372,0,0.558c0,1.021,0,2.044,0,3.065
	c0,0.093,0,0.186,0,0.279c0,1.673,0,3.345,0,5.017c0,0.186,0,0.372,0,0.557c0,0.372,0,0.743,0,1.115c0,0.093,0,0.186,0,0.279
	c0,2.322,0,4.646,0,6.968c0,0.186,0,0.372,0,0.558c0,2.044,0,4.088,0,6.131c0.017,0.17,0.042,0.33,0.278,0.279
	c0.156,0.401,0.436,0.68,0.836,0.836c0,0.279,0.227,0.332,0.278,0.557c0,0.28,0.227,0.332,0.278,0.557
	c0.24,0.225,0.166,0.764,0.56,0.836c0.044,0.328-0.049,0.792,0.278,0.836c0.501-0.339-0.314-1.712,0-2.787c0-0.093,0-0.186,0-0.279
	c-0.068-3.517,0.444-3.907,0-5.853c0-1.208,0-2.415,0-3.623c0-0.093,0-0.186,0-0.279c0-0.743,0-1.486,0-2.229
	c0-0.187,0-0.372,0-0.558c0.184-4.553-0.371-9.847,0.278-13.936C135.242,18.157,135.242,16.764,135.242,15.37z M13.166,119.05
	C12.854,118.645,13.187,118.982,13.166,119.05L13.166,119.05z M80.615,84.769C81.019,84.457,80.683,84.79,80.615,84.769
	L80.615,84.769z"/>
<path fill-rule="evenodd" clip-rule="evenodd" fill="#333333" d="M107.649,10.632c-0.022,0.441,0.134,1.063-0.278,1.115
	C107.394,11.306,107.236,10.684,107.649,10.632z"/>
<path fill-rule="evenodd" clip-rule="evenodd" fill="#898989" d="M109.6,11.189c0.194,1.238-0.884,2.503,0.278,3.066
	c-1.004-0.11-1.869-0.361-2.787-0.558c-0.162-0.905,0.19-1.297,0.279-1.951c0.412-0.052,0.256-0.674,0.278-1.115
	c0-0.093,0-0.186,0-0.279c0.438-0.025,0.218-0.71,0.837-0.558c0.185,0,0.371,0,0.558,0c0.062,0.218,0.232,0.324,0.557,0.279
	C109.6,10.446,109.6,10.817,109.6,11.189z"/>
<path fill-rule="evenodd" clip-rule="evenodd" fill="#898989" d="M79.22,11.747c0,0.836,0,1.672,0,2.508
	C78.759,14.043,78.759,11.958,79.22,11.747z"/>
<path fill-rule="evenodd" clip-rule="evenodd" fill="#323232" d="M106.535,16.206c-0.152,0.405,0.324,1.44-0.278,1.394
	c0-0.465,0-0.929,0-1.394C106.348,16.206,106.441,16.206,106.535,16.206z"/>
<path fill-rule="evenodd" clip-rule="evenodd" fill="#191919" d="M94.829,17.042c0.124-0.46,2.105-0.46,2.23,0
	C96.316,17.042,95.572,17.042,94.829,17.042z"/>
<path fill-rule="evenodd" clip-rule="evenodd" fill="#333333" d="M94.829,19.829c0.207-0.628,1.563-0.108,2.23-0.278
	c0,0.093,0,0.186,0,0.278C96.316,19.829,95.572,19.829,94.829,19.829z"/>
<path fill-rule="evenodd" clip-rule="evenodd" fill="#333333" d="M88.139,22.059c0.491,0.161,1.637-0.337,1.673,0.278
	c-0.559,0-1.115,0-1.673,0C88.139,22.245,88.139,22.152,88.139,22.059z"/>
<path fill-rule="evenodd" clip-rule="evenodd" fill="#898989" d="M126.601,22.896c0-0.836,0-1.672,0-2.509
	C127.062,20.599,127.062,22.684,126.601,22.896z"/>
<path fill-rule="evenodd" clip-rule="evenodd" fill="#333333" d="M95.943,23.452c0.577,0.167,1.831-0.344,1.951,0.279
	c-0.651,0-1.3,0-1.951,0C95.943,23.639,95.943,23.545,95.943,23.452z"/>
<path fill-rule="evenodd" clip-rule="evenodd" fill="#333333" d="M100.124,23.731c0.405,0.152,1.44-0.326,1.395,0.279
	c-0.465,0-0.93,0-1.395,0C100.124,23.917,100.124,23.824,100.124,23.731z"/>
<path fill-rule="evenodd" clip-rule="evenodd" fill="#323232" d="M96.221,26.24c0.651,0,1.303,0,1.951,0c0,0.092,0,0.185,0,0.278
	C97.595,26.353,96.341,26.863,96.221,26.24z"/>
<path fill-rule="evenodd" clip-rule="evenodd" fill="#323232" d="M100.403,26.519c0.404,0.152,1.44-0.326,1.394,0.278
	C101.392,26.645,100.356,27.123,100.403,26.519z"/>
<path fill-rule="evenodd" clip-rule="evenodd" fill="#898989" d="M118.519,28.469c1.021,0,2.044,0,3.065,0
	C121.194,28.931,118.91,28.931,118.519,28.469z"/>
<path fill-rule="evenodd" clip-rule="evenodd" fill="#333333" d="M107.649,29.863c0-0.836,0-1.672,0-2.508
	C108.11,27.566,108.11,29.651,107.649,29.863z"/>
<path fill-rule="evenodd" clip-rule="evenodd" fill="#191919" d="M104.862,29.863c0.048-0.417-0.1-1.028,0.278-1.114
	C105.119,29.189,105.275,29.811,104.862,29.863z"/>
<path fill-rule="evenodd" clip-rule="evenodd" fill="#333333" d="M104.862,31.256c0,0.372,0,0.744,0,1.115c-0.092,0-0.187,0-0.278,0
	C104.631,31.955,104.483,31.343,104.862,31.256z"/>
<path fill-rule="evenodd" clip-rule="evenodd" fill="#898989" d="M104.862,32.372c0,0.557,0,1.115,0,1.672
	c-0.615-0.035-0.118-1.183-0.278-1.672C104.675,32.372,104.77,32.372,104.862,32.372z"/>
<path fill-rule="evenodd" clip-rule="evenodd" fill="#333333" d="M98.451,34.601c-0.046-0.457,1.72-0.457,1.673,0
	C99.567,34.601,99.008,34.601,98.451,34.601z"/>
<path fill-rule="evenodd" clip-rule="evenodd" fill="#333333" d="M109.6,34.601c0.44,0.024,1.063-0.133,1.116,0.279
	C110.273,34.857,109.652,35.014,109.6,34.601z"/>
<path fill-rule="evenodd" clip-rule="evenodd" fill="#898989" d="M112.108,34.88c0.94,0.176,2.589-0.359,3.065,0.278
	C114.236,34.982,112.585,35.518,112.108,34.88z"/>
<path fill-rule="evenodd" clip-rule="evenodd" fill="#191919" d="M98.451,37.388c-0.046-0.458,1.72-0.458,1.673,0
	C99.567,37.388,99.008,37.388,98.451,37.388z"/>
<path fill-rule="evenodd" clip-rule="evenodd" fill="#898989" d="M82.007,36.552c-1.01-0.267-0.282,1.203-0.836,1.393
	c-0.412,0.052-0.256,0.674-0.278,1.115c-0.693,0.042-1.158-0.144-1.395-0.558c0.333-0.783,0.627-1.602,0.838-2.508
	C80.529,36.544,81.891,35.926,82.007,36.552z"/>
<path fill-rule="evenodd" clip-rule="evenodd" fill="#898989" d="M94.55,37.388c1.021,0,2.044,0,3.065,0
	C97.225,37.85,94.939,37.85,94.55,37.388z"/>
<path fill-rule="evenodd" clip-rule="evenodd" fill="#333333" d="M109.6,37.388c0.465,0,0.93,0,1.395,0c0,0.093,0,0.186,0,0.279
	C110.587,37.514,109.552,37.993,109.6,37.388z"/>
<path fill-rule="evenodd" clip-rule="evenodd" fill="#333333" d="M109.322,51.045c0.052-0.413,0.673-0.256,1.113-0.279
	c0,0.093,0,0.186,0,0.279C110.065,51.045,109.692,51.045,109.322,51.045z"/>
<path fill-rule="evenodd" clip-rule="evenodd" fill="#898989" d="M110.435,50.766c0.758,0.173,2.214-0.354,2.511,0.279
	c-0.838,0-1.673,0-2.511,0C110.435,50.952,110.435,50.859,110.435,50.766z"/>
<path fill-rule="evenodd" clip-rule="evenodd" fill="#191919" d="M134.963,49.373c0.461,0.3,0.461,2.486,0,2.787
	C134.963,51.23,134.963,50.302,134.963,49.373z"/>
<path fill-rule="evenodd" clip-rule="evenodd" fill="#898989" d="M131.618,53.833c0-0.094,0-0.187,0-0.279
	c-0.854-0.446-2.435-0.167-2.509-1.394c0.401-0.369,0.703-1.275,1.395-0.557c0.657-0.187,1.77,1.174,1.673,0
	c0.092,0,0.187,0,0.278,0C132.367,52.536,132.167,53.36,131.618,53.833z"/>
<path fill-rule="evenodd" clip-rule="evenodd" fill="#898989" d="M106.813,53.554c0.836,0,1.673,0,2.509,0c0,0.092,0,0.185,0,0.279
	C108.564,53.66,107.11,54.186,106.813,53.554z"/>
<path fill-rule="evenodd" clip-rule="evenodd" fill="#333333" d="M109.322,53.554c0.37,0,0.743,0,1.113,0
	c-0.05,0.413-0.673,0.255-1.113,0.279C109.322,53.739,109.322,53.646,109.322,53.554z"/>
<path fill-rule="evenodd" clip-rule="evenodd" fill="#333333" d="M127.716,54.668c0.417,0.047,1.028-0.1,1.114,0.278
	C128.39,54.924,127.769,55.081,127.716,54.668z"/>
<path fill-rule="evenodd" clip-rule="evenodd" fill="#333333" d="M86.188,20.108c0.459,0.038,0.459,1.914,0,1.951
	C86.188,21.409,86.188,20.758,86.188,20.108z"/>
<path fill-rule="evenodd" clip-rule="evenodd" fill="#FFFFFF" d="M81.45,8.402c1.983-2.372,7.914-1.996,10.033,0
	c0.533,0.768,1.185,1.418,1.951,1.951c3.549,2.12,8.949,2.386,13.657,3.345c0.918,0.196,1.783,0.448,2.787,0.558
	c1.915,0.011,4.219,0.913,6.689,1.393c4.64,0.903,9.486,0.614,10.033,4.738c0,0.836,0,1.672,0,2.509
	c-0.211,1.182-0.595,2.19-1.114,3.065c-0.49,0.252-0.863,0.624-1.115,1.115c-0.87,0.522-1.537,1.25-2.787,1.393
	c-1.021,0-2.044,0-3.065,0c-1.585-0.272-2.829-0.886-3.902-1.672c-0.251-0.491-0.623-0.863-1.114-1.115
	c-0.086-0.657-0.968-0.519-0.837-1.394c-0.345-0.583-0.81-1.048-1.393-1.393c-3.729-1.661-8.771-2.007-13.101-3.066
	c-0.086-0.378-0.697-0.231-1.113-0.278c-0.668,0.17-2.023-0.35-2.23,0.278c-0.787-0.23-0.723,0.393-1.395,0.279
	c-0.313,0.06-0.433,0.31-0.557,0.558c-0.653,0.583-0.296,2.51,0.557,2.508c0.788-0.23,0.724,0.393,1.395,0.278
	c0.087,0.379,0.697,0.231,1.114,0.279c0.651,0,1.3,0,1.951,0c0.371,0,0.743,0,1.114,0c0.088,0.378,0.699,0.231,1.115,0.279
	c0.465,0,0.93,0,1.395,0c3.115,0.043,5.684,0.633,6.131,3.344c0,0.836,0,1.672,0,2.508c-0.008,1.451-0.64,2.904,0,4.181
	c0.603,0.233,0.951,0.722,1.951,0.557c0.052,0.414,0.673,0.256,1.116,0.279c0.462,0,0.927,0,1.392,0
	c0.478,0.638,2.128,0.102,3.065,0.278c1.223,0.173,2.402,0.388,3.067,1.115c0.345,0.583,0.81,1.047,1.393,1.394
	c0.423,0.617,1.105,1.295,1.395,1.672c0.174,0.228,0.09,0.598,0.278,0.836c1.134,1.437,2.009,2.035,3.902,2.508
	c2.206,0.552,5.309,1.26,6.689,2.229c-0.052,0.238,0.108,0.263,0.278,0.279c0.438,0.675,0.996,1.233,1.671,1.672
	c0,0.28,0.227,0.332,0.278,0.557c0.24,0.225,0.166,0.764,0.56,0.836c0.044,0.328-0.049,0.792,0.278,0.836c0,0.093,0,0.187,0,0.279
	c0,0.929,0,1.857,0,2.787c0,0.093,0,0.186,0,0.279c-0.493,0.529-0.261,1.785-0.838,2.23c-0.198,1.288-1.128,1.844-1.949,2.508
	c-0.657-0.006-0.821,0.48-1.673,0.278c-0.743,0-1.486,0-2.229,0c-0.278,0-0.558,0-0.836,0c-0.094,0-0.186,0-0.278,0
	c-2.782-0.339-5.815-1.083-7.805-1.672c-2.17-0.643-4.283-1.447-6.131-1.951c-0.972-0.265-1.835-0.361-2.789-0.279
	c-0.37,0-0.743,0-1.113,0c-0.836,0-1.673,0-2.509,0c-1.774-0.646-3.809-1.941-4.181-4.181c-0.276-1.661,0.431-3.272,0.835-5.017
	c0.463-0.301,0.463-2.486,0-2.787c-0.242-1.987-1.29-3.168-2.508-4.181c-0.278,0-0.557,0-0.836,0c0.047-0.458-1.719-0.458-1.673,0
	c-0.278,0-0.557,0-0.835,0c-1.021,0-2.044,0-3.065,0c-3.135-0.71-3.119-3.033-5.575-3.066c-1.1-0.014-1.943,0.937-3.065,1.394
	c-1.186,0.483-2.574,1.148-3.902,0.836c-0.116-0.626-1.479-0.008-1.671-0.558c-0.095,0-0.187,0-0.278,0
	c-0.356-0.016-0.387-0.357-0.838-0.278c-0.016-0.17-0.042-0.33-0.278-0.279c-0.569-0.082-0.547-0.754-1.114-0.836
	c-0.252-0.491-0.625-0.863-1.115-1.114c-0.061-0.313-0.309-0.434-0.558-0.558c-0.452-1.313-1.081-2.448-0.837-4.459
	c0.633-1.915,1.322-2.755,2.789-3.623c0.236-0.141,0.536-0.407,0.835-0.558c1.176-0.592,2.667-0.741,3.624-1.393
	c1.002-0.685,1.707-2.283,0.557-3.345c-0.627-0.86-1.37-1.604-2.229-2.23c-0.601-0.979-1.517-1.642-1.673-3.065
	c0-0.836,0-1.672,0-2.508c-0.122-1.052,0.549-1.309,0.838-1.952C80.639,9.45,81.104,8.985,81.45,8.402z M85.353,9.517
	c-2.769,0.274-4.854,3.695-2.509,5.853c0.625,0.86,1.368,1.604,2.23,2.23c0.418,0.788,1.126,1.288,1.113,2.508
	c0,0.65,0,1.301,0,1.951c-0.28,4.736-6.939,3.094-8.081,6.968c-0.453-0.199-0.453,1.314,0,1.115c0.395,1.648,1.376,2.71,3.064,3.066
	c-0.002,0.762,1.863,1.085,2.23,0.557c2.99-1.137,3.788-2.694,6.689-2.229c2.224,0.356,3.655,3.14,5.852,3.345
	c0.793,0.073,1.729-0.307,2.508-0.279c0.558,0,1.116,0,1.673,0c5.794,0.196,7.272,7.739,5.295,13.1
	c-0.454-0.126-0.454,1.519,0,1.393c0.47,0.834,1.276,1.326,1.952,1.952c0.65,0,1.3,0,1.951,0c0.37,0,0.743,0,1.113,0
	c0.838,0,1.673,0,2.511,0c5.024,1.107,8.976,3.286,14.771,3.623c0.053,0.413,0.674,0.255,1.114,0.278
	c1.549,0.248,2.16-0.441,2.787-1.114c0.549-0.473,0.749-1.297,0.837-2.23c-0.048-0.417,0.101-1.029-0.278-1.115
	c-0.309-5.453-7.768-3.753-10.87-6.411c-0.253-0.491-0.623-0.863-1.114-1.115c-0.827-1.218-1.999-2.09-2.508-3.623
	c-0.253-0.491-0.625-0.863-1.116-1.115c-1.229-0.072-1.745-0.855-3.344-0.558c-0.208-0.628-1.564-0.109-2.229-0.279
	c-0.465,0-0.93,0-1.395,0c-1.136-0.166-2.475-0.127-3.065-0.836c-0.252-0.492-0.623-0.863-1.116-1.115
	c-0.412-0.237-0.599-0.702-0.557-1.393c0-0.558,0-1.116,0-1.672c0-0.372,0-0.743,0-1.115c0-0.464,0-0.929,0-1.394
	c0.413-0.052,0.257-0.673,0.278-1.114c0-0.373,0-0.744,0-1.115c-0.913-0.479-1.907-0.879-3.344-0.836
	c0.047-0.604-0.989-0.126-1.394-0.278c-0.279,0-0.558,0-0.836,0c0.046-0.604-0.989-0.126-1.395-0.278c-0.648,0-1.3,0-1.951,0
	c-1.857,0-3.518-0.199-4.46-1.115c-0.25-0.492-0.623-0.863-1.113-1.115c-0.487-0.256-0.615-0.872-0.557-1.673
	c0-0.464,0-0.929,0-1.394c0-0.092,0-0.186,0-0.278c0.456-2.329,2.049-3.524,4.737-3.623c0.743,0,1.487,0,2.23,0
	c3.173,0.078,5.521,0.981,8.359,1.394c1.055,0.434,2.417,0.557,3.625,0.835c1.508,0.351,3.047,0.669,3.902,1.672
	c0.438,0.675,0.995,1.233,1.671,1.672c1.34,1.746,3.592,3.951,6.411,3.345c0.517-0.111,2.117-1.252,2.508-1.951
	c0.324-0.58,0.673-2.67,0.557-3.066c-0.597-2.039-4.649-1.975-7.246-2.508c-2.995-0.616-5.605-1.25-8.082-1.672
	c-0.382-0.547-1.708-0.15-2.229-0.558c-0.094,0-0.187,0-0.278,0c-5.419-0.807-11.231-1.218-14.773-3.902
	c-0.438-0.674-0.995-1.232-1.671-1.672c-0.978-0.323-1.504-1.097-2.786-1.115C87.07,9.06,85.307,9.06,85.353,9.517z"/>
</svg>
