<?xml version="1.0" encoding="utf-8"?>
<!-- Generator: Adobe Illustrator 15.0.0, SVG Export Plug-In  -->
<!DOCTYPE svg PUBLIC "-//W3C//DTD SVG 1.1//EN" "http://www.w3.org/Graphics/SVG/1.1/DTD/svg11.dtd" [
	<!ENTITY ns_flows "http://ns.adobe.com/Flows/1.0/">
]>
<svg version="1.1"
	 xmlns="http://www.w3.org/2000/svg" xmlns:xlink="http://www.w3.org/1999/xlink" xmlns:a="http://ns.adobe.com/AdobeSVGViewerExtensions/3.0/"
	 x="0px" y="0px" width="142px" height="142px" viewBox="-18.609 -2.328 142 142" enable-background="new -18.609 -2.328 142 142"
	 xml:space="preserve">
<defs>
</defs>
<path fill-rule="evenodd" clip-rule="evenodd" fill="#1A1A1A" d="M72.529,0.303c0.086-0.378,0.697-0.231,1.114-0.278
	C73.592,0.437,72.971,0.28,72.529,0.303z"/>
<path fill-rule="evenodd" clip-rule="evenodd" fill="#1A1A1A" d="M68.349,4.763c0,0.836,0,1.672,0,2.508
	C67.888,7.059,67.888,4.974,68.349,4.763z"/>
<path fill-rule="evenodd" clip-rule="evenodd" fill="#1A1A1A" d="M73.365,14.239c0.615,0.034,0.118,1.182,0.278,1.672
	C73.028,15.876,73.525,14.729,73.365,14.239z"/>
<path fill-rule="evenodd" clip-rule="evenodd" fill="#1A1A1A" d="M76.151,14.796c0.605-0.047,0.127,0.989,0.278,1.394
	C75.827,16.236,76.306,15.201,76.151,14.796z"/>
<path fill-rule="evenodd" clip-rule="evenodd" fill="#1A1A1A" d="M73.644,17.304c0.604-0.047,0.126,0.989,0.278,1.394
	C73.319,18.745,73.796,17.709,73.644,17.304z"/>
<path fill-rule="evenodd" clip-rule="evenodd" fill="#1A1A1A" d="M76.43,17.583c0.605-0.047,0.127,0.988,0.281,1.393
	C76.105,19.024,76.584,17.988,76.43,17.583z"/>
<path fill-rule="evenodd" clip-rule="evenodd" fill="#1A1A1A" d="M97.056,19.534c0.629,0.207,0.109,1.563,0.278,2.229
	C96.707,21.556,97.226,20.2,97.056,19.534z"/>
<path fill-rule="evenodd" clip-rule="evenodd" fill="#1A1A1A" d="M73.922,19.813c0.413,0.052,0.257,0.674,0.28,1.115
	C73.823,20.841,73.97,20.23,73.922,19.813z"/>
<path fill-rule="evenodd" clip-rule="evenodd" fill="#1A1A1A" d="M99.842,19.813c0.633,0.296,0.106,1.752,0.28,2.508
	C99.489,22.025,100.017,20.569,99.842,19.813z"/>
<path fill-rule="evenodd" clip-rule="evenodd" fill="#1A1A1A" d="M76.711,20.091c0.412,0.052,0.254,0.673,0.278,1.115
	C76.576,21.155,76.732,20.533,76.711,20.091z"/>
<path fill-rule="evenodd" clip-rule="evenodd" fill="#1A1A1A" d="M76.989,22.042c0.412,0.051,0.254,0.673,0.278,1.115
	C76.854,23.105,77.011,22.483,76.989,22.042z"/>
<path fill-rule="evenodd" clip-rule="evenodd" fill="#1A1A1A" d="M97.334,23.715c0.629,0.208,0.11,1.563,0.28,2.229
	C96.985,25.737,97.504,24.381,97.334,23.715z"/>
<path fill-rule="evenodd" clip-rule="evenodd" fill="#1A1A1A" d="M74.48,23.994c0.413,0.052,0.255,0.673,0.279,1.115
	C74.381,25.022,74.527,24.41,74.48,23.994z"/>
<path fill-rule="evenodd" clip-rule="evenodd" fill="#1A1A1A" d="M100.122,24.272c0.627,0.208,0.108,1.563,0.278,2.23
	C99.771,26.294,100.291,24.939,100.122,24.272z"/>
<path fill-rule="evenodd" clip-rule="evenodd" fill="#1A1A1A" d="M74.76,26.224c0.412,0.051,0.254,0.673,0.278,1.114
	C74.659,27.251,74.806,26.64,74.76,26.224z"/>
<path fill-rule="evenodd" clip-rule="evenodd" fill="#1A1A1A" d="M77.546,26.224c0.413,0.051,0.255,0.673,0.278,1.114
	C77.412,27.286,77.57,26.665,77.546,26.224z"/>
<path fill-rule="evenodd" clip-rule="evenodd" fill="#1A1A1A" d="M97.614,27.896c0.623,0.12,0.112,1.374,0.278,1.951
	C97.268,29.727,97.778,28.473,97.614,27.896z"/>
<path fill-rule="evenodd" clip-rule="evenodd" fill="#1A1A1A" d="M75.038,28.453c0.614,0.035,0.118,1.183,0.278,1.672
	C74.701,30.09,75.198,28.942,75.038,28.453z"/>
<path fill-rule="evenodd" clip-rule="evenodd" fill="#1A1A1A" d="M100.4,28.453c0.628,0.208,0.108,1.564,0.279,2.23
	C100.05,30.475,100.571,29.119,100.4,28.453z"/>
<path fill-rule="evenodd" clip-rule="evenodd" fill="#1A1A1A" d="M77.824,28.732c0.623,0.12,0.112,1.373,0.278,1.951
	C77.479,30.563,77.991,29.309,77.824,28.732z"/>
<path fill-rule="evenodd" clip-rule="evenodd" fill="#1A1A1A" d="M97.893,31.797c0.627,0.208,0.108,1.563,0.278,2.23
	C97.542,33.819,98.061,32.463,97.893,31.797z"/>
<path fill-rule="evenodd" clip-rule="evenodd" fill="#1A1A1A" d="M75.316,32.912c0.465,3.161,0.465,8.267,0,11.428
	C75.316,40.53,75.316,36.721,75.316,32.912z"/>
<path fill-rule="evenodd" clip-rule="evenodd" fill="#1A1A1A" d="M100.68,32.912c0.623,0.121,0.112,1.374,0.278,1.952
	C100.335,34.743,100.844,33.49,100.68,32.912z"/>
<path fill-rule="evenodd" clip-rule="evenodd" fill="#1A1A1A" d="M98.171,35.978c0.459,0.038,0.459,1.913,0,1.951
	C98.171,37.279,98.171,36.628,98.171,35.978z"/>
<path fill-rule="evenodd" clip-rule="evenodd" fill="#1A1A1A" d="M100.958,36.814c0.455-0.125,0.455,1.52,0,1.394
	C100.958,37.744,100.958,37.279,100.958,36.814z"/>
<path fill-rule="evenodd" clip-rule="evenodd" fill="#1A1A1A" d="M75.316,46.012c0.461,0.211,0.461,2.297,0,2.509
	C75.316,47.684,75.316,46.848,75.316,46.012z"/>
<path fill-rule="evenodd" clip-rule="evenodd" fill="#1A1A1A" d="M88.417,51.307c0.412,0.052,0.254,0.674,0.278,1.115
	C88.282,52.37,88.438,51.749,88.417,51.307z"/>
<path fill-rule="evenodd" clip-rule="evenodd" fill="#1A1A1A" d="M91.76,54.652c0.379,0.086,0.232,0.698,0.279,1.115
	C91.626,55.715,91.784,55.093,91.76,54.652z"/>
<path fill-rule="evenodd" clip-rule="evenodd" fill="#1A1A1A" d="M89.252,56.603c0.615,0.035,0.118,1.183,0.278,1.672
	C88.915,58.24,89.412,57.093,89.252,56.603z"/>
<path fill-rule="evenodd" clip-rule="evenodd" fill="#1A1A1A" d="M92.039,57.16c0.629,0.207,0.107,1.563,0.278,2.229
	C91.69,59.183,92.209,57.827,92.039,57.16z"/>
<path fill-rule="evenodd" clip-rule="evenodd" fill="#1A1A1A" d="M92.317,65.242c0,0.836,0,1.673,0,2.509
	C91.856,67.54,91.856,65.454,92.317,65.242z"/>
<path fill-rule="evenodd" clip-rule="evenodd" fill="#1A1A1A" d="M0.343,68.866c0,0.558,0,1.115,0,1.672
	C-0.114,70.584-0.114,68.82,0.343,68.866z"/>
<path fill-rule="evenodd" clip-rule="evenodd" fill="#1A1A1A" d="M89.53,69.423c0.605-0.047,0.126,0.989,0.278,1.393
	C89.204,70.864,89.683,69.828,89.53,69.423z"/>
<path fill-rule="evenodd" clip-rule="evenodd" fill="#1A1A1A" d="M87.857,87.261c0.56,0,1.116,0,1.673,0
	C89.576,87.719,87.813,87.719,87.857,87.261z"/>
<path fill-rule="evenodd" clip-rule="evenodd" fill="#1A1A1A" d="M23.754,87.817c-0.125-0.454,1.52-0.454,1.394,0
	C24.684,87.817,24.219,87.817,23.754,87.817z"/>
<path fill-rule="evenodd" clip-rule="evenodd" fill="#C3C3C3" d="M100.68,87.817c0.623,0.121,0.112,1.375,0.278,1.951
	c-0.093,0-0.187,0-0.278,0C100.68,89.119,100.68,88.469,100.68,87.817z"/>
<path fill-rule="evenodd" clip-rule="evenodd" fill="#C3C3C3" d="M103.188,88.934c0.092,0,0.187,0,0.278,0c0,0.65,0,1.3,0,1.95
	C102.843,90.764,103.354,89.511,103.188,88.934z"/>
<path fill-rule="evenodd" clip-rule="evenodd" fill="#777777" d="M100.68,89.769c0.092,0,0.186,0,0.278,0c0,0.744,0,1.487,0,2.23
	c-0.093,0-0.187,0-0.278,0C100.68,91.256,100.68,90.513,100.68,89.769z"/>
<path fill-rule="evenodd" clip-rule="evenodd" fill="#1A1A1A" d="M23.754,90.605c-0.125-0.456,1.52-0.456,1.394,0
	C24.684,90.605,24.219,90.605,23.754,90.605z"/>
<path fill-rule="evenodd" clip-rule="evenodd" fill="#323232" d="M100.68,91.999c0.092,0,0.186,0,0.278,0c0,0.465,0,0.93,0,1.395
	c-0.093,0-0.187,0-0.278,0C100.68,92.929,100.68,92.464,100.68,91.999z"/>
<path fill-rule="evenodd" clip-rule="evenodd" fill="#1A1A1A" d="M103.466,91.999c0.379,0.086,0.232,0.698,0.278,1.114
	c-0.092,0-0.186,0-0.278,0C103.466,92.742,103.466,92.37,103.466,91.999z"/>
<path fill-rule="evenodd" clip-rule="evenodd" fill="#323232" d="M103.466,93.113c0.093,0,0.187,0,0.278,0c0,1.115,0,2.23,0,3.345
	c-0.092,0-0.186,0-0.278,0C103.466,95.344,103.466,94.229,103.466,93.113z"/>
<path fill-rule="evenodd" clip-rule="evenodd" fill="#1A1A1A" d="M100.68,93.394c0.092,0,0.186,0,0.278,0c0,0.835,0,1.672,0,2.508
	C100.325,95.604,100.852,94.148,100.68,93.394z"/>
<path fill-rule="evenodd" clip-rule="evenodd" fill="#C3C3C3" d="M100.958,98.688c0.459,0.038,0.459,1.913,0,1.951
	C100.958,99.988,100.958,99.338,100.958,98.688z"/>
<path fill-rule="evenodd" clip-rule="evenodd" fill="#1A1A1A" d="M22.64,105.378c-0.16,0.489,0.337,1.637-0.278,1.672
	C22.521,106.56,22.024,105.411,22.64,105.378z"/>
<path fill-rule="evenodd" clip-rule="evenodd" fill="#1A1A1A" d="M8.705,129.625c0,0.465,0,0.93,0,1.395
	C8.25,131.145,8.25,129.499,8.705,129.625z"/>
<path fill-rule="evenodd" clip-rule="evenodd" fill="#1A1A1A" d="M9.541,134.921c0.743,0,1.486,0,2.229,0
	C11.646,135.381,9.664,135.381,9.541,134.921z"/>
<path fill-rule="evenodd" clip-rule="evenodd" fill="#1A1A1A" d="M69.184,2.533c0.347-0.583,0.812-1.047,1.395-1.394
	C70.231,1.722,69.767,2.187,69.184,2.533z"/>
<path fill-rule="evenodd" clip-rule="evenodd" fill="#1A1A1A" d="M41.592,79.456c1.417,1.186,2.718,2.485,3.902,3.903
	C44.077,82.174,42.776,80.874,41.592,79.456z"/>
<path fill-rule="evenodd" clip-rule="evenodd" fill="#1A1A1A" d="M39.083,77.228c0.583,0.346,1.048,0.811,1.394,1.394
	C39.894,78.275,39.43,77.811,39.083,77.228z"/>
<path fill-rule="evenodd" clip-rule="evenodd" fill="#1A1A1A" d="M2.015,73.325c0.86,0.627,1.604,1.369,2.23,2.229
	C3.384,74.929,2.641,74.186,2.015,73.325z"/>
<path fill-rule="evenodd" clip-rule="evenodd" fill="#1A1A1A" d="M7.59,78.621c3.925,3.693,7.733,7.502,11.427,11.427
	C15.091,86.355,11.282,82.546,7.59,78.621z"/>
<path fill-rule="evenodd" clip-rule="evenodd" fill="#1A1A1A" d="M26.263,90.884c0.478,0.358,1.097,0.576,1.115,1.394
	C26.992,91.827,26.588,91.396,26.263,90.884z"/>
<path fill-rule="evenodd" clip-rule="evenodd" fill="#1A1A1A" d="M22.361,98.967c0.533-0.768,1.183-1.418,1.951-1.951
	C23.779,97.783,23.128,98.434,22.361,98.967z"/>
<path fill-rule="evenodd" clip-rule="evenodd" fill="#1A1A1A" d="M6.475,132.97c0.583,0.347,1.047,0.811,1.394,1.393
	C7.285,134.018,6.82,133.553,6.475,132.97z"/>
<path fill-rule="evenodd" clip-rule="evenodd" fill="#777777" d="M23.476,130.461c-0.053-0.226-0.279-0.278-0.278-0.558
	c0.583,0.347,1.047,0.812,1.394,1.395C24.022,131.216,24.044,130.543,23.476,130.461z"/>
<path fill-rule="evenodd" clip-rule="evenodd" fill="#777777" d="M34.903,136.314c0.251-0.491,0.624-0.864,1.115-1.115
	c-0.083,0.568-0.559,0.742-0.836,1.115C35.089,136.314,34.996,136.314,34.903,136.314z"/>
<path fill-rule="evenodd" clip-rule="evenodd" fill="#323232" d="M40.756,129.347c0.44-0.862,0.961-1.642,1.672-2.23
	C41.989,127.978,41.468,128.757,40.756,129.347z"/>
<path fill-rule="evenodd" clip-rule="evenodd" fill="#1A1A1A" d="M42.428,127.116c0.282-0.555,0.482-1.189,1.115-1.394
	C43.262,126.278,43.062,126.914,42.428,127.116z"/>
<path fill-rule="evenodd" clip-rule="evenodd" fill="#323232" d="M43.543,125.723c0.439-0.861,0.96-1.641,1.672-2.229
	C44.776,124.354,44.255,125.134,43.543,125.723z"/>
<path fill-rule="evenodd" clip-rule="evenodd" fill="#1A1A1A" d="M45.216,123.493c0.281-0.555,0.481-1.189,1.114-1.394
	C46.049,122.655,45.849,123.29,45.216,123.493z"/>
<path fill-rule="evenodd" clip-rule="evenodd" fill="#323232" d="M46.33,122.1c0.42-1.066,1.154-1.818,1.951-2.508
	C47.742,120.539,47.208,121.491,46.33,122.1z"/>
<path fill-rule="evenodd" clip-rule="evenodd" fill="#1A1A1A" d="M49.675,119.87c0.767,0.533,1.418,1.184,1.95,1.951
	C50.858,121.288,50.208,120.638,49.675,119.87z"/>
<path fill-rule="evenodd" clip-rule="evenodd" fill="#1A1A1A" d="M52.184,122.378c0.733,0.289,0.938,1.105,1.672,1.394
	c0.386,0.823,1.287,1.129,1.673,1.951C54.297,124.725,53.181,123.609,52.184,122.378z"/>
<path fill-rule="evenodd" clip-rule="evenodd" fill="#1A1A1A" d="M56.643,126.838c0.583,0.346,1.048,0.811,1.395,1.394
	C57.454,127.886,56.989,127.421,56.643,126.838z"/>
<path fill-rule="evenodd" clip-rule="evenodd" fill="#C3C3C3" d="M58.037,128.231c-0.347-0.583-0.812-1.048-1.395-1.394
	c-0.253-0.492-0.623-0.863-1.114-1.115c-0.386-0.822-1.287-1.128-1.673-1.951c1.695,1.464,3.275,3.043,4.738,4.738
	C58.367,128.457,58.315,128.23,58.037,128.231z"/>
<path fill-rule="evenodd" clip-rule="evenodd" fill="#323232" d="M65.562,129.625c0.253-0.491,0.623-0.862,1.114-1.115
	C66.425,129.002,66.053,129.373,65.562,129.625z"/>
<path fill-rule="evenodd" clip-rule="evenodd" fill="#777777" d="M67.513,127.395c0.251-0.49,0.623-0.862,1.114-1.113
	C68.376,126.771,68.004,127.144,67.513,127.395z"/>
<path fill-rule="evenodd" clip-rule="evenodd" fill="#C3C3C3" d="M68.627,126.281c0.515-0.693,0.844-1.574,1.673-1.951
	C69.703,124.94,69.433,125.877,68.627,126.281z"/>
<path fill-rule="evenodd" clip-rule="evenodd" fill="#777777" d="M70.3,124.33c0.252-0.492,0.623-0.864,1.114-1.115
	C71.163,123.706,70.791,124.077,70.3,124.33z"/>
<path fill-rule="evenodd" clip-rule="evenodd" fill="#323232" d="M71.414,123.215c0.252-0.491,0.625-0.863,1.115-1.115
	C72.277,122.591,71.904,122.962,71.414,123.215z"/>
<path fill-rule="evenodd" clip-rule="evenodd" fill="#C3C3C3" d="M72.529,121.821c0.253-0.491,0.623-0.863,1.114-1.115
	C73.393,121.197,73.021,121.569,72.529,121.821z"/>
<path fill-rule="evenodd" clip-rule="evenodd" fill="#777777" d="M73.644,120.706c0.757-0.823,1.29-1.87,2.508-2.229
	C75.214,119.117,74.601,120.085,73.644,120.706z"/>
<path fill-rule="evenodd" clip-rule="evenodd" fill="#323232" d="M78.382,116.804c0.627-0.859,1.37-1.603,2.229-2.229
	C79.986,115.436,79.243,116.178,78.382,116.804z"/>
<path fill-rule="evenodd" clip-rule="evenodd" fill="#1A1A1A" d="M80.611,114.296c0.647-0.188,0.747-0.926,1.395-1.115
	c-0.347,0.583-0.812,1.048-1.395,1.394C80.611,114.482,80.611,114.389,80.611,114.296z"/>
<path fill-rule="evenodd" clip-rule="evenodd" fill="#C3C3C3" d="M80.611,114.296c0.813-1.046,1.741-1.975,2.787-2.787
	c-0.099,0.366-0.489,0.438-0.558,0.836c-0.4,0.156-0.679,0.436-0.835,0.836C81.358,113.37,81.259,114.107,80.611,114.296z"/>
<path fill-rule="evenodd" clip-rule="evenodd" fill="#777777" d="M83.398,111.509c0.248-0.123,0.498-0.244,0.559-0.557
	c0.092,0,0.185,0,0.278,0c-0.569,0.989,1.4,1.468,1.393,2.786c-0.857-0.208-0.535,0.766-1.393,0.558
	c-0.393-0.723-0.943-1.286-1.395-1.951C82.909,111.946,83.3,111.875,83.398,111.509z"/>
<path fill-rule="evenodd" clip-rule="evenodd" fill="#1A1A1A" d="M95.663,44.618c1.368-1.603,2.854-3.089,4.459-4.459
	C98.752,41.761,97.266,43.248,95.663,44.618z"/>
<path fill-rule="evenodd" clip-rule="evenodd" fill="#1A1A1A" d="M97.893,15.632c0.491,0.252,0.861,0.624,1.114,1.115
	C98.516,16.496,98.143,16.124,97.893,15.632z"/>
<path fill-rule="evenodd" clip-rule="evenodd" fill="#1A1A1A" d="M77.546,1.139c0.491,0.251,0.863,0.623,1.114,1.115
	C78.169,2.002,77.799,1.631,77.546,1.139z"/>
<path fill-rule="evenodd" clip-rule="evenodd" fill="#C3C3C3" d="M100.68,81.966c0.366,0.098,0.438,0.49,0.835,0.557
	c0.099,0.367,0.491,0.438,0.557,0.837C101.488,83.014,101.024,82.549,100.68,81.966z"/>
<path fill-rule="evenodd" clip-rule="evenodd" fill="#1A1A1A" d="M89.53,46.848c0.253-0.492,0.623-0.863,1.116-1.115
	C90.394,46.225,90.021,46.596,89.53,46.848z"/>
<path fill-rule="evenodd" clip-rule="evenodd" fill="#1A1A1A" d="M91.76,44.618c2.021-2.253,4.157-4.39,6.411-6.41
	C96.149,40.46,94.014,42.597,91.76,44.618z"/>
<path fill-rule="evenodd" clip-rule="evenodd" fill="#1A1A1A" d="M66.397,78.899c0.347-0.583,0.811-1.048,1.394-1.394
	C67.445,78.089,66.98,78.554,66.397,78.899z"/>
<path fill-rule="evenodd" clip-rule="evenodd" fill="#1A1A1A" d="M39.363,81.129c0.767,0.533,1.418,1.184,1.951,1.952
	C40.546,82.548,39.896,81.896,39.363,81.129z"/>
<path fill-rule="evenodd" clip-rule="evenodd" fill="#1A1A1A" d="M36.854,78.899c0.675,0.439,1.232,0.997,1.672,1.673
	C37.851,80.133,37.293,79.574,36.854,78.899z"/>
<path fill-rule="evenodd" clip-rule="evenodd" fill="#1A1A1A" d="M35.182,77.506c0.491,0.252,0.863,0.623,1.114,1.115
	C35.805,78.368,35.434,77.997,35.182,77.506z"/>
<path fill-rule="evenodd" clip-rule="evenodd" fill="#1A1A1A" d="M4.245,71.653c1.045,0.813,1.975,1.741,2.787,2.786
	C5.986,73.628,5.057,72.699,4.245,71.653z"/>
<path fill-rule="evenodd" clip-rule="evenodd" fill="#1A1A1A" d="M10.655,77.784c3.646,3.414,7.177,6.945,10.591,10.592
	C17.6,84.962,14.07,81.432,10.655,77.784z"/>
<path fill-rule="evenodd" clip-rule="evenodd" fill="#1A1A1A" d="M28.214,88.934c0.491,0.251,0.863,0.623,1.115,1.114
	C28.837,89.796,28.466,89.425,28.214,88.934z"/>
<path fill-rule="evenodd" clip-rule="evenodd" fill="#1A1A1A" d="M24.312,100.918c0.346-0.583,0.811-1.048,1.394-1.394
	C25.36,100.107,24.895,100.572,24.312,100.918z"/>
<path fill-rule="evenodd" clip-rule="evenodd" fill="#777777" d="M66.397,92.835c0.252-0.49,0.623-0.863,1.115-1.114
	C67.261,92.211,66.888,92.584,66.397,92.835z"/>
<path fill-rule="evenodd" clip-rule="evenodd" fill="#1A1A1A" d="M63.332,96.18c0.252-0.491,0.623-0.863,1.113-1.114
	C64.195,95.556,63.822,95.928,63.332,96.18z"/>
<path fill-rule="evenodd" clip-rule="evenodd" fill="#1A1A1A" d="M61.381,98.409c0.252-0.491,0.623-0.863,1.115-1.114
	C62.244,97.785,61.871,98.157,61.381,98.409z"/>
<path fill-rule="evenodd" clip-rule="evenodd" fill="#1A1A1A" d="M59.708,100.361c0.252-0.492,0.625-0.864,1.115-1.116
	C60.571,99.737,60.2,100.108,59.708,100.361z"/>
<path fill-rule="evenodd" clip-rule="evenodd" fill="#1A1A1A" d="M49.117,113.181c0.648,0.674,0.746-0.435,1.394-0.557
	c0,0.093,0,0.186,0,0.278c-0.569,0.082-0.547,0.754-1.115,0.836C49.343,113.514,49.116,113.46,49.117,113.181z"/>
<path fill-rule="evenodd" clip-rule="evenodd" fill="#777777" d="M47.167,112.345c0-0.093,0-0.186,0-0.279
	c0.822-0.683,1.128,0.936,1.951,1.115c-0.001,0.279,0.226,0.333,0.279,0.558c-0.099,0.366-0.491,0.438-0.557,0.836
	c0.051,0.237-0.109,0.264-0.279,0.279c-0.252-0.491-1.025-0.461-1.114-1.115C47.201,113.246,46.562,112.926,47.167,112.345z"/>
<path fill-rule="evenodd" clip-rule="evenodd" fill="#323232" d="M47.445,113.738c-0.408-0.242-0.883-0.417-0.836-1.114
	c0.226-0.054,0.277-0.279,0.558-0.279C46.562,112.926,47.201,113.246,47.445,113.738z"/>
<path fill-rule="evenodd" clip-rule="evenodd" fill="#777777" d="M46.609,116.525c0.341-0.402,1.064-0.423,1.394-0.835
	C47.748,116.178,47.484,116.657,46.609,116.525z"/>
<path fill-rule="evenodd" clip-rule="evenodd" fill="#323232" d="M24.033,125.444c0.252-0.491,0.624-0.863,1.115-1.114
	C24.896,124.82,24.525,125.192,24.033,125.444z"/>
<path fill-rule="evenodd" clip-rule="evenodd" fill="#323232" d="M84.792,81.129c-0.326-0.045-0.234-0.508-0.278-0.836
	c0.278,0,0.558,0,0.836,0C85.169,80.576,84.71,80.581,84.792,81.129z"/>
<path fill-rule="evenodd" clip-rule="evenodd" fill="#C3C3C3" d="M48.839,114.574c0.066-0.397,0.458-0.47,0.557-0.836
	c0.568-0.082,0.546-0.754,1.115-0.836C50.071,113.577,49.513,114.136,48.839,114.574z"/>
<path fill-rule="evenodd" clip-rule="evenodd" fill="#C3C3C3" d="M54.691,107.886c0.099-0.366,0.491-0.438,0.557-0.836
	c0.649-0.188,0.747-0.927,1.395-1.115C56.109,106.702,55.459,107.353,54.691,107.886z"/>
<path fill-rule="evenodd" clip-rule="evenodd" fill="#777777" d="M56.643,105.656c0.44-0.676,0.998-1.233,1.673-1.673
	C57.875,104.658,57.317,105.216,56.643,105.656z"/>
<path fill-rule="evenodd" clip-rule="evenodd" fill="#C3C3C3" d="M58.315,103.983c0.25-0.491,0.623-0.862,1.114-1.114
	C59.179,103.36,58.807,103.731,58.315,103.983z"/>
<path fill-rule="evenodd" clip-rule="evenodd" fill="#777777" d="M59.43,102.59c0.252-0.491,0.623-0.862,1.115-1.115
	C60.293,101.967,59.922,102.338,59.43,102.59z"/>
<path fill-rule="evenodd" clip-rule="evenodd" fill="#C3C3C3" d="M68.07,95.065c0.354-0.947,1.003-1.598,1.951-1.952
	c-0.333,0.876-1.539,0.878-1.673,1.952C68.256,95.065,68.162,95.065,68.07,95.065z"/>
<path fill-rule="evenodd" clip-rule="evenodd" fill="#777777" d="M60.267,105.656c0.251-0.491,0.623-0.863,1.114-1.115
	C61.128,105.032,60.758,105.404,60.267,105.656z"/>
<path fill-rule="evenodd" clip-rule="evenodd" fill="#C3C3C3" d="M59.15,106.771c0.253-0.491,0.623-0.863,1.116-1.114
	C60.015,106.147,59.642,106.519,59.15,106.771z"/>
<path fill-rule="evenodd" clip-rule="evenodd" fill="#777777" d="M56.643,109.558c0.44-0.675,0.998-1.232,1.673-1.672
	C57.875,108.561,57.317,109.118,56.643,109.558z"/>
<path fill-rule="evenodd" clip-rule="evenodd" fill="#323232" d="M51.347,117.641c0.807-0.156-0.428-0.435-0.279-0.837
	c0.402,0.156,0.681,0.435,0.836,0.837c-0.042-0.035-0.249,0.043-0.279,0c1.37,2.008,4.217,3.916,5.852,6.131
	C55.318,121.845,53.274,119.801,51.347,117.641z"/>
<path fill-rule="evenodd" clip-rule="evenodd" fill="#777777" d="M57.478,123.771c1.141,0.906,2.162,1.928,3.067,3.066
	C59.405,125.933,58.384,124.911,57.478,123.771z"/>
<path fill-rule="evenodd" clip-rule="evenodd" fill="#777777" d="M64.727,126.56c0.25-0.492,0.623-0.863,1.113-1.115
	C65.588,125.936,65.217,126.307,64.727,126.56z"/>
<path fill-rule="evenodd" clip-rule="evenodd" fill="#C3C3C3" d="M65.84,125.444c0.598-0.61,0.868-1.549,1.673-1.951
	C66.998,124.187,66.67,125.066,65.84,125.444z"/>
<path fill-rule="evenodd" clip-rule="evenodd" fill="#777777" d="M67.513,123.493c0.251-0.491,0.623-0.863,1.114-1.115
	C68.376,122.869,68.004,123.242,67.513,123.493z"/>
<path fill-rule="evenodd" clip-rule="evenodd" fill="#C3C3C3" d="M68.627,122.378c0.188-0.646,0.926-0.746,1.116-1.393
	c0.092,0,0.184,0,0.278,0C69.675,121.568,69.21,122.033,68.627,122.378z"/>
<path fill-rule="evenodd" clip-rule="evenodd" fill="#323232" d="M69.743,120.985c0.25-0.491,0.623-0.864,1.113-1.115
	c-0.082,0.568-0.753,0.546-0.835,1.115C69.927,120.985,69.835,120.985,69.743,120.985z"/>
<path fill-rule="evenodd" clip-rule="evenodd" fill="#777777" d="M70.856,119.87c0.253-0.492,0.623-0.862,1.116-1.115
	C71.72,119.247,71.348,119.619,70.856,119.87z"/>
<path fill-rule="evenodd" clip-rule="evenodd" fill="#C3C3C3" d="M71.973,118.755c0.098-0.366,0.488-0.438,0.557-0.835
	c0.491-0.253,0.863-0.624,1.114-1.116c0.094,0,0.187,0,0.278,0C73.389,117.571,72.74,118.223,71.973,118.755z"/>
<path fill-rule="evenodd" clip-rule="evenodd" fill="#323232" d="M77.824,113.46c0.347-0.584,0.812-1.048,1.395-1.395
	C78.872,112.648,78.407,113.113,77.824,113.46z"/>
<path fill-rule="evenodd" clip-rule="evenodd" fill="#777777" d="M79.219,112.065c0.438-0.675,0.996-1.231,1.671-1.672
	C80.451,111.069,79.894,111.626,79.219,112.065z"/>
<path fill-rule="evenodd" clip-rule="evenodd" fill="#C3C3C3" d="M80.89,110.114c0.569-0.081,0.547-0.753,1.116-0.835
	c-0.253,0.49-0.623,0.863-1.116,1.114C80.89,110.301,80.89,110.209,80.89,110.114z"/>
<path fill-rule="evenodd" clip-rule="evenodd" fill="#777777" d="M85.906,85.867c0.791-0.046,1.162-0.511,1.951-0.558
	c-0.008,0.271-0.341,0.217-0.557,0.279c-0.036,0.688-0.042,1.344,0.278,1.672c-0.034,0.5,0.343,0.588,0.278,1.115
	c-0.278,0-0.557,0-0.835,0c-0.451,0.079-0.481-0.264-0.836-0.279c0-0.186,0-0.371,0-0.558
	C86.192,86.883,85.706,86.719,85.906,85.867z"/>
<path fill-rule="evenodd" clip-rule="evenodd" fill="#777777" d="M79.219,108.164c0.93-2.256,1.639,0.623,3.065,0.837
	c0.05,0.237-0.108,0.262-0.278,0.278c-0.569,0.082-0.547,0.754-1.116,0.835c-0.092,0-0.185,0-0.278,0
	c-0.099-0.365-0.491-0.438-0.557-0.835C79.972,108.711,79.299,108.732,79.219,108.164z"/>
<path fill-rule="evenodd" clip-rule="evenodd" fill="#1A1A1A" d="M79.219,108.164c0.08,0.568,0.753,0.547,0.836,1.115
	C79.746,109.091,78.607,108.353,79.219,108.164z"/>
<path fill-rule="evenodd" clip-rule="evenodd" fill="#1A1A1A" d="M72.529,117.92c0.253-0.492,0.623-0.863,1.114-1.116
	C73.393,117.296,73.021,117.667,72.529,117.92z"/>
<path fill-rule="evenodd" clip-rule="evenodd" fill="#1A1A1A" d="M51.904,117.641c0.493,0.245,0.814,0.883,1.394,0.279
	c-0.053,0.226-0.279,0.277-0.279,0.557C52.322,118.523,52.147,118.048,51.904,117.641z"/>
<path fill-rule="evenodd" clip-rule="evenodd" fill="#777777" d="M52.184,115.969c0.755,0.173,0.693,1.164,1.672,1.114
	c-0.099,0.366-0.491,0.438-0.557,0.837c-0.58,0.604-0.901-0.034-1.394-0.279c-0.156-0.402-0.435-0.681-0.836-0.837
	c-0.185,0-0.371,0-0.557,0C50.844,116.266,51.465,115.283,52.184,115.969z"/>
<path fill-rule="evenodd" clip-rule="evenodd" fill="#323232" d="M82.563,86.704c0.916-0.479,2.05-0.738,3.344-0.837
	c-0.2,0.852,0.286,1.016,0.28,1.672c-0.438-0.119-0.238-0.876-1.115-0.557C84.774,86.351,83.32,86.876,82.563,86.704z"/>
<path fill-rule="evenodd" clip-rule="evenodd" fill="#323232" d="M87.022,88.376c0.11,0.54-1.271,0.407-0.836-0.279
	C86.541,88.112,86.571,88.455,87.022,88.376z"/>
<path fill-rule="evenodd" clip-rule="evenodd" fill="#323232" d="M65.84,93.394c-0.881,3.578-3.325,5.593-5.295,8.081
	c-0.492,0.253-0.863,0.624-1.115,1.115c0,0.093,0,0.187,0,0.279c-0.491,0.252-0.864,0.623-1.114,1.114
	c-0.675,0.439-1.232,0.997-1.673,1.673c0,0.093,0,0.186,0,0.278c-0.647,0.188-0.745,0.927-1.395,1.115
	c0.943-2.774,2.687-4.746,4.46-6.688c0.492-0.253,0.863-0.624,1.115-1.116c0.099-0.365,0.491-0.438,0.558-0.836
	c0.49-0.252,0.863-0.624,1.115-1.114c0.08-0.569,0.754-0.547,0.836-1.115c0.49-0.252,0.863-0.624,1.113-1.114
	C64.921,94.518,65.097,93.672,65.84,93.394z"/>
<path fill-rule="evenodd" clip-rule="evenodd" d="M51.347,117.641c-0.366-0.099-0.438-0.491-0.836-0.558c0-0.093,0-0.186,0-0.279
	c0.186,0,0.372,0,0.557,0C50.919,117.206,52.154,117.484,51.347,117.641z"/>
<path fill-rule="evenodd" clip-rule="evenodd" fill="#323232" d="M25.706,127.674c0.346-0.582,0.811-1.047,1.394-1.393
	C26.753,126.863,26.289,127.328,25.706,127.674z"/>
<path fill-rule="evenodd" clip-rule="evenodd" fill="#323232" d="M42.15,120.985c0.007-0.271,0.341-0.217,0.557-0.279
	c-0.147,0.224-0.291,0.452-0.279,0.836C42.157,121.535,42.212,121.201,42.15,120.985z"/>
<path fill-rule="evenodd" clip-rule="evenodd" fill="#323232" d="M73.644,0.024c1.843-0.171,2.753,0.592,3.902,1.115
	c0.253,0.492,0.623,0.863,1.114,1.115c1.08,1.243,1.412,3.234,1.951,5.017c5.521,3.026,11.676,5.42,17.281,8.361
	c0.25,0.492,0.623,0.864,1.114,1.115c0.326,0.417,0.347,1.14,0.835,1.394c0,0.558,0,1.114,0,1.672
	c0.175,0.756-0.353,2.212,0.28,2.508c0,0.65,0,1.301,0,1.951c0.169,0.667-0.351,2.022,0.278,2.23c0,0.65,0,1.301,0,1.951
	c0.171,0.667-0.351,2.022,0.279,2.23c0,0.743,0,1.486,0,2.229c0.164,0.578-0.345,1.832,0.278,1.952c0,0.65,0,1.301,0,1.951
	c0,0.465,0,0.93,0,1.394c0.122,1.052-0.549,1.308-0.836,1.951c-1.604,1.37-3.091,2.856-4.459,4.459
	c-0.689,0.656-1.691,1.334-2.509,2.229c-0.705,0.771-1.753,1.811-1.951,2.787c-0.324,1.592,0.621,2.924,0.557,5.017
	c0.024,0.441-0.134,1.063,0.279,1.115c0,0.464,0,0.929,0,1.394c0.17,0.667-0.349,2.022,0.278,2.229c0,1.951,0,3.902,0,5.853
	c-0.461,0.212-0.461,2.297,0,2.509c0.065,2.402,0.198,3.726,0.837,5.017c2.054,4.153,9.228,3.381,8.36,9.755
	c-0.396-0.066-0.469-0.459-0.835-0.557c-0.697-0.231-1.094-0.765-1.951-0.837c-0.52-1.6-2.345-1.986-3.625-2.786
	c-0.264-0.167-0.541-0.67-0.835-0.837c-0.775-0.438-2.01-0.765-2.787-1.672c-0.166-0.193-0.116-0.388-0.278-0.558
	c-0.728-0.759-1.36-2.548-1.395-4.46c-0.152-0.404,0.327-1.44-0.278-1.393c0-3.716,0-7.432,0-11.148
	c-0.16-0.49,0.337-1.638-0.278-1.672c-0.032-1.547-0.593-2.565-0.557-4.181c-0.024-0.441,0.134-1.063-0.278-1.115
	c-0.175-2.031,0.248-3.466,1.113-4.459c0.491-0.252,0.863-0.623,1.116-1.115c0.25-0.492,0.623-0.863,1.113-1.115
	c2.254-2.021,4.39-4.158,6.411-6.41c0-0.093,0-0.186,0-0.279c0.459-0.038,0.459-1.913,0-1.951c0-0.65,0-1.301,0-1.951
	c-0.17-0.667,0.349-2.022-0.278-2.23c0-0.65,0-1.301,0-1.951c-0.166-0.577,0.345-1.831-0.278-1.951c0-0.65,0-1.301,0-1.951
	c-0.17-0.667,0.349-2.022-0.28-2.229c0-0.651,0-1.301,0-1.951c-0.169-0.667,0.351-2.022-0.278-2.229
	c-0.241-1.69-2.238-2.3-4.46-3.345c-3.193-1.501-6.659-3.168-10.033-4.738c-2.967-1.38-4.077-1.771-5.017-4.738
	c-0.611-1.932-1.783-4.837-4.738-3.623c-0.841,0.345-1.923,1.394-1.951,2.787C70.82,7.775,72.434,8.34,73.644,9.5
	c0.244,0.233,0.681,0.374,1.116,0.836c0.835,0.888,1.592,2.018,1.392,4.459c0.154,0.405-0.324,1.44,0.278,1.394
	c0,0.465,0,0.929,0,1.394c0.154,0.404-0.324,1.44,0.281,1.393c0,0.372,0,0.743,0,1.115c0.021,0.441-0.135,1.063,0.278,1.115
	c0,0.278,0,0.557,0,0.836c0.021,0.441-0.135,1.063,0.278,1.115c-0.036,1.15,0.484,1.746,0.278,3.066
	c0.024,0.441-0.134,1.063,0.278,1.114c0,0.465,0,0.929,0,1.394c0.167,0.577-0.345,1.831,0.278,1.951c0,3.364,0,6.451,0,9.476
	c0,3.074,0.459,6.333,0,9.198c-0.308,1.922-1.929,4.583-2.786,6.688c-0.463,1.137-0.945,2.208-1.395,3.345
	c-0.964,2.452-1.549,4.475-2.508,6.968c-0.443,1.153-1.03,2.232-1.393,3.345c-0.644,1.968-0.832,3.863-1.395,5.853
	c-0.221,0.779-0.567,1.369-0.836,1.951c-0.583,0.346-1.047,0.811-1.394,1.394c-2.156,1.322-7.205,2.88-10.312,4.182
	c-1.186,0.495-2.059,1.129-3.346,1.671c-1.146,0.484-2.485,1.001-3.623,1.394c-0.986,0.342-1.715,0.664-2.787,0.559
	c-1.604-0.159-1.931-0.947-2.787-1.673c-0.174-0.147-0.67-0.112-0.836-0.279c-0.185-0.185-0.096-0.648-0.279-0.836
	c-0.303-0.311-0.695-0.548-1.115-0.835c-0.533-0.769-1.184-1.419-1.951-1.952c-0.366-0.099-0.439-0.49-0.836-0.557
	c-0.44-0.676-0.997-1.233-1.672-1.673c-0.227-0.053-0.278-0.279-0.558-0.278c-0.251-0.492-0.623-0.863-1.114-1.115
	c-0.747-0.182-1.06-0.798-1.672-1.114c-7.831-1.509-15.09-3.828-22.854-5.854c-2.458-0.641-4.946-1.701-7.525-1.393
	c-0.436,0.972,0.296,1.999,1.115,2.508c0.812,1.046,1.741,1.975,2.787,2.786c1.373,0.95,2.251,2.396,3.624,3.345
	c3.415,3.647,6.944,7.178,10.591,10.592c0.928-0.094,1.236-0.808,2.508-0.559c0.464,0,0.929,0,1.394,0c0.464,0,0.929,0,1.393,0
	c0.419,0.51,1.203,0.656,1.673,1.116c0.252,0.491,0.623,0.862,1.115,1.114c0.882,1.027,0.913,2.311,0.836,3.346
	c-0.211,2.831-3.279,4.321-4.459,6.131c-0.583,0.346-1.047,0.811-1.394,1.394c-0.756,1.288-1.721,2.367-1.672,4.46
	c-0.615,0.033-0.119,1.182-0.278,1.672c0.088,2.204-1.97,4.091-3.066,5.853c-0.237,0.381-0.525,0.893-0.836,1.394
	c-0.133,0.213-0.111,0.591-0.278,0.836c-0.258,0.38-0.842,0.697-1.115,1.115c-0.182,0.277-0.119,0.578-0.279,0.836
	c-0.113,0.182-0.459,0.393-0.558,0.558c-0.272,0.453-0.302,0.995-0.558,1.393c-0.268,0.419-0.858,0.737-1.114,1.115
	c-0.182,0.268-0.123,0.584-0.279,0.837c-1.581,2.543-3.985,5.737-5.574,8.64c-0.455-0.126-0.455,1.52,0,1.395
	c0.789,1.984,3.119,1.108,5.017,0.557c0.844-0.245,1.81-0.536,2.787-0.837c0.905-0.277,2.021-0.532,2.788-0.836
	c1.485-0.586,2.631-1.698,3.624-2.229c-0.123,0.958,0.109,1.563,0.278,2.229c-0.001,0.279,0.225,0.332,0.278,0.558
	c-1.133,1.565-3.288,2.173-5.295,2.788c-2.059,0.629-4.301,1.25-6.411,1.672c-0.743,0-1.486,0-2.229,0c-0.279,0-0.558,0-0.836,0
	c-0.205-0.261-0.507-0.422-0.836-0.559c-0.346-0.582-0.811-1.046-1.394-1.393c-1.991-2.992,0.188-5.433,2.23-8.64
	c3.141-4.935,5.865-9.026,9.197-14.216c0.636-0.991,1.441-2.023,1.672-2.786c0.521-1.728,0.185-3.812,0.557-5.017
	c0.274-0.885,1.566-2.458,2.23-3.345c0.767-0.533,1.418-1.184,1.951-1.951c0.877-1.724,3.23-1.973,3.066-4.738
	c-0.019-0.817-0.637-1.035-1.115-1.394c-0.499,0.036-0.588-0.341-1.114-0.278c0.125-0.456-1.52-0.456-1.394,0
	c-1.496,0.767-3.892,0.765-4.738-0.558c-3.693-3.925-7.502-7.733-11.427-11.427c-1.281-0.856-2.065-2.21-3.345-3.066
	c-0.626-0.86-1.37-1.603-2.23-2.229c-0.912-0.575-1.562-1.41-1.672-2.787c0-0.558,0-1.115,0-1.672
	c0.213-1.459,1.396-1.949,2.23-2.787c2.927-0.281,5.563,0.918,8.361,1.672c5.11,1.377,10.365,2.751,15.608,4.181
	c1.996,0.544,4.082,0.994,6.132,1.394c0.694,0.135,1.518,0.101,1.951,0.279c0.784,0.321,1.456,1.322,2.23,1.95
	c0.778,0.632,1.657,1.035,2.229,1.673c0.346,0.583,0.811,1.048,1.394,1.394c0.568,0.082,0.546,0.754,1.114,0.835
	c1.185,1.418,2.485,2.718,3.902,3.903c1.479,1.29,3.468-0.379,5.853-1.394c1.131-0.482,2.439-0.964,3.623-1.394
	c0.934-0.339,2.264-0.926,3.346-1.395c2.031-0.88,4.556-1.686,6.968-2.786c2.356-10.278,6.555-18.714,10.033-27.871
	c0.461-0.212,0.461-2.297,0-2.509c0-0.557,0-1.115,0-1.672c0.465-3.161,0.465-8.267,0-11.428c0-0.928,0-1.857,0-2.787
	c-0.16-0.49,0.336-1.638-0.278-1.672c0-0.372,0-0.743,0-1.115c-0.024-0.441,0.134-1.063-0.278-1.114c0-0.372,0-0.744,0-1.115
	c-0.024-0.441,0.134-1.063-0.279-1.115c0.034-1.15-0.484-1.746-0.278-3.066c-0.023-0.441,0.133-1.063-0.28-1.115
	c0-0.372,0-0.743,0-1.114c-0.152-0.405,0.326-1.441-0.278-1.394c0-0.464,0-0.929,0-1.393c-0.16-0.49,0.337-1.638-0.278-1.672
	c-0.339-3.655-4.807-3.184-5.017-6.968c0-0.835,0-1.672,0-2.508c-0.01-1.033,0.429-1.616,0.835-2.23
	c0.583-0.346,1.048-0.811,1.395-1.394c0.644-0.287,0.899-0.959,1.951-0.836C72.971,0.28,73.592,0.437,73.644,0.024z"/>
<path fill-rule="evenodd" clip-rule="evenodd" fill="#777777" d="M95.941,81.129c0.21-0.46,2.296-0.46,2.508,0
	C97.614,81.129,96.776,81.129,95.941,81.129z"/>
<path fill-rule="evenodd" clip-rule="evenodd" fill="#777777" d="M85.35,80.293c0.278,0,0.557,0,0.837,0
	c0.082,0.939,0.141,1.904,0.558,2.508c-0.331,0.507-1.453,0.22-1.952,0.559c0.615-0.611-0.276-1.14,0-2.23
	C84.71,80.581,85.169,80.576,85.35,80.293z"/>
<path fill-rule="evenodd" clip-rule="evenodd" fill="#323232" d="M100.122,85.031c-2.955,1.319-6.761,1.787-10.592,2.229
	c-0.557,0-1.113,0-1.673,0c-0.092,0-0.185,0-0.278,0c-0.32-0.328-0.314-0.984-0.278-1.672c0.216-0.063,0.549-0.008,0.557-0.279
	c3.826-0.293,9.092-3.076,12.265-0.558C100.122,84.846,100.122,84.938,100.122,85.031z"/>
<path fill-rule="evenodd" clip-rule="evenodd" fill="#777777" d="M103.188,88.934c0-0.837,0-1.673,0-2.509
	c0.633,0.296,0.106,1.751,0.278,2.509C103.374,88.934,103.279,88.934,103.188,88.934z"/>
<path fill-rule="evenodd" clip-rule="evenodd" fill="#777777" d="M103.466,101.754c0-1.766,0-3.53,0-5.296c0.093,0,0.187,0,0.278,0
	C103.563,98.134,104.111,100.541,103.466,101.754z"/>
<path fill-rule="evenodd" clip-rule="evenodd" fill="#323232" d="M97.614,104.819c0.294-0.632,1.751-0.106,2.508-0.278
	C99.826,105.174,98.369,104.647,97.614,104.819z"/>
<path fill-rule="evenodd" clip-rule="evenodd" d="M42.707,120.706c0.5,0.035,0.588-0.341,1.115-0.278
	c-0.25,0.492-0.673,0.813-0.836,1.394c-0.324,0.045-0.497-0.062-0.558-0.279C42.417,121.158,42.56,120.93,42.707,120.706z"/>
<path fill-rule="evenodd" clip-rule="evenodd" fill="#777777" d="M41.035,124.051c-0.466-0.648-0.728-1.501-0.836-2.509
	c0.789-0.046,1.161-0.51,1.951-0.557c0.062,0.216,0.007,0.55,0.278,0.557c0.061,0.218,0.233,0.324,0.558,0.279
	C42.352,122.581,41.752,123.374,41.035,124.051z"/>
<path fill-rule="evenodd" clip-rule="evenodd" fill="#1A1A1A" d="M31.837,136.871c0.65,0,1.301,0,1.951,0
	C33.75,137.331,31.875,137.331,31.837,136.871z"/>
<path fill-rule="evenodd" clip-rule="evenodd" fill="#FFFFFF" d="M86.744,82.801c3.075-0.549,6-1.245,9.197-1.672
	c0.835,0,1.673,0,2.508,0c0.093,0,0.187,0,0.279,0c0.857,0.072,1.254,0.605,1.951,0.837c0.345,0.583,0.809,1.048,1.392,1.394
	c0.592,0.803,1.236,1.553,1.116,3.065c0,0.836,0,1.672,0,2.509c0.166,0.577-0.345,1.83,0.278,1.95c0,0.372,0,0.743,0,1.115
	c0,0.371,0,0.743,0,1.114c0,1.115,0,2.23,0,3.345c0,1.766,0,3.53,0,5.296c-0.18,1.864-1.435,2.653-3.344,2.787
	c-0.757,0.172-2.214-0.354-2.508,0.278c-6.323,0.183-9.418,3.589-13.379,6.133c-0.094,0-0.187,0-0.278,0
	c-0.061,0.313-0.311,0.434-0.559,0.557c-1.046,0.813-1.974,1.741-2.787,2.787c0,0.093,0,0.187,0,0.278
	c-0.859,0.627-1.603,1.37-2.229,2.229c-0.768,0.534-1.364,1.237-2.23,1.673c-1.218,0.359-1.751,1.406-2.508,2.229
	c-0.491,0.252-0.861,0.624-1.114,1.115c0,0.093,0,0.186,0,0.278c-0.49,0.252-0.863,0.624-1.115,1.115
	c-0.491,0.251-0.862,0.623-1.114,1.115c-0.829,0.377-1.158,1.258-1.673,1.951c-0.491,0.251-0.863,0.623-1.114,1.113
	c-0.082,0.569-0.755,0.547-0.837,1.115c-0.491,0.253-0.861,0.624-1.114,1.115c-0.583,0.161-0.795,0.69-1.673,0.558
	c-0.743,0-1.486,0-2.229,0c-1.366-0.212-2.435-0.726-3.065-1.673c-1.463-1.695-3.043-3.274-4.738-4.738
	c-0.733-0.288-0.939-1.104-1.672-1.394c-0.248-0.123-0.499-0.244-0.558-0.557c-0.532-0.768-1.183-1.418-1.95-1.951
	c-0.494-0.244-0.814-0.884-1.394-0.278c-0.797,0.689-1.531,1.441-1.951,2.508c-0.633,0.204-0.833,0.839-1.114,1.394
	c-0.712,0.589-1.233,1.368-1.672,2.229c-0.633,0.204-0.833,0.839-1.115,1.394c-0.711,0.589-1.232,1.368-1.672,2.23
	c-1.604,1.926-3.004,4.056-4.738,5.853c-0.491,0.251-0.864,0.624-1.115,1.115c-0.042,0.516-0.943,0.171-1.115,0.557
	c-0.65,0-1.301,0-1.951,0c-1.219-0.375-1.937-1.086-3.066-1.95c-0.09-0.07-0.196-0.521-0.278-0.559
	c-1.271-0.572-2.628-2.048-3.902-3.064c-0.346-0.583-0.811-1.048-1.394-1.395c-0.169-0.667-0.401-1.271-0.278-2.229
	c-0.125-1.238,0.754-1.474,1.114-2.229c0.492-0.252,0.863-0.624,1.115-1.114c3.317-3.094,9.072-3.749,13.935-5.297
	c0.821-0.294,1.847-0.382,2.508-0.835c1.703-0.528,3.066-1.395,5.017-1.673c0.875,0.132,1.139-0.348,1.394-0.835
	c0.135-0.33,0.297-0.633,0.557-0.837c0.17-0.016,0.33-0.042,0.279-0.279c0.674-0.438,1.232-0.997,1.672-1.672
	c0-0.093,0-0.186,0-0.278c1.456-1.518,2.587-3.359,4.18-4.738c0.768-0.533,1.418-1.184,1.951-1.951c0-0.093,0-0.186,0-0.278
	c0.675-0.44,1.232-0.998,1.673-1.673c0.491-0.252,0.863-0.623,1.114-1.114c0-0.093,0-0.187,0-0.279
	c0.492-0.252,0.863-0.623,1.115-1.115c1.97-2.488,4.414-4.503,5.295-8.081c0.059-0.314,0.309-0.436,0.558-0.559
	c0.49-0.251,0.863-0.624,1.115-1.114c4.252-4.297,9.991-7.103,17.279-8.361C85.291,83.021,86.413,83.308,86.744,82.801z
	 M100.122,85.031c0-0.093,0-0.186,0-0.279c-3.173-2.519-8.438,0.265-12.265,0.558c-0.789,0.047-1.16,0.512-1.951,0.558
	c-1.294,0.099-2.428,0.357-3.344,0.837c-0.328,0.043-0.791-0.049-0.835,0.278c-4.919,1.028-8.457,3.435-11.706,6.131
	c-0.948,0.354-1.597,1.005-1.951,1.952c-1.248,4.139-4.294,6.482-6.689,9.476c-0.491,0.252-0.863,0.624-1.114,1.115
	c-0.493,0.251-0.863,0.623-1.116,1.114c0.049,0.697-0.429,0.873-0.835,1.115c-0.675,0.439-1.232,0.997-1.673,1.672
	c-1.436,2.001-2.989,3.886-4.738,5.574c-0.012,0.384,0.131,0.612,0.279,0.837c-0.718-0.686-1.34,0.297-1.672,0.835
	c0,0.094,0,0.187,0,0.279c0.397,0.066,0.47,0.459,0.836,0.558c1.927,2.16,3.971,4.204,6.13,6.131
	c0.906,1.14,1.928,2.161,3.067,3.066c1.246,0.992,3.292,1.032,4.182-0.278c0.49-0.253,0.861-0.624,1.113-1.115
	c0.83-0.378,1.158-1.258,1.673-1.951c0.491-0.251,0.863-0.624,1.114-1.115c0.583-0.345,1.048-0.81,1.395-1.393
	c0.082-0.569,0.753-0.547,0.835-1.115c0.491-0.251,0.863-0.623,1.116-1.115c0.768-0.532,1.416-1.184,1.949-1.951
	c1.206-1.21,2.835-1.996,3.902-3.344c0.583-0.347,1.048-0.812,1.395-1.395c0.675-0.439,1.232-0.996,1.671-1.672
	c0.493-0.251,0.863-0.624,1.116-1.114c0.17-0.017,0.328-0.041,0.278-0.278c4.455-3.07,8.178-6.873,15.608-6.968
	c0.665-0.171,2.021,0.35,2.229-0.279c0.733,0.085,0.718-0.582,0.836-1.114c0.459-0.038,0.459-1.913,0-1.951c0-0.93,0-1.858,0-2.787
	c0-0.836,0-1.673,0-2.508c0-0.465,0-0.93,0-1.395c0-0.743,0-1.486,0-2.23c-0.166-0.576,0.345-1.83-0.278-1.951
	C100.863,86.519,100.24,86.027,100.122,85.031z M42.707,120.706c-0.216,0.063-0.55,0.008-0.557,0.279
	c-0.79,0.047-1.162,0.511-1.951,0.557c-4.377,1.568-9.819,2.072-13.1,4.739c-0.583,0.346-1.047,0.811-1.394,1.393
	c0,0.279,0,0.558,0,0.836c1.363,1.402,3.195,2.516,4.459,3.623c0.915,0.803,1.656,2.081,3.066,1.951
	c2.858-3.087,5.299-6.592,7.804-10.033c0.717-0.677,1.317-1.47,1.951-2.229c0.163-0.58,0.585-0.901,0.836-1.394
	C43.295,120.365,43.207,120.741,42.707,120.706z"/>
<path fill-rule="evenodd" clip-rule="evenodd" fill="#1A1A1A" d="M82.563,86.704c0.758,0.172,2.212-0.354,2.509,0.278
	c-1.114,0-2.23,0-3.344,0C81.771,86.655,82.234,86.747,82.563,86.704z"/>
<path fill-rule="evenodd" clip-rule="evenodd" fill="#323232" d="M97.893,102.033c0.206-0.63,1.563-0.109,2.229-0.279
	C99.914,102.383,98.558,101.862,97.893,102.033z"/>
<path fill-rule="evenodd" clip-rule="evenodd" fill="#777777" d="M39.083,119.033c0.186-1.679-1.373-3.076-0.836-4.18
	c0.79-0.047,1.161-0.511,1.951-0.558c0.334,1.338,0.854,2.49,1.115,3.902c0.093,0,0.186,0,0.278,0
	C40.93,118.651,39.904,118.739,39.083,119.033z"/>
<path fill-rule="evenodd" clip-rule="evenodd" fill="#777777" d="M61.659,130.183c0.743,0,1.486,0,2.229,0
	C63.765,130.643,61.783,130.643,61.659,130.183z"/>
</svg>
