<?xml version="1.0" encoding="utf-8"?>
<!-- Generator: Adobe Illustrator 15.0.0, SVG Export Plug-In  -->
<!DOCTYPE svg PUBLIC "-//W3C//DTD SVG 1.1//EN" "http://www.w3.org/Graphics/SVG/1.1/DTD/svg11.dtd" [
	<!ENTITY ns_flows "http://ns.adobe.com/Flows/1.0/">
]>
<svg version="1.1"
	 xmlns="http://www.w3.org/2000/svg" xmlns:xlink="http://www.w3.org/1999/xlink" xmlns:a="http://ns.adobe.com/AdobeSVGViewerExtensions/3.0/"
	 x="0px" y="0px" width="142px" height="142px" viewBox="-18.608 -2.342 142 142" enable-background="new -18.608 -2.342 142 142"
	 xml:space="preserve">
<defs>
</defs>
<path fill-rule="evenodd" clip-rule="evenodd" fill="#7C7C7C" d="M99.843,21.193c0.095,0,0.187,0,0.28,0c0,0.464,0,0.929,0,1.393
	c-0.094,0-0.186,0-0.28,0C99.843,22.122,99.843,21.657,99.843,21.193z"/>
<path fill-rule="evenodd" clip-rule="evenodd" fill="#C6C6C6" d="M97.335,22.307c0.378,0.087,0.232,0.698,0.28,1.115
	c-0.095,0-0.187,0-0.28,0C97.335,23.05,97.335,22.679,97.335,22.307z"/>
<path fill-rule="evenodd" clip-rule="evenodd" fill="#C6C6C6" d="M99.843,22.586c0.095,0,0.187,0,0.28,0c0,0.372,0,0.744,0,1.115
	C99.711,23.649,99.867,23.027,99.843,22.586z"/>
<path fill-rule="evenodd" clip-rule="evenodd" fill="#7C7C7C" d="M97.335,23.422c0.094,0,0.186,0,0.28,0c0,0.372,0,0.744,0,1.115
	c-0.095,0-0.187,0-0.28,0C97.335,24.166,97.335,23.794,97.335,23.422z"/>
<path fill-rule="evenodd" clip-rule="evenodd" fill="#7C7C7C" d="M100.123,25.652c0.093,0,0.185,0,0.278,0c0,0.372,0,0.743,0,1.115
	c-0.094,0-0.186,0-0.278,0C100.123,26.395,100.123,26.023,100.123,25.652z"/>
<path fill-rule="evenodd" clip-rule="evenodd" fill="#C6C6C6" d="M97.615,26.488c0.377,0.086,0.23,0.698,0.278,1.115
	c-0.094,0-0.187,0-0.278,0C97.615,27.231,97.615,26.86,97.615,26.488z"/>
<path fill-rule="evenodd" clip-rule="evenodd" fill="#C6C6C6" d="M100.123,26.767c0.093,0,0.185,0,0.278,0c0,0.372,0,0.743,0,1.115
	C99.989,27.83,100.146,27.208,100.123,26.767z"/>
<path fill-rule="evenodd" clip-rule="evenodd" fill="#7C7C7C" d="M97.615,27.603c0.092,0,0.185,0,0.278,0c0,0.372,0,0.743,0,1.115
	c-0.094,0-0.187,0-0.278,0C97.615,28.346,97.615,27.975,97.615,27.603z"/>
<path fill-rule="evenodd" clip-rule="evenodd" fill="#7C7C7C" d="M77.825,29.833c0.093,0,0.187,0,0.278,0c0,0.372,0,0.743,0,1.115
	c-0.092,0-0.186,0-0.278,0C77.825,30.576,77.825,30.205,77.825,29.833z"/>
<path fill-rule="evenodd" clip-rule="evenodd" fill="#7C7C7C" d="M100.401,29.833c0.093,0,0.185,0,0.279,0c0,0.372,0,0.743,0,1.115
	c-0.095,0-0.187,0-0.279,0C100.401,30.576,100.401,30.205,100.401,29.833z"/>
<path fill-rule="evenodd" clip-rule="evenodd" fill="#C6C6C6" d="M75.317,30.669c0.604-0.047,0.126,0.988,0.278,1.393
	c-0.092,0-0.187,0-0.278,0C75.317,31.598,75.317,31.133,75.317,30.669z"/>
<path fill-rule="evenodd" clip-rule="evenodd" fill="#C6C6C6" d="M97.894,30.669c0.377,0.086,0.23,0.698,0.278,1.115
	c-0.094,0-0.187,0-0.278,0C97.894,31.412,97.894,31.041,97.894,30.669z"/>
<path fill-rule="evenodd" clip-rule="evenodd" fill="#C6C6C6" d="M77.825,30.948c0.093,0,0.187,0,0.278,0c0,0.929,0,1.858,0,2.787
	C77.469,33.349,78,31.795,77.825,30.948z"/>
<path fill-rule="evenodd" clip-rule="evenodd" fill="#C6C6C6" d="M100.401,30.948c0.093,0,0.185,0,0.279,0c0,0.371,0,0.743,0,1.114
	C100.268,32.011,100.424,31.389,100.401,30.948z"/>
<path fill-rule="evenodd" clip-rule="evenodd" fill="#7C7C7C" d="M97.894,31.784c0.092,0,0.185,0,0.278,0c0,0.372,0,0.743,0,1.114
	c-0.094,0-0.187,0-0.278,0C97.894,32.527,97.894,32.155,97.894,31.784z"/>
<path fill-rule="evenodd" clip-rule="evenodd" fill="#7C7C7C" d="M75.317,32.062c0.092,0,0.187,0,0.278,0
	c-0.185,5.482,0.371,11.706-0.278,16.723C75.317,43.211,75.317,37.637,75.317,32.062z"/>
<path fill-rule="evenodd" clip-rule="evenodd" fill="#7C7C7C" d="M98.172,35.686c0.379,0.086,0.23,0.698,0.278,1.114
	c-0.092,0-0.186,0-0.278,0C98.172,36.429,98.172,36.057,98.172,35.686z"/>
<path fill-rule="evenodd" clip-rule="evenodd" fill="#3A3A3A" d="M98.172,36.8c0.093,0,0.187,0,0.278,0
	c-0.023,0.441,0.135,1.063-0.278,1.115C98.172,37.543,98.172,37.172,98.172,36.8z"/>
<path fill-rule="evenodd" clip-rule="evenodd" fill="#C6C6C6" d="M78.104,43.768c0,0.836,0,1.673,0,2.509
	C77.644,46.065,77.644,43.979,78.104,43.768z"/>
<path fill-rule="evenodd" clip-rule="evenodd" fill="#7C7C7C" d="M92.04,58.261c0.092,0,0.186,0,0.278,0c0,0.464,0,0.929,0,1.394
	c-0.093,0-0.187,0-0.278,0C92.04,59.19,92.04,58.726,92.04,58.261z"/>
<path fill-rule="evenodd" clip-rule="evenodd" fill="#C6C6C6" d="M89.531,59.097c0.465,1.492,0.465,4.919,0,6.411
	C89.531,63.371,89.531,61.234,89.531,59.097z"/>
<path fill-rule="evenodd" clip-rule="evenodd" fill="#C6C6C6" d="M92.04,59.655c0.092,0,0.186,0,0.278,0c0,1.486,0,2.973,0,4.459
	c-0.093,0-0.187,0-0.278,0C92.04,62.627,92.04,61.141,92.04,59.655z"/>
<path fill-rule="evenodd" clip-rule="evenodd" fill="#7C7C7C" d="M92.04,64.114c0.092,0,0.186,0,0.278,0c0,1.394,0,2.787,0,4.181
	c-0.093,0-0.187,0-0.278,0C92.04,66.901,92.04,65.508,92.04,64.114z"/>
<path fill-rule="evenodd" clip-rule="evenodd" fill="#C6C6C6" d="M92.04,68.295c0.092,0,0.186,0,0.278,0c0,0.372,0,0.743,0,1.115
	C91.905,69.358,92.063,68.736,92.04,68.295z"/>
<path fill-rule="evenodd" clip-rule="evenodd" fill="#1A1A1A" d="M83.399,84.182c-0.199-0.452,1.313-0.452,1.115,0
	C84.143,84.182,83.771,84.182,83.399,84.182z"/>
<path fill-rule="evenodd" clip-rule="evenodd" fill="#1A1A1A" d="M80.891,84.46c0.052-0.412,0.675-0.255,1.116-0.278
	C81.954,84.595,81.333,84.438,80.891,84.46z"/>
<path fill-rule="evenodd" clip-rule="evenodd" fill="#1A1A1A" d="M46.889,86.69c0.051-0.413,0.673-0.256,1.115-0.279
	C47.952,86.823,47.33,86.666,46.889,86.69z"/>
<path fill-rule="evenodd" clip-rule="evenodd" fill="#1A1A1A" d="M23.755,87.804c-0.125-0.454,1.52-0.454,1.394,0
	C24.685,87.804,24.22,87.804,23.755,87.804z"/>
<path fill-rule="evenodd" clip-rule="evenodd" fill="#C6C6C6" d="M27.379,92.264c0.452-0.199,0.452,1.315,0,1.116
	C27.379,93.007,27.379,92.636,27.379,92.264z"/>
<path fill-rule="evenodd" clip-rule="evenodd" fill="#7C7C7C" d="M69.465,95.052c0.093,0,0.185,0,0.279,0
	c0.821,0.384,1.128,1.287,1.951,1.671c0,0.094,0,0.187,0,0.279c-0.171,0.016-0.331,0.042-0.28,0.279
	c-1.15,0.804-1.549-1.123-2.509-1.394C68.975,95.49,69.365,95.417,69.465,95.052z"/>
<path fill-rule="evenodd" clip-rule="evenodd" fill="#C6C6C6" d="M20.132,103.691c-0.16,0.489,0.337,1.638-0.278,1.673
	c0-0.28,0-0.559,0-0.837c0-0.093,0-0.187,0-0.278C19.917,104.031,19.861,103.699,20.132,103.691z"/>
<path fill-rule="evenodd" clip-rule="evenodd" fill="#1A1A1A" d="M5.918,129.611c0,0.465,0,0.93,0,1.395
	C5.463,131.131,5.463,129.485,5.918,129.611z"/>
<path fill-rule="evenodd" clip-rule="evenodd" fill="#7C7C7C" d="M42.708,80.559c0.86,0.626,1.604,1.369,2.229,2.229
	C44.078,82.161,43.334,81.418,42.708,80.559z"/>
<path fill-rule="evenodd" clip-rule="evenodd" fill="#C6C6C6" d="M40.757,78.886c0.611,0.597,1.548,0.867,1.951,1.673
	C42.015,80.044,41.135,79.715,40.757,78.886z"/>
<path fill-rule="evenodd" clip-rule="evenodd" fill="#7C7C7C" d="M1.18,72.475c0.583,0.347,1.047,0.812,1.394,1.395
	C1.991,73.522,1.526,73.059,1.18,72.475z"/>
<path fill-rule="evenodd" clip-rule="evenodd" fill="#3A3A3A" d="M2.574,73.869c0.568,0.082,0.546,0.755,1.115,0.836
	c0,0.093,0,0.186,0,0.279C3.197,74.732,2.826,74.36,2.574,73.869z"/>
<path fill-rule="evenodd" clip-rule="evenodd" fill="#1A1A1A" d="M3.688,74.984c0.583,0.346,1.047,0.811,1.394,1.394
	C4.499,76.032,4.035,75.567,3.688,74.984z"/>
<path fill-rule="evenodd" clip-rule="evenodd" fill="#C6C6C6" d="M5.082,76.378c-0.346-0.583-0.811-1.048-1.394-1.394
	c0-0.094,0-0.187,0-0.279c0.86,0.627,1.603,1.37,2.23,2.229C5.552,76.836,5.479,76.443,5.082,76.378z"/>
<path fill-rule="evenodd" clip-rule="evenodd" fill="#7C7C7C" d="M5.918,76.935c1.509,1.277,2.903,2.671,4.181,4.181
	C8.589,79.839,7.195,78.445,5.918,76.935z"/>
<path fill-rule="evenodd" clip-rule="evenodd" fill="#3A3A3A" d="M10.099,81.115c3.088,2.857,6.062,5.83,8.918,8.919
	C15.928,87.178,12.955,84.205,10.099,81.115z"/>
<path fill-rule="evenodd" clip-rule="evenodd" fill="#7C7C7C" d="M23.477,97.838c0.534-0.768,1.184-1.417,1.951-1.95
	C24.895,96.655,24.245,97.305,23.477,97.838z"/>
<path fill-rule="evenodd" clip-rule="evenodd" fill="#1A1A1A" d="M35.183,136.301c0.252-0.491,0.623-0.864,1.114-1.115
	C36.046,135.677,35.674,136.049,35.183,136.301z"/>
<path fill-rule="evenodd" clip-rule="evenodd" fill="#3A3A3A" d="M68.906,95.888c0.96,0.271,1.358,2.197,2.509,1.394
	c-0.051-0.237,0.109-0.264,0.28-0.279c-0.242,0.408-0.419,0.883-1.116,0.836c-0.288-0.733-1.105-0.938-1.395-1.672
	c-0.759-0.203-0.561,0.554-1.113,0.557C68.228,96.321,68.506,96.043,68.906,95.888z"/>
<path fill-rule="evenodd" clip-rule="evenodd" fill="#3A3A3A" d="M70.022,94.772c0.385,0.822,1.286,1.128,1.673,1.95
	c-0.823-0.384-1.13-1.287-1.951-1.671C69.691,94.813,69.852,94.788,70.022,94.772z"/>
<path fill-rule="evenodd" clip-rule="evenodd" fill="#7C7C7C" d="M93.434,73.591c0.491,0.251,0.864,0.623,1.114,1.114
	C94.057,74.453,93.685,74.082,93.434,73.591z"/>
<path fill-rule="evenodd" clip-rule="evenodd" fill="#1A1A1A" d="M92.04,48.228c1.601-2.022,3.694-3.552,5.295-5.574
	c0.094,0,0.186,0,0.28,0C95.872,44.627,94.015,46.486,92.04,48.228z"/>
<path fill-rule="evenodd" clip-rule="evenodd" fill="#3A3A3A" d="M97.615,42.653c0.625-0.86,1.368-1.604,2.228-2.229
	C99.218,41.284,98.475,42.027,97.615,42.653z"/>
<path fill-rule="evenodd" clip-rule="evenodd" fill="#7C7C7C" d="M89.81,11.717c1.103-0.756,1.236-2.481,1.951-3.624
	c0.556,0.375,1.327,0.532,1.952,0.836c-0.232,1.534-0.979,2.553-1.673,3.624c0.067,0.302,0.555,0.188,0.557,0.557
	C91.651,12.664,90.525,12.395,89.81,11.717z"/>
<path fill-rule="evenodd" clip-rule="evenodd" fill="#C6C6C6" d="M91.761,48.507c0.07-0.13-0.09-0.445,0-0.558
	c1.642-2.03,3.879-3.413,5.574-5.296c-1.601,2.022-3.694,3.552-5.295,5.574C92.092,48.465,91.932,48.491,91.761,48.507z"/>
<path fill-rule="evenodd" clip-rule="evenodd" fill="#C6C6C6" d="M67.792,96.723c0.439-0.675,0.996-1.232,1.673-1.671
	c-0.1,0.365-0.49,0.438-0.559,0.836c-0.4,0.155-0.679,0.434-0.835,0.835C67.979,96.723,67.885,96.723,67.792,96.723z"/>
<path fill-rule="evenodd" clip-rule="evenodd" fill="#C6C6C6" d="M34.904,136.301c0.346-0.583,0.811-1.048,1.394-1.394
	c0,0.093,0,0.186,0,0.278c-0.491,0.251-0.862,0.624-1.114,1.115C35.09,136.301,34.997,136.301,34.904,136.301z"/>
<path fill-rule="evenodd" clip-rule="evenodd" fill="#C6C6C6" d="M73.923,9.765c0.569,0.083,0.547,0.754,1.116,0.836
	c0,0.093,0,0.186,0,0.279C74.548,10.629,74.175,10.257,73.923,9.765z"/>
<path fill-rule="evenodd" clip-rule="evenodd" fill="#C6C6C6" d="M43.265,85.018c-0.575-1.004-1.655-1.504-2.229-2.509
	c0.954,0.72,1.79,1.556,2.509,2.509C43.451,85.018,43.358,85.018,43.265,85.018z"/>
<path fill-rule="evenodd" clip-rule="evenodd" fill="#C6C6C6" d="M39.084,80.837c-0.524-0.498-1.29-0.753-1.672-1.395
	C38.13,79.747,38.752,80.148,39.084,80.837z"/>
<path fill-rule="evenodd" clip-rule="evenodd" fill="#C6C6C6" d="M3.131,70.803c0.492,0.252,0.863,0.624,1.115,1.115
	C3.754,71.667,3.382,71.295,3.131,70.803z"/>
<path fill-rule="evenodd" clip-rule="evenodd" fill="#3A3A3A" d="M4.524,71.918c0.583,0.346,1.048,0.811,1.394,1.394
	C5.335,72.966,4.871,72.501,4.524,71.918z"/>
<path fill-rule="evenodd" clip-rule="evenodd" fill="#7C7C7C" d="M5.918,73.312c0.768,0.533,1.418,1.184,1.951,1.951
	C7.101,74.729,6.451,74.08,5.918,73.312z"/>
<path fill-rule="evenodd" clip-rule="evenodd" fill="#C6C6C6" d="M7.869,75.263c0.568,0.082,0.546,0.754,1.115,0.836
	c1.043,1.466,2.581,2.437,3.623,3.902C10.912,78.538,9.332,76.959,7.869,75.263z"/>
<path fill-rule="evenodd" clip-rule="evenodd" fill="#1A1A1A" d="M12.607,80.001c-1.042-1.466-2.58-2.437-3.623-3.902
	c1.51,1.276,2.903,2.671,4.181,4.181C12.939,80.227,12.887,80,12.607,80.001z"/>
<path fill-rule="evenodd" clip-rule="evenodd" fill="#3A3A3A" d="M13.165,80.279c2.718,2.485,5.318,5.087,7.804,7.804
	C18.251,85.599,15.65,82.997,13.165,80.279z"/>
<path fill-rule="evenodd" clip-rule="evenodd" fill="#C6C6C6" d="M24.592,100.626c1.186-1.881,2.837-3.295,4.459-4.738
	c-0.669,1.096-1.84,1.69-2.509,2.787c-0.492,0.251-0.863,0.623-1.115,1.114C25.271,100.191,24.993,100.47,24.592,100.626z"/>
<path fill-rule="evenodd" clip-rule="evenodd" fill="#7C7C7C" d="M32.953,134.349c0.45-0.385,0.883-0.789,1.394-1.113
	C33.988,133.712,33.77,134.331,32.953,134.349z"/>
<path fill-rule="evenodd" clip-rule="evenodd" fill="#3A3A3A" d="M66.957,93.658c-0.339,1.428-1.985,1.545-3.067,2.229
	c0.082-0.569,0.756-0.547,0.838-1.115c0.052-0.226,0.278-0.278,0.278-0.558c0.49-0.251,0.861-0.623,1.113-1.115
	C66.486,93.199,66.559,93.591,66.957,93.658z"/>
<path fill-rule="evenodd" clip-rule="evenodd" fill="#7C7C7C" d="M67.235,91.985c0.533,1.463,1.183,0.199,1.949-0.278
	c-0.488,0.904-1.393,1.393-2.228,1.951c-0.398-0.067-0.471-0.459-0.838-0.559c-0.082-0.567-0.753-0.546-0.835-1.114
	c0-0.093,0-0.186,0-0.278c0.248-0.124,0.497-0.245,0.557-0.558c0.187,0,0.371,0,0.558,0C66.555,91.552,66.833,91.83,67.235,91.985z"
	/>
<path fill-rule="evenodd" clip-rule="evenodd" fill="#C6C6C6" d="M92.597,76.656c-0.251-0.491-0.623-0.863-1.114-1.115
	c0-0.093,0-0.186,0-0.278c0.583,0.346,1.048,0.811,1.393,1.394C92.783,76.656,92.69,76.656,92.597,76.656z"/>
<path fill-rule="evenodd" clip-rule="evenodd" fill="#7C7C7C" d="M90.088,46.277c1.557-1.789,3.229-3.461,5.017-5.017
	C93.55,43.048,91.877,44.721,90.088,46.277z"/>
<path fill-rule="evenodd" clip-rule="evenodd" fill="#3A3A3A" d="M95.104,41.26c0.533-0.768,1.185-1.418,1.952-1.951
	C96.523,40.077,95.872,40.727,95.104,41.26z"/>
<path fill-rule="evenodd" clip-rule="evenodd" fill="#1A1A1A" d="M91.482,75.541c0.491,0.252,0.863,0.624,1.114,1.115
	C92.105,76.404,91.735,76.032,91.482,75.541z"/>
<path fill-rule="evenodd" clip-rule="evenodd" fill="#1A1A1A" d="M74.761,86.69c0.391-0.446,0.959-0.713,1.67-0.837
	C76.04,86.3,75.472,86.565,74.761,86.69z"/>
<path fill-rule="evenodd" clip-rule="evenodd" fill="#1A1A1A" d="M73.366,87.525c0.078-0.572,0.745-0.556,1.115-0.835
	C74.403,87.263,73.736,87.246,73.366,87.525z"/>
<path fill-rule="evenodd" clip-rule="evenodd" fill="#3A3A3A" d="M67.235,91.985c1.815-1.715,3.614-3.445,6.131-4.46
	c0.37-0.279,1.037-0.263,1.115-0.835c0.093,0,0.187,0,0.279,0c0.711-0.125,1.279-0.391,1.67-0.837
	c1.365-0.587,2.645-1.258,4.46-1.394c0.442-0.022,1.063,0.135,1.116-0.278c0.465,0,0.928,0,1.393,0c0.372,0,0.743,0,1.115,0
	c1.32-0.206,1.915,0.313,3.065,0.278c0,0.093,0,0.186,0,0.278c-8.612-0.159-13.517,3.393-18.396,6.969
	C68.418,92.185,67.769,93.448,67.235,91.985z"/>
<path fill-rule="evenodd" clip-rule="evenodd" fill="#3A3A3A" d="M65.006,91.985c0.23-0.354,0.976-1.589,1.393-0.836
	c-0.187,0-0.371,0-0.558,0c-0.06,0.313-0.309,0.434-0.557,0.558c0,0.093,0,0.186,0,0.278C65.19,91.985,65.098,91.985,65.006,91.985z
	"/>
<path fill-rule="evenodd" clip-rule="evenodd" fill="#1A1A1A" d="M65.006,91.985c0.092,0,0.185,0,0.278,0
	c0.082,0.568,0.753,0.547,0.835,1.114c-0.252,0.492-0.623,0.864-1.113,1.115c0.082-0.568,0.753-0.546,0.835-1.115
	C65.759,92.532,65.088,92.554,65.006,91.985z"/>
<path fill-rule="evenodd" clip-rule="evenodd" fill="#1A1A1A" d="M63.055,96.444c0.438-0.675,0.995-1.232,1.673-1.672
	c-0.082,0.568-0.756,0.546-0.838,1.115C63.523,95.986,63.451,96.378,63.055,96.444z"/>
<path fill-rule="evenodd" clip-rule="evenodd" fill="#1A1A1A" d="M25.428,99.789c0.252-0.491,0.623-0.863,1.115-1.114
	C26.291,99.166,25.919,99.538,25.428,99.789z"/>
<path fill-rule="evenodd" clip-rule="evenodd" fill="#1A1A1A" d="M4.246,71.918c-0.252-0.491-0.624-0.863-1.115-1.115
	c0-0.092,0-0.185,0-0.278c0.583,0.347,1.047,0.811,1.394,1.394C4.432,71.918,4.338,71.918,4.246,71.918z"/>
<path fill-rule="evenodd" clip-rule="evenodd" fill="#1A1A1A" d="M40.757,82.509c0.093,0,0.186,0,0.279,0
	c0.575,1.005,1.655,1.505,2.229,2.509C42.313,84.298,41.476,83.462,40.757,82.509z"/>
<path fill-rule="evenodd" clip-rule="evenodd" fill="#1A1A1A" d="M49.676,85.854c0.183-0.373,0.595-0.519,1.114-0.558
	C50.607,85.67,50.195,85.815,49.676,85.854z"/>
<path fill-rule="evenodd" clip-rule="evenodd" fill="#7C7C7C" d="M61.382,81.115c0.719,0.753-0.293,1.345-1.114,1.394
	c-0.148-0.224-0.292-0.451-0.28-0.836c-0.124-0.713-0.391-1.281-0.836-1.672c0.373-0.464,1.24-0.433,1.673-0.837
	C60.418,79.604,60.909,80.718,61.382,81.115z"/>
<path fill-rule="evenodd" clip-rule="evenodd" fill="#1A1A1A" d="M66.398,78.886c0.347-0.583,0.811-1.048,1.394-1.394
	C67.446,78.075,66.981,78.54,66.398,78.886z"/>
<path fill-rule="evenodd" clip-rule="evenodd" fill="#1A1A1A" d="M75.039,10.602c-0.569-0.082-0.547-0.754-1.116-0.836
	c0-0.092,0-0.186,0-0.278C74.416,9.739,74.786,10.11,75.039,10.602z"/>
<path fill-rule="evenodd" clip-rule="evenodd" fill="#7C7C7C" d="M91.204,15.618c-0.094,0-0.187,0-0.278,0
	c-0.783,0.89-1.172,2.173-1.673,3.345c-1.086,0.064-1.444-0.599-2.229-0.836c0.503-1.356,1.479-2.239,1.673-3.902
	C89.495,14.727,90.563,14.959,91.204,15.618z"/>
<path fill-rule="evenodd" clip-rule="evenodd" fill="#3A3A3A" d="M60.824,79.164c1.272-0.512,3.348-1.43,4.738-2.229
	c2.004-1.152,2.372-2.773,3.622-5.017c0,0.187,0,0.372,0,0.557c-0.292,1.844-0.681,3.594-1.393,5.018
	c-0.583,0.346-1.047,0.811-1.394,1.394c-1.316,1.099-3.486,1.345-5.017,2.229C60.909,80.718,60.418,79.604,60.824,79.164z"/>
<path fill-rule="evenodd" clip-rule="evenodd" fill="#3A3A3A" d="M17.345,102.855c0.063,0.494-0.28,1.396,0.558,1.114
	c0,0.093,0,0.186,0,0.279C16.844,104.81,16.798,102.981,17.345,102.855z"/>
<path fill-rule="evenodd" clip-rule="evenodd" fill="#1A1A1A" d="M24.313,105.084c0.583,0.118,0.738-0.191,1.115-0.278
	c0.281,0.839-0.621,0.495-1.115,0.559C24.313,105.271,24.313,105.178,24.313,105.084z"/>
<path fill-rule="evenodd" clip-rule="evenodd" fill="#7C7C7C" d="M74.203,0.011c0.441,0.023,1.062-0.134,1.114,0.278
	C74.877,0.266,74.253,0.423,74.203,0.011z"/>
<path fill-rule="evenodd" clip-rule="evenodd" fill="#7C7C7C" d="M68.35,7.257c-0.461-0.211-0.461-2.297,0-2.508
	C68.35,5.585,68.35,6.421,68.35,7.257z"/>
<path fill-rule="evenodd" clip-rule="evenodd" fill="#3A3A3A" d="M76.152,14.503c0.413,0.052,0.257,0.674,0.278,1.115
	C76.055,15.532,76.201,14.92,76.152,14.503z"/>
<path fill-rule="evenodd" clip-rule="evenodd" fill="#7C7C7C" d="M73.366,13.946c0.623,0.12,0.114,1.374,0.278,1.951
	C73.021,15.777,73.532,14.523,73.366,13.946z"/>
<path fill-rule="evenodd" clip-rule="evenodd" fill="#3A3A3A" d="M99.843,19.799c0.605-0.046,0.128,0.989,0.28,1.394
	c-0.094,0-0.186,0-0.28,0C99.843,20.728,99.843,20.264,99.843,19.799z"/>
<path fill-rule="evenodd" clip-rule="evenodd" fill="#3A3A3A" d="M97.057,20.078c0.616,0.035,0.118,1.183,0.278,1.672
	C96.72,21.715,97.217,20.568,97.057,20.078z"/>
<path fill-rule="evenodd" clip-rule="evenodd" fill="#3A3A3A" d="M100.123,24.258c0.604-0.047,0.127,0.989,0.278,1.394
	c-0.094,0-0.186,0-0.278,0C100.123,25.188,100.123,24.723,100.123,24.258z"/>
<path fill-rule="evenodd" clip-rule="evenodd" fill="#3A3A3A" d="M97.615,24.537c0,0.465,0,0.929,0,1.394
	c-0.605,0.047-0.128-0.989-0.28-1.394C97.429,24.537,97.521,24.537,97.615,24.537z"/>
<path fill-rule="evenodd" clip-rule="evenodd" fill="#3A3A3A" d="M77.825,28.439c0.605-0.046,0.127,0.989,0.278,1.394
	c-0.092,0-0.186,0-0.278,0C77.825,29.369,77.825,28.903,77.825,28.439z"/>
<path fill-rule="evenodd" clip-rule="evenodd" fill="#3A3A3A" d="M100.401,28.439c0.604-0.046,0.127,0.989,0.279,1.394
	c-0.095,0-0.187,0-0.279,0C100.401,29.369,100.401,28.903,100.401,28.439z"/>
<path fill-rule="evenodd" clip-rule="evenodd" fill="#3A3A3A" d="M75.039,28.997c0.412,0.052,0.254,0.674,0.278,1.115
	C74.938,30.025,75.087,29.414,75.039,28.997z"/>
<path fill-rule="evenodd" clip-rule="evenodd" fill="#3A3A3A" d="M97.894,28.718c0,0.464,0,0.929,0,1.393
	c-0.605,0.047-0.126-0.988-0.278-1.393C97.707,28.718,97.8,28.718,97.894,28.718z"/>
<path fill-rule="evenodd" clip-rule="evenodd" fill="#3A3A3A" d="M100.681,32.341c0.614,0.035,0.118,1.182,0.278,1.672
	c-0.093,0-0.187,0-0.278,0C100.681,33.456,100.681,32.898,100.681,32.341z"/>
<path fill-rule="evenodd" clip-rule="evenodd" fill="#3A3A3A" d="M98.172,32.898c0,0.465,0,0.929,0,1.394
	c-0.604,0.047-0.126-0.989-0.278-1.394C97.985,32.898,98.078,32.898,98.172,32.898z"/>
<path fill-rule="evenodd" clip-rule="evenodd" fill="#3A3A3A" d="M100.959,36.522c0.457-0.046,0.457,1.718,0,1.672
	C100.959,37.637,100.959,37.079,100.959,36.522z"/>
<path fill-rule="evenodd" clip-rule="evenodd" fill="#3A3A3A" d="M92.04,56.868c0.604-0.047,0.126,0.989,0.278,1.394
	c-0.093,0-0.187,0-0.278,0C92.04,57.797,92.04,57.332,92.04,56.868z"/>
<path fill-rule="evenodd" clip-rule="evenodd" fill="#3A3A3A" d="M89.253,57.146c0.605-0.047,0.126,0.989,0.278,1.394
	C88.927,58.587,89.405,57.552,89.253,57.146z"/>
<path fill-rule="evenodd" clip-rule="evenodd" fill="#3A3A3A" d="M0.344,68.852c0,0.651,0,1.301,0,1.951
	C-0.115,70.765-0.115,68.89,0.344,68.852z"/>
<path fill-rule="evenodd" clip-rule="evenodd" fill="#C6C6C6" d="M89.531,67.458c0.64,0.568,0.103,2.315,0.278,3.344
	C89.171,70.235,89.71,68.489,89.531,67.458z"/>
<path fill-rule="evenodd" clip-rule="evenodd" fill="#1A1A1A" d="M69.185,71.918c-0.044-0.323,0.063-0.496,0.28-0.557
	c-0.048,0.416,0.099,1.027-0.28,1.113C69.185,72.29,69.185,72.104,69.185,71.918z"/>
<path fill-rule="evenodd" clip-rule="evenodd" fill="#7C7C7C" d="M58.038,77.492c-0.148-1.059-0.872-1.545-0.838-2.787
	c0.173-0.386,1.074-0.041,1.116-0.558c0.755,0.544,0.587,2.015,1.393,2.509C59.338,77.121,58.471,77.089,58.038,77.492z"/>
<path fill-rule="evenodd" clip-rule="evenodd" fill="#3A3A3A" d="M59.151,80.001c0.445,0.391,0.712,0.959,0.836,1.672
	c-3.262,1.011-5.919,2.628-9.197,3.623c-0.519,0.039-0.931,0.185-1.114,0.558c-0.583,0.16-0.796,0.691-1.673,0.558
	c-0.441,0.023-1.063-0.134-1.115,0.279c-1.384,0.083-2.252-0.35-2.788-1.115c0.578-0.166,1.831,0.345,1.952-0.279
	C50.503,83.615,54.617,81.598,59.151,80.001z"/>
<path fill-rule="evenodd" clip-rule="evenodd" fill="#1A1A1A" d="M87.58,84.46c0.651,0,1.3,0,1.951,0
	c-0.12,0.623-1.374,0.113-1.951,0.278C87.58,84.646,87.58,84.553,87.58,84.46z"/>
<path fill-rule="evenodd" clip-rule="evenodd" fill="#7C7C7C" d="M87.302,87.247c0.835,0,1.673,0,2.508,0
	c-0.296,0.633-1.751,0.106-2.508,0.278C87.302,87.434,87.302,87.34,87.302,87.247z"/>
<path fill-rule="evenodd" clip-rule="evenodd" fill="#7C7C7C" d="M23.477,90.592c0.038-0.459,1.913-0.459,1.951,0
	C24.777,90.592,24.127,90.592,23.477,90.592z"/>
<path fill-rule="evenodd" clip-rule="evenodd" fill="#7C7C7C" d="M17.345,102.855c0.236-0.817,0.897,0.166,1.394,0
	c-0.047,0.604,0.988,0.125,1.394,0.278c0,0.187,0,0.372,0,0.558c-0.271,0.008-0.216,0.34-0.278,0.558c-0.372,0-0.743,0-1.115,0
	c-0.279,0-0.557,0-0.836,0c0-0.094,0-0.187,0-0.279C17.065,104.251,17.409,103.35,17.345,102.855z"/>
<path fill-rule="evenodd" clip-rule="evenodd" fill="#3A3A3A" d="M18.739,102.855c0.464,0,0.929,0,1.394,0c0,0.092,0,0.186,0,0.278
	C19.727,102.98,18.691,103.46,18.739,102.855z"/>
<path fill-rule="evenodd" clip-rule="evenodd" fill="#7C7C7C" d="M22.92,103.412c0.844,0.456,2.948-0.348,2.508,1.394
	c-0.377,0.087-0.532,0.396-1.115,0.278c-0.186,0-0.372,0-0.558,0c-0.086-0.377-0.697-0.23-1.115-0.278
	C22.793,104.401,22.315,103.365,22.92,103.412z"/>
<path fill-rule="evenodd" clip-rule="evenodd" fill="#3A3A3A" d="M18.739,104.249c0.372,0,0.743,0,1.115,0c0,0.092,0,0.186,0,0.278
	C19.413,104.504,18.791,104.661,18.739,104.249z"/>
<path fill-rule="evenodd" clip-rule="evenodd" fill="#3A3A3A" d="M22.641,104.806c0.417,0.048,1.029-0.099,1.115,0.278
	c-0.372,0-0.743,0-1.115,0C22.641,104.992,22.641,104.899,22.641,104.806z"/>
<path fill-rule="evenodd" clip-rule="evenodd" fill="#7C7C7C" d="M22.362,107.314c0.169-0.666-0.35-2.021,0.278-2.23
	C22.471,105.752,22.991,107.106,22.362,107.314z"/>
<path fill-rule="evenodd" clip-rule="evenodd" fill="#7C7C7C" d="M8.706,131.006c-0.455,0.125-0.455-1.521,0-1.395
	C8.706,130.076,8.706,130.541,8.706,131.006z"/>
<path fill-rule="evenodd" clip-rule="evenodd" fill="#7C7C7C" d="M9.263,134.907c0.836,0,1.672,0,2.508,0
	C11.56,135.368,9.474,135.368,9.263,134.907z"/>
<path fill-rule="evenodd" clip-rule="evenodd" fill="#7C7C7C" d="M31.838,136.857c0.743,0,1.486,0,2.229,0
	C33.944,137.317,31.962,137.317,31.838,136.857z"/>
<path fill-rule="evenodd" clip-rule="evenodd" fill="#FFFFFF" d="M68.35,4.749c0.547-2.985,2.576-4.485,5.854-4.738
	c0.05,0.413,0.674,0.255,1.114,0.278c3.654,0.433,4.335,3.841,5.295,6.968c2.818,1.735,6.086,3.019,9.197,4.46
	c0.716,0.678,1.842,0.947,2.787,1.393c2.999,1.646,7.26,2.031,7.246,6.689c0,0.465,0,0.929,0,1.394c0,0.464,0,0.929,0,1.393
	c0.024,0.441-0.132,1.063,0.28,1.115c0,0.186,0,0.372,0,0.557c0,0.465,0,0.929,0,1.394c0,0.372,0,0.743,0,1.115
	c0.022,0.441-0.134,1.063,0.278,1.115c0,0.186,0,0.372,0,0.557c0,0.464,0,0.93,0,1.394c0,0.372,0,0.743,0,1.115
	c0.022,0.441-0.134,1.063,0.279,1.114c0,0.093,0,0.186,0,0.279c0,0.557,0,1.115,0,1.672c0.164,0.577-0.345,1.831,0.278,1.951
	c0,0.186,0,0.372,0,0.558c0,0.557,0,1.115,0,1.672c0.124,1.238-0.756,1.475-1.116,2.229c-0.859,0.626-1.603,1.37-2.228,2.229
	c-0.095,0-0.187,0-0.28,0c-1.695,1.883-3.933,3.266-5.574,5.296c-0.09,0.112,0.07,0.427,0,0.558
	c-1.479,2.452,0.419,5.484,0.279,8.361c0,0.464,0,0.929,0,1.394s0,0.929,0,1.394c0,1.486,0,2.973,0,4.459c0,1.394,0,2.787,0,4.181
	c0.023,0.441-0.135,1.063,0.278,1.115c0.126,1.639,0.467,3.063,1.115,4.181c0.251,0.491,0.623,0.862,1.114,1.114
	c0.753,0.277,1.482,0.671,2.229,1.115c0.363,0.216,0.756,0.349,1.116,0.558c0.114,0.065,0.181,0.514,0.278,0.557
	c1.276,0.576,3.045,1.614,3.344,3.345c0.353,2.038-0.503,3.824-1.673,4.738c-1.34,1.049-4.607,1.168-7.246,1.673
	c-1.076,0.206-1.583,0.577-2.787,0.557c-0.835,0-1.673,0-2.508,0c-0.938,0.176-2.589-0.358-3.065,0.278
	c-6.08,1.075-10.614,3.693-14.214,7.247c-0.171,0.016-0.331,0.041-0.278,0.279c-0.095,0-0.187,0-0.279,0
	c-0.677,0.438-1.233,0.996-1.673,1.671c-0.699,0.953-1.937,0.96-2.786,1.673c-0.555,0.464-0.882,1.358-1.395,1.952
	c-0.326,0.377-1.166,0.608-1.395,1.113c-0.561,1.247-1.955,2.636-3.065,3.623c-0.44,2.408-1.993,3.787-3.344,5.575
	c-0.719,0.95-1.896,2.163-2.788,3.345c-0.426,0.564-0.819,0.922-1.394,1.673c-0.367,0.479-0.932,1.126-1.394,1.672
	c-0.068,0.081-0.523,0.203-0.557,0.278c-0.264,0.584-0.79,1.47-1.394,2.229c-0.687,0.862-1.145,1.455-1.951,2.508
	c-0.069,0.091-0.52,0.196-0.558,0.279c-0.827,1.836-2.863,3.86-4.181,5.574c-1.751,2.279-3.25,4.667-5.295,6.689
	c-0.583,0.346-1.047,0.811-1.394,1.394c-0.122,0.342-0.356,0.571-0.836,0.557c-0.743,0-1.486,0-2.229,0
	c-3.281-1.549-5.306-4.356-8.083-6.41c-1.797,1.873-4.707,2.352-7.804,3.345c-1.312,0.422-2.787,0.994-4.181,1.115
	c-0.836,0-1.672,0-2.508,0c-1.75-0.295-2.533-1.555-3.344-2.788c0-0.37,0-0.743,0-1.113c0-0.465,0-0.93,0-1.395
	c-0.082-1.588,1.193-2.684,1.951-3.902c0.259-0.416,0.511-0.832,0.836-1.393c0.695-1.202,1.92-2.787,2.787-4.182
	c0.259-0.417,0.511-0.831,0.836-1.394c0.901-1.558,2.534-3.822,3.623-5.574c0.6-0.966,1.467-2.38,2.23-3.623
	c0.882-1.438,1.728-1.972,1.672-4.18c0.616-0.035,0.118-1.184,0.278-1.673c0-0.186,0-0.371,0-0.558c0-0.093,0-0.187,0-0.278
	c0.617-2.171,1.911-3.663,3.344-5.018c0.768-0.533,1.418-1.183,1.951-1.95c0.527-0.96,1.615-1.358,1.951-2.508
	c0.452,0.199,0.452-1.315,0-1.116c-0.456-0.752-1.089-1.325-1.951-1.672c-0.038-0.459-1.913-0.459-1.951,0
	c-1.405,0.832-3.661,0.661-4.459-0.558c-2.857-3.089-5.83-6.062-8.918-8.919c-1.277-1.51-2.671-2.903-4.181-4.181
	c-0.627-0.859-1.37-1.603-2.23-2.229c-0.568-0.081-0.546-0.754-1.115-0.836c-0.346-0.583-0.811-1.048-1.394-1.395
	c-0.445-0.391-0.712-0.959-0.836-1.672c0-0.649,0-1.3,0-1.951c0.213-1.459,1.396-1.949,2.23-2.787
	c4.165,0.095,8.354,1.698,12.263,2.787c1.308,0.365,2.613,0.494,3.902,0.836c2.486,0.662,4.952,1.521,7.525,2.229
	c0.904,0.249,2.04,0.532,3.066,0.836c1.146,0.34,3.537,0.285,5.017,0.837c1.205,0.449,2.322,1.669,3.344,2.508
	c1.161,0.954,2.336,1.764,3.065,2.787c0.378,0.829,1.258,1.158,1.951,1.673c0.626,0.859,1.37,1.603,2.229,2.229
	c4.518-1.612,8.656-3.605,13.101-5.295c0.433-0.403,1.3-0.371,1.671-0.836c0.875-0.154,1.681-0.735,2.508-1.115
	c0.85-0.389,1.848-0.495,2.511-1.115c0.855-0.8,1.511-3.073,2.229-4.737c0.252-0.589,0.659-0.945,0.835-1.394
	c0.127-0.323-0.102-0.782,0-1.115c0.135-0.441,0.771-1.312,1.114-2.229c1.959-5.234,4.479-11.754,6.411-16.165
	c0.649-5.017,0.094-11.241,0.278-16.723c-0.152-0.405,0.326-1.44-0.278-1.393c0-0.186,0-0.372,0-0.558
	c-0.024-0.441,0.134-1.063-0.278-1.115c-0.12-4.71-1.23-8.432-1.395-13.099c-0.164-0.578,0.345-1.832-0.278-1.951
	c0.174-1.741-1.487-2.189-2.509-3.066c-1.063-0.912-2.33-1.657-2.508-3.624C68.35,6.421,68.35,5.585,68.35,4.749z M88.696,14.225
	c-1.751-0.76-3.528-1.392-5.854-2.508c-1.936-0.93-4.133-1.957-5.017-3.624c-0.24-0.453-0.144-1.185-0.278-1.671
	c-0.471-1.704-1.372-3.434-3.065-3.624c-1.86-0.208-3.602,1.251-3.624,3.066c-0.02,1.667,1.297,2.763,3.065,3.623
	c0,0.093,0,0.186,0,0.278c0.252,0.492,0.625,0.864,1.116,1.115c0.966,0.614,1.178,1.981,1.113,3.623
	c0.049,0.417-0.098,1.029,0.278,1.115c0.063,4.678,1.061,8.418,1.395,12.821c0,0.464,0,0.93,0,1.394c0,0.372,0,0.743,0,1.115
	c0.175,0.847-0.356,2.401,0.278,2.787c0,3.345,0,6.689,0,10.034c-0.46,0.211-0.46,2.297,0,2.509c-0.128,1.042,0.171,1.934,0,3.066
	c-0.24,1.593-1.456,3.197-2.229,5.016c-0.364,0.863-0.469,1.845-0.835,2.788c-0.152,0.393-0.707,0.761-0.836,1.115
	c-0.232,0.63-0.07,1.133-0.28,1.672c-0.691,1.78-1.539,3.542-2.228,5.295c-0.28,0.713-0.356,1.286-0.56,1.951
	c-0.029,0.104-0.5,0.417-0.557,0.558c-0.581,1.449-0.735,2.499-1.114,3.624c-0.218,0.061-0.324,0.233-0.28,0.557
	c-1.25,2.243-1.618,3.864-3.622,5.017c-1.391,0.8-3.466,1.718-4.738,2.229c-0.433,0.404-1.3,0.373-1.673,0.837
	c-4.534,1.597-8.648,3.614-13.099,5.295c-0.744,0-1.487,0-2.23,0c-0.17-0.016-0.33-0.041-0.278-0.278
	c-0.719-0.953-1.555-1.789-2.509-2.509c-0.093,0-0.186,0-0.279,0c-0.675-0.439-1.232-0.996-1.672-1.672
	c-0.333-0.688-0.954-1.09-1.672-1.395c-1.462-0.791-2.838-2.834-4.181-3.344c-0.986-0.374-2.311-0.067-3.344-0.278
	c-0.441-0.09-0.843-0.401-1.394-0.558c-1.231-0.35-2.203-0.504-3.344-0.837c-5.084-1.479-10.335-2.868-15.05-4.18
	c-2.246-0.625-4.697-1.544-6.968-1.115c0,0.464,0,0.928,0,1.393c0,0.094,0,0.187,0,0.278c0.251,0.492,0.624,0.864,1.115,1.115
	c0.092,0,0.186,0,0.278,0c0.346,0.583,0.811,1.048,1.394,1.394c0.533,0.769,1.183,1.418,1.951,1.951
	c1.463,1.696,3.042,3.275,4.738,4.738c0.28-0.001,0.333,0.226,0.558,0.278c2.485,2.718,5.087,5.319,7.804,7.804
	c0.841,0.701,1.516-0.549,2.787-0.279c0.464,0,0.929,0,1.394,0c4.048-0.214,6.532,5.081,3.902,8.084
	c-1.623,1.443-3.274,2.857-4.459,4.738c-0.557,0.929-1.461,1.512-1.672,2.786c-0.605-0.047-0.127,0.989-0.279,1.394
	c0,0.094,0,0.187,0,0.278c-0.628,0.209-0.109,1.564-0.278,2.23c0.006,0.657-0.48,0.821-0.278,1.673
	c-1.414,1.447-2.26,3.353-3.345,5.017c-3.427,5.256-6.863,10.343-10.033,15.607c-0.455-0.126-0.455,1.52,0,1.395
	c0.176,0.569,0.574,0.945,0.836,1.113c1.246,0.807,3.836-0.467,5.017-0.835c1.827-0.572,4.363-1.093,5.574-1.673
	c1.127-0.539,1.565-1.305,2.508-1.672c2.618-1.021,4.732,2.108,5.853,3.066c0.377,0.322,0.723,0.506,1.115,0.835
	c1.135,0.956,1.994,1.816,3.345,2.508c0.817-0.018,1.035-0.637,1.394-1.113c3.286-4.542,6.813-8.857,10.312-13.379
	c1.719-2.223,3.44-4.486,5.295-6.689c1.534-1.82,3.482-3.91,4.738-5.574c0.279-0.37,0.671-0.573,0.837-0.836
	c0.465-0.737,0.438-1.797,0.836-2.508c0.132-0.235,0.637-0.593,0.835-0.837c2.021-2.476,3.9-4.686,5.854-6.968
	c0.396-0.066,0.469-0.458,0.835-0.557c1.082-0.685,2.729-0.802,3.067-2.229c0.835-0.559,1.739-1.047,2.228-1.951
	c4.879-3.576,9.783-7.128,18.396-6.969c0.577-0.165,1.831,0.345,1.951-0.278c1.579,0.104,2.09-0.316,3.344-0.558
	c2.65-0.508,5.773-0.317,5.854-2.508c0.056-1.553-2.49-2.513-3.344-3.065c-0.894-0.579-2.034-0.938-2.511-1.673
	c-0.345-0.583-0.81-1.048-1.393-1.394c-1.136-0.907-1.511-2.576-1.673-4.46c-0.176-1.029,0.361-2.776-0.278-3.344
	c0-0.65,0-1.3,0-1.95c0.465-1.492,0.465-4.919,0-6.411c0-0.186,0-0.372,0-0.557c-0.152-0.405,0.327-1.441-0.278-1.394
	c0.21-1.976-0.507-3.023-0.557-4.738c0-1.208,0-2.415,0-3.623c0.15-1.149,0.713-1.888,1.392-2.508
	c1.789-1.556,3.462-3.229,5.017-5.017c0.768-0.533,1.419-1.183,1.952-1.951c0.386-0.45,0.791-0.883,1.115-1.394
	c0.413-0.051,0.255-0.673,0.278-1.115c-0.048-0.417,0.101-1.028-0.278-1.114c0-0.465,0-0.929,0-1.394s0-0.929,0-1.394
	c0-0.371,0-0.743,0-1.114c-0.048-0.417,0.099-1.028-0.278-1.115c0-0.186,0-0.372,0-0.558c0-0.464,0-0.929,0-1.393
	c0-0.373,0-0.744,0-1.115c-0.048-0.417,0.099-1.029-0.278-1.115c0-0.186,0-0.372,0-0.558c0-0.464,0-0.929,0-1.394
	c0-0.372,0-0.743,0-1.115c-0.048-0.417,0.098-1.028-0.28-1.115c0-0.185,0-0.371,0-0.557c-0.16-0.49,0.338-1.638-0.278-1.672
	c0.132-2.476-1.573-2.323-3.065-3.065c-1.092-0.544-1.802-1.311-2.787-1.394C90.563,14.959,89.495,14.727,88.696,14.225z"/>
<path fill-rule="evenodd" clip-rule="evenodd" fill="#C6C6C6" d="M100.959,34.014c0,0.65,0,1.3,0,1.951
	c-0.623-0.12-0.114-1.374-0.278-1.951C100.772,34.014,100.866,34.014,100.959,34.014z"/>
<path fill-rule="evenodd" clip-rule="evenodd" fill="#C6C6C6" d="M88.696,48.785c0,1.208,0,2.415,0,3.623
	C88.233,51.837,88.233,49.356,88.696,48.785z"/>
<path fill-rule="evenodd" clip-rule="evenodd" fill="#C6C6C6" d="M43.823,85.296c0.743,0,1.486,0,2.23,0
	c-0.121,0.624-1.374,0.113-1.952,0.279C43.931,85.56,43.771,85.533,43.823,85.296z"/>
<path fill-rule="evenodd" clip-rule="evenodd" fill="#3A3A3A" d="M84.236,87.525c0.477-0.637,2.128-0.103,3.065-0.278
	c0,0.093,0,0.187,0,0.278C86.28,87.525,85.258,87.525,84.236,87.525z"/>
</svg>
