<?xml version="1.0" encoding="utf-8"?>
<!-- Generator: Adobe Illustrator 15.0.0, SVG Export Plug-In  -->
<!DOCTYPE svg PUBLIC "-//W3C//DTD SVG 1.1//EN" "http://www.w3.org/Graphics/SVG/1.1/DTD/svg11.dtd" [
	<!ENTITY ns_flows "http://ns.adobe.com/Flows/1.0/">
]>
<svg version="1.1"
	 xmlns="http://www.w3.org/2000/svg" xmlns:xlink="http://www.w3.org/1999/xlink" xmlns:a="http://ns.adobe.com/AdobeSVGViewerExtensions/3.0/"
	 x="0px" y="0px" width="142px" height="142px" viewBox="-18.609 -2.328 142 142" enable-background="new -18.609 -2.328 142 142"
	 xml:space="preserve">
<defs>
</defs>
<path fill-rule="evenodd" clip-rule="evenodd" fill="#1A1A1A" d="M72.529,0.303c0.086-0.378,0.697-0.231,1.114-0.278
	C73.592,0.437,72.971,0.28,72.529,0.303z"/>
<path fill-rule="evenodd" clip-rule="evenodd" fill="#1A1A1A" d="M68.349,4.763c0,0.836,0,1.672,0,2.508
	C67.888,7.059,67.888,4.974,68.349,4.763z"/>
<path fill-rule="evenodd" clip-rule="evenodd" fill="#1A1A1A" d="M73.365,14.239c0.615,0.034,0.118,1.182,0.278,1.672
	C73.028,15.876,73.525,14.729,73.365,14.239z"/>
<path fill-rule="evenodd" clip-rule="evenodd" fill="#1A1A1A" d="M76.151,14.796c0.617,0.035,0.118,1.182,0.278,1.672
	C75.815,16.433,76.312,15.286,76.151,14.796z"/>
<path fill-rule="evenodd" clip-rule="evenodd" fill="#1A1A1A" d="M73.644,17.304c0.604-0.047,0.126,0.989,0.278,1.394
	C73.319,18.745,73.796,17.709,73.644,17.304z"/>
<path fill-rule="evenodd" clip-rule="evenodd" fill="#1A1A1A" d="M76.43,17.583c0.605-0.047,0.127,0.988,0.281,1.393
	C76.105,19.024,76.584,17.988,76.43,17.583z"/>
<path fill-rule="evenodd" clip-rule="evenodd" fill="#1A1A1A" d="M97.056,19.534c0.623,0.12,0.113,1.374,0.278,1.951
	C96.711,21.365,97.222,20.112,97.056,19.534z"/>
<path fill-rule="evenodd" clip-rule="evenodd" fill="#1A1A1A" d="M73.922,19.813c0.413,0.052,0.257,0.674,0.28,1.115
	C73.823,20.841,73.97,20.23,73.922,19.813z"/>
<path fill-rule="evenodd" clip-rule="evenodd" fill="#1A1A1A" d="M76.711,20.091c0.412,0.052,0.254,0.673,0.278,1.115
	C76.576,21.155,76.732,20.533,76.711,20.091z"/>
<path fill-rule="evenodd" clip-rule="evenodd" fill="#1A1A1A" d="M99.842,20.091c0.629,0.208,0.11,1.563,0.28,2.229
	C99.493,22.113,100.013,20.758,99.842,20.091z"/>
<path fill-rule="evenodd" clip-rule="evenodd" fill="#1A1A1A" d="M76.989,22.042c0.412,0.051,0.254,0.673,0.278,1.115
	C76.854,23.105,77.011,22.483,76.989,22.042z"/>
<path fill-rule="evenodd" clip-rule="evenodd" fill="#1A1A1A" d="M97.334,23.715c0.629,0.208,0.11,1.563,0.28,2.229
	C96.985,25.737,97.504,24.381,97.334,23.715z"/>
<path fill-rule="evenodd" clip-rule="evenodd" fill="#1A1A1A" d="M74.48,23.994c0.413,0.052,0.255,0.673,0.279,1.115
	C74.381,25.022,74.527,24.41,74.48,23.994z"/>
<path fill-rule="evenodd" clip-rule="evenodd" fill="#1A1A1A" d="M100.122,24.551c0.623,0.12,0.112,1.374,0.278,1.951
	C99.777,26.382,100.287,25.128,100.122,24.551z"/>
<path fill-rule="evenodd" clip-rule="evenodd" fill="#1A1A1A" d="M74.76,25.944c0.603-0.047,0.126,0.989,0.278,1.394
	C74.433,27.385,74.911,26.349,74.76,25.944z"/>
<path fill-rule="evenodd" clip-rule="evenodd" fill="#1A1A1A" d="M77.546,26.224c0.413,0.051,0.255,0.673,0.278,1.114
	C77.412,27.286,77.57,26.665,77.546,26.224z"/>
<path fill-rule="evenodd" clip-rule="evenodd" fill="#1A1A1A" d="M97.614,27.617c0.631,0.297,0.104,1.752,0.278,2.508
	C97.26,29.829,97.786,28.373,97.614,27.617z"/>
<path fill-rule="evenodd" clip-rule="evenodd" fill="#1A1A1A" d="M75.038,28.453c0.614,0.035,0.118,1.183,0.278,1.672
	C74.701,30.09,75.198,28.942,75.038,28.453z"/>
<path fill-rule="evenodd" clip-rule="evenodd" fill="#1A1A1A" d="M100.4,28.453c0.628,0.208,0.108,1.564,0.279,2.23
	C100.05,30.475,100.571,29.119,100.4,28.453z"/>
<path fill-rule="evenodd" clip-rule="evenodd" fill="#1A1A1A" d="M77.824,28.732c0.623,0.12,0.112,1.373,0.278,1.951
	C77.479,30.563,77.991,29.309,77.824,28.732z"/>
<path fill-rule="evenodd" clip-rule="evenodd" fill="#1A1A1A" d="M97.893,32.076c0.623,0.121,0.112,1.374,0.278,1.952
	C97.548,33.907,98.057,32.653,97.893,32.076z"/>
<path fill-rule="evenodd" clip-rule="evenodd" fill="#1A1A1A" d="M75.316,32.633c0.465,3.253,0.465,8.453,0,11.706
	C75.316,40.438,75.316,36.536,75.316,32.633z"/>
<path fill-rule="evenodd" clip-rule="evenodd" fill="#1A1A1A" d="M100.68,32.912c0.623,0.121,0.112,1.374,0.278,1.952
	C100.335,34.743,100.844,33.49,100.68,32.912z"/>
<path fill-rule="evenodd" clip-rule="evenodd" fill="#1A1A1A" d="M98.171,35.978c0.459,0.038,0.459,1.913,0,1.951
	C98.171,37.279,98.171,36.628,98.171,35.978z"/>
<path fill-rule="evenodd" clip-rule="evenodd" fill="#1A1A1A" d="M100.958,36.814c0.455-0.125,0.455,1.52,0,1.394
	C100.958,37.744,100.958,37.279,100.958,36.814z"/>
<path fill-rule="evenodd" clip-rule="evenodd" fill="#1A1A1A" d="M75.316,46.012c0.461,0.211,0.461,2.297,0,2.509
	C75.316,47.684,75.316,46.848,75.316,46.012z"/>
<path fill-rule="evenodd" clip-rule="evenodd" fill="#1A1A1A" d="M88.417,51.307c0.412,0.052,0.254,0.674,0.278,1.115
	C88.282,52.37,88.438,51.749,88.417,51.307z"/>
<path fill-rule="evenodd" clip-rule="evenodd" fill="#1A1A1A" d="M91.76,54.652c0.379,0.086,0.232,0.698,0.279,1.115
	C91.626,55.715,91.784,55.093,91.76,54.652z"/>
<path fill-rule="evenodd" clip-rule="evenodd" fill="#1A1A1A" d="M89.252,56.603c0.615,0.035,0.118,1.183,0.278,1.672
	C88.915,58.24,89.412,57.093,89.252,56.603z"/>
<path fill-rule="evenodd" clip-rule="evenodd" fill="#1A1A1A" d="M92.039,57.16c0.629,0.207,0.107,1.563,0.278,2.229
	C91.69,59.183,92.209,57.827,92.039,57.16z"/>
<path fill-rule="evenodd" clip-rule="evenodd" fill="#1A1A1A" d="M92.317,65.242c0,0.836,0,1.673,0,2.509
	C91.856,67.54,91.856,65.454,92.317,65.242z"/>
<path fill-rule="evenodd" clip-rule="evenodd" fill="#1A1A1A" d="M0.343,68.866c0,0.558,0,1.115,0,1.672
	C-0.114,70.584-0.114,68.82,0.343,68.866z"/>
<path fill-rule="evenodd" clip-rule="evenodd" fill="#1A1A1A" d="M89.53,69.423c0.605-0.047,0.126,0.989,0.278,1.393
	C89.204,70.864,89.683,69.828,89.53,69.423z"/>
<path fill-rule="evenodd" clip-rule="evenodd" fill="#C2C2C2" d="M98.449,83.359c-0.046-0.457,1.717-0.457,1.673,0
	C99.563,83.359,99.007,83.359,98.449,83.359z"/>
<path fill-rule="evenodd" clip-rule="evenodd" fill="#1A1A1A" d="M87.857,87.261c0.56,0,1.116,0,1.673,0
	C89.576,87.719,87.813,87.719,87.857,87.261z"/>
<path fill-rule="evenodd" clip-rule="evenodd" fill="#1A1A1A" d="M23.754,87.817c-0.125-0.454,1.52-0.454,1.394,0
	C24.684,87.817,24.219,87.817,23.754,87.817z"/>
<path fill-rule="evenodd" clip-rule="evenodd" fill="#777777" d="M104.86,88.934c0.092,0,0.185,0,0.278,0c0,0.835,0,1.672,0,2.508
	c-0.094,0-0.187,0-0.278,0C104.86,90.605,104.86,89.769,104.86,88.934z"/>
<path fill-rule="evenodd" clip-rule="evenodd" fill="#1A1A1A" d="M23.754,90.605c-0.125-0.456,1.52-0.456,1.394,0
	C24.684,90.605,24.219,90.605,23.754,90.605z"/>
<path fill-rule="evenodd" clip-rule="evenodd" fill="#C2C2C2" d="M102.353,90.327c0.637,0.477,0.102,2.126,0.278,3.066
	c-0.095,0-0.187,0-0.278,0C102.353,92.37,102.353,91.349,102.353,90.327z"/>
<path fill-rule="evenodd" clip-rule="evenodd" fill="#C2C2C2" d="M104.86,91.441c0.092,0,0.185,0,0.278,0c0,1.115,0,2.23,0,3.345
	C104.498,94.218,105.037,92.472,104.86,91.441z"/>
<path fill-rule="evenodd" clip-rule="evenodd" fill="#777777" d="M102.353,93.394c0.092,0,0.184,0,0.278,0c0,0.649,0,1.3,0,1.95
	c-0.095,0-0.187,0-0.278,0C102.353,94.693,102.353,94.043,102.353,93.394z"/>
<path fill-rule="evenodd" clip-rule="evenodd" fill="#777777" d="M99.563,100.081c0-0.093,0-0.186,0-0.278c0.465,0,0.93,0,1.395,0
	C101.004,100.408,99.97,99.93,99.563,100.081z"/>
<path fill-rule="evenodd" clip-rule="evenodd" fill="#1A1A1A" d="M22.64,105.378c-0.16,0.489,0.337,1.637-0.278,1.672
	C22.521,106.56,22.024,105.411,22.64,105.378z"/>
<path fill-rule="evenodd" clip-rule="evenodd" fill="#1A1A1A" d="M8.705,129.625c0,0.465,0,0.93,0,1.395
	C8.25,131.145,8.25,129.499,8.705,129.625z"/>
<path fill-rule="evenodd" clip-rule="evenodd" fill="#1A1A1A" d="M9.541,134.921c0.743,0,1.486,0,2.229,0
	C11.646,135.381,9.664,135.381,9.541,134.921z"/>
<path fill-rule="evenodd" clip-rule="evenodd" fill="#1A1A1A" d="M69.184,2.533c0.347-0.583,0.812-1.047,1.395-1.394
	C70.231,1.722,69.767,2.187,69.184,2.533z"/>
<path fill-rule="evenodd" clip-rule="evenodd" fill="#1A1A1A" d="M41.592,79.456c1.417,1.186,2.718,2.485,3.902,3.903
	C44.077,82.174,42.776,80.874,41.592,79.456z"/>
<path fill-rule="evenodd" clip-rule="evenodd" fill="#1A1A1A" d="M39.083,77.228c0.583,0.346,1.048,0.811,1.394,1.394
	C39.894,78.275,39.43,77.811,39.083,77.228z"/>
<path fill-rule="evenodd" clip-rule="evenodd" fill="#1A1A1A" d="M2.015,73.325c0.953,0.719,1.789,1.556,2.508,2.509
	C3.571,75.114,2.734,74.278,2.015,73.325z"/>
<path fill-rule="evenodd" clip-rule="evenodd" fill="#1A1A1A" d="M7.59,78.621c3.925,3.693,7.733,7.502,11.427,11.427
	C15.091,86.355,11.282,82.546,7.59,78.621z"/>
<path fill-rule="evenodd" clip-rule="evenodd" fill="#1A1A1A" d="M26.263,90.884c0.478,0.358,1.097,0.576,1.115,1.394
	C26.992,91.827,26.588,91.396,26.263,90.884z"/>
<path fill-rule="evenodd" clip-rule="evenodd" fill="#1A1A1A" d="M22.361,98.967c0.533-0.768,1.183-1.418,1.951-1.951
	C23.779,97.783,23.128,98.434,22.361,98.967z"/>
<path fill-rule="evenodd" clip-rule="evenodd" fill="#1A1A1A" d="M6.475,132.97c0.583,0.347,1.047,0.811,1.394,1.393
	C7.285,134.018,6.82,133.553,6.475,132.97z"/>
<path fill-rule="evenodd" clip-rule="evenodd" fill="#C2C2C2" d="M23.476,130.461c0-0.093,0-0.186,0-0.278
	c0.491,0.251,0.864,0.623,1.115,1.115C24.022,131.216,24.044,130.543,23.476,130.461z"/>
<path fill-rule="evenodd" clip-rule="evenodd" fill="#777777" d="M34.903,136.314c0.251-0.491,0.624-0.864,1.115-1.115
	C35.767,135.69,35.395,136.063,34.903,136.314z"/>
<path fill-rule="evenodd" clip-rule="evenodd" fill="#1A1A1A" d="M42.428,130.183c0.412,0.322,0.702,0.322,1.115,0
	c-0.078,0.646-0.745,0.642-1.115,0.278C42.428,130.368,42.428,130.275,42.428,130.183z"/>
<path fill-rule="evenodd" clip-rule="evenodd" fill="#777777" d="M42.15,127.395c-0.279,1.591,2.412,1.348,1.394,2.788
	c-0.413,0.322-0.703,0.322-1.115,0c-0.725-0.112-0.841-0.832-1.672-0.836c0.054-0.968,0.986-1.059,1.115-1.952
	C41.964,127.395,42.057,127.395,42.15,127.395z"/>
<path fill-rule="evenodd" clip-rule="evenodd" fill="#323232" d="M47.445,123.493c0.76,0.203,0.561-0.554,1.114-0.557
	C48.471,123.259,47.697,124.249,47.445,123.493z"/>
<path fill-rule="evenodd" clip-rule="evenodd" fill="#323232" d="M50.511,120.706c0.313,0.06,0.434,0.309,0.557,0.558
	c-0.412-0.322-0.702-0.322-1.114,0C50.012,120.951,50.263,120.83,50.511,120.706z"/>
<path fill-rule="evenodd" clip-rule="evenodd" fill="#323232" d="M51.347,121.542c0.675,0.439,1.232,0.998,1.672,1.673
	C52.344,122.775,51.787,122.217,51.347,121.542z"/>
<path fill-rule="evenodd" clip-rule="evenodd" fill="#1A1A1A" d="M53.019,123.215c0.399,0.066,0.47,0.459,0.836,0.557
	c1.322,1.744,3.138,2.995,4.46,4.738C56.435,126.861,54.668,125.096,53.019,123.215z"/>
<path fill-rule="evenodd" clip-rule="evenodd" fill="#C2C2C2" d="M58.315,128.51c-1.322-1.743-3.138-2.994-4.46-4.738
	c1.787,1.557,3.46,3.229,5.017,5.018C58.646,128.736,58.594,128.51,58.315,128.51z"/>
<path fill-rule="evenodd" clip-rule="evenodd" fill="#C2C2C2" d="M66.676,128.231c0.347-0.583,0.812-1.048,1.395-1.394
	C67.724,127.421,67.259,127.886,66.676,128.231z"/>
<path fill-rule="evenodd" clip-rule="evenodd" fill="#777777" d="M68.07,126.838c0.252-0.492,0.623-0.863,1.113-1.115
	C68.934,126.215,68.561,126.586,68.07,126.838z"/>
<path fill-rule="evenodd" clip-rule="evenodd" fill="#1A1A1A" d="M71.973,122.378c0.647-0.188,0.745-0.926,1.393-1.114
	c-0.347,0.583-0.81,1.048-1.393,1.394C71.973,122.564,71.973,122.472,71.973,122.378z"/>
<path fill-rule="evenodd" clip-rule="evenodd" fill="#C2C2C2" d="M71.973,122.378c0.625-0.86,1.368-1.604,2.229-2.229
	c-0.082,0.569-0.755,0.547-0.837,1.115C72.718,121.452,72.62,122.19,71.973,122.378z"/>
<path fill-rule="evenodd" clip-rule="evenodd" fill="#777777" d="M74.202,120.148c0.251-0.49,0.623-0.862,1.114-1.115
	C75.063,119.525,74.693,119.897,74.202,120.148z"/>
<path fill-rule="evenodd" clip-rule="evenodd" fill="#1A1A1A" d="M78.66,113.46c0.648-0.189,0.747-0.927,1.395-1.115
	c-0.347,0.584-0.812,1.048-1.395,1.394C78.66,113.646,78.66,113.553,78.66,113.46z"/>
<path fill-rule="evenodd" clip-rule="evenodd" fill="#C2C2C2" d="M78.66,113.46c0.999-1.231,2.113-2.347,3.346-3.346
	c-0.481,0.914-1.471,1.317-1.951,2.23C79.407,112.533,79.309,113.271,78.66,113.46z"/>
<path fill-rule="evenodd" clip-rule="evenodd" fill="#777777" d="M92.039,103.983c0.637-0.385,1.477-0.568,2.229-0.836
	c-1.021,0.437,0.132,1.109,0,2.23c0.078,0.449-0.263,0.479-0.278,0.835c-0.225,0.148-0.453,0.291-0.836,0.279
	C92.664,105.774,92.752,104.478,92.039,103.983z"/>
<path fill-rule="evenodd" clip-rule="evenodd" fill="#323232" d="M73.644,0.024c1.843-0.171,2.753,0.592,3.902,1.115
	c0.253,0.492,0.623,0.863,1.114,1.115c1.08,1.243,1.412,3.234,1.951,5.017c5.51,3.04,11.674,5.422,17.281,8.361
	c0.25,0.492,0.623,0.864,1.114,1.115c0.326,0.417,0.347,1.14,0.835,1.394c0,0.65,0,1.3,0,1.951c0.171,0.667-0.349,2.022,0.28,2.229
	c0,0.743,0,1.487,0,2.23c0.165,0.577-0.345,1.831,0.278,1.951c0,0.65,0,1.301,0,1.951c0.171,0.667-0.351,2.022,0.279,2.23
	c0,0.743,0,1.486,0,2.229c0.164,0.578-0.345,1.832,0.278,1.952c0,0.65,0,1.301,0,1.951c0,0.465,0,0.93,0,1.394
	c0.122,1.052-0.549,1.308-0.836,1.951c-1.604,1.37-3.091,2.856-4.459,4.459c-0.689,0.656-1.691,1.334-2.509,2.229
	c-0.705,0.771-1.753,1.811-1.951,2.787c-0.324,1.592,0.621,2.924,0.557,5.017c0.024,0.441-0.134,1.063,0.279,1.115
	c0,0.464,0,0.929,0,1.394c0.17,0.667-0.349,2.022,0.278,2.229c0,1.951,0,3.902,0,5.853c-0.461,0.212-0.461,2.297,0,2.509
	c0.04,2.337,0.232,3.797,0.837,5.017c1.892,3.828,7.918,3.497,8.639,8.361c-0.526,0.063-0.615-0.313-1.113-0.278
	c-0.209-0.629-1.565-0.109-2.23-0.278c-3.123-3.009-8.624-3.638-8.641-9.756c-0.152-0.404,0.327-1.44-0.278-1.393
	c0-3.716,0-7.432,0-11.148c-0.16-0.49,0.337-1.638-0.278-1.672c-0.032-1.547-0.593-2.565-0.557-4.181
	c-0.024-0.441,0.134-1.063-0.278-1.115c-0.175-2.031,0.248-3.466,1.113-4.459c0.491-0.252,0.863-0.623,1.116-1.115
	c0.25-0.492,0.623-0.863,1.113-1.115c2.254-2.021,4.39-4.158,6.411-6.41c0-0.093,0-0.186,0-0.279c0.459-0.038,0.459-1.913,0-1.951
	c0-0.65,0-1.301,0-1.951c-0.166-0.578,0.345-1.831-0.278-1.952c0-0.65,0-1.3,0-1.951c-0.174-0.756,0.353-2.211-0.278-2.508
	c0-0.557,0-1.115,0-1.672c-0.17-0.667,0.349-2.022-0.28-2.229c0-0.744,0-1.487,0-2.23c-0.165-0.577,0.345-1.831-0.278-1.951
	c-0.241-1.69-2.238-2.3-4.46-3.345c-3.193-1.501-6.659-3.168-10.033-4.738c-2.967-1.38-4.077-1.771-5.017-4.738
	c-0.611-1.932-1.783-4.837-4.738-3.623c-0.841,0.345-1.923,1.394-1.951,2.787C70.82,7.775,72.434,8.34,73.644,9.5
	c0.244,0.233,0.681,0.374,1.116,0.836c0.835,0.888,1.592,2.018,1.392,4.459c0.16,0.49-0.336,1.637,0.278,1.672
	c0,0.372,0,0.743,0,1.115c0.154,0.404-0.324,1.44,0.281,1.393c0,0.372,0,0.743,0,1.115c0.021,0.441-0.135,1.063,0.278,1.115
	c0,0.278,0,0.557,0,0.836c0.021,0.441-0.135,1.063,0.278,1.115c-0.036,1.15,0.484,1.746,0.278,3.066
	c0.024,0.441-0.134,1.063,0.278,1.114c0,0.465,0,0.929,0,1.394c0.167,0.577-0.345,1.831,0.278,1.951c0,3.364,0,6.451,0,9.476
	c0,3.056,0.465,6.344,0,9.198c-0.313,1.92-1.933,4.592-2.786,6.688c-0.463,1.137-0.945,2.208-1.395,3.345
	c-0.964,2.452-1.549,4.475-2.508,6.968c-0.695,1.808-1.387,3.172-1.95,5.296c-0.389,1.458-0.833,4.253-1.673,5.853
	c-0.583,0.346-1.047,0.811-1.394,1.394c-2.156,1.322-7.205,2.88-10.312,4.182c-1.186,0.495-2.059,1.129-3.346,1.671
	c-1.146,0.484-2.485,1.001-3.623,1.394c-0.986,0.342-1.715,0.664-2.787,0.559c-1.604-0.159-1.931-0.947-2.787-1.673
	c-0.174-0.147-0.67-0.112-0.836-0.279c-0.185-0.185-0.096-0.648-0.279-0.836c-0.303-0.311-0.695-0.548-1.115-0.835
	c-0.533-0.769-1.184-1.419-1.951-1.952c-0.366-0.099-0.439-0.49-0.836-0.557c-0.44-0.676-0.997-1.233-1.672-1.673
	c-0.227-0.053-0.278-0.279-0.558-0.278c-0.251-0.492-0.623-0.863-1.114-1.115c-0.747-0.182-1.06-0.798-1.672-1.114
	c-7.831-1.509-15.09-3.828-22.854-5.854c-2.458-0.641-4.946-1.701-7.525-1.393c-0.436,0.972,0.296,1.999,1.115,2.508
	c0.812,1.046,1.741,1.975,2.787,2.786c1.373,0.95,2.251,2.396,3.624,3.345c3.415,3.647,6.944,7.178,10.591,10.592
	c0.928-0.094,1.236-0.808,2.508-0.559c0.464,0,0.929,0,1.394,0c0.464,0,0.929,0,1.393,0c0.419,0.51,1.203,0.656,1.673,1.116
	c0.252,0.491,0.623,0.862,1.115,1.114c0.882,1.027,0.913,2.311,0.836,3.346c-0.211,2.831-3.279,4.321-4.459,6.131
	c-0.675,0.438-1.232,0.997-1.672,1.672c-0.535,1.323-1.497,2.219-1.394,4.182c-0.615,0.033-0.119,1.182-0.278,1.672
	c0.088,2.204-1.97,4.091-3.066,5.853c-0.237,0.381-0.525,0.893-0.836,1.394c-0.133,0.213-0.111,0.591-0.278,0.836
	c-0.258,0.38-0.842,0.697-1.115,1.115c-0.182,0.277-0.119,0.578-0.279,0.836c-0.113,0.182-0.459,0.393-0.558,0.558
	c-0.272,0.453-0.302,0.995-0.558,1.393c-0.268,0.419-0.858,0.737-1.114,1.115c-0.182,0.268-0.123,0.584-0.279,0.837
	c-1.581,2.543-3.985,5.737-5.574,8.64c-0.455-0.126-0.455,1.52,0,1.395c0.727,2.002,3.234,1.074,5.017,0.557
	c0.876-0.256,1.897-0.563,2.787-0.837c2.343-0.719,5.133-1.621,6.411-3.345c-0.115,1.23,0.075,2.155,0.557,2.788
	c0,0.093,0,0.186,0,0.278c0,0.094,0,0.187,0,0.278c-1.442,1.357-3.542,1.883-5.574,2.51c-2.018,0.621-4.025,1.339-6.132,1.672
	c-0.743,0-1.486,0-2.229,0c-0.279,0-0.558,0-0.836,0c-0.205-0.261-0.507-0.422-0.836-0.559c-0.346-0.582-0.811-1.046-1.394-1.393
	c-1.991-2.992,0.188-5.433,2.23-8.64c3.141-4.935,5.865-9.026,9.197-14.216c0.636-0.991,1.441-2.023,1.672-2.786
	c0.521-1.728,0.185-3.812,0.557-5.017c0.274-0.885,1.566-2.458,2.23-3.345c0.767-0.533,1.418-1.184,1.951-1.951
	c0.877-1.724,3.23-1.973,3.066-4.738c-0.019-0.817-0.637-1.035-1.115-1.394c-0.499,0.036-0.588-0.341-1.114-0.278
	c0.125-0.456-1.52-0.456-1.394,0c-1.496,0.767-3.892,0.765-4.738-0.558c-3.693-3.925-7.502-7.733-11.427-11.427
	c-1.188-0.763-1.878-2.024-3.066-2.787c-0.719-0.953-1.555-1.79-2.508-2.509c-0.912-0.575-1.562-1.41-1.672-2.787
	c0-0.558,0-1.115,0-1.672c0.213-1.459,1.396-1.949,2.23-2.787c2.927-0.281,5.563,0.918,8.361,1.672
	c5.11,1.377,10.365,2.751,15.608,4.181c1.996,0.544,4.082,0.994,6.132,1.394c0.694,0.135,1.518,0.101,1.951,0.279
	c0.784,0.321,1.456,1.322,2.23,1.95c0.778,0.632,1.657,1.035,2.229,1.673c0.346,0.583,0.811,1.048,1.394,1.394
	c0.568,0.082,0.546,0.754,1.114,0.835c1.185,1.418,2.485,2.718,3.902,3.903c1.479,1.29,3.468-0.379,5.853-1.394
	c1.131-0.482,2.439-0.964,3.623-1.394c0.934-0.339,2.264-0.926,3.346-1.395c2.031-0.88,4.556-1.686,6.968-2.786
	c2.352-10.283,6.569-18.7,10.033-27.871c0.461-0.212,0.461-2.297,0-2.509c0-0.557,0-1.115,0-1.672c0.465-3.253,0.465-8.453,0-11.706
	c0-0.836,0-1.672,0-2.508c-0.16-0.49,0.336-1.638-0.278-1.672c0-0.372,0-0.743,0-1.115c-0.152-0.405,0.324-1.44-0.278-1.394
	c0-0.279,0-0.557,0-0.836c-0.024-0.441,0.134-1.063-0.279-1.115c0.034-1.15-0.484-1.746-0.278-3.066
	c-0.023-0.441,0.133-1.063-0.28-1.115c0-0.372,0-0.743,0-1.114c-0.152-0.405,0.326-1.441-0.278-1.394c0-0.464,0-0.929,0-1.393
	c-0.16-0.49,0.337-1.638-0.278-1.672c-0.339-3.655-4.807-3.184-5.017-6.968c0-0.835,0-1.672,0-2.508
	c-0.01-1.033,0.429-1.616,0.835-2.23c0.583-0.346,1.048-0.811,1.395-1.394c0.644-0.287,0.899-0.959,1.951-0.836
	C72.971,0.28,73.592,0.437,73.644,0.024z"/>
<path fill-rule="evenodd" clip-rule="evenodd" fill="#1A1A1A" d="M95.663,44.618c1.368-1.603,2.854-3.089,4.459-4.459
	C98.752,41.761,97.266,43.248,95.663,44.618z"/>
<path fill-rule="evenodd" clip-rule="evenodd" fill="#1A1A1A" d="M97.893,15.632c0.491,0.252,0.861,0.624,1.114,1.115
	C98.516,16.496,98.143,16.124,97.893,15.632z"/>
<path fill-rule="evenodd" clip-rule="evenodd" fill="#1A1A1A" d="M77.546,1.139c0.491,0.251,0.863,0.623,1.114,1.115
	C78.169,2.002,77.799,1.631,77.546,1.139z"/>
<path fill-rule="evenodd" clip-rule="evenodd" fill="#1A1A1A" d="M89.53,46.848c0.253-0.492,0.623-0.863,1.116-1.115
	C90.394,46.225,90.021,46.596,89.53,46.848z"/>
<path fill-rule="evenodd" clip-rule="evenodd" fill="#1A1A1A" d="M91.76,44.618c2.021-2.253,4.157-4.39,6.411-6.41
	C96.149,40.46,94.014,42.597,91.76,44.618z"/>
<path fill-rule="evenodd" clip-rule="evenodd" fill="#1A1A1A" d="M66.397,78.899c0.347-0.583,0.811-1.048,1.394-1.394
	C67.445,78.089,66.98,78.554,66.397,78.899z"/>
<path fill-rule="evenodd" clip-rule="evenodd" fill="#1A1A1A" d="M39.363,81.129c0.767,0.533,1.418,1.184,1.951,1.952
	C40.546,82.548,39.896,81.896,39.363,81.129z"/>
<path fill-rule="evenodd" clip-rule="evenodd" fill="#1A1A1A" d="M36.854,78.899c0.675,0.439,1.232,0.997,1.672,1.673
	C37.851,80.133,37.293,79.574,36.854,78.899z"/>
<path fill-rule="evenodd" clip-rule="evenodd" fill="#1A1A1A" d="M35.182,77.506c0.491,0.252,0.863,0.623,1.114,1.115
	C35.805,78.368,35.434,77.997,35.182,77.506z"/>
<path fill-rule="evenodd" clip-rule="evenodd" fill="#1A1A1A" d="M4.245,71.653c1.045,0.813,1.975,1.741,2.787,2.786
	C5.986,73.628,5.057,72.699,4.245,71.653z"/>
<path fill-rule="evenodd" clip-rule="evenodd" fill="#1A1A1A" d="M10.655,77.784c3.646,3.414,7.177,6.945,10.591,10.592
	C17.6,84.962,14.07,81.432,10.655,77.784z"/>
<path fill-rule="evenodd" clip-rule="evenodd" fill="#1A1A1A" d="M28.214,88.934c0.491,0.251,0.863,0.623,1.115,1.114
	C28.837,89.796,28.466,89.425,28.214,88.934z"/>
<path fill-rule="evenodd" clip-rule="evenodd" fill="#1A1A1A" d="M24.033,101.196c0.44-0.675,0.997-1.233,1.672-1.672
	C25.266,100.199,24.709,100.757,24.033,101.196z"/>
<path fill-rule="evenodd" clip-rule="evenodd" fill="#1A1A1A" d="M65.005,94.229c0.903-1.138,1.927-2.161,3.065-3.065
	C67.164,92.301,66.143,93.323,65.005,94.229z"/>
<path fill-rule="evenodd" clip-rule="evenodd" fill="#1A1A1A" d="M63.332,96.18c0.252-0.491,0.623-0.863,1.113-1.114
	C64.195,95.556,63.822,95.928,63.332,96.18z"/>
<path fill-rule="evenodd" clip-rule="evenodd" fill="#1A1A1A" d="M61.381,98.409c0.252-0.491,0.623-0.863,1.115-1.114
	C62.244,97.785,61.871,98.157,61.381,98.409z"/>
<path fill-rule="evenodd" clip-rule="evenodd" fill="#1A1A1A" d="M59.708,100.361c0.252-0.492,0.625-0.864,1.115-1.116
	C60.571,99.737,60.2,100.108,59.708,100.361z"/>
<path fill-rule="evenodd" clip-rule="evenodd" fill="#323232" d="M55.248,107.05c0.943-2.774,2.687-4.746,4.46-6.688
	c0.492-0.253,0.863-0.624,1.115-1.116c0.099-0.365,0.491-0.438,0.558-0.836c0.49-0.252,0.863-0.624,1.115-1.114
	c0.08-0.569,0.754-0.547,0.836-1.115c0.49-0.252,0.863-0.624,1.113-1.114c0.101-0.366,0.491-0.438,0.56-0.837
	c1.138-0.905,2.159-1.928,3.065-3.065c2.245-2.12,5.059-3.674,7.803-5.296c0.515,0.042,0.171,0.943,0.557,1.115
	c-2.047,1.296-4.309,2.378-6.13,3.901c-0.491,0.252-0.863,0.624-1.116,1.115c-0.278-0.001-0.33,0.226-0.557,0.278
	c-0.768,0.534-1.419,1.184-1.951,1.951c0,0.093,0,0.187,0,0.278c-0.491,0.253-0.861,0.624-1.114,1.115
	c-0.49,0.252-0.863,0.624-1.116,1.114c-1.266,1.8-2.807,3.324-4.179,5.018c-0.585,0.346-1.048,0.811-1.395,1.394
	c-0.082,0.568-0.753,0.547-0.835,1.115c-0.493,0.251-0.863,0.623-1.116,1.115c0,0.092,0,0.185,0,0.278
	C56.188,105.944,55.981,106.761,55.248,107.05z"/>
<path fill-rule="evenodd" clip-rule="evenodd" fill="#1A1A1A" d="M23.754,125.723c0.346-0.583,0.811-1.048,1.394-1.393
	C24.802,124.913,24.337,125.378,23.754,125.723z"/>
<path fill-rule="evenodd" clip-rule="evenodd" fill="#C2C2C2" d="M102.631,81.687c0.49,0.252,0.863,0.624,1.113,1.114
	C103.254,82.55,102.881,82.178,102.631,81.687z"/>
<path fill-rule="evenodd" clip-rule="evenodd" fill="#C2C2C2" d="M49.117,119.313c0.492,0.252,0.863,0.624,1.115,1.115
	C49.741,120.176,49.369,119.804,49.117,119.313z"/>
<path fill-rule="evenodd" clip-rule="evenodd" fill="#777777" d="M45.494,123.215c0.28-0.371,0.263-1.037,0.836-1.115
	c-0.037,0.056,0.046,0.232,0,0.278c0.273-0.268,1.311-1.562,1.951-2.229c-0.019,0.02,0.871-0.831,0.278-0.836
	c0.059-0.337,0.31-0.171,0.558,0c0.252,0.491,0.624,0.863,1.115,1.115c0.17,0.016,0.33,0.041,0.279,0.278
	c-0.249,0.124-0.499,0.245-0.558,0.558c-0.498,0.524-0.754,1.29-1.394,1.673c-0.554,0.003-0.354,0.76-1.114,0.557
	c-0.569-0.082-0.547-0.754-1.115-0.836C45.964,122.756,45.892,123.147,45.494,123.215z"/>
<path fill-rule="evenodd" clip-rule="evenodd" fill="#C2C2C2" d="M23.754,125.723c0.583-0.345,1.048-0.81,1.394-1.393
	c0.093,0,0.186,0,0.278,0c-0.439,0.675-0.997,1.232-1.672,1.672C23.754,125.909,23.754,125.816,23.754,125.723z"/>
<path fill-rule="evenodd" clip-rule="evenodd" fill="#C2C2C2" d="M54.413,108.164c0.082-0.567,0.755-0.546,0.835-1.114
	c0.733-0.289,0.939-1.105,1.673-1.394C56.202,106.608,55.366,107.445,54.413,108.164z"/>
<path fill-rule="evenodd" clip-rule="evenodd" fill="#777777" d="M56.921,105.378c0.253-0.492,0.623-0.864,1.116-1.115
	C57.784,104.754,57.412,105.125,56.921,105.378z"/>
<path fill-rule="evenodd" clip-rule="evenodd" fill="#777777" d="M58.872,103.147c0.347-0.583,0.81-1.048,1.395-1.394
	C59.92,102.337,59.455,102.802,58.872,103.147z"/>
<path fill-rule="evenodd" clip-rule="evenodd" fill="#777777" d="M64.445,96.736c0.253-0.49,0.626-0.862,1.116-1.114
	C65.31,96.113,64.938,96.485,64.445,96.736z"/>
<path fill-rule="evenodd" clip-rule="evenodd" fill="#C2C2C2" d="M65.562,95.622c0.253-0.491,0.623-0.862,1.114-1.115
	C66.425,94.999,66.053,95.37,65.562,95.622z"/>
<path fill-rule="evenodd" clip-rule="evenodd" fill="#777777" d="M66.676,94.229c0.532-0.768,1.184-1.417,1.951-1.951
	C68.094,93.046,67.443,93.695,66.676,94.229z"/>
<path fill-rule="evenodd" clip-rule="evenodd" fill="#C2C2C2" d="M69.184,91.999c0.253-0.491,0.625-0.863,1.116-1.115
	C70.047,91.376,69.677,91.747,69.184,91.999z"/>
<path fill-rule="evenodd" clip-rule="evenodd" fill="#323232" d="M70.021,94.507c0.566-0.082,0.547-0.753,1.113-0.835
	c-0.25,0.49-0.623,0.862-1.113,1.114C70.021,94.693,70.021,94.601,70.021,94.507z"/>
<path fill-rule="evenodd" clip-rule="evenodd" fill="#C2C2C2" d="M68.349,96.458c0.515-0.692,0.843-1.572,1.673-1.951
	c0,0.094,0,0.187,0,0.279C69.142,95.021,69.228,96.223,68.349,96.458z"/>
<path fill-rule="evenodd" clip-rule="evenodd" fill="#323232" d="M58.315,107.886c0.25-0.492,0.623-0.863,1.114-1.115
	C59.179,107.262,58.807,107.635,58.315,107.886z"/>
<path fill-rule="evenodd" clip-rule="evenodd" fill="#777777" d="M56.643,109.558c0.44-0.675,0.998-1.232,1.673-1.672
	C57.875,108.561,57.317,109.118,56.643,109.558z"/>
<path fill-rule="evenodd" clip-rule="evenodd" fill="#C2C2C2" d="M55.248,111.23c0.305-0.719,0.705-1.34,1.395-1.673
	C56.146,110.082,55.89,110.848,55.248,111.23z"/>
<path fill-rule="evenodd" clip-rule="evenodd" fill="#323232" d="M50.79,116.525c0.188-0.647,0.926-0.746,1.115-1.394
	C52.82,115.589,49.892,117.798,50.79,116.525z"/>
<path fill-rule="evenodd" clip-rule="evenodd" fill="#777777" d="M52.184,118.477c-0.733-0.382-1.057-1.173-1.952-1.394
	c-0.051-0.237,0.109-0.263,0.279-0.279c-0.052-0.236,0.108-0.263,0.278-0.278c-0.897,1.272,2.031-0.937,1.115-1.394
	c0.124-0.248,0.245-0.499,0.558-0.558c-0.613,1.475,0.737-1.068,1.394,0c0.76-0.202,0.561,0.554,1.114,0.558
	c-0.527,1.145-1.443,1.901-2.229,2.788C52.493,118.043,52.242,118.164,52.184,118.477z"/>
<path fill-rule="evenodd" clip-rule="evenodd" fill="#C2C2C2" d="M52.184,118.755c0.86,0.626,1.604,1.37,2.229,2.23
	C53.553,120.359,52.81,119.615,52.184,118.755z"/>
<path fill-rule="evenodd" clip-rule="evenodd" fill="#323232" d="M54.691,120.985c1.881,1.648,3.646,3.413,5.295,5.296
	C58.105,124.632,56.34,122.866,54.691,120.985z"/>
<path fill-rule="evenodd" clip-rule="evenodd" fill="#777777" d="M65.005,126.281c0.25-0.492,0.623-0.863,1.113-1.116
	C65.866,125.657,65.495,126.028,65.005,126.281z"/>
<path fill-rule="evenodd" clip-rule="evenodd" fill="#C2C2C2" d="M66.118,125.165c0.347-0.582,0.812-1.047,1.395-1.394
	C67.166,124.354,66.701,124.819,66.118,125.165z"/>
<path fill-rule="evenodd" clip-rule="evenodd" fill="#777777" d="M70.3,120.428c0.533-0.768,1.182-1.418,1.951-1.951
	C71.718,119.244,71.067,119.895,70.3,120.428z"/>
<path fill-rule="evenodd" clip-rule="evenodd" fill="#C2C2C2" d="M72.251,118.477c0.345-0.583,0.81-1.048,1.393-1.394
	C73.299,117.666,72.834,118.131,72.251,118.477z"/>
<path fill-rule="evenodd" clip-rule="evenodd" fill="#777777" d="M76.989,111.509c0.905-1.139,1.927-2.16,3.065-3.066
	C79.148,109.582,78.127,110.604,76.989,111.509z"/>
<path fill-rule="evenodd" clip-rule="evenodd" fill="#777777" d="M90.925,101.475c0.779-0.983-0.533-1.736-0.278-3.065
	c0.671,0.114,0.604-0.509,1.393-0.278c0.351,0.857,0.304,2.112,1.115,2.509C92.518,101.024,91.678,101.206,90.925,101.475z"/>
<path fill-rule="evenodd" clip-rule="evenodd" fill="#323232" d="M100.122,83.359c0.478-0.013,0.722,0.207,0.836,0.557
	c-2.246,2.679-7.164,2.685-11.428,3.345c-0.557,0-1.113,0-1.673,0c-1.186,0.165-1.843-0.2-2.786-0.278
	c-0.009-0.271-0.341-0.217-0.558-0.278c1.713-1.209,4.104-1.458,6.411-1.952c2.452-0.524,4.782-1.015,7.524-1.393
	C99.007,83.359,99.563,83.359,100.122,83.359z"/>
<path fill-rule="evenodd" clip-rule="evenodd" fill="#1A1A1A" d="M54.413,120.985c-0.626-0.86-1.369-1.604-2.229-2.23
	c0-0.092,0-0.186,0-0.278c0.059-0.313,0.309-0.434,0.557-0.557c-0.711,1.374,1.559,1.896,1.951,3.065
	C54.599,120.985,54.506,120.985,54.413,120.985z"/>
<path fill-rule="evenodd" clip-rule="evenodd" fill="#323232" d="M53.298,113.738c0.098,0.366,0.491,0.438,0.557,0.836
	c-0.656-1.068-2.007,1.475-1.394,0c0.099-0.366,0.491-0.438,0.557-0.836C53.112,113.738,53.205,113.738,53.298,113.738z"/>
<path fill-rule="evenodd" clip-rule="evenodd" fill="#323232" d="M93.99,106.213c0.016-0.355,0.356-0.386,0.278-0.835
	C94.81,105.267,94.675,106.646,93.99,106.213z"/>
<path fill-rule="evenodd" clip-rule="evenodd" fill="#323232" d="M46.33,122.1c0.581-1.092,1.488-1.856,2.229-2.787
	c0.592,0.005-0.297,0.855-0.278,0.836c-0.64,0.668-1.678,1.962-1.951,2.229C46.376,122.332,46.293,122.155,46.33,122.1z"/>
<path fill-rule="evenodd" clip-rule="evenodd" fill="#1A1A1A" d="M29.887,132.133c-0.492-0.251-0.864-0.623-1.116-1.113
	C29.263,131.271,29.635,131.643,29.887,132.133z"/>
<path fill-rule="evenodd" clip-rule="evenodd" fill="#1A1A1A" d="M27.935,130.461c-0.547-0.475-1.393-0.651-1.672-1.394
	C26.811,129.543,27.656,129.719,27.935,130.461z"/>
<path fill-rule="evenodd" clip-rule="evenodd" fill="#1A1A1A" d="M83.957,86.982c0.006-0.271,0.341-0.217,0.557-0.278
	c0.217,0.062,0.549,0.007,0.558,0.278C84.7,86.982,84.327,86.982,83.957,86.982z"/>
<path fill-rule="evenodd" clip-rule="evenodd" fill="#323232" d="M102.071,86.982c0.617,0.035,0.118,1.182,0.281,1.672
	C101.735,88.62,102.232,87.472,102.071,86.982z"/>
<path fill-rule="evenodd" clip-rule="evenodd" fill="#777777" d="M78.938,88.934c0.064,0.972,1.238,2.277,0.837,2.787
	c-0.412,0.145-0.703,0.412-1.115,0.557c-0.437-0.771-0.865-1.549-1.114-2.509c-0.092,0-0.187,0-0.278,0
	C77.639,89.305,78.506,89.336,78.938,88.934z"/>
<path fill-rule="evenodd" clip-rule="evenodd" fill="#323232" d="M102.631,95.344c0,0.649,0,1.301,0,1.951
	c-0.623-0.12-0.114-1.375-0.278-1.951C102.444,95.344,102.536,95.344,102.631,95.344z"/>
<path fill-rule="evenodd" clip-rule="evenodd" fill="#777777" d="M105.139,99.524c0-0.65,0-1.301,0-1.951c0.093,0,0.187,0,0.278,0
	C105.251,98.15,105.762,99.404,105.139,99.524z"/>
<path fill-rule="evenodd" clip-rule="evenodd" fill="#323232" d="M98.171,100.081c-0.048-0.604,0.988-0.126,1.393-0.278
	c0,0.093,0,0.186,0,0.278C99.099,100.081,98.636,100.081,98.171,100.081z"/>
<path fill-rule="evenodd" clip-rule="evenodd" fill="#C2C2C2" d="M100.4,102.59c0.207-0.628,1.563-0.108,2.23-0.278
	C102.422,102.939,101.066,102.421,100.4,102.59z"/>
<path fill-rule="evenodd" clip-rule="evenodd" fill="#C2C2C2" d="M95.941,102.869c0.12-0.624,1.374-0.113,1.951-0.279
	c0,0.093,0,0.187,0,0.279C97.241,102.869,96.591,102.869,95.941,102.869z"/>
<path fill-rule="evenodd" clip-rule="evenodd" fill="#323232" d="M97.893,102.59c0.557,0,1.114,0,1.671,0
	c-0.034,0.616-1.182,0.119-1.671,0.279C97.893,102.776,97.893,102.683,97.893,102.59z"/>
<path fill-rule="evenodd" clip-rule="evenodd" fill="#777777" d="M38.526,127.395c0-0.092,0-0.185,0-0.278
	c-0.849-0.451-1.951-0.651-1.951-1.951c0.398-0.066,0.47-0.458,0.836-0.557c0.927,0.225,1.509,1.842,2.508,1.114
	C39.423,126.248,39.166,127.014,38.526,127.395z"/>
<path fill-rule="evenodd" clip-rule="evenodd" fill="#FFFFFF" d="M97.334,80.851c1.115,0,2.229,0,3.346,0
	c0.498-0.035,0.587,0.341,1.113,0.278c0.478-0.012,0.724,0.208,0.838,0.558c0.25,0.491,0.623,0.863,1.113,1.114
	c0.882,0.885,1.08,2.451,1.116,4.182c0,0.65,0,1.301,0,1.951c0,0.835,0,1.672,0,2.508c0.177,1.03-0.362,2.776,0.278,3.345
	c0,0.279,0,0.558,0,0.836c0,0.65,0,1.301,0,1.951s0,1.301,0,1.951c-0.142,1.623-1.122,2.408-2.508,2.787
	c-0.667,0.17-2.023-0.35-2.23,0.278c-0.278,0-0.559,0-0.837,0c-0.557,0-1.114,0-1.671,0c-0.577,0.166-1.831-0.345-1.951,0.279
	c-0.657-0.007-0.821,0.479-1.673,0.278c-0.753,0.268-1.593,0.451-2.229,0.836c-2.855,1.278-5.333,2.607-7.804,4.459
	c-0.724,0.543-1.244,1.47-2.229,1.672c-1.232,0.999-2.347,2.114-3.346,3.346c0,0.093,0,0.186,0,0.278
	c-1.427,1.453-1.775,3.985-3.344,5.295c-0.491,0.253-0.863,0.625-1.114,1.115c-0.861,0.626-1.604,1.369-2.229,2.229
	c0,0.094,0,0.187,0,0.279c-0.926,1.027-1.771,2.131-2.789,3.065c-0.49,0.252-0.861,0.623-1.113,1.115
	c-0.583,0.346-1.048,0.811-1.395,1.394c-0.32,0.98-1.372,1.228-1.949,1.951c-0.187,0-0.373,0-0.56,0c-1.021,0-2.043,0-3.064,0
	c-0.862-0.346-1.729-0.688-2.23-1.394c-1.557-1.789-3.229-3.461-5.017-5.018c-0.366-0.098-0.438-0.49-0.836-0.557
	c-0.439-0.675-0.997-1.233-1.672-1.673c-0.237,0.052-0.263-0.108-0.279-0.278c-0.123-0.249-0.244-0.498-0.557-0.558
	c0.051-0.237-0.109-0.263-0.279-0.278c-0.252-0.491-0.623-0.863-1.115-1.115c-0.248-0.171-0.499-0.337-0.558,0
	c-0.741,0.931-1.649,1.695-2.229,2.787c-0.573,0.078-0.556,0.744-0.836,1.115c-1.11,1.398-2.116,2.9-3.344,4.18
	c-0.093,0-0.186,0-0.279,0c-0.129,0.894-1.062,0.984-1.115,1.952c-1.604,1.926-3.004,4.056-4.738,5.853
	c-0.491,0.251-0.864,0.624-1.115,1.115c-0.042,0.516-0.943,0.171-1.115,0.557c-0.65,0-1.301,0-1.951,0
	c-2.916-1.357-4.889-3.657-7.247-5.573c-0.251-0.492-0.624-0.864-1.115-1.115c-0.482-0.633-0.672-1.558-0.557-2.788
	c0.093-0.649,0.285-1.199,0.835-1.393c0.675-0.439,1.233-0.997,1.672-1.672c2.028-2.502,5.536-2.776,9.198-3.902
	c1.821-0.561,4.6-1.408,6.967-2.229c1.798-0.624,3.682-1.612,5.575-1.673c2.474-2.728,4.613-5.792,7.247-8.361
	c0.953-0.719,1.789-1.556,2.508-2.508c0-0.094,0-0.187,0-0.278c0.491-0.253,0.863-0.624,1.116-1.115
	c0.082-0.568,0.753-0.547,0.835-1.115c0.583-0.346,1.048-0.811,1.395-1.394c1.372-1.693,2.913-3.218,4.179-5.018
	c0.493-0.251,0.864-0.623,1.116-1.114c0.491-0.252,0.863-0.623,1.114-1.115c0-0.092,0-0.186,0-0.278
	c0.768-0.533,1.418-1.183,1.951-1.951c0.227-0.053,0.278-0.279,0.557-0.278c0.493-0.252,0.863-0.623,1.116-1.115
	c1.821-1.523,4.083-2.605,6.13-3.901c0.497-0.154,1.158-0.144,1.395-0.558c2.058-0.45,3.662-1.354,5.295-2.229
	C87.17,82.393,92.355,81.724,97.334,80.851z M98.449,83.359c-2.742,0.378-5.072,0.868-7.524,1.393
	c-2.308,0.494-4.698,0.743-6.411,1.952c-0.216,0.062-0.551,0.007-0.557,0.278c-1.775,0.548-3.041,1.604-5.019,1.951
	c-0.433,0.402-1.3,0.371-1.671,0.835c-2.298,1.047-4.312,2.381-6.133,3.903c-0.566,0.082-0.547,0.753-1.113,0.835
	c-0.83,0.379-1.158,1.259-1.673,1.951c-2.921,3.49-5.935,6.886-8.919,10.313c-0.491,0.252-0.864,0.623-1.114,1.115
	c-0.675,0.439-1.232,0.997-1.673,1.672c-0.689,0.333-1.09,0.954-1.395,1.673c-0.688,0.703-1.096,1.689-1.95,2.229
	c0,0.093,0,0.186,0,0.278c-0.093,0-0.187,0-0.279,0c-0.066,0.398-0.458,0.47-0.557,0.836c-0.313,0.059-0.434,0.31-0.558,0.558
	c-0.188,0.647-0.926,0.746-1.115,1.394c-0.17,0.016-0.33,0.042-0.278,0.278c-0.17,0.017-0.33,0.042-0.279,0.279
	c0.895,0.221,1.218,1.012,1.952,1.394c0,0.093,0,0.187,0,0.278c0.626,0.86,1.369,1.604,2.229,2.23c0.093,0,0.186,0,0.278,0
	c1.648,1.881,3.414,3.646,5.295,5.296c1.151,1.582,3.955,1.775,5.019,0c0.49-0.253,0.861-0.624,1.113-1.116
	c0.583-0.346,1.048-0.811,1.395-1.394c0.646-1.398,1.825-2.261,2.787-3.344c0.768-0.533,1.418-1.184,1.951-1.951
	c0.583-0.346,1.048-0.811,1.393-1.394c1.021-1.952,1.739-4.208,3.346-5.574c1.138-0.905,2.159-1.927,3.065-3.066
	c3.063-2.882,6.673-5.217,10.87-6.968c0.753-0.269,1.593-0.45,2.229-0.835c1.551-0.308,3.075-0.641,5.017-0.559
	c0.465,0,0.928,0,1.393,0c0.406-0.151,1.44,0.327,1.395-0.278c0.646,0.09,1.069-0.045,1.395-0.278
	c0.168-0.668,0.4-1.272,0.278-2.229c0-0.65,0-1.302,0-1.951c0-0.65,0-1.301,0-1.95c-0.177-0.94,0.358-2.59-0.278-3.066
	c0-0.559,0-1.115,0-1.673c-0.163-0.49,0.336-1.637-0.281-1.672c0.061-1.453-0.142-2.645-1.113-3.066
	c-0.114-0.35-0.358-0.569-0.836-0.557C100.166,82.902,98.403,82.902,98.449,83.359z M39.92,125.723
	c1.484-1.86,2.976-3.713,4.46-5.574c-3.414,1.511-9.897,2.854-13.379,4.182c-1.022,0.39-1.637,0.473-2.23,0.835
	c-1.177,0.723-4.291,3.005-2.508,3.902c0.28,0.742,1.125,0.919,1.672,1.394c0.398,0.067,0.471,0.459,0.836,0.559
	c0.252,0.49,0.624,0.862,1.116,1.113c1.151,0.614,1.487,2.044,3.344,1.951c1.923-2.07,3.633-4.356,5.295-6.689
	C39.166,127.014,39.423,126.248,39.92,125.723z"/>
<path fill-rule="evenodd" clip-rule="evenodd" fill="#323232" d="M77.268,85.31c2.056-0.266,3.277-1.367,5.852-1.114
	c-1.633,0.875-3.237,1.779-5.295,2.229c-0.092,0-0.186,0-0.278,0C77.582,85.925,77.205,85.837,77.268,85.31z"/>
<path fill-rule="evenodd" clip-rule="evenodd" fill="#323232" d="M104.86,86.982c0.623,0.12,0.112,1.373,0.278,1.951
	c-0.094,0-0.187,0-0.278,0C104.86,88.283,104.86,87.633,104.86,86.982z"/>
<path fill-rule="evenodd" clip-rule="evenodd" fill="#323232" d="M105.139,95.622c0.623,0.12,0.112,1.374,0.278,1.951
	c-0.092,0-0.186,0-0.278,0C105.139,96.923,105.139,96.272,105.139,95.622z"/>
<path fill-rule="evenodd" clip-rule="evenodd" fill="#323232" d="M31.837,136.871c0.65,0,1.301,0,1.951,0
	C33.75,137.331,31.875,137.331,31.837,136.871z"/>
<path fill-rule="evenodd" clip-rule="evenodd" fill="#C2C2C2" d="M98.449,80.572c0.665,0.169,2.021-0.351,2.23,0.278
	c-1.116,0-2.23,0-3.346,0C97.386,80.438,98.009,80.596,98.449,80.572z"/>
<path fill-rule="evenodd" clip-rule="evenodd" fill="#C2C2C2" d="M61.103,130.183c1.021,0,2.043,0,3.064,0
	C63.776,130.645,61.493,130.645,61.103,130.183z"/>
<path fill-rule="evenodd" clip-rule="evenodd" fill="#777777" d="M75.873,85.867c-1.618-1.485,1.448-2.815,1.395-0.558
	c-0.063,0.527,0.314,0.615,0.278,1.115c0.093,0,0.187,0,0.278,0c-0.236,0.414-0.897,0.403-1.395,0.558
	C76.044,86.811,76.388,85.909,75.873,85.867z"/>
</svg>
