<?xml version="1.0" encoding="utf-8"?>
<!-- Generator: Adobe Illustrator 15.0.0, SVG Export Plug-In  -->
<!DOCTYPE svg PUBLIC "-//W3C//DTD SVG 1.1//EN" "http://www.w3.org/Graphics/SVG/1.1/DTD/svg11.dtd" [
	<!ENTITY ns_flows "http://ns.adobe.com/Flows/1.0/">
]>
<svg version="1.1"
	 xmlns="http://www.w3.org/2000/svg" xmlns:xlink="http://www.w3.org/1999/xlink" xmlns:a="http://ns.adobe.com/AdobeSVGViewerExtensions/3.0/"
	 x="0px" y="0px" width="142px" height="142px" viewBox="-18.608 -2.328 142 142" enable-background="new -18.608 -2.328 142 142"
	 xml:space="preserve">
<defs>
</defs>
<path fill-rule="evenodd" clip-rule="evenodd" fill="#1A1A1A" d="M72.53,0.303c0.086-0.378,0.697-0.231,1.114-0.278
	C73.593,0.437,72.972,0.28,72.53,0.303z"/>
<path fill-rule="evenodd" clip-rule="evenodd" fill="#1A1A1A" d="M68.35,4.763c0,0.836,0,1.672,0,2.508
	C67.889,7.059,67.889,4.974,68.35,4.763z"/>
<path fill-rule="evenodd" clip-rule="evenodd" fill="#1A1A1A" d="M73.366,14.239c0.615,0.034,0.118,1.182,0.278,1.672
	C73.029,15.876,73.526,14.729,73.366,14.239z"/>
<path fill-rule="evenodd" clip-rule="evenodd" fill="#1A1A1A" d="M76.152,14.796c0.617,0.035,0.118,1.182,0.278,1.672
	C75.816,16.433,76.313,15.286,76.152,14.796z"/>
<path fill-rule="evenodd" clip-rule="evenodd" fill="#1A1A1A" d="M73.645,17.304c0.604-0.047,0.126,0.989,0.278,1.394
	C73.32,18.745,73.797,17.709,73.645,17.304z"/>
<path fill-rule="evenodd" clip-rule="evenodd" fill="#1A1A1A" d="M76.431,17.583c0.605-0.047,0.127,0.988,0.281,1.393
	C76.106,19.024,76.585,17.988,76.431,17.583z"/>
<path fill-rule="evenodd" clip-rule="evenodd" fill="#1A1A1A" d="M97.057,19.534c0.623,0.12,0.113,1.374,0.278,1.951
	C96.712,21.365,97.223,20.112,97.057,19.534z"/>
<path fill-rule="evenodd" clip-rule="evenodd" fill="#1A1A1A" d="M73.923,19.813c0.413,0.052,0.257,0.674,0.28,1.115
	C73.824,20.841,73.971,20.23,73.923,19.813z"/>
<path fill-rule="evenodd" clip-rule="evenodd" fill="#1A1A1A" d="M76.712,20.091c0.412,0.052,0.254,0.673,0.278,1.115
	C76.577,21.155,76.733,20.533,76.712,20.091z"/>
<path fill-rule="evenodd" clip-rule="evenodd" fill="#1A1A1A" d="M99.843,20.091c0.629,0.208,0.11,1.563,0.28,2.229
	C99.494,22.113,100.014,20.758,99.843,20.091z"/>
<path fill-rule="evenodd" clip-rule="evenodd" fill="#1A1A1A" d="M76.99,22.042c0.412,0.051,0.254,0.673,0.278,1.115
	C76.855,23.105,77.012,22.483,76.99,22.042z"/>
<path fill-rule="evenodd" clip-rule="evenodd" fill="#1A1A1A" d="M97.335,23.715c0.629,0.208,0.11,1.563,0.28,2.229
	C96.986,25.737,97.505,24.381,97.335,23.715z"/>
<path fill-rule="evenodd" clip-rule="evenodd" fill="#1A1A1A" d="M74.481,23.994c0.413,0.052,0.255,0.673,0.279,1.115
	C74.382,25.022,74.528,24.41,74.481,23.994z"/>
<path fill-rule="evenodd" clip-rule="evenodd" fill="#1A1A1A" d="M100.123,24.272c0.627,0.208,0.108,1.563,0.278,2.23
	C99.772,26.294,100.292,24.939,100.123,24.272z"/>
<path fill-rule="evenodd" clip-rule="evenodd" fill="#1A1A1A" d="M74.761,25.944c0.603-0.047,0.126,0.989,0.278,1.394
	C74.434,27.385,74.912,26.349,74.761,25.944z"/>
<path fill-rule="evenodd" clip-rule="evenodd" fill="#1A1A1A" d="M77.547,26.224c0.413,0.051,0.255,0.673,0.278,1.114
	C77.413,27.286,77.571,26.665,77.547,26.224z"/>
<path fill-rule="evenodd" clip-rule="evenodd" fill="#1A1A1A" d="M97.615,27.896c0.623,0.12,0.112,1.374,0.278,1.951
	C97.269,29.727,97.779,28.473,97.615,27.896z"/>
<path fill-rule="evenodd" clip-rule="evenodd" fill="#1A1A1A" d="M75.039,28.453c0.614,0.035,0.118,1.183,0.278,1.672
	C74.702,30.09,75.199,28.942,75.039,28.453z"/>
<path fill-rule="evenodd" clip-rule="evenodd" fill="#1A1A1A" d="M100.401,28.453c0.628,0.208,0.108,1.564,0.279,2.23
	C100.051,30.475,100.572,29.119,100.401,28.453z"/>
<path fill-rule="evenodd" clip-rule="evenodd" fill="#1A1A1A" d="M77.825,28.732c0.623,0.12,0.112,1.373,0.278,1.951
	C77.48,30.563,77.992,29.309,77.825,28.732z"/>
<path fill-rule="evenodd" clip-rule="evenodd" fill="#1A1A1A" d="M97.894,32.076c0.623,0.121,0.112,1.374,0.278,1.952
	C97.549,33.907,98.058,32.653,97.894,32.076z"/>
<path fill-rule="evenodd" clip-rule="evenodd" fill="#1A1A1A" d="M100.681,32.633c0.627,0.208,0.107,1.563,0.278,2.23
	C100.33,34.656,100.851,33.3,100.681,32.633z"/>
<path fill-rule="evenodd" clip-rule="evenodd" fill="#1A1A1A" d="M75.317,32.912c0.465,3.161,0.465,8.267,0,11.428
	C75.317,40.53,75.317,36.721,75.317,32.912z"/>
<path fill-rule="evenodd" clip-rule="evenodd" fill="#1A1A1A" d="M98.172,35.978c0.459,0.038,0.459,1.913,0,1.951
	C98.172,37.279,98.172,36.628,98.172,35.978z"/>
<path fill-rule="evenodd" clip-rule="evenodd" fill="#1A1A1A" d="M100.959,36.814c0.455-0.125,0.455,1.52,0,1.394
	C100.959,37.744,100.959,37.279,100.959,36.814z"/>
<path fill-rule="evenodd" clip-rule="evenodd" fill="#1A1A1A" d="M75.317,46.012c0.461,0.211,0.461,2.297,0,2.509
	C75.317,47.684,75.317,46.848,75.317,46.012z"/>
<path fill-rule="evenodd" clip-rule="evenodd" fill="#1A1A1A" d="M88.418,51.307c0.412,0.052,0.254,0.674,0.278,1.115
	C88.283,52.37,88.439,51.749,88.418,51.307z"/>
<path fill-rule="evenodd" clip-rule="evenodd" fill="#1A1A1A" d="M91.761,54.652c0.379,0.086,0.232,0.698,0.279,1.115
	C91.627,55.715,91.785,55.093,91.761,54.652z"/>
<path fill-rule="evenodd" clip-rule="evenodd" fill="#1A1A1A" d="M89.253,56.603c0.615,0.035,0.118,1.183,0.278,1.672
	C88.916,58.24,89.413,57.093,89.253,56.603z"/>
<path fill-rule="evenodd" clip-rule="evenodd" fill="#1A1A1A" d="M92.04,57.16c0.629,0.207,0.107,1.563,0.278,2.229
	C91.691,59.183,92.21,57.827,92.04,57.16z"/>
<path fill-rule="evenodd" clip-rule="evenodd" fill="#1A1A1A" d="M92.318,64.964c0,1.021,0,2.044,0,3.066
	C91.857,67.64,91.857,65.354,92.318,64.964z"/>
<path fill-rule="evenodd" clip-rule="evenodd" fill="#1A1A1A" d="M89.531,69.423c0.605-0.047,0.126,0.989,0.278,1.393
	C89.205,70.864,89.684,69.828,89.531,69.423z"/>
<path fill-rule="evenodd" clip-rule="evenodd" fill="#1A1A1A" d="M92.318,69.98c0.378,0.087,0.232,0.698,0.278,1.116
	C92.184,71.044,92.342,70.422,92.318,69.98z"/>
<path fill-rule="evenodd" clip-rule="evenodd" fill="#787878" d="M76.152,73.604c0-0.093,0-0.187,0-0.279c1.116,0,2.23,0,3.346,0
	c0,0.093,0,0.187,0,0.279C78.383,73.604,77.269,73.604,76.152,73.604z"/>
<path fill-rule="evenodd" clip-rule="evenodd" fill="#787878" d="M70.857,73.883c0-0.093,0-0.187,0-0.278c0.371,0,0.743,0,1.116,0
	c0,0.092,0,0.186,0,0.278C71.601,73.883,71.229,73.883,70.857,73.883z"/>
<path fill-rule="evenodd" clip-rule="evenodd" fill="#C5C5C5" d="M71.974,73.883c0-0.093,0-0.187,0-0.278c0.37,0,0.743,0,1.114,0
	C73.035,74.017,72.414,73.86,71.974,73.883z"/>
<path fill-rule="evenodd" clip-rule="evenodd" fill="#C5C5C5" d="M71.415,76.392c0.086-0.379,0.699-0.231,1.115-0.279
	c0,0.093,0,0.186,0,0.279C72.158,76.392,71.787,76.392,71.415,76.392z"/>
<path fill-rule="evenodd" clip-rule="evenodd" fill="#787878" d="M72.53,76.392c0-0.094,0-0.187,0-0.279c0.371,0,0.743,0,1.114,0
	c0,0.093,0,0.186,0,0.279C73.273,76.392,72.901,76.392,72.53,76.392z"/>
<path fill-rule="evenodd" clip-rule="evenodd" fill="#1A1A1A" d="M83.399,84.195c-0.199-0.452,1.313-0.452,1.115,0
	C84.143,84.195,83.771,84.195,83.399,84.195z"/>
<path fill-rule="evenodd" clip-rule="evenodd" fill="#1A1A1A" d="M85.629,84.195c0.419,0.047,1.029-0.1,1.116,0.278
	C86.328,84.426,85.715,84.573,85.629,84.195z"/>
<path fill-rule="evenodd" clip-rule="evenodd" fill="#1A1A1A" d="M87.58,84.474c0.743,0,1.486,0,2.229,0
	C89.686,84.934,87.704,84.934,87.58,84.474z"/>
<path fill-rule="evenodd" clip-rule="evenodd" fill="#1A1A1A" d="M100.401,84.752c0.093,0,0.185,0,0.279,0c0,0.372,0,0.744,0,1.115
	C100.268,85.815,100.424,85.193,100.401,84.752z"/>
<path fill-rule="evenodd" clip-rule="evenodd" fill="#787878" d="M103.188,85.867c0.092,0,0.187,0,0.278,0c0,0.465,0,0.929,0,1.394
	c-0.092,0-0.187,0-0.278,0C103.188,86.796,103.188,86.332,103.188,85.867z"/>
<path fill-rule="evenodd" clip-rule="evenodd" fill="#1A1A1A" d="M82.563,86.982c0.213-0.461,2.296-0.461,2.509,0
	C84.236,86.982,83.399,86.982,82.563,86.982z"/>
<path fill-rule="evenodd" clip-rule="evenodd" fill="#C5C5C5" d="M100.681,86.704c0.604-0.048,0.126,0.988,0.278,1.393
	c-0.093,0-0.187,0-0.278,0C100.681,87.633,100.681,87.168,100.681,86.704z"/>
<path fill-rule="evenodd" clip-rule="evenodd" fill="#1A1A1A" d="M87.858,87.261c0.56,0,1.116,0,1.673,0
	C89.577,87.719,87.814,87.719,87.858,87.261z"/>
<path fill-rule="evenodd" clip-rule="evenodd" fill="#C5C5C5" d="M103.188,87.261c0.092,0,0.187,0,0.278,0c0,0.743,0,1.486,0,2.229
	C102.838,89.283,103.358,87.927,103.188,87.261z"/>
<path fill-rule="evenodd" clip-rule="evenodd" fill="#787878" d="M100.681,88.097c0.092,0,0.186,0,0.278,0c0,0.837,0,1.672,0,2.509
	c-0.093,0-0.187,0-0.278,0C100.681,89.769,100.681,88.934,100.681,88.097z"/>
<path fill-rule="evenodd" clip-rule="evenodd" fill="#323232" d="M100.681,90.605c0.092,0,0.186,0,0.278,0c0,0.929,0,1.858,0,2.788
	c-0.093,0-0.187,0-0.278,0C100.681,92.464,100.681,91.534,100.681,90.605z"/>
<path fill-rule="evenodd" clip-rule="evenodd" fill="#1A1A1A" d="M103.467,90.884c0.615,0.035,0.118,1.183,0.278,1.673
	c-0.092,0-0.186,0-0.278,0C103.467,91.999,103.467,91.441,103.467,90.884z"/>
<path fill-rule="evenodd" clip-rule="evenodd" fill="#323232" d="M103.467,92.557c0.093,0,0.187,0,0.278,0c0,1.3,0,2.602,0,3.901
	c-0.092,0-0.186,0-0.278,0C103.467,95.158,103.467,93.856,103.467,92.557z"/>
<path fill-rule="evenodd" clip-rule="evenodd" fill="#1A1A1A" d="M100.681,93.394c0.092,0,0.186,0,0.278,0c0,0.835,0,1.672,0,2.508
	C100.326,95.604,100.853,94.148,100.681,93.394z"/>
<path fill-rule="evenodd" clip-rule="evenodd" fill="#C5C5C5" d="M96.777,102.869c0.053-0.413,0.674-0.257,1.116-0.279
	c0,0.093,0,0.187,0,0.279C97.521,102.869,97.15,102.869,96.777,102.869z"/>
<path fill-rule="evenodd" clip-rule="evenodd" fill="#787878" d="M50.233,120.428c0.28-0.001,0.332,0.226,0.558,0.278
	c0.082,0.568,0.754,0.547,0.836,1.115c0,0.093,0,0.186,0,0.278c-0.767,0.533-1.418,1.184-1.95,1.951
	c-0.554,0.004-0.354,0.761-1.116,0.558c-0.251-0.492-0.623-0.863-1.114-1.115c0-0.092,0-0.186,0-0.278
	C48.492,122.402,49.421,121.474,50.233,120.428z"/>
<path fill-rule="evenodd" clip-rule="evenodd" fill="#1A1A1A" d="M31.838,136.871c0.417,0.048,1.029-0.1,1.115,0.279
	C32.512,137.127,31.89,137.285,31.838,136.871z"/>
<path fill-rule="evenodd" clip-rule="evenodd" fill="#1A1A1A" d="M69.185,2.533c0.347-0.583,0.812-1.047,1.395-1.394
	C70.232,1.722,69.768,2.187,69.185,2.533z"/>
<path fill-rule="evenodd" clip-rule="evenodd" fill="#787878" d="M42.708,80.572c1.138,0.904,2.161,1.927,3.065,3.065
	C44.636,82.732,43.613,81.71,42.708,80.572z"/>
<path fill-rule="evenodd" clip-rule="evenodd" fill="#C5C5C5" d="M40.757,78.899c0.611,0.597,1.548,0.867,1.951,1.673
	C42.015,80.058,41.135,79.729,40.757,78.899z"/>
<path fill-rule="evenodd" clip-rule="evenodd" fill="#787878" d="M36.855,75.276c0.583,0.346,1.047,0.811,1.393,1.394
	C37.666,76.324,37.202,75.859,36.855,75.276z"/>
<path fill-rule="evenodd" clip-rule="evenodd" fill="#C5C5C5" d="M1.458,72.768c0.492,0.252,0.863,0.624,1.115,1.115
	C2.082,73.631,1.71,73.259,1.458,72.768z"/>
<path fill-rule="evenodd" clip-rule="evenodd" fill="#C5C5C5" d="M6.197,77.228c-1.027-0.925-2.132-1.771-3.066-2.788
	C4.354,75.168,5.373,76.1,6.197,77.228z"/>
<path fill-rule="evenodd" clip-rule="evenodd" fill="#787878" d="M6.197,77.228c1.603,1.37,3.089,2.856,4.459,4.459
	C9.054,80.316,7.567,78.83,6.197,77.228z"/>
<path fill-rule="evenodd" clip-rule="evenodd" fill="#323232" d="M10.656,81.687c2.811,2.578,5.504,5.272,8.083,8.082
	C15.928,87.191,13.234,84.497,10.656,81.687z"/>
<path fill-rule="evenodd" clip-rule="evenodd" fill="#C5C5C5" d="M25.149,95.901c0.346-0.584,0.811-1.048,1.393-1.395
	C26.197,95.091,25.732,95.555,25.149,95.901z"/>
<path fill-rule="evenodd" clip-rule="evenodd" fill="#787878" d="M24.034,97.016c0.252-0.491,0.624-0.863,1.115-1.114
	C24.897,96.393,24.526,96.764,24.034,97.016z"/>
<path fill-rule="evenodd" clip-rule="evenodd" fill="#1A1A1A" d="M26.542,132.69c0.675,0.44,1.233,0.997,1.673,1.672
	C27.54,133.923,26.982,133.366,26.542,132.69z"/>
<path fill-rule="evenodd" clip-rule="evenodd" fill="#323232" d="M44.101,120.428c1.455-0.628,3.293-1.914,5.017-1.395
	c0,0.094,0,0.187,0,0.279c-0.936,0.061-1.229,1.004-1.672,1.673c-0.452,0.681-1.512,1.879-2.229,2.786
	c-1.142,1.444-2.356,3.11-3.624,4.738c-0.524,0.674-1.248,1.324-1.951,2.229c-0.571,0.736-1.03,1.721-1.672,2.51
	c-0.272,0.333-0.781,0.715-1.114,1.113c-0.888,1.063-1.945,2.814-3.902,2.788c-0.086-0.379-0.698-0.231-1.115-0.279
	c-1.652-0.392-2.394-1.693-3.623-2.509c-0.44-0.675-0.998-1.231-1.673-1.672c-1.339-0.31-2.1-2.448-3.344-1.951
	c0.639-0.846,1.355-1.616,1.951-2.508c0.093,0,0.186,0,0.278,0c1.137,0.907,2.208,1.88,3.344,2.788
	c0.44,0.675,0.998,1.231,1.672,1.671c0.962,0.339,1.474,1.128,2.23,1.672c1.318-0.342,1.66-1.4,2.509-2.508
	c0.068-0.09,0.52-0.196,0.557-0.278c0.061-0.134-0.087-0.445,0-0.557c0.482-0.616,1.202-1.069,1.673-1.673
	c0.208-0.268,0.343-0.807,0.557-1.115c0.069-0.101,0.518-0.19,0.558-0.278c0.333-0.738,1.042-1.444,1.672-2.23
	c0.256-0.319,0.292-0.804,0.557-1.114c0.441-0.514,0.818-0.84,1.394-1.672C42.653,122.209,43.538,121.324,44.101,120.428z"/>
<path fill-rule="evenodd" clip-rule="evenodd" fill="#1A1A1A" d="M49.118,119.313c0.568,0.082,0.546,0.755,1.115,0.836
	c0,0.094,0,0.187,0,0.279c-0.093,0-0.186,0-0.278,0C49.873,119.859,49.2,119.881,49.118,119.313z"/>
<path fill-rule="evenodd" clip-rule="evenodd" fill="#323232" d="M47.446,123.215c0.669-1.096,1.839-1.692,2.508-2.787
	c0.093,0,0.186,0,0.278,0C49.421,121.474,48.492,122.402,47.446,123.215z"/>
<path fill-rule="evenodd" clip-rule="evenodd" fill="#1A1A1A" d="M47.446,123.493c0.491,0.252,0.863,0.623,1.114,1.115
	c0.761,0.203,0.562-0.554,1.116-0.558c-0.243,0.408-0.418,0.883-1.116,0.836C48.373,124.239,47.635,124.142,47.446,123.493z"/>
<path fill-rule="evenodd" clip-rule="evenodd" fill="#1A1A1A" d="M51.626,122.1c0-0.093,0-0.186,0-0.278
	c0.823,0.385,1.129,1.287,1.952,1.672c-0.001,0.279,0.225,0.332,0.278,0.558C52.944,123.57,52.54,122.581,51.626,122.1z"/>
<path fill-rule="evenodd" clip-rule="evenodd" fill="#323232" d="M53.856,124.051c0.583,0.346,1.048,0.811,1.393,1.394
	C54.667,125.099,54.202,124.634,53.856,124.051z"/>
<path fill-rule="evenodd" clip-rule="evenodd" fill="#1A1A1A" d="M55.249,125.444c1.419,1.185,2.719,2.484,3.902,3.902
	C57.735,128.162,56.436,126.861,55.249,125.444z"/>
<path fill-rule="evenodd" clip-rule="evenodd" fill="#787878" d="M66.677,128.231c0.347-0.583,0.812-1.048,1.395-1.394
	C67.725,127.421,67.26,127.886,66.677,128.231z"/>
<path fill-rule="evenodd" clip-rule="evenodd" fill="#323232" d="M68.071,126.838c0.252-0.492,0.623-0.863,1.113-1.115
	C68.935,126.215,68.562,126.586,68.071,126.838z"/>
<path fill-rule="evenodd" clip-rule="evenodd" fill="#1A1A1A" d="M69.185,125.444c0.569-0.082,0.547-0.754,1.116-0.836
	c-0.253,0.49-0.623,0.863-1.116,1.114C69.185,125.631,69.185,125.538,69.185,125.444z"/>
<path fill-rule="evenodd" clip-rule="evenodd" fill="#C5C5C5" d="M69.185,125.444c0.347-0.583,0.812-1.048,1.395-1.394
	c-0.054,0.226-0.28,0.278-0.278,0.558C69.731,124.69,69.754,125.362,69.185,125.444z"/>
<path fill-rule="evenodd" clip-rule="evenodd" fill="#787878" d="M70.579,124.051c0.438-0.675,0.998-1.232,1.673-1.673
	C71.812,123.054,71.254,123.611,70.579,124.051z"/>
<path fill-rule="evenodd" clip-rule="evenodd" fill="#323232" d="M72.252,122.378c0.345-0.583,0.81-1.047,1.393-1.393
	C73.3,121.568,72.835,122.033,72.252,122.378z"/>
<path fill-rule="evenodd" clip-rule="evenodd" fill="#1A1A1A" d="M73.645,120.706c0.646-0.188,0.747-0.926,1.395-1.114
	c-0.347,0.583-0.812,1.048-1.395,1.394C73.645,120.892,73.645,120.799,73.645,120.706z"/>
<path fill-rule="evenodd" clip-rule="evenodd" fill="#1A1A1A" d="M78.661,113.46c0.492-0.252,0.863-0.624,1.115-1.115
	c0.093,0,0.187,0,0.279,0c-0.347,0.584-0.812,1.048-1.395,1.394C78.661,113.646,78.661,113.553,78.661,113.46z"/>
<path fill-rule="evenodd" clip-rule="evenodd" fill="#323232" d="M80.056,112.345c0.438-0.675,0.997-1.232,1.673-1.672
	C81.287,111.348,80.73,111.905,80.056,112.345z"/>
<path fill-rule="evenodd" clip-rule="evenodd" fill="#1A1A1A" d="M95.664,44.618c1.368-1.603,2.854-3.089,4.459-4.459
	C98.753,41.761,97.267,43.248,95.664,44.618z"/>
<path fill-rule="evenodd" clip-rule="evenodd" fill="#1A1A1A" d="M97.894,15.632c0.491,0.252,0.861,0.624,1.114,1.115
	C98.517,16.496,98.144,16.124,97.894,15.632z"/>
<path fill-rule="evenodd" clip-rule="evenodd" fill="#1A1A1A" d="M77.547,1.139c0.491,0.251,0.863,0.623,1.114,1.115
	C78.17,2.002,77.8,1.631,77.547,1.139z"/>
<path fill-rule="evenodd" clip-rule="evenodd" fill="#323232" d="M73.645,0.024c1.843-0.171,2.753,0.592,3.902,1.115
	c0.253,0.492,0.623,0.863,1.114,1.115c1.477,1.392,0.953,3.317,1.951,4.738c0.741,1.055,2.553,1.745,4.181,2.509
	c4.132,1.937,9.425,4.152,13.101,6.131c0.25,0.492,0.623,0.864,1.114,1.115c0.326,0.417,0.347,1.14,0.835,1.394
	c0,0.65,0,1.3,0,1.951c0.171,0.667-0.349,2.022,0.28,2.229c0,0.65,0,1.301,0,1.951c0.169,0.667-0.351,2.022,0.278,2.23
	c0,0.65,0,1.301,0,1.951c0.171,0.667-0.351,2.022,0.279,2.23c0,0.65,0,1.301,0,1.951c0.17,0.667-0.351,2.022,0.278,2.23
	c0,0.65,0,1.301,0,1.951c0,0.465,0,0.93,0,1.394c0.122,1.052-0.549,1.308-0.836,1.951c-1.604,1.37-3.091,2.856-4.459,4.459
	c-0.689,0.656-1.691,1.334-2.509,2.229c-0.705,0.771-1.753,1.811-1.951,2.787c-0.324,1.592,0.621,2.924,0.557,5.017
	c0.024,0.441-0.134,1.063,0.279,1.115c0,0.464,0,0.929,0,1.394c0.17,0.667-0.349,2.022,0.278,2.229c0,1.858,0,3.716,0,5.574
	c-0.461,0.391-0.461,2.676,0,3.066c0,0.65,0,1.301,0,1.951c0.023,0.441-0.135,1.063,0.278,1.116c0.236,1.251,0.77,2.202,1.395,3.064
	c-3.941-1.075-9.69-0.343-14.493-0.557c0-0.093,0-0.187,0-0.279c3.53,0,7.061,0,10.59,0c-0.012-0.917-0.471-1.388-0.278-2.509
	c-0.152-0.404,0.327-1.44-0.278-1.393c0-3.716,0-7.432,0-11.148c-0.16-0.49,0.337-1.638-0.278-1.672
	c-0.032-1.547-0.593-2.565-0.557-4.181c-0.024-0.441,0.134-1.063-0.278-1.115c-0.175-2.031,0.248-3.466,1.113-4.459
	c0.491-0.252,0.863-0.623,1.116-1.115c0.25-0.492,0.623-0.863,1.113-1.115c2.254-2.021,4.39-4.158,6.411-6.41
	c0-0.093,0-0.186,0-0.279c0.459-0.038,0.459-1.913,0-1.951c0-0.65,0-1.301,0-1.951c-0.166-0.578,0.345-1.831-0.278-1.952
	c0-0.743,0-1.486,0-2.229c-0.166-0.577,0.345-1.831-0.278-1.951c0-0.65,0-1.301,0-1.951c-0.17-0.667,0.349-2.022-0.28-2.229
	c0-0.744,0-1.487,0-2.23c-0.165-0.577,0.345-1.831-0.278-1.951c-0.161-1.672-3.681-3.109-6.131-4.181
	c-0.968-0.423-2.366-1.087-3.624-1.672c-3.938-1.833-7.715-2.845-9.198-5.295c-1.09-1.802-0.665-3.857-2.508-5.017
	c-1.833-1.154-4.864,0.027-4.738,2.787c0.118,2.591,4.163,3.231,5.017,5.853c0.261,0.801,0.345,1.483,0.278,2.787
	c0.16,0.49-0.336,1.637,0.278,1.672c0,0.372,0,0.743,0,1.115c0.154,0.404-0.324,1.44,0.281,1.393c0,0.372,0,0.743,0,1.115
	c0.021,0.441-0.135,1.063,0.278,1.115c0,0.278,0,0.557,0,0.836c0.021,0.441-0.135,1.063,0.278,1.115
	c-0.036,1.15,0.484,1.746,0.278,3.066c0.024,0.441-0.134,1.063,0.278,1.114c0,0.465,0,0.929,0,1.394
	c0.167,0.577-0.345,1.831,0.278,1.951c0,3.375,0,6.479,0,9.476c0,3.185,0.529,6.546,0,9.476c-0.238,1.326-1.279,2.816-1.951,4.459
	c-0.517,1.27-1.056,2.881-1.671,4.459c-0.172,0.438-0.679,0.949-0.837,1.394c-0.2,0.564-0.086,1.175-0.278,1.672
	c-0.363,0.935-1.01,1.815-1.393,2.787c-1.104,2.801-2.248,6.158-3.067,9.477c-0.623,0.305-1.396,0.462-1.949,0.836
	c-0.649,0.188-0.747,0.926-1.395,1.115c2.094-10.263,6.453-18.26,9.755-27.313c0.461-0.212,0.461-2.297,0-2.509
	c0-0.557,0-1.115,0-1.672c0.465-3.161,0.465-8.267,0-11.428c0-0.928,0-1.857,0-2.787c-0.16-0.49,0.336-1.638-0.278-1.672
	c0-0.372,0-0.743,0-1.115c-0.152-0.405,0.324-1.44-0.278-1.394c0-0.279,0-0.557,0-0.836c-0.024-0.441,0.134-1.063-0.279-1.115
	c0.034-1.15-0.484-1.746-0.278-3.066c-0.023-0.441,0.133-1.063-0.28-1.115c0-0.372,0-0.743,0-1.114
	c-0.152-0.405,0.326-1.441-0.278-1.394c0-0.464,0-0.929,0-1.393c-0.16-0.49,0.337-1.638-0.278-1.672
	c-0.339-3.655-4.807-3.184-5.017-6.968c0-0.835,0-1.672,0-2.508c-0.01-1.033,0.429-1.616,0.835-2.23
	c0.583-0.346,1.048-0.811,1.395-1.394c0.644-0.287,0.899-0.959,1.951-0.836C72.972,0.28,73.593,0.437,73.645,0.024z"/>
<path fill-rule="evenodd" clip-rule="evenodd" fill="#1A1A1A" d="M89.531,46.848c0.253-0.492,0.623-0.863,1.116-1.115
	C90.395,46.225,90.022,46.596,89.531,46.848z"/>
<path fill-rule="evenodd" clip-rule="evenodd" fill="#1A1A1A" d="M91.761,44.618c2.021-2.253,4.157-4.39,6.411-6.41
	C96.15,40.46,94.015,42.597,91.761,44.618z"/>
<path fill-rule="evenodd" clip-rule="evenodd" fill="#C5C5C5" d="M65.563,75.834c0.647-0.189,0.745-0.927,1.395-1.115
	c-0.44,0.676-0.998,1.232-1.673,1.673C65.336,76.166,65.563,76.113,65.563,75.834z"/>
<path fill-rule="evenodd" clip-rule="evenodd" fill="#787878" d="M102.072,80.015c1.314,0.014,1.703-0.899,3.067-0.837
	c-0.114,0.672,0.509,0.606,0.278,1.395c-0.855,0.352-1.993,0.422-2.229,1.394c-0.571-0.359-0.294-1.563-1.116-1.673
	C102.072,80.199,102.072,80.107,102.072,80.015z"/>
<path fill-rule="evenodd" clip-rule="evenodd" fill="#C5C5C5" d="M78.661,113.46c0.252-0.491,0.625-0.863,1.115-1.115
	C79.524,112.836,79.153,113.208,78.661,113.46z"/>
<path fill-rule="evenodd" clip-rule="evenodd" fill="#C5C5C5" d="M73.645,120.706c0.347-0.582,0.812-1.047,1.395-1.394
	c0,0.093,0,0.186,0,0.279C74.392,119.78,74.291,120.518,73.645,120.706z"/>
<path fill-rule="evenodd" clip-rule="evenodd" fill="#C5C5C5" d="M53.578,123.493c-0.823-0.385-1.129-1.287-1.952-1.672
	c-0.082-0.568-0.754-0.547-0.836-1.115C51.836,121.519,52.766,122.447,53.578,123.493z"/>
<path fill-rule="evenodd" clip-rule="evenodd" fill="#C5C5C5" d="M50.233,120.148c-0.568-0.081-0.546-0.754-1.115-0.836
	c0-0.093,0-0.186,0-0.279C49.61,119.286,49.981,119.658,50.233,120.148z"/>
<path fill-rule="evenodd" clip-rule="evenodd" fill="#787878" d="M5.639,73.047c0.768,0.532,1.418,1.183,1.952,1.951
	C6.823,74.465,6.173,73.813,5.639,73.047z"/>
<path fill-rule="evenodd" clip-rule="evenodd" fill="#C5C5C5" d="M7.591,74.998c0.647,0.188,0.746,0.927,1.393,1.114
	c0.905,1.139,1.927,2.16,3.066,3.065c0.053,0.227,0.28,0.278,0.279,0.559C10.633,78.272,9.054,76.692,7.591,74.998z"/>
<path fill-rule="evenodd" clip-rule="evenodd" fill="#323232" d="M12.329,79.736c0.001-0.28-0.226-0.332-0.279-0.559
	c2.903,2.672,5.69,5.459,8.361,8.361C17.554,85.101,15.186,82.174,12.329,79.736z"/>
<path fill-rule="evenodd" clip-rule="evenodd" fill="#323232" d="M28.215,88.934c0.491,0.251,0.863,0.623,1.115,1.114
	C28.838,89.796,28.467,89.425,28.215,88.934z"/>
<path fill-rule="evenodd" clip-rule="evenodd" fill="#787878" d="M27.379,97.295c0.439-0.676,0.997-1.233,1.672-1.673
	C28.611,96.297,28.054,96.855,27.379,97.295z"/>
<path fill-rule="evenodd" clip-rule="evenodd" fill="#C5C5C5" d="M25.707,98.967c0.439-0.676,0.998-1.233,1.672-1.672
	C26.939,97.97,26.381,98.526,25.707,98.967z"/>
<path fill-rule="evenodd" clip-rule="evenodd" fill="#C5C5C5" d="M23.755,125.723c0.583-0.345,1.048-0.81,1.394-1.393
	c0.093,0,0.186,0,0.278,0c-0.439,0.675-0.997,1.232-1.672,1.672C23.755,125.909,23.755,125.816,23.755,125.723z"/>
<path fill-rule="evenodd" clip-rule="evenodd" fill="#323232" d="M50.791,117.083c0.647,0.188,0.746,0.926,1.394,1.115
	c0,0.092,0,0.186,0,0.278C51.601,118.131,51.137,117.666,50.791,117.083z"/>
<path fill-rule="evenodd" clip-rule="evenodd" fill="#C5C5C5" d="M52.185,118.477c0.647,0.188,0.745,0.926,1.394,1.115
	c0,0.092,0,0.186,0,0.278C52.995,119.523,52.53,119.06,52.185,118.477z"/>
<path fill-rule="evenodd" clip-rule="evenodd" fill="#787878" d="M53.578,119.87c0.092,0,0.185,0,0.278,0
	c0.082,0.568,0.754,0.546,0.836,1.115C54.202,120.733,53.829,120.361,53.578,119.87z"/>
<path fill-rule="evenodd" clip-rule="evenodd" fill="#323232" d="M54.692,120.985c2.159,1.927,4.205,3.972,6.132,6.131
	C58.665,125.189,56.619,123.145,54.692,120.985z"/>
<path fill-rule="evenodd" clip-rule="evenodd" fill="#C5C5C5" d="M65.284,126.002c0.188-0.647,0.926-0.747,1.114-1.394
	c0.094,0,0.186,0,0.278,0C66.332,125.191,65.867,125.656,65.284,126.002z"/>
<path fill-rule="evenodd" clip-rule="evenodd" fill="#323232" d="M66.398,124.608c0.252-0.492,0.623-0.863,1.115-1.115
	c-0.082,0.568-0.755,0.547-0.837,1.115C66.584,124.608,66.492,124.608,66.398,124.608z"/>
<path fill-rule="evenodd" clip-rule="evenodd" fill="#787878" d="M67.514,123.493c0.439-0.675,0.996-1.233,1.671-1.672
	C68.746,122.496,68.189,123.054,67.514,123.493z"/>
<path fill-rule="evenodd" clip-rule="evenodd" fill="#C5C5C5" d="M69.185,121.821c0.055-0.227,0.28-0.278,0.28-0.558
	c0.567-0.082,0.545-0.755,1.114-0.836C70.232,121.01,69.768,121.475,69.185,121.821z"/>
<path fill-rule="evenodd" clip-rule="evenodd" fill="#323232" d="M70.579,120.148c0.347-0.583,0.812-1.048,1.395-1.394
	C71.627,119.338,71.162,119.803,70.579,120.148z"/>
<path fill-rule="evenodd" clip-rule="evenodd" fill="#787878" d="M71.974,118.755c0.345-0.583,0.81-1.048,1.393-1.393
	C73.02,117.945,72.557,118.409,71.974,118.755z"/>
<path fill-rule="evenodd" clip-rule="evenodd" fill="#323232" d="M75.874,112.624c1.092-1.324,2.3-2.532,3.624-3.623
	c0,0.092,0,0.185,0,0.278C78.124,110.229,77.248,111.674,75.874,112.624z"/>
<path fill-rule="evenodd" clip-rule="evenodd" fill="#C5C5C5" d="M79.498,109.001c0.647-0.188,0.745-0.927,1.393-1.115
	c-0.345,0.583-0.81,1.048-1.393,1.394C79.498,109.186,79.498,109.093,79.498,109.001z"/>
<path fill-rule="evenodd" clip-rule="evenodd" fill="#C5C5C5" d="M98.172,79.456c0.583,0.347,1.048,0.812,1.393,1.395
	C98.981,80.504,98.517,80.04,98.172,79.456z"/>
<path fill-rule="evenodd" clip-rule="evenodd" fill="#787878" d="M66.957,78.343c0.561-0.646,0.926-1.49,1.949-1.673
	C68.189,77.16,67.704,77.882,66.957,78.343z"/>
<path fill-rule="evenodd" clip-rule="evenodd" fill="#C5C5C5" d="M43.823,85.589c-0.763-1.188-2.024-1.878-2.787-3.066
	c1.139,0.905,2.161,1.928,3.065,3.066C44.008,85.589,43.916,85.589,43.823,85.589z"/>
<path fill-rule="evenodd" clip-rule="evenodd" fill="#787878" d="M39.084,80.851c0.492,0.252,0.863,0.623,1.115,1.115
	C39.708,81.713,39.336,81.342,39.084,80.851z"/>
<path fill-rule="evenodd" clip-rule="evenodd" fill="#787878" d="M36.297,78.343c0.492,0.251,0.863,0.623,1.115,1.113
	c-0.525-0.496-1.291-0.753-1.673-1.392C35.966,78.117,36.018,78.344,36.297,78.343z"/>
<path fill-rule="evenodd" clip-rule="evenodd" fill="#C5C5C5" d="M35.74,78.064c-0.082-0.569-0.753-0.547-0.836-1.116
	c0.583,0.347,1.047,0.812,1.394,1.395C36.018,78.344,35.966,78.117,35.74,78.064z"/>
<path fill-rule="evenodd" clip-rule="evenodd" fill="#323232" d="M31.281,75.834c0.186,0,0.372,0,0.558,0
	c0.193,0.225,0.434,0.764,0,0.836C31.992,76.053,31.306,76.273,31.281,75.834z"/>
<path fill-rule="evenodd" clip-rule="evenodd" fill="#323232" d="M34.067,76.67c0.225,0.147,0.453,0.29,0.836,0.278
	c0.083,0.569,0.754,0.547,0.836,1.116C35.216,77.566,34.45,77.31,34.067,76.67z"/>
<path fill-rule="evenodd" clip-rule="evenodd" fill="#1A1A1A" d="M40.757,82.522c0.093,0,0.186,0,0.279,0
	c0.763,1.188,2.024,1.878,2.787,3.066C42.684,84.684,41.663,83.661,40.757,82.522z"/>
<path fill-rule="evenodd" clip-rule="evenodd" fill="#1A1A1A" d="M65.006,94.229c0.903-1.138,1.927-2.161,3.065-3.065
	C67.165,92.301,66.144,93.323,65.006,94.229z"/>
<path fill-rule="evenodd" clip-rule="evenodd" fill="#1A1A1A" d="M63.333,96.18c0.252-0.491,0.623-0.863,1.113-1.114
	C64.196,95.556,63.823,95.928,63.333,96.18z"/>
<path fill-rule="evenodd" clip-rule="evenodd" fill="#1A1A1A" d="M61.382,98.409c0.347-0.583,0.812-1.047,1.395-1.394
	C62.43,97.6,61.965,98.063,61.382,98.409z"/>
<path fill-rule="evenodd" clip-rule="evenodd" fill="#1A1A1A" d="M59.709,100.361c0.252-0.492,0.625-0.864,1.115-1.116
	C60.572,99.737,60.201,100.108,59.709,100.361z"/>
<path fill-rule="evenodd" clip-rule="evenodd" fill="#1A1A1A" d="M51.626,111.23c0.252-0.492,0.624-0.863,1.115-1.116
	C52.49,110.606,52.118,110.978,51.626,111.23z"/>
<path fill-rule="evenodd" clip-rule="evenodd" fill="#1A1A1A" d="M50.233,112.902c0.252-0.491,0.624-0.862,1.115-1.115
	C51.097,112.279,50.725,112.65,50.233,112.902z"/>
<path fill-rule="evenodd" clip-rule="evenodd" fill="#1A1A1A" d="M48.561,114.854c0.347-0.583,0.811-1.048,1.394-1.394
	C49.608,114.042,49.144,114.507,48.561,114.854z"/>
<path fill-rule="evenodd" clip-rule="evenodd" fill="#1A1A1A" d="M23.755,125.723c0.346-0.583,0.811-1.048,1.394-1.393
	C24.803,124.913,24.338,125.378,23.755,125.723z"/>
<path fill-rule="evenodd" clip-rule="evenodd" fill="#1A1A1A" d="M24.592,100.64c0.251-0.492,0.623-0.863,1.115-1.115
	C25.455,100.016,25.083,100.387,24.592,100.64z"/>
<path fill-rule="evenodd" clip-rule="evenodd" fill="#323232" d="M25.707,98.967c0.675-0.44,1.232-0.997,1.672-1.672
	c0.675-0.439,1.232-0.998,1.672-1.673c0.124-0.249,0.245-0.498,0.557-0.557c-0.91,1.783-2.528,2.859-3.902,4.18
	C25.707,99.153,25.707,99.06,25.707,98.967z"/>
<path fill-rule="evenodd" clip-rule="evenodd" fill="#1A1A1A" d="M12.05,79.178c-1.139-0.905-2.161-1.927-3.066-3.065
	C10.123,77.018,11.145,78.04,12.05,79.178z"/>
<path fill-rule="evenodd" clip-rule="evenodd" fill="#787878" d="M31.838,76.67c0.434-0.072,0.193-0.611,0-0.836
	c0.521,0.222,1.021,0.465,1.672,0.558c-0.197,0.917-0.448,1.781-0.558,2.786c-0.671,0.114-0.606-0.509-1.394-0.278
	C31.438,77.941,31.669,77.338,31.838,76.67z"/>
<path fill-rule="evenodd" clip-rule="evenodd" fill="#323232" d="M92.875,76.67c2.189,0.505,3.313,2.075,5.297,2.786
	c0.345,0.584,0.81,1.048,1.393,1.395c0,0.093,0,0.186,0,0.278c0.192,0.75-0.575,0.538-0.835,0.837c-0.101-0.332,0.13-0.797,0-1.115
	c-0.459-1.124-3.092-2.236-4.46-3.066C93.618,77.39,93.115,77.166,92.875,76.67z"/>
<path fill-rule="evenodd" clip-rule="evenodd" fill="#787878" d="M99.564,81.129c0.547,0.755,1.162,1.439,1.116,2.787
	c-0.379-0.086-0.232-0.697-0.279-1.115c-0.971-0.002-2.277,1.537-2.786,0.28c-0.08-0.451,0.263-0.48,0.278-0.837
	c0.223-0.147,0.451-0.29,0.836-0.278C98.989,81.667,99.757,81.879,99.564,81.129z"/>
<path fill-rule="evenodd" clip-rule="evenodd" fill="#1A1A1A" d="M96.777,83.359c0.642-0.103,0.267-1.221,1.116-1.115
	c-0.016,0.356-0.358,0.386-0.278,0.837C97.391,83.228,97.162,83.371,96.777,83.359z"/>
<path fill-rule="evenodd" clip-rule="evenodd" fill="#1A1A1A" d="M68.906,94.229c0.347-0.583,0.812-1.048,1.395-1.394
	C69.954,93.418,69.489,93.883,68.906,94.229z"/>
<path fill-rule="evenodd" clip-rule="evenodd" fill="#1A1A1A" d="M66.957,96.18c0.25-0.491,0.623-0.863,1.114-1.114
	C67.818,95.556,67.448,95.928,66.957,96.18z"/>
<path fill-rule="evenodd" clip-rule="evenodd" fill="#1A1A1A" d="M65.006,98.409c0.25-0.491,0.623-0.863,1.113-1.114
	C65.867,97.785,65.496,98.157,65.006,98.409z"/>
<path fill-rule="evenodd" clip-rule="evenodd" fill="#1A1A1A" d="M63.333,100.361c0.252-0.492,0.623-0.864,1.113-1.116
	C64.196,99.737,63.823,100.108,63.333,100.361z"/>
<path fill-rule="evenodd" clip-rule="evenodd" fill="#1A1A1A" d="M61.382,102.59c0.252-0.491,0.623-0.862,1.115-1.115
	C62.245,101.967,61.872,102.338,61.382,102.59z"/>
<path fill-rule="evenodd" clip-rule="evenodd" fill="#1A1A1A" d="M56.365,109.836c0.252-0.49,0.623-0.862,1.113-1.113
	C57.229,109.213,56.855,109.585,56.365,109.836z"/>
<path fill-rule="evenodd" clip-rule="evenodd" fill="#1A1A1A" d="M54.971,111.509c0.252-0.492,0.623-0.863,1.116-1.115
	C55.834,110.885,55.464,111.257,54.971,111.509z"/>
<path fill-rule="evenodd" clip-rule="evenodd" fill="#1A1A1A" d="M50.512,116.804c0.252-0.49,0.623-0.862,1.114-1.113
	c-0.085,0.655-0.968,0.518-0.836,1.393C50.554,117.135,50.528,116.975,50.512,116.804z"/>
<path fill-rule="evenodd" clip-rule="evenodd" fill="#1A1A1A" d="M69.465,121.264c0.251-0.491,0.623-0.862,1.114-1.115
	c0,0.094,0,0.187,0,0.279C70.01,120.509,70.032,121.182,69.465,121.264z"/>
<path fill-rule="evenodd" clip-rule="evenodd" fill="#323232" d="M53.578,119.592c1.096-0.669,1.691-1.84,2.787-2.509
	c-0.669,1.097-1.84,1.691-2.509,2.787c-0.094,0-0.187,0-0.278,0C53.578,119.777,53.578,119.684,53.578,119.592z"/>
<path fill-rule="evenodd" clip-rule="evenodd" fill="#323232" d="M54.971,115.69c0.288-0.538,1.105,0.729,1.395,1.113
	C55.718,116.615,55.62,115.878,54.971,115.69z"/>
<path fill-rule="evenodd" clip-rule="evenodd" fill="#1A1A1A" d="M28.772,131.02c0.675,0.438,1.233,0.996,1.672,1.671
	C29.77,132.251,29.212,131.694,28.772,131.02z"/>
<path fill-rule="evenodd" clip-rule="evenodd" fill="#323232" d="M0.344,70.816c-0.458-0.038-0.458-1.913,0-1.951
	C0.344,69.517,0.344,70.167,0.344,70.816z"/>
<path fill-rule="evenodd" clip-rule="evenodd" fill="#787878" d="M32.396,73.325c0.197-0.918,0.448-1.781,0.557-2.787
	c0.672-0.114,0.606,0.509,1.394,0.278c0.217,1.24-0.372,1.673-0.28,2.788C33.216,73.806,33.052,73.319,32.396,73.325z"/>
<path fill-rule="evenodd" clip-rule="evenodd" fill="#323232" d="M69.744,73.883c0.086-0.379,0.697-0.231,1.113-0.278
	c0,0.092,0,0.186,0,0.278C70.487,73.883,70.114,73.883,69.744,73.883z"/>
<path fill-rule="evenodd" clip-rule="evenodd" fill="#323232" d="M73.645,76.112c0.743,0,1.486,0,2.229,0
	c-0.206,0.629-1.563,0.108-2.229,0.279C73.645,76.298,73.645,76.205,73.645,76.112z"/>
<path fill-rule="evenodd" clip-rule="evenodd" fill="#1A1A1A" d="M85.351,76.112c1.861,0.183,4.455-0.368,5.854,0.279
	C89.343,76.208,86.749,76.759,85.351,76.112z"/>
<path fill-rule="evenodd" clip-rule="evenodd" fill="#1A1A1A" d="M69.744,76.67c0.086-0.379,0.697-0.231,1.113-0.278
	C70.806,76.804,70.185,76.646,69.744,76.67z"/>
<path fill-rule="evenodd" clip-rule="evenodd" fill="#323232" d="M100.401,84.752c0-0.093,0-0.186,0-0.278
	c-2.411,2.142-6.939,2.165-10.87,2.787c-0.557,0-1.113,0-1.673,0c-1.186,0.165-1.843-0.2-2.786-0.278
	c-0.213-0.461-2.296-0.461-2.509,0c-5.203,0.835-8.763,3.313-12.263,5.853c-0.583,0.346-1.048,0.811-1.395,1.394
	c-0.4,0.156-0.679,0.435-0.835,0.837c-0.491,0.251-0.864,0.623-1.114,1.114c-0.082,0.568-0.755,0.546-0.838,1.115
	c-0.49,0.251-0.863,0.623-1.113,1.114c-0.101,0.366-0.491,0.438-0.56,0.836c-0.49,0.252-0.861,0.624-1.113,1.116
	c-0.082,0.567-0.756,0.546-0.836,1.113c-0.492,0.253-0.863,0.624-1.115,1.115c-1.625,1.719-2.695,3.994-3.903,6.133
	c-0.49,0.251-0.861,0.623-1.113,1.113c-0.055,0.227-0.28,0.278-0.278,0.558c-0.493,0.252-0.864,0.623-1.116,1.115
	c-0.957,1.551-2.259,2.757-3.344,4.182c-0.491,0.251-0.862,0.623-1.114,1.113c-1.031-0.176-1.66-0.756-3.066-0.557
	c0.188-0.647,0.926-0.746,1.114-1.394c0.583-0.347,1.048-0.812,1.394-1.394c-0.001-0.279,0.226-0.332,0.278-0.558
	c0.492-0.252,0.864-0.623,1.115-1.115c-0.001-0.279,0.226-0.331,0.278-0.557c0.492-0.253,0.863-0.624,1.115-1.116
	c0.545-1.017,1.43-1.816,1.951-2.508c0.236-0.313,0.693-0.604,0.837-0.836c0.569-0.918,0.563-2.183,1.114-3.065
	c0.136-0.22,0.649-0.36,0.835-0.558c0.996-1.054,1.271-1.923,2.23-2.786c0.492-0.253,0.863-0.624,1.115-1.116
	c0.066-0.397,0.459-0.47,0.558-0.836c0.583-0.346,1.048-0.81,1.395-1.394c0.065-0.398,0.458-0.47,0.557-0.836
	c0.49-0.252,0.863-0.624,1.113-1.114c0.068-0.398,0.459-0.471,0.56-0.837c1.138-0.905,2.159-1.928,3.065-3.065
	c4.139-3.292,8.264-6.602,15.328-6.968c0.372,0,0.743,0,1.115,0c0.371,0,0.743,0,1.114,0c0.086,0.378,0.699,0.23,1.116,0.278
	c0.278,0,0.557,0,0.835,0c0.124,0.46,2.105,0.46,2.229,0c2.372-0.321,4.332-1.058,6.968-1.114c0.385,0.012,0.613-0.132,0.838-0.278
	c0.509,1.257,1.815-0.282,2.786-0.28c0.047,0.418-0.1,1.029,0.279,1.115c0,0.279,0,0.558,0,0.836
	C100.586,84.752,100.494,84.752,100.401,84.752z"/>
<path fill-rule="evenodd" clip-rule="evenodd" fill="#787878" d="M45.495,86.425c0.836,0,1.672,0,2.508,0
	C47.792,86.885,45.707,86.885,45.495,86.425z"/>
<path fill-rule="evenodd" clip-rule="evenodd" fill="#323232" d="M23.755,87.817c-0.125-0.454,1.52-0.454,1.394,0
	C24.685,87.817,24.22,87.817,23.755,87.817z"/>
<path fill-rule="evenodd" clip-rule="evenodd" fill="#787878" d="M23.755,90.605c-0.045-0.457,1.718-0.457,1.672,0
	C24.871,90.605,24.313,90.605,23.755,90.605z"/>
<path fill-rule="evenodd" clip-rule="evenodd" fill="#787878" d="M103.467,100.081c0-1.207,0-2.415,0-3.623c0.093,0,0.187,0,0.278,0
	C103.567,97.58,104.108,99.422,103.467,100.081z"/>
<path fill-rule="evenodd" clip-rule="evenodd" fill="#787878" d="M20.132,102.59c-1.024-0.09-1.542-0.688-2.508-0.836
	c-0.202-0.852,0.48-0.82,0.279-1.673c0.917,0.384,1.871,0.731,2.787,1.115C20.405,101.562,20.417,102.225,20.132,102.59z"/>
<path fill-rule="evenodd" clip-rule="evenodd" fill="#787878" d="M23.477,102.033c0,0.092,0,0.185,0,0.278
	c0.585,0.715,2.402,0.199,2.23,1.672c-0.743,1.328-1.751-0.228-3.066,0C22.856,103.27,22.918,102.403,23.477,102.033z"/>
<path fill-rule="evenodd" clip-rule="evenodd" fill="#787878" d="M97.894,102.59c0.649,0,1.3,0,1.949,0
	c-0.118,0.623-1.372,0.113-1.949,0.279C97.894,102.776,97.894,102.683,97.894,102.59z"/>
<path fill-rule="evenodd" clip-rule="evenodd" fill="#787878" d="M22.362,107.328c0.175-0.847-0.356-2.4,0.278-2.787
	C22.466,105.389,22.998,106.941,22.362,107.328z"/>
<path fill-rule="evenodd" clip-rule="evenodd" fill="#787878" d="M56.365,116.804c0.154-0.001,0.316,0.227,0,0.279
	c-1.096,0.669-1.691,1.84-2.787,2.509c-0.648-0.189-0.747-0.927-1.394-1.115c0-0.093,0-0.187,0-0.278
	c1.096-0.669,1.69-1.839,2.786-2.508C55.62,115.878,55.718,116.615,56.365,116.804z"/>
<path fill-rule="evenodd" clip-rule="evenodd" fill="#787878" d="M61.382,130.183c0.743,0,1.486,0,2.229,0
	C63.487,130.643,61.506,130.643,61.382,130.183z"/>
<path fill-rule="evenodd" clip-rule="evenodd" fill="#787878" d="M9.263,134.921c0.836,0,1.672,0,2.508,0
	C11.56,135.382,9.474,135.382,9.263,134.921z"/>
<path fill-rule="evenodd" clip-rule="evenodd" fill="#FFFFFF" d="M0.344,68.866c0.917-3.02,2.996-3.099,6.689-2.229
	c0.578,0.136,1.046,0.382,1.673,0.557c1.872,0.522,3.626,0.879,5.574,1.394c2.484,0.657,4.787,1.303,7.247,1.951
	c3.385,0.892,7.506,2.091,10.87,2.787c0.656-0.006,0.82,0.48,1.671,0.279c1.147,0.339,2.055,0.918,2.788,1.672
	c0.346,0.583,0.81,1.048,1.393,1.394c0.972,0.606,1.906,1.253,2.508,2.229c0.378,0.829,1.258,1.158,1.951,1.673
	c0.905,1.138,1.928,2.16,3.065,3.065c0.959,0.598,1.938,0.015,3.345-0.557c4.787-1.948,11.452-4.999,16.166-6.689
	c0.675-0.44,1.232-0.997,1.673-1.673c0.553-0.374,1.326-0.531,1.949-0.836c0.278,0,0.559,0,0.838,0c0.37,0,0.743,0,1.113,0
	c0.371,0,0.743,0,1.116,0c0.44-0.022,1.062,0.134,1.114-0.278c0.278,0,0.557,0,0.835,0c0.745,0,1.486,0,2.229,0
	c1.116,0,2.23,0,3.346,0c4.803,0.214,10.552-0.519,14.493,0.557c3.228,1.418,6.318,2.973,8.081,5.854c0,0.093,0,0.185,0,0.278
	c0.822,0.109,0.545,1.313,1.116,1.673c0,0.37,0,0.743,0,1.115c0,0.928,0,1.857,0,2.786c0,0.465,0,0.929,0,1.394
	c0.17,0.666-0.351,2.022,0.278,2.229c0,0.465,0,0.93,0,1.394c0,0.558,0,1.115,0,1.673c0,1.3,0,2.602,0,3.901
	c0,1.208,0,2.416,0,3.623c-0.334,1.711-1.671,2.418-3.624,2.509c-0.649,0-1.3,0-1.949,0c-0.442,0.022-1.063-0.134-1.116,0.279
	c-6.659,0.957-10.838,4.397-15.049,7.804c-0.676,0.439-1.234,0.997-1.673,1.672c-0.093,0-0.187,0-0.279,0
	c-0.49,0.252-0.863,0.624-1.115,1.115c0,0.093,0,0.186,0,0.278c-1.749,1.315-1.728,4.404-3.622,5.574
	c-0.583,0.347-1.048,0.812-1.395,1.394c0,0.093,0,0.186,0,0.279c-0.583,0.346-1.048,0.81-1.393,1.393
	c-0.675,0.44-1.234,0.998-1.673,1.673c-0.583,0.346-1.048,0.811-1.395,1.394c0,0.094,0,0.187,0,0.278
	c-0.49,0.252-0.861,0.623-1.113,1.115c-0.583,0.346-1.048,0.811-1.395,1.394c-0.726,0.946-1.553,1.792-3.065,1.951
	c-0.743,0-1.486,0-2.229,0c-1.086,0.064-1.444-0.599-2.23-0.836c-1.184-1.418-2.483-2.718-3.902-3.902
	c-0.345-0.583-0.81-1.048-1.393-1.394c-0.054-0.226-0.279-0.278-0.278-0.558c-0.813-1.046-1.742-1.975-2.788-2.787
	c-0.226-0.053-0.278-0.279-0.558-0.278c0-0.093,0-0.186,0-0.279c-0.252-0.49-0.623-0.862-1.115-1.115
	c-1.724-0.52-3.562,0.767-5.017,1.395c-6.308,2.518-14.998,2.652-18.673,7.804c-0.092,0-0.186,0-0.278,0
	c-0.596,0.892-1.312,1.662-1.951,2.508c-2.219,2.276-7.638,2.976-11.427,4.182c-0.836,0-1.672,0-2.508,0
	c-1.877-0.539-3.229-1.602-3.344-3.901c0-0.559,0-1.116,0-1.673c0.52-2.257,2.169-4.008,3.344-5.854
	c2.848-4.473,5.878-8.981,8.919-13.936c0.631-1.028,1.46-1.954,1.672-2.787c0.389-1.528-0.341-2.862,0.278-4.181
	c0.285-0.365,0.273-1.028,0.558-1.394c0.985-1.523,2.103-2.915,3.344-4.181c0.492-0.252,0.863-0.623,1.115-1.114
	c0.583-0.347,1.047-0.811,1.393-1.395c0.172-0.957,0.885-0.972,0.836-1.95c-0.045-0.907-1.09-1.666-1.951-1.951
	c0.046-0.457-1.718-0.457-1.672,0c-1.666,1.072-4.054,0.371-5.017-0.837c-2.578-2.81-5.272-5.504-8.083-8.082
	c-1.37-1.603-2.857-3.089-4.459-4.459c-0.824-1.128-1.843-2.06-3.066-2.788c-0.248-0.123-0.498-0.244-0.557-0.557
	c-0.252-0.491-0.624-0.863-1.115-1.115c-0.752-0.083-0.5-1.173-1.115-1.393c0-0.187,0-0.372,0-0.559
	C0.344,70.167,0.344,69.517,0.344,68.866z M31.281,75.834c-7.21-1.527-14.54-3.687-21.182-5.574c-0.564-0.16-1.35-0.104-1.952-0.279
	c-1.747-0.508-3.683-1.816-5.295-0.557c0.041,2.095,1.962,2.312,2.787,3.624c0.534,0.767,1.184,1.418,1.952,1.951
	c1.463,1.694,3.042,3.274,4.738,4.738c2.857,2.438,5.225,5.364,8.083,7.803c0.811,1.203,1.853,0.484,3.344,0.278
	c0.464,0,0.929,0,1.394,0c1.572-0.177,2.181,0.607,3.066,1.116c0.252,0.491,0.623,0.862,1.115,1.114
	c0.985,0.858,1.212,3.892,0.278,5.018c-0.313,0.059-0.434,0.308-0.557,0.557c-0.675,0.439-1.233,0.997-1.672,1.673
	c-0.675,0.438-1.233,0.996-1.672,1.672c0,0.093,0,0.187,0,0.278c0,0.093,0,0.187,0,0.279c-0.492,0.252-0.863,0.623-1.115,1.115
	c-0.188,0.646-0.926,0.745-1.115,1.394c-0.558,0.37-0.621,1.236-0.836,1.95c0,0.186,0,0.371,0,0.558
	c-0.635,0.387-0.104,1.94-0.278,2.787c-0.424,2.36-2.143,4.276-3.345,6.132c-1.456,2.248-2.931,4.678-4.181,6.688
	c-0.104,0.167-0.44,0.375-0.558,0.558c-0.347,0.537-0.522,1.195-0.836,1.672c-0.271,0.414-0.855,0.715-1.114,1.115
	c-0.356,0.551-0.511,1.154-0.836,1.672c-0.498,0.794-1.082,1.818-1.393,2.509c-0.046,0.103-0.496,0.155-0.558,0.279
	c-0.613,1.229-1.275,2.378-0.558,3.901c1.066,0.707,1.779,0.491,3.066,0.278c0.431-0.07,0.87-0.404,1.393-0.557
	c0.257-0.075,0.581,0.077,0.836,0c0.105-0.032,0.41-0.514,0.558-0.557c0.543-0.163,1.093-0.111,1.672-0.28
	c1.458-0.423,3.321-0.856,4.459-1.672c1.277-0.914,1.574-2.449,2.787-3.065c0.675-0.439,1.233-0.997,1.672-1.672
	c1.834-2.03,4.864-2.868,7.525-3.624c1.024-0.291,2.092-0.569,3.066-0.836c4.022-1.099,7.925-2.27,11.427-3.623
	c1.406-0.199,2.035,0.381,3.066,0.557c0.016,0.171,0.042,0.331,0.278,0.279c0.346,0.583,0.811,1.048,1.394,1.394
	c0.346,0.583,0.81,1.047,1.394,1.394c0.251,0.491,0.624,0.863,1.114,1.115c1.927,2.159,3.973,4.204,6.132,6.131
	c1.72,1.283,3.458-0.089,4.46-1.114c0.583-0.346,1.048-0.811,1.393-1.394c0.082-0.568,0.755-0.547,0.837-1.115
	c0.676-0.439,1.232-0.997,1.671-1.672c0.583-0.347,1.048-0.812,1.395-1.394c0-0.093,0-0.186,0-0.279
	c0.583-0.346,1.048-0.811,1.395-1.394c0.583-0.346,1.046-0.81,1.393-1.393c0.925-1.492,1.426-3.406,2.508-4.738
	c1.374-0.95,2.25-2.396,3.624-3.345c0.583-0.346,1.048-0.811,1.393-1.394c0.842-0.976,1.999-1.772,3.067-2.508
	c3.35-2.313,6.753-4.52,11.706-5.017c0.848-0.176,2.399,0.356,2.786-0.28c1.05,0.215,1.333-0.339,2.23-0.278
	c0.429-0.965,0.246-2.541,0.278-3.901c0-0.836,0-1.673,0-2.508c0-0.93,0-1.859,0-2.788c0-0.837,0-1.672,0-2.509
	c-0.152-0.404,0.326-1.44-0.278-1.393c0-0.279,0-0.559,0-0.837c0-0.371,0-0.743,0-1.115c0-0.278,0-0.557,0-0.836
	c0.046-1.348-0.569-2.032-1.116-2.787c0-0.093,0-0.186,0-0.278c-0.345-0.583-0.81-1.048-1.393-1.395
	c-1.983-0.711-3.107-2.281-5.297-2.786c-0.655,0.007-0.819-0.48-1.671-0.278c-1.398-0.647-3.992-0.097-5.854-0.279
	c-3.157,0-6.317,0-9.477,0c-0.743,0-1.486,0-2.229,0c-0.371,0-0.743,0-1.114,0c-0.416,0.048-1.029-0.1-1.115,0.279
	c-0.187,0-0.371,0-0.558,0c-0.416,0.047-1.027-0.101-1.113,0.278c-0.279,0-0.56,0-0.838,0c-1.023,0.183-1.389,1.027-1.949,1.673
	c-0.435,0.68-1.513,0.719-1.951,1.394c-3.105,0.591-5.666,2.223-8.362,3.345c-2.954,1.229-5.795,2.354-8.64,3.344
	c-0.836,0-1.672,0-2.508,0c-0.65-0.093-1.201-0.286-1.394-0.836c-0.905-1.139-1.927-2.161-3.065-3.066c-0.093,0-0.186,0-0.279,0
	c-0.313-0.059-0.434-0.309-0.557-0.557c-0.252-0.492-0.623-0.863-1.115-1.115c-0.524-0.498-1.29-0.753-1.672-1.395
	c-0.252-0.49-0.624-0.862-1.115-1.113c-0.346-0.583-0.811-1.048-1.394-1.395c-0.383,0.012-0.612-0.131-0.836-0.278
	c-0.279,0.001-0.331-0.226-0.557-0.278c-0.652-0.093-1.151-0.336-1.672-0.558C31.652,75.834,31.467,75.834,31.281,75.834z"/>
<path fill-rule="evenodd" clip-rule="evenodd" fill="#323232" d="M73.923,73.604c0.208-0.629,1.564-0.109,2.229-0.279
	c0,0.093,0,0.187,0,0.279C75.409,73.604,74.668,73.604,73.923,73.604z"/>
<path fill-rule="evenodd" clip-rule="evenodd" fill="#323232" d="M103.188,83.081c0.635,0.386,0.104,1.938,0.278,2.786
	c-0.092,0-0.187,0-0.278,0C103.188,84.938,103.188,84.009,103.188,83.081z"/>
<path fill-rule="evenodd" clip-rule="evenodd" fill="#323232" d="M5.918,129.347c0,0.557,0,1.114,0,1.673
	C5.461,131.064,5.461,129.3,5.918,129.347z"/>
<path fill-rule="evenodd" clip-rule="evenodd" fill="#787878" d="M95.664,100.361c0.387-0.637,1.939-0.105,2.786-0.28
	C98.063,100.718,96.512,100.186,95.664,100.361z"/>
</svg>
