<?xml version="1.0" encoding="utf-8"?>
<!-- Generator: Adobe Illustrator 15.0.0, SVG Export Plug-In  -->
<!DOCTYPE svg PUBLIC "-//W3C//DTD SVG 1.1//EN" "http://www.w3.org/Graphics/SVG/1.1/DTD/svg11.dtd" [
	<!ENTITY ns_flows "http://ns.adobe.com/Flows/1.0/">
]>
<svg version="1.1"
	 xmlns="http://www.w3.org/2000/svg" xmlns:xlink="http://www.w3.org/1999/xlink" xmlns:a="http://ns.adobe.com/AdobeSVGViewerExtensions/3.0/"
	 x="0px" y="0px" width="142px" height="142px" viewBox="-18.609 -2.285 142 142" enable-background="new -18.609 -2.285 142 142"
	 xml:space="preserve">
<defs>
</defs>
<path fill-rule="evenodd" clip-rule="evenodd" fill="#303030" d="M99.842,20.134c0.413,0.052,0.257,0.673,0.28,1.115
	c-0.094,0-0.186,0-0.28,0C99.842,20.878,99.842,20.506,99.842,20.134z"/>
<path fill-rule="evenodd" clip-rule="evenodd" fill="#303030" d="M97.056,20.413c0.094,0,0.186,0,0.278,0c0,0.372,0,0.743,0,1.115
	C96.921,21.476,97.079,20.854,97.056,20.413z"/>
<path fill-rule="evenodd" clip-rule="evenodd" fill="#303030" d="M100.4,28.496c0.413,0.052,0.255,0.674,0.279,1.115
	c-0.095,0-0.187,0-0.279,0C100.4,29.239,100.4,28.867,100.4,28.496z"/>
<path fill-rule="evenodd" clip-rule="evenodd" fill="#D8D8D8" d="M75.316,30.446c0.412,0.052,0.254,0.674,0.278,1.115
	c-0.092,0-0.187,0-0.278,0C75.316,31.19,75.316,30.818,75.316,30.446z"/>
<path fill-rule="evenodd" clip-rule="evenodd" fill="#A7A7A7" d="M77.824,30.726c0.093,0,0.187,0,0.278,0c0,0.372,0,0.743,0,1.115
	c-0.092,0-0.186,0-0.278,0C77.824,31.468,77.824,31.097,77.824,30.726z"/>
<path fill-rule="evenodd" clip-rule="evenodd" fill="#A7A7A7" d="M75.316,31.562c0.092,0,0.187,0,0.278,0c0,0.465,0,0.93,0,1.393
	c-0.092,0-0.187,0-0.278,0C75.316,32.491,75.316,32.026,75.316,31.562z"/>
<path fill-rule="evenodd" clip-rule="evenodd" fill="#D8D8D8" d="M77.824,31.84c0.093,0,0.187,0,0.278,0c0,3.716,0,7.432,0,11.148
	C77.454,39.829,78.009,35.464,77.824,31.84z"/>
<path fill-rule="evenodd" clip-rule="evenodd" fill="#727272" d="M75.316,32.955c0.092,0,0.187,0,0.278,0c0,3.81,0,7.619,0,11.428
	c-0.092,0-0.187,0-0.278,0C75.316,40.573,75.316,36.764,75.316,32.955z"/>
<path fill-rule="evenodd" clip-rule="evenodd" fill="#303030" d="M97.893,32.955c0.092,0,0.185,0,0.278,0c0,0.373,0,0.744,0,1.116
	C97.759,34.018,97.915,33.396,97.893,32.955z"/>
<path fill-rule="evenodd" clip-rule="evenodd" fill="#303030" d="M100.958,36.857c0.455-0.125,0.455,1.52,0,1.394
	C100.958,37.787,100.958,37.322,100.958,36.857z"/>
<path fill-rule="evenodd" clip-rule="evenodd" fill="#D8D8D8" d="M78.103,43.268c0,1.115,0,2.23,0,3.344
	C77.643,46.132,77.643,43.748,78.103,43.268z"/>
<path fill-rule="evenodd" clip-rule="evenodd" fill="#A7A7A7" d="M75.316,44.382c0.092,0,0.187,0,0.278,0c0,0.65,0,1.301,0,1.951
	c-0.092,0-0.187,0-0.278,0C75.316,45.683,75.316,45.033,75.316,44.382z"/>
<path fill-rule="evenodd" clip-rule="evenodd" fill="#A7A7A7" d="M91.203,49.678c0,0.465,0,0.929,0,1.394
	C90.748,51.197,90.748,49.552,91.203,49.678z"/>
<path fill-rule="evenodd" clip-rule="evenodd" fill="#D8D8D8" d="M89.53,58.875c0.605-0.047,0.126,0.989,0.278,1.393
	c-0.092,0-0.186,0-0.278,0C89.53,59.804,89.53,59.34,89.53,58.875z"/>
<path fill-rule="evenodd" clip-rule="evenodd" fill="#A7A7A7" d="M92.039,59.154c0.092,0,0.186,0,0.278,0c0,2.137,0,4.274,0,6.411
	c-0.093,0-0.187,0-0.278,0C92.039,63.428,92.039,61.291,92.039,59.154z"/>
<path fill-rule="evenodd" clip-rule="evenodd" fill="#A7A7A7" d="M89.53,60.269c0.093,0,0.187,0,0.278,0c0,1.022,0,2.044,0,3.066
	c-0.092,0-0.186,0-0.278,0C89.53,62.313,89.53,61.291,89.53,60.269z"/>
<path fill-rule="evenodd" clip-rule="evenodd" fill="#727272" d="M92.039,65.565c0.092,0,0.186,0,0.278,0c0,0.743,0,1.486,0,2.229
	c-0.093,0-0.187,0-0.278,0C92.039,67.051,92.039,66.308,92.039,65.565z"/>
<path fill-rule="evenodd" clip-rule="evenodd" fill="#A7A7A7" d="M92.039,67.794c0.092,0,0.186,0,0.278,0c0,0.372,0,0.743,0,1.115
	C91.904,68.857,92.063,68.236,92.039,67.794z"/>
<path fill-rule="evenodd" clip-rule="evenodd" fill="#303030" d="M89.252,84.517c0.2,0.452-1.314,0.452-1.116,0
	C88.509,84.517,88.879,84.517,89.252,84.517z"/>
<path fill-rule="evenodd" clip-rule="evenodd" fill="#303030" d="M87.857,87.304c0.465,0,0.93,0,1.395,0
	C89.376,87.76,87.733,87.76,87.857,87.304z"/>
<path fill-rule="evenodd" clip-rule="evenodd" fill="#303030" d="M23.754,87.86c-0.125-0.454,1.52-0.454,1.394,0
	C24.684,87.86,24.219,87.86,23.754,87.86z"/>
<path fill-rule="evenodd" clip-rule="evenodd" fill="#D8D8D8" d="M27.378,92.32c0.452-0.199,0.452,1.315,0,1.116
	C27.378,93.063,27.378,92.692,27.378,92.32z"/>
<path fill-rule="evenodd" clip-rule="evenodd" fill="#A7A7A7" d="M69.464,9.543c0.491,0.252,0.862,0.624,1.114,1.115
	C70.087,10.406,69.715,10.035,69.464,9.543z"/>
<path fill-rule="evenodd" clip-rule="evenodd" fill="#727272" d="M42.428,80.336c1.139,0.905,2.16,1.927,3.066,3.066
	C44.355,82.496,43.333,81.475,42.428,80.336z"/>
<path fill-rule="evenodd" clip-rule="evenodd" fill="#D8D8D8" d="M41.035,79.221c0.555,0.281,1.19,0.482,1.394,1.115
	C41.611,80.317,41.393,79.699,41.035,79.221z"/>
<path fill-rule="evenodd" clip-rule="evenodd" fill="#303030" d="M2.573,73.926c0.226,0.054,0.277,0.279,0.557,0.278
	c0.289,0.733,1.105,0.938,1.394,1.673C3.756,75.344,3.105,74.693,2.573,73.926z"/>
<path fill-rule="evenodd" clip-rule="evenodd" fill="#D8D8D8" d="M4.523,75.877c-0.289-0.734-1.105-0.939-1.394-1.673
	c0.86,0.626,1.604,1.37,2.23,2.23C4.994,76.336,4.921,75.943,4.523,75.877z"/>
<path fill-rule="evenodd" clip-rule="evenodd" fill="#A7A7A7" d="M5.36,76.435c0.86,0.626,1.604,1.369,2.23,2.229
	C6.729,78.038,5.986,77.295,5.36,76.435z"/>
<path fill-rule="evenodd" clip-rule="evenodd" fill="#727272" d="M7.59,78.664c1.324,1.091,2.532,2.299,3.623,3.623
	C9.889,81.196,8.681,79.988,7.59,78.664z"/>
<path fill-rule="evenodd" clip-rule="evenodd" fill="#303030" d="M11.213,82.287c1.096,0.669,1.691,1.839,2.787,2.508
	c1.091,1.325,2.299,2.533,3.624,3.624c0.288,0.732,1.105,0.938,1.394,1.672C16.299,87.606,13.698,85.005,11.213,82.287z"/>
<path fill-rule="evenodd" clip-rule="evenodd" fill="#A7A7A7" d="M24.591,96.779c0.719-0.952,1.555-1.789,2.508-2.508
	C26.379,95.225,25.543,96.061,24.591,96.779z"/>
<path fill-rule="evenodd" clip-rule="evenodd" fill="#727272" d="M23.197,98.174c0.346-0.584,0.81-1.048,1.394-1.395
	C24.245,97.362,23.78,97.827,23.197,98.174z"/>
<path fill-rule="evenodd" clip-rule="evenodd" fill="#303030" d="M50.79,116.568c0.252-0.491,0.624-0.863,1.115-1.115
	C51.652,115.944,51.281,116.317,50.79,116.568z"/>
<path fill-rule="evenodd" clip-rule="evenodd" fill="#303030" d="M67.234,95.944c0.052-0.227,0.278-0.278,0.278-0.558
	c0.676-0.44,1.232-0.997,1.671-1.672c0.227-0.054,0.278-0.279,0.56-0.278C69.023,94.389,68.187,95.225,67.234,95.944z"/>
<path fill-rule="evenodd" clip-rule="evenodd" fill="#303030" d="M93.99,46.333c1.136-1.558,2.765-2.623,3.902-4.181
	c0.567-0.082,0.545-0.754,1.114-0.836C97.45,43.105,95.779,44.777,93.99,46.333z"/>
<path fill-rule="evenodd" clip-rule="evenodd" fill="#303030" d="M99.007,16.79c-0.491-0.251-0.864-0.623-1.114-1.115
	C98.384,15.927,98.754,16.298,99.007,16.79z"/>
<path fill-rule="evenodd" clip-rule="evenodd" fill="#303030" d="M78.66,2.297c-0.491-0.251-0.861-0.623-1.114-1.115
	C78.037,1.434,78.409,1.805,78.66,2.297z"/>
<path fill-rule="evenodd" clip-rule="evenodd" fill="#D8D8D8" d="M93.433,46.612c1.371-1.603,2.855-3.089,4.46-4.459
	c-1.138,1.558-2.767,2.623-3.902,4.181C93.764,46.387,93.712,46.613,93.433,46.612z"/>
<path fill-rule="evenodd" clip-rule="evenodd" fill="#D8D8D8" d="M99.563,77.827c0.709,0.034,1.082,0.406,1.116,1.115
	C100.188,78.691,99.815,78.318,99.563,77.827z"/>
<path fill-rule="evenodd" clip-rule="evenodd" fill="#D8D8D8" d="M67.513,95.387c0.439-0.676,0.996-1.232,1.671-1.672
	C68.745,94.39,68.188,94.946,67.513,95.387z"/>
<path fill-rule="evenodd" clip-rule="evenodd" fill="#D8D8D8" d="M17.623,88.419c-1.324-1.091-2.532-2.299-3.624-3.624
	C15.324,85.887,16.532,87.095,17.623,88.419z"/>
<path fill-rule="evenodd" clip-rule="evenodd" fill="#D8D8D8" d="M73.922,9.822c0.711,0.034,1.082,0.406,1.116,1.115
	C74.547,10.686,74.174,10.314,73.922,9.822z"/>
<path fill-rule="evenodd" clip-rule="evenodd" fill="#D8D8D8" d="M40.478,82.009c1.138,0.905,2.161,1.927,3.066,3.065
	c-1.068-0.326-1.234-1.553-2.23-1.95C41.231,82.555,40.559,82.576,40.478,82.009z"/>
<path fill-rule="evenodd" clip-rule="evenodd" fill="#303030" d="M37.412,79.499c0.492,0.253,0.863,0.624,1.115,1.116
	C38.035,80.363,37.663,79.991,37.412,79.499z"/>
<path fill-rule="evenodd" clip-rule="evenodd" fill="#303030" d="M5.36,72.811c-0.492-0.251-0.863-0.624-1.115-1.114
	C4.736,71.947,5.108,72.32,5.36,72.811z"/>
<path fill-rule="evenodd" clip-rule="evenodd" fill="#727272" d="M5.36,72.811c0.675,0.439,1.232,0.997,1.672,1.672
	C6.357,74.043,5.8,73.486,5.36,72.811z"/>
<path fill-rule="evenodd" clip-rule="evenodd" fill="#A7A7A7" d="M7.032,74.482c0.768,0.533,1.418,1.185,1.951,1.952
	C8.215,75.901,7.565,75.25,7.032,74.482z"/>
<path fill-rule="evenodd" clip-rule="evenodd" fill="#D8D8D8" d="M8.983,76.435c0.822,0.386,1.128,1.287,1.951,1.673
	c1.043,1.464,2.581,2.436,3.624,3.901C12.583,80.267,10.725,78.408,8.983,76.435z"/>
<path fill-rule="evenodd" clip-rule="evenodd" fill="#303030" d="M14.558,82.009c-1.043-1.466-2.581-2.438-3.624-3.901
	c3.275,3.042,6.434,6.2,9.477,9.475C18.295,85.889,16.672,83.703,14.558,82.009z"/>
<path fill-rule="evenodd" clip-rule="evenodd" fill="#303030" d="M29.329,90.091c-0.492-0.252-0.863-0.623-1.115-1.114
	C28.706,89.228,29.077,89.6,29.329,90.091z"/>
<path fill-rule="evenodd" clip-rule="evenodd" fill="#A7A7A7" d="M26.263,98.731c0.813-1.046,1.742-1.975,2.788-2.787
	C28.238,96.99,27.309,97.919,26.263,98.731z"/>
<path fill-rule="evenodd" clip-rule="evenodd" fill="#D8D8D8" d="M25.148,99.846c0.252-0.491,0.623-0.863,1.114-1.114
	c0,0.093,0,0.186,0,0.278C25.695,99.092,25.716,99.764,25.148,99.846z"/>
<path fill-rule="evenodd" clip-rule="evenodd" fill="#303030" d="M24.87,100.404c0.052-0.227,0.279-0.279,0.279-0.559
	c0.568-0.082,0.546-0.754,1.114-0.836C25.917,99.593,25.453,100.058,24.87,100.404z"/>
<path fill-rule="evenodd" clip-rule="evenodd" fill="#727272" d="M18.181,114.617c0.459-0.47,0.605-1.252,1.115-1.672
	c0,0.093,0,0.187,0,0.278c0.821,0.638,2.629,0.914,1.951,2.229C19.962,116.393,19.6,114.429,18.181,114.617z"/>
<path fill-rule="evenodd" clip-rule="evenodd" fill="#727272" d="M65.84,93.437c0.347-0.584,0.81-1.048,1.395-1.395
	C66.888,92.625,66.423,93.09,65.84,93.437z"/>
<path fill-rule="evenodd" clip-rule="evenodd" fill="#D8D8D8" d="M91.481,75.319c0.491,0.251,0.863,0.623,1.114,1.115
	C91.887,76.4,91.516,76.028,91.481,75.319z"/>
<path fill-rule="evenodd" clip-rule="evenodd" fill="#727272" d="M89.809,46.612c1.741-1.974,3.601-3.832,5.576-5.574
	C93.642,43.012,91.784,44.87,89.809,46.612z"/>
<path fill-rule="evenodd" clip-rule="evenodd" fill="#303030" d="M95.385,41.038c0.719-0.954,1.555-1.79,2.508-2.509
	C97.172,39.482,96.336,40.318,95.385,41.038z"/>
<path fill-rule="evenodd" clip-rule="evenodd" fill="#303030" d="M67.234,92.042c0.251-0.491,0.623-0.863,1.114-1.115
	C68.096,91.419,67.726,91.79,67.234,92.042z"/>
<path fill-rule="evenodd" clip-rule="evenodd" fill="#303030" d="M40.199,82.009c0.092,0,0.186,0,0.279,0
	c0.082,0.567,0.754,0.546,0.836,1.115C40.822,82.871,40.451,82.499,40.199,82.009z"/>
<path fill-rule="evenodd" clip-rule="evenodd" fill="#727272" d="M88.974,11.494c-0.954-0.44-2.105-0.682-2.787-1.393
	c0.892,0.015,0.827-1.119,1.114-1.672c0.269-0.518,0.896-1.005,0.835-1.672c1.004-0.074,1.345,0.515,2.23,0.557
	C90.144,8.827,88.427,10.117,88.974,11.494z"/>
<path fill-rule="evenodd" clip-rule="evenodd" fill="#727272" d="M73.365,13.724c0.629,0.208,0.11,1.563,0.278,2.23
	C73.015,15.746,73.535,14.39,73.365,13.724z"/>
<path fill-rule="evenodd" clip-rule="evenodd" fill="#727272" d="M76.151,14.839c0.623,0.12,0.114,1.374,0.278,1.951
	C75.807,16.67,76.318,15.417,76.151,14.839z"/>
<path fill-rule="evenodd" clip-rule="evenodd" fill="#727272" d="M73.644,16.79c0.623,0.12,0.114,1.373,0.278,1.951
	C73.299,18.621,73.81,17.367,73.644,16.79z"/>
<path fill-rule="evenodd" clip-rule="evenodd" fill="#727272" d="M97.056,19.298c0.378,0.087,0.231,0.698,0.278,1.115
	c-0.093,0-0.185,0-0.278,0C97.056,20.042,97.056,19.67,97.056,19.298z"/>
<path fill-rule="evenodd" clip-rule="evenodd" fill="#727272" d="M73.922,19.298c0.617,0.035,0.12,1.183,0.28,1.672
	C73.585,20.936,74.082,19.789,73.922,19.298z"/>
<path fill-rule="evenodd" clip-rule="evenodd" fill="#727272" d="M74.202,21.528c0.604-0.047,0.124,0.989,0.278,1.394
	C73.876,22.969,74.354,21.933,74.202,21.528z"/>
<path fill-rule="evenodd" clip-rule="evenodd" fill="#727272" d="M100.122,21.25c0,0.65,0,1.301,0,1.951
	c-0.625-0.12-0.114-1.374-0.28-1.951C99.937,21.25,100.028,21.25,100.122,21.25z"/>
<path fill-rule="evenodd" clip-rule="evenodd" fill="#727272" d="M76.989,22.364c0.603-0.046,0.126,0.989,0.278,1.394
	C76.662,23.805,77.142,22.769,76.989,22.364z"/>
<path fill-rule="evenodd" clip-rule="evenodd" fill="#727272" d="M74.76,25.708c0.603-0.047,0.126,0.989,0.278,1.394
	C74.433,27.149,74.911,26.114,74.76,25.708z"/>
<path fill-rule="evenodd" clip-rule="evenodd" fill="#727272" d="M100.122,24.594c0.636,0.387,0.103,1.94,0.278,2.787
	C99.766,26.995,100.297,25.441,100.122,24.594z"/>
<path fill-rule="evenodd" clip-rule="evenodd" fill="#727272" d="M77.546,26.267c0.615,0.034,0.118,1.182,0.278,1.672
	C77.209,27.904,77.706,26.756,77.546,26.267z"/>
<path fill-rule="evenodd" clip-rule="evenodd" fill="#727272" d="M75.038,27.938c0.623,0.12,0.112,1.374,0.278,1.951
	C74.693,29.77,75.204,28.516,75.038,27.938z"/>
<path fill-rule="evenodd" clip-rule="evenodd" fill="#727272" d="M100.68,29.611c0,0.65,0,1.3,0,1.951
	c-0.623-0.12-0.114-1.374-0.279-1.951C100.493,29.611,100.585,29.611,100.68,29.611z"/>
<path fill-rule="evenodd" clip-rule="evenodd" fill="#A7A7A7" d="M97.893,31.283c0.615,0.035,0.118,1.183,0.278,1.672
	c-0.094,0-0.187,0-0.278,0C97.893,32.398,97.893,31.84,97.893,31.283z"/>
<path fill-rule="evenodd" clip-rule="evenodd" fill="#727272" d="M100.68,32.955c0.633,0.297,0.105,1.752,0.278,2.509
	C100.325,35.167,100.852,33.711,100.68,32.955z"/>
<path fill-rule="evenodd" clip-rule="evenodd" fill="#727272" d="M98.171,35.463c0.459,0.125,0.459,2.106,0,2.23
	C98.171,36.95,98.171,36.207,98.171,35.463z"/>
<path fill-rule="evenodd" clip-rule="evenodd" fill="#727272" d="M75.316,48.842c0-0.836,0-1.672,0-2.508c0.092,0,0.187,0,0.278,0
	C75.423,47.089,75.949,48.545,75.316,48.842z"/>
<path fill-rule="evenodd" clip-rule="evenodd" fill="#727272" d="M91.76,54.695c0.615,0.035,0.118,1.182,0.279,1.672
	C91.424,56.332,91.921,55.185,91.76,54.695z"/>
<path fill-rule="evenodd" clip-rule="evenodd" fill="#727272" d="M89.252,56.367c0.623,0.12,0.112,1.373,0.278,1.951
	C88.907,58.198,89.418,56.944,89.252,56.367z"/>
<path fill-rule="evenodd" clip-rule="evenodd" fill="#D8D8D8" d="M89.809,63.335c0,2.508,0,5.017,0,7.524
	c-0.646-1.953-0.094-5.107-0.278-7.524C89.623,63.335,89.717,63.335,89.809,63.335z"/>
<path fill-rule="evenodd" clip-rule="evenodd" fill="#727272" d="M0.343,68.909c0,0.558,0,1.115,0,1.672
	C-0.114,70.627-0.114,68.863,0.343,68.909z"/>
<path fill-rule="evenodd" clip-rule="evenodd" fill="#727272" d="M51.068,82.287c-0.371,0.465-1.239,0.433-1.672,0.837
	c-0.066-1.143-0.846-1.571-0.836-2.788c0.531-0.119,0.7-0.601,1.394-0.557C50.016,80.924,50.543,81.604,51.068,82.287z"/>
<path fill-rule="evenodd" clip-rule="evenodd" fill="#727272" d="M76.43,85.91c-0.391,0.446-0.959,0.712-1.67,0.837
	c0.685-0.977-1.81-2.784,0-3.345C75.941,83.612,76.001,84.946,76.43,85.91z"/>
<path fill-rule="evenodd" clip-rule="evenodd" fill="#727272" d="M17.066,111.552c-0.418,0.419-0.499,1.174-1.115,1.394
	c-0.684-0.524-1.262-1.153-2.229-1.394c0.163-0.58,0.585-0.901,0.836-1.395C15.551,110.465,15.973,111.344,17.066,111.552z"/>
<path fill-rule="evenodd" clip-rule="evenodd" fill="#727272" d="M8.705,129.668c0,0.558,0,1.114,0,1.673
	C8.247,131.386,8.247,129.623,8.705,129.668z"/>
<path fill-rule="evenodd" clip-rule="evenodd" fill="#727272" d="M31.837,136.914c0.65,0,1.301,0,1.951,0
	C33.75,137.374,31.875,137.374,31.837,136.914z"/>
<path fill-rule="evenodd" clip-rule="evenodd" fill="#FFFFFF" d="M72.529,0.346c0.928,0,1.857,0,2.787,0c0.278,0,0.557,0,0.835,0
	c0.255,0.49,0.978,0.51,1.395,0.836c0.253,0.492,0.623,0.863,1.114,1.115c1.08,1.243,1.412,3.234,1.951,5.017
	c1.589,1.199,3.799,1.777,5.575,2.788c0.682,0.711,1.833,0.953,2.787,1.393c3.095,1.271,6.018,2.716,8.919,4.181
	c0.25,0.492,0.623,0.864,1.114,1.115c0.326,0.417,0.347,1.14,0.835,1.394c0,0.65,0,1.3,0,1.951c0,0.372,0,0.744,0,1.115
	c0.166,0.577-0.345,1.831,0.28,1.951c0,0.465,0,0.929,0,1.394c0.175,0.847-0.356,2.401,0.278,2.787c0,0.372,0,0.743,0,1.115
	s0,0.743,0,1.115c0.165,0.577-0.344,1.831,0.279,1.951c0,0.465,0,0.93,0,1.393c0.172,0.757-0.354,2.212,0.278,2.509
	c0,0.464,0,0.929,0,1.394c0,0.465,0,0.93,0,1.394c0,0.278,0,0.557,0,0.836c-0.747,0.647-0.97,1.817-1.951,2.229
	c-0.569,0.082-0.547,0.754-1.114,0.836c-1.604,1.371-3.089,2.857-4.46,4.459c-0.732,1.031-1.681,1.851-2.229,3.066
	c-0.455-0.126-0.455,1.519,0,1.394c0.229,1.165,0.543,2.243,0.557,3.623c0.161,0.49-0.336,1.637,0.279,1.672
	c0,0.278,0,0.557,0,0.836c0,0.65,0,1.301,0,1.951c0,2.137,0,4.274,0,6.411c0,0.743,0,1.486,0,2.229
	c0.023,0.442-0.135,1.063,0.278,1.115c-0.28,5.67,4.281,6.497,7.246,8.918c0.252,0.491,0.625,0.864,1.116,1.115
	c0.342,0.122,0.572,0.356,0.557,0.837c0,1.021,0,2.043,0,3.064c0,0.187,0,0.372,0,0.559c-1.959,3.336-7.358,3.231-11.984,3.901
	c-0.465,0-0.93,0-1.395,0c-1.016,0.086-1.813-0.044-2.508-0.278c-0.481-0.462-2.863-0.462-3.344,0
	c-1.299,0.373-2.53,0.814-3.903,1.114c-0.448,0.387-1.436,0.235-1.673,0.837c-2.51,1.204-4.607,2.824-6.687,4.46
	c-0.281-0.001-0.333,0.225-0.56,0.278c-0.675,0.439-1.231,0.996-1.671,1.672c0,0.279-0.227,0.331-0.278,0.558
	c-1.042,1.674-2.612,2.955-3.902,4.46c-0.314,0.366-0.507,1.01-0.836,1.393c-0.349,0.402-0.821,0.496-1.115,0.836
	c-0.343,0.396-0.443,0.938-0.836,1.394c-0.282,0.326-0.913,0.534-1.115,0.836c-0.396,0.589-0.493,1.242-0.836,1.951
	c-0.265,0.548-0.509,1.161-0.835,1.672c-0.848,1.321-2.116,2.198-3.067,3.345c-0.211,0.255-0.318,0.843-0.558,1.115
	c-0.626,0.715-1.532,1.518-2.229,2.508c-0.491,0.252-0.863,0.624-1.115,1.115c-2.495,3.156-5.07,6.654-8.083,10.591
	c-0.822,1.074-2.043,2.542-3.066,3.903c-0.489,0.649-1.009,1.241-1.672,1.95c-1.052,1.125-2.018,3.618-4.181,3.901
	c-0.65,0-1.301,0-1.951,0c-3.267-1.563-5.374-4.288-8.083-6.41c-1.793,1.881-4.666,2.374-7.804,3.345
	c-1.407,0.435-2.756,1.021-4.181,1.115c-0.743,0-1.486,0-2.229,0c-1.79-0.1-3.764-1.881-3.902-4.182
	c-0.114-1.903,1.063-3.173,2.23-5.017c0.277-0.438,0.263-0.945,0.558-1.393c0.209-0.321,0.593-0.475,0.836-0.837
	c0.209-0.313,0.359-0.819,0.557-1.115c0.199-0.297,0.649-0.547,0.836-0.836c0.263-0.406,0.302-0.979,0.558-1.394
	c0.186-0.302,0.654-0.549,0.836-0.836c0.491-0.776,0.684-1.567,1.115-2.229c0.278-0.429,0.574-0.677,0.836-1.114
	c0.52-0.871,1.486-2.052,1.951-3.066c0.616-0.22,0.697-0.975,1.115-1.394c0.785-2.096,2.617-3.143,2.787-5.853
	c0.632-0.297,0.106-1.752,0.278-2.509c0.436-2.259,1.685-3.704,3.066-5.017c0.583-0.347,1.047-0.812,1.394-1.395
	c0.953-0.719,1.789-1.555,2.508-2.508c-0.079-0.45,0.263-0.479,0.279-0.835c0.452,0.199,0.452-1.315,0-1.116
	c-0.592-1.592-2.981-2.075-5.017-1.394c-0.651,0-1.301,0-1.951,0c-0.875,0.132-0.736-0.749-1.394-0.836
	c-0.289-0.733-1.105-0.939-1.394-1.672c-1.091-1.324-2.299-2.532-3.624-3.624c-1.096-0.669-1.69-1.839-2.787-2.508
	c-1.091-1.324-2.299-2.532-3.623-3.623c-0.626-0.86-1.37-1.604-2.23-2.229c-0.626-0.86-1.37-1.604-2.23-2.23
	c-0.28,0.001-0.332-0.225-0.557-0.278c-0.979-0.879-2.209-1.508-2.23-3.345c0-0.558,0-1.115,0-1.672
	c0.318-1.26,0.972-2.187,2.23-2.508c1.021,0,2.044,0,3.065,0c6.772,1.543,14.636,3.866,21.74,5.853
	c2.485,0.695,5.175,0.761,7.247,1.673c1.374,0.605,2.245,1.592,3.344,2.509c1.07,0.892,2.385,1.615,3.066,2.786
	c0.358,0.479,0.576,1.097,1.394,1.115c0.905,1.139,1.927,2.16,3.066,3.066c1.227,1.177,2.416-0.152,3.902-0.278
	c0.433-0.404,1.301-0.372,1.672-0.837c3.461-1.544,6.834-2.936,10.87-4.46c1.362-0.514,2.698-0.835,3.346-1.672
	c0.981-1.269,1.267-5.477,1.951-7.525c0.166-0.501,0.644-1.173,0.836-1.672c0.559-1.447,1.36-3.232,1.951-4.738
	c0.469-1.199,0.65-2.449,1.113-3.623c0.207-0.521,0.625-1.122,0.838-1.672c0.966-2.504,2.25-5.506,3.344-8.083
	c0.633-0.297,0.106-1.752,0.278-2.508c0-0.65,0-1.301,0-1.951c0-3.809,0-7.618,0-11.428c0-0.463,0-0.928,0-1.393
	c-0.024-0.441,0.134-1.063-0.278-1.115c0-0.185,0-0.371,0-0.557c-0.166-0.577,0.345-1.831-0.278-1.951c0-0.279,0-0.558,0-0.836
	c-0.152-0.405,0.324-1.441-0.278-1.394c-0.289-0.733-0.335-1.71-0.279-2.787c-0.154-0.405,0.325-1.441-0.278-1.394
	c0-0.185,0-0.372,0-0.558c-0.16-0.49,0.337-1.637-0.28-1.672c0-0.185,0-0.372,0-0.557c-0.164-0.578,0.345-1.831-0.278-1.951
	c0-0.279,0-0.558,0-0.836c-0.168-0.667,0.351-2.022-0.278-2.23c-0.146-1.804-1.981-1.919-2.787-3.066
	c-0.252-0.491-0.623-0.863-1.114-1.115c-0.753-0.083-0.5-1.172-1.115-1.394c0-0.372,0-0.743,0-1.115c0-0.743,0-1.486,0-2.229
	C68.743,2.321,70.18,0.876,72.529,0.346z M85.071,12.609c-2.178-1.125-5.563-1.426-7.247-4.738c-1.14-2.242-0.901-5.093-3.902-5.017
	c-1.671,0.042-3.129,1.725-3.065,3.345c0.076,1.924,1.913,2.383,3.065,3.623c0.252,0.492,0.625,0.864,1.116,1.115
	c1.029,0.642,1.182,2.162,1.113,3.902c0.167,0.578-0.345,1.831,0.278,1.951c0.237,1.808,0.569,3.521,0.56,5.574
	c0.152,0.405-0.327,1.441,0.278,1.394c0.234,0.694,0.364,1.493,0.278,2.509c0.16,0.489-0.337,1.637,0.278,1.672
	c0,0.279,0,0.557,0,0.836c0,0.65,0,1.3,0,1.951c0,0.372,0,0.743,0,1.115c0.185,3.624-0.37,7.989,0.278,11.148
	c0,0.093,0,0.186,0,0.279c-0.46,0.48-0.46,2.864,0,3.344c0.423,2.939-0.599,4.291-1.392,6.132c-1.008,2.334-1.941,4.526-2.789,6.689
	c-0.475,1.215-0.673,2.508-1.114,3.624c-0.182,0.463-0.665,0.949-0.835,1.393c-0.267,0.685-0.318,1.335-0.559,1.951
	c-0.476,1.222-1.015,2.179-1.393,3.345c-0.83,2.54-1.004,5.164-1.951,7.525c-0.377,0.939-1.731,1.8-2.509,2.229
	c-1.917,1.058-4.411,1.571-6.689,2.51c-2.399,0.988-4.588,2.183-6.688,2.786c-0.741,0.188-1.419,0.439-1.952,0.837
	c-0.644,0.379-1.242,0.802-2.229,0.836c-0.836,0-1.672,0-2.508,0c-0.996-0.119-1.53-0.7-1.951-1.394
	c-0.905-1.139-1.928-2.16-3.066-3.065c-0.093,0-0.187,0-0.279,0c-0.734-0.289-0.939-1.106-1.672-1.394
	c-0.251-0.492-0.623-0.863-1.115-1.116c-1.413-0.816-2.461-2.368-4.181-3.064c-1.105-0.448-2.588-0.542-3.902-0.837
	c-0.971-0.217-1.855-0.349-2.788-0.557c-0.105-0.024-0.688-0.517-0.836-0.559c-1.275-0.351-2.587-0.494-3.902-0.835
	c-3.72-0.965-7.521-2.119-11.148-3.066C8.1,69.915,5.603,68.859,3.13,69.188c-0.436,0.972,0.296,1.999,1.115,2.508
	c0.251,0.49,0.623,0.863,1.115,1.114c0.44,0.676,0.997,1.232,1.672,1.672c0.533,0.768,1.184,1.419,1.951,1.952
	c1.742,1.974,3.6,3.832,5.575,5.574c2.114,1.694,3.738,3.88,5.853,5.573c0.657,0.086,0.519,0.969,1.394,0.837
	c0.269-0.567,1.07-0.603,1.951-0.559c0.464,0,0.929,0,1.394,0c1.572-0.177,2.181,0.607,3.066,1.116
	c0.252,0.491,0.623,0.862,1.115,1.114c0.119,0.531,0.796,0.505,0.558,1.394c0,0.929,0,1.858,0,2.787
	c0.013,0.85-0.253,1.42-0.836,1.673c-1.046,0.813-1.975,1.741-2.788,2.787c-0.491,0.251-0.862,0.623-1.114,1.114
	c0,0.279-0.227,0.332-0.279,0.559c-1.008,1.128-1.868,2.404-2.23,4.18c-0.632,0.297-0.106,1.752-0.278,2.509
	c-0.193,2.78-1.938,4.009-3.066,5.853c-0.509,0.42-0.655,1.202-1.115,1.672c-2.957,5.219-6.399,9.953-9.476,15.051
	c-0.458-0.045-0.458,1.718,0,1.673c1.297,1.876,3.462,0.533,5.295,0c0.942-0.274,1.995-0.51,3.066-0.837
	c0.839-0.256,2.335-0.49,3.065-0.836c1.062-0.501,1.618-1.305,2.508-1.672c0.404-0.168,0.569-0.331,1.394-0.279
	c1.054,0.065,1.374,0.731,2.229,1.394c2.402,1.858,4.397,3.563,6.411,5.295c1.384-0.586,2.187-1.968,3.065-3.064
	c0.933-1.164,1.835-2.417,2.788-3.624c0.95-1.203,2.265-2.744,2.787-3.902c0.037-0.082,0.488-0.188,0.558-0.278
	c0.224-0.292,0.354-0.853,0.557-1.115c0.468-0.604,1.191-1.057,1.672-1.672c0.916-1.171,1.62-2.482,2.509-3.623
	c0.959-1.23,2.049-2.16,3.066-3.345c0.928-1.081,1.813-2.455,2.787-3.624c1.691-2.029,3.628-3.633,4.181-6.409
	c3.268-3.237,5.956-7.05,9.197-10.312c0.583-0.347,1.048-0.812,1.395-1.395c0.491-0.252,0.861-0.623,1.114-1.115
	c1.981-1.55,3.876-3.185,6.411-4.18c0.711-0.125,1.279-0.391,1.67-0.837c3.156-1.709,7.427-2.177,11.706-1.394
	c-0.198,0.452,1.316,0.452,1.116,0c1.997-0.361,4.011-0.431,5.852-0.836c2.156-0.475,3.715-0.921,3.625-2.509
	c-0.076-1.327-2.545-2.147-3.344-2.508c-0.091-0.041-0.177-0.489-0.281-0.557c-0.126-0.087-0.414,0.063-0.557,0
	c-0.092-0.042-0.172-0.49-0.278-0.559c-0.629-0.407-1.557-0.275-1.673-1.114c-0.251-0.492-0.623-0.864-1.114-1.115
	c-1.018-1.025-1.723-2.364-1.673-4.46c0-2.508,0-5.016,0-7.524c0-1.022,0-2.044,0-3.066c-0.152-0.404,0.327-1.44-0.278-1.393
	c0-0.186,0-0.372,0-0.558c-0.166-0.578,0.345-1.831-0.278-1.951c-0.124-1.363-0.575-2.399-0.557-3.902c0-1.208,0-2.415,0-3.623
	c-0.038-1.153,0.633-1.596,1.113-2.23c1.976-1.742,3.833-3.6,5.576-5.574c0.951-0.72,1.787-1.556,2.508-2.509
	c0.014-0.356,0.356-0.386,0.278-0.836c0.459-0.124,0.459-2.105,0-2.23c0-0.464,0-0.929,0-1.393c0-0.372,0-0.743,0-1.116
	c-0.16-0.489,0.337-1.637-0.278-1.672c0-0.464,0-0.929,0-1.394c-0.176-0.847,0.356-2.401-0.278-2.787c0-0.465,0-0.929,0-1.394
	c-0.177-0.847,0.356-2.4-0.28-2.787c0-0.465,0-0.929,0-1.394c0-0.372,0-0.743,0-1.115c-0.047-0.417,0.1-1.028-0.278-1.115
	c-0.269-1.38-1.385-1.36-2.509-1.951c-0.815-0.428-1.486-1.042-2.229-1.393c-0.361-0.171-1.01-0.123-1.393-0.279
	c-1.216-0.494-2.376-1.562-3.624-1.951C86.556,13.354,85.916,12.879,85.071,12.609z"/>
<path fill-rule="evenodd" clip-rule="evenodd" fill="#D8D8D8" d="M88.695,48.842c0,1.208,0,2.415,0,3.623
	C88.232,51.894,88.232,49.413,88.695,48.842z"/>
<path fill-rule="evenodd" clip-rule="evenodd" fill="#D8D8D8" d="M2.573,66.4c0.39-0.462,2.675-0.462,3.065,0
	C4.617,66.4,3.594,66.4,2.573,66.4z"/>
<path fill-rule="evenodd" clip-rule="evenodd" fill="#D8D8D8" d="M101.236,79.779c0.463,0.39,0.463,2.675,0,3.064
	C101.236,81.822,101.236,80.801,101.236,79.779z"/>
<path fill-rule="evenodd" clip-rule="evenodd" fill="#D8D8D8" d="M20.131,103.19c-0.172,0.757,0.354,2.212-0.278,2.509
	C20.025,104.942,19.499,103.487,20.131,103.19z"/>
<path fill-rule="evenodd" clip-rule="evenodd" fill="#A7A7A7" d="M72.529,0.346c0.301-0.461,2.486-0.461,2.787,0
	C74.387,0.346,73.457,0.346,72.529,0.346z"/>
<path fill-rule="evenodd" clip-rule="evenodd" fill="#727272" d="M87.301,13.724c-0.093,0.698-0.549,1.37-0.836,1.951
	c-0.282,0.575-0.38,1.568-1.115,1.672c-0.712-0.124-1.28-0.391-1.673-0.836c0.351-1.3,1.719-2.831,1.395-3.902
	C85.916,12.879,86.556,13.354,87.301,13.724z"/>
<path fill-rule="evenodd" clip-rule="evenodd" fill="#727272" d="M97.334,22.922c0.637,0.386,0.104,1.939,0.28,2.787
	C96.978,25.322,97.51,23.769,97.334,22.922z"/>
<path fill-rule="evenodd" clip-rule="evenodd" fill="#727272" d="M97.614,27.103c0.635,0.386,0.103,1.939,0.278,2.787
	C97.256,29.503,97.788,27.949,97.614,27.103z"/>
<path fill-rule="evenodd" clip-rule="evenodd" fill="#727272" d="M50.232,85.632c0.532-0.397,1.211-0.648,1.952-0.837
	c-0.36,1.506,1.821,2.573,0,3.065C50.988,88.634,51.358,85.816,50.232,85.632z"/>
<path fill-rule="evenodd" clip-rule="evenodd" fill="#A7A7A7" d="M45.494,86.468c0.836,0,1.672,0,2.508,0
	C47.791,86.928,45.706,86.928,45.494,86.468z"/>
<path fill-rule="evenodd" clip-rule="evenodd" fill="#727272" d="M82.006,87.025c0.48-0.462,2.862-0.462,3.344,0
	C84.235,87.025,83.119,87.025,82.006,87.025z"/>
<path fill-rule="evenodd" clip-rule="evenodd" fill="#727272" d="M76.43,88.977c0.237-0.602,1.225-0.45,1.673-0.837
	c-0.779,1.054,0.898,1.574,0.558,3.066c-0.787-0.23-0.722,0.392-1.393,0.278C77.119,90.519,76.522,90,76.43,88.977z"/>
<path fill-rule="evenodd" clip-rule="evenodd" fill="#A7A7A7" d="M20.41,90.927c0.65,0,1.3,0,1.951,0
	C22.323,91.387,20.448,91.387,20.41,90.927z"/>
<path fill-rule="evenodd" clip-rule="evenodd" fill="#A7A7A7" d="M29.887,91.484c0.46,0.301,0.46,2.486,0,2.787
	C29.887,93.343,29.887,92.413,29.887,91.484z"/>
<path fill-rule="evenodd" clip-rule="evenodd" fill="#727272" d="M22.64,104.584c-0.172,0.756,0.354,2.212-0.278,2.509
	C22.534,106.336,22.008,104.881,22.64,104.584z"/>
<path fill-rule="evenodd" clip-rule="evenodd" fill="#727272" d="M68.349,4.806c0,0.743,0,1.486,0,2.229
	C67.888,6.911,67.888,4.929,68.349,4.806z"/>
<path fill-rule="evenodd" clip-rule="evenodd" fill="#727272" d="M77.824,28.775c0.623,0.12,0.112,1.373,0.278,1.951
	c-0.092,0-0.186,0-0.278,0C77.824,30.075,77.824,29.425,77.824,28.775z"/>
<path fill-rule="evenodd" clip-rule="evenodd" fill="#727272" d="M92.039,57.203c0.623,0.12,0.114,1.373,0.278,1.951
	c-0.093,0-0.187,0-0.278,0C92.039,58.504,92.039,57.854,92.039,57.203z"/>
<path fill-rule="evenodd" clip-rule="evenodd" fill="#727272" d="M9.541,134.964c0.743,0,1.486,0,2.229,0
	C11.646,135.424,9.664,135.424,9.541,134.964z"/>
</svg>
