<?xml version="1.0" encoding="utf-8"?>
<!-- Generator: Adobe Illustrator 15.0.0, SVG Export Plug-In  -->
<!DOCTYPE svg PUBLIC "-//W3C//DTD SVG 1.1//EN" "http://www.w3.org/Graphics/SVG/1.1/DTD/svg11.dtd" [
	<!ENTITY ns_flows "http://ns.adobe.com/Flows/1.0/">
]>
<svg version="1.1"
	 xmlns="http://www.w3.org/2000/svg" xmlns:xlink="http://www.w3.org/1999/xlink" xmlns:a="http://ns.adobe.com/AdobeSVGViewerExtensions/3.0/"
	 x="0px" y="0px" width="142px" height="142px" viewBox="-18.624 -2.328 142 142" enable-background="new -18.624 -2.328 142 142"
	 xml:space="preserve">
<defs>
</defs>
<path fill-rule="evenodd" clip-rule="evenodd" fill="#1A1A1A" d="M72.515,0.303c0.086-0.378,0.697-0.231,1.114-0.278
	C73.578,0.437,72.957,0.28,72.515,0.303z"/>
<path fill-rule="evenodd" clip-rule="evenodd" fill="#1A1A1A" d="M68.334,4.763c0,0.836,0,1.672,0,2.508
	C67.874,7.059,67.874,4.974,68.334,4.763z"/>
<path fill-rule="evenodd" clip-rule="evenodd" fill="#1A1A1A" d="M73.351,14.239c0.615,0.034,0.118,1.182,0.278,1.672
	C73.014,15.876,73.511,14.729,73.351,14.239z"/>
<path fill-rule="evenodd" clip-rule="evenodd" fill="#1A1A1A" d="M76.137,14.796c0.605-0.047,0.127,0.989,0.278,1.394
	C75.813,16.236,76.292,15.201,76.137,14.796z"/>
<path fill-rule="evenodd" clip-rule="evenodd" fill="#1A1A1A" d="M73.629,17.304c0.604-0.047,0.126,0.989,0.278,1.394
	C73.305,18.745,73.782,17.709,73.629,17.304z"/>
<path fill-rule="evenodd" clip-rule="evenodd" fill="#1A1A1A" d="M76.416,17.583c0.605-0.047,0.127,0.988,0.281,1.393
	C76.091,19.024,76.57,17.988,76.416,17.583z"/>
<path fill-rule="evenodd" clip-rule="evenodd" fill="#1A1A1A" d="M97.042,19.534c0.629,0.207,0.109,1.563,0.278,2.229
	C96.693,21.556,97.211,20.2,97.042,19.534z"/>
<path fill-rule="evenodd" clip-rule="evenodd" fill="#1A1A1A" d="M73.908,19.813c0.413,0.052,0.257,0.674,0.28,1.115
	C73.809,20.841,73.956,20.23,73.908,19.813z"/>
<path fill-rule="evenodd" clip-rule="evenodd" fill="#1A1A1A" d="M76.697,20.091c0.412,0.052,0.254,0.673,0.278,1.115
	C76.562,21.155,76.718,20.533,76.697,20.091z"/>
<path fill-rule="evenodd" clip-rule="evenodd" fill="#1A1A1A" d="M99.828,20.091c0.629,0.208,0.11,1.563,0.28,2.229
	C99.479,22.113,99.999,20.758,99.828,20.091z"/>
<path fill-rule="evenodd" clip-rule="evenodd" fill="#1A1A1A" d="M76.975,22.042c0.412,0.051,0.254,0.673,0.278,1.115
	C76.84,23.105,76.997,22.483,76.975,22.042z"/>
<path fill-rule="evenodd" clip-rule="evenodd" fill="#1A1A1A" d="M97.32,23.715c0.629,0.208,0.11,1.563,0.28,2.229
	C96.971,25.737,97.49,24.381,97.32,23.715z"/>
<path fill-rule="evenodd" clip-rule="evenodd" fill="#1A1A1A" d="M74.466,23.994c0.413,0.052,0.255,0.673,0.279,1.115
	C74.367,25.022,74.513,24.41,74.466,23.994z"/>
<path fill-rule="evenodd" clip-rule="evenodd" fill="#1A1A1A" d="M100.108,24.272c0.627,0.208,0.108,1.563,0.278,2.23
	C99.757,26.294,100.277,24.939,100.108,24.272z"/>
<path fill-rule="evenodd" clip-rule="evenodd" fill="#1A1A1A" d="M74.746,26.224c0.412,0.051,0.254,0.673,0.278,1.114
	C74.645,27.251,74.792,26.64,74.746,26.224z"/>
<path fill-rule="evenodd" clip-rule="evenodd" fill="#1A1A1A" d="M77.532,26.224c0.413,0.051,0.255,0.673,0.278,1.114
	C77.398,27.286,77.556,26.665,77.532,26.224z"/>
<path fill-rule="evenodd" clip-rule="evenodd" fill="#1A1A1A" d="M97.6,27.896c0.623,0.12,0.112,1.374,0.278,1.951
	C97.253,29.727,97.764,28.473,97.6,27.896z"/>
<path fill-rule="evenodd" clip-rule="evenodd" fill="#1A1A1A" d="M75.024,28.453c0.614,0.035,0.118,1.183,0.278,1.672
	C74.687,30.09,75.184,28.942,75.024,28.453z"/>
<path fill-rule="evenodd" clip-rule="evenodd" fill="#1A1A1A" d="M100.386,28.453c0.628,0.208,0.108,1.564,0.279,2.23
	C100.036,30.475,100.557,29.119,100.386,28.453z"/>
<path fill-rule="evenodd" clip-rule="evenodd" fill="#1A1A1A" d="M77.81,28.732c0.623,0.12,0.112,1.373,0.278,1.951
	C77.465,30.563,77.977,29.309,77.81,28.732z"/>
<path fill-rule="evenodd" clip-rule="evenodd" fill="#1A1A1A" d="M97.878,32.076c0.623,0.121,0.112,1.374,0.278,1.952
	C97.534,33.907,98.042,32.653,97.878,32.076z"/>
<path fill-rule="evenodd" clip-rule="evenodd" fill="#1A1A1A" d="M100.666,32.633c0.627,0.208,0.107,1.563,0.278,2.23
	C100.315,34.656,100.835,33.3,100.666,32.633z"/>
<path fill-rule="evenodd" clip-rule="evenodd" fill="#1A1A1A" d="M75.302,32.912c0.465,3.161,0.465,8.267,0,11.428
	C75.302,40.53,75.302,36.721,75.302,32.912z"/>
<path fill-rule="evenodd" clip-rule="evenodd" fill="#1A1A1A" d="M98.157,35.978c0.459,0.038,0.459,1.913,0,1.951
	C98.157,37.279,98.157,36.628,98.157,35.978z"/>
<path fill-rule="evenodd" clip-rule="evenodd" fill="#1A1A1A" d="M100.944,36.814c0.455-0.125,0.455,1.52,0,1.394
	C100.944,37.744,100.944,37.279,100.944,36.814z"/>
<path fill-rule="evenodd" clip-rule="evenodd" fill="#1A1A1A" d="M75.302,45.733c0.461,0.3,0.461,2.486,0,2.788
	C75.302,47.591,75.302,46.662,75.302,45.733z"/>
<path fill-rule="evenodd" clip-rule="evenodd" fill="#1A1A1A" d="M88.403,51.307c0.412,0.052,0.254,0.674,0.278,1.115
	C88.268,52.37,88.424,51.749,88.403,51.307z"/>
<path fill-rule="evenodd" clip-rule="evenodd" fill="#1A1A1A" d="M91.746,54.652c0.379,0.086,0.232,0.698,0.279,1.115
	C91.612,55.715,91.77,55.093,91.746,54.652z"/>
<path fill-rule="evenodd" clip-rule="evenodd" fill="#1A1A1A" d="M89.238,56.603c0.615,0.035,0.118,1.183,0.278,1.672
	C88.901,58.24,89.398,57.093,89.238,56.603z"/>
<path fill-rule="evenodd" clip-rule="evenodd" fill="#1A1A1A" d="M92.025,57.16c0.629,0.207,0.107,1.563,0.278,2.229
	C91.676,59.183,92.195,57.827,92.025,57.16z"/>
<path fill-rule="evenodd" clip-rule="evenodd" fill="#1A1A1A" d="M92.303,64.964c0,1.021,0,2.044,0,3.066
	C91.842,67.64,91.842,65.354,92.303,64.964z"/>
<path fill-rule="evenodd" clip-rule="evenodd" fill="#1A1A1A" d="M89.516,69.423c0.605-0.047,0.126,0.989,0.278,1.393
	C89.19,70.864,89.668,69.828,89.516,69.423z"/>
<path fill-rule="evenodd" clip-rule="evenodd" fill="#1A1A1A" d="M92.303,69.98c0.378,0.087,0.232,0.698,0.278,1.116
	C92.168,71.044,92.327,70.422,92.303,69.98z"/>
<path fill-rule="evenodd" clip-rule="evenodd" fill="#323232" d="M77.532,75.276c0-0.093,0-0.186,0-0.278c3.159,0,6.316,0,9.477,0
	c0,0.093,0,0.186,0,0.278C83.848,75.276,80.691,75.276,77.532,75.276z"/>
<path fill-rule="evenodd" clip-rule="evenodd" fill="#797979" d="M87.008,75.276c0-0.093,0-0.186,0-0.278c0.557,0,1.113,0,1.673,0
	c0,0.093,0,0.186,0,0.278C88.122,75.276,87.565,75.276,87.008,75.276z"/>
<path fill-rule="evenodd" clip-rule="evenodd" fill="#C6C6C6" d="M88.681,75.276c0-0.093,0-0.186,0-0.278c0.557,0,1.113,0,1.671,0
	C90.318,75.614,89.169,75.116,88.681,75.276z"/>
<path fill-rule="evenodd" clip-rule="evenodd" fill="#797979" d="M71.958,75.555c0-0.093,0-0.186,0-0.278c0.465,0,0.928,0,1.393,0
	c0,0.093,0,0.186,0,0.278C72.886,75.555,72.423,75.555,71.958,75.555z"/>
<path fill-rule="evenodd" clip-rule="evenodd" fill="#C6C6C6" d="M73.351,75.555c0-0.093,0-0.186,0-0.278c0.465,0,0.93,0,1.395,0
	C74.792,75.882,73.755,75.402,73.351,75.555z"/>
<path fill-rule="evenodd" clip-rule="evenodd" fill="#C6C6C6" d="M63.596,76.392c0.465,0,0.93,0,1.395,0
	C65.115,76.847,63.47,76.847,63.596,76.392z"/>
<path fill-rule="evenodd" clip-rule="evenodd" fill="#C6C6C6" d="M88.122,77.784c0.087-0.378,0.699-0.229,1.116-0.278
	c0,0.094,0,0.186,0,0.278C88.865,77.784,88.495,77.784,88.122,77.784z"/>
<path fill-rule="evenodd" clip-rule="evenodd" fill="#797979" d="M89.238,77.784c0-0.093,0-0.185,0-0.278c0.651,0,1.3,0,1.951,0
	c0,0.094,0,0.186,0,0.278C90.538,77.784,89.889,77.784,89.238,77.784z"/>
<path fill-rule="evenodd" clip-rule="evenodd" fill="#C6C6C6" d="M72.515,78.064c-0.048-0.605,0.988-0.128,1.393-0.28
	c0,0.094,0,0.187,0,0.28C73.443,78.064,72.98,78.064,72.515,78.064z"/>
<path fill-rule="evenodd" clip-rule="evenodd" fill="#797979" d="M73.908,78.064c0-0.094,0-0.187,0-0.28c0.465,0,0.93,0,1.395,0
	c0,0.094,0,0.187,0,0.28C74.837,78.064,74.373,78.064,73.908,78.064z"/>
<path fill-rule="evenodd" clip-rule="evenodd" fill="#323232" d="M75.302,78.064c0-0.094,0-0.187,0-0.28c1.113,0,2.229,0,3.344,0
	c0,0.094,0,0.187,0,0.28C77.532,78.064,76.416,78.064,75.302,78.064z"/>
<path fill-rule="evenodd" clip-rule="evenodd" fill="#1A1A1A" d="M78.646,78.064c0-0.094,0-0.187,0-0.28c0.745,0,1.486,0,2.229,0
	C80.669,78.413,79.313,77.894,78.646,78.064z"/>
<path fill-rule="evenodd" clip-rule="evenodd" fill="#1A1A1A" d="M82.27,77.784c1.578,0,3.159,0,4.738,0
	C86.071,78.247,83.208,78.247,82.27,77.784z"/>
<path fill-rule="evenodd" clip-rule="evenodd" fill="#797979" d="M14.543,81.408c1.096-0.67,1.691-1.84,2.787-2.509
	c0.647,0.188,0.746,0.927,1.394,1.115c-0.763,1.188-2.024,1.877-2.787,3.066c-0.675-0.44-1.232-0.998-1.672-1.673
	C14.357,81.408,14.45,81.408,14.543,81.408z"/>
<path fill-rule="evenodd" clip-rule="evenodd" fill="#1A1A1A" d="M83.384,84.195c-0.199-0.452,1.313-0.452,1.115,0
	C84.127,84.195,83.756,84.195,83.384,84.195z"/>
<path fill-rule="evenodd" clip-rule="evenodd" fill="#1A1A1A" d="M85.614,84.195c0.419,0.047,1.029-0.1,1.116,0.278
	C86.313,84.426,85.7,84.573,85.614,84.195z"/>
<path fill-rule="evenodd" clip-rule="evenodd" fill="#1A1A1A" d="M87.565,84.474c0.743,0,1.486,0,2.229,0
	C89.67,84.934,87.689,84.934,87.565,84.474z"/>
<path fill-rule="evenodd" clip-rule="evenodd" fill="#797979" d="M44.644,85.31c0.372,0,0.743,0,1.114,0
	C45.958,85.762,44.444,85.762,44.644,85.31z"/>
<path fill-rule="evenodd" clip-rule="evenodd" fill="#797979" d="M102.057,85.867c0.379,0.086,0.232,0.698,0.281,1.115
	c-0.095,0-0.187,0-0.281,0C102.057,86.61,102.057,86.239,102.057,85.867z"/>
<path fill-rule="evenodd" clip-rule="evenodd" fill="#1A1A1A" d="M82.548,86.982c0.213-0.461,2.296-0.461,2.509,0
	C84.221,86.982,83.384,86.982,82.548,86.982z"/>
<path fill-rule="evenodd" clip-rule="evenodd" fill="#323232" d="M102.057,86.982c0.095,0,0.187,0,0.281,0c0,0.371,0,0.743,0,1.114
	c-0.095,0-0.187,0-0.281,0C102.057,87.726,102.057,87.354,102.057,86.982z"/>
<path fill-rule="evenodd" clip-rule="evenodd" fill="#1A1A1A" d="M87.843,87.261c0.56,0,1.116,0,1.673,0
	C89.562,87.719,87.799,87.719,87.843,87.261z"/>
<path fill-rule="evenodd" clip-rule="evenodd" fill="#1A1A1A" d="M23.74,87.817c-0.125-0.454,1.52-0.454,1.394,0
	C24.669,87.817,24.205,87.817,23.74,87.817z"/>
<path fill-rule="evenodd" clip-rule="evenodd" fill="#1A1A1A" d="M102.057,88.097c0.095,0,0.187,0,0.281,0c0,0.465,0,0.929,0,1.394
	C101.733,89.537,102.209,88.502,102.057,88.097z"/>
<path fill-rule="evenodd" clip-rule="evenodd" fill="#797979" d="M104.846,89.49c0.092,0,0.185,0,0.278,0c0,0.65,0,1.302,0,1.951
	c-0.094,0-0.187,0-0.278,0C104.846,90.792,104.846,90.141,104.846,89.49z"/>
<path fill-rule="evenodd" clip-rule="evenodd" fill="#C6C6C6" d="M102.338,90.327c0.627,0.207,0.107,1.563,0.278,2.229
	c-0.095,0-0.187,0-0.278,0C102.338,91.813,102.338,91.07,102.338,90.327z"/>
<path fill-rule="evenodd" clip-rule="evenodd" fill="#C6C6C6" d="M104.846,91.441c0.092,0,0.185,0,0.278,0c0,0.836,0,1.672,0,2.509
	C104.492,93.653,105.019,92.198,104.846,91.441z"/>
<path fill-rule="evenodd" clip-rule="evenodd" fill="#797979" d="M102.338,92.557c0.092,0,0.184,0,0.278,0c0,0.837,0,1.672,0,2.509
	c-0.095,0-0.187,0-0.278,0C102.338,94.229,102.338,93.394,102.338,92.557z"/>
<path fill-rule="evenodd" clip-rule="evenodd" fill="#323232" d="M102.338,95.065c0.092,0,0.184,0,0.278,0c0,0.743,0,1.486,0,2.229
	c-0.095,0-0.187,0-0.278,0C102.338,96.552,102.338,95.809,102.338,95.065z"/>
<path fill-rule="evenodd" clip-rule="evenodd" fill="#797979" d="M102.338,97.295c0.092,0,0.184,0,0.278,0
	c-0.181,1.122,0.362,2.964-0.278,3.623C102.338,99.71,102.338,98.502,102.338,97.295z"/>
<path fill-rule="evenodd" clip-rule="evenodd" fill="#C6C6C6" d="M105.125,98.409c0,0.465,0,0.929,0,1.394
	C104.668,99.928,104.668,98.284,105.125,98.409z"/>
<path fill-rule="evenodd" clip-rule="evenodd" fill="#1A1A1A" d="M99.271,104.819c0-0.093,0-0.187,0-0.278c0.372,0,0.743,0,1.115,0
	C100.3,104.92,99.688,104.772,99.271,104.819z"/>
<path fill-rule="evenodd" clip-rule="evenodd" fill="#C6C6C6" d="M19.839,105.098c0.093,0,0.185,0,0.278,0
	c-0.16,0.49,0.337,1.638-0.278,1.673C19.839,106.213,19.839,105.656,19.839,105.098z"/>
<path fill-rule="evenodd" clip-rule="evenodd" fill="#797979" d="M63.318,127.674c0.2,0.452-1.314,0.452-1.116,0
	C62.575,127.674,62.945,127.674,63.318,127.674z"/>
<path fill-rule="evenodd" clip-rule="evenodd" fill="#1A1A1A" d="M31.823,136.871c0.417,0.048,1.029-0.1,1.115,0.279
	C32.497,137.127,31.875,137.285,31.823,136.871z"/>
<path fill-rule="evenodd" clip-rule="evenodd" fill="#1A1A1A" d="M69.169,2.533c0.347-0.583,0.812-1.047,1.395-1.394
	C70.217,1.722,69.752,2.187,69.169,2.533z"/>
<path fill-rule="evenodd" clip-rule="evenodd" fill="#1A1A1A" d="M42.972,80.851c1.034,0.359,1.035,1.752,2.508,1.672
	C44.434,83.277,43.607,81.433,42.972,80.851z"/>
<path fill-rule="evenodd" clip-rule="evenodd" fill="#323232" d="M41.857,79.736c0.491,0.251,0.863,0.623,1.115,1.114
	C42.48,80.599,42.108,80.227,41.857,79.736z"/>
<path fill-rule="evenodd" clip-rule="evenodd" fill="#C6C6C6" d="M37.955,76.392c0.611,0.597,1.548,0.867,1.951,1.673
	C39.213,77.548,38.333,77.221,37.955,76.392z"/>
<path fill-rule="evenodd" clip-rule="evenodd" fill="#323232" d="M0.886,67.751c0.252-0.491,0.624-0.863,1.115-1.115
	C2.44,66.562,0.812,68.19,0.886,67.751z"/>
<path fill-rule="evenodd" clip-rule="evenodd" fill="#323232" d="M0.886,71.932c0.904,1.047,1.927,1.976,2.787,3.066
	C2.667,74.053,1.428,73.341,0.886,71.932z"/>
<path fill-rule="evenodd" clip-rule="evenodd" fill="#1A1A1A" d="M3.673,74.998c0.093,0,0.186,0,0.278,0
	c0.189,0.646,0.927,0.746,1.115,1.394C4.484,76.046,4.02,75.581,3.673,74.998z"/>
<path fill-rule="evenodd" clip-rule="evenodd" fill="#C6C6C6" d="M5.067,76.392c-0.188-0.647-0.926-0.747-1.115-1.394
	c0.861,0.626,1.604,1.369,2.23,2.229C5.614,77.146,5.635,76.474,5.067,76.392z"/>
<path fill-rule="evenodd" clip-rule="evenodd" fill="#797979" d="M6.182,77.228c1.603,1.37,3.089,2.856,4.459,4.459
	C9.039,80.316,7.552,78.83,6.182,77.228z"/>
<path fill-rule="evenodd" clip-rule="evenodd" fill="#323232" d="M11.199,82.244c0.491,0.251,0.863,0.624,1.115,1.115
	C11.822,83.107,11.45,82.735,11.199,82.244z"/>
<path fill-rule="evenodd" clip-rule="evenodd" fill="#323232" d="M10.362,87.261c-0.366-0.099-0.438-0.491-0.836-0.557
	c0.542-1.41,1.781-2.121,2.787-3.066c-0.669,1.096-1.839,1.69-2.509,2.787C9.903,86.791,10.295,86.863,10.362,87.261z"/>
<path fill-rule="evenodd" clip-rule="evenodd" fill="#797979" d="M11.199,87.817c-0.477,0.014-0.722-0.206-0.836-0.557
	c-0.067-0.397-0.459-0.47-0.558-0.836c0.669-1.097,1.84-1.691,2.509-2.787c0-0.093,0-0.186,0-0.278
	c0.675,0.439,1.232,0.996,1.672,1.672C12.939,85.844,12.011,86.772,11.199,87.817z"/>
<path fill-rule="evenodd" clip-rule="evenodd" fill="#1A1A1A" d="M11.199,87.817c0.813-1.045,1.741-1.974,2.787-2.786
	c0,0.093,0,0.186,0,0.278C12.89,85.979,12.295,87.149,11.199,87.817z"/>
<path fill-rule="evenodd" clip-rule="evenodd" fill="#323232" d="M13.985,85.31c0-0.093,0-0.186,0-0.278
	c1.789,1.557,3.461,3.229,5.017,5.017C17.167,88.633,15.822,86.726,13.985,85.31z"/>
<path fill-rule="evenodd" clip-rule="evenodd" fill="#323232" d="M24.855,95.901c0.439-0.676,0.997-1.233,1.672-1.673
	C26.088,94.903,25.53,95.462,24.855,95.901z"/>
<path fill-rule="evenodd" clip-rule="evenodd" fill="#323232" d="M18.445,109.279c0.28-0.371,0.264-1.037,0.836-1.115
	c0.203,0.761-0.554,0.562-0.558,1.115C18.631,109.279,18.538,109.279,18.445,109.279z"/>
<path fill-rule="evenodd" clip-rule="evenodd" fill="#323232" d="M6.46,133.249c0.492,0.251,0.863,0.623,1.115,1.113
	C7.083,134.111,6.712,133.739,6.46,133.249z"/>
<path fill-rule="evenodd" clip-rule="evenodd" fill="#323232" d="M22.905,133.527c0.412,0.322,0.703,0.322,1.114,0
	c-0.078,0.646-0.744,0.64-1.114,0.278C22.905,133.713,22.905,133.619,22.905,133.527z"/>
<path fill-rule="evenodd" clip-rule="evenodd" fill="#797979" d="M23.183,131.298c0.258,0.532,2.197,1.881,0.836,2.229
	c-0.412,0.322-0.702,0.322-1.114,0c-0.516-0.413-0.418-1.441-1.394-1.395c0.22-0.616,0.975-0.697,1.394-1.113
	C22.853,131.256,23.013,131.281,23.183,131.298z"/>
<path fill-rule="evenodd" clip-rule="evenodd" fill="#323232" d="M22.905,131.02c0.729-0.944,1.577-1.769,2.229-2.788
	c0.093,0,0.186,0,0.278,0c0.252,0.492,0.623,0.863,1.115,1.115c1.028,0.273,1.381,1.22,2.229,1.673
	c0.347,0.581,0.811,1.046,1.394,1.393c0.951,0.535,1.703,1.27,2.508,1.95c1.476-0.664,2.407-2.14,3.345-3.343
	c2.665-3.423,5.498-7.291,8.362-10.871c1.218-0.366,3.12-1.516,4.459-0.836c-2.426,2.556-4.579,5.771-7.247,9.197
	c-0.535,0.688-1.263,1.345-1.951,2.229c-0.577,0.743-1.042,1.735-1.672,2.51c-0.272,0.333-0.781,0.715-1.114,1.113
	c-0.887,1.062-2.023,2.799-3.902,2.788c-0.086-0.379-0.698-0.231-1.115-0.279c-1.652-0.392-2.394-1.693-3.623-2.509
	c-0.44-0.675-0.998-1.231-1.673-1.672c-1.339-0.31-2.1-2.448-3.344-1.951c0,0.187,0,0.372,0,0.559
	C23.013,131.281,22.853,131.256,22.905,131.02z"/>
<path fill-rule="evenodd" clip-rule="evenodd" fill="#1A1A1A" d="M26.527,132.69c0.675,0.44,1.233,0.997,1.673,1.672
	C27.525,133.923,26.967,133.366,26.527,132.69z"/>
<path fill-rule="evenodd" clip-rule="evenodd" fill="#323232" d="M49.103,119.313c1.231,0.998,2.346,2.113,3.345,3.345
	C51.216,121.659,50.102,120.544,49.103,119.313z"/>
<path fill-rule="evenodd" clip-rule="evenodd" fill="#323232" d="M53.284,123.493c0.767,0.533,1.418,1.184,1.95,1.951
	C54.467,124.912,53.817,124.261,53.284,123.493z"/>
<path fill-rule="evenodd" clip-rule="evenodd" fill="#1A1A1A" d="M55.234,125.444c1.006,0.575,1.505,1.654,2.511,2.229
	c0.08,0.568,0.753,0.547,0.835,1.115C57.347,127.791,56.234,126.676,55.234,125.444z"/>
<path fill-rule="evenodd" clip-rule="evenodd" fill="#C6C6C6" d="M58.58,128.789c-0.082-0.568-0.755-0.547-0.835-1.115
	c0.581,0.346,1.048,0.811,1.392,1.394C58.911,129.015,58.858,128.788,58.58,128.789z"/>
<path fill-rule="evenodd" clip-rule="evenodd" fill="#1A1A1A" d="M66.104,129.347c0.253-0.491,0.623-0.864,1.116-1.115
	C66.968,128.724,66.595,129.095,66.104,129.347z"/>
<path fill-rule="evenodd" clip-rule="evenodd" fill="#C6C6C6" d="M65.826,129.347c0.439-0.676,0.998-1.233,1.673-1.673
	c-0.054,0.226-0.28,0.278-0.278,0.558c-0.493,0.251-0.863,0.624-1.116,1.115C66.012,129.347,65.918,129.347,65.826,129.347z"/>
<path fill-rule="evenodd" clip-rule="evenodd" fill="#323232" d="M71.68,122.937c0.25-0.492,0.623-0.863,1.113-1.115
	C72.542,122.313,72.17,122.684,71.68,122.937z"/>
<path fill-rule="evenodd" clip-rule="evenodd" fill="#1A1A1A" d="M72.793,121.542c0.676-0.438,1.232-0.997,1.673-1.672
	c0.093,0,0.187,0,0.279,0c-0.533,0.768-1.185,1.418-1.952,1.951C72.793,121.729,72.793,121.635,72.793,121.542z"/>
<path fill-rule="evenodd" clip-rule="evenodd" fill="#323232" d="M78.368,116.804c0.627-0.859,1.37-1.603,2.229-2.229
	C79.972,115.436,79.229,116.178,78.368,116.804z"/>
<path fill-rule="evenodd" clip-rule="evenodd" fill="#1A1A1A" d="M80.597,114.296c0.569-0.082,0.547-0.755,1.116-0.836
	c-0.253,0.491-0.625,0.862-1.116,1.114C80.597,114.482,80.597,114.389,80.597,114.296z"/>
<path fill-rule="evenodd" clip-rule="evenodd" fill="#C6C6C6" d="M80.597,114.296c0.44-0.676,0.998-1.233,1.673-1.672
	c-0.099,0.365-0.491,0.438-0.557,0.836C81.144,113.541,81.167,114.214,80.597,114.296z"/>
<path fill-rule="evenodd" clip-rule="evenodd" fill="#797979" d="M84.5,110.673c-0.202,1.595,1.595,1.192,1.393,2.787
	c-0.529,0.119-0.699,0.601-1.393,0.558c-0.038-1.078-1.13-1.101-1.395-1.952c0-0.092,0-0.185,0-0.278
	C83.752,111.599,83.853,110.861,84.5,110.673z"/>
<path fill-rule="evenodd" clip-rule="evenodd" fill="#797979" d="M103.452,103.705c0.253-0.491,0.623-0.863,1.116-1.115
	C104.315,103.082,103.943,103.453,103.452,103.705z"/>
<path fill-rule="evenodd" clip-rule="evenodd" fill="#C6C6C6" d="M101.222,79.178c0.583,0.347,1.048,0.811,1.395,1.395
	C102.034,80.226,101.569,79.762,101.222,79.178z"/>
<path fill-rule="evenodd" clip-rule="evenodd" fill="#323232" d="M99.271,77.506c0.37,0.279,1.037,0.264,1.115,0.837
	c-0.412-0.146-0.703-0.413-1.115-0.559C99.271,77.691,99.271,77.6,99.271,77.506z"/>
<path fill-rule="evenodd" clip-rule="evenodd" fill="#1A1A1A" d="M95.649,44.618c1.368-1.603,2.854-3.089,4.459-4.459
	C98.738,41.761,97.251,43.248,95.649,44.618z"/>
<path fill-rule="evenodd" clip-rule="evenodd" fill="#1A1A1A" d="M97.878,15.632c0.491,0.252,0.861,0.624,1.114,1.115
	C98.501,16.496,98.128,16.124,97.878,15.632z"/>
<path fill-rule="evenodd" clip-rule="evenodd" fill="#1A1A1A" d="M77.532,1.139c0.491,0.251,0.863,0.623,1.114,1.115
	C78.155,2.002,77.785,1.631,77.532,1.139z"/>
<path fill-rule="evenodd" clip-rule="evenodd" fill="#323232" d="M73.629,0.024c1.843-0.171,2.753,0.592,3.902,1.115
	c0.253,0.492,0.623,0.863,1.114,1.115c1.08,1.243,1.412,3.234,1.951,5.017c5.521,3.026,11.676,5.42,17.281,8.361
	c0.25,0.492,0.623,0.864,1.114,1.115c0.326,0.417,0.347,1.14,0.835,1.394c0,0.65,0,1.3,0,1.951c0.171,0.667-0.349,2.022,0.28,2.229
	c0,0.65,0,1.301,0,1.951c0.169,0.667-0.351,2.022,0.278,2.23c0,0.65,0,1.301,0,1.951c0.171,0.667-0.351,2.022,0.279,2.23
	c0,0.65,0,1.301,0,1.951c0.17,0.667-0.351,2.022,0.278,2.23c0,0.65,0,1.301,0,1.951c0,0.465,0,0.93,0,1.394
	c0.122,1.052-0.549,1.308-0.836,1.951c-1.604,1.37-3.091,2.856-4.459,4.459c-0.689,0.656-1.691,1.334-2.509,2.229
	c-0.705,0.771-1.753,1.811-1.951,2.787c-0.324,1.592,0.621,2.924,0.557,5.017c0.024,0.441-0.134,1.063,0.279,1.115
	c0,0.464,0,0.929,0,1.394c0.17,0.667-0.349,2.022,0.278,2.229c0,1.858,0,3.716,0,5.574c-0.461,0.391-0.461,2.676,0,3.066
	c0,0.65,0,1.301,0,1.951c0.023,0.441-0.135,1.063,0.278,1.116c0.25,2.814,2.553,3.58,4.181,5.016
	c-0.839-0.298-1.44-0.921-2.508-1.114c-0.994-0.181-2.107,0.128-3.344,0c-0.32-1.446-1.354-2.177-1.116-4.182
	c-0.152-0.404,0.327-1.44-0.278-1.393c0-3.716,0-7.432,0-11.148c-0.16-0.49,0.337-1.638-0.278-1.672
	c-0.032-1.547-0.593-2.565-0.557-4.181c-0.024-0.441,0.134-1.063-0.278-1.115c-0.175-2.031,0.248-3.466,1.113-4.459
	c0.491-0.252,0.863-0.623,1.116-1.115c0.25-0.492,0.623-0.863,1.113-1.115c2.254-2.021,4.39-4.158,6.411-6.41
	c0-0.093,0-0.186,0-0.279c0.459-0.038,0.459-1.913,0-1.951c0-0.65,0-1.301,0-1.951c-0.166-0.578,0.345-1.831-0.278-1.952
	c0-0.743,0-1.486,0-2.229c-0.166-0.577,0.345-1.831-0.278-1.951c0-0.65,0-1.301,0-1.951c-0.17-0.667,0.349-2.022-0.28-2.229
	c0-0.651,0-1.301,0-1.951c-0.169-0.667,0.351-2.022-0.278-2.229c-0.161-1.672-3.681-3.109-6.131-4.181
	c-0.968-0.423-2.366-1.087-3.624-1.672c-3.938-1.833-7.715-2.845-9.198-5.295c-1.09-1.802-0.665-3.857-2.508-5.017
	c-1.833-1.154-4.864,0.027-4.738,2.787c0.118,2.591,4.163,3.231,5.017,5.853c0.261,0.801,0.345,1.483,0.278,2.787
	c0.154,0.405-0.324,1.44,0.278,1.394c0,0.465,0,0.929,0,1.394c0.154,0.404-0.324,1.44,0.281,1.393c0,0.372,0,0.743,0,1.115
	c0.021,0.441-0.135,1.063,0.278,1.115c0,0.278,0,0.557,0,0.836c0.021,0.441-0.135,1.063,0.278,1.115
	c-0.036,1.15,0.484,1.746,0.278,3.066c0.024,0.441-0.134,1.063,0.278,1.114c0,0.465,0,0.929,0,1.394
	c0.167,0.577-0.345,1.831,0.278,1.951c0,3.375,0,6.479,0,9.476c0,3.185,0.529,6.546,0,9.476c-0.178,0.988-0.905,2.231-1.392,3.345
	c-3.02,6.907-6.235,14.841-8.362,22.854c-0.861,0.347-1.981,0.434-3.065,0.558c2.352-10.283,6.569-18.7,10.033-27.871
	c0.461-0.301,0.461-2.487,0-2.788c0-0.464,0-0.929,0-1.394c0.465-3.161,0.465-8.267,0-11.428c0-0.928,0-1.857,0-2.787
	c-0.16-0.49,0.336-1.638-0.278-1.672c0-0.372,0-0.743,0-1.115c-0.024-0.441,0.134-1.063-0.278-1.114c0-0.372,0-0.744,0-1.115
	c-0.024-0.441,0.134-1.063-0.279-1.115c0.034-1.15-0.484-1.746-0.278-3.066c-0.023-0.441,0.133-1.063-0.28-1.115
	c0-0.372,0-0.743,0-1.114c-0.152-0.405,0.326-1.441-0.278-1.394c0-0.464,0-0.929,0-1.393c-0.16-0.49,0.337-1.638-0.278-1.672
	c-0.339-3.655-4.807-3.184-5.017-6.968c0-0.835,0-1.672,0-2.508c-0.01-1.033,0.429-1.616,0.835-2.23
	c0.583-0.346,1.048-0.811,1.395-1.394c0.644-0.287,0.899-0.959,1.951-0.836C72.957,0.28,73.578,0.437,73.629,0.024z"/>
<path fill-rule="evenodd" clip-rule="evenodd" fill="#1A1A1A" d="M89.516,46.848c0.253-0.492,0.623-0.863,1.116-1.115
	C90.379,46.225,90.007,46.596,89.516,46.848z"/>
<path fill-rule="evenodd" clip-rule="evenodd" fill="#1A1A1A" d="M91.746,44.618c2.021-2.253,4.157-4.39,6.411-6.41
	C96.135,40.46,94,42.597,91.746,44.618z"/>
<path fill-rule="evenodd" clip-rule="evenodd" fill="#797979" d="M55.234,78.621c0.699-0.971-0.742-1.729-0.557-3.066
	c0.787,0.23,0.723-0.393,1.395-0.278c0.222,0.893,0.823,1.406,0.835,2.508c0,0.094,0,0.187,0,0.28
	C55.865,77.766,56.114,78.755,55.234,78.621z"/>
<path fill-rule="evenodd" clip-rule="evenodd" fill="#C6C6C6" d="M72.793,121.542c0.439-0.675,0.998-1.232,1.673-1.672
	C74.026,120.545,73.469,121.104,72.793,121.542z"/>
<path fill-rule="evenodd" clip-rule="evenodd" fill="#797979" d="M25.413,127.953c0.44-0.676,0.998-1.233,1.672-1.672
	C26.646,126.955,26.088,127.513,25.413,127.953z"/>
<path fill-rule="evenodd" clip-rule="evenodd" fill="#323232" d="M3.673,71.097c0.675,0.438,1.232,0.996,1.672,1.671
	C4.67,72.328,4.113,71.771,3.673,71.097z"/>
<path fill-rule="evenodd" clip-rule="evenodd" fill="#797979" d="M5.346,72.768c0.953,0.72,1.789,1.556,2.508,2.509
	C6.901,74.557,6.065,73.721,5.346,72.768z"/>
<path fill-rule="evenodd" clip-rule="evenodd" fill="#C6C6C6" d="M7.854,75.276c0.568,0.082,0.546,0.754,1.115,0.836
	c0.905,1.139,1.927,2.16,3.066,3.065c0.053,0.227,0.28,0.278,0.279,0.559C10.71,78.365,9.224,76.879,7.854,75.276z"/>
<path fill-rule="evenodd" clip-rule="evenodd" fill="#323232" d="M12.313,79.736c0.001-0.28-0.226-0.332-0.279-0.559
	c0.86,0.627,1.604,1.369,2.229,2.23C13.442,81.023,13.136,80.12,12.313,79.736z"/>
<path fill-rule="evenodd" clip-rule="evenodd" fill="#323232" d="M15.937,83.081c1.696,1.462,3.275,3.042,4.738,4.736
	C18.979,86.355,17.4,84.776,15.937,83.081z"/>
<path fill-rule="evenodd" clip-rule="evenodd" fill="#797979" d="M25.97,98.688c0.44-0.676,0.997-1.233,1.672-1.673
	C27.203,97.691,26.646,98.248,25.97,98.688z"/>
<path fill-rule="evenodd" clip-rule="evenodd" fill="#C6C6C6" d="M24.019,125.723c0.252-0.49,0.624-0.863,1.115-1.114
	C24.882,125.099,24.511,125.472,24.019,125.723z"/>
<path fill-rule="evenodd" clip-rule="evenodd" fill="#C6C6C6" d="M50.497,117.083c0.225,0.054,0.277,0.28,0.557,0.279
	c0.764,1.188,2.025,1.877,2.788,3.065C52.61,119.43,51.495,118.314,50.497,117.083z"/>
<path fill-rule="evenodd" clip-rule="evenodd" fill="#323232" d="M54.12,120.428c2.16,1.928,4.203,3.972,6.133,6.132
	C58.093,124.632,56.047,122.588,54.12,120.428z"/>
<path fill-rule="evenodd" clip-rule="evenodd" fill="#797979" d="M64.153,127.395c0.441-0.675,0.998-1.231,1.673-1.672
	C65.387,126.398,64.829,126.955,64.153,127.395z"/>
<path fill-rule="evenodd" clip-rule="evenodd" fill="#C6C6C6" d="M69.169,121.542c0.569-0.081,0.547-0.753,1.116-0.836
	c-0.253,0.491-0.623,0.863-1.116,1.115C69.169,121.729,69.169,121.635,69.169,121.542z"/>
<path fill-rule="evenodd" clip-rule="evenodd" fill="#323232" d="M70.286,120.428c0.252-0.491,0.623-0.863,1.114-1.115
	C71.149,119.804,70.777,120.176,70.286,120.428z"/>
<path fill-rule="evenodd" clip-rule="evenodd" fill="#797979" d="M71.4,119.313c0.346-0.582,0.811-1.048,1.394-1.393
	C72.447,118.502,71.983,118.967,71.4,119.313z"/>
<path fill-rule="evenodd" clip-rule="evenodd" fill="#323232" d="M77.81,113.46c0.347-0.584,0.812-1.048,1.395-1.395
	C78.858,112.648,78.393,113.113,77.81,113.46z"/>
<path fill-rule="evenodd" clip-rule="evenodd" fill="#797979" d="M99.549,81.129c0.493,0.252,0.863,0.623,1.116,1.115
	C100.174,81.993,99.801,81.621,99.549,81.129z"/>
<path fill-rule="evenodd" clip-rule="evenodd" fill="#C6C6C6" d="M43.25,84.752c-0.675-0.439-1.232-0.996-1.672-1.671
	C42.253,83.521,42.811,84.077,43.25,84.752z"/>
<path fill-rule="evenodd" clip-rule="evenodd" fill="#323232" d="M39.906,81.687c0.583,0.347,1.047,0.812,1.394,1.395
	C40.716,82.734,40.252,82.271,39.906,81.687z"/>
<path fill-rule="evenodd" clip-rule="evenodd" fill="#797979" d="M35.725,78.064c0.718,0.303,1.34,0.704,1.673,1.392
	C36.873,78.96,36.107,78.703,35.725,78.064z"/>
<path fill-rule="evenodd" clip-rule="evenodd" fill="#1A1A1A" d="M41.299,83.081c0.093,0,0.186,0,0.278,0
	c0.44,0.675,0.998,1.231,1.672,1.671c0,0.094,0,0.187,0,0.279C42.482,84.498,41.832,83.848,41.299,83.081z"/>
<path fill-rule="evenodd" clip-rule="evenodd" fill="#323232" d="M43.529,85.031c0.248,0.216,0.629,0.299,1.115,0.278
	c-0.2,0.452,1.313,0.452,1.114,0c3.964-1.239,7.237-3.169,11.148-4.459c0.046,0.79,0.511,1.161,0.557,1.95
	c-1.466,0.299-3.216,1.191-5.016,1.951c-1.619,0.685-3.315,1.699-4.738,1.952c-1.87,0.331-2.994-0.391-4.18-1.395
	C43.529,85.217,43.529,85.124,43.529,85.031z"/>
<path fill-rule="evenodd" clip-rule="evenodd" fill="#1A1A1A" d="M64.991,94.229c0.903-1.138,1.927-2.161,3.065-3.065
	C67.15,92.301,66.128,93.323,64.991,94.229z"/>
<path fill-rule="evenodd" clip-rule="evenodd" fill="#1A1A1A" d="M63.318,96.18c0.252-0.491,0.623-0.863,1.113-1.114
	C64.181,95.556,63.808,95.928,63.318,96.18z"/>
<path fill-rule="evenodd" clip-rule="evenodd" fill="#1A1A1A" d="M61.367,98.409c0.347-0.583,0.812-1.047,1.395-1.394
	C62.415,97.6,61.95,98.063,61.367,98.409z"/>
<path fill-rule="evenodd" clip-rule="evenodd" fill="#1A1A1A" d="M59.694,100.361c0.252-0.492,0.625-0.864,1.115-1.116
	C60.557,99.737,60.186,100.108,59.694,100.361z"/>
<path fill-rule="evenodd" clip-rule="evenodd" fill="#1A1A1A" d="M51.611,111.23c0.252-0.492,0.624-0.863,1.115-1.116
	C52.475,110.606,52.103,110.978,51.611,111.23z"/>
<path fill-rule="evenodd" clip-rule="evenodd" fill="#1A1A1A" d="M50.218,112.902c0.252-0.491,0.624-0.862,1.115-1.115
	C51.082,112.279,50.709,112.65,50.218,112.902z"/>
<path fill-rule="evenodd" clip-rule="evenodd" fill="#1A1A1A" d="M48.545,114.854c0.347-0.583,0.811-1.048,1.394-1.394
	C49.593,114.042,49.129,114.507,48.545,114.854z"/>
<path fill-rule="evenodd" clip-rule="evenodd" fill="#1A1A1A" d="M47.152,116.525c0.251-0.491,0.624-0.863,1.115-1.115
	c-0.082,0.569-0.754,0.547-0.836,1.115C47.338,116.525,47.245,116.525,47.152,116.525z"/>
<path fill-rule="evenodd" clip-rule="evenodd" fill="#797979" d="M19.839,129.625c-0.232-0.883-0.813-1.417-1.394-1.951
	c0.359-0.478,0.577-1.096,1.394-1.114c0.558,0.593,1.046,2.304,1.951,1.672C21.378,128.935,20.712,129.383,19.839,129.625z"/>
<path fill-rule="evenodd" clip-rule="evenodd" fill="#1A1A1A" d="M8.69,129.625c-0.262,1.376,0.339,1.89,0.836,2.508
	C8.443,132.273,8.043,130.291,8.69,129.625z"/>
<path fill-rule="evenodd" clip-rule="evenodd" fill="#1A1A1A" d="M24.577,100.64c0.082-0.569,0.754-0.547,0.836-1.115
	c0.093,0,0.186,0,0.279,0C25.439,100.016,25.068,100.387,24.577,100.64z"/>
<path fill-rule="evenodd" clip-rule="evenodd" fill="#323232" d="M25.413,99.524c0.098-0.366,0.491-0.438,0.558-0.836
	c0.675-0.44,1.232-0.997,1.672-1.673c0.771-0.901,1.519-1.825,2.23-2.787c-0.503,2.656-3.014,3.305-4.181,5.296
	C25.599,99.524,25.505,99.524,25.413,99.524z"/>
<path fill-rule="evenodd" clip-rule="evenodd" fill="#1A1A1A" d="M17.33,78.621c0.583,0.346,1.048,0.811,1.394,1.394
	c-0.647-0.188-0.746-0.927-1.394-1.115C17.33,78.808,17.33,78.714,17.33,78.621z"/>
<path fill-rule="evenodd" clip-rule="evenodd" fill="#323232" d="M14.543,81.408c0.812-1.046,1.741-1.975,2.787-2.787
	c0,0.093,0,0.187,0,0.278C16.234,79.568,15.639,80.738,14.543,81.408z"/>
<path fill-rule="evenodd" clip-rule="evenodd" fill="#1A1A1A" d="M12.035,79.178c-1.139-0.905-2.161-1.927-3.066-3.065
	C10.107,77.018,11.129,78.04,12.035,79.178z"/>
<path fill-rule="evenodd" clip-rule="evenodd" fill="#1A1A1A" d="M68.891,94.229c0.347-0.583,0.812-1.048,1.395-1.394
	C69.939,93.418,69.474,93.883,68.891,94.229z"/>
<path fill-rule="evenodd" clip-rule="evenodd" fill="#1A1A1A" d="M66.942,96.18c0.25-0.491,0.623-0.863,1.114-1.114
	C67.803,95.556,67.433,95.928,66.942,96.18z"/>
<path fill-rule="evenodd" clip-rule="evenodd" fill="#1A1A1A" d="M64.991,98.409c0.25-0.491,0.623-0.863,1.113-1.114
	C65.852,97.785,65.481,98.157,64.991,98.409z"/>
<path fill-rule="evenodd" clip-rule="evenodd" fill="#1A1A1A" d="M63.318,100.361c0.252-0.492,0.623-0.864,1.113-1.116
	C64.181,99.737,63.808,100.108,63.318,100.361z"/>
<path fill-rule="evenodd" clip-rule="evenodd" fill="#1A1A1A" d="M61.367,102.59c0.252-0.491,0.623-0.862,1.115-1.115
	C62.23,101.967,61.857,102.338,61.367,102.59z"/>
<path fill-rule="evenodd" clip-rule="evenodd" fill="#1A1A1A" d="M56.35,109.836c0.252-0.49,0.623-0.862,1.113-1.113
	C57.213,109.213,56.84,109.585,56.35,109.836z"/>
<path fill-rule="evenodd" clip-rule="evenodd" fill="#1A1A1A" d="M54.956,111.509c0.252-0.492,0.623-0.863,1.116-1.115
	C55.819,110.885,55.449,111.257,54.956,111.509z"/>
<path fill-rule="evenodd" clip-rule="evenodd" fill="#1A1A1A" d="M50.497,116.804c0.252-0.49,0.623-0.862,1.114-1.113
	C51.36,116.181,50.988,116.553,50.497,116.804z"/>
<path fill-rule="evenodd" clip-rule="evenodd" fill="#323232" d="M101.5,83.638c-0.166,0.128-0.354-0.209-0.278-0.278
	c-0.932,0.861-1.879,2.485-3.622,2.786c-1.062,0.184-2.272,0.321-3.624,0.559c-1.475,0.258-2.715,0.462-4.46,0.557
	c-0.557,0-1.113,0-1.673,0c-1.186,0.165-1.843-0.2-2.786-0.278c-0.213-0.461-2.296-0.461-2.509,0
	c-5.203,0.835-8.763,3.313-12.263,5.853c-0.583,0.346-1.048,0.811-1.395,1.394c-0.4,0.156-0.679,0.435-0.835,0.837
	c-0.491,0.251-0.864,0.623-1.114,1.114c-0.082,0.568-0.755,0.546-0.838,1.115c-0.49,0.251-0.863,0.623-1.113,1.114
	c-0.101,0.366-0.491,0.438-0.56,0.836c-0.49,0.252-0.861,0.624-1.113,1.116c-0.082,0.567-0.756,0.546-0.836,1.113
	c-0.492,0.253-0.863,0.624-1.115,1.115c-1.625,1.719-2.695,3.994-3.903,6.133c-0.49,0.251-0.861,0.623-1.113,1.113
	c-0.055,0.227-0.28,0.278-0.278,0.558c-0.493,0.252-0.864,0.623-1.116,1.115c-0.957,1.551-2.259,2.757-3.344,4.182
	c-0.491,0.251-0.862,0.623-1.114,1.113c0,0.094,0,0.187,0,0.279c-0.653-0.555-1.773-0.642-3.066-0.558
	c0.082-0.568,0.754-0.546,0.836-1.115c0.053-0.225,0.279-0.277,0.278-0.557c0.583-0.347,1.048-0.812,1.394-1.394
	c0.053-0.227,0.279-0.278,0.278-0.558c0.492-0.252,0.864-0.623,1.115-1.115c0.053-0.226,0.28-0.277,0.278-0.557
	c0.492-0.253,0.863-0.624,1.115-1.116c0.274-0.784,0.926-1.099,1.394-1.672c0.188-0.23,0.288-0.777,0.558-1.114
	c0.172-0.216,0.699-0.333,0.837-0.558c0.547-0.899,0.547-2.17,1.114-3.065c0.339-0.535,1.23-1.173,1.673-1.672
	c0.567-0.643,0.97-1.075,1.393-1.672c0.492-0.253,0.863-0.624,1.115-1.116c0.099-0.365,0.491-0.438,0.558-0.836
	c0.583-0.346,1.048-0.81,1.395-1.394c0.098-0.366,0.49-0.438,0.557-0.836c0.49-0.252,0.863-0.624,1.113-1.114
	c0.101-0.366,0.491-0.438,0.56-0.837c1.138-0.905,2.159-1.928,3.065-3.065c4.139-3.292,8.264-6.602,15.328-6.968
	c0.372,0,0.743,0,1.115,0c0.371,0,0.743,0,1.114,0c0.086,0.378,0.699,0.23,1.116,0.278c0.278,0,0.557,0,0.835,0
	c0.124,0.46,2.105,0.46,2.229,0c1.016-0.101,2.564-0.529,4.182-0.836c2.434-0.46,4.977,0.02,4.738-3.065
	c0.366,0.099,0.438,0.49,0.835,0.557c0.252,0.492,0.625,0.864,1.116,1.115C100.751,82.901,101.633,82.762,101.5,83.638z"/>
<path fill-rule="evenodd" clip-rule="evenodd" fill="#797979" d="M79.205,112.065c0.533-0.767,1.183-1.417,1.949-1.951
	c-0.303-1.481-2.528-2.174-0.835-3.344c1.332,0.063,1.196,1.592,2.229,1.952C81.358,109.762,80.541,111.172,79.205,112.065z"/>
<path fill-rule="evenodd" clip-rule="evenodd" fill="#1A1A1A" d="M69.169,121.542c0.253-0.491,0.625-0.862,1.116-1.114
	c0,0.093,0,0.186,0,0.278C69.716,120.789,69.739,121.461,69.169,121.542z"/>
<path fill-rule="evenodd" clip-rule="evenodd" fill="#1A1A1A" d="M53.841,120.428c-0.763-1.188-2.024-1.878-2.788-3.065
	c1.139,0.905,2.161,1.927,3.066,3.065C54.028,120.428,53.934,120.428,53.841,120.428z"/>
<path fill-rule="evenodd" clip-rule="evenodd" fill="#323232" d="M17.609,110.673c0.012,0.477-0.207,0.722-0.557,0.836
	c-0.079-0.45,0.263-0.479,0.278-0.836C17.423,110.673,17.516,110.673,17.609,110.673z"/>
<path fill-rule="evenodd" clip-rule="evenodd" fill="#1A1A1A" d="M25.413,128.231c0.492,0.251,0.863,0.624,1.115,1.115
	C26.036,129.095,25.665,128.724,25.413,128.231z"/>
<path fill-rule="evenodd" clip-rule="evenodd" fill="#1A1A1A" d="M28.757,131.02c0.583,0.345,1.048,0.81,1.394,1.393
	C29.568,132.065,29.104,131.601,28.757,131.02z"/>
<path fill-rule="evenodd" clip-rule="evenodd" fill="#797979" d="M2.559,66.357c0.39-0.462,2.675-0.462,3.065,0
	C4.603,66.357,3.58,66.357,2.559,66.357z"/>
<path fill-rule="evenodd" clip-rule="evenodd" fill="#1A1A1A" d="M0.329,70.538c-0.625-0.376-0.26-2.096,0.279-2.229
	c0,0.279,0,0.557,0,0.836C0.003,69.098,0.481,70.134,0.329,70.538z"/>
<path fill-rule="evenodd" clip-rule="evenodd" fill="#797979" d="M0.607,69.145c0,0.743,0,1.487,0,2.23
	c-0.326-0.045-0.235-0.509-0.279-0.837C0.481,70.134,0.003,69.098,0.607,69.145z"/>
<path fill-rule="evenodd" clip-rule="evenodd" fill="#1A1A1A" d="M75.581,75.276c0.12-0.623,1.374-0.113,1.951-0.278
	c0,0.093,0,0.186,0,0.278C76.88,75.276,76.232,75.276,75.581,75.276z"/>
<path fill-rule="evenodd" clip-rule="evenodd" fill="#1A1A1A" d="M70.842,75.555c0.086-0.378,0.697-0.23,1.116-0.278
	c0,0.093,0,0.186,0,0.278C71.585,75.555,71.213,75.555,70.842,75.555z"/>
<path fill-rule="evenodd" clip-rule="evenodd" fill="#323232" d="M97.32,76.392c0.477-0.013,0.723,0.207,0.837,0.557
	c-0.385,0.012-0.613-0.131-0.837-0.278C97.32,76.577,97.32,76.484,97.32,76.392z"/>
<path fill-rule="evenodd" clip-rule="evenodd" fill="#323232" d="M91.189,77.506c0.848,0.175,2.4-0.356,2.787,0.278
	c-0.93,0-1.859,0-2.787,0C91.189,77.691,91.189,77.6,91.189,77.506z"/>
<path fill-rule="evenodd" clip-rule="evenodd" fill="#1A1A1A" d="M70.842,78.343c0.086-0.379,0.697-0.231,1.116-0.278
	C71.873,78.441,71.259,78.295,70.842,78.343z"/>
<path fill-rule="evenodd" clip-rule="evenodd" fill="#797979" d="M64.712,79.178c0.034-0.615,1.182-0.118,1.671-0.278
	c-0.009,0.271-0.341,0.217-0.558,0.278C65.456,79.178,65.083,79.178,64.712,79.178z"/>
<path fill-rule="evenodd" clip-rule="evenodd" fill="#323232" d="M64.712,79.178c0.37,0,0.743,0,1.113,0
	c-2.02,1.232-4.691,1.813-6.968,2.788c-0.092,0-0.187,0-0.278,0c-0.154-0.497-0.145-1.158-0.557-1.394
	C59.416,79.294,62.133,78.408,64.712,79.178z"/>
<path fill-rule="evenodd" clip-rule="evenodd" fill="#797979" d="M58.858,81.966c0.217,0.247,0.301,0.629,0.278,1.115
	c-0.671-0.114-0.604,0.509-1.392,0.278c-0.055-0.226-0.281-0.278-0.281-0.559c-0.046-0.789-0.511-1.16-0.557-1.95
	c0.248-0.216,0.629-0.299,1.116-0.278c0.412,0.235,0.402,0.896,0.557,1.394C58.671,81.966,58.766,81.966,58.858,81.966z"/>
<path fill-rule="evenodd" clip-rule="evenodd" fill="#797979" d="M23.74,90.605c-0.125-0.456,1.52-0.456,1.394,0
	C24.669,90.605,24.205,90.605,23.74,90.605z"/>
<path fill-rule="evenodd" clip-rule="evenodd" fill="#C6C6C6" d="M22.347,107.606c0.178-1.03-0.361-2.776,0.278-3.344
	C22.448,105.292,22.987,107.039,22.347,107.606z"/>
<path fill-rule="evenodd" clip-rule="evenodd" fill="#797979" d="M9.248,134.921c0.929,0,1.858,0,2.787,0
	C11.734,135.382,9.548,135.382,9.248,134.921z"/>
<path fill-rule="evenodd" clip-rule="evenodd" fill="#FFFFFF" d="M2.559,66.357c1.021,0,2.044,0,3.065,0
	c5.054,1.146,12.725,3.462,18.674,5.018c1.294,0.337,2.693,0.51,3.902,0.835c0.147,0.04,0.731,0.534,0.836,0.558
	c1.625,0.365,3.853,0.435,5.574,1.115c0.104,0.041,0.607,0.164,0.836,0.278c0.125,0.063,0.176,0.512,0.278,0.558
	c0.602,0.271,1.78,0.837,2.23,1.673c0.379,0.829,1.259,1.156,1.951,1.673c0.823,0.384,1.128,1.286,1.951,1.672
	c0.251,0.49,0.624,0.862,1.115,1.114c0.635,0.582,1.462,2.427,2.508,1.672c3.457-1.095,6.364-2.74,9.754-3.901
	c0.88,0.134,0.631-0.855,1.673-0.557c0-0.094,0-0.187,0-0.28c1.44-0.325,2.288-1.243,3.902-1.393c0.836,0,1.673,0,2.509,0
	c0.092,0,0.187,0,0.278,0c-0.126,0.455,1.519,0.455,1.395,0c0.092,0,0.185,0,0.278,0c1.084-0.124,2.204-0.211,3.065-0.558
	c0.695-0.235,1.492-0.365,2.508-0.279c0.371,0,0.743,0,1.116,0c0.465,0,0.928,0,1.393,0c0.404-0.152,1.44,0.327,1.395-0.278
	c0.278,0,0.557,0,0.835,0c0.651,0,1.3,0,1.951,0c3.159,0,6.316,0,9.477,0c0.557,0,1.113,0,1.673,0
	c0.488-0.16,1.637,0.338,1.671-0.278c0.186,0,0.372,0,0.559,0c1.236,0.128,2.35-0.181,3.344,0c1.067,0.193,1.669,0.816,2.508,1.114
	c0.227,0.054,0.279,0.28,0.558,0.279c0,0.093,0,0.186,0,0.278c0.224,0.147,0.452,0.29,0.837,0.278
	c0.553,0.004,0.354,0.761,1.114,0.558c0,0.094,0,0.186,0,0.278c0.412,0.146,0.703,0.413,1.115,0.559
	c0.401,0.155,0.68,0.434,0.836,0.835c0.347,0.584,0.812,1.048,1.395,1.395c1.513,1.365,2.229,3.528,2.229,6.41
	c0,0.835,0,1.672,0,2.508c0,0.65,0,1.302,0,1.951c0.173,0.757-0.354,2.212,0.278,2.509c0,1.486,0,2.973,0,4.459
	c-0.456-0.125-0.456,1.519,0,1.394c0.028,1.145,0.046,2.275-0.557,2.787c-0.493,0.252-0.863,0.624-1.116,1.115
	c-0.637,0.664-1.793,0.808-3.065,0.836c-0.372,0-0.743,0-1.115,0c-0.756,0.172-2.212-0.354-2.509,0.278
	c-5.553,0.486-8.524,3.552-12.263,5.854c-0.646,0.188-0.747,0.926-1.395,1.114c0,0.094,0,0.187,0,0.278
	c-0.366,0.1-0.437,0.491-0.835,0.559c-0.675,0.438-1.232,0.996-1.673,1.672c0,0.093,0,0.187,0,0.278
	c-0.859,0.627-1.603,1.37-2.229,2.229c-1.248,0.981-2.404,2.056-3.622,3.066c-0.093,0-0.187,0-0.279,0
	c-0.675,0.439-1.233,0.997-1.673,1.672c0,0.093,0,0.187,0,0.279c-0.49,0.252-0.863,0.623-1.113,1.115
	c-1.4,1.572-2.604,3.343-4.182,4.737c-0.675,0.439-1.233,0.997-1.673,1.673c-1.273,1.752-5.573,1.274-6.689-0.279
	c-0.344-0.583-0.811-1.048-1.392-1.394c-1.006-0.575-1.505-1.654-2.511-2.229c-0.531-0.768-1.183-1.418-1.95-1.951
	c-0.156-0.401-0.435-0.68-0.836-0.836c-0.999-1.231-2.113-2.347-3.345-3.345c-0.093,0-0.185,0-0.278,0
	c-1.339-0.68-3.241,0.47-4.459,0.836c-5.387,2.417-12.679,2.93-17.281,6.133c-0.675,0.438-1.232,0.996-1.672,1.672
	c0,0.093,0,0.186,0,0.278c-0.092,0-0.186,0-0.278,0c-0.653,1.02-1.501,1.844-2.229,2.788c-0.419,0.416-1.174,0.497-1.394,1.113
	c-3.275,0.813-6.087,2.089-9.476,2.788c-0.929,0-1.858,0-2.787,0c-0.279,0-0.557,0-0.836,0c-0.205-0.261-0.507-0.422-0.836-0.559
	c-0.252-0.49-0.624-0.862-1.115-1.113c-0.004-0.554-0.761-0.354-0.557-1.116c0-1.113,0-2.229,0-3.344
	c1.326-3.248,3.732-5.879,5.574-8.641c1.919-2.877,3.659-5.74,5.575-8.64c0.35-0.114,0.569-0.359,0.557-0.836
	c0.325-0.418,0.805-0.682,0.836-1.394c0.093,0,0.186,0,0.279,0c0.004-0.554,0.761-0.354,0.558-1.115
	c-0.043-0.693,0.438-0.863,0.558-1.394c0.616-0.035,0.118-1.183,0.278-1.673c0-0.649,0-1.3,0-1.95
	c0.573-3.423,3.096-4.895,4.738-7.246c0.675-0.439,1.232-0.998,1.672-1.673c1.516-1.202,0.457-3.461-1.393-3.623
	c0.125-0.456-1.52-0.456-1.394,0c-0.788-0.23-0.722,0.393-1.393,0.278c-0.651,0-1.301,0-1.951,0
	c-0.341-0.401-1.063-0.423-1.394-0.836c-1.556-1.788-3.228-3.46-5.017-5.017c-0.44-0.676-0.997-1.232-1.672-1.672
	c-0.252-0.491-0.624-0.864-1.115-1.115C10.95,82.121,10.7,82,10.641,81.687c-1.37-1.603-2.857-3.089-4.459-4.459
	c-0.626-0.86-1.369-1.604-2.23-2.229c-0.092,0-0.186,0-0.278,0c-0.86-1.091-1.883-2.02-2.787-3.066
	c-0.053-0.226-0.28-0.277-0.279-0.557c0-0.743,0-1.487,0-2.23c0-0.279,0-0.558,0-0.836c-0.045-0.324,0.062-0.496,0.279-0.558
	c-0.075,0.439,1.554-1.189,1.115-1.115C2.008,66.365,2.342,66.42,2.559,66.357z M35.725,78.064c-1.531-1.922-3.948-1.871-6.688-2.51
	c-1.166-0.271-2.407-0.785-3.624-1.115c-6.086-1.646-12.428-3.258-18.395-4.737c-1.142-0.283-2.36-1.262-3.623-0.557
	c-0.396,0.856-0.125,1.253,0.279,1.952c0.44,0.674,0.997,1.231,1.672,1.671c0.719,0.953,1.555,1.789,2.508,2.509
	c1.37,1.603,2.856,3.089,4.459,4.46c0.822,0.384,1.128,1.287,1.951,1.672c0.44,0.675,0.998,1.232,1.672,1.673
	c1.463,1.695,3.042,3.274,4.738,4.736c0.784,0.646,2.15,0.087,3.065,0c0.464,0,0.929,0,1.394,0c3.331,0.252,5.623,2.855,4.738,6.411
	c-0.711,0.962-1.458,1.886-2.23,2.787c-0.675,0.439-1.232,0.997-1.672,1.673c-0.066,0.397-0.459,0.47-0.558,0.836
	c-0.082,0.568-0.754,0.546-0.836,1.115c-0.76,1.099-1.899,1.815-1.951,3.623c-0.64,0.567-0.101,2.313-0.278,3.344
	c-0.487,2.264-1.93,4.066-3.066,5.854c-1.178,1.853-2.434,3.567-3.624,5.295c-1.854,2.694-3.57,5.525-5.295,8.083
	c-0.578,0.856-1.709,1.565-1.672,2.787c-0.647,0.666-0.247,2.648,0.836,2.508c3.722,0.544,6.931-1.787,10.313-2.508
	c0.873-0.242,1.539-0.69,1.951-1.394c0.722-0.857,1.213-1.945,2.229-2.509c0.492-0.251,0.863-0.624,1.115-1.114
	c2.626-2.854,6.897-3.572,11.148-4.738c3.801-1.043,7.382-2.595,10.87-3.345c0.093,0,0.186,0,0.279,0
	c1.292-0.084,2.413,0.003,3.066,0.558c0.998,1.231,2.113,2.347,3.344,3.345c0.093,0,0.187,0,0.278,0
	c1.928,2.16,3.974,4.204,6.133,6.132c0.591,0.43,1.24,0.802,1.949,1.114c-0.198,0.452,1.316,0.452,1.116,0
	c0.356-0.016,0.387-0.357,0.835-0.279c0.676-0.439,1.234-0.996,1.673-1.672c0.93-1.486,2.046-2.784,3.344-3.901
	c0.493-0.252,0.863-0.624,1.116-1.115c0-0.093,0-0.186,0-0.278c0.491-0.252,0.863-0.624,1.114-1.115
	c0.583-0.346,1.047-0.811,1.394-1.393c1.619-1.54,3.473-2.846,5.017-4.46c0.583-0.347,1.048-0.812,1.395-1.395
	c1.336-0.894,2.153-2.304,3.344-3.343c4.436-2.905,8.046-6.634,15.33-6.689c0.755-0.174,2.212,0.354,2.508-0.279
	c1,0.165,1.349-0.324,1.952-0.558c0-0.092,0-0.186,0-0.278c0.641-0.659,0.098-2.501,0.278-3.623c0-0.743,0-1.486,0-2.229
	c0-0.837,0-1.672,0-2.509c-0.171-0.666,0.349-2.022-0.278-2.229c0-0.279,0-0.559,0-0.837c0-0.465,0-0.929,0-1.394
	c0-0.371,0-0.743,0-1.114c-0.049-0.417,0.098-1.029-0.281-1.115c0.237-1.165-0.54-1.316-0.557-2.229
	c0.133-0.876-0.749-0.736-0.835-1.394c-0.253-0.492-0.623-0.863-1.116-1.115c-0.396-0.066-0.469-0.458-0.835-0.557
	c-1.555-0.953-3.067-1.951-4.738-2.788c-0.387-0.635-1.939-0.104-2.787-0.278c-0.651,0-1.3,0-1.951,0
	c-0.417,0.049-1.029-0.1-1.116,0.278c-0.37,0-0.743,0-1.113,0c-1.579,0-3.16,0-4.738,0c-0.465,0-0.93,0-1.395,0
	c-0.743,0-1.484,0-2.229,0c-1.114,0-2.23,0-3.344,0c-0.465,0-0.93,0-1.395,0c-0.404,0.152-1.44-0.325-1.393,0.28
	c-0.187,0-0.372,0-0.557,0c-0.419,0.047-1.03-0.101-1.116,0.278c-1.859-0.188-2.805,0.539-4.459,0.557
	c-0.489,0.16-1.637-0.337-1.671,0.278c-2.579-0.77-5.297,0.116-6.689,1.395c-0.487-0.021-0.868,0.063-1.116,0.278
	c-3.911,1.29-7.185,3.22-11.148,4.459c-0.371,0-0.743,0-1.114,0c-0.486,0.021-0.867-0.063-1.115-0.278c-0.093,0-0.186,0-0.279,0
	c0-0.093,0-0.186,0-0.279c-0.439-0.675-0.997-1.231-1.672-1.671c-0.092,0-0.185,0-0.278,0c-0.346-0.583-0.811-1.048-1.394-1.395
	c-0.874-0.706-1.701-1.458-2.508-2.23C37.064,78.769,36.443,78.367,35.725,78.064z"/>
<path fill-rule="evenodd" clip-rule="evenodd" fill="#323232" d="M104.846,86.982c0.631,0.296,0.106,1.752,0.278,2.508
	c-0.094,0-0.187,0-0.278,0C104.846,88.654,104.846,87.817,104.846,86.982z"/>
<path fill-rule="evenodd" clip-rule="evenodd" fill="#323232" d="M20.396,90.884c0.65,0,1.3,0,1.951,0
	C22.309,91.344,20.434,91.344,20.396,90.884z"/>
<path fill-rule="evenodd" clip-rule="evenodd" fill="#323232" d="M97.878,102.033c0.297-0.634,1.751-0.106,2.508-0.279
	C100.09,102.387,98.633,101.859,97.878,102.033z"/>
<path fill-rule="evenodd" clip-rule="evenodd" fill="#C6C6C6" d="M60.809,76.392c0.211-0.461,2.296-0.461,2.509,0
	C62.482,76.392,61.645,76.392,60.809,76.392z"/>
<path fill-rule="evenodd" clip-rule="evenodd" fill="#C6C6C6" d="M5.903,128.789c0,1.114,0,2.23,0,3.344
	C5.441,131.653,5.441,129.27,5.903,128.789z"/>
<path fill-rule="evenodd" clip-rule="evenodd" fill="#797979" d="M20.117,103.147c0,0.65,0,1.301,0,1.95c-0.093,0-0.186,0-0.278,0
	C20.004,104.521,19.494,103.268,20.117,103.147z"/>
<path fill-rule="evenodd" clip-rule="evenodd" fill="#323232" d="M96.762,104.819c0.297-0.632,1.753-0.106,2.509-0.278
	c0,0.092,0,0.186,0,0.278C98.435,104.819,97.6,104.819,96.762,104.819z"/>
</svg>
