<?xml version="1.0" encoding="utf-8"?>
<!-- Generator: Adobe Illustrator 15.0.0, SVG Export Plug-In  -->
<!DOCTYPE svg PUBLIC "-//W3C//DTD SVG 1.1//EN" "http://www.w3.org/Graphics/SVG/1.1/DTD/svg11.dtd" [
	<!ENTITY ns_flows "http://ns.adobe.com/Flows/1.0/">
]>
<svg version="1.1"
	 xmlns="http://www.w3.org/2000/svg" xmlns:xlink="http://www.w3.org/1999/xlink" xmlns:a="http://ns.adobe.com/AdobeSVGViewerExtensions/3.0/"
	 x="0px" y="0px" width="142px" height="142px" viewBox="-2.773 -28.236 142 142" enable-background="new -2.773 -28.236 142 142"
	 xml:space="preserve">
<defs>
</defs>
<path fill-rule="evenodd" clip-rule="evenodd" fill="#303030" d="M13.95,0.316c-0.047-0.605,0.988-0.127,1.394-0.279
	c0,0.093,0,0.186,0,0.279C14.879,0.316,14.414,0.316,13.95,0.316z"/>
<path fill-rule="evenodd" clip-rule="evenodd" fill="#717171" d="M15.343,0.316c0-0.093,0-0.187,0-0.279c0.65,0,1.3,0,1.951,0
	c0,0.093,0,0.186,0,0.279C16.644,0.316,15.994,0.316,15.343,0.316z"/>
<path fill-rule="evenodd" clip-rule="evenodd" fill="#A2A2A2" d="M17.294,0.316c0-0.093,0-0.187,0-0.279c0.929,0,1.858,0,2.788,0
	c0,0.093,0,0.186,0,0.279C19.152,0.316,18.223,0.316,17.294,0.316z"/>
<path fill-rule="evenodd" clip-rule="evenodd" fill="#717171" d="M20.082,0.316c0-0.093,0-0.187,0-0.279c0.743,0,1.486,0,2.229,0
	c0,0.093,0,0.186,0,0.279C21.568,0.316,20.825,0.316,20.082,0.316z"/>
<path fill-rule="evenodd" clip-rule="evenodd" fill="#303030" d="M22.311,0.316c0-0.093,0-0.187,0-0.279
	c0.405,0.152,1.44-0.326,1.394,0.279C23.24,0.316,22.775,0.316,22.311,0.316z"/>
<path fill-rule="evenodd" clip-rule="evenodd" fill="#D4D4D4" d="M16.737,2.824c0.754-0.463,3.426-0.463,4.181,0
	C19.524,2.824,18.13,2.824,16.737,2.824z"/>
<path fill-rule="evenodd" clip-rule="evenodd" fill="#303030" d="M14.229,3.103c0-0.093,0-0.186,0-0.278c0.464,0,0.929,0,1.393,0
	C15.669,3.428,14.633,2.95,14.229,3.103z"/>
<path fill-rule="evenodd" clip-rule="evenodd" fill="#303030" d="M22.032,2.824c0.464,0,0.929,0,1.394,0c0,0.092,0,0.185,0,0.278
	C23.021,2.95,21.985,3.428,22.032,2.824z"/>
<path fill-rule="evenodd" clip-rule="evenodd" fill="#303030" d="M63.282,6.168c0-0.092,0-0.185,0-0.278
	c0.417,0.048,1.028-0.1,1.114,0.278C64.025,6.168,63.653,6.168,63.282,6.168z"/>
<path fill-rule="evenodd" clip-rule="evenodd" fill="#D4D4D4" d="M64.954,6.168c0.465,0,0.929,0,1.394,0c0,0.093,0,0.186,0,0.279
	C65.942,6.295,64.907,6.773,64.954,6.168z"/>
<path fill-rule="evenodd" clip-rule="evenodd" fill="#A2A2A2" d="M66.348,6.447c0-0.093,0-0.186,0-0.279c0.464,0,0.929,0,1.393,0
	c0,0.093,0,0.186,0,0.279C67.276,6.447,66.812,6.447,66.348,6.447z"/>
<path fill-rule="evenodd" clip-rule="evenodd" fill="#717171" d="M67.741,6.447c0-0.093,0-0.186,0-0.279c0.836,0,1.673,0,2.509,0
	c0,0.093,0,0.186,0,0.279C69.414,6.447,68.577,6.447,67.741,6.447z"/>
<path fill-rule="evenodd" clip-rule="evenodd" fill="#303030" d="M70.25,6.447c0-0.093,0-0.186,0-0.279
	c0.938,0.177,2.588-0.358,3.064,0.279C72.292,6.447,71.271,6.447,70.25,6.447z"/>
<path fill-rule="evenodd" clip-rule="evenodd" fill="#D4D4D4" d="M75.266,6.447c0.929,0,1.858,0,2.786,0c0,0.093,0,0.186,0,0.278
	C77.207,6.551,75.652,7.083,75.266,6.447z"/>
<path fill-rule="evenodd" clip-rule="evenodd" fill="#A2A2A2" d="M78.052,6.726c0-0.093,0-0.185,0-0.278c0.743,0,1.486,0,2.229,0
	c0,0.093,0,0.186,0,0.278C79.539,6.726,78.795,6.726,78.052,6.726z"/>
<path fill-rule="evenodd" clip-rule="evenodd" fill="#303030" d="M63.003,8.676c0.372,0,0.743,0,1.115,0c0,0.093,0,0.187,0,0.279
	C63.701,8.908,63.089,9.055,63.003,8.676z"/>
<path fill-rule="evenodd" clip-rule="evenodd" fill="#717171" d="M64.118,8.956c0-0.093,0-0.186,0-0.279c0.372,0,0.743,0,1.115,0
	c0,0.093,0,0.187,0,0.279C64.861,8.956,64.489,8.956,64.118,8.956z"/>
<path fill-rule="evenodd" clip-rule="evenodd" fill="#A2A2A2" d="M65.232,8.956c0-0.093,0-0.186,0-0.279c0.372,0,0.743,0,1.115,0
	c0,0.093,0,0.187,0,0.279C65.976,8.956,65.604,8.956,65.232,8.956z"/>
<path fill-rule="evenodd" clip-rule="evenodd" fill="#D4D4D4" d="M66.348,8.956c0-0.093,0-0.186,0-0.279
	c0.49,0.161,1.637-0.336,1.672,0.279C67.462,8.956,66.904,8.956,66.348,8.956z"/>
<path fill-rule="evenodd" clip-rule="evenodd" fill="#303030" d="M69.692,8.956c1.114,0,2.23,0,3.344,0c0,0.093,0,0.186,0,0.278
	C72.006,9.056,70.259,9.595,69.692,8.956z"/>
<path fill-rule="evenodd" clip-rule="evenodd" fill="#717171" d="M73.036,9.234c0-0.093,0-0.185,0-0.278c0.93,0,1.859,0,2.787,0
	c0,0.093,0,0.186,0,0.278C74.895,9.234,73.965,9.234,73.036,9.234z"/>
<path fill-rule="evenodd" clip-rule="evenodd" fill="#A2A2A2" d="M75.823,9.234c0-0.093,0-0.185,0-0.278c0.837,0,1.673,0,2.51,0
	c0,0.093,0,0.186,0,0.278C77.496,9.234,76.66,9.234,75.823,9.234z"/>
<path fill-rule="evenodd" clip-rule="evenodd" fill="#D4D4D4" d="M78.333,9.234c0-0.093,0-0.185,0-0.278
	c0.846,0.175,2.4-0.357,2.787,0.278C80.19,9.234,79.26,9.234,78.333,9.234z"/>
<path fill-rule="evenodd" clip-rule="evenodd" fill="#717171" d="M13.95,11.185c0.397,0.067,0.47,0.459,0.836,0.558
	c0,0.093,0,0.186,0,0.278c-0.189,0.648-0.927,0.747-1.115,1.394c-0.313,0.059-0.434,0.309-0.557,0.557
	c-0.569-0.082-0.547-0.754-1.115-0.836c0-0.093,0-0.186,0-0.279C12.821,12.472,13.127,11.57,13.95,11.185z"/>
<path fill-rule="evenodd" clip-rule="evenodd" fill="#D4D4D4" d="M66.068,23.169c0.929,0,1.858,0,2.787,0
	C68.555,23.631,66.37,23.631,66.068,23.169z"/>
<path fill-rule="evenodd" clip-rule="evenodd" fill="#A2A2A2" d="M66.348,25.957c0-0.093,0-0.186,0-0.279c0.65,0,1.3,0,1.951,0
	c0,0.093,0,0.186,0,0.279C67.648,25.957,66.998,25.957,66.348,25.957z"/>
<path fill-rule="evenodd" clip-rule="evenodd" fill="#303030" d="M120.138,35.712c0.036-0.616,1.184-0.118,1.673-0.279
	c0,0.092,0,0.186,0,0.279C121.253,35.712,120.697,35.712,120.138,35.712z"/>
<path fill-rule="evenodd" clip-rule="evenodd" fill="#303030" d="M113.451,35.99c0.034-0.615,1.182-0.118,1.671-0.278
	c0,0.093,0,0.186,0,0.278C114.565,35.99,114.007,35.99,113.451,35.99z"/>
<path fill-rule="evenodd" clip-rule="evenodd" fill="#717171" d="M115.122,35.99c0-0.092,0-0.186,0-0.278c0.557,0,1.115,0,1.673,0
	c0,0.093,0,0.186,0,0.278C116.237,35.99,115.678,35.99,115.122,35.99z"/>
<path fill-rule="evenodd" clip-rule="evenodd" fill="#A2A2A2" d="M116.794,35.99c0-0.092,0-0.186,0-0.278c0.465,0,0.93,0,1.395,0
	c0,0.093,0,0.186,0,0.278C117.724,35.99,117.259,35.99,116.794,35.99z"/>
<path fill-rule="evenodd" clip-rule="evenodd" fill="#D4D4D4" d="M118.189,35.99c0-0.092,0-0.186,0-0.278c0.37,0,0.743,0,1.113,0
	C119.25,36.125,118.629,35.967,118.189,35.99z"/>
<path fill-rule="evenodd" clip-rule="evenodd" fill="#303030" d="M106.761,36.269c0.034-0.616,1.182-0.118,1.671-0.279
	c0,0.093,0,0.186,0,0.279C107.875,36.269,107.318,36.269,106.761,36.269z"/>
<path fill-rule="evenodd" clip-rule="evenodd" fill="#717171" d="M108.432,36.269c0-0.093,0-0.186,0-0.279c0.559,0,1.116,0,1.673,0
	c0,0.093,0,0.186,0,0.279C109.548,36.269,108.991,36.269,108.432,36.269z"/>
<path fill-rule="evenodd" clip-rule="evenodd" fill="#A2A2A2" d="M110.105,36.269c0-0.093,0-0.186,0-0.279c0.372,0,0.743,0,1.116,0
	c0,0.093,0,0.186,0,0.279C110.848,36.269,110.477,36.269,110.105,36.269z"/>
<path fill-rule="evenodd" clip-rule="evenodd" fill="#D4D4D4" d="M111.221,36.269c0-0.093,0-0.186,0-0.279c0.462,0,0.927,0,1.392,0
	C112.662,36.595,111.625,36.117,111.221,36.269z"/>
<path fill-rule="evenodd" clip-rule="evenodd" fill="#303030" d="M100.072,36.548c0.034-0.616,1.182-0.118,1.671-0.279
	c0,0.093,0,0.186,0,0.279C101.186,36.548,100.628,36.548,100.072,36.548z"/>
<path fill-rule="evenodd" clip-rule="evenodd" fill="#717171" d="M101.743,36.548c0-0.093,0-0.186,0-0.279c0.465,0,0.93,0,1.395,0
	c0,0.093,0,0.186,0,0.279C102.672,36.548,102.208,36.548,101.743,36.548z"/>
<path fill-rule="evenodd" clip-rule="evenodd" fill="#A2A2A2" d="M103.137,36.548c0-0.093,0-0.186,0-0.279c0.465,0,0.93,0,1.395,0
	c0,0.093,0,0.186,0,0.279C104.067,36.548,103.602,36.548,103.137,36.548z"/>
<path fill-rule="evenodd" clip-rule="evenodd" fill="#D4D4D4" d="M104.532,36.548c0-0.093,0-0.186,0-0.279c0.465,0,0.928,0,1.392,0
	C105.972,36.874,104.936,36.396,104.532,36.548z"/>
<path fill-rule="evenodd" clip-rule="evenodd" fill="#303030" d="M93.382,36.826c0.034-0.615,1.183-0.118,1.673-0.278
	c0,0.093,0,0.186,0,0.278C94.497,36.826,93.939,36.826,93.382,36.826z"/>
<path fill-rule="evenodd" clip-rule="evenodd" fill="#717171" d="M95.055,36.826c0-0.093,0-0.185,0-0.278c0.465,0,0.928,0,1.393,0
	c0,0.093,0,0.186,0,0.278C95.983,36.826,95.52,36.826,95.055,36.826z"/>
<path fill-rule="evenodd" clip-rule="evenodd" fill="#A2A2A2" d="M96.448,36.826c0-0.093,0-0.185,0-0.278c0.465,0,0.93,0,1.395,0
	c0,0.093,0,0.186,0,0.278C97.377,36.826,96.913,36.826,96.448,36.826z"/>
<path fill-rule="evenodd" clip-rule="evenodd" fill="#D4D4D4" d="M97.842,36.826c0-0.093,0-0.185,0-0.278c0.465,0,0.928,0,1.393,0
	C99.283,37.152,98.247,36.674,97.842,36.826z"/>
<path fill-rule="evenodd" clip-rule="evenodd" fill="#303030" d="M86.693,37.105c0.034-0.616,1.183-0.118,1.673-0.279
	c0,0.093,0,0.186,0,0.279C87.809,37.105,87.25,37.105,86.693,37.105z"/>
<path fill-rule="evenodd" clip-rule="evenodd" fill="#717171" d="M88.366,37.105c0-0.093,0-0.186,0-0.279c0.558,0,1.114,0,1.673,0
	c0,0.093,0,0.186,0,0.279C89.48,37.105,88.923,37.105,88.366,37.105z"/>
<path fill-rule="evenodd" clip-rule="evenodd" fill="#A2A2A2" d="M90.039,37.105c0-0.093,0-0.186,0-0.279c0.371,0,0.743,0,1.114,0
	c0,0.093,0,0.186,0,0.279C90.782,37.105,90.41,37.105,90.039,37.105z"/>
<path fill-rule="evenodd" clip-rule="evenodd" fill="#D4D4D4" d="M91.153,37.105c0-0.093,0-0.186,0-0.279c0.465,0,0.93,0,1.395,0
	C92.593,37.431,91.557,36.953,91.153,37.105z"/>
<path fill-rule="evenodd" clip-rule="evenodd" fill="#A2A2A2" d="M81.12,37.384c0-0.093,0-0.186,0-0.279
	c0.404,0.152,1.44-0.326,1.393,0.279C82.047,37.384,81.584,37.384,81.12,37.384z"/>
<path fill-rule="evenodd" clip-rule="evenodd" fill="#A2A2A2" d="M83.071,37.384c0-0.093,0-0.186,0-0.279c0.465,0,0.928,0,1.393,0
	c0,0.093,0,0.186,0,0.279C83.999,37.384,83.536,37.384,83.071,37.384z"/>
<path fill-rule="evenodd" clip-rule="evenodd" fill="#D4D4D4" d="M84.463,37.384c0-0.093,0-0.186,0-0.279c0.465,0,0.93,0,1.395,0
	C85.904,37.71,84.868,37.231,84.463,37.384z"/>
<path fill-rule="evenodd" clip-rule="evenodd" fill="#D4D4D4" d="M122.926,38.22c-0.2-0.452,1.314-0.452,1.114,0
	C123.67,38.22,123.297,38.22,122.926,38.22z"/>
<path fill-rule="evenodd" clip-rule="evenodd" fill="#D4D4D4" d="M116.237,38.499c0.034-0.615,1.183-0.118,1.671-0.278
	c0,0.093,0,0.186,0,0.278C117.351,38.499,116.794,38.499,116.237,38.499z"/>
<path fill-rule="evenodd" clip-rule="evenodd" fill="#A2A2A2" d="M117.908,38.499c0-0.093,0-0.186,0-0.278c0.373,0,0.744,0,1.116,0
	c0,0.093,0,0.186,0,0.278C118.652,38.499,118.281,38.499,117.908,38.499z"/>
<path fill-rule="evenodd" clip-rule="evenodd" fill="#717171" d="M119.024,38.499c0-0.093,0-0.186,0-0.278c0.557,0,1.114,0,1.673,0
	c0,0.093,0,0.186,0,0.278C120.138,38.499,119.581,38.499,119.024,38.499z"/>
<path fill-rule="evenodd" clip-rule="evenodd" fill="#303030" d="M120.697,38.499c0-0.093,0-0.186,0-0.278c0.557,0,1.114,0,1.671,0
	C122.333,38.836,121.186,38.338,120.697,38.499z"/>
<path fill-rule="evenodd" clip-rule="evenodd" fill="#D4D4D4" d="M109.548,38.778c0.033-0.616,1.182-0.119,1.673-0.279
	c0,0.093,0,0.187,0,0.279C110.662,38.778,110.105,38.778,109.548,38.778z"/>
<path fill-rule="evenodd" clip-rule="evenodd" fill="#A2A2A2" d="M111.221,38.778c0-0.093,0-0.186,0-0.279c0.37,0,0.743,0,1.113,0
	c0,0.093,0,0.187,0,0.279C111.964,38.778,111.591,38.778,111.221,38.778z"/>
<path fill-rule="evenodd" clip-rule="evenodd" fill="#717171" d="M112.334,38.778c0-0.093,0-0.186,0-0.279c0.558,0,1.116,0,1.673,0
	c0,0.093,0,0.187,0,0.279C113.451,38.778,112.892,38.778,112.334,38.778z"/>
<path fill-rule="evenodd" clip-rule="evenodd" fill="#303030" d="M114.007,38.778c0-0.093,0-0.186,0-0.279c0.558,0,1.114,0,1.671,0
	C115.644,39.114,114.497,38.617,114.007,38.778z"/>
<path fill-rule="evenodd" clip-rule="evenodd" fill="#D4D4D4" d="M102.859,39.056c0.034-0.616,1.182-0.118,1.673-0.278
	c0,0.093,0,0.186,0,0.278C103.972,39.056,103.416,39.056,102.859,39.056z"/>
<path fill-rule="evenodd" clip-rule="evenodd" fill="#A2A2A2" d="M104.532,39.056c0-0.093,0-0.186,0-0.278c0.37,0,0.743,0,1.113,0
	c0,0.093,0,0.186,0,0.278C105.275,39.056,104.902,39.056,104.532,39.056z"/>
<path fill-rule="evenodd" clip-rule="evenodd" fill="#717171" d="M105.645,39.056c0-0.093,0-0.186,0-0.278c0.558,0,1.116,0,1.673,0
	c0,0.093,0,0.186,0,0.278C106.761,39.056,106.203,39.056,105.645,39.056z"/>
<path fill-rule="evenodd" clip-rule="evenodd" fill="#303030" d="M107.318,39.056c0-0.093,0-0.186,0-0.278c0.558,0,1.114,0,1.673,0
	C108.955,39.393,107.807,38.896,107.318,39.056z"/>
<path fill-rule="evenodd" clip-rule="evenodd" fill="#D4D4D4" d="M96.169,39.334c0.036-0.615,1.182-0.118,1.673-0.278
	c0,0.093,0,0.186,0,0.278C97.285,39.334,96.726,39.334,96.169,39.334z"/>
<path fill-rule="evenodd" clip-rule="evenodd" fill="#A2A2A2" d="M97.842,39.334c0-0.093,0-0.185,0-0.278c0.37,0,0.743,0,1.113,0
	c0,0.093,0,0.186,0,0.278C98.585,39.334,98.212,39.334,97.842,39.334z"/>
<path fill-rule="evenodd" clip-rule="evenodd" fill="#717171" d="M98.956,39.334c0-0.093,0-0.185,0-0.278c0.558,0,1.116,0,1.673,0
	c0,0.093,0,0.186,0,0.278C100.072,39.334,99.513,39.334,98.956,39.334z"/>
<path fill-rule="evenodd" clip-rule="evenodd" fill="#303030" d="M100.628,39.334c0-0.093,0-0.185,0-0.278c0.465,0,0.93,0,1.395,0
	C102.069,39.661,101.034,39.182,100.628,39.334z"/>
<path fill-rule="evenodd" clip-rule="evenodd" fill="#D4D4D4" d="M89.48,39.614c0.036-0.616,1.182-0.119,1.673-0.28
	c0,0.094,0,0.187,0,0.28C90.596,39.614,90.039,39.614,89.48,39.614z"/>
<path fill-rule="evenodd" clip-rule="evenodd" fill="#A2A2A2" d="M91.153,39.614c0-0.093,0-0.186,0-0.28c0.37,0,0.743,0,1.113,0
	c0,0.094,0,0.187,0,0.28C91.896,39.614,91.523,39.614,91.153,39.614z"/>
<path fill-rule="evenodd" clip-rule="evenodd" fill="#717171" d="M92.266,39.614c0-0.093,0-0.186,0-0.28c0.56,0,1.116,0,1.673,0
	c0,0.094,0,0.187,0,0.28C93.382,39.614,92.826,39.614,92.266,39.614z"/>
<path fill-rule="evenodd" clip-rule="evenodd" fill="#303030" d="M93.939,39.614c0-0.093,0-0.186,0-0.28c0.465,0,0.93,0,1.395,0
	C95.379,39.939,94.344,39.461,93.939,39.614z"/>
<path fill-rule="evenodd" clip-rule="evenodd" fill="#D4D4D4" d="M82.792,39.893c-0.048-0.604,0.987-0.126,1.393-0.278
	c0,0.092,0,0.185,0,0.278C83.72,39.893,83.255,39.893,82.792,39.893z"/>
<path fill-rule="evenodd" clip-rule="evenodd" fill="#A2A2A2" d="M84.185,39.893c0-0.093,0-0.186,0-0.278c0.465,0,0.93,0,1.395,0
	c0,0.092,0,0.185,0,0.278C85.115,39.893,84.65,39.893,84.185,39.893z"/>
<path fill-rule="evenodd" clip-rule="evenodd" fill="#717171" d="M85.58,39.893c0-0.093,0-0.186,0-0.278c0.465,0,0.927,0,1.392,0
	c0,0.092,0,0.185,0,0.278C86.506,39.893,86.044,39.893,85.58,39.893z"/>
<path fill-rule="evenodd" clip-rule="evenodd" fill="#303030" d="M86.971,39.893c0-0.093,0-0.186,0-0.278c0.56,0,1.116,0,1.673,0
	C88.608,40.229,87.462,39.732,86.971,39.893z"/>
<path fill-rule="evenodd" clip-rule="evenodd" fill="#A2A2A2" d="M77.774,40.171c0.086-0.378,0.699-0.231,1.116-0.278
	c0,0.093,0,0.185,0,0.278C78.517,40.171,78.147,40.171,77.774,40.171z"/>
<path fill-rule="evenodd" clip-rule="evenodd" fill="#303030" d="M82.512,39.893c0.094,0,0.187,0,0.28,0
	c-0.177,0.847,0.356,2.4-0.28,2.787C82.512,41.75,82.512,40.821,82.512,39.893z"/>
<path fill-rule="evenodd" clip-rule="evenodd" fill="#717171" d="M1.686,6.726C2.269,7.072,2.734,7.536,3.08,8.12
	C2.497,7.773,2.033,7.309,1.686,6.726z"/>
<path fill-rule="evenodd" clip-rule="evenodd" fill="#303030" d="M3.08,8.12c0.568,0.082,0.546,0.754,1.115,0.836
	c0.669,1.096,1.839,1.691,2.508,2.787C5.379,10.651,4.171,9.444,3.08,8.12z"/>
<path fill-rule="evenodd" clip-rule="evenodd" fill="#D4D4D4" d="M6.703,11.743c-0.669-1.096-1.839-1.691-2.508-2.787
	c1.231,0.999,2.346,2.113,3.344,3.345C7.173,12.202,7.101,11.809,6.703,11.743z"/>
<path fill-rule="evenodd" clip-rule="evenodd" fill="#A2A2A2" d="M7.539,12.3c0.583,0.346,1.048,0.81,1.394,1.393
	C8.35,13.347,7.885,12.883,7.539,12.3z"/>
<path fill-rule="evenodd" clip-rule="evenodd" fill="#717171" d="M8.933,13.693c0.86,0.626,1.604,1.37,2.229,2.23
	c-0.96,0.271-1.358,2.198-2.509,1.394c0.051-0.237-0.108-0.263-0.278-0.279c0-0.093,0-0.186,0-0.279
	c0.675-0.44,1.232-0.997,1.672-1.672C9.859,14.44,9.122,14.341,8.933,13.693z"/>
<path fill-rule="evenodd" clip-rule="evenodd" fill="#303030" d="M8.375,16.759c0.44-0.675,0.997-1.233,1.672-1.672
	C9.608,15.763,9.051,16.319,8.375,16.759z"/>
<path fill-rule="evenodd" clip-rule="evenodd" fill="#303030" d="M8.375,17.038c0.17,0.016,0.33,0.042,0.278,0.279
	c1.15,0.805,1.549-1.123,2.509-1.394c0.226,0.053,0.278,0.279,0.557,0.278c0.481,0.914,1.471,1.317,1.951,2.23
	c-0.86-0.626-1.604-1.37-2.229-2.23c-1.303,0.091-1.206,1.582-2.508,1.672c-0.124-0.248-0.245-0.498-0.558-0.557
	C8.375,17.224,8.375,17.131,8.375,17.038z"/>
<path fill-rule="evenodd" clip-rule="evenodd" fill="#D4D4D4" d="M13.671,18.432c-0.48-0.913-1.47-1.316-1.951-2.23
	c1.139,0.906,2.161,1.927,3.066,3.066C14.217,19.186,14.239,18.514,13.671,18.432z"/>
<path fill-rule="evenodd" clip-rule="evenodd" fill="#A2A2A2" d="M14.786,19.268c0.768,0.533,1.417,1.184,1.951,1.951
	C15.969,20.686,15.319,20.035,14.786,19.268z"/>
<path fill-rule="evenodd" clip-rule="evenodd" fill="#D4D4D4" d="M16.737,21.219c0.559,0.463,1.295,0.749,1.393,1.672
	C17.388,22.612,17.211,21.766,16.737,21.219z"/>
<path fill-rule="evenodd" clip-rule="evenodd" fill="#717171" d="M81.12,37.105c0-0.836,0-1.672,0-2.508c0.371,0,0.743,0,1.114,0
	c0.166,0.577-0.345,1.831,0.278,1.951c-0.103,0.474,0.218,0.526,0.559,0.558c0,0.093,0,0.186,0,0.279c-0.187,0-0.372,0-0.559,0
	C82.56,36.78,81.524,37.257,81.12,37.105z"/>
<path fill-rule="evenodd" clip-rule="evenodd" fill="#303030" d="M80.003,37.384c0.009-0.271,0.341-0.217,0.56-0.279
	c0.727-0.386-0.137-2.366,0.557-2.788c1.621-0.414,1.446,0.969,1.393,2.23c-0.623-0.12-0.112-1.374-0.278-1.951
	c-0.371,0-0.743,0-1.114,0c0,0.836,0,1.672,0,2.508c0,0.093,0,0.186,0,0.279C80.747,37.384,80.376,37.384,80.003,37.384z"/>
<path fill-rule="evenodd" clip-rule="evenodd" fill="#303030" d="M63.003,44.073c0.251-0.491,0.624-0.863,1.115-1.115
	C63.866,43.45,63.494,43.822,63.003,44.073z"/>
<path fill-rule="evenodd" clip-rule="evenodd" fill="#303030" d="M50.461,49.09c-0.252-0.492-0.624-0.863-1.115-1.115
	c0-0.093,0-0.187,0-0.278c0.583,0.346,1.048,0.811,1.393,1.394C50.646,49.09,50.554,49.09,50.461,49.09z"/>
<path fill-rule="evenodd" clip-rule="evenodd" fill="#303030" d="M41.542,26.235c0.346-0.583,0.811-1.047,1.394-1.394
	C42.589,25.425,42.125,25.89,41.542,26.235z"/>
<path fill-rule="evenodd" clip-rule="evenodd" fill="#303030" d="M81.955,20.661c0.253-0.491,0.623-0.863,1.116-1.114
	C82.819,20.038,82.446,20.409,81.955,20.661z"/>
<path fill-rule="evenodd" clip-rule="evenodd" fill="#303030" d="M85.3,20.661c0.76,0.204,0.56-0.554,1.114-0.557
	C86.327,20.427,85.553,21.417,85.3,20.661z"/>
<path fill-rule="evenodd" clip-rule="evenodd" fill="#717171" d="M83.071,19.547c0.438-0.676,0.996-1.233,1.671-1.673
	c-0.052,1.353,1.725,0.877,1.673,2.23c-0.555,0.003-0.354,0.761-1.114,0.557C84.452,20.436,84.097,18.723,83.071,19.547z"/>
<path fill-rule="evenodd" clip-rule="evenodd" fill="#D4D4D4" d="M49.346,47.975c0.491,0.252,0.863,0.623,1.115,1.115
	C49.969,48.838,49.598,48.466,49.346,47.975z"/>
<path fill-rule="evenodd" clip-rule="evenodd" fill="#D4D4D4" d="M63.003,44.073c0.491-0.251,0.863-0.623,1.115-1.115
	c0.093,0,0.186,0,0.278,0c-0.346,0.583-0.81,1.047-1.393,1.394C63.003,44.259,63.003,44.166,63.003,44.073z"/>
<path fill-rule="evenodd" clip-rule="evenodd" fill="#D4D4D4" d="M3.358,4.775c0.568,0.082,0.547,0.754,1.115,0.836
	C4.662,6.258,5.4,6.357,5.588,7.004C4.729,6.378,3.985,5.635,3.358,4.775z"/>
<path fill-rule="evenodd" clip-rule="evenodd" fill="#303030" d="M5.588,7.004C5.4,6.357,4.662,6.258,4.473,5.611
	C5.426,6.33,6.263,7.167,6.981,8.12C6.334,7.931,6.236,7.193,5.588,7.004z"/>
<path fill-rule="evenodd" clip-rule="evenodd" fill="#717171" d="M6.981,8.12c0.861,0.625,1.604,1.369,2.23,2.229
	C8.352,9.723,7.608,8.979,6.981,8.12z"/>
<path fill-rule="evenodd" clip-rule="evenodd" fill="#A2A2A2" d="M9.211,10.349c0.492,0.251,0.863,0.623,1.115,1.115
	C9.835,11.212,9.463,10.841,9.211,10.349z"/>
<path fill-rule="evenodd" clip-rule="evenodd" fill="#D4D4D4" d="M10.326,11.464c0.635,0.388,1.08,0.964,1.672,1.394
	c0,0.093,0,0.186,0,0.279C11.324,12.697,10.766,12.139,10.326,11.464z"/>
<path fill-rule="evenodd" clip-rule="evenodd" fill="#303030" d="M13.114,13.972c0.124-0.248,0.245-0.498,0.557-0.557
	c-0.147,0.224-0.291,0.452-0.278,0.836c0.401,0.156,0.68,0.435,0.836,0.836C13.737,14.835,13.366,14.463,13.114,13.972z"/>
<path fill-rule="evenodd" clip-rule="evenodd" fill="#717171" d="M14.229,15.087c0.768,0.532,1.418,1.183,1.951,1.951
	C15.412,16.505,14.761,15.854,14.229,15.087z"/>
<path fill-rule="evenodd" clip-rule="evenodd" fill="#A2A2A2" d="M16.179,17.038c0.953,0.719,1.789,1.555,2.509,2.509
	C17.735,18.827,16.898,17.991,16.179,17.038z"/>
<path fill-rule="evenodd" clip-rule="evenodd" fill="#717171" d="M18.688,19.547c0.491,0.251,0.862,0.623,1.114,1.114
	C19.311,20.409,18.939,20.038,18.688,19.547z"/>
<path fill-rule="evenodd" clip-rule="evenodd" fill="#717171" d="M64.675,46.302c0.439-0.675,0.997-1.232,1.672-1.672
	C65.908,45.306,65.35,45.863,64.675,46.302z"/>
<path fill-rule="evenodd" clip-rule="evenodd" fill="#717171" d="M47.395,49.647c0.492,0.252,0.863,0.624,1.115,1.115
	C48.019,50.51,47.647,50.138,47.395,49.647z"/>
<path fill-rule="evenodd" clip-rule="evenodd" fill="#717171" d="M39.87,24.005c0.252-0.491,0.624-0.863,1.115-1.114
	C40.733,23.382,40.361,23.754,39.87,24.005z"/>
<path fill-rule="evenodd" clip-rule="evenodd" fill="#717171" d="M82.792,15.923c-0.347,0.583-0.812,1.047-1.395,1.394
	c0-0.093,0-0.186,0-0.279c-0.568-0.082-0.547-0.754-1.116-0.836c-0.671-0.547-0.641-1.393,0.281-1.672
	C81.486,14.812,81.434,16.073,82.792,15.923z"/>
<path fill-rule="evenodd" clip-rule="evenodd" fill="#303030" d="M80.282,16.202c-0.564-0.203-1.138-0.838-0.557-1.393
	c0.4,0.149,0.682-1.086,0.838-0.279C79.641,14.809,79.611,15.654,80.282,16.202z"/>
<path fill-rule="evenodd" clip-rule="evenodd" fill="#303030" d="M80.282,18.432c0.253-0.491,0.626-0.863,1.116-1.115
	C81.146,17.809,80.775,18.18,80.282,18.432z"/>
<path fill-rule="evenodd" clip-rule="evenodd" fill="#303030" d="M81.12,40.45c0.806,0.124-0.248,2.106,0.557,2.23
	c0,0.093,0,0.186,0,0.278C80.753,42.86,81.24,41.352,81.12,40.45z"/>
<path fill-rule="evenodd" clip-rule="evenodd" fill="#717171" d="M83.627,76.125c0.009-0.271,0.341-0.217,0.558-0.279
	c-0.164-1.399-1.332-3.021-0.836-4.181c0.852,0.202,0.819-0.48,1.671-0.278c0.688,0.894,0.952,2.208,1.116,3.623
	c0.187,0,0.37,0,0.557,0C86.03,75.741,84.601,75.706,83.627,76.125z"/>
<path fill-rule="evenodd" clip-rule="evenodd" fill="#303030" d="M13.95,11.185c0.001-0.682,1.519,0.835,0.836,0.836
	c0-0.092,0-0.185,0-0.278C14.42,11.644,14.347,11.252,13.95,11.185z"/>
<path fill-rule="evenodd" clip-rule="evenodd" fill="#717171" d="M10.326,0.594c0.208-0.628,1.563-0.109,2.23-0.278
	C12.349,0.944,10.993,0.424,10.326,0.594z"/>
<path fill-rule="evenodd" clip-rule="evenodd" fill="#717171" d="M25.098,0.316c0.667,0.169,2.022-0.35,2.229,0.278
	C26.662,0.424,25.306,0.944,25.098,0.316z"/>
<path fill-rule="evenodd" clip-rule="evenodd" fill="#A2A2A2" d="M12.556,3.103c0.035-0.616,1.183-0.118,1.672-0.278
	c0,0.092,0,0.185,0,0.278C13.671,3.103,13.114,3.103,12.556,3.103z"/>
<path fill-rule="evenodd" clip-rule="evenodd" fill="#A2A2A2" d="M23.426,2.824c0.49,0.16,1.637-0.337,1.672,0.278
	c-0.557,0-1.115,0-1.672,0C23.426,3.009,23.426,2.917,23.426,2.824z"/>
<path fill-rule="evenodd" clip-rule="evenodd" fill="#717171" d="M9.49,3.381c0.12-0.624,1.374-0.113,1.951-0.279
	C11.321,3.726,10.068,3.216,9.49,3.381z"/>
<path fill-rule="evenodd" clip-rule="evenodd" fill="#717171" d="M26.213,3.103c0.578,0.166,1.831-0.345,1.951,0.279
	C27.586,3.216,26.333,3.726,26.213,3.103z"/>
<path fill-rule="evenodd" clip-rule="evenodd" fill="#717171" d="M59.101,5.611c0.578,0.166,1.831-0.345,1.952,0.279
	C60.474,5.724,59.221,6.234,59.101,5.611z"/>
<path fill-rule="evenodd" clip-rule="evenodd" fill="#A2A2A2" d="M61.888,5.89c0.464,0,0.929,0,1.394,0c0,0.093,0,0.186,0,0.278
	C62.876,6.016,61.841,6.494,61.888,5.89z"/>
<path fill-rule="evenodd" clip-rule="evenodd" fill="#717171" d="M80.282,6.447c1.307,0.18,3.338-0.365,4.182,0.278
	c-1.393,0-2.787,0-4.182,0C80.282,6.633,80.282,6.541,80.282,6.447z"/>
<path fill-rule="evenodd" clip-rule="evenodd" fill="#717171" d="M57.428,8.12c0.49,0.16,1.638-0.337,1.672,0.278
	C58.611,8.238,57.463,8.735,57.428,8.12z"/>
<path fill-rule="evenodd" clip-rule="evenodd" fill="#717171" d="M59.937,8.398c0.578,0.166,1.831-0.344,1.952,0.278
	C61.311,8.511,60.057,9.021,59.937,8.398z"/>
<path fill-rule="evenodd" clip-rule="evenodd" fill="#717171" d="M88.087,10.07c0.459,0.124,0.459,2.106,0,2.23
	C88.087,11.557,88.087,10.813,88.087,10.07z"/>
<path fill-rule="evenodd" clip-rule="evenodd" fill="#717171" d="M68.298,25.678c0.557,0,1.115,0,1.672,0
	c-0.034,0.616-1.182,0.118-1.672,0.279C68.298,25.864,68.298,25.771,68.298,25.678z"/>
<path fill-rule="evenodd" clip-rule="evenodd" fill="#717171" d="M121.811,35.433c1.029,0.178,2.776-0.361,3.346,0.279
	c-1.116,0-2.23,0-3.346,0C121.811,35.619,121.811,35.525,121.811,35.433z"/>
<path fill-rule="evenodd" clip-rule="evenodd" fill="#717171" d="M78.89,39.893c1.208,0,2.416,0,3.622,0c0,0.929,0,1.858,0,2.787
	c-0.278,0-0.558,0-0.836,0c-0.805-0.124,0.249-2.106-0.557-2.23c-0.208-0.628-1.564-0.109-2.229-0.279
	C78.89,40.078,78.89,39.985,78.89,39.893z"/>
<path fill-rule="evenodd" clip-rule="evenodd" fill="#303030" d="M53.805,50.205c0.836,0,1.672,0,2.509,0
	C56.102,50.666,54.017,50.666,53.805,50.205z"/>
<path fill-rule="evenodd" clip-rule="evenodd" fill="#303030" d="M53.527,52.992c0.836,0,1.672,0,2.508,0
	C55.823,53.453,53.738,53.453,53.527,52.992z"/>
<path fill-rule="evenodd" clip-rule="evenodd" fill="#FFFFFF" d="M12.556,0.316c0.464,0,0.929,0,1.394,0s0.929,0,1.394,0
	c0.65,0,1.3,0,1.951,0c0.929,0,1.858,0,2.788,0c0.743,0,1.486,0,2.229,0c0.464,0,0.929,0,1.394,0c0.464,0,0.929,0,1.394,0
	c0.208,0.628,1.563,0.108,2.229,0.278c11.15,1.113,20.924,3.602,31.773,5.017c0.12,0.624,1.374,0.113,1.952,0.279
	c0.278,0,0.557,0,0.836,0c-0.047,0.604,0.988,0.126,1.394,0.278c0.371,0,0.743,0,1.114,0c0.186,0,0.373,0,0.558,0
	c-0.046,0.605,0.989,0.127,1.394,0.279c0.464,0,0.929,0,1.393,0c0.836,0,1.673,0,2.509,0c1.021,0,2.043,0,3.064,0
	c0.651,0,1.303,0,1.952,0c0.386,0.635,1.94,0.104,2.786,0.278c0.743,0,1.486,0,2.229,0c1.395,0,2.789,0,4.182,0
	c2.138,0.186,3.249,1.397,3.624,3.345c0,0.743,0,1.486,0,2.23c-0.549,2.424-2.166,3.781-3.346,5.574
	c-0.675,0.44-1.232,0.997-1.671,1.673c-0.493,0.251-0.863,0.623-1.116,1.114c-3.205,2.462-6.619,4.715-11.984,5.017
	c-0.557,0-1.115,0-1.672,0c-0.65,0-1.301,0-1.951,0c-0.558,0-1.115,0-1.672,0c-5.615-0.517-10.843-1.421-16.166-2.229
	c-0.211-0.461-2.297-0.461-2.508,0c-1.102,0.384-2.168,0.805-3.066,1.393c-0.583,0.346-1.047,0.811-1.394,1.394
	c-3.369,4.24,0.661,9.524,2.787,13.099c1.825,3.069,3.69,5.976,5.017,8.362c0,0.092,0,0.186,0,0.278
	c0.251,0.491,0.623,0.863,1.115,1.115c0.093,0,0.186,0,0.278,0c0.97,0.423,1.729,1.058,3.066,1.114c0.212,0.461,2.297,0.461,2.509,0
	c3.623-0.558,4.347-4.015,6.689-5.853c0.583-0.347,1.047-0.811,1.393-1.394c2.617-2.865,6.246-4.717,11.148-5.295
	c1.029-0.178,2.776,0.361,3.346-0.278c0.37,0,0.743,0,1.113,0c0.373,0,0.743,0,1.116,0c0.465,0,0.928,0,1.393,0
	c0.187,0,0.372,0,0.559,0c0.465,0,0.928,0,1.393,0c0.404-0.153,1.44,0.326,1.395-0.279c0.278,0,0.557,0,0.835,0
	c0.558,0,1.116,0,1.673,0c0.558,0,1.114,0,1.673,0c0.371,0,0.743,0,1.114,0c0.404-0.152,1.44,0.326,1.395-0.279
	c0.278,0,0.557,0,0.835,0c0.557,0,1.114,0,1.673,0c0.465,0,0.928,0,1.393,0s0.93,0,1.395,0c0.404-0.152,1.44,0.326,1.393-0.278
	c0.278,0,0.559,0,0.837,0c0.557,0,1.114,0,1.671,0c0.465,0,0.93,0,1.395,0s0.93,0,1.395,0c0.404-0.152,1.44,0.326,1.392-0.279
	c0.279,0,0.56,0,0.838,0c0.557,0,1.114,0,1.671,0c0.559,0,1.116,0,1.673,0c0.372,0,0.743,0,1.116,0
	c0.404-0.152,1.44,0.326,1.392-0.279c0.279,0,0.558,0,0.838,0c0.557,0,1.114,0,1.671,0s1.115,0,1.673,0c0.465,0,0.93,0,1.395,0
	c0.44-0.023,1.062,0.134,1.113-0.278c0.278,0,0.558,0,0.836,0c0.559,0,1.115,0,1.673,0c1.115,0,2.229,0,3.346,0
	c1.464,0.084,2.925,0.669,4.179,1.672c1.303,1.039,2.111,2.272,2.787,4.18c0.991,2.796,1.799,5.707,2.788,8.919
	c0.52,1.69,1.633,4.267,1.949,6.409c0,0.651,0,1.302,0,1.951c-0.685,1.99-2.73,3.329-4.457,4.46
	c-1.334,0.873-2.753,1.375-4.46,2.229c-0.867,0.434-2.298,1.245-3.624,1.672c-1.576,0.508-3.376,0.919-5.017,1.394
	c-0.909,0.265-1.631,0.305-2.508,0.559c-1.615,0.464-3.138,1.195-4.738,1.671c-1.715,0.511-3.368,0.913-5.017,1.395
	c-6.758,1.972-13.495,3.862-19.789,5.574c-0.854,0.354-2.02,0.396-2.787,0.836c-5.021,1.726-10.426,3.049-16.165,4.738
	c-1.876,0.553-4.173,1.374-6.41,1.951c-1.358,0.35-2.435,0.724-3.345,0.557c-2.057-0.375-1.959-1.765-3.066-3.623
	c-0.181-0.305-0.612-0.486-0.836-0.836c-0.288-0.45-0.331-0.787-0.557-1.115c-1.002-1.454-1.722-2.212-2.787-3.623
	c-0.243-0.321-0.308-0.803-0.558-1.115c-0.506-0.633-1.55-1.59-2.229-2.508c-0.279-0.377-0.306-0.753-0.557-1.115
	c-0.069-0.099-0.518-0.19-0.558-0.278c-0.062-0.137,0.087-0.439,0-0.558c-0.473-0.637-1.217-1.073-1.672-1.672
	c-0.253-0.333-0.312-0.78-0.558-1.115c-0.602-0.821-1.437-1.736-2.23-2.787c-0.217-0.288-0.296-0.787-0.558-1.114
	c-0.38-0.478-0.867-0.938-1.393-1.673c-1.297-1.809-3.132-4.478-4.459-6.688C29.461,44.284,25.768,31.436,18.13,22.891
	c-0.098-0.924-0.834-1.209-1.393-1.672c-0.533-0.767-1.183-1.418-1.951-1.951c-0.905-1.139-1.928-2.16-3.066-3.066
	c-0.279,0.001-0.331-0.225-0.557-0.278c-0.626-0.86-1.37-1.604-2.229-2.23C8.587,13.11,8.122,12.646,7.539,12.3
	c-0.998-1.232-2.113-2.346-3.344-3.345C3.626,8.874,3.648,8.201,3.08,8.12C2.734,7.536,2.269,7.072,1.686,6.726
	C0.561,5.914-0.108,5.297,0.014,3.938c0.281-3.121,6.874-2.876,10.312-3.344C10.993,0.424,12.349,0.944,12.556,0.316z M16.737,2.824
	c-0.372,0-0.743,0-1.115,0c-0.464,0-0.929,0-1.393,0c-0.49,0.16-1.638-0.337-1.672,0.278c-0.372,0-0.743,0-1.115,0
	C10.864,3.268,9.61,2.758,9.49,3.381C7.5,3.622,5.727,4.077,3.637,4.217c0.001,0.28-0.226,0.332-0.279,0.558
	c0.626,0.86,1.37,1.604,2.23,2.229C6.236,7.193,6.334,7.931,6.981,8.12c0.627,0.86,1.37,1.603,2.23,2.229
	c0.252,0.492,0.624,0.863,1.115,1.115c0.44,0.675,0.998,1.233,1.672,1.672c0.568,0.082,0.546,0.754,1.115,0.836
	c0.252,0.491,0.624,0.863,1.115,1.115c0.533,0.767,1.184,1.418,1.951,1.951c0.719,0.953,1.556,1.789,2.509,2.509
	c0.251,0.491,0.623,0.862,1.114,1.114c1.942,1.765,3.44,4.194,4.739,6.132c0.217,0.325,0.625,0.502,0.836,0.836
	c0.221,0.351,0.079,0.76,0.278,1.115c0.185,0.326,0.647,0.513,0.836,0.836c0.416,0.71,0.733,1.5,1.115,2.229
	c0.332,0.633,0.773,1.228,1.115,1.951c0.345,0.732,0.488,1.771,0.836,2.508c1.342,2.845,2.853,5.513,4.181,8.361
	c1.668,3.582,3.669,7.248,5.574,10.313c1.657,2.665,3.426,5.354,5.017,7.525c3.214,4.389,6.304,8.618,9.476,12.82
	c1.852,2.453,4.032,4.789,5.017,7.805c8.483-2.109,16.288-4.895,24.805-6.968c0.974-0.42,2.402-0.385,3.065-1.115
	c8.074-2.206,16.69-4.773,25.085-7.246c8.313-2.45,17.031-4.075,22.574-9.756c-1.146-3.419-2.757-8.921-3.9-12.541
	c-0.714-2.256-1.345-3.931-2.23-5.018c-0.891-1.093-1.281-1.214-2.508-1.672c-0.619-0.231-1.092-0.505-1.673-0.558
	c0.2-0.452-1.314-0.452-1.114,0c-0.186,0-0.372,0-0.559,0c-0.557,0-1.114,0-1.671,0c-0.559,0-1.116,0-1.673,0
	c-0.372,0-0.743,0-1.116,0c-0.488,0.16-1.637-0.337-1.671,0.278c-0.186,0-0.372,0-0.559,0c-0.557,0-1.113,0-1.671,0
	c-0.557,0-1.115,0-1.673,0c-0.37,0-0.743,0-1.113,0c-0.491,0.161-1.64-0.336-1.673,0.279c-0.187,0-0.373,0-0.558,0
	c-0.559,0-1.115,0-1.673,0c-0.557,0-1.115,0-1.673,0c-0.37,0-0.743,0-1.113,0c-0.491,0.16-1.639-0.337-1.673,0.278
	c-0.278,0-0.558,0-0.836,0c-0.465,0-0.93,0-1.395,0c-0.557,0-1.115,0-1.673,0c-0.37,0-0.743,0-1.113,0
	c-0.491,0.16-1.637-0.337-1.673,0.278c-0.278,0-0.558,0-0.836,0c-0.465,0-0.93,0-1.395,0c-0.557,0-1.113,0-1.673,0
	c-0.37,0-0.743,0-1.113,0c-0.491,0.161-1.637-0.336-1.673,0.28c-0.278,0-0.557,0-0.836,0c-0.557,0-1.113,0-1.673,0
	c-0.465,0-0.927,0-1.392,0s-0.93,0-1.395,0c-0.405,0.152-1.44-0.326-1.393,0.278c-0.094,0-0.187,0-0.28,0c-1.206,0-2.414,0-3.622,0
	c-0.417,0.047-1.03-0.1-1.116,0.278c-5.024,0.271-8.364,2.226-11.426,4.459c-0.675,0.439-1.233,0.997-1.672,1.672
	c-2.067,3.043-3.839,6.381-8.64,6.689c-0.836,0-1.672,0-2.508,0c-2.353-0.063-3.77-1.062-5.017-2.229
	c-0.252-0.491-0.623-0.863-1.115-1.115c-0.344-0.004-0.165-0.305-0.279-0.557c-0.042-0.094-0.489-0.174-0.557-0.279
	c-0.221-0.343-0.359-0.795-0.558-1.114c-0.855-1.382-1.488-2.654-2.23-3.902c-0.219-0.369-0.297-0.657-0.557-1.115
	c-0.153-0.27-0.667-0.549-0.836-0.836c-0.214-0.365-0.075-0.754-0.279-1.115c-0.184-0.326-0.646-0.514-0.836-0.836
	c-0.082-0.139,0.067-0.41,0-0.558c-0.044-0.097-0.491-0.164-0.557-0.278c-0.208-0.359-0.342-0.752-0.558-1.114
	c-1.241-2.086-2.397-3.76-2.508-6.132c0-0.929,0-1.858,0-2.787c0.063-2.352,1.062-3.769,2.229-5.017
	c0.492-0.251,0.863-0.623,1.115-1.114c1.947-1.977,4.599-2.517,8.361-2.23c4.121,0.316,8.794,1.49,12.263,1.952
	c1.558,0.207,3.129,0.101,4.459,0.557c0.301,0.461,2.486,0.461,2.787,0c4.765-0.623,8.458-2.32,11.426-4.738
	c0.493-0.252,0.864-0.623,1.116-1.115c0.583-0.346,1.048-0.811,1.395-1.394c0.781-1.912,2.521-2.866,2.787-5.295
	c-0.621-1.331-2.419-1.485-4.46-1.394c-0.387-0.635-1.941-0.104-2.787-0.278c-0.837,0-1.673,0-2.51,0c-0.928,0-1.857,0-2.787,0
	c-1.113,0-2.229,0-3.344,0c-0.557,0-1.115,0-1.672,0c-0.035-0.616-1.183-0.118-1.672-0.279c-0.372,0-0.743,0-1.115,0
	c-0.372,0-0.743,0-1.115,0s-0.743,0-1.115,0s-0.743,0-1.115,0c-0.121-0.623-1.374-0.112-1.952-0.278c-0.278,0-0.557,0-0.836,0
	c-0.035-0.616-1.183-0.118-1.672-0.278C47.286,6.927,38.08,4.8,28.164,3.381c-0.12-0.624-1.374-0.113-1.951-0.279
	c-0.372,0-0.743,0-1.115,0c-0.035-0.616-1.182-0.118-1.672-0.278c-0.465,0-0.93,0-1.394,0c-0.372,0-0.743,0-1.115,0
	C20.163,2.361,17.491,2.361,16.737,2.824z"/>
<path fill-rule="evenodd" clip-rule="evenodd" fill="#A2A2A2" d="M75.544,37.663c0.568-0.64,2.315-0.101,3.346-0.278
	C78.321,38.023,76.574,37.485,75.544,37.663z"/>
<path fill-rule="evenodd" clip-rule="evenodd" fill="#717171" d="M46.001,23.449c0.211-0.461,2.297-0.461,2.508,0
	C47.674,23.449,46.837,23.449,46.001,23.449z"/>
<path fill-rule="evenodd" clip-rule="evenodd" fill="#717171" d="M84.463,78.633c0.768-0.44,1.934-0.481,2.787-0.836
	c0.096,1.576,0.656,2.688,1.115,3.901c-0.535,0.488-1.454,0.591-2.229,0.836c-0.354-1.317-0.762-2.584-1.116-3.901
	C84.836,78.633,84.65,78.633,84.463,78.633z"/>
<path fill-rule="evenodd" clip-rule="evenodd" fill="#717171" d="M64.675,25.678c0.557,0,1.115,0,1.672,0c0,0.093,0,0.186,0,0.279
	C65.857,25.796,64.71,26.294,64.675,25.678z"/>
<path fill-rule="evenodd" clip-rule="evenodd" fill="#717171" d="M37.64,29.022c0,0.929,0,1.858,0,2.787
	C37.179,31.509,37.179,29.323,37.64,29.022z"/>
<path fill-rule="evenodd" clip-rule="evenodd" fill="#717171" d="M136.86,56.893c0.461,0.038,0.461,1.914,0,1.951
	C136.86,58.195,136.86,57.544,136.86,56.893z"/>
</svg>
