<?xml version="1.0" encoding="utf-8"?>
<!-- Generator: Adobe Illustrator 15.0.0, SVG Export Plug-In  -->
<!DOCTYPE svg PUBLIC "-//W3C//DTD SVG 1.1//EN" "http://www.w3.org/Graphics/SVG/1.1/DTD/svg11.dtd" [
	<!ENTITY ns_flows "http://ns.adobe.com/Flows/1.0/">
]>
<svg version="1.1"
	 xmlns="http://www.w3.org/2000/svg" xmlns:xlink="http://www.w3.org/1999/xlink" xmlns:a="http://ns.adobe.com/AdobeSVGViewerExtensions/3.0/"
	 x="0px" y="0px" width="142px" height="142px" viewBox="-2.723 -25.753 142 142" enable-background="new -2.723 -25.753 142 142"
	 xml:space="preserve">
<defs>
</defs>
<path fill-rule="evenodd" clip-rule="evenodd" fill="#323232" d="M27.936,0.29c0.452-0.2,0.452,1.314,0,1.115
	C27.936,1.033,27.936,0.661,27.936,0.29z"/>
<path fill-rule="evenodd" clip-rule="evenodd" fill="#323232" d="M14,2.798c0.035-0.616,1.182-0.119,1.672-0.279
	c0,0.093,0,0.186,0,0.279C15.115,2.798,14.558,2.798,14,2.798z"/>
<path fill-rule="evenodd" clip-rule="evenodd" fill="#727272" d="M15.672,2.798c0-0.093,0-0.187,0-0.279c0.744,0,1.487,0,2.23,0
	c0,0.093,0,0.186,0,0.279C17.159,2.798,16.416,2.798,15.672,2.798z"/>
<path fill-rule="evenodd" clip-rule="evenodd" fill="#A6A6A6" d="M17.902,2.798c0-0.093,0-0.187,0-0.279c0.743,0,1.486,0,2.23,0
	c0,0.093,0,0.186,0,0.279C19.388,2.798,18.645,2.798,17.902,2.798z"/>
<path fill-rule="evenodd" clip-rule="evenodd" fill="#727272" d="M20.132,2.798c0-0.093,0-0.187,0-0.279c0.743,0,1.486,0,2.229,0
	c0,0.093,0,0.186,0,0.279C21.618,2.798,20.875,2.798,20.132,2.798z"/>
<path fill-rule="evenodd" clip-rule="evenodd" fill="#323232" d="M22.361,2.798c0-0.093,0-0.187,0-0.279
	c0.405,0.152,1.44-0.326,1.394,0.279C23.29,2.798,22.826,2.798,22.361,2.798z"/>
<path fill-rule="evenodd" clip-rule="evenodd" fill="#D7D7D7" d="M17.066,5.307c0.663-0.463,3.239-0.463,3.902,0
	C19.667,5.307,18.367,5.307,17.066,5.307z"/>
<path fill-rule="evenodd" clip-rule="evenodd" fill="#323232" d="M14.279,5.585c0-0.093,0-0.186,0-0.278c0.558,0,1.115,0,1.672,0
	C15.917,5.922,14.769,5.425,14.279,5.585z"/>
<path fill-rule="evenodd" clip-rule="evenodd" fill="#323232" d="M22.083,5.307c0.558,0,1.115,0,1.672,0c0,0.092,0,0.185,0,0.278
	C23.265,5.425,22.117,5.922,22.083,5.307z"/>
<path fill-rule="evenodd" clip-rule="evenodd" fill="#323232" d="M25.985,5.585c0.093,0,0.186,0,0.278,0
	c-0.152,0.405,0.326,1.44-0.278,1.393C25.985,6.514,25.985,6.05,25.985,5.585z"/>
<path fill-rule="evenodd" clip-rule="evenodd" fill="#A6A6A6" d="M26.82,5.585c0.405,0.152,1.441-0.326,1.394,0.279
	c-0.186,0-0.372,0-0.558,0c-0.093,0-0.186,0-0.279,0C27.162,5.801,26.829,5.856,26.82,5.585z"/>
<path fill-rule="evenodd" clip-rule="evenodd" fill="#323232" d="M27.378,5.864c0.093,0,0.186,0,0.279,0
	c-0.152,0.405,0.326,1.44-0.279,1.394C27.378,6.793,27.378,6.328,27.378,5.864z"/>
<path fill-rule="evenodd" clip-rule="evenodd" fill="#323232" d="M63.332,8.65c0-0.092,0-0.185,0-0.278
	c0.417,0.048,1.028-0.1,1.114,0.278C64.075,8.65,63.703,8.65,63.332,8.65z"/>
<path fill-rule="evenodd" clip-rule="evenodd" fill="#D7D7D7" d="M65.004,8.65c0.465,0,0.929,0,1.394,0c0,0.093,0,0.186,0,0.279
	C65.993,8.777,64.958,9.255,65.004,8.65z"/>
<path fill-rule="evenodd" clip-rule="evenodd" fill="#A6A6A6" d="M66.398,8.93c0-0.093,0-0.186,0-0.279c0.464,0,0.929,0,1.393,0
	c0,0.093,0,0.186,0,0.279C67.327,8.93,66.862,8.93,66.398,8.93z"/>
<path fill-rule="evenodd" clip-rule="evenodd" fill="#727272" d="M67.791,8.93c0-0.093,0-0.186,0-0.279c0.65,0,1.301,0,1.951,0
	c0,0.093,0,0.186,0,0.279C69.092,8.93,68.441,8.93,67.791,8.93z"/>
<path fill-rule="evenodd" clip-rule="evenodd" fill="#323232" d="M69.742,8.93c0-0.093,0-0.186,0-0.279
	c0.848,0.175,2.4-0.356,2.787,0.279C71.6,8.93,70.672,8.93,69.742,8.93z"/>
<path fill-rule="evenodd" clip-rule="evenodd" fill="#D7D7D7" d="M75.595,8.93c0.187,0,0.372,0,0.559,0c0.649,0,1.3,0,1.949,0
	c0,0.093,0,0.186,0,0.278C77.348,9.035,75.891,9.562,75.595,8.93z"/>
<path fill-rule="evenodd" clip-rule="evenodd" fill="#A6A6A6" d="M78.103,9.208c0-0.093,0-0.185,0-0.278c0.743,0,1.486,0,2.229,0
	c0,0.093,0,0.186,0,0.278C79.589,9.208,78.846,9.208,78.103,9.208z"/>
<path fill-rule="evenodd" clip-rule="evenodd" fill="#A6A6A6" d="M65.283,11.438c0-0.093,0-0.186,0-0.279c0.558,0,1.115,0,1.672,0
	c0,0.093,0,0.187,0,0.279C66.398,11.438,65.84,11.438,65.283,11.438z"/>
<path fill-rule="evenodd" clip-rule="evenodd" fill="#D7D7D7" d="M66.955,11.438c0-0.093,0-0.186,0-0.279
	c0.491,0.161,1.638-0.336,1.672,0.279C68.07,11.438,67.512,11.438,66.955,11.438z"/>
<path fill-rule="evenodd" clip-rule="evenodd" fill="#323232" d="M69.742,11.438c0.836,0,1.673,0,2.509,0c0,0.093,0,0.186,0,0.278
	C71.493,11.544,70.038,12.07,69.742,11.438z"/>
<path fill-rule="evenodd" clip-rule="evenodd" fill="#A6A6A6" d="M76.153,11.716c-0.406-0.152-1.442,0.326-1.395-0.278
	c1.395,0,2.787,0,4.182,0c0,0.093,0,0.186,0,0.278C78.011,11.716,77.081,11.716,76.153,11.716z"/>
<path fill-rule="evenodd" clip-rule="evenodd" fill="#D7D7D7" d="M78.94,11.716c0-0.093,0-0.185,0-0.278
	c0.847,0.175,2.399-0.357,2.786,0.278C80.797,11.716,79.87,11.716,78.94,11.716z"/>
<path fill-rule="evenodd" clip-rule="evenodd" fill="#A6A6A6" d="M57.479,24.538c-0.441-0.023-1.063,0.134-1.114-0.279
	C56.781,24.306,57.393,24.159,57.479,24.538z"/>
<path fill-rule="evenodd" clip-rule="evenodd" fill="#D7D7D7" d="M66.119,25.652c0.929,0,1.858,0,2.787,0
	C68.605,26.113,66.42,26.113,66.119,25.652z"/>
<path fill-rule="evenodd" clip-rule="evenodd" fill="#323232" d="M26.542,1.125c-0.118-0.583,0.191-0.738,0.278-1.115
	c0.324-0.045,0.497,0.063,0.558,0.279C26.387-0.144,27.209,1.236,26.542,1.125z"/>
<path fill-rule="evenodd" clip-rule="evenodd" fill="#727272" d="M26.542,1.125c0.667,0.11-0.155-1.27,0.836-0.836
	c0.186,0,0.372,0,0.558,0c0,0.372,0,0.743,0,1.115c0,0.558,0,1.115,0,1.672c-0.848-0.175-2.401,0.356-2.787-0.278
	c0.464,0,0.929,0,1.394,0C26.542,2.24,26.542,1.683,26.542,1.125z"/>
<path fill-rule="evenodd" clip-rule="evenodd" fill="#727272" d="M2.016,9.486c0.675,0.44,1.232,0.998,1.672,1.672
	C3.013,10.72,2.455,10.162,2.016,9.486z"/>
<path fill-rule="evenodd" clip-rule="evenodd" fill="#323232" d="M3.688,11.159c0.366,0.099,0.438,0.492,0.836,0.558
	c0.385,0.823,1.288,1.128,1.672,1.951C5.243,12.948,4.407,12.112,3.688,11.159z"/>
<path fill-rule="evenodd" clip-rule="evenodd" fill="#D7D7D7" d="M6.196,13.667c-0.385-0.823-1.287-1.128-1.672-1.951
	c0.953,0.72,1.79,1.556,2.508,2.509C6.666,14.126,6.594,13.734,6.196,13.667z"/>
<path fill-rule="evenodd" clip-rule="evenodd" fill="#A6A6A6" d="M7.032,14.225c0.768,0.533,1.418,1.184,1.952,1.951
	C8.215,15.643,7.565,14.993,7.032,14.225z"/>
<path fill-rule="evenodd" clip-rule="evenodd" fill="#727272" d="M8.983,16.176c0.767,0.534,1.418,1.183,1.951,1.952
	C10.166,17.594,9.516,16.944,8.983,16.176z"/>
<path fill-rule="evenodd" clip-rule="evenodd" fill="#323232" d="M10.934,18.127c0.366,0.098,0.438,0.491,0.836,0.557
	c0.386,0.823,1.287,1.128,1.673,1.951C12.49,19.917,11.653,19.08,10.934,18.127z"/>
<path fill-rule="evenodd" clip-rule="evenodd" fill="#D7D7D7" d="M13.443,20.635c-0.386-0.823-1.287-1.128-1.673-1.951
	c1.139,0.906,2.161,1.927,3.066,3.066C14.188,21.562,14.09,20.824,13.443,20.635z"/>
<path fill-rule="evenodd" clip-rule="evenodd" fill="#A6A6A6" d="M14.836,21.75c0.491,0.252,0.863,0.624,1.115,1.115
	c-0.093,0-0.186,0-0.279,0C15.59,22.297,14.918,22.318,14.836,21.75z"/>
<path fill-rule="evenodd" clip-rule="evenodd" fill="#323232" d="M14,24.816c0.346-0.583,0.811-1.048,1.394-1.394
	C15.047,24.006,14.583,24.47,14,24.816z"/>
<path fill-rule="evenodd" clip-rule="evenodd" fill="#727272" d="M17.066,24.259c-1.025,0.183-1.388,1.027-1.951,1.672
	c-0.491-0.252-0.863-0.624-1.115-1.115c0.583-0.346,1.047-0.81,1.394-1.394c0.271-0.008,0.216-0.341,0.278-0.557
	c0.093,0,0.186,0,0.279,0C16.139,23.512,16.877,23.611,17.066,24.259z"/>
<path fill-rule="evenodd" clip-rule="evenodd" fill="#D7D7D7" d="M17.066,24.259c-0.189-0.648-0.927-0.747-1.115-1.394
	c0.823,0.756,1.869,1.289,2.229,2.508C17.526,25.285,17.557,24.511,17.066,24.259z"/>
<path fill-rule="evenodd" clip-rule="evenodd" fill="#727272" d="M18.18,25.374c0.492,0.251,0.864,0.623,1.115,1.114
	C18.804,26.236,18.432,25.865,18.18,25.374z"/>
<path fill-rule="evenodd" clip-rule="evenodd" fill="#323232" d="M19.574,27.046c0.093,0,0.186,0,0.278,0
	c1.371,1.603,2.857,3.089,4.46,4.459c0.252,0.492,0.624,0.863,1.115,1.115c0.252,0.492,0.624,0.864,1.115,1.115
	c0.568,0.082,0.546,0.754,1.115,0.836c1.199,1.946,2.203,4.821,3.344,7.246c0.29,0.615,0.838,1.054,1.115,1.673
	c0.257,0.576,0.268,1.337,0.558,1.951c0.526,1.117,1.13,2.267,1.672,3.344c1.417,2.819,3.134,5.654,4.738,8.362
	c0.617,1.04,1.244,1.94,1.951,3.065c0.355,0.564,0.484,1.158,0.836,1.672c0.369,0.54,0.999,0.815,1.394,1.395
	c0.323,0.474,0.494,1.191,0.836,1.672c0.325,0.456,0.791,0.97,1.115,1.393c2.446,3.2,5.214,6.859,7.804,10.313
	c1.271,1.695,2.469,3.381,3.902,5.297c0.13,0.173,0.475,0.416,0.557,0.557c0.6,1.019,0.523,2.634,1.952,3.066
	c7.387-2.073,14.718-4.296,22.018-6.411c1.591-0.461,3.153-0.93,4.738-1.394c0.865-0.253,1.659-0.307,2.508-0.557
	c1.567-0.463,3.16-1.207,4.738-1.673c0.85-0.251,1.641-0.304,2.509-0.558c6.974-2.04,14.151-4.195,21.738-6.41
	c4.328-1.263,7.876-1.972,11.706-4.182c0.286-0.164,0.798-0.372,1.116-0.557c0.114-0.066,0.18-0.513,0.278-0.557
	c0.899-0.406,3.405-1.776,3.622-3.066c0.135-0.798-1.336-3.958-1.671-5.017c-0.653-2.063-1.14-3.322-1.673-5.017
	c-1.234-3.927-1.703-8.104-5.295-9.198c-1.274-0.387-3.841-0.101-6.133,0c-9.093,0.4-22.186,0.911-32.33,1.394
	c-6.191,0.294-11.326-0.256-15.886,1.672c-0.764,0.323-1.534,0.713-2.23,1.115c-0.355,0.205-0.75,0.322-1.115,0.558
	c-0.106,0.068-0.187,0.516-0.279,0.557c-1.036,0.467-2.424,1.75-3.345,2.786c-0.314,0.354-0.257,0.731-0.557,1.116
	c-2.013,2.577-4.474,5.556-8.919,5.573c-1.483,0.006-3.726-0.764-4.737-1.394c-1.337-0.831-2.228-1.447-3.345-3.065
	c-0.896-1.299-1.556-2.586-2.508-4.181c-0.201-0.337-0.298-0.71-0.558-1.115c-0.518-0.811-1.252-1.849-1.951-3.066
	c-1.127-1.964-2.704-4.014-3.623-6.41c-1.715-4.466-0.309-8.617,3.065-11.427c0.465,0,0.929,0,1.394,0c0.371,0,0.743,0,1.114,0
	c0.086,0.378,0.698,0.231,1.115,0.278c0.186,0,0.372,0,0.557,0c0.087,0.378,0.698,0.231,1.115,0.278
	c0.441,0.024,1.063-0.134,1.115,0.279c-2.448-0.115-3.43,0.441-4.738,1.393c-1.076,0.784-2.638,2.837-2.787,5.017
	c-0.149,2.185,0.928,3.981,2.229,6.131c1.048,1.73,2.083,3.619,3.066,5.295c0.703,1.199,1.717,2.558,2.509,3.903
	c0.206,0.35,0.333,1.057,0.557,1.392c1.383,2.081,3.29,3.952,6.41,3.903c1.914-0.03,3.944-1.01,5.017-2.23
	c0.318-0.36,0.436-0.878,0.836-1.394c1.771-2.271,3.361-3.95,5.575-5.574c1.672-1.227,3.938-2.324,6.688-3.065
	c2.246-0.605,4.277-0.692,6.968-0.836c11.648-0.624,25.093-1.218,37.348-1.672c1.294-0.048,2.669,0.066,3.902,0
	c2.339-0.127,3.789-0.518,5.853,0.278c0.974,0.376,2.961,1.93,3.624,2.788c0.85,1.098,1.368,2.97,1.951,4.738
	c0.541,1.64,1.21,3.3,1.671,4.738c0.467,1.45,0.77,3.306,1.395,5.295c0.425,1.35,1.654,3.471,1.395,5.018
	c-0.093,0.539-0.735,1.21-1.395,1.951c-0.8,0.898-1.585,1.479-2.787,2.229c-0.901,0.563-1.927,1.333-3.067,1.951
	c-3.343,1.816-6.803,2.767-9.754,3.623c-17.938,5.206-31.079,8.906-48.773,14.214c-2.17,0.651-5.259,1.479-7.805,2.23
	c-1.803,0.53-4.077,1.406-5.295,1.114c-0.813-0.194-0.953-0.578-1.394-1.114c-0.799-0.974-1.475-2.41-2.23-3.623
	c-0.577-0.929-1.413-2.209-2.229-3.345c-0.069-0.097-0.519-0.192-0.557-0.279c-0.511-1.134-1.582-2.387-2.508-3.623
	c-4.648-6.199-9.862-12.71-13.936-19.788c-2.811-4.884-5.187-10.024-7.525-15.051C25.433,36.16,23.165,31.098,19.574,27.046z"/>
<path fill-rule="evenodd" clip-rule="evenodd" fill="#323232" d="M57.758,30.669c0.244,0.574-0.723,1.251-0.836,0.558
	C57.54,31.38,57.318,30.694,57.758,30.669z"/>
<path fill-rule="evenodd" clip-rule="evenodd" fill="#727272" d="M82.843,22.308c0.25-0.492,0.623-0.863,1.114-1.115
	C83.704,21.684,83.334,22.056,82.843,22.308z"/>
<path fill-rule="evenodd" clip-rule="evenodd" fill="#323232" d="M34.067,28.439c0.251-0.492,0.623-0.863,1.115-1.115
	C34.93,27.816,34.558,28.188,34.067,28.439z"/>
<path fill-rule="evenodd" clip-rule="evenodd" fill="#727272" d="M25.427,32.62c0.491,0.252,0.863,0.624,1.115,1.115
	C26.051,33.483,25.679,33.111,25.427,32.62z"/>
<path fill-rule="evenodd" clip-rule="evenodd" fill="#A6A6A6" d="M24.313,31.505c0.491,0.252,0.863,0.624,1.115,1.115
	C24.936,32.368,24.564,31.997,24.313,31.505z"/>
<path fill-rule="evenodd" clip-rule="evenodd" fill="#D7D7D7" d="M19.853,27.046c1.603,1.37,3.089,2.856,4.46,4.459
	C22.709,30.135,21.223,28.648,19.853,27.046z"/>
<path fill-rule="evenodd" clip-rule="evenodd" fill="#D7D7D7" d="M3.688,7.536C4.256,7.618,4.234,8.29,4.803,8.372
	c0.289,0.733,1.105,0.938,1.393,1.672C5.243,9.325,4.407,8.489,3.688,7.536z"/>
<path fill-rule="evenodd" clip-rule="evenodd" fill="#323232" d="M6.196,10.044C5.908,9.311,5.091,9.105,4.803,8.372
	c0.86,0.626,1.603,1.37,2.229,2.23C6.666,10.503,6.594,10.111,6.196,10.044z"/>
<path fill-rule="evenodd" clip-rule="evenodd" fill="#727272" d="M7.032,10.602c0.861,0.625,1.604,1.369,2.23,2.229
	C8.402,12.205,7.659,11.462,7.032,10.602z"/>
<path fill-rule="evenodd" clip-rule="evenodd" fill="#A6A6A6" d="M9.262,12.832c0.492,0.251,0.863,0.623,1.115,1.115
	C9.885,13.695,9.514,13.323,9.262,12.832z"/>
<path fill-rule="evenodd" clip-rule="evenodd" fill="#D7D7D7" d="M10.376,13.946c0.648,0.188,0.747,0.926,1.394,1.115
	c0.289,0.734,1.105,0.939,1.394,1.672C12.118,15.921,11.189,14.992,10.376,13.946z"/>
<path fill-rule="evenodd" clip-rule="evenodd" fill="#323232" d="M13.164,16.733c-0.289-0.733-1.105-0.938-1.394-1.672
	c0.953,0.719,1.79,1.555,2.509,2.509C13.71,17.487,13.732,16.815,13.164,16.733z"/>
<path fill-rule="evenodd" clip-rule="evenodd" fill="#727272" d="M14.279,17.57c0.953,0.719,1.789,1.555,2.508,2.508
	C15.834,19.358,14.998,18.522,14.279,17.57z"/>
<path fill-rule="evenodd" clip-rule="evenodd" fill="#A6A6A6" d="M16.787,20.078c0.401,0.156,0.68,0.435,0.836,0.836
	c0.093,0,0.185,0,0.278,0c0.082,0.568,0.754,0.546,0.836,1.115C17.971,21.496,17.32,20.845,16.787,20.078z"/>
<path fill-rule="evenodd" clip-rule="evenodd" fill="#727272" d="M19.853,19.242c0.401,0.156,0.68,0.435,0.836,0.836
	c-0.385,0.822-1.287,1.128-1.672,1.951c0.083,0.568,0.754,0.546,0.836,1.114c-0.491-0.252-0.863-0.623-1.114-1.114
	c-0.083-0.569-0.754-0.547-0.836-1.115c0.366-0.098,0.438-0.491,0.836-0.558C19.229,20.104,19.601,19.733,19.853,19.242z"/>
<path fill-rule="evenodd" clip-rule="evenodd" fill="#D7D7D7" d="M20.968,24.538c-0.478-0.358-1.096-0.577-1.115-1.394
	C20.486,23.347,20.686,23.982,20.968,24.538z"/>
<path fill-rule="evenodd" clip-rule="evenodd" fill="#323232" d="M22.361,25.931c0.953,0.719,1.789,1.555,2.508,2.508
	C23.917,27.72,23.08,26.884,22.361,25.931z"/>
<path fill-rule="evenodd" clip-rule="evenodd" fill="#727272" d="M24.87,28.439c0.583,0.346,1.047,0.81,1.394,1.394
	C25.68,29.486,25.216,29.022,24.87,28.439z"/>
<path fill-rule="evenodd" clip-rule="evenodd" fill="#D7D7D7" d="M27.1,30.669c0.366,0.098,0.438,0.491,0.836,0.558
	c0.053,0.226,0.28,0.277,0.279,0.557C27.723,31.532,27.351,31.16,27.1,30.669z"/>
<path fill-rule="evenodd" clip-rule="evenodd" fill="#323232" d="M28.214,31.783c0.001-0.279-0.226-0.331-0.279-0.557
	c0.568,0.156,0.547,0.838,1.115,0.278C28.894,32.084,28.616,32.095,28.214,31.783z"/>
<path fill-rule="evenodd" clip-rule="evenodd" fill="#323232" d="M32.116,26.488c0.252-0.491,0.624-0.863,1.115-1.114
	C32.979,25.865,32.608,26.236,32.116,26.488z"/>
<path fill-rule="evenodd" clip-rule="evenodd" fill="#D7D7D7" d="M80.892,20.635c0.25-0.491,0.623-0.863,1.113-1.115
	C81.753,20.012,81.382,20.384,80.892,20.635z"/>
<path fill-rule="evenodd" clip-rule="evenodd" fill="#323232" d="M80.332,20.914c0.533-0.768,1.185-1.418,1.952-1.951
	c-0.053,0.226-0.279,0.277-0.279,0.557c-0.49,0.251-0.863,0.624-1.113,1.115C80.665,20.688,80.613,20.915,80.332,20.914z"/>
<path fill-rule="evenodd" clip-rule="evenodd" fill="#727272" d="M72.251,11.716c0-0.093,0-0.185,0-0.278c0.835,0,1.673,0,2.508,0
	c-0.048,0.604,0.988,0.126,1.395,0.278c0,0.743,0,1.486,0,2.23c-0.511,0.515-1.867,0.453-1.395-0.836c0-0.465,0-0.929,0-1.394
	C73.924,11.716,73.086,11.716,72.251,11.716z"/>
<path fill-rule="evenodd" clip-rule="evenodd" fill="#323232" d="M74.759,13.11c-0.473,1.289,0.884,1.351,1.395,0.836
	c0.103,0.474-0.219,0.526-0.559,0.557C74.583,14.932,74.052,13.482,74.759,13.11z"/>
<path fill-rule="evenodd" clip-rule="evenodd" fill="#727272" d="M56.364,24.259c0.452-1.221,0.222-3.123,0.836-4.181
	c0.235,0.601,1.776-0.104,1.951,0.557c-0.119,1.368-0.373,2.6-0.557,3.902c0.441,0.022,1.063-0.134,1.115,0.278
	c-1.034,0.197-1.196-0.476-2.23-0.278C57.393,24.159,56.781,24.306,56.364,24.259z"/>
<path fill-rule="evenodd" clip-rule="evenodd" fill="#323232" d="M19.017,22.029c0.385-0.823,1.288-1.129,1.672-1.951
	C21.06,20.558,19.57,21.548,19.017,22.029z"/>
<path fill-rule="evenodd" clip-rule="evenodd" fill="#323232" d="M18.738,20.356c0.251-0.491,0.623-0.863,1.114-1.115
	C19.601,19.733,19.229,20.104,18.738,20.356z"/>
<path fill-rule="evenodd" clip-rule="evenodd" fill="#727272" d="M10.376,3.077c0.208-0.628,1.563-0.109,2.23-0.278
	C12.399,3.426,11.043,2.907,10.376,3.077z"/>
<path fill-rule="evenodd" clip-rule="evenodd" fill="#A6A6A6" d="M23.755,5.307c0.49,0.16,1.637-0.337,1.672,0.278
	c-0.558,0-1.115,0-1.672,0C23.755,5.492,23.755,5.399,23.755,5.307z"/>
<path fill-rule="evenodd" clip-rule="evenodd" fill="#727272" d="M9.541,5.864c0.035-0.615,1.182-0.118,1.672-0.279
	C11.178,6.201,10.03,5.703,9.541,5.864z"/>
<path fill-rule="evenodd" clip-rule="evenodd" fill="#727272" d="M7.311,6.143c0.034-0.616,1.182-0.119,1.672-0.279
	C8.948,6.479,7.801,5.982,7.311,6.143z"/>
<path fill-rule="evenodd" clip-rule="evenodd" fill="#727272" d="M0.343,5.864c0,0.557,0,1.114,0,1.672
	C-0.114,7.582-0.114,5.818,0.343,5.864z"/>
<path fill-rule="evenodd" clip-rule="evenodd" fill="#727272" d="M59.151,8.093c0.49,0.161,1.638-0.336,1.672,0.279
	C60.333,8.211,59.186,8.708,59.151,8.093z"/>
<path fill-rule="evenodd" clip-rule="evenodd" fill="#727272" d="M27.378,7.257c0.628,2.156-2.065,1.5-1.393-0.279
	c0.604,0.047,0.126-0.988,0.278-1.393c0.186,0,0.372,0,0.557,0c0.008,0.271,0.341,0.216,0.558,0.279
	C27.378,6.328,27.378,6.793,27.378,7.257z"/>
<path fill-rule="evenodd" clip-rule="evenodd" fill="#727272" d="M61.938,8.372c0.464,0,0.929,0,1.394,0c0,0.093,0,0.186,0,0.278
	C62.927,8.499,61.891,8.976,61.938,8.372z"/>
<path fill-rule="evenodd" clip-rule="evenodd" fill="#727272" d="M80.332,8.93c1.307,0.18,3.338-0.365,4.182,0.278
	c-1.393,0-2.787,0-4.182,0C80.332,9.115,80.332,9.023,80.332,8.93z"/>
<path fill-rule="evenodd" clip-rule="evenodd" fill="#727272" d="M57.479,10.602c0.49,0.16,1.638-0.337,1.672,0.278
	C58.661,10.72,57.514,11.217,57.479,10.602z"/>
<path fill-rule="evenodd" clip-rule="evenodd" fill="#727272" d="M59.987,10.88c0.578,0.166,1.831-0.344,1.952,0.278
	C61.361,10.994,60.107,11.504,59.987,10.88z"/>
<path fill-rule="evenodd" clip-rule="evenodd" fill="#727272" d="M88.138,12.553c0.459,0.124,0.459,2.106,0,2.23
	C88.138,14.039,88.138,13.296,88.138,12.553z"/>
<path fill-rule="evenodd" clip-rule="evenodd" fill="#A6A6A6" d="M40.478,25.095c0.124-0.46,2.106-0.46,2.23,0
	c-0.465,0-0.929,0-1.394,0C41.035,25.095,40.756,25.095,40.478,25.095z"/>
<path fill-rule="evenodd" clip-rule="evenodd" fill="#A6A6A6" d="M43.822,25.095c0.441,0.022,1.063-0.134,1.115,0.278
	C44.52,25.326,43.908,25.473,43.822,25.095z"/>
<path fill-rule="evenodd" clip-rule="evenodd" fill="#A6A6A6" d="M45.494,25.374c0.441,0.023,1.063-0.134,1.115,0.278
	C46.192,25.605,45.581,25.751,45.494,25.374z"/>
<path fill-rule="evenodd" clip-rule="evenodd" fill="#727272" d="M56.085,27.046c0.958-0.122,1.562,0.11,2.229,0.278
	c-0.381,0.918-0.373,2.229-0.557,3.345c-0.439,0.025-0.218,0.711-0.836,0.558c-0.464,0-0.929,0-1.394,0
	C55.542,29.66,55.822,28.362,56.085,27.046z"/>
<path fill-rule="evenodd" clip-rule="evenodd" fill="#A6A6A6" d="M66.398,28.161c1.3,0,2.601,0,3.902,0
	c-0.751,0.642-2.688,0.099-3.902,0.279C66.398,28.347,66.398,28.253,66.398,28.161z"/>
<path fill-rule="evenodd" clip-rule="evenodd" fill="#727272" d="M28.214,34.571c0.464,0,0.929,0,1.394,0
	C29.733,35.026,28.089,35.026,28.214,34.571z"/>
<path fill-rule="evenodd" clip-rule="evenodd" fill="#FFFFFF" d="M12.606,2.798c0.464,0,0.929,0,1.394,0c0.558,0,1.115,0,1.672,0
	c0.744,0,1.487,0,2.23,0s1.486,0,2.23,0c0.743,0,1.486,0,2.229,0c0.464,0,0.929,0,1.394,0c0.464,0,0.929,0,1.394,0
	c0.386,0.635,1.939,0.104,2.787,0.278c10.798,1.279,20.563,3.592,31.215,5.017c0.035,0.615,1.183,0.118,1.672,0.279
	c0.372,0,0.743,0,1.115,0c-0.047,0.604,0.988,0.126,1.394,0.278c0.371,0,0.743,0,1.114,0c0.186,0,0.373,0,0.558,0
	c-0.046,0.605,0.989,0.127,1.394,0.279c0.464,0,0.929,0,1.393,0c0.65,0,1.301,0,1.951,0c0.93,0,1.857,0,2.787,0
	c0.743,0,1.486,0,2.229,0c0.278,0,0.558,0,0.836,0c0.296,0.632,1.753,0.105,2.508,0.278c0.743,0,1.486,0,2.229,0
	c1.395,0,2.789,0,4.182,0c2.111-0.067,2.544,1.544,3.624,2.508c0,0.279,0,0.558,0,0.836c0,0.743,0,1.486,0,2.23
	c0.141,0.815-0.448,1.282-0.837,1.951c-0.906,1.561-1.941,3.122-3.344,4.459c-0.491,0.252-0.864,0.623-1.114,1.115
	c-3.134,2.999-6.946,5.319-12.543,5.853c-1.301,0-2.602,0-3.902,0c-0.558,0-1.115,0-1.672,0c-2.36-0.056-4.347-0.485-6.411-0.836
	c-0.667-0.168-1.271-0.4-2.229-0.278c-2.852-0.308-5.451-0.867-8.361-1.115c-0.052-0.414-0.674-0.255-1.115-0.279
	c-0.052-0.413-0.674-0.255-1.115-0.278c-0.186,0-0.372,0-0.557,0c-0.052-0.413-0.674-0.256-1.115-0.278c-0.372,0-0.743,0-1.114,0
	c-0.124-0.46-2.106-0.46-2.23,0c-2.278,0.23-3.854,1.162-5.295,2.229c-0.492,0.252-0.863,0.624-1.115,1.115
	c-1.733,1.798-2.039,5.022-4.459,6.132c-0.464,0-0.929,0-1.394,0c-0.186,0-0.372,0-0.558,0c-0.568-0.083-0.547-0.754-1.115-0.836
	c-0.252-0.491-0.624-0.863-1.115-1.115c-0.252-0.491-0.624-0.863-1.115-1.115c-1.371-1.603-2.857-3.089-4.46-4.459
	c-0.092,0-0.186,0-0.278,0c-0.053-0.226-0.279-0.278-0.279-0.558c-0.251-0.491-0.623-0.863-1.115-1.114
	c-0.36-1.219-1.406-1.752-2.229-2.508c-0.252-0.491-0.624-0.863-1.115-1.115c-0.905-1.139-1.928-2.16-3.066-3.066
	c-0.398-0.066-0.47-0.458-0.836-0.557c-0.533-0.769-1.184-1.418-1.951-1.952C8.45,15.409,7.8,14.758,7.032,14.225
	c-0.719-0.953-1.555-1.789-2.508-2.509c-0.397-0.066-0.47-0.459-0.836-0.558C3.248,10.484,2.69,9.927,2.016,9.486
	c-0.645-0.563-1.489-0.926-1.672-1.95c0-0.558,0-1.115,0-1.672c1.226-2.747,6.322-2.196,10.033-2.787
	C11.043,2.907,12.399,3.426,12.606,2.798z M17.066,5.307c-0.372,0-0.743,0-1.115,0c-0.558,0-1.115,0-1.672,0
	c-0.578,0.166-1.831-0.345-1.951,0.278c-0.372,0-0.744,0-1.115,0c-0.49,0.161-1.638-0.336-1.672,0.279c-0.186,0-0.372,0-0.557,0
	c-0.49,0.16-1.638-0.337-1.672,0.279C6.146,6.371,5.067,6.686,3.688,6.7c-0.108,0.398-0.334,0.47,0,0.836
	c0.719,0.953,1.555,1.789,2.508,2.508c0.398,0.067,0.47,0.459,0.836,0.558c0.627,0.86,1.37,1.603,2.23,2.229
	c0.252,0.492,0.624,0.863,1.115,1.115c0.813,1.045,1.742,1.975,2.788,2.787c0.568,0.082,0.546,0.754,1.115,0.836
	c0.719,0.953,1.555,1.789,2.508,2.508c0.533,0.767,1.184,1.418,1.951,1.951c0.251,0.491,0.623,0.862,1.114,1.114
	c0.019,0.817,0.637,1.036,1.115,1.394c0.583,0.346,1.048,0.811,1.394,1.394c0.719,0.953,1.555,1.789,2.508,2.508
	c0.346,0.583,0.811,1.047,1.394,1.394c0.401,0.156,0.68,0.435,0.836,0.836c0.251,0.491,0.623,0.863,1.115,1.114
	c0.401,0.312,0.68,0.301,0.836-0.278c0.758-1.936,1.868-3.521,3.066-5.017c0.492-0.251,0.863-0.623,1.115-1.114
	c1.691-1.282,3.313-2.632,6.131-2.787c1.58,0,3.16,0,4.739,0c4.269,0.376,8.262,1.028,12.263,1.672
	c0.052,0.413,0.673,0.255,1.114,0.279c1.034-0.198,1.196,0.476,2.23,0.278c2.359,0.056,4.347,0.484,6.41,0.836
	c0.301,0.461,2.486,0.461,2.787,0c4.778-0.61,8.448-2.329,11.426-4.738c0.281,0.001,0.333-0.226,0.56-0.279
	c0.49-0.251,0.861-0.624,1.113-1.115c0-0.28,0.227-0.332,0.279-0.557c1.204-1.862,2.887-3.245,3.346-5.853
	c-0.59-1.177-2.044-1.488-3.903-1.394c-0.387-0.635-1.939-0.104-2.786-0.278c-1.395,0-2.787,0-4.182,0c-0.835,0-1.673,0-2.508,0
	c-0.836,0-1.673,0-2.509,0c-0.372,0-0.744,0-1.115,0c-0.034-0.616-1.182-0.118-1.672-0.279c-0.557,0-1.114,0-1.672,0
	c-0.65,0-1.3,0-1.951,0c-0.465,0-0.93,0-1.394,0c-0.121-0.623-1.374-0.112-1.952-0.278c-0.278,0-0.557,0-0.836,0
	c-0.035-0.616-1.183-0.118-1.672-0.278C47.333,9.413,38.134,7.278,28.214,5.864c0.047-0.604-0.989-0.126-1.394-0.279
	c-0.186,0-0.372,0-0.557,0c-0.093,0-0.186,0-0.278,0c-0.186,0-0.372,0-0.558,0c-0.035-0.616-1.183-0.118-1.672-0.278
	c-0.558,0-1.115,0-1.672,0c-0.372,0-0.743,0-1.115,0C20.305,4.844,17.729,4.844,17.066,5.307z"/>
<path fill-rule="evenodd" clip-rule="evenodd" fill="#A6A6A6" d="M39.362,22.586c0.938-0.463,3.8-0.463,4.739,0
	C42.522,22.586,40.942,22.586,39.362,22.586z"/>
<path fill-rule="evenodd" clip-rule="evenodd" fill="#727272" d="M12.328,5.585c0.12-0.623,1.373-0.113,1.951-0.278
	c0,0.092,0,0.185,0,0.278C13.628,5.585,12.978,5.585,12.328,5.585z"/>
<path fill-rule="evenodd" clip-rule="evenodd" fill="#727272" d="M74.759,8.93c0-0.93,0-1.858,0-2.787c0.465,0,0.93,0,1.395,0
	c0,0.929,0,1.857,0,2.787c-0.187,0-0.372,0-0.559,0C75.316,8.93,75.037,8.93,74.759,8.93z"/>
<path fill-rule="evenodd" clip-rule="evenodd" fill="#727272" d="M63.332,11.159c0.65,0,1.3,0,1.951,0c0,0.093,0,0.187,0,0.279
	C64.706,11.272,63.452,11.782,63.332,11.159z"/>
<path fill-rule="evenodd" clip-rule="evenodd" fill="#727272" d="M64.726,28.161c0.557,0,1.115,0,1.672,0c0,0.093,0,0.186,0,0.279
	C65.908,28.279,64.76,28.776,64.726,28.161z"/>
</svg>
