<?xml version="1.0" encoding="utf-8"?>
<!-- Generator: Adobe Illustrator 15.0.0, SVG Export Plug-In  -->
<!DOCTYPE svg PUBLIC "-//W3C//DTD SVG 1.1//EN" "http://www.w3.org/Graphics/SVG/1.1/DTD/svg11.dtd" [
	<!ENTITY ns_flows "http://ns.adobe.com/Flows/1.0/">
]>
<svg version="1.1"
	 xmlns="http://www.w3.org/2000/svg" xmlns:xlink="http://www.w3.org/1999/xlink" xmlns:a="http://ns.adobe.com/AdobeSVGViewerExtensions/3.0/"
	 x="0px" y="0px" width="142px" height="142px" viewBox="-2.771 -28.236 142 142" enable-background="new -2.771 -28.236 142 142"
	 xml:space="preserve">
<defs>
</defs>
<path fill-rule="evenodd" clip-rule="evenodd" fill="#313131" d="M13.952,0.316c-0.047-0.605,0.988-0.127,1.394-0.279
	c0,0.093,0,0.186,0,0.279C14.881,0.316,14.417,0.316,13.952,0.316z"/>
<path fill-rule="evenodd" clip-rule="evenodd" fill="#707070" d="M15.346,0.316c0-0.093,0-0.187,0-0.279c0.65,0,1.3,0,1.951,0
	c0,0.093,0,0.186,0,0.279C16.646,0.316,15.996,0.316,15.346,0.316z"/>
<path fill-rule="evenodd" clip-rule="evenodd" fill="#A3A3A3" d="M17.296,0.316c0-0.093,0-0.187,0-0.279c1.022,0,2.044,0,3.066,0
	c0,0.093,0,0.186,0,0.279C19.34,0.316,18.319,0.316,17.296,0.316z"/>
<path fill-rule="evenodd" clip-rule="evenodd" fill="#707070" d="M20.362,0.316c0-0.093,0-0.187,0-0.279c0.65,0,1.301,0,1.951,0
	c0,0.093,0,0.186,0,0.279C21.663,0.316,21.013,0.316,20.362,0.316z"/>
<path fill-rule="evenodd" clip-rule="evenodd" fill="#313131" d="M22.313,0.316c0-0.093,0-0.187,0-0.279
	c0.405,0.152,1.44-0.326,1.394,0.279C23.242,0.316,22.778,0.316,22.313,0.316z"/>
<path fill-rule="evenodd" clip-rule="evenodd" fill="#D5D5D5" d="M16.739,2.824c0.754-0.463,3.426-0.463,4.181,0
	C19.526,2.824,18.132,2.824,16.739,2.824z"/>
<path fill-rule="evenodd" clip-rule="evenodd" fill="#313131" d="M14.231,3.103c0-0.093,0-0.186,0-0.278c0.464,0,0.929,0,1.393,0
	C15.671,3.428,14.636,2.95,14.231,3.103z"/>
<path fill-rule="evenodd" clip-rule="evenodd" fill="#313131" d="M22.035,2.824c0.464,0,0.929,0,1.394,0c0,0.092,0,0.185,0,0.278
	C23.023,2.95,21.988,3.428,22.035,2.824z"/>
<path fill-rule="evenodd" clip-rule="evenodd" fill="#313131" d="M63.284,6.168c0-0.092,0-0.185,0-0.278
	c0.417,0.048,1.028-0.1,1.114,0.278C64.027,6.168,63.655,6.168,63.284,6.168z"/>
<path fill-rule="evenodd" clip-rule="evenodd" fill="#D5D5D5" d="M64.956,6.168c0.465,0,0.929,0,1.394,0c0,0.093,0,0.186,0,0.279
	C65.945,6.295,64.91,6.773,64.956,6.168z"/>
<path fill-rule="evenodd" clip-rule="evenodd" fill="#A3A3A3" d="M66.35,6.447c0-0.093,0-0.186,0-0.279c0.372,0,0.743,0,1.114,0
	c0,0.093,0,0.186,0,0.279C67.093,6.447,66.722,6.447,66.35,6.447z"/>
<path fill-rule="evenodd" clip-rule="evenodd" fill="#707070" d="M67.464,6.447c0-0.093,0-0.186,0-0.279c0.836,0,1.673,0,2.508,0
	c0,0.093,0,0.186,0,0.279C69.137,6.447,68.301,6.447,67.464,6.447z"/>
<path fill-rule="evenodd" clip-rule="evenodd" fill="#313131" d="M69.973,6.447c0-0.093,0-0.186,0-0.279
	c0.938,0.177,2.589-0.358,3.065,0.279C72.017,6.447,70.995,6.447,69.973,6.447z"/>
<path fill-rule="evenodd" clip-rule="evenodd" fill="#D5D5D5" d="M74.989,6.447c1.022,0,2.044,0,3.065,0c0,0.093,0,0.186,0,0.278
	C77.117,6.549,75.467,7.085,74.989,6.447z"/>
<path fill-rule="evenodd" clip-rule="evenodd" fill="#A3A3A3" d="M78.055,6.726c0-0.093,0-0.185,0-0.278c0.838,0,1.673,0,2.511,0
	c0,0.093,0,0.186,0,0.278C79.728,6.726,78.893,6.726,78.055,6.726z"/>
<path fill-rule="evenodd" clip-rule="evenodd" fill="#A3A3A3" d="M65.235,8.956c0-0.093,0-0.186,0-0.279c0.372,0,0.743,0,1.115,0
	c0,0.093,0,0.187,0,0.279C65.978,8.956,65.607,8.956,65.235,8.956z"/>
<path fill-rule="evenodd" clip-rule="evenodd" fill="#D5D5D5" d="M66.35,8.956c0-0.093,0-0.186,0-0.279
	c0.49,0.161,1.637-0.336,1.672,0.279C67.464,8.956,66.907,8.956,66.35,8.956z"/>
<path fill-rule="evenodd" clip-rule="evenodd" fill="#313131" d="M69.694,8.956c1.022,0,2.044,0,3.065,0c0,0.093,0,0.186,0,0.278
	C71.822,9.058,70.171,9.594,69.694,8.956z"/>
<path fill-rule="evenodd" clip-rule="evenodd" fill="#707070" d="M72.76,9.234c0-0.093,0-0.185,0-0.278c1.021,0,2.044,0,3.065,0
	c0,0.093,0,0.186,0,0.278C74.804,9.234,73.781,9.234,72.76,9.234z"/>
<path fill-rule="evenodd" clip-rule="evenodd" fill="#A3A3A3" d="M75.825,9.234c0-0.093,0-0.185,0-0.278c0.837,0,1.673,0,2.51,0
	c0,0.093,0,0.186,0,0.278C77.498,9.234,76.662,9.234,75.825,9.234z"/>
<path fill-rule="evenodd" clip-rule="evenodd" fill="#D5D5D5" d="M78.335,9.234c0-0.093,0-0.185,0-0.278
	c0.846,0.175,2.4-0.357,2.787,0.278C80.192,9.234,79.263,9.234,78.335,9.234z"/>
<path fill-rule="evenodd" clip-rule="evenodd" fill="#D5D5D5" d="M66.071,23.169c0.929,0,1.858,0,2.787,0
	C68.557,23.631,66.372,23.631,66.071,23.169z"/>
<path fill-rule="evenodd" clip-rule="evenodd" fill="#313131" d="M120.421,35.712c-0.048-0.604,0.987-0.127,1.393-0.279
	c0,0.092,0,0.186,0,0.279C121.349,35.712,120.884,35.712,120.421,35.712z"/>
<path fill-rule="evenodd" clip-rule="evenodd" fill="#313131" d="M113.731,35.99c-0.048-0.604,0.987-0.126,1.393-0.278
	c0,0.093,0,0.186,0,0.278C114.659,35.99,114.196,35.99,113.731,35.99z"/>
<path fill-rule="evenodd" clip-rule="evenodd" fill="#707070" d="M115.124,35.99c0-0.092,0-0.186,0-0.278c0.557,0,1.115,0,1.673,0
	c0,0.093,0,0.186,0,0.278C116.239,35.99,115.681,35.99,115.124,35.99z"/>
<path fill-rule="evenodd" clip-rule="evenodd" fill="#A3A3A3" d="M116.797,35.99c0-0.092,0-0.186,0-0.278c0.465,0,0.93,0,1.395,0
	c0,0.093,0,0.186,0,0.278C117.727,35.99,117.262,35.99,116.797,35.99z"/>
<path fill-rule="evenodd" clip-rule="evenodd" fill="#D5D5D5" d="M118.191,35.99c0-0.092,0-0.186,0-0.278c0.463,0,0.927,0,1.392,0
	C119.632,36.316,118.596,35.838,118.191,35.99z"/>
<path fill-rule="evenodd" clip-rule="evenodd" fill="#313131" d="M107.042,36.269c-0.048-0.604,0.988-0.126,1.393-0.279
	c0,0.093,0,0.186,0,0.279C107.97,36.269,107.507,36.269,107.042,36.269z"/>
<path fill-rule="evenodd" clip-rule="evenodd" fill="#707070" d="M108.435,36.269c0-0.093,0-0.186,0-0.279c0.465,0,0.93,0,1.395,0
	c0,0.093,0,0.186,0,0.279C109.364,36.269,108.899,36.269,108.435,36.269z"/>
<path fill-rule="evenodd" clip-rule="evenodd" fill="#A3A3A3" d="M109.829,36.269c0-0.093,0-0.186,0-0.279c0.557,0,1.113,0,1.673,0
	c0,0.093,0,0.186,0,0.279C110.942,36.269,110.386,36.269,109.829,36.269z"/>
<path fill-rule="evenodd" clip-rule="evenodd" fill="#D5D5D5" d="M111.502,36.269c0-0.093,0-0.186,0-0.279c0.37,0,0.743,0,1.113,0
	C112.563,36.403,111.942,36.246,111.502,36.269z"/>
<path fill-rule="evenodd" clip-rule="evenodd" fill="#313131" d="M100.353,36.548c-0.046-0.604,0.988-0.126,1.393-0.279
	c0,0.093,0,0.186,0,0.279C101.282,36.548,100.817,36.548,100.353,36.548z"/>
<path fill-rule="evenodd" clip-rule="evenodd" fill="#707070" d="M101.745,36.548c0-0.093,0-0.186,0-0.279c0.465,0,0.93,0,1.395,0
	c0,0.093,0,0.186,0,0.279C102.675,36.548,102.21,36.548,101.745,36.548z"/>
<path fill-rule="evenodd" clip-rule="evenodd" fill="#A3A3A3" d="M103.14,36.548c0-0.093,0-0.186,0-0.279c0.557,0,1.116,0,1.673,0
	c0,0.093,0,0.186,0,0.279C104.256,36.548,103.696,36.548,103.14,36.548z"/>
<path fill-rule="evenodd" clip-rule="evenodd" fill="#D5D5D5" d="M104.813,36.548c0-0.093,0-0.186,0-0.279c0.37,0,0.743,0,1.113,0
	C105.874,36.682,105.253,36.524,104.813,36.548z"/>
<path fill-rule="evenodd" clip-rule="evenodd" fill="#313131" d="M93.385,36.826c0.034-0.615,1.183-0.118,1.673-0.278
	c0,0.093,0,0.186,0,0.278C94.499,36.826,93.941,36.826,93.385,36.826z"/>
<path fill-rule="evenodd" clip-rule="evenodd" fill="#707070" d="M95.058,36.826c0-0.093,0-0.185,0-0.278c0.557,0,1.114,0,1.671,0
	c0,0.093,0,0.186,0,0.278C96.172,36.826,95.614,36.826,95.058,36.826z"/>
<path fill-rule="evenodd" clip-rule="evenodd" fill="#A3A3A3" d="M96.729,36.826c0-0.093,0-0.185,0-0.278c0.465,0,0.93,0,1.395,0
	c0,0.093,0,0.186,0,0.278C97.658,36.826,97.193,36.826,96.729,36.826z"/>
<path fill-rule="evenodd" clip-rule="evenodd" fill="#D5D5D5" d="M98.123,36.826c0-0.093,0-0.185,0-0.278c0.37,0,0.743,0,1.114,0
	C99.187,36.96,98.563,36.803,98.123,36.826z"/>
<path fill-rule="evenodd" clip-rule="evenodd" fill="#313131" d="M86.695,37.105c0.034-0.616,1.183-0.118,1.673-0.279
	c0,0.093,0,0.186,0,0.279C87.812,37.105,87.253,37.105,86.695,37.105z"/>
<path fill-rule="evenodd" clip-rule="evenodd" fill="#707070" d="M88.368,37.105c0-0.093,0-0.186,0-0.279c0.558,0,1.114,0,1.673,0
	c0,0.093,0,0.186,0,0.279C89.482,37.105,88.926,37.105,88.368,37.105z"/>
<path fill-rule="evenodd" clip-rule="evenodd" fill="#A3A3A3" d="M90.041,37.105c0-0.093,0-0.186,0-0.279c0.371,0,0.743,0,1.114,0
	c0,0.093,0,0.186,0,0.279C90.784,37.105,90.412,37.105,90.041,37.105z"/>
<path fill-rule="evenodd" clip-rule="evenodd" fill="#D5D5D5" d="M91.155,37.105c0-0.093,0-0.186,0-0.279c0.465,0,0.93,0,1.395,0
	C92.596,37.431,91.56,36.953,91.155,37.105z"/>
<path fill-rule="evenodd" clip-rule="evenodd" fill="#313131" d="M80.006,37.384c0.053-0.413,0.674-0.256,1.116-0.279
	c0,0.093,0,0.186,0,0.279C80.749,37.384,80.379,37.384,80.006,37.384z"/>
<path fill-rule="evenodd" clip-rule="evenodd" fill="#A3A3A3" d="M81.122,37.384c0-0.093,0-0.186,0-0.279
	c0.404,0.152,1.44-0.326,1.393,0.279C82.05,37.384,81.587,37.384,81.122,37.384z"/>
<path fill-rule="evenodd" clip-rule="evenodd" fill="#A3A3A3" d="M83.352,37.384c0-0.093,0-0.186,0-0.279c0.371,0,0.743,0,1.114,0
	c0,0.093,0,0.186,0,0.279C84.095,37.384,83.723,37.384,83.352,37.384z"/>
<path fill-rule="evenodd" clip-rule="evenodd" fill="#D5D5D5" d="M84.466,37.384c0-0.093,0-0.186,0-0.279c0.465,0,0.93,0,1.395,0
	C85.906,37.71,84.87,37.231,84.466,37.384z"/>
<path fill-rule="evenodd" clip-rule="evenodd" fill="#D5D5D5" d="M122.929,38.22c-0.126-0.455,1.519-0.455,1.393,0
	C123.856,38.22,123.392,38.22,122.929,38.22z"/>
<path fill-rule="evenodd" clip-rule="evenodd" fill="#D5D5D5" d="M116.239,38.499c0.034-0.615,1.183-0.118,1.671-0.278
	c0,0.093,0,0.186,0,0.278C117.354,38.499,116.797,38.499,116.239,38.499z"/>
<path fill-rule="evenodd" clip-rule="evenodd" fill="#A3A3A3" d="M117.91,38.499c0-0.093,0-0.186,0-0.278c0.373,0,0.744,0,1.116,0
	c0,0.093,0,0.186,0,0.278C118.654,38.499,118.283,38.499,117.91,38.499z"/>
<path fill-rule="evenodd" clip-rule="evenodd" fill="#707070" d="M119.026,38.499c0-0.093,0-0.186,0-0.278c0.557,0,1.114,0,1.673,0
	c0,0.093,0,0.186,0,0.278C120.141,38.499,119.583,38.499,119.026,38.499z"/>
<path fill-rule="evenodd" clip-rule="evenodd" fill="#313131" d="M120.699,38.499c0-0.093,0-0.186,0-0.278c0.465,0,0.928,0,1.393,0
	C122.14,38.825,121.104,38.346,120.699,38.499z"/>
<path fill-rule="evenodd" clip-rule="evenodd" fill="#D5D5D5" d="M109.551,38.778c0.033-0.616,1.182-0.119,1.673-0.279
	c0,0.093,0,0.187,0,0.279C110.664,38.778,110.107,38.778,109.551,38.778z"/>
<path fill-rule="evenodd" clip-rule="evenodd" fill="#A3A3A3" d="M111.224,38.778c0-0.093,0-0.186,0-0.279c0.37,0,0.743,0,1.113,0
	c0,0.093,0,0.187,0,0.279C111.967,38.778,111.594,38.778,111.224,38.778z"/>
<path fill-rule="evenodd" clip-rule="evenodd" fill="#707070" d="M112.337,38.778c0-0.093,0-0.186,0-0.279c0.558,0,1.116,0,1.673,0
	c0,0.093,0,0.187,0,0.279C113.453,38.778,112.895,38.778,112.337,38.778z"/>
<path fill-rule="evenodd" clip-rule="evenodd" fill="#313131" d="M114.01,38.778c0-0.093,0-0.186,0-0.279c0.465,0,0.928,0,1.393,0
	C115.45,39.103,114.415,38.625,114.01,38.778z"/>
<path fill-rule="evenodd" clip-rule="evenodd" fill="#D5D5D5" d="M102.861,39.056c0.034-0.616,1.182-0.118,1.673-0.278
	c0,0.093,0,0.186,0,0.278C103.975,39.056,103.418,39.056,102.861,39.056z"/>
<path fill-rule="evenodd" clip-rule="evenodd" fill="#A3A3A3" d="M104.534,39.056c0-0.093,0-0.186,0-0.278c0.37,0,0.743,0,1.113,0
	c0,0.093,0,0.186,0,0.278C105.277,39.056,104.904,39.056,104.534,39.056z"/>
<path fill-rule="evenodd" clip-rule="evenodd" fill="#707070" d="M105.647,39.056c0-0.093,0-0.186,0-0.278c0.465,0,0.93,0,1.395,0
	c0,0.093,0,0.186,0,0.278C106.577,39.056,106.112,39.056,105.647,39.056z"/>
<path fill-rule="evenodd" clip-rule="evenodd" fill="#313131" d="M107.042,39.056c0-0.093,0-0.186,0-0.278c0.557,0,1.114,0,1.671,0
	C108.679,39.393,107.531,38.896,107.042,39.056z"/>
<path fill-rule="evenodd" clip-rule="evenodd" fill="#D5D5D5" d="M96.172,39.334c0.036-0.615,1.182-0.118,1.673-0.278
	c0,0.093,0,0.186,0,0.278C97.287,39.334,96.729,39.334,96.172,39.334z"/>
<path fill-rule="evenodd" clip-rule="evenodd" fill="#A3A3A3" d="M97.845,39.334c0-0.093,0-0.185,0-0.278c0.37,0,0.743,0,1.113,0
	c0,0.093,0,0.186,0,0.278C98.588,39.334,98.215,39.334,97.845,39.334z"/>
<path fill-rule="evenodd" clip-rule="evenodd" fill="#707070" d="M98.958,39.334c0-0.093,0-0.185,0-0.278c0.465,0,0.93,0,1.395,0
	c0,0.093,0,0.186,0,0.278C99.888,39.334,99.423,39.334,98.958,39.334z"/>
<path fill-rule="evenodd" clip-rule="evenodd" fill="#313131" d="M100.353,39.334c0-0.093,0-0.185,0-0.278c0.558,0,1.114,0,1.673,0
	C101.989,39.671,100.842,39.175,100.353,39.334z"/>
<path fill-rule="evenodd" clip-rule="evenodd" fill="#D5D5D5" d="M89.482,39.614c-0.046-0.605,0.989-0.127,1.395-0.28
	c0,0.094,0,0.187,0,0.28C90.412,39.614,89.947,39.614,89.482,39.614z"/>
<path fill-rule="evenodd" clip-rule="evenodd" fill="#A3A3A3" d="M90.877,39.614c0-0.093,0-0.186,0-0.28c0.465,0,0.928,0,1.392,0
	c0,0.094,0,0.187,0,0.28C91.805,39.614,91.342,39.614,90.877,39.614z"/>
<path fill-rule="evenodd" clip-rule="evenodd" fill="#707070" d="M92.269,39.614c0-0.093,0-0.186,0-0.28c0.465,0,0.93,0,1.395,0
	c0,0.094,0,0.187,0,0.28C93.198,39.614,92.733,39.614,92.269,39.614z"/>
<path fill-rule="evenodd" clip-rule="evenodd" fill="#313131" d="M93.663,39.614c0-0.093,0-0.186,0-0.28c0.558,0,1.114,0,1.673,0
	C95.3,39.951,94.154,39.453,93.663,39.614z"/>
<path fill-rule="evenodd" clip-rule="evenodd" fill="#D5D5D5" d="M82.795,39.893c-0.048-0.604,0.987-0.126,1.393-0.278
	c0,0.092,0,0.185,0,0.278C83.723,39.893,83.258,39.893,82.795,39.893z"/>
<path fill-rule="evenodd" clip-rule="evenodd" fill="#A3A3A3" d="M84.188,39.893c0-0.093,0-0.186,0-0.278c0.465,0,0.93,0,1.395,0
	c0,0.092,0,0.185,0,0.278C85.117,39.893,84.652,39.893,84.188,39.893z"/>
<path fill-rule="evenodd" clip-rule="evenodd" fill="#707070" d="M85.582,39.893c0-0.093,0-0.186,0-0.278c0.465,0,0.927,0,1.392,0
	c0,0.092,0,0.185,0,0.278C86.509,39.893,86.047,39.893,85.582,39.893z"/>
<path fill-rule="evenodd" clip-rule="evenodd" fill="#313131" d="M86.974,39.893c0-0.093,0-0.186,0-0.278c0.465,0,0.93,0,1.395,0
	C88.414,40.218,87.379,39.74,86.974,39.893z"/>
<path fill-rule="evenodd" clip-rule="evenodd" fill="#A3A3A3" d="M77.776,40.171c0.086-0.378,0.699-0.231,1.116-0.278
	c0,0.093,0,0.185,0,0.278C78.52,40.171,78.149,40.171,77.776,40.171z"/>
<path fill-rule="evenodd" clip-rule="evenodd" fill="#707070" d="M78.893,40.171c0-0.093,0-0.186,0-0.278c0.465,0,0.93,0,1.392,0
	c0,0.093,0,0.185,0,0.278C79.822,40.171,79.357,40.171,78.893,40.171z"/>
<path fill-rule="evenodd" clip-rule="evenodd" fill="#707070" d="M81.4,42.68c-0.076-0.947,0.215-2.26-0.278-2.787
	c0.465,0,0.928,0,1.393,0c0,0.929,0,1.858,0,2.787C82.144,42.68,81.771,42.68,81.4,42.68z"/>
<path fill-rule="evenodd" clip-rule="evenodd" fill="#313131" d="M82.515,39.893c0.094,0,0.187,0,0.28,0
	c-0.177,0.847,0.356,2.4-0.28,2.787C82.515,41.75,82.515,40.821,82.515,39.893z"/>
<path fill-rule="evenodd" clip-rule="evenodd" fill="#A3A3A3" d="M0.853,5.89c0.491,0.252,0.863,0.623,1.115,1.114
	C1.476,6.752,1.104,6.381,0.853,5.89z"/>
<path fill-rule="evenodd" clip-rule="evenodd" fill="#707070" d="M1.968,7.004C2.459,7.256,2.831,7.628,3.083,8.12
	C2.591,7.868,2.219,7.496,1.968,7.004z"/>
<path fill-rule="evenodd" clip-rule="evenodd" fill="#313131" d="M3.083,8.12C3.65,8.201,3.629,8.874,4.197,8.956
	c0.575,1.004,1.654,1.504,2.23,2.508C5.195,10.465,4.081,9.351,3.083,8.12z"/>
<path fill-rule="evenodd" clip-rule="evenodd" fill="#D5D5D5" d="M6.427,11.464c-0.576-1.004-1.655-1.504-2.23-2.508
	c1.231,0.999,2.346,2.113,3.344,3.345C6.974,12.218,6.995,11.546,6.427,11.464z"/>
<path fill-rule="evenodd" clip-rule="evenodd" fill="#A3A3A3" d="M7.542,12.3c0.583,0.346,1.048,0.81,1.394,1.393
	C8.353,13.347,7.888,12.883,7.542,12.3z"/>
<path fill-rule="evenodd" clip-rule="evenodd" fill="#707070" d="M8.936,13.693c0.767,0.534,1.418,1.183,1.951,1.952
	C10.118,15.111,9.468,14.461,8.936,13.693z"/>
<path fill-rule="evenodd" clip-rule="evenodd" fill="#313131" d="M10.886,15.645c0.568,0.082,0.547,0.753,1.115,0.836
	c0.385,0.822,1.287,1.128,1.672,1.951C12.627,17.619,11.699,16.69,10.886,15.645z"/>
<path fill-rule="evenodd" clip-rule="evenodd" fill="#D5D5D5" d="M13.673,18.432c-0.385-0.822-1.287-1.128-1.672-1.951
	c0.953,0.719,1.789,1.555,2.509,2.508C14.143,18.891,14.071,18.499,13.673,18.432z"/>
<path fill-rule="evenodd" clip-rule="evenodd" fill="#D5D5D5" d="M17.018,21.497c0.478,0.359,1.096,0.577,1.114,1.394
	C17.5,22.688,17.299,22.053,17.018,21.497z"/>
<path fill-rule="evenodd" clip-rule="evenodd" fill="#707070" d="M81.122,35.99c0-0.465,0-0.929,0-1.393c0.371,0,0.743,0,1.114,0
	c0.023,0.441-0.135,1.063,0.278,1.115c0,0.464,0,0.929,0,1.394c0.28,0,0.559,0,0.837,0c0,0.093,0,0.186,0,0.279
	c-0.278,0-0.557,0-0.837,0c0.048-0.604-0.988-0.127-1.393-0.279C81.122,36.733,81.122,36.362,81.122,35.99z"/>
<path fill-rule="evenodd" clip-rule="evenodd" fill="#313131" d="M81.122,35.99c-0.621-0.117-0.219-1.479,0-1.672
	c1.196-0.267,1.661,0.197,1.393,1.394c-0.413-0.052-0.255-0.674-0.278-1.115c-0.371,0-0.743,0-1.114,0
	C81.122,35.062,81.122,35.525,81.122,35.99z"/>
<path fill-rule="evenodd" clip-rule="evenodd" fill="#313131" d="M63.005,44.073c0.251-0.491,0.624-0.863,1.115-1.115
	C63.868,43.45,63.497,43.822,63.005,44.073z"/>
<path fill-rule="evenodd" clip-rule="evenodd" fill="#313131" d="M50.463,49.09c-0.252-0.492-0.624-0.863-1.115-1.115
	c0-0.093,0-0.187,0-0.278c0.583,0.346,1.048,0.811,1.393,1.394C50.649,49.09,50.556,49.09,50.463,49.09z"/>
<path fill-rule="evenodd" clip-rule="evenodd" fill="#313131" d="M41.544,26.235c0.346-0.583,0.811-1.047,1.394-1.394
	C42.592,25.425,42.128,25.89,41.544,26.235z"/>
<path fill-rule="evenodd" clip-rule="evenodd" fill="#313131" d="M81.957,20.661c0.253-0.491,0.623-0.863,1.116-1.114
	C82.821,20.038,82.448,20.409,81.957,20.661z"/>
<path fill-rule="evenodd" clip-rule="evenodd" fill="#707070" d="M83.073,19.547c0.438-0.676,0.996-1.233,1.671-1.673
	c0.092,1.303,1.583,1.206,1.673,2.509c-0.248,0.123-0.499,0.245-0.557,0.557C84.628,20.859,84.053,18.987,83.073,19.547z"/>
<path fill-rule="evenodd" clip-rule="evenodd" fill="#D5D5D5" d="M49.349,47.975c0.491,0.252,0.863,0.623,1.115,1.115
	C49.972,48.838,49.6,48.466,49.349,47.975z"/>
<path fill-rule="evenodd" clip-rule="evenodd" fill="#D5D5D5" d="M63.005,44.073c0.491-0.251,0.863-0.623,1.115-1.115
	c0.093,0,0.186,0,0.278,0c-0.346,0.583-0.81,1.047-1.393,1.394C63.005,44.259,63.005,44.166,63.005,44.073z"/>
<path fill-rule="evenodd" clip-rule="evenodd" fill="#D5D5D5" d="M15.067,19.547c0.491,0.251,0.863,0.623,1.115,1.114
	c-0.568-0.082-0.546-0.753-1.115-0.836C15.067,19.732,15.067,19.64,15.067,19.547z"/>
<path fill-rule="evenodd" clip-rule="evenodd" fill="#D5D5D5" d="M3.361,4.775c0.568,0.082,0.547,0.754,1.115,0.836
	C4.558,6.179,5.23,6.158,5.312,6.726C4.544,6.193,3.895,5.542,3.361,4.775z"/>
<path fill-rule="evenodd" clip-rule="evenodd" fill="#313131" d="M5.312,6.726C5.23,6.158,4.558,6.179,4.476,5.611
	C5.429,6.33,6.265,7.167,6.984,8.12C6.251,7.831,6.045,7.014,5.312,6.726z"/>
<path fill-rule="evenodd" clip-rule="evenodd" fill="#707070" d="M6.984,8.12c0.861,0.625,1.604,1.369,2.23,2.229
	C8.354,9.723,7.611,8.979,6.984,8.12z"/>
<path fill-rule="evenodd" clip-rule="evenodd" fill="#A3A3A3" d="M9.214,10.349c0.492,0.251,0.863,0.623,1.115,1.115
	C9.837,11.212,9.466,10.841,9.214,10.349z"/>
<path fill-rule="evenodd" clip-rule="evenodd" fill="#D5D5D5" d="M10.329,11.464c0.648,0.188,0.747,0.926,1.394,1.115
	c0.289,0.734,1.105,0.939,1.394,1.672C12.07,13.438,11.141,12.509,10.329,11.464z"/>
<path fill-rule="evenodd" clip-rule="evenodd" fill="#313131" d="M13.116,14.251c-0.289-0.733-1.105-0.938-1.394-1.672
	c0.953,0.719,1.79,1.555,2.509,2.509C13.663,15.005,13.684,14.333,13.116,14.251z"/>
<path fill-rule="evenodd" clip-rule="evenodd" fill="#707070" d="M14.231,15.087c0.953,0.719,1.789,1.555,2.508,2.508
	c1.326,0.015,1.496-2.264,2.787-1.394c0.804,1.15-1.124,1.549-1.394,2.509c-0.092,0-0.185,0-0.278,0
	C16.718,17.431,15.197,16.536,14.231,15.087z"/>
<path fill-rule="evenodd" clip-rule="evenodd" fill="#A3A3A3" d="M17.854,18.71c0.093,0,0.186,0,0.278,0c0,0.093,0,0.186,0,0.278
	c0.402,0.156,0.68,0.435,0.836,0.836C18.478,19.573,18.105,19.202,17.854,18.71z"/>
<path fill-rule="evenodd" clip-rule="evenodd" fill="#707070" d="M64.678,46.302c0.439-0.675,0.997-1.232,1.672-1.672
	C65.91,45.306,65.352,45.863,64.678,46.302z"/>
<path fill-rule="evenodd" clip-rule="evenodd" fill="#707070" d="M47.397,49.647c0.492,0.252,0.863,0.624,1.115,1.115
	C48.021,50.51,47.649,50.138,47.397,49.647z"/>
<path fill-rule="evenodd" clip-rule="evenodd" fill="#707070" d="M39.872,24.005c0.252-0.491,0.624-0.863,1.115-1.114
	C40.735,23.382,40.364,23.754,39.872,24.005z"/>
<path fill-rule="evenodd" clip-rule="evenodd" fill="#313131" d="M80.284,18.432c0.253-0.491,0.626-0.863,1.116-1.115
	C81.148,17.809,80.777,18.18,80.284,18.432z"/>
<path fill-rule="evenodd" clip-rule="evenodd" fill="#707070" d="M82.515,16.202c-0.251,0.491-0.623,0.864-1.114,1.115
	c-0.124-0.248-0.244-0.499-0.557-0.558c-0.175-0.755-1.166-0.694-1.116-1.672c0.249-0.124,0.499-0.245,0.557-0.558
	C81.461,14.656,81.568,15.848,82.515,16.202z"/>
<path fill-rule="evenodd" clip-rule="evenodd" fill="#313131" d="M80.844,16.759c-0.857-0.423-2.094-1.721-0.56-2.229
	c-0.058,0.313-0.308,0.434-0.557,0.558C79.678,16.065,80.669,16.004,80.844,16.759z"/>
<path fill-rule="evenodd" clip-rule="evenodd" fill="#313131" d="M80.284,40.171c0-0.093,0-0.186,0-0.278c0.281,0,0.56,0,0.838,0
	c0.493,0.527,0.202,1.84,0.278,2.787c-0.633-0.297-0.106-1.752-0.278-2.509C80.844,40.171,80.565,40.171,80.284,40.171z"/>
<path fill-rule="evenodd" clip-rule="evenodd" fill="#707070" d="M10.329,0.594c0.208-0.628,1.563-0.109,2.23-0.278
	C12.351,0.944,10.996,0.424,10.329,0.594z"/>
<path fill-rule="evenodd" clip-rule="evenodd" fill="#707070" d="M25.101,0.316c0.577,0.165,1.831-0.345,1.951,0.278
	C26.474,0.428,25.221,0.939,25.101,0.316z"/>
<path fill-rule="evenodd" clip-rule="evenodd" fill="#A3A3A3" d="M23.429,2.824c0.49,0.16,1.637-0.337,1.672,0.278
	c-0.557,0-1.115,0-1.672,0C23.429,3.009,23.429,2.917,23.429,2.824z"/>
<path fill-rule="evenodd" clip-rule="evenodd" fill="#707070" d="M9.493,3.381c0.12-0.624,1.374-0.113,1.951-0.279
	C11.324,3.726,10.07,3.216,9.493,3.381z"/>
<path fill-rule="evenodd" clip-rule="evenodd" fill="#707070" d="M26.494,3.103c0.49,0.161,1.637-0.336,1.672,0.279
	C27.676,3.221,26.529,3.718,26.494,3.103z"/>
<path fill-rule="evenodd" clip-rule="evenodd" fill="#707070" d="M59.103,5.611c0.49,0.161,1.638-0.336,1.672,0.279
	C60.286,5.729,59.138,6.226,59.103,5.611z"/>
<path fill-rule="evenodd" clip-rule="evenodd" fill="#A3A3A3" d="M61.891,5.89c0.464,0,0.929,0,1.394,0c0,0.093,0,0.186,0,0.278
	C62.879,6.016,61.843,6.494,61.891,5.89z"/>
<path fill-rule="evenodd" clip-rule="evenodd" fill="#707070" d="M80.565,6.447c1.212,0.18,3.149-0.364,3.9,0.278
	c-1.3,0-2.601,0-3.9,0C80.565,6.633,80.565,6.541,80.565,6.447z"/>
<path fill-rule="evenodd" clip-rule="evenodd" fill="#707070" d="M57.431,8.12c0.49,0.16,1.638-0.337,1.672,0.278
	C58.613,8.238,57.466,8.735,57.431,8.12z"/>
<path fill-rule="evenodd" clip-rule="evenodd" fill="#707070" d="M59.939,8.398c0.578,0.166,1.831-0.344,1.952,0.278
	C61.313,8.511,60.06,9.021,59.939,8.398z"/>
<path fill-rule="evenodd" clip-rule="evenodd" fill="#707070" d="M88.09,10.07c0.459,0.124,0.459,2.106,0,2.23
	C88.09,11.557,88.09,10.813,88.09,10.07z"/>
<path fill-rule="evenodd" clip-rule="evenodd" fill="#707070" d="M15.067,19.825c0.568,0.083,0.547,0.754,1.115,0.836
	c0,0.093,0,0.186,0,0.279c-0.901,0.214-1.458,0.771-1.672,1.673C12.133,22.12,13.97,20.548,15.067,19.825z"/>
<path fill-rule="evenodd" clip-rule="evenodd" fill="#A3A3A3" d="M66.35,25.678c1.208,0,2.416,0,3.623,0
	c-0.659,0.641-2.501,0.1-3.623,0.279C66.35,25.864,66.35,25.771,66.35,25.678z"/>
<path fill-rule="evenodd" clip-rule="evenodd" fill="#707070" d="M121.813,35.433c1.029,0.178,2.776-0.361,3.346,0.279
	c-1.116,0-2.23,0-3.346,0C121.813,35.619,121.813,35.525,121.813,35.433z"/>
<path fill-rule="evenodd" clip-rule="evenodd" fill="#313131" d="M54.922,50.484c-0.046-0.604,0.989-0.127,1.394-0.279
	C56.363,50.809,55.328,50.332,54.922,50.484z"/>
<path fill-rule="evenodd" clip-rule="evenodd" fill="#313131" d="M53.529,52.992c0.836,0,1.672,0,2.508,0
	C55.826,53.453,53.741,53.453,53.529,52.992z"/>
<path fill-rule="evenodd" clip-rule="evenodd" fill="#707070" d="M95.614,72.501c-0.791,0.417-1.729,0.688-2.786,0.836
	c0.242-1.643-1.457-2.807-0.56-4.18c0.674,0.113,0.607-0.51,1.395-0.279c0.974,0.699,0.779,2.564,1.395,3.623
	C95.244,72.501,95.429,72.501,95.614,72.501z"/>
<path fill-rule="evenodd" clip-rule="evenodd" fill="#FFFFFF" d="M12.559,0.316c0.464,0,0.929,0,1.394,0s0.929,0,1.394,0
	c0.65,0,1.3,0,1.951,0c1.022,0,2.044,0,3.066,0c0.65,0,1.301,0,1.951,0c0.464,0,0.929,0,1.394,0c0.464,0,0.929,0,1.394,0
	c0.12,0.623,1.374,0.112,1.951,0.278c11.301,1.055,21.101,3.611,32.051,5.017c0.035,0.615,1.183,0.118,1.672,0.279
	c0.372,0,0.743,0,1.115,0c-0.047,0.604,0.988,0.126,1.394,0.278c0.371,0,0.743,0,1.114,0c0.186,0,0.373,0,0.558,0
	c-0.046,0.605,0.989,0.127,1.394,0.279c0.372,0,0.743,0,1.114,0c0.836,0,1.673,0,2.508,0c1.022,0,2.044,0,3.065,0
	c0.651,0,1.303,0,1.951,0c0.478,0.638,2.128,0.102,3.065,0.278c0.838,0,1.673,0,2.511,0c1.3,0,2.601,0,3.9,0
	c2.111-0.067,2.544,1.544,3.624,2.508c0,0.279,0,0.558,0,0.836c0,0.743,0,1.486,0,2.23c-0.589,2.383-2.168,3.779-3.346,5.574
	c-0.675,0.44-1.232,0.997-1.671,1.673c-0.493,0.251-0.863,0.623-1.116,1.114c-3.167,2.499-6.637,4.697-11.984,5.017
	c-1.207,0-2.415,0-3.623,0c-0.558,0-1.115,0-1.672,0c-5.615-0.517-10.843-1.421-16.166-2.229c-0.211-0.461-2.297-0.461-2.508,0
	c-1.132,0.354-2.284,0.688-3.066,1.393c-0.583,0.346-1.047,0.811-1.394,1.394c-1.944,2.845-1.532,5.7,0.279,8.919
	c2.159,3.839,5.575,8.922,7.525,12.542c0,0.092,0,0.186,0,0.278c0.251,0.491,0.623,0.863,1.115,1.115c0.093,0,0.186,0,0.278,0
	c1.071,0.787,2.699,1.017,4.181,1.394c0.405-0.152,1.44,0.325,1.394-0.279c3.623-0.558,4.347-4.015,6.689-5.853
	c0.583-0.347,1.047-0.811,1.393-1.394c2.657-2.825,6.226-4.737,11.148-5.295c1.122-0.179,2.965,0.363,3.624-0.278
	c0.278,0,0.557,0,0.835,0c0.373,0,0.743,0,1.116,0c0.465,0,0.928,0,1.393,0c0.28,0,0.559,0,0.837,0c0.371,0,0.743,0,1.114,0
	c0.404-0.153,1.44,0.326,1.395-0.279c0.278,0,0.557,0,0.835,0c0.558,0,1.116,0,1.673,0c0.558,0,1.114,0,1.673,0
	c0.371,0,0.743,0,1.114,0c0.404-0.152,1.44,0.326,1.395-0.279c0.278,0,0.557,0,0.835,0c0.557,0,1.114,0,1.673,0
	c0.557,0,1.114,0,1.671,0c0.465,0,0.93,0,1.395,0c0.44-0.023,1.063,0.134,1.114-0.278c0.372,0,0.743,0,1.115,0
	c0.465,0,0.93,0,1.393,0c0.465,0,0.93,0,1.395,0c0.557,0,1.116,0,1.673,0c0.44-0.023,1.062,0.134,1.113-0.279
	c0.373,0,0.744,0,1.116,0c0.465,0,0.928,0,1.393,0s0.93,0,1.395,0c0.557,0,1.113,0,1.673,0c0.44-0.023,1.062,0.134,1.113-0.279
	c0.373,0,0.743,0,1.116,0c0.465,0,0.928,0,1.393,0c0.557,0,1.115,0,1.673,0c0.465,0,0.93,0,1.395,0
	c0.404-0.152,1.44,0.326,1.392-0.278c0.279,0,0.558,0,0.838,0c0.463,0,0.928,0,1.393,0c1.115,0,2.229,0,3.346,0
	c0.677,0.063,1.3,0.045,1.949,0.278c1.012,0.363,3.476,2.279,4.181,3.344c0.339,0.513,0.567,1.471,0.836,2.23
	c0.979,2.764,1.781,5.771,2.788,8.919c0.514,1.604,1.631,4.313,1.949,6.409c0,0.651,0,1.302,0,1.951
	c-0.687,1.986-2.706,3.315-4.457,4.46c-1.303,0.852-2.753,1.375-4.46,2.229c-0.887,0.443-1.656,0.935-3.066,1.394
	c-8.996,2.929-19.772,5.685-28.985,8.361c-0.724,0.3-1.867,0.178-2.23,0.837c-9.209,2.662-18.429,5.185-28.428,8.081
	c-1.134,0.33-2.678,1.043-4.18,1.395c-0.917,0.215-1.834,0.401-2.509,0.278c-2.073-0.378-1.984-1.806-3.066-3.623
	c-0.181-0.305-0.612-0.486-0.836-0.836c-0.288-0.45-0.331-0.787-0.557-1.115c-0.93-1.35-1.756-2.257-2.787-3.623
	c-0.243-0.321-0.308-0.803-0.558-1.115c-0.51-0.639-1.545-1.582-2.229-2.508c-0.203-0.274-0.342-0.805-0.557-1.115
	c-0.069-0.099-0.518-0.19-0.558-0.278c-0.062-0.137,0.087-0.439,0-0.558c-0.47-0.632-1.178-1.021-1.672-1.672
	c-0.225-0.296-0.354-0.836-0.558-1.115c-0.587-0.801-1.46-1.767-2.23-2.787c-0.256-0.34-0.27-0.754-0.558-1.114
	c-0.393-0.493-0.848-0.912-1.393-1.673c-1.307-1.822-3.134-4.479-4.459-6.688c-6.95-11.583-10.797-24.702-18.396-33.167
	c-0.019-0.817-0.637-1.035-1.114-1.394c-0.366-0.098-0.438-0.49-0.836-0.557c0-0.093,0-0.186,0-0.279
	c-0.251-0.491-0.624-0.863-1.115-1.114c-0.248-0.124-0.499-0.246-0.557-0.558c-0.72-0.953-1.556-1.789-2.509-2.508
	c-0.568-0.083-0.546-0.754-1.115-0.836c-0.533-0.769-1.184-1.418-1.951-1.952C8.589,13.11,8.125,12.646,7.542,12.3
	c-0.998-1.232-2.113-2.346-3.344-3.345C3.629,8.874,3.65,8.201,3.083,8.12C2.831,7.628,2.459,7.256,1.968,7.004
	C1.716,6.513,1.344,6.142,0.853,5.89C0.006,5.381-0.04,4.769,0.017,3.938c0.213-3.156,6.866-2.841,10.312-3.344
	C10.996,0.424,12.351,0.944,12.559,0.316z M16.739,2.824c-0.372,0-0.743,0-1.115,0c-0.464,0-0.929,0-1.393,0
	c-0.49,0.16-1.638-0.337-1.672,0.278c-0.372,0-0.743,0-1.115,0c-0.578,0.166-1.832-0.345-1.951,0.279
	c-1.99,0.24-3.764,0.695-5.853,0.836c0.001,0.28-0.226,0.332-0.279,0.558c0.534,0.767,1.184,1.418,1.951,1.951
	C6.045,7.014,6.251,7.831,6.984,8.12c0.627,0.86,1.37,1.603,2.23,2.229c0.252,0.492,0.624,0.863,1.115,1.115
	c0.813,1.045,1.742,1.975,2.788,2.787c0.568,0.082,0.546,0.754,1.115,0.836c0.966,1.449,2.487,2.344,3.623,3.623
	c0.251,0.491,0.624,0.863,1.115,1.115c4.443,4.344,7.679,9.668,10.312,15.329c1.508,3.24,3.215,6.729,4.46,9.754
	c0.518,1.26,1.101,2.268,1.672,3.345c0.397,0.753,0.696,1.496,1.115,2.23c0.39,0.684,0.98,1.23,1.394,1.951
	c0.211,0.369,0.073,0.752,0.278,1.113c0.197,0.35,0.66,0.545,0.836,0.837c0.421,0.698,0.68,1.543,1.115,2.229
	c0.664,1.047,1.379,1.872,1.951,2.787c0.521,0.833,0.99,1.167,1.394,1.673c0.285,0.356,0.309,0.775,0.558,1.114
	c1.438,1.97,2.802,3.735,4.181,5.575c2.001,2.669,4.427,5.617,6.131,8.082c0.228,0.329,0.318,0.803,0.557,1.115
	c0.46,0.602,1.254,1.057,1.672,1.672c0.192,0.282,0.381,0.806,0.558,1.115c0.656,1.151,1.401,2.163,1.672,3.345
	c11.531-3.056,22.59-6.584,34.003-9.756c1.058-0.148,1.995-0.419,2.786-0.836c7.537-2.317,15.789-4.485,23.134-6.688
	c6.143-1.844,11.846-3.791,15.606-7.805c-1.521-4.525-3.182-10.519-4.738-15.05c-0.961-2.803-2.546-4.13-5.295-4.738
	c0.126-0.455-1.519-0.455-1.393,0c-0.278,0-0.559,0-0.837,0c-0.465,0-0.928,0-1.393,0c-0.559,0-1.116,0-1.673,0
	c-0.372,0-0.743,0-1.116,0c-0.488,0.16-1.637-0.337-1.671,0.278c-0.278,0-0.559,0-0.837,0c-0.465,0-0.928,0-1.393,0
	c-0.557,0-1.115,0-1.673,0c-0.37,0-0.743,0-1.113,0c-0.491,0.161-1.64-0.336-1.673,0.279c-0.279,0-0.558,0-0.838,0
	c-0.557,0-1.114,0-1.671,0c-0.465,0-0.93,0-1.395,0c-0.37,0-0.743,0-1.113,0c-0.491,0.16-1.639-0.337-1.673,0.278
	c-0.278,0-0.558,0-0.836,0c-0.559,0-1.115,0-1.673,0c-0.465,0-0.93,0-1.395,0c-0.37,0-0.743,0-1.113,0
	c-0.491,0.16-1.637-0.337-1.673,0.278c-0.278,0-0.558,0-0.836,0c-0.559,0-1.115,0-1.673,0c-0.465,0-0.93,0-1.395,0
	c-0.464,0-0.927,0-1.392,0c-0.405,0.153-1.44-0.326-1.395,0.28c-0.371,0-0.743,0-1.114,0c-0.465,0-0.93,0-1.395,0s-0.927,0-1.392,0
	s-0.93,0-1.395,0c-0.405,0.152-1.44-0.326-1.393,0.278c-0.094,0-0.187,0-0.28,0c-0.465,0-0.928,0-1.393,0c-0.278,0-0.557,0-0.838,0
	c-0.462,0-0.927,0-1.392,0c-0.417,0.047-1.03-0.1-1.116,0.278c-5.024,0.271-8.364,2.226-11.426,4.459
	c-0.675,0.439-1.233,0.997-1.672,1.672c-2.067,3.043-3.839,6.381-8.64,6.689c-0.836,0-1.672,0-2.508,0
	c-2.353-0.063-3.77-1.062-5.017-2.229c-0.252-0.491-0.623-0.863-1.115-1.115c-0.344-0.004-0.165-0.305-0.279-0.557
	c-0.042-0.094-0.489-0.174-0.557-0.279c-0.188-0.291-0.346-0.763-0.558-1.114c-0.782-1.301-1.525-2.742-2.23-3.902
	c-0.191-0.315-0.333-0.764-0.557-1.115c-0.169-0.264-0.663-0.547-0.836-0.836c-0.216-0.361-0.075-0.755-0.279-1.115
	c-0.184-0.326-0.646-0.514-0.836-0.836c-0.082-0.139,0.067-0.41,0-0.558c-0.044-0.097-0.491-0.164-0.557-0.278
	c-0.206-0.355-0.347-0.756-0.558-1.114c-1.209-2.062-2.393-3.785-2.508-6.132c0-0.929,0-1.858,0-2.787
	c0.063-2.352,1.062-3.769,2.229-5.017c0.492-0.251,0.863-0.623,1.115-1.114c1.228-0.975,2.605-1.961,4.181-2.23
	c2.97-0.506,6.02,0.225,8.361,0.558c4.273,0.607,8.952,1.504,12.542,1.951c0.301,0.461,2.486,0.461,2.787,0
	c4.765-0.623,8.458-2.32,11.426-4.738c0.493-0.252,0.864-0.623,1.116-1.115c0.491-0.251,0.863-0.624,1.114-1.115
	c1.037-1.841,2.685-3.077,3.067-5.574c-0.621-1.331-2.419-1.485-4.46-1.394c-0.387-0.635-1.941-0.104-2.787-0.278
	c-0.837,0-1.673,0-2.51,0c-1.021,0-2.044,0-3.065,0s-2.043,0-3.065,0c-0.557,0-1.115,0-1.672,0C67.987,8.34,66.84,8.837,66.35,8.676
	c-0.372,0-0.743,0-1.115,0c-0.65,0-1.3,0-1.951,0c-0.465,0-0.93,0-1.394,0c-0.121-0.623-1.374-0.112-1.952-0.278
	c-0.278,0-0.557,0-0.836,0C59.068,7.782,57.92,8.28,57.431,8.12C47.286,6.931,38.086,4.796,28.167,3.381
	c-0.035-0.615-1.183-0.118-1.672-0.279c-0.464,0-0.929,0-1.394,0c-0.035-0.616-1.182-0.118-1.672-0.278c-0.465,0-0.93,0-1.394,0
	c-0.372,0-0.743,0-1.115,0C20.166,2.361,17.494,2.361,16.739,2.824z"/>
<path fill-rule="evenodd" clip-rule="evenodd" fill="#A3A3A3" d="M75.547,37.663c0.661-0.641,2.502-0.1,3.624-0.278
	C78.512,38.025,76.669,37.484,75.547,37.663z"/>
<path fill-rule="evenodd" clip-rule="evenodd" fill="#707070" d="M12.559,3.103c0.035-0.616,1.183-0.118,1.672-0.278
	c0,0.092,0,0.185,0,0.278C13.673,3.103,13.116,3.103,12.559,3.103z"/>
<path fill-rule="evenodd" clip-rule="evenodd" fill="#707070" d="M46.004,23.449c0.211-0.461,2.297-0.461,2.508,0
	C47.676,23.449,46.84,23.449,46.004,23.449z"/>
<path fill-rule="evenodd" clip-rule="evenodd" fill="#707070" d="M93.663,76.125c0.363-0.659,1.507-0.537,2.23-0.837
	c0.302,1.463,0.811,2.719,1.113,4.182c-0.713,0.028-1.328,0.157-1.671,0.557C94.252,79.253,94.417,77.23,93.663,76.125z"/>
<path fill-rule="evenodd" clip-rule="evenodd" fill="#707070" d="M63.284,8.676c0.65,0,1.3,0,1.951,0c0,0.093,0,0.187,0,0.279
	C64.658,8.79,63.404,9.3,63.284,8.676z"/>
<path fill-rule="evenodd" clip-rule="evenodd" fill="#707070" d="M64.678,25.678c0.557,0,1.115,0,1.672,0c0,0.093,0,0.186,0,0.279
	C65.86,25.796,64.712,26.294,64.678,25.678z"/>
<path fill-rule="evenodd" clip-rule="evenodd" fill="#707070" d="M37.643,29.022c0,0.929,0,1.858,0,2.787
	C37.181,31.509,37.181,29.323,37.643,29.022z"/>
<path fill-rule="evenodd" clip-rule="evenodd" fill="#707070" d="M136.862,56.893c0.461,0.038,0.461,1.914,0,1.951
	C136.862,58.195,136.862,57.544,136.862,56.893z"/>
</svg>
