<?xml version="1.0" encoding="utf-8"?>
<!-- Generator: Adobe Illustrator 15.0.0, SVG Export Plug-In  -->
<!DOCTYPE svg PUBLIC "-//W3C//DTD SVG 1.1//EN" "http://www.w3.org/Graphics/SVG/1.1/DTD/svg11.dtd" [
	<!ENTITY ns_flows "http://ns.adobe.com/Flows/1.0/">
]>
<svg version="1.1"
	 xmlns="http://www.w3.org/2000/svg" xmlns:xlink="http://www.w3.org/1999/xlink" xmlns:a="http://ns.adobe.com/AdobeSVGViewerExtensions/3.0/"
	 x="0px" y="0px" width="142px" height="142px" viewBox="-2.723 -27.12 142 142" enable-background="new -2.723 -27.12 142 142"
	 xml:space="preserve">
<defs>
</defs>
<path fill-rule="evenodd" clip-rule="evenodd" fill="#323232" d="M45.494,0.316c0.5-0.036,0.653,0.277,0.558,0.836
	c-0.093,0-0.186,0-0.278,0C45.785,0.769,45.642,0.541,45.494,0.316z"/>
<path fill-rule="evenodd" clip-rule="evenodd" fill="#323232" d="M14,1.432c0.035-0.616,1.182-0.119,1.672-0.279
	c0,0.093,0,0.186,0,0.279C15.115,1.432,14.558,1.432,14,1.432z"/>
<path fill-rule="evenodd" clip-rule="evenodd" fill="#737373" d="M15.672,1.432c0-0.093,0-0.187,0-0.279c0.744,0,1.487,0,2.23,0
	c0,0.093,0,0.186,0,0.279C17.159,1.432,16.416,1.432,15.672,1.432z"/>
<path fill-rule="evenodd" clip-rule="evenodd" fill="#A6A6A6" d="M17.902,1.432c0-0.093,0-0.187,0-0.279c0.743,0,1.486,0,2.23,0
	c0,0.093,0,0.186,0,0.279C19.388,1.432,18.645,1.432,17.902,1.432z"/>
<path fill-rule="evenodd" clip-rule="evenodd" fill="#737373" d="M20.132,1.432c0-0.093,0-0.187,0-0.279c0.743,0,1.486,0,2.229,0
	c0,0.093,0,0.186,0,0.279C21.618,1.432,20.875,1.432,20.132,1.432z"/>
<path fill-rule="evenodd" clip-rule="evenodd" fill="#323232" d="M22.361,1.432c0-0.093,0-0.187,0-0.279
	c0.405,0.152,1.44-0.326,1.394,0.279C23.29,1.432,22.826,1.432,22.361,1.432z"/>
<path fill-rule="evenodd" clip-rule="evenodd" fill="#D8D8D8" d="M17.066,3.94c0.663-0.463,3.239-0.463,3.902,0
	C19.667,3.94,18.367,3.94,17.066,3.94z"/>
<path fill-rule="evenodd" clip-rule="evenodd" fill="#323232" d="M14.279,4.218c0-0.093,0-0.186,0-0.278c0.558,0,1.115,0,1.672,0
	C15.917,4.555,14.769,4.058,14.279,4.218z"/>
<path fill-rule="evenodd" clip-rule="evenodd" fill="#323232" d="M22.083,3.94c0.558,0,1.115,0,1.672,0c0,0.092,0,0.185,0,0.278
	C23.265,4.058,22.117,4.555,22.083,3.94z"/>
<path fill-rule="evenodd" clip-rule="evenodd" fill="#323232" d="M63.332,7.284c0-0.092,0-0.185,0-0.278
	c0.417,0.048,1.028-0.1,1.114,0.278C64.075,7.284,63.703,7.284,63.332,7.284z"/>
<path fill-rule="evenodd" clip-rule="evenodd" fill="#D8D8D8" d="M65.004,7.284c0.465,0,0.929,0,1.394,0c0,0.093,0,0.186,0,0.279
	C65.993,7.411,64.958,7.889,65.004,7.284z"/>
<path fill-rule="evenodd" clip-rule="evenodd" fill="#A6A6A6" d="M66.398,7.563c0-0.093,0-0.186,0-0.279c0.557,0,1.114,0,1.672,0
	c0,0.093,0,0.186,0,0.279C67.512,7.563,66.955,7.563,66.398,7.563z"/>
<path fill-rule="evenodd" clip-rule="evenodd" fill="#737373" d="M68.07,7.563c0-0.093,0-0.186,0-0.279c0.557,0,1.115,0,1.672,0
	c0,0.093,0,0.186,0,0.279C69.185,7.563,68.627,7.563,68.07,7.563z"/>
<path fill-rule="evenodd" clip-rule="evenodd" fill="#323232" d="M69.742,7.563c0-0.093,0-0.186,0-0.279
	c0.848,0.175,2.4-0.356,2.787,0.279C71.6,7.563,70.672,7.563,69.742,7.563z"/>
<path fill-rule="evenodd" clip-rule="evenodd" fill="#D8D8D8" d="M75.037,7.563c1.022,0,2.044,0,3.065,0c0,0.093,0,0.186,0,0.278
	C77.165,7.665,75.515,8.201,75.037,7.563z"/>
<path fill-rule="evenodd" clip-rule="evenodd" fill="#A6A6A6" d="M78.103,7.841c0-0.093,0-0.185,0-0.278c0.838,0,1.673,0,2.511,0
	c0,0.093,0,0.186,0,0.278C79.775,7.841,78.94,7.841,78.103,7.841z"/>
<path fill-rule="evenodd" clip-rule="evenodd" fill="#A6A6A6" d="M65.283,10.071c0-0.093,0-0.186,0-0.279c0.464,0,0.929,0,1.394,0
	c0,0.093,0,0.187,0,0.279C66.211,10.071,65.747,10.071,65.283,10.071z"/>
<path fill-rule="evenodd" clip-rule="evenodd" fill="#D8D8D8" d="M66.676,10.071c0-0.093,0-0.186,0-0.279
	c0.49,0.161,1.637-0.336,1.672,0.279C67.791,10.071,67.234,10.071,66.676,10.071z"/>
<path fill-rule="evenodd" clip-rule="evenodd" fill="#323232" d="M69.742,10.071c0.836,0,1.673,0,2.509,0c0,0.093,0,0.186,0,0.278
	C71.493,10.177,70.038,10.704,69.742,10.071z"/>
<path fill-rule="evenodd" clip-rule="evenodd" fill="#737373" d="M72.251,10.35c0-0.093,0-0.185,0-0.278c1.208,0,2.416,0,3.622,0
	c0,0.093,0,0.186,0,0.278C74.667,10.35,73.459,10.35,72.251,10.35z"/>
<path fill-rule="evenodd" clip-rule="evenodd" fill="#A6A6A6" d="M75.873,10.35c0-0.093,0-0.185,0-0.278c1.023,0,2.045,0,3.067,0
	c0,0.093,0,0.186,0,0.278C77.918,10.35,76.896,10.35,75.873,10.35z"/>
<path fill-rule="evenodd" clip-rule="evenodd" fill="#D8D8D8" d="M78.94,10.35c0-0.093,0-0.185,0-0.278
	c0.755,0.172,2.212-0.354,2.508,0.278C80.613,10.35,79.775,10.35,78.94,10.35z"/>
<path fill-rule="evenodd" clip-rule="evenodd" fill="#737373" d="M5.081,11.186c0.28,0,0.332,0.226,0.558,0.279
	c-0.001,0.28,0.226,0.332,0.279,0.557c-0.385,0.823-1.287,1.128-1.672,1.951c-0.093,0-0.186,0-0.279,0
	c-0.016-0.169-0.042-0.33-0.279-0.279C2.883,12.544,4.811,12.146,5.081,11.186z"/>
<path fill-rule="evenodd" clip-rule="evenodd" fill="#323232" d="M41.871,18.154c-0.152,0.405,0.326,1.44-0.279,1.394
	C41.745,19.142,41.267,18.107,41.871,18.154z"/>
<path fill-rule="evenodd" clip-rule="evenodd" fill="#737373" d="M41.871,18.154c0.372,0,0.743,0,1.115,0c0,0.558,0,1.115,0,1.672
	c0,0.372,0,0.743,0,1.115c-0.464,0-0.929,0-1.394,0c0-0.464,0-0.929,0-1.394C42.197,19.594,41.719,18.559,41.871,18.154z"/>
<path fill-rule="evenodd" clip-rule="evenodd" fill="#323232" d="M42.986,18.154c0.458-0.045,0.458,1.718,0,1.672
	C42.986,19.269,42.986,18.711,42.986,18.154z"/>
<path fill-rule="evenodd" clip-rule="evenodd" fill="#737373" d="M41.592,23.729c0.465,0,0.93,0,1.394,0
	c-0.011,0.917-0.471,1.387-0.278,2.508c-0.062,0.217-0.234,0.324-0.558,0.278C40.641,26.554,41.564,24.588,41.592,23.729z"/>
<path fill-rule="evenodd" clip-rule="evenodd" fill="#323232" d="M42.986,23.729c0.093,0,0.186,0,0.279,0c0.186,0,0.372,0,0.557,0
	c0.052,0.413,0.674,0.255,1.115,0.278c0.186,0,0.372,0,0.557,0c0.052,0.413,0.674,0.255,1.115,0.278
	c0.417,0.048,1.028-0.1,1.115,0.279c-2.457-0.228-3.795,0.664-5.017,1.672C42.515,25.115,42.975,24.646,42.986,23.729z"/>
<path fill-rule="evenodd" clip-rule="evenodd" fill="#D8D8D8" d="M66.119,24.285c0.929,0,1.858,0,2.787,0
	C68.605,24.747,66.42,24.747,66.119,24.285z"/>
<path fill-rule="evenodd" clip-rule="evenodd" fill="#A6A6A6" d="M0.9,7.005C1.392,7.257,1.764,7.628,2.016,8.12
	C1.524,7.868,1.152,7.497,0.9,7.005z"/>
<path fill-rule="evenodd" clip-rule="evenodd" fill="#737373" d="M2.016,8.12c0.583,0.347,1.047,0.812,1.393,1.394
	C2.826,9.167,2.361,8.703,2.016,8.12z"/>
<path fill-rule="evenodd" clip-rule="evenodd" fill="#323232" d="M3.409,9.514c0.675,0.44,1.233,0.997,1.672,1.672
	c-0.271,0.96-2.198,1.358-1.394,2.508c0.237-0.051,0.263,0.109,0.279,0.279C3.6,13.875,3.528,13.482,3.13,13.416
	c0.183-1.025,1.027-1.388,1.672-1.951c-0.098-0.924-0.835-1.209-1.394-1.673C3.409,9.7,3.409,9.607,3.409,9.514z"/>
<path fill-rule="evenodd" clip-rule="evenodd" fill="#323232" d="M4.245,13.973c0.385-0.823,1.287-1.128,1.672-1.951
	c0.237-0.051,0.263,0.109,0.278,0.279C5.374,12.686,5.067,13.588,4.245,13.973z"/>
<path fill-rule="evenodd" clip-rule="evenodd" fill="#D8D8D8" d="M6.196,12.301c-0.015-0.17-0.042-0.33-0.278-0.279
	c-0.053-0.226-0.28-0.277-0.279-0.557c0.583,0.346,1.048,0.811,1.393,1.394C6.666,12.76,6.594,12.368,6.196,12.301z"/>
<path fill-rule="evenodd" clip-rule="evenodd" fill="#A6A6A6" d="M7.032,12.858c0.768,0.533,1.418,1.184,1.952,1.951
	C8.215,14.276,7.565,13.626,7.032,12.858z"/>
<path fill-rule="evenodd" clip-rule="evenodd" fill="#737373" d="M8.983,14.809c0.675,0.44,1.232,0.998,1.672,1.672
	C9.98,16.042,9.423,15.484,8.983,14.809z"/>
<path fill-rule="evenodd" clip-rule="evenodd" fill="#323232" d="M10.655,16.481c0.568,0.082,0.547,0.754,1.115,0.836
	c0.386,0.823,1.287,1.128,1.673,1.951C12.396,18.457,11.468,17.527,10.655,16.481z"/>
<path fill-rule="evenodd" clip-rule="evenodd" fill="#D8D8D8" d="M13.443,19.269c-0.386-0.823-1.287-1.128-1.673-1.951
	c1.046,0.813,1.975,1.742,2.788,2.787C13.989,20.022,14.011,19.351,13.443,19.269z"/>
<path fill-rule="evenodd" clip-rule="evenodd" fill="#A6A6A6" d="M14.558,20.104c0.768,0.533,1.418,1.183,1.951,1.951
	C15.741,21.522,15.091,20.873,14.558,20.104z"/>
<path fill-rule="evenodd" clip-rule="evenodd" fill="#D8D8D8" d="M16.508,22.056c0.675,0.439,1.233,0.998,1.672,1.673
	c-0.365-0.099-0.438-0.492-0.836-0.558C17.262,22.603,16.591,22.625,16.508,22.056z"/>
<path fill-rule="evenodd" clip-rule="evenodd" fill="#323232" d="M17.344,23.171c0.398,0.066,0.471,0.458,0.836,0.558
	c0.053,0.225,0.28,0.277,0.279,0.557C17.968,24.033,17.596,23.662,17.344,23.171z"/>
<path fill-rule="evenodd" clip-rule="evenodd" fill="#323232" d="M19.574,25.679c0.093,0,0.186,0,0.278,0
	c1.371,1.603,2.857,3.089,4.46,4.459c0.252,0.492,0.624,0.863,1.115,1.115c0.252,0.492,0.624,0.864,1.115,1.115
	c0.568,0.082,0.546,0.754,1.115,0.836c1.199,1.946,2.203,4.821,3.344,7.246c0.29,0.615,0.838,1.054,1.115,1.673
	c0.257,0.576,0.268,1.337,0.558,1.951c0.526,1.117,1.13,2.267,1.672,3.344c1.417,2.819,3.134,5.654,4.738,8.362
	c0.617,1.04,1.244,1.94,1.951,3.065c0.355,0.564,0.484,1.158,0.836,1.672c0.369,0.54,0.999,0.815,1.394,1.395
	c0.323,0.474,0.494,1.191,0.836,1.672c0.325,0.456,0.791,0.97,1.115,1.393c2.446,3.2,5.214,6.859,7.804,10.313
	c1.271,1.695,2.469,3.381,3.902,5.297c0.13,0.173,0.475,0.416,0.557,0.557c0.6,1.019,0.523,2.634,1.952,3.066
	c7.387-2.073,14.718-4.296,22.018-6.411c1.591-0.461,3.153-0.93,4.738-1.394c0.865-0.253,1.659-0.307,2.508-0.557
	c1.567-0.463,3.16-1.207,4.738-1.673c0.85-0.251,1.641-0.304,2.509-0.558c6.974-2.04,14.151-4.195,21.738-6.41
	c4.328-1.263,7.876-1.972,11.706-4.182c0.286-0.164,0.798-0.372,1.116-0.557c0.114-0.066,0.18-0.513,0.278-0.557
	c0.899-0.406,3.405-1.776,3.622-3.066c0.135-0.798-1.336-3.958-1.671-5.017c-0.653-2.063-1.14-3.322-1.673-5.017
	c-1.234-3.927-1.703-8.104-5.295-9.198c-1.458-0.444-3.5-0.115-6.133,0c-8.951,0.394-22.188,0.911-32.33,1.394
	c-6.064,0.289-11.412-0.219-15.886,1.672c-0.746,0.316-1.51,0.7-2.23,1.115c-0.292,0.168-0.874,0.402-1.115,0.558
	c-0.106,0.068-0.187,0.516-0.279,0.557c-0.72,0.325-1.766,1.17-2.508,1.951c-1.854,1.95-3.109,4.745-5.574,6.131
	c-2.232,1.256-5.266,1.694-8.083,0.837c-0.287-0.087-0.981-0.58-1.393-0.837c-1.337-0.831-2.228-1.447-3.345-3.065
	c-0.896-1.299-1.556-2.586-2.508-4.181c-0.201-0.337-0.298-0.71-0.558-1.115c-0.518-0.811-1.252-1.849-1.951-3.066
	c-1.127-1.964-2.704-4.014-3.623-6.41c-1.716-4.471-0.278-8.665,3.065-11.427c0.093,0,0.186,0,0.279,0
	c-0.028,0.859-0.952,2.825,0.557,2.787c-1.118,1.863-1.998,3.281-1.951,5.295c0.048,2.042,1.326,3.609,2.509,5.574
	c0.519,0.863,0.886,1.917,1.394,2.787c0.239,0.41,0.595,0.688,0.836,1.115c0.378,0.672,0.708,1.248,1.115,1.951
	c0.489,0.845,1.317,2.025,1.951,3.067c0.269,0.44,0.321,1.028,0.557,1.392c1.984,3.052,5.995,5.265,10.034,2.788
	c0.984-0.604,1.462-1.523,2.229-2.509c2.96-3.796,6.356-7.096,11.706-8.64c2.094-0.604,4.365-0.683,6.968-0.836
	c12.002-0.705,25.651-1.218,37.904-1.672c1.234-0.046,2.683,0.065,3.902,0c2.258-0.122,3.814-0.508,5.853,0.278
	c0.951,0.367,2.902,1.855,3.624,2.788c0.844,1.089,1.328,2.853,1.951,4.738c0.505,1.532,1.158,3.141,1.671,4.738
	c0.505,1.566,0.804,3.419,1.395,5.295c0.495,1.577,1.661,3.403,1.395,5.018c-0.11,0.66-0.707,1.189-1.395,1.951
	c-0.815,0.902-1.566,1.467-2.787,2.229c-0.934,0.584-1.915,1.326-3.067,1.951c-3.253,1.768-6.803,2.767-9.754,3.623
	c-16.356,4.747-32.015,9.187-48.773,14.214c-2.144,0.644-5.214,1.482-7.805,2.23c-1.922,0.555-4.062,1.409-5.295,1.114
	c-1.861-0.443-2.837-3.66-3.902-5.295c-0.745-1.144-1.64-2.209-2.508-3.345c-0.418-0.546-0.719-1.162-1.115-1.673
	c-0.646-0.834-1.224-1.457-1.951-2.508c-0.172-0.25-0.357-0.573-0.557-0.836c-4.193-5.519-9.134-11.711-12.821-18.116
	c-2.813-4.888-5.182-10.014-7.525-15.051C25.439,34.807,23.15,29.724,19.574,25.679z"/>
<path fill-rule="evenodd" clip-rule="evenodd" fill="#323232" d="M83.678,20.104c0.253-0.491,0.623-0.863,1.114-1.115
	C84.542,19.481,84.169,19.854,83.678,20.104z"/>
<path fill-rule="evenodd" clip-rule="evenodd" fill="#323232" d="M34.067,27.073c0.251-0.492,0.623-0.863,1.115-1.115
	C34.93,26.449,34.558,26.821,34.067,27.073z"/>
<path fill-rule="evenodd" clip-rule="evenodd" fill="#737373" d="M25.427,31.253c0.491,0.252,0.863,0.624,1.115,1.115
	C26.051,32.117,25.679,31.745,25.427,31.253z"/>
<path fill-rule="evenodd" clip-rule="evenodd" fill="#A6A6A6" d="M24.313,30.138c0.491,0.252,0.863,0.624,1.115,1.115
	C24.936,31.001,24.564,30.63,24.313,30.138z"/>
<path fill-rule="evenodd" clip-rule="evenodd" fill="#D8D8D8" d="M19.853,25.679c1.603,1.37,3.089,2.856,4.46,4.459
	C22.709,28.769,21.223,27.282,19.853,25.679z"/>
<path fill-rule="evenodd" clip-rule="evenodd" fill="#D8D8D8" d="M3.688,6.169c0.569,0.082,0.547,0.754,1.115,0.836
	c0.289,0.733,1.105,0.938,1.393,1.672C5.243,7.958,4.407,7.122,3.688,6.169z"/>
<path fill-rule="evenodd" clip-rule="evenodd" fill="#323232" d="M6.196,8.678C5.908,7.944,5.091,7.739,4.803,7.005
	c0.913,0.48,1.316,1.471,2.229,1.951c0,0.093,0,0.186,0,0.279C6.666,9.137,6.594,8.745,6.196,8.678z"/>
<path fill-rule="evenodd" clip-rule="evenodd" fill="#737373" d="M7.032,8.956c0.96-0.27,1.358-2.198,2.509-1.393
	c0.871,1.292-1.408,1.461-1.394,2.787c0.492,0.252,0.863,0.624,1.115,1.115c-0.86-0.626-1.603-1.37-2.23-2.229
	C7.032,9.142,7.032,9.049,7.032,8.956z"/>
<path fill-rule="evenodd" clip-rule="evenodd" fill="#A6A6A6" d="M9.262,11.465c0.583,0.346,1.048,0.811,1.394,1.394
	C10.072,12.512,9.608,12.047,9.262,11.465z"/>
<path fill-rule="evenodd" clip-rule="evenodd" fill="#D8D8D8" d="M10.655,12.858c0.568,0.082,0.547,0.754,1.115,0.836
	c0.386,0.823,1.287,1.129,1.673,1.951C12.396,14.833,11.468,13.904,10.655,12.858z"/>
<path fill-rule="evenodd" clip-rule="evenodd" fill="#323232" d="M13.443,15.646c-0.386-0.822-1.287-1.128-1.673-1.951
	c1.046,0.813,1.975,1.741,2.788,2.787C13.989,16.4,14.011,15.728,13.443,15.646z"/>
<path fill-rule="evenodd" clip-rule="evenodd" fill="#737373" d="M14.558,16.481c0.86,0.626,1.604,1.37,2.229,2.23
	C15.927,18.085,15.184,17.342,14.558,16.481z"/>
<path fill-rule="evenodd" clip-rule="evenodd" fill="#A6A6A6" d="M16.787,18.711c0.675,0.439,1.232,0.997,1.672,1.672
	C17.784,19.944,17.227,19.387,16.787,18.711z"/>
<path fill-rule="evenodd" clip-rule="evenodd" fill="#737373" d="M18.459,20.383c0.491,0.252,0.863,0.624,1.115,1.115
	C19.083,21.247,18.711,20.875,18.459,20.383z"/>
<path fill-rule="evenodd" clip-rule="evenodd" fill="#323232" d="M19.574,21.499c0.491,0.251,0.863,0.623,1.115,1.114
	c-0.366-0.098-0.438-0.49-0.836-0.557C19.8,21.83,19.573,21.778,19.574,21.499z"/>
<path fill-rule="evenodd" clip-rule="evenodd" fill="#D8D8D8" d="M19.853,22.056c0.398,0.067,0.471,0.459,0.836,0.557
	c0.053,0.227,0.28,0.278,0.279,0.558C20.476,22.919,20.104,22.547,19.853,22.056z"/>
<path fill-rule="evenodd" clip-rule="evenodd" fill="#323232" d="M22.361,24.564c1.045,0.812,1.975,1.741,2.787,2.787
	C24.103,26.539,23.173,25.609,22.361,24.564z"/>
<path fill-rule="evenodd" clip-rule="evenodd" fill="#737373" d="M25.148,27.351c0.491,0.252,0.863,0.624,1.115,1.115
	C25.772,28.214,25.4,27.842,25.148,27.351z"/>
<path fill-rule="evenodd" clip-rule="evenodd" fill="#D8D8D8" d="M27.1,29.302c0.366,0.098,0.438,0.491,0.836,0.558
	c0.053,0.226,0.28,0.277,0.279,0.557C27.723,30.166,27.351,29.793,27.1,29.302z"/>
<path fill-rule="evenodd" clip-rule="evenodd" fill="#323232" d="M28.214,30.417c0.001-0.279-0.226-0.331-0.279-0.557
	c0.568,0.156,0.547,0.838,1.115,0.278C28.894,30.718,28.616,30.729,28.214,30.417z"/>
<path fill-rule="evenodd" clip-rule="evenodd" fill="#D8D8D8" d="M31.837,25.679c0.053-0.226,0.28-0.278,0.279-0.558
	c0.492-0.251,0.863-0.623,1.115-1.114c0.093,0,0.186,0,0.279,0C33.07,24.682,32.513,25.239,31.837,25.679z"/>
<path fill-rule="evenodd" clip-rule="evenodd" fill="#D8D8D8" d="M80.892,19.269c0.345-0.583,0.81-1.047,1.393-1.394
	C81.938,18.458,81.475,18.923,80.892,19.269z"/>
<path fill-rule="evenodd" clip-rule="evenodd" fill="#323232" d="M80.332,19.547c0.628-0.86,1.371-1.604,2.23-2.23
	c-0.053,0.227-0.278,0.278-0.278,0.558c-0.583,0.347-1.048,0.81-1.393,1.394C80.665,19.322,80.613,19.548,80.332,19.547z"/>
<path fill-rule="evenodd" clip-rule="evenodd" fill="#323232" d="M32.116,25.121c0.252-0.491,0.624-0.863,1.115-1.114
	C32.979,24.498,32.608,24.87,32.116,25.121z"/>
<path fill-rule="evenodd" clip-rule="evenodd" fill="#737373" d="M10.376,1.71c0.208-0.628,1.563-0.109,2.23-0.278
	C12.399,2.06,11.043,1.54,10.376,1.71z"/>
<path fill-rule="evenodd" clip-rule="evenodd" fill="#737373" d="M25.148,1.432c0.667,0.169,2.022-0.35,2.229,0.278
	C26.712,1.54,25.356,2.06,25.148,1.432z"/>
<path fill-rule="evenodd" clip-rule="evenodd" fill="#A6A6A6" d="M23.755,3.94c0.49,0.16,1.637-0.337,1.672,0.278
	c-0.558,0-1.115,0-1.672,0C23.755,4.125,23.755,4.032,23.755,3.94z"/>
<path fill-rule="evenodd" clip-rule="evenodd" fill="#737373" d="M9.541,4.497c0.035-0.615,1.182-0.118,1.672-0.279
	C11.178,4.834,10.03,4.336,9.541,4.497z"/>
<path fill-rule="evenodd" clip-rule="evenodd" fill="#737373" d="M26.263,4.218c0.578,0.166,1.831-0.345,1.951,0.279
	C27.637,4.332,26.383,4.842,26.263,4.218z"/>
<path fill-rule="evenodd" clip-rule="evenodd" fill="#737373" d="M45.216,4.497c-1.043,0.021-1.927-0.118-2.508-0.557
	c0.91-0.032,0.799-2.66,1.114-3.902c0.853-0.202,0.82,0.481,1.672,0.279c0.148,0.224,0.291,0.453,0.279,0.836
	C45.823,2.503,45.552,3.533,45.216,4.497z"/>
<path fill-rule="evenodd" clip-rule="evenodd" fill="#737373" d="M7.311,4.776C7.345,4.16,8.493,4.657,8.983,4.497
	C8.948,5.113,7.801,4.615,7.311,4.776z"/>
<path fill-rule="evenodd" clip-rule="evenodd" fill="#737373" d="M59.151,6.727c0.49,0.161,1.638-0.336,1.672,0.279
	C60.333,6.845,59.186,7.342,59.151,6.727z"/>
<path fill-rule="evenodd" clip-rule="evenodd" fill="#737373" d="M61.938,7.005c0.464,0,0.929,0,1.394,0c0,0.093,0,0.186,0,0.278
	C62.927,7.132,61.891,7.609,61.938,7.005z"/>
<path fill-rule="evenodd" clip-rule="evenodd" fill="#737373" d="M80.613,7.563c1.212,0.18,3.149-0.364,3.9,0.278
	c-1.3,0-2.601,0-3.9,0C80.613,7.749,80.613,7.656,80.613,7.563z"/>
<path fill-rule="evenodd" clip-rule="evenodd" fill="#737373" d="M57.479,9.235c0.49,0.16,1.638-0.337,1.672,0.278
	C58.661,9.354,57.514,9.851,57.479,9.235z"/>
<path fill-rule="evenodd" clip-rule="evenodd" fill="#737373" d="M59.987,9.514c0.578,0.166,1.831-0.344,1.952,0.278
	C61.361,9.627,60.107,10.137,59.987,9.514z"/>
<path fill-rule="evenodd" clip-rule="evenodd" fill="#737373" d="M88.138,11.186c0.459,0.124,0.459,2.106,0,2.23
	C88.138,12.672,88.138,11.929,88.138,11.186z"/>
<path fill-rule="evenodd" clip-rule="evenodd" fill="#737373" d="M85.63,12.58c-0.125,0.712-0.391,1.282-0.838,1.672
	c0-0.093,0-0.186,0-0.279c-0.707-0.687-2.206-0.581-2.229-1.951C83.458,10.871,84.596,12.254,85.63,12.58z"/>
<path fill-rule="evenodd" clip-rule="evenodd" fill="#737373" d="M43.822,23.729c0.441,0.022,1.063-0.134,1.115,0.278
	C44.496,23.983,43.874,24.141,43.822,23.729z"/>
<path fill-rule="evenodd" clip-rule="evenodd" fill="#737373" d="M45.494,24.007c0.441,0.023,1.063-0.134,1.115,0.278
	C46.168,24.262,45.546,24.419,45.494,24.007z"/>
<path fill-rule="evenodd" clip-rule="evenodd" fill="#323232" d="M28.214,33.205c0.464,0,0.929,0,1.394,0
	C29.733,33.66,28.089,33.66,28.214,33.205z"/>
<path fill-rule="evenodd" clip-rule="evenodd" fill="#FFFFFF" d="M12.606,1.432c0.464,0,0.929,0,1.394,0c0.558,0,1.115,0,1.672,0
	c0.744,0,1.487,0,2.23,0s1.486,0,2.23,0c0.743,0,1.486,0,2.229,0c0.464,0,0.929,0,1.394,0c0.464,0,0.929,0,1.394,0
	c0.208,0.628,1.563,0.108,2.229,0.278c5.568,0.285,10.071,1.635,15.33,2.23c0.582,0.439,1.465,0.578,2.508,0.557
	c4.714,0.674,9.159,1.618,13.935,2.229c0.035,0.615,1.183,0.118,1.672,0.279c0.372,0,0.743,0,1.115,0
	c-0.047,0.604,0.988,0.126,1.394,0.278c0.371,0,0.743,0,1.114,0c0.186,0,0.373,0,0.558,0c-0.046,0.605,0.989,0.127,1.394,0.279
	c0.557,0,1.114,0,1.672,0c0.557,0,1.115,0,1.672,0c0.93,0,1.857,0,2.787,0c0.835,0,1.673,0,2.508,0
	c0.478,0.638,2.128,0.102,3.065,0.278c0.838,0,1.673,0,2.511,0c1.3,0,2.601,0,3.9,0c2.111-0.067,2.544,1.544,3.624,2.508
	c0,0.279,0,0.558,0,0.836c0,0.743,0,1.486,0,2.23c0,0.092,0,0.185,0,0.278c-0.311,0.527-0.695,0.977-0.837,1.672
	c-0.754,1.289-1.611,2.477-2.509,3.623c-0.491,0.252-0.861,0.624-1.114,1.115c-3.305,3.478-7.38,6.184-13.657,6.689
	c-1.765,0-3.529,0-5.295,0c-5.931-0.479-11.186-1.635-17.001-2.229c-0.086-0.379-0.698-0.231-1.115-0.279
	c-0.052-0.413-0.674-0.255-1.115-0.278c-0.186,0-0.372,0-0.557,0c-0.052-0.413-0.674-0.256-1.115-0.278c-0.186,0-0.372,0-0.557,0
	c-0.301-0.462-2.487-0.462-2.787,0c-2.278,0.23-3.854,1.162-5.295,2.229c-0.492,0.252-0.863,0.624-1.115,1.115
	c-1.782,1.749-2.024,5.036-4.459,6.132c-0.464,0-0.929,0-1.394,0c-0.186,0-0.372,0-0.558,0c-0.568-0.083-0.547-0.754-1.115-0.836
	c-0.252-0.491-0.624-0.863-1.115-1.115c-0.252-0.491-0.624-0.863-1.115-1.115c-1.371-1.603-2.857-3.089-4.46-4.459
	c-0.092,0-0.186,0-0.278,0c-0.189-0.648-0.927-0.746-1.115-1.394c0.001-0.279-0.226-0.332-0.279-0.557
	c-0.439-0.675-0.997-1.233-1.672-1.673c-0.533-0.768-1.183-1.418-1.951-1.951c-0.813-1.045-1.741-1.975-2.788-2.787
	c-0.568-0.082-0.546-0.754-1.115-0.836c-0.439-0.675-0.997-1.232-1.672-1.672C8.45,14.042,7.8,13.391,7.032,12.858
	c-0.345-0.583-0.81-1.048-1.393-1.394c-0.226-0.053-0.278-0.279-0.558-0.279c-0.439-0.675-0.997-1.232-1.672-1.672
	C3.063,8.931,2.598,8.466,2.016,8.12C1.764,7.628,1.392,7.257,0.9,7.005C0.558,6.884,0.328,6.649,0.343,6.169
	c0-0.558,0-1.115,0-1.672C1.569,1.75,6.666,2.301,10.376,1.71C11.043,1.54,12.399,2.06,12.606,1.432z M17.066,3.94
	c-0.372,0-0.743,0-1.115,0c-0.558,0-1.115,0-1.672,0c-0.578,0.166-1.831-0.345-1.951,0.278c-0.372,0-0.744,0-1.115,0
	c-0.49,0.161-1.638-0.336-1.672,0.279c-0.186,0-0.372,0-0.557,0c-0.49,0.16-1.638-0.337-1.672,0.279
	C6.146,5.004,5.067,5.319,3.688,5.333c-0.108,0.398-0.334,0.47,0,0.836c0.719,0.953,1.555,1.789,2.508,2.508
	c0.398,0.067,0.47,0.459,0.836,0.558c0.627,0.86,1.37,1.603,2.23,2.229c0.346,0.583,0.811,1.047,1.394,1.394
	c0.813,1.046,1.741,1.974,2.788,2.787c0.568,0.082,0.546,0.754,1.115,0.836c0.626,0.86,1.37,1.604,2.229,2.23
	c0.439,0.675,0.997,1.232,1.672,1.672c0.252,0.492,0.624,0.863,1.115,1.115c-0.001,0.279,0.226,0.332,0.278,0.557
	c0.252,0.491,0.624,0.863,1.115,1.115c0.583,0.346,1.048,0.811,1.394,1.394c0.812,1.045,1.742,1.975,2.787,2.787
	c0.251,0.491,0.624,0.863,1.115,1.115c0.401,0.156,0.68,0.435,0.836,0.836c0.251,0.491,0.623,0.863,1.115,1.114
	c0.401,0.312,0.68,0.301,0.836-0.278c0.825-1.591,1.472-3.359,2.787-4.459c0.675-0.44,1.233-0.997,1.672-1.672
	c1.431-1.449,3.159-2.602,5.853-2.787c1.58,0,3.16,0,4.739,0c7.571,0.789,14.679,2.043,22.018,3.065
	c0.301,0.461,2.486,0.461,2.787,0c4.778-0.61,8.448-2.329,11.426-4.738c0.281,0.001,0.333-0.226,0.56-0.279
	c0.583-0.346,1.046-0.811,1.393-1.394c0-0.28,0.226-0.331,0.278-0.558c0.783-0.983,1.332-2.199,2.229-3.065
	c0.447-0.391,0.713-0.96,0.838-1.672c0.052-2.19-2.006-2.27-4.182-2.23c-0.296-0.632-1.753-0.106-2.508-0.278
	c-1.022,0-2.044,0-3.067,0c-1.206,0-2.414,0-3.622,0c-0.836,0-1.673,0-2.509,0c-0.465,0-0.929,0-1.394,0
	c-0.035-0.616-1.183-0.118-1.672-0.279c-0.465,0-0.929,0-1.394,0c-0.65,0-1.3,0-1.951,0c-0.465,0-0.93,0-1.394,0
	c-0.121-0.623-1.374-0.112-1.952-0.278c-0.278,0-0.557,0-0.836,0c-0.035-0.616-1.183-0.118-1.672-0.278
	c-4.481-0.35-8.392-1.271-12.542-1.952c-0.551-0.47-1.74-0.304-2.509-0.557c-5.002-0.479-9.331-1.632-14.214-2.229
	c-0.12-0.624-1.374-0.113-1.951-0.279c-0.278,0-0.558,0-0.836,0C25.392,3.603,24.245,4.1,23.755,3.94c-0.558,0-1.115,0-1.672,0
	c-0.372,0-0.743,0-1.115,0C20.305,3.477,17.729,3.477,17.066,3.94z"/>
<path fill-rule="evenodd" clip-rule="evenodd" fill="#D8D8D8" d="M39.362,21.22c0.208-0.629,1.563-0.109,2.23-0.279
	c0.465,0,0.93,0,1.394,0c0.417,0.048,1.028-0.1,1.115,0.279C42.522,21.22,40.942,21.22,39.362,21.22z"/>
<path fill-rule="evenodd" clip-rule="evenodd" fill="#A6A6A6" d="M40.478,23.729c0.3-0.462,2.486-0.462,2.787,0
	c-0.093,0-0.186,0-0.279,0c-0.464,0-0.929,0-1.394,0c-0.093,0-0.186,0-0.279,0C41.035,23.729,40.756,23.729,40.478,23.729z"/>
<path fill-rule="evenodd" clip-rule="evenodd" fill="#737373" d="M12.328,4.218c0.12-0.623,1.373-0.113,1.951-0.278
	c0,0.092,0,0.185,0,0.278C13.628,4.218,12.978,4.218,12.328,4.218z"/>
<path fill-rule="evenodd" clip-rule="evenodd" fill="#737373" d="M44.937,7.284c-0.64,1.034-0.271,3.074-1.115,3.902
	c-0.88,0.044-1.682,0.01-1.951-0.558c0.27-1.125,0.847-3.112,0.557-3.902C43.197,6.98,44.386,6.813,44.937,7.284z"/>
<path fill-rule="evenodd" clip-rule="evenodd" fill="#737373" d="M87.301,15.367c0.142-0.695,0.526-1.146,0.837-1.672
	c0.236,0.971,1.372,1.042,2.229,1.394c0.229,0.788-0.393,0.722-0.278,1.394C88.805,16.463,88.278,15.69,87.301,15.367z"/>
<path fill-rule="evenodd" clip-rule="evenodd" fill="#A6A6A6" d="M64.726,26.794c1.766,0,3.53,0,5.295,0
	C68.898,27.257,65.848,27.257,64.726,26.794z"/>
<path fill-rule="evenodd" clip-rule="evenodd" fill="#737373" d="M0.343,4.497c0,0.557,0,1.114,0,1.672
	C-0.114,6.215-0.114,4.451,0.343,4.497z"/>
<path fill-rule="evenodd" clip-rule="evenodd" fill="#737373" d="M63.332,9.792c0.65,0,1.3,0,1.951,0c0,0.093,0,0.187,0,0.279
	C64.706,9.905,63.452,10.416,63.332,9.792z"/>
</svg>
