<?xml version="1.0" encoding="utf-8"?>
<!-- Generator: Adobe Illustrator 15.0.0, SVG Export Plug-In  -->
<!DOCTYPE svg PUBLIC "-//W3C//DTD SVG 1.1//EN" "http://www.w3.org/Graphics/SVG/1.1/DTD/svg11.dtd" [
	<!ENTITY ns_flows "http://ns.adobe.com/Flows/1.0/">
]>
<svg version="1.1"
	 xmlns="http://www.w3.org/2000/svg" xmlns:xlink="http://www.w3.org/1999/xlink" xmlns:a="http://ns.adobe.com/AdobeSVGViewerExtensions/3.0/"
	 x="0px" y="0px" width="142px" height="142px" viewBox="-2.774 -28.228 142 142" enable-background="new -2.774 -28.228 142 142"
	 xml:space="preserve">
<defs>
</defs>
<path fill-rule="evenodd" clip-rule="evenodd" fill="#191919" d="M13.669,0.324c0.935-0.644,3.062-0.098,4.459-0.279
	C17.193,0.689,15.068,0.143,13.669,0.324z"/>
<path fill-rule="evenodd" clip-rule="evenodd" fill="#191919" d="M19.522,0.045c1.398,0.181,3.524-0.365,4.459,0.279
	C22.583,0.143,20.458,0.689,19.522,0.045z"/>
<path fill-rule="evenodd" clip-rule="evenodd" fill="#191919" d="M10.325,0.603c0.035-0.616,1.183-0.119,1.672-0.278
	C11.962,0.939,10.815,0.442,10.325,0.603z"/>
<path fill-rule="evenodd" clip-rule="evenodd" fill="#191919" d="M25.654,0.324c0.49,0.16,1.638-0.337,1.672,0.278
	C26.836,0.442,25.688,0.939,25.654,0.324z"/>
<path fill-rule="evenodd" clip-rule="evenodd" fill="#191919" d="M7.816,0.881C7.77,0.277,8.805,0.755,9.21,0.603
	C9.257,1.207,8.222,0.729,7.816,0.881z"/>
<path fill-rule="evenodd" clip-rule="evenodd" fill="#191919" d="M28.441,0.603c0.405,0.152,1.44-0.326,1.394,0.278
	C29.43,0.729,28.394,1.207,28.441,0.603z"/>
<path fill-rule="evenodd" clip-rule="evenodd" fill="#191919" d="M30.671,0.881c0.441,0.023,1.063-0.134,1.115,0.279
	C31.369,1.112,30.757,1.26,30.671,0.881z"/>
<path fill-rule="evenodd" clip-rule="evenodd" fill="#191919" d="M13.112,3.111c0.386-0.636,1.939-0.104,2.787-0.278
	C15.513,3.467,13.959,2.936,13.112,3.111z"/>
<path fill-rule="evenodd" clip-rule="evenodd" fill="#191919" d="M21.752,2.833c0.847,0.175,2.4-0.357,2.787,0.278
	C23.692,2.936,22.138,3.467,21.752,2.833z"/>
<path fill-rule="evenodd" clip-rule="evenodd" fill="#191919" d="M10.046,3.39C10,2.785,11.035,3.263,11.44,3.111
	C11.487,3.715,10.451,3.237,10.046,3.39z"/>
<path fill-rule="evenodd" clip-rule="evenodd" fill="#191919" d="M26.211,3.111c0.405,0.152,1.441-0.326,1.394,0.279
	C27.2,3.237,26.164,3.715,26.211,3.111z"/>
<path fill-rule="evenodd" clip-rule="evenodd" fill="#191919" d="M7.816,3.668C7.868,3.255,8.49,3.413,8.932,3.39
	C8.879,3.802,8.258,3.645,7.816,3.668z"/>
<path fill-rule="evenodd" clip-rule="evenodd" fill="#191919" d="M28.72,3.39c0.417,0.047,1.028-0.1,1.114,0.279
	C29.418,3.621,28.806,3.768,28.72,3.39z"/>
<path fill-rule="evenodd" clip-rule="evenodd" fill="#191919" d="M55.198,5.062c0.441,0.022,1.063-0.134,1.115,0.278
	C55.896,5.293,55.284,5.44,55.198,5.062z"/>
<path fill-rule="evenodd" clip-rule="evenodd" fill="#191919" d="M57.148,5.34c0.405,0.152,1.44-0.325,1.394,0.279
	C58.137,5.467,57.102,5.945,57.148,5.34z"/>
<path fill-rule="evenodd" clip-rule="evenodd" fill="#191919" d="M59.378,5.619c0.49,0.161,1.637-0.336,1.672,0.279
	C60.56,5.737,59.413,6.234,59.378,5.619z"/>
<path fill-rule="evenodd" clip-rule="evenodd" fill="#191919" d="M62.444,5.898c0.666,0.169,2.022-0.35,2.23,0.278
	C64.007,6.007,62.652,6.526,62.444,5.898z"/>
<path fill-rule="evenodd" clip-rule="evenodd" fill="#191919" d="M67.46,6.176c1.955,0.184,4.642-0.367,6.133,0.279
	C71.638,6.272,68.95,6.824,67.46,6.176z"/>
<path fill-rule="evenodd" clip-rule="evenodd" fill="#191919" d="M79.724,6.456c1.49,0.181,3.711-0.366,4.738,0.278
	C82.972,6.553,80.752,7.1,79.724,6.456z"/>
<path fill-rule="evenodd" clip-rule="evenodd" fill="#191919" d="M55.476,7.849c0.417,0.048,1.029-0.1,1.115,0.279
	C56.174,8.08,55.563,8.228,55.476,7.849z"/>
<path fill-rule="evenodd" clip-rule="evenodd" fill="#191919" d="M57.427,8.128c0.417,0.047,1.029-0.1,1.115,0.278
	C58.125,8.359,57.513,8.506,57.427,8.128z"/>
<path fill-rule="evenodd" clip-rule="evenodd" fill="#191919" d="M59.935,8.406c0.405,0.152,1.441-0.326,1.394,0.278
	C60.924,8.533,59.889,9.011,59.935,8.406z"/>
<path fill-rule="evenodd" clip-rule="evenodd" fill="#191919" d="M63.001,8.685c0.756,0.173,2.211-0.354,2.509,0.279
	C64.753,8.791,63.298,9.318,63.001,8.685z"/>
<path fill-rule="evenodd" clip-rule="evenodd" fill="#191919" d="M69.133,8.964c2.232,0.184,5.2-0.369,6.968,0.278
	C73.87,9.059,70.9,9.611,69.133,8.964z"/>
<path fill-rule="evenodd" clip-rule="evenodd" fill="#191919" d="M83.348,9.242c0.417,0.047,1.028-0.1,1.114,0.279
	C84.045,9.474,83.435,9.621,83.348,9.242z"/>
<path fill-rule="evenodd" clip-rule="evenodd" fill="#191919" d="M88.364,11.193c-0.023,0.441,0.135,1.063-0.278,1.115
	C88.132,11.891,87.985,11.28,88.364,11.193z"/>
<path fill-rule="evenodd" clip-rule="evenodd" fill="#191919" d="M48.787,20.669c0.417,0.048,1.028-0.1,1.114,0.279
	C49.485,20.901,48.874,21.048,48.787,20.669z"/>
<path fill-rule="evenodd" clip-rule="evenodd" fill="#191919" d="M50.738,20.948c0.417,0.047,1.029-0.1,1.115,0.279
	C51.436,21.18,50.825,21.327,50.738,20.948z"/>
<path fill-rule="evenodd" clip-rule="evenodd" fill="#191919" d="M52.689,21.227c0.417,0.047,1.028-0.1,1.114,0.278
	C53.387,21.458,52.775,21.605,52.689,21.227z"/>
<path fill-rule="evenodd" clip-rule="evenodd" fill="#191919" d="M54.64,21.505c0.417,0.048,1.029-0.1,1.115,0.279
	C55.338,21.737,54.726,21.884,54.64,21.505z"/>
<path fill-rule="evenodd" clip-rule="evenodd" fill="#191919" d="M56.591,21.785c0.417,0.047,1.029-0.1,1.115,0.279
	C57.289,22.016,56.677,22.163,56.591,21.785z"/>
<path fill-rule="evenodd" clip-rule="evenodd" fill="#191919" d="M58.542,22.063c0.417,0.047,1.028-0.1,1.115,0.278
	C59.24,22.294,58.628,22.441,58.542,22.063z"/>
<path fill-rule="evenodd" clip-rule="evenodd" fill="#191919" d="M60.493,22.342c0.417,0.048,1.028-0.1,1.114,0.279
	C61.191,22.573,60.579,22.721,60.493,22.342z"/>
<path fill-rule="evenodd" clip-rule="evenodd" fill="#191919" d="M62.444,22.621c0.417,0.047,1.029-0.1,1.115,0.278
	C63.142,22.852,62.53,22.999,62.444,22.621z"/>
<path fill-rule="evenodd" clip-rule="evenodd" fill="#191919" d="M64.395,22.899c0.417,0.047,1.029-0.1,1.116,0.278
	C65.093,23.131,64.481,23.277,64.395,22.899z"/>
<path fill-rule="evenodd" clip-rule="evenodd" fill="#191919" d="M69.133,23.178c-0.047-0.604,0.989-0.126,1.393-0.278
	C70.574,23.504,69.538,23.025,69.133,23.178z"/>
<path fill-rule="evenodd" clip-rule="evenodd" fill="#191919" d="M46.278,23.457c0.038-0.459,1.914-0.459,1.952,0
	C47.579,23.457,46.929,23.457,46.278,23.457z"/>
<path fill-rule="evenodd" clip-rule="evenodd" fill="#191919" d="M49.066,23.457c0.417,0.047,1.028-0.1,1.115,0.278
	C49.739,23.712,49.117,23.87,49.066,23.457z"/>
<path fill-rule="evenodd" clip-rule="evenodd" fill="#191919" d="M51.017,23.735c0.417,0.047,1.028-0.1,1.114,0.278
	C51.69,23.991,51.068,24.148,51.017,23.735z"/>
<path fill-rule="evenodd" clip-rule="evenodd" fill="#191919" d="M52.968,24.014c0.417,0.048,1.028-0.099,1.115,0.279
	C53.642,24.269,53.02,24.427,52.968,24.014z"/>
<path fill-rule="evenodd" clip-rule="evenodd" fill="#191919" d="M54.918,24.293c0.417,0.047,1.029-0.1,1.115,0.279
	C55.592,24.549,54.97,24.706,54.918,24.293z"/>
<path fill-rule="evenodd" clip-rule="evenodd" fill="#191919" d="M56.87,24.572c0.417,0.047,1.029-0.1,1.115,0.278
	C57.543,24.827,56.921,24.984,56.87,24.572z"/>
<path fill-rule="evenodd" clip-rule="evenodd" fill="#191919" d="M60.771,25.129c0.417,0.047,1.029-0.1,1.115,0.278
	C61.445,25.385,60.824,25.542,60.771,25.129z"/>
<path fill-rule="evenodd" clip-rule="evenodd" fill="#191919" d="M64.674,25.687c0.577,0.166,1.831-0.345,1.951,0.279
	C66.047,25.799,64.794,26.31,64.674,25.687z"/>
<path fill-rule="evenodd" clip-rule="evenodd" fill="#191919" d="M68.297,25.965c0.035-0.616,1.182-0.119,1.672-0.279
	C69.935,26.302,68.787,25.805,68.297,25.965z"/>
<path fill-rule="evenodd" clip-rule="evenodd" fill="#191919" d="M37.639,29.031c0,1.022,0,2.044,0,3.066
	C37.177,31.707,37.177,29.421,37.639,29.031z"/>
<path fill-rule="evenodd" clip-rule="evenodd" fill="#191919" d="M40.147,30.982c0.379,0.086,0.231,0.698,0.279,1.115
	C40.013,32.045,40.17,31.423,40.147,30.982z"/>
<path fill-rule="evenodd" clip-rule="evenodd" fill="#777777" d="M115.398,35.999c0-0.092,0-0.186,0-0.278c0.559,0,1.116,0,1.673,0
	c0,0.093,0,0.186,0,0.278C116.515,35.999,115.957,35.999,115.398,35.999z"/>
<path fill-rule="evenodd" clip-rule="evenodd" fill="#C0C0C0" d="M117.071,35.999c0-0.092,0-0.186,0-0.278c0.651,0,1.3,0,1.951,0
	C118.902,36.343,117.648,35.833,117.071,35.999z"/>
<path fill-rule="evenodd" clip-rule="evenodd" fill="#777777" d="M108.709,36.277c0-0.093,0-0.186,0-0.279c0.559,0,1.116,0,1.673,0
	c0,0.093,0,0.186,0,0.279C109.825,36.277,109.268,36.277,108.709,36.277z"/>
<path fill-rule="evenodd" clip-rule="evenodd" fill="#C0C0C0" d="M110.382,36.277c0-0.093,0-0.186,0-0.279c0.651,0,1.3,0,1.951,0
	C112.213,36.622,110.959,36.112,110.382,36.277z"/>
<path fill-rule="evenodd" clip-rule="evenodd" fill="#191919" d="M99.512,36.556c0.088-0.378,0.699-0.231,1.115-0.279
	c0,0.093,0,0.186,0,0.279C100.257,36.556,99.884,36.556,99.512,36.556z"/>
<path fill-rule="evenodd" clip-rule="evenodd" fill="#323232" d="M100.627,36.556c0-0.093,0-0.186,0-0.279c0.371,0,0.743,0,1.114,0
	c0,0.093,0,0.186,0,0.279C101.37,36.556,100.998,36.556,100.627,36.556z"/>
<path fill-rule="evenodd" clip-rule="evenodd" fill="#777777" d="M101.741,36.556c0-0.093,0-0.186,0-0.279c0.651,0,1.302,0,1.951,0
	c0,0.093,0,0.186,0,0.279C103.043,36.556,102.393,36.556,101.741,36.556z"/>
<path fill-rule="evenodd" clip-rule="evenodd" fill="#C0C0C0" d="M103.692,36.556c0-0.093,0-0.186,0-0.279c0.651,0,1.303,0,1.951,0
	C105.523,36.901,104.27,36.39,103.692,36.556z"/>
<path fill-rule="evenodd" clip-rule="evenodd" fill="#191919" d="M92.824,36.834c0.086-0.378,0.697-0.231,1.113-0.278
	c0,0.093,0,0.186,0,0.278C93.567,36.834,93.194,36.834,92.824,36.834z"/>
<path fill-rule="evenodd" clip-rule="evenodd" fill="#323232" d="M93.938,36.834c0-0.093,0-0.185,0-0.278c0.373,0,0.744,0,1.116,0
	c0,0.093,0,0.186,0,0.278C94.682,36.834,94.311,36.834,93.938,36.834z"/>
<path fill-rule="evenodd" clip-rule="evenodd" fill="#777777" d="M95.054,36.834c0-0.093,0-0.185,0-0.278c0.649,0,1.301,0,1.949,0
	c0,0.093,0,0.186,0,0.278C96.354,36.834,95.703,36.834,95.054,36.834z"/>
<path fill-rule="evenodd" clip-rule="evenodd" fill="#C0C0C0" d="M97.003,36.834c0-0.093,0-0.185,0-0.278c0.651,0,1.303,0,1.951,0
	C98.834,37.179,97.582,36.669,97.003,36.834z"/>
<path fill-rule="evenodd" clip-rule="evenodd" fill="#191919" d="M85.019,37.114c0.089-0.378,0.699-0.231,1.116-0.279
	c0,0.093,0,0.186,0,0.279C85.762,37.114,85.392,37.114,85.019,37.114z"/>
<path fill-rule="evenodd" clip-rule="evenodd" fill="#323232" d="M86.135,37.114c0-0.093,0-0.186,0-0.279c0.649,0,1.3,0,1.951,0
	c0,0.093,0,0.186,0,0.279C87.435,37.114,86.784,37.114,86.135,37.114z"/>
<path fill-rule="evenodd" clip-rule="evenodd" fill="#777777" d="M88.086,37.114c0-0.093,0-0.186,0-0.279c0.743,0,1.486,0,2.229,0
	c0,0.093,0,0.186,0,0.279C89.572,37.114,88.829,37.114,88.086,37.114z"/>
<path fill-rule="evenodd" clip-rule="evenodd" fill="#C0C0C0" d="M90.315,37.114c0-0.093,0-0.186,0-0.279c0.558,0,1.114,0,1.671,0
	C91.952,37.45,90.805,36.953,90.315,37.114z"/>
<path fill-rule="evenodd" clip-rule="evenodd" fill="#777777" d="M80.84,37.393c0-0.093,0-0.186,0-0.279c0.465,0,0.928,0,1.393,0
	c0,0.093,0,0.186,0,0.279C81.768,37.393,81.305,37.393,80.84,37.393z"/>
<path fill-rule="evenodd" clip-rule="evenodd" fill="#C0C0C0" d="M82.232,37.393c0-0.093,0-0.186,0-0.279c0.559,0,1.115,0,1.673,0
	C83.869,37.729,82.723,37.232,82.232,37.393z"/>
<path fill-rule="evenodd" clip-rule="evenodd" fill="#C0C0C0" d="M76.938,37.671c0-0.093,0-0.186,0-0.278c0.37,0,0.743,0,1.113,0
	C78.001,37.805,77.378,37.648,76.938,37.671z"/>
<path fill-rule="evenodd" clip-rule="evenodd" fill="#C0C0C0" d="M116.793,38.507c0.12-0.623,1.374-0.113,1.951-0.278
	c0,0.093,0,0.186,0,0.278C118.093,38.507,117.444,38.507,116.793,38.507z"/>
<path fill-rule="evenodd" clip-rule="evenodd" fill="#777777" d="M118.744,38.507c0-0.093,0-0.186,0-0.278c0.557,0,1.114,0,1.673,0
	c0,0.093,0,0.186,0,0.278C119.858,38.507,119.301,38.507,118.744,38.507z"/>
<path fill-rule="evenodd" clip-rule="evenodd" fill="#C0C0C0" d="M110.104,38.786c0.12-0.623,1.374-0.113,1.951-0.279
	c0,0.093,0,0.187,0,0.279C111.403,38.786,110.755,38.786,110.104,38.786z"/>
<path fill-rule="evenodd" clip-rule="evenodd" fill="#777777" d="M112.055,38.786c0-0.093,0-0.186,0-0.279c0.557,0,1.114,0,1.673,0
	c0,0.093,0,0.187,0,0.279C113.169,38.786,112.611,38.786,112.055,38.786z"/>
<path fill-rule="evenodd" clip-rule="evenodd" fill="#C0C0C0" d="M103.414,39.064c0.12-0.623,1.374-0.113,1.951-0.278
	c0,0.093,0,0.186,0,0.278C104.714,39.064,104.065,39.064,103.414,39.064z"/>
<path fill-rule="evenodd" clip-rule="evenodd" fill="#777777" d="M105.365,39.064c0-0.093,0-0.186,0-0.278c0.557,0,1.116,0,1.673,0
	c0,0.093,0,0.186,0,0.278C106.481,39.064,105.922,39.064,105.365,39.064z"/>
<path fill-rule="evenodd" clip-rule="evenodd" fill="#C0C0C0" d="M96.725,39.343c0.12-0.623,1.374-0.112,1.951-0.278
	c0,0.093,0,0.186,0,0.278C98.027,39.343,97.376,39.343,96.725,39.343z"/>
<path fill-rule="evenodd" clip-rule="evenodd" fill="#777777" d="M98.676,39.343c0-0.093,0-0.185,0-0.278c0.558,0,1.116,0,1.673,0
	c0,0.093,0,0.186,0,0.278C99.792,39.343,99.233,39.343,98.676,39.343z"/>
<path fill-rule="evenodd" clip-rule="evenodd" fill="#323232" d="M100.349,39.343c0-0.093,0-0.185,0-0.278c0.371,0,0.743,0,1.114,0
	c0,0.093,0,0.186,0,0.278C101.092,39.343,100.72,39.343,100.349,39.343z"/>
<path fill-rule="evenodd" clip-rule="evenodd" fill="#191919" d="M101.463,39.343c0-0.093,0-0.185,0-0.278c0.372,0,0.743,0,1.116,0
	C102.526,39.477,101.905,39.32,101.463,39.343z"/>
<path fill-rule="evenodd" clip-rule="evenodd" fill="#C0C0C0" d="M89.757,39.623c0.208-0.629,1.564-0.109,2.229-0.28
	c0,0.094,0,0.187,0,0.28C91.243,39.623,90.502,39.623,89.757,39.623z"/>
<path fill-rule="evenodd" clip-rule="evenodd" fill="#777777" d="M91.986,39.623c0-0.093,0-0.186,0-0.28c0.56,0,1.116,0,1.673,0
	c0,0.094,0,0.187,0,0.28C93.103,39.623,92.546,39.623,91.986,39.623z"/>
<path fill-rule="evenodd" clip-rule="evenodd" fill="#323232" d="M93.659,39.623c0-0.093,0-0.186,0-0.28c0.371,0,0.743,0,1.114,0
	c0,0.094,0,0.187,0,0.28C94.402,39.623,94.03,39.623,93.659,39.623z"/>
<path fill-rule="evenodd" clip-rule="evenodd" fill="#191919" d="M94.773,39.623c0-0.093,0-0.186,0-0.28c0.373,0,0.745,0,1.116,0
	C95.837,39.756,95.216,39.599,94.773,39.623z"/>
<path fill-rule="evenodd" clip-rule="evenodd" fill="#C0C0C0" d="M81.675,39.901c0.12-0.623,1.375-0.113,1.951-0.278
	c0,0.092,0,0.185,0,0.278c-0.464,0-0.929,0-1.394,0C82.046,39.901,81.861,39.901,81.675,39.901z"/>
<path fill-rule="evenodd" clip-rule="evenodd" fill="#777777" d="M83.626,39.901c0-0.093,0-0.186,0-0.278c0.836,0,1.673,0,2.509,0
	c0,0.092,0,0.185,0,0.278C85.299,39.901,84.462,39.901,83.626,39.901z"/>
<path fill-rule="evenodd" clip-rule="evenodd" fill="#323232" d="M86.135,39.901c0-0.093,0-0.186,0-0.278c0.465,0,0.928,0,1.395,0
	c0,0.092,0,0.185,0,0.278C87.063,39.901,86.6,39.901,86.135,39.901z"/>
<path fill-rule="evenodd" clip-rule="evenodd" fill="#191919" d="M87.529,39.901c0-0.093,0-0.186,0-0.278c0.463,0,0.928,0,1.393,0
	C88.968,40.227,87.934,39.748,87.529,39.901z"/>
<path fill-rule="evenodd" clip-rule="evenodd" fill="#777777" d="M77.772,40.179c0.036-0.615,1.184-0.118,1.673-0.278
	c0,0.093,0,0.185,0,0.278C78.889,40.179,78.331,40.179,77.772,40.179z"/>
<path fill-rule="evenodd" clip-rule="evenodd" fill="#323232" d="M79.445,40.179c0-0.093,0-0.186,0-0.278c0.373,0,0.743,0,1.116,0
	c0,0.093,0,0.185,0,0.278C80.188,40.179,79.818,40.179,79.445,40.179z"/>
<path fill-rule="evenodd" clip-rule="evenodd" fill="#191919" d="M80.562,40.179c0-0.093,0-0.186,0-0.278c0.37,0,0.743,0,1.113,0
	c0.187,0,0.371,0,0.558,0C82.198,40.516,81.05,40.019,80.562,40.179z"/>
<path fill-rule="evenodd" clip-rule="evenodd" fill="#777777" d="M41.541,46.311c-0.046-0.457,1.718-0.457,1.672,0
	C42.656,46.311,42.098,46.311,41.541,46.311z"/>
<path fill-rule="evenodd" clip-rule="evenodd" fill="#777777" d="M37.639,51.885c-0.452,0.2-0.452-1.313,0-1.114
	C37.639,51.142,37.639,51.514,37.639,51.885z"/>
<path fill-rule="evenodd" clip-rule="evenodd" fill="#191919" d="M1.685,6.734c1.789,1.556,3.461,3.229,5.017,5.017
	C4.913,10.195,3.241,8.523,1.685,6.734z"/>
<path fill-rule="evenodd" clip-rule="evenodd" fill="#191919" d="M8.932,13.702c1.603,1.37,3.089,2.856,4.459,4.459
	C11.788,16.791,10.302,15.305,8.932,13.702z"/>
<path fill-rule="evenodd" clip-rule="evenodd" fill="#191919" d="M17.292,22.063c0.583,0.346,1.047,0.811,1.394,1.394
	C18.103,23.111,17.639,22.646,17.292,22.063z"/>
<path fill-rule="evenodd" clip-rule="evenodd" fill="#191919" d="M30.949,45.476c0.375,0.183,0.52,0.595,0.558,1.113
	C31.133,46.406,30.988,45.994,30.949,45.476z"/>
<path fill-rule="evenodd" clip-rule="evenodd" fill="#C0C0C0" d="M129.056,37.393c0.583,0.346,1.048,0.811,1.395,1.394
	C129.867,38.44,129.402,37.975,129.056,37.393z"/>
<path fill-rule="evenodd" clip-rule="evenodd" fill="#777777" d="M74.707,35.999c0.024-0.396,0.046-0.789-0.278-0.836
	c0.343-0.399,0.958-0.528,1.673-0.557c0,0.372,0,0.743,0,1.115c0.152,0.405-0.326,1.44,0.278,1.394
	c0.008,0.271,0.341,0.216,0.558,0.279c0,0.093,0,0.185,0,0.278c-0.866-0.366-0.796,0.076-1.952,0c0-0.093,0-0.186,0-0.278
	C74.833,36.987,75.313,35.952,74.707,35.999z"/>
<path fill-rule="evenodd" clip-rule="evenodd" fill="#323232" d="M62.723,44.36c0.346-0.583,0.811-1.048,1.394-1.394
	C63.77,43.549,63.305,44.014,62.723,44.36z"/>
<path fill-rule="evenodd" clip-rule="evenodd" fill="#C0C0C0" d="M58.542,49.377c0.593-0.43,1.038-1.006,1.673-1.394
	C59.751,48.543,59.466,49.278,58.542,49.377z"/>
<path fill-rule="evenodd" clip-rule="evenodd" fill="#191919" d="M50.459,49.099c-0.252-0.492-0.624-0.863-1.115-1.115
	c0-0.093,0-0.187,0-0.278c0.583,0.346,1.048,0.811,1.393,1.394C50.645,49.099,50.552,49.099,50.459,49.099z"/>
<path fill-rule="evenodd" clip-rule="evenodd" fill="#191919" d="M81.953,20.669c0.813-1.045,1.741-1.975,2.787-2.787
	C83.929,18.928,82.999,19.857,81.953,20.669z"/>
<path fill-rule="evenodd" clip-rule="evenodd" fill="#323232" d="M18.128,0.045c0.465,0,0.929,0,1.394,0
	c0.935,0.644,3.061,0.098,4.459,0.279c0.558,0,1.115,0,1.672,0c0.035,0.615,1.183,0.118,1.672,0.278c0.372,0,0.743,0,1.115,0
	c-0.047,0.604,0.989,0.126,1.394,0.278c0.279,0,0.558,0,0.836,0c0.086,0.379,0.698,0.231,1.115,0.279
	c8.021,1.083,15.59,2.619,23.412,3.902c0.086,0.378,0.698,0.231,1.115,0.278c0.278,0,0.557,0,0.836,0
	c-0.046,0.605,0.989,0.126,1.394,0.279c0.279,0,0.557,0,0.836,0c0.034,0.615,1.182,0.118,1.672,0.279c0.464,0,0.929,0,1.393,0
	c0.208,0.628,1.563,0.109,2.23,0.278c0.929,0,1.858,0,2.787,0c1.49,0.647,4.177,0.096,6.133,0.279c2.043,0,4.087,0,6.13,0
	c1.028,0.645,3.248,0.097,4.738,0.278c2.526,0.262,3.66,1.915,3.902,4.459c-0.379,0.086-0.232,0.698-0.278,1.115
	c-0.583,2.39-2.216,3.729-3.346,5.574c-1.046,0.813-1.974,1.742-2.787,2.787c-3.237,2.43-6.597,4.737-11.984,5.017
	c-0.49,0.16-1.637-0.337-1.672,0.279c-0.558,0-1.115,0-1.672,0c-0.12-0.624-1.374-0.113-1.951-0.279
	c-1.187,0.165-1.844-0.201-2.787-0.279c-0.086-0.378-0.698-0.231-1.115-0.278c-1.187,0.164-1.844-0.201-2.787-0.279
	c-0.086-0.378-0.698-0.231-1.115-0.278c-0.279,0-0.557,0-0.836,0c-0.086-0.379-0.698-0.231-1.115-0.279c-0.279,0-0.557,0-0.836,0
	c-0.086-0.378-0.698-0.231-1.115-0.279c-0.278,0-0.558,0-0.836,0c-0.086-0.378-0.697-0.231-1.114-0.278c-0.279,0-0.558,0-0.836,0
	c-0.087-0.378-0.698-0.231-1.115-0.278c-0.279,0-0.558,0-0.836,0c-0.038-0.459-1.914-0.459-1.952,0
	c-3.776,0.776-5.849,3.255-6.131,7.525c0.023,0.441-0.134,1.063,0.279,1.115c2.187,5.06,5.425,9.068,7.804,13.935
	c-0.648-0.188-0.747-0.926-1.394-1.115c-0.823-0.755-2.255-0.903-3.344-1.393c-1.776-3.984-4.893-6.627-5.853-11.427
	c0-1.022,0-2.044,0-3.066c-0.019-2.248,1.02-3.439,1.951-4.738c0.675-0.44,1.233-0.998,1.672-1.672
	c1.697-1.462,4.059-2.259,7.525-1.952c0.086,0.378,0.698,0.231,1.114,0.279c0.28,0,0.558,0,0.836,0
	c0.087,0.378,0.698,0.231,1.115,0.279c0.278,0,0.557,0,0.836,0c0.086,0.378,0.697,0.231,1.114,0.278c0.279,0,0.558,0,0.836,0
	c0.086,0.379,0.698,0.231,1.115,0.279c0.279,0,0.558,0,0.836,0c0.086,0.378,0.698,0.231,1.115,0.279c0.279,0,0.557,0,0.836,0
	c0.086,0.378,0.698,0.231,1.115,0.278c0.278,0,0.558,0,0.836,0c0.086,0.379,0.698,0.231,1.114,0.279c0.279,0,0.558,0,0.836,0
	c0.086,0.378,0.698,0.231,1.115,0.278c0.279,0,0.558,0,0.836,0c0.086,0.378,0.698,0.231,1.116,0.278c1.208,0,2.415,0,3.623,0
	c0.405-0.152,1.441,0.326,1.393-0.278c3.904-0.648,6.808-2.297,9.476-4.181c1.046-0.813,1.976-1.741,2.789-2.787
	c0.745-1.866,4.323-4.564,1.671-6.411c-0.086-0.378-0.697-0.231-1.114-0.279c-2.416,0-4.832,0-7.246,0
	c-1.769-0.647-4.736-0.095-6.968-0.278c-1.208,0-2.416,0-3.623,0c-0.297-0.633-1.752-0.106-2.509-0.279c-0.558,0-1.115,0-1.672,0
	c0.047-0.604-0.989-0.126-1.394-0.278c-0.464,0-0.929,0-1.393,0c-0.086-0.378-0.698-0.231-1.115-0.278c-0.278,0-0.557,0-0.836,0
	c-0.086-0.379-0.698-0.231-1.115-0.279c-8.856-1.084-16.944-2.937-25.642-4.18C29.749,3.29,29.137,3.437,28.72,3.39
	c-0.372,0-0.743,0-1.115,0c0.047-0.604-0.988-0.126-1.394-0.279c-0.558,0-1.115,0-1.672,0c-0.387-0.636-1.94-0.104-2.787-0.278
	c-1.952,0-3.902,0-5.853,0c-0.848,0.175-2.401-0.357-2.787,0.278c-0.558,0-1.115,0-1.672,0C11.035,3.263,10,2.785,10.046,3.39
	c-0.372,0-0.743,0-1.115,0C8.49,3.413,7.868,3.255,7.816,3.668C6.269,3.7,5.251,4.262,3.636,4.226
	C3.048,4.809,4.003,5.273,4.472,5.619C6.028,7.408,7.7,9.08,9.489,10.636c0.913,0.48,1.317,1.47,2.229,1.951
	c1.556,1.789,3.229,3.461,5.017,5.017c0.768,0.533,1.418,1.183,1.951,1.951c0.533,0.768,1.183,1.418,1.951,1.95
	c0.053,0.227,0.28,0.278,0.279,0.558c0.252,0.491,0.624,0.862,1.115,1.114c4.005,4.655,7.093,11.88,10.312,18.674
	c0.274,0.577,0.546,1.007,0.836,1.672c0.562,1.286,1.163,2.739,1.951,3.902c0.076,0.113-0.095,0.464,0,0.558
	c0.086,0.086,0.389-0.392,0.558-0.278c-0.472,1.014-0.732,2.241-0.836,3.623c0.153,0.405-0.326,1.44,0.279,1.394
	c0,0.187,0,0.371,0,0.557c-0.972-0.871-1.367-2.249-1.951-3.344c-0.578-1.085-1.42-2.089-1.672-3.346
	c-0.038-0.519-0.183-0.931-0.558-1.113c-1.999-3.805-3.603-7.889-5.574-11.707c-1.926-3.729-4.191-7.171-6.689-10.312
	c-0.347-0.583-0.811-1.047-1.394-1.394c-1.184-1.417-2.484-2.718-3.901-3.902c-1.371-1.603-2.857-3.089-4.459-4.459
	c-0.913-0.48-1.317-1.47-2.23-1.951C5.146,9.962,3.474,8.29,1.685,6.734C0.487,5.952-0.094,5.135,0.013,3.947
	C0.261,1.188,4.931,1.26,7.816,0.881c0.405-0.152,1.44,0.326,1.394-0.278c0.372,0,0.743,0,1.115,0
	c0.49-0.16,1.638,0.336,1.672-0.278c0.558,0,1.115,0,1.672,0C15.068,0.143,17.193,0.689,18.128,0.045z"/>
<path fill-rule="evenodd" clip-rule="evenodd" fill="#C0C0C0" d="M46.836,44.917c0.647,0.189,0.746,0.927,1.394,1.115
	c0,0.093,0,0.187,0,0.278C47.647,45.965,47.182,45.5,46.836,44.917z"/>
<path fill-rule="evenodd" clip-rule="evenodd" fill="#191919" d="M39.589,24.293c0.44-0.675,0.998-1.233,1.672-1.672
	C40.822,23.295,40.265,23.853,39.589,24.293z"/>
<path fill-rule="evenodd" clip-rule="evenodd" fill="#191919" d="M80.002,18.719c0.813-1.046,1.741-1.975,2.789-2.787
	C81.978,16.978,81.048,17.906,80.002,18.719z"/>
<path fill-rule="evenodd" clip-rule="evenodd" fill="#191919" d="M4.472,5.619c1.789,1.556,3.461,3.229,5.017,5.017
	C7.7,9.08,6.028,7.408,4.472,5.619z"/>
<path fill-rule="evenodd" clip-rule="evenodd" fill="#191919" d="M11.718,12.587c1.789,1.556,3.461,3.228,5.017,5.017
	C14.947,16.048,13.274,14.375,11.718,12.587z"/>
<path fill-rule="evenodd" clip-rule="evenodd" fill="#191919" d="M18.687,19.555c0.768,0.532,1.417,1.183,1.951,1.95
	C19.87,20.973,19.219,20.323,18.687,19.555z"/>
<path fill-rule="evenodd" clip-rule="evenodd" fill="#191919" d="M20.916,22.063c0.491,0.251,0.863,0.623,1.115,1.114
	C21.54,22.926,21.168,22.555,20.916,22.063z"/>
<path fill-rule="evenodd" clip-rule="evenodd" fill="#323232" d="M36.524,46.311c0.252-0.49,0.623-0.862,1.115-1.113
	C37.387,45.688,37.015,46.06,36.524,46.311z"/>
<path fill-rule="evenodd" clip-rule="evenodd" fill="#C0C0C0" d="M57.706,85.609c-0.492-0.252-0.863-0.624-1.115-1.115
	C57.083,84.746,57.454,85.117,57.706,85.609z"/>
<path fill-rule="evenodd" clip-rule="evenodd" fill="#777777" d="M49.345,47.983c0.491,0.252,0.863,0.623,1.115,1.115
	C49.968,48.847,49.596,48.475,49.345,47.983z"/>
<path fill-rule="evenodd" clip-rule="evenodd" fill="#323232" d="M64.952,46.032c0.252-0.491,0.624-0.863,1.115-1.115
	C65.815,45.409,65.444,45.781,64.952,46.032z"/>
<path fill-rule="evenodd" clip-rule="evenodd" fill="#C0C0C0" d="M48.508,51.049c-0.252-0.491-0.623-0.862-1.115-1.114
	c0-0.093,0-0.186,0-0.279c0.583,0.347,1.047,0.812,1.394,1.394C48.694,51.049,48.602,51.049,48.508,51.049z"/>
<path fill-rule="evenodd" clip-rule="evenodd" fill="#777777" d="M42.098,59.41c1.429,0.129,1.358-1.243,2.788-1.114
	c0.24,0.225,0.165,0.764,0.557,0.836c-0.48,0.913-1.607,1.18-2.229,1.951C42.731,60.636,42.396,60.041,42.098,59.41z"/>
<path fill-rule="evenodd" clip-rule="evenodd" fill="#191919" d="M47.394,49.935c0.492,0.252,0.863,0.623,1.115,1.114
	C48.017,50.797,47.646,50.426,47.394,49.935z"/>
<path fill-rule="evenodd" clip-rule="evenodd" fill="#323232" d="M75.543,42.13c0.669-0.11-0.154,1.27,0.837,0.836
	c-0.046,0.327-0.509,0.236-0.837,0.279C75.543,42.874,75.543,42.502,75.543,42.13z"/>
<path fill-rule="evenodd" clip-rule="evenodd" fill="#777777" d="M131.285,47.983c-0.877-0.674-1.769,0.5-2.786,0.557
	c-0.387-0.17-0.042-1.072-0.558-1.114c0.419-0.788,1.444-0.971,2.509-1.115c0.092,0,0.187,0,0.278,0
	C130.656,47.127,131.357,47.167,131.285,47.983z"/>
<path fill-rule="evenodd" clip-rule="evenodd" fill="#777777" d="M121.81,35.441c1.122,0.179,2.963-0.362,3.624,0.279
	c-1.208,0-2.416,0-3.624,0C121.81,35.627,121.81,35.534,121.81,35.441z"/>
<path fill-rule="evenodd" clip-rule="evenodd" fill="#FFFFFF" d="M125.434,35.72c1.528,0.235,2.801,0.729,3.622,1.672
	c0.347,0.583,0.812,1.047,1.395,1.394c1.732,1.333,1.851,4.28,2.786,6.411c-0.044,0.692,0.439,0.862,0.558,1.392
	c0.888,3.573,2.214,6.706,3.064,10.313c0,0.651,0,1.302,0,1.951c-0.857,2.302-3.441,3.69-5.573,5.017
	c-0.194,0.122-0.621,0.117-0.835,0.279c-0.114,0.086-0.171,0.496-0.278,0.558c-0.489,0.275-1.13,0.285-1.673,0.558
	c-0.343,0.172-0.756,0.687-1.114,0.836c-0.998,0.413-2.202,0.462-3.346,0.836c-0.146,0.048-0.453,0.525-0.557,0.559
	c-0.8,0.242-1.686,0.306-2.509,0.557c-1.115,0.339-2.201,0.507-3.346,0.836c-0.907,0.261-1.827,0.83-2.786,1.115
	c-2.184,0.649-4.444,1.005-6.689,1.672c-1.072,0.319-2,0.809-3.065,1.115c-4.952,1.423-10.816,3.045-15.887,4.459
	c-0.571,0.451-1.827,0.218-2.23,0.836c-3.582,0.854-7.218,2.004-10.868,3.066c-1.149,0.334-2.218,0.788-3.346,1.114
	c-1.184,0.344-2.596,0.445-3.902,0.837c-1.148,0.343-2.225,0.789-3.344,1.113c-2.709,0.789-5.589,2.146-7.804,1.395
	c-0.252-0.492-0.624-0.863-1.115-1.115c-4.553-7.896-10.542-14.355-15.607-21.739c-0.46-0.469-0.606-1.252-1.115-1.672
	c-1.663-2.518-3.459-4.902-4.738-7.805c0-0.186,0-0.37,0-0.557c-0.153-0.404,0.325-1.44-0.279-1.394
	c0.104-1.382,0.364-2.609,0.836-3.623c0.163-0.581,0.585-0.901,0.836-1.395c0.491-0.251,0.863-0.623,1.115-1.113
	c1.283-1.226,3.08-1.938,5.853-1.673c1.089,0.49,2.521,0.638,3.344,1.393c0.346,0.583,0.811,1.048,1.394,1.394
	c0.616,0.221,0.697,0.976,1.115,1.395c0,0.092,0,0.186,0,0.278c0.251,0.491,0.623,0.863,1.115,1.115c0.093,0,0.186,0,0.278,0
	c0.75,0.551,1.374,1.228,2.788,1.114c0.211,0.461,2.296,0.461,2.508,0c1.093-0.022,1.738-0.491,2.508-0.836
	c0.924-0.099,1.209-0.834,1.673-1.394c0.51-1.533,1.682-2.405,2.508-3.623c0.583-0.347,1.047-0.811,1.394-1.394
	c2.777-2.611,6.265-4.513,10.869-5.295c1.156,0.076,1.086-0.366,1.952,0c0.44-0.023,1.063,0.134,1.113-0.278c0.28,0,0.56,0,0.838,0
	c0.648,0,1.3,0,1.951,0c0.465,0,0.928,0,1.393,0c0.49-0.161,1.637,0.336,1.673-0.279c0.37,0,0.743,0,1.113,0
	c0.373,0,0.743,0,1.116,0c0.649,0,1.3,0,1.951,0c0.743,0,1.486,0,2.229,0c0.489-0.161,1.637,0.336,1.671-0.279
	c0.278,0,0.56,0,0.838,0c0.37,0,0.743,0,1.113,0c0.373,0,0.744,0,1.116,0c0.649,0,1.301,0,1.949,0
	c0.579-0.166,1.831,0.345,1.951-0.278c0.187,0,0.373,0,0.558,0c0.372,0,0.745,0,1.115,0c0.371,0,0.743,0,1.114,0
	c0.651,0,1.302,0,1.951,0c0.577-0.166,1.831,0.345,1.951-0.279c0.278,0,0.558,0,0.838,0c0.741,0,1.484,0,2.228,0
	c0.559,0,1.116,0,1.673,0c0.577-0.166,1.831,0.345,1.951-0.279c0.278,0,0.558,0,0.836,0c0.743,0,1.486,0,2.229,0
	c0.559,0,1.116,0,1.673,0c0.577-0.166,1.831,0.345,1.951-0.278c0.278,0,0.557,0,0.836,0c0.65,0,1.302,0,1.951,0
	C123.018,35.72,124.226,35.72,125.434,35.72z M116.793,38.507c-0.278,0-0.558,0-0.836,0c-0.743,0-1.486,0-2.229,0
	c-0.559,0-1.116,0-1.673,0c-0.577,0.166-1.831-0.344-1.951,0.279c-0.278,0-0.557,0-0.836,0c-0.743,0-1.486,0-2.229,0
	c-0.557,0-1.116,0-1.673,0c-0.577,0.165-1.831-0.345-1.951,0.278c-0.278,0-0.557,0-0.835,0c-0.373,0-0.744,0-1.116,0
	c-0.371,0-0.743,0-1.114,0c-0.557,0-1.115,0-1.673,0c-0.577,0.166-1.831-0.344-1.951,0.278c-0.278,0-0.557,0-0.835,0
	c-0.371,0-0.743,0-1.116,0c-0.371,0-0.743,0-1.114,0c-0.557,0-1.113,0-1.673,0c-0.665,0.17-2.021-0.35-2.229,0.28
	c-0.278,0-0.557,0-0.835,0c-0.465,0-0.93,0-1.393,0c-0.467,0-0.93,0-1.395,0c-0.836,0-1.673,0-2.509,0
	c-0.576,0.165-1.831-0.345-1.951,0.278c-0.37,0-0.743,0-1.113,0c-0.373,0-0.743,0-1.116,0c-0.489,0.16-1.637-0.337-1.673,0.278
	c-0.278,0-0.557,0-0.835,0c-0.852-0.201-1.017,0.285-1.673,0.279c-3.807,0.745-6.771,2.333-9.198,4.459
	c-0.491,0.252-0.863,0.624-1.115,1.115c-2.299,2.904-3.916,6.49-8.64,6.968c-1.115,0-2.23,0-3.345,0
	c-1.855-0.188-3.208-0.881-4.181-1.951c-0.346-0.582-0.811-1.047-1.394-1.394c-1.258-1.25-1.844-3.172-4.181-3.345
	c0.046-0.457-1.718-0.457-1.672,0c-2.181,0.606-3.628,1.947-3.902,4.46c-0.452-0.199-0.452,1.314,0,1.114
	c1.075,2.919,2.947,5.044,4.459,7.525c0.299,0.631,0.633,1.226,1.115,1.673c2.782,3.587,5.342,7.239,8.083,10.869
	c0.53,0.702,1.258,1.797,1.672,2.229c0.194,0.204,0.092,0.307,0.279,0.559c0.656,0.882,1.57,1.611,2.229,2.508
	c0.647,0.879,1.387,1.856,1.951,2.787c0.605,0.996,0.877,2.709,1.952,3.066c8.894-2.627,17.859-5.181,26.756-7.805
	c0.81-0.305,1.97-0.261,2.508-0.835c7.792-2.087,16.174-4.553,24.248-6.968c4.026-1.205,8.212-2.112,11.984-3.625
	c2.853-1.143,5.489-2.64,7.526-4.18c0.699-0.53,1.849-0.885,1.949-1.951c-1.105-3.168-2.111-6.435-3.065-9.755
	c0.072-0.816-0.629-0.856-0.557-1.673c-0.092,0-0.187,0-0.278,0c-0.747-4.548-2.264-8.328-7.804-8.082c-0.745,0-1.486,0-2.229,0
	c-0.559,0-1.116,0-1.673,0C118.167,38.394,116.913,37.884,116.793,38.507z"/>
<path fill-rule="evenodd" clip-rule="evenodd" fill="#323232" d="M76.102,35.72c0.604-0.047,0.126,0.989,0.278,1.394
	C75.775,37.16,76.254,36.125,76.102,35.72z"/>
<path fill-rule="evenodd" clip-rule="evenodd" fill="#323232" d="M74.707,35.999c0.605-0.047,0.126,0.989,0.278,1.394
	C74.381,37.439,74.859,36.404,74.707,35.999z"/>
<path fill-rule="evenodd" clip-rule="evenodd" fill="#323232" d="M120.417,38.229c0.743,0,1.484,0,2.229,0
	c-0.208,0.628-1.564,0.109-2.229,0.278C120.417,38.414,120.417,38.321,120.417,38.229z"/>
<path fill-rule="evenodd" clip-rule="evenodd" fill="#323232" d="M113.728,38.507c0.743,0,1.486,0,2.229,0
	c-0.208,0.629-1.564,0.109-2.229,0.279C113.728,38.693,113.728,38.6,113.728,38.507z"/>
<path fill-rule="evenodd" clip-rule="evenodd" fill="#323232" d="M107.038,38.786c0.743,0,1.486,0,2.229,0
	c-0.208,0.628-1.564,0.109-2.229,0.278C107.038,38.972,107.038,38.879,107.038,38.786z"/>
<path fill-rule="evenodd" clip-rule="evenodd" fill="#777777" d="M75.543,42.13c0.202-0.853-0.481-0.82-0.278-1.672
	c0.656,0.006,0.821-0.48,1.673-0.279c0,0.558,0,1.115,0,1.672c0,0.372,0,0.743,0,1.115c-0.187,0-0.373,0-0.558,0
	C75.389,43.4,76.212,42.02,75.543,42.13z"/>
<path fill-rule="evenodd" clip-rule="evenodd" fill="#191919" d="M76.938,41.852c0.452-0.199,0.452,1.314,0,1.115
	C76.938,42.595,76.938,42.223,76.938,41.852z"/>
<path fill-rule="evenodd" clip-rule="evenodd" fill="#777777" d="M133.236,45.197c0.896-0.313,1.653-0.765,2.787-0.837
	c-0.114,0.671,0.509,0.606,0.278,1.394c-0.783,0.331-1.603,0.627-2.508,0.835C133.676,46.06,133.192,45.89,133.236,45.197z"/>
<path fill-rule="evenodd" clip-rule="evenodd" fill="#C0C0C0" d="M35.13,52.722c-0.605,0.047-0.126-0.988-0.279-1.394
	C35.456,51.281,34.978,52.317,35.13,52.722z"/>
<path fill-rule="evenodd" clip-rule="evenodd" fill="#777777" d="M52.968,53c1.115,0,2.23,0,3.345,0
	C55.832,53.462,53.449,53.462,52.968,53z"/>
<path fill-rule="evenodd" clip-rule="evenodd" fill="#777777" d="M40.983,62.755c-0.968,0.24-1.546,0.869-2.229,1.394
	c-0.655-0.089-0.625-0.862-1.115-1.114c0.623-0.771,1.75-1.038,2.229-1.951C40.377,61.503,40.523,62.286,40.983,62.755z"/>
<path fill-rule="evenodd" clip-rule="evenodd" fill="#777777" d="M88.643,74.462c-0.538,0.574-1.698,0.53-2.508,0.835
	c0.034-1.598-1.254-3.1-0.836-4.181c0.634-0.202,1.423-0.249,1.95-0.558c0.354,1.318,0.761,2.585,1.115,3.903
	C88.457,74.462,88.551,74.462,88.643,74.462z"/>
<path fill-rule="evenodd" clip-rule="evenodd" fill="#777777" d="M89.2,77.248c0.326,1.438,0.896,2.635,1.115,4.181
	c-1.003-0.074-1.344,0.515-2.229,0.558c-0.252-1.421-0.647-2.698-1.116-3.902C87.373,77.466,88.629,77.699,89.2,77.248z"/>
<path fill-rule="evenodd" clip-rule="evenodd" fill="#323232" d="M119.858,35.72c0.12-0.624,1.374-0.113,1.951-0.279
	c0,0.092,0,0.186,0,0.279C121.16,35.72,120.509,35.72,119.858,35.72z"/>
<path fill-rule="evenodd" clip-rule="evenodd" fill="#323232" d="M113.169,35.999c0.208-0.628,1.564-0.109,2.229-0.278
	c0,0.093,0,0.186,0,0.278C114.655,35.999,113.912,35.999,113.169,35.999z"/>
<path fill-rule="evenodd" clip-rule="evenodd" fill="#323232" d="M106.481,36.277c0.206-0.628,1.563-0.109,2.228-0.279
	c0,0.093,0,0.186,0,0.279C107.966,36.277,107.223,36.277,106.481,36.277z"/>
<path fill-rule="evenodd" clip-rule="evenodd" fill="#323232" d="M78.889,37.393c0.12-0.624,1.374-0.113,1.951-0.279
	c0,0.093,0,0.186,0,0.279C80.188,37.393,79.537,37.393,78.889,37.393z"/>
<path fill-rule="evenodd" clip-rule="evenodd" fill="#191919" d="M53.525,50.213c0.836,0,1.672,0,2.508,0
	C55.822,50.674,53.737,50.674,53.525,50.213z"/>
<path fill-rule="evenodd" clip-rule="evenodd" fill="#777777" d="M136.858,56.901c0.461,0.038,0.461,1.914,0,1.951
	C136.858,58.203,136.858,57.553,136.858,56.901z"/>
</svg>
