<?xml version="1.0" encoding="utf-8"?>
<!-- Generator: Adobe Illustrator 15.0.0, SVG Export Plug-In  -->
<!DOCTYPE svg PUBLIC "-//W3C//DTD SVG 1.1//EN" "http://www.w3.org/Graphics/SVG/1.1/DTD/svg11.dtd" [
	<!ENTITY ns_flows "http://ns.adobe.com/Flows/1.0/">
]>
<svg version="1.1"
	 xmlns="http://www.w3.org/2000/svg" xmlns:xlink="http://www.w3.org/1999/xlink" xmlns:a="http://ns.adobe.com/AdobeSVGViewerExtensions/3.0/"
	 x="0px" y="0px" width="142px" height="142px" viewBox="-2.98 -40.514 142 142" enable-background="new -2.98 -40.514 142 142"
	 xml:space="preserve">
<defs>
</defs>
<path fill-rule="evenodd" clip-rule="evenodd" d="M74.223,12.286c0.886,0.306,2.749-0.674,2.229,0
	c-0.49,0.251-0.863,0.624-1.115,1.115c-0.099,0.366-0.491,0.438-0.558,0.836C74.272,13.907,74.562,12.784,74.223,12.286z"/>
<path fill-rule="evenodd" clip-rule="evenodd" fill="#323232" d="M56.106,17.859c0.452-0.199,0.452,1.314,0,1.115
	C56.106,18.603,56.106,18.231,56.106,17.859z"/>
<path fill-rule="evenodd" clip-rule="evenodd" fill="#323232" d="M62.517,42.943c0,0.372,0,0.743,0,1.115
	C62.064,44.258,62.064,42.744,62.517,42.943z"/>
<path fill-rule="evenodd" clip-rule="evenodd" fill="#737373" d="M62.795,34.861c0.324-0.744,1.479-0.025,1.115,0.836
	C63.372,35.584,63.886,34.421,62.795,34.861z"/>
<path fill-rule="evenodd" clip-rule="evenodd" fill="#323232" d="M60.287,10.335c-0.492-0.252-0.863-0.624-1.115-1.116
	C59.664,9.471,60.035,9.843,60.287,10.335z"/>
<path fill-rule="evenodd" clip-rule="evenodd" fill="#323232" d="M57.779,8.105c-0.492-0.252-0.863-0.624-1.115-1.115
	C57.155,7.242,57.527,7.614,57.779,8.105z"/>
<path fill-rule="evenodd" clip-rule="evenodd" fill="#FFFFFF" d="M51.089,2.531c0.093,0,0.186,0,0.278,0
	c1.779,1.473,3.553,2.95,5.296,4.459c0.252,0.492,0.624,0.863,1.115,1.115c0.647,0.188,0.746,0.926,1.394,1.114
	c0.252,0.492,0.623,0.864,1.115,1.116c0.93,1.251,1.872,1.172,4.181,0.836c2.191-0.32,5.095-0.961,7.247-1.115
	c0.839-0.368,2.388-0.028,3.064-0.557c0.463-0.466,1.637-0.222,2.509-0.279c1.45,0.129,2.128,1.032,2.508,2.23
	c0.122,0.958-0.11,1.563-0.278,2.23c-2.315,1.4-3.765,3.668-5.295,5.853c-0.457-0.046-0.457,1.718,0,1.672
	c0.642,4.933,1.727,9.422,2.229,14.493c0.365,0.657,0.118,1.927,0.558,2.509c0.418,1.905,0.494,4.149,1.115,5.853
	c-0.218,1.24,0.371,1.673,0.279,2.787c0.272,1.771,0.819,3.269,0.835,5.296c0,1.114,0,2.229,0,3.345
	c0.012,0.477-0.206,0.721-0.557,0.835c-0.676,0.439-1.234,0.997-1.673,1.673c-1.479,2.203-3.216,3.599-6.689,2.229
	c-2.41-0.949-2.733-2.09-3.344-5.296c-0.578-3.028-1.389-8.021-1.672-10.869c-0.314-0.802-0.057-2.174-0.558-2.788
	c-0.322-1.813-0.783-3.489-0.836-5.573c0.365-0.861-0.791-1.58-1.115-0.836c-2.382,0.498-4.685,1.074-7.525,1.114
	c-1.069-0.323-1.875-0.91-1.951-2.229c-0.865-4.431-1.699-8.893-2.23-13.657c0.006-0.657-0.48-0.821-0.278-1.672
	c0.051-0.237-0.109-0.263-0.279-0.278c-0.527-4.396-1.556-8.292-1.951-12.821c0-0.558,0-1.115,0-1.672c0-0.278,0-0.558,0-0.836
	c0.225-0.148,0.452-0.291,0.836-0.279C49.975,2.531,50.532,2.531,51.089,2.531z M61.401,14.236
	c-2.139-0.597-3.548-2.302-5.017-3.623c-0.74-0.666-1.478-1.295-2.229-1.951c-0.773-0.675-1.474-1.596-2.508-1.951
	c0.365,3.91,1.308,7.24,1.672,11.148c-0.203,0.853,0.48,0.82,0.278,1.672c0.864,4.431,1.698,8.893,2.23,13.658
	c3.82,0.086,8.351-3.063,10.313,0c0.579,0.903,0.594,2.765,0.836,4.18c0.239,1.402,0.496,2.921,0.557,4.46
	c0.339,0.498,0.051,1.621,0.558,1.951c-0.162,0.904,0.19,1.296,0.278,1.95c0,0.372,0,0.743,0,1.115
	c0.048,0.417-0.099,1.028,0.279,1.114c0.044,0.329-0.047,0.792,0.279,0.837c0.307,2.943,0.825,5.678,1.393,8.361
	c1.13,0.17,1.641,0.961,3.067,0.836c1.043-0.813,1.973-1.742,2.786-2.786c0.059-0.314,0.309-0.436,0.558-0.559
	c0.454,0.125,0.454-1.52,0-1.394c-0.323-1.813-0.784-3.489-0.836-5.574c-0.585-0.902-0.276-2.697-0.837-3.623
	c0.069-1.834-0.758-2.771-0.558-4.738c-0.11-1.006-0.36-1.869-0.557-2.787c-0.876-4.513-1.743-9.035-2.229-13.935
	c0-1.301,0-2.602,0-3.902c0.188-1.484,1.18-2.164,1.951-3.065c0.216-0.062,0.324-0.233,0.278-0.558
	c0.4-0.156,0.679-0.435,0.835-0.836c0.066-0.397,0.459-0.47,0.558-0.836c0.492-0.252,0.863-0.624,1.115-1.115
	c0.52-0.674-1.344,0.306-2.229,0c-0.787-0.23-0.723,0.393-1.395,0.278c-3.21,0.692-6.554,1.249-10.033,1.672
	C62.331,14.236,61.866,14.236,61.401,14.236z"/>
<path fill-rule="evenodd" clip-rule="evenodd" fill="#D8D8D8" d="M77.01,57.994c0.438-0.676,0.997-1.233,1.673-1.673
	C78.656,57.41,77.557,57.426,77.01,57.994z"/>
<path fill-rule="evenodd" clip-rule="evenodd" fill="#323232" d="M49.695,18.696c0.064-0.401,0.833-0.097,0.836-0.557
	c0.17,0.016,0.33,0.041,0.279,0.278C50.563,18.634,50.181,18.717,49.695,18.696z"/>
<path fill-rule="evenodd" clip-rule="evenodd" fill="#323232" d="M48.024,19.532c0.283,0.181,0.288,0.641,0.836,0.558
	C48.747,20.784,47.779,20.106,48.024,19.532z"/>
<path fill-rule="evenodd" clip-rule="evenodd" fill="#323232" d="M79.796,35.697c0.042-0.693,0.944-0.082,1.116,0
	c0,0.186,0,0.372,0,0.557C80.474,36.135,80.674,35.378,79.796,35.697z"/>
<path fill-rule="evenodd" clip-rule="evenodd" fill="#737373" d="M73.388,57.994c0.811-1.046,1.74-1.976,2.786-2.786
	C75.36,56.252,74.431,57.182,73.388,57.994z"/>
<path fill-rule="evenodd" clip-rule="evenodd" fill="#323232" d="M75.337,13.4c0.252-0.491,0.625-0.863,1.115-1.115
	C76.2,12.777,75.829,13.148,75.337,13.4z"/>
<path fill-rule="evenodd" clip-rule="evenodd" fill="#323232" d="M70.042,37.927c-0.217-0.062-0.324-0.233-0.279-0.558
	c0.356-0.015,0.387-0.357,0.836-0.278C70.574,37.53,69.889,37.31,70.042,37.927z"/>
<path fill-rule="evenodd" clip-rule="evenodd" fill="#737373" d="M70.599,37.091c1.152-0.149,2.193-0.409,3.346-0.558
	c0.196,0.918,0.446,1.781,0.557,2.787c-0.216-0.061-0.324-0.233-0.278-0.558c-1.448,0.131-2.53,0.628-4.181,0.558
	c0-0.465,0-0.929,0-1.394C69.889,37.31,70.574,37.53,70.599,37.091z"/>
<path fill-rule="evenodd" clip-rule="evenodd" fill="#323232" d="M69.763,41.829c0.113-0.694,1.081-0.017,0.836,0.558
	C70.159,42.36,70.381,41.676,69.763,41.829z"/>
<path fill-rule="evenodd" clip-rule="evenodd" fill="#737373" d="M77.01,38.206c-0.439-0.582-0.192-1.852-0.558-2.509
	c0.964,0.761,1.994-0.275,3.344,0c0.878-0.319,0.678,0.438,1.116,0.557c-0.23,0.789,0.393,0.723,0.278,1.395
	C79.642,37.68,78.624,38.242,77.01,38.206z"/>
<path fill-rule="evenodd" clip-rule="evenodd" fill="#323232" d="M75.059,44.059c0.561,0.926,0.252,2.721,0.837,3.623
	c-0.877-0.564-5.583,0.35-6.968,0.837c-0.029,0.01,0.023,0.251,0,0.278c-0.327-0.045-0.235-0.508-0.279-0.837
	c-0.023-0.44,0.134-1.063-0.279-1.114c0-0.372,0-0.743,0-1.115c2.165-0.437,4.389-0.814,6.689-1.115
	C75.059,44.431,75.059,44.244,75.059,44.059z"/>
<path fill-rule="evenodd" clip-rule="evenodd" fill="#737373" d="M48.581,5.318c-0.615-0.035-0.118-1.183-0.279-1.672
	c0.093,0,0.186,0,0.279,0C48.581,4.203,48.581,4.76,48.581,5.318z"/>
<path fill-rule="evenodd" clip-rule="evenodd" fill="#737373" d="M71.715,10.056c1.113-0.512-0.063-1.681,0.278-3.066
	c0.465,0,0.93,0,1.395,0c0.465,0.743-0.321,2.735,1.113,2.509c0.093,0,0.187,0,0.278,0C74.103,10.028,72.554,9.688,71.715,10.056z"
	/>
<path fill-rule="evenodd" clip-rule="evenodd" fill="#323232" d="M79.796,11.449c-0.38-1.198-1.058-2.101-2.508-2.23
	c5.165-0.972,12.274-2.381,18.116-3.344c0.784-0.129,1.823-0.062,2.509-0.279c0.886-0.28,1.699-1.252,2.787-1.672
	c1.397-0.541,3.185-0.433,4.737-0.836c1.745-0.453,2.699-1.428,4.182-1.115c1.264,0.267,1.976,1.698,2.786,2.787
	c0.83,1.109,1.689,2.312,2.23,3.345c0.272,1.387-0.569,1.66-0.836,2.508c0.678,2.059,1.396,3.747,2.509,5.295
	c0.24,0.336,0.364,0.903,0.557,1.114c0.581,0.644,1.226,0.914,1.951,1.394c0.263,0.174,0.651,0.529,1.114,0.836
	c1.853,1.229,4.269,3.191,5.854,5.017c0.234,0.601,1.777-0.104,1.951,0.558c1.097,0.513,1.956,1.364,2.787,2.229
	c1.423,1.482,2.757,3.11,4.46,5.018c0.907,1.017,1.913,1.8,1.951,2.787c0.052,1.416-1.002,2.172-2.23,3.345
	c-0.803,0.765-2.075,2.191-3.066,2.229c-1.785,0.067-3.595-2.759-5.017-4.182c-4.229-4.229-9.572-9.306-13.377-13.377
	c-0.77,0.19-1.501,0.962-2.229,1.672c-1.232,1.197-4.382,5.459-6.133,5.575c-1.669,0.109-1.753-1-3.346-1.672
	c-1.547,0.032-2.564,0.593-4.179,0.557c-0.024,1.068,0.338,2.368,0.557,3.623c0.214,1.231,0.731,2.629,0.557,3.623
	c-0.271,1.548-4.089,4.926-5.295,6.133c-0.749,0.749-1.953,1.674-3.065,2.787c-1.271,1.271-2.226,3.425-4.459,2.508
	c-0.229-0.093-0.351-0.723-0.558-0.836c-1.292-0.696-2.249-0.95-4.459-0.558c-0.587,0.104-1.358,0.425-2.229,0.558
	c0.092-1.114-0.497-1.547-0.279-2.787c1.715-0.203,4.193-0.916,6.131-0.558c1.156,0.214,1.604,0.916,2.508,1.114
	c2.823-2.295,5.045-5.2,7.804-7.803c0.343-0.321,1.178-0.444,1.116-1.115c-0.413-2.652-1.229-4.903-1.116-8.083
	c0.615-0.856,1.855-1.042,3.346-1.394c1.147-0.271,2.851-0.68,3.902-0.557c1.413,0.165,2.008,1.004,3.065,1.393
	c1.023-1.433,2.42-2.42,3.902-3.901c1.328-1.33,2.486-3.401,4.46-3.344c1.534,0.043,3.443,2.477,5.017,4.18
	c3.754,4.07,7.23,7.592,11.146,11.428c0.773,0.756,1.561,1.603,2.509,1.95c0.446-1.041,1.734-1.239,1.951-2.508
	c-2.308-2.523-4.672-4.989-6.968-7.525c-1.272,0.063-1.945-0.47-2.787-0.836c-0.599-0.721-1.268-1.318-1.951-1.952
	c-0.503-0.467-0.979-0.934-1.671-1.393c-0.263-0.174-0.653-0.529-1.116-0.836c-0.857-0.57-2.207-1.809-3.344-2.508
	c-0.593-0.365-0.448-0.617-1.115-1.394c-0.515-0.602-1.37-1.438-1.951-2.508c-0.383-0.705-0.79-1.701-1.114-2.508
	c-0.717-1.79-1.34-3.152-0.278-5.017c-0.393-0.723-0.943-1.287-1.395-1.951c-0.569-0.546-0.583-1.646-1.673-1.672
	c-1.947,1.344-4.472,0.859-6.688,1.672c-0.993,0.364-1.761,1.332-2.788,1.672c-1.503,0.498-3.33,0.559-5.017,0.836
	C89.495,9.682,84.614,10.689,79.796,11.449z"/>
<path fill-rule="evenodd" clip-rule="evenodd" fill="#323232" d="M61.401,14.236c0.465,0,0.93,0,1.394,0
	C62.921,14.692,61.276,14.692,61.401,14.236z"/>
<path fill-rule="evenodd" clip-rule="evenodd" fill="#323232" d="M73.666,15.63c-0.026-0.44-0.712-0.218-0.56-0.836
	c0.225,0.147,0.453,0.291,0.838,0.279C73.99,15.397,73.882,15.568,73.666,15.63z"/>
<path fill-rule="evenodd" clip-rule="evenodd" fill="#737373" d="M53.598,19.532c0.202-0.852-0.481-0.82-0.278-1.672
	c1.096,0.334,2.094-0.853,2.787,0c0,0.372,0,0.744,0,1.115C55.449,19.339,54.18,19.092,53.598,19.532z"/>
<path fill-rule="evenodd" clip-rule="evenodd" fill="#737373" d="M50.811,18.417c-0.202,0.852,0.285,1.016,0.278,1.672
	c-0.451-0.455-1.166,0.249-2.229,0c-0.548,0.083-0.553-0.376-0.836-0.558c-0.393-1.228,0.917-0.755,1.671-0.836
	C50.181,18.717,50.563,18.634,50.811,18.417z"/>
<path fill-rule="evenodd" clip-rule="evenodd" fill="#323232" d="M53.319,33.746c0.075,1.319,0.881,1.906,1.951,2.229
	c-7.974,1.777-16.259,2.793-24.527,4.182c-4.078,0.684-8.157,1.54-12.263,2.229c-2.112,0.354-4.267,0.471-6.41,0.836
	c-1.876,0.318-3.895,1.225-5.853,0.558c-1.195-0.949-1.115-2.485-1.394-3.901C3.513,33.218,2.424,25.151,1.2,17.859
	c-0.485-2.89-1.5-5.805-1.115-8.64C0.761,7.265,3.314,7.307,5.102,6.99c12.144-2.155,25.321-4.273,37.905-6.41
	c0.769-0.13,3.404-0.699,4.459-0.557c1.441,0.193,2.832,1.447,3.345,2.229c-0.405,0.152-1.441-0.325-1.394,0.279
	c-0.384-0.012-0.611,0.131-0.836,0.279c0,0.278,0,0.558,0,0.836c-0.093,0-0.186,0-0.279,0c-0.121-0.343-0.356-0.573-0.836-0.558
	C43.71,2.887,40.09,4.119,36.318,4.76c-3.711,0.631-7.608,1.031-11.427,1.672C17.452,7.681,9.875,9.045,2.593,10.335
	C4.466,20.54,5.951,31.133,7.889,41.271C23.046,38.776,38.096,36.175,53.319,33.746z"/>
<path fill-rule="evenodd" clip-rule="evenodd" fill="#737373" d="M68.091,43.78c-0.506-0.33-0.219-1.453-0.558-1.951
	c0.451,0.454,1.166-0.249,2.229,0c0.618-0.153,0.396,0.531,0.836,0.558c0,0.186,0,0.371,0,0.557
	c-0.604,0.418-1.568,0.476-2.508,0.558C68.091,43.594,68.091,43.687,68.091,43.78z"/>
<path fill-rule="evenodd" clip-rule="evenodd" fill="#737373" d="M64.746,41.271c0.501,0.614,0.244,1.986,0.558,2.788
	c-0.973-0.211-2.105,0.844-2.788,0c0-0.372,0-0.743,0-1.115c0.667-0.168,1.271-0.4,2.229-0.278
	C64.746,42.2,64.746,41.735,64.746,41.271z"/>
<path fill-rule="evenodd" clip-rule="evenodd" fill="#A8A8A8" d="M68.369,46.846c0.413,0.052,0.255,0.674,0.279,1.114
	C68.27,47.874,68.417,47.263,68.369,46.846z"/>
<path fill-rule="evenodd" clip-rule="evenodd" fill="#A8A8A8" d="M76.731,53.256c0.454-0.126,0.454,1.519,0,1.394
	C76.731,54.185,76.731,53.721,76.731,53.256z"/>
<path fill-rule="evenodd" clip-rule="evenodd" fill="#D8D8D8" d="M71.715,18.696c0,1.3,0,2.602,0,3.902
	C71.252,21.935,71.252,19.358,71.715,18.696z"/>
<path fill-rule="evenodd" clip-rule="evenodd" fill="#D8D8D8" d="M79.239,52.142c0.463,0.48,0.463,2.863,0,3.345
	C79.239,54.371,79.239,53.256,79.239,52.142z"/>
<path fill-rule="evenodd" clip-rule="evenodd" fill="#737373" d="M72.828,12.564c0.672,0.114,0.607-0.509,1.395-0.278
	c0.339,0.498,0.05,1.621,0.557,1.951c-0.156,0.402-0.435,0.68-0.835,0.836c-0.385,0.012-0.613-0.131-0.838-0.279
	C73.169,13.896,72.614,13.615,72.828,12.564z"/>
<path fill-rule="evenodd" clip-rule="evenodd" fill="#737373" d="M74.223,19.532c0,0.558,0,1.115,0,1.672
	C73.766,21.25,73.766,19.486,74.223,19.532z"/>
<path fill-rule="evenodd" clip-rule="evenodd" fill="#D8D8D8" d="M49.417,2.531c-0.047-0.604,0.989-0.126,1.394-0.279
	c0.236-0.051,0.262,0.109,0.278,0.279C50.532,2.531,49.975,2.531,49.417,2.531z"/>
</svg>
