<?xml version="1.0" encoding="utf-8"?>
<!-- Generator: Adobe Illustrator 15.0.0, SVG Export Plug-In  -->
<!DOCTYPE svg PUBLIC "-//W3C//DTD SVG 1.1//EN" "http://www.w3.org/Graphics/SVG/1.1/DTD/svg11.dtd" [
	<!ENTITY ns_flows "http://ns.adobe.com/Flows/1.0/">
]>
<svg version="1.1"
	 xmlns="http://www.w3.org/2000/svg" xmlns:xlink="http://www.w3.org/1999/xlink" xmlns:a="http://ns.adobe.com/AdobeSVGViewerExtensions/3.0/"
	 x="0px" y="0px" width="142px" height="142px" viewBox="-2.72 -38.292 142 142" enable-background="new -2.72 -38.292 142 142"
	 xml:space="preserve">
<defs>
</defs>
<path fill-rule="evenodd" clip-rule="evenodd" fill="#303030" d="M108.485,4.195c-0.198-0.452,1.314-0.452,1.116,0
	C109.228,4.195,108.857,4.195,108.485,4.195z"/>
<path fill-rule="evenodd" clip-rule="evenodd" fill="#303030" d="M44.382,7.261c0.452-0.2,0.452,1.314,0,1.115
	C44.382,8.004,44.382,7.632,44.382,7.261z"/>
<path fill-rule="evenodd" clip-rule="evenodd" fill="#303030" d="M111.274,11.999c0,0.371,0,0.743,0,1.114
	C110.821,13.313,110.821,11.799,111.274,11.999z"/>
<path fill-rule="evenodd" clip-rule="evenodd" fill="#717171" d="M91.762,38.755c0-0.093,0-0.186,0-0.279
	c0.313-0.059,0.435-0.309,0.557-0.557c1.026,0.183,1.389,1.028,1.952,1.672c0,0.094,0,0.187,0,0.279
	c-0.313,0.06-0.434,0.309-0.558,0.558c-0.092,0-0.186,0-0.278,0C92.76,39.987,92.203,39.431,91.762,38.755z"/>
<path fill-rule="evenodd" clip-rule="evenodd" fill="#303030" d="M19.577,38.755c0,0.372,0,0.743,0,1.115
	C19.125,40.069,19.125,38.555,19.577,38.755z"/>
<path fill-rule="evenodd" clip-rule="evenodd" fill="#717171" d="M95.386,42.657c0.251-0.492,0.623-0.863,1.114-1.115
	c0.387,0.822,1.288,1.128,1.673,1.95c0,0.094,0,0.187,0,0.28c-0.313,0.059-0.435,0.308-0.557,0.557c-0.095,0-0.187,0-0.279,0
	C96.514,43.944,96.208,43.042,95.386,42.657z"/>
<path fill-rule="evenodd" clip-rule="evenodd" fill="#A9A9A9" d="M19.855,44.329c0.052-0.413,0.674-0.256,1.115-0.278
	c-0.047,0.324-0.44,0.302-0.836,0.278C20.041,44.329,19.948,44.329,19.855,44.329z"/>
<path fill-rule="evenodd" clip-rule="evenodd" fill="#303030" d="M82.287,45.723c-0.047-0.457,1.719-0.457,1.673,0
	C83.402,45.723,82.845,45.723,82.287,45.723z"/>
<path fill-rule="evenodd" clip-rule="evenodd" fill="#717171" d="M63.056,37.083c0.341-0.763,1.615-0.16,1.115,0.836
	C63.632,37.806,64.146,36.643,63.056,37.083z"/>
<path fill-rule="evenodd" clip-rule="evenodd" fill="#A9A9A9" d="M88.418,49.346c1.276-1.51,2.671-2.903,4.182-4.181
	C91.322,46.675,89.927,48.069,88.418,49.346z"/>
<path fill-rule="evenodd" clip-rule="evenodd" fill="#303030" d="M93.157,44.887c0.627-0.86,1.368-1.604,2.229-2.229
	C94.759,43.518,94.016,44.261,93.157,44.887z"/>
<path fill-rule="evenodd" clip-rule="evenodd" fill="#303030" d="M97.337,44.329c0.093,0,0.185,0,0.279,0
	c0.122-0.249,0.244-0.498,0.557-0.557c0-0.094,0-0.187,0-0.28C98.854,43.493,97.337,45.011,97.337,44.329z"/>
<path fill-rule="evenodd" clip-rule="evenodd" fill="#303030" d="M96.5,41.542c0.1-0.365,0.491-0.438,0.557-0.836
	c0.569-0.082,0.547-0.755,1.116-0.836C97.735,40.546,97.175,41.103,96.5,41.542z"/>
<path fill-rule="evenodd" clip-rule="evenodd" fill="#A9A9A9" d="M102.076,30.672c0.924,0.098,1.208,0.835,1.671,1.394
	C103.114,31.679,102.667,31.102,102.076,30.672z"/>
<path fill-rule="evenodd" clip-rule="evenodd" fill="#A9A9A9" d="M106.536,31.508c0.625-0.86,1.368-1.604,2.228-2.23
	C108.138,30.139,107.395,30.883,106.536,31.508z"/>
<path fill-rule="evenodd" clip-rule="evenodd" fill="#303030" d="M109.043,29.278c1.229-1.65,2.951-2.808,4.18-4.458
	c0.094,0,0.186,0,0.28,0c0.903,1.138,1.927,2.16,3.065,3.066c0.288,0.733,1.104,0.938,1.392,1.672
	c-1.603-1.371-3.089-2.857-4.457-4.46C111.85,26.328,110.695,28.05,109.043,29.278z"/>
<path fill-rule="evenodd" clip-rule="evenodd" fill="#717171" d="M117.96,29.558c1.511,1.276,2.905,2.67,4.182,4.18
	C120.631,32.461,119.239,31.067,117.96,29.558z"/>
<path fill-rule="evenodd" clip-rule="evenodd" fill="#A9A9A9" d="M122.142,33.738c1.881,1.648,3.646,3.413,5.297,5.296
	C125.556,37.385,123.791,35.62,122.142,33.738z"/>
<path fill-rule="evenodd" clip-rule="evenodd" fill="#303030" d="M127.717,39.591c0.952,0.72,1.789,1.556,2.509,2.51
	C129.272,41.38,128.437,40.545,127.717,39.591z"/>
<path fill-rule="evenodd" clip-rule="evenodd" fill="#303030" d="M133.291,42.101c0.628-0.862,1.369-1.604,2.23-2.23
	C134.894,40.729,134.151,41.473,133.291,42.101z"/>
<path fill-rule="evenodd" clip-rule="evenodd" fill="#303030" d="M136.634,35.689c-0.49-0.253-0.863-0.624-1.113-1.115
	C136.011,34.826,136.384,35.197,136.634,35.689z"/>
<path fill-rule="evenodd" clip-rule="evenodd" fill="#717171" d="M134.405,33.459c0.493,0.252,0.863,0.624,1.116,1.115
	C135.03,34.322,134.658,33.951,134.405,33.459z"/>
<path fill-rule="evenodd" clip-rule="evenodd" fill="#303030" d="M133.291,32.066c-0.366-0.099-0.438-0.491-0.835-0.558
	c-0.054-0.226-0.28-0.277-0.28-0.557C132.667,31.203,133.039,31.574,133.291,32.066z"/>
<path fill-rule="evenodd" clip-rule="evenodd" fill="#717171" d="M131.061,29.836c0.491,0.251,0.863,0.624,1.114,1.115
	C131.684,30.699,131.314,30.328,131.061,29.836z"/>
<path fill-rule="evenodd" clip-rule="evenodd" fill="#717171" d="M124.093,24.541c0.491,0.251,0.863,0.624,1.116,1.115
	C124.716,25.404,124.346,25.032,124.093,24.541z"/>
<path fill-rule="evenodd" clip-rule="evenodd" fill="#303030" d="M118.52,20.36c-0.583-0.346-1.048-0.811-1.395-1.394
	C117.708,19.313,118.173,19.777,118.52,20.36z"/>
<path fill-rule="evenodd" clip-rule="evenodd" fill="#303030" d="M60.547,12.557c-0.492-0.252-0.863-0.624-1.115-1.116
	C59.924,11.693,60.295,12.065,60.547,12.557z"/>
<path fill-rule="evenodd" clip-rule="evenodd" fill="#717171" d="M121.585,22.59c-0.8-0.501-1.555-1.047-2.23-1.672
	c0.932-0.927,1.675-2.041,2.23-3.344c0.915,0.107,1.228,0.814,1.951,1.115C123.284,20.261,121.092,21.18,121.585,22.59z"/>
<path fill-rule="evenodd" clip-rule="evenodd" fill="#DBDBDB" d="M128.832,27.606c0.949-0.02,1.037,0.82,1.395,1.394
	C129.643,28.654,129.178,28.189,128.832,27.606z"/>
<path fill-rule="evenodd" clip-rule="evenodd" fill="#DBDBDB" d="M132.456,31.508c0.396,0.067,0.469,0.459,0.835,0.558
	c0.053,0.226,0.279,0.278,0.279,0.558C133.079,32.372,132.706,32,132.456,31.508z"/>
<path fill-rule="evenodd" clip-rule="evenodd" fill="#DBDBDB" d="M130.226,42.101c-0.72-0.954-1.557-1.79-2.509-2.51
	c-0.054-0.226-0.28-0.277-0.278-0.557c1.138,0.904,2.16,1.927,3.065,3.066C130.412,42.101,130.318,42.101,130.226,42.101z"/>
<path fill-rule="evenodd" clip-rule="evenodd" fill="#DBDBDB" d="M116.569,27.886c-1.139-0.906-2.162-1.928-3.065-3.066
	C114.641,25.725,115.663,26.747,116.569,27.886z"/>
<path fill-rule="evenodd" clip-rule="evenodd" fill="#DBDBDB" d="M108.763,29.278c1.37-1.602,2.856-3.089,4.46-4.458
	c-1.229,1.65-2.951,2.808-4.18,4.458C108.95,29.278,108.857,29.278,108.763,29.278z"/>
<path fill-rule="evenodd" clip-rule="evenodd" fill="#DBDBDB" d="M92.6,45.165c1.37-1.603,2.856-3.089,4.457-4.459
	c-0.065,0.397-0.457,0.471-0.557,0.836c-0.491,0.252-0.863,0.623-1.114,1.115c-0.861,0.626-1.603,1.369-2.229,2.229
	C92.93,44.94,92.878,45.166,92.6,45.165z"/>
<path fill-rule="evenodd" clip-rule="evenodd" fill="#A9A9A9" d="M86.467,46.559c1.585,0.581,2.252-1.967,3.624-2.508
	c-0.387,0.822-1.288,1.128-1.673,1.951C87.776,46.222,87.002,47.908,86.467,46.559z"/>
<path fill-rule="evenodd" clip-rule="evenodd" fill="#717171" d="M90.091,44.051c0.998-1.231,2.111-2.347,3.344-3.345
	C92.438,41.938,91.322,43.052,90.091,44.051z"/>
<path fill-rule="evenodd" clip-rule="evenodd" fill="#A9A9A9" d="M93.435,40.428c0.093,0,0.187,0,0.278,0
	c0.124-0.249,0.245-0.498,0.558-0.558c0-0.093,0-0.186,0-0.279c0.094,0,0.186,0,0.278,0c-0.251,0.491-0.623,0.863-1.114,1.115
	C93.435,40.613,93.435,40.521,93.435,40.428z"/>
<path fill-rule="evenodd" clip-rule="evenodd" fill="#303030" d="M91.762,38.755c-0.808-0.155,0.429-0.435,0.278-0.836
	c1.345-1.05,1.724,2.164,3.067,1.115c0.154-0.402,0.435-0.681,0.836-0.837c-0.347,0.583-0.812,1.048-1.395,1.394
	c-0.093,0-0.185,0-0.278,0c-0.563-0.644-0.926-1.489-1.952-1.672c-0.122,0.248-0.244,0.498-0.557,0.557
	C91.762,38.569,91.762,38.662,91.762,38.755z"/>
<path fill-rule="evenodd" clip-rule="evenodd" fill="#A9A9A9" d="M104.025,28.722c0.556,0.003,0.354,0.76,1.116,0.557
	C104.888,30.034,104.116,29.044,104.025,28.722z"/>
<path fill-rule="evenodd" clip-rule="evenodd" fill="#717171" d="M105.976,28.442c1.371-1.603,2.857-3.089,4.46-4.459
	C109.066,25.586,107.58,27.073,105.976,28.442z"/>
<path fill-rule="evenodd" clip-rule="evenodd" fill="#717171" d="M114.896,22.59c1.003,0.307,1.504,2.255,2.508,1.672
	c-0.036-0.499,0.343-0.587,0.278-1.115c0.701,0.416,1.535,0.695,1.951,1.394c-0.162,0.58-0.585,0.901-0.835,1.393
	c-0.094,0-0.187,0-0.278,0c-0.649-0.188-0.747-0.926-1.395-1.114C116.266,24.193,115.523,23.45,114.896,22.59z"/>
<path fill-rule="evenodd" clip-rule="evenodd" fill="#A9A9A9" d="M117.125,24.82c0.647,0.188,0.745,0.926,1.395,1.114
	c0,0.093,0,0.186,0,0.279c-0.095,0-0.187,0-0.278,0C118.051,25.565,117.314,25.467,117.125,24.82z"/>
<path fill-rule="evenodd" clip-rule="evenodd" fill="#DBDBDB" d="M118.242,26.213c0.092,0,0.184,0,0.278,0
	c1.276,1.51,2.67,2.904,4.181,4.181c0.188,0.648,0.926,0.746,1.114,1.394C121.839,30.046,119.982,28.187,118.242,26.213z"/>
<path fill-rule="evenodd" clip-rule="evenodd" fill="#A9A9A9" d="M123.815,31.787c1.511,1.277,2.902,2.671,4.181,4.181
	C126.486,34.69,125.091,33.297,123.815,31.787z"/>
<path fill-rule="evenodd" clip-rule="evenodd" fill="#717171" d="M127.996,35.968c1.465,1.043,2.437,2.58,3.901,3.623
	c-0.737,0.191-1.282-1.005-1.952-1.672C129.244,37.216,128.346,36.732,127.996,35.968z"/>
<path fill-rule="evenodd" clip-rule="evenodd" fill="#DBDBDB" d="M133.012,38.755c0.188-0.647,0.926-0.746,1.114-1.394
	c0-0.093,0-0.186,0-0.278C134.841,37.637,133.421,38.401,133.012,38.755z"/>
<path fill-rule="evenodd" clip-rule="evenodd" fill="#DBDBDB" d="M134.126,36.804c-0.647-0.188-0.745-0.926-1.393-1.114
	c0-0.094,0-0.187,0-0.278C133.317,35.757,133.782,36.222,134.126,36.804z"/>
<path fill-rule="evenodd" clip-rule="evenodd" fill="#A9A9A9" d="M131.618,34.296c0.491,0.252,0.864,0.623,1.116,1.115
	C132.243,35.158,131.871,34.787,131.618,34.296z"/>
<path fill-rule="evenodd" clip-rule="evenodd" fill="#DBDBDB" d="M130.504,32.902c-0.569-0.082-0.547-0.753-1.116-0.836
	c0-0.093,0-0.186,0-0.279C129.879,32.039,130.251,32.411,130.504,32.902z"/>
<path fill-rule="evenodd" clip-rule="evenodd" fill="#A9A9A9" d="M128.274,30.672c0.491,0.252,0.864,0.624,1.114,1.115
	C128.898,31.536,128.525,31.164,128.274,30.672z"/>
<path fill-rule="evenodd" clip-rule="evenodd" fill="#717171" d="M125.766,29.278c1.551-0.25,1.947,0.654,2.508,1.394
	C127.658,29.988,126.774,29.572,125.766,29.278z"/>
<path fill-rule="evenodd" clip-rule="evenodd" fill="#DBDBDB" d="M124.093,28.164c-0.675-0.44-1.232-0.997-1.673-1.672
	C123.095,26.932,123.655,27.489,124.093,28.164z"/>
<path fill-rule="evenodd" clip-rule="evenodd" fill="#303030" d="M114.896,20.639c0.767,0.534,1.418,1.184,1.951,1.951
	C116.08,22.057,115.428,21.407,114.896,20.639z"/>
<path fill-rule="evenodd" clip-rule="evenodd" fill="#303030" d="M20.134,38.755c0.25-0.753,1.131,0.13,0.836,0.836
	c-0.327-0.045-0.235-0.508-0.279-0.836C20.506,38.755,20.32,38.755,20.134,38.755z"/>
<path fill-rule="evenodd" clip-rule="evenodd" fill="#303030" d="M122.142,26.492c0.094,0,0.187,0,0.278,0
	c0.44,0.675,0.998,1.232,1.673,1.672c0.099,0.366,0.491,0.438,0.557,0.836C123.699,28.281,122.861,27.445,122.142,26.492z"/>
<path fill-rule="evenodd" clip-rule="evenodd" fill="#303030" d="M129.388,32.066c0.569,0.083,0.547,0.754,1.116,0.836
	c0.052,0.226,0.278,0.278,0.278,0.558C130.2,33.113,129.735,32.649,129.388,32.066z"/>
<path fill-rule="evenodd" clip-rule="evenodd" fill="#303030" d="M132.734,35.689c0.647,0.188,0.745,0.926,1.393,1.114
	c0,0.094,0,0.186,0,0.279C133.543,36.737,133.079,36.272,132.734,35.689z"/>
<path fill-rule="evenodd" clip-rule="evenodd" fill="#303030" d="M131.897,39.591c0.627-0.86,1.37-1.603,2.229-2.229
	c-0.188,0.647-0.926,0.746-1.114,1.394C132.444,38.837,132.465,39.51,131.897,39.591z"/>
<path fill-rule="evenodd" clip-rule="evenodd" fill="#303030" d="M122.701,30.394c-1.511-1.277-2.904-2.67-4.181-4.181
	c0-0.093,0-0.186,0-0.279c0.092,0,0.185,0,0.278,0C119.66,27.86,121.607,28.699,122.701,30.394z"/>
<path fill-rule="evenodd" clip-rule="evenodd" fill="#717171" d="M43.824,2.801c-0.034,0.616-1.182,0.118-1.672,0.279
	c0.195-1.217-0.474-1.57-0.278-2.787c0.788,0.23,0.722-0.393,1.394-0.279C43.573,0.823,43.519,1.992,43.824,2.801z"/>
<path fill-rule="evenodd" clip-rule="evenodd" fill="#717171" d="M0.346,11.163c0,0.836,0,1.672,0,2.508
	C-0.115,13.459-0.115,11.375,0.346,11.163z"/>
<path fill-rule="evenodd" clip-rule="evenodd" fill="#303030" d="M61.662,16.458c0.465,0,0.93,0,1.394,0
	C63.181,16.914,61.537,16.914,61.662,16.458z"/>
<path fill-rule="evenodd" clip-rule="evenodd" fill="#A9A9A9" d="M112.387,22.311c0.038-0.459,1.913-0.459,1.951,0
	C113.688,22.311,113.039,22.311,112.387,22.311z"/>
<path fill-rule="evenodd" clip-rule="evenodd" fill="#717171" d="M136.913,36.524c0.459-0.045,0.459,1.719,0,1.673
	C136.913,37.641,136.913,37.083,136.913,36.524z"/>
<path fill-rule="evenodd" clip-rule="evenodd" fill="#717171" d="M20.97,39.591c0.029,0.714,0.158,1.329,0.557,1.673
	c-0.12,0.623-1.373,0.112-1.951,0.278c0-0.558,0-1.114,0-1.672c0-0.372,0-0.743,0-1.115c0.186,0,0.372,0,0.558,0
	c0.186,0,0.372,0,0.557,0C20.735,39.083,20.644,39.546,20.97,39.591z"/>
<path fill-rule="evenodd" clip-rule="evenodd" fill="#717171" d="M131.061,42.379c0.465,0,0.93,0,1.395,0
	C132.58,42.833,130.935,42.833,131.061,42.379z"/>
<path fill-rule="evenodd" clip-rule="evenodd" fill="#717171" d="M20.97,44.051c0.279,0,0.557,0,0.836,0
	c-0.195,1.217,0.474,1.569,0.278,2.786c-0.788-0.229-0.722,0.394-1.394,0.28c-0.306-0.81-0.252-1.979-0.557-2.788
	C20.53,44.353,20.923,44.375,20.97,44.051z"/>
<path fill-rule="evenodd" clip-rule="evenodd" fill="#717171" d="M7.034,46.002c0.836,0,1.672,0,2.509,0
	C9.331,46.463,7.246,46.463,7.034,46.002z"/>
<path fill-rule="evenodd" clip-rule="evenodd" fill="#303030" d="M82.565,48.51c-0.044-0.457,1.719-0.457,1.673,0
	C83.68,48.51,83.124,48.51,82.565,48.51z"/>
<path fill-rule="evenodd" clip-rule="evenodd" fill="#717171" d="M67.236,50.461c0.743,0,1.486,0,2.23,0
	C69.341,50.921,67.36,50.921,67.236,50.461z"/>
<path fill-rule="evenodd" clip-rule="evenodd" fill="#FFFFFF" d="M43.824,2.801c0.668-0.168,1.272-0.4,2.23-0.279
	c0.836,0,1.672,0,2.508,0c2.25,0.994,3.807,2.944,5.574,4.459c1.764,1.512,3.632,2.854,5.296,4.459
	c0.252,0.492,0.623,0.864,1.115,1.116c1.174,1.663,3.225,1.091,6.41,0.557c8.764-1.47,17.666-3.259,26.478-4.738
	c1.633-0.274,3.235-0.178,4.46-0.558c1.308-0.405,2.346-1.526,3.622-1.951c1.266-0.421,2.645-0.245,3.902-0.558
	c1.16-0.289,2.058-0.822,3.065-1.115c0.372,0,0.743,0,1.116,0c1.388-0.103,2.189,1.612,3.064,2.787
	c0.855,1.147,2.146,2.439,2.23,3.345c0.112,1.203-0.465,1.854-0.836,2.787c0.996,1.978,1.723,4.222,3.065,5.853
	c0.347,0.583,0.812,1.048,1.395,1.394c0.364,0.098,0.437,0.491,0.835,0.557c0.676,0.625,1.431,1.171,2.23,1.672
	c1.128,0.359,1.683,1.29,2.508,1.951c0.253,0.491,0.623,0.863,1.116,1.115c0.551,1.306,2.946,0.767,3.622,1.951
	c0.347,0.583,0.812,1.047,1.395,1.394c0.4,0.156,0.679,0.435,0.835,0.836c0.253,0.491,0.623,0.863,1.114,1.115
	c0,0.28,0.227,0.332,0.28,0.557c0.25,0.492,0.623,0.863,1.114,1.115c0.402,0.156,0.681,0.435,0.835,0.836
	c0.253,0.492,0.625,0.863,1.116,1.115c0.25,0.491,0.623,0.862,1.113,1.115c0.148,0.224,0.291,0.452,0.278,0.835
	c0,0.559,0,1.116,0,1.673c-0.096,0.924-0.833,1.209-1.392,1.673c-0.861,0.626-1.603,1.368-2.23,2.23
	c-0.224,0.146-0.452,0.289-0.835,0.278c-0.465,0-0.93,0-1.395,0c-0.324,0.045-0.497-0.063-0.557-0.278
	c-0.905-1.14-1.928-2.162-3.065-3.066c-1.65-1.883-3.416-3.647-5.297-5.296c-1.276-1.51-2.671-2.904-4.182-4.18
	c-0.288-0.734-1.104-0.939-1.392-1.672c-0.906-1.139-1.928-2.161-3.065-3.066c-0.095,0-0.187,0-0.28,0
	c-1.604,1.37-3.09,2.856-4.46,4.458c-0.859,0.626-1.603,1.37-2.228,2.23c-0.145,0.799-2.109,1.217-2.789,0.558
	c-0.463-0.559-0.747-1.295-1.671-1.394c-1.635,0.038-2.694,0.65-4.459,0.557c0.14,2.09,0.863,3.595,0.835,5.854
	c0,0.743,0,1.486,0,2.229c-0.052,0.226-0.278,0.278-0.278,0.558c-0.569,0.081-0.547,0.754-1.116,0.836
	c-1.601,1.37-3.087,2.856-4.457,4.459c-1.511,1.277-2.905,2.671-4.182,4.181c-1.05,1.591-3.279,0.116-4.181-0.836
	c0.046-0.457-1.717-0.457-1.673,0c-4.57,0.447-8.463,1.57-13.099,1.951c-0.744,0-1.487,0-2.23,0
	c-1.566-0.146-1.822-3.702-2.23-6.132c-0.394-2.351-0.673-4.602-0.836-6.41c0.5-0.996-0.774-1.599-1.115-0.836
	c-13.57,2.502-27.523,4.622-41.249,6.968c-0.279,0-0.558,0-0.836,0c-0.441,0.022-1.063-0.135-1.115,0.278
	c-3.44,0.554-6.627,1.362-10.312,1.673c-0.836,0-1.672,0-2.509,0c-0.185,0-0.372,0-0.557,0c-1.14-0.905-1.11-2.308-1.394-3.623
	c-1.887-8.766-3.116-19.578-4.738-28.708c0-0.836,0-1.672,0-2.508c0-0.093,0-0.186,0-0.279C1.554,9.618,3.455,9.5,5.083,9.211
	C16.983,7.1,30.129,5.209,42.152,3.08C42.642,2.919,43.79,3.417,43.824,2.801z M61.662,16.458c-0.973,0.289-1.291-0.626-1.951-1.115
	c-1.96-1.451-3.469-2.881-5.295-4.459c-1.57-1.357-3.613-3.1-5.295-4.459c-0.85-0.687-1.229-1.309-1.951-1.394
	c-0.891-0.104-1.886,0.672-2.787,0.558c-0.577,0.165-1.831-0.345-1.951,0.278C31.02,7.833,18.666,9.901,7.592,11.72
	c-1.598,0.262-3.291,0.265-4.738,1.115c1.99,9.995,3.455,20.514,5.296,30.657c3.728-0.73,7.632-1.285,11.427-1.95
	c0.578-0.166,1.831,0.345,1.951-0.278c11.657-2.1,27.666-4.61,40.134-6.689c1.013-0.169,2.109-0.632,2.787-0.558
	c2.102,0.23,2.497,3.031,2.788,5.018c0.305,2.084,0.529,3.777,0.836,5.574c0.203,1.189,0.073,2.516,0.835,3.344
	c4.26-0.942,8.72-1.685,13.378-2.229c0.559,0,1.115,0,1.673,0c1.317-0.203,1.833,0.397,2.508,0.836
	c0.535,1.35,1.309-0.337,1.951-0.557c0.385-0.823,1.286-1.129,1.673-1.951c1.23-0.999,2.347-2.113,3.344-3.345
	c0.491-0.252,0.863-0.624,1.114-1.115c0.583-0.346,1.048-0.811,1.395-1.394c-0.321-3.376-2.737-7.876,0.278-9.476
	c0.947-0.502,2.37-0.301,4.181-0.558c0.836,0,1.673,0,2.509,0c0.519,0.039,0.932,0.183,1.113,0.558
	c0.091,0.322,0.863,1.313,1.116,0.557c0.156-0.4,0.435-0.68,0.835-0.836c1.604-1.37,3.09-2.856,4.46-4.459
	c0.563-0.645,0.928-1.49,1.951-1.672c0.651,0,1.301,0,1.951,0c0.217,0.062,0.549,0.007,0.558,0.279
	c0.627,0.86,1.37,1.604,2.229,2.23c0.188,0.647,0.926,0.746,1.116,1.393c1.74,1.974,3.598,3.833,5.573,5.574
	c1.276,1.51,2.671,2.903,4.181,4.181c0.351,0.765,1.248,1.248,1.949,1.951c0.67,0.667,1.215,1.863,1.952,1.672
	c0.568-0.081,0.547-0.754,1.115-0.836c0.409-0.354,1.829-1.118,1.114-1.672c0-0.094,0-0.186,0-0.279
	c-0.345-0.582-0.81-1.047-1.393-1.393c-0.252-0.492-0.625-0.863-1.116-1.115c-0.4-0.156-0.679-0.435-0.835-0.836
	c0-0.279-0.227-0.332-0.278-0.558c-0.253-0.491-0.625-0.863-1.116-1.115c-0.25-0.491-0.623-0.863-1.114-1.115
	c-0.561-0.74-0.957-1.644-2.508-1.394c-0.486,0.021-0.867-0.062-1.116-0.278c-0.065-0.398-0.458-0.47-0.557-0.836
	c-0.438-0.675-0.998-1.232-1.673-1.672c-0.092,0-0.185,0-0.278,0c-0.892-0.596-1.661-1.312-2.509-1.951
	c-0.416-0.699-1.25-0.979-1.951-1.394c-0.396-0.066-0.469-0.459-0.835-0.557c-0.533-0.768-1.185-1.417-1.951-1.951
	c-1.653-2.063-2.89-4.543-3.622-7.525c0-0.372,0-0.743,0-1.114c-0.299-1.041,0.69-0.795,0.557-1.672
	c-1.088-0.863-1.803-2.101-2.509-3.345c-1.643,0.724-3.243,0.953-5.016,1.394c-0.932,0.231-1.998,0.186-2.789,0.557
	c-0.267,0.126-0.523,0.632-0.836,0.836c-1.348,0.882-3.628,1.077-5.573,1.394c-10.72,1.746-21.604,3.799-32.052,5.295
	C62.591,16.458,62.126,16.458,61.662,16.458z"/>
<path fill-rule="evenodd" clip-rule="evenodd" fill="#A9A9A9" d="M46.054,2.522c0.211-0.46,2.297-0.46,2.508,0
	C47.727,2.522,46.89,2.522,46.054,2.522z"/>
<path fill-rule="evenodd" clip-rule="evenodd" fill="#717171" d="M42.431,5.867c0.121-0.624,1.374-0.113,1.951-0.278
	c0,0.557,0,1.114,0,1.672c0,0.372,0,0.743,0,1.115c-0.485-0.021-0.867,0.062-1.115,0.279c-0.196-0.918-0.448-1.781-0.557-2.787
	C42.617,5.867,42.524,5.867,42.431,5.867z"/>
<path fill-rule="evenodd" clip-rule="evenodd" fill="#A9A9A9" d="M98.452,37.083c0.461,0.124,0.461,2.105,0,2.229
	C98.452,38.569,98.452,37.826,98.452,37.083z"/>
<path fill-rule="evenodd" clip-rule="evenodd" fill="#717171" d="M100.403,28.164c0.211-0.461,2.296-0.461,2.509,0
	C102.076,28.164,101.239,28.164,100.403,28.164z"/>
</svg>
