<?xml version="1.0" encoding="utf-8"?>
<!-- Generator: Adobe Illustrator 15.0.0, SVG Export Plug-In  -->
<!DOCTYPE svg PUBLIC "-//W3C//DTD SVG 1.1//EN" "http://www.w3.org/Graphics/SVG/1.1/DTD/svg11.dtd" [
	<!ENTITY ns_flows "http://ns.adobe.com/Flows/1.0/">
]>
<svg version="1.1"
	 xmlns="http://www.w3.org/2000/svg" xmlns:xlink="http://www.w3.org/1999/xlink" xmlns:a="http://ns.adobe.com/AdobeSVGViewerExtensions/3.0/"
	 x="0px" y="0px" width="142px" height="142px" viewBox="-2.98 -40.514 142 142" enable-background="new -2.98 -40.514 142 142"
	 xml:space="preserve">
<defs>
</defs>
<path fill-rule="evenodd" clip-rule="evenodd" fill="#313131" d="M108.225,1.973c-0.198-0.452,1.314-0.452,1.116,0
	C108.968,1.973,108.597,1.973,108.225,1.973z"/>
<path fill-rule="evenodd" clip-rule="evenodd" fill="#313131" d="M111.014,9.777c0,0.371,0,0.743,0,1.114
	C110.561,11.091,110.561,9.578,111.014,9.777z"/>
<path fill-rule="evenodd" clip-rule="evenodd" d="M117.144,22.876c0.28-0.555,0.483-1.19,1.116-1.394
	c0.817,0.668,1.713,1.259,2.508,1.951c-0.188,0.647-0.928,0.746-1.115,1.394c-0.093,0-0.185,0-0.279,0
	C118.46,24.347,118.058,23.357,117.144,22.876z"/>
<path fill-rule="evenodd" clip-rule="evenodd" fill="#313131" d="M82.026,43.501c0.038-0.459,1.913-0.459,1.951,0
	C83.328,43.501,82.677,43.501,82.026,43.501z"/>
<path fill-rule="evenodd" clip-rule="evenodd" fill="#313131" d="M82.305,46.288c-0.124-0.455,1.521-0.455,1.395,0
	C83.234,46.288,82.77,46.288,82.305,46.288z"/>
<path fill-rule="evenodd" clip-rule="evenodd" fill="#313131" d="M88.716,46.846c-0.053-0.236,0.107-0.263,0.278-0.279
	c0.385,0.823,1.288,1.128,1.673,1.952C89.844,48.133,89.539,47.231,88.716,46.846z"/>
<path fill-rule="evenodd" clip-rule="evenodd" fill="#727272" d="M89.831,45.73c1.008,0.764,2.825,2.024,0.836,2.788
	c-0.385-0.824-1.288-1.129-1.673-1.952c0.098-0.365,0.49-0.438,0.557-0.836C89.645,45.73,89.737,45.73,89.831,45.73z"/>
<path fill-rule="evenodd" clip-rule="evenodd" fill="#A9A9A9" d="M89.551,45.73c0.813-1.045,1.743-1.975,2.789-2.787
	c-0.67,1.097-1.842,1.691-2.509,2.787C89.737,45.73,89.645,45.73,89.551,45.73z"/>
<path fill-rule="evenodd" clip-rule="evenodd" fill="#313131" d="M93.175,42.387c1.463-1.696,3.043-3.275,4.738-4.738
	C96.45,39.344,94.87,40.923,93.175,42.387z"/>
<path fill-rule="evenodd" clip-rule="evenodd" fill="#A9A9A9" d="M101.815,28.451c0.924,0.098,1.208,0.835,1.671,1.394
	C102.854,29.457,102.406,28.88,101.815,28.451z"/>
<path fill-rule="evenodd" clip-rule="evenodd" fill="#A9A9A9" d="M105.995,29.565c0.721-0.953,1.557-1.789,2.508-2.509
	C107.784,28.01,106.948,28.846,105.995,29.565z"/>
<path fill-rule="evenodd" clip-rule="evenodd" fill="#313131" d="M109.619,26.221c0.949-1.373,2.394-2.25,3.344-3.623
	c0.094,0,0.186,0,0.28,0c0.903,1.138,1.927,2.16,3.065,3.066c0.082,0.568,0.753,0.546,0.835,1.114
	c-1.416-1.184-2.717-2.485-3.9-3.902C111.869,23.826,110.991,25.271,109.619,26.221z"/>
<path fill-rule="evenodd" clip-rule="evenodd" fill="#727272" d="M117.144,26.778c1.789,1.556,3.462,3.229,5.017,5.017
	c-1.324-1.091-2.532-2.298-3.622-3.623c-1.326-0.014-1.496,2.264-2.787,1.394C114.88,28.274,117.16,28.104,117.144,26.778z"/>
<path fill-rule="evenodd" clip-rule="evenodd" fill="#A9A9A9" d="M122.16,31.795c1.697,1.463,3.275,3.043,4.738,4.738
	C125.203,35.07,123.625,33.49,122.16,31.795z"/>
<path fill-rule="evenodd" clip-rule="evenodd" fill="#313131" d="M127.457,37.369c0.912,0.48,1.316,1.471,2.228,1.951
	c0.055,0.226,0.281,0.277,0.281,0.559C129.012,39.158,128.177,38.323,127.457,37.369z"/>
<path fill-rule="evenodd" clip-rule="evenodd" fill="#313131" d="M133.03,39.879c0.628-0.862,1.369-1.604,2.23-2.23
	C134.634,38.508,133.891,39.251,133.03,39.879z"/>
<path fill-rule="evenodd" clip-rule="evenodd" fill="#727272" d="M135.261,37.648c0.25-0.491,0.623-0.863,1.113-1.115
	C136.124,37.024,135.751,37.396,135.261,37.648z"/>
<path fill-rule="evenodd" clip-rule="evenodd" fill="#313131" d="M136.374,33.468c-0.49-0.253-0.863-0.624-1.113-1.115
	C135.751,32.604,136.124,32.976,136.374,33.468z"/>
<path fill-rule="evenodd" clip-rule="evenodd" fill="#727272" d="M134.145,31.238c0.493,0.252,0.863,0.624,1.116,1.115
	C134.77,32.101,134.397,31.729,134.145,31.238z"/>
<path fill-rule="evenodd" clip-rule="evenodd" fill="#313131" d="M133.03,29.844c-0.366-0.099-0.438-0.491-0.835-0.558
	c-0.054-0.226-0.28-0.277-0.28-0.557C132.407,28.981,132.778,29.353,133.03,29.844z"/>
<path fill-rule="evenodd" clip-rule="evenodd" fill="#727272" d="M130.801,27.615c0.491,0.251,0.863,0.624,1.114,1.115
	C131.424,28.478,131.054,28.106,130.801,27.615z"/>
<path fill-rule="evenodd" clip-rule="evenodd" fill="#727272" d="M123.833,22.319c0.491,0.251,0.863,0.624,1.116,1.115
	C124.456,23.182,124.086,22.811,123.833,22.319z"/>
<path fill-rule="evenodd" clip-rule="evenodd" fill="#313131" d="M117.981,17.859c-0.493-0.252-0.864-0.623-1.116-1.115
	c0.657,0.086,0.519,0.968,1.395,0.836C118.31,17.818,118.149,17.844,117.981,17.859z"/>
<path fill-rule="evenodd" clip-rule="evenodd" fill="#FFFFFF" d="M109.341,1.973c0.278,0,0.557,0,0.835,0
	c0.128,0.644,0.876,0.753,1.395,1.394c0.375,0.461,0.461,1.173,0.835,1.672c0.862,1.146,2.132,1.959,2.23,3.066
	c0.082,0.919-0.112,1.685-0.836,2.508c0.842,2.223,1.731,4.4,3.065,6.131c0.252,0.492,0.623,0.863,1.116,1.115
	c0.38,0.64,1.147,0.896,1.671,1.394c1.761,0.656,2.828,2.002,4.181,3.066c0.253,0.491,0.623,0.863,1.116,1.115
	c0.551,1.306,2.946,0.767,3.622,1.951c0.347,0.583,0.812,1.047,1.395,1.394c0.4,0.156,0.679,0.435,0.835,0.836
	c0.253,0.491,0.623,0.863,1.114,1.115c0,0.28,0.227,0.332,0.28,0.557c0.25,0.492,0.623,0.863,1.114,1.115
	c0.402,0.156,0.681,0.435,0.835,0.836c0.253,0.492,0.625,0.863,1.116,1.115c0.25,0.491,0.623,0.862,1.113,1.115
	c0.148,0.224,0.291,0.452,0.278,0.835c0,0.559,0,1.116,0,1.673c0.047,0.324-0.06,0.496-0.278,0.558
	c-0.49,0.252-0.863,0.624-1.113,1.115c-0.861,0.626-1.603,1.368-2.23,2.23c-0.224,0.146-0.452,0.289-0.835,0.278
	c-0.465,0-0.93,0-1.395,0c-0.45,0.078-0.479-0.264-0.835-0.278c0-0.281-0.227-0.333-0.281-0.559
	c-0.811-1.046-1.74-1.974-2.786-2.787c-1.463-1.695-3.041-3.275-4.738-4.738c-1.555-1.788-3.228-3.46-5.017-5.017
	c-0.082-0.568-0.753-0.546-0.835-1.114c-0.906-1.139-1.928-2.161-3.065-3.066c-0.095,0-0.187,0-0.28,0
	c-1.604,1.37-3.09,2.856-4.46,4.458c-0.951,0.72-1.787,1.556-2.508,2.509c-0.163,0.599-2.07,0.877-2.509,0.279
	c-0.463-0.559-0.747-1.295-1.671-1.394c-1.504,0.169-2.772,0.573-4.459,0.557c0.14,2.09,0.863,3.595,0.835,5.854
	c0,0.743,0,1.486,0,2.229c0.052,0.237-0.108,0.263-0.278,0.278c-1.974,1.742-3.833,3.601-5.573,5.574
	c-1.046,0.813-1.976,1.742-2.789,2.787c-0.066,0.397-0.459,0.471-0.557,0.836c-0.171,0.017-0.331,0.043-0.278,0.279
	c-0.682,0.156-0.594,1.078-1.673,0.836c-1.956,0.378-2.028-1.131-3.344-1.394c0.126-0.455-1.519-0.455-1.395,0
	c-1.272-0.157-1.735,0.494-3.065,0.278c-0.835,0-1.673,0-2.508,0c-0.187,0-0.373,0-0.558,0c-0.707-0.5-0.677-1.737-1.115-2.508
	c-0.994-8.667-3.308-16.016-3.623-25.363c1.356-2.544,3.398-4.405,5.017-6.689c0.188-0.648,0.926-0.746,1.114-1.394
	c0.396-0.533,0.861-0.997,1.395-1.394c0.225-0.239,0.763-0.166,0.835-0.557C84.3,7.903,88.555,6.93,93.175,6.154
	c1.467-0.247,3.1-0.136,4.46-0.558c1.14-0.354,1.981-1.254,3.065-1.672c2.384-0.918,5.311-0.665,7.524-1.951
	C108.597,1.973,108.968,1.973,109.341,1.973z M111.014,9.777c-0.299-1.041,0.69-0.795,0.557-1.672
	c-1.088-0.863-1.803-2.101-2.509-3.345c-2.239,1.013-5.246,1.257-7.805,1.951c-2.202,2.37-6.657,1.967-10.868,2.788
	c-3.258,0.634-6.693,1.608-9.198,1.672c-0.661,0.174-1.298,0.375-1.395,1.115c-0.313,0.059-0.433,0.31-0.557,0.558
	c-1.515,2.387-3.502,4.301-5.017,6.688c-0.459,0.038-0.459,1.914,0,1.951c1.174,7.559,2.65,14.817,3.622,22.576
	c1.448-0.131,2.532-0.628,4.182-0.558c0.65,0,1.302,0,1.951,0c0.646-0.089,1.069,0.045,1.395,0.279
	c0.448,0.386,0.881,0.789,1.392,1.115c0.491-0.253,0.461-1.027,1.116-1.115c0.768-0.533,1.416-1.185,1.951-1.951
	c1.603-1.37,3.09-2.857,4.458-4.46c0.583-0.346,1.048-0.811,1.395-1.394c-0.459-2.705-1.442-5.716-1.116-8.361
	c1.054-1.363,3.254-1.579,5.575-1.672c0.836,0,1.673,0,2.509,0c0.519,0.039,0.932,0.183,1.113,0.558
	c0.068,0.397,0.461,0.47,0.56,0.836c0.817-0.019,1.033-0.638,1.392-1.116c1.604-1.37,3.09-2.856,4.46-4.459
	c0.016-0.17,0.042-0.33,0.278-0.279c0.493-0.251,0.863-0.623,1.116-1.115c0.36-0.799,2.704-0.799,3.065,0
	c0.156,0.401,0.435,0.68,0.835,0.836c0.347,0.583,0.812,1.047,1.395,1.394c0.016,0.17,0.042,0.33,0.278,0.278
	c0.082,0.568,0.756,0.546,0.838,1.115c1.74,1.974,3.598,3.833,5.573,5.574c1.184,1.417,2.484,2.718,3.902,3.902
	c0.936,0.993,2.172,2.521,3.065,3.345c0.351,0.323,0.751,0.85,1.114,0.557c0.568-0.081,0.547-0.754,1.115-0.836
	c0.409-0.354,1.829-1.118,1.114-1.672c0-0.094,0-0.186,0-0.279c-0.345-0.582-0.81-1.047-1.393-1.393
	c-0.402-0.156-0.681-0.435-0.837-0.837c-0.251-0.491-0.623-0.862-1.114-1.115c0-0.279-0.227-0.332-0.278-0.558
	c-0.253-0.491-0.625-0.863-1.116-1.115c-0.25-0.491-0.623-0.863-1.114-1.115c-0.561-0.74-0.957-1.644-2.508-1.394
	c-0.89,0.239-0.861-0.438-1.395-0.557c-0.066-0.398-0.459-0.47-0.557-0.836c-0.347-0.583-0.812-1.048-1.395-1.394
	c-0.092,0-0.185,0-0.278,0c0-0.093,0-0.186,0-0.279c-0.413-0.145-0.701-0.413-1.114-0.557c-0.795-0.692-1.69-1.283-2.508-1.951
	c-0.543-0.572-1.314-0.915-1.951-1.394c-0.441-0.675-0.998-1.232-1.673-1.672c-1.671-2.045-2.839-4.593-3.622-7.525
	C111.014,10.52,111.014,10.148,111.014,9.777z"/>
<path fill-rule="evenodd" clip-rule="evenodd" fill="#313131" d="M77.566,8.105c0.402,0.156,0.682,0.435,0.838,0.836
	c0.671,0.114,0.604-0.509,1.392-0.279c-0.072,0.392-0.61,0.318-0.835,0.557C78.144,9.2,77.925,8.583,77.566,8.105z"/>
<path fill-rule="evenodd" clip-rule="evenodd" fill="#313131" d="M76.174,8.662c0.703,0.412,1.152,1.078,1.393,1.951
	c-0.188,0.647-0.926,0.746-1.114,1.394c-1.849,0.305-5.012,0.844-8.361,1.394c-2.66,0.437-5.398,1.239-6.968,0.836
	c-1.814-0.466-3.655-3.011-5.295-4.459c-0.301-0.267-0.839-0.297-1.115-0.558c-0.229-0.216-0.322-0.631-0.557-0.836
	c-1.004-0.872-2.437-1.777-3.624-2.787c-1.333-1.133-2.344-2.57-3.623-2.787c-0.653-0.111-1.757,0.376-2.787,0.558
	C30.335,5.785,16.21,7.752,2.593,10.335C4.466,20.54,5.951,31.133,7.889,41.271c14.418-2.315,28.793-4.893,43.2-7.246
	c4.775-0.779,9.6-2.051,14.493-1.672c1.657,3.485,1.581,8.993,2.787,13.378c2.165-0.437,4.389-0.814,6.689-1.115
	c0-0.185,0-0.371,0-0.557c0.438,0.771,0.408,2.008,1.115,2.508c0.185,0,0.371,0,0.558,0c0.008,0.271,0.34,0.217,0.557,0.279
	c-3.06,0.565-6.974,1.757-10.034,1.394c-1.576-0.074-1.352-1.669-1.672-2.787c-0.811-2.83-1.218-7.331-1.951-10.591
	c-9.642,1.322-19.156,3.178-28.707,4.737c-4.822,0.788-9.655,1.407-14.493,2.23c-4.673,0.795-9.387,2.277-14.214,1.951
	c-1.195-0.949-1.115-2.485-1.394-3.901C3.513,33.218,2.424,25.151,1.2,17.859c-0.485-2.89-1.5-5.805-1.115-8.64
	C0.856,7.21,3.355,7.3,5.102,6.99c12.3-2.183,25.104-4.236,37.905-6.41c0.802-0.136,3.415-0.697,4.459-0.557
	c1.595,0.213,2.431,1.525,3.901,2.787c0.268,0.229,0.793,0.274,1.116,0.558c0.679,0.594,1.764,1.591,2.508,2.229
	c2.459,2.108,4.583,4.178,6.967,6.131c4.562-1.012,9.585-1.562,14.215-2.508C76.579,9.096,76.144,8.975,76.174,8.662z"/>
<path fill-rule="evenodd" clip-rule="evenodd" fill="#727272" d="M119.652,19.253c-0.523-0.497-1.291-0.753-1.671-1.394
	c0.168-0.015,0.328-0.042,0.278-0.278c0.499-1.171,1.488-1.855,1.951-3.066c0.892,0.129,0.981,1.062,1.949,1.115
	C121.439,16.953,120.493,18.05,119.652,19.253z"/>
<path fill-rule="evenodd" clip-rule="evenodd" fill="#DCDCDC" d="M128.571,25.385c0.949-0.02,1.037,0.82,1.395,1.394
	C129.383,26.432,128.918,25.968,128.571,25.385z"/>
<path fill-rule="evenodd" clip-rule="evenodd" fill="#DCDCDC" d="M132.195,29.287c0.396,0.067,0.469,0.459,0.835,0.558
	c0.053,0.226,0.279,0.278,0.279,0.558C132.818,30.15,132.445,29.778,132.195,29.287z"/>
<path fill-rule="evenodd" clip-rule="evenodd" fill="#DCDCDC" d="M129.685,39.32c-0.911-0.48-1.315-1.471-2.228-1.951
	c-0.1-0.365-0.49-0.438-0.559-0.836C127.944,37.347,128.874,38.274,129.685,39.32z"/>
<path fill-rule="evenodd" clip-rule="evenodd" fill="#DCDCDC" d="M116.309,25.664c-1.139-0.906-2.162-1.928-3.065-3.066
	C114.381,23.503,115.402,24.525,116.309,25.664z"/>
<path fill-rule="evenodd" clip-rule="evenodd" fill="#DCDCDC" d="M108.503,27.057c1.37-1.602,2.856-3.089,4.46-4.458
	c-0.95,1.373-2.395,2.25-3.344,3.623C109.05,26.303,109.072,26.975,108.503,27.057z"/>
<path fill-rule="evenodd" clip-rule="evenodd" fill="#DCDCDC" d="M92.34,42.943c1.74-1.974,3.6-3.832,5.573-5.574
	c0,0.094,0,0.187,0,0.279c-1.695,1.463-3.275,3.042-4.738,4.738C92.809,42.485,92.736,42.877,92.34,42.943z"/>
<path fill-rule="evenodd" clip-rule="evenodd" fill="#A9A9A9" d="M87.88,43.501c0.821-0.385,1.128-1.287,1.951-1.672
	c-0.535,0.767-1.184,1.418-1.951,1.951C87.88,43.687,87.88,43.594,87.88,43.501z"/>
<path fill-rule="evenodd" clip-rule="evenodd" fill="#727272" d="M89.831,41.829c1.368-1.603,2.855-3.09,4.458-4.46
	C92.921,38.972,91.434,40.459,89.831,41.829z"/>
<path fill-rule="evenodd" clip-rule="evenodd" fill="#313131" d="M94.289,37.369c0.347-0.583,0.812-1.048,1.395-1.394
	C95.337,36.559,94.872,37.023,94.289,37.369z"/>
<path fill-rule="evenodd" clip-rule="evenodd" fill="#A9A9A9" d="M103.765,26.5c0.556,0.003,0.354,0.76,1.116,0.557
	c0.156-0.4,0.435-0.68,0.835-0.836c-0.358,0.478-0.574,1.097-1.392,1.116C104.226,26.97,103.833,26.897,103.765,26.5z"/>
<path fill-rule="evenodd" clip-rule="evenodd" fill="#727272" d="M105.716,26.221c1.371-1.603,2.857-3.089,4.46-4.459
	C108.806,23.364,107.319,24.851,105.716,26.221z"/>
<path fill-rule="evenodd" clip-rule="evenodd" fill="#727272" d="M110.454,21.483c0.253-0.492,0.623-0.863,1.116-1.115
	C111.317,20.86,110.947,21.231,110.454,21.483z"/>
<path fill-rule="evenodd" clip-rule="evenodd" fill="#A9A9A9" d="M115.471,21.204c0.583,0.346,1.048,0.811,1.395,1.394
	C116.282,22.251,115.817,21.787,115.471,21.204z"/>
<path fill-rule="evenodd" clip-rule="evenodd" fill="#DCDCDC" d="M117.981,23.991c0.646,0.188,0.745,0.926,1.392,1.115
	c0.156,0.401,0.436,0.68,0.838,0.836c0.625,0.86,1.368,1.603,2.229,2.229c0.188,0.648,0.926,0.746,1.114,1.394
	C121.579,27.824,119.722,25.965,117.981,23.991z"/>
<path fill-rule="evenodd" clip-rule="evenodd" fill="#A9A9A9" d="M123.555,29.565c1.416,1.185,2.717,2.485,3.902,3.902
	C126.039,32.283,124.738,30.983,123.555,29.565z"/>
<path fill-rule="evenodd" clip-rule="evenodd" fill="#727272" d="M127.457,33.468c1.557,1.136,2.623,2.766,4.18,3.901
	c-0.363,0.293-0.764-0.233-1.114-0.557C129.629,35.989,128.393,34.461,127.457,33.468z"/>
<path fill-rule="evenodd" clip-rule="evenodd" fill="#DCDCDC" d="M132.752,36.533c0.188-0.647,0.926-0.746,1.114-1.394
	c0-0.093,0-0.186,0-0.278C134.581,35.415,133.161,36.18,132.752,36.533z"/>
<path fill-rule="evenodd" clip-rule="evenodd" fill="#DCDCDC" d="M133.866,34.582c-0.647-0.188-0.745-0.926-1.393-1.114
	c0-0.094,0-0.187,0-0.278C133.057,33.535,133.521,34,133.866,34.582z"/>
<path fill-rule="evenodd" clip-rule="evenodd" fill="#727272" d="M130.522,31.238c0.491,0.252,0.863,0.624,1.114,1.115
	C131.146,32.101,130.772,31.729,130.522,31.238z"/>
<path fill-rule="evenodd" clip-rule="evenodd" fill="#DCDCDC" d="M130.244,30.68c-0.569-0.082-0.547-0.753-1.116-0.836
	c0-0.093,0-0.186,0-0.279C129.619,29.817,129.991,30.189,130.244,30.68z"/>
<path fill-rule="evenodd" clip-rule="evenodd" fill="#A9A9A9" d="M128.014,28.451c0.491,0.252,0.864,0.624,1.114,1.115
	C128.638,29.314,128.265,28.942,128.014,28.451z"/>
<path fill-rule="evenodd" clip-rule="evenodd" fill="#727272" d="M125.506,27.057c1.551-0.25,1.947,0.654,2.508,1.394
	C127.397,27.766,126.514,27.351,125.506,27.057z"/>
<path fill-rule="evenodd" clip-rule="evenodd" fill="#DCDCDC" d="M123.555,25.664c-0.583-0.346-1.048-0.811-1.395-1.394
	C122.743,24.616,123.208,25.081,123.555,25.664z"/>
<path fill-rule="evenodd" clip-rule="evenodd" fill="#727272" d="M120.768,23.434c0.413,0.145,0.701,0.412,1.114,0.557
	c0,0.093,0,0.186,0,0.279c-0.066,0.397-0.459,0.47-0.557,0.836c-0.399,0.066-0.472,0.458-0.836,0.558c0,0.092,0,0.186,0,0.278
	c-0.094,0-0.187,0-0.278,0c-0.402-0.156-0.682-0.435-0.838-0.836c0-0.093,0-0.186,0-0.279c0.095,0,0.187,0,0.279,0
	C119.84,24.18,120.579,24.081,120.768,23.434z"/>
<path fill-rule="evenodd" clip-rule="evenodd" fill="#313131" d="M114.636,18.417c0.675,0.44,1.231,0.997,1.673,1.672
	C115.633,19.649,115.076,19.092,114.636,18.417z"/>
<path fill-rule="evenodd" clip-rule="evenodd" fill="#313131" d="M85.093,42.665c0.354,0.947,1.545,1.056,1.671,2.23
	c-0.511-0.326-0.943-0.729-1.392-1.115C86.319,43.591,84.144,42.854,85.093,42.665z"/>
<path fill-rule="evenodd" clip-rule="evenodd" fill="#313131" d="M79.239,12.843c0.124-0.248,0.244-0.499,0.557-0.558
	c0.289,0.733,1.106,0.938,1.395,1.672c-0.733-0.288-0.939-1.105-1.673-1.394C79.502,12.734,79.476,12.894,79.239,12.843z"/>
<path fill-rule="evenodd" clip-rule="evenodd" fill="#313131" d="M80.912,11.728c0.467,0.386,1.85,1.287,1.393,1.673
	C82.016,12.667,81.2,12.461,80.912,11.728z"/>
<path fill-rule="evenodd" clip-rule="evenodd" fill="#313131" d="M121.325,25.106c0.098-0.366,0.49-0.439,0.557-0.836
	c0.094,0,0.187,0,0.278,0c0.347,0.583,0.812,1.048,1.395,1.394c0.098,0.366,0.49,0.438,0.557,0.836
	C123.016,26.132,122.421,23.813,121.325,25.106z"/>
<path fill-rule="evenodd" clip-rule="evenodd" fill="#313131" d="M129.128,29.844c0.569,0.083,0.547,0.754,1.116,0.836
	c0.052,0.226,0.278,0.278,0.278,0.558C129.939,30.892,129.475,30.427,129.128,29.844z"/>
<path fill-rule="evenodd" clip-rule="evenodd" fill="#313131" d="M132.474,33.468c0.647,0.188,0.745,0.926,1.393,1.114
	c0,0.094,0,0.186,0,0.279C133.283,34.516,132.818,34.051,132.474,33.468z"/>
<path fill-rule="evenodd" clip-rule="evenodd" fill="#313131" d="M131.637,37.369c0.627-0.86,1.37-1.603,2.229-2.229
	c-0.188,0.647-0.926,0.746-1.114,1.394C132.184,36.615,132.205,37.288,131.637,37.369z"/>
<path fill-rule="evenodd" clip-rule="evenodd" fill="#313131" d="M122.44,28.172c-0.861-0.626-1.604-1.37-2.229-2.229
	c0.092,0,0.185,0,0.278,0C120.968,26.855,121.96,27.259,122.44,28.172z"/>
<path fill-rule="evenodd" clip-rule="evenodd" fill="#727272" d="M77.566,10.613c-0.24-0.873-0.689-1.539-1.393-1.951
	c0.051-0.237-0.11-0.263-0.278-0.279c0.082-0.568,0.753-0.546,0.836-1.114c0.4,0.155,0.679,0.434,0.835,0.836
	c0.358,0.478,0.577,1.095,1.395,1.114C78.428,9.616,77.963,10.081,77.566,10.613z"/>
<path fill-rule="evenodd" clip-rule="evenodd" fill="#727272" d="M79.796,12.286c0.097-0.74,0.733-0.94,1.395-1.115
	c0,0.279-0.227,0.332-0.278,0.557c0.288,0.734,1.104,0.939,1.393,1.673c-0.066,0.398-0.459,0.47-0.558,0.836
	c-0.216-0.062-0.549-0.007-0.557-0.279C80.902,13.224,80.085,13.019,79.796,12.286z"/>
<path fill-rule="evenodd" clip-rule="evenodd" fill="#727272" d="M116.309,20.089c0.637,0.479,1.408,0.822,1.951,1.394
	c-0.633,0.203-0.836,0.839-1.116,1.394c-0.236,0.051-0.263-0.108-0.278-0.278c-0.347-0.583-0.812-1.048-1.395-1.394
	c-0.4-0.156-0.679-0.435-0.835-0.836c0.492,0.245,0.813,0.884,1.394,0.279C116.027,20.367,116.254,20.315,116.309,20.089z"/>
<path fill-rule="evenodd" clip-rule="evenodd" fill="#727272" d="M130.801,40.157c0.465,0,0.93,0,1.395,0
	C132.319,40.611,130.675,40.611,130.801,40.157z"/>
<path fill-rule="evenodd" clip-rule="evenodd" fill="#727272" d="M86.764,44.896c-0.126-1.175-1.317-1.283-1.671-2.23
	c0.154-0.401,0.434-0.68,0.836-0.836c0.821,0.385,1.128,1.287,1.951,1.672c0,0.093,0,0.186,0,0.279
	C87.225,43.868,87.255,44.643,86.764,44.896z"/>
<path fill-rule="evenodd" clip-rule="evenodd" fill="#DCDCDC" d="M76.731,46.566c0.835,0,1.673,0,2.508,0
	c-0.12,0.623-1.374,0.113-1.951,0.279C77.071,46.783,76.739,46.838,76.731,46.566z"/>
<path fill-rule="evenodd" clip-rule="evenodd" fill="#727272" d="M74.223,19.532c0,0.65,0,1.301,0,1.951
	C73.764,21.445,73.764,19.569,74.223,19.532z"/>
<path fill-rule="evenodd" clip-rule="evenodd" fill="#A9A9A9" d="M98.191,34.861c0.461,0.124,0.461,2.105,0,2.229
	C98.191,36.348,98.191,35.604,98.191,34.861z"/>
<path fill-rule="evenodd" clip-rule="evenodd" fill="#727272" d="M100.143,25.942c0.211-0.461,2.296-0.461,2.509,0
	C101.815,25.942,100.979,25.942,100.143,25.942z"/>
<path fill-rule="evenodd" clip-rule="evenodd" fill="#727272" d="M136.652,34.303c0.459-0.045,0.459,1.719,0,1.673
	C136.652,35.419,136.652,34.861,136.652,34.303z"/>
</svg>
