<?xml version="1.0" encoding="utf-8"?>
<!-- Generator: Adobe Illustrator 15.0.0, SVG Export Plug-In  -->
<!DOCTYPE svg PUBLIC "-//W3C//DTD SVG 1.1//EN" "http://www.w3.org/Graphics/SVG/1.1/DTD/svg11.dtd" [
	<!ENTITY ns_flows "http://ns.adobe.com/Flows/1.0/">
]>
<svg version="1.1"
	 xmlns="http://www.w3.org/2000/svg" xmlns:xlink="http://www.w3.org/1999/xlink" xmlns:a="http://ns.adobe.com/AdobeSVGViewerExtensions/3.0/"
	 x="0px" y="0px" width="142px" height="142px" viewBox="-2.767 -40.571 142 142" enable-background="new -2.767 -40.571 142 142"
	 xml:space="preserve">
<defs>
</defs>
<path fill-rule="evenodd" clip-rule="evenodd" fill="#181818" d="M39.318,1.358c0.087-0.378,0.698-0.231,1.115-0.278
	C40.381,1.492,39.76,1.335,39.318,1.358z"/>
<path fill-rule="evenodd" clip-rule="evenodd" fill="#181818" d="M34.301,2.194c0.086-0.378,0.698-0.231,1.115-0.279
	C35.365,2.328,34.743,2.171,34.301,2.194z"/>
<path fill-rule="evenodd" clip-rule="evenodd" fill="#181818" d="M32.629,2.473c0.086-0.378,0.697-0.231,1.115-0.279
	C33.692,2.606,33.071,2.45,32.629,2.473z"/>
<path fill-rule="evenodd" clip-rule="evenodd" fill="#181818" d="M30.957,2.752c0.087-0.379,0.698-0.231,1.115-0.279
	C32.02,2.886,31.398,2.729,30.957,2.752z"/>
<path fill-rule="evenodd" clip-rule="evenodd" fill="#181818" d="M29.284,3.03c0.087-0.378,0.698-0.231,1.116-0.278
	C30.348,3.165,29.726,3.007,29.284,3.03z"/>
<path fill-rule="evenodd" clip-rule="evenodd" fill="#181818" d="M27.612,3.31c0.086-0.379,0.698-0.231,1.115-0.279
	C28.675,3.443,28.054,3.286,27.612,3.31z"/>
<path fill-rule="evenodd" clip-rule="evenodd" fill="#181818" d="M25.94,3.588c0.086-0.378,0.697-0.231,1.115-0.278
	C27.003,3.722,26.381,3.564,25.94,3.588z"/>
<path fill-rule="evenodd" clip-rule="evenodd" fill="#181818" d="M24.268,3.866c0.086-0.378,0.697-0.231,1.115-0.278
	C25.331,4,24.709,3.844,24.268,3.866z"/>
<path fill-rule="evenodd" clip-rule="evenodd" fill="#181818" d="M22.596,4.146c0.086-0.379,0.698-0.231,1.115-0.279
	C23.659,4.279,23.037,4.122,22.596,4.146z"/>
<path fill-rule="evenodd" clip-rule="evenodd" fill="#181818" d="M20.923,4.424c0.086-0.378,0.698-0.231,1.115-0.278
	C21.986,4.558,21.364,4.401,20.923,4.424z"/>
<path fill-rule="evenodd" clip-rule="evenodd" fill="#181818" d="M19.251,4.703c0.086-0.378,0.698-0.231,1.115-0.279
	C20.314,4.836,19.692,4.68,19.251,4.703z"/>
<path fill-rule="evenodd" clip-rule="evenodd" fill="#181818" d="M92.832,6.375c0.086-0.378,0.697-0.231,1.113-0.279
	C93.893,6.509,93.272,6.352,92.832,6.375z"/>
<path fill-rule="evenodd" clip-rule="evenodd" fill="#181818" d="M5.873,6.932c0.086-0.378,0.698-0.231,1.114-0.279
	C6.936,7.066,6.314,6.909,5.873,6.932z"/>
<path fill-rule="evenodd" clip-rule="evenodd" fill="#181818" d="M19.251,7.49c0.052-0.413,0.673-0.256,1.115-0.278
	C20.314,7.624,19.692,7.466,19.251,7.49z"/>
<path fill-rule="evenodd" clip-rule="evenodd" fill="#181818" d="M15.907,8.047c0.051-0.413,0.673-0.256,1.115-0.279
	C16.969,8.182,16.348,8.024,15.907,8.047z"/>
<path fill-rule="evenodd" clip-rule="evenodd" fill="#181818" d="M14.234,8.326c0.052-0.413,0.673-0.256,1.115-0.278
	C15.297,8.46,14.676,8.303,14.234,8.326z"/>
<path fill-rule="evenodd" clip-rule="evenodd" fill="#181818" d="M12.562,8.604c0.052-0.413,0.674-0.255,1.115-0.279
	C13.625,8.739,13.003,8.582,12.562,8.604z"/>
<path fill-rule="evenodd" clip-rule="evenodd" fill="#181818" d="M80.288,8.604c0.089-0.378,0.699-0.231,1.116-0.279
	C81.352,8.739,80.729,8.582,80.288,8.604z"/>
<path fill-rule="evenodd" clip-rule="evenodd" fill="#181818" d="M10.89,8.883c0.052-0.413,0.674-0.255,1.115-0.279
	C11.953,9.018,11.331,8.86,10.89,8.883z"/>
<path fill-rule="evenodd" clip-rule="evenodd" fill="#181818" d="M78.618,8.883c0.086-0.378,0.696-0.231,1.113-0.279
	C79.679,9.018,79.058,8.86,78.618,8.883z"/>
<path fill-rule="evenodd" clip-rule="evenodd" fill="#181818" d="M94.502,8.883c-0.046-0.604,0.989-0.126,1.395-0.279
	c-0.017,0.17-0.042,0.33-0.279,0.279C95.248,8.883,94.875,8.883,94.502,8.883z"/>
<path fill-rule="evenodd" clip-rule="evenodd" fill="#181818" d="M9.217,9.162c0.052-0.413,0.674-0.255,1.115-0.278
	C10.281,9.296,9.659,9.139,9.217,9.162z"/>
<path fill-rule="evenodd" clip-rule="evenodd" fill="#181818" d="M76.945,9.162c0.086-0.378,0.696-0.231,1.113-0.278
	C78.008,9.296,77.385,9.139,76.945,9.162z"/>
<path fill-rule="evenodd" clip-rule="evenodd" fill="#181818" d="M7.545,9.441C7.597,9.028,8.219,9.186,8.66,9.162
	C8.608,9.575,7.987,9.417,7.545,9.441z"/>
<path fill-rule="evenodd" clip-rule="evenodd" fill="#181818" d="M75.272,9.441c0.086-0.379,0.696-0.231,1.115-0.279
	C76.335,9.575,75.712,9.417,75.272,9.441z"/>
<path fill-rule="evenodd" clip-rule="evenodd" fill="#181818" d="M5.873,9.72c0.052-0.413,0.673-0.256,1.114-0.279
	C6.936,9.854,6.314,9.696,5.873,9.72z"/>
<path fill-rule="evenodd" clip-rule="evenodd" fill="#181818" d="M73.601,9.72c0.086-0.378,0.697-0.231,1.113-0.279
	C74.663,9.854,74.042,9.696,73.601,9.72z"/>
<path fill-rule="evenodd" clip-rule="evenodd" fill="#181818" d="M4.201,9.998C4.252,9.585,4.874,9.742,5.315,9.72
	C5.264,10.132,4.642,9.975,4.201,9.998z"/>
<path fill-rule="evenodd" clip-rule="evenodd" fill="#181818" d="M71.928,9.998c0.086-0.378,0.697-0.231,1.113-0.278
	C72.99,10.132,72.369,9.975,71.928,9.998z"/>
<path fill-rule="evenodd" clip-rule="evenodd" fill="#181818" d="M70.255,10.277c0.086-0.379,0.697-0.231,1.115-0.279
	C71.319,10.411,70.696,10.253,70.255,10.277z"/>
<path fill-rule="evenodd" clip-rule="evenodd" fill="#181818" d="M0.02,10.277c0.413,0.051,0.255,0.673,0.279,1.114
	C-0.08,11.306,0.067,10.694,0.02,10.277z"/>
<path fill-rule="evenodd" clip-rule="evenodd" fill="#181818" d="M68.583,10.556c0.086-0.378,0.698-0.231,1.115-0.278
	C69.645,10.69,69.024,10.532,68.583,10.556z"/>
<path fill-rule="evenodd" clip-rule="evenodd" fill="#181818" d="M66.91,10.834c0.087-0.378,0.698-0.231,1.116-0.278
	C67.974,10.968,67.352,10.811,66.91,10.834z"/>
<path fill-rule="evenodd" clip-rule="evenodd" fill="#181818" d="M65.238,11.113c0.086-0.379,0.698-0.231,1.115-0.279
	C66.301,11.248,65.68,11.089,65.238,11.113z"/>
<path fill-rule="evenodd" clip-rule="evenodd" fill="#181818" d="M61.894,11.392c0.372,0,0.743,0,1.115,0
	C63.208,11.844,61.694,11.844,61.894,11.392z"/>
<path fill-rule="evenodd" clip-rule="evenodd" fill="#181818" d="M0.299,11.949C0.711,12,0.554,12.623,0.577,13.064
	C0.199,12.978,0.346,12.366,0.299,11.949z"/>
<path fill-rule="evenodd" clip-rule="evenodd" fill="#181818" d="M0.577,13.622c0.413,0.051,0.256,0.673,0.279,1.115
	C0.478,14.65,0.625,14.039,0.577,13.622z"/>
<path fill-rule="evenodd" clip-rule="evenodd" fill="#181818" d="M61.336,14.179c0.558,0,1.115,0,1.672,0
	C63.055,14.637,61.291,14.637,61.336,14.179z"/>
<path fill-rule="evenodd" clip-rule="evenodd" fill="#181818" d="M0.856,15.294c0.413,0.051,0.256,0.673,0.279,1.115
	C0.756,16.322,0.904,15.71,0.856,15.294z"/>
<path fill-rule="evenodd" clip-rule="evenodd" fill="#181818" d="M1.135,16.965c0.413,0.052,0.255,0.674,0.278,1.116
	C1.035,17.995,1.182,17.383,1.135,16.965z"/>
<path fill-rule="evenodd" clip-rule="evenodd" fill="#181818" d="M1.414,18.638c0.413,0.052,0.255,0.673,0.278,1.115
	C1.314,19.667,1.461,19.055,1.414,18.638z"/>
<path fill-rule="evenodd" clip-rule="evenodd" fill="#181818" d="M4.479,20.311c0.413,0.052,0.256,0.673,0.279,1.115
	C4.346,21.374,4.503,20.752,4.479,20.311z"/>
<path fill-rule="evenodd" clip-rule="evenodd" fill="#181818" d="M1.971,21.982c0.413,0.052,0.255,0.674,0.279,1.115
	C1.871,23.011,2.019,22.4,1.971,21.982z"/>
<path fill-rule="evenodd" clip-rule="evenodd" fill="#181818" d="M4.758,21.982c0.413,0.052,0.255,0.674,0.278,1.115
	C4.624,23.046,4.781,22.424,4.758,21.982z"/>
<path fill-rule="evenodd" clip-rule="evenodd" fill="#181818" d="M2.25,23.655c0.412,0.052,0.255,0.674,0.278,1.115
	C2.15,24.684,2.297,24.072,2.25,23.655z"/>
<path fill-rule="evenodd" clip-rule="evenodd" fill="#BCBCBC" d="M94.224,25.327c-0.413-0.051-0.255-0.673-0.279-1.115
	C94.358,24.264,94.202,24.886,94.224,25.327z"/>
<path fill-rule="evenodd" clip-rule="evenodd" fill="#767676" d="M114.849,24.212c0.49,0.252,0.863,0.624,1.115,1.115
	c-0.823,0.385-1.13,1.287-1.951,1.672c-0.398-0.066-0.471-0.458-0.837-0.557C113.304,25.268,114.495,25.159,114.849,24.212z"/>
<path fill-rule="evenodd" clip-rule="evenodd" fill="#767676" d="M127.949,24.77c0.093,0,0.187,0,0.278,0
	c-0.048,0.417,0.101,1.028-0.278,1.115C127.949,25.513,127.949,25.142,127.949,24.77z"/>
<path fill-rule="evenodd" clip-rule="evenodd" fill="#181818" d="M5.315,25.327c0.413,0.052,0.256,0.674,0.279,1.115
	C5.182,26.39,5.339,25.769,5.315,25.327z"/>
<path fill-rule="evenodd" clip-rule="evenodd" fill="#181818" d="M5.594,26.999c0.413,0.052,0.255,0.674,0.279,1.115
	C5.46,28.063,5.617,27.441,5.594,26.999z"/>
<path fill-rule="evenodd" clip-rule="evenodd" fill="#181818" d="M3.086,28.672c0.413,0.052,0.255,0.673,0.278,1.115
	C2.986,29.701,3.133,29.089,3.086,28.672z"/>
<path fill-rule="evenodd" clip-rule="evenodd" fill="#181818" d="M5.873,28.672c0.413,0.052,0.255,0.673,0.278,1.115
	C5.739,29.735,5.896,29.113,5.873,28.672z"/>
<path fill-rule="evenodd" clip-rule="evenodd" fill="#767676" d="M95.897,28.95c0.465,0,0.93,0,1.394,0
	C97.416,29.406,95.77,29.406,95.897,28.95z"/>
<path fill-rule="evenodd" clip-rule="evenodd" fill="#181818" d="M6.151,30.344c0.413,0.052,0.256,0.673,0.279,1.115
	C6.018,31.407,6.175,30.786,6.151,30.344z"/>
<path fill-rule="evenodd" clip-rule="evenodd" fill="#767676" d="M123.211,30.623c0.124,0.456-1.521,0.456-1.395,0
	C122.282,30.623,122.747,30.623,123.211,30.623z"/>
<path fill-rule="evenodd" clip-rule="evenodd" fill="#181818" d="M63.566,32.017c-0.199-0.453,1.314-0.453,1.115,0
	C64.31,32.017,63.938,32.017,63.566,32.017z"/>
<path fill-rule="evenodd" clip-rule="evenodd" fill="#181818" d="M6.431,32.017c0.413,0.051,0.255,0.673,0.278,1.115
	C6.296,33.079,6.454,32.457,6.431,32.017z"/>
<path fill-rule="evenodd" clip-rule="evenodd" fill="#181818" d="M66.632,34.804c0.413,0.052,0.255,0.673,0.278,1.114
	C66.498,35.866,66.655,35.244,66.632,34.804z"/>
<path fill-rule="evenodd" clip-rule="evenodd" fill="#181818" d="M38.482,36.196c0.052-0.411,0.674-0.255,1.115-0.278
	C39.545,36.331,38.923,36.174,38.482,36.196z"/>
<path fill-rule="evenodd" clip-rule="evenodd" fill="#181818" d="M36.81,36.476c0.052-0.412,0.674-0.256,1.116-0.279
	C37.873,36.609,37.251,36.453,36.81,36.476z"/>
<path fill-rule="evenodd" clip-rule="evenodd" fill="#181818" d="M35.138,36.755c0.051-0.413,0.673-0.256,1.115-0.279
	C36.201,36.889,35.579,36.731,35.138,36.755z"/>
<path fill-rule="evenodd" clip-rule="evenodd" fill="#181818" d="M66.91,36.476c0.414,0.052,0.255,0.674,0.279,1.115
	C66.776,37.539,66.934,36.917,66.91,36.476z"/>
<path fill-rule="evenodd" clip-rule="evenodd" fill="#181818" d="M33.465,37.033c0.052-0.413,0.673-0.256,1.115-0.278
	C34.528,37.167,33.907,37.01,33.465,37.033z"/>
<path fill-rule="evenodd" clip-rule="evenodd" fill="#181818" d="M31.793,37.312c0.052-0.412,0.674-0.255,1.115-0.278
	C32.856,37.446,32.234,37.289,31.793,37.312z"/>
<path fill-rule="evenodd" clip-rule="evenodd" fill="#181818" d="M30.121,37.591c0.052-0.413,0.674-0.256,1.115-0.279
	C31.184,37.725,30.562,37.567,30.121,37.591z"/>
<path fill-rule="evenodd" clip-rule="evenodd" fill="#181818" d="M28.448,37.869c0.052-0.412,0.674-0.256,1.115-0.278
	C29.511,38.003,28.89,37.847,28.448,37.869z"/>
<path fill-rule="evenodd" clip-rule="evenodd" fill="#181818" d="M41.827,38.427c0.052-0.413,0.674-0.256,1.115-0.278
	C42.855,38.526,42.244,38.38,41.827,38.427z"/>
<path fill-rule="evenodd" clip-rule="evenodd" fill="#181818" d="M40.154,38.705c0.052-0.412,0.674-0.256,1.115-0.278
	C41.183,38.806,40.571,38.658,40.154,38.705z"/>
<path fill-rule="evenodd" clip-rule="evenodd" fill="#181818" d="M38.482,38.984c0.052-0.413,0.674-0.255,1.115-0.279
	C39.511,39.084,38.899,38.937,38.482,38.984z"/>
<path fill-rule="evenodd" clip-rule="evenodd" fill="#181818" d="M26.776,40.935c0.052-0.412,0.674-0.255,1.115-0.278
	C27.805,41.035,27.193,40.888,26.776,40.935z"/>
<path fill-rule="evenodd" clip-rule="evenodd" fill="#181818" d="M25.104,41.213c0.052-0.411,0.673-0.254,1.115-0.278
	C26.132,41.313,25.521,41.166,25.104,41.213z"/>
<path fill-rule="evenodd" clip-rule="evenodd" fill="#181818" d="M23.432,41.493c0.051-0.413,0.673-0.256,1.115-0.28
	C24.46,41.592,23.849,41.444,23.432,41.493z"/>
<path fill-rule="evenodd" clip-rule="evenodd" fill="#181818" d="M21.76,41.771c0.051-0.413,0.673-0.256,1.114-0.278
	C22.788,41.87,22.176,41.725,21.76,41.771z"/>
<path fill-rule="evenodd" clip-rule="evenodd" fill="#181818" d="M20.087,42.05c0.051-0.413,0.673-0.256,1.115-0.278
	C21.116,42.149,20.504,42.003,20.087,42.05z"/>
<path fill-rule="evenodd" clip-rule="evenodd" fill="#181818" d="M18.415,42.329c0.051-0.413,0.673-0.257,1.115-0.279
	C19.444,42.429,18.832,42.281,18.415,42.329z"/>
<path fill-rule="evenodd" clip-rule="evenodd" fill="#181818" d="M16.743,42.607c0.051-0.412,0.673-0.255,1.115-0.278
	C17.771,42.707,17.16,42.56,16.743,42.607z"/>
<path fill-rule="evenodd" clip-rule="evenodd" fill="#181818" d="M15.07,42.886c0.052-0.412,0.673-0.255,1.115-0.278
	C16.099,42.986,15.487,42.839,15.07,42.886z"/>
<path fill-rule="evenodd" clip-rule="evenodd" fill="#181818" d="M13.398,43.165c0.052-0.413,0.673-0.256,1.115-0.279
	C14.427,43.265,13.815,43.117,13.398,43.165z"/>
<path fill-rule="evenodd" clip-rule="evenodd" fill="#181818" d="M11.726,43.443c0.052-0.413,0.674-0.255,1.115-0.278
	C12.754,43.543,12.143,43.396,11.726,43.443z"/>
<path fill-rule="evenodd" clip-rule="evenodd" fill="#181818" d="M82.24,43.443c0.038-0.459,1.913-0.459,1.951,0
	C83.542,43.443,82.89,43.443,82.24,43.443z"/>
<path fill-rule="evenodd" clip-rule="evenodd" fill="#181818" d="M8.381,44.001c0.052-0.413,0.673-0.256,1.115-0.278
	C9.41,44.101,8.798,43.953,8.381,44.001z"/>
<path fill-rule="evenodd" clip-rule="evenodd" fill="#181818" d="M78.618,44.001c0.05-0.413,0.673-0.256,1.113-0.278
	C79.679,44.135,79.058,43.978,78.618,44.001z"/>
<path fill-rule="evenodd" clip-rule="evenodd" fill="#181818" d="M76.945,44.279c0.052-0.412,0.673-0.255,1.113-0.278
	C78.008,44.414,77.385,44.257,76.945,44.279z"/>
<path fill-rule="evenodd" clip-rule="evenodd" fill="#181818" d="M75.272,44.558c0.052-0.411,0.673-0.255,1.115-0.278
	C76.335,44.692,75.712,44.535,75.272,44.558z"/>
<path fill-rule="evenodd" clip-rule="evenodd" fill="#181818" d="M73.601,44.838c0.05-0.413,0.673-0.257,1.113-0.28
	C74.663,44.971,74.042,44.814,73.601,44.838z"/>
<path fill-rule="evenodd" clip-rule="evenodd" fill="#181818" d="M71.928,45.116c0.052-0.413,0.673-0.256,1.113-0.278
	C72.99,45.25,72.369,45.093,71.928,45.116z"/>
<path fill-rule="evenodd" clip-rule="evenodd" fill="#181818" d="M70.255,45.395c0.051-0.413,0.673-0.256,1.115-0.278
	C71.319,45.528,70.696,45.371,70.255,45.395z"/>
<path fill-rule="evenodd" clip-rule="evenodd" fill="#181818" d="M81.96,46.23c0.125-0.459,2.106-0.459,2.23,0
	C83.448,46.23,82.705,46.23,81.96,46.23z"/>
<path fill-rule="evenodd" clip-rule="evenodd" fill="#181818" d="M0.02,9.72c-0.078-0.636,0.067-1.048,0.557-1.115
	C0.191,8.776,0.536,9.677,0.02,9.72z"/>
<path fill-rule="evenodd" clip-rule="evenodd" fill="#181818" d="M63.566,34.804c0.119-0.699,0.796,0.268,0.558,0.836
	C63.722,35.577,64.026,34.809,63.566,34.804z"/>
<path fill-rule="evenodd" clip-rule="evenodd" fill="#181818" d="M84.469,46.23c0.491,0.252,0.863,0.623,1.116,1.115
	C85.092,47.093,84.721,46.722,84.469,46.23z"/>
<path fill-rule="evenodd" clip-rule="evenodd" fill="#181818" d="M94.224,41.493c1.186-1.418,2.486-2.718,3.902-3.902
	C96.942,39.008,95.642,40.309,94.224,41.493z"/>
<path fill-rule="evenodd" clip-rule="evenodd" fill="#BCBCBC" d="M103.7,29.787c-0.633-0.387-1.08-0.964-1.671-1.394
	C102.953,28.491,103.237,29.228,103.7,29.787z"/>
<path fill-rule="evenodd" clip-rule="evenodd" fill="#181818" d="M106.767,29.229c1.414-1.836,3.321-3.181,4.738-5.017
	c0.396-0.066,0.469-0.459,0.835-0.558C110.599,25.629,108.741,27.487,106.767,29.229z"/>
<path fill-rule="evenodd" clip-rule="evenodd" fill="#323232" d="M113.457,22.819c0.581,0.346,1.046,0.811,1.393,1.394
	c-0.093,0-0.187,0-0.278,0C114.382,23.565,113.645,23.467,113.457,22.819z"/>
<path fill-rule="evenodd" clip-rule="evenodd" fill="#181818" d="M114.013,26.999c-0.174,0.51-1.164-0.481-1.115-1.114
	c0.675-0.44,1.231-0.997,1.673-1.672c0.092,0,0.186,0,0.278,0c-0.354,0.947-1.545,1.056-1.673,2.23
	C113.542,26.541,113.615,26.933,114.013,26.999z"/>
<path fill-rule="evenodd" clip-rule="evenodd" fill="#323232" d="M115.964,25.327c0.859,0.626,1.604,1.37,2.23,2.23
	C117.333,26.931,116.589,26.188,115.964,25.327z"/>
<path fill-rule="evenodd" clip-rule="evenodd" fill="#767676" d="M118.751,28.114c0.859,0.626,1.603,1.37,2.229,2.23
	C120.12,29.718,119.376,28.975,118.751,28.114z"/>
<path fill-rule="evenodd" clip-rule="evenodd" fill="#181818" d="M121.259,30.623c0.093,0,0.187,0,0.279,0
	c0.082,0.568,0.753,0.547,0.835,1.115C121.882,31.486,121.512,31.114,121.259,30.623z"/>
<path fill-rule="evenodd" clip-rule="evenodd" fill="#181818" d="M127.112,36.755c1.14,0.904,2.161,1.927,3.067,3.066
	C129.039,38.915,128.017,37.893,127.112,36.755z"/>
<path fill-rule="evenodd" clip-rule="evenodd" fill="#181818" d="M133.244,39.821c1.092-1.324,2.301-2.532,3.622-3.625
	C135.776,37.521,134.568,38.729,133.244,39.821z"/>
<path fill-rule="evenodd" clip-rule="evenodd" fill="#181818" d="M134.358,31.18c0.861,0.626,1.604,1.37,2.229,2.23
	C135.728,32.784,134.985,32.041,134.358,31.18z"/>
<path fill-rule="evenodd" clip-rule="evenodd" fill="#181818" d="M131.014,27.557c0.954,0.719,1.789,1.555,2.509,2.508
	C132.569,29.346,131.734,28.51,131.014,27.557z"/>
<path fill-rule="evenodd" clip-rule="evenodd" fill="#181818" d="M129.063,25.327c0.491,0.251,0.863,0.624,1.116,1.115
	C129.686,26.191,129.315,25.818,129.063,25.327z"/>
<path fill-rule="evenodd" clip-rule="evenodd" fill="#181818" d="M125.441,21.146c-0.493-0.252-0.863-0.624-1.116-1.115
	C124.816,20.283,125.188,20.655,125.441,21.146z"/>
<path fill-rule="evenodd" clip-rule="evenodd" fill="#767676" d="M121.539,15.851c-0.653,1.02-1.501,1.844-2.23,2.787
	c-0.835-0.558-1.74-1.046-2.229-1.951c1.437,0.605,1.909-1.928,3.065-2.508c0.477-0.012,0.723,0.207,0.837,0.558
	C120.983,15.29,121.741,15.09,121.539,15.851z"/>
<path fill-rule="evenodd" clip-rule="evenodd" fill="#323232" d="M120.981,14.736c0.323,0.089,1.313,0.862,0.558,1.115
	C121.741,15.09,120.983,15.29,120.981,14.736z"/>
<path fill-rule="evenodd" clip-rule="evenodd" fill="#181818" d="M59.386,9.162c0.768,0.534,1.417,1.184,1.951,1.952
	C60.568,10.58,59.918,9.93,59.386,9.162z"/>
<path fill-rule="evenodd" clip-rule="evenodd" fill="#181818" d="M56.877,6.932c0.675,0.44,1.233,0.998,1.672,1.672
	C57.875,8.165,57.317,7.607,56.877,6.932z"/>
<path fill-rule="evenodd" clip-rule="evenodd" fill="#181818" d="M54.926,5.26c0.583,0.346,1.048,0.81,1.394,1.393
	C55.736,6.308,55.272,5.843,54.926,5.26z"/>
<path fill-rule="evenodd" clip-rule="evenodd" fill="#181818" d="M53.254,3.866c0.492,0.252,0.863,0.624,1.115,1.115
	C53.877,4.73,53.505,4.357,53.254,3.866z"/>
<path fill-rule="evenodd" clip-rule="evenodd" fill="#181818" d="M51.303,2.194c0.491,0.251,0.863,0.624,1.115,1.115
	C51.926,3.058,51.555,2.686,51.303,2.194z"/>
<path fill-rule="evenodd" clip-rule="evenodd" fill="#181818" d="M49.352,0.522c0.491,0.251,0.863,0.623,1.115,1.115
	C49.975,1.385,49.604,1.014,49.352,0.522z"/>
<path fill-rule="evenodd" clip-rule="evenodd" fill="#181818" d="M57.156,10.834c0.675,0.44,1.232,0.998,1.672,1.672
	C58.153,12.067,57.596,11.509,57.156,10.834z"/>
<path fill-rule="evenodd" clip-rule="evenodd" fill="#181818" d="M54.926,8.883c0.583,0.346,1.048,0.811,1.394,1.394
	C55.736,9.931,55.272,9.466,54.926,8.883z"/>
<path fill-rule="evenodd" clip-rule="evenodd" fill="#181818" d="M52.975,7.211c0.491,0.251,0.863,0.623,1.115,1.114
	C53.599,8.074,53.227,7.703,52.975,7.211z"/>
<path fill-rule="evenodd" clip-rule="evenodd" fill="#181818" d="M51.024,5.539c0.491,0.252,0.863,0.624,1.114,1.115
	C51.647,6.402,51.276,6.03,51.024,5.539z"/>
<path fill-rule="evenodd" clip-rule="evenodd" fill="#181818" d="M49.073,3.866c0.583,0.346,1.047,0.811,1.394,1.394
	C49.883,4.914,49.419,4.45,49.073,3.866z"/>
<path fill-rule="evenodd" clip-rule="evenodd" fill="#181818" d="M90.88,40.935c1.557-1.788,3.228-3.461,5.017-5.017
	C94.34,37.706,92.669,39.379,90.88,40.935z"/>
<path fill-rule="evenodd" clip-rule="evenodd" fill="#BCBCBC" d="M110.389,2.194c0.493,0.251,0.863,0.624,1.116,1.115
	C111.012,3.058,110.642,2.686,110.389,2.194z"/>
<path fill-rule="evenodd" clip-rule="evenodd" fill="#BCBCBC" d="M124.325,30.065c1-1.232,2.114-2.346,3.346-3.345
	c-0.068,0.397-0.459,0.47-0.559,0.836c-0.952,0.719-1.789,1.555-2.509,2.508C124.511,30.065,124.417,30.065,124.325,30.065z"/>
<path fill-rule="evenodd" clip-rule="evenodd" fill="#BCBCBC" d="M106.489,29.229c1.555-1.788,3.228-3.461,5.017-5.017
	c-1.417,1.836-3.324,3.181-4.738,5.017C106.673,29.229,106.581,29.229,106.489,29.229z"/>
<path fill-rule="evenodd" clip-rule="evenodd" fill="#767676" d="M105.651,26.442c1.463-1.696,3.043-3.275,4.738-4.738
	C108.926,23.399,107.348,24.979,105.651,26.442z"/>
<path fill-rule="evenodd" clip-rule="evenodd" fill="#BCBCBC" d="M115.127,20.589c0.49,0.252,0.863,0.624,1.115,1.115
	C115.75,21.452,115.379,21.081,115.127,20.589z"/>
<path fill-rule="evenodd" clip-rule="evenodd" fill="#767676" d="M114.849,20.311c0.376-0.274,0.557-0.744,0.835-1.115
	c0.567,0.642,1.341,1.076,1.951,1.672c-0.49,0.252-0.861,0.624-1.113,1.115c0.875,0.132,1.138-0.347,1.392-0.836
	c0.413,0.145,0.704,0.413,1.116,0.558c0,0.093,0,0.186,0,0.278c-0.188,0.648-0.926,0.747-1.116,1.394
	c-0.675-0.44-1.231-0.998-1.671-1.672c-0.252-0.491-0.625-0.863-1.115-1.115C114.891,20.641,114.865,20.48,114.849,20.311z"/>
<path fill-rule="evenodd" clip-rule="evenodd" fill="#323232" d="M117.914,23.376c0.095,0,0.187,0,0.281,0
	c0.669,1.096,1.839,1.691,2.508,2.787C119.657,25.351,118.727,24.422,117.914,23.376z"/>
<path fill-rule="evenodd" clip-rule="evenodd" fill="#181818" d="M120.703,26.163c0.821,0.385,1.128,1.287,1.951,1.672
	c0,0.093,0,0.186,0,0.279C121.884,27.581,121.236,26.931,120.703,26.163z"/>
<path fill-rule="evenodd" clip-rule="evenodd" fill="#767676" d="M122.654,27.835c0.093,0,0.185,0,0.278,0
	c0.188-0.647,0.926-0.746,1.114-1.393c0.092,0,0.187,0,0.278,0c-0.438,0.675-0.997,1.232-1.671,1.672
	C122.654,28.021,122.654,27.929,122.654,27.835z"/>
<path fill-rule="evenodd" clip-rule="evenodd" fill="#767676" d="M124.603,26.163c0.125-0.248,0.245-0.498,0.56-0.557
	c0.13-0.875-0.752-0.737-0.838-1.394c0.479,0.358,1.096,0.576,1.116,1.394C125.074,25.705,125.002,26.097,124.603,26.163z"/>
<path fill-rule="evenodd" clip-rule="evenodd" fill="#181818" d="M117.914,23.376c0.19-0.647,0.928-0.746,1.116-1.394
	c0.324-0.045,0.495,0.062,0.557,0.279c-0.817,0.019-1.035,0.637-1.392,1.115C118.1,23.376,118.008,23.376,117.914,23.376z"/>
<path fill-rule="evenodd" clip-rule="evenodd" fill="#323232" d="M120.424,22.819c0.947,0.019,1.943,0.087,2.229-0.557
	c0.804,0.402,1.074,1.34,1.671,1.951c0.086,0.657,0.968,0.519,0.838,1.394c-0.314,0.059-0.435,0.309-0.56,0.557
	c-0.092,0-0.186,0-0.278,0c-1.096-0.668-1.69-1.839-2.786-2.508C121.167,23.375,120.5,23.392,120.424,22.819z"/>
<path fill-rule="evenodd" clip-rule="evenodd" fill="#181818" d="M121.539,23.655c1.096,0.669,1.69,1.84,2.786,2.508
	c0,0.093,0,0.187,0,0.279c-0.092,0-0.187,0-0.278,0C123.377,25.346,122.208,24.751,121.539,23.655z"/>
<path fill-rule="evenodd" clip-rule="evenodd" fill="#181818" d="M98.405,23.655c-0.088-0.492,1.561-0.497,1.114,0.279
	C99.272,23.717,98.892,23.634,98.405,23.655z"/>
<path fill-rule="evenodd" clip-rule="evenodd" fill="#767676" d="M97.01,25.885c-0.579-0.441-0.092-1.95-0.557-2.508
	c0.238-0.052,0.265,0.109,0.278,0.278c-0.198,0.453,1.314,0.453,1.116,0c0.187,0,0.37,0,0.557,0
	c0.487-0.021,0.867,0.062,1.114,0.279c0,0.372,0,0.743,0,1.115c-0.463,0-0.928,0-1.393,0c-0.44,0.022-1.063-0.134-1.116,0.278
	C97.01,25.513,97.01,25.699,97.01,25.885z"/>
<path fill-rule="evenodd" clip-rule="evenodd" fill="#323232" d="M122.374,31.737c-0.082-0.568-0.753-0.546-0.835-1.115
	c0.092,0,0.186,0,0.278,0c-0.127,0.456,1.519,0.456,1.395,0c0.759,0.204,0.561-0.554,1.113-0.557c0.093,0,0.187,0,0.278,0
	c0.857,1.281,2.21,2.063,3.067,3.345c0.483,0.559,1.092,1.367,1.949,2.229c0.447,0.45,1.785,1.943,1.951,1.951
	c0.896,0.038,1.711-2.241,2.787-2.509c-0.438-0.676-0.996-1.232-1.671-1.672c-0.082-0.568-0.755-0.547-0.837-1.115
	c-0.72-0.953-1.555-1.789-2.509-2.508c-0.625-0.86-1.368-1.604-2.229-2.229c0.1-0.366,0.49-0.439,0.559-0.836
	c0.015-0.356,0.356-0.386,0.278-0.836c0.379-0.086,0.23-0.698,0.278-1.115c0.365,0.099,0.439,0.491,0.836,0.557
	c0.252,0.491,0.623,0.864,1.116,1.115c0.082,0.568,0.753,0.546,0.835,1.115c0.72,0.953,1.555,1.789,2.509,2.508
	c0.082,0.568,0.753,0.547,0.835,1.115c0.627,0.861,1.37,1.604,2.229,2.23c0.453,0.55,0.897,2.028,0.278,2.786
	c-1.321,1.093-2.53,2.301-3.622,3.625c-0.654,0.62-2.481,0.858-3.064,0c-0.906-1.14-1.928-2.162-3.067-3.066
	C125.697,34.919,123.79,33.574,122.374,31.737z"/>
<path fill-rule="evenodd" clip-rule="evenodd" fill="#181818" d="M127.67,33.41c1.417,1.184,2.717,2.485,3.9,3.901
	c0.028-0.201,2.505-1.887,2.509-2.229c0.014-0.902-1.142-0.671-1.393-1.672c0.675,0.439,1.232,0.996,1.671,1.672
	c-1.076,0.268-1.892,2.547-2.787,2.509c-0.166-0.008-1.504-1.501-1.951-1.951C128.762,34.777,128.154,33.969,127.67,33.41z"/>
<path fill-rule="evenodd" clip-rule="evenodd" fill="#181818" d="M129.341,29.787c0.954,0.719,1.789,1.555,2.509,2.508
	C130.898,31.576,130.061,30.74,129.341,29.787z"/>
<path fill-rule="evenodd" clip-rule="evenodd" fill="#323232" d="M108.438,1.916c-0.124-0.456,1.521-0.456,1.395,0
	C109.368,1.916,108.903,1.916,108.438,1.916z"/>
<path fill-rule="evenodd" clip-rule="evenodd" fill="#767676" d="M98.126,5.539c-0.052-0.237,0.108-0.263,0.278-0.278
	c0.539-0.647-1.107-1.481-1.114-2.508c0.365-0.099,0.438-0.491,0.836-0.558c1.084,0.124,1.142,1.274,1.673,1.951
	c0,0.186,0,0.372,0,0.557c-1.271,0.217-1.469,1.505-2.509,1.951C97.372,6.085,98.044,6.107,98.126,5.539z"/>
<path fill-rule="evenodd" clip-rule="evenodd" fill="#767676" d="M101.47,6.932c0.675,0.533,1.182,1.235,1.395,2.229
	c-0.397,0.067-0.471,0.459-0.836,0.558c-1.244-0.058-0.979-1.622-1.951-1.951C100.27,7.218,100.821,7.025,101.47,6.932z"/>
<path fill-rule="evenodd" clip-rule="evenodd" fill="#323232" d="M111.227,9.72c0,0.371,0,0.743,0,1.114
	C110.774,11.034,110.774,9.52,111.227,9.72z"/>
<path fill-rule="evenodd" clip-rule="evenodd" fill="#767676" d="M92.832,15.015c0,0.743,0,1.487,0,2.23
	C92.371,17.121,92.371,15.139,92.832,15.015z"/>
<path fill-rule="evenodd" clip-rule="evenodd" fill="#181818" d="M96.732,23.655c0.373,0,0.743,0,1.116,0
	C98.046,24.107,96.534,24.107,96.732,23.655z"/>
<path fill-rule="evenodd" clip-rule="evenodd" fill="#323232" d="M97.01,25.327c0.053-0.413,0.676-0.256,1.116-0.278
	C98.075,25.461,97.454,25.304,97.01,25.327z"/>
<path fill-rule="evenodd" clip-rule="evenodd" fill="#323232" d="M91.437,24.77c0,0.372,0,0.743,0,1.115
	C90.984,26.084,90.984,24.57,91.437,24.77z"/>
<path fill-rule="evenodd" clip-rule="evenodd" fill="#767676" d="M94.224,25.327c0,0.186,0,0.372,0,0.558
	c-0.972-0.211-2.104,0.844-2.787,0c0-0.372,0-0.743,0-1.115c0.787-0.233,1.721-0.324,2.508-0.558
	C93.969,24.654,93.811,25.276,94.224,25.327z"/>
<path fill-rule="evenodd" clip-rule="evenodd" fill="#767676" d="M100.078,25.885c0.301-0.461,2.486-0.461,2.787,0
	C101.935,25.885,101.005,25.885,100.078,25.885z"/>
<path fill-rule="evenodd" clip-rule="evenodd" fill="#FFFFFF" d="M108.438,1.916c0.465,0,0.93,0,1.395,0
	c0.324-0.045,0.494,0.062,0.557,0.279c0.253,0.491,0.623,0.863,1.116,1.115c0.787,0.283,0.771,1.283,1.393,1.951
	c0.105,0.113,0.477,0.161,0.559,0.278c0.187,0.269,0.068,0.611,0.278,0.836c0.846,0.908,1.915,2.594,0.278,4.181
	c0.703,2.361,1.812,4.32,3.065,6.131c0.489,0.905,1.395,1.394,2.229,1.951c0.954,0.232,1.054,1.229,1.951,1.394
	c0.095,0.018,2.553-0.759,3.065,0c0.253,0.491,0.623,0.863,1.116,1.115c0.701,1.341,2.195,1.892,2.508,3.624
	c0,0.372,0,0.743,0,1.115c0.078,0.45-0.264,0.48-0.278,0.836c-1.231,0.999-2.346,2.113-3.346,3.345
	c-0.553,0.003-0.354,0.761-1.113,0.557c-0.465,0-0.93,0-1.395,0c-0.093,0-0.187,0-0.278,0c-0.093,0-0.187,0-0.279,0
	c-0.238,0.052-0.262-0.108-0.278-0.278c-0.627-0.86-1.37-1.604-2.229-2.23c-0.248-0.124-0.499-0.244-0.557-0.557
	c-0.627-0.86-1.371-1.604-2.23-2.23c-0.252-0.491-0.625-0.863-1.115-1.115c-0.347-0.583-0.812-1.047-1.393-1.394
	c-0.896-0.245-0.383,0.919-1.116,0.836c-0.366,0.098-0.438,0.491-0.835,0.558c-1.789,1.556-3.462,3.229-5.017,5.017
	c-0.145,0.799-2.109,1.217-2.789,0.558c-0.463-0.559-0.747-1.295-1.671-1.394c-1.616-0.036-2.634,0.525-4.181,0.557
	c-0.187,0-0.373,0-0.558,0c-0.464,0-0.929,0-1.394,0c-0.413-0.145-0.703-0.412-1.116-0.557c-0.299-0.723-0.675-1.366-0.557-2.508
	c0-0.186,0-0.372,0-0.558c-0.022-0.441,0.134-1.063-0.279-1.115c-0.553-2.141-0.825-4.563-1.113-6.967c0-0.743,0-1.487,0-2.23
	c0.719-2.254,1.877-4.068,2.786-6.132c0.237,0.051,0.263-0.109,0.279-0.279c0.503-0.612,1.088-1.142,1.394-1.951
	c1.04-0.445,1.238-1.734,2.509-1.951c0-0.186,0-0.372,0-0.557C102.678,3.401,105.998,3.098,108.438,1.916z M111.227,9.72
	c0.038-0.52,0.182-0.932,0.557-1.115c-0.597-1.539-1.835-2.44-2.509-3.902c-2.117,1.227-5.81,0.879-7.805,2.229
	c-0.649,0.093-1.2,0.286-1.393,0.836c-1.37,1.696-2.985,3.146-3.346,5.853c-2.702,2.132-0.166,6.176-0.278,9.755
	c0.465,0.559-0.022,2.067,0.557,2.508c0.758,0.827,2.058-0.157,3.067,0c0.928,0,1.857,0,2.787,0c1.172-0.058,1.17,1.059,2.229,1.114
	c0.058-0.313,0.309-0.433,0.557-0.557c1.697-1.464,3.275-3.043,4.738-4.738c0.539-1.279,2.933-2.861,4.46-1.394
	c0.016,0.17,0.042,0.33,0.278,0.279c0.252,0.491,0.623,0.863,1.115,1.115c0.439,0.675,0.996,1.232,1.671,1.672
	c0.813,1.045,1.743,1.975,2.789,2.787c0.533,0.768,1.182,1.418,1.951,1.951c0.674-0.439,1.232-0.997,1.671-1.672
	c0-0.093,0-0.186,0-0.279c0.093,0,0.187,0,0.278,0c0.399-0.066,0.471-0.458,0.838-0.557c-0.021-0.818-0.637-1.036-1.116-1.394
	c-0.597-0.611-0.867-1.548-1.671-1.951c-0.286,0.644-1.282,0.576-2.229,0.557c-0.398-0.067-0.471-0.458-0.838-0.557
	c-0.062-0.218-0.232-0.324-0.557-0.279c0-0.092,0-0.185,0-0.278c-0.412-0.145-0.703-0.413-1.116-0.558
	c-0.016-0.17-0.04-0.33-0.278-0.279c-0.61-0.596-1.384-1.03-1.951-1.672c-2.239-2.033-3.474-5.073-4.457-8.361
	C111.227,10.462,111.227,10.091,111.227,9.72z"/>
<path fill-rule="evenodd" clip-rule="evenodd" fill="#323232" d="M40.433,1.08c2.747-0.239,6.359-1.909,8.919-0.558
	c0.251,0.492,0.623,0.863,1.115,1.115c0.366,0.099,0.438,0.491,0.836,0.558c0.252,0.491,0.624,0.863,1.115,1.115
	c0.366,0.098,0.438,0.491,0.836,0.557c0.251,0.491,0.623,0.864,1.115,1.115c0.226,0.053,0.278,0.28,0.557,0.279
	c0.346,0.583,0.811,1.047,1.394,1.393c0.226,0.053,0.277,0.28,0.557,0.279c0.44,0.675,0.998,1.233,1.672,1.672
	c0.366,0.099,0.438,0.491,0.836,0.557c0.533,0.768,1.183,1.418,1.951,1.952c0.226,0.053,0.278,0.279,0.558,0.278
	c-0.2,0.452,1.314,0.452,1.115,0c0.897,0.061,1.179-0.493,2.229-0.278c0.441-0.024,1.063,0.134,1.115-0.279c0.186,0,0.372,0,0.557,0
	c0.441-0.023,1.063,0.134,1.116-0.278c0.185,0,0.371,0,0.557,0c0.442-0.023,1.063,0.134,1.115-0.278c0.187,0,0.371,0,0.558,0
	c0.44-0.024,1.063,0.134,1.115-0.279c0.185,0,0.371,0,0.558,0c0.44-0.023,1.062,0.134,1.113-0.278c0.187,0,0.373,0,0.56,0
	c0.44-0.023,1.062,0.134,1.113-0.279c0.187,0,0.373,0,0.558,0c0.44-0.024,1.063,0.134,1.115-0.279c0.185,0,0.371,0,0.558,0
	c0.44-0.023,1.063,0.134,1.113-0.278c0.187,0,0.373,0,0.56,0c0.44-0.023,1.062,0.134,1.113-0.279c0.187,0,0.373,0,0.557,0
	c0.441-0.023,1.064,0.134,1.116-0.279c3.839-0.62,7.431-1.487,11.428-1.951c0.44-0.023,1.062,0.134,1.113-0.279
	c1.449-0.131,2.53-0.628,4.182-0.558c-0.082,0.568-0.755,0.547-0.836,1.115c-0.306,0.809-0.891,1.339-1.394,1.951
	c-0.405,0.152-1.44-0.326-1.395,0.279c-10.366,1.898-20.821,3.705-31.494,5.295c-0.558,0-1.115,0-1.672,0
	c-1.319-0.075-1.569-1.218-2.508-1.672c-0.44-0.674-0.997-1.232-1.672-1.672c-0.366-0.098-0.438-0.491-0.836-0.557
	c-0.346-0.583-0.811-1.048-1.394-1.394c-0.366-0.099-0.438-0.49-0.836-0.558c-0.252-0.491-0.624-0.863-1.115-1.114
	c-0.366-0.099-0.438-0.491-0.836-0.558c-0.251-0.491-0.623-0.863-1.114-1.115c-0.226-0.053-0.278-0.279-0.558-0.278
	c-0.347-0.583-0.81-1.048-1.394-1.394c-1.216-0.8-1.442-1.199-3.624-0.836c-7.648,1.275-17.361,3.164-25.084,4.181
	c-0.441,0.022-1.063-0.134-1.115,0.278c-0.897-0.061-1.179,0.493-2.229,0.279c-0.442,0.023-1.063-0.134-1.115,0.279
	c-0.186,0-0.372,0-0.558,0c-0.441,0.022-1.063-0.134-1.115,0.278c-0.186,0-0.372,0-0.558,0c-0.441,0.024-1.063-0.134-1.115,0.279
	c-0.186,0-0.372,0-0.558,0c-0.441,0.023-1.063-0.134-1.115,0.279c-0.186,0-0.372,0-0.558,0C9.891,8.906,9.27,8.749,9.217,9.162
	c-0.186,0-0.372,0-0.558,0C8.219,9.186,7.597,9.028,7.545,9.441c-0.185,0-0.372,0-0.558,0C6.546,9.464,5.925,9.307,5.873,9.72
	c-0.186,0-0.372,0-0.558,0C4.874,9.742,4.252,9.585,4.201,9.998c-0.496,0.154-1.157,0.144-1.394,0.558
	c0.771,3.039,1.237,6.382,1.672,9.755c0.024,0.441-0.133,1.063,0.279,1.115c0,0.186,0,0.372,0,0.557
	c0.023,0.442-0.134,1.063,0.278,1.115c-0.061,0.897,0.493,1.179,0.279,2.229c0.023,0.441-0.134,1.063,0.279,1.115
	c0,0.186,0,0.372,0,0.557c0.023,0.442-0.134,1.064,0.279,1.115c0,0.186,0,0.372,0,0.558c0.023,0.441-0.134,1.063,0.278,1.115
	c0,0.186,0,0.372,0,0.558c0.023,0.441-0.134,1.063,0.279,1.115c0,0.186,0,0.371,0,0.558c0.023,0.44-0.134,1.063,0.278,1.115
	c0.547,2.611,0.914,5.403,1.394,8.081c6.729-1.167,13.417-2.376,20.346-3.344c0.441-0.022,1.063,0.134,1.115-0.278
	c0.186,0,0.372,0,0.557,0c0.441-0.023,1.063,0.134,1.115-0.279c0.186,0,0.372,0,0.557,0c0.441-0.022,1.063,0.135,1.115-0.278
	c0.185,0,0.372,0,0.557,0c0.441-0.023,1.063,0.134,1.115-0.278c0.186,0,0.372,0,0.558,0c0.441-0.023,1.063,0.134,1.115-0.279
	c0.186,0,0.372,0,0.557,0c0.441-0.022,1.063,0.134,1.116-0.279c0.185,0,0.371,0,0.557,0c0.441-0.022,1.063,0.135,1.115-0.278
	c8.019-1.271,15.71-2.87,23.969-3.901c0.372,0,0.744,0,1.115,0c1.418,0.161,1.965,1.194,1.951,2.787
	c0.023,0.44-0.134,1.063,0.278,1.114c0,0.187,0,0.372,0,0.558c0.024,0.441-0.134,1.063,0.279,1.115
	c0.715,2.536,0.628,5.875,1.672,8.082c-0.046-0.604,0.989-0.126,1.394-0.278c0.44-0.023,1.063,0.134,1.115-0.278
	c0.185,0,0.371,0,0.558,0c0.44-0.023,1.062,0.134,1.113-0.278c0.187,0,0.373,0,0.56,0c0.44-0.023,1.062,0.133,1.113-0.28
	c0.187,0,0.373,0,0.558,0c0.44-0.022,1.063,0.135,1.115-0.278c0.185,0,0.371,0,0.558,0c0.44-0.022,1.063,0.135,1.113-0.278
	c0.187,0,0.373,0,0.56,0c0.44-0.023,1.062,0.134,1.113-0.278c0.695-0.234,1.493-0.364,2.509-0.279c0.65,0,1.302,0,1.951,0
	c1.231-0.025,2.011,0.404,2.508,1.114c1.833-0.769,2.581-2.622,4.182-3.623c1.789-1.556,3.46-3.229,5.017-5.017
	c-0.349-2.349-1.411-5.459-1.116-7.525c0.413,0.145,0.703,0.413,1.116,0.557c-0.127,0.456,1.519,0.456,1.394,0
	c0.185,0,0.371,0,0.558,0c-0.703,2.358,1.885,6.263,0.278,8.641c-1.416,1.185-2.717,2.484-3.902,3.902
	c-2.452,2.007-4.273,4.646-6.968,6.409c-0.357-0.387-1.314-0.17-1.671-0.557c-0.253-0.492-0.625-0.863-1.116-1.115
	c-0.092,0-0.187,0-0.278,0c-0.124-0.459-2.105-0.459-2.23,0c-5.101,0.496-10.171,2.434-15.329,1.951
	c-0.998-1.554-1.309-3.719-1.672-5.853c-0.363-2.132-0.569-4.525-0.836-6.689c0.239-0.568-0.438-1.535-0.558-0.836
	c-6.929,1.061-13.55,2.43-20.625,3.345c-0.441,0.022-1.063-0.135-1.115,0.278c-0.186,0-0.372,0-0.558,0
	c-0.441,0.022-1.063-0.134-1.115,0.278c-0.186,0-0.372,0-0.558,0c-0.441,0.024-1.063-0.134-1.115,0.279
	c-3.561,0.527-6.896,1.279-10.591,1.672c-0.441,0.023-1.063-0.134-1.115,0.278c-0.186,0-0.372,0-0.557,0
	c-0.441,0.024-1.063-0.133-1.115,0.278c-0.186,0-0.372,0-0.557,0c-0.442,0.024-1.063-0.133-1.115,0.28c-0.187,0-0.373,0-0.558,0
	c-0.441,0.022-1.063-0.135-1.114,0.278c-0.186,0-0.372,0-0.558,0c-0.441,0.022-1.063-0.135-1.115,0.278c-0.186,0-0.372,0-0.558,0
	c-0.441,0.022-1.063-0.134-1.115,0.279c-0.186,0-0.372,0-0.558,0c-0.441,0.023-1.063-0.134-1.115,0.278c-0.186,0-0.372,0-0.558,0
	c-0.441,0.023-1.063-0.134-1.115,0.278c-0.186,0-0.372,0-0.557,0c-0.442,0.023-1.063-0.134-1.115,0.279c-0.187,0-0.372,0-0.558,0
	c-0.441,0.023-1.063-0.135-1.115,0.278c-0.667,0.169-1.271,0.4-2.229,0.279c-0.441,0.022-1.063-0.135-1.115,0.278
	c-0.405-0.152-1.44,0.325-1.394-0.278c-2.175-0.88-2.108-3.961-2.508-6.411c-0.411-2.519-0.853-5.195-1.115-7.525
	c-0.023-0.441,0.134-1.063-0.278-1.115c-0.124-1.363-0.574-2.399-0.558-3.902c-0.023-0.441,0.134-1.063-0.278-1.115
	c0-0.186,0-0.371,0-0.557c-0.023-0.441,0.134-1.063-0.279-1.115c0.061-0.897-0.493-1.179-0.279-2.229
	c-0.023-0.442,0.134-1.063-0.278-1.115c0-0.186,0-0.372,0-0.557c-0.023-0.441,0.134-1.063-0.278-1.116c0-0.185,0-0.371,0-0.557
	c-0.023-0.441,0.133-1.063-0.279-1.115c0-0.186,0-0.372,0-0.558c-0.023-0.442,0.134-1.063-0.279-1.115c0-0.186,0-0.372,0-0.558
	C0.554,12.623,0.711,12,0.299,11.949c0-0.186,0-0.372,0-0.558c-0.023-0.441,0.134-1.063-0.279-1.114c0-0.187,0-0.372,0-0.558
	c0.516-0.042,0.171-0.944,0.557-1.115c0.835-1.488,3.259-1.387,5.296-1.672c0.441-0.023,1.063,0.134,1.114-0.279
	C11.105,6.033,15,5.19,19.251,4.703c0.441-0.023,1.063,0.134,1.115-0.279c0.186,0,0.372,0,0.558,0
	c0.441-0.023,1.063,0.134,1.115-0.278c0.186,0,0.372,0,0.558,0c0.441-0.023,1.063,0.134,1.115-0.279c0.186,0,0.372,0,0.558,0
	C24.709,3.844,25.331,4,25.383,3.588c0.186,0,0.372,0,0.558,0c0.441-0.023,1.063,0.134,1.115-0.278c0.186,0,0.372,0,0.557,0
	c0.441-0.024,1.063,0.133,1.115-0.279c0.186,0,0.372,0,0.557,0c0.441-0.023,1.063,0.134,1.116-0.278c0.185,0,0.371,0,0.557,0
	c0.442-0.023,1.063,0.134,1.115-0.279c0.186,0,0.372,0,0.558,0c0.441-0.023,1.063,0.133,1.115-0.279c0.186,0,0.372,0,0.557,0
	c0.441-0.023,1.063,0.134,1.115-0.279c1.25-0.235,2.376-0.597,3.901-0.558C39.76,1.335,40.381,1.492,40.433,1.08z"/>
</svg>
