<?xml version="1.0" encoding="utf-8"?>
<!-- Generator: Adobe Illustrator 15.0.0, SVG Export Plug-In  -->
<!DOCTYPE svg PUBLIC "-//W3C//DTD SVG 1.1//EN" "http://www.w3.org/Graphics/SVG/1.1/DTD/svg11.dtd" [
	<!ENTITY ns_flows "http://ns.adobe.com/Flows/1.0/">
]>
<svg version="1.1"
	 xmlns="http://www.w3.org/2000/svg" xmlns:xlink="http://www.w3.org/1999/xlink" xmlns:a="http://ns.adobe.com/AdobeSVGViewerExtensions/3.0/"
	 x="0px" y="0px" width="142px" height="142px" viewBox="-2.721 -38.579 142 142" enable-background="new -2.721 -38.579 142 142"
	 xml:space="preserve">
<defs>
</defs>
<path fill-rule="evenodd" clip-rule="evenodd" fill="#313131" d="M108.484,3.908c-0.198-0.452,1.314-0.452,1.116,0
	C109.228,3.908,108.856,3.908,108.484,3.908z"/>
<path fill-rule="evenodd" clip-rule="evenodd" fill="#313131" d="M42.43,8.088c0.372,0,0.743,0,1.115,0
	C43.745,8.541,42.231,8.541,42.43,8.088z"/>
<path fill-rule="evenodd" clip-rule="evenodd" fill="#313131" d="M111.273,11.712c0,0.371,0,0.743,0,1.114
	C110.82,13.026,110.82,11.512,111.273,11.712z"/>
<path fill-rule="evenodd" clip-rule="evenodd" fill="#707070" d="M96.5,40.977c0.28,0,0.332-0.227,0.557-0.279
	c0.068,0.398,0.461,0.471,0.56,0.836c0.25,0.491,0.623,0.864,1.113,1.115c0,0.093,0,0.187,0,0.278
	c-0.313,0.06-0.433,0.31-0.557,0.559c-1.174-0.127-1.284-1.318-2.229-1.672C96.009,41.414,96.401,41.343,96.5,40.977z"/>
<path fill-rule="evenodd" clip-rule="evenodd" fill="#313131" d="M82.286,45.436c-0.047-0.457,1.719-0.457,1.673,0
	C83.401,45.436,82.845,45.436,82.286,45.436z"/>
<path fill-rule="evenodd" clip-rule="evenodd" fill="#313131" d="M41.315,0.842c-0.683-0.03-0.059-0.921,0.279-0.836
	c0.093,0,0.186,0,0.279,0C41.692,0.289,41.232,0.294,41.315,0.842z"/>
<path fill-rule="evenodd" clip-rule="evenodd" fill="#707070" d="M63.055,36.796c0.341-0.763,1.615-0.16,1.115,0.836
	C63.632,37.519,64.146,36.355,63.055,36.796z"/>
<path fill-rule="evenodd" clip-rule="evenodd" fill="#A9A9A9" d="M88.418,49.059c1.463-1.695,3.041-3.274,4.738-4.737
	C91.693,46.017,90.113,47.596,88.418,49.059z"/>
<path fill-rule="evenodd" clip-rule="evenodd" fill="#313131" d="M94.271,43.485c0.44-0.676,0.997-1.233,1.673-1.672
	c0.945,0.354,1.056,1.545,2.229,1.672c0.124-0.249,0.244-0.499,0.557-0.559c-0.098,0.367-0.49,0.439-0.557,0.837
	c-1.025-0.184-1.389-1.028-1.951-1.672c-0.924,0.097-1.208,0.834-1.673,1.394C94.456,43.485,94.364,43.485,94.271,43.485z"/>
<path fill-rule="evenodd" clip-rule="evenodd" fill="#313131" d="M97.616,41.533c0.49,0.252,0.861,0.624,1.113,1.115
	C98.239,42.397,97.866,42.024,97.616,41.533z"/>
<path fill-rule="evenodd" clip-rule="evenodd" fill="#313131" d="M97.057,40.697c0.253-0.491,0.625-0.862,1.116-1.114
	C97.92,40.074,97.55,40.445,97.057,40.697z"/>
<path fill-rule="evenodd" clip-rule="evenodd" fill="#A9A9A9" d="M102.075,30.385c0.924,0.098,1.208,0.835,1.671,1.394
	C103.113,31.392,102.666,30.814,102.075,30.385z"/>
<path fill-rule="evenodd" clip-rule="evenodd" fill="#A9A9A9" d="M106.535,31.221c0.719-0.953,1.555-1.789,2.508-2.508
	C108.322,29.667,107.486,30.502,106.535,31.221z"/>
<path fill-rule="evenodd" clip-rule="evenodd" fill="#313131" d="M109.601,28.435c1.041-1.466,2.58-2.437,3.622-3.902
	c0.094,0,0.186,0,0.28,0c1.09,1.324,2.298,2.531,3.622,3.623c0.188,0.647,0.926,0.747,1.116,1.394
	c-1.697-1.463-3.276-3.042-4.738-4.738C112.036,25.854,111.064,27.391,109.601,28.435z"/>
<path fill-rule="evenodd" clip-rule="evenodd" fill="#707070" d="M118.241,29.549c1.508,1.276,2.902,2.67,4.179,4.18
	C120.911,32.453,119.517,31.059,118.241,29.549z"/>
<path fill-rule="evenodd" clip-rule="evenodd" fill="#A9A9A9" d="M122.42,33.729c1.697,1.463,3.275,3.043,4.738,4.738
	C125.463,37.005,123.885,35.425,122.42,33.729z"/>
<path fill-rule="evenodd" clip-rule="evenodd" fill="#313131" d="M128.273,39.861c0.768,0.533,1.419,1.184,1.952,1.952
	C129.456,41.279,128.807,40.629,128.273,39.861z"/>
<path fill-rule="evenodd" clip-rule="evenodd" fill="#313131" d="M133.29,41.813c0.628-0.862,1.369-1.604,2.23-2.23
	C134.894,40.442,134.15,41.186,133.29,41.813z"/>
<path fill-rule="evenodd" clip-rule="evenodd" fill="#313131" d="M136.634,35.402c-0.49-0.253-0.863-0.624-1.113-1.115
	C136.011,34.539,136.384,34.91,136.634,35.402z"/>
<path fill-rule="evenodd" clip-rule="evenodd" fill="#707070" d="M134.404,33.172c0.493,0.252,0.863,0.624,1.116,1.115
	C135.029,34.035,134.657,33.664,134.404,33.172z"/>
<path fill-rule="evenodd" clip-rule="evenodd" fill="#313131" d="M133.29,31.779c-0.568-0.082-0.547-0.754-1.115-0.836
	c0-0.092,0-0.185,0-0.278C132.667,30.916,133.038,31.287,133.29,31.779z"/>
<path fill-rule="evenodd" clip-rule="evenodd" fill="#707070" d="M131.061,29.549c0.491,0.251,0.863,0.624,1.114,1.115
	C131.684,30.412,131.313,30.041,131.061,29.549z"/>
<path fill-rule="evenodd" clip-rule="evenodd" fill="#707070" d="M124.093,24.254c0.491,0.251,0.863,0.624,1.116,1.115
	C124.716,25.117,124.346,24.745,124.093,24.254z"/>
<path fill-rule="evenodd" clip-rule="evenodd" fill="#313131" d="M118.241,20.073c-0.253-0.491-0.625-0.864-1.116-1.116
	c0-0.092,0-0.185,0-0.278c0.583,0.347,1.048,0.811,1.395,1.394C118.425,20.073,118.333,20.073,118.241,20.073z"/>
<path fill-rule="evenodd" clip-rule="evenodd" fill="#DBDBDB" d="M117.125,18.958c0.491,0.252,0.863,0.625,1.116,1.116
	C117.748,19.821,117.377,19.45,117.125,18.958z"/>
<path fill-rule="evenodd" clip-rule="evenodd" fill="#DBDBDB" d="M128.831,27.319c0.949-0.02,1.037,0.82,1.395,1.394
	C129.643,28.367,129.178,27.902,128.831,27.319z"/>
<path fill-rule="evenodd" clip-rule="evenodd" fill="#DBDBDB" d="M132.175,30.942c0.568,0.083,0.547,0.754,1.115,0.836
	c0.053,0.226,0.279,0.278,0.279,0.558C132.986,31.99,132.521,31.525,132.175,30.942z"/>
<path fill-rule="evenodd" clip-rule="evenodd" fill="#DBDBDB" d="M130.226,41.813c-0.533-0.769-1.185-1.419-1.952-1.952
	c-0.188-0.647-0.925-0.746-1.115-1.394c1.231,0.998,2.346,2.113,3.346,3.346C130.411,41.813,130.317,41.813,130.226,41.813z"/>
<path fill-rule="evenodd" clip-rule="evenodd" fill="#DBDBDB" d="M117.125,28.155c-1.324-1.091-2.532-2.298-3.622-3.623
	C114.827,25.624,116.033,26.831,117.125,28.155z"/>
<path fill-rule="evenodd" clip-rule="evenodd" fill="#DBDBDB" d="M109.043,28.713c1.276-1.51,2.671-2.903,4.18-4.18
	c-1.042,1.465-2.581,2.436-3.622,3.902C109.374,28.487,109.321,28.714,109.043,28.713z"/>
<path fill-rule="evenodd" clip-rule="evenodd" fill="#DBDBDB" d="M93.156,44.321c0.998-1.232,2.113-2.347,3.344-3.345
	c-0.099,0.366-0.491,0.438-0.557,0.837c-0.676,0.438-1.232,0.996-1.673,1.672C93.733,43.598,94.05,44.564,93.156,44.321z"/>
<path fill-rule="evenodd" clip-rule="evenodd" fill="#A9A9A9" d="M86.467,46.271c1.585,0.581,2.252-1.967,3.624-2.508
	c-0.387,0.822-1.288,1.128-1.673,1.951C87.775,45.935,87.002,47.621,86.467,46.271z"/>
<path fill-rule="evenodd" clip-rule="evenodd" fill="#707070" d="M90.091,43.764c1.09-1.324,2.298-2.532,3.622-3.623
	c0.148-1.356-1.111-1.305-1.395-2.23c0.055-0.225,0.281-0.277,0.281-0.557c0.224-0.053,0.276-0.279,0.557-0.279
	c0.821,0.386,1.128,1.287,1.951,1.673C93.551,40.535,91.878,42.208,90.091,43.764z"/>
<path fill-rule="evenodd" clip-rule="evenodd" fill="#A9A9A9" d="M104.024,28.435c0.556,0.003,0.354,0.76,1.116,0.557
	C104.888,29.747,104.115,28.757,104.024,28.435z"/>
<path fill-rule="evenodd" clip-rule="evenodd" fill="#707070" d="M105.141,28.991c1.648-1.881,3.414-3.646,5.295-5.295
	C108.787,25.578,107.021,27.343,105.141,28.991z"/>
<path fill-rule="evenodd" clip-rule="evenodd" fill="#707070" d="M114.896,22.303c0.675,0.439,1.231,0.997,1.673,1.672
	C115.893,23.535,115.336,22.978,114.896,22.303z"/>
<path fill-rule="evenodd" clip-rule="evenodd" fill="#DBDBDB" d="M117.96,25.647c1.651,1.229,2.81,2.952,4.46,4.181
	c0.19,0.647,0.928,0.747,1.116,1.394C121.561,29.479,119.703,27.622,117.96,25.647z"/>
<path fill-rule="evenodd" clip-rule="evenodd" fill="#A9A9A9" d="M123.536,31.221c1.511,1.277,2.902,2.67,4.181,4.181
	C126.206,34.125,124.813,32.731,123.536,31.221z"/>
<path fill-rule="evenodd" clip-rule="evenodd" fill="#707070" d="M127.717,35.402c1.557,1.136,2.623,2.766,4.18,3.901
	c-0.363,0.293-0.764-0.233-1.114-0.557C129.889,37.924,128.652,36.396,127.717,35.402z"/>
<path fill-rule="evenodd" clip-rule="evenodd" fill="#DBDBDB" d="M132.733,38.747c0.289-0.733,1.104-0.938,1.393-1.673
	c0-0.093,0-0.186,0-0.278c-0.251-0.491-0.623-0.863-1.114-1.115c0-0.092,0-0.187,0-0.278
	C134.957,36.105,134.313,38.104,132.733,38.747z"/>
<path fill-rule="evenodd" clip-rule="evenodd" fill="#A9A9A9" d="M131.896,34.287c0.492,0.252,0.863,0.623,1.115,1.115
	C132.521,35.149,132.148,34.778,131.896,34.287z"/>
<path fill-rule="evenodd" clip-rule="evenodd" fill="#707070" d="M130.782,33.172c0.491,0.252,0.863,0.624,1.114,1.115
	C131.405,34.035,131.032,33.664,130.782,33.172z"/>
<path fill-rule="evenodd" clip-rule="evenodd" fill="#DBDBDB" d="M130.782,32.894c-0.647-0.189-0.747-0.927-1.395-1.115
	c0-0.093,0-0.186,0-0.279C129.971,31.846,130.436,32.311,130.782,32.894z"/>
<path fill-rule="evenodd" clip-rule="evenodd" fill="#707070" d="M125.766,28.991c1.739-0.252,2.073,0.898,2.787,1.673
	C127.77,29.961,127.004,29.239,125.766,28.991z"/>
<path fill-rule="evenodd" clip-rule="evenodd" fill="#DBDBDB" d="M124.093,27.877c-0.675-0.44-1.232-0.997-1.673-1.672
	C123.095,26.645,123.654,27.202,124.093,27.877z"/>
<path fill-rule="evenodd" clip-rule="evenodd" fill="#313131" d="M114.896,20.352c0.767,0.534,1.418,1.184,1.951,1.951
	C116.079,21.77,115.428,21.12,114.896,20.352z"/>
<path fill-rule="evenodd" clip-rule="evenodd" fill="#313131" d="M122.142,26.205c0.094,0,0.187,0,0.278,0
	c0.44,0.675,0.998,1.232,1.673,1.672c0.052,0.225,0.28,0.278,0.278,0.558C123.512,27.808,122.769,27.064,122.142,26.205z"/>
<path fill-rule="evenodd" clip-rule="evenodd" fill="#313131" d="M129.388,31.779c0.647,0.188,0.747,0.926,1.395,1.115
	c0,0.093,0,0.186,0,0.278C130.199,32.826,129.734,32.362,129.388,31.779z"/>
<path fill-rule="evenodd" clip-rule="evenodd" fill="#313131" d="M133.012,35.681c0.491,0.252,0.863,0.624,1.114,1.115
	C133.635,36.544,133.263,36.173,133.012,35.681z"/>
<path fill-rule="evenodd" clip-rule="evenodd" fill="#313131" d="M131.896,39.304c0.627-0.86,1.37-1.603,2.229-2.229
	c-0.289,0.734-1.104,0.939-1.393,1.673C132.367,38.845,132.295,39.237,131.896,39.304z"/>
<path fill-rule="evenodd" clip-rule="evenodd" fill="#313131" d="M122.42,29.828c-1.65-1.229-2.809-2.951-4.46-4.181
	c-0.288-0.733-1.104-0.938-1.392-1.672C118.636,25.81,120.585,27.761,122.42,29.828z"/>
<path fill-rule="evenodd" clip-rule="evenodd" fill="#313131" d="M92.318,37.91c-0.681-0.001,0.836-1.519,0.838-0.836
	c-0.28,0-0.333,0.227-0.557,0.279C92.6,37.633,92.373,37.686,92.318,37.91z"/>
<path fill-rule="evenodd" clip-rule="evenodd" fill="#707070" d="M116.289,17.565c-0.658-0.642-0.893-1.71-1.394-2.509
	c1.704-0.154,2.441-1.275,4.181-1.394c-0.046,0.882,0.741,0.932,0.557,1.952c-0.978,0.441-2.213,0.803-3.064,1.394
	C116.382,17.137,116.283,17.251,116.289,17.565z"/>
<path fill-rule="evenodd" clip-rule="evenodd" fill="#707070" d="M43.267,2.514c-0.488,0.44-1.485,0.373-2.229,0.558
	c0.875-0.332,0.04-1.01,0.278-2.23c-0.083-0.548,0.376-0.553,0.558-0.836c0.278,0,0.557,0,0.836,0
	C42.688,1.048,42.826,1.932,43.267,2.514z"/>
<path fill-rule="evenodd" clip-rule="evenodd" fill="#707070" d="M0.345,11.154c0,0.744,0,1.487,0,2.23
	C-0.115,13.26-0.115,11.278,0.345,11.154z"/>
<path fill-rule="evenodd" clip-rule="evenodd" fill="#313131" d="M61.661,16.171c0.465,0,0.93,0,1.394,0
	C63.181,16.626,61.536,16.626,61.661,16.171z"/>
<path fill-rule="evenodd" clip-rule="evenodd" fill="#707070" d="M112.387,16.171c0.533,0.583,0.899,1.332,1.116,2.23
	c-1.402,0.456-2.578,1.138-3.902,1.672c-0.072-0.856-0.605-1.254-0.838-1.952C109.868,17.369,111.476,17.117,112.387,16.171z"/>
<path fill-rule="evenodd" clip-rule="evenodd" fill="#A9A9A9" d="M112.387,22.024c0.038-0.459,1.913-0.459,1.951,0
	C113.688,22.024,113.038,22.024,112.387,22.024z"/>
<path fill-rule="evenodd" clip-rule="evenodd" fill="#707070" d="M136.912,36.237c0.457-0.125,0.457,1.52,0,1.395
	C136.912,37.167,136.912,36.702,136.912,36.237z"/>
<path fill-rule="evenodd" clip-rule="evenodd" fill="#707070" d="M22.363,40.697c-0.422,0.415-1.224,0.449-1.951,0.558
	c0.07-1.093-1.114-3.282,0.836-3.066C22.057,38.589,21.23,40.623,22.363,40.697z"/>
<path fill-rule="evenodd" clip-rule="evenodd" fill="#707070" d="M131.061,42.092c0.465,0,0.93,0,1.395,0
	C132.579,42.546,130.935,42.546,131.061,42.092z"/>
<path fill-rule="evenodd" clip-rule="evenodd" fill="#707070" d="M7.034,45.715c0.744,0,1.487,0,2.23,0
	C9.14,46.175,7.158,46.175,7.034,45.715z"/>
<path fill-rule="evenodd" clip-rule="evenodd" fill="#313131" d="M82.564,48.223c-0.044-0.457,1.719-0.457,1.673,0
	C83.68,48.223,83.123,48.223,82.564,48.223z"/>
<path fill-rule="evenodd" clip-rule="evenodd" fill="#707070" d="M67.236,50.174c0.743,0,1.486,0,2.23,0
	C69.341,50.634,67.359,50.634,67.236,50.174z"/>
<path fill-rule="evenodd" clip-rule="evenodd" fill="#FFFFFF" d="M43.267,2.514c1.114,0.092,1.547-0.497,2.787-0.279
	c0.836,0,1.672,0,2.508,0c1.595,0.436,2.469,1.797,3.623,2.787c2.235,1.917,4.064,3.248,6.689,5.574
	c1.191,1.056,2.28,2.552,3.344,2.787c0.877,0.194,2.99-0.264,4.738-0.558c1.623-0.272,3.202-0.629,4.46-0.836
	c7.613-1.25,14.391-2.622,22.018-3.902c1.595-0.268,3.246-0.182,4.46-0.558c1.32-0.409,2.374-1.536,3.622-1.951
	c1.264-0.42,2.608-0.235,3.902-0.558c1.07-0.266,2.086-0.827,3.065-1.115c0.372,0,0.743,0,1.116,0
	c1.428-0.192,2.205,1.611,3.064,2.787c1.425,1.95,3.402,3.482,1.395,5.853c0.223,0.892,0.823,1.406,0.836,2.508
	c0.501,0.799,0.735,1.867,1.394,2.509c0.377,0.273,0.558,0.743,0.836,1.114c0,0.093,0,0.186,0,0.278
	c0.252,0.492,0.623,0.864,1.116,1.116c0.092,0,0.184,0,0.278,0c1.978,1.272,3.908,2.594,5.573,4.181
	c0.253,0.491,0.623,0.863,1.116,1.115c0.551,1.306,2.946,0.767,3.622,1.951c0.347,0.583,0.812,1.047,1.395,1.394
	c0.4,0.156,0.679,0.435,0.835,0.836c0.253,0.491,0.623,0.863,1.114,1.115c0,0.093,0,0.186,0,0.278
	c0.347,0.583,0.812,1.047,1.395,1.394c0.402,0.156,0.681,0.435,0.835,0.836c0.253,0.492,0.625,0.863,1.116,1.115
	c0.25,0.491,0.623,0.862,1.113,1.115c0.148,0.224,0.291,0.452,0.278,0.835c0,0.465,0,0.93,0,1.395
	c0.079,1.191-0.807,1.421-1.392,1.951c-0.861,0.626-1.603,1.368-2.23,2.23c-0.224,0.146-0.452,0.289-0.835,0.278
	c-0.465,0-0.93,0-1.395,0c-0.324,0.045-0.497-0.063-0.557-0.278c-1-1.232-2.114-2.348-3.346-3.346
	c-1.463-1.695-3.041-3.275-4.738-4.738c-1.276-1.51-2.671-2.904-4.179-4.18c-0.19-0.647-0.928-0.747-1.116-1.394
	c-1.092-1.324-2.298-2.531-3.622-3.623c-0.095,0-0.187,0-0.28,0c-1.509,1.277-2.903,2.67-4.18,4.18
	c-0.953,0.72-1.789,1.556-2.508,2.508c-0.145,0.799-2.109,1.217-2.789,0.558c-0.463-0.559-0.747-1.295-1.671-1.394
	c-1.635,0.038-2.694,0.65-4.459,0.557c0.14,2.09,0.863,3.595,0.835,5.854c0,0.649,0,1.301,0,1.951
	c0.078,0.449-0.263,0.479-0.278,0.836c-0.491,0.252-0.863,0.623-1.116,1.114c-0.225,0.053-0.276,0.279-0.557,0.279
	c-1.23,0.998-2.346,2.112-3.344,3.345c-1.697,1.463-3.275,3.042-4.738,4.737c-1.05,1.591-3.279,0.116-4.181-0.836
	c0.046-0.457-1.717-0.457-1.673,0c-4.57,0.447-8.463,1.57-13.099,1.951c-0.744,0-1.487,0-2.23,0
	c-1.566-0.146-1.822-3.702-2.23-6.132c-0.394-2.351-0.673-4.602-0.836-6.41c0.5-0.996-0.774-1.599-1.115-0.836
	c-13.341,2.358-26.724,4.678-40.413,6.689c-0.728,0.107-1.529,0.143-1.951,0.557c-4.042,0.323-7.303,1.431-11.427,1.673
	c-0.743,0-1.486,0-2.23,0c-0.185,0-0.372,0-0.557,0c-1.14-0.905-1.11-2.308-1.394-3.623c-1.887-8.766-3.116-19.578-4.738-28.708
	c0-0.743,0-1.486,0-2.23c0-0.185,0-0.371,0-0.557c1.169-1.17,2.828-1.376,4.459-1.672c4.969-0.9,10.319-1.64,15.607-2.508
	c6.842-1.124,13.877-2.444,20.625-3.344C41.782,2.887,42.779,2.955,43.267,2.514z M61.661,16.171c-0.936,0.32-1.35-0.67-1.951-1.115
	c-2.01-1.489-3.459-2.872-5.295-4.459c-1.604-1.386-3.625-3.109-5.295-4.459c-0.801-0.647-1.214-1.281-1.951-1.394
	c-1.16-0.179-2.361,0.969-3.623,0.558c-0.745,0.184-1.741,0.117-2.23,0.557c-9.656,1.551-19.81,3.24-28.985,4.738
	c-3.451,0.563-6.595,0.953-9.477,1.951c2.018,9.967,3.411,20.559,5.296,30.657c4.047-0.689,7.95-1.525,12.263-1.95
	c0.728-0.108,1.529-0.143,1.951-0.558c11.597-1.646,25.113-4.225,36.79-6.132c3.028-0.493,5.718-1.388,7.247,0.28
	c0.627,3.149,1.147,6.862,1.672,9.754c0.197,1.082,0.082,2.278,0.835,3.065c4.26-0.942,8.72-1.685,13.378-2.229
	c0.559,0,1.115,0,1.673,0c1.317-0.203,1.833,0.397,2.508,0.836c0.535,1.35,1.309-0.337,1.951-0.557
	c0.385-0.823,1.286-1.129,1.673-1.951c1.787-1.556,3.46-3.229,5.017-5.017c0.059-0.313,0.309-0.434,0.557-0.559
	c0.415-2.479-1.376-5.971-0.837-8.639c1.094-1.323,3.266-1.567,5.575-1.672c0.743,0,1.486,0,2.23,0
	c0.69-0.042,1.155,0.144,1.392,0.558c0.091,0.322,0.863,1.313,1.116,0.557c1.881-1.648,3.646-3.414,5.295-5.295
	c0.563-0.645,0.928-1.49,1.951-1.672c0.651,0,1.301,0,1.951,0c0.217,0.062,0.549,0.007,0.558,0.279
	c0.44,0.675,0.997,1.232,1.673,1.672c0.288,0.734,1.104,0.939,1.392,1.672c1.743,1.975,3.601,3.833,5.576,5.574
	c1.276,1.51,2.67,2.904,4.181,4.181c0.936,0.993,2.172,2.521,3.065,3.345c0.351,0.323,0.751,0.85,1.114,0.557
	c0.398-0.066,0.471-0.459,0.837-0.557c1.579-0.644,2.224-2.642,0.278-3.345c-0.252-0.492-0.623-0.863-1.115-1.115
	c-0.251-0.491-0.623-0.862-1.114-1.115c0-0.093,0-0.186,0-0.278c-0.347-0.583-0.812-1.048-1.395-1.394
	c-0.4-0.156-0.679-0.435-0.835-0.836c-0.714-0.775-1.048-1.925-2.787-1.673c-0.89,0.239-0.861-0.438-1.395-0.557
	c0.002-0.28-0.227-0.333-0.278-0.558c-0.438-0.675-0.998-1.232-1.673-1.672c-0.092,0-0.185,0-0.278,0
	c-1.699-1.367-3.514-2.618-5.295-3.902c-0.533-0.768-1.185-1.417-1.951-1.951c-0.451-0.664-1.002-1.229-1.393-1.951
	c-0.217-0.898-0.583-1.647-1.116-2.23c-0.218-1.267-1.029-1.943-1.113-3.345c0-0.372,0-0.743,0-1.114
	c-0.299-1.041,0.69-0.795,0.557-1.672c-1.088-0.863-1.803-2.101-2.509-3.345c-2.031,1.211-4.802,0.878-6.968,1.672
	c-1.033,0.379-1.654,1.281-2.788,1.672c-1.259,0.434-2.928,0.586-4.458,0.836c-10.72,1.746-21.604,3.799-32.052,5.295
	C62.591,16.171,62.126,16.171,61.661,16.171z"/>
<path fill-rule="evenodd" clip-rule="evenodd" fill="#A9A9A9" d="M46.054,2.235c0.211-0.46,2.297-0.46,2.508,0
	C47.726,2.235,46.89,2.235,46.054,2.235z"/>
<path fill-rule="evenodd" clip-rule="evenodd" fill="#707070" d="M41.315,5.858c0.489-0.44,1.485-0.373,2.23-0.557
	c-0.211,0.973,0.843,2.104,0,2.787c-0.372,0-0.743,0-1.115,0C42.054,7.351,42.667,5.623,41.315,5.858z"/>
<path fill-rule="evenodd" clip-rule="evenodd" fill="#A9A9A9" d="M98.451,36.796c0.459,0.038,0.459,1.913,0,1.951
	C98.451,38.097,98.451,37.445,98.451,36.796z"/>
<path fill-rule="evenodd" clip-rule="evenodd" fill="#707070" d="M20.691,44.042c0.422-0.414,1.223-0.449,1.951-0.557
	c-0.626,0.654,0.553,2.481,0,3.064c-0.464,0-0.929,0-1.394,0C21.269,45.509,21.131,44.624,20.691,44.042z"/>
<path fill-rule="evenodd" clip-rule="evenodd" fill="#707070" d="M100.402,27.877c0.124-0.46,2.105-0.46,2.23,0
	C101.889,27.877,101.146,27.877,100.402,27.877z"/>
</svg>
