<?xml version="1.0" encoding="utf-8"?>
<!-- Generator: Adobe Illustrator 15.0.0, SVG Export Plug-In  -->
<!DOCTYPE svg PUBLIC "-//W3C//DTD SVG 1.1//EN" "http://www.w3.org/Graphics/SVG/1.1/DTD/svg11.dtd" [
	<!ENTITY ns_flows "http://ns.adobe.com/Flows/1.0/">
]>
<svg version="1.1"
	 xmlns="http://www.w3.org/2000/svg" xmlns:xlink="http://www.w3.org/1999/xlink" xmlns:a="http://ns.adobe.com/AdobeSVGViewerExtensions/3.0/"
	 x="0px" y="0px" width="142px" height="142px" viewBox="-2.767 -40.576 142 142" enable-background="new -2.767 -40.576 142 142"
	 xml:space="preserve">
<defs>
</defs>
<path fill-rule="evenodd" clip-rule="evenodd" fill="#191919" d="M35.974,1.911c0.086-0.379,0.698-0.231,1.115-0.279
	C37.037,2.045,36.415,1.888,35.974,1.911z"/>
<path fill-rule="evenodd" clip-rule="evenodd" fill="#191919" d="M34.301,2.19c0.086-0.378,0.698-0.231,1.115-0.279
	C35.365,2.324,34.743,2.167,34.301,2.19z"/>
<path fill-rule="evenodd" clip-rule="evenodd" fill="#191919" d="M32.629,2.469c0.086-0.378,0.697-0.231,1.115-0.279
	C33.692,2.602,33.071,2.445,32.629,2.469z"/>
<path fill-rule="evenodd" clip-rule="evenodd" fill="#191919" d="M30.957,2.748c0.087-0.379,0.698-0.231,1.115-0.279
	C32.02,2.881,31.398,2.724,30.957,2.748z"/>
<path fill-rule="evenodd" clip-rule="evenodd" fill="#191919" d="M29.284,3.026c0.087-0.378,0.698-0.231,1.116-0.278
	C30.348,3.16,29.726,3.003,29.284,3.026z"/>
<path fill-rule="evenodd" clip-rule="evenodd" fill="#191919" d="M27.612,3.305c0.086-0.379,0.698-0.231,1.115-0.279
	C28.675,3.438,28.054,3.281,27.612,3.305z"/>
<path fill-rule="evenodd" clip-rule="evenodd" fill="#191919" d="M25.94,3.583c0.086-0.378,0.697-0.231,1.115-0.278
	C27.003,3.718,26.381,3.56,25.94,3.583z"/>
<path fill-rule="evenodd" clip-rule="evenodd" fill="#191919" d="M24.268,3.862c0.086-0.378,0.697-0.231,1.115-0.278
	C25.331,3.996,24.709,3.839,24.268,3.862z"/>
<path fill-rule="evenodd" clip-rule="evenodd" fill="#191919" d="M20.923,4.419c0.086-0.378,0.698-0.231,1.115-0.278
	C21.986,4.554,21.364,4.396,20.923,4.419z"/>
<path fill-rule="evenodd" clip-rule="evenodd" fill="#191919" d="M19.251,7.485c0.052-0.413,0.673-0.256,1.115-0.278
	C20.314,7.619,19.692,7.462,19.251,7.485z"/>
<path fill-rule="evenodd" clip-rule="evenodd" fill="#191919" d="M7.545,9.437C7.597,9.023,8.219,9.181,8.66,9.157
	C8.608,9.57,7.987,9.413,7.545,9.437z"/>
<path fill-rule="evenodd" clip-rule="evenodd" fill="#191919" d="M5.873,9.715c0.052-0.413,0.673-0.256,1.114-0.279
	C6.936,9.849,6.314,9.692,5.873,9.715z"/>
<path fill-rule="evenodd" clip-rule="evenodd" fill="#191919" d="M0.02,10.273c0.413,0.051,0.255,0.673,0.279,1.114
	C-0.08,11.301,0.067,10.689,0.02,10.273z"/>
<path fill-rule="evenodd" clip-rule="evenodd" fill="#191919" d="M0.299,11.945c0.413,0.051,0.255,0.673,0.278,1.115
	C0.199,12.973,0.346,12.362,0.299,11.945z"/>
<path fill-rule="evenodd" clip-rule="evenodd" fill="#191919" d="M0.577,13.617c0.413,0.051,0.256,0.673,0.279,1.115
	C0.478,14.646,0.625,14.034,0.577,13.617z"/>
<path fill-rule="evenodd" clip-rule="evenodd" fill="#C4C4C4" d="M64.681,13.896c0.086-0.378,0.698-0.231,1.115-0.278
	c-0.047,0.325-0.441,0.303-0.836,0.278C64.867,13.896,64.774,13.896,64.681,13.896z"/>
<path fill-rule="evenodd" clip-rule="evenodd" fill="#191919" d="M0.856,15.29c0.413,0.051,0.256,0.673,0.279,1.115
	C0.756,16.317,0.904,15.706,0.856,15.29z"/>
<path fill-rule="evenodd" clip-rule="evenodd" fill="#191919" d="M5.594,26.995c0.413,0.052,0.255,0.674,0.279,1.115
	C5.46,28.059,5.617,27.437,5.594,26.995z"/>
<path fill-rule="evenodd" clip-rule="evenodd" fill="#191919" d="M5.873,28.667c0.413,0.052,0.255,0.673,0.278,1.115
	C5.739,29.731,5.896,29.109,5.873,28.667z"/>
<path fill-rule="evenodd" clip-rule="evenodd" fill="#191919" d="M6.151,30.34c0.413,0.052,0.256,0.673,0.279,1.115
	C6.018,31.403,6.175,30.781,6.151,30.34z"/>
<path fill-rule="evenodd" clip-rule="evenodd" fill="#191919" d="M6.431,32.012c0.413,0.051,0.255,0.673,0.278,1.115
	C6.296,33.075,6.454,32.453,6.431,32.012z"/>
<path fill-rule="evenodd" clip-rule="evenodd" fill="#191919" d="M36.81,36.471c0.052-0.412,0.674-0.256,1.116-0.279
	C37.873,36.605,37.251,36.449,36.81,36.471z"/>
<path fill-rule="evenodd" clip-rule="evenodd" fill="#191919" d="M35.138,36.75c0.051-0.413,0.673-0.256,1.115-0.279
	C36.201,36.884,35.579,36.727,35.138,36.75z"/>
<path fill-rule="evenodd" clip-rule="evenodd" fill="#191919" d="M33.465,37.029c0.052-0.413,0.673-0.256,1.115-0.278
	C34.528,37.163,33.907,37.005,33.465,37.029z"/>
<path fill-rule="evenodd" clip-rule="evenodd" fill="#191919" d="M31.793,37.307c0.052-0.412,0.674-0.255,1.115-0.278
	C32.856,37.442,32.234,37.285,31.793,37.307z"/>
<path fill-rule="evenodd" clip-rule="evenodd" fill="#191919" d="M7.545,38.701c0.413,0.052,0.256,0.674,0.279,1.116
	C7.411,39.764,7.568,39.142,7.545,38.701z"/>
<path fill-rule="evenodd" clip-rule="evenodd" fill="#191919" d="M38.482,38.98c0.052-0.413,0.674-0.255,1.115-0.279
	C39.511,39.08,38.899,38.932,38.482,38.98z"/>
<path fill-rule="evenodd" clip-rule="evenodd" fill="#191919" d="M21.76,41.767c0.051-0.413,0.673-0.256,1.114-0.278
	C22.788,41.866,22.176,41.72,21.76,41.767z"/>
<path fill-rule="evenodd" clip-rule="evenodd" fill="#191919" d="M13.398,43.161c0.052-0.413,0.673-0.256,1.115-0.279
	C14.427,43.26,13.815,43.113,13.398,43.161z"/>
<path fill-rule="evenodd" clip-rule="evenodd" fill="#191919" d="M11.726,43.439c0.052-0.413,0.674-0.255,1.115-0.278
	C12.754,43.539,12.143,43.391,11.726,43.439z"/>
<path fill-rule="evenodd" clip-rule="evenodd" fill="#191919" d="M8.381,43.997c0.052-0.413,0.673-0.256,1.115-0.278
	C9.41,44.096,8.798,43.949,8.381,43.997z"/>
<path fill-rule="evenodd" clip-rule="evenodd" fill="#191919" d="M0.02,9.715C-0.058,9.08,0.087,8.667,0.577,8.6
	C0.191,8.771,0.536,9.673,0.02,9.715z"/>
<path fill-rule="evenodd" clip-rule="evenodd" fill="#333333" d="M61.615,36.192c0.153,0.406-0.326,1.442,0.279,1.395
	C61.588,38.574,60.848,36.279,61.615,36.192z"/>
<path fill-rule="evenodd" clip-rule="evenodd" fill="#191919" d="M91.715,43.997c1.278-1.51,2.671-2.904,4.182-4.18
	C94.619,41.326,93.226,42.719,91.715,43.997z"/>
<path fill-rule="evenodd" clip-rule="evenodd" fill="#333333" d="M95.897,39.817c0.098-0.367,0.49-0.439,0.557-0.837
	c0.733-0.289,0.939-1.104,1.673-1.394C97.5,38.446,96.756,39.189,95.897,39.817z"/>
<path fill-rule="evenodd" clip-rule="evenodd" fill="#C4C4C4" d="M102.029,28.389c0.817,0.019,1.034,0.637,1.393,1.115
	C102.911,29.178,102.478,28.775,102.029,28.389z"/>
<path fill-rule="evenodd" clip-rule="evenodd" fill="#191919" d="M107.045,28.946c0.905-1.138,1.928-2.16,3.065-3.065
	C109.206,27.019,108.183,28.041,107.045,28.946z"/>
<path fill-rule="evenodd" clip-rule="evenodd" fill="#191919" d="M110.389,25.88c0.675,0.439,1.232,0.997,1.673,1.672
	C111.387,27.113,110.83,26.556,110.389,25.88z"/>
<path fill-rule="evenodd" clip-rule="evenodd" fill="#191919" d="M112.34,27.553c0.004-0.554,0.762-0.354,0.558-1.115
	C113.653,26.69,112.663,27.464,112.34,27.553z"/>
<path fill-rule="evenodd" clip-rule="evenodd" fill="#333333" d="M112.062,23.929c0.188-0.647,0.926-0.746,1.114-1.393
	c0.238-0.052,0.264,0.109,0.28,0.278C112.807,23.003,112.709,23.741,112.062,23.929z"/>
<path fill-rule="evenodd" clip-rule="evenodd" fill="#333333" d="M114.013,23.372c1.695,1.463,3.275,3.042,4.738,4.738
	C117.054,26.646,115.476,25.067,114.013,23.372z"/>
<path fill-rule="evenodd" clip-rule="evenodd" fill="#787878" d="M118.751,28.11c2.067,1.835,4.017,3.786,5.852,5.853
	C122.536,32.128,120.584,30.177,118.751,28.11z"/>
<path fill-rule="evenodd" clip-rule="evenodd" fill="#191919" d="M125.998,35.635c1.188,0.763,1.877,2.024,3.065,2.787
	c0.054,0.226,0.28,0.277,0.278,0.558C128.112,37.981,126.996,36.867,125.998,35.635z"/>
<path fill-rule="evenodd" clip-rule="evenodd" fill="#333333" d="M133.244,39.817c0.628-0.862,1.369-1.604,2.23-2.23
	C134.847,38.446,134.104,39.189,133.244,39.817z"/>
<path fill-rule="evenodd" clip-rule="evenodd" fill="#333333" d="M135.474,32.291c0.49,0.252,0.863,0.623,1.113,1.115
	C136.097,33.153,135.724,32.782,135.474,32.291z"/>
<path fill-rule="evenodd" clip-rule="evenodd" fill="#787878" d="M134.08,30.897c0.583,0.346,1.048,0.81,1.395,1.393
	C134.891,31.945,134.426,31.48,134.08,30.897z"/>
<path fill-rule="evenodd" clip-rule="evenodd" fill="#333333" d="M131.85,28.389c0.492,0.252,0.863,0.624,1.115,1.115
	C132.475,29.252,132.102,28.88,131.85,28.389z"/>
<path fill-rule="evenodd" clip-rule="evenodd" fill="#787878" d="M130.736,27.274c0.491,0.251,0.863,0.623,1.114,1.114
	C131.359,28.137,130.986,27.766,130.736,27.274z"/>
<path fill-rule="evenodd" clip-rule="evenodd" fill="#333333" d="M117.079,16.683c0.583,0.347,1.048,0.811,1.395,1.394
	C117.89,17.73,117.425,17.266,117.079,16.683z"/>
<path fill-rule="evenodd" clip-rule="evenodd" fill="#787878" d="M116.522,15.847c-0.634-0.576-0.99-1.426-1.395-2.229
	c1.292,0.46,2.434-1.404,3.902-1.672c0.126,0.803,0.985,0.871,0.836,1.951C118.782,14.578,117.721,15.282,116.522,15.847z"/>
<path fill-rule="evenodd" clip-rule="evenodd" fill="#FFFFFF" d="M109.833,1.911c1.168,0.325,1.921,1.499,3.065,3.066
	c1.685,2.305,2.847,3.173,1.115,5.574c0.373,1.019,0.783,2.003,1.114,3.066c0.404,0.804,0.761,1.654,1.395,2.229
	c0.098,0.366,0.49,0.438,0.557,0.836c0.347,0.583,0.812,1.048,1.395,1.394c2.856,1.88,5.667,3.807,7.803,6.41
	c1.771-0.1,2.896,0.45,3.344,1.672c0.253,0.491,0.625,0.864,1.116,1.116c0.25,0.491,0.623,0.862,1.114,1.114
	c0.252,0.491,0.625,0.863,1.115,1.115c0,0.093,0,0.186,0,0.279c0.251,0.492,0.623,0.863,1.114,1.115
	c0.347,0.583,0.812,1.047,1.395,1.393c0.25,0.491,0.623,0.862,1.113,1.115c0.148,0.224,0.291,0.452,0.278,0.835
	c0,0.559,0,1.116,0,1.673c-0.302,0.719-0.703,1.341-1.392,1.673c-0.861,0.626-1.603,1.368-2.23,2.23
	c-0.226,0.053-0.278,0.279-0.557,0.278c-0.651,0-1.302,0-1.951,0c-0.555-0.281-1.19-0.482-1.395-1.115
	c0.002-0.28-0.225-0.332-0.278-0.558c-1.37-1.603-2.856-3.09-4.46-4.46c-1.835-2.066-3.784-4.018-5.852-5.853
	c-1.463-1.696-3.043-3.275-4.738-4.738c-0.124-0.249-0.244-0.499-0.557-0.558c-0.017-0.169-0.042-0.33-0.28-0.278
	c-0.768,0.532-1.419,1.183-1.949,1.95c-0.253,0.492-0.625,0.864-1.116,1.116c-1.324,1.091-2.532,2.298-3.622,3.623
	c-0.122,0.343-0.356,0.572-0.838,0.558c-0.648,0-1.3,0-1.951,0c-0.236,0.051-0.263-0.109-0.278-0.279
	c-0.358-0.478-0.575-1.096-1.393-1.115c-1.717-0.043-2.744,0.602-4.459,0.557c-0.125,3.027,1.907,6.162,0.557,8.641
	c-0.733,0.289-0.939,1.104-1.673,1.394c-2.717,2.484-5.319,5.087-7.804,7.804c-0.991,1.729-3.716,0.445-4.459-0.558
	c-0.124-0.459-2.105-0.459-2.23,0c-4.095,0.644-8.043,1.432-12.263,1.951c-0.836,0-1.672,0-2.508,0c-0.186,0-0.372,0-0.558,0
	c-1.457-2.817-1.526-7.021-2.23-10.591c-0.288-0.733-0.333-1.711-0.278-2.787c-0.225-0.193-0.764-0.434-0.836,0
	c-2.523,0.264-4.724,0.851-7.247,1.114c-1.929,0.072-2.249-1.467-2.787-2.786c-1.234-9.543-3.094-18.461-4.459-27.872
	c-0.015-1.222-0.195-2.61,0.836-2.787c0.558,0,1.115,0,1.672,0c1.182,0.397,1.907,1.475,2.787,2.229
	c2.556,2.191,5.463,4.475,8.083,6.967c0.671,0.115,0.606-0.509,1.394-0.278c0.801-0.314,2.173-0.057,2.788-0.558
	c9.13-1.251,18.567-3.231,27.591-4.738c1.485-0.248,3.585-0.168,4.738-0.836c1.15-0.666,2.404-1.531,4.46-1.951
	c1.929-0.394,3.668-0.47,5.295-1.394C108.903,1.911,109.368,1.911,109.833,1.911z M111.227,9.715
	c0.038-0.52,0.182-0.932,0.557-1.115c-0.597-1.539-1.835-2.44-2.509-3.902c-2.147,1.289-4.866,0.739-7.246,1.672
	c-0.934,0.366-1.564,1.341-2.51,1.672c-0.333,0.117-0.936,0.252-1.114,0.278c-9.402,1.421-22.515,3.897-32.051,5.296
	c-0.187,0-0.372,0-0.558,0c-0.417,0.047-1.029-0.1-1.115,0.278c-0.216,0.063-0.55,0.008-0.558,0.279c-0.372,0-0.743,0-1.115,0
	c-0.558,0-1.115,0-1.672,0c-1.881-0.833-3.278-2.328-4.738-3.623c-1.474-1.307-2.884-2.695-4.459-3.902
	c-0.2-1.297-1.088,0.265-0.278,0.558c1.309,8.725,2.945,17.122,4.181,25.92c2.695-0.185,4.896-0.863,7.525-1.115
	c0.372,0,0.744,0,1.115,0c1.394,0.185,1.907,1.251,1.951,2.787c0.314,0.801,0.057,2.174,0.558,2.787
	c0.411,2.747,0.78,5.538,1.393,8.082c4.394-0.81,8.853-1.554,13.378-2.229c0.744,0,1.487,0,2.23,0
	c1.031-0.011,1.616,0.429,2.229,0.836c0.773,1.364,1.911-0.824,2.509-1.394c1.975-1.741,3.832-3.6,5.573-5.574
	c0.583-0.346,1.048-0.811,1.395-1.394c-0.299-2.858-1.232-5.085-1.116-8.361c1.084-1.241,3.22-1.426,5.297-1.672
	c0.928,0,1.857,0,2.787,0c0.827,0.102,1.374,0.483,1.673,1.114c1.107,0.494,2.338-2.206,3.622-2.787
	c0.265-1.315,1.751-1.408,2.229-2.508c0.593-1.224,2.989-2.806,4.46-1.394c0.44,0.675,0.997,1.232,1.673,1.672
	c1.275,1.51,2.67,2.904,4.181,4.181c0.066,0.398,0.459,0.47,0.557,0.836c1.649,1.882,3.414,3.647,5.296,5.296
	c1.22,1.281,2.73,3.07,3.902,4.181c0.408,0.389,0.947,1.034,1.393,0.836c0.675-0.438,1.233-0.996,1.673-1.672
	c0.313-0.059,0.435-0.31,0.557-0.558c0.755-0.252-0.637-0.623-0.557-1.115c-0.347-0.583-0.812-1.047-1.395-1.394
	c-0.251-0.49-0.623-0.862-1.114-1.114c-0.252-0.492-0.623-0.863-1.116-1.115c0-0.093,0-0.186,0-0.279
	c-0.25-0.491-0.623-0.863-1.113-1.115c-0.253-0.491-0.623-0.863-1.114-1.115c-0.398-0.066-0.471-0.458-0.837-0.557
	c-0.053-0.413-0.674-0.256-1.114-0.28c-0.89,0.239-0.861-0.438-1.395-0.557c-0.438-0.675-0.997-1.233-1.671-1.672
	c-1.841-1.782-4.103-3.145-6.132-4.738c-0.441-0.675-0.998-1.232-1.673-1.672c-0.066-0.397-0.459-0.47-0.558-0.836
	c-0.597-0.611-0.767-1.649-1.394-2.229c-0.485-1.559-1.413-2.676-1.671-4.46C111.227,10.458,111.227,10.086,111.227,9.715z"/>
<path fill-rule="evenodd" clip-rule="evenodd" fill="#C4C4C4" d="M129.62,26.159c0.493,0.252,0.863,0.624,1.116,1.116
	C130.245,27.022,129.873,26.65,129.62,26.159z"/>
<path fill-rule="evenodd" clip-rule="evenodd" fill="#C4C4C4" d="M132.965,29.782c0.491,0.251,0.863,0.624,1.114,1.115
	C133.588,30.646,133.216,30.274,132.965,29.782z"/>
<path fill-rule="evenodd" clip-rule="evenodd" fill="#C4C4C4" d="M129.063,38.422c-1.188-0.763-1.877-2.024-3.065-2.787
	c-0.288-0.734-1.105-0.938-1.395-1.673C126.207,35.333,127.693,36.82,129.063,38.422z"/>
<path fill-rule="evenodd" clip-rule="evenodd" fill="#C4C4C4" d="M111.227,24.486c0.53-0.767,1.182-1.418,1.949-1.95
	c-0.188,0.647-0.926,0.746-1.114,1.393c-0.248,0.124-0.499,0.245-0.557,0.557C111.411,24.486,111.319,24.486,111.227,24.486z"/>
<path fill-rule="evenodd" clip-rule="evenodd" fill="#C4C4C4" d="M106.489,29.225c1.09-1.324,2.298-2.531,3.622-3.623
	c0,0.092,0,0.186,0,0.278c-1.138,0.905-2.16,1.927-3.065,3.065C106.819,28.999,106.767,29.226,106.489,29.225z"/>
<path fill-rule="evenodd" clip-rule="evenodd" fill="#C4C4C4" d="M88.65,46.784c2.484-2.717,5.087-5.319,7.804-7.804
	c-0.066,0.397-0.459,0.47-0.557,0.837c-1.511,1.275-2.903,2.67-4.182,4.18C90.528,44.759,89.838,46.021,88.65,46.784z"/>
<path fill-rule="evenodd" clip-rule="evenodd" fill="#C4C4C4" d="M86.42,44.275c1.15,0.806,1.549-1.123,2.509-1.394
	C88.332,43.451,87.194,45.639,86.42,44.275z"/>
<path fill-rule="evenodd" clip-rule="evenodd" fill="#787878" d="M88.929,42.881c1.74-1.974,3.6-3.832,5.573-5.574
	C92.761,39.282,90.904,41.14,88.929,42.881z"/>
<path fill-rule="evenodd" clip-rule="evenodd" fill="#333333" d="M94.502,37.307c0.347-0.583,0.812-1.048,1.395-1.394
	C95.55,36.497,95.085,36.961,94.502,37.307z"/>
<path fill-rule="evenodd" clip-rule="evenodd" fill="#787878" d="M104.538,26.995c1.645-0.584,2.207-2.251,3.622-3.065
	c-0.091-1.302-1.581-1.206-1.671-2.508c0.313-0.059,0.433-0.309,0.557-0.558c0.092,0,0.185,0,0.278,0
	c0.821,0.386,1.128,1.287,1.951,1.673c0.567-0.083,0.545-0.754,1.114-0.836c-0.479,1.1-1.965,1.193-2.229,2.508
	C106.875,24.789,105.645,27.489,104.538,26.995z"/>
<path fill-rule="evenodd" clip-rule="evenodd" fill="#787878" d="M114.849,20.306c0.675,0.439,1.231,0.997,1.673,1.672
	C115.846,21.539,115.29,20.981,114.849,20.306z"/>
<path fill-rule="evenodd" clip-rule="evenodd" fill="#333333" d="M116.522,21.978c1.51,1.277,2.902,2.671,4.181,4.181
	C119.192,24.882,117.797,23.488,116.522,21.978z"/>
<path fill-rule="evenodd" clip-rule="evenodd" fill="#C4C4C4" d="M121.259,26.995c1.373,0.95,2.25,2.395,3.623,3.345
	c0.386,0.822,1.288,1.128,1.673,1.951C124.673,30.642,122.909,28.876,121.259,26.995z"/>
<path fill-rule="evenodd" clip-rule="evenodd" fill="#787878" d="M126.555,32.291c1.929,1.509,3.367,3.508,5.295,5.017
	c-0.445,0.198-0.984-0.447-1.393-0.836C129.286,35.361,127.775,33.572,126.555,32.291z"/>
<path fill-rule="evenodd" clip-rule="evenodd" fill="#333333" d="M131.85,37.307c0.44-0.675,0.997-1.232,1.673-1.672
	C133.083,36.311,132.525,36.869,131.85,37.307z"/>
<path fill-rule="evenodd" clip-rule="evenodd" fill="#333333" d="M133.523,33.962c-0.08,0.492,1.312,0.863,0.557,1.115
	c-0.082-0.568-0.753-0.546-0.836-1.115C133.336,33.962,133.43,33.962,133.523,33.962z"/>
<path fill-rule="evenodd" clip-rule="evenodd" fill="#C4C4C4" d="M133.244,33.962c-0.188-0.646-0.925-0.745-1.115-1.394
	c0.583,0.347,1.048,0.811,1.395,1.394C133.43,33.962,133.336,33.962,133.244,33.962z"/>
<path fill-rule="evenodd" clip-rule="evenodd" fill="#787878" d="M131.014,31.455c0.491,0.252,0.863,0.624,1.114,1.114
	C131.637,32.318,131.267,31.946,131.014,31.455z"/>
<path fill-rule="evenodd" clip-rule="evenodd" fill="#333333" d="M129.898,30.34c0.493,0.251,0.864,0.623,1.116,1.115
	C130.524,31.203,130.151,30.831,129.898,30.34z"/>
<path fill-rule="evenodd" clip-rule="evenodd" fill="#C4C4C4" d="M129.898,30.061c-0.49-0.252-0.861-0.624-1.113-1.115
	C129.275,29.198,129.648,29.57,129.898,30.061z"/>
<path fill-rule="evenodd" clip-rule="evenodd" fill="#787878" d="M127.67,27.831c0.491,0.252,0.861,0.624,1.114,1.115
	C128.293,28.695,127.921,28.322,127.67,27.831z"/>
<path fill-rule="evenodd" clip-rule="evenodd" fill="#333333" d="M122.654,24.766c0.674,0.439,1.232,0.997,1.671,1.672
	C123.65,25.998,123.093,25.44,122.654,24.766z"/>
<path fill-rule="evenodd" clip-rule="evenodd" fill="#333333" d="M114.849,18.355c0.675,0.44,1.231,0.997,1.673,1.672
	C115.846,19.587,115.29,19.03,114.849,18.355z"/>
<path fill-rule="evenodd" clip-rule="evenodd" fill="#191919" d="M124.882,30.34c-1.373-0.95-2.25-2.395-3.623-3.345
	c-0.098-0.366-0.49-0.438-0.557-0.836C122.211,27.437,123.606,28.829,124.882,30.34z"/>
<path fill-rule="evenodd" clip-rule="evenodd" fill="#191919" d="M107.324,20.863c0.481-0.371,1.471,1.12,1.951,1.673
	C108.452,22.15,108.145,21.249,107.324,20.863z"/>
<path fill-rule="evenodd" clip-rule="evenodd" fill="#333333" d="M64.124,14.174c0.008-0.271,0.341-0.216,0.558-0.279
	c0.093,0,0.186,0,0.278,0c0,0.186,0,0.372,0,0.558C64.604,14.438,64.574,14.096,64.124,14.174z"/>
<path fill-rule="evenodd" clip-rule="evenodd" fill="#333333" d="M108.438,1.911c-0.124-0.456,1.521-0.456,1.395,0
	C109.368,1.911,108.903,1.911,108.438,1.911z"/>
<path fill-rule="evenodd" clip-rule="evenodd" fill="#333333" d="M52.139,6.649c-0.217,0.062-0.324,0.233-0.278,0.558
	C51.05,6.914,51.939,5.352,52.139,6.649z"/>
<path fill-rule="evenodd" clip-rule="evenodd" fill="#787878" d="M64.681,8.321c0.278,0,0.557,0,0.836,0
	c0.051,1.063-0.162,2.391,0.836,2.508c-0.614,0.501-1.986,0.244-2.788,0.558c0.6-0.236,0.646-1.026,0.558-1.951
	c0-0.279,0-0.558,0-0.836C64.448,8.646,64.62,8.539,64.681,8.321z"/>
<path fill-rule="evenodd" clip-rule="evenodd" fill="#333333" d="M64.681,8.321C64.62,8.539,64.448,8.646,64.124,8.6
	c0,0.279,0,0.557,0,0.836c-0.378-0.087-0.231-0.698-0.279-1.115C64.124,8.321,64.402,8.321,64.681,8.321z"/>
<path fill-rule="evenodd" clip-rule="evenodd" fill="#333333" d="M111.227,9.715c0,0.371,0,0.743,0,1.114
	C110.774,11.029,110.774,9.516,111.227,9.715z"/>
<path fill-rule="evenodd" clip-rule="evenodd" fill="#787878" d="M66.354,13.617c-0.334,1.096,0.853,2.094,0,2.787
	c-0.372,0-0.743,0-1.115,0c-0.384-0.36-0.276-1.21-0.279-1.951c0-0.186,0-0.372,0-0.558c0.396,0.024,0.79,0.046,0.836-0.278
	C65.981,13.617,66.167,13.617,66.354,13.617z"/>
<path fill-rule="evenodd" clip-rule="evenodd" fill="#333333" d="M65.238,16.404c0.372,0,0.743,0,1.115,0
	C66.553,16.856,65.039,16.856,65.238,16.404z"/>
<path fill-rule="evenodd" clip-rule="evenodd" fill="#787878" d="M112.898,15.29c0.627,0.58,0.797,1.619,1.394,2.229
	c-1.692,0.257-2.439,1.46-3.902,1.951c-0.313-0.708-0.684-1.359-1.114-1.951c1.337-0.521,2.227-1.491,3.623-1.951
	C112.898,15.475,112.898,15.382,112.898,15.29z"/>
<path fill-rule="evenodd" clip-rule="evenodd" fill="#787878" d="M100.078,25.88c0.301-0.461,2.486-0.461,2.787,0
	C101.935,25.88,101.005,25.88,100.078,25.88z"/>
<path fill-rule="evenodd" clip-rule="evenodd" fill="#787878" d="M125.719,26.995c0.44,0.023,1.062-0.133,1.114,0.28
	C126.417,27.226,125.805,27.374,125.719,26.995z"/>
<path fill-rule="evenodd" clip-rule="evenodd" fill="#333333" d="M63.566,32.012c-0.199-0.453,1.314-0.453,1.115,0
	C64.31,32.012,63.938,32.012,63.566,32.012z"/>
<path fill-rule="evenodd" clip-rule="evenodd" fill="#787878" d="M66.632,34.799c0.217,0.061,0.324,0.233,0.278,0.558
	c0.927,0.01,2.884-1.185,2.788,0.278c0.118,1.325-1.465,0.951-2.508,1.115c0,0.278,0,0.557,0,0.836
	C66.688,36.973,66.946,35.6,66.632,34.799z"/>
<path fill-rule="evenodd" clip-rule="evenodd" fill="#787878" d="M61.615,36.192c0.897,0.062,1.18-0.492,2.23-0.278
	c-0.023-0.441,0.134-1.063-0.279-1.114c-0.093,0-0.186,0-0.278,0c0.072-0.434,0.611-0.193,0.836,0
	c-0.055,1.076-0.01,2.054,0.278,2.787c-0.619-0.587-1.344,0.293-2.508,0C61.289,37.634,61.768,36.598,61.615,36.192z"/>
<path fill-rule="evenodd" clip-rule="evenodd" fill="#787878" d="M130.736,40.095c0.649,0,1.3,0,1.951,0
	C132.649,40.554,130.774,40.554,130.736,40.095z"/>
<path fill-rule="evenodd" clip-rule="evenodd" fill="#787878" d="M67.189,48.177c0.836,0,1.672,0,2.508,0
	C69.486,48.637,67.401,48.637,67.189,48.177z"/>
<path fill-rule="evenodd" clip-rule="evenodd" fill="#333333" d="M37.089,1.632c1.098-0.117,4.021-0.851,5.574-1.115
	c4.11-0.699,6.606-1.119,8.361,1.672c-0.405,0.152-1.441-0.325-1.394,0.279c-1.031,0.177-0.851,1.565-0.836,2.787
	c-0.862-0.067,0.436-2.294-0.836-1.951c-0.695-1.22-1.926-0.12-2.787,0C36.806,4.46,28.422,6.062,20.366,7.207
	c-0.441,0.022-1.063-0.134-1.115,0.278C15.69,8.013,12.354,8.765,8.66,9.157C8.219,9.181,7.597,9.023,7.545,9.437
	c-0.185,0-0.372,0-0.558,0C6.546,9.459,5.925,9.303,5.873,9.715C4.819,9.962,3.48,9.924,2.807,10.551
	c1.142,5.269,1.979,10.842,2.788,16.443c0.023,0.442-0.134,1.064,0.279,1.115c0,0.186,0,0.372,0,0.558
	c0.023,0.441-0.134,1.063,0.278,1.115c0,0.186,0,0.372,0,0.558c0.023,0.441-0.134,1.063,0.279,1.115c0,0.186,0,0.371,0,0.558
	c0.023,0.44-0.134,1.063,0.278,1.115c0.323,1.813,0.783,3.489,0.836,5.573c0.023,0.441-0.134,1.063,0.279,1.116
	c-0.114,0.671,0.509,0.604,0.279,1.392c7.844-1.353,15.647-2.746,23.69-3.901c0.441-0.022,1.063,0.135,1.115-0.278
	c0.185,0,0.372,0,0.557,0c0.441-0.023,1.063,0.134,1.115-0.278c0.186,0,0.372,0,0.558,0c0.441-0.023,1.063,0.134,1.115-0.279
	c0.186,0,0.372,0,0.557,0c0.441-0.022,1.063,0.134,1.116-0.279c5.182-0.763,10.021-1.87,15.329-2.508c0-0.187,0-0.372,0-0.557
	c0.539,1.319,0.858,2.858,2.787,2.786c-5.311,1.101-10.752,2.068-16.444,2.787c-0.441,0.024-1.063-0.134-1.115,0.279
	c-5.23,0.808-10.243,1.834-15.608,2.509c-0.441,0.022-1.063-0.135-1.114,0.278c-2.451,0.336-4.661,0.913-7.247,1.114
	c-0.442,0.023-1.063-0.134-1.115,0.279c-0.187,0-0.372,0-0.558,0c-0.441,0.023-1.063-0.135-1.115,0.278
	c-0.667,0.169-1.271,0.4-2.229,0.279c-0.441,0.022-1.063-0.135-1.115,0.278c-0.465,0-0.929,0-1.394,0
	c-2.195-1.136-1.854-3.922-2.229-6.132c-1.103-6.481-2.762-14.471-3.623-21.46c-0.023-0.441,0.133-1.063-0.279-1.115
	c0-0.186,0-0.372,0-0.558c-0.023-0.442,0.134-1.063-0.279-1.115c0-0.186,0-0.372,0-0.558c-0.023-0.441,0.134-1.063-0.278-1.115
	c0-0.186,0-0.372,0-0.558c-0.023-0.441,0.134-1.063-0.279-1.114c0-0.187,0-0.372,0-0.558C0.536,9.673,0.191,8.771,0.577,8.6
	c0-0.093,0-0.186,0-0.279c1.307-1.092,3.087-1.11,4.738-1.394c4.841-0.83,10.422-1.798,15.608-2.508
	c0.441-0.023,1.063,0.134,1.115-0.278c0.897,0.061,1.18-0.493,2.23-0.279c0.441-0.022,1.063,0.134,1.115-0.278
	c0.186,0,0.372,0,0.558,0c0.441-0.023,1.063,0.134,1.115-0.278c0.186,0,0.372,0,0.557,0c0.441-0.024,1.063,0.133,1.115-0.279
	c0.186,0,0.372,0,0.557,0c0.441-0.023,1.063,0.134,1.116-0.278c0.185,0,0.371,0,0.557,0c0.442-0.023,1.063,0.134,1.115-0.279
	c0.186,0,0.372,0,0.558,0c0.441-0.023,1.063,0.133,1.115-0.279c0.186,0,0.372,0,0.557,0c0.441-0.023,1.063,0.134,1.115-0.279
	c0.186,0,0.372,0,0.557,0C36.415,1.888,37.037,2.045,37.089,1.632z"/>
<path fill-rule="evenodd" clip-rule="evenodd" fill="#333333" d="M61.336,14.174c0.558,0,1.115,0,1.672,0
	C63.055,14.632,61.291,14.632,61.336,14.174z"/>
<path fill-rule="evenodd" clip-rule="evenodd" fill="#333333" d="M81.96,43.439c0.125-0.46,2.106-0.46,2.23,0
	C83.448,43.439,82.705,43.439,81.96,43.439z"/>
<path fill-rule="evenodd" clip-rule="evenodd" fill="#C4C4C4" d="M49.63,2.469c-0.047-0.604,0.989-0.126,1.394-0.279
	c0.236-0.051,0.262,0.109,0.278,0.279C50.745,2.469,50.188,2.469,49.63,2.469z"/>
<path fill-rule="evenodd" clip-rule="evenodd" fill="#C4C4C4" d="M103.7,29.782c0.651,0,1.303,0,1.951,0
	C105.613,30.241,103.738,30.241,103.7,29.782z"/>
<path fill-rule="evenodd" clip-rule="evenodd" fill="#787878" d="M111.505,24.486c0.036,1.078,1.13,1.1,1.393,1.952
	c0.204,0.76-0.554,0.561-0.558,1.115c-0.092,0-0.187,0-0.278,0c-0.44-0.675-0.998-1.233-1.673-1.672c-0.092,0-0.187,0-0.278,0
	c0-0.093,0-0.186,0-0.278c0.491-0.252,0.863-0.624,1.116-1.116C111.319,24.486,111.411,24.486,111.505,24.486z"/>
<path fill-rule="evenodd" clip-rule="evenodd" fill="#787878" d="M136.866,34.241c0.459-0.045,0.459,1.719,0,1.673
	C136.866,35.357,136.866,34.799,136.866,34.241z"/>
<path fill-rule="evenodd" clip-rule="evenodd" fill="#333333" d="M81.96,46.226c0.125-0.459,2.106-0.459,2.23,0
	C83.448,46.226,82.705,46.226,81.96,46.226z"/>
</svg>
