<?xml version="1.0" encoding="utf-8"?>
<!-- Generator: Adobe Illustrator 15.0.0, SVG Export Plug-In  -->
<!DOCTYPE svg PUBLIC "-//W3C//DTD SVG 1.1//EN" "http://www.w3.org/Graphics/SVG/1.1/DTD/svg11.dtd" [
	<!ENTITY ns_flows "http://ns.adobe.com/Flows/1.0/">
]>
<svg version="1.1"
	 xmlns="http://www.w3.org/2000/svg" xmlns:xlink="http://www.w3.org/1999/xlink" xmlns:a="http://ns.adobe.com/AdobeSVGViewerExtensions/3.0/"
	 x="0px" y="0px" width="142px" height="142px" viewBox="-2.72 -14.791 142 142" enable-background="new -2.72 -14.791 142 142"
	 xml:space="preserve">
<defs>
</defs>
<path fill-rule="evenodd" clip-rule="evenodd" fill="#D6D6D6" d="M104.025,30.762c-0.044-0.458,1.719-0.458,1.673,0
	C105.142,30.762,104.585,30.762,104.025,30.762z"/>
<path fill-rule="evenodd" clip-rule="evenodd" fill="#303030" d="M6.478,37.172c0,0.372,0,0.743,0,1.115c-0.093,0-0.186,0-0.279,0
	C6.247,37.871,6.099,37.258,6.478,37.172z"/>
<path fill-rule="evenodd" clip-rule="evenodd" fill="#303030" d="M8.986,37.451c0.092,0,0.186,0,0.278,0
	c-0.047,0.417,0.1,1.029-0.278,1.116C8.986,38.194,8.986,37.823,8.986,37.451z"/>
<path fill-rule="evenodd" clip-rule="evenodd" fill="#303030" d="M84.795,38.009c-0.404-0.153-1.44,0.325-1.393-0.279
	C83.808,37.882,84.843,37.404,84.795,38.009z"/>
<path fill-rule="evenodd" clip-rule="evenodd" fill="#303030" d="M83.124,40.517c0.371,0,0.743,0,1.114,0c0,0.093,0,0.186,0,0.279
	C83.821,40.749,83.21,40.896,83.124,40.517z"/>
<path fill-rule="evenodd" clip-rule="evenodd" fill="#303030" d="M80.335,52.501c0.617,0.035,0.119,1.183,0.281,1.672
	C79.999,54.139,80.496,52.992,80.335,52.501z"/>
<path fill-rule="evenodd" clip-rule="evenodd" fill="#303030" d="M78.386,54.731c0.615,0.035,0.118,1.183,0.279,1.672
	c-0.095,0-0.187,0-0.279,0C78.386,55.846,78.386,55.289,78.386,54.731z"/>
<path fill-rule="evenodd" clip-rule="evenodd" fill="#303030" d="M99.566,55.01c0.052-0.413,0.675-0.255,1.115-0.279
	c0,0.093,0,0.186,0,0.279C100.312,55.01,99.938,55.01,99.566,55.01z"/>
<path fill-rule="evenodd" clip-rule="evenodd" fill="#303030" d="M95.665,55.289c0.053-0.413,0.674-0.255,1.114-0.279
	c0,0.093,0,0.186,0,0.279C96.409,55.289,96.036,55.289,95.665,55.289z"/>
<path fill-rule="evenodd" clip-rule="evenodd" fill="#303030" d="M84.238,56.125c0.052-0.413,0.673-0.256,1.115-0.279
	c0,0.093,0,0.186,0,0.279C84.981,56.125,84.608,56.125,84.238,56.125z"/>
<path fill-rule="evenodd" clip-rule="evenodd" fill="#A5A5A5" d="M5.084,56.403c-0.199-0.452,1.314-0.452,1.115,0
	C5.827,56.403,5.456,56.403,5.084,56.403z"/>
<path fill-rule="evenodd" clip-rule="evenodd" fill="#303030" d="M76.713,56.683c0.053-0.413,0.674-0.255,1.114-0.279
	c0,0.093,0,0.186,0,0.279C77.456,56.683,77.084,56.683,76.713,56.683z"/>
<path fill-rule="evenodd" clip-rule="evenodd" fill="#303030" d="M118.799,58.354c0.457-0.045,0.457,1.719,0,1.672
	C118.799,59.469,118.799,58.913,118.799,58.354z"/>
<path fill-rule="evenodd" clip-rule="evenodd" fill="#D6D6D6" d="M2.854,58.634c0,0.37,0,0.743,0,1.113
	C2.402,59.948,2.402,58.433,2.854,58.634z"/>
<path fill-rule="evenodd" clip-rule="evenodd" fill="#303030" d="M46.055,58.913c0.052-0.413,0.674-0.257,1.115-0.278
	c0,0.092,0,0.185,0,0.278C46.798,58.913,46.426,58.913,46.055,58.913z"/>
<path fill-rule="evenodd" clip-rule="evenodd" fill="#303030" d="M84.517,58.913c0-0.094,0-0.187,0-0.278c0.373,0,0.743,0,1.116,0
	C85.58,59.045,84.957,58.888,84.517,58.913z"/>
<path fill-rule="evenodd" clip-rule="evenodd" fill="#303030" d="M76.992,59.469c0-0.092,0-0.187,0-0.278c0.37,0,0.743,0,1.113,0
	C78.056,59.603,77.433,59.446,76.992,59.469z"/>
<path fill-rule="evenodd" clip-rule="evenodd" fill="#303030" d="M80.895,60.026c0.615,0.035,0.118,1.184,0.278,1.673
	C80.556,61.664,81.055,60.517,80.895,60.026z"/>
<path fill-rule="evenodd" clip-rule="evenodd" fill="#303030" d="M19.298,60.863c0.052-0.413,0.673-0.256,1.115-0.278
	c0,0.093,0,0.186,0,0.278C20.042,60.863,19.67,60.863,19.298,60.863z"/>
<path fill-rule="evenodd" clip-rule="evenodd" fill="#303030" d="M57.761,60.863c0-0.093,0-0.186,0-0.278c0.372,0,0.743,0,1.115,0
	C58.823,60.997,58.202,60.839,57.761,60.863z"/>
<path fill-rule="evenodd" clip-rule="evenodd" fill="#303030" d="M78.943,61.977c0.603-0.047,0.126,0.989,0.278,1.395
	C78.616,63.419,79.096,62.383,78.943,61.977z"/>
<path fill-rule="evenodd" clip-rule="evenodd" fill="#303030" d="M79.5,63.372c0.034-0.616,1.182-0.119,1.673-0.279
	C81.137,63.708,79.991,63.21,79.5,63.372z"/>
<path fill-rule="evenodd" clip-rule="evenodd" fill="#303030" d="M114.618,68.11c-0.127-0.456,1.519-0.456,1.394,0
	C115.547,68.11,115.082,68.11,114.618,68.11z"/>
<path fill-rule="evenodd" clip-rule="evenodd" fill="#6F6F6F" d="M114.618,68.11c0.464,0,0.929,0,1.394,0c0,0.278,0,0.557,0,0.836
	c0,0.558,0,1.114,0,1.673c-0.372,0-0.743,0-1.115,0c-0.152-0.406,0.326-1.44-0.278-1.395
	C114.618,68.853,114.618,68.481,114.618,68.11z"/>
<path fill-rule="evenodd" clip-rule="evenodd" fill="#303030" d="M116.012,68.946c0.615,0.034,0.118,1.183,0.278,1.673
	c-0.094,0-0.186,0-0.278,0C116.012,70.06,116.012,69.503,116.012,68.946z"/>
<path fill-rule="evenodd" clip-rule="evenodd" fill="#303030" d="M114.618,69.224c0.604-0.046,0.126,0.988,0.278,1.395
	c0,0.092,0,0.185,0,0.278c-0.187,0-0.371,0-0.558,0C114.66,70.567,114.653,69.911,114.618,69.224z"/>
<path fill-rule="evenodd" clip-rule="evenodd" fill="#303030" d="M123.259,70.338c0.052-0.411,0.673-0.255,1.113-0.278
	c0,0.094,0,0.187,0,0.278C124.002,70.338,123.629,70.338,123.259,70.338z"/>
<path fill-rule="evenodd" clip-rule="evenodd" fill="#6F6F6F" d="M124.372,70.338c0-0.092,0-0.185,0-0.278c0.465,0,0.93,0,1.395,0
	c0,0.094,0,0.187,0,0.278C125.302,70.338,124.837,70.338,124.372,70.338z"/>
<path fill-rule="evenodd" clip-rule="evenodd" fill="#A5A5A5" d="M125.767,70.338c0-0.092,0-0.185,0-0.278c0.371,0,0.743,0,1.114,0
	c0,0.094,0,0.187,0,0.278C126.51,70.338,126.138,70.338,125.767,70.338z"/>
<path fill-rule="evenodd" clip-rule="evenodd" fill="#D6D6D6" d="M126.881,70.338c0-0.092,0-0.185,0-0.278c0.465,0,0.93,0,1.394,0
	C128.321,70.666,127.285,70.186,126.881,70.338z"/>
<path fill-rule="evenodd" clip-rule="evenodd" fill="#303030" d="M118.521,70.619c0.05-0.413,0.673-0.257,1.113-0.28
	c0,0.094,0,0.187,0,0.28C119.264,70.619,118.891,70.619,118.521,70.619z"/>
<path fill-rule="evenodd" clip-rule="evenodd" fill="#A5A5A5" d="M114.896,70.897c0-0.094,0-0.187,0-0.278c0.372,0,0.743,0,1.115,0
	c0.093,0,0.185,0,0.278,0c0.279,0,0.558,0,0.836,0C116.918,71.247,115.563,70.726,114.896,70.897z"/>
<path fill-rule="evenodd" clip-rule="evenodd" fill="#D6D6D6" d="M125.21,72.847c-0.049-0.604,0.987-0.125,1.393-0.278
	c0,0.093,0,0.186,0,0.278C126.138,72.847,125.673,72.847,125.21,72.847z"/>
<path fill-rule="evenodd" clip-rule="evenodd" fill="#A5A5A5" d="M126.603,72.847c0-0.093,0-0.186,0-0.278c0.464,0,0.929,0,1.394,0
	c0,0.093,0,0.186,0,0.278C127.531,72.847,127.066,72.847,126.603,72.847z"/>
<path fill-rule="evenodd" clip-rule="evenodd" fill="#A5A5A5" d="M121.307,73.126c0.053-0.413,0.674-0.256,1.114-0.279
	c0,0.093,0,0.187,0,0.279C122.051,73.126,121.678,73.126,121.307,73.126z"/>
<path fill-rule="evenodd" clip-rule="evenodd" fill="#6F6F6F" d="M122.421,73.126c0-0.093,0-0.187,0-0.279c0.373,0,0.743,0,1.116,0
	c0,0.093,0,0.187,0,0.279C123.164,73.126,122.794,73.126,122.421,73.126z"/>
<path fill-rule="evenodd" clip-rule="evenodd" fill="#303030" d="M123.537,73.126c0-0.093,0-0.187,0-0.279c0.37,0,0.743,0,1.113,0
	C124.599,73.259,123.978,73.103,123.537,73.126z"/>
<path fill-rule="evenodd" clip-rule="evenodd" fill="#6F6F6F" d="M115.175,75.077c0.038-0.687,0.042-1.342-0.278-1.672
	c0.465,0,0.93,0,1.394,0c0.152,0.406-0.326,1.44,0.279,1.394c0,0.465,0,0.93,0,1.394c-0.465,0-0.93,0-1.395,0
	C115.175,75.821,115.175,75.449,115.175,75.077z"/>
<path fill-rule="evenodd" clip-rule="evenodd" fill="#303030" d="M116.29,73.405c0.093,0,0.185,0,0.279,0c0,0.465,0,0.929,0,1.394
	C115.964,74.845,116.442,73.811,116.29,73.405z"/>
<path fill-rule="evenodd" clip-rule="evenodd" fill="#303030" d="M46.891,87.619c-0.125-0.454,1.52-0.454,1.394,0
	C47.82,87.619,47.355,87.619,46.891,87.619z"/>
<path fill-rule="evenodd" clip-rule="evenodd" fill="#A5A5A5" d="M85.911,92.357c0.623,0.12,0.112,1.375,0.278,1.951
	c-0.092,0-0.187,0-0.278,0C85.911,93.659,85.911,93.007,85.911,92.357z"/>
<path fill-rule="evenodd" clip-rule="evenodd" fill="#D6D6D6" d="M88.419,92.916c0.093,0,0.187,0,0.278,0c0,0.371,0,0.743,0,1.114
	c-0.092,0-0.186,0-0.278,0C88.419,93.659,88.419,93.287,88.419,92.916z"/>
<path fill-rule="evenodd" clip-rule="evenodd" fill="#D6D6D6" d="M85.911,94.308c0.092,0,0.187,0,0.278,0
	c-0.024,0.441,0.134,1.063-0.278,1.115C85.911,95.051,85.911,94.68,85.911,94.308z"/>
<path fill-rule="evenodd" clip-rule="evenodd" fill="#A5A5A5" d="M11.773,22.122c0.44-0.674,0.997-1.232,1.673-1.672
	C13.006,21.125,12.449,21.683,11.773,22.122z"/>
<path fill-rule="evenodd" clip-rule="evenodd" fill="#6F6F6F" d="M1.183,55.846c0.251-0.491,0.623-0.863,1.115-1.115
	C2.045,55.223,1.674,55.594,1.183,55.846z"/>
<path fill-rule="evenodd" clip-rule="evenodd" fill="#6F6F6F" d="M14.282,88.456c-0.952-0.606-1.672,1-3.066,0.836
	c0.114-0.672-0.509-0.605-0.279-1.393c0.862-0.347,1.729-0.688,2.23-1.395C13.738,86.955,13.87,87.845,14.282,88.456z"/>
<path fill-rule="evenodd" clip-rule="evenodd" fill="#303030" d="M15.675,90.685c0.675,0.44,1.233,0.997,1.672,1.672
	C16.672,91.917,16.115,91.361,15.675,90.685z"/>
<path fill-rule="evenodd" clip-rule="evenodd" fill="#303030" d="M86.468,85.389c-0.675-0.438-1.232-0.996-1.673-1.672
	C85.47,84.157,86.029,84.714,86.468,85.389z"/>
<path fill-rule="evenodd" clip-rule="evenodd" fill="#303030" d="M114.618,73.683c0-0.092,0-0.185,0-0.278c0.092,0,0.186,0,0.278,0
	c0.32,0.33,0.316,0.985,0.278,1.672C114.399,75.203,115.393,73.558,114.618,73.683z"/>
<path fill-rule="evenodd" clip-rule="evenodd" fill="#303030" d="M114.896,32.713c-0.676-0.439-1.232-0.997-1.673-1.672
	C113.898,31.48,114.457,32.038,114.896,32.713z"/>
<path fill-rule="evenodd" clip-rule="evenodd" fill="#6F6F6F" d="M92.601,35.222c0.438-0.675,0.995-1.233,1.671-1.672
	C93.832,34.224,93.275,34.782,92.601,35.222z"/>
<path fill-rule="evenodd" clip-rule="evenodd" fill="#D6D6D6" d="M75.04,33.271c0.628,0.674,1.276,1.324,1.952,1.951
	C75.996,34.916,75.345,34.266,75.04,33.271z"/>
<path fill-rule="evenodd" clip-rule="evenodd" fill="#D6D6D6" d="M17.347,92.357c-0.439-0.675-0.997-1.231-1.672-1.672
	c0-0.093,0-0.187,0-0.278c0.768,0.533,1.418,1.183,1.952,1.95C17.533,92.357,17.44,92.357,17.347,92.357z"/>
<path fill-rule="evenodd" clip-rule="evenodd" fill="#A5A5A5" d="M13.724,23.794c0.346-0.583,0.811-1.047,1.394-1.394
	C14.771,22.984,14.307,23.449,13.724,23.794z"/>
<path fill-rule="evenodd" clip-rule="evenodd" fill="#303030" d="M117.961,56.125c-0.49-0.252-0.861-0.624-1.113-1.115
	C117.338,55.262,117.711,55.634,117.961,56.125z"/>
<path fill-rule="evenodd" clip-rule="evenodd" fill="#6F6F6F" d="M17.626,88.734c0.674,0.439,1.232,0.997,1.672,1.673
	C18.623,89.967,18.066,89.409,17.626,88.734z"/>
<path fill-rule="evenodd" clip-rule="evenodd" fill="#303030" d="M111.553,33.271c0.49,0.251,0.861,0.623,1.113,1.115
	C112.176,34.133,111.803,33.762,111.553,33.271z"/>
<path fill-rule="evenodd" clip-rule="evenodd" fill="#303030" d="M96.779,34.664c0.44-0.675,0.998-1.232,1.673-1.672
	C98.014,33.667,97.456,34.224,96.779,34.664z"/>
<path fill-rule="evenodd" clip-rule="evenodd" fill="#D6D6D6" d="M94.55,36.894c0.44-0.675,0.997-1.233,1.673-1.672
	c0,0.093,0,0.186,0,0.279C95.489,35.789,95.285,36.605,94.55,36.894z"/>
<path fill-rule="evenodd" clip-rule="evenodd" fill="#6F6F6F" d="M73.089,35.222c0.768,0.533,1.419,1.184,1.951,1.951
	C74.273,36.64,73.622,35.989,73.089,35.222z"/>
<path fill-rule="evenodd" clip-rule="evenodd" fill="#303030" d="M94.55,36.894c0.735-0.289,0.939-1.105,1.673-1.394
	c-0.439,0.675-0.996,1.232-1.673,1.672C94.55,37.08,94.55,36.987,94.55,36.894z"/>
<path fill-rule="evenodd" clip-rule="evenodd" fill="#6F6F6F" d="M42.431,11.81c0.389-0.54,1.443-0.416,1.951-0.836
	c-0.858,0.65,1.531,2.671,0,3.066C43.026,14.974,43.376,12.175,42.431,11.81z"/>
<path fill-rule="evenodd" clip-rule="evenodd" fill="#6F6F6F" d="M43.268,8.465c-0.235,0.601-1.222,0.45-1.672,0.836
	c-0.172-1.036-0.664-1.751-0.836-2.787c0.171-0.387,1.073-0.042,1.115-0.557C42.63,6.5,42.461,7.971,43.268,8.465z"/>
<path fill-rule="evenodd" clip-rule="evenodd" fill="#6F6F6F" d="M6.756,33.828c-0.17,0.666,0.35,2.022-0.278,2.23
	C6.647,35.391,6.128,34.036,6.756,33.828z"/>
<path fill-rule="evenodd" clip-rule="evenodd" fill="#A5A5A5" d="M9.265,35.779c0,0.558,0,1.115,0,1.672c-0.093,0-0.186,0-0.278,0
	C9.146,36.961,8.649,35.813,9.265,35.779z"/>
<path fill-rule="evenodd" clip-rule="evenodd" fill="#6F6F6F" d="M85.073,38.009c0.12-0.623,1.375-0.113,1.951-0.279
	C86.904,38.353,85.652,37.843,85.073,38.009z"/>
<path fill-rule="evenodd" clip-rule="evenodd" fill="#6F6F6F" d="M6.478,38.287c0,0.929,0,1.858,0,2.788
	c-0.636-0.387-0.104-1.94-0.279-2.788C6.292,38.287,6.385,38.287,6.478,38.287z"/>
<path fill-rule="evenodd" clip-rule="evenodd" fill="#6F6F6F" d="M84.238,40.517c0.651,0,1.3,0,1.951,0
	c-0.12,0.623-1.374,0.113-1.951,0.279C84.238,40.703,84.238,40.61,84.238,40.517z"/>
<path fill-rule="evenodd" clip-rule="evenodd" fill="#6F6F6F" d="M109.88,54.174c0.208-0.628,1.563-0.109,2.229-0.279
	C111.901,54.524,110.547,54.004,109.88,54.174z"/>
<path fill-rule="evenodd" clip-rule="evenodd" fill="#6F6F6F" d="M106.536,54.453c0.206-0.628,1.563-0.109,2.228-0.279
	C108.558,54.802,107.201,54.283,106.536,54.453z"/>
<path fill-rule="evenodd" clip-rule="evenodd" fill="#6F6F6F" d="M103.19,54.731c0.208-0.628,1.563-0.108,2.229-0.278
	C105.212,55.081,103.857,54.562,103.19,54.731z"/>
<path fill-rule="evenodd" clip-rule="evenodd" fill="#A5A5A5" d="M100.682,54.731c0.465,0,0.93,0,1.395,0
	c0.046,0.605-0.989,0.126-1.395,0.279C100.682,54.917,100.682,54.824,100.682,54.731z"/>
<path fill-rule="evenodd" clip-rule="evenodd" fill="#6F6F6F" d="M96.779,55.01c0.465,0,0.93,0,1.395,0
	c0.046,0.604-0.987,0.126-1.395,0.279C96.779,55.196,96.779,55.103,96.779,55.01z"/>
<path fill-rule="evenodd" clip-rule="evenodd" fill="#6F6F6F" d="M92.041,55.567c0.297-0.632,1.753-0.106,2.509-0.279
	C94.253,55.921,92.799,55.396,92.041,55.567z"/>
<path fill-rule="evenodd" clip-rule="evenodd" fill="#6F6F6F" d="M88.141,55.846c0.297-0.633,1.751-0.106,2.509-0.279
	C90.353,56.2,88.896,55.674,88.141,55.846z"/>
<path fill-rule="evenodd" clip-rule="evenodd" fill="#A5A5A5" d="M85.354,55.846c0.558,0,1.114,0,1.671,0
	c-0.033,0.615-1.182,0.118-1.671,0.279C85.354,56.032,85.354,55.939,85.354,55.846z"/>
<path fill-rule="evenodd" clip-rule="evenodd" fill="#A5A5A5" d="M81.451,56.125c0.557,0,1.114,0,1.673,0
	c-0.036,0.616-1.184,0.118-1.673,0.278C81.451,56.311,81.451,56.218,81.451,56.125z"/>
<path fill-rule="evenodd" clip-rule="evenodd" fill="#6F6F6F" d="M73.089,56.961c0.297-0.632,1.753-0.106,2.509-0.278
	C75.301,57.315,73.847,56.788,73.089,56.961z"/>
<path fill-rule="evenodd" clip-rule="evenodd" fill="#6F6F6F" d="M108.764,56.961c0.208-0.628,1.564-0.109,2.229-0.278
	C110.787,57.311,109.431,56.791,108.764,56.961z"/>
<path fill-rule="evenodd" clip-rule="evenodd" fill="#6F6F6F" d="M69.188,57.24c0.296-0.632,1.752-0.106,2.508-0.279
	C71.4,57.593,69.944,57.067,69.188,57.24z"/>
<path fill-rule="evenodd" clip-rule="evenodd" fill="#6F6F6F" d="M105.42,57.24c0.208-0.629,1.563-0.109,2.229-0.279
	C107.441,57.589,106.087,57.07,105.42,57.24z"/>
<path fill-rule="evenodd" clip-rule="evenodd" fill="#6F6F6F" d="M65.286,57.518c0.297-0.632,1.752-0.105,2.508-0.278
	C67.498,57.873,66.042,57.345,65.286,57.518z"/>
<path fill-rule="evenodd" clip-rule="evenodd" fill="#6F6F6F" d="M102.076,57.518c0.12-0.623,1.372-0.113,1.949-0.278
	C103.907,57.863,102.653,57.353,102.076,57.518z"/>
<path fill-rule="evenodd" clip-rule="evenodd" fill="#6F6F6F" d="M61.384,57.797c0.296-0.633,1.752-0.106,2.508-0.279
	C63.596,58.151,62.14,57.625,61.384,57.797z"/>
<path fill-rule="evenodd" clip-rule="evenodd" fill="#6F6F6F" d="M98.174,57.797c0.297-0.633,1.751-0.106,2.508-0.279
	C100.386,58.151,98.929,57.625,98.174,57.797z"/>
<path fill-rule="evenodd" clip-rule="evenodd" fill="#6F6F6F" d="M57.761,58.076c0.296-0.633,1.752-0.106,2.509-0.278
	C59.972,58.429,58.517,57.904,57.761,58.076z"/>
<path fill-rule="evenodd" clip-rule="evenodd" fill="#6F6F6F" d="M94.55,58.076c0.208-0.628,1.564-0.109,2.229-0.278
	C96.573,58.425,95.217,57.906,94.55,58.076z"/>
<path fill-rule="evenodd" clip-rule="evenodd" fill="#6F6F6F" d="M53.858,58.354c0.296-0.632,1.752-0.105,2.509-0.278
	C56.071,58.708,54.615,58.182,53.858,58.354z"/>
<path fill-rule="evenodd" clip-rule="evenodd" fill="#6F6F6F" d="M90.649,58.354c0.296-0.632,1.751-0.105,2.508-0.278
	C92.86,58.708,91.404,58.182,90.649,58.354z"/>
<path fill-rule="evenodd" clip-rule="evenodd" fill="#6F6F6F" d="M49.956,58.634c0.297-0.634,1.753-0.106,2.509-0.28
	C52.168,58.988,50.713,58.46,49.956,58.634z"/>
<path fill-rule="evenodd" clip-rule="evenodd" fill="#6F6F6F" d="M86.746,58.634c0.297-0.634,1.753-0.106,2.509-0.28
	C88.958,58.988,87.504,58.46,86.746,58.634z"/>
<path fill-rule="evenodd" clip-rule="evenodd" fill="#A5A5A5" d="M47.169,58.634c0.558,0,1.115,0,1.672,0
	c-0.035,0.614-1.183,0.118-1.672,0.278C47.169,58.819,47.169,58.726,47.169,58.634z"/>
<path fill-rule="evenodd" clip-rule="evenodd" fill="#6F6F6F" d="M83.124,58.913c-0.048-0.605,0.988-0.127,1.393-0.278
	c0,0.092,0,0.185,0,0.278C84.052,58.913,83.589,58.913,83.124,58.913z"/>
<path fill-rule="evenodd" clip-rule="evenodd" fill="#303030" d="M116.012,59.748c0-0.465,0-0.929,0-1.394
	C116.467,58.229,116.467,59.874,116.012,59.748z"/>
<path fill-rule="evenodd" clip-rule="evenodd" fill="#6F6F6F" d="M42.431,59.191c0.297-0.632,1.752-0.106,2.509-0.278
	C44.643,59.544,43.188,59.018,42.431,59.191z"/>
<path fill-rule="evenodd" clip-rule="evenodd" fill="#D6D6D6" d="M78.386,59.191c0.567-0.641,2.314-0.102,3.344-0.278
	c-0.044,0.326-0.509,0.234-0.835,0.278c-0.743,0-1.486,0-2.229,0C78.57,59.191,78.479,59.191,78.386,59.191z"/>
<path fill-rule="evenodd" clip-rule="evenodd" fill="#6F6F6F" d="M38.529,59.469c0.296-0.632,1.752-0.106,2.509-0.278
	C40.741,59.823,39.286,59.297,38.529,59.469z"/>
<path fill-rule="evenodd" clip-rule="evenodd" fill="#A5A5A5" d="M75.319,59.469c0.035-0.615,1.182-0.118,1.673-0.278
	c0,0.092,0,0.187,0,0.278C76.435,59.469,75.876,59.469,75.319,59.469z"/>
<path fill-rule="evenodd" clip-rule="evenodd" fill="#6F6F6F" d="M34.627,59.748c0.386-0.635,1.94-0.104,2.787-0.278
	C37.028,60.104,35.475,59.574,34.627,59.748z"/>
<path fill-rule="evenodd" clip-rule="evenodd" fill="#D6D6D6" d="M70.581,59.748c0.034-0.615,1.182-0.118,1.673-0.278
	c0,0.093,0,0.187,0,0.278C71.696,59.748,71.138,59.748,70.581,59.748z"/>
<path fill-rule="evenodd" clip-rule="evenodd" fill="#6F6F6F" d="M72.254,59.469c0.651,0,1.3,0,1.951,0
	c-0.12,0.623-1.374,0.113-1.951,0.278C72.254,59.656,72.254,59.562,72.254,59.469z"/>
<path fill-rule="evenodd" clip-rule="evenodd" fill="#6F6F6F" d="M31.004,60.026c0.297-0.632,1.752-0.104,2.509-0.278
	C33.216,60.38,31.76,59.854,31.004,60.026z"/>
<path fill-rule="evenodd" clip-rule="evenodd" fill="#6F6F6F" d="M27.103,60.305c0.296-0.633,1.752-0.105,2.508-0.279
	C29.314,60.66,27.859,60.132,27.103,60.305z"/>
<path fill-rule="evenodd" clip-rule="evenodd" fill="#6F6F6F" d="M63.892,60.305c0.296-0.633,1.752-0.105,2.509-0.279
	C66.104,60.66,64.649,60.132,63.892,60.305z"/>
<path fill-rule="evenodd" clip-rule="evenodd" fill="#6F6F6F" d="M59.99,60.584c0.297-0.633,1.752-0.106,2.509-0.279
	C62.202,60.938,60.747,60.412,59.99,60.584z"/>
<path fill-rule="evenodd" clip-rule="evenodd" fill="#A5A5A5" d="M20.413,60.584c0.558,0,1.115,0,1.672,0
	c-0.035,0.615-1.182,0.118-1.672,0.278C20.413,60.77,20.413,60.677,20.413,60.584z"/>
<path fill-rule="evenodd" clip-rule="evenodd" fill="#6F6F6F" d="M56.367,60.863c-0.047-0.604,0.989-0.126,1.394-0.278
	c0,0.093,0,0.186,0,0.278C57.296,60.863,56.832,60.863,56.367,60.863z"/>
<path fill-rule="evenodd" clip-rule="evenodd" fill="#6F6F6F" d="M15.954,61.142c0.207-0.629,1.563-0.109,2.229-0.279
	C17.976,61.492,16.62,60.972,15.954,61.142z"/>
<path fill-rule="evenodd" clip-rule="evenodd" fill="#6F6F6F" d="M12.609,61.42c0.208-0.629,1.563-0.109,2.23-0.278
	C14.632,61.77,13.276,61.25,12.609,61.42z"/>
<path fill-rule="evenodd" clip-rule="evenodd" fill="#6F6F6F" d="M48.563,61.42c0.296-0.632,1.752-0.106,2.509-0.278
	C50.775,61.774,49.319,61.249,48.563,61.42z"/>
<path fill-rule="evenodd" clip-rule="evenodd" fill="#6F6F6F" d="M9.265,61.699c0.208-0.628,1.563-0.107,2.23-0.278
	C11.287,62.048,9.931,61.529,9.265,61.699z"/>
<path fill-rule="evenodd" clip-rule="evenodd" fill="#D6D6D6" d="M43.825,61.699c0.035-0.614,1.183-0.118,1.672-0.278
	c0,0.093,0,0.186,0,0.278C44.94,61.699,44.382,61.699,43.825,61.699z"/>
<path fill-rule="evenodd" clip-rule="evenodd" fill="#6F6F6F" d="M45.497,61.42c0.558,0,1.115,0,1.672,0
	c-0.035,0.615-1.183,0.118-1.672,0.278C45.497,61.606,45.497,61.513,45.497,61.42z"/>
<path fill-rule="evenodd" clip-rule="evenodd" fill="#6F6F6F" d="M5.92,61.977c0.208-0.628,1.563-0.107,2.229-0.278
	C7.942,62.327,6.586,61.808,5.92,61.977z"/>
<path fill-rule="evenodd" clip-rule="evenodd" fill="#6F6F6F" d="M37.136,62.256c0.296-0.633,1.752-0.106,2.508-0.279
	C39.348,62.611,37.892,62.083,37.136,62.256z"/>
<path fill-rule="evenodd" clip-rule="evenodd" fill="#6F6F6F" d="M33.234,62.536c0.296-0.633,1.752-0.106,2.509-0.279
	C35.446,62.889,33.99,62.362,33.234,62.536z"/>
<path fill-rule="evenodd" clip-rule="evenodd" fill="#6F6F6F" d="M25.708,63.092c0.296-0.632,1.752-0.106,2.509-0.278
	C27.921,63.447,26.465,62.92,25.708,63.092z"/>
<path fill-rule="evenodd" clip-rule="evenodd" fill="#6F6F6F" d="M21.807,63.372c0.296-0.633,1.752-0.105,2.508-0.279
	C24.019,63.725,22.563,63.199,21.807,63.372z"/>
<path fill-rule="evenodd" clip-rule="evenodd" fill="#6F6F6F" d="M18.183,63.65c0.208-0.629,1.564-0.108,2.23-0.278
	C20.206,64,18.85,63.48,18.183,63.65z"/>
<path fill-rule="evenodd" clip-rule="evenodd" fill="#6F6F6F" d="M14.839,63.929c0.207-0.629,1.563-0.109,2.229-0.279
	C16.861,64.279,15.506,63.758,14.839,63.929z"/>
<path fill-rule="evenodd" clip-rule="evenodd" fill="#6F6F6F" d="M11.216,64.208c0.297-0.632,1.752-0.106,2.508-0.278
	C13.428,64.561,11.972,64.035,11.216,64.208z"/>
<path fill-rule="evenodd" clip-rule="evenodd" fill="#6F6F6F" d="M8.15,64.486c0.12-0.623,1.374-0.112,1.951-0.278
	C9.981,64.831,8.727,64.321,8.15,64.486z"/>
<path fill-rule="evenodd" clip-rule="evenodd" fill="#303030" d="M4.806,64.486c0.743,0,1.486,0,2.229,0
	C6.911,64.946,4.929,64.946,4.806,64.486z"/>
<path fill-rule="evenodd" clip-rule="evenodd" fill="#6F6F6F" d="M110.715,71.175c0.297-0.633,1.753-0.106,2.509-0.278
	C112.927,71.529,111.473,71.002,110.715,71.175z"/>
<path fill-rule="evenodd" clip-rule="evenodd" fill="#6F6F6F" d="M107.371,71.454c0.209-0.628,1.563-0.108,2.23-0.278
	C109.393,71.804,108.036,71.285,107.371,71.454z"/>
<path fill-rule="evenodd" clip-rule="evenodd" fill="#6F6F6F" d="M104.585,71.733c0.12-0.624,1.372-0.113,1.951-0.279
	C106.416,72.078,105.161,71.567,104.585,71.733z"/>
<path fill-rule="evenodd" clip-rule="evenodd" fill="#6F6F6F" d="M101.518,72.011c0.12-0.624,1.374-0.113,1.951-0.278
	C103.349,72.356,102.095,71.845,101.518,72.011z"/>
<path fill-rule="evenodd" clip-rule="evenodd" fill="#6F6F6F" d="M99.009,72.29c0.036-0.615,1.183-0.118,1.673-0.278
	C100.647,72.626,99.5,72.129,99.009,72.29z"/>
<path fill-rule="evenodd" clip-rule="evenodd" fill="#6F6F6F" d="M96.223,72.569c0.036-0.615,1.182-0.118,1.673-0.279
	C97.859,72.906,96.713,72.409,96.223,72.569z"/>
<path fill-rule="evenodd" clip-rule="evenodd" fill="#6F6F6F" d="M93.992,72.847c0.036-0.615,1.183-0.118,1.673-0.278
	C95.632,73.184,94.483,72.688,93.992,72.847z"/>
<path fill-rule="evenodd" clip-rule="evenodd" fill="#6F6F6F" d="M127.996,72.569c0.558,0,1.114,0,1.671,0
	c-0.034,0.615-1.182,0.119-1.671,0.278C127.996,72.754,127.996,72.662,127.996,72.569z"/>
<path fill-rule="evenodd" clip-rule="evenodd" fill="#6F6F6F" d="M91.763,73.126c-0.046-0.605,0.99-0.126,1.395-0.279
	C93.203,73.452,92.168,72.974,91.763,73.126z"/>
<path fill-rule="evenodd" clip-rule="evenodd" fill="#6F6F6F" d="M89.533,73.405c-0.046-0.604,0.989-0.126,1.395-0.278
	C90.974,73.731,89.938,73.252,89.533,73.405z"/>
<path fill-rule="evenodd" clip-rule="evenodd" fill="#6F6F6F" d="M87.304,73.683c-0.047-0.604,0.989-0.126,1.394-0.278
	C88.744,74.009,87.708,73.531,87.304,73.683z"/>
<path fill-rule="evenodd" clip-rule="evenodd" fill="#A5A5A5" d="M112.945,73.683c0.035-0.615,1.184-0.118,1.673-0.278
	c0,0.094,0,0.187,0,0.278C114.061,73.683,113.504,73.683,112.945,73.683z"/>
<path fill-rule="evenodd" clip-rule="evenodd" fill="#6F6F6F" d="M109.602,73.962c0.208-0.629,1.563-0.108,2.229-0.279
	C111.623,74.312,110.267,73.792,109.602,73.962z"/>
<path fill-rule="evenodd" clip-rule="evenodd" fill="#6F6F6F" d="M106.256,74.242c0.208-0.63,1.564-0.109,2.229-0.279
	C108.279,74.591,106.923,74.071,106.256,74.242z"/>
<path fill-rule="evenodd" clip-rule="evenodd" fill="#6F6F6F" d="M103.469,74.52c0.12-0.623,1.374-0.113,1.951-0.278
	C105.3,74.865,104.046,74.355,103.469,74.52z"/>
<path fill-rule="evenodd" clip-rule="evenodd" fill="#6F6F6F" d="M100.682,74.798c0.036-0.615,1.183-0.118,1.673-0.278
	C102.318,75.135,101.173,74.638,100.682,74.798z"/>
<path fill-rule="evenodd" clip-rule="evenodd" fill="#6F6F6F" d="M97.896,75.077c0.12-0.623,1.372-0.112,1.951-0.278
	C99.727,75.421,98.473,74.912,97.896,75.077z"/>
<path fill-rule="evenodd" clip-rule="evenodd" fill="#6F6F6F" d="M93.157,75.634c0.034-0.615,1.182-0.118,1.671-0.279
	C94.794,75.971,93.646,75.474,93.157,75.634z"/>
<path fill-rule="evenodd" clip-rule="evenodd" fill="#6F6F6F" d="M15.675,83.717c0,0.465,0,0.929,0,1.394
	c0.882,0.798,2.556-1.935,3.066,0c-0.031,1.363-1.909,0.879-2.23,1.951C15.973,86.383,14.845,84.839,15.675,83.717z"/>
<path fill-rule="evenodd" clip-rule="evenodd" fill="#6F6F6F" d="M46.333,90.407c-0.045-0.458,1.719-0.458,1.673,0
	C47.448,90.407,46.891,90.407,46.333,90.407z"/>
<path fill-rule="evenodd" clip-rule="evenodd" fill="#6F6F6F" d="M26.823,93.472c0.49,0.16,1.638-0.337,1.672,0.278
	C28.006,93.59,26.858,94.088,26.823,93.472z"/>
<path fill-rule="evenodd" clip-rule="evenodd" fill="#6F6F6F" d="M88.697,94.03c-0.172,0.757,0.353,2.212-0.278,2.509
	c0-0.837,0-1.673,0-2.509C88.512,94.03,88.605,94.03,88.697,94.03z"/>
<path fill-rule="evenodd" clip-rule="evenodd" fill="#6F6F6F" d="M85.911,95.702c-0.16,0.49,0.336,1.638-0.278,1.672
	C85.793,96.885,85.296,95.737,85.911,95.702z"/>
<path fill-rule="evenodd" clip-rule="evenodd" fill="#FFFFFF" d="M43.268,8.465c5.306-1.986,10.431-4.147,16.166-6.688
	c1.858-0.825,3.826-2.16,5.853-1.672c0.834,0.201,2.039,1.345,2.508,2.508c0.352,0.873,0.358,2.961,0.558,4.18
	c0.919,5.629,1.919,10.933,3.066,16.166c0.906,4.139,1.599,7.537,3.622,10.313c0.305,0.996,0.956,1.646,1.952,1.951
	c1.771,1.201,3.647,2.298,6.41,2.508c-0.048,0.604,0.988,0.126,1.393,0.279c0.095,0,0.187,0,0.278,0
	c0.579-0.166,1.831,0.344,1.951-0.279c2.17-0.526,3.903-1.487,5.576-2.508c0.675-0.44,1.231-0.998,1.671-1.672
	c1.825-2.82,4.479-4.812,8.641-5.295c1.3,0,2.601,0,3.902,0c2.927,0.137,4.652,1.48,6.409,2.787c0.44,0.675,0.997,1.232,1.673,1.672
	c6.49,7.474,12.964,14.91,19.509,22.576c0.894,1.045,2.092,1.954,2.508,3.346c0,0.743,0,1.485,0,2.229
	c-0.547,1.8-1.524,3.921-2.508,6.131c-1.09,2.453-1.771,5.314-4.738,5.575c-0.557,0-1.113,0-1.671,0c-0.465,0-0.93,0-1.394,0
	c-0.405,0.153-1.441-0.326-1.393,0.278c-0.187,0-0.373,0-0.56,0c-0.37,0-0.743,0-1.113,0c-0.373,0-0.743,0-1.116,0
	c-0.44,0.023-1.062-0.134-1.114,0.279c-0.557,0-1.115,0-1.673,0c-0.847,0.174-2.399-0.357-2.786,0.278c-0.093,0-0.187,0-0.278,0
	c-0.095,0-0.187,0-0.279,0c-0.464,0-0.929,0-1.394,0c-0.093,0-0.187,0-0.278,0c-0.489,0.16-1.638-0.337-1.673,0.278
	c-0.371,0-0.744,0-1.114,0c-0.667,0.171-2.021-0.35-2.229,0.279c-0.373,0-0.744,0-1.116,0c-0.665,0.17-2.021-0.351-2.229,0.279
	c-0.279,0-0.558,0-0.836,0c-0.577,0.165-1.831-0.345-1.951,0.278c-0.371,0-0.743,0-1.114,0c-0.49,0.16-1.637-0.337-1.673,0.278
	c-0.278,0-0.557,0-0.835,0c-0.579,0.166-1.831-0.345-1.951,0.278c-0.781,0.334-1.924,0.307-3.067,0.278
	c-0.489,0.161-1.637-0.336-1.671,0.279c-5.465,0.852-11.321,1.313-16.444,2.509c0.022,1.134,1.257,1.22,1.952,1.672
	c1.803,1.178,4.085,2.609,6.13,3.902c0.44,0.676,0.998,1.233,1.673,1.672c0.938,1.384,1.949,2.696,1.951,5.018
	c0,0.836,0,1.672,0,2.509c0,0.371,0,0.743,0,1.114c0,0.836,0,1.672,0,2.509c-0.187,3.224-1.262,6.89-3.065,10.032
	c-1.9,3.313-4.263,6.786-8.919,5.297c-2.065-0.661-3.832-3.034-5.575-4.46c-0.319-0.262-0.819-0.325-1.114-0.558
	c-0.369-0.289-0.502-0.566-0.836-0.836c-0.656-0.53-1.381-0.922-1.951-1.394c-0.625-0.518-1.102-1.204-1.672-1.673
	c-3.615-2.976-7.625-6.008-11.148-8.918c-1.502-1.241-3.31-3.603-6.131-3.623c0.046-0.458-1.718-0.458-1.673,0
	c-5.102,1.771-8.426,5.323-14.771,5.854c-1.3,0-2.601,0-3.902,0c-4.443-0.203-7.724-1.568-10.033-3.903
	c-0.534-0.768-1.184-1.417-1.952-1.95c-0.703-0.413-1.152-1.078-1.393-1.951c-0.412-0.61-0.543-1.501-1.115-1.951
	c-1.308-3.401,0.451-6.208,3.902-7.246c1.843-0.556,4.348-0.693,6.689-1.115c18.16-3.266,35.821-6.5,53.513-9.755
	c11.287-2.077,22.31-3.763,33.723-5.853c1.88-0.345,4.61-0.352,5.019-2.788c0.455,0.126,0.455-1.519,0-1.394
	c-0.563-0.646-1.016-1.4-1.951-1.671c-0.038-0.459-1.913-0.459-1.951,0c-0.373,0-0.743,0-1.116,0
	c-0.665,0.169-2.021-0.35-2.229,0.278c-0.37,0-0.743,0-1.114,0c-0.667,0.17-2.021-0.35-2.229,0.279c-0.465,0-0.93,0-1.395,0
	c-0.577,0.165-1.829-0.344-1.949,0.278c-0.465,0-0.93,0-1.395,0c-0.757,0.173-2.211-0.354-2.508,0.279c-0.465,0-0.93,0-1.395,0
	c-0.665,0.169-2.021-0.35-2.229,0.278c-0.465,0-0.928,0-1.393,0c-0.757,0.173-2.212-0.354-2.508,0.278c-0.465,0-0.93,0-1.395,0
	c-0.756,0.174-2.212-0.354-2.509,0.28c-0.37,0-0.743,0-1.113,0c-0.373,0-0.743,0-1.116,0c-0.404,0.151-1.44-0.327-1.393,0.278
	c-0.465,0-0.93,0-1.395,0c-1.029,0.177-2.776-0.362-3.344,0.278c-0.094,0-0.186,0-0.28,0c-0.37,0-0.743,0-1.113,0
	c-0.491,0.16-1.638-0.337-1.673,0.278c-0.371,0-0.744,0-1.114,0c-0.651,0-1.3,0-1.951,0c-0.491,0.16-1.639-0.337-1.673,0.278
	c-0.093,0-0.186,0-0.278,0c-0.756,0.174-2.212-0.354-2.509,0.278c-0.464,0-0.929,0-1.393,0c-0.756,0.174-2.212-0.354-2.509,0.279
	c-0.464,0-0.929,0-1.394,0c-0.756,0.173-2.212-0.354-2.509,0.279c-0.371,0-0.743,0-1.114,0c-0.372,0-0.743,0-1.115,0
	c-0.405,0.152-1.44-0.326-1.394,0.278c-0.465,0-0.93,0-1.394,0c-0.756,0.173-2.211-0.354-2.508,0.279c-0.464,0-0.929,0-1.393,0
	c-0.757,0.172-2.212-0.354-2.509,0.278c-0.464,0-0.929,0-1.394,0c-0.557,0-1.115,0-1.672,0c-0.49,0.16-1.638-0.336-1.672,0.278
	c-0.092,0-0.186,0-0.278,0c-0.757,0.173-2.212-0.354-2.508,0.278c-0.465,0-0.93,0-1.394,0c-0.756,0.173-2.211-0.354-2.508,0.279
	c-0.464,0-0.929,0-1.394,0c-0.757,0.173-2.212-0.354-2.509,0.279c-0.372,0-0.743,0-1.115,0c-0.756,0.172-2.212-0.354-2.508,0.278
	c-0.464,0-0.929,0-1.394,0c-0.756,0.172-2.212-0.354-2.509,0.278c-0.464,0-0.929,0-1.393,0c-0.756,0.174-2.212-0.354-2.508,0.279
	c-0.465,0-0.929,0-1.394,0c-0.666,0.17-2.022-0.351-2.23,0.278c-0.372,0-0.743,0-1.114,0c-0.667,0.17-2.022-0.35-2.229,0.279
	c-0.372,0-0.744,0-1.115,0c-0.756,0.172-2.211-0.354-2.508,0.278c-0.372,0-0.743,0-1.115,0c-0.578,0.166-1.831-0.345-1.951,0.278
	c-0.372,0-0.743,0-1.115,0c-0.743,0-1.486,0-2.229,0c-2.474-0.313-4.004-1.57-4.459-3.901c0-0.929,0-1.858,0-2.787
	c-0.008-0.937,0.383-1.475,0.836-1.951c0.491-0.252,0.863-0.624,1.115-1.115c0.391-0.445,0.96-0.711,1.672-0.836
	c1.115,0,2.229,0,3.345,0c1.965,0.049,3.766,2.387,5.295,1.115c0.093,0,0.186,0,0.278,0c-0.16-0.489,0.337-1.637-0.278-1.672
	c-2.354-3.778-5.891-6.373-6.131-12.263c0-0.929,0-1.858,0-2.788c0-0.372,0-0.743,0-1.115c0-0.371,0-0.743,0-1.114
	c0.628-0.208,0.108-1.564,0.278-2.23c0.221-5.354,2.278-8.871,5.017-11.707c0.676-0.439,1.233-0.997,1.673-1.672
	c0.545-0.852,1.465-1.218,2.229-1.95c0.008-0.008,0.309-0.296,0.279-0.279c3.636-2.028,8.254-2.948,12.821-4.459
	c4.416-1.461,8.744-3.349,12.82-4.46C42.045,8.915,43.032,9.065,43.268,8.465z M73.089,35.222c-3.49-3.88-4.016-10.238-5.295-16.444
	c-0.539-2.619-1.212-5.288-1.672-7.804c-0.562-3.078-0.501-5.847-1.672-8.082c-3.48,1.027-6.549,2.834-9.755,4.181
	c-3.279,1.377-7.025,2.86-10.312,3.901c-0.508,0.421-1.563,0.296-1.951,0.836c-0.083,0.026-0.198-0.032-0.279,0
	c-0.887,0.352-2.148,1.165-2.787,1.394c-1.299,0.466-3.038,0.717-3.901,1.115c-1.915,0.883-3.751,1.339-5.575,1.952
	c-3.231,1.084-6.682,1.953-9.476,3.065c-1.019,0.405-2.324,0.931-3.066,1.394c-0.786,0.49-1.27,1.559-2.229,1.672
	c-0.583,0.346-1.047,0.81-1.394,1.394c-0.903,1.699-2.28,3.081-3.066,5.017c-0.816,2.012-1.098,4.299-1.394,6.968
	c-0.616,0.035-0.118,1.183-0.278,1.672c0,0.372,0,0.743,0,1.116c0.239,1.332,0.079,2.271,0.278,3.344
	c0.248,1.33,0.985,2.527,1.394,3.345c0.544,1.086,0.686,1.656,1.115,2.23c0.431,0.575,0.8,1.007,1.115,1.394
	c0.701,0.858,1.195,1.423,1.673,2.229c1.178,1.989,1.638,6.15-1.673,6.968c-0.743,0-1.486,0-2.229,0
	c-1.642-0.402-2.95-1.138-4.459-1.672c0.2-0.452-1.314-0.452-1.115,0c-1.131,0.356-1.799,1.174-2.23,2.231
	c-0.452-0.201-0.452,1.313,0,1.113c0.439,1.326,1.616,1.915,3.066,2.229c0.666-0.169,2.022,0.35,2.229-0.278
	c0.372,0,0.743,0,1.115,0c0.667-0.17,2.022,0.35,2.23-0.278c0.372,0,0.743,0,1.115,0c0.667-0.17,2.022,0.35,2.23-0.278
	c0.372,0,0.743,0,1.115,0c0.666-0.17,2.022,0.35,2.229-0.279c0.373,0,0.744,0,1.115,0s0.743,0,1.115,0
	c0.49-0.16,1.638,0.337,1.672-0.278c0.372,0,0.743,0,1.115,0c0.847-0.176,2.401,0.356,2.788-0.279c0.372,0,0.743,0,1.115,0
	c0.756-0.173,2.212,0.354,2.508-0.279c0.464,0,0.929,0,1.393,0c0.756-0.172,2.212,0.354,2.509-0.278c0.371,0,0.744,0,1.115,0
	c0.847-0.174,2.401,0.356,2.787-0.278c0.372,0,0.743,0,1.115,0c0.756-0.172,2.212,0.354,2.509-0.278c0.464,0,0.929,0,1.393,0
	c0.757-0.173,2.212,0.354,2.509-0.278c0.372,0,0.743,0,1.115,0s0.743,0,1.115,0c0.49-0.16,1.638,0.336,1.672-0.278
	c0.372,0,0.743,0,1.114,0c0.757-0.174,2.212,0.354,2.509-0.28c0.464,0,0.929,0,1.394,0c0.756-0.172,2.212,0.354,2.509-0.278
	c0.464,0,0.929,0,1.394,0c0.756-0.172,2.211,0.354,2.509-0.278c0.371,0,0.743,0,1.114,0c0.756-0.173,2.212,0.354,2.508-0.279
	c0.465,0,0.93,0,1.394,0c0.756-0.173,2.212,0.354,2.508-0.278c0.464,0,0.929,0,1.394,0c0.756-0.172,2.212,0.354,2.508-0.279
	c0.465,0,0.928,0,1.393,0c0.758-0.173,2.212,0.354,2.509-0.278c0.372,0,0.743,0,1.115,0c0.371,0,0.743,0,1.114,0
	c0.667-0.17,2.023,0.35,2.229-0.279c0.465,0,0.93,0,1.395,0c0.489-0.16,1.637,0.337,1.673-0.278c0.371,0,0.743,0,1.114,0
	c0.37,0,0.743,0,1.115,0c0.489-0.161,1.638,0.336,1.671-0.279c0.373,0,0.743,0,1.116,0c0.755-0.172,2.212,0.354,2.509-0.279
	c0.464,0,0.927,0,1.392,0c0.758-0.172,2.212,0.354,2.509-0.279c0.372,0,0.745,0,1.115,0c0.371,0,0.744,0,1.114,0
	c0.407-0.152,1.44,0.326,1.395-0.279c0.465,0,0.93,0,1.393,0c0.372,0,0.745,0,1.115,0c0.405-0.152,1.44,0.326,1.395-0.279
	c0.371,0,0.743,0,1.114,0c0.667-0.169,2.021,0.35,2.229-0.278c0.373,0,0.743,0,1.116,0c0.665-0.17,2.021,0.35,2.228-0.279
	c0.373,0,0.743,0,1.116,0c0.667-0.169,2.021,0.35,2.229-0.279c2.138-0.186,3.767,0.135,4.738,1.115
	c0.252,0.492,0.623,0.863,1.113,1.115c0.239,0.784,0.902,1.143,0.838,2.229c0,0.559,0,1.115,0,1.672
	c-0.305,2.256-0.987,3.057-2.229,3.903c-2.517,1.713-8.126,1.714-12.544,2.508c-2.073,0.374-4.106,1.018-6.13,1.394
	c-0.505,0.094-1.208-0.067-1.673,0c-1.4,0.204-3.233,0.847-4.738,1.115c-19.928,3.556-38.671,6.863-57.414,10.313
	c-4.479,0.824-8.618,1.483-12.821,2.229c-1.865,0.33-4.558,0.126-5.575,2.229c-0.83,1.122,0.298,2.666,0.836,3.345
	c0.482,0.447,0.816,1.042,1.115,1.672c0.439,0.675,0.997,1.233,1.672,1.673c2.049,1.48,4.541,2.52,7.525,3.065
	c0.035,0.616,1.183,0.118,1.672,0.278c4.001-0.071,6.691-0.998,9.198-2.229c2.843-1.396,5.568-3.631,9.197-3.902
	c0.465,0,0.929,0,1.394,0c2.924-0.001,4.306,1.339,6.131,2.788c3.575,2.837,6.481,5.456,10.033,8.361
	c2.3,1.879,5.345,4.462,7.526,6.132c0.665,0.509,1.138,0.983,1.673,1.393c0.713,0.547,1.113,0.967,1.671,1.394
	c0.324,0.249,0.591,0.673,0.837,0.837c3.818,2.537,5.571-1.521,6.968-4.182c1.254-2.392,2.042-4.482,2.509-6.968
	c0.614-0.034,0.118-1.182,0.278-1.672c0-0.093,0-0.186,0-0.278c0.412-0.052,0.254-0.674,0.278-1.115
	c-0.166-0.576,0.345-1.831-0.278-1.951c-0.196-2.73-0.607-3.681-1.673-5.017c-1.271-1.592-2.772-2.323-4.46-3.345
	c-2.522-1.526-5.479-2.661-5.852-4.737c-0.722-4.013,2.723-4.253,5.852-4.738c2.829-0.438,4.965-0.679,7.525-0.837
	c0.404-0.152,1.44,0.326,1.394-0.278c0.279,0,0.558,0,0.836,0c0.404-0.152,1.44,0.326,1.395-0.278c0.278,0,0.557,0,0.835,0
	c0.405-0.152,1.44,0.325,1.395-0.279c0.278,0,0.557,0,0.835,0c0.491-0.159,1.64,0.337,1.673-0.278c0.187,0,0.371,0,0.558,0
	c0.49-0.16,1.637,0.337,1.673-0.279c0.37,0,0.743,0,1.113,0c0.491-0.16,1.639,0.337,1.673-0.278c0.279,0,0.558,0,0.836,0
	c0.577-0.166,1.831,0.345,1.951-0.278c0.373,0,0.743,0,1.116,0c0.576-0.166,1.831,0.345,1.951-0.279c0.278,0,0.557,0,0.835,0
	c0.665-0.169,2.021,0.351,2.23-0.278c0.37,0,0.743,0,1.113,0c0.758-0.173,2.212,0.354,2.509-0.278c0.372,0,0.743,0,1.115,0
	c0.187,0,0.371,0,0.558,0c0.667-0.171,2.021,0.35,2.229-0.278c0.465,0,0.93,0,1.395,0c0.37,0,0.743,0,1.113,0
	c0.577-0.167,1.831,0.343,1.952-0.28c0.557,0,1.115,0,1.673,0c0.37,0,0.743,0,1.113,0c0.465,0,0.93,0,1.395,0
	c0.371,0,0.743,0,1.114,0c0.404-0.152,1.44,0.327,1.394-0.278c1.768-0.212,2.052-1.007,2.787-2.508
	c1.2-2.454,2.153-5.631,3.344-7.526c-1.314-2.481-3.518-4.338-5.295-6.41c-0.435-0.507-0.667-1.159-1.114-1.672
	c-0.673-0.77-1.313-1.155-1.673-1.951c-0.034-0.075-0.488-0.198-0.557-0.279c-0.553-0.653-0.983-1.137-1.395-1.672
	c-3.66-4.782-8.073-8.868-11.706-13.657c-0.252-0.492-0.623-0.863-1.113-1.115c-1.593-1.196-3.4-2.175-5.854-2.508
	c0.046-0.458-1.717-0.458-1.673,0c-2.178,0.423-4.049,1.152-5.573,2.23c-0.675,0.439-1.232,0.997-1.673,1.672
	c-0.058,0.313-0.309,0.434-0.557,0.558c-0.676,0.439-1.232,0.997-1.673,1.672c0,0.093,0,0.186,0,0.278
	c-2.256,1.645-4.562,3.241-8.36,3.345c-0.651,0-1.3,0-1.951,0c-0.371,0-0.743,0-1.114,0c-3.662-0.148-5.988-1.632-8.084-3.345
	C74.508,36.405,73.856,35.754,73.089,35.222z"/>
<path fill-rule="evenodd" clip-rule="evenodd" fill="#D6D6D6" d="M3.969,53.895c0.481-0.462,2.864-0.462,3.345,0
	C6.199,53.895,5.084,53.895,3.969,53.895z"/>
<path fill-rule="evenodd" clip-rule="evenodd" fill="#D6D6D6" d="M78.665,56.403c0.464,0,0.927,0,1.392,0
	c-0.206,0.629-1.563,0.109-2.229,0.279c0-0.093,0-0.187,0-0.279c0.187,0,0.373,0,0.559,0C78.479,56.403,78.57,56.403,78.665,56.403z
	"/>
<path fill-rule="evenodd" clip-rule="evenodd" fill="#A5A5A5" d="M102.912,28.254c0.663-0.463,3.239-0.463,3.902,0
	C105.513,28.254,104.212,28.254,102.912,28.254z"/>
<path fill-rule="evenodd" clip-rule="evenodd" fill="#6F6F6F" d="M12.609,53.338c0.616,0.035,0.118,1.183,0.278,1.672
	c-0.093,0-0.185,0-0.278,0C12.609,54.453,12.609,53.895,12.609,53.338z"/>
<path fill-rule="evenodd" clip-rule="evenodd" fill="#6F6F6F" d="M112.109,56.683c0.038-0.459,1.913-0.459,1.951,0
	C113.409,56.683,112.761,56.683,112.109,56.683z"/>
<path fill-rule="evenodd" clip-rule="evenodd" fill="#A5A5A5" d="M0.346,57.797c0,0.929,0,1.858,0,2.787
	C-0.115,60.284-0.115,58.098,0.346,57.797z"/>
<path fill-rule="evenodd" clip-rule="evenodd" fill="#A5A5A5" d="M10.658,58.076c0.743,0,1.486,0,2.229,0
	C12.764,58.536,10.782,58.536,10.658,58.076z"/>
<path fill-rule="evenodd" clip-rule="evenodd" fill="#A5A5A5" d="M136.913,58.634c0.461,0.123,0.461,2.105,0,2.229
	C136.913,60.12,136.913,59.377,136.913,58.634z"/>
<path fill-rule="evenodd" clip-rule="evenodd" fill="#6F6F6F" d="M67.794,60.026c0.297-0.632,1.753-0.104,2.509-0.278
	C70.007,60.38,68.55,59.854,67.794,60.026z"/>
<path fill-rule="evenodd" clip-rule="evenodd" fill="#6F6F6F" d="M23.2,60.584c0.387-0.636,1.94-0.104,2.788-0.279
	C25.601,60.941,24.047,60.409,23.2,60.584z"/>
<path fill-rule="evenodd" clip-rule="evenodd" fill="#6F6F6F" d="M52.465,61.142c0.297-0.633,1.752-0.106,2.508-0.279
	C54.677,61.496,53.221,60.969,52.465,61.142z"/>
<path fill-rule="evenodd" clip-rule="evenodd" fill="#6F6F6F" d="M41.038,61.977c0.296-0.632,1.751-0.105,2.508-0.278
	C43.25,62.332,41.794,61.805,41.038,61.977z"/>
<path fill-rule="evenodd" clip-rule="evenodd" fill="#6F6F6F" d="M29.611,62.814c0.296-0.633,1.752-0.106,2.508-0.278
	C31.822,63.167,30.367,62.642,29.611,62.814z"/>
<path fill-rule="evenodd" clip-rule="evenodd" fill="#A5A5A5" d="M119.634,70.338c0.651,0,1.301,0,1.952,0
	c-0.121,0.623-1.375,0.113-1.952,0.28C119.634,70.525,119.634,70.432,119.634,70.338z"/>
<path fill-rule="evenodd" clip-rule="evenodd" fill="#6F6F6F" d="M116.848,73.405c0.387-0.636,1.939-0.104,2.786-0.278
	C119.247,73.761,117.695,73.231,116.848,73.405z"/>
<path fill-rule="evenodd" clip-rule="evenodd" fill="#6F6F6F" d="M88.419,90.407c0.631,0.297,0.106,1.752,0.278,2.509
	c-0.092,0-0.186,0-0.278,0C88.419,92.079,88.419,91.243,88.419,90.407z"/>
<path fill-rule="evenodd" clip-rule="evenodd" fill="#6F6F6F" d="M78.386,54.731c0.225-1.306-0.559-2.119,0.558-2.508
	c0.232-0.082,1.037-0.227,1.392,0.278c0.161,0.49-0.336,1.638,0.281,1.672c0,0.65,0,1.301,0,1.951c0.278,0,0.557,0,0.835,0
	c0,0.093,0,0.186,0,0.278c-0.465,0-0.93,0-1.395,0s-0.928,0-1.392,0C78.504,55.914,79.001,54.766,78.386,54.731z"/>
<path fill-rule="evenodd" clip-rule="evenodd" fill="#6F6F6F" d="M78.665,59.191c0.743,0,1.486,0,2.229,0c0,0.278,0,0.557,0,0.835
	c0.16,0.491-0.339,1.638,0.278,1.673c0,0.465,0,0.93,0,1.394c-0.491,0.16-1.639-0.337-1.673,0.279c-0.092,0-0.187,0-0.278,0
	c-0.152-0.405,0.324-1.441-0.278-1.395C79.107,60.792,78.743,60.134,78.665,59.191z"/>
<path fill-rule="evenodd" clip-rule="evenodd" fill="#6F6F6F" d="M27.66,96.26c1.301,0,2.602,0,3.902,0
	C30.899,96.722,28.323,96.722,27.66,96.26z"/>
</svg>
