<?xml version="1.0" encoding="utf-8"?>
<!-- Generator: Adobe Illustrator 15.0.0, SVG Export Plug-In  -->
<!DOCTYPE svg PUBLIC "-//W3C//DTD SVG 1.1//EN" "http://www.w3.org/Graphics/SVG/1.1/DTD/svg11.dtd" [
	<!ENTITY ns_flows "http://ns.adobe.com/Flows/1.0/">
]>
<svg version="1.1"
	 xmlns="http://www.w3.org/2000/svg" xmlns:xlink="http://www.w3.org/1999/xlink" xmlns:a="http://ns.adobe.com/AdobeSVGViewerExtensions/3.0/"
	 x="0px" y="0px" width="142px" height="142px" viewBox="-2.72 -14.796 142 142" enable-background="new -2.72 -14.796 142 142"
	 xml:space="preserve">
<defs>
</defs>
<path fill-rule="evenodd" clip-rule="evenodd" fill="#D5D5D5" d="M104.025,30.757c-0.044-0.458,1.719-0.458,1.673,0
	C105.142,30.757,104.585,30.757,104.025,30.757z"/>
<path fill-rule="evenodd" clip-rule="evenodd" fill="#313131" d="M8.986,37.445c0.092,0,0.186,0,0.278,0
	c-0.047,0.417,0.1,1.029-0.278,1.116C8.986,38.188,8.986,37.817,8.986,37.445z"/>
<path fill-rule="evenodd" clip-rule="evenodd" fill="#313131" d="M84.517,38.003c-0.417-0.048-1.027,0.099-1.114-0.279
	C83.819,37.772,84.431,37.625,84.517,38.003z"/>
<path fill-rule="evenodd" clip-rule="evenodd" fill="#313131" d="M85.073,38.003c0.053-0.413,0.676-0.256,1.116-0.279
	C86.138,38.137,85.517,37.98,85.073,38.003z"/>
<path fill-rule="evenodd" clip-rule="evenodd" fill="#313131" d="M85.073,40.791c0-0.093,0-0.186,0-0.279c0.373,0,0.743,0,1.116,0
	C86.138,40.924,85.517,40.767,85.073,40.791z"/>
<path fill-rule="evenodd" clip-rule="evenodd" fill="#313131" d="M71.976,54.726c0.614,0.035,0.118,1.183,0.278,1.672
	C71.639,56.363,72.136,55.216,71.976,54.726z"/>
<path fill-rule="evenodd" clip-rule="evenodd" fill="#313131" d="M99.566,55.004c0.052-0.413,0.675-0.255,1.115-0.279
	c0,0.093,0,0.186,0,0.279C100.312,55.004,99.938,55.004,99.566,55.004z"/>
<path fill-rule="evenodd" clip-rule="evenodd" fill="#A5A5A5" d="M5.084,56.398c-0.199-0.452,1.314-0.452,1.115,0
	C5.827,56.398,5.456,56.398,5.084,56.398z"/>
<path fill-rule="evenodd" clip-rule="evenodd" fill="#D5D5D5" d="M2.854,58.629c0,0.37,0,0.743,0,1.113
	C2.402,59.942,2.402,58.428,2.854,58.629z"/>
<path fill-rule="evenodd" clip-rule="evenodd" fill="#313131" d="M46.055,58.907c0.052-0.413,0.674-0.257,1.115-0.278
	c0,0.092,0,0.185,0,0.278C46.798,58.907,46.426,58.907,46.055,58.907z"/>
<path fill-rule="evenodd" clip-rule="evenodd" fill="#313131" d="M118.799,58.629c0.455-0.127,0.455,1.519,0,1.392
	C118.799,59.557,118.799,59.092,118.799,58.629z"/>
<path fill-rule="evenodd" clip-rule="evenodd" fill="#313131" d="M34.627,59.742c0.052-0.411,0.674-0.255,1.115-0.278
	c0,0.093,0,0.187,0,0.278C35.371,59.742,35,59.742,34.627,59.742z"/>
<path fill-rule="evenodd" clip-rule="evenodd" fill="#A5A5A5" d="M71.696,59.742c0.121-0.623,1.373-0.113,1.952-0.278
	c0.046,0.605-0.99,0.126-1.395,0.278C72.067,59.742,71.881,59.742,71.696,59.742z"/>
<path fill-rule="evenodd" clip-rule="evenodd" fill="#313131" d="M74.483,60.3c0.615,0.035,0.118,1.183,0.278,1.672
	C74.146,61.938,74.644,60.79,74.483,60.3z"/>
<path fill-rule="evenodd" clip-rule="evenodd" fill="#313131" d="M57.761,60.857c0-0.093,0-0.186,0-0.278c0.372,0,0.743,0,1.115,0
	C58.823,60.991,58.202,60.834,57.761,60.857z"/>
<path fill-rule="evenodd" clip-rule="evenodd" fill="#313131" d="M46.333,61.693c0-0.093,0-0.186,0-0.278c0.372,0,0.743,0,1.115,0
	C47.397,61.828,46.775,61.671,46.333,61.693z"/>
<path fill-rule="evenodd" clip-rule="evenodd" fill="#313131" d="M19.577,63.645c0-0.093,0-0.186,0-0.278c0.372,0,0.743,0,1.115,0
	C20.641,63.778,20.019,63.622,19.577,63.645z"/>
<path fill-rule="evenodd" clip-rule="evenodd" fill="#313131" d="M5.92,64.76c0-0.093,0-0.187,0-0.279c0.372,0,0.743,0,1.114,0
	C6.983,64.894,6.362,64.737,5.92,64.76z"/>
<path fill-rule="evenodd" clip-rule="evenodd" fill="#6F6F6F" d="M114.618,68.383c0.016-0.17,0.042-0.33,0.278-0.278
	c0.372,0,0.743,0,1.115,0c0.165,0.577-0.345,1.83,0.278,1.95c0,0.187,0,0.372,0,0.559c-0.464,0-0.929,0-1.394,0
	c0-0.094,0-0.187,0-0.28C114.729,69.757,115.241,68.503,114.618,68.383z"/>
<path fill-rule="evenodd" clip-rule="evenodd" fill="#313131" d="M114.618,68.383c0.623,0.12,0.111,1.374,0.278,1.95
	C114.273,70.213,114.784,68.96,114.618,68.383z"/>
<path fill-rule="evenodd" clip-rule="evenodd" fill="#313131" d="M123.259,70.333c0.052-0.411,0.673-0.255,1.113-0.278
	c0,0.094,0,0.187,0,0.278C124.002,70.333,123.629,70.333,123.259,70.333z"/>
<path fill-rule="evenodd" clip-rule="evenodd" fill="#6F6F6F" d="M124.372,70.333c0-0.092,0-0.185,0-0.278c0.465,0,0.93,0,1.395,0
	c0,0.094,0,0.187,0,0.278C125.302,70.333,124.837,70.333,124.372,70.333z"/>
<path fill-rule="evenodd" clip-rule="evenodd" fill="#A5A5A5" d="M125.767,70.333c0-0.092,0-0.185,0-0.278c0.371,0,0.743,0,1.114,0
	c0,0.094,0,0.187,0,0.278C126.51,70.333,126.138,70.333,125.767,70.333z"/>
<path fill-rule="evenodd" clip-rule="evenodd" fill="#D5D5D5" d="M126.881,70.333c0-0.092,0-0.185,0-0.278c0.559,0,1.115,0,1.673,0
	C128.518,70.671,127.371,70.173,126.881,70.333z"/>
<path fill-rule="evenodd" clip-rule="evenodd" fill="#313131" d="M118.521,70.613c0.05-0.413,0.673-0.257,1.113-0.28
	c0,0.094,0,0.187,0,0.28C119.264,70.613,118.891,70.613,118.521,70.613z"/>
<path fill-rule="evenodd" clip-rule="evenodd" fill="#D5D5D5" d="M125.21,72.842c-0.049-0.604,0.987-0.125,1.393-0.278
	c0,0.093,0,0.186,0,0.278C126.138,72.842,125.673,72.842,125.21,72.842z"/>
<path fill-rule="evenodd" clip-rule="evenodd" fill="#A5A5A5" d="M126.603,72.842c0-0.093,0-0.186,0-0.278c0.464,0,0.929,0,1.394,0
	c0,0.093,0,0.186,0,0.278C127.531,72.842,127.066,72.842,126.603,72.842z"/>
<path fill-rule="evenodd" clip-rule="evenodd" fill="#D5D5D5" d="M120.191,73.121c0.052-0.413,0.675-0.256,1.115-0.279
	c0,0.093,0,0.187,0,0.279C120.935,73.121,120.563,73.121,120.191,73.121z"/>
<path fill-rule="evenodd" clip-rule="evenodd" fill="#A5A5A5" d="M121.307,73.121c0-0.093,0-0.187,0-0.279c0.371,0,0.744,0,1.114,0
	c0,0.093,0,0.187,0,0.279C122.051,73.121,121.678,73.121,121.307,73.121z"/>
<path fill-rule="evenodd" clip-rule="evenodd" fill="#6F6F6F" d="M122.421,73.121c0-0.093,0-0.187,0-0.279c0.373,0,0.743,0,1.116,0
	c0,0.093,0,0.187,0,0.279C123.164,73.121,122.794,73.121,122.421,73.121z"/>
<path fill-rule="evenodd" clip-rule="evenodd" fill="#313131" d="M123.537,73.121c0-0.093,0-0.187,0-0.279c0.37,0,0.743,0,1.113,0
	C124.599,73.254,123.978,73.098,123.537,73.121z"/>
<path fill-rule="evenodd" clip-rule="evenodd" fill="#313131" d="M118.521,73.399c0-0.092,0-0.186,0-0.278c0.37,0,0.743,0,1.113,0
	C119.582,73.534,118.961,73.377,118.521,73.399z"/>
<path fill-rule="evenodd" clip-rule="evenodd" fill="#313131" d="M47.169,87.613c-0.199-0.451,1.314-0.451,1.115,0
	C47.913,87.613,47.541,87.613,47.169,87.613z"/>
<path fill-rule="evenodd" clip-rule="evenodd" fill="#313131" d="M47.169,90.401c-0.199-0.453,1.314-0.453,1.115,0
	C47.913,90.401,47.541,90.401,47.169,90.401z"/>
<path fill-rule="evenodd" clip-rule="evenodd" fill="#A5A5A5" d="M85.911,92.352c0.623,0.12,0.112,1.375,0.278,1.951
	c-0.092,0-0.187,0-0.278,0C85.911,93.653,85.911,93.002,85.911,92.352z"/>
<path fill-rule="evenodd" clip-rule="evenodd" fill="#D5D5D5" d="M88.419,92.91c0.093,0,0.187,0,0.278,0c0,0.371,0,0.743,0,1.114
	c-0.092,0-0.186,0-0.278,0C88.419,93.653,88.419,93.281,88.419,92.91z"/>
<path fill-rule="evenodd" clip-rule="evenodd" fill="#D5D5D5" d="M85.911,94.303c0.092,0,0.187,0,0.278,0
	c-0.024,0.441,0.134,1.063-0.278,1.115C85.911,95.046,85.911,94.675,85.911,94.303z"/>
<path fill-rule="evenodd" clip-rule="evenodd" fill="#313131" d="M30.447,96.533c0-0.094,0-0.187,0-0.278c0.371,0,0.743,0,1.114,0
	C31.51,96.666,30.888,96.509,30.447,96.533z"/>
<path fill-rule="evenodd" clip-rule="evenodd" fill="#A5A5A5" d="M11.773,22.116c0.44-0.674,0.997-1.232,1.673-1.672
	C13.006,21.12,12.449,21.677,11.773,22.116z"/>
<path fill-rule="evenodd" clip-rule="evenodd" fill="#6F6F6F" d="M1.183,55.841c0.251-0.491,0.623-0.863,1.115-1.115
	C2.045,55.217,1.674,55.589,1.183,55.841z"/>
<path fill-rule="evenodd" clip-rule="evenodd" fill="#313131" d="M72.532,62.251c0.709,0.127-0.282,1.955,1.116,1.394
	C72.98,64.56,72.193,63.263,72.532,62.251z"/>
<path fill-rule="evenodd" clip-rule="evenodd" fill="#313131" d="M15.954,90.958c0.491,0.252,0.863,0.623,1.115,1.115
	C16.577,91.822,16.206,91.45,15.954,90.958z"/>
<path fill-rule="evenodd" clip-rule="evenodd" fill="#D5D5D5" d="M17.069,92.073c-0.252-0.492-0.624-0.863-1.115-1.115
	c-0.053-0.225-0.28-0.277-0.279-0.557c0.768,0.533,1.418,1.183,1.952,1.95C17.4,92.299,17.348,92.072,17.069,92.073z"/>
<path fill-rule="evenodd" clip-rule="evenodd" fill="#313131" d="M86.468,85.384c-0.675-0.438-1.232-0.996-1.673-1.672
	C85.47,84.151,86.029,84.709,86.468,85.384z"/>
<path fill-rule="evenodd" clip-rule="evenodd" fill="#6F6F6F" d="M112.945,73.678c0.661-0.641,2.502-0.1,3.624-0.278
	c-0.175,0.847,0.356,2.401-0.279,2.787c-0.186,0-0.372,0-0.559,0c-1.126,0.012-0.234-1.993-0.835-2.509
	C114.247,73.678,113.596,73.678,112.945,73.678z"/>
<path fill-rule="evenodd" clip-rule="evenodd" fill="#313131" d="M114.896,32.708c-0.676-0.439-1.232-0.997-1.673-1.672
	C113.898,31.475,114.457,32.032,114.896,32.708z"/>
<path fill-rule="evenodd" clip-rule="evenodd" fill="#D5D5D5" d="M75.04,33.265c0.628,0.674,1.276,1.324,1.952,1.951
	C75.996,34.911,75.345,34.261,75.04,33.265z"/>
<path fill-rule="evenodd" clip-rule="evenodd" fill="#6F6F6F" d="M14.282,88.45c-1.145,0.063-1.825,0.59-2.509,1.115
	c-0.643,0.085-0.31-0.806-0.836-0.837c-0.036-1.522,2.033-0.939,2.23-2.229C13.738,86.949,13.87,87.84,14.282,88.45z"/>
<path fill-rule="evenodd" clip-rule="evenodd" fill="#A5A5A5" d="M13.724,23.789c0.346-0.583,0.811-1.047,1.394-1.394
	C14.771,22.979,14.307,23.443,13.724,23.789z"/>
<path fill-rule="evenodd" clip-rule="evenodd" fill="#D5D5D5" d="M116.569,55.004c0.092,0,0.186,0,0.278,0
	c0.082,0.569,0.753,0.547,0.835,1.115C117.192,55.868,116.821,55.496,116.569,55.004z"/>
<path fill-rule="evenodd" clip-rule="evenodd" fill="#313131" d="M116.569,63.924c0.345-0.583,0.809-1.048,1.392-1.394
	C117.617,63.113,117.152,63.578,116.569,63.924z"/>
<path fill-rule="evenodd" clip-rule="evenodd" fill="#6F6F6F" d="M17.626,88.729c0.674,0.439,1.232,0.997,1.672,1.673
	C18.623,89.962,18.066,89.403,17.626,88.729z"/>
<path fill-rule="evenodd" clip-rule="evenodd" fill="#313131" d="M96.779,34.659c0.44-0.675,0.998-1.232,1.673-1.672
	C98.014,33.662,97.456,34.219,96.779,34.659z"/>
<path fill-rule="evenodd" clip-rule="evenodd" fill="#D5D5D5" d="M94.55,36.889c0.44-0.675,0.997-1.233,1.673-1.672
	c0,0.093,0,0.186,0,0.279C95.489,35.783,95.285,36.6,94.55,36.889z"/>
<path fill-rule="evenodd" clip-rule="evenodd" fill="#6F6F6F" d="M73.367,35.495c0.583,0.346,1.048,0.811,1.395,1.394
	C74.179,36.542,73.714,36.078,73.367,35.495z"/>
<path fill-rule="evenodd" clip-rule="evenodd" fill="#313131" d="M94.55,36.889c0.735-0.289,0.939-1.105,1.673-1.394
	c-0.439,0.675-0.996,1.232-1.673,1.672C94.55,37.074,94.55,36.981,94.55,36.889z"/>
<path fill-rule="evenodd" clip-rule="evenodd" fill="#313131" d="M111.553,33.265c0.49,0.251,0.861,0.623,1.113,1.115
	C112.176,34.128,111.803,33.757,111.553,33.265z"/>
<path fill-rule="evenodd" clip-rule="evenodd" fill="#313131" d="M114.896,68.104c1.094-1.077,1.73,0.671,1.394,1.95
	c-0.623-0.12-0.113-1.373-0.278-1.95C115.64,68.104,115.269,68.104,114.896,68.104z"/>
<path fill-rule="evenodd" clip-rule="evenodd" fill="#313131" d="M117.683,56.12c-0.082-0.568-0.753-0.546-0.835-1.115
	c0.49,0.252,0.863,0.624,1.113,1.115C117.869,56.12,117.777,56.12,117.683,56.12z"/>
<path fill-rule="evenodd" clip-rule="evenodd" fill="#6F6F6F" d="M73.367,52.774c1.23-0.393,0.007,1.668,0.838,1.673
	c0,0.743,0,1.487,0,2.23c0.465,0,0.93,0,1.393,0c-0.567,0.639-2.314,0.101-3.344,0.278c0-0.186,0-0.372,0-0.558
	c-0.16-0.49,0.336-1.637-0.278-1.672C71.871,53.508,71.779,52.299,73.367,52.774z"/>
<path fill-rule="evenodd" clip-rule="evenodd" fill="#313131" d="M73.367,52.774c0.009-0.271,0.343-0.216,0.56-0.278
	c0.383,0.359,0.274,1.211,0.278,1.951C73.374,54.443,74.598,52.382,73.367,52.774z"/>
<path fill-rule="evenodd" clip-rule="evenodd" fill="#6F6F6F" d="M7.035,31.593c-0.152,0.405,0.326,1.441-0.278,1.394
	C6.909,32.582,6.431,31.546,7.035,31.593z"/>
<path fill-rule="evenodd" clip-rule="evenodd" fill="#6F6F6F" d="M6.756,33.823c-0.17,0.666,0.35,2.022-0.278,2.23
	C6.647,35.386,6.128,34.03,6.756,33.823z"/>
<path fill-rule="evenodd" clip-rule="evenodd" fill="#6F6F6F" d="M9.265,36.053c0,0.464,0,0.929,0,1.393c-0.093,0-0.186,0-0.278,0
	C9.138,37.041,8.661,36.005,9.265,36.053z"/>
<path fill-rule="evenodd" clip-rule="evenodd" fill="#6F6F6F" d="M83.402,40.512c0.558,0,1.114,0,1.671,0c0,0.093,0,0.186,0,0.279
	C84.585,40.63,83.437,41.127,83.402,40.512z"/>
<path fill-rule="evenodd" clip-rule="evenodd" fill="#6F6F6F" d="M109.88,54.168c0.208-0.628,1.563-0.109,2.229-0.279
	C111.901,54.519,110.547,53.999,109.88,54.168z"/>
<path fill-rule="evenodd" clip-rule="evenodd" fill="#6F6F6F" d="M106.536,54.447c0.206-0.628,1.563-0.109,2.228-0.279
	C108.558,54.797,107.201,54.277,106.536,54.447z"/>
<path fill-rule="evenodd" clip-rule="evenodd" fill="#6F6F6F" d="M103.19,54.726c0.208-0.628,1.563-0.108,2.229-0.278
	C105.212,55.075,103.857,54.557,103.19,54.726z"/>
<path fill-rule="evenodd" clip-rule="evenodd" fill="#6F6F6F" d="M100.682,54.726c0.465,0,0.93,0,1.395,0
	c0.046,0.605-0.989,0.126-1.395,0.279C100.682,54.912,100.682,54.819,100.682,54.726z"/>
<path fill-rule="evenodd" clip-rule="evenodd" fill="#6F6F6F" d="M95.944,55.283c0.296-0.632,1.751-0.106,2.508-0.279
	C98.155,55.637,96.699,55.11,95.944,55.283z"/>
<path fill-rule="evenodd" clip-rule="evenodd" fill="#6F6F6F" d="M92.041,55.562c0.297-0.632,1.753-0.106,2.509-0.279
	C94.253,55.916,92.799,55.39,92.041,55.562z"/>
<path fill-rule="evenodd" clip-rule="evenodd" fill="#6F6F6F" d="M84.517,56.12c0.297-0.633,1.753-0.106,2.508-0.279
	C86.729,56.473,85.273,55.947,84.517,56.12z"/>
<path fill-rule="evenodd" clip-rule="evenodd" fill="#6F6F6F" d="M80.616,56.398c0.294-0.632,1.751-0.106,2.508-0.278
	C82.828,56.752,81.371,56.226,80.616,56.398z"/>
<path fill-rule="evenodd" clip-rule="evenodd" fill="#6F6F6F" d="M76.992,56.677c0.296-0.633,1.751-0.106,2.508-0.279
	C79.203,57.031,77.749,56.504,76.992,56.677z"/>
<path fill-rule="evenodd" clip-rule="evenodd" fill="#6F6F6F" d="M108.764,56.956c0.208-0.628,1.564-0.109,2.229-0.278
	C110.787,57.306,109.431,56.786,108.764,56.956z"/>
<path fill-rule="evenodd" clip-rule="evenodd" fill="#6F6F6F" d="M69.188,57.234c0.296-0.632,1.752-0.106,2.508-0.279
	C71.4,57.588,69.944,57.062,69.188,57.234z"/>
<path fill-rule="evenodd" clip-rule="evenodd" fill="#6F6F6F" d="M105.142,57.234c0.297-0.632,1.751-0.106,2.508-0.279
	C107.354,57.588,105.896,57.062,105.142,57.234z"/>
<path fill-rule="evenodd" clip-rule="evenodd" fill="#6F6F6F" d="M65.286,57.513c0.297-0.632,1.752-0.105,2.508-0.278
	C67.498,57.867,66.042,57.34,65.286,57.513z"/>
<path fill-rule="evenodd" clip-rule="evenodd" fill="#6F6F6F" d="M102.076,57.513c0.12-0.623,1.372-0.113,1.949-0.278
	C103.907,57.857,102.653,57.348,102.076,57.513z"/>
<path fill-rule="evenodd" clip-rule="evenodd" fill="#6F6F6F" d="M61.384,57.792c0.296-0.633,1.752-0.106,2.508-0.279
	C63.596,58.146,62.14,57.619,61.384,57.792z"/>
<path fill-rule="evenodd" clip-rule="evenodd" fill="#6F6F6F" d="M98.174,57.792c0.297-0.633,1.751-0.106,2.508-0.279
	C100.386,58.146,98.929,57.619,98.174,57.792z"/>
<path fill-rule="evenodd" clip-rule="evenodd" fill="#6F6F6F" d="M57.761,58.07c0.296-0.633,1.752-0.106,2.509-0.278
	C59.972,58.424,58.517,57.898,57.761,58.07z"/>
<path fill-rule="evenodd" clip-rule="evenodd" fill="#6F6F6F" d="M94.271,58.07c0.296-0.633,1.753-0.106,2.508-0.278
	C96.482,58.424,95.028,57.898,94.271,58.07z"/>
<path fill-rule="evenodd" clip-rule="evenodd" fill="#6F6F6F" d="M10.658,58.07c0.743,0,1.486,0,2.229,0
	C12.764,58.53,10.782,58.53,10.658,58.07z"/>
<path fill-rule="evenodd" clip-rule="evenodd" fill="#6F6F6F" d="M53.858,58.349c0.296-0.632,1.752-0.105,2.509-0.278
	C56.071,58.702,54.615,58.177,53.858,58.349z"/>
<path fill-rule="evenodd" clip-rule="evenodd" fill="#6F6F6F" d="M90.649,58.349c0.296-0.632,1.751-0.105,2.508-0.278
	C92.86,58.702,91.404,58.177,90.649,58.349z"/>
<path fill-rule="evenodd" clip-rule="evenodd" fill="#6F6F6F" d="M49.956,58.629c0.297-0.634,1.753-0.106,2.509-0.28
	C52.168,58.982,50.713,58.455,49.956,58.629z"/>
<path fill-rule="evenodd" clip-rule="evenodd" fill="#6F6F6F" d="M86.746,58.629c0.297-0.634,1.753-0.106,2.509-0.28
	C88.958,58.982,87.504,58.455,86.746,58.629z"/>
<path fill-rule="evenodd" clip-rule="evenodd" fill="#A5A5A5" d="M47.169,58.629c0.558,0,1.115,0,1.672,0
	c-0.035,0.614-1.183,0.118-1.672,0.278C47.169,58.813,47.169,58.721,47.169,58.629z"/>
<path fill-rule="evenodd" clip-rule="evenodd" fill="#6F6F6F" d="M82.846,58.907c0.295-0.634,1.751-0.106,2.508-0.278
	C85.058,59.261,83.601,58.733,82.846,58.907z"/>
<path fill-rule="evenodd" clip-rule="evenodd" fill="#313131" d="M116.012,59.742c0-0.465,0-0.929,0-1.394
	C116.467,58.224,116.467,59.868,116.012,59.742z"/>
<path fill-rule="evenodd" clip-rule="evenodd" fill="#6F6F6F" d="M42.431,59.186c0.297-0.632,1.752-0.106,2.509-0.278
	C44.643,59.539,43.188,59.013,42.431,59.186z"/>
<path fill-rule="evenodd" clip-rule="evenodd" fill="#6F6F6F" d="M79.222,59.186c0.296-0.632,1.751-0.106,2.508-0.278
	C81.434,59.539,79.979,59.013,79.222,59.186z"/>
<path fill-rule="evenodd" clip-rule="evenodd" fill="#6F6F6F" d="M38.529,59.464c0.296-0.632,1.752-0.106,2.509-0.278
	C40.741,59.817,39.286,59.292,38.529,59.464z"/>
<path fill-rule="evenodd" clip-rule="evenodd" fill="#6F6F6F" d="M75.319,59.464c0.296-0.632,1.753-0.106,2.508-0.278
	C77.53,59.817,76.076,59.292,75.319,59.464z"/>
<path fill-rule="evenodd" clip-rule="evenodd" fill="#6F6F6F" d="M31.004,60.021c0.297-0.632,1.752-0.104,2.509-0.278
	C33.216,60.375,31.76,59.849,31.004,60.021z"/>
<path fill-rule="evenodd" clip-rule="evenodd" fill="#6F6F6F" d="M72.254,59.742c0.404-0.152,1.44,0.327,1.395-0.278
	c0.278,0,0.557,0,0.835,0c0,0.278,0,0.557,0,0.836c0.16,0.49-0.337,1.638,0.278,1.672c0,0.559,0,1.115,0,1.673
	c-0.37,0-0.743,0-1.113,0c-1.398,0.562-0.407-1.267-1.116-1.394C72.618,61.236,72.488,60.438,72.254,59.742z"/>
<path fill-rule="evenodd" clip-rule="evenodd" fill="#6F6F6F" d="M27.103,60.3c0.296-0.633,1.752-0.105,2.508-0.279
	C29.314,60.654,27.859,60.127,27.103,60.3z"/>
<path fill-rule="evenodd" clip-rule="evenodd" fill="#6F6F6F" d="M63.892,60.3c0.296-0.633,1.752-0.105,2.509-0.279
	C66.104,60.654,64.649,60.127,63.892,60.3z"/>
<path fill-rule="evenodd" clip-rule="evenodd" fill="#6F6F6F" d="M23.2,60.579c0.297-0.633,1.752-0.106,2.508-0.279
	C25.412,60.933,23.957,60.406,23.2,60.579z"/>
<path fill-rule="evenodd" clip-rule="evenodd" fill="#6F6F6F" d="M60.27,60.579c0.207-0.628,1.563-0.109,2.229-0.279
	C62.291,60.929,60.936,60.409,60.27,60.579z"/>
<path fill-rule="evenodd" clip-rule="evenodd" fill="#6F6F6F" d="M19.577,60.857c0.296-0.632,1.752-0.105,2.508-0.278
	C21.789,61.212,20.333,60.685,19.577,60.857z"/>
<path fill-rule="evenodd" clip-rule="evenodd" fill="#A5A5A5" d="M56.367,60.857c-0.047-0.604,0.989-0.126,1.394-0.278
	c0,0.093,0,0.186,0,0.278C57.296,60.857,56.832,60.857,56.367,60.857z"/>
<path fill-rule="evenodd" clip-rule="evenodd" fill="#6F6F6F" d="M15.954,61.137c0.207-0.629,1.563-0.109,2.229-0.279
	C17.976,61.486,16.62,60.967,15.954,61.137z"/>
<path fill-rule="evenodd" clip-rule="evenodd" fill="#6F6F6F" d="M12.609,61.415c0.208-0.629,1.563-0.109,2.23-0.278
	C14.632,61.765,13.276,61.245,12.609,61.415z"/>
<path fill-rule="evenodd" clip-rule="evenodd" fill="#6F6F6F" d="M48.563,61.415c0.296-0.632,1.752-0.106,2.509-0.278
	C50.775,61.769,49.319,61.243,48.563,61.415z"/>
<path fill-rule="evenodd" clip-rule="evenodd" fill="#6F6F6F" d="M8.986,61.693c0.207-0.628,1.563-0.107,2.229-0.278
	C11.008,62.043,9.652,61.523,8.986,61.693z"/>
<path fill-rule="evenodd" clip-rule="evenodd" fill="#6F6F6F" d="M44.94,61.693c-0.047-0.604,0.988-0.126,1.393-0.278
	c0,0.093,0,0.186,0,0.278C45.869,61.693,45.404,61.693,44.94,61.693z"/>
<path fill-rule="evenodd" clip-rule="evenodd" fill="#6F6F6F" d="M5.92,61.972c0.208-0.628,1.563-0.107,2.229-0.278
	C7.942,62.321,6.586,61.803,5.92,61.972z"/>
<path fill-rule="evenodd" clip-rule="evenodd" fill="#6F6F6F" d="M37.136,62.251c0.296-0.633,1.752-0.106,2.508-0.279
	C39.348,62.605,37.892,62.078,37.136,62.251z"/>
<path fill-rule="evenodd" clip-rule="evenodd" fill="#6F6F6F" d="M33.513,62.53c0.208-0.629,1.563-0.109,2.23-0.279
	C35.535,62.88,34.179,62.359,33.513,62.53z"/>
<path fill-rule="evenodd" clip-rule="evenodd" fill="#6F6F6F" d="M29.611,62.809c0.296-0.633,1.752-0.106,2.508-0.278
	C31.822,63.162,30.367,62.637,29.611,62.809z"/>
<path fill-rule="evenodd" clip-rule="evenodd" fill="#6F6F6F" d="M25.708,63.087c0.296-0.632,1.752-0.106,2.509-0.278
	C27.921,63.441,26.465,62.915,25.708,63.087z"/>
<path fill-rule="evenodd" clip-rule="evenodd" fill="#6F6F6F" d="M20.971,63.366c0.568-0.64,2.315-0.101,3.345-0.279
	C23.747,63.728,22.001,63.188,20.971,63.366z"/>
<path fill-rule="evenodd" clip-rule="evenodd" fill="#A5A5A5" d="M18.183,63.645c-0.046-0.604,0.989-0.126,1.394-0.278
	c0,0.093,0,0.186,0,0.278C19.112,63.645,18.648,63.645,18.183,63.645z"/>
<path fill-rule="evenodd" clip-rule="evenodd" fill="#6F6F6F" d="M14.839,63.924c0.207-0.629,1.563-0.109,2.229-0.279
	C16.861,64.273,15.506,63.753,14.839,63.924z"/>
<path fill-rule="evenodd" clip-rule="evenodd" fill="#6F6F6F" d="M11.216,64.202c0.297-0.632,1.752-0.106,2.508-0.278
	C13.428,64.556,11.972,64.029,11.216,64.202z"/>
<path fill-rule="evenodd" clip-rule="evenodd" fill="#6F6F6F" d="M8.15,64.48c0.12-0.623,1.374-0.112,1.951-0.278
	C9.981,64.825,8.727,64.315,8.15,64.48z"/>
<path fill-rule="evenodd" clip-rule="evenodd" fill="#6F6F6F" d="M4.806,64.48c0.372,0,0.743,0,1.115,0c0,0.093,0,0.187,0,0.279
	C5.479,64.737,4.857,64.894,4.806,64.48z"/>
<path fill-rule="evenodd" clip-rule="evenodd" fill="#6F6F6F" d="M110.715,71.17c0.297-0.633,1.753-0.106,2.509-0.278
	C112.927,71.523,111.473,70.997,110.715,71.17z"/>
<path fill-rule="evenodd" clip-rule="evenodd" fill="#6F6F6F" d="M107.371,71.448c0.209-0.628,1.563-0.108,2.23-0.278
	C109.393,71.799,108.036,71.279,107.371,71.448z"/>
<path fill-rule="evenodd" clip-rule="evenodd" fill="#6F6F6F" d="M104.585,71.728c0.12-0.624,1.372-0.113,1.951-0.279
	C106.416,72.072,105.161,71.562,104.585,71.728z"/>
<path fill-rule="evenodd" clip-rule="evenodd" fill="#6F6F6F" d="M101.518,72.006c0.12-0.624,1.374-0.113,1.951-0.278
	C103.349,72.351,102.095,71.84,101.518,72.006z"/>
<path fill-rule="evenodd" clip-rule="evenodd" fill="#6F6F6F" d="M99.009,72.284c0.036-0.615,1.183-0.118,1.673-0.278
	C100.647,72.621,99.5,72.124,99.009,72.284z"/>
<path fill-rule="evenodd" clip-rule="evenodd" fill="#6F6F6F" d="M96.501,72.563c0.036-0.615,1.182-0.118,1.673-0.279
	C98.14,72.9,96.992,72.403,96.501,72.563z"/>
<path fill-rule="evenodd" clip-rule="evenodd" fill="#6F6F6F" d="M93.992,72.842c0.036-0.615,1.183-0.118,1.673-0.278
	C95.632,73.179,94.483,72.683,93.992,72.842z"/>
<path fill-rule="evenodd" clip-rule="evenodd" fill="#6F6F6F" d="M127.996,72.563c0.558,0,1.114,0,1.671,0
	c-0.034,0.615-1.182,0.119-1.671,0.278C127.996,72.749,127.996,72.656,127.996,72.563z"/>
<path fill-rule="evenodd" clip-rule="evenodd" fill="#A5A5A5" d="M116.848,73.399c0.034-0.616,1.182-0.118,1.673-0.278
	c0,0.093,0,0.187,0,0.278C117.961,73.399,117.404,73.399,116.848,73.399z"/>
<path fill-rule="evenodd" clip-rule="evenodd" fill="#6F6F6F" d="M109.602,73.957c0.208-0.629,1.563-0.108,2.229-0.279
	C111.623,74.307,110.267,73.787,109.602,73.957z"/>
<path fill-rule="evenodd" clip-rule="evenodd" fill="#6F6F6F" d="M106.256,74.236c0.208-0.63,1.564-0.109,2.229-0.279
	C108.279,74.586,106.923,74.065,106.256,74.236z"/>
<path fill-rule="evenodd" clip-rule="evenodd" fill="#6F6F6F" d="M103.469,74.515c0.12-0.623,1.374-0.113,1.951-0.278
	C105.3,74.859,104.046,74.35,103.469,74.515z"/>
<path fill-rule="evenodd" clip-rule="evenodd" fill="#6F6F6F" d="M100.682,74.793c0.036-0.615,1.183-0.118,1.673-0.278
	C102.318,75.13,101.173,74.633,100.682,74.793z"/>
<path fill-rule="evenodd" clip-rule="evenodd" fill="#6F6F6F" d="M97.896,75.071c0.12-0.623,1.372-0.112,1.951-0.278
	C99.727,75.416,98.473,74.906,97.896,75.071z"/>
<path fill-rule="evenodd" clip-rule="evenodd" fill="#6F6F6F" d="M95.387,75.35c0.034-0.615,1.183-0.118,1.671-0.278
	C97.023,75.688,95.876,75.19,95.387,75.35z"/>
<path fill-rule="evenodd" clip-rule="evenodd" fill="#6F6F6F" d="M86.468,76.466c0.034-0.616,1.182-0.119,1.673-0.279
	C88.104,76.803,86.959,76.305,86.468,76.466z"/>
<path fill-rule="evenodd" clip-rule="evenodd" fill="#6F6F6F" d="M15.675,83.712c0,0.465,0,0.929,0,1.394
	c0.838,1.027,2.415-1.664,3.066,0c0.707,1.128-1.775,1.095-2.23,1.951C15.973,86.378,14.845,84.834,15.675,83.712z"/>
<path fill-rule="evenodd" clip-rule="evenodd" fill="#6F6F6F" d="M26.823,93.467c0.49,0.16,1.638-0.337,1.672,0.278
	C28.006,93.585,26.858,94.083,26.823,93.467z"/>
<path fill-rule="evenodd" clip-rule="evenodd" fill="#6F6F6F" d="M88.697,94.024c-0.172,0.757,0.353,2.212-0.278,2.509
	c0-0.837,0-1.673,0-2.509C88.512,94.024,88.605,94.024,88.697,94.024z"/>
<path fill-rule="evenodd" clip-rule="evenodd" fill="#FFFFFF" d="M49.678,5.952c3.577-1.237,7.625-3.545,11.428-5.017
	c1.504-0.582,2.777-1.174,4.18-0.836c0.809,0.194,2.023,1.304,2.508,2.508c0.312,0.773,0.363,2.989,0.558,4.18
	c0.932,5.705,1.904,10.868,3.066,16.166c0.888,4.049,1.673,7.724,3.622,10.313c0.305,0.996,0.956,1.646,1.952,1.951
	c1.742,1.229,3.618,2.329,6.41,2.508c0.087,0.378,0.697,0.23,1.114,0.279c0.187,0,0.373,0,0.557,0
	c0.443-0.023,1.064,0.134,1.116-0.279c8.214-0.52,8.53-8.936,16.723-9.476c1.3,0,2.601,0,3.902,0
	c2.927,0.137,4.652,1.48,6.409,2.787c0.44,0.675,0.997,1.232,1.673,1.672c6.444,7.507,12.985,14.903,19.509,22.576
	c0.894,1.051,2.077,1.951,2.508,3.346c0,0.743,0,1.485,0,2.229c-0.589,1.797-1.512,3.899-2.508,6.131
	c-1.086,2.44-1.777,5.322-4.738,5.575c-0.557,0-1.113,0-1.671,0c-0.465,0-0.93,0-1.394,0c-0.405,0.153-1.441-0.326-1.393,0.278
	c-0.187,0-0.373,0-0.56,0c-0.37,0-0.743,0-1.113,0c-0.373,0-0.743,0-1.116,0c-0.37,0-0.743,0-1.114,0
	c-0.44,0.023-1.063-0.134-1.115,0.279c-0.185,0-0.371,0-0.558,0c-0.37,0-0.743,0-1.113,0c-0.491,0.16-1.639-0.338-1.673,0.278
	c-0.093,0-0.187,0-0.278,0c-1.122,0.179-2.963-0.362-3.624,0.278c-0.371,0-0.744,0-1.114,0c-0.667,0.171-2.021-0.35-2.229,0.279
	c-0.373,0-0.744,0-1.116,0c-0.665,0.17-2.021-0.351-2.229,0.279c-0.279,0-0.558,0-0.836,0c-0.577,0.165-1.831-0.345-1.951,0.278
	c-0.371,0-0.743,0-1.114,0c-0.49,0.16-1.637-0.337-1.673,0.278c-0.278,0-0.557,0-0.835,0c-0.579,0.166-1.831-0.345-1.951,0.278
	c-0.278,0-0.558,0-0.838,0c-0.488,0.16-1.637-0.337-1.671,0.278c-2.332,0.364-4.686,0.703-7.246,0.837
	c-0.491,0.16-1.639-0.337-1.673,0.279c-3.142,0.667-6.787,0.829-9.755,1.672c0.022,1.134,1.257,1.22,1.952,1.672
	c1.803,1.178,4.085,2.609,6.13,3.902c0.44,0.676,0.998,1.233,1.673,1.672c0.938,1.384,1.949,2.696,1.951,5.018
	c0,0.836,0,1.672,0,2.509c0,0.371,0,0.743,0,1.114c0,0.836,0,1.672,0,2.509c-0.176,3.229-1.29,6.872-3.065,10.032
	c-1.522,2.706-3.546,5.304-6.132,5.575c-3.388,0.355-5.982-2.588-8.641-4.738c-4.106-3.321-7.095-5.865-10.87-8.918
	c-0.98-0.794-1.756-1.441-2.787-2.229c-2.478-1.897-5.125-5.235-8.64-5.854c0.199-0.453-1.314-0.453-1.115,0
	c-5.937,1.217-8.877,5.431-15.608,5.854c-0.372,0-0.743,0-1.114,0c-0.929,0-1.859,0-2.788,0c-4.443-0.203-7.724-1.568-10.033-3.903
	c-0.534-0.768-1.184-1.417-1.952-1.95c-0.703-0.413-1.152-1.078-1.393-1.951c-0.412-0.61-0.543-1.501-1.115-1.951
	c-1.097-2.942,0.171-5.885,2.787-6.968c0.514-0.214,0.999-0.102,1.672-0.278c2.045-0.54,4.332-0.678,6.689-1.115
	c2.223-0.413,4.369-1.025,6.41-1.394c10.919-1.968,23.139-4,33.445-5.853c15.842-2.85,30.943-5.528,46.822-8.361
	c1.791-0.319,4.634-0.311,5.019-2.788c0.455,0.126,0.455-1.519,0-1.394c-0.456-0.751-1.09-1.325-1.951-1.671
	c-0.038-0.459-1.913-0.459-1.951,0c-0.373,0-0.743,0-1.116,0c-0.665,0.169-2.021-0.35-2.229,0.278c-0.37,0-0.743,0-1.114,0
	c-0.757,0.172-2.211-0.354-2.508,0.279c-0.373,0-0.743,0-1.116,0c-0.577,0.165-1.829-0.344-1.949,0.278c-0.465,0-0.93,0-1.395,0
	c-0.757,0.173-2.211-0.354-2.508,0.279c-0.465,0-0.93,0-1.395,0c-0.755,0.172-2.212-0.354-2.508,0.278c-0.371,0-0.743,0-1.114,0
	c-0.757,0.173-2.212-0.354-2.508,0.278c-0.465,0-0.93,0-1.395,0c-0.756,0.174-2.212-0.354-2.509,0.28c-0.465,0-0.93,0-1.393,0
	c-0.757,0.172-2.213-0.355-2.508,0.278c-0.373,0-0.745,0-1.116,0c-0.757,0.172-2.212-0.354-2.508,0.278c-0.465,0-0.93,0-1.395,0
	c-0.755,0.172-2.212-0.354-2.508,0.278c-0.279,0-0.558,0-0.836,0s-0.557,0-0.835,0c-0.579,0.165-1.831-0.345-1.952,0.278
	c-0.464,0-0.929,0-1.394,0c-0.756,0.174-2.212-0.354-2.509,0.278c-0.464,0-0.929,0-1.393,0c-0.756,0.174-2.212-0.354-2.509,0.279
	c-0.464,0-0.929,0-1.394,0c-0.666,0.17-2.022-0.349-2.229,0.279c-0.465,0-0.93,0-1.394,0c-0.372,0-0.743,0-1.115,0
	c-0.405,0.152-1.44-0.326-1.394,0.278c-0.465,0-0.93,0-1.394,0c-0.756,0.173-2.211-0.354-2.508,0.279c-0.464,0-0.929,0-1.393,0
	c-0.757,0.172-2.212-0.354-2.509,0.278c-0.372,0-0.743,0-1.115,0c-0.372,0-0.743,0-1.115,0c-0.405,0.152-1.44-0.325-1.393,0.278
	c-0.464,0-0.929,0-1.394,0c-0.757,0.173-2.212-0.354-2.508,0.278c-0.465,0-0.93,0-1.394,0c-0.756,0.173-2.211-0.354-2.508,0.279
	c-0.464,0-0.929,0-1.394,0c-0.667,0.17-2.022-0.35-2.23,0.279c-0.465,0-0.929,0-1.394,0c-0.756,0.172-2.212-0.354-2.508,0.278
	c-0.464,0-0.929,0-1.394,0c-0.756,0.172-2.212-0.354-2.509,0.278c-0.464,0-0.929,0-1.393,0c-1.03,0.179-2.776-0.36-3.345,0.279
	c-0.093,0-0.186,0-0.279,0c-0.372,0-0.743,0-1.115,0c-0.405,0.152-1.44-0.326-1.394,0.278c-0.372,0-0.743,0-1.114,0
	c-0.667,0.17-2.022-0.35-2.229,0.279c-0.372,0-0.744,0-1.115,0c-0.756,0.172-2.211-0.354-2.508,0.278c-0.372,0-0.743,0-1.115,0
	C9.523,64.368,8.27,63.857,8.15,64.48c-0.372,0-0.743,0-1.115,0c-0.372,0-0.743,0-1.114,0c-0.372,0-0.743,0-1.115,0
	c-2.493-0.295-3.942-1.632-4.459-3.901c0-0.929,0-1.858,0-2.787c-0.008-0.937,0.383-1.475,0.836-1.951
	c0.491-0.252,0.863-0.624,1.115-1.115c0.391-0.445,0.96-0.711,1.672-0.836c1.115,0,2.229,0,3.345,0
	c1.965,0.049,3.766,2.387,5.295,1.115c0.457,0.046,0.457-1.717,0-1.672c-2.377-3.848-6.016-6.434-6.131-12.542
	c0-1.208,0-2.416,0-3.624c0-0.371,0-0.743,0-1.114c0.628-0.208,0.108-1.564,0.278-2.23c0-0.279,0-0.558,0-0.836
	c0.604,0.047,0.126-0.989,0.278-1.394c0.6-4.138,2.391-7.086,4.738-9.477c0.676-0.439,1.233-0.997,1.673-1.672
	c0.545-0.852,1.465-1.218,2.229-1.95c0.315-0.302,2.457-1.41,3.066-1.672c1.186-0.512,2.568-0.696,3.902-1.115
	c3.293-1.036,7.383-2.341,11.148-3.624c5.05-1.72,9.666-3.926,14.214-5.296C48.438,6.384,49.306,6.416,49.678,5.952z M73.367,35.495
	c-2.155-2.167-3.143-5.064-3.9-8.362c-1.024-4.448-1.971-9.448-2.788-13.936c-0.196-1.076-0.639-2.25-0.836-3.345
	c-0.432-2.4-0.173-4.968-1.394-6.967c-4.831,1.579-8.803,4.017-13.657,5.574c-0.741,0.188-1.418,0.439-1.951,0.836
	c-1.383,0.586-2.595,1.165-3.902,1.672c-5.098,1.98-10.649,3.91-15.608,5.575c-2.852,0.958-5.618,1.583-8.082,2.508
	c-1.376,0.517-2.924,1.062-3.902,1.673c-0.8,0.498-1.261,1.558-2.229,1.672c-0.583,0.346-1.047,0.81-1.394,1.394
	c-0.377,0.989-1.105,1.628-1.672,2.508c-1.72,2.669-2.579,5.75-2.787,9.755c-0.604-0.047-0.126,0.988-0.278,1.393
	c0,0.372,0,0.743,0,1.116c0.239,1.332,0.079,2.271,0.278,3.344c0.248,1.33,0.985,2.527,1.394,3.345
	c0.544,1.086,0.686,1.656,1.115,2.23c0.431,0.575,0.8,1.007,1.115,1.394c0.701,0.858,1.195,1.423,1.673,2.229
	c1.178,1.989,1.638,6.15-1.673,6.968c-0.743,0-1.486,0-2.229,0c-1.642-0.402-2.95-1.138-4.459-1.672c0.2-0.452-1.314-0.452-1.115,0
	c-1.136,0.35-1.88,1.093-2.23,2.231c-0.452-0.201-0.452,1.313,0,1.113c0.439,1.326,1.616,1.915,3.066,2.229
	c0.666-0.169,2.022,0.35,2.229-0.278c0.279,0,0.557,0,0.836,0c0.666-0.17,2.022,0.35,2.229-0.278c0.464,0,0.929,0,1.394,0
	c0.667-0.17,2.022,0.35,2.23-0.278c0.372,0,0.743,0,1.115,0c0.666-0.17,2.022,0.35,2.229-0.279c0.465,0,0.929,0,1.394,0
	c0.756-0.173,2.212,0.354,2.508-0.278c0.372,0,0.743,0,1.115,0c0.756-0.173,2.212,0.354,2.508-0.279c0.465,0,0.929,0,1.394,0
	c0.756-0.173,2.212,0.354,2.508-0.279c0.464,0,0.929,0,1.393,0c0.756-0.172,2.212,0.354,2.509-0.278c0.371,0,0.744,0,1.115,0
	c0.372,0,0.743,0,1.115,0c0.489-0.159,1.637,0.338,1.672-0.278c0.372,0,0.743,0,1.115,0c0.756-0.172,2.212,0.354,2.509-0.278
	c0.464,0,0.929,0,1.393,0c0.757-0.173,2.212,0.354,2.509-0.278c0.372,0,0.743,0,1.115,0s0.743,0,1.115,0
	c0.49-0.16,1.638,0.336,1.672-0.278c0.372,0,0.743,0,1.114,0c0.757-0.174,2.212,0.354,2.509-0.28c0.464,0,0.929,0,1.394,0
	c0.756-0.172,2.212,0.354,2.509-0.278c0.464,0,0.929,0,1.394,0c0.756-0.172,2.211,0.354,2.509-0.278c0.371,0,0.743,0,1.114,0
	c0.756-0.173,2.212,0.354,2.508-0.279c0.465,0,0.93,0,1.394,0c0.756-0.173,2.212,0.354,2.508-0.278c0.464,0,0.929,0,1.394,0
	c0.756-0.172,2.212,0.354,2.508-0.279c0.185,0,0.371,0,0.558,0c1.029-0.178,2.776,0.361,3.344-0.278c0.465,0,0.93,0,1.395,0
	c0.757-0.173,2.211,0.354,2.508-0.279c0.373,0,0.743,0,1.116,0c0.755-0.172,2.212,0.354,2.508-0.278c0.465,0,0.928,0,1.393,0
	c0.757-0.173,2.212,0.354,2.508-0.279c0.373,0,0.743,0,1.116,0c0.846-0.174,2.4,0.357,2.787-0.279c0.37,0,0.743,0,1.113,0
	c0.758-0.172,2.212,0.354,2.509-0.279c0.465,0,0.93,0,1.395,0c0.755-0.173,2.211,0.354,2.508-0.279c0.371,0,0.743,0,1.114,0
	c0.372,0,0.745,0,1.115,0c0.405-0.152,1.44,0.326,1.395-0.279c0.371,0,0.743,0,1.114,0c0.667-0.169,2.021,0.35,2.229-0.278
	c0.373,0,0.743,0,1.116,0c0.665-0.17,2.021,0.35,2.228-0.279c0.373,0,0.743,0,1.116,0c0.667-0.169,2.021,0.35,2.229-0.279
	c1.919-0.062,3.824-0.108,4.46,1.115c0.252,0.492,0.623,0.863,1.113,1.115c0.095,0,0.187,0,0.278,0
	c0.277,0.838,0.988,1.244,0.838,2.509c0,0.463,0,0.928,0,1.392c0.15,1.266-0.561,1.67-0.838,2.51
	c-0.583,0.346-1.047,0.811-1.392,1.394c-3.913,1.809-8.292,1.743-12.544,2.508c-2.023,0.364-4.087,1.014-6.13,1.394
	c-0.515,0.096-1.101-0.083-1.673,0c-1.507,0.221-3.117,0.825-4.738,1.115c-8.465,1.51-17.081,2.955-25.641,4.459
	c-8.953,1.573-18.069,3.43-27.035,4.738c-1.483,0.216-3.167,0.834-4.738,1.115c-4.505,0.803-8.565,1.474-12.821,2.229
	c-1.82,0.322-4.542,0.115-5.575,2.229c-0.83,1.122,0.298,2.666,0.836,3.345c0.482,0.447,0.816,1.042,1.115,1.672
	c0.439,0.675,0.997,1.233,1.672,1.673c2.049,1.48,4.541,2.52,7.525,3.065c0.035,0.616,1.183,0.118,1.672,0.278
	c5.977-0.054,8.961-2.271,12.821-4.18c1.774-0.878,3.531-2.103,5.853-1.952c0.372,0,0.743,0,1.115,0
	c1.826-0.053,3.35,0.65,4.459,1.394c0.637,0.428,1.07,0.918,1.672,1.395c3.543,2.808,6.504,5.476,10.033,8.361
	c2.3,1.879,5.345,4.462,7.526,6.132c0.665,0.509,1.138,0.983,1.673,1.393c0.713,0.547,1.113,0.967,1.671,1.394
	c0.757,0.58,1.282,1.104,1.951,1.394c2.598,1.126,3.988-1.522,4.737-2.787c0.986-1.664,1.597-2.768,2.23-4.459
	c0.743-1.985,1.362-4.048,1.673-6.41c0.412-0.052,0.254-0.674,0.278-1.115c-0.166-0.576,0.345-1.831-0.278-1.951
	c-0.19-2.713-0.615-3.691-1.673-5.017c-1.271-1.592-2.772-2.323-4.46-3.345c-2.397-1.451-5.483-2.723-5.852-4.737
	c-0.938-5.108,5.287-4.462,9.197-5.017c4.007-0.569,7.116-1.314,10.868-1.395c0.491-0.159,1.64,0.337,1.673-0.278
	c0.279,0,0.558,0,0.836,0c0.491-0.16,1.639,0.337,1.673-0.279c0.278,0,0.557,0,0.835,0c0.491-0.16,1.639,0.337,1.673-0.278
	c0.279,0,0.558,0,0.836,0c0.577-0.166,1.831,0.345,1.951-0.278c0.373,0,0.743,0,1.116,0c0.576-0.166,1.831,0.345,1.951-0.279
	c0.278,0,0.557,0,0.835,0c0.665-0.169,2.021,0.351,2.23-0.278c0.37,0,0.743,0,1.113,0c0.758-0.173,2.212,0.354,2.509-0.278
	c0.372,0,0.743,0,1.115,0c0.848-0.175,2.4,0.356,2.787-0.278c0.465,0,0.93,0,1.395,0c0.37,0,0.743,0,1.113,0
	c0.577-0.167,1.831,0.343,1.952-0.28c0.557,0,1.115,0,1.673,0c0.37,0,0.743,0,1.113,0c0.465,0,0.93,0,1.395,0
	c0.371,0,0.743,0,1.114,0c0.49-0.16,1.637,0.338,1.673-0.278c0.526,0.063,0.614-0.313,1.113-0.278
	c2.01-2.823,2.978-6.687,4.738-9.756c-1.314-2.481-3.518-4.338-5.295-6.41c-0.435-0.507-0.667-1.159-1.114-1.672
	c-0.673-0.77-1.313-1.155-1.673-1.951c-0.034-0.075-0.488-0.198-0.557-0.279c-0.553-0.653-0.983-1.137-1.395-1.672
	c-3.66-4.782-8.073-8.868-11.706-13.657c-0.252-0.492-0.623-0.863-1.113-1.115c-1.593-1.196-3.4-2.175-5.854-2.508
	c0.046-0.458-1.717-0.458-1.673,0c-2.304,0.296-3.975,1.226-5.573,2.23c-0.675,0.439-1.232,0.997-1.673,1.672
	c-0.058,0.313-0.309,0.434-0.557,0.558c-0.676,0.439-1.232,0.997-1.673,1.672c0,0.093,0,0.186,0,0.278
	c-2.224,1.678-4.614,3.189-8.36,3.345c-0.373,0-0.743,0-1.116,0c-0.557,0-1.113,0-1.671,0c-3.996-0.092-6.48-1.694-8.641-3.623
	C74.415,36.306,73.95,35.841,73.367,35.495z"/>
<path fill-rule="evenodd" clip-rule="evenodd" fill="#D5D5D5" d="M3.969,53.89c0.481-0.462,2.864-0.462,3.345,0
	C6.199,53.89,5.084,53.89,3.969,53.89z"/>
<path fill-rule="evenodd" clip-rule="evenodd" fill="#6F6F6F" d="M48.842,9.296c0.532-0.397,1.21-0.648,1.951-0.836
	c-0.855,0.771,1.946,2.895,0,3.066C49.441,12.456,49.91,9.539,48.842,9.296z"/>
<path fill-rule="evenodd" clip-rule="evenodd" fill="#6F6F6F" d="M102.912,28.249c0.663-0.463,3.239-0.463,3.902,0
	C105.513,28.249,104.212,28.249,102.912,28.249z"/>
<path fill-rule="evenodd" clip-rule="evenodd" fill="#6F6F6F" d="M12.609,53.333c0.457-0.045,0.457,1.718,0,1.672
	C12.609,54.447,12.609,53.89,12.609,53.333z"/>
<path fill-rule="evenodd" clip-rule="evenodd" fill="#6F6F6F" d="M88.141,55.841c0.387-0.636,1.939-0.104,2.787-0.279
	C90.541,56.198,88.986,55.667,88.141,55.841z"/>
<path fill-rule="evenodd" clip-rule="evenodd" fill="#6F6F6F" d="M112.109,56.677c0.038-0.459,1.913-0.459,1.951,0
	C113.409,56.677,112.761,56.677,112.109,56.677z"/>
<path fill-rule="evenodd" clip-rule="evenodd" fill="#A5A5A5" d="M0.346,57.792c0,0.929,0,1.858,0,2.787
	C-0.115,60.278-0.115,58.093,0.346,57.792z"/>
<path fill-rule="evenodd" clip-rule="evenodd" fill="#A5A5A5" d="M136.913,58.629c0.461,0.123,0.461,2.105,0,2.229
	C136.913,60.114,136.913,59.372,136.913,58.629z"/>
<path fill-rule="evenodd" clip-rule="evenodd" fill="#A5A5A5" d="M35.743,59.464c0.557,0,1.114,0,1.672,0
	c-0.035,0.616-1.183,0.119-1.672,0.278C35.743,59.65,35.743,59.557,35.743,59.464z"/>
<path fill-rule="evenodd" clip-rule="evenodd" fill="#6F6F6F" d="M67.794,60.021c0.297-0.632,1.753-0.104,2.509-0.278
	C70.007,60.375,68.55,59.849,67.794,60.021z"/>
<path fill-rule="evenodd" clip-rule="evenodd" fill="#6F6F6F" d="M52.465,61.137c0.297-0.633,1.752-0.106,2.508-0.279
	C54.677,61.49,53.221,60.964,52.465,61.137z"/>
<path fill-rule="evenodd" clip-rule="evenodd" fill="#6F6F6F" d="M41.038,61.972c0.296-0.632,1.751-0.105,2.508-0.278
	C43.25,62.326,41.794,61.8,41.038,61.972z"/>
<path fill-rule="evenodd" clip-rule="evenodd" fill="#A5A5A5" d="M119.634,70.333c0.651,0,1.301,0,1.952,0
	c-0.121,0.623-1.375,0.113-1.952,0.28C119.634,70.52,119.634,70.427,119.634,70.333z"/>
<path fill-rule="evenodd" clip-rule="evenodd" fill="#6F6F6F" d="M88.419,90.401c0.631,0.297,0.106,1.752,0.278,2.509
	c-0.092,0-0.186,0-0.278,0C88.419,92.073,88.419,91.237,88.419,90.401z"/>
<path fill-rule="evenodd" clip-rule="evenodd" fill="#6F6F6F" d="M48.006,6.787C47.857,5.729,47.136,5.242,47.169,4
	c0.324-0.234,0.748-0.368,1.394-0.279c0.326,0.79,0.387,1.843,1.115,2.23C49.306,6.416,48.438,6.384,48.006,6.787z"/>
<path fill-rule="evenodd" clip-rule="evenodd" fill="#6F6F6F" d="M6.478,37.167c0,1.208,0,2.416,0,3.624
	C6.015,40.219,6.015,37.738,6.478,37.167z"/>
<path fill-rule="evenodd" clip-rule="evenodd" fill="#6F6F6F" d="M27.66,96.255c0.929,0,1.858,0,2.788,0c0,0.092,0,0.185,0,0.278
	C29.6,96.357,28.046,96.89,27.66,96.255z"/>
<path fill-rule="evenodd" clip-rule="evenodd" fill="#A5A5A5" d="M114.896,70.613c0.465,0,0.93,0,1.394,0c0.279,0,0.558,0,0.836,0
	c-0.387,0.635-1.939,0.104-2.787,0.278C114.401,70.674,114.571,70.566,114.896,70.613z"/>
</svg>
