<?xml version="1.0" encoding="utf-8"?>
<!-- Generator: Adobe Illustrator 15.0.0, SVG Export Plug-In  -->
<!DOCTYPE svg PUBLIC "-//W3C//DTD SVG 1.1//EN" "http://www.w3.org/Graphics/SVG/1.1/DTD/svg11.dtd" [
	<!ENTITY ns_flows "http://ns.adobe.com/Flows/1.0/">
]>
<svg version="1.1"
	 xmlns="http://www.w3.org/2000/svg" xmlns:xlink="http://www.w3.org/1999/xlink" xmlns:a="http://ns.adobe.com/AdobeSVGViewerExtensions/3.0/"
	 x="0px" y="0px" width="142px" height="142px" viewBox="-2.884 -14.902 142 142" enable-background="new -2.884 -14.902 142 142"
	 xml:space="preserve">
<defs>
</defs>
<path fill-rule="evenodd" clip-rule="evenodd" fill="#727272" d="M118.078,64.653c0-0.093,0-0.187,0-0.279c1.113,0,2.229,0,3.344,0
	c0,0.093,0,0.187,0,0.279C120.308,64.653,119.191,64.653,118.078,64.653z"/>
<path fill-rule="evenodd" clip-rule="evenodd" fill="#A9A9A9" d="M121.422,64.653c0-0.093,0-0.187,0-0.279c1.021,0,2.043,0,3.064,0
	c0,0.093,0,0.187,0,0.279C123.465,64.653,122.443,64.653,121.422,64.653z"/>
<path fill-rule="evenodd" clip-rule="evenodd" fill="#D9D9D9" d="M124.486,64.653c0-0.093,0-0.187,0-0.279c0.838,0,1.673,0,2.509,0
	C126.698,65.007,125.244,64.48,124.486,64.653z"/>
<path fill-rule="evenodd" clip-rule="evenodd" fill="#D9D9D9" d="M107.207,64.653c1.486,0,2.974,0,4.46,0
	C110.819,65.116,108.053,65.116,107.207,64.653z"/>
<path fill-rule="evenodd" clip-rule="evenodd" fill="#D9D9D9" d="M119.191,67.162c0.387-0.637,1.939-0.104,2.787-0.28
	c0,0.094,0,0.187,0,0.28C121.051,67.162,120.121,67.162,119.191,67.162z"/>
<path fill-rule="evenodd" clip-rule="evenodd" fill="#A9A9A9" d="M121.979,67.162c0-0.094,0-0.187,0-0.28c0.93,0,1.859,0,2.787,0
	c0,0.094,0,0.187,0,0.28C123.838,67.162,122.908,67.162,121.979,67.162z"/>
<path fill-rule="evenodd" clip-rule="evenodd" fill="#A9A9A9" d="M108.043,67.44c0-0.094,0-0.187,0-0.278c0.743,0,1.486,0,2.229,0
	c0,0.092,0,0.185,0,0.278C109.529,67.44,108.786,67.44,108.043,67.44z"/>
<path fill-rule="evenodd" clip-rule="evenodd" fill="#727272" d="M110.272,67.44c0-0.094,0-0.187,0-0.278c1.116,0,2.229,0,3.346,0
	c0,0.092,0,0.185,0,0.278C112.502,67.44,111.389,67.44,110.272,67.44z"/>
<path fill-rule="evenodd" clip-rule="evenodd" fill="#323232" d="M113.618,67.44c0-0.094,0-0.187,0-0.278c1.021,0,2.044,0,3.065,0
	C116.207,67.8,114.556,67.264,113.618,67.44z"/>
<path fill-rule="evenodd" clip-rule="evenodd" fill="#323232" d="M126.717,67.162c0.637,0.387,0.104,1.939,0.278,2.786
	c-0.093,0-0.187,0-0.278,0C126.717,69.02,126.717,68.09,126.717,67.162z"/>
<path fill-rule="evenodd" clip-rule="evenodd" fill="#323232" d="M128.39,67.162c0,0.928,0,1.857,0,2.786c-0.093,0-0.187,0-0.279,0
	C128.285,69.102,127.754,67.549,128.39,67.162z"/>
<path fill-rule="evenodd" clip-rule="evenodd" fill="#323232" d="M123.095,70.227c0.052-0.411,0.673-0.255,1.113-0.278
	c0,0.094,0,0.187,0,0.278C123.838,70.227,123.465,70.227,123.095,70.227z"/>
<path fill-rule="evenodd" clip-rule="evenodd" fill="#727272" d="M124.208,70.227c0-0.092,0-0.185,0-0.278c0.465,0,0.93,0,1.395,0
	c0,0.094,0,0.187,0,0.278C125.138,70.227,124.673,70.227,124.208,70.227z"/>
<path fill-rule="evenodd" clip-rule="evenodd" fill="#A9A9A9" d="M125.603,70.227c0-0.092,0-0.185,0-0.278c0.371,0,0.743,0,1.114,0
	c0,0.094,0,0.187,0,0.278C126.346,70.227,125.974,70.227,125.603,70.227z"/>
<path fill-rule="evenodd" clip-rule="evenodd" fill="#D9D9D9" d="M126.717,70.227c0-0.092,0-0.185,0-0.278c0.092,0,0.186,0,0.278,0
	c0.372,0,0.743,0,1.115,0C128.157,70.554,127.121,70.074,126.717,70.227z"/>
<path fill-rule="evenodd" clip-rule="evenodd" fill="#323232" d="M118.356,70.507c0.05-0.413,0.673-0.257,1.113-0.28
	c0,0.094,0,0.187,0,0.28C119.1,70.507,118.727,70.507,118.356,70.507z"/>
<path fill-rule="evenodd" clip-rule="evenodd" fill="#323232" d="M114.175,70.785c0.053-0.413,0.674-0.256,1.114-0.278
	c0,0.092,0,0.185,0,0.278C114.918,70.785,114.546,70.785,114.175,70.785z"/>
<path fill-rule="evenodd" clip-rule="evenodd" fill="#D9D9D9" d="M120.027,73.015c0.052-0.413,0.675-0.256,1.115-0.279
	c0,0.093,0,0.187,0,0.279C120.771,73.015,120.399,73.015,120.027,73.015z"/>
<path fill-rule="evenodd" clip-rule="evenodd" fill="#A9A9A9" d="M121.143,73.015c0-0.093,0-0.187,0-0.279c0.371,0,0.744,0,1.114,0
	c0,0.093,0,0.187,0,0.279C121.887,73.015,121.514,73.015,121.143,73.015z"/>
<path fill-rule="evenodd" clip-rule="evenodd" fill="#727272" d="M122.257,73.015c0-0.093,0-0.187,0-0.279c0.373,0,0.743,0,1.116,0
	c0,0.093,0,0.187,0,0.279C123,73.015,122.63,73.015,122.257,73.015z"/>
<path fill-rule="evenodd" clip-rule="evenodd" fill="#323232" d="M123.373,73.015c0-0.093,0-0.187,0-0.279c0.37,0,0.743,0,1.113,0
	C124.435,73.147,123.813,72.991,123.373,73.015z"/>
<path fill-rule="evenodd" clip-rule="evenodd" fill="#323232" d="M126.995,75.243c0.465,0,0.93,0,1.395,0
	C128.516,75.699,126.871,75.699,126.995,75.243z"/>
<path fill-rule="evenodd" clip-rule="evenodd" fill="#323232" d="M47.005,87.507c-0.199-0.451,1.314-0.451,1.115,0
	C47.749,87.507,47.377,87.507,47.005,87.507z"/>
<path fill-rule="evenodd" clip-rule="evenodd" fill="#323232" d="M47.005,90.295c-0.199-0.453,1.314-0.453,1.115,0
	C47.749,90.295,47.377,90.295,47.005,90.295z"/>
<path fill-rule="evenodd" clip-rule="evenodd" fill="#323232" d="M30.562,90.852c-0.125-0.455,1.519-0.455,1.394,0
	C31.491,90.852,31.026,90.852,30.562,90.852z"/>
<path fill-rule="evenodd" clip-rule="evenodd" fill="#323232" d="M30.562,91.688c0.413,0.051,0.255,0.673,0.278,1.115
	C30.427,92.751,30.584,92.129,30.562,91.688z"/>
<path fill-rule="evenodd" clip-rule="evenodd" fill="#A9A9A9" d="M85.747,92.245c0.378,0.086,0.23,0.698,0.278,1.115
	c-0.092,0-0.187,0-0.278,0C85.747,92.988,85.747,92.617,85.747,92.245z"/>
<path fill-rule="evenodd" clip-rule="evenodd" fill="#323232" d="M82.96,93.36c0.211-0.461,2.296-0.461,2.509,0
	C84.631,93.36,83.796,93.36,82.96,93.36z"/>
<path fill-rule="evenodd" clip-rule="evenodd" fill="#727272" d="M82.96,93.36c0.836,0,1.671,0,2.509,0c0.092,0,0.184,0,0.278,0
	c0,0.465,0,0.929,0,1.394c-0.278,0-0.558,0-0.838,0c-0.12-0.623-1.372-0.113-1.949-0.278C82.96,94.104,82.96,93.731,82.96,93.36z"/>
<path fill-rule="evenodd" clip-rule="evenodd" fill="#D9D9D9" d="M85.747,93.36c0.092,0,0.187,0,0.278,0
	c-0.166,0.577,0.345,1.831-0.278,1.951c0-0.187,0-0.372,0-0.558C85.747,94.289,85.747,93.825,85.747,93.36z"/>
<path fill-rule="evenodd" clip-rule="evenodd" fill="#323232" d="M89.928,93.36c0.405,0.152,1.44-0.326,1.393,0.278
	C90.916,93.486,89.88,93.965,89.928,93.36z"/>
<path fill-rule="evenodd" clip-rule="evenodd" fill="#323232" d="M82.96,94.476c0.577,0.165,1.829-0.345,1.949,0.278
	C84.332,94.588,83.078,95.099,82.96,94.476z"/>
<path fill-rule="evenodd" clip-rule="evenodd" fill="#323232" d="M89.647,94.754c0.559,0,1.116,0,1.673,0
	C91.366,95.211,89.602,95.211,89.647,94.754z"/>
<path fill-rule="evenodd" clip-rule="evenodd" fill="#323232" d="M30.283,96.427c0-0.094,0-0.187,0-0.278c0.371,0,0.743,0,1.114,0
	c0,0.185,0,0.37,0,0.557C31.021,96.618,30.865,96.309,30.283,96.427z"/>
<path fill-rule="evenodd" clip-rule="evenodd" fill="#323232" d="M31.397,97.819c0.413,0.052,0.256,0.674,0.279,1.115
	C31.263,98.883,31.421,98.261,31.397,97.819z"/>
<path fill-rule="evenodd" clip-rule="evenodd" fill="#323232" d="M32.792,97.819c0.492-0.089,0.497,1.563-0.279,1.115
	C32.6,98.558,32.909,98.401,32.792,97.819z"/>
<path fill-rule="evenodd" clip-rule="evenodd" fill="#323232" d="M15.79,90.852c0.491,0.252,0.863,0.623,1.115,1.115
	C16.413,91.716,16.042,91.344,15.79,90.852z"/>
<path fill-rule="evenodd" clip-rule="evenodd" fill="#D9D9D9" d="M16.905,91.967c-0.252-0.492-0.624-0.863-1.115-1.115
	c-0.053-0.225-0.28-0.277-0.279-0.557c0.768,0.533,1.418,1.183,1.952,1.95C17.236,92.192,17.184,91.966,16.905,91.967z"/>
<path fill-rule="evenodd" clip-rule="evenodd" fill="#323232" d="M86.304,85.277c-0.675-0.438-1.232-0.996-1.673-1.672
	C85.306,84.045,85.865,84.603,86.304,85.277z"/>
<path fill-rule="evenodd" clip-rule="evenodd" fill="#727272" d="M126.995,72.735c0.695-0.233,1.494-0.365,2.508-0.278
	c-0.086,0.378-0.697,0.231-1.113,0.278c0,0.836,0,1.673,0,2.508c-0.465,0-0.93,0-1.395,0
	C126.995,74.408,126.995,73.571,126.995,72.735z"/>
<path fill-rule="evenodd" clip-rule="evenodd" fill="#727272" d="M17.462,88.622c0.674,0.439,1.232,0.997,1.672,1.673
	C18.459,89.855,17.902,89.297,17.462,88.622z"/>
<path fill-rule="evenodd" clip-rule="evenodd" fill="#323232" d="M82.96,85.835c0.491,0.252,0.861,0.623,1.114,1.115
	C83.583,86.699,83.211,86.326,82.96,85.835z"/>
<path fill-rule="evenodd" clip-rule="evenodd" fill="#727272" d="M59.269,74.408c0.755-0.452,2.056-0.358,3.065-0.558
	c-0.274,1.583,0.886,3.19,0.279,4.181c-0.657-0.006-0.821,0.48-1.672,0.278c-0.608-0.971-0.623-2.535-0.836-3.901
	C59.826,74.408,59.547,74.408,59.269,74.408z"/>
<path fill-rule="evenodd" clip-rule="evenodd" fill="#727272" d="M31.397,96.148c0.853,0.202,0.82-0.482,1.672-0.28
	c-0.384,0.36-0.276,1.211-0.278,1.951c0.118,0.582-0.191,0.738-0.279,1.115c-0.279,0-0.558,0-0.836,0
	c-0.023-0.441,0.134-1.063-0.279-1.115c0-0.371,0-0.743,0-1.114C31.397,96.519,31.397,96.333,31.397,96.148z"/>
<path fill-rule="evenodd" clip-rule="evenodd" fill="#727272" d="M104.699,64.374c0.404,0.152,1.44-0.325,1.393,0.279
	C105.687,64.501,104.651,64.979,104.699,64.374z"/>
<path fill-rule="evenodd" clip-rule="evenodd" fill="#727272" d="M103.305,66.882c0.491,0.162,1.639-0.336,1.673,0.28
	C104.486,67.001,103.341,67.498,103.305,66.882z"/>
<path fill-rule="evenodd" clip-rule="evenodd" fill="#727272" d="M124.766,66.882c1.306,0.181,3.337-0.363,4.181,0.28
	c-0.187,0-0.371,0-0.557,0c-0.636,0.387-0.104,1.939-0.279,2.786c-0.372,0-0.743,0-1.115,0c-0.175-0.847,0.358-2.399-0.278-2.786
	c-0.649,0-1.301,0-1.951,0C124.766,67.068,124.766,66.976,124.766,66.882z"/>
<path fill-rule="evenodd" clip-rule="evenodd" fill="#323232" d="M132.849,69.392c0.188-1.953-0.437-3.095-1.395-3.901
	c0.227-0.054,0.279-0.281,0.558-0.28c0.507-2.095,1.646-3.555,2.229-5.574c-1.823-2.634-4.013-4.818-6.131-7.246
	c-1.967-2.255-3.996-4.765-6.132-7.247c-0.521-0.605-1.154-1.069-1.671-1.672c-1.014-1.182-1.894-2.28-3.067-3.623
	c-0.242-0.277-0.553-0.512-0.835-0.836c-0.307-0.349-0.287-0.805-0.558-1.115c-1.001-1.143-2.298-2.24-3.346-3.345
	c-0.272-0.287-0.336-0.922-0.557-1.115c-0.32-0.28-0.799-0.309-1.116-0.557c-1.582-1.25-3.702-2.547-7.246-2.23
	c-5.964,0.534-7.328,5.744-11.706,8.083c-4.005,2.14-9.963,2.418-14.214,0.279c-0.535-0.271-1.374-0.841-1.951-1.394
	c-0.038-0.036-0.261-0.267-0.278-0.279c-0.896-0.612-1.878-1.394-2.787-2.508c-3.168-3.884-4.091-11.536-5.295-17.837
	c-0.903-4.73-1.848-9.661-2.787-14.214c-3.175,0.56-5.474,2.124-8.361,3.345c-8.563,3.618-18.615,7.35-28.429,10.591
	c-1.651,0.545-3.869,1.308-5.853,1.951c-0.951,0.308-1.936,0.445-2.787,0.836c-0.907,0.417-1.877,1.288-2.787,1.952
	c-0.923,0.673-1.792,1.19-2.508,1.951c-0.721,0.765-1.364,1.851-1.951,2.787c-1.353,2.158-2.358,4.283-2.787,7.804
	c-0.364,2.989-0.319,5.815,0.279,8.361c0.725,3.084,1.928,4.53,3.902,7.247c0.889,1.223,2.618,2.933,1.951,5.853
	c0.003-0.014-0.207,0.689-0.279,0.836c-0.061,0.125-0.511,0.176-0.557,0.279c-0.053,0.116,0.086,0.47,0,0.557
	c-0.337,0.34-1.599,1.039-2.509,1.114c-1.54,0.129-3.799-1.668-5.853-1.951c-2.454-0.336-4.262,1.968-2.787,4.181
	c0.946,1.419,1.587,1.226,4.181,1.114c6.275-0.27,15.654-1.24,21.461-1.673c19.874-1.477,37.998-2.758,57.136-4.18
	c6.565-0.488,14.633-1.088,21.46-1.672c1.13-0.097,2.513-0.218,3.625-0.279c1.35-0.073,2.834-0.19,3.622,0
	c1.772,0.428,3.638,2.669,3.902,4.181c0.579,3.312-1.138,4.988-2.787,6.132c-0.431,0.147-0.018,0.29,0.278,0.278
	c0.649,0,1.301,0,1.952,0c0,0.093,0,0.187,0,0.279c-2.138,0-4.275,0-6.411,0c-1.486,0-2.974,0-4.46,0c-0.372,0-0.743,0-1.115,0
	c0.048-0.604-0.988-0.127-1.393-0.279c-0.278,0-0.557,0-0.838,0c-0.118-0.623-1.372-0.112-1.949-0.278
	c1.683-0.663,4.738-0.81,8.082-1.394c2.117-0.371,6.059-0.469,6.132-3.345c0.015-0.598-0.346-1.948-1.394-2.508
	c-1.278-0.683-5.516-0.147-7.247,0c-31.897,2.71-65.015,4.634-96.991,7.247c-2.413,0.197-5.114,0.731-6.689,0.278
	c-2.765-0.793-5.029-4.77-3.066-8.083c0.611-1.031,2.064-2.548,3.623-2.787c2.793-0.429,4.983,1.573,7.805,1.951
	c1.021-2.266-0.532-3.607-1.394-4.738c-2.218-2.911-4.565-5.875-4.738-11.149c-0.103-3.131,0.459-7.432,1.394-10.312
	c0.75-2.311,1.734-4.005,3.066-5.853c1.701-2.36,4.474-5.027,7.525-6.41c1.826-0.828,4.095-1.306,6.132-1.951
	c11.074-3.509,21.546-7.267,32.33-11.985c1.587-0.694,3.304-1.845,5.296-2.508c2.36-0.786,3.403-0.835,4.738,0.558
	c1.117,1.166,1.343,3.499,1.672,5.574c0.958,6.028,1.804,10.459,3.066,16.166c0.621,2.811,1.092,5.535,1.949,7.525
	c2.318,5.37,9.709,9.788,17.003,6.131c2.294-1.15,3.502-2.945,5.295-4.738c0.739-0.738,1.513-1.375,2.509-1.951
	c2.13-1.233,5.864-2.581,9.755-1.672c0.336,0.079,0.717,0.426,1.115,0.557c1.15,0.378,1.471,0.45,2.509,1.115
	c0.911,0.584,1.515,1.091,2.508,1.951c0.19,0.166,0.108,0.383,0.278,0.557c1.236,1.262,2.532,2.398,3.622,3.624
	c0.19,0.213,0.091,0.631,0.281,0.836c1.025,1.103,2.685,2.807,3.9,4.181c3.957,4.467,7.819,9.07,12.263,14.214
	c1.17,1.354,2.694,2.991,2.789,4.181c0.094,1.208-0.897,3.024-1.673,4.738C134.31,66.41,133.712,67.907,132.849,69.392z"/>
<path fill-rule="evenodd" clip-rule="evenodd" fill="#323232" d="M130.063,67.998c0.45-0.2,0.45,1.314,0,1.114
	C130.063,68.741,130.063,68.369,130.063,67.998z"/>
<path fill-rule="evenodd" clip-rule="evenodd" fill="#727272" d="M119.47,70.227c0.651,0,1.301,0,1.952,0
	c-0.121,0.623-1.375,0.113-1.952,0.28C119.47,70.413,119.47,70.32,119.47,70.227z"/>
<path fill-rule="evenodd" clip-rule="evenodd" fill="#A9A9A9" d="M115.289,70.507c0.559,0,1.116,0,1.673,0
	c-0.034,0.614-1.182,0.118-1.673,0.278C115.289,70.691,115.289,70.599,115.289,70.507z"/>
<path fill-rule="evenodd" clip-rule="evenodd" fill="#727272" d="M110.551,71.063c0.297-0.633,1.753-0.106,2.509-0.278
	C112.763,71.417,111.309,70.891,110.551,71.063z"/>
<path fill-rule="evenodd" clip-rule="evenodd" fill="#727272" d="M59.547,71.621c-0.35-1.322-0.447-2.897-0.836-4.181
	c1.033,0.197,1.196-0.477,2.23-0.278c0.641,1.122-0.122,3.65,1.393,3.901C61.652,71.495,60.521,71.479,59.547,71.621z"/>
<path fill-rule="evenodd" clip-rule="evenodd" fill="#727272" d="M107.207,71.342c0.209-0.628,1.563-0.108,2.23-0.278
	C109.229,71.692,107.872,71.173,107.207,71.342z"/>
<path fill-rule="evenodd" clip-rule="evenodd" fill="#727272" d="M104.421,71.621c0.12-0.624,1.372-0.113,1.951-0.279
	C106.252,71.966,104.997,71.455,104.421,71.621z"/>
<path fill-rule="evenodd" clip-rule="evenodd" fill="#727272" d="M101.354,71.899c0.12-0.624,1.374-0.113,1.951-0.278
	C103.185,72.244,101.931,71.733,101.354,71.899z"/>
<path fill-rule="evenodd" clip-rule="evenodd" fill="#727272" d="M98.845,72.178c0.036-0.615,1.183-0.118,1.673-0.278
	C100.483,72.515,99.336,72.018,98.845,72.178z"/>
<path fill-rule="evenodd" clip-rule="evenodd" fill="#727272" d="M96.337,72.457c0.036-0.615,1.182-0.118,1.673-0.279
	C97.976,72.794,96.828,72.297,96.337,72.457z"/>
<path fill-rule="evenodd" clip-rule="evenodd" fill="#727272" d="M93.828,72.735c0.036-0.615,1.183-0.118,1.673-0.278
	C95.468,73.072,94.319,72.576,93.828,72.735z"/>
<path fill-rule="evenodd" clip-rule="evenodd" fill="#D9D9D9" d="M125.046,72.735c0.036-0.458,1.913-0.458,1.949,0
	C126.346,72.735,125.694,72.735,125.046,72.735z"/>
<path fill-rule="evenodd" clip-rule="evenodd" fill="#727272" d="M89.369,73.293c-0.046-0.604,0.989-0.126,1.395-0.278
	C90.81,73.619,89.773,73.141,89.369,73.293z"/>
<path fill-rule="evenodd" clip-rule="evenodd" fill="#727272" d="M112.781,73.571c0.296-0.632,1.753-0.105,2.508-0.278
	C114.992,73.925,113.538,73.399,112.781,73.571z"/>
<path fill-rule="evenodd" clip-rule="evenodd" fill="#727272" d="M85.189,73.851c-0.048-0.604,0.988-0.127,1.393-0.279
	C86.63,74.177,85.595,73.699,85.189,73.851z"/>
<path fill-rule="evenodd" clip-rule="evenodd" fill="#727272" d="M109.438,73.851c0.208-0.629,1.563-0.108,2.229-0.279
	C111.459,74.2,110.103,73.681,109.438,73.851z"/>
<path fill-rule="evenodd" clip-rule="evenodd" fill="#727272" d="M106.092,74.13c0.208-0.63,1.564-0.109,2.229-0.279
	C108.115,74.479,106.759,73.959,106.092,74.13z"/>
<path fill-rule="evenodd" clip-rule="evenodd" fill="#727272" d="M103.305,74.408c0.12-0.623,1.374-0.113,1.951-0.278
	C105.136,74.753,103.882,74.243,103.305,74.408z"/>
<path fill-rule="evenodd" clip-rule="evenodd" fill="#727272" d="M100.518,74.687c0.036-0.615,1.183-0.118,1.673-0.278
	C102.154,75.023,101.009,74.526,100.518,74.687z"/>
<path fill-rule="evenodd" clip-rule="evenodd" fill="#727272" d="M97.731,74.965c0.12-0.623,1.372-0.112,1.951-0.278
	C99.563,75.31,98.309,74.8,97.731,74.965z"/>
<path fill-rule="evenodd" clip-rule="evenodd" fill="#727272" d="M95.223,75.243c0.034-0.615,1.183-0.118,1.671-0.278
	C96.859,75.581,95.712,75.084,95.223,75.243z"/>
<path fill-rule="evenodd" clip-rule="evenodd" fill="#727272" d="M92.993,75.522c0.034-0.615,1.182-0.118,1.671-0.279
	C94.63,75.859,93.482,75.362,92.993,75.522z"/>
<path fill-rule="evenodd" clip-rule="evenodd" fill="#727272" d="M15.511,83.605c0,0.557,0,1.115,0,1.672
	C15.054,85.323,15.054,83.56,15.511,83.605z"/>
<path fill-rule="evenodd" clip-rule="evenodd" fill="#727272" d="M26.659,93.36c0.49,0.16,1.638-0.337,1.672,0.278
	C27.842,93.479,26.694,93.977,26.659,93.36z"/>
<path fill-rule="evenodd" clip-rule="evenodd" fill="#727272" d="M32.233,93.36c-0.654,0.089-1.046,0.44-1.95,0.278
	c0.181-0.283,0.641-0.287,0.557-0.835c-0.023-0.442,0.134-1.064-0.278-1.115c0-0.279,0-0.558,0-0.837c0.464,0,0.929,0,1.394,0
	C31.966,91.77,32.426,92.239,32.233,93.36z"/>
<path fill-rule="evenodd" clip-rule="evenodd" fill="#727272" d="M88.255,96.427c0-1.022,0-2.045,0-3.066c0.093,0,0.187,0,0.278,0
	c0.465,0,0.93,0,1.395,0c-0.048,0.604,0.988,0.126,1.393,0.278c0,0.372,0,0.743,0,1.115c-0.557,0-1.114,0-1.673,0
	c-0.278,0-0.557,0-0.835,0C88.022,94.709,89.045,96.472,88.255,96.427z"/>
<path fill-rule="evenodd" clip-rule="evenodd" fill="#727272" d="M85.747,95.59c-0.16,0.49,0.336,1.638-0.278,1.672
	C85.629,96.773,85.132,95.625,85.747,95.59z"/>
<path fill-rule="evenodd" clip-rule="evenodd" fill="#727272" d="M78.501,112.034c-0.049-0.604,0.987-0.126,1.392-0.278
	C79.941,112.359,78.905,111.882,78.501,112.034z"/>
<path fill-rule="evenodd" clip-rule="evenodd" fill="#FFFFFF" d="M62.334,71.063c12.636-2.229,25.009-4.719,37.905-6.689
	c1.208,0,2.416,0,3.622,0c0.281,0,0.56,0,0.838,0c-0.048,0.604,0.987,0.127,1.393,0.279c0.372,0,0.743,0,1.115,0
	c0.846,0.463,3.612,0.463,4.46,0c2.136,0,4.273,0,6.411,0c1.113,0,2.229,0,3.344,0c1.021,0,2.043,0,3.064,0
	c0.758-0.173,2.212,0.354,2.509-0.279c1.979-0.12,3.662,0.055,4.459,1.116c0.958,0.807,1.583,1.948,1.395,3.901
	c0,0.278,0,0.557,0,0.835c-1.067,0.792-1.304,2.411-3.346,2.23c-1.014-0.087-1.813,0.045-2.508,0.278
	c-0.036-0.458-1.913-0.458-1.949,0c-0.187,0-0.373,0-0.56,0c-0.37,0-0.743,0-1.113,0c-0.373,0-0.743,0-1.116,0
	c-0.37,0-0.743,0-1.114,0c-0.44,0.023-1.063-0.134-1.115,0.279c-0.185,0-0.371,0-0.558,0c-0.847,0.174-2.399-0.357-2.786,0.278
	c-0.465,0-0.93,0-1.395,0c-0.755,0.173-2.212-0.354-2.508,0.278c-0.371,0-0.744,0-1.114,0c-0.667,0.171-2.021-0.35-2.229,0.279
	c-0.373,0-0.744,0-1.116,0c-0.665,0.17-2.021-0.351-2.229,0.279c-0.279,0-0.558,0-0.836,0c-0.577,0.165-1.831-0.345-1.951,0.278
	c-0.371,0-0.743,0-1.114,0c-0.49,0.16-1.637-0.337-1.673,0.278c-0.278,0-0.557,0-0.835,0c-0.579,0.166-1.831-0.345-1.951,0.278
	c-0.278,0-0.558,0-0.838,0c-0.488,0.16-1.637-0.337-1.671,0.278c-0.186,0-0.372,0-0.559,0c-0.489,0.161-1.637-0.336-1.671,0.279
	c-5.465,0.852-11.321,1.313-16.444,2.509c0.022,1.134,1.257,1.22,1.952,1.672c1.803,1.178,4.085,2.609,6.13,3.902
	c0.44,0.676,0.998,1.233,1.673,1.672c0.938,1.384,1.949,2.696,1.951,5.018c0,1.021,0,2.044,0,3.065s0,2.044,0,3.066
	c-0.21,3.109-1.384,7.198-2.786,9.754c-0.066,0.118-0.514,0.18-0.56,0.278c-0.897,1.996-2.534,4.752-5.017,5.297
	c-0.404,0.152-1.44-0.326-1.392,0.278c-2.076,0.279-3.191-0.78-5.017-2.23c-0.946-0.749-1.751-1.435-2.789-2.229
	c-4.739-3.628-10.007-8.367-14.771-12.263c-1.156-0.945-2.446-1.854-3.624-2.788c-0.383-0.303-0.527-0.613-0.836-0.835
	c-0.749-0.538-1.902-1.296-3.344-1.394c0.199-0.453-1.314-0.453-1.115,0c-5.425,1.078-8.245,4.761-13.936,5.573
	c-0.852-0.202-0.82,0.482-1.672,0.28c-0.372,0-0.743,0-1.114,0c-0.929,0-1.859,0-2.788,0c-4.443-0.203-7.724-1.568-10.033-3.903
	c-0.534-0.768-1.184-1.417-1.952-1.95c-1.402-1.56-3.783-4.569-2.787-7.804c0.409-1.329,2.106-2.766,3.902-3.345
	c0.38-0.124,1.137-0.173,1.672-0.279c4.803-0.959,12.377-2.261,16.723-3.065c1.576-0.293,3.058-0.552,4.738-0.837
	c0.933-0.158,1.874-0.354,3.066-0.557c0.98-0.166,1.826-0.347,3.066-0.558c4.087-0.693,9.489-1.546,13.657-2.229
	C60.521,71.479,61.652,71.495,62.334,71.063z M103.305,66.882c-4.087,0.2-7.437,1.042-11.149,1.673
	c-2.544,0.434-5.219,1.036-7.246,1.394c-0.938,0.165-1.889,0.112-2.786,0.278c-1.515,0.282-2.945,0.834-4.46,1.115
	c-0.789,0.147-1.729,0.146-2.508,0.279c-4.014,0.686-8.96,1.729-12.821,2.229c-1.009,0.199-2.31,0.105-3.065,0.558
	c-9.039,1.717-18.639,3.494-27.593,5.017c-3.712,0.632-7.191,1.229-11.148,1.951c-2.191,0.399-4.572,0.595-5.017,2.229
	c-0.457-0.046-0.457,1.718,0,1.672c0.491,1.275,1.393,2.139,1.952,3.345c0.439,0.675,0.997,1.233,1.672,1.673
	c2.049,1.48,4.541,2.52,7.525,3.065c0.035,0.616,1.183,0.118,1.672,0.278c0.651,0,1.301,0,1.952,0
	c0.904,0.162,1.296-0.189,1.95-0.278c2.394-0.702,4.442-1.519,6.411-2.509c2.506-1.26,4.972-3.33,8.361-3.345
	c0.372,0,0.743,0,1.115,0c1.043-0.106,2.481,0.262,3.623,0.837c0.855,0.431,1.694,1.491,2.229,1.951
	c0.256,0.219,0.899,0.379,1.115,0.557c0.982,0.814,2.01,1.908,3.065,2.787c1.998,1.665,4.377,3.369,6.689,5.296
	c1.14,0.951,2.757,2.469,3.902,3.345c1.005,0.769,2.092,1.791,3.067,2.229c0.298,0.135,0.887,0.926,1.113,1.115
	c1.609,1.335,3.86,3.749,5.576,3.623c2.233-0.165,3.466-3.124,4.459-5.018c1.254-2.392,2.042-4.482,2.509-6.968
	c0.614-0.034,0.118-1.182,0.278-1.672c0-0.093,0-0.186,0-0.278c0.623-0.12,0.112-1.374,0.278-1.951
	c-0.048-0.417,0.1-1.029-0.278-1.115c-0.112-2.211-0.689-3.956-1.673-5.295c-0.253-0.492-0.623-0.863-1.114-1.115
	c-1.154-0.526-2.666-1.681-3.624-2.229c-0.383-0.219-0.996-0.314-1.395-0.558c-0.116-0.071-0.154-0.466-0.278-0.557
	c-0.217-0.163-0.639-0.157-0.835-0.279c-1.379-0.865-2.791-1.57-3.065-3.065c-0.712-3.87,2.172-3.975,5.017-4.46
	c2.336-0.398,4.259-0.797,6.41-0.836c0.405-0.151,1.44,0.326,1.393-0.279c0.733-0.288,1.711-0.333,2.787-0.278
	c0.404-0.152,1.44,0.326,1.395-0.278c0.978-0.138,1.813-0.416,3.064-0.279c0.491-0.159,1.64,0.337,1.673-0.278
	c0.279,0,0.558,0,0.836,0c0.491-0.16,1.639,0.337,1.673-0.279c0.278,0,0.557,0,0.835,0c0.491-0.16,1.639,0.337,1.673-0.278
	c0.279,0,0.558,0,0.836,0c0.577-0.166,1.831,0.345,1.951-0.278c0.373,0,0.743,0,1.116,0c0.576-0.166,1.831,0.345,1.951-0.279
	c0.278,0,0.557,0,0.835,0c0.665-0.169,2.021,0.351,2.23-0.278c0.37,0,0.743,0,1.113,0c0.758-0.173,2.212,0.354,2.509-0.278
	c0.372,0,0.743,0,1.115,0c0.371,0,0.743,0,1.114,0c0.491-0.16,1.639,0.336,1.673-0.278c0.465,0,0.93,0,1.395,0
	c0.37,0,0.743,0,1.113,0c0.577-0.167,1.831,0.343,1.952-0.28c0.557,0,1.115,0,1.673,0c0.37,0,0.743,0,1.113,0
	c0.465,0,0.93,0,1.395,0c0.371,0,0.743,0,1.114,0c0.404-0.152,1.44,0.327,1.394-0.278c0.093,0,0.187,0,0.279,0
	c0.322-0.233,0.747-0.367,1.392-0.278c0.064-0.217,0.009-0.55,0.281-0.558c0.45,0.2,0.45-1.314,0-1.114c0-0.093,0-0.187,0-0.279
	c-0.413-0.146-0.703-0.412-1.116-0.557c-0.844-0.644-2.875-0.1-4.181-0.28c-0.928,0-1.857,0-2.787,0
	c-0.848,0.176-2.4-0.356-2.787,0.28c-0.835,0-1.673,0-2.508,0c-1.021,0-2.044,0-3.065,0c-1.116,0-2.229,0-3.346,0
	c-0.743,0-1.486,0-2.229,0s-1.486,0-2.23,0c-0.278,0-0.557,0-0.835,0C104.943,66.546,103.796,67.044,103.305,66.882z"/>
<path fill-rule="evenodd" clip-rule="evenodd" fill="#727272" d="M116.684,73.293c0.387-0.636,1.939-0.104,2.786-0.278
	C119.083,73.649,117.531,73.119,116.684,73.293z"/>
<path fill-rule="evenodd" clip-rule="evenodd" fill="#A9A9A9" d="M88.255,90.295c0.638,0.477,0.103,2.127,0.278,3.065
	c-0.092,0-0.186,0-0.278,0C88.255,92.339,88.255,91.316,88.255,90.295z"/>
<path fill-rule="evenodd" clip-rule="evenodd" fill="#727272" d="M100.239,64.374c0.034-0.615,1.183-0.118,1.673-0.278
	c0.577,0.166,1.831-0.345,1.949,0.278C102.655,64.374,101.447,64.374,100.239,64.374z"/>
<path fill-rule="evenodd" clip-rule="evenodd" fill="#727272" d="M105.813,67.162c0.744,0,1.487,0,2.23,0c0,0.092,0,0.185,0,0.278
	C107.378,67.271,106.021,67.79,105.813,67.162z"/>
<path fill-rule="evenodd" clip-rule="evenodd" fill="#727272" d="M27.496,96.148c0.929,0,1.858,0,2.788,0c0,0.092,0,0.185,0,0.278
	C29.436,96.251,27.882,96.783,27.496,96.148z"/>
</svg>
