<?xml version="1.0" encoding="utf-8"?>
<!-- Generator: Adobe Illustrator 15.0.0, SVG Export Plug-In  -->
<!DOCTYPE svg PUBLIC "-//W3C//DTD SVG 1.1//EN" "http://www.w3.org/Graphics/SVG/1.1/DTD/svg11.dtd" [
	<!ENTITY ns_flows "http://ns.adobe.com/Flows/1.0/">
]>
<svg version="1.1"
	 xmlns="http://www.w3.org/2000/svg" xmlns:xlink="http://www.w3.org/1999/xlink" xmlns:a="http://ns.adobe.com/AdobeSVGViewerExtensions/3.0/"
	 x="0px" y="0px" width="142px" height="142px" viewBox="-1.115 -14.796 142 142" enable-background="new -1.115 -14.796 142 142"
	 xml:space="preserve">
<defs>
</defs>
<path fill-rule="evenodd" clip-rule="evenodd" fill="#D4D4D4" d="M105.63,30.757c-0.044-0.458,1.719-0.458,1.673,0
	C106.747,30.757,106.19,30.757,105.63,30.757z"/>
<path fill-rule="evenodd" clip-rule="evenodd" fill="#323232" d="M8.083,37.167c0,0.372,0,0.743,0,1.115c-0.093,0-0.186,0-0.279,0
	C7.852,37.865,7.704,37.253,8.083,37.167z"/>
<path fill-rule="evenodd" clip-rule="evenodd" fill="#323232" d="M86.4,38.003c-0.404-0.153-1.44,0.325-1.393-0.279
	C85.413,37.877,86.448,37.399,86.4,38.003z"/>
<path fill-rule="evenodd" clip-rule="evenodd" fill="#323232" d="M86.678,38.003c0.053-0.413,0.676-0.256,1.116-0.279
	C87.743,38.137,87.122,37.98,86.678,38.003z"/>
<path fill-rule="evenodd" clip-rule="evenodd" fill="#323232" d="M76.924,52.496c0,0.558,0,1.115,0,1.672
	C76.467,54.214,76.467,52.451,76.924,52.496z"/>
<path fill-rule="evenodd" clip-rule="evenodd" fill="#323232" d="M78.875,54.168c0.623,0.12,0.112,1.374,0.278,1.951
	C78.531,56,79.042,54.746,78.875,54.168z"/>
<path fill-rule="evenodd" clip-rule="evenodd" fill="#323232" d="M85.843,56.12c0.052-0.413,0.673-0.256,1.115-0.279
	c0,0.093,0,0.186,0,0.279C86.586,56.12,86.213,56.12,85.843,56.12z"/>
<path fill-rule="evenodd" clip-rule="evenodd" fill="#A4A4A4" d="M6.689,56.398c-0.199-0.452,1.314-0.452,1.115,0
	C7.432,56.398,7.061,56.398,6.689,56.398z"/>
<path fill-rule="evenodd" clip-rule="evenodd" fill="#323232" d="M51.561,58.629c0.052-0.414,0.674-0.257,1.116-0.28
	c0,0.094,0,0.187,0,0.28C52.305,58.629,51.934,58.629,51.561,58.629z"/>
<path fill-rule="evenodd" clip-rule="evenodd" fill="#D4D4D4" d="M4.459,58.629c0,0.37,0,0.743,0,1.113
	C4.007,59.942,4.007,58.428,4.459,58.629z"/>
<path fill-rule="evenodd" clip-rule="evenodd" fill="#A4A4A4" d="M77.761,59.464c-0.048-0.604,0.987-0.126,1.393-0.278
	C79.202,59.789,78.166,59.312,77.761,59.464z"/>
<path fill-rule="evenodd" clip-rule="evenodd" fill="#323232" d="M74.694,59.742c0-0.092,0-0.186,0-0.278c0.373,0,0.743,0,1.116,0
	C75.758,59.877,75.137,59.72,74.694,59.742z"/>
<path fill-rule="evenodd" clip-rule="evenodd" fill="#323232" d="M70.793,60.021c0-0.092,0-0.185,0-0.278c0.371,0,0.744,0,1.115,0
	C71.856,60.155,71.234,59.999,70.793,60.021z"/>
<path fill-rule="evenodd" clip-rule="evenodd" fill="#323232" d="M28.708,60.3c0.051-0.412,0.673-0.255,1.115-0.279
	c0,0.094,0,0.187,0,0.279C29.45,60.3,29.079,60.3,28.708,60.3z"/>
<path fill-rule="evenodd" clip-rule="evenodd" fill="#323232" d="M24.805,60.579c0.052-0.413,0.674-0.256,1.115-0.279
	c0,0.094,0,0.186,0,0.279C25.548,60.579,25.177,60.579,24.805,60.579z"/>
<path fill-rule="evenodd" clip-rule="evenodd" fill="#323232" d="M77.203,60.3c0.625,0.121,0.114,1.374,0.278,1.951
	C76.858,62.132,77.369,60.877,77.203,60.3z"/>
<path fill-rule="evenodd" clip-rule="evenodd" fill="#323232" d="M55.463,61.137c0-0.093,0-0.187,0-0.279c0.372,0,0.743,0,1.115,0
	C56.527,61.27,55.905,61.112,55.463,61.137z"/>
<path fill-rule="evenodd" clip-rule="evenodd" fill="#323232" d="M44.036,61.972c0-0.092,0-0.185,0-0.278c0.372,0,0.743,0,1.115,0
	C45.099,62.106,44.478,61.949,44.036,61.972z"/>
<path fill-rule="evenodd" clip-rule="evenodd" fill="#323232" d="M79.432,62.251c0.453-0.2,0.453,1.314,0,1.115
	C79.432,62.994,79.432,62.623,79.432,62.251z"/>
<path fill-rule="evenodd" clip-rule="evenodd" fill="#323232" d="M28.708,63.087c0-0.093,0-0.186,0-0.278c0.372,0,0.743,0,1.115,0
	C29.77,63.222,29.149,63.064,28.708,63.087z"/>
<path fill-rule="evenodd" clip-rule="evenodd" fill="#323232" d="M77.481,63.366c0.559,0,1.116,0,1.673,0
	C79.2,63.823,77.437,63.823,77.481,63.366z"/>
<path fill-rule="evenodd" clip-rule="evenodd" fill="#A4A4A4" d="M13.378,22.116c0.44-0.674,0.997-1.232,1.673-1.672
	C14.611,21.12,14.054,21.677,13.378,22.116z"/>
<path fill-rule="evenodd" clip-rule="evenodd" fill="#717171" d="M2.229,56.677C1.555,56.052,0.701,55.604,0,55.004
	c0.145-0.412,0.412-0.702,0.558-1.115c1.148,0.152,1.631,0.97,2.508,1.394c0.366-0.099,0.438-0.49,0.836-0.558
	C3.442,55.474,2.72,55.959,2.229,56.677z"/>
<path fill-rule="evenodd" clip-rule="evenodd" fill="#323232" d="M79.432,60.3c-0.693-0.042-0.08-0.944,0-1.114
	c0.094,0,0.187,0,0.278,0C79.495,59.434,79.413,59.814,79.432,60.3z"/>
<path fill-rule="evenodd" clip-rule="evenodd" fill="#323232" d="M118.731,37.445c-0.104-1.103-0.391-2.024-0.836-2.787
	c1.8,1.538,3.14,3.377,4.738,5.295c0.068,0.082,0.523,0.203,0.558,0.279c0.362,0.803,1.014,1.198,1.673,1.951
	c0.412,0.474,0.688,1.175,1.113,1.672c0.81,0.943,1.917,1.789,2.787,2.787c0.238,0.272,0.269,0.809,0.559,1.115
	c0.577,0.611,1.178,1.329,1.949,2.23c0.779,0.908,1.852,1.734,2.789,2.787c0.246,0.277,0.204,0.741,0.557,1.115
	c0.215,0.228,0.636,0.322,0.836,0.558c0.467,0.545,0.683,1.147,1.115,1.672c0.724,0.878,2.112,1.824,2.23,3.344
	c0.122,1.578-1.297,3.795-1.951,5.296c-0.684,1.563-1.341,3.088-2.23,4.738c-0.705,1.306-1.01,2.288-1.951,2.786
	c-1.576,0.835-4.197,0.43-6.968,0.558c-9.201,0.429-18.98,1.531-27.593,2.508c-4.644,0.528-9.071,1.043-13.377,1.673
	c-2.157,0.315-4.441,0.293-6.411,1.115c0.063,1.204,1.583,1.655,2.509,2.229c0.917,0.569,1.779,1.052,2.786,1.672
	c1.333,0.82,2.693,1.567,3.903,2.788c0.737,0.745,1.13,1.127,1.673,2.229c3.893,7.919-2.222,24.479-8.362,25.084
	c-3.13,0.309-4.82-1.824-6.689-3.345c-0.659-0.535-1.422-0.959-1.951-1.394c-3.574-2.942-5.912-4.813-9.197-7.525
	c-0.578-0.478-1.049-1.161-1.672-1.672c-0.276-0.227-0.754-0.241-1.115-0.559c-0.345-0.301-0.541-0.597-0.836-0.835
	c-1.953-1.573-4.099-3.639-6.411-5.296c-1.188-0.852-3.302-1.766-5.574-1.114c-0.406,0.116-0.929,0.632-1.394,0.836
	c-2.002,0.878-3.989,2.081-6.131,3.065c-4.017,1.846-9.516,3.035-15.33,1.115c-1.337-0.441-2.728-1.198-3.902-1.951
	c-1.275-0.817-2.87-2.139-3.902-3.623c-0.961-1.383-2.948-3.771-2.23-6.968c-0.016,0.072,0.598-1.344,0.836-1.672
	c1.707-2.361,8.059-2.596,12.264-3.345c4.869-0.87,9.306-1.826,13.099-2.51c22.077-3.969,43.31-7.888,66.055-11.705
	c1.488-0.25,4.253-0.64,6.689-1.114c3.06-0.598,4.411-1.448,4.459-3.066c0.032-1.079-0.606-1.857-1.115-2.229
	c-1.804-1.323-6.443-0.206-8.919,0c-4.856,0.404-8.396,0.513-12.542,0.836c3.044-1.23,6.275-2.273,9.198-3.623
	c4.735,0.63,8.396-1.502,12.263-0.279c2.117,0.669,4.908,3.587,3.346,7.525c-0.156,0.39-0.938,0.719-1.116,1.115
	c-0.187,0.413-0.561,1.07-1.114,1.394c-1.039,0.604-2.914,0.789-4.737,1.114c-8.719,1.556-17.685,2.894-26.199,4.46
	c-1.57,0.288-3.257,0.898-4.737,1.115c-4.566,0.666-9.574,1.647-14.215,2.508c-9.821,1.821-15.547,2.638-25.92,4.46
	c-5.657,0.993-12.469,2.379-19.231,3.623c-2.771,0.51-5.072,0.538-5.575,1.951c-0.909,2.56,2.134,5.575,3.345,6.688
	c0.422,0.388,0.926,0.667,1.394,1.115c0.75,0.718,4.021,1.937,5.575,2.229c5.675,1.069,10.404-1.277,13.935-3.065
	c1.963-0.994,3.761-2.463,6.132-2.788c0.58-0.079,1.76-0.334,3.623,0c1.042,0.188,3.136,1.427,4.181,2.23
	c0.623,0.479,1.108,1.203,1.672,1.672c2.59,2.154,6.237,5.021,8.64,6.969c3.085,2.499,6.826,5.562,10.591,8.64
	c1.32,1.08,2.452,2.318,3.903,2.229c1.98-0.123,2.479-2.141,3.9-3.623c0.13-0.135,0.941-1.594,1.115-1.951
	c1.166-2.409,2.04-5.908,2.23-8.083c0.244-2.812-0.053-5.583-0.838-7.246c-0.446-0.951-1.364-2.219-2.508-3.066
	c-0.545-0.403-1.353-0.487-1.949-0.836c-0.714-0.415-1.333-0.799-1.951-1.394c-0.239-0.227-0.604-0.334-0.838-0.557
	c-1.242-1.191-4.319-1.272-3.9-4.738c0.256-2.14,2.201-2.584,5.017-3.066c16.104-2.762,32.485-3.936,50.445-4.738
	c1.046-0.869,1.585-2.146,2.229-3.623c0.766-1.75,1.747-4.411,2.787-6.411c-0.938-2.114-2.719-3.614-4.179-5.295
	c-4.14-4.762-8.423-9.896-12.822-14.771c0-0.279,0-0.557,0-0.836C118.849,38.628,119.346,37.48,118.731,37.445z"/>
<path fill-rule="evenodd" clip-rule="evenodd" fill="#323232" d="M116.501,32.708c-0.676-0.439-1.232-0.997-1.673-1.672
	C115.503,31.475,116.062,32.032,116.501,32.708z"/>
<path fill-rule="evenodd" clip-rule="evenodd" fill="#717171" d="M97.549,31.593c0.783-1.128-1.137-1.535-1.116-2.787
	c0.402-0.156,0.681-0.435,0.837-0.836c0.775,0.618,1.234,1.552,1.952,2.229C98.628,30.629,98.184,31.206,97.549,31.593z"/>
<path fill-rule="evenodd" clip-rule="evenodd" fill="#717171" d="M94.206,35.216c0.438-0.675,0.995-1.233,1.671-1.672
	C95.437,34.219,94.88,34.776,94.206,35.216z"/>
<path fill-rule="evenodd" clip-rule="evenodd" fill="#D4D4D4" d="M76.645,33.265c0.628,0.674,1.276,1.324,1.952,1.951
	C77.601,34.911,76.95,34.261,76.645,33.265z"/>
<path fill-rule="evenodd" clip-rule="evenodd" fill="#A4A4A4" d="M15.051,24.068c0.439-0.675,0.997-1.233,1.672-1.672
	C16.283,23.07,15.726,23.628,15.051,24.068z"/>
<path fill-rule="evenodd" clip-rule="evenodd" fill="#323232" d="M113.158,33.265c0.49,0.251,0.861,0.623,1.113,1.115
	C113.781,34.128,113.408,33.757,113.158,33.265z"/>
<path fill-rule="evenodd" clip-rule="evenodd" fill="#717171" d="M99.779,33.265c0.026-0.716,1.088-0.398,1.114-1.115
	c0.094,0,0.186,0,0.278,0c-0.855,0.912,2.313,2.126,0.837,2.787c-0.412,0.323-0.703,0.323-1.115,0
	c-0.099-0.365-0.489-0.438-0.558-0.836C100.238,33.735,99.845,33.663,99.779,33.265z"/>
<path fill-rule="evenodd" clip-rule="evenodd" fill="#323232" d="M98.384,34.659c0.347-0.583,0.812-1.047,1.395-1.394
	c0.066,0.398,0.459,0.47,0.557,0.836C99.514,33.04,99.208,34.259,98.384,34.659z"/>
<path fill-rule="evenodd" clip-rule="evenodd" fill="#D4D4D4" d="M95.876,37.167c0.532-0.767,1.184-1.418,1.951-1.951
	c0,0.093,0,0.186,0,0.279c-0.676,0.439-1.232,0.997-1.673,1.672C96.062,37.167,95.97,37.167,95.876,37.167z"/>
<path fill-rule="evenodd" clip-rule="evenodd" fill="#717171" d="M74.972,35.495c0.676,0.439,1.234,0.997,1.673,1.672
	C75.97,36.727,75.414,36.17,74.972,35.495z"/>
<path fill-rule="evenodd" clip-rule="evenodd" fill="#323232" d="M96.155,37.167c0.44-0.675,0.997-1.232,1.673-1.672
	C97.388,36.17,96.832,36.727,96.155,37.167z"/>
<path fill-rule="evenodd" clip-rule="evenodd" fill="#323232" d="M100.893,34.937c0.412,0.323,0.703,0.323,1.115,0
	c-0.052,0.227-0.28,0.278-0.278,0.558C101.253,35.507,101.006,35.288,100.893,34.937z"/>
<path fill-rule="evenodd" clip-rule="evenodd" fill="#717171" d="M5.574,56.956c0.623,0.837,2.545,0.998,1.672,2.508
	c-0.981,0.635-1.617-1.055-2.788-1.115C4.741,57.794,4.941,57.159,5.574,56.956z"/>
<path fill-rule="evenodd" clip-rule="evenodd" fill="#717171" d="M77.761,59.464c0.404-0.152,1.44,0.325,1.393-0.278
	c0.094,0,0.187,0,0.278,0c-0.08,0.17-0.693,1.072,0,1.114c0,0.65,0,1.301,0,1.951c0,0.372,0,0.743,0,1.115c-0.092,0-0.185,0-0.278,0
	c-0.557,0-1.114,0-1.673,0c0-0.372,0-0.743,0-1.115c-0.164-0.577,0.347-1.83-0.278-1.951c0-0.279,0-0.558,0-0.836
	C77.389,59.464,77.575,59.464,77.761,59.464z"/>
<path fill-rule="evenodd" clip-rule="evenodd" fill="#717171" d="M46.824,7.624c-0.161,0.675-1.053,0.62-1.672,0.836
	c0.01-1.217-0.77-1.646-0.836-2.787c0.671,0.114,0.605-0.509,1.394-0.279C46.23,5.987,46.163,7.169,46.824,7.624z"/>
<path fill-rule="evenodd" clip-rule="evenodd" fill="#717171" d="M8.361,33.823c-0.17,0.666,0.35,2.022-0.278,2.23
	C8.252,35.386,7.733,34.03,8.361,33.823z"/>
<path fill-rule="evenodd" clip-rule="evenodd" fill="#717171" d="M10.87,36.053c-0.17,0.666,0.35,2.022-0.278,2.229
	C10.761,37.616,10.241,36.26,10.87,36.053z"/>
<path fill-rule="evenodd" clip-rule="evenodd" fill="#A4A4A4" d="M118.731,37.445c0.615,0.035,0.118,1.183,0.278,1.673
	C118.394,39.083,118.891,37.936,118.731,37.445z"/>
<path fill-rule="evenodd" clip-rule="evenodd" fill="#717171" d="M116.223,39.118c0.629,0.208,0.107,1.563,0.278,2.23
	C115.872,41.14,116.393,39.784,116.223,39.118z"/>
<path fill-rule="evenodd" clip-rule="evenodd" fill="#717171" d="M8.083,38.282c0,0.836,0,1.672,0,2.509
	c-0.633-0.297-0.106-1.752-0.279-2.509C7.897,38.282,7.99,38.282,8.083,38.282z"/>
<path fill-rule="evenodd" clip-rule="evenodd" fill="#717171" d="M119.009,40.512c0.629,0.208,0.11,1.563,0.278,2.229
	C118.661,42.534,119.18,41.178,119.009,40.512z"/>
<path fill-rule="evenodd" clip-rule="evenodd" fill="#717171" d="M116.501,42.462c0.623,0.12,0.112,1.374,0.278,1.951
	C116.157,44.293,116.667,43.04,116.501,42.462z"/>
<path fill-rule="evenodd" clip-rule="evenodd" fill="#717171" d="M89.746,55.841c0.297-0.633,1.751-0.106,2.509-0.279
	C91.958,56.195,90.5,55.668,89.746,55.841z"/>
<path fill-rule="evenodd" clip-rule="evenodd" fill="#A4A4A4" d="M86.958,55.841c0.558,0,1.114,0,1.671,0
	c-0.033,0.615-1.182,0.118-1.671,0.279C86.958,56.026,86.958,55.934,86.958,55.841z"/>
<path fill-rule="evenodd" clip-rule="evenodd" fill="#717171" d="M82.221,56.398c0.294-0.632,1.751-0.106,2.508-0.278
	C84.433,56.752,82.976,56.226,82.221,56.398z"/>
<path fill-rule="evenodd" clip-rule="evenodd" fill="#717171" d="M79.154,56.12c-0.05,0.237,0.108,0.263,0.278,0.278
	c0,0.093,0,0.186,0,0.279c-1.879-0.208-2.895,0.448-4.738,0.278c0.209-0.628,1.564-0.109,2.23-0.278c0-0.836,0-1.673,0-2.509
	c0-0.558,0-1.114,0-1.672c0.65,0,1.3,0,1.951,0c0,0.558,0,1.115,0,1.672C79.042,54.746,78.531,56,79.154,56.12z"/>
<path fill-rule="evenodd" clip-rule="evenodd" fill="#A4A4A4" d="M79.432,56.398c0.559,0,1.116,0,1.673,0
	c-0.034,0.616-1.182,0.119-1.673,0.279C79.432,56.584,79.432,56.491,79.432,56.398z"/>
<path fill-rule="evenodd" clip-rule="evenodd" fill="#717171" d="M70.793,57.234c0.296-0.632,1.752-0.106,2.508-0.279
	C73.005,57.588,71.549,57.062,70.793,57.234z"/>
<path fill-rule="evenodd" clip-rule="evenodd" fill="#717171" d="M66.891,57.513c0.297-0.632,1.752-0.105,2.508-0.278
	C69.103,57.867,67.647,57.34,66.891,57.513z"/>
<path fill-rule="evenodd" clip-rule="evenodd" fill="#717171" d="M63.267,57.792c0.297-0.633,1.752-0.106,2.509-0.279
	C65.479,58.146,64.024,57.619,63.267,57.792z"/>
<path fill-rule="evenodd" clip-rule="evenodd" fill="#717171" d="M59.366,58.07c0.296-0.633,1.752-0.106,2.509-0.278
	C61.577,58.424,60.122,57.898,59.366,58.07z"/>
<path fill-rule="evenodd" clip-rule="evenodd" fill="#717171" d="M55.463,58.349c0.296-0.632,1.752-0.105,2.509-0.278
	C57.676,58.702,56.22,58.177,55.463,58.349z"/>
<path fill-rule="evenodd" clip-rule="evenodd" fill="#717171" d="M92.254,58.349c0.12-0.623,1.372-0.113,1.951-0.278
	C94.085,58.693,92.831,58.184,92.254,58.349z"/>
<path fill-rule="evenodd" clip-rule="evenodd" fill="#A4A4A4" d="M52.677,58.349c0.464,0,0.929,0,1.393,0
	c0.047,0.605-0.988,0.127-1.393,0.28C52.677,58.535,52.677,58.442,52.677,58.349z"/>
<path fill-rule="evenodd" clip-rule="evenodd" fill="#717171" d="M88.351,58.629c0.297-0.634,1.753-0.106,2.509-0.28
	C90.563,58.982,89.109,58.455,88.351,58.629z"/>
<path fill-rule="evenodd" clip-rule="evenodd" fill="#717171" d="M47.938,58.907c0.297-0.634,1.752-0.106,2.509-0.278
	C50.15,59.261,48.694,58.733,47.938,58.907z"/>
<path fill-rule="evenodd" clip-rule="evenodd" fill="#717171" d="M84.729,58.907c0.206-0.629,1.563-0.109,2.229-0.278
	C86.75,59.257,85.394,58.736,84.729,58.907z"/>
<path fill-rule="evenodd" clip-rule="evenodd" fill="#717171" d="M44.036,59.186c0.297-0.632,1.752-0.106,2.509-0.278
	C46.248,59.539,44.793,59.013,44.036,59.186z"/>
<path fill-rule="evenodd" clip-rule="evenodd" fill="#717171" d="M79.991,59.186c0.567-0.641,2.314-0.102,3.344-0.278
	C82.766,59.546,81.021,59.007,79.991,59.186z"/>
<path fill-rule="evenodd" clip-rule="evenodd" fill="#717171" d="M40.134,59.464c0.296-0.632,1.752-0.106,2.509-0.278
	C42.346,59.817,40.891,59.292,40.134,59.464z"/>
<path fill-rule="evenodd" clip-rule="evenodd" fill="#717171" d="M36.511,59.742c0.296-0.632,1.752-0.106,2.508-0.278
	C38.723,60.096,37.268,59.57,36.511,59.742z"/>
<path fill-rule="evenodd" clip-rule="evenodd" fill="#A4A4A4" d="M72.186,59.742c0.297-0.632,1.753-0.106,2.508-0.278
	c0,0.093,0,0.187,0,0.278C73.859,59.742,73.023,59.742,72.186,59.742z"/>
<path fill-rule="evenodd" clip-rule="evenodd" fill="#717171" d="M32.609,60.021c0.297-0.632,1.752-0.104,2.509-0.278
	C34.821,60.375,33.365,59.849,32.609,60.021z"/>
<path fill-rule="evenodd" clip-rule="evenodd" fill="#717171" d="M69.399,60.021c-0.046-0.604,0.988-0.125,1.394-0.278
	c0,0.094,0,0.187,0,0.278C70.328,60.021,69.863,60.021,69.399,60.021z"/>
<path fill-rule="evenodd" clip-rule="evenodd" fill="#A4A4A4" d="M29.822,60.021c0.464,0,0.929,0,1.394,0
	c0.047,0.605-0.988,0.128-1.394,0.279C29.822,60.207,29.822,60.114,29.822,60.021z"/>
<path fill-rule="evenodd" clip-rule="evenodd" fill="#717171" d="M65.497,60.3c0.296-0.633,1.752-0.105,2.509-0.279
	C67.709,60.654,66.254,60.127,65.497,60.3z"/>
<path fill-rule="evenodd" clip-rule="evenodd" fill="#A4A4A4" d="M25.92,60.3c0.557,0,1.115,0,1.672,0
	c-0.035,0.616-1.183,0.119-1.672,0.279C25.92,60.485,25.92,60.394,25.92,60.3z"/>
<path fill-rule="evenodd" clip-rule="evenodd" fill="#717171" d="M61.595,60.579c0.297-0.633,1.752-0.106,2.509-0.279
	C63.807,60.933,62.352,60.406,61.595,60.579z"/>
<path fill-rule="evenodd" clip-rule="evenodd" fill="#717171" d="M21.182,60.857c0.296-0.632,1.752-0.105,2.508-0.278
	C23.394,61.212,21.938,60.685,21.182,60.857z"/>
<path fill-rule="evenodd" clip-rule="evenodd" fill="#717171" d="M57.972,60.857c0.208-0.628,1.563-0.108,2.229-0.278
	C59.994,61.207,58.638,60.688,57.972,60.857z"/>
<path fill-rule="evenodd" clip-rule="evenodd" fill="#717171" d="M17.559,61.137c0.207-0.629,1.563-0.109,2.229-0.279
	C19.581,61.486,18.225,60.967,17.559,61.137z"/>
<path fill-rule="evenodd" clip-rule="evenodd" fill="#717171" d="M54.07,61.137c-0.046-0.605,0.989-0.127,1.394-0.279
	c0,0.093,0,0.187,0,0.279C54.999,61.137,54.534,61.137,54.07,61.137z"/>
<path fill-rule="evenodd" clip-rule="evenodd" fill="#717171" d="M14.214,61.415c0.208-0.629,1.563-0.109,2.23-0.278
	C16.237,61.765,14.881,61.245,14.214,61.415z"/>
<path fill-rule="evenodd" clip-rule="evenodd" fill="#717171" d="M50.168,61.415c0.296-0.632,1.752-0.106,2.509-0.278
	C52.38,61.769,50.924,61.243,50.168,61.415z"/>
<path fill-rule="evenodd" clip-rule="evenodd" fill="#717171" d="M10.87,61.693c0.208-0.628,1.563-0.107,2.23-0.278
	C12.892,62.043,11.536,61.523,10.87,61.693z"/>
<path fill-rule="evenodd" clip-rule="evenodd" fill="#717171" d="M45.43,61.693c0.569-0.64,2.315-0.101,3.345-0.278
	C48.206,62.055,46.46,61.517,45.43,61.693z"/>
<path fill-rule="evenodd" clip-rule="evenodd" fill="#717171" d="M7.525,61.972c0.208-0.628,1.563-0.107,2.229-0.278
	C9.547,62.321,8.191,61.803,7.525,61.972z"/>
<path fill-rule="evenodd" clip-rule="evenodd" fill="#717171" d="M42.643,61.972c-0.047-0.604,0.989-0.126,1.393-0.278
	c0,0.094,0,0.187,0,0.278C43.572,61.972,43.107,61.972,42.643,61.972z"/>
<path fill-rule="evenodd" clip-rule="evenodd" fill="#717171" d="M38.741,62.251c0.296-0.633,1.752-0.106,2.508-0.279
	C40.953,62.605,39.497,62.078,38.741,62.251z"/>
<path fill-rule="evenodd" clip-rule="evenodd" fill="#717171" d="M34.839,62.53c0.296-0.633,1.752-0.106,2.509-0.279
	C37.051,62.884,35.595,62.356,34.839,62.53z"/>
<path fill-rule="evenodd" clip-rule="evenodd" fill="#717171" d="M31.216,62.809c0.207-0.628,1.563-0.109,2.229-0.278
	C33.238,63.158,31.882,62.64,31.216,62.809z"/>
<path fill-rule="evenodd" clip-rule="evenodd" fill="#A4A4A4" d="M27.313,63.087c-0.046-0.604,0.989-0.126,1.394-0.278
	c0,0.093,0,0.186,0,0.278C28.243,63.087,27.778,63.087,27.313,63.087z"/>
<path fill-rule="evenodd" clip-rule="evenodd" fill="#717171" d="M23.412,63.366c0.296-0.633,1.752-0.105,2.508-0.279
	C25.624,63.72,24.168,63.193,23.412,63.366z"/>
<path fill-rule="evenodd" clip-rule="evenodd" fill="#717171" d="M19.788,63.645c0.208-0.629,1.564-0.108,2.23-0.278
	C21.811,63.994,20.455,63.475,19.788,63.645z"/>
<path fill-rule="evenodd" clip-rule="evenodd" fill="#717171" d="M16.444,63.924c0.207-0.629,1.563-0.109,2.229-0.279
	C18.466,64.273,17.111,63.753,16.444,63.924z"/>
<path fill-rule="evenodd" clip-rule="evenodd" fill="#717171" d="M12.821,64.202c0.208-0.628,1.563-0.108,2.23-0.278
	C14.843,64.552,13.487,64.031,12.821,64.202z"/>
<path fill-rule="evenodd" clip-rule="evenodd" fill="#717171" d="M9.755,64.48c0.12-0.623,1.374-0.112,1.951-0.278
	C11.586,64.825,10.332,64.315,9.755,64.48z"/>
<path fill-rule="evenodd" clip-rule="evenodd" fill="#323232" d="M6.411,64.48c0.65,0,1.301,0,1.951,0
	C8.324,64.94,6.448,64.94,6.411,64.48z"/>
<path fill-rule="evenodd" clip-rule="evenodd" fill="#FFFFFF" d="M46.824,7.624c2.104-0.513,5.233-2.083,7.525-3.065
	c0.738-0.316,1.652-0.47,2.508-0.836c0.138-0.059,0.456-0.526,0.557-0.558c1.345-0.407,2.809-1.063,4.18-1.672
	c1.847-0.819,3.563-1.811,5.296-1.394c0.844,0.203,2.031,1.324,2.508,2.508c0.207,0.512,0.154,1.443,0.279,2.229
	c0.909,5.736,1.904,11.072,3.064,16.723c0.741,3.6,1.773,9.002,3.902,11.706c0.305,0.996,0.956,1.646,1.952,1.951
	c1.742,1.229,3.618,2.329,6.41,2.508c-0.048,0.604,0.988,0.126,1.393,0.279c0.095,0,0.187,0,0.278,0
	c0.443-0.023,1.064,0.134,1.116-0.279c2.807-0.167,4.491-1.454,6.411-2.508c0.675-0.44,1.231-0.998,1.671-1.672
	c0.347-0.862,0.921-1.496,1.673-1.951c0.635-0.387,1.079-0.964,1.673-1.394c1.46-0.955,2.963-1.867,5.295-1.951
	c1.3,0,2.601,0,3.902,0c2.927,0.137,4.652,1.48,6.409,2.787c0.44,0.675,0.997,1.232,1.673,1.672
	c0.264,0.852,1.356,0.874,1.394,1.951c0.445,0.763,0.731,1.684,0.836,2.787c0.16,0.49-0.337,1.638,0.278,1.673
	c0,0.279,0,0.557,0,0.836c0,0.186,0,0.372,0,0.558c0.171,0.666-0.349,2.022,0.278,2.229c0,0.373,0,0.744,0,1.116
	c0,0.929,0,1.857,0,2.787c-0.657,3.322-3.676,3.582-6.689,4.739c-2.841,1.091-5.653,2.503-8.081,3.065
	c-2.923,1.35-6.154,2.393-9.198,3.623c-0.37,0-0.743,0-1.113,0c-0.579,0.165-1.831-0.345-1.951,0.278c-0.465,0-0.93,0-1.395,0
	c-0.756,0.174-2.212-0.354-2.509,0.28c-0.465,0-0.93,0-1.393,0c-0.667,0.169-2.023-0.351-2.229,0.278c-0.465,0-0.93,0-1.395,0
	c-1.029,0.177-2.776-0.362-3.344,0.278c-0.094,0-0.186,0-0.28,0c-0.092,0-0.185,0-0.278,0c-0.092,0-0.185,0-0.278,0
	c-0.405,0.152-1.44-0.326-1.393,0.278c-0.187,0-0.372,0-0.559,0c-0.463,0-0.928,0-1.393,0c-0.373,0-0.743,0-1.116,0
	c-0.755,0.172-2.211-0.354-2.508,0.278c-0.093,0-0.186,0-0.278,0c-0.371,0-0.744,0-1.115,0c-0.406,0.153-1.44-0.325-1.394,0.278
	c-0.464,0-0.929,0-1.393,0c-0.756,0.174-2.212-0.354-2.509,0.279c-0.464,0-0.929,0-1.394,0c-0.756,0.173-2.212-0.354-2.509,0.279
	c-0.464,0-0.929,0-1.393,0c-0.667,0.17-2.022-0.35-2.229,0.278c-0.465,0-0.93,0-1.394,0c-0.372,0-0.743,0-1.115,0
	c-0.405,0.152-1.44-0.326-1.394,0.279c-0.464,0-0.929,0-1.393,0c-0.757,0.172-2.212-0.354-2.509,0.278c-0.464,0-0.929,0-1.394,0
	c-1.03,0.178-2.776-0.361-3.345,0.278c-0.092,0-0.186,0-0.278,0c-0.372,0-0.743,0-1.115,0c-0.404,0.152-1.44-0.325-1.393,0.278
	c-0.465,0-0.93,0-1.394,0c-0.756,0.173-2.211-0.354-2.508,0.279c-0.464,0-0.929,0-1.394,0c-0.757,0.173-2.212-0.354-2.509,0.279
	c-0.464,0-0.929,0-1.394,0c-0.667,0.169-2.022-0.35-2.229,0.278c-0.464,0-0.929,0-1.394,0c-0.372,0-0.743,0-1.115,0
	c-0.405,0.152-1.44-0.325-1.394,0.278c-0.464,0-0.929,0-1.393,0c-0.756,0.174-2.212-0.354-2.508,0.279c-0.465,0-0.929,0-1.394,0
	c-0.666,0.17-2.022-0.351-2.23,0.278c-0.372,0-0.743,0-1.114,0c-0.667,0.17-2.022-0.35-2.229,0.279c-0.465,0-0.929,0-1.394,0
	c-0.667,0.17-2.022-0.35-2.23,0.278c-0.372,0-0.743,0-1.115,0c-0.578,0.166-1.831-0.345-1.951,0.278c-0.464,0-0.929,0-1.394,0
	c-0.65,0-1.301,0-1.951,0c-2.57-0.31-4.062-1.698-4.459-4.181c0-0.836,0-1.671,0-2.508c-0.119-0.583,0.191-0.738,0.278-1.115
	c0.491-0.718,1.212-1.204,1.673-1.952c0.076-0.573,1.038-0.262,1.114-0.836c0.186,0,0.372,0,0.558,0c1.115,0,2.229,0,3.345,0
	c1.897,0.117,3.786,2.367,5.295,1.115c0.457,0.046,0.457-1.717,0-1.672c-2.377-3.848-6.016-6.434-6.131-12.542
	c0-0.836,0-1.672,0-2.509c0-0.372,0-0.743,0-1.115c0-0.371,0-0.743,0-1.114c0.628-0.208,0.108-1.564,0.278-2.23
	c0.206-5.37,2.348-8.8,5.017-11.707c0.676-0.439,1.233-0.997,1.673-1.672c3.435-3.783,10.046-4.975,16.165-6.967
	c4.884-1.59,9.616-3.634,13.936-5.017C45.771,8.243,46.663,8.299,46.824,7.624z M74.972,35.495c-2.155-2.167-3.143-5.064-3.9-8.362
	c-1.024-4.448-1.971-9.448-2.788-13.936c-0.196-1.076-0.639-2.25-0.836-3.345c-0.432-2.4-0.173-4.968-1.394-6.967
	c-1.976,0.485-3.996,1.581-5.574,2.23c-1.467,0.603-3.118,1.464-4.459,1.951c-2.751,0.998-5.827,2.569-8.361,3.345
	c-0.496,0.154-1.158,0.143-1.394,0.557c-0.74,0.404-1.256,0.577-1.95,0.836c-2.021,0.755-3.76,1.302-5.574,1.952
	c-2.516,0.899-4.981,1.945-7.525,2.787c-4.626,1.531-9.523,2.474-12.821,4.738c-0.557,0.382-0.905,1.042-1.672,1.115
	c-0.675,0.439-1.233,0.997-1.672,1.672c-0.603,1.154-1.292,2.108-1.951,3.344c-1.255,2.356-2.131,5.074-2.23,8.641
	c-0.628,0.207-0.109,1.563-0.278,2.229c0.177,2.683,0.627,5.411,1.393,6.968c1.237,2.515,4.608,5.117,5.017,7.525
	c0.324,1.909,0.003,4.856-2.509,5.296c-0.743,0-1.486,0-2.229,0c-1.642-0.402-2.95-1.138-4.459-1.672c0.2-0.452-1.314-0.452-1.115,0
	c-0.412,0.146-0.702,0.413-1.115,0.558c-0.633,0.204-0.833,0.838-1.115,1.393c0,0.094,0,0.187,0,0.28
	c-0.452-0.201-0.452,1.313,0,1.113c0.502,1.265,1.526,2.006,3.066,2.229c0.666-0.169,2.022,0.35,2.229-0.278
	c0.372,0,0.743,0,1.115,0c0.667-0.17,2.022,0.35,2.23-0.278c0.372,0,0.743,0,1.115,0c0.667-0.17,2.022,0.35,2.23-0.278
	c0.372,0,0.743,0,1.115,0c0.666-0.17,2.022,0.35,2.229-0.279c0.465,0,0.929,0,1.394,0c0.756-0.173,2.212,0.354,2.508-0.278
	c0.372,0,0.743,0,1.115,0s0.743,0,1.115,0c0.49-0.16,1.638,0.337,1.672-0.279c0.372,0,0.743,0,1.115,0c0.372,0,0.743,0,1.115,0
	c0.405-0.151,1.44,0.326,1.394-0.279c0.464,0,0.929,0,1.393,0c0.756-0.172,2.212,0.354,2.509-0.278c0.464,0,0.929,0,1.394,0
	c0.756-0.172,2.212,0.354,2.508-0.278c0.372,0,0.743,0,1.115,0c0.756-0.172,2.212,0.354,2.509-0.278c0.464,0,0.929,0,1.393,0
	c0.757-0.173,2.212,0.354,2.509-0.278c0.464,0,0.929,0,1.393,0c0.756-0.174,2.212,0.354,2.509-0.278c0.372,0,0.743,0,1.114,0
	c0.373,0,0.744,0,1.116,0c0.405-0.153,1.44,0.325,1.393-0.28c0.464,0,0.929,0,1.394,0c0.756-0.172,2.212,0.354,2.509-0.278
	c0.464,0,0.929,0,1.394,0c0.756-0.172,2.211,0.354,2.509-0.278c0.463,0,0.928,0,1.393,0c0.757-0.173,2.212,0.354,2.509-0.279
	c0.372,0,0.743,0,1.115,0c0.756-0.173,2.212,0.354,2.508-0.278c0.464,0,0.929,0,1.394,0c0.756-0.172,2.212,0.354,2.508-0.279
	c0.465,0,0.928,0,1.393,0c1.844,0.17,2.859-0.487,4.738-0.278c0.491-0.161,1.639,0.336,1.673-0.279c0.373,0,0.743,0,1.116,0
	c0.755-0.172,2.212,0.354,2.508-0.278c0.371,0,0.743,0,1.114,0c0.37,0,0.743,0,1.115,0c0.489-0.161,1.638,0.336,1.671-0.279
	c0.373,0,0.743,0,1.116,0c0.755-0.172,2.212,0.354,2.509-0.279c2.374-0.069,3.758-0.816,5.295-1.394
	c1.692-0.636,3.417-1.188,5.017-1.672c0.104-0.032,0.414-0.504,0.557-0.558c1.162-0.434,2.881-0.771,3.624-1.114
	c0.467-0.216,1.02-0.386,1.395-0.558c1.25-0.576,2.464-0.946,3.622-1.393c1.781-0.686,3.858-1.279,5.017-2.787
	c0-0.557,0-1.115,0-1.672c-0.166-0.578,0.345-1.831-0.278-1.951c0-0.372,0-0.743,0-1.114c-0.171-0.667,0.351-2.022-0.278-2.23
	c-0.007-2.224-0.92-3.54-1.952-4.738c-0.252-0.492-0.623-0.863-1.113-1.115c-1.593-1.196-3.4-2.175-5.854-2.508
	c0.046-0.458-1.717-0.458-1.673,0c-1.648,0.301-3.093,0.809-4.459,1.394c-0.093,0-0.185,0-0.278,0
	c-0.026,0.716-1.088,0.398-1.114,1.115c-0.583,0.346-1.048,0.811-1.395,1.394c-0.058,0.313-0.309,0.434-0.557,0.558
	c-0.768,0.533-1.419,1.184-1.951,1.951c-1.934,1.874-4.452,3.167-8.082,3.345c-0.93,0-1.859,0-2.787,0
	c-3.847-0.056-6.202-1.602-8.362-3.345C76.207,36.492,75.648,35.935,74.972,35.495z"/>
<path fill-rule="evenodd" clip-rule="evenodd" fill="#D4D4D4" d="M5.574,53.89c0.481-0.462,2.864-0.462,3.345,0
	C7.804,53.89,6.689,53.89,5.574,53.89z"/>
<path fill-rule="evenodd" clip-rule="evenodd" fill="#717171" d="M46.266,10.968c0.236-0.414,0.898-0.403,1.394-0.557
	c0.369,0.776,1.617,2.776,0,3.065C46.635,13.201,46.829,11.706,46.266,10.968z"/>
<path fill-rule="evenodd" clip-rule="evenodd" fill="#A4A4A4" d="M104.517,28.249c0.663-0.463,3.239-0.463,3.902,0
	C107.118,28.249,105.817,28.249,104.517,28.249z"/>
<path fill-rule="evenodd" clip-rule="evenodd" fill="#717171" d="M14.214,53.333c0.457-0.045,0.457,1.718,0,1.672
	C14.214,54.447,14.214,53.89,14.214,53.333z"/>
<path fill-rule="evenodd" clip-rule="evenodd" fill="#A4A4A4" d="M1.951,57.792c0,0.837,0,1.672,0,2.508
	C1.49,60.089,1.49,58.003,1.951,57.792z"/>
<path fill-rule="evenodd" clip-rule="evenodd" fill="#A4A4A4" d="M12.263,58.07c0.743,0,1.486,0,2.229,0
	C14.369,58.53,12.387,58.53,12.263,58.07z"/>
<path fill-rule="evenodd" clip-rule="evenodd" fill="#323232" d="M85.007,40.512c0.928,0,1.857,0,2.787,0
	C87.494,40.973,85.308,40.973,85.007,40.512z"/>
<path fill-rule="evenodd" clip-rule="evenodd" fill="#717171" d="M119.288,43.856c0.463,0.3,0.463,2.486,0,2.787
	C119.288,45.714,119.288,44.786,119.288,43.856z"/>
</svg>
