<?xml version="1.0" encoding="utf-8"?>
<!-- Generator: Adobe Illustrator 15.0.0, SVG Export Plug-In  -->
<!DOCTYPE svg PUBLIC "-//W3C//DTD SVG 1.1//EN" "http://www.w3.org/Graphics/SVG/1.1/DTD/svg11.dtd" [
	<!ENTITY ns_flows "http://ns.adobe.com/Flows/1.0/">
]>
<svg version="1.1"
	 xmlns="http://www.w3.org/2000/svg" xmlns:xlink="http://www.w3.org/1999/xlink" xmlns:a="http://ns.adobe.com/AdobeSVGViewerExtensions/3.0/"
	 x="0px" y="0px" width="142px" height="142px" viewBox="-1.115 -14.763 142 142" enable-background="new -1.115 -14.763 142 142"
	 xml:space="preserve">
<defs>
</defs>
<path fill-rule="evenodd" clip-rule="evenodd" fill="#D6D6D6" d="M105.63,30.79c-0.044-0.458,1.719-0.458,1.673,0
	C106.747,30.79,106.19,30.79,105.63,30.79z"/>
<path fill-rule="evenodd" clip-rule="evenodd" fill="#323232" d="M10.591,37.479c0.092,0,0.186,0,0.278,0
	c-0.047,0.417,0.1,1.029-0.278,1.116C10.591,38.222,10.591,37.851,10.591,37.479z"/>
<path fill-rule="evenodd" clip-rule="evenodd" fill="#323232" d="M86.122,38.037c-0.417-0.048-1.027,0.099-1.114-0.279
	C85.424,37.805,86.036,37.658,86.122,38.037z"/>
<path fill-rule="evenodd" clip-rule="evenodd" fill="#323232" d="M86.678,38.037c0.053-0.413,0.676-0.256,1.116-0.279
	C87.743,38.17,87.122,38.014,86.678,38.037z"/>
<path fill-rule="evenodd" clip-rule="evenodd" fill="#D6D6D6" d="M116.78,44.726c0.455-0.126,0.455,1.519,0,1.394
	C116.78,45.655,116.78,45.19,116.78,44.726z"/>
<path fill-rule="evenodd" clip-rule="evenodd" fill="#323232" d="M73.581,54.759c0.623,0.12,0.112,1.374,0.278,1.952
	C73.236,56.59,73.747,55.336,73.581,54.759z"/>
<path fill-rule="evenodd" clip-rule="evenodd" fill="#A6A6A6" d="M6.689,56.431c-0.199-0.452,1.314-0.452,1.115,0
	C7.432,56.431,7.061,56.431,6.689,56.431z"/>
<path fill-rule="evenodd" clip-rule="evenodd" fill="#D6D6D6" d="M4.459,58.662c0,0.37,0,0.743,0,1.113
	C4.007,59.976,4.007,58.461,4.459,58.662z"/>
<path fill-rule="evenodd" clip-rule="evenodd" fill="#323232" d="M47.66,58.94c0.052-0.413,0.674-0.257,1.115-0.278
	c0,0.092,0,0.185,0,0.278C48.403,58.94,48.031,58.94,47.66,58.94z"/>
<path fill-rule="evenodd" clip-rule="evenodd" fill="#323232" d="M36.232,59.775c0.052-0.411,0.674-0.255,1.115-0.278
	c0,0.093,0,0.187,0,0.278C36.976,59.775,36.604,59.775,36.232,59.775z"/>
<path fill-rule="evenodd" clip-rule="evenodd" fill="#A6A6A6" d="M73.301,59.775c0.121-0.623,1.373-0.113,1.952-0.278
	c0.046,0.605-0.99,0.126-1.395,0.278C73.672,59.775,73.486,59.775,73.301,59.775z"/>
<path fill-rule="evenodd" clip-rule="evenodd" fill="#323232" d="M24.805,60.612c0.052-0.413,0.674-0.256,1.115-0.279
	c0,0.094,0,0.186,0,0.279C25.548,60.612,25.177,60.612,24.805,60.612z"/>
<path fill-rule="evenodd" clip-rule="evenodd" fill="#323232" d="M76.088,60.333c0.623,0.121,0.112,1.374,0.278,1.951
	C75.744,62.165,76.254,60.91,76.088,60.333z"/>
<path fill-rule="evenodd" clip-rule="evenodd" fill="#323232" d="M59.366,60.891c0-0.093,0-0.186,0-0.278c0.372,0,0.743,0,1.115,0
	C60.428,61.024,59.807,60.867,59.366,60.891z"/>
<path fill-rule="evenodd" clip-rule="evenodd" fill="#323232" d="M47.938,61.727c0-0.093,0-0.186,0-0.278c0.372,0,0.743,0,1.115,0
	C49.002,61.861,48.38,61.704,47.938,61.727z"/>
<path fill-rule="evenodd" clip-rule="evenodd" fill="#323232" d="M32.609,62.842c0-0.093,0-0.186,0-0.278c0.372,0,0.744,0,1.115,0
	C33.672,62.976,33.051,62.818,32.609,62.842z"/>
<path fill-rule="evenodd" clip-rule="evenodd" fill="#323232" d="M21.182,63.678c0-0.093,0-0.186,0-0.278c0.372,0,0.743,0,1.115,0
	C22.246,63.812,21.624,63.655,21.182,63.678z"/>
<path fill-rule="evenodd" clip-rule="evenodd" fill="#323232" d="M7.525,64.793c0-0.093,0-0.187,0-0.279c0.372,0,0.743,0,1.114,0
	C8.588,64.927,7.967,64.771,7.525,64.793z"/>
<path fill-rule="evenodd" clip-rule="evenodd" fill="#A6A6A6" d="M13.378,22.149c0.44-0.674,0.997-1.232,1.673-1.672
	C14.611,21.153,14.054,21.71,13.378,22.149z"/>
<path fill-rule="evenodd" clip-rule="evenodd" fill="#323232" d="M74.137,62.284c0.709,0.127-0.282,1.955,1.116,1.394
	C74.585,64.593,73.798,63.296,74.137,62.284z"/>
<path fill-rule="evenodd" clip-rule="evenodd" fill="#323232" d="M118.731,37.758c0.028-1.329-0.519-2.082-0.836-3.066
	c1.8,1.538,3.14,3.377,4.738,5.295c0.068,0.082,0.523,0.203,0.558,0.279c0.362,0.803,1.014,1.198,1.673,1.951
	c0.412,0.474,0.688,1.175,1.113,1.672c0.81,0.943,1.917,1.789,2.787,2.787c0.238,0.272,0.269,0.809,0.559,1.115
	c0.587,0.623,1.164,1.312,1.949,2.23c0.792,0.921,1.857,1.72,2.789,2.787c0.248,0.286,0.2,0.737,0.557,1.115
	c0.84,0.889,2.507,2.359,3.344,3.623c1.735,2.615-0.41,5.878-1.673,8.641c-1.004,2.2-1.905,4.93-3.344,5.853
	c-1.563,1.004-4.026,0.702-6.968,0.836c-10.766,0.489-21.248,1.559-31.493,2.787c-0.998,0.12-2.067,0.436-3.067,0.558
	c-4.62,0.566-9.043,0.75-13.099,1.951c0.095,1.23,1.602,1.668,2.509,2.229c0.854,0.529,1.867,1.106,2.786,1.672
	c1.365,0.841,2.677,1.551,3.903,2.788c1.961,1.98,3.029,5.358,2.786,10.033c-0.236,4.531-1.742,8.438-3.624,11.705
	c-1.326,2.308-2.828,5.276-5.852,5.575c-3.111,0.307-4.834-1.817-6.689-3.345c-0.633-0.522-1.431-0.97-1.951-1.394
	c-3.588-2.922-5.914-4.813-9.197-7.525c-0.578-0.478-1.049-1.161-1.672-1.672c-0.276-0.227-0.754-0.241-1.115-0.559
	c-0.345-0.301-0.541-0.597-0.836-0.835c-1.953-1.573-4.099-3.639-6.411-5.296c-1.139-0.816-3.297-1.767-5.574-1.114
	c-0.406,0.116-0.929,0.632-1.394,0.836c-2.002,0.878-3.989,2.081-6.131,3.065c-4.017,1.846-9.516,3.035-15.33,1.115
	c-1.337-0.441-2.728-1.198-3.902-1.951c-1.275-0.817-2.87-2.139-3.902-3.623c-0.961-1.383-2.948-3.771-2.23-6.968
	c-0.016,0.072,0.598-1.344,0.836-1.672c1.707-2.361,8.059-2.596,12.264-3.345c4.888-0.873,9.313-1.828,13.099-2.51
	c22.079-3.97,43.334-7.892,66.055-11.705c1.475-0.247,4.264-0.642,6.689-1.114c2.975-0.58,4.417-1.442,4.459-3.066
	c0.026-1.022-0.597-1.845-1.115-2.229c-1.797-1.331-6.449-0.206-8.919,0c-4.856,0.404-8.396,0.513-12.542,0.836
	c3.056-1.219,6.221-2.326,9.198-3.623c4.735,0.63,8.396-1.502,12.263-0.279c2.117,0.669,4.908,3.587,3.346,7.525
	c-0.156,0.39-0.938,0.719-1.116,1.115c-0.187,0.413-0.561,1.07-1.114,1.394c-1.045,0.607-2.898,0.788-4.737,1.114
	c-6.019,1.068-13.819,2.358-19.512,3.345c-12.497,2.167-26.124,4.781-38.74,6.968c-9.908,1.718-21.111,3.84-32.052,5.854
	c-3.348,0.616-6.107,0.114-5.575,3.623c0.358,2.356,3.212,4.669,4.738,6.132c0.715,0.685,4.04,1.937,5.575,2.229
	c5.66,1.08,10.396-1.273,13.935-3.065c1.963-0.994,3.781-2.466,6.132-2.788c0.58-0.079,1.76-0.334,3.623,0
	c1.042,0.188,3.136,1.427,4.181,2.23c0.623,0.479,1.108,1.203,1.672,1.672c6.589,5.479,12.232,9.885,19.231,15.608
	c1.32,1.08,2.452,2.318,3.903,2.229c1.98-0.123,2.479-2.141,3.9-3.623c0.13-0.135,0.941-1.594,1.115-1.951
	c1.166-2.409,2.04-5.908,2.23-8.083c0.244-2.812-0.053-5.583-0.838-7.246c-0.446-0.951-1.364-2.219-2.508-3.066
	c-0.545-0.403-1.353-0.487-1.949-0.836c-0.714-0.415-1.333-0.799-1.951-1.394c-0.239-0.227-0.604-0.334-0.838-0.557
	c-1.242-1.191-4.319-1.272-3.9-4.738c0.256-2.14,2.201-2.584,5.017-3.066c16.105-2.762,32.48-3.936,50.445-4.738
	c1.046-0.869,1.585-2.146,2.229-3.623c0.766-1.75,1.747-4.411,2.787-6.411c-0.938-2.114-2.719-3.614-4.179-5.295
	c-4.14-4.762-8.408-9.91-12.822-14.771C118.839,39.321,119.36,37.965,118.731,37.758z"/>
<path fill-rule="evenodd" clip-rule="evenodd" fill="#323232" d="M116.501,32.741c-0.676-0.439-1.232-0.997-1.673-1.672
	C115.503,31.508,116.062,32.065,116.501,32.741z"/>
<path fill-rule="evenodd" clip-rule="evenodd" fill="#727272" d="M97.549,31.626c0.783-1.128-1.137-1.535-1.116-2.787
	c0.402-0.156,0.681-0.435,0.837-0.836c0.775,0.618,1.234,1.552,1.952,2.229C98.628,30.662,98.184,31.239,97.549,31.626z"/>
<path fill-rule="evenodd" clip-rule="evenodd" fill="#D6D6D6" d="M76.645,33.298c0.628,0.674,1.276,1.324,1.952,1.951
	C77.601,34.944,76.95,34.294,76.645,33.298z"/>
<path fill-rule="evenodd" clip-rule="evenodd" fill="#727272" d="M2.229,56.71C1.555,56.085,0.701,55.637,0,55.038
	c0.145-0.412,0.412-0.702,0.558-1.115c1.29,0.104,1.58,1.208,2.787,1.394C3.019,55.827,2.616,56.26,2.229,56.71z"/>
<path fill-rule="evenodd" clip-rule="evenodd" fill="#A6A6A6" d="M15.329,23.822c0.346-0.583,0.811-1.047,1.394-1.394
	C16.376,23.012,15.912,23.477,15.329,23.822z"/>
<path fill-rule="evenodd" clip-rule="evenodd" fill="#727272" d="M99.779,33.298c0.026-0.716,1.088-0.398,1.114-1.115
	c0.094,0,0.186,0,0.278,0c-0.855,0.912,2.313,2.126,0.837,2.787c-0.412,0.323-0.703,0.323-1.115,0
	c-0.099-0.365-0.489-0.438-0.558-0.836C100.238,33.769,99.845,33.696,99.779,33.298z"/>
<path fill-rule="evenodd" clip-rule="evenodd" fill="#323232" d="M98.384,34.692c0.347-0.583,0.812-1.047,1.395-1.394
	c0.066,0.398,0.459,0.47,0.557,0.836C99.514,33.073,99.208,34.292,98.384,34.692z"/>
<path fill-rule="evenodd" clip-rule="evenodd" fill="#D6D6D6" d="M96.155,36.922c0.44-0.675,0.997-1.233,1.673-1.672
	c0,0.093,0,0.186,0,0.279C97.094,35.816,96.89,36.633,96.155,36.922z"/>
<path fill-rule="evenodd" clip-rule="evenodd" fill="#727272" d="M74.972,35.528c0.676,0.439,1.234,0.997,1.673,1.672
	C75.97,36.76,75.414,36.204,74.972,35.528z"/>
<path fill-rule="evenodd" clip-rule="evenodd" fill="#323232" d="M96.155,36.922c0.735-0.289,0.939-1.105,1.673-1.394
	c-0.439,0.675-0.996,1.232-1.673,1.672C96.155,37.107,96.155,37.015,96.155,36.922z"/>
<path fill-rule="evenodd" clip-rule="evenodd" fill="#323232" d="M100.893,34.97c0.412,0.323,0.703,0.323,1.115,0
	c-0.052,0.227-0.28,0.278-0.278,0.558C101.253,35.541,101.006,35.321,100.893,34.97z"/>
<path fill-rule="evenodd" clip-rule="evenodd" fill="#323232" d="M113.158,33.298c0.49,0.251,0.861,0.623,1.113,1.115
	C113.781,34.161,113.408,33.79,113.158,33.298z"/>
<path fill-rule="evenodd" clip-rule="evenodd" fill="#727272" d="M74.972,52.808c1.272-0.342-0.023,1.884,0.838,1.951
	c0,0.651,0,1.301,0,1.952c0.465,0,0.93,0,1.393,0c-0.567,0.639-2.314,0.101-3.344,0.278c0-0.093,0-0.186,0-0.278
	c-0.166-0.578,0.345-1.832-0.278-1.952c0.166-0.577-0.345-1.831,0.278-1.951C74.229,52.808,74.602,52.808,74.972,52.808z"/>
<path fill-rule="evenodd" clip-rule="evenodd" fill="#323232" d="M74.972,52.808c0.009-0.271,0.343-0.216,0.56-0.278
	c0.431,0.406,0.244,1.427,0.278,2.229C74.949,54.692,76.245,52.466,74.972,52.808z"/>
<path fill-rule="evenodd" clip-rule="evenodd" fill="#727272" d="M5.574,56.989c0.623,0.837,2.545,0.998,1.672,2.508
	c-0.981,0.635-1.617-1.055-2.788-1.115C4.741,57.827,4.941,57.192,5.574,56.989z"/>
<path fill-rule="evenodd" clip-rule="evenodd" fill="#727272" d="M52.677,8.493c0.235-0.6,1.222-0.45,1.672-0.836
	c-0.207,1.204,1.84,2.77,0,3.066c-0.867,0.594-1.079-1.394-1.394-2.23C52.862,8.493,52.77,8.493,52.677,8.493z"/>
<path fill-rule="evenodd" clip-rule="evenodd" fill="#727272" d="M51.561,5.985c0.035-1.242-0.687-1.728-0.835-2.788
	c0.519-0.038,0.931-0.183,1.115-0.557c0.891,0.502,0.589,2.198,1.672,2.509C53.124,5.688,52.07,5.564,51.561,5.985z"/>
<path fill-rule="evenodd" clip-rule="evenodd" fill="#727272" d="M8.64,31.626c-0.152,0.405,0.326,1.441-0.278,1.394
	C8.514,32.615,8.036,31.579,8.64,31.626z"/>
<path fill-rule="evenodd" clip-rule="evenodd" fill="#727272" d="M8.361,33.856c-0.17,0.666,0.35,2.022-0.278,2.23
	C8.252,35.419,7.733,34.063,8.361,33.856z"/>
<path fill-rule="evenodd" clip-rule="evenodd" fill="#727272" d="M10.87,36.086c0,0.464,0,0.929,0,1.393c-0.093,0-0.186,0-0.278,0
	C10.743,37.074,10.266,36.039,10.87,36.086z"/>
<path fill-rule="evenodd" clip-rule="evenodd" fill="#727272" d="M116.223,38.873c0.629,0.208,0.107,1.563,0.278,2.23
	C115.872,40.895,116.393,39.539,116.223,38.873z"/>
<path fill-rule="evenodd" clip-rule="evenodd" fill="#323232" d="M85.007,40.545c0.928,0,1.857,0,2.787,0
	C87.494,41.006,85.308,41.006,85.007,40.545z"/>
<path fill-rule="evenodd" clip-rule="evenodd" fill="#727272" d="M119.009,40.824c0.623,0.12,0.112,1.374,0.278,1.95
	C118.665,42.654,119.175,41.401,119.009,40.824z"/>
<path fill-rule="evenodd" clip-rule="evenodd" fill="#727272" d="M116.501,42.496c0.623,0.12,0.112,1.374,0.278,1.951
	C116.157,44.327,116.667,43.073,116.501,42.496z"/>
<path fill-rule="evenodd" clip-rule="evenodd" fill="#727272" d="M89.746,55.874c0.387-0.636,1.939-0.104,2.787-0.279
	C92.146,56.231,90.591,55.7,89.746,55.874z"/>
<path fill-rule="evenodd" clip-rule="evenodd" fill="#727272" d="M86.122,56.153c0.297-0.633,1.753-0.106,2.508-0.279
	C88.333,56.506,86.878,55.98,86.122,56.153z"/>
<path fill-rule="evenodd" clip-rule="evenodd" fill="#727272" d="M82.221,56.431c0.294-0.632,1.751-0.106,2.508-0.278
	C84.433,56.785,82.976,56.259,82.221,56.431z"/>
<path fill-rule="evenodd" clip-rule="evenodd" fill="#727272" d="M78.597,56.71c0.296-0.633,1.751-0.106,2.508-0.279
	C80.808,57.064,79.354,56.538,78.597,56.71z"/>
<path fill-rule="evenodd" clip-rule="evenodd" fill="#727272" d="M70.793,57.268c0.296-0.632,1.752-0.106,2.508-0.279
	C73.005,57.621,71.549,57.095,70.793,57.268z"/>
<path fill-rule="evenodd" clip-rule="evenodd" fill="#727272" d="M66.891,57.546c0.297-0.632,1.752-0.105,2.508-0.278
	C69.103,57.9,67.647,57.373,66.891,57.546z"/>
<path fill-rule="evenodd" clip-rule="evenodd" fill="#727272" d="M62.989,57.825c0.296-0.633,1.752-0.106,2.508-0.279
	C65.201,58.179,63.745,57.652,62.989,57.825z"/>
<path fill-rule="evenodd" clip-rule="evenodd" fill="#727272" d="M59.366,58.104c0.296-0.633,1.752-0.106,2.509-0.278
	C61.577,58.457,60.122,57.932,59.366,58.104z"/>
<path fill-rule="evenodd" clip-rule="evenodd" fill="#727272" d="M12.263,58.104c0.743,0,1.486,0,2.229,0
	C14.369,58.563,12.387,58.563,12.263,58.104z"/>
<path fill-rule="evenodd" clip-rule="evenodd" fill="#727272" d="M55.463,58.382c0.296-0.632,1.752-0.105,2.509-0.278
	C57.676,58.735,56.22,58.21,55.463,58.382z"/>
<path fill-rule="evenodd" clip-rule="evenodd" fill="#727272" d="M91.138,58.382c0.477-0.638,2.128-0.102,3.067-0.278
	C93.726,58.742,92.078,58.206,91.138,58.382z"/>
<path fill-rule="evenodd" clip-rule="evenodd" fill="#727272" d="M51.561,58.662c0.297-0.634,1.753-0.106,2.509-0.28
	C53.773,59.016,52.318,58.488,51.561,58.662z"/>
<path fill-rule="evenodd" clip-rule="evenodd" fill="#A6A6A6" d="M48.774,58.662c0.558,0,1.115,0,1.672,0
	c-0.035,0.614-1.183,0.118-1.672,0.278C48.774,58.847,48.774,58.754,48.774,58.662z"/>
<path fill-rule="evenodd" clip-rule="evenodd" fill="#727272" d="M84.451,58.94c0.295-0.634,1.751-0.106,2.508-0.278
	C86.663,59.294,85.206,58.767,84.451,58.94z"/>
<path fill-rule="evenodd" clip-rule="evenodd" fill="#727272" d="M44.036,59.219c0.297-0.632,1.752-0.106,2.509-0.278
	C46.248,59.572,44.793,59.046,44.036,59.219z"/>
<path fill-rule="evenodd" clip-rule="evenodd" fill="#727272" d="M80.827,59.219c0.296-0.632,1.751-0.106,2.508-0.278
	C83.039,59.572,81.583,59.046,80.827,59.219z"/>
<path fill-rule="evenodd" clip-rule="evenodd" fill="#727272" d="M40.134,59.497c0.296-0.632,1.752-0.106,2.509-0.278
	C42.346,59.851,40.891,59.325,40.134,59.497z"/>
<path fill-rule="evenodd" clip-rule="evenodd" fill="#727272" d="M76.924,59.497c0.296-0.632,1.753-0.106,2.508-0.278
	C79.135,59.851,77.681,59.325,76.924,59.497z"/>
<path fill-rule="evenodd" clip-rule="evenodd" fill="#A6A6A6" d="M37.348,59.497c0.557,0,1.114,0,1.672,0
	c-0.035,0.616-1.183,0.119-1.672,0.278C37.348,59.684,37.348,59.59,37.348,59.497z"/>
<path fill-rule="evenodd" clip-rule="evenodd" fill="#727272" d="M32.609,60.054c0.297-0.632,1.752-0.104,2.509-0.278
	C34.821,60.408,33.365,59.882,32.609,60.054z"/>
<path fill-rule="evenodd" clip-rule="evenodd" fill="#727272" d="M73.859,59.775c0.404-0.152,1.44,0.327,1.395-0.278
	c0.278,0,0.557,0,0.835,0c0,0.278,0,0.557,0,0.836c0.166,0.577-0.345,1.832,0.278,1.951c0,0.465,0,0.93,0,1.394
	c-0.37,0-0.743,0-1.113,0c-1.398,0.562-0.407-1.267-1.116-1.394C74.223,61.27,74.093,60.471,73.859,59.775z"/>
<path fill-rule="evenodd" clip-rule="evenodd" fill="#727272" d="M28.708,60.333c0.296-0.633,1.752-0.105,2.508-0.279
	C30.919,60.688,29.464,60.16,28.708,60.333z"/>
<path fill-rule="evenodd" clip-rule="evenodd" fill="#727272" d="M65.497,60.333c0.296-0.633,1.752-0.105,2.509-0.279
	C67.709,60.688,66.254,60.16,65.497,60.333z"/>
<path fill-rule="evenodd" clip-rule="evenodd" fill="#A6A6A6" d="M25.92,60.333c0.464,0,0.929,0,1.393,0
	c0.047,0.604-0.988,0.127-1.393,0.279C25.92,60.519,25.92,60.427,25.92,60.333z"/>
<path fill-rule="evenodd" clip-rule="evenodd" fill="#727272" d="M61.875,60.612c0.207-0.628,1.563-0.109,2.229-0.279
	C63.896,60.962,62.541,60.442,61.875,60.612z"/>
<path fill-rule="evenodd" clip-rule="evenodd" fill="#727272" d="M21.182,60.891c0.296-0.632,1.752-0.105,2.508-0.278
	C23.394,61.245,21.938,60.718,21.182,60.891z"/>
<path fill-rule="evenodd" clip-rule="evenodd" fill="#727272" d="M57.972,60.891c-0.047-0.604,0.989-0.126,1.394-0.278
	c0,0.093,0,0.186,0,0.278C58.901,60.891,58.437,60.891,57.972,60.891z"/>
<path fill-rule="evenodd" clip-rule="evenodd" fill="#727272" d="M17.559,61.17c0.207-0.629,1.563-0.109,2.229-0.279
	C19.581,61.52,18.225,61,17.559,61.17z"/>
<path fill-rule="evenodd" clip-rule="evenodd" fill="#727272" d="M14.214,61.448c0.208-0.629,1.563-0.109,2.23-0.278
	C16.237,61.798,14.881,61.278,14.214,61.448z"/>
<path fill-rule="evenodd" clip-rule="evenodd" fill="#727272" d="M50.168,61.448c0.296-0.632,1.752-0.106,2.509-0.278
	C52.38,61.802,50.924,61.276,50.168,61.448z"/>
<path fill-rule="evenodd" clip-rule="evenodd" fill="#727272" d="M10.591,61.727c0.207-0.628,1.563-0.107,2.229-0.278
	C12.613,62.076,11.257,61.557,10.591,61.727z"/>
<path fill-rule="evenodd" clip-rule="evenodd" fill="#727272" d="M46.545,61.727c-0.047-0.604,0.988-0.126,1.393-0.278
	c0,0.093,0,0.186,0,0.278C47.474,61.727,47.009,61.727,46.545,61.727z"/>
<path fill-rule="evenodd" clip-rule="evenodd" fill="#727272" d="M7.525,62.005c0.208-0.628,1.563-0.107,2.229-0.278
	C9.547,62.354,8.191,61.836,7.525,62.005z"/>
<path fill-rule="evenodd" clip-rule="evenodd" fill="#727272" d="M38.741,62.284c0.296-0.633,1.752-0.106,2.508-0.279
	C40.953,62.639,39.497,62.111,38.741,62.284z"/>
<path fill-rule="evenodd" clip-rule="evenodd" fill="#727272" d="M34.839,62.563c0.296-0.633,1.752-0.106,2.509-0.279
	C37.051,62.917,35.595,62.39,34.839,62.563z"/>
<path fill-rule="evenodd" clip-rule="evenodd" fill="#727272" d="M31.216,62.842c-0.047-0.605,0.989-0.126,1.393-0.278
	c0,0.093,0,0.186,0,0.278C32.145,62.842,31.68,62.842,31.216,62.842z"/>
<path fill-rule="evenodd" clip-rule="evenodd" fill="#727272" d="M27.313,63.12c0.296-0.632,1.752-0.106,2.509-0.278
	C29.526,63.475,28.07,62.948,27.313,63.12z"/>
<path fill-rule="evenodd" clip-rule="evenodd" fill="#727272" d="M23.412,63.399c0.296-0.633,1.752-0.105,2.508-0.279
	C25.624,63.753,24.168,63.227,23.412,63.399z"/>
<path fill-rule="evenodd" clip-rule="evenodd" fill="#727272" d="M19.788,63.678c-0.046-0.604,0.989-0.126,1.394-0.278
	c0,0.093,0,0.186,0,0.278C20.717,63.678,20.253,63.678,19.788,63.678z"/>
<path fill-rule="evenodd" clip-rule="evenodd" fill="#727272" d="M16.444,63.957c0.207-0.629,1.563-0.109,2.229-0.279
	C18.466,64.307,17.111,63.786,16.444,63.957z"/>
<path fill-rule="evenodd" clip-rule="evenodd" fill="#727272" d="M12.821,64.235c0.297-0.632,1.752-0.106,2.508-0.278
	C15.033,64.589,13.577,64.063,12.821,64.235z"/>
<path fill-rule="evenodd" clip-rule="evenodd" fill="#727272" d="M9.755,64.514c0.12-0.623,1.374-0.112,1.951-0.278
	C11.586,64.858,10.332,64.349,9.755,64.514z"/>
<path fill-rule="evenodd" clip-rule="evenodd" fill="#727272" d="M6.411,64.514c0.372,0,0.743,0,1.115,0c0,0.093,0,0.187,0,0.279
	C7.083,64.771,6.462,64.927,6.411,64.514z"/>
<path fill-rule="evenodd" clip-rule="evenodd" fill="#FFFFFF" d="M53.513,5.149c-0.051-0.238,0.108-0.263,0.278-0.279
	c2.548-0.92,5.026-2.16,7.804-3.344c1.289-0.55,2.941-1.96,5.296-1.394c0.824,0.198,2.03,1.323,2.508,2.508
	c0.312,0.773,0.363,2.989,0.558,4.18c0.948,5.813,1.888,10.788,3.066,16.166c0.916,4.181,1.679,7.718,3.622,10.313
	c0.305,0.996,0.956,1.646,1.952,1.951c1.742,1.229,3.618,2.329,6.41,2.508c0.087,0.378,0.697,0.23,1.114,0.279
	c0.187,0,0.373,0,0.557,0c0.443-0.023,1.064,0.134,1.116-0.279c4.908-0.388,7.15-3.44,9.755-6.132
	c0.635-0.387,1.079-0.964,1.673-1.394c1.49-0.925,2.94-1.889,5.295-1.951c1.3,0,2.601,0,3.902,0c2.927,0.137,4.652,1.48,6.409,2.787
	c0.44,0.675,0.997,1.232,1.673,1.672c0.264,0.852,1.356,0.874,1.394,1.951c0.317,0.984,0.864,1.737,0.836,3.066
	c0.172,0.757-0.354,2.211,0.278,2.508c0,0.186,0,0.372,0,0.558c0.166,0.577-0.345,1.831,0.278,1.95c0,0.373,0,0.744,0,1.116
	c0,0.929,0,1.857,0,2.787c-0.652,3.307-3.686,3.582-6.689,4.739c-2.845,1.095-5.697,2.506-8.081,3.065
	c-2.978,1.297-6.143,2.404-9.198,3.623c-0.37,0-0.743,0-1.113,0c-0.939,0.177-2.591-0.359-3.067,0.278c-0.093,0-0.187,0-0.278,0
	c-0.756,0.174-2.212-0.354-2.509,0.28c-0.465,0-0.93,0-1.393,0c-0.757,0.172-2.213-0.355-2.508,0.278c-0.373,0-0.745,0-1.116,0
	c-0.757,0.172-2.212-0.354-2.508,0.278c-0.465,0-0.93,0-1.395,0c-0.755,0.172-2.212-0.354-2.508,0.278c-0.279,0-0.558,0-0.836,0
	s-0.557,0-0.835,0c-0.579,0.165-1.831-0.345-1.952,0.278c-0.464,0-0.929,0-1.394,0c-0.756,0.174-2.212-0.354-2.509,0.278
	c-0.464,0-0.929,0-1.393,0c-0.756,0.174-2.212-0.354-2.509,0.279c-0.464,0-0.929,0-1.394,0c-0.666,0.17-2.022-0.349-2.229,0.279
	c-0.465,0-0.93,0-1.394,0c-0.372,0-0.743,0-1.115,0c-0.405,0.152-1.44-0.326-1.394,0.278c-0.465,0-0.93,0-1.394,0
	c-0.756,0.173-2.211-0.354-2.508,0.279c-0.464,0-0.929,0-1.393,0c-0.757,0.172-2.212-0.354-2.509,0.278c-0.372,0-0.743,0-1.115,0
	c-0.372,0-0.743,0-1.115,0c-0.405,0.152-1.44-0.325-1.393,0.278c-0.464,0-0.929,0-1.394,0c-0.757,0.173-2.212-0.354-2.508,0.278
	c-0.465,0-0.93,0-1.394,0c-0.756,0.173-2.211-0.354-2.508,0.279c-0.464,0-0.929,0-1.394,0c-0.757,0.173-2.212-0.354-2.509,0.279
	c-0.372,0-0.743,0-1.115,0s-0.744,0-1.115,0c-0.404,0.152-1.44-0.327-1.393,0.278c-0.464,0-0.929,0-1.394,0
	c-0.756,0.172-2.212-0.354-2.509,0.278c-0.464,0-0.929,0-1.393,0c-0.756,0.174-2.212-0.354-2.508,0.279c-0.372,0-0.744,0-1.115,0
	s-0.743,0-1.115,0c-0.405,0.152-1.44-0.326-1.394,0.278c-0.372,0-0.743,0-1.114,0c-0.667,0.17-2.022-0.35-2.229,0.279
	c-0.372,0-0.744,0-1.115,0c-0.756,0.172-2.211-0.354-2.508,0.278c-0.372,0-0.743,0-1.115,0c-0.578,0.166-1.831-0.345-1.951,0.278
	c-0.372,0-0.743,0-1.115,0c-0.372,0-0.743,0-1.114,0c-0.372,0-0.743,0-1.115,0c-2.531-0.256-3.887-1.687-4.459-3.901
	c0-0.929,0-1.858,0-2.787c-0.119-0.583,0.191-0.738,0.278-1.115c0.387-0.45,0.79-0.883,1.115-1.394
	c0.4-0.808,1.267-1.149,2.23-1.394c1.115,0,2.229,0,3.345,0c1.965,0.049,3.766,2.387,5.295,1.115c0.457,0.046,0.457-1.717,0-1.672
	c-2.377-3.848-6.016-6.434-6.131-12.542c0-1.208,0-2.416,0-3.624c0-0.371,0-0.743,0-1.114c0.628-0.208,0.108-1.564,0.278-2.23
	c0-0.279,0-0.558,0-0.836c0.604,0.047,0.126-0.989,0.278-1.394c0.6-4.138,2.391-7.086,4.738-9.477
	c0.676-0.439,1.233-0.997,1.673-1.672c0.555-0.864,1.444-1.198,2.229-1.95c0.008-0.008,0.309-0.296,0.279-0.279
	c2.475-1.38,5.536-2.09,8.64-3.066c2.831-0.891,5.564-2.141,8.361-3.066c5.979-1.979,11.834-4.102,17-6.131
	C52.07,5.564,53.124,5.688,53.513,5.149z M74.972,35.528c-2.155-2.167-3.143-5.064-3.9-8.362c-1.024-4.448-1.971-9.448-2.788-13.936
	c-0.196-1.076-0.639-2.25-0.836-3.345c-0.432-2.4-0.173-4.968-1.394-6.967c-4.217,1.264-7.471,3.491-11.705,4.738
	c-0.45,0.386-1.437,0.236-1.672,0.836c-2.524,0.921-5.398,2.255-7.525,3.066c-0.931,0.354-1.622,0.604-2.23,0.836
	c-0.953,0.363-1.62,0.604-2.229,0.836c-3.738,1.425-7.236,2.527-10.591,3.624c-3.31,1.082-6.779,1.785-9.476,3.066
	c-1.454,0.69-2.499,1.835-3.902,2.508c-0.583,0.346-1.047,0.81-1.394,1.394c-2.417,3.157-4.301,6.847-4.459,12.264
	c-0.604-0.047-0.126,0.988-0.278,1.393c0,0.372,0,0.743,0,1.116c0.224,2.545,0.659,5.194,1.393,6.688
	c1.216,2.471,4.615,5.158,5.017,7.525c0.327,1.925,0.002,4.847-2.509,5.296c-0.743,0-1.486,0-2.229,0
	c-1.642-0.402-2.95-1.138-4.459-1.672c0.2-0.452-1.314-0.452-1.115,0c-0.412,0.146-0.702,0.413-1.115,0.558
	c-0.633,0.204-0.833,0.838-1.115,1.393c0,0.094,0,0.187,0,0.28c-0.452-0.201-0.452,1.313,0,1.113
	c0.439,1.326,1.616,1.915,3.066,2.229c0.666-0.169,2.022,0.35,2.229-0.278c0.279,0,0.557,0,0.836,0
	c0.666-0.17,2.022,0.35,2.229-0.278c0.464,0,0.929,0,1.394,0c0.667-0.17,2.022,0.35,2.23-0.278c0.372,0,0.743,0,1.115,0
	c0.666-0.17,2.022,0.35,2.229-0.279c0.465,0,0.929,0,1.394,0c0.756-0.173,2.212,0.354,2.508-0.278c0.372,0,0.743,0,1.115,0
	s0.743,0,1.115,0c0.405-0.152,1.44,0.325,1.393-0.279c0.465,0,0.929,0,1.394,0c0.756-0.173,2.212,0.354,2.508-0.279
	c0.464,0,0.929,0,1.393,0c0.756-0.172,2.212,0.354,2.509-0.278c0.371,0,0.744,0,1.115,0c0.372,0,0.743,0,1.115,0
	c0.489-0.159,1.637,0.338,1.672-0.278c0.372,0,0.743,0,1.115,0c0.756-0.172,2.212,0.354,2.509-0.278c0.464,0,0.929,0,1.393,0
	c0.757-0.173,2.212,0.354,2.509-0.278c0.372,0,0.743,0,1.115,0s0.743,0,1.115,0c0.49-0.16,1.638,0.336,1.672-0.278
	c0.372,0,0.743,0,1.114,0c0.757-0.174,2.212,0.354,2.509-0.28c0.464,0,0.929,0,1.394,0c0.756-0.172,2.212,0.354,2.509-0.278
	c0.464,0,0.929,0,1.394,0c0.756-0.172,2.211,0.354,2.509-0.278c0.371,0,0.743,0,1.114,0c0.756-0.173,2.212,0.354,2.508-0.279
	c0.465,0,0.93,0,1.394,0c0.756-0.173,2.212,0.354,2.508-0.278c0.464,0,0.929,0,1.394,0c0.756-0.172,2.212,0.354,2.508-0.279
	c0.185,0,0.371,0,0.558,0c1.029-0.178,2.776,0.361,3.344-0.278c0.465,0,0.93,0,1.395,0c0.757-0.173,2.211,0.354,2.508-0.279
	c0.373,0,0.743,0,1.116,0c0.755-0.172,2.212,0.354,2.508-0.278c0.465,0,0.928,0,1.393,0c0.757-0.173,2.212,0.354,2.508-0.279
	c0.373,0,0.743,0,1.116,0c0.846-0.174,2.4,0.357,2.787-0.279c2.277-0.151,3.5-0.824,5.017-1.394
	c1.692-0.636,3.417-1.188,5.017-1.672c0.104-0.032,0.414-0.504,0.557-0.558c1.234-0.461,2.858-0.762,3.624-1.114
	c0.467-0.216,1.02-0.386,1.395-0.558c1.25-0.576,2.464-0.946,3.622-1.393c1.795-0.691,3.853-1.276,5.017-2.787
	c0.455,0.125,0.455-1.52,0-1.394c0-0.093,0-0.186,0-0.279c-0.166-0.578,0.345-1.831-0.278-1.951c0-0.464,0-0.929,0-1.393
	c-0.171-0.667,0.351-2.022-0.278-2.23c-0.089-2.049-0.962-3.312-1.952-4.459c-0.252-0.492-0.623-0.863-1.113-1.115
	c-1.593-1.196-3.4-2.175-5.854-2.508c0.046-0.458-1.717-0.458-1.673,0c-1.725,0.225-3.039,0.862-4.459,1.394
	c-0.093,0-0.185,0-0.278,0c-0.026,0.716-1.088,0.398-1.114,1.115c-0.583,0.346-1.048,0.811-1.395,1.394
	c-0.058,0.313-0.309,0.434-0.557,0.558c-0.676,0.439-1.232,0.997-1.673,1.672c0,0.093,0,0.186,0,0.278
	c-2.224,1.678-4.614,3.189-8.36,3.345c-0.93,0-1.859,0-2.787,0c-3.847-0.056-6.202-1.602-8.362-3.345
	C76.207,36.525,75.648,35.968,74.972,35.528z"/>
<path fill-rule="evenodd" clip-rule="evenodd" fill="#A6A6A6" d="M118.731,37.758c0.629,0.208,0.108,1.563,0.278,2.229
	c0,0.093,0,0.186,0,0.279C118.376,39.969,118.903,38.515,118.731,37.758z"/>
<path fill-rule="evenodd" clip-rule="evenodd" fill="#D6D6D6" d="M5.574,53.923c0.481-0.462,2.864-0.462,3.345,0
	C7.804,53.923,6.689,53.923,5.574,53.923z"/>
<path fill-rule="evenodd" clip-rule="evenodd" fill="#727272" d="M104.517,28.282c0.663-0.463,3.239-0.463,3.902,0
	C107.118,28.282,105.817,28.282,104.517,28.282z"/>
<path fill-rule="evenodd" clip-rule="evenodd" fill="#727272" d="M14.214,53.366c0.457-0.045,0.457,1.718,0,1.672
	C14.214,54.48,14.214,53.923,14.214,53.366z"/>
<path fill-rule="evenodd" clip-rule="evenodd" fill="#A6A6A6" d="M1.951,57.825c0,0.929,0,1.858,0,2.787
	C1.49,60.312,1.49,58.126,1.951,57.825z"/>
<path fill-rule="evenodd" clip-rule="evenodd" fill="#727272" d="M88.351,58.662c0.297-0.634,1.753-0.106,2.509-0.28
	C90.563,59.016,89.109,58.488,88.351,58.662z"/>
<path fill-rule="evenodd" clip-rule="evenodd" fill="#727272" d="M69.399,60.054c0.297-0.632,1.753-0.104,2.509-0.278
	C71.612,60.408,70.155,59.882,69.399,60.054z"/>
<path fill-rule="evenodd" clip-rule="evenodd" fill="#727272" d="M54.07,61.17c0.297-0.633,1.752-0.106,2.508-0.279
	C56.282,61.523,54.826,60.997,54.07,61.17z"/>
<path fill-rule="evenodd" clip-rule="evenodd" fill="#727272" d="M42.643,62.005c0.296-0.632,1.751-0.105,2.508-0.278
	C44.854,62.359,43.399,61.833,42.643,62.005z"/>
<path fill-rule="evenodd" clip-rule="evenodd" fill="#727272" d="M8.083,37.2c0,1.208,0,2.416,0,3.624
	C7.62,40.252,7.62,37.771,8.083,37.2z"/>
<path fill-rule="evenodd" clip-rule="evenodd" fill="#727272" d="M119.288,43.89c0.463,0.3,0.463,2.486,0,2.787
	C119.288,45.747,119.288,44.819,119.288,43.89z"/>
</svg>
