<?xml version="1.0" encoding="utf-8"?>
<!-- Generator: Adobe Illustrator 15.0.0, SVG Export Plug-In  -->
<!DOCTYPE svg PUBLIC "-//W3C//DTD SVG 1.1//EN" "http://www.w3.org/Graphics/SVG/1.1/DTD/svg11.dtd" [
	<!ENTITY ns_flows "http://ns.adobe.com/Flows/1.0/">
]>
<svg version="1.1"
	 xmlns="http://www.w3.org/2000/svg" xmlns:xlink="http://www.w3.org/1999/xlink" xmlns:a="http://ns.adobe.com/AdobeSVGViewerExtensions/3.0/"
	 x="0px" y="0px" width="142px" height="142px" viewBox="-2.884 -14.854 142 142" enable-background="new -2.884 -14.854 142 142"
	 xml:space="preserve">
<defs>
</defs>
<path fill-rule="evenodd" clip-rule="evenodd" fill="#737373" d="M118.078,64.702c0-0.093,0-0.187,0-0.279c1.113,0,2.229,0,3.344,0
	c0,0.093,0,0.187,0,0.279C120.308,64.702,119.191,64.702,118.078,64.702z"/>
<path fill-rule="evenodd" clip-rule="evenodd" fill="#A7A7A7" d="M121.422,64.702c0-0.093,0-0.187,0-0.279c0.835,0,1.673,0,2.508,0
	c0,0.093,0,0.187,0,0.279C123.095,64.702,122.257,64.702,121.422,64.702z"/>
<path fill-rule="evenodd" clip-rule="evenodd" fill="#D5D5D5" d="M123.93,64.702c0-0.093,0-0.187,0-0.279c0.836,0,1.673,0,2.509,0
	C126.142,65.055,124.688,64.529,123.93,64.702z"/>
<path fill-rule="evenodd" clip-rule="evenodd" fill="#D5D5D5" d="M107.207,64.702c1.486,0,2.974,0,4.46,0
	C110.819,65.165,108.053,65.165,107.207,64.702z"/>
<path fill-rule="evenodd" clip-rule="evenodd" fill="#D5D5D5" d="M119.47,67.21c0.297-0.634,1.753-0.106,2.509-0.28
	c0,0.094,0,0.187,0,0.28C121.143,67.21,120.308,67.21,119.47,67.21z"/>
<path fill-rule="evenodd" clip-rule="evenodd" fill="#A7A7A7" d="M121.979,67.21c0-0.094,0-0.187,0-0.28c0.93,0,1.859,0,2.787,0
	c0,0.094,0,0.187,0,0.28C123.838,67.21,122.908,67.21,121.979,67.21z"/>
<path fill-rule="evenodd" clip-rule="evenodd" fill="#A7A7A7" d="M108.043,67.489c0-0.094,0-0.187,0-0.278c0.743,0,1.486,0,2.229,0
	c0,0.092,0,0.185,0,0.278C109.529,67.489,108.786,67.489,108.043,67.489z"/>
<path fill-rule="evenodd" clip-rule="evenodd" fill="#737373" d="M110.272,67.489c0-0.094,0-0.187,0-0.278c1.208,0,2.416,0,3.624,0
	c0,0.092,0,0.185,0,0.278C112.688,67.489,111.48,67.489,110.272,67.489z"/>
<path fill-rule="evenodd" clip-rule="evenodd" fill="#323232" d="M113.896,67.489c0-0.094,0-0.187,0-0.278c0.928,0,1.857,0,2.787,0
	C116.297,67.845,114.744,67.313,113.896,67.489z"/>
<path fill-rule="evenodd" clip-rule="evenodd" fill="#323232" d="M126.717,67.21c0.637,0.387,0.104,1.939,0.278,2.786
	c-0.093,0-0.187,0-0.278,0C126.717,69.068,126.717,68.138,126.717,67.21z"/>
<path fill-rule="evenodd" clip-rule="evenodd" fill="#323232" d="M128.39,67.21c0,0.928,0,1.857,0,2.786c-0.093,0-0.187,0-0.279,0
	C128.285,69.15,127.754,67.597,128.39,67.21z"/>
<path fill-rule="evenodd" clip-rule="evenodd" fill="#323232" d="M123.095,70.275c0.052-0.411,0.673-0.255,1.113-0.278
	c0,0.094,0,0.187,0,0.278C123.838,70.275,123.465,70.275,123.095,70.275z"/>
<path fill-rule="evenodd" clip-rule="evenodd" fill="#737373" d="M124.208,70.275c0-0.092,0-0.185,0-0.278c0.465,0,0.93,0,1.395,0
	c0,0.094,0,0.187,0,0.278C125.138,70.275,124.673,70.275,124.208,70.275z"/>
<path fill-rule="evenodd" clip-rule="evenodd" fill="#A7A7A7" d="M125.603,70.275c0-0.092,0-0.185,0-0.278c0.371,0,0.743,0,1.114,0
	c0,0.094,0,0.187,0,0.278C126.346,70.275,125.974,70.275,125.603,70.275z"/>
<path fill-rule="evenodd" clip-rule="evenodd" fill="#D5D5D5" d="M126.717,70.275c0-0.092,0-0.185,0-0.278c0.092,0,0.186,0,0.278,0
	c0.28,0,0.559,0,0.837,0C127.746,70.375,127.133,70.228,126.717,70.275z"/>
<path fill-rule="evenodd" clip-rule="evenodd" fill="#323232" d="M118.356,70.555c0.05-0.413,0.673-0.257,1.113-0.28
	c0,0.094,0,0.187,0,0.28C119.1,70.555,118.727,70.555,118.356,70.555z"/>
<path fill-rule="evenodd" clip-rule="evenodd" fill="#323232" d="M114.175,70.833c0.053-0.413,0.674-0.256,1.114-0.278
	c0,0.092,0,0.185,0,0.278C114.918,70.833,114.546,70.833,114.175,70.833z"/>
<path fill-rule="evenodd" clip-rule="evenodd" fill="#A7A7A7" d="M121.143,73.063c0.053-0.413,0.674-0.256,1.114-0.279
	c0,0.093,0,0.187,0,0.279C121.887,73.063,121.514,73.063,121.143,73.063z"/>
<path fill-rule="evenodd" clip-rule="evenodd" fill="#737373" d="M122.257,73.063c0-0.093,0-0.187,0-0.279c0.373,0,0.743,0,1.116,0
	c0,0.093,0,0.187,0,0.279C123,73.063,122.63,73.063,122.257,73.063z"/>
<path fill-rule="evenodd" clip-rule="evenodd" fill="#323232" d="M123.373,73.063c0-0.093,0-0.187,0-0.279c0.37,0,0.743,0,1.113,0
	C124.435,73.196,123.813,73.04,123.373,73.063z"/>
<path fill-rule="evenodd" clip-rule="evenodd" fill="#323232" d="M118.356,73.341c0-0.092,0-0.186,0-0.278c0.37,0,0.743,0,1.113,0
	C119.418,73.476,118.797,73.319,118.356,73.341z"/>
<path fill-rule="evenodd" clip-rule="evenodd" fill="#323232" d="M126.995,75.292c0.465,0,0.93,0,1.395,0
	C128.516,75.748,126.871,75.748,126.995,75.292z"/>
<path fill-rule="evenodd" clip-rule="evenodd" fill="#323232" d="M46.727,87.555c-0.125-0.454,1.52-0.454,1.394,0
	C47.656,87.555,47.191,87.555,46.727,87.555z"/>
<path fill-rule="evenodd" clip-rule="evenodd" fill="#323232" d="M47.005,90.343c-0.199-0.453,1.314-0.453,1.115,0
	C47.749,90.343,47.377,90.343,47.005,90.343z"/>
<path fill-rule="evenodd" clip-rule="evenodd" fill="#323232" d="M30.562,90.9c-0.125-0.455,1.519-0.455,1.394,0
	C31.491,90.9,31.026,90.9,30.562,90.9z"/>
<path fill-rule="evenodd" clip-rule="evenodd" fill="#323232" d="M30.562,91.737c0.413,0.051,0.255,0.673,0.278,1.115
	C30.427,92.799,30.584,92.177,30.562,91.737z"/>
<path fill-rule="evenodd" clip-rule="evenodd" fill="#A7A7A7" d="M85.747,92.293c0.623,0.12,0.112,1.375,0.278,1.951
	c-0.092,0-0.187,0-0.278,0C85.747,93.595,85.747,92.944,85.747,92.293z"/>
<path fill-rule="evenodd" clip-rule="evenodd" fill="#D5D5D5" d="M88.255,92.852c0.093,0,0.187,0,0.278,0c0,0.371,0,0.743,0,1.114
	c-0.092,0-0.186,0-0.278,0C88.255,93.595,88.255,93.223,88.255,92.852z"/>
<path fill-rule="evenodd" clip-rule="evenodd" fill="#D5D5D5" d="M85.747,94.245c0.092,0,0.187,0,0.278,0
	c-0.024,0.441,0.134,1.063-0.278,1.115C85.747,94.988,85.747,94.617,85.747,94.245z"/>
<path fill-rule="evenodd" clip-rule="evenodd" fill="#323232" d="M30.283,96.475c0-0.094,0-0.187,0-0.278c0.371,0,0.743,0,1.114,0
	c0,0.185,0,0.37,0,0.557C31.021,96.667,30.865,96.357,30.283,96.475z"/>
<path fill-rule="evenodd" clip-rule="evenodd" fill="#323232" d="M32.792,97.588c0.454-0.048,0.563,1.824-0.279,1.395
	C32.746,98.66,32.88,98.236,32.792,97.588z"/>
<path fill-rule="evenodd" clip-rule="evenodd" fill="#323232" d="M31.397,97.868c0.413,0.052,0.256,0.674,0.279,1.115
	C31.263,98.931,31.421,98.309,31.397,97.868z"/>
<path fill-rule="evenodd" clip-rule="evenodd" fill="#323232" d="M89.647,101.212c0.501-0.036,0.653,0.277,0.559,0.836
	c-0.094,0-0.186,0-0.278,0C89.938,101.666,89.796,101.436,89.647,101.212z"/>
<path fill-rule="evenodd" clip-rule="evenodd" fill="#323232" d="M15.511,90.622c0.675,0.44,1.233,0.997,1.672,1.672
	C16.508,91.854,15.951,91.297,15.511,90.622z"/>
<path fill-rule="evenodd" clip-rule="evenodd" fill="#323232" d="M86.304,85.326c-0.675-0.438-1.232-0.996-1.673-1.672
	C85.306,84.093,85.865,84.651,86.304,85.326z"/>
<path fill-rule="evenodd" clip-rule="evenodd" fill="#737373" d="M126.995,72.784c0.917-0.011,1.389-0.47,2.508-0.278
	c-0.086,0.378-0.697,0.231-1.113,0.278c0,0.836,0,1.673,0,2.508c-0.465,0-0.93,0-1.395,0
	C126.995,74.457,126.995,73.62,126.995,72.784z"/>
<path fill-rule="evenodd" clip-rule="evenodd" fill="#D5D5D5" d="M17.183,92.293c-0.439-0.675-0.997-1.231-1.672-1.672
	c0-0.093,0-0.187,0-0.278c0.768,0.533,1.418,1.183,1.952,1.95C17.369,92.293,17.276,92.293,17.183,92.293z"/>
<path fill-rule="evenodd" clip-rule="evenodd" fill="#737373" d="M17.462,88.67c0.674,0.439,1.232,0.997,1.672,1.673
	C18.459,89.904,17.902,89.345,17.462,88.67z"/>
<path fill-rule="evenodd" clip-rule="evenodd" fill="#323232" d="M82.96,85.883c0.491,0.252,0.861,0.623,1.114,1.115
	C83.583,86.748,83.211,86.375,82.96,85.883z"/>
<path fill-rule="evenodd" clip-rule="evenodd" fill="#737373" d="M65.679,73.341c0.551-0.471,1.739-0.305,2.508-0.558
	c-0.271,1.58,1.082,2.995,0.278,4.181c-0.329,0.32-0.985,0.315-1.672,0.278C66.061,76.304,66.544,74.149,65.679,73.341z"/>
<path fill-rule="evenodd" clip-rule="evenodd" fill="#737373" d="M31.397,96.197c0.853,0.202,0.82-0.482,1.672-0.28
	c-0.321,0.33-0.315,0.986-0.278,1.672c0.088,0.647-0.045,1.071-0.279,1.395c-0.279,0-0.558,0-0.836,0
	c-0.023-0.441,0.134-1.063-0.279-1.115c0-0.371,0-0.743,0-1.114C31.397,96.567,31.397,96.381,31.397,96.197z"/>
<path fill-rule="evenodd" clip-rule="evenodd" fill="#737373" d="M104.978,64.422c0.44,0.024,1.063-0.134,1.114,0.279
	C105.65,64.679,105.029,64.835,104.978,64.422z"/>
<path fill-rule="evenodd" clip-rule="evenodd" fill="#737373" d="M103.305,66.93c0.491,0.162,1.639-0.336,1.673,0.28
	C104.486,67.049,103.341,67.546,103.305,66.93z"/>
<path fill-rule="evenodd" clip-rule="evenodd" fill="#737373" d="M124.766,66.93c1.306,0.181,3.337-0.363,4.181,0.28
	c-0.187,0-0.371,0-0.557,0c-0.636,0.387-0.104,1.939-0.279,2.786c-0.092,0-0.186,0-0.278,0c-0.278,0-0.557,0-0.837,0
	c-0.175-0.847,0.358-2.399-0.278-2.786c-0.649,0-1.301,0-1.951,0C124.766,67.117,124.766,67.024,124.766,66.93z"/>
<path fill-rule="evenodd" clip-rule="evenodd" fill="#323232" d="M132.849,69.44c0.188-1.953-0.437-3.095-1.395-3.901
	c0.227-0.054,0.279-0.281,0.558-0.28c0.507-2.095,1.646-3.555,2.229-5.574c-1.823-2.634-4.013-4.818-6.131-7.246
	c-1.965-2.251-3.979-4.777-6.132-7.247c-0.525-0.6-1.154-1.069-1.671-1.672c-1.036-1.206-1.885-2.269-3.067-3.623
	c-0.242-0.277-0.553-0.512-0.835-0.836c-0.307-0.349-0.287-0.805-0.558-1.115c-1.001-1.143-2.298-2.24-3.346-3.345
	c-0.272-0.287-0.336-0.922-0.557-1.115c-0.32-0.28-0.799-0.309-1.116-0.557c-1.28-1.011-2.818-2.071-5.295-2.23
	c-2.929-0.188-5.358,0.83-6.968,1.951c-0.995,0.694-1.827,1.764-2.786,2.788c-1.213,1.291-2.198,2.434-3.903,3.344
	c-9.352,4.999-18.72-0.657-21.46-7.804c-0.844-2.203-1.147-4.697-1.672-6.968c-1.584-6.865-2.672-13.755-4.18-21.182
	c-3.175,0.56-5.474,2.124-8.361,3.345c-8.563,3.618-18.615,7.35-28.429,10.591c-1.651,0.545-3.869,1.308-5.853,1.951
	c-0.951,0.308-1.936,0.445-2.787,0.836c-0.907,0.417-1.877,1.288-2.787,1.952c-0.923,0.673-1.792,1.19-2.508,1.951
	c-0.721,0.765-1.364,1.851-1.951,2.787c-1.353,2.158-2.358,4.283-2.787,7.804c-0.364,2.989-0.319,5.815,0.279,8.361
	c0.725,3.084,1.928,4.53,3.902,7.247c0.889,1.223,2.618,2.933,1.951,5.853c0.003-0.014-0.207,0.689-0.279,0.836
	c-0.061,0.125-0.511,0.176-0.557,0.279c-0.053,0.116,0.086,0.47,0,0.557c-0.337,0.34-1.599,1.039-2.509,1.114
	c-1.54,0.129-3.799-1.668-5.853-1.951c-2.461-0.337-4.253,1.982-2.787,4.181c0.978,1.466,1.581,1.227,4.181,1.114
	c6.267-0.27,15.649-1.218,21.461-1.673c19.842-1.552,38.014-2.759,57.136-4.18c6.573-0.488,14.278-1.058,21.46-1.672
	c1.13-0.097,2.537-0.22,3.625-0.279c1.292-0.07,2.858-0.185,3.622,0c1.772,0.428,3.638,2.669,3.902,4.181
	c0.579,3.312-1.138,4.988-2.787,6.132c-0.431,0.147-0.018,0.29,0.278,0.278c0.649,0,1.301,0,1.952,0c0,0.093,0,0.187,0,0.279
	c-2.138,0-4.275,0-6.411,0c-1.486,0-2.974,0-4.46,0c-0.372,0-0.743,0-1.115,0c-0.051-0.413-0.674-0.255-1.114-0.279
	c-0.373,0-0.743,0-1.116,0c-0.118-0.623-1.372-0.112-1.949-0.278c1.677-0.645,4.75-0.835,8.082-1.394
	c2.155-0.361,6.059-0.442,6.132-3.345c0.015-0.598-0.346-1.948-1.394-2.508c-1.278-0.683-5.516-0.147-7.247,0
	c-31.912,2.711-64.997,4.633-96.991,7.247c-2.413,0.197-5.114,0.731-6.689,0.278c-2.765-0.793-5.029-4.77-3.066-8.083
	c0.611-1.031,2.064-2.548,3.623-2.787c2.793-0.429,4.983,1.573,7.805,1.951c1.036-2.243-0.563-3.647-1.394-4.738
	c-2.288-3.002-4.563-5.824-4.738-11.149c-0.086-2.624,0.379-5.403,0.836-7.804c0.93-4.875,2.965-8.265,6.132-11.148
	c1.499-1.365,3.196-2.798,5.016-3.624c1.932-0.875,4.14-1.32,6.132-1.951c9.226-2.924,18.786-6.271,27.871-10.033
	C52.161,5,52.478,4.531,52.58,4.5c1.836-0.556,4.33-1.573,6.41-2.509c2.686-1.208,4.413-2.641,6.689-1.672
	c0.131,0.056,0.174,0.51,0.278,0.557c1.859,0.838,1.75,3.501,2.23,6.41c0.82,4.97,1.976,10.914,3.066,15.887
	c1.198,5.466,2.196,9.282,5.853,12.263c2.911,2.374,8.849,3.245,13.1,1.114c2.3-1.153,3.502-2.945,5.295-4.738
	c0.739-0.738,1.513-1.375,2.509-1.951c1.479-0.855,4.066-2.119,6.968-1.951c0.979,0.057,1.703,0.285,2.787,0.558
	c0.779,0.195,1.757,0.211,2.508,0.558c0.311,0.143,0.713,0.578,1.116,0.836c0.997,0.641,1.486,1.066,2.508,1.951
	c0.19,0.166,0.108,0.383,0.278,0.557c1.236,1.261,2.587,2.459,3.622,3.624c0.19,0.213,0.091,0.631,0.281,0.836
	c1.027,1.104,2.683,2.805,3.9,4.181c3.868,4.369,8.054,9.335,12.263,14.214c1.063,1.232,2.692,2.963,2.789,4.181
	c0.098,1.273-0.904,3.018-1.673,4.738C134.361,66.373,133.734,67.942,132.849,69.44z"/>
<path fill-rule="evenodd" clip-rule="evenodd" fill="#323232" d="M130.063,68.046c0.45-0.2,0.45,1.314,0,1.114
	C130.063,68.79,130.063,68.417,130.063,68.046z"/>
<path fill-rule="evenodd" clip-rule="evenodd" fill="#737373" d="M67.909,69.997c-0.582,0.441-1.467,0.578-2.508,0.559
	c0.007-1.588-0.709-2.451-0.558-4.182c0.967,0.224,1.071-0.415,1.951-0.278C67.452,67.109,66.977,69.256,67.909,69.997z"/>
<path fill-rule="evenodd" clip-rule="evenodd" fill="#737373" d="M119.47,70.275c0.651,0,1.301,0,1.952,0
	c-0.121,0.623-1.375,0.113-1.952,0.28C119.47,70.461,119.47,70.369,119.47,70.275z"/>
<path fill-rule="evenodd" clip-rule="evenodd" fill="#A7A7A7" d="M115.289,70.555c0.559,0,1.116,0,1.673,0
	c-0.034,0.614-1.182,0.118-1.673,0.278C115.289,70.74,115.289,70.647,115.289,70.555z"/>
<path fill-rule="evenodd" clip-rule="evenodd" fill="#737373" d="M110.551,71.112c0.297-0.633,1.753-0.106,2.509-0.278
	C112.763,71.465,111.309,70.939,110.551,71.112z"/>
<path fill-rule="evenodd" clip-rule="evenodd" fill="#737373" d="M107.207,71.39c0.209-0.628,1.563-0.108,2.23-0.278
	C109.229,71.741,107.872,71.221,107.207,71.39z"/>
<path fill-rule="evenodd" clip-rule="evenodd" fill="#737373" d="M104.421,71.669c0.12-0.624,1.372-0.113,1.951-0.279
	C106.252,72.014,104.997,71.503,104.421,71.669z"/>
<path fill-rule="evenodd" clip-rule="evenodd" fill="#737373" d="M101.354,71.948c0.12-0.624,1.374-0.113,1.951-0.278
	C103.185,72.292,101.931,71.782,101.354,71.948z"/>
<path fill-rule="evenodd" clip-rule="evenodd" fill="#737373" d="M98.845,72.226c0.036-0.615,1.183-0.118,1.673-0.278
	C100.483,72.563,99.336,72.066,98.845,72.226z"/>
<path fill-rule="evenodd" clip-rule="evenodd" fill="#D5D5D5" d="M125.324,72.784c-0.046-0.457,1.717-0.457,1.671,0
	C126.438,72.784,125.881,72.784,125.324,72.784z"/>
<path fill-rule="evenodd" clip-rule="evenodd" fill="#737373" d="M91.599,73.063c-0.046-0.605,0.99-0.126,1.395-0.279
	C93.039,73.388,92.004,72.911,91.599,73.063z"/>
<path fill-rule="evenodd" clip-rule="evenodd" fill="#737373" d="M89.369,73.341c-0.046-0.604,0.989-0.126,1.395-0.278
	C90.81,73.667,89.773,73.189,89.369,73.341z"/>
<path fill-rule="evenodd" clip-rule="evenodd" fill="#737373" d="M116.684,73.341c0.034-0.616,1.182-0.118,1.673-0.278
	c0,0.093,0,0.187,0,0.278C117.797,73.341,117.24,73.341,116.684,73.341z"/>
<path fill-rule="evenodd" clip-rule="evenodd" fill="#737373" d="M112.781,73.62c0.296-0.632,1.753-0.105,2.508-0.278
	C114.992,73.973,113.538,73.448,112.781,73.62z"/>
<path fill-rule="evenodd" clip-rule="evenodd" fill="#737373" d="M109.438,73.899c0.208-0.629,1.563-0.108,2.229-0.279
	C111.459,74.249,110.103,73.729,109.438,73.899z"/>
<path fill-rule="evenodd" clip-rule="evenodd" fill="#737373" d="M106.372,74.178c0.118-0.624,1.372-0.113,1.949-0.279
	C108.203,74.522,106.949,74.011,106.372,74.178z"/>
<path fill-rule="evenodd" clip-rule="evenodd" fill="#737373" d="M103.305,74.457c0.12-0.623,1.374-0.113,1.951-0.278
	C105.136,74.801,103.882,74.292,103.305,74.457z"/>
<path fill-rule="evenodd" clip-rule="evenodd" fill="#737373" d="M100.518,74.735c0.036-0.615,1.183-0.118,1.673-0.278
	C102.154,75.072,101.009,74.575,100.518,74.735z"/>
<path fill-rule="evenodd" clip-rule="evenodd" fill="#737373" d="M92.993,75.571c0.034-0.615,1.182-0.118,1.671-0.279
	C94.63,75.908,93.482,75.411,92.993,75.571z"/>
<path fill-rule="evenodd" clip-rule="evenodd" fill="#737373" d="M15.511,83.654c0,0.557,0,1.115,0,1.672
	C15.054,85.372,15.054,83.608,15.511,83.654z"/>
<path fill-rule="evenodd" clip-rule="evenodd" fill="#737373" d="M32.233,93.409c-0.879-0.137-0.984,0.502-1.95,0.278
	c0.181-0.283,0.641-0.287,0.557-0.835c-0.023-0.442,0.134-1.064-0.278-1.115c0-0.279,0-0.558,0-0.837c0.464,0,0.929,0,1.394,0
	C31.966,91.818,32.426,92.288,32.233,93.409z"/>
<path fill-rule="evenodd" clip-rule="evenodd" fill="#737373" d="M88.533,93.966c-0.172,0.757,0.353,2.212-0.278,2.509
	c0-0.837,0-1.673,0-2.509C88.348,93.966,88.441,93.966,88.533,93.966z"/>
<path fill-rule="evenodd" clip-rule="evenodd" fill="#737373" d="M84.909,99.54c-0.108,0.729-0.142,1.53-0.557,1.952
	c0-0.094,0-0.187,0-0.279c-0.663-0.565-3.144-0.412-2.229-1.673C82.481,98.102,83.924,99.81,84.909,99.54z"/>
<path fill-rule="evenodd" clip-rule="evenodd" fill="#737373" d="M87.14,102.048c0.109-0.728,0.144-1.528,0.559-1.95
	c0.01,1.011,1.479,0.564,1.949,1.114c0.148,0.224,0.29,0.453,0.28,0.836c0,0.187,0,0.371,0,0.558
	C88.628,102.792,88.137,102.167,87.14,102.048z"/>
<path fill-rule="evenodd" clip-rule="evenodd" fill="#FFFFFF" d="M67.909,69.997c10.954-1.679,21.249-4.02,32.33-5.574
	c1.208,0,2.416,0,3.622,0c0.373,0,0.743,0,1.116,0c0.052,0.413,0.673,0.257,1.114,0.279c0.372,0,0.743,0,1.115,0
	c0.846,0.463,3.612,0.463,4.46,0c2.136,0,4.273,0,6.411,0c1.113,0,2.229,0,3.344,0c0.835,0,1.673,0,2.508,0
	c0.758-0.173,2.212,0.354,2.509-0.279c2.119-0.076,4.177-0.088,5.016,1.116c0.958,0.807,1.583,1.948,1.395,3.901
	c0,0.278,0,0.557,0,0.835c-1.067,0.792-1.304,2.411-3.346,2.23c-1.119-0.191-1.591,0.268-2.508,0.278
	c0.046-0.457-1.717-0.457-1.671,0c-0.278,0-0.559,0-0.838,0c-0.37,0-0.743,0-1.113,0c-0.373,0-0.743,0-1.116,0
	c-0.44,0.023-1.062-0.134-1.114,0.279c-0.557,0-1.115,0-1.673,0c-0.37,0-0.743,0-1.113,0c-0.491,0.16-1.639-0.338-1.673,0.278
	c-0.465,0-0.93,0-1.395,0c-0.755,0.173-2.212-0.354-2.508,0.278c-0.371,0-0.744,0-1.114,0c-0.667,0.171-2.021-0.35-2.229,0.279
	c-0.373,0-0.744,0-1.116,0c-0.577,0.166-1.831-0.345-1.949,0.279c-0.373,0-0.743,0-1.116,0c-0.577,0.165-1.831-0.345-1.951,0.278
	c-0.371,0-0.743,0-1.114,0c-0.49,0.16-1.637-0.337-1.673,0.278c-1.879,0.259-3.746,0.528-5.854,0.557
	c-0.489,0.161-1.637-0.336-1.671,0.279c-5.465,0.852-11.321,1.313-16.444,2.509c0.022,1.134,1.257,1.22,1.952,1.672
	c1.803,1.178,4.085,2.609,6.13,3.902c0.44,0.676,0.998,1.233,1.673,1.672c0.938,1.384,1.949,2.696,1.951,5.018
	c0,0.836,0,1.672,0,2.509c0,0.371,0,0.743,0,1.114c0,0.836,0,1.672,0,2.509c0.16,1.555-0.322,2.464-0.557,3.623
	c-0.415,0.422-0.449,1.223-0.559,1.95c-0.684,2.149-1.789,4.284-3.065,6.132c-1.254,1.815-2.578,3.646-5.017,3.902
	c-3.388,0.355-5.982-2.588-8.641-4.738c-4.106-3.321-7.095-5.865-10.87-8.918c-0.98-0.794-1.756-1.441-2.787-2.229
	c-2.478-1.897-5.125-5.235-8.64-5.854c0.199-0.453-1.314-0.453-1.115,0c-5.425,1.078-8.245,4.761-13.936,5.573
	c-0.852-0.202-0.82,0.482-1.672,0.28c-0.372,0-0.743,0-1.114,0c-0.929,0-1.859,0-2.788,0c-4.443-0.203-7.724-1.568-10.033-3.903
	c-0.534-0.768-1.184-1.417-1.952-1.95c-1.402-1.56-3.783-4.569-2.787-7.804c0.313-1.018,1.887-2.579,3.066-3.066
	c0.506-0.21,0.945-0.087,1.672-0.278c5.256-1.388,11.505-2.035,17.28-3.066c10.295-1.84,21.865-4.166,30.659-5.573
	C66.442,70.575,67.327,70.438,67.909,69.997z M103.305,66.93c-12.281,1.376-23.063,4.252-35.117,5.854
	c-0.769,0.253-1.958,0.087-2.508,0.558c-14.908,2.693-29.58,5.393-44.315,8.083c-2.334,0.426-5.433,0.344-5.853,2.229
	c-0.457-0.046-0.457,1.718,0,1.672c0.588,1.178,1.364,2.168,1.952,3.345c0.439,0.675,0.997,1.233,1.672,1.673
	c2.786,2.045,6.434,3.228,11.149,3.344c0.966,0.224,1.071-0.415,1.95-0.278c2.38-0.697,4.441-1.519,6.411-2.509
	c2.436-1.225,4.876-3.221,8.082-3.345c0.465,0,0.929,0,1.394,0c1.043-0.106,2.481,0.262,3.623,0.837
	c0.841,0.424,1.692,1.522,2.229,1.951c0.284,0.227,0.846,0.334,1.115,0.557c0.98,0.817,2.01,1.907,3.065,2.787
	c2.024,1.687,4.365,3.358,6.689,5.296c1.14,0.95,2.78,2.485,3.902,3.345c0.99,0.758,2.166,1.823,3.067,2.229
	c0.076,0.034,0.196,0.488,0.278,0.558c1.61,1.342,4.64,4.303,6.411,4.181c1.466-0.102,2.127-1.332,2.786-2.229
	c0.64-0.873,0.894-1.094,1.395-1.951c0.711-1.222,1.14-2.582,1.671-3.623c0.415-0.422,0.448-1.224,0.557-1.952
	c0.457-1.215,0.389-2.957,0.838-4.18c0.412-0.052,0.254-0.674,0.278-1.115c-0.166-0.576,0.345-1.831-0.278-1.951
	c-0.112-2.211-0.689-3.956-1.673-5.295c-0.253-0.492-0.623-0.863-1.114-1.115c-1.088-0.488-2.723-1.714-3.624-2.229
	c-0.383-0.219-0.996-0.314-1.395-0.558c-0.116-0.071-0.154-0.466-0.278-0.557c-0.217-0.163-0.639-0.157-0.835-0.279
	c-1.379-0.865-2.791-1.57-3.065-3.065c-0.836-4.546,3.558-4.228,6.968-4.738c3.205-0.481,5.716-1.083,8.639-1.115
	c0.404-0.152,1.44,0.326,1.395-0.278c0.278,0,0.557,0,0.835,0c0.405-0.152,1.44,0.325,1.395-0.279
	c1.894-0.243,3.672-0.601,5.852-0.558c0.491-0.16,1.639,0.337,1.673-0.278c0.279,0,0.558,0,0.836,0
	c0.577-0.166,1.831,0.345,1.951-0.278c0.373,0,0.743,0,1.116,0c0.576-0.166,1.831,0.345,1.951-0.279c0.278,0,0.557,0,0.835,0
	c0.665-0.169,2.021,0.351,2.23-0.278c0.37,0,0.743,0,1.113,0c0.758-0.173,2.212,0.354,2.509-0.278c0.372,0,0.743,0,1.115,0
	c0.371,0,0.743,0,1.114,0c0.491-0.16,1.639,0.336,1.673-0.278c0.465,0,0.93,0,1.395,0c0.37,0,0.743,0,1.113,0
	c0.577-0.167,1.831,0.343,1.952-0.28c0.557,0,1.115,0,1.673,0c0.37,0,0.743,0,1.113,0c0.465,0,0.93,0,1.395,0
	c0.371,0,0.743,0,1.114,0c0.416-0.047,1.029,0.101,1.115-0.278c0.093,0,0.187,0,0.278,0c0.093,0,0.187,0,0.279,0
	c0.587-0.249,1.237-0.433,1.673-0.836c0.45,0.2,0.45-1.314,0-1.114c0-0.093,0-0.187,0-0.279c-0.413-0.146-0.703-0.412-1.116-0.557
	c-0.844-0.644-2.875-0.1-4.181-0.28c-0.928,0-1.857,0-2.787,0c-0.756,0.174-2.212-0.354-2.509,0.28c-0.929,0-1.856,0-2.786,0
	s-1.859,0-2.787,0c-1.208,0-2.416,0-3.624,0c-0.743,0-1.486,0-2.229,0s-1.486,0-2.23,0c-0.278,0-0.557,0-0.835,0
	C104.943,66.594,103.796,67.092,103.305,66.93z"/>
<path fill-rule="evenodd" clip-rule="evenodd" fill="#737373" d="M88.255,90.343c0.631,0.297,0.106,1.752,0.278,2.509
	c-0.092,0-0.186,0-0.278,0C88.255,92.015,88.255,91.179,88.255,90.343z"/>
<path fill-rule="evenodd" clip-rule="evenodd" fill="#737373" d="M100.239,64.422c0.034-0.615,1.183-0.118,1.673-0.278
	c0.577,0.166,1.831-0.345,1.949,0.278C102.655,64.422,101.447,64.422,100.239,64.422z"/>
<path fill-rule="evenodd" clip-rule="evenodd" fill="#737373" d="M105.813,67.21c0.744,0,1.487,0,2.23,0c0,0.092,0,0.185,0,0.278
	C107.378,67.319,106.021,67.838,105.813,67.21z"/>
<path fill-rule="evenodd" clip-rule="evenodd" fill="#737373" d="M27.496,96.197c0.929,0,1.858,0,2.788,0c0,0.092,0,0.185,0,0.278
	C29.436,96.299,27.882,96.832,27.496,96.197z"/>
</svg>
