<?xml version="1.0" encoding="utf-8"?>
<!-- Generator: Adobe Illustrator 15.0.0, SVG Export Plug-In  -->
<!DOCTYPE svg PUBLIC "-//W3C//DTD SVG 1.1//EN" "http://www.w3.org/Graphics/SVG/1.1/DTD/svg11.dtd" [
	<!ENTITY ns_flows "http://ns.adobe.com/Flows/1.0/">
]>
<svg version="1.1"
	 xmlns="http://www.w3.org/2000/svg" xmlns:xlink="http://www.w3.org/1999/xlink" xmlns:a="http://ns.adobe.com/AdobeSVGViewerExtensions/3.0/"
	 x="0px" y="0px" width="142px" height="142px" viewBox="-30.087 -0.68 142 142" enable-background="new -30.087 -0.68 142 142"
	 xml:space="preserve">
<defs>
</defs>
<path fill-rule="evenodd" clip-rule="evenodd" fill="#C2C2C2" d="M42.1,4.459c0.086-0.378,0.698-0.231,1.114-0.278
	c0.094,0,0.187,0,0.278,0C43.54,4.785,42.504,4.307,42.1,4.459z"/>
<path fill-rule="evenodd" clip-rule="evenodd" fill="#C2C2C2" d="M60.773,5.017c0.036-0.459,1.913-0.459,1.951,0
	C62.073,5.017,61.423,5.017,60.773,5.017z"/>
<path fill-rule="evenodd" clip-rule="evenodd" fill="#C2C2C2" d="M40.706,7.247C40.659,6.642,41.693,7.12,42.1,6.968
	c-0.062,0.217-0.234,0.324-0.558,0.279c-0.092,0-0.186,0-0.279,0C41.077,7.247,40.891,7.247,40.706,7.247z"/>
<path fill-rule="evenodd" clip-rule="evenodd" fill="#787878" d="M20.081,25.083c0.093,0,0.186,0,0.279,0c0,0.465,0,0.93,0,1.394
	c-0.093,0-0.186,0-0.279,0C20.081,26.013,20.081,25.548,20.081,25.083z"/>
<path fill-rule="evenodd" clip-rule="evenodd" fill="#C2C2C2" d="M22.869,26.199c0,0.372,0,0.743,0,1.115c-0.094,0-0.187,0-0.28,0
	C22.637,26.897,22.49,26.285,22.869,26.199z"/>
<path fill-rule="evenodd" clip-rule="evenodd" fill="#C2C2C2" d="M20.081,26.478c0.093,0,0.186,0,0.279,0
	c-0.023,0.441,0.134,1.063-0.279,1.115C20.081,27.221,20.081,26.849,20.081,26.478z"/>
<path fill-rule="evenodd" clip-rule="evenodd" fill="#C2C2C2" d="M14.507,27.313c0,0.465,0,0.929,0,1.394
	C14.052,28.833,14.052,27.188,14.507,27.313z"/>
<path fill-rule="evenodd" clip-rule="evenodd" fill="#787878" d="M72.199,31.216c0.378,0.086,0.232,0.697,0.28,1.115
	c-0.095,0-0.187,0-0.28,0C72.199,31.959,72.199,31.587,72.199,31.216z"/>
<path fill-rule="evenodd" clip-rule="evenodd" fill="#787878" d="M74.987,33.167c0.093,0,0.185,0,0.279,0c0,0.372,0,0.743,0,1.115
	C74.854,34.229,75.01,33.608,74.987,33.167z"/>
<path fill-rule="evenodd" clip-rule="evenodd" fill="#787878" d="M75.267,36.79c0.092,0,0.186,0,0.278,0c0,0.372,0,0.743,0,1.115
	c-0.093,0-0.187,0-0.278,0C75.267,37.533,75.267,37.162,75.267,36.79z"/>
<path fill-rule="evenodd" clip-rule="evenodd" fill="#C2C2C2" d="M75.267,37.905c0.092,0,0.186,0,0.278,0c0,0.371,0,0.744,0,1.115
	C75.132,38.968,75.288,38.346,75.267,37.905z"/>
<path fill-rule="evenodd" clip-rule="evenodd" fill="#787878" d="M21.196,55.742c0.279,0,0.558,0,0.836,0c0.65,0,1.3,0,1.951,0
	c0,0.186,0,0.372,0,0.558c0.43,1.172-1.442,0.044-1.394,0.836c-0.728-0.078-1.394-0.095-1.114,0.836
	C20.846,57.765,21.366,56.409,21.196,55.742z"/>
<path fill-rule="evenodd" clip-rule="evenodd" fill="#191919" d="M57.428,57.693c-0.124-0.455,1.521-0.455,1.395,0
	C58.357,57.693,57.893,57.693,57.428,57.693z"/>
<path fill-rule="evenodd" clip-rule="evenodd" fill="#191919" d="M69.69,57.972c-0.158,0.49,0.339,1.637-0.278,1.672
	C69.572,59.155,69.075,58.007,69.69,57.972z"/>
<path fill-rule="evenodd" clip-rule="evenodd" fill="#191919" d="M66.904,58.529c-0.152,0.405,0.326,1.44-0.279,1.394
	C66.777,59.518,66.301,58.482,66.904,58.529z"/>
<path fill-rule="evenodd" clip-rule="evenodd" fill="#191919" d="M26.77,68.841c0-0.092,0-0.185,0-0.278
	c1.214,0.18,3.15-0.364,3.902,0.278C29.372,68.841,28.07,68.841,26.77,68.841z"/>
<path fill-rule="evenodd" clip-rule="evenodd" fill="#191919" d="M31.787,68.841c0.417,0.048,1.029-0.1,1.116,0.279
	C32.485,69.073,31.873,69.22,31.787,68.841z"/>
<path fill-rule="evenodd" clip-rule="evenodd" fill="#191919" d="M34.017,69.12c0.417,0.047,1.028-0.1,1.115,0.279
	C34.715,69.352,34.103,69.499,34.017,69.12z"/>
<path fill-rule="evenodd" clip-rule="evenodd" fill="#191919" d="M36.525,69.399c0.417,0.048,1.029-0.099,1.115,0.279
	C37.223,69.63,36.611,69.777,36.525,69.399z"/>
<path fill-rule="evenodd" clip-rule="evenodd" fill="#191919" d="M27.049,71.628c0.035-0.615,1.182-0.118,1.672-0.278
	C28.686,71.965,27.539,71.468,27.049,71.628z"/>
<path fill-rule="evenodd" clip-rule="evenodd" fill="#191919" d="M29,71.35c0.578,0.165,1.831-0.344,1.951,0.278
	C30.374,71.463,29.12,71.973,29,71.35z"/>
<path fill-rule="evenodd" clip-rule="evenodd" fill="#191919" d="M32.066,71.628c0.417,0.048,1.028-0.1,1.115,0.279
	C32.763,71.86,32.152,72.007,32.066,71.628z"/>
<path fill-rule="evenodd" clip-rule="evenodd" fill="#191919" d="M34.295,71.908c0.417,0.048,1.029-0.1,1.115,0.278
	C34.993,72.139,34.382,72.286,34.295,71.908z"/>
<path fill-rule="evenodd" clip-rule="evenodd" fill="#191919" d="M36.525,72.186c1.394,0,2.787,0,4.181,0
	C39.951,72.649,37.28,72.649,36.525,72.186z"/>
<path fill-rule="evenodd" clip-rule="evenodd" fill="#C2C2C2" d="M36.246,136.01c0.465,0,0.929,0,1.394,0
	C37.766,136.466,36.121,136.466,36.246,136.01z"/>
<path fill-rule="evenodd" clip-rule="evenodd" fill="#C2C2C2" d="M19.802,11.706c0.346-0.583,0.811-1.048,1.394-1.394
	C20.85,10.896,20.385,11.36,19.802,11.706z"/>
<path fill-rule="evenodd" clip-rule="evenodd" fill="#787878" d="M12.834,31.216c0.491,0.251,0.863,0.623,1.115,1.115
	C13.458,32.079,13.086,31.707,12.834,31.216z"/>
<path fill-rule="evenodd" clip-rule="evenodd" fill="#191919" d="M20.639,32.331c0.082-0.568,0.754-0.546,0.836-1.115
	c0.093,0,0.186,0,0.279,0C21.501,31.707,21.13,32.079,20.639,32.331z"/>
<path fill-rule="evenodd" clip-rule="evenodd" fill="#787878" d="M18.13,56.021c0.237,0.052,0.263-0.108,0.279-0.278
	c0.246,0.253,0.048,0.822,0.278,1.672c-0.578,0.166-1.831-0.345-1.951,0.278c-0.396,0.024-0.79,0.046-0.836-0.278
	c0-0.372,0-0.743,0-1.115c0.186,0,0.372,0,0.557,0C16.948,56.14,18.096,56.636,18.13,56.021z"/>
<path fill-rule="evenodd" clip-rule="evenodd" fill="#787878" d="M3.916,113.157c0.86,0.626,1.603,1.369,2.229,2.229
	C5.285,114.76,4.542,114.017,3.916,113.157z"/>
<path fill-rule="evenodd" clip-rule="evenodd" fill="#343434" d="M10.884,115.386c0.082-0.568,0.754-0.547,0.836-1.114
	c0.093,0,0.186,0,0.278,0C11.747,114.762,11.375,115.134,10.884,115.386z"/>
<path fill-rule="evenodd" clip-rule="evenodd" fill="#343434" d="M17.015,117.895c1.974,1.741,3.833,3.6,5.574,5.574
	C20.615,121.727,18.757,119.87,17.015,117.895z"/>
<path fill-rule="evenodd" clip-rule="evenodd" fill="#787878" d="M22.589,123.469c0.492,0.252,0.864,0.623,1.116,1.115
	C23.213,124.332,22.841,123.96,22.589,123.469z"/>
<path fill-rule="evenodd" clip-rule="evenodd" fill="#787878" d="M30.394,135.454c0.675,0.439,1.232,0.997,1.672,1.672
	C31.391,136.687,30.833,136.128,30.394,135.454z"/>
<path fill-rule="evenodd" clip-rule="evenodd" fill="#191919" d="M42.378,136.847c0.252-0.491,0.624-0.862,1.114-1.115
	C43.241,136.224,42.869,136.595,42.378,136.847z"/>
<path fill-rule="evenodd" clip-rule="evenodd" fill="#C2C2C2" d="M71.921,82.22c0.252-0.492,0.625-0.863,1.115-1.116
	C72.784,81.596,72.413,81.968,71.921,82.22z"/>
<path fill-rule="evenodd" clip-rule="evenodd" fill="#343434" d="M79.169,77.203c0.25-0.49,0.623-0.862,1.113-1.115
	C80.03,76.58,79.659,76.952,79.169,77.203z"/>
<path fill-rule="evenodd" clip-rule="evenodd" fill="#343434" d="M41.542,0.278C41.628-0.1,42.239,0.047,42.656,0
	c0,0.278,0,0.558,0,0.836C42.22,0.716,42.419-0.041,41.542,0.278z"/>
<path fill-rule="evenodd" clip-rule="evenodd" fill="#787878" d="M81.396,73.301c0.054-1.818,0.088-3.618-0.557-4.738
	c0.848,0.643,1.783-0.486,3.067-0.279c-0.23,0.788,0.393,0.722,0.278,1.394c-0.897,0.124-1.511,0.534-2.509,0.558
	C81.501,71.173,82.035,72.825,81.396,73.301z"/>
<path fill-rule="evenodd" clip-rule="evenodd" fill="#C2C2C2" d="M42.1,136.847c0.346-0.583,0.81-1.048,1.393-1.394
	c0,0.094,0,0.187,0,0.278c-0.49,0.253-0.862,0.624-1.114,1.115C42.284,136.847,42.191,136.847,42.1,136.847z"/>
<path fill-rule="evenodd" clip-rule="evenodd" fill="#C2C2C2" d="M11.72,114.272c0.23-0.354,0.977-1.59,1.394-0.837
	c-0.698-0.047-0.873,0.429-1.115,0.837C11.905,114.272,11.813,114.272,11.72,114.272z"/>
<path fill-rule="evenodd" clip-rule="evenodd" fill="#C2C2C2" d="M19.523,41.807c0.252-0.491,0.624-0.863,1.115-1.115
	C20.387,41.183,20.015,41.555,19.523,41.807z"/>
<path fill-rule="evenodd" clip-rule="evenodd" fill="#C2C2C2" d="M20.36,32.331c0.251-0.492,0.624-0.863,1.115-1.115
	c-0.082,0.568-0.754,0.546-0.836,1.115C20.545,32.331,20.453,32.331,20.36,32.331z"/>
<path fill-rule="evenodd" clip-rule="evenodd" fill="#C2C2C2" d="M21.196,13.935c0.719-0.953,1.556-1.789,2.509-2.508
	C22.985,12.38,22.149,13.216,21.196,13.935z"/>
<path fill-rule="evenodd" clip-rule="evenodd" fill="#787878" d="M27.049,19.789c0.491,0.251,0.863,0.623,1.115,1.114
	C27.672,20.652,27.301,20.28,27.049,19.789z"/>
<path fill-rule="evenodd" clip-rule="evenodd" fill="#787878" d="M21.196,44.037c0.019-0.817,0.637-1.036,1.115-1.394
	C21.985,43.154,21.583,43.586,21.196,44.037z"/>
<path fill-rule="evenodd" clip-rule="evenodd" fill="#C2C2C2" d="M6.146,111.762c0.733,0.29,0.939,1.106,1.672,1.395
	c0.237-0.051,0.263,0.108,0.279,0.278C7.072,113.252,6.708,112.408,6.146,111.762z"/>
<path fill-rule="evenodd" clip-rule="evenodd" fill="#787878" d="M9.769,112.6c0.251-0.492,0.624-0.863,1.115-1.116
	C10.632,111.976,10.26,112.347,9.769,112.6z"/>
<path fill-rule="evenodd" clip-rule="evenodd" fill="#787878" d="M18.13,115.108c0.492,0.252,0.863,0.623,1.115,1.114
	C18.753,115.97,18.381,115.599,18.13,115.108z"/>
<path fill-rule="evenodd" clip-rule="evenodd" fill="#343434" d="M19.245,116.222c1.974,1.742,3.832,3.6,5.574,5.574
	c-0.093,0-0.185,0-0.278,0C22.939,119.775,20.847,118.245,19.245,116.222z"/>
<path fill-rule="evenodd" clip-rule="evenodd" fill="#C2C2C2" d="M24.541,121.796c0.093,0,0.186,0,0.278,0
	c0.083,0.569,0.754,0.547,0.836,1.115C25.164,122.66,24.792,122.289,24.541,121.796z"/>
<path fill-rule="evenodd" clip-rule="evenodd" fill="#787878" d="M27.606,125.419c0.981,0.637,1.617-1.055,2.788-1.114
	c1.822,1.3-0.669,1.727-1.394,2.787C28.36,126.709,28.104,125.945,27.606,125.419z"/>
<path fill-rule="evenodd" clip-rule="evenodd" fill="#C2C2C2" d="M32.344,133.502c0.475,0.64,1.033,1.197,1.672,1.673
	C33.116,134.96,32.558,134.404,32.344,133.502z"/>
<path fill-rule="evenodd" clip-rule="evenodd" fill="#787878" d="M40.427,134.897c0.252-0.492,0.624-0.863,1.115-1.116
	C41.29,134.273,40.918,134.644,40.427,134.897z"/>
<path fill-rule="evenodd" clip-rule="evenodd" fill="#787878" d="M69.971,80.547c0.345-0.583,0.81-1.048,1.393-1.394
	C71.019,79.737,70.554,80.202,69.971,80.547z"/>
<path fill-rule="evenodd" clip-rule="evenodd" fill="#191919" d="M7.818,113.157c-0.733-0.288-0.939-1.104-1.672-1.395
	c0-0.092,0-0.185,0-0.278C6.821,111.923,7.378,112.482,7.818,113.157z"/>
<path fill-rule="evenodd" clip-rule="evenodd" fill="#191919" d="M47.395,69.12c0.253-0.491,0.623-0.863,1.114-1.115
	C48.258,68.497,47.886,68.869,47.395,69.12z"/>
<path fill-rule="evenodd" clip-rule="evenodd" fill="#191919" d="M49.067,67.727c0.251-0.491,0.623-0.863,1.114-1.115
	C49.931,67.104,49.559,67.475,49.067,67.727z"/>
<path fill-rule="evenodd" clip-rule="evenodd" fill="#191919" d="M52.689,64.661c0.253-0.492,0.623-0.863,1.116-1.115
	C53.554,64.038,53.181,64.409,52.689,64.661z"/>
<path fill-rule="evenodd" clip-rule="evenodd" fill="#191919" d="M56.313,61.595c0.253-0.491,0.623-0.863,1.114-1.115
	C57.178,60.972,56.805,61.343,56.313,61.595z"/>
<path fill-rule="evenodd" clip-rule="evenodd" fill="#191919" d="M57.706,60.48c0.076-0.657,1.234-0.17,1.116,0.278
	C58.445,60.672,58.289,60.362,57.706,60.48z"/>
<path fill-rule="evenodd" clip-rule="evenodd" fill="#191919" d="M67.741,51.84c0.491,0.252,0.861,0.624,1.114,1.115
	C68.364,52.703,67.992,52.332,67.741,51.84z"/>
<path fill-rule="evenodd" clip-rule="evenodd" fill="#191919" d="M65.79,50.168c0.491,0.251,0.863,0.623,1.114,1.114
	C66.413,51.031,66.04,50.66,65.79,50.168z"/>
<path fill-rule="evenodd" clip-rule="evenodd" fill="#191919" d="M63.839,48.496c0.49,0.252,0.863,0.624,1.113,1.115
	C64.462,49.359,64.091,48.987,63.839,48.496z"/>
<path fill-rule="evenodd" clip-rule="evenodd" fill="#191919" d="M61.888,46.823c0.49,0.252,0.863,0.624,1.115,1.115
	C62.511,47.687,62.14,47.315,61.888,46.823z"/>
<path fill-rule="evenodd" clip-rule="evenodd" fill="#191919" d="M59.937,45.151c0.49,0.251,0.863,0.624,1.115,1.115
	C60.562,46.014,60.188,45.643,59.937,45.151z"/>
<path fill-rule="evenodd" clip-rule="evenodd" fill="#191919" d="M57.986,43.479c0.491,0.252,0.862,0.623,1.114,1.115
	C58.609,44.342,58.237,43.97,57.986,43.479z"/>
<path fill-rule="evenodd" clip-rule="evenodd" fill="#191919" d="M56.035,41.807c0.491,0.252,0.863,0.624,1.114,1.115
	C56.658,42.669,56.286,42.298,56.035,41.807z"/>
<path fill-rule="evenodd" clip-rule="evenodd" fill="#191919" d="M54.084,40.134c0.491,0.252,0.863,0.624,1.114,1.115
	C54.707,40.998,54.337,40.625,54.084,40.134z"/>
<path fill-rule="evenodd" clip-rule="evenodd" fill="#191919" d="M52.133,38.462c0.491,0.252,0.863,0.624,1.116,1.115
	C52.756,39.325,52.385,38.953,52.133,38.462z"/>
<path fill-rule="evenodd" clip-rule="evenodd" fill="#191919" d="M50.182,36.79c0.49,0.252,0.863,0.624,1.116,1.115
	C50.805,37.653,50.434,37.281,50.182,36.79z"/>
<path fill-rule="evenodd" clip-rule="evenodd" fill="#191919" d="M48.23,35.118c0.492,0.251,0.863,0.623,1.115,1.114
	C48.855,35.98,48.482,35.609,48.23,35.118z"/>
<path fill-rule="evenodd" clip-rule="evenodd" fill="#191919" d="M46.281,33.445c0.49,0.252,0.861,0.623,1.113,1.114
	C46.904,34.308,46.531,33.937,46.281,33.445z"/>
<path fill-rule="evenodd" clip-rule="evenodd" fill="#191919" d="M44.329,31.773c0.491,0.252,0.862,0.624,1.114,1.115
	C44.952,32.636,44.58,32.265,44.329,31.773z"/>
<path fill-rule="evenodd" clip-rule="evenodd" fill="#191919" d="M42.1,29.822c0.583,0.346,1.048,0.811,1.393,1.394
	C42.909,30.87,42.445,30.405,42.1,29.822z"/>
<path fill-rule="evenodd" clip-rule="evenodd" fill="#191919" d="M40.148,28.15c0.583,0.346,1.048,0.811,1.394,1.394
	C40.958,29.197,40.495,28.733,40.148,28.15z"/>
<path fill-rule="evenodd" clip-rule="evenodd" fill="#191919" d="M38.198,26.478c0.583,0.346,1.047,0.811,1.393,1.394
	C39.008,27.525,38.543,27.061,38.198,26.478z"/>
<path fill-rule="evenodd" clip-rule="evenodd" fill="#191919" d="M36.246,24.805c0.583,0.346,1.047,0.811,1.394,1.394
	C37.057,25.853,36.592,25.388,36.246,24.805z"/>
<path fill-rule="evenodd" clip-rule="evenodd" fill="#191919" d="M34.295,23.133c0.583,0.346,1.048,0.811,1.394,1.394
	C35.106,24.181,34.641,23.716,34.295,23.133z"/>
<path fill-rule="evenodd" clip-rule="evenodd" fill="#191919" d="M32.344,21.46c0.583,0.346,1.048,0.811,1.394,1.394
	C33.155,22.508,32.691,22.044,32.344,21.46z"/>
<path fill-rule="evenodd" clip-rule="evenodd" fill="#343434" d="M43.492,11.148c0.148-0.224,0.29-0.453,0.278-0.836
	C44.312,10.202,44.18,11.582,43.492,11.148z"/>
<path fill-rule="evenodd" clip-rule="evenodd" fill="#191919" d="M47.116,65.776c0.253-0.491,0.623-0.863,1.114-1.115
	C47.979,65.152,47.607,65.524,47.116,65.776z"/>
<path fill-rule="evenodd" clip-rule="evenodd" fill="#191919" d="M48.789,64.382c0.251-0.491,0.623-0.862,1.114-1.114
	C49.65,63.759,49.28,64.13,48.789,64.382z"/>
<path fill-rule="evenodd" clip-rule="evenodd" fill="#191919" d="M50.738,62.71c0.253-0.491,0.625-0.863,1.116-1.115
	C51.602,62.086,51.231,62.458,50.738,62.71z"/>
<path fill-rule="evenodd" clip-rule="evenodd" fill="#191919" d="M52.411,61.316c0.253-0.492,0.623-0.863,1.116-1.115
	C53.274,60.693,52.902,61.065,52.411,61.316z"/>
<path fill-rule="evenodd" clip-rule="evenodd" fill="#191919" d="M54.362,59.645c0.253-0.492,0.623-0.863,1.116-1.115
	C55.226,59.021,54.854,59.393,54.362,59.645z"/>
<path fill-rule="evenodd" clip-rule="evenodd" fill="#191919" d="M65.512,53.513c0.583,0.346,1.048,0.81,1.393,1.394
	C66.321,54.56,65.856,54.096,65.512,53.513z"/>
<path fill-rule="evenodd" clip-rule="evenodd" fill="#191919" d="M63.839,52.119c0.49,0.251,0.863,0.624,1.113,1.115
	C64.462,52.982,64.091,52.61,63.839,52.119z"/>
<path fill-rule="evenodd" clip-rule="evenodd" fill="#191919" d="M61.609,50.168c0.583,0.345,1.047,0.81,1.394,1.393
	C62.42,51.216,61.955,50.751,61.609,50.168z"/>
<path fill-rule="evenodd" clip-rule="evenodd" fill="#191919" d="M59.937,48.774c0.49,0.252,0.863,0.623,1.115,1.115
	C60.562,49.637,60.188,49.266,59.937,48.774z"/>
<path fill-rule="evenodd" clip-rule="evenodd" fill="#191919" d="M57.706,46.823c0.493,0.252,0.863,0.624,1.116,1.115
	C58.331,47.687,57.959,47.315,57.706,46.823z"/>
<path fill-rule="evenodd" clip-rule="evenodd" fill="#191919" d="M55.757,45.151c0.491,0.251,0.861,0.624,1.114,1.115
	C56.38,46.014,56.008,45.643,55.757,45.151z"/>
<path fill-rule="evenodd" clip-rule="evenodd" fill="#191919" d="M53.806,43.479c0.491,0.252,0.863,0.623,1.114,1.115
	C54.429,44.342,54.056,43.97,53.806,43.479z"/>
<path fill-rule="evenodd" clip-rule="evenodd" fill="#191919" d="M51.854,41.807c0.49,0.252,0.863,0.624,1.113,1.115
	C52.478,42.669,52.106,42.298,51.854,41.807z"/>
<path fill-rule="evenodd" clip-rule="evenodd" fill="#191919" d="M49.903,40.134c0.49,0.252,0.863,0.624,1.115,1.115
	C50.526,40.998,50.155,40.625,49.903,40.134z"/>
<path fill-rule="evenodd" clip-rule="evenodd" fill="#191919" d="M47.952,38.462c0.492,0.252,0.863,0.624,1.115,1.115
	C48.575,39.325,48.204,38.953,47.952,38.462z"/>
<path fill-rule="evenodd" clip-rule="evenodd" fill="#191919" d="M46,36.79c0.493,0.252,0.864,0.624,1.116,1.115
	C46.625,37.653,46.253,37.281,46,36.79z"/>
<path fill-rule="evenodd" clip-rule="evenodd" fill="#191919" d="M44.051,35.118c0.491,0.251,0.861,0.623,1.114,1.114
	C44.674,35.98,44.302,35.609,44.051,35.118z"/>
<path fill-rule="evenodd" clip-rule="evenodd" fill="#191919" d="M42.1,33.445c0.49,0.252,0.863,0.623,1.114,1.114
	C42.724,34.308,42.351,33.937,42.1,33.445z"/>
<path fill-rule="evenodd" clip-rule="evenodd" fill="#191919" d="M40.148,31.773c0.492,0.252,0.863,0.624,1.115,1.115
	C40.772,32.636,40.4,32.265,40.148,31.773z"/>
<path fill-rule="evenodd" clip-rule="evenodd" fill="#191919" d="M38.198,30.101c0.491,0.252,0.863,0.624,1.114,1.115
	C38.821,30.964,38.449,30.592,38.198,30.101z"/>
<path fill-rule="evenodd" clip-rule="evenodd" fill="#191919" d="M36.246,28.428c0.492,0.252,0.863,0.624,1.115,1.115
	C36.87,29.292,36.498,28.92,36.246,28.428z"/>
<path fill-rule="evenodd" clip-rule="evenodd" fill="#191919" d="M34.295,26.756c0.491,0.251,0.864,0.623,1.115,1.115
	C34.918,27.62,34.547,27.248,34.295,26.756z"/>
<path fill-rule="evenodd" clip-rule="evenodd" fill="#191919" d="M32.344,25.083c0.492,0.252,0.863,0.624,1.115,1.115
	C32.968,25.947,32.596,25.576,32.344,25.083z"/>
<path fill-rule="evenodd" clip-rule="evenodd" fill="#191919" d="M30.114,23.412c0.875-0.131,0.737,0.75,1.394,0.836
	c0,0.093,0,0.186,0,0.279c-0.401,0.148-0.68-1.086-0.836-0.279C30.412,24.043,30.25,23.741,30.114,23.412z"/>
<path fill-rule="evenodd" clip-rule="evenodd" fill="#343434" d="M23.983,56.3c0.888,0.552-0.562,1.084-1.394,0.836
	C22.541,56.344,24.413,57.472,23.983,56.3z"/>
<path fill-rule="evenodd" clip-rule="evenodd" fill="#343434" d="M40.427,0.836c0.604-0.047,0.126,0.989,0.279,1.394
	C40.102,2.276,40.579,1.241,40.427,0.836z"/>
<path fill-rule="evenodd" clip-rule="evenodd" fill="#343434" d="M42.656,1.672c0.605-0.047,0.126,0.988,0.279,1.394
	C42.331,3.113,42.81,2.077,42.656,1.672z"/>
<path fill-rule="evenodd" clip-rule="evenodd" fill="#787878" d="M58.822,2.508c0.206-0.628,1.563-0.109,2.229-0.278
	c0,0.092,0,0.185,0,0.278C60.309,2.508,59.565,2.508,58.822,2.508z"/>
<path fill-rule="evenodd" clip-rule="evenodd" fill="#C2C2C2" d="M61.052,2.23c0.756,0.172,2.212-0.354,2.509,0.278
	c-0.836,0-1.673,0-2.509,0C61.052,2.415,61.052,2.322,61.052,2.23z"/>
<path fill-rule="evenodd" clip-rule="evenodd" fill="#343434" d="M40.706,3.066c0.604-0.047,0.125,0.988,0.278,1.393
	c-0.093,0-0.186,0-0.278,0C40.706,3.995,40.706,3.53,40.706,3.066z"/>
<path fill-rule="evenodd" clip-rule="evenodd" fill="#343434" d="M59.101,5.295c0.086-0.378,0.697-0.231,1.116-0.279
	C60.164,5.429,59.541,5.272,59.101,5.295z"/>
<path fill-rule="evenodd" clip-rule="evenodd" fill="#343434" d="M41.542,7.247c0,0.464,0,0.929,0,1.393
	c-0.604,0.047-0.126-0.988-0.279-1.393C41.356,7.247,41.449,7.247,41.542,7.247z"/>
<path fill-rule="evenodd" clip-rule="evenodd" fill="#343434" d="M43.492,8.083c0.604-0.047,0.127,0.988,0.278,1.393
	C43.167,9.523,43.645,8.487,43.492,8.083z"/>
<path fill-rule="evenodd" clip-rule="evenodd" fill="#343434" d="M41.542,9.476c0.605-0.047,0.127,0.989,0.279,1.394
	C41.216,10.917,41.693,9.881,41.542,9.476z"/>
<path fill-rule="evenodd" clip-rule="evenodd" fill="#787878" d="M43.492,11.148c-0.852-0.202-0.819,0.481-1.671,0.278
	c0-0.186,0-0.372,0-0.557c-0.152-0.405,0.326-1.44-0.279-1.394c0-0.278,0-0.558,0-0.836c0-0.464,0-0.929,0-1.393
	c0.324,0.045,0.497-0.062,0.558-0.279c0.465,0,0.929,0,1.393,0c0,0.372,0,0.743,0,1.115c0.152,0.404-0.325,1.44,0.278,1.393
	c0,0.278,0,0.558,0,0.836C43.782,10.696,43.641,10.924,43.492,11.148z"/>
<path fill-rule="evenodd" clip-rule="evenodd" fill="#343434" d="M23.983,22.018c-0.125-0.456,1.519-0.456,1.394,0
	C24.912,22.018,24.448,22.018,23.983,22.018z"/>
<path fill-rule="evenodd" clip-rule="evenodd" fill="#343434" d="M20.36,23.969c0,0.372,0,0.743,0,1.115c-0.093,0-0.186,0-0.279,0
	C20.129,24.667,19.981,24.056,20.36,23.969z"/>
<path fill-rule="evenodd" clip-rule="evenodd" fill="#343434" d="M23.147,24.248c-0.16,0.49,0.336,1.638-0.278,1.672
	C23.028,25.43,22.532,24.283,23.147,24.248z"/>
<path fill-rule="evenodd" clip-rule="evenodd" fill="#787878" d="M22.589,28.986c0-0.558,0-1.114,0-1.672c0.093,0,0.186,0,0.28,0
	C22.708,27.804,23.205,28.951,22.589,28.986z"/>
<path fill-rule="evenodd" clip-rule="evenodd" fill="#343434" d="M74.709,28.428c0.377,0.087,0.23,0.698,0.278,1.115
	c-0.094,0-0.186,0-0.278,0C74.709,29.171,74.709,28.8,74.709,28.428z"/>
<path fill-rule="evenodd" clip-rule="evenodd" fill="#343434" d="M31.229,30.38c0.455-0.126,0.455,1.519,0,1.393
	C31.229,31.309,31.229,30.844,31.229,30.38z"/>
<path fill-rule="evenodd" clip-rule="evenodd" fill="#191919" d="M74.987,31.773c0.605-0.046,0.127,0.989,0.279,1.394
	c-0.095,0-0.187,0-0.279,0C74.987,32.702,74.987,32.237,74.987,31.773z"/>
<path fill-rule="evenodd" clip-rule="evenodd" fill="#343434" d="M72.479,32.331c0,0.372,0,0.743,0,1.115
	c-0.413-0.052-0.257-0.673-0.28-1.115C72.293,32.331,72.385,32.331,72.479,32.331z"/>
<path fill-rule="evenodd" clip-rule="evenodd" fill="#787878" d="M15.9,33.167c0.836,0,1.672,0,2.509,0
	C18.197,33.627,16.112,33.627,15.9,33.167z"/>
<path fill-rule="evenodd" clip-rule="evenodd" fill="#C2C2C2" d="M72.479,34.003c0.623,0.12,0.112,1.373,0.278,1.951
	c-0.094,0-0.187,0-0.278,0C72.479,35.303,72.479,34.653,72.479,34.003z"/>
<path fill-rule="evenodd" clip-rule="evenodd" fill="#343434" d="M75.267,35.675c0.378,0.086,0.229,0.698,0.278,1.114
	c-0.093,0-0.187,0-0.278,0C75.267,36.418,75.267,36.047,75.267,35.675z"/>
<path fill-rule="evenodd" clip-rule="evenodd" fill="#343434" d="M72.758,35.954c0,0.465,0,0.929,0,1.394
	c-0.604,0.046-0.126-0.989-0.278-1.394C72.571,35.954,72.664,35.954,72.758,35.954z"/>
<path fill-rule="evenodd" clip-rule="evenodd" fill="#C2C2C2" d="M72.758,37.905c0.623,0.12,0.112,1.374,0.278,1.951
	c-0.092,0-0.187,0-0.278,0C72.758,39.205,72.758,38.555,72.758,37.905z"/>
<path fill-rule="evenodd" clip-rule="evenodd" fill="#343434" d="M75.545,39.577c0.378,0.087,0.23,0.698,0.278,1.115
	C75.41,40.64,75.566,40.019,75.545,39.577z"/>
<path fill-rule="evenodd" clip-rule="evenodd" fill="#343434" d="M73.036,39.856c0,0.372,0,0.743,0,1.115
	c-0.412-0.052-0.256-0.674-0.278-1.115C72.85,39.856,72.944,39.856,73.036,39.856z"/>
<path fill-rule="evenodd" clip-rule="evenodd" fill="#787878" d="M17.852,45.43c0,1.022,0,2.044,0,3.066
	C17.39,48.105,17.39,45.82,17.852,45.43z"/>
<path fill-rule="evenodd" clip-rule="evenodd" fill="#787878" d="M79.447,52.677c0-0.929,0-1.858,0-2.788
	C79.908,50.19,79.908,52.376,79.447,52.677z"/>
<path fill-rule="evenodd" clip-rule="evenodd" fill="#343434" d="M15.9,56.3c0,0.372,0,0.743,0,1.115
	C15.448,57.614,15.448,56.101,15.9,56.3z"/>
<path fill-rule="evenodd" clip-rule="evenodd" fill="#343434" d="M16.737,57.693c0.12-0.623,1.373-0.112,1.951-0.278
	c0,0.093,0,0.186,0,0.278C18.037,57.693,17.387,57.693,16.737,57.693z"/>
<path fill-rule="evenodd" clip-rule="evenodd" fill="#343434" d="M74.429,60.202c0,1.022,0,2.043,0,3.066
	C73.968,62.877,73.968,60.592,74.429,60.202z"/>
<path fill-rule="evenodd" clip-rule="evenodd" fill="#343434" d="M12.277,110.649c-0.125-0.456,1.52-0.456,1.394,0
	C13.206,110.649,12.741,110.649,12.277,110.649z"/>
<path fill-rule="evenodd" clip-rule="evenodd" fill="#787878" d="M26.77,128.764c-1.208,0.187-1.498,1.29-2.787,1.394
	c0.208-0.857-0.765-0.535-0.558-1.394c1.042-0.165,1.441-0.975,2.23-1.394c0.491,0.253,0.46,1.026,1.115,1.115
	C26.77,128.578,26.77,128.671,26.77,128.764z"/>
<path fill-rule="evenodd" clip-rule="evenodd" fill="#FFFFFF" d="M43.492,4.181C48.61,3.632,53.6,2.954,58.822,2.508
	c0.743,0,1.486,0,2.229,0c0.836,0,1.673,0,2.509,0c1.763,0.25,3.844,1.355,5.017,2.787c1.02,1.245,1.51,3.214,2.229,5.295
	c0.471,1.361,0.88,2.371,1.393,4.181c1.008,3.55,2.397,9.68,2.51,13.657c0,0.372,0,0.743,0,1.115
	c0.164,0.577-0.345,1.831,0.278,1.951c0,0.093,0,0.186,0,0.279c0,0.464,0,0.929,0,1.394c0.022,0.442-0.134,1.063,0.279,1.115
	c0,0.465,0,0.929,0,1.394c0,0.372,0,0.743,0,1.114c0,0.372,0,0.743,0,1.115c0.021,0.441-0.135,1.063,0.278,1.115
	c0,0.186,0,0.372,0,0.557c0.021,0.442-0.135,1.063,0.278,1.115c-0.145,4.418,2.877,5.671,3.624,9.197c0,0.929,0,1.858,0,2.788
	c-0.561,2.877-2.111,4.764-2.229,8.082c-0.459,0.038-0.459,1.913,0,1.951c0.418,2.739,2.612,3.705,3.622,5.853
	c0.645,1.12,0.61,2.92,0.557,4.738c-0.048,1.251-0.579,2.021-1.114,2.786c-0.49,0.253-0.863,0.625-1.113,1.115
	c-1.932,1.414-3.885,2.805-6.133,3.901c-0.49,0.253-0.863,0.624-1.115,1.116c-7.021,13.048-13.303,26.977-20.345,40.413
	c-1.675,3.193-3.517,6.389-5.576,9.476c-0.313,0.469-0.819,0.944-1.113,1.394c-0.453,0.688-0.646,1.533-1.395,1.951
	c-0.583,0.346-1.047,0.811-1.393,1.394c-0.761,0.912-1.821,1.523-3.345,1.672c-1.208,0-2.416,0-3.623,0
	c-1.342-0.145-2.187-0.785-3.065-1.394c-0.44-0.675-0.998-1.232-1.672-1.672c-1.566-1.871-2.216-4.659-3.624-6.689
	c0-0.093,0-0.187,0-0.278c-0.654-0.089-0.624-0.862-1.115-1.115c-0.5-1.078-1.509-1.648-1.951-2.786
	c-0.252-0.492-0.624-0.863-1.116-1.115c-1.741-1.975-3.6-3.833-5.574-5.574c-1.292-1.496-2.657-2.918-3.902-4.46
	c-0.417-0.753-1.163,0.483-1.394,0.837c-0.082,0.567-0.754,0.546-0.836,1.114c-0.894,1.021-3.905,1.227-4.738,0
	c-0.626-0.86-1.37-1.604-2.229-2.229c-0.624-0.349-0.844-1.099-1.394-1.673c-1.171-1.222-2.682-6.231-2.508-7.803
	c0.163-1.473,1.6-3.085,2.787-4.738c2.595-3.616,4.815-6.849,7.525-10.591c0.499-0.689,1.188-1.264,1.672-1.952
	c1.432-2.032,2.845-4.391,4.459-6.688c0.453-0.645,1.18-1.273,1.672-1.952c0.189-0.261,0.071-0.612,0.279-0.836
	c0.467-0.502,1.309-1.65,1.951-2.509c0.215-0.287,0.61-0.518,0.836-0.836c0.263-0.371,0.242-0.967,0.558-1.394
	c0.478-0.646,2.25-2.348,2.229-3.066c-0.056-2.025-3.646-2.971-4.459-4.738c-0.61-1.325-0.445-2.364-0.558-3.344
	c-0.087-0.771-0.17-1.834-0.278-3.345c0-0.093,0-0.186,0-0.278c-0.23-0.85-0.033-1.419-0.278-1.672
	c0.036-2.638-0.594-4.609-0.558-7.247c0-1.022,0-2.043,0-3.066c0.112-1.653,0.804-2.726,1.672-3.623
	c0.491-0.251,0.863-0.624,1.115-1.115c0-0.093,0-0.186,0-0.279c1.906-1.267,3.938-2.576,5.853-3.902
	c1.804-1.249,4.213-2.276,4.738-4.738c0.455,0.126,0.455-1.519,0-1.393c-1.496-3.242-3.787-5.689-5.853-8.362
	c0.125-0.456-1.52-0.456-1.394,0c-0.729,0.293-0.912,1.132-0.836,2.229c-0.615,0.035-0.119,1.183-0.278,1.672
	c0,0.093,0,0.186,0,0.279c-0.379,0.086-0.231,0.698-0.28,1.115c0,0.558,0,1.115,0,1.672c0.065,1.086-0.598,1.445-0.835,2.23
	c-0.093,0-0.186,0-0.279,0c-0.491,0.251-0.863,0.623-1.115,1.115c-0.477,0.452-1.014,0.844-1.951,0.836c-0.836,0-1.672,0-2.509,0
	c-0.936,0.007-1.474-0.384-1.951-0.836c-0.252-0.492-0.624-0.863-1.115-1.115c-0.452-0.477-0.843-1.015-0.836-1.951
	c0-0.929,0-1.858,0-2.787c0.919-3.096,2.721-6.196,4.181-9.198c0.294-0.605,0.286-1.135,0.558-1.672
	c0.66-1.306,1.854-2.823,3.065-3.902c0.583-0.346,1.048-0.811,1.394-1.394c1.026-1.108,2.132-2.281,3.623-3.066
	c4.159-2.19,10.733-1.521,15.887-2.788c0.092,0,0.185,0,0.278,0c0.372,0,0.743,0,1.115,0C42.504,4.307,43.54,4.785,43.492,4.181z
	 M60.773,5.017c-0.187,0-0.373,0-0.557,0c-0.419,0.047-1.03-0.1-1.116,0.279C53.64,5.594,48.646,6.362,43.492,6.968
	c-0.464,0-0.928,0-1.393,0c-0.406,0.152-1.441-0.326-1.394,0.279c-4.569,0.898-10.208,0.755-13.657,2.229
	c-1.284,0.549-2.171,1.447-3.344,1.951c-0.953,0.719-1.79,1.556-2.509,2.508c-0.452,1.168-1.32,1.97-1.951,3.066
	c-1.863,3.241-2.996,7.002-4.738,10.312c-0.455-0.125-0.455,1.52,0,1.394c0.747,2.895,5.891,2.312,5.574-1.115
	c0.413-0.051,0.256-0.673,0.279-1.115c0-0.464,0-0.929,0-1.394c0-0.372,0-0.743,0-1.115c-0.167-2.768,1.22-3.983,3.065-4.737
	c1.473-0.08,2.772,0.015,3.624,0.557c0.252,0.491,0.624,0.863,1.115,1.114c0.539,0.948,1.073,1.9,1.951,2.509
	c0.136,0.329,0.298,0.632,0.558,0.836c1.086,2.073,3.11,3.207,3.344,6.132c0,0.557,0,1.114,0,1.671
	c0.255,1.202-0.795,2.444-1.114,2.788c-0.476,0.51-0.369,0.826-0.836,1.114c-1.16,0.714-2.419,1.562-3.345,2.23
	c-0.486,0.351-0.711,0.832-1.115,1.115c-0.405,0.283-1.029,0.318-1.393,0.558c-0.456,0.299-0.638,0.789-1.115,1.115
	c-0.268,0.183-0.607,0.103-0.836,0.278c-0.649,0.497-1.202,1.219-1.951,1.394c-0.478,0.358-1.096,0.576-1.115,1.394
	c-1.732,3.06-0.053,7.885,0,11.706c0.17,0.667-0.35,2.022,0.279,2.23c0.469,1.968-0.21,3.457,0.279,4.738
	c0.973,2.551,5.201,2.353,5.017,5.853c0,0.093,0,0.186,0,0.278c0.143,1.63-0.972,2.001-1.115,3.345
	c-6.157,7.991-13.696,18.919-20.067,27.871c-0.821,1.153-2.654,3.044-2.788,4.181c-0.127,1.08,0.566,3.013,1.115,4.181
	c0.539,1.147,1.604,2.166,2.229,3.065c0,0.094,0,0.187,0,0.278c0.563,0.646,0.926,1.49,1.951,1.673
	c1.078,0.242,0.991-0.68,1.672-0.835c0.491-0.253,0.863-0.624,1.115-1.116c0.417-0.324,0.682-0.805,1.393-0.835
	c0.464,0,0.929,0,1.394,0c2.223,0.748,3.071,2.874,4.459,4.459c0.251,0.491,0.624,0.862,1.115,1.114
	c1.602,2.022,3.694,3.553,5.295,5.574c0.252,0.492,0.623,0.863,1.115,1.115c0.878,0.608,1.412,1.561,1.951,2.508
	c0.498,0.525,0.754,1.29,1.394,1.673c1.233,2.018,2.245,4.258,3.344,6.41c0.214,0.901,0.771,1.458,1.672,1.673
	c0.675,0.347,1.354,0.689,2.229,0.835c-0.125,0.456,1.52,0.456,1.394,0c0.969-0.331,2.007-0.594,2.787-1.113
	c0.492-0.253,0.863-0.624,1.115-1.116c0.475-1.094,1.29-2.067,1.951-3.065c0.679-1.024,1.32-2.044,1.951-3.065
	c1.356-2.191,2.458-4.373,3.624-6.689c5.607-11.156,11.436-22.935,17.001-34.003c1.112-2.21,2.34-4.472,3.902-6.41
	c0.583-0.346,1.048-0.811,1.393-1.394c2.467-2.551,7.17-2.863,7.525-7.525c-0.089-0.933-0.287-1.757-0.836-2.229
	c-1.358-1.893-3.231-3.272-3.624-6.131c0-1.022,0-2.044,0-3.066c0.145-1.856,0.651-3.319,1.116-4.738
	c0.545-1.664,1.568-3.143,1.395-4.739c-0.106-0.96-1.057-2.025-1.673-3.065c-1.194-2.014-2.286-3.723-2.23-6.689
	c0-0.372,0-0.743,0-1.115c-0.166-0.578,0.345-1.831-0.278-1.951c0-0.186,0-0.372,0-0.557c0-0.465,0-0.929,0-1.394
	c-0.166-0.578,0.345-1.831-0.278-1.951c0-0.186,0-0.372,0-0.558c0-0.372,0-0.743,0-1.115c-0.048-0.417,0.098-1.029-0.28-1.115
	c-0.267-6.439-1.823-13.975-3.622-19.231c-1.112-3.249-2.633-6.441-5.853-6.968C62.687,4.558,60.81,4.558,60.773,5.017z"/>
<path fill-rule="evenodd" clip-rule="evenodd" fill="#343434" d="M23.425,19.231c3.345-1.583,7.323,0.286,8.919,2.229
	c0.347,0.583,0.811,1.048,1.394,1.394c0.279-0.001,0.332,0.225,0.557,0.278c0.346,0.583,0.811,1.048,1.394,1.394
	c0.279-0.001,0.332,0.226,0.557,0.278c0.346,0.583,0.811,1.048,1.394,1.394c0.28,0,0.332,0.226,0.558,0.279
	c0.346,0.583,0.81,1.047,1.393,1.394c0.28-0.001,0.332,0.225,0.558,0.278c0.347,0.583,0.811,1.047,1.394,1.394
	c0.28-0.001,0.333,0.226,0.558,0.279c0.346,0.583,0.81,1.047,1.393,1.394c0.398,0.066,0.471,0.458,0.837,0.557
	c0.251,0.492,0.623,0.863,1.114,1.115c0.398,0.067,0.471,0.459,0.838,0.558c0.25,0.491,0.623,0.863,1.113,1.114
	c0.398,0.067,0.471,0.459,0.836,0.558c0.252,0.491,0.625,0.863,1.115,1.114c0.399,0.067,0.469,0.459,0.836,0.558
	c0.252,0.492,0.623,0.863,1.116,1.115c0.396,0.066,0.469,0.459,0.835,0.557c0.252,0.491,0.623,0.863,1.116,1.115
	c0.396,0.067,0.469,0.459,0.835,0.558c0.253,0.491,0.623,0.863,1.114,1.115c0.398,0.067,0.471,0.459,0.837,0.558
	c0.251,0.492,0.623,0.863,1.114,1.115c0.398,0.067,0.471,0.459,0.837,0.558c0.251,0.491,0.623,0.863,1.114,1.115
	c0.398,0.067,0.471,0.459,0.836,0.558c0.252,0.491,0.625,0.863,1.115,1.115c0.396,0.067,0.471,0.459,0.836,0.557
	c0.252,0.492,0.623,0.863,1.115,1.115c0.397,0.066,0.469,0.459,0.836,0.557c0.252,0.491,0.623,0.863,1.113,1.115
	c0.399,0.066,0.472,0.458,0.838,0.558c0.25,0.491,0.623,0.863,1.114,1.114c0.398,0.067,0.471,0.459,0.837,0.558
	c0.251,0.492,0.623,0.863,1.114,1.115c1.029,0.92,0.848,3.055,0.835,5.017c-0.615,0.035-0.118,1.183-0.278,1.672
	c-0.499,3.748-1.509,10.083-5.017,10.312c-3.235,0.211-3.963-3.745-4.738-6.132c-0.334-1.033-0.711-2.077-0.835-3.066
	c0.118-0.449-1.04-0.935-1.116-0.278c-0.092,0-0.184,0-0.278,0c-0.491,0.252-0.861,0.624-1.114,1.115
	c-0.879,0.608-1.504,1.467-2.508,1.951c-0.493,0.252-0.863,0.624-1.116,1.115c-0.877,0.608-1.504,1.467-2.508,1.951
	c-0.491,0.252-0.863,0.624-1.114,1.115c-0.28,0-0.332,0.226-0.559,0.279c-0.491,0.252-0.861,0.624-1.114,1.115
	c-1.791,1.46-3.6,2.904-6.688,3.066c-1.394,0-2.788,0-4.181,0c-0.372,0-0.743,0-1.115,0c-0.086-0.378-0.698-0.23-1.115-0.278
	c-0.371,0-0.743,0-1.114,0c-0.086-0.379-0.698-0.231-1.115-0.279c-0.372,0-0.744,0-1.115,0c-0.12-0.623-1.373-0.113-1.951-0.278
	c-0.093,0-0.187,0-0.279,0c-0.49,0.16-1.637-0.337-1.672,0.278c-0.693-0.043-0.863,0.438-1.394,0.558
	c0.143-1.344,1.258-1.715,1.115-3.345c1.3,0,2.602,0,3.902,0c0.371,0,0.743,0,1.114,0c0.086,0.378,0.698,0.231,1.116,0.279
	c0.371,0,0.743,0,1.114,0c0.086,0.378,0.698,0.231,1.115,0.279c0.464,0,0.929,0,1.394,0c0.086,0.378,0.698,0.231,1.115,0.279
	c4.664,0.204,6.935-1.985,9.477-3.902c0.491-0.252,0.863-0.624,1.114-1.115c0.28,0.001,0.332-0.226,0.559-0.279
	c0.491-0.251,0.861-0.623,1.114-1.114c0.398-0.067,0.471-0.459,0.835-0.558c0.493-0.252,0.863-0.624,1.116-1.115
	c0.278,0.001,0.33-0.226,0.557-0.279c0.491-0.251,0.863-0.623,1.116-1.115c0.396-0.067,0.469-0.459,0.835-0.557
	c0.491-0.252,0.863-0.624,1.116-1.115c0.641-0.286,0.897-0.959,1.949-0.836c0.465,0,0.93,0,1.395,0
	c1.384-0.14,1.601,0.808,1.951,1.394c0.074,0.124,0.487,0.13,0.557,0.279c0.108,0.229-0.1,0.603,0,0.836
	c0.752,1.765,1.4,3.38,1.952,4.738c0.33,0.815,0.111,2.053,1.113,2.23c0.884-2.275,1.892-4.427,2.229-7.247
	c0.605,0.046,0.127-0.989,0.279-1.394c0-1.208,0-2.416,0-3.623c-0.345-0.583-0.81-1.048-1.393-1.394
	c-0.28,0.001-0.333-0.226-0.56-0.279c-0.25-0.491-0.623-0.863-1.113-1.115c-0.398-0.066-0.471-0.459-0.836-0.558
	c-0.347-0.583-0.811-1.047-1.394-1.393c-0.279,0-0.333-0.227-0.558-0.279c-0.252-0.492-0.625-0.863-1.115-1.115
	c-0.567-0.082-0.548-0.754-1.114-0.836c-0.253-0.491-0.623-0.863-1.116-1.115c-0.396-0.066-0.469-0.459-0.835-0.557
	c-0.253-0.491-0.623-0.863-1.114-1.115c-0.398-0.067-0.471-0.459-0.837-0.558c-0.251-0.492-0.623-0.863-1.114-1.115
	c-0.398-0.067-0.471-0.459-0.838-0.558c-0.25-0.491-0.623-0.863-1.113-1.115c-0.398-0.067-0.471-0.459-0.836-0.558
	c-0.252-0.491-0.625-0.863-1.115-1.115c-0.396-0.066-0.471-0.459-0.836-0.558c-0.252-0.491-0.623-0.863-1.115-1.115
	c-0.397-0.066-0.469-0.459-0.836-0.557c-0.252-0.491-0.623-0.863-1.116-1.115c-0.396-0.066-0.469-0.459-0.835-0.558
	c-0.253-0.491-0.623-0.863-1.114-1.114c-0.397-0.067-0.471-0.458-0.837-0.558c-0.251-0.491-0.624-0.862-1.114-1.114
	c-0.398-0.067-0.47-0.459-0.837-0.558c-0.251-0.491-0.623-0.863-1.115-1.115c-0.397-0.066-0.47-0.459-0.836-0.557
	c-0.251-0.492-0.623-0.863-1.114-1.115c-0.398-0.066-0.47-0.458-0.836-0.557c-0.252-0.492-0.624-0.863-1.115-1.115
	c-0.397-0.066-0.47-0.458-0.836-0.557c-0.251-0.492-0.624-0.864-1.115-1.115c-0.397-0.066-0.47-0.459-0.836-0.558
	c-0.252-0.492-0.623-0.863-1.115-1.115c-0.398-0.066-0.47-0.458-0.836-0.557c0-0.093,0-0.186,0-0.279
	c-0.657-0.086-0.519-0.967-1.394-0.836c-0.877-0.609-1.412-1.561-1.951-2.509c-0.252-0.491-0.624-0.863-1.115-1.114
	C26.197,19.247,24.898,19.151,23.425,19.231z"/>
<path fill-rule="evenodd" clip-rule="evenodd" fill="#343434" d="M34.017,30.38c0.457-0.046,0.457,1.717,0,1.671
	C34.017,31.494,34.017,30.937,34.017,30.38z"/>
<path fill-rule="evenodd" clip-rule="evenodd" fill="#343434" d="M22.032,55.742c0.038-0.458,1.913-0.458,1.951,0
	C23.333,55.742,22.682,55.742,22.032,55.742z"/>
<path fill-rule="evenodd" clip-rule="evenodd" fill="#343434" d="M16.458,56.3c0.035-0.616,1.183-0.118,1.672-0.279
	C18.096,56.636,16.948,56.14,16.458,56.3z"/>
<path fill-rule="evenodd" clip-rule="evenodd" fill="#191919" d="M77.218,60.759c0,0.65,0,1.301,0,1.951
	C76.759,62.672,76.759,60.797,77.218,60.759z"/>
<path fill-rule="evenodd" clip-rule="evenodd" fill="#C2C2C2" d="M11.998,26.478c0,0.929,0,1.858,0,2.787
	C11.537,28.964,11.537,26.778,11.998,26.478z"/>
<path fill-rule="evenodd" clip-rule="evenodd" fill="#C2C2C2" d="M74.987,29.543c0,0.65,0,1.3,0,1.951
	c-0.623-0.12-0.114-1.374-0.278-1.951C74.802,29.543,74.894,29.543,74.987,29.543z"/>
<path fill-rule="evenodd" clip-rule="evenodd" fill="#787878" d="M35.131,138.519c1.208,0,2.416,0,3.623,0
	C38.183,138.982,35.703,138.982,35.131,138.519z"/>
<path fill-rule="evenodd" clip-rule="evenodd" fill="#787878" d="M40.427,0.836c-0.281-0.838,0.621-0.494,1.115-0.558
	c0.877-0.319,0.678,0.438,1.115,0.558c0,0.279,0,0.558,0,0.836c0.153,0.405-0.325,1.44,0.279,1.394
	c-0.118,0.583,0.191,0.738,0.278,1.115c-0.416,0.047-1.028-0.1-1.114,0.278c-0.372,0-0.744,0-1.115,0
	c-0.153-0.405,0.326-1.44-0.278-1.393c0-0.279,0-0.558,0-0.836C40.553,1.825,41.031,0.789,40.427,0.836z"/>
<path fill-rule="evenodd" clip-rule="evenodd" fill="#787878" d="M78.889,71.628c-0.775-0.789-2.777,1.328-3.065-0.557
	c-0.202-1.503,2.26-0.341,2.229-1.672C78.602,69.872,78.8,70.695,78.889,71.628z"/>
</svg>
