<?xml version="1.0" encoding="utf-8"?>
<!-- Generator: Adobe Illustrator 15.0.0, SVG Export Plug-In  -->
<!DOCTYPE svg PUBLIC "-//W3C//DTD SVG 1.1//EN" "http://www.w3.org/Graphics/SVG/1.1/DTD/svg11.dtd" [
	<!ENTITY ns_flows "http://ns.adobe.com/Flows/1.0/">
]>
<svg version="1.1"
	 xmlns="http://www.w3.org/2000/svg" xmlns:xlink="http://www.w3.org/1999/xlink" xmlns:a="http://ns.adobe.com/AdobeSVGViewerExtensions/3.0/"
	 x="0px" y="0px" width="142px" height="142px" viewBox="-30.034 -0.677 142 142" enable-background="new -30.034 -0.677 142 142"
	 xml:space="preserve">
<defs>
</defs>
<path fill-rule="evenodd" clip-rule="evenodd" fill="#A6A6A6" d="M25.708,21.463c-0.2-0.452,1.314-0.452,1.115,0
	C26.452,21.463,26.08,21.463,25.708,21.463z"/>
<path fill-rule="evenodd" clip-rule="evenodd" fill="#363636" d="M72.533,35.957c0.092,0,0.185,0,0.278,0c0,0.372,0,0.743,0,1.115
	C72.398,37.02,72.554,36.398,72.533,35.957z"/>
<path fill-rule="evenodd" clip-rule="evenodd" fill="#A6A6A6" d="M66.958,55.745c0.604-0.047,0.126,0.989,0.278,1.394
	c-0.093,0-0.185,0-0.278,0C66.958,56.674,66.958,56.209,66.958,55.745z"/>
<path fill-rule="evenodd" clip-rule="evenodd" fill="#D4D4D4" d="M66.958,57.139c0.094,0,0.186,0,0.278,0
	c-0.046,0.417,0.1,1.028-0.278,1.114C66.958,57.882,66.958,57.51,66.958,57.139z"/>
<path fill-rule="evenodd" clip-rule="evenodd" fill="#363636" d="M57.481,57.696c-0.124-0.455,1.521-0.455,1.395,0
	C58.411,57.696,57.946,57.696,57.481,57.696z"/>
<path fill-rule="evenodd" clip-rule="evenodd" fill="#363636" d="M27.38,68.844c0.052-0.413,0.674-0.255,1.115-0.278
	c0,0.093,0,0.186,0,0.278C28.124,68.844,27.752,68.844,27.38,68.844z"/>
<path fill-rule="evenodd" clip-rule="evenodd" fill="#D4D4D4" d="M38.251,69.681c0.371,0,0.743,0,1.114,0
	C39.564,70.133,38.052,70.133,38.251,69.681z"/>
<path fill-rule="evenodd" clip-rule="evenodd" fill="#363636" d="M12.609,110.652c-0.199-0.453,1.314-0.453,1.115,0
	C13.352,110.652,12.981,110.652,12.609,110.652z"/>
<path fill-rule="evenodd" clip-rule="evenodd" fill="#D4D4D4" d="M36.299,136.013c0.465,0,0.929,0,1.394,0
	C37.819,136.469,36.174,136.469,36.299,136.013z"/>
<path fill-rule="evenodd" clip-rule="evenodd" fill="#A6A6A6" d="M19.855,11.709c0.44-0.675,0.998-1.233,1.672-1.672
	C21.088,10.712,20.531,11.269,19.855,11.709z"/>
<path fill-rule="evenodd" clip-rule="evenodd" fill="#D4D4D4" d="M42.709,34.006c0.875-0.132,0.736,0.75,1.395,0.836
	c0,0.093,0,0.185,0,0.278c-0.227-0.053-0.278-0.28-0.559-0.278c-0.204-0.261-0.507-0.423-0.836-0.558
	C42.709,34.191,42.709,34.099,42.709,34.006z"/>
<path fill-rule="evenodd" clip-rule="evenodd" fill="#363636" d="M42.153,37.071c0.732,0.857,0.938,0.188,1.671-0.279
	c-0.08,0.568-0.753,0.546-0.835,1.115C42.587,37.751,42.309,37.473,42.153,37.071z"/>
<path fill-rule="evenodd" clip-rule="evenodd" fill="#717171" d="M12.888,85.01c-0.533-1.324-1.955-1.762-3.065-2.509
	c0.107-0.915,0.814-1.229,1.115-1.951c1.319,0.506,2.49,2.445,3.901,1.951C14.101,83.25,13.742,84.377,12.888,85.01z"/>
<path fill-rule="evenodd" clip-rule="evenodd" fill="#717171" d="M3.969,113.16c0.491,0.252,0.863,0.624,1.114,1.115
	C4.592,114.023,4.221,113.651,3.969,113.16z"/>
<path fill-rule="evenodd" clip-rule="evenodd" fill="#363636" d="M10.659,115.668c0.082-0.568,0.753-0.547,0.836-1.115
	c0.647-0.188,0.746-0.927,1.393-1.115C12.262,114.298,11.519,115.042,10.659,115.668z"/>
<path fill-rule="evenodd" clip-rule="evenodd" fill="#363636" d="M16.79,117.62c0.733,0.288,0.938,1.104,1.672,1.394
	c1.229,1.65,2.951,2.809,4.18,4.459C20.575,121.637,18.625,119.686,16.79,117.62z"/>
<path fill-rule="evenodd" clip-rule="evenodd" fill="#363636" d="M78.942,77.485c0.347-0.584,0.811-1.048,1.394-1.395
	C79.99,76.673,79.527,77.138,78.942,77.485z"/>
<path fill-rule="evenodd" clip-rule="evenodd" fill="#717171" d="M67.236,4.184c0.492,0.252,0.863,0.624,1.115,1.115
	C67.861,5.046,67.488,4.675,67.236,4.184z"/>
<path fill-rule="evenodd" clip-rule="evenodd" fill="#717171" d="M63.892,2.511c1.063-0.236,0.932-1.67,1.395-2.508
	c0.692-0.043,0.861,0.438,1.392,0.558c-0.147,1.059-0.869,1.545-0.835,2.787C65.405,2.857,64.351,2.982,63.892,2.511z"/>
<path fill-rule="evenodd" clip-rule="evenodd" fill="#D4D4D4" d="M42.153,136.85c0.251-0.491,0.624-0.862,1.114-1.115
	C43.233,136.445,42.862,136.816,42.153,136.85z"/>
<path fill-rule="evenodd" clip-rule="evenodd" fill="#D4D4D4" d="M18.462,119.013c-0.734-0.289-0.939-1.105-1.672-1.394
	c-0.053-0.226-0.28-0.278-0.279-0.559C17.279,117.594,17.929,118.246,18.462,119.013z"/>
<path fill-rule="evenodd" clip-rule="evenodd" fill="#D4D4D4" d="M11.495,114.553c0.354-0.408,1.118-1.829,1.672-1.115
	c-0.093,0-0.186,0-0.279,0C12.24,113.626,12.142,114.365,11.495,114.553z"/>
<path fill-rule="evenodd" clip-rule="evenodd" fill="#717171" d="M44.104,35.121c0.491,0.251,0.861,0.623,1.114,1.114
	c-0.555-0.58-1.19-0.009-1.395,0.558c-0.732,0.467-0.938,1.136-1.671,0.279c-0.094,0-0.187,0-0.279,0
	c0.192-1.108,1.225-1.375,1.671-2.229C43.826,34.841,43.877,35.067,44.104,35.121z"/>
<path fill-rule="evenodd" clip-rule="evenodd" fill="#A6A6A6" d="M21.528,13.66c0.533-0.768,1.183-1.418,1.951-1.951
	C22.946,12.477,22.296,13.127,21.528,13.66z"/>
<path fill-rule="evenodd" clip-rule="evenodd" fill="#D4D4D4" d="M67.236,51.564c0.227,0.053,0.278,0.28,0.559,0.279
	c0.251,0.492,0.623,0.863,1.114,1.115c0,0.093,0,0.186,0,0.279C68.233,52.797,67.676,52.239,67.236,51.564z"/>
<path fill-rule="evenodd" clip-rule="evenodd" fill="#717171" d="M15.396,86.403c0.232-0.882,0.813-1.416,1.394-1.951
	c0,0.094,0,0.187,0,0.28c1.029,0.921,2.805,1.096,3.065,2.786c-0.654,0.089-0.624,0.862-1.115,1.115
	C17.551,87.964,16.63,87.028,15.396,86.403z"/>
<path fill-rule="evenodd" clip-rule="evenodd" fill="#D4D4D4" d="M8.15,113.438c-1.182-0.489-2.019-1.326-2.508-2.508
	C6.626,111.617,7.068,112.847,8.15,113.438z"/>
<path fill-rule="evenodd" clip-rule="evenodd" fill="#717171" d="M9.822,112.603c0.251-0.492,0.624-0.863,1.115-1.116
	C10.685,111.979,10.313,112.35,9.822,112.603z"/>
<path fill-rule="evenodd" clip-rule="evenodd" fill="#D4D4D4" d="M21.249,118.455c1.465,1.044,2.437,2.581,3.902,3.624
	c0,0.093,0,0.186,0,0.278C23.734,121.172,22.434,119.873,21.249,118.455z"/>
<path fill-rule="evenodd" clip-rule="evenodd" fill="#D4D4D4" d="M66.678,7.528c-0.513-0.416-0.978-0.88-1.392-1.394
	C66.091,6.258,66.556,6.722,66.678,7.528z"/>
<path fill-rule="evenodd" clip-rule="evenodd" fill="#717171" d="M58.319,102.847c0-0.092,0-0.186,0-0.278
	c-0.397-0.836-2.846-0.712-1.952-1.951c0.668-1.538,2.23,1.119,3.065,0.278C59.02,101.506,58.889,102.397,58.319,102.847z"/>
<path fill-rule="evenodd" clip-rule="evenodd" fill="#363636" d="M25.151,122.079c-1.465-1.043-2.437-2.58-3.902-3.624
	c-0.48-0.912-1.471-1.316-1.951-2.229C21.365,118.06,23.316,120.011,25.151,122.079z"/>
<path fill-rule="evenodd" clip-rule="evenodd" fill="#363636" d="M68.909,52.958c-0.491-0.252-0.863-0.623-1.114-1.115
	C68.286,52.095,68.656,52.467,68.909,52.958z"/>
<path fill-rule="evenodd" clip-rule="evenodd" fill="#717171" d="M56.367,2.79c0.034-0.615,1.183-0.119,1.673-0.279
	C58.004,3.127,56.856,2.629,56.367,2.79z"/>
<path fill-rule="evenodd" clip-rule="evenodd" fill="#717171" d="M54.137,3.069c-0.048-0.604,0.988-0.126,1.395-0.279
	C55.578,3.394,54.542,2.917,54.137,3.069z"/>
<path fill-rule="evenodd" clip-rule="evenodd" fill="#717171" d="M46.613,3.905c0.034-0.615,1.182-0.118,1.671-0.279
	C48.25,4.242,47.101,3.744,46.613,3.905z"/>
<path fill-rule="evenodd" clip-rule="evenodd" fill="#717171" d="M44.104,4.184c0.034-0.616,1.183-0.118,1.671-0.279
	C45.741,4.52,44.593,4.023,44.104,4.184z"/>
<path fill-rule="evenodd" clip-rule="evenodd" fill="#D4D4D4" d="M60.548,5.02c0.036-0.459,1.913-0.459,1.949,0
	C61.848,5.02,61.198,5.02,60.548,5.02z"/>
<path fill-rule="evenodd" clip-rule="evenodd" fill="#717171" d="M58.04,5.298c0.118-0.623,1.373-0.113,1.95-0.279
	C59.869,5.643,58.617,5.133,58.04,5.298z"/>
<path fill-rule="evenodd" clip-rule="evenodd" fill="#717171" d="M55.532,5.577c0.034-0.616,1.182-0.118,1.671-0.279
	C57.168,5.914,56.021,5.417,55.532,5.577z"/>
<path fill-rule="evenodd" clip-rule="evenodd" fill="#717171" d="M30.726,5.856c0.035-0.616,1.182-0.119,1.672-0.279
	C32.363,6.192,31.215,5.696,30.726,5.856z"/>
<path fill-rule="evenodd" clip-rule="evenodd" fill="#717171" d="M48.284,6.414c0.036-0.616,1.184-0.119,1.673-0.279
	C49.922,6.75,48.774,6.253,48.284,6.414z"/>
<path fill-rule="evenodd" clip-rule="evenodd" fill="#717171" d="M45.775,6.692c0.036-0.616,1.185-0.118,1.673-0.278
	C47.414,7.029,46.266,6.532,45.775,6.692z"/>
<path fill-rule="evenodd" clip-rule="evenodd" fill="#717171" d="M43.267,6.971c0.034-0.615,1.182-0.119,1.673-0.279
	C44.906,7.308,43.757,6.811,43.267,6.971z"/>
<path fill-rule="evenodd" clip-rule="evenodd" fill="#717171" d="M41.038,7.25c0.035-0.616,1.182-0.119,1.672-0.279
	C42.675,7.586,41.527,7.089,41.038,7.25z"/>
<path fill-rule="evenodd" clip-rule="evenodd" fill="#717171" d="M38.808,7.528C38.842,6.913,39.99,7.41,40.48,7.25
	C40.446,7.865,39.298,7.368,38.808,7.528z"/>
<path fill-rule="evenodd" clip-rule="evenodd" fill="#717171" d="M36.578,7.807c0.035-0.615,1.183-0.118,1.673-0.278
	C38.216,8.144,37.068,7.646,36.578,7.807z"/>
<path fill-rule="evenodd" clip-rule="evenodd" fill="#717171" d="M23.2,23.136c-0.17,0.667,0.35,2.022-0.278,2.23
	C23.091,24.699,22.571,23.344,23.2,23.136z"/>
<path fill-rule="evenodd" clip-rule="evenodd" fill="#717171" d="M20.413,24.25c-0.175,0.847,0.357,2.401-0.279,2.788
	C20.31,26.19,19.777,24.637,20.413,24.25z"/>
<path fill-rule="evenodd" clip-rule="evenodd" fill="#717171" d="M22.922,26.759c-0.17,0.667,0.35,2.022-0.28,2.229
	C22.813,28.323,22.293,26.967,22.922,26.759z"/>
<path fill-rule="evenodd" clip-rule="evenodd" fill="#717171" d="M71.974,27.875c0.616,0.034,0.12,1.182,0.278,1.672
	C71.637,29.512,72.134,28.364,71.974,27.875z"/>
<path fill-rule="evenodd" clip-rule="evenodd" fill="#717171" d="M74.762,28.71c0.627,0.207,0.108,1.563,0.278,2.229
	C74.412,30.732,74.931,29.376,74.762,28.71z"/>
<path fill-rule="evenodd" clip-rule="evenodd" fill="#717171" d="M72.252,30.94c0.629,0.208,0.11,1.563,0.28,2.229
	C71.904,32.962,72.422,31.606,72.252,30.94z"/>
<path fill-rule="evenodd" clip-rule="evenodd" fill="#717171" d="M45.218,32.612c1.149-0.314,1.503-2.876,2.787-1.394
	c0.604,0.805-1.219,1.558-1.393,2.508C46.1,33.402,45.669,32.999,45.218,32.612z"/>
<path fill-rule="evenodd" clip-rule="evenodd" fill="#717171" d="M75.041,32.333c0.627,0.208,0.108,1.563,0.279,2.229
	C74.69,34.355,75.209,33,75.041,32.333z"/>
<path fill-rule="evenodd" clip-rule="evenodd" fill="#A6A6A6" d="M72.533,34.563c0.603-0.046,0.126,0.989,0.278,1.394
	c-0.094,0-0.187,0-0.278,0C72.533,35.492,72.533,35.027,72.533,34.563z"/>
<path fill-rule="evenodd" clip-rule="evenodd" fill="#717171" d="M75.32,35.957c0.633,0.296,0.105,1.752,0.278,2.508
	C74.964,38.169,75.492,36.713,75.32,35.957z"/>
<path fill-rule="evenodd" clip-rule="evenodd" fill="#717171" d="M72.811,38.465c0.627,0.208,0.108,1.563,0.278,2.23
	C72.46,40.487,72.981,39.131,72.811,38.465z"/>
<path fill-rule="evenodd" clip-rule="evenodd" fill="#717171" d="M75.598,39.859c0.623,0.12,0.112,1.373,0.278,1.951
	C75.253,41.689,75.764,40.436,75.598,39.859z"/>
<path fill-rule="evenodd" clip-rule="evenodd" fill="#717171" d="M79.5,49.892c0.461,0.211,0.461,2.297,0,2.508
	C79.5,51.564,79.5,50.728,79.5,49.892z"/>
<path fill-rule="evenodd" clip-rule="evenodd" fill="#363636" d="M74.482,60.483c0,0.836,0,1.672,0,2.508
	C74.023,62.78,74.023,60.695,74.482,60.483z"/>
<path fill-rule="evenodd" clip-rule="evenodd" fill="#717171" d="M28.496,68.566c0.577,0.166,1.831-0.345,1.951,0.278
	c-0.65,0-1.301,0-1.951,0C28.496,68.752,28.496,68.659,28.496,68.566z"/>
<path fill-rule="evenodd" clip-rule="evenodd" fill="#717171" d="M63.335,69.681c0.557,0,1.113,0,1.67,0
	C65.052,70.138,63.289,70.138,63.335,69.681z"/>
<path fill-rule="evenodd" clip-rule="evenodd" fill="#717171" d="M29.61,71.353c0.49,0.16,1.638-0.337,1.672,0.278
	C30.792,71.471,29.645,71.968,29.61,71.353z"/>
<path fill-rule="evenodd" clip-rule="evenodd" fill="#717171" d="M32.397,71.631c0.405,0.153,1.441-0.326,1.394,0.279
	C33.386,71.758,32.351,72.236,32.397,71.631z"/>
<path fill-rule="evenodd" clip-rule="evenodd" fill="#717171" d="M34.627,71.911c0.405,0.152,1.441-0.326,1.394,0.278
	C35.616,72.037,34.58,72.515,34.627,71.911z"/>
<path fill-rule="evenodd" clip-rule="evenodd" fill="#717171" d="M36.857,72.189c1.301,0,2.602,0,3.902,0
	C40.096,72.652,37.52,72.652,36.857,72.189z"/>
<path fill-rule="evenodd" clip-rule="evenodd" fill="#FFFFFF" d="M58.04,2.511c0.371,0,0.744,0,1.114,0c1.486,0,2.973,0,4.46,0
	c0.092,0,0.186,0,0.278,0c0.459,0.471,1.513,0.346,1.951,0.836c0.711,0.031,0.976,0.511,1.393,0.836
	c0.252,0.491,0.625,0.863,1.115,1.115c2.17,2.438,3.469,7.509,4.46,11.427c0.947,3.744,1.915,7.828,1.951,11.985
	c0.169,0.666-0.351,2.022,0.278,2.229c0,0.464,0,0.929,0,1.394c0.169,0.667-0.351,2.022,0.279,2.229c0,0.465,0,0.929,0,1.394
	c0.172,0.757-0.355,2.212,0.278,2.508c0,0.465,0,0.93,0,1.394c0.166,0.577-0.345,1.831,0.278,1.951
	c0.448,3.454,2.955,4.849,3.624,8.083c0,0.836,0,1.672,0,2.508c-0.585,4.097-3.041,6.928-2.229,10.591
	c0.661,2.987,4.028,4.167,4.179,7.525c0,0.836,0,1.672,0,2.509c0,0.465,0,0.929,0,1.393c-0.509,0.42-0.655,1.202-1.114,1.672
	c-0.583,0.347-1.047,0.811-1.394,1.395c-0.487,0.479-1.148,0.766-1.671,1.114c-0.491,0.326-0.914,0.809-1.395,1.116
	c-0.562,0.356-1.345,0.427-1.951,0.835c-0.238,0.162-0.327,0.675-0.558,0.837c-0.266,0.185-0.619,0.062-0.835,0.278
	c-0.251,0.249-0.531,0.974-0.838,1.394c-1.633,2.249-3.279,5.972-4.737,8.919c-1.857,3.755-3.648,7.266-5.295,10.591
	c-0.489,0.253-0.51,0.977-0.836,1.394c-4.022,7.902-7.555,16.489-12.265,24.248c-0.196,0.323-0.358,0.772-0.557,1.114
	c-0.066,0.115-0.514,0.182-0.558,0.279c-0.263,0.58-0.532,1.342-1.113,1.95c-0.771,0.806-1.771,3.477-3.067,4.181
	c-0.49,0.253-0.863,0.624-1.114,1.115c-0.826,0.939-1.899,1.632-3.624,1.672c-1.115,0-2.23,0-3.345,0c-0.279,0-0.557,0-0.836,0
	c-1.501-1.013-2.802-1.451-3.901-2.787c-1.027-1.247-1.46-2.991-2.23-4.459c-1.561-2.978-3.664-5.404-5.575-7.804
	c-1.229-1.65-2.951-2.809-4.18-4.459c-0.534-0.768-1.184-1.419-1.952-1.952c-1.367-0.955-2.196-2.448-3.344-3.623
	c-0.554-0.714-1.318,0.707-1.672,1.115c-0.083,0.568-0.754,0.547-0.836,1.115c-0.225,0.146-0.453,0.29-0.836,0.278
	c-0.836,0-1.672,0-2.509,0c-1.148-0.152-1.685-0.917-2.23-1.672c-0.251-0.491-0.623-0.863-1.114-1.115
	c-1.81-1.906-3.141-4.292-3.624-7.525c0-0.929,0-1.858,0-2.787c1.411-2.949,3.623-5.362,5.574-8.083
	c0.69-0.961,1.399-2.202,2.23-3.345c1.414-1.945,3.203-4.137,4.738-6.409c0.854-0.633,1.213-1.761,1.951-2.509
	c1.369-2.611,3.268-4.845,5.017-7.246c1.681-2.308,3.063-5.116,5.853-6.411c0.558,0,1.115,0,1.672,0c0.372,0,0.743,0,1.115,0
	c0.65,0,1.301,0,1.951,0c2.884-0.004,5.229,0.532,7.804,0.836c-0.199,0.452,1.313,0.452,1.114,0
	c3.674-0.212,5.721-2.389,8.083-4.459c0.6-0.524,1.278-0.824,1.951-1.394c0.08-0.068,0.203-0.523,0.279-0.557
	c2.624-1.183,4.495-4.706,7.803-5.575c0.465,0,0.93,0,1.395,0c0.278,0,0.557,0,0.835,0c2.522,2.03,2.741,6.365,4.182,9.477
	c1.354-0.556,1.44-2.412,1.951-4.181c0.219-0.756,0.686-1.425,0.835-2.23c0.156-0.835-0.144-1.726,0.279-2.508
	c0.378-0.086,0.232-0.698,0.278-1.114c-0.152-0.405,0.326-1.441-0.278-1.394c-0.103-0.979-0.924-1.925-1.671-2.508
	c-0.19-0.148-0.64-0.106-0.838-0.279c-0.869-0.761-1.643-1.767-2.508-2.508c-5.401-4.63-11.191-9.344-16.723-14.215
	c-0.253-0.491-0.623-0.863-1.114-1.114c0-0.093,0-0.186,0-0.278c-0.658-0.087-0.52-0.968-1.395-0.836
	c-2.061-1.516-3.812-3.3-5.853-5.017c-0.604-0.508-1.355-0.878-1.951-1.394c-2.474-2.138-4.631-5.045-8.083-6.132
	c0.2-0.452-1.314-0.452-1.115,0c-1.142,0.252-2.255,0.532-2.508,1.672c-0.629,0.208-0.109,1.563-0.278,2.23c0,0.464,0,0.929,0,1.394
	c-0.629,0.208-0.109,1.563-0.28,2.229c-0.423,2.363-1.816,3.757-4.18,4.181c-0.836,0-1.672,0-2.509,0
	c-1.887,0.016-3.922-2.483-4.181-3.902c-0.453-2.484,1.111-5.022,2.508-8.083c1.791-3.922,2.897-7.137,5.574-9.476
	c0.675-0.44,1.233-0.997,1.672-1.672c2.162-2.297,4.866-4.052,9.198-4.181c0.489-0.16,1.637,0.336,1.672-0.279
	c3.815-0.552,7.579-1.154,11.707-1.394c0.489-0.16,1.637,0.336,1.671-0.279c0.278,0,0.56,0,0.838,0
	c0.488-0.161,1.637,0.337,1.671-0.279c1.893-0.243,3.674-0.601,5.854-0.557c0.405-0.152,1.44,0.325,1.395-0.279
	c0.278,0,0.557,0,0.835,0C56.856,2.629,58.004,3.127,58.04,2.511z M60.548,5.02c-0.187,0-0.373,0-0.559,0
	c-0.577,0.166-1.832-0.344-1.95,0.279c-0.28,0-0.559,0-0.837,0c-0.489,0.161-1.637-0.337-1.671,0.279
	c-1.817,0.228-3.452,0.637-5.575,0.557c-0.489,0.16-1.637-0.336-1.673,0.279c-0.278,0-0.558,0-0.836,0
	c-0.488,0.16-1.637-0.337-1.673,0.278c-0.278,0-0.557,0-0.835,0c-0.491,0.16-1.639-0.336-1.673,0.279c-0.186,0-0.371,0-0.558,0
	c-0.49,0.16-1.637-0.337-1.672,0.279c-0.186,0-0.372,0-0.558,0c-0.49,0.16-1.638-0.337-1.672,0.279c-0.186,0-0.372,0-0.557,0
	c-0.49,0.16-1.638-0.337-1.673,0.278C33.49,8.632,30.095,8.22,27.38,9.201c-1.637,0.591-2.47,1.985-3.902,2.508
	c-0.768,0.533-1.417,1.183-1.951,1.951c-0.087,0.504-0.897,1.469-1.115,1.951c-0.041,0.09-0.489,0.175-0.558,0.279
	c-0.085,0.128,0.064,0.415,0,0.557c-0.043,0.097-0.491,0.164-0.557,0.279c-0.58,1.003-1.05,2.526-1.672,3.902
	c-0.546,1.207-1.122,2.692-1.672,3.902c-0.719,1.58-1.727,2.827-1.394,4.181c0.412,1.672,3.079,2.415,4.459,1.393
	c0.786-0.582,0.886-1.45,1.115-3.065c0.636-0.386,0.104-1.94,0.279-2.788c-0.177-3.335,1.403-4.914,4.181-5.295
	c1.115,0,2.229,0,3.345,0c2.022,0.104,2.486,1.035,3.623,1.951c0.334,0.27,0.813,0.32,1.114,0.558
	c0.408,0.322,0.503,0.829,0.836,1.115c0.321,0.276,0.792,0.302,1.115,0.558c0.406,0.322,0.501,0.832,0.836,1.115
	c0.29,0.245,0.843,0.342,1.115,0.558c0.427,0.337,0.503,0.829,0.836,1.115c0.339,0.292,0.739,0.261,1.115,0.558
	c0.36,0.285,0.509,0.839,0.836,1.115c0.325,0.275,0.786,0.298,1.115,0.558c0.332,0.262,0.515,0.836,0.836,1.115
	c1.339,1.158,2.79,2.03,3.902,3.345c0.451,0.386,0.882,0.79,1.395,1.114c6.88,5.94,13.957,11.684,20.623,17.837
	c0.44,0.675,0.997,1.233,1.673,1.673c0.49,0.067,0.635,0.479,0.557,1.115c0,1.765,0,3.53,0,5.296
	c0.095,2.16-0.737,4.106-1.393,5.853c-0.627,1.667-0.943,3.893-3.067,4.18c-0.557,0-1.113,0-1.67,0
	c-3.46-1.185-3.067-6.223-4.738-9.197c-1.533,0.097-2.641,1.401-3.624,2.229c-1.689,1.422-3.242,2.664-4.738,3.902
	c-0.234,0.195-0.322,0.634-0.557,0.836c-0.289,0.248-0.792,0.281-1.116,0.557c-1.102,0.941-2.073,2.067-3.344,2.788
	c-1.222,0.693-2.768,1.337-4.459,1.393c-1.301,0-2.602,0-3.902,0c-0.279,0-0.558,0-0.836,0c0.047-0.604-0.989-0.126-1.394-0.278
	c-0.279,0-0.558,0-0.836,0c0.047-0.605-0.989-0.126-1.394-0.279c-0.372,0-0.743,0-1.115,0c-0.035-0.615-1.182-0.118-1.672-0.278
	c-1.196,0.336-2.58,0.02-3.623,0.558c-0.519,0.268-1.161,1.43-1.394,1.672c-0.213,0.223-0.085,0.267-0.279,0.557
	c-0.519,0.779-1.479,1.591-1.951,2.23c-0.43,0.582-0.789,1.221-1.115,1.673c-1.673,2.321-3.151,4.549-4.459,6.409
	c-0.581,0.535-1.162,1.069-1.394,1.951c-1.06,1.201-1.864,2.784-3.066,4.46c-0.45,0.627-1.169,1.264-1.671,1.951
	c-0.833,1.138-1.541,2.382-2.23,3.344c-0.886,1.234-1.654,2.175-2.509,3.345c-1.001,1.371-2.941,3.602-3.066,4.738
	c-0.113,1.045,0.626,2.463,1.115,3.623c0.446,1.06,1.017,2.188,1.672,3.066c0.49,1.182,1.326,2.019,2.508,2.508
	c1.078,0.242,0.991-0.68,1.672-0.835c0.491-0.253,0.863-0.624,1.115-1.116c0.253-0.582,0.822-0.85,1.672-0.835
	c0.372,0,0.743,0,1.115,0c2.655,1.062,3.619,3.813,5.574,5.573c0.48,0.913,1.47,1.317,1.951,2.229
	c1.185,1.418,2.485,2.718,3.902,3.902c1.771,1.522,3.061,3.494,4.459,5.854c1.263,2.129,2.459,5.787,4.459,6.689
	c0.104,0.046,0.151,0.498,0.278,0.557c0.533,0.246,1.46,0.095,1.951,0.557c-0.125,0.456,1.52,0.456,1.394,0
	c0.893-0.187,1.565-0.596,1.951-0.835c1.032-0.643,1.47-0.931,2.23-1.951c0.944-1.268,1.797-2.518,2.508-3.623
	c0.085-0.132-0.065-0.413,0-0.559c0.043-0.092,0.489-0.172,0.558-0.278c0.19-0.296,0.376-0.819,0.557-1.114
	c4.704-7.674,9.003-17.584,12.822-24.806c0.57-0.45,0.701-1.341,1.113-1.951c2.723-5.551,5.689-12.191,8.641-17.559
	c0.225-0.411,0.581-0.697,0.836-1.114c0.227-0.373,0.316-1.081,0.557-1.395c0.511-0.662,1.655-1.575,2.509-2.229
	c2.319-1.774,5.974-3.061,6.688-5.017c1.718-4.689-4.209-5.977-4.181-10.591c0-0.836,0-1.672,0-2.508
	c0.004-2.01,0.625-3.514,1.116-5.017c0.513-1.572,1.564-3.147,1.395-4.739c-0.148-1.38-1.756-2.93-2.511-4.459
	c-0.871-1.77-1.557-3.229-1.393-5.574c-0.17-0.667,0.349-2.022-0.278-2.23c0-0.464,0-0.929,0-1.394c0-0.372,0-0.743,0-1.115
	c-0.152-0.405,0.324-1.44-0.278-1.394c0-0.463,0-0.928,0-1.393c-0.17-0.666,0.349-2.022-0.28-2.229c0-0.465,0-0.93,0-1.394
	c-0.158-0.49,0.338-1.638-0.278-1.672c-0.878-7.67-2.591-14.503-5.296-20.346c-0.122-0.806-0.587-1.271-1.392-1.394
	c-0.281,0.001-0.333-0.226-0.56-0.278c-0.391-0.445-0.959-0.712-1.671-0.836c-0.186,0-0.372,0-0.559,0
	C62.461,4.561,60.584,4.561,60.548,5.02z"/>
<path fill-rule="evenodd" clip-rule="evenodd" fill="#D4D4D4" d="M24.594,18.955c0.481-0.462,2.864-0.462,3.345,0
	C26.823,18.955,25.708,18.955,24.594,18.955z"/>
<path fill-rule="evenodd" clip-rule="evenodd" fill="#A6A6A6" d="M59.154,2.511c0.846-0.463,3.614-0.463,4.46,0
	C62.126,2.511,60.64,2.511,59.154,2.511z"/>
<path fill-rule="evenodd" clip-rule="evenodd" fill="#717171" d="M63.056,5.02c0.712,0.124,1.28,0.391,1.671,0.836
	c-0.092,0-0.186,0-0.278,0c-0.272,1.119-0.495,2.824-1.671,2.23C61.528,7.394,63.275,6.374,63.056,5.02z"/>
<path fill-rule="evenodd" clip-rule="evenodd" fill="#A6A6A6" d="M69.465,54.352c0.465,1.122,0.465,4.173,0,5.296
	C69.465,57.882,69.465,56.117,69.465,54.352z"/>
<path fill-rule="evenodd" clip-rule="evenodd" fill="#717171" d="M61.663,102.569c1.033,0.173,1.632,0.783,2.508,1.115
	c-0.145,0.411-0.413,0.702-0.557,1.114c-1.322,0.115-1.465-0.951-2.787-0.836C61.153,103.545,61.173,102.822,61.663,102.569z"/>
<path fill-rule="evenodd" clip-rule="evenodd" fill="#A6A6A6" d="M0.346,102.847c0,0.929,0,1.858,0,2.787
	C-0.115,105.333-0.115,103.148,0.346,102.847z"/>
<path fill-rule="evenodd" clip-rule="evenodd" fill="#A6A6A6" d="M7.313,115.947c0.836,0,1.672,0,2.509,0
	C9.611,116.408,7.525,116.408,7.313,115.947z"/>
<path fill-rule="evenodd" clip-rule="evenodd" fill="#A6A6A6" d="M35.185,138.522c1.115,0,2.23,0,3.345,0
	C38.048,138.985,35.666,138.985,35.185,138.522z"/>
<path fill-rule="evenodd" clip-rule="evenodd" fill="#717171" d="M15.954,33.169c0.836,0,1.672,0,2.509,0
	C18.25,33.63,16.165,33.63,15.954,33.169z"/>
<path fill-rule="evenodd" clip-rule="evenodd" fill="#717171" d="M81.45,70.517c0.461,0.211,0.461,2.297,0,2.509
	C81.45,72.189,81.45,71.353,81.45,70.517z"/>
</svg>
