<?xml version="1.0" encoding="utf-8"?>
<!-- Generator: Adobe Illustrator 15.0.0, SVG Export Plug-In  -->
<!DOCTYPE svg PUBLIC "-//W3C//DTD SVG 1.1//EN" "http://www.w3.org/Graphics/SVG/1.1/DTD/svg11.dtd" [
	<!ENTITY ns_flows "http://ns.adobe.com/Flows/1.0/">
]>
<svg version="1.1"
	 xmlns="http://www.w3.org/2000/svg" xmlns:xlink="http://www.w3.org/1999/xlink" xmlns:a="http://ns.adobe.com/AdobeSVGViewerExtensions/3.0/"
	 x="0px" y="0px" width="142px" height="142px" viewBox="-30.02 -1.455 142 142" enable-background="new -30.02 -1.455 142 142"
	 xml:space="preserve">
<defs>
</defs>
<path fill-rule="evenodd" clip-rule="evenodd" fill="#C0C0C0" d="M60.84,4.242c0.036-0.459,1.913-0.459,1.951,0
	C62.14,4.242,61.49,4.242,60.84,4.242z"/>
<path fill-rule="evenodd" clip-rule="evenodd" fill="#C0C0C0" d="M35.756,4.521c0.052-0.413,0.673-0.255,1.115-0.279
	C36.818,4.655,36.197,4.498,35.756,4.521z"/>
<path fill-rule="evenodd" clip-rule="evenodd" fill="#C0C0C0" d="M25.444,20.686c-0.046-0.457,1.717-0.457,1.672,0
	C26.558,20.686,26.001,20.686,25.444,20.686z"/>
<path fill-rule="evenodd" clip-rule="evenodd" fill="#797979" d="M75.333,22.637c0.186,0,0.37,0,0.557,0c0.372,0,0.743,0,1.116,0
	c0,0.093,0,0.186,0,0.279c0.438,1.091-0.726,0.577-0.838,1.115c-0.187,0-0.371,0-0.557,0c-0.373,0-0.743,0-1.116,0
	c-0.063-0.216-0.006-0.55-0.278-0.558c0-0.186,0-0.372,0-0.557C74.66,22.893,75.281,23.05,75.333,22.637z"/>
<path fill-rule="evenodd" clip-rule="evenodd" fill="#C0C0C0" d="M74.217,23.473c0.272,0.008,0.216,0.342,0.278,0.558
	c0,0.093,0,0.186,0,0.278c0,0.187,0,0.372,0,0.558C73.892,24.914,74.37,23.878,74.217,23.473z"/>
<path fill-rule="evenodd" clip-rule="evenodd" fill="#797979" d="M20.148,24.309c0.093,0,0.186,0,0.279,0
	c-0.153,0.405,0.326,1.441-0.279,1.394C20.148,25.239,20.148,24.774,20.148,24.309z"/>
<path fill-rule="evenodd" clip-rule="evenodd" fill="#C0C0C0" d="M22.936,25.424c0,0.372,0,0.743,0,1.115c-0.094,0-0.187,0-0.28,0
	C22.704,26.123,22.557,25.511,22.936,25.424z"/>
<path fill-rule="evenodd" clip-rule="evenodd" fill="#C0C0C0" d="M14.574,26.539c0,0.465,0,0.929,0,1.394
	C14.119,28.059,14.119,26.414,14.574,26.539z"/>
<path fill-rule="evenodd" clip-rule="evenodd" fill="#797979" d="M72.266,30.441c0.378,0.086,0.232,0.697,0.28,1.115
	c-0.095,0-0.187,0-0.28,0C72.266,31.185,72.266,30.813,72.266,30.441z"/>
<path fill-rule="evenodd" clip-rule="evenodd" fill="#797979" d="M75.054,32.392c0.093,0,0.185,0,0.279,0c0,0.372,0,0.743,0,1.115
	C74.92,33.455,75.077,32.834,75.054,32.392z"/>
<path fill-rule="evenodd" clip-rule="evenodd" fill="#797979" d="M75.333,36.015c0.092,0,0.186,0,0.278,0c0,0.372,0,0.743,0,1.115
	c-0.093,0-0.187,0-0.278,0C75.333,36.758,75.333,36.387,75.333,36.015z"/>
<path fill-rule="evenodd" clip-rule="evenodd" fill="#C0C0C0" d="M75.333,37.13c0.092,0,0.186,0,0.278,0c0,0.371,0,0.744,0,1.115
	C75.199,38.193,75.355,37.572,75.333,37.13z"/>
<path fill-rule="evenodd" clip-rule="evenodd" fill="#191919" d="M57.495,56.918c-0.124-0.455,1.521-0.455,1.395,0
	C58.424,56.918,57.959,56.918,57.495,56.918z"/>
<path fill-rule="evenodd" clip-rule="evenodd" fill="#191919" d="M69.757,57.476c-0.152,0.405,0.327,1.44-0.278,1.394
	C69.633,58.465,69.155,57.429,69.757,57.476z"/>
<path fill-rule="evenodd" clip-rule="evenodd" fill="#191919" d="M66.971,57.755c-0.152,0.405,0.326,1.44-0.279,1.394
	C66.844,58.744,66.368,57.708,66.971,57.755z"/>
<path fill-rule="evenodd" clip-rule="evenodd" fill="#191919" d="M77.285,59.427c0,0.929,0,1.858,0,2.787
	C76.822,61.914,76.822,59.728,77.285,59.427z"/>
<path fill-rule="evenodd" clip-rule="evenodd" fill="#191919" d="M74.496,59.706c0,0.836,0,1.672,0,2.508
	C74.037,62.002,74.037,59.917,74.496,59.706z"/>
<path fill-rule="evenodd" clip-rule="evenodd" fill="#191919" d="M27.116,68.067c0.571-0.462,3.052-0.462,3.624,0
	C29.531,68.067,28.324,68.067,27.116,68.067z"/>
<path fill-rule="evenodd" clip-rule="evenodd" fill="#191919" d="M31.854,68.067c0.441,0.024,1.063-0.134,1.116,0.279
	C32.552,68.298,31.94,68.445,31.854,68.067z"/>
<path fill-rule="evenodd" clip-rule="evenodd" fill="#191919" d="M34.083,68.346c0.441,0.023,1.063-0.134,1.115,0.279
	C34.782,68.577,34.169,68.724,34.083,68.346z"/>
<path fill-rule="evenodd" clip-rule="evenodd" fill="#191919" d="M36.592,68.625c0.441,0.023,1.063-0.134,1.115,0.279
	C37.29,68.855,36.678,69.003,36.592,68.625z"/>
<path fill-rule="evenodd" clip-rule="evenodd" fill="#191919" d="M81.463,69.739c0.461,0.211,0.461,2.297,0,2.509
	C81.463,71.412,81.463,70.576,81.463,69.739z"/>
<path fill-rule="evenodd" clip-rule="evenodd" fill="#191919" d="M27.116,70.854c0.035-0.615,1.182-0.118,1.672-0.278
	C28.753,71.191,27.605,70.694,27.116,70.854z"/>
<path fill-rule="evenodd" clip-rule="evenodd" fill="#191919" d="M29.067,70.576c0.578,0.165,1.831-0.344,1.951,0.278
	C30.44,70.689,29.187,71.199,29.067,70.576z"/>
<path fill-rule="evenodd" clip-rule="evenodd" fill="#191919" d="M32.133,70.854c0.417,0.048,1.028-0.1,1.115,0.279
	C32.83,71.085,32.219,71.233,32.133,70.854z"/>
<path fill-rule="evenodd" clip-rule="evenodd" fill="#191919" d="M34.362,71.133c0.417,0.048,1.029-0.1,1.115,0.278
	C35.06,71.365,34.449,71.511,34.362,71.133z"/>
<path fill-rule="evenodd" clip-rule="evenodd" fill="#191919" d="M36.592,71.412c1.394,0,2.787,0,4.181,0
	C40.018,71.875,37.347,71.875,36.592,71.412z"/>
<path fill-rule="evenodd" clip-rule="evenodd" fill="#191919" d="M12.623,109.875c-0.199-0.453,1.314-0.453,1.115,0
	C13.366,109.875,12.995,109.875,12.623,109.875z"/>
<path fill-rule="evenodd" clip-rule="evenodd" fill="#191919" d="M35.198,137.745c0.417,0.048,1.029-0.1,1.115,0.279
	C35.872,138,35.25,138.159,35.198,137.745z"/>
<path fill-rule="evenodd" clip-rule="evenodd" fill="#191919" d="M37.707,138.024c0.052-0.413,0.674-0.255,1.115-0.279
	C38.735,138.124,38.124,137.976,37.707,138.024z"/>
<path fill-rule="evenodd" clip-rule="evenodd" fill="#C0C0C0" d="M19.869,10.932c0.346-0.583,0.811-1.048,1.394-1.394
	C20.917,10.121,20.452,10.585,19.869,10.932z"/>
<path fill-rule="evenodd" clip-rule="evenodd" fill="#797979" d="M12.901,30.441c0.491,0.251,0.863,0.623,1.115,1.115
	C13.525,31.304,13.153,30.933,12.901,30.441z"/>
<path fill-rule="evenodd" clip-rule="evenodd" fill="#191919" d="M20.706,31.556c0.251-0.492,0.623-0.863,1.115-1.115
	C21.568,30.933,21.197,31.304,20.706,31.556z"/>
<path fill-rule="evenodd" clip-rule="evenodd" fill="#797979" d="M22.656,28.211c0.087-0.651,0.546-1.151,0-1.672
	c0.093,0,0.186,0,0.28,0c0.007,0.271,0.34,0.216,0.557,0.279c-0.047,0.604,0.988,0.126,1.394,0.279c0.186,0,0.372,0,0.558,0
	c0,0.464,0,0.928,0,1.393c-0.279,0-0.558,0-0.836,0c0.047-0.604-0.988-0.126-1.394-0.279C23.028,28.211,22.842,28.211,22.656,28.211
	z"/>
<path fill-rule="evenodd" clip-rule="evenodd" fill="#323232" d="M59.167,48.836c0.004-0.554,0.762-0.354,0.557-1.115
	c0.272,0.008,0.217,0.341,0.279,0.557C59.638,48.377,59.566,48.77,59.167,48.836z"/>
<path fill-rule="evenodd" clip-rule="evenodd" fill="#797979" d="M58.611,50.508c-0.095,0-0.187,0-0.278,0
	c-0.493-0.524,0.347-1.29,0.835-1.672c0.398-0.067,0.471-0.459,0.836-0.558c0.477-0.012,0.723,0.208,0.837,0.558
	c-0.082,0.568-0.755,0.546-0.837,1.114c-0.053,0.226-0.279,0.278-0.279,0.558C59.312,50.832,59.023,50.832,58.611,50.508z"/>
<path fill-rule="evenodd" clip-rule="evenodd" fill="#191919" d="M58.611,50.508c0.412,0.323,0.701,0.323,1.113,0
	c-0.078,0.646-0.743,0.641-1.113,0.278C58.611,50.694,58.611,50.602,58.611,50.508z"/>
<path fill-rule="evenodd" clip-rule="evenodd" fill="#323232" d="M60.003,49.951c0.082-0.568,0.755-0.546,0.837-1.114
	c0.236-0.052,0.263,0.109,0.278,0.278C60.55,49.197,60.572,49.869,60.003,49.951z"/>
<path fill-rule="evenodd" clip-rule="evenodd" fill="#191919" d="M54.429,58.87c0.253-0.492,0.623-0.863,1.116-1.115
	C55.292,58.247,54.92,58.618,54.429,58.87z"/>
<path fill-rule="evenodd" clip-rule="evenodd" fill="#191919" d="M52.478,60.542c0.253-0.492,0.623-0.863,1.116-1.115
	C53.341,59.919,52.969,60.291,52.478,60.542z"/>
<path fill-rule="evenodd" clip-rule="evenodd" fill="#191919" d="M50.805,61.936c0.253-0.491,0.625-0.863,1.116-1.115
	C51.668,61.312,51.298,61.684,50.805,61.936z"/>
<path fill-rule="evenodd" clip-rule="evenodd" fill="#191919" d="M47.183,65.001c0.253-0.491,0.623-0.863,1.114-1.115
	C48.046,64.378,47.674,64.75,47.183,65.001z"/>
<path fill-rule="evenodd" clip-rule="evenodd" fill="#191919" d="M22.656,70.576c0.44-0.675,0.998-1.232,1.672-1.672
	C23.889,69.579,23.332,70.136,22.656,70.576z"/>
<path fill-rule="evenodd" clip-rule="evenodd" fill="#191919" d="M3.425,111.826c0.767,0.531,1.418,1.183,1.951,1.95
	C4.609,113.243,3.958,112.593,3.425,111.826z"/>
<path fill-rule="evenodd" clip-rule="evenodd" fill="#191919" d="M10.951,114.612c0.48-0.913,1.47-1.315,1.951-2.229
	c0.583,0.346,1.048,0.811,1.394,1.394c-0.492-0.252-0.863-0.623-1.115-1.115C12.268,113.142,11.863,114.131,10.951,114.612z"/>
<path fill-rule="evenodd" clip-rule="evenodd" fill="#191919" d="M14.852,114.612c0.492,0.252,0.863,0.623,1.115,1.115
	C15.476,115.476,15.104,115.103,14.852,114.612z"/>
<path fill-rule="evenodd" clip-rule="evenodd" fill="#191919" d="M16.804,116.842c2.345,2.112,4.575,4.342,6.688,6.688
	C21.146,121.417,18.917,119.188,16.804,116.842z"/>
<path fill-rule="evenodd" clip-rule="evenodd" fill="#191919" d="M23.771,124.088c0.491,0.251,0.863,0.623,1.114,1.115
	C24.395,124.951,24.023,124.58,23.771,124.088z"/>
<path fill-rule="evenodd" clip-rule="evenodd" fill="#191919" d="M79.236,76.428c0.25-0.49,0.623-0.862,1.113-1.115
	C80.097,75.805,79.726,76.177,79.236,76.428z"/>
<path fill-rule="evenodd" clip-rule="evenodd" fill="#797979" d="M67.25,3.406c0.492,0.252,0.863,0.624,1.115,1.115
	C67.875,4.269,67.501,3.897,67.25,3.406z"/>
<path fill-rule="evenodd" clip-rule="evenodd" fill="#C0C0C0" d="M77.563,54.689c0.345-0.583,0.81-1.048,1.393-1.394
	c0,0.093,0,0.186,0,0.279C78.308,53.763,78.209,54.5,77.563,54.689z"/>
<path fill-rule="evenodd" clip-rule="evenodd" fill="#C0C0C0" d="M20.427,31.556c0.346-0.583,0.811-1.048,1.394-1.394
	c0,0.093,0,0.186,0,0.279c-0.492,0.251-0.863,0.623-1.115,1.115C20.612,31.556,20.52,31.556,20.427,31.556z"/>
<path fill-rule="evenodd" clip-rule="evenodd" fill="#C0C0C0" d="M21.263,13.161c0.719-0.953,1.556-1.789,2.509-2.508
	C23.052,11.605,22.216,12.442,21.263,13.161z"/>
<path fill-rule="evenodd" clip-rule="evenodd" fill="#797979" d="M62.511,44.934c0.613-0.203,0.928-1.308,1.673-0.557
	c0.092,0,0.187,0,0.278,0c0.249,1.559-2.17,1.588-1.113,3.065c-0.676-0.439-1.234-0.997-1.673-1.672
	C62.203,45.74,61.871,44.849,62.511,44.934z"/>
<path fill-rule="evenodd" clip-rule="evenodd" fill="#323232" d="M62.511,44.934c0.246-0.573,1.316-1.743,1.673-0.557
	C63.439,43.626,63.125,44.731,62.511,44.934z"/>
<path fill-rule="evenodd" clip-rule="evenodd" fill="#797979" d="M34.919,7.309c0.745-0.556,2.458-0.145,3.345-0.558
	c-0.062,0.217-0.233,0.324-0.558,0.278c-0.452-0.199-0.452,1.314,0,1.115c0,0.279,0,0.558,0,0.836
	c0.153,0.405-0.325,1.441,0.279,1.394c0,0.186,0,0.372,0,0.558c-0.441,0.023-1.063-0.134-1.115,0.278c-0.372,0-0.743,0-1.115,0
	c0-0.558,0-1.115,0-1.672c-0.153-0.405,0.326-1.441-0.279-1.394C35.45,7.707,35.514,7.178,34.919,7.309z"/>
<path fill-rule="evenodd" clip-rule="evenodd" fill="#323232" d="M76.168,24.031c0.112-0.538,1.276-0.024,0.838-1.115
	c0.376,0.086,0.229,0.698,0.278,1.115C76.912,24.031,76.542,24.031,76.168,24.031z"/>
<path fill-rule="evenodd" clip-rule="evenodd" fill="#323232" d="M77.563,54.689c0.646-0.189,0.745-0.927,1.393-1.115
	c-0.371,2.138-1.402,3.614-1.671,5.853c-0.463,0.3-0.463,2.486,0,2.787c0.749,3.152,3.885,3.919,4.179,7.525
	c0,0.836,0,1.672,0,2.509c0,0.465,0,0.929,0,1.393c-0.509,0.42-0.655,1.202-1.114,1.672c-0.49,0.253-0.863,0.625-1.113,1.115
	c-1.531,1.274-3.241,2.154-5.019,3.345c-1.185,0.794-1.863,1.385-2.787,2.787c-2.231,3.39-4.141,8.307-6.13,12.264
	c-4.744,9.434-9.178,18.637-14.215,28.149c-1.452,2.739-3.231,5.634-5.019,8.361c-0.33,0.506-0.775,0.912-1.113,1.394
	c-0.318,0.455-0.52,1.235-0.836,1.673c-0.172,0.235-0.675,0.324-0.837,0.557c-0.184,0.264-0.058,0.627-0.278,0.837
	c-0.188,0.177-0.637,0.126-0.836,0.278c-0.753,0.576-1.679,1.712-3.345,1.672c-0.441,0.024-1.063-0.134-1.115,0.279
	c-0.464,0-0.929,0-1.394,0c-0.086-0.379-0.698-0.231-1.115-0.279c-0.744-0.221-1.579-0.216-2.229-0.557
	c-0.122-0.063-0.179-0.514-0.28-0.558c-2.354-1.062-3.111-3.562-4.459-6.132c-1.062-2.024-2.522-3.578-3.345-5.295
	c-0.251-0.492-0.623-0.864-1.114-1.115c-0.053-0.226-0.28-0.278-0.279-0.558c-2.113-2.347-4.343-4.576-6.688-6.688
	c-0.083-0.569-0.754-0.547-0.836-1.115c-0.252-0.492-0.623-0.863-1.115-1.115c-0.098-0.366-0.49-0.438-0.557-0.836
	c-0.346-0.583-0.811-1.048-1.394-1.394c-0.48,0.914-1.47,1.316-1.951,2.229c-1.322,1.512-5.008,0.869-5.574-0.836
	c-0.533-0.768-1.184-1.419-1.951-1.95c-1.654-2.601-3.877-5.862-3.345-9.198c0.082-0.512,0.234-0.896,0.558-1.393
	c0.281-0.436,0.916-1.188,1.393-1.952c0.184-0.293,0.395-0.885,0.558-1.114c0.415-0.585,1.236-1.085,1.672-1.673
	c0.239-0.321,0.376-0.861,0.558-1.115c0.262-0.364,0.639-0.561,0.836-0.835c0.188-0.264,0.07-0.612,0.278-0.837
	c1.743-1.871,3.648-4.96,5.295-7.246c4.272-5.929,7.992-11.25,11.427-15.887c0.676-0.439,1.233-0.997,1.672-1.672
	c0.417-0.326,1.141-0.346,1.394-0.836c0.464,0,0.929,0,1.394,0c1.208,0,2.416,0,3.624,0c0.371,0,0.743,0,1.114,0
	c0.086,0.378,0.698,0.231,1.116,0.279c0.371,0,0.743,0,1.114,0c0.086,0.378,0.698,0.231,1.115,0.279c0.464,0,0.929,0,1.394,0
	c0.086,0.378,0.698,0.231,1.115,0.279c4.664,0.204,6.935-1.985,9.477-3.902c0.491-0.252,0.863-0.624,1.114-1.115
	c0.879-0.609,1.506-1.468,2.508-1.951c0.493-0.252,0.863-0.624,1.116-1.115c0.225-0.053,0.278-0.28,0.557-0.279
	c0.491-0.251,0.863-0.623,1.116-1.115c0.364-0.099,0.437-0.491,0.835-0.557c0.491-0.252,0.863-0.624,1.116-1.115
	c0.641-0.286,0.897-0.959,1.949-0.836c0.465,0,0.93,0,1.395,0c0.278,0,0.557,0,0.835,0c2.635,2.012,2.613,6.679,4.46,9.477
	c1.358-1.894,2.035-4.469,2.508-7.247c0.605,0.046,0.127-0.989,0.279-1.394c-0.12-1.272,0.282-3.069-0.279-3.902
	c1.09,0.583,2.48,0.864,3.625,1.393c-1.101-0.17-0.329,1.53-0.56,2.23c-0.603-0.047-0.124,0.989-0.278,1.394
	c-0.014,2.137-0.625,4.141-1.393,6.131c-0.731,1.894-1.486,3.949-3.346,4.181c-4.271,0.533-4.455-5.488-5.852-9.198
	c-0.054-0.226-0.28-0.277-0.278-0.557c-0.396-0.024-0.79-0.046-0.838,0.279c-0.092,0-0.184,0-0.278,0
	c-0.491,0.252-0.861,0.624-1.114,1.115c-0.879,0.608-1.504,1.467-2.508,1.951c-0.493,0.252-0.863,0.624-1.116,1.115
	c-0.877,0.608-1.504,1.467-2.508,1.951c-0.491,0.252-0.863,0.624-1.114,1.115c-0.227,0.053-0.278,0.28-0.559,0.279
	c-0.491,0.252-0.861,0.624-1.114,1.115c-1.791,1.46-3.6,2.904-6.688,3.066c-1.394,0-2.788,0-4.181,0c-0.372,0-0.743,0-1.115,0
	c-0.086-0.378-0.698-0.23-1.115-0.278c-0.371,0-0.743,0-1.114,0c-0.086-0.379-0.698-0.231-1.115-0.279c-0.372,0-0.744,0-1.115,0
	c-0.12-0.623-1.373-0.113-1.951-0.278c-0.093,0-0.187,0-0.279,0c-0.49,0.16-1.637-0.337-1.672,0.278
	c-1.964,0.261-2.675,2.348-3.624,3.624c-1.015,1.365-2.125,2.573-3.065,3.901c-5.711,8.058-11.682,16.563-17.559,24.806
	c0.339,2.728,1.38,4.752,2.509,6.689c0.251,0.49,0.623,0.862,1.115,1.113c0.61,0.784,1.112,1.676,2.508,1.673
	c0.953-0.719,1.79-1.556,2.509-2.508c0.248-0.217,0.629-0.3,1.114-0.278c0.372,0,0.743,0,1.115,0
	c0.45-0.079,0.479,0.263,0.836,0.278c0.44,0.675,0.997,1.232,1.672,1.673c0.053,0.226,0.279,0.277,0.278,0.557
	c0.346,0.583,0.811,1.048,1.394,1.394c0.098,0.365,0.49,0.438,0.558,0.836c2.113,2.347,4.343,4.576,6.688,6.689
	c0.099,0.366,0.491,0.438,0.558,0.836c0.251,0.491,0.624,0.863,1.115,1.114c0.953,1.595,2.472,3.191,3.624,5.296
	c1.125,2.057,1.602,4.448,3.065,5.575c0.237,0.183,0.362,0.09,0.558,0.278c0.664,0.635,3.075,0.992,4.459,0.557
	c2.234-0.703,3.693-3.107,5.294-5.574c4.079-6.279,8.178-14.439,11.428-20.903c4.312-8.575,7.963-16.818,12.543-25.362
	c0.604-1.124,1.196-2.445,1.949-3.345c2.146-2.56,5.319-3.63,7.527-5.295c0.49-0.252,0.861-0.624,1.113-1.116
	c2.076-5.259-3.718-6.406-3.902-11.147c0-0.836,0-1.672,0-2.508c-0.08-1.66,0.398-2.762,0.838-3.902
	c0.236,0.052,0.262-0.108,0.278-0.278C76.467,55.453,76.866,54.921,77.563,54.689z"/>
<path fill-rule="evenodd" clip-rule="evenodd" fill="#191919" d="M57.773,59.706c0.048-0.325,0.441-0.303,0.838-0.279
	c-0.002,0.28,0.225,0.332,0.278,0.557C58.641,59.768,58.26,59.685,57.773,59.706z"/>
<path fill-rule="evenodd" clip-rule="evenodd" fill="#191919" d="M56.38,60.821c0.253-0.491,0.623-0.863,1.114-1.115
	C57.245,60.197,56.872,60.569,56.38,60.821z"/>
<path fill-rule="evenodd" clip-rule="evenodd" fill="#191919" d="M52.756,63.887c0.253-0.492,0.623-0.863,1.116-1.115
	C53.621,63.263,53.248,63.635,52.756,63.887z"/>
<path fill-rule="evenodd" clip-rule="evenodd" fill="#191919" d="M49.134,66.952c0.251-0.491,0.623-0.863,1.114-1.115
	C49.998,66.329,49.625,66.701,49.134,66.952z"/>
<path fill-rule="evenodd" clip-rule="evenodd" fill="#191919" d="M47.461,68.346c0.253-0.491,0.623-0.863,1.114-1.115
	C48.325,67.723,47.953,68.094,47.461,68.346z"/>
<path fill-rule="evenodd" clip-rule="evenodd" fill="#191919" d="M5.376,109.875c0.492,0.251,0.863,0.623,1.115,1.113
	C6,110.737,5.628,110.365,5.376,109.875z"/>
<path fill-rule="evenodd" clip-rule="evenodd" fill="#191919" d="M9,112.661c0.719-0.952,1.556-1.789,2.509-2.508
	C10.789,111.105,9.953,111.942,9,112.661z"/>
<path fill-rule="evenodd" clip-rule="evenodd" fill="#191919" d="M14.574,110.153c0.675,0.439,1.232,0.996,1.672,1.673
	C15.571,111.385,15.014,110.828,14.574,110.153z"/>
<path fill-rule="evenodd" clip-rule="evenodd" fill="#191919" d="M16.524,112.382c0.583,0.346,1.047,0.811,1.394,1.394
	C17.335,113.43,16.871,112.965,16.524,112.382z"/>
<path fill-rule="evenodd" clip-rule="evenodd" fill="#191919" d="M18.476,114.612c2.345,2.114,4.575,4.343,6.688,6.689
	C22.819,119.188,20.589,116.958,18.476,114.612z"/>
<path fill-rule="evenodd" clip-rule="evenodd" fill="#191919" d="M25.722,122.137c0.491,0.252,0.863,0.623,1.115,1.114
	C26.346,123,25.974,122.628,25.722,122.137z"/>
<path fill-rule="evenodd" clip-rule="evenodd" fill="#191919" d="M77.285,74.478c0.25-0.492,0.623-0.863,1.113-1.116
	C78.146,73.854,77.775,74.226,77.285,74.478z"/>
<path fill-rule="evenodd" clip-rule="evenodd" fill="#323232" d="M35.198,0.34c0.784-0.855,2.203,0.011,1.672,1.394
	C36.422,1.161,36.777-0.217,35.198,0.34z"/>
<path fill-rule="evenodd" clip-rule="evenodd" fill="#797979" d="M58.889,1.734c0.206-0.628,1.563-0.109,2.229-0.278
	c0,0.092,0,0.185,0,0.278C60.375,1.734,59.632,1.734,58.889,1.734z"/>
<path fill-rule="evenodd" clip-rule="evenodd" fill="#C0C0C0" d="M61.119,1.456c0.756,0.172,2.212-0.354,2.509,0.278
	c-0.836,0-1.673,0-2.509,0C61.119,1.641,61.119,1.548,61.119,1.456z"/>
<path fill-rule="evenodd" clip-rule="evenodd" fill="#323232" d="M34.641,1.734c0.378,0.086,0.231,0.698,0.278,1.115
	C34.541,2.763,34.688,2.151,34.641,1.734z"/>
<path fill-rule="evenodd" clip-rule="evenodd" fill="#323232" d="M36.871,2.57c0.378,0.086,0.231,0.698,0.278,1.114
	C36.771,3.599,36.918,2.987,36.871,2.57z"/>
<path fill-rule="evenodd" clip-rule="evenodd" fill="#797979" d="M35.756,4.521c-0.279,0-0.558,0-0.836,0c0-0.557,0-1.115,0-1.672
	c-0.047-0.417,0.1-1.029-0.278-1.115c-0.024-0.441,0.134-1.063-0.279-1.115c0.046-0.327,0.508-0.235,0.836-0.279
	c1.579-0.557,1.224,0.82,1.672,1.394c0,0.279,0,0.558,0,0.836c0.048,0.417-0.1,1.028,0.278,1.114c0,0.093,0,0.186,0,0.279
	c0.052,0.237-0.108,0.263-0.278,0.278C36.429,4.266,35.808,4.108,35.756,4.521z"/>
<path fill-rule="evenodd" clip-rule="evenodd" fill="#191919" d="M59.167,4.521c0.086-0.378,0.697-0.231,1.116-0.279
	C60.231,4.655,59.608,4.498,59.167,4.521z"/>
<path fill-rule="evenodd" clip-rule="evenodd" fill="#323232" d="M37.707,7.029c0,0.372,0,0.743,0,1.115
	C37.255,8.344,37.255,6.83,37.707,7.029z"/>
<path fill-rule="evenodd" clip-rule="evenodd" fill="#323232" d="M35.477,8.144c0.605-0.047,0.126,0.989,0.279,1.394
	C35.152,9.585,35.629,8.549,35.477,8.144z"/>
<path fill-rule="evenodd" clip-rule="evenodd" fill="#323232" d="M37.707,8.98c0.604-0.046,0.126,0.989,0.279,1.394
	C37.381,10.421,37.859,9.385,37.707,8.98z"/>
<path fill-rule="evenodd" clip-rule="evenodd" fill="#323232" d="M36.871,11.21c0.052-0.413,0.673-0.255,1.115-0.278
	C37.934,11.344,37.312,11.187,36.871,11.21z"/>
<path fill-rule="evenodd" clip-rule="evenodd" fill="#191919" d="M75.89,22.637c-0.2-0.452,1.314-0.452,1.116,0
	C76.633,22.637,76.262,22.637,75.89,22.637z"/>
<path fill-rule="evenodd" clip-rule="evenodd" fill="#323232" d="M74.217,22.637c0.372,0,0.743,0,1.116,0
	c-0.053,0.413-0.674,0.256-1.116,0.279C74.217,22.823,74.217,22.73,74.217,22.637z"/>
<path fill-rule="evenodd" clip-rule="evenodd" fill="#323232" d="M70.038,23.473c-0.048-0.604,0.988-0.126,1.393-0.279
	C71.478,23.799,70.443,23.321,70.038,23.473z"/>
<path fill-rule="evenodd" clip-rule="evenodd" fill="#191919" d="M68.922,24.031c-0.217-0.062-0.325-0.233-0.278-0.558
	c0.278,0,0.557,0,0.835,0C69.411,23.776,68.926,23.663,68.922,24.031z"/>
<path fill-rule="evenodd" clip-rule="evenodd" fill="#191919" d="M20.427,23.194c0,0.372,0,0.743,0,1.115c-0.093,0-0.186,0-0.279,0
	C20.196,23.893,20.048,23.281,20.427,23.194z"/>
<path fill-rule="evenodd" clip-rule="evenodd" fill="#191919" d="M74.496,24.031c0.373,0,0.743,0,1.116,0
	c-0.087,0.378-0.697,0.231-1.116,0.278C74.496,24.217,74.496,24.124,74.496,24.031z"/>
<path fill-rule="evenodd" clip-rule="evenodd" fill="#323232" d="M23.214,23.473c-0.16,0.49,0.336,1.638-0.278,1.672
	C23.095,24.656,22.599,23.508,23.214,23.473z"/>
<path fill-rule="evenodd" clip-rule="evenodd" fill="#191919" d="M70.595,24.867c0.086-0.378,0.697-0.231,1.113-0.279
	c0,0.093,0,0.186,0,0.279C71.338,24.867,70.965,24.867,70.595,24.867z"/>
<path fill-rule="evenodd" clip-rule="evenodd" fill="#797979" d="M70.595,24.867c-0.914,0.047-1.983,0.825-1.673-0.836
	c0.004-0.368,0.488-0.255,0.557-0.558c0.187,0,0.373,0,0.559,0c0.405-0.152,1.44,0.326,1.393-0.279c0-0.093,0-0.185,0-0.278
	c0.615,0.035,0.118,1.183,0.278,1.672C71.292,24.636,70.681,24.489,70.595,24.867z"/>
<path fill-rule="evenodd" clip-rule="evenodd" fill="#323232" d="M18.476,26.261c0.404,0.152,1.44-0.326,1.393,0.278
	C19.464,26.387,18.429,26.865,18.476,26.261z"/>
<path fill-rule="evenodd" clip-rule="evenodd" fill="#323232" d="M23.492,26.818c0.405,0.152,1.441-0.326,1.394,0.279
	C24.48,26.944,23.445,27.422,23.492,26.818z"/>
<path fill-rule="evenodd" clip-rule="evenodd" fill="#797979" d="M18.197,27.654c-1.768,0.585-1.113-1.928,0.279-1.393
	c-0.047,0.604,0.988,0.126,1.393,0.278c0.093,0,0.186,0,0.279,0c-0.152,0.405,0.325,1.441-0.279,1.394c-0.093,0-0.186,0-0.279,0
	C19.637,27.329,18.602,27.807,18.197,27.654z"/>
<path fill-rule="evenodd" clip-rule="evenodd" fill="#323232" d="M25.444,27.097c0.455-0.126,0.455,1.519,0,1.393
	C25.444,28.025,25.444,27.562,25.444,27.097z"/>
<path fill-rule="evenodd" clip-rule="evenodd" fill="#191919" d="M74.776,27.654c0.377,0.087,0.23,0.698,0.278,1.115
	c-0.094,0-0.186,0-0.278,0C74.776,28.397,74.776,28.025,74.776,27.654z"/>
<path fill-rule="evenodd" clip-rule="evenodd" fill="#191919" d="M75.054,30.999c0.605-0.046,0.127,0.989,0.279,1.394
	c-0.095,0-0.187,0-0.279,0C75.054,31.928,75.054,31.463,75.054,30.999z"/>
<path fill-rule="evenodd" clip-rule="evenodd" fill="#191919" d="M72.546,31.556c0,0.372,0,0.743,0,1.115
	c-0.413-0.052-0.257-0.673-0.28-1.115C72.36,31.556,72.452,31.556,72.546,31.556z"/>
<path fill-rule="evenodd" clip-rule="evenodd" fill="#797979" d="M15.967,32.392c0.836,0,1.672,0,2.509,0
	C18.264,32.853,16.179,32.853,15.967,32.392z"/>
<path fill-rule="evenodd" clip-rule="evenodd" fill="#C0C0C0" d="M72.546,33.229c0.623,0.12,0.112,1.373,0.278,1.951
	c-0.094,0-0.187,0-0.278,0C72.546,34.529,72.546,33.878,72.546,33.229z"/>
<path fill-rule="evenodd" clip-rule="evenodd" fill="#191919" d="M75.333,34.901c0.378,0.086,0.229,0.698,0.278,1.114
	c-0.093,0-0.187,0-0.278,0C75.333,35.644,75.333,35.272,75.333,34.901z"/>
<path fill-rule="evenodd" clip-rule="evenodd" fill="#323232" d="M72.825,35.179c0,0.465,0,0.929,0,1.394
	c-0.604,0.046-0.126-0.989-0.278-1.394C72.638,35.179,72.731,35.179,72.825,35.179z"/>
<path fill-rule="evenodd" clip-rule="evenodd" fill="#C0C0C0" d="M72.825,37.13c0.623,0.12,0.112,1.374,0.278,1.951
	c-0.092,0-0.187,0-0.278,0C72.825,38.431,72.825,37.781,72.825,37.13z"/>
<path fill-rule="evenodd" clip-rule="evenodd" fill="#191919" d="M75.612,38.802c0.378,0.087,0.23,0.698,0.278,1.115
	C75.477,39.866,75.633,39.244,75.612,38.802z"/>
<path fill-rule="evenodd" clip-rule="evenodd" fill="#323232" d="M73.103,39.082c0,0.372,0,0.743,0,1.115
	c-0.412-0.052-0.256-0.674-0.278-1.115C72.917,39.082,73.011,39.082,73.103,39.082z"/>
<path fill-rule="evenodd" clip-rule="evenodd" fill="#797979" d="M79.514,51.902c0-0.929,0-1.858,0-2.788
	C79.975,49.416,79.975,51.602,79.514,51.902z"/>
<path fill-rule="evenodd" clip-rule="evenodd" fill="#FFFFFF" d="M37.149,3.964c7.596-0.394,14.304-1.677,21.74-2.23
	c0.743,0,1.486,0,2.229,0c0.836,0,1.673,0,2.509,0c1.603,0.162,2.687,0.843,3.622,1.672c0.252,0.491,0.625,0.863,1.115,1.115
	c1.663,1.188,2.156,4.411,3.065,6.968c1.036,2.914,2.322,7.292,2.787,11.148c0,0.093,0,0.186,0,0.279c0,0.186,0,0.372,0,0.557
	c0.152,0.405-0.325,1.44,0.278,1.394c-0.092,1.114,0.499,1.547,0.28,2.787c0,0.372,0,0.743,0,1.115
	c0.164,0.577-0.345,1.831,0.278,1.951c0,0.093,0,0.186,0,0.279c0,0.464,0,0.929,0,1.394c0.022,0.442-0.134,1.063,0.279,1.115
	c0,0.465,0,0.929,0,1.394c0,0.372,0,0.743,0,1.114c0,0.372,0,0.743,0,1.115c0.021,0.441-0.135,1.063,0.278,1.115
	c0,0.186,0,0.372,0,0.557c0.021,0.442-0.135,1.063,0.278,1.115c-0.145,4.418,2.877,5.671,3.624,9.197c0,0.929,0,1.858,0,2.788
	c0.238,0.889-0.438,0.862-0.559,1.393c-0.583,0.346-1.048,0.811-1.393,1.394c-0.697,0.231-1.096,0.763-1.951,0.836
	c-1.022,0-2.044,0-3.065,0c-1.034,0.197-1.196-0.477-2.229-0.279c-1.145-0.529-2.535-0.81-3.625-1.393
	c-1.862-1.574-3.678-3.197-5.573-4.738c-0.016-0.169-0.042-0.33-0.278-0.278c-0.114-0.351-0.36-0.57-0.837-0.558
	c-0.063-0.216-0.007-0.549-0.279-0.557C51.51,41.007,43.65,34.046,35.477,27.097c-2.637-2.243-5.057-4.993-8.361-6.411
	c0.045-0.457-1.718-0.457-1.672,0c-1.264,0.409-2.546,0.798-2.23,2.787c-0.615,0.035-0.119,1.183-0.278,1.672
	c0,0.093,0,0.186,0,0.279c-0.379,0.086-0.231,0.698-0.28,1.115c0.546,0.521,0.087,1.021,0,1.672
	c0.008,0.937-0.383,1.475-0.835,1.951c-0.583,0.346-1.047,0.811-1.394,1.394c-0.477,0.452-1.014,0.844-1.951,0.836
	c-0.836,0-1.672,0-2.509,0c-0.936,0.007-1.474-0.384-1.951-0.836c-0.252-0.492-0.624-0.863-1.115-1.115
	c-0.452-0.477-0.843-1.015-0.836-1.951c0-0.929,0-1.858,0-2.787c1.078-3.355,2.848-6.615,4.459-9.755
	c0.394-0.767,0.668-1.51,1.115-2.229c0.264-0.424,0.471-0.843,0.836-1.394c0.214-0.323,0.812-1.12,1.393-1.393
	c0.583-0.346,1.048-0.811,1.394-1.394c2.606-3.618,7.839-4.61,13.657-5.017c0.279,0,0.558,0,0.836,0
	c0.441-0.023,1.063,0.134,1.115-0.279C37.041,4.227,37.201,4.201,37.149,3.964z M60.84,4.242c-0.187,0-0.373,0-0.557,0
	c-0.419,0.047-1.03-0.1-1.116,0.279c-7.284,0.427-13.838,1.584-20.903,2.23c-0.888,0.413-2.6,0.001-3.345,0.558
	c-3.086,0.294-6.311,0.521-8.083,1.393c-1.279,0.629-1.899,1.596-3.065,1.951c-0.953,0.719-1.79,1.556-2.509,2.508
	c-0.452,1.168-1.32,1.97-1.951,3.066c-1.859,3.234-2.974,7.036-4.738,10.312c-0.455-0.125-0.455,1.52,0,1.394
	c0.457,2.389,4.924,2.606,5.295,0c0.604,0.047,0.126-0.989,0.279-1.394c0-0.278,0-0.557,0-0.836
	c0.605,0.047,0.126-0.989,0.279-1.394c0-0.372,0-0.743,0-1.115c-0.128-3.101,1.544-4.401,3.901-5.017c1.208,0,2.417,0,3.624,0
	c1.459,0.04,1.773,0.597,2.508,1.115c0.4,0.282,0.8,0.588,1.115,0.835c3.555,2.803,6.842,5.625,10.033,8.362
	c1.379,1.182,2.722,2.61,3.902,3.623c0.341,0.292,0.739,0.261,1.116,0.558c0.33,0.262,0.513,0.841,0.835,1.114
	c0.325,0.276,0.785,0.298,1.114,0.558c0.332,0.262,0.515,0.838,0.837,1.114c0.339,0.292,0.739,0.261,1.114,0.558
	c0.331,0.261,0.513,0.843,0.838,1.115c0.688,0.58,1.508,1.053,2.229,1.672c2.759,2.375,5.663,5.044,8.082,6.968
	c0.438,0.675,0.997,1.233,1.673,1.672c1.909,0.97,3.333,3.144,5.016,3.902c0.101,0.045,0.159,0.493,0.279,0.558
	c0.835,0.439,2.071,0.61,3.344,0.836c3.185,0.563,4.998,0.13,5.019-2.508c0.008-1.237-0.958-1.849-1.673-3.066
	c-1.299-2.206-2.122-3.894-2.23-6.968c0-0.372,0-0.743,0-1.115c-0.166-0.578,0.345-1.831-0.278-1.951c0-0.186,0-0.372,0-0.557
	c0-0.465,0-0.929,0-1.394c-0.166-0.578,0.345-1.831-0.278-1.951c0-0.186,0-0.372,0-0.558c0-0.372,0-0.743,0-1.115
	c-0.048-0.417,0.098-1.029-0.28-1.115c-0.051-1.993-0.23-3.857-0.558-5.574c0-0.093,0-0.186,0-0.279
	c-0.16-0.49,0.337-1.638-0.278-1.672c-0.587-5.146-2.418-10.432-3.902-14.214c-0.836-2.13-1.423-2.722-3.065-3.623
	c-0.643-0.354-0.968-0.867-1.671-0.836C62.753,3.783,60.876,3.783,60.84,4.242z"/>
<path fill-rule="evenodd" clip-rule="evenodd" fill="#323232" d="M18.197,27.654c0.405,0.153,1.44-0.325,1.394,0.279
	C19.186,27.781,18.15,28.258,18.197,27.654z"/>
<path fill-rule="evenodd" clip-rule="evenodd" fill="#323232" d="M23.214,28.211c0.405,0.152,1.44-0.326,1.394,0.279
	C24.202,28.337,23.167,28.816,23.214,28.211z"/>
<path fill-rule="evenodd" clip-rule="evenodd" fill="#C0C0C0" d="M24.328,18.178c0.572-0.462,3.052-0.462,3.624,0
	C26.745,18.178,25.537,18.178,24.328,18.178z"/>
<path fill-rule="evenodd" clip-rule="evenodd" fill="#C0C0C0" d="M12.065,25.703c0,0.929,0,1.858,0,2.787
	C11.604,28.19,11.604,26.003,12.065,25.703z"/>
<path fill-rule="evenodd" clip-rule="evenodd" fill="#C0C0C0" d="M75.054,28.769c0,0.65,0,1.3,0,1.951
	c-0.623-0.12-0.114-1.374-0.278-1.951C74.869,28.769,74.96,28.769,75.054,28.769z"/>
<path fill-rule="evenodd" clip-rule="evenodd" fill="#C0C0C0" d="M72.546,55.525c1.021,0,2.043,0,3.065,0
	c-0.017,0.17-0.042,0.33-0.278,0.278C74.486,55.629,72.933,56.161,72.546,55.525z"/>
</svg>
