<?xml version="1.0" encoding="utf-8"?>
<!-- Generator: Adobe Illustrator 15.0.0, SVG Export Plug-In  -->
<!DOCTYPE svg PUBLIC "-//W3C//DTD SVG 1.1//EN" "http://www.w3.org/Graphics/SVG/1.1/DTD/svg11.dtd" [
	<!ENTITY ns_flows "http://ns.adobe.com/Flows/1.0/">
]>
<svg version="1.1"
	 xmlns="http://www.w3.org/2000/svg" xmlns:xlink="http://www.w3.org/1999/xlink" xmlns:a="http://ns.adobe.com/AdobeSVGViewerExtensions/3.0/"
	 x="0px" y="0px" width="142px" height="142px" viewBox="-30.086 -2.869 142 142" enable-background="new -30.086 -2.869 142 142"
	 xml:space="preserve">
<defs>
</defs>
<path fill-rule="evenodd" clip-rule="evenodd" fill="#191919" d="M58.823,0.319c0.12-0.623,1.372-0.113,1.951-0.278
	C60.654,0.664,59.4,0.153,58.823,0.319z"/>
<path fill-rule="evenodd" clip-rule="evenodd" fill="#191919" d="M56.314,0.598c-0.048-0.604,0.988-0.126,1.393-0.279
	C57.755,0.924,56.72,0.445,56.314,0.598z"/>
<path fill-rule="evenodd" clip-rule="evenodd" fill="#191919" d="M53.807,0.877c-0.048-0.604,0.987-0.126,1.393-0.279
	C55.247,1.202,54.211,0.725,53.807,0.877z"/>
<path fill-rule="evenodd" clip-rule="evenodd" fill="#191919" d="M51.299,1.156c-0.049-0.604,0.987-0.127,1.392-0.279
	C52.739,1.481,51.703,1.003,51.299,1.156z"/>
<path fill-rule="evenodd" clip-rule="evenodd" fill="#191919" d="M48.79,1.434c-0.048-0.604,0.987-0.126,1.393-0.278
	C50.23,1.76,49.194,1.281,48.79,1.434z"/>
<path fill-rule="evenodd" clip-rule="evenodd" fill="#191919" d="M46.282,1.713c-0.049-0.604,0.987-0.126,1.392-0.279
	C47.723,2.039,46.687,1.561,46.282,1.713z"/>
<path fill-rule="evenodd" clip-rule="evenodd" fill="#191919" d="M44.052,1.992c0.087-0.378,0.697-0.231,1.114-0.279
	C45.114,2.126,44.493,1.969,44.052,1.992z"/>
<path fill-rule="evenodd" clip-rule="evenodd" fill="#191919" d="M41.542,2.27c-0.046-0.604,0.989-0.126,1.394-0.278
	C42.983,2.596,41.948,2.118,41.542,2.27z"/>
<path fill-rule="evenodd" clip-rule="evenodd" fill="#191919" d="M39.313,2.549c-0.047-0.604,0.989-0.126,1.394-0.279
	C40.754,2.875,39.718,2.396,39.313,2.549z"/>
<path fill-rule="evenodd" clip-rule="evenodd" fill="#191919" d="M37.362,2.828c0.086-0.378,0.698-0.231,1.115-0.278
	C38.425,2.962,37.803,2.805,37.362,2.828z"/>
<path fill-rule="evenodd" clip-rule="evenodd" fill="#191919" d="M35.132,3.106c0.086-0.378,0.698-0.231,1.115-0.279
	C36.196,3.24,35.574,3.083,35.132,3.106z"/>
<path fill-rule="evenodd" clip-rule="evenodd" fill="#191919" d="M58.545,3.106c-0.048-0.604,0.987-0.126,1.393-0.279
	C59.985,3.432,58.949,2.954,58.545,3.106z"/>
<path fill-rule="evenodd" clip-rule="evenodd" fill="#191919" d="M32.903,3.385c0.086-0.378,0.697-0.231,1.114-0.279
	C33.966,3.519,33.344,3.362,32.903,3.385z"/>
<path fill-rule="evenodd" clip-rule="evenodd" fill="#191919" d="M56.036,3.385c0.053-0.413,0.674-0.256,1.114-0.279
	C57.099,3.519,56.478,3.362,56.036,3.385z"/>
<path fill-rule="evenodd" clip-rule="evenodd" fill="#191919" d="M30.673,3.664c0.086-0.379,0.697-0.231,1.114-0.279
	C31.736,3.798,31.115,3.641,30.673,3.664z"/>
<path fill-rule="evenodd" clip-rule="evenodd" fill="#191919" d="M53.528,3.664c-0.048-0.604,0.987-0.127,1.393-0.279
	C54.969,3.99,53.933,3.511,53.528,3.664z"/>
<path fill-rule="evenodd" clip-rule="evenodd" fill="#191919" d="M28.722,3.942c0.086-0.378,0.698-0.231,1.115-0.278
	C29.785,4.077,29.163,3.919,28.722,3.942z"/>
<path fill-rule="evenodd" clip-rule="evenodd" fill="#191919" d="M51.02,3.942c-0.048-0.604,0.988-0.126,1.393-0.278
	C52.46,4.268,51.425,3.79,51.02,3.942z"/>
<path fill-rule="evenodd" clip-rule="evenodd" fill="#191919" d="M48.51,4.222c-0.046-0.604,0.989-0.126,1.395-0.279
	C49.952,4.547,48.916,4.069,48.51,4.222z"/>
<path fill-rule="evenodd" clip-rule="evenodd" fill="#191919" d="M46.001,4.5c-0.046-0.604,0.99-0.126,1.395-0.278
	C47.443,4.826,46.408,4.348,46.001,4.5z"/>
<path fill-rule="evenodd" clip-rule="evenodd" fill="#191919" d="M43.771,4.779c0.052-0.413,0.675-0.256,1.116-0.279
	C44.835,4.913,44.214,4.756,43.771,4.779z"/>
<path fill-rule="evenodd" clip-rule="evenodd" fill="#191919" d="M41.542,5.058c0.052-0.413,0.674-0.256,1.115-0.279
	C42.606,5.191,41.984,5.034,41.542,5.058z"/>
<path fill-rule="evenodd" clip-rule="evenodd" fill="#191919" d="M39.313,5.336c0.052-0.413,0.673-0.256,1.115-0.279
	C40.376,5.47,39.754,5.313,39.313,5.336z"/>
<path fill-rule="evenodd" clip-rule="evenodd" fill="#191919" d="M37.083,5.615c0.052-0.413,0.674-0.255,1.116-0.278
	C38.146,5.749,37.524,5.592,37.083,5.615z"/>
<path fill-rule="evenodd" clip-rule="evenodd" fill="#191919" d="M34.854,5.894c0.052-0.414,0.674-0.256,1.115-0.279
	C35.917,6.027,35.295,5.87,34.854,5.894z"/>
<path fill-rule="evenodd" clip-rule="evenodd" fill="#191919" d="M32.624,6.172c0.052-0.413,0.674-0.255,1.116-0.278
	C33.687,6.307,33.065,6.149,32.624,6.172z"/>
<path fill-rule="evenodd" clip-rule="evenodd" fill="#191919" d="M30.395,6.451c0.051-0.413,0.673-0.255,1.115-0.278
	C31.457,6.585,30.835,6.428,30.395,6.451z"/>
<path fill-rule="evenodd" clip-rule="evenodd" fill="#191919" d="M23.148,21.501c-0.166,0.577,0.344,1.831-0.278,1.951
	C23.035,22.875,22.524,21.622,23.148,21.501z"/>
<path fill-rule="evenodd" clip-rule="evenodd" fill="#191919" d="M71.364,21.501c0.413,0.051,0.257,0.673,0.278,1.115
	C71.23,22.564,71.389,21.942,71.364,21.501z"/>
<path fill-rule="evenodd" clip-rule="evenodd" fill="#191919" d="M20.361,21.78c-0.17,0.667,0.35,2.022-0.279,2.23
	C20.251,23.343,19.732,21.988,20.361,21.78z"/>
<path fill-rule="evenodd" clip-rule="evenodd" fill="#191919" d="M71.643,23.453c0.413,0.052,0.257,0.673,0.279,1.115
	C71.511,24.516,71.667,23.894,71.643,23.453z"/>
<path fill-rule="evenodd" clip-rule="evenodd" fill="#191919" d="M74.43,23.731c0.605-0.047,0.128,0.989,0.28,1.394
	C74.105,25.171,74.584,24.136,74.43,23.731z"/>
<path fill-rule="evenodd" clip-rule="evenodd" fill="#191919" d="M22.87,25.403c-0.153,0.405,0.326,1.44-0.28,1.394
	C22.743,26.392,22.265,25.356,22.87,25.403z"/>
<path fill-rule="evenodd" clip-rule="evenodd" fill="#191919" d="M71.922,25.961c0.616,0.035,0.12,1.183,0.278,1.672
	C71.585,27.598,72.082,26.451,71.922,25.961z"/>
<path fill-rule="evenodd" clip-rule="evenodd" fill="#191919" d="M74.71,26.519c0.615,0.034,0.118,1.182,0.278,1.672
	C74.372,28.156,74.87,27.008,74.71,26.519z"/>
<path fill-rule="evenodd" clip-rule="evenodd" fill="#191919" d="M72.2,29.305c0.625,0.121,0.114,1.374,0.28,1.951
	C71.857,31.136,72.366,29.883,72.2,29.305z"/>
<path fill-rule="evenodd" clip-rule="evenodd" fill="#191919" d="M74.988,29.862c0.623,0.121,0.112,1.374,0.279,1.952
	C74.645,31.694,75.155,30.44,74.988,29.862z"/>
<path fill-rule="evenodd" clip-rule="evenodd" fill="#191919" d="M15.901,30.978c0.836,0,1.672,0,2.509,0
	C18.198,31.438,16.113,31.438,15.901,30.978z"/>
<path fill-rule="evenodd" clip-rule="evenodd" fill="#191919" d="M72.48,32.929c0.623,0.12,0.112,1.374,0.278,1.951
	C72.136,34.759,72.645,33.506,72.48,32.929z"/>
<path fill-rule="evenodd" clip-rule="evenodd" fill="#191919" d="M75.268,33.486c0.627,0.207,0.107,1.563,0.278,2.229
	C74.917,35.508,75.438,34.152,75.268,33.486z"/>
<path fill-rule="evenodd" clip-rule="evenodd" fill="#191919" d="M72.759,36.831c0.623,0.12,0.112,1.373,0.278,1.951
	C72.414,38.662,72.925,37.408,72.759,36.831z"/>
<path fill-rule="evenodd" clip-rule="evenodd" fill="#191919" d="M75.546,37.667c0.604-0.047,0.126,0.988,0.278,1.393
	C75.219,39.107,75.698,38.071,75.546,37.667z"/>
<path fill-rule="evenodd" clip-rule="evenodd" fill="#191919" d="M79.448,47.7c0.377,0.086,0.23,0.698,0.278,1.115
	C79.314,48.763,79.471,48.142,79.448,47.7z"/>
<path fill-rule="evenodd" clip-rule="evenodd" fill="#191919" d="M79.727,49.094c-0.023,0.441,0.135,1.063-0.278,1.115
	C79.494,49.792,79.348,49.18,79.727,49.094z"/>
<path fill-rule="evenodd" clip-rule="evenodd" fill="#191919" d="M69.691,55.783c-0.158,0.49,0.339,1.637-0.278,1.672
	C69.573,56.966,69.076,55.818,69.691,55.783z"/>
<path fill-rule="evenodd" clip-rule="evenodd" fill="#191919" d="M66.905,56.34c-0.152,0.405,0.326,1.44-0.279,1.394
	C66.778,57.329,66.302,56.293,66.905,56.34z"/>
<path fill-rule="evenodd" clip-rule="evenodd" fill="#191919" d="M74.43,58.013c0,0.929,0,1.858,0,2.787
	C73.969,60.499,73.969,58.313,74.43,58.013z"/>
<path fill-rule="evenodd" clip-rule="evenodd" fill="#191919" d="M77.219,58.013c0,0.929,0,1.858,0,2.787
	C76.756,60.499,76.756,58.313,77.219,58.013z"/>
<path fill-rule="evenodd" clip-rule="evenodd" fill="#191919" d="M81.397,68.325c0.461,0.211,0.461,2.297,0,2.509
	C81.397,69.997,81.397,69.161,81.397,68.325z"/>
<path fill-rule="evenodd" clip-rule="evenodd" fill="#C4C4C4" d="M36.247,133.821c0.465,0,0.929,0,1.394,0
	C37.767,134.277,36.122,134.277,36.247,133.821z"/>
<path fill-rule="evenodd" clip-rule="evenodd" fill="#191919" d="M21.476,7.845c0.252-0.491,0.623-0.863,1.114-1.115
	C22.339,7.221,21.967,7.593,21.476,7.845z"/>
<path fill-rule="evenodd" clip-rule="evenodd" fill="#191919" d="M30.395,21.223c0.491,0.251,0.863,0.623,1.115,1.115
	C31.018,22.086,30.646,21.714,30.395,21.223z"/>
<path fill-rule="evenodd" clip-rule="evenodd" fill="#191919" d="M32.345,22.895c0.492,0.252,0.863,0.624,1.115,1.115
	C32.969,23.758,32.597,23.387,32.345,22.895z"/>
<path fill-rule="evenodd" clip-rule="evenodd" fill="#191919" d="M34.296,24.567c0.491,0.251,0.864,0.623,1.115,1.115
	C34.919,25.431,34.548,25.059,34.296,24.567z"/>
<path fill-rule="evenodd" clip-rule="evenodd" fill="#191919" d="M36.247,26.239c0.492,0.252,0.863,0.624,1.115,1.115
	C36.871,27.103,36.499,26.731,36.247,26.239z"/>
<path fill-rule="evenodd" clip-rule="evenodd" fill="#191919" d="M38.199,27.912c0.491,0.252,0.863,0.624,1.114,1.115
	C38.822,28.775,38.45,28.403,38.199,27.912z"/>
<path fill-rule="evenodd" clip-rule="evenodd" fill="#191919" d="M40.149,29.584c0.492,0.252,0.863,0.624,1.115,1.115
	C40.773,30.447,40.401,30.076,40.149,29.584z"/>
<path fill-rule="evenodd" clip-rule="evenodd" fill="#191919" d="M42.101,31.256c0.49,0.252,0.863,0.623,1.114,1.114
	C42.725,32.119,42.352,31.748,42.101,31.256z"/>
<path fill-rule="evenodd" clip-rule="evenodd" fill="#191919" d="M44.052,32.929c0.491,0.251,0.861,0.623,1.114,1.114
	C44.675,33.792,44.303,33.42,44.052,32.929z"/>
<path fill-rule="evenodd" clip-rule="evenodd" fill="#191919" d="M46.001,34.601c0.493,0.252,0.864,0.624,1.116,1.115
	C46.626,35.464,46.254,35.092,46.001,34.601z"/>
<path fill-rule="evenodd" clip-rule="evenodd" fill="#191919" d="M47.953,36.273c0.492,0.252,0.863,0.624,1.115,1.115
	C48.576,37.136,48.205,36.764,47.953,36.273z"/>
<path fill-rule="evenodd" clip-rule="evenodd" fill="#191919" d="M49.904,37.945c0.49,0.252,0.863,0.624,1.115,1.115
	C50.527,38.809,50.156,38.437,49.904,37.945z"/>
<path fill-rule="evenodd" clip-rule="evenodd" fill="#191919" d="M51.855,39.618c0.583,0.346,1.048,0.811,1.395,1.394
	C52.665,40.666,52.202,40.201,51.855,39.618z"/>
<path fill-rule="evenodd" clip-rule="evenodd" fill="#191919" d="M53.807,41.29c0.583,0.346,1.048,0.811,1.393,1.394
	C54.616,42.337,54.151,41.873,53.807,41.29z"/>
<path fill-rule="evenodd" clip-rule="evenodd" fill="#191919" d="M55.758,42.962c0.581,0.346,1.046,0.81,1.393,1.393
	C56.567,44.01,56.103,43.545,55.758,42.962z"/>
<path fill-rule="evenodd" clip-rule="evenodd" fill="#191919" d="M57.707,44.634c0.493,0.252,0.863,0.624,1.116,1.115
	C58.332,45.498,57.96,45.126,57.707,44.634z"/>
<path fill-rule="evenodd" clip-rule="evenodd" fill="#191919" d="M59.658,46.307c0.583,0.346,1.048,0.811,1.395,1.394
	C60.47,47.354,60.005,46.89,59.658,46.307z"/>
<path fill-rule="evenodd" clip-rule="evenodd" fill="#191919" d="M61.61,47.979c0.583,0.345,1.047,0.81,1.394,1.393
	C62.421,49.027,61.956,48.562,61.61,47.979z"/>
<path fill-rule="evenodd" clip-rule="evenodd" fill="#191919" d="M63.84,49.93c0.49,0.251,0.863,0.624,1.113,1.115
	C64.463,50.793,64.092,50.421,63.84,49.93z"/>
<path fill-rule="evenodd" clip-rule="evenodd" fill="#191919" d="M65.513,51.324c0.583,0.346,1.048,0.81,1.393,1.394
	C66.322,52.371,65.857,51.907,65.513,51.324z"/>
<path fill-rule="evenodd" clip-rule="evenodd" fill="#787878" d="M53.25,54.667c0-0.092,0-0.185,0-0.278
	c1.001,0.392,1.184,1.603,2.229,1.951c-0.156,0.401-0.437,0.68-0.838,0.836c-0.226,0.053-0.278,0.28-0.557,0.279
	c-0.092,0-0.187,0-0.278,0c-0.183-0.747-0.8-1.06-1.116-1.672C52.488,55.022,53.246,55.222,53.25,54.667z"/>
<path fill-rule="evenodd" clip-rule="evenodd" fill="#323232" d="M52.69,55.783c-0.755-0.252,0.234-1.026,0.56-1.116
	C53.246,55.222,52.488,55.022,52.69,55.783z"/>
<path fill-rule="evenodd" clip-rule="evenodd" fill="#C4C4C4" d="M53.528,58.292c0.098-0.366,0.488-0.438,0.557-0.836
	c0.278,0.001,0.331-0.226,0.557-0.279C54.39,57.668,54.019,58.04,53.528,58.292z"/>
<path fill-rule="evenodd" clip-rule="evenodd" fill="#787878" d="M22.87,68.882c0.251-0.491,0.623-0.863,1.114-1.115
	C23.732,68.259,23.361,68.63,22.87,68.882z"/>
<path fill-rule="evenodd" clip-rule="evenodd" fill="#787878" d="M11.721,84.49c-0.123-0.588-3.298-2.121-3.344-2.509
	c-0.076-0.625,0.864-0.833,1.114-1.672c1.699,0.126,2.575,2.36,3.902,1.95C12.794,82.962,12.249,83.718,11.721,84.49z"/>
<path fill-rule="evenodd" clip-rule="evenodd" fill="#787878" d="M3.917,110.968c0.86,0.626,1.603,1.369,2.229,2.229
	C5.286,112.571,4.543,111.828,3.917,110.968z"/>
<path fill-rule="evenodd" clip-rule="evenodd" fill="#191919" d="M11.721,112.083c0.568-0.082,0.546-0.755,1.115-0.837
	c-0.252,0.492-0.624,0.863-1.115,1.115C11.721,112.269,11.721,112.176,11.721,112.083z"/>
<path fill-rule="evenodd" clip-rule="evenodd" fill="#323232" d="M17.016,115.706c0.093,0,0.186,0,0.278,0
	c1.602,2.021,3.694,3.552,5.295,5.574C20.616,119.538,18.758,117.681,17.016,115.706z"/>
<path fill-rule="evenodd" clip-rule="evenodd" fill="#787878" d="M22.59,121.28c0.492,0.252,0.864,0.623,1.116,1.115
	C23.214,122.143,22.842,121.771,22.59,121.28z"/>
<path fill-rule="evenodd" clip-rule="evenodd" fill="#787878" d="M24.542,123.789c-0.686,0.613-1.222,1.378-2.23,1.672
	c-1.65-1.127,0.335-2.06,1.394-2.787c0.093,0,0.186,0,0.278,0C24.129,123.087,24.396,123.376,24.542,123.789z"/>
<path fill-rule="evenodd" clip-rule="evenodd" fill="#787878" d="M30.395,133.265c0.675,0.439,1.232,0.997,1.672,1.672
	C31.392,134.498,30.834,133.939,30.395,133.265z"/>
<path fill-rule="evenodd" clip-rule="evenodd" fill="#191919" d="M42.379,134.658c0.252-0.491,0.624-0.862,1.114-1.115
	C43.242,134.035,42.87,134.406,42.379,134.658z"/>
<path fill-rule="evenodd" clip-rule="evenodd" fill="#787878" d="M58.267,106.787c0.41-0.609,0.543-1.501,1.113-1.95
	c0.477,0.73,1.557,0.859,2.23,1.393c0.044,0.693-0.439,0.863-0.558,1.394c-0.749-0.366-1.482-0.748-2.229-1.114
	C58.597,106.562,58.545,106.788,58.267,106.787z"/>
<path fill-rule="evenodd" clip-rule="evenodd" fill="#191919" d="M79.17,75.014c0.25-0.49,0.623-0.862,1.113-1.115
	C80.031,74.391,79.66,74.763,79.17,75.014z"/>
<path fill-rule="evenodd" clip-rule="evenodd" fill="#191919" d="M66.905,1.713c0.769,0.533,1.418,1.183,1.951,1.951
	C68.089,3.131,67.438,2.48,66.905,1.713z"/>
<path fill-rule="evenodd" clip-rule="evenodd" fill="#323232" d="M60.774,0.041c2.837-0.235,4.634,0.567,6.131,1.672
	c0.532,0.768,1.184,1.418,1.951,1.951c2.883,5.665,4.804,12.291,5.573,20.067c0.154,0.405-0.324,1.44,0.28,1.394
	c0,0.465,0,0.929,0,1.394c0.16,0.49-0.338,1.637,0.278,1.672c0,0.557,0,1.114,0,1.671c0.167,0.578-0.344,1.832,0.279,1.952
	c0,0.557,0,1.115,0,1.672c0.17,0.666-0.351,2.022,0.278,2.229c0,0.65,0,1.3,0,1.951c0.152,0.404-0.327,1.44,0.278,1.393
	c0.202,3.885,2.917,5.26,3.624,8.64c0.022,0.441-0.134,1.063,0.278,1.115c0,0.093,0,0.186,0,0.278
	c-0.379,0.086-0.232,0.698-0.278,1.115c-0.345,3-1.845,4.845-2.229,7.804c-0.463,0.3-0.463,2.486,0,2.787
	c0.749,3.152,3.885,3.919,4.179,7.525c0,0.836,0,1.672,0,2.509c0,0.465,0,0.929,0,1.393c-0.509,0.42-0.655,1.202-1.114,1.672
	c-0.49,0.253-0.863,0.625-1.113,1.115c-2.362,2.005-5.569,3.163-7.527,5.574c0.647-2.233,1.693-4.066,2.787-5.853
	c0.996-0.307,1.416-1.187,2.511-1.394c0.582-0.347,1.047-0.811,1.392-1.395c2.076-5.259-3.718-6.406-3.902-11.147
	c0-0.929,0-1.858,0-2.787c0.2-2.519,1.154-4.728,1.951-7.247c0.684-2.156,0.523-2.923-0.835-4.738
	c-1.141-1.522-2.524-4.092-2.509-7.246c-0.166-0.578,0.345-1.831-0.278-1.951c0-0.65,0-1.301,0-1.951
	c-0.166-0.577,0.345-1.831-0.278-1.951c0-0.558,0-1.115,0-1.672c-0.166-0.578,0.345-1.831-0.28-1.951c0-0.557,0-1.114,0-1.672
	c-0.158-0.49,0.338-1.638-0.278-1.672c0-0.465,0-0.929,0-1.394c-0.022-0.441,0.134-1.063-0.279-1.115c0-0.279,0-0.558,0-0.836
	c-0.021-0.441,0.135-1.063-0.278-1.115c-0.959-5.821-2.568-10.995-4.459-15.887c-0.533-0.768-1.183-1.418-1.952-1.951
	c-1.366-0.584-2.847-1.054-5.016-0.836c-0.405,0.153-1.44-0.326-1.393,0.279c-0.465,0-0.93,0-1.395,0
	c-0.44,0.023-1.062-0.134-1.114,0.279c-0.372,0-0.743,0-1.115,0c-0.405,0.152-1.44-0.326-1.393,0.279c-0.373,0-0.743,0-1.116,0
	c-0.404,0.152-1.44-0.326-1.393,0.278c-0.372,0-0.743,0-1.115,0c-0.405,0.153-1.44-0.325-1.395,0.279c-0.371,0-0.741,0-1.114,0
	c-0.404,0.152-1.44-0.326-1.395,0.278c-0.37,0-0.743,0-1.113,0c-0.441,0.023-1.064-0.134-1.116,0.279c-0.37,0-0.742,0-1.114,0
	c-0.44,0.023-1.063-0.134-1.115,0.279c-0.371,0-0.743,0-1.115,0c-0.441,0.023-1.063-0.134-1.115,0.279c-0.371,0-0.743,0-1.114,0
	c-0.442,0.023-1.064-0.134-1.116,0.278c-0.371,0-0.743,0-1.114,0c-0.441,0.023-1.063-0.134-1.115,0.279c-0.371,0-0.743,0-1.114,0
	c-0.441,0.023-1.063-0.134-1.116,0.278c-0.371,0-0.743,0-1.114,0c-0.441,0.023-1.063-0.134-1.115,0.278
	c-2.372-0.079-4.545,1.55-6.411,2.787c-1.377,0.914-2.738,2.807-3.902,4.46c-0.204,0.29-0.663,0.532-0.836,0.836
	c-0.522,0.916-0.643,2.029-1.115,3.066c-0.417,0.915-0.973,1.866-1.393,2.787c-0.984,2.154-2.448,4.618-2.23,5.853
	c0.618,3.492,6.51,2.628,5.574-2.229c0.629-0.208,0.109-1.563,0.279-2.23c-0.492-4.636,4.636-6.169,8.64-4.737
	c1.555,0.556,2.445,1.448,3.344,2.229c0.347,0.583,0.811,1.048,1.394,1.394c0.225,0.052,0.277,0.279,0.557,0.278
	c0.252,0.491,0.624,0.863,1.115,1.115c0.366,0.099,0.438,0.491,0.836,0.558c0.346,0.583,0.811,1.048,1.394,1.394
	c0.226,0.053,0.278,0.28,0.558,0.279c0.346,0.583,0.81,1.047,1.393,1.394c0.227,0.052,0.278,0.279,0.558,0.278
	c0.347,0.583,0.811,1.047,1.394,1.394c0.226,0.053,0.278,0.28,0.558,0.279c0.346,0.583,0.81,1.047,1.393,1.394
	c0.366,0.098,0.438,0.491,0.837,0.557c0.251,0.492,0.623,0.863,1.114,1.115c0.367,0.099,0.438,0.491,0.838,0.558
	c0.25,0.491,0.623,0.863,1.113,1.114c0.367,0.1,0.439,0.491,0.836,0.558c0.252,0.491,0.625,0.863,1.115,1.114
	c0.367,0.099,0.439,0.492,0.836,0.558c0.252,0.492,0.623,0.863,1.116,1.115c0.364,0.098,0.437,0.491,0.835,0.557
	c0.252,0.491,0.623,0.863,1.116,1.115c0.364,0.099,0.437,0.491,0.835,0.558c0.253,0.491,0.623,0.863,1.114,1.115
	c0.366,0.098,0.438,0.491,0.837,0.558c0.251,0.492,0.623,0.863,1.114,1.115c0.366,0.099,0.438,0.49,0.837,0.558
	c0.251,0.491,0.623,0.863,1.114,1.115c0.367,0.099,0.438,0.491,0.836,0.558c0.252,0.491,0.625,0.863,1.115,1.115
	c0.367,0.098,0.439,0.491,0.836,0.557c0.252,0.492,0.623,0.863,1.115,1.115c0.365,0.098,0.438,0.49,0.836,0.557
	c0.252,0.491,0.623,0.863,1.113,1.115c0.367,0.098,0.439,0.49,0.838,0.558c0.25,0.491,0.623,0.863,1.114,1.114
	c0.366,0.098,0.438,0.491,0.837,0.558c0.251,0.492,0.623,0.863,1.114,1.115c1.029,0.92,0.848,3.055,0.835,5.017
	c-0.615,0.035-0.118,1.183-0.278,1.672c-0.185,3.808-1.422,6.566-2.787,9.197c-0.759-0.28-1.231-0.698-1.951-1.115
	c-0.294-0.171-0.917-0.12-0.835-0.836c0.955,0.548,0.981-1.287,1.395-2.229c0.16-0.367,0.928-1.729,1.113-2.508
	c0.177-0.735,0.051-1.606,0.278-2.23c0.605,0.046,0.127-0.989,0.279-1.394c0-1.208,0-2.416,0-3.623
	c-0.345-0.583-0.81-1.048-1.393-1.394c-0.227-0.053-0.278-0.28-0.56-0.279c-0.25-0.491-0.623-0.863-1.113-1.115
	c-0.367-0.099-0.438-0.491-0.836-0.558c-0.347-0.583-0.811-1.047-1.394-1.393c-0.227-0.053-0.279-0.28-0.558-0.279
	c-0.347-0.583-0.812-1.048-1.395-1.394c-0.364-0.098-0.438-0.491-0.835-0.557c-0.253-0.491-0.623-0.863-1.116-1.115
	c-0.225-0.053-0.276-0.28-0.557-0.279c-0.347-0.583-0.812-1.047-1.393-1.393c-0.227-0.053-0.278-0.28-0.559-0.279
	c-0.345-0.583-0.81-1.047-1.393-1.394c-0.227-0.053-0.278-0.28-0.557-0.278c-0.347-0.583-0.812-1.048-1.395-1.394
	c-0.367-0.099-0.438-0.49-0.836-0.558c-0.252-0.491-0.625-0.863-1.115-1.115c-0.367-0.099-0.439-0.491-0.836-0.558
	c-0.252-0.491-0.623-0.863-1.115-1.115c-0.365-0.098-0.438-0.491-0.836-0.557c-0.252-0.491-0.623-0.863-1.116-1.115
	c-0.364-0.098-0.437-0.49-0.835-0.558c-0.253-0.491-0.623-0.863-1.114-1.114c-0.367-0.099-0.438-0.491-0.837-0.558
	c-0.251-0.491-0.624-0.862-1.114-1.114c-0.366-0.099-0.439-0.491-0.837-0.558c-0.251-0.491-0.623-0.863-1.115-1.115
	c-0.366-0.099-0.438-0.491-0.836-0.557c-0.251-0.492-0.623-0.863-1.114-1.115c-0.367-0.098-0.439-0.491-0.836-0.557
	c-0.252-0.492-0.624-0.863-1.115-1.115c-0.366-0.099-0.438-0.49-0.836-0.557c-0.251-0.492-0.624-0.864-1.115-1.115
	c-0.366-0.099-0.438-0.491-0.836-0.558c-0.252-0.492-0.623-0.863-1.115-1.115c-0.366-0.098-0.438-0.49-0.836-0.557
	c-0.252-0.492-0.624-0.864-1.115-1.115c-1.016-0.68-2.619-2.286-5.017-1.951c-1.215,0.17-2.226,0.723-2.23,2.23
	c-0.624,0.12-0.113,1.374-0.278,1.951c0,0.65,0,1.3,0,1.951c-0.605-0.047-0.127,0.989-0.28,1.394
	c-0.458,2.33-1.829,3.745-4.18,4.181c-0.836,0-1.672,0-2.509,0c-3.464-0.775-5.082-3.761-3.624-8.083
	c0.294-0.871,1.204-2.019,1.672-3.065c0.507-1.13,0.896-2.243,1.394-3.344c0.522-1.155,0.866-2.432,1.394-3.345
	c0.066-0.115,0.513-0.181,0.557-0.279c0.271-0.598,0.619-1.022,1.116-1.672c0.154-0.202,0.102-0.621,0.278-0.836
	c0.848-1.037,2.265-1.91,2.787-2.508c0.491-0.252,0.863-0.624,1.114-1.115c1.685-1.288,3.412-2.535,6.132-2.787
	c0.441-0.023,1.063,0.134,1.115-0.278c0.278,0,0.558,0,0.836,0c0.441-0.023,1.063,0.134,1.114-0.279c0.372,0,0.743,0,1.116,0
	c0.441-0.023,1.063,0.134,1.114-0.279c0.372,0,0.743,0,1.115,0c0.442-0.023,1.063,0.134,1.115-0.279c0.372,0,0.744,0,1.115,0
	c0.441-0.023,1.063,0.134,1.115-0.278c0.278,0,0.558,0,0.836,0c0.405-0.153,1.441,0.325,1.394-0.279c0.278,0,0.557,0,0.835,0
	c0.406-0.152,1.441,0.326,1.394-0.278c0.372,0,0.743,0,1.115,0c0.441-0.023,1.063,0.134,1.114-0.279c0.373,0,0.743,0,1.116,0
	c0.404-0.152,1.44,0.326,1.392-0.279c0.373,0,0.744,0,1.116,0c0.404-0.153,1.44,0.326,1.393-0.278c0.372,0,0.743,0,1.116,0
	c0.404-0.153,1.44,0.326,1.392-0.279c0.373,0,0.743,0,1.116,0c0.404-0.152,1.44,0.325,1.393-0.279c0.372,0,0.743,0,1.115,0
	c0.405-0.153,1.44,0.326,1.393-0.279c0.373,0,0.743,0,1.116,0C59.4,0.153,60.654,0.664,60.774,0.041z"/>
<path fill-rule="evenodd" clip-rule="evenodd" fill="#191919" d="M76.94,73.342c0.344-0.583,0.809-1.048,1.392-1.395
	C77.987,72.531,77.522,72.995,76.94,73.342z"/>
<path fill-rule="evenodd" clip-rule="evenodd" fill="#191919" d="M64.953,3.664c0.77,0.533,1.419,1.183,1.952,1.951
	C66.138,5.082,65.488,4.431,64.953,3.664z"/>
<path fill-rule="evenodd" clip-rule="evenodd" fill="#191919" d="M32.345,19.271c0.583,0.346,1.048,0.811,1.394,1.394
	C33.156,20.319,32.692,19.855,32.345,19.271z"/>
<path fill-rule="evenodd" clip-rule="evenodd" fill="#191919" d="M34.296,20.944c0.491,0.252,0.864,0.624,1.115,1.115
	C34.919,21.807,34.548,21.435,34.296,20.944z"/>
<path fill-rule="evenodd" clip-rule="evenodd" fill="#191919" d="M36.247,22.616c0.583,0.346,1.047,0.811,1.394,1.394
	C37.058,23.664,36.593,23.199,36.247,22.616z"/>
<path fill-rule="evenodd" clip-rule="evenodd" fill="#191919" d="M38.199,24.289c0.583,0.346,1.047,0.811,1.393,1.394
	C39.009,25.336,38.544,24.872,38.199,24.289z"/>
<path fill-rule="evenodd" clip-rule="evenodd" fill="#191919" d="M40.149,25.961c0.583,0.346,1.048,0.811,1.394,1.394
	C40.959,27.008,40.496,26.544,40.149,25.961z"/>
<path fill-rule="evenodd" clip-rule="evenodd" fill="#191919" d="M42.101,27.633c0.583,0.346,1.048,0.811,1.393,1.394
	C42.91,28.681,42.446,28.216,42.101,27.633z"/>
<path fill-rule="evenodd" clip-rule="evenodd" fill="#191919" d="M44.33,29.584c0.491,0.252,0.862,0.624,1.114,1.115
	C44.953,30.447,44.581,30.076,44.33,29.584z"/>
<path fill-rule="evenodd" clip-rule="evenodd" fill="#191919" d="M46.282,31.256c0.49,0.252,0.861,0.623,1.113,1.114
	C46.905,32.119,46.532,31.748,46.282,31.256z"/>
<path fill-rule="evenodd" clip-rule="evenodd" fill="#191919" d="M48.231,32.929c0.492,0.251,0.863,0.623,1.115,1.114
	C48.856,33.792,48.483,33.42,48.231,32.929z"/>
<path fill-rule="evenodd" clip-rule="evenodd" fill="#191919" d="M50.183,34.601c0.49,0.252,0.863,0.624,1.116,1.115
	C50.806,35.464,50.435,35.092,50.183,34.601z"/>
<path fill-rule="evenodd" clip-rule="evenodd" fill="#191919" d="M52.134,36.273c0.491,0.252,0.863,0.624,1.116,1.115
	C52.757,37.136,52.386,36.764,52.134,36.273z"/>
<path fill-rule="evenodd" clip-rule="evenodd" fill="#191919" d="M54.085,37.945c0.491,0.252,0.863,0.624,1.114,1.115
	C54.708,38.809,54.338,38.437,54.085,37.945z"/>
<path fill-rule="evenodd" clip-rule="evenodd" fill="#191919" d="M56.036,39.618c0.491,0.252,0.863,0.624,1.114,1.115
	C56.659,40.48,56.287,40.109,56.036,39.618z"/>
<path fill-rule="evenodd" clip-rule="evenodd" fill="#191919" d="M57.987,41.29c0.491,0.252,0.862,0.623,1.114,1.115
	C58.61,42.153,58.238,41.781,57.987,41.29z"/>
<path fill-rule="evenodd" clip-rule="evenodd" fill="#191919" d="M59.938,42.962c0.49,0.251,0.863,0.624,1.115,1.115
	C60.563,43.825,60.189,43.454,59.938,42.962z"/>
<path fill-rule="evenodd" clip-rule="evenodd" fill="#191919" d="M61.889,44.634c0.49,0.252,0.863,0.624,1.115,1.115
	C62.512,45.498,62.141,45.126,61.889,44.634z"/>
<path fill-rule="evenodd" clip-rule="evenodd" fill="#191919" d="M63.84,46.307c0.49,0.252,0.863,0.624,1.113,1.115
	C64.463,47.17,64.092,46.798,63.84,46.307z"/>
<path fill-rule="evenodd" clip-rule="evenodd" fill="#191919" d="M65.791,47.979c0.491,0.251,0.863,0.623,1.114,1.114
	C66.414,48.842,66.041,48.471,65.791,47.979z"/>
<path fill-rule="evenodd" clip-rule="evenodd" fill="#191919" d="M67.742,49.651c0.491,0.252,0.861,0.624,1.114,1.115
	C68.365,50.514,67.993,50.143,67.742,49.651z"/>
<path fill-rule="evenodd" clip-rule="evenodd" fill="#C4C4C4" d="M42.101,134.658c0.346-0.583,0.81-1.048,1.393-1.394
	c0,0.094,0,0.187,0,0.278c-0.49,0.253-0.862,0.624-1.114,1.115C42.285,134.658,42.192,134.658,42.101,134.658z"/>
<path fill-rule="evenodd" clip-rule="evenodd" fill="#C4C4C4" d="M17.016,115.706c-0.082-0.569-0.754-0.547-0.836-1.115
	c0.491,0.252,0.863,0.623,1.114,1.115C17.202,115.706,17.109,115.706,17.016,115.706z"/>
<path fill-rule="evenodd" clip-rule="evenodd" fill="#C4C4C4" d="M11.721,112.083c0.23-0.354,0.977-1.59,1.394-0.837
	c-0.093,0-0.186,0-0.279,0C12.267,111.328,12.289,112.001,11.721,112.083z"/>
<path fill-rule="evenodd" clip-rule="evenodd" fill="#C4C4C4" d="M6.146,109.573c0.733,0.29,0.939,1.106,1.672,1.395
	c0.237-0.051,0.263,0.108,0.279,0.278C7.073,111.063,6.709,110.219,6.146,109.573z"/>
<path fill-rule="evenodd" clip-rule="evenodd" fill="#787878" d="M9.77,110.411c0.346-0.584,0.81-1.049,1.393-1.395
	C10.817,109.6,10.353,110.064,9.77,110.411z"/>
<path fill-rule="evenodd" clip-rule="evenodd" fill="#787878" d="M18.131,112.919c0.492,0.252,0.863,0.623,1.115,1.114
	C18.754,113.781,18.382,113.41,18.131,112.919z"/>
<path fill-rule="evenodd" clip-rule="evenodd" fill="#323232" d="M19.246,114.033c1.974,1.742,3.832,3.6,5.574,5.574
	c-0.093,0-0.185,0-0.278,0C22.94,117.586,20.848,116.056,19.246,114.033z"/>
<path fill-rule="evenodd" clip-rule="evenodd" fill="#C4C4C4" d="M24.542,119.607c0.093,0,0.186,0,0.278,0
	c0.083,0.569,0.754,0.547,0.836,1.115C25.165,120.471,24.793,120.1,24.542,119.607z"/>
<path fill-rule="evenodd" clip-rule="evenodd" fill="#C4C4C4" d="M32.345,131.313c0.475,0.64,1.033,1.197,1.672,1.673
	C33.117,132.771,32.559,132.215,32.345,131.313z"/>
<path fill-rule="evenodd" clip-rule="evenodd" fill="#787878" d="M40.428,132.708c0.252-0.492,0.624-0.863,1.115-1.116
	C41.291,132.084,40.919,132.455,40.428,132.708z"/>
<path fill-rule="evenodd" clip-rule="evenodd" fill="#787878" d="M25.656,120.723c1.424-0.41,2.718-2.847,3.345-0.278
	c-0.693,0.515-1.573,0.842-1.951,1.672c-0.648-0.188-0.746-0.926-1.394-1.115C25.656,120.909,25.656,120.815,25.656,120.723z"/>
<path fill-rule="evenodd" clip-rule="evenodd" fill="#191919" d="M7.819,110.968c-0.733-0.288-0.939-1.104-1.672-1.395
	c0-0.092,0-0.185,0-0.278C6.822,109.734,7.379,110.293,7.819,110.968z"/>
<path fill-rule="evenodd" clip-rule="evenodd" fill="#787878" d="M57.429,58.292c-0.631,1.054,1.535,1.335,1.395,2.787
	c-0.366,0.098-0.438,0.491-0.836,0.557c-1.176-0.126-1.239-1.362-1.951-1.951c0-0.092,0-0.185,0-0.278
	C56.684,59.217,56.781,58.479,57.429,58.292z"/>
<path fill-rule="evenodd" clip-rule="evenodd" fill="#323232" d="M27.05,66.652c0.571-0.462,3.052-0.462,3.624,0
	C29.465,66.652,28.258,66.652,27.05,66.652z"/>
<path fill-rule="evenodd" clip-rule="evenodd" fill="#323232" d="M27.886,69.439c0.124-0.459,2.105-0.459,2.229,0
	C29.373,69.439,28.629,69.439,27.886,69.439z"/>
<path fill-rule="evenodd" clip-rule="evenodd" fill="#787878" d="M36.526,69.997c1.486,0,2.973,0,4.459,0
	C40.139,70.46,37.372,70.46,36.526,69.997z"/>
<path fill-rule="evenodd" clip-rule="evenodd" fill="#787878" d="M15.344,84.211c1.07,0.881,2.55,1.353,3.344,2.509
	c-0.498,0.524-0.754,1.29-1.394,1.673c-1.112-0.746-1.958-1.758-3.344-2.229C14.256,85.354,14.841,84.823,15.344,84.211z"/>
<path fill-rule="evenodd" clip-rule="evenodd" fill="#787878" d="M56.036,105.115c-0.799-0.502-1.867-0.734-2.508-1.394
	c0.372-0.184,0.519-0.596,0.557-1.115c1.282,0.019,1.81,0.793,2.787,1.115C56.545,104.139,56.525,104.861,56.036,105.115z"/>
<path fill-rule="evenodd" clip-rule="evenodd" fill="#323232" d="M12.557,108.46c-0.199-0.453,1.314-0.453,1.115,0
	C13.3,108.46,12.929,108.46,12.557,108.46z"/>
<path fill-rule="evenodd" clip-rule="evenodd" fill="#FFFFFF" d="M57.429,55.504c0.559,0,1.116,0,1.673,0
	c3.06,0.584,3.115,6.743,4.738,9.197c-0.082,0.717,0.541,0.666,0.835,0.836c0.72,0.417,1.192,0.835,1.951,1.115
	c1.322,0.725,2.735,1.273,4.182,1.952c1.408,0.66,3.053,1.249,3.902,2.508c0.565,0.911,0.325,2.997-0.28,3.623
	c-1.094,1.786-2.14,3.619-2.787,5.853c-4.271,7.898-8.146,16.196-12.263,24.249c-0.57,0.449-0.703,1.341-1.113,1.95
	c-4.436,9.315-8.757,18.742-14.773,26.478c-0.583,0.346-1.047,0.811-1.393,1.394c-0.761,0.912-1.821,1.523-3.345,1.672
	c-1.208,0-2.416,0-3.623,0c-1.342-0.145-2.187-0.785-3.065-1.394c-0.44-0.675-0.998-1.232-1.672-1.672
	c-2.069-3.041-3.237-6.981-5.853-9.476c-0.146-0.413-0.413-0.702-0.558-1.115c-0.093,0-0.186,0-0.278,0c0-0.093,0-0.187,0-0.278
	c-0.252-0.492-0.624-0.863-1.116-1.115c-1.601-2.022-3.693-3.553-5.295-5.574c-0.251-0.492-0.623-0.863-1.114-1.115
	c-1.249-0.888-2.004-2.269-3.066-3.345c-0.417-0.753-1.163,0.483-1.394,0.837c0,0.093,0,0.186,0,0.278
	c-0.505,0.702-1.085,1.33-2.23,1.394c-0.743,0-1.486,0-2.229,0c-0.519-0.038-0.931-0.184-1.115-0.558
	c-0.626-0.86-1.37-1.604-2.229-2.229c-0.64-0.373-0.83-1.085-1.394-1.673c-1.158-1.209-2.689-6.159-2.508-7.803
	c0.139-1.259,1.156-2.562,1.951-3.624c0.232-0.309,0.619-0.529,0.836-0.836c0.277-0.39,0.31-1.059,0.558-1.394
	c0.427-0.577,1.135-1.179,1.672-1.951c0.471-0.677,0.653-0.976,1.115-1.672c0.407-0.614,1.331-1.644,1.951-2.509
	c1.101-1.534,2.317-3.435,3.623-5.017c0.528-0.772,1.073-1.528,1.672-2.23c0.475-0.91,0.98-1.824,1.672-2.786
	c0.069-0.097,0.519-0.192,0.558-0.278c0.063-0.14-0.086-0.436,0-0.559c0.069-0.098,0.518-0.191,0.558-0.278
	c0.063-0.143-0.085-0.429,0-0.557c0.069-0.104,0.517-0.188,0.558-0.278c0.505-1.123,1.585-2.616,2.508-3.903
	c0.069-0.097,0.518-0.192,0.557-0.278c0.064-0.143-0.085-0.43,0-0.558c0.069-0.103,0.517-0.188,0.558-0.278
	c0.334-0.741,0.925-1.729,1.672-2.509c0.115-0.119,0.455-0.851,0.836-1.115c0.491-0.252,0.862-0.624,1.114-1.115
	c0.57-0.823,2-0.787,3.066-1.115c1.208,0,2.416,0,3.624,0c5.054,0.492,8.86,1.566,12.542-0.278c1.462-0.732,2.514-1.937,3.902-3.065
	c0.396-0.323,0.974-0.481,1.393-0.836c1.721-1.457,3.18-3.322,5.019-4.181c0.49-0.252,0.861-0.623,1.113-1.115
	c0.401-0.156,0.682-0.435,0.838-0.836C56.281,56.215,56.351,55.354,57.429,55.504z M57.429,58.292
	c-0.647,0.188-0.745,0.926-1.393,1.115c0,0.093,0,0.186,0,0.278c-0.094,0-0.186,0-0.278,0c-2.147,2.043-4.419,3.949-6.689,5.853
	c-2.199,1.845-4.558,4.042-8.083,4.459c-1.486,0-2.973,0-4.459,0c-2.317-0.005-3.948-0.697-6.411-0.558
	c-0.124-0.459-2.105-0.459-2.229,0c-1.169-0.146-1.557,0.487-2.508,0.558c-3.277,4.807-6.786,9.379-10.034,14.214
	c-0.503,0.612-1.088,1.143-1.394,1.952c-2.31,3.008-5.816,8.129-8.361,11.705c-0.816,1.146-2.649,3.005-2.788,4.181
	c-0.122,1.043,0.55,2.979,1.115,4.181c0.527,1.121,1.574,2.139,2.229,3.065c0,0.094,0,0.187,0,0.278
	c0.563,0.646,0.926,1.49,1.951,1.673c1.078,0.242,0.991-0.68,1.672-0.835c0.583-0.347,1.047-0.812,1.393-1.395
	c0.531-0.118,0.504-0.796,1.394-0.557c0.372,0,0.743,0,1.115,0c2.223,0.748,3.071,2.874,4.459,4.459
	c0.251,0.491,0.624,0.862,1.115,1.114c1.602,2.022,3.694,3.553,5.295,5.574c0.252,0.492,0.623,0.863,1.115,1.115
	c0,0.093,0,0.187,0,0.278c0.647,0.189,0.746,0.927,1.394,1.115c2.01,2.82,3.782,5.88,5.295,9.197
	c0.214,0.901,0.771,1.458,1.672,1.673c0.675,0.347,1.354,0.689,2.229,0.835c-0.125,0.456,1.52,0.456,1.394,0
	c0.969-0.331,2.007-0.594,2.787-1.113c0.492-0.253,0.863-0.624,1.115-1.116c0.478-1.101,1.279-2.051,1.951-3.065
	c4.876-7.362,8.564-15.549,12.543-23.411c0.489-0.254,0.509-0.977,0.836-1.394c3.805-8.049,7.665-15.826,11.706-23.412
	c1.35-2.535,2.734-5.262,3.622-8.083c-2.679-0.764-4.843-2.206-6.966-3.344c-0.705-0.377-2.076-0.779-2.509-1.115
	c-1.723-1.333-2.372-3.754-3.067-5.853c-0.433-1.307-0.309-3.235-1.671-3.623C57.802,58.292,57.615,58.292,57.429,58.292z"/>
<path fill-rule="evenodd" clip-rule="evenodd" fill="#323232" d="M57.429,55.504c-0.046-0.457,1.719-0.457,1.673,0
	C58.545,55.504,57.987,55.504,57.429,55.504z"/>
<path fill-rule="evenodd" clip-rule="evenodd" fill="#C4C4C4" d="M7.261,113.755c0.743,0,1.486,0,2.229,0
	C9.367,114.215,7.385,114.215,7.261,113.755z"/>
<path fill-rule="evenodd" clip-rule="evenodd" fill="#787878" d="M35.132,136.33c1.208,0,2.416,0,3.623,0
	C38.184,136.793,35.704,136.793,35.132,136.33z"/>
</svg>
