<?xml version="1.0" encoding="utf-8"?>
<!-- Generator: Adobe Illustrator 15.0.0, SVG Export Plug-In  -->
<!DOCTYPE svg PUBLIC "-//W3C//DTD SVG 1.1//EN" "http://www.w3.org/Graphics/SVG/1.1/DTD/svg11.dtd" [
	<!ENTITY ns_flows "http://ns.adobe.com/Flows/1.0/">
]>
<svg version="1.1"
	 xmlns="http://www.w3.org/2000/svg" xmlns:xlink="http://www.w3.org/1999/xlink" xmlns:a="http://ns.adobe.com/AdobeSVGViewerExtensions/3.0/"
	 x="0px" y="0px" width="142px" height="142px" viewBox="-30.087 -1.758 142 142" enable-background="new -30.087 -1.758 142 142"
	 xml:space="preserve">
<defs>
</defs>
<path fill-rule="evenodd" clip-rule="evenodd" fill="#797979" d="M34.295,0.037c0.094,0,0.187,0,0.279,0
	c0.047,0.417-0.1,1.028,0.278,1.115c0,0.278,0,0.557,0,0.836c0.153,0.404-0.326,1.44,0.279,1.393c0,0.186,0,0.372,0,0.558
	c-0.062,0.217-0.233,0.325-0.557,0.279c-0.441,0.023-1.063-0.134-1.115,0.279c-0.093,0-0.186,0-0.278,0
	c-0.023-0.441,0.134-1.063-0.278-1.115c0-0.278,0-0.557,0-0.836c-0.153-0.405,0.325-1.44-0.28-1.393
	c-0.023-0.396-0.045-0.79,0.28-0.836C33.306,0.164,34.342,0.641,34.295,0.037z"/>
<path fill-rule="evenodd" clip-rule="evenodd" fill="#343434" d="M32.902,3.381c0.412,0.052,0.255,0.674,0.278,1.115
	c-0.093,0-0.186,0-0.278,0C32.902,4.125,32.902,3.753,32.902,3.381z"/>
<path fill-rule="evenodd" clip-rule="evenodd" fill="#C4C4C4" d="M60.773,3.939c0.036-0.459,1.913-0.459,1.951,0
	C62.073,3.939,61.423,3.939,60.773,3.939z"/>
<path fill-rule="evenodd" clip-rule="evenodd" fill="#C4C4C4" d="M33.459,4.497c0.052-0.413,0.674-0.256,1.115-0.279
	C34.522,4.63,33.9,4.473,33.459,4.497z"/>
<path fill-rule="evenodd" clip-rule="evenodd" fill="#C4C4C4" d="M34.295,7.005c0.087-0.379,0.698-0.231,1.115-0.279
	C35.359,7.139,34.737,6.981,34.295,7.005z"/>
<path fill-rule="evenodd" clip-rule="evenodd" fill="#797979" d="M20.081,24.285c0.093,0,0.186,0,0.279,0c0,0.372,0,0.743,0,1.115
	c-0.093,0-0.186,0-0.279,0C20.081,25.028,20.081,24.657,20.081,24.285z"/>
<path fill-rule="evenodd" clip-rule="evenodd" fill="#C4C4C4" d="M22.869,25.121c0,0.372,0,0.743,0,1.115c-0.094,0-0.187,0-0.28,0
	C22.637,25.819,22.49,25.208,22.869,25.121z"/>
<path fill-rule="evenodd" clip-rule="evenodd" fill="#C4C4C4" d="M20.081,25.4c0.093,0,0.186,0,0.279,0
	c-0.023,0.441,0.134,1.063-0.279,1.115C20.081,26.143,20.081,25.771,20.081,25.4z"/>
<path fill-rule="evenodd" clip-rule="evenodd" fill="#C4C4C4" d="M14.507,26.236c0,0.465,0,0.929,0,1.394
	C14.052,27.755,14.052,26.111,14.507,26.236z"/>
<path fill-rule="evenodd" clip-rule="evenodd" fill="#797979" d="M72.199,30.138c0.378,0.086,0.232,0.697,0.28,1.115
	c-0.095,0-0.187,0-0.28,0C72.199,30.881,72.199,30.51,72.199,30.138z"/>
<path fill-rule="evenodd" clip-rule="evenodd" fill="#797979" d="M74.987,32.089c0.093,0,0.185,0,0.279,0c0,0.372,0,0.743,0,1.115
	C74.854,33.152,75.01,32.531,74.987,32.089z"/>
<path fill-rule="evenodd" clip-rule="evenodd" fill="#797979" d="M75.267,35.712c0.092,0,0.186,0,0.278,0c0,0.372,0,0.743,0,1.115
	c-0.093,0-0.187,0-0.278,0C75.267,36.455,75.267,36.084,75.267,35.712z"/>
<path fill-rule="evenodd" clip-rule="evenodd" fill="#C4C4C4" d="M75.267,36.827c0.092,0,0.186,0,0.278,0c0,0.371,0,0.744,0,1.115
	C75.132,37.89,75.288,37.269,75.267,36.827z"/>
<path fill-rule="evenodd" clip-rule="evenodd" fill="#797979" d="M21.196,54.665c0.372,0,0.743,0,1.115,0c0.558,0,1.115,0,1.672,0
	c0,0.186,0,0.372,0,0.558c0.43,1.172-1.442,0.044-1.394,0.836c-0.728-0.078-1.394-0.095-1.114,0.836
	C20.846,56.687,21.366,55.331,21.196,54.665z"/>
<path fill-rule="evenodd" clip-rule="evenodd" fill="#191919" d="M57.428,56.615c-0.124-0.455,1.521-0.455,1.395,0
	C58.357,56.615,57.893,56.615,57.428,56.615z"/>
<path fill-rule="evenodd" clip-rule="evenodd" fill="#191919" d="M69.69,56.895c-0.158,0.49,0.339,1.637-0.278,1.672
	C69.572,58.077,69.075,56.929,69.69,56.895z"/>
<path fill-rule="evenodd" clip-rule="evenodd" fill="#191919" d="M66.904,57.452c-0.152,0.405,0.326,1.44-0.279,1.394
	C66.777,58.44,66.301,57.405,66.904,57.452z"/>
<path fill-rule="evenodd" clip-rule="evenodd" fill="#191919" d="M26.77,67.764c0-0.092,0-0.185,0-0.278
	c1.214,0.18,3.15-0.364,3.902,0.278C29.372,67.764,28.07,67.764,26.77,67.764z"/>
<path fill-rule="evenodd" clip-rule="evenodd" fill="#191919" d="M31.787,67.764c0.417,0.048,1.029-0.1,1.116,0.279
	C32.485,67.995,31.873,68.142,31.787,67.764z"/>
<path fill-rule="evenodd" clip-rule="evenodd" fill="#191919" d="M34.017,68.042c0.417,0.047,1.028-0.1,1.115,0.279
	C34.715,68.274,34.103,68.421,34.017,68.042z"/>
<path fill-rule="evenodd" clip-rule="evenodd" fill="#191919" d="M36.525,68.321c0.417,0.048,1.029-0.099,1.115,0.279
	C37.223,68.552,36.611,68.7,36.525,68.321z"/>
<path fill-rule="evenodd" clip-rule="evenodd" fill="#191919" d="M27.049,70.551c0.663-0.462,3.239-0.462,3.902,0
	C29.65,70.551,28.35,70.551,27.049,70.551z"/>
<path fill-rule="evenodd" clip-rule="evenodd" fill="#191919" d="M32.066,70.551c0.417,0.048,1.028-0.1,1.115,0.279
	C32.763,70.782,32.152,70.93,32.066,70.551z"/>
<path fill-rule="evenodd" clip-rule="evenodd" fill="#191919" d="M34.295,70.83c0.417,0.048,1.029-0.1,1.115,0.278
	C34.993,71.062,34.382,71.208,34.295,70.83z"/>
<path fill-rule="evenodd" clip-rule="evenodd" fill="#191919" d="M36.525,71.108c1.394,0,2.787,0,4.181,0
	C39.951,71.571,37.28,71.571,36.525,71.108z"/>
<path fill-rule="evenodd" clip-rule="evenodd" fill="#C4C4C4" d="M36.246,134.933c0.465,0,0.929,0,1.394,0
	C37.766,135.389,36.121,135.389,36.246,134.933z"/>
<path fill-rule="evenodd" clip-rule="evenodd" fill="#C4C4C4" d="M19.802,10.628c0.44-0.675,0.998-1.233,1.672-1.672
	C21.035,9.631,20.478,10.188,19.802,10.628z"/>
<path fill-rule="evenodd" clip-rule="evenodd" fill="#797979" d="M12.834,30.138c0.491,0.251,0.863,0.623,1.115,1.115
	C13.458,31.001,13.086,30.629,12.834,30.138z"/>
<path fill-rule="evenodd" clip-rule="evenodd" fill="#191919" d="M20.639,31.253c0.082-0.568,0.754-0.546,0.836-1.115
	c0.093,0,0.186,0,0.279,0C21.501,30.629,21.13,31.001,20.639,31.253z"/>
<path fill-rule="evenodd" clip-rule="evenodd" fill="#797979" d="M18.13,54.943c0.237,0.052,0.263-0.108,0.279-0.278
	c0.246,0.253,0.048,0.822,0.278,1.672c-0.578,0.166-1.831-0.345-1.951,0.278c-0.396,0.024-0.79,0.046-0.836-0.278
	c0-0.372,0-0.743,0-1.115c0.186,0,0.372,0,0.557,0C16.948,55.062,18.096,55.559,18.13,54.943z"/>
<path fill-rule="evenodd" clip-rule="evenodd" fill="#797979" d="M3.916,112.079c0.86,0.626,1.603,1.369,2.229,2.229
	C5.285,113.683,4.542,112.939,3.916,112.079z"/>
<path fill-rule="evenodd" clip-rule="evenodd" fill="#191919" d="M11.72,113.473c0.252-0.491,0.624-0.862,1.115-1.115
	C12.583,112.85,12.211,113.221,11.72,113.473z"/>
<path fill-rule="evenodd" clip-rule="evenodd" fill="#343434" d="M17.015,116.817c0.093,0,0.186,0,0.278,0
	c1.602,2.021,3.694,3.552,5.295,5.574C20.615,120.649,18.757,118.792,17.015,116.817z"/>
<path fill-rule="evenodd" clip-rule="evenodd" fill="#797979" d="M22.589,122.392c0.492,0.252,0.864,0.623,1.116,1.115
	C23.213,123.254,22.841,122.883,22.589,122.392z"/>
<path fill-rule="evenodd" clip-rule="evenodd" fill="#797979" d="M30.394,134.376c0.675,0.439,1.232,0.997,1.672,1.672
	C31.391,135.609,30.833,135.051,30.394,134.376z"/>
<path fill-rule="evenodd" clip-rule="evenodd" fill="#191919" d="M42.378,135.77c0.252-0.491,0.624-0.862,1.114-1.115
	C43.241,135.146,42.869,135.518,42.378,135.77z"/>
<path fill-rule="evenodd" clip-rule="evenodd" fill="#C4C4C4" d="M71.921,81.143c0.252-0.492,0.625-0.863,1.115-1.116
	C72.784,80.519,72.413,80.891,71.921,81.143z"/>
<path fill-rule="evenodd" clip-rule="evenodd" fill="#343434" d="M79.169,76.125c0.25-0.49,0.623-0.862,1.113-1.115
	C80.03,75.502,79.659,75.874,79.169,76.125z"/>
<path fill-rule="evenodd" clip-rule="evenodd" fill="#797979" d="M67.183,3.103c0.492,0.252,0.863,0.624,1.115,1.115
	C67.808,3.966,67.435,3.594,67.183,3.103z"/>
<path fill-rule="evenodd" clip-rule="evenodd" fill="#797979" d="M81.396,72.224c0.054-1.818,0.088-3.618-0.557-4.738
	c0.848,0.643,1.783-0.486,3.067-0.279c-0.23,0.788,0.393,0.722,0.278,1.394c-0.897,0.124-1.511,0.534-2.509,0.558
	C81.501,70.096,82.035,71.747,81.396,72.224z"/>
<path fill-rule="evenodd" clip-rule="evenodd" fill="#C4C4C4" d="M42.1,135.77c0.346-0.583,0.81-1.048,1.393-1.394
	c0,0.094,0,0.187,0,0.278c-0.49,0.253-0.862,0.624-1.114,1.115C42.284,135.77,42.191,135.77,42.1,135.77z"/>
<path fill-rule="evenodd" clip-rule="evenodd" fill="#C4C4C4" d="M17.015,116.817c-0.082-0.569-0.754-0.547-0.836-1.115
	c0.491,0.252,0.863,0.623,1.114,1.115C17.201,116.817,17.108,116.817,17.015,116.817z"/>
<path fill-rule="evenodd" clip-rule="evenodd" fill="#C4C4C4" d="M19.523,40.729c0.252-0.491,0.624-0.863,1.115-1.115
	C20.387,40.105,20.015,40.478,19.523,40.729z"/>
<path fill-rule="evenodd" clip-rule="evenodd" fill="#C4C4C4" d="M20.36,31.253c0.251-0.492,0.624-0.863,1.115-1.115
	c-0.082,0.568-0.754,0.546-0.836,1.115C20.545,31.253,20.453,31.253,20.36,31.253z"/>
<path fill-rule="evenodd" clip-rule="evenodd" fill="#C4C4C4" d="M21.196,12.857c0.719-0.953,1.556-1.789,2.509-2.508
	C22.985,11.302,22.149,12.139,21.196,12.857z"/>
<path fill-rule="evenodd" clip-rule="evenodd" fill="#797979" d="M27.049,18.711c0.491,0.251,0.863,0.623,1.115,1.114
	C27.672,19.574,27.301,19.202,27.049,18.711z"/>
<path fill-rule="evenodd" clip-rule="evenodd" fill="#797979" d="M21.196,42.959c0.019-0.817,0.637-1.036,1.115-1.394
	C21.985,42.076,21.583,42.509,21.196,42.959z"/>
<path fill-rule="evenodd" clip-rule="evenodd" fill="#C4C4C4" d="M6.146,110.685c0.733,0.29,0.939,1.106,1.672,1.395
	c0.237-0.051,0.263,0.108,0.279,0.278C7.072,112.175,6.708,111.33,6.146,110.685z"/>
<path fill-rule="evenodd" clip-rule="evenodd" fill="#797979" d="M9.769,111.522c0.251-0.492,0.624-0.863,1.115-1.116
	C10.632,110.898,10.26,111.27,9.769,111.522z"/>
<path fill-rule="evenodd" clip-rule="evenodd" fill="#797979" d="M18.13,114.03c0.492,0.252,0.863,0.623,1.115,1.114
	C18.753,114.893,18.381,114.521,18.13,114.03z"/>
<path fill-rule="evenodd" clip-rule="evenodd" fill="#343434" d="M19.245,115.145c1.974,1.742,3.832,3.6,5.574,5.574
	c-0.093,0-0.185,0-0.278,0C22.939,118.697,20.847,117.167,19.245,115.145z"/>
<path fill-rule="evenodd" clip-rule="evenodd" fill="#C4C4C4" d="M24.541,120.719c0.093,0,0.186,0,0.278,0
	c0.083,0.569,0.754,0.547,0.836,1.115C25.164,121.582,24.792,121.211,24.541,120.719z"/>
<path fill-rule="evenodd" clip-rule="evenodd" fill="#797979" d="M27.606,124.342c0.981,0.637,1.617-1.055,2.788-1.114
	c0.099,0.366,0.491,0.438,0.557,0.836c-0.057,1.243-1.622,0.979-1.951,1.951C28.36,125.632,28.104,124.867,27.606,124.342z"/>
<path fill-rule="evenodd" clip-rule="evenodd" fill="#C4C4C4" d="M32.344,132.425c0.475,0.64,1.033,1.197,1.672,1.673
	C33.116,133.883,32.558,133.326,32.344,132.425z"/>
<path fill-rule="evenodd" clip-rule="evenodd" fill="#797979" d="M40.427,133.819c0.252-0.492,0.624-0.863,1.115-1.116
	C41.29,133.195,40.918,133.566,40.427,133.819z"/>
<path fill-rule="evenodd" clip-rule="evenodd" fill="#797979" d="M69.971,79.47c0.345-0.583,0.81-1.048,1.393-1.394
	C71.019,78.659,70.554,79.124,69.971,79.47z"/>
<path fill-rule="evenodd" clip-rule="evenodd" fill="#191919" d="M7.818,112.079c-0.733-0.288-0.939-1.104-1.672-1.395
	c0-0.092,0-0.185,0-0.278C6.821,110.846,7.378,111.404,7.818,112.079z"/>
<path fill-rule="evenodd" clip-rule="evenodd" fill="#191919" d="M47.395,68.042c0.253-0.491,0.623-0.863,1.114-1.115
	C48.258,67.419,47.886,67.791,47.395,68.042z"/>
<path fill-rule="evenodd" clip-rule="evenodd" fill="#191919" d="M49.067,66.649c0.251-0.491,0.623-0.863,1.114-1.115
	C49.931,66.026,49.559,66.397,49.067,66.649z"/>
<path fill-rule="evenodd" clip-rule="evenodd" fill="#191919" d="M52.689,63.583c0.253-0.492,0.623-0.863,1.116-1.115
	C53.554,62.96,53.181,63.332,52.689,63.583z"/>
<path fill-rule="evenodd" clip-rule="evenodd" fill="#191919" d="M56.313,60.518c0.253-0.491,0.623-0.863,1.114-1.115
	C57.178,59.894,56.805,60.266,56.313,60.518z"/>
<path fill-rule="evenodd" clip-rule="evenodd" fill="#191919" d="M57.706,59.403c0.076-0.657,1.234-0.17,1.116,0.278
	C58.445,59.594,58.289,59.285,57.706,59.403z"/>
<path fill-rule="evenodd" clip-rule="evenodd" fill="#191919" d="M67.741,50.763c0.491,0.252,0.861,0.624,1.114,1.115
	C68.364,51.625,67.992,51.254,67.741,50.763z"/>
<path fill-rule="evenodd" clip-rule="evenodd" fill="#191919" d="M65.79,49.091c0.491,0.251,0.863,0.623,1.114,1.114
	C66.413,49.954,66.04,49.582,65.79,49.091z"/>
<path fill-rule="evenodd" clip-rule="evenodd" fill="#191919" d="M63.839,47.418c0.49,0.252,0.863,0.624,1.113,1.115
	C64.462,48.281,64.091,47.909,63.839,47.418z"/>
<path fill-rule="evenodd" clip-rule="evenodd" fill="#191919" d="M61.888,45.746c0.49,0.252,0.863,0.624,1.115,1.115
	C62.511,46.609,62.14,46.237,61.888,45.746z"/>
<path fill-rule="evenodd" clip-rule="evenodd" fill="#191919" d="M59.937,44.074c0.49,0.251,0.863,0.624,1.115,1.115
	C60.562,44.937,60.188,44.565,59.937,44.074z"/>
<path fill-rule="evenodd" clip-rule="evenodd" fill="#191919" d="M57.986,42.401c0.491,0.252,0.862,0.623,1.114,1.115
	C58.609,43.264,58.237,42.893,57.986,42.401z"/>
<path fill-rule="evenodd" clip-rule="evenodd" fill="#191919" d="M56.035,40.729c0.491,0.252,0.863,0.624,1.114,1.115
	C56.658,41.592,56.286,41.221,56.035,40.729z"/>
<path fill-rule="evenodd" clip-rule="evenodd" fill="#191919" d="M54.084,39.057c0.491,0.252,0.863,0.624,1.114,1.115
	C54.707,39.92,54.337,39.548,54.084,39.057z"/>
<path fill-rule="evenodd" clip-rule="evenodd" fill="#191919" d="M52.133,37.384c0.491,0.252,0.863,0.624,1.116,1.115
	C52.756,38.248,52.385,37.875,52.133,37.384z"/>
<path fill-rule="evenodd" clip-rule="evenodd" fill="#191919" d="M50.182,35.712c0.49,0.252,0.863,0.624,1.116,1.115
	C50.805,36.575,50.434,36.204,50.182,35.712z"/>
<path fill-rule="evenodd" clip-rule="evenodd" fill="#191919" d="M48.23,34.04c0.492,0.251,0.863,0.623,1.115,1.114
	C48.855,34.903,48.482,34.531,48.23,34.04z"/>
<path fill-rule="evenodd" clip-rule="evenodd" fill="#191919" d="M46.281,32.368c0.49,0.252,0.861,0.623,1.113,1.114
	C46.904,33.23,46.531,32.859,46.281,32.368z"/>
<path fill-rule="evenodd" clip-rule="evenodd" fill="#191919" d="M44.329,30.695c0.491,0.252,0.862,0.624,1.114,1.115
	C44.952,31.559,44.58,31.187,44.329,30.695z"/>
<path fill-rule="evenodd" clip-rule="evenodd" fill="#191919" d="M42.378,29.023c0.491,0.252,0.863,0.624,1.114,1.115
	C43.002,29.887,42.63,29.514,42.378,29.023z"/>
<path fill-rule="evenodd" clip-rule="evenodd" fill="#191919" d="M40.148,27.072c0.583,0.346,1.048,0.811,1.394,1.394
	C40.958,28.12,40.495,27.655,40.148,27.072z"/>
<path fill-rule="evenodd" clip-rule="evenodd" fill="#191919" d="M38.198,25.4c0.583,0.346,1.047,0.811,1.393,1.394
	C39.008,26.447,38.543,25.983,38.198,25.4z"/>
<path fill-rule="evenodd" clip-rule="evenodd" fill="#191919" d="M36.246,23.728c0.583,0.346,1.047,0.811,1.394,1.394
	C37.057,24.775,36.592,24.311,36.246,23.728z"/>
<path fill-rule="evenodd" clip-rule="evenodd" fill="#191919" d="M34.295,22.055c0.491,0.252,0.864,0.624,1.115,1.115
	C34.918,22.918,34.547,22.546,34.295,22.055z"/>
<path fill-rule="evenodd" clip-rule="evenodd" fill="#191919" d="M32.344,20.383c0.583,0.346,1.048,0.811,1.394,1.394
	C33.155,21.431,32.691,20.966,32.344,20.383z"/>
<path fill-rule="evenodd" clip-rule="evenodd" fill="#797979" d="M34.295,7.005c0.442-0.024,1.064,0.133,1.115-0.279
	c0.279,0,0.558,0,0.836,0c-0.062,0.217-0.233,0.324-0.557,0.279c0,0.557,0,1.115,0,1.671c0.152,0.405-0.326,1.441,0.279,1.394
	c0,0.278,0,0.558,0,0.836c-0.405,0.153-1.441-0.326-1.394,0.279c-0.186,0-0.372,0-0.558,0c-0.023-0.441,0.134-1.063-0.278-1.115
	c0-0.279,0-0.558,0-0.836c-0.152-0.405,0.325-1.441-0.279-1.394c0.036-0.5-0.277-0.652-0.836-0.557
	C32.658,6.668,33.805,7.166,34.295,7.005z"/>
<path fill-rule="evenodd" clip-rule="evenodd" fill="#343434" d="M23.425,18.154c3.345-1.583,7.323,0.286,8.919,2.229
	c0.347,0.583,0.811,1.048,1.394,1.394c0.279-0.001,0.332,0.225,0.557,0.278c0.252,0.491,0.624,0.863,1.115,1.115
	c0.398,0.067,0.47,0.459,0.836,0.558c0.346,0.583,0.811,1.048,1.394,1.394c0.28,0,0.332,0.226,0.558,0.279
	c0.346,0.583,0.81,1.047,1.393,1.394c0.28-0.001,0.332,0.225,0.558,0.278c0.347,0.583,0.811,1.047,1.394,1.394
	c0.399,0.066,0.47,0.459,0.836,0.557c0.252,0.491,0.624,0.864,1.114,1.115c0.398,0.066,0.471,0.458,0.837,0.557
	c0.251,0.492,0.623,0.863,1.114,1.115c0.398,0.067,0.471,0.459,0.838,0.558c0.25,0.491,0.623,0.863,1.113,1.114
	c0.398,0.067,0.471,0.459,0.836,0.558c0.252,0.491,0.625,0.863,1.115,1.114c0.399,0.067,0.469,0.459,0.836,0.558
	c0.252,0.492,0.623,0.863,1.116,1.115c0.396,0.066,0.469,0.459,0.835,0.557c0.252,0.491,0.623,0.863,1.116,1.115
	c0.396,0.067,0.469,0.459,0.835,0.558c0.253,0.491,0.623,0.863,1.114,1.115c0.398,0.067,0.471,0.459,0.837,0.558
	c0.251,0.492,0.623,0.863,1.114,1.115c0.398,0.067,0.471,0.459,0.837,0.558c0.251,0.491,0.623,0.863,1.114,1.115
	c0.398,0.067,0.471,0.459,0.836,0.558c0.252,0.491,0.625,0.863,1.115,1.115c0.396,0.067,0.471,0.459,0.836,0.557
	c0.252,0.492,0.623,0.863,1.115,1.115c0.397,0.066,0.469,0.459,0.836,0.557c0.252,0.491,0.623,0.863,1.113,1.115
	c0.399,0.066,0.472,0.458,0.838,0.558c0.25,0.491,0.623,0.863,1.114,1.114c0.398,0.067,0.471,0.459,0.837,0.558
	c0.251,0.492,0.623,0.863,1.114,1.115c1.029,0.92,0.848,3.055,0.835,5.017c-0.615,0.035-0.118,1.183-0.278,1.672
	c-0.499,3.748-1.509,10.083-5.017,10.312c-3.235,0.211-3.963-3.745-4.738-6.132c-0.334-1.033-0.711-2.077-0.835-3.066
	c0.118-0.449-1.04-0.935-1.116-0.278c-0.092,0-0.184,0-0.278,0c-0.491,0.252-0.861,0.624-1.114,1.115
	c-0.879,0.608-1.504,1.467-2.508,1.951c-0.493,0.252-0.863,0.624-1.116,1.115c-0.877,0.608-1.504,1.467-2.508,1.951
	c-0.491,0.252-0.863,0.624-1.114,1.115c-0.28,0-0.332,0.226-0.559,0.279c-0.491,0.252-0.861,0.624-1.114,1.115
	c-1.791,1.46-3.6,2.904-6.688,3.066c-1.394,0-2.788,0-4.181,0c-0.372,0-0.743,0-1.115,0c-0.086-0.378-0.698-0.23-1.115-0.278
	c-0.371,0-0.743,0-1.114,0c-0.086-0.379-0.698-0.231-1.115-0.279c-0.372,0-0.744,0-1.115,0c-0.663-0.462-3.239-0.462-3.902,0
	c-0.693-0.043-0.863,0.438-1.394,0.558c0.143-1.344,1.258-1.715,1.115-3.345c1.3,0,2.602,0,3.902,0c0.371,0,0.743,0,1.114,0
	c0.086,0.378,0.698,0.231,1.116,0.279c0.371,0,0.743,0,1.114,0c0.086,0.378,0.698,0.231,1.115,0.279c0.464,0,0.929,0,1.394,0
	c0.086,0.378,0.698,0.231,1.115,0.279c4.664,0.204,6.935-1.985,9.477-3.902c0.491-0.252,0.863-0.624,1.114-1.115
	c0.227-0.053,0.278-0.28,0.559-0.279c0.491-0.251,0.861-0.623,1.114-1.114c0.366-0.099,0.438-0.491,0.835-0.558
	c0.493-0.252,0.863-0.624,1.116-1.115c0.225-0.053,0.278-0.28,0.557-0.279c0.491-0.251,0.863-0.623,1.116-1.115
	c0.364-0.099,0.437-0.491,0.835-0.557c0.491-0.252,0.863-0.624,1.116-1.115c0.641-0.286,0.897-0.959,1.949-0.836
	c0.465,0,0.93,0,1.395,0c0.278,0,0.557,0,0.835,0c2.471,2.082,2.835,6.271,4.182,9.477c1.031-0.043,0.968-1.538,1.395-2.509
	c0.16-0.367,0.928-1.729,1.113-2.508c0.152-0.635,0.051-1.57,0.278-2.23c0.605,0.046,0.127-0.989,0.279-1.394
	c0-1.208,0-2.416,0-3.623c-0.345-0.583-0.81-1.048-1.393-1.394c-0.227-0.053-0.278-0.28-0.56-0.279
	c-0.25-0.491-0.623-0.863-1.113-1.115c-0.367-0.099-0.438-0.491-0.836-0.558c-0.347-0.583-0.811-1.047-1.394-1.393
	c-0.227-0.053-0.279-0.28-0.558-0.279c-0.347-0.583-0.812-1.048-1.395-1.394c-0.224-0.053-0.278-0.28-0.557-0.279
	c-0.347-0.583-0.812-1.047-1.395-1.394c-0.225-0.053-0.276-0.28-0.557-0.279c-0.347-0.583-0.812-1.047-1.393-1.393
	c-0.227-0.053-0.278-0.28-0.559-0.279c-0.345-0.583-0.81-1.047-1.393-1.394c-0.227-0.053-0.278-0.28-0.557-0.278
	c-0.347-0.583-0.812-1.048-1.395-1.394c-0.367-0.099-0.438-0.49-0.836-0.558c-0.252-0.491-0.625-0.863-1.115-1.115
	c-0.367-0.099-0.439-0.491-0.836-0.558c-0.252-0.491-0.623-0.863-1.115-1.115c-0.365-0.098-0.438-0.491-0.836-0.557
	c-0.252-0.491-0.623-0.863-1.116-1.115c-0.364-0.098-0.437-0.49-0.835-0.558c-0.253-0.491-0.623-0.863-1.114-1.114
	c-0.367-0.099-0.438-0.491-0.837-0.558c-0.251-0.491-0.624-0.862-1.114-1.114c-0.366-0.099-0.439-0.491-0.837-0.558
	c-0.251-0.491-0.623-0.863-1.115-1.115c-0.366-0.099-0.438-0.491-0.836-0.557c-0.251-0.492-0.623-0.863-1.114-1.115
	c-0.367-0.098-0.439-0.491-0.836-0.557c-0.252-0.492-0.624-0.863-1.115-1.115c-0.366-0.099-0.438-0.49-0.836-0.557
	c-0.251-0.492-0.624-0.864-1.115-1.115c-0.366-0.099-0.438-0.491-0.836-0.558c-0.252-0.492-0.623-0.863-1.115-1.115
	c-0.366-0.098-0.438-0.49-0.836-0.557c-0.359-0.478-0.577-1.096-1.394-1.115c-0.877-0.609-1.412-1.561-1.951-2.509
	c-0.252-0.491-0.624-0.863-1.115-1.114C26.197,18.169,24.898,18.074,23.425,18.154z"/>
<path fill-rule="evenodd" clip-rule="evenodd" fill="#191919" d="M47.116,64.698c0.253-0.491,0.623-0.863,1.114-1.115
	C47.979,64.075,47.607,64.446,47.116,64.698z"/>
<path fill-rule="evenodd" clip-rule="evenodd" fill="#191919" d="M48.789,63.304c0.251-0.491,0.623-0.862,1.114-1.114
	C49.65,62.681,49.28,63.053,48.789,63.304z"/>
<path fill-rule="evenodd" clip-rule="evenodd" fill="#191919" d="M50.738,61.632c0.253-0.491,0.625-0.863,1.116-1.115
	C51.602,61.009,51.231,61.38,50.738,61.632z"/>
<path fill-rule="evenodd" clip-rule="evenodd" fill="#191919" d="M52.411,60.239c0.253-0.492,0.623-0.863,1.116-1.115
	C53.274,59.616,52.902,59.987,52.411,60.239z"/>
<path fill-rule="evenodd" clip-rule="evenodd" fill="#191919" d="M54.362,58.567c0.253-0.492,0.623-0.863,1.116-1.115
	C55.226,57.943,54.854,58.315,54.362,58.567z"/>
<path fill-rule="evenodd" clip-rule="evenodd" fill="#191919" d="M65.512,52.435c0.583,0.346,1.048,0.81,1.393,1.394
	C66.321,53.482,65.856,53.018,65.512,52.435z"/>
<path fill-rule="evenodd" clip-rule="evenodd" fill="#191919" d="M63.839,51.042c0.49,0.251,0.863,0.624,1.113,1.115
	C64.462,51.904,64.091,51.533,63.839,51.042z"/>
<path fill-rule="evenodd" clip-rule="evenodd" fill="#191919" d="M61.609,49.091c0.583,0.345,1.047,0.81,1.394,1.393
	C62.42,50.138,61.955,49.673,61.609,49.091z"/>
<path fill-rule="evenodd" clip-rule="evenodd" fill="#191919" d="M59.657,47.418c0.583,0.346,1.048,0.811,1.395,1.394
	C60.469,48.466,60.004,48.001,59.657,47.418z"/>
<path fill-rule="evenodd" clip-rule="evenodd" fill="#191919" d="M57.706,45.746c0.583,0.347,1.048,0.811,1.395,1.394
	C58.518,46.793,58.053,46.329,57.706,45.746z"/>
<path fill-rule="evenodd" clip-rule="evenodd" fill="#191919" d="M55.757,44.074c0.581,0.346,1.046,0.81,1.393,1.393
	C56.566,45.121,56.102,44.657,55.757,44.074z"/>
<path fill-rule="evenodd" clip-rule="evenodd" fill="#191919" d="M53.806,42.401c0.583,0.346,1.048,0.811,1.393,1.394
	C54.615,43.449,54.15,42.984,53.806,42.401z"/>
<path fill-rule="evenodd" clip-rule="evenodd" fill="#191919" d="M51.854,40.729c0.583,0.346,1.048,0.811,1.395,1.394
	C52.664,41.777,52.201,41.312,51.854,40.729z"/>
<path fill-rule="evenodd" clip-rule="evenodd" fill="#191919" d="M49.903,39.057c0.49,0.252,0.863,0.624,1.115,1.115
	C50.526,39.92,50.155,39.548,49.903,39.057z"/>
<path fill-rule="evenodd" clip-rule="evenodd" fill="#191919" d="M47.952,37.384c0.492,0.252,0.863,0.624,1.115,1.115
	C48.575,38.248,48.204,37.875,47.952,37.384z"/>
<path fill-rule="evenodd" clip-rule="evenodd" fill="#191919" d="M46,35.712c0.493,0.252,0.864,0.624,1.116,1.115
	C46.625,36.575,46.253,36.204,46,35.712z"/>
<path fill-rule="evenodd" clip-rule="evenodd" fill="#191919" d="M44.051,34.04c0.491,0.251,0.861,0.623,1.114,1.114
	C44.674,34.903,44.302,34.531,44.051,34.04z"/>
<path fill-rule="evenodd" clip-rule="evenodd" fill="#191919" d="M42.1,32.368c0.49,0.252,0.863,0.623,1.114,1.114
	C42.724,33.23,42.351,32.859,42.1,32.368z"/>
<path fill-rule="evenodd" clip-rule="evenodd" fill="#191919" d="M40.148,30.695c0.492,0.252,0.863,0.624,1.115,1.115
	C40.772,31.559,40.4,31.187,40.148,30.695z"/>
<path fill-rule="evenodd" clip-rule="evenodd" fill="#191919" d="M38.198,29.023c0.491,0.252,0.863,0.624,1.114,1.115
	C38.821,29.887,38.449,29.514,38.198,29.023z"/>
<path fill-rule="evenodd" clip-rule="evenodd" fill="#191919" d="M36.246,27.351c0.492,0.252,0.863,0.624,1.115,1.115
	C36.87,28.214,36.498,27.842,36.246,27.351z"/>
<path fill-rule="evenodd" clip-rule="evenodd" fill="#191919" d="M34.295,25.679c0.491,0.251,0.864,0.623,1.115,1.115
	C34.918,26.542,34.547,26.17,34.295,25.679z"/>
<path fill-rule="evenodd" clip-rule="evenodd" fill="#191919" d="M32.344,24.006c0.492,0.252,0.863,0.624,1.115,1.115
	C32.968,24.87,32.596,24.498,32.344,24.006z"/>
<path fill-rule="evenodd" clip-rule="evenodd" fill="#191919" d="M30.114,22.334c0.817,0.019,1.035,0.637,1.394,1.115
	c-0.401,0.148-0.68-1.086-0.836-0.279C30.412,22.966,30.25,22.663,30.114,22.334z"/>
<path fill-rule="evenodd" clip-rule="evenodd" fill="#343434" d="M23.983,55.222c0.888,0.552-0.562,1.084-1.394,0.836
	C22.541,55.266,24.413,56.395,23.983,55.222z"/>
<path fill-rule="evenodd" clip-rule="evenodd" fill="#343434" d="M32.902,0.316c-0.047-0.604,0.988-0.126,1.393-0.279
	C34.342,0.641,33.306,0.164,32.902,0.316z"/>
<path fill-rule="evenodd" clip-rule="evenodd" fill="#343434" d="M34.574,0.037c0.378,0.086,0.231,0.698,0.278,1.115
	C34.474,1.065,34.622,0.454,34.574,0.037z"/>
<path fill-rule="evenodd" clip-rule="evenodd" fill="#797979" d="M58.822,1.431c0.206-0.628,1.563-0.109,2.229-0.278
	c0,0.092,0,0.185,0,0.278C60.309,1.431,59.565,1.431,58.822,1.431z"/>
<path fill-rule="evenodd" clip-rule="evenodd" fill="#C4C4C4" d="M61.052,1.152c0.756,0.172,2.212-0.354,2.509,0.278
	c-0.836,0-1.673,0-2.509,0C61.052,1.337,61.052,1.245,61.052,1.152z"/>
<path fill-rule="evenodd" clip-rule="evenodd" fill="#343434" d="M32.623,1.152c0.605-0.047,0.127,0.988,0.28,1.393
	C32.298,2.593,32.775,1.557,32.623,1.152z"/>
<path fill-rule="evenodd" clip-rule="evenodd" fill="#343434" d="M34.853,1.988c0.604-0.047,0.126,0.988,0.279,1.393
	C34.527,3.429,35.005,2.393,34.853,1.988z"/>
<path fill-rule="evenodd" clip-rule="evenodd" fill="#343434" d="M59.101,4.218c0.086-0.378,0.697-0.231,1.116-0.279
	C60.164,4.352,59.541,4.195,59.101,4.218z"/>
<path fill-rule="evenodd" clip-rule="evenodd" fill="#343434" d="M33.459,7.841c0.604-0.047,0.127,0.989,0.279,1.394
	C33.133,9.282,33.611,8.246,33.459,7.841z"/>
<path fill-rule="evenodd" clip-rule="evenodd" fill="#343434" d="M35.689,8.677c0.604-0.046,0.126,0.989,0.279,1.394
	C35.363,10.118,35.841,9.082,35.689,8.677z"/>
<path fill-rule="evenodd" clip-rule="evenodd" fill="#343434" d="M33.738,10.071c0.413,0.052,0.255,0.674,0.278,1.115
	C33.604,11.134,33.761,10.512,33.738,10.071z"/>
<path fill-rule="evenodd" clip-rule="evenodd" fill="#343434" d="M34.574,11.186c-0.047-0.604,0.988-0.126,1.394-0.279
	C36.015,11.511,34.979,11.033,34.574,11.186z"/>
<path fill-rule="evenodd" clip-rule="evenodd" fill="#343434" d="M23.983,20.94c-0.125-0.456,1.519-0.456,1.394,0
	C24.912,20.94,24.448,20.94,23.983,20.94z"/>
<path fill-rule="evenodd" clip-rule="evenodd" fill="#343434" d="M20.36,22.891c0,0.465,0,0.93,0,1.394c-0.093,0-0.186,0-0.279,0
	C20.233,23.88,19.755,22.845,20.36,22.891z"/>
<path fill-rule="evenodd" clip-rule="evenodd" fill="#343434" d="M23.147,23.17c-0.16,0.49,0.336,1.638-0.278,1.672
	C23.028,24.353,22.532,23.205,23.147,23.17z"/>
<path fill-rule="evenodd" clip-rule="evenodd" fill="#797979" d="M22.589,27.908c0-0.558,0-1.114,0-1.672c0.093,0,0.186,0,0.28,0
	C22.708,26.726,23.205,27.874,22.589,27.908z"/>
<path fill-rule="evenodd" clip-rule="evenodd" fill="#343434" d="M74.709,27.351c0.377,0.087,0.23,0.698,0.278,1.115
	c-0.094,0-0.186,0-0.278,0C74.709,28.094,74.709,27.722,74.709,27.351z"/>
<path fill-rule="evenodd" clip-rule="evenodd" fill="#343434" d="M31.229,29.302c0.455-0.126,0.455,1.519,0,1.393
	C31.229,30.231,31.229,29.766,31.229,29.302z"/>
<path fill-rule="evenodd" clip-rule="evenodd" fill="#343434" d="M74.987,30.695c0.605-0.046,0.127,0.989,0.279,1.394
	c-0.095,0-0.187,0-0.279,0C74.987,31.625,74.987,31.16,74.987,30.695z"/>
<path fill-rule="evenodd" clip-rule="evenodd" fill="#343434" d="M72.479,31.253c0,0.372,0,0.743,0,1.115
	c-0.413-0.052-0.257-0.673-0.28-1.115C72.293,31.253,72.385,31.253,72.479,31.253z"/>
<path fill-rule="evenodd" clip-rule="evenodd" fill="#797979" d="M15.9,32.089c0.836,0,1.672,0,2.509,0
	C18.197,32.549,16.112,32.549,15.9,32.089z"/>
<path fill-rule="evenodd" clip-rule="evenodd" fill="#C4C4C4" d="M72.479,32.925c0.623,0.12,0.112,1.373,0.278,1.951
	c-0.094,0-0.187,0-0.278,0C72.479,34.226,72.479,33.575,72.479,32.925z"/>
<path fill-rule="evenodd" clip-rule="evenodd" fill="#343434" d="M75.267,34.598c0.378,0.086,0.229,0.698,0.278,1.114
	c-0.093,0-0.187,0-0.278,0C75.267,35.341,75.267,34.969,75.267,34.598z"/>
<path fill-rule="evenodd" clip-rule="evenodd" fill="#343434" d="M72.758,34.876c0,0.465,0,0.929,0,1.394
	c-0.604,0.046-0.126-0.989-0.278-1.394C72.571,34.876,72.664,34.876,72.758,34.876z"/>
<path fill-rule="evenodd" clip-rule="evenodd" fill="#C4C4C4" d="M72.758,36.827c0.623,0.12,0.112,1.374,0.278,1.951
	c-0.092,0-0.187,0-0.278,0C72.758,38.127,72.758,37.478,72.758,36.827z"/>
<path fill-rule="evenodd" clip-rule="evenodd" fill="#343434" d="M75.545,38.499c0.378,0.087,0.23,0.698,0.278,1.115
	C75.41,39.563,75.566,38.941,75.545,38.499z"/>
<path fill-rule="evenodd" clip-rule="evenodd" fill="#343434" d="M73.036,38.778c0,0.372,0,0.743,0,1.115
	c-0.412-0.052-0.256-0.674-0.278-1.115C72.85,38.778,72.944,38.778,73.036,38.778z"/>
<path fill-rule="evenodd" clip-rule="evenodd" fill="#797979" d="M17.852,44.352c0,1.022,0,2.044,0,3.066
	C17.39,47.028,17.39,44.743,17.852,44.352z"/>
<path fill-rule="evenodd" clip-rule="evenodd" fill="#797979" d="M79.447,51.599c0-0.929,0-1.858,0-2.788
	C79.908,49.112,79.908,51.298,79.447,51.599z"/>
<path fill-rule="evenodd" clip-rule="evenodd" fill="#343434" d="M15.9,55.222c0,0.372,0,0.743,0,1.115
	C15.448,56.536,15.448,55.023,15.9,55.222z"/>
<path fill-rule="evenodd" clip-rule="evenodd" fill="#343434" d="M16.737,56.615c0.12-0.623,1.373-0.112,1.951-0.278
	c0,0.093,0,0.186,0,0.278C18.037,56.615,17.387,56.615,16.737,56.615z"/>
<path fill-rule="evenodd" clip-rule="evenodd" fill="#343434" d="M74.429,59.124c0,0.929,0,1.858,0,2.787
	C73.968,61.61,73.968,59.424,74.429,59.124z"/>
<path fill-rule="evenodd" clip-rule="evenodd" fill="#797979" d="M78.053,68.321c0.549,0.473,0.747,1.296,0.836,2.229
	c-0.581-0.607-0.796,0.14-1.671,0c-0.373,0-0.743,0-1.116,0C74.77,68.797,77.937,69.518,78.053,68.321z"/>
<path fill-rule="evenodd" clip-rule="evenodd" fill="#343434" d="M76.102,70.551c0.373,0,0.743,0,1.116,0
	C77.416,71.003,75.903,71.003,76.102,70.551z"/>
<path fill-rule="evenodd" clip-rule="evenodd" fill="#343434" d="M12.277,109.571c-0.125-0.456,1.52-0.456,1.394,0
	C13.206,109.571,12.741,109.571,12.277,109.571z"/>
<path fill-rule="evenodd" clip-rule="evenodd" fill="#797979" d="M26.77,127.687c-1.208,0.187-1.498,1.29-2.787,1.394
	c0.208-0.857-0.765-0.535-0.558-1.394c1.042-0.165,1.441-0.975,2.23-1.394c0.491,0.253,0.46,1.026,1.115,1.115
	C26.77,127.5,26.77,127.594,26.77,127.687z"/>
<path fill-rule="evenodd" clip-rule="evenodd" fill="#FFFFFF" d="M35.131,3.939c8.188-0.545,15.593-1.874,23.691-2.508
	c0.743,0,1.486,0,2.229,0c0.836,0,1.673,0,2.509,0c1.603,0.162,2.687,0.843,3.622,1.672c0.252,0.491,0.625,0.863,1.115,1.115
	c1.331,1.026,2.021,3.637,2.787,5.853c1.671,4.836,3.214,10.95,3.624,17.28c0,0.372,0,0.743,0,1.115
	c0.164,0.577-0.345,1.831,0.278,1.951c0,0.093,0,0.186,0,0.279c0,0.464,0,0.929,0,1.394c0.022,0.442-0.134,1.063,0.279,1.115
	c0,0.465,0,0.929,0,1.394c0,0.372,0,0.743,0,1.114c0,0.372,0,0.743,0,1.115c0.021,0.441-0.135,1.063,0.278,1.115
	c0,0.186,0,0.372,0,0.557c0.021,0.442-0.135,1.063,0.278,1.115c-0.145,4.418,2.877,5.671,3.624,9.197c0,0.929,0,1.858,0,2.788
	c-0.561,2.877-2.111,4.764-2.229,8.082c-0.459,0.038-0.459,1.913,0,1.951c0.418,2.739,2.612,3.705,3.622,5.853
	c0.645,1.12,0.61,2.92,0.557,4.738c-0.048,1.251-0.579,2.021-1.114,2.786c-0.49,0.253-0.863,0.625-1.113,1.115
	c-1.932,1.414-3.885,2.805-6.133,3.901c-0.49,0.253-0.863,0.624-1.115,1.116C64.9,94.19,58.618,108.119,51.576,121.556
	c-1.675,3.193-3.517,6.389-5.576,9.476c-0.313,0.469-0.819,0.944-1.113,1.394c-0.453,0.688-0.646,1.533-1.395,1.951
	c-0.583,0.346-1.047,0.811-1.393,1.394c-0.761,0.912-1.821,1.523-3.345,1.672c-1.208,0-2.416,0-3.623,0
	c-1.342-0.145-2.187-0.785-3.065-1.394c-0.44-0.675-0.998-1.232-1.672-1.672c-1.566-1.871-2.216-4.659-3.624-6.689
	c0-0.093,0-0.187,0-0.278c-0.654-0.089-0.624-0.862-1.115-1.115c-0.5-1.078-1.509-1.648-1.951-2.786
	c-0.252-0.492-0.624-0.863-1.116-1.115c-1.601-2.022-3.693-3.553-5.295-5.574c-0.251-0.492-0.623-0.863-1.114-1.115
	c-1.378-0.852-1.908-2.551-3.345-3.345c-0.491,0.253-0.863,0.624-1.115,1.115c-0.671,1.564-4.237,2.411-5.574,0.836
	c-0.626-0.86-1.37-1.604-2.229-2.229c-0.624-0.349-0.844-1.099-1.394-1.673c-1.171-1.222-2.682-6.231-2.508-7.803
	c0.163-1.473,1.6-3.085,2.787-4.738c2.595-3.616,4.815-6.849,7.525-10.591c0.499-0.689,1.188-1.264,1.672-1.952
	c1.432-2.032,2.845-4.391,4.459-6.688c0.453-0.645,1.18-1.273,1.672-1.952c0.189-0.261,0.071-0.612,0.279-0.836
	c0.467-0.502,1.309-1.65,1.951-2.509c0.215-0.287,0.61-0.518,0.836-0.836c0.263-0.371,0.242-0.967,0.558-1.394
	c0.478-0.646,2.25-2.348,2.229-3.066c-0.056-2.025-3.646-2.971-4.459-4.738c-0.61-1.325-0.445-2.364-0.558-3.344
	c-0.087-0.771-0.17-1.834-0.278-3.345c0-0.093,0-0.186,0-0.278c-0.23-0.85-0.033-1.419-0.278-1.672
	c0.036-2.638-0.594-4.609-0.558-7.247c0-1.022,0-2.043,0-3.066c0.112-1.653,0.804-2.726,1.672-3.623
	c0.491-0.251,0.863-0.624,1.115-1.115c0-0.093,0-0.186,0-0.279c1.906-1.267,3.938-2.576,5.853-3.902
	c1.804-1.249,4.213-2.276,4.738-4.738c0.455,0.126,0.455-1.519,0-1.393c-1.496-3.242-3.787-5.689-5.853-8.362
	c0.125-0.456-1.52-0.456-1.394,0c-0.729,0.293-0.912,1.132-0.836,2.229c-0.615,0.035-0.119,1.183-0.278,1.672
	c0,0.093,0,0.186,0,0.279c-0.379,0.086-0.231,0.698-0.28,1.115c0,0.558,0,1.115,0,1.672c0.065,1.086-0.598,1.445-0.835,2.23
	c-0.093,0-0.186,0-0.279,0c-0.491,0.251-0.863,0.623-1.115,1.115c-0.477,0.452-1.014,0.844-1.951,0.836c-0.836,0-1.672,0-2.509,0
	c-0.936,0.007-1.474-0.384-1.951-0.836c-0.252-0.492-0.624-0.863-1.115-1.115c-0.452-0.477-0.843-1.015-0.836-1.951
	c0-0.929,0-1.858,0-2.787c0.458-1.901,1.8-4.288,2.787-6.41c1.49-3.203,2.498-6.262,5.017-8.361c0.675-0.44,1.233-0.997,1.672-1.672
	c2.378-2.917,6.337-4.254,11.428-4.459c0.092,0,0.185,0,0.278,0c0.093,0,0.185,0,0.278,0c0.441-0.023,1.063,0.134,1.115-0.279
	C34.898,4.264,35.07,4.156,35.131,3.939z M60.773,3.939c-0.187,0-0.373,0-0.557,0c-0.419,0.047-1.03-0.1-1.116,0.279
	c-7.938,0.517-15.206,1.703-22.854,2.508c-0.278,0-0.557,0-0.836,0c-0.417,0.048-1.028-0.1-1.115,0.279
	c-0.49,0.16-1.637-0.337-1.672,0.278c-1.987,0.099-3.614,0.321-5.017,0.836c-1.57,0.576-2.513,1.612-3.901,2.229
	c-0.953,0.719-1.79,1.556-2.509,2.508c-0.452,1.168-1.32,1.97-1.951,3.066c-1.859,3.234-2.974,7.036-4.738,10.312
	c-0.455-0.125-0.455,1.52,0,1.394c0.747,2.895,5.891,2.312,5.574-1.115c0.413-0.051,0.256-0.673,0.279-1.115
	c0-0.372,0-0.743,0-1.115c0-0.464,0-0.929,0-1.394c-0.167-2.768,1.22-3.983,3.065-4.737c1.473-0.08,2.772,0.015,3.624,0.557
	c0.252,0.491,0.624,0.863,1.115,1.114c0.539,0.948,1.073,1.9,1.951,2.509c0.136,0.329,0.298,0.632,0.558,0.836
	c1.086,2.073,3.11,3.207,3.344,6.132c0,0.557,0,1.114,0,1.671c0.255,1.202-0.795,2.444-1.114,2.788
	c-0.476,0.51-0.369,0.826-0.836,1.114c-1.16,0.714-2.419,1.562-3.345,2.23c-0.486,0.351-0.711,0.832-1.115,1.115
	c-0.405,0.283-1.029,0.318-1.393,0.558c-0.456,0.299-0.638,0.789-1.115,1.115c-0.268,0.183-0.607,0.103-0.836,0.278
	c-0.649,0.497-1.202,1.219-1.951,1.394c-0.478,0.358-1.096,0.576-1.115,1.394c-1.732,3.06-0.053,7.885,0,11.706
	c0.17,0.667-0.35,2.022,0.279,2.23c0.469,1.968-0.21,3.457,0.279,4.738c0.973,2.551,5.201,2.353,5.017,5.853
	c0,0.093,0,0.186,0,0.278c0.143,1.63-0.972,2.001-1.115,3.345C19.499,79.1,11.959,90.027,5.588,98.979
	c-0.821,1.153-2.654,3.044-2.788,4.181c-0.127,1.08,0.566,3.013,1.115,4.181c0.539,1.147,1.604,2.166,2.229,3.065
	c0,0.094,0,0.187,0,0.278c0.563,0.646,0.926,1.49,1.951,1.673c1.078,0.242,0.991-0.68,1.672-0.835
	c0.491-0.253,0.863-0.624,1.115-1.116c0.417-0.324,0.682-0.805,1.393-0.835c0.464,0,0.929,0,1.394,0
	c2.223,0.748,3.071,2.874,4.459,4.459c0.251,0.491,0.624,0.862,1.115,1.114c1.602,2.022,3.694,3.553,5.295,5.574
	c0.252,0.492,0.623,0.863,1.115,1.115c0.878,0.608,1.412,1.561,1.951,2.508c0.498,0.525,0.754,1.29,1.394,1.673
	c1.233,2.018,2.245,4.258,3.344,6.41c0.214,0.901,0.771,1.458,1.672,1.673c0.675,0.347,1.354,0.689,2.229,0.835
	c-0.125,0.456,1.52,0.456,1.394,0c1.115-0.185,1.91-0.69,2.787-1.113c0.492-0.253,0.863-0.624,1.115-1.116
	c0.475-1.094,1.29-2.067,1.951-3.065c0.679-1.024,1.32-2.044,1.951-3.065c1.356-2.191,2.458-4.373,3.624-6.689
	c5.607-11.156,11.436-22.935,17.001-34.003c1.112-2.21,2.34-4.472,3.902-6.41c0.583-0.346,1.048-0.811,1.393-1.394
	c2.467-2.551,7.17-2.863,7.525-7.525c-0.089-0.933-0.287-1.757-0.836-2.229c-1.378-1.966-3.378-3.312-3.624-6.41
	c0-0.929,0-1.858,0-2.787c0.145-1.856,0.651-3.319,1.116-4.738c0.545-1.664,1.568-3.143,1.395-4.739
	c-0.106-0.96-1.057-2.025-1.673-3.065c-1.194-2.014-2.286-3.723-2.23-6.689c0-0.372,0-0.743,0-1.115
	c-0.166-0.578,0.345-1.831-0.278-1.951c0-0.186,0-0.372,0-0.557c0-0.465,0-0.929,0-1.394c-0.166-0.578,0.345-1.831-0.278-1.951
	c0-0.186,0-0.372,0-0.558c0-0.372,0-0.743,0-1.115c-0.048-0.417,0.098-1.029-0.28-1.115c-0.267-6.439-1.823-13.975-3.622-19.231
	c-1.112-3.249-2.633-6.441-5.853-6.968C62.687,3.48,60.81,3.48,60.773,3.939z"/>
<path fill-rule="evenodd" clip-rule="evenodd" fill="#343434" d="M34.017,29.302c0.457-0.046,0.457,1.717,0,1.671
	C34.017,30.417,34.017,29.859,34.017,29.302z"/>
<path fill-rule="evenodd" clip-rule="evenodd" fill="#343434" d="M22.311,54.665c-0.045-0.457,1.718-0.457,1.672,0
	C23.425,54.665,22.869,54.665,22.311,54.665z"/>
<path fill-rule="evenodd" clip-rule="evenodd" fill="#343434" d="M16.458,55.222c0.035-0.616,1.183-0.118,1.672-0.279
	C18.096,55.559,16.948,55.062,16.458,55.222z"/>
<path fill-rule="evenodd" clip-rule="evenodd" fill="#191919" d="M77.218,59.681c0,0.65,0,1.301,0,1.951
	C76.759,61.594,76.759,59.719,77.218,59.681z"/>
<path fill-rule="evenodd" clip-rule="evenodd" fill="#C4C4C4" d="M11.998,25.4c0,0.929,0,1.858,0,2.787
	C11.537,27.887,11.537,25.7,11.998,25.4z"/>
<path fill-rule="evenodd" clip-rule="evenodd" fill="#C4C4C4" d="M74.987,28.466c0,0.65,0,1.3,0,1.951
	c-0.623-0.12-0.114-1.374-0.278-1.951C74.802,28.466,74.894,28.466,74.987,28.466z"/>
<path fill-rule="evenodd" clip-rule="evenodd" fill="#797979" d="M35.131,137.441c1.208,0,2.416,0,3.623,0
	C38.183,137.904,35.703,137.904,35.131,137.441z"/>
</svg>
