<?xml version="1.0" encoding="utf-8"?>
<!-- Generator: Adobe Illustrator 15.0.0, SVG Export Plug-In  -->
<!DOCTYPE svg PUBLIC "-//W3C//DTD SVG 1.1//EN" "http://www.w3.org/Graphics/SVG/1.1/DTD/svg11.dtd" [
	<!ENTITY ns_flows "http://ns.adobe.com/Flows/1.0/">
]>
<svg version="1.1"
	 xmlns="http://www.w3.org/2000/svg" xmlns:xlink="http://www.w3.org/1999/xlink" xmlns:a="http://ns.adobe.com/AdobeSVGViewerExtensions/3.0/"
	 x="0px" y="0px" width="142px" height="142px" viewBox="-29.984 -0.896 142 142" enable-background="new -29.984 -0.896 142 142"
	 xml:space="preserve">
<defs>
</defs>
<path fill-rule="evenodd" clip-rule="evenodd" fill="#C1C1C1" d="M39.972,4.522c-0.047-0.604,0.989-0.126,1.393-0.279
	C41.413,4.848,40.377,4.37,39.972,4.522z"/>
<path fill-rule="evenodd" clip-rule="evenodd" fill="#C1C1C1" d="M60.876,4.801c0.036-0.459,1.913-0.459,1.951,0
	C62.176,4.801,61.525,4.801,60.876,4.801z"/>
<path fill-rule="evenodd" clip-rule="evenodd" fill="#787878" d="M22.971,24.311c0.047-0.417-0.1-1.029,0.278-1.115
	c0,0.372,0,0.744,0,1.115C23.156,24.311,23.064,24.311,22.971,24.311z"/>
<path fill-rule="evenodd" clip-rule="evenodd" fill="#C1C1C1" d="M74.253,24.032c0.326,0.045,0.236,0.509,0.278,0.836
	c0,0.187,0,0.372,0,0.558C73.928,25.472,74.405,24.437,74.253,24.032z"/>
<path fill-rule="evenodd" clip-rule="evenodd" fill="#787878" d="M20.184,24.868c0.093,0,0.186,0,0.279,0
	c-0.153,0.405,0.326,1.441-0.279,1.394C20.184,25.797,20.184,25.333,20.184,24.868z"/>
<path fill-rule="evenodd" clip-rule="evenodd" fill="#C1C1C1" d="M22.971,25.983c0,0.372,0,0.743,0,1.115c-0.094,0-0.187,0-0.28,0
	C22.74,26.681,22.592,26.069,22.971,25.983z"/>
<path fill-rule="evenodd" clip-rule="evenodd" fill="#787878" d="M72.302,31c0.378,0.086,0.232,0.697,0.28,1.115
	c-0.095,0-0.187,0-0.28,0C72.302,31.743,72.302,31.372,72.302,31z"/>
<path fill-rule="evenodd" clip-rule="evenodd" fill="#787878" d="M75.09,32.951c0.093,0,0.185,0,0.279,0c0,0.372,0,0.743,0,1.115
	C74.956,34.014,75.112,33.393,75.09,32.951z"/>
<path fill-rule="evenodd" clip-rule="evenodd" fill="#787878" d="M75.369,36.574c0.092,0,0.186,0,0.278,0c0,0.372,0,0.743,0,1.115
	c-0.093,0-0.187,0-0.278,0C75.369,37.317,75.369,36.946,75.369,36.574z"/>
<path fill-rule="evenodd" clip-rule="evenodd" fill="#C1C1C1" d="M75.369,37.689c0.092,0,0.186,0,0.278,0c0,0.371,0,0.744,0,1.115
	C75.234,38.752,75.391,38.13,75.369,37.689z"/>
<path fill-rule="evenodd" clip-rule="evenodd" fill="#191919" d="M57.53,57.477c-0.124-0.455,1.521-0.455,1.395,0
	C58.46,57.477,57.995,57.477,57.53,57.477z"/>
<path fill-rule="evenodd" clip-rule="evenodd" fill="#191919" d="M69.793,57.756c-0.158,0.49,0.339,1.637-0.278,1.672
	C69.675,58.939,69.178,57.791,69.793,57.756z"/>
<path fill-rule="evenodd" clip-rule="evenodd" fill="#191919" d="M67.007,58.313c-0.152,0.405,0.326,1.44-0.279,1.394
	C66.88,59.302,66.403,58.267,67.007,58.313z"/>
<path fill-rule="evenodd" clip-rule="evenodd" fill="#191919" d="M77.32,59.986c0,0.929,0,1.858,0,2.787
	C76.857,62.472,76.857,60.286,77.32,59.986z"/>
<path fill-rule="evenodd" clip-rule="evenodd" fill="#191919" d="M74.531,60.265c0,0.836,0,1.672,0,2.508
	C74.072,62.561,74.072,60.476,74.531,60.265z"/>
<path fill-rule="evenodd" clip-rule="evenodd" fill="#191919" d="M27.151,68.625c0.571-0.462,3.052-0.462,3.624,0
	C29.567,68.625,28.359,68.625,27.151,68.625z"/>
<path fill-rule="evenodd" clip-rule="evenodd" fill="#191919" d="M31.889,68.625c0.441,0.024,1.063-0.134,1.116,0.279
	C32.587,68.857,31.976,69.004,31.889,68.625z"/>
<path fill-rule="evenodd" clip-rule="evenodd" fill="#191919" d="M34.119,68.904c0.441,0.023,1.063-0.134,1.115,0.279
	C34.817,69.136,34.205,69.283,34.119,68.904z"/>
<path fill-rule="evenodd" clip-rule="evenodd" fill="#191919" d="M36.627,69.183c0.441,0.023,1.063-0.134,1.115,0.279
	C37.326,69.414,36.714,69.562,36.627,69.183z"/>
<path fill-rule="evenodd" clip-rule="evenodd" fill="#191919" d="M81.499,70.298c0.461,0.211,0.461,2.297,0,2.509
	C81.499,71.97,81.499,71.134,81.499,70.298z"/>
<path fill-rule="evenodd" clip-rule="evenodd" fill="#191919" d="M27.151,71.413c0.035-0.615,1.182-0.118,1.672-0.278
	C28.789,71.75,27.641,71.252,27.151,71.413z"/>
<path fill-rule="evenodd" clip-rule="evenodd" fill="#191919" d="M29.103,71.134c0.578,0.165,1.831-0.344,1.951,0.278
	C30.476,71.248,29.222,71.757,29.103,71.134z"/>
<path fill-rule="evenodd" clip-rule="evenodd" fill="#191919" d="M32.168,71.413c0.417,0.048,1.028-0.1,1.115,0.279
	C32.866,71.644,32.254,71.792,32.168,71.413z"/>
<path fill-rule="evenodd" clip-rule="evenodd" fill="#191919" d="M34.397,71.692c0.417,0.048,1.029-0.1,1.115,0.278
	C35.096,71.923,34.484,72.07,34.397,71.692z"/>
<path fill-rule="evenodd" clip-rule="evenodd" fill="#191919" d="M36.627,71.97c1.394,0,2.787,0,4.181,0
	C40.054,72.433,37.382,72.433,36.627,71.97z"/>
<path fill-rule="evenodd" clip-rule="evenodd" fill="#191919" d="M12.658,110.433c-0.199-0.453,1.314-0.453,1.115,0
	C13.401,110.433,13.03,110.433,12.658,110.433z"/>
<path fill-rule="evenodd" clip-rule="evenodd" fill="#191919" d="M35.234,138.303c0.417,0.048,1.029-0.1,1.115,0.279
	C35.908,138.559,35.286,138.717,35.234,138.303z"/>
<path fill-rule="evenodd" clip-rule="evenodd" fill="#191919" d="M37.742,138.583c0.052-0.413,0.674-0.255,1.115-0.279
	C38.771,138.682,38.16,138.535,37.742,138.583z"/>
<path fill-rule="evenodd" clip-rule="evenodd" fill="#C1C1C1" d="M19.905,11.49c0.346-0.583,0.811-1.048,1.394-1.394
	C20.953,10.68,20.488,11.144,19.905,11.49z"/>
<path fill-rule="evenodd" clip-rule="evenodd" fill="#787878" d="M12.937,31c0.491,0.251,0.863,0.623,1.115,1.115
	C13.561,31.863,13.189,31.491,12.937,31z"/>
<path fill-rule="evenodd" clip-rule="evenodd" fill="#191919" d="M20.741,32.115c0.251-0.492,0.623-0.863,1.115-1.115
	C21.604,31.491,21.233,31.863,20.741,32.115z"/>
<path fill-rule="evenodd" clip-rule="evenodd" fill="#787878" d="M22.691,28.77c0.087-0.651,0.546-1.151,0-1.672
	c0.093,0,0.186,0,0.28,0c0.007,0.271,0.34,0.216,0.557,0.279c-0.047,0.604,0.988,0.126,1.394,0.279c0.186,0,0.372,0,0.558,0
	c0,0.464,0,0.928,0,1.393c-0.279,0-0.558,0-0.836,0c0.047-0.604-0.988-0.126-1.394-0.279C23.064,28.77,22.877,28.77,22.691,28.77z"
	/>
<path fill-rule="evenodd" clip-rule="evenodd" fill="#191919" d="M53.63,45.214c-0.124,0.249-0.244,0.499-0.56,0.558
	c-0.202,0.761,0.556,0.561,0.56,1.115c-0.409-0.242-0.884-0.417-0.838-1.115C53.159,45.673,53.231,45.281,53.63,45.214z"/>
<path fill-rule="evenodd" clip-rule="evenodd" fill="#787878" d="M55.581,44.936c-0.453,0.848-0.859,1.743-1.951,1.951
	c-0.004-0.554-0.762-0.354-0.56-1.115c0.315-0.059,0.436-0.309,0.56-0.558c0.278-0.37,0.263-1.037,0.835-1.115
	c-0.098-0.366-0.49-0.438-0.557-0.836C54.583,43.703,55.141,44.26,55.581,44.936z"/>
<path fill-rule="evenodd" clip-rule="evenodd" fill="#191919" d="M54.465,59.429c0.253-0.492,0.623-0.863,1.116-1.115
	C55.328,58.805,54.956,59.177,54.465,59.429z"/>
<path fill-rule="evenodd" clip-rule="evenodd" fill="#191919" d="M52.514,61.101c0.253-0.492,0.623-0.863,1.116-1.115
	C53.377,60.478,53.005,60.849,52.514,61.101z"/>
<path fill-rule="evenodd" clip-rule="evenodd" fill="#191919" d="M50.841,62.494c0.253-0.491,0.625-0.863,1.116-1.115
	C51.704,61.871,51.334,62.242,50.841,62.494z"/>
<path fill-rule="evenodd" clip-rule="evenodd" fill="#191919" d="M48.892,64.166c0.251-0.491,0.623-0.862,1.114-1.114
	C49.753,63.543,49.383,63.915,48.892,64.166z"/>
<path fill-rule="evenodd" clip-rule="evenodd" fill="#191919" d="M47.219,65.56c0.253-0.491,0.623-0.863,1.114-1.115
	C48.082,64.937,47.71,65.308,47.219,65.56z"/>
<path fill-rule="evenodd" clip-rule="evenodd" fill="#191919" d="M22.691,71.134c0.44-0.675,0.998-1.232,1.672-1.672
	C23.925,70.137,23.367,70.695,22.691,71.134z"/>
<path fill-rule="evenodd" clip-rule="evenodd" fill="#191919" d="M3.461,112.384c0.767,0.531,1.418,1.183,1.951,1.95
	C4.645,113.801,3.994,113.152,3.461,112.384z"/>
<path fill-rule="evenodd" clip-rule="evenodd" fill="#191919" d="M10.986,115.17c0.48-0.913,1.47-1.315,1.951-2.229
	c0.583,0.346,1.048,0.811,1.394,1.394c-0.492-0.252-0.863-0.623-1.115-1.115C12.303,113.701,11.899,114.69,10.986,115.17z"/>
<path fill-rule="evenodd" clip-rule="evenodd" fill="#191919" d="M14.888,115.17c0.492,0.252,0.863,0.623,1.115,1.115
	C15.511,116.035,15.14,115.662,14.888,115.17z"/>
<path fill-rule="evenodd" clip-rule="evenodd" fill="#191919" d="M16.839,117.401c2.345,2.112,4.575,4.342,6.688,6.688
	C21.182,121.976,18.953,119.747,16.839,117.401z"/>
<path fill-rule="evenodd" clip-rule="evenodd" fill="#191919" d="M23.807,124.647c0.491,0.251,0.863,0.623,1.114,1.115
	C24.43,125.509,24.059,125.138,23.807,124.647z"/>
<path fill-rule="evenodd" clip-rule="evenodd" fill="#191919" d="M79.271,76.987c0.25-0.49,0.623-0.862,1.113-1.115
	C80.133,76.364,79.762,76.736,79.271,76.987z"/>
<path fill-rule="evenodd" clip-rule="evenodd" fill="#787878" d="M67.285,3.965c0.492,0.252,0.863,0.624,1.115,1.115
	C67.91,4.828,67.537,4.456,67.285,3.965z"/>
<path fill-rule="evenodd" clip-rule="evenodd" fill="#C1C1C1" d="M77.599,55.248c0.345-0.583,0.81-1.048,1.393-1.394
	c0,0.093,0,0.186,0,0.279C78.344,54.321,78.245,55.059,77.599,55.248z"/>
<path fill-rule="evenodd" clip-rule="evenodd" fill="#C1C1C1" d="M20.462,32.115c0.346-0.583,0.811-1.048,1.394-1.394
	c0,0.093,0,0.186,0,0.279c-0.492,0.251-0.863,0.623-1.115,1.115C20.648,32.115,20.555,32.115,20.462,32.115z"/>
<path fill-rule="evenodd" clip-rule="evenodd" fill="#C1C1C1" d="M21.298,13.719c0.719-0.953,1.556-1.789,2.509-2.508
	C23.088,12.164,22.251,13,21.298,13.719z"/>
<path fill-rule="evenodd" clip-rule="evenodd" fill="#C1C1C1" d="M56.695,42.148c0.366,0.099,0.438,0.491,0.835,0.557
	c0.028,0.716,1.088,0.399,1.116,1.115C57.785,43.475,57.149,42.9,56.695,42.148z"/>
<path fill-rule="evenodd" clip-rule="evenodd" fill="#787878" d="M56.138,41.591c0.093,0,0.187,0,0.278,0
	c1.028-0.382,1.369-2.764,2.509-1.394c0.601,0.947-0.771,1.9-1.395,2.508c-0.396-0.066-0.469-0.458-0.835-0.557
	C56.446,42.024,56.196,41.903,56.138,41.591z"/>
<path fill-rule="evenodd" clip-rule="evenodd" fill="#323232" d="M41.365,11.211c0.12-0.438,0.877-0.238,0.558-1.114
	c0.413,0.052,0.255,0.673,0.279,1.114C41.923,11.211,41.644,11.211,41.365,11.211z"/>
<path fill-rule="evenodd" clip-rule="evenodd" fill="#323232" d="M76.204,24.589c0.112-0.538,1.276-0.024,0.838-1.115
	c0.376,0.086,0.229,0.698,0.278,1.115C76.947,24.589,76.577,24.589,76.204,24.589z"/>
<path fill-rule="evenodd" clip-rule="evenodd" fill="#323232" d="M77.599,55.248c0.646-0.189,0.745-0.927,1.393-1.115
	c-0.371,2.138-1.402,3.614-1.671,5.853c-0.463,0.3-0.463,2.486,0,2.787c0.749,3.152,3.885,3.919,4.179,7.525
	c0,0.836,0,1.672,0,2.509c0,0.465,0,0.929,0,1.393c-0.509,0.42-0.655,1.202-1.114,1.672c-0.49,0.253-0.863,0.625-1.113,1.115
	c-1.503,1.33-3.222,2.141-5.019,3.345c-1.212,0.813-1.854,1.371-2.787,2.787c-2.231,3.39-4.141,8.307-6.13,12.264
	c-4.744,9.436-9.176,18.636-14.215,28.149c-1.452,2.739-3.231,5.634-5.019,8.361c-0.33,0.506-0.775,0.912-1.113,1.394
	c-0.318,0.455-0.52,1.235-0.836,1.673c-0.172,0.235-0.675,0.324-0.837,0.557c-0.184,0.264-0.058,0.627-0.278,0.837
	c-0.188,0.177-0.637,0.126-0.836,0.278c-0.753,0.576-1.679,1.712-3.345,1.672c-0.441,0.024-1.063-0.134-1.115,0.279
	c-0.464,0-0.929,0-1.394,0c-0.086-0.379-0.698-0.231-1.115-0.279c-0.744-0.221-1.579-0.216-2.229-0.557
	c-0.122-0.063-0.179-0.514-0.28-0.558c-2.354-1.062-3.111-3.562-4.459-6.132c-1.062-2.024-2.522-3.578-3.345-5.295
	c-0.251-0.492-0.623-0.864-1.114-1.115c-0.053-0.226-0.28-0.278-0.279-0.558c-2.113-2.347-4.343-4.576-6.688-6.688
	c-0.083-0.569-0.754-0.547-0.836-1.115c-0.252-0.492-0.623-0.863-1.115-1.115c-0.098-0.366-0.49-0.438-0.557-0.836
	c-0.346-0.583-0.811-1.048-1.394-1.394c-0.48,0.914-1.47,1.316-1.951,2.229c-1.322,1.512-5.008,0.869-5.574-0.836
	c-0.533-0.768-1.184-1.419-1.951-1.95c-1.68-2.653-4.847-7.393-2.787-10.591c0.342-0.531,0.867-1.11,1.393-1.952
	c0.184-0.293,0.395-0.885,0.558-1.114c0.415-0.585,1.236-1.085,1.672-1.673c0.239-0.321,0.376-0.861,0.558-1.115
	c0.262-0.364,0.639-0.561,0.836-0.835c0.188-0.264,0.07-0.612,0.278-0.837c1.741-1.87,3.646-4.958,5.295-7.246
	c4.274-5.931,7.991-11.249,11.427-15.887c0.676-0.439,1.233-0.997,1.672-1.672c0.417-0.326,1.141-0.346,1.394-0.836
	c0.464,0,0.929,0,1.394,0c1.208,0,2.416,0,3.624,0c0.371,0,0.743,0,1.114,0c0.086,0.378,0.698,0.231,1.116,0.279
	c0.371,0,0.743,0,1.114,0c0.086,0.378,0.698,0.231,1.115,0.279c0.464,0,0.929,0,1.394,0c0.086,0.378,0.698,0.231,1.115,0.279
	c4.664,0.204,6.935-1.985,9.477-3.902c0.491-0.252,0.863-0.624,1.114-1.115c0.227-0.053,0.278-0.28,0.559-0.279
	c0.491-0.251,0.861-0.623,1.114-1.114c0.366-0.099,0.438-0.491,0.835-0.558c0.493-0.252,0.863-0.624,1.116-1.115
	c0.225-0.053,0.278-0.28,0.557-0.279c0.491-0.251,0.863-0.623,1.116-1.115c0.364-0.099,0.437-0.491,0.835-0.557
	c0.491-0.252,0.863-0.624,1.116-1.115c0.641-0.286,0.897-0.959,1.949-0.836c0.465,0,0.93,0,1.395,0c0.278,0,0.557,0,0.835,0
	c2.635,2.012,2.613,6.679,4.46,9.477c1.358-1.894,2.035-4.469,2.508-7.247c0.605,0.046,0.127-0.989,0.279-1.394
	c-0.12-1.272,0.282-3.069-0.279-3.902c1.09,0.583,2.48,0.864,3.625,1.393c-1.061-0.223-0.355,1.318-0.56,1.952
	c-0.615,0.035-0.118,1.183-0.278,1.672c-0.014,2.137-0.625,4.141-1.393,6.131c-0.731,1.894-1.486,3.949-3.346,4.181
	c-4.271,0.533-4.455-5.488-5.852-9.198c-0.054-0.226-0.28-0.277-0.278-0.557c-0.396-0.024-0.79-0.046-0.838,0.279
	c-0.092,0-0.184,0-0.278,0c-0.491,0.252-0.861,0.624-1.114,1.115c-0.879,0.608-1.504,1.467-2.508,1.951
	c-0.493,0.252-0.863,0.624-1.116,1.115c-0.877,0.608-1.504,1.467-2.508,1.951c-0.491,0.252-0.863,0.624-1.114,1.115
	c-0.227,0.053-0.278,0.28-0.559,0.279c-0.491,0.252-0.861,0.624-1.114,1.115c-1.791,1.46-3.6,2.904-6.688,3.066
	c-1.394,0-2.788,0-4.181,0c-0.372,0-0.743,0-1.115,0c-0.086-0.378-0.698-0.23-1.115-0.278c-0.371,0-0.743,0-1.114,0
	c-0.086-0.379-0.698-0.231-1.115-0.279c-0.372,0-0.744,0-1.115,0c-0.12-0.623-1.373-0.113-1.951-0.278c-0.093,0-0.187,0-0.279,0
	c-0.49,0.16-1.637-0.337-1.672,0.278c-1.964,0.261-2.675,2.348-3.624,3.624c-1.015,1.365-2.125,2.573-3.065,3.901
	C14.751,86.996,8.78,95.501,2.903,103.744c0.339,2.728,1.38,4.752,2.509,6.689c0.251,0.49,0.623,0.862,1.115,1.113
	c0.61,0.784,1.112,1.676,2.508,1.673c0.953-0.719,1.79-1.556,2.509-2.508c0.248-0.217,0.629-0.3,1.114-0.278
	c0.372,0,0.743,0,1.115,0c0.45-0.079,0.479,0.263,0.836,0.278c0.44,0.675,0.997,1.232,1.672,1.673
	c0.053,0.226,0.279,0.277,0.278,0.557c0.346,0.583,0.811,1.048,1.394,1.394c0.098,0.365,0.49,0.438,0.558,0.836
	c2.113,2.347,4.343,4.576,6.688,6.689c0.099,0.366,0.491,0.438,0.558,0.836c0.251,0.491,0.624,0.863,1.115,1.114
	c1.08,1.802,2.602,3.159,3.344,5.296c0.327,0.417,0.347,1.141,0.836,1.394c1.334,2.968,3.273,6.307,7.525,5.017
	c2.229-0.676,3.573-2.922,5.294-5.574c4.205-6.473,7.852-13.787,11.428-20.903c4.307-8.565,7.968-16.824,12.543-25.362
	c0.617-1.151,1.188-2.435,1.949-3.345c2.146-2.56,5.319-3.63,7.527-5.295c0.49-0.252,0.861-0.624,1.113-1.116
	c2.076-5.259-3.718-6.406-3.902-11.147c0-0.836,0-1.672,0-2.508c-0.08-1.66,0.398-2.762,0.838-3.902
	c0.236,0.052,0.262-0.108,0.278-0.278C76.503,56.011,76.901,55.479,77.599,55.248z"/>
<path fill-rule="evenodd" clip-rule="evenodd" fill="#191919" d="M57.809,60.265c0.048-0.325,0.441-0.303,0.838-0.279
	c-0.002,0.28,0.225,0.332,0.278,0.557C58.677,60.327,58.296,60.244,57.809,60.265z"/>
<path fill-rule="evenodd" clip-rule="evenodd" fill="#191919" d="M56.416,61.379c0.253-0.491,0.623-0.863,1.114-1.115
	C57.28,60.756,56.907,61.127,56.416,61.379z"/>
<path fill-rule="evenodd" clip-rule="evenodd" fill="#191919" d="M52.792,64.445c0.253-0.492,0.623-0.863,1.116-1.115
	C53.656,63.822,53.283,64.193,52.792,64.445z"/>
<path fill-rule="evenodd" clip-rule="evenodd" fill="#191919" d="M49.17,67.511c0.251-0.491,0.623-0.863,1.114-1.115
	C50.033,66.888,49.661,67.259,49.17,67.511z"/>
<path fill-rule="evenodd" clip-rule="evenodd" fill="#191919" d="M47.497,68.904c0.253-0.491,0.623-0.863,1.114-1.115
	C48.36,68.281,47.988,68.653,47.497,68.904z"/>
<path fill-rule="evenodd" clip-rule="evenodd" fill="#191919" d="M5.412,110.433c0.492,0.251,0.863,0.623,1.115,1.113
	C6.035,111.295,5.664,110.923,5.412,110.433z"/>
<path fill-rule="evenodd" clip-rule="evenodd" fill="#191919" d="M9.035,113.219c0.719-0.952,1.556-1.789,2.509-2.508
	C10.825,111.664,9.988,112.5,9.035,113.219z"/>
<path fill-rule="evenodd" clip-rule="evenodd" fill="#191919" d="M14.609,110.711c0.675,0.439,1.232,0.996,1.672,1.673
	C15.606,111.944,15.049,111.386,14.609,110.711z"/>
<path fill-rule="evenodd" clip-rule="evenodd" fill="#191919" d="M16.56,112.941c0.583,0.346,1.047,0.811,1.394,1.394
	C17.371,113.989,16.906,113.524,16.56,112.941z"/>
<path fill-rule="evenodd" clip-rule="evenodd" fill="#191919" d="M18.512,115.17c2.345,2.114,4.575,4.343,6.688,6.689
	C22.854,119.747,20.625,117.517,18.512,115.17z"/>
<path fill-rule="evenodd" clip-rule="evenodd" fill="#191919" d="M25.758,122.696c0.491,0.252,0.863,0.623,1.115,1.114
	C26.381,123.559,26.009,123.187,25.758,122.696z"/>
<path fill-rule="evenodd" clip-rule="evenodd" fill="#191919" d="M30.217,129.106c0.551,0.193,0.743,0.744,0.836,1.394
	C30.564,130.247,30.543,129.523,30.217,129.106z"/>
<path fill-rule="evenodd" clip-rule="evenodd" fill="#191919" d="M77.32,75.037c0.25-0.492,0.623-0.863,1.113-1.116
	C78.182,74.413,77.811,74.785,77.32,75.037z"/>
<path fill-rule="evenodd" clip-rule="evenodd" fill="#323232" d="M39.415,0.342c-0.125-0.456,1.519-0.456,1.394,0
	C40.344,0.342,39.879,0.342,39.415,0.342z"/>
<path fill-rule="evenodd" clip-rule="evenodd" fill="#323232" d="M38.857,0.342c0,0.464,0,0.929,0,1.393
	C38.402,1.861,38.402,0.216,38.857,0.342z"/>
<path fill-rule="evenodd" clip-rule="evenodd" fill="#323232" d="M40.809,1.457c0.378,0.086,0.231,0.698,0.278,1.115
	C40.709,2.485,40.856,1.873,40.809,1.457z"/>
<path fill-rule="evenodd" clip-rule="evenodd" fill="#787878" d="M58.925,2.292c0.206-0.628,1.563-0.109,2.229-0.278
	c0,0.092,0,0.185,0,0.278C60.411,2.292,59.668,2.292,58.925,2.292z"/>
<path fill-rule="evenodd" clip-rule="evenodd" fill="#C1C1C1" d="M61.154,2.014c0.756,0.172,2.212-0.354,2.509,0.278
	c-0.836,0-1.673,0-2.509,0C61.154,2.199,61.154,2.106,61.154,2.014z"/>
<path fill-rule="evenodd" clip-rule="evenodd" fill="#191919" d="M38.857,2.85c0.379,0.086,0.231,0.698,0.279,1.115
	C38.757,3.879,38.905,3.267,38.857,2.85z"/>
<path fill-rule="evenodd" clip-rule="evenodd" fill="#787878" d="M41.087,2.571c-0.201,0.852,0.285,1.016,0.278,1.672
	c-0.404,0.153-1.44-0.325-1.393,0.279c-0.279,0-0.558,0-0.836,0c0-0.186,0-0.372,0-0.558c-0.048-0.417,0.1-1.029-0.279-1.115
	c0-0.372,0-0.744,0-1.115c0-0.464,0-0.929,0-1.393c0.187,0,0.373,0,0.558,0c0.465,0,0.929,0,1.394,0c0,0.372,0,0.743,0,1.115
	C40.856,1.873,40.709,2.485,41.087,2.571z"/>
<path fill-rule="evenodd" clip-rule="evenodd" fill="#191919" d="M59.203,5.08c0.086-0.378,0.697-0.231,1.116-0.279
	C60.267,5.213,59.644,5.057,59.203,5.08z"/>
<path fill-rule="evenodd" clip-rule="evenodd" fill="#787878" d="M39.693,7.31c0.862-0.347,1.982-0.434,3.066-0.558
	c-0.051,0.413-0.673,0.255-1.115,0.279c0,0.279,0,0.557,0,0.836c0.152,0.404-0.325,1.44,0.279,1.393c0,0.278,0,0.558,0,0.836
	c0.319,0.876-0.438,0.677-0.558,1.114c-0.787-0.229-0.722,0.393-1.393,0.279c0-0.279,0-0.558,0-0.836
	c-0.152-0.405,0.325-1.44-0.279-1.394c0-0.278,0-0.558,0-0.836C39.693,8.052,39.693,7.681,39.693,7.31z"/>
<path fill-rule="evenodd" clip-rule="evenodd" fill="#191919" d="M39.693,7.31c0,0.372,0,0.743,0,1.114
	c-0.413-0.051-0.255-0.673-0.278-1.114C39.508,7.31,39.601,7.31,39.693,7.31z"/>
<path fill-rule="evenodd" clip-rule="evenodd" fill="#323232" d="M41.644,7.867c0.605-0.047,0.127,0.988,0.279,1.393
	C41.319,9.308,41.796,8.271,41.644,7.867z"/>
<path fill-rule="evenodd" clip-rule="evenodd" fill="#323232" d="M39.693,9.26c0.604-0.047,0.127,0.989,0.279,1.394
	C39.368,10.701,39.846,9.666,39.693,9.26z"/>
<path fill-rule="evenodd" clip-rule="evenodd" fill="#191919" d="M75.926,23.196c-0.2-0.452,1.314-0.452,1.116,0
	C76.669,23.196,76.298,23.196,75.926,23.196z"/>
<path fill-rule="evenodd" clip-rule="evenodd" fill="#787878" d="M74.253,23.196c0.559,0,1.116,0,1.673,0c0.372,0,0.743,0,1.116,0
	c0,0.093,0,0.186,0,0.279c0.438,1.091-0.726,0.577-0.838,1.115c-0.852-0.202-0.819,0.481-1.673,0.278
	c-0.042-0.327,0.048-0.791-0.278-0.836C74.253,23.753,74.253,23.475,74.253,23.196z"/>
<path fill-rule="evenodd" clip-rule="evenodd" fill="#323232" d="M70.073,24.032c-0.048-0.604,0.988-0.126,1.393-0.279
	C71.514,24.358,70.479,23.88,70.073,24.032z"/>
<path fill-rule="evenodd" clip-rule="evenodd" fill="#191919" d="M68.958,24.589c-0.217-0.062-0.325-0.233-0.278-0.558
	c0.278,0,0.557,0,0.835,0C69.446,24.334,68.962,24.221,68.958,24.589z"/>
<path fill-rule="evenodd" clip-rule="evenodd" fill="#191919" d="M20.462,23.753c0,0.372,0,0.743,0,1.115c-0.093,0-0.186,0-0.279,0
	C20.231,24.451,20.084,23.84,20.462,23.753z"/>
<path fill-rule="evenodd" clip-rule="evenodd" fill="#191919" d="M23.25,24.311c-0.153,0.405,0.326,1.44-0.278,1.393
	c0-0.464,0-0.929,0-1.393C23.064,24.311,23.156,24.311,23.25,24.311z"/>
<path fill-rule="evenodd" clip-rule="evenodd" fill="#323232" d="M70.353,25.426c-0.049-0.604,0.987-0.126,1.392-0.279
	c0,0.093,0,0.186,0,0.279C71.279,25.426,70.817,25.426,70.353,25.426z"/>
<path fill-rule="evenodd" clip-rule="evenodd" fill="#787878" d="M70.353,25.426c-0.743,0.283-1.726,0.595-1.395-0.836
	c0.004-0.368,0.488-0.255,0.557-0.558c0.187,0,0.373,0,0.559,0c0.405-0.152,1.44,0.326,1.393-0.279c0-0.093,0-0.185,0-0.278
	c0.615,0.035,0.118,1.183,0.278,1.672C71.34,25.299,70.304,24.821,70.353,25.426z"/>
<path fill-rule="evenodd" clip-rule="evenodd" fill="#323232" d="M18.512,26.819c0.404,0.152,1.44-0.326,1.393,0.278
	C19.5,26.945,18.464,27.424,18.512,26.819z"/>
<path fill-rule="evenodd" clip-rule="evenodd" fill="#323232" d="M23.528,27.376c0.405,0.152,1.441-0.326,1.394,0.279
	C24.516,27.503,23.481,27.981,23.528,27.376z"/>
<path fill-rule="evenodd" clip-rule="evenodd" fill="#787878" d="M18.232,28.212c-1.768,0.585-1.113-1.928,0.279-1.393
	c-0.047,0.604,0.988,0.126,1.393,0.278c0.093,0,0.186,0,0.279,0c-0.152,0.405,0.325,1.441-0.279,1.394c-0.093,0-0.186,0-0.279,0
	C19.673,27.887,18.638,28.365,18.232,28.212z"/>
<path fill-rule="evenodd" clip-rule="evenodd" fill="#323232" d="M18.232,28.212c0.405,0.153,1.44-0.325,1.394,0.279
	C19.221,28.339,18.186,28.817,18.232,28.212z"/>
<path fill-rule="evenodd" clip-rule="evenodd" fill="#323232" d="M25.479,27.656c0.455-0.126,0.455,1.519,0,1.393
	C25.479,28.584,25.479,28.12,25.479,27.656z"/>
<path fill-rule="evenodd" clip-rule="evenodd" fill="#191919" d="M74.812,28.212c0.377,0.087,0.23,0.698,0.278,1.115
	c-0.094,0-0.186,0-0.278,0C74.812,28.956,74.812,28.584,74.812,28.212z"/>
<path fill-rule="evenodd" clip-rule="evenodd" fill="#323232" d="M75.09,31.557c0.605-0.046,0.127,0.989,0.279,1.394
	c-0.095,0-0.187,0-0.279,0C75.09,32.486,75.09,32.021,75.09,31.557z"/>
<path fill-rule="evenodd" clip-rule="evenodd" fill="#191919" d="M72.582,32.115c0,0.372,0,0.743,0,1.115
	c-0.413-0.052-0.257-0.673-0.28-1.115C72.396,32.115,72.487,32.115,72.582,32.115z"/>
<path fill-rule="evenodd" clip-rule="evenodd" fill="#787878" d="M16.003,32.951c0.836,0,1.672,0,2.509,0
	C18.3,33.411,16.214,33.411,16.003,32.951z"/>
<path fill-rule="evenodd" clip-rule="evenodd" fill="#C1C1C1" d="M72.582,33.787c0.623,0.12,0.112,1.373,0.278,1.951
	c-0.094,0-0.187,0-0.278,0C72.582,35.087,72.582,34.437,72.582,33.787z"/>
<path fill-rule="evenodd" clip-rule="evenodd" fill="#191919" d="M75.369,35.459c0.378,0.086,0.229,0.698,0.278,1.114
	c-0.093,0-0.187,0-0.278,0C75.369,36.203,75.369,35.831,75.369,35.459z"/>
<path fill-rule="evenodd" clip-rule="evenodd" fill="#323232" d="M72.86,35.738c0,0.465,0,0.929,0,1.394
	c-0.604,0.046-0.126-0.989-0.278-1.394C72.674,35.738,72.767,35.738,72.86,35.738z"/>
<path fill-rule="evenodd" clip-rule="evenodd" fill="#C1C1C1" d="M72.86,37.689c0.623,0.12,0.112,1.374,0.278,1.951
	c-0.092,0-0.187,0-0.278,0C72.86,38.989,72.86,38.339,72.86,37.689z"/>
<path fill-rule="evenodd" clip-rule="evenodd" fill="#191919" d="M75.647,39.361c0.378,0.087,0.23,0.698,0.278,1.115
	C75.513,40.424,75.669,39.803,75.647,39.361z"/>
<path fill-rule="evenodd" clip-rule="evenodd" fill="#323232" d="M73.139,39.64c0,0.372,0,0.743,0,1.115
	c-0.412-0.052-0.256-0.674-0.278-1.115C72.952,39.64,73.047,39.64,73.139,39.64z"/>
<path fill-rule="evenodd" clip-rule="evenodd" fill="#787878" d="M79.55,52.461c0-0.929,0-1.858,0-2.788
	C80.011,49.974,80.011,52.16,79.55,52.461z"/>
<path fill-rule="evenodd" clip-rule="evenodd" fill="#FFFFFF" d="M41.365,4.243c5.815-0.688,11.602-1.406,17.56-1.951
	c0.743,0,1.486,0,2.229,0c0.836,0,1.673,0,2.509,0c1.603,0.162,2.687,0.843,3.622,1.672C67.537,4.456,67.91,4.828,68.4,5.08
	c0.078,0.159,0.463,0.147,0.558,0.279c0.425,0.59,0.486,1.443,0.835,2.229c0.12,0.27,0.417,0.505,0.56,0.836
	c1.755,4.098,2.973,9.433,3.9,14.772c0,0.279,0,0.557,0,0.836c0.152,0.405-0.325,1.44,0.278,1.394
	c-0.092,1.114,0.499,1.547,0.28,2.787c0,0.372,0,0.743,0,1.115c0.164,0.577-0.345,1.831,0.278,1.951c0,0.093,0,0.186,0,0.279
	c0,0.464,0,0.929,0,1.394c0.022,0.442-0.134,1.063,0.279,1.115c0,0.465,0,0.929,0,1.394c0,0.372,0,0.743,0,1.114
	c0,0.372,0,0.743,0,1.115c0.021,0.441-0.135,1.063,0.278,1.115c0,0.186,0,0.372,0,0.557c0.021,0.442-0.135,1.063,0.278,1.115
	c-0.145,4.418,2.877,5.671,3.624,9.197c0,0.929,0,1.858,0,2.788c0.238,0.889-0.438,0.862-0.559,1.393
	c-0.583,0.346-1.048,0.811-1.393,1.394c-0.697,0.231-1.096,0.763-1.951,0.836c-1.022,0-2.044,0-3.065,0
	c-1.034,0.197-1.196-0.477-2.229-0.279c-1.145-0.529-2.535-0.81-3.625-1.393C63,51.266,59.38,48.01,55.581,44.936
	c-0.44-0.675-0.998-1.233-1.673-1.672c-6.269-4.98-13.994-11.929-21.183-18.116c-1.873-1.613-5.631-5.483-8.64-3.345
	c-0.51,0.362-0.607,0.287-0.836,1.394c-0.378,0.086-0.231,0.698-0.278,1.115c0,0.464,0,0.929,0,1.393c0,0.093,0,0.186,0,0.279
	c-0.379,0.086-0.231,0.698-0.28,1.115c0.546,0.521,0.087,1.021,0,1.672c0.008,0.937-0.383,1.475-0.835,1.951
	c-0.583,0.346-1.047,0.811-1.394,1.394c-0.477,0.452-1.014,0.844-1.951,0.836c-0.836,0-1.672,0-2.509,0
	c-0.936,0.007-1.474-0.384-1.951-0.836C13.8,31.623,13.428,31.251,12.937,31c-0.452-0.477-0.843-1.015-0.836-1.951
	c0-0.929,0-1.858,0-2.787c1.078-3.355,2.848-6.615,4.459-9.755c0.394-0.767,0.668-1.51,1.115-2.229
	c0.264-0.424,0.471-0.843,0.836-1.394c0.214-0.323,0.812-1.12,1.393-1.393c0.583-0.346,1.048-0.811,1.394-1.394
	c0.419-0.867,1.412-1.371,2.229-1.951c0.721-0.512,1.583-1.31,2.509-1.672c3.666-1.436,8.763-1,13.1-1.951c0.278,0,0.557,0,0.836,0
	C40.377,4.37,41.413,4.848,41.365,4.243z M60.876,4.801c-0.187,0-0.373,0-0.557,0c-0.419,0.047-1.03-0.1-1.116,0.279
	c-5.782,0.258-10.807,1.272-16.444,1.672c-1.084,0.124-2.204,0.211-3.066,0.558c-0.092,0-0.185,0-0.278,0
	c-4.158,0.729-9.561,0.485-12.542,1.951c-1.212,0.596-1.915,1.598-3.065,1.951c-0.953,0.719-1.79,1.556-2.509,2.508
	c-0.43,0.886-1.197,1.979-1.951,3.345c-1.333,2.415-2.934,5.894-3.902,8.362c-0.122,0.31-0.482,0.592-0.558,0.836
	c-1.296,4.16,3.336,5.672,5.017,2.23c0.604,0.047,0.126-0.989,0.279-1.394c0-0.278,0-0.557,0-0.836
	c0.605,0.047,0.126-0.989,0.279-1.394c0-0.372,0-0.743,0-1.115c-0.128-3.101,1.544-4.401,3.901-5.017c1.208,0,2.417,0,3.624,0
	c0.801,0.049,1.723,0.34,1.951,0.558c0.451,0.433,1.027,0.829,1.394,1.115c2.976,2.316,5.724,4.707,8.361,6.968
	c0.234,0.201,0.315,0.643,0.558,0.836c0.337,0.269,0.814,0.305,1.115,0.558c0.235,0.198,0.322,0.633,0.558,0.836
	c0.304,0.261,0.872,0.347,1.115,0.558c1.21,1.045,2.408,2.517,3.624,3.065c0.074,0.034,0.196,0.489,0.278,0.558
	c0.653,0.552,1.136,0.983,1.671,1.393c0.673,0.515,1.149,0.999,1.673,1.394c2.147,1.623,3.854,3.473,5.854,5.017
	c0.059,0.313,0.309,0.434,0.558,0.558c0.454,0.752,1.09,1.326,1.951,1.672c1.268,0.991,3.045,2.505,5.017,4.18
	c1.398,1.19,3.262,3.236,4.737,3.902c0.101,0.045,0.159,0.493,0.279,0.558c0.831,0.436,2.057,0.608,3.344,0.836
	c3.193,0.565,4.998,0.029,5.019-2.508c0.008-1.237-0.958-1.849-1.673-3.066c-1.299-2.206-2.122-3.894-2.23-6.968
	c0-0.372,0-0.743,0-1.115c-0.166-0.578,0.345-1.831-0.278-1.951c0-0.186,0-0.372,0-0.557c0-0.465,0-0.929,0-1.394
	c-0.166-0.578,0.345-1.831-0.278-1.951c0-0.186,0-0.372,0-0.558c0-0.372,0-0.743,0-1.115c-0.048-0.417,0.098-1.029-0.28-1.115
	c-0.051-1.993-0.23-3.857-0.558-5.574c0-0.093,0-0.186,0-0.279c-0.16-0.49,0.337-1.638-0.278-1.672
	c-0.587-5.146-2.418-10.432-3.902-14.214c-0.836-2.13-1.423-2.722-3.065-3.623c-0.643-0.354-0.968-0.867-1.671-0.836
	C62.789,4.342,60.912,4.342,60.876,4.801z"/>
<path fill-rule="evenodd" clip-rule="evenodd" fill="#323232" d="M23.25,28.77c0.405,0.152,1.44-0.326,1.394,0.279
	C24.238,28.896,23.203,29.375,23.25,28.77z"/>
<path fill-rule="evenodd" clip-rule="evenodd" fill="#C1C1C1" d="M24.364,18.736c0.572-0.462,3.052-0.462,3.624,0
	C26.78,18.736,25.572,18.736,24.364,18.736z"/>
<path fill-rule="evenodd" clip-rule="evenodd" fill="#C1C1C1" d="M12.101,26.262c0,0.929,0,1.858,0,2.787
	C11.64,28.749,11.64,26.562,12.101,26.262z"/>
<path fill-rule="evenodd" clip-rule="evenodd" fill="#C1C1C1" d="M75.09,29.328c0,0.65,0,1.3,0,1.951
	c-0.623-0.12-0.114-1.374-0.278-1.951C74.904,29.328,74.996,29.328,75.09,29.328z"/>
<path fill-rule="evenodd" clip-rule="evenodd" fill="#C1C1C1" d="M72.582,56.084c1.021,0,2.043,0,3.065,0
	c-0.017,0.17-0.042,0.33-0.278,0.278C74.521,56.188,72.969,56.719,72.582,56.084z"/>
</svg>
