<?xml version="1.0" encoding="utf-8"?>
<!-- Generator: Adobe Illustrator 15.0.0, SVG Export Plug-In  -->
<!DOCTYPE svg PUBLIC "-//W3C//DTD SVG 1.1//EN" "http://www.w3.org/Graphics/SVG/1.1/DTD/svg11.dtd" [
	<!ENTITY ns_flows "http://ns.adobe.com/Flows/1.0/">
]>
<svg version="1.1"
	 xmlns="http://www.w3.org/2000/svg" xmlns:xlink="http://www.w3.org/1999/xlink" xmlns:a="http://ns.adobe.com/AdobeSVGViewerExtensions/3.0/"
	 x="0px" y="0px" width="142px" height="142px" viewBox="-30.085 -2.869 142 142" enable-background="new -30.085 -2.869 142 142"
	 xml:space="preserve">
<defs>
</defs>
<path fill-rule="evenodd" clip-rule="evenodd" fill="#191919" d="M58.824,0.319c0.12-0.623,1.372-0.113,1.951-0.278
	C60.655,0.664,59.401,0.153,58.824,0.319z"/>
<path fill-rule="evenodd" clip-rule="evenodd" fill="#191919" d="M56.315,0.598c-0.048-0.604,0.988-0.126,1.393-0.279
	C57.755,0.924,56.72,0.445,56.315,0.598z"/>
<path fill-rule="evenodd" clip-rule="evenodd" fill="#191919" d="M53.807,0.877c0.086-0.378,0.697-0.231,1.114-0.279
	C54.869,1.011,54.248,0.854,53.807,0.877z"/>
<path fill-rule="evenodd" clip-rule="evenodd" fill="#191919" d="M51.299,1.156c-0.049-0.604,0.987-0.127,1.392-0.279
	C52.74,1.481,51.704,1.003,51.299,1.156z"/>
<path fill-rule="evenodd" clip-rule="evenodd" fill="#191919" d="M48.791,1.434c-0.048-0.604,0.987-0.126,1.393-0.278
	C50.231,1.76,49.195,1.281,48.791,1.434z"/>
<path fill-rule="evenodd" clip-rule="evenodd" fill="#191919" d="M46.283,1.713c-0.049-0.604,0.987-0.126,1.392-0.279
	C47.723,2.039,46.687,1.561,46.283,1.713z"/>
<path fill-rule="evenodd" clip-rule="evenodd" fill="#191919" d="M44.052,1.992c0.087-0.378,0.697-0.231,1.114-0.279
	C45.115,2.126,44.494,1.969,44.052,1.992z"/>
<path fill-rule="evenodd" clip-rule="evenodd" fill="#191919" d="M41.543,2.27c-0.046-0.604,0.989-0.126,1.394-0.278
	C42.984,2.596,41.949,2.118,41.543,2.27z"/>
<path fill-rule="evenodd" clip-rule="evenodd" fill="#191919" d="M39.313,2.549c-0.047-0.604,0.989-0.126,1.394-0.279
	C40.754,2.875,39.719,2.396,39.313,2.549z"/>
<path fill-rule="evenodd" clip-rule="evenodd" fill="#191919" d="M37.363,2.828c0.086-0.378,0.698-0.231,1.115-0.278
	C38.426,2.962,37.804,2.805,37.363,2.828z"/>
<path fill-rule="evenodd" clip-rule="evenodd" fill="#191919" d="M35.133,3.106c0.086-0.378,0.698-0.231,1.115-0.279
	C36.196,3.24,35.575,3.083,35.133,3.106z"/>
<path fill-rule="evenodd" clip-rule="evenodd" fill="#191919" d="M58.545,3.106c-0.048-0.604,0.987-0.126,1.393-0.279
	C59.986,3.432,58.95,2.954,58.545,3.106z"/>
<path fill-rule="evenodd" clip-rule="evenodd" fill="#191919" d="M32.904,3.385c0.086-0.378,0.697-0.231,1.114-0.279
	C33.966,3.519,33.345,3.362,32.904,3.385z"/>
<path fill-rule="evenodd" clip-rule="evenodd" fill="#191919" d="M56.037,3.385c0.053-0.413,0.674-0.256,1.114-0.279
	C57.099,3.519,56.478,3.362,56.037,3.385z"/>
<path fill-rule="evenodd" clip-rule="evenodd" fill="#191919" d="M30.674,3.664c0.086-0.379,0.697-0.231,1.114-0.279
	C31.737,3.798,31.115,3.641,30.674,3.664z"/>
<path fill-rule="evenodd" clip-rule="evenodd" fill="#191919" d="M53.529,3.664c-0.048-0.604,0.987-0.127,1.393-0.279
	C54.969,3.99,53.933,3.511,53.529,3.664z"/>
<path fill-rule="evenodd" clip-rule="evenodd" fill="#191919" d="M28.723,3.942c0.086-0.378,0.698-0.231,1.115-0.278
	C29.785,4.077,29.164,3.919,28.723,3.942z"/>
<path fill-rule="evenodd" clip-rule="evenodd" fill="#191919" d="M51.02,3.942c-0.048-0.604,0.988-0.126,1.393-0.278
	C52.46,4.268,51.425,3.79,51.02,3.942z"/>
<path fill-rule="evenodd" clip-rule="evenodd" fill="#191919" d="M48.51,4.222c-0.046-0.604,0.989-0.126,1.395-0.279
	C49.953,4.547,48.917,4.069,48.51,4.222z"/>
<path fill-rule="evenodd" clip-rule="evenodd" fill="#191919" d="M46.001,4.5c-0.046-0.604,0.99-0.126,1.395-0.278
	C47.444,4.826,46.409,4.348,46.001,4.5z"/>
<path fill-rule="evenodd" clip-rule="evenodd" fill="#191919" d="M43.772,4.779c0.052-0.413,0.675-0.256,1.116-0.279
	C44.835,4.913,44.214,4.756,43.772,4.779z"/>
<path fill-rule="evenodd" clip-rule="evenodd" fill="#191919" d="M41.543,5.058c0.052-0.413,0.674-0.256,1.115-0.279
	C42.607,5.191,41.985,5.034,41.543,5.058z"/>
<path fill-rule="evenodd" clip-rule="evenodd" fill="#191919" d="M39.313,5.336c0.052-0.413,0.673-0.256,1.115-0.279
	C40.377,5.47,39.755,5.313,39.313,5.336z"/>
<path fill-rule="evenodd" clip-rule="evenodd" fill="#191919" d="M37.083,5.615c0.052-0.413,0.674-0.255,1.116-0.278
	C38.147,5.749,37.525,5.592,37.083,5.615z"/>
<path fill-rule="evenodd" clip-rule="evenodd" fill="#191919" d="M34.854,5.894c0.052-0.414,0.674-0.256,1.115-0.279
	C35.917,6.027,35.295,5.87,34.854,5.894z"/>
<path fill-rule="evenodd" clip-rule="evenodd" fill="#191919" d="M32.624,6.172c0.052-0.413,0.674-0.255,1.116-0.278
	C33.688,6.307,33.066,6.149,32.624,6.172z"/>
<path fill-rule="evenodd" clip-rule="evenodd" fill="#191919" d="M30.395,6.451c0.051-0.413,0.673-0.255,1.115-0.278
	C31.458,6.585,30.836,6.428,30.395,6.451z"/>
<path fill-rule="evenodd" clip-rule="evenodd" fill="#191919" d="M23.148,21.501c-0.166,0.577,0.344,1.831-0.278,1.951
	C23.035,22.875,22.525,21.622,23.148,21.501z"/>
<path fill-rule="evenodd" clip-rule="evenodd" fill="#191919" d="M71.365,21.501c0.413,0.051,0.257,0.673,0.278,1.115
	C71.231,22.564,71.389,21.942,71.365,21.501z"/>
<path fill-rule="evenodd" clip-rule="evenodd" fill="#191919" d="M20.361,22.059c-0.166,0.578,0.345,1.832-0.279,1.951
	C20.249,23.433,19.738,22.179,20.361,22.059z"/>
<path fill-rule="evenodd" clip-rule="evenodd" fill="#191919" d="M71.643,23.453c0.605-0.047,0.127,0.988,0.279,1.394
	C71.319,24.893,71.795,23.857,71.643,23.453z"/>
<path fill-rule="evenodd" clip-rule="evenodd" fill="#191919" d="M74.43,23.731c0.605-0.047,0.128,0.989,0.28,1.394
	C74.106,25.171,74.584,24.136,74.43,23.731z"/>
<path fill-rule="evenodd" clip-rule="evenodd" fill="#191919" d="M22.87,25.403c-0.153,0.405,0.326,1.44-0.28,1.394
	C22.743,26.392,22.265,25.356,22.87,25.403z"/>
<path fill-rule="evenodd" clip-rule="evenodd" fill="#191919" d="M71.922,25.961c0.616,0.035,0.12,1.183,0.278,1.672
	C71.585,27.598,72.083,26.451,71.922,25.961z"/>
<path fill-rule="evenodd" clip-rule="evenodd" fill="#191919" d="M74.71,26.519c0.615,0.034,0.118,1.182,0.278,1.672
	C74.373,28.156,74.871,27.008,74.71,26.519z"/>
<path fill-rule="evenodd" clip-rule="evenodd" fill="#191919" d="M72.201,29.305c0.625,0.121,0.114,1.374,0.28,1.951
	C71.858,31.136,72.367,29.883,72.201,29.305z"/>
<path fill-rule="evenodd" clip-rule="evenodd" fill="#191919" d="M74.989,29.862c0.623,0.121,0.112,1.374,0.279,1.952
	C74.645,31.694,75.156,30.44,74.989,29.862z"/>
<path fill-rule="evenodd" clip-rule="evenodd" fill="#191919" d="M15.902,30.978c0.836,0,1.672,0,2.509,0
	C18.199,31.438,16.113,31.438,15.902,30.978z"/>
<path fill-rule="evenodd" clip-rule="evenodd" fill="#191919" d="M72.481,32.929c0.627,0.208,0.108,1.563,0.278,2.23
	C72.13,34.951,72.649,33.595,72.481,32.929z"/>
<path fill-rule="evenodd" clip-rule="evenodd" fill="#191919" d="M75.268,33.765c0.623,0.12,0.111,1.374,0.278,1.951
	C74.923,35.596,75.434,34.342,75.268,33.765z"/>
<path fill-rule="evenodd" clip-rule="evenodd" fill="#191919" d="M72.759,36.831c0.623,0.12,0.112,1.373,0.278,1.951
	C72.415,38.662,72.925,37.408,72.759,36.831z"/>
<path fill-rule="evenodd" clip-rule="evenodd" fill="#191919" d="M75.546,37.667c0.604-0.047,0.126,0.988,0.278,1.393
	C75.219,39.107,75.699,38.071,75.546,37.667z"/>
<path fill-rule="evenodd" clip-rule="evenodd" fill="#191919" d="M79.449,47.7c0.377,0.086,0.23,0.698,0.278,1.115
	C79.315,48.763,79.471,48.142,79.449,47.7z"/>
<path fill-rule="evenodd" clip-rule="evenodd" fill="#191919" d="M79.727,49.094c-0.023,0.441,0.135,1.063-0.278,1.115
	C79.495,49.792,79.348,49.18,79.727,49.094z"/>
<path fill-rule="evenodd" clip-rule="evenodd" fill="#191919" d="M69.692,55.783c-0.158,0.49,0.339,1.637-0.278,1.672
	C69.574,56.966,69.077,55.818,69.692,55.783z"/>
<path fill-rule="evenodd" clip-rule="evenodd" fill="#191919" d="M66.906,56.34c-0.152,0.405,0.326,1.44-0.279,1.394
	C66.779,57.329,66.302,56.293,66.906,56.34z"/>
<path fill-rule="evenodd" clip-rule="evenodd" fill="#191919" d="M77.219,58.013c0,0.929,0,1.858,0,2.787
	C76.756,60.499,76.756,58.313,77.219,58.013z"/>
<path fill-rule="evenodd" clip-rule="evenodd" fill="#191919" d="M74.43,58.292c0,0.836,0,1.672,0,2.508
	C73.971,60.588,73.971,58.503,74.43,58.292z"/>
<path fill-rule="evenodd" clip-rule="evenodd" fill="#191919" d="M81.398,68.325c0.463,0.301,0.463,2.487,0,2.788
	C81.398,70.184,81.398,69.254,81.398,68.325z"/>
<path fill-rule="evenodd" clip-rule="evenodd" fill="#C2C2C2" d="M36.248,133.821c0.465,0,0.929,0,1.394,0
	C37.767,134.277,36.122,134.277,36.248,133.821z"/>
<path fill-rule="evenodd" clip-rule="evenodd" fill="#191919" d="M21.476,7.845c0.252-0.491,0.623-0.863,1.114-1.115
	C22.339,7.221,21.967,7.593,21.476,7.845z"/>
<path fill-rule="evenodd" clip-rule="evenodd" fill="#191919" d="M16.459,13.976c0.28-0.37,0.264-1.037,0.836-1.115
	c-0.145,0.413-0.412,0.703-0.557,1.115C16.645,13.976,16.552,13.976,16.459,13.976z"/>
<path fill-rule="evenodd" clip-rule="evenodd" fill="#191919" d="M16.459,14.255c-0.038,0.519-0.183,0.932-0.557,1.115
	C15.94,14.851,16.085,14.438,16.459,14.255z"/>
<path fill-rule="evenodd" clip-rule="evenodd" fill="#191919" d="M30.395,21.223c0.491,0.251,0.863,0.623,1.115,1.115
	C31.019,22.086,30.646,21.714,30.395,21.223z"/>
<path fill-rule="evenodd" clip-rule="evenodd" fill="#191919" d="M32.346,22.895c0.492,0.252,0.863,0.624,1.115,1.115
	C32.969,23.758,32.598,23.387,32.346,22.895z"/>
<path fill-rule="evenodd" clip-rule="evenodd" fill="#191919" d="M34.296,24.567c0.491,0.251,0.864,0.623,1.115,1.115
	C34.92,25.431,34.548,25.059,34.296,24.567z"/>
<path fill-rule="evenodd" clip-rule="evenodd" fill="#191919" d="M36.248,26.239c0.492,0.252,0.863,0.624,1.115,1.115
	C36.872,27.103,36.5,26.731,36.248,26.239z"/>
<path fill-rule="evenodd" clip-rule="evenodd" fill="#191919" d="M38.199,27.912c0.491,0.252,0.863,0.624,1.114,1.115
	C38.822,28.775,38.451,28.403,38.199,27.912z"/>
<path fill-rule="evenodd" clip-rule="evenodd" fill="#191919" d="M40.149,29.584c0.492,0.252,0.863,0.624,1.115,1.115
	C40.773,30.447,40.401,30.076,40.149,29.584z"/>
<path fill-rule="evenodd" clip-rule="evenodd" fill="#191919" d="M42.101,31.256c0.49,0.252,0.863,0.623,1.114,1.114
	C42.725,32.119,42.352,31.748,42.101,31.256z"/>
<path fill-rule="evenodd" clip-rule="evenodd" fill="#191919" d="M44.052,32.929c0.491,0.251,0.861,0.623,1.114,1.114
	C44.675,33.792,44.303,33.42,44.052,32.929z"/>
<path fill-rule="evenodd" clip-rule="evenodd" fill="#191919" d="M46.001,34.601c0.493,0.252,0.864,0.624,1.116,1.115
	C46.626,35.464,46.254,35.092,46.001,34.601z"/>
<path fill-rule="evenodd" clip-rule="evenodd" fill="#191919" d="M47.954,36.273c0.492,0.252,0.863,0.624,1.115,1.115
	C48.577,37.136,48.206,36.764,47.954,36.273z"/>
<path fill-rule="evenodd" clip-rule="evenodd" fill="#191919" d="M49.905,37.945c0.49,0.252,0.863,0.624,1.115,1.115
	C50.528,38.809,50.157,38.437,49.905,37.945z"/>
<path fill-rule="evenodd" clip-rule="evenodd" fill="#191919" d="M51.856,39.618c0.583,0.346,1.048,0.811,1.395,1.394
	C52.666,40.666,52.203,40.201,51.856,39.618z"/>
<path fill-rule="evenodd" clip-rule="evenodd" fill="#191919" d="M53.807,41.29c0.583,0.346,1.048,0.811,1.393,1.394
	C54.617,42.337,54.152,41.873,53.807,41.29z"/>
<path fill-rule="evenodd" clip-rule="evenodd" fill="#191919" d="M55.758,42.962c0.581,0.346,1.046,0.81,1.393,1.393
	C56.568,44.01,56.103,43.545,55.758,42.962z"/>
<path fill-rule="evenodd" clip-rule="evenodd" fill="#191919" d="M57.708,44.634c0.583,0.347,1.048,0.811,1.395,1.394
	C58.519,45.682,58.054,45.218,57.708,44.634z"/>
<path fill-rule="evenodd" clip-rule="evenodd" fill="#191919" d="M59.938,46.585c0.49,0.252,0.863,0.623,1.115,1.115
	C60.563,47.448,60.19,47.077,59.938,46.585z"/>
<path fill-rule="evenodd" clip-rule="evenodd" fill="#191919" d="M61.611,47.979c0.583,0.345,1.047,0.81,1.394,1.393
	C62.421,49.027,61.957,48.562,61.611,47.979z"/>
<path fill-rule="evenodd" clip-rule="evenodd" fill="#191919" d="M63.84,49.93c0.49,0.251,0.863,0.624,1.113,1.115
	C64.463,50.793,64.092,50.421,63.84,49.93z"/>
<path fill-rule="evenodd" clip-rule="evenodd" fill="#191919" d="M65.513,51.324c0.583,0.346,1.048,0.81,1.393,1.394
	C66.323,52.371,65.858,51.907,65.513,51.324z"/>
<path fill-rule="evenodd" clip-rule="evenodd" fill="#777777" d="M53.25,54.667c0-0.092,0-0.185,0-0.278
	c1.001,0.392,1.184,1.603,2.229,1.951c-0.156,0.401-0.437,0.68-0.838,0.836c-0.226,0.053-0.278,0.28-0.557,0.279
	c-0.092,0-0.187,0-0.278,0c-0.183-0.747-0.8-1.06-1.116-1.672C52.489,55.022,53.247,55.222,53.25,54.667z"/>
<path fill-rule="evenodd" clip-rule="evenodd" fill="#323232" d="M52.691,55.783c-0.755-0.252,0.234-1.026,0.56-1.116
	C53.247,55.222,52.489,55.022,52.691,55.783z"/>
<path fill-rule="evenodd" clip-rule="evenodd" fill="#C2C2C2" d="M53.529,58.292c0.098-0.366,0.488-0.438,0.557-0.836
	c0.278,0.001,0.331-0.226,0.557-0.279C54.39,57.668,54.019,58.04,53.529,58.292z"/>
<path fill-rule="evenodd" clip-rule="evenodd" fill="#777777" d="M22.87,68.882c0.251-0.491,0.623-0.863,1.114-1.115
	C23.732,68.259,23.361,68.63,22.87,68.882z"/>
<path fill-rule="evenodd" clip-rule="evenodd" fill="#777777" d="M8.934,88.393c0-0.093,0-0.187,0-0.279
	c-0.93-0.928-2.326-1.391-3.066-2.509c-0.151-0.986,0.987-0.685,0.836-1.672c1.682,0.362,2.264,1.823,3.902,2.23
	C10.007,86.864,9.462,87.619,8.934,88.393z"/>
<path fill-rule="evenodd" clip-rule="evenodd" fill="#777777" d="M3.917,110.968c0.86,0.626,1.603,1.369,2.229,2.229
	C5.287,112.571,4.543,111.828,3.917,110.968z"/>
<path fill-rule="evenodd" clip-rule="evenodd" fill="#323232" d="M10.885,113.197c0.082-0.568,0.754-0.547,0.836-1.114
	c0.093,0,0.186,0,0.278,0C11.748,112.573,11.376,112.945,10.885,113.197z"/>
<path fill-rule="evenodd" clip-rule="evenodd" fill="#323232" d="M17.017,115.706c1.974,1.741,3.833,3.6,5.574,5.574
	C20.616,119.538,18.759,117.681,17.017,115.706z"/>
<path fill-rule="evenodd" clip-rule="evenodd" fill="#777777" d="M24.542,123.789c-0.549,0.751-1.268,1.333-2.23,1.672
	c-0.123-0.249-0.244-0.498-0.557-0.558c-0.072-1.465,1.236-1.552,1.951-2.229c0.093,0,0.186,0,0.278,0
	C24.129,123.087,24.396,123.376,24.542,123.789z"/>
<path fill-rule="evenodd" clip-rule="evenodd" fill="#777777" d="M30.395,133.265c0.675,0.439,1.232,0.997,1.672,1.672
	C31.392,134.498,30.834,133.939,30.395,133.265z"/>
<path fill-rule="evenodd" clip-rule="evenodd" fill="#191919" d="M42.379,134.658c0.252-0.491,0.624-0.862,1.114-1.115
	C43.243,134.035,42.871,134.406,42.379,134.658z"/>
<path fill-rule="evenodd" clip-rule="evenodd" fill="#191919" d="M79.17,75.014c0.25-0.49,0.623-0.862,1.113-1.115
	C80.032,74.391,79.661,74.763,79.17,75.014z"/>
<path fill-rule="evenodd" clip-rule="evenodd" fill="#191919" d="M66.906,1.713c0.769,0.533,1.418,1.183,1.951,1.951
	C68.089,3.131,67.438,2.48,66.906,1.713z"/>
<path fill-rule="evenodd" clip-rule="evenodd" fill="#323232" d="M60.775,0.041c2.837-0.235,4.634,0.567,6.131,1.672
	c0.532,0.768,1.184,1.418,1.951,1.951c2.883,5.665,4.804,12.291,5.573,20.067c0.154,0.405-0.324,1.44,0.28,1.394
	c0,0.465,0,0.929,0,1.394c0.16,0.49-0.338,1.637,0.278,1.672c0,0.557,0,1.114,0,1.671c0.167,0.578-0.344,1.832,0.279,1.952
	c0,0.65,0,1.3,0,1.951c0.166,0.578-0.345,1.831,0.278,1.951c0,0.65,0,1.3,0,1.951c0.152,0.404-0.327,1.44,0.278,1.393
	c0.202,3.885,2.917,5.26,3.624,8.64c0.022,0.441-0.134,1.063,0.278,1.115c0,0.093,0,0.186,0,0.278
	c-0.379,0.086-0.232,0.698-0.278,1.115c-0.345,3-1.845,4.845-2.229,7.804c-0.463,0.3-0.463,2.486,0,2.787
	c0.749,3.152,3.885,3.919,4.179,7.525c0,0.929,0,1.859,0,2.788c0,0.371,0,0.743,0,1.114c-0.509,0.42-0.655,1.202-1.114,1.672
	c-0.49,0.253-0.863,0.625-1.113,1.115c-2.314,2.054-5.596,3.139-7.527,5.574c0.647-2.233,1.693-4.066,2.787-5.853
	c0.996-0.307,1.416-1.187,2.511-1.394c0.582-0.347,1.047-0.811,1.392-1.395c2.076-5.259-3.718-6.406-3.902-11.147
	c0-0.836,0-1.672,0-2.508c0.126-2.721,1.124-4.912,1.951-7.525c0.684-2.157,0.529-2.914-0.835-4.738
	c-1.143-1.525-2.519-4.069-2.509-7.246c-0.166-0.578,0.345-1.831-0.278-1.951c0-0.558,0-1.115,0-1.672
	c-0.17-0.667,0.349-2.022-0.278-2.23c0-0.558,0-1.115,0-1.672c-0.166-0.578,0.345-1.831-0.28-1.951c0-0.557,0-1.114,0-1.672
	c-0.158-0.49,0.338-1.638-0.278-1.672c0-0.372,0-0.743,0-1.115c-0.152-0.405,0.326-1.44-0.279-1.394c0-0.279,0-0.558,0-0.836
	c-0.021-0.441,0.135-1.063-0.278-1.115c-0.959-5.821-2.568-10.995-4.459-15.887c-0.533-0.768-1.183-1.418-1.952-1.951
	c-1.366-0.584-2.847-1.054-5.016-0.836c-0.405,0.153-1.44-0.326-1.393,0.279c-0.465,0-0.93,0-1.395,0
	c-0.44,0.023-1.062-0.134-1.114,0.279c-0.372,0-0.743,0-1.115,0c-0.405,0.152-1.44-0.326-1.393,0.279c-0.373,0-0.743,0-1.116,0
	c-0.404,0.152-1.44-0.326-1.393,0.278c-0.372,0-0.743,0-1.115,0c-0.405,0.153-1.44-0.325-1.395,0.279c-0.371,0-0.741,0-1.114,0
	c-0.404,0.152-1.44-0.326-1.395,0.278c-0.37,0-0.743,0-1.113,0c-0.441,0.023-1.064-0.134-1.116,0.279c-0.37,0-0.742,0-1.114,0
	c-0.44,0.023-1.063-0.134-1.115,0.279c-0.371,0-0.743,0-1.115,0c-0.441,0.023-1.063-0.134-1.115,0.279c-0.371,0-0.743,0-1.114,0
	c-0.442,0.023-1.064-0.134-1.116,0.278c-0.371,0-0.743,0-1.114,0c-0.441,0.023-1.063-0.134-1.115,0.279c-0.371,0-0.743,0-1.114,0
	c-0.441,0.023-1.063-0.134-1.116,0.278c-0.371,0-0.743,0-1.114,0c-0.441,0.023-1.063-0.134-1.115,0.278
	c-2.497,0.064-4.872,1.541-6.689,3.066c-0.502,0.421-1.43,0.99-1.951,1.672c-0.153,0.201-0.103,0.62-0.279,0.836
	c-0.192,0.235-0.653,0.322-0.836,0.557c-0.169,0.218-0.096,0.591-0.279,0.836c-0.263,0.351-0.895,0.733-1.115,1.115
	c-0.507,0.877-0.639,2.008-1.115,3.066c-0.813,1.806-3.921,6.954-3.623,8.64c0.618,3.492,6.51,2.628,5.574-2.229
	c0.624-0.12,0.113-1.374,0.279-1.951c-0.75-4.515,4.296-6.491,8.361-5.295c1.735,0.51,2.606,1.86,3.623,2.508
	c0.347,0.583,0.811,1.048,1.394,1.394c0.225,0.052,0.277,0.279,0.557,0.278c0.346,0.583,0.811,1.048,1.394,1.394
	c0.226,0.052,0.278,0.279,0.557,0.278c0.346,0.583,0.811,1.048,1.394,1.394c0.226,0.053,0.278,0.28,0.558,0.279
	c0.346,0.583,0.81,1.047,1.393,1.394c0.227,0.052,0.278,0.279,0.558,0.278c0.347,0.583,0.811,1.047,1.394,1.394
	c0.226,0.053,0.278,0.28,0.558,0.279c0.346,0.583,0.81,1.047,1.393,1.394c0.366,0.098,0.438,0.491,0.837,0.557
	c0.251,0.492,0.623,0.863,1.114,1.115c0.367,0.099,0.438,0.491,0.838,0.558c0.25,0.491,0.623,0.863,1.113,1.114
	c0.367,0.1,0.439,0.491,0.836,0.558c0.252,0.491,0.625,0.863,1.115,1.114c0.367,0.099,0.439,0.492,0.836,0.558
	c0.252,0.492,0.623,0.863,1.116,1.115c0.364,0.098,0.437,0.491,0.835,0.557c0.252,0.491,0.623,0.863,1.116,1.115
	c0.364,0.099,0.437,0.491,0.835,0.558c0.253,0.491,0.623,0.863,1.114,1.115c0.366,0.098,0.438,0.491,0.837,0.558
	c0.251,0.492,0.623,0.863,1.114,1.115c0.366,0.099,0.438,0.49,0.837,0.558c0.251,0.491,0.623,0.863,1.114,1.115
	c0.367,0.099,0.438,0.491,0.836,0.558c0.252,0.491,0.625,0.863,1.115,1.115c0.367,0.098,0.439,0.491,0.836,0.557
	c0.252,0.492,0.623,0.863,1.115,1.115c0.365,0.098,0.438,0.49,0.836,0.557c0.252,0.491,0.623,0.863,1.113,1.115
	c0.367,0.098,0.439,0.49,0.838,0.558c0.25,0.491,0.623,0.863,1.114,1.114c0.366,0.098,0.438,0.491,0.837,0.558
	c0.251,0.492,0.623,0.863,1.114,1.115c1.029,0.92,0.848,3.055,0.835,5.017c-0.615,0.035-0.118,1.183-0.278,1.672
	c-0.185,3.808-1.422,6.566-2.787,9.197c-0.896-0.498-1.949-0.837-2.508-1.671c1.358-1.894,2.035-4.469,2.508-7.247
	c0.605,0.046,0.127-0.989,0.279-1.394c0-1.208,0-2.416,0-3.623c-0.345-0.583-0.81-1.048-1.393-1.394
	c-0.227-0.053-0.278-0.28-0.56-0.279c-0.25-0.491-0.623-0.863-1.113-1.115c-0.367-0.099-0.438-0.491-0.836-0.558
	c-0.347-0.583-0.811-1.047-1.394-1.393c-0.227-0.053-0.279-0.28-0.558-0.279c-0.252-0.492-0.625-0.863-1.115-1.115
	c-0.365-0.099-0.438-0.49-0.836-0.558c-0.347-0.583-0.812-1.047-1.395-1.394c-0.225-0.053-0.276-0.28-0.557-0.279
	c-0.347-0.583-0.812-1.047-1.393-1.393c-0.227-0.053-0.278-0.28-0.559-0.279c-0.345-0.583-0.81-1.047-1.393-1.394
	c-0.227-0.053-0.278-0.28-0.557-0.278c-0.347-0.583-0.812-1.048-1.395-1.394c-0.367-0.099-0.438-0.49-0.836-0.558
	c-0.252-0.491-0.625-0.863-1.115-1.115c-0.367-0.099-0.439-0.491-0.836-0.558c-0.252-0.491-0.623-0.863-1.115-1.115
	c-0.365-0.098-0.438-0.491-0.836-0.557c-0.252-0.491-0.623-0.863-1.116-1.115c-0.364-0.098-0.437-0.49-0.835-0.558
	c-0.253-0.491-0.623-0.863-1.114-1.114c-0.367-0.099-0.438-0.491-0.837-0.558c-0.251-0.491-0.624-0.862-1.114-1.114
	c-0.366-0.099-0.439-0.491-0.837-0.558c-0.251-0.491-0.623-0.863-1.115-1.115c-0.366-0.099-0.438-0.491-0.836-0.557
	c-0.251-0.492-0.623-0.863-1.114-1.115c-0.367-0.098-0.439-0.491-0.836-0.557c-0.252-0.492-0.624-0.863-1.115-1.115
	c-0.366-0.099-0.438-0.49-0.836-0.557c-0.251-0.492-0.624-0.864-1.115-1.115c-0.366-0.099-0.438-0.491-0.836-0.558
	c-0.252-0.492-0.623-0.863-1.115-1.115c-0.366-0.098-0.438-0.49-0.836-0.557c-0.252-0.492-0.624-0.864-1.115-1.115
	c-1.016-0.68-2.619-2.286-5.017-1.951c-1.215,0.17-2.226,0.723-2.23,2.23c-0.624,0.12-0.113,1.374-0.278,1.951c0,0.65,0,1.3,0,1.951
	c-0.605-0.047-0.127,0.989-0.28,1.394c-0.458,2.33-1.829,3.745-4.18,4.181c-0.836,0-1.672,0-2.509,0
	c-1.779,0.021-3.917-2.436-4.181-3.623c-0.505-2.271,0.667-4.202,1.672-6.411c0.975-2.141,1.68-4.217,2.508-5.574
	c0.374-0.184,0.519-0.596,0.557-1.115c0-0.092,0-0.186,0-0.279c0.093,0,0.186,0,0.279,0c0.145-0.412,0.412-0.702,0.557-1.115
	c0.931-2.135,2.521-3.611,4.181-5.017c0.491-0.252,0.863-0.624,1.114-1.115c1.685-1.288,3.412-2.535,6.132-2.787
	c0.441-0.023,1.063,0.134,1.115-0.278c0.278,0,0.558,0,0.836,0c0.441-0.023,1.063,0.134,1.114-0.279c0.372,0,0.743,0,1.116,0
	c0.441-0.023,1.063,0.134,1.114-0.279c0.372,0,0.743,0,1.115,0c0.442-0.023,1.063,0.134,1.115-0.279c0.372,0,0.744,0,1.115,0
	c0.441-0.023,1.063,0.134,1.115-0.278c0.278,0,0.558,0,0.836,0c0.405-0.153,1.441,0.325,1.394-0.279c0.278,0,0.557,0,0.835,0
	c0.406-0.152,1.441,0.326,1.394-0.278c0.372,0,0.743,0,1.115,0c0.441-0.023,1.063,0.134,1.114-0.279c0.373,0,0.743,0,1.116,0
	c0.404-0.152,1.44,0.326,1.392-0.279c0.373,0,0.744,0,1.116,0c0.404-0.153,1.44,0.326,1.393-0.278c0.372,0,0.743,0,1.116,0
	c0.404-0.153,1.44,0.326,1.392-0.279c0.373,0,0.743,0,1.116,0c0.44-0.023,1.062,0.134,1.114-0.279c0.465,0,0.93,0,1.394,0
	c0.405-0.153,1.44,0.326,1.393-0.279c0.373,0,0.743,0,1.116,0C59.401,0.153,60.655,0.664,60.775,0.041z"/>
<path fill-rule="evenodd" clip-rule="evenodd" fill="#191919" d="M76.941,73.342c0.344-0.583,0.809-1.048,1.392-1.395
	C77.988,72.531,77.523,72.995,76.941,73.342z"/>
<path fill-rule="evenodd" clip-rule="evenodd" fill="#191919" d="M64.954,3.664c0.77,0.533,1.419,1.183,1.952,1.951
	C66.138,5.082,65.489,4.431,64.954,3.664z"/>
<path fill-rule="evenodd" clip-rule="evenodd" fill="#191919" d="M32.346,19.271c0.583,0.346,1.048,0.811,1.394,1.394
	C33.156,20.319,32.692,19.855,32.346,19.271z"/>
<path fill-rule="evenodd" clip-rule="evenodd" fill="#191919" d="M34.296,20.944c0.583,0.346,1.048,0.811,1.394,1.394
	C35.107,21.992,34.643,21.527,34.296,20.944z"/>
<path fill-rule="evenodd" clip-rule="evenodd" fill="#191919" d="M36.248,22.616c0.583,0.346,1.047,0.811,1.394,1.394
	C37.058,23.664,36.594,23.199,36.248,22.616z"/>
<path fill-rule="evenodd" clip-rule="evenodd" fill="#191919" d="M38.199,24.289c0.583,0.346,1.047,0.811,1.393,1.394
	C39.009,25.336,38.545,24.872,38.199,24.289z"/>
<path fill-rule="evenodd" clip-rule="evenodd" fill="#191919" d="M40.149,25.961c0.583,0.346,1.048,0.811,1.394,1.394
	C40.96,27.008,40.496,26.544,40.149,25.961z"/>
<path fill-rule="evenodd" clip-rule="evenodd" fill="#191919" d="M42.101,27.633c0.583,0.346,1.048,0.811,1.393,1.394
	C42.911,28.681,42.447,28.216,42.101,27.633z"/>
<path fill-rule="evenodd" clip-rule="evenodd" fill="#191919" d="M44.331,29.584c0.491,0.252,0.862,0.624,1.114,1.115
	C44.954,30.447,44.582,30.076,44.331,29.584z"/>
<path fill-rule="evenodd" clip-rule="evenodd" fill="#191919" d="M46.283,31.256c0.49,0.252,0.861,0.623,1.113,1.114
	C46.906,32.119,46.533,31.748,46.283,31.256z"/>
<path fill-rule="evenodd" clip-rule="evenodd" fill="#191919" d="M48.232,32.929c0.492,0.251,0.863,0.623,1.115,1.114
	C48.857,33.792,48.484,33.42,48.232,32.929z"/>
<path fill-rule="evenodd" clip-rule="evenodd" fill="#191919" d="M50.183,34.601c0.49,0.252,0.863,0.624,1.116,1.115
	C50.806,35.464,50.435,35.092,50.183,34.601z"/>
<path fill-rule="evenodd" clip-rule="evenodd" fill="#191919" d="M52.134,36.273c0.491,0.252,0.863,0.624,1.116,1.115
	C52.757,37.136,52.386,36.764,52.134,36.273z"/>
<path fill-rule="evenodd" clip-rule="evenodd" fill="#191919" d="M54.085,37.945c0.491,0.252,0.863,0.624,1.114,1.115
	C54.708,38.809,54.338,38.437,54.085,37.945z"/>
<path fill-rule="evenodd" clip-rule="evenodd" fill="#191919" d="M56.037,39.618c0.491,0.252,0.863,0.624,1.114,1.115
	C56.66,40.48,56.288,40.109,56.037,39.618z"/>
<path fill-rule="evenodd" clip-rule="evenodd" fill="#191919" d="M57.988,41.29c0.491,0.252,0.862,0.623,1.114,1.115
	C58.611,42.153,58.239,41.781,57.988,41.29z"/>
<path fill-rule="evenodd" clip-rule="evenodd" fill="#191919" d="M59.938,42.962c0.49,0.251,0.863,0.624,1.115,1.115
	C60.563,43.825,60.19,43.454,59.938,42.962z"/>
<path fill-rule="evenodd" clip-rule="evenodd" fill="#191919" d="M61.889,44.634c0.49,0.252,0.863,0.624,1.115,1.115
	C62.512,45.498,62.141,45.126,61.889,44.634z"/>
<path fill-rule="evenodd" clip-rule="evenodd" fill="#191919" d="M63.84,46.307c0.49,0.252,0.863,0.624,1.113,1.115
	C64.463,47.17,64.092,46.798,63.84,46.307z"/>
<path fill-rule="evenodd" clip-rule="evenodd" fill="#191919" d="M65.792,47.979c0.491,0.251,0.863,0.623,1.114,1.114
	C66.415,48.842,66.042,48.471,65.792,47.979z"/>
<path fill-rule="evenodd" clip-rule="evenodd" fill="#191919" d="M67.743,49.651c0.491,0.252,0.861,0.624,1.114,1.115
	C68.366,50.514,67.994,50.143,67.743,49.651z"/>
<path fill-rule="evenodd" clip-rule="evenodd" fill="#C2C2C2" d="M42.101,134.658c0.346-0.583,0.81-1.048,1.393-1.394
	c0,0.094,0,0.187,0,0.278c-0.49,0.253-0.862,0.624-1.114,1.115C42.286,134.658,42.193,134.658,42.101,134.658z"/>
<path fill-rule="evenodd" clip-rule="evenodd" fill="#C2C2C2" d="M11.721,112.083c0.23-0.354,0.977-1.59,1.394-0.837
	c-0.698-0.047-0.873,0.429-1.115,0.837C11.907,112.083,11.814,112.083,11.721,112.083z"/>
<path fill-rule="evenodd" clip-rule="evenodd" fill="#C2C2C2" d="M6.147,109.295c0.439,0.676,0.997,1.233,1.672,1.673
	c0.237-0.051,0.263,0.108,0.279,0.278c-1.251-0.422-1.92-1.424-2.508-2.508C5.837,108.862,6.088,108.982,6.147,109.295z"/>
<path fill-rule="evenodd" clip-rule="evenodd" fill="#777777" d="M9.771,110.411c0.346-0.584,0.81-1.049,1.393-1.395
	C10.818,109.6,10.354,110.064,9.771,110.411z"/>
<path fill-rule="evenodd" clip-rule="evenodd" fill="#777777" d="M18.131,112.919c0.492,0.252,0.863,0.623,1.115,1.114
	C18.755,113.781,18.383,113.41,18.131,112.919z"/>
<path fill-rule="evenodd" clip-rule="evenodd" fill="#323232" d="M19.247,114.033c1.881,1.649,3.646,3.414,5.295,5.296
	C22.661,117.681,20.896,115.915,19.247,114.033z"/>
<path fill-rule="evenodd" clip-rule="evenodd" fill="#C2C2C2" d="M24.542,119.607c0.491,0.253,0.863,0.624,1.115,1.115
	C25.165,120.471,24.794,120.1,24.542,119.607z"/>
<path fill-rule="evenodd" clip-rule="evenodd" fill="#C2C2C2" d="M32.346,131.313c0.475,0.64,1.033,1.197,1.672,1.673
	C33.117,132.771,32.56,132.215,32.346,131.313z"/>
<path fill-rule="evenodd" clip-rule="evenodd" fill="#777777" d="M40.428,132.708c0.252-0.492,0.624-0.863,1.115-1.116
	C41.292,132.084,40.92,132.455,40.428,132.708z"/>
<path fill-rule="evenodd" clip-rule="evenodd" fill="#777777" d="M28.444,120.723c-0.417,0.512-1.163,0.695-1.394,1.394
	c-0.583-0.346-1.047-0.811-1.394-1.394c1.196,0.029,2.094-2.4,2.787-1.115C28.767,120.021,28.767,120.311,28.444,120.723z"/>
<path fill-rule="evenodd" clip-rule="evenodd" fill="#191919" d="M28.444,120.723c0.323-0.412,0.323-0.702,0-1.115
	c0.646,0.078,0.641,0.744,0.279,1.115C28.629,120.723,28.537,120.723,28.444,120.723z"/>
<path fill-rule="evenodd" clip-rule="evenodd" fill="#191919" d="M7.819,110.968c-0.675-0.439-1.233-0.997-1.672-1.673
	C6.822,109.734,7.379,110.293,7.819,110.968z"/>
<path fill-rule="evenodd" clip-rule="evenodd" fill="#777777" d="M12.836,88.113c1.054,0.712,2.162,1.368,3.066,2.229
	c-0.066,0.863-0.775,1.083-1.115,1.673c-1.509-0.441-2.196-1.706-3.623-2.229C11.722,89.229,11.978,88.37,12.836,88.113z"/>
<path fill-rule="evenodd" clip-rule="evenodd" fill="#777777" d="M57.429,58.292c-0.569,0.99,1.402,1.468,1.395,2.787
	c-0.366,0.098-0.438,0.491-0.836,0.557c-1.176-0.126-1.239-1.362-1.951-1.951c0-0.092,0-0.185,0-0.278
	C56.684,59.217,56.782,58.479,57.429,58.292z"/>
<path fill-rule="evenodd" clip-rule="evenodd" fill="#323232" d="M27.329,66.652c0.481-0.461,2.864-0.461,3.345,0
	C29.559,66.652,28.444,66.652,27.329,66.652z"/>
<path fill-rule="evenodd" clip-rule="evenodd" fill="#323232" d="M27.887,69.439c0.124-0.459,2.105-0.459,2.229,0
	C29.373,69.439,28.629,69.439,27.887,69.439z"/>
<path fill-rule="evenodd" clip-rule="evenodd" fill="#777777" d="M36.526,69.997c1.486,0,2.973,0,4.459,0
	C40.139,70.46,37.372,70.46,36.526,69.997z"/>
<path fill-rule="evenodd" clip-rule="evenodd" fill="#777777" d="M59.102,98.983c0-0.093,0-0.187,0-0.279
	c-1.224-0.306-2.895-0.865-1.951-2.509c1.16,0.141,1.627,0.976,2.787,1.115C59.535,97.743,59.567,98.611,59.102,98.983z"/>
<path fill-rule="evenodd" clip-rule="evenodd" fill="#777777" d="M62.446,98.704c0.749,0.366,1.482,0.749,2.229,1.116
	c0.23,0.787-0.393,0.721-0.278,1.393c-1.282-0.019-1.809-0.792-2.786-1.114c0.12-0.531,0.601-0.701,0.557-1.395
	C62.261,98.704,62.354,98.704,62.446,98.704z"/>
<path fill-rule="evenodd" clip-rule="evenodd" fill="#323232" d="M12.557,108.46c-0.199-0.453,1.314-0.453,1.115,0
	C13.3,108.46,12.929,108.46,12.557,108.46z"/>
<path fill-rule="evenodd" clip-rule="evenodd" fill="#FFFFFF" d="M57.429,55.504c0.559,0,1.116,0,1.673,0
	c3.582,1.25,2.807,6.855,5.017,9.477c0.559,0.834,1.612,1.174,2.508,1.671c1.322,0.725,2.735,1.273,4.182,1.952
	c1.408,0.66,3.053,1.249,3.902,2.508c0.565,0.911,0.325,2.997-0.28,3.623c-1.094,1.786-2.14,3.619-2.787,5.853
	c-3.249,5.855-6.102,12.108-9.197,18.116c-0.092,0-0.185,0-0.278,0c0.044,0.693-0.437,0.863-0.557,1.395
	c-5.687,11.407-10.713,23.476-18.117,33.166c-0.583,0.346-1.047,0.811-1.393,1.394c-0.761,0.912-1.821,1.523-3.345,1.672
	c-1.208,0-2.416,0-3.623,0c-1.342-0.145-2.187-0.785-3.065-1.394c-0.44-0.675-0.998-1.232-1.672-1.672
	c-2.069-3.041-3.237-6.981-5.853-9.476c-0.146-0.413-0.413-0.702-0.558-1.115c-0.093,0-0.186,0-0.278,0
	c-0.189-0.647-0.926-0.746-1.116-1.394c-1.741-1.975-3.6-3.833-5.574-5.574c-1.292-1.496-2.657-2.918-3.902-4.46
	c-0.417-0.753-1.163,0.483-1.394,0.837c-0.082,0.567-0.754,0.546-0.836,1.114c-0.532,0.118-0.504,0.797-1.394,0.558
	c-0.743,0-1.486,0-2.229,0c-0.519-0.038-0.931-0.184-1.115-0.558c-0.626-0.86-1.37-1.604-2.229-2.229
	c-0.615-0.329-0.831-1.085-1.394-1.673c-1.143-1.192-2.692-6.131-2.508-7.803c0.165-1.489,2.021-3.849,3.066-5.297
	c0.179-0.247,0.951-0.751,1.114-1.114c0.35-0.774,0.922-1.726,1.672-2.509c0.863-0.901,2.04-3.262,3.066-4.18
	c0.528-0.773,1.073-1.528,1.673-2.229c3.92-5.928,8.053-11.644,12.263-17.281c0.491-0.252,0.862-0.624,1.114-1.115
	c0.664-0.823,2.089-0.884,3.344-1.115c1.115,0,2.23,0,3.345,0c5.054,0.492,8.86,1.566,12.542-0.278
	c1.462-0.732,2.514-1.937,3.902-3.065c0.396-0.323,0.974-0.481,1.393-0.836c1.721-1.457,3.18-3.322,5.019-4.181
	c0.49-0.252,0.861-0.623,1.113-1.115c0.401-0.156,0.682-0.435,0.838-0.836C56.282,56.215,56.351,55.354,57.429,55.504z
	 M57.429,58.292c-0.647,0.188-0.745,0.926-1.393,1.115c0,0.093,0,0.186,0,0.278c-0.094,0-0.186,0-0.278,0
	c-2.147,2.043-4.419,3.949-6.689,5.853c-2.199,1.845-4.558,4.042-8.083,4.459c-1.486,0-2.973,0-4.459,0
	c-2.317-0.005-3.948-0.697-6.411-0.558c-0.124-0.459-2.105-0.459-2.229,0c-3.149-0.021-3.773,2.646-5.296,4.738
	c-0.095,0.132-0.452,0.14-0.557,0.279c-0.177,0.236-0.125,0.624-0.279,0.836c-0.096,0.132-0.453,0.139-0.558,0.278
	c-0.177,0.235-0.125,0.624-0.278,0.836c-1.516,2.092-3.289,4.229-4.46,6.133c-0.168,0.274-0.402,0.337-0.557,0.557
	c-0.256,0.364-0.274,0.981-0.557,1.394c-0.08,0.116-0.454,0.167-0.558,0.278c-0.209,0.227-0.091,0.567-0.278,0.836
	c-0.631,0.907-1.622,1.393-1.672,2.509c-0.858,0.257-1.114,1.115-1.672,1.673c-1.427,2.512-4.577,6.353-6.41,8.918
	c-0.334,0.468-0.512,1.191-0.836,1.673c-0.533,0.792-1.015,0.858-1.115,1.672c-0.146,1.189,0.622,2.49,1.115,3.623
	c0.475,1.093,0.891,2.178,1.672,3.066c0.588,1.084,1.257,2.086,2.508,2.508c1.078,0.242,0.991-0.68,1.672-0.835
	c0.583-0.347,1.047-0.812,1.393-1.395c0.531-0.118,0.504-0.796,1.394-0.557c0.372,0,0.743,0,1.115,0
	c2.223,0.748,3.071,2.874,4.459,4.459c0.251,0.491,0.624,0.862,1.115,1.114c1.649,1.882,3.414,3.647,5.295,5.296
	c0,0.092,0,0.186,0,0.278c0.252,0.492,0.623,0.863,1.115,1.115c0.346,0.583,0.811,1.048,1.394,1.394
	c2.01,2.82,3.782,5.88,5.295,9.197c0.214,0.901,0.771,1.458,1.672,1.673c0.675,0.347,1.354,0.689,2.229,0.835
	c-0.125,0.456,1.52,0.456,1.394,0c0.969-0.331,2.007-0.594,2.787-1.113c0.492-0.253,0.863-0.624,1.115-1.116
	c0.768-1.48,1.946-2.932,2.509-4.18c0.044-0.098,0.491-0.164,0.558-0.279c0.597-1.032,1.404-3.053,1.951-3.623
	c0.475-0.496,0.915-1.744,1.113-1.951c0.23-0.24,0.085-0.222,0.279-0.558c4.146-7.155,7.248-14.769,11.148-22.018
	c0.465-0.372,0.433-1.24,0.836-1.673c2.226-4.133,4.042-8.387,6.132-12.542c2.044-4.063,4.76-7.942,6.131-12.542
	c-2.528-0.692-4.902-2.239-6.966-3.344c-0.77-0.411-2.058-0.786-2.509-1.115c-2.081-1.511-2.757-5.622-3.624-7.804
	c-0.21-0.531-0.104-1.773-1.114-1.672C57.802,58.292,57.616,58.292,57.429,58.292z"/>
<path fill-rule="evenodd" clip-rule="evenodd" fill="#323232" d="M57.429,55.504c-0.046-0.457,1.719-0.457,1.673,0
	C58.545,55.504,57.988,55.504,57.429,55.504z"/>
<path fill-rule="evenodd" clip-rule="evenodd" fill="#C2C2C2" d="M7.262,113.755c0.743,0,1.486,0,2.229,0
	C9.368,114.215,7.385,114.215,7.262,113.755z"/>
<path fill-rule="evenodd" clip-rule="evenodd" fill="#777777" d="M35.133,136.33c1.208,0,2.416,0,3.623,0
	C38.185,136.793,35.705,136.793,35.133,136.33z"/>
</svg>
