<?xml version="1.0" encoding="utf-8"?>
<!-- Generator: Adobe Illustrator 15.0.0, SVG Export Plug-In  -->
<!DOCTYPE svg PUBLIC "-//W3C//DTD SVG 1.1//EN" "http://www.w3.org/Graphics/SVG/1.1/DTD/svg11.dtd" [
	<!ENTITY ns_flows "http://ns.adobe.com/Flows/1.0/">
]>
<svg version="1.1"
	 xmlns="http://www.w3.org/2000/svg" xmlns:xlink="http://www.w3.org/1999/xlink" xmlns:a="http://ns.adobe.com/AdobeSVGViewerExtensions/3.0/"
	 x="0px" y="0px" width="142px" height="142px" viewBox="-27.806 -2.288 142 142" enable-background="new -27.806 -2.288 142 142"
	 xml:space="preserve">
<defs>
</defs>
<path fill-rule="evenodd" clip-rule="evenodd" fill="#707070" d="M37.413,10.098c1.041-0.446,1.239-1.734,2.508-1.952
	c0.252,0.492,0.624,0.864,1.115,1.115c0,0.093,0,0.186,0,0.279c-0.953,0.719-1.789,1.555-2.508,2.508c-0.093,0-0.186,0-0.278,0
	c-0.647-0.188-0.746-0.926-1.394-1.115c-0.17-0.016-0.33-0.042-0.279-0.279C37.056,10.67,37.291,10.44,37.413,10.098z"/>
<path fill-rule="evenodd" clip-rule="evenodd" fill="#D6D6D6" d="M52.741,89.53c0.124-0.46,2.105-0.46,2.229,0
	C54.228,89.53,53.484,89.53,52.741,89.53z"/>
<path fill-rule="evenodd" clip-rule="evenodd" fill="#303030" d="M86.188,106.811c0.454-0.126,0.454,1.519,0,1.394
	C86.188,107.739,86.188,107.275,86.188,106.811z"/>
<path fill-rule="evenodd" clip-rule="evenodd" fill="#303030" d="M3.131,119.632c-0.458,0.045-0.458-1.718,0-1.672
	C3.131,118.517,3.131,119.073,3.131,119.632z"/>
<path fill-rule="evenodd" clip-rule="evenodd" fill="#A7A7A7" d="M30.167,87.857c0.251-0.49,0.624-0.862,1.115-1.113
	C31.029,87.234,30.658,87.606,30.167,87.857z"/>
<path fill-rule="evenodd" clip-rule="evenodd" fill="#707070" d="M10.099,100.958c0.251-0.492,0.623-0.863,1.115-1.115
	C10.962,100.334,10.591,100.705,10.099,100.958z"/>
<path fill-rule="evenodd" clip-rule="evenodd" fill="#A7A7A7" d="M8.984,102.073c0.251-0.492,0.623-0.864,1.115-1.115
	C9.847,101.449,9.475,101.821,8.984,102.073z"/>
<path fill-rule="evenodd" clip-rule="evenodd" fill="#707070" d="M7.87,103.188c0.251-0.491,0.624-0.863,1.115-1.114
	C8.732,102.563,8.361,102.936,7.87,103.188z"/>
<path fill-rule="evenodd" clip-rule="evenodd" fill="#303030" d="M1.737,123.533c0.093,0,0.186,0,0.279,0
	c0.188,0.648,0.926,0.746,1.115,1.394C2.548,124.581,2.083,124.116,1.737,123.533z"/>
<path fill-rule="evenodd" clip-rule="evenodd" fill="#303030" d="M15.116,129.387c0.252-0.491,0.624-0.864,1.115-1.115
	C15.979,128.764,15.607,129.135,15.116,129.387z"/>
<path fill-rule="evenodd" clip-rule="evenodd" fill="#303030" d="M36.02,116.844c0.251-0.49,0.623-0.862,1.114-1.113
	C36.882,116.221,36.511,116.593,36.02,116.844z"/>
<path fill-rule="evenodd" clip-rule="evenodd" fill="#303030" d="M82.007,125.205c0.345-0.582,0.81-1.047,1.393-1.394
	C83.055,124.395,82.59,124.859,82.007,125.205z"/>
<path fill-rule="evenodd" clip-rule="evenodd" fill="#303030" d="M51.07,26.82c-0.44-0.675-0.998-1.232-1.673-1.672
	c-0.054-0.226-0.28-0.278-0.278-0.558c0.859,0.626,1.603,1.37,2.229,2.229C51.255,26.82,51.162,26.82,51.07,26.82z"/>
<path fill-rule="evenodd" clip-rule="evenodd" fill="#303030" d="M38.249,12.049c0.093,0,0.186,0,0.278,0
	c0.719-0.953,1.556-1.789,2.508-2.508c-0.719,0.953-1.555,1.789-2.508,2.508c0.126,1.174,1.318,1.283,1.672,2.23
	c-0.366-0.099-0.438-0.491-0.836-0.558c-0.188-0.647-0.926-0.746-1.114-1.394C38.249,12.235,38.249,12.142,38.249,12.049z"/>
<path fill-rule="evenodd" clip-rule="evenodd" fill="#303030" d="M37.413,10.098c0.48-0.913,1.471-1.317,1.951-2.23
	c0.924,0.098,1.209,0.835,1.672,1.394c-0.491-0.251-0.863-0.623-1.115-1.115C38.652,8.364,38.454,9.652,37.413,10.098z"/>
<path fill-rule="evenodd" clip-rule="evenodd" fill="#A7A7A7" d="M36.855,10.934c0.647,0.188,0.746,0.926,1.394,1.115
	c0,0.093,0,0.186,0,0.278C37.666,11.982,37.201,11.517,36.855,10.934z"/>
<path fill-rule="evenodd" clip-rule="evenodd" fill="#D6D6D6" d="M39.363,13.721c0.398,0.066,0.471,0.459,0.836,0.558
	c0.053,0.226,0.28,0.278,0.279,0.557C39.987,14.584,39.615,14.212,39.363,13.721z"/>
<path fill-rule="evenodd" clip-rule="evenodd" fill="#D6D6D6" d="M49.397,25.148c0.675,0.439,1.232,0.997,1.673,1.672
	C50.396,26.381,49.836,25.823,49.397,25.148z"/>
<path fill-rule="evenodd" clip-rule="evenodd" fill="#D6D6D6" d="M3.131,124.927c-0.189-0.647-0.926-0.745-1.115-1.394
	c0.583,0.347,1.047,0.811,1.393,1.394C3.317,124.927,3.224,124.927,3.131,124.927z"/>
<path fill-rule="evenodd" clip-rule="evenodd" fill="#707070" d="M34.347,82.006c-0.207,0.815-0.674,1.369-1.115,1.95
	c-0.4-0.808-1.267-1.149-2.229-1.394c-0.043-0.693,0.438-0.862,0.557-1.394C32.703,81.178,33.495,82.586,34.347,82.006z"/>
<path fill-rule="evenodd" clip-rule="evenodd" fill="#707070" d="M35.462,85.35c0.458-0.47,0.605-1.252,1.114-1.672
	c0.479,0.832,2.997,0.762,1.951,2.229C37.979,87.271,36.396,84.47,35.462,85.35z"/>
<path fill-rule="evenodd" clip-rule="evenodd" fill="#303030" d="M12.607,102.352c0.251-0.492,0.624-0.862,1.115-1.115
	C13.471,101.729,13.099,102.1,12.607,102.352z"/>
<path fill-rule="evenodd" clip-rule="evenodd" fill="#A7A7A7" d="M10.378,104.303c0.533-0.768,1.183-1.419,1.951-1.951
	C11.795,103.118,11.145,103.77,10.378,104.303z"/>
<path fill-rule="evenodd" clip-rule="evenodd" fill="#303030" d="M9.263,105.696c0.252-0.491,0.623-0.863,1.115-1.115
	C10.126,105.072,9.754,105.444,9.263,105.696z"/>
<path fill-rule="evenodd" clip-rule="evenodd" fill="#303030" d="M44.381,90.924c0.439-0.675,0.996-1.232,1.671-1.672
	C45.613,89.927,45.056,90.485,44.381,90.924z"/>
<path fill-rule="evenodd" clip-rule="evenodd" fill="#707070" d="M69.742,126.321c0.252-0.492,0.625-0.863,1.116-1.116
	C70.605,125.697,70.235,126.068,69.742,126.321z"/>
<path fill-rule="evenodd" clip-rule="evenodd" fill="#707070" d="M80.612,110.713c1.589-1.139-1.949-2.403-0.278-3.623
	c1.486-0.094,1.1,1.687,2.229,1.951C82.029,109.713,81.256,110.146,80.612,110.713z"/>
<path fill-rule="evenodd" clip-rule="evenodd" fill="#707070" d="M47.725,27.1c0.583,0.346,1.048,0.81,1.395,1.393
	C48.536,28.146,48.071,27.683,47.725,27.1z"/>
<path fill-rule="evenodd" clip-rule="evenodd" fill="#D6D6D6" d="M37.691,15.394c-0.647-0.189-0.746-0.926-1.394-1.115
	c-0.082-0.569-0.754-0.546-0.836-1.115C36.322,13.79,37.065,14.533,37.691,15.394z"/>
<path fill-rule="evenodd" clip-rule="evenodd" fill="#303030" d="M32.117,15.672c0.252-0.491,0.624-0.863,1.115-1.115
	C32.98,15.049,32.609,15.42,32.117,15.672z"/>
<path fill-rule="evenodd" clip-rule="evenodd" fill="#303030" d="M34.904,15.672c0.347-0.583,0.811-1.047,1.394-1.393
	c0.647,0.188,0.746,0.926,1.394,1.115c0,0.093,0,0.186,0,0.278c-0.492-0.251-0.863-0.623-1.115-1.115
	C35.598,14.508,35.66,15.499,34.904,15.672z"/>
<path fill-rule="evenodd" clip-rule="evenodd" fill="#303030" d="M46.61,25.984c0.491,0.252,0.862,0.624,1.114,1.115
	C47.233,26.848,46.861,26.476,46.61,25.984z"/>
<path fill-rule="evenodd" clip-rule="evenodd" fill="#303030" d="M53.3,31.28c0.491,0.251,0.862,0.624,1.114,1.115
	C53.923,32.143,53.551,31.771,53.3,31.28z"/>
<path fill-rule="evenodd" clip-rule="evenodd" fill="#707070" d="M44.381,97.613c0.042-0.887,0.632-1.227,0.557-2.229
	c0.093,0,0.187,0,0.279,0c0.229,1.07,1.907,0.694,2.508,1.393c-0.284,0.367-0.272,1.028-0.557,1.395
	C46.25,98.013,45.297,96.9,44.381,97.613z"/>
<path fill-rule="evenodd" clip-rule="evenodd" fill="#707070" d="M34.347,12.327c0.568,0.083,0.546,0.754,1.115,0.836
	c0.082,0.569,0.754,0.546,0.836,1.115c-0.583,0.346-1.047,0.81-1.394,1.393c-0.618,1.571-2.168,1.571-2.787,0
	c0.492-0.251,0.863-0.623,1.115-1.115C33.458,13.708,35.171,13.355,34.347,12.327z"/>
<path fill-rule="evenodd" clip-rule="evenodd" fill="#707070" d="M32.954,37.133c0.616,0.035,0.118,1.182,0.278,1.672
	C32.617,38.77,33.113,37.623,32.954,37.133z"/>
<path fill-rule="evenodd" clip-rule="evenodd" fill="#707070" d="M30.445,38.805c0.623,0.12,0.113,1.374,0.279,1.951
	C30.1,40.636,30.611,39.382,30.445,38.805z"/>
<path fill-rule="evenodd" clip-rule="evenodd" fill="#707070" d="M33.232,39.641c0.629,0.208,0.109,1.563,0.279,2.23
	C32.882,41.664,33.402,40.308,33.232,39.641z"/>
<path fill-rule="evenodd" clip-rule="evenodd" fill="#707070" d="M30.724,41.871c0.629,0.208,0.109,1.563,0.279,2.229
	C30.374,43.894,30.893,42.538,30.724,41.871z"/>
<path fill-rule="evenodd" clip-rule="evenodd" fill="#707070" d="M33.511,42.986c0.624,0.12,0.113,1.374,0.279,1.951
	C33.166,44.816,33.676,43.563,33.511,42.986z"/>
<path fill-rule="evenodd" clip-rule="evenodd" fill="#707070" d="M31.002,44.937c0.615,0.035,0.118,1.183,0.279,1.672
	C30.666,46.575,31.163,45.427,31.002,44.937z"/>
<path fill-rule="evenodd" clip-rule="evenodd" fill="#707070" d="M51.349,87.022c1.03-0.464,3.987-0.464,5.017,0
	C54.692,87.022,53.02,87.022,51.349,87.022z"/>
<path fill-rule="evenodd" clip-rule="evenodd" fill="#707070" d="M55.249,89.53c0.579,0.166,1.832-0.345,1.952,0.278
	C56.624,89.644,55.37,90.153,55.249,89.53z"/>
<path fill-rule="evenodd" clip-rule="evenodd" fill="#707070" d="M42.429,94.826c-0.029,0.714-0.157,1.328-0.558,1.672
	c0-0.093,0-0.186,0-0.278c-0.842-0.617-3.184-0.358-2.229-1.951C40.467,93.463,41.579,94.734,42.429,94.826z"/>
<path fill-rule="evenodd" clip-rule="evenodd" fill="#707070" d="M82.563,112.664c0.203-0.634,0.84-0.834,1.395-1.115
	c0.423,0.878,1.24,1.359,1.393,2.509c-0.225,0.239-0.764,0.165-0.835,0.557C83.487,114.342,83.689,112.838,82.563,112.664z"/>
<path fill-rule="evenodd" clip-rule="evenodd" fill="#A7A7A7" d="M30.724,117.681c0.405,0.152,1.44-0.326,1.394,0.279
	C31.712,117.807,30.677,118.285,30.724,117.681z"/>
<path fill-rule="evenodd" clip-rule="evenodd" fill="#707070" d="M32.396,117.96c-0.046-0.605,0.989-0.127,1.394-0.279
	C33.836,118.285,32.801,117.807,32.396,117.96z"/>
<path fill-rule="evenodd" clip-rule="evenodd" fill="#303030" d="M0.344,117.96c0,0.649,0,1.3,0,1.95
	C-0.115,119.872-0.115,117.997,0.344,117.96z"/>
<path fill-rule="evenodd" clip-rule="evenodd" fill="#A7A7A7" d="M81.45,121.582c0-0.371,0-0.743,0-1.114
	C81.9,120.268,81.9,121.781,81.45,121.582z"/>
<path fill-rule="evenodd" clip-rule="evenodd" fill="#707070" d="M62.776,136.911c0.743,0,1.484,0,2.229,0
	C64.882,137.371,62.898,137.371,62.776,136.911z"/>
<path fill-rule="evenodd" clip-rule="evenodd" fill="#FFFFFF" d="M16.788,0.343c0.557,0,1.115,0,1.672,0
	c6.923,2.553,13.362,5.59,18.116,10.313c-0.05,0.237,0.109,0.263,0.279,0.279c0.346,0.583,0.81,1.048,1.394,1.393
	c0.188,0.648,0.926,0.747,1.114,1.394c0.252,0.491,0.624,0.863,1.116,1.115c3.08,3.051,5.857,6.406,8.64,9.755
	c-0.002,0.28,0.225,0.332,0.278,0.558c0.438,0.675,0.998,1.232,1.673,1.672c0.092,0,0.185,0,0.278,0
	c2.17,0.97,4.001,2.54,5.573,4.181c0.425,0.442,1.114,2.208,1.395,3.066c0.469,1.437,0.367,2.948,0.836,4.459
	c0.396,1.279,1.418,2.634,2.229,3.902c0.232,0.364,0.358,0.806,0.557,1.115c0.068,0.106,0.518,0.186,0.56,0.278
	c0.062,0.14-0.089,0.435,0,0.558c0.349,0.496,1.023,0.866,1.393,1.394c0.172,0.247,0.351,0.813,0.557,1.115
	c0.202,0.295,0.351,0.534,0.559,0.836c0.229,0.336,0.341,0.843,0.558,1.115c0.396,0.498,0.859,0.891,1.392,1.672
	c1.939,2.841,4.336,6.79,5.576,10.591c0.258,0.791,0.309,1.701,0.557,2.508c0.41,1.334,0.869,2.686,1.393,4.459
	c1.915,6.481,4.333,13.476,6.41,20.346c1.848,6.103,3.791,12.033,5.298,18.395c0,0.465,0,0.929,0,1.394
	c0.076,1.936-1.286,2.431-2.23,3.345c-0.555,0.281-1.191,0.481-1.395,1.115c-0.046,2.739,1.289,4.099,1.395,6.688
	c0,1.022,0,2.044,0,3.065c0.238,0.89-0.438,0.863-0.559,1.394c-0.583,0.347-1.048,0.812-1.393,1.394
	c-2.104,1.579-4.191,2.864-6.411,4.46c-1.31,0.941-2.662,1.975-4.181,3.065c-1.797,1.293-3.803,3.347-6.409,4.181
	c-0.745,0-1.486,0-2.229,0c-1.897-0.425-3.155-1.489-3.346-3.622c0-0.651,0-1.302,0-1.951c0-0.278,0-0.559,0-0.837
	c1.232-1.625,3.021-2.757,4.738-3.901c1.698-1.133,3.702-1.856,4.737-3.623c-0.324-2.386-1.654-4.666-2.508-7.246
	c-1.579-4.774-2.576-10.316-3.622-15.888c-0.88-4.678-1.034-9.377-5.575-10.034c-0.12-0.623-1.373-0.112-1.952-0.278
	c-0.092,0-0.184,0-0.278,0c-0.124-0.46-2.105-0.46-2.229,0c-3.923,0.537-6.347,2.571-7.524,5.854c-0.093,0-0.187,0-0.279,0
	c0.075,1.003-0.515,1.343-0.557,2.229c-2.207,6.248-4.25,12.658-7.247,18.117c-0.491,0.251-0.863,0.623-1.114,1.113
	c-0.785,0.237-1.144,0.9-2.23,0.837c-0.405,0.152-1.44-0.326-1.394,0.279c-0.092,0-0.185,0-0.278,0
	c0.047-0.605-0.988-0.127-1.394-0.279c-2.478-0.272-3.062-2.16-5.295-1.95c-2.376,0.221-3.532,3.356-5.017,5.852
	c-1.575,2.647-3.208,5.114-4.181,6.689c-0.491,0.251-0.863,0.624-1.115,1.115c-0.532,0.118-0.504,0.796-1.393,0.557
	c-0.929,0-1.858,0-2.788,0c-2.897-1.282-5.341-3.02-7.525-5.017c-0.346-0.583-0.81-1.047-1.393-1.394c-0.093,0-0.186,0-0.279,0
	c-0.65-1.021-1.394-1.95-1.393-3.623c0-0.65,0-1.301,0-1.95c0.808-6.624,4.041-10.824,7.525-14.772
	c0.491-0.252,0.863-0.624,1.115-1.114c0.491-0.252,0.863-0.624,1.115-1.115c0.492-0.253,0.863-0.624,1.115-1.115
	c3.787-4.104,9.537-5.94,14.493-8.919c1.597-0.959,2.877-2.217,4.46-3.066c0.491-0.251,0.863-0.623,1.115-1.113
	c0.42-1.16,1.345-1.814,1.951-2.788c0.441-0.581,0.909-1.135,1.115-1.95c-0.023-0.973,0.896-1.504,1.115-2.229
	c0.073-0.244-0.102-0.605,0-0.837c0.387-0.884,1.021-1.621,1.394-2.508c0.377-0.9,0.76-1.997,1.115-3.066
	c0.328-0.989,0.829-2.122,0.836-3.065c0.017-2.176-1.754-5.841-2.787-8.083c-0.172-0.374-0.342-0.926-0.558-1.393
	c-0.172-0.373-0.342-0.926-0.558-1.394c-1.661-3.605-3.442-8.373-3.623-12.821c-0.161-0.49,0.336-1.637-0.279-1.672
	c0-0.278,0-0.557,0-0.836c-0.169-0.667,0.35-2.022-0.279-2.229c0-0.372,0-0.743,0-1.115c-0.166-0.578,0.344-1.832-0.279-1.951
	c0-0.279,0-0.557,0-0.836c0-0.928,0-1.858,0-2.787c0-0.185,0-0.371,0-0.558c0.741-0.718,2.131-1.411,3.345-0.836
	c-2.335-4.007-5.008-8.139-7.525-12.263c-0.415-0.679-0.709-1.557-1.114-2.23c-0.181-0.299-0.684-0.567-0.836-0.835
	c-0.204-0.359-0.062-0.753-0.279-1.115c-0.173-0.29-0.667-0.572-0.836-0.836c-0.26-0.406-0.356-0.777-0.558-1.115
	c-1.164-1.949-2.311-3.963-3.623-6.132c-0.207-0.341-0.347-0.785-0.558-1.115c-0.464-0.725-1.379-1.729-1.951-2.787
	c-0.725-1.341-1.88-3.157-0.557-4.738C16.176,0.474,16.404,0.331,16.788,0.343z M34.347,12.327
	c-2.141-1.562-4.385-3.665-6.968-5.017c-1.349-0.706-2.833-1.317-4.18-1.951c-1.551-0.729-2.972-1.61-4.181-1.394
	c4.755,7.72,9.285,15.004,13.936,22.854c0.562,0.949,1.376,2.479,2.23,3.902c0.947,1.58,2.152,3.082,1.672,4.459
	c-0.455,1.302-2.541,1.347-3.902,1.672c0,0.093,0,0.187,0,0.279c0.16,0.49-0.337,1.637,0.278,1.672c0,0.279,0,0.558,0,0.836
	c0.17,0.667-0.35,2.022,0.279,2.23c0,0.372,0,0.743,0,1.115c0.166,0.578-0.345,1.831,0.279,1.951
	c0.697,7.262,3.454,12.361,5.574,17.837c0.756,1.954,1.843,3.848,1.952,6.132c0,0.836,0,1.672,0,2.509
	c-0.818,4.848-2.996,8.338-4.739,12.263c-0.509,0.42-0.656,1.202-1.114,1.672c-4.278,8.264-14.941,10.144-21.739,15.887
	c-0.492,0.253-0.864,0.623-1.115,1.115c-0.093,0-0.186,0-0.279,0c-0.768,0.532-1.418,1.184-1.951,1.951c0,0.092,0,0.186,0,0.278
	c-0.492,0.252-0.863,0.624-1.115,1.115c-2.635,3.497-5.242,7.021-6.131,12.264c-0.458-0.046-0.458,1.717,0,1.672
	c0,0.278,0,0.557,0,0.836c0.884,1.754,2.267,2.548,4.18,3.902c1.104,0.781,3.876,3.254,5.296,3.064
	c1.367-0.181,2.664-3.014,3.345-4.18c0.732-1.256,1.364-2.084,1.951-3.066c1.714-2.872,3.236-6.715,6.689-6.968
	c0.836,0,1.672,0,2.508,0c2.813,0.168,3.167,2.367,5.854,1.951c2.821-0.437,3.793-5.453,5.017-8.64
	c1.559-4.062,3.09-7.518,3.901-10.034c0.4-0.344,0.529-0.958,0.558-1.672c0.474-1.478,1.07-2.832,1.952-3.902
	c0.675-0.438,1.232-0.997,1.671-1.672c1.577-0.933,2.781-2.236,5.297-2.229c1.671,0,3.344,0,5.017,0
	c1.875-0.095,3.632,0.42,4.738,1.114c0.791,0.498,1.306,1.417,1.673,1.951c0.01,0.018,0.24,0.241,0.278,0.279
	c0.72,0.751,0.827,1.595,1.114,2.508c1.328,4.222,1.905,9.62,2.786,13.936c0.89,4.349,2.619,8.63,3.903,12.542
	c0.896,2.728,1.437,4.611,0,5.853c-0.491,0.253-0.864,0.624-1.116,1.116c-0.722,0.676-2.206,1.697-3.9,2.786
	c-1.647,1.058-3.803,1.958-3.903,3.065c-0.08,0.892,0.516,1.598,1.395,2.229c3.406-1.037,6.161-3.93,8.639-5.573
	c0.465-0.308,0.854-0.663,1.116-0.836c0.463-0.308,0.854-0.662,1.114-0.837c0.258-0.171,0.346-0.403,0.559-0.557
	c0.326-0.235,0.991-0.283,1.393-0.558c0.116-0.079,0.168-0.454,0.278-0.558c0.225-0.208,0.573-0.09,0.837-0.279
	c0.131-0.092,0.141-0.454,0.279-0.557c0.236-0.178,0.625-0.124,0.835-0.278c0.132-0.097,0.141-0.453,0.278-0.559
	c0.244-0.183,0.619-0.109,0.838-0.278c0.723-0.563,1.446-1.164,1.951-1.951c0.45,0.199,0.45-1.314,0-1.114
	c-0.503-1.82-1.112-3.535-1.395-5.574c0-1.022,0-2.044,0-3.066c0.038-0.519,0.185-0.932,0.557-1.114
	c0.644-0.566,1.417-1,1.951-1.672c0.156-0.065,0.487-0.145,0.558-0.278c0.911-1.718-0.984-6.431-1.951-9.478
	c-2.815-8.884-5.313-16.985-7.804-25.084c-0.257-0.831-0.311-1.71-0.557-2.508c-0.914-2.946-2.12-5.988-3.067-8.919
	c-0.515-1.596-0.781-3.094-1.393-4.459c-1.056-2.358-2.692-4.639-3.902-6.41c-0.533-0.782-0.996-1.175-1.393-1.672
	c-0.254-0.318-0.362-0.83-0.557-1.115c-0.209-0.302-0.356-0.54-0.56-0.836c-0.252-0.371-0.326-0.786-0.557-1.115
	c-0.358-0.514-1.029-0.876-1.395-1.394c-0.086-0.123,0.064-0.418,0-0.558c-0.04-0.092-0.488-0.172-0.557-0.279
	c-0.194-0.302-0.366-0.816-0.557-1.115c-0.826-1.291-1.766-2.565-2.23-3.902c-0.404-1.158-0.545-2.501-0.835-3.623
	c-0.385-1.479-0.611-2.804-1.116-3.624c-0.054-0.087-0.419,0.014-0.278-0.278c-0.252-0.491-0.623-0.864-1.114-1.115
	c-1.434-0.89-3.061-1.584-4.181-2.787c-0.347-0.583-0.812-1.047-1.395-1.393c-0.252-0.492-0.623-0.863-1.114-1.115
	c-2.906-3.505-6.026-6.795-8.919-10.313c0-0.093,0-0.186,0-0.278c-0.626-0.86-1.37-1.604-2.229-2.23
	C34.894,13.082,34.916,12.41,34.347,12.327z"/>
<path fill-rule="evenodd" clip-rule="evenodd" fill="#D6D6D6" d="M80.056,111.827c0,1.022,0,2.044,0,3.066
	C79.593,114.503,79.593,112.218,80.056,111.827z"/>
<path fill-rule="evenodd" clip-rule="evenodd" fill="#D6D6D6" d="M83.958,119.353c0.461,0.391,0.461,2.676,0,3.065
	C83.958,121.396,83.958,120.375,83.958,119.353z"/>
<path fill-rule="evenodd" clip-rule="evenodd" fill="#A7A7A7" d="M30.445,35.182c0,0.929,0,1.859,0,2.787
	C29.983,37.668,29.983,35.482,30.445,35.182z"/>
<path fill-rule="evenodd" clip-rule="evenodd" fill="#A7A7A7" d="M10.935,129.943c0.929,0,1.858,0,2.788,0
	C13.421,130.405,11.235,130.405,10.935,129.943z"/>
<path fill-rule="evenodd" clip-rule="evenodd" fill="#707070" d="M16.788,0.343c-0.046-0.457,1.718-0.457,1.672,0
	C17.903,0.343,17.345,0.343,16.788,0.343z"/>
<path fill-rule="evenodd" clip-rule="evenodd" fill="#303030" d="M41.315,68.906c0.46,0.211,0.46,2.296,0,2.509
	C41.315,70.578,41.315,69.742,41.315,68.906z"/>
<path fill-rule="evenodd" clip-rule="evenodd" fill="#707070" d="M24.592,113.221c0.212-0.461,2.297-0.461,2.508,0
	C26.264,113.221,25.428,113.221,24.592,113.221z"/>
<path fill-rule="evenodd" clip-rule="evenodd" fill="#707070" d="M59.431,131.338c0,0.649,0,1.3,0,1.951
	C58.972,133.251,58.972,131.376,59.431,131.338z"/>
</svg>
