<?xml version="1.0" encoding="utf-8"?>
<!-- Generator: Adobe Illustrator 15.0.0, SVG Export Plug-In  -->
<!DOCTYPE svg PUBLIC "-//W3C//DTD SVG 1.1//EN" "http://www.w3.org/Graphics/SVG/1.1/DTD/svg11.dtd" [
	<!ENTITY ns_flows "http://ns.adobe.com/Flows/1.0/">
]>
<svg version="1.1"
	 xmlns="http://www.w3.org/2000/svg" xmlns:xlink="http://www.w3.org/1999/xlink" xmlns:a="http://ns.adobe.com/AdobeSVGViewerExtensions/3.0/"
	 x="0px" y="0px" width="142px" height="142px" viewBox="-27.806 -2.288 142 142" enable-background="new -27.806 -2.288 142 142"
	 xml:space="preserve">
<defs>
</defs>
<path fill-rule="evenodd" clip-rule="evenodd" fill="#303030" d="M32.117,33.788c-0.199-0.452,1.314-0.452,1.115,0
	C32.86,33.788,32.489,33.788,32.117,33.788z"/>
<path fill-rule="evenodd" clip-rule="evenodd" fill="#D5D5D5" d="M53.02,89.53c-0.044-0.456,1.719-0.456,1.673,0
	C54.136,89.53,53.579,89.53,53.02,89.53z"/>
<path fill-rule="evenodd" clip-rule="evenodd" fill="#303030" d="M86.188,106.811c0.454-0.126,0.454,1.519,0,1.394
	C86.188,107.739,86.188,107.275,86.188,106.811z"/>
<path fill-rule="evenodd" clip-rule="evenodd" fill="#303030" d="M3.131,119.632c-0.458,0.045-0.458-1.718,0-1.672
	C3.131,118.517,3.131,119.073,3.131,119.632z"/>
<path fill-rule="evenodd" clip-rule="evenodd" fill="#A6A6A6" d="M8.984,102.073c0.346-0.583,0.811-1.048,1.394-1.394
	C10.032,101.263,9.567,101.727,8.984,102.073z"/>
<path fill-rule="evenodd" clip-rule="evenodd" fill="#707070" d="M7.87,103.188c0.251-0.491,0.624-0.863,1.115-1.114
	C8.732,102.563,8.361,102.936,7.87,103.188z"/>
<path fill-rule="evenodd" clip-rule="evenodd" fill="#303030" d="M1.737,123.533c0.093,0,0.186,0,0.279,0
	c0.188,0.648,0.926,0.746,1.115,1.394C2.548,124.581,2.083,124.116,1.737,123.533z"/>
<path fill-rule="evenodd" clip-rule="evenodd" fill="#303030" d="M14.837,129.665c0.347-0.583,0.811-1.047,1.394-1.394
	C15.885,128.854,15.42,129.319,14.837,129.665z"/>
<path fill-rule="evenodd" clip-rule="evenodd" fill="#303030" d="M36.02,116.844c0.251-0.49,0.623-0.862,1.114-1.113
	C36.882,116.221,36.511,116.593,36.02,116.844z"/>
<path fill-rule="evenodd" clip-rule="evenodd" fill="#303030" d="M82.007,125.205c0.345-0.582,0.81-1.047,1.393-1.394
	C83.055,124.395,82.59,124.859,82.007,125.205z"/>
<path fill-rule="evenodd" clip-rule="evenodd" fill="#303030" d="M51.07,26.82c-0.44-0.675-0.998-1.232-1.673-1.672
	c-0.054-0.226-0.28-0.278-0.278-0.558c0.859,0.626,1.603,1.37,2.229,2.229C51.255,26.82,51.162,26.82,51.07,26.82z"/>
<path fill-rule="evenodd" clip-rule="evenodd" fill="#303030" d="M40.2,14.279c-0.366-0.099-0.438-0.491-0.836-0.558
	c-0.052-0.226-0.279-0.278-0.278-0.558C39.576,13.416,39.948,13.787,40.2,14.279z"/>
<path fill-rule="evenodd" clip-rule="evenodd" fill="#707070" d="M36.855,10.934c0.86,0.626,1.604,1.37,2.229,2.229
	C38.225,12.538,37.481,11.794,36.855,10.934z"/>
<path fill-rule="evenodd" clip-rule="evenodd" fill="#D5D5D5" d="M39.363,13.721c0.398,0.066,0.471,0.459,0.836,0.558
	c0.053,0.226,0.28,0.278,0.279,0.557C39.987,14.584,39.615,14.212,39.363,13.721z"/>
<path fill-rule="evenodd" clip-rule="evenodd" fill="#D5D5D5" d="M49.397,25.148c0.675,0.439,1.232,0.997,1.673,1.672
	C50.396,26.381,49.836,25.823,49.397,25.148z"/>
<path fill-rule="evenodd" clip-rule="evenodd" fill="#D5D5D5" d="M3.131,124.927c-0.189-0.647-0.926-0.745-1.115-1.394
	c0.583,0.347,1.047,0.811,1.393,1.394C3.317,124.927,3.224,124.927,3.131,124.927z"/>
<path fill-rule="evenodd" clip-rule="evenodd" fill="#303030" d="M12.607,102.352c0.251-0.492,0.624-0.862,1.115-1.115
	C13.471,101.729,13.099,102.1,12.607,102.352z"/>
<path fill-rule="evenodd" clip-rule="evenodd" fill="#A6A6A6" d="M10.657,104.023c0.439-0.675,0.997-1.232,1.672-1.672
	C11.889,103.026,11.332,103.584,10.657,104.023z"/>
<path fill-rule="evenodd" clip-rule="evenodd" fill="#303030" d="M9.542,105.418c0.252-0.492,0.624-0.864,1.115-1.115
	C10.405,104.794,10.033,105.165,9.542,105.418z"/>
<path fill-rule="evenodd" clip-rule="evenodd" fill="#303030" d="M44.381,90.924c0.439-0.675,0.996-1.232,1.671-1.672
	C45.613,89.927,45.056,90.485,44.381,90.924z"/>
<path fill-rule="evenodd" clip-rule="evenodd" fill="#707070" d="M47.725,27.1c0.583,0.346,1.048,0.81,1.395,1.393
	C48.536,28.146,48.071,27.683,47.725,27.1z"/>
<path fill-rule="evenodd" clip-rule="evenodd" fill="#D5D5D5" d="M46.61,25.706c0.478,0.358,1.097,0.577,1.114,1.394
	C47.092,26.896,46.892,26.26,46.61,25.706z"/>
<path fill-rule="evenodd" clip-rule="evenodd" fill="#D5D5D5" d="M37.691,15.394c-0.733-0.289-0.939-1.105-1.672-1.394
	c0.051-0.237-0.109-0.263-0.279-0.279c-0.188-0.647-0.926-0.746-1.115-1.394C35.764,13.233,36.786,14.255,37.691,15.394z"/>
<path fill-rule="evenodd" clip-rule="evenodd" fill="#303030" d="M34.347,12.327c0.093,0,0.186,0,0.278,0
	c0.189,0.648,0.927,0.747,1.115,1.394C35.157,13.375,34.693,12.911,34.347,12.327z"/>
<path fill-rule="evenodd" clip-rule="evenodd" fill="#303030" d="M36.02,14c0.733,0.288,0.938,1.105,1.672,1.394
	c0.053,0.226,0.28,0.278,0.279,0.558C37.202,15.418,36.552,14.768,36.02,14z"/>
<path fill-rule="evenodd" clip-rule="evenodd" fill="#303030" d="M53.3,31.28c0.491,0.251,0.862,0.624,1.114,1.115
	C53.923,32.143,53.551,31.771,53.3,31.28z"/>
<path fill-rule="evenodd" clip-rule="evenodd" fill="#303030" d="M70.301,73.365c0.283,0.181,0.289,0.641,0.836,0.558
	C71.024,74.617,70.057,73.939,70.301,73.365z"/>
<path fill-rule="evenodd" clip-rule="evenodd" fill="#707070" d="M28.494,19.574c-0.55-0.658-0.966-1.45-1.394-2.23
	c1.366,0.678,2.754-2.132,4.181-1.393c0.267,0.569,0.569,1.103,0.836,1.672C30.602,17.966,29.897,19.119,28.494,19.574z"/>
<path fill-rule="evenodd" clip-rule="evenodd" fill="#707070" d="M24.87,19.017c0.633,0.576,0.99,1.425,1.394,2.23
	c-1.627,0.323-2.385,1.516-3.902,1.951c0.07-1-0.837-1.021-0.836-1.951C22.662,20.524,23.956,19.96,24.87,19.017z"/>
<path fill-rule="evenodd" clip-rule="evenodd" fill="#707070" d="M32.954,37.133c0.616,0.035,0.118,1.182,0.278,1.672
	C32.617,38.77,33.113,37.623,32.954,37.133z"/>
<path fill-rule="evenodd" clip-rule="evenodd" fill="#707070" d="M30.445,38.805c0.623,0.12,0.113,1.374,0.279,1.951
	C30.1,40.636,30.611,39.382,30.445,38.805z"/>
<path fill-rule="evenodd" clip-rule="evenodd" fill="#707070" d="M33.232,39.641c0.629,0.208,0.109,1.563,0.279,2.23
	C32.882,41.664,33.402,40.308,33.232,39.641z"/>
<path fill-rule="evenodd" clip-rule="evenodd" fill="#707070" d="M30.724,41.871c0.629,0.208,0.109,1.563,0.279,2.229
	C30.374,43.894,30.893,42.538,30.724,41.871z"/>
<path fill-rule="evenodd" clip-rule="evenodd" fill="#707070" d="M33.511,42.986c0.624,0.12,0.113,1.374,0.279,1.951
	C33.166,44.816,33.676,43.563,33.511,42.986z"/>
<path fill-rule="evenodd" clip-rule="evenodd" fill="#707070" d="M31.002,44.937c0.615,0.035,0.118,1.183,0.279,1.672
	C30.666,46.575,31.163,45.427,31.002,44.937z"/>
<path fill-rule="evenodd" clip-rule="evenodd" fill="#707070" d="M75.875,72.528c-0.579-0.071-0.076-1.224-0.558-1.392
	c1.036-0.173,1.751-0.665,2.787-0.837c-0.006,0.656,0.48,0.82,0.278,1.672C77.215,71.824,76.826,72.459,75.875,72.528z"/>
<path fill-rule="evenodd" clip-rule="evenodd" fill="#707070" d="M72.81,71.972c0.222,0.521,0.465,1.021,0.557,1.673
	c-0.613-0.581-1.196,0.439-2.229,0.278c-0.547,0.083-0.553-0.377-0.836-0.558C69.694,72.413,71.986,72.379,72.81,71.972z"/>
<path fill-rule="evenodd" clip-rule="evenodd" fill="#707070" d="M51.349,87.022c1.03-0.464,3.987-0.464,5.017,0
	C54.692,87.022,53.02,87.022,51.349,87.022z"/>
<path fill-rule="evenodd" clip-rule="evenodd" fill="#707070" d="M55.249,89.53c0.579,0.166,1.832-0.345,1.952,0.278
	C56.624,89.644,55.37,90.153,55.249,89.53z"/>
<path fill-rule="evenodd" clip-rule="evenodd" fill="#707070" d="M63.055,101.236c0.32,0.33,0.314,0.985,0.278,1.673
	c-1.113-0.093-1.549,0.496-2.786,0.278c0.114-0.672-0.509-0.605-0.279-1.394C61.326,101.738,62.249,101.547,63.055,101.236z"/>
<path fill-rule="evenodd" clip-rule="evenodd" fill="#707070" d="M65.563,100.121c0.27,0.009,0.216,0.342,0.278,0.559
	c1.235,0.318,2.706-1.362,2.786,0.278c0.243,1.542-1.851,0.75-2.508,1.394c0,0.092,0,0.187,0,0.278
	C65.539,102.189,66.025,100.681,65.563,100.121z"/>
<path fill-rule="evenodd" clip-rule="evenodd" fill="#707070" d="M3.689,108.763c-0.327,0.416-0.347,1.139-0.836,1.392
	c-0.699-0.509-1.836-0.579-2.23-1.392c-0.035-0.501,0.341-0.589,0.279-1.116C2.328,107.521,2.427,108.722,3.689,108.763z"/>
<path fill-rule="evenodd" clip-rule="evenodd" fill="#A6A6A6" d="M30.724,117.681c0.405,0.152,1.44-0.326,1.394,0.279
	C31.712,117.807,30.677,118.285,30.724,117.681z"/>
<path fill-rule="evenodd" clip-rule="evenodd" fill="#303030" d="M0.344,117.96c0,0.649,0,1.3,0,1.95
	C-0.115,119.872-0.115,117.997,0.344,117.96z"/>
<path fill-rule="evenodd" clip-rule="evenodd" fill="#A6A6A6" d="M81.45,121.582c0-0.371,0-0.743,0-1.114
	C81.9,120.268,81.9,121.781,81.45,121.582z"/>
<path fill-rule="evenodd" clip-rule="evenodd" fill="#707070" d="M10.935,129.943c0.405,0.153,1.44-0.326,1.394,0.279
	C11.924,130.07,10.888,130.548,10.935,129.943z"/>
<path fill-rule="evenodd" clip-rule="evenodd" fill="#707070" d="M62.776,136.911c0.743,0,1.484,0,2.229,0
	C64.882,137.371,62.898,137.371,62.776,136.911z"/>
<path fill-rule="evenodd" clip-rule="evenodd" fill="#FFFFFF" d="M16.788,0.343c0.557,0,1.115,0,1.672,0
	c7.058,2.604,13.615,5.709,18.395,10.591c0.626,0.86,1.369,1.604,2.229,2.229c-0.001,0.28,0.226,0.332,0.278,0.558
	c0.252,0.491,0.624,0.863,1.116,1.115c3.08,3.051,5.857,6.406,8.64,9.755c-0.002,0.28,0.225,0.332,0.278,0.558
	c0.438,0.675,0.998,1.232,1.673,1.672c0.092,0,0.185,0,0.278,0c1.635,1.108,3.784,1.922,5.017,3.345
	c0.699,0.808,1.869,2.953,2.229,4.181c0.391,1.328,0.093,2.683,0.558,4.181c0.381,1.23,1.37,2.553,2.229,3.902
	c2.44,3.834,5.634,7.776,8.082,11.984c0.15,0.258,0.446,0.627,0.559,0.836c0.44,0.836,0.491,1.471,0.836,2.23
	c0.336,0.743,0.843,1.213,1.113,1.951c0.299,0.804,0.271,1.618,0.56,2.508c0.979,3.027,2.151,5.978,2.786,9.199
	c0.481,0.168-0.021,1.32,0.558,1.392c1.856,5.667,3.573,11.258,5.295,17.002c1.688,5.635,3.716,11.324,5.019,17.28
	c0,0.465,0,0.929,0,1.394c0.26,2.827-3.193,2.899-3.625,5.017c-0.132,0.645,0.303,1.878,0.558,2.788
	c0.32,1.136,0.827,1.802,0.837,3.344c0,1.022,0,2.044,0,3.065c0.238,0.89-0.438,0.863-0.559,1.394
	c-0.583,0.347-1.048,0.812-1.393,1.394c-2.104,1.579-4.191,2.864-6.411,4.46c-1.3,0.935-2.668,1.979-4.181,3.065
	c-1.823,1.311-3.788,3.397-6.409,4.181c-0.745,0-1.486,0-2.229,0c-0.278,0-0.559,0-0.838,0c-0.963-1.079-2.576-1.512-2.508-3.622
	c0-0.651,0-1.302,0-1.951c0.026-1.461,1.492-2.568,2.508-3.345c0.325-0.249,0.918-0.54,1.395-0.837
	c0.219-0.135,0.581-0.111,0.836-0.278c0.418-0.276,0.713-0.842,1.115-1.115c0.267-0.181,0.583-0.122,0.836-0.278
	c0.759-0.473,2.319-1.407,2.786-2.508c-0.2-1.349-0.563-2.456-1.113-3.903c-1.735-4.549-3.63-10.352-4.46-16.164
	c0.036-0.688,0.042-1.343-0.278-1.673c-1.37-4.39-0.619-10.901-5.854-11.428c-0.12-0.623-1.373-0.112-1.952-0.278
	c-0.184,0-0.37,0-0.557,0c0.046-0.456-1.717-0.456-1.673,0c-2.94,0.355-5.509,1.504-6.968,3.903
	c-0.414,0.682-0.745,1.793-1.114,2.786c-0.353,0.949-0.763,1.835-1.115,2.787c-0.343,0.933-0.486,2.124-0.835,3.066
	c-0.357,0.96-0.773,1.878-1.116,2.786c-1.571,4.171-3.084,8.104-4.738,10.871c-0.491,0.251-0.863,0.623-1.114,1.113
	c-1.15,0.523-2.059,1.286-3.902,1.116c0.047-0.605-0.988-0.127-1.394-0.279c-2.478-0.272-3.062-2.16-5.295-1.95
	c-2.376,0.221-3.532,3.356-5.017,5.852c-1.575,2.647-3.208,5.114-4.181,6.689c-0.583,0.347-1.047,0.811-1.394,1.394
	c-0.722,0.299-1.366,0.677-2.508,0.558c0.047-0.605-0.988-0.126-1.394-0.279c-2.897-1.282-5.341-3.02-7.525-5.017
	c-0.346-0.583-0.81-1.047-1.393-1.394c-0.093,0-0.186,0-0.279,0c-0.65-1.021-1.394-1.95-1.393-3.623c0-0.65,0-1.301,0-1.95
	c0.103-3.335,1.436-5.44,2.508-7.806c0.49-0.253,0.51-0.976,0.836-1.392c1.185-2.067,2.527-3.978,4.181-5.575
	c0.491-0.252,0.863-0.624,1.115-1.114c0.583-0.347,1.047-0.811,1.394-1.394c3.56-4.153,9.122-6.378,14.214-9.198
	c0.707-0.392,1.128-0.639,1.951-1.114c0.883-0.511,2.058-1.453,3.066-2.23c0.992-0.764,1.526-1.474,2.509-2.787
	c0.298-0.398,0.667-0.927,1.115-1.394c0.637-0.665,1.74-3.361,2.23-4.46c0.446-1,0.938-2.236,1.394-3.344
	c0.572-1.39,1.898-3.525,1.951-5.574c0.064-2.496-1.725-6.057-2.787-8.361c-0.172-0.374-0.342-0.926-0.558-1.393
	c-0.172-0.373-0.342-0.926-0.558-1.394c-0.104-0.227-0.233-0.451-0.278-0.557c-1.609-3.842-3.053-7.34-3.344-12.264
	c-0.161-0.49,0.336-1.637-0.279-1.672c0-0.278,0-0.557,0-0.836c-0.169-0.667,0.35-2.022-0.279-2.229c0-0.372,0-0.743,0-1.115
	c-0.166-0.578,0.344-1.832-0.279-1.951c0-0.279,0-0.557,0-0.836c0-0.928,0-1.858,0-2.787c0-0.185,0-0.371,0-0.558
	c0.588-0.247,0.824-0.848,1.672-0.836c0.372,0,0.743,0,1.115,0c0.186,0,0.372,0,0.558,0c-2.537-4.151-5.046-8.332-7.525-12.542
	c-0.404-0.805-0.761-1.654-1.394-2.23c-2.545-4.329-5.429-8.795-8.082-13.378c-0.836-1.445-2.218-3.16-0.836-5.017
	C16.176,0.474,16.404,0.331,16.788,0.343z M27.1,17.344c0.428,0.78,0.844,1.572,1.394,2.23c0.067,0.214,0.141,0.413,0.278,0.557
	c0.656,0.685,1.025,1.628,1.394,2.229c0.235,0.384,0.716,1.269,0.836,1.394c0.431,0.45,0.581,0.972,0.836,1.394
	c1.195,1.975,2.184,3.619,3.345,5.574c1.021,1.721,2.169,3.037,1.672,4.459c-0.476,1.359-2.266,1.551-3.902,1.394
	c0,0.186,0,0.372,0,0.557c0.16,0.49-0.337,1.637,0.278,1.672c0,0.279,0,0.558,0,0.836c0.17,0.667-0.35,2.022,0.279,2.23
	c0,0.372,0,0.743,0,1.115c0.166,0.578-0.345,1.831,0.279,1.951c0.492,3.621,1.122,7.352,2.23,9.755
	c0.215,0.468,0.385,1.02,0.557,1.393c0.315,0.685,0.61,1.434,0.836,1.952C37.62,58.509,37.795,59,37.97,59.43
	c1.247,3.056,2.905,6.071,3.345,9.476c0,0.836,0,1.672,0,2.509c0.121,2.071-1.197,4.082-1.672,5.295
	c-0.623,1.587-1.132,2.922-1.672,4.181c-0.425,0.992-0.909,2.172-1.394,3.065c-1.719,3.176-3.969,5.538-6.689,7.525
	c-5.155,3.766-11.26,5.705-16.165,9.755c-0.492,0.253-0.864,0.623-1.115,1.115c-0.093,0-0.186,0-0.279,0
	c-0.675,0.439-1.233,0.997-1.672,1.672c0,0.093,0,0.186,0,0.279c-0.491,0.251-0.863,0.623-1.115,1.115
	c-1.131,1.47-2.207,2.995-3.344,4.458c-0.571,0.451-0.703,1.343-1.115,1.951c-0.711,1.982-1.634,3.755-1.951,6.133
	c-0.458-0.046-0.458,1.717,0,1.672c0,0.278,0,0.557,0,0.836c0.884,1.754,2.267,2.548,4.18,3.902
	c1.104,0.781,3.876,3.254,5.296,3.064c1.367-0.181,2.664-3.014,3.345-4.18c0.732-1.256,1.364-2.084,1.951-3.066
	c1.714-2.872,3.236-6.715,6.689-6.968c0.836,0,1.672,0,2.508,0c2.695,0.151,3.239,2.356,5.854,1.951
	c1.562-0.241,2.68-2.195,3.623-4.459c0.845-2.027,1.568-4.371,2.23-6.132c0.81-2.155,1.539-4.215,2.229-6.132
	c0.932-2.584,2.103-5.968,3.345-7.525c0.675-0.438,1.232-0.997,1.671-1.672c1.577-0.933,2.781-2.236,5.297-2.229
	c1.671,0,3.344,0,5.017,0c7.537-0.106,8.278,6.585,9.198,13.099c0.462,0.56-0.024,2.068,0.557,2.509
	c0.631,2.962,1.304,5.787,1.951,8.083c0.232,0.826,0.284,1.924,0.557,2.787c0.455,1.438,1.356,3.123,1.951,4.738
	c0.15,0.409,0.101,0.922,0.279,1.394c0.162,0.431,0.465,0.732,0.557,1.114c0.761,3.112,0.006,4.367-1.673,5.854
	c-0.857,0.759-2.242,1.144-3.065,1.672c-0.374,0.24-0.679,0.819-1.113,1.115c-0.247,0.167-0.623,0.146-0.838,0.278
	c-1.267,0.787-2.923,1.822-2.787,3.065c0.076,0.697,0.815,1.163,1.395,1.672c1.939-0.249,3.324-1.757,4.738-2.786
	c1.591-1.159,3.641-2.711,5.017-3.623c0.463-0.308,0.854-0.662,1.114-0.837c0.258-0.171,0.346-0.403,0.559-0.557
	c0.326-0.235,0.991-0.283,1.393-0.558c0.116-0.079,0.168-0.454,0.278-0.558c0.225-0.208,0.573-0.09,0.837-0.279
	c0.131-0.092,0.141-0.454,0.279-0.557c0.236-0.178,0.625-0.124,0.835-0.278c0.132-0.097,0.141-0.453,0.278-0.559
	c0.244-0.183,0.619-0.109,0.838-0.278c0.723-0.563,1.446-1.164,1.951-1.951c0.45,0.199,0.45-1.314,0-1.114
	c-0.503-1.82-1.112-3.535-1.395-5.574c0-1.022,0-2.044,0-3.066c-0.084-1.944,2.905-2.194,3.344-3.901
	c0.246-0.954-0.36-2.875-0.836-4.46c-1.498-5.007-3.476-10.664-4.737-14.771c-1.559-5.073-3.062-10.387-4.46-15.05
	c-0.092-0.652-0.335-1.152-0.557-1.673c-0.808-1.575-0.918-3.166-1.395-4.738c-0.473-1.564-1.192-2.977-1.673-4.459
	c-0.505-1.564-0.779-3.104-1.393-4.459c-1.012-2.236-2.732-4.698-3.902-6.41c-0.533-0.782-0.996-1.175-1.393-1.672
	c-0.284-0.354-0.314-0.776-0.557-1.115c-0.575-0.802-1.122-1.625-1.395-2.229c-0.042-0.09-0.489-0.175-0.557-0.279
	c-0.087-0.128,0.063-0.415,0-0.557c-0.042-0.091-0.489-0.175-0.56-0.279c-0.084-0.129,0.064-0.415,0-0.558
	c-0.04-0.092-0.488-0.172-0.557-0.279c-0.227-0.353-0.356-0.799-0.557-1.115c-0.819-1.287-1.81-2.692-2.23-3.902
	c-0.793-2.274-0.773-5.938-2.229-7.525c-0.252-0.491-0.623-0.864-1.114-1.115c-1.434-0.89-3.061-1.584-4.181-2.787
	c-0.347-0.583-0.812-1.047-1.395-1.393c-0.018-0.817-0.637-1.036-1.114-1.394c-3.066-3.065-5.833-6.431-8.64-9.754
	c0.001-0.28-0.226-0.332-0.279-0.558c-0.905-1.139-1.927-2.161-3.066-3.066c-0.093,0-0.186,0-0.278,0
	c-2.141-1.562-4.385-3.665-6.968-5.017c-1.349-0.706-2.833-1.317-4.18-1.951c-1.551-0.729-2.972-1.61-4.181-1.394
	C21.869,8.269,24.481,12.81,27.1,17.344z"/>
<path fill-rule="evenodd" clip-rule="evenodd" fill="#D5D5D5" d="M80.056,111.827c0,1.022,0,2.044,0,3.066
	c-0.637-0.478-0.103-2.128-0.278-3.066C79.869,111.827,79.964,111.827,80.056,111.827z"/>
<path fill-rule="evenodd" clip-rule="evenodd" fill="#D5D5D5" d="M83.958,119.353c0.461,0.391,0.461,2.676,0,3.065
	C83.958,121.396,83.958,120.375,83.958,119.353z"/>
<path fill-rule="evenodd" clip-rule="evenodd" fill="#A6A6A6" d="M30.445,35.182c0,0.929,0,1.859,0,2.787
	C29.983,37.668,29.983,35.482,30.445,35.182z"/>
<path fill-rule="evenodd" clip-rule="evenodd" fill="#707070" d="M6.197,109.876c0.264,1.402,3.212,1.172,1.672,2.788
	c-0.623,0.513-1.554-1.036-2.788-0.837C5.495,111.219,5.626,110.327,6.197,109.876z"/>
<path fill-rule="evenodd" clip-rule="evenodd" fill="#707070" d="M16.788,0.343c-0.046-0.457,1.718-0.457,1.672,0
	C17.903,0.343,17.345,0.343,16.788,0.343z"/>
<path fill-rule="evenodd" clip-rule="evenodd" fill="#303030" d="M41.315,68.906c0.46,0.211,0.46,2.296,0,2.509
	C41.315,70.578,41.315,69.742,41.315,68.906z"/>
<path fill-rule="evenodd" clip-rule="evenodd" fill="#707070" d="M24.592,113.221c0.212-0.461,2.297-0.461,2.508,0
	C26.264,113.221,25.428,113.221,24.592,113.221z"/>
<path fill-rule="evenodd" clip-rule="evenodd" fill="#707070" d="M59.431,131.338c0,0.649,0,1.3,0,1.951
	C58.972,133.251,58.972,131.376,59.431,131.338z"/>
</svg>
