<?xml version="1.0" encoding="utf-8"?>
<!-- Generator: Adobe Illustrator 15.0.0, SVG Export Plug-In  -->
<!DOCTYPE svg PUBLIC "-//W3C//DTD SVG 1.1//EN" "http://www.w3.org/Graphics/SVG/1.1/DTD/svg11.dtd" [
	<!ENTITY ns_flows "http://ns.adobe.com/Flows/1.0/">
]>
<svg version="1.1"
	 xmlns="http://www.w3.org/2000/svg" xmlns:xlink="http://www.w3.org/1999/xlink" xmlns:a="http://ns.adobe.com/AdobeSVGViewerExtensions/3.0/"
	 x="0px" y="0px" width="142px" height="142px" viewBox="-27.806 -2.288 142 142" enable-background="new -27.806 -2.288 142 142"
	 xml:space="preserve">
<defs>
</defs>
<path fill-rule="evenodd" clip-rule="evenodd" fill="#D6D6D6" d="M53.02,89.53c-0.044-0.456,1.719-0.456,1.673,0
	C54.136,89.53,53.579,89.53,53.02,89.53z"/>
<path fill-rule="evenodd" clip-rule="evenodd" fill="#303030" d="M86.188,106.811c0.454-0.126,0.454,1.519,0,1.394
	C86.188,107.739,86.188,107.275,86.188,106.811z"/>
<path fill-rule="evenodd" clip-rule="evenodd" fill="#A6A6A6" d="M79.777,114.058c0-0.094,0-0.187,0-0.279c0.092,0,0.187,0,0.278,0
	c0,0.372,0,0.744,0,1.115C79.731,114.847,79.753,114.453,79.777,114.058z"/>
<path fill-rule="evenodd" clip-rule="evenodd" fill="#303030" d="M3.131,119.632c-0.455,0.125-0.455-1.52,0-1.394
	C3.131,118.703,3.131,119.167,3.131,119.632z"/>
<path fill-rule="evenodd" clip-rule="evenodd" fill="#A6A6A6" d="M30.167,87.857c0.251-0.49,0.624-0.862,1.115-1.113
	C31.029,87.234,30.658,87.606,30.167,87.857z"/>
<path fill-rule="evenodd" clip-rule="evenodd" fill="#707070" d="M10.099,100.958c0.251-0.492,0.623-0.863,1.115-1.115
	C10.962,100.334,10.591,100.705,10.099,100.958z"/>
<path fill-rule="evenodd" clip-rule="evenodd" fill="#A6A6A6" d="M8.984,102.073c0.251-0.492,0.623-0.864,1.115-1.115
	C9.847,101.449,9.475,101.821,8.984,102.073z"/>
<path fill-rule="evenodd" clip-rule="evenodd" fill="#707070" d="M7.87,103.188c0.251-0.491,0.624-0.863,1.115-1.114
	C8.732,102.563,8.361,102.936,7.87,103.188z"/>
<path fill-rule="evenodd" clip-rule="evenodd" fill="#303030" d="M1.737,123.533c0.583,0.347,1.048,0.811,1.394,1.394
	C2.548,124.581,2.083,124.116,1.737,123.533z"/>
<path fill-rule="evenodd" clip-rule="evenodd" fill="#303030" d="M15.116,129.387c0.252-0.491,0.624-0.864,1.115-1.115
	C15.979,128.764,15.607,129.135,15.116,129.387z"/>
<path fill-rule="evenodd" clip-rule="evenodd" fill="#303030" d="M36.02,116.844c0.251-0.49,0.623-0.862,1.114-1.113
	C36.882,116.221,36.511,116.593,36.02,116.844z"/>
<path fill-rule="evenodd" clip-rule="evenodd" fill="#303030" d="M82.007,125.205c0.345-0.582,0.81-1.047,1.393-1.394
	C83.055,124.395,82.59,124.859,82.007,125.205z"/>
<path fill-rule="evenodd" clip-rule="evenodd" fill="#303030" d="M51.07,26.82c-0.44-0.675-0.998-1.232-1.673-1.672
	c-0.054-0.226-0.28-0.278-0.278-0.558c0.859,0.626,1.603,1.37,2.229,2.229C51.255,26.82,51.162,26.82,51.07,26.82z"/>
<path fill-rule="evenodd" clip-rule="evenodd" fill="#707070" d="M40.2,14.279c-0.248-0.124-0.498-0.245-0.557-0.558
	c-0.189-0.647-0.927-0.746-1.115-1.394c0-0.092,0-0.185,0-0.278c0.953-0.719,1.79-1.555,2.508-2.508c0.093,0,0.187,0,0.279,0
	c0.173,0.755,1.164,0.694,1.114,1.672c-0.491,0.251-0.862,0.623-1.114,1.114C40.768,12.783,39.478,13.417,40.2,14.279z"/>
<path fill-rule="evenodd" clip-rule="evenodd" fill="#303030" d="M41.315,12.327c0.252-0.491,0.623-0.863,1.114-1.114
	c0.05-0.979-0.941-0.917-1.114-1.672c0.558,0.463,1.295,0.749,1.393,1.672C42.061,11.401,41.962,12.139,41.315,12.327z"/>
<path fill-rule="evenodd" clip-rule="evenodd" fill="#303030" d="M38.249,12.049c1.096-0.669,1.691-1.839,2.787-2.508
	c-0.719,0.953-1.555,1.789-2.508,2.508c0,0.093,0,0.186,0,0.278c-0.093,0-0.186,0-0.278,0
	C38.249,12.235,38.249,12.142,38.249,12.049z"/>
<path fill-rule="evenodd" clip-rule="evenodd" fill="#707070" d="M36.576,10.655c0.734,0.288,0.939,1.105,1.673,1.394
	c0,0.093,0,0.186,0,0.278C37.574,11.888,37.016,11.331,36.576,10.655z"/>
<path fill-rule="evenodd" clip-rule="evenodd" fill="#A6A6A6" d="M38.249,12.327c0.093,0,0.186,0,0.278,0
	c0.188,0.648,0.926,0.747,1.115,1.394C39.06,13.375,38.595,12.911,38.249,12.327z"/>
<path fill-rule="evenodd" clip-rule="evenodd" fill="#D6D6D6" d="M49.397,25.148c0.675,0.439,1.232,0.997,1.673,1.672
	C50.396,26.381,49.836,25.823,49.397,25.148z"/>
<path fill-rule="evenodd" clip-rule="evenodd" fill="#303030" d="M12.607,102.352c0.251-0.492,0.624-0.862,1.115-1.115
	C13.471,101.729,13.099,102.1,12.607,102.352z"/>
<path fill-rule="evenodd" clip-rule="evenodd" fill="#A6A6A6" d="M10.657,104.023c0.439-0.675,0.997-1.232,1.672-1.672
	C11.889,103.026,11.332,103.584,10.657,104.023z"/>
<path fill-rule="evenodd" clip-rule="evenodd" fill="#303030" d="M44.381,90.924c0.439-0.675,0.996-1.232,1.671-1.672
	C45.613,89.927,45.056,90.485,44.381,90.924z"/>
<path fill-rule="evenodd" clip-rule="evenodd" fill="#707070" d="M69.742,126.321c0.252-0.492,0.625-0.863,1.116-1.116
	C70.605,125.697,70.235,126.068,69.742,126.321z"/>
<path fill-rule="evenodd" clip-rule="evenodd" fill="#707070" d="M47.725,27.1c0.583,0.346,1.048,0.81,1.395,1.393
	C48.536,28.146,48.071,27.683,47.725,27.1z"/>
<path fill-rule="evenodd" clip-rule="evenodd" fill="#D6D6D6" d="M34.904,12.606c0.861,0.626,1.604,1.369,2.23,2.229
	c-0.366-0.099-0.438-0.491-0.836-0.557C36.01,13.545,35.193,13.34,34.904,12.606z"/>
<path fill-rule="evenodd" clip-rule="evenodd" fill="#303030" d="M34.347,12.327c0.226,0.053,0.277,0.28,0.557,0.279
	c0.289,0.733,1.106,0.938,1.394,1.672c-1.046,0.812-1.975,1.741-2.787,2.787c-0.734-0.641,2.593-2.183,2.509-3.066
	C35.973,13.522,34.531,13.229,34.347,12.327z"/>
<path fill-rule="evenodd" clip-rule="evenodd" fill="#707070" d="M36.298,17.066c-0.909,1.006-2.282,2.072-2.787,0
	c0.812-1.046,1.741-1.975,2.787-2.787c0.397,0.066,0.47,0.458,0.836,0.557c0.124,0.248,0.245,0.499,0.558,0.558
	c0,0.093,0,0.186,0,0.278C37.108,16.018,36.644,16.483,36.298,17.066z"/>
<path fill-rule="evenodd" clip-rule="evenodd" fill="#303030" d="M36.298,17.066c0.346-0.583,0.811-1.048,1.394-1.394
	c0.401,0.156,0.68,0.435,0.836,0.836c-0.248-0.124-0.499-0.245-0.557-0.557C36.991,15.901,37.054,16.892,36.298,17.066z"/>
<path fill-rule="evenodd" clip-rule="evenodd" fill="#303030" d="M53.3,31.28c0.491,0.251,0.862,0.624,1.114,1.115
	C53.923,32.143,53.551,31.771,53.3,31.28z"/>
<path fill-rule="evenodd" clip-rule="evenodd" fill="#707070" d="M80.334,116.009c-0.236,0.051-0.263-0.109-0.278-0.278
	c-0.551-0.488-3.169,1.214-3.065-0.837c0.489-0.719,1.835-0.579,2.787-0.836c-0.024,0.396-0.046,0.789,0.278,0.836
	C80.02,115.394,80.396,115.481,80.334,116.009z"/>
<path fill-rule="evenodd" clip-rule="evenodd" fill="#707070" d="M41.036,73.087c0,0.093,0,0.186,0,0.278
	c0.982,0.329,3.268,0.491,2.23,1.951c-0.785,0.767-1.738-0.664-2.787-0.558c0.045,0.324-0.062,0.496-0.279,0.558
	C40.468,74.563,40.65,73.723,41.036,73.087z"/>
<path fill-rule="evenodd" clip-rule="evenodd" fill="#707070" d="M37.97,107.09c-0.118-1.412-3.148-0.614-2.23-2.23
	c0.619-1.321,1.764,0.55,3.066,0.278C38.386,105.646,38.511,106.701,37.97,107.09z"/>
<path fill-rule="evenodd" clip-rule="evenodd" fill="#FFFFFF" d="M18.46,0.343c6.952,2.524,13.353,5.599,18.116,10.313
	c0.44,0.675,0.998,1.233,1.673,1.672c0.346,0.583,0.811,1.048,1.394,1.394c0.059,0.313,0.309,0.434,0.557,0.558
	c2.944,3.467,6.086,6.735,8.919,10.312c-0.002,0.28,0.225,0.332,0.278,0.558c0.438,0.675,0.998,1.232,1.673,1.672
	c0.092,0,0.185,0,0.278,0c2.17,0.97,4.001,2.54,5.573,4.181c0.425,0.442,1.114,2.208,1.395,3.066
	c0.469,1.437,0.367,2.948,0.836,4.459c0.393,1.269,1.412,2.62,2.229,3.902c0.227,0.355,0.36,0.775,0.557,1.115
	c0.066,0.114,0.516,0.182,0.56,0.278c0.062,0.142-0.089,0.431,0,0.558c0.338,0.5,1.025,0.868,1.393,1.394
	c0.2,0.287,0.311,0.754,0.557,1.115c0.2,0.294,0.349,0.538,0.559,0.836c2.603,3.715,5.891,8.367,7.525,13.378
	c0.258,0.791,0.309,1.701,0.557,2.508c0.41,1.334,0.869,2.686,1.393,4.459c1.915,6.481,4.333,13.477,6.41,20.346
	c1.85,6.106,3.791,12.031,5.298,18.395c0,0.465,0,0.929,0,1.394c0.05,2.931-2.941,2.819-3.625,5.017
	c0.161,0.49-0.336,1.638,0.279,1.673c0.404,1.453,1.016,2.7,1.115,4.459c0,1.022,0,2.044,0,3.065
	c0.238,0.89-0.438,0.863-0.559,1.394c-0.583,0.347-1.048,0.812-1.393,1.394c-2.104,1.579-4.191,2.864-6.411,4.46
	c-1.31,0.941-2.662,1.975-4.181,3.065c-1.797,1.293-3.803,3.347-6.409,4.181c-0.745,0-1.486,0-2.229,0c-0.278,0-0.559,0-0.838,0
	c-0.963-1.079-2.576-1.512-2.508-3.622c0-0.559,0-1.116,0-1.673c0-0.372,0-0.743,0-1.115c1.232-1.625,3.021-2.757,4.738-3.901
	c1.698-1.133,3.702-1.856,4.737-3.623c-0.3-2.383-1.632-4.675-2.508-7.246c-1.621-4.761-2.582-10.32-3.622-15.888
	c-0.874-4.675-1.034-9.37-5.575-10.034c-0.12-0.623-1.373-0.112-1.952-0.278c-0.184,0-0.37,0-0.557,0
	c0.046-0.456-1.717-0.456-1.673,0c-2.999,0.32-5.585,1.63-6.968,3.903c-1.081,1.779-1.436,4.259-2.229,6.409
	c-0.818,2.22-1.814,4.189-2.508,6.132c-0.398,0.532-0.648,1.21-0.836,1.951c-0.845,2.872-1.898,5.534-3.345,7.805
	c-0.491,0.251-0.863,0.623-1.114,1.113c-0.785,0.237-1.144,0.9-2.23,0.837c-0.405,0.152-1.44-0.326-1.394,0.279
	c-0.092,0-0.185,0-0.278,0c0.047-0.605-0.988-0.127-1.394-0.279c-2.478-0.272-3.062-2.16-5.295-1.95
	c-2.376,0.221-3.532,3.356-5.017,5.852c-1.575,2.647-3.208,5.114-4.181,6.689c-0.491,0.251-0.863,0.624-1.115,1.115
	c-0.703,0.505-1.46,0.955-2.787,0.836c0.047-0.605-0.988-0.126-1.394-0.279c-3.039-1.234-5.288-3.259-7.804-5.017
	c-0.346-0.583-0.811-1.047-1.394-1.394c-0.65-1.021-1.394-1.95-1.393-3.623c0-0.65,0-1.301,0-1.95
	c0.808-6.624,4.041-10.824,7.525-14.772c0.491-0.252,0.863-0.624,1.115-1.114c0.491-0.252,0.863-0.624,1.115-1.115
	c0.492-0.253,0.863-0.624,1.115-1.115c3.787-4.104,9.537-5.94,14.493-8.919c1.597-0.959,2.877-2.217,4.46-3.066
	c0.491-0.251,0.863-0.623,1.115-1.113c0.369-1.092,1.328-1.793,1.951-2.788c1.687-2.692,2.834-6.468,4.459-9.755
	c0.54-0.389,0.416-1.442,0.836-1.951c0.561-3.354-1.086-6.949-2.508-10.033c-0.172-0.374-0.342-0.926-0.558-1.393
	c-0.172-0.373-0.342-0.926-0.558-1.394c-0.104-0.227-0.233-0.451-0.278-0.557c-1.616-3.86-3.097-7.523-3.344-12.264
	c-0.161-0.49,0.336-1.637-0.279-1.672c0-0.372,0-0.743,0-1.115c-0.166-0.578,0.344-1.831-0.279-1.951c0-0.372,0-0.743,0-1.115
	c-0.166-0.578,0.344-1.832-0.279-1.951c0-0.279,0-0.557,0-0.836c0-0.928,0-1.858,0-2.787c0-0.185,0-0.371,0-0.558
	c0.741-0.718,2.131-1.411,3.345-0.836c-4.3-6.922-8.254-13.802-12.542-20.903c-0.194-0.323-0.36-0.774-0.557-1.115
	c-0.067-0.115-0.514-0.182-0.558-0.279c-1.181-2.62-3.215-5.271-4.459-8.083c0-0.65,0-1.3,0-1.951c0-0.186,0-0.372,0-0.558
	c0.554-0.003,0.354-0.76,1.115-0.558C17.345,0.343,17.903,0.343,18.46,0.343z M34.347,12.327c-2.141-1.562-4.385-3.665-6.968-5.017
	c-1.349-0.706-2.833-1.317-4.18-1.951c-1.551-0.729-2.972-1.61-4.181-1.394c4.832,7.717,9.182,15,13.936,22.854
	c0.582,0.962,1.364,2.445,2.23,3.902c0.925,1.559,2.153,3.083,1.672,4.459c-0.443,1.265-2.541,1.37-3.902,1.672
	c0,0.093,0,0.187,0,0.279c0.16,0.49-0.337,1.637,0.278,1.672c0,0.279,0,0.558,0,0.836c0.17,0.667-0.35,2.022,0.279,2.23
	c0,0.372,0,0.743,0,1.115c0.166,0.578-0.345,1.831,0.279,1.951c0.492,3.621,1.122,7.352,2.23,9.755
	c0.215,0.468,0.385,1.02,0.557,1.393c0.315,0.685,0.61,1.434,0.836,1.952C37.62,58.509,37.795,59,37.97,59.43
	c1.247,3.056,2.905,6.071,3.345,9.476c0,0.836,0,1.672,0,2.509c0.037,0.686,0.042,1.342-0.279,1.672
	c-0.385,0.636-0.568,1.476-0.836,2.229c-1.229,3.597-2.634,6.509-4.18,9.197c-0.472,0.818-0.994,2.09-1.394,2.509
	c-1.49,1.556-2.93,3.127-4.738,4.459c-5.144,3.789-11.326,5.72-16.165,9.755c-0.492,0.253-0.864,0.623-1.115,1.115
	c-0.093,0-0.186,0-0.279,0c-0.675,0.439-1.233,0.997-1.672,1.672c-1.496,2.034-3.148,3.921-4.459,6.131
	c-1.352,2.279-2.819,5.108-3.066,8.084c-0.455-0.126-0.455,1.519,0,1.394c0,0.278,0,0.557,0,0.836
	c0.884,1.754,2.267,2.548,4.18,3.902c1.104,0.781,3.876,3.254,5.296,3.064c1.367-0.181,2.664-3.014,3.345-4.18
	c0.732-1.256,1.364-2.084,1.951-3.066c1.714-2.872,3.236-6.715,6.689-6.968c0.836,0,1.672,0,2.508,0
	c2.804,0.274,3.4,2.331,5.854,1.951c3.308-0.512,3.29-5.529,5.017-8.082c0.541-0.389,0.416-1.443,0.836-1.952
	c0.481-2.186,1.434-4.218,2.229-6.409c0.954-2.627,1.938-6.166,3.345-7.805c0.675-0.438,1.232-0.997,1.671-1.672
	c1.577-0.933,2.781-2.236,5.297-2.229c1.671,0,3.344,0,5.017,0c2.18-0.29,4.355,0.905,5.295,1.672
	c0.515,0.42,0.896,0.785,1.116,1.114c0.417,0.632,0.871,1.349,1.114,1.952c0.896,2.22,1.052,5.263,1.673,8.36
	c1.159,5.788,2.479,11.067,4.179,15.888c1.278,3.623,3.069,7.485,1.116,9.196c-0.491,0.253-0.864,0.624-1.116,1.116
	c-1.122,1.751-8.063,4.034-7.804,6.409c0.082,0.75,0.752,1.086,1.395,1.672c1.939-0.249,3.324-1.757,4.738-2.786
	c1.591-1.159,3.641-2.711,5.017-3.623c0.463-0.308,0.854-0.662,1.114-0.837c0.258-0.171,0.346-0.403,0.559-0.557
	c0.326-0.235,0.991-0.283,1.393-0.558c0.116-0.079,0.168-0.454,0.278-0.558c0.225-0.208,0.573-0.09,0.837-0.279
	c0.131-0.092,0.141-0.454,0.279-0.557c0.236-0.178,0.625-0.124,0.835-0.278c0.132-0.097,0.141-0.453,0.278-0.559
	c0.244-0.183,0.619-0.109,0.838-0.278c0.723-0.563,1.446-1.164,1.951-1.951c0.45,0.199,0.45-1.314,0-1.114
	c-0.467-1.393-0.842-2.876-1.116-4.459c0.063-0.527-0.314-0.615-0.278-1.115c0-0.371,0-0.743,0-1.115c0-0.649,0-1.301,0-1.951
	c0.136-2.063,2.923-2.266,3.344-3.901c0.453-1.754-1.585-6.271-2.509-9.197c-1.138-3.614-2.029-6.729-2.786-9.198
	c-1.905-6.215-3.845-12.589-5.573-18.115c-1.533-4.895-2.899-10.227-4.738-14.215c-0.453-0.979-1.479-2.851-1.951-3.344
	c-0.225-0.234-0.331-0.6-0.558-0.836c-0.669-0.699-1.184-1.523-1.673-2.23c-0.627-0.906-1.208-1.828-1.673-2.508
	c-0.252-0.371-0.326-0.786-0.557-1.115c-0.358-0.514-1.029-0.876-1.395-1.394c-0.086-0.123,0.064-0.418,0-0.558
	c-0.04-0.092-0.488-0.172-0.557-0.279c-0.194-0.302-0.366-0.816-0.557-1.115c-0.817-1.278-1.747-2.513-2.23-3.902
	c-0.391-1.123-0.547-2.511-0.835-3.623c-0.407-1.569-0.661-2.884-1.116-3.624c-0.054-0.087-0.419,0.014-0.278-0.278
	c-0.252-0.491-0.623-0.864-1.114-1.115c-1.434-0.89-3.061-1.584-4.181-2.787c-0.347-0.583-0.812-1.047-1.395-1.393
	c-3.132-3.464-6.293-6.899-9.197-10.591c-0.156-0.401-0.435-0.68-0.836-0.836c0-0.093,0-0.186,0-0.278
	c-0.313-0.059-0.434-0.31-0.558-0.558c-0.625-0.86-1.369-1.604-2.23-2.229C34.625,12.607,34.573,12.38,34.347,12.327z"/>
<path fill-rule="evenodd" clip-rule="evenodd" fill="#707070" d="M32.954,37.133c0.616,0.035,0.118,1.182,0.278,1.672
	C32.617,38.77,33.113,37.623,32.954,37.133z"/>
<path fill-rule="evenodd" clip-rule="evenodd" fill="#707070" d="M30.445,38.805c0.623,0.12,0.113,1.374,0.279,1.951
	C30.1,40.636,30.611,39.382,30.445,38.805z"/>
<path fill-rule="evenodd" clip-rule="evenodd" fill="#707070" d="M33.232,39.641c0.629,0.208,0.109,1.563,0.279,2.23
	C32.882,41.664,33.402,40.308,33.232,39.641z"/>
<path fill-rule="evenodd" clip-rule="evenodd" fill="#707070" d="M30.724,41.871c0.623,0.12,0.113,1.373,0.279,1.951
	C30.379,43.702,30.89,42.449,30.724,41.871z"/>
<path fill-rule="evenodd" clip-rule="evenodd" fill="#707070" d="M33.511,42.986c0.624,0.12,0.113,1.374,0.279,1.951
	C33.166,44.816,33.676,43.563,33.511,42.986z"/>
<path fill-rule="evenodd" clip-rule="evenodd" fill="#707070" d="M31.002,44.937c0.615,0.035,0.118,1.183,0.279,1.672
	C30.666,46.575,31.163,45.427,31.002,44.937z"/>
<path fill-rule="evenodd" clip-rule="evenodd" fill="#707070" d="M38.527,72.25c-0.42,0.509-0.296,1.563-0.836,1.951
	c-0.098-1.109-1.669-0.746-2.229-1.394c-0.23-0.788,0.393-0.722,0.278-1.393C36.881,71.48,37.311,72.26,38.527,72.25z"/>
<path fill-rule="evenodd" clip-rule="evenodd" fill="#707070" d="M51.349,87.022c1.03-0.464,3.987-0.464,5.017,0
	C54.692,87.022,53.02,87.022,51.349,87.022z"/>
<path fill-rule="evenodd" clip-rule="evenodd" fill="#707070" d="M55.249,89.53c0.579,0.166,1.832-0.345,1.952,0.278
	C56.624,89.644,55.37,90.153,55.249,89.53z"/>
<path fill-rule="evenodd" clip-rule="evenodd" fill="#707070" d="M82.843,114.894c-0.615-0.035-0.118-1.183-0.279-1.673
	c1.114,0.093,1.547-0.497,2.787-0.278c0,0.278,0,0.558,0,0.836C85.2,114.836,83.618,114.461,82.843,114.894z"/>
<path fill-rule="evenodd" clip-rule="evenodd" fill="#A6A6A6" d="M30.724,117.681c0.405,0.152,1.44-0.326,1.394,0.279
	C31.712,117.807,30.677,118.285,30.724,117.681z"/>
<path fill-rule="evenodd" clip-rule="evenodd" fill="#A6A6A6" d="M32.396,117.96c-0.046-0.605,0.989-0.127,1.394-0.279
	C33.836,118.285,32.801,117.807,32.396,117.96z"/>
<path fill-rule="evenodd" clip-rule="evenodd" fill="#303030" d="M0.344,117.96c0,0.649,0,1.3,0,1.95
	C-0.115,119.872-0.115,117.997,0.344,117.96z"/>
<path fill-rule="evenodd" clip-rule="evenodd" fill="#A6A6A6" d="M81.45,121.582c0-0.371,0-0.743,0-1.114
	C81.9,120.268,81.9,121.781,81.45,121.582z"/>
<path fill-rule="evenodd" clip-rule="evenodd" fill="#707070" d="M10.935,129.943c0.405,0.153,1.44-0.326,1.394,0.279
	C11.924,130.07,10.888,130.548,10.935,129.943z"/>
<path fill-rule="evenodd" clip-rule="evenodd" fill="#707070" d="M62.776,136.911c0.743,0,1.484,0,2.229,0
	C64.882,137.371,62.898,137.371,62.776,136.911z"/>
<path fill-rule="evenodd" clip-rule="evenodd" fill="#D6D6D6" d="M15.673,1.458c0,0.65,0,1.301,0,1.951
	C15.214,3.371,15.214,1.496,15.673,1.458z"/>
<path fill-rule="evenodd" clip-rule="evenodd" fill="#D6D6D6" d="M80.056,111.827c0,0.65,0,1.302,0,1.951c-0.092,0-0.187,0-0.278,0
	C79.943,113.202,79.433,111.947,80.056,111.827z"/>
<path fill-rule="evenodd" clip-rule="evenodd" fill="#D6D6D6" d="M83.958,119.353c0.461,0.391,0.461,2.676,0,3.065
	C83.958,121.396,83.958,120.375,83.958,119.353z"/>
<path fill-rule="evenodd" clip-rule="evenodd" fill="#A6A6A6" d="M30.445,35.182c0,0.929,0,1.859,0,2.787
	C29.983,37.668,29.983,35.482,30.445,35.182z"/>
<path fill-rule="evenodd" clip-rule="evenodd" fill="#707070" d="M40.479,107.926c0.188-0.741,0.438-1.419,0.836-1.951
	c0.501,0.706,1.468,0.946,2.508,1.115c0.114,0.671-0.509,0.605-0.279,1.393C42.11,108.767,41.309,107.368,40.479,107.926z"/>
<path fill-rule="evenodd" clip-rule="evenodd" fill="#707070" d="M16.788,0.343c-0.046-0.457,1.718-0.457,1.672,0
	C17.903,0.343,17.345,0.343,16.788,0.343z"/>
<path fill-rule="evenodd" clip-rule="evenodd" fill="#303030" d="M41.315,68.906c0.46,0.211,0.46,2.296,0,2.509
	C41.315,70.578,41.315,69.742,41.315,68.906z"/>
<path fill-rule="evenodd" clip-rule="evenodd" fill="#707070" d="M24.592,113.221c0.212-0.461,2.297-0.461,2.508,0
	C26.264,113.221,25.428,113.221,24.592,113.221z"/>
<path fill-rule="evenodd" clip-rule="evenodd" fill="#707070" d="M59.431,131.616c0,0.557,0,1.114,0,1.673
	C58.974,133.334,58.974,131.57,59.431,131.616z"/>
</svg>
