<?xml version="1.0" encoding="utf-8"?>
<!-- Generator: Adobe Illustrator 15.0.0, SVG Export Plug-In  -->
<!DOCTYPE svg PUBLIC "-//W3C//DTD SVG 1.1//EN" "http://www.w3.org/Graphics/SVG/1.1/DTD/svg11.dtd" [
	<!ENTITY ns_flows "http://ns.adobe.com/Flows/1.0/">
]>
<svg version="1.1"
	 xmlns="http://www.w3.org/2000/svg" xmlns:xlink="http://www.w3.org/1999/xlink" xmlns:a="http://ns.adobe.com/AdobeSVGViewerExtensions/3.0/"
	 x="0px" y="0px" width="142px" height="142px" viewBox="-27.806 -2.288 142 142" enable-background="new -27.806 -2.288 142 142"
	 xml:space="preserve">
<defs>
</defs>
<path fill-rule="evenodd" clip-rule="evenodd" fill="#303030" d="M70.579,72.25c-0.016,0.356-0.358,0.387-0.278,0.837
	c-0.17-0.017-0.33-0.041-0.278-0.279C70.053,72.468,70.104,72.148,70.579,72.25z"/>
<path fill-rule="evenodd" clip-rule="evenodd" fill="#D5D5D5" d="M53.02,89.53c-0.044-0.456,1.719-0.456,1.673,0
	C54.136,89.53,53.579,89.53,53.02,89.53z"/>
<path fill-rule="evenodd" clip-rule="evenodd" fill="#303030" d="M86.188,106.811c0.454-0.126,0.454,1.519,0,1.394
	C86.188,107.739,86.188,107.275,86.188,106.811z"/>
<path fill-rule="evenodd" clip-rule="evenodd" fill="#303030" d="M3.131,119.632c-0.458,0.045-0.458-1.718,0-1.672
	C3.131,118.517,3.131,119.073,3.131,119.632z"/>
<path fill-rule="evenodd" clip-rule="evenodd" fill="#A4A4A4" d="M30.167,87.857c0.251-0.49,0.624-0.862,1.115-1.113
	C31.029,87.234,30.658,87.606,30.167,87.857z"/>
<path fill-rule="evenodd" clip-rule="evenodd" fill="#707070" d="M10.099,100.958c0.251-0.492,0.623-0.863,1.115-1.115
	C10.962,100.334,10.591,100.705,10.099,100.958z"/>
<path fill-rule="evenodd" clip-rule="evenodd" fill="#A4A4A4" d="M8.984,102.073c0.251-0.492,0.623-0.864,1.115-1.115
	C9.847,101.449,9.475,101.821,8.984,102.073z"/>
<path fill-rule="evenodd" clip-rule="evenodd" fill="#707070" d="M7.87,103.188c0.251-0.491,0.624-0.863,1.115-1.114
	C8.732,102.563,8.361,102.936,7.87,103.188z"/>
<path fill-rule="evenodd" clip-rule="evenodd" fill="#303030" d="M1.737,123.533c0.093,0,0.186,0,0.279,0
	c0.188,0.648,0.926,0.746,1.115,1.394C2.548,124.581,2.083,124.116,1.737,123.533z"/>
<path fill-rule="evenodd" clip-rule="evenodd" fill="#303030" d="M15.116,129.387c0.252-0.491,0.624-0.864,1.115-1.115
	C15.979,128.764,15.607,129.135,15.116,129.387z"/>
<path fill-rule="evenodd" clip-rule="evenodd" fill="#303030" d="M36.02,116.844c0.251-0.49,0.623-0.862,1.114-1.113
	C36.882,116.221,36.511,116.593,36.02,116.844z"/>
<path fill-rule="evenodd" clip-rule="evenodd" fill="#303030" d="M46.61,92.597c0.251-0.492,0.623-0.863,1.114-1.115
	C47.473,91.973,47.102,92.345,46.61,92.597z"/>
<path fill-rule="evenodd" clip-rule="evenodd" fill="#303030" d="M82.007,125.205c0.345-0.582,0.81-1.047,1.393-1.394
	C83.055,124.395,82.59,124.859,82.007,125.205z"/>
<path fill-rule="evenodd" clip-rule="evenodd" fill="#303030" d="M51.07,26.82c-0.44-0.675-0.998-1.232-1.673-1.672
	c-0.054-0.226-0.28-0.278-0.278-0.558c0.859,0.626,1.603,1.37,2.229,2.229C51.255,26.82,51.162,26.82,51.07,26.82z"/>
<path fill-rule="evenodd" clip-rule="evenodd" fill="#303030" d="M40.2,14.279c-0.366-0.099-0.438-0.491-0.836-0.558
	c-0.052-0.226-0.279-0.278-0.278-0.558C39.576,13.416,39.948,13.787,40.2,14.279z"/>
<path fill-rule="evenodd" clip-rule="evenodd" fill="#707070" d="M36.855,10.934c0.86,0.626,1.604,1.37,2.229,2.229
	C38.225,12.538,37.481,11.794,36.855,10.934z"/>
<path fill-rule="evenodd" clip-rule="evenodd" fill="#D5D5D5" d="M39.363,13.721c0.398,0.066,0.471,0.459,0.836,0.558
	c0.053,0.226,0.28,0.278,0.279,0.557C39.987,14.584,39.615,14.212,39.363,13.721z"/>
<path fill-rule="evenodd" clip-rule="evenodd" fill="#D5D5D5" d="M49.397,25.148c0.675,0.439,1.232,0.997,1.673,1.672
	C50.396,26.381,49.836,25.823,49.397,25.148z"/>
<path fill-rule="evenodd" clip-rule="evenodd" fill="#D5D5D5" d="M3.131,124.927c-0.189-0.647-0.926-0.745-1.115-1.394
	c0.583,0.347,1.047,0.811,1.393,1.394C3.317,124.927,3.224,124.927,3.131,124.927z"/>
<path fill-rule="evenodd" clip-rule="evenodd" fill="#707070" d="M3.689,108.763c-0.207,0.814-0.675,1.369-1.115,1.95
	c-0.576-0.633-1.425-0.99-2.229-1.394c-0.043-0.693,0.438-0.862,0.558-1.394C1.833,108.146,2.757,109.42,3.689,108.763z"/>
<path fill-rule="evenodd" clip-rule="evenodd" fill="#303030" d="M12.607,102.352c0.251-0.492,0.624-0.862,1.115-1.115
	C13.471,101.729,13.099,102.1,12.607,102.352z"/>
<path fill-rule="evenodd" clip-rule="evenodd" fill="#A4A4A4" d="M10.657,104.023c0.439-0.675,0.997-1.232,1.672-1.672
	C11.889,103.026,11.332,103.584,10.657,104.023z"/>
<path fill-rule="evenodd" clip-rule="evenodd" fill="#D5D5D5" d="M9.542,105.418c0.019-0.817,0.637-1.036,1.115-1.395
	C10.375,104.579,10.175,105.214,9.542,105.418z"/>
<path fill-rule="evenodd" clip-rule="evenodd" fill="#303030" d="M44.381,90.924c0.439-0.675,0.996-1.232,1.671-1.672
	C45.613,89.927,45.056,90.485,44.381,90.924z"/>
<path fill-rule="evenodd" clip-rule="evenodd" fill="#707070" d="M69.742,126.321c0.252-0.492,0.625-0.863,1.116-1.116
	C70.605,125.697,70.235,126.068,69.742,126.321z"/>
<path fill-rule="evenodd" clip-rule="evenodd" fill="#707070" d="M47.725,27.1c0.583,0.346,1.048,0.81,1.395,1.393
	C48.536,28.146,48.071,27.683,47.725,27.1z"/>
<path fill-rule="evenodd" clip-rule="evenodd" fill="#D5D5D5" d="M37.691,15.394c-1.139-0.906-2.161-1.927-3.066-3.066
	C35.764,13.233,36.786,14.255,37.691,15.394z"/>
<path fill-rule="evenodd" clip-rule="evenodd" fill="#303030" d="M34.347,12.327c0.093,0,0.186,0,0.278,0
	c0.905,1.139,1.927,2.161,3.066,3.066c0.053,0.226,0.28,0.278,0.279,0.558C36.646,14.859,35.438,13.651,34.347,12.327z"/>
<path fill-rule="evenodd" clip-rule="evenodd" fill="#303030" d="M46.61,25.984c0.491,0.252,0.862,0.624,1.114,1.115
	C47.233,26.848,46.861,26.476,46.61,25.984z"/>
<path fill-rule="evenodd" clip-rule="evenodd" fill="#303030" d="M53.3,31.28c0.491,0.251,0.862,0.624,1.114,1.115
	C53.923,32.143,53.551,31.771,53.3,31.28z"/>
<path fill-rule="evenodd" clip-rule="evenodd" fill="#707070" d="M70.579,72.25c0.714-0.215,1.581-0.277,1.952-0.835
	c0.488,0.532,0.591,1.453,0.835,2.229c-0.271-0.008-0.216-0.342-0.278-0.558c-0.952-0.176-2.823,1.808-2.787,0
	C70.221,72.637,70.563,72.606,70.579,72.25z"/>
<path fill-rule="evenodd" clip-rule="evenodd" fill="#707070" d="M66.955,107.09c0.272,0.008,0.217,0.341,0.278,0.557
	c0.489,0.537,2.924-1.146,3.067,0.558c-0.262,1.04-1.801,0.802-2.786,1.115C67.238,108.665,67.025,107.95,66.955,107.09z"/>
<path fill-rule="evenodd" clip-rule="evenodd" fill="#707070" d="M65.006,110.154c-1.34-0.262-2.336,0.806-3.067,0.279
	c0-0.464,0-0.928,0-1.393c0.83-0.287,2.229-0.002,2.509-0.837C64.954,108.534,64.668,109.658,65.006,110.154z"/>
<path fill-rule="evenodd" clip-rule="evenodd" fill="#D5D5D5" d="M15.673,3.409c-0.459-0.038-0.459-1.913,0-1.951
	C15.673,2.108,15.673,2.759,15.673,3.409z"/>
<path fill-rule="evenodd" clip-rule="evenodd" fill="#707070" d="M27.658,18.181c-0.551-0.658-0.966-1.45-1.394-2.229
	c1.63-0.048,2.797-2.027,3.902-1.672c0.25,0.493,0.672,0.813,0.836,1.393C30.314,16.936,28.456,17.028,27.658,18.181z"/>
<path fill-rule="evenodd" clip-rule="evenodd" fill="#D5D5D5" d="M36.576,35.182c0-0.65,0-1.301,0-1.95
	C37.036,33.269,37.036,35.144,36.576,35.182z"/>
<path fill-rule="evenodd" clip-rule="evenodd" fill="#707070" d="M32.954,37.133c0.616,0.035,0.118,1.182,0.278,1.672
	C32.617,38.77,33.113,37.623,32.954,37.133z"/>
<path fill-rule="evenodd" clip-rule="evenodd" fill="#707070" d="M30.445,38.805c0.623,0.12,0.113,1.374,0.279,1.951
	C30.1,40.636,30.611,39.382,30.445,38.805z"/>
<path fill-rule="evenodd" clip-rule="evenodd" fill="#707070" d="M33.232,39.641c0.629,0.208,0.109,1.563,0.279,2.23
	C32.882,41.664,33.402,40.308,33.232,39.641z"/>
<path fill-rule="evenodd" clip-rule="evenodd" fill="#707070" d="M30.724,41.871c0.623,0.12,0.113,1.373,0.279,1.951
	C30.379,43.702,30.89,42.449,30.724,41.871z"/>
<path fill-rule="evenodd" clip-rule="evenodd" fill="#707070" d="M33.511,42.986c0.624,0.12,0.113,1.374,0.279,1.951
	C33.166,44.816,33.676,43.563,33.511,42.986z"/>
<path fill-rule="evenodd" clip-rule="evenodd" fill="#707070" d="M31.002,44.937c0.615,0.035,0.118,1.183,0.279,1.672
	C30.666,46.575,31.163,45.427,31.002,44.937z"/>
<path fill-rule="evenodd" clip-rule="evenodd" fill="#707070" d="M75.875,72.528c-0.415-0.422-0.449-1.222-0.558-1.95
	c1.286,0.172,1.604-0.625,2.787-0.558c-0.23,0.788,0.393,0.722,0.278,1.395C77.525,71.765,76.271,71.717,75.875,72.528z"/>
<path fill-rule="evenodd" clip-rule="evenodd" fill="#707070" d="M51.349,87.022c1.03-0.464,3.987-0.464,5.017,0
	C54.692,87.022,53.02,87.022,51.349,87.022z"/>
<path fill-rule="evenodd" clip-rule="evenodd" fill="#707070" d="M55.249,89.53c0.579,0.166,1.832-0.345,1.952,0.278
	C56.624,89.644,55.37,90.153,55.249,89.53z"/>
<path fill-rule="evenodd" clip-rule="evenodd" fill="#707070" d="M4.803,112.385c0.412-0.609,0.543-1.5,1.115-1.951
	c0.405,0.907,2.847,0.913,1.952,2.23C7.299,114.104,5.807,111.377,4.803,112.385z"/>
<path fill-rule="evenodd" clip-rule="evenodd" fill="#303030" d="M0.344,117.96c0,0.649,0,1.3,0,1.95
	C-0.115,119.872-0.115,117.997,0.344,117.96z"/>
<path fill-rule="evenodd" clip-rule="evenodd" fill="#A4A4A4" d="M81.45,121.582c0-0.371,0-0.743,0-1.114
	C81.9,120.268,81.9,121.781,81.45,121.582z"/>
<path fill-rule="evenodd" clip-rule="evenodd" fill="#707070" d="M62.776,136.911c0.743,0,1.484,0,2.229,0
	C64.882,137.371,62.898,137.371,62.776,136.911z"/>
<path fill-rule="evenodd" clip-rule="evenodd" fill="#FFFFFF" d="M16.788,0.343c0.557,0,1.115,0,1.672,0
	c7.077,2.585,13.603,5.721,18.395,10.591c0.626,0.86,1.369,1.604,2.229,2.229c-0.001,0.28,0.226,0.332,0.278,0.558
	c0.252,0.491,0.624,0.863,1.116,1.115c3.08,3.051,5.857,6.406,8.64,9.755c-0.002,0.28,0.225,0.332,0.278,0.558
	c0.438,0.675,0.998,1.232,1.673,1.672c0.092,0,0.185,0,0.278,0c2.216,0.991,4.045,2.584,5.573,4.181
	c0.419,0.438,1.12,2.229,1.395,3.066c0.439,1.347,0.361,2.926,0.836,4.459c0.378,1.223,1.358,2.542,2.229,3.902
	c1.519,2.37,3.279,4.714,5.017,7.246c0.219,0.318,0.324,0.754,0.557,1.115c0.07,0.106,0.518,0.187,0.56,0.279
	c0.063,0.142-0.087,0.429,0,0.557c0.067,0.104,0.515,0.188,0.557,0.279c0.064,0.142-0.086,0.429,0,0.557
	c0.068,0.104,0.517,0.188,0.557,0.279c1.215,2.693,2.881,5.486,3.903,8.64c0.981,3.033,1.679,6.056,2.786,9.197
	c0.108,0.729,0.143,1.528,0.558,1.95c1.837,5.676,3.575,11.267,5.295,17.002c1.69,5.638,3.714,11.319,5.019,17.28
	c0,0.465,0,0.929,0,1.394c0.26,2.827-3.193,2.899-3.625,5.017c-0.132,0.645,0.303,1.878,0.558,2.788
	c0.32,1.136,0.827,1.802,0.837,3.344c0,1.022,0,2.044,0,3.065c0.238,0.89-0.438,0.863-0.559,1.394
	c-0.583,0.347-1.048,0.812-1.393,1.394c-2.104,1.579-4.191,2.864-6.411,4.46c-1.31,0.941-2.662,1.975-4.181,3.065
	c-1.797,1.293-3.803,3.347-6.409,4.181c-0.745,0-1.486,0-2.229,0c-0.278,0-0.559,0-0.838,0c-0.963-1.079-2.576-1.512-2.508-3.622
	c0-0.651,0-1.302,0-1.951c0-0.278,0-0.559,0-0.837c1.232-1.625,3.021-2.757,4.738-3.901c1.698-1.133,3.702-1.856,4.737-3.623
	c-0.991-4.583-3.177-7.971-3.9-12.822c-0.338-0.496-0.052-1.62-0.559-1.95c-0.682-2.309-1.112-5.377-1.671-8.361
	c-0.871-4.641-1.002-9.357-5.575-10.034c-0.12-0.623-1.373-0.112-1.952-0.278c-0.184,0-0.37,0-0.557,0
	c0.046-0.456-1.717-0.456-1.673,0c-2.235,0.179-3.832,0.999-5.295,1.951c-0.491,0.252-0.863,0.623-1.114,1.115
	c-1.435,2.707-2.447,5.772-3.623,8.918c-1.697,4.536-3.332,9.87-5.854,14.216c-0.491,0.251-0.863,0.623-1.114,1.113
	c-0.417,0.327-1.141,0.347-1.394,0.837c-0.278,0-0.558,0-0.836,0c-1.022,0-2.044,0-3.066,0c-2.478-0.272-3.062-2.16-5.295-1.95
	c-2.376,0.221-3.532,3.356-5.017,5.852c-1.575,2.647-3.208,5.114-4.181,6.689c-0.491,0.251-0.863,0.624-1.115,1.115
	c-0.532,0.118-0.504,0.796-1.393,0.557c-0.929,0-1.858,0-2.788,0c-2.897-1.282-5.341-3.02-7.525-5.017
	c-0.346-0.583-0.81-1.047-1.393-1.394c-0.093,0-0.186,0-0.279,0c-0.65-1.021-1.394-1.95-1.393-3.623c0-0.65,0-1.301,0-1.95
	c0.068-3.092,1.268-5.051,2.229-7.247c0.44-0.581,0.909-1.136,1.115-1.95c1.185-2.067,2.527-3.978,4.181-5.575
	c0.491-0.252,0.863-0.624,1.115-1.114c0.491-0.252,0.863-0.624,1.115-1.115c0.492-0.253,0.863-0.624,1.115-1.115
	c3.787-4.104,9.537-5.94,14.493-8.919c1.597-0.959,2.877-2.217,4.46-3.066c0.491-0.251,0.863-0.623,1.115-1.113
	c0.58-1.395,1.739-2.271,2.508-3.623c0.496-0.874,0.959-2.054,1.394-3.066c0.521-1.219,1.044-2.582,1.672-4.181
	c0.452-1.15,1.9-3.715,1.951-5.296c0.074-2.304-1.714-6.034-2.787-8.361c-0.172-0.374-0.342-0.926-0.558-1.393
	c-0.172-0.373-0.342-0.926-0.558-1.394c-1.676-3.638-3.435-8.359-3.623-12.821c-0.161-0.49,0.336-1.637-0.279-1.672
	c0-0.372,0-0.743,0-1.115c-0.166-0.578,0.344-1.831-0.279-1.951c0-0.372,0-0.743,0-1.115c-0.166-0.578,0.344-1.832-0.279-1.951
	c0-0.279,0-0.557,0-0.836c0-0.928,0-1.858,0-2.787c0-0.185,0-0.371,0-0.558c0.741-0.718,2.131-1.411,3.345-0.836
	c-2.807-4.625-5.636-9.229-8.361-13.936c-0.24-0.967-0.87-1.546-1.394-2.229c-2.781-4.744-5.813-9.238-8.361-14.215
	c0-0.65,0-1.3,0-1.951C15.708,0.749,16.079,0.377,16.788,0.343z M26.264,15.951c0.428,0.779,0.843,1.572,1.394,2.229
	c1.207,1.831,2.315,3.87,3.344,5.574c1.935,3.204,3.953,6.175,5.574,9.477c0,0.649,0,1.3,0,1.95
	c-0.139,1.534-1.905,1.44-3.623,1.394c0,0.186,0,0.372,0,0.557c0.16,0.49-0.337,1.637,0.278,1.672c0,0.279,0,0.558,0,0.836
	c0.17,0.667-0.35,2.022,0.279,2.23c0,0.372,0,0.743,0,1.115c0.166,0.578-0.345,1.831,0.279,1.951
	c0.492,3.621,1.122,7.352,2.23,9.755c0.215,0.468,0.385,1.02,0.557,1.393c0.315,0.685,0.61,1.434,0.836,1.952
	c0.214,0.489,0.328,0.83,0.558,1.393c1.238,3.035,2.899,6.104,3.345,9.476c0,0.836,0,1.672,0,2.509
	c-0.074,0.448,0.097,0.949,0,1.393c-0.257,1.175-1.125,2.275-1.672,3.624c-0.275,0.677-0.296,1.58-0.558,2.229
	c-0.078,0.193-0.443,0.568-0.558,0.835c-0.755,1.764-1.444,3.035-2.229,4.46c-0.401,0.729-0.81,1.912-1.114,2.229
	c-0.224,0.233-0.331,0.6-0.558,0.837c-1.475,1.538-2.99,3.172-4.738,4.459c-5.144,3.789-11.269,5.688-16.165,9.755
	c-0.492,0.253-0.864,0.623-1.115,1.115c-0.093,0-0.186,0-0.279,0c-0.675,0.439-1.233,0.997-1.672,1.672
	c-0.479,0.358-1.096,0.577-1.115,1.395c-1.221,1.658-2.515,3.244-3.624,5.016c-0.571,0.451-0.703,1.342-1.115,1.951
	c-0.578,1.838-1.398,3.433-1.672,5.575c-0.458-0.046-0.458,1.717,0,1.672c0,0.278,0,0.557,0,0.836
	c0.884,1.754,2.267,2.548,4.18,3.902c1.104,0.781,3.876,3.254,5.296,3.064c1.367-0.181,2.664-3.014,3.345-4.18
	c0.732-1.256,1.364-2.084,1.951-3.066c1.714-2.872,3.236-6.715,6.689-6.968c0.836,0,1.672,0,2.508,0
	c2.695,0.151,3.239,2.356,5.854,1.951c1.562-0.241,2.68-2.195,3.623-4.459c0.845-2.027,1.568-4.371,2.23-6.132
	c0.81-2.156,1.527-4.188,2.229-6.132c0.928-2.569,2.108-5.98,3.345-7.525c0.675-0.438,1.232-0.997,1.671-1.672
	c1.577-0.933,2.781-2.236,5.297-2.229c1.671,0,3.344,0,5.017,0c7.463-0.059,7.97,6.153,9.198,12.263
	c0.542,2.698,1.13,5.397,1.392,7.805c0.07,0.86,0.283,1.575,0.56,2.229c0.721,1.924,1.28,4.632,2.228,7.246
	c1.112,3.064,3.231,6.839,1.116,8.64c-0.491,0.253-0.864,0.624-1.116,1.116c-1.06,1.709-8.067,4.014-7.804,6.409
	c0.082,0.75,0.752,1.086,1.395,1.672c1.938-0.244,3.338-1.771,4.738-2.786c1.547-1.122,3.683-2.738,5.017-3.623
	c0.463-0.308,0.854-0.662,1.114-0.837c0.258-0.171,0.346-0.403,0.559-0.557c0.326-0.235,0.991-0.283,1.393-0.558
	c0.116-0.079,0.168-0.454,0.278-0.558c0.225-0.208,0.573-0.09,0.837-0.279c0.131-0.092,0.141-0.454,0.279-0.557
	c0.236-0.178,0.625-0.124,0.835-0.278c0.132-0.097,0.141-0.453,0.278-0.559c0.244-0.183,0.619-0.109,0.838-0.278
	c0.723-0.563,1.446-1.164,1.951-1.951c0.45,0.199,0.45-1.314,0-1.114c-0.503-1.82-1.112-3.535-1.395-5.574c0-1.022,0-2.044,0-3.066
	c-0.084-1.944,2.905-2.194,3.344-3.901c0.246-0.954-0.36-2.875-0.836-4.46c-1.498-5.007-3.476-10.664-4.737-14.771
	c-1.559-5.073-3.062-10.387-4.46-15.05c-0.244-0.776-0.347-1.697-0.835-2.229c-1.513-4.792-2.643-9.43-4.46-13.378
	c-0.601-1.305-1.528-3.45-2.229-4.181c-0.225-0.234-0.331-0.6-0.558-0.836c-0.669-0.697-1.168-1.5-1.673-2.23
	c-0.851-1.229-2.025-2.832-2.508-3.902c-0.042-0.09-0.489-0.175-0.557-0.279c-0.087-0.128,0.063-0.415,0-0.557
	c-0.042-0.091-0.489-0.175-0.56-0.279c-0.084-0.129,0.064-0.415,0-0.558c-0.04-0.092-0.488-0.172-0.557-0.279
	c-0.229-0.354-0.354-0.799-0.557-1.115c-0.812-1.269-1.791-2.643-2.23-3.902c-0.797-2.288-0.773-5.946-2.229-7.525
	c-0.252-0.491-0.623-0.864-1.114-1.115c-1.434-0.89-3.061-1.584-4.181-2.787c-0.347-0.583-0.812-1.047-1.395-1.393
	c-0.252-0.492-0.623-0.863-1.114-1.115c-2.806-3.418-5.876-6.573-8.64-10.033c0.001-0.28-0.226-0.332-0.279-0.558
	c-0.905-1.139-1.927-2.161-3.066-3.066c-0.093,0-0.186,0-0.278,0c-2.141-1.562-4.385-3.665-6.968-5.017
	c-1.349-0.706-2.833-1.317-4.18-1.951c-1.551-0.729-2.972-1.61-4.181-1.394C21.59,7.804,23.924,11.881,26.264,15.951z"/>
<path fill-rule="evenodd" clip-rule="evenodd" fill="#D5D5D5" d="M80.056,111.827c0,1.022,0,2.044,0,3.066
	c-0.637-0.478-0.103-2.128-0.278-3.066C79.869,111.827,79.964,111.827,80.056,111.827z"/>
<path fill-rule="evenodd" clip-rule="evenodd" fill="#D5D5D5" d="M83.958,119.353c0.461,0.391,0.461,2.676,0,3.065
	C83.958,121.396,83.958,120.375,83.958,119.353z"/>
<path fill-rule="evenodd" clip-rule="evenodd" fill="#707070" d="M25.428,19.853c-1.355-0.523-2.326,1.512-3.902,1.672
	c-0.126-0.803-0.987-0.872-0.836-1.951c1.177-0.587,2.167-1.363,3.344-1.951C24.559,18.307,25.188,18.885,25.428,19.853z"/>
<path fill-rule="evenodd" clip-rule="evenodd" fill="#A4A4A4" d="M30.445,35.182c0,0.929,0,1.859,0,2.787
	C29.983,37.668,29.983,35.482,30.445,35.182z"/>
<path fill-rule="evenodd" clip-rule="evenodd" fill="#A4A4A4" d="M30.724,117.681c1.022,0,2.044,0,3.066,0
	C33.399,118.143,31.114,118.143,30.724,117.681z"/>
<path fill-rule="evenodd" clip-rule="evenodd" fill="#A4A4A4" d="M10.935,129.943c0.929,0,1.858,0,2.788,0
	C13.421,130.405,11.235,130.405,10.935,129.943z"/>
<path fill-rule="evenodd" clip-rule="evenodd" fill="#707070" d="M16.788,0.343c-0.046-0.457,1.718-0.457,1.672,0
	C17.903,0.343,17.345,0.343,16.788,0.343z"/>
<path fill-rule="evenodd" clip-rule="evenodd" fill="#303030" d="M41.315,68.906c0.46,0.211,0.46,2.296,0,2.509
	C41.315,70.578,41.315,69.742,41.315,68.906z"/>
<path fill-rule="evenodd" clip-rule="evenodd" fill="#707070" d="M24.592,113.221c0.212-0.461,2.297-0.461,2.508,0
	C26.264,113.221,25.428,113.221,24.592,113.221z"/>
<path fill-rule="evenodd" clip-rule="evenodd" fill="#707070" d="M59.431,131.338c0,0.649,0,1.3,0,1.951
	C58.972,133.251,58.972,131.376,59.431,131.338z"/>
</svg>
