<?xml version="1.0" encoding="utf-8"?>
<!-- Generator: Adobe Illustrator 15.0.0, SVG Export Plug-In  -->
<!DOCTYPE svg PUBLIC "-//W3C//DTD SVG 1.1//EN" "http://www.w3.org/Graphics/SVG/1.1/DTD/svg11.dtd" [
	<!ENTITY ns_flows "http://ns.adobe.com/Flows/1.0/">
]>
<svg version="1.1"
	 xmlns="http://www.w3.org/2000/svg" xmlns:xlink="http://www.w3.org/1999/xlink" xmlns:a="http://ns.adobe.com/AdobeSVGViewerExtensions/3.0/"
	 x="0px" y="0px" width="142px" height="142px" viewBox="-0.836 -8.628 142 142" enable-background="new -0.836 -8.628 142 142"
	 xml:space="preserve">
<defs>
</defs>
<path fill-rule="evenodd" clip-rule="evenodd" fill="#757575" d="M10.87,5.43c-0.452,0.199-0.452-1.314,0-1.115
	C10.87,4.687,10.87,5.059,10.87,5.43z"/>
<path fill-rule="evenodd" clip-rule="evenodd" fill="#191919" d="M11.427,7.102c0-0.093,0-0.186,0-0.279c0.65,0,1.301,0,1.951,0
	C13.258,7.446,12.005,6.937,11.427,7.102z"/>
<path fill-rule="evenodd" clip-rule="evenodd" fill="#191919" d="M17.001,8.774c0.124-0.46,2.106-0.46,2.229,0
	C18.488,8.774,17.745,8.774,17.001,8.774z"/>
<path fill-rule="evenodd" clip-rule="evenodd" fill="#191919" d="M11.427,9.889c-0.047-0.604,0.989-0.126,1.394-0.278
	C12.868,10.215,11.832,9.737,11.427,9.889z"/>
<path fill-rule="evenodd" clip-rule="evenodd" fill="#191919" d="M0,17.972c0.387-0.635,1.94-0.104,2.787-0.278
	c-0.296,0.633-1.752,0.105-2.508,0.278C0.186,17.972,0.093,17.972,0,17.972z"/>
<path fill-rule="evenodd" clip-rule="evenodd" fill="#323232" d="M0,17.972c0.093,0,0.186,0,0.279,0
	c-0.705,2.005,2.071,0.531,2.508,1.394c-0.929,0-1.858,0-2.787,0C0,18.901,0,18.437,0,17.972z"/>
<path fill-rule="evenodd" clip-rule="evenodd" fill="#CACACA" d="M3.066,19.087c-0.453,0.199-0.453-1.314,0-1.115
	C3.066,18.343,3.066,18.715,3.066,19.087z"/>
<path fill-rule="evenodd" clip-rule="evenodd" fill="#757575" d="M5.574,17.972c0.929,0,1.858,0,2.788,0c0,0.372,0,0.744,0,1.115
	c-0.93,0-1.858,0-2.788,0C5.574,18.715,5.574,18.343,5.574,17.972z"/>
<path fill-rule="evenodd" clip-rule="evenodd" fill="#323232" d="M5.574,19.365c0-0.093,0-0.186,0-0.278c0.929,0,1.858,0,2.788,0
	C7.975,19.722,6.421,19.19,5.574,19.365z"/>
<path fill-rule="evenodd" clip-rule="evenodd" fill="#757575" d="M64.104,29.678c0.649,2.51,0.094,6.224,0.279,9.197
	c-0.093,0-0.186,0-0.279,0C64.104,35.809,64.104,32.744,64.104,29.678z"/>
<path fill-rule="evenodd" clip-rule="evenodd" fill="#191919" d="M66.891,36.088c0.646,1.397,0.096,3.992,0.279,5.853
	c-0.093,0-0.186,0-0.279,0C66.891,39.99,66.891,38.039,66.891,36.088z"/>
<path fill-rule="evenodd" clip-rule="evenodd" fill="#323232" d="M64.104,38.875c0.093,0,0.186,0,0.279,0c0,3.159,0,6.317,0,9.477
	c-0.093,0-0.186,0-0.279,0C64.104,45.192,64.104,42.034,64.104,38.875z"/>
<path fill-rule="evenodd" clip-rule="evenodd" fill="#323232" d="M66.891,41.941c0.093,0,0.186,0,0.279,0c0,0.65,0,1.301,0,1.951
	c-0.093,0-0.186,0-0.279,0C66.891,43.242,66.891,42.591,66.891,41.941z"/>
<path fill-rule="evenodd" clip-rule="evenodd" fill="#191919" d="M66.891,43.892c0.093,0,0.186,0,0.279,0
	c-0.185,3.531,0.37,7.803-0.279,10.87C66.891,51.138,66.891,47.516,66.891,43.892z"/>
<path fill-rule="evenodd" clip-rule="evenodd" fill="#323232" d="M59.645,51.417c-0.126-0.455,1.519-0.455,1.393,0
	C60.573,51.417,60.108,51.417,59.645,51.417z"/>
<path fill-rule="evenodd" clip-rule="evenodd" fill="#CACACA" d="M59.645,54.205c-0.2-0.452,1.314-0.452,1.115,0
	C60.387,54.205,60.016,54.205,59.645,54.205z"/>
<path fill-rule="evenodd" clip-rule="evenodd" fill="#757575" d="M59.645,56.713c0.464,0,0.929,0,1.393,0c0,0.929,0,1.858,0,2.787
	c-0.464,0-0.929,0-1.393,0C59.645,58.571,59.645,57.642,59.645,56.713z"/>
<path fill-rule="evenodd" clip-rule="evenodd" fill="#CACACA" d="M42.364,56.992c0,3.251,0,6.503,0,9.755
	C41.9,64.143,41.9,59.595,42.364,56.992z"/>
<path fill-rule="evenodd" clip-rule="evenodd" fill="#191919" d="M82.5,64.516c0.41,0.053,0.254,0.675,0.278,1.115
	C82.365,65.58,82.521,64.958,82.5,64.516z"/>
<path fill-rule="evenodd" clip-rule="evenodd" fill="#191919" d="M85.286,64.516c0.649,4.646,0.093,10.498,0.278,15.608
	C84.916,75.479,85.471,69.627,85.286,64.516z"/>
<path fill-rule="evenodd" clip-rule="evenodd" fill="#323232" d="M16.723,65.91c0,0.465,0,0.93,0,1.395
	C16.268,67.429,16.268,65.785,16.723,65.91z"/>
<path fill-rule="evenodd" clip-rule="evenodd" fill="#CACACA" d="M19.51,67.304c-0.456,0.125-0.456-1.52,0-1.395
	C19.51,66.375,19.51,66.839,19.51,67.304z"/>
<path fill-rule="evenodd" clip-rule="evenodd" fill="#757575" d="M36.232,67.304c-0.125-0.456,1.519-0.456,1.394,0
	C37.162,67.304,36.697,67.304,36.232,67.304z"/>
<path fill-rule="evenodd" clip-rule="evenodd" fill="#CACACA" d="M22.019,69.254c2.88,0,5.76,0,8.64,0
	C28.426,69.718,24.251,69.718,22.019,69.254z"/>
<path fill-rule="evenodd" clip-rule="evenodd" fill="#191919" d="M57.693,80.125c1.954,0.184,4.642-0.368,6.132,0.279
	C61.871,80.22,59.184,80.771,57.693,80.125z"/>
<path fill-rule="evenodd" clip-rule="evenodd" fill="#191919" d="M66.333,82.912c0.65,4.831,0.094,10.869,0.279,16.166
	C65.962,94.245,66.519,88.208,66.333,82.912z"/>
<path fill-rule="evenodd" clip-rule="evenodd" fill="#191919" d="M100.893,87.928c0.605-0.047,0.127,0.988,0.279,1.394
	C100.568,89.369,101.045,88.333,100.893,87.928z"/>
<path fill-rule="evenodd" clip-rule="evenodd" fill="#191919" d="M103.68,88.486c0.379,0.087,0.232,0.697,0.28,1.115
	C103.548,89.549,103.704,88.927,103.68,88.486z"/>
<path fill-rule="evenodd" clip-rule="evenodd" fill="#191919" d="M105.353,100.192c0.413,0.052,0.257,0.673,0.278,1.114
	C105.219,101.255,105.377,100.633,105.353,100.192z"/>
<path fill-rule="evenodd" clip-rule="evenodd" fill="#191919" d="M108.14,100.192c0.625,0.119,0.114,1.373,0.28,1.95
	C107.795,102.022,108.306,100.769,108.14,100.192z"/>
<path fill-rule="evenodd" clip-rule="evenodd" fill="#191919" d="M108.42,103.257c-0.166,0.577,0.345,1.831-0.28,1.951
	C108.306,104.631,107.795,103.377,108.42,103.257z"/>
<path fill-rule="evenodd" clip-rule="evenodd" fill="#191919" d="M105.631,104.093c-0.046,0.417,0.101,1.029-0.278,1.115
	C105.4,104.791,105.254,104.18,105.631,104.093z"/>
<path fill-rule="evenodd" clip-rule="evenodd" fill="#191919" d="M66.612,104.652c-0.182,1.397,0.365,3.522-0.279,4.458
	C66.515,107.711,65.969,105.586,66.612,104.652z"/>
<path fill-rule="evenodd" clip-rule="evenodd" fill="#191919" d="M63.825,107.717c-0.161,0.489,0.337,1.638-0.279,1.673
	C63.707,108.899,63.209,107.751,63.825,107.717z"/>
<path fill-rule="evenodd" clip-rule="evenodd" fill="#191919" d="M96.434,115.799c0.036-0.616,1.184-0.118,1.673-0.278
	C98.072,116.136,96.924,115.639,96.434,115.799z"/>
<path fill-rule="evenodd" clip-rule="evenodd" fill="#191919" d="M92.533,116.078c0.296-0.632,1.751-0.105,2.508-0.278
	C94.744,116.433,93.288,115.906,92.533,116.078z"/>
<path fill-rule="evenodd" clip-rule="evenodd" fill="#191919" d="M96.155,118.586c-0.047-0.604,0.989-0.126,1.394-0.278
	C97.596,118.913,96.56,118.434,96.155,118.586z"/>
<path fill-rule="evenodd" clip-rule="evenodd" fill="#191919" d="M81.384,118.865c3.811-0.649,8.825-0.093,13.101-0.278
	C90.674,119.237,85.659,118.68,81.384,118.865z"/>
<path fill-rule="evenodd" clip-rule="evenodd" fill="#191919" d="M56.3,121.653c6.132,0,12.263,0,18.395,0
	C69.212,122.117,61.782,122.117,56.3,121.653z"/>
<path fill-rule="evenodd" clip-rule="evenodd" fill="#191919" d="M56.3,124.439c6.132,0,12.263,0,18.395,0
	C69.212,124.904,61.782,124.904,56.3,124.439z"/>
<path fill-rule="evenodd" clip-rule="evenodd" fill="#757575" d="M8.918,2.085C9.17,1.594,9.542,1.222,10.034,0.97
	C9.782,1.462,9.411,1.833,8.918,2.085z"/>
<path fill-rule="evenodd" clip-rule="evenodd" fill="#757575" d="M19.231,56.713c0.649,2.51,0.094,6.223,0.279,9.197
	c-0.456-0.125-0.456,1.52,0,1.395c0,1.114,0,2.229,0,3.344c-0.638-0.477-0.103-2.128-0.279-3.065
	c-0.296-0.632-1.752-0.106-2.508-0.278c0-0.465,0-0.93,0-1.395c0.835,0,1.672,0,2.508,0C19.231,62.845,19.231,59.778,19.231,56.713z
	"/>
<path fill-rule="evenodd" clip-rule="evenodd" fill="#191919" d="M63.268,82.912c0.279-0.001,0.332,0.226,0.558,0.278
	c0,4.553,0,9.104,0,13.657C62.996,92.845,64.095,86.916,63.268,82.912z"/>
<path fill-rule="evenodd" clip-rule="evenodd" fill="#191919" d="M61.038,113.292c0.44-0.676,0.998-1.233,1.672-1.672
	C62.271,112.293,61.713,112.852,61.038,113.292z"/>
<path fill-rule="evenodd" clip-rule="evenodd" fill="#191919" d="M52.956,122.489c0.583,0.346,1.047,0.811,1.393,1.394
	C53.766,123.537,53.301,123.071,52.956,122.489z"/>
<path fill-rule="evenodd" clip-rule="evenodd" fill="#191919" d="M77.203,123.603c0.44-0.676,0.997-1.232,1.673-1.672
	C78.435,122.606,77.878,123.165,77.203,123.603z"/>
<path fill-rule="evenodd" clip-rule="evenodd" fill="#191919" d="M79.711,119.981c0.252-0.492,0.625-0.863,1.116-1.116
	C80.574,119.357,80.204,119.728,79.711,119.981z"/>
<path fill-rule="evenodd" clip-rule="evenodd" fill="#191919" d="M102.009,80.682c0.491,0.251,0.863,0.624,1.114,1.114
	C102.632,81.545,102.259,81.172,102.009,80.682z"/>
<path fill-rule="evenodd" clip-rule="evenodd" fill="#191919" d="M66.891,55.319c0.377,0.273,0.558,0.744,0.836,1.114
	C67.319,56.192,66.844,56.017,66.891,55.319z"/>
<path fill-rule="evenodd" clip-rule="evenodd" fill="#CACACA" d="M21.461,5.708c0.854,0.539,1.398,1.389,2.23,1.951
	C22.568,7.389,22.121,6.442,21.461,5.708z"/>
<path fill-rule="evenodd" clip-rule="evenodd" fill="#CACACA" d="M64.94,26.333c0.579,0.165,0.95,0.537,1.115,1.115
	c-0.568-0.082-0.546-0.753-1.115-0.836C64.94,26.519,64.94,26.426,64.94,26.333z"/>
<path fill-rule="evenodd" clip-rule="evenodd" fill="#CACACA" d="M9.755,11.283c0.251-0.492,0.624-0.864,1.115-1.115
	c0,0.093,0,0.186,0,0.279C10.301,10.529,10.324,11.201,9.755,11.283z"/>
<path fill-rule="evenodd" clip-rule="evenodd" fill="#757575" d="M21.461,9.611c-0.385-0.823-1.287-1.128-1.672-1.951
	c0.86,0.626,1.604,1.37,2.23,2.229C21.694,9.935,21.522,9.828,21.461,9.611z"/>
<path fill-rule="evenodd" clip-rule="evenodd" fill="#323232" d="M13.378,6.823c0.979-0.43,3.6-0.532,2.229-1.672
	c1.132,1.098,2.472,1.988,4.181,2.509c0.385,0.823,1.287,1.128,1.672,1.951c-0.853-0.169-1.452-0.592-2.23-0.836
	c-0.124-0.46-2.106-0.46-2.229,0c-1.389,0.283-2.375,0.969-4.181,0.836c-0.405,0.152-1.44-0.326-1.394,0.278
	c-0.093,0-0.186,0-0.279,0c0.289-0.733,0.333-1.71,0.279-2.787C12.005,6.937,13.258,7.446,13.378,6.823z"/>
<path fill-rule="evenodd" clip-rule="evenodd" fill="#757575" d="M64.104,48.352c0.093,0,0.186,0,0.279,0c0,1.951,0,3.902,0,5.853
	c-1.208,0-2.416,0-3.623,0c0.199-0.452-1.314-0.452-1.115,0c-6.039,0-12.078,0-18.117,0c5.389-0.65,11.984-0.094,17.837-0.279
	c0.633-0.296,0.107-1.752,0.279-2.508c0.464,0,0.929,0,1.393,0c0,0.836,0,1.672,0,2.508c1.022,0,2.044,0,3.066,0
	C64.104,52.067,64.104,50.209,64.104,48.352z"/>
<path fill-rule="evenodd" clip-rule="evenodd" fill="#191919" d="M9.755,11.283c0.569-0.083,0.546-0.754,1.115-0.836
	c-0.252,0.491-0.624,0.863-1.115,1.115C9.755,11.469,9.755,11.375,9.755,11.283z"/>
<path fill-rule="evenodd" clip-rule="evenodd" fill="#757575" d="M34.281,12.398c0.651-1.114,1.093-2.437,1.673-3.624
	c1.019-0.184,1.069,0.604,1.951,0.557c-0.021,1.838-1.274,2.442-1.394,4.181c-0.785-0.237-1.144-0.9-2.23-0.836
	C34.281,12.583,34.281,12.491,34.281,12.398z"/>
<path fill-rule="evenodd" clip-rule="evenodd" fill="#757575" d="M3.066,16.579c0,0.464,0,0.929,0,1.393
	c-0.453-0.199-0.453,1.314,0,1.115c0,7.804,0,15.608,0,23.412c-0.093,0-0.186,0-0.279,0c0-7.711,0-15.422,0-23.133
	c-0.438-0.862-3.213,0.612-2.508-1.394c0.756-0.173,2.212,0.354,2.508-0.278C2.81,17.252,2.653,16.63,3.066,16.579z"/>
<path fill-rule="evenodd" clip-rule="evenodd" fill="#191919" d="M64.94,80.682c0.491,0.251,0.863,0.624,1.115,1.114
	C65.563,81.545,65.191,81.172,64.94,80.682z"/>
<path fill-rule="evenodd" clip-rule="evenodd" fill="#191919" d="M62.989,115.242c0.439-0.675,0.997-1.232,1.672-1.672
	C64.221,114.245,63.664,114.803,62.989,115.242z"/>
<path fill-rule="evenodd" clip-rule="evenodd" fill="#191919" d="M77.481,118.308c0.347-0.583,0.812-1.048,1.395-1.394
	C78.529,117.498,78.064,117.962,77.481,118.308z"/>
<path fill-rule="evenodd" clip-rule="evenodd" fill="#191919" d="M64.94,57.549c0.491,0.252,0.863,0.623,1.115,1.114
	C65.563,58.412,65.191,58.041,64.94,57.549z"/>
<path fill-rule="evenodd" clip-rule="evenodd" fill="#323232" d="M34.561,67.861c0.569-0.697,1.071-1.566,1.951-1.673
	c1.079-0.128,1.792,0.952,2.787,1.116c0,0.092,0,0.186,0,0.278c-0.853,0.202-0.819-0.48-1.672-0.278c0.125-0.456-1.52-0.456-1.394,0
	C35.417,67.231,35.376,67.933,34.561,67.861z"/>
<path fill-rule="evenodd" clip-rule="evenodd" fill="#323232" d="M12.263,2.921c-0.199-0.452,1.314-0.452,1.115,0
	C13.006,2.921,12.635,2.921,12.263,2.921z"/>
<path fill-rule="evenodd" clip-rule="evenodd" fill="#323232" d="M8.64,7.381c0.452-0.199,0.452,1.314,0,1.115
	C8.64,8.124,8.64,7.752,8.64,7.381z"/>
<path fill-rule="evenodd" clip-rule="evenodd" fill="#323232" d="M5.853,16.857c0,0.186,0,0.372,0,0.558
	c0.212,0.81,2.297-0.253,2.509,0.557c-0.93,0-1.858,0-2.788,0C5.598,17.531,5.44,16.909,5.853,16.857z"/>
<path fill-rule="evenodd" clip-rule="evenodd" fill="#757575" d="M35.396,16.021c-0.947,0.912-1.102,2.614-1.951,3.624
	c-0.603-0.419-1.733-0.311-1.951-1.115c0.585-1.181,1.216-2.314,1.672-3.623C33.829,15.358,34.769,15.533,35.396,16.021z"/>
<path fill-rule="evenodd" clip-rule="evenodd" fill="#323232" d="M67.727,56.434c6.887,1.66,16.746,0.349,17.559,8.083
	c0.185,5.111-0.37,10.963,0.278,15.608c2.343,0,5.085,0,7.804,0c3.151,0,6.899-0.37,8.641,0.558c0.25,0.49,0.623,0.863,1.114,1.114
	c1.031,1.384,0.372,4.459,0.557,6.689c0.024,0.441-0.132,1.063,0.28,1.115c0.979,3.943,3.791,6.057,4.18,10.591
	c0.166,0.577-0.345,1.83,0.28,1.95c0,0.372,0,0.743,0,1.115c-0.625,0.12-0.114,1.374-0.28,1.951
	c-0.038,2.133-0.777,3.577-1.949,5.295c-0.291,0.426-0.754,0.678-1.116,1.116c-0.19,0.23-0.082,0.624-0.278,0.835
	c-0.093,0.099-0.495,0.177-0.558,0.278c-0.536,0.886-0.484,1.828-0.837,2.509c-0.827,1.604-2.741,3.412-5.853,3.066
	c-0.404,0.152-1.44-0.326-1.394,0.278c-0.558,0-1.114,0-1.671,0c-4.275,0.186-9.29-0.371-13.101,0.278c-0.187,0-0.371,0-0.557,0
	c-0.491,0.253-0.864,0.624-1.116,1.116c-0.072,0.856-0.603,1.253-0.835,1.95c-0.676,0.439-1.232,0.996-1.673,1.672
	c-0.417,0.326-1.141,0.348-1.393,0.836c-0.373,0-0.743,0-1.116,0c-6.131,0-12.263,0-18.395,0c-1,0.165-1.349-0.323-1.951-0.557
	c-0.346-0.583-0.811-1.048-1.393-1.394c-2.885-5.986,4.316-7.506,8.082-9.197c0.675-0.439,1.233-0.998,1.672-1.672
	c0.169-0.854,0.592-1.452,0.836-2.229c0.616-0.035,0.119-1.184,0.279-1.673c0-3.624,0-7.247,0-10.87c0-4.553,0-9.104,0-13.657
	c-0.226-0.053-0.278-0.279-0.558-0.278c-2.55-0.383-4.945,0.518-7.247,0c-1.449-0.326-2.986-1.957-4.459-3.066
	c-4.15-3.123-8.961-6.318-12.821-9.197c-0.044-0.033,0.036-0.233,0-0.278c0.578-0.165,1.831,0.345,1.952-0.278
	c0.709-0.034,1.081-0.406,1.114-1.115c0.093,0,0.186,0,0.279,0c0.125,0.867,1.108,1.237,1.672,1.672
	c2.047,1.578,4.464,3.386,6.689,5.018c0.387,0.283,0.758,0.286,1.115,0.557c0.678,0.515,1.023,1.19,1.672,1.673
	c0.285,0.212,0.816,0.339,1.115,0.557c0.751,0.552,1.8,1.738,3.345,1.673c1.49,0.646,4.178,0.096,6.132,0.279
	c0.582-0.118,0.738,0.19,1.115,0.278c0.251,0.49,0.624,0.863,1.115,1.114c0.216,0.248,0.3,0.63,0.278,1.115
	c0.186,5.296-0.371,11.333,0.279,16.166c0,1.857,0,3.715,0,5.574c-0.644,0.935-0.098,3.06-0.279,4.458
	c0.049,2.093-0.917,3.172-1.672,4.46c-0.675,0.439-1.233,0.997-1.672,1.672c-0.944,0.893-3.392,1.736-5.017,2.509
	c-1.488,0.708-2.777,0.849-2.787,2.23c-0.006,0.888,0.269,1.141,1.115,1.672c5.482,0.464,12.913,0.464,18.395,0
	c1.681-0.363,2.086-2.004,2.787-3.345c0.583-0.346,1.048-0.811,1.395-1.394c2.149-1.65,9.317-0.488,13.657-0.837
	c0.755-0.172,2.211,0.355,2.508-0.278c0.465,0,0.928,0,1.393,0c0.49-0.16,1.639,0.337,1.673-0.278
	c2.839,0.203,2.951-3.37,4.459-5.296c0.175-0.222,0.379-0.287,0.558-0.557c0.174-0.263,0.528-0.652,0.837-1.115
	c0.453-0.685,1.347-1.91,1.393-3.345c0.379-0.086,0.232-0.698,0.278-1.115c0-0.928,0-1.857,0-2.787
	c-0.021-0.441,0.135-1.063-0.278-1.114c-0.829-4.188-3.772-6.262-4.181-10.87c-0.152-0.405,0.326-1.44-0.279-1.394
	c-0.138-1.532,0.309-3.652-0.278-4.738c-2.446-0.5-5.64-0.278-8.639-0.278c-3.109,0-6.134,0.396-8.362-0.558
	c-1.454-1.672-0.835-4.713-0.835-7.804c0-2.949,0-6.186,0-8.919c-0.024-0.44,0.132-1.063-0.278-1.115
	c-0.129-1.177-1.16-2.029-1.951-2.787c-0.581-0.557-2.398-0.527-4.182-0.836c-2.905-0.503-7.49-1.253-10.313-2.229
	c-0.252-0.491-0.624-0.862-1.115-1.114c-0.122-0.343-0.357-0.573-0.836-0.558c0-0.093,0-0.186,0-0.279
	c1.622,0.228,2.176-0.612,2.787-1.394C66.844,56.017,67.319,56.192,67.727,56.434z"/>
<path fill-rule="evenodd" clip-rule="evenodd" fill="#757575" d="M22.019,67.583c0-0.558,0-1.115,0-1.673
	c0.932,0.276,3.124-0.708,2.787,0.837C24.874,68.023,22.411,66.767,22.019,67.583z"/>
<path fill-rule="evenodd" clip-rule="evenodd" fill="#757575" d="M22.297,72.042c2.603-0.649,6.409-0.096,9.476-0.278
	C29.17,72.412,25.364,71.857,22.297,72.042z"/>
<path fill-rule="evenodd" clip-rule="evenodd" fill="#FFFFFF" d="M10.034,0.97c-0.082-0.286,0.148-0.198,0.279-0.279
	c3.33-2.044,6.864,0.858,7.804,3.345c1.271,0.402,2.387,0.958,3.345,1.672c0.66,0.733,1.107,1.68,2.23,1.951
	c3.586,1.523,7.072,3.147,10.59,4.738c0,0.093,0,0.185,0,0.278c1.086-0.064,1.445,0.599,2.23,0.836
	c3.674,1.422,7.227,3.09,10.87,4.738c1.719,0.778,3.441,1.649,5.295,2.509c1.473,0.682,3.529,1.423,5.296,2.229
	c1.121,0.512,2.223,1.175,3.345,1.672c1.191,0.528,2.819,0.828,3.623,1.672c0,0.093,0,0.186,0,0.278
	c0.568,0.083,0.546,0.755,1.115,0.836c1.62,1.539,0.506,5.811,0.836,8.641c0,1.951,0,3.902,0,5.853c0,0.65,0,1.301,0,1.951
	c0,3.624,0,7.246,0,10.87c0,0.186,0,0.371,0,0.558c-0.611,0.782-1.165,1.622-2.787,1.394c-1.022,0-2.043,0-3.066,0
	c-0.464,0-0.929,0-1.393,0c-5.668,0.186-12.077-0.371-17.28,0.279c-0.464,2.604-0.464,7.151,0,9.755
	c-0.033,0.803,0.152,1.824-0.279,2.229c-0.093,0-0.186,0-0.279,0c-0.034,0.709-0.405,1.081-1.114,1.115c-0.744,0-1.487,0-2.23,0
	c-0.825,0.056-1.372-0.572-2.23,0c-0.214,0.143-0.342,0.726-0.557,0.836c-1.064,0.544-2.325,0.419-3.902,0.837
	c-3.067,0.183-6.873-0.371-9.476,0.278c-1.393-0.002-2.544-0.243-2.787-1.395c0-1.114,0-2.229,0-3.344c0-0.465,0-0.93,0-1.395
	c-0.185-2.974,0.37-6.687-0.279-9.197c-1.623-1.058-3.436-2.432-5.295-3.624c-0.699-0.448-1.187-0.845-1.951-1.393
	c-0.357-0.256-0.744-0.3-1.115-0.558c-0.621-0.431-1.178-1.123-1.952-1.672c-0.32-0.228-0.751-0.314-1.114-0.558
	c-0.801-0.536-1.869-1.417-2.787-2.229c-0.332-0.293-0.885-0.265-1.115-0.558c-0.285-0.362-0.276-1.511-0.836-1.951
	c0-0.558,0-1.115,0-1.672c0-7.804,0-15.607,0-23.412c0-0.372,0-0.744,0-1.115c0-0.464,0-0.929,0-1.393
	c-0.035-1.958,1.737-3.151,2.787-4.459c0.271-0.338,0.296-0.816,0.557-1.115c0.608-0.693,1.546-1.532,2.23-2.508
	c0.452,0.2,0.452-1.314,0-1.115C7.831,6.136,7.808,3.002,8.918,2.085C9.411,1.833,9.782,1.462,10.034,0.97z M10.87,4.315
	c-0.452-0.199-0.452,1.314,0,1.115c0.284,0.366,0.273,1.027,0.557,1.393c0,0.093,0,0.186,0,0.279
	c0.055,1.077,0.01,2.054-0.279,2.787c-0.016,0.17-0.042,0.33-0.278,0.279c-0.492,0.251-0.864,0.623-1.115,1.115
	c0,0.092,0,0.186,0,0.278c-1.267,1.798-3.041,3.091-3.902,5.295c-0.413,0.052-0.255,0.674-0.279,1.115c0,0.372,0,0.744,0,1.115
	c0,0.093,0,0.186,0,0.278c0,4.173,0,8.008,0,11.706c0,4.012-0.506,8.096,0,11.706c0.194,1.384,1.071,1.598,2.23,2.509
	c1.158,0.91,2.083,1.599,3.066,2.23c2.846,1.825,4.731,3.398,7.525,5.295c1.952,1.326,3.56,1.986,3.902,3.623
	c0.131,0.625-0.231,1.555-0.278,2.23c-0.171,2.432,0.132,5.149,0,7.246c0,0.558,0,1.115,0,1.673c0,0.557,0,1.115,0,1.672
	c2.232,0.464,6.407,0.464,8.64,0c1.313-0.45,3.221-0.308,3.902-1.394c0.815,0.072,0.856-0.63,1.672-0.557c0.464,0,0.929,0,1.394,0
	c0.853-0.202,0.819,0.48,1.672,0.278c0.093,0,0.186,0,0.279,0c0.649-3.346,0.094-7.896,0.279-11.706
	c0.213-0.901,0.771-1.458,1.671-1.672c6.039,0,12.078,0,18.117,0c0.372,0,0.743,0,1.115,0c1.208,0,2.416,0,3.623,0
	c0-1.951,0-3.902,0-5.853c0-3.159,0-6.318,0-9.477c-0.185-2.974,0.37-6.687-0.279-9.197c0-0.186,0-0.372,0-0.558
	c-9.249-4.687-19.129-8.741-28.707-13.1c-0.627-0.488-1.567-0.662-2.229-1.114c-3.8-1.589-7.512-3.265-11.148-5.017
	c-0.626-0.86-1.37-1.603-2.23-2.229c-1.709-0.521-3.049-1.411-4.181-2.509c-0.776-0.71-0.948-2.025-2.229-2.229
	c0.199-0.452-1.314-0.452-1.115,0C11.546,3.134,11.083,3.599,10.87,4.315z"/>
<path fill-rule="evenodd" clip-rule="evenodd" fill="#191919" d="M3.066,42.499c0,0.558,0,1.114,0,1.672
	c-0.616-0.035-0.119-1.183-0.279-1.672C2.88,42.499,2.973,42.499,3.066,42.499z"/>
<path fill-rule="evenodd" clip-rule="evenodd" fill="#CACACA" d="M38.462,70.091c0.743,0,1.486,0,2.23,0
	c-0.121,0.623-1.374,0.113-1.952,0.278C38.504,70.42,38.479,70.261,38.462,70.091z"/>
<path fill-rule="evenodd" clip-rule="evenodd" fill="#757575" d="M39.856,55.876c-0.186,3.81,0.37,8.36-0.279,11.706
	C39.763,63.773,39.206,59.222,39.856,55.876z"/>
</svg>
