<?xml version="1.0" encoding="utf-8"?>
<!-- Generator: Adobe Illustrator 15.0.0, SVG Export Plug-In  -->
<!DOCTYPE svg PUBLIC "-//W3C//DTD SVG 1.1//EN" "http://www.w3.org/Graphics/SVG/1.1/DTD/svg11.dtd" [
	<!ENTITY ns_flows "http://ns.adobe.com/Flows/1.0/">
]>
<svg version="1.1"
	 xmlns="http://www.w3.org/2000/svg" xmlns:xlink="http://www.w3.org/1999/xlink" xmlns:a="http://ns.adobe.com/AdobeSVGViewerExtensions/3.0/"
	 x="0px" y="0px" width="142px" height="142px" viewBox="-3.554 -14.272 142 142" enable-background="new -3.554 -14.272 142 142"
	 xml:space="preserve">
<defs>
</defs>
<path fill-rule="evenodd" clip-rule="evenodd" fill="#353535" d="M14.563,0.343c-0.046-0.457,1.718-0.457,1.672,0
	C15.677,0.343,15.12,0.343,14.563,0.343z"/>
<path fill-rule="evenodd" clip-rule="evenodd" fill="#353535" d="M8.431,1.458c0.052-0.413,0.674-0.255,1.115-0.279
	c0,0.093,0,0.186,0,0.279C9.174,1.458,8.802,1.458,8.431,1.458z"/>
<path fill-rule="evenodd" clip-rule="evenodd" fill="#353535" d="M14.841,3.13c-0.125-0.456,1.52-0.456,1.394,0
	C15.77,3.13,15.306,3.13,14.841,3.13z"/>
<path fill-rule="evenodd" clip-rule="evenodd" fill="#D6D6D6" d="M64.173,25.706c0,1.208,0,2.416,0,3.623
	C63.71,28.758,63.71,26.277,64.173,25.706z"/>
<path fill-rule="evenodd" clip-rule="evenodd" fill="#353535" d="M64.173,32.674c0.465,2.789,0.465,7.523,0,10.312
	C64.173,39.548,64.173,36.111,64.173,32.674z"/>
<path fill-rule="evenodd" clip-rule="evenodd" fill="#353535" d="M61.386,32.952c0.093,0,0.186,0,0.279,0c0,3.252,0,6.503,0,9.755
	c-0.093,0-0.186,0-0.279,0C61.386,39.456,61.386,36.204,61.386,32.952z"/>
<path fill-rule="evenodd" clip-rule="evenodd" fill="#353535" d="M67.796,48.561c-0.485-0.021-0.866,0.062-1.115,0.279
	C66.235,48.063,67.885,48.068,67.796,48.561z"/>
<path fill-rule="evenodd" clip-rule="evenodd" fill="#A2A2A2" d="M98.175,78.104c0.379,0.087,0.232,0.698,0.279,1.115
	c-0.093,0-0.185,0-0.279,0C98.175,78.848,98.175,78.476,98.175,78.104z"/>
<path fill-rule="evenodd" clip-rule="evenodd" fill="#A2A2A2" d="M100.684,78.939c0.094,0,0.187,0,0.278,0c0,0.837,0,1.673,0,2.51
	c-0.092,0-0.185,0-0.278,0C100.684,80.612,100.684,79.776,100.684,78.939z"/>
<path fill-rule="evenodd" clip-rule="evenodd" fill="#353535" d="M61.107,79.219c0,3.902,0,7.804,0,11.706
	C60.643,87.671,60.643,82.472,61.107,79.219z"/>
<path fill-rule="evenodd" clip-rule="evenodd" fill="#D6D6D6" d="M98.175,79.219c0.095,0,0.187,0,0.279,0c0,0.65,0,1.301,0,1.95
	c-0.093,0-0.185,0-0.279,0C98.175,80.52,98.175,79.869,98.175,79.219z"/>
<path fill-rule="evenodd" clip-rule="evenodd" fill="#353535" d="M63.615,80.333c0.093,0,0.186,0,0.279,0c0,3.438,0,6.876,0,10.313
	c-0.093,0-0.186,0-0.279,0C63.615,87.209,63.615,83.771,63.615,80.333z"/>
<path fill-rule="evenodd" clip-rule="evenodd" fill="#D6D6D6" d="M100.684,81.449c0.094,0,0.187,0,0.278,0c0,0.37,0,0.743,0,1.113
	C100.551,82.512,100.707,81.89,100.684,81.449z"/>
<path fill-rule="evenodd" clip-rule="evenodd" fill="#727272" d="M63.615,90.646c0.093,0,0.186,0,0.279,0c0,0.744,0,1.486,0,2.229
	c-0.093,0-0.186,0-0.279,0C63.615,92.132,63.615,91.39,63.615,90.646z"/>
<path fill-rule="evenodd" clip-rule="evenodd" fill="#D6D6D6" d="M61.107,92.597c0.464,1.954,0.464,5.849,0,7.804
	C61.107,97.8,61.107,95.198,61.107,92.597z"/>
<path fill-rule="evenodd" clip-rule="evenodd" fill="#A2A2A2" d="M63.615,92.875c0.093,0,0.186,0,0.279,0c0,2.23,0,4.46,0,6.689
	c-0.093,0-0.186,0-0.279,0C63.615,97.335,63.615,95.105,63.615,92.875z"/>
<path fill-rule="evenodd" clip-rule="evenodd" fill="#D6D6D6" d="M102.913,96.22c0.459-0.045,0.459,1.718,0,1.672
	C102.913,97.335,102.913,96.778,102.913,96.22z"/>
<path fill-rule="evenodd" clip-rule="evenodd" fill="#353535" d="M81.174,107.647c0,0.929,0,1.858,0,2.786c-0.092,0-0.186,0-0.278,0
	C81.07,109.588,80.539,108.034,81.174,107.647z"/>
<path fill-rule="evenodd" clip-rule="evenodd" fill="#727272" d="M81.174,107.647c0.373,0,0.744,0,1.116,0c0,0.929,0,1.858,0,2.786
	c-0.372,0-0.743,0-1.116,0C81.174,109.506,81.174,108.576,81.174,107.647z"/>
<path fill-rule="evenodd" clip-rule="evenodd" fill="#353535" d="M82.29,107.647c0.635,0.387,0.103,1.94,0.278,2.786
	c-0.094,0-0.186,0-0.278,0C82.29,109.506,82.29,108.576,82.29,107.647z"/>
<path fill-rule="evenodd" clip-rule="evenodd" fill="#353535" d="M90.094,110.434c-0.049-0.604,0.987-0.126,1.392-0.278
	c0,0.093,0,0.186,0,0.278C91.021,110.434,90.559,110.434,90.094,110.434z"/>
<path fill-rule="evenodd" clip-rule="evenodd" fill="#A2A2A2" d="M80.896,113.221c0-0.092,0-0.186,0-0.278c0.558,0,1.116,0,1.673,0
	c0,0.093,0,0.187,0,0.278c-0.094,0-0.186,0-0.278,0c-0.372,0-0.743,0-1.116,0C81.082,113.221,80.988,113.221,80.896,113.221z"/>
<path fill-rule="evenodd" clip-rule="evenodd" fill="#727272" d="M82.568,113.221c0-0.092,0-0.186,0-0.278c2.601,0,5.203,0,7.804,0
	c0,0.093,0,0.187,0,0.278C87.771,113.221,85.169,113.221,82.568,113.221z"/>
<path fill-rule="evenodd" clip-rule="evenodd" fill="#353535" d="M90.372,113.221c0-0.092,0-0.186,0-0.278c0.37,0,0.743,0,1.113,0
	C91.436,113.355,90.813,113.197,90.372,113.221z"/>
<path fill-rule="evenodd" clip-rule="evenodd" fill="#727272" d="M81.174,113.221c0.373,0,0.744,0,1.116,0
	c-0.25,0.772,0.571,2.617-0.559,2.509C80.602,115.838,81.425,113.993,81.174,113.221z"/>
<path fill-rule="evenodd" clip-rule="evenodd" fill="#353535" d="M68.075,116.287c-4.646-0.186-10.032,0.371-14.214-0.278
	C58.506,116.193,63.894,115.638,68.075,116.287z"/>
<path fill-rule="evenodd" clip-rule="evenodd" fill="#353535" d="M53.86,118.795c4.459,0,8.919,0,13.379,0c0,0.094,0,0.187,0,0.28
	C62.872,118.889,57.764,119.444,53.86,118.795z"/>
<path fill-rule="evenodd" clip-rule="evenodd" fill="#727272" d="M5.086,3.967c0.251-0.492,0.623-0.863,1.114-1.115
	C5.949,3.343,5.578,3.715,5.086,3.967z"/>
<path fill-rule="evenodd" clip-rule="evenodd" fill="#727272" d="M2.578,7.032C2.2,6.203,1.319,5.875,0.627,5.36
	C0.584,4.667,1.064,4.497,1.185,3.967C2.322,4.14,2.892,6.018,3.972,5.36C3.584,5.995,3.007,6.44,2.578,7.032z"/>
<path fill-rule="evenodd" clip-rule="evenodd" fill="#727272" d="M16.235,50.79c0.013,0.101,0.544,0.22,0.558,0.279
	c0.852,3.803-0.633,9.596,0,13.935C15.963,60.91,17.063,54.887,16.235,50.79z"/>
<path fill-rule="evenodd" clip-rule="evenodd" fill="#353535" d="M58.599,107.368c0.252-0.491,0.623-0.863,1.115-1.114
	C59.462,106.745,59.09,107.116,58.599,107.368z"/>
<path fill-rule="evenodd" clip-rule="evenodd" fill="#727272" d="M74.764,117.681c0.252-0.491,0.625-0.862,1.115-1.115
	C75.627,117.058,75.256,117.429,74.764,117.681z"/>
<path fill-rule="evenodd" clip-rule="evenodd" fill="#353535" d="M82.29,113.221c0.093,0,0.185,0,0.278,0
	c-0.076,0.946,0.215,2.26-0.278,2.788c-0.465,0-0.93,0-1.395,0c0-0.93,0-1.858,0-2.788c0.093,0,0.187,0,0.278,0
	c0.251,0.772-0.572,2.617,0.558,2.509C82.861,115.838,82.04,113.993,82.29,113.221z"/>
<path fill-rule="evenodd" clip-rule="evenodd" fill="#353535" d="M98.732,111.827c0.252-0.49,0.625-0.862,1.115-1.114
	C99.596,111.204,99.225,111.576,98.732,111.827z"/>
<path fill-rule="evenodd" clip-rule="evenodd" fill="#727272" d="M46.614,72.529c0.664,0.45,1.229,1.001,1.951,1.394
	c0,0.094,0,0.187,0,0.278c-1.083,0.776-1.629,2.088-2.509,3.066c-0.746-0.183-1.06-0.798-1.672-1.115
	C44.832,74.649,46.226,74.092,46.614,72.529z"/>
<path fill-rule="evenodd" clip-rule="evenodd" fill="#D6D6D6" d="M6.758,5.917C7.01,5.426,7.382,5.055,7.873,4.803
	C7.82,5.028,7.594,5.081,7.595,5.36C7.229,5.458,7.156,5.851,6.758,5.917z"/>
<path fill-rule="evenodd" clip-rule="evenodd" fill="#353535" d="M6.48,6.475c0.053-0.226,0.279-0.278,0.278-0.558
	c0.398-0.067,0.47-0.459,0.836-0.558C7.343,5.851,6.971,6.223,6.48,6.475z"/>
<path fill-rule="evenodd" clip-rule="evenodd" fill="#A2A2A2" d="M4.529,8.705C4.78,8.213,5.152,7.842,5.644,7.59
	C5.562,8.158,4.89,8.136,4.808,8.705C4.714,8.705,4.622,8.705,4.529,8.705z"/>
<path fill-rule="evenodd" clip-rule="evenodd" fill="#D6D6D6" d="M19.301,63.332c2.324,0.648,5.851,0.094,8.64,0.278
	c-2.004,0.258-7.456,0.717-8.919,0C18.887,63.544,19.194,63.217,19.301,63.332z"/>
<path fill-rule="evenodd" clip-rule="evenodd" fill="#727272" d="M50.238,71.972c-0.665-0.45-1.229-1.001-1.951-1.394
	c0-0.093,0-0.187,0-0.278c1.494-0.505,1.593-3.413,3.344-2.788C53.582,69.032,50.602,70.28,50.238,71.972z"/>
<path fill-rule="evenodd" clip-rule="evenodd" fill="#353535" d="M62.222,51.905c0.491,0.252,0.863,0.623,1.115,1.114
	C62.846,52.768,62.474,52.396,62.222,51.905z"/>
<path fill-rule="evenodd" clip-rule="evenodd" fill="#727272" d="M65.288,53.578c0.802,0.313,2.173,0.056,2.787,0.557
	c-0.186,0-0.371,0-0.557,0c-0.719,0.675,0.22,3.007-1.672,2.509c-0.844-0.683,0.211-1.814,0-2.787
	C65.521,53.901,65.35,53.794,65.288,53.578z"/>
<path fill-rule="evenodd" clip-rule="evenodd" fill="#727272" d="M6.48,9.819C5.733,9.637,5.42,9.021,4.808,8.705
	C4.89,8.136,5.562,8.158,5.644,7.59C6.212,7.672,6.19,8.344,6.758,8.426c0.488,0.281,1.495,0.482,0.836,1.115
	C7.026,9.696,7.048,10.379,6.48,9.819z"/>
<path fill-rule="evenodd" clip-rule="evenodd" fill="#353535" d="M6.48,9.819c0.568,0.56,0.546-0.123,1.115-0.279
	c0,0.093,0,0.186,0,0.279C7.104,10.063,6.732,10.752,6.48,9.819z"/>
<path fill-rule="evenodd" clip-rule="evenodd" fill="#353535" d="M5.922,7.311c0.082,0.569,0.754,0.547,0.836,1.115
	C6.19,8.344,6.212,7.672,5.644,7.59C5.592,7.353,5.752,7.327,5.922,7.311z"/>
<path fill-rule="evenodd" clip-rule="evenodd" fill="#727272" d="M9.545,1.179c0.465,0,0.929,0,1.394,0
	c0.047,0.604-0.988,0.126-1.394,0.279C9.545,1.365,9.545,1.272,9.545,1.179z"/>
<path fill-rule="evenodd" clip-rule="evenodd" fill="#727272" d="M61.665,42.708c0,2.508,0,5.017,0,7.525
	c-0.648-1.953-0.095-5.108-0.279-7.525C61.479,42.708,61.571,42.708,61.665,42.708z"/>
<path fill-rule="evenodd" clip-rule="evenodd" fill="#353535" d="M19.301,50.232c0.457-0.046,0.457,1.718,0,1.673
	C19.301,51.348,19.301,50.79,19.301,50.232z"/>
<path fill-rule="evenodd" clip-rule="evenodd" fill="#727272" d="M67.796,51.348c-0.787,0.23-0.722-0.393-1.393-0.279
	c-0.214-1.05,0.339-1.333,0.278-2.229c0.249-0.217,0.63-0.3,1.115-0.279C68.837,48.522,67.654,50.488,67.796,51.348z"/>
<path fill-rule="evenodd" clip-rule="evenodd" fill="#D6D6D6" d="M83.126,74.48c5.017,0.186,10.776-0.371,15.328,0.279
	C93.438,74.574,87.678,75.13,83.126,74.48z"/>
<path fill-rule="evenodd" clip-rule="evenodd" fill="#727272" d="M98.454,81.169c0,0.837,0,1.673,0,2.509
	c-0.632-0.297-0.106-1.752-0.279-2.509C98.27,81.169,98.361,81.169,98.454,81.169z"/>
<path fill-rule="evenodd" clip-rule="evenodd" fill="#727272" d="M105.422,94.826c0.462,0.846,0.462,3.613,0,4.46
	C105.422,97.8,105.422,96.313,105.422,94.826z"/>
<path fill-rule="evenodd" clip-rule="evenodd" fill="#727272" d="M63.895,99.564c-0.18,1.214,0.363,3.15-0.279,3.901
	c0-1.3,0-2.601,0-3.901C63.708,99.564,63.801,99.564,63.895,99.564z"/>
<path fill-rule="evenodd" clip-rule="evenodd" fill="#727272" d="M93.994,110.155c0.122-0.623,1.374-0.113,1.951-0.278
	C95.825,110.5,94.573,109.989,93.994,110.155z"/>
<path fill-rule="evenodd" clip-rule="evenodd" fill="#727272" d="M91.485,110.155c0.465,0,0.93,0,1.395,0
	c0.049,0.605-0.987,0.127-1.395,0.278C91.485,110.341,91.485,110.248,91.485,110.155z"/>
<path fill-rule="evenodd" clip-rule="evenodd" fill="#727272" d="M92.88,112.942c0.12-0.623,1.375-0.112,1.951-0.278
	C94.711,113.287,93.457,112.777,92.88,112.942z"/>
<path fill-rule="evenodd" clip-rule="evenodd" fill="#727272" d="M52.467,113.778c0,0.372,0,0.744,0,1.115
	C52.015,115.093,52.015,113.579,52.467,113.778z"/>
<path fill-rule="evenodd" clip-rule="evenodd" fill="#727272" d="M67.239,118.795c1.578,0,3.159,0,4.737,0
	c-1.027,0.646-3.247,0.098-4.737,0.28C67.239,118.981,67.239,118.889,67.239,118.795z"/>
<path fill-rule="evenodd" clip-rule="evenodd" fill="#FFFFFF" d="M10.939,1.179c1.106-0.38,1.994-0.979,3.624-0.836
	c0.558,0,1.115,0,1.672,0c2.231,0.274,4.729,1.502,6.967,2.509c1.883,0.847,3.939,1.916,5.853,2.788
	c8.564,3.898,17.403,7.813,26.756,11.984c0.892,0.397,1.791,0.947,2.788,1.394c1.361,0.61,2.52,0.986,3.623,1.672
	c0.154,0.096,0.681,0.138,0.836,0.278c0.239,0.218,0.077,0.567,0.279,0.836c0.069,0.091,0.521,0.197,0.558,0.279
	c0.482,1.085,0.182,2.427,0.278,3.623c-0.462,0.571-0.462,3.052,0,3.623c0,1.115,0,2.23,0,3.345c0,3.438,0,6.875,0,10.312
	c0.476,1.998-1.382,8.335,2.23,8.083c0.671-0.114,0.606,0.509,1.393,0.279c6.469,0.963,14.104,0.761,14.772,7.524
	c0.185,5.111-0.37,10.963,0.278,15.608c0.093,0,0.187,0,0.279,0c4.552,0.649,10.312,0.094,15.328,0.279
	c1.25,0.237,1.993,0.979,2.229,2.229c0,0.65,0,1.3,0,1.95c0,0.837,0,1.673,0,2.51c0.023,0.44-0.133,1.063,0.278,1.113
	c0.647,4.929,4.113,7.037,4.46,12.264c0,1.487,0,2.974,0,4.46c0.111,1.835-0.638,3.493-1.393,4.738
	c-0.475,0.779-1.145,1.187-1.673,1.951c-0.187,0.27-0.068,0.609-0.278,0.835c-0.771,0.828-1.29,2.48-2.23,3.902
	c-0.49,0.252-0.863,0.624-1.115,1.114c-0.992,0.586-2.158,1-3.901,0.837c-0.576,0.166-1.831-0.345-1.951,0.278
	c-0.465,0-0.93,0-1.395,0c-0.37,0-0.743,0-1.113,0c-2.601,0-5.203,0-7.804,0c-0.557,0-1.115,0-1.673,0
	c-0.757,0.172-2.212-0.354-2.508,0.278c-1.353,0.599-1.608,2.294-2.509,3.345c-0.49,0.253-0.863,0.624-1.115,1.115
	c-0.754,0.547-1.438,1.162-2.787,1.114c-1.578,0-3.159,0-4.737,0c-4.46,0-8.919,0-13.379,0c-3.436-0.112-4.592-2.651-4.18-5.295
	c0.617-3.961,6.521-4.265,8.919-6.132c0.491-0.252,0.863-0.623,1.115-1.114c0.925-1.49,1.493-3.339,1.394-5.854
	c0.464-1.955,0.464-5.85,0-7.804c0-0.558,0-1.115,0-1.672c0-3.902,0-7.804,0-11.706c0.201-0.852-0.285-1.017-0.279-1.673
	c-2.466-0.841-5.021,0.173-7.246-0.278c-1.979-0.4-3.375-2.197-5.017-3.066c0-0.092,0-0.185,0-0.278
	c-0.722-0.393-1.287-0.943-1.951-1.394c-4.134-2.74-7.928-5.821-11.984-8.64c-1.078,0.037-1.1,1.13-1.951,1.394
	c-1.014,0.472-2.242,0.731-3.624,0.837c-3.716,0-7.432,0-11.148,0c-0.709-0.034-1.081-0.407-1.115-1.116
	c-0.633-4.339,0.852-10.132,0-13.935c-0.014-0.059-0.545-0.178-0.558-0.279c-2.814-1.643-5.353-3.72-8.083-5.574
	c-2.666-1.81-5.727-3.352-7.804-5.853c0-0.278,0-0.558,0-0.836c0-9.198,0-18.396,0-27.592c0.053-1.99,1.325-2.763,2.229-3.902
	C3.007,6.44,3.584,5.995,3.972,5.36c0.281-0.555,0.481-1.19,1.115-1.393c0.491-0.252,0.863-0.624,1.114-1.115
	c0.481-0.727,1.003-1.413,2.23-1.394c0.372,0,0.743,0,1.115,0C9.951,1.306,10.986,1.784,10.939,1.179z M14.841,3.13
	c-1.905-0.048-2.687,1.029-4.738,0.836c-0.405,0.152-1.44-0.326-1.394,0.278c-0.398,0.066-0.47,0.458-0.836,0.558
	C7.382,5.055,7.01,5.426,6.758,5.917c0.001,0.28-0.226,0.332-0.278,0.558c-0.067,0.397-0.459,0.47-0.558,0.835
	c-0.17,0.016-0.33,0.042-0.278,0.279C5.152,7.842,4.78,8.213,4.529,8.705c-0.171,0.948-1.45,1.868-1.672,2.787
	c-0.388,1.605,0,4.189,0,6.411c0,6.726,0,14.038,0,20.067c0.33,0.839,1.324,0.943,1.951,1.394c0.722,0.519,1.258,1.194,1.951,1.672
	c1.17,0.806,2.86,1.797,3.624,2.509c0.227,0.21,0.564,0.092,0.836,0.278c0.69,0.475,1.225,1.169,1.951,1.672
	c0.334,0.232,0.742,0.298,1.115,0.558c0.329,0.228,0.786,0.608,1.115,0.836c1.423,0.984,3.202,1.652,3.902,3.344
	c0,0.557,0,1.115,0,1.673c0,3.809,0,7.617,0,11.427c-0.106-0.115-0.414,0.212-0.279,0.278c1.463,0.717,6.916,0.258,8.919,0
	c0.994-0.398,2.307-0.479,3.344-0.836c0.978-1.021,1.296-1.866,2.787-1.951c1.228-0.069,2.433,0.949,3.902,1.951
	c3.26,2.226,7.77,5.674,10.033,7.525c0.093,0,0.186,0,0.279,0c0,0.092,0,0.186,0,0.278c0.723,0.393,1.287,0.943,1.951,1.394
	c1.491,0.738,2.462,1.997,4.181,2.509c1.675,0.646,4.55,0.095,6.689,0.279c1.545,0.127,2.381,0.962,2.508,2.508
	c0,1.021,0,2.044,0,3.065c0,3.438,0,6.876,0,10.313c0,0.744,0,1.486,0,2.229c0,2.23,0,4.46,0,6.689c0,1.301,0,2.602,0,3.901
	c-0.172,2.902-1.809,5.314-3.623,6.132c-0.092,0.042-0.172,0.49-0.278,0.558c-0.263,0.17-0.861,0.427-1.115,0.558
	c-2.245,1.155-4.689,1.366-6.132,3.065c-0.452-0.199-0.452,1.314,0,1.115c0.358,0.478,0.576,1.096,1.393,1.115
	c4.182,0.649,9.569,0.093,14.214,0.278c2.231,0.188,3.848-0.24,5.296-0.837c1.224-2.955,2.654-5.705,7.524-5.017
	c0.093,0,0.187,0,0.278,0c0.373,0,0.744,0,1.116,0c0.093,0,0.185,0,0.278,0c2.509,0,5.017,0,7.525,0c0.465,0,0.928,0,1.392,0
	c0.407-0.151,1.443,0.327,1.395-0.278c0.371,0,0.743,0,1.114,0c0.579-0.166,1.831,0.345,1.951-0.278
	c2.271-0.201,1.953-2.315,3.067-4.181c0.068-0.114,0.467-0.159,0.557-0.278c0.185-0.245,0.108-0.619,0.278-0.837
	c0.101-0.128,0.441-0.153,0.558-0.278c0.208-0.225,0.09-0.572,0.278-0.837c0.086-0.12,0.45-0.163,0.559-0.278
	c1.204-1.294,1.305-3.535,1.671-5.296c0.459,0.046,0.459-1.717,0-1.672c-0.383-5.285-3.959-7.374-4.459-12.542
	c0-0.836,0-1.672,0-2.509c0-0.649,0-1.3,0-1.95c-0.047-0.417,0.1-1.028-0.279-1.115c-0.014-0.356-0.356-0.386-0.278-0.836
	c-0.187,0-0.37,0-0.557,0c-4.646-0.65-10.498-0.093-15.608-0.278c-2.603-0.959-1.671-5.13-1.671-9.478c0-2.854,0.227-5.829,0-7.803
	c-0.145-1.241-0.77-1.77-1.116-2.23c-0.2-0.267-0.054-0.615-0.278-0.836c-1.23-1.214-3.098-1.062-5.017-1.394
	c-1.905-0.329-3.629-0.838-5.575-1.115c-0.614-0.501-1.985-0.243-2.787-0.557c-1,0.164-1.348-0.324-1.951-0.558
	c-0.252-0.491-0.624-0.862-1.115-1.114c-0.16-0.583-0.691-0.796-0.558-1.673c0-2.508,0-5.017,0-7.525c0-3.252,0-6.503,0-9.755
	c-0.185-2.974,0.37-6.687-0.279-9.197c-1.175-1.408-4.324-2.52-6.131-3.066c-0.1-0.03-0.423-0.496-0.558-0.558
	c-1.732-0.793-3.443-1.475-5.017-1.951c-0.101-0.03-0.423-0.496-0.558-0.557c-1.695-0.777-3.384-1.458-5.016-1.951
	c-0.102-0.03-0.42-0.497-0.558-0.557c-0.549-0.242-1.126-0.309-1.672-0.558C33.26,10.633,24.478,6.471,16.235,3.13
	C16.36,2.675,14.715,2.675,14.841,3.13z"/>
<path fill-rule="evenodd" clip-rule="evenodd" fill="#D6D6D6" d="M100.684,76.989c0.623,0.119,0.114,1.373,0.278,1.95
	c-0.092,0-0.185,0-0.278,0C100.684,78.289,100.684,77.64,100.684,76.989z"/>
<path fill-rule="evenodd" clip-rule="evenodd" fill="#727272" d="M61.386,23.755c0.649,2.51,0.094,6.223,0.279,9.197
	c-0.093,0-0.186,0-0.279,0C61.386,29.887,61.386,26.821,61.386,23.755z"/>
<path fill-rule="evenodd" clip-rule="evenodd" fill="#A2A2A2" d="M17.907,66.12c3.716,0,7.432,0,11.148,0
	C25.988,66.584,20.975,66.584,17.907,66.12z"/>
<path fill-rule="evenodd" clip-rule="evenodd" fill="#727272" d="M54.418,74.48c2.139,0.184,5.014-0.368,6.689,0.279
	C58.968,74.575,56.093,75.127,54.418,74.48z"/>
<path fill-rule="evenodd" clip-rule="evenodd" fill="#727272" d="M78.388,113.221c0.296-0.632,1.751-0.106,2.508-0.278
	c0,0.093,0,0.187,0,0.278C80.061,113.221,79.223,113.221,78.388,113.221z"/>
<path fill-rule="evenodd" clip-rule="evenodd" fill="#353535" d="M8.709,4.245c-0.047-0.604,0.989-0.126,1.394-0.278
	C10.15,4.571,9.114,4.093,8.709,4.245z"/>
<path fill-rule="evenodd" clip-rule="evenodd" fill="#727272" d="M0.349,10.935c0,9.197,0,18.395,0,27.592
	C-0.116,29.979-0.116,19.481,0.349,10.935z"/>
<path fill-rule="evenodd" clip-rule="evenodd" fill="#727272" d="M82.568,58.872c0.649,4.646,0.093,10.498,0.278,15.608
	C82.198,69.835,82.753,63.983,82.568,58.872z"/>
<path fill-rule="evenodd" clip-rule="evenodd" fill="#727272" d="M63.615,77.268c0.638,0.477,0.103,2.128,0.279,3.065
	c-0.093,0-0.186,0-0.279,0C63.615,79.312,63.615,78.289,63.615,77.268z"/>
<path fill-rule="evenodd" clip-rule="evenodd" fill="#A2A2A2" d="M81.731,76.989c5.11,0.186,10.963-0.372,15.608,0.278
	C92.229,77.082,86.377,77.639,81.731,76.989z"/>
</svg>
