<?xml version="1.0" encoding="utf-8"?>
<!-- Generator: Adobe Illustrator 15.0.0, SVG Export Plug-In  -->
<!DOCTYPE svg PUBLIC "-//W3C//DTD SVG 1.1//EN" "http://www.w3.org/Graphics/SVG/1.1/DTD/svg11.dtd" [
	<!ENTITY ns_flows "http://ns.adobe.com/Flows/1.0/">
]>
<svg version="1.1"
	 xmlns="http://www.w3.org/2000/svg" xmlns:xlink="http://www.w3.org/1999/xlink" xmlns:a="http://ns.adobe.com/AdobeSVGViewerExtensions/3.0/"
	 x="0px" y="0px" width="142px" height="142px" viewBox="-3.554 -14.271 142 142" enable-background="new -3.554 -14.271 142 142"
	 xml:space="preserve">
<defs>
</defs>
<path fill-rule="evenodd" clip-rule="evenodd" fill="#191919" d="M14.284,0.345c0.124-0.459,2.106-0.459,2.229,0
	C15.77,0.345,15.027,0.345,14.284,0.345z"/>
<path fill-rule="evenodd" clip-rule="evenodd" fill="#191919" d="M8.431,1.46c0.208-0.629,1.563-0.109,2.23-0.279
	C10.453,1.81,9.097,1.291,8.431,1.46z"/>
<path fill-rule="evenodd" clip-rule="evenodd" fill="#191919" d="M14.284,3.132c0.124-0.46,2.106-0.46,2.229,0
	C15.77,3.132,15.027,3.132,14.284,3.132z"/>
<path fill-rule="evenodd" clip-rule="evenodd" fill="#191919" d="M8.709,4.247c-0.047-0.604,0.989-0.126,1.394-0.278
	C10.15,4.573,9.114,4.095,8.709,4.247z"/>
<path fill-rule="evenodd" clip-rule="evenodd" fill="#191919" d="M0.349,10.937c0,9.197,0,18.395,0,27.592
	C-0.116,29.981-0.116,19.483,0.349,10.937z"/>
<path fill-rule="evenodd" clip-rule="evenodd" fill="#191919" d="M61.386,24.036c0.465,7.526,0.465,17.001,0,24.527
	C61.386,40.387,61.386,32.211,61.386,24.036z"/>
<path fill-rule="evenodd" clip-rule="evenodd" fill="#191919" d="M64.173,31.561c0.465,4.182,0.465,10.311,0,14.493
	C64.173,41.223,64.173,36.392,64.173,31.561z"/>
<path fill-rule="evenodd" clip-rule="evenodd" fill="#191919" d="M51.91,45.775c-0.173,0.756,0.354,2.212-0.279,2.508
	C51.803,47.527,51.277,46.072,51.91,45.775z"/>
<path fill-rule="evenodd" clip-rule="evenodd" fill="#C9C9C9" d="M51.91,48.563c-0.2-0.452,1.313-0.452,1.114,0
	C52.653,48.563,52.281,48.563,51.91,48.563z"/>
<path fill-rule="evenodd" clip-rule="evenodd" fill="#191919" d="M19.301,50.234c0.457-0.046,0.457,1.718,0,1.673
	C19.301,51.35,19.301,50.792,19.301,50.234z"/>
<path fill-rule="evenodd" clip-rule="evenodd" fill="#191919" d="M51.631,51.071c0.093,0,0.186,0,0.279,0c0,0.929,0,1.858,0,2.787
	C51.274,53.471,51.806,51.917,51.631,51.071z"/>
<path fill-rule="evenodd" clip-rule="evenodd" fill="#717171" d="M51.91,51.071c0.464,0,0.929,0,1.393,0c0,0.929,0,1.858,0,2.787
	c-0.464,0-0.929,0-1.393,0C51.91,52.929,51.91,52,51.91,51.071z"/>
<path fill-rule="evenodd" clip-rule="evenodd" fill="#191919" d="M19.579,66.4c0.663-0.463,3.24-0.463,3.902,0
	C22.181,66.4,20.88,66.4,19.579,66.4z"/>
<path fill-rule="evenodd" clip-rule="evenodd" fill="#191919" d="M24.039,66.4c-0.045-0.458,1.718-0.458,1.672,0
	C25.154,66.4,24.596,66.4,24.039,66.4z"/>
<path fill-rule="evenodd" clip-rule="evenodd" fill="#191919" d="M27.941,66.4c0.051-0.413,0.673-0.257,1.114-0.278
	C28.969,66.499,28.357,66.353,27.941,66.4z"/>
<path fill-rule="evenodd" clip-rule="evenodd" fill="#191919" d="M65.845,70.302c0,0.092,0,0.186,0,0.278
	c-0.18,1.214,0.364,3.15-0.278,3.902C65.747,73.177,65.202,71.146,65.845,70.302z"/>
<path fill-rule="evenodd" clip-rule="evenodd" fill="#323232" d="M65.845,70.58c0-0.093,0-0.187,0-0.278
	c0.578,0.166,1.831-0.345,1.951,0.278C67.146,70.58,66.496,70.58,65.845,70.58z"/>
<path fill-rule="evenodd" clip-rule="evenodd" fill="#C9C9C9" d="M65.845,74.762c0.038-0.459,1.913-0.459,1.951,0
	C67.146,74.762,66.496,74.762,65.845,74.762z"/>
<path fill-rule="evenodd" clip-rule="evenodd" fill="#191919" d="M55.533,77.27c1.394,0,2.787,0,4.181,0
	C58.959,77.732,56.288,77.732,55.533,77.27z"/>
<path fill-rule="evenodd" clip-rule="evenodd" fill="#191919" d="M63.615,77.27c0.093,0,0.186,0,0.279,0c0,5.389,0,10.776,0,16.166
	C63.244,88.603,63.801,82.565,63.615,77.27z"/>
<path fill-rule="evenodd" clip-rule="evenodd" fill="#191919" d="M65.567,77.27c0.093,0,0.186,0,0.278,0c0,1.394,0,2.787,0,4.182
	C65.202,80.607,65.747,78.575,65.567,77.27z"/>
<path fill-rule="evenodd" clip-rule="evenodd" fill="#191919" d="M76.158,77.27c1.208,0,2.416,0,3.624,0
	C79.209,77.731,76.729,77.731,76.158,77.27z"/>
<path fill-rule="evenodd" clip-rule="evenodd" fill="#191919" d="M98.175,82.286c0.605-0.047,0.127,0.988,0.279,1.394
	C97.851,83.727,98.327,82.69,98.175,82.286z"/>
<path fill-rule="evenodd" clip-rule="evenodd" fill="#191919" d="M100.962,82.844c0.379,0.087,0.232,0.697,0.28,1.115
	C100.83,83.907,100.986,83.285,100.962,82.844z"/>
<path fill-rule="evenodd" clip-rule="evenodd" fill="#191919" d="M102.635,94.55c0.413,0.052,0.257,0.673,0.278,1.114
	C102.501,95.613,102.659,94.991,102.635,94.55z"/>
<path fill-rule="evenodd" clip-rule="evenodd" fill="#191919" d="M105.422,94.55c0.625,0.119,0.114,1.373,0.28,1.95
	C105.077,96.38,105.588,95.127,105.422,94.55z"/>
<path fill-rule="evenodd" clip-rule="evenodd" fill="#191919" d="M105.702,97.615c-0.166,0.577,0.345,1.831-0.28,1.951
	C105.588,98.989,105.077,97.735,105.702,97.615z"/>
<path fill-rule="evenodd" clip-rule="evenodd" fill="#191919" d="M102.913,98.451c-0.046,0.417,0.101,1.029-0.278,1.115
	C102.683,99.148,102.536,98.538,102.913,98.451z"/>
<path fill-rule="evenodd" clip-rule="evenodd" fill="#191919" d="M63.895,99.288c-0.181,1.305,0.364,3.338-0.279,4.18
	C63.796,102.162,63.251,100.132,63.895,99.288z"/>
<path fill-rule="evenodd" clip-rule="evenodd" fill="#191919" d="M61.107,102.075c-0.161,0.489,0.337,1.638-0.279,1.673
	C60.989,103.257,60.492,102.109,61.107,102.075z"/>
<path fill-rule="evenodd" clip-rule="evenodd" fill="#191919" d="M93.716,110.157c0.036-0.616,1.184-0.118,1.673-0.278
	C95.354,110.494,94.206,109.997,93.716,110.157z"/>
<path fill-rule="evenodd" clip-rule="evenodd" fill="#191919" d="M89.536,110.436c0.387-0.635,1.939-0.104,2.787-0.278
	C91.937,110.794,90.382,110.262,89.536,110.436z"/>
<path fill-rule="evenodd" clip-rule="evenodd" fill="#191919" d="M93.438,112.944c-0.047-0.604,0.989-0.126,1.394-0.278
	C94.878,113.271,93.842,112.792,93.438,112.944z"/>
<path fill-rule="evenodd" clip-rule="evenodd" fill="#191919" d="M78.666,113.223c3.811-0.649,8.825-0.093,13.101-0.278
	C87.956,113.595,82.941,113.038,78.666,113.223z"/>
<path fill-rule="evenodd" clip-rule="evenodd" fill="#191919" d="M53.582,116.011c6.132,0,12.263,0,18.395,0
	C66.495,116.475,59.064,116.475,53.582,116.011z"/>
<path fill-rule="evenodd" clip-rule="evenodd" fill="#191919" d="M53.582,118.797c6.132,0,12.263,0,18.395,0
	C66.495,119.262,59.064,119.262,53.582,118.797z"/>
<path fill-rule="evenodd" clip-rule="evenodd" fill="#191919" d="M4.25,4.805c0.44-0.675,0.997-1.233,1.672-1.672
	C5.482,3.807,4.925,4.365,4.25,4.805z"/>
<path fill-rule="evenodd" clip-rule="evenodd" fill="#191919" d="M2.856,6.477C3.108,5.985,3.48,5.614,3.972,5.362
	C3.72,5.853,3.348,6.225,2.856,6.477z"/>
<path fill-rule="evenodd" clip-rule="evenodd" fill="#191919" d="M15.956,50.513c1.34,0.548,0.836,4.374,0.836,7.247
	c0,2.587,0,5.229,0,7.246c-1.258-3.82,0.841-10.683-0.558-14.214C16.22,50.755,15.802,50.75,15.956,50.513z"/>
<path fill-rule="evenodd" clip-rule="evenodd" fill="#717171" d="M41.04,68.351c0.635,0.388,1.08,0.965,1.672,1.394
	c-0.735,0.341-1.001,2.097-1.672,2.229c-0.58,0.115-0.335-0.828-1.115-0.557c-0.016-1.316,0.973-1.628,1.393-2.509
	C41.266,68.683,41.039,68.63,41.04,68.351z"/>
<path fill-rule="evenodd" clip-rule="evenodd" fill="#191919" d="M60.271,77.27c0.186,0,0.371,0,0.557,0
	c0.642,4.097,0.1,9.377,0.279,13.936c-1.17-3.689,0.725-10.135-0.558-13.657C60.539,77.517,60.114,77.502,60.271,77.27z"/>
<path fill-rule="evenodd" clip-rule="evenodd" fill="#191919" d="M58.32,107.649c0.44-0.676,0.998-1.233,1.672-1.672
	C59.553,106.651,58.995,107.21,58.32,107.649z"/>
<path fill-rule="evenodd" clip-rule="evenodd" fill="#191919" d="M50.238,116.847c0.583,0.346,1.047,0.811,1.393,1.394
	C51.048,117.895,50.583,117.429,50.238,116.847z"/>
<path fill-rule="evenodd" clip-rule="evenodd" fill="#191919" d="M74.485,117.961c0.44-0.676,0.997-1.232,1.673-1.672
	C75.717,116.964,75.16,117.522,74.485,117.961z"/>
<path fill-rule="evenodd" clip-rule="evenodd" fill="#191919" d="M76.993,114.339c0.252-0.492,0.625-0.863,1.116-1.116
	C77.856,113.715,77.486,114.086,76.993,114.339z"/>
<path fill-rule="evenodd" clip-rule="evenodd" fill="#191919" d="M99.291,75.04c0.491,0.251,0.863,0.624,1.114,1.114
	C99.914,75.903,99.541,75.53,99.291,75.04z"/>
<path fill-rule="evenodd" clip-rule="evenodd" fill="#717171" d="M78.944,53.58c1.419-0.068,1.046-1.928,2.509-1.952
	c1.608,1.1-0.339,1.807-0.836,3.066C80.146,54.235,79.365,54.088,78.944,53.58z"/>
<path fill-rule="evenodd" clip-rule="evenodd" fill="#323232" d="M10.661,1.181c1.306-0.18,1.994-0.979,3.623-0.836
	c0.743,0,1.486,0,2.229,0c2.071,0.392,4.502,1.531,6.689,2.509c10.371,4.633,21.327,9.671,32.609,14.772
	c0.903,0.409,1.839,0.973,2.788,1.394c1.084,0.481,2.271,0.647,3.065,1.114c0.189,0.111,0.389,0.454,0.558,0.558
	c0.154,0.096,0.681,0.138,0.836,0.278c0.239,0.218,0.077,0.567,0.279,0.836c0.069,0.093,0.52,0.195,0.558,0.279
	c0.595,1.325,0.252,3.341,0.278,5.017c0.027,1.721,0.075,3.261,0,4.459c0,4.831,0,9.662,0,14.493
	c0.292,0.649-0.355,3.126,0.279,4.18c-1.037-0.635-2.112-1.233-3.344-1.672c0.093,0,0.186,0,0.278,0
	c0.465-7.525,0.465-17.001,0-24.527c-0.72-1.724-3.357-2.184-5.295-3.066c-1.811-0.824-3.733-1.669-5.574-2.508
	c-2.812-1.279-5.515-2.48-8.64-3.901c-7.987-3.634-16.901-7.737-25.363-11.427c-0.124-0.46-2.106-0.46-2.229,0
	c-1.389,0.283-2.375,0.969-4.181,0.836c-0.405,0.152-1.44-0.326-1.394,0.278C8.126,4.593,7.662,5.058,7.316,5.641
	C6.824,5.892,6.453,6.264,6.201,6.756C5.989,7.597,5.064,8.008,4.529,8.707C4.338,8.956,4.454,9.324,4.25,9.542
	c-0.296,0.318-1.265,1.31-1.394,2.23c-0.475,3.389,0,8.557,0,13.378c0,4.715-0.22,9.347,0.279,12.82
	c0.455,1.209,1.953,1.676,3.065,2.509c0.296,0.222,0.544,0.632,0.836,0.836c0.33,0.23,1.056,0.335,1.394,0.558
	c0.348,0.228,0.502,0.606,0.836,0.836c1.826,1.257,4.008,2.712,6.131,4.181c1.575,1.089,3.304,1.739,3.902,3.344
	c0,0.557,0,1.115,0,1.673c0,3.901,0,7.804,0,11.705c4.243-0.395,7.935,0.729,11.148-0.557c0.521-0.209,0.774-0.285,1.114-0.559
	c0.706-0.564,1.263-2.005,2.788-1.951c1.08,0.039,1.575,1.383,2.508,1.395c0.176,0.938-0.359,2.589,0.279,3.065
	c0.145,0.413,0.412,0.703,0.557,1.116c-0.983-0.783-2.199-1.332-3.065-2.23c-1.196,0.575-1.946,1.573-3.345,1.95
	c-0.707,0.191-1.357,0.146-2.23,0.28c-0.441,0.021-1.063-0.135-1.114,0.278c-0.743,0-1.487,0-2.23,0
	c0.046-0.458-1.718-0.458-1.672,0c-0.186,0-0.372,0-0.557,0c-0.663-0.463-3.239-0.463-3.902,0c-1.481,0.087-2.633-0.154-2.787-1.395
	c0-2.017,0-4.659,0-7.246c0-2.873,0.503-6.698-0.836-7.247c-0.45,0.097-0.792-0.355-1.115-0.558
	c-0.725-0.453-1.183-0.843-1.951-1.393c-1.404-1.007-3.373-2.213-5.017-3.345c-2.634-1.813-5.422-3.498-7.524-5.853
	c0-0.278,0-0.558,0-0.836c0-9.198,0-18.396,0-27.592c0.071-2.251,1.704-2.941,2.508-4.459C3.348,6.225,3.72,5.853,3.972,5.362
	C4.024,5.136,4.251,5.084,4.25,4.805c0.675-0.44,1.232-0.998,1.672-1.672c0.61-0.784,1.112-1.675,2.508-1.672
	C9.097,1.291,10.453,1.81,10.661,1.181z"/>
<path fill-rule="evenodd" clip-rule="evenodd" fill="#191919" d="M6.201,6.756c0.252-0.492,0.624-0.864,1.115-1.115
	C7.064,6.132,6.693,6.504,6.201,6.756z"/>
<path fill-rule="evenodd" clip-rule="evenodd" fill="#C9C9C9" d="M39.646,51.071c0,1.945,0,4.394,0,6.967
	c0,2.355-0.444,5.197,0.279,6.411c0.065,0.108,0.703-0.063,0.557,0.278c-1.689,0.044-1.115-3.849-1.115-6.689
	C39.368,55.153,39.162,52.511,39.646,51.071z"/>
<path fill-rule="evenodd" clip-rule="evenodd" fill="#C9C9C9" d="M78.666,56.923c-0.099-0.366-0.491-0.438-0.557-0.836
	c0.49,0.251,0.863,0.624,1.113,1.115C78.999,57.149,78.944,56.922,78.666,56.923z"/>
<path fill-rule="evenodd" clip-rule="evenodd" fill="#191919" d="M76.437,58.596c-0.343-0.121-0.573-0.356-0.558-0.836
	c0.225-0.053,0.276-0.28,0.558-0.279C76.113,57.894,76.113,58.184,76.437,58.596z"/>
<path fill-rule="evenodd" clip-rule="evenodd" fill="#717171" d="M78.666,56.923c-0.583,0.648-1.098,2.459-2.229,1.672
	c-0.323-0.412-0.323-0.702,0-1.115c0.248-0.588,0.85-0.824,0.835-1.672c0.225,0.147,0.453,0.291,0.838,0.279
	C78.175,56.485,78.567,56.558,78.666,56.923z"/>
<path fill-rule="evenodd" clip-rule="evenodd" fill="#717171" d="M65.845,70.58c0.65,0,1.301,0,1.951,0
	c0.165,1.475,0.174,2.521,0,3.902c2.603,0,5.202,0,7.805,0c0,0.093,0,0.186,0,0.279c-2.603,0-5.202,0-7.805,0
	c-0.038-0.459-1.913-0.459-1.951,0c-3.624-0.186-7.989,0.37-11.148-0.279c3.623,0,7.247,0,10.87,0
	C66.209,73.73,65.666,71.794,65.845,70.58z"/>
<path fill-rule="evenodd" clip-rule="evenodd" fill="#717171" d="M42.991,66.4c0.88-0.329,0.97-1.445,1.672-1.951
	c0.698-0.048,0.873,0.428,1.115,0.836c-0.19,1.017-1.057,1.358-1.394,2.229C43.966,67.098,43.211,67.017,42.991,66.4z"/>
<path fill-rule="evenodd" clip-rule="evenodd" fill="#191919" d="M60.271,109.6c0.439-0.675,0.997-1.232,1.672-1.672
	C61.503,108.603,60.946,109.161,60.271,109.6z"/>
<path fill-rule="evenodd" clip-rule="evenodd" fill="#191919" d="M74.764,112.666c0.347-0.583,0.812-1.048,1.395-1.394
	C75.812,111.855,75.347,112.32,74.764,112.666z"/>
<path fill-rule="evenodd" clip-rule="evenodd" fill="#323232" d="M51.91,45.775c-0.126-0.455,1.519-0.455,1.393,0
	C52.839,45.775,52.375,45.775,51.91,45.775z"/>
<path fill-rule="evenodd" clip-rule="evenodd" fill="#717171" d="M53.303,45.775c0.385,0.884-0.551,1.911,0,2.508
	c0.483,0.524,6.621-0.617,7.247,0.279c-2.508,0-5.017,0-7.525,0c0.199-0.452-1.314-0.452-1.114,0c-4.459,0-8.919,0-13.379,0
	c3.81-0.65,8.826-0.094,13.1-0.279c0.633-0.296,0.106-1.752,0.279-2.508C52.375,45.775,52.839,45.775,53.303,45.775z"/>
<path fill-rule="evenodd" clip-rule="evenodd" fill="#FFFFFF" d="M60.55,48.563c0.186,0,0.372,0,0.558,0
	c1.232,0.439,2.308,1.037,3.344,1.672c1.491,1.259,4.882,1.195,7.803,1.673c0.992,0.162,2.004,0.378,3.067,0.557
	c1.454,0.245,2.646,0.533,3.622,1.116c0.421,0.509,1.202,0.655,1.673,1.114c0.827,1.216,1.966,2.123,1.951,4.18
	c0,5.575,0,11.149,0,16.723c0.049,0.979-0.941,0.917-1.115,1.673c-0.558,0-1.114,0-1.671,0c-1.208,0-2.416,0-3.624,0
	c-2.695,0-5.39,0-8.083,0c-0.743,0-1.486,0-2.229,0c-0.093,0-0.185,0-0.278,0c-0.558,0-1.115,0-1.672,0c-0.093,0-0.186,0-0.279,0
	c-0.929,0-1.857,0-2.787,0c-0.186,0-0.371,0-0.557,0c-0.186,0-0.373,0-0.558,0c-1.394,0-2.787,0-4.181,0
	c-3.358,0.218-5.428-2.039-7.525-3.623c-1.847-1.395-3.664-2.598-5.295-3.902c-0.593-0.429-1.038-1.006-1.672-1.394
	c-1.376-0.482-2.107-1.608-3.345-2.229c-0.145-0.413-0.412-0.703-0.557-1.116c0-5.108,0-10.219,0-15.329
	c0.222-0.614,0.559-1.113,1.393-1.115c4.459,0,8.919,0,13.379,0c0.371,0,0.743,0,1.114,0C55.533,48.563,58.042,48.563,60.55,48.563z
	 M39.646,51.071c-0.484,1.44-0.279,4.082-0.279,6.967c0,2.841-0.574,6.733,1.115,6.689c1,0.395,1.582,1.206,2.508,1.673
	c0.22,0.616,0.975,0.697,1.394,1.113c1.5,0.931,2.948,2.205,4.459,3.345c1.737,1.312,3.799,3.11,5.853,3.624
	c3.16,0.649,7.525,0.094,11.148,0.279c0.65,0,1.301,0,1.951,0c2.603,0,5.202,0,7.805,0c1.398-0.182,3.524,0.364,4.46-0.279
	c-0.187-5.017,0.37-10.776-0.278-15.328c0.182-1.021-0.605-1.07-0.56-1.952c-0.25-0.491-0.623-0.864-1.113-1.115
	c-0.385,0.012-0.613-0.131-0.838-0.279c-3.556-1.04-6.549-1.178-9.754-1.672c-2.239-0.345-4.254-0.977-5.295-1.951
	c-1.683-1.574-5.451-1.054-8.919-1.115c-0.464,0-0.929,0-1.393,0c-0.093,0-0.186,0-0.279,0
	C47.636,51.071,43.642,51.071,39.646,51.071z"/>
<path fill-rule="evenodd" clip-rule="evenodd" fill="#717171" d="M82.568,75.597c0-5.573,0-11.147,0-16.723
	c0.649,4.646,0.093,10.498,0.278,15.608C82.823,74.924,82.981,75.546,82.568,75.597z"/>
<path fill-rule="evenodd" clip-rule="evenodd" fill="#323232" d="M79.782,74.482c0.092,0,0.184,0,0.278,0
	c-0.936,0.644-3.062,0.098-4.46,0.279c0-0.094,0-0.187,0-0.279C76.993,74.482,78.388,74.482,79.782,74.482z"/>
<path fill-rule="evenodd" clip-rule="evenodd" fill="#323232" d="M82.847,74.482c5.203,0,10.404,0,15.607,0
	c0.204,0.26,0.507,0.422,0.837,0.558c0.25,0.49,0.623,0.863,1.114,1.114c1.031,1.384,0.372,4.459,0.557,6.689
	c0.024,0.441-0.132,1.063,0.28,1.115c0.979,3.943,3.791,6.057,4.18,10.591c0.166,0.577-0.345,1.83,0.28,1.95
	c0,0.372,0,0.743,0,1.115c-0.625,0.12-0.114,1.374-0.28,1.951c-0.038,2.133-0.777,3.577-1.949,5.295
	c-0.291,0.426-0.754,0.678-1.116,1.116c-0.19,0.23-0.082,0.624-0.278,0.835c-0.093,0.099-0.495,0.177-0.558,0.278
	c-0.536,0.886-0.484,1.828-0.837,2.509c-0.827,1.604-2.741,3.412-5.853,3.066c-0.404,0.152-1.44-0.326-1.394,0.278
	c-0.558,0-1.114,0-1.671,0c-4.275,0.186-9.29-0.371-13.101,0.278c-0.187,0-0.371,0-0.557,0c-0.491,0.253-0.864,0.624-1.116,1.116
	c-0.072,0.856-0.603,1.253-0.835,1.95c-0.676,0.439-1.232,0.996-1.673,1.672c-0.417,0.326-1.141,0.348-1.393,0.836
	c-0.373,0-0.743,0-1.116,0c-6.131,0-12.263,0-18.395,0c-1,0.165-1.349-0.323-1.951-0.557c-0.346-0.583-0.811-1.048-1.393-1.394
	c-2.885-5.986,4.316-7.506,8.082-9.197c0.675-0.439,1.233-0.998,1.672-1.672c0.039-0.983,0.798-1.247,0.836-2.229
	c0.616-0.035,0.119-1.184,0.279-1.673c0-3.624,0-7.247,0-10.87c-0.18-4.559,0.362-9.839-0.279-13.936c0.93,0,1.858,0,2.787,0
	c0.186,5.296-0.371,11.333,0.279,16.166c0,1.95,0,3.901,0,5.853c-0.644,0.844-0.098,2.874-0.279,4.18
	c0.049,2.093-0.917,3.172-1.672,4.46c-0.675,0.439-1.233,0.997-1.672,1.672c-0.944,0.893-3.392,1.736-5.017,2.509
	c-1.488,0.708-2.777,0.849-2.787,2.23c-0.006,0.888,0.269,1.141,1.115,1.672c5.482,0.464,12.913,0.464,18.395,0
	c1.681-0.363,2.086-2.004,2.787-3.345c0.583-0.346,1.048-0.811,1.395-1.394c2.077-1.641,9.109-0.495,13.378-0.837
	c0.846-0.174,2.4,0.358,2.787-0.278c0.465,0,0.928,0,1.393,0c0.49-0.16,1.639,0.337,1.673-0.278
	c2.654,0.297,2.401-2.135,3.624-4.181c0.232-0.39,0.863-0.799,1.114-1.115c1.009-1.271,2.258-2.959,2.508-5.017
	c0.379-0.086,0.232-0.698,0.278-1.115c0-0.928,0-1.857,0-2.787c-0.021-0.441,0.135-1.063-0.278-1.114
	c-0.829-4.188-3.772-6.262-4.181-10.87c-0.152-0.405,0.326-1.44-0.279-1.394c-0.138-1.532,0.309-3.652-0.278-4.738
	c-4.93-0.644-11.051-0.097-16.443-0.278c0.174-0.756,1.164-0.694,1.115-1.673C82.981,75.546,82.823,74.924,82.847,74.482z"/>
<path fill-rule="evenodd" clip-rule="evenodd" fill="#717171" d="M65.845,77.27c0.743,0,1.486,0,2.229,0
	c-0.343,0.859-0.25,2.366-0.279,4.182c-0.65,0-1.3,0-1.951,0C65.845,80.057,65.845,78.663,65.845,77.27z"/>
<path fill-rule="evenodd" clip-rule="evenodd" fill="#191919" d="M79.782,59.154c0.648,4.552,0.092,10.312,0.278,15.328
	c-0.095,0-0.187,0-0.278,0C79.782,69.373,79.782,64.263,79.782,59.154z"/>
<path fill-rule="evenodd" clip-rule="evenodd" fill="#717171" d="M37.139,49.677c0,5.109,0,10.22,0,15.329
	c-0.638-0.477-0.103-2.128-0.279-3.065C37.045,57.944,36.488,53.208,37.139,49.677z"/>
</svg>
