<?xml version="1.0" encoding="utf-8"?>
<!-- Generator: Adobe Illustrator 15.0.0, SVG Export Plug-In  -->
<!DOCTYPE svg PUBLIC "-//W3C//DTD SVG 1.1//EN" "http://www.w3.org/Graphics/SVG/1.1/DTD/svg11.dtd" [
	<!ENTITY ns_flows "http://ns.adobe.com/Flows/1.0/">
]>
<svg version="1.1"
	 xmlns="http://www.w3.org/2000/svg" xmlns:xlink="http://www.w3.org/1999/xlink" xmlns:a="http://ns.adobe.com/AdobeSVGViewerExtensions/3.0/"
	 x="0px" y="0px" width="142px" height="142px" viewBox="0 -8.703 142 142" enable-background="new 0 -8.703 142 142"
	 xml:space="preserve">
<defs>
</defs>
<path fill-rule="evenodd" clip-rule="evenodd" fill="#191919" d="M13.936,6.47c0.17,0.016,0.33,0.042,0.279,0.278
	c-0.12,0.623-1.374,0.113-1.951,0.279c0-0.093,0-0.186,0-0.279C12.753,6.588,13.9,7.086,13.936,6.47z"/>
<path fill-rule="evenodd" clip-rule="evenodd" fill="#191919" d="M17.837,8.7c0.124-0.46,2.106-0.46,2.229,0
	C19.324,8.7,18.581,8.7,17.837,8.7z"/>
<path fill-rule="evenodd" clip-rule="evenodd" fill="#191919" d="M12.263,9.814c-0.047-0.604,0.989-0.126,1.394-0.278
	C13.704,10.14,12.668,9.662,12.263,9.814z"/>
<path fill-rule="evenodd" clip-rule="evenodd" fill="#747474" d="M27.871,13.438c0.372,0,0.743,0,1.115,0c0,0.929,0,1.858,0,2.787
	c-0.372,0-0.743,0-1.115,0C27.871,15.296,27.871,14.367,27.871,13.438z"/>
<path fill-rule="evenodd" clip-rule="evenodd" fill="#323232" d="M28.986,13.438c0.636,0.387,0.104,1.94,0.279,2.787
	c-0.093,0-0.186,0-0.279,0C28.986,15.296,28.986,14.367,28.986,13.438z"/>
<path fill-rule="evenodd" clip-rule="evenodd" fill="#747474" d="M39.577,15.667c0.452-0.2,0.452,1.314,0,1.115
	C39.577,16.411,39.577,16.039,39.577,15.667z"/>
<path fill-rule="evenodd" clip-rule="evenodd" fill="#B6B6B6" d="M22.854,18.733c0,0.093,0,0.186,0,0.279c0,2.044,0,4.088,0,6.131
	c-0.093,0-0.186,0-0.279,0C22.759,23.098,22.207,20.316,22.854,18.733z"/>
<path fill-rule="evenodd" clip-rule="evenodd" fill="#B6B6B6" d="M28.986,18.733c0.199,0.452-1.314,0.452-1.115,0
	C28.243,18.733,28.614,18.733,28.986,18.733z"/>
<path fill-rule="evenodd" clip-rule="evenodd" fill="#191919" d="M0,28.209c0-0.092,0-0.185,0-0.278c1.208,0,2.416,0,3.623,0
	C2.963,28.572,1.122,28.03,0,28.209z"/>
<path fill-rule="evenodd" clip-rule="evenodd" fill="#191919" d="M6.41,28.209c0-0.092,0-0.185,0-0.278
	c1.306,0.18,3.337-0.365,4.181,0.278C9.198,28.209,7.804,28.209,6.41,28.209z"/>
<path fill-rule="evenodd" clip-rule="evenodd" fill="#B6B6B6" d="M3.902,30.161c-0.459-0.038-0.459-1.914,0-1.952
	C3.902,28.86,3.902,29.51,3.902,30.161z"/>
<path fill-rule="evenodd" clip-rule="evenodd" fill="#747474" d="M6.41,28.209c1.394,0,2.788,0,4.181,0c0,0.651,0,1.301,0,1.952
	c-1.393,0-2.787,0-4.181,0C6.41,29.51,6.41,28.86,6.41,28.209z"/>
<path fill-rule="evenodd" clip-rule="evenodd" fill="#191919" d="M64.939,29.603c0.65,8.176,0.093,17.558,0.279,26.199
	C64.568,47.626,65.125,38.243,64.939,29.603z"/>
<path fill-rule="evenodd" clip-rule="evenodd" fill="#191919" d="M0,30.439c0-0.093,0-0.186,0-0.278
	c1.122,0.179,2.963-0.362,3.623,0.278C2.416,30.439,1.208,30.439,0,30.439z"/>
<path fill-rule="evenodd" clip-rule="evenodd" fill="#191919" d="M6.41,30.439c0-0.093,0-0.186,0-0.278c1.394,0,2.788,0,4.181,0
	C9.748,30.804,7.716,30.259,6.41,30.439z"/>
<path fill-rule="evenodd" clip-rule="evenodd" fill="#B6B6B6" d="M13.657,35.734c0.29,3.055,0.549,8.069,0.279,11.985
	c-0.002,0.038,0.303,1.106-0.279,0.836c0-1.857,0-3.716,0-5.574c0-0.465,0-0.929,0-1.394c0-0.093,0-0.186,0-0.279
	C13.657,39.451,13.657,37.593,13.657,35.734z"/>
<path fill-rule="evenodd" clip-rule="evenodd" fill="#191919" d="M67.727,36.571c0.465,4.646,0.465,11.24,0,15.887
	C67.727,47.162,67.727,41.866,67.727,36.571z"/>
<path fill-rule="evenodd" clip-rule="evenodd" fill="#191919" d="M10.87,41.588c0.387-0.636,1.94-0.104,2.787-0.279
	c0,0.093,0,0.186,0,0.279C12.728,41.588,11.798,41.588,10.87,41.588z"/>
<path fill-rule="evenodd" clip-rule="evenodd" fill="#191919" d="M22.854,55.802c0.457-0.046,0.457,1.718,0,1.673
	C22.854,56.917,22.854,56.359,22.854,55.802z"/>
<path fill-rule="evenodd" clip-rule="evenodd" fill="#191919" d="M83.336,64.441c0.41,0.053,0.254,0.675,0.278,1.115
	C83.201,65.505,83.357,64.883,83.336,64.441z"/>
<path fill-rule="evenodd" clip-rule="evenodd" fill="#191919" d="M86.122,64.441c0.649,4.646,0.093,10.498,0.278,15.608
	C85.752,75.404,86.307,69.553,86.122,64.441z"/>
<path fill-rule="evenodd" clip-rule="evenodd" fill="#191919" d="M23.133,71.968c-0.045-0.458,1.718-0.458,1.672,0
	C24.248,71.968,23.69,71.968,23.133,71.968z"/>
<path fill-rule="evenodd" clip-rule="evenodd" fill="#191919" d="M27.314,71.968c-0.046-0.458,1.718-0.458,1.672,0
	C28.428,71.968,27.871,71.968,27.314,71.968z"/>
<path fill-rule="evenodd" clip-rule="evenodd" fill="#191919" d="M31.495,71.968c0.051-0.413,0.673-0.257,1.114-0.278
	C32.558,72.101,31.936,71.943,31.495,71.968z"/>
<path fill-rule="evenodd" clip-rule="evenodd" fill="#191919" d="M58.529,80.05c1.954,0.184,4.642-0.368,6.132,0.279
	C62.707,80.146,60.02,80.696,58.529,80.05z"/>
<path fill-rule="evenodd" clip-rule="evenodd" fill="#191919" d="M67.169,82.837c0.65,4.831,0.094,10.869,0.279,16.166
	C66.798,94.17,67.355,88.133,67.169,82.837z"/>
<path fill-rule="evenodd" clip-rule="evenodd" fill="#191919" d="M101.729,87.854c0.605-0.047,0.127,0.988,0.279,1.394
	C101.404,89.294,101.881,88.258,101.729,87.854z"/>
<path fill-rule="evenodd" clip-rule="evenodd" fill="#191919" d="M104.516,88.411c0.415,0.052,0.257,0.674,0.28,1.115
	C104.384,89.475,104.54,88.853,104.516,88.411z"/>
<path fill-rule="evenodd" clip-rule="evenodd" fill="#191919" d="M106.188,100.117c0.413,0.052,0.257,0.673,0.278,1.114
	C106.055,101.181,106.213,100.559,106.188,100.117z"/>
<path fill-rule="evenodd" clip-rule="evenodd" fill="#191919" d="M108.976,100.396c0.616,0.035,0.118,1.183,0.28,1.672
	C108.639,102.032,109.138,100.886,108.976,100.396z"/>
<path fill-rule="evenodd" clip-rule="evenodd" fill="#191919" d="M109.256,103.183c-0.166,0.577,0.345,1.831-0.28,1.951
	C109.142,104.557,108.631,103.303,109.256,103.183z"/>
<path fill-rule="evenodd" clip-rule="evenodd" fill="#191919" d="M106.467,104.019c-0.046,0.417,0.101,1.029-0.278,1.115
	C106.236,104.716,106.09,104.105,106.467,104.019z"/>
<path fill-rule="evenodd" clip-rule="evenodd" fill="#191919" d="M67.448,104.855c-0.181,1.305,0.364,3.338-0.279,4.18
	C67.35,107.729,66.805,105.699,67.448,104.855z"/>
<path fill-rule="evenodd" clip-rule="evenodd" fill="#191919" d="M64.661,107.643c-0.161,0.489,0.337,1.638-0.279,1.673
	C64.542,108.824,64.045,107.677,64.661,107.643z"/>
<path fill-rule="evenodd" clip-rule="evenodd" fill="#191919" d="M97.27,115.725c0.036-0.616,1.184-0.118,1.673-0.278
	C98.908,116.062,97.76,115.564,97.27,115.725z"/>
<path fill-rule="evenodd" clip-rule="evenodd" fill="#191919" d="M93.09,116.003c0.387-0.635,1.939-0.104,2.787-0.278
	C95.49,116.361,93.936,115.829,93.09,116.003z"/>
<path fill-rule="evenodd" clip-rule="evenodd" fill="#191919" d="M96.991,118.512c-0.047-0.604,0.989-0.126,1.394-0.278
	C98.432,118.838,97.396,118.359,96.991,118.512z"/>
<path fill-rule="evenodd" clip-rule="evenodd" fill="#191919" d="M82.22,118.79c3.811-0.649,8.825-0.093,13.101-0.278
	C91.51,119.162,86.495,118.605,82.22,118.79z"/>
<path fill-rule="evenodd" clip-rule="evenodd" fill="#191919" d="M57.136,121.578c6.132,0,12.263,0,18.395,0
	C70.048,122.042,62.618,122.042,57.136,121.578z"/>
<path fill-rule="evenodd" clip-rule="evenodd" fill="#191919" d="M57.136,124.364c6.132,0,12.263,0,18.395,0
	C70.048,124.829,62.618,124.829,57.136,124.364z"/>
<path fill-rule="evenodd" clip-rule="evenodd" fill="#191919" d="M19.51,56.081c1.34,0.548,0.836,4.374,0.836,7.247
	c0,2.587,0,5.229,0,7.246c-1.258-3.82,0.841-10.683-0.558-14.214C19.774,56.322,19.355,56.318,19.51,56.081z"/>
<path fill-rule="evenodd" clip-rule="evenodd" fill="#191919" d="M64.104,82.837c0.013,0.101,0.544,0.22,0.558,0.278
	c0.83,3.709-0.618,9.416,0,13.657C63.832,92.771,64.931,86.841,64.104,82.837z"/>
<path fill-rule="evenodd" clip-rule="evenodd" fill="#191919" d="M61.874,113.217c0.44-0.676,0.998-1.233,1.672-1.672
	C63.106,112.219,62.549,112.777,61.874,113.217z"/>
<path fill-rule="evenodd" clip-rule="evenodd" fill="#191919" d="M53.792,122.414c0.583,0.346,1.047,0.811,1.393,1.394
	C54.602,123.462,54.137,122.996,53.792,122.414z"/>
<path fill-rule="evenodd" clip-rule="evenodd" fill="#191919" d="M78.039,123.528c0.44-0.676,0.997-1.232,1.673-1.672
	C79.271,122.531,78.714,123.09,78.039,123.528z"/>
<path fill-rule="evenodd" clip-rule="evenodd" fill="#191919" d="M80.547,119.906c0.252-0.492,0.625-0.863,1.116-1.116
	C81.41,119.282,81.04,119.653,80.547,119.906z"/>
<path fill-rule="evenodd" clip-rule="evenodd" fill="#191919" d="M102.845,80.607c0.491,0.251,0.863,0.624,1.114,1.114
	C103.468,81.471,103.095,81.098,102.845,80.607z"/>
<path fill-rule="evenodd" clip-rule="evenodd" fill="#191919" d="M67.727,55.245c0.377,0.273,0.558,0.744,0.836,1.114
	C68.155,56.117,67.68,55.942,67.727,55.245z"/>
<path fill-rule="evenodd" clip-rule="evenodd" fill="#191919" d="M22.575,5.634c0.675,0.44,1.233,0.997,1.672,1.672
	C23.573,6.866,23.015,6.309,22.575,5.634z"/>
<path fill-rule="evenodd" clip-rule="evenodd" fill="#747474" d="M18.116,2.568c0.722-0.393,1.287-0.943,1.951-1.393
	c0.785,0.051,1.188,0.485,1.115,1.393c-0.786,0.289-2.27,0.871-1.672,1.672C18.767,3.961,18.591,3.116,18.116,2.568z"/>
<path fill-rule="evenodd" clip-rule="evenodd" fill="#747474" d="M22.297,9.536c-0.385-0.823-1.287-1.128-1.672-1.951
	c0.86,0.626,1.604,1.37,2.23,2.229C22.53,9.86,22.358,9.753,22.297,9.536z"/>
<path fill-rule="evenodd" clip-rule="evenodd" fill="#323232" d="M17.001,5.634c1.032,0.825,2.176,1.54,3.623,1.951
	c0.385,0.823,1.287,1.128,1.672,1.951c-0.853-0.169-1.452-0.592-2.23-0.836c-0.124-0.46-2.106-0.46-2.229,0
	c-1.389,0.283-2.375,0.969-4.181,0.836c-0.405,0.152-1.44-0.326-1.394,0.278c-0.093,0-0.186,0-0.279,0
	c0.289-0.733,0.333-1.71,0.279-2.787c0.578-0.166,1.831,0.344,1.951-0.279C15.144,7.333,15.726,5.589,17.001,5.634z"/>
<path fill-rule="evenodd" clip-rule="evenodd" fill="#747474" d="M13.936,6.47c0.051-0.237-0.108-0.263-0.279-0.279
	c0.292-1.103,1.865-0.923,1.951-2.23c0.43,0.593,1.006,1.038,1.394,1.672c-1.275-0.045-1.858,1.699-2.787,1.115
	C14.265,6.512,14.105,6.486,13.936,6.47z"/>
<path fill-rule="evenodd" clip-rule="evenodd" fill="#323232" d="M39.577,15.667c0.013-0.849-0.588-1.084-0.836-1.672
	c2.64,1.008,5.417,2.361,8.361,3.624c0.282,0.121,0.627,0.464,0.836,0.557c0.561,0.25,1.322,0.275,1.951,0.558
	c0.606,0.272,1.036,0.835,1.672,1.115c0.676,0.296,1.282,0.257,1.951,0.557c0.271,0.122,0.505,0.416,0.836,0.558
	c2.007,0.86,4.127,1.748,6.411,2.787c0.917,0.418,2.343,1.003,3.623,1.672c0.929,0.485,1.745,0.774,2.509,1.672
	c1.395,1.639,0.671,6.168,0.836,9.476c0,5.295,0,10.591,0,15.887c0,0.929,0,1.858,0,2.787c-0.047,0.697,0.428,0.873,0.836,1.114
	c6.887,1.66,16.746,0.349,17.559,8.083c0.185,5.111-0.37,10.963,0.278,15.608c2.343,0,5.085,0,7.804,0
	c3.151,0,6.899-0.37,8.641,0.558c0.25,0.49,0.623,0.863,1.114,1.114c1.031,1.384,0.372,4.459,0.557,6.689
	c0.024,0.441-0.132,1.063,0.28,1.115c0.978,4.037,3.931,6.102,4.18,10.869c0.162,0.49-0.337,1.637,0.28,1.672
	c0,0.372,0,0.743,0,1.115c-0.625,0.12-0.114,1.374-0.28,1.951c-0.038,2.133-0.777,3.577-1.949,5.295
	c-0.291,0.426-0.754,0.678-1.116,1.116c-0.19,0.23-0.082,0.624-0.278,0.835c-0.093,0.099-0.495,0.177-0.558,0.278
	c-0.536,0.886-0.484,1.828-0.837,2.509c-0.827,1.604-2.741,3.412-5.853,3.066c-0.404,0.152-1.44-0.326-1.394,0.278
	c-0.558,0-1.114,0-1.671,0c-4.275,0.186-9.29-0.371-13.101,0.278c-0.187,0-0.371,0-0.557,0c-0.491,0.253-0.864,0.624-1.116,1.116
	c-0.072,0.856-0.603,1.253-0.835,1.95c-0.676,0.439-1.232,0.996-1.673,1.672c-0.417,0.326-1.141,0.348-1.393,0.836
	c-0.373,0-0.743,0-1.116,0c-6.131,0-12.263,0-18.395,0c-1,0.165-1.349-0.323-1.951-0.557c-0.346-0.583-0.811-1.048-1.393-1.394
	c-2.885-5.986,4.316-7.506,8.082-9.197c0.675-0.439,1.233-0.998,1.672-1.672c0.169-0.854,0.592-1.452,0.836-2.229
	c0.616-0.035,0.119-1.184,0.279-1.673c0-3.624,0-7.247,0-10.87c-0.618-4.241,0.83-9.948,0-13.657
	c-0.013-0.059-0.545-0.178-0.558-0.278c-3.245-0.029-6.615,0.371-8.64-0.836c-0.508-0.303-1.366-0.57-1.952-1.115
	c-0.122-0.113-0.152-0.462-0.278-0.557c-0.25-0.191-0.617-0.074-0.836-0.279c-2.651-2.468-6.643-4.992-9.755-7.247
	c-1.518-1.1-2.998-2.241-4.459-3.344c-1.196,0.575-1.946,1.573-3.345,1.95c-0.707,0.191-1.357,0.146-2.23,0.28
	c-0.441,0.021-1.063-0.135-1.114,0.278c-0.836,0-1.672,0-2.509,0c0.046-0.458-1.718-0.458-1.672,0c-0.836,0-1.673,0-2.509,0
	c0.046-0.458-1.718-0.458-1.672,0c-1.481,0.087-2.633-0.154-2.787-1.395c0-2.017,0-4.659,0-7.246c0-2.873,0.503-6.698-0.836-7.247
	c-2.523-1.378-4.775-3.029-6.968-4.738c1.663,0.176,2.695-0.277,3.345-1.115c1.052,0.913,2.338,1.624,3.623,2.508
	c1.237,0.852,2.783,1.616,3.345,3.066c0,0.557,0,1.115,0,1.673c0,3.809,0,7.617,0,11.427c4.083,0.178,8.088,0.945,11.148-0.278
	c0.474-0.189,0.858-0.33,1.114-0.559c1.176-1.044,1.638-2.602,3.902-1.393c0.3,0.16,0.331,0.385,0.557,0.558
	c0.238,0.183,0.548,0.096,0.836,0.278c0.979,0.62,1.883,1.503,2.508,1.951c3.708,2.656,5.548,3.878,8.919,6.41
	c0.954,0.716,1.958,1.661,3.065,2.508c0.238,0.183,0.548,0.097,0.836,0.279c0.685,0.435,1.252,1.489,2.787,1.394
	c1.49,0.646,4.178,0.096,6.132,0.279c0.582-0.118,0.738,0.19,1.115,0.278c0.251,0.49,0.624,0.863,1.115,1.114
	c0.216,0.248,0.3,0.63,0.278,1.115c0.186,5.296-0.371,11.333,0.279,16.166c0,1.95,0,3.901,0,5.853
	c-0.644,0.844-0.098,2.874-0.279,4.18c0.049,2.093-0.917,3.172-1.672,4.46c-0.675,0.439-1.233,0.997-1.672,1.672
	c-0.944,0.893-3.392,1.736-5.017,2.509c-1.488,0.708-2.777,0.849-2.787,2.23c-0.006,0.888,0.269,1.141,1.115,1.672
	c5.482,0.464,12.913,0.464,18.395,0c1.681-0.363,2.086-2.004,2.787-3.345c0.583-0.346,1.048-0.811,1.395-1.394
	c2.959-1.856,8.568-0.377,13.378-0.837c0.846-0.174,2.4,0.358,2.787-0.278c0.465,0,0.928,0,1.393,0
	c0.49-0.16,1.639,0.337,1.673-0.278c2.839,0.203,2.951-3.37,4.459-5.296c0.175-0.222,0.379-0.287,0.558-0.557
	c0.174-0.263,0.528-0.652,0.837-1.115c0.453-0.685,1.347-1.91,1.393-3.345c0.379-0.086,0.232-0.698,0.278-1.115
	c0-0.928,0-1.857,0-2.787c-0.021-0.441,0.135-1.063-0.278-1.114c-0.829-4.188-3.772-6.262-4.181-10.87
	c-0.152-0.405,0.326-1.44-0.279-1.394c-0.138-1.532,0.309-3.652-0.278-4.738c-2.446-0.5-5.64-0.278-8.639-0.278
	c-3.109,0-6.134,0.396-8.362-0.558c-1.454-1.672-0.835-4.713-0.835-7.804c0-2.949,0-6.186,0-8.919
	c-0.024-0.44,0.132-1.063-0.278-1.115c-0.617-3.649-4.864-3.453-9.198-4.18c-2.637-0.442-5.604-0.907-7.247-1.672
	c-0.252-0.491-0.624-0.862-1.115-1.114c-0.16-0.583-0.691-0.796-0.558-1.673c-0.186-8.641,0.371-18.023-0.279-26.199
	c-0.775-1.653-2.81-2.026-4.459-2.787c-3.537-1.632-7.525-3.263-11.428-5.017c-1.061-0.478-1.997-1.193-3.065-1.672
	c-0.602-0.271-1.394-0.291-1.951-0.558c-1.186-0.568-2.909-1.831-4.738-1.951c0.147-0.224,0.291-0.453,0.278-0.836
	C40.029,16.981,40.029,15.468,39.577,15.667z"/>
<path fill-rule="evenodd" clip-rule="evenodd" fill="#191919" d="M65.776,80.607c0.491,0.251,0.863,0.624,1.115,1.114
	C66.399,81.471,66.027,81.098,65.776,80.607z"/>
<path fill-rule="evenodd" clip-rule="evenodd" fill="#191919" d="M63.825,115.167c0.439-0.675,0.997-1.232,1.672-1.672
	C65.057,114.17,64.5,114.729,63.825,115.167z"/>
<path fill-rule="evenodd" clip-rule="evenodd" fill="#191919" d="M78.317,118.233c0.347-0.583,0.812-1.048,1.395-1.394
	C79.365,117.423,78.9,117.888,78.317,118.233z"/>
<path fill-rule="evenodd" clip-rule="evenodd" fill="#191919" d="M65.776,57.475c0.491,0.252,0.863,0.623,1.115,1.114
	C66.399,58.337,66.027,57.966,65.776,57.475z"/>
<path fill-rule="evenodd" clip-rule="evenodd" fill="#747474" d="M3.902,16.504c0,3.901,0,7.804,0,11.705
	c-0.459,0.038-0.459,1.914,0,1.952c0,4.087,0,8.176,0,12.263c-0.093,0-0.186,0-0.279,0c0-3.995,0-7.99,0-11.985
	c-0.66-0.641-2.501-0.1-3.623-0.278c0-0.651,0-1.301,0-1.952c1.122-0.179,2.963,0.363,3.623-0.278
	C3.809,24.214,3.252,19.756,3.902,16.504z"/>
<path fill-rule="evenodd" clip-rule="evenodd" fill="#747474" d="M22.854,19.012c0-0.093,0-0.186,0-0.279c1.672,0,3.345,0,5.017,0
	c-0.2,0.452,1.314,0.452,1.115,0c2.973,0,5.946,0,8.919,0c-2.324,0.648-5.852,0.094-8.64,0.279
	c-0.905,0.209,0.495,2.724-0.836,2.508c-1.13,0.108-0.307-1.737-0.557-2.508c-0.093,0-0.186,0-0.279,0
	C26.013,19.012,24.434,19.012,22.854,19.012z"/>
<path fill-rule="evenodd" clip-rule="evenodd" fill="#323232" d="M27.592,19.012c0.093,0,0.186,0,0.279,0
	c0.25,0.771-0.573,2.616,0.557,2.508c1.332,0.216-0.068-2.299,0.836-2.508c0,0.929,0,1.858,0,2.787c-0.557,0-1.115,0-1.672,0
	C27.592,20.87,27.592,19.941,27.592,19.012z"/>
<path fill-rule="evenodd" clip-rule="evenodd" fill="#747474" d="M13.099,2.847c-0.199-0.452,1.314-0.452,1.115,0
	C13.842,2.847,13.471,2.847,13.099,2.847z"/>
<path fill-rule="evenodd" clip-rule="evenodd" fill="#323232" d="M9.476,7.306c0.452-0.199,0.452,1.314,0,1.115
	C9.476,8.049,9.476,7.678,9.476,7.306z"/>
<path fill-rule="evenodd" clip-rule="evenodd" fill="#191919" d="M27.592,16.225c0.175-0.847-0.357-2.4,0.279-2.787
	c0,0.929,0,1.858,0,2.787C27.778,16.225,27.686,16.225,27.592,16.225z"/>
<path fill-rule="evenodd" clip-rule="evenodd" fill="#191919" d="M6.689,16.782c-0.047,0.417,0.1,1.029-0.279,1.115
	C6.434,17.456,6.276,16.834,6.689,16.782z"/>
<path fill-rule="evenodd" clip-rule="evenodd" fill="#747474" d="M22.575,27.373c0-0.743,0-1.486,0-2.229c0.093,0,0.186,0,0.279,0
	C22.685,25.81,23.204,27.166,22.575,27.373z"/>
<path fill-rule="evenodd" clip-rule="evenodd" fill="#747474" d="M13.657,35.178c0.182-1.583-0.367-3.897,0.279-5.017
	C13.753,31.744,14.302,34.058,13.657,35.178z"/>
<path fill-rule="evenodd" clip-rule="evenodd" fill="#747474" d="M13.657,42.981c-1.268-0.125-3.418,0.631-2.787-1.394
	c0.929,0,1.858,0,2.787,0C13.657,42.052,13.657,42.517,13.657,42.981z"/>
<path fill-rule="evenodd" clip-rule="evenodd" fill="#747474" d="M16.444,41.309c0.445,0.855,3.191-0.59,2.787,1.115
	c0.039,1.154-1.939,0.291-2.787,0.558C16.444,42.424,16.444,41.866,16.444,41.309z"/>
<path fill-rule="evenodd" clip-rule="evenodd" fill="#B6B6B6" d="M16.444,42.981c-0.184,2.139,0.369,5.013-0.278,6.688
	c0.185-6.039-0.372-12.819,0.278-18.395c0,3.345,0,6.689,0,10.034C16.444,41.866,16.444,42.424,16.444,42.981z"/>
<path fill-rule="evenodd" clip-rule="evenodd" fill="#FFFFFF" d="M9.476,7.306C7.868,3.99,9.619,0.474,12.821,0.06
	c2.407-0.313,4.009,0.606,5.295,2.508c0.475,0.548,0.651,1.393,1.394,1.672c1.215,0.271,2.007,0.966,3.065,1.394
	c0.44,0.675,0.998,1.232,1.672,1.672c4.702,2.359,9.75,4.372,14.493,6.689c0.248,0.588,0.849,0.824,0.836,1.672
	c0,0.372,0,0.743,0,1.115c0.012,0.384-0.131,0.612-0.278,0.836c-0.359,0.478-0.577,1.096-1.394,1.115c-2.973,0-5.946,0-8.919,0
	c-0.372,0-0.743,0-1.115,0c-1.672,0-3.344,0-5.017,0c-0.647,1.583-0.096,4.364-0.279,6.41c0,0.743,0,1.486,0,2.229
	c-0.503,1.541-1.501,2.586-3.623,2.509c-0.49,0.16-1.638-0.337-1.672,0.279c-0.736-0.085-0.719,0.582-0.836,1.115
	c-0.65,5.575-0.093,12.356-0.278,18.395c-0.063,0.217-0.008,0.55-0.279,0.558c-0.649,0.837-1.682,1.291-3.345,1.115
	c-2.536-1.923-7.704-4.153-8.64-7.246c0-0.558,0-1.115,0-1.672c0-4.087,0-8.176,0-12.263c0-0.651,0-1.301,0-1.952
	c0-3.901,0-7.804,0-11.705c0.924-3.628,3.714-5.39,5.574-8.083C9.928,8.621,9.928,7.107,9.476,7.306z M13.099,2.847
	c-1.673,0.177-1.647,2.757-0.836,3.902c0,0.093,0,0.186,0,0.279c0.055,1.077,0.01,2.054-0.279,2.787
	c-1.7,2.388-3.988,4.187-5.295,6.968c-0.413,0.052-0.255,0.674-0.279,1.115c0,3.345,0,6.689,0,10.034c0,0.093,0,0.186,0,0.278
	c0,0.651,0,1.301,0,1.952c0,0.092,0,0.186,0,0.278c0.436,4.333-0.597,9.095,0,12.263c0.35,1.854,2.408,2.447,3.344,3.345
	c0.234,0.224,0.6,0.33,0.836,0.558c0.879,0.842,1.979,1.486,3.066,1.951c0.582,0.271,0.276-0.798,0.279-0.836
	c0.271-3.916,0.011-8.93-0.279-11.985c0-0.185,0-0.371,0-0.557c0.645-1.12,0.097-3.434,0.279-5.017
	c0.136-1.815,1.379-2.523,3.066-2.788c0.666-0.169,2.022,0.35,2.229-0.278c0.28,0.001,0.332-0.226,0.558-0.278
	c-0.001-0.28,0.226-0.332,0.278-0.558c0.649-2.231,0.094-5.666,0.279-8.361c0.406-2.567,4.525-1.419,7.246-1.672
	c0.093,0,0.186,0,0.279,0c0.372,0,0.743,0,1.115,0c0.093,0,0.186,0,0.279,0c2.325-0.184,5.386,0.369,7.247-0.279
	c-4.642-1.954-9.16-4.032-13.657-6.131c-0.626-0.86-1.37-1.603-2.23-2.229c-1.447-0.411-2.591-1.126-3.623-1.951
	C16.614,5,16.037,4.554,15.607,3.961c-0.358-0.478-0.576-1.096-1.393-1.115C14.414,2.395,12.9,2.395,13.099,2.847z"/>
<path fill-rule="evenodd" clip-rule="evenodd" fill="#323232" d="M17.001,27.373c0.208-0.628,1.563-0.109,2.229-0.278
	C19.023,27.723,17.667,27.204,17.001,27.373z"/>
<path fill-rule="evenodd" clip-rule="evenodd" fill="#191919" d="M17.28,30.161c0.034-0.616,1.182-0.119,1.672-0.279
	C18.917,30.498,17.77,30,17.28,30.161z"/>
<path fill-rule="evenodd" clip-rule="evenodd" fill="#191919" d="M3.902,42.424c0,0.558,0,1.114,0,1.672
	c-0.616-0.035-0.119-1.183-0.279-1.672C3.716,42.424,3.809,42.424,3.902,42.424z"/>
<path fill-rule="evenodd" clip-rule="evenodd" fill="#B6B6B6" d="M20.346,17.897c-0.185,2.696,0.37,6.13-0.279,8.361
	C20.251,23.563,19.697,20.129,20.346,17.897z"/>
</svg>
