<?xml version="1.0" encoding="utf-8"?>
<!-- Generator: Adobe Illustrator 15.0.0, SVG Export Plug-In  -->
<!DOCTYPE svg PUBLIC "-//W3C//DTD SVG 1.1//EN" "http://www.w3.org/Graphics/SVG/1.1/DTD/svg11.dtd" [
	<!ENTITY ns_flows "http://ns.adobe.com/Flows/1.0/">
]>
<svg version="1.1"
	 xmlns="http://www.w3.org/2000/svg" xmlns:xlink="http://www.w3.org/1999/xlink" xmlns:a="http://ns.adobe.com/AdobeSVGViewerExtensions/3.0/"
	 x="0px" y="0px" width="142px" height="142px" viewBox="-3.554 -14.271 142 142" enable-background="new -3.554 -14.271 142 142"
	 xml:space="preserve">
<defs>
</defs>
<path fill-rule="evenodd" clip-rule="evenodd" fill="#1A1A1A" d="M14.563,0.344c0.038-0.458,1.913-0.458,1.951,0
	C15.863,0.344,15.213,0.344,14.563,0.344z"/>
<path fill-rule="evenodd" clip-rule="evenodd" fill="#1A1A1A" d="M8.431,1.459C8.639,0.83,9.994,1.35,10.661,1.18
	C10.453,1.809,9.097,1.29,8.431,1.459z"/>
<path fill-rule="evenodd" clip-rule="evenodd" fill="#1A1A1A" d="M14.284,3.131c0.124-0.46,2.106-0.46,2.229,0
	C15.77,3.131,15.027,3.131,14.284,3.131z"/>
<path fill-rule="evenodd" clip-rule="evenodd" fill="#1A1A1A" d="M8.709,4.246C8.663,3.642,9.698,4.12,10.103,3.968
	C10.15,4.572,9.114,4.094,8.709,4.246z"/>
<path fill-rule="evenodd" clip-rule="evenodd" fill="#1A1A1A" d="M0.349,10.936c0,9.197,0,18.395,0,27.592
	C-0.116,29.98-0.116,19.482,0.349,10.936z"/>
<path fill-rule="evenodd" clip-rule="evenodd" fill="#1A1A1A" d="M61.386,24.035c0.465,7.526,0.465,17.001,0,24.527
	C61.386,40.386,61.386,32.21,61.386,24.035z"/>
<path fill-rule="evenodd" clip-rule="evenodd" fill="#1A1A1A" d="M64.173,31.838c0.465,4.089,0.465,10.126,0,14.215
	C64.173,41.315,64.173,36.577,64.173,31.838z"/>
<path fill-rule="evenodd" clip-rule="evenodd" fill="#BDBDBD" d="M44.385,48.562c-0.2-0.452,1.314-0.452,1.114,0
	C45.127,48.562,44.756,48.562,44.385,48.562z"/>
<path fill-rule="evenodd" clip-rule="evenodd" fill="#1A1A1A" d="M19.301,50.233c0.457-0.046,0.457,1.718,0,1.673
	C19.301,51.349,19.301,50.791,19.301,50.233z"/>
<path fill-rule="evenodd" clip-rule="evenodd" fill="#737373" d="M36.859,50.791c0.464,3.532,0.464,9.01,0,12.542
	c0-0.465,0-0.929,0-1.394C36.859,58.224,36.859,54.507,36.859,50.791z"/>
<path fill-rule="evenodd" clip-rule="evenodd" fill="#333333" d="M44.106,51.07c0.093,0,0.186,0,0.279,0c0,0.929,0,1.858,0,2.787
	C43.749,53.47,44.281,51.917,44.106,51.07z"/>
<path fill-rule="evenodd" clip-rule="evenodd" fill="#737373" d="M44.385,51.07c0.372,0,0.743,0,1.114,0c0,0.929,0,1.858,0,2.787
	c-0.372,0-0.743,0-1.114,0C44.385,52.928,44.385,51.999,44.385,51.07z"/>
<path fill-rule="evenodd" clip-rule="evenodd" fill="#333333" d="M45.499,51.07c0.093,0,0.187,0,0.279,0
	c-0.175,0.847,0.356,2.4-0.279,2.787C45.499,52.928,45.499,51.999,45.499,51.07z"/>
<path fill-rule="evenodd" clip-rule="evenodd" fill="#1A1A1A" d="M19.858,66.399c-0.125-0.456,1.519-0.456,1.394,0
	C20.787,66.399,20.322,66.399,19.858,66.399z"/>
<path fill-rule="evenodd" clip-rule="evenodd" fill="#1A1A1A" d="M22.366,66.399c-0.199-0.453,1.314-0.453,1.115,0
	C23.109,66.399,22.738,66.399,22.366,66.399z"/>
<path fill-rule="evenodd" clip-rule="evenodd" fill="#1A1A1A" d="M24.039,66.399c0.39-0.462,2.676-0.462,3.066,0
	C26.083,66.399,25.061,66.399,24.039,66.399z"/>
<path fill-rule="evenodd" clip-rule="evenodd" fill="#1A1A1A" d="M27.941,66.399c0.051-0.413,0.673-0.257,1.114-0.278
	C28.969,66.498,28.357,66.352,27.941,66.399z"/>
<path fill-rule="evenodd" clip-rule="evenodd" fill="#333333" d="M93.438,71.694c0,0.929,0,1.858,0,2.787c-0.093,0-0.187,0-0.279,0
	C93.333,73.635,92.802,72.081,93.438,71.694z"/>
<path fill-rule="evenodd" clip-rule="evenodd" fill="#737373" d="M93.438,71.694c0.372,0,0.743,0,1.115,0c0,0.929,0,1.858,0,2.787
	c-0.372,0-0.743,0-1.115,0C93.438,73.553,93.438,72.623,93.438,71.694z"/>
<path fill-rule="evenodd" clip-rule="evenodd" fill="#333333" d="M94.553,71.694c0.636,0.387,0.104,1.94,0.278,2.787
	c-0.092,0-0.186,0-0.278,0C94.553,73.553,94.553,72.623,94.553,71.694z"/>
<path fill-rule="evenodd" clip-rule="evenodd" fill="#BDBDBD" d="M83.126,77.269c4.181-0.465,10.312-0.465,14.492,0
	c-0.93,0-1.857,0-2.787,0c-0.092,0-0.186,0-0.278,0c-0.372,0-0.743,0-1.115,0c-0.093,0-0.187,0-0.279,0
	C89.815,77.269,86.47,77.269,83.126,77.269z"/>
<path fill-rule="evenodd" clip-rule="evenodd" fill="#1A1A1A" d="M55.533,77.269c1.394,0,2.787,0,4.181,0
	C58.959,77.731,56.288,77.731,55.533,77.269z"/>
<path fill-rule="evenodd" clip-rule="evenodd" fill="#1A1A1A" d="M93.158,77.269c0.093,0,0.187,0,0.279,0c0,0.929,0,1.858,0,2.787
	C92.802,79.669,93.333,78.116,93.158,77.269z"/>
<path fill-rule="evenodd" clip-rule="evenodd" fill="#737373" d="M93.438,77.269c0.372,0,0.743,0,1.115,0c0,0.929,0,1.858,0,2.787
	c-0.372,0-0.743,0-1.115,0C93.438,79.127,93.438,78.197,93.438,77.269z"/>
<path fill-rule="evenodd" clip-rule="evenodd" fill="#333333" d="M94.553,77.269c0.093,0,0.187,0,0.278,0
	c-0.174,0.848,0.357,2.4-0.278,2.787C94.553,79.127,94.553,78.197,94.553,77.269z"/>
<path fill-rule="evenodd" clip-rule="evenodd" fill="#737373" d="M56.927,85.908c1.358-0.128,3.264,0.293,4.181-0.278
	c0,0.743,0,1.486,0,2.229c-0.093,0-0.186,0-0.279,0c-1.3,0-2.601,0-3.901,0C56.927,87.21,56.927,86.559,56.927,85.908z"/>
<path fill-rule="evenodd" clip-rule="evenodd" fill="#737373" d="M63.615,85.63c0.917,0.571,2.822,0.15,4.181,0.278
	c0,0.65,0,1.302,0,1.951c-1.3,0-2.601,0-3.901,0c-0.093,0-0.186,0-0.279,0C63.615,87.116,63.615,86.373,63.615,85.63z"/>
<path fill-rule="evenodd" clip-rule="evenodd" fill="#1A1A1A" d="M56.927,85.908c0,0.65,0,1.302,0,1.951
	C56.468,87.821,56.468,85.946,56.927,85.908z"/>
<path fill-rule="evenodd" clip-rule="evenodd" fill="#1A1A1A" d="M67.796,85.908c0.459,0.038,0.459,1.913,0,1.951
	C67.796,87.21,67.796,86.559,67.796,85.908z"/>
<path fill-rule="evenodd" clip-rule="evenodd" fill="#333333" d="M60.828,87.859c0.094,0,0.187,0,0.279,0c0,0.743,0,1.486,0,2.23
	c-0.093,0-0.186,0-0.279,0C60.828,89.346,60.828,88.603,60.828,87.859z"/>
<path fill-rule="evenodd" clip-rule="evenodd" fill="#333333" d="M63.615,87.859c0.093,0,0.186,0,0.279,0c0,0.929,0,1.858,0,2.787
	c-0.093,0-0.186,0-0.279,0C63.615,89.718,63.615,88.788,63.615,87.859z"/>
<path fill-rule="evenodd" clip-rule="evenodd" fill="#1A1A1A" d="M60.828,90.09c0.094,0,0.187,0,0.279,0c0,0.557,0,1.114,0,1.672
	C60.492,91.727,60.989,90.579,60.828,90.09z"/>
<path fill-rule="evenodd" clip-rule="evenodd" fill="#737373" d="M63.615,90.646c0.093,0,0.186,0,0.279,0c0,1.115,0,2.229,0,3.345
	c-0.093,0-0.186,0-0.279,0C63.615,92.876,63.615,91.762,63.615,90.646z"/>
<path fill-rule="evenodd" clip-rule="evenodd" fill="#BDBDBD" d="M61.107,93.154c0.463,1.308,0.463,4.547,0,5.854
	C61.107,97.058,61.107,95.106,61.107,93.154z"/>
<path fill-rule="evenodd" clip-rule="evenodd" fill="#BDBDBD" d="M102.913,96.499c0.453-0.199,0.453,1.315,0,1.115
	C102.913,97.242,102.913,96.871,102.913,96.499z"/>
<path fill-rule="evenodd" clip-rule="evenodd" fill="#737373" d="M63.615,100.122c0.153-0.404-0.325-1.44,0.279-1.393
	c0,0.465,0,0.928,0,1.393C63.801,100.122,63.708,100.122,63.615,100.122z"/>
<path fill-rule="evenodd" clip-rule="evenodd" fill="#737373" d="M63.337,102.631c0.023-0.44-0.134-1.063,0.278-1.114
	c0,0.371,0,0.743,0,1.114C63.523,102.631,63.43,102.631,63.337,102.631z"/>
<path fill-rule="evenodd" clip-rule="evenodd" fill="#1A1A1A" d="M78.944,110.435c-0.046-0.456,1.719-0.456,1.673,0
	C80.061,110.435,79.501,110.435,78.944,110.435z"/>
<path fill-rule="evenodd" clip-rule="evenodd" fill="#1A1A1A" d="M88.699,110.435c0.036-0.615,1.182-0.118,1.673-0.278
	c0,0.093,0,0.186,0,0.278C89.815,110.435,89.258,110.435,88.699,110.435z"/>
<path fill-rule="evenodd" clip-rule="evenodd" fill="#333333" d="M90.372,110.435c0-0.093,0-0.186,0-0.278c0.37,0,0.743,0,1.113,0
	c0,0.093,0,0.186,0,0.278C91.115,110.435,90.742,110.435,90.372,110.435z"/>
<path fill-rule="evenodd" clip-rule="evenodd" fill="#737373" d="M65.288,119.076c0-0.094,0-0.187,0-0.28c1.952,0,3.902,0,5.854,0
	c0,0.094,0,0.187,0,0.28C69.189,119.076,67.239,119.076,65.288,119.076z"/>
<path fill-rule="evenodd" clip-rule="evenodd" fill="#1A1A1A" d="M4.25,4.804c0.44-0.675,0.997-1.233,1.672-1.672
	C5.482,3.806,4.925,4.364,4.25,4.804z"/>
<path fill-rule="evenodd" clip-rule="evenodd" fill="#1A1A1A" d="M2.856,6.476C3.108,5.984,3.48,5.613,3.972,5.361
	C3.72,5.852,3.348,6.224,2.856,6.476z"/>
<path fill-rule="evenodd" clip-rule="evenodd" fill="#1A1A1A" d="M15.956,50.512c1.34,0.548,0.836,4.374,0.836,7.247
	c0,2.587,0,5.229,0,7.246c-1.258-3.82,0.841-10.683-0.558-14.214C16.22,50.754,15.802,50.75,15.956,50.512z"/>
<path fill-rule="evenodd" clip-rule="evenodd" fill="#1A1A1A" d="M60.271,77.269c0.278,0,0.557,0,0.836,0c0,1.765,0,3.53,0,5.295
	c-0.093,0-0.186,0-0.279,0C60.581,80.86,61.398,78.091,60.271,77.269z"/>
<path fill-rule="evenodd" clip-rule="evenodd" fill="#333333" d="M60.828,82.563c0.094,0,0.187,0,0.279,0c0,1.021,0,2.045,0,3.066
	c-0.917,0.571-2.823,0.15-4.181,0.278c0.66-0.64,2.501-0.099,3.623-0.278C61.188,85.153,60.652,83.502,60.828,82.563z"/>
<path fill-rule="evenodd" clip-rule="evenodd" fill="#737373" d="M74.764,117.682c0.252-0.491,0.625-0.862,1.115-1.115
	C75.627,117.059,75.256,117.43,74.764,117.682z"/>
<path fill-rule="evenodd" clip-rule="evenodd" fill="#737373" d="M77.552,113.779c2.89-1.662,8.625-0.479,12.82-0.836
	c0,0.093,0,0.187,0,0.278c-3.622,0-7.246,0-10.871,0c-0.576,0.428,1.211,2.496,0,2.788C77.604,116.513,78.52,114.204,77.552,113.779
	z"/>
<path fill-rule="evenodd" clip-rule="evenodd" fill="#737373" d="M82.568,58.873c0.503,2.016,0.278,4.822,0.278,7.805
	c0,2.794-0.5,6.262,0.279,7.804c0.038,0.074,0.484-0.058,0.557,0c-1.505,1.007-1.046-1.386-1.114-3.065
	C82.435,68.18,82.673,61.502,82.568,58.873z"/>
<path fill-rule="evenodd" clip-rule="evenodd" fill="#333333" d="M10.661,1.18c1.363-0.216,2.128-1.031,3.902-0.836
	c0.65,0,1.3,0,1.951,0c2.007,0.367,4.525,1.542,6.689,2.509c10.376,4.636,21.318,9.667,32.609,14.772
	c0.903,0.409,1.839,0.973,2.788,1.394c1.084,0.481,2.271,0.647,3.065,1.114c0.189,0.111,0.389,0.454,0.558,0.558
	c0.154,0.096,0.681,0.138,0.836,0.278c0.239,0.218,0.077,0.567,0.279,0.836c0.069,0.093,0.52,0.195,0.558,0.279
	c0.595,1.325,0.252,3.341,0.278,5.017c0.029,1.815,0.096,3.407,0,4.738c0,4.739,0,9.477,0,14.215
	c0.048,1.439-0.173,3.145,0.279,4.18c-0.906-0.766-2.189-1.156-3.344-1.672c0.093,0,0.186,0,0.278,0
	c0.465-7.525,0.465-17.001,0-24.527c-0.72-1.724-3.357-2.184-5.295-3.066c-1.811-0.824-3.733-1.669-5.574-2.508
	c-2.812-1.279-5.515-2.48-8.64-3.901c-7.987-3.634-16.901-7.737-25.363-11.427c-0.124-0.46-2.106-0.46-2.229,0
	c-1.389,0.283-2.375,0.969-4.181,0.836C9.698,4.12,8.663,3.642,8.709,4.246C8.126,4.592,7.662,5.057,7.316,5.64
	C6.824,5.891,6.453,6.263,6.201,6.755C5.989,7.596,5.064,8.007,4.529,8.706C4.338,8.955,4.454,9.323,4.25,9.542
	c-0.296,0.318-1.265,1.31-1.394,2.23c-0.475,3.389,0,8.557,0,13.378c0,4.715-0.22,9.347,0.279,12.82
	c0.455,1.209,1.953,1.676,3.065,2.509c0.296,0.222,0.544,0.632,0.836,0.836c0.33,0.23,1.056,0.335,1.394,0.558
	c0.348,0.228,0.502,0.606,0.836,0.836c1.826,1.257,4.008,2.712,6.131,4.181c1.575,1.089,3.304,1.739,3.902,3.344
	c0,0.557,0,1.115,0,1.673c0,3.901,0,7.804,0,11.705c4.243-0.395,7.935,0.729,11.148-0.557c0.521-0.209,0.774-0.285,1.114-0.559
	c0.706-0.564,1.263-2.005,2.788-1.951c1.08,0.039,1.575,1.383,2.508,1.395c0,0.465,0,0.929,0,1.394
	c0.179,1.028,0.449,1.966,0.836,2.788c-0.983-0.783-2.199-1.332-3.065-2.23c-1.196,0.575-1.946,1.573-3.345,1.95
	c-0.707,0.191-1.357,0.146-2.23,0.28c-0.441,0.021-1.063-0.135-1.114,0.278c-0.279,0-0.558,0-0.836,0
	c-0.39-0.462-2.676-0.462-3.066,0c-0.186,0-0.372,0-0.557,0c0.199-0.453-1.314-0.453-1.115,0c-0.372,0-0.743,0-1.115,0
	c0.125-0.456-1.519-0.456-1.394,0c-1.572,0.085-2.917-0.057-3.065-1.395c0-2.017,0-4.659,0-7.246c0-2.873,0.503-6.698-0.836-7.247
	c-0.45,0.097-0.792-0.355-1.115-0.558c-0.725-0.453-1.183-0.843-1.951-1.393c-1.404-1.007-3.373-2.213-5.017-3.345
	c-2.634-1.813-5.422-3.498-7.524-5.853c0-0.278,0-0.558,0-0.836c0-9.198,0-18.396,0-27.592c0.071-2.251,1.704-2.941,2.508-4.459
	C3.348,6.224,3.72,5.852,3.972,5.361C4.024,5.135,4.251,5.083,4.25,4.804c0.675-0.44,1.232-0.998,1.672-1.672
	c0.61-0.784,1.112-1.675,2.508-1.672C9.097,1.29,10.453,1.809,10.661,1.18z"/>
<path fill-rule="evenodd" clip-rule="evenodd" fill="#1A1A1A" d="M6.201,6.755C6.453,6.263,6.824,5.891,7.316,5.64
	C7.064,6.131,6.693,6.503,6.201,6.755z"/>
<path fill-rule="evenodd" clip-rule="evenodd" fill="#333333" d="M44.106,48.282c0.276-0.932-0.708-3.124,0.836-2.787
	c1.544-0.336,0.56,1.855,0.836,2.787c-0.822-1.099,0.256-2.157-0.558-2.508C43.718,45.125,44.874,47.363,44.106,48.282z"/>
<path fill-rule="evenodd" clip-rule="evenodd" fill="#737373" d="M44.106,48.282c0.768-0.919-0.388-3.157,1.115-2.508
	c0.813,0.351-0.265,1.409,0.558,2.508c4.831,0.186,10.404-0.371,14.771,0.279c-5.017,0-10.034,0-15.051,0
	c0.2-0.452-1.314-0.452-1.114,0c-1.951,0-3.902,0-5.854,0C39.836,47.915,42.337,48.465,44.106,48.282z"/>
<path fill-rule="evenodd" clip-rule="evenodd" fill="#FFFFFF" d="M36.859,50.791c0.066-1.234,0.611-1.99,1.672-2.229
	c1.951,0,3.902,0,5.854,0c0.372,0,0.743,0,1.114,0c5.017,0,10.034,0,15.051,0c0.186,0,0.372,0,0.558,0
	c1.155,0.516,2.438,0.906,3.344,1.672c1.541,1.104,5.873,1.51,8.641,1.951c1.193,0.19,2.508,0.275,3.622,0.558
	c3.001,0.76,5.449,2.512,5.854,6.131c0.104,2.629-0.134,9.307,0,12.543c0.068,1.68-0.391,4.072,1.114,3.065c0.278,0,0.557,0,0.837,0
	c4.087,0.649,9.383,0.094,13.935,0.279c1.25,0.237,1.993,0.979,2.229,2.229c0.183,1.676-0.367,4.083,0.278,5.295
	c0.475,5.101,3.995,7.155,4.46,12.264c0.17,0.666-0.349,2.021,0.28,2.23c0,0.092,0,0.185,0,0.278
	c-0.633,0.296-0.106,1.752-0.28,2.508c-0.145,2.539-1.286,4.473-2.787,6.411c-0.341,0.439-0.855,0.679-1.114,1.113
	c-0.781,1.309-1.033,2.588-1.673,3.624c-0.08,0.131-0.166,0.445-0.278,0.558c-0.223,0.222-0.57,0.079-0.837,0.278
	c-0.106,0.08-0.179,0.505-0.278,0.558c-0.974,0.51-2.152,0.574-3.344,0.558c-0.371,0-0.743,0-1.116,0
	c-0.489,0.16-1.637-0.337-1.671,0.278c-0.092,0-0.187,0-0.278,0c-0.56,0-1.116,0-1.673,0c-4.195,0.357-9.931-0.826-12.82,0.836
	c-0.789,0.698-0.885,2.089-1.673,2.787c-0.49,0.253-0.863,0.624-1.115,1.115c-0.684,0.524-1.362,1.053-2.509,1.114
	c-0.37,0-0.743,0-1.113,0c-1.952,0-3.902,0-5.854,0c-3.902,0-7.804,0-11.706,0c-3.239-0.105-4.25-3.014-3.902-5.295
	c0.365-2.394,2.748-3.266,5.295-4.459c2.846-1.335,5.221-2.394,5.574-5.854c0.378-0.086,0.231-0.698,0.278-1.114
	c-0.215-1.331,0.437-1.795,0.279-3.065c0.463-1.308,0.463-4.547,0-5.854c0-0.465,0-0.929,0-1.393c0-0.558,0-1.115,0-1.672
	c0-0.744,0-1.487,0-2.23s0-1.486,0-2.229c0-1.021,0-2.045,0-3.066c0-1.765,0-3.53,0-5.295c-0.279,0-0.558,0-0.836,0
	c-0.186,0-0.373,0-0.558,0c-1.394,0-2.787,0-4.181,0c-2.225,0.267-3.856-0.896-5.295-1.951c-0.413-0.303-0.816-0.34-1.116-0.557
	c-0.61-0.445-1.074-1.219-1.671-1.673c-0.374-0.283-0.757-0.295-1.115-0.558c-2.73-2.003-5.871-4.593-8.64-6.409
	c-0.387-0.822-0.657-1.76-0.836-2.788C37.324,59.801,37.324,54.323,36.859,50.791z M44.106,51.07c-1.487,0-2.973,0-4.459,0
	c0,4.273,0,8.546,0,12.821c2.146,1.946,4.675,3.401,7.247,5.295c1.889,1.391,4.292,3.667,6.131,4.738
	c0.525,0.306,1.22,0.461,1.672,0.558c1.953,0.647,5.108,0.095,7.525,0.279c0.527-0.063,0.615,0.313,1.115,0.278
	c-0.063,0.526,0.314,0.615,0.278,1.114c0,1.394,0,2.787,0,4.181c0,1.766,0,3.531,0,5.296c0,0.743,0,1.486,0,2.229
	c0,0.929,0,1.858,0,2.787c0,1.115,0,2.229,0,3.345c0.182,1.398-0.364,3.523,0.279,4.459c0,0.094,0,0.186,0,0.279
	c-0.604-0.048-0.126,0.988-0.279,1.393c0,0.465,0,0.93,0,1.395c-0.413,0.052-0.255,0.674-0.278,1.114
	c0.027,2.443-0.885,3.945-1.951,5.296c-0.491,0.251-0.863,0.624-1.114,1.115c-0.643,0.565-1.416,0.999-1.952,1.672
	c-1.482,1.236-6.82,1.477-5.853,4.459c0.091,0.282,0.515,0.606,1.115,0.837c1.583,0.646,4.364,0.095,6.41,0.278
	c3.81-0.185,8.361,0.37,11.706-0.278c0.278,0,0.557,0,0.835,0c1.907-1.346,2.048-4.458,4.46-5.296
	c0.854,0.202,0.819-0.481,1.673-0.279c0.092,0,0.187,0,0.278,0c0.557,0,1.116,0,1.673,0c2.694,0,5.388,0,8.082,0
	c0.559,0,1.116,0,1.673,0c0.37,0,0.743,0,1.113,0c0.579-0.165,1.832,0.345,1.952-0.278c0.094,0,0.186,0,0.278,0
	c0.49-0.16,1.639,0.337,1.673-0.278c2.831,0.411,2.921-3.436,3.902-4.459c0.499-0.521,0.724-0.897,1.114-1.394
	c1.208-1.533,2.69-3.877,2.508-6.411c0.453,0.2,0.453-1.314,0-1.115c-0.145-5.521-3.843-7.49-4.459-12.541
	c-0.183-1.954,0.368-4.642-0.279-6.133c0-0.092,0-0.185,0-0.278c-0.278,0.001-0.33-0.226-0.557-0.278
	c-4.181-0.465-10.312-0.465-14.492,0c-0.743,0-1.487,0-2.23,0c-0.184-0.838-1.071-0.973-0.835-2.229
	c-0.187-5.203,0.37-11.148-0.278-15.886c0.132-0.878-0.399-1.091-0.56-1.673c-0.122-0.806-0.587-1.271-1.392-1.394
	c-3.4-1.284-6.71-1.422-10.035-1.951c-0.96-0.153-2.952-0.305-3.623-0.557c-1.091-0.411-1.609-1.584-2.229-1.952
	c-0.297-0.176-0.958-0.157-1.394-0.278c-3.307-0.924-9.492,0.103-14.771-0.279c-0.093,0-0.186,0-0.279,0c-0.372,0-0.743,0-1.114,0
	C44.292,51.07,44.199,51.07,44.106,51.07z"/>
<path fill-rule="evenodd" clip-rule="evenodd" fill="#BDBDBD" d="M60.271,109.042c0.251-0.491,0.623-0.864,1.114-1.115
	C61.134,108.418,60.763,108.79,60.271,109.042z"/>
<path fill-rule="evenodd" clip-rule="evenodd" fill="#BDBDBD" d="M77.831,56.086c0.805,0.123,1.27,0.588,1.392,1.394
	C78.826,56.947,78.363,56.483,77.831,56.086z"/>
<path fill-rule="evenodd" clip-rule="evenodd" fill="#1A1A1A" d="M60.271,109.599c0.439-0.675,0.997-1.232,1.672-1.672
	C61.503,108.602,60.946,109.16,60.271,109.599z"/>
<path fill-rule="evenodd" clip-rule="evenodd" fill="#333333" d="M61.386,107.927c1.066-1.351,1.979-2.853,1.951-5.296
	c0.093,0,0.186,0,0.278,0c0,0.279,0,0.558,0,0.836c0.049,2.093-0.917,3.172-1.672,4.46c-0.675,0.439-1.233,0.997-1.672,1.672
	c-0.723,0.301-1.037,1.008-1.952,1.115c0.536-0.673,1.309-1.106,1.952-1.672C60.763,108.79,61.134,108.418,61.386,107.927z"/>
<path fill-rule="evenodd" clip-rule="evenodd" fill="#333333" d="M63.615,80.334c0.093,0,0.186,0,0.279,0
	c0.559,1.766-0.799,4.037,0,5.018c0.926,1.135,2.597-0.483,3.901,0.557c-1.358-0.128-3.264,0.293-4.181-0.278
	C63.615,83.865,63.615,82.1,63.615,80.334z"/>
<path fill-rule="evenodd" clip-rule="evenodd" fill="#737373" d="M54.697,74.481c2.417,0.184,5.572-0.369,7.525,0.279
	C59.805,74.576,56.65,75.129,54.697,74.481z"/>
<path fill-rule="evenodd" clip-rule="evenodd" fill="#BDBDBD" d="M94.831,74.481c1.122,0.179,2.964-0.362,3.623,0.279
	c-4.552-0.186-9.848,0.37-13.935-0.279c2.879,0,5.76,0,8.639,0c0.093,0,0.187,0,0.279,0c0.372,0,0.743,0,1.115,0
	C94.646,74.481,94.739,74.481,94.831,74.481z"/>
<path fill-rule="evenodd" clip-rule="evenodd" fill="#737373" d="M63.615,80.334c0-1.394,0-2.787,0-4.181
	c0.643,0.844,0.099,2.875,0.279,4.181C63.801,80.334,63.708,80.334,63.615,80.334z"/>
<path fill-rule="evenodd" clip-rule="evenodd" fill="#BDBDBD" d="M98.175,77.825c0.647,1.491,0.097,4.179,0.279,6.133
	C97.807,82.468,98.359,79.78,98.175,77.825z"/>
<path fill-rule="evenodd" clip-rule="evenodd" fill="#737373" d="M105.702,96.779c-0.629-0.209-0.11-1.564-0.28-2.23
	C106.051,94.757,105.531,96.111,105.702,96.779z"/>
<path fill-rule="evenodd" clip-rule="evenodd" fill="#BDBDBD" d="M63.895,98.45c-0.644-0.936-0.098-3.061-0.279-4.459
	c0.093,0,0.186,0,0.279,0C63.895,95.478,63.895,96.964,63.895,98.45z"/>
<path fill-rule="evenodd" clip-rule="evenodd" fill="#737373" d="M105.422,99.565c0.174-0.756-0.353-2.212,0.28-2.508
	C105.527,97.813,106.055,99.27,105.422,99.565z"/>
<path fill-rule="evenodd" clip-rule="evenodd" fill="#333333" d="M60.828,102.074c-0.047,0.416,0.1,1.028-0.278,1.114
	C60.573,102.747,60.416,102.126,60.828,102.074z"/>
<path fill-rule="evenodd" clip-rule="evenodd" fill="#333333" d="M93.716,110.156c0.036-0.616,1.184-0.118,1.673-0.278
	C95.354,110.493,94.206,109.996,93.716,110.156z"/>
<path fill-rule="evenodd" clip-rule="evenodd" fill="#BDBDBD" d="M92.323,112.943c0.034-0.615,1.182-0.118,1.671-0.278
	c0,0.093,0,0.187,0,0.278C93.438,112.943,92.88,112.943,92.323,112.943z"/>
<path fill-rule="evenodd" clip-rule="evenodd" fill="#1A1A1A" d="M93.994,112.665c0.373,0,0.745,0,1.116,0
	c-0.087,0.378-0.697,0.231-1.116,0.278C93.994,112.852,93.994,112.758,93.994,112.665z"/>
<path fill-rule="evenodd" clip-rule="evenodd" fill="#1A1A1A" d="M90.372,112.943c0.557,0,1.113,0,1.673,0
	c-0.036,0.616-1.183,0.119-1.673,0.278C90.372,113.13,90.372,113.036,90.372,112.943z"/>
<path fill-rule="evenodd" clip-rule="evenodd" fill="#333333" d="M53.582,116.01c2.137,0,4.273,0,6.41,0c0,0.093,0,0.186,0,0.278
	C57.946,116.104,55.165,116.656,53.582,116.01z"/>
<path fill-rule="evenodd" clip-rule="evenodd" fill="#1A1A1A" d="M59.992,116.01c3.902,0,7.804,0,11.706,0
	c-3.345,0.648-7.896,0.094-11.706,0.278C59.992,116.195,59.992,116.103,59.992,116.01z"/>
<path fill-rule="evenodd" clip-rule="evenodd" fill="#333333" d="M71.142,118.796c0.37,0,0.743,0,1.113,0
	c-0.086,0.379-0.697,0.231-1.113,0.28C71.142,118.982,71.142,118.89,71.142,118.796z"/>
<path fill-rule="evenodd" clip-rule="evenodd" fill="#1A1A1A" d="M79.782,59.153c0.648,4.737,0.092,10.683,0.278,15.886
	C79.409,70.3,79.966,64.354,79.782,59.153z"/>
<path fill-rule="evenodd" clip-rule="evenodd" fill="#1A1A1A" d="M63.615,101.517c0-0.465,0-0.93,0-1.395c0.093,0,0.186,0,0.279,0
	c-0.178,1.031,0.36,2.777-0.279,3.345c0-0.278,0-0.557,0-0.836C63.615,102.26,63.615,101.888,63.615,101.517z"/>
<path fill-rule="evenodd" clip-rule="evenodd" fill="#333333" d="M53.582,118.796c3.902,0,7.804,0,11.706,0c0,0.094,0,0.187,0,0.28
	C61.479,118.891,56.928,119.445,53.582,118.796z"/>
<path fill-rule="evenodd" clip-rule="evenodd" fill="#BDBDBD" d="M100.684,76.99c0.646,1.212,0.096,3.619,0.278,5.295
	C100.316,81.073,100.866,78.666,100.684,76.99z"/>
<path fill-rule="evenodd" clip-rule="evenodd" fill="#BDBDBD" d="M91.485,110.156c0.651,0,1.303,0,1.952,0
	c-0.12,0.623-1.373,0.113-1.952,0.278C91.485,110.342,91.485,110.249,91.485,110.156z"/>
<path fill-rule="evenodd" clip-rule="evenodd" fill="#737373" d="M76.993,110.714c-0.099-1.016-1.288-2.819,0.278-3.065
	c1.244,0.15,0.697,2.091,1.395,2.786C77.813,110.232,77.847,110.916,76.993,110.714z"/>
</svg>
