<?xml version="1.0" encoding="utf-8"?>
<!-- Generator: Adobe Illustrator 15.0.0, SVG Export Plug-In  -->
<!DOCTYPE svg PUBLIC "-//W3C//DTD SVG 1.1//EN" "http://www.w3.org/Graphics/SVG/1.1/DTD/svg11.dtd" [
	<!ENTITY ns_flows "http://ns.adobe.com/Flows/1.0/">
]>
<svg version="1.1"
	 xmlns="http://www.w3.org/2000/svg" xmlns:xlink="http://www.w3.org/1999/xlink" xmlns:a="http://ns.adobe.com/AdobeSVGViewerExtensions/3.0/"
	 x="0px" y="0px" width="142px" height="142px" viewBox="-3.394 -14.475 142 142" enable-background="new -3.394 -14.475 142 142"
	 xml:space="preserve">
<defs>
</defs>
<path fill-rule="evenodd" clip-rule="evenodd" fill="#6E6E6E" d="M34.232,7.666c0.527,0.124,1.679-0.378,1.394,0.558
	c0,0.743,0,1.486,0,2.229c-0.464,0-0.929,0-1.394,0C34.232,9.524,34.232,8.595,34.232,7.666z"/>
<path fill-rule="evenodd" clip-rule="evenodd" fill="#313131" d="M35.626,8.223c1.403,0.827,3.098,1.361,4.459,2.229
	c-0.743,0-1.487,0-2.23,0s-1.486,0-2.229,0C35.626,9.709,35.626,8.966,35.626,8.223z"/>
<path fill-rule="evenodd" clip-rule="evenodd" fill="#989898" d="M35.626,12.961c0.125,0.455-1.52,0.455-1.394,0
	C34.697,12.961,35.162,12.961,35.626,12.961z"/>
<path fill-rule="evenodd" clip-rule="evenodd" fill="#CFCFCF" d="M16.673,13.797c0.464,1.677,0.464,5.291,0,6.967
	C16.673,18.442,16.673,16.12,16.673,13.797z"/>
<path fill-rule="evenodd" clip-rule="evenodd" fill="#313131" d="M13.887,21.601c0.034-0.615,1.182-0.119,1.672-0.278
	C15.524,21.938,14.376,21.441,13.887,21.601z"/>
<path fill-rule="evenodd" clip-rule="evenodd" fill="#CFCFCF" d="M13.05,25.225c0,2.787,0,5.574,0,8.361c-0.093,0-0.186,0-0.278,0
	C12.956,30.891,12.402,27.456,13.05,25.225z"/>
<path fill-rule="evenodd" clip-rule="evenodd" fill="#989898" d="M12.772,33.586c0.093,0,0.185,0,0.278,0c0,3.251,0,6.503,0,9.755
	C12.401,40.645,12.956,36.746,12.772,33.586z"/>
<path fill-rule="evenodd" clip-rule="evenodd" fill="#313131" d="M29.215,48.358c1.49-0.647,4.178-0.096,6.132-0.279
	c0,0.093,0,0.186,0,0.279C33.303,48.358,31.26,48.358,29.215,48.358z"/>
<path fill-rule="evenodd" clip-rule="evenodd" fill="#CFCFCF" d="M18.625,48.358c1.672,0,3.345,0,5.017,0
	C22.612,48.821,19.655,48.821,18.625,48.358z"/>
<path fill-rule="evenodd" clip-rule="evenodd" fill="#6E6E6E" d="M21.412,51.145c0-0.093,0-0.186,0-0.279c1.951,0,3.902,0,5.853,0
	c0,0.093,0,0.186,0,0.279C25.314,51.145,23.362,51.145,21.412,51.145z"/>
<path fill-rule="evenodd" clip-rule="evenodd" fill="#313131" d="M27.265,51.145c0-0.093,0-0.186,0-0.279c1.858,0,3.716,0,5.574,0
	C31.534,51.512,29.033,50.962,27.265,51.145z"/>
<path fill-rule="evenodd" clip-rule="evenodd" fill="#6E6E6E" d="M37.02,50.866c0.649,3.16,0.094,7.524,0.279,11.148
	c-0.093,0-0.187,0-0.279,0c0-0.093,0-0.186,0-0.278C37.02,58.113,37.02,54.489,37.02,50.866z"/>
<path fill-rule="evenodd" clip-rule="evenodd" fill="#CFCFCF" d="M39.807,51.423c0,3.902,0,7.805,0,11.706c0,0.093,0,0.186,0,0.278
	C39.342,60.062,39.342,54.77,39.807,51.423z"/>
<path fill-rule="evenodd" clip-rule="evenodd" fill="#CFCFCF" d="M80.221,60.341c0.461,0.391,0.461,2.677,0,3.066
	C80.221,62.386,80.221,61.365,80.221,60.341z"/>
<path fill-rule="evenodd" clip-rule="evenodd" fill="#989898" d="M37.02,62.014c0.093,0,0.186,0,0.279,0c0,0.837,0,1.673,0,2.509
	c-0.218-0.062-0.325-0.233-0.279-0.558C37.02,63.315,37.02,62.665,37.02,62.014z"/>
<path fill-rule="evenodd" clip-rule="evenodd" fill="#313131" d="M77.432,68.146c0.387-0.635,1.941-0.104,2.789-0.278
	c0,0.093,0,0.185,0,0.278C79.291,68.146,78.361,68.146,77.432,68.146z"/>
<path fill-rule="evenodd" clip-rule="evenodd" fill="#6E6E6E" d="M77.432,68.146c0.93,0,1.859,0,2.789,0c0,0.371,0,0.743,0,1.115
	c-0.93,0-1.859,0-2.789,0C77.432,68.889,77.432,68.517,77.432,68.146z"/>
<path fill-rule="evenodd" clip-rule="evenodd" fill="#989898" d="M82.729,68.146c0.413,0.052,0.255,0.674,0.278,1.115
	c0,0.093,0,0.186,0,0.278c-0.092,0-0.186,0-0.278,0C82.729,69.076,82.729,68.611,82.729,68.146z"/>
<path fill-rule="evenodd" clip-rule="evenodd" fill="#313131" d="M77.432,69.261c0.93,0,1.859,0,2.789,0c0,0.093,0,0.186,0,0.278
	C79.373,69.365,77.818,69.897,77.432,69.261z"/>
<path fill-rule="evenodd" clip-rule="evenodd" fill="#6E6E6E" d="M82.729,69.54c0.093,0,0.187,0,0.278,0c0,1.579,0,3.159,0,4.738
	C82.362,73.25,82.909,71.031,82.729,69.54z"/>
<path fill-rule="evenodd" clip-rule="evenodd" fill="#313131" d="M60.71,77.065c1.154-0.039,0.291,1.939,0.558,2.787
	c0,1.114,0,2.229,0,3.345c0,2.229,0,4.459,0,6.689C60.439,86.254,61.536,80.699,60.71,77.065z"/>
<path fill-rule="evenodd" clip-rule="evenodd" fill="#313131" d="M98.057,77.065c1.021,0,2.044,0,3.065,0
	c-0.172,3.419,0.04,6.799,0.838,8.64c1.561,3.603,3.752,5.753,3.902,10.591c0.052,1.71-0.072,4.123-0.838,6.132
	c-0.467,1.227-1.528,2.11-2.229,3.066c-0.719,0.983-1.53,1.841-1.951,3.345c-1.021,0-2.044,0-3.065,0
	c0.865-1.784,1.354-3.102,2.229-4.182c0.866-1.066,2.068-2.201,2.509-3.344c0.585-1.515,0.715-4.688,0.557-6.132
	c-0.25-2.307-1.42-4.362-2.229-5.854c-0.477-0.881-1.028-1.602-1.393-2.508c-1.112-2.759-1.234-5.686-1.116-9.477
	C98.165,77.329,98.007,77.302,98.057,77.065z"/>
<path fill-rule="evenodd" clip-rule="evenodd" fill="#313131" d="M135.961,79.294c0.642,0.659,0.101,2.502,0.278,3.624
	c-0.092,0-0.184,0-0.278,0C135.961,81.709,135.961,80.502,135.961,79.294z"/>
<path fill-rule="evenodd" clip-rule="evenodd" fill="#313131" d="M63.775,80.41c0.093,0,0.186,0,0.279,0c0,2.787,0,5.574,0,8.361
	c-0.093,0-0.186,0-0.279,0C63.775,85.984,63.775,83.197,63.775,80.41z"/>
<path fill-rule="evenodd" clip-rule="evenodd" fill="#6E6E6E" d="M135.961,82.918c0.095,0,0.187,0,0.278,0c0,1.207,0,2.415,0,3.623
	c-0.092,0-0.184,0-0.278,0C135.961,85.333,135.961,84.125,135.961,82.918z"/>
<path fill-rule="evenodd" clip-rule="evenodd" fill="#CFCFCF" d="M133.453,84.869c0.641,0.568,0.103,2.314,0.278,3.346
	c-0.092,0-0.185,0-0.278,0C133.453,87.098,133.453,85.984,133.453,84.869z"/>
<path fill-rule="evenodd" clip-rule="evenodd" fill="#989898" d="M135.961,86.542c0.095,0,0.187,0,0.278,0c0,1.021,0,2.043,0,3.065
	c-0.092,0-0.184,0-0.278,0C135.961,88.584,135.961,87.563,135.961,86.542z"/>
<path fill-rule="evenodd" clip-rule="evenodd" fill="#989898" d="M133.453,88.214c0.094,0,0.187,0,0.278,0c0,1.113,0,2.229,0,3.344
	c-0.092,0-0.185,0-0.278,0C133.453,90.443,133.453,89.328,133.453,88.214z"/>
<path fill-rule="evenodd" clip-rule="evenodd" fill="#CFCFCF" d="M135.961,89.607c0.095,0,0.187,0,0.278,0c0,1.207,0,2.415,0,3.624
	C135.599,92.571,136.142,90.728,135.961,89.607z"/>
<path fill-rule="evenodd" clip-rule="evenodd" fill="#6E6E6E" d="M133.453,91.558c0.094,0,0.187,0,0.278,0c0,1.673,0,3.345,0,5.018
	c-0.092,0-0.185,0-0.278,0C133.453,94.903,133.453,93.231,133.453,91.558z"/>
<path fill-rule="evenodd" clip-rule="evenodd" fill="#313131" d="M133.453,96.576c0.094,0,0.187,0,0.278,0c0,1.856,0,3.715,0,5.573
	C133.086,100.844,133.638,98.343,133.453,96.576z"/>
<path fill-rule="evenodd" clip-rule="evenodd" fill="#313131" d="M136.239,99.362c0.647,1.306,0.097,3.806,0.281,5.574
	c-0.095,0-0.187,0-0.281,0C136.239,103.079,136.239,101.22,136.239,99.362z"/>
<path fill-rule="evenodd" clip-rule="evenodd" fill="#6E6E6E" d="M136.239,104.936c0.095,0,0.187,0,0.281,0c0,1.858,0,3.716,0,5.574
	c-0.095,0-0.187,0-0.281,0C136.239,108.652,136.239,106.794,136.239,104.936z"/>
<path fill-rule="evenodd" clip-rule="evenodd" fill="#313131" d="M117.287,106.886c0.646,0.844,0.099,2.875,0.281,4.182
	c-0.095,0-0.187,0-0.281,0C117.287,109.674,117.287,108.281,117.287,106.886z"/>
<path fill-rule="evenodd" clip-rule="evenodd" fill="#CFCFCF" d="M133.731,107.723c0.463,0.571,0.463,3.052,0,3.623
	c0-0.092,0-0.186,0-0.278C133.731,109.953,133.731,108.838,133.731,107.723z"/>
<path fill-rule="evenodd" clip-rule="evenodd" fill="#313131" d="M89.976,110.231c0.033-0.615,1.182-0.118,1.67-0.278
	c0,0.093,0,0.186,0,0.278C91.089,110.231,90.532,110.231,89.976,110.231z"/>
<path fill-rule="evenodd" clip-rule="evenodd" fill="#313131" d="M111.714,111.068c0-0.093,0-0.187,0-0.278c1.208,0,2.416,0,3.624,0
	c0,0.092,0,0.186,0,0.278C114.13,111.068,112.922,111.068,111.714,111.068z"/>
<path fill-rule="evenodd" clip-rule="evenodd" fill="#CFCFCF" d="M120.354,111.068c1.301,0,2.601,0,3.901,0c0,0.093,0,0.187,0,0.278
	C123.041,111.167,121.106,111.709,120.354,111.068z"/>
<path fill-rule="evenodd" clip-rule="evenodd" fill="#989898" d="M124.256,111.346c0-0.092,0-0.186,0-0.278c1.115,0,2.229,0,3.345,0
	c0,0.093,0,0.187,0,0.278C126.485,111.346,125.371,111.346,124.256,111.346z"/>
<path fill-rule="evenodd" clip-rule="evenodd" fill="#6E6E6E" d="M127.601,111.346c0-0.092,0-0.186,0-0.278c1.209,0,2.417,0,3.623,0
	c0,0.093,0,0.187,0,0.278C130.018,111.346,128.81,111.346,127.601,111.346z"/>
<path fill-rule="evenodd" clip-rule="evenodd" fill="#313131" d="M131.224,111.346c0-0.092,0-0.186,0-0.278c0.837,0,1.673,0,2.508,0
	c0,0.093,0,0.187,0,0.278C132.896,111.346,132.061,111.346,131.224,111.346z"/>
<path fill-rule="evenodd" clip-rule="evenodd" fill="#CFCFCF" d="M99.451,111.625c0.663-0.463,3.239-0.463,3.9,0
	C102.052,111.625,100.751,111.625,99.451,111.625z"/>
<path fill-rule="evenodd" clip-rule="evenodd" fill="#6E6E6E" d="M78.826,113.018c3.254-0.648,7.711-0.093,11.428-0.278
	c0,0.093,0,0.187,0,0.278C86.443,113.018,82.635,113.018,78.826,113.018z"/>
<path fill-rule="evenodd" clip-rule="evenodd" fill="#313131" d="M90.254,113.018c0-0.092,0-0.186,0-0.278c0.557,0,1.113,0,1.673,0
	C91.891,113.356,90.744,112.859,90.254,113.018z"/>
<path fill-rule="evenodd" clip-rule="evenodd" fill="#313131" d="M112.83,113.576c0.835,0,1.671,0,2.508,0c0,0.094,0,0.187,0,0.279
	C114.581,113.682,113.124,114.208,112.83,113.576z"/>
<path fill-rule="evenodd" clip-rule="evenodd" fill="#989898" d="M115.338,113.855c0-0.093,0-0.186,0-0.279c0.649,0,1.301,0,1.949,0
	C117.167,114.199,115.915,113.689,115.338,113.855z"/>
<path fill-rule="evenodd" clip-rule="evenodd" fill="#989898" d="M122.027,113.855c0-0.093,0-0.186,0-0.279c1.301,0,2.601,0,3.901,0
	c0,0.094,0,0.187,0,0.279C124.628,113.855,123.328,113.855,122.027,113.855z"/>
<path fill-rule="evenodd" clip-rule="evenodd" fill="#CFCFCF" d="M125.929,113.855c0-0.093,0-0.186,0-0.279
	c1.029,0.179,2.776-0.36,3.343,0.279C128.158,113.855,127.044,113.855,125.929,113.855z"/>
<path fill-rule="evenodd" clip-rule="evenodd" fill="#313131" d="M132.896,113.855c0.37,0,0.743,0,1.113,0
	C134.21,114.307,132.695,114.307,132.896,113.855z"/>
<path fill-rule="evenodd" clip-rule="evenodd" fill="#313131" d="M34.232,7.666c0,0.929,0,1.858,0,2.787c-0.279,0-0.558,0-0.836,0
	c0-0.092,0-0.186,0-0.279c-2.136-0.754-4.35-1.734-6.689-2.787c-2.603-1.171-5.64-2.656-8.64-3.902
	c-0.848-0.352-1.616-0.801-2.23-0.836c-2.225-0.125-4.058,1.622-6.689,1.115C6.736,5.811,4.892,8.426,3.017,11.01
	c0,8.918,0,17.838,0,26.756c2.038,2.143,4.896,3.466,7.247,5.295c-0.114,2.158,1.019,3.069,1.672,4.46
	c-1.538-0.983-2.923-1.964-4.459-3.066c-1.569-1.125-4.235-2.565-5.853-4.181C1.308,39.96,0.636,39.47,0.509,39.16
	c-0.53-1.284-0.279-4.214-0.279-6.968c0-2.373,0-4.877,0-6.968c0-5.181-0.516-10.2,0-14.214c0.222-1.727,2.371-3.713,3.345-5.295
	c0.822-1.337,2.966-3.319,4.181-4.459c3.488,0.113,6.163-1.774,9.198-1.115c2.609,0.567,5.488,2.317,8.361,3.624
	C28.572,5.245,31.421,6.393,34.232,7.666z"/>
<path fill-rule="evenodd" clip-rule="evenodd" fill="#313131" d="M16.673,50.587c0.672-0.114,0.606,0.509,1.394,0.279
	c-0.047,0.604,0.988,0.126,1.394,0.279c0,4.087,0,8.175,0,12.263c3.851-0.158,7.339,0.332,10.313-0.278
	c0.448-0.092,1.168-0.17,1.393-0.278c1.354-0.652,1.399-2.072,2.787-2.23c1.347-0.152,2.023,0.788,3.066,1.115
	c0,0.093,0,0.186,0,0.278c0,0.65,0,1.301,0,1.951c-0.366,0.285-1.027,0.272-1.394,0.558c-0.078-0.573-0.745-0.557-1.115-0.836
	c-0.856,1.152-2.029,1.458-4.181,1.95c-0.629,0.145-1.176,0.501-1.672,0.559c-1.951,0.224-4.233,0.022-6.41,0
	c-1.968-0.021-4.074,0.23-5.295-0.837C16.318,61.106,16.862,54.377,16.673,50.587z"/>
<path fill-rule="evenodd" clip-rule="evenodd" fill="#989898" d="M37.577,65.637c-0.053-0.225-0.28-0.277-0.278-0.557
	c0.491,0.252,0.862,0.623,1.114,1.115C38.047,66.096,37.975,65.705,37.577,65.637z"/>
<path fill-rule="evenodd" clip-rule="evenodd" fill="#313131" d="M115.338,114.413c0.203,1.801-0.897,4.122,1.949,3.344
	C114.647,119.522,114.711,115.653,115.338,114.413z"/>
<path fill-rule="evenodd" clip-rule="evenodd" fill="#6E6E6E" d="M115.338,113.855c0.577-0.166,1.829,0.344,1.949-0.279
	c1.581,0,3.16,0,4.74,0c0,0.094,0,0.187,0,0.279c-1.58,0-3.159,0-4.74,0c0,1.301,0,2.601,0,3.901
	c-2.847,0.778-1.746-1.543-1.949-3.344C115.338,114.226,115.338,114.041,115.338,113.855z"/>
<path fill-rule="evenodd" clip-rule="evenodd" fill="#313131" d="M83.007,69.261c0.771-0.251,2.617,0.572,2.509-0.558
	c0.216-1.331-2.3,0.068-2.509-0.836c0.946,0.076,2.261-0.216,2.787,0.278c0,0.465,0,0.93,0,1.394c-0.93,0-1.859,0-2.787,0
	C83.007,69.447,83.007,69.354,83.007,69.261z"/>
<path fill-rule="evenodd" clip-rule="evenodd" fill="#6E6E6E" d="M40.921,64.801c-0.478-0.358-1.096-0.576-1.115-1.394
	c0-0.093,0-0.186,0-0.278c0.917,0.005,2.383-1.191,2.787,0C42.958,64.609,41.041,63.806,40.921,64.801z"/>
<path fill-rule="evenodd" clip-rule="evenodd" fill="#6E6E6E" d="M24.478,13.24c0-0.093,0-0.186,0-0.279c3.251,0,6.503,0,9.755,0
	c-0.126,0.455,1.519,0.455,1.394,0c1.214,0.18,3.151-0.363,3.902,0.279c-1.208,0-2.416,0-3.623,0
	c-0.905,0.209,0.495,2.724-0.836,2.508c-0.279,0-0.558,0-0.836,0c0-0.836,0-1.672,0-2.508C30.981,13.24,27.729,13.24,24.478,13.24z"
	/>
<path fill-rule="evenodd" clip-rule="evenodd" fill="#313131" d="M34.232,15.749c0.279,0,0.558,0,0.836,0
	c1.331,0.216-0.069-2.299,0.836-2.508c-0.14,1.16,0.549,3.15-1.115,2.787C34.466,16.072,34.294,15.966,34.232,15.749z"/>
<path fill-rule="evenodd" clip-rule="evenodd" fill="#6E6E6E" d="M82.729,58.669c0.647,2.511,0.095,6.224,0.278,9.198
	c0.209,0.904,2.725-0.495,2.509,0.836c0.108,1.13-1.737,0.307-2.509,0.558c-0.023-0.441,0.135-1.063-0.278-1.115
	C82.729,64.988,82.729,61.829,82.729,58.669z"/>
<path fill-rule="evenodd" clip-rule="evenodd" fill="#CFCFCF" d="M40.085,10.453c0.324-0.045,0.496,0.062,0.557,0.279
	c-0.847-0.175-2.4,0.356-2.787-0.279C38.599,10.453,39.342,10.453,40.085,10.453z"/>
<path fill-rule="evenodd" clip-rule="evenodd" fill="#313131" d="M19.461,13.24c1.12-0.645,3.434-0.097,5.017-0.279
	c0,0.093,0,0.186,0,0.279C22.806,13.24,21.133,13.24,19.461,13.24z"/>
<path fill-rule="evenodd" clip-rule="evenodd" fill="#989898" d="M19.182,21.323c0.185-2.603-0.37-5.944,0.279-8.083
	C19.276,15.843,19.831,19.184,19.182,21.323z"/>
<path fill-rule="evenodd" clip-rule="evenodd" fill="#6E6E6E" d="M35.347,48.079c0.756,0.172,2.212-0.354,2.508,0.279
	c-0.836,0-1.672,0-2.508,0C35.347,48.265,35.347,48.172,35.347,48.079z"/>
<path fill-rule="evenodd" clip-rule="evenodd" fill="#6E6E6E" d="M61.546,23.831c0.65,8.176,0.093,17.558,0.279,26.199
	C61.175,41.854,61.731,32.471,61.546,23.831z"/>
<path fill-rule="evenodd" clip-rule="evenodd" fill="#6E6E6E" d="M71.858,51.703c0.44,0.023,1.063-0.134,1.116,0.278
	C72.531,51.958,71.91,52.115,71.858,51.703z"/>
<path fill-rule="evenodd" clip-rule="evenodd" fill="#6E6E6E" d="M73.531,51.981c0.44,0.023,1.062-0.134,1.114,0.278
	C74.204,52.236,73.583,52.394,73.531,51.981z"/>
<path fill-rule="evenodd" clip-rule="evenodd" fill="#6E6E6E" d="M75.202,52.259c0.442,0.023,1.063-0.134,1.116,0.279
	C75.877,52.515,75.254,52.672,75.202,52.259z"/>
<path fill-rule="evenodd" clip-rule="evenodd" fill="#6E6E6E" d="M65.448,53.375c0.441,0.022,1.063-0.134,1.115,0.278
	C66.122,53.63,65.5,53.787,65.448,53.375z"/>
<path fill-rule="evenodd" clip-rule="evenodd" fill="#6E6E6E" d="M75.761,55.046c0.441,0.024,1.063-0.134,1.114,0.279
	C76.435,55.302,75.813,55.459,75.761,55.046z"/>
<path fill-rule="evenodd" clip-rule="evenodd" fill="#6E6E6E" d="M37.299,65.081c-0.002,0.279,0.225,0.332,0.278,0.557
	c-1.178-0.063-1.8,0.43-2.787,0.559c-0.234-0.325-0.368-0.747-0.279-1.395c0.248-0.216,0.629-0.3,1.115-0.278
	c0.366-0.285,1.027-0.272,1.394-0.558c-0.045,0.324,0.061,0.496,0.279,0.558C37.299,64.709,37.299,64.894,37.299,65.081z"/>
<path fill-rule="evenodd" clip-rule="evenodd" fill="#989898" d="M83.007,74.278c17.001,0.186,34.745-0.371,51.283,0.279
	C117.287,74.371,99.543,74.927,83.007,74.278z"/>
<path fill-rule="evenodd" clip-rule="evenodd" fill="#313131" d="M133.453,77.065c0,1.394,0,2.787,0,4.182
	c-0.644-0.844-0.099-2.876-0.278-4.182C133.267,77.065,133.361,77.065,133.453,77.065z"/>
<path fill-rule="evenodd" clip-rule="evenodd" fill="#6E6E6E" d="M63.775,93.231c0-1.487,0-2.975,0-4.46c0.093,0,0.186,0,0.279,0
	c0,1.485,0,2.973,0,4.46C63.961,93.231,63.869,93.231,63.775,93.231z"/>
<path fill-rule="evenodd" clip-rule="evenodd" fill="#989898" d="M64.055,93.231c0,2.321,0,4.645,0,6.967
	c-0.648-1.768-0.095-4.735-0.279-6.967C63.869,93.231,63.961,93.231,64.055,93.231z"/>
<path fill-rule="evenodd" clip-rule="evenodd" fill="#313131" d="M61.268,101.034c0.567,0.27,0.602,1.071,0.557,1.951
	c0.023,0.441-0.134,1.063,0.279,1.115c-0.15,1.265,0.56,1.67,0.836,2.508c-0.093,0-0.186,0-0.278,0
	c-1.24,2.953-4.164,3.824-7.247,5.296c-1.18,0.563-3.375,0.825-2.787,3.065c0.977,1.489,3.313,1.092,5.574,1.115
	c2.029,0.021,4.33,0,6.41,0c4.21,0,9.398,0.739,10.034-2.787c0.825,0.195,1.214,0.831,2.508,0.558
	c0.272,0.536-0.271,0.82-0.557,1.393c-2.012,4.047-6.036,3.622-11.985,3.345c-4.832-0.224-10.385,0.657-12.542-0.278
	c-0.13-0.056-0.174-0.511-0.279-0.558c-0.127-0.058-0.454,0.088-0.557,0c-1.106-0.938-2.001-3.421-1.115-5.573
	c1.237-3.006,7.69-3.242,9.755-5.854c0.179-0.228,0.097-0.367,0.278-0.557C60.764,105.134,61.251,103.148,61.268,101.034z"/>
<path fill-rule="evenodd" clip-rule="evenodd" fill="#6E6E6E" d="M64.333,101.313c0.616,0.035,0.119,1.183,0.279,1.672
	C63.997,102.95,64.493,101.802,64.333,101.313z"/>
<path fill-rule="evenodd" clip-rule="evenodd" fill="#989898" d="M61.825,102.985c0.379,0.086,0.231,0.698,0.279,1.115
	C61.691,104.048,61.848,103.426,61.825,102.985z"/>
<path fill-rule="evenodd" clip-rule="evenodd" fill="#989898" d="M91.646,109.953c0.373,0,0.746,0,1.116,0
	c-0.086,0.378-0.697,0.231-1.116,0.278C91.646,110.138,91.646,110.045,91.646,109.953z"/>
<path fill-rule="evenodd" clip-rule="evenodd" fill="#6E6E6E" d="M115.338,111.068c0-0.093,0-0.187,0-0.278
	c0.034-0.519-0.046-1.47,0-2.23c0.038-0.653-0.378-1.82,0.558-1.673c0.465,0,0.93,0,1.392,0c0,1.395,0,2.788,0,4.182
	C116.639,111.068,115.987,111.068,115.338,111.068z"/>
<path fill-rule="evenodd" clip-rule="evenodd" fill="#989898" d="M136.239,112.183c0-0.559,0-1.115,0-1.673c0.095,0,0.187,0,0.281,0
	C136.36,111,136.856,112.148,136.239,112.183z"/>
<path fill-rule="evenodd" clip-rule="evenodd" fill="#6E6E6E" d="M93.04,112.74c0.12-0.623,1.375-0.112,1.951-0.278
	C94.871,113.084,93.617,112.575,93.04,112.74z"/>
<path fill-rule="evenodd" clip-rule="evenodd" fill="#CFCFCF" d="M106.697,113.297c0.577,0.166,1.831-0.345,1.951,0.278
	C108.072,113.41,106.817,113.92,106.697,113.297z"/>
<path fill-rule="evenodd" clip-rule="evenodd" fill="#FFFFFF" d="M16.673,13.797c-0.198-1.685,0.439-2.534,1.394-3.065
	c4.559-0.643,10.307-0.099,15.329-0.279c0.278,0,0.557,0,0.836,0c0.464,0,0.929,0,1.394,0c0.743,0,1.486,0,2.229,0
	c0.387,0.636,1.94,0.104,2.787,0.279c1.884,0.359,4.475,1.929,6.411,2.787c1.812,0.803,3.92,1.528,6.131,2.509
	c1.595,0.707,3.642,1.794,5.853,2.787c2.473,1.11,4.407,1.944,5.017,3.623c0.638,1.757,0.278,4.36,0.278,6.689
	c0,6.696-0.229,14.029,0.279,20.625c1.265,1.802,5.025,1.107,7.247,1.952c0.052,0.413,0.673,0.255,1.116,0.278
	c0.184,0,0.37,0,0.557,0c0.052,0.413,0.673,0.255,1.114,0.278c0.186,0,0.372,0,0.557,0c0.052,0.413,0.675,0.255,1.116,0.279
	c3.682,0.498,5.869,2.492,6.41,6.131c0,3.159,0,6.318,0,9.477c0,0.465,0,0.93,0,1.394c0.181,1.491-0.366,3.711,0.278,4.738
	c16.536,0.649,34.28,0.093,51.283,0.279c1.987,0.147,1.673,2.6,1.671,4.737c0,1.208,0,2.415,0,3.624c0,1.207,0,2.415,0,3.623
	c0,1.021,0,2.043,0,3.065c0.181,1.121-0.362,2.964,0.278,3.624c0,2.043,0,4.088,0,6.131c0,1.858,0,3.717,0,5.574
	c0,1.858,0,3.716,0,5.574c0,0.558,0,1.114,0,1.673c-0.32,0.979-0.831,1.769-2.229,1.672c-0.37,0-0.743,0-1.113,0
	c-1.208,0-2.417,0-3.625,0c-0.566-0.64-2.313-0.101-3.343-0.279c-1.301,0-2.601,0-3.901,0c-1.58,0-3.159,0-4.74,0
	c-0.648,0-1.3,0-1.949,0c-0.837,0-1.673,0-2.508,0c-1.395,0-2.789,0-4.182,0c-0.12-0.623-1.374-0.112-1.951-0.278
	c-1.506-0.165-2.262-1.083-3.346-1.673c-0.661-0.463-3.237-0.463-3.9,0c-1.563,0.203-2.376,1.156-4.46,0.837
	c-0.576,0.166-1.831-0.345-1.951,0.278c-0.37,0-0.743,0-1.113,0c-0.56,0-1.116,0-1.673,0c-3.717,0.186-8.174-0.37-11.428,0.278
	c-0.831,0.005-0.947,0.726-1.673,0.837c-1.294,0.273-1.683-0.362-2.508-0.558c0-0.093,0-0.187,0-0.279
	c-3.242-2.796-10.359-1.717-11.706-6.41c-0.276-0.838-0.986-1.243-0.836-2.508c-0.048-0.417,0.1-1.029-0.279-1.115
	c0.044-0.88,0.01-1.682-0.557-1.951c0-3.715,0-7.432,0-11.147c0-2.23,0-4.46,0-6.689c0-1.115,0-2.23,0-3.345
	c-0.267-0.848,0.597-2.826-0.558-2.787c-2.654-0.309-4.872,0.425-6.968,0c-1.476-0.3-2.903-1.591-4.18-2.508
	c-3.636-2.614-7.659-5.628-11.149-8.361c-0.252-0.492-0.623-0.863-1.114-1.115c0-0.187,0-0.371,0-0.558c0-0.836,0-1.672,0-2.509
	c-0.186-3.624,0.37-7.988-0.279-11.148c-1.394,0-2.787,0-4.181,0c-1.858,0-3.716,0-5.574,0c-1.951,0-3.902,0-5.853,0
	c-1.115,0-2.23,0-3.344,0c-0.788,0.23-0.722-0.393-1.394-0.279c-1.969-0.632-3.167-2.035-4.738-3.065
	c-0.653-1.391-1.786-2.302-1.672-4.46c0.65-5.667,0.093-12.541,0.279-18.673c0.179-1.864,1.435-2.654,3.345-2.788
	c0.489-0.16,1.637,0.337,1.672-0.278c0.45,0.079,0.48-0.263,0.836-0.278c-0.052-0.237,0.109-0.264,0.278-0.28
	C17.137,19.088,17.137,15.474,16.673,13.797z M19.461,13.24c-0.649,2.139-0.095,5.479-0.279,8.083
	c-0.134,2.838-3.206,2.739-5.853,3.066c0.012,0.383-0.131,0.612-0.279,0.836c-0.648,2.231-0.094,5.666-0.278,8.361
	c0.184,3.16-0.371,7.059,0.278,9.755c0,0.278,0,0.557,0,0.836c1.25,2.002,3.274,3.229,5.574,4.181c1.03,0.463,3.987,0.463,5.017,0
	c1.858,0,3.716,0,5.574,0c2.044,0,4.088,0,6.132,0c0.836,0,1.672,0,2.508,0c1.579,0.093,2.057,1.287,1.951,3.065
	c-0.464,3.346-0.464,8.639,0,11.984c0.019,0.817,0.637,1.035,1.115,1.394c1.208,0.58,2.307,1.464,3.345,2.229
	c1.151,0.852,2.217,1.678,3.345,2.509c1.164,0.858,2.532,2.018,3.623,2.509c0.086,0.038,0.182,0.488,0.278,0.557
	c0.974,0.699,2.33,1.495,3.345,1.673c1.861,0.647,4.922,0.095,7.247,0.279c0.922,0.285,1.643,0.771,1.672,1.95
	c0,1.301,0,2.602,0,3.902c0,2.787,0,5.574,0,8.361c0,1.485,0,2.973,0,4.46c0.184,2.231-0.369,5.199,0.279,6.967
	c0.087,0.377,0.396,0.532,0.278,1.115c0.16,0.489-0.336,1.637,0.279,1.672c0.443,2.396,1.296,3.789,3.066,4.46
	c1.715,0.65,4.497,1.086,5.854,1.672c1.41,0.611,2.132,1.127,3.065,1.951c0.45-0.921,1.557-0.739,2.508-0.837
	c3.161-0.322,7.559,0.243,10.871,0c0.557,0,1.113,0,1.67,0c0.419-0.047,1.03,0.1,1.116-0.278c1.689-0.262,3.654-0.248,5.017-0.836
	c2.044,0,4.087,0,6.133,0c1.675,0.09,2.279,1.251,3.622,1.673c0.843,0.643,2.875,0.098,4.181,0.278c1.208,0,2.416,0,3.624,0
	c0.649,0,1.301,0,1.949,0c0.095,0,0.187,0,0.281,0c0.927,0,1.856,0,2.786,0c0.752,0.642,2.687,0.1,3.901,0.278
	c1.115,0,2.229,0,3.345,0c1.209,0,2.417,0,3.623,0c0.837,0,1.673,0,2.508,0c0.463-0.571,0.463-3.052,0-3.623
	c0-1.858,0-3.717,0-5.574c0-1.858,0-3.717,0-5.573c0-1.673,0-3.345,0-5.018c0-1.115,0-2.23,0-3.344
	c-0.176-1.031,0.362-2.777-0.278-3.346c0-1.207,0-2.415,0-3.622c0-1.395,0-2.788,0-4.182c-16.723-0.65-34.653-0.093-51.84-0.278
	c-2.282-0.599-1.108-4.653-1.393-7.247c0-0.093,0-0.186,0-0.278c0-0.372,0-0.744,0-1.115c0-0.094,0-0.186,0-0.278
	c0-1.486,0-2.974,0-4.46c0.461-0.39,0.461-2.676,0-3.066c-0.108-2.679-1.366-4.208-3.346-5.016
	c-0.052-0.413-0.673-0.255-1.114-0.279c-3.255-0.276-6.219-0.842-9.198-1.393c-0.052-0.413-0.674-0.256-1.115-0.278
	c-2.148-0.175-3.344-1.301-3.623-3.345c-0.186-8.641,0.371-18.023-0.279-26.199c-0.066-0.216-0.141-0.411-0.278-0.558
	c-1.282-1.363-4.19-2.284-5.853-2.787c-0.1-0.03-0.423-0.496-0.558-0.558c-1.704-0.781-3.461-1.48-5.017-1.951
	c-0.101-0.03-0.423-0.496-0.558-0.557c-3.287-1.507-6.793-2.842-9.754-4.181c-0.751-0.642-2.688-0.099-3.902-0.279
	c-0.464,0-0.929,0-1.394,0c-3.251,0-6.503,0-9.755,0C22.895,13.144,20.581,12.595,19.461,13.24z"/>
<path fill-rule="evenodd" clip-rule="evenodd" fill="#989898" d="M10.542,24.389c-0.186,6.132,0.371,13.006-0.279,18.673
	C10.449,36.93,9.892,30.056,10.542,24.389z"/>
<path fill-rule="evenodd" clip-rule="evenodd" fill="#989898" d="M18.067,50.866c1.114,0,2.229,0,3.344,0c0,0.093,0,0.186,0,0.279
	c-0.65,0-1.301,0-1.951,0C19.056,50.992,18.021,51.471,18.067,50.866z"/>
<path fill-rule="evenodd" clip-rule="evenodd" fill="#6E6E6E" d="M54.857,74.278c2.324,0.184,5.386-0.369,7.247,0.279
	C59.779,74.373,56.718,74.925,54.857,74.278z"/>
<path fill-rule="evenodd" clip-rule="evenodd" fill="#989898" d="M97.778,108.838c1.021,0,2.044,0,3.065,0
	c0.939,0.176,2.588-0.359,3.067,0.278c-2.046,0-4.089,0-6.133,0C97.778,109.024,97.778,108.931,97.778,108.838z"/>
<path fill-rule="evenodd" clip-rule="evenodd" fill="#6E6E6E" d="M107.533,110.79c1.395,0,2.786,0,4.181,0c0,0.092,0,0.186,0,0.278
	C110.408,110.887,108.376,111.432,107.533,110.79z"/>
<path fill-rule="evenodd" clip-rule="evenodd" fill="#CFCFCF" d="M81.613,76.787c17.187,0.186,35.117-0.372,51.84,0.278
	c-0.092,0-0.187,0-0.278,0c-10.685,0-21.368,0-32.053,0c-1.021,0-2.044,0-3.065,0C92.668,76.879,86.537,77.436,81.613,76.787z"/>
<path fill-rule="evenodd" clip-rule="evenodd" fill="#6E6E6E" d="M63.775,76.507c0.643,0.751,0.1,2.688,0.279,3.902
	c-0.093,0-0.186,0-0.279,0C63.775,79.109,63.775,77.808,63.775,76.507z"/>
</svg>
