<?xml version="1.0" encoding="utf-8"?>
<!-- Generator: Adobe Illustrator 15.0.0, SVG Export Plug-In  -->
<!DOCTYPE svg PUBLIC "-//W3C//DTD SVG 1.1//EN" "http://www.w3.org/Graphics/SVG/1.1/DTD/svg11.dtd" [
	<!ENTITY ns_flows "http://ns.adobe.com/Flows/1.0/">
]>
<svg version="1.1"
	 xmlns="http://www.w3.org/2000/svg" xmlns:xlink="http://www.w3.org/1999/xlink" xmlns:a="http://ns.adobe.com/AdobeSVGViewerExtensions/3.0/"
	 x="0px" y="0px" width="142px" height="142px" viewBox="-2.748 -24.036 142 142" enable-background="new -2.748 -24.036 142 142"
	 xml:space="preserve">
<defs>
</defs>
<path fill-rule="evenodd" clip-rule="evenodd" fill="#202020" d="M127.689,0.334c0,1.301,0,2.601,0,3.902c-0.094,0-0.187,0-0.278,0
	C127.59,3.023,127.047,1.085,127.689,0.334z"/>
<path fill-rule="evenodd" clip-rule="evenodd" fill="#818181" d="M127.689,0.334c0.649,0,1.301,0,1.949,0c0,1.301,0,2.601,0,3.902
	c0,0.093,0,0.186,0,0.279c-0.648,0-1.3,0-1.949,0c0-0.093,0-0.187,0-0.279C127.689,2.936,127.689,1.635,127.689,0.334z"/>
<path fill-rule="evenodd" clip-rule="evenodd" fill="#0D0D0D" d="M67.208,4.516c-0.2-0.453,1.314-0.453,1.115,0
	C67.952,4.516,67.58,4.516,67.208,4.516z"/>
<path fill-rule="evenodd" clip-rule="evenodd" fill="#0D0D0D" d="M71.109,4.516c13.936-0.651,29.079-0.093,43.48-0.279
	c0,0.093,0,0.186,0,0.279c-0.187,0-0.371,0-0.558,0C99.724,4.516,85.418,4.516,71.109,4.516z"/>
<path fill-rule="evenodd" clip-rule="evenodd" fill="#202020" d="M114.59,4.516c0-0.093,0-0.187,0-0.279c0.557,0,1.113,0,1.672,0
	c0,0.093,0,0.186,0,0.279C115.703,4.516,115.146,4.516,114.59,4.516z"/>
<path fill-rule="evenodd" clip-rule="evenodd" fill="#323232" d="M116.262,4.516c0-0.093,0-0.187,0-0.279c3.717,0,7.434,0,11.149,0
	c0.092,0,0.185,0,0.278,0c0,0.093,0,0.186,0,0.279C123.879,4.516,120.07,4.516,116.262,4.516z"/>
<path fill-rule="evenodd" clip-rule="evenodd" fill="#0D0D0D" d="M58.011,4.794C57.964,4.189,59,4.667,59.405,4.516
	c0,0.092,0,0.185,0,0.278C58.94,4.794,58.475,4.794,58.011,4.794z"/>
<path fill-rule="evenodd" clip-rule="evenodd" fill="#202020" d="M59.405,4.794c0-0.093,0-0.186,0-0.278c0.65,0,1.3,0,1.951,0
	C61.236,5.139,59.982,4.628,59.405,4.794z"/>
<path fill-rule="evenodd" clip-rule="evenodd" fill="#0D0D0D" d="M53.552,5.072c0.12-0.623,1.373-0.113,1.951-0.278
	c0,0.093,0,0.186,0,0.278C54.853,5.072,54.202,5.072,53.552,5.072z"/>
<path fill-rule="evenodd" clip-rule="evenodd" fill="#202020" d="M55.502,5.072c0-0.092,0-0.186,0-0.278c0.464,0,0.929,0,1.394,0
	C56.943,5.398,55.908,4.92,55.502,5.072z"/>
<path fill-rule="evenodd" clip-rule="evenodd" fill="#818181" d="M104.278,7.024c0,0.092,0,0.185,0,0.278c0,0.372,0,0.743,0,1.115
	c0,0.093,0,0.186,0,0.278c-0.465,0-0.93,0-1.395,0c0-0.464,0-0.928,0-1.393c0-0.464,0-0.929,0-1.394c0.465,0,0.93,0,1.395,0
	C104.278,6.28,104.278,6.651,104.278,7.024z"/>
<path fill-rule="evenodd" clip-rule="evenodd" fill="#818181" d="M112.638,6.188c-0.172,0.756,0.354,2.211-0.278,2.508
	c0-0.092,0-0.185,0-0.278c0-0.372,0-0.743,0-1.115c0-0.093,0-0.186,0-0.278C112.403,6.696,112.312,6.232,112.638,6.188z"/>
<path fill-rule="evenodd" clip-rule="evenodd" fill="#202020" d="M63.307,7.302c12.449-0.464,26.85-0.464,39.299,0
	C89.505,7.302,76.406,7.302,63.307,7.302z"/>
<path fill-rule="evenodd" clip-rule="evenodd" fill="#202020" d="M104.278,7.302c0-0.093,0-0.186,0-0.278c2.692,0,5.387,0,8.081,0
	c0,0.092,0,0.185,0,0.278C109.665,7.302,106.971,7.302,104.278,7.302z"/>
<path fill-rule="evenodd" clip-rule="evenodd" fill="#818181" d="M127.411,7.581c0.217-0.062,0.322-0.233,0.278-0.557
	c0.649,0,1.301,0,1.949,0c0,0.278,0,0.557,0,0.836c-1.029-0.178-2.774,0.361-3.344-0.279C126.666,7.581,127.038,7.581,127.411,7.581
	z"/>
<path fill-rule="evenodd" clip-rule="evenodd" fill="#818181" d="M129.917,7.86c0.11-0.398,0.335-0.471,0-0.836
	c0.56,0,1.116,0,1.673,0c-0.014,0.356-0.356,0.386-0.278,0.836C130.847,7.86,130.384,7.86,129.917,7.86z"/>
<path fill-rule="evenodd" clip-rule="evenodd" fill="#818181" d="M133.263,7.302c0-0.093,0-0.186,0-0.278
	c0.441,0.023,1.064-0.134,1.114,0.278C134.007,7.302,133.634,7.302,133.263,7.302z"/>
<path fill-rule="evenodd" clip-rule="evenodd" fill="#202020" d="M57.732,7.581c0.034-0.615,1.182-0.118,1.672-0.279
	c0,0.093,0,0.186,0,0.279C58.847,7.581,58.29,7.581,57.732,7.581z"/>
<path fill-rule="evenodd" clip-rule="evenodd" fill="#0D0D0D" d="M59.405,7.581c0-0.093,0-0.186,0-0.279c0.464,0,0.929,0,1.393,0
	C60.845,7.907,59.809,7.429,59.405,7.581z"/>
<path fill-rule="evenodd" clip-rule="evenodd" fill="#202020" d="M52.716,7.86c0.296-0.633,1.751-0.106,2.508-0.279
	c0,0.093,0,0.186,0,0.279C54.388,7.86,53.552,7.86,52.716,7.86z"/>
<path fill-rule="evenodd" clip-rule="evenodd" fill="#0D0D0D" d="M55.224,7.86c0-0.093,0-0.186,0-0.279c0.464,0,0.928,0,1.393,0
	C56.665,8.185,55.629,7.708,55.224,7.86z"/>
<path fill-rule="evenodd" clip-rule="evenodd" fill="#323232" d="M104.278,8.695c0-0.092,0-0.185,0-0.278c0.462,0,0.927,0,1.392,0
	c0,0.093,0,0.186,0,0.278C105.205,8.695,104.74,8.695,104.278,8.695z"/>
<path fill-rule="evenodd" clip-rule="evenodd" fill="#0D0D0D" d="M110.965,8.695c0-0.092,0-0.185,0-0.278c0.465,0,0.93,0,1.395,0
	c0,0.093,0,0.186,0,0.278C111.895,8.695,111.43,8.695,110.965,8.695z"/>
<path fill-rule="evenodd" clip-rule="evenodd" fill="#818181" d="M127.689,10.368c0.649,0,1.301,0,1.949,0c0,0.093,0,0.186,0,0.279
	c0.343,0.926-1.883,0.682-1.949,0.278C127.689,10.74,127.689,10.554,127.689,10.368z"/>
<path fill-rule="evenodd" clip-rule="evenodd" fill="#0D0D0D" d="M100.375,10.647c0,0.836,0,1.672,0,2.508
	C99.914,12.944,99.914,10.858,100.375,10.647z"/>
<path fill-rule="evenodd" clip-rule="evenodd" fill="#0D0D0D" d="M41.01,11.204c-0.199-0.451,1.314-0.451,1.114,0
	C41.753,11.204,41.381,11.204,41.01,11.204z"/>
<path fill-rule="evenodd" clip-rule="evenodd" fill="#818181" d="M104.278,11.204c0,0.093,0,0.187,0,0.28c0,0.464,0,0.929,0,1.393
	c-0.465,0-0.93,0-1.395,0c0-0.557,0-1.114,0-1.672C103.349,11.204,103.813,11.204,104.278,11.204z"/>
<path fill-rule="evenodd" clip-rule="evenodd" fill="#818181" d="M109.016,14.828c0.413,0.051,0.255,0.673,0.278,1.115
	C108.916,15.856,109.062,15.245,109.016,14.828z"/>
<path fill-rule="evenodd" clip-rule="evenodd" fill="#0D0D0D" d="M93.964,22.631c0.937-0.644,3.062-0.097,4.46-0.279
	c0,0.093,0,0.186,0,0.279C96.938,22.631,95.451,22.631,93.964,22.631z"/>
<path fill-rule="evenodd" clip-rule="evenodd" fill="#202020" d="M98.424,22.631c0-0.093,0-0.186,0-0.279c0.465,0,0.93,0,1.395,0
	C99.864,22.957,98.828,22.479,98.424,22.631z"/>
<path fill-rule="evenodd" clip-rule="evenodd" fill="#202020" d="M93.686,25.418c0.936-0.644,3.062-0.098,4.46-0.279
	c0,0.093,0,0.186,0,0.279C96.659,25.418,95.173,25.418,93.686,25.418z"/>
<path fill-rule="evenodd" clip-rule="evenodd" fill="#0D0D0D" d="M98.146,25.418c0-0.093,0-0.186,0-0.279c0.465,0,0.93,0,1.393,0
	C99.586,25.744,98.55,25.266,98.146,25.418z"/>
<path fill-rule="evenodd" clip-rule="evenodd" fill="#0D0D0D" d="M84.767,34.616c0.048-0.417-0.1-1.029,0.278-1.116
	C85.023,33.942,85.18,34.564,84.767,34.616z"/>
<path fill-rule="evenodd" clip-rule="evenodd" fill="#0D0D0D" d="M84.767,36.009c0.642,0.66,0.101,2.501,0.278,3.624
	c-0.092,0-0.184,0-0.278,0C84.767,38.425,84.767,37.217,84.767,36.009z"/>
<path fill-rule="evenodd" clip-rule="evenodd" fill="#0D0D0D" d="M81.979,38.797c0.093,0,0.187,0,0.279,0
	c-0.177,0.938,0.358,2.589-0.279,3.065C81.979,40.841,81.979,39.819,81.979,38.797z"/>
<path fill-rule="evenodd" clip-rule="evenodd" fill="#202020" d="M4.498,68.061c0,0.372,0,0.744,0,1.115c-0.092,0-0.186,0-0.278,0
	C4.267,68.759,4.12,68.147,4.498,68.061z"/>
<path fill-rule="evenodd" clip-rule="evenodd" fill="#0D0D0D" d="M1.711,68.34c-0.047,0.417,0.1,1.028-0.278,1.115
	C1.456,69.014,1.299,68.392,1.711,68.34z"/>
<path fill-rule="evenodd" clip-rule="evenodd" fill="#0D0D0D" d="M4.22,69.176c0.093,0,0.186,0,0.278,0
	c-0.047,0.417,0.1,1.028-0.278,1.115C4.22,69.919,4.22,69.548,4.22,69.176z"/>
<path fill-rule="evenodd" clip-rule="evenodd" fill="#0D0D0D" d="M1.433,71.127c0,0.372,0,0.743,0,1.115c-0.093,0-0.186,0-0.278,0
	C1.177,71.801,1.02,71.179,1.433,71.127z"/>
<path fill-rule="evenodd" clip-rule="evenodd" fill="#202020" d="M1.154,72.242c0.092,0,0.185,0,0.278,0
	c-0.048,0.417,0.099,1.028-0.278,1.115C1.154,72.985,1.154,72.613,1.154,72.242z"/>
<path fill-rule="evenodd" clip-rule="evenodd" fill="#202020" d="M3.941,73.914c0,0.371,0,0.743,0,1.114c-0.093,0-0.186,0-0.279,0
	C3.71,74.612,3.563,74.001,3.941,73.914z"/>
<path fill-rule="evenodd" clip-rule="evenodd" fill="#0D0D0D" d="M3.662,75.028c0.093,0,0.186,0,0.279,0
	c-0.047,0.418,0.1,1.029-0.279,1.115C3.662,75.772,3.662,75.4,3.662,75.028z"/>
<path fill-rule="evenodd" clip-rule="evenodd" fill="#0D0D0D" d="M0.875,76.98c0,0.371,0,0.743,0,1.114c-0.093,0-0.186,0-0.279,0
	C0.62,77.653,0.462,77.032,0.875,76.98z"/>
<path fill-rule="evenodd" clip-rule="evenodd" fill="#202020" d="M0.596,78.095c0.093,0,0.186,0,0.279,0
	c-0.047,0.417,0.1,1.029-0.279,1.115C0.596,78.838,0.596,78.467,0.596,78.095z"/>
<path fill-rule="evenodd" clip-rule="evenodd" fill="#0D0D0D" d="M28.189,6.466c0.251-0.491,0.623-0.863,1.114-1.115
	C29.052,5.843,28.68,6.214,28.189,6.466z"/>
<path fill-rule="evenodd" clip-rule="evenodd" fill="#202020" d="M18.713,20.401c0.812-1.045,1.741-1.975,2.787-2.787
	C20.688,18.66,19.758,19.589,18.713,20.401z"/>
<path fill-rule="evenodd" clip-rule="evenodd" fill="#202020" d="M29.583,25.14c0.252-0.492,0.624-0.863,1.115-1.115
	C30.445,24.517,30.074,24.888,29.583,25.14z"/>
<path fill-rule="evenodd" clip-rule="evenodd" fill="#0D0D0D" d="M30.697,24.025c0.346-0.583,0.811-1.047,1.394-1.394
	C31.745,23.215,31.28,23.679,30.697,24.025z"/>
<path fill-rule="evenodd" clip-rule="evenodd" fill="#202020" d="M32.091,22.353c0.439-0.675,0.997-1.232,1.672-1.672
	C33.324,21.355,32.766,21.913,32.091,22.353z"/>
<path fill-rule="evenodd" clip-rule="evenodd" fill="#0D0D0D" d="M33.763,20.681c0.188-0.648,0.926-0.746,1.115-1.394
	c0.093,0,0.186,0,0.279,0C34.81,19.87,34.347,20.334,33.763,20.681z"/>
<path fill-rule="evenodd" clip-rule="evenodd" fill="#202020" d="M34.878,19.287c0.346-0.583,0.811-1.048,1.394-1.394
	c-0.188,0.648-0.926,0.747-1.115,1.394C35.063,19.287,34.971,19.287,34.878,19.287z"/>
<path fill-rule="evenodd" clip-rule="evenodd" fill="#0D0D0D" d="M36.271,17.893c0.346-0.583,0.811-1.047,1.394-1.393
	C37.319,17.083,36.855,17.547,36.271,17.893z"/>
<path fill-rule="evenodd" clip-rule="evenodd" fill="#0D0D0D" d="M82.259,46.879c0.347-0.583,0.811-1.048,1.394-1.394
	C83.307,46.068,82.842,46.533,82.259,46.879z"/>
<path fill-rule="evenodd" clip-rule="evenodd" fill="#818181" d="M125.182,10.647c-0.988-0.306,1.306-1.046,1.393-0.279
	C126.169,10.52,125.133,10.042,125.182,10.647z"/>
<path fill-rule="evenodd" clip-rule="evenodd" fill="#202020" d="M127.411,10.368c0.092,0,0.185,0,0.278,0c0,0.186,0,0.373,0,0.558
	c0.066,0.403,2.292,0.648,1.949-0.278c0-0.093,0-0.186,0-0.279c0.095,0,0.187,0,0.278,0c0,0.373,0,0.744,0,1.116
	c-0.871-0.057-2.045,0.187-2.506-0.28C127.411,10.925,127.411,10.647,127.411,10.368z"/>
<path fill-rule="evenodd" clip-rule="evenodd" fill="#0D0D0D" d="M127.689,0.334c0.238-0.576,1.939-0.294,2.228,0
	c0,1.301,0,2.601,0,3.902c-0.092,0-0.184,0-0.278,0c0-1.301,0-2.601,0-3.902C128.99,0.334,128.339,0.334,127.689,0.334z"/>
<path fill-rule="evenodd" clip-rule="evenodd" fill="#0D0D0D" d="M20.664,22.353c0.813-1.045,1.742-1.975,2.788-2.787
	C22.638,20.611,21.709,21.541,20.664,22.353z"/>
<path fill-rule="evenodd" clip-rule="evenodd" fill="#0D0D0D" d="M27.631,23.188c0.251-0.491,0.624-0.863,1.115-1.115
	C28.495,22.565,28.123,22.938,27.631,23.188z"/>
<path fill-rule="evenodd" clip-rule="evenodd" fill="#202020" d="M28.747,22.074c0.346-0.583,0.81-1.047,1.393-1.393
	C29.794,21.263,29.329,21.728,28.747,22.074z"/>
<path fill-rule="evenodd" clip-rule="evenodd" fill="#0D0D0D" d="M30.14,20.401c0.44-0.675,0.998-1.232,1.672-1.672
	C31.373,19.405,30.815,19.962,30.14,20.401z"/>
<path fill-rule="evenodd" clip-rule="evenodd" fill="#202020" d="M31.812,18.729c0.346-0.583,0.811-1.048,1.394-1.394
	C32.859,17.919,32.395,18.383,31.812,18.729z"/>
<path fill-rule="evenodd" clip-rule="evenodd" fill="#0D0D0D" d="M33.206,17.057c0.251-0.491,0.624-0.863,1.115-1.115
	C34.069,16.434,33.697,16.805,33.206,17.057z"/>
<path fill-rule="evenodd" clip-rule="evenodd" fill="#202020" d="M34.32,15.942c0.346-0.583,0.811-1.048,1.394-1.394
	C35.368,15.131,34.903,15.596,34.32,15.942z"/>
<path fill-rule="evenodd" clip-rule="evenodd" fill="#0D0D0D" d="M35.714,14.27c0.251-0.492,0.623-0.863,1.114-1.115
	C36.577,13.646,36.206,14.018,35.714,14.27z"/>
<path fill-rule="evenodd" clip-rule="evenodd" fill="#818181" d="M103.162,15.664c0-0.093,0-0.186,0-0.279
	c1.603,0.163,4.281-0.751,3.624,1.672c-0.605,0.047-0.126-0.989-0.278-1.394C105.392,15.664,104.278,15.664,103.162,15.664z"/>
<path fill-rule="evenodd" clip-rule="evenodd" fill="#323232" d="M129.639,7.86c0-0.279,0-0.558,0-0.836c0.095,0,0.187,0,0.278,0
	c0.335,0.365,0.11,0.438,0,0.836C129.825,7.86,129.733,7.86,129.639,7.86z"/>
<path fill-rule="evenodd" clip-rule="evenodd" fill="#323232" d="M131.312,7.86c-0.078-0.45,0.265-0.48,0.278-0.836
	c0.558,0,1.116,0,1.673,0c0,0.092,0,0.185,0,0.278c-0.574,0.169-1.937-0.45-1.673,0.558C131.498,7.86,131.404,7.86,131.312,7.86z"/>
<path fill-rule="evenodd" clip-rule="evenodd" fill="#202020" d="M114.311,14.27c0.112-0.694,1.276-0.212,0.836,0.558
	C114.864,14.646,114.857,14.187,114.311,14.27z"/>
<path fill-rule="evenodd" clip-rule="evenodd" fill="#202020" d="M113.754,15.106c-0.541,0.111-0.408-1.269,0.278-0.836
	C113.884,14.494,113.742,14.723,113.754,15.106z"/>
<path fill-rule="evenodd" clip-rule="evenodd" fill="#323232" d="M116.262,22.353c0.181-0.283,0.64-0.288,0.558-0.836
	c0.326,0.045,0.234,0.508,0.278,0.836C116.819,22.353,116.541,22.353,116.262,22.353z"/>
<path fill-rule="evenodd" clip-rule="evenodd" fill="#323232" d="M129.917,4.236c1.398,0.181,3.526-0.365,4.46,0.279
	c-1.579,0-3.157,0-4.738,0c0-0.093,0-0.187,0-0.279C129.733,4.236,129.825,4.236,129.917,4.236z"/>
<path fill-rule="evenodd" clip-rule="evenodd" fill="#818181" d="M136.885,8.695c0-0.743,0-1.486,0-2.229
	C137.346,6.59,137.346,8.572,136.885,8.695z"/>
<path fill-rule="evenodd" clip-rule="evenodd" fill="#323232" d="M63.307,7.302c-0.836,0-1.673,0-2.509,0c-0.464,0-0.929,0-1.393,0
	c-0.491,0.161-1.638-0.336-1.672,0.279c-0.372,0-0.744,0-1.115,0c-0.465,0-0.929,0-1.393,0c-0.757,0.172-2.212-0.354-2.508,0.279
	c-7.154,0-14.308,0-21.461,0c0.633,2.072,1.857,3.083,1.394,4.738c-0.44,1.567-2.592,2.377-4.459,3.623
	c-1.857,1.239-3.491,2.556-4.738,3.345c-1.046,0.813-1.975,1.742-2.788,2.787c-2.34,2.944-4.237,6.104-5.574,9.755
	c-1.703,4.648-3.551,10.027-5.017,14.214c-0.427,1.221-0.745,2.82-1.115,3.624c-2.43,5.271-3.589,11.637-4.46,18.115
	c-0.378,0.087-0.231,0.698-0.278,1.115c0,0.372,0,0.743,0,1.115c0,0.278,0,0.558,0,0.836c-0.623,0.12-0.113,1.374-0.279,1.951
	c0,0.279,0,0.558,0,0.836c-0.378,0.087-0.231,0.698-0.279,1.114c0,0.372,0,0.744,0,1.115c0,0.279,0,0.558,0,0.837
	c-0.623,0.12-0.113,1.373-0.279,1.951c0,0.278,0,0.557,0,0.835c-0.623,0.12-0.113,1.374-0.278,1.951
	c0.055,1.077,0.009,2.054-0.279,2.787c0,0.093,0,0.187,0,0.279c0.405-0.152,1.441,0.326,1.394-0.279c0.186,0,0.372,0,0.558,0
	c0.836,0,1.672,0,2.508,0c0.827,0.103,1.375,0.483,1.672,1.115c0.746,0.275,0.346,1.697,1.393,1.673
	c1.679-0.286,3.26-0.854,4.738-1.395c1.527-0.556,3.062-0.97,4.181-1.95c-2.815-4.996-5.225-10.336-7.804-15.329
	c-0.925-1.791-2.071-3.308-2.508-5.296c0-1.115,0-2.23,0-3.345c0.294-1.514,0.603-3.542,1.115-5.574
	c0.429-1.705,1.217-4.808,1.951-5.574c0.814-0.85,1.615-1.49,2.788-2.229c0.729-0.46,1.395-0.793,1.951-1.115
	c1.085-0.628,2.097-1.296,3.345-1.951c1.264-0.662,2.002-1.319,3.065-1.114c1.407,0.271,2.309,2.396,3.066,3.902
	c0.889,1.768,1.375,3.361,2.229,4.738c2.541-0.804,4.897-1.792,7.525-2.508c-0.269-3.852-1.323-5.729-2.787-8.64
	c-0.79-1.571-1.723-3.149-2.508-4.738c-0.676-1.366-1.408-3.188-2.23-4.738c-1.075-2.026-2.294-3.364-1.951-5.295
	c0.151-0.852,0.596-1.235,1.115-1.951c0.492-0.251,0.863-0.624,1.115-1.115c0.583-0.346,1.047-0.811,1.393-1.393
	c0-0.093,0-0.186,0-0.279c0.675-0.439,1.233-0.997,1.672-1.672c0.583-0.347,1.047-0.811,1.394-1.394c0-0.093,0-0.186,0-0.279
	c0.491-0.252,0.863-0.624,1.115-1.115c0.583-0.346,1.047-0.811,1.394-1.394c0-0.093,0-0.186,0-0.279
	c0.491-0.252,0.863-0.624,1.114-1.115c1.3-0.744,2.428-1.66,4.181-1.952c0.371,0,0.743,0,1.114,0
	c2.206,0.234,3.115,2.615,3.902,4.181c2.88,5.729,5.336,10.982,8.083,16.444c2.723,5.416,5.77,11.01,8.361,16.165
	c0.939,1.867,1.347,4.019,3.066,5.296c1.704,0.025,2.995-1.313,4.458-2.23c2.068-1.294,4.208-2.683,6.133-3.902
	c0.64-0.405,1.583-0.706,2.229-1.115c1.865-1.184,3.656-2.39,3.622-4.181c0.638-0.477,0.103-2.127,0.279-3.065
	c0-2.044,0-4.088,0-6.132c0.084-2.276,0.749-3.009,1.673-4.459c0.184-0.289,0.338-0.824,0.557-1.114
	c0.444-0.59,0.882-0.884,1.395-1.115c0.082-0.037,0.188-0.488,0.278-0.558c1.088-0.833,2.199-1.581,3.065-1.951
	c1.304-0.558,2.953-0.963,4.737-0.836c1.487,0,2.974,0,4.46,0c0.404-0.152,1.44,0.326,1.395-0.279
	c2.757-0.342,5.474-1.126,7.524-1.951c0.665-0.268,2.703-0.78,2.509-1.393c1.14,0.719,2.769,0.947,4.738,0.836
	c0.475-0.103,0.524,0.217,0.557,0.557c-5.085,1.697-8.905,4.66-15.608,4.738c-0.463,0-0.928,0-1.393,0
	c-1.398,0.181-3.524-0.365-4.46,0.279c-4.886,0.688-7.913,3.234-8.641,8.082c-0.378,0.087-0.23,0.698-0.278,1.116
	c0,0.464,0,0.929,0,1.393c0,1.208,0,2.416,0,3.624c0,0.929,0,1.858,0,2.787c0.042,1.435-0.551,2.236-1.114,3.065
	c-0.583,0.346-1.047,0.811-1.394,1.394c-2.688,1.784-5.169,3.32-8.36,5.295c-0.313,0.193-0.756,0.327-1.116,0.557
	c-0.337,0.217-0.491,0.616-0.835,0.837c-0.684,0.437-1.496,0.686-2.23,1.115c-1.113,0.65-2.514,2.126-5.296,1.393
	c-0.776-0.204-1.536-1.061-2.229-1.95c-1.487-1.909-3.134-5.967-4.18-8.083c-4.268-8.629-7.899-16.039-12.263-24.248
	c-0.235-0.441-0.326-0.99-0.558-1.394c-0.261-0.455-0.599-0.666-0.836-1.114c-0.984-1.855-1.397-3.924-2.787-5.295
	c-1.605,0.531-3.028,1.245-3.902,2.508c-0.583,0.346-1.048,0.81-1.394,1.393c-0.583,0.346-1.047,0.811-1.394,1.394
	c-0.189,0.647-0.926,0.746-1.115,1.394c-0.675,0.439-1.233,0.997-1.672,1.672c0,0.093,0,0.186,0,0.279
	c-0.583,0.346-1.047,0.811-1.394,1.394c-0.491,0.251-0.863,0.623-1.115,1.115c0.045,0.324-0.062,0.496-0.279,0.557
	c2.465,5.416,5.05,10.157,7.805,15.608c0.756,1.498,1.66,3.439,1.672,6.132c0,0.65,0,1.3,0,1.952c0,0.185,0,0.37,0,0.557
	c-1.116,1.373-3.229,1.814-5.296,2.508c-2.168,0.729-5.294,2.51-6.968,0.837c-0.313-0.313-0.283-0.707-0.557-1.115
	c-0.209-0.312-0.667-0.493-0.836-0.836c-0.197-0.4-0.031-0.916-0.279-1.394c-0.761-1.468-1.895-2.623-2.229-4.181
	c-1.836,0.525-3.103,1.423-4.46,2.23c-0.886,0.527-2.101,1.178-3.065,1.951c-1.506,1.207-1.604,3.909-2.23,6.411
	c-0.41,1.639-1.483,3.79-1.393,5.295c0.106,1.784,1.783,3.856,2.787,5.853c1.02,2.029,1.935,4.13,2.787,5.854
	c0.768,1.552,1.657,3.742,2.787,5.853c0.651,1.216,2.96,3.775,2.509,5.853c-0.202,0.928-1.313,1.588-2.509,2.23
	c-0.936,0.502-2.215,0.709-3.344,1.113c-1.655,0.597-3.075,1.244-5.295,1.673c-0.818,0.158-1.356,0.41-1.951,0.278
	c-1.87-0.41-1.733-1.854-2.787-3.064c-1.666-0.171-2.926,0.485-4.459,0c-1.03-0.327-1.745-0.844-1.951-2.509
	c-0.098-0.791-0.013-1.896,0.279-2.787c0.623-0.12,0.113-1.374,0.278-1.951c0-0.279,0-0.558,0-0.836
	c0.378-0.086,0.231-0.698,0.279-1.115c0-0.371,0-0.743,0-1.114c0-0.279,0-0.558,0-0.837c0.623-0.12,0.113-1.373,0.279-1.95
	c0-0.279,0-0.558,0-0.836c0.377-0.087,0.23-0.698,0.278-1.115c0-0.372,0-0.743,0-1.115c0-0.558,0-1.114,0-1.672
	c0.378-0.087,0.231-0.698,0.278-1.115c0-0.279,0-0.558,0-0.836c0.623-0.12,0.113-1.373,0.279-1.951
	c0.405-6.502,2.774-12.846,4.738-18.395c1.813-5.125,3.689-10.389,5.575-15.607c1.64-4.542,3.422-8.276,6.41-11.149
	c1.045-0.812,1.975-1.741,2.787-2.787c2.235-2.41,5.505-3.786,8.083-5.853c-0.401-1.968-2.056-3.045-1.394-5.295
	c0.491-0.252,0.863-0.624,1.114-1.115c7.528-0.648,16.256-0.095,24.249-0.279c0.65,0,1.301,0,1.951,0
	c0.405-0.152,1.44,0.326,1.394-0.278c0.372,0,0.743,0,1.115,0c0.464,0,0.929,0,1.394,0c0.577-0.166,1.831,0.345,1.951-0.278
	c2.254,0.222,4.239-0.397,5.853,0c0.372,0,0.743,0,1.115,0c1.251-0.249,2.021-0.237,2.786,0c14.309,0,28.614,0,42.923,0
	c-0.419,0.604-1.395,0.649-1.395,1.672c-0.326,0.045-0.234,0.508-0.278,0.836c-2.694,0-5.389,0-8.081,0c0-0.373,0-0.744,0-1.115
	c-0.465,0-0.93,0-1.395,0c0,0.464,0,0.929,0,1.394c-0.093,0-0.187,0-0.278,0C90.156,6.838,75.756,6.838,63.307,7.302z"/>
<path fill-rule="evenodd" clip-rule="evenodd" fill="#323232" d="M127.411,7.581c-3.532-0.649-8.268-0.094-12.265-0.279
	c0-0.093,0-0.186,0-0.278c4.181,0,8.362,0,12.543,0C127.733,7.348,127.628,7.519,127.411,7.581z"/>
<path fill-rule="evenodd" clip-rule="evenodd" fill="#0D0D0D" d="M102.048,8.695c0.314-0.335,0.796-0.504,0.558-1.393
	c0.092,0,0.186,0,0.278,0c0,0.465,0,0.929,0,1.393C102.605,8.695,102.326,8.695,102.048,8.695z"/>
<path fill-rule="evenodd" clip-rule="evenodd" fill="#202020" d="M105.67,8.417c1.766,0,3.53,0,5.295,0c0,0.093,0,0.186,0,0.278
	c-1.765,0-3.529,0-5.295,0C105.67,8.603,105.67,8.51,105.67,8.417z"/>
<path fill-rule="evenodd" clip-rule="evenodd" fill="#818181" d="M114.868,9.811c0.174-0.847-0.356-2.401,0.278-2.787
	c0,0.092,0,0.185,0,0.278C114.974,8.059,115.501,9.514,114.868,9.811z"/>
<path fill-rule="evenodd" clip-rule="evenodd" fill="#818181" d="M129.917,10.368c1.766,0,3.532,0,5.298,0
	c-0.659,0.641-2.503,0.1-3.625,0.279c-0.631,0.296-0.105,1.752-0.278,2.508c-0.465,0-0.928,0-1.395,0c0-0.558,0-1.115,0-1.672
	C129.917,11.111,129.917,10.74,129.917,10.368z"/>
<path fill-rule="evenodd" clip-rule="evenodd" fill="#202020" d="M129.917,13.155c0.467,0,0.93,0,1.395,0
	C131.438,13.61,129.793,13.61,129.917,13.155z"/>
<path fill-rule="evenodd" clip-rule="evenodd" fill="#323232" d="M102.048,15.385c0.371,0,0.743,0,1.114,0c0,0.093,0,0.186,0,0.279
	c-0.371,0-0.743,0-1.114,0C102.048,15.571,102.048,15.478,102.048,15.385z"/>
<path fill-rule="evenodd" clip-rule="evenodd" fill="#818181" d="M115.146,14.828c0.387,0.356,0.17,1.315,0.557,1.672
	c0.095,0,0.187,0,0.28,0c-0.564,0.561-2.474,1.229-3.346,0.557c0.465,0,0.93,0,1.395,0c0.137-0.879-0.503-0.984-0.278-1.951
	c-0.012-0.383,0.13-0.612,0.278-0.836c0.093,0,0.187,0,0.278,0C114.857,14.187,114.864,14.646,115.146,14.828z"/>
<path fill-rule="evenodd" clip-rule="evenodd" fill="#818181" d="M116.541,19.287c-0.198,1.033,0.475,1.196,0.278,2.229
	c0.082,0.548-0.377,0.553-0.558,0.836c-0.278,0-0.559,0-0.837,0c0.136-0.879-0.501-0.984-0.278-1.951
	c-0.032-0.339-0.082-0.66-0.557-0.557C114.918,19.337,116.042,19.625,116.541,19.287z"/>
<path fill-rule="evenodd" clip-rule="evenodd" fill="#202020" d="M85.045,39.633c-0.174,0.847,0.358,2.4-0.278,2.787
	c0-0.929,0-1.858,0-2.787C84.861,39.633,84.953,39.633,85.045,39.633z"/>
<path fill-rule="evenodd" clip-rule="evenodd" fill="#202020" d="M4.22,71.127c-0.166,0.577,0.344,1.831-0.279,1.951
	C4.106,72.501,3.597,71.247,4.22,71.127z"/>
<path fill-rule="evenodd" clip-rule="evenodd" fill="#202020" d="M3.662,76.98c-0.166,0.576,0.345,1.831-0.279,1.951
	C3.549,78.354,3.039,77.101,3.662,76.98z"/>
<path fill-rule="evenodd" clip-rule="evenodd" fill="#202020" d="M3.383,79.767c-0.166,0.578,0.345,1.831-0.278,1.951
	C3.271,81.141,2.76,79.887,3.383,79.767z"/>
<path fill-rule="evenodd" clip-rule="evenodd" fill="#323232" d="M104.278,11.204c2.971,0,5.943,0,8.917,0
	c-2.416,0.649-6.036,0.095-8.917,0.28C104.278,11.39,104.278,11.297,104.278,11.204z"/>
<path fill-rule="evenodd" clip-rule="evenodd" fill="#202020" d="M82.259,32.665c0,2.044,0,4.088,0,6.132c-0.093,0-0.187,0-0.279,0
	C82.164,36.843,81.611,34.155,82.259,32.665z"/>
<path fill-rule="evenodd" clip-rule="evenodd" fill="#202020" d="M38.78,47.437c0.458,0.038,0.458,1.914,0,1.952
	C38.78,48.737,38.78,48.087,38.78,47.437z"/>
<path fill-rule="evenodd" clip-rule="evenodd" fill="#202020" d="M8.958,59.979c0,1.114,0,2.229,0,3.345
	C8.496,62.842,8.496,60.459,8.958,59.979z"/>
<path fill-rule="evenodd" clip-rule="evenodd" fill="#202020" d="M1.99,65.553c-0.166,0.578,0.344,1.831-0.279,1.951
	C1.877,66.927,1.367,65.673,1.99,65.553z"/>
<path fill-rule="evenodd" clip-rule="evenodd" fill="#202020" d="M1.154,74.193c-0.167,0.577,0.344,1.83-0.279,1.95
	C1.041,75.566,0.531,74.313,1.154,74.193z"/>
<path fill-rule="evenodd" clip-rule="evenodd" fill="#202020" d="M0.596,80.046c-0.166,0.577,0.345,1.831-0.278,1.951
	C0.483,81.42-0.027,80.165,0.596,80.046z"/>
<path fill-rule="evenodd" clip-rule="evenodd" fill="#0D0D0D" d="M4.777,84.505c0.296-0.632,1.752-0.106,2.508-0.278
	c0,0.093,0,0.187,0,0.278C6.45,84.505,5.613,84.505,4.777,84.505z"/>
<path fill-rule="evenodd" clip-rule="evenodd" fill="#202020" d="M2.826,84.505c0.465,0,0.929,0,1.394,0
	c0.047,0.605-0.989,0.127-1.394,0.279C2.826,84.691,2.826,84.598,2.826,84.505z"/>
<path fill-rule="evenodd" clip-rule="evenodd" fill="#FFFFFF" d="M114.032,4.516c0.187,0,0.371,0,0.558,0c0.557,0,1.113,0,1.672,0
	c3.809,0,7.617,0,11.428,0c0.649,0,1.301,0,1.949,0c1.581,0,3.159,0,4.738,0c1.395,0.093,2.146,0.827,2.508,1.951
	c0,0.743,0,1.486,0,2.229c-0.276,0.836-0.835,1.395-1.67,1.672c-1.766,0-3.532,0-5.298,0c-0.092,0-0.184,0-0.278,0
	c-0.648,0-1.3,0-1.949,0c-0.094,0-0.187,0-0.278,0c-0.28,0-0.559,0-0.837,0c-0.087-0.767-2.381-0.026-1.393,0.279
	c0.118,1.274,0.423,2.363,0.278,3.902c-2.332,2.222-5.938,3.168-8.919,4.738c-0.499,0.338-1.623,0.05-1.951,0.558
	c-1.97,0.11-3.599-0.117-4.738-0.836c-1.41-0.263-2.857-0.487-3.065-1.951c0.657-2.424-2.021-1.51-3.624-1.672
	c-0.371,0-0.743,0-1.114,0c-1.062-0.239-1.606-0.995-1.673-2.229c0-0.836,0-1.672,0-2.508c0.084-1.125,0.411-2.004,1.673-1.952
	c0.278,0,0.558,0,0.836,0c0.465,0,0.93,0,1.395,0c0.462,0,0.927,0,1.392,0c1.766,0,3.53,0,5.295,0c0.465,0,0.93,0,1.395,0
	c0.633-0.296,0.106-1.752,0.278-2.508C112.638,5.165,113.613,5.12,114.032,4.516z M115.146,7.024
	c-0.635,0.386-0.104,1.939-0.278,2.787c-0.463,0.559-0.75,1.295-1.673,1.393c-2.974,0-5.946,0-8.917,0c-0.465,0-0.93,0-1.395,0
	c0,0.558,0,1.116,0,1.672c0.465,0,0.93,0,1.395,0c2.321-0.093,4.533-0.074,4.737,1.952c0.046,0.417-0.1,1.028,0.278,1.115
	c1.074,0.411,2.076,0.897,3.344,1.115c0.872,0.672,2.781,0.003,3.346-0.557c2.184-1.067,4.376-2.128,6.689-3.066
	c-0.561-3.238-0.314-6.39,3.622-5.853c0.569,0.64,2.314,0.101,3.344,0.279c0.095,0,0.187,0,0.278,0c0.467,0,0.93,0,1.395,0
	c0.093,0,0.187,0,0.278,0c0.848-0.267,2.827,0.597,2.787-0.558c-0.05-0.413-0.673-0.255-1.114-0.278c-0.557,0-1.115,0-1.673,0
	c-0.557,0-1.113,0-1.673,0c-0.092,0-0.184,0-0.278,0c-0.648,0-1.3,0-1.949,0C123.509,7.024,119.327,7.024,115.146,7.024z"/>
</svg>
