<?xml version="1.0" encoding="utf-8"?>
<!-- Generator: Adobe Illustrator 15.0.0, SVG Export Plug-In  -->
<!DOCTYPE svg PUBLIC "-//W3C//DTD SVG 1.1//EN" "http://www.w3.org/Graphics/SVG/1.1/DTD/svg11.dtd" [
	<!ENTITY ns_flows "http://ns.adobe.com/Flows/1.0/">
]>
<svg version="1.1"
	 xmlns="http://www.w3.org/2000/svg" xmlns:xlink="http://www.w3.org/1999/xlink" xmlns:a="http://ns.adobe.com/AdobeSVGViewerExtensions/3.0/"
	 x="0px" y="0px" width="142px" height="142px" viewBox="-2.748 -24.025 142 142" enable-background="new -2.748 -24.025 142 142"
	 xml:space="preserve">
<defs>
</defs>
<path fill-rule="evenodd" clip-rule="evenodd" fill="#0D0D0D" d="M119.605,0.345c0.125-0.46,2.106-0.46,2.23,0
	c-0.649,0-1.301,0-1.951,0C119.792,0.345,119.7,0.345,119.605,0.345z"/>
<path fill-rule="evenodd" clip-rule="evenodd" fill="#7E7E7E" d="M119.885,0.345c0.65,0,1.302,0,1.951,0c0,1.301,0,2.601,0,3.902
	c0,0.093,0,0.186,0,0.279c-0.743,0-1.486,0-2.23,0C120.177,3.61,119.756,1.704,119.885,0.345z"/>
<path fill-rule="evenodd" clip-rule="evenodd" fill="#0D0D0D" d="M66.093,4.526c0.212-0.461,2.297-0.461,2.508,0
	C67.766,4.526,66.929,4.526,66.093,4.526z"/>
<path fill-rule="evenodd" clip-rule="evenodd" fill="#0D0D0D" d="M69.438,4.526c-0.2-0.453,1.313-0.453,1.114,0
	C70.182,4.526,69.81,4.526,69.438,4.526z"/>
<path fill-rule="evenodd" clip-rule="evenodd" fill="#0D0D0D" d="M71.668,4.526c13.75-0.651,28.707-0.093,42.922-0.279
	c0,0.093,0,0.186,0,0.279c-0.187,0-0.371,0-0.558,0C99.91,4.526,85.788,4.526,71.668,4.526z"/>
<path fill-rule="evenodd" clip-rule="evenodd" fill="#202020" d="M114.59,4.526c0-0.093,0-0.187,0-0.279c0.557,0,1.113,0,1.672,0
	c0,0.093,0,0.186,0,0.279C115.703,4.526,115.146,4.526,114.59,4.526z"/>
<path fill-rule="evenodd" clip-rule="evenodd" fill="#0D0D0D" d="M58.011,4.805C57.964,4.2,59,4.678,59.405,4.526
	c0,0.092,0,0.185,0,0.278C58.94,4.805,58.475,4.805,58.011,4.805z"/>
<path fill-rule="evenodd" clip-rule="evenodd" fill="#202020" d="M59.405,4.805c0-0.093,0-0.186,0-0.278c0.65,0,1.3,0,1.951,0
	C61.236,5.149,59.982,4.639,59.405,4.805z"/>
<path fill-rule="evenodd" clip-rule="evenodd" fill="#0D0D0D" d="M53.552,5.083c0.035-0.615,1.183-0.118,1.672-0.278
	c0,0.093,0,0.186,0,0.278C54.666,5.083,54.109,5.083,53.552,5.083z"/>
<path fill-rule="evenodd" clip-rule="evenodd" fill="#202020" d="M55.224,5.083c0-0.092,0-0.186,0-0.278c0.557,0,1.115,0,1.672,0
	C56.861,5.42,55.714,4.923,55.224,5.083z"/>
<path fill-rule="evenodd" clip-rule="evenodd" fill="#202020" d="M35.714,5.083c0.557,0,1.114,0,1.672,0
	C37.432,5.541,35.668,5.541,35.714,5.083z"/>
<path fill-rule="evenodd" clip-rule="evenodd" fill="#7E7E7E" d="M104.278,7.035c0,0.092,0,0.185,0,0.278c0,0.372,0,0.743,0,1.115
	c0,0.093,0,0.186,0,0.278c-0.465,0-0.93,0-1.395,0c0-0.464,0-0.928,0-1.393c0-0.464,0-0.929,0-1.394c0.465,0,0.93,0,1.395,0
	C104.278,6.291,104.278,6.662,104.278,7.035z"/>
<path fill-rule="evenodd" clip-rule="evenodd" fill="#7E7E7E" d="M112.638,6.198c-0.172,0.756,0.354,2.211-0.278,2.508
	c0-0.092,0-0.185,0-0.278c0-0.372,0-0.743,0-1.115c0-0.093,0-0.186,0-0.278C112.403,6.707,112.312,6.243,112.638,6.198z"/>
<path fill-rule="evenodd" clip-rule="evenodd" fill="#202020" d="M63.307,7.313c12.449-0.464,26.85-0.464,39.299,0
	C89.505,7.313,76.406,7.313,63.307,7.313z"/>
<path fill-rule="evenodd" clip-rule="evenodd" fill="#202020" d="M104.278,7.313c0-0.093,0-0.186,0-0.278c2.692,0,5.387,0,8.081,0
	c0,0.092,0,0.185,0,0.278C109.665,7.313,106.971,7.313,104.278,7.313z"/>
<path fill-rule="evenodd" clip-rule="evenodd" fill="#7E7E7E" d="M119.885,11.214c-0.129-1.357,0.292-3.264-0.279-4.18
	c0.744,0,1.487,0,2.23,0c0,0.092,0,0.185,0,0.278c0,1.301,0,2.602,0,3.901C121.187,11.214,120.535,11.214,119.885,11.214z"/>
<path fill-rule="evenodd" clip-rule="evenodd" fill="#7E7E7E" d="M129.917,7.871c0.11-0.398,0.335-0.471,0-0.836
	c0.56,0,1.116,0,1.673,0c-0.014,0.356-0.356,0.386-0.278,0.836C130.847,7.871,130.384,7.871,129.917,7.871z"/>
<path fill-rule="evenodd" clip-rule="evenodd" fill="#7E7E7E" d="M133.263,7.313c0-0.093,0-0.186,0-0.278
	c0.441,0.023,1.064-0.134,1.114,0.278C134.007,7.313,133.634,7.313,133.263,7.313z"/>
<path fill-rule="evenodd" clip-rule="evenodd" fill="#202020" d="M57.732,7.592c0.034-0.615,1.182-0.118,1.672-0.279
	c0,0.093,0,0.186,0,0.279C58.847,7.592,58.29,7.592,57.732,7.592z"/>
<path fill-rule="evenodd" clip-rule="evenodd" fill="#0D0D0D" d="M59.405,7.592c0-0.093,0-0.186,0-0.279c0.464,0,0.929,0,1.393,0
	C60.845,7.917,59.809,7.439,59.405,7.592z"/>
<path fill-rule="evenodd" clip-rule="evenodd" fill="#202020" d="M52.716,7.871c0.207-0.629,1.563-0.109,2.229-0.279
	c0,0.093,0,0.186,0,0.279C54.202,7.871,53.458,7.871,52.716,7.871z"/>
<path fill-rule="evenodd" clip-rule="evenodd" fill="#0D0D0D" d="M54.945,7.871c0-0.093,0-0.186,0-0.279c0.558,0,1.115,0,1.672,0
	C56.583,8.208,55.435,7.71,54.945,7.871z"/>
<path fill-rule="evenodd" clip-rule="evenodd" fill="#7E7E7E" d="M126.295,7.592c0.93,0,1.859,0,2.787,0c0,0.093,0,0.186,0,0.279
	C128.234,7.696,126.682,8.227,126.295,7.592z"/>
<path fill-rule="evenodd" clip-rule="evenodd" fill="#323232" d="M104.278,8.706c0-0.092,0-0.185,0-0.278c0.462,0,0.927,0,1.392,0
	c0,0.093,0,0.186,0,0.278C105.205,8.706,104.74,8.706,104.278,8.706z"/>
<path fill-rule="evenodd" clip-rule="evenodd" fill="#0D0D0D" d="M110.965,8.706c0-0.092,0-0.185,0-0.278c0.465,0,0.93,0,1.395,0
	c0,0.093,0,0.186,0,0.278C111.895,8.706,111.43,8.706,110.965,8.706z"/>
<path fill-rule="evenodd" clip-rule="evenodd" fill="#0D0D0D" d="M100.375,10.658c0,0.836,0,1.672,0,2.508
	C99.914,12.955,99.914,10.869,100.375,10.658z"/>
<path fill-rule="evenodd" clip-rule="evenodd" fill="#0D0D0D" d="M41.01,11.214c-0.199-0.451,1.314-0.451,1.114,0
	C41.753,11.214,41.381,11.214,41.01,11.214z"/>
<path fill-rule="evenodd" clip-rule="evenodd" fill="#7E7E7E" d="M104.278,11.214c0,0.093,0,0.187,0,0.28c0,0.464,0,0.929,0,1.393
	c-0.465,0-0.93,0-1.395,0c0-0.557,0-1.114,0-1.672C103.349,11.214,103.813,11.214,104.278,11.214z"/>
<path fill-rule="evenodd" clip-rule="evenodd" fill="#7E7E7E" d="M109.016,14.838c0.413,0.051,0.255,0.673,0.278,1.115
	C108.916,15.867,109.062,15.255,109.016,14.838z"/>
<path fill-rule="evenodd" clip-rule="evenodd" fill="#0D0D0D" d="M93.964,22.642c0.937-0.644,3.062-0.097,4.46-0.279
	c0,0.093,0,0.186,0,0.279C96.938,22.642,95.451,22.642,93.964,22.642z"/>
<path fill-rule="evenodd" clip-rule="evenodd" fill="#202020" d="M98.424,22.642c0-0.093,0-0.186,0-0.279c0.465,0,0.93,0,1.395,0
	C99.864,22.968,98.828,22.49,98.424,22.642z"/>
<path fill-rule="evenodd" clip-rule="evenodd" fill="#202020" d="M93.407,25.429c1.028-0.645,3.248-0.097,4.738-0.279
	c0,0.093,0,0.186,0,0.279C96.566,25.429,94.986,25.429,93.407,25.429z"/>
<path fill-rule="evenodd" clip-rule="evenodd" fill="#0D0D0D" d="M98.146,25.429c0-0.093,0-0.186,0-0.279c0.465,0,0.93,0,1.393,0
	C99.586,25.755,98.55,25.277,98.146,25.429z"/>
<path fill-rule="evenodd" clip-rule="evenodd" fill="#0D0D0D" d="M84.767,34.905c0.16-0.49-0.337-1.637,0.278-1.672
	C84.885,33.723,85.384,34.871,84.767,34.905z"/>
<path fill-rule="evenodd" clip-rule="evenodd" fill="#0D0D0D" d="M84.767,36.02c0.642,0.66,0.101,2.501,0.278,3.624
	c-0.092,0-0.184,0-0.278,0C84.767,38.436,84.767,37.228,84.767,36.02z"/>
<path fill-rule="evenodd" clip-rule="evenodd" fill="#0D0D0D" d="M81.979,39.086c0.093,0,0.187,0,0.279,0
	c-0.175,0.847,0.356,2.4-0.279,2.787C81.979,40.944,81.979,40.015,81.979,39.086z"/>
<path fill-rule="evenodd" clip-rule="evenodd" fill="#202020" d="M84.767,39.644c0.095,0,0.187,0,0.278,0c0,0.65,0,1.3,0,1.951
	c-0.092,0-0.184,0-0.278,0C84.767,40.944,84.767,40.294,84.767,39.644z"/>
<path fill-rule="evenodd" clip-rule="evenodd" fill="#0D0D0D" d="M84.767,41.595c0.095,0,0.187,0,0.278,0
	c-0.021,0.441,0.135,1.063-0.278,1.114C84.767,42.338,84.767,41.966,84.767,41.595z"/>
<path fill-rule="evenodd" clip-rule="evenodd" fill="#202020" d="M4.498,68.071c0,0.372,0,0.744,0,1.115c-0.092,0-0.186,0-0.278,0
	C4.267,68.77,4.12,68.158,4.498,68.071z"/>
<path fill-rule="evenodd" clip-rule="evenodd" fill="#0D0D0D" d="M4.22,69.187c0.093,0,0.186,0,0.278,0
	c-0.047,0.417,0.1,1.028-0.278,1.115C4.22,69.93,4.22,69.559,4.22,69.187z"/>
<path fill-rule="evenodd" clip-rule="evenodd" fill="#0D0D0D" d="M1.433,71.138c0,0.372,0,0.743,0,1.115c-0.093,0-0.186,0-0.278,0
	C1.177,71.812,1.02,71.189,1.433,71.138z"/>
<path fill-rule="evenodd" clip-rule="evenodd" fill="#202020" d="M1.154,72.253c0.092,0,0.185,0,0.278,0
	c-0.048,0.417,0.099,1.028-0.278,1.115C1.154,72.996,1.154,72.624,1.154,72.253z"/>
<path fill-rule="evenodd" clip-rule="evenodd" fill="#0D0D0D" d="M1.154,73.925c0,0.371,0,0.743,0,1.114c-0.093,0-0.186,0-0.279,0
	C0.898,74.599,0.741,73.977,1.154,73.925z"/>
<path fill-rule="evenodd" clip-rule="evenodd" fill="#202020" d="M3.941,73.925c0,0.371,0,0.743,0,1.114c-0.093,0-0.186,0-0.279,0
	C3.71,74.623,3.563,74.012,3.941,73.925z"/>
<path fill-rule="evenodd" clip-rule="evenodd" fill="#202020" d="M0.875,75.039c0.093,0,0.186,0,0.279,0
	c-0.048,0.418,0.099,1.029-0.279,1.115C0.875,75.783,0.875,75.411,0.875,75.039z"/>
<path fill-rule="evenodd" clip-rule="evenodd" fill="#0D0D0D" d="M3.662,75.039c0.093,0,0.186,0,0.279,0
	c-0.047,0.418,0.1,1.029-0.279,1.115C3.662,75.783,3.662,75.411,3.662,75.039z"/>
<path fill-rule="evenodd" clip-rule="evenodd" fill="#0D0D0D" d="M0.875,76.991c0,0.371,0,0.743,0,1.114c-0.093,0-0.186,0-0.279,0
	C0.62,77.664,0.462,77.043,0.875,76.991z"/>
<path fill-rule="evenodd" clip-rule="evenodd" fill="#202020" d="M0.596,78.105c0.093,0,0.186,0,0.279,0
	c-0.047,0.417,0.1,1.029-0.279,1.115C0.596,78.849,0.596,78.478,0.596,78.105z"/>
<path fill-rule="evenodd" clip-rule="evenodd" fill="#323232" d="M119.605,0.345c0.095,0,0.187,0,0.279,0
	c-0.129,1.358,0.292,3.265-0.279,4.181c-1.113,0-2.229,0-3.344,0c0-0.093,0-0.187,0-0.279c1.114,0,2.23,0,3.344,0
	C119.605,2.946,119.605,1.646,119.605,0.345z"/>
<path fill-rule="evenodd" clip-rule="evenodd" fill="#0D0D0D" d="M28.189,6.477c0.251-0.491,0.623-0.863,1.114-1.115
	C29.052,5.854,28.68,6.225,28.189,6.477z"/>
<path fill-rule="evenodd" clip-rule="evenodd" fill="#202020" d="M18.713,20.412c0.812-1.045,1.741-1.975,2.787-2.787
	C20.688,18.671,19.758,19.6,18.713,20.412z"/>
<path fill-rule="evenodd" clip-rule="evenodd" fill="#202020" d="M37.386,51.07c0.252-0.49,0.624-0.863,1.115-1.114
	C38.249,50.446,37.878,50.819,37.386,51.07z"/>
<path fill-rule="evenodd" clip-rule="evenodd" fill="#202020" d="M29.583,25.15c0.252-0.492,0.624-0.863,1.115-1.115
	C30.445,24.527,30.074,24.898,29.583,25.15z"/>
<path fill-rule="evenodd" clip-rule="evenodd" fill="#0D0D0D" d="M30.697,24.036c0.346-0.583,0.811-1.047,1.394-1.394
	C31.745,23.226,31.28,23.689,30.697,24.036z"/>
<path fill-rule="evenodd" clip-rule="evenodd" fill="#202020" d="M32.091,22.363c0.439-0.675,0.997-1.232,1.672-1.672
	C33.324,21.366,32.766,21.924,32.091,22.363z"/>
<path fill-rule="evenodd" clip-rule="evenodd" fill="#0D0D0D" d="M33.763,20.691c0.188-0.648,0.926-0.746,1.115-1.394
	c0.093,0,0.186,0,0.279,0C34.81,19.88,34.347,20.345,33.763,20.691z"/>
<path fill-rule="evenodd" clip-rule="evenodd" fill="#202020" d="M34.878,19.298c0.346-0.583,0.811-1.048,1.394-1.394
	c-0.188,0.648-0.926,0.747-1.115,1.394C35.063,19.298,34.971,19.298,34.878,19.298z"/>
<path fill-rule="evenodd" clip-rule="evenodd" fill="#0D0D0D" d="M36.271,17.904c0.346-0.583,0.811-1.047,1.394-1.393
	C37.319,17.094,36.855,17.558,36.271,17.904z"/>
<path fill-rule="evenodd" clip-rule="evenodd" fill="#0D0D0D" d="M82.259,46.89c0.347-0.583,0.811-1.048,1.394-1.394
	C83.307,46.079,82.842,46.543,82.259,46.89z"/>
<path fill-rule="evenodd" clip-rule="evenodd" fill="#7E7E7E" d="M125.182,10.658c-0.988-0.306,1.306-1.046,1.393-0.279
	C126.169,10.531,125.133,10.053,125.182,10.658z"/>
<path fill-rule="evenodd" clip-rule="evenodd" fill="#0D0D0D" d="M20.664,22.363c0.813-1.045,1.742-1.975,2.788-2.787
	C22.638,20.622,21.709,21.551,20.664,22.363z"/>
<path fill-rule="evenodd" clip-rule="evenodd" fill="#0D0D0D" d="M27.631,23.199c0.251-0.491,0.624-0.863,1.115-1.115
	C28.495,22.576,28.123,22.948,27.631,23.199z"/>
<path fill-rule="evenodd" clip-rule="evenodd" fill="#202020" d="M28.747,22.084c0.346-0.583,0.81-1.047,1.393-1.393
	C29.794,21.274,29.329,21.739,28.747,22.084z"/>
<path fill-rule="evenodd" clip-rule="evenodd" fill="#0D0D0D" d="M30.14,20.412c0.44-0.675,0.998-1.232,1.672-1.672
	C31.373,19.416,30.815,19.973,30.14,20.412z"/>
<path fill-rule="evenodd" clip-rule="evenodd" fill="#202020" d="M31.812,18.74c0.346-0.583,0.811-1.048,1.394-1.394
	C32.859,17.93,32.395,18.394,31.812,18.74z"/>
<path fill-rule="evenodd" clip-rule="evenodd" fill="#0D0D0D" d="M33.206,17.068c0.251-0.491,0.624-0.863,1.115-1.115
	C34.069,16.444,33.697,16.816,33.206,17.068z"/>
<path fill-rule="evenodd" clip-rule="evenodd" fill="#202020" d="M34.32,15.953c0.346-0.583,0.811-1.048,1.394-1.394
	C35.368,15.142,34.903,15.607,34.32,15.953z"/>
<path fill-rule="evenodd" clip-rule="evenodd" fill="#0D0D0D" d="M35.714,14.281c0.251-0.492,0.623-0.863,1.114-1.115
	C36.577,13.657,36.206,14.029,35.714,14.281z"/>
<path fill-rule="evenodd" clip-rule="evenodd" fill="#202020" d="M80.028,44.939c0.64-0.476,1.198-1.033,1.673-1.672
	C81.487,44.167,80.93,44.725,80.028,44.939z"/>
<path fill-rule="evenodd" clip-rule="evenodd" fill="#7E7E7E" d="M102.326,15.396c1.722,0.321,5.119-1.032,4.46,1.672
	c-0.605,0.047-0.126-0.989-0.278-1.394C105.201,15.494,103.17,16.039,102.326,15.396z"/>
<path fill-rule="evenodd" clip-rule="evenodd" fill="#7E7E7E" d="M114.032,14.281c0.093,0,0.187,0,0.278,0
	c0.617-0.153,0.397,0.532,0.836,0.558c0.372,0.465-0.103,1.774,0.837,1.672c-0.564,0.561-2.474,1.229-3.346,0.557
	c0.465,0,0.93,0,1.395,0c0.223-0.966-0.414-1.072-0.278-1.951C113.674,14.667,114.017,14.637,114.032,14.281z"/>
<path fill-rule="evenodd" clip-rule="evenodd" fill="#323232" d="M115.146,7.313c0-0.093,0-0.186,0-0.278c1.486,0,2.973,0,4.459,0
	c0.571,0.916,0.15,2.822,0.279,4.18c-0.093,0-0.185,0-0.279,0c0-1.3,0-2.601,0-3.901C118.119,7.313,116.633,7.313,115.146,7.313z"/>
<path fill-rule="evenodd" clip-rule="evenodd" fill="#323232" d="M121.836,7.313c0-0.093,0-0.186,0-0.278c2.694,0,5.389,0,8.081,0
	c0.335,0.365,0.11,0.438,0,0.836c-0.278,0-0.557,0-0.835,0c0-0.093,0-0.186,0-0.279c0.236,0.087,0.611-0.109,0.835,0
	C128.545,6.926,123.943,7.514,121.836,7.313z"/>
<path fill-rule="evenodd" clip-rule="evenodd" fill="#323232" d="M131.312,7.871c-0.078-0.45,0.265-0.48,0.278-0.836
	c0.558,0,1.116,0,1.673,0c0,0.092,0,0.185,0,0.278c-0.574,0.169-1.937-0.45-1.673,0.558C131.498,7.871,131.404,7.871,131.312,7.871z
	"/>
<path fill-rule="evenodd" clip-rule="evenodd" fill="#202020" d="M114.311,14.281c0.112-0.694,1.276-0.212,0.836,0.558
	C114.708,14.813,114.928,14.127,114.311,14.281z"/>
<path fill-rule="evenodd" clip-rule="evenodd" fill="#202020" d="M113.754,15.117c-0.541,0.111-0.408-1.269,0.278-0.836
	C114.017,14.637,113.674,14.667,113.754,15.117z"/>
<path fill-rule="evenodd" clip-rule="evenodd" fill="#323232" d="M116.262,22.363c0.181-0.283,0.64-0.288,0.558-0.836
	c0.326,0.045,0.234,0.508,0.278,0.836C116.819,22.363,116.541,22.363,116.262,22.363z"/>
<path fill-rule="evenodd" clip-rule="evenodd" fill="#323232" d="M121.836,4.247c4.089,0.186,8.917-0.371,12.541,0.279
	c-4.179,0-8.36,0-12.541,0C121.836,4.433,121.836,4.34,121.836,4.247z"/>
<path fill-rule="evenodd" clip-rule="evenodd" d="M134.377,7.313c0.04,1.154-1.939,0.291-2.787,0.558
	c-0.264-1.007,1.099-0.389,1.673-0.558C133.634,7.313,134.007,7.313,134.377,7.313z"/>
<path fill-rule="evenodd" clip-rule="evenodd" fill="#7E7E7E" d="M136.885,8.428c0-0.65,0-1.301,0-1.951
	C137.346,6.515,137.346,8.39,136.885,8.428z"/>
<path fill-rule="evenodd" clip-rule="evenodd" fill="#0D0D0D" d="M102.048,8.706c0.314-0.335,0.796-0.504,0.558-1.393
	c0.092,0,0.186,0,0.278,0c0,0.465,0,0.929,0,1.393C102.605,8.706,102.326,8.706,102.048,8.706z"/>
<path fill-rule="evenodd" clip-rule="evenodd" fill="#202020" d="M105.67,8.428c1.766,0,3.53,0,5.295,0c0,0.093,0,0.186,0,0.278
	c-1.765,0-3.529,0-5.295,0C105.67,8.614,105.67,8.521,105.67,8.428z"/>
<path fill-rule="evenodd" clip-rule="evenodd" fill="#7E7E7E" d="M114.868,9.542c0.172-0.756-0.354-2.212,0.278-2.508
	c0,0.092,0,0.185,0,0.278C114.976,7.979,115.497,9.335,114.868,9.542z"/>
<path fill-rule="evenodd" clip-rule="evenodd" fill="#323232" d="M52.716,7.871c-7.154,0-14.308,0-21.461,0
	c0.633,2.072,1.857,3.083,1.394,4.738c-0.296,1.053-1.482,1.77-2.229,2.23c-0.259,0.159-0.352,0.426-0.558,0.557
	c-0.345,0.22-0.982,0.286-1.394,0.558c-0.461,0.306-1.117,0.932-1.393,1.115c-0.251,0.167-0.351,0.415-0.558,0.558
	c-0.411,0.284-1.054,0.324-1.394,0.557c-0.578,0.397-1.058,1.297-1.672,1.394c-1.046,0.813-1.975,1.742-2.788,2.787
	c-2.343,2.953-4.23,6.086-5.574,9.755c-1.507,4.115-3.052,9.168-4.459,12.82c-0.56,1.455-1.151,3.886-1.672,5.017
	c-1.004,2.179-1.627,4.431-2.23,6.689c-0.956,3.58-1.904,7.597-2.23,11.426C4.12,68.158,4.267,68.77,4.22,69.187
	c0,0.372,0,0.743,0,1.115c0,0.278,0,0.558,0,0.836c-0.623,0.12-0.113,1.374-0.279,1.951c0,0.279,0,0.558,0,0.836
	c-0.378,0.087-0.231,0.698-0.279,1.114c0,0.372,0,0.744,0,1.115c0,0.279,0,0.558,0,0.837c-0.623,0.12-0.113,1.373-0.279,1.951
	c0,0.278,0,0.557,0,0.835c-0.623,0.12-0.113,1.374-0.278,1.951c0.055,1.077,0.009,2.054-0.279,2.787c0,0.093,0,0.187,0,0.279
	c0.405-0.152,1.441,0.326,1.394-0.279c0.186,0,0.372,0,0.558,0c0.836,0,1.672,0,2.508,0c1.018,0.005,1.251,0.792,1.951,1.115
	c0.326,0.608,0.387,2.318,1.115,1.673c1.679-0.286,3.26-0.854,4.738-1.395c1.527-0.556,3.062-0.97,4.181-1.95
	c-2.84-4.988-5.191-10.345-7.804-15.329c-0.93-1.775-2.105-3.311-2.508-5.296c0-1.115,0-2.23,0-3.345
	c0.328-1.674,0.629-3.647,1.115-5.574c0.381-1.514,1.145-4.732,1.951-5.574c0.821-0.856,1.639-1.505,2.788-2.229
	c0.729-0.46,1.395-0.793,1.951-1.115c1.098-0.636,2.236-1.37,3.345-1.951c1.403-0.735,2.052-1.309,3.065-1.114
	c1.407,0.271,2.309,2.396,3.066,3.902c0.889,1.768,1.375,3.361,2.229,4.738c2.605-0.74,4.865-1.823,7.525-2.508
	c-0.269-3.852-1.323-5.729-2.787-8.64c-0.79-1.571-1.723-3.149-2.508-4.738c-0.676-1.366-1.408-3.188-2.23-4.738
	c-1.075-2.026-2.294-3.364-1.951-5.295c0.151-0.852,0.596-1.235,1.115-1.951c0.492-0.251,0.863-0.624,1.115-1.115
	c0.583-0.346,1.047-0.811,1.393-1.393c0-0.093,0-0.186,0-0.279c0.675-0.439,1.233-0.997,1.672-1.672
	c0.583-0.347,1.047-0.811,1.394-1.394c0-0.093,0-0.186,0-0.279c0.491-0.252,0.863-0.624,1.115-1.115
	c0.583-0.346,1.047-0.811,1.394-1.394c0-0.093,0-0.186,0-0.279c0.491-0.252,0.863-0.624,1.114-1.115
	c1.3-0.744,2.428-1.66,4.181-1.952c0.371,0,0.743,0,1.114,0c2.206,0.234,3.115,2.615,3.902,4.181
	c2.88,5.729,5.336,10.982,8.083,16.444c2.723,5.416,5.77,11.01,8.361,16.165c0.939,1.867,1.347,4.019,3.066,5.296
	c0.867,0.118,2.254-0.593,2.508-0.837c0.233-0.223,0.599-0.33,0.835-0.557c0.687-0.659,1.528-0.952,2.229-1.395
	c0.581-0.364,1.981-1.153,2.229-1.394c0.239-0.227,0.23-0.084,0.56-0.278c2.149-1.278,3.914-2.843,6.13-3.902
	c0.901-0.214,1.459-0.771,1.673-1.672c0.063-0.216,0.009-0.549,0.278-0.558c0-0.278,0-0.557,0-0.836
	c0.636-0.386,0.104-1.939,0.279-2.787c0-2.137,0-4.274,0-6.411c0.765-5.711,5.419-9.975,11.705-10.033c1.487,0,2.974,0,4.46,0
	c0.404-0.152,1.44,0.326,1.395-0.279c2.757-0.342,5.474-1.126,7.524-1.951c0.665-0.268,2.703-0.78,2.509-1.393
	c1.256,0.601,2.702,1.012,4.738,0.836c0.475-0.103,0.524,0.217,0.557,0.557c-5.085,1.697-8.905,4.66-15.608,4.738
	c-0.463,0-0.928,0-1.393,0c-1.49,0.182-3.71-0.366-4.738,0.279c-4.624,0.764-7.503,3.275-8.362,7.804
	c-0.615,0.035-0.118,1.183-0.278,1.672c0,0.372,0,0.743,0,1.115c0,1.208,0,2.416,0,3.624c0,0.65,0,1.3,0,1.951
	c0,0.371,0,0.743,0,1.114c-0.048,1.251-0.579,2.022-1.114,2.787c-0.583,0.346-1.047,0.811-1.394,1.394
	c-2.138,1.484-4.727,2.993-7.525,4.738c-0.296,0.186-0.815,0.365-1.113,0.558c-0.106,0.068-0.187,0.516-0.281,0.557
	c-0.144,0.065-0.425-0.084-0.557,0c-1.084,0.698-2.255,1.734-3.623,2.509c-1.037,0.588-2.78,1.353-4.739,0.836
	c-0.769-0.202-1.546-1.074-2.229-1.95c-1.487-1.909-3.134-5.967-4.18-8.083c-4.268-8.629-7.958-16.014-12.263-24.248
	c-0.222-0.424-0.311-0.956-0.558-1.394c-0.232-0.411-0.614-0.698-0.836-1.114c-0.99-1.85-1.396-3.936-2.787-5.295
	c-1.605,0.531-3.028,1.245-3.902,2.508c-0.583,0.346-1.048,0.81-1.394,1.393c-0.583,0.346-1.047,0.811-1.394,1.394
	c-0.189,0.647-0.926,0.746-1.115,1.394c-0.675,0.439-1.233,0.997-1.672,1.672c0,0.093,0,0.186,0,0.279
	c-0.583,0.346-1.047,0.811-1.394,1.394c-0.491,0.251-0.863,0.623-1.115,1.115c0.045,0.324-0.062,0.496-0.279,0.557
	c2.448,5.382,5.059,10.176,7.805,15.608c0.929,1.838,1.931,4.738,1.951,8.083c-0.303,0.067-0.189,0.553-0.558,0.557
	c-0.491,0.251-0.863,0.624-1.115,1.114c-1.569,0.79-3.331,1.088-5.017,1.672c-1.736,0.603-3.144,1.61-4.738,1.115
	c-1.782-0.552-1.947-2.296-2.787-3.901c-0.796-1.521-1.899-2.636-2.229-4.181c-1.836,0.525-3.103,1.423-4.46,2.23
	c-0.917,0.546-2.094,1.172-3.065,1.951c-1.468,1.178-1.622,4.026-2.23,6.411c-0.417,1.633-1.482,3.794-1.393,5.295
	c0.106,1.777,1.79,3.868,2.787,5.853c1.02,2.029,1.935,4.13,2.787,5.854c0.962,1.946,2.372,4.917,3.623,7.246
	c0.449,0.836,1.992,2.991,1.672,4.459c-0.202,0.931-1.308,1.585-2.509,2.23c-0.936,0.502-2.215,0.709-3.344,1.113
	c-1.655,0.597-3.075,1.244-5.295,1.673c-0.818,0.158-1.356,0.41-1.951,0.278c-1.8-0.396-1.843-1.845-2.787-3.064
	c-1.666-0.171-2.926,0.485-4.459,0c-1.03-0.327-1.745-0.844-1.951-2.509c-0.098-0.791-0.013-1.896,0.279-2.787
	c0.623-0.12,0.113-1.374,0.278-1.951c0-0.279,0-0.558,0-0.836c0.378-0.086,0.231-0.698,0.279-1.115c0-0.371,0-0.743,0-1.114
	c0-0.279,0-0.558,0-0.837c0.378-0.086,0.231-0.697,0.279-1.115c0-0.371,0-0.743,0-1.114c0-0.186,0-0.372,0-0.557
	c0.377-0.087,0.23-0.698,0.278-1.115c0-0.372,0-0.743,0-1.115c0-0.186,0-0.371,0-0.558c0.628-0.207,0.108-1.563,0.278-2.229
	c0-0.279,0-0.558,0-0.836c0.623-0.12,0.113-1.373,0.279-1.951C2.429,57.6,5.87,50.012,8.4,42.709
	c2.877-8.301,4.837-16.802,10.313-22.297c1.045-0.812,1.975-1.741,2.787-2.787c2.333-2.22,5.138-3.967,8.083-5.575
	c-0.292-2.152-2.07-3.245-1.394-5.574c0.491-0.252,0.863-0.624,1.114-1.115c1.618-0.613,4.339-0.121,6.411-0.279
	c-0.046,0.458,1.717,0.458,1.672,0c5.389,0,10.777,0,16.166,0c0.557,0,1.114,0,1.672,0c0.49-0.16,1.637,0.337,1.672-0.278
	c0.372,0,0.743,0,1.115,0c0.464,0,0.929,0,1.394,0c0.577-0.166,1.831,0.345,1.951-0.278c1.579,0,3.159,0,4.738,0
	c0.836,0,1.672,0,2.508,0c0.279,0,0.558,0,0.837,0c0.371,0,0.743,0,1.114,0c0.413-0.323,0.703-0.323,1.115,0
	c14.12,0,28.242,0,42.364,0c-0.419,0.604-1.395,0.649-1.395,1.672c-0.326,0.045-0.234,0.508-0.278,0.836c-2.694,0-5.389,0-8.081,0
	c0-0.373,0-0.744,0-1.115c-0.465,0-0.93,0-1.395,0c0,0.464,0,0.929,0,1.394c-0.093,0-0.187,0-0.278,0
	c-12.449-0.464-26.85-0.464-39.299,0c-0.836,0-1.673,0-2.509,0c-0.464,0-0.929,0-1.393,0c-0.491,0.161-1.638-0.336-1.672,0.279
	c-0.372,0-0.744,0-1.115,0c-0.557,0-1.115,0-1.672,0C54.279,7.761,52.923,7.242,52.716,7.871z"/>
<path fill-rule="evenodd" clip-rule="evenodd" fill="#0D0D0D" d="M127.689,10.378c0.743,0,1.484,0,2.228,0c0,0.093,0,0.186,0,0.279
	C129.252,10.488,127.896,11.007,127.689,10.378z"/>
<path fill-rule="evenodd" clip-rule="evenodd" fill="#7E7E7E" d="M129.917,10.378c1.673,0,3.346,0,5.019,0
	c-0.568,0.64-2.315,0.102-3.346,0.279c-0.631,0.296-0.105,1.752-0.278,2.508c-0.465,0-0.928,0-1.395,0c0-0.836,0-1.672,0-2.508
	C129.917,10.564,129.917,10.472,129.917,10.378z"/>
<path fill-rule="evenodd" clip-rule="evenodd" fill="#202020" d="M129.917,13.166c0.467,0,0.93,0,1.395,0
	C131.438,13.621,129.793,13.621,129.917,13.166z"/>
<path fill-rule="evenodd" clip-rule="evenodd" fill="#7E7E7E" d="M116.541,19.298c-0.215,1.05,0.338,1.332,0.278,2.229
	c0.082,0.548-0.377,0.553-0.558,0.836c-0.278,0-0.559,0-0.837,0c0.136-0.879-0.501-0.984-0.278-1.951
	c-0.032-0.339-0.082-0.66-0.557-0.557C114.918,19.348,116.042,19.636,116.541,19.298z"/>
<path fill-rule="evenodd" clip-rule="evenodd" fill="#202020" d="M4.22,71.138c-0.166,0.577,0.344,1.831-0.279,1.951
	C4.106,72.512,3.597,71.258,4.22,71.138z"/>
<path fill-rule="evenodd" clip-rule="evenodd" fill="#202020" d="M3.662,76.991c-0.166,0.576,0.345,1.831-0.279,1.951
	C3.549,78.364,3.039,77.111,3.662,76.991z"/>
<path fill-rule="evenodd" clip-rule="evenodd" fill="#202020" d="M3.383,79.777c-0.166,0.578,0.345,1.831-0.278,1.951
	C3.271,81.151,2.76,79.897,3.383,79.777z"/>
<path fill-rule="evenodd" clip-rule="evenodd" fill="#323232" d="M104.278,11.214c2.971,0,5.943,0,8.917,0
	c-2.416,0.649-6.036,0.095-8.917,0.28C104.278,11.401,104.278,11.308,104.278,11.214z"/>
<path fill-rule="evenodd" clip-rule="evenodd" fill="#202020" d="M119.885,11.214c0.65,0,1.302,0,1.951,0
	c-0.124,0.46-2.105,0.46-2.23,0C119.7,11.214,119.792,11.214,119.885,11.214z"/>
<path fill-rule="evenodd" clip-rule="evenodd" fill="#202020" d="M82.259,32.675c0,2.137,0,4.274,0,6.411c-0.093,0-0.187,0-0.279,0
	C82.164,37.04,81.611,34.258,82.259,32.675z"/>
<path fill-rule="evenodd" clip-rule="evenodd" fill="#202020" d="M8.958,59.989c0,1.114,0,2.229,0,3.345
	C8.496,62.853,8.496,60.47,8.958,59.989z"/>
<path fill-rule="evenodd" clip-rule="evenodd" fill="#202020" d="M1.99,65.563c-0.166,0.578,0.344,1.831-0.279,1.951
	C1.877,66.938,1.367,65.684,1.99,65.563z"/>
<path fill-rule="evenodd" clip-rule="evenodd" fill="#202020" d="M1.711,68.351c-0.17,0.667,0.35,2.022-0.278,2.229
	C1.603,69.914,1.083,68.559,1.711,68.351z"/>
<path fill-rule="evenodd" clip-rule="evenodd" fill="#202020" d="M0.596,80.057c-0.166,0.577,0.345,1.831-0.278,1.951
	C0.483,81.431-0.027,80.176,0.596,80.057z"/>
<path fill-rule="evenodd" clip-rule="evenodd" fill="#0D0D0D" d="M4.777,84.516c0.296-0.632,1.752-0.106,2.508-0.278
	c0,0.093,0,0.187,0,0.278C6.45,84.516,5.613,84.516,4.777,84.516z"/>
<path fill-rule="evenodd" clip-rule="evenodd" fill="#202020" d="M2.826,84.516c0.465,0,0.929,0,1.394,0
	c0.047,0.605-0.989,0.127-1.394,0.279C2.826,84.702,2.826,84.608,2.826,84.516z"/>
<path fill-rule="evenodd" clip-rule="evenodd" fill="#FFFFFF" d="M114.032,4.526c0.187,0,0.371,0,0.558,0c0.557,0,1.113,0,1.672,0
	c1.114,0,2.23,0,3.344,0c0.744,0,1.487,0,2.23,0c4.181,0,8.362,0,12.541,0c1.395,0.093,2.146,0.827,2.508,1.951
	c0,0.65,0,1.301,0,1.951c-0.164,1.137-0.813,1.787-1.949,1.951c-1.673,0-3.346,0-5.019,0c-0.743,0-1.484,0-2.228,0
	c-0.372,0-0.745,0-1.115,0c-0.087-0.767-2.381-0.026-1.393,0.279c0.118,1.274,0.423,2.363,0.278,3.902
	c-1.669,1.669-4.119,2.472-6.411,3.623c-0.842,0.423-1.364,0.78-2.508,1.115c-0.499,0.338-1.623,0.05-1.951,0.558
	c-2.036,0.176-3.482-0.235-4.738-0.836c-1.41-0.263-2.857-0.487-3.065-1.951c0.659-2.704-2.738-1.351-4.46-1.672
	c-0.278,0-0.559,0-0.837,0c-0.358-0.754-1.238-0.991-1.114-2.229c0-0.836,0-1.672,0-2.508c0.084-1.125,0.411-2.004,1.673-1.952
	c0.278,0,0.558,0,0.836,0c0.465,0,0.93,0,1.395,0c0.462,0,0.927,0,1.392,0c1.766,0,3.53,0,5.295,0c0.465,0,0.93,0,1.395,0
	c0.633-0.296,0.106-1.752,0.278-2.508C112.638,5.175,113.613,5.13,114.032,4.526z M115.146,7.035
	c-0.633,0.296-0.106,1.751-0.278,2.508c-0.215,0.901-0.771,1.458-1.673,1.672c-2.974,0-5.946,0-8.917,0c-0.465,0-0.93,0-1.395,0
	c0,0.558,0,1.116,0,1.672c0.465,0,0.93,0,1.395,0c2.321-0.093,4.533-0.074,4.737,1.952c0.046,0.417-0.1,1.028,0.278,1.115
	c1.074,0.411,2.076,0.897,3.344,1.115c0.872,0.672,2.781,0.003,3.346-0.557c2.23-1.021,4.368-2.135,6.689-3.066
	c-0.581-3.258-0.222-6.297,3.622-5.853c0.387,0.635,1.939,0.104,2.787,0.279c0.278,0,0.557,0,0.835,0c0.467,0,0.93,0,1.395,0
	c0.093,0,0.187,0,0.278,0c0.848-0.267,2.827,0.597,2.787-0.558c-0.05-0.413-0.673-0.255-1.114-0.278c-0.557,0-1.115,0-1.673,0
	c-0.557,0-1.113,0-1.673,0c-2.692,0-5.387,0-8.081,0c-0.743,0-1.486,0-2.23,0C118.119,7.035,116.633,7.035,115.146,7.035z"/>
</svg>
