<?xml version="1.0" encoding="utf-8"?>
<!-- Generator: Adobe Illustrator 15.0.0, SVG Export Plug-In  -->
<!DOCTYPE svg PUBLIC "-//W3C//DTD SVG 1.1//EN" "http://www.w3.org/Graphics/SVG/1.1/DTD/svg11.dtd" [
	<!ENTITY ns_flows "http://ns.adobe.com/Flows/1.0/">
]>
<svg version="1.1"
	 xmlns="http://www.w3.org/2000/svg" xmlns:xlink="http://www.w3.org/1999/xlink" xmlns:a="http://ns.adobe.com/AdobeSVGViewerExtensions/3.0/"
	 x="0px" y="0px" width="142px" height="142px" viewBox="-2.72 -26.322 142 142" enable-background="new -2.72 -26.322 142 142"
	 xml:space="preserve">
<defs>
</defs>
<path fill-rule="evenodd" clip-rule="evenodd" fill="#363636" d="M32.677,0c0,0.929,0,1.858,0,2.787c-0.093,0-0.186,0-0.279,0
	C32.573,1.94,32.041,0.386,32.677,0z"/>
<path fill-rule="evenodd" clip-rule="evenodd" fill="#727272" d="M32.677,0c0.093,0,0.186,0,0.279,0
	C33,0.327,33.464,0.235,33.792,0.278c0,0.836,0,1.672,0,2.508c-0.372,0-0.744,0-1.115,0C32.677,1.858,32.677,0.929,32.677,0z"/>
<path fill-rule="evenodd" clip-rule="evenodd" fill="#363636" d="M32.956,0c0.372,0,0.743,0,1.115,0c0,0.929,0,1.858,0,2.787
	c-0.093,0-0.187,0-0.279,0c0-0.836,0-1.672,0-2.508C33.464,0.235,33,0.327,32.956,0z"/>
<path fill-rule="evenodd" clip-rule="evenodd" fill="#363636" d="M109.602,2.23c-0.201-0.453,1.313-0.453,1.113,0
	C110.345,2.23,109.972,2.23,109.602,2.23z"/>
<path fill-rule="evenodd" clip-rule="evenodd" fill="#363636" d="M110.993,2.23c6.876-0.465,15.701-0.465,22.577,0
	C126.045,2.23,118.521,2.23,110.993,2.23z"/>
<path fill-rule="evenodd" clip-rule="evenodd" fill="#A6A6A6" d="M60.826,2.508c0-0.093,0-0.186,0-0.278c0.465,0,0.93,0,1.394,0
	c0,0.092,0,0.185,0,0.278C61.756,2.508,61.291,2.508,60.826,2.508z"/>
<path fill-rule="evenodd" clip-rule="evenodd" fill="#D3D3D3" d="M62.22,2.508c0-0.093,0-0.186,0-0.278c3.902,0,7.804,0,11.707,0
	C70.58,2.879,66.03,2.323,62.22,2.508z"/>
<path fill-rule="evenodd" clip-rule="evenodd" fill="#363636" d="M54.694,2.787c0.052-0.413,0.674-0.255,1.115-0.278
	c0,0.093,0,0.186,0,0.278C55.438,2.787,55.066,2.787,54.694,2.787z"/>
<path fill-rule="evenodd" clip-rule="evenodd" fill="#D3D3D3" d="M32.677,3.066c0-0.093,0-0.186,0-0.279c0.371,0,0.743,0,1.115,0
	c0,0.093,0,0.186,0,0.279C33.42,3.066,33.048,3.066,32.677,3.066z"/>
<path fill-rule="evenodd" clip-rule="evenodd" fill="#A6A6A6" d="M33.792,3.066c0-0.093,0-0.186,0-0.279c0.092,0,0.186,0,0.279,0
	c6.038,0,12.077,0,18.116,0c0,0.093,0,0.186,0,0.279C46.055,3.066,39.923,3.066,33.792,3.066z"/>
<path fill-rule="evenodd" clip-rule="evenodd" fill="#D3D3D3" d="M52.186,3.066c0-0.093,0-0.186,0-0.279c0.558,0,1.115,0,1.672,0
	C53.824,3.402,52.676,2.905,52.186,3.066z"/>
<path fill-rule="evenodd" clip-rule="evenodd" fill="#D3D3D3" d="M60.548,5.017C60.5,4.413,61.536,4.89,61.941,4.738
	c0,0.092,0,0.185,0,0.278C61.477,5.017,61.012,5.017,60.548,5.017z"/>
<path fill-rule="evenodd" clip-rule="evenodd" fill="#A6A6A6" d="M61.941,5.017c0-0.093,0-0.186,0-0.278c1.208,0,2.416,0,3.624,0
	c0,0.092,0,0.185,0,0.278C64.357,5.017,63.149,5.017,61.941,5.017z"/>
<path fill-rule="evenodd" clip-rule="evenodd" fill="#363636" d="M111.831,5.017c0-0.093,0-0.186,0-0.278c7.154,0,14.307,0,21.46,0
	c0,0.092,0,0.185,0,0.278C126.138,5.017,118.985,5.017,111.831,5.017z"/>
<path fill-rule="evenodd" clip-rule="evenodd" fill="#363636" d="M58.875,5.295c0-0.093,0-0.186,0-0.279c0.372,0,0.743,0,1.114,0
	C59.939,5.429,59.317,5.272,58.875,5.295z"/>
<path fill-rule="evenodd" clip-rule="evenodd" fill="#A6A6A6" d="M51.35,5.574c0-0.093,0-0.186,0-0.279c0.743,0,1.487,0,2.23,0
	c0,0.093,0,0.186,0,0.279C52.837,5.574,52.093,5.574,51.35,5.574z"/>
<path fill-rule="evenodd" clip-rule="evenodd" fill="#727272" d="M53.58,5.574c0-0.093,0-0.186,0-0.279c0.371,0,0.743,0,1.114,0
	c0,0.093,0,0.186,0,0.279C54.323,5.574,53.951,5.574,53.58,5.574z"/>
<path fill-rule="evenodd" clip-rule="evenodd" fill="#363636" d="M54.694,5.574c0-0.093,0-0.186,0-0.279c0.372,0,0.743,0,1.115,0
	C55.758,5.708,55.136,5.551,54.694,5.574z"/>
<path fill-rule="evenodd" clip-rule="evenodd" fill="#727272" d="M127.718,5.574c0-0.093,0-0.186,0-0.279c0.465,0,0.928,0,1.393,0
	c0,0.093,0,0.186,0,0.279C128.646,5.574,128.183,5.574,127.718,5.574z"/>
<path fill-rule="evenodd" clip-rule="evenodd" fill="#363636" d="M129.11,5.574c0-0.093,0-0.186,0-0.279
	c0.404,0.152,1.44-0.326,1.395,0.279C130.04,5.574,129.575,5.574,129.11,5.574z"/>
<path fill-rule="evenodd" clip-rule="evenodd" fill="#363636" d="M32.397,5.574c0.093,0,0.187,0,0.279,0c0,0.929,0,1.857,0,2.787
	c-0.093,0-0.186,0-0.279,0c-0.053-0.226-0.279-0.278-0.278-0.558C32.748,7.596,32.228,6.241,32.397,5.574z"/>
<path fill-rule="evenodd" clip-rule="evenodd" fill="#727272" d="M32.677,5.574c0.371,0,0.743,0,1.115,0c0,0.929,0,1.857,0,2.787
	c-0.372,0-0.744,0-1.115,0C32.677,7.432,32.677,6.503,32.677,5.574z"/>
<path fill-rule="evenodd" clip-rule="evenodd" fill="#363636" d="M33.792,5.574c0.092,0,0.186,0,0.279,0
	c-0.175,0.847,0.356,2.401-0.279,2.787C33.792,7.432,33.792,6.503,33.792,5.574z"/>
<path fill-rule="evenodd" clip-rule="evenodd" fill="#D3D3D3" d="M131.062,5.574c0.557,0,1.114,0,1.673,0c0,0.093,0,0.186,0,0.278
	C132.243,5.693,131.096,6.189,131.062,5.574z"/>
<path fill-rule="evenodd" clip-rule="evenodd" fill="#A6A6A6" d="M132.734,5.853c0-0.093,0-0.186,0-0.278c0.371,0,0.743,0,1.114,0
	C133.763,5.952,133.151,5.805,132.734,5.853z"/>
<path fill-rule="evenodd" clip-rule="evenodd" fill="#A6A6A6" d="M125.21,8.082c0.034-0.615,1.182-0.118,1.671-0.278
	c0,0.093,0,0.186,0,0.278C126.323,8.082,125.767,8.082,125.21,8.082z"/>
<path fill-rule="evenodd" clip-rule="evenodd" fill="#D3D3D3" d="M126.881,8.082c0-0.092,0-0.185,0-0.278
	c0.416,0.048,1.029-0.1,1.115,0.278C127.624,8.082,127.253,8.082,126.881,8.082z"/>
<path fill-rule="evenodd" clip-rule="evenodd" fill="#A6A6A6" d="M131.34,8.361c0-0.093,0-0.186,0-0.279c0.465,0,0.93,0,1.395,0
	c0,0.093,0,0.186,0,0.279C132.27,8.361,131.805,8.361,131.34,8.361z"/>
<path fill-rule="evenodd" clip-rule="evenodd" fill="#363636" d="M97.058,20.346c0.036-0.616,1.185-0.118,1.673-0.279
	c0,0.093,0,0.186,0,0.279C98.174,20.346,97.617,20.346,97.058,20.346z"/>
<path fill-rule="evenodd" clip-rule="evenodd" fill="#363636" d="M97.338,23.133c0-0.093,0-0.186,0-0.279c0.463,0,0.928,0,1.393,0
	C98.778,23.458,97.743,22.98,97.338,23.133z"/>
<path fill-rule="evenodd" clip-rule="evenodd" fill="#D3D3D3" d="M84.795,32.331c0,0.557,0,1.114,0,1.672
	C84.338,34.048,84.338,32.284,84.795,32.331z"/>
<path fill-rule="evenodd" clip-rule="evenodd" fill="#363636" d="M82.008,35.675c0.093,0,0.187,0,0.279,0c0,0.836,0,1.672,0,2.508
	C81.653,37.887,82.181,36.432,82.008,35.675z"/>
<path fill-rule="evenodd" clip-rule="evenodd" fill="#D3D3D3" d="M11.495,58.807c0,0.372,0,0.744,0,1.115
	C11.042,60.122,11.042,58.608,11.495,58.807z"/>
<path fill-rule="evenodd" clip-rule="evenodd" fill="#363636" d="M2.297,85.007c0.464,0,0.929,0,1.393,0
	C3.816,85.461,2.171,85.461,2.297,85.007z"/>
<path fill-rule="evenodd" clip-rule="evenodd" fill="#727272" d="M19.02,17.837c0.626-0.86,1.37-1.604,2.23-2.23
	C20.624,16.467,19.88,17.211,19.02,17.837z"/>
<path fill-rule="evenodd" clip-rule="evenodd" fill="#363636" d="M30.168,22.297c0.346-0.583,0.811-1.047,1.394-1.394
	C31.215,21.486,30.751,21.951,30.168,22.297z"/>
<path fill-rule="evenodd" clip-rule="evenodd" fill="#363636" d="M33.234,18.952c0.251-0.492,0.624-0.863,1.115-1.115
	C34.097,18.329,33.725,18.7,33.234,18.952z"/>
<path fill-rule="evenodd" clip-rule="evenodd" fill="#D3D3D3" d="M82.287,44.315c0.252-0.491,0.623-0.863,1.115-1.115
	C83.368,43.909,82.996,44.281,82.287,44.315z"/>
<path fill-rule="evenodd" clip-rule="evenodd" fill="#363636" d="M22.921,17.559c0.226-0.053,0.278-0.28,0.558-0.279
	c-0.252,0.491-0.624,0.864-1.115,1.115C22.462,18.029,22.854,17.957,22.921,17.559z"/>
<path fill-rule="evenodd" clip-rule="evenodd" fill="#D3D3D3" d="M20.692,19.788c0.626-0.86,1.37-1.604,2.229-2.229
	c-0.067,0.397-0.459,0.47-0.557,0.836c-0.401,0.156-0.68,0.435-0.836,0.836C21.162,19.33,21.09,19.722,20.692,19.788z"/>
<path fill-rule="evenodd" clip-rule="evenodd" fill="#363636" d="M20.413,20.346c0.053-0.226,0.28-0.277,0.279-0.558
	c0.398-0.066,0.47-0.458,0.836-0.557C21.276,19.723,20.905,20.094,20.413,20.346z"/>
<path fill-rule="evenodd" clip-rule="evenodd" fill="#363636" d="M9.265,83.613c-0.491-0.252-0.863-0.623-1.115-1.114
	C8.642,82.75,9.013,83.122,9.265,83.613z"/>
<path fill-rule="evenodd" clip-rule="evenodd" fill="#363636" d="M27.938,20.625c0.252-0.491,0.624-0.863,1.115-1.115
	C28.801,20.001,28.43,20.373,27.938,20.625z"/>
<path fill-rule="evenodd" clip-rule="evenodd" fill="#363636" d="M31.004,17.28c0.252-0.491,0.624-0.863,1.115-1.115
	C31.868,16.657,31.496,17.028,31.004,17.28z"/>
<path fill-rule="evenodd" clip-rule="evenodd" fill="#A6A6A6" d="M85.073,24.527c0.253-0.492,0.625-0.864,1.116-1.116
	C85.937,23.903,85.566,24.275,85.073,24.527z"/>
<path fill-rule="evenodd" clip-rule="evenodd" fill="#FFFFFF" d="M73.927,2.23c11.89,0,23.782,0,35.675,0c0.37,0,0.743,0,1.113,0
	c0.095,0,0.187,0,0.278,0c7.527,0,15.052,0,22.577,0c1.913-0.148,3.003,0.528,3.343,1.951c0,0.743,0,1.486,0,2.229
	c-0.178,1.028-0.953,1.462-1.949,1.672c-0.743,0-1.486,0-2.229,0c-0.465,0-0.93,0-1.395,0c-0.648,0-1.3,0-1.951,0
	c-0.465,0-0.928,0-1.393,0c-0.086-0.378-0.699-0.23-1.115-0.278c-0.489,0.16-1.637-0.337-1.671,0.278
	c0.018,1.199,0.747,3.142,0,4.181c-0.367,1.214-1.637,1.522-2.789,1.951c-0.711,0.124-1.28,0.391-1.671,0.836
	c-6.978,2.964-12.379,7.502-22.02,7.804c-0.465,0-0.93,0-1.393,0c-1.306,0.18-3.337-0.364-4.181,0.279
	c-4.312,0.799-7.03,3.189-8.084,7.246c-0.378,0.087-0.23,0.698-0.278,1.116c0,0.278,0,0.557,0,0.836
	c-0.457-0.046-0.457,1.718,0,1.672c0,0.557,0,1.114,0,1.672c0,1.394,0,2.787,0,4.181c0.052,1.631-0.571,2.586-1.393,3.344
	c-0.492,0.252-0.863,0.624-1.115,1.115c-0.642,0.896-2.442,1.892-3.901,2.788c-0.719,0.439-1.55,0.741-2.229,1.392
	c-0.238,0.228-0.603,0.335-0.837,0.559c-0.203,0.195-0.788,0.465-1.393,0.836c-0.604,0.369-1.545,0.737-2.23,1.394
	c-0.238,0.228-0.604,0.334-0.837,0.558c-0.237,0.227-0.602,0.333-0.836,0.558c-0.211,0.203-1.76,1.052-2.508,1.114
	c-0.929,0-1.857,0-2.787,0c-0.279,0-0.558,0-0.836,0c-1.82-1.373-2.653-3.613-3.623-5.574c-2.929-5.921-6.366-12.14-9.198-18.395
	c-0.453-0.663-0.627-1.603-1.116-2.23c-2.149-3.824-4.045-7.767-6.131-11.984c-0.616-1.247-1.08-2.756-2.229-3.623
	c-3.563,0.895-4.976,3.942-7.247,6.131c-0.491,0.252-0.863,0.623-1.115,1.115c-0.385,0.822-1.287,1.128-1.672,1.951
	c-0.583,0.347-1.047,0.811-1.394,1.394c-0.082,0.568-0.754,0.546-0.836,1.114c2.133,4.583,4.058,8.658,6.411,13.1
	c1.311,2.476,3.033,4.889,3.066,8.918c0,0.464,0,0.929,0,1.393c0,0.28,0,0.559,0,0.837c-1.354,1.411-3.409,1.847-5.296,2.508
	c-1.788,0.626-3.793,1.628-6.132,1.394c-2.339-2.026-3.288-5.445-4.738-8.361c-2.034,1.161-4.17,2.228-6.411,3.623
	c-1.547,0.965-2.162,1.573-2.787,3.902c-0.703,2.62-0.962,5.383-1.951,8.082c-0.452-0.199-0.452,1.314,0,1.115
	c1.827,3.841,3.902,7.433,5.574,11.428c0.326,0.416,0.346,1.14,0.836,1.393c1.096,2.429,2.374,4.438,3.623,7.247
	c0.394,0.885,0.953,1.784,0.836,2.509c-0.295,1.835-3.291,2.684-5.853,3.622c-0.569,0.21-1.025,0.629-1.672,0.838
	c-0.611,0.195-1.281,0.091-1.952,0.278c-1.413,0.394-2.637,1.195-3.901,0.835c-1.408-0.399-1.756-2.28-2.508-3.343
	c-0.734,0.288-1.71,0.332-2.788,0.278c-0.464,0-0.929,0-1.393,0c-1.179-0.029-1.666-0.752-1.951-1.673c0-0.929,0-1.858,0-2.787
	c0-0.187,0-0.372,0-0.558c0.615-0.034,0.118-1.183,0.278-1.672c0-0.372,0-0.743,0-1.115c0.624-0.12,0.113-1.373,0.279-1.951
	c0-0.371,0-0.743,0-1.114c0.616-0.035,0.119-1.183,0.279-1.673c0-0.371,0-0.743,0-1.114c0.623-0.12,0.112-1.374,0.278-1.95
	c0-0.28,0-0.559,0-0.837c0.623-0.12,0.113-1.374,0.278-1.951c0-0.372,0-0.743,0-1.115c0.616-0.035,0.119-1.182,0.279-1.673
	c0-0.278,0-0.557,0-0.835C2.623,63.036,2.145,62,2.297,61.595c0.652-7.532,4-14.886,6.689-22.576
	c0.618-1.768,1.07-3.613,1.672-5.296c0.727-2.033,1.353-3.95,2.229-5.853c0.764-1.658,1.522-3.757,2.509-5.296
	c0.94-1.466,2.154-3.427,3.623-4.738c0.86-0.626,1.604-1.37,2.23-2.23c2.516-2.408,5.642-4.206,8.64-6.131
	c-0.942-1.478-3.197-5.678,0-6.41c0.929,0,1.858,0,2.788,0c0.371,0,0.743,0,1.115,0c6.131,0,12.263,0,18.395,0
	c0.49-0.161,1.638,0.336,1.672-0.279c0.279,0,0.558,0,0.836,0c0.372,0,0.743,0,1.115,0c0.49-0.16,1.638,0.337,1.672-0.278
	c0.465,0,0.929,0,1.394,0c0.65,0,1.301,0,1.951,0c0.465,0,0.93,0,1.394,0C66.03,2.323,70.58,2.879,73.927,2.23z M60.548,5.017
	c-0.186,0-0.372,0-0.558,0c-0.371,0-0.743,0-1.114,0c-0.49,0.161-1.638-0.336-1.672,0.279c-0.464,0-0.929,0-1.394,0
	c-0.372,0-0.743,0-1.115,0c-0.371,0-0.743,0-1.114,0c-0.743,0-1.487,0-2.23,0c-3,0-6.546,0-10.034,0c-2.952,0-7.688-0.621-10.033,0
	c-0.264,0.07-0.364,0.438,0,0.557c0.231,0.698,0.763,1.095,0.836,1.951c-0.001,0.28,0.226,0.332,0.278,0.558
	c0,0.093,0,0.186,0,0.278c0,0.743,0,1.487,0,2.23c-2.568,2.541-6.209,4.009-8.918,6.41c-0.28-0.001-0.332,0.226-0.558,0.279
	c-0.86,0.625-1.603,1.369-2.229,2.229c0.001,0.28-0.226,0.332-0.279,0.558c-2.404,2.857-3.98,6.175-5.295,9.755
	c-2.414,6.568-4.793,13.306-6.968,19.789c-1.564,4.661-3.245,10.1-3.624,15.607c-0.623,0.12-0.112,1.375-0.278,1.951
	c0,0.372,0,0.744,0,1.115c-0.615,0.034-0.119,1.182-0.279,1.672c0,0.372,0,0.743,0,1.115c-0.623,0.12-0.113,1.373-0.279,1.951
	c0,0.371,0,0.743,0,1.114c-0.615,0.035-0.119,1.183-0.279,1.672c0,0.372,0,0.744,0,1.115c-0.623,0.12-0.113,1.373-0.278,1.951
	c0.137,1.251-0.141,2.089-0.279,3.065c0.744,0,1.487,0,2.23,0s1.487,0,2.23,0c0.383-0.012,0.612,0.131,0.836,0.279
	c0.252,0.491,0.624,0.862,1.115,1.114c0.161,0.583,0.691,0.796,0.558,1.673c3.376-0.897,6.557-1.99,9.476-3.345
	c-1.151-2.564-2.62-4.813-3.624-7.525c-0.412-0.609-0.543-1.5-1.114-1.951c-1.15-1.992-1.802-3.893-2.788-5.853
	c-0.916-1.822-2.337-3.653-2.787-5.854c0-0.928,0-1.857,0-2.786c0.094-1.656,0.663-3.452,1.115-5.296
	c0.417-1.703,0.567-3.733,1.394-5.295c0.55-1.042,2.475-2.56,3.345-3.066c0.395-0.23,0.698-0.316,1.115-0.558
	c1.851-1.072,5.658-3.921,7.246-3.623c1.373,0.258,2.315,2.41,3.066,3.902c0.889,1.768,1.375,3.361,2.229,4.738
	c2.6-0.745,5.012-1.678,7.525-2.508c0.058-2.796-0.902-4.887-1.672-6.41c-2.621-5.187-5.267-9.768-7.525-15.051
	c0-0.743,0-1.486,0-2.23c0.005-1.018,0.792-1.251,1.115-1.951c0.491-0.252,0.863-0.624,1.115-1.115
	c0.48-0.913,1.471-1.317,1.951-2.23c0.492-0.252,0.864-0.623,1.115-1.115c1.536-1.581,3.384-4.363,5.574-5.853
	c1.224-0.833,2.951-1.685,4.181-1.672c1.775,0.019,2.923,2.034,3.902,3.902c2.381,4.55,4.596,9.945,6.688,13.657
	c0.216,0.899,0.583,1.647,1.115,2.229c2.881,5.603,5.623,11.278,8.64,17.28c0.744,1.48,2.332,5.072,3.624,5.296
	c1.095,0.188,2.944-1.444,4.18-2.23c2.761-1.753,5.445-3.382,8.082-5.017c2.53-1.568,4.188-2.325,4.182-5.574
	c0-0.836,0-1.672,0-2.508c0-1.672,0-3.344,0-5.017c0.214-2.758,1.237-4.708,2.786-6.131c0.493-0.252,0.863-0.624,1.116-1.116
	c2.176-2.47,5.862-3.427,10.868-3.065c0.56,0,1.116,0,1.673,0c0.405-0.152,1.44,0.326,1.395-0.279
	c7.764-0.969,12.726-4.74,18.952-7.247c0.715-0.399,1.765-0.464,2.229-1.114c0.735-0.379,1.753-0.476,1.395-1.952
	c0-0.836,0-1.672,0-2.508c0.101-1.014,0.657-1.571,1.671-1.672c1.116,0,2.23,0,3.346,0c0.465,0,0.928,0,1.393,0s0.93,0,1.395,0
	c0.187,0,0.37,0,0.557,0c0.034,0.615,1.182,0.119,1.673,0.278c0.417-0.047,1.028,0.1,1.114-0.278
	c0.313-0.059,0.435-0.31,0.557-0.558c-0.05-0.413-0.673-0.255-1.114-0.278c-7.153,0-14.306,0-21.46,0c-15.422,0-30.845,0-46.266,0
	c-1.208,0-2.416,0-3.624,0C61.536,4.89,60.5,4.413,60.548,5.017z"/>
<path fill-rule="evenodd" clip-rule="evenodd" fill="#A6A6A6" d="M55.81,2.508c0.558,0,1.115,0,1.672,0
	C57.447,3.124,56.3,2.626,55.81,2.787C55.81,2.694,55.81,2.601,55.81,2.508z"/>
<path fill-rule="evenodd" clip-rule="evenodd" fill="#727272" d="M65.565,4.738c15.421,0,30.844,0,46.266,0c0,0.092,0,0.185,0,0.278
	c-15.422,0-30.845,0-46.266,0C65.565,4.923,65.565,4.831,65.565,4.738z"/>
<path fill-rule="evenodd" clip-rule="evenodd" fill="#727272" d="M133.291,4.738c0.441,0.023,1.064-0.134,1.114,0.278
	c-0.37,0-0.743,0-1.114,0C133.291,4.923,133.291,4.831,133.291,4.738z"/>
<path fill-rule="evenodd" clip-rule="evenodd" fill="#727272" d="M57.203,5.295c0.035-0.615,1.182-0.118,1.672-0.279
	c0,0.093,0,0.186,0,0.279C58.318,5.295,57.761,5.295,57.203,5.295z"/>
<path fill-rule="evenodd" clip-rule="evenodd" fill="#727272" d="M136.913,4.181c0.461,0.124,0.461,2.105,0,2.229
	C136.913,5.667,136.913,4.923,136.913,4.181z"/>
<path fill-rule="evenodd" clip-rule="evenodd" fill="#D3D3D3" d="M31.283,5.853c-0.364-0.12-0.264-0.487,0-0.557
	c2.345-0.621,7.081,0,10.033,0c3.487,0,7.034,0,10.034,0c0,0.093,0,0.186,0,0.279c-5.76,0-11.52,0-17.28,0c-0.093,0-0.187,0-0.279,0
	c-0.372,0-0.744,0-1.115,0c-0.093,0-0.186,0-0.279,0C31.956,5.597,31.334,5.44,31.283,5.853z"/>
<path fill-rule="evenodd" clip-rule="evenodd" fill="#D3D3D3" d="M132.734,8.082c0.743,0,1.486,0,2.229,0
	c-0.208,0.629-1.564,0.109-2.229,0.279C132.734,8.268,132.734,8.175,132.734,8.082z"/>
<path fill-rule="evenodd" clip-rule="evenodd" fill="#727272" d="M121.307,11.706c-0.465,0.65-1.515,0.715-2.229,1.114
	c1.056-1.135-1.578-2.518,0-3.344C120.742,9.297,119.927,11.598,121.307,11.706z"/>
<path fill-rule="evenodd" clip-rule="evenodd" fill="#727272" d="M98.73,20.067c0.465,0,0.93,0,1.395,0
	c0.046,0.604-0.989,0.126-1.395,0.279C98.73,20.253,98.73,20.16,98.73,20.067z"/>
<path fill-rule="evenodd" clip-rule="evenodd" fill="#727272" d="M53.58,28.428c-0.533-0.583-0.899-1.331-1.115-2.229
	c1.356-0.502,2.239-1.478,3.902-1.672c0.072,0.856,0.604,1.253,0.836,1.951c-1.399,0.366-2.38,1.149-3.623,1.672
	C53.58,28.243,53.58,28.335,53.58,28.428z"/>
<path fill-rule="evenodd" clip-rule="evenodd" fill="#727272" d="M85.073,30.379c-0.021,0.441,0.135,1.063-0.278,1.116
	C84.843,31.077,84.695,30.466,85.073,30.379z"/>
<path fill-rule="evenodd" clip-rule="evenodd" fill="#727272" d="M82.008,35.675c0.183-1.583-0.366-3.897,0.279-5.017
	c0,1.672,0,3.345,0,5.017C82.194,35.675,82.101,35.675,82.008,35.675z"/>
<path fill-rule="evenodd" clip-rule="evenodd" fill="#363636" d="M84.795,35.675c0.463,0.754,0.463,3.426,0,4.181
	C84.795,38.462,84.795,37.068,84.795,35.675z"/>
<path fill-rule="evenodd" clip-rule="evenodd" fill="#727272" d="M38.809,45.43c0.455-0.125,0.455,1.52,0,1.393
	C38.809,46.359,38.809,45.894,38.809,45.43z"/>
<path fill-rule="evenodd" clip-rule="evenodd" fill="#727272" d="M2.297,61.595C2.145,62,2.623,63.036,2.019,62.989
	C2.17,62.583,1.693,61.548,2.297,61.595z"/>
<path fill-rule="evenodd" clip-rule="evenodd" fill="#727272" d="M2.019,63.824c-0.161,0.491,0.336,1.638-0.279,1.673
	C1.9,65.007,1.403,63.859,2.019,63.824z"/>
<path fill-rule="evenodd" clip-rule="evenodd" fill="#727272" d="M4.526,65.497c-0.166,0.577,0.345,1.831-0.278,1.951
	C4.414,66.872,3.903,65.617,4.526,65.497z"/>
<path fill-rule="evenodd" clip-rule="evenodd" fill="#727272" d="M1.739,66.612c-0.165,0.577,0.345,1.831-0.278,1.951
	C1.626,67.985,1.116,66.732,1.739,66.612z"/>
<path fill-rule="evenodd" clip-rule="evenodd" fill="#727272" d="M4.248,68.563c-0.16,0.49,0.336,1.637-0.279,1.672
	C4.129,69.745,3.633,68.597,4.248,68.563z"/>
<path fill-rule="evenodd" clip-rule="evenodd" fill="#727272" d="M1.461,69.4c-0.166,0.576,0.345,1.83-0.278,1.95
	C1.348,70.773,0.838,69.519,1.461,69.4z"/>
<path fill-rule="evenodd" clip-rule="evenodd" fill="#727272" d="M3.969,71.35c-0.166,0.576,0.345,1.831-0.279,1.951
	C3.856,72.723,3.346,71.47,3.969,71.35z"/>
<path fill-rule="evenodd" clip-rule="evenodd" fill="#727272" d="M17.905,72.743c-0.49-0.253-0.51-0.977-0.836-1.393
	c1.161-0.141,1.626-0.975,2.787-1.115c-0.113,0.672,0.51,0.606,0.279,1.394C19.386,71.996,18.653,72.376,17.905,72.743z"/>
<path fill-rule="evenodd" clip-rule="evenodd" fill="#727272" d="M14.561,72.464c0.571,0.451,0.703,1.342,1.114,1.951
	c-1.19-0.899-2.677,1.916-3.344,0C12.213,72.904,14.09,73.388,14.561,72.464z"/>
<path fill-rule="evenodd" clip-rule="evenodd" fill="#727272" d="M1.183,72.464c-0.161,0.49,0.336,1.638-0.279,1.673
	C1.063,73.647,0.567,72.5,1.183,72.464z"/>
<path fill-rule="evenodd" clip-rule="evenodd" fill="#727272" d="M3.69,74.416c-0.16,0.49,0.337,1.639-0.279,1.672
	C3.572,75.598,3.075,74.451,3.69,74.416z"/>
<path fill-rule="evenodd" clip-rule="evenodd" fill="#727272" d="M0.903,75.251c-0.166,0.578,0.345,1.831-0.279,1.951
	C0.791,76.625,0.28,75.372,0.903,75.251z"/>
<path fill-rule="evenodd" clip-rule="evenodd" fill="#727272" d="M3.412,77.203c-0.166,0.577,0.345,1.831-0.278,1.951
	C3.299,78.576,2.789,77.323,3.412,77.203z"/>
<path fill-rule="evenodd" clip-rule="evenodd" fill="#727272" d="M0.625,78.318c-0.16,0.489,0.337,1.638-0.278,1.672
	C0.506,79.5,0.009,78.353,0.625,78.318z"/>
<path fill-rule="evenodd" clip-rule="evenodd" fill="#727272" d="M0.346,80.547c0,0.929,0,1.858,0,2.787
	C-0.115,83.034-0.115,80.848,0.346,80.547z"/>
<path fill-rule="evenodd" clip-rule="evenodd" fill="#363636" d="M5.084,82.219c0.208-0.628,1.563-0.109,2.23-0.278
	c0,0.093,0,0.187,0,0.278C6.571,82.219,5.827,82.219,5.084,82.219z"/>
<path fill-rule="evenodd" clip-rule="evenodd" fill="#D3D3D3" d="M124.372,5.574c0.569-0.64,2.314-0.102,3.346-0.279
	c0,0.093,0,0.186,0,0.279C126.603,5.574,125.488,5.574,124.372,5.574z"/>
<path fill-rule="evenodd" clip-rule="evenodd" fill="#D3D3D3" d="M32.397,8.64c0.46,0.124,0.46,2.106,0,2.23
	C32.397,10.126,32.397,9.383,32.397,8.64z"/>
<path fill-rule="evenodd" clip-rule="evenodd" fill="#D3D3D3" d="M64.729,53.512c0.929,0,1.858,0,2.787,0
	C67.215,53.974,65.029,53.974,64.729,53.512z"/>
<path fill-rule="evenodd" clip-rule="evenodd" fill="#A6A6A6" d="M29.889,3.066c0.297-0.633,1.752-0.106,2.508-0.279
	c0.093,0,0.187,0,0.279,0c0,0.093,0,0.186,0,0.279C31.748,3.066,30.818,3.066,29.889,3.066z"/>
<path fill-rule="evenodd" clip-rule="evenodd" fill="#A6A6A6" d="M122.701,7.246c0,0.836,0,1.672,0,2.508
	C122.238,9.543,122.238,7.458,122.701,7.246z"/>
<path fill-rule="evenodd" clip-rule="evenodd" fill="#727272" d="M120.75,15.05c0.391-0.445,0.96-0.712,1.671-0.836
	c-0.579,0.852,0.829,1.644,0.838,2.787c-0.531,0.119-0.701,0.601-1.395,0.558C121.689,16.525,121.081,15.927,120.75,15.05z"/>
<path fill-rule="evenodd" clip-rule="evenodd" fill="#A6A6A6" d="M26.823,22.575c0,0.744,0,1.487,0,2.23
	C26.364,24.682,26.364,22.699,26.823,22.575z"/>
<path fill-rule="evenodd" clip-rule="evenodd" fill="#727272" d="M93.157,23.133c0.844-0.643,2.875-0.099,4.181-0.279
	c0,0.093,0,0.186,0,0.279C95.944,23.133,94.55,23.133,93.157,23.133z"/>
<path fill-rule="evenodd" clip-rule="evenodd" fill="#727272" d="M49.956,27.313c0.488,0.627,0.663,1.567,1.116,2.23
	c-1.525,0.333-2.377,1.338-3.902,1.671c-0.231-0.697-0.764-1.094-0.836-1.95C47.676,28.75,49.077,28.292,49.956,27.313z"/>
<path fill-rule="evenodd" clip-rule="evenodd" fill="#A6A6A6" d="M8.986,57.972c0,0.929,0,1.858,0,2.786
	C8.525,60.458,8.525,58.273,8.986,57.972z"/>
<path fill-rule="evenodd" clip-rule="evenodd" fill="#727272" d="M58.875,2.508c0.12-0.623,1.374-0.113,1.951-0.278
	c0,0.092,0,0.185,0,0.278C60.176,2.508,59.526,2.508,58.875,2.508z"/>
<path fill-rule="evenodd" clip-rule="evenodd" fill="#727272" d="M129.389,8.082c0.651,0,1.303,0,1.951,0c0,0.093,0,0.186,0,0.279
	C130.763,8.195,129.509,8.706,129.389,8.082z"/>
</svg>
