<?xml version="1.0" encoding="utf-8"?>
<!-- Generator: Adobe Illustrator 15.0.0, SVG Export Plug-In  -->
<!DOCTYPE svg PUBLIC "-//W3C//DTD SVG 1.1//EN" "http://www.w3.org/Graphics/SVG/1.1/DTD/svg11.dtd" [
	<!ENTITY ns_flows "http://ns.adobe.com/Flows/1.0/">
]>
<svg version="1.1"
	 xmlns="http://www.w3.org/2000/svg" xmlns:xlink="http://www.w3.org/1999/xlink" xmlns:a="http://ns.adobe.com/AdobeSVGViewerExtensions/3.0/"
	 x="0px" y="0px" width="142px" height="142px" viewBox="-2.859 -25.764 142 142" enable-background="new -2.859 -25.764 142 142"
	 xml:space="preserve">
<defs>
</defs>
<path fill-rule="evenodd" clip-rule="evenodd" fill="#797979" d="M87.723,0c0.465,0,0.928,0,1.393,0c0,0.279,0,0.558,0,0.836
	c-0.623,0.121-0.112,1.374-0.278,1.952c-0.371,0-0.744,0-1.114,0C87.723,1.858,87.723,0.93,87.723,0z"/>
<path fill-rule="evenodd" clip-rule="evenodd" fill="#343434" d="M89.115,0.836c0,0.65,0,1.301,0,1.952c-0.093,0-0.187,0-0.278,0
	C89.003,2.21,88.492,0.957,89.115,0.836z"/>
<path fill-rule="evenodd" clip-rule="evenodd" fill="#171717" d="M96.083,2.788c-0.2-0.453,1.314-0.453,1.115,0
	C96.826,2.788,96.455,2.788,96.083,2.788z"/>
<path fill-rule="evenodd" clip-rule="evenodd" fill="#171717" d="M98.034,2.788c11.241-0.465,24.434-0.465,35.675,0
	C121.816,2.788,109.927,2.788,98.034,2.788z"/>
<path fill-rule="evenodd" clip-rule="evenodd" fill="#797979" d="M59.572,3.066c0-0.093,0-0.186,0-0.278c0.558,0,1.115,0,1.672,0
	c0,0.092,0,0.185,0,0.278C60.687,3.066,60.13,3.066,59.572,3.066z"/>
<path fill-rule="evenodd" clip-rule="evenodd" fill="#BFBFBF" d="M61.244,3.066c0-0.093,0-0.186,0-0.278c1.208,0,2.416,0,3.623,0
	C64.208,3.429,62.366,2.887,61.244,3.066z"/>
<path fill-rule="evenodd" clip-rule="evenodd" fill="#797979" d="M55.67,3.345c0-0.092,0-0.186,0-0.278c0.371,0,0.744,0,1.115,0
	c0,0.093,0,0.186,0,0.278C56.414,3.345,56.041,3.345,55.67,3.345z"/>
<path fill-rule="evenodd" clip-rule="evenodd" fill="#BFBFBF" d="M56.785,3.345c0-0.092,0-0.186,0-0.278c0.372,0,0.743,0,1.115,0
	C57.848,3.479,57.226,3.322,56.785,3.345z"/>
<path fill-rule="evenodd" clip-rule="evenodd" fill="#BFBFBF" d="M53.44,3.345c-4.832,0.464-11.612,0.464-16.444,0
	C42.478,3.345,47.959,3.345,53.44,3.345z"/>
<path fill-rule="evenodd" clip-rule="evenodd" fill="#BFBFBF" d="M60.687,5.575c0.296-0.633,1.752-0.106,2.509-0.278
	c0,0.092,0,0.185,0,0.278C62.359,5.575,61.522,5.575,60.687,5.575z"/>
<path fill-rule="evenodd" clip-rule="evenodd" fill="#BFBFBF" d="M88.837,5.575c-0.417-0.048-1.028,0.1-1.114-0.278
	c0.488,0.16,1.637-0.337,1.671,0.278c-0.093,0-0.187,0-0.278,0C89.022,5.575,88.929,5.575,88.837,5.575z"/>
<path fill-rule="evenodd" clip-rule="evenodd" fill="#171717" d="M96.361,5.575c11.893-0.464,25.735-0.464,37.626,0
	c-12.263,0.186-25.27-0.372-37.069,0.279C96.64,5.854,96.588,5.628,96.361,5.575z"/>
<path fill-rule="evenodd" clip-rule="evenodd" fill="#BFBFBF" d="M56.506,5.854c0.086-0.378,0.698-0.231,1.115-0.279
	c0,0.093,0,0.186,0,0.279C57.25,5.854,56.877,5.854,56.506,5.854z"/>
<path fill-rule="evenodd" clip-rule="evenodd" fill="#797979" d="M57.621,5.854c0-0.093,0-0.186,0-0.279c0.372,0,0.743,0,1.115,0
	c0,0.093,0,0.186,0,0.279C58.364,5.854,57.993,5.854,57.621,5.854z"/>
<path fill-rule="evenodd" clip-rule="evenodd" fill="#797979" d="M52.883,6.132c0-0.093,0-0.186,0-0.279c0.558,0,1.115,0,1.672,0
	c0,0.093,0,0.186,0,0.279C53.998,6.132,53.44,6.132,52.883,6.132z"/>
<path fill-rule="evenodd" clip-rule="evenodd" fill="#171717" d="M127.3,5.854c1.029,0.177,2.774-0.361,3.344,0.279
	C129.613,5.954,127.867,6.493,127.3,5.854z"/>
<path fill-rule="evenodd" clip-rule="evenodd" fill="#171717" d="M128.692,8.64c0.848,0.175,2.399-0.356,2.786,0.279
	C130.634,8.745,129.079,9.276,128.692,8.64z"/>
<path fill-rule="evenodd" clip-rule="evenodd" fill="#171717" d="M122.281,9.476c0.413,0.052,0.257,0.674,0.28,1.116
	C122.147,10.54,122.306,9.918,122.281,9.476z"/>
<path fill-rule="evenodd" clip-rule="evenodd" fill="#171717" d="M125.07,9.476c0.376,0.087,0.23,0.698,0.278,1.116
	C124.936,10.54,125.092,9.918,125.07,9.476z"/>
<path fill-rule="evenodd" clip-rule="evenodd" fill="#171717" d="M100.542,20.625c0.053-0.413,0.674-0.256,1.114-0.279
	C101.606,20.759,100.983,20.602,100.542,20.625z"/>
<path fill-rule="evenodd" clip-rule="evenodd" fill="#171717" d="M98.313,20.904c0-0.093,0-0.186,0-0.279c0.371,0,0.743,0,1.114,0
	C99.376,21.038,98.753,20.881,98.313,20.904z"/>
<path fill-rule="evenodd" clip-rule="evenodd" fill="#171717" d="M100.264,23.412c-0.046-0.604,0.988-0.126,1.393-0.279
	C101.704,23.738,100.669,23.26,100.264,23.412z"/>
<path fill-rule="evenodd" clip-rule="evenodd" fill="#797979" d="M93.574,23.691c0.12-0.623,1.375-0.113,1.951-0.279
	c0,0.093,0,0.186,0,0.279C94.875,23.691,94.226,23.691,93.574,23.691z"/>
<path fill-rule="evenodd" clip-rule="evenodd" fill="#797979" d="M81.868,32.053c0.093,0,0.187,0,0.279,0c0,1.393,0,2.787,0,4.18
	c-0.093,0-0.187,0-0.279,0C81.868,34.839,81.868,33.446,81.868,32.053z"/>
<path fill-rule="evenodd" clip-rule="evenodd" fill="#171717" d="M84.655,35.397c0.605-0.047,0.126,0.989,0.278,1.393
	c-0.092,0-0.184,0-0.278,0C84.655,36.326,84.655,35.862,84.655,35.397z"/>
<path fill-rule="evenodd" clip-rule="evenodd" fill="#343434" d="M81.868,36.233c0.093,0,0.187,0,0.279,0c0,0.65,0,1.301,0,1.951
	c-0.093,0-0.187,0-0.279,0C81.868,37.534,81.868,36.883,81.868,36.233z"/>
<path fill-rule="evenodd" clip-rule="evenodd" fill="#171717" d="M87.723,0c0,0.93,0,1.858,0,2.788c-0.187,0-0.373,0-0.559,0
	C87.856,2.366,86.993,0.387,87.723,0z"/>
<path fill-rule="evenodd" clip-rule="evenodd" fill="#797979" d="M18.88,18.396c0.626-0.86,1.37-1.604,2.23-2.23
	C20.484,17.025,19.74,17.77,18.88,18.396z"/>
<path fill-rule="evenodd" clip-rule="evenodd" fill="#797979" d="M8.01,41.528c-0.783-0.331-1.603-0.627-2.508-0.836
	c-0.23-0.788,0.393-0.722,0.279-1.394c1.484-0.348,2.472,1.43,3.066,0.279C8.658,40.318,8.408,40.997,8.01,41.528z"/>
<path fill-rule="evenodd" clip-rule="evenodd" fill="#343434" d="M5.223,85.565c0.16-0.581,1.803-0.349,1.672,0.278
	C6.566,85.523,5.911,85.528,5.223,85.565z"/>
<path fill-rule="evenodd" clip-rule="evenodd" fill="#343434" d="M15.535,48.774c0.371,0.28,1.038,0.264,1.115,0.837
	c-0.412-0.146-0.703-0.412-1.115-0.559C15.535,48.961,15.535,48.868,15.535,48.774z"/>
<path fill-rule="evenodd" clip-rule="evenodd" fill="#343434" d="M30.028,22.855c0.083-0.568,0.754-0.547,0.836-1.115
	c0.093,0,0.186,0,0.279,0C30.892,22.231,30.52,22.603,30.028,22.855z"/>
<path fill-rule="evenodd" clip-rule="evenodd" fill="#BFBFBF" d="M30.864,21.74c0.346-0.583,0.811-1.047,1.394-1.394
	c-0.188,0.647-0.926,0.746-1.114,1.394C31.05,21.74,30.958,21.74,30.864,21.74z"/>
<path fill-rule="evenodd" clip-rule="evenodd" fill="#BFBFBF" d="M33.931,18.396c0.251-0.491,0.623-0.863,1.115-1.115
	C34.793,17.772,34.421,18.144,33.931,18.396z"/>
<path fill-rule="evenodd" clip-rule="evenodd" fill="#171717" d="M36.439,15.608c0.568-0.082,0.546-0.754,1.115-0.836
	c-0.252,0.491-0.624,0.863-1.115,1.115C36.439,15.794,36.439,15.701,36.439,15.608z"/>
<path fill-rule="evenodd" clip-rule="evenodd" fill="#BFBFBF" d="M36.439,15.608c0.346-0.583,0.811-1.047,1.394-1.394
	c-0.053,0.226-0.28,0.277-0.279,0.558C36.985,14.854,37.007,15.526,36.439,15.608z"/>
<path fill-rule="evenodd" clip-rule="evenodd" fill="#171717" d="M82.147,45.152c0.347-0.583,0.811-1.048,1.394-1.394
	C83.195,44.341,82.73,44.805,82.147,45.152z"/>
<path fill-rule="evenodd" clip-rule="evenodd" fill="#BFBFBF" d="M86.606,27.036c0.347-0.583,0.812-1.048,1.395-1.394
	C87.654,26.225,87.189,26.689,86.606,27.036z"/>
<path fill-rule="evenodd" clip-rule="evenodd" fill="#171717" d="M135.66,8.362c0.252-0.491,0.623-0.863,1.113-1.115
	C136.523,7.738,136.15,8.11,135.66,8.362z"/>
<path fill-rule="evenodd" clip-rule="evenodd" fill="#BFBFBF" d="M81.868,45.152c0.439-0.675,0.998-1.233,1.673-1.672
	c0,0.093,0,0.186,0,0.278c-0.583,0.346-1.047,0.811-1.394,1.394C82.055,45.152,81.961,45.152,81.868,45.152z"/>
<path fill-rule="evenodd" clip-rule="evenodd" fill="#BFBFBF" d="M14.142,48.774c0.358-0.477,0.576-1.096,1.393-1.113
	c-0.068,0.301-0.554,0.188-0.557,0.557C14.612,48.315,14.54,48.708,14.142,48.774z"/>
<path fill-rule="evenodd" clip-rule="evenodd" fill="#171717" d="M119.494,13.1c0.185-0.375,0.598-0.519,1.116-0.558
	C120.426,12.917,120.014,13.062,119.494,13.1z"/>
<path fill-rule="evenodd" clip-rule="evenodd" fill="#BFBFBF" d="M20.831,20.068c0.682-0.897,1.397-1.762,2.509-2.23
	c-0.124,0.248-0.245,0.499-0.558,0.558C21.959,18.781,21.653,19.683,20.831,20.068z"/>
<path fill-rule="evenodd" clip-rule="evenodd" fill="#BFBFBF" d="M11.912,47.381c0.099-0.366,0.491-0.438,0.558-0.836
	c0.366-0.099,0.438-0.49,0.836-0.557C12.959,46.571,12.495,47.035,11.912,47.381z"/>
<path fill-rule="evenodd" clip-rule="evenodd" fill="#797979" d="M28.914,20.068c0.252-0.491,0.624-0.863,1.115-1.115
	C29.776,19.445,29.405,19.816,28.914,20.068z"/>
<path fill-rule="evenodd" clip-rule="evenodd" fill="#BFBFBF" d="M30.028,18.953c0.69-0.705,1.097-1.691,1.951-2.23
	C31.421,17.559,30.933,18.463,30.028,18.953z"/>
<path fill-rule="evenodd" clip-rule="evenodd" fill="#BFBFBF" d="M32.816,15.887c0.251-0.491,0.624-0.863,1.115-1.115
	C33.679,15.264,33.307,15.635,32.816,15.887z"/>
<path fill-rule="evenodd" clip-rule="evenodd" fill="#BFBFBF" d="M35.324,13.1c0.439-0.675,0.997-1.233,1.672-1.672
	C36.557,12.103,35.999,12.66,35.324,13.1z"/>
<path fill-rule="evenodd" clip-rule="evenodd" fill="#797979" d="M80.477,42.922c0.25-0.491,0.623-0.863,1.113-1.115
	C81.338,42.298,80.967,42.67,80.477,42.922z"/>
<path fill-rule="evenodd" clip-rule="evenodd" fill="#797979" d="M63.195,5.575c0-0.093,0-0.186,0-0.278c8.176,0,16.352,0,24.527,0
	c0.086,0.378,0.697,0.23,1.114,0.278c-0.173,0.756,0.354,2.212-0.279,2.508c-1.723,0.515-0.2-2.216-1.113-2.508
	C79.36,5.575,71.278,5.575,63.195,5.575z"/>
<path fill-rule="evenodd" clip-rule="evenodd" fill="#171717" d="M20.831,20.068c0.822-0.385,1.128-1.287,1.951-1.672
	c-0.533,0.768-1.183,1.418-1.951,1.951C20.831,20.253,20.831,20.161,20.831,20.068z"/>
<path fill-rule="evenodd" clip-rule="evenodd" fill="#343434" d="M87.444,5.575c0.913,0.292-0.609,3.023,1.113,2.508
	c0.634-0.296,0.106-1.752,0.279-2.508c0.092,0,0.186,0,0.278,0c-0.221,1.079,0.711,3.313-1.114,2.787
	C86.847,8.401,87.711,6.422,87.444,5.575z"/>
<path fill-rule="evenodd" clip-rule="evenodd" fill="#797979" d="M9.683,45.43c1.052-0.707,1.735,0.937,2.787,1.115
	c-0.067,0.398-0.459,0.47-0.558,0.836c-0.24,0.226-0.165,0.765-0.557,0.837c0-0.187,0-0.372,0-0.557
	c-0.865-0.211-1.462-1.68-2.23-1.116C9.512,46.374,9.167,45.473,9.683,45.43z"/>
<path fill-rule="evenodd" clip-rule="evenodd" fill="#343434" d="M58.178,3.066c-0.047-0.604,0.988-0.126,1.394-0.278
	c0,0.092,0,0.185,0,0.278C59.107,3.066,58.643,3.066,58.178,3.066z"/>
<path fill-rule="evenodd" clip-rule="evenodd" fill="#FFFFFF" d="M89.115,2.788c0.186,0,0.372,0,0.557,0
	c2.117,1.042,4.569,1.749,6.689,2.787c0.227,0.053,0.278,0.279,0.557,0.279c0.527,0.031,0.194,0.921,0.838,0.836
	c0.326,3.3-1.448,4.497-2.23,6.689c0.868,1.828,1.901,3.488,2.509,5.575c0,0.743,0,1.486,0,2.229
	c-0.225,1.077-0.964,1.638-1.673,2.229c-0.278,0-0.557,0-0.836,0c-0.576,0.166-1.831-0.344-1.951,0.279
	c-2.67-0.161-3.702,1.313-5.573,1.951c-0.583,0.346-1.048,0.811-1.395,1.394c-1.264,2.173-2.326,4.55-1.951,8.361
	c0,0.465,0,0.929,0,1.393c0,1.301,0,2.602,0,3.902c0.048,1.348-0.569,2.032-1.114,2.787c-0.675,0.439-1.233,0.997-1.673,1.672
	c-0.104,0.628-1.458,0.928-2.229,1.393c-0.112,0.067-0.183,0.515-0.278,0.558c-3.91,1.763-7.771,5.153-11.985,6.968
	c-1.021,0-2.043,0-3.066,0c-1.979-0.409-2.974-3.135-4.18-5.574c-2.686-5.431-5.949-11.726-8.362-16.723
	c-0.412-0.609-0.543-1.5-1.115-1.95c-2.204-4.445-4.428-8.806-6.688-13.378c-0.721-1.458-1.258-3.127-2.509-4.18
	c-1.447,0.411-2.59,1.125-3.623,1.951c-0.583,0.346-1.048,0.811-1.394,1.394c0,0.092,0,0.186,0,0.279
	c-0.346,0.583-0.811,1.047-1.394,1.394c-0.492,0.251-0.863,0.624-1.115,1.115c-0.183,1.025-1.028,1.388-1.673,1.951
	c-0.583,0.346-1.047,0.811-1.394,1.394c-0.082,0.568-0.753,0.547-0.836,1.115c-1.276,1.11-0.807,1.824,0.279,3.902
	c1.084,2.075,2.301,4.614,3.344,6.689c2.247,4.469,4.502,7.023,5.017,12.264c0,0.557,0,1.115,0,1.671c0,0.28,0,0.559,0,0.837
	c-1.155,1.229-3.268,1.812-5.296,2.508c-1.858,0.639-4.383,1.931-6.132,1.394c-1.142-0.35-2.142-2.618-2.787-3.901
	c-0.785-1.561-1.367-3.108-1.951-4.46c-2.509,1.115-4.466,2.781-6.968,3.903c-0.817,0.018-1.035,0.637-1.393,1.113
	c0.078,0.451-0.264,0.481-0.279,0.837c-0.795,2.655-1.192,4.849-1.951,7.804c-0.606,2.359-0.642,3.168,0.558,5.574
	c2.915,5.848,6.929,13.036,9.476,18.953c0,0.464,0,0.928,0,1.393c-0.697,2.076-3.144,2.345-5.017,3.065
	c-1.893,0.73-3.812,1.713-5.853,1.951c-0.743,0-1.486,0-2.229,0c-1.213-0.273-1.716-1.258-1.952-2.508
	c0.131-0.627-1.512-0.859-1.672-0.278c-0.557,0-1.115,0-1.672,0c-0.464,0-0.929,0-1.393,0c-3.803-0.689-1.354-5.484-1.673-8.92
	c0.378-0.086,0.231-0.696,0.279-1.114c-0.102-1.774,0.496-2.849,0.279-4.738c0.377-0.086,0.23-0.698,0.278-1.115
	c0.412-11.2,3.654-19.572,6.689-28.149c0.397-0.531,0.648-1.21,0.836-1.951c2.593-7.813,4.8-16.01,10.033-21.182
	c0.86-0.626,1.604-1.37,2.23-2.23c2.589-2.242,5.33-4.332,8.64-5.853c-0.685-1.797-3.183-5.423-0.278-6.688
	c2.046-0.184,4.828,0.368,6.41-0.279c0.372,0,0.743,0,1.115,0c4.832,0.464,11.612,0.464,16.444,0c0.186,0,0.371,0,0.557,0
	c0.557,0,1.115,0,1.672,0c0.371,0,0.744,0,1.115,0c0.441-0.023,1.063,0.134,1.115-0.278c0.093,0,0.185,0,0.278,0
	c0.465,0,0.929,0,1.394,0c0.558,0,1.115,0,1.672,0c1.122-0.179,2.963,0.362,3.623-0.278c7.434,0,14.866,0,22.297,0
	c0.186,0,0.372,0,0.559,0c0.37,0,0.743,0,1.114,0C88.929,2.788,89.022,2.788,89.115,2.788z M60.687,5.575c-0.093,0-0.186,0-0.278,0
	c-0.558,0-1.115,0-1.672,0c-0.372,0-0.743,0-1.115,0c-0.417,0.047-1.029-0.1-1.115,0.279c-0.092,0-0.186,0-0.278,0
	c-0.558,0-1.115,0-1.673,0c-0.557,0-1.114,0-1.672,0c-4.928,0-11.291,0-16.166,0c-2.009,0-4.209-0.36-5.574,0
	c-0.264,0.07-0.364,0.438,0,0.557c0.658,1.679,1.748,2.905,1.394,4.459c-0.331,1.45-2.692,2.456-4.459,3.623
	c-1.898,1.254-3.692,2.487-4.738,3.345c-1.112,0.468-1.827,1.333-2.509,2.23c0,0.093,0,0.185,0,0.278
	c-4.888,5.146-7.007,13.06-9.476,20.625c-0.464,0.372-0.433,1.24-0.836,1.672c0.034,1.242-0.688,1.728-0.836,2.787
	c-0.516,0.042-0.171,0.944-0.558,1.115C7.47,52.321,5.081,57.366,4.666,64.382c-0.413,0.053-0.255,0.675-0.279,1.116
	c0,0.557,0,1.114,0,1.672c-0.413,0.051-0.255,0.673-0.278,1.115c0.102,1.773-0.496,2.849-0.279,4.737
	c-0.413,0.053-0.255,0.675-0.279,1.115c0.102,1.774-0.496,2.849-0.279,4.738c-0.413,0.052-0.255,0.674-0.278,1.114
	c0.195,1.218-0.474,1.57-0.279,2.787c-0.199,0.453,1.314,0.453,1.115,0c0.279,0,0.557,0,0.836,0c0.836,0,1.672,0,2.508,0
	c1.601,0.258,2.13,1.587,2.508,3.066c3.467-0.715,6.214-2.146,9.476-3.066c-0.589-1.938-1.639-3.537-2.508-5.295
	c-1.748-3.535-3.579-7.12-5.295-10.591c-0.91-1.842-1.997-3.53-2.508-5.575c0-1.021,0-2.043,0-3.065
	c0.861-3.32,1.562-6.8,2.508-10.033c0.392-0.072,0.317-0.611,0.557-0.837c0.583-0.346,1.047-0.81,1.394-1.393
	c1.735-1.237,4.065-2.69,5.574-3.623c0.35-0.216,0.971-0.331,1.394-0.558c1.026-0.55,1.624-1.337,2.787-1.114
	c0.357,0.068,0.833,0.298,1.115,0.558c0.273,0.25,0.303,0.738,0.557,1.115c1.449,2.141,2.471,4.958,3.623,6.967
	c2.68-0.757,5.169-1.705,7.804-2.508c-0.455-1.971-0.707-4.179-1.394-5.574c-0.565-1.148-1.136-2.329-1.672-3.345
	c-0.154-0.292-0.684-0.569-0.836-0.836c-0.12-0.212,0.105-0.615,0-0.836c-0.049-0.104-0.49-0.155-0.557-0.279
	c-1.311-2.428-2.158-4.885-3.345-7.247c-0.993-1.974-2.142-3.309-1.951-5.017c0.184-1.643,1.453-2.383,2.508-3.623
	c0.491-0.252,0.863-0.623,1.115-1.115c0.905-0.49,1.393-1.394,1.951-2.23c0.156-0.401,0.435-0.68,0.836-0.836
	c0.491-0.252,0.863-0.624,1.115-1.115c0.098-0.924,0.834-1.209,1.394-1.672c0.675-0.44,1.232-0.998,1.672-1.672
	c1.025-0.926,2.326-1.575,3.902-1.952c0.371,0,0.743,0,1.114,0c2.12,0.216,2.81,2.328,3.624,3.902
	c2.594,5.022,5.058,10.241,7.525,15.051c0.453,0.663,0.627,1.603,1.115,2.229c2.144,4.079,4.402,9.075,6.689,13.378
	c0.452,0.852,0.895,1.831,1.393,2.788c0.692,1.326,2.104,4.518,3.345,4.738c1.242,0.22,2.607-1.128,3.902-1.951
	c3.979-2.53,7.415-4.584,10.871-6.689c0.49-0.251,0.861-0.624,1.113-1.115c0.063-0.216,0.009-0.549,0.278-0.557
	c0-0.372,0-0.744,0-1.115c0.623-0.12,0.112-1.373,0.279-1.951c0-0.65,0-1.301,0-1.951c0-1.394,0-2.787,0-4.18
	c0-0.372,0-0.743,0-1.116c1.033-5.376,4.201-8.62,9.476-9.754c0.417-0.047,1.03,0.1,1.116-0.279c0.945-0.076,2.26,0.216,2.786-0.279
	c-0.27-2.611-1.935-3.824-2.508-6.132c0-0.65,0-1.301,0-1.951c0.404-1.826,1.699-2.761,1.951-4.738
	c-1.927-0.673-3.782-1.421-5.575-2.229c-0.034-0.616-1.183-0.118-1.671-0.278c-8.176,0-16.352,0-24.527,0
	C62.438,5.468,60.983,4.942,60.687,5.575z"/>
<path fill-rule="evenodd" clip-rule="evenodd" fill="#343434" d="M53.998,3.345c0.035-0.615,1.182-0.118,1.672-0.278
	c0,0.093,0,0.186,0,0.278C55.113,3.345,54.555,3.345,53.998,3.345z"/>
<path fill-rule="evenodd" clip-rule="evenodd" fill="#343434" d="M58.736,5.575c0.558,0,1.114,0,1.672,0
	c-0.035,0.616-1.183,0.118-1.672,0.279C58.736,5.76,58.736,5.667,58.736,5.575z"/>
<path fill-rule="evenodd" clip-rule="evenodd" fill="#343434" d="M54.555,5.854c0.558,0,1.115,0,1.673,0
	c-0.035,0.616-1.183,0.118-1.673,0.279C54.555,6.04,54.555,5.947,54.555,5.854z"/>
<path fill-rule="evenodd" clip-rule="evenodd" fill="#BFBFBF" d="M31.144,6.411c-0.364-0.12-0.264-0.487,0-0.557
	c1.364-0.36,3.565,0,5.574,0c4.875,0,11.237,0,16.166,0c0,0.093,0,0.186,0,0.279c-7.246,0-14.493,0-21.739,0
	C31.144,6.225,31.144,6.318,31.144,6.411z"/>
<path fill-rule="evenodd" clip-rule="evenodd" fill="#343434" d="M40.898,9.476c-0.199-0.451,1.314-0.451,1.114,0
	C41.642,9.476,41.27,9.476,40.898,9.476z"/>
<path fill-rule="evenodd" clip-rule="evenodd" fill="#797979" d="M93.018,12.542c0,0.65,0,1.301,0,1.951
	C92.559,14.456,92.559,12.58,93.018,12.542z"/>
<path fill-rule="evenodd" clip-rule="evenodd" fill="#343434" d="M91.623,21.183c0.052-0.413,0.676-0.255,1.116-0.279
	C92.653,21.282,92.04,21.135,91.623,21.183z"/>
<path fill-rule="evenodd" clip-rule="evenodd" fill="#797979" d="M54.276,30.659c-0.488-0.627-0.662-1.567-1.115-2.229
	c1.356-0.502,2.239-1.478,3.902-1.672c0.267,0.569,0.569,1.103,0.836,1.672c-0.879,0.979-2.281,1.435-3.624,1.951
	C54.276,30.473,54.276,30.566,54.276,30.659z"/>
<path fill-rule="evenodd" clip-rule="evenodd" fill="#343434" d="M82.147,30.937c0,0.373,0,0.744,0,1.116c-0.093,0-0.187,0-0.279,0
	C81.917,31.635,81.769,31.024,82.147,30.937z"/>
<path fill-rule="evenodd" clip-rule="evenodd" fill="#797979" d="M51.768,31.773c-1.303,0.556-2.35,1.367-3.902,1.673
	c-0.232-0.697-0.764-1.094-0.836-1.951c1.531-0.234,2.092-1.438,3.623-1.672C51.225,30.273,51.356,31.164,51.768,31.773z"/>
<path fill-rule="evenodd" clip-rule="evenodd" fill="#171717" d="M82.147,38.184c-0.167,0.578,0.344,1.831-0.279,1.951
	c0-0.65,0-1.301,0-1.951C81.961,38.184,82.055,38.184,82.147,38.184z"/>
<path fill-rule="evenodd" clip-rule="evenodd" fill="#343434" d="M84.934,36.79c-0.178,1.214,0.365,3.151-0.278,3.902
	c0-1.301,0-2.601,0-3.902C84.75,36.79,84.842,36.79,84.934,36.79z"/>
<path fill-rule="evenodd" clip-rule="evenodd" fill="#797979" d="M11.355,40.971c0.917,0.57,2.735,0.238,2.229,2.23
	c-0.83,0.557-1.631-0.84-3.066-0.558C10.922,42.21,10.891,41.343,11.355,40.971z"/>
<path fill-rule="evenodd" clip-rule="evenodd" fill="#797979" d="M38.669,47.381c0-0.557,0-1.114,0-1.671
	C39.126,45.663,39.126,47.428,38.669,47.381z"/>
<path fill-rule="evenodd" clip-rule="evenodd" fill="#797979" d="M8.847,61.316c-0.462-0.391-0.462-2.675,0-3.065
	C8.847,59.273,8.847,60.295,8.847,61.316z"/>
<path fill-rule="evenodd" clip-rule="evenodd" fill="#343434" d="M4.666,64.382c-0.048,0.418,0.099,1.03-0.279,1.116
	C4.411,65.057,4.253,64.435,4.666,64.382z"/>
<path fill-rule="evenodd" clip-rule="evenodd" fill="#343434" d="M4.387,67.17c-0.047,0.417,0.1,1.028-0.278,1.115
	C4.131,67.843,3.974,67.221,4.387,67.17z"/>
<path fill-rule="evenodd" clip-rule="evenodd" fill="#343434" d="M1.321,69.678c-0.048,0.417,0.099,1.029-0.278,1.115
	C1.066,70.353,0.909,69.73,1.321,69.678z"/>
<path fill-rule="evenodd" clip-rule="evenodd" fill="#343434" d="M3.83,73.022c-0.047,0.417,0.1,1.029-0.279,1.115
	C3.574,73.697,3.417,73.075,3.83,73.022z"/>
<path fill-rule="evenodd" clip-rule="evenodd" fill="#343434" d="M0.764,75.531c-0.047,0.418,0.1,1.028-0.279,1.114
	C0.508,76.205,0.351,75.583,0.764,75.531z"/>
<path fill-rule="evenodd" clip-rule="evenodd" fill="#343434" d="M3.272,78.876c-0.047,0.416,0.1,1.028-0.278,1.114
	C3.017,79.55,2.859,78.928,3.272,78.876z"/>
<path fill-rule="evenodd" clip-rule="evenodd" fill="#343434" d="M21.946,81.942c0.455-0.126,0.455,1.519,0,1.393
	C21.946,82.87,21.946,82.406,21.946,81.942z"/>
<path fill-rule="evenodd" clip-rule="evenodd" fill="#343434" d="M4.666,82.777c0.296-0.632,1.752-0.106,2.508-0.278
	c0,0.093,0,0.187,0,0.278C6.338,82.777,5.502,82.777,4.666,82.777z"/>
<path fill-rule="evenodd" clip-rule="evenodd" fill="#343434" d="M2.714,82.777c0.372,0,0.744,0,1.115,0
	C4.029,83.23,2.515,83.23,2.714,82.777z"/>
<path fill-rule="evenodd" clip-rule="evenodd" fill="#343434" d="M2.158,85.565c0.464,0,0.929,0,1.393,0
	C3.676,86.02,2.031,86.02,2.158,85.565z"/>
<path fill-rule="evenodd" clip-rule="evenodd" fill="#BFBFBF" d="M29.471,3.624c1.583-0.647,4.364-0.095,6.41-0.279
	C34.299,3.992,31.518,3.44,29.471,3.624z"/>
<path fill-rule="evenodd" clip-rule="evenodd" fill="#BFBFBF" d="M98.034,18.953c0.615,0.034,0.118,1.182,0.278,1.672
	c0,0.093,0,0.186,0,0.279c-0.016,0.17-0.042,0.33-0.278,0.279C98.034,20.439,98.034,19.696,98.034,18.953z"/>
<path fill-rule="evenodd" clip-rule="evenodd" fill="#BFBFBF" d="M64.31,54.07c1.022,0,2.045,0,3.066,0
	C66.986,54.532,64.7,54.532,64.31,54.07z"/>
<path fill-rule="evenodd" clip-rule="evenodd" fill="#BFBFBF" d="M8.847,88.352c0.743,0,1.486,0,2.229,0
	C10.953,88.812,8.97,88.812,8.847,88.352z"/>
<path fill-rule="evenodd" clip-rule="evenodd" fill="#343434" d="M89.672,2.788c2.853,0.13,4.647-0.287,6.411,0
	c0.372,0,0.743,0,1.115,0c0.279,0,0.558,0,0.836,0c11.893,0,23.782,0,35.675,0c2.694-0.333,3.963,2.117,3.064,4.459
	c-0.49,0.251-0.861,0.624-1.113,1.115c-0.802,0.779-2.631,0.527-4.182,0.558c-0.387-0.636-1.938-0.104-2.786-0.279
	c-1.208,0-2.416,0-3.622,0c0,0.279,0,0.558,0,0.836c0.021,0.442-0.135,1.063,0.278,1.116c-0.171,0.666,0.349,2.022-0.278,2.229
	c-0.309,1.145-1.639,1.493-2.509,1.951c-2.224,1.167-4.548,2.158-7.248,3.345c-0.137,0.06-0.455,0.526-0.557,0.557
	c-4.069,1.23-7.972,4.313-13.101,4.459c-0.404,0.152-1.438-0.325-1.393,0.279c-0.465,0-0.93,0-1.395,0c-0.835,0-1.671,0-2.508,0
	c0.709-0.592,1.448-1.152,1.673-2.229c0.236,0.051,0.263-0.108,0.278-0.279c0.44-0.023,1.063,0.134,1.114-0.279
	c0.372,0,0.745,0,1.115,0c0.441-0.023,1.064,0.134,1.114-0.279c7.076-1.287,11.858-4.866,17.838-7.246
	c0.52-0.039,0.932-0.184,1.116-0.558c0.697-0.231,1.094-0.763,1.951-0.836c0-0.371,0-0.743,0-1.114
	c-0.023-0.441,0.133-1.063-0.28-1.116c-0.305-3.184,1.837-3.922,5.019-3.623c0.567,0.64,2.313,0.101,3.344,0.279
	c1.04-0.086,4.022,0.321,3.344-0.558c-11.891-0.464-25.733-0.464-37.626,0C94.241,4.537,91.789,3.831,89.672,2.788z"/>
<path fill-rule="evenodd" clip-rule="evenodd" fill="#171717" d="M95.525,23.412c0.279,0,0.558,0,0.836,0c0.837,0,1.673,0,2.508,0
	c-0.566,0.64-2.313,0.101-3.344,0.279C95.525,23.598,95.525,23.505,95.525,23.412z"/>
<path fill-rule="evenodd" clip-rule="evenodd" fill="#797979" d="M14.142,48.774c0.397-0.066,0.47-0.459,0.836-0.557
	c0.124,0.248,0.245,0.498,0.557,0.557c0,0.094,0,0.187,0,0.278c0.413,0.146,0.703,0.413,1.115,0.559c0.093,0,0.186,0,0.279,0
	c-0.388,2.16-2.008,0.309-3.066,0C13.878,49.256,14.22,49.226,14.142,48.774z"/>
</svg>
