<?xml version="1.0" encoding="utf-8"?>
<!-- Generator: Adobe Illustrator 15.0.0, SVG Export Plug-In  -->
<!DOCTYPE svg PUBLIC "-//W3C//DTD SVG 1.1//EN" "http://www.w3.org/Graphics/SVG/1.1/DTD/svg11.dtd" [
	<!ENTITY ns_flows "http://ns.adobe.com/Flows/1.0/">
]>
<svg version="1.1"
	 xmlns="http://www.w3.org/2000/svg" xmlns:xlink="http://www.w3.org/1999/xlink" xmlns:a="http://ns.adobe.com/AdobeSVGViewerExtensions/3.0/"
	 x="0px" y="0px" width="142px" height="142px" viewBox="-2.72 -28.321 142 142" enable-background="new -2.72 -28.321 142 142"
	 xml:space="preserve">
<defs>
</defs>
<path fill-rule="evenodd" clip-rule="evenodd" fill="#323232" d="M26.545,21.412c0.093,0,0.186,0,0.278,0c0,0.372,0,0.744,0,1.116
	C26.411,22.475,26.568,21.853,26.545,21.412z"/>
<path fill-rule="evenodd" clip-rule="evenodd" fill="#323232" d="M2.297,83.008c0.464,0,0.929,0,1.393,0
	C3.816,83.462,2.171,83.462,2.297,83.008z"/>
<path fill-rule="evenodd" clip-rule="evenodd" fill="#323232" d="M31.004,19.74c-0.557,0-1.115,0-1.672,0
	c0.236-1.065,0.471-2.131,0.558-3.344c1.047-0.777,1.935-1.832,2.788-2.788c1.661-1.86,2.96-4.076,5.574-5.574
	c1.337-0.767,2.977-1.499,4.459-1.116c1.462,0.379,2.324,2.988,3.344,5.017c2.813,5.596,5.658,10.509,8.361,15.887
	c2.489,4.95,5.147,10.328,8.083,16.165c0.983,1.955,1.81,4.725,3.066,5.018c1.121,0.26,2.649-0.742,3.623-1.394
	c2.815-1.886,6.033-3.795,9.198-5.854c2.985-1.942,4.037-2.641,3.901-7.525c-0.038-1.405-0.405-3.037-0.279-4.459
	c0.19-2.15,0.796-3.366,1.673-5.017c0.373-0.703,0.495-1.501,0.836-1.951c0.663-0.875,2.094-2.047,3.346-2.787
	c1.102-0.652,2.873-1.475,4.179-1.672c1.785-0.27,3.511,0.063,5.017,0c6.076-0.256,10.938-2.198,15.608-4.459
	c3.273-1.584,6.101-3.003,10.035-4.738c-0.404-3.029-0.597-5.191,1.949-5.853c2.645-0.687,7.064,0.833,9.755,0.279
	c0.282-0.839-0.619-0.494-1.114-0.558C99.797,2.597,64.998,3.286,31.283,3.575c-0.332,1.25,1.716,2.39,1.394,4.459
	c-0.416,2.662-4.29,2.767-5.574,4.738c-0.405,0.152-1.44-0.325-1.394,0.279c-2.425,0.176-4.429,0.773-5.853,1.951
	c2.757-3.097,6.597-5.11,10.034-7.525c-0.633-1.689-1.982-2.663-1.672-5.295C29.41,0.439,31.794,0.8,34.07,0.787
	c6.713-0.036,14.515,0.331,21.46,0c2.176-0.103,4.398-0.485,6.689-0.557c16.527-0.519,31.919,0,49.611,0c4.189,0,9.438,0,14.214,0
	c2.486,0,5.017-0.229,7.246,0c1.571,0.16,1.869,0.045,2.787,0.836c0.642,0.551,1.128,1.03,1.116,2.229
	c-0.057,5.168-8.568,2.218-11.706,2.787c-0.691,0.982,0.389,2.575,0,4.181c-2.378,1.987-5.021,2.864-7.246,3.902
	c-6.237,2.905-11.727,6.442-20.625,6.968c-2.248,0.133-4.993-0.16-6.968,0.558c-1.066,0.387-2.781,1.426-3.625,2.508
	c-0.168,0.218-0.094,0.591-0.278,0.836c-0.282,0.379-0.951,0.767-1.113,1.114c-0.203,0.428-0.103,1.055-0.279,1.673
	c-0.104,0.36-0.513,0.822-0.559,1.114c-0.216,1.373-0.042,2.813,0,4.181c0.072,2.299,0.565,4.569-0.278,6.689
	c-0.573,1.443-2.284,2.835-3.9,3.902c-0.349,0.229-1.044,0.334-1.395,0.558c-0.289,0.184-0.611,0.522-1.116,0.837
	c-0.393,0.243-0.701,0.576-1.113,0.835c-1.154,0.725-2.318,1.396-3.625,2.229c-0.196,0.127-0.616,0.114-0.835,0.278
	c-0.126,0.096-0.158,0.481-0.278,0.559c-0.343,0.217-1.048,0.343-1.395,0.557c-2.359,1.464-4.343,3.342-7.246,1.673
	c-0.188-0.109-0.315-0.408-0.557-0.558c-0.438-0.27-0.479-0.496-0.836-1.115c-3.133-5.412-6.462-12.955-9.197-18.395
	c-3.847-7.652-7.525-14.364-11.148-21.46c-2.659,0.231-4.304,2.495-5.853,4.18c-1.211,1.317-2.311,2.544-3.624,3.902
	C31.856,18.349,31.325,18.787,31.004,19.74z"/>
<path fill-rule="evenodd" clip-rule="evenodd" fill="#727272" d="M20.971,42.037c0.391-0.445,0.96-0.712,1.672-0.836
	c0.462,0.932,0.931,1.856,1.393,2.787c-0.371-0.362-0.841-0.171-1.115,0.279C22.004,43.79,22.239,42.163,20.971,42.037z"/>
<path fill-rule="evenodd" clip-rule="evenodd" fill="#323232" d="M20.413,18.346c0.346-0.583,0.811-1.047,1.394-1.394
	C21.461,17.536,20.996,18,20.413,18.346z"/>
<path fill-rule="evenodd" clip-rule="evenodd" fill="#323232" d="M24.873,19.74c-0.045,0.327-0.508,0.234-0.836,0.279
	c-0.078,0.728-0.094,1.395,0.836,1.115c-0.666,0.915-1.454-0.382-1.115-1.394C24.129,19.74,24.501,19.74,24.873,19.74z"/>
<path fill-rule="evenodd" clip-rule="evenodd" fill="#727272" d="M24.873,19.74c0.558,0,1.115,0,1.672,0
	c0.152,0.405-0.326,1.44,0.278,1.394c0,0.093,0,0.186,0,0.278c-0.093,0-0.186,0-0.278,0c-0.389-0.876-1.375,0.384-1.672-0.278
	c-0.931,0.28-0.914-0.387-0.836-1.115C24.364,19.974,24.828,20.066,24.873,19.74z"/>
<path fill-rule="evenodd" clip-rule="evenodd" fill="#A6A6A6" d="M25.708,13.051c-0.046-0.604,0.989-0.126,1.394-0.279
	C27.149,13.376,26.114,12.898,25.708,13.051z"/>
<path fill-rule="evenodd" clip-rule="evenodd" fill="#727272" d="M29.889,16.116c0-0.65,0-1.3,0-1.951
	C30.348,14.204,30.348,16.078,29.889,16.116z"/>
<path fill-rule="evenodd" clip-rule="evenodd" fill="#727272" d="M29.611,21.97c-0.629-0.208-0.109-1.563-0.279-2.23
	c0.558,0,1.116,0,1.672,0c0.372,0,0.744,0,1.115,0c0,0.464,0,0.929,0,1.394c-0.836,0-1.672,0-2.508,0
	C29.611,21.412,29.611,21.691,29.611,21.97z"/>
<path fill-rule="evenodd" clip-rule="evenodd" fill="#A6A6A6" d="M21.807,38.413c-0.046-0.457,1.718-0.457,1.672,0
	C22.921,38.413,22.364,38.413,21.807,38.413z"/>
<path fill-rule="evenodd" clip-rule="evenodd" fill="#727272" d="M21.528,38.413c-0.224,0.706-1.147,0.711-1.672,1.116
	c-0.09-1.007-1.984-2.29-0.836-2.788c1.109-0.836,1.516,0.957,1.951,1.672C21.156,38.413,21.342,38.413,21.528,38.413z"/>
<path fill-rule="evenodd" clip-rule="evenodd" fill="#727272" d="M38.809,43.152c0.457-0.046,0.457,1.718,0,1.671
	C38.809,44.267,38.809,43.709,38.809,43.152z"/>
<path fill-rule="evenodd" clip-rule="evenodd" fill="#727272" d="M5.363,47.332c-0.474,0.548-0.32,1.724-0.836,2.229
	c-1.212-0.552-2.689-0.84-3.902-1.394c0.046-0.789,0.511-1.161,0.558-1.951C2.831,46.334,3.714,47.216,5.363,47.332z"/>
<path fill-rule="evenodd" clip-rule="evenodd" fill="#727272" d="M2.297,59.596C2.145,60,2.623,61.036,2.019,60.989
	C2.17,60.584,1.693,59.549,2.297,59.596z"/>
<path fill-rule="evenodd" clip-rule="evenodd" fill="#727272" d="M4.806,60.989c-0.161,0.489,0.336,1.638-0.279,1.672
	C4.687,62.171,4.19,61.024,4.806,60.989z"/>
<path fill-rule="evenodd" clip-rule="evenodd" fill="#727272" d="M2.019,61.824c-0.161,0.491,0.336,1.638-0.279,1.673
	C1.9,63.008,1.403,61.859,2.019,61.824z"/>
<path fill-rule="evenodd" clip-rule="evenodd" fill="#727272" d="M4.526,63.497c-0.166,0.577,0.345,1.831-0.278,1.951
	C4.414,64.872,3.903,63.617,4.526,63.497z"/>
<path fill-rule="evenodd" clip-rule="evenodd" fill="#727272" d="M1.739,64.334c-0.17,0.666,0.35,2.021-0.278,2.229
	C1.631,65.897,1.111,64.541,1.739,64.334z"/>
<path fill-rule="evenodd" clip-rule="evenodd" fill="#727272" d="M4.248,66.563c-0.16,0.49,0.336,1.637-0.279,1.672
	C4.129,67.745,3.633,66.598,4.248,66.563z"/>
<path fill-rule="evenodd" clip-rule="evenodd" fill="#727272" d="M1.461,67.4c-0.166,0.576,0.345,1.83-0.278,1.95
	C1.348,68.773,0.838,67.52,1.461,67.4z"/>
<path fill-rule="evenodd" clip-rule="evenodd" fill="#727272" d="M3.969,69.351c-0.166,0.576,0.345,1.831-0.279,1.951
	C3.856,70.724,3.346,69.471,3.969,69.351z"/>
<path fill-rule="evenodd" clip-rule="evenodd" fill="#727272" d="M1.183,70.187c-0.167,0.577,0.344,1.83-0.279,1.951
	C1.069,71.56,0.559,70.307,1.183,70.187z"/>
<path fill-rule="evenodd" clip-rule="evenodd" fill="#727272" d="M3.69,72.416c-0.16,0.49,0.337,1.639-0.279,1.672
	C3.572,73.599,3.075,72.451,3.69,72.416z"/>
<path fill-rule="evenodd" clip-rule="evenodd" fill="#727272" d="M0.903,73.252c-0.166,0.578,0.345,1.831-0.279,1.951
	C0.791,74.626,0.28,73.372,0.903,73.252z"/>
<path fill-rule="evenodd" clip-rule="evenodd" fill="#727272" d="M3.412,75.203c-0.166,0.577,0.345,1.831-0.278,1.951
	C3.299,76.576,2.789,75.323,3.412,75.203z"/>
<path fill-rule="evenodd" clip-rule="evenodd" fill="#727272" d="M0.625,76.04c-0.166,0.576,0.345,1.831-0.278,1.95
	C0.512,77.413,0.001,76.159,0.625,76.04z"/>
<path fill-rule="evenodd" clip-rule="evenodd" fill="#727272" d="M0.346,78.548c0,0.929,0,1.858,0,2.787
	C-0.115,81.034-0.115,78.849,0.346,78.548z"/>
<path fill-rule="evenodd" clip-rule="evenodd" fill="#323232" d="M5.084,80.22c0.038-0.459,1.913-0.459,1.951,0
	C6.385,80.22,5.735,80.22,5.084,80.22z"/>
<path fill-rule="evenodd" clip-rule="evenodd" fill="#727272" d="M2.854,80.22c0.558,0,1.115,0,1.672,0
	C4.572,80.678,2.809,80.678,2.854,80.22z"/>
<path fill-rule="evenodd" clip-rule="evenodd" fill="#FFFFFF" d="M27.103,12.772c1.481-0.088,2.633,0.153,2.787,1.394
	c0,0.65,0,1.3,0,1.951c0,0.093,0,0.186,0,0.279c-0.087,1.213-0.321,2.279-0.558,3.344c0.17,0.667-0.35,2.022,0.279,2.23
	c2.258,5,4.57,9.583,7.246,14.493c0.897,1.647,1.805,3.874,1.952,6.689c0,0.557,0,1.115,0,1.671c0,0.28,0,0.559,0,0.837
	c-1.36,1.418-3.399,1.837-5.296,2.508c-1.792,0.635-3.77,1.636-6.132,1.394c-1.75-1.223-2.441-3.504-3.345-5.574
	c-0.462-0.931-0.931-1.855-1.393-2.787c-0.712,0.125-1.281,0.391-1.672,0.836c-2.16,1.463-4.638,2.61-6.689,4.18
	c-0.866,3.268-1.464,5.325-2.23,8.362c-0.213,0.847-0.608,1.942-0.557,2.787c0.104,1.729,1.716,3.722,2.787,5.853
	c2.067,4.112,3.381,6.992,5.574,11.428c1.306,2.641,3.501,5.346,1.672,7.246c-0.417,0.326-1.14,0.347-1.393,0.837
	c-1.143,0.696-3.223,1.239-5.295,1.95c-2.112,0.724-4.265,1.845-5.853,1.393c-1.47-0.417-1.566-1.98-2.508-3.343
	c-0.528,0.493-1.841,0.202-2.788,0.278c-0.464,0-0.929,0-1.393,0c-1.179-0.029-1.666-0.752-1.951-1.673c0-0.929,0-1.858,0-2.787
	c0-0.187,0-0.372,0-0.558c0.623-0.119,0.113-1.374,0.278-1.95c0-0.279,0-0.559,0-0.837c0.624-0.12,0.113-1.373,0.279-1.951
	c0-0.371,0-0.743,0-1.114c0.623-0.121,0.113-1.374,0.279-1.951c0-0.278,0-0.558,0-0.836c0.623-0.12,0.112-1.374,0.278-1.95
	c0-0.28,0-0.559,0-0.837C2.089,66.355,1.569,65,1.739,64.334c0-0.279,0-0.559,0-0.837c0.616-0.035,0.119-1.182,0.279-1.673
	c0-0.278,0-0.557,0-0.835C2.623,61.036,2.145,60,2.297,59.596c0.284-3.804,1.298-6.878,2.229-10.034
	c0.516-0.506,0.362-1.682,0.836-2.229c0.269-1.545,0.868-2.959,1.394-4.459c1.167-3.333,2.602-7.196,3.902-10.869
	c0.151-0.428,0.107-0.679,0.279-1.115c2.209-5.63,4.283-12.101,8.918-15.886c1.424-1.178,3.428-1.775,5.853-1.951
	C26.114,12.898,27.149,13.376,27.103,12.772z M26.823,18.903c-0.193-1.402,0.473-1.942,0.279-3.344
	c-1.969,0.261-3.782,0.677-5.295,1.393c-0.583,0.346-1.048,0.811-1.394,1.394c-6.25,7.964-8.439,19.99-12.542,30.1
	C7.383,48.98,7.28,49.9,7.035,50.677c-0.761,3.42-1.738,6.622-2.229,10.313c-0.616,0.035-0.119,1.182-0.279,1.672
	c0,0.279,0,0.558,0,0.836c-0.623,0.12-0.112,1.375-0.278,1.951c0,0.372,0,0.744,0,1.115c-0.615,0.034-0.119,1.182-0.279,1.672
	c0,0.372,0,0.743,0,1.115c-0.623,0.12-0.113,1.373-0.279,1.951c0,0.371,0,0.743,0,1.114c-0.615,0.035-0.119,1.183-0.279,1.672
	c0,0.372,0,0.744,0,1.115c-0.623,0.12-0.113,1.373-0.278,1.951c0.137,1.251-0.141,2.089-0.279,3.065
	c-0.045,0.458,1.718,0.458,1.672,0c0.186,0,0.372,0,0.558,0c0.651,0,1.301,0,1.951,0c1.815,0.138,2.523,1.379,2.788,3.066
	c3.098-0.711,5.689-1.93,8.64-2.787c1.777-0.495-0.105-2.523-0.558-3.345c-1.706-3.099-2.916-6.126-4.459-9.197
	c-1.474-2.931-3.453-5.879-4.459-9.198c0-0.928,0-1.857,0-2.786c0.01-1.941,0.707-3.195,1.115-4.738
	c0.38-0.549,0.266-1.592,0.557-2.229c0.287-5.938,5.355-7.095,9.197-9.476c0.525-0.404,1.449-0.41,1.672-1.116
	c0.093,0,0.186,0,0.279,0c0.557,0,1.114,0,1.672,0c1.609,0.567,2.096,2.506,2.787,3.902c0.763,1.542,1.524,3.038,2.229,4.459
	c2.639-0.705,4.95-1.738,7.525-2.508c0.036-2.856-0.877-4.839-1.672-6.41c-1.836-3.631-3.534-7.089-5.295-10.591
	c-0.783-1.558-2.054-3.101-2.23-4.738c0-0.372,0-0.744,0-1.116c0-0.092,0-0.185,0-0.278C26.823,20.39,26.823,19.647,26.823,18.903z"
	/>
<path fill-rule="evenodd" clip-rule="evenodd" fill="#727272" d="M7.871,48.446c1.115,0.001,1.673,0.558,2.787,0.559
	c-0.291,0.638-0.177,1.681-0.557,2.229c-1.255,0.104-2.25-1.101-3.066-0.558C7.28,49.9,7.383,48.98,7.871,48.446z"/>
<path fill-rule="evenodd" clip-rule="evenodd" fill="#A6A6A6" d="M8.986,55.973c0,0.929,0,1.858,0,2.786
	C8.525,58.459,8.525,56.273,8.986,55.973z"/>
<path fill-rule="evenodd" clip-rule="evenodd" fill="#727272" d="M20.135,82.729c0.253-0.49,0.977-0.511,1.393-0.837
	c-0.125,1.426,1.076,1.525,1.115,2.787c-0.858-0.208-0.536,0.765-1.394,0.558C20.918,84.36,20.309,83.762,20.135,82.729z"/>
<path fill-rule="evenodd" clip-rule="evenodd" fill="#727272" d="M17.905,77.154c0.452,0.821,2.334,2.85,0.558,3.345
	C18.503,79.065,17.109,78.534,17.905,77.154z"/>
<path fill-rule="evenodd" clip-rule="evenodd" fill="#A6A6A6" d="M26.823,18.903c0,0.744,0,1.487,0,2.23
	c-0.604,0.047-0.126-0.988-0.278-1.394C26.588,19.412,26.497,18.949,26.823,18.903z"/>
</svg>
