<?xml version="1.0" encoding="utf-8"?>
<!-- Generator: Adobe Illustrator 15.0.0, SVG Export Plug-In  -->
<!DOCTYPE svg PUBLIC "-//W3C//DTD SVG 1.1//EN" "http://www.w3.org/Graphics/SVG/1.1/DTD/svg11.dtd" [
	<!ENTITY ns_flows "http://ns.adobe.com/Flows/1.0/">
]>
<svg version="1.1"
	 xmlns="http://www.w3.org/2000/svg" xmlns:xlink="http://www.w3.org/1999/xlink" xmlns:a="http://ns.adobe.com/AdobeSVGViewerExtensions/3.0/"
	 x="0px" y="0px" width="142px" height="142px" viewBox="-2.728 -25.405 142 142" enable-background="new -2.728 -25.405 142 142"
	 xml:space="preserve">
<defs>
</defs>
<path fill-rule="evenodd" clip-rule="evenodd" fill="#757575" d="M118.234,0.359c0.37,0,0.743,0,1.113,0c0,0.836,0,1.673,0,2.509
	c0,0.093,0,0.186,0,0.279c-0.465,0-0.93,0-1.395,0C118.448,2.619,118.158,1.306,118.234,0.359z"/>
<path fill-rule="evenodd" clip-rule="evenodd" fill="#323232" d="M58.031,1.753c0.616,0.035,0.118,1.182,0.278,1.672
	c-0.093,0-0.186,0-0.278,0C58.031,2.868,58.031,2.311,58.031,1.753z"/>
<path fill-rule="evenodd" clip-rule="evenodd" fill="#BDBDBD" d="M61.097,3.425c0-0.093,0-0.186,0-0.278c1.3,0,2.601,0,3.901,0
	C64.247,3.789,62.311,3.246,61.097,3.425z"/>
<path fill-rule="evenodd" clip-rule="evenodd" fill="#BDBDBD" d="M60.818,5.934c0.478-0.638,2.128-0.102,3.066-0.278
	c0,0.092,0,0.185,0,0.278C62.862,5.934,61.84,5.934,60.818,5.934z"/>
<path fill-rule="evenodd" clip-rule="evenodd" fill="#757575" d="M63.884,5.934c0-0.093,0-0.186,0-0.278
	c3.16,0.184,7.06-0.371,9.756,0.278C70.387,5.934,67.136,5.934,63.884,5.934z"/>
<path fill-rule="evenodd" clip-rule="evenodd" fill="#191919" d="M78.657,5.934c-0.786-0.356,2.397-0.537,2.508,0
	c-0.016,0.17-0.042,0.33-0.278,0.279C80.677,5.584,79.322,6.104,78.657,5.934z"/>
<path fill-rule="evenodd" clip-rule="evenodd" fill="#757575" d="M85.625,5.934c8.176-0.65,17.558-0.093,26.198-0.278
	c0,0.092,0,0.185,0,0.278C103.089,5.934,94.357,5.934,85.625,5.934z"/>
<path fill-rule="evenodd" clip-rule="evenodd" fill="#757575" d="M118.234,8.442c-0.076-0.946,0.214-2.259-0.281-2.787
	c0.56,0,1.116,0,1.673,0c-0.494,0.527-0.202,1.84-0.278,2.787C118.977,8.442,118.604,8.442,118.234,8.442z"/>
<path fill-rule="evenodd" clip-rule="evenodd" fill="#757575" d="M58.588,6.212c0.248-0.217,0.629-0.3,1.115-0.279
	c0.166,0.578-0.344,1.831,0.278,1.951c0,0.278,0,0.557,0,0.836c-0.464,0-0.929,0-1.393,0c0-0.093,0-0.186,0-0.279
	C58.588,7.699,58.588,6.956,58.588,6.212z"/>
<path fill-rule="evenodd" clip-rule="evenodd" fill="#757575" d="M53.293,6.491c0-0.093,0-0.186,0-0.279c0.464,0,0.929,0,1.393,0
	c0,0.093,0,0.186,0,0.279C54.222,6.491,53.757,6.491,53.293,6.491z"/>
<path fill-rule="evenodd" clip-rule="evenodd" fill="#191919" d="M127.431,6.212c0.938,0.176,2.589-0.359,3.065,0.279
	C129.557,6.314,127.908,6.85,127.431,6.212z"/>
<path fill-rule="evenodd" clip-rule="evenodd" fill="#BDBDBD" d="M79.213,6.491c0.37,0,0.743,0,1.113,0
	C80.528,6.943,79.013,6.943,79.213,6.491z"/>
<path fill-rule="evenodd" clip-rule="evenodd" fill="#191919" d="M117.953,8.442c0.095,0,0.187,0,0.281,0c0.37,0,0.743,0,1.113,0
	c0.093,0,0.187,0,0.278,0C119.672,8.899,117.909,8.899,117.953,8.442z"/>
<path fill-rule="evenodd" clip-rule="evenodd" fill="#757575" d="M39.357,9.835c-2.046-0.183-4.828,0.369-6.41-0.278
	c2.136,0,4.273,0,6.41,0C39.357,9.65,39.357,9.743,39.357,9.835z"/>
<path fill-rule="evenodd" clip-rule="evenodd" fill="#191919" d="M122.413,9.835c0.413,0.052,0.257,0.674,0.28,1.116
	C122.279,10.898,122.437,10.277,122.413,9.835z"/>
<path fill-rule="evenodd" clip-rule="evenodd" fill="#191919" d="M125.202,9.835c0.303,0.069,0.188,0.555,0.557,0.558
	c-0.008,0.271-0.343,0.216-0.557,0.278C125.202,10.393,125.202,10.115,125.202,9.835z"/>
<path fill-rule="evenodd" clip-rule="evenodd" fill="#757575" d="M114.61,15.688c-0.038,0.459-1.914,0.459-1.952,0
	C113.309,15.688,113.958,15.688,114.61,15.688z"/>
<path fill-rule="evenodd" clip-rule="evenodd" fill="#191919" d="M100.395,23.771c-0.046-0.604,0.988-0.126,1.393-0.279
	C101.835,24.097,100.8,23.619,100.395,23.771z"/>
<path fill-rule="evenodd" clip-rule="evenodd" fill="#757575" d="M93.706,24.05c0.659-0.641,2.503-0.1,3.624-0.279
	c0,0.093,0,0.186,0,0.279C96.122,24.05,94.914,24.05,93.706,24.05z"/>
<path fill-rule="evenodd" clip-rule="evenodd" fill="#191919" d="M84.787,35.756c0.617,0.034,0.118,1.182,0.278,1.672
	c-0.092,0-0.184,0-0.278,0C84.787,36.871,84.787,36.313,84.787,35.756z"/>
<path fill-rule="evenodd" clip-rule="evenodd" fill="#323232" d="M82,36.592c0.093,0,0.187,0,0.279,0c0,0.65,0,1.301,0,1.951
	c-0.093,0-0.187,0-0.279,0C82,37.893,82,37.242,82,36.592z"/>
<path fill-rule="evenodd" clip-rule="evenodd" fill="#191919" d="M38.8,46.068c0.457-0.046,0.457,1.718,0,1.671
	C38.8,47.183,38.8,46.625,38.8,46.068z"/>
<path fill-rule="evenodd" clip-rule="evenodd" fill="#191919" d="M8.699,60.561c0.414,0.052,0.256,0.673,0.279,1.114
	C8.565,61.624,8.722,61.002,8.699,60.561z"/>
<path fill-rule="evenodd" clip-rule="evenodd" fill="#191919" d="M2.289,62.233c-0.048,0.418,0.099,1.028-0.279,1.115
	C2.033,62.907,1.876,62.285,2.289,62.233z"/>
<path fill-rule="evenodd" clip-rule="evenodd" fill="#191919" d="M4.797,64.184c-0.153,0.404,0.326,1.44-0.279,1.394
	C4.67,65.172,4.193,64.137,4.797,64.184z"/>
<path fill-rule="evenodd" clip-rule="evenodd" fill="#191919" d="M2.01,64.741c-0.048,0.418,0.1,1.03-0.279,1.116
	C1.754,65.416,1.597,64.793,2.01,64.741z"/>
<path fill-rule="evenodd" clip-rule="evenodd" fill="#191919" d="M4.518,66.971c-0.152,0.405,0.326,1.441-0.278,1.394
	C4.392,67.959,3.914,66.923,4.518,66.971z"/>
<path fill-rule="evenodd" clip-rule="evenodd" fill="#191919" d="M1.731,67.25c-0.16,0.489,0.337,1.637-0.278,1.672
	C1.613,68.432,1.116,67.285,1.731,67.25z"/>
<path fill-rule="evenodd" clip-rule="evenodd" fill="#191919" d="M4.24,69.758c-0.16,0.49,0.336,1.637-0.279,1.672
	C4.121,70.941,3.625,69.793,4.24,69.758z"/>
<path fill-rule="evenodd" clip-rule="evenodd" fill="#191919" d="M1.453,70.317c-0.152,0.404,0.326,1.439-0.278,1.393
	C1.326,71.304,0.848,70.269,1.453,70.317z"/>
<path fill-rule="evenodd" clip-rule="evenodd" fill="#191919" d="M3.961,72.545c-0.16,0.489,0.337,1.638-0.279,1.673
	C3.843,73.728,3.345,72.581,3.961,72.545z"/>
<path fill-rule="evenodd" clip-rule="evenodd" fill="#191919" d="M1.174,73.103c-0.161,0.49,0.336,1.638-0.279,1.672
	C1.055,74.286,0.559,73.138,1.174,73.103z"/>
<path fill-rule="evenodd" clip-rule="evenodd" fill="#191919" d="M3.682,75.612c-0.16,0.489,0.337,1.638-0.279,1.673
	C3.563,76.793,3.067,75.647,3.682,75.612z"/>
<path fill-rule="evenodd" clip-rule="evenodd" fill="#191919" d="M0.895,76.168c-0.152,0.405,0.326,1.441-0.279,1.395
	C0.769,77.157,0.291,76.122,0.895,76.168z"/>
<path fill-rule="evenodd" clip-rule="evenodd" fill="#191919" d="M3.403,78.677c-0.152,0.405,0.326,1.44-0.278,1.394
	C3.277,79.667,2.799,78.63,3.403,78.677z"/>
<path fill-rule="evenodd" clip-rule="evenodd" fill="#191919" d="M0.616,78.957c-0.152,0.404,0.326,1.44-0.278,1.393
	C0.49,79.945,0.012,78.909,0.616,78.957z"/>
<path fill-rule="evenodd" clip-rule="evenodd" fill="#191919" d="M3.125,81.186c-0.048,0.417,0.1,1.028-0.279,1.115
	C2.894,81.883,2.747,81.272,3.125,81.186z"/>
<path fill-rule="evenodd" clip-rule="evenodd" fill="#191919" d="M0.338,81.464c-0.048,0.417,0.1,1.028-0.279,1.115
	C0.082,82.137-0.075,81.516,0.338,81.464z"/>
<path fill-rule="evenodd" clip-rule="evenodd" fill="#191919" d="M22.077,82.301c0.455-0.126,0.455,1.519,0,1.393
	C22.077,83.229,22.077,82.765,22.077,82.301z"/>
<path fill-rule="evenodd" clip-rule="evenodd" fill="#191919" d="M5.076,83.136c0.208-0.628,1.563-0.109,2.23-0.278
	c0,0.093,0,0.187,0,0.278C6.563,83.136,5.819,83.136,5.076,83.136z"/>
<path fill-rule="evenodd" clip-rule="evenodd" fill="#191919" d="M2.846,83.136c0.372,0,0.744,0,1.115,0
	C4.16,83.589,2.646,83.589,2.846,83.136z"/>
<path fill-rule="evenodd" clip-rule="evenodd" fill="#191919" d="M2.289,85.924c0.464,0,0.929,0,1.393,0
	C3.808,86.378,2.163,86.378,2.289,85.924z"/>
<path fill-rule="evenodd" clip-rule="evenodd" fill="#323232" d="M117.953,0.359c0.095,0,0.187,0,0.281,0
	c-0.076,0.947,0.214,2.26-0.281,2.788c-0.557,0-1.113,0-1.671,0c0-0.093,0-0.187,0-0.279c0.558,0,1.114,0,1.671,0
	C117.953,2.032,117.953,1.195,117.953,0.359z"/>
<path fill-rule="evenodd" clip-rule="evenodd" fill="#323232" d="M29.603,10.115c0.88,0.606,1.078,1.894,2.508,1.95
	c0,0.093,0,0.186,0,0.279c-2.75,1.71-5.391,3.528-8.083,5.296c-0.583,0.346-1.047,0.811-1.393,1.393
	c-0.492,0.252-0.863,0.624-1.115,1.115c-0.583,0.346-1.047,0.811-1.393,1.394c-0.986,1.462-1.898,2.879-2.788,4.459
	c-0.878,1.562-1.583,3.256-2.229,5.017c-1.292,3.515-2.644,7.018-3.902,10.591c-2.511,7.134-5.315,14.538-6.41,22.575
	c-0.604-0.047-0.127,0.988-0.279,1.394c0,0.465,0,0.93,0,1.394c-0.604-0.048-0.126,0.988-0.278,1.394c0,0.465,0,0.929,0,1.394
	c-0.615,0.035-0.119,1.183-0.279,1.672c0,0.372,0,0.743,0,1.115c-0.616,0.035-0.118,1.183-0.279,1.673c0,0.464,0,0.929,0,1.394
	c-0.615,0.035-0.119,1.182-0.279,1.673c0,0.464,0,0.928,0,1.393c-0.604-0.047-0.126,0.989-0.278,1.394c0,0.372,0,0.743,0,1.115
	c-0.378,0.086-0.231,0.697-0.279,1.115c0,0.278,0,0.557,0,0.835c-0.199,0.453,1.314,0.453,1.115,0c0.372,0,0.743,0,1.115,0
	c0.743,0,1.487,0,2.23,0c0.45-0.078,0.479,0.265,0.836,0.279c0.252,0.491,0.624,0.862,1.115,1.114
	c0.547,0.383,0.178,1.682,1.115,1.673c2.936-1.152,6.206-1.97,8.919-3.345c-2.746-5.175-5.087-10.483-7.804-15.887
	c-0.864-1.72-2.165-3.306-2.508-5.296c-0.023-0.441,0.134-1.063-0.279-1.114c-0.199-2.083,0.87-4.053,1.394-6.132
	c0.912-3.622,0.965-6.584,3.623-8.64c0.231-0.179,0.972-0.335,1.394-0.557c0.72-0.378,1.357-0.873,2.229-1.394
	c1.553-0.928,4.154-2.906,5.853-2.787c0.229,0.016,0.276,0.309,0.558,0.278c0.252,0.491,0.624,0.864,1.115,1.116
	c1.208,2.415,2.416,4.831,3.623,7.246c2.601-0.559,4.483-1.834,7.247-2.229c0.226-0.053,0.277-0.279,0.557-0.278
	c0.024-0.396,0.046-0.789-0.279-0.836c-0.127-3.348-1.682-5.485-3.065-8.083c-1.623-3.046-3.135-6.008-4.738-9.198
	c-1.372-2.729-2.762-5.458-0.279-7.525c0.768-0.533,1.418-1.184,1.951-1.951c0.189-0.647,0.927-0.746,1.115-1.394
	c0.675-0.439,1.233-0.997,1.673-1.672c0.188-0.647,0.926-0.746,1.115-1.393c0.583-0.346,1.047-0.811,1.394-1.394
	c0.188-0.647,0.926-0.746,1.115-1.394c0.186,0,0.372,0,0.557,0c1.583,0.182,3.897-0.366,5.017,0.279
	c-2.356,0.431-3.814,1.759-5.017,3.344c-0.583,0.346-1.047,0.811-1.393,1.394c-0.189,0.648-0.927,0.746-1.115,1.394
	c-0.675,0.439-1.232,0.997-1.672,1.672c-0.189,0.647-0.926,0.746-1.115,1.393c-0.768,0.533-1.418,1.183-1.951,1.951
	c-0.479,0.946,0.801,3.283,1.672,5.017c1.739,3.459,3.657,6.919,5.574,10.591c0.86,1.647,1.843,3.914,1.952,6.689
	c0,0.557,0,1.115,0,1.671c0,0.28,0,0.559,0,0.837c-1.316,1.276-3.186,1.866-5.017,2.508c-0.847,0.297-1.845,0.562-2.788,0.837
	c-0.999,0.291-1.956,0.822-3.065,0.557c-0.45,0.079-0.48-0.264-0.836-0.278c-0.252-0.491-0.624-0.862-1.115-1.115
	c-1.083-2.354-2.417-4.458-3.345-6.968c-2.051,1.107-4.17,2.228-6.411,3.623c-1.701,1.061-2.139,1.708-2.787,4.182
	c-0.242,0.921-0.362,1.998-0.558,2.786c-0.463,1.865-1.485,4.047-1.393,5.575c0.083,1.38,1.775,4.395,2.508,5.853
	c2.451,4.874,6.223,11.66,8.083,16.166c0,0.464,0,0.928,0,1.393c-0.778,2.115-5.074,3.304-7.525,4.182
	c-0.909,0.323-4.258,1.488-5.574,1.113c-1.032-0.293-1.888-1.63-1.952-2.786c0.077-0.749-1.963-0.795-2.229-0.278
	c-0.372,0-0.743,0-1.115,0c-0.464,0-0.929,0-1.393,0c-0.279,0-0.558,0-0.836,0c-0.643-0.938-1.715-1.443-1.394-3.345
	c0.378-0.087,0.231-0.698,0.279-1.115c0-0.372,0-0.743,0-1.115c0.604,0.048,0.126-0.988,0.278-1.393c0-0.465,0-0.929,0-1.394
	c0.604,0.047,0.126-0.989,0.279-1.395c0-0.464,0-0.929,0-1.394c0.616-0.034,0.119-1.182,0.279-1.672c0-0.465,0-0.93,0-1.394
	c0.604,0.047,0.126-0.988,0.278-1.393c0-0.465,0-0.93,0-1.395c0.616-0.035,0.118-1.183,0.278-1.672c0-0.465,0-0.93,0-1.394
	c0.379-0.086,0.231-0.698,0.279-1.116c0-0.464,0-0.929,0-1.393c0.378-0.087,0.23-0.697,0.279-1.115
	c0.79-7.48,3.967-14.626,6.41-21.739c1.815-5.283,3.311-10.606,5.854-15.329c0.264-0.49,0.289-0.979,0.557-1.394
	c0.419-0.647,0.798-0.998,1.394-1.951c0.528-0.844,0.996-1.396,1.672-2.229c1.324-1.091,2.533-2.299,3.624-3.623
	c2.359-1.821,4.653-3.708,7.524-5.017C29.471,10.726,29.614,10.498,29.603,10.115z"/>
<path fill-rule="evenodd" clip-rule="evenodd" fill="#191919" d="M18.175,19.59c1.091-1.324,2.299-2.532,3.624-3.623
	C20.708,17.292,19.499,18.5,18.175,19.59z"/>
<path fill-rule="evenodd" clip-rule="evenodd" fill="#191919" d="M4.797,85.924c0.266-0.517,2.306-0.471,2.229,0.278
	C6.622,85.772,5.6,85.958,4.797,85.924z"/>
<path fill-rule="evenodd" clip-rule="evenodd" fill="#191919" d="M25.979,51.084c0.491,0.253,0.863,0.624,1.115,1.115
	C26.603,51.948,26.23,51.577,25.979,51.084z"/>
<path fill-rule="evenodd" clip-rule="evenodd" fill="#191919" d="M29.603,23.771c0.533-0.768,1.183-1.418,1.951-1.951
	C31.021,22.588,30.37,23.238,29.603,23.771z"/>
<path fill-rule="evenodd" clip-rule="evenodd" fill="#191919" d="M32.668,20.427c0.439-0.675,0.997-1.233,1.672-1.672
	C33.901,19.43,33.344,19.987,32.668,20.427z"/>
<path fill-rule="evenodd" clip-rule="evenodd" fill="#191919" d="M35.456,17.361c0.346-0.583,0.811-1.048,1.393-1.394
	C36.502,16.55,36.039,17.014,35.456,17.361z"/>
<path fill-rule="evenodd" clip-rule="evenodd" fill="#191919" d="M82.279,45.511c0.347-0.583,0.811-1.048,1.394-1.394
	C83.327,44.7,82.862,45.164,82.279,45.511z"/>
<path fill-rule="evenodd" clip-rule="evenodd" fill="#BDBDBD" d="M86.738,27.395c0.347-0.583,0.812-1.048,1.395-1.394
	C87.786,26.583,87.321,27.048,86.738,27.395z"/>
<path fill-rule="evenodd" clip-rule="evenodd" fill="#757575" d="M90.362,24.886c0.644-0.378,1.242-0.801,2.23-0.836
	c-1.563,0.364,0.134,1.692,0,3.066c-0.788-0.23-0.724,0.393-1.395,0.279C90.865,26.611,90.571,25.792,90.362,24.886z"/>
<path fill-rule="evenodd" clip-rule="evenodd" fill="#191919" d="M117.953,0.359c1.523-1.229,1.992,0.972,1.673,2.509
	c-0.092,0-0.186,0-0.278,0c0-0.836,0-1.672,0-2.509c-0.37,0-0.743,0-1.113,0C118.139,0.359,118.047,0.359,117.953,0.359z"/>
<path fill-rule="evenodd" clip-rule="evenodd" fill="#323232" d="M74.197,3.147c3.622,0,7.246,0,10.868,0
	c-1.65,0.579-2.7,1.758-3.9,2.787c-0.11-0.537-3.294-0.356-2.508,0c0,0.093,0,0.186,0,0.279c-1.569-0.847-2.318-2.514-4.46-2.787
	C74.197,3.332,74.197,3.239,74.197,3.147z"/>
<path fill-rule="evenodd" clip-rule="evenodd" fill="#BDBDBD" d="M104.017,20.148c0.758-0.823,1.29-1.87,2.511-2.229
	c-0.253,0.491-1.028,0.46-1.116,1.114c-0.49,0.252-0.863,0.624-1.113,1.115C104.204,20.148,104.112,20.148,104.017,20.148z"/>
<path fill-rule="evenodd" clip-rule="evenodd" fill="#757575" d="M102.625,21.82c0.346-0.583,0.811-1.047,1.392-1.393
	C103.672,21.01,103.208,21.474,102.625,21.82z"/>
<path fill-rule="evenodd" clip-rule="evenodd" fill="#BDBDBD" d="M82,45.511c0.439-0.675,0.998-1.233,1.673-1.672
	c0,0.093,0,0.186,0,0.278c-0.583,0.346-1.047,0.811-1.394,1.394C82.186,45.511,82.092,45.511,82,45.511z"/>
<path fill-rule="evenodd" clip-rule="evenodd" fill="#757575" d="M102.346,18.197c0.533-0.768,1.183-1.418,1.952-1.951
	C103.765,17.014,103.114,17.664,102.346,18.197z"/>
<path fill-rule="evenodd" clip-rule="evenodd" fill="#323232" d="M83.394,7.606c0.251-0.492,0.623-0.863,1.114-1.115
	C84.257,6.982,83.885,7.354,83.394,7.606z"/>
<path fill-rule="evenodd" clip-rule="evenodd" fill="#323232" d="M111.823,5.934c0-0.093,0-0.186,0-0.278c2.043,0,4.087,0,6.13,0
	c0.495,0.527,0.205,1.84,0.281,2.787c-0.095,0-0.187,0-0.281,0c0-0.836,0-1.672,0-2.508C115.91,5.934,113.866,5.934,111.823,5.934z"
	/>
<path fill-rule="evenodd" clip-rule="evenodd" fill="#323232" d="M119.347,8.442c0.076-0.946-0.216-2.259,0.278-2.787
	c4.74,0.185,10.22-0.372,14.493,0.278c-4.738,0-9.477,0-14.214,0c-0.634,0.296-0.106,1.752-0.279,2.508
	C119.534,8.442,119.44,8.442,119.347,8.442z"/>
<path fill-rule="evenodd" clip-rule="evenodd" fill="#191919" d="M22.635,19.033c0.346-0.583,0.81-1.047,1.393-1.393
	C23.682,18.223,23.218,18.687,22.635,19.033z"/>
<path fill-rule="evenodd" clip-rule="evenodd" fill="#191919" d="M20.126,21.542c0.346-0.583,0.81-1.048,1.393-1.394
	C21.174,20.73,20.709,21.195,20.126,21.542z"/>
<path fill-rule="evenodd" clip-rule="evenodd" fill="#191919" d="M8.142,83.416c0.492,0.252,0.863,0.623,1.115,1.114
	C8.765,84.278,8.394,83.907,8.142,83.416z"/>
<path fill-rule="evenodd" clip-rule="evenodd" fill="#191919" d="M23.75,41.33c0.491,0.252,0.863,0.624,1.115,1.116
	C24.373,42.193,24.001,41.821,23.75,41.33z"/>
<path fill-rule="evenodd" clip-rule="evenodd" fill="#191919" d="M36.013,46.347c0.325,0.047,0.303,0.441,0.279,0.836
	c-0.28-0.001-0.332,0.226-0.557,0.278C35.951,47.213,36.033,46.833,36.013,46.347z"/>
<path fill-rule="evenodd" clip-rule="evenodd" fill="#191919" d="M27.93,21.542c0.533-0.768,1.184-1.418,1.951-1.951
	C29.348,20.358,28.698,21.008,27.93,21.542z"/>
<path fill-rule="evenodd" clip-rule="evenodd" fill="#191919" d="M30.996,18.197c0.44-0.675,0.998-1.232,1.673-1.672
	C32.229,17.2,31.671,17.758,30.996,18.197z"/>
<path fill-rule="evenodd" clip-rule="evenodd" fill="#191919" d="M33.783,15.131c0.346-0.583,0.81-1.048,1.394-1.394
	C34.83,14.321,34.367,14.785,33.783,15.131z"/>
<path fill-rule="evenodd" clip-rule="evenodd" fill="#191919" d="M104.298,20.148c0.25-0.492,0.623-0.863,1.113-1.115
	c-0.082,0.568-0.753,0.547-0.835,1.115C104.482,20.148,104.39,20.148,104.298,20.148z"/>
<path fill-rule="evenodd" clip-rule="evenodd" fill="#323232" d="M109.872,17.64c1.528,0.732,4.089,1.174,6.132,0.557
	c-4.392,2.112-8.298,4.709-14.216,5.295c-0.404,0.152-1.438-0.325-1.393,0.279c-0.372,0-0.743,0-1.115,0
	c1.172-0.595,2.35-1.181,3.346-1.951c0.582-0.346,1.047-0.81,1.392-1.393c0-0.093,0-0.186,0-0.279c0.095,0,0.187,0,0.281,0
	c0.092,0,0.184,0,0.278,0c0.645-0.307,2.085-0.711,3.064-1.115C108.449,18.7,109.725,18.548,109.872,17.64z"/>
<path fill-rule="evenodd" clip-rule="evenodd" fill="#191919" d="M91.754,3.147c7.619-0.651,16.444-0.094,24.527-0.279
	c0,0.093,0,0.186,0,0.279C108.106,3.147,99.93,3.147,91.754,3.147z"/>
<path fill-rule="evenodd" clip-rule="evenodd" fill="#323232" d="M119.625,2.868c4.74,0.186,10.22-0.371,14.493,0.279
	c-4.925,0-9.847,0-14.771,0c0-0.093,0-0.187,0-0.279C119.44,2.868,119.534,2.868,119.625,2.868z"/>
<path fill-rule="evenodd" clip-rule="evenodd" fill="#FFFFFF" d="M64.999,3.147c3.066,0,6.131,0,9.198,0c0,0.092,0,0.185,0,0.278
	c2.142,0.273,2.891,1.94,4.46,2.787c0.322-0.045,0.494,0.062,0.557,0.279c-0.2,0.452,1.314,0.452,1.113,0
	c0.227-0.053,0.279-0.28,0.56-0.279c0.236,0.051,0.263-0.108,0.278-0.279c1.2-1.029,2.25-2.208,3.9-2.787c2.23,0,4.46,0,6.689,0
	c8.176,0,16.352,0,24.527,0c0.558,0,1.114,0,1.671,0c0.465,0,0.93,0,1.395,0c4.925,0,9.847,0,14.771,0
	c2.023,0.108,2.975,1.241,3.067,2.787c0.134,2.264-1.719,2.962-4.182,4.181c-5.24,2.59-12.577,6.073-17.001,8.082
	c-2.043,0.617-4.604,0.175-6.132-0.557c-1.134-0.597-2.395-0.1-3.344,0.279c-1.221,0.36-1.753,1.406-2.511,2.229
	c0,0.093,0,0.186,0,0.279c-0.581,0.346-1.046,0.81-1.392,1.393c-0.996,0.771-2.174,1.356-3.346,1.951c-0.093,0-0.185,0-0.279,0
	c-0.557,0-1.113,0-1.671,0c-1.121,0.179-2.965-0.362-3.624,0.279c-0.37,0-0.743,0-1.113,0c-0.988,0.035-1.587,0.458-2.23,0.836
	c-0.867,0.248-1.3,0.931-2.229,1.114c-0.583,0.346-1.048,0.811-1.395,1.394c-1.264,2.173-2.326,4.55-1.951,8.361
	c0,0.557,0,1.115,0,1.672c0,1.208,0,2.415,0,3.623c0.048,1.348-0.569,2.032-1.114,2.787c-0.675,0.439-1.233,0.997-1.673,1.672
	c0,0.093,0,0.186,0,0.278c-5.044,2.667-9.245,6.176-14.493,8.64c-0.929,0-1.857,0-2.787,0c-0.279,0-0.558,0-0.836,0
	c-1.526-1.064-2.223-2.797-3.066-4.459c-2.286-4.514-4.834-9.713-7.246-14.493c-0.412-0.61-0.543-1.5-1.115-1.951
	c-3.56-6.938-6.876-14.12-10.591-20.903c-1.12-0.646-3.434-0.097-5.017-0.279c-1.027-0.645-3.247-0.097-4.738-0.279
	c-1.43-0.057-1.628-1.344-2.508-1.95c-0.388-1.749-1.771-2.503-1.394-5.017c0.755-0.174,0.694-1.165,1.672-1.115
	c7.711-0.186,16.165,0.371,23.412-0.279c0.279,0,0.557,0,0.836,0c0.557,0,1.115,0,1.672,0c0.667-0.169,2.022,0.35,2.23-0.278
	c0.093,0,0.185,0,0.278,0c0.929,0,1.858,0,2.788,0C62.311,3.246,64.247,3.789,64.999,3.147z M60.818,5.934c-0.186,0-0.372,0-0.557,0
	c-0.187,0-0.373,0-0.558,0c-0.485-0.021-0.867,0.062-1.115,0.279c-0.093,0-0.186,0-0.279,0c0.046-0.458-1.718-0.458-1.672,0
	c-0.186,0-0.372,0-0.557,0c-0.464,0-0.929,0-1.394,0c-0.464,0-0.929,0-1.393,0c-5.022,0-11.459,0-16.444,0
	c-2.009,0-4.209-0.36-5.574,0c-0.264,0.07-0.364,0.438,0,0.557c0.544,0.85,0.776,2.011,1.394,2.787c0.093,0,0.186,0,0.279,0
	c1.582,0.647,4.364,0.095,6.41,0.278c0.93,0,1.859,0,2.787,0c0.478-0.012,0.877,0.052,1.115,0.28c0.189,0.181,0.331,0.1,0.557,0.278
	c0.672,0.532,0.845,1.506,1.394,2.508c3.443,6.285,6.852,13.577,9.754,19.23c0.453,0.663,0.627,1.604,1.115,2.23
	c1.691,2.946,2.563,5.575,4.459,9.198c0.531,1.015,1.643,2.498,2.508,4.18c0.793,1.543,1.417,3.938,2.787,4.182
	c1.24,0.219,2.929-1.437,4.18-2.23c0.646-0.409,1.591-0.71,2.23-1.114c0.777-0.492,1.396-1.049,1.951-1.394
	c3.163-1.973,5.87-3.173,7.803-5.574c0-0.372,0-0.744,0-1.115c0.623-0.12,0.112-1.373,0.279-1.951c0-0.65,0-1.301,0-1.951
	c0-1.765,0-3.53,0-5.296c0.755-4.54,3.251-7.339,6.968-8.918c0.438-0.491,1.492-0.366,1.951-0.836c0.187,0,0.37,0,0.557,0
	c0.577-0.166,1.831,0.345,1.951-0.279c0.278,0,0.558,0,0.836,0c1.122-0.179,2.965,0.362,3.624-0.279
	c2.132-0.191,2.907-1.739,4.181-2.787c0.768-0.533,1.419-1.183,1.952-1.951c0.761-0.725,1.673-1.299,3.064-1.394
	c0.649,0,1.301,0,1.951,0c1.555-0.162,1.954,0.833,3.344,0.836c0.038,0.459,1.914,0.459,1.952,0
	c2.811-1.091,5.255-2.549,8.083-3.624c0.876-0.331,1.473-0.94,2.509-1.114c0-0.093,0-0.187,0-0.279
	c0.214-0.063,0.549-0.007,0.557-0.278c1.16-0.14,1.627-0.975,2.787-1.115c1.753-1.035,3.882-1.691,5.573-2.787
	c0.282-0.003,0.351-0.489,0-0.558c-4.273-0.65-9.753-0.094-14.493-0.278c-0.557,0-1.113,0-1.673,0c-2.043,0-4.087,0-6.13,0
	C103.182,5.84,93.8,5.283,85.625,5.934c-0.762-0.203-0.562,0.554-1.116,0.558c-0.491,0.251-0.863,0.623-1.114,1.115
	c-0.993,1.295-2.542,1.734-3.902,1.672c-2.506-0.114-4.115-2.693-5.852-3.345c-2.696-0.649-6.597-0.094-9.756-0.278
	C62.946,5.832,61.295,5.295,60.818,5.934z"/>
<path fill-rule="evenodd" clip-rule="evenodd" fill="#323232" d="M54.129,3.704c0.035-0.615,1.182-0.118,1.672-0.278
	c0,0.093,0,0.186,0,0.278C55.244,3.704,54.686,3.704,54.129,3.704z"/>
<path fill-rule="evenodd" clip-rule="evenodd" fill="#BDBDBD" d="M56.637,6.212c-0.045-0.458,1.718-0.458,1.672,0
	C57.752,6.212,57.195,6.212,56.637,6.212z"/>
<path fill-rule="evenodd" clip-rule="evenodd" fill="#323232" d="M59.703,5.934c0.186,0,0.372,0,0.558,0
	c-0.385,0.359-0.277,1.21-0.28,1.951C59.359,7.764,59.869,6.511,59.703,5.934z"/>
<path fill-rule="evenodd" clip-rule="evenodd" fill="#323232" d="M54.686,6.212c0.465,0,0.93,0,1.394,0
	c0.047,0.604-0.989,0.126-1.394,0.279C54.686,6.398,54.686,6.306,54.686,6.212z"/>
<path fill-rule="evenodd" clip-rule="evenodd" fill="#BDBDBD" d="M31.275,6.77c-0.364-0.12-0.264-0.487,0-0.557
	c1.364-0.36,3.565,0,5.574,0c4.985,0,11.422,0,16.444,0c0,0.093,0,0.186,0,0.279c-7.34,0-14.679,0-22.018,0
	C31.275,6.584,31.275,6.677,31.275,6.77z"/>
<path fill-rule="evenodd" clip-rule="evenodd" fill="#323232" d="M58.588,6.212c0,0.743,0,1.486,0,2.229
	c-0.628-0.208-0.109-1.563-0.279-2.229C58.402,6.212,58.495,6.212,58.588,6.212z"/>
<path fill-rule="evenodd" clip-rule="evenodd" fill="#323232" d="M58.588,8.721c0.464,0,0.929,0,1.393,0
	C60.108,9.176,58.463,9.176,58.588,8.721z"/>
<path fill-rule="evenodd" clip-rule="evenodd" fill="#323232" d="M39.357,9.557c0.848,0.175,2.401-0.356,2.787,0.278
	c-0.928,0-1.857,0-2.787,0C39.357,9.743,39.357,9.65,39.357,9.557z"/>
<path fill-rule="evenodd" clip-rule="evenodd" fill="#323232" d="M107.363,14.852c0.038-0.458,1.913-0.458,1.951,0
	C108.664,14.852,108.012,14.852,107.363,14.852z"/>
<path fill-rule="evenodd" clip-rule="evenodd" fill="#757575" d="M89.247,22.378c-0.137-1.285-1.535-2.753,0-3.345
	c1.54-0.054,0.521,2.453,1.951,2.509C90.739,22.012,89.685,21.887,89.247,22.378z"/>
<path fill-rule="evenodd" clip-rule="evenodd" fill="#191919" d="M94.542,21.263c0.661-0.641,2.502-0.1,3.624-0.279
	C97.506,21.625,95.664,21.084,94.542,21.263z"/>
<path fill-rule="evenodd" clip-rule="evenodd" fill="#323232" d="M97.33,23.771c0.558,0,1.114,0,1.671,0
	c-0.033,0.615-1.182,0.119-1.671,0.279C97.33,23.957,97.33,23.864,97.33,23.771z"/>
<path fill-rule="evenodd" clip-rule="evenodd" fill="#757575" d="M82,36.592c0.183-1.675-0.366-4.083,0.279-5.296
	c0,1.766,0,3.531,0,5.296C82.186,36.592,82.092,36.592,82,36.592z"/>
<path fill-rule="evenodd" clip-rule="evenodd" fill="#191919" d="M82.279,38.543c-0.167,0.578,0.344,1.831-0.279,1.951
	c0-0.65,0-1.301,0-1.951C82.092,38.543,82.186,38.543,82.279,38.543z"/>
<path fill-rule="evenodd" clip-rule="evenodd" fill="#323232" d="M85.065,37.428c-0.178,1.121,0.363,2.963-0.278,3.623
	c0-1.208,0-2.416,0-3.623C84.881,37.428,84.973,37.428,85.065,37.428z"/>
<path fill-rule="evenodd" clip-rule="evenodd" fill="#323232" d="M59.425,1.195c0.623,0.121,0.112,1.374,0.278,1.952
	C59.08,3.026,59.59,1.773,59.425,1.195z"/>
<path fill-rule="evenodd" clip-rule="evenodd" fill="#323232" d="M122.413,9.835c-0.305-3.184,1.837-3.922,5.019-3.623
	c0.477,0.638,2.126,0.102,3.065,0.279c1.206,0,2.416,0,3.622,0c-1.691,1.096-3.82,1.752-5.573,2.787c0-0.093,0-0.186,0-0.279
	c-1.114,0-2.23,0-3.344,0c0,0.279,0,0.558,0,0.836c0,0.28,0,0.558,0,0.836c0,0.093,0,0.186,0,0.279
	c-1.036,0.174-1.633,0.783-2.509,1.114c0-0.371,0-0.743,0-1.114C122.669,10.509,122.826,9.887,122.413,9.835z"/>
<path fill-rule="evenodd" clip-rule="evenodd" fill="#BDBDBD" d="M55.801,3.425c0.744,0,1.487,0,2.23,0
	c-0.208,0.628-1.563,0.109-2.23,0.278C55.801,3.611,55.801,3.518,55.801,3.425z"/>
<path fill-rule="evenodd" clip-rule="evenodd" fill="#BDBDBD" d="M29.881,3.983c7.247-0.65,15.701-0.093,23.412-0.279
	C46.046,4.354,37.592,3.797,29.881,3.983z"/>
<path fill-rule="evenodd" clip-rule="evenodd" fill="#BDBDBD" d="M32.111,12.065c1.491,0.182,3.71-0.366,4.738,0.279
	c-0.185,0-0.371,0-0.557,0c-1.394,0-2.787,0-4.181,0C32.111,12.251,32.111,12.158,32.111,12.065z"/>
<path fill-rule="evenodd" clip-rule="evenodd" fill="#BDBDBD" d="M91.754,21.542c0.12-0.623,1.374-0.113,1.951-0.279
	C93.585,21.886,92.332,21.376,91.754,21.542z"/>
<path fill-rule="evenodd" clip-rule="evenodd" fill="#BDBDBD" d="M64.72,54.429c0.929,0,1.858,0,2.787,0
	C67.207,54.891,65.021,54.891,64.72,54.429z"/>
<path fill-rule="evenodd" clip-rule="evenodd" fill="#757575" d="M54.965,32.132c1.584-0.152,2.753-1.989,4.181-1.393
	c-0.043,0.693,0.438,0.862,0.558,1.393c-0.879,0.979-2.281,1.436-3.623,1.952c0,0.093,0,0.186,0,0.278
	C55.592,33.735,55.417,32.795,54.965,32.132z"/>
<path fill-rule="evenodd" clip-rule="evenodd" fill="#757575" d="M52.457,33.526c0.572,0.451,0.703,1.341,1.115,1.951
	c-1.174,0.685-2.606,1.11-3.624,1.951c-0.532-0.583-0.898-1.332-1.114-2.23C50.232,34.832,51.214,34.048,52.457,33.526z"/>
<path fill-rule="evenodd" clip-rule="evenodd" fill="#757575" d="M58.031,1.753c0-0.372,0-0.743,0-1.115
	c0.671,0.114,0.605-0.509,1.394-0.279c0,0.279,0,0.558,0,0.836c0.165,0.578-0.345,1.831,0.278,1.952c0.465,0,0.929,0,1.394,0
	c0,0.092,0,0.185,0,0.278c-0.929,0-1.858,0-2.788,0C58.149,2.935,58.647,1.788,58.031,1.753z"/>
</svg>
