<?xml version="1.0" encoding="utf-8"?>
<!-- Generator: Adobe Illustrator 15.0.0, SVG Export Plug-In  -->
<!DOCTYPE svg PUBLIC "-//W3C//DTD SVG 1.1//EN" "http://www.w3.org/Graphics/SVG/1.1/DTD/svg11.dtd" [
	<!ENTITY ns_flows "http://ns.adobe.com/Flows/1.0/">
]>
<svg version="1.1"
	 xmlns="http://www.w3.org/2000/svg" xmlns:xlink="http://www.w3.org/1999/xlink" xmlns:a="http://ns.adobe.com/AdobeSVGViewerExtensions/3.0/"
	 x="0px" y="0px" width="142px" height="142px" viewBox="-2.94 -26.322 142 142" enable-background="new -2.94 -26.322 142 142"
	 xml:space="preserve">
<defs>
</defs>
<path fill-rule="evenodd" clip-rule="evenodd" fill="#323232" d="M44.719,2.787c-0.093,0-0.186,0-0.279,0
	c-0.25-0.771,0.573-2.616-0.557-2.508c-1.13-0.108-0.308,1.737-0.558,2.508c-0.093,0-0.186,0-0.279,0c0-0.929,0-1.858,0-2.787
	c0.557,0,1.115,0,1.672,0C44.719,0.929,44.719,1.858,44.719,2.787z"/>
<path fill-rule="evenodd" clip-rule="evenodd" fill="#757575" d="M44.44,2.787c-0.371,0-0.743,0-1.114,0
	c0.25-0.771-0.572-2.616,0.558-2.508C45.013,0.17,44.19,2.016,44.44,2.787z"/>
<path fill-rule="evenodd" clip-rule="evenodd" fill="#A6A6A6" d="M60.605,2.508c0-0.093,0-0.186,0-0.278c0.465,0,0.93,0,1.394,0
	c0,0.092,0,0.185,0,0.278C61.535,2.508,61.07,2.508,60.605,2.508z"/>
<path fill-rule="evenodd" clip-rule="evenodd" fill="#323232" d="M54.474,2.787c0.052-0.413,0.674-0.255,1.115-0.278
	c0,0.093,0,0.186,0,0.278C55.217,2.787,54.846,2.787,54.474,2.787z"/>
<path fill-rule="evenodd" clip-rule="evenodd" fill="#D5D5D5" d="M43.326,3.066c0-0.093,0-0.186,0-0.279c0.371,0,0.743,0,1.114,0
	c0,0.093,0,0.186,0,0.279C44.069,3.066,43.697,3.066,43.326,3.066z"/>
<path fill-rule="evenodd" clip-rule="evenodd" fill="#A6A6A6" d="M44.44,3.066c0-0.093,0-0.186,0-0.279c0.093,0,0.187,0,0.279,0
	c2.416,0,4.831,0,7.246,0c0,0.093,0,0.186,0,0.279C49.457,3.066,46.949,3.066,44.44,3.066z"/>
<path fill-rule="evenodd" clip-rule="evenodd" fill="#D5D5D5" d="M51.965,3.066c0-0.093,0-0.186,0-0.279c0.558,0,1.115,0,1.672,0
	C53.603,3.402,52.456,2.905,51.965,3.066z"/>
<path fill-rule="evenodd" clip-rule="evenodd" fill="#D5D5D5" d="M60.327,5.017c-0.047-0.604,0.988-0.126,1.394-0.278
	c0,0.092,0,0.185,0,0.278C61.256,5.017,60.792,5.017,60.327,5.017z"/>
<path fill-rule="evenodd" clip-rule="evenodd" fill="#A6A6A6" d="M61.721,5.017c0-0.093,0-0.186,0-0.278c1.021,0,2.044,0,3.065,0
	c0,0.092,0,0.185,0,0.278C63.765,5.017,62.742,5.017,61.721,5.017z"/>
<path fill-rule="evenodd" clip-rule="evenodd" fill="#323232" d="M58.655,5.295c0-0.093,0-0.186,0-0.279c0.372,0,0.743,0,1.114,0
	C59.718,5.429,59.096,5.272,58.655,5.295z"/>
<path fill-rule="evenodd" clip-rule="evenodd" fill="#A6A6A6" d="M50.572,5.574c0-0.093,0-0.186,0-0.279c0.929,0,1.858,0,2.788,0
	c0,0.093,0,0.186,0,0.279C52.43,5.574,51.501,5.574,50.572,5.574z"/>
<path fill-rule="evenodd" clip-rule="evenodd" fill="#323232" d="M43.047,5.574c0.093,0,0.186,0,0.279,0c0,0.929,0,1.857,0,2.787
	C42.69,7.975,43.222,6.421,43.047,5.574z"/>
<path fill-rule="evenodd" clip-rule="evenodd" fill="#757575" d="M43.326,5.574c0.371,0,0.743,0,1.114,0c0,0.929,0,1.857,0,2.787
	c-0.371,0-0.743,0-1.114,0C43.326,7.432,43.326,6.503,43.326,5.574z"/>
<path fill-rule="evenodd" clip-rule="evenodd" fill="#323232" d="M44.44,5.574c0.093,0,0.187,0,0.279,0
	c-0.175,0.847,0.357,2.401-0.279,2.787C44.44,7.432,44.44,6.503,44.44,5.574z"/>
<path fill-rule="evenodd" clip-rule="evenodd" fill="#757575" d="M39.423,8.918c-2.231-0.183-5.2,0.37-6.967-0.278
	c2.323,0,4.645,0,6.967,0C39.423,8.733,39.423,8.826,39.423,8.918z"/>
<path fill-rule="evenodd" clip-rule="evenodd" fill="#323232" d="M39.423,8.918c0-0.092,0-0.185,0-0.278
	c0.756,0.172,2.212-0.354,2.508,0.278C41.096,8.918,40.26,8.918,39.423,8.918z"/>
<path fill-rule="evenodd" clip-rule="evenodd" fill="#D5D5D5" d="M33.85,11.427c0.662-0.462,3.239-0.462,3.902,0
	c-0.558,0-1.116,0-1.673,0C35.335,11.427,34.592,11.427,33.85,11.427z"/>
<path fill-rule="evenodd" clip-rule="evenodd" fill="#D5D5D5" d="M84.574,32.051c0,0.65,0,1.301,0,1.952
	C84.115,33.965,84.115,32.089,84.574,32.051z"/>
<path fill-rule="evenodd" clip-rule="evenodd" fill="#323232" d="M81.787,35.675c0.093,0,0.187,0,0.279,0c0,0.743,0,1.486,0,2.229
	c-0.093,0-0.187,0-0.279,0C81.787,37.161,81.787,36.418,81.787,35.675z"/>
<path fill-rule="evenodd" clip-rule="evenodd" fill="#323232" d="M84.574,35.675c0.629,0.207,0.11,1.563,0.278,2.229
	c-0.092,0-0.184,0-0.278,0C84.574,37.161,84.574,36.418,84.574,35.675z"/>
<path fill-rule="evenodd" clip-rule="evenodd" fill="#757575" d="M84.574,38.183c0-0.093,0-0.186,0-0.279c0.095,0,0.187,0,0.278,0
	c0.095,0,0.187,0,0.28,0c0.123,0.805,2.106-0.247,2.23,0.558c0.372,1.488-1.635,0.597-2.511,0.836
	C84.831,38.857,84.987,38.235,84.574,38.183z"/>
<path fill-rule="evenodd" clip-rule="evenodd" fill="#A6A6A6" d="M84.574,38.183c0.413,0.052,0.257,0.674,0.278,1.115
	c-0.092,0-0.184,0-0.278,0C84.574,38.926,84.574,38.555,84.574,38.183z"/>
<path fill-rule="evenodd" clip-rule="evenodd" fill="#A6A6A6" d="M65.344,51.004c0.371,0,0.743,0,1.114,0
	C66.658,51.456,65.145,51.456,65.344,51.004z"/>
<path fill-rule="evenodd" clip-rule="evenodd" fill="#323232" d="M47.228,31.495c0.078-0.573,0.745-0.557,1.115-0.836
	C48.265,31.23,47.598,31.214,47.228,31.495z"/>
<path fill-rule="evenodd" clip-rule="evenodd" fill="#323232" d="M61.999,51.84c0.492,0.252,0.863,0.623,1.115,1.114
	C62.623,52.703,62.251,52.332,61.999,51.84z"/>
<path fill-rule="evenodd" clip-rule="evenodd" fill="#323232" d="M85.133,37.904c0.836,0,1.671,0,2.509,0c0,0.465,0,0.929,0,1.394
	c-0.571,0.637-2.496-0.08-3.067,0.558c0-0.187,0-0.373,0-0.558c0.095,0,0.187,0,0.278,0c0.876-0.239,2.883,0.651,2.511-0.836
	C87.239,37.657,85.256,38.709,85.133,37.904z"/>
<path fill-rule="evenodd" clip-rule="evenodd" fill="#323232" d="M91.542,1.672c0,0.093,0,0.186,0,0.279
	c14.032,0.834,30.005-0.276,44.037,0.558c0.801,1.086,1.406,1.348,1.395,2.787c-0.042,4.664-7.358,2.528-11.984,2.787
	c-0.021,1.413,0.479,2.309,0.278,3.902c-1.641,1.917-4.167,2.847-6.411,3.902c-6.745,3.173-13.459,7.368-23.69,7.247
	c0-0.093,0-0.186,0-0.279c1.827-0.124,2.641-1.262,3.065-2.787c10.596-0.46,16.147-5.964,24.249-8.919
	c0.124-1.519-0.499-2.29-0.28-3.902c1.646-3.458,7.724-1.253,11.984-1.672c-0.016-0.746-1.284-0.784-1.671-0.836
	c-1.941-0.263-4.632,0-6.968,0c-9.646,0-18.544,0.464-28.429,0.278c-0.807,0.156,0.427,0.435,0.279,0.836
	c-1.559-1.416-3.949-1.999-6.133-2.787c0-0.465,0-0.929,0-1.394C91.355,1.672,91.45,1.672,91.542,1.672z"/>
<path fill-rule="evenodd" clip-rule="evenodd" fill="#323232" d="M84.853,2.23c-1.725,0.689-2.909,1.921-4.179,3.065
	c-0.124-0.46-2.107-0.46-2.229,0c-1.433-0.984-2.448-2.384-4.46-2.787c0-0.093,0-0.186,0-0.278C77.606,2.23,81.23,2.23,84.853,2.23z
	"/>
<path fill-rule="evenodd" clip-rule="evenodd" fill="#D5D5D5" d="M82.066,44.315c0.252-0.491,0.623-0.863,1.115-1.115
	C83.147,43.909,82.775,44.281,82.066,44.315z"/>
<path fill-rule="evenodd" clip-rule="evenodd" fill="#323232" d="M29.668,9.476c0.56,0.741,1.21,1.392,1.951,1.951
	c-4.548,2.923-9.226,5.931-12.542,10.313c-0.229,0.303-0.352,0.795-0.557,1.115c-0.068,0.106-0.516,0.187-0.558,0.279
	c-0.604,1.339-1.464,2.989-2.229,4.738c-3.017,6.892-5.466,14.948-8.083,22.854c-1.038,3.137-2.204,6.202-2.787,9.477
	c-0.653,3.674-0.769,7.634-1.115,11.427c-0.331,3.626-1.056,7.149-0.836,10.87c2.633-0.799,4.845-0.656,6.131,1.114
	c0.336,0.464,0.122,1.659,1.115,1.673c3.109-0.886,5.896-2.095,8.919-3.066c-0.234-1.121-0.582-2.021-1.115-3.065
	c-0.427-0.839-1.189-1.587-1.672-2.508c-1.326-2.534-2.394-5.759-3.902-8.641c-1.076-2.056-3.744-5.566-3.902-8.361
	c-0.053-0.945,0.227-2.238,0.558-3.623C9.3,54.95,9.615,53.773,9.88,52.676c0.263-1.09,0.514-2.328,0.836-3.345
	c1.111-3.51,3.362-4.584,6.41-6.41c0.759-0.455,1.669-1.072,2.788-1.673c1.126-0.603,2.255-1.279,3.065-1.114
	c1.605,0.325,2.006,2.628,2.788,4.181c0.91,1.811,1.753,3.114,2.508,4.459c2.888-0.55,5.018-1.856,7.804-2.508
	c-0.575-1.547-0.342-3.001-0.836-4.459c-0.247-0.727-0.949-1.349-1.394-2.23c-1.823-3.612-3.474-7.797-5.575-11.706
	c-0.159-0.297-0.644-0.499-0.836-0.836c-0.432-0.758-1.259-2.591-1.115-3.902c0.127-1.156,1.206-2.183,2.23-3.345
	c2.399-2.722,5.273-5.646,7.525-8.361c0.557,0,1.115,0,1.673,0c1.213,0.18,3.149-0.363,3.901,0.279
	c-3.619,0.631-5.486,3.898-7.804,6.41c-1.684,1.825-3.604,3.465-4.739,5.575c2.08,4.27,5.117,10.285,7.525,15.05
	c0.32,0.632,0.912,1.387,1.116,1.952c0.327,0.91,0.357,2.319,0.557,3.623c0.214,1.394,0.671,2.141,0.279,3.066
	c-0.672,1.586-3.701,1.953-5.296,2.508c-0.145,0.05-0.453,0.526-0.557,0.557c-0.718,0.218-1.372,0.314-2.23,0.559
	c-1.03,0.293-1.988,0.837-3.066,0.557c-1.536-0.398-1.963-2.323-2.787-3.901c-0.838-1.605-1.828-2.892-2.229-4.46
	c-0.879,0.176-1.503,0.681-2.23,1.115c-0.309,0.185-0.772,0.338-1.115,0.557c-0.35,0.224-0.531,0.654-0.836,0.836
	c-1.396,0.834-3.31,1.269-4.181,2.508c-0.812,1.155-0.942,3.781-1.394,5.574c-0.469,1.864-1.477,3.852-1.393,5.575
	c0.072,1.482,1.205,3.392,1.951,4.737c0.099,0.179,0.129,0.637,0.278,0.837c0.082,0.109,0.502,0.175,0.558,0.278
	c2.22,4.13,3.205,7.252,5.574,11.706c1.097,2.061,2.572,4.07,2.23,5.574c-0.41,1.8-2.622,2.521-5.574,3.622
	c-0.945,0.354-2.185,0.768-3.344,1.116c-1.397,0.42-2.72,1-3.624,0.835c-2.151-0.39-1.863-2.312-3.345-3.343
	c-2.129,0.139-3.769,0.903-5.016,0c-1.466-1.063-0.912-3.703-0.558-7.248c0.574-5.734,0.792-10.621,1.673-16.165
	c1.197-7.539,3.814-14.054,6.131-20.624c1.342-3.805,2.906-8.354,4.181-12.542c0.31-1.019,1.29-2.357,1.951-3.623
	c0.525-1.008,0.824-2.174,1.394-3.066c0.233-0.365,0.801-0.694,1.115-1.115c1.052-1.415,2.346-3.446,3.902-4.738
	c0.231-0.191,0.625-0.082,0.836-0.278c0.559-0.521,1.59-1.586,2.508-2.23c0.822-0.577,1.654-1.109,2.508-1.672
	c0.202-0.132,0.613-0.111,0.836-0.279c0.126-0.095,0.158-0.48,0.279-0.558C28.371,10.174,29.091,10.07,29.668,9.476z"/>
<path fill-rule="evenodd" clip-rule="evenodd" fill="#A6A6A6" d="M84.853,24.527c0.253-0.492,0.625-0.864,1.116-1.116
	C85.716,23.903,85.346,24.275,84.853,24.527z"/>
<path fill-rule="evenodd" clip-rule="evenodd" fill="#323232" d="M83.182,6.689c0.251-0.492,0.623-0.863,1.114-1.115
	C84.045,6.065,83.673,6.437,83.182,6.689z"/>
<path fill-rule="evenodd" clip-rule="evenodd" fill="#D5D5D5" d="M61.999,2.23c3.995,0,7.99,0,11.985,0c0,0.092,0,0.185,0,0.278
	c-3.995,0-7.991,0-11.985,0C61.999,2.415,61.999,2.322,61.999,2.23z"/>
<path fill-rule="evenodd" clip-rule="evenodd" fill="#A6A6A6" d="M55.589,2.508c0.558,0,1.115,0,1.672,0
	c-0.034,0.616-1.182,0.118-1.672,0.278C55.589,2.694,55.589,2.601,55.589,2.508z"/>
<path fill-rule="evenodd" clip-rule="evenodd" fill="#757575" d="M91.264,3.066c-0.713-0.215-1.581-0.278-1.951-0.836
	c0.97-0.146,0.729-1.5,1.116-2.23c0.37,0,0.743,0,1.113,0c0.383,0.356,0.383,1.316,0,1.672c-0.092,0-0.187,0-0.278,0
	C91.264,2.137,91.264,2.601,91.264,3.066z"/>
<path fill-rule="evenodd" clip-rule="evenodd" fill="#757575" d="M64.786,4.738c2.696,0.184,6.131-0.37,8.36,0.278
	c-2.786,0-5.573,0-8.36,0C64.786,4.923,64.786,4.831,64.786,4.738z"/>
<path fill-rule="evenodd" clip-rule="evenodd" fill="#A6A6A6" d="M56.982,5.295c0.035-0.615,1.182-0.118,1.672-0.279
	c0,0.093,0,0.186,0,0.279C58.097,5.295,57.54,5.295,56.982,5.295z"/>
<path fill-rule="evenodd" clip-rule="evenodd" fill="#757575" d="M88.756,5.017c0.496,0.154,1.157,0.143,1.394,0.558
	c-0.33,0.982-0.492,3.267-1.951,2.229C87.594,7.182,88.781,5.984,88.756,5.017z"/>
<path fill-rule="evenodd" clip-rule="evenodd" fill="#757575" d="M53.359,5.295c0.743,0,1.486,0,2.229,0
	c-0.207,0.628-1.563,0.109-2.229,0.279C53.359,5.481,53.359,5.389,53.359,5.295z"/>
<path fill-rule="evenodd" clip-rule="evenodd" fill="#D5D5D5" d="M31.063,5.853c-0.364-0.12-0.264-0.487,0-0.557
	c2.266-0.6,6.882,0,9.755,0c3.373,0,6.85,0,9.754,0c0,0.093,0,0.186,0,0.279c-1.951,0-3.902,0-5.853,0c-0.093,0-0.186,0-0.279,0
	c-0.371,0-0.743,0-1.114,0c-0.093,0-0.186,0-0.279,0C39.145,5.759,34.5,5.203,31.063,5.853z"/>
<path fill-rule="evenodd" clip-rule="evenodd" fill="#A6A6A6" d="M92.937,11.984c0,0.558,0,1.115,0,1.672
	C92.479,13.702,92.479,11.939,92.937,11.984z"/>
<path fill-rule="evenodd" clip-rule="evenodd" fill="#757575" d="M54.195,30.101c-0.571-0.451-0.703-1.341-1.115-1.951
	c1.525-0.333,2.377-1.339,3.902-1.672c0.267,0.569,0.569,1.103,0.836,1.672C56.939,29.128,55.538,29.585,54.195,30.101z"/>
<path fill-rule="evenodd" clip-rule="evenodd" fill="#323232" d="M84.853,30.379c-0.021,0.441,0.135,1.063-0.278,1.116
	C84.599,31.053,84.44,30.431,84.853,30.379z"/>
<path fill-rule="evenodd" clip-rule="evenodd" fill="#757575" d="M50.572,29.265c0.562,0.739,1.039,1.563,1.394,2.508
	c-1.3-0.468-2.428,1.41-4.18,1.394c0.072-0.816-0.63-0.856-0.558-1.672c0.371-0.28,1.037-0.264,1.115-0.836
	C49.041,30.149,50.178,30.078,50.572,29.265z"/>
<path fill-rule="evenodd" clip-rule="evenodd" fill="#757575" d="M81.787,39.577c-0.292-0.916-3.022,0.607-2.508-1.115
	c-0.108-1.13,1.737-0.307,2.508-0.558c0.093,0,0.187,0,0.279,0c0,0.558,0,1.115,0,1.672C81.974,39.577,81.88,39.577,81.787,39.577z"
	/>
<path fill-rule="evenodd" clip-rule="evenodd" fill="#FFFFFF" d="M84.853,2.23c1.486,0,2.974,0,4.46,0
	c0.37,0.558,1.238,0.621,1.951,0.836c2.184,0.788,4.574,1.371,6.133,2.787c1.308,2.527-1.022,4.721-1.952,6.689
	c0.699,2.738,2.797,4.078,2.787,7.525c-0.425,1.525-1.238,2.663-3.065,2.787c-0.667,0.169-2.023-0.35-2.229,0.279
	c-4.293,0.818-7.044,3.175-8.084,7.246c-0.412,0.052-0.254,0.674-0.278,1.116c0,0.185,0,0.371,0,0.557
	c-0.459,0.038-0.459,1.914,0,1.952c0,0.557,0,1.114,0,1.672c0,0.743,0,1.486,0,2.229c0,0.093,0,0.186,0,0.279
	c0,0.372,0,0.743,0,1.115c0,0.185,0,0.371,0,0.558c0.076,1.655-0.513,2.644-1.393,3.344c-0.492,0.252-0.863,0.624-1.115,1.115
	c-0.642,0.896-2.442,1.892-3.901,2.788c-0.719,0.439-1.55,0.741-2.229,1.392c-0.238,0.228-0.603,0.335-0.837,0.559
	c-0.203,0.195-0.788,0.465-1.393,0.836c-0.604,0.369-1.545,0.737-2.23,1.394c-0.238,0.228-0.604,0.334-0.837,0.558
	c-0.237,0.227-0.602,0.333-0.836,0.558c-0.211,0.203-1.76,1.052-2.508,1.114c-0.929,0-1.857,0-2.787,0
	c-0.89,0.238-0.862-0.438-1.394-0.558c-0.252-0.491-0.624-0.862-1.115-1.114c-3.241-6.793-6.853-13.215-10.034-20.067
	c-0.355-0.945-0.832-1.77-1.394-2.508c-3.002-5.824-5.762-11.89-8.918-17.559c-0.752-0.643-2.688-0.099-3.901-0.279
	c-0.664-0.462-3.24-0.462-3.902,0c-0.743,0-1.486,0-2.23,0c-0.741-0.559-1.392-1.209-1.951-1.951
	c-0.88-1.472-3.113-5.366-0.278-6.41c4.646,0,9.29,0,13.936,0c0.371,0,0.743,0,1.114,0c2.509,0,5.017,0,7.525,0
	c0.49-0.161,1.638,0.336,1.672-0.279c0.279,0,0.558,0,0.836,0c0.372,0,0.743,0,1.115,0c0.49-0.16,1.638,0.337,1.672-0.278
	c0.465,0,0.929,0,1.394,0c0.65,0,1.301,0,1.951,0c0.465,0,0.93,0,1.394,0c3.995,0,7.99,0,11.985,0
	c2.012,0.403,3.027,1.803,4.46,2.787c0.637,0.177,1.681,0.553,2.229,0C81.943,4.151,83.128,2.919,84.853,2.23z M60.327,5.017
	c-0.186,0-0.372,0-0.558,0c-0.371,0-0.743,0-1.114,0c-0.49,0.161-1.638-0.336-1.672,0.279c-0.464,0-0.929,0-1.394,0
	c-0.743,0-1.486,0-2.229,0c-0.929,0-1.858,0-2.788,0c-2.905,0-6.381,0-9.754,0c-2.873,0-7.489-0.6-9.755,0
	c-0.264,0.07-0.364,0.438,0,0.557c0.461,0.932,0.932,1.855,1.394,2.787c1.768,0.648,4.736,0.095,6.967,0.278
	c0.836,0,1.672,0,2.508,0c2.528,0.232,2.828,2.601,3.902,4.739c2.459,4.892,5.45,10.111,7.247,14.493
	c0.412,0.61,0.543,1.5,1.115,1.951c1.519,2.675,2.585,5.531,3.902,8.083c0.437,0.845,1.202,1.628,1.672,2.509
	c0.88,1.643,1.664,3.585,2.509,5.295c0.842,1.703,1.509,3.769,3.066,5.018c-0.199,0.451,1.313,0.451,1.114,0
	c0.159-0.553,0.668-0.304,1.115-0.559c0.279-0.158,0.542-0.653,0.836-0.835c0.711-0.439,1.53-0.672,2.229-1.116
	c2.081-1.317,4.153-2.68,6.133-3.901c1.123-0.693,2.207-1.336,3.064-1.951c0.99-0.709,1.972-1.52,1.951-3.066
	c0.093,0,0.187,0,0.279,0c0-0.557,0-1.115,0-1.672c0-0.743,0-1.486,0-2.229c0-1.672,0-3.344,0-5.017
	c0.214-2.758,1.237-4.708,2.786-6.131c0.493-0.252,0.863-0.624,1.116-1.116c1.915-2.357,5.495-3.051,9.476-3.344
	c-0.24-2.732-2.117-3.829-2.508-6.41c0-0.558,0-1.115,0-1.672c0.404-1.826,1.699-2.761,1.951-4.738
	c-1.661-0.477-3.033-1.241-4.738-1.672c-0.236-0.415-0.897-0.403-1.394-0.558c-0.093,0-0.187,0-0.279,0
	c-0.3-0.461-2.486-0.461-2.786,0c-0.693-0.043-0.863,0.438-1.395,0.558c-0.491,0.251-0.863,0.623-1.114,1.115
	c-0.4,0.808-1.266,1.149-2.229,1.393c-0.838,0-1.673,0-2.508,0c-2.469-0.319-3.075-2.499-5.298-3.065
	c-2.229-0.648-5.664-0.094-8.36-0.278c-1.021,0-2.044,0-3.065,0C61.315,4.89,60.28,4.413,60.327,5.017z"/>
<path fill-rule="evenodd" clip-rule="evenodd" fill="#D5D5D5" d="M64.508,53.512c0.929,0,1.858,0,2.787,0
	C66.995,53.974,64.808,53.974,64.508,53.512z"/>
<path fill-rule="evenodd" clip-rule="evenodd" fill="#A6A6A6" d="M29.39,3.066c3.996-0.65,9.197-0.094,13.657-0.279
	c0.093,0,0.186,0,0.279,0c0,0.093,0,0.186,0,0.279C38.68,3.066,34.036,3.066,29.39,3.066z"/>
<path fill-rule="evenodd" clip-rule="evenodd" fill="#757575" d="M85.69,5.017c0.3-0.461,2.486-0.461,2.786,0
	C87.547,5.017,86.618,5.017,85.69,5.017z"/>
<path fill-rule="evenodd" clip-rule="evenodd" fill="#A6A6A6" d="M78.444,8.082c0.835,0,1.67,0,2.508,0
	C80.74,8.543,78.654,8.543,78.444,8.082z"/>
<path fill-rule="evenodd" clip-rule="evenodd" fill="#757575" d="M92.937,23.133c0.206-0.628,1.563-0.109,2.229-0.279
	c0,0.093,0,0.186,0,0.279C94.423,23.133,93.68,23.133,92.937,23.133z"/>
<path fill-rule="evenodd" clip-rule="evenodd" fill="#757575" d="M58.655,2.508c0.12-0.623,1.374-0.113,1.951-0.278
	c0,0.092,0,0.185,0,0.278C59.956,2.508,59.305,2.508,58.655,2.508z"/>
<path fill-rule="evenodd" clip-rule="evenodd" fill="#757575" d="M82.066,30.658c0,1.672,0,3.345,0,5.017c-0.093,0-0.187,0-0.279,0
	C81.97,34.091,81.421,31.777,82.066,30.658z"/>
</svg>
