<?xml version="1.0" standalone="no"?>
<!DOCTYPE svg PUBLIC "-//W3C//DTD SVG 20010904//EN"
 "http://www.w3.org/TR/2001/REC-SVG-20010904/DTD/svg10.dtd">
<svg version="1.0" xmlns="http://www.w3.org/2000/svg"
 width="16.000000pt" height="16.000000pt" viewBox="0 0 16.000000 16.000000"
 preserveAspectRatio="xMidYMid meet">
<metadata>
Created by potrace 1.11, written by Peter Selinger 2001-2013
</metadata>
<g transform="translate(0.000000,16.000000) scale(0.006154,-0.006154)"
fill="#000000" stroke="none">
<path d="M1160 2438 c-73 -89 -133 -167 -133 -174 0 -7 -3 -11 -7 -9 -4 2 -40
-37 -81 -87 -41 -50 -78 -96 -84 -102 -82 -93 -107 -129 -94 -137 13 -8 10
-11 -18 -13 -7 -1 -61 -60 -120 -132 -60 -72 -125 -150 -145 -175 -20 -24 -84
-102 -143 -174 -59 -71 -117 -141 -128 -155 -12 -14 -38 -45 -57 -70 -19 -25
-51 -65 -72 -89 -21 -24 -35 -48 -32 -52 3 -5 0 -8 -8 -7 -10 2 -13 -36 -15
-189 -1 -106 2 -195 7 -198 5 -3 5 -19 0 -35 -8 -28 -6 -34 13 -31 4 0 7 -4 7
-10 0 -5 4 -8 9 -4 5 3 12 1 16 -5 3 -5 -1 -10 -9 -10 -18 0 -21 -16 -5 -25 6
-4 16 1 23 10 7 10 19 16 26 13 10 -3 7 -10 -10 -26 -13 -12 -27 -19 -32 -16
-4 3 -8 1 -8 -5 0 -5 15 -8 32 -7 18 2 36 -2 40 -8 5 -8 8 -7 8 2 0 6 7 12 16
12 9 0 12 -5 8 -12 -4 -7 -3 -8 4 -4 22 13 13 28 -13 24 -14 -3 -28 -1 -32 5
-3 6 -1 7 5 3 7 -4 12 -3 12 2 0 13 40 7 50 -7 5 -10 9 -10 15 -2 4 7 2 17 -4
24 -7 9 -2 18 20 32 36 25 37 37 1 29 -15 -3 -22 -2 -17 3 22 17 46 63 33 63
-9 0 -9 3 1 13 11 9 14 9 18 0 3 -7 13 -13 24 -13 20 0 26 -24 9 -35 -6 -4 -7
1 -3 11 5 14 3 15 -14 6 -15 -8 -19 -18 -16 -37 3 -14 10 -25 17 -25 6 0 4 -4
-4 -9 -8 -6 -18 -7 -22 -4 -12 7 -39 -17 -32 -29 3 -5 12 -4 20 3 11 9 18 9
26 1 8 -8 6 -13 -8 -19 -20 -7 -44 -28 -44 -38 0 -3 11 2 25 11 21 14 24 14
20 2 -5 -11 0 -15 17 -14 13 0 23 6 23 13 0 6 4 15 9 20 5 5 6 -8 3 -30 -4
-25 -2 -35 5 -31 5 4 14 1 18 -6 6 -10 12 -9 27 5 16 17 16 18 1 12 -19 -7
-25 7 -8 18 19 12 11 26 -8 16 -14 -8 -19 -6 -19 5 0 7 9 14 19 14 13 0 17 4
12 13 -5 8 -2 8 9 -2 10 -7 17 -9 17 -3 0 15 33 8 38 -9 3 -11 2 -11 -6 -1 -7
11 -12 10 -26 -3 -24 -25 -20 -38 11 -31 16 3 22 3 16 0 -7 -3 -13 -12 -13
-20 0 -9 5 -12 10 -9 6 3 10 -1 10 -10 0 -9 5 -13 11 -10 6 4 8 13 5 20 -3 9
2 11 16 7 18 -4 18 -6 4 -14 -9 -5 -16 -14 -16 -20 0 -7 5 -6 15 2 10 9 15 9
15 1 0 -15 112 -14 129 1 11 11 13 10 8 -5 -8 -21 -6 -21 40 -2 20 8 38 13 41
10 3 -3 -1 -5 -8 -5 -7 0 -11 -3 -7 -6 10 -10 116 -11 120 0 2 6 9 6 17 1 20
-12 70 -14 70 -2 0 5 10 6 23 2 12 -4 132 -8 267 -9 l245 -1 1 -143 c1 -79 4
-145 7 -148 3 -3 2 -18 -1 -32 -6 -24 -7 -54 -3 -104 1 -17 28 -18 424 -18
l423 0 -3 53 c-2 28 -2 66 -2 82 1 17 1 50 1 75 -2 53 -2 45 1 140 1 41 5 80
9 86 4 6 49 10 120 9 64 0 116 3 120 9 4 6 12 5 22 -3 14 -11 16 -11 16 3 0
10 4 15 9 12 5 -3 12 1 15 10 8 22 8 24 -5 22 -6 -2 -14 3 -16 10 -3 7 1 10 9
7 11 -5 14 17 14 112 0 72 -4 121 -10 125 -8 5 -8 8 -1 8 15 0 16 41 2 59 -9
11 -9 13 0 8 8 -5 11 1 9 20 -3 30 -26 45 -26 18 0 -14 -3 -15 -13 -6 -8 6
-16 9 -19 6 -2 -3 -5 1 -5 9 0 8 8 11 19 8 10 -2 18 1 18 7 0 10 -13 15 -32
12 -4 0 -7 9 -5 20 1 12 -4 24 -12 27 -10 3 -12 0 -8 -12 10 -26 -9 -18 -21 9
-15 32 -15 38 0 29 20 -12 58 -13 58 -1 0 7 5 6 11 -3 8 -11 9 -7 5 18 -4 23
-2 31 6 26 8 -5 9 -2 5 10 -4 10 -7 20 -7 22 0 12 -30 2 -40 -13 -10 -16 -10
-16 -8 2 3 19 -3 20 -112 22 -63 1 -117 2 -120 2 -3 1 -5 40 -5 89 1 48 -3 93
-8 99 -5 7 -7 22 -4 33 3 11 1 18 -3 15 -4 -3 -6 4 -3 15 3 11 8 20 12 20 9 0
7 442 -3 458 -4 7 -12 10 -17 6 -5 -3 -8 8 -7 25 1 16 5 29 8 29 22 -2 26 10
26 100 0 53 -4 100 -9 103 -5 4 -4 15 2 26 5 11 7 24 3 27 -4 4 -7 13 -8 19 0
7 -2 20 -2 30 -1 10 -5 16 -10 14 -4 -3 -7 8 -7 23 -1 24 2 27 14 17 12 -9 13
-9 7 0 -4 7 -2 22 5 34 10 19 9 21 -5 16 -14 -6 -14 -4 -3 16 15 24 18 262 4
285 -5 7 -3 12 5 12 8 1 6 6 -6 15 -24 18 -63 19 -69 3 -4 -10 -6 -10 -6 0 -1
6 -5 12 -10 12 -11 0 -3 -39 12 -57 7 -10 3 -13 -14 -13 -14 0 -30 9 -37 21
-7 12 -16 18 -19 15 -3 -3 0 -12 7 -21 7 -8 10 -15 7 -15 -9 0 -57 50 -57 58
0 4 -9 8 -21 8 -18 0 -18 -2 -5 -12 23 -16 20 -27 -5 -19 -15 5 -19 4 -15 -4
4 -6 2 -11 -3 -11 -6 0 -11 10 -12 23 0 20 -1 21 -8 3 -7 -19 -8 -18 -14 4 -5
20 -8 22 -23 10 -10 -9 -12 -16 -5 -18 6 -2 11 -10 11 -17 0 -16 29 -34 45
-29 6 2 18 -8 28 -21 16 -22 16 -25 2 -25 -9 0 -18 7 -22 16 -5 13 -7 13 -14
2 -7 -10 -9 -9 -9 5 0 10 -4 16 -9 13 -5 -4 -12 0 -14 6 -4 8 -6 7 -6 -3 -1
-15 -7 -15 -41 -7 -22 6 -40 15 -40 20 0 5 6 6 13 3 6 -4 4 0 -6 8 -10 9 -14
18 -8 21 5 3 11 0 14 -6 2 -7 7 -10 11 -7 11 11 -6 40 -20 35 -8 -3 -14 -1
-14 4 0 6 -5 10 -11 10 -8 0 -8 -4 -2 -12 5 -7 10 -24 10 -38 1 -14 -1 -19 -4
-12 -3 6 -10 9 -15 6 -7 -4 -8 -2 -4 4 10 17 -12 52 -32 52 -13 0 -14 -2 -3
-9 19 -12 -3 -53 -25 -44 -11 4 -12 9 -5 16 15 15 14 27 -3 21 -8 -3 -17 -1
-21 5 -4 7 -85 11 -238 11 l-233 0 -134 -162z m640 82 c0 -5 -5 -10 -11 -10
-5 0 -7 5 -4 10 3 6 8 10 11 10 2 0 4 -4 4 -10z m215 -80 c4 -25 12 -40 21
-40 8 0 14 -9 14 -20 0 -28 -5 -25 -28 13 -23 38 -36 87 -23 87 5 0 12 -18 16
-40z m-230 10 c3 -5 1 -10 -4 -10 -6 0 -11 5 -11 10 0 6 2 10 4 10 3 0 8 -4
11 -10z m145 -26 c0 -8 -5 -12 -10 -9 -6 4 -8 11 -5 16 9 14 15 11 15 -7z
m280 -4 c0 -5 -4 -10 -10 -10 -5 0 -10 5 -10 10 0 6 5 10 10 10 6 0 10 -4 10
-10z m-212 -35 c-3 -3 -9 2 -12 12 -6 14 -5 15 5 6 7 -7 10 -15 7 -18z m192
-5 c0 -5 -4 -10 -10 -10 -5 0 -10 5 -10 10 0 6 5 10 10 10 6 0 10 -4 10 -10z
m-1065 -115 c19 -13 18 -14 -9 -7 -18 5 -33 18 -38 32 -9 24 -8 24 9 7 10 -10
27 -24 38 -32z m252 23 c-3 -8 -6 -5 -6 6 -1 11 2 17 5 13 3 -3 4 -12 1 -19z
m878 12 c3 -5 1 -10 -4 -10 -6 0 -11 5 -11 10 0 6 2 10 4 10 3 0 8 -4 11 -10z
m-52 -17 c3 6 6 2 6 -11 1 -16 5 -21 14 -16 9 6 9 4 1 -7 -6 -8 -10 -22 -9
-31 2 -10 -1 -18 -6 -18 -4 0 -6 -6 -4 -12 3 -7 0 -20 -5 -28 -9 -13 -11 -13
-20 0 -13 21 -13 23 10 48 11 11 16 23 11 27 -5 3 -11 -1 -14 -7 -7 -19 -17
-4 -22 31 -3 27 -1 30 15 21 13 -7 20 -6 23 3z m-626 -29 c-3 -3 -12 -4 -19
-1 -8 3 -5 6 6 6 11 1 17 -2 13 -5z m-412 -24 c3 -5 -1 -10 -10 -10 -9 0 -13
5 -10 10 3 6 8 10 10 10 2 0 7 -4 10 -10z m975 -5 c0 -8 -2 -15 -4 -15 -2 0
-6 7 -10 15 -3 8 -1 15 4 15 6 0 10 -7 10 -15z m-130 -49 c0 -11 -19 -15 -25
-6 -3 5 1 10 9 10 9 0 16 -2 16 -4z m134 -78 c-3 -5 -12 -4 -20 3 -7 6 -11 15
-8 21 3 5 12 4 20 -3 7 -6 11 -15 8 -21z m-34 -36 c0 -5 -7 -9 -15 -9 -8 0
-15 4 -15 9 0 4 7 8 15 8 8 0 15 -4 15 -8z m125 -42 c3 -5 1 -10 -4 -10 -6 0
-11 5 -11 10 0 6 2 10 4 10 3 0 8 -4 11 -10z m-75 -104 c0 -3 -4 -8 -10 -11
-5 -3 -10 -1 -10 4 0 6 5 11 10 11 6 0 10 -2 10 -4z m-743 -496 c0 -165 2
-302 5 -305 9 -9 -4 -65 -16 -66 -6 -1 -45 -2 -86 -3 -41 -1 -81 -5 -89 -10
-7 -5 -16 -5 -20 1 -3 5 -79 9 -169 8 -101 0 -162 4 -161 10 1 9 528 665 534
665 1 0 2 -135 2 -300z m763 255 c10 -12 10 -15 -4 -15 -9 0 -16 7 -16 15 0 8
2 15 4 15 2 0 9 -7 16 -15z m-55 -75 c-9 -15 -25 -12 -32 6 -8 21 19 38 30 18
4 -8 5 -19 2 -24z m-75 10 c0 -5 -2 -10 -4 -10 -3 0 -8 5 -11 10 -3 6 -1 10 4
10 6 0 11 -4 11 -10z m105 -20 c3 -5 1 -10 -4 -10 -6 0 -11 5 -11 10 0 6 2 10
4 10 3 0 8 -4 11 -10z m65 -35 c0 -8 -4 -15 -10 -15 -5 0 -10 7 -10 15 0 8 5
15 10 15 6 0 10 -7 10 -15z m-1750 -183 c0 -13 -12 -22 -22 -16 -10 6 -1 24
13 24 5 0 9 -4 9 -8z m1590 -32 c0 -5 -4 -10 -10 -10 -5 0 -10 5 -10 10 0 6 5
10 10 10 6 0 10 -4 10 -10z m-355 -20 c3 -5 1 -10 -4 -10 -6 0 -11 5 -11 10 0
6 2 10 4 10 3 0 8 -4 11 -10z m-1424 -27 c-8 -15 -10 -15 -11 -2 0 17 10 32
18 25 2 -3 -1 -13 -7 -23z m6 -75 c-3 -7 -5 -2 -5 12 0 14 2 19 5 13 2 -7 2
-19 0 -25z m1898 -28 l20 -25 -20 15 c-26 18 -54 52 -55 64 0 10 15 -5 55 -54z
m-1530 -180 c3 -5 2 -10 -4 -10 -5 0 -13 5 -16 10 -3 6 -2 10 4 10 5 0 13 -4
16 -10z m-135 -16 c0 -2 -9 -4 -20 -4 -11 0 -20 4 -20 9 0 5 9 7 20 4 11 -3
20 -7 20 -9z m-380 -19 c-7 -8 -17 -12 -23 -8 -6 4 -3 9 9 14 27 11 28 11 14
-6z m457 -7 c-3 -8 -6 -5 -6 6 -1 11 2 17 5 13 3 -3 4 -12 1 -19z m378 2 c18
-8 18 -9 -5 -8 -14 0 -36 4 -50 8 -24 8 -24 8 5 8 17 0 39 -3 50 -8z m105 -14
c0 -2 -7 -7 -16 -10 -8 -3 -12 -2 -9 4 6 10 25 14 25 6z m1326 -23 c-10 -10
-19 5 -10 18 6 11 8 11 12 0 2 -7 1 -15 -2 -18z m59 -3 c3 -5 -1 -10 -10 -10
-9 0 -13 5 -10 10 3 6 8 10 10 10 2 0 7 -4 10 -10z m-24 -38 c-6 -2 -11 -11
-11 -19 0 -9 -3 -13 -7 -10 -3 4 -12 -1 -20 -11 -8 -9 -12 -11 -8 -4 3 6 -1
15 -9 18 -21 8 -20 31 1 42 11 7 25 6 41 -1 13 -6 19 -13 13 -15z m-2316 2
c13 -5 14 -8 3 -15 -19 -13 -28 -11 -28 6 0 17 2 18 25 9z m1425 -34 c0 -5 -5
-10 -11 -10 -5 0 -7 5 -4 10 3 6 8 10 11 10 2 0 4 -4 4 -10z m-1375 -10 c3 -5
1 -10 -4 -10 -6 0 -11 5 -11 10 0 6 2 10 4 10 3 0 8 -4 11 -10z m815 -24 c0
-2 -8 -10 -17 -17 -16 -13 -17 -12 -4 4 13 16 21 21 21 13z m218 -30 c-2 -1
-12 -8 -22 -16 -18 -14 -18 -14 -6 7 8 12 18 19 23 16 4 -3 7 -6 5 -7z m1256
-2 c3 -8 2 -12 -4 -9 -6 3 -10 10 -10 16 0 14 7 11 14 -7z m-2324 -3 c0 -5 -7
-12 -16 -15 -14 -5 -15 -4 -4 9 14 17 20 19 20 6z m2210 -1 c0 -5 -4 -10 -10
-10 -5 0 -10 5 -10 10 0 6 5 10 10 10 6 0 10 -4 10 -10z m-1400 -4 c0 -3 -4
-8 -10 -11 -5 -3 -10 -1 -10 4 0 6 5 11 10 11 6 0 10 -2 10 -4z m-510 -10 c0
-3 -4 -8 -10 -11 -5 -3 -10 -1 -10 4 0 6 5 11 10 11 6 0 10 -2 10 -4z m-270
-10 c0 -3 -4 -8 -10 -11 -5 -3 -10 -1 -10 4 0 6 5 11 10 11 6 0 10 -2 10 -4z
m150 -6 c0 -5 -7 -10 -16 -10 -8 0 -12 5 -9 10 3 6 10 10 16 10 5 0 9 -4 9
-10z m85 0 c3 -5 -1 -10 -10 -10 -9 0 -13 5 -10 10 3 6 8 10 10 10 2 0 7 -4
10 -10z m1080 -5 c17 -2 30 -4 30 -5 0 -3 39 -10 87 -16 26 -4 45 -10 43 -14
-8 -13 -163 3 -195 20 -10 5 -28 10 -39 10 -11 0 -22 4 -25 8 -5 8 17 7 99 -3z
m-1130 -16 c-4 -13 -3 -19 2 -16 5 4 10 1 10 -6 0 -7 -8 -13 -18 -13 -15 0
-19 21 -10 54 1 1 6 2 12 2 6 0 8 -9 4 -21z m185 11 c0 -5 -4 -10 -10 -10 -5
0 -10 5 -10 10 0 6 5 10 10 10 6 0 10 -4 10 -10z m856 -76 c0 -1 -19 1 -41 4
l-40 5 35 12 c30 10 36 10 41 -4 4 -9 6 -16 5 -17z m-1231 -12 c-3 -3 -11 0
-18 7 -9 10 -8 11 6 5 10 -3 15 -9 12 -12z m565 -3 c0 -5 -4 -9 -10 -9 -5 0
-10 7 -10 16 0 8 5 12 10 9 6 -3 10 -10 10 -16z m-600 -3 c0 -11 -19 -15 -25
-6 -3 5 1 10 9 10 9 0 16 -2 16 -4z m890 -73 c0 -13 -19 2 -31 25 -23 46 -22
48 5 13 14 -19 26 -36 26 -38z m870 37 c0 -13 -5 -18 -15 -14 -8 4 -15 12 -15
20 0 8 7 14 15 14 8 0 15 -9 15 -20z m-1743 4 c-3 -3 -12 -4 -19 -1 -8 3 -5 6
6 6 11 1 17 -2 13 -5z m243 -4 c0 -5 -5 -10 -11 -10 -5 0 -7 5 -4 10 3 6 8 10
11 10 2 0 4 -4 4 -10z m2128 -15 c-3 -3 -9 2 -12 12 -6 14 -5 15 5 6 7 -7 10
-15 7 -18z m-2398 -6 c0 -6 -4 -7 -10 -4 -5 3 -10 11 -10 16 0 6 5 7 10 4 6
-3 10 -11 10 -16z m1253 -19 c-7 -8 -22 24 -16 34 4 5 10 1 13 -10 4 -10 6
-21 3 -24z m-1163 26 c0 -2 -7 -6 -15 -10 -8 -3 -15 -1 -15 4 0 6 7 10 15 10
8 0 15 -2 15 -4z m1960 -6 c0 -5 -4 -10 -10 -10 -5 0 -10 5 -10 10 0 6 5 10
10 10 6 0 10 -4 10 -10z m-2000 -4 c0 -2 -6 -9 -14 -15 -11 -9 -16 -9 -22 0
-4 8 -3 9 4 5 7 -4 12 -2 12 3 0 6 5 11 10 11 6 0 10 -2 10 -4z m440 -18 c0
-6 -6 -5 -15 2 -8 7 -15 14 -15 16 0 2 7 1 15 -2 8 -4 15 -11 15 -16z m73 9
c3 -7 -3 -13 -13 -13 -10 0 -16 6 -13 13 3 7 9 13 13 13 4 0 10 -6 13 -13z
m-349 -9 c-3 -4 -9 -8 -15 -8 -5 0 -9 4 -9 8 0 5 7 9 15 9 8 0 12 -4 9 -9z
m1178 -39 c-42 -40 -42 -41 -28 -70 8 -16 10 -29 5 -29 -5 0 -11 11 -15 25 -5
20 -29 38 -56 40 -3 0 -10 3 -14 8 -4 4 8 7 27 7 24 0 45 10 74 35 54 47 60
33 7 -16z m-742 21 c0 -5 -2 -10 -4 -10 -3 0 -8 5 -11 10 -3 6 -1 10 4 10 6 0
11 -4 11 -10z m1760 -4 c0 -2 -8 -10 -17 -17 -16 -13 -17 -12 -4 4 13 16 21
21 21 13z m-1983 -21 c0 -8 -4 -12 -9 -9 -5 3 -6 10 -3 15 9 13 12 11 12 -6z
m805 -7 c-7 -7 -12 -8 -12 -2 0 14 12 26 19 19 2 -3 -1 -11 -7 -17z m-1067 2
c3 -5 1 -10 -4 -10 -6 0 -11 5 -11 10 0 6 2 10 4 10 3 0 8 -4 11 -10z m441 -7
c0 -12 7 -19 22 -21 26 -4 28 -14 7 -32 -13 -11 -14 -10 -10 2 4 10 -1 17 -14
21 -15 4 -21 0 -21 -11 0 -14 -2 -14 -9 -3 -5 7 -13 11 -19 7 -6 -3 -14 -1
-18 5 -4 7 -3 9 4 5 6 -3 13 -2 17 4 4 6 11 7 17 4 7 -5 9 -2 5 8 -6 16 0 28
14 28 4 0 6 -8 5 -17z m404 7 c0 -5 -2 -10 -4 -10 -3 0 -8 5 -11 10 -3 6 -1
10 4 10 6 0 11 -4 11 -10z m-285 -10 c3 -5 -1 -10 -10 -10 -9 0 -13 5 -10 10
3 6 8 10 10 10 2 0 7 -4 10 -10z m102 4 c-3 -3 -12 -4 -19 -1 -8 3 -5 6 6 6
11 1 17 -2 13 -5z m-477 -14 c0 -5 -2 -10 -4 -10 -3 0 -8 5 -11 10 -3 6 -1 10
4 10 6 0 11 -4 11 -10z m163 -15 c-3 -9 -8 -14 -10 -11 -3 3 -2 9 2 15 9 16
15 13 8 -4z m397 5 c0 -5 -5 -10 -11 -10 -5 0 -7 5 -4 10 3 6 8 10 11 10 2 0
4 -4 4 -10z m661 -18 c-13 -2 -27 0 -32 5 -6 6 3 7 23 4 28 -4 29 -6 9 -9z
m509 -3 c0 -6 -4 -7 -10 -4 -5 3 -10 11 -10 16 0 6 5 7 10 4 6 -3 10 -11 10
-16z m-1695 -17 c-8 -8 -25 10 -19 20 4 6 9 5 15 -3 4 -7 6 -15 4 -17z m73 10
c2 -6 -1 -12 -8 -12 -6 0 -8 5 -5 10 8 13 -1 13 -26 0 -15 -8 -19 -7 -19 4 0
18 51 17 58 -2z m357 -10 c-8 -8 -25 10 -19 20 4 6 9 5 15 -3 4 -7 6 -15 4
-17z m240 19 c3 -5 1 -12 -5 -16 -5 -3 -10 1 -10 9 0 18 6 21 15 7z m735 -11
c0 -5 -4 -10 -10 -10 -5 0 -10 5 -10 10 0 6 5 10 10 10 6 0 10 -4 10 -10z
m-160 -60 c0 -5 -5 -10 -11 -10 -5 0 -7 5 -4 10 3 6 8 10 11 10 2 0 4 -4 4
-10z m-35 -61 c38 -13 80 -35 92 -49 33 -37 28 -48 -7 -15 -29 28 -67 46 -142
67 -21 6 -38 15 -38 20 0 6 6 8 13 6 6 -3 43 -16 82 -29z m285 -29 c0 -5 -4
-10 -10 -10 -5 0 -10 5 -10 10 0 6 5 10 10 10 6 0 10 -4 10 -10z m-495 -49 c3
-5 1 -12 -5 -16 -5 -3 -10 1 -10 9 0 18 6 21 15 7z m257 -33 c-7 -7 -12 -8
-12 -2 0 14 12 26 19 19 2 -3 -1 -11 -7 -17z m332 -34 c3 -8 2 -12 -4 -9 -6 3
-10 10 -10 16 0 14 7 11 14 -7z m-590 -15 c20 -19 -1 -17 -29 2 -28 19 -28 20
-5 14 14 -4 29 -11 34 -16z m430 -14 c-10 -8 -23 -14 -29 -14 -5 0 -1 6 9 14
11 8 24 15 30 15 5 0 1 -7 -10 -15z m-44 -31 c0 -7 -66 -34 -82 -33 -7 0 5 9
27 20 42 19 55 23 55 13z m-200 -54 c0 -5 -2 -10 -4 -10 -3 0 -8 5 -11 10 -3
6 -1 10 4 10 6 0 11 -4 11 -10z m60 -20 c0 -5 -5 -10 -11 -10 -5 0 -7 5 -4 10
3 6 8 10 11 10 2 0 4 -4 4 -10z"/>
<path d="M1930 2563 c8 -17 8 -23 0 -23 -6 0 -8 -5 -5 -10 7 -11 25 -4 25 9 0
4 -7 16 -16 27 -14 18 -15 18 -4 -3z"/>
<path d="M2560 1055 c0 -5 5 -17 10 -25 5 -8 10 -10 10 -5 0 6 -5 17 -10 25
-5 8 -10 11 -10 5z"/>
<path d="M61 493 c6 -7 15 -10 20 -7 5 3 9 1 9 -5 0 -19 -19 -21 -28 -4 -9 14
-13 15 -26 4 -9 -7 -16 -21 -15 -30 0 -10 2 -12 6 -3 2 6 10 9 15 6 13 -8 107
-9 114 -1 3 3 1 8 -5 12 -6 3 -11 2 -11 -3 0 -5 -10 -7 -23 -5 -14 3 -23 12
-23 24 0 14 5 17 19 13 13 -4 17 -2 13 5 -4 6 -22 10 -41 9 -28 -1 -33 -4 -24
-15z"/>
<path d="M260 475 c0 -17 38 -35 58 -28 23 9 12 25 -15 20 -16 -2 -22 -2 -15
0 16 6 6 23 -14 23 -8 0 -14 -7 -14 -15z"/>
<path d="M370 470 c0 -5 -7 -10 -15 -10 -8 0 -15 -4 -15 -9 0 -10 19 -9 38 2
7 5 12 3 12 -3 0 -6 5 -8 10 -5 6 4 5 12 -4 21 -17 16 -26 18 -26 4z"/>
<path d="M226 448 c3 -4 9 -8 15 -8 5 0 9 4 9 8 0 5 -7 9 -15 9 -8 0 -12 -4
-9 -9z"/>
</g>
</svg>
