<?xml version="1.0" encoding="utf-8"?>
<!-- Generator: Adobe Illustrator 15.0.0, SVG Export Plug-In  -->
<!DOCTYPE svg PUBLIC "-//W3C//DTD SVG 1.1//EN" "http://www.w3.org/Graphics/SVG/1.1/DTD/svg11.dtd" [
	<!ENTITY ns_flows "http://ns.adobe.com/Flows/1.0/">
]>
<svg version="1.1"
	 xmlns="http://www.w3.org/2000/svg" xmlns:xlink="http://www.w3.org/1999/xlink" xmlns:a="http://ns.adobe.com/AdobeSVGViewerExtensions/3.0/"
	 x="0px" y="0px" width="142px" height="142px" viewBox="-0.724 -0.724 142 142" enable-background="new -0.724 -0.724 142 142"
	 xml:space="preserve">
<defs>
</defs>
<path fill="#FFFFFF" d="M70.538,0C31.642,0,0,31.644,0,70.541c0,38.894,31.642,70.535,70.538,70.535
	c38.894,0,70.538-31.643,70.538-70.535C141.076,31.644,109.431,0,70.538,0z M44.005,86.51H9.672V53.226h10.656v24.799h23.677V86.51z
	 M76.212,86.51H60.63L44.171,53.226h11.144l12.143,24.92h1.902l12.021-24.92h11.07L76.212,86.51z M99.128,86.51V53.226h10.656
	v24.799h23.677v8.485H99.128z"/>
</svg>
