<?xml  version="1.0" encoding="UTF-8"?>
<!DOCTYPE svg PUBLIC "-//W3C//DTD SVG 1.0//EN" "http://www.w3.org/TR/2001/REC-SVG-20010904/DTD/svg10.dtd" >
<svg xmlns="http://www.w3.org/2000/svg" >
<metadata>
<version>1.0</version>
<id><![CDATA[DIN Next W02 Medium Cond]]></id>
<vendor>Monotype Imaging Inc.</vendor>
<credits>
<name>Fonts.com WebFonts</name>
<URL>http://webfonts.fonts.com</URL>
<role>Home of the Web fonts</role>
</credits>
<license>
<URL>http://webfonts.fonts.com/Legal</URL>
</license>
<copyright><![CDATA[Copyright © 2010 Linotype GmbH, www.linotype.com. All rights reserved. This font software may not be reproduced, modified, disclosed or transferred without the express written approval of Linotype GmbH.]]></copyright>
<trademark></trademark>
<licensee>
<name></name>
</licensee>
</metadata>
<defs >
<font horiz-adv-x="387" id="7d74c48f-eb44-4482-beac-22633e05e964">
<font-face font-family="" panose-1="2 11 6 6 2 2 3 5 2 3" ascent="902" descent="-221" units-per-em="1000" alphabetic="0">
</font-face>
<missing-glyph horiz-adv-x="388" d="M0 670Q0 680 10 680H378Q388 680 388 670V10Q388 0 378 0H10Q0 0 0 10V670ZM59 61Q59 55 65 55H324Q330 55 330 61V619Q330 625 324 625H65Q59 625 59 619V61ZM168 224Q158 224 158 234V280Q158 301 171 324L207 391Q216 408 220 421T224 455Q224 474 221 483Q214 503 191 503Q169 503 162 483Q160 478 160 470T159 442Q159 432 148 434L102 438Q93 439 93 449Q93 472 95 483T99 502Q108 530 133 546T192 563Q227 563 252 547T286 502Q288 495 290 484T292 458Q292 432 287 416T271 379L236 312Q231 303 229 295T226 276V234Q226 224 216 224H168ZM158 182Q158 192 168 192H216Q226 192 226 182V124Q226 114 216 114H168Q158 114 158 124V182Z"  />

<glyph unicode="&#xA;" />
<glyph unicode="&#xD;" horiz-adv-x="0" />
<glyph unicode=" " horiz-adv-x="194" />
<glyph unicode="!" horiz-adv-x="241" d="M97 170Q87 170 87 180L65 670Q65 680 75 680H166Q176 680 176 670L154 180Q154 170 144 170H97ZM68 109Q68 119 78 119H163Q173 119 173 109V10Q173 0 163 0H78Q68 0 68 10V109Z"  />
<glyph unicode="&quot;" horiz-adv-x="278" d="M173 493Q163 493 163 503V670Q163 680 173 680H228Q238 680 238 670V503Q238 493 228 493H173ZM50 493Q40 493 40 503V670Q40 680 50 680H105Q115 680 115 670V503Q115 493 105 493H50Z"  />
<glyph unicode="#" horiz-adv-x="509" d="M111 216H61Q51 216 51 226V278Q51 288 61 288H119L132 410H80Q70 410 70 420V472Q70 482 80 482H139L159 670Q161 680 170 680H227Q238 680 236 670L216 482H313L333 670Q335 680 344 680H401Q412 680 410 670L390 482H448Q458 482 458 472V420Q458 410 448 410H383L370 288H429Q439 288 439 278V226Q439 216 429 216H362L341 10Q339 0 330 0H273Q262 0 264 10L285 216H188L167 10Q165 0 156 0H99Q88 0 90 10L111 216ZM293 288L306 410H209L196 288H293Z"  />
<glyph unicode="$" horiz-adv-x="398" d="M35 165Q35 175 43 176L118 189Q129 190 129 180Q130 133 141 112T179 85V306L151 317Q119 330 98 346T64 384T46 437T41 507Q41 591 74 637T179 688V729Q179 739 189 739H206Q216 739 216 729V688Q284 682 314 640T351 528Q352 519 342 517L269 506Q260 504 258 514Q255 550 246 569T216 593V403L242 393Q273 381 295 365T330 326T350 271T356 195Q356 94 322 46T216 -8V-63Q216 -73 206 -73H189Q179 -73 179 -63V-8Q105 -3 72 39T35 165ZM179 594Q157 589 148 569T139 511Q139 473 146 453T179 419V594ZM216 86Q238 91 248 111T258 181Q258 227 249 251T216 290V86Z"  />
<glyph unicode="%" horiz-adv-x="674" d="M426 679Q430 689 439 689H493Q503 689 500 679L248 1Q244 -9 235 -9H181Q171 -9 174 1L426 679ZM161 328Q124 328 101 344T68 389Q65 397 64 404T62 424T61 456T60 507Q60 538 60 558T61 590T63 609T68 625Q77 654 100 670T161 686Q199 686 222 670T254 625Q257 617 258 610T260 590T261 558T262 507Q262 475 262 456T261 425T259 405T254 389Q245 360 222 344T161 328ZM161 392Q181 392 186 409Q187 411 187 415T188 429T189 458T189 507Q189 538 189 556T189 585T188 599T186 605Q181 622 161 622Q141 622 136 605Q135 603 135 599T134 585T133 557T133 507Q133 476 133 458T133 430T134 415T136 409Q141 392 161 392ZM420 55Q417 62 416 70T414 90T413 121T412 173Q412 204 412 223T413 255T415 275T420 291Q429 320 452 336T513 352Q550 352 573 336T606 291Q609 283 610 276T612 256T613 224T614 173Q614 141 614 122T613 90T611 70T606 55Q597 26 574 10T513 -6Q475 -6 452 10T420 55ZM488 75Q493 58 513 58Q533 58 538 75Q539 77 539 81T540 95T541 123T541 173Q541 204 541 222T541 250T540 265T538 271Q533 288 513 288Q493 288 488 271Q487 269 487 265T486 251T485 222T485 173Q485 142 485 124T485 95T486 81T488 75Z"  />
<glyph unicode="&amp;" horiz-adv-x="553" d="M63 143Q63 193 94 243T184 363Q164 396 150 422T126 469T113 510T109 548Q109 580 120 606T150 650T195 679T254 689Q285 689 312 679T358 651T388 606T399 548Q399 530 395 511T379 470T348 419T297 354L368 235L413 312Q418 320 426 315L481 284Q489 279 484 270L417 153L440 115Q449 99 455 95T472 90H475Q485 90 485 80V10Q485 0 475 0H445Q416 0 403 8T377 38L361 64Q330 25 296 8T216 -9Q144 -9 104 32T63 143ZM249 437Q267 458 278 474T296 503T305 527T307 551Q307 609 255 609Q203 609 203 551Q203 537 211 513T249 437ZM158 145Q158 113 175 96T222 78Q245 78 266 91T314 144L232 281Q194 236 176 205T158 145Z"  />
<glyph unicode="&apos;" horiz-adv-x="155" d="M50 493Q40 493 40 503V670Q40 680 50 680H105Q115 680 115 670V503Q115 493 105 493H50Z"  />
<glyph unicode="(" horiz-adv-x="271" d="M161 -74Q114 17 90 121T65 328Q65 431 89 535T161 730Q164 740 174 740H223Q233 740 230 730Q200 639 184 535T167 328Q167 225 183 121T230 -74Q233 -84 223 -84H174Q164 -84 161 -74Z"  />
<glyph unicode=")" horiz-adv-x="271" d="M41 -74Q71 17 87 121T104 328Q104 431 88 535T41 730Q38 740 48 740H98Q106 740 111 730Q157 639 181 535T206 328Q206 225 182 121T111 -74Q106 -84 98 -84H48Q38 -84 41 -74Z"  />
<glyph unicode="*" horiz-adv-x="328" d="M144 392Q134 392 134 402L135 486L76 450Q68 445 63 454L43 489Q38 498 46 503L105 536L46 569Q38 574 43 583L63 618Q68 627 76 622L135 586L134 670Q134 680 144 680H184Q194 680 194 670L192 586L252 622Q260 627 265 618L285 583Q290 574 282 569L222 536L282 503Q290 498 285 489L265 454Q260 445 252 450L192 485L194 402Q194 392 184 392H144Z"  />
<glyph unicode="+" horiz-adv-x="398" d="M153 225Q153 231 147 231H46Q36 231 36 241V311Q36 321 46 321H147Q153 321 153 327V429Q153 439 163 439H236Q246 439 246 429V327Q246 321 252 321H352Q362 321 362 311V241Q362 231 352 231H252Q246 231 246 225V123Q246 113 236 113H163Q153 113 153 123V225Z"  />
<glyph unicode="&#x2c;" horiz-adv-x="191" d="M46 109Q46 119 56 119H135Q145 119 145 109V27Q145 10 137 -1L66 -96Q61 -102 55 -102Q46 -102 46 -93V109Z"  />
<glyph unicode="-" horiz-adv-x="368" d="M52 218Q42 218 42 228V303Q42 313 52 313H316Q326 313 326 303V228Q326 218 316 218H52Z"  />
<glyph unicode="." horiz-adv-x="197" d="M46 109Q46 119 56 119H141Q151 119 151 109V10Q151 0 141 0H56Q46 0 46 10V109Z"  />
<glyph unicode="/" horiz-adv-x="245" d="M146 679Q148 689 157 689H214Q225 689 223 679L98 1Q97 -9 87 -9H30Q19 -9 21 1L146 679Z"  />
<glyph unicode="0" horiz-adv-x="398" d="M57 84Q54 93 52 104T49 142T47 214T46 340Q46 419 46 465T48 538T52 575T57 596Q71 641 108 665T199 689Q253 689 290 665T342 596Q345 587 346 576T349 538T351 466T352 340Q352 261 352 215T350 142T347 105T342 84Q327 39 290 15T199 -9Q145 -9 108 15T57 84ZM154 115Q159 101 169 93T199 84Q218 84 229 92T245 115Q246 120 247 127T249 157T250 222T250 340Q250 415 250 457T249 522T247 552T245 565Q240 579 229 587T199 596Q180 596 170 588T154 565Q152 560 151 553T150 523T149 458T148 340Q148 265 148 223T149 158T151 128T154 115Z"  />
<glyph unicode="1" horiz-adv-x="398" d="M167 562H165L80 502Q76 499 73 500T69 508V593Q69 602 79 610L166 674Q175 680 184 680H259Q269 680 269 670V10Q269 0 259 0H177Q167 0 167 10V562Z"  />
<glyph unicode="2" horiz-adv-x="398" d="M49 81Q49 90 54 101L223 405Q230 417 235 428T243 453T247 481T249 517Q249 537 248 546T245 563Q234 596 198 596Q163 596 152 563Q151 559 150 555T149 545T148 528T148 501Q148 489 136 491L58 498Q49 499 49 510Q49 542 50 561T57 594Q72 639 107 664T200 689Q257 689 292 665T342 595Q347 581 349 562T351 517Q351 489 349 467T341 427T328 391T309 354L160 94V93H341Q351 93 351 83V10Q351 0 341 0H59Q49 0 49 10V81Z"  />
<glyph unicode="3" horiz-adv-x="398" d="M56 86Q51 100 49 118T47 164Q47 175 57 176L134 183Q146 185 146 173Q146 145 147 135T150 117Q161 84 196 84Q232 84 243 116Q244 120 245 124T246 137T247 159T247 195Q247 219 247 233T247 256T245 269T243 276Q238 293 226 299T193 306H178Q168 306 168 316V388Q168 398 178 398H193Q213 398 225 404T243 427Q244 430 245 434T246 446T247 466T247 500Q247 516 247 526T247 544T245 555T243 564Q232 596 196 596Q161 596 150 563Q148 555 147 545T146 507Q146 495 134 497L57 504Q47 505 47 516Q47 543 49 561T56 594Q70 639 105 664T197 689Q255 689 290 665T340 596Q345 582 347 560T349 500Q349 480 349 466T348 443T346 427T342 414Q336 394 324 381T293 356V354Q311 343 323 330T342 296Q344 290 345 284T347 266T348 238T349 195Q349 170 349 153T347 122T344 100T340 84Q325 39 290 15T197 -9Q141 -9 106 16T56 86Z"  />
<glyph unicode="4" horiz-adv-x="398" d="M34 101Q24 101 24 111V183Q24 188 26 194L166 672Q169 680 178 680H261Q272 680 269 669L129 196V194H215Q221 194 221 200V380Q221 390 231 390H313Q323 390 323 380V200Q323 194 328 194H362Q372 194 372 184V111Q372 101 362 101H329Q323 101 323 95V10Q323 0 313 0H231Q221 0 221 10V95Q221 101 215 101H34Z"  />
<glyph unicode="5" horiz-adv-x="398" d="M57 86Q52 100 51 117T49 154Q49 164 58 166L136 174Q148 176 148 164Q148 143 149 134T152 117Q163 84 198 84Q234 84 245 116Q246 119 247 124T248 139T249 168T249 217Q249 247 249 265T249 293T247 309T245 317Q235 349 198 349Q179 349 168 341T152 319Q148 310 137 310H69Q59 310 59 320V670Q59 680 69 680H341Q351 680 351 670V597Q351 587 341 587H157Q151 587 151 581V415H152Q163 427 182 435T225 443Q272 443 300 423T341 363Q344 355 345 346T348 320T350 280T351 217Q351 184 351 162T349 125T346 101T342 85Q327 40 292 16T199 -9Q143 -9 108 16T57 86Z"  />
<glyph unicode="6" horiz-adv-x="398" d="M56 87Q54 94 52 102T49 123T48 154T47 198Q47 233 48 259T53 306T63 347T79 391L186 670Q190 680 200 680H283Q295 680 290 669L186 399L188 397Q192 399 201 401T222 403Q272 403 300 380T342 312Q346 298 349 273T352 198Q352 172 352 154T350 124T347 103T343 87Q328 42 292 17T199 -9Q142 -9 106 16T56 87ZM153 117Q164 84 199 84Q235 84 246 117Q247 121 248 125T249 138T250 160T250 198Q250 221 250 235T250 257T248 269T246 277Q235 310 199 310Q163 310 153 277Q152 274 151 270T150 257T149 235T149 198Q149 175 149 161T149 138T151 126T153 117Z"  />
<glyph unicode="7" horiz-adv-x="398" d="M251 585V587H147Q141 587 141 581V517Q141 507 131 507H57Q47 507 47 517V670Q47 680 57 680H343Q353 680 353 670V596Q353 591 351 585L184 10Q181 0 171 0H88Q78 0 82 13L251 585Z"  />
<glyph unicode="8" horiz-adv-x="398" d="M56 87Q54 94 52 102T49 123T48 153T47 197Q47 239 49 258T56 293Q62 312 72 328T100 355V357Q83 368 73 384T56 419Q51 435 49 452T47 500Q47 539 49 559T56 593Q70 638 106 663T199 689Q256 689 292 664T343 593Q348 579 350 559T352 500Q352 470 350 453T343 419Q337 400 327 384T299 357V355Q330 333 343 293Q348 277 350 258T352 197Q352 171 352 153T350 123T347 103T343 87Q328 42 292 17T199 -9Q142 -9 106 16T56 87ZM199 403Q235 403 246 436Q247 439 248 443T249 454T250 472T250 500Q250 516 250 526T250 544T248 555T246 563Q235 596 199 596Q164 596 153 563Q152 559 151 555T150 544T149 527T149 500Q149 483 149 472T149 454T151 443T153 436Q163 403 199 403ZM153 117Q164 84 199 84Q235 84 246 117Q247 121 248 125T249 137T250 160T250 197Q250 220 250 234T250 256T248 269T246 276Q235 309 199 309Q163 309 153 276Q152 273 151 269T150 257T149 234T149 197Q149 174 149 160T149 138T151 125T153 117Z"  />
<glyph unicode="9" horiz-adv-x="398" d="M212 281L210 283Q206 281 198 279T176 277Q127 277 99 300T57 368Q52 382 50 407T47 482Q47 534 49 556T56 593Q70 638 106 663T199 689Q256 689 292 664T343 593Q347 579 349 557T352 482Q352 447 351 421T345 374T335 333T320 289L213 10Q209 0 199 0H116Q104 0 109 11L212 281ZM199 370Q235 370 246 403Q247 406 248 410T249 423T250 445T250 482Q250 505 250 519T250 542T248 554T246 563Q235 596 199 596Q164 596 153 563Q152 559 151 555T150 542T149 520T149 482Q149 459 149 445T149 423T151 411T153 403Q163 370 199 370Z"  />
<glyph unicode=":" horiz-adv-x="213" d="M64 363Q54 363 54 373V472Q54 482 64 482H149Q159 482 159 472V373Q159 363 149 363H64ZM54 109Q54 119 64 119H149Q159 119 159 109V10Q159 0 149 0H64Q54 0 54 10V109Z"  />
<glyph unicode=";" horiz-adv-x="213" d="M64 363Q54 363 54 373V472Q54 482 64 482H149Q159 482 159 472V373Q159 363 149 363H64ZM57 109Q57 119 67 119H146Q156 119 156 109V27Q156 10 148 -1L77 -96Q72 -102 66 -102Q57 -102 57 -93V109Z"  />
<glyph unicode="&lt;" horiz-adv-x="398" d="M46 231Q36 235 36 246V306Q36 317 46 321L352 444Q362 447 362 437V363Q362 354 352 350L161 277V275L352 202Q362 198 362 189V115Q362 105 352 108L46 231Z"  />
<glyph unicode="=" horiz-adv-x="398" d="M46 328Q36 328 36 338V407Q36 417 46 417H352Q362 417 362 407V338Q362 328 352 328H46ZM46 135Q36 135 36 145V214Q36 224 46 224H352Q362 224 362 214V145Q362 135 352 135H46Z"  />
<glyph unicode="&gt;" horiz-adv-x="398" d="M46 108Q36 105 36 115V189Q36 198 46 202L238 275V277L46 350Q36 354 36 363V437Q36 447 46 444L352 321Q362 317 362 306V246Q362 235 352 231L46 108Z"  />
<glyph unicode="?" horiz-adv-x="391" d="M140 170Q130 170 130 180V255Q130 273 134 289T149 323L205 426Q218 450 224 471T230 528Q230 551 226 564Q215 596 180 596Q145 596 133 564Q132 560 131 556T130 545T129 528T129 501Q129 489 118 491L40 498Q30 499 30 510Q30 547 32 564T39 594Q54 639 92 664T182 689Q239 689 274 663T323 594Q328 580 330 565T332 528Q332 490 325 464T304 410L248 305Q240 291 236 278T232 250V180Q232 170 222 170H140ZM129 109Q129 119 139 119H223Q233 119 233 109V10Q233 0 223 0H139Q129 0 129 10V109Z"  />
<glyph unicode="@" horiz-adv-x="661" d="M50 72Q45 85 42 101T36 139T33 192T31 268Q31 313 32 344T36 397T41 434T50 464Q81 558 154 609T331 660Q433 660 506 609T611 464Q615 450 619 435T625 397T628 344T630 268Q630 237 630 216T628 181T625 157T620 140Q606 96 576 78T506 59Q469 59 441 75T399 124H398Q385 91 365 75T303 59Q233 59 212 125Q209 132 208 142T205 167T203 206T202 264Q202 299 202 322T204 360T207 385T212 403Q233 469 301 469Q330 469 347 457T374 424H376V452Q376 462 386 462H450Q460 462 460 452V189Q460 132 506 132Q539 132 548 162Q549 165 550 170T551 185T552 215T552 268Q552 313 551 342T548 391T543 423T537 446Q515 514 462 551T331 588Q253 588 200 551T124 446Q121 435 118 423T113 392T110 343T109 268Q109 223 110 194T113 145T118 113T124 90Q146 23 199 -14T331 -52Q380 -52 417 -41T483 -9Q491 -4 497 -12L525 -51Q530 -60 522 -65Q480 -94 434 -109T331 -124Q228 -124 155 -73T50 72ZM289 166Q300 137 331 137Q363 137 372 166Q373 169 374 174T375 189T376 217T376 264Q376 293 376 310T376 338T374 354T372 362Q363 391 331 391Q300 391 289 362Q288 359 287 354T286 339T285 311T285 264Q285 235 285 218T285 190T287 174T289 166Z"  />
<glyph unicode="A" horiz-adv-x="421" d="M159 670Q162 680 170 680H254Q263 680 265 670L409 10Q411 0 401 0H316Q307 0 305 10L278 147H143L116 10Q114 0 105 0H20Q10 0 12 10L159 670ZM261 237L213 490H210L160 237H261Z"  />
<glyph unicode="B" horiz-adv-x="427" d="M53 670Q53 680 63 680H212Q304 680 346 638T388 504Q388 441 368 408T309 357V355Q347 344 371 306T396 200Q396 143 384 105T347 44T285 10T198 0H63Q53 0 53 10V670ZM202 396Q246 396 263 414T281 489Q281 545 264 564T202 583H166Q160 583 160 577V402Q160 396 166 396H202ZM160 103Q160 97 166 97H202Q250 97 269 119T288 201Q288 261 269 282T202 304H166Q160 304 160 298V103Z"  />
<glyph unicode="C" d="M54 95Q51 105 49 118T45 157T42 226T41 340Q41 411 42 454T44 522T48 561T54 585Q70 634 107 661T208 689Q281 689 324 650T372 526Q374 515 365 514L284 500Q273 498 273 509Q271 553 256 572T211 592Q188 592 176 583T157 554Q155 548 154 540T152 510T151 449T150 340Q150 271 150 231T151 170T153 141T157 126Q163 107 175 98T211 88Q240 88 255 107T273 171Q273 182 284 180L365 166Q374 165 372 154Q367 69 324 30T208 -9Q145 -9 108 18T54 95Z"  />
<glyph unicode="D" horiz-adv-x="443" d="M53 670Q53 680 63 680H220Q287 680 327 653T385 571Q389 557 392 540T398 497T401 433T402 340Q402 284 401 247T398 183T393 140T385 109Q367 54 327 27T220 0H63Q53 0 53 10V670ZM160 103Q160 97 166 97H209Q264 97 281 146Q284 155 286 167T289 201T292 256T293 340Q293 391 292 424T290 478T286 512T281 534Q264 583 209 583H166Q160 583 160 577V103Z"  />
<glyph unicode="E" horiz-adv-x="381" d="M53 670Q53 680 63 680H342Q352 680 352 670V593Q352 583 342 583H166Q160 583 160 577V398Q160 392 166 392H318Q328 392 328 382V305Q328 295 318 295H166Q160 295 160 289V103Q160 97 166 97H342Q352 97 352 87V10Q352 0 342 0H63Q53 0 53 10V670Z"  />
<glyph unicode="F" horiz-adv-x="376" d="M53 670Q53 680 63 680H342Q352 680 352 670V593Q352 583 342 583H166Q160 583 160 577V393Q160 387 166 387H318Q328 387 328 377V300Q328 290 318 290H166Q160 290 160 284V10Q160 0 150 0H63Q53 0 53 10V670Z"  />
<glyph unicode="G" horiz-adv-x="426" d="M54 97Q50 108 48 121T44 159T42 226T41 340Q41 411 41 453T43 521T47 559T54 583Q71 634 111 661T215 689Q289 689 332 650T384 530Q386 520 376 518L295 504Q286 502 284 512Q276 592 216 592Q194 592 178 582T157 554Q155 547 154 539T151 510T150 450T150 340Q150 270 150 231T151 170T153 141T157 126Q162 109 179 99T217 88Q239 88 256 98T278 126Q280 132 281 139T283 161T284 204T285 279Q285 285 279 285H226Q216 285 216 295V369Q216 379 226 379H378Q388 379 388 369V339Q388 268 388 226T386 159T382 121T375 97Q358 46 318 19T215 -9Q152 -9 112 18T54 97Z"  />
<glyph unicode="H" horiz-adv-x="447" d="M53 670Q53 680 63 680H150Q160 680 160 670V402Q160 396 166 396H281Q287 396 287 402V670Q287 680 297 680H384Q394 680 394 670V10Q394 0 384 0H297Q287 0 287 10V293Q287 299 281 299H166Q160 299 160 293V10Q160 0 150 0H63Q53 0 53 10V670Z"  />
<glyph unicode="I" horiz-adv-x="213" d="M53 670Q53 680 63 680H150Q160 680 160 670V10Q160 0 150 0H63Q53 0 53 10V670Z"  />
<glyph unicode="J" horiz-adv-x="354" d="M16 36Q10 44 17 50L76 104Q83 110 91 103Q108 88 131 88Q162 88 179 106T196 167V670Q196 680 206 680H293Q303 680 303 670V176Q303 127 291 92T255 35T199 2T128 -9Q93 -9 63 2T16 36Z"  />
<glyph unicode="K" horiz-adv-x="441" d="M53 670Q53 680 63 680H150Q160 680 160 670V389L297 672Q301 680 310 680H401Q405 680 406 677T406 670L270 405L427 10Q431 0 422 0H329Q321 0 318 7L205 294L160 201V10Q160 0 150 0H63Q53 0 53 10V670Z"  />
<glyph unicode="L" horiz-adv-x="372" d="M53 670Q53 680 63 680H150Q160 680 160 670V103Q160 97 166 97H342Q352 97 352 87V10Q352 0 342 0H63Q53 0 53 10V670Z"  />
<glyph unicode="M" horiz-adv-x="558" d="M53 670Q53 680 63 680H150Q163 680 166 670L279 287H283L393 670Q396 680 409 680H495Q505 680 505 670V10Q505 0 495 0H418Q408 0 408 10V440H402L314 131Q311 121 301 121H257Q247 121 244 131L156 440H150V10Q150 0 140 0H63Q53 0 53 10V670Z"  />
<glyph unicode="N" horiz-adv-x="461" d="M53 670Q53 680 63 680H169Q180 680 183 670L309 200H314V670Q314 680 324 680H398Q408 680 408 670V10Q408 0 398 0H299Q288 0 285 10L153 480H147V10Q147 0 137 0H63Q53 0 53 10V670Z"  />
<glyph unicode="O" horiz-adv-x="429" d="M215 -9Q152 -9 112 18T54 97Q50 108 48 121T44 159T42 226T41 340Q41 411 41 453T43 521T47 559T54 583Q71 634 111 661T215 689Q278 689 318 662T375 583Q379 572 381 559T385 521T387 454T388 340Q388 269 388 227T386 159T382 121T375 97Q358 46 318 19T215 -9ZM215 88Q236 88 251 98T272 126Q274 133 275 141T277 170T278 230T279 340Q279 410 279 449T278 510T276 539T272 554Q267 571 252 581T215 592Q193 592 178 582T157 554Q155 547 154 539T151 510T150 450T150 340Q150 270 150 231T151 170T153 141T157 126Q162 109 177 99T215 88Z"  />
<glyph unicode="P" horiz-adv-x="425" d="M63 0Q53 0 53 10V670Q53 680 63 680H200Q245 680 281 669T342 634T380 569T393 471Q393 358 342 310T200 262H166Q160 262 160 256V10Q160 0 150 0H63ZM200 359Q223 359 239 364T265 383T281 417T286 471Q286 535 266 559T200 583H166Q160 583 160 577V365Q160 359 166 359H200Z"  />
<glyph unicode="Q" horiz-adv-x="429" d="M376 -18Q369 -25 362 -18L315 22Q275 -9 215 -9Q152 -9 112 18T54 97Q50 108 48 121T44 159T42 226T41 340Q41 411 41 453T43 521T47 559T54 583Q71 634 111 661T215 689Q278 689 318 662T375 583Q379 572 381 559T385 521T387 454T388 340Q388 269 387 226T384 157T377 117T367 90L417 49Q425 43 419 35L376 -18ZM215 87Q224 87 232 88T245 91L195 132Q187 138 193 146L227 187Q234 196 242 188L280 154H282V340Q282 410 282 449T280 510T277 539T273 554Q268 571 252 581T215 592Q193 592 177 582T156 554Q154 547 153 539T150 510T149 450T149 340Q149 270 149 231T150 170T152 141T156 126Q161 108 177 98T215 87Z"  />
<glyph unicode="R" horiz-adv-x="436" d="M311 0Q303 0 300 7L217 278H200H166Q160 278 160 272V10Q160 0 150 0H63Q53 0 53 10V670Q53 680 63 680H200Q245 680 281 670T342 635T380 573T394 478Q394 411 373 369T313 304L409 10Q413 0 404 0H311ZM201 373Q246 373 266 395T287 478Q287 538 267 560T201 583H166Q160 583 160 577V379Q160 373 166 373H201Z"  />
<glyph unicode="S" horiz-adv-x="404" d="M375 195Q375 145 366 107T337 43T283 4T201 -9Q35 -9 31 169Q31 179 39 180L123 194Q134 196 134 185Q136 131 152 108T204 85Q236 85 252 105T268 182Q268 209 265 228T255 260T234 283T201 300L160 316Q125 330 102 347T64 386T44 438T38 508Q38 596 78 642T203 689Q288 689 326 646T370 523Q370 515 361 512L281 500Q270 498 270 508Q268 550 254 572T206 595Q144 595 144 513Q144 489 146 473T156 446T177 426T210 410L251 394Q284 381 307 365T346 325T368 270T375 195Z"  />
<glyph unicode="T" horiz-adv-x="375" d="M144 0Q134 0 134 10V577Q134 583 128 583H24Q14 583 14 593V670Q14 680 24 680H351Q361 680 361 670V593Q361 583 351 583H247Q241 583 241 577V10Q241 0 231 0H144Z"  />
<glyph unicode="U" horiz-adv-x="443" d="M222 -9Q143 -9 98 36T52 173V670Q52 680 62 680H149Q159 680 159 670V159Q159 127 175 108T222 88Q252 88 268 107T284 159V670Q284 680 294 680H381Q391 680 391 670V173Q391 82 346 37T222 -9Z"  />
<glyph unicode="V" horiz-adv-x="401" d="M162 0Q154 0 152 10L17 670Q15 680 26 680H112Q121 680 122 670L201 211H204L280 670Q281 680 291 680H375Q386 680 384 670L249 10Q247 0 239 0H162Z"  />
<glyph unicode="W" horiz-adv-x="579" d="M371 0Q363 0 361 10L292 447H290L218 10Q216 0 208 0H133Q125 0 123 10L18 670Q16 680 27 680H113Q123 680 124 670L173 227H176L249 670Q250 680 260 680H319Q329 680 330 670L403 227H406L458 670Q459 680 469 680H552Q563 680 561 670L455 10Q453 0 445 0H371Z"  />
<glyph unicode="X" horiz-adv-x="402" d="M292 0Q284 0 281 10L202 226H200L121 10Q118 0 110 0H22Q11 0 14 10L147 355L26 670Q23 680 34 680H122Q130 680 133 670L200 477H202L269 670Q272 680 280 680H368Q379 680 376 670L254 355L388 10Q391 0 380 0H292Z"  />
<glyph unicode="Y" horiz-adv-x="386" d="M150 0Q140 0 140 10V279L10 670Q7 680 18 680H106Q115 680 118 670L194 407H197L271 670Q274 680 283 680H369Q380 680 377 670L247 279V10Q247 0 237 0H150Z"  />
<glyph unicode="Z" horiz-adv-x="370" d="M45 0Q35 0 35 10V82Q35 86 37 92L224 581V583H55Q45 583 45 593V670Q45 680 55 680H326Q336 680 336 670V596Q336 592 334 586L150 99V97H326Q336 97 336 87V10Q336 0 326 0H45Z"  />
<glyph unicode="[" horiz-adv-x="247" d="M62 -84Q52 -84 52 -74V730Q52 740 62 740H197Q207 740 207 730V667Q207 657 197 657H151Q145 657 145 651V5Q145 -1 151 -1H197Q207 -1 207 -11V-74Q207 -84 197 -84H62Z"  />
<glyph unicode="\" horiz-adv-x="245" d="M157 -9Q147 -9 146 1L21 679Q19 689 30 689H87Q96 689 98 679L223 1Q225 -9 214 -9H157Z"  />
<glyph unicode="]" horiz-adv-x="247" d="M50 -84Q40 -84 40 -74V-11Q40 -1 50 -1H95Q101 -1 101 5V651Q101 657 95 657H50Q40 657 40 667V730Q40 740 50 740H185Q195 740 195 730V-74Q195 -84 185 -84H50Z"  />
<glyph unicode="^" horiz-adv-x="408" d="M290 263Q281 263 277 273L205 536H203L132 273Q128 263 119 263H44Q34 263 37 273L159 670Q162 680 173 680H235Q246 680 249 670L371 273Q374 263 364 263H290Z"  />
<glyph unicode="_" horiz-adv-x="411" d="M0 -128V-71H411V-128H0Z"  />
<glyph unicode="`" horiz-adv-x="415" d="M230 555Q219 555 212 565L122 690Q119 694 120 697T127 700H208Q218 700 224 690L293 565Q298 555 287 555H230Z"  />
<glyph unicode="a" horiz-adv-x="383" d="M249 0Q239 0 239 10V48H238Q229 22 206 7T149 -9Q128 -9 108 -2T71 21T44 66T34 135Q34 178 46 207T78 254T124 280T181 288H233Q239 288 239 294V322Q239 362 225 380T173 399Q149 399 131 392T93 371Q83 364 78 375L52 434Q48 441 55 448Q79 467 112 479T186 491Q268 491 302 453T337 326V10Q337 0 327 0H249ZM179 75Q206 75 222 94T239 143V200Q239 206 233 206H198Q161 206 146 188T131 139Q131 75 179 75Z"  />
<glyph unicode="b" horiz-adv-x="401" d="M61 0Q51 0 51 10V670Q51 680 61 680H143Q153 680 153 670V433H154Q164 458 185 474T244 491Q324 491 349 411Q352 401 354 389T358 358T361 311T362 241Q362 198 361 170T359 124T355 93T349 71Q324 -9 244 -9Q206 -9 185 7T154 49H153V10Q153 0 143 0H61ZM260 241Q260 278 260 299T259 333T257 352T255 363Q244 397 206 397Q169 397 158 363Q156 358 156 352T154 334T153 300T153 241Q153 204 153 183T154 149T155 130T158 119Q169 85 206 85Q244 85 255 119Q256 124 257 130T259 148T260 182T260 241Z"  />
<glyph unicode="c" horiz-adv-x="357" d="M188 -9Q134 -9 99 15T49 86Q46 96 44 106T40 133T38 174T37 241Q37 282 37 307T39 349T43 375T49 396Q64 442 99 466T188 491Q251 491 291 456T335 360Q335 350 327 349L251 334Q240 332 239 343Q235 372 222 384T188 397Q154 397 144 366Q142 361 142 355T140 336T139 301T139 241Q139 203 139 181T140 146T141 127T144 116Q154 85 188 85Q209 85 222 97T239 139Q240 149 251 148L327 133Q335 132 335 122Q331 62 291 27T188 -9Z"  />
<glyph unicode="d" horiz-adv-x="401" d="M258 0Q248 0 248 10V49H247Q237 23 216 7T157 -9Q77 -9 52 71Q49 81 47 93T43 123T40 170T39 241Q39 283 40 311T42 358T46 389T52 411Q77 491 157 491Q195 491 216 475T247 433H248V670Q248 680 258 680H340Q350 680 350 670V10Q350 0 340 0H258ZM141 241Q141 204 141 183T142 149T143 130T146 119Q157 85 195 85Q232 85 243 119Q244 124 245 130T247 148T248 182T248 241Q248 278 248 299T247 333T245 352T243 363Q232 397 195 397Q157 397 146 363Q144 358 144 352T142 334T141 300T141 241Z"  />
<glyph unicode="e" horiz-adv-x="380" d="M190 -9Q133 -9 98 16T48 87Q45 96 43 106T40 134T38 176T37 241Q37 280 37 305T39 348T43 375T48 395Q63 441 98 466T191 491Q248 491 284 466T335 395Q338 386 340 375T343 345T345 295T346 216Q346 206 336 206H145Q139 206 139 200Q139 177 139 163T140 140T142 126T144 117Q155 85 191 85Q231 85 244 128Q247 137 256 135L333 120Q342 119 340 108Q330 54 290 23T190 -9ZM191 400Q173 400 162 391T145 368Q142 360 141 346T139 294Q139 288 145 288H238Q244 288 244 294Q244 331 243 345T238 368Q233 382 222 391T191 400Z"  />
<glyph unicode="f" horiz-adv-x="256" d="M78 0Q68 0 68 10V398Q68 404 62 404H33Q23 404 23 414V472Q23 482 33 482H62Q68 482 68 488V529Q68 599 100 639T211 680H232Q242 680 242 670V596Q242 586 232 586H207Q186 586 178 578T170 548V488Q170 482 176 482H232Q242 482 242 472V414Q242 404 232 404H176Q170 404 170 398V10Q170 0 160 0H78Z"  />
<glyph unicode="g" horiz-adv-x="400" d="M192 -189Q135 -189 98 -162T49 -92Q47 -84 53 -81L129 -54Q138 -51 142 -59Q159 -96 195 -96Q218 -96 233 -81T248 -37V64H247Q238 39 217 23T158 6Q78 6 53 86Q50 96 48 108T44 138T41 182T40 248Q40 287 41 313T43 358T47 388T53 410Q78 491 158 491Q196 491 217 474T247 431H248V472Q248 482 258 482H340Q350 482 350 472V-25Q350 -106 307 -147T192 -189ZM195 98Q232 98 243 133Q244 138 245 143T247 161T248 193T248 248Q248 282 248 302T247 334T245 352T243 363Q232 397 195 397Q158 397 147 363Q145 358 145 352T143 335T142 303T142 248Q142 213 142 193T143 161T144 144T147 133Q158 98 195 98Z"  />
<glyph unicode="h" horiz-adv-x="405" d="M266 0Q256 0 256 10V327Q256 397 204 397Q153 397 153 327V10Q153 0 143 0H61Q51 0 51 10V670Q51 680 61 680H143Q153 680 153 670V434H154Q167 459 189 475T246 491Q300 491 329 456T358 341V10Q358 0 348 0H266Z"  />
<glyph unicode="i" horiz-adv-x="204" d="M61 574Q51 574 51 584V670Q51 680 61 680H143Q153 680 153 670V584Q153 574 143 574H61ZM61 0Q51 0 51 10V472Q51 482 61 482H143Q153 482 153 472V10Q153 0 143 0H61Z"  />
<glyph unicode="j" horiz-adv-x="204" d="M61 574Q51 574 51 584V670Q51 680 61 680H143Q153 680 153 670V584Q153 574 143 574H61ZM-4 -180Q-14 -180 -14 -170V-98Q-14 -88 -4 -88L10 -87Q32 -85 41 -74T51 -31V472Q51 482 61 482H143Q153 482 153 472V-36Q153 -109 120 -144T11 -180H-4Z"  />
<glyph unicode="k" horiz-adv-x="396" d="M289 0Q280 0 276 10L193 207L153 135V10Q153 0 143 0H61Q51 0 51 10V670Q51 680 61 680H143Q153 680 153 670V287L256 472Q262 482 270 482H354Q365 482 360 472L254 296L382 10Q387 0 376 0H289Z"  />
<glyph unicode="l" horiz-adv-x="233" d="M194 -6Q154 -5 127 3T83 29T59 74T51 140V670Q51 680 61 680H143Q153 680 153 670V140Q153 116 162 104T192 88L197 87Q207 85 207 76V4Q207 -6 197 -6H194Z"  />
<glyph unicode="m" horiz-adv-x="610" d="M471 0Q461 0 461 10V327Q461 397 409 397Q358 397 358 327V10Q358 0 348 0H266Q256 0 256 10V327Q256 397 204 397Q153 397 153 327V10Q153 0 143 0H61Q51 0 51 10V472Q51 482 61 482H143Q153 482 153 472V434H154Q167 459 189 475T246 491Q278 491 302 478T339 438H340Q356 463 380 477T441 491Q501 491 532 455T563 341V10Q563 0 553 0H471Z"  />
<glyph unicode="n" horiz-adv-x="405" d="M266 0Q256 0 256 10V327Q256 397 204 397Q153 397 153 327V10Q153 0 143 0H61Q51 0 51 10V472Q51 482 61 482H143Q153 482 153 472V434H154Q167 459 189 475T246 491Q300 491 329 456T358 341V10Q358 0 348 0H266Z"  />
<glyph unicode="o" horiz-adv-x="385" d="M348 241Q348 203 348 179T346 138T342 110T337 90Q322 43 285 17T192 -9Q137 -9 100 17T48 90Q45 99 43 110T40 137T38 178T37 241Q37 278 37 303T39 344T43 372T48 392Q63 439 100 465T192 491Q248 491 285 465T337 392Q340 383 342 372T345 345T347 303T348 241ZM246 241Q246 278 246 299T245 333T243 352T241 363Q230 397 192 397Q155 397 144 363Q142 358 142 352T140 334T139 300T139 241Q139 204 139 183T140 149T141 130T144 119Q155 85 192 85Q230 85 241 119Q242 124 243 130T245 148T246 182T246 241Z"  />
<glyph unicode="p" horiz-adv-x="401" d="M61 -180Q51 -180 51 -170V472Q51 482 61 482H143Q153 482 153 472V433H154Q164 458 185 474T244 491Q324 491 349 411Q352 401 354 389T358 358T361 311T362 241Q362 198 361 170T359 124T355 93T349 71Q324 -9 244 -9Q206 -9 185 7T154 49H153V-170Q153 -180 143 -180H61ZM260 241Q260 278 260 299T259 333T257 352T255 363Q244 397 206 397Q169 397 158 363Q156 358 156 352T154 334T153 300T153 241Q153 204 153 183T154 149T155 130T158 119Q169 85 206 85Q244 85 255 119Q256 124 257 130T259 148T260 182T260 241Z"  />
<glyph unicode="q" horiz-adv-x="401" d="M258 -180Q248 -180 248 -170V49H247Q237 23 216 7T157 -9Q77 -9 52 71Q49 81 47 93T43 123T40 170T39 241Q39 283 40 311T42 358T46 389T52 411Q77 491 157 491Q195 491 216 475T247 433H248V472Q248 482 258 482H340Q350 482 350 472V-170Q350 -180 340 -180H258ZM195 85Q232 85 243 119Q244 124 245 130T247 148T248 182T248 241Q248 278 248 299T247 333T245 352T243 363Q232 397 195 397Q157 397 146 363Q144 358 144 352T142 334T141 300T141 241Q141 204 141 183T142 149T143 130T146 119Q157 85 195 85Z"  />
<glyph unicode="r" horiz-adv-x="295" d="M61 0Q51 0 51 10V472Q51 482 61 482H143Q153 482 153 472V425H154Q168 454 193 472T260 491Q264 491 269 491T278 490Q288 487 285 479L262 394Q260 388 252 388H236Q198 388 176 365T153 294V10Q153 0 143 0H61Z"  />
<glyph unicode="s" horiz-adv-x="350" d="M176 -9Q110 -9 71 24T26 114Q24 124 34 126L106 140Q116 142 118 132Q122 103 138 90T177 76Q200 76 214 90T229 131Q229 154 218 168T177 194L138 209Q90 227 62 261T34 350Q34 380 44 406T73 450T118 480T177 491Q209 491 233 482T275 458T302 423T316 381Q318 370 309 368L241 355Q232 354 229 363Q224 382 212 394T177 407Q154 407 142 393T130 357Q130 340 141 326T182 300L221 285Q278 263 301 228T325 138Q325 106 315 80T286 33T240 2T176 -9Z"  />
<glyph unicode="t" horiz-adv-x="255" d="M189 -6Q126 -6 96 24T66 127V398Q66 404 60 404H31Q21 404 21 414V472Q21 482 31 482H60Q66 482 66 488V620Q66 630 76 630H158Q168 630 168 620V488Q168 482 174 482H219Q229 482 229 472V414Q229 404 219 404H174Q168 404 168 398V129Q168 88 207 88H219Q229 88 229 78V4Q229 -6 219 -6H189Z"  />
<glyph unicode="u" horiz-adv-x="403" d="M260 0Q250 0 250 10V48H249Q236 23 215 7T158 -9Q104 -9 76 26T47 141V472Q47 482 57 482H139Q149 482 149 472V155Q149 85 199 85Q250 85 250 155V472Q250 482 260 482H342Q352 482 352 472V10Q352 0 342 0H260Z"  />
<glyph unicode="v" horiz-adv-x="362" d="M146 0Q138 0 135 10L16 472Q13 482 23 482H107Q116 482 118 472L182 174H183L247 472Q249 482 258 482H339Q349 482 347 472L228 10Q225 0 216 0H146Z"  />
<glyph unicode="w" horiz-adv-x="541" d="M333 0Q322 0 321 10L271 290H269L220 10Q219 0 208 0H138Q128 0 127 10L18 472Q15 482 25 482H109Q118 482 120 472L174 174H175L231 472Q233 482 242 482H301Q310 482 312 472L366 174H367L422 472Q424 482 433 482H516Q526 482 523 472L415 10Q412 0 403 0H333Z"  />
<glyph unicode="x" horiz-adv-x="365" d="M261 0Q252 0 248 8L182 153H181L116 8Q112 0 102 0H20Q9 0 15 11L131 248L22 471Q16 482 27 482H109Q119 482 123 474L184 343H185L242 474Q246 482 256 482H338Q348 482 343 471L233 248L350 11Q355 0 345 0H261Z"  />
<glyph unicode="y" horiz-adv-x="370" d="M62 -180Q52 -180 52 -170V-96Q52 -86 62 -86L76 -85Q98 -83 109 -72T129 -30L140 18L20 472Q17 482 27 482H111Q120 482 122 472L186 174H187L251 472Q253 482 262 482H343Q353 482 350 472L223 -28Q211 -75 198 -105T169 -151T130 -174T77 -180H62Z"  />
<glyph unicode="z" horiz-adv-x="320" d="M38 0Q28 0 28 10V78Q28 85 31 91L180 390V392H48Q38 392 38 402V472Q38 482 48 482H286Q296 482 296 472V415Q296 408 293 402L138 93V91H286Q296 91 296 81V10Q296 0 286 0H38Z"  />
<glyph unicode="{" horiz-adv-x="312" d="M234 -84Q177 -84 147 -53T116 35V219Q116 254 104 271T60 289Q50 289 50 299V362Q50 372 60 372Q92 372 104 389T116 442V621Q116 678 146 709T234 740H262Q272 740 272 730V667Q272 657 262 657H252Q210 657 210 611V463Q210 404 200 376T155 332V329Q190 314 200 286T210 198V45Q210 -1 252 -1H262Q272 -1 272 -11V-74Q272 -84 262 -84H234Z"  />
<glyph unicode="|" horiz-adv-x="281" d="M110 -84Q100 -84 100 -74V730Q100 740 110 740H171Q181 740 181 730V-74Q181 -84 171 -84H110Z"  />
<glyph unicode="}" horiz-adv-x="312" d="M50 -84Q40 -84 40 -74V-11Q40 -1 50 -1H59Q101 -1 101 45V198Q101 228 103 249T111 285T128 311T157 329V332Q139 339 128 349T111 375T103 412T101 463V611Q101 657 59 657H50Q40 657 40 667V730Q40 740 50 740H77Q134 740 165 709T196 621V442Q196 407 208 390T251 372Q261 372 261 362V299Q261 289 251 289Q220 289 208 272T196 219V35Q196 -22 165 -53T77 -84H50Z"  />
<glyph unicode="~" horiz-adv-x="398" d="M261 213Q238 213 223 219T191 237Q175 247 165 252T144 258Q129 258 119 250T95 217Q91 210 82 215L35 240Q26 245 31 255Q72 339 137 339Q160 339 175 333T207 315Q223 305 233 300T254 294Q270 294 280 302T304 335Q308 342 317 337L363 312Q372 307 367 297Q347 254 322 234T261 213Z"  />
<glyph unicode="&#xA0;" horiz-adv-x="194" />
<glyph unicode="&#xA1;" horiz-adv-x="241" d="M144 312Q154 312 154 302L176 -188Q176 -198 166 -198H75Q65 -198 65 -188L87 302Q87 312 97 312H144ZM173 373Q173 363 163 363H78Q68 363 68 373V472Q68 482 78 482H163Q173 482 173 472V373Z"  />
<glyph unicode="&#xA2;" horiz-adv-x="398" d="M195 -99Q185 -99 185 -89V-8Q86 -2 58 86Q55 96 53 106T49 133T47 174T46 241Q46 282 46 307T48 349T52 375T58 396Q72 438 103 462T185 490V571Q185 581 195 581H212Q222 581 222 571V490Q279 485 311 454T352 368Q354 357 345 356L268 341Q257 339 256 348Q249 387 222 395V87Q249 95 256 133Q257 142 268 140L345 126Q354 125 352 114Q344 60 312 29T222 -8V-89Q222 -99 212 -99H195ZM153 116Q161 92 185 86V395Q160 391 153 366Q151 361 151 356T149 338T148 303T148 241Q148 202 148 180T149 145T150 127T153 116Z"  />
<glyph unicode="&#xA3;" horiz-adv-x="398" d="M57 0Q47 0 47 10V83Q47 88 50 93Q64 112 70 131T77 184V277Q77 283 71 283H42Q32 283 32 293V346Q32 356 42 356H71Q77 356 77 362V534Q77 605 112 647T222 689Q293 689 326 649T366 548Q368 538 358 536L281 523Q272 521 270 531Q267 566 257 581T223 596Q199 596 189 581T179 536V362Q179 356 185 356H274Q284 356 284 346V293Q284 283 274 283H185Q179 283 179 277V184Q179 155 174 133T154 95V93H359Q369 93 369 83V10Q369 0 359 0H57Z"  />
<glyph unicode="&#xA4;" horiz-adv-x="398" d="M319 169Q312 162 305 169L268 205Q253 197 236 192T199 187Q159 187 129 205L93 169Q86 162 79 169L44 204Q38 210 44 218L81 255Q64 286 64 323Q64 361 82 391L45 428Q38 435 45 442L80 477Q87 484 94 477L130 440Q160 458 199 458Q219 458 236 453T269 440L306 477Q313 484 320 477L354 442Q361 435 354 428L317 391Q325 376 330 359T335 323Q335 303 330 286T317 253L353 218Q359 210 353 204L319 169ZM199 257Q228 257 246 275T264 323Q264 352 246 370T199 389Q170 389 153 371T135 323Q135 294 152 276T199 257Z"  />
<glyph unicode="&#xA5;" horiz-adv-x="398" d="M159 0Q149 0 149 10V120Q149 126 143 126H55Q45 126 45 136V190Q45 200 55 200H143Q149 200 149 206V249Q149 255 143 255H55Q45 255 45 265V319Q45 329 55 329H133V332L24 670Q21 680 32 680H117Q126 680 129 670L200 407H203L272 670Q275 680 284 680H367Q378 680 375 670L266 332V329H343Q353 329 353 319V265Q353 255 343 255H256Q250 255 250 249V206Q250 200 256 200H343Q353 200 353 190V136Q353 126 343 126H256Q250 126 250 120V10Q250 0 240 0H159Z"  />
<glyph unicode="&#xA6;" horiz-adv-x="281" d="M110 388Q100 388 100 398V730Q100 740 110 740H171Q181 740 181 730V398Q181 388 171 388H110ZM110 -84Q100 -84 100 -74V262Q100 272 110 272H171Q181 272 181 262V-74Q181 -84 171 -84H110Z"  />
<glyph unicode="&#xA7;" horiz-adv-x="467" d="M231 -189Q177 -189 146 -167T103 -107Q98 -93 97 -77T95 -41Q95 -32 103 -32L176 -25Q184 -25 184 -34Q184 -54 185 -63T189 -79Q197 -106 232 -106Q250 -106 260 -99T275 -79Q277 -72 278 -64T280 -39Q280 -23 279 -12T275 8Q269 27 249 41T189 69Q151 83 128 104T93 158Q87 176 84 198T80 252Q80 276 82 293T90 326Q108 381 159 401V402Q122 418 106 462Q97 493 97 537Q97 560 98 575T105 605Q118 644 150 666T235 689Q287 689 318 667T361 607Q370 580 370 541Q370 532 362 532L289 525Q280 525 280 534Q280 554 279 563T276 579Q268 606 236 606Q203 606 195 579Q193 572 192 564T191 537Q191 525 192 515T196 495Q202 476 220 463T279 435Q317 422 340 401T375 347Q381 328 384 306T387 252Q387 229 385 212T378 178Q360 122 309 103V102Q327 94 341 80T364 42Q374 13 374 -35Q374 -59 372 -75T365 -105Q352 -144 319 -166T231 -189ZM234 150Q275 150 287 188Q290 198 291 212T293 252Q293 278 292 292T287 317Q275 355 234 355Q212 355 200 346T180 317Q177 307 176 293T174 252Q174 226 175 212T180 188Q193 150 234 150Z"  />
<glyph unicode="&#xA8;" horiz-adv-x="415" d="M251 574Q241 574 241 584V670Q241 680 251 680H316Q326 680 326 670V584Q326 574 316 574H251ZM99 574Q89 574 89 584V670Q89 680 99 680H164Q174 680 174 670V584Q174 574 164 574H99Z"  />
<glyph unicode="&#xA9;" horiz-adv-x="706" d="M353 -9Q244 -9 168 44T60 194Q52 220 47 254T41 340Q41 391 46 425T60 486Q92 583 168 636T353 689Q462 689 538 636T646 486Q654 460 659 426T665 340Q665 289 660 255T646 194Q614 97 538 44T353 -9ZM353 59Q437 59 493 98T574 211Q581 233 586 262T591 340Q591 388 586 417T574 469Q550 542 494 581T353 621Q269 621 213 582T132 469Q125 447 120 418T115 340Q115 292 120 263T132 211Q156 138 212 99T353 59ZM357 143Q270 143 244 219Q242 226 240 234T237 257T236 291T235 340Q235 369 235 389T237 423T240 445T244 461Q270 537 357 537Q405 537 436 512T473 448Q475 440 468 438L407 427Q400 425 398 432Q393 449 383 456T357 464Q328 464 319 437Q318 434 317 430T316 415T315 388T315 340Q315 310 315 293T315 265T317 251T319 243Q328 216 357 216Q372 216 382 223T398 248Q400 255 407 253L468 242Q475 240 473 232Q468 193 437 168T357 143Z"  />
<glyph unicode="&#xAA;" horiz-adv-x="282" d="M186 392Q176 392 176 402V420H174Q168 406 152 397T116 388Q82 388 61 409T40 473Q40 525 67 548T139 571H170Q176 571 176 577V584Q176 607 165 616T132 625Q109 625 80 608Q70 603 67 613L51 651Q48 658 57 664Q71 673 94 680T143 688Q191 688 216 665T241 587V402Q241 392 231 392H186ZM138 445Q154 445 165 454T176 482V512Q176 518 170 518H147Q105 518 105 481Q105 463 114 454T138 445Z"  />
<glyph unicode="&#xAB;" horiz-adv-x="485" d="M238 257Q231 264 238 271L415 449Q418 452 421 451T425 445V365Q425 357 415 347L336 268Q332 264 336 260L415 181Q425 171 425 163V83Q425 78 422 77T415 79L238 257ZM37 257Q30 264 37 271L214 449Q217 452 220 451T224 445V365Q224 357 214 347L136 268Q132 264 136 260L214 181Q224 171 224 163V83Q224 78 221 77T214 79L37 257Z"  />
<glyph unicode="&#xAC;" horiz-adv-x="398" d="M279 144Q269 144 269 154V225Q269 231 263 231H46Q36 231 36 241V311Q36 321 46 321H352Q362 321 362 311V154Q362 144 352 144H279Z"  />
<glyph unicode="&#xAD;" horiz-adv-x="368" d="M52 218Q42 218 42 228V303Q42 313 52 313H316Q326 313 326 303V228Q326 218 316 218H52Z"  />
<glyph unicode="&#xAE;" horiz-adv-x="434" d="M217 303Q158 303 117 331T57 413Q52 428 49 447T46 493Q46 519 49 538T57 572Q75 626 116 654T217 682Q276 682 317 654T377 572Q382 557 385 538T388 493Q388 466 385 447T377 413Q359 359 318 331T217 303ZM217 338Q262 338 294 360T340 423Q344 435 346 451T349 493Q349 517 347 533T340 562Q327 603 295 625T217 647Q171 647 139 625T93 562Q89 550 87 534T84 493Q84 468 86 452T93 423Q107 382 139 360T217 338ZM171 388Q164 388 164 395V593Q164 600 171 600H218Q279 600 279 538Q279 518 272 505T254 483L283 395Q286 388 278 388H250Q244 388 241 395L217 474H207Q203 474 203 469V395Q203 388 196 388H171ZM215 509Q228 509 233 514T239 537Q239 553 234 558T215 563H207Q203 563 203 559V514Q203 509 207 509H215Z"  />
<glyph unicode="&#xAF;" horiz-adv-x="415" d="M105 588Q95 588 95 598V658Q95 668 105 668H310Q320 668 320 658V598Q320 588 310 588H105Z"  />
<glyph unicode="&#xB0;" horiz-adv-x="341" d="M170 445Q144 445 123 454T85 479T59 516T50 564Q50 590 59 612T84 650T122 675T170 684Q196 684 218 675T256 650T282 612T291 564Q291 538 282 517T257 479T218 454T170 445ZM170 502Q197 502 213 519T230 564Q230 592 214 609T170 627Q144 627 128 610T111 564Q111 537 127 520T170 502Z"  />
<glyph unicode="&#xB1;" horiz-adv-x="398" d="M163 137Q153 137 153 147V249Q153 255 147 255H46Q36 255 36 265V335Q36 345 46 345H147Q153 345 153 351V453Q153 463 163 463H236Q246 463 246 453V351Q246 345 252 345H352Q362 345 362 335V265Q362 255 352 255H252Q246 255 246 249V147Q246 137 236 137H163ZM46 0Q36 0 36 10V79Q36 89 46 89H352Q362 89 362 79V10Q362 0 352 0H46Z"  />
<glyph unicode="&#xB2;" horiz-adv-x="281" d="M45 430Q35 430 35 440V488Q35 496 40 504L151 673Q160 686 164 698T168 727Q168 742 168 747T165 757Q158 773 138 773Q117 773 112 757Q110 753 110 747T109 717Q109 705 97 707L43 713Q33 714 33 725Q33 746 34 757T39 778Q49 809 75 826T140 844Q180 844 206 827T242 778Q245 769 246 758T248 728Q248 677 222 638L132 502V501H238Q248 501 248 491V440Q248 430 238 430H45Z"  />
<glyph unicode="&#xB3;" horiz-adv-x="281" d="M139 422Q100 422 74 439T38 487Q32 506 32 527Q32 538 42 539L96 545Q108 547 108 535Q108 523 108 518T111 509Q116 493 137 493Q157 493 164 509Q166 513 166 519T167 546Q167 566 167 573T164 586Q159 603 137 603H129Q119 603 119 613V665Q119 675 129 675H136Q158 675 165 692Q167 697 167 703T167 726Q167 742 167 747T164 757Q157 773 137 773Q116 773 111 757Q109 753 109 748T108 731Q108 719 96 721L42 727Q32 728 32 739Q32 759 38 779Q48 810 74 827T139 844Q179 844 205 827T241 779Q244 769 245 758T247 726Q247 705 246 696T243 680Q234 653 207 642V641Q234 625 242 601Q245 593 246 582T247 546Q247 521 246 509T241 487Q231 456 205 439T139 422Z"  />
<glyph unicode="&#xB4;" horiz-adv-x="415" d="M128 555Q117 555 122 565L191 690Q197 700 207 700H288Q293 700 294 697T293 690L203 565Q195 555 185 555H128Z"  />
<glyph unicode="&#xB5;" horiz-adv-x="407" d="M264 0Q254 0 254 10V48H253Q244 20 224 6T177 -8Q170 -8 163 -7T153 -2V-170Q153 -180 143 -180H61Q51 -180 51 -170V472Q51 482 61 482H143Q153 482 153 472V155Q153 85 204 85Q254 85 254 155V472Q254 482 264 482H346Q356 482 356 472V10Q356 0 346 0H264Z"  />
<glyph unicode="&#xB6;" horiz-adv-x="510" d="M379 -180Q369 -180 369 -170V589Q369 595 363 595H309Q303 595 303 589V-170Q303 -180 293 -180H232Q222 -180 222 -170V258Q186 261 156 278T105 324T72 389T60 469Q60 512 73 550T112 618T173 663T254 680H440Q450 680 450 670V-170Q450 -180 440 -180H379Z"  />
<glyph unicode="&#xB7;" horiz-adv-x="197" d="M56 205Q46 205 46 215V314Q46 324 56 324H141Q151 324 151 314V215Q151 205 141 205H56Z"  />
<glyph unicode="&#xB8;" horiz-adv-x="415" d="M200 0Q204 10 213 10H272Q282 10 279 0L228 -145Q224 -155 212 -155H146Q136 -155 139 -145L200 0Z"  />
<glyph unicode="&#xB9;" horiz-adv-x="281" d="M130 430Q120 430 120 440V747H119L62 715Q57 712 54 713T50 720V781Q50 789 58 794L118 831Q126 836 133 836H191Q201 836 201 826V440Q201 430 191 430H130Z"  />
<glyph unicode="&#xBA;" horiz-adv-x="287" d="M144 386Q108 386 83 401T47 449Q43 460 42 476T40 537Q40 581 41 597T47 625Q58 657 83 672T144 688Q179 688 204 673T240 625Q244 614 245 598T247 537Q247 493 246 477T240 449Q229 417 204 402T144 386ZM144 449Q170 449 176 470Q178 477 179 488T180 537Q180 574 179 585T176 604Q170 625 144 625Q117 625 111 604Q109 597 108 586T107 537Q107 500 108 489T111 470Q117 449 144 449Z"  />
<glyph unicode="&#xBB;" horiz-adv-x="485" d="M271 79Q268 76 265 77T261 83V163Q261 171 271 181L349 260Q353 264 349 268L271 347Q261 357 261 365V445Q261 450 264 451T271 449L448 271Q455 264 448 257L271 79ZM70 79Q67 76 64 77T60 83V163Q60 171 70 181L149 260Q153 264 149 268L70 347Q60 357 60 365V445Q60 450 63 451T70 449L247 271Q254 264 247 257L70 79Z"  />
<glyph unicode="&#xBC;" horiz-adv-x="740" d="M159 274Q149 274 149 284V591H148L91 559Q86 556 83 557T79 564V625Q79 633 87 638L147 675Q155 680 162 680H220Q230 680 230 670V284Q230 274 220 274H159ZM564 1Q554 1 554 11V47Q554 53 548 53H425Q415 53 415 63V113Q415 120 418 129L506 397Q509 407 518 407H580Q590 407 587 397L498 126V123H548Q554 123 554 129V224Q554 234 564 234H619Q629 234 629 224V129Q629 123 634 123H649Q659 123 659 113V63Q659 53 649 53H635Q629 53 629 47V11Q629 1 619 1H564ZM202 -9Q192 -9 195 1L447 679Q451 689 460 689H514Q524 689 521 679L269 1Q265 -9 256 -9H202Z"  />
<glyph unicode="&#xBD;" horiz-adv-x="758" d="M159 274Q149 274 149 284V591H148L91 559Q86 556 83 557T79 564V625Q79 633 87 638L147 675Q155 680 162 680H220Q230 680 230 670V284Q230 274 220 274H159ZM474 1Q464 1 464 11V59Q464 67 469 75L580 244Q589 257 593 269T597 298Q597 313 597 318T594 328Q587 344 567 344Q546 344 541 328Q539 324 539 318T538 288Q538 276 526 278L472 284Q462 285 462 296Q462 317 463 328T468 349Q478 380 504 397T569 415Q609 415 635 398T671 349Q674 340 675 329T677 299Q677 248 651 209L561 73V72H667Q677 72 677 62V11Q677 1 667 1H474ZM202 -9Q192 -9 195 1L447 679Q451 689 460 689H514Q524 689 521 679L269 1Q265 -9 256 -9H202Z"  />
<glyph unicode="&#xBE;" horiz-adv-x="779" d="M603 1Q593 1 593 11V47Q593 53 587 53H464Q454 53 454 63V113Q454 120 457 129L545 397Q548 407 557 407H619Q629 407 626 397L537 126V123H587Q593 123 593 129V224Q593 234 603 234H658Q668 234 668 224V129Q668 123 673 123H688Q698 123 698 113V63Q698 53 688 53H674Q668 53 668 47V11Q668 1 658 1H603ZM242 -9Q232 -9 235 1L487 679Q491 689 500 689H554Q564 689 561 679L309 1Q305 -9 296 -9H242ZM186 266Q147 266 121 283T85 331Q79 350 79 371Q79 382 89 383L143 389Q155 391 155 379Q155 367 155 362T158 353Q163 337 184 337Q204 337 211 353Q213 357 213 363T214 390Q214 410 214 417T211 430Q206 447 184 447H176Q166 447 166 457V509Q166 519 176 519H183Q205 519 212 536Q214 541 214 547T214 570Q214 586 214 591T211 601Q204 617 184 617Q163 617 158 601Q156 597 156 592T155 575Q155 563 143 565L89 571Q79 572 79 583Q79 603 85 623Q95 654 121 671T186 688Q226 688 252 671T288 623Q291 613 292 602T294 570Q294 549 293 540T290 524Q281 497 254 486V485Q281 469 289 445Q292 437 293 426T294 390Q294 365 293 353T288 331Q278 300 252 283T186 266Z"  />
<glyph unicode="&#xBF;" horiz-adv-x="391" d="M251 312Q261 312 261 302V227Q261 209 257 193T242 159L186 56Q173 32 167 11T161 -46Q161 -69 165 -82Q176 -114 211 -114Q246 -114 258 -82Q259 -78 260 -74T261 -63T262 -46T262 -19Q262 -7 273 -9L351 -16Q361 -17 361 -28Q361 -65 359 -82T352 -112Q337 -157 299 -182T209 -207Q152 -207 117 -181T68 -112Q63 -98 61 -83T59 -46Q59 -8 66 18T87 72L143 177Q151 191 155 204T159 232V302Q159 312 169 312H251ZM262 373Q262 363 252 363H168Q158 363 158 373V472Q158 482 168 482H252Q262 482 262 472V373Z"  />
<glyph unicode="&#xC0;" horiz-adv-x="421" d="M159 670Q162 680 170 680H254Q263 680 265 670L409 10Q411 0 401 0H316Q307 0 305 10L278 147H143L116 10Q114 0 105 0H20Q10 0 12 10L159 670ZM261 237L213 490H210L160 237H261ZM185 761Q175 761 165 771L66 878Q63 882 64 885T71 888H152Q159 888 162 886T169 878L245 771Q248 767 247 764T240 761H185Z"  />
<glyph unicode="&#xC1;" horiz-adv-x="421" d="M159 670Q162 680 170 680H254Q263 680 265 670L409 10Q411 0 401 0H316Q307 0 305 10L278 147H143L116 10Q114 0 105 0H20Q10 0 12 10L159 670ZM261 237L213 490H210L160 237H261ZM183 761Q178 761 176 764T177 771L254 878Q258 883 261 885T270 888H351Q356 888 357 885T356 878L258 771Q248 761 238 761H183Z"  />
<glyph unicode="&#xC2;" horiz-adv-x="421" d="M159 670Q162 680 170 680H254Q263 680 265 670L409 10Q411 0 401 0H316Q307 0 305 10L278 147H143L116 10Q114 0 105 0H20Q10 0 12 10L159 670ZM261 237L213 490H210L160 237H261ZM277 750Q267 750 258 760L210 820H208L161 760Q152 750 142 750H82Q77 750 76 753T78 760L166 885Q173 895 183 895H235Q246 895 253 885L341 760Q344 756 343 753T337 750H277Z"  />
<glyph unicode="&#xC3;" horiz-adv-x="421" d="M159 670Q162 680 170 680H254Q263 680 265 670L409 10Q411 0 401 0H316Q307 0 305 10L278 147H143L116 10Q114 0 105 0H20Q10 0 12 10L159 670ZM261 237L213 490H210L160 237H261ZM254 763Q237 763 226 768T202 781Q190 789 183 793T164 797Q148 797 138 790T116 771Q112 767 108 768T104 775V836Q104 845 114 855Q124 865 136 872T165 879Q182 879 193 874T216 861Q229 853 236 849T255 845Q271 845 281 852T303 871Q307 875 311 874T315 867V806Q315 801 313 797T305 787Q295 777 283 770T254 763Z"  />
<glyph unicode="&#xC4;" horiz-adv-x="421" d="M159 670Q162 680 170 680H254Q263 680 265 670L409 10Q411 0 401 0H316Q307 0 305 10L278 147H143L116 10Q114 0 105 0H20Q10 0 12 10L159 670ZM261 237L213 490H210L160 237H261ZM253 769Q243 769 243 779V865Q243 875 253 875H318Q328 875 328 865V779Q328 769 318 769H253ZM101 769Q91 769 91 779V865Q91 875 101 875H166Q176 875 176 865V779Q176 769 166 769H101Z"  />
<glyph unicode="&#xC5;" horiz-adv-x="421" d="M159 670Q162 680 170 680H254Q263 680 265 670L409 10Q411 0 401 0H316Q307 0 305 10L278 147H143L116 10Q114 0 105 0H20Q10 0 12 10L159 670ZM261 237L213 490H210L160 237H261ZM209 721Q171 721 145 747T119 812Q119 850 145 876T209 902Q248 902 274 876T300 812Q300 773 274 747T209 721ZM209 764Q229 764 242 778T255 812Q255 832 242 845T209 859Q189 859 177 846T164 812Q164 792 176 778T209 764Z"  />
<glyph unicode="&#xC6;" horiz-adv-x="656" d="M339 0Q329 0 329 10V141Q329 147 323 147H166L116 10Q113 0 103 0H19Q9 0 12 10L259 670Q262 680 270 680H617Q627 680 627 670V593Q627 583 617 583H442Q436 583 436 577V398Q436 392 442 392H594Q604 392 604 382V305Q604 295 594 295H442Q436 295 436 289V103Q436 97 442 97H617Q627 97 627 87V10Q627 0 617 0H339ZM199 237H323Q329 237 329 243V582H326L199 237Z"  />
<glyph unicode="&#xC7;" d="M170 -6Q124 2 96 27T54 95Q51 105 49 118T45 157T42 226T41 340Q41 411 42 454T44 522T48 561T54 585Q70 634 107 661T208 689Q281 689 324 650T372 526Q374 515 365 514L284 500Q273 498 273 509Q271 553 256 572T211 592Q188 592 176 583T157 554Q155 548 154 540T152 510T151 449T150 340Q150 271 150 231T151 170T153 141T157 126Q163 107 175 98T211 88Q240 88 255 107T273 171Q273 182 284 180L365 166Q374 165 372 154Q368 82 336 44T250 -5L201 -145Q197 -155 185 -155H119Q109 -155 112 -145L170 -6Z"  />
<glyph unicode="&#xC8;" horiz-adv-x="381" d="M183 761Q173 761 163 771L64 878Q61 882 62 885T69 888H150Q157 888 160 886T167 878L243 771Q246 767 245 764T238 761H183ZM53 670Q53 680 63 680H342Q352 680 352 670V593Q352 583 342 583H166Q160 583 160 577V398Q160 392 166 392H318Q328 392 328 382V305Q328 295 318 295H166Q160 295 160 289V103Q160 97 166 97H342Q352 97 352 87V10Q352 0 342 0H63Q53 0 53 10V670Z"  />
<glyph unicode="&#xC9;" horiz-adv-x="381" d="M165 761Q160 761 158 764T159 771L236 878Q240 883 243 885T252 888H333Q338 888 339 885T338 878L240 771Q230 761 220 761H165ZM53 670Q53 680 63 680H342Q352 680 352 670V593Q352 583 342 583H166Q160 583 160 577V398Q160 392 166 392H318Q328 392 328 382V305Q328 295 318 295H166Q160 295 160 289V103Q160 97 166 97H342Q352 97 352 87V10Q352 0 342 0H63Q53 0 53 10V670Z"  />
<glyph unicode="&#xCA;" horiz-adv-x="381" d="M53 670Q53 680 63 680H342Q352 680 352 670V593Q352 583 342 583H166Q160 583 160 577V398Q160 392 166 392H318Q328 392 328 382V305Q328 295 318 295H166Q160 295 160 289V103Q160 97 166 97H342Q352 97 352 87V10Q352 0 342 0H63Q53 0 53 10V670ZM271 750Q261 750 252 760L204 820H202L155 760Q146 750 136 750H76Q71 750 70 753T72 760L160 885Q167 895 177 895H229Q240 895 247 885L335 760Q338 756 337 753T331 750H271Z"  />
<glyph unicode="&#xCB;" horiz-adv-x="381" d="M246 769Q236 769 236 779V865Q236 875 246 875H311Q321 875 321 865V779Q321 769 311 769H246ZM94 769Q84 769 84 779V865Q84 875 94 875H159Q169 875 169 865V779Q169 769 159 769H94ZM53 670Q53 680 63 680H342Q352 680 352 670V593Q352 583 342 583H166Q160 583 160 577V398Q160 392 166 392H318Q328 392 328 382V305Q328 295 318 295H166Q160 295 160 289V103Q160 97 166 97H342Q352 97 352 87V10Q352 0 342 0H63Q53 0 53 10V670Z"  />
<glyph unicode="&#xCC;" horiz-adv-x="213" d="M53 670Q53 680 63 680H150Q160 680 160 670V10Q160 0 150 0H63Q53 0 53 10V670ZM82 761Q72 761 62 771L-37 878Q-40 882 -39 885T-32 888H49Q56 888 59 886T66 878L142 771Q145 767 144 764T137 761H82Z"  />
<glyph unicode="&#xCD;" horiz-adv-x="213" d="M53 670Q53 680 63 680H150Q160 680 160 670V10Q160 0 150 0H63Q53 0 53 10V670ZM78 761Q73 761 71 764T72 771L149 878Q153 883 156 885T165 888H246Q251 888 252 885T251 878L153 771Q143 761 133 761H78Z"  />
<glyph unicode="&#xCE;" horiz-adv-x="213" d="M53 670Q53 680 63 680H150Q160 680 160 670V10Q160 0 150 0H63Q53 0 53 10V670ZM175 750Q165 750 156 760L108 820H106L59 760Q50 750 40 750H-20Q-25 750 -26 753T-24 760L64 885Q71 895 81 895H133Q144 895 151 885L239 760Q242 756 241 753T235 750H175Z"  />
<glyph unicode="&#xCF;" horiz-adv-x="213" d="M53 670Q53 680 63 680H150Q160 680 160 670V10Q160 0 150 0H63Q53 0 53 10V670ZM151 769Q141 769 141 779V865Q141 875 151 875H216Q226 875 226 865V779Q226 769 216 769H151ZM-1 769Q-11 769 -11 779V865Q-11 875 -1 875H64Q74 875 74 865V779Q74 769 64 769H-1Z"  />
<glyph unicode="&#xD0;" horiz-adv-x="443" d="M63 0Q53 0 53 10V297Q53 303 47 303H21Q11 303 11 313V373Q11 383 21 383H47Q53 383 53 389V670Q53 680 63 680H220Q287 680 327 653T385 571Q389 557 392 540T398 497T401 433T402 340Q402 284 401 247T398 183T393 140T385 109Q367 54 327 27T220 0H63ZM209 97Q264 97 281 146Q284 155 286 167T289 201T292 256T293 340Q293 391 292 424T290 478T286 512T281 534Q264 583 209 583H166Q160 583 160 577V389Q160 383 166 383H223Q233 383 233 373V313Q233 303 223 303H166Q160 303 160 297V103Q160 97 166 97H209Z"  />
<glyph unicode="&#xD1;" horiz-adv-x="461" d="M275 763Q258 763 247 768T223 781Q211 789 204 793T185 797Q169 797 159 790T137 771Q133 767 129 768T125 775V836Q125 845 135 855Q145 865 157 872T186 879Q203 879 214 874T237 861Q250 853 257 849T276 845Q292 845 302 852T324 871Q328 875 332 874T336 867V806Q336 801 334 797T326 787Q316 777 304 770T275 763ZM53 670Q53 680 63 680H169Q180 680 183 670L309 200H314V670Q314 680 324 680H398Q408 680 408 670V10Q408 0 398 0H299Q288 0 285 10L153 480H147V10Q147 0 137 0H63Q53 0 53 10V670Z"  />
<glyph unicode="&#xD2;" horiz-adv-x="429" d="M190 761Q180 761 170 771L71 878Q68 882 69 885T76 888H157Q164 888 167 886T174 878L250 771Q253 767 252 764T245 761H190ZM215 -9Q152 -9 112 18T54 97Q50 108 48 121T44 159T42 226T41 340Q41 411 41 453T43 521T47 559T54 583Q71 634 111 661T215 689Q278 689 318 662T375 583Q379 572 381 559T385 521T387 454T388 340Q388 269 388 227T386 159T382 121T375 97Q358 46 318 19T215 -9ZM215 88Q236 88 251 98T272 126Q274 133 275 141T277 170T278 230T279 340Q279 410 279 449T278 510T276 539T272 554Q267 571 252 581T215 592Q193 592 178 582T157 554Q155 547 154 539T151 510T150 450T150 340Q150 270 150 231T151 170T153 141T157 126Q162 109 177 99T215 88Z"  />
<glyph unicode="&#xD3;" horiz-adv-x="429" d="M175 761Q170 761 168 764T169 771L246 878Q250 883 253 885T262 888H343Q348 888 349 885T348 878L250 771Q240 761 230 761H175ZM215 -9Q152 -9 112 18T54 97Q50 108 48 121T44 159T42 226T41 340Q41 411 41 453T43 521T47 559T54 583Q71 634 111 661T215 689Q278 689 318 662T375 583Q379 572 381 559T385 521T387 454T388 340Q388 269 388 227T386 159T382 121T375 97Q358 46 318 19T215 -9ZM215 88Q236 88 251 98T272 126Q274 133 275 141T277 170T278 230T279 340Q279 410 279 449T278 510T276 539T272 554Q267 571 252 581T215 592Q193 592 178 582T157 554Q155 547 154 539T151 510T150 450T150 340Q150 270 150 231T151 170T153 141T157 126Q162 109 177 99T215 88Z"  />
<glyph unicode="&#xD4;" horiz-adv-x="429" d="M215 -9Q152 -9 112 18T54 97Q50 108 48 121T44 159T42 226T41 340Q41 411 41 453T43 521T47 559T54 583Q71 634 111 661T215 689Q278 689 318 662T375 583Q379 572 381 559T385 521T387 454T388 340Q388 269 388 227T386 159T382 121T375 97Q358 46 318 19T215 -9ZM215 88Q236 88 251 98T272 126Q274 133 275 141T277 170T278 230T279 340Q279 410 279 449T278 510T276 539T272 554Q267 571 252 581T215 592Q193 592 178 582T157 554Q155 547 154 539T151 510T150 450T150 340Q150 270 150 231T151 170T153 141T157 126Q162 109 177 99T215 88ZM282 750Q272 750 263 760L215 820H213L166 760Q157 750 147 750H87Q82 750 81 753T83 760L171 885Q178 895 188 895H240Q251 895 258 885L346 760Q349 756 348 753T342 750H282Z"  />
<glyph unicode="&#xD5;" horiz-adv-x="429" d="M259 763Q242 763 231 768T207 781Q195 789 188 793T169 797Q153 797 143 790T121 771Q117 767 113 768T109 775V836Q109 845 119 855Q129 865 141 872T170 879Q187 879 198 874T221 861Q234 853 241 849T260 845Q276 845 286 852T308 871Q312 875 316 874T320 867V806Q320 801 318 797T310 787Q300 777 288 770T259 763ZM215 -9Q152 -9 112 18T54 97Q50 108 48 121T44 159T42 226T41 340Q41 411 41 453T43 521T47 559T54 583Q71 634 111 661T215 689Q278 689 318 662T375 583Q379 572 381 559T385 521T387 454T388 340Q388 269 388 227T386 159T382 121T375 97Q358 46 318 19T215 -9ZM215 88Q236 88 251 98T272 126Q274 133 275 141T277 170T278 230T279 340Q279 410 279 449T278 510T276 539T272 554Q267 571 252 581T215 592Q193 592 178 582T157 554Q155 547 154 539T151 510T150 450T150 340Q150 270 150 231T151 170T153 141T157 126Q162 109 177 99T215 88Z"  />
<glyph unicode="&#xD6;" horiz-adv-x="429" d="M258 769Q248 769 248 779V865Q248 875 258 875H323Q333 875 333 865V779Q333 769 323 769H258ZM106 769Q96 769 96 779V865Q96 875 106 875H171Q181 875 181 865V779Q181 769 171 769H106ZM215 -9Q152 -9 112 18T54 97Q50 108 48 121T44 159T42 226T41 340Q41 411 41 453T43 521T47 559T54 583Q71 634 111 661T215 689Q278 689 318 662T375 583Q379 572 381 559T385 521T387 454T388 340Q388 269 388 227T386 159T382 121T375 97Q358 46 318 19T215 -9ZM215 88Q236 88 251 98T272 126Q274 133 275 141T277 170T278 230T279 340Q279 410 279 449T278 510T276 539T272 554Q267 571 252 581T215 592Q193 592 178 582T157 554Q155 547 154 539T151 510T150 450T150 340Q150 270 150 231T151 170T153 141T157 126Q162 109 177 99T215 88Z"  />
<glyph unicode="&#xD7;" horiz-adv-x="398" d="M296 133Q289 126 282 133L203 212Q199 215 195 212L117 133Q110 126 103 133L56 180Q49 187 56 194L135 272Q138 276 135 280L56 358Q49 365 56 372L103 419Q110 426 117 419L195 340Q199 337 203 340L282 419Q289 426 296 419L342 372Q349 365 342 358L263 280Q260 276 263 272L342 194Q349 187 342 180L296 133Z"  />
<glyph unicode="&#xD8;" horiz-adv-x="429" d="M40 -30Q29 -30 34 -20L69 62Q59 80 54 97Q50 108 48 121T44 159T42 226T41 340Q41 411 41 453T43 521T47 559T54 583Q71 634 111 661T215 689Q284 689 328 653L349 701Q353 710 362 710H388Q398 710 395 700L359 618Q364 610 368 601T375 583Q379 572 381 559T385 521T387 454T388 340Q388 269 388 227T386 159T382 121T375 97Q358 46 318 19T215 -9Q144 -9 100 26L80 -21Q76 -30 67 -30H40ZM150 238L275 543L272 554Q267 571 252 581T215 592Q193 592 178 582T157 554Q155 547 154 539T151 510T150 450T150 340V238ZM215 88Q236 88 251 98T272 126Q274 133 275 141T277 170T278 230T279 340V441L154 137L157 126Q162 109 177 99T215 88Z"  />
<glyph unicode="&#xD9;" horiz-adv-x="443" d="M201 761Q191 761 181 771L82 878Q79 882 80 885T87 888H168Q175 888 178 886T185 878L261 771Q264 767 263 764T256 761H201ZM222 -9Q143 -9 98 36T52 173V670Q52 680 62 680H149Q159 680 159 670V159Q159 127 175 108T222 88Q252 88 268 107T284 159V670Q284 680 294 680H381Q391 680 391 670V173Q391 82 346 37T222 -9Z"  />
<glyph unicode="&#xDA;" horiz-adv-x="443" d="M193 761Q188 761 186 764T187 771L264 878Q268 883 271 885T280 888H361Q366 888 367 885T366 878L268 771Q258 761 248 761H193ZM222 -9Q143 -9 98 36T52 173V670Q52 680 62 680H149Q159 680 159 670V159Q159 127 175 108T222 88Q252 88 268 107T284 159V670Q284 680 294 680H381Q391 680 391 670V173Q391 82 346 37T222 -9Z"  />
<glyph unicode="&#xDB;" horiz-adv-x="443" d="M222 -9Q143 -9 98 36T52 173V670Q52 680 62 680H149Q159 680 159 670V159Q159 127 175 108T222 88Q252 88 268 107T284 159V670Q284 680 294 680H381Q391 680 391 670V173Q391 82 346 37T222 -9ZM289 750Q279 750 270 760L222 820H220L173 760Q164 750 154 750H94Q89 750 88 753T90 760L178 885Q185 895 195 895H247Q258 895 265 885L353 760Q356 756 355 753T349 750H289Z"  />
<glyph unicode="&#xDC;" horiz-adv-x="443" d="M265 769Q255 769 255 779V865Q255 875 265 875H330Q340 875 340 865V779Q340 769 330 769H265ZM113 769Q103 769 103 779V865Q103 875 113 875H178Q188 875 188 865V779Q188 769 178 769H113ZM222 -9Q143 -9 98 36T52 173V670Q52 680 62 680H149Q159 680 159 670V159Q159 127 175 108T222 88Q252 88 268 107T284 159V670Q284 680 294 680H381Q391 680 391 670V173Q391 82 346 37T222 -9Z"  />
<glyph unicode="&#xDD;" horiz-adv-x="386" d="M150 0Q140 0 140 10V279L10 670Q7 680 18 680H106Q115 680 118 670L194 407H197L271 670Q274 680 283 680H369Q380 680 377 670L247 279V10Q247 0 237 0H150ZM163 761Q158 761 156 764T157 771L234 878Q238 883 241 885T250 888H331Q336 888 337 885T336 878L238 771Q228 761 218 761H163Z"  />
<glyph unicode="&#xDE;" horiz-adv-x="425" d="M63 0Q53 0 53 10V670Q53 680 63 680H150Q160 680 160 670V566Q160 560 166 560H200Q245 560 281 549T342 514T380 449T393 351Q393 294 380 254T342 190T281 154T200 142H166Q160 142 160 136V10Q160 0 150 0H63ZM201 239Q246 239 266 262T286 351Q286 415 266 439T201 463H166Q160 463 160 457V245Q160 239 166 239H201Z"  />
<glyph unicode="&#xDF;" horiz-adv-x="413" d="M219 -4Q209 -4 209 6V79Q209 89 219 89H226Q255 89 263 113Q264 116 265 121T266 138T267 168T268 218Q268 249 268 267T267 297T265 313T263 322Q255 346 226 346H219Q209 346 209 356V429Q209 439 219 439H224Q253 439 260 463Q262 468 263 480T264 522Q264 595 209 595Q153 595 153 522V10Q153 0 143 0H61Q51 0 51 10V511Q51 551 60 584T88 640T136 676T208 689Q283 689 324 647T366 530Q366 503 364 484T355 450T339 424T313 402V400Q330 389 342 376T361 341Q364 333 365 324T368 302T369 268T370 218Q370 183 370 159T368 118T364 90T359 70Q346 29 316 13T237 -4H219Z"  />
<glyph unicode="&#xE0;" horiz-adv-x="383" d="M249 0Q239 0 239 10V48H238Q229 22 206 7T149 -9Q128 -9 108 -2T71 21T44 66T34 135Q34 178 46 207T78 254T124 280T181 288H233Q239 288 239 294V322Q239 362 225 380T173 399Q149 399 131 392T93 371Q83 364 78 375L52 434Q48 441 55 448Q79 467 112 479T186 491Q268 491 302 453T337 326V10Q337 0 327 0H249ZM179 75Q206 75 222 94T239 143V200Q239 206 233 206H198Q161 206 146 188T131 139Q131 75 179 75ZM172 555Q161 555 154 565L64 690Q61 694 62 697T69 700H150Q160 700 166 690L235 565Q240 555 229 555H172Z"  />
<glyph unicode="&#xE1;" horiz-adv-x="383" d="M249 0Q239 0 239 10V48H238Q229 22 206 7T149 -9Q128 -9 108 -2T71 21T44 66T34 135Q34 178 46 207T78 254T124 280T181 288H233Q239 288 239 294V322Q239 362 225 380T173 399Q149 399 131 392T93 371Q83 364 78 375L52 434Q48 441 55 448Q79 467 112 479T186 491Q268 491 302 453T337 326V10Q337 0 327 0H249ZM179 75Q206 75 222 94T239 143V200Q239 206 233 206H198Q161 206 146 188T131 139Q131 75 179 75ZM158 555Q147 555 152 565L221 690Q227 700 237 700H318Q323 700 324 697T323 690L233 565Q225 555 215 555H158Z"  />
<glyph unicode="&#xE2;" horiz-adv-x="383" d="M249 0Q239 0 239 10V48H238Q229 22 206 7T149 -9Q128 -9 108 -2T71 21T44 66T34 135Q34 178 46 207T78 254T124 280T181 288H233Q239 288 239 294V322Q239 362 225 380T173 399Q149 399 131 392T93 371Q83 364 78 375L52 434Q48 441 55 448Q79 467 112 479T186 491Q268 491 302 453T337 326V10Q337 0 327 0H249ZM179 75Q206 75 222 94T239 143V200Q239 206 233 206H198Q161 206 146 188T131 139Q131 75 179 75ZM260 555Q250 555 241 565L193 625H191L144 565Q135 555 125 555H65Q60 555 59 558T61 565L149 690Q156 700 166 700H218Q229 700 236 690L324 565Q327 561 326 558T320 555H260Z"  />
<glyph unicode="&#xE3;" horiz-adv-x="383" d="M249 0Q239 0 239 10V48H238Q229 22 206 7T149 -9Q128 -9 108 -2T71 21T44 66T34 135Q34 178 46 207T78 254T124 280T181 288H233Q239 288 239 294V322Q239 362 225 380T173 399Q149 399 131 392T93 371Q83 364 78 375L52 434Q48 441 55 448Q79 467 112 479T186 491Q268 491 302 453T337 326V10Q337 0 327 0H249ZM179 75Q206 75 222 94T239 143V200Q239 206 233 206H198Q161 206 146 188T131 139Q131 75 179 75ZM237 567Q220 567 209 572T185 585Q173 593 166 597T147 601Q131 601 121 594T99 575Q95 571 91 572T87 579V640Q87 649 97 659Q107 669 119 676T148 683Q165 683 176 678T199 665Q212 657 219 653T238 649Q254 649 264 656T286 675Q290 679 294 678T298 671V610Q298 605 296 601T288 591Q278 581 266 574T237 567Z"  />
<glyph unicode="&#xE4;" horiz-adv-x="383" d="M249 0Q239 0 239 10V48H238Q229 22 206 7T149 -9Q128 -9 108 -2T71 21T44 66T34 135Q34 178 46 207T78 254T124 280T181 288H233Q239 288 239 294V322Q239 362 225 380T173 399Q149 399 131 392T93 371Q83 364 78 375L52 434Q48 441 55 448Q79 467 112 479T186 491Q268 491 302 453T337 326V10Q337 0 327 0H249ZM179 75Q206 75 222 94T239 143V200Q239 206 233 206H198Q161 206 146 188T131 139Q131 75 179 75ZM236 574Q226 574 226 584V670Q226 680 236 680H301Q311 680 311 670V584Q311 574 301 574H236ZM84 574Q74 574 74 584V670Q74 680 84 680H149Q159 680 159 670V584Q159 574 149 574H84Z"  />
<glyph unicode="&#xE5;" horiz-adv-x="383" d="M249 0Q239 0 239 10V48H238Q229 22 206 7T149 -9Q128 -9 108 -2T71 21T44 66T34 135Q34 178 46 207T78 254T124 280T181 288H233Q239 288 239 294V322Q239 362 225 380T173 399Q149 399 131 392T93 371Q83 364 78 375L52 434Q48 441 55 448Q79 467 112 479T186 491Q268 491 302 453T337 326V10Q337 0 327 0H249ZM179 75Q206 75 222 94T239 143V200Q239 206 233 206H198Q161 206 146 188T131 139Q131 75 179 75ZM192 539Q154 539 128 565T102 629Q102 668 128 694T192 720Q231 720 257 694T283 629Q283 591 257 565T192 539ZM192 582Q212 582 225 595T238 629Q238 650 225 663T192 677Q172 677 160 664T147 629Q147 609 159 596T192 582Z"  />
<glyph unicode="&#xE6;" horiz-adv-x="578" d="M388 -9Q347 -9 316 4T265 49H264Q239 15 212 3T149 -9Q129 -9 109 -2T72 21T45 66T34 135Q34 178 46 207T78 254T124 280T181 288H233Q239 288 239 294V322Q239 362 225 380T173 399Q149 399 131 392T93 371Q83 364 78 375L52 434Q48 441 55 448Q79 467 112 479T186 491Q257 491 292 458H293Q310 475 335 483T389 491Q446 491 482 466T533 395Q536 386 538 375T541 345T543 295T544 216Q544 206 534 206H343Q337 206 337 200Q337 177 337 163T338 140T340 126T342 117Q353 84 389 84Q429 84 442 128Q445 137 454 135L531 120Q540 119 538 108Q527 54 488 23T388 -9ZM436 288Q442 288 442 294Q442 331 440 345T435 368Q430 382 419 391T389 400Q371 400 360 391T343 368Q340 360 339 346T337 294Q337 288 343 288H436ZM179 75Q206 75 222 94T239 143V200Q239 206 233 206H198Q161 206 146 188T131 139Q131 75 179 75Z"  />
<glyph unicode="&#xE7;" horiz-adv-x="357" d="M147 -5Q73 12 49 86Q46 96 44 106T40 133T38 174T37 241Q37 282 37 307T39 349T43 375T49 396Q64 442 99 466T188 491Q251 491 291 456T335 360Q335 350 327 349L251 334Q240 332 239 343Q235 372 222 384T188 397Q154 397 144 366Q142 361 142 355T140 336T139 301T139 241Q139 203 139 181T140 146T141 127T144 116Q154 85 188 85Q209 85 222 97T239 139Q240 149 251 148L327 133Q335 132 335 122Q332 71 303 38T226 -5L177 -145Q173 -155 161 -155H95Q85 -155 88 -145L147 -5Z"  />
<glyph unicode="&#xE8;" horiz-adv-x="380" d="M190 -9Q133 -9 98 16T48 87Q45 96 43 106T40 134T38 176T37 241Q37 280 37 305T39 348T43 375T48 395Q63 441 98 466T191 491Q248 491 284 466T335 395Q338 386 340 375T343 345T345 295T346 216Q346 206 336 206H145Q139 206 139 200Q139 177 139 163T140 140T142 126T144 117Q155 85 191 85Q231 85 244 128Q247 137 256 135L333 120Q342 119 340 108Q330 54 290 23T190 -9ZM191 400Q173 400 162 391T145 368Q142 360 141 346T139 294Q139 288 145 288H238Q244 288 244 294Q244 331 243 345T238 368Q233 382 222 391T191 400ZM172 555Q161 555 154 565L64 690Q61 694 62 697T69 700H150Q160 700 166 690L235 565Q240 555 229 555H172Z"  />
<glyph unicode="&#xE9;" horiz-adv-x="380" d="M149 555Q138 555 143 565L212 690Q218 700 228 700H309Q314 700 315 697T314 690L224 565Q216 555 206 555H149ZM190 -9Q133 -9 98 16T48 87Q45 96 43 106T40 134T38 176T37 241Q37 280 37 305T39 348T43 375T48 395Q63 441 98 466T191 491Q248 491 284 466T335 395Q338 386 340 375T343 345T345 295T346 216Q346 206 336 206H145Q139 206 139 200Q139 177 139 163T140 140T142 126T144 117Q155 85 191 85Q231 85 244 128Q247 137 256 135L333 120Q342 119 340 108Q330 54 290 23T190 -9ZM191 400Q173 400 162 391T145 368Q142 360 141 346T139 294Q139 288 145 288H238Q244 288 244 294Q244 331 243 345T238 368Q233 382 222 391T191 400Z"  />
<glyph unicode="&#xEA;" horiz-adv-x="380" d="M259 555Q249 555 240 565L192 625H190L143 565Q134 555 124 555H64Q59 555 58 558T60 565L148 690Q155 700 165 700H217Q228 700 235 690L323 565Q326 561 325 558T319 555H259ZM190 -9Q133 -9 98 16T48 87Q45 96 43 106T40 134T38 176T37 241Q37 280 37 305T39 348T43 375T48 395Q63 441 98 466T191 491Q248 491 284 466T335 395Q338 386 340 375T343 345T345 295T346 216Q346 206 336 206H145Q139 206 139 200Q139 177 139 163T140 140T142 126T144 117Q155 85 191 85Q231 85 244 128Q247 137 256 135L333 120Q342 119 340 108Q330 54 290 23T190 -9ZM191 400Q173 400 162 391T145 368Q142 360 141 346T139 294Q139 288 145 288H238Q244 288 244 294Q244 331 243 345T238 368Q233 382 222 391T191 400Z"  />
<glyph unicode="&#xEB;" horiz-adv-x="380" d="M235 574Q225 574 225 584V670Q225 680 235 680H300Q310 680 310 670V584Q310 574 300 574H235ZM83 574Q73 574 73 584V670Q73 680 83 680H148Q158 680 158 670V584Q158 574 148 574H83ZM190 -9Q133 -9 98 16T48 87Q45 96 43 106T40 134T38 176T37 241Q37 280 37 305T39 348T43 375T48 395Q63 441 98 466T191 491Q248 491 284 466T335 395Q338 386 340 375T343 345T345 295T346 216Q346 206 336 206H145Q139 206 139 200Q139 177 139 163T140 140T142 126T144 117Q155 85 191 85Q231 85 244 128Q247 137 256 135L333 120Q342 119 340 108Q330 54 290 23T190 -9ZM191 400Q173 400 162 391T145 368Q142 360 141 346T139 294Q139 288 145 288H238Q244 288 244 294Q244 331 243 345T238 368Q233 382 222 391T191 400Z"  />
<glyph unicode="&#xEC;" horiz-adv-x="204" d="M61 0Q51 0 51 10V472Q51 482 61 482H143Q153 482 153 472V10Q153 0 143 0H61ZM79 555Q68 555 61 565L-29 690Q-32 694 -31 697T-24 700H57Q67 700 73 690L142 565Q147 555 136 555H79Z"  />
<glyph unicode="&#xED;" horiz-adv-x="204" d="M75 555Q64 555 69 565L138 690Q144 700 154 700H235Q240 700 241 697T240 690L150 565Q142 555 132 555H75ZM61 0Q51 0 51 10V472Q51 482 61 482H143Q153 482 153 472V10Q153 0 143 0H61Z"  />
<glyph unicode="&#xEE;" horiz-adv-x="204" d="M171 555Q161 555 152 565L104 625H102L55 565Q46 555 36 555H-24Q-29 555 -30 558T-28 565L60 690Q67 700 77 700H129Q140 700 147 690L235 565Q238 561 237 558T231 555H171ZM61 0Q51 0 51 10V472Q51 482 61 482H143Q153 482 153 472V10Q153 0 143 0H61Z"  />
<glyph unicode="&#xEF;" horiz-adv-x="204" d="M147 574Q137 574 137 584V670Q137 680 147 680H212Q222 680 222 670V584Q222 574 212 574H147ZM-5 574Q-15 574 -15 584V670Q-15 680 -5 680H60Q70 680 70 670V584Q70 574 60 574H-5ZM61 0Q51 0 51 10V472Q51 482 61 482H143Q153 482 153 472V10Q153 0 143 0H61Z"  />
<glyph unicode="&#xF0;" horiz-adv-x="385" d="M260 558L282 516Q302 478 315 447T335 385T345 317T348 231Q348 197 348 175T346 136T342 110T337 90Q322 43 285 17T192 -9Q137 -9 100 17T48 90Q45 99 43 109T40 135T38 171T37 225Q37 258 38 281T40 320T44 348T50 369Q64 412 94 436T168 461Q183 461 196 458T215 450H216L173 530L106 509Q98 506 95 515L79 563Q76 572 86 575L141 592L100 670Q95 680 106 680H187Q196 680 202 670L228 620L290 640Q298 643 301 634L317 586Q320 577 310 574L260 558ZM192 85Q212 85 223 94T241 120Q242 125 243 131T245 147T246 176T246 225Q246 257 246 276T245 306T243 323T241 334Q235 350 224 359T192 369Q173 369 161 360T144 334Q142 329 142 323T140 306T139 276T139 225Q139 195 139 177T140 148T141 131T144 120Q155 85 192 85Z"  />
<glyph unicode="&#xF1;" horiz-adv-x="405" d="M266 0Q256 0 256 10V327Q256 397 204 397Q153 397 153 327V10Q153 0 143 0H61Q51 0 51 10V472Q51 482 61 482H143Q153 482 153 472V434H154Q167 459 189 475T246 491Q300 491 329 456T358 341V10Q358 0 348 0H266ZM248 567Q231 567 220 572T196 585Q184 593 177 597T158 601Q142 601 132 594T110 575Q106 571 102 572T98 579V640Q98 649 108 659Q118 669 130 676T159 683Q176 683 187 678T210 665Q223 657 230 653T249 649Q265 649 275 656T297 675Q301 679 305 678T309 671V610Q309 605 307 601T299 591Q289 581 277 574T248 567Z"  />
<glyph unicode="&#xF2;" horiz-adv-x="385" d="M348 241Q348 203 348 179T346 138T342 110T337 90Q322 43 285 17T192 -9Q137 -9 100 17T48 90Q45 99 43 110T40 137T38 178T37 241Q37 278 37 303T39 344T43 372T48 392Q63 439 100 465T192 491Q248 491 285 465T337 392Q340 383 342 372T345 345T347 303T348 241ZM246 241Q246 278 246 299T245 333T243 352T241 363Q230 397 192 397Q155 397 144 363Q142 358 142 352T140 334T139 300T139 241Q139 204 139 183T140 149T141 130T144 119Q155 85 192 85Q230 85 241 119Q242 124 243 130T245 148T246 182T246 241ZM168 555Q157 555 150 565L60 690Q57 694 58 697T65 700H146Q156 700 162 690L231 565Q236 555 225 555H168Z"  />
<glyph unicode="&#xF3;" horiz-adv-x="385" d="M156 555Q145 555 150 565L219 690Q225 700 235 700H316Q321 700 322 697T321 690L231 565Q223 555 213 555H156ZM348 241Q348 203 348 179T346 138T342 110T337 90Q322 43 285 17T192 -9Q137 -9 100 17T48 90Q45 99 43 110T40 137T38 178T37 241Q37 278 37 303T39 344T43 372T48 392Q63 439 100 465T192 491Q248 491 285 465T337 392Q340 383 342 372T345 345T347 303T348 241ZM246 241Q246 278 246 299T245 333T243 352T241 363Q230 397 192 397Q155 397 144 363Q142 358 142 352T140 334T139 300T139 241Q139 204 139 183T140 149T141 130T144 119Q155 85 192 85Q230 85 241 119Q242 124 243 130T245 148T246 182T246 241Z"  />
<glyph unicode="&#xF4;" horiz-adv-x="385" d="M261 555Q251 555 242 565L194 625H192L145 565Q136 555 126 555H66Q61 555 60 558T62 565L150 690Q157 700 167 700H219Q230 700 237 690L325 565Q328 561 327 558T321 555H261ZM348 241Q348 203 348 179T346 138T342 110T337 90Q322 43 285 17T192 -9Q137 -9 100 17T48 90Q45 99 43 110T40 137T38 178T37 241Q37 278 37 303T39 344T43 372T48 392Q63 439 100 465T192 491Q248 491 285 465T337 392Q340 383 342 372T345 345T347 303T348 241ZM246 241Q246 278 246 299T245 333T243 352T241 363Q230 397 192 397Q155 397 144 363Q142 358 142 352T140 334T139 300T139 241Q139 204 139 183T140 149T141 130T144 119Q155 85 192 85Q230 85 241 119Q242 124 243 130T245 148T246 182T246 241Z"  />
<glyph unicode="&#xF5;" horiz-adv-x="385" d="M348 241Q348 203 348 179T346 138T342 110T337 90Q322 43 285 17T192 -9Q137 -9 100 17T48 90Q45 99 43 110T40 137T38 178T37 241Q37 278 37 303T39 344T43 372T48 392Q63 439 100 465T192 491Q248 491 285 465T337 392Q340 383 342 372T345 345T347 303T348 241ZM246 241Q246 278 246 299T245 333T243 352T241 363Q230 397 192 397Q155 397 144 363Q142 358 142 352T140 334T139 300T139 241Q139 204 139 183T140 149T141 130T144 119Q155 85 192 85Q230 85 241 119Q242 124 243 130T245 148T246 182T246 241ZM238 567Q221 567 210 572T186 585Q174 593 167 597T148 601Q132 601 122 594T100 575Q96 571 92 572T88 579V640Q88 649 98 659Q108 669 120 676T149 683Q166 683 177 678T200 665Q213 657 220 653T239 649Q255 649 265 656T287 675Q291 679 295 678T299 671V610Q299 605 297 601T289 591Q279 581 267 574T238 567Z"  />
<glyph unicode="&#xF6;" horiz-adv-x="385" d="M237 574Q227 574 227 584V670Q227 680 237 680H302Q312 680 312 670V584Q312 574 302 574H237ZM85 574Q75 574 75 584V670Q75 680 85 680H150Q160 680 160 670V584Q160 574 150 574H85ZM348 241Q348 203 348 179T346 138T342 110T337 90Q322 43 285 17T192 -9Q137 -9 100 17T48 90Q45 99 43 110T40 137T38 178T37 241Q37 278 37 303T39 344T43 372T48 392Q63 439 100 465T192 491Q248 491 285 465T337 392Q340 383 342 372T345 345T347 303T348 241ZM246 241Q246 278 246 299T245 333T243 352T241 363Q230 397 192 397Q155 397 144 363Q142 358 142 352T140 334T139 300T139 241Q139 204 139 183T140 149T141 130T144 119Q155 85 192 85Q230 85 241 119Q242 124 243 130T245 148T246 182T246 241Z"  />
<glyph unicode="&#xF7;" horiz-adv-x="398" d="M199 382Q172 382 155 399T137 444Q137 471 154 488T199 505Q226 505 243 488T261 444Q261 416 244 399T199 382ZM46 231Q36 231 36 241V311Q36 321 46 321H352Q362 321 362 311V241Q362 231 352 231H46ZM199 47Q172 47 155 64T137 108Q137 136 154 153T199 170Q226 170 243 153T261 108Q261 81 244 64T199 47Z"  />
<glyph unicode="&#xF8;" horiz-adv-x="385" d="M348 241Q348 203 348 179T346 138T342 110T337 90Q322 43 285 17T192 -9Q137 -9 100 17L81 -20Q76 -30 68 -30H46Q41 -30 39 -28T39 -20L72 44Q55 64 48 90Q45 99 43 110T40 137T38 178T37 241Q37 278 37 303T39 344T43 372T48 392Q63 439 100 465T192 491Q247 491 285 465L304 502Q309 512 317 512H339Q344 512 346 510T346 502L313 437Q328 417 337 392Q340 383 342 372T345 345T347 303T348 241ZM138 241Q138 216 138 199T138 169L237 375Q223 398 192 398Q154 398 143 364Q141 359 141 353T139 334T138 300T138 241ZM247 310L148 106Q162 84 192 84Q231 84 242 118Q243 123 244 129T246 148T247 182T247 241V310Z"  />
<glyph unicode="&#xF9;" horiz-adv-x="403" d="M260 0Q250 0 250 10V48H249Q236 23 215 7T158 -9Q104 -9 76 26T47 141V472Q47 482 57 482H139Q149 482 149 472V155Q149 85 199 85Q250 85 250 155V472Q250 482 260 482H342Q352 482 352 472V10Q352 0 342 0H260ZM177 555Q166 555 159 565L69 690Q66 694 67 697T74 700H155Q165 700 171 690L240 565Q245 555 234 555H177Z"  />
<glyph unicode="&#xFA;" horiz-adv-x="403" d="M169 555Q158 555 163 565L232 690Q238 700 248 700H329Q334 700 335 697T334 690L244 565Q236 555 226 555H169ZM260 0Q250 0 250 10V48H249Q236 23 215 7T158 -9Q104 -9 76 26T47 141V472Q47 482 57 482H139Q149 482 149 472V155Q149 85 199 85Q250 85 250 155V472Q250 482 260 482H342Q352 482 352 472V10Q352 0 342 0H260Z"  />
<glyph unicode="&#xFB;" horiz-adv-x="403" d="M270 555Q260 555 251 565L203 625H201L154 565Q145 555 135 555H75Q70 555 69 558T71 565L159 690Q166 700 176 700H228Q239 700 246 690L334 565Q337 561 336 558T330 555H270ZM260 0Q250 0 250 10V48H249Q236 23 215 7T158 -9Q104 -9 76 26T47 141V472Q47 482 57 482H139Q149 482 149 472V155Q149 85 199 85Q250 85 250 155V472Q250 482 260 482H342Q352 482 352 472V10Q352 0 342 0H260Z"  />
<glyph unicode="&#xFC;" horiz-adv-x="403" d="M246 574Q236 574 236 584V670Q236 680 246 680H311Q321 680 321 670V584Q321 574 311 574H246ZM94 574Q84 574 84 584V670Q84 680 94 680H159Q169 680 169 670V584Q169 574 159 574H94ZM260 0Q250 0 250 10V48H249Q236 23 215 7T158 -9Q104 -9 76 26T47 141V472Q47 482 57 482H139Q149 482 149 472V155Q149 85 199 85Q250 85 250 155V472Q250 482 260 482H342Q352 482 352 472V10Q352 0 342 0H260Z"  />
<glyph unicode="&#xFD;" horiz-adv-x="370" d="M62 -180Q52 -180 52 -170V-96Q52 -86 62 -86L76 -85Q98 -83 109 -72T129 -30L140 18L20 472Q17 482 27 482H111Q120 482 122 472L186 174H187L251 472Q253 482 262 482H343Q353 482 350 472L223 -28Q211 -75 198 -105T169 -151T130 -174T77 -180H62ZM155 555Q144 555 149 565L218 690Q224 700 234 700H315Q320 700 321 697T320 690L230 565Q222 555 212 555H155Z"  />
<glyph unicode="&#xFE;" horiz-adv-x="401" d="M61 -180Q51 -180 51 -170V670Q51 680 61 680H143Q153 680 153 670V433H154Q164 458 185 474T244 491Q324 491 349 411Q352 401 354 389T358 358T361 311T362 241Q362 198 361 170T359 124T355 93T349 71Q324 -9 244 -9Q206 -9 185 7T154 49H153V-170Q153 -180 143 -180H61ZM260 241Q260 278 260 299T259 333T257 352T255 363Q244 397 206 397Q169 397 158 363Q156 358 156 352T154 334T153 300T153 241Q153 204 153 183T154 149T155 130T158 119Q169 85 206 85Q244 85 255 119Q256 124 257 130T259 148T260 182T260 241Z"  />
<glyph unicode="&#xFF;" horiz-adv-x="370" d="M62 -180Q52 -180 52 -170V-96Q52 -86 62 -86L76 -85Q98 -83 109 -72T129 -30L140 18L20 472Q17 482 27 482H111Q120 482 122 472L186 174H187L251 472Q253 482 262 482H343Q353 482 350 472L223 -28Q211 -75 198 -105T169 -151T130 -174T77 -180H62ZM230 574Q220 574 220 584V670Q220 680 230 680H295Q305 680 305 670V584Q305 574 295 574H230ZM78 574Q68 574 68 584V670Q68 680 78 680H143Q153 680 153 670V584Q153 574 143 574H78Z"  />
<glyph unicode="&#x100;" horiz-adv-x="421" d="M159 670Q162 680 170 680H254Q263 680 265 670L409 10Q411 0 401 0H316Q307 0 305 10L278 147H143L116 10Q114 0 105 0H20Q10 0 12 10L159 670ZM261 237L213 490H210L160 237H261ZM107 780Q97 780 97 790V850Q97 860 107 860H312Q322 860 322 850V790Q322 780 312 780H107Z"  />
<glyph unicode="&#x101;" horiz-adv-x="383" d="M249 0Q239 0 239 10V48H238Q229 22 206 7T149 -9Q128 -9 108 -2T71 21T44 66T34 135Q34 178 46 207T78 254T124 280T181 288H233Q239 288 239 294V322Q239 362 225 380T173 399Q149 399 131 392T93 371Q83 364 78 375L52 434Q48 441 55 448Q79 467 112 479T186 491Q268 491 302 453T337 326V10Q337 0 327 0H249ZM179 75Q206 75 222 94T239 143V200Q239 206 233 206H198Q161 206 146 188T131 139Q131 75 179 75ZM90 588Q80 588 80 598V658Q80 668 90 668H295Q305 668 305 658V598Q305 588 295 588H90Z"  />
<glyph unicode="&#x102;" horiz-adv-x="421" d="M159 670Q162 680 170 680H254Q263 680 265 670L409 10Q411 0 401 0H316Q307 0 305 10L278 147H143L116 10Q114 0 105 0H20Q10 0 12 10L159 670ZM261 237L213 490H210L160 237H261ZM209 742Q179 742 157 751T120 777T96 815T85 861Q85 871 95 871H140Q147 871 150 861Q158 840 172 827T209 813Q232 813 246 826T269 861Q272 871 279 871H324Q334 871 334 861Q332 837 324 816T300 778T262 752T209 742Z"  />
<glyph unicode="&#x103;" horiz-adv-x="383" d="M249 0Q239 0 239 10V48H238Q229 22 206 7T149 -9Q128 -9 108 -2T71 21T44 66T34 135Q34 178 46 207T78 254T124 280T181 288H233Q239 288 239 294V322Q239 362 225 380T173 399Q149 399 131 392T93 371Q83 364 78 375L52 434Q48 441 55 448Q79 467 112 479T186 491Q268 491 302 453T337 326V10Q337 0 327 0H249ZM179 75Q206 75 222 94T239 143V200Q239 206 233 206H198Q161 206 146 188T131 139Q131 75 179 75ZM192 556Q133 556 103 591T68 675Q68 685 78 685H123Q130 685 133 675Q141 653 155 640T192 626Q215 626 229 639T252 675Q255 685 262 685H307Q317 685 317 675Q313 626 283 591T192 556Z"  />
<glyph unicode="&#x104;" horiz-adv-x="421" d="M341 -190Q300 -190 276 -169T252 -107Q252 -76 268 -49T310 1Q306 3 305 10L279 147H142L116 10Q114 0 105 0H20Q10 0 12 10L159 670Q162 680 170 680H254Q263 680 265 670L409 10Q411 4 404 0Q375 -20 355 -45T335 -91Q335 -103 341 -109T355 -115Q365 -115 373 -110Q382 -104 386 -114L406 -160Q409 -168 401 -173Q391 -180 375 -185T341 -190ZM213 490H210L160 237H261L213 490Z"  />
<glyph unicode="&#x105;" horiz-adv-x="383" d="M268 -190Q227 -190 203 -169T178 -107Q178 -76 194 -49T240 5Q239 6 239 10V48H238Q229 22 206 7T149 -9Q128 -9 108 -2T71 21T44 66T34 135Q34 178 46 207T78 254T124 280T181 288H233Q239 288 239 294V322Q239 362 225 380T173 399Q149 399 131 392T93 371Q83 364 78 375L52 434Q48 441 55 448Q79 467 112 479T186 491Q268 491 302 453T337 326V10Q337 3 330 -1Q300 -22 281 -46T262 -91Q262 -115 281 -115Q291 -115 299 -110Q308 -104 312 -114L333 -160Q336 -168 328 -173Q318 -180 301 -185T268 -190ZM179 75Q206 75 222 94T239 143V200Q239 206 233 206H198Q161 206 146 188T131 139Q131 75 179 75Z"  />
<glyph unicode="&#x106;" d="M54 95Q51 105 49 118T45 157T42 226T41 340Q41 411 42 454T44 522T48 561T54 585Q70 634 107 661T208 689Q281 689 324 650T372 526Q374 515 365 514L284 500Q273 498 273 509Q271 553 256 572T211 592Q188 592 176 583T157 554Q155 548 154 540T152 510T151 449T150 340Q150 271 150 231T151 170T153 141T157 126Q163 107 175 98T211 88Q240 88 255 107T273 171Q273 182 284 180L365 166Q374 165 372 154Q367 69 324 30T208 -9Q145 -9 108 18T54 95ZM169 761Q164 761 162 764T163 771L240 878Q244 883 247 885T256 888H337Q342 888 343 885T342 878L244 771Q234 761 224 761H169Z"  />
<glyph unicode="&#x107;" horiz-adv-x="357" d="M150 555Q139 555 144 565L213 690Q219 700 229 700H310Q315 700 316 697T315 690L225 565Q217 555 207 555H150ZM188 -9Q134 -9 99 15T49 86Q46 96 44 106T40 133T38 174T37 241Q37 282 37 307T39 349T43 375T49 396Q64 442 99 466T188 491Q251 491 291 456T335 360Q335 350 327 349L251 334Q240 332 239 343Q235 372 222 384T188 397Q154 397 144 366Q142 361 142 355T140 336T139 301T139 241Q139 203 139 181T140 146T141 127T144 116Q154 85 188 85Q209 85 222 97T239 139Q240 149 251 148L327 133Q335 132 335 122Q331 62 291 27T188 -9Z"  />
<glyph unicode="&#x108;" d="M54 95Q51 105 49 118T45 157T42 226T41 340Q41 411 42 454T44 522T48 561T54 585Q70 634 107 661T208 689Q281 689 324 650T372 526Q374 515 365 514L284 500Q273 498 273 509Q271 553 256 572T211 592Q188 592 176 583T157 554Q155 548 154 540T152 510T151 449T150 340Q150 271 150 231T151 170T153 141T157 126Q163 107 175 98T211 88Q240 88 255 107T273 171Q273 182 284 180L365 166Q374 165 372 154Q367 69 324 30T208 -9Q145 -9 108 18T54 95ZM275 750Q265 750 256 760L208 820H206L159 760Q150 750 140 750H80Q75 750 74 753T76 760L164 885Q171 895 181 895H233Q244 895 251 885L339 760Q342 756 341 753T335 750H275Z"  />
<glyph unicode="&#x109;" horiz-adv-x="357" d="M257 555Q247 555 238 565L190 625H188L141 565Q132 555 122 555H62Q57 555 56 558T58 565L146 690Q153 700 163 700H215Q226 700 233 690L321 565Q324 561 323 558T317 555H257ZM188 -9Q134 -9 99 15T49 86Q46 96 44 106T40 133T38 174T37 241Q37 282 37 307T39 349T43 375T49 396Q64 442 99 466T188 491Q251 491 291 456T335 360Q335 350 327 349L251 334Q240 332 239 343Q235 372 222 384T188 397Q154 397 144 366Q142 361 142 355T140 336T139 301T139 241Q139 203 139 181T140 146T141 127T144 116Q154 85 188 85Q209 85 222 97T239 139Q240 149 251 148L327 133Q335 132 335 122Q331 62 291 27T188 -9Z"  />
<glyph unicode="&#x10A;" d="M155 769Q145 769 145 779V865Q145 875 155 875H237Q247 875 247 865V779Q247 769 237 769H155ZM54 95Q51 105 49 118T45 157T42 226T41 340Q41 411 42 454T44 522T48 561T54 585Q70 634 107 661T208 689Q281 689 324 650T372 526Q374 515 365 514L284 500Q273 498 273 509Q271 553 256 572T211 592Q188 592 176 583T157 554Q155 548 154 540T152 510T151 449T150 340Q150 271 150 231T151 170T153 141T157 126Q163 107 175 98T211 88Q240 88 255 107T273 171Q273 182 284 180L365 166Q374 165 372 154Q367 69 324 30T208 -9Q145 -9 108 18T54 95Z"  />
<glyph unicode="&#x10B;" horiz-adv-x="357" d="M188 -9Q134 -9 99 15T49 86Q46 96 44 106T40 133T38 174T37 241Q37 282 37 307T39 349T43 375T49 396Q64 442 99 466T188 491Q251 491 291 456T335 360Q335 350 327 349L251 334Q240 332 239 343Q235 372 222 384T188 397Q154 397 144 366Q142 361 142 355T140 336T139 301T139 241Q139 203 139 181T140 146T141 127T144 116Q154 85 188 85Q209 85 222 97T239 139Q240 149 251 148L327 133Q335 132 335 122Q331 62 291 27T188 -9ZM139 574Q129 574 129 584V670Q129 680 139 680H221Q231 680 231 670V584Q231 574 221 574H139Z"  />
<glyph unicode="&#x10C;" d="M54 95Q51 105 49 118T45 157T42 226T41 340Q41 411 42 454T44 522T48 561T54 585Q70 634 107 661T208 689Q281 689 324 650T372 526Q374 515 365 514L284 500Q273 498 273 509Q271 553 256 572T211 592Q188 592 176 583T157 554Q155 548 154 540T152 510T151 449T150 340Q150 271 150 231T151 170T153 141T157 126Q163 107 175 98T211 88Q240 88 255 107T273 171Q273 182 284 180L365 166Q374 165 372 154Q367 69 324 30T208 -9Q145 -9 108 18T54 95ZM179 747Q169 747 162 757L74 882Q71 886 72 889T78 892H138Q148 892 157 882L204 823H206L254 882Q263 892 273 892H333Q338 892 339 889T337 882L249 757Q242 747 231 747H179Z"  />
<glyph unicode="&#x10D;" horiz-adv-x="357" d="M163 555Q153 555 146 565L58 690Q55 694 56 697T62 700H122Q132 700 141 690L188 630H190L238 690Q247 700 257 700H317Q322 700 323 697T321 690L233 565Q226 555 215 555H163ZM188 -9Q134 -9 99 15T49 86Q46 96 44 106T40 133T38 174T37 241Q37 282 37 307T39 349T43 375T49 396Q64 442 99 466T188 491Q251 491 291 456T335 360Q335 350 327 349L251 334Q240 332 239 343Q235 372 222 384T188 397Q154 397 144 366Q142 361 142 355T140 336T139 301T139 241Q139 203 139 181T140 146T141 127T144 116Q154 85 188 85Q209 85 222 97T239 139Q240 149 251 148L327 133Q335 132 335 122Q331 62 291 27T188 -9Z"  />
<glyph unicode="&#x10E;" horiz-adv-x="443" d="M177 747Q167 747 160 757L72 882Q69 886 70 889T76 892H136Q146 892 155 882L202 823H204L252 882Q261 892 271 892H331Q336 892 337 889T335 882L247 757Q240 747 229 747H177ZM53 670Q53 680 63 680H220Q287 680 327 653T385 571Q389 557 392 540T398 497T401 433T402 340Q402 284 401 247T398 183T393 140T385 109Q367 54 327 27T220 0H63Q53 0 53 10V670ZM160 103Q160 97 166 97H209Q264 97 281 146Q284 155 286 167T289 201T292 256T293 340Q293 391 292 424T290 478T286 512T281 534Q264 583 209 583H166Q160 583 160 577V103Z"  />
<glyph unicode="&#x10F;" horiz-adv-x="401" d="M388 511Q379 511 379 520V670Q379 680 389 680H458Q468 680 468 670V613Q468 605 467 601T461 591L401 518Q395 511 388 511ZM258 0Q248 0 248 10V49H247Q237 23 216 7T157 -9Q77 -9 52 71Q49 81 47 93T43 123T40 170T39 241Q39 283 40 311T42 358T46 389T52 411Q77 491 157 491Q195 491 216 475T247 433H248V670Q248 680 258 680H340Q350 680 350 670V10Q350 0 340 0H258ZM141 241Q141 204 141 183T142 149T143 130T146 119Q157 85 195 85Q232 85 243 119Q244 124 245 130T247 148T248 182T248 241Q248 278 248 299T247 333T245 352T243 363Q232 397 195 397Q157 397 146 363Q144 358 144 352T142 334T141 300T141 241Z"  />
<glyph unicode="&#x110;" horiz-adv-x="443" d="M63 0Q53 0 53 10V297Q53 303 47 303H21Q11 303 11 313V373Q11 383 21 383H47Q53 383 53 389V670Q53 680 63 680H220Q287 680 327 653T385 571Q389 557 392 540T398 497T401 433T402 340Q402 284 401 247T398 183T393 140T385 109Q367 54 327 27T220 0H63ZM209 97Q264 97 281 146Q284 155 286 167T289 201T292 256T293 340Q293 391 292 424T290 478T286 512T281 534Q264 583 209 583H166Q160 583 160 577V389Q160 383 166 383H223Q233 383 233 373V313Q233 303 223 303H166Q160 303 160 297V103Q160 97 166 97H209Z"  />
<glyph unicode="&#x111;" horiz-adv-x="399" d="M350 10Q350 0 340 0H258Q248 0 248 10V49H247Q237 23 216 7T157 -9Q77 -9 52 71Q49 81 47 93T43 123T40 170T39 241Q39 283 40 311T42 358T46 389T52 411Q77 491 157 491Q195 491 216 475T247 433H248V533Q248 539 242 539H169Q159 539 159 549V607Q159 617 169 617H242Q248 617 248 623V670Q248 680 258 680H340Q350 680 350 670V623Q350 617 356 617H376Q386 617 386 607V549Q386 539 376 539H356Q350 539 350 533V10ZM141 241Q141 204 141 183T142 149T143 130T146 119Q157 85 195 85Q232 85 243 119Q244 124 245 130T247 148T248 182T248 241Q248 278 248 299T247 333T245 352T243 363Q232 397 195 397Q157 397 146 363Q144 358 144 352T142 334T141 300T141 241Z"  />
<glyph unicode="&#x112;" horiz-adv-x="381" d="M101 780Q91 780 91 790V850Q91 860 101 860H306Q316 860 316 850V790Q316 780 306 780H101ZM53 670Q53 680 63 680H342Q352 680 352 670V593Q352 583 342 583H166Q160 583 160 577V398Q160 392 166 392H318Q328 392 328 382V305Q328 295 318 295H166Q160 295 160 289V103Q160 97 166 97H342Q352 97 352 87V10Q352 0 342 0H63Q53 0 53 10V670Z"  />
<glyph unicode="&#x113;" horiz-adv-x="380" d="M190 -9Q133 -9 98 16T48 87Q45 96 43 106T40 134T38 176T37 241Q37 280 37 305T39 348T43 375T48 395Q63 441 98 466T191 491Q248 491 284 466T335 395Q338 386 340 375T343 345T345 295T346 216Q346 206 336 206H145Q139 206 139 200Q139 177 139 163T140 140T142 126T144 117Q155 85 191 85Q231 85 244 128Q247 137 256 135L333 120Q342 119 340 108Q330 54 290 23T190 -9ZM191 400Q173 400 162 391T145 368Q142 360 141 346T139 294Q139 288 145 288H238Q244 288 244 294Q244 331 243 345T238 368Q233 382 222 391T191 400ZM89 588Q79 588 79 598V658Q79 668 89 668H294Q304 668 304 658V598Q304 588 294 588H89Z"  />
<glyph unicode="&#x114;" horiz-adv-x="381" d="M203 742Q173 742 151 751T114 777T90 815T79 861Q79 871 89 871H134Q141 871 144 861Q152 840 166 827T203 813Q226 813 240 826T263 861Q266 871 273 871H318Q328 871 328 861Q326 837 318 816T294 778T256 752T203 742ZM53 670Q53 680 63 680H342Q352 680 352 670V593Q352 583 342 583H166Q160 583 160 577V398Q160 392 166 392H318Q328 392 328 382V305Q328 295 318 295H166Q160 295 160 289V103Q160 97 166 97H342Q352 97 352 87V10Q352 0 342 0H63Q53 0 53 10V670Z"  />
<glyph unicode="&#x115;" horiz-adv-x="380" d="M190 -9Q133 -9 98 16T48 87Q45 96 43 106T40 134T38 176T37 241Q37 280 37 305T39 348T43 375T48 395Q63 441 98 466T191 491Q248 491 284 466T335 395Q338 386 340 375T343 345T345 295T346 216Q346 206 336 206H145Q139 206 139 200Q139 177 139 163T140 140T142 126T144 117Q155 85 191 85Q231 85 244 128Q247 137 256 135L333 120Q342 119 340 108Q330 54 290 23T190 -9ZM191 400Q173 400 162 391T145 368Q142 360 141 346T139 294Q139 288 145 288H238Q244 288 244 294Q244 331 243 345T238 368Q233 382 222 391T191 400ZM191 556Q132 556 102 591T67 675Q67 685 77 685H122Q129 685 132 675Q140 653 154 640T191 626Q214 626 228 639T251 675Q254 685 261 685H306Q316 685 316 675Q312 626 282 591T191 556Z"  />
<glyph unicode="&#x116;" horiz-adv-x="381" d="M161 769Q151 769 151 779V865Q151 875 161 875H243Q253 875 253 865V779Q253 769 243 769H161ZM53 670Q53 680 63 680H342Q352 680 352 670V593Q352 583 342 583H166Q160 583 160 577V398Q160 392 166 392H318Q328 392 328 382V305Q328 295 318 295H166Q160 295 160 289V103Q160 97 166 97H342Q352 97 352 87V10Q352 0 342 0H63Q53 0 53 10V670Z"  />
<glyph unicode="&#x117;" horiz-adv-x="380" d="M190 -9Q133 -9 98 16T48 87Q45 96 43 106T40 134T38 176T37 241Q37 280 37 305T39 348T43 375T48 395Q63 441 98 466T191 491Q248 491 284 466T335 395Q338 386 340 375T343 345T345 295T346 216Q346 206 336 206H145Q139 206 139 200Q139 177 139 163T140 140T142 126T144 117Q155 85 191 85Q231 85 244 128Q247 137 256 135L333 120Q342 119 340 108Q330 54 290 23T190 -9ZM191 400Q173 400 162 391T145 368Q142 360 141 346T139 294Q139 288 145 288H238Q244 288 244 294Q244 331 243 345T238 368Q233 382 222 391T191 400ZM151 574Q141 574 141 584V670Q141 680 151 680H233Q243 680 243 670V584Q243 574 233 574H151Z"  />
<glyph unicode="&#x118;" horiz-adv-x="381" d="M264 -190Q223 -190 199 -169T175 -107Q175 -74 191 -48T231 0H63Q53 0 53 10V670Q53 680 63 680H342Q352 680 352 670V593Q352 583 342 583H166Q160 583 160 577V398Q160 392 166 392H318Q328 392 328 382V305Q328 295 318 295H166Q160 295 160 289V103Q160 97 166 97H342Q352 97 352 87V10Q352 0 342 0H327Q298 -20 279 -45T259 -91Q259 -115 278 -115Q288 -115 296 -110Q305 -104 309 -114L329 -160Q332 -168 324 -173Q315 -180 298 -185T264 -190Z"  />
<glyph unicode="&#x119;" horiz-adv-x="380" d="M190 -9Q133 -9 98 16T48 87Q45 96 43 106T40 134T38 176T37 241Q37 280 37 305T39 348T43 375T48 395Q63 441 98 466T191 491Q248 491 284 466T335 395Q338 386 340 375T343 345T345 295T346 216Q346 206 336 206H145Q139 206 139 200Q139 177 139 163T140 140T142 126T144 117Q155 84 191 84Q231 84 244 128Q247 137 256 135L333 120Q342 119 340 108Q336 90 329 74T311 45Q290 11 277 -12T258 -50T249 -74T247 -91Q247 -103 253 -109T267 -115Q277 -115 285 -110Q294 -104 298 -114L318 -160Q321 -168 313 -173Q303 -180 287 -185T253 -190Q212 -190 188 -169T164 -107Q164 -84 171 -61T202 -8Q199 -9 190 -9ZM238 288Q244 288 244 294Q244 331 243 345T238 368Q233 382 222 391T191 400Q173 400 162 391T145 368Q142 360 141 346T139 294Q139 288 145 288H238Z"  />
<glyph unicode="&#x11A;" horiz-adv-x="381" d="M177 747Q167 747 160 757L72 882Q69 886 70 889T76 892H136Q146 892 155 882L202 823H204L252 882Q261 892 271 892H331Q336 892 337 889T335 882L247 757Q240 747 229 747H177ZM53 670Q53 680 63 680H342Q352 680 352 670V593Q352 583 342 583H166Q160 583 160 577V398Q160 392 166 392H318Q328 392 328 382V305Q328 295 318 295H166Q160 295 160 289V103Q160 97 166 97H342Q352 97 352 87V10Q352 0 342 0H63Q53 0 53 10V670Z"  />
<glyph unicode="&#x11B;" horiz-adv-x="380" d="M165 555Q155 555 148 565L60 690Q57 694 58 697T64 700H124Q134 700 143 690L190 630H192L240 690Q249 700 259 700H319Q324 700 325 697T323 690L235 565Q228 555 217 555H165ZM190 -9Q133 -9 98 16T48 87Q45 96 43 106T40 134T38 176T37 241Q37 280 37 305T39 348T43 375T48 395Q63 441 98 466T191 491Q248 491 284 466T335 395Q338 386 340 375T343 345T345 295T346 216Q346 206 336 206H145Q139 206 139 200Q139 177 139 163T140 140T142 126T144 117Q155 85 191 85Q231 85 244 128Q247 137 256 135L333 120Q342 119 340 108Q330 54 290 23T190 -9ZM191 400Q173 400 162 391T145 368Q142 360 141 346T139 294Q139 288 145 288H238Q244 288 244 294Q244 331 243 345T238 368Q233 382 222 391T191 400Z"  />
<glyph unicode="&#x11C;" horiz-adv-x="426" d="M54 97Q50 108 48 121T44 159T42 226T41 340Q41 411 41 453T43 521T47 559T54 583Q71 634 111 661T215 689Q289 689 332 650T384 530Q386 520 376 518L295 504Q286 502 284 512Q276 592 216 592Q194 592 178 582T157 554Q155 547 154 539T151 510T150 450T150 340Q150 270 150 231T151 170T153 141T157 126Q162 109 179 99T217 88Q239 88 256 98T278 126Q280 132 281 139T283 161T284 204T285 279Q285 285 279 285H226Q216 285 216 295V369Q216 379 226 379H378Q388 379 388 369V339Q388 268 388 226T386 159T382 121T375 97Q358 46 318 19T215 -9Q152 -9 112 18T54 97ZM281 750Q271 750 262 760L214 820H212L165 760Q156 750 146 750H86Q81 750 80 753T82 760L170 885Q177 895 187 895H239Q250 895 257 885L345 760Q348 756 347 753T341 750H281Z"  />
<glyph unicode="&#x11D;" horiz-adv-x="400" d="M269 555Q259 555 250 565L202 625H200L153 565Q144 555 134 555H74Q69 555 68 558T70 565L158 690Q165 700 175 700H227Q238 700 245 690L333 565Q336 561 335 558T329 555H269ZM192 -189Q135 -189 98 -162T49 -92Q47 -84 53 -81L129 -54Q138 -51 142 -59Q159 -96 195 -96Q218 -96 233 -81T248 -37V64H247Q238 39 217 23T158 6Q78 6 53 86Q50 96 48 108T44 138T41 182T40 248Q40 287 41 313T43 358T47 388T53 410Q78 491 158 491Q196 491 217 474T247 431H248V472Q248 482 258 482H340Q350 482 350 472V-25Q350 -106 307 -147T192 -189ZM195 98Q232 98 243 133Q244 138 245 143T247 161T248 193T248 248Q248 282 248 302T247 334T245 352T243 363Q232 397 195 397Q158 397 147 363Q145 358 145 352T143 335T142 303T142 248Q142 213 142 193T143 161T144 144T147 133Q158 98 195 98Z"  />
<glyph unicode="&#x11E;" horiz-adv-x="426" d="M213 742Q183 742 161 751T124 777T100 815T89 861Q89 871 99 871H144Q151 871 154 861Q162 840 176 827T213 813Q236 813 250 826T273 861Q276 871 283 871H328Q338 871 338 861Q336 837 328 816T304 778T266 752T213 742ZM54 97Q50 108 48 121T44 159T42 226T41 340Q41 411 41 453T43 521T47 559T54 583Q71 634 111 661T215 689Q289 689 332 650T384 530Q386 520 376 518L295 504Q286 502 284 512Q276 592 216 592Q194 592 178 582T157 554Q155 547 154 539T151 510T150 450T150 340Q150 270 150 231T151 170T153 141T157 126Q162 109 179 99T217 88Q239 88 256 98T278 126Q280 132 281 139T283 161T284 204T285 279Q285 285 279 285H226Q216 285 216 295V369Q216 379 226 379H378Q388 379 388 369V339Q388 268 388 226T386 159T382 121T375 97Q358 46 318 19T215 -9Q152 -9 112 18T54 97Z"  />
<glyph unicode="&#x11F;" horiz-adv-x="400" d="M192 -189Q135 -189 98 -162T49 -92Q47 -84 53 -81L129 -54Q138 -51 142 -59Q159 -96 195 -96Q218 -96 233 -81T248 -37V64H247Q238 39 217 23T158 6Q78 6 53 86Q50 96 48 108T44 138T41 182T40 248Q40 287 41 313T43 358T47 388T53 410Q78 491 158 491Q196 491 217 474T247 431H248V472Q248 482 258 482H340Q350 482 350 472V-25Q350 -106 307 -147T192 -189ZM195 98Q232 98 243 133Q244 138 245 143T247 161T248 193T248 248Q248 282 248 302T247 334T245 352T243 363Q232 397 195 397Q158 397 147 363Q145 358 145 352T143 335T142 303T142 248Q142 213 142 193T143 161T144 144T147 133Q158 98 195 98ZM201 556Q142 556 112 591T77 675Q77 685 87 685H132Q139 685 142 675Q150 653 164 640T201 626Q224 626 238 639T261 675Q264 685 271 685H316Q326 685 326 675Q322 626 292 591T201 556Z"  />
<glyph unicode="&#x120;" horiz-adv-x="426" d="M172 769Q162 769 162 779V865Q162 875 172 875H254Q264 875 264 865V779Q264 769 254 769H172ZM54 97Q50 108 48 121T44 159T42 226T41 340Q41 411 41 453T43 521T47 559T54 583Q71 634 111 661T215 689Q289 689 332 650T384 530Q386 520 376 518L295 504Q286 502 284 512Q276 592 216 592Q194 592 178 582T157 554Q155 547 154 539T151 510T150 450T150 340Q150 270 150 231T151 170T153 141T157 126Q162 109 179 99T217 88Q239 88 256 98T278 126Q280 132 281 139T283 161T284 204T285 279Q285 285 279 285H226Q216 285 216 295V369Q216 379 226 379H378Q388 379 388 369V339Q388 268 388 226T386 159T382 121T375 97Q358 46 318 19T215 -9Q152 -9 112 18T54 97Z"  />
<glyph unicode="&#x121;" horiz-adv-x="400" d="M192 -189Q135 -189 98 -162T49 -92Q47 -84 53 -81L129 -54Q138 -51 142 -59Q159 -96 195 -96Q218 -96 233 -81T248 -37V64H247Q238 39 217 23T158 6Q78 6 53 86Q50 96 48 108T44 138T41 182T40 248Q40 287 41 313T43 358T47 388T53 410Q78 491 158 491Q196 491 217 474T247 431H248V472Q248 482 258 482H340Q350 482 350 472V-25Q350 -106 307 -147T192 -189ZM195 98Q232 98 243 133Q244 138 245 143T247 161T248 193T248 248Q248 282 248 302T247 334T245 352T243 363Q232 397 195 397Q158 397 147 363Q145 358 145 352T143 335T142 303T142 248Q142 213 142 193T143 161T144 144T147 133Q158 98 195 98ZM161 574Q151 574 151 584V670Q151 680 161 680H243Q253 680 253 670V584Q253 574 243 574H161Z"  />
<glyph unicode="&#x122;" horiz-adv-x="426" d="M176 -221Q168 -221 168 -211V-64Q168 -54 178 -54H248Q258 -54 258 -64V-119Q258 -132 250 -141L189 -214Q183 -221 176 -221ZM54 97Q50 108 48 121T44 159T42 226T41 340Q41 411 41 453T43 521T47 559T54 583Q71 634 111 661T215 689Q289 689 332 650T384 530Q386 520 376 518L295 504Q286 502 284 512Q276 592 216 592Q194 592 178 582T157 554Q155 547 154 539T151 510T150 450T150 340Q150 270 150 231T151 170T153 141T157 126Q162 109 179 99T217 88Q239 88 256 98T278 126Q280 132 281 139T283 161T284 204T285 279Q285 285 279 285H226Q216 285 216 295V369Q216 379 226 379H378Q388 379 388 369V339Q388 268 388 226T386 159T382 121T375 97Q358 46 318 19T215 -9Q152 -9 112 18T54 97Z"  />
<glyph unicode="&#x123;" horiz-adv-x="400" d="M167 572Q157 572 157 582V637Q157 645 158 649T164 659L225 732Q231 739 238 739Q247 739 247 729V582Q247 572 237 572H167ZM192 -189Q135 -189 98 -162T49 -92Q47 -84 53 -81L129 -54Q138 -51 142 -59Q159 -96 195 -96Q218 -96 233 -81T248 -37V64H247Q238 39 217 23T158 6Q78 6 53 86Q50 96 48 108T44 138T41 182T40 248Q40 287 41 313T43 358T47 388T53 410Q78 491 158 491Q196 491 217 474T247 431H248V472Q248 482 258 482H340Q350 482 350 472V-25Q350 -106 307 -147T192 -189ZM195 98Q232 98 243 133Q244 138 245 143T247 161T248 193T248 248Q248 282 248 302T247 334T245 352T243 363Q232 397 195 397Q158 397 147 363Q145 358 145 352T143 335T142 303T142 248Q142 213 142 193T143 161T144 144T147 133Q158 98 195 98Z"  />
<glyph unicode="&#x124;" horiz-adv-x="447" d="M53 670Q53 680 63 680H150Q160 680 160 670V402Q160 396 166 396H281Q287 396 287 402V670Q287 680 297 680H384Q394 680 394 670V10Q394 0 384 0H297Q287 0 287 10V293Q287 299 281 299H166Q160 299 160 293V10Q160 0 150 0H63Q53 0 53 10V670ZM290 750Q280 750 271 760L223 820H221L174 760Q165 750 155 750H95Q90 750 89 753T91 760L179 885Q186 895 196 895H248Q259 895 266 885L354 760Q357 756 356 753T350 750H290Z"  />
<glyph unicode="&#x125;" horiz-adv-x="405" d="M266 0Q256 0 256 10V327Q256 397 204 397Q153 397 153 327V10Q153 0 143 0H61Q51 0 51 10V670Q51 680 61 680H143Q153 680 153 670V434H154Q167 459 189 475T246 491Q300 491 329 456T358 341V10Q358 0 348 0H266ZM275 750Q265 750 256 760L208 820H206L159 760Q150 750 140 750H80Q75 750 74 753T76 760L164 885Q171 895 181 895H233Q244 895 251 885L339 760Q342 756 341 753T335 750H275Z"  />
<glyph unicode="&#x126;" horiz-adv-x="447" d="M297 0Q287 0 287 10V293Q287 299 281 299H166Q160 299 160 293V10Q160 0 150 0H63Q53 0 53 10V485Q53 491 47 491H28Q18 491 18 501V561Q18 571 28 571H47Q53 571 53 577V670Q53 680 63 680H150Q160 680 160 670V577Q160 571 166 571H281Q287 571 287 577V670Q287 680 297 680H384Q394 680 394 670V577Q394 571 400 571H419Q429 571 429 561V501Q429 491 419 491H400Q394 491 394 485V10Q394 0 384 0H297ZM281 396Q287 396 287 402V485Q287 491 281 491H166Q160 491 160 485V402Q160 396 166 396H281Z"  />
<glyph unicode="&#x127;" horiz-adv-x="405" d="M266 0Q256 0 256 10V327Q256 397 204 397Q153 397 153 327V10Q153 0 143 0H61Q51 0 51 10V533Q51 539 45 539H25Q15 539 15 549V607Q15 617 25 617H45Q51 617 51 623V670Q51 680 61 680H143Q153 680 153 670V623Q153 617 159 617H232Q242 617 242 607V549Q242 539 232 539H159Q153 539 153 533V434H154Q167 459 189 475T246 491Q300 491 329 456T358 341V10Q358 0 348 0H266Z"  />
<glyph unicode="&#x128;" horiz-adv-x="213" d="M53 670Q53 680 63 680H150Q160 680 160 670V10Q160 0 150 0H63Q53 0 53 10V670ZM152 763Q135 763 124 768T100 781Q88 789 81 793T62 797Q46 797 36 790T14 771Q10 767 6 768T2 775V836Q2 845 12 855Q22 865 34 872T63 879Q80 879 91 874T114 861Q127 853 134 849T153 845Q169 845 179 852T201 871Q205 875 209 874T213 867V806Q213 801 211 797T203 787Q193 777 181 770T152 763Z"  />
<glyph unicode="&#x129;" horiz-adv-x="204" d="M61 0Q51 0 51 10V472Q51 482 61 482H143Q153 482 153 472V10Q153 0 143 0H61ZM148 567Q131 567 120 572T96 585Q84 593 77 597T58 601Q42 601 32 594T10 575Q6 571 2 572T-2 579V640Q-2 649 8 659Q18 669 30 676T59 683Q76 683 87 678T110 665Q123 657 130 653T149 649Q165 649 175 656T197 675Q201 679 205 678T209 671V610Q209 605 207 601T199 591Q189 581 177 574T148 567Z"  />
<glyph unicode="&#x12A;" horiz-adv-x="213" d="M53 670Q53 680 63 680H150Q160 680 160 670V10Q160 0 150 0H63Q53 0 53 10V670ZM5 780Q-5 780 -5 790V850Q-5 860 5 860H210Q220 860 220 850V790Q220 780 210 780H5Z"  />
<glyph unicode="&#x12B;" horiz-adv-x="204" d="M61 0Q51 0 51 10V472Q51 482 61 482H143Q153 482 153 472V10Q153 0 143 0H61ZM1 588Q-9 588 -9 598V658Q-9 668 1 668H206Q216 668 216 658V598Q216 588 206 588H1Z"  />
<glyph unicode="&#x12C;" horiz-adv-x="213" d="M53 670Q53 680 63 680H150Q160 680 160 670V10Q160 0 150 0H63Q53 0 53 10V670ZM107 742Q77 742 55 751T18 777T-6 815T-17 861Q-17 871 -7 871H38Q45 871 48 861Q56 840 70 827T107 813Q130 813 144 826T167 861Q170 871 177 871H222Q232 871 232 861Q230 837 222 816T198 778T160 752T107 742Z"  />
<glyph unicode="&#x12D;" horiz-adv-x="204" d="M61 0Q51 0 51 10V472Q51 482 61 482H143Q153 482 153 472V10Q153 0 143 0H61ZM103 556Q44 556 14 591T-21 675Q-21 685 -11 685H34Q41 685 44 675Q52 653 66 640T103 626Q126 626 140 639T163 675Q166 685 173 685H218Q228 685 228 675Q224 626 194 591T103 556Z"  />
<glyph unicode="&#x12E;" horiz-adv-x="213" d="M100 -190Q59 -190 35 -169T10 -107Q10 -77 24 -52T66 0H63Q53 0 53 10V670Q53 680 63 680H150Q160 680 160 670V10Q160 5 157 2Q124 -29 109 -51T94 -91Q94 -115 113 -115Q119 -115 123 -114T132 -110Q141 -104 145 -114L165 -160Q168 -168 160 -173Q150 -180 134 -185T100 -190Z"  />
<glyph unicode="&#x12F;" horiz-adv-x="204" d="M61 574Q51 574 51 584V670Q51 680 61 680H143Q153 680 153 670V584Q153 574 143 574H61ZM93 -190Q52 -190 28 -169T4 -107Q4 -78 17 -52T60 0Q51 0 51 10V472Q51 482 61 482H143Q153 482 153 472V10Q153 5 149 1Q117 -30 102 -52T87 -91Q87 -115 107 -115Q117 -115 125 -110Q134 -104 138 -114L158 -160Q161 -168 153 -173Q143 -180 127 -185T93 -190Z"  />
<glyph unicode="&#x130;" horiz-adv-x="213" d="M53 670Q53 680 63 680H150Q160 680 160 670V10Q160 0 150 0H63Q53 0 53 10V670ZM67 769Q57 769 57 779V865Q57 875 67 875H149Q159 875 159 865V779Q159 769 149 769H67Z"  />
<glyph unicode="&#x131;" horiz-adv-x="204" d="M61 0Q51 0 51 10V472Q51 482 61 482H143Q153 482 153 472V10Q153 0 143 0H61Z"  />
<glyph unicode="&#x132;" horiz-adv-x="567" d="M53 670Q53 680 63 680H150Q160 680 160 670V10Q160 0 150 0H63Q53 0 53 10V670ZM229 36Q223 44 230 50L289 104Q296 110 304 103Q321 88 344 88Q375 88 392 106T409 167V670Q409 680 419 680H506Q516 680 516 670V176Q516 127 504 92T468 35T412 2T341 -9Q306 -9 276 2T229 36Z"  />
<glyph unicode="&#x133;" horiz-adv-x="408" d="M61 574Q51 574 51 584V670Q51 680 61 680H143Q153 680 153 670V584Q153 574 143 574H61ZM61 0Q51 0 51 10V472Q51 482 61 482H143Q153 482 153 472V10Q153 0 143 0H61ZM265 574Q255 574 255 584V670Q255 680 265 680H347Q357 680 357 670V584Q357 574 347 574H265ZM200 -180Q190 -180 190 -170V-98Q190 -88 200 -88L214 -87Q236 -85 245 -74T255 -31V472Q255 482 265 482H347Q357 482 357 472V-36Q357 -109 324 -144T215 -180H200Z"  />
<glyph unicode="&#x134;" horiz-adv-x="354" d="M16 36Q10 44 17 50L76 104Q83 110 91 103Q108 88 131 88Q162 88 179 106T196 167V670Q196 680 206 680H293Q303 680 303 670V176Q303 127 291 92T255 35T199 2T128 -9Q93 -9 63 2T16 36ZM314 750Q304 750 295 760L247 820H245L198 760Q189 750 179 750H119Q114 750 113 753T115 760L203 885Q210 895 220 895H272Q283 895 290 885L378 760Q381 756 380 753T374 750H314Z"  />
<glyph unicode="&#x135;" horiz-adv-x="204" d="M-4 -180Q-14 -180 -14 -170V-96Q-14 -86 -4 -86L10 -85Q32 -83 41 -72T51 -30V472Q51 482 61 482H143Q153 482 153 472V-36Q153 -109 120 -144T11 -180H-4ZM171 555Q161 555 152 565L104 625H102L55 565Q46 555 36 555H-24Q-29 555 -30 558T-28 565L60 690Q67 700 77 700H129Q140 700 147 690L235 565Q238 561 237 558T231 555H171Z"  />
<glyph unicode="&#x136;" horiz-adv-x="441" d="M194 -221Q186 -221 186 -211V-64Q186 -54 196 -54H266Q276 -54 276 -64V-119Q276 -132 268 -141L207 -214Q201 -221 194 -221ZM53 670Q53 680 63 680H150Q160 680 160 670V389L297 672Q301 680 310 680H401Q405 680 406 677T406 670L270 405L427 10Q431 0 422 0H329Q321 0 318 7L205 294L160 201V10Q160 0 150 0H63Q53 0 53 10V670Z"  />
<glyph unicode="&#x137;" horiz-adv-x="396" d="M176 -221Q168 -221 168 -211V-64Q168 -54 178 -54H248Q258 -54 258 -64V-119Q258 -132 250 -141L189 -214Q183 -221 176 -221ZM289 0Q280 0 276 10L193 207L153 135V10Q153 0 143 0H61Q51 0 51 10V670Q51 680 61 680H143Q153 680 153 670V287L256 472Q262 482 270 482H354Q365 482 360 472L254 296L382 10Q387 0 376 0H289Z"  />
<glyph unicode="&#x138;" horiz-adv-x="396" d="M289 0Q280 0 276 10L193 207L153 135V10Q153 0 143 0H61Q51 0 51 10V472Q51 482 61 482H143Q153 482 153 472V287L256 472Q262 482 270 482H354Q365 482 360 472L254 296L382 10Q387 0 376 0H289Z"  />
<glyph unicode="&#x139;" horiz-adv-x="372" d="M85 761Q80 761 78 764T79 771L156 878Q160 883 163 885T172 888H253Q258 888 259 885T258 878L160 771Q150 761 140 761H85ZM53 670Q53 680 63 680H150Q160 680 160 670V103Q160 97 166 97H342Q352 97 352 87V10Q352 0 342 0H63Q53 0 53 10V670Z"  />
<glyph unicode="&#x13A;" horiz-adv-x="233" d="M75 761Q70 761 68 764T69 771L146 878Q150 883 153 885T162 888H243Q248 888 249 885T248 878L150 771Q140 761 130 761H75ZM194 -6Q154 -5 127 3T83 29T59 74T51 140V670Q51 680 61 680H143Q153 680 153 670V140Q153 116 162 104T192 88L197 87Q207 85 207 76V4Q207 -6 197 -6H194Z"  />
<glyph unicode="&#x13B;" horiz-adv-x="372" d="M152 -221Q144 -221 144 -211V-64Q144 -54 154 -54H224Q234 -54 234 -64V-119Q234 -132 226 -141L165 -214Q159 -221 152 -221ZM53 670Q53 680 63 680H150Q160 680 160 670V103Q160 97 166 97H342Q352 97 352 87V10Q352 0 342 0H63Q53 0 53 10V670Z"  />
<glyph unicode="&#x13C;" horiz-adv-x="233" d="M99 -221Q91 -221 91 -211V-64Q91 -54 101 -54H171Q181 -54 181 -64V-119Q181 -132 173 -141L112 -214Q106 -221 99 -221ZM194 -6Q154 -5 127 3T83 29T59 74T51 140V670Q51 680 61 680H143Q153 680 153 670V140Q153 116 162 104T192 88L197 87Q207 85 207 76V4Q207 -6 197 -6H194Z"  />
<glyph unicode="&#x13D;" horiz-adv-x="372" d="M208 511Q199 511 199 520V670Q199 680 209 680H278Q288 680 288 670V613Q288 605 287 601T281 591L221 518Q215 511 208 511ZM53 670Q53 680 63 680H150Q160 680 160 670V103Q160 97 166 97H342Q352 97 352 87V10Q352 0 342 0H63Q53 0 53 10V670Z"  />
<glyph unicode="&#x13E;" horiz-adv-x="233" d="M205 511Q196 511 196 520V670Q196 680 206 680H275Q285 680 285 670V613Q285 605 284 601T278 591L218 518Q212 511 205 511ZM194 -6Q154 -5 127 3T83 29T59 74T51 140V670Q51 680 61 680H143Q153 680 153 670V140Q153 116 162 104T192 88L197 87Q207 85 207 76V4Q207 -6 197 -6H194Z"  />
<glyph unicode="&#x13F;" horiz-adv-x="372" d="M53 670Q53 680 63 680H150Q160 680 160 670V103Q160 97 166 97H342Q352 97 352 87V10Q352 0 342 0H63Q53 0 53 10V670ZM250 246Q240 246 240 256V355Q240 365 250 365H335Q345 365 345 355V256Q345 246 335 246H250Z"  />
<glyph unicode="&#x140;" horiz-adv-x="286" d="M194 -6Q154 -5 127 3T83 29T59 74T51 140V670Q51 680 61 680H143Q153 680 153 670V140Q153 116 162 104T192 88L197 87Q207 85 207 76V4Q207 -6 197 -6H194ZM202 255Q192 255 192 265V364Q192 374 202 374H287Q297 374 297 364V265Q297 255 287 255H202Z"  />
<glyph unicode="&#x141;" horiz-adv-x="372" d="M160 326V103Q160 97 166 97H342Q352 97 352 87V10Q352 0 342 0H63Q53 0 53 10V256L17 232Q13 230 10 231T7 237V315Q7 324 17 331L53 356V670Q53 680 63 680H150Q160 680 160 670V425L246 485Q250 487 253 486T256 480V401Q256 392 246 385L160 326Z"  />
<glyph unicode="&#x142;" horiz-adv-x="233" d="M153 353V140Q153 116 162 104T192 88L197 87Q207 85 207 76V4Q207 -6 197 -6H194Q154 -5 127 3T83 29T59 74T51 140V286L24 268Q20 266 17 267T14 273V348Q14 357 24 364L51 382V670Q51 680 61 680H143Q153 680 153 670V448L197 479Q201 481 204 480T207 474V400Q207 391 197 384L153 353Z"  />
<glyph unicode="&#x143;" horiz-adv-x="461" d="M173 761Q168 761 166 764T167 771L244 878Q248 883 251 885T260 888H341Q346 888 347 885T346 878L248 771Q238 761 228 761H173ZM53 670Q53 680 63 680H169Q180 680 183 670L309 200H314V670Q314 680 324 680H398Q408 680 408 670V10Q408 0 398 0H299Q288 0 285 10L153 480H147V10Q147 0 137 0H63Q53 0 53 10V670Z"  />
<glyph unicode="&#x144;" horiz-adv-x="405" d="M152 555Q141 555 146 565L215 690Q221 700 231 700H312Q317 700 318 697T317 690L227 565Q219 555 209 555H152ZM266 0Q256 0 256 10V327Q256 397 204 397Q153 397 153 327V10Q153 0 143 0H61Q51 0 51 10V472Q51 482 61 482H143Q153 482 153 472V434H154Q167 459 189 475T246 491Q300 491 329 456T358 341V10Q358 0 348 0H266Z"  />
<glyph unicode="&#x145;" horiz-adv-x="461" d="M204 -221Q196 -221 196 -211V-64Q196 -54 206 -54H276Q286 -54 286 -64V-119Q286 -132 278 -141L217 -214Q211 -221 204 -221ZM53 670Q53 680 63 680H169Q180 680 183 670L309 200H314V670Q314 680 324 680H398Q408 680 408 670V10Q408 0 398 0H299Q288 0 285 10L153 480H147V10Q147 0 137 0H63Q53 0 53 10V670Z"  />
<glyph unicode="&#x146;" horiz-adv-x="405" d="M167 -221Q159 -221 159 -211V-64Q159 -54 169 -54H239Q249 -54 249 -64V-119Q249 -132 241 -141L180 -214Q174 -221 167 -221ZM266 0Q256 0 256 10V327Q256 397 204 397Q153 397 153 327V10Q153 0 143 0H61Q51 0 51 10V472Q51 482 61 482H143Q153 482 153 472V434H154Q167 459 189 475T246 491Q300 491 329 456T358 341V10Q358 0 348 0H266Z"  />
<glyph unicode="&#x147;" horiz-adv-x="461" d="M204 747Q194 747 187 757L99 882Q96 886 97 889T103 892H163Q173 892 182 882L229 823H231L279 882Q288 892 298 892H358Q363 892 364 889T362 882L274 757Q267 747 256 747H204ZM53 670Q53 680 63 680H169Q180 680 183 670L309 200H314V670Q314 680 324 680H398Q408 680 408 670V10Q408 0 398 0H299Q288 0 285 10L153 480H147V10Q147 0 137 0H63Q53 0 53 10V670Z"  />
<glyph unicode="&#x148;" horiz-adv-x="405" d="M177 555Q167 555 160 565L72 690Q69 694 70 697T76 700H136Q146 700 155 690L202 630H204L252 690Q261 700 271 700H331Q336 700 337 697T335 690L247 565Q240 555 229 555H177ZM266 0Q256 0 256 10V327Q256 397 204 397Q153 397 153 327V10Q153 0 143 0H61Q51 0 51 10V472Q51 482 61 482H143Q153 482 153 472V434H154Q167 459 189 475T246 491Q300 491 329 456T358 341V10Q358 0 348 0H266Z"  />
<glyph unicode="&#x149;" horiz-adv-x="405" d="M-6 511Q-15 511 -15 520V670Q-15 680 -5 680H64Q74 680 74 670V613Q74 605 73 601T67 591L7 518Q1 511 -6 511ZM266 0Q256 0 256 10V327Q256 397 204 397Q153 397 153 327V10Q153 0 143 0H61Q51 0 51 10V472Q51 482 61 482H143Q153 482 153 472V434H154Q167 459 189 475T246 491Q300 491 329 456T358 341V10Q358 0 348 0H266Z"  />
<glyph unicode="&#x14A;" horiz-adv-x="461" d="M239 -180Q229 -180 229 -170V-93Q229 -84 239 -83L249 -82Q302 -77 302 -24V-18L153 480H147V10Q147 0 137 0H63Q53 0 53 10V670Q53 680 63 680H169Q180 680 183 670L309 209H314V670Q314 680 324 680H398Q408 680 408 670V-14Q408 -102 370 -141T250 -180H239Z"  />
<glyph unicode="&#x14B;" horiz-adv-x="405" d="M205 -180Q195 -180 195 -170V-98Q195 -88 205 -88L215 -87Q237 -85 246 -74T256 -31V327Q256 397 204 397Q153 397 153 327V10Q153 0 143 0H61Q51 0 51 10V472Q51 482 61 482H143Q153 482 153 472V434H154Q167 459 189 475T246 491Q300 491 329 456T358 341V-36Q358 -109 325 -144T216 -180H205Z"  />
<glyph unicode="&#x14C;" horiz-adv-x="429" d="M112 780Q102 780 102 790V850Q102 860 112 860H317Q327 860 327 850V790Q327 780 317 780H112ZM215 -9Q152 -9 112 18T54 97Q50 108 48 121T44 159T42 226T41 340Q41 411 41 453T43 521T47 559T54 583Q71 634 111 661T215 689Q278 689 318 662T375 583Q379 572 381 559T385 521T387 454T388 340Q388 269 388 227T386 159T382 121T375 97Q358 46 318 19T215 -9ZM215 88Q236 88 251 98T272 126Q274 133 275 141T277 170T278 230T279 340Q279 410 279 449T278 510T276 539T272 554Q267 571 252 581T215 592Q193 592 178 582T157 554Q155 547 154 539T151 510T150 450T150 340Q150 270 150 231T151 170T153 141T157 126Q162 109 177 99T215 88Z"  />
<glyph unicode="&#x14D;" horiz-adv-x="385" d="M91 588Q81 588 81 598V658Q81 668 91 668H296Q306 668 306 658V598Q306 588 296 588H91ZM348 241Q348 203 348 179T346 138T342 110T337 90Q322 43 285 17T192 -9Q137 -9 100 17T48 90Q45 99 43 110T40 137T38 178T37 241Q37 278 37 303T39 344T43 372T48 392Q63 439 100 465T192 491Q248 491 285 465T337 392Q340 383 342 372T345 345T347 303T348 241ZM246 241Q246 278 246 299T245 333T243 352T241 363Q230 397 192 397Q155 397 144 363Q142 358 142 352T140 334T139 300T139 241Q139 204 139 183T140 149T141 130T144 119Q155 85 192 85Q230 85 241 119Q242 124 243 130T245 148T246 182T246 241Z"  />
<glyph unicode="&#x14E;" horiz-adv-x="429" d="M214 742Q184 742 162 751T125 777T101 815T90 861Q90 871 100 871H145Q152 871 155 861Q163 840 177 827T214 813Q237 813 251 826T274 861Q277 871 284 871H329Q339 871 339 861Q337 837 329 816T305 778T267 752T214 742ZM215 -9Q152 -9 112 18T54 97Q50 108 48 121T44 159T42 226T41 340Q41 411 41 453T43 521T47 559T54 583Q71 634 111 661T215 689Q278 689 318 662T375 583Q379 572 381 559T385 521T387 454T388 340Q388 269 388 227T386 159T382 121T375 97Q358 46 318 19T215 -9ZM215 88Q236 88 251 98T272 126Q274 133 275 141T277 170T278 230T279 340Q279 410 279 449T278 510T276 539T272 554Q267 571 252 581T215 592Q193 592 178 582T157 554Q155 547 154 539T151 510T150 450T150 340Q150 270 150 231T151 170T153 141T157 126Q162 109 177 99T215 88Z"  />
<glyph unicode="&#x14F;" horiz-adv-x="385" d="M348 241Q348 203 348 179T346 138T342 110T337 90Q322 43 285 17T192 -9Q137 -9 100 17T48 90Q45 99 43 110T40 137T38 178T37 241Q37 278 37 303T39 344T43 372T48 392Q63 439 100 465T192 491Q248 491 285 465T337 392Q340 383 342 372T345 345T347 303T348 241ZM246 241Q246 278 246 299T245 333T243 352T241 363Q230 397 192 397Q155 397 144 363Q142 358 142 352T140 334T139 300T139 241Q139 204 139 183T140 149T141 130T144 119Q155 85 192 85Q230 85 241 119Q242 124 243 130T245 148T246 182T246 241ZM193 556Q134 556 104 591T69 675Q69 685 79 685H124Q131 685 134 675Q142 653 156 640T193 626Q216 626 230 639T253 675Q256 685 263 685H308Q318 685 318 675Q314 626 284 591T193 556Z"  />
<glyph unicode="&#x150;" horiz-adv-x="429" d="M215 -9Q152 -9 112 18T54 97Q50 108 48 121T44 159T42 226T41 340Q41 411 41 453T43 521T47 559T54 583Q71 634 111 661T215 689Q278 689 318 662T375 583Q379 572 381 559T385 521T387 454T388 340Q388 269 388 227T386 159T382 121T375 97Q358 46 318 19T215 -9ZM215 88Q236 88 251 98T272 126Q274 133 275 141T277 170T278 230T279 340Q279 410 279 449T278 510T276 539T272 554Q267 571 252 581T215 592Q193 592 178 582T157 554Q155 547 154 539T151 510T150 450T150 340Q150 270 150 231T151 170T153 141T157 126Q162 109 177 99T215 88ZM254 761Q249 761 248 763T249 771L318 878Q325 888 335 888H403Q408 888 409 885T407 878L323 771Q314 761 304 761H254ZM121 761Q116 761 115 763T116 771L186 878Q193 888 203 888H270Q275 888 276 885T274 878L190 771Q181 761 171 761H121Z"  />
<glyph unicode="&#x151;" horiz-adv-x="385" d="M229 555Q218 555 223 565L284 690Q288 700 300 700H367Q372 700 373 697T372 690L297 565Q291 555 280 555H229ZM97 555Q86 555 91 565L151 690Q155 700 167 700H234Q239 700 240 697T239 690L165 565Q159 555 147 555H97ZM348 241Q348 203 348 179T346 138T342 110T337 90Q322 43 285 17T192 -9Q137 -9 100 17T48 90Q45 99 43 110T40 137T38 178T37 241Q37 278 37 303T39 344T43 372T48 392Q63 439 100 465T192 491Q248 491 285 465T337 392Q340 383 342 372T345 345T347 303T348 241ZM246 241Q246 278 246 299T245 333T243 352T241 363Q230 397 192 397Q155 397 144 363Q142 358 142 352T140 334T139 300T139 241Q139 204 139 183T140 149T141 130T144 119Q155 85 192 85Q230 85 241 119Q242 124 243 130T245 148T246 182T246 241Z"  />
<glyph unicode="&#x152;" horiz-adv-x="608" d="M289 0Q279 0 279 10V21H278Q267 8 247 0T197 -9Q144 -9 108 16T54 93Q50 104 48 117T44 157T42 226T41 340Q41 411 41 454T43 523T47 562T54 587Q71 638 107 663T197 689Q226 689 246 681T278 659H279V670Q279 680 289 680H569Q579 680 579 670V593Q579 583 569 583H392Q386 583 386 577V398Q386 392 392 392H545Q555 392 555 382V305Q555 295 545 295H392Q386 295 386 289V103Q386 97 392 97H569Q579 97 579 87V10Q579 0 569 0H289ZM215 88Q236 88 251 98T272 126Q274 133 275 141T277 170T278 230T279 340Q279 410 279 449T278 510T276 539T272 554Q267 571 252 581T215 592Q193 592 178 582T157 554Q155 547 154 539T151 510T150 450T150 340Q150 270 150 231T151 170T153 141T157 126Q162 109 177 99T215 88Z"  />
<glyph unicode="&#x153;" horiz-adv-x="589" d="M399 -9Q367 -9 340 1T297 28H295Q258 -9 192 -9Q137 -9 100 17T48 90Q45 99 43 110T40 137T38 178T37 241Q37 278 37 303T39 344T43 372T48 392Q63 439 100 465T192 491Q257 491 295 453H296Q316 472 341 481T400 491Q457 491 493 465T544 393Q547 384 549 373T552 343T554 294T555 216Q555 206 545 206H354Q348 206 348 200Q348 177 348 163T349 140T351 126T353 117Q364 84 400 84Q440 84 453 128Q456 137 465 135L542 120Q551 119 549 108Q538 54 499 23T399 -9ZM447 288Q453 288 453 294Q453 331 451 345T446 368Q441 382 430 391T400 400Q382 400 371 391T354 368Q351 360 350 346T348 294Q348 288 354 288H447ZM246 241Q246 278 246 299T245 333T243 352T241 363Q230 397 192 397Q155 397 144 363Q142 358 142 352T140 334T139 300T139 241Q139 204 139 183T140 149T141 130T144 119Q155 85 192 85Q230 85 241 119Q242 124 243 130T245 148T246 182T246 241Z"  />
<glyph unicode="&#x154;" horiz-adv-x="436" d="M311 0Q303 0 300 7L217 278H200H166Q160 278 160 272V10Q160 0 150 0H63Q53 0 53 10V670Q53 680 63 680H200Q245 680 281 670T342 635T380 573T394 478Q394 411 373 369T313 304L409 10Q413 0 404 0H311ZM201 373Q246 373 266 395T287 478Q287 538 267 560T201 583H166Q160 583 160 577V379Q160 373 166 373H201ZM151 761Q146 761 144 764T145 771L222 878Q226 883 229 885T238 888H319Q324 888 325 885T324 878L226 771Q216 761 206 761H151Z"  />
<glyph unicode="&#x155;" horiz-adv-x="295" d="M119 555Q108 555 113 565L182 690Q188 700 198 700H279Q284 700 285 697T284 690L194 565Q186 555 176 555H119ZM61 0Q51 0 51 10V472Q51 482 61 482H143Q153 482 153 472V425H154Q168 454 193 472T260 491Q264 491 269 491T278 490Q288 487 285 479L262 394Q260 388 252 388H236Q198 388 176 365T153 294V10Q153 0 143 0H61Z"  />
<glyph unicode="&#x156;" horiz-adv-x="436" d="M186 -221Q178 -221 178 -211V-64Q178 -54 188 -54H258Q268 -54 268 -64V-119Q268 -132 260 -141L199 -214Q193 -221 186 -221ZM311 0Q303 0 300 7L217 278H200H166Q160 278 160 272V10Q160 0 150 0H63Q53 0 53 10V670Q53 680 63 680H200Q245 680 281 670T342 635T380 573T394 478Q394 411 373 369T313 304L409 10Q413 0 404 0H311ZM201 373Q246 373 266 395T287 478Q287 538 267 560T201 583H166Q160 583 160 577V379Q160 373 166 373H201Z"  />
<glyph unicode="&#x157;" horiz-adv-x="295" d="M66 -221Q58 -221 58 -211V-64Q58 -54 68 -54H138Q148 -54 148 -64V-119Q148 -132 140 -141L79 -214Q73 -221 66 -221ZM61 0Q51 0 51 10V472Q51 482 61 482H143Q153 482 153 472V425H154Q168 454 193 472T260 491Q264 491 269 491T278 490Q288 487 285 479L262 394Q260 388 252 388H236Q198 388 176 365T153 294V10Q153 0 143 0H61Z"  />
<glyph unicode="&#x158;" horiz-adv-x="436" d="M166 747Q156 747 149 757L61 882Q58 886 59 889T65 892H125Q135 892 144 882L191 823H193L241 882Q250 892 260 892H320Q325 892 326 889T324 882L236 757Q229 747 218 747H166ZM311 0Q303 0 300 7L217 278H200H166Q160 278 160 272V10Q160 0 150 0H63Q53 0 53 10V670Q53 680 63 680H200Q245 680 281 670T342 635T380 573T394 478Q394 411 373 369T313 304L409 10Q413 0 404 0H311ZM201 373Q246 373 266 395T287 478Q287 538 267 560T201 583H166Q160 583 160 577V379Q160 373 166 373H201Z"  />
<glyph unicode="&#x159;" horiz-adv-x="295" d="M132 555Q122 555 115 565L27 690Q24 694 25 697T31 700H91Q101 700 110 690L157 630H159L207 690Q216 700 226 700H286Q291 700 292 697T290 690L202 565Q195 555 184 555H132ZM61 0Q51 0 51 10V472Q51 482 61 482H143Q153 482 153 472V425H154Q168 454 193 472T260 491Q264 491 269 491T278 490Q288 487 285 479L262 394Q260 388 252 388H236Q198 388 176 365T153 294V10Q153 0 143 0H61Z"  />
<glyph unicode="&#x15A;" horiz-adv-x="404" d="M375 195Q375 145 366 107T337 43T283 4T201 -9Q35 -9 31 169Q31 179 39 180L123 194Q134 196 134 185Q136 131 152 108T204 85Q236 85 252 105T268 182Q268 209 265 228T255 260T234 283T201 300L160 316Q125 330 102 347T64 386T44 438T38 508Q38 596 78 642T203 689Q288 689 326 646T370 523Q370 515 361 512L281 500Q270 498 270 508Q268 550 254 572T206 595Q144 595 144 513Q144 489 146 473T156 446T177 426T210 410L251 394Q284 381 307 365T346 325T368 270T375 195ZM166 761Q161 761 159 764T160 771L237 878Q241 883 244 885T253 888H334Q339 888 340 885T339 878L241 771Q231 761 221 761H166Z"  />
<glyph unicode="&#x15B;" horiz-adv-x="350" d="M134 555Q123 555 128 565L197 690Q203 700 213 700H294Q299 700 300 697T299 690L209 565Q201 555 191 555H134ZM176 -9Q110 -9 71 24T26 114Q24 124 34 126L106 140Q116 142 118 132Q122 103 138 90T177 76Q200 76 214 90T229 131Q229 154 218 168T177 194L138 209Q90 227 62 261T34 350Q34 380 44 406T73 450T118 480T177 491Q209 491 233 482T275 458T302 423T316 381Q318 370 309 368L241 355Q232 354 229 363Q224 382 212 394T177 407Q154 407 142 393T130 357Q130 340 141 326T182 300L221 285Q278 263 301 228T325 138Q325 106 315 80T286 33T240 2T176 -9Z"  />
<glyph unicode="&#x15C;" horiz-adv-x="404" d="M375 195Q375 145 366 107T337 43T283 4T201 -9Q35 -9 31 169Q31 179 39 180L123 194Q134 196 134 185Q136 131 152 108T204 85Q236 85 252 105T268 182Q268 209 265 228T255 260T234 283T201 300L160 316Q125 330 102 347T64 386T44 438T38 508Q38 596 78 642T203 689Q288 689 326 646T370 523Q370 515 361 512L281 500Q270 498 270 508Q268 550 254 572T206 595Q144 595 144 513Q144 489 146 473T156 446T177 426T210 410L251 394Q284 381 307 365T346 325T368 270T375 195ZM271 750Q261 750 252 760L204 820H202L155 760Q146 750 136 750H76Q71 750 70 753T72 760L160 885Q167 895 177 895H229Q240 895 247 885L335 760Q338 756 337 753T331 750H271Z"  />
<glyph unicode="&#x15D;" horiz-adv-x="350" d="M245 555Q235 555 226 565L178 625H176L129 565Q120 555 110 555H50Q45 555 44 558T46 565L134 690Q141 700 151 700H203Q214 700 221 690L309 565Q312 561 311 558T305 555H245ZM176 -9Q110 -9 71 24T26 114Q24 124 34 126L106 140Q116 142 118 132Q122 103 138 90T177 76Q200 76 214 90T229 131Q229 154 218 168T177 194L138 209Q90 227 62 261T34 350Q34 380 44 406T73 450T118 480T177 491Q209 491 233 482T275 458T302 423T316 381Q318 370 309 368L241 355Q232 354 229 363Q224 382 212 394T177 407Q154 407 142 393T130 357Q130 340 141 326T182 300L221 285Q278 263 301 228T325 138Q325 106 315 80T286 33T240 2T176 -9Z"  />
<glyph unicode="&#x15E;" horiz-adv-x="404" d="M163 -6Q34 12 31 169Q31 179 39 180L123 194Q134 196 134 185Q136 131 152 108T204 85Q236 85 252 105T268 182Q268 209 265 228T255 260T234 283T201 300L160 316Q125 330 102 347T64 386T44 438T38 508Q38 596 78 642T203 689Q288 689 326 646T370 523Q370 515 361 512L281 500Q270 498 270 508Q268 550 254 572T206 595Q144 595 144 513Q144 489 146 473T156 446T177 426T210 410L251 394Q284 381 307 365T346 325T368 270T375 195Q375 106 345 56T243 -6L194 -145Q190 -155 178 -155H112Q102 -155 105 -145L163 -6Z"  />
<glyph unicode="&#x15F;" horiz-adv-x="350" d="M136 -5Q88 4 60 35T26 114Q24 124 34 126L106 140Q116 142 118 132Q122 103 138 90T177 76Q200 76 214 90T229 131Q229 154 218 168T177 194L138 209Q90 227 62 261T34 350Q34 380 44 406T73 450T118 480T177 491Q209 491 233 482T275 458T302 423T316 381Q318 370 309 368L241 355Q232 354 229 363Q224 382 212 394T177 407Q154 407 142 393T130 357Q130 340 141 326T182 300L221 285Q278 263 301 228T325 138Q325 84 297 45T216 -5L167 -145Q163 -155 151 -155H85Q75 -155 78 -145L136 -5Z"  />
<glyph unicode="&#x160;" horiz-adv-x="404" d="M375 195Q375 145 366 107T337 43T283 4T201 -9Q35 -9 31 169Q31 179 39 180L123 194Q134 196 134 185Q136 131 152 108T204 85Q236 85 252 105T268 182Q268 209 265 228T255 260T234 283T201 300L160 316Q125 330 102 347T64 386T44 438T38 508Q38 596 78 642T203 689Q288 689 326 646T370 523Q370 515 361 512L281 500Q270 498 270 508Q268 550 254 572T206 595Q144 595 144 513Q144 489 146 473T156 446T177 426T210 410L251 394Q284 381 307 365T346 325T368 270T375 195ZM168 747Q158 747 151 757L63 882Q60 886 61 889T67 892H127Q137 892 146 882L193 823H195L243 882Q252 892 262 892H322Q327 892 328 889T326 882L238 757Q231 747 220 747H168Z"  />
<glyph unicode="&#x161;" horiz-adv-x="350" d="M151 555Q141 555 134 565L46 690Q43 694 44 697T50 700H110Q120 700 129 690L176 630H178L226 690Q235 700 245 700H305Q310 700 311 697T309 690L221 565Q214 555 203 555H151ZM176 -9Q110 -9 71 24T26 114Q24 124 34 126L106 140Q116 142 118 132Q122 103 138 90T177 76Q200 76 214 90T229 131Q229 154 218 168T177 194L138 209Q90 227 62 261T34 350Q34 380 44 406T73 450T118 480T177 491Q209 491 233 482T275 458T302 423T316 381Q318 370 309 368L241 355Q232 354 229 363Q224 382 212 394T177 407Q154 407 142 393T130 357Q130 340 141 326T182 300L221 285Q278 263 301 228T325 138Q325 106 315 80T286 33T240 2T176 -9Z"  />
<glyph unicode="&#x162;" horiz-adv-x="375" d="M153 -221Q145 -221 145 -211V-64Q145 -54 155 -54H225Q235 -54 235 -64V-119Q235 -132 227 -141L166 -214Q160 -221 153 -221ZM144 0Q134 0 134 10V577Q134 583 128 583H24Q14 583 14 593V670Q14 680 24 680H351Q361 680 361 670V593Q361 583 351 583H247Q241 583 241 577V10Q241 0 231 0H144Z"  />
<glyph unicode="&#x163;" horiz-adv-x="255" d="M112 -221Q104 -221 104 -211V-64Q104 -54 114 -54H184Q194 -54 194 -64V-119Q194 -132 186 -141L125 -214Q119 -221 112 -221ZM189 -6Q126 -6 96 24T66 127V398Q66 404 60 404H31Q21 404 21 414V472Q21 482 31 482H60Q66 482 66 488V620Q66 630 76 630H158Q168 630 168 620V488Q168 482 174 482H219Q229 482 229 472V414Q229 404 219 404H174Q168 404 168 398V129Q168 88 207 88H219Q229 88 229 78V4Q229 -6 219 -6H189Z"  />
<glyph unicode="&#x164;" horiz-adv-x="375" d="M163 747Q153 747 146 757L58 882Q55 886 56 889T62 892H122Q132 892 141 882L188 823H190L238 882Q247 892 257 892H317Q322 892 323 889T321 882L233 757Q226 747 215 747H163ZM144 0Q134 0 134 10V577Q134 583 128 583H24Q14 583 14 593V670Q14 680 24 680H351Q361 680 361 670V593Q361 583 351 583H247Q241 583 241 577V10Q241 0 231 0H144Z"  />
<glyph unicode="&#x165;" horiz-adv-x="255" d="M208 511Q199 511 199 520V670Q199 680 209 680H278Q288 680 288 670V613Q288 605 287 601T281 591L221 518Q215 511 208 511ZM189 -6Q126 -6 96 24T66 127V398Q66 404 60 404H31Q21 404 21 414V472Q21 482 31 482H60Q66 482 66 488V620Q66 630 76 630H158Q168 630 168 620V488Q168 482 174 482H219Q229 482 229 472V414Q229 404 219 404H174Q168 404 168 398V129Q168 88 207 88H219Q229 88 229 78V4Q229 -6 219 -6H189Z"  />
<glyph unicode="&#x166;" horiz-adv-x="375" d="M144 0Q134 0 134 10V353Q134 359 128 359H68Q58 359 58 369V440Q58 450 68 450H128Q134 450 134 456V577Q134 583 128 583H24Q14 583 14 593V670Q14 680 24 680H351Q361 680 361 670V593Q361 583 351 583H247Q241 583 241 577V456Q241 450 247 450H307Q317 450 317 440V369Q317 359 307 359H247Q241 359 241 353V10Q241 0 231 0H144Z"  />
<glyph unicode="&#x167;" horiz-adv-x="255" d="M189 -6Q126 -6 96 24T66 127V255Q66 261 60 261H39Q29 261 29 271V327Q29 337 39 337H60Q66 337 66 343V398Q66 404 60 404H31Q21 404 21 414V472Q21 482 31 482H60Q66 482 66 488V620Q66 630 76 630H158Q168 630 168 620V488Q168 482 174 482H219Q229 482 229 472V414Q229 404 219 404H174Q168 404 168 398V343Q168 337 174 337H202Q212 337 212 327V271Q212 261 202 261H174Q168 261 168 255V129Q168 88 207 88H219Q229 88 229 78V4Q229 -6 219 -6H189Z"  />
<glyph unicode="&#x168;" horiz-adv-x="443" d="M266 763Q249 763 238 768T214 781Q202 789 195 793T176 797Q160 797 150 790T128 771Q124 767 120 768T116 775V836Q116 845 126 855Q136 865 148 872T177 879Q194 879 205 874T228 861Q241 853 248 849T267 845Q283 845 293 852T315 871Q319 875 323 874T327 867V806Q327 801 325 797T317 787Q307 777 295 770T266 763ZM222 -9Q143 -9 98 36T52 173V670Q52 680 62 680H149Q159 680 159 670V159Q159 127 175 108T222 88Q252 88 268 107T284 159V670Q284 680 294 680H381Q391 680 391 670V173Q391 82 346 37T222 -9Z"  />
<glyph unicode="&#x169;" horiz-adv-x="403" d="M260 0Q250 0 250 10V48H249Q236 23 215 7T158 -9Q104 -9 76 26T47 141V472Q47 482 57 482H139Q149 482 149 472V155Q149 85 199 85Q250 85 250 155V472Q250 482 260 482H342Q352 482 352 472V10Q352 0 342 0H260ZM247 567Q230 567 219 572T195 585Q183 593 176 597T157 601Q141 601 131 594T109 575Q105 571 101 572T97 579V640Q97 649 107 659Q117 669 129 676T158 683Q175 683 186 678T209 665Q222 657 229 653T248 649Q264 649 274 656T296 675Q300 679 304 678T308 671V610Q308 605 306 601T298 591Q288 581 276 574T247 567Z"  />
<glyph unicode="&#x16A;" horiz-adv-x="443" d="M119 780Q109 780 109 790V850Q109 860 119 860H324Q334 860 334 850V790Q334 780 324 780H119ZM222 -9Q143 -9 98 36T52 173V670Q52 680 62 680H149Q159 680 159 670V159Q159 127 175 108T222 88Q252 88 268 107T284 159V670Q284 680 294 680H381Q391 680 391 670V173Q391 82 346 37T222 -9Z"  />
<glyph unicode="&#x16B;" horiz-adv-x="403" d="M260 0Q250 0 250 10V48H249Q236 23 215 7T158 -9Q104 -9 76 26T47 141V472Q47 482 57 482H139Q149 482 149 472V155Q149 85 199 85Q250 85 250 155V472Q250 482 260 482H342Q352 482 352 472V10Q352 0 342 0H260ZM100 588Q90 588 90 598V658Q90 668 100 668H305Q315 668 315 658V598Q315 588 305 588H100Z"  />
<glyph unicode="&#x16C;" horiz-adv-x="443" d="M221 742Q191 742 169 751T132 777T108 815T97 861Q97 871 107 871H152Q159 871 162 861Q170 840 184 827T221 813Q244 813 258 826T281 861Q284 871 291 871H336Q346 871 346 861Q344 837 336 816T312 778T274 752T221 742ZM222 -9Q143 -9 98 36T52 173V670Q52 680 62 680H149Q159 680 159 670V159Q159 127 175 108T222 88Q252 88 268 107T284 159V670Q284 680 294 680H381Q391 680 391 670V173Q391 82 346 37T222 -9Z"  />
<glyph unicode="&#x16D;" horiz-adv-x="403" d="M260 0Q250 0 250 10V48H249Q236 23 215 7T158 -9Q104 -9 76 26T47 141V472Q47 482 57 482H139Q149 482 149 472V155Q149 85 199 85Q250 85 250 155V472Q250 482 260 482H342Q352 482 352 472V10Q352 0 342 0H260ZM202 556Q143 556 113 591T78 675Q78 685 88 685H133Q140 685 143 675Q151 653 165 640T202 626Q225 626 239 639T262 675Q265 685 272 685H317Q327 685 327 675Q323 626 293 591T202 556Z"  />
<glyph unicode="&#x16E;" horiz-adv-x="443" d="M222 -9Q143 -9 98 36T52 173V670Q52 680 62 680H149Q159 680 159 670V159Q159 127 175 108T222 88Q252 88 268 107T284 159V670Q284 680 294 680H381Q391 680 391 670V173Q391 82 346 37T222 -9ZM221 721Q183 721 157 747T131 812Q131 850 157 876T221 902Q260 902 286 876T312 812Q312 773 286 747T221 721ZM221 764Q241 764 254 778T267 812Q267 832 254 845T221 859Q201 859 189 846T176 812Q176 792 188 778T221 764Z"  />
<glyph unicode="&#x16F;" horiz-adv-x="403" d="M202 539Q164 539 138 565T112 629Q112 668 138 694T202 720Q241 720 267 694T293 629Q293 591 267 565T202 539ZM202 582Q222 582 235 595T248 629Q248 650 235 663T202 677Q182 677 170 664T157 629Q157 609 169 596T202 582ZM260 0Q250 0 250 10V48H249Q236 23 215 7T158 -9Q104 -9 76 26T47 141V472Q47 482 57 482H139Q149 482 149 472V155Q149 85 199 85Q250 85 250 155V472Q250 482 260 482H342Q352 482 352 472V10Q352 0 342 0H260Z"  />
<glyph unicode="&#x170;" horiz-adv-x="443" d="M222 -9Q143 -9 98 36T52 173V670Q52 680 62 680H149Q159 680 159 670V159Q159 127 175 108T222 88Q252 88 268 107T284 159V670Q284 680 294 680H381Q391 680 391 670V173Q391 82 346 37T222 -9ZM258 761Q253 761 252 763T253 771L322 878Q329 888 339 888H407Q412 888 413 885T411 878L327 771Q318 761 308 761H258ZM125 761Q120 761 119 763T120 771L190 878Q197 888 207 888H274Q279 888 280 885T278 878L194 771Q185 761 175 761H125Z"  />
<glyph unicode="&#x171;" horiz-adv-x="403" d="M260 0Q250 0 250 10V48H249Q236 23 215 7T158 -9Q104 -9 76 26T47 141V472Q47 482 57 482H139Q149 482 149 472V155Q149 85 199 85Q250 85 250 155V472Q250 482 260 482H342Q352 482 352 472V10Q352 0 342 0H260ZM238 555Q227 555 232 565L293 690Q297 700 309 700H376Q381 700 382 697T381 690L306 565Q300 555 289 555H238ZM106 555Q95 555 100 565L160 690Q164 700 176 700H243Q248 700 249 697T248 690L174 565Q168 555 156 555H106Z"  />
<glyph unicode="&#x172;" horiz-adv-x="443" d="M225 -190Q184 -190 160 -169T135 -107Q135 -81 144 -59T178 -5Q119 6 86 50T52 173V670Q52 680 62 680H149Q159 680 159 670V159Q159 127 175 108T222 88Q252 88 268 107T284 159V670Q284 680 294 680H381Q391 680 391 670V173Q391 95 358 51T267 -5Q236 -40 228 -58T219 -91Q219 -115 238 -115Q248 -115 256 -110Q265 -104 269 -114L290 -160Q293 -168 285 -173Q275 -180 258 -185T225 -190Z"  />
<glyph unicode="&#x173;" horiz-adv-x="403" d="M284 -190Q243 -190 219 -169T194 -107Q194 -74 211 -48T253 2Q250 5 250 10V48H249Q236 23 215 7T158 -9Q104 -9 76 26T47 141V472Q47 482 57 482H139Q149 482 149 472V155Q149 85 199 85Q250 85 250 155V472Q250 482 260 482H342Q352 482 352 472V10Q352 3 345 -1Q316 -20 297 -45T278 -91Q278 -115 297 -115Q307 -115 315 -110Q324 -104 328 -114L349 -160Q352 -168 344 -173Q334 -180 317 -185T284 -190Z"  />
<glyph unicode="&#x174;" horiz-adv-x="579" d="M371 0Q363 0 361 10L292 447H290L218 10Q216 0 208 0H133Q125 0 123 10L18 670Q16 680 27 680H113Q123 680 124 670L173 227H176L249 670Q250 680 260 680H319Q329 680 330 670L403 227H406L458 670Q459 680 469 680H552Q563 680 561 670L455 10Q453 0 445 0H371ZM356 750Q346 750 337 760L289 820H287L240 760Q231 750 221 750H161Q156 750 155 753T157 760L245 885Q252 895 262 895H314Q325 895 332 885L420 760Q423 756 422 753T416 750H356Z"  />
<glyph unicode="&#x175;" horiz-adv-x="541" d="M337 555Q327 555 318 565L270 625H268L221 565Q212 555 202 555H142Q137 555 136 558T138 565L226 690Q233 700 243 700H295Q306 700 313 690L401 565Q404 561 403 558T397 555H337ZM333 0Q322 0 321 10L271 290H269L220 10Q219 0 208 0H138Q128 0 127 10L18 472Q15 482 25 482H109Q118 482 120 472L174 174H175L231 472Q233 482 242 482H301Q310 482 312 472L366 174H367L422 472Q424 482 433 482H516Q526 482 523 472L415 10Q412 0 403 0H333Z"  />
<glyph unicode="&#x176;" horiz-adv-x="386" d="M150 0Q140 0 140 10V279L10 670Q7 680 18 680H106Q115 680 118 670L194 407H197L271 670Q274 680 283 680H369Q380 680 377 670L247 279V10Q247 0 237 0H150ZM262 750Q252 750 243 760L195 820H193L146 760Q137 750 127 750H67Q62 750 61 753T63 760L151 885Q158 895 168 895H220Q231 895 238 885L326 760Q329 756 328 753T322 750H262Z"  />
<glyph unicode="&#x177;" horiz-adv-x="370" d="M62 -180Q52 -180 52 -170V-96Q52 -86 62 -86L76 -85Q98 -83 109 -72T129 -30L140 18L20 472Q17 482 27 482H111Q120 482 122 472L186 174H187L251 472Q253 482 262 482H343Q353 482 350 472L223 -28Q211 -75 198 -105T169 -151T130 -174T77 -180H62ZM254 555Q244 555 235 565L187 625H185L138 565Q129 555 119 555H59Q54 555 53 558T55 565L143 690Q150 700 160 700H212Q223 700 230 690L318 565Q321 561 320 558T314 555H254Z"  />
<glyph unicode="&#x178;" horiz-adv-x="386" d="M150 0Q140 0 140 10V279L10 670Q7 680 18 680H106Q115 680 118 670L194 407H197L271 670Q274 680 283 680H369Q380 680 377 670L247 279V10Q247 0 237 0H150ZM238 769Q228 769 228 779V865Q228 875 238 875H303Q313 875 313 865V779Q313 769 303 769H238ZM86 769Q76 769 76 779V865Q76 875 86 875H151Q161 875 161 865V779Q161 769 151 769H86Z"  />
<glyph unicode="&#x179;" horiz-adv-x="370" d="M45 0Q35 0 35 10V82Q35 86 37 92L224 581V583H55Q45 583 45 593V670Q45 680 55 680H326Q336 680 336 670V596Q336 592 334 586L150 99V97H326Q336 97 336 87V10Q336 0 326 0H45ZM147 761Q142 761 140 764T141 771L218 878Q222 883 225 885T234 888H315Q320 888 321 885T320 878L222 771Q212 761 202 761H147Z"  />
<glyph unicode="&#x17A;" horiz-adv-x="320" d="M130 555Q119 555 124 565L193 690Q199 700 209 700H290Q295 700 296 697T295 690L205 565Q197 555 187 555H130ZM38 0Q28 0 28 10V78Q28 85 31 91L180 390V392H48Q38 392 38 402V472Q38 482 48 482H286Q296 482 296 472V415Q296 408 293 402L138 93V91H286Q296 91 296 81V10Q296 0 286 0H38Z"  />
<glyph unicode="&#x17B;" horiz-adv-x="370" d="M148 769Q138 769 138 779V865Q138 875 148 875H230Q240 875 240 865V779Q240 769 230 769H148ZM45 0Q35 0 35 10V82Q35 86 37 92L224 581V583H55Q45 583 45 593V670Q45 680 55 680H326Q336 680 336 670V596Q336 592 334 586L150 99V97H326Q336 97 336 87V10Q336 0 326 0H45Z"  />
<glyph unicode="&#x17C;" horiz-adv-x="320" d="M38 0Q28 0 28 10V78Q28 85 31 91L180 390V392H48Q38 392 38 402V472Q38 482 48 482H286Q296 482 296 472V415Q296 408 293 402L138 93V91H286Q296 91 296 81V10Q296 0 286 0H38ZM122 574Q112 574 112 584V670Q112 680 122 680H204Q214 680 214 670V584Q214 574 204 574H122Z"  />
<glyph unicode="&#x17D;" horiz-adv-x="370" d="M163 747Q153 747 146 757L58 882Q55 886 56 889T62 892H122Q132 892 141 882L188 823H190L238 882Q247 892 257 892H317Q322 892 323 889T321 882L233 757Q226 747 215 747H163ZM45 0Q35 0 35 10V82Q35 86 37 92L224 581V583H55Q45 583 45 593V670Q45 680 55 680H326Q336 680 336 670V596Q336 592 334 586L150 99V97H326Q336 97 336 87V10Q336 0 326 0H45Z"  />
<glyph unicode="&#x17E;" horiz-adv-x="320" d="M137 555Q127 555 120 565L32 690Q29 694 30 697T36 700H96Q106 700 115 690L162 630H164L212 690Q221 700 231 700H291Q296 700 297 697T295 690L207 565Q200 555 189 555H137ZM38 0Q28 0 28 10V78Q28 85 31 91L180 390V392H48Q38 392 38 402V472Q38 482 48 482H286Q296 482 296 472V415Q296 408 293 402L138 93V91H286Q296 91 296 81V10Q296 0 286 0H38Z"  />
<glyph unicode="&#x192;" horiz-adv-x="398" d="M260 325L214 -18Q203 -101 166 -140T49 -180H28Q18 -180 18 -170V-96Q18 -86 28 -86H43Q75 -86 91 -73T112 -23L159 325H92Q82 325 82 335V397Q82 407 92 407H170L185 518Q196 601 233 640T350 680H371Q381 680 381 670V596Q381 586 371 586H356Q324 586 308 573T287 523L271 407H338Q348 407 348 397V335Q348 325 338 325H260Z"  />
<glyph unicode="&#x1FA;" horiz-adv-x="421" d="M181 773Q176 773 175 776T177 783L259 878Q264 883 268 885T280 888H357Q362 888 363 885T362 878L259 783Q249 773 239 773H181ZM316 0Q307 0 305 10L278 147H143L116 10Q114 0 105 0H20Q10 0 12 10L139 579Q142 588 149 589Q122 614 122 656Q122 695 147 720T212 746Q251 746 276 721T302 656Q302 636 295 619T274 589Q283 589 285 579L409 10Q411 0 401 0H316ZM212 609Q232 609 244 622T257 656Q257 676 245 689T212 703Q192 703 180 690T167 656Q167 636 179 623T212 609ZM160 237H261L213 490H210L160 237Z"  />
<glyph unicode="&#x1FB;" horiz-adv-x="383" d="M157 773Q152 773 151 776T153 783L235 878Q240 883 244 885T256 888H333Q338 888 339 885T338 878L234 783Q229 778 225 776T215 773H157ZM249 0Q239 0 239 10V48H238Q229 22 206 7T149 -9Q128 -9 108 -2T71 21T44 66T34 135Q34 178 46 207T78 254T124 280T181 288H233Q239 288 239 294V322Q239 362 225 380T173 399Q149 399 131 392T93 371Q83 364 78 375L52 434Q48 441 55 448Q79 467 112 479T186 491Q268 491 302 453T337 326V10Q337 0 327 0H249ZM179 75Q206 75 222 94T239 143V200Q239 206 233 206H198Q161 206 146 188T131 139Q131 75 179 75ZM191 539Q153 539 127 565T101 629Q101 668 127 694T191 720Q230 720 256 694T282 629Q282 591 256 565T191 539ZM191 582Q211 582 224 595T237 629Q237 650 224 663T191 677Q171 677 159 664T146 629Q146 609 158 596T191 582Z"  />
<glyph unicode="&#x1FC;" horiz-adv-x="656" d="M320 761Q315 761 313 764T314 771L391 878Q395 883 398 885T407 888H488Q493 888 494 885T493 878L395 771Q385 761 375 761H320ZM339 0Q329 0 329 10V141Q329 147 323 147H166L116 10Q113 0 103 0H19Q9 0 12 10L259 670Q262 680 270 680H617Q627 680 627 670V593Q627 583 617 583H442Q436 583 436 577V398Q436 392 442 392H594Q604 392 604 382V305Q604 295 594 295H442Q436 295 436 289V103Q436 97 442 97H617Q627 97 627 87V10Q627 0 617 0H339ZM199 237H323Q329 237 329 243V582H326L199 237Z"  />
<glyph unicode="&#x1FD;" horiz-adv-x="578" d="M258 555Q247 555 252 565L321 690Q327 700 337 700H418Q423 700 424 697T423 690L333 565Q325 555 315 555H258ZM388 -9Q347 -9 316 4T265 49H264Q239 15 212 3T149 -9Q129 -9 109 -2T72 21T45 66T34 135Q34 178 46 207T78 254T124 280T181 288H233Q239 288 239 294V322Q239 362 225 380T173 399Q149 399 131 392T93 371Q83 364 78 375L52 434Q48 441 55 448Q79 467 112 479T186 491Q257 491 292 458H293Q310 475 335 483T389 491Q446 491 482 466T533 395Q536 386 538 375T541 345T543 295T544 216Q544 206 534 206H343Q337 206 337 200Q337 177 337 163T338 140T340 126T342 117Q353 84 389 84Q429 84 442 128Q445 137 454 135L531 120Q540 119 538 108Q527 54 488 23T388 -9ZM436 288Q442 288 442 294Q442 331 440 345T435 368Q430 382 419 391T389 400Q371 400 360 391T343 368Q340 360 339 346T337 294Q337 288 343 288H436ZM179 75Q206 75 222 94T239 143V200Q239 206 233 206H198Q161 206 146 188T131 139Q131 75 179 75Z"  />
<glyph unicode="&#x1FE;" horiz-adv-x="429" d="M40 -30Q29 -30 34 -20L69 62Q59 80 54 97Q50 108 48 121T44 159T42 226T41 340Q41 411 41 453T43 521T47 559T54 583Q71 634 111 661T215 689Q284 689 328 653L349 701Q353 710 362 710H388Q398 710 395 700L359 618Q364 610 368 601T375 583Q379 572 381 559T385 521T387 454T388 340Q388 269 388 227T386 159T382 121T375 97Q358 46 318 19T215 -9Q144 -9 100 26L80 -21Q76 -30 67 -30H40ZM150 238L275 543L272 554Q267 571 252 581T215 592Q193 592 178 582T157 554Q155 547 154 539T151 510T150 450T150 340V238ZM215 88Q236 88 251 98T272 126Q274 133 275 141T277 170T278 230T279 340V441L154 137L157 126Q162 109 177 99T215 88ZM175 761Q170 761 168 764T169 771L246 878Q250 883 253 885T262 888H343Q348 888 349 885T348 878L250 771Q240 761 230 761H175Z"  />
<glyph unicode="&#x1FF;" horiz-adv-x="385" d="M348 241Q348 203 348 179T346 138T342 110T337 90Q322 43 285 17T192 -9Q137 -9 100 17L81 -20Q76 -30 68 -30H46Q41 -30 39 -28T39 -20L72 44Q55 64 48 90Q45 99 43 110T40 137T38 178T37 241Q37 278 37 303T39 344T43 372T48 392Q63 439 100 465T192 491Q247 491 285 465L304 502Q309 512 317 512H339Q344 512 346 510T346 502L313 437Q328 417 337 392Q340 383 342 372T345 345T347 303T348 241ZM138 241Q138 216 138 199T138 169L237 375Q223 398 192 398Q154 398 143 364Q141 359 141 353T139 334T138 300T138 241ZM247 310L148 106Q162 84 192 84Q231 84 242 118Q243 123 244 129T246 148T247 182T247 241V310ZM156 555Q145 555 150 565L219 690Q225 700 235 700H316Q321 700 322 697T321 690L231 565Q223 555 213 555H156Z"  />
<glyph unicode="&#x218;" horiz-adv-x="404" d="M167 -221Q159 -221 159 -211V-64Q159 -54 169 -54H239Q249 -54 249 -64V-119Q249 -132 241 -141L180 -214Q174 -221 167 -221ZM375 195Q375 145 366 107T337 43T283 4T201 -9Q35 -9 31 169Q31 179 39 180L123 194Q134 196 134 185Q136 131 152 108T204 85Q236 85 252 105T268 182Q268 209 265 228T255 260T234 283T201 300L160 316Q125 330 102 347T64 386T44 438T38 508Q38 596 78 642T203 689Q288 689 326 646T370 523Q370 515 361 512L281 500Q270 498 270 508Q268 550 254 572T206 595Q144 595 144 513Q144 489 146 473T156 446T177 426T210 410L251 394Q284 381 307 365T346 325T368 270T375 195Z"  />
<glyph unicode="&#x219;" horiz-adv-x="350" d="M140 -221Q132 -221 132 -211V-64Q132 -54 142 -54H212Q222 -54 222 -64V-119Q222 -132 214 -141L153 -214Q147 -221 140 -221ZM176 -9Q110 -9 71 24T26 114Q24 124 34 126L106 140Q116 142 118 132Q122 103 138 90T177 76Q200 76 214 90T229 131Q229 154 218 168T177 194L138 209Q90 227 62 261T34 350Q34 380 44 406T73 450T118 480T177 491Q209 491 233 482T275 458T302 423T316 381Q318 370 309 368L241 355Q232 354 229 363Q224 382 212 394T177 407Q154 407 142 393T130 357Q130 340 141 326T182 300L221 285Q278 263 301 228T325 138Q325 106 315 80T286 33T240 2T176 -9Z"  />
<glyph unicode="&#x21A;" horiz-adv-x="375" d="M153 -221Q145 -221 145 -211V-64Q145 -54 155 -54H225Q235 -54 235 -64V-119Q235 -132 227 -141L166 -214Q160 -221 153 -221ZM144 0Q134 0 134 10V577Q134 583 128 583H24Q14 583 14 593V670Q14 680 24 680H351Q361 680 361 670V593Q361 583 351 583H247Q241 583 241 577V10Q241 0 231 0H144Z"  />
<glyph unicode="&#x21B;" horiz-adv-x="255" d="M112 -221Q104 -221 104 -211V-64Q104 -54 114 -54H184Q194 -54 194 -64V-119Q194 -132 186 -141L125 -214Q119 -221 112 -221ZM189 -6Q126 -6 96 24T66 127V398Q66 404 60 404H31Q21 404 21 414V472Q21 482 31 482H60Q66 482 66 488V620Q66 630 76 630H158Q168 630 168 620V488Q168 482 174 482H219Q229 482 229 472V414Q229 404 219 404H174Q168 404 168 398V129Q168 88 207 88H219Q229 88 229 78V4Q229 -6 219 -6H189Z"  />
<glyph unicode="&#x237;" horiz-adv-x="204" d="M-4 -180Q-14 -180 -14 -170V-96Q-14 -86 -4 -86L10 -85Q32 -83 41 -72T51 -30V472Q51 482 61 482H143Q153 482 153 472V-36Q153 -109 120 -144T11 -180H-4Z"  />
<glyph unicode="&#x2C6;" horiz-adv-x="415" d="M275 555Q265 555 256 565L208 625H206L159 565Q150 555 140 555H80Q75 555 74 558T76 565L164 690Q171 700 181 700H233Q244 700 251 690L339 565Q342 561 341 558T335 555H275Z"  />
<glyph unicode="&#x2C7;" horiz-adv-x="415" d="M181 555Q171 555 164 565L76 690Q73 694 74 697T80 700H140Q150 700 159 690L206 630H208L256 690Q265 700 275 700H335Q340 700 341 697T339 690L251 565Q244 555 233 555H181Z"  />
<glyph unicode="&#x2C9;" horiz-adv-x="415" d="M105 780Q95 780 95 790V850Q95 860 105 860H310Q320 860 320 850V790Q320 780 310 780H105Z"  />
<glyph unicode="&#x2D8;" horiz-adv-x="415" d="M207 556Q148 556 118 591T83 675Q83 685 93 685H138Q145 685 148 675Q156 653 170 640T207 626Q230 626 244 639T267 675Q270 685 277 685H322Q332 685 332 675Q328 626 298 591T207 556Z"  />
<glyph unicode="&#x2D9;" horiz-adv-x="415" d="M166 574Q156 574 156 584V670Q156 680 166 680H248Q258 680 258 670V584Q258 574 248 574H166Z"  />
<glyph unicode="&#x2DA;" horiz-adv-x="415" d="M207 539Q169 539 143 565T117 629Q117 668 143 694T207 720Q246 720 272 694T298 629Q298 591 272 565T207 539ZM207 582Q227 582 240 595T253 629Q253 650 240 663T207 677Q187 677 175 664T162 629Q162 609 174 596T207 582Z"  />
<glyph unicode="&#x2DB;" horiz-adv-x="415" d="M220 -190Q179 -190 155 -169T131 -107Q131 -74 147 -48T187 0Q197 10 205 10H280Q285 10 286 6T283 0Q254 -20 234 -45T214 -91Q214 -115 234 -115Q244 -115 252 -110Q261 -104 265 -114L285 -160Q288 -168 280 -173Q270 -180 254 -185T220 -190Z"  />
<glyph unicode="&#x2DC;" horiz-adv-x="415" d="M251 567Q234 567 223 572T199 585Q187 593 180 597T161 601Q145 601 135 594T113 575Q109 571 105 572T101 579V640Q101 649 111 659Q121 669 133 676T162 683Q179 683 190 678T213 665Q226 657 233 653T252 649Q268 649 278 656T300 675Q304 679 308 678T312 671V610Q312 605 310 601T302 591Q292 581 280 574T251 567Z"  />
<glyph unicode="&#x2DD;" horiz-adv-x="415" d="M227 555Q216 555 221 565L282 690Q286 700 298 700H365Q370 700 371 697T370 690L295 565Q289 555 278 555H227ZM95 555Q84 555 89 565L149 690Q153 700 165 700H232Q237 700 238 697T237 690L163 565Q157 555 145 555H95Z"  />
<glyph unicode="&#x394;" horiz-adv-x="421" d="M20 0Q10 0 12 10L159 670Q162 680 170 680H254Q263 680 265 670L409 10Q411 0 401 0H20ZM282 98Q288 98 287 104L213 490H210L134 104Q132 98 139 98H282Z"  />
<glyph unicode="&#x3A9;" horiz-adv-x="429" d="M253 0Q243 0 243 10V83Q243 92 252 98Q262 106 267 116T276 150T280 219T281 340Q281 409 281 448T280 508T278 537T274 552Q269 569 254 580T215 592Q192 592 176 581T155 552Q153 545 152 537T149 509T148 449T148 340Q148 264 149 220T153 151T161 116T177 98Q186 92 186 83V10Q186 0 176 0H41Q31 0 31 10V88Q31 98 41 98H78V99Q67 109 60 121T48 158T41 226T39 340Q39 411 39 453T41 520T45 557T52 581Q69 632 110 660T215 689Q278 689 319 661T377 581Q381 570 383 558T387 520T389 453T390 340Q390 269 388 226T382 159T370 122T351 99V98H388Q398 98 398 88V10Q398 0 388 0H253Z"  />
<glyph unicode="&#x3BC;" horiz-adv-x="407" d="M264 0Q254 0 254 10V48H253Q244 20 224 6T177 -8Q170 -8 163 -7T153 -2V-170Q153 -180 143 -180H61Q51 -180 51 -170V472Q51 482 61 482H143Q153 482 153 472V155Q153 85 204 85Q254 85 254 155V472Q254 482 264 482H346Q356 482 356 472V10Q356 0 346 0H264Z"  />
<glyph unicode="&#x3C0;" horiz-adv-x="428" d="M381 -6Q317 -6 289 24T260 123V382Q260 388 254 388H176Q170 388 170 382V10Q170 0 160 0H78Q68 0 68 10V382Q68 388 62 388H24Q14 388 14 398V472Q14 482 24 482H402Q412 482 412 472V398Q412 388 402 388H365Q359 388 359 382V121Q359 100 365 93T386 86H390Q400 86 400 76V4Q400 -6 390 -6H381Z"  />
<glyph unicode="&#x1E80;" horiz-adv-x="579" d="M263 761Q253 761 243 771L144 878Q141 882 142 885T149 888H230Q237 888 240 886T247 878L323 771Q326 767 325 764T318 761H263ZM371 0Q363 0 361 10L292 447H290L218 10Q216 0 208 0H133Q125 0 123 10L18 670Q16 680 27 680H113Q123 680 124 670L173 227H176L249 670Q250 680 260 680H319Q329 680 330 670L403 227H406L458 670Q459 680 469 680H552Q563 680 561 670L455 10Q453 0 445 0H371Z"  />
<glyph unicode="&#x1E81;" horiz-adv-x="541" d="M333 0Q322 0 321 10L271 290H269L220 10Q219 0 208 0H138Q128 0 127 10L18 472Q15 482 25 482H109Q118 482 120 472L174 174H175L231 472Q233 482 242 482H301Q310 482 312 472L366 174H367L422 472Q424 482 433 482H516Q526 482 523 472L415 10Q412 0 403 0H333ZM242 555Q231 555 224 565L134 690Q131 694 132 697T139 700H220Q230 700 236 690L305 565Q310 555 299 555H242Z"  />
<glyph unicode="&#x1E82;" horiz-adv-x="579" d="M261 761Q256 761 254 764T255 771L332 878Q336 883 339 885T348 888H429Q434 888 435 885T434 878L336 771Q326 761 316 761H261ZM371 0Q363 0 361 10L292 447H290L218 10Q216 0 208 0H133Q125 0 123 10L18 670Q16 680 27 680H113Q123 680 124 670L173 227H176L249 670Q250 680 260 680H319Q329 680 330 670L403 227H406L458 670Q459 680 469 680H552Q563 680 561 670L455 10Q453 0 445 0H371Z"  />
<glyph unicode="&#x1E83;" horiz-adv-x="541" d="M240 555Q229 555 234 565L303 690Q309 700 319 700H400Q405 700 406 697T405 690L315 565Q307 555 297 555H240ZM333 0Q322 0 321 10L271 290H269L220 10Q219 0 208 0H138Q128 0 127 10L18 472Q15 482 25 482H109Q118 482 120 472L174 174H175L231 472Q233 482 242 482H301Q310 482 312 472L366 174H367L422 472Q424 482 433 482H516Q526 482 523 472L415 10Q412 0 403 0H333Z"  />
<glyph unicode="&#x1E84;" horiz-adv-x="579" d="M332 769Q322 769 322 779V865Q322 875 332 875H397Q407 875 407 865V779Q407 769 397 769H332ZM180 769Q170 769 170 779V865Q170 875 180 875H245Q255 875 255 865V779Q255 769 245 769H180ZM371 0Q363 0 361 10L292 447H290L218 10Q216 0 208 0H133Q125 0 123 10L18 670Q16 680 27 680H113Q123 680 124 670L173 227H176L249 670Q250 680 260 680H319Q329 680 330 670L403 227H406L458 670Q459 680 469 680H552Q563 680 561 670L455 10Q453 0 445 0H371Z"  />
<glyph unicode="&#x1E85;" horiz-adv-x="541" d="M313 574Q303 574 303 584V670Q303 680 313 680H378Q388 680 388 670V584Q388 574 378 574H313ZM161 574Q151 574 151 584V670Q151 680 161 680H226Q236 680 236 670V584Q236 574 226 574H161ZM333 0Q322 0 321 10L271 290H269L220 10Q219 0 208 0H138Q128 0 127 10L18 472Q15 482 25 482H109Q118 482 120 472L174 174H175L231 472Q233 482 242 482H301Q310 482 312 472L366 174H367L422 472Q424 482 433 482H516Q526 482 523 472L415 10Q412 0 403 0H333Z"  />
<glyph unicode="&#x1EF2;" horiz-adv-x="386" d="M150 0Q140 0 140 10V279L10 670Q7 680 18 680H106Q115 680 118 670L194 407H197L271 670Q274 680 283 680H369Q380 680 377 670L247 279V10Q247 0 237 0H150ZM177 761Q167 761 157 771L58 878Q55 882 56 885T63 888H144Q151 888 154 886T161 878L237 771Q240 767 239 764T232 761H177Z"  />
<glyph unicode="&#x1EF3;" horiz-adv-x="370" d="M62 -180Q52 -180 52 -170V-96Q52 -86 62 -86L76 -85Q98 -83 109 -72T129 -30L140 18L20 472Q17 482 27 482H111Q120 482 122 472L186 174H187L251 472Q253 482 262 482H343Q353 482 350 472L223 -28Q211 -75 198 -105T169 -151T130 -174T77 -180H62ZM161 555Q150 555 143 565L53 690Q50 694 51 697T58 700H139Q149 700 155 690L224 565Q229 555 218 555H161Z"  />
<glyph unicode="&#x2013;" horiz-adv-x="408" d="M26 225Q16 225 16 235V296Q16 306 26 306H382Q392 306 392 296V235Q392 225 382 225H26Z"  />
<glyph unicode="&#x2014;" horiz-adv-x="594" d="M26 225Q16 225 16 235V296Q16 306 26 306H568Q578 306 578 296V235Q578 225 568 225H26Z"  />
<glyph unicode="&#x2018;" horiz-adv-x="171" d="M50 493Q40 493 40 503V576Q40 590 48 599L110 674Q116 681 122 681Q131 681 131 672V503Q131 493 121 493H50Z"  />
<glyph unicode="&#x2019;" horiz-adv-x="171" d="M49 492Q40 492 40 501V670Q40 680 50 680H121Q131 680 131 670V597Q131 583 123 574L61 499Q55 492 49 492Z"  />
<glyph unicode="&#x201A;" horiz-adv-x="171" d="M49 -93Q40 -93 40 -84V85Q40 95 50 95H121Q131 95 131 85V12Q131 -2 123 -11L61 -86Q55 -93 49 -93Z"  />
<glyph unicode="&#x201C;" horiz-adv-x="299" d="M178 493Q168 493 168 503V576Q168 590 176 599L238 674Q244 681 250 681Q259 681 259 672V503Q259 493 249 493H178ZM50 493Q40 493 40 503V576Q40 590 48 599L110 674Q116 681 122 681Q131 681 131 672V503Q131 493 121 493H50Z"  />
<glyph unicode="&#x201D;" horiz-adv-x="299" d="M177 492Q168 492 168 501V670Q168 680 178 680H249Q259 680 259 670V597Q259 583 251 574L189 499Q183 492 177 492ZM49 492Q40 492 40 501V670Q40 680 50 680H121Q131 680 131 670V597Q131 583 123 574L61 499Q55 492 49 492Z"  />
<glyph unicode="&#x201E;" horiz-adv-x="299" d="M177 -94Q168 -94 168 -85V85Q168 95 178 95H249Q259 95 259 85V11Q259 -3 251 -12L189 -87Q183 -94 177 -94ZM49 -94Q40 -94 40 -85V85Q40 95 50 95H121Q131 95 131 85V11Q131 -3 123 -12L61 -87Q55 -94 49 -94Z"  />
<glyph unicode="&#x2020;" horiz-adv-x="520" d="M221 -180Q211 -180 211 -170V353Q211 359 205 359H91Q81 359 81 369V439Q81 449 91 449H205Q211 449 211 455V670Q211 680 221 680H299Q309 680 309 670V455Q309 449 315 449H429Q439 449 439 439V369Q439 359 429 359H315Q309 359 309 353V-170Q309 -180 299 -180H221Z"  />
<glyph unicode="&#x2021;" horiz-adv-x="520" d="M221 -180Q211 -180 211 -170V15Q211 21 205 21H91Q81 21 81 31V101Q81 111 91 111H205Q211 111 211 117V383Q211 389 205 389H91Q81 389 81 399V469Q81 479 91 479H205Q211 479 211 485V670Q211 680 221 680H299Q309 680 309 670V485Q309 479 315 479H429Q439 479 439 469V399Q439 389 429 389H315Q309 389 309 383V117Q309 111 315 111H429Q439 111 439 101V31Q439 21 429 21H315Q309 21 309 15V-170Q309 -180 299 -180H221Z"  />
<glyph unicode="&#x2022;" horiz-adv-x="443" d="M221 179Q193 179 170 188T129 215T102 256T92 308Q92 336 101 359T128 400T169 427T221 437Q249 437 272 427T313 400T341 360T351 308Q351 280 341 257T314 216T273 189T221 179Z"  />
<glyph unicode="&#x2026;" horiz-adv-x="591" d="M450 0Q440 0 440 10V109Q440 119 450 119H535Q545 119 545 109V10Q545 0 535 0H450ZM253 0Q243 0 243 10V109Q243 119 253 119H338Q348 119 348 109V10Q348 0 338 0H253ZM56 0Q46 0 46 10V109Q46 119 56 119H141Q151 119 151 109V10Q151 0 141 0H56Z"  />
<glyph unicode="&#x2030;" horiz-adv-x="932" d="M180 -9Q170 -9 173 1L425 679Q429 689 438 689H493Q503 689 500 679L247 1Q243 -9 234 -9H180ZM161 328Q123 328 100 344T67 389Q65 397 64 404T61 424T60 456T60 507Q60 538 60 558T61 590T63 609T67 625Q76 654 99 670T161 686Q198 686 221 670T254 625Q257 617 258 610T260 590T261 558T262 507Q262 475 262 456T261 425T259 405T254 389Q245 360 222 344T161 328ZM161 392Q179 392 186 409Q187 411 187 415T188 429T189 458T189 507Q189 538 189 556T189 585T188 599T186 605Q179 622 161 622Q141 622 136 605Q135 603 135 599T134 585T133 557T133 507Q133 476 133 458T133 430T134 415T136 409Q141 392 161 392ZM771 -6Q733 -6 710 10T678 55Q675 62 674 70T672 90T671 121T670 173Q670 204 670 223T671 255T673 275T678 291Q687 320 710 336T771 352Q808 352 831 336T864 291Q867 283 868 276T870 256T871 224T872 173Q872 141 872 122T871 90T869 70T864 55Q855 26 832 10T771 -6ZM512 -6Q475 -6 452 10T419 55Q416 62 415 70T413 90T412 121T411 173Q411 204 411 223T412 255T414 275T419 291Q428 320 451 336T512 352Q550 352 573 336T605 291Q608 283 609 276T611 256T612 224T613 173Q613 141 613 122T612 90T610 70T605 55Q597 26 574 10T512 -6ZM771 58Q791 58 796 75Q797 77 797 81T798 95T799 123T799 173Q799 204 799 222T799 250T798 265T796 271Q791 288 771 288Q751 288 746 271Q745 269 745 265T744 251T743 222T743 173Q743 142 743 124T743 95T744 81T746 75Q751 58 771 58ZM512 58Q532 58 537 75Q538 77 538 81T539 95T540 123T540 173Q540 204 540 222T540 250T539 265T537 271Q532 288 512 288Q492 288 487 271Q486 269 486 265T485 251T484 222T484 173Q484 142 484 124T484 95T485 81T487 75Q492 58 512 58Z"  />
<glyph unicode="&#x2039;" horiz-adv-x="284" d="M37 257Q30 264 37 271L214 449Q217 452 220 451T224 445V365Q224 357 214 347L136 268Q132 264 136 260L214 181Q224 171 224 163V83Q224 78 221 77T214 79L37 257Z"  />
<glyph unicode="&#x203A;" horiz-adv-x="284" d="M70 79Q67 76 64 77T60 83V163Q60 171 70 181L149 260Q153 264 149 268L70 347Q60 357 60 365V445Q60 450 63 451T70 449L247 271Q254 264 247 257L70 79Z"  />
<glyph unicode="&#x2044;" horiz-adv-x="143" d="M-85 -9Q-95 -9 -92 1L160 679Q164 689 173 689H227Q237 689 234 679L-18 1Q-22 -9 -31 -9H-85Z"  />
<glyph unicode="&#x2070;" horiz-adv-x="281" d="M140 422Q99 422 74 440T38 487Q36 493 35 501T32 524T31 564T30 633Q30 676 30 701T32 742T34 765T38 779Q48 808 73 826T140 844Q182 844 207 826T242 779Q244 773 245 765T248 742T249 702T250 633Q250 590 250 565T248 524T246 501T242 487Q232 458 207 440T140 422ZM140 493Q160 493 166 511Q167 513 168 517T169 533T170 568T170 633Q170 674 170 697T170 733T168 749T166 755Q160 773 140 773Q120 773 114 755Q113 753 113 749T112 733T111 698T111 633Q111 592 111 569T111 533T112 517T114 511Q120 493 140 493Z"  />
<glyph unicode="&#x2074;" horiz-adv-x="281" d="M169 430Q159 430 159 440V476Q159 482 153 482H30Q20 482 20 492V542Q20 549 23 558L111 826Q114 836 123 836H185Q195 836 192 826L103 555V552H153Q159 552 159 558V653Q159 663 169 663H224Q234 663 234 653V558Q234 552 239 552H254Q264 552 264 542V492Q264 482 254 482H240Q234 482 234 476V440Q234 430 224 430H169Z"  />
<glyph unicode="&#x2075;" horiz-adv-x="281" d="M140 422Q101 422 75 439T38 487Q35 496 34 504T33 518Q33 529 43 530L97 536Q109 538 109 526Q109 516 112 509Q117 493 138 493Q158 493 165 509Q167 513 167 521T168 560Q168 589 168 597T165 610Q162 616 156 621T138 626Q122 626 113 612Q105 602 97 602H46Q36 602 36 612V826Q36 836 46 836H236Q246 836 246 826V775Q246 765 236 765H116Q110 765 110 759V683H111Q127 697 157 697Q190 697 211 684T243 639Q246 629 247 612T248 560Q248 525 247 511T242 487Q232 456 206 439T140 422Z"  />
<glyph unicode="&#x2076;" horiz-adv-x="281" d="M140 422Q101 422 74 439T36 488Q33 498 32 510T30 552Q30 575 31 591T34 620T41 644T52 671L121 826Q125 836 135 836H197Q208 836 205 826L140 679L141 678Q147 680 158 680Q223 680 243 621Q247 610 248 596T250 552Q250 523 249 511T244 488Q234 457 207 440T140 422ZM140 493Q151 493 157 498T166 510Q168 514 169 521T170 552Q170 574 169 581T166 592Q164 599 158 604T140 609Q129 609 123 604T114 592Q112 588 112 581T111 552Q111 529 111 522T114 510Q116 503 122 498T140 493Z"  />
<glyph unicode="&#x2077;" horiz-adv-x="281" d="M69 430Q58 430 61 440L167 762V765H117Q111 765 111 759V727Q111 717 101 717H44Q34 717 34 727V826Q34 836 44 836H240Q250 836 250 826V776Q250 767 247 758L144 440Q141 430 131 430H69Z"  />
<glyph unicode="&#x2078;" horiz-adv-x="281" d="M140 422Q101 422 74 439T36 488Q33 498 32 510T30 550Q30 570 31 580T35 599Q43 625 66 642V643Q43 660 35 686Q30 703 30 725Q30 746 31 757T36 778Q46 809 73 826T140 844Q180 844 207 827T244 778Q247 768 248 757T250 725Q250 703 245 686Q241 674 234 663T215 643V642Q227 633 234 622T245 599Q247 591 248 581T250 550Q250 522 249 510T244 488Q234 457 207 440T140 422ZM140 677Q151 677 157 682T166 694Q168 698 169 703T170 725Q170 741 169 746T166 756Q164 763 158 768T140 773Q129 773 123 768T114 756Q112 752 112 747T111 725Q111 709 111 704T114 694Q116 687 122 682T140 677ZM140 493Q151 493 157 498T166 510Q168 514 169 521T170 550Q170 571 169 578T166 589Q164 596 158 601T140 606Q129 606 123 601T114 589Q112 585 112 578T111 550Q111 528 111 521T114 510Q116 503 122 498T140 493Z"  />
<glyph unicode="&#x2079;" horiz-adv-x="281" d="M83 430Q72 430 75 440L141 587L140 588Q138 587 133 587T123 586Q57 586 37 645Q33 656 32 670T30 714Q30 743 31 755T36 778Q46 809 73 826T140 844Q180 844 207 827T244 778Q247 768 248 756T250 714Q250 691 249 675T246 646T239 622T228 595L159 440Q155 430 146 430H83ZM140 657Q151 657 157 662T166 674Q168 678 169 685T170 714Q170 737 169 744T166 756Q164 763 158 768T140 773Q129 773 123 768T114 756Q112 752 112 745T111 714Q111 692 111 685T114 674Q116 667 122 662T140 657Z"  />
<glyph unicode="&#x2080;" horiz-adv-x="281" d="M140 -163Q99 -163 74 -145T38 -98Q36 -92 35 -84T32 -61T31 -21T30 48Q30 91 30 116T32 157T34 180T38 194Q48 223 73 241T140 259Q182 259 207 241T242 194Q244 188 245 180T248 157T249 117T250 48Q250 5 250 -20T248 -61T246 -84T242 -98Q232 -127 207 -145T140 -163ZM140 -92Q160 -92 166 -74Q167 -72 168 -68T169 -52T170 -17T170 48Q170 89 170 112T170 148T168 164T166 170Q160 188 140 188Q120 188 114 170Q113 168 113 164T112 148T111 113T111 48Q111 7 111 -16T111 -52T112 -68T114 -74Q120 -92 140 -92Z"  />
<glyph unicode="&#x2081;" horiz-adv-x="281" d="M130 -155Q120 -155 120 -145V162H119L62 130Q57 127 54 128T50 135V196Q50 204 58 209L118 246Q126 251 133 251H191Q201 251 201 241V-145Q201 -155 191 -155H130Z"  />
<glyph unicode="&#x2082;" horiz-adv-x="281" d="M45 -155Q35 -155 35 -145V-97Q35 -89 40 -81L151 88Q160 101 164 113T168 142Q168 157 168 162T165 172Q158 188 138 188Q117 188 112 172Q110 168 110 162T109 132Q109 120 97 122L43 128Q33 129 33 140Q33 161 34 172T39 193Q49 224 75 241T140 259Q180 259 206 242T242 193Q245 184 246 173T248 143Q248 92 222 53L132 -83V-84H238Q248 -84 248 -94V-145Q248 -155 238 -155H45Z"  />
<glyph unicode="&#x2083;" horiz-adv-x="281" d="M139 -163Q100 -163 74 -146T38 -98Q32 -79 32 -58Q32 -47 42 -46L96 -40Q108 -38 108 -50Q108 -62 108 -67T111 -76Q116 -92 137 -92Q157 -92 164 -76Q166 -72 166 -66T167 -39Q167 -19 167 -12T164 1Q159 18 137 18H129Q119 18 119 28V80Q119 90 129 90H136Q158 90 165 107Q167 112 167 118T167 141Q167 157 167 162T164 172Q157 188 137 188Q116 188 111 172Q109 168 109 163T108 146Q108 134 96 136L42 142Q32 143 32 154Q32 174 38 194Q48 225 74 242T139 259Q179 259 205 242T241 194Q244 184 245 173T247 141Q247 120 246 111T243 95Q234 68 207 57V56Q234 40 242 16Q245 8 246 -3T247 -39Q247 -64 246 -76T241 -98Q231 -129 205 -146T139 -163Z"  />
<glyph unicode="&#x2084;" horiz-adv-x="281" d="M169 -155Q159 -155 159 -145V-109Q159 -103 153 -103H30Q20 -103 20 -93V-43Q20 -36 23 -27L111 241Q114 251 123 251H185Q195 251 192 241L103 -30V-33H153Q159 -33 159 -27V68Q159 78 169 78H224Q234 78 234 68V-27Q234 -33 239 -33H254Q264 -33 264 -43V-93Q264 -103 254 -103H240Q234 -103 234 -109V-145Q234 -155 224 -155H169Z"  />
<glyph unicode="&#x2085;" horiz-adv-x="281" d="M140 -163Q101 -163 75 -146T38 -98Q35 -89 34 -81T33 -67Q33 -56 43 -55L97 -49Q109 -47 109 -59Q109 -69 112 -76Q117 -92 138 -92Q158 -92 165 -76Q167 -72 167 -64T168 -25Q168 4 168 12T165 25Q162 31 156 36T138 41Q122 41 113 27Q105 17 97 17H46Q36 17 36 27V241Q36 251 46 251H236Q246 251 246 241V190Q246 180 236 180H116Q110 180 110 174V98H111Q127 112 157 112Q190 112 211 99T243 54Q246 44 247 27T248 -25Q248 -60 247 -74T242 -98Q232 -129 206 -146T140 -163Z"  />
<glyph unicode="&#x2086;" horiz-adv-x="281" d="M140 -163Q101 -163 74 -146T36 -97Q33 -87 32 -75T30 -33Q30 -10 31 6T34 35T41 59T52 86L121 241Q125 251 135 251H197Q208 251 205 241L140 94L141 93Q147 95 158 95Q223 95 243 36Q247 25 248 11T250 -33Q250 -62 249 -74T244 -97Q234 -128 207 -145T140 -163ZM140 -92Q151 -92 157 -87T166 -75Q168 -71 169 -64T170 -33Q170 -11 169 -4T166 7Q164 14 158 19T140 24Q129 24 123 19T114 7Q112 3 112 -4T111 -33Q111 -56 111 -63T114 -75Q116 -82 122 -87T140 -92Z"  />
<glyph unicode="&#x2087;" horiz-adv-x="281" d="M69 -155Q58 -155 61 -145L167 177V180H117Q111 180 111 174V142Q111 132 101 132H44Q34 132 34 142V241Q34 251 44 251H240Q250 251 250 241V191Q250 182 247 173L144 -145Q141 -155 131 -155H69Z"  />
<glyph unicode="&#x2088;" horiz-adv-x="281" d="M140 -163Q101 -163 74 -146T36 -97Q33 -87 32 -75T30 -35Q30 -15 31 -5T35 14Q43 40 66 57V58Q43 75 35 101Q30 118 30 140Q30 161 31 172T36 193Q46 224 73 241T140 259Q180 259 207 242T244 193Q247 183 248 172T250 140Q250 118 245 101Q241 89 234 78T215 58V57Q227 48 234 37T245 14Q247 6 248 -4T250 -35Q250 -63 249 -75T244 -97Q234 -128 207 -145T140 -163ZM140 92Q151 92 157 97T166 109Q168 113 169 118T170 140Q170 156 169 161T166 171Q164 178 158 183T140 188Q129 188 123 183T114 171Q112 167 112 162T111 140Q111 124 111 119T114 109Q116 102 122 97T140 92ZM140 -92Q151 -92 157 -87T166 -75Q168 -71 169 -64T170 -35Q170 -14 169 -7T166 4Q164 11 158 16T140 21Q129 21 123 16T114 4Q112 0 112 -7T111 -35Q111 -57 111 -64T114 -75Q116 -82 122 -87T140 -92Z"  />
<glyph unicode="&#x2089;" horiz-adv-x="281" d="M83 -155Q72 -155 75 -145L141 2L140 3Q138 2 133 2T123 1Q57 1 37 60Q33 71 32 85T30 129Q30 158 31 170T36 193Q46 224 73 241T140 259Q180 259 207 242T244 193Q247 183 248 171T250 129Q250 106 249 90T246 61T239 37T228 10L159 -145Q155 -155 146 -155H83ZM140 72Q151 72 157 77T166 89Q168 93 169 100T170 129Q170 152 169 159T166 171Q164 178 158 183T140 188Q129 188 123 183T114 171Q112 167 112 160T111 129Q111 107 111 100T114 89Q116 82 122 77T140 72Z"  />
<glyph unicode="&#x20AC;" horiz-adv-x="398" d="M222 -9Q165 -9 131 16T82 87Q79 96 77 105T74 131T72 171T71 235Q71 241 65 241H29Q19 241 19 251V305Q19 315 29 315H65Q71 315 71 321V364Q71 370 65 370H29Q19 370 19 380V434Q19 444 29 444H65Q71 444 71 450Q71 487 71 510T73 549T77 574T82 593Q97 638 131 663T222 689Q291 689 330 650T374 549Q376 538 367 537L290 522Q280 520 278 530Q274 561 262 578T224 596Q189 596 178 562Q176 557 176 552T174 536T173 504T173 450Q173 444 179 444H309Q319 444 319 434L309 380Q308 370 299 370H179Q173 370 173 364V321Q173 315 179 315H294Q304 315 304 305L294 251Q293 241 284 241H179Q173 241 173 235Q173 199 173 178T174 145T175 128T178 118Q189 84 224 84Q250 84 262 101T278 150Q280 160 290 158L367 143Q376 142 374 131Q369 69 330 30T222 -9Z"  />
<glyph unicode="&#x2113;" horiz-adv-x="413" d="M98 175Q91 169 84 176L48 217Q41 224 49 231L127 306V510Q127 597 162 644T262 691Q316 691 349 658T382 564Q382 498 345 435T229 297V125Q229 99 236 87T262 75Q271 75 279 78T296 89Q305 96 310 87L338 46Q344 38 335 31Q313 11 288 0T234 -11Q185 -11 156 21T127 132V202L98 175ZM229 411Q269 460 283 495T298 565Q298 615 266 615Q249 615 239 598T229 538V411Z"  />
<glyph unicode="&#x2122;" horiz-adv-x="660" d="M538 286Q528 286 528 296V498H527L488 357Q485 347 476 347H447Q438 347 435 357L395 498H394V296Q394 286 384 286H332Q322 286 322 296V670Q322 680 332 680H390Q400 680 403 670L462 453H464L520 670Q523 680 533 680H590Q600 680 600 670V296Q600 286 590 286H538ZM140 286Q130 286 130 296V602Q130 608 124 608H70Q60 608 60 618V670Q60 680 70 680H267Q277 680 277 670V618Q277 608 267 608H213Q207 608 207 602V296Q207 286 197 286H140Z"  />
<glyph unicode="&#x2126;" horiz-adv-x="429" d="M253 0Q243 0 243 10V83Q243 92 252 98Q262 106 267 116T276 150T280 219T281 340Q281 409 281 448T280 508T278 537T274 552Q269 569 254 580T215 592Q192 592 176 581T155 552Q153 545 152 537T149 509T148 449T148 340Q148 264 149 220T153 151T161 116T177 98Q186 92 186 83V10Q186 0 176 0H41Q31 0 31 10V88Q31 98 41 98H78V99Q67 109 60 121T48 158T41 226T39 340Q39 411 39 453T41 520T45 557T52 581Q69 632 110 660T215 689Q278 689 319 661T377 581Q381 570 383 558T387 520T389 453T390 340Q390 269 388 226T382 159T370 122T351 99V98H388Q398 98 398 88V10Q398 0 388 0H253Z"  />
<glyph unicode="&#x212E;" horiz-adv-x="579" d="M288 -9Q235 -9 192 10T119 64T72 144T55 242Q55 294 71 339T118 419T192 472T288 491Q341 491 384 473T458 422T506 343T524 242H158V77Q212 25 288 25Q345 25 387 50T462 134L495 113Q453 49 406 20T288 -9ZM421 406Q392 433 359 447T288 461Q211 461 158 406V275H421V406Z"  />
<glyph unicode="&#x2153;" horiz-adv-x="758" d="M159 274Q149 274 149 284V591H148L91 559Q86 556 83 557T79 564V625Q79 633 87 638L147 675Q155 680 162 680H220Q230 680 230 670V284Q230 274 220 274H159ZM202 -9Q192 -9 195 1L447 679Q451 689 460 689H514Q524 689 521 679L269 1Q265 -9 256 -9H202ZM569 -7Q530 -7 504 10T468 58Q462 77 462 98Q462 109 472 110L526 116Q538 118 538 106Q538 94 538 89T541 80Q546 64 567 64Q587 64 594 80Q596 84 596 90T597 117Q597 137 597 144T594 157Q589 174 567 174H559Q549 174 549 184V236Q549 246 559 246H566Q588 246 595 263Q597 268 597 274T597 297Q597 313 597 318T594 328Q587 344 567 344Q546 344 541 328Q539 324 539 319T538 302Q538 290 526 292L472 298Q462 299 462 310Q462 330 468 350Q478 381 504 398T569 415Q609 415 635 398T671 350Q674 340 675 329T677 297Q677 276 676 267T673 251Q664 224 637 213V212Q664 196 672 172Q675 164 676 153T677 117Q677 92 676 80T671 58Q661 27 635 10T569 -7Z"  />
<glyph unicode="&#x2154;" horiz-adv-x="816" d="M91 274Q81 274 81 284V332Q81 340 86 348L197 517Q206 530 210 542T214 571Q214 586 214 591T211 601Q204 617 184 617Q163 617 158 601Q156 597 156 591T155 561Q155 549 143 551L89 557Q79 558 79 569Q79 590 80 601T85 622Q95 653 121 670T186 688Q226 688 252 671T288 622Q291 613 292 602T294 572Q294 521 268 482L178 346V345H284Q294 345 294 335V284Q294 274 284 274H91ZM259 -9Q249 -9 252 1L504 679Q508 689 517 689H571Q581 689 578 679L326 1Q322 -9 313 -9H259ZM627 -7Q588 -7 562 10T526 58Q520 77 520 98Q520 109 530 110L584 116Q596 118 596 106Q596 94 596 89T599 80Q604 64 625 64Q645 64 652 80Q654 84 654 90T655 117Q655 137 655 144T652 157Q647 174 625 174H617Q607 174 607 184V236Q607 246 617 246H624Q646 246 653 263Q655 268 655 274T655 297Q655 313 655 318T652 328Q645 344 625 344Q604 344 599 328Q597 324 597 319T596 302Q596 290 584 292L530 298Q520 299 520 310Q520 330 526 350Q536 381 562 398T627 415Q667 415 693 398T729 350Q732 340 733 329T735 297Q735 276 734 267T731 251Q722 224 695 213V212Q722 196 730 172Q733 164 734 153T735 117Q735 92 734 80T729 58Q719 27 693 10T627 -7Z"  />
<glyph unicode="&#x215B;" horiz-adv-x="762" d="M159 274Q149 274 149 284V591H148L91 559Q86 556 83 557T79 564V625Q79 633 87 638L147 675Q155 680 162 680H220Q230 680 230 670V284Q230 274 220 274H159ZM572 -7Q533 -7 506 10T468 59Q465 69 464 81T462 121Q462 141 463 151T467 170Q475 196 498 213V214Q475 231 467 257Q462 274 462 296Q462 317 463 328T468 349Q478 380 505 397T572 415Q612 415 639 398T676 349Q679 339 680 328T682 296Q682 274 677 257Q673 245 666 234T647 214V213Q659 204 666 193T677 170Q679 162 680 152T682 121Q682 93 681 81T676 59Q666 28 639 11T572 -7ZM572 248Q583 248 589 253T598 265Q600 269 601 274T602 296Q602 312 601 317T598 327Q596 334 590 339T572 344Q561 344 555 339T546 327Q544 323 544 318T543 296Q543 280 543 275T546 265Q548 258 554 253T572 248ZM572 64Q583 64 589 69T598 81Q600 85 601 92T602 121Q602 142 601 149T598 160Q596 167 590 172T572 177Q561 177 555 172T546 160Q544 156 544 149T543 121Q543 99 543 92T546 81Q548 74 554 69T572 64ZM202 -9Q192 -9 195 1L447 679Q451 689 460 689H514Q524 689 521 679L269 1Q265 -9 256 -9H202Z"  />
<glyph unicode="&#x215C;" horiz-adv-x="802" d="M611 -7Q572 -7 545 10T507 59Q504 69 503 81T501 121Q501 141 502 151T506 170Q514 196 537 213V214Q514 231 506 257Q501 274 501 296Q501 317 502 328T507 349Q517 380 544 397T611 415Q651 415 678 398T715 349Q718 339 719 328T721 296Q721 274 716 257Q712 245 705 234T686 214V213Q698 204 705 193T716 170Q718 162 719 152T721 121Q721 93 720 81T715 59Q705 28 678 11T611 -7ZM611 248Q622 248 628 253T637 265Q639 269 640 274T641 296Q641 312 640 317T637 327Q635 334 629 339T611 344Q600 344 594 339T585 327Q583 323 583 318T582 296Q582 280 582 275T585 265Q587 258 593 253T611 248ZM611 64Q622 64 628 69T637 81Q639 85 640 92T641 121Q641 142 640 149T637 160Q635 167 629 172T611 177Q600 177 594 172T585 160Q583 156 583 149T582 121Q582 99 582 92T585 81Q587 74 593 69T611 64ZM242 -9Q232 -9 235 1L487 679Q491 689 500 689H554Q564 689 561 679L309 1Q305 -9 296 -9H242ZM186 266Q147 266 121 283T85 331Q79 350 79 371Q79 382 89 383L143 389Q155 391 155 379Q155 367 155 362T158 353Q163 337 184 337Q204 337 211 353Q213 357 213 363T214 390Q214 410 214 417T211 430Q206 447 184 447H176Q166 447 166 457V509Q166 519 176 519H183Q205 519 212 536Q214 541 214 547T214 570Q214 586 214 591T211 601Q204 617 184 617Q163 617 158 601Q156 597 156 592T155 575Q155 563 143 565L89 571Q79 572 79 583Q79 603 85 623Q95 654 121 671T186 688Q226 688 252 671T288 623Q291 613 292 602T294 570Q294 549 293 540T290 524Q281 497 254 486V485Q281 469 289 445Q292 437 293 426T294 390Q294 365 293 353T288 331Q278 300 252 283T186 266Z"  />
<glyph unicode="&#x215D;" horiz-adv-x="802" d="M611 -7Q572 -7 545 10T507 59Q504 69 503 81T501 121Q501 141 502 151T506 170Q514 196 537 213V214Q514 231 506 257Q501 274 501 296Q501 317 502 328T507 349Q517 380 544 397T611 415Q651 415 678 398T715 349Q718 339 719 328T721 296Q721 274 716 257Q712 245 705 234T686 214V213Q698 204 705 193T716 170Q718 162 719 152T721 121Q721 93 720 81T715 59Q705 28 678 11T611 -7ZM611 248Q622 248 628 253T637 265Q639 269 640 274T641 296Q641 312 640 317T637 327Q635 334 629 339T611 344Q600 344 594 339T585 327Q583 323 583 318T582 296Q582 280 582 275T585 265Q587 258 593 253T611 248ZM611 64Q622 64 628 69T637 81Q639 85 640 92T641 121Q641 142 640 149T637 160Q635 167 629 172T611 177Q600 177 594 172T585 160Q583 156 583 149T582 121Q582 99 582 92T585 81Q587 74 593 69T611 64ZM242 -9Q232 -9 235 1L487 679Q491 689 500 689H554Q564 689 561 679L309 1Q305 -9 296 -9H242ZM186 266Q147 266 121 283T84 331Q81 340 80 348T79 362Q79 373 89 374L143 380Q155 382 155 370Q155 360 158 353Q163 337 184 337Q204 337 211 353Q213 357 213 365T214 404Q214 433 214 441T211 454Q208 460 202 465T184 470Q168 470 159 456Q151 446 143 446H92Q82 446 82 456V670Q82 680 92 680H282Q292 680 292 670V619Q292 609 282 609H162Q156 609 156 603V527H157Q173 541 203 541Q236 541 257 528T289 483Q292 473 293 456T294 404Q294 369 293 355T288 331Q278 300 252 283T186 266Z"  />
<glyph unicode="&#x215E;" horiz-adv-x="757" d="M566 -7Q527 -7 500 10T462 59Q459 69 458 81T456 121Q456 141 457 151T461 170Q469 196 492 213V214Q469 231 461 257Q456 274 456 296Q456 317 457 328T462 349Q472 380 499 397T566 415Q606 415 633 398T670 349Q673 339 674 328T676 296Q676 274 671 257Q667 245 660 234T641 214V213Q653 204 660 193T671 170Q673 162 674 152T676 121Q676 93 675 81T670 59Q660 28 633 11T566 -7ZM566 248Q577 248 583 253T592 265Q594 269 595 274T596 296Q596 312 595 317T592 327Q590 334 584 339T566 344Q555 344 549 339T540 327Q538 323 538 318T537 296Q537 280 537 275T540 265Q542 258 548 253T566 248ZM566 64Q577 64 583 69T592 81Q594 85 595 92T596 121Q596 142 595 149T592 160Q590 167 584 172T566 177Q555 177 549 172T540 160Q538 156 538 149T537 121Q537 99 537 92T540 81Q542 74 548 69T566 64ZM114 274Q103 274 106 284L212 606V609H162Q156 609 156 603V571Q156 561 146 561H89Q79 561 79 571V670Q79 680 89 680H285Q295 680 295 670V620Q295 611 292 602L189 284Q186 274 176 274H114ZM196 -9Q186 -9 189 1L441 679Q445 689 454 689H508Q518 689 515 679L263 1Q259 -9 250 -9H196Z"  />
<glyph unicode="&#x2202;" horiz-adv-x="412" d="M181 -11Q147 -11 121 4T77 45T50 109T41 191Q41 239 52 281T84 354T134 402T201 420Q249 420 277 394H279Q276 491 252 547T182 604Q166 604 151 599T124 584Q115 577 110 586L75 637Q70 645 78 651Q101 668 128 679T190 691Q235 691 268 669T325 605T359 503T371 368Q371 177 320 83T181 -11ZM188 77Q204 77 219 88T246 126T266 196T278 302Q264 317 249 326T214 335Q176 335 155 296T133 195Q133 138 146 108T188 77Z"  />
<glyph unicode="&#x2206;" horiz-adv-x="421" d="M20 0Q10 0 12 10L159 670Q162 680 170 680H254Q263 680 265 670L409 10Q411 0 401 0H20ZM282 98Q288 98 287 104L213 490H210L134 104Q132 98 139 98H282Z"  />
<glyph unicode="&#x220F;" horiz-adv-x="526" d="M377 -180Q367 -180 367 -170V636Q367 642 361 642H165Q159 642 159 636V-170Q159 -180 149 -180H63Q53 -180 53 -170V730Q53 740 63 740H463Q473 740 473 730V-170Q473 -180 463 -180H377Z"  />
<glyph unicode="&#x2211;" horiz-adv-x="486" d="M50 -180Q40 -180 40 -170V-96Q40 -91 42 -87L217 318L47 641Q44 647 44 652V730Q44 740 54 740H427Q437 740 437 730V652Q437 642 427 642H166L330 333Q333 326 330 319L152 -82H437Q447 -82 447 -92V-170Q447 -180 437 -180H50Z"  />
<glyph unicode="&#x2212;" horiz-adv-x="398" d="M46 231Q36 231 36 241V311Q36 321 46 321H352Q362 321 362 311V241Q362 231 352 231H46Z"  />
<glyph unicode="&#x2215;" horiz-adv-x="143" d="M-85 -9Q-95 -9 -92 1L160 679Q164 689 173 689H227Q237 689 234 679L-18 1Q-22 -9 -31 -9H-85Z"  />
<glyph unicode="&#x2219;" horiz-adv-x="197" d="M56 205Q46 205 46 215V314Q46 324 56 324H141Q151 324 151 314V215Q151 205 141 205H56Z"  />
<glyph unicode="&#x221A;" horiz-adv-x="568" d="M259 -180Q250 -180 247 -170L137 92Q134 98 128 95L70 71Q60 66 57 75L32 130Q27 139 36 143L167 201Q177 206 181 197L283 -48H286L469 730Q472 740 481 740H548Q559 740 556 730L337 -170Q334 -180 325 -180H259Z"  />
<glyph unicode="&#x221E;" horiz-adv-x="667" d="M498 92Q450 92 413 114T333 187Q311 162 292 144T253 115T213 98T168 92Q135 92 108 102T60 133T29 181T18 246Q18 318 60 359T169 401Q191 401 210 396T249 379T289 349T333 304Q357 330 377 348T416 378T454 395T497 401Q563 401 606 360T649 246Q649 174 607 133T498 92ZM494 166Q530 166 550 188T571 248Q571 284 550 305T493 327Q469 327 445 310T382 246Q402 223 417 208T445 183T470 170T494 166ZM172 166Q197 166 221 184T284 247Q246 292 222 309T174 327Q139 327 118 306T96 248Q96 210 116 188T172 166Z"  />
<glyph unicode="&#x222B;" horiz-adv-x="312" d="M59 -180Q54 -180 47 -180T34 -179Q24 -177 24 -169V-93Q24 -83 34 -83H51Q79 -83 92 -65T105 -3V557Q105 651 142 695T253 740Q259 740 266 740T278 739Q288 737 288 729V653Q288 643 278 643H262Q233 643 220 625T207 563V3Q207 -91 170 -135T59 -180Z"  />
<glyph unicode="&#x2248;" horiz-adv-x="414" d="M269 306Q245 306 229 314T198 331Q187 339 177 345T153 351Q138 351 128 343T104 311Q99 303 90 308L43 333Q33 338 39 348Q62 391 86 411T145 432Q170 432 186 424T216 407Q227 399 237 393T261 386Q277 386 287 394T311 427Q316 435 325 430L371 405Q381 400 375 390Q352 347 328 327T269 306ZM269 122Q245 122 229 130T198 147Q187 155 177 161T153 167Q138 167 128 159T104 127Q99 119 90 124L43 149Q33 154 39 164Q62 207 86 227T145 248Q170 248 186 240T216 223Q227 215 237 209T261 203Q277 203 287 211T311 243Q316 251 325 246L371 221Q381 216 375 206Q352 163 328 143T269 122Z"  />
<glyph unicode="&#x2260;" horiz-adv-x="398" d="M261 328L213 224H352Q362 224 362 214V145Q362 135 352 135H171L137 61Q133 51 124 51H69Q58 51 61 61L95 135H46Q36 135 36 145V214Q36 224 46 224H137L185 328H46Q36 328 36 338V407Q36 417 46 417H227L262 491Q266 501 275 501H330Q342 501 337 491L302 417H352Q362 417 362 407V338Q362 328 352 328H261Z"  />
<glyph unicode="&#x2264;" horiz-adv-x="398" d="M46 250Q36 253 36 264V326Q36 337 46 340L352 463Q362 466 362 456V382Q362 373 352 369L161 296V294L352 221Q362 217 362 208V134Q362 124 352 127L46 250ZM46 0Q36 0 36 10V79Q36 89 46 89H352Q362 89 362 79V10Q362 0 352 0H46Z"  />
<glyph unicode="&#x2265;" horiz-adv-x="398" d="M46 127Q36 124 36 134V208Q36 217 46 221L238 294V296L46 369Q36 373 36 382V456Q36 466 46 463L352 340Q362 337 362 326V264Q362 253 352 250L46 127ZM46 0Q36 0 36 10V79Q36 89 46 89H352Q362 89 362 79V10Q362 0 352 0H46Z"  />
<glyph unicode="&#x25CA;" horiz-adv-x="445" d="M187 -52Q177 -52 173 -42L22 322Q19 329 22 336L173 700Q177 710 187 710H259Q269 710 273 700L423 336Q426 329 423 322L273 -42Q269 -52 259 -52H187ZM227 51L334 329L223 607H221L112 329L225 51H227Z"  />
<glyph unicode="&#xF8FF;" horiz-adv-x="388" d="M10 0Q0 0 0 10V670Q0 680 10 680H378Q388 680 388 670V10Q388 0 378 0H10ZM324 55Q330 55 330 61V619Q330 625 324 625H65Q59 625 59 619V61Q59 55 65 55H324ZM168 224Q158 224 158 234V280Q158 301 171 324L207 391Q216 408 220 421T224 455Q224 474 221 483Q214 503 191 503Q169 503 162 483Q160 478 160 470T159 442Q159 432 148 434L102 438Q93 439 93 449Q93 472 95 483T99 502Q108 530 133 546T192 563Q227 563 252 547T286 502Q288 495 290 484T292 458Q292 432 287 416T271 379L236 312Q231 303 229 295T226 276V234Q226 224 216 224H168ZM168 114Q158 114 158 124V182Q158 192 168 192H216Q226 192 226 182V124Q226 114 216 114H168Z"  />
<glyph unicode="&#xFB00;" horiz-adv-x="512" d="M78 0Q68 0 68 10V398Q68 404 62 404H33Q23 404 23 414V472Q23 482 33 482H62Q68 482 68 488V529Q68 599 100 639T211 680H232Q242 680 242 670V596Q242 586 232 586H207Q186 586 178 578T170 548V488Q170 482 176 482H232Q242 482 242 472V414Q242 404 232 404H176Q170 404 170 398V10Q170 0 160 0H78ZM334 0Q324 0 324 10V398Q324 404 318 404H289Q279 404 279 414V472Q279 482 289 482H318Q324 482 324 488V529Q324 599 356 639T467 680H488Q498 680 498 670V596Q498 586 488 586H463Q442 586 434 578T426 548V488Q426 482 432 482H488Q498 482 498 472V414Q498 404 488 404H432Q426 404 426 398V10Q426 0 416 0H334Z"  />
<glyph unicode="&#xFB01;" horiz-adv-x="460" d="M78 0Q68 0 68 10V398Q68 404 62 404H33Q23 404 23 414V472Q23 482 33 482H62Q68 482 68 488V529Q68 599 100 639T211 680H232Q242 680 242 670V596Q242 586 232 586H207Q186 586 178 578T170 548V488Q170 482 176 482H232Q242 482 242 472V414Q242 404 232 404H176Q170 404 170 398V10Q170 0 160 0H78ZM317 574Q307 574 307 584V670Q307 680 317 680H399Q409 680 409 670V584Q409 574 399 574H317ZM317 0Q307 0 307 10V472Q307 482 317 482H399Q409 482 409 472V10Q409 0 399 0H317Z"  />
<glyph unicode="&#xFB02;" horiz-adv-x="489" d="M78 0Q68 0 68 10V398Q68 404 62 404H33Q23 404 23 414V472Q23 482 33 482H62Q68 482 68 488V529Q68 599 100 639T211 680H232Q242 680 242 670V596Q242 586 232 586H207Q186 586 178 578T170 548V488Q170 482 176 482H232Q242 482 242 472V414Q242 404 232 404H176Q170 404 170 398V10Q170 0 160 0H78ZM450 -6Q410 -5 383 3T339 29T315 74T307 140V670Q307 680 317 680H399Q409 680 409 670V140Q409 116 418 104T448 88L453 87Q463 85 463 76V4Q463 -6 453 -6H450Z"  />
<glyph unicode="&#xFB03;" horiz-adv-x="716" d="M78 0Q68 0 68 10V398Q68 404 62 404H33Q23 404 23 414V472Q23 482 33 482H62Q68 482 68 488V529Q68 599 100 639T211 680H232Q242 680 242 670V596Q242 586 232 586H207Q186 586 178 578T170 548V488Q170 482 176 482H232Q242 482 242 472V414Q242 404 232 404H176Q170 404 170 398V10Q170 0 160 0H78ZM334 0Q324 0 324 10V398Q324 404 318 404H289Q279 404 279 414V472Q279 482 289 482H318Q324 482 324 488V529Q324 599 356 639T467 680H488Q498 680 498 670V596Q498 586 488 586H463Q442 586 434 578T426 548V488Q426 482 432 482H488Q498 482 498 472V414Q498 404 488 404H432Q426 404 426 398V10Q426 0 416 0H334ZM573 574Q563 574 563 584V670Q563 680 573 680H655Q665 680 665 670V584Q665 574 655 574H573ZM573 0Q563 0 563 10V472Q563 482 573 482H655Q665 482 665 472V10Q665 0 655 0H573Z"  />
<glyph unicode="&#xFB04;" horiz-adv-x="745" d="M78 0Q68 0 68 10V398Q68 404 62 404H33Q23 404 23 414V472Q23 482 33 482H62Q68 482 68 488V529Q68 599 100 639T211 680H232Q242 680 242 670V596Q242 586 232 586H207Q186 586 178 578T170 548V488Q170 482 176 482H232Q242 482 242 472V414Q242 404 232 404H176Q170 404 170 398V10Q170 0 160 0H78ZM334 0Q324 0 324 10V398Q324 404 318 404H289Q279 404 279 414V472Q279 482 289 482H318Q324 482 324 488V529Q324 599 356 639T467 680H488Q498 680 498 670V596Q498 586 488 586H463Q442 586 434 578T426 548V488Q426 482 432 482H488Q498 482 498 472V414Q498 404 488 404H432Q426 404 426 398V10Q426 0 416 0H334ZM706 -6Q666 -5 639 3T595 29T571 74T563 140V670Q563 680 573 680H655Q665 680 665 670V140Q665 116 674 104T704 88L709 87Q719 85 719 76V4Q719 -6 709 -6H706Z"  />

</font>
</defs>
</svg>
