<?xml  version="1.0" encoding="UTF-8"?>
<!DOCTYPE svg PUBLIC "-//W3C//DTD SVG 1.0//EN" "http://www.w3.org/TR/2001/REC-SVG-20010904/DTD/svg10.dtd" >
<svg xmlns="http://www.w3.org/2000/svg" >
<metadata>
<version>1.0</version>
<id><![CDATA[DIN Next W02 UltraLight Cond]]></id>
<vendor>Monotype Imaging Inc.</vendor>
<credits>
<name>Fonts.com WebFonts</name>
<URL>http://webfonts.fonts.com</URL>
<role>Home of the Web fonts</role>
</credits>
<license>
<URL>http://webfonts.fonts.com/Legal</URL>
</license>
<copyright><![CDATA[Copyright © 2010 Linotype GmbH, www.linotype.com. All rights reserved. This font software may not be reproduced, modified, disclosed or transferred without the express written approval of Linotype GmbH.]]></copyright>
<trademark></trademark>
<licensee>
<name></name>
</licensee>
</metadata>
<defs >
<font horiz-adv-x="343" id="9f09c2a6-bde3-4f3c-91ea-dcc719bcbb95">
<font-face font-family="" panose-1="2 11 2 6 2 2 3 5 2 3" ascent="906" descent="-214" units-per-em="1000" alphabetic="0">
</font-face>
<missing-glyph horiz-adv-x="350" d="M0 670Q0 680 10 680H340Q350 680 350 670V10Q350 0 340 0H10Q0 0 0 10V670ZM28 32Q28 26 34 26H316Q322 26 322 32V648Q322 654 316 654H34Q28 654 28 648V32ZM176 219Q166 219 166 229V277Q166 291 168 301T177 323L211 390Q222 412 226 426T231 464Q231 492 227 505Q216 539 178 539Q140 539 129 505Q127 497 126 487T125 454Q125 444 114 446L107 447Q99 448 99 458Q99 484 101 494T105 512Q113 535 131 549T178 563Q207 563 225 549T251 512Q253 505 255 494T257 464Q257 437 252 421T235 381L201 314Q196 304 194 297T192 277V229Q192 219 182 219H176ZM160 153Q160 163 170 163H189Q199 163 199 153V125Q199 115 189 115H170Q160 115 160 125V153Z"  />

<glyph unicode="&#xA;" />
<glyph unicode="&#xD;" horiz-adv-x="0" />
<glyph unicode=" " horiz-adv-x="180" />
<glyph unicode="!" horiz-adv-x="198" d="M96 170Q86 170 86 180L84 670Q84 680 94 680H104Q114 680 114 670L112 180Q112 170 102 170H96ZM75 60Q75 70 85 70H113Q123 70 123 60V10Q123 0 113 0H85Q75 0 75 10V60Z"  />
<glyph unicode="&quot;" horiz-adv-x="204" d="M144 536Q134 536 134 546V670Q134 680 144 680H152Q162 680 162 670V546Q162 536 152 536H144ZM52 536Q42 536 42 546V670Q42 680 52 680H60Q70 680 70 670V546Q70 536 60 536H52Z"  />
<glyph unicode="#" horiz-adv-x="516" d="M145 238H87Q77 238 77 248V254Q77 264 87 264H147L167 448H105Q95 448 95 458V464Q95 474 105 474H169L190 670Q192 680 201 680H207Q218 680 216 669L195 474H343L364 670Q366 680 375 680H381Q392 680 390 669L369 474H429Q439 474 439 464V458Q439 448 429 448H367L347 264H411Q421 264 421 254V248Q421 238 411 238H345L321 10Q319 0 310 0H304Q293 0 295 11L319 238H171L147 10Q145 0 136 0H130Q119 0 121 11L145 238ZM321 264L341 448H193L173 264H321Z"  />
<glyph unicode="$" horiz-adv-x="360" d="M52 155Q52 165 60 166L67 167Q77 168 77 158Q82 83 104 52T169 18V345Q137 358 116 372T83 407T66 455T61 522Q61 606 88 645T169 687V730Q169 740 179 740H185Q195 740 195 730V687Q246 682 272 647T300 537Q300 527 293 526L286 525Q275 523 275 534Q272 597 254 626T195 661V367Q228 355 249 340T283 304T301 254T306 184Q306 133 299 98T279 40T244 6T195 -7V-74Q195 -84 185 -84H179Q169 -84 169 -74V-7Q110 -3 83 37T52 155ZM169 661Q127 658 108 627T89 522Q89 489 92 465T105 425T129 397T169 377V661ZM195 18Q216 20 231 28T257 56T273 106T278 184Q278 217 275 242T262 285T236 315T195 335V18Z"  />
<glyph unicode="%" horiz-adv-x="602" d="M403 678Q407 688 416 688H424Q434 688 431 678L199 2Q195 -8 186 -8H178Q168 -8 171 2L403 678ZM141 332Q113 332 95 346T68 383Q66 389 65 395T63 414T62 449T62 509Q62 546 62 568T63 603T65 622T68 635Q76 658 94 672T141 686Q169 686 187 672T214 635Q216 629 217 623T219 604T220 569T220 509Q220 472 220 450T219 415T217 396T214 383Q206 360 188 346T141 332ZM141 356Q178 356 189 390Q190 393 191 398T192 416T193 451T194 509Q194 545 194 567T193 601T191 619T189 628Q178 662 141 662Q104 662 93 628Q92 625 91 620T90 602T89 567T88 509Q88 473 88 451T89 417T91 399T93 390Q104 356 141 356ZM388 45Q386 51 385 57T383 76T382 111T382 171Q382 208 382 230T383 265T385 284T388 297Q396 320 414 334T461 348Q489 348 507 334T534 297Q536 291 537 285T539 266T540 231T540 171Q540 134 540 112T539 77T537 58T534 45Q526 22 508 8T461 -6Q433 -6 415 8T388 45ZM413 52Q424 18 461 18Q498 18 509 52Q510 55 511 60T512 78T513 113T514 171Q514 207 514 229T513 263T511 281T509 290Q498 324 461 324Q424 324 413 290Q412 287 411 282T410 264T409 229T408 171Q408 135 408 113T409 79T411 61T413 52Z"  />
<glyph unicode="&amp;" horiz-adv-x="493" d="M70 129Q70 154 77 179T99 234T140 297T202 376Q179 418 165 448T141 500T129 539T125 571Q125 626 154 657T231 688Q279 688 308 657T337 571Q337 546 331 524T312 478T280 429T235 373L354 153L401 239Q405 248 414 245L421 241Q429 236 425 229L368 127L407 55Q417 36 423 31T438 26H443Q453 26 453 16V10Q453 0 443 0H437Q420 0 409 8T384 42L352 100Q323 50 286 21T198 -8Q138 -8 104 30T70 129ZM222 398Q247 429 264 452T291 496T305 533T309 571Q309 616 288 639T231 662Q196 662 175 639T153 571Q153 557 156 543T167 510T188 464T222 398ZM98 130Q98 76 124 47T198 18Q239 18 273 45T339 126L216 351Q184 312 162 282T125 227T105 178T98 130Z"  />
<glyph unicode="&apos;" horiz-adv-x="112" d="M52 536Q42 536 42 546V670Q42 680 52 680H60Q70 680 70 670V546Q70 536 60 536H52Z"  />
<glyph unicode="(" horiz-adv-x="224" d="M149 -74Q113 17 94 121T74 328Q74 430 93 534T149 730Q152 740 162 740H168Q178 740 175 730Q138 630 120 526T102 328Q102 234 120 130T175 -74Q178 -84 168 -84H162Q152 -84 149 -74Z"  />
<glyph unicode=")" horiz-adv-x="224" d="M49 -74Q86 26 104 130T122 328Q122 422 104 526T49 730Q46 740 56 740H62Q72 740 75 730Q111 639 130 535T150 328Q150 226 131 122T75 -74Q72 -84 62 -84H56Q46 -84 49 -74Z"  />
<glyph unicode="*" horiz-adv-x="323" d="M159 406Q149 406 149 416V521L71 476Q63 471 58 479L55 484Q50 493 58 498L136 543L58 588Q50 593 55 602L58 607Q63 615 71 610L149 564V670Q149 680 159 680H164Q174 680 174 670V565L252 610Q260 615 265 607L268 602Q273 593 265 588L187 543L265 498Q273 493 268 484L265 479Q260 471 252 476L174 521V416Q174 406 164 406H159Z"  />
<glyph unicode="+" horiz-adv-x="360" d="M166 257Q166 263 160 263H50Q40 263 40 273V279Q40 289 50 289H160Q166 289 166 295V406Q166 416 176 416H184Q194 416 194 406V295Q194 289 200 289H310Q320 289 320 279V273Q320 263 310 263H200Q194 263 194 257V146Q194 136 184 136H176Q166 136 166 146V257Z"  />
<glyph unicode="&#x2c;" horiz-adv-x="154" d="M56 60Q56 70 66 70H88Q98 70 98 60V2Q98 -6 97 -10T94 -21L73 -94Q70 -102 63 -102Q56 -102 56 -94V60Z"  />
<glyph unicode="-" horiz-adv-x="268" d="M50 254Q40 254 40 264V270Q40 280 50 280H218Q228 280 228 270V264Q228 254 218 254H50Z"  />
<glyph unicode="." horiz-adv-x="160" d="M56 60Q56 70 66 70H94Q104 70 104 60V10Q104 0 94 0H66Q56 0 56 10V60Z"  />
<glyph unicode="/" horiz-adv-x="214" d="M155 678Q157 688 166 688H174Q185 688 183 678L59 2Q58 -8 48 -8H40Q29 -8 31 2L155 678Z"  />
<glyph unicode="0" horiz-adv-x="360" d="M69 70Q66 78 64 90T61 131T59 208T58 340Q58 422 58 471T60 549T64 589T69 610Q83 651 111 669T180 688Q220 688 248 670T291 610Q294 602 296 590T299 549T301 472T302 340Q302 258 302 209T300 131T296 91T291 70Q277 29 249 11T180 -8Q140 -8 112 10T69 70ZM96 79Q115 18 180 18Q245 18 264 79Q266 86 268 98T271 137T273 212T274 340Q274 420 274 468T272 543T268 582T264 601Q245 662 180 662Q115 662 96 601Q94 594 92 582T89 543T87 468T86 340Q86 260 86 212T88 137T92 98T96 79Z"  />
<glyph unicode="1" horiz-adv-x="360" d="M178 640H177L90 568Q79 559 79 575V586Q79 594 86 600L174 674Q181 680 188 680H196Q206 680 206 670V10Q206 0 196 0H188Q178 0 178 10V640Z"  />
<glyph unicode="2" horiz-adv-x="360" d="M61 16Q61 24 64 30L235 386Q252 421 261 453T271 528Q271 563 270 578T264 604Q245 662 180 662Q115 662 96 604Q94 598 93 592T91 577T90 553T89 518Q89 507 78 509L70 510Q61 511 61 522Q61 562 62 579T69 611Q81 648 109 668T180 688Q223 688 251 668T291 611Q296 597 297 581T299 528Q299 481 289 447T261 375L92 27V26H289Q299 26 299 16V10Q299 0 289 0H71Q61 0 61 10V16Z"  />
<glyph unicode="3" horiz-adv-x="360" d="M69 69Q67 76 66 83T63 99T62 122T61 154Q61 164 70 166L78 167Q89 169 89 158Q89 138 89 125T90 103T92 88T96 76Q115 18 180 18Q245 18 264 76Q266 82 267 88T269 105T270 134T271 181Q271 209 271 227T270 256T268 274T264 286Q245 344 175 344H158Q148 344 148 354V360Q148 370 158 370H175Q245 370 264 428Q266 434 267 440T269 455T270 479T271 515Q271 537 271 552T270 576T268 592T264 604Q245 662 180 662Q115 662 96 604Q94 598 93 592T91 577T90 555T89 522Q89 511 78 513L70 514Q61 515 61 526Q61 563 62 580T69 611Q81 648 109 668T180 688Q223 688 251 668T291 611Q293 604 294 597T297 579T298 553T299 515Q299 471 297 453T291 421Q283 398 272 384T237 358V356Q260 345 271 331T291 293Q293 286 294 279T297 259T298 229T299 181Q299 152 299 134T297 103T295 84T291 69Q279 32 251 12T180 -8Q137 -8 109 12T69 69Z"  />
<glyph unicode="4" horiz-adv-x="360" d="M38 137Q28 137 28 147V153Q28 159 30 165L170 672Q173 680 182 680H190Q200 680 197 669L58 165V163H216Q222 163 222 169V380Q222 390 232 390H240Q250 390 250 380V169Q250 163 256 163H323Q333 163 333 153V147Q333 137 323 137H256Q250 137 250 131V10Q250 0 240 0H232Q222 0 222 10V131Q222 137 216 137H38Z"  />
<glyph unicode="5" horiz-adv-x="360" d="M69 69Q67 76 66 83T63 99T62 120T61 150Q61 160 70 162L78 163Q89 165 89 154Q89 117 90 102T96 76Q115 18 180 18Q244 18 262 74Q264 80 265 87T268 108T270 147T271 213Q271 253 271 278T269 317T266 338T262 351Q244 408 180 408Q151 408 133 397T100 367Q96 362 94 360T85 358H77Q67 358 67 368V670Q67 680 77 680H289Q299 680 299 670V664Q299 654 289 654H101Q95 654 95 648V394H96Q109 412 130 423T180 434Q266 434 290 359Q292 352 294 344T297 320T298 279T299 213Q299 172 299 147T297 107T293 83T289 67Q265 -8 180 -8Q137 -8 109 12T69 69Z"  />
<glyph unicode="6" horiz-adv-x="360" d="M69 69Q67 76 66 83T63 104T62 137T61 189Q61 230 62 256T66 302T76 340T93 384L206 672Q209 680 217 680H230Q239 680 235 670L119 372L120 370Q128 377 144 382T180 387Q223 387 251 367T291 310Q293 303 294 295T297 275T298 242T299 190Q299 158 299 138T297 105T295 84T291 69Q279 32 251 12T180 -8Q137 -8 109 12T69 69ZM96 76Q115 18 180 18Q245 18 264 76Q266 82 267 88T269 107T270 138T271 190Q271 221 271 240T270 272T268 290T264 303Q245 361 180 361Q115 361 96 303Q94 297 93 291T91 272T90 241T89 190Q89 158 89 139T90 107T92 89T96 76Z"  />
<glyph unicode="7" horiz-adv-x="360" d="M287 652V654H92Q86 654 86 648V549Q86 539 76 539H68Q58 539 58 549V670Q58 680 68 680H306Q316 680 316 670V664Q316 655 313 646L127 10Q124 0 114 0H104Q95 0 98 10L287 652Z"  />
<glyph unicode="8" horiz-adv-x="360" d="M69 69Q67 76 66 83T63 103T62 133T61 181Q61 211 61 229T63 260T65 279T69 293Q77 319 91 333T120 356V357Q103 365 90 380T69 419Q67 426 66 433T63 450T62 476T61 515Q61 538 61 553T63 578T65 596T69 611Q81 648 109 668T180 688Q223 688 251 668T291 611Q293 604 294 597T297 579T298 553T299 515Q299 492 299 477T297 451T295 433T291 419Q283 396 270 381T240 357V356Q254 348 268 334T291 293Q293 286 294 279T297 260T298 230T299 181Q299 152 299 134T297 103T295 84T291 69Q279 32 251 12T180 -8Q137 -8 109 12T69 69ZM180 369Q245 369 264 427Q268 438 269 454T271 515Q271 537 271 552T270 576T268 592T264 604Q245 662 180 662Q115 662 96 604Q94 598 93 592T91 577T90 552T89 515Q89 471 90 455T96 427Q115 369 180 369ZM96 76Q115 18 180 18Q245 18 264 76Q266 82 267 88T269 105T270 134T271 181Q271 209 271 226T270 255T268 273T264 285Q245 343 180 343Q115 343 96 285Q94 279 93 273T91 256T90 227T89 181Q89 152 89 135T90 106T92 88T96 76Z"  />
<glyph unicode="9" horiz-adv-x="360" d="M241 308L240 310Q232 303 216 298T180 293Q137 293 109 313T69 370Q67 377 66 384T63 405T62 438T61 490Q61 522 61 542T63 575T65 596T69 611Q81 648 109 668T180 688Q223 688 251 668T291 611Q293 604 294 596T297 576T298 543T299 491Q299 450 298 424T294 378T284 340T267 296L154 8Q151 0 143 0H130Q121 0 125 10L241 308ZM180 319Q245 319 264 377Q266 383 267 389T269 408T270 439T271 490Q271 522 271 541T270 573T268 591T264 604Q245 662 180 662Q115 662 96 604Q94 598 93 592T91 573T90 542T89 490Q89 458 89 439T90 408T92 390T96 377Q115 319 180 319Z"  />
<glyph unicode=":" horiz-adv-x="168" d="M70 404Q60 404 60 414V464Q60 474 70 474H98Q108 474 108 464V414Q108 404 98 404H70ZM60 60Q60 70 70 70H98Q108 70 108 60V10Q108 0 98 0H70Q60 0 60 10V60Z"  />
<glyph unicode=";" horiz-adv-x="168" d="M70 404Q60 404 60 414V464Q60 474 70 474H98Q108 474 108 464V414Q108 404 98 404H70ZM63 60Q63 70 73 70H95Q105 70 105 60V6Q105 -2 104 -6T101 -17L80 -90Q77 -98 70 -98Q63 -98 63 -90V60Z"  />
<glyph unicode="&lt;" horiz-adv-x="360" d="M50 260Q40 263 40 274V278Q40 289 50 292L310 400Q320 404 320 394V384Q320 375 310 371L83 277V275L310 181Q320 177 320 168V158Q320 148 310 152L50 260Z"  />
<glyph unicode="=" horiz-adv-x="360" d="M50 330Q40 330 40 340V346Q40 356 50 356H310Q320 356 320 346V340Q320 330 310 330H50ZM50 196Q40 196 40 206V212Q40 222 50 222H310Q320 222 320 212V206Q320 196 310 196H50Z"  />
<glyph unicode="&gt;" horiz-adv-x="360" d="M50 152Q40 148 40 158V168Q40 177 50 181L277 275V277L50 371Q40 375 40 384V394Q40 404 50 400L310 292Q320 289 320 278V274Q320 263 310 260L50 152Z"  />
<glyph unicode="?" horiz-adv-x="298" d="M145 170Q135 170 135 180V250Q135 270 138 286T151 320L205 424Q221 454 227 477T234 537Q234 560 232 576T226 604Q217 632 198 647T147 662Q87 662 68 604Q64 592 62 576T60 518Q60 507 49 509L41 510Q32 511 32 522Q32 562 34 580T41 613Q52 648 79 668T147 688Q229 688 253 613Q257 602 259 584T262 537Q262 518 261 503T256 474T246 444T229 409L176 306Q168 292 166 280T163 250V180Q163 170 153 170H145ZM125 60Q125 70 135 70H163Q173 70 173 60V10Q173 0 163 0H135Q125 0 125 10V60Z"  />
<glyph unicode="@" horiz-adv-x="696" d="M78 65Q73 80 70 95T64 133T61 188T60 269Q60 317 61 349T64 403T69 442T78 473Q107 562 178 611T348 660Q446 660 517 611T618 473Q623 458 626 442T632 404T635 349T636 269Q636 229 636 205T634 166T631 143T627 128Q616 93 591 76T531 59Q497 59 474 73T439 117H437Q426 85 403 72T347 59Q271 59 250 125Q248 132 246 140T243 162T242 199T241 261Q241 299 241 322T243 360T246 382T250 397Q271 463 347 463Q373 463 392 454T421 427H423V446Q423 456 433 456H445Q455 456 455 446V174Q455 126 477 106T531 85Q584 85 601 135Q603 141 604 147T606 166T607 204T608 269Q608 317 607 349T604 403T599 439T592 466Q566 546 502 590T348 634Q259 634 195 590T104 466Q100 454 97 440T92 404T89 350T88 269Q88 221 89 189T92 135T97 99T104 72Q130 -8 194 -52T348 -96Q396 -96 433 -86T506 -51Q514 -45 520 -53L524 -58Q530 -64 522 -71Q488 -96 445 -109T348 -122Q250 -122 179 -73T78 65ZM276 136Q292 85 348 85Q404 85 420 136Q422 142 423 148T425 168T426 203T427 261Q427 297 427 319T426 354T424 373T420 386Q404 437 348 437Q292 437 276 386Q274 380 273 374T271 354T270 319T269 261Q269 225 269 203T270 168T272 149T276 136Z"  />
<glyph unicode="A" horiz-adv-x="375" d="M172 670Q175 680 183 680H194Q203 680 205 670L344 10Q345 5 342 3T334 0H324Q316 0 314 10L277 185H98L61 10Q59 0 51 0H41Q36 0 33 2T31 10L172 670ZM271 212L189 602H187L104 212H271Z"  />
<glyph unicode="B" horiz-adv-x="377" d="M74 670Q74 680 84 680H172Q214 680 243 672T291 643T317 590T326 508Q326 441 306 406T247 355V353Q266 346 281 335T308 304T326 255T332 183Q332 133 323 98T295 41T246 10T172 0H84Q74 0 74 10V670ZM180 365Q236 365 266 396T297 508Q297 550 291 578T270 622T232 646T175 653H109Q103 653 103 647V371Q103 365 109 365H180ZM103 33Q103 27 109 27H172Q207 27 232 34T272 58T295 106T303 183Q303 228 295 257T272 305T234 330T181 338H109Q103 338 103 332V33Z"  />
<glyph unicode="C" horiz-adv-x="368" d="M77 80Q73 91 71 104T67 145T65 217T64 340Q64 416 64 462T66 535T70 575T77 600Q105 688 201 688Q256 688 289 654T330 560Q331 549 324 547L316 545Q306 542 304 552Q296 603 271 632T201 661Q128 661 105 590Q102 581 100 569T96 530T94 460T93 340Q93 265 93 221T95 150T99 112T105 90Q128 19 201 19Q246 19 271 48T304 128Q306 138 316 135L324 133Q331 130 330 120Q322 61 289 27T201 -8Q105 -8 77 80Z"  />
<glyph unicode="D" horiz-adv-x="413" d="M74 670Q74 680 84 680H192Q252 680 285 655T334 583Q338 569 341 552T346 508T348 441T349 340Q349 279 349 239T346 172T341 128T334 97Q319 51 286 26T192 0H84Q74 0 74 10V670ZM103 33Q103 27 109 27H188Q236 27 264 46T305 105Q309 118 312 134T316 176T319 242T320 340Q320 398 319 437T317 503T312 545T305 575Q292 614 264 633T188 653H109Q103 653 103 647V33Z"  />
<glyph unicode="E" horiz-adv-x="339" d="M74 670Q74 680 84 680H296Q306 680 306 670V663Q306 653 296 653H109Q103 653 103 647V365Q103 359 109 359H273Q283 359 283 349V342Q283 332 273 332H109Q103 332 103 326V33Q103 27 109 27H296Q306 27 306 17V10Q306 0 296 0H84Q74 0 74 10V670Z"  />
<glyph unicode="F" horiz-adv-x="337" d="M74 670Q74 680 84 680H296Q306 680 306 670V663Q306 653 296 653H109Q103 653 103 647V361Q103 355 109 355H273Q283 355 283 345V338Q283 328 273 328H109Q103 328 103 322V10Q103 0 93 0H84Q74 0 74 10V670Z"  />
<glyph unicode="G" horiz-adv-x="407" d="M77 80Q73 91 71 104T67 145T65 217T64 340Q64 416 64 462T66 535T70 575T77 600Q91 645 123 666T204 688Q267 688 299 653T340 564Q341 553 334 551L326 549Q316 546 314 556Q306 603 281 632T204 661Q128 661 105 590Q102 581 100 569T96 530T94 460T93 340Q93 265 93 221T95 150T99 112T105 90Q128 19 204 19Q280 19 303 90Q306 99 308 111T311 146T314 207T315 309Q315 315 309 315H216Q206 315 206 325V332Q206 342 216 342H334Q344 342 344 332V307Q344 243 344 204T342 141T338 104T331 80Q317 35 285 14T204 -8Q156 -8 124 13T77 80Z"  />
<glyph unicode="H" horiz-adv-x="424" d="M74 670Q74 680 84 680H93Q103 680 103 670V370Q103 364 109 364H315Q321 364 321 370V670Q321 680 331 680H340Q350 680 350 670V10Q350 0 340 0H331Q321 0 321 10V331Q321 337 315 337H109Q103 337 103 331V10Q103 0 93 0H84Q74 0 74 10V670Z"  />
<glyph unicode="I" horiz-adv-x="177" d="M74 670Q74 680 84 680H93Q103 680 103 670V10Q103 0 93 0H84Q74 0 74 10V670Z"  />
<glyph unicode="J" horiz-adv-x="316" d="M42 25Q39 28 39 32T43 39L50 46Q56 52 63 45Q76 33 92 26T126 19Q167 19 190 45T214 128V670Q214 680 224 680H233Q243 680 243 670V129Q243 62 212 27T127 -8Q75 -8 42 25Z"  />
<glyph unicode="K" horiz-adv-x="381" d="M74 670Q74 680 84 680H93Q103 680 103 670V295L295 672Q299 680 307 680H320Q330 680 326 672L195 417L347 10Q351 0 342 0H328Q320 0 317 8L178 384L103 238V10Q103 0 93 0H84Q74 0 74 10V670Z"  />
<glyph unicode="L" horiz-adv-x="332" d="M74 670Q74 680 84 680H93Q103 680 103 670V33Q103 27 109 27H296Q306 27 306 17V10Q306 0 296 0H84Q74 0 74 10V670Z"  />
<glyph unicode="M" horiz-adv-x="507" d="M74 670Q74 680 84 680H96Q105 680 108 670L253 180H255L399 670Q402 680 411 680H423Q433 680 433 670V10Q433 0 423 0H414Q404 0 404 10V577H402L269 131Q266 121 258 121H249Q241 121 238 131L105 577H103V10Q103 0 93 0H84Q74 0 74 10V670Z"  />
<glyph unicode="N" horiz-adv-x="432" d="M74 670Q74 680 84 680H97Q110 680 114 670L327 74H329V670Q329 680 339 680H348Q358 680 358 670V10Q358 0 348 0H335Q322 0 318 10L105 609H103V10Q103 0 93 0H84Q74 0 74 10V670Z"  />
<glyph unicode="O" horiz-adv-x="408" d="M204 -8Q156 -8 124 13T77 80Q73 91 71 104T67 145T65 217T64 340Q64 416 64 462T66 535T70 575T77 600Q91 645 123 666T204 688Q252 688 284 667T331 600Q335 589 337 576T341 535T343 462T344 340Q344 263 344 218T342 145T338 105T331 80Q317 35 285 14T204 -8ZM204 19Q280 19 303 90Q306 99 308 111T311 150T314 220T315 340Q315 415 314 459T312 530T308 568T303 590Q280 661 204 661Q128 661 105 590Q102 581 100 569T96 530T94 460T93 340Q93 265 93 221T95 150T99 112T105 90Q128 19 204 19Z"  />
<glyph unicode="P" horiz-adv-x="371" d="M84 0Q74 0 74 10V670Q74 680 84 680H166Q255 680 293 636T332 488Q332 386 293 341T166 296H109Q103 296 103 290V10Q103 0 93 0H84ZM166 323Q204 323 230 332T272 361T296 412T303 488Q303 577 272 615T166 653H109Q103 653 103 647V329Q103 323 109 323H166Z"  />
<glyph unicode="Q" horiz-adv-x="408" d="M374 -6Q367 -13 360 -6L311 40Q276 -8 204 -8Q156 -8 124 13T77 80Q73 91 71 104T67 145T65 217T64 340Q64 416 64 462T66 535T70 575T77 600Q91 645 123 666T204 688Q252 688 284 667T331 600Q335 589 337 576T341 535T343 462T344 340Q344 257 344 210T341 136T336 96T326 66L380 16Q387 9 381 1L374 -6ZM204 19Q263 19 289 61L238 110Q231 117 237 125L243 131Q250 138 257 131L303 88Q306 98 308 110T312 148T314 219T315 340Q315 415 314 459T312 530T308 568T303 590Q280 661 204 661Q128 661 105 590Q102 581 100 569T96 530T94 460T93 340Q93 265 93 221T95 150T99 112T105 90Q128 19 204 19Z"  />
<glyph unicode="R" horiz-adv-x="388" d="M315 0Q307 0 304 7L214 320Q202 318 189 317T162 316H109Q103 316 103 310V10Q103 0 93 0H84Q74 0 74 10V670Q74 680 84 680H165Q209 680 240 671T291 639T320 583T329 498Q329 424 308 384T243 328L334 10Q337 0 329 0H315ZM170 343Q203 343 227 350T268 374T292 422T300 498Q300 541 293 571T270 619T230 645T170 653H109Q103 653 103 647V349Q103 343 109 343H170Z"  />
<glyph unicode="S" horiz-adv-x="364" d="M314 183Q314 129 306 93T282 34T241 2T182 -8Q116 -8 84 33T46 161Q46 170 53 172L61 174Q72 177 72 166Q78 83 105 51T182 19Q207 19 226 26T259 51T278 100T285 181Q285 250 267 282T207 331L166 347Q133 360 112 375T78 410T60 458T55 524Q55 609 86 648T181 688Q242 688 274 651T308 535Q308 526 301 524L293 522Q282 519 282 530Q279 599 256 630T181 661Q130 661 107 629T84 525Q84 460 102 429T163 381L204 365Q235 353 256 338T290 302T308 252T314 183Z"  />
<glyph unicode="T" horiz-adv-x="353" d="M172 0Q162 0 162 10V647Q162 653 156 653H29Q19 653 19 663V670Q19 680 29 680H324Q334 680 334 670V663Q334 653 324 653H197Q191 653 191 647V10Q191 0 181 0H172Z"  />
<glyph unicode="U" horiz-adv-x="422" d="M211 -8Q150 -8 112 32T73 154V670Q73 680 83 680H92Q102 680 102 670V154Q102 83 132 51T211 19Q259 19 289 51T320 154V670Q320 680 330 680H339Q349 680 349 670V154Q349 72 311 32T211 -8Z"  />
<glyph unicode="V" horiz-adv-x="367" d="M178 0Q170 0 168 10L33 670Q31 680 40 680H52Q60 680 62 670L183 81H185L305 670Q307 680 315 680H327Q336 680 334 670L199 10Q197 0 189 0H178Z"  />
<glyph unicode="W" horiz-adv-x="570" d="M396 0Q388 0 386 10L286 596H284L184 10Q182 0 174 0H163Q155 0 153 10L38 670Q36 680 45 680H57Q65 680 67 670L167 83H169L269 670Q271 680 279 680H291Q299 680 301 670L402 83H404L503 670Q505 680 513 680H525Q534 680 532 670L417 10Q415 0 407 0H396Z"  />
<glyph unicode="X" horiz-adv-x="373" d="M314 0Q306 0 303 9L187 312H186L70 9Q67 0 59 0H45Q36 0 39 10L171 353L49 670Q46 680 55 680H69Q77 680 80 671L186 394H187L293 671Q296 680 304 680H318Q327 680 324 670L202 353L334 10Q337 0 328 0H314Z"  />
<glyph unicode="Y" horiz-adv-x="345" d="M168 0Q158 0 158 10V286L28 670Q25 680 34 680H47Q55 680 58 670L172 337H174L287 670Q290 680 298 680H311Q320 680 317 670L187 286V10Q187 0 177 0H168Z"  />
<glyph unicode="Z" horiz-adv-x="327" d="M44 0Q34 0 34 10V17Q34 22 34 24T37 31L260 652V653H51Q41 653 41 663V670Q41 680 51 680H280Q290 680 290 670V663Q290 658 290 656T287 649L65 28V27H280Q290 27 290 17V10Q290 0 280 0H44Z"  />
<glyph unicode="[" horiz-adv-x="237" d="M110 -84Q100 -84 100 -74V730Q100 740 110 740H187Q197 740 197 730V724Q197 714 187 714H134Q128 714 128 708V-52Q128 -58 134 -58H187Q197 -58 197 -68V-74Q197 -84 187 -84H110Z"  />
<glyph unicode="\" horiz-adv-x="214" d="M166 -8Q156 -8 155 2L31 678Q29 688 40 688H48Q57 688 59 678L183 2Q185 -8 174 -8H166Z"  />
<glyph unicode="]" horiz-adv-x="237" d="M50 -84Q40 -84 40 -74V-68Q40 -58 50 -58H103Q109 -58 109 -52V708Q109 714 103 714H50Q40 714 40 724V730Q40 740 50 740H127Q137 740 137 730V-74Q137 -84 127 -84H50Z"  />
<glyph unicode="^" horiz-adv-x="360" d="M304 292Q294 292 291 302L181 644H179L69 302Q66 292 56 292H48Q38 292 41 302L163 670Q166 680 177 680H183Q194 680 197 670L319 302Q322 292 312 292H304Z"  />
<glyph unicode="_" horiz-adv-x="345" d="M0 -115V-89H345V-115H0Z"  />
<glyph unicode="`" horiz-adv-x="340" d="M212 560Q202 560 195 570L117 690Q115 694 116 697T122 700H135Q145 700 151 690L222 570Q227 560 217 560H212Z"  />
<glyph unicode="a" horiz-adv-x="349" d="M264 0Q254 0 254 10V60H253Q243 26 217 9T161 -8Q115 -8 84 23T53 128Q53 200 86 232T182 264H248Q254 264 254 270V334Q254 400 234 428T174 456Q144 456 124 446T89 417Q83 409 75 415L70 419Q62 425 67 433Q82 454 108 468T174 482Q226 482 254 450T282 338V10Q282 0 272 0H264ZM162 18Q201 18 227 53T254 147V232Q254 238 248 238H182Q127 238 104 213T81 128Q81 69 103 44T162 18Z"  />
<glyph unicode="b" horiz-adv-x="365" d="M193 -8Q152 -8 131 9T101 49H100V10Q100 0 90 0H82Q72 0 72 10V670Q72 680 82 680H90Q100 680 100 670V425H101Q110 447 131 464T193 482Q229 482 255 465T295 408Q298 397 300 387T304 360T305 314T306 237Q306 189 306 160T304 114T301 87T295 66Q282 27 256 10T193 -8ZM189 18Q218 18 238 31T268 75Q271 84 273 94T276 120T277 164T278 237Q278 282 278 309T276 353T273 380T268 399Q258 429 238 442T189 456Q160 456 140 441T111 399Q108 390 106 380T103 354T101 310T100 237Q100 192 100 165T102 121T106 94T111 75Q120 48 140 33T189 18Z"  />
<glyph unicode="c" horiz-adv-x="327" d="M174 -8Q95 -8 71 66Q68 76 66 86T62 113T61 159T60 237Q60 286 60 314T62 360T65 387T71 408Q95 482 174 482Q220 482 248 456T284 378Q286 370 279 367L270 364Q260 361 258 371Q250 417 230 436T174 456Q148 456 129 444T98 399Q95 390 93 381T90 356T89 311T88 237Q88 190 88 163T90 119T93 93T98 75Q109 43 128 31T174 18Q209 18 229 37T258 103Q260 113 270 110L279 107Q286 104 284 96Q276 45 248 19T174 -8Z"  />
<glyph unicode="d" horiz-adv-x="365" d="M275 0Q265 0 265 10V49H264Q255 27 234 10T172 -8Q136 -8 110 9T70 66Q67 76 65 86T61 114T60 160T59 237Q59 285 59 314T61 360T64 387T70 408Q83 447 109 464T172 482Q213 482 234 465T264 425H265V670Q265 680 275 680H283Q293 680 293 670V10Q293 0 283 0H275ZM176 18Q205 18 225 33T254 75Q257 84 259 94T262 120T264 164T265 237Q265 282 265 309T263 353T259 380T254 399Q245 426 225 441T176 456Q147 456 127 443T97 399Q94 390 92 380T89 354T88 310T87 237Q87 192 87 165T89 121T92 94T97 75Q107 45 127 32T176 18Z"  />
<glyph unicode="e" horiz-adv-x="344" d="M172 -8Q135 -8 109 10T70 66Q68 73 66 82T63 110T60 158T59 237Q59 285 60 315T62 364T66 391T70 408Q82 445 109 463T174 482Q212 482 239 464T278 408Q280 401 282 392T285 366T288 320T289 248Q289 238 279 238H93Q87 238 87 232Q87 188 87 161T89 117T93 91T97 75Q107 46 126 32T172 18Q207 18 227 35T259 95Q262 105 271 102L278 100Q287 98 284 88Q273 38 245 15T172 -8ZM255 264Q261 264 261 270Q261 304 260 326T258 363T255 385T251 399Q242 428 222 442T174 456Q146 456 126 442T97 399Q95 393 94 385T91 363T88 327T87 270Q87 264 93 264H255Z"  />
<glyph unicode="f" horiz-adv-x="219" d="M97 0Q87 0 87 10V442Q87 448 81 448H52Q42 448 42 458V464Q42 474 52 474H81Q87 474 87 480V588Q87 636 107 658T175 680H187Q197 680 197 670V664Q197 654 187 654H167Q141 654 128 640T115 594V480Q115 474 121 474H186Q196 474 196 464V458Q196 448 186 448H121Q115 448 115 442V10Q115 0 105 0H97Z"  />
<glyph unicode="g" horiz-adv-x="360" d="M173 -188Q138 -188 108 -170T68 -114Q66 -104 73 -102L81 -99Q91 -95 94 -105Q102 -134 124 -148T173 -162Q215 -162 237 -137T260 -58V49H259Q250 26 230 9T170 -8Q129 -8 105 11T69 67Q66 75 65 85T62 114T60 162T59 237Q59 283 59 312T61 359T64 388T69 407Q80 443 104 462T170 482Q210 482 230 465T259 425H260V464Q260 474 270 474H278Q288 474 288 464V-55Q288 -123 258 -155T173 -188ZM173 18Q229 18 249 75Q252 82 254 92T257 119T259 165T260 237Q260 281 260 309T258 354T254 381T249 399Q229 456 173 456Q142 456 124 442T97 399Q95 391 93 382T90 355T88 309T87 237Q87 193 87 165T89 120T93 92T97 75Q106 46 124 32T173 18Z"  />
<glyph unicode="h" horiz-adv-x="370" d="M284 0Q274 0 274 10V334Q274 394 254 425T187 456Q148 456 124 427T100 334V10Q100 0 90 0H82Q72 0 72 10V670Q72 680 82 680H90Q100 680 100 670V425H101Q109 448 131 465T191 482Q248 482 275 446T302 340V10Q302 0 292 0H284Z"  />
<glyph unicode="i" horiz-adv-x="172" d="M75 620Q65 620 65 630V670Q65 680 75 680H97Q107 680 107 670V630Q107 620 97 620H75ZM82 0Q72 0 72 10V464Q72 474 82 474H90Q100 474 100 464V10Q100 0 90 0H82Z"  />
<glyph unicode="j" horiz-adv-x="172" d="M75 620Q65 620 65 630V670Q65 680 75 680H97Q107 680 107 670V630Q107 620 97 620H75ZM32 -180Q22 -180 22 -170V-164Q22 -154 32 -154H37Q72 -154 72 -115V464Q72 474 82 474H90Q100 474 100 464V-112Q100 -180 37 -180H32Z"  />
<glyph unicode="k" horiz-adv-x="332" d="M285 0Q275 0 271 10L163 257L100 146V10Q100 0 90 0H82Q72 0 72 10V670Q72 680 82 680H90Q100 680 100 670V195L251 464Q256 474 265 474H276Q281 474 282 471T282 464L180 287L301 10Q304 0 293 0H285Z"  />
<glyph unicode="l" horiz-adv-x="196" d="M143 -1Q105 3 89 24T72 97V670Q72 680 82 680H90Q100 680 100 670V89Q100 58 110 44T146 25L151 24Q161 23 161 14V7Q161 -4 152 -2L143 -1Z"  />
<glyph unicode="m" horiz-adv-x="572" d="M486 0Q476 0 476 10V334Q476 456 388 456Q350 456 327 428T302 339V10Q302 0 292 0H284Q274 0 274 10V334Q274 394 254 425T187 456Q148 456 124 427T100 334V10Q100 0 90 0H82Q72 0 72 10V464Q72 474 82 474H90Q100 474 100 464V425H101Q109 448 131 465T191 482Q268 482 291 414H292Q303 444 328 463T391 482Q504 482 504 340V10Q504 0 494 0H486Z"  />
<glyph unicode="n" horiz-adv-x="370" d="M284 0Q274 0 274 10V334Q274 394 254 425T187 456Q148 456 124 427T100 334V10Q100 0 90 0H82Q72 0 72 10V464Q72 474 82 474H90Q100 474 100 464V425H101Q109 448 131 465T191 482Q248 482 275 446T302 340V10Q302 0 292 0H284Z"  />
<glyph unicode="o" horiz-adv-x="352" d="M176 -8Q137 -8 109 10T69 66Q66 76 64 86T61 114T60 160T59 237Q59 285 59 314T61 360T64 387T69 408Q81 445 109 463T176 482Q215 482 243 464T283 408Q286 397 288 387T291 360T292 314T293 237Q293 189 293 160T291 114T288 87T283 66Q271 29 243 11T176 -8ZM176 18Q237 18 256 75Q259 84 261 94T263 120T264 164T265 237Q265 282 265 309T264 353T261 380T256 399Q237 456 176 456Q115 456 96 399Q93 390 91 380T89 354T88 310T87 237Q87 192 87 165T88 121T91 94T96 75Q115 18 176 18Z"  />
<glyph unicode="p" horiz-adv-x="365" d="M82 -180Q72 -180 72 -170V464Q72 474 82 474H90Q100 474 100 464V425H101Q110 447 131 464T193 482Q229 482 255 465T295 408Q298 397 300 387T304 360T305 314T306 237Q306 189 306 160T304 114T301 87T295 66Q282 27 256 10T193 -8Q152 -8 131 9T101 49H100V-170Q100 -180 90 -180H82ZM189 18Q218 18 238 31T268 75Q271 84 273 94T276 120T277 164T278 237Q278 282 278 309T276 353T273 380T268 399Q258 429 238 442T189 456Q160 456 140 441T111 399Q108 390 106 380T103 354T101 310T100 237Q100 192 100 165T102 121T106 94T111 75Q120 48 140 33T189 18Z"  />
<glyph unicode="q" horiz-adv-x="365" d="M275 -180Q265 -180 265 -170V49H264Q255 27 234 10T172 -8Q136 -8 110 9T70 66Q67 76 65 86T61 114T60 160T59 237Q59 285 59 314T61 360T64 387T70 408Q83 447 109 464T172 482Q213 482 234 465T264 425H265V464Q265 474 275 474H283Q293 474 293 464V-170Q293 -180 283 -180H275ZM176 18Q205 18 225 33T254 75Q257 84 259 94T262 120T264 164T265 237Q265 282 265 309T263 353T259 380T254 399Q245 426 225 441T176 456Q147 456 127 443T97 399Q94 390 92 380T89 354T88 310T87 237Q87 192 87 165T89 121T92 94T97 75Q107 45 127 32T176 18Z"  />
<glyph unicode="r" horiz-adv-x="228" d="M82 0Q72 0 72 10V464Q72 474 82 474H90Q100 474 100 464V423H101Q108 448 128 465T177 482Q189 482 197 479Q206 475 203 466L201 461Q198 452 189 455Q181 457 174 457Q146 457 123 426T100 332V10Q100 0 90 0H82Z"  />
<glyph unicode="s" horiz-adv-x="329" d="M166 -8Q116 -8 87 21T51 110Q49 121 58 122L66 123Q76 125 78 115Q83 61 107 40T166 18Q205 18 227 40T249 120Q249 160 237 183T188 221L145 238Q100 256 80 284T59 360Q59 416 86 449T165 482Q190 482 209 474T241 452T261 420T271 381Q273 370 264 368L258 367Q248 365 246 375Q239 411 221 433T165 456Q126 456 107 431T87 360Q87 326 99 304T149 267L192 250Q242 230 259 199T277 119Q277 58 249 25T166 -8Z"  />
<glyph unicode="t" horiz-adv-x="218" d="M156 -2Q118 -2 103 15T87 71V442Q87 448 81 448H52Q42 448 42 458V464Q42 474 52 474H81Q87 474 87 480V620Q87 630 97 630H105Q115 630 115 620V480Q115 474 121 474H170Q180 474 180 464V458Q180 448 170 448H121Q115 448 115 442V70Q115 46 124 35T156 24H170Q180 24 180 14V8Q180 -2 170 -2H156Z"  />
<glyph unicode="u" horiz-adv-x="366" d="M276 0Q266 0 266 10V49H265Q257 26 236 9T177 -8Q120 -8 94 28T67 134V464Q67 474 77 474H85Q95 474 95 464V140Q95 80 114 49T181 18Q220 18 243 47T266 140V464Q266 474 276 474H284Q294 474 294 464V10Q294 0 284 0H276Z"  />
<glyph unicode="v" horiz-adv-x="324" d="M158 0Q150 0 148 10L37 464Q35 474 45 474H55Q63 474 65 464L162 70H164L259 464Q261 474 269 474H279Q289 474 287 464L176 10Q174 0 166 0H158Z"  />
<glyph unicode="w" horiz-adv-x="496" d="M339 0Q331 0 329 10L248 398H246L167 10Q165 0 157 0H149Q141 0 139 10L45 464Q43 474 53 474H63Q71 474 73 464L152 75H154L234 464Q236 474 244 474H252Q260 474 262 464L342 75H344L423 464Q425 474 433 474H443Q453 474 451 464L357 10Q355 0 347 0H339Z"  />
<glyph unicode="x" horiz-adv-x="333" d="M272 0Q264 0 260 10L167 216H166L73 10Q69 0 61 0H46Q36 0 41 10L151 247L51 464Q46 474 56 474H71Q79 474 83 464L167 277H168L252 464Q256 474 264 474H278Q288 474 283 464L182 247L292 10Q297 0 287 0H272Z"  />
<glyph unicode="y" horiz-adv-x="326" d="M61 -180Q51 -180 51 -170V-164Q51 -154 61 -154H71Q90 -154 102 -143T122 -98L149 10L39 464Q37 474 47 474H59Q67 474 69 464L163 73H165L259 464Q261 474 269 474H281Q291 474 289 464L150 -93Q138 -143 119 -161T67 -180H61Z"  />
<glyph unicode="z" horiz-adv-x="317" d="M50 0Q40 0 40 10V16Q40 20 43 26L244 447V448H60Q50 448 50 458V464Q50 474 60 474H269Q279 474 279 464V458Q279 454 276 448L74 27V26H269Q279 26 279 16V10Q279 0 269 0H50Z"  />
<glyph unicode="{" horiz-adv-x="254" d="M193 -84Q150 -84 133 -64T115 11V241Q115 279 103 296T64 318Q54 320 54 328V334Q54 342 64 344Q91 349 103 366T115 421V645Q115 699 132 719T193 740H204Q214 740 214 730V724Q214 714 204 714H191Q165 714 154 701T143 652V435Q143 385 134 364T101 332V330Q113 324 121 317T134 298T141 269T143 227V4Q143 -31 154 -44T191 -58H204Q214 -58 214 -68V-74Q214 -84 204 -84H193Z"  />
<glyph unicode="|" horiz-adv-x="208" d="M100 -84Q90 -84 90 -74V730Q90 740 100 740H108Q118 740 118 730V-74Q118 -84 108 -84H100Z"  />
<glyph unicode="}" horiz-adv-x="254" d="M50 -84Q40 -84 40 -74V-68Q40 -58 50 -58H63Q89 -58 100 -45T111 4V227Q111 252 113 269T120 297T133 316T153 330V332Q129 343 120 364T111 435V652Q111 687 100 700T63 714H50Q40 714 40 724V730Q40 740 50 740H61Q104 740 121 720T139 645V421Q139 383 151 366T190 344Q200 342 200 334V328Q200 320 190 318Q163 313 151 296T139 241V11Q139 -43 122 -63T61 -84H50Z"  />
<glyph unicode="~" horiz-adv-x="360" d="M239 238Q222 238 206 246T174 264Q160 273 146 280T120 288Q100 288 87 278T60 244Q55 236 46 240L41 243Q32 248 37 257Q51 281 70 297T121 314Q138 314 154 306T186 288Q200 279 214 272T240 264Q260 264 273 274T300 308Q305 316 314 312L319 309Q328 304 323 295Q309 271 290 255T239 238Z"  />
<glyph unicode="&#xA0;" horiz-adv-x="180" />
<glyph unicode="&#xA1;" horiz-adv-x="198" d="M102 304Q112 304 112 294L114 -196Q114 -206 104 -206H94Q84 -206 84 -196L86 294Q86 304 96 304H102ZM123 414Q123 404 113 404H85Q75 404 75 414V464Q75 474 85 474H113Q123 474 123 464V414Z"  />
<glyph unicode="&#xA2;" horiz-adv-x="360" d="M179 -103Q169 -103 169 -93V-7Q97 -1 76 66Q73 76 71 86T67 113T66 159T65 237Q65 286 65 314T67 360T70 387T76 408Q97 475 169 481V567Q169 577 179 577H185Q195 577 195 567V481Q235 478 261 455T296 386Q298 378 291 375L282 372Q272 369 270 379Q255 449 195 455V18Q257 24 270 95Q272 105 282 102L291 99Q298 96 296 88Q288 43 262 20T195 -7V-93Q195 -103 185 -103H179ZM103 75Q112 47 129 34T169 18V455Q146 453 129 440T103 399Q100 390 98 381T95 356T94 311T93 237Q93 190 93 163T95 119T98 93T103 75Z"  />
<glyph unicode="&#xA3;" horiz-adv-x="360" d="M61 0Q51 0 51 10V16Q51 21 57 27Q78 46 86 67T94 127V302Q94 308 88 308H58Q48 308 48 318V324Q48 334 58 334H88Q94 334 94 340V554Q94 620 121 654T198 688Q252 688 277 653T304 554Q304 544 296 543L289 542Q277 540 277 550Q275 610 256 636T197 662Q161 662 142 636T122 556V340Q122 334 128 334H231Q241 334 241 324V318Q241 308 231 308H128Q122 308 122 302V127Q122 85 113 63T86 27V26H299Q309 26 309 16V10Q309 0 299 0H61Z"  />
<glyph unicode="&#xA4;" horiz-adv-x="360" d="M311 187Q304 180 297 187L258 226Q225 199 180 199Q135 199 102 226L63 187Q56 180 49 187L44 192Q37 199 44 206L83 245Q71 261 64 280T57 322Q57 367 84 400L45 439Q38 446 45 453L50 458Q57 465 64 458L103 418Q136 445 180 445Q223 445 256 418L296 458Q303 465 310 458L315 453Q322 446 315 439L276 400Q303 367 303 322Q303 278 276 245L316 206Q323 199 316 192L311 187ZM180 224Q223 224 249 251T276 322Q276 365 250 392T180 420Q137 420 111 393T84 322Q84 279 110 252T180 224Z"  />
<glyph unicode="&#xA5;" horiz-adv-x="360" d="M176 0Q166 0 166 10V181Q166 187 160 187H72Q62 187 62 197V202Q62 212 72 212H160Q166 212 166 218V290Q166 296 160 296H72Q62 296 62 306V311Q62 321 72 321H157V322L44 670Q41 680 50 680H63Q71 680 74 670L180 343H182L286 670Q289 680 297 680H310Q319 680 316 670L203 322V321H288Q298 321 298 311V306Q298 296 288 296H200Q194 296 194 290V218Q194 212 200 212H288Q298 212 298 202V197Q298 187 288 187H200Q194 187 194 181V10Q194 0 184 0H176Z"  />
<glyph unicode="&#xA6;" horiz-adv-x="208" d="M100 388Q90 388 90 398V730Q90 740 100 740H108Q118 740 118 730V398Q118 388 108 388H100ZM100 -84Q90 -84 90 -74V262Q90 272 100 272H108Q118 272 118 262V-74Q118 -84 108 -84H100Z"  />
<glyph unicode="&#xA7;" horiz-adv-x="360" d="M180 -188Q136 -188 107 -169T66 -113Q61 -99 60 -84T58 -38Q58 -28 67 -26L75 -25Q86 -23 86 -34Q86 -66 88 -80T93 -105Q103 -135 125 -148T180 -162Q212 -162 234 -149T267 -105Q270 -95 272 -82T274 -43Q274 -20 273 -6T267 19Q257 50 232 66T163 91Q121 99 100 118T67 171Q62 185 60 203T58 254Q58 286 60 304T67 337Q76 364 93 382T136 409V410Q113 418 96 435T68 481Q64 492 62 506T60 545Q60 570 61 584T68 613Q80 650 108 669T178 688Q218 688 246 669T287 613Q292 599 293 584T295 538Q295 527 286 526L278 525Q267 523 267 534Q267 566 265 580T260 605Q250 635 229 648T178 662Q149 662 127 649T95 605Q92 595 90 582T88 545Q88 510 95 489Q105 458 129 442T197 417Q239 409 260 390T293 337Q298 323 300 305T302 254Q302 222 300 204T293 171Q284 144 267 126T224 99V98Q247 90 265 73T294 27Q298 16 300 1T302 -43Q302 -69 301 -84T294 -113Q282 -150 253 -169T180 -188ZM180 116Q246 116 266 176Q270 188 272 205T274 254Q274 286 272 303T266 332Q246 392 180 392Q113 392 94 332Q90 320 88 303T86 254Q86 222 88 205T94 176Q113 116 180 116Z"  />
<glyph unicode="&#xA8;" horiz-adv-x="340" d="M225 620Q215 620 215 630V670Q215 680 225 680H247Q257 680 257 670V630Q257 620 247 620H225ZM93 620Q83 620 83 630V670Q83 680 93 680H115Q125 680 125 670V630Q125 620 115 620H93Z"  />
<glyph unicode="&#xA9;" horiz-adv-x="746" d="M373 -8Q263 -8 187 44T79 193Q71 219 67 254T62 340Q62 391 66 426T79 487Q110 584 186 636T373 688Q483 688 559 636T667 487Q675 461 679 426T684 340Q684 289 680 254T667 193Q636 96 560 44T373 -8ZM373 17Q473 17 542 63T641 197Q649 222 653 256T657 340Q657 390 653 424T641 483Q612 571 543 617T373 663Q273 663 204 617T105 483Q97 458 93 424T89 340Q89 290 93 256T105 197Q134 109 203 63T373 17ZM376 143Q309 143 289 204Q287 210 286 217T283 238T282 277T281 340Q281 379 281 403T283 441T285 463T289 476Q309 537 376 537Q417 537 439 514T467 466Q469 457 461 455L454 453Q446 451 443 461Q435 481 420 496T376 512Q330 512 315 468Q313 464 312 458T310 439T309 403T308 340Q308 301 308 278T310 241T312 222T315 212Q330 168 376 168Q404 168 419 183T443 219Q446 229 454 227L461 225Q469 223 467 214Q462 189 440 166T376 143Z"  />
<glyph unicode="&#xAA;" horiz-adv-x="249" d="M179 392Q169 392 169 402V423H168Q163 409 148 399T113 388Q81 388 62 408T42 470Q42 518 65 540T128 563H163Q169 563 169 569V596Q169 633 157 647T122 661Q93 661 71 640Q63 632 57 638L53 642Q47 648 54 655Q81 685 122 685Q157 685 176 666T195 599V402Q195 392 185 392H179ZM114 412Q137 412 153 431T169 481V533Q169 539 163 539H128Q96 539 82 522T68 470Q68 412 114 412Z"  />
<glyph unicode="&#xAB;" horiz-adv-x="365" d="M164 257Q157 264 164 271L293 411Q296 414 299 413T303 407V390Q303 385 302 382T295 373L200 268Q196 264 200 260L295 155Q300 150 301 147T303 138V121Q303 116 300 115T293 117L164 257ZM43 257Q36 264 43 271L172 411Q175 414 178 413T182 407V390Q182 385 181 382T174 373L79 268Q75 264 79 260L174 155Q179 150 180 147T182 138V121Q182 116 179 115T172 117L43 257Z"  />
<glyph unicode="&#xAC;" horiz-adv-x="360" d="M302 159Q292 159 292 169V257Q292 263 286 263H50Q40 263 40 273V279Q40 289 50 289H310Q320 289 320 279V169Q320 159 310 159H302Z"  />
<glyph unicode="&#xAD;" horiz-adv-x="268" d="M50 254Q40 254 40 264V270Q40 280 50 280H218Q228 280 228 270V264Q228 254 218 254H50Z"  />
<glyph unicode="&#xAE;" horiz-adv-x="426" d="M213 304Q152 304 110 334T51 418Q46 432 44 448T41 493Q41 522 43 537T51 567Q68 620 110 651T213 682Q274 682 315 651T374 567Q379 553 381 538T384 493Q384 464 382 448T374 418Q357 365 316 335T213 304ZM213 323Q265 323 301 348T353 422Q358 436 360 452T362 493Q362 517 360 533T353 563Q337 612 301 637T213 662Q160 662 124 637T72 563Q67 549 65 533T63 493Q63 469 65 453T72 422Q88 373 124 348T213 323ZM172 388Q165 388 165 395V593Q165 600 172 600H215Q244 600 257 587T271 542Q271 501 244 489L272 395Q275 388 267 388H258Q252 388 249 395L223 485Q215 484 209 484T190 484Q186 484 186 480V395Q186 388 179 388H172ZM211 502Q232 502 241 510T250 542Q250 565 241 573T211 582H190Q186 582 186 578V506Q186 502 190 502H211Z"  />
<glyph unicode="&#xAF;" horiz-adv-x="340" d="M84 636Q74 636 74 646V652Q74 662 84 662H256Q266 662 266 652V646Q266 636 256 636H84Z"  />
<glyph unicode="&#xB0;" horiz-adv-x="312" d="M156 468Q110 468 80 498T50 574Q50 620 80 650T156 680Q202 680 232 650T262 574Q262 528 232 498T156 468ZM156 494Q191 494 212 516T234 574Q234 609 213 631T156 654Q121 654 100 632T78 574Q78 539 99 517T156 494Z"  />
<glyph unicode="&#xB1;" horiz-adv-x="360" d="M176 136Q166 136 166 146V257Q166 263 160 263H50Q40 263 40 273V279Q40 289 50 289H160Q166 289 166 295V406Q166 416 176 416H184Q194 416 194 406V295Q194 289 200 289H310Q320 289 320 279V273Q320 263 310 263H200Q194 263 194 257V146Q194 136 184 136H176ZM50 0Q40 0 40 10V16Q40 26 50 26H310Q320 26 320 16V10Q320 0 310 0H50Z"  />
<glyph unicode="&#xB2;" horiz-adv-x="248" d="M50 430Q40 430 40 440V449Q40 457 44 464L160 664Q169 680 175 697T182 738Q182 756 181 765T177 782Q172 799 159 808T124 818Q102 818 89 809T71 782Q69 775 68 766T66 740Q66 730 56 731L49 732Q40 733 40 744Q40 760 41 770T46 790Q63 842 124 842Q185 842 202 790Q205 781 206 770T208 738Q208 709 199 687T175 639L66 455V454H198Q208 454 208 444V440Q208 430 198 430H50Z"  />
<glyph unicode="&#xB3;" horiz-adv-x="248" d="M124 424Q63 424 46 476Q40 494 40 520Q40 530 49 532L56 533Q66 534 66 524Q66 509 67 500T71 484Q76 467 89 458T124 448Q146 448 159 457T177 484Q179 491 180 502T182 542Q182 573 182 582T179 597Q168 630 125 630H117Q107 630 107 640V644Q107 654 117 654H124Q168 654 178 686Q180 693 181 703T182 736Q182 756 181 765T177 782Q172 799 159 808T124 818Q102 818 89 809T71 782Q69 775 68 766T66 742Q66 732 56 733L49 734Q40 735 40 746Q40 772 46 790Q63 842 124 842Q185 842 202 790Q205 781 206 770T208 736Q208 710 207 699T203 679Q195 654 170 643V642Q195 632 203 607Q206 598 207 586T208 542Q208 511 207 498T202 476Q185 424 124 424Z"  />
<glyph unicode="&#xB4;" horiz-adv-x="340" d="M123 560Q113 560 118 570L189 690Q195 700 205 700H218Q223 700 224 697T223 690L145 570Q140 564 137 562T128 560H123Z"  />
<glyph unicode="&#xB5;" horiz-adv-x="371" d="M281 0Q271 0 271 10V49H270Q262 26 241 9T182 -8Q156 -8 134 2T100 36V-170Q100 -180 90 -180H82Q72 -180 72 -170V464Q72 474 82 474H90Q100 474 100 464V140Q100 80 119 49T186 18Q225 18 248 47T271 140V464Q271 474 281 474H289Q299 474 299 464V10Q299 0 289 0H281Z"  />
<glyph unicode="&#xB6;" horiz-adv-x="384" d="M284 -180Q274 -180 274 -170V648Q274 654 268 654H227Q221 654 221 648V-170Q221 -180 211 -180H203Q193 -180 193 -170V258Q127 274 94 328T60 469Q60 512 71 550T105 618T160 663T235 680H292Q302 680 302 670V-170Q302 -180 292 -180H284Z"  />
<glyph unicode="&#xB7;" horiz-adv-x="160" d="M66 231Q56 231 56 241V291Q56 301 66 301H94Q104 301 104 291V241Q104 231 94 231H66Z"  />
<glyph unicode="&#xB8;" horiz-adv-x="340" d="M182 0Q186 10 195 10H202Q212 10 209 0L166 -135Q163 -145 150 -145H141Q131 -145 134 -135L182 0Z"  />
<glyph unicode="&#xB9;" horiz-adv-x="248" d="M135 430Q125 430 125 440V803H124L70 763Q66 760 63 761T60 767V778Q60 785 66 790L119 830Q126 836 135 836H141Q151 836 151 826V440Q151 430 141 430H135Z"  />
<glyph unicode="&#xBA;" horiz-adv-x="268" d="M134 389Q74 389 57 442Q55 448 54 453T52 469T51 494T51 537Q51 564 51 579T52 605T54 620T57 632Q74 685 134 685Q194 685 211 632Q213 626 214 621T216 605T217 580T217 537Q217 510 217 495T216 469T214 454T211 442Q194 389 134 389ZM134 413Q174 413 186 450Q187 453 188 457T189 471T190 495T191 537Q191 562 191 578T190 603T188 616T186 624Q174 661 134 661Q94 661 82 624Q81 621 80 617T79 603T78 578T77 537Q77 511 77 496T78 471T80 458T82 450Q94 413 134 413Z"  />
<glyph unicode="&#xBB;" horiz-adv-x="365" d="M193 117Q190 114 187 115T183 121V138Q183 143 184 146T191 155L286 260Q290 264 286 268L191 373Q186 378 185 381T183 390V407Q183 412 186 413T193 411L322 271Q329 264 322 257L193 117ZM72 117Q69 114 66 115T62 121V138Q62 143 63 146T70 155L165 260Q169 264 165 268L70 373Q65 378 64 381T62 390V407Q62 412 65 413T72 411L201 271Q208 264 201 257L72 117Z"  />
<glyph unicode="&#xBC;" horiz-adv-x="635" d="M176 -8Q166 -8 169 2L401 678Q405 688 414 688H422Q432 688 429 678L197 2Q193 -8 184 -8H176ZM155 274Q145 274 145 284V647H144L90 607Q86 604 83 605T80 611V622Q80 629 86 634L139 674Q146 680 155 680H161Q171 680 171 670V284Q171 274 161 274H155ZM484 1Q474 1 474 11V78Q474 84 468 84H357Q347 84 347 94V100Q347 105 347 107T350 115L439 397Q442 407 450 407H458Q468 407 465 397L375 109V108H468Q474 108 474 114V224Q474 234 484 234H490Q500 234 500 224V114Q500 108 506 108H545Q555 108 555 98V94Q555 84 545 84H506Q500 84 500 78V11Q500 1 490 1H484Z"  />
<glyph unicode="&#xBD;" horiz-adv-x="654" d="M176 -8Q166 -8 169 2L401 678Q405 688 414 688H422Q432 688 429 678L197 2Q193 -8 184 -8H176ZM155 274Q145 274 145 284V647H144L90 607Q86 604 83 605T80 611V622Q80 629 86 634L139 674Q146 680 155 680H161Q171 680 171 670V284Q171 274 161 274H155ZM416 1Q406 1 406 11V20Q406 28 410 35L526 235Q535 251 541 268T548 309Q548 327 547 336T543 353Q538 370 525 379T490 389Q468 389 455 380T437 353Q435 346 434 337T432 311Q432 301 422 302L415 303Q406 304 406 315Q406 331 407 341T412 361Q429 413 490 413Q551 413 568 361Q571 352 572 341T574 309Q574 280 565 258T541 210L432 26V25H564Q574 25 574 15V11Q574 1 564 1H416Z"  />
<glyph unicode="&#xBE;" horiz-adv-x="691" d="M232 -8Q222 -8 225 2L457 678Q461 688 470 688H478Q488 688 485 678L253 2Q249 -8 240 -8H232ZM164 268Q103 268 86 320Q80 338 80 364Q80 374 89 376L96 377Q106 378 106 368Q106 353 107 344T111 328Q116 311 129 302T164 292Q186 292 199 301T217 328Q219 335 220 346T222 386Q222 417 222 426T219 441Q208 474 165 474H157Q147 474 147 484V488Q147 498 157 498H164Q208 498 218 530Q220 537 221 547T222 580Q222 600 221 609T217 626Q212 643 199 652T164 662Q142 662 129 653T111 626Q109 619 108 610T106 586Q106 576 96 577L89 578Q80 579 80 590Q80 616 86 634Q103 686 164 686Q225 686 242 634Q245 625 246 614T248 580Q248 554 247 543T243 523Q235 498 210 487V486Q235 476 243 451Q246 442 247 430T248 386Q248 355 247 342T242 320Q225 268 164 268ZM540 1Q530 1 530 11V78Q530 84 524 84H413Q403 84 403 94V100Q403 105 403 107T406 115L495 397Q498 407 506 407H514Q524 407 521 397L431 109V108H524Q530 108 530 114V224Q530 234 540 234H546Q556 234 556 224V114Q556 108 562 108H601Q611 108 611 98V94Q611 84 601 84H562Q556 84 556 78V11Q556 1 546 1H540Z"  />
<glyph unicode="&#xBF;" horiz-adv-x="298" d="M153 304Q163 304 163 294V224Q163 204 160 188T147 154L93 50Q77 20 71 -3T64 -63Q64 -86 66 -102T72 -130Q81 -158 100 -173T151 -188Q211 -188 230 -130Q234 -118 236 -102T238 -44Q238 -33 249 -35L257 -36Q266 -37 266 -48Q266 -88 264 -106T257 -139Q246 -174 219 -194T151 -214Q69 -214 45 -139Q41 -128 39 -110T36 -63Q36 -44 37 -29T42 0T52 30T69 65L122 168Q130 182 132 194T135 224V294Q135 304 145 304H153ZM173 414Q173 404 163 404H135Q125 404 125 414V464Q125 474 135 474H163Q173 474 173 464V414Z"  />
<glyph unicode="&#xC0;" horiz-adv-x="375" d="M172 670Q175 680 183 680H194Q203 680 205 670L344 10Q345 5 342 3T334 0H324Q316 0 314 10L277 185H98L61 10Q59 0 51 0H41Q36 0 33 2T31 10L172 670ZM271 212L189 602H187L104 212H271ZM190 766Q182 766 173 776L91 878Q88 882 89 885T95 888H108Q115 888 118 886T125 878L200 776Q203 772 202 769T196 766H190Z"  />
<glyph unicode="&#xC1;" horiz-adv-x="375" d="M172 670Q175 680 183 680H194Q203 680 205 670L344 10Q345 5 342 3T334 0H324Q316 0 314 10L277 185H98L61 10Q59 0 51 0H41Q36 0 33 2T31 10L172 670ZM271 212L189 602H187L104 212H271ZM187 766Q182 766 181 769T183 776L258 878Q262 883 265 885T275 888H288Q293 888 294 885T292 878L210 776Q201 766 193 766H187Z"  />
<glyph unicode="&#xC2;" horiz-adv-x="375" d="M172 670Q175 680 183 680H194Q203 680 205 670L344 10Q345 5 342 3T334 0H324Q316 0 314 10L277 185H98L61 10Q59 0 51 0H41Q36 0 33 2T31 10L172 670ZM271 212L189 602H187L104 212H271ZM263 755Q255 755 249 765L188 863H186L125 765Q119 755 111 755H104Q93 755 98 765L170 886Q175 895 184 895H190Q199 895 204 886L276 765Q281 755 270 755H263Z"  />
<glyph unicode="&#xC3;" horiz-adv-x="375" d="M172 670Q175 680 183 680H194Q203 680 205 670L344 10Q345 5 342 3T334 0H324Q316 0 314 10L277 185H98L61 10Q59 0 51 0H41Q36 0 33 2T31 10L172 670ZM271 212L189 602H187L104 212H271ZM223 794Q209 794 199 800T180 815Q172 822 165 827T150 832Q139 832 131 825T114 802Q111 797 107 798T103 804V820Q103 828 109 835Q117 846 127 852T151 858Q165 858 175 852T194 837Q202 830 209 825T224 820Q235 820 243 827T260 850Q263 855 267 854T271 848V832Q271 824 265 817Q257 806 247 800T223 794Z"  />
<glyph unicode="&#xC4;" horiz-adv-x="375" d="M172 670Q175 680 183 680H194Q203 680 205 670L344 10Q345 5 342 3T334 0H324Q316 0 314 10L277 185H98L61 10Q59 0 51 0H41Q36 0 33 2T31 10L172 670ZM271 212L189 602H187L104 212H271ZM242 795Q232 795 232 805V845Q232 855 242 855H264Q274 855 274 845V805Q274 795 264 795H242ZM110 795Q100 795 100 805V845Q100 855 110 855H132Q142 855 142 845V805Q142 795 132 795H110Z"  />
<glyph unicode="&#xC5;" horiz-adv-x="375" d="M172 670Q175 680 183 680H194Q203 680 205 670L344 10Q345 5 342 3T334 0H324Q316 0 314 10L277 185H98L61 10Q59 0 51 0H41Q36 0 33 2T31 10L172 670ZM271 212L189 602H187L104 212H271ZM187 752Q153 752 132 773T110 829Q110 863 131 884T187 906Q221 906 242 885T264 829Q264 795 243 774T187 752ZM187 776Q210 776 224 791T238 829Q238 852 224 867T187 882Q164 882 150 867T136 829Q136 806 150 791T187 776Z"  />
<glyph unicode="&#xC6;" horiz-adv-x="572" d="M317 0Q307 0 307 10V179Q307 185 301 185H130L61 10Q57 0 48 0H38Q28 0 31 10L289 670Q292 680 302 680H529Q539 680 539 670V663Q539 653 529 653H342Q336 653 336 647V365Q336 359 342 359H506Q516 359 516 349V342Q516 332 506 332H342Q336 332 336 326V33Q336 27 342 27H529Q539 27 539 17V10Q539 0 529 0H317ZM140 212H301Q307 212 307 218V631H305L140 212Z"  />
<glyph unicode="&#xC7;" horiz-adv-x="368" d="M185 -7Q102 -1 77 80Q73 91 71 104T67 145T65 217T64 340Q64 416 64 462T66 535T70 575T77 600Q105 688 201 688Q256 688 289 654T330 560Q331 549 324 547L316 545Q306 542 304 552Q296 603 271 632T201 661Q128 661 105 590Q102 581 100 569T96 530T94 460T93 340Q93 265 93 221T95 150T99 112T105 90Q128 19 201 19Q246 19 271 48T304 128Q306 138 316 135L324 133Q331 130 330 120Q322 64 292 31T212 -7L172 -135Q169 -145 156 -145H147Q137 -145 140 -135L185 -7Z"  />
<glyph unicode="&#xC8;" horiz-adv-x="339" d="M74 670Q74 680 84 680H296Q306 680 306 670V663Q306 653 296 653H109Q103 653 103 647V365Q103 359 109 359H273Q283 359 283 349V342Q283 332 273 332H109Q103 332 103 326V33Q103 27 109 27H296Q306 27 306 17V10Q306 0 296 0H84Q74 0 74 10V670ZM197 766Q189 766 180 776L98 878Q95 882 96 885T102 888H115Q122 888 125 886T132 878L207 776Q210 772 209 769T203 766H197Z"  />
<glyph unicode="&#xC9;" horiz-adv-x="339" d="M74 670Q74 680 84 680H296Q306 680 306 670V663Q306 653 296 653H109Q103 653 103 647V365Q103 359 109 359H273Q283 359 283 349V342Q283 332 273 332H109Q103 332 103 326V33Q103 27 109 27H296Q306 27 306 17V10Q306 0 296 0H84Q74 0 74 10V670ZM170 766Q165 766 164 769T166 776L241 878Q245 883 248 885T258 888H271Q276 888 277 885T275 878L193 776Q184 766 176 766H170Z"  />
<glyph unicode="&#xCA;" horiz-adv-x="339" d="M74 670Q74 680 84 680H296Q306 680 306 670V663Q306 653 296 653H109Q103 653 103 647V365Q103 359 109 359H273Q283 359 283 349V342Q283 332 273 332H109Q103 332 103 326V33Q103 27 109 27H296Q306 27 306 17V10Q306 0 296 0H84Q74 0 74 10V670ZM262 755Q254 755 248 765L187 863H185L124 765Q118 755 110 755H103Q92 755 97 765L169 886Q174 895 183 895H189Q198 895 203 886L275 765Q280 755 269 755H262Z"  />
<glyph unicode="&#xCB;" horiz-adv-x="339" d="M74 670Q74 680 84 680H296Q306 680 306 670V663Q306 653 296 653H109Q103 653 103 647V365Q103 359 109 359H273Q283 359 283 349V342Q283 332 273 332H109Q103 332 103 326V33Q103 27 109 27H296Q306 27 306 17V10Q306 0 296 0H84Q74 0 74 10V670ZM240 795Q230 795 230 805V845Q230 855 240 855H262Q272 855 272 845V805Q272 795 262 795H240ZM108 795Q98 795 98 805V845Q98 855 108 855H130Q140 855 140 845V805Q140 795 130 795H108Z"  />
<glyph unicode="&#xCC;" horiz-adv-x="177" d="M74 670Q74 680 84 680H93Q103 680 103 670V10Q103 0 93 0H84Q74 0 74 10V670ZM91 766Q83 766 74 776L-8 878Q-11 882 -10 885T-4 888H9Q16 888 19 886T26 878L101 776Q104 772 103 769T97 766H91Z"  />
<glyph unicode="&#xCD;" horiz-adv-x="177" d="M74 670Q74 680 84 680H93Q103 680 103 670V10Q103 0 93 0H84Q74 0 74 10V670ZM86 766Q81 766 80 769T82 776L157 878Q161 883 164 885T174 888H187Q192 888 193 885T191 878L109 776Q100 766 92 766H86Z"  />
<glyph unicode="&#xCE;" horiz-adv-x="177" d="M74 670Q74 680 84 680H93Q103 680 103 670V10Q103 0 93 0H84Q74 0 74 10V670ZM166 755Q158 755 152 765L91 863H89L28 765Q22 755 14 755H7Q-4 755 1 765L73 886Q78 895 87 895H93Q102 895 107 886L179 765Q184 755 173 755H166Z"  />
<glyph unicode="&#xCF;" horiz-adv-x="177" d="M74 670Q74 680 84 680H93Q103 680 103 670V10Q103 0 93 0H84Q74 0 74 10V670ZM145 795Q135 795 135 805V845Q135 855 145 855H167Q177 855 177 845V805Q177 795 167 795H145ZM13 795Q3 795 3 805V845Q3 855 13 855H35Q45 855 45 845V805Q45 795 35 795H13Z"  />
<glyph unicode="&#xD0;" horiz-adv-x="413" d="M84 0Q74 0 74 10V327Q74 333 68 333H31Q21 333 21 343V349Q21 359 31 359H68Q74 359 74 365V670Q74 680 84 680H193Q253 680 286 655T334 583Q338 569 341 552T346 508T348 441T349 340Q349 279 349 239T346 172T341 128T334 97Q319 51 286 26T193 0H84ZM189 27Q237 27 264 46T305 105Q309 118 312 134T316 176T319 242T320 340Q320 398 319 437T317 503T312 545T305 575Q292 614 265 633T189 653H109Q103 653 103 647V365Q103 359 109 359H192Q202 359 202 349V343Q202 333 192 333H109Q103 333 103 327V33Q103 27 109 27H189Z"  />
<glyph unicode="&#xD1;" horiz-adv-x="432" d="M74 670Q74 680 84 680H97Q110 680 114 670L327 74H329V670Q329 680 339 680H348Q358 680 358 670V10Q358 0 348 0H335Q322 0 318 10L105 609H103V10Q103 0 93 0H84Q74 0 74 10V670ZM252 794Q238 794 228 800T209 815Q201 822 194 827T179 832Q168 832 160 825T143 802Q140 797 136 798T132 804V820Q132 828 138 835Q146 846 156 852T180 858Q194 858 204 852T223 837Q231 830 238 825T253 820Q264 820 272 827T289 850Q292 855 296 854T300 848V832Q300 824 294 817Q286 806 276 800T252 794Z"  />
<glyph unicode="&#xD2;" horiz-adv-x="408" d="M204 -8Q156 -8 124 13T77 80Q73 91 71 104T67 145T65 217T64 340Q64 416 64 462T66 535T70 575T77 600Q91 645 123 666T204 688Q252 688 284 667T331 600Q335 589 337 576T341 535T343 462T344 340Q344 263 344 218T342 145T338 105T331 80Q317 35 285 14T204 -8ZM204 19Q280 19 303 90Q306 99 308 111T311 150T314 220T315 340Q315 415 314 459T312 530T308 568T303 590Q280 661 204 661Q128 661 105 590Q102 581 100 569T96 530T94 460T93 340Q93 265 93 221T95 150T99 112T105 90Q128 19 204 19ZM209 766Q201 766 192 776L110 878Q107 882 108 885T114 888H127Q134 888 137 886T144 878L219 776Q222 772 221 769T215 766H209Z"  />
<glyph unicode="&#xD3;" horiz-adv-x="408" d="M204 -8Q156 -8 124 13T77 80Q73 91 71 104T67 145T65 217T64 340Q64 416 64 462T66 535T70 575T77 600Q91 645 123 666T204 688Q252 688 284 667T331 600Q335 589 337 576T341 535T343 462T344 340Q344 263 344 218T342 145T338 105T331 80Q317 35 285 14T204 -8ZM204 19Q280 19 303 90Q306 99 308 111T311 150T314 220T315 340Q315 415 314 459T312 530T308 568T303 590Q280 661 204 661Q128 661 105 590Q102 581 100 569T96 530T94 460T93 340Q93 265 93 221T95 150T99 112T105 90Q128 19 204 19ZM193 766Q188 766 187 769T189 776L264 878Q268 883 271 885T281 888H294Q299 888 300 885T298 878L216 776Q207 766 199 766H193Z"  />
<glyph unicode="&#xD4;" horiz-adv-x="408" d="M204 -8Q156 -8 124 13T77 80Q73 91 71 104T67 145T65 217T64 340Q64 416 64 462T66 535T70 575T77 600Q91 645 123 666T204 688Q252 688 284 667T331 600Q335 589 337 576T341 535T343 462T344 340Q344 263 344 218T342 145T338 105T331 80Q317 35 285 14T204 -8ZM204 19Q280 19 303 90Q306 99 308 111T311 150T314 220T315 340Q315 415 314 459T312 530T308 568T303 590Q280 661 204 661Q128 661 105 590Q102 581 100 569T96 530T94 460T93 340Q93 265 93 221T95 150T99 112T105 90Q128 19 204 19ZM280 755Q272 755 266 765L205 863H203L142 765Q136 755 128 755H121Q110 755 115 765L187 886Q192 895 201 895H207Q216 895 221 886L293 765Q298 755 287 755H280Z"  />
<glyph unicode="&#xD5;" horiz-adv-x="408" d="M204 -8Q156 -8 124 13T77 80Q73 91 71 104T67 145T65 217T64 340Q64 416 64 462T66 535T70 575T77 600Q91 645 123 666T204 688Q252 688 284 667T331 600Q335 589 337 576T341 535T343 462T344 340Q344 263 344 218T342 145T338 105T331 80Q317 35 285 14T204 -8ZM204 19Q280 19 303 90Q306 99 308 111T311 150T314 220T315 340Q315 415 314 459T312 530T308 568T303 590Q280 661 204 661Q128 661 105 590Q102 581 100 569T96 530T94 460T93 340Q93 265 93 221T95 150T99 112T105 90Q128 19 204 19ZM240 794Q226 794 216 800T197 815Q189 822 182 827T167 832Q156 832 148 825T131 802Q128 797 124 798T120 804V820Q120 828 126 835Q134 846 144 852T168 858Q182 858 192 852T211 837Q219 830 226 825T241 820Q252 820 260 827T277 850Q280 855 284 854T288 848V832Q288 824 282 817Q274 806 264 800T240 794Z"  />
<glyph unicode="&#xD6;" horiz-adv-x="408" d="M204 -8Q156 -8 124 13T77 80Q73 91 71 104T67 145T65 217T64 340Q64 416 64 462T66 535T70 575T77 600Q91 645 123 666T204 688Q252 688 284 667T331 600Q335 589 337 576T341 535T343 462T344 340Q344 263 344 218T342 145T338 105T331 80Q317 35 285 14T204 -8ZM204 19Q280 19 303 90Q306 99 308 111T311 150T314 220T315 340Q315 415 314 459T312 530T308 568T303 590Q280 661 204 661Q128 661 105 590Q102 581 100 569T96 530T94 460T93 340Q93 265 93 221T95 150T99 112T105 90Q128 19 204 19ZM259 795Q249 795 249 805V845Q249 855 259 855H281Q291 855 291 845V805Q291 795 281 795H259ZM127 795Q117 795 117 805V845Q117 855 127 855H149Q159 855 159 845V805Q159 795 149 795H127Z"  />
<glyph unicode="&#xD7;" horiz-adv-x="360" d="M288 164Q281 155 274 164L184 253Q180 257 176 253L86 164Q79 155 72 164L68 168Q59 175 68 182L157 272Q161 276 157 280L68 370Q59 377 68 384L72 388Q79 397 86 388L176 299Q180 295 184 299L274 388Q281 397 288 388L292 384Q301 377 292 370L203 280Q199 276 203 272L292 182Q301 175 292 168L288 164Z"  />
<glyph unicode="&#xD8;" horiz-adv-x="408" d="M78 -30Q67 -30 70 -20L92 47Q83 60 77 80Q73 91 71 104T67 145T65 217T64 340Q64 416 64 462T66 535T70 575T77 600Q91 645 123 666T204 688Q262 688 296 657L310 700Q313 710 322 710H330Q341 710 338 700L315 633Q325 619 331 600Q335 589 337 576T341 535T343 462T344 340Q344 263 344 218T342 145T338 105T331 80Q317 35 285 14T204 -8Q146 -8 112 23L98 -20Q95 -30 86 -30H78ZM93 340Q93 265 94 221T96 150T100 111T106 88L285 626Q257 661 204 661Q128 661 105 590Q102 581 100 569T96 530T94 460T93 340ZM204 19Q280 19 303 90Q306 99 308 111T311 150T314 220T315 340Q315 415 314 460T312 531T308 570T302 593L122 55Q149 19 204 19Z"  />
<glyph unicode="&#xD9;" horiz-adv-x="422" d="M211 -8Q150 -8 112 32T73 154V670Q73 680 83 680H92Q102 680 102 670V154Q102 83 132 51T211 19Q259 19 289 51T320 154V670Q320 680 330 680H339Q349 680 349 670V154Q349 72 311 32T211 -8ZM222 766Q214 766 205 776L123 878Q120 882 121 885T127 888H140Q147 888 150 886T157 878L232 776Q235 772 234 769T228 766H222Z"  />
<glyph unicode="&#xDA;" horiz-adv-x="422" d="M211 -8Q150 -8 112 32T73 154V670Q73 680 83 680H92Q102 680 102 670V154Q102 83 132 51T211 19Q259 19 289 51T320 154V670Q320 680 330 680H339Q349 680 349 670V154Q349 72 311 32T211 -8ZM202 766Q197 766 196 769T198 776L273 878Q277 883 280 885T290 888H303Q308 888 309 885T307 878L225 776Q216 766 208 766H202Z"  />
<glyph unicode="&#xDB;" horiz-adv-x="422" d="M211 -8Q150 -8 112 32T73 154V670Q73 680 83 680H92Q102 680 102 670V154Q102 83 132 51T211 19Q259 19 289 51T320 154V670Q320 680 330 680H339Q349 680 349 670V154Q349 72 311 32T211 -8ZM287 755Q279 755 273 765L212 863H210L149 765Q143 755 135 755H128Q117 755 122 765L194 886Q199 895 208 895H214Q223 895 228 886L300 765Q305 755 294 755H287Z"  />
<glyph unicode="&#xDC;" horiz-adv-x="422" d="M211 -8Q150 -8 112 32T73 154V670Q73 680 83 680H92Q102 680 102 670V154Q102 83 132 51T211 19Q259 19 289 51T320 154V670Q320 680 330 680H339Q349 680 349 670V154Q349 72 311 32T211 -8ZM266 795Q256 795 256 805V845Q256 855 266 855H288Q298 855 298 845V805Q298 795 288 795H266ZM134 795Q124 795 124 805V845Q124 855 134 855H156Q166 855 166 845V805Q166 795 156 795H134Z"  />
<glyph unicode="&#xDD;" horiz-adv-x="345" d="M168 0Q158 0 158 10V286L28 670Q25 680 34 680H47Q55 680 58 670L172 337H174L287 670Q290 680 298 680H311Q320 680 317 670L187 286V10Q187 0 177 0H168ZM166 766Q161 766 160 769T162 776L237 878Q241 883 244 885T254 888H267Q272 888 273 885T271 878L189 776Q180 766 172 766H166Z"  />
<glyph unicode="&#xDE;" horiz-adv-x="371" d="M109 154Q103 154 103 148V10Q103 0 93 0H84Q74 0 74 10V670Q74 680 84 680H93Q103 680 103 670V544Q103 538 109 538H166Q255 538 293 494T332 346Q332 244 293 199T166 154H109ZM166 181Q204 181 230 190T272 219T296 270T303 346Q303 435 272 473T166 511H109Q103 511 103 505V187Q103 181 109 181H166Z"  />
<glyph unicode="&#xDF;" horiz-adv-x="383" d="M201 -2Q191 -2 191 8V14Q191 24 201 24H207Q237 24 256 35T285 76Q287 83 289 92T292 116T293 156T294 218Q294 255 294 279T292 318T289 342T285 358Q275 387 256 399T207 412H201Q191 412 191 422V428Q191 438 201 438H206Q235 438 254 447T281 481Q283 488 284 494T287 508T288 526T289 552Q289 611 264 636T193 662Q150 662 125 637T100 553V10Q100 0 90 0H82Q72 0 72 10V552Q72 622 104 655T193 688Q251 688 284 655T317 552Q317 492 305 465T258 427V425Q275 420 289 407T312 367Q315 359 316 350T319 324T321 283T322 218Q322 178 322 153T320 111T317 86T312 68Q300 30 274 14T207 -2H201Z"  />
<glyph unicode="&#xE0;" horiz-adv-x="349" d="M264 0Q254 0 254 10V60H253Q243 26 217 9T161 -8Q115 -8 84 23T53 128Q53 200 86 232T182 264H248Q254 264 254 270V334Q254 400 234 428T174 456Q144 456 124 446T89 417Q83 409 75 415L70 419Q62 425 67 433Q82 454 108 468T174 482Q226 482 254 450T282 338V10Q282 0 272 0H264ZM162 18Q201 18 227 53T254 147V232Q254 238 248 238H182Q127 238 104 213T81 128Q81 69 103 44T162 18ZM184 560Q174 560 167 570L89 690Q87 694 88 697T94 700H107Q117 700 123 690L194 570Q199 560 189 560H184Z"  />
<glyph unicode="&#xE1;" horiz-adv-x="349" d="M264 0Q254 0 254 10V60H253Q243 26 217 9T161 -8Q115 -8 84 23T53 128Q53 200 86 232T182 264H248Q254 264 254 270V334Q254 400 234 428T174 456Q144 456 124 446T89 417Q83 409 75 415L70 419Q62 425 67 433Q82 454 108 468T174 482Q226 482 254 450T282 338V10Q282 0 272 0H264ZM162 18Q201 18 227 53T254 147V232Q254 238 248 238H182Q127 238 104 213T81 128Q81 69 103 44T162 18ZM164 560Q154 560 159 570L230 690Q236 700 246 700H259Q264 700 265 697T264 690L186 570Q181 564 178 562T169 560H164Z"  />
<glyph unicode="&#xE2;" horiz-adv-x="349" d="M264 0Q254 0 254 10V60H253Q243 26 217 9T161 -8Q115 -8 84 23T53 128Q53 200 86 232T182 264H248Q254 264 254 270V334Q254 400 234 428T174 456Q144 456 124 446T89 417Q83 409 75 415L70 419Q62 425 67 433Q82 454 108 468T174 482Q226 482 254 450T282 338V10Q282 0 272 0H264ZM162 18Q201 18 227 53T254 147V232Q254 238 248 238H182Q127 238 104 213T81 128Q81 69 103 44T162 18ZM248 560Q240 560 234 570L173 668H171L110 570Q104 560 96 560H89Q78 560 83 570L155 691Q160 700 169 700H175Q184 700 189 691L261 570Q266 560 255 560H248Z"  />
<glyph unicode="&#xE3;" horiz-adv-x="349" d="M264 0Q254 0 254 10V60H253Q243 26 217 9T161 -8Q115 -8 84 23T53 128Q53 200 86 232T182 264H248Q254 264 254 270V334Q254 400 234 428T174 456Q144 456 124 446T89 417Q83 409 75 415L70 419Q62 425 67 433Q82 454 108 468T174 482Q226 482 254 450T282 338V10Q282 0 272 0H264ZM162 18Q201 18 227 53T254 147V232Q254 238 248 238H182Q127 238 104 213T81 128Q81 69 103 44T162 18ZM210 611Q196 611 186 617T167 632Q159 639 152 644T137 649Q126 649 118 642T101 619Q98 614 94 615T90 621V637Q90 645 96 652Q104 663 114 669T138 675Q152 675 162 669T181 654Q189 647 196 642T211 637Q222 637 230 644T247 667Q250 672 254 671T258 665V649Q258 641 252 634Q244 623 234 617T210 611Z"  />
<glyph unicode="&#xE4;" horiz-adv-x="349" d="M264 0Q254 0 254 10V60H253Q243 26 217 9T161 -8Q115 -8 84 23T53 128Q53 200 86 232T182 264H248Q254 264 254 270V334Q254 400 234 428T174 456Q144 456 124 446T89 417Q83 409 75 415L70 419Q62 425 67 433Q82 454 108 468T174 482Q226 482 254 450T282 338V10Q282 0 272 0H264ZM162 18Q201 18 227 53T254 147V232Q254 238 248 238H182Q127 238 104 213T81 128Q81 69 103 44T162 18ZM229 620Q219 620 219 630V670Q219 680 229 680H251Q261 680 261 670V630Q261 620 251 620H229ZM97 620Q87 620 87 630V670Q87 680 97 680H119Q129 680 129 670V630Q129 620 119 620H97Z"  />
<glyph unicode="&#xE5;" horiz-adv-x="349" d="M264 0Q254 0 254 10V60H253Q243 26 217 9T161 -8Q115 -8 84 23T53 128Q53 200 86 232T182 264H248Q254 264 254 270V334Q254 400 234 428T174 456Q144 456 124 446T89 417Q83 409 75 415L70 419Q62 425 67 433Q82 454 108 468T174 482Q226 482 254 450T282 338V10Q282 0 272 0H264ZM162 18Q201 18 227 53T254 147V232Q254 238 248 238H182Q127 238 104 213T81 128Q81 69 103 44T162 18ZM174 562Q140 562 119 583T97 639Q97 673 118 694T174 716Q208 716 229 695T251 639Q251 605 230 584T174 562ZM174 586Q197 586 211 601T225 639Q225 662 211 677T174 692Q151 692 137 677T123 639Q123 616 137 601T174 586Z"  />
<glyph unicode="&#xE6;" horiz-adv-x="539" d="M367 -8Q330 -8 304 11T266 67H265Q234 -8 161 -8Q138 -8 119 -1T85 23T62 65T53 128Q53 200 86 232T182 264H248Q254 264 254 270V334Q254 400 234 428T174 456Q144 456 124 446T89 417Q83 409 75 415L70 419Q62 425 67 433Q82 454 108 468T174 482Q209 482 233 468T270 420H271Q284 451 309 466T369 482Q407 482 434 464T473 408Q475 401 477 392T480 366T483 320T484 248Q484 238 474 238H288Q282 238 282 232Q282 188 282 161T284 117T288 91T292 75Q302 46 321 32T367 18Q402 18 422 35T454 95Q457 105 466 102L473 100Q482 98 479 88Q468 38 440 15T367 -8ZM450 264Q456 264 456 270Q456 304 455 326T453 363T450 385T446 399Q437 428 417 442T369 456Q341 456 321 442T292 399Q290 393 289 385T286 363T283 327T282 270Q282 264 288 264H450ZM162 18Q201 18 227 53T254 147V232Q254 238 248 238H182Q127 238 104 213T81 128Q81 70 103 44T162 18Z"  />
<glyph unicode="&#xE7;" horiz-adv-x="327" d="M158 -7Q92 -1 71 66Q68 76 66 86T62 113T61 159T60 237Q60 286 60 314T62 360T65 387T71 408Q95 482 174 482Q220 482 248 456T284 378Q286 370 279 367L270 364Q260 361 258 371Q250 417 230 436T174 456Q148 456 129 444T98 399Q95 390 93 381T90 356T89 311T88 237Q88 190 88 163T90 119T93 93T98 75Q109 43 128 31T174 18Q209 18 229 37T258 103Q260 113 270 110L279 107Q286 104 284 96Q269 -1 185 -7L145 -135Q142 -145 129 -145H120Q110 -145 113 -135L158 -7Z"  />
<glyph unicode="&#xE8;" horiz-adv-x="344" d="M172 -8Q135 -8 109 10T70 66Q68 73 66 82T63 110T60 158T59 237Q59 285 60 315T62 364T66 391T70 408Q82 445 109 463T174 482Q212 482 239 464T278 408Q280 401 282 392T285 366T288 320T289 248Q289 238 279 238H93Q87 238 87 232Q87 188 87 161T89 117T93 91T97 75Q107 46 126 32T172 18Q207 18 227 35T259 95Q262 105 271 102L278 100Q287 98 284 88Q273 38 245 15T172 -8ZM255 264Q261 264 261 270Q261 304 260 326T258 363T255 385T251 399Q242 428 222 442T174 456Q146 456 126 442T97 399Q95 393 94 385T91 363T88 327T87 270Q87 264 93 264H255ZM182 560Q172 560 165 570L87 690Q85 694 86 697T92 700H105Q115 700 121 690L192 570Q197 560 187 560H182Z"  />
<glyph unicode="&#xE9;" horiz-adv-x="344" d="M172 -8Q135 -8 109 10T70 66Q68 73 66 82T63 110T60 158T59 237Q59 285 60 315T62 364T66 391T70 408Q82 445 109 463T174 482Q212 482 239 464T278 408Q280 401 282 392T285 366T288 320T289 248Q289 238 279 238H93Q87 238 87 232Q87 188 87 161T89 117T93 91T97 75Q107 46 126 32T172 18Q207 18 227 35T259 95Q262 105 271 102L278 100Q287 98 284 88Q273 38 245 15T172 -8ZM255 264Q261 264 261 270Q261 304 260 326T258 363T255 385T251 399Q242 428 222 442T174 456Q146 456 126 442T97 399Q95 393 94 385T91 363T88 327T87 270Q87 264 93 264H255ZM158 560Q148 560 153 570L224 690Q230 700 240 700H253Q258 700 259 697T258 690L180 570Q175 564 172 562T163 560H158Z"  />
<glyph unicode="&#xEA;" horiz-adv-x="344" d="M172 -8Q135 -8 109 10T70 66Q68 73 66 82T63 110T60 158T59 237Q59 285 60 315T62 364T66 391T70 408Q82 445 109 463T174 482Q212 482 239 464T278 408Q280 401 282 392T285 366T288 320T289 248Q289 238 279 238H93Q87 238 87 232Q87 188 87 161T89 117T93 91T97 75Q107 46 126 32T172 18Q207 18 227 35T259 95Q262 105 271 102L278 100Q287 98 284 88Q273 38 245 15T172 -8ZM255 264Q261 264 261 270Q261 304 260 326T258 363T255 385T251 399Q242 428 222 442T174 456Q146 456 126 442T97 399Q95 393 94 385T91 363T88 327T87 270Q87 264 93 264H255ZM248 560Q240 560 234 570L173 668H171L110 570Q104 560 96 560H89Q78 560 83 570L155 691Q160 700 169 700H175Q184 700 189 691L261 570Q266 560 255 560H248Z"  />
<glyph unicode="&#xEB;" horiz-adv-x="344" d="M172 -8Q135 -8 109 10T70 66Q68 73 66 82T63 110T60 158T59 237Q59 285 60 315T62 364T66 391T70 408Q82 445 109 463T174 482Q212 482 239 464T278 408Q280 401 282 392T285 366T288 320T289 248Q289 238 279 238H93Q87 238 87 232Q87 188 87 161T89 117T93 91T97 75Q107 46 126 32T172 18Q207 18 227 35T259 95Q262 105 271 102L278 100Q287 98 284 88Q273 38 245 15T172 -8ZM255 264Q261 264 261 270Q261 304 260 326T258 363T255 385T251 399Q242 428 222 442T174 456Q146 456 126 442T97 399Q95 393 94 385T91 363T88 327T87 270Q87 264 93 264H255ZM227 620Q217 620 217 630V670Q217 680 227 680H249Q259 680 259 670V630Q259 620 249 620H227ZM95 620Q85 620 85 630V670Q85 680 95 680H117Q127 680 127 670V630Q127 620 117 620H95Z"  />
<glyph unicode="&#xEC;" horiz-adv-x="172" d="M82 0Q72 0 72 10V464Q72 474 82 474H90Q100 474 100 464V10Q100 0 90 0H82ZM90 560Q80 560 73 570L-5 690Q-7 694 -6 697T0 700H13Q23 700 29 690L100 570Q105 560 95 560H90Z"  />
<glyph unicode="&#xED;" horiz-adv-x="172" d="M82 0Q72 0 72 10V464Q72 474 82 474H90Q100 474 100 464V10Q100 0 90 0H82ZM82 560Q72 560 77 570L148 690Q154 700 164 700H177Q182 700 183 697T182 690L104 570Q99 564 96 562T87 560H82Z"  />
<glyph unicode="&#xEE;" horiz-adv-x="172" d="M82 0Q72 0 72 10V464Q72 474 82 474H90Q100 474 100 464V10Q100 0 90 0H82ZM163 560Q155 560 149 570L88 668H86L25 570Q19 560 11 560H4Q-7 560 -2 570L70 691Q75 700 84 700H90Q99 700 104 691L176 570Q181 560 170 560H163Z"  />
<glyph unicode="&#xEF;" horiz-adv-x="172" d="M82 0Q72 0 72 10V464Q72 474 82 474H90Q100 474 100 464V10Q100 0 90 0H82ZM142 620Q132 620 132 630V670Q132 680 142 680H164Q174 680 174 670V630Q174 620 164 620H142ZM10 620Q0 620 0 630V670Q0 680 10 680H32Q42 680 42 670V630Q42 620 32 620H10Z"  />
<glyph unicode="&#xF0;" horiz-adv-x="352" d="M203 575L244 497Q260 466 270 443T285 394T291 331T293 237Q293 189 293 160T291 114T288 87T283 66Q271 29 243 11T176 -8Q137 -8 109 10T69 66Q66 76 64 86T61 114T60 160T59 237Q59 285 59 314T61 360T64 387T69 408Q81 445 109 463T176 482Q209 482 227 467H228L176 566L110 545Q101 542 98 551L96 557Q93 567 102 570L164 590L123 670Q118 680 128 680H141Q149 680 154 670L191 598L255 619Q264 622 267 613L269 607Q272 597 263 594L203 575ZM176 18Q237 18 256 75Q259 84 261 94T263 120T264 164T265 237Q265 279 264 306T262 351T258 380T253 400Q234 456 176 456Q115 456 96 399Q93 390 91 380T89 354T88 310T87 237Q87 192 87 165T88 121T91 94T96 75Q115 18 176 18Z"  />
<glyph unicode="&#xF1;" horiz-adv-x="370" d="M284 0Q274 0 274 10V334Q274 394 254 425T187 456Q148 456 124 427T100 334V10Q100 0 90 0H82Q72 0 72 10V464Q72 474 82 474H90Q100 474 100 464V425H101Q109 448 131 465T191 482Q248 482 275 446T302 340V10Q302 0 292 0H284ZM221 611Q207 611 197 617T178 632Q170 639 163 644T148 649Q137 649 129 642T112 619Q109 614 105 615T101 621V637Q101 645 107 652Q115 663 125 669T149 675Q163 675 173 669T192 654Q200 647 207 642T222 637Q233 637 241 644T258 667Q261 672 265 671T269 665V649Q269 641 263 634Q255 623 245 617T221 611Z"  />
<glyph unicode="&#xF2;" horiz-adv-x="352" d="M176 -8Q137 -8 109 10T69 66Q66 76 64 86T61 114T60 160T59 237Q59 285 59 314T61 360T64 387T69 408Q81 445 109 463T176 482Q215 482 243 464T283 408Q286 397 288 387T291 360T292 314T293 237Q293 189 293 160T291 114T288 87T283 66Q271 29 243 11T176 -8ZM176 18Q237 18 256 75Q259 84 261 94T263 120T264 164T265 237Q265 282 265 309T264 353T261 380T256 399Q237 456 176 456Q115 456 96 399Q93 390 91 380T89 354T88 310T87 237Q87 192 87 165T88 121T91 94T96 75Q115 18 176 18ZM183 560Q173 560 166 570L88 690Q86 694 87 697T93 700H106Q116 700 122 690L193 570Q198 560 188 560H183Z"  />
<glyph unicode="&#xF3;" horiz-adv-x="352" d="M176 -8Q137 -8 109 10T69 66Q66 76 64 86T61 114T60 160T59 237Q59 285 59 314T61 360T64 387T69 408Q81 445 109 463T176 482Q215 482 243 464T283 408Q286 397 288 387T291 360T292 314T293 237Q293 189 293 160T291 114T288 87T283 66Q271 29 243 11T176 -8ZM176 18Q237 18 256 75Q259 84 261 94T263 120T264 164T265 237Q265 282 265 309T264 353T261 380T256 399Q237 456 176 456Q115 456 96 399Q93 390 91 380T89 354T88 310T87 237Q87 192 87 165T88 121T91 94T96 75Q115 18 176 18ZM161 560Q151 560 156 570L227 690Q233 700 243 700H256Q261 700 262 697T261 690L183 570Q178 564 175 562T166 560H161Z"  />
<glyph unicode="&#xF4;" horiz-adv-x="352" d="M176 -8Q137 -8 109 10T69 66Q66 76 64 86T61 114T60 160T59 237Q59 285 59 314T61 360T64 387T69 408Q81 445 109 463T176 482Q215 482 243 464T283 408Q286 397 288 387T291 360T292 314T293 237Q293 189 293 160T291 114T288 87T283 66Q271 29 243 11T176 -8ZM176 18Q237 18 256 75Q259 84 261 94T263 120T264 164T265 237Q265 282 265 309T264 353T261 380T256 399Q237 456 176 456Q115 456 96 399Q93 390 91 380T89 354T88 310T87 237Q87 192 87 165T88 121T91 94T96 75Q115 18 176 18ZM252 560Q244 560 238 570L177 668H175L114 570Q108 560 100 560H93Q82 560 87 570L159 691Q164 700 173 700H179Q188 700 193 691L265 570Q270 560 259 560H252Z"  />
<glyph unicode="&#xF5;" horiz-adv-x="352" d="M176 -8Q137 -8 109 10T69 66Q66 76 64 86T61 114T60 160T59 237Q59 285 59 314T61 360T64 387T69 408Q81 445 109 463T176 482Q215 482 243 464T283 408Q286 397 288 387T291 360T292 314T293 237Q293 189 293 160T291 114T288 87T283 66Q271 29 243 11T176 -8ZM176 18Q237 18 256 75Q259 84 261 94T263 120T264 164T265 237Q265 282 265 309T264 353T261 380T256 399Q237 456 176 456Q115 456 96 399Q93 390 91 380T89 354T88 310T87 237Q87 192 87 165T88 121T91 94T96 75Q115 18 176 18ZM212 611Q198 611 188 617T169 632Q161 639 154 644T139 649Q128 649 120 642T103 619Q100 614 96 615T92 621V637Q92 645 98 652Q106 663 116 669T140 675Q154 675 164 669T183 654Q191 647 198 642T213 637Q224 637 232 644T249 667Q252 672 256 671T260 665V649Q260 641 254 634Q246 623 236 617T212 611Z"  />
<glyph unicode="&#xF6;" horiz-adv-x="352" d="M176 -8Q137 -8 109 10T69 66Q66 76 64 86T61 114T60 160T59 237Q59 285 59 314T61 360T64 387T69 408Q81 445 109 463T176 482Q215 482 243 464T283 408Q286 397 288 387T291 360T292 314T293 237Q293 189 293 160T291 114T288 87T283 66Q271 29 243 11T176 -8ZM176 18Q237 18 256 75Q259 84 261 94T263 120T264 164T265 237Q265 282 265 309T264 353T261 380T256 399Q237 456 176 456Q115 456 96 399Q93 390 91 380T89 354T88 310T87 237Q87 192 87 165T88 121T91 94T96 75Q115 18 176 18ZM231 620Q221 620 221 630V670Q221 680 231 680H253Q263 680 263 670V630Q263 620 253 620H231ZM99 620Q89 620 89 630V670Q89 680 99 680H121Q131 680 131 670V630Q131 620 121 620H99Z"  />
<glyph unicode="&#xF7;" horiz-adv-x="360" d="M180 353Q166 353 157 362T148 385Q148 399 157 408T180 417Q194 417 203 408T212 385Q212 371 203 362T180 353ZM50 263Q40 263 40 273V279Q40 289 50 289H310Q320 289 320 279V273Q320 263 310 263H50ZM180 135Q166 135 157 144T148 167Q148 181 157 190T180 199Q194 199 203 190T212 167Q212 153 203 144T180 135Z"  />
<glyph unicode="&#xF8;" horiz-adv-x="352" d="M68 -30Q57 -30 60 -20L83 36Q73 51 69 66Q66 76 64 86T61 114T60 160T59 237Q59 285 59 314T61 360T64 387T69 408Q81 445 109 463T176 482Q220 482 250 457L265 494Q268 504 277 504H284Q295 504 292 494L269 437Q277 426 283 408Q286 397 288 387T291 360T292 314T293 237Q293 189 293 160T291 114T288 87T283 66Q271 29 243 11T176 -8Q131 -8 101 16L87 -20Q84 -30 75 -30H68ZM96 75Q96 73 97 72L239 429Q216 456 176 456Q115 456 96 399Q93 390 91 380T89 354T88 310T87 237Q87 192 87 165T88 121T91 94T96 75ZM176 18Q237 18 256 75Q259 84 261 94T263 120T264 164T265 237Q265 282 265 309T264 353T261 380T256 399Q255 400 255 401L113 44Q135 18 176 18Z"  />
<glyph unicode="&#xF9;" horiz-adv-x="366" d="M276 0Q266 0 266 10V49H265Q257 26 236 9T177 -8Q120 -8 94 28T67 134V464Q67 474 77 474H85Q95 474 95 464V140Q95 80 114 49T181 18Q220 18 243 47T266 140V464Q266 474 276 474H284Q294 474 294 464V10Q294 0 284 0H276ZM198 560Q188 560 181 570L103 690Q101 694 102 697T108 700H121Q131 700 137 690L208 570Q213 560 203 560H198Z"  />
<glyph unicode="&#xFA;" horiz-adv-x="366" d="M276 0Q266 0 266 10V49H265Q257 26 236 9T177 -8Q120 -8 94 28T67 134V464Q67 474 77 474H85Q95 474 95 464V140Q95 80 114 49T181 18Q220 18 243 47T266 140V464Q266 474 276 474H284Q294 474 294 464V10Q294 0 284 0H276ZM171 560Q161 560 166 570L237 690Q243 700 253 700H266Q271 700 272 697T271 690L193 570Q188 564 185 562T176 560H171Z"  />
<glyph unicode="&#xFB;" horiz-adv-x="366" d="M276 0Q266 0 266 10V49H265Q257 26 236 9T177 -8Q120 -8 94 28T67 134V464Q67 474 77 474H85Q95 474 95 464V140Q95 80 114 49T181 18Q220 18 243 47T266 140V464Q266 474 276 474H284Q294 474 294 464V10Q294 0 284 0H276ZM258 560Q250 560 244 570L183 668H181L120 570Q114 560 106 560H99Q88 560 93 570L165 691Q170 700 179 700H185Q194 700 199 691L271 570Q276 560 265 560H258Z"  />
<glyph unicode="&#xFC;" horiz-adv-x="366" d="M276 0Q266 0 266 10V49H265Q257 26 236 9T177 -8Q120 -8 94 28T67 134V464Q67 474 77 474H85Q95 474 95 464V140Q95 80 114 49T181 18Q220 18 243 47T266 140V464Q266 474 276 474H284Q294 474 294 464V10Q294 0 284 0H276ZM237 620Q227 620 227 630V670Q227 680 237 680H259Q269 680 269 670V630Q269 620 259 620H237ZM105 620Q95 620 95 630V670Q95 680 105 680H127Q137 680 137 670V630Q137 620 127 620H105Z"  />
<glyph unicode="&#xFD;" horiz-adv-x="326" d="M61 -180Q51 -180 51 -170V-164Q51 -154 61 -154H71Q90 -154 102 -143T122 -98L149 10L39 464Q37 474 47 474H59Q67 474 69 464L163 73H165L259 464Q261 474 269 474H281Q291 474 289 464L150 -93Q138 -143 119 -161T67 -180H61ZM151 560Q141 560 146 570L217 690Q223 700 233 700H246Q251 700 252 697T251 690L173 570Q168 564 165 562T156 560H151Z"  />
<glyph unicode="&#xFE;" horiz-adv-x="365" d="M82 -180Q72 -180 72 -170V670Q72 680 82 680H90Q100 680 100 670V425H101Q110 447 131 464T193 482Q229 482 255 465T295 408Q298 397 300 387T304 360T305 314T306 237Q306 189 306 160T304 114T301 87T295 66Q282 27 256 10T193 -8Q152 -8 131 9T101 49H100V-170Q100 -180 90 -180H82ZM189 18Q218 18 238 31T268 75Q271 84 273 94T276 120T277 164T278 237Q278 282 278 309T276 353T273 380T268 399Q258 429 238 442T189 456Q160 456 140 441T111 399Q108 390 106 380T103 354T101 310T100 237Q100 192 100 165T102 121T106 94T111 75Q120 48 140 33T189 18Z"  />
<glyph unicode="&#xFF;" horiz-adv-x="326" d="M61 -180Q51 -180 51 -170V-164Q51 -154 61 -154H71Q90 -154 102 -143T122 -98L149 10L39 464Q37 474 47 474H59Q67 474 69 464L163 73H165L259 464Q261 474 269 474H281Q291 474 289 464L150 -93Q138 -143 119 -161T67 -180H61ZM219 620Q209 620 209 630V670Q209 680 219 680H241Q251 680 251 670V630Q251 620 241 620H219ZM87 620Q77 620 77 630V670Q77 680 87 680H109Q119 680 119 670V630Q119 620 109 620H87Z"  />
<glyph unicode="&#x100;" horiz-adv-x="375" d="M172 670Q175 680 183 680H194Q203 680 205 670L344 10Q345 5 342 3T334 0H324Q316 0 314 10L277 185H98L61 10Q59 0 51 0H41Q36 0 33 2T31 10L172 670ZM271 212L189 602H187L104 212H271ZM101 811Q91 811 91 821V827Q91 837 101 837H273Q283 837 283 827V821Q283 811 273 811H101Z"  />
<glyph unicode="&#x101;" horiz-adv-x="349" d="M264 0Q254 0 254 10V60H253Q243 26 217 9T161 -8Q115 -8 84 23T53 128Q53 200 86 232T182 264H248Q254 264 254 270V334Q254 400 234 428T174 456Q144 456 124 446T89 417Q83 409 75 415L70 419Q62 425 67 433Q82 454 108 468T174 482Q226 482 254 450T282 338V10Q282 0 272 0H264ZM162 18Q201 18 227 53T254 147V232Q254 238 248 238H182Q127 238 104 213T81 128Q81 69 103 44T162 18ZM88 636Q78 636 78 646V652Q78 662 88 662H260Q270 662 270 652V646Q270 636 260 636H88Z"  />
<glyph unicode="&#x102;" horiz-adv-x="375" d="M172 670Q175 680 183 680H194Q203 680 205 670L344 10Q345 5 342 3T334 0H324Q316 0 314 10L277 185H98L61 10Q59 0 51 0H41Q36 0 33 2T31 10L172 670ZM271 212L189 602H187L104 212H271ZM187 775Q148 775 125 799T95 869Q93 879 104 879H110Q119 879 121 869Q133 801 187 801Q241 801 253 869Q255 879 264 879H270Q281 879 279 869Q273 824 250 800T187 775Z"  />
<glyph unicode="&#x103;" horiz-adv-x="349" d="M264 0Q254 0 254 10V60H253Q243 26 217 9T161 -8Q115 -8 84 23T53 128Q53 200 86 232T182 264H248Q254 264 254 270V334Q254 400 234 428T174 456Q144 456 124 446T89 417Q83 409 75 415L70 419Q62 425 67 433Q82 454 108 468T174 482Q226 482 254 450T282 338V10Q282 0 272 0H264ZM162 18Q201 18 227 53T254 147V232Q254 238 248 238H182Q127 238 104 213T81 128Q81 69 103 44T162 18ZM174 579Q135 579 112 603T82 673Q80 683 91 683H97Q106 683 108 673Q120 605 174 605Q228 605 240 673Q242 683 251 683H257Q268 683 266 673Q260 628 237 604T174 579Z"  />
<glyph unicode="&#x104;" horiz-adv-x="375" d="M298 -162Q277 -162 263 -148T248 -110Q248 -89 263 -64T317 3Q315 5 314 10L277 185H98L61 10Q59 0 51 0H41Q36 0 33 2T31 10L172 670Q174 680 183 680H194Q203 680 205 670L344 10Q345 4 341 0Q301 -44 288 -68T274 -108Q274 -122 281 -130T301 -138Q312 -138 325 -130Q333 -125 337 -132L340 -137Q344 -144 336 -150Q328 -155 320 -158T298 -162ZM189 602H187L104 212H271L189 602Z"  />
<glyph unicode="&#x105;" horiz-adv-x="349" d="M236 -162Q215 -162 201 -148T186 -110Q186 -89 201 -63T254 4V60H253Q243 26 217 9T161 -8Q115 -8 84 23T53 128Q53 200 86 232T182 264H248Q254 264 254 270V334Q254 400 234 428T174 456Q144 456 124 446T89 417Q83 409 75 415L70 419Q62 425 67 433Q82 454 108 468T174 482Q226 482 254 450T282 338V10Q282 4 278 0Q257 -24 245 -41T225 -70T215 -91T212 -108Q212 -122 219 -130T239 -138Q250 -138 263 -130Q271 -125 275 -132L278 -137Q282 -144 274 -150Q266 -155 258 -158T236 -162ZM162 18Q201 18 227 53T254 147V232Q254 238 248 238H182Q127 238 104 213T81 128Q81 69 103 44T162 18Z"  />
<glyph unicode="&#x106;" horiz-adv-x="368" d="M77 80Q73 91 71 104T67 145T65 217T64 340Q64 416 64 462T66 535T70 575T77 600Q105 688 201 688Q256 688 289 654T330 560Q331 549 324 547L316 545Q306 542 304 552Q296 603 271 632T201 661Q128 661 105 590Q102 581 100 569T96 530T94 460T93 340Q93 265 93 221T95 150T99 112T105 90Q128 19 201 19Q246 19 271 48T304 128Q306 138 316 135L324 133Q331 130 330 120Q322 61 289 27T201 -8Q105 -8 77 80ZM188 766Q183 766 182 769T184 776L259 878Q263 883 266 885T276 888H289Q294 888 295 885T293 878L211 776Q202 766 194 766H188Z"  />
<glyph unicode="&#x107;" horiz-adv-x="327" d="M174 -8Q95 -8 71 66Q68 76 66 86T62 113T61 159T60 237Q60 286 60 314T62 360T65 387T71 408Q95 482 174 482Q220 482 248 456T284 378Q286 370 279 367L270 364Q260 361 258 371Q250 417 230 436T174 456Q148 456 129 444T98 399Q95 390 93 381T90 356T89 311T88 237Q88 190 88 163T90 119T93 93T98 75Q109 43 128 31T174 18Q209 18 229 37T258 103Q260 113 270 110L279 107Q286 104 284 96Q276 45 248 19T174 -8ZM161 560Q151 560 156 570L227 690Q233 700 243 700H256Q261 700 262 697T261 690L183 570Q178 564 175 562T166 560H161Z"  />
<glyph unicode="&#x108;" horiz-adv-x="368" d="M77 80Q73 91 71 104T67 145T65 217T64 340Q64 416 64 462T66 535T70 575T77 600Q105 688 201 688Q256 688 289 654T330 560Q331 549 324 547L316 545Q306 542 304 552Q296 603 271 632T201 661Q128 661 105 590Q102 581 100 569T96 530T94 460T93 340Q93 265 93 221T95 150T99 112T105 90Q128 19 201 19Q246 19 271 48T304 128Q306 138 316 135L324 133Q331 130 330 120Q322 61 289 27T201 -8Q105 -8 77 80ZM273 755Q265 755 259 765L198 863H196L135 765Q129 755 121 755H114Q103 755 108 765L180 886Q185 895 194 895H200Q209 895 214 886L286 765Q291 755 280 755H273Z"  />
<glyph unicode="&#x109;" horiz-adv-x="327" d="M174 -8Q95 -8 71 66Q68 76 66 86T62 113T61 159T60 237Q60 286 60 314T62 360T65 387T71 408Q95 482 174 482Q220 482 248 456T284 378Q286 370 279 367L270 364Q260 361 258 371Q250 417 230 436T174 456Q148 456 129 444T98 399Q95 390 93 381T90 356T89 311T88 237Q88 190 88 163T90 119T93 93T98 75Q109 43 128 31T174 18Q209 18 229 37T258 103Q260 113 270 110L279 107Q286 104 284 96Q276 45 248 19T174 -8ZM251 560Q243 560 237 570L176 668H174L113 570Q107 560 99 560H92Q81 560 86 570L158 691Q163 700 172 700H178Q187 700 192 691L264 570Q269 560 258 560H251Z"  />
<glyph unicode="&#x10A;" horiz-adv-x="368" d="M77 80Q73 91 71 104T67 145T65 217T64 340Q64 416 64 462T66 535T70 575T77 600Q105 688 201 688Q256 688 289 654T330 560Q331 549 324 547L316 545Q306 542 304 552Q296 603 271 632T201 661Q128 661 105 590Q102 581 100 569T96 530T94 460T93 340Q93 265 93 221T95 150T99 112T105 90Q128 19 201 19Q246 19 271 48T304 128Q306 138 316 135L324 133Q331 130 330 120Q322 61 289 27T201 -8Q105 -8 77 80ZM186 795Q176 795 176 805V845Q176 855 186 855H208Q218 855 218 845V805Q218 795 208 795H186Z"  />
<glyph unicode="&#x10B;" horiz-adv-x="327" d="M174 -8Q95 -8 71 66Q68 76 66 86T62 113T61 159T60 237Q60 286 60 314T62 360T65 387T71 408Q95 482 174 482Q220 482 248 456T284 378Q286 370 279 367L270 364Q260 361 258 371Q250 417 230 436T174 456Q148 456 129 444T98 399Q95 390 93 381T90 356T89 311T88 237Q88 190 88 163T90 119T93 93T98 75Q109 43 128 31T174 18Q209 18 229 37T258 103Q260 113 270 110L279 107Q286 104 284 96Q276 45 248 19T174 -8ZM164 620Q154 620 154 630V670Q154 680 164 680H186Q196 680 196 670V630Q196 620 186 620H164Z"  />
<glyph unicode="&#x10C;" horiz-adv-x="368" d="M77 80Q73 91 71 104T67 145T65 217T64 340Q64 416 64 462T66 535T70 575T77 600Q105 688 201 688Q256 688 289 654T330 560Q331 549 324 547L316 545Q306 542 304 552Q296 603 271 632T201 661Q128 661 105 590Q102 581 100 569T96 530T94 460T93 340Q93 265 93 221T95 150T99 112T105 90Q128 19 201 19Q246 19 271 48T304 128Q306 138 316 135L324 133Q331 130 330 120Q322 61 289 27T201 -8Q105 -8 77 80ZM194 755Q185 755 180 764L108 885Q103 895 114 895H121Q129 895 135 885L196 787H198L259 885Q265 895 273 895H280Q291 895 286 885L214 764Q209 755 200 755H194Z"  />
<glyph unicode="&#x10D;" horiz-adv-x="327" d="M174 -8Q95 -8 71 66Q68 76 66 86T62 113T61 159T60 237Q60 286 60 314T62 360T65 387T71 408Q95 482 174 482Q220 482 248 456T284 378Q286 370 279 367L270 364Q260 361 258 371Q250 417 230 436T174 456Q148 456 129 444T98 399Q95 390 93 381T90 356T89 311T88 237Q88 190 88 163T90 119T93 93T98 75Q109 43 128 31T174 18Q209 18 229 37T258 103Q260 113 270 110L279 107Q286 104 284 96Q276 45 248 19T174 -8ZM173 558Q164 558 159 567L87 688Q82 698 93 698H100Q108 698 114 688L175 590H177L238 688Q244 698 252 698H259Q270 698 265 688L193 567Q188 558 179 558H173Z"  />
<glyph unicode="&#x10E;" horiz-adv-x="413" d="M74 670Q74 680 84 680H192Q252 680 285 655T334 583Q338 569 341 552T346 508T348 441T349 340Q349 279 349 239T346 172T341 128T334 97Q319 51 286 26T192 0H84Q74 0 74 10V670ZM103 33Q103 27 109 27H188Q236 27 264 46T305 105Q309 118 312 134T316 176T319 242T320 340Q320 398 319 437T317 503T312 545T305 575Q292 614 264 633T188 653H109Q103 653 103 647V33ZM189 755Q180 755 175 764L103 885Q98 895 109 895H116Q124 895 130 885L191 787H193L254 885Q260 895 268 895H275Q286 895 281 885L209 764Q204 755 195 755H189Z"  />
<glyph unicode="&#x10F;" horiz-adv-x="365" d="M275 0Q265 0 265 10V49H264Q255 27 234 10T172 -8Q136 -8 110 9T70 66Q67 76 65 86T61 114T60 160T59 237Q59 285 59 314T61 360T64 387T70 408Q83 447 109 464T172 482Q213 482 234 465T264 425H265V670Q265 680 275 680H283Q293 680 293 670V10Q293 0 283 0H275ZM176 18Q205 18 225 33T254 75Q257 84 259 94T262 120T264 164T265 237Q265 282 265 309T263 353T259 380T254 399Q245 426 225 441T176 456Q147 456 127 443T97 399Q94 390 92 380T89 354T88 310T87 237Q87 192 87 165T89 121T92 94T97 75Q107 45 127 32T176 18ZM343 552Q336 552 336 561V670Q336 680 345 680H356Q365 680 365 670V606Q365 598 364 592T360 578L353 559Q349 552 343 552Z"  />
<glyph unicode="&#x110;" horiz-adv-x="413" d="M84 0Q74 0 74 10V327Q74 333 68 333H31Q21 333 21 343V349Q21 359 31 359H68Q74 359 74 365V670Q74 680 84 680H193Q253 680 286 655T334 583Q338 569 341 552T346 508T348 441T349 340Q349 279 349 239T346 172T341 128T334 97Q319 51 286 26T193 0H84ZM189 27Q237 27 264 46T305 105Q309 118 312 134T316 176T319 242T320 340Q320 398 319 437T317 503T312 545T305 575Q292 614 265 633T189 653H109Q103 653 103 647V365Q103 359 109 359H192Q202 359 202 349V343Q202 333 192 333H109Q103 333 103 327V33Q103 27 109 27H189Z"  />
<glyph unicode="&#x111;" horiz-adv-x="365" d="M275 0Q265 0 265 10V49H264Q255 27 234 10T172 -8Q136 -8 110 9T70 66Q67 76 65 86T61 114T60 160T59 237Q59 285 59 314T61 360T64 387T70 408Q83 447 109 464T172 482Q213 482 234 465T264 425H265V567Q265 573 259 573H166Q156 573 156 583V588Q156 598 166 598H259Q265 598 265 604V670Q265 680 275 680H283Q293 680 293 670V604Q293 598 299 598H328Q338 598 338 588V583Q338 573 328 573H299Q293 573 293 567V10Q293 0 283 0H275ZM176 18Q205 18 225 33T254 75Q257 84 259 94T262 120T264 164T265 237Q265 282 265 309T263 353T259 380T254 399Q245 426 225 441T176 456Q147 456 127 443T97 399Q94 390 92 380T89 354T88 310T87 237Q87 192 87 165T89 121T92 94T97 75Q107 45 127 32T176 18Z"  />
<glyph unicode="&#x112;" horiz-adv-x="339" d="M74 670Q74 680 84 680H296Q306 680 306 670V663Q306 653 296 653H109Q103 653 103 647V365Q103 359 109 359H273Q283 359 283 349V342Q283 332 273 332H109Q103 332 103 326V33Q103 27 109 27H296Q306 27 306 17V10Q306 0 296 0H84Q74 0 74 10V670ZM99 811Q89 811 89 821V827Q89 837 99 837H271Q281 837 281 827V821Q281 811 271 811H99Z"  />
<glyph unicode="&#x113;" horiz-adv-x="344" d="M172 -8Q135 -8 109 10T70 66Q68 73 66 82T63 110T60 158T59 237Q59 285 60 315T62 364T66 391T70 408Q82 445 109 463T174 482Q212 482 239 464T278 408Q280 401 282 392T285 366T288 320T289 248Q289 238 279 238H93Q87 238 87 232Q87 188 87 161T89 117T93 91T97 75Q107 46 126 32T172 18Q207 18 227 35T259 95Q262 105 271 102L278 100Q287 98 284 88Q273 38 245 15T172 -8ZM255 264Q261 264 261 270Q261 304 260 326T258 363T255 385T251 399Q242 428 222 442T174 456Q146 456 126 442T97 399Q95 393 94 385T91 363T88 327T87 270Q87 264 93 264H255ZM86 636Q76 636 76 646V652Q76 662 86 662H258Q268 662 268 652V646Q268 636 258 636H86Z"  />
<glyph unicode="&#x114;" horiz-adv-x="339" d="M74 670Q74 680 84 680H296Q306 680 306 670V663Q306 653 296 653H109Q103 653 103 647V365Q103 359 109 359H273Q283 359 283 349V342Q283 332 273 332H109Q103 332 103 326V33Q103 27 109 27H296Q306 27 306 17V10Q306 0 296 0H84Q74 0 74 10V670ZM185 775Q146 775 123 799T93 869Q91 879 102 879H108Q117 879 119 869Q131 801 185 801Q239 801 251 869Q253 879 262 879H268Q279 879 277 869Q271 824 248 800T185 775Z"  />
<glyph unicode="&#x115;" horiz-adv-x="344" d="M172 -8Q135 -8 109 10T70 66Q68 73 66 82T63 110T60 158T59 237Q59 285 60 315T62 364T66 391T70 408Q82 445 109 463T174 482Q212 482 239 464T278 408Q280 401 282 392T285 366T288 320T289 248Q289 238 279 238H93Q87 238 87 232Q87 188 87 161T89 117T93 91T97 75Q107 46 126 32T172 18Q207 18 227 35T259 95Q262 105 271 102L278 100Q287 98 284 88Q273 38 245 15T172 -8ZM255 264Q261 264 261 270Q261 304 260 326T258 363T255 385T251 399Q242 428 222 442T174 456Q146 456 126 442T97 399Q95 393 94 385T91 363T88 327T87 270Q87 264 93 264H255ZM172 579Q133 579 110 603T80 673Q78 683 89 683H95Q104 683 106 673Q118 605 172 605Q226 605 238 673Q240 683 249 683H255Q266 683 264 673Q258 628 235 604T172 579Z"  />
<glyph unicode="&#x116;" horiz-adv-x="339" d="M74 670Q74 680 84 680H296Q306 680 306 670V663Q306 653 296 653H109Q103 653 103 647V365Q103 359 109 359H273Q283 359 283 349V342Q283 332 273 332H109Q103 332 103 326V33Q103 27 109 27H296Q306 27 306 17V10Q306 0 296 0H84Q74 0 74 10V670ZM175 795Q165 795 165 805V845Q165 855 175 855H197Q207 855 207 845V805Q207 795 197 795H175Z"  />
<glyph unicode="&#x117;" horiz-adv-x="344" d="M172 -8Q135 -8 109 10T70 66Q68 73 66 82T63 110T60 158T59 237Q59 285 60 315T62 364T66 391T70 408Q82 445 109 463T174 482Q212 482 239 464T278 408Q280 401 282 392T285 366T288 320T289 248Q289 238 279 238H93Q87 238 87 232Q87 188 87 161T89 117T93 91T97 75Q107 46 126 32T172 18Q207 18 227 35T259 95Q262 105 271 102L278 100Q287 98 284 88Q273 38 245 15T172 -8ZM255 264Q261 264 261 270Q261 304 260 326T258 363T255 385T251 399Q242 428 222 442T174 456Q146 456 126 442T97 399Q95 393 94 385T91 363T88 327T87 270Q87 264 93 264H255ZM161 620Q151 620 151 630V670Q151 680 161 680H183Q193 680 193 670V630Q193 620 183 620H161Z"  />
<glyph unicode="&#x118;" horiz-adv-x="339" d="M251 -162Q230 -162 216 -148T201 -110Q201 -89 215 -65T264 0H84Q74 0 74 10V670Q74 680 84 680H296Q306 680 306 670V663Q306 653 296 653H109Q103 653 103 647V365Q103 359 109 359H273Q283 359 283 349V342Q283 332 273 332H109Q103 332 103 326V33Q103 27 109 27H296Q306 27 306 17V10Q306 0 296 0H292Q272 -24 259 -40T239 -69T230 -91T227 -108Q227 -122 234 -130T254 -138Q265 -138 278 -130Q286 -125 290 -132L293 -137Q297 -144 289 -150Q281 -155 273 -158T251 -162Z"  />
<glyph unicode="&#x119;" horiz-adv-x="344" d="M172 -8Q135 -8 109 10T70 66Q68 73 66 82T63 110T60 158T59 237Q59 285 60 315T62 364T66 391T70 408Q82 445 109 463T174 482Q212 482 239 464T278 408Q280 401 282 392T285 366T288 320T289 248Q289 238 279 238H93Q87 238 87 232Q87 188 87 161T89 117T93 91T97 75Q107 46 126 32T172 18Q207 18 227 35T259 95Q262 105 271 102L278 100Q287 98 284 88Q273 43 251 21Q229 -10 216 -31T196 -66T187 -90T185 -108Q185 -122 192 -130T212 -138Q223 -138 236 -130Q244 -125 248 -132L251 -137Q255 -144 247 -150Q239 -155 231 -158T209 -162Q186 -162 173 -148T159 -110Q159 -100 161 -90T168 -67T183 -40T207 -4Q192 -8 172 -8ZM255 264Q261 264 261 270Q261 304 260 326T258 363T255 385T251 399Q242 428 222 442T174 456Q146 456 126 442T97 399Q95 393 94 385T91 363T88 327T87 270Q87 264 93 264H255Z"  />
<glyph unicode="&#x11A;" horiz-adv-x="339" d="M74 670Q74 680 84 680H296Q306 680 306 670V663Q306 653 296 653H109Q103 653 103 647V365Q103 359 109 359H273Q283 359 283 349V342Q283 332 273 332H109Q103 332 103 326V33Q103 27 109 27H296Q306 27 306 17V10Q306 0 296 0H84Q74 0 74 10V670ZM183 755Q174 755 169 764L97 885Q92 895 103 895H110Q118 895 124 885L185 787H187L248 885Q254 895 262 895H269Q280 895 275 885L203 764Q198 755 189 755H183Z"  />
<glyph unicode="&#x11B;" horiz-adv-x="344" d="M172 -8Q135 -8 109 10T70 66Q68 73 66 82T63 110T60 158T59 237Q59 285 60 315T62 364T66 391T70 408Q82 445 109 463T174 482Q212 482 239 464T278 408Q280 401 282 392T285 366T288 320T289 248Q289 238 279 238H93Q87 238 87 232Q87 188 87 161T89 117T93 91T97 75Q107 46 126 32T172 18Q207 18 227 35T259 95Q262 105 271 102L278 100Q287 98 284 88Q273 38 245 15T172 -8ZM255 264Q261 264 261 270Q261 304 260 326T258 363T255 385T251 399Q242 428 222 442T174 456Q146 456 126 442T97 399Q95 393 94 385T91 363T88 327T87 270Q87 264 93 264H255ZM169 558Q160 558 155 567L83 688Q78 698 89 698H96Q104 698 110 688L171 590H173L234 688Q240 698 248 698H255Q266 698 261 688L189 567Q184 558 175 558H169Z"  />
<glyph unicode="&#x11C;" horiz-adv-x="407" d="M77 80Q73 91 71 104T67 145T65 217T64 340Q64 416 64 462T66 535T70 575T77 600Q91 645 123 666T204 688Q267 688 299 653T340 564Q341 553 334 551L326 549Q316 546 314 556Q306 603 281 632T204 661Q128 661 105 590Q102 581 100 569T96 530T94 460T93 340Q93 265 93 221T95 150T99 112T105 90Q128 19 204 19Q280 19 303 90Q306 99 308 111T311 146T314 207T315 309Q315 315 309 315H216Q206 315 206 325V332Q206 342 216 342H334Q344 342 344 332V307Q344 243 344 204T342 141T338 104T331 80Q317 35 285 14T204 -8Q156 -8 124 13T77 80ZM280 755Q272 755 266 765L205 863H203L142 765Q136 755 128 755H121Q110 755 115 765L187 886Q192 895 201 895H207Q216 895 221 886L293 765Q298 755 287 755H280Z"  />
<glyph unicode="&#x11D;" horiz-adv-x="360" d="M173 -188Q138 -188 108 -170T68 -114Q66 -104 73 -102L81 -99Q91 -95 94 -105Q102 -134 124 -148T173 -162Q215 -162 237 -137T260 -58V49H259Q250 26 230 9T170 -8Q129 -8 105 11T69 67Q66 75 65 85T62 114T60 162T59 237Q59 283 59 312T61 359T64 388T69 407Q80 443 104 462T170 482Q210 482 230 465T259 425H260V464Q260 474 270 474H278Q288 474 288 464V-55Q288 -123 258 -155T173 -188ZM173 18Q229 18 249 75Q252 82 254 92T257 119T259 165T260 237Q260 281 260 309T258 354T254 381T249 399Q229 456 173 456Q142 456 124 442T97 399Q95 391 93 382T90 355T88 309T87 237Q87 193 87 165T89 120T93 92T97 75Q106 46 124 32T173 18ZM251 560Q243 560 237 570L176 668H174L113 570Q107 560 99 560H92Q81 560 86 570L158 691Q163 700 172 700H178Q187 700 192 691L264 570Q269 560 258 560H251Z"  />
<glyph unicode="&#x11E;" horiz-adv-x="407" d="M77 80Q73 91 71 104T67 145T65 217T64 340Q64 416 64 462T66 535T70 575T77 600Q91 645 123 666T204 688Q267 688 299 653T340 564Q341 553 334 551L326 549Q316 546 314 556Q306 603 281 632T204 661Q128 661 105 590Q102 581 100 569T96 530T94 460T93 340Q93 265 93 221T95 150T99 112T105 90Q128 19 204 19Q280 19 303 90Q306 99 308 111T311 146T314 207T315 309Q315 315 309 315H216Q206 315 206 325V332Q206 342 216 342H334Q344 342 344 332V307Q344 243 344 204T342 141T338 104T331 80Q317 35 285 14T204 -8Q156 -8 124 13T77 80ZM204 775Q165 775 142 799T112 869Q110 879 121 879H127Q136 879 138 869Q150 801 204 801Q258 801 270 869Q272 879 281 879H287Q298 879 296 869Q290 824 267 800T204 775Z"  />
<glyph unicode="&#x11F;" horiz-adv-x="360" d="M173 -188Q138 -188 108 -170T68 -114Q66 -104 73 -102L81 -99Q91 -95 94 -105Q102 -134 124 -148T173 -162Q215 -162 237 -137T260 -58V49H259Q250 26 230 9T170 -8Q129 -8 105 11T69 67Q66 75 65 85T62 114T60 162T59 237Q59 283 59 312T61 359T64 388T69 407Q80 443 104 462T170 482Q210 482 230 465T259 425H260V464Q260 474 270 474H278Q288 474 288 464V-55Q288 -123 258 -155T173 -188ZM173 18Q229 18 249 75Q252 82 254 92T257 119T259 165T260 237Q260 281 260 309T258 354T254 381T249 399Q229 456 173 456Q142 456 124 442T97 399Q95 391 93 382T90 355T88 309T87 237Q87 193 87 165T89 120T93 92T97 75Q106 46 124 32T173 18ZM173 579Q134 579 111 603T81 673Q79 683 90 683H96Q105 683 107 673Q119 605 173 605Q227 605 239 673Q241 683 250 683H256Q267 683 265 673Q259 628 236 604T173 579Z"  />
<glyph unicode="&#x120;" horiz-adv-x="407" d="M77 80Q73 91 71 104T67 145T65 217T64 340Q64 416 64 462T66 535T70 575T77 600Q91 645 123 666T204 688Q267 688 299 653T340 564Q341 553 334 551L326 549Q316 546 314 556Q306 603 281 632T204 661Q128 661 105 590Q102 581 100 569T96 530T94 460T93 340Q93 265 93 221T95 150T99 112T105 90Q128 19 204 19Q280 19 303 90Q306 99 308 111T311 146T314 207T315 309Q315 315 309 315H216Q206 315 206 325V332Q206 342 216 342H334Q344 342 344 332V307Q344 243 344 204T342 141T338 104T331 80Q317 35 285 14T204 -8Q156 -8 124 13T77 80ZM193 795Q183 795 183 805V845Q183 855 193 855H215Q225 855 225 845V805Q225 795 215 795H193Z"  />
<glyph unicode="&#x121;" horiz-adv-x="360" d="M173 -188Q138 -188 108 -170T68 -114Q66 -104 73 -102L81 -99Q91 -95 94 -105Q102 -134 124 -148T173 -162Q215 -162 237 -137T260 -58V49H259Q250 26 230 9T170 -8Q129 -8 105 11T69 67Q66 75 65 85T62 114T60 162T59 237Q59 283 59 312T61 359T64 388T69 407Q80 443 104 462T170 482Q210 482 230 465T259 425H260V464Q260 474 270 474H278Q288 474 288 464V-55Q288 -123 258 -155T173 -188ZM173 18Q229 18 249 75Q252 82 254 92T257 119T259 165T260 237Q260 281 260 309T258 354T254 381T249 399Q229 456 173 456Q142 456 124 442T97 399Q95 391 93 382T90 355T88 309T87 237Q87 193 87 165T89 120T93 92T97 75Q106 46 124 32T173 18ZM164 620Q154 620 154 630V670Q154 680 164 680H186Q196 680 196 670V630Q196 620 186 620H164Z"  />
<glyph unicode="&#x122;" horiz-adv-x="407" d="M77 80Q73 91 71 104T67 145T65 217T64 340Q64 416 64 462T66 535T70 575T77 600Q91 645 123 666T204 688Q267 688 299 653T340 564Q341 553 334 551L326 549Q316 546 314 556Q306 603 281 632T204 661Q128 661 105 590Q102 581 100 569T96 530T94 460T93 340Q93 265 93 221T95 150T99 112T105 90Q128 19 204 19Q280 19 303 90Q306 99 308 111T311 146T314 207T315 309Q315 315 309 315H216Q206 315 206 325V332Q206 342 216 342H334Q344 342 344 332V307Q344 243 344 204T342 141T338 104T331 80Q317 35 285 14T204 -8Q156 -8 124 13T77 80ZM196 -183Q189 -183 189 -174V-65Q189 -55 198 -55H209Q218 -55 218 -65V-129Q218 -137 217 -143T213 -157L206 -176Q202 -183 196 -183Z"  />
<glyph unicode="&#x123;" horiz-adv-x="360" d="M173 -188Q138 -188 108 -170T68 -114Q66 -104 73 -102L81 -99Q91 -95 94 -105Q102 -134 124 -148T173 -162Q215 -162 237 -137T260 -58V49H259Q250 26 230 9T170 -8Q129 -8 105 11T69 67Q66 75 65 85T62 114T60 162T59 237Q59 283 59 312T61 359T64 388T69 407Q80 443 104 462T170 482Q210 482 230 465T259 425H260V464Q260 474 270 474H278Q288 474 288 464V-55Q288 -123 258 -155T173 -188ZM173 18Q229 18 249 75Q252 82 254 92T257 119T259 165T260 237Q260 281 260 309T258 354T254 381T249 399Q229 456 173 456Q142 456 124 442T97 399Q95 391 93 382T90 355T88 309T87 237Q87 193 87 165T89 120T93 92T97 75Q106 46 124 32T173 18ZM182 700Q189 700 189 691V582Q189 572 180 572H169Q160 572 160 582V646Q160 661 165 674L172 693Q175 700 182 700Z"  />
<glyph unicode="&#x124;" horiz-adv-x="424" d="M74 670Q74 680 84 680H93Q103 680 103 670V370Q103 364 109 364H315Q321 364 321 370V670Q321 680 331 680H340Q350 680 350 670V10Q350 0 340 0H331Q321 0 321 10V331Q321 337 315 337H109Q103 337 103 331V10Q103 0 93 0H84Q74 0 74 10V670ZM288 755Q280 755 274 765L213 863H211L150 765Q144 755 136 755H129Q118 755 123 765L195 886Q200 895 209 895H215Q224 895 229 886L301 765Q306 755 295 755H288Z"  />
<glyph unicode="&#x125;" horiz-adv-x="370" d="M284 0Q274 0 274 10V334Q274 394 254 425T187 456Q148 456 124 427T100 334V10Q100 0 90 0H82Q72 0 72 10V670Q72 680 82 680H90Q100 680 100 670V425H101Q109 448 131 465T191 482Q248 482 275 446T302 340V10Q302 0 292 0H284ZM263 755Q255 755 249 765L188 863H186L125 765Q119 755 111 755H104Q93 755 98 765L170 886Q175 895 184 895H190Q199 895 204 886L276 765Q281 755 270 755H263Z"  />
<glyph unicode="&#x126;" horiz-adv-x="424" d="M331 0Q321 0 321 10V331Q321 337 315 337H109Q103 337 103 331V10Q103 0 93 0H84Q74 0 74 10V490Q74 496 68 496H42Q32 496 32 506V512Q32 522 42 522H68Q74 522 74 528V670Q74 680 84 680H93Q103 680 103 670V528Q103 522 109 522H315Q321 522 321 528V670Q321 680 331 680H340Q350 680 350 670V528Q350 522 356 522H382Q392 522 392 512V506Q392 496 382 496H356Q350 496 350 490V10Q350 0 340 0H331ZM315 364Q321 364 321 370V490Q321 496 315 496H109Q103 496 103 490V370Q103 364 109 364H315Z"  />
<glyph unicode="&#x127;" horiz-adv-x="370" d="M284 0Q274 0 274 10V334Q274 394 254 425T187 456Q148 456 124 427T100 334V10Q100 0 90 0H82Q72 0 72 10V567Q72 573 66 573H37Q27 573 27 583V588Q27 598 37 598H66Q72 598 72 604V670Q72 680 82 680H90Q100 680 100 670V604Q100 598 106 598H199Q209 598 209 588V583Q209 573 199 573H106Q100 573 100 567V425H101Q109 448 131 465T191 482Q248 482 275 446T302 340V10Q302 0 292 0H284Z"  />
<glyph unicode="&#x128;" horiz-adv-x="177" d="M74 670Q74 680 84 680H93Q103 680 103 670V10Q103 0 93 0H84Q74 0 74 10V670ZM126 794Q112 794 102 800T83 815Q75 822 68 827T53 832Q42 832 34 825T17 802Q14 797 10 798T6 804V820Q6 828 12 835Q20 846 30 852T54 858Q68 858 78 852T97 837Q105 830 112 825T127 820Q138 820 146 827T163 850Q166 855 170 854T174 848V832Q174 824 168 817Q160 806 150 800T126 794Z"  />
<glyph unicode="&#x129;" horiz-adv-x="172" d="M82 0Q72 0 72 10V464Q72 474 82 474H90Q100 474 100 464V10Q100 0 90 0H82ZM123 611Q109 611 99 617T80 632Q72 639 65 644T50 649Q39 649 31 642T14 619Q11 614 7 615T3 621V637Q3 645 9 652Q17 663 27 669T51 675Q65 675 75 669T94 654Q102 647 109 642T124 637Q135 637 143 644T160 667Q163 672 167 671T171 665V649Q171 641 165 634Q157 623 147 617T123 611Z"  />
<glyph unicode="&#x12A;" horiz-adv-x="177" d="M74 670Q74 680 84 680H93Q103 680 103 670V10Q103 0 93 0H84Q74 0 74 10V670ZM4 811Q-6 811 -6 821V827Q-6 837 4 837H176Q186 837 186 827V821Q186 811 176 811H4Z"  />
<glyph unicode="&#x12B;" horiz-adv-x="172" d="M82 0Q72 0 72 10V464Q72 474 82 474H90Q100 474 100 464V10Q100 0 90 0H82ZM1 636Q-9 636 -9 646V652Q-9 662 1 662H173Q183 662 183 652V646Q183 636 173 636H1Z"  />
<glyph unicode="&#x12C;" horiz-adv-x="177" d="M74 670Q74 680 84 680H93Q103 680 103 670V10Q103 0 93 0H84Q74 0 74 10V670ZM90 775Q51 775 28 799T-2 869Q-4 879 7 879H13Q22 879 24 869Q36 801 90 801Q144 801 156 869Q158 879 167 879H173Q184 879 182 869Q176 824 153 800T90 775Z"  />
<glyph unicode="&#x12D;" horiz-adv-x="172" d="M82 0Q72 0 72 10V464Q72 474 82 474H90Q100 474 100 464V10Q100 0 90 0H82ZM87 579Q48 579 25 603T-5 673Q-7 683 4 683H10Q19 683 21 673Q33 605 87 605Q141 605 153 673Q155 683 164 683H170Q181 683 179 673Q173 628 150 604T87 579Z"  />
<glyph unicode="&#x12E;" horiz-adv-x="177" d="M71 -162Q50 -162 36 -148T21 -110Q21 -81 36 -54T74 2V670Q74 680 84 680H93Q103 680 103 670V10Q103 5 99 0Q81 -24 71 -41T55 -70T49 -91T47 -108Q47 -122 54 -130T74 -138Q85 -138 98 -130Q106 -125 110 -132L113 -137Q117 -144 109 -150Q101 -155 93 -158T71 -162Z"  />
<glyph unicode="&#x12F;" horiz-adv-x="172" d="M75 620Q65 620 65 630V670Q65 680 75 680H97Q107 680 107 670V630Q107 620 97 620H75ZM68 -162Q47 -162 33 -148T18 -110Q18 -100 20 -89T28 -66T44 -37T72 2V464Q72 474 82 474H90Q100 474 100 464V10Q100 5 96 0Q78 -24 68 -41T52 -70T46 -91T44 -108Q44 -122 51 -130T71 -138Q82 -138 95 -130Q103 -125 107 -132L110 -137Q114 -144 106 -150Q98 -155 90 -158T68 -162Z"  />
<glyph unicode="&#x130;" horiz-adv-x="177" d="M74 670Q74 680 84 680H93Q103 680 103 670V10Q103 0 93 0H84Q74 0 74 10V670ZM79 795Q69 795 69 805V845Q69 855 79 855H101Q111 855 111 845V805Q111 795 101 795H79Z"  />
<glyph unicode="&#x131;" horiz-adv-x="172" d="M82 0Q72 0 72 10V464Q72 474 82 474H90Q100 474 100 464V10Q100 0 90 0H82Z"  />
<glyph unicode="&#x132;" horiz-adv-x="493" d="M74 670Q74 680 84 680H93Q103 680 103 670V10Q103 0 93 0H84Q74 0 74 10V670ZM219 25Q216 28 216 32T220 39L227 46Q233 52 240 45Q253 33 269 26T303 19Q344 19 367 45T391 128V670Q391 680 401 680H410Q420 680 420 670V129Q420 62 389 27T304 -8Q252 -8 219 25Z"  />
<glyph unicode="&#x133;" horiz-adv-x="344" d="M75 620Q65 620 65 630V670Q65 680 75 680H97Q107 680 107 670V630Q107 620 97 620H75ZM82 0Q72 0 72 10V464Q72 474 82 474H90Q100 474 100 464V10Q100 0 90 0H82ZM247 620Q237 620 237 630V670Q237 680 247 680H269Q279 680 279 670V630Q279 620 269 620H247ZM204 -180Q194 -180 194 -170V-164Q194 -154 204 -154H209Q244 -154 244 -115V464Q244 474 254 474H262Q272 474 272 464V-112Q272 -180 209 -180H204Z"  />
<glyph unicode="&#x134;" horiz-adv-x="316" d="M42 25Q39 28 39 32T43 39L50 46Q56 52 63 45Q76 33 92 26T126 19Q167 19 190 45T214 128V670Q214 680 224 680H233Q243 680 243 670V129Q243 62 212 27T127 -8Q75 -8 42 25ZM302 755Q294 755 288 765L227 863H225L164 765Q158 755 150 755H143Q132 755 137 765L209 886Q214 895 223 895H229Q238 895 243 886L315 765Q320 755 309 755H302Z"  />
<glyph unicode="&#x135;" horiz-adv-x="172" d="M32 -180Q22 -180 22 -170V-164Q22 -154 32 -154H37Q72 -154 72 -115V464Q72 474 82 474H90Q100 474 100 464V-112Q100 -180 37 -180H32ZM163 560Q155 560 149 570L88 668H86L25 570Q19 560 11 560H4Q-7 560 -2 570L70 691Q75 700 84 700H90Q99 700 104 691L176 570Q181 560 170 560H163Z"  />
<glyph unicode="&#x136;" horiz-adv-x="381" d="M74 670Q74 680 84 680H93Q103 680 103 670V295L295 672Q299 680 307 680H320Q330 680 326 672L195 417L347 10Q351 0 342 0H328Q320 0 317 8L178 384L103 238V10Q103 0 93 0H84Q74 0 74 10V670ZM196 -183Q189 -183 189 -174V-65Q189 -55 198 -55H209Q218 -55 218 -65V-129Q218 -137 217 -143T213 -157L206 -176Q202 -183 196 -183Z"  />
<glyph unicode="&#x137;" horiz-adv-x="332" d="M285 0Q275 0 271 10L163 257L100 146V10Q100 0 90 0H82Q72 0 72 10V670Q72 680 82 680H90Q100 680 100 670V195L251 464Q256 474 265 474H276Q281 474 282 471T282 464L180 287L301 10Q304 0 293 0H285ZM166 -183Q159 -183 159 -174V-65Q159 -55 168 -55H179Q188 -55 188 -65V-129Q188 -137 187 -143T183 -157L176 -176Q172 -183 166 -183Z"  />
<glyph unicode="&#x138;" horiz-adv-x="332" d="M285 0Q275 0 271 10L163 257L100 146V10Q100 0 90 0H82Q72 0 72 10V464Q72 474 82 474H90Q100 474 100 464V195L251 464Q256 474 265 474H276Q281 474 282 471T282 464L180 287L301 10Q304 0 293 0H285Z"  />
<glyph unicode="&#x139;" horiz-adv-x="332" d="M74 670Q74 680 84 680H93Q103 680 103 670V33Q103 27 109 27H296Q306 27 306 17V10Q306 0 296 0H84Q74 0 74 10V670ZM106 766Q101 766 100 769T102 776L177 878Q181 883 184 885T194 888H207Q212 888 213 885T211 878L129 776Q120 766 112 766H106Z"  />
<glyph unicode="&#x13A;" horiz-adv-x="196" d="M143 -1Q105 3 89 24T72 97V670Q72 680 82 680H90Q100 680 100 670V89Q100 58 110 44T146 25L151 24Q161 23 161 14V7Q161 -4 152 -2L143 -1ZM90 766Q85 766 84 769T86 776L161 878Q165 883 168 885T178 888H191Q196 888 197 885T195 878L113 776Q104 766 96 766H90Z"  />
<glyph unicode="&#x13B;" horiz-adv-x="332" d="M74 670Q74 680 84 680H93Q103 680 103 670V33Q103 27 109 27H296Q306 27 306 17V10Q306 0 296 0H84Q74 0 74 10V670ZM179 -183Q172 -183 172 -174V-65Q172 -55 181 -55H192Q201 -55 201 -65V-129Q201 -137 200 -143T196 -157L189 -176Q185 -183 179 -183Z"  />
<glyph unicode="&#x13C;" horiz-adv-x="196" d="M143 -1Q105 3 89 24T72 97V670Q72 680 82 680H90Q100 680 100 670V89Q100 58 110 44T146 25L151 24Q161 23 161 14V7Q161 -4 152 -2L143 -1ZM95 -183Q88 -183 88 -174V-65Q88 -55 97 -55H108Q117 -55 117 -65V-129Q117 -137 116 -143T112 -157L105 -176Q101 -183 95 -183Z"  />
<glyph unicode="&#x13D;" horiz-adv-x="332" d="M74 670Q74 680 84 680H93Q103 680 103 670V33Q103 27 109 27H296Q306 27 306 17V10Q306 0 296 0H84Q74 0 74 10V670ZM166 552Q159 552 159 561V670Q159 680 168 680H179Q188 680 188 670V606Q188 598 187 592T183 578L176 559Q172 552 166 552Z"  />
<glyph unicode="&#x13E;" horiz-adv-x="196" d="M143 -1Q105 3 89 24T72 97V670Q72 680 82 680H90Q100 680 100 670V89Q100 58 110 44T146 25L151 24Q161 23 161 14V7Q161 -4 152 -2L143 -1ZM151 552Q144 552 144 561V670Q144 680 153 680H164Q173 680 173 670V606Q173 598 172 592T168 578L161 559Q157 552 151 552Z"  />
<glyph unicode="&#x13F;" horiz-adv-x="332" d="M74 670Q74 680 84 680H93Q103 680 103 670V33Q103 27 109 27H296Q306 27 306 17V10Q306 0 296 0H84Q74 0 74 10V670ZM240 276Q230 276 230 286V336Q230 346 240 346H268Q278 346 278 336V286Q278 276 268 276H240Z"  />
<glyph unicode="&#x140;" horiz-adv-x="196" d="M143 -1Q105 3 89 24T72 97V670Q72 680 82 680H90Q100 680 100 670V89Q100 58 110 44T146 25L151 24Q161 23 161 14V7Q161 -4 152 -2L143 -1ZM170 281Q160 281 160 291V341Q160 351 170 351H198Q208 351 208 341V291Q208 281 198 281H170Z"  />
<glyph unicode="&#x141;" horiz-adv-x="332" d="M103 333V33Q103 27 109 27H296Q306 27 306 17V10Q306 0 296 0H84Q74 0 74 10V313L27 281Q23 279 20 280T17 286V296Q17 305 27 312L74 344V670Q74 680 84 680H93Q103 680 103 670V364L196 428Q200 430 203 429T206 423V413Q206 404 196 397L103 333Z"  />
<glyph unicode="&#x142;" horiz-adv-x="196" d="M100 363V89Q100 58 110 44T146 25L151 24Q161 23 161 14V7Q161 -4 152 -2L143 -1Q105 3 89 24T72 97V343L38 320Q34 318 31 319T28 325V334Q28 343 38 350L72 373V670Q72 680 82 680H90Q100 680 100 670V393L151 428Q155 430 158 429T161 423V414Q161 405 151 398L100 363Z"  />
<glyph unicode="&#x143;" horiz-adv-x="432" d="M74 670Q74 680 84 680H97Q110 680 114 670L327 74H329V670Q329 680 339 680H348Q358 680 358 670V10Q358 0 348 0H335Q322 0 318 10L105 609H103V10Q103 0 93 0H84Q74 0 74 10V670ZM204 766Q199 766 198 769T200 776L275 878Q279 883 282 885T292 888H305Q310 888 311 885T309 878L227 776Q218 766 210 766H204Z"  />
<glyph unicode="&#x144;" horiz-adv-x="370" d="M284 0Q274 0 274 10V334Q274 394 254 425T187 456Q148 456 124 427T100 334V10Q100 0 90 0H82Q72 0 72 10V464Q72 474 82 474H90Q100 474 100 464V425H101Q109 448 131 465T191 482Q248 482 275 446T302 340V10Q302 0 292 0H284ZM156 560Q146 560 151 570L222 690Q228 700 238 700H251Q256 700 257 697T256 690L178 570Q173 564 170 562T161 560H156Z"  />
<glyph unicode="&#x145;" horiz-adv-x="432" d="M74 670Q74 680 84 680H97Q110 680 114 670L327 74H329V670Q329 680 339 680H348Q358 680 358 670V10Q358 0 348 0H335Q322 0 318 10L105 609H103V10Q103 0 93 0H84Q74 0 74 10V670ZM208 -183Q201 -183 201 -174V-65Q201 -55 210 -55H221Q230 -55 230 -65V-129Q230 -137 229 -143T225 -157L218 -176Q214 -183 208 -183Z"  />
<glyph unicode="&#x146;" horiz-adv-x="370" d="M284 0Q274 0 274 10V334Q274 394 254 425T187 456Q148 456 124 427T100 334V10Q100 0 90 0H82Q72 0 72 10V464Q72 474 82 474H90Q100 474 100 464V425H101Q109 448 131 465T191 482Q248 482 275 446T302 340V10Q302 0 292 0H284ZM177 -183Q170 -183 170 -174V-65Q170 -55 179 -55H190Q199 -55 199 -65V-129Q199 -137 198 -143T194 -157L187 -176Q183 -183 177 -183Z"  />
<glyph unicode="&#x147;" horiz-adv-x="432" d="M74 670Q74 680 84 680H97Q110 680 114 670L327 74H329V670Q329 680 339 680H348Q358 680 358 670V10Q358 0 348 0H335Q322 0 318 10L105 609H103V10Q103 0 93 0H84Q74 0 74 10V670ZM213 755Q204 755 199 764L127 885Q122 895 133 895H140Q148 895 154 885L215 787H217L278 885Q284 895 292 895H299Q310 895 305 885L233 764Q228 755 219 755H213Z"  />
<glyph unicode="&#x148;" horiz-adv-x="370" d="M284 0Q274 0 274 10V334Q274 394 254 425T187 456Q148 456 124 427T100 334V10Q100 0 90 0H82Q72 0 72 10V464Q72 474 82 474H90Q100 474 100 464V425H101Q109 448 131 465T191 482Q248 482 275 446T302 340V10Q302 0 292 0H284ZM183 558Q174 558 169 567L97 688Q92 698 103 698H110Q118 698 124 688L185 590H187L248 688Q254 698 262 698H269Q280 698 275 688L203 567Q198 558 189 558H183Z"  />
<glyph unicode="&#x149;" horiz-adv-x="370" d="M284 0Q274 0 274 10V334Q274 394 254 425T187 456Q148 456 124 427T100 334V10Q100 0 90 0H82Q72 0 72 10V464Q72 474 82 474H90Q100 474 100 464V425H101Q109 448 131 465T191 482Q248 482 275 446T302 340V10Q302 0 292 0H284ZM53 552Q46 552 46 561V670Q46 680 55 680H66Q75 680 75 670V606Q75 598 74 592T70 578L63 559Q59 552 53 552Z"  />
<glyph unicode="&#x14A;" horiz-adv-x="432" d="M268 -180Q258 -180 258 -170V-163Q258 -153 268 -153H273Q303 -153 316 -139T329 -93V-19L105 609H103V10Q103 0 93 0H84Q74 0 74 10V670Q74 680 84 680H97Q110 680 114 670L327 74H329V670Q329 680 339 680H348Q358 680 358 670V-90Q358 -138 337 -159T273 -180H268Z"  />
<glyph unicode="&#x14B;" horiz-adv-x="370" d="M234 -180Q224 -180 224 -170V-164Q224 -154 234 -154H239Q274 -154 274 -115V334Q274 394 254 425T187 456Q148 456 124 427T100 334V10Q100 0 90 0H82Q72 0 72 10V464Q72 474 82 474H90Q100 474 100 464V425H101Q109 448 131 465T191 482Q248 482 275 446T302 340V-112Q302 -180 239 -180H234Z"  />
<glyph unicode="&#x14C;" horiz-adv-x="408" d="M204 -8Q156 -8 124 13T77 80Q73 91 71 104T67 145T65 217T64 340Q64 416 64 462T66 535T70 575T77 600Q91 645 123 666T204 688Q252 688 284 667T331 600Q335 589 337 576T341 535T343 462T344 340Q344 263 344 218T342 145T338 105T331 80Q317 35 285 14T204 -8ZM204 19Q280 19 303 90Q306 99 308 111T311 150T314 220T315 340Q315 415 314 459T312 530T308 568T303 590Q280 661 204 661Q128 661 105 590Q102 581 100 569T96 530T94 460T93 340Q93 265 93 221T95 150T99 112T105 90Q128 19 204 19ZM118 811Q108 811 108 821V827Q108 837 118 837H290Q300 837 300 827V821Q300 811 290 811H118Z"  />
<glyph unicode="&#x14D;" horiz-adv-x="352" d="M176 -8Q137 -8 109 10T69 66Q66 76 64 86T61 114T60 160T59 237Q59 285 59 314T61 360T64 387T69 408Q81 445 109 463T176 482Q215 482 243 464T283 408Q286 397 288 387T291 360T292 314T293 237Q293 189 293 160T291 114T288 87T283 66Q271 29 243 11T176 -8ZM176 18Q237 18 256 75Q259 84 261 94T263 120T264 164T265 237Q265 282 265 309T264 353T261 380T256 399Q237 456 176 456Q115 456 96 399Q93 390 91 380T89 354T88 310T87 237Q87 192 87 165T88 121T91 94T96 75Q115 18 176 18ZM90 636Q80 636 80 646V652Q80 662 90 662H262Q272 662 272 652V646Q272 636 262 636H90Z"  />
<glyph unicode="&#x14E;" horiz-adv-x="408" d="M204 -8Q156 -8 124 13T77 80Q73 91 71 104T67 145T65 217T64 340Q64 416 64 462T66 535T70 575T77 600Q91 645 123 666T204 688Q252 688 284 667T331 600Q335 589 337 576T341 535T343 462T344 340Q344 263 344 218T342 145T338 105T331 80Q317 35 285 14T204 -8ZM204 19Q280 19 303 90Q306 99 308 111T311 150T314 220T315 340Q315 415 314 459T312 530T308 568T303 590Q280 661 204 661Q128 661 105 590Q102 581 100 569T96 530T94 460T93 340Q93 265 93 221T95 150T99 112T105 90Q128 19 204 19ZM204 775Q165 775 142 799T112 869Q110 879 121 879H127Q136 879 138 869Q150 801 204 801Q258 801 270 869Q272 879 281 879H287Q298 879 296 869Q290 824 267 800T204 775Z"  />
<glyph unicode="&#x14F;" horiz-adv-x="352" d="M176 -8Q137 -8 109 10T69 66Q66 76 64 86T61 114T60 160T59 237Q59 285 59 314T61 360T64 387T69 408Q81 445 109 463T176 482Q215 482 243 464T283 408Q286 397 288 387T291 360T292 314T293 237Q293 189 293 160T291 114T288 87T283 66Q271 29 243 11T176 -8ZM176 18Q237 18 256 75Q259 84 261 94T263 120T264 164T265 237Q265 282 265 309T264 353T261 380T256 399Q237 456 176 456Q115 456 96 399Q93 390 91 380T89 354T88 310T87 237Q87 192 87 165T88 121T91 94T96 75Q115 18 176 18ZM176 579Q137 579 114 603T84 673Q82 683 93 683H99Q108 683 110 673Q122 605 176 605Q230 605 242 673Q244 683 253 683H259Q270 683 268 673Q262 628 239 604T176 579Z"  />
<glyph unicode="&#x150;" horiz-adv-x="408" d="M204 -8Q156 -8 124 13T77 80Q73 91 71 104T67 145T65 217T64 340Q64 416 64 462T66 535T70 575T77 600Q91 645 123 666T204 688Q252 688 284 667T331 600Q335 589 337 576T341 535T343 462T344 340Q344 263 344 218T342 145T338 105T331 80Q317 35 285 14T204 -8ZM204 19Q280 19 303 90Q306 99 308 111T311 150T314 220T315 340Q315 415 314 459T312 530T308 568T303 590Q280 661 204 661Q128 661 105 590Q102 581 100 569T96 530T94 460T93 340Q93 265 93 221T95 150T99 112T105 90Q128 19 204 19ZM254 766Q244 766 249 776L312 878Q318 888 328 888H340Q345 888 346 885T345 878L275 776Q270 769 267 768T258 766H254ZM149 766Q139 766 144 776L207 878Q213 888 223 888H235Q240 888 241 885T240 878L170 776Q165 769 162 768T153 766H149Z"  />
<glyph unicode="&#x151;" horiz-adv-x="352" d="M176 -8Q137 -8 109 10T69 66Q66 76 64 86T61 114T60 160T59 237Q59 285 59 314T61 360T64 387T69 408Q81 445 109 463T176 482Q215 482 243 464T283 408Q286 397 288 387T291 360T292 314T293 237Q293 189 293 160T291 114T288 87T283 66Q271 29 243 11T176 -8ZM176 18Q237 18 256 75Q259 84 261 94T263 120T264 164T265 237Q265 282 265 309T264 353T261 380T256 399Q237 456 176 456Q115 456 96 399Q93 390 91 380T89 354T88 310T87 237Q87 192 87 165T88 121T91 94T96 75Q115 18 176 18ZM222 560Q212 560 217 570L279 690Q285 700 295 700H307Q312 700 313 697T312 690L243 570Q239 563 236 562T226 560H222ZM117 560Q107 560 112 570L174 690Q180 700 190 700H202Q207 700 208 697T207 690L138 570Q134 563 131 562T121 560H117Z"  />
<glyph unicode="&#x152;" horiz-adv-x="580" d="M325 0Q315 0 315 10V51H314Q301 25 274 9T204 -8Q156 -8 124 13T77 80Q73 91 71 104T67 145T65 217T64 340Q64 416 64 462T66 535T70 575T77 600Q91 645 123 666T204 688Q246 688 273 672T314 629H315V670Q315 680 325 680H537Q547 680 547 670V663Q547 653 537 653H350Q344 653 344 647V365Q344 359 350 359H514Q524 359 524 349V342Q524 332 514 332H350Q344 332 344 327V33Q344 27 350 27H537Q547 27 547 17V10Q547 0 537 0H325ZM204 19Q280 19 303 90Q306 99 308 111T311 150T314 220T315 340Q315 415 314 459T312 530T308 568T303 590Q280 661 204 661Q128 661 105 590Q102 581 100 569T96 530T94 460T93 340Q93 265 93 221T95 150T99 112T105 90Q128 19 204 19Z"  />
<glyph unicode="&#x153;" horiz-adv-x="550" d="M378 -8Q341 -8 316 10T280 61H279Q267 26 240 9T176 -8Q137 -8 109 10T69 66Q66 76 64 86T61 114T60 160T59 237Q59 285 59 314T61 360T64 387T69 408Q81 445 109 463T176 482Q254 482 279 413H280Q291 446 316 464T380 482Q418 482 445 464T484 408Q486 401 488 392T491 366T494 320T495 248Q495 238 485 238H299Q293 238 293 232Q293 188 293 161T295 117T299 91T303 75Q313 46 332 32T378 18Q413 18 433 35T465 95Q468 105 477 102L484 100Q493 98 490 88Q479 38 451 15T378 -8ZM461 264Q467 264 467 270Q467 304 466 326T464 363T461 385T457 399Q448 428 428 442T380 456Q352 456 332 442T303 399Q301 394 300 387T297 366T294 329T293 270Q293 264 299 264H461ZM176 18Q237 18 256 75Q259 84 261 94T263 120T264 164T265 237Q265 282 265 309T264 353T261 380T256 399Q237 456 176 456Q115 456 96 399Q93 390 91 380T89 354T88 310T87 237Q87 192 87 165T88 121T91 94T96 75Q115 18 176 18Z"  />
<glyph unicode="&#x154;" horiz-adv-x="388" d="M315 0Q307 0 304 7L214 320Q202 318 189 317T162 316H109Q103 316 103 310V10Q103 0 93 0H84Q74 0 74 10V670Q74 680 84 680H165Q209 680 240 671T291 639T320 583T329 498Q329 424 308 384T243 328L334 10Q337 0 329 0H315ZM170 343Q203 343 227 350T268 374T292 422T300 498Q300 541 293 571T270 619T230 645T170 653H109Q103 653 103 647V349Q103 343 109 343H170ZM175 766Q170 766 169 769T171 776L246 878Q250 883 253 885T263 888H276Q281 888 282 885T280 878L198 776Q189 766 181 766H175Z"  />
<glyph unicode="&#x155;" horiz-adv-x="228" d="M82 0Q72 0 72 10V464Q72 474 82 474H90Q100 474 100 464V423H101Q108 448 128 465T177 482Q189 482 197 479Q206 475 203 466L201 461Q198 452 189 455Q181 457 174 457Q146 457 123 426T100 332V10Q100 0 90 0H82ZM115 560Q105 560 110 570L181 690Q187 700 197 700H210Q215 700 216 697T215 690L137 570Q132 564 129 562T120 560H115Z"  />
<glyph unicode="&#x156;" horiz-adv-x="388" d="M315 0Q307 0 304 7L214 320Q202 318 189 317T162 316H109Q103 316 103 310V10Q103 0 93 0H84Q74 0 74 10V670Q74 680 84 680H165Q209 680 240 671T291 639T320 583T329 498Q329 424 308 384T243 328L334 10Q337 0 329 0H315ZM170 343Q203 343 227 350T268 374T292 422T300 498Q300 541 293 571T270 619T230 645T170 653H109Q103 653 103 647V349Q103 343 109 343H170ZM193 -183Q186 -183 186 -174V-65Q186 -55 195 -55H206Q215 -55 215 -65V-129Q215 -137 214 -143T210 -157L203 -176Q199 -183 193 -183Z"  />
<glyph unicode="&#x157;" horiz-adv-x="228" d="M82 0Q72 0 72 10V464Q72 474 82 474H90Q100 474 100 464V423H101Q108 448 128 465T177 482Q189 482 197 479Q206 475 203 466L201 461Q198 452 189 455Q181 457 174 457Q146 457 123 426T100 332V10Q100 0 90 0H82ZM79 -183Q72 -183 72 -174V-65Q72 -55 81 -55H92Q101 -55 101 -65V-129Q101 -137 100 -143T96 -157L89 -176Q85 -183 79 -183Z"  />
<glyph unicode="&#x158;" horiz-adv-x="388" d="M315 0Q307 0 304 7L214 320Q202 318 189 317T162 316H109Q103 316 103 310V10Q103 0 93 0H84Q74 0 74 10V670Q74 680 84 680H165Q209 680 240 671T291 639T320 583T329 498Q329 424 308 384T243 328L334 10Q337 0 329 0H315ZM170 343Q203 343 227 350T268 374T292 422T300 498Q300 541 293 571T270 619T230 645T170 653H109Q103 653 103 647V349Q103 343 109 343H170ZM184 755Q175 755 170 764L98 885Q93 895 104 895H111Q119 895 125 885L186 787H188L249 885Q255 895 263 895H270Q281 895 276 885L204 764Q199 755 190 755H184Z"  />
<glyph unicode="&#x159;" horiz-adv-x="228" d="M82 0Q72 0 72 10V464Q72 474 82 474H90Q100 474 100 464V423H101Q108 448 128 465T177 482Q189 482 197 479Q206 475 203 466L201 461Q198 452 189 455Q181 457 174 457Q146 457 123 426T100 332V10Q100 0 90 0H82ZM123 558Q114 558 109 567L37 688Q32 698 43 698H50Q58 698 64 688L125 590H127L188 688Q194 698 202 698H209Q220 698 215 688L143 567Q138 558 129 558H123Z"  />
<glyph unicode="&#x15A;" horiz-adv-x="364" d="M314 183Q314 129 306 93T282 34T241 2T182 -8Q116 -8 84 33T46 161Q46 170 53 172L61 174Q72 177 72 166Q78 83 105 51T182 19Q207 19 226 26T259 51T278 100T285 181Q285 250 267 282T207 331L166 347Q133 360 112 375T78 410T60 458T55 524Q55 609 86 648T181 688Q242 688 274 651T308 535Q308 526 301 524L293 522Q282 519 282 530Q279 599 256 630T181 661Q130 661 107 629T84 525Q84 460 102 429T163 381L204 365Q235 353 256 338T290 302T308 252T314 183ZM170 766Q165 766 164 769T166 776L241 878Q245 883 248 885T258 888H271Q276 888 277 885T275 878L193 776Q184 766 176 766H170Z"  />
<glyph unicode="&#x15B;" horiz-adv-x="329" d="M166 -8Q116 -8 87 21T51 110Q49 121 58 122L66 123Q76 125 78 115Q83 61 107 40T166 18Q205 18 227 40T249 120Q249 160 237 183T188 221L145 238Q100 256 80 284T59 360Q59 416 86 449T165 482Q190 482 209 474T241 452T261 420T271 381Q273 370 264 368L258 367Q248 365 246 375Q239 411 221 433T165 456Q126 456 107 431T87 360Q87 326 99 304T149 267L192 250Q242 230 259 199T277 119Q277 58 249 25T166 -8ZM151 560Q141 560 146 570L217 690Q223 700 233 700H246Q251 700 252 697T251 690L173 570Q168 564 165 562T156 560H151Z"  />
<glyph unicode="&#x15C;" horiz-adv-x="364" d="M314 183Q314 129 306 93T282 34T241 2T182 -8Q116 -8 84 33T46 161Q46 170 53 172L61 174Q72 177 72 166Q78 83 105 51T182 19Q207 19 226 26T259 51T278 100T285 181Q285 250 267 282T207 331L166 347Q133 360 112 375T78 410T60 458T55 524Q55 609 86 648T181 688Q242 688 274 651T308 535Q308 526 301 524L293 522Q282 519 282 530Q279 599 256 630T181 661Q130 661 107 629T84 525Q84 460 102 429T163 381L204 365Q235 353 256 338T290 302T308 252T314 183ZM257 755Q249 755 243 765L182 863H180L119 765Q113 755 105 755H98Q87 755 92 765L164 886Q169 895 178 895H184Q193 895 198 886L270 765Q275 755 264 755H257Z"  />
<glyph unicode="&#x15D;" horiz-adv-x="329" d="M166 -8Q116 -8 87 21T51 110Q49 121 58 122L66 123Q76 125 78 115Q83 61 107 40T166 18Q205 18 227 40T249 120Q249 160 237 183T188 221L145 238Q100 256 80 284T59 360Q59 416 86 449T165 482Q190 482 209 474T241 452T261 420T271 381Q273 370 264 368L258 367Q248 365 246 375Q239 411 221 433T165 456Q126 456 107 431T87 360Q87 326 99 304T149 267L192 250Q242 230 259 199T277 119Q277 58 249 25T166 -8ZM242 560Q234 560 228 570L167 668H165L104 570Q98 560 90 560H83Q72 560 77 570L149 691Q154 700 163 700H169Q178 700 183 691L255 570Q260 560 249 560H242Z"  />
<glyph unicode="&#x15E;" horiz-adv-x="364" d="M170 -7Q110 -4 80 37T46 161Q46 170 53 172L61 174Q72 177 72 166Q78 83 105 51T182 19Q207 19 226 26T259 51T278 100T285 181Q285 250 267 282T207 331L166 347Q133 360 112 375T78 410T60 458T55 524Q55 609 86 648T181 688Q242 688 274 651T308 535Q308 526 301 524L293 522Q282 519 282 530Q279 599 256 630T181 661Q130 661 107 629T84 525Q84 460 102 429T163 381L204 365Q235 353 256 338T290 302T308 252T314 183Q314 132 307 97T286 40T249 6T197 -7L157 -135Q154 -145 141 -145H132Q122 -145 125 -135L170 -7Z"  />
<glyph unicode="&#x15F;" horiz-adv-x="329" d="M156 -7Q111 -5 84 24T51 110Q49 121 58 122L66 123Q76 125 78 115Q83 61 107 40T166 18Q205 18 227 40T249 120Q249 160 237 183T188 221L145 238Q100 256 80 284T59 360Q59 416 86 449T165 482Q190 482 209 474T241 452T261 420T271 381Q273 370 264 368L258 367Q248 365 246 375Q239 411 221 433T165 456Q126 456 107 431T87 360Q87 326 99 304T149 267L192 250Q242 230 259 199T277 119Q277 63 253 31T184 -7L143 -135Q140 -145 127 -145H118Q108 -145 111 -135L156 -7Z"  />
<glyph unicode="&#x160;" horiz-adv-x="364" d="M314 183Q314 129 306 93T282 34T241 2T182 -8Q116 -8 84 33T46 161Q46 170 53 172L61 174Q72 177 72 166Q78 83 105 51T182 19Q207 19 226 26T259 51T278 100T285 181Q285 250 267 282T207 331L166 347Q133 360 112 375T78 410T60 458T55 524Q55 609 86 648T181 688Q242 688 274 651T308 535Q308 526 301 524L293 522Q282 519 282 530Q279 599 256 630T181 661Q130 661 107 629T84 525Q84 460 102 429T163 381L204 365Q235 353 256 338T290 302T308 252T314 183ZM178 755Q169 755 164 764L92 885Q87 895 98 895H105Q113 895 119 885L180 787H182L243 885Q249 895 257 895H264Q275 895 270 885L198 764Q193 755 184 755H178Z"  />
<glyph unicode="&#x161;" horiz-adv-x="329" d="M166 -8Q116 -8 87 21T51 110Q49 121 58 122L66 123Q76 125 78 115Q83 61 107 40T166 18Q205 18 227 40T249 120Q249 160 237 183T188 221L145 238Q100 256 80 284T59 360Q59 416 86 449T165 482Q190 482 209 474T241 452T261 420T271 381Q273 370 264 368L258 367Q248 365 246 375Q239 411 221 433T165 456Q126 456 107 431T87 360Q87 326 99 304T149 267L192 250Q242 230 259 199T277 119Q277 58 249 25T166 -8ZM163 558Q154 558 149 567L77 688Q72 698 83 698H90Q98 698 104 688L165 590H167L228 688Q234 698 242 698H249Q260 698 255 688L183 567Q178 558 169 558H163Z"  />
<glyph unicode="&#x162;" horiz-adv-x="353" d="M172 0Q162 0 162 10V647Q162 653 156 653H29Q19 653 19 663V670Q19 680 29 680H324Q334 680 334 670V663Q334 653 324 653H197Q191 653 191 647V10Q191 0 181 0H172ZM168 -183Q161 -183 161 -174V-65Q161 -55 170 -55H181Q190 -55 190 -65V-129Q190 -137 189 -143T185 -157L178 -176Q174 -183 168 -183Z"  />
<glyph unicode="&#x163;" horiz-adv-x="218" d="M156 -2Q118 -2 103 15T87 71V442Q87 448 81 448H52Q42 448 42 458V464Q42 474 52 474H81Q87 474 87 480V620Q87 630 97 630H105Q115 630 115 620V480Q115 474 121 474H170Q180 474 180 464V458Q180 448 170 448H121Q115 448 115 442V70Q115 46 124 35T156 24H170Q180 24 180 14V8Q180 -2 170 -2H156ZM121 -183Q114 -183 114 -174V-65Q114 -55 123 -55H134Q143 -55 143 -65V-129Q143 -137 142 -143T138 -157L131 -176Q127 -183 121 -183Z"  />
<glyph unicode="&#x164;" horiz-adv-x="353" d="M172 0Q162 0 162 10V647Q162 653 156 653H29Q19 653 19 663V670Q19 680 29 680H324Q334 680 334 670V663Q334 653 324 653H197Q191 653 191 647V10Q191 0 181 0H172ZM173 755Q164 755 159 764L87 885Q82 895 93 895H100Q108 895 114 885L175 787H177L238 885Q244 895 252 895H259Q270 895 265 885L193 764Q188 755 179 755H173Z"  />
<glyph unicode="&#x165;" horiz-adv-x="218" d="M156 -2Q118 -2 103 15T87 71V442Q87 448 81 448H52Q42 448 42 458V464Q42 474 52 474H81Q87 474 87 480V620Q87 630 97 630H105Q115 630 115 620V480Q115 474 121 474H170Q180 474 180 464V458Q180 448 170 448H121Q115 448 115 442V70Q115 46 124 35T156 24H170Q180 24 180 14V8Q180 -2 170 -2H156ZM162 552Q155 552 155 561V670Q155 680 164 680H175Q184 680 184 670V606Q184 598 183 592T179 578L172 559Q168 552 162 552Z"  />
<glyph unicode="&#x166;" horiz-adv-x="353" d="M172 0Q162 0 162 10V425Q162 431 156 431H80Q70 431 70 441V447Q70 457 80 457H156Q162 457 162 463V647Q162 653 156 653H29Q19 653 19 663V670Q19 680 29 680H324Q334 680 334 670V663Q334 653 324 653H197Q191 653 191 647V463Q191 457 197 457H273Q283 457 283 447V441Q283 431 273 431H197Q191 431 191 425V10Q191 0 181 0H172Z"  />
<glyph unicode="&#x167;" horiz-adv-x="218" d="M156 -2Q118 -2 103 15T87 71V328Q87 334 81 334H58Q48 334 48 344V349Q48 359 58 359H81Q87 359 87 365V442Q87 448 81 448H52Q42 448 42 458V464Q42 474 52 474H81Q87 474 87 480V620Q87 630 97 630H105Q115 630 115 620V480Q115 474 121 474H170Q180 474 180 464V458Q180 448 170 448H121Q115 448 115 442V365Q115 359 121 359H164Q174 359 174 349V344Q174 334 164 334H121Q115 334 115 328V70Q115 46 124 35T156 24H170Q180 24 180 14V8Q180 -2 170 -2H156Z"  />
<glyph unicode="&#x168;" horiz-adv-x="422" d="M211 -8Q150 -8 112 32T73 154V670Q73 680 83 680H92Q102 680 102 670V154Q102 83 132 51T211 19Q259 19 289 51T320 154V670Q320 680 330 680H339Q349 680 349 670V154Q349 72 311 32T211 -8ZM247 794Q233 794 223 800T204 815Q196 822 189 827T174 832Q163 832 155 825T138 802Q135 797 131 798T127 804V820Q127 828 133 835Q141 846 151 852T175 858Q189 858 199 852T218 837Q226 830 233 825T248 820Q259 820 267 827T284 850Q287 855 291 854T295 848V832Q295 824 289 817Q281 806 271 800T247 794Z"  />
<glyph unicode="&#x169;" horiz-adv-x="366" d="M276 0Q266 0 266 10V49H265Q257 26 236 9T177 -8Q120 -8 94 28T67 134V464Q67 474 77 474H85Q95 474 95 464V140Q95 80 114 49T181 18Q220 18 243 47T266 140V464Q266 474 276 474H284Q294 474 294 464V10Q294 0 284 0H276ZM218 611Q204 611 194 617T175 632Q167 639 160 644T145 649Q134 649 126 642T109 619Q106 614 102 615T98 621V637Q98 645 104 652Q112 663 122 669T146 675Q160 675 170 669T189 654Q197 647 204 642T219 637Q230 637 238 644T255 667Q258 672 262 671T266 665V649Q266 641 260 634Q252 623 242 617T218 611Z"  />
<glyph unicode="&#x16A;" horiz-adv-x="422" d="M211 -8Q150 -8 112 32T73 154V670Q73 680 83 680H92Q102 680 102 670V154Q102 83 132 51T211 19Q259 19 289 51T320 154V670Q320 680 330 680H339Q349 680 349 670V154Q349 72 311 32T211 -8ZM125 811Q115 811 115 821V827Q115 837 125 837H297Q307 837 307 827V821Q307 811 297 811H125Z"  />
<glyph unicode="&#x16B;" horiz-adv-x="366" d="M276 0Q266 0 266 10V49H265Q257 26 236 9T177 -8Q120 -8 94 28T67 134V464Q67 474 77 474H85Q95 474 95 464V140Q95 80 114 49T181 18Q220 18 243 47T266 140V464Q266 474 276 474H284Q294 474 294 464V10Q294 0 284 0H276ZM96 636Q86 636 86 646V652Q86 662 96 662H268Q278 662 278 652V646Q278 636 268 636H96Z"  />
<glyph unicode="&#x16C;" horiz-adv-x="422" d="M211 -8Q150 -8 112 32T73 154V670Q73 680 83 680H92Q102 680 102 670V154Q102 83 132 51T211 19Q259 19 289 51T320 154V670Q320 680 330 680H339Q349 680 349 670V154Q349 72 311 32T211 -8ZM211 775Q172 775 149 799T119 869Q117 879 128 879H134Q143 879 145 869Q157 801 211 801Q265 801 277 869Q279 879 288 879H294Q305 879 303 869Q297 824 274 800T211 775Z"  />
<glyph unicode="&#x16D;" horiz-adv-x="366" d="M276 0Q266 0 266 10V49H265Q257 26 236 9T177 -8Q120 -8 94 28T67 134V464Q67 474 77 474H85Q95 474 95 464V140Q95 80 114 49T181 18Q220 18 243 47T266 140V464Q266 474 276 474H284Q294 474 294 464V10Q294 0 284 0H276ZM182 579Q143 579 120 603T90 673Q88 683 99 683H105Q114 683 116 673Q128 605 182 605Q236 605 248 673Q250 683 259 683H265Q276 683 274 673Q268 628 245 604T182 579Z"  />
<glyph unicode="&#x16E;" horiz-adv-x="422" d="M211 -8Q150 -8 112 32T73 154V670Q73 680 83 680H92Q102 680 102 670V154Q102 83 132 51T211 19Q259 19 289 51T320 154V670Q320 680 330 680H339Q349 680 349 670V154Q349 72 311 32T211 -8ZM211 752Q177 752 156 773T134 829Q134 863 155 884T211 906Q245 906 266 885T288 829Q288 795 267 774T211 752ZM211 776Q234 776 248 791T262 829Q262 852 248 867T211 882Q188 882 174 867T160 829Q160 806 174 791T211 776Z"  />
<glyph unicode="&#x16F;" horiz-adv-x="366" d="M276 0Q266 0 266 10V49H265Q257 26 236 9T177 -8Q120 -8 94 28T67 134V464Q67 474 77 474H85Q95 474 95 464V140Q95 80 114 49T181 18Q220 18 243 47T266 140V464Q266 474 276 474H284Q294 474 294 464V10Q294 0 284 0H276ZM182 562Q148 562 127 583T105 639Q105 673 126 694T182 716Q216 716 237 695T259 639Q259 605 238 584T182 562ZM182 586Q205 586 219 601T233 639Q233 662 219 677T182 692Q159 692 145 677T131 639Q131 616 145 601T182 586Z"  />
<glyph unicode="&#x170;" horiz-adv-x="422" d="M211 -8Q150 -8 112 32T73 154V670Q73 680 83 680H92Q102 680 102 670V154Q102 83 132 51T211 19Q259 19 289 51T320 154V670Q320 680 330 680H339Q349 680 349 670V154Q349 72 311 32T211 -8ZM259 766Q249 766 254 776L317 878Q323 888 333 888H345Q350 888 351 885T350 878L280 776Q275 769 272 768T263 766H259ZM154 766Q144 766 149 776L212 878Q218 888 228 888H240Q245 888 246 885T245 878L175 776Q170 769 167 768T158 766H154Z"  />
<glyph unicode="&#x171;" horiz-adv-x="366" d="M276 0Q266 0 266 10V49H265Q257 26 236 9T177 -8Q120 -8 94 28T67 134V464Q67 474 77 474H85Q95 474 95 464V140Q95 80 114 49T181 18Q220 18 243 47T266 140V464Q266 474 276 474H284Q294 474 294 464V10Q294 0 284 0H276ZM226 560Q216 560 221 570L283 690Q289 700 299 700H311Q316 700 317 697T316 690L247 570Q243 563 240 562T230 560H226ZM121 560Q111 560 116 570L178 690Q184 700 194 700H206Q211 700 212 697T211 690L142 570Q138 563 135 562T125 560H121Z"  />
<glyph unicode="&#x172;" horiz-adv-x="422" d="M164 -110Q164 -101 165 -92T170 -71T181 -44T201 -7Q144 -4 109 35T73 154V670Q73 680 83 680H92Q102 680 102 670V154Q102 83 132 51T211 19Q259 19 289 51T320 154V670Q320 680 330 680H339Q349 680 349 670V154Q349 78 316 38T229 -7Q216 -31 208 -46T196 -73T191 -92T190 -108Q190 -122 197 -130T217 -138Q228 -138 241 -130Q249 -125 253 -132L256 -137Q260 -144 252 -150Q244 -155 236 -158T214 -162Q193 -162 179 -148T164 -110Z"  />
<glyph unicode="&#x173;" horiz-adv-x="366" d="M248 -162Q227 -162 213 -148T198 -110Q198 -89 213 -63T266 4V49H265Q257 26 236 9T177 -8Q120 -8 94 28T67 134V464Q67 474 77 474H85Q95 474 95 464V140Q95 80 114 49T181 18Q220 18 243 47T266 140V464Q266 474 276 474H284Q294 474 294 464V10Q294 4 290 0Q269 -24 257 -41T237 -70T227 -91T224 -108Q224 -122 231 -130T251 -138Q262 -138 275 -130Q283 -125 287 -132L290 -137Q294 -144 286 -150Q278 -155 270 -158T248 -162Z"  />
<glyph unicode="&#x174;" horiz-adv-x="570" d="M396 0Q388 0 386 10L286 596H284L184 10Q182 0 174 0H163Q155 0 153 10L38 670Q36 680 45 680H57Q65 680 67 670L167 83H169L269 670Q271 680 279 680H291Q299 680 301 670L402 83H404L503 670Q505 680 513 680H525Q534 680 532 670L417 10Q415 0 407 0H396ZM361 755Q353 755 347 765L286 863H284L223 765Q217 755 209 755H202Q191 755 196 765L268 886Q273 895 282 895H288Q297 895 302 886L374 765Q379 755 368 755H361Z"  />
<glyph unicode="&#x175;" horiz-adv-x="496" d="M339 0Q331 0 329 10L248 398H246L167 10Q165 0 157 0H149Q141 0 139 10L45 464Q43 474 53 474H63Q71 474 73 464L152 75H154L234 464Q236 474 244 474H252Q260 474 262 464L342 75H344L423 464Q425 474 433 474H443Q453 474 451 464L357 10Q355 0 347 0H339ZM324 560Q316 560 310 570L249 668H247L186 570Q180 560 172 560H165Q154 560 159 570L231 691Q236 700 245 700H251Q260 700 265 691L337 570Q342 560 331 560H324Z"  />
<glyph unicode="&#x176;" horiz-adv-x="345" d="M168 0Q158 0 158 10V286L28 670Q25 680 34 680H47Q55 680 58 670L172 337H174L287 670Q290 680 298 680H311Q320 680 317 670L187 286V10Q187 0 177 0H168ZM248 755Q240 755 234 765L173 863H171L110 765Q104 755 96 755H89Q78 755 83 765L155 886Q160 895 169 895H175Q184 895 189 886L261 765Q266 755 255 755H248Z"  />
<glyph unicode="&#x177;" horiz-adv-x="326" d="M61 -180Q51 -180 51 -170V-164Q51 -154 61 -154H71Q90 -154 102 -143T122 -98L149 10L39 464Q37 474 47 474H59Q67 474 69 464L163 73H165L259 464Q261 474 269 474H281Q291 474 289 464L150 -93Q138 -143 119 -161T67 -180H61ZM240 560Q232 560 226 570L165 668H163L102 570Q96 560 88 560H81Q70 560 75 570L147 691Q152 700 161 700H167Q176 700 181 691L253 570Q258 560 247 560H240Z"  />
<glyph unicode="&#x178;" horiz-adv-x="345" d="M168 0Q158 0 158 10V286L28 670Q25 680 34 680H47Q55 680 58 670L172 337H174L287 670Q290 680 298 680H311Q320 680 317 670L187 286V10Q187 0 177 0H168ZM227 795Q217 795 217 805V845Q217 855 227 855H249Q259 855 259 845V805Q259 795 249 795H227ZM95 795Q85 795 85 805V845Q85 855 95 855H117Q127 855 127 845V805Q127 795 117 795H95Z"  />
<glyph unicode="&#x179;" horiz-adv-x="327" d="M44 0Q34 0 34 10V17Q34 22 34 24T37 31L260 652V653H51Q41 653 41 663V670Q41 680 51 680H280Q290 680 290 670V663Q290 658 290 656T287 649L65 28V27H280Q290 27 290 17V10Q290 0 280 0H44ZM155 766Q150 766 149 769T151 776L226 878Q230 883 233 885T243 888H256Q261 888 262 885T260 878L178 776Q169 766 161 766H155Z"  />
<glyph unicode="&#x17A;" horiz-adv-x="317" d="M50 0Q40 0 40 10V16Q40 20 43 26L244 447V448H60Q50 448 50 458V464Q50 474 60 474H269Q279 474 279 464V458Q279 454 276 448L74 27V26H269Q279 26 279 16V10Q279 0 269 0H50ZM137 560Q127 560 132 570L203 690Q209 700 219 700H232Q237 700 238 697T237 690L159 570Q154 564 151 562T142 560H137Z"  />
<glyph unicode="&#x17B;" horiz-adv-x="327" d="M44 0Q34 0 34 10V17Q34 22 34 24T37 31L260 652V653H51Q41 653 41 663V670Q41 680 51 680H280Q290 680 290 670V663Q290 658 290 656T287 649L65 28V27H280Q290 27 290 17V10Q290 0 280 0H44ZM158 795Q148 795 148 805V845Q148 855 158 855H180Q190 855 190 845V805Q190 795 180 795H158Z"  />
<glyph unicode="&#x17C;" horiz-adv-x="317" d="M50 0Q40 0 40 10V16Q40 20 43 26L244 447V448H60Q50 448 50 458V464Q50 474 60 474H269Q279 474 279 464V458Q279 454 276 448L74 27V26H269Q279 26 279 16V10Q279 0 269 0H50ZM150 620Q140 620 140 630V670Q140 680 150 680H172Q182 680 182 670V630Q182 620 172 620H150Z"  />
<glyph unicode="&#x17D;" horiz-adv-x="327" d="M44 0Q34 0 34 10V17Q34 22 34 24T37 31L260 652V653H51Q41 653 41 663V670Q41 680 51 680H280Q290 680 290 670V663Q290 658 290 656T287 649L65 28V27H280Q290 27 290 17V10Q290 0 280 0H44ZM166 755Q157 755 152 764L80 885Q75 895 86 895H93Q101 895 107 885L168 787H170L231 885Q237 895 245 895H252Q263 895 258 885L186 764Q181 755 172 755H166Z"  />
<glyph unicode="&#x17E;" horiz-adv-x="317" d="M50 0Q40 0 40 10V16Q40 20 43 26L244 447V448H60Q50 448 50 458V464Q50 474 60 474H269Q279 474 279 464V458Q279 454 276 448L74 27V26H269Q279 26 279 16V10Q279 0 269 0H50ZM158 558Q149 558 144 567L72 688Q67 698 78 698H85Q93 698 99 688L160 590H162L223 688Q229 698 237 698H244Q255 698 250 688L178 567Q173 558 164 558H158Z"  />
<glyph unicode="&#x192;" horiz-adv-x="360" d="M209 361L154 -45Q149 -81 141 -106T119 -148T85 -172T35 -180H24Q14 -180 14 -170V-164Q14 -154 24 -154H32Q55 -154 71 -150T97 -133T114 -101T125 -50L181 361H108Q98 361 98 371V377Q98 387 108 387H184L206 545Q211 581 219 606T241 648T275 672T325 680H336Q346 680 346 670V664Q346 654 336 654H328Q305 654 289 650T263 633T246 601T235 550L213 387H295Q305 387 305 377V371Q305 361 295 361H209Z"  />
<glyph unicode="&#x1FA;" horiz-adv-x="375" d="M175 778Q170 778 169 781T171 788L254 878Q263 888 274 888H285Q290 888 291 885T289 878L198 788Q188 778 180 778H175ZM324 0Q316 0 314 10L277 185H98L61 10Q59 0 51 0H41Q36 0 33 2T31 10L159 604Q136 612 123 631T110 676Q110 710 131 731T187 753Q221 753 242 732T264 676Q264 650 251 631T217 604L344 10Q345 5 342 3T334 0H324ZM187 623Q210 623 224 638T238 676Q238 699 224 714T187 729Q164 729 150 714T136 676Q136 653 150 638T187 623ZM104 212H271L189 599H187L104 212Z"  />
<glyph unicode="&#x1FB;" horiz-adv-x="349" d="M169 778Q164 778 163 781T165 788L248 878Q257 888 268 888H279Q284 888 285 885T283 878L192 788Q182 778 174 778H169ZM264 0Q254 0 254 10V60H253Q243 26 217 9T161 -8Q115 -8 84 23T53 128Q53 200 86 232T182 264H248Q254 264 254 270V334Q254 400 234 428T174 456Q144 456 124 446T89 417Q83 409 75 415L70 419Q62 425 67 433Q82 454 108 468T174 482Q226 482 254 450T282 338V10Q282 0 272 0H264ZM162 18Q201 18 227 53T254 147V232Q254 238 248 238H182Q127 238 104 213T81 128Q81 69 103 44T162 18ZM174 562Q140 562 119 583T97 639Q97 673 118 694T174 716Q208 716 229 695T251 639Q251 605 230 584T174 562ZM174 586Q197 586 211 601T225 639Q225 662 211 677T174 692Q151 692 137 677T123 639Q123 616 137 601T174 586Z"  />
<glyph unicode="&#x1FC;" horiz-adv-x="572" d="M317 0Q307 0 307 10V179Q307 185 301 185H130L61 10Q57 0 48 0H38Q28 0 31 10L289 670Q292 680 302 680H529Q539 680 539 670V663Q539 653 529 653H342Q336 653 336 647V365Q336 359 342 359H506Q516 359 516 349V342Q516 332 506 332H342Q336 332 336 326V33Q336 27 342 27H529Q539 27 539 17V10Q539 0 529 0H317ZM140 212H301Q307 212 307 218V631H305L140 212ZM331 766Q326 766 325 769T327 776L402 878Q406 883 409 885T419 888H432Q437 888 438 885T436 878L354 776Q345 766 337 766H331Z"  />
<glyph unicode="&#x1FD;" horiz-adv-x="539" d="M367 -8Q330 -8 304 11T266 67H265Q234 -8 161 -8Q138 -8 119 -1T85 23T62 65T53 128Q53 200 86 232T182 264H248Q254 264 254 270V334Q254 400 234 428T174 456Q144 456 124 446T89 417Q83 409 75 415L70 419Q62 425 67 433Q82 454 108 468T174 482Q209 482 233 468T270 420H271Q284 451 309 466T369 482Q407 482 434 464T473 408Q475 401 477 392T480 366T483 320T484 248Q484 238 474 238H288Q282 238 282 232Q282 188 282 161T284 117T288 91T292 75Q302 46 321 32T367 18Q402 18 422 35T454 95Q457 105 466 102L473 100Q482 98 479 88Q468 38 440 15T367 -8ZM450 264Q456 264 456 270Q456 304 455 326T453 363T450 385T446 399Q437 428 417 442T369 456Q341 456 321 442T292 399Q290 393 289 385T286 363T283 327T282 270Q282 264 288 264H450ZM162 18Q201 18 227 53T254 147V232Q254 238 248 238H182Q127 238 104 213T81 128Q81 70 103 44T162 18ZM269 560Q259 560 264 570L335 690Q341 700 351 700H364Q369 700 370 697T369 690L291 570Q286 564 283 562T274 560H269Z"  />
<glyph unicode="&#x1FE;" horiz-adv-x="408" d="M78 -30Q67 -30 70 -20L92 47Q83 60 77 80Q73 91 71 104T67 145T65 217T64 340Q64 416 64 462T66 535T70 575T77 600Q91 645 123 666T204 688Q262 688 296 657L310 700Q313 710 322 710H330Q341 710 338 700L315 633Q325 619 331 600Q335 589 337 576T341 535T343 462T344 340Q344 263 344 218T342 145T338 105T331 80Q317 35 285 14T204 -8Q146 -8 112 23L98 -20Q95 -30 86 -30H78ZM93 340Q93 265 94 221T96 150T100 111T106 88L285 626Q257 661 204 661Q128 661 105 590Q102 581 100 569T96 530T94 460T93 340ZM204 19Q280 19 303 90Q306 99 308 111T311 150T314 220T315 340Q315 415 314 460T312 531T308 570T302 593L122 55Q149 19 204 19ZM193 766Q188 766 187 769T189 776L264 878Q268 883 271 885T281 888H294Q299 888 300 885T298 878L216 776Q207 766 199 766H193Z"  />
<glyph unicode="&#x1FF;" horiz-adv-x="352" d="M68 -30Q57 -30 60 -20L83 36Q73 51 69 66Q66 76 64 86T61 114T60 160T59 237Q59 285 59 314T61 360T64 387T69 408Q81 445 109 463T176 482Q220 482 250 457L265 494Q268 504 277 504H284Q295 504 292 494L269 437Q277 426 283 408Q286 397 288 387T291 360T292 314T293 237Q293 189 293 160T291 114T288 87T283 66Q271 29 243 11T176 -8Q131 -8 101 16L87 -20Q84 -30 75 -30H68ZM96 75Q96 73 97 72L239 429Q216 456 176 456Q115 456 96 399Q93 390 91 380T89 354T88 310T87 237Q87 192 87 165T88 121T91 94T96 75ZM176 18Q237 18 256 75Q259 84 261 94T263 120T264 164T265 237Q265 282 265 309T264 353T261 380T256 399Q255 400 255 401L113 44Q135 18 176 18ZM161 560Q151 560 156 570L227 690Q233 700 243 700H256Q261 700 262 697T261 690L183 570Q178 564 175 562T166 560H161Z"  />
<glyph unicode="&#x218;" horiz-adv-x="364" d="M314 183Q314 129 306 93T282 34T241 2T182 -8Q116 -8 84 33T46 161Q46 170 53 172L61 174Q72 177 72 166Q78 83 105 51T182 19Q207 19 226 26T259 51T278 100T285 181Q285 250 267 282T207 331L166 347Q133 360 112 375T78 410T60 458T55 524Q55 609 86 648T181 688Q242 688 274 651T308 535Q308 526 301 524L293 522Q282 519 282 530Q279 599 256 630T181 661Q130 661 107 629T84 525Q84 460 102 429T163 381L204 365Q235 353 256 338T290 302T308 252T314 183ZM173 -183Q166 -183 166 -174V-65Q166 -55 175 -55H186Q195 -55 195 -65V-129Q195 -137 194 -143T190 -157L183 -176Q179 -183 173 -183Z"  />
<glyph unicode="&#x219;" horiz-adv-x="329" d="M166 -8Q116 -8 87 21T51 110Q49 121 58 122L66 123Q76 125 78 115Q83 61 107 40T166 18Q205 18 227 40T249 120Q249 160 237 183T188 221L145 238Q100 256 80 284T59 360Q59 416 86 449T165 482Q190 482 209 474T241 452T261 420T271 381Q273 370 264 368L258 367Q248 365 246 375Q239 411 221 433T165 456Q126 456 107 431T87 360Q87 326 99 304T149 267L192 250Q242 230 259 199T277 119Q277 58 249 25T166 -8ZM158 -183Q151 -183 151 -174V-65Q151 -55 160 -55H171Q180 -55 180 -65V-129Q180 -137 179 -143T175 -157L168 -176Q164 -183 158 -183Z"  />
<glyph unicode="&#x21A;" horiz-adv-x="353" d="M172 0Q162 0 162 10V647Q162 653 156 653H29Q19 653 19 663V670Q19 680 29 680H324Q334 680 334 670V663Q334 653 324 653H197Q191 653 191 647V10Q191 0 181 0H172ZM168 -183Q161 -183 161 -174V-65Q161 -55 170 -55H181Q190 -55 190 -65V-129Q190 -137 189 -143T185 -157L178 -176Q174 -183 168 -183Z"  />
<glyph unicode="&#x21B;" horiz-adv-x="218" d="M156 -2Q118 -2 103 15T87 71V442Q87 448 81 448H52Q42 448 42 458V464Q42 474 52 474H81Q87 474 87 480V620Q87 630 97 630H105Q115 630 115 620V480Q115 474 121 474H170Q180 474 180 464V458Q180 448 170 448H121Q115 448 115 442V70Q115 46 124 35T156 24H170Q180 24 180 14V8Q180 -2 170 -2H156ZM121 -183Q114 -183 114 -174V-65Q114 -55 123 -55H134Q143 -55 143 -65V-129Q143 -137 142 -143T138 -157L131 -176Q127 -183 121 -183Z"  />
<glyph unicode="&#x237;" horiz-adv-x="172" d="M32 -180Q22 -180 22 -170V-164Q22 -154 32 -154H37Q72 -154 72 -115V464Q72 474 82 474H90Q100 474 100 464V-112Q100 -180 37 -180H32Z"  />
<glyph unicode="&#x2C6;" horiz-adv-x="340" d="M246 560Q238 560 232 570L171 668H169L108 570Q102 560 94 560H87Q76 560 81 570L153 691Q158 700 167 700H173Q182 700 187 691L259 570Q264 560 253 560H246Z"  />
<glyph unicode="&#x2C7;" horiz-adv-x="340" d="M167 558Q158 558 153 567L81 688Q76 698 87 698H94Q102 698 108 688L169 590H171L232 688Q238 698 246 698H253Q264 698 259 688L187 567Q182 558 173 558H167Z"  />
<glyph unicode="&#x2C9;" horiz-adv-x="340" d="M84 811Q74 811 74 821V827Q74 837 84 837H256Q266 837 266 827V821Q266 811 256 811H84Z"  />
<glyph unicode="&#x2D8;" horiz-adv-x="340" d="M170 579Q131 579 108 603T78 673Q76 683 87 683H93Q102 683 104 673Q116 605 170 605Q224 605 236 673Q238 683 247 683H253Q264 683 262 673Q256 628 233 604T170 579Z"  />
<glyph unicode="&#x2D9;" horiz-adv-x="340" d="M159 620Q149 620 149 630V670Q149 680 159 680H181Q191 680 191 670V630Q191 620 181 620H159Z"  />
<glyph unicode="&#x2DA;" horiz-adv-x="340" d="M170 562Q136 562 115 583T93 639Q93 673 114 694T170 716Q204 716 225 695T247 639Q247 605 226 584T170 562ZM170 586Q193 586 207 601T221 639Q221 662 207 677T170 692Q147 692 133 677T119 639Q119 616 133 601T170 586Z"  />
<glyph unicode="&#x2DB;" horiz-adv-x="340" d="M175 -162Q154 -162 140 -148T125 -110Q125 -89 139 -65T189 0Q194 5 197 7T205 10H215Q219 10 220 7T217 0Q197 -24 184 -40T164 -69T154 -91T151 -108Q151 -122 158 -130T178 -138Q189 -138 202 -130Q210 -125 214 -132L217 -137Q221 -144 213 -150Q205 -155 197 -158T175 -162Z"  />
<glyph unicode="&#x2DC;" horiz-adv-x="340" d="M206 611Q192 611 182 617T163 632Q155 639 148 644T133 649Q122 649 114 642T97 619Q94 614 90 615T86 621V637Q86 645 92 652Q100 663 110 669T134 675Q148 675 158 669T177 654Q185 647 192 642T207 637Q218 637 226 644T243 667Q246 672 250 671T254 665V649Q254 641 248 634Q240 623 230 617T206 611Z"  />
<glyph unicode="&#x2DD;" horiz-adv-x="340" d="M214 560Q204 560 209 570L271 690Q277 700 287 700H299Q304 700 305 697T304 690L235 570Q231 563 228 562T218 560H214ZM109 560Q99 560 104 570L166 690Q172 700 182 700H194Q199 700 200 697T199 690L130 570Q126 563 123 562T113 560H109Z"  />
<glyph unicode="&#x394;" horiz-adv-x="375" d="M41 0Q36 0 33 2T31 10L172 670Q175 680 183 680H194Q203 680 205 670L344 10Q345 5 342 3T334 0H41ZM305 27Q310 27 309 33L189 602H187L66 33Q64 27 70 27H305Z"  />
<glyph unicode="&#x3A9;" horiz-adv-x="412" d="M246 0Q236 0 236 10V17Q236 24 246 30Q270 46 284 62T306 109T316 194T319 340Q319 415 318 459T316 530T312 568T307 590Q295 627 269 644T206 661Q169 661 143 644T105 590Q102 581 100 569T96 530T94 460T93 340Q93 248 95 195T105 110T127 62T166 30Q176 24 176 17V10Q176 0 166 0H74Q64 0 64 10V17Q64 27 74 27H122V28Q105 43 94 60T76 109T67 195T64 340Q64 416 64 462T66 535T70 575T77 600Q91 645 124 666T206 688Q254 688 287 667T335 600Q339 589 341 576T345 535T347 462T348 340Q348 250 346 196T337 109T319 60T290 28V27H338Q348 27 348 17V10Q348 0 338 0H246Z"  />
<glyph unicode="&#x3BC;" horiz-adv-x="371" d="M281 0Q271 0 271 10V49H270Q262 26 241 9T182 -8Q156 -8 134 2T100 36V-170Q100 -180 90 -180H82Q72 -180 72 -170V464Q72 474 82 474H90Q100 474 100 464V140Q100 80 119 49T186 18Q225 18 248 47T271 140V464Q271 474 281 474H289Q299 474 299 464V10Q299 0 289 0H281Z"  />
<glyph unicode="&#x3C0;" horiz-adv-x="392" d="M332 -6Q305 -6 294 8T282 51V442Q282 448 276 448H114Q108 448 108 442V10Q108 0 98 0H90Q80 0 80 10V442Q80 448 72 448H44Q34 448 34 458V464Q34 474 44 474H346Q356 474 356 464V458Q356 448 346 448H316Q310 448 310 442V49Q310 20 332 20H337Q347 20 347 10V4Q347 -6 337 -6H332Z"  />
<glyph unicode="&#x1E80;" horiz-adv-x="570" d="M396 0Q388 0 386 10L286 596H284L184 10Q182 0 174 0H163Q155 0 153 10L38 670Q36 680 45 680H57Q65 680 67 670L167 83H169L269 670Q271 680 279 680H291Q299 680 301 670L402 83H404L503 670Q505 680 513 680H525Q534 680 532 670L417 10Q415 0 407 0H396ZM280 766Q272 766 263 776L181 878Q178 882 179 885T185 888H198Q205 888 208 886T215 878L290 776Q293 772 292 769T286 766H280Z"  />
<glyph unicode="&#x1E81;" horiz-adv-x="496" d="M339 0Q331 0 329 10L248 398H246L167 10Q165 0 157 0H149Q141 0 139 10L45 464Q43 474 53 474H63Q71 474 73 464L152 75H154L234 464Q236 474 244 474H252Q260 474 262 464L342 75H344L423 464Q425 474 433 474H443Q453 474 451 464L357 10Q355 0 347 0H339ZM249 560Q239 560 232 570L154 690Q152 694 153 697T159 700H172Q182 700 188 690L259 570Q264 560 254 560H249Z"  />
<glyph unicode="&#x1E82;" horiz-adv-x="570" d="M396 0Q388 0 386 10L286 596H284L184 10Q182 0 174 0H163Q155 0 153 10L38 670Q36 680 45 680H57Q65 680 67 670L167 83H169L269 670Q271 680 279 680H291Q299 680 301 670L402 83H404L503 670Q505 680 513 680H525Q534 680 532 670L417 10Q415 0 407 0H396ZM286 766Q281 766 280 769T282 776L357 878Q361 883 364 885T374 888H387Q392 888 393 885T391 878L309 776Q300 766 292 766H286Z"  />
<glyph unicode="&#x1E83;" horiz-adv-x="496" d="M339 0Q331 0 329 10L248 398H246L167 10Q165 0 157 0H149Q141 0 139 10L45 464Q43 474 53 474H63Q71 474 73 464L152 75H154L234 464Q236 474 244 474H252Q260 474 262 464L342 75H344L423 464Q425 474 433 474H443Q453 474 451 464L357 10Q355 0 347 0H339ZM250 560Q240 560 245 570L316 690Q322 700 332 700H345Q350 700 351 697T350 690L272 570Q267 564 264 562T255 560H250Z"  />
<glyph unicode="&#x1E84;" horiz-adv-x="570" d="M396 0Q388 0 386 10L286 596H284L184 10Q182 0 174 0H163Q155 0 153 10L38 670Q36 680 45 680H57Q65 680 67 670L167 83H169L269 670Q271 680 279 680H291Q299 680 301 670L402 83H404L503 670Q505 680 513 680H525Q534 680 532 670L417 10Q415 0 407 0H396ZM340 795Q330 795 330 805V845Q330 855 340 855H362Q372 855 372 845V805Q372 795 362 795H340ZM208 795Q198 795 198 805V845Q198 855 208 855H230Q240 855 240 845V805Q240 795 230 795H208Z"  />
<glyph unicode="&#x1E85;" horiz-adv-x="496" d="M339 0Q331 0 329 10L248 398H246L167 10Q165 0 157 0H149Q141 0 139 10L45 464Q43 474 53 474H63Q71 474 73 464L152 75H154L234 464Q236 474 244 474H252Q260 474 262 464L342 75H344L423 464Q425 474 433 474H443Q453 474 451 464L357 10Q355 0 347 0H339ZM303 620Q293 620 293 630V670Q293 680 303 680H325Q335 680 335 670V630Q335 620 325 620H303ZM171 620Q161 620 161 630V670Q161 680 171 680H193Q203 680 203 670V630Q203 620 193 620H171Z"  />
<glyph unicode="&#x1EF2;" horiz-adv-x="345" d="M168 0Q158 0 158 10V286L28 670Q25 680 34 680H47Q55 680 58 670L172 337H174L287 670Q290 680 298 680H311Q320 680 317 670L187 286V10Q187 0 177 0H168ZM187 766Q179 766 170 776L88 878Q85 882 86 885T92 888H105Q112 888 115 886T122 878L197 776Q200 772 199 769T193 766H187Z"  />
<glyph unicode="&#x1EF3;" horiz-adv-x="326" d="M61 -180Q51 -180 51 -170V-164Q51 -154 61 -154H71Q90 -154 102 -143T122 -98L149 10L39 464Q37 474 47 474H59Q67 474 69 464L163 73H165L259 464Q261 474 269 474H281Q291 474 289 464L150 -93Q138 -143 119 -161T67 -180H61ZM177 560Q167 560 160 570L82 690Q80 694 81 697T87 700H100Q110 700 116 690L187 570Q192 560 182 560H177Z"  />
<glyph unicode="&#x2013;" horiz-adv-x="360" d="M30 254Q20 254 20 264V270Q20 280 30 280H330Q340 280 340 270V264Q340 254 330 254H30Z"  />
<glyph unicode="&#x2014;" horiz-adv-x="550" d="M30 254Q20 254 20 264V270Q20 280 30 280H520Q530 280 530 270V264Q530 254 520 254H30Z"  />
<glyph unicode="&#x2018;" horiz-adv-x="126" d="M52 545Q42 545 42 555V598Q42 606 43 610T46 621L66 672Q69 681 76 681Q84 681 84 672V555Q84 545 74 545H52Z"  />
<glyph unicode="&#x2019;" horiz-adv-x="124" d="M50 536Q42 536 42 545V670Q42 680 52 680H72Q82 680 82 670V614Q82 606 81 602T78 591L60 545Q57 536 50 536Z"  />
<glyph unicode="&#x201A;" horiz-adv-x="124" d="M50 -80Q42 -80 42 -71V54Q42 64 52 64H72Q82 64 82 54V1Q82 -7 81 -11T78 -22L60 -71Q57 -80 50 -80Z"  />
<glyph unicode="&#x201C;" horiz-adv-x="218" d="M146 536Q136 536 136 546V602Q136 610 137 614T140 625L158 671Q161 680 168 680Q176 680 176 671V546Q176 536 166 536H146ZM52 536Q42 536 42 546V602Q42 610 43 614T46 625L64 671Q67 680 74 680Q82 680 82 671V546Q82 536 72 536H52Z"  />
<glyph unicode="&#x201D;" horiz-adv-x="218" d="M144 536Q136 536 136 545V670Q136 680 146 680H166Q176 680 176 670V614Q176 606 175 602T172 591L154 545Q151 536 144 536ZM50 536Q42 536 42 545V670Q42 680 52 680H72Q82 680 82 670V614Q82 606 81 602T78 591L60 545Q57 536 50 536Z"  />
<glyph unicode="&#x201E;" horiz-adv-x="218" d="M144 -84Q136 -84 136 -75V50Q136 60 146 60H166Q176 60 176 50V-6Q176 -14 175 -18T172 -29L154 -75Q151 -84 144 -84ZM50 -84Q42 -84 42 -75V50Q42 60 52 60H72Q82 60 82 50V-6Q82 -14 81 -18T78 -29L60 -75Q57 -84 50 -84Z"  />
<glyph unicode="&#x2020;" horiz-adv-x="395" d="M194 -180Q184 -180 184 -170V386Q184 392 178 392H66Q56 392 56 402V408Q56 418 66 418H178Q184 418 184 424V670Q184 680 194 680H202Q212 680 212 670V424Q212 418 218 418H330Q340 418 340 408V402Q340 392 330 392H218Q212 392 212 386V-170Q212 -180 202 -180H194Z"  />
<glyph unicode="&#x2021;" horiz-adv-x="395" d="M194 -180Q184 -180 184 -170V50Q184 56 178 56H66Q56 56 56 66V72Q56 82 66 82H178Q184 82 184 88V415Q184 421 178 421H66Q56 421 56 431V437Q56 447 66 447H178Q184 447 184 453V670Q184 680 194 680H202Q212 680 212 670V453Q212 447 218 447H330Q340 447 340 437V431Q340 421 330 421H218Q212 421 212 415V88Q212 82 218 82H330Q340 82 340 72V66Q340 56 330 56H218Q212 56 212 50V-170Q212 -180 202 -180H194Z"  />
<glyph unicode="&#x2022;" horiz-adv-x="366" d="M183 220Q145 220 120 245T95 308Q95 346 120 371T183 396Q221 396 246 371T271 308Q271 270 246 245T183 220Z"  />
<glyph unicode="&#x2026;" horiz-adv-x="480" d="M386 0Q376 0 376 10V60Q376 70 386 70H414Q424 70 424 60V10Q424 0 414 0H386ZM226 0Q216 0 216 10V60Q216 70 226 70H254Q264 70 264 60V10Q264 0 254 0H226ZM66 0Q56 0 56 10V60Q56 70 66 70H94Q104 70 104 60V10Q104 0 94 0H66Z"  />
<glyph unicode="&#x2030;" horiz-adv-x="824" d="M178 -8Q168 -8 171 2L403 678Q407 688 416 688H424Q434 688 431 678L199 2Q195 -8 186 -8H178ZM141 332Q113 332 95 346T68 383Q66 389 65 395T63 414T62 449T62 509Q62 546 62 568T63 603T65 622T68 635Q76 658 94 672T141 686Q169 686 187 672T214 635Q216 629 217 623T219 604T220 569T220 509Q220 472 220 450T219 415T217 396T214 383Q206 360 188 346T141 332ZM141 356Q178 356 189 390Q190 393 191 398T192 416T193 451T194 509Q194 545 194 567T193 601T191 619T189 628Q178 662 141 662Q104 662 93 628Q92 625 91 620T90 602T89 567T88 509Q88 473 88 451T89 417T91 399T93 390Q104 356 141 356ZM683 -6Q655 -6 637 8T610 45Q608 51 607 57T605 76T604 111T604 171Q604 208 604 230T605 265T607 284T610 297Q618 320 636 334T683 348Q711 348 729 334T756 297Q758 291 759 285T761 266T762 231T762 171Q762 134 762 112T761 77T759 58T756 45Q748 22 730 8T683 -6ZM461 -6Q433 -6 415 8T388 45Q386 51 385 57T383 76T382 111T382 171Q382 208 382 230T383 265T385 284T388 297Q396 320 414 334T461 348Q489 348 507 334T534 297Q536 291 537 285T539 266T540 231T540 171Q540 134 540 112T539 77T537 58T534 45Q526 22 508 8T461 -6ZM683 18Q720 18 731 52Q732 55 733 60T734 78T735 113T736 171Q736 207 736 229T735 263T733 281T731 290Q720 324 683 324Q646 324 635 290Q634 287 633 282T632 264T631 229T630 171Q630 135 630 113T631 79T633 61T635 52Q646 18 683 18ZM461 18Q498 18 509 52Q510 55 511 60T512 78T513 113T514 171Q514 207 514 229T513 263T511 281T509 290Q498 324 461 324Q424 324 413 290Q412 287 411 282T410 264T409 229T408 171Q408 135 408 113T409 79T411 61T413 52Q424 18 461 18Z"  />
<glyph unicode="&#x2039;" horiz-adv-x="244" d="M43 257Q36 264 43 271L172 411Q175 414 178 413T182 407V390Q182 385 181 382T174 373L79 268Q75 264 79 260L174 155Q179 150 180 147T182 138V121Q182 116 179 115T172 117L43 257Z"  />
<glyph unicode="&#x203A;" horiz-adv-x="244" d="M72 117Q69 114 66 115T62 121V138Q62 143 63 146T70 155L165 260Q169 264 165 268L70 373Q65 378 64 381T62 390V407Q62 412 65 413T72 411L201 271Q208 264 201 257L72 117Z"  />
<glyph unicode="&#x2044;" horiz-adv-x="134" d="M-56 -8Q-66 -8 -63 2L169 678Q173 688 182 688H190Q200 688 197 678L-35 2Q-39 -8 -48 -8H-56Z"  />
<glyph unicode="&#x2070;" horiz-adv-x="248" d="M124 424Q64 424 47 476Q45 480 44 487T42 511T41 557T40 633Q40 680 40 709T42 754T44 778T47 790Q64 842 124 842Q184 842 201 790Q202 786 203 779T206 755T207 709T208 633Q208 586 208 557T206 512T204 488T201 476Q184 424 124 424ZM124 448Q165 448 177 485Q178 489 179 496T181 518T182 561T182 633Q182 678 182 705T181 747T179 769T177 781Q165 818 124 818Q83 818 71 781Q69 776 69 770T67 748T66 705T66 633Q66 588 66 561T67 519T68 496T71 485Q83 448 124 448Z"  />
<glyph unicode="&#x2074;" horiz-adv-x="248" d="M157 430Q147 430 147 440V507Q147 513 141 513H30Q20 513 20 523V529Q20 534 20 536T23 544L112 826Q115 836 123 836H131Q141 836 138 826L48 538V537H141Q147 537 147 543V653Q147 663 157 663H163Q173 663 173 653V543Q173 537 179 537H218Q228 537 228 527V523Q228 513 218 513H179Q173 513 173 507V440Q173 430 163 430H157Z"  />
<glyph unicode="&#x2075;" horiz-adv-x="248" d="M124 424Q94 424 74 438T45 477Q43 485 42 494T40 518Q40 528 49 530L56 531Q66 532 66 522Q66 507 67 500T70 485Q82 448 124 448Q145 448 158 457T177 484Q179 491 180 504T182 557Q182 596 181 609T177 630Q172 647 159 656T124 666Q105 666 94 660T77 646Q69 637 61 637H55Q45 637 45 647V826Q45 836 55 836H197Q207 836 207 826V822Q207 812 197 812H77Q71 812 71 806V668H72Q79 677 93 683T124 690Q185 690 202 639Q205 630 206 614T208 557Q208 517 207 501T202 476Q185 424 124 424Z"  />
<glyph unicode="&#x2076;" horiz-adv-x="248" d="M124 424Q62 424 45 477Q42 486 41 499T40 544Q40 566 40 581T43 608T50 633T61 660L133 826Q137 836 147 836H154Q165 836 161 826L87 654H88Q99 663 124 663Q186 663 203 610Q206 601 207 589T208 544Q208 512 207 499T203 477Q186 424 124 424ZM124 448Q145 448 159 458T178 485Q180 492 181 503T182 544Q182 573 181 584T178 602Q173 619 159 629T124 639Q103 639 89 629T70 602Q68 595 67 584T66 544Q66 514 67 503T70 485Q75 468 89 458T124 448Z"  />
<glyph unicode="&#x2077;" horiz-adv-x="248" d="M79 430Q69 430 72 440L193 810V812H74Q68 812 68 806V758Q68 748 58 748H52Q42 748 42 758V826Q42 836 52 836H211Q221 836 221 826V820Q221 815 221 813T218 805L100 439Q97 430 89 430H79Z"  />
<glyph unicode="&#x2078;" horiz-adv-x="248" d="M124 424Q62 424 45 477Q42 486 41 498T40 540Q40 571 41 582T45 603Q50 617 59 627T79 643V644Q68 649 59 659T45 684Q42 693 41 703T40 737Q40 758 41 769T45 789Q62 842 124 842Q186 842 203 789Q206 780 207 769T208 737Q208 714 207 704T203 684Q198 670 189 660T169 644V643Q180 638 189 628T203 603Q206 594 207 583T208 540Q208 511 207 499T203 477Q186 424 124 424ZM124 655Q145 655 159 665T178 692Q180 699 181 708T182 737Q182 756 181 765T178 781Q173 798 159 808T124 818Q103 818 89 808T70 781Q68 774 67 765T66 737Q66 717 67 708T70 692Q75 675 89 665T124 655ZM124 448Q145 448 159 458T178 485Q180 492 181 502T182 540Q182 566 181 576T178 594Q173 611 159 621T124 631Q103 631 89 621T70 594Q68 587 67 577T66 540Q66 513 67 503T70 485Q75 468 89 458T124 448Z"  />
<glyph unicode="&#x2079;" horiz-adv-x="248" d="M94 430Q83 430 87 440L161 612H160Q149 603 124 603Q62 603 45 656Q42 665 41 677T40 722Q40 754 41 767T45 789Q62 842 124 842Q186 842 203 789Q206 780 207 767T208 722Q208 700 207 685T204 658T198 633T187 606L115 440Q111 430 101 430H94ZM124 627Q145 627 159 637T178 664Q180 671 181 682T182 722Q182 752 181 763T178 781Q173 798 159 808T124 818Q103 818 89 808T70 781Q68 774 67 763T66 722Q66 693 67 682T70 664Q75 647 89 637T124 627Z"  />
<glyph unicode="&#x2080;" horiz-adv-x="248" d="M124 -161Q64 -161 47 -109Q45 -105 44 -98T42 -74T41 -28T40 48Q40 95 40 124T42 169T44 193T47 205Q64 257 124 257Q184 257 201 205Q202 201 203 194T206 170T207 124T208 48Q208 1 208 -28T206 -73T204 -97T201 -109Q184 -161 124 -161ZM124 -137Q165 -137 177 -100Q178 -96 179 -89T181 -67T182 -24T182 48Q182 93 182 120T181 162T179 184T177 196Q165 233 124 233Q83 233 71 196Q69 191 69 185T67 163T66 120T66 48Q66 3 66 -24T67 -66T68 -89T71 -100Q83 -137 124 -137Z"  />
<glyph unicode="&#x2081;" horiz-adv-x="248" d="M135 -155Q125 -155 125 -145V218H124L70 178Q66 175 63 176T60 182V193Q60 200 66 205L119 245Q126 251 135 251H141Q151 251 151 241V-145Q151 -155 141 -155H135Z"  />
<glyph unicode="&#x2082;" horiz-adv-x="248" d="M50 -155Q40 -155 40 -145V-136Q40 -128 44 -121L160 79Q169 95 175 112T182 153Q182 171 181 180T177 197Q172 214 159 223T124 233Q102 233 89 224T71 197Q69 190 68 181T66 155Q66 145 56 146L49 147Q40 148 40 159Q40 175 41 185T46 205Q63 257 124 257Q185 257 202 205Q205 196 206 185T208 153Q208 124 199 102T175 54L66 -130V-131H198Q208 -131 208 -141V-145Q208 -155 198 -155H50Z"  />
<glyph unicode="&#x2083;" horiz-adv-x="248" d="M124 -161Q63 -161 46 -109Q40 -91 40 -65Q40 -55 49 -53L56 -52Q66 -51 66 -61Q66 -76 67 -85T71 -101Q76 -118 89 -127T124 -137Q146 -137 159 -128T177 -101Q179 -94 180 -83T182 -43Q182 -12 182 -3T179 12Q168 45 125 45H117Q107 45 107 55V59Q107 69 117 69H124Q168 69 178 101Q180 108 181 118T182 151Q182 171 181 180T177 197Q172 214 159 223T124 233Q102 233 89 224T71 197Q69 190 68 181T66 157Q66 147 56 148L49 149Q40 150 40 161Q40 187 46 205Q63 257 124 257Q185 257 202 205Q205 196 206 185T208 151Q208 125 207 114T203 94Q195 69 170 58V57Q195 47 203 22Q206 13 207 1T208 -43Q208 -74 207 -87T202 -109Q185 -161 124 -161Z"  />
<glyph unicode="&#x2084;" horiz-adv-x="248" d="M157 -155Q147 -155 147 -145V-78Q147 -72 141 -72H30Q20 -72 20 -62V-56Q20 -51 20 -49T23 -41L112 241Q115 251 123 251H131Q141 251 138 241L48 -47V-48H141Q147 -48 147 -42V68Q147 78 157 78H163Q173 78 173 68V-42Q173 -48 179 -48H218Q228 -48 228 -58V-62Q228 -72 218 -72H179Q173 -72 173 -78V-145Q173 -155 163 -155H157Z"  />
<glyph unicode="&#x2085;" horiz-adv-x="248" d="M124 -161Q94 -161 74 -147T45 -108Q43 -100 42 -91T40 -67Q40 -57 49 -55L56 -54Q66 -53 66 -63Q66 -78 67 -85T70 -100Q82 -137 124 -137Q145 -137 158 -128T177 -101Q179 -94 180 -81T182 -28Q182 11 181 24T177 45Q172 62 159 71T124 81Q105 81 94 75T77 61Q69 52 61 52H55Q45 52 45 62V241Q45 251 55 251H197Q207 251 207 241V237Q207 227 197 227H77Q71 227 71 221V83H72Q79 92 93 98T124 105Q185 105 202 54Q205 45 206 29T208 -28Q208 -68 207 -84T202 -109Q185 -161 124 -161Z"  />
<glyph unicode="&#x2086;" horiz-adv-x="248" d="M124 -161Q62 -161 45 -108Q42 -99 41 -86T40 -41Q40 -19 40 -4T43 23T50 48T61 75L133 241Q137 251 147 251H154Q165 251 161 241L87 69H88Q99 78 124 78Q186 78 203 25Q206 16 207 4T208 -41Q208 -73 207 -86T203 -108Q186 -161 124 -161ZM124 -137Q145 -137 159 -127T178 -100Q180 -93 181 -82T182 -41Q182 -12 181 -1T178 17Q173 34 159 44T124 54Q103 54 89 44T70 17Q68 10 67 -1T66 -41Q66 -71 67 -82T70 -100Q75 -117 89 -127T124 -137Z"  />
<glyph unicode="&#x2087;" horiz-adv-x="248" d="M79 -155Q69 -155 72 -145L193 225V227H74Q68 227 68 221V173Q68 163 58 163H52Q42 163 42 173V241Q42 251 52 251H211Q221 251 221 241V235Q221 230 221 228T218 220L100 -146Q97 -155 89 -155H79Z"  />
<glyph unicode="&#x2088;" horiz-adv-x="248" d="M124 -161Q62 -161 45 -108Q42 -99 41 -87T40 -45Q40 -14 41 -3T45 18Q50 32 59 42T79 58V59Q68 64 59 74T45 99Q42 108 41 118T40 152Q40 173 41 184T45 204Q62 257 124 257Q186 257 203 204Q206 195 207 184T208 152Q208 129 207 119T203 99Q198 85 189 75T169 59V58Q180 53 189 43T203 18Q206 9 207 -2T208 -45Q208 -74 207 -86T203 -108Q186 -161 124 -161ZM124 70Q145 70 159 80T178 107Q180 114 181 123T182 152Q182 171 181 180T178 196Q173 213 159 223T124 233Q103 233 89 223T70 196Q68 189 67 180T66 152Q66 132 67 123T70 107Q75 90 89 80T124 70ZM124 -137Q145 -137 159 -127T178 -100Q180 -93 181 -83T182 -45Q182 -19 181 -9T178 9Q173 26 159 36T124 46Q103 46 89 36T70 9Q68 2 67 -8T66 -45Q66 -72 67 -82T70 -100Q75 -117 89 -127T124 -137Z"  />
<glyph unicode="&#x2089;" horiz-adv-x="248" d="M94 -155Q83 -155 87 -145L161 27H160Q149 18 124 18Q62 18 45 71Q42 80 41 92T40 137Q40 169 41 182T45 204Q62 257 124 257Q186 257 203 204Q206 195 207 182T208 137Q208 115 207 100T204 73T198 48T187 21L115 -145Q111 -155 101 -155H94ZM124 42Q145 42 159 52T178 79Q180 86 181 97T182 137Q182 167 181 178T178 196Q173 213 159 223T124 233Q103 233 89 223T70 196Q68 189 67 178T66 137Q66 108 67 97T70 79Q75 62 89 52T124 42Z"  />
<glyph unicode="&#x20AC;" horiz-adv-x="360" d="M208 -8Q121 -8 94 75Q91 85 89 97T85 129T83 181T82 266Q82 272 76 272H28Q18 272 18 282V287Q18 297 28 297H76Q82 297 82 303V386Q82 392 76 392H28Q18 392 18 402V407Q18 417 28 417H76Q82 417 82 423Q82 472 82 502T84 552T88 583T94 605Q121 688 208 688Q261 688 291 653T330 564Q331 553 324 551L316 549Q306 546 304 556Q296 604 273 633T208 662Q142 662 121 598Q118 589 116 578T113 549T111 500T110 423Q110 417 116 417H266Q276 417 276 407V402Q276 392 266 392H116Q110 392 110 386V303Q110 297 116 297H246Q256 297 256 287V282Q256 272 246 272H116Q110 272 110 266Q110 216 110 185T112 133T116 102T121 82Q142 18 208 18Q250 18 273 47T304 124Q306 134 316 131L324 129Q331 126 330 116Q322 63 292 28T208 -8Z"  />
<glyph unicode="&#x2113;" horiz-adv-x="331" d="M84 239Q78 231 70 238L65 242Q58 249 64 257L119 327V542Q119 622 135 655T183 688Q212 688 226 662T241 587Q241 538 221 469T147 321V60Q147 37 154 28T176 18Q195 18 214 36Q221 42 227 36L231 32Q237 25 230 18Q206 -8 173 -8Q119 -8 119 62V284L84 239ZM147 366Q181 425 197 478T214 588Q214 663 183 663Q165 663 156 637T147 550V366Z"  />
<glyph unicode="&#x2122;" horiz-adv-x="616" d="M540 286Q530 286 530 296V594H529L457 366Q454 356 446 356H440Q432 356 429 366L357 594H356V296Q356 286 346 286H340Q330 286 330 296V670Q330 680 340 680H349Q357 680 360 670L443 404H444L526 670Q529 680 537 680H546Q556 680 556 670V296Q556 286 546 286H540ZM165 286Q155 286 155 296V652Q155 656 152 656H79Q69 656 69 666V670Q69 680 79 680H257Q267 680 267 670V666Q267 656 257 656H184Q181 656 181 652V296Q181 286 171 286H165Z"  />
<glyph unicode="&#x2126;" horiz-adv-x="412" d="M246 0Q236 0 236 10V17Q236 24 246 30Q270 46 284 62T306 109T316 194T319 340Q319 415 318 459T316 530T312 568T307 590Q295 627 269 644T206 661Q169 661 143 644T105 590Q102 581 100 569T96 530T94 460T93 340Q93 248 95 195T105 110T127 62T166 30Q176 24 176 17V10Q176 0 166 0H74Q64 0 64 10V17Q64 27 74 27H122V28Q105 43 94 60T76 109T67 195T64 340Q64 416 64 462T66 535T70 575T77 600Q91 645 124 666T206 688Q254 688 287 667T335 600Q339 589 341 576T345 535T347 462T348 340Q348 250 346 196T337 109T319 60T290 28V27H338Q348 27 348 17V10Q348 0 338 0H246Z"  />
<glyph unicode="&#x212E;" horiz-adv-x="602" d="M300 -8Q248 -8 206 11T134 64T88 142T72 238Q72 289 88 333T134 411T206 463T300 482Q352 482 394 464T466 414T513 337T530 238H172V77Q225 26 300 26Q355 26 396 51T470 132L502 112Q482 81 461 59T416 21T364 -1T300 -8ZM430 398Q401 424 370 438T300 452Q224 452 172 398V270H430V398Z"  />
<glyph unicode="&#x2153;" horiz-adv-x="654" d="M176 -8Q166 -8 169 2L401 678Q405 688 414 688H422Q432 688 429 678L197 2Q193 -8 184 -8H176ZM155 274Q145 274 145 284V647H144L90 607Q86 604 83 605T80 611V622Q80 629 86 634L139 674Q146 680 155 680H161Q171 680 171 670V284Q171 274 161 274H155ZM490 -5Q429 -5 412 47Q406 65 406 91Q406 101 415 103L422 104Q432 105 432 95Q432 80 433 71T437 55Q442 38 455 29T490 19Q512 19 525 28T543 55Q545 62 546 73T548 113Q548 144 548 153T545 168Q534 201 491 201H483Q473 201 473 211V215Q473 225 483 225H490Q534 225 544 257Q546 264 547 274T548 307Q548 327 547 336T543 353Q538 370 525 379T490 389Q468 389 455 380T437 353Q435 346 434 337T432 313Q432 303 422 304L415 305Q406 306 406 317Q406 343 412 361Q429 413 490 413Q551 413 568 361Q571 352 572 341T574 307Q574 281 573 270T569 250Q561 225 536 214V213Q561 203 569 178Q572 169 573 157T574 113Q574 82 573 69T568 47Q551 -5 490 -5Z"  />
<glyph unicode="&#x2154;" horiz-adv-x="715" d="M237 -8Q227 -8 230 2L462 678Q466 688 475 688H483Q493 688 490 678L258 2Q254 -8 245 -8H237ZM90 274Q80 274 80 284V293Q80 301 84 308L200 508Q209 524 215 541T222 582Q222 600 221 609T217 626Q212 643 199 652T164 662Q142 662 129 653T111 626Q109 619 108 610T106 584Q106 574 96 575L89 576Q80 577 80 588Q80 604 81 614T86 634Q103 686 164 686Q225 686 242 634Q245 625 246 614T248 582Q248 553 239 531T215 483L106 299V298H238Q248 298 248 288V284Q248 274 238 274H90ZM551 -5Q490 -5 473 47Q467 65 467 91Q467 101 476 103L483 104Q493 105 493 95Q493 80 494 71T498 55Q503 38 516 29T551 19Q573 19 586 28T604 55Q606 62 607 73T609 113Q609 144 609 153T606 168Q595 201 552 201H544Q534 201 534 211V215Q534 225 544 225H551Q595 225 605 257Q607 264 608 274T609 307Q609 327 608 336T604 353Q599 370 586 379T551 389Q529 389 516 380T498 353Q496 346 495 337T493 313Q493 303 483 304L476 305Q467 306 467 317Q467 343 473 361Q490 413 551 413Q612 413 629 361Q632 352 633 341T635 307Q635 281 634 270T630 250Q622 225 597 214V213Q622 203 630 178Q633 169 634 157T635 113Q635 82 634 69T629 47Q612 -5 551 -5Z"  />
<glyph unicode="&#x215B;" horiz-adv-x="654" d="M176 -8Q166 -8 169 2L401 678Q405 688 414 688H422Q432 688 429 678L197 2Q193 -8 184 -8H176ZM155 274Q145 274 145 284V647H144L90 607Q86 604 83 605T80 611V622Q80 629 86 634L139 674Q146 680 155 680H161Q171 680 171 670V284Q171 274 161 274H155ZM490 -5Q428 -5 411 48Q408 57 407 69T406 111Q406 142 407 153T411 174Q416 188 425 198T445 214V215Q434 220 425 230T411 255Q408 264 407 274T406 308Q406 329 407 340T411 360Q428 413 490 413Q552 413 569 360Q572 351 573 340T574 308Q574 285 573 275T569 255Q564 241 555 231T535 215V214Q546 209 555 199T569 174Q572 165 573 154T574 111Q574 82 573 70T569 48Q552 -5 490 -5ZM490 226Q511 226 525 236T544 263Q546 270 547 279T548 308Q548 327 547 336T544 352Q539 369 525 379T490 389Q469 389 455 379T436 352Q434 345 433 336T432 308Q432 288 433 279T436 263Q441 246 455 236T490 226ZM490 19Q511 19 525 29T544 56Q546 63 547 73T548 111Q548 137 547 147T544 165Q539 182 525 192T490 202Q469 202 455 192T436 165Q434 158 433 148T432 111Q432 84 433 74T436 56Q441 39 455 29T490 19Z"  />
<glyph unicode="&#x215C;" horiz-adv-x="710" d="M232 -8Q222 -8 225 2L457 678Q461 688 470 688H478Q488 688 485 678L253 2Q249 -8 240 -8H232ZM164 268Q103 268 86 320Q80 338 80 364Q80 374 89 376L96 377Q106 378 106 368Q106 353 107 344T111 328Q116 311 129 302T164 292Q186 292 199 301T217 328Q219 335 220 346T222 386Q222 417 222 426T219 441Q208 474 165 474H157Q147 474 147 484V488Q147 498 157 498H164Q208 498 218 530Q220 537 221 547T222 580Q222 600 221 609T217 626Q212 643 199 652T164 662Q142 662 129 653T111 626Q109 619 108 610T106 586Q106 576 96 577L89 578Q80 579 80 590Q80 616 86 634Q103 686 164 686Q225 686 242 634Q245 625 246 614T248 580Q248 554 247 543T243 523Q235 498 210 487V486Q235 476 243 451Q246 442 247 430T248 386Q248 355 247 342T242 320Q225 268 164 268ZM546 -5Q484 -5 467 48Q464 57 463 69T462 111Q462 142 463 153T467 174Q472 188 481 198T501 214V215Q490 220 481 230T467 255Q464 264 463 274T462 308Q462 329 463 340T467 360Q484 413 546 413Q608 413 625 360Q628 351 629 340T630 308Q630 285 629 275T625 255Q620 241 611 231T591 215V214Q602 209 611 199T625 174Q628 165 629 154T630 111Q630 82 629 70T625 48Q608 -5 546 -5ZM546 226Q567 226 581 236T600 263Q602 270 603 279T604 308Q604 327 603 336T600 352Q595 369 581 379T546 389Q525 389 511 379T492 352Q490 345 489 336T488 308Q488 288 489 279T492 263Q497 246 511 236T546 226ZM546 19Q567 19 581 29T600 56Q602 63 603 73T604 111Q604 137 603 147T600 165Q595 182 581 192T546 202Q525 202 511 192T492 165Q490 158 489 148T488 111Q488 84 489 74T492 56Q497 39 511 29T546 19Z"  />
<glyph unicode="&#x215D;" horiz-adv-x="710" d="M232 -8Q222 -8 225 2L457 678Q461 688 470 688H478Q488 688 485 678L253 2Q249 -8 240 -8H232ZM164 268Q134 268 114 282T85 321Q83 329 82 338T80 362Q80 372 89 374L96 375Q106 376 106 366Q106 351 107 344T110 329Q122 292 164 292Q185 292 198 301T217 328Q219 335 220 348T222 401Q222 440 221 453T217 474Q212 491 199 500T164 510Q145 510 134 504T117 490Q109 481 101 481H95Q85 481 85 491V670Q85 680 95 680H237Q247 680 247 670V666Q247 656 237 656H117Q111 656 111 650V512H112Q119 521 133 527T164 534Q225 534 242 483Q245 474 246 458T248 401Q248 361 247 345T242 320Q225 268 164 268ZM546 -5Q484 -5 467 48Q464 57 463 69T462 111Q462 142 463 153T467 174Q472 188 481 198T501 214V215Q490 220 481 230T467 255Q464 264 463 274T462 308Q462 329 463 340T467 360Q484 413 546 413Q608 413 625 360Q628 351 629 340T630 308Q630 285 629 275T625 255Q620 241 611 231T591 215V214Q602 209 611 199T625 174Q628 165 629 154T630 111Q630 82 629 70T625 48Q608 -5 546 -5ZM546 226Q567 226 581 236T600 263Q602 270 603 279T604 308Q604 327 603 336T600 352Q595 369 581 379T546 389Q525 389 511 379T492 352Q490 345 489 336T488 308Q488 288 489 279T492 263Q497 246 511 236T546 226ZM546 19Q567 19 581 29T600 56Q602 63 603 73T604 111Q604 137 603 147T600 165Q595 182 581 192T546 202Q525 202 511 192T492 165Q490 158 489 148T488 111Q488 84 489 74T492 56Q497 39 511 29T546 19Z"  />
<glyph unicode="&#x215E;" horiz-adv-x="652" d="M174 -8Q164 -8 167 2L399 678Q403 688 412 688H420Q430 688 427 678L195 2Q191 -8 182 -8H174ZM117 274Q107 274 110 284L231 654V656H112Q106 656 106 650V602Q106 592 96 592H90Q80 592 80 602V670Q80 680 90 680H249Q259 680 259 670V664Q259 659 259 657T256 649L138 283Q135 274 127 274H117ZM488 -5Q426 -5 409 48Q406 57 405 69T404 111Q404 142 405 153T409 174Q414 188 423 198T443 214V215Q432 220 423 230T409 255Q406 264 405 274T404 308Q404 329 405 340T409 360Q426 413 488 413Q550 413 567 360Q570 351 571 340T572 308Q572 285 571 275T567 255Q562 241 553 231T533 215V214Q544 209 553 199T567 174Q570 165 571 154T572 111Q572 82 571 70T567 48Q550 -5 488 -5ZM488 226Q509 226 523 236T542 263Q544 270 545 279T546 308Q546 327 545 336T542 352Q537 369 523 379T488 389Q467 389 453 379T434 352Q432 345 431 336T430 308Q430 288 431 279T434 263Q439 246 453 236T488 226ZM488 19Q509 19 523 29T542 56Q544 63 545 73T546 111Q546 137 545 147T542 165Q537 182 523 192T488 202Q467 202 453 192T434 165Q432 158 431 148T430 111Q430 84 431 74T434 56Q439 39 453 29T488 19Z"  />
<glyph unicode="&#x2202;" horiz-adv-x="405" d="M185 -8Q153 -8 129 8T88 51T63 117T54 200Q54 250 63 291T92 361T138 406T201 422Q235 422 266 405T322 342H323Q324 413 317 471T292 572T247 637T181 661Q158 661 138 653T100 630Q92 624 86 632L81 639Q76 647 83 653Q106 670 129 679T185 688Q268 688 309 606T351 370Q351 286 343 216T315 97T263 20T185 -8ZM190 19Q246 19 279 86T321 292Q303 340 273 367T207 395Q147 395 115 345T82 204Q82 168 87 135T105 76T139 35T190 19Z"  />
<glyph unicode="&#x2206;" horiz-adv-x="375" d="M41 0Q36 0 33 2T31 10L172 670Q175 680 183 680H194Q203 680 205 670L344 10Q345 5 342 3T334 0H41ZM305 27Q310 27 309 33L189 602H187L66 33Q64 27 70 27H305Z"  />
<glyph unicode="&#x220F;" horiz-adv-x="483" d="M394 -180Q384 -180 384 -170V707Q384 713 378 713H105Q99 713 99 707V-170Q99 -180 89 -180H80Q70 -180 70 -170V730Q70 740 80 740H403Q413 740 413 730V-170Q413 -180 403 -180H394Z"  />
<glyph unicode="&#x2211;" horiz-adv-x="400" d="M40 -180Q30 -180 30 -170V-162Q30 -157 32 -153L208 325L37 711Q34 717 34 722V730Q34 740 44 740H350Q360 740 360 730V723Q360 713 350 713H66L237 333Q240 326 237 319L62 -153H360Q370 -153 370 -163V-170Q370 -180 360 -180H40Z"  />
<glyph unicode="&#x2212;" horiz-adv-x="360" d="M50 263Q40 263 40 273V279Q40 289 50 289H310Q320 289 320 279V273Q320 263 310 263H50Z"  />
<glyph unicode="&#x2215;" horiz-adv-x="134" d="M-56 -8Q-66 -8 -63 2L169 678Q173 688 182 688H190Q200 688 197 678L-35 2Q-39 -8 -48 -8H-56Z"  />
<glyph unicode="&#x2219;" horiz-adv-x="160" d="M66 231Q56 231 56 241V291Q56 301 66 301H94Q104 301 104 291V241Q104 231 94 231H66Z"  />
<glyph unicode="&#x221A;" horiz-adv-x="516" d="M260 -180Q253 -180 248 -170L130 134Q127 140 121 137L58 110Q48 106 45 114L42 122Q38 132 46 135L134 173Q145 178 148 169L260 -124H262L464 730Q467 740 476 740H487Q498 740 495 730L280 -170Q277 -180 268 -180H260Z"  />
<glyph unicode="&#x221E;" horiz-adv-x="612" d="M461 110Q408 110 372 142T305 223Q263 159 228 135T151 110Q121 110 97 120T55 149T29 193T20 248Q20 313 57 349T151 386Q202 386 237 355T306 272Q347 334 382 360T461 386Q491 386 515 376T557 347T583 303T592 248Q592 183 555 147T461 110ZM462 136Q507 136 535 165T564 248Q564 297 536 328T462 360Q444 360 428 355T396 337T361 302T321 247Q355 193 387 165T462 136ZM150 136Q167 136 183 140T215 157T250 191T291 248Q257 301 225 330T150 360Q105 360 77 331T48 248Q48 199 76 168T150 136Z"  />
<glyph unicode="&#x222B;" horiz-adv-x="251" d="M40 -180Q30 -180 30 -170V-163Q30 -153 40 -153H44Q79 -153 95 -135T111 -65V623Q111 682 133 711T207 740H211Q221 740 221 730V723Q221 713 211 713H207Q172 713 156 695T140 625V-63Q140 -122 118 -151T44 -180H40Z"  />
<glyph unicode="&#x2248;" horiz-adv-x="360" d="M239 299Q222 299 206 307T174 325Q160 334 146 341T120 349Q100 349 87 339T60 305Q55 297 46 301L41 304Q32 309 37 318Q51 342 70 358T121 375Q138 375 154 367T186 349Q200 340 214 333T240 325Q260 325 273 335T300 369Q305 377 314 373L319 370Q328 365 323 356Q309 332 290 316T239 299ZM239 177Q222 177 206 185T174 203Q160 212 146 219T120 227Q100 227 87 217T60 183Q55 175 46 179L41 182Q32 187 37 196Q51 220 70 236T121 253Q138 253 154 245T186 227Q200 218 214 211T240 203Q260 203 273 213T300 247Q305 255 314 251L319 248Q328 243 323 234Q309 210 290 194T239 177Z"  />
<glyph unicode="&#x2260;" horiz-adv-x="360" d="M222 330L167 222H310Q320 222 320 212V206Q320 196 310 196H154L110 110Q105 100 97 100H89Q79 100 84 110L128 196H50Q40 196 40 206V212Q40 222 50 222H141L196 330H50Q40 330 40 340V346Q40 356 50 356H209L251 438Q256 448 264 448H272Q282 448 277 438L235 356H310Q320 356 320 346V340Q320 330 310 330H222Z"  />
<glyph unicode="&#x2264;" horiz-adv-x="360" d="M50 260Q40 263 40 274V278Q40 289 50 292L310 400Q320 404 320 394V384Q320 375 310 371L83 277V275L310 181Q320 177 320 168V158Q320 148 310 152L50 260ZM50 0Q40 0 40 10V16Q40 26 50 26H310Q320 26 320 16V10Q320 0 310 0H50Z"  />
<glyph unicode="&#x2265;" horiz-adv-x="360" d="M50 152Q40 148 40 158V168Q40 177 50 181L277 275V277L50 371Q40 375 40 384V394Q40 404 50 400L310 292Q320 289 320 278V274Q320 263 310 260L50 152ZM50 0Q40 0 40 10V16Q40 26 50 26H310Q320 26 320 16V10Q320 0 310 0H50Z"  />
<glyph unicode="&#x25CA;" horiz-adv-x="394" d="M192 -52Q187 -52 185 -50T181 -42L32 322Q29 329 32 336L181 700Q183 705 185 707T192 710H202Q207 710 209 708T213 700L362 336Q365 329 362 322L213 -42Q211 -47 209 -49T202 -52H192ZM199 -5L333 329L198 662H196L61 329L197 -5H199Z"  />
<glyph unicode="&#xF8FF;" horiz-adv-x="350" d="M10 0Q0 0 0 10V670Q0 680 10 680H340Q350 680 350 670V10Q350 0 340 0H10ZM316 26Q322 26 322 32V648Q322 654 316 654H34Q28 654 28 648V32Q28 26 34 26H316ZM176 219Q166 219 166 229V277Q166 291 168 301T177 323L211 390Q222 412 226 426T231 464Q231 492 227 505Q216 539 178 539Q140 539 129 505Q127 497 126 487T125 454Q125 444 114 446L107 447Q99 448 99 458Q99 484 101 494T105 512Q113 535 131 549T178 563Q207 563 225 549T251 512Q253 505 255 494T257 464Q257 437 252 421T235 381L201 314Q196 304 194 297T192 277V229Q192 219 182 219H176ZM170 115Q160 115 160 125V153Q160 163 170 163H189Q199 163 199 153V125Q199 115 189 115H170Z"  />
<glyph unicode="&#xFB00;" horiz-adv-x="438" d="M97 0Q87 0 87 10V442Q87 448 81 448H52Q42 448 42 458V464Q42 474 52 474H81Q87 474 87 480V588Q87 636 107 658T175 680H187Q197 680 197 670V664Q197 654 187 654H167Q141 654 128 640T115 594V480Q115 474 121 474H186Q196 474 196 464V458Q196 448 186 448H121Q115 448 115 442V10Q115 0 105 0H97ZM316 0Q306 0 306 10V442Q306 448 300 448H271Q261 448 261 458V464Q261 474 271 474H300Q306 474 306 480V588Q306 636 326 658T394 680H406Q416 680 416 670V664Q416 654 406 654H386Q360 654 347 640T334 594V480Q334 474 340 474H405Q415 474 415 464V458Q415 448 405 448H340Q334 448 334 442V10Q334 0 324 0H316Z"  />
<glyph unicode="&#xFB01;" horiz-adv-x="391" d="M97 0Q87 0 87 10V442Q87 448 81 448H52Q42 448 42 458V464Q42 474 52 474H81Q87 474 87 480V588Q87 636 107 658T175 680H187Q197 680 197 670V664Q197 654 187 654H167Q141 654 128 640T115 594V480Q115 474 121 474H186Q196 474 196 464V458Q196 448 186 448H121Q115 448 115 442V10Q115 0 105 0H97ZM294 620Q284 620 284 630V670Q284 680 294 680H316Q326 680 326 670V630Q326 620 316 620H294ZM301 0Q291 0 291 10V464Q291 474 301 474H309Q319 474 319 464V10Q319 0 309 0H301Z"  />
<glyph unicode="&#xFB02;" horiz-adv-x="415" d="M97 0Q87 0 87 10V442Q87 448 81 448H52Q42 448 42 458V464Q42 474 52 474H81Q87 474 87 480V588Q87 636 107 658T175 680H187Q197 680 197 670V664Q197 654 187 654H167Q141 654 128 640T115 594V480Q115 474 121 474H186Q196 474 196 464V458Q196 448 186 448H121Q115 448 115 442V10Q115 0 105 0H97ZM362 -1Q324 3 308 24T291 97V670Q291 680 301 680H309Q319 680 319 670V89Q319 58 329 44T365 25L370 24Q380 23 380 14V7Q380 -4 371 -2L362 -1Z"  />
<glyph unicode="&#xFB03;" horiz-adv-x="610" d="M97 0Q87 0 87 10V442Q87 448 81 448H52Q42 448 42 458V464Q42 474 52 474H81Q87 474 87 480V588Q87 636 107 658T175 680H187Q197 680 197 670V664Q197 654 187 654H167Q141 654 128 640T115 594V480Q115 474 121 474H186Q196 474 196 464V458Q196 448 186 448H121Q115 448 115 442V10Q115 0 105 0H97ZM316 0Q306 0 306 10V442Q306 448 300 448H271Q261 448 261 458V464Q261 474 271 474H300Q306 474 306 480V588Q306 636 326 658T394 680H406Q416 680 416 670V664Q416 654 406 654H386Q360 654 347 640T334 594V480Q334 474 340 474H405Q415 474 415 464V458Q415 448 405 448H340Q334 448 334 442V10Q334 0 324 0H316ZM513 620Q503 620 503 630V670Q503 680 513 680H535Q545 680 545 670V630Q545 620 535 620H513ZM520 0Q510 0 510 10V464Q510 474 520 474H528Q538 474 538 464V10Q538 0 528 0H520Z"  />
<glyph unicode="&#xFB04;" horiz-adv-x="634" d="M97 0Q87 0 87 10V442Q87 448 81 448H52Q42 448 42 458V464Q42 474 52 474H81Q87 474 87 480V588Q87 636 107 658T175 680H187Q197 680 197 670V664Q197 654 187 654H167Q141 654 128 640T115 594V480Q115 474 121 474H186Q196 474 196 464V458Q196 448 186 448H121Q115 448 115 442V10Q115 0 105 0H97ZM316 0Q306 0 306 10V442Q306 448 300 448H271Q261 448 261 458V464Q261 474 271 474H300Q306 474 306 480V588Q306 636 326 658T394 680H406Q416 680 416 670V664Q416 654 406 654H386Q360 654 347 640T334 594V480Q334 474 340 474H405Q415 474 415 464V458Q415 448 405 448H340Q334 448 334 442V10Q334 0 324 0H316ZM581 -1Q543 3 527 24T510 97V670Q510 680 520 680H528Q538 680 538 670V89Q538 58 548 44T584 25L589 24Q599 23 599 14V7Q599 -4 590 -2L581 -1Z"  />

</font>
</defs>
</svg>
