<?xml  version="1.0" encoding="UTF-8"?>
<!DOCTYPE svg PUBLIC "-//W3C//DTD SVG 1.0//EN" "http://www.w3.org/TR/2001/REC-SVG-20010904/DTD/svg10.dtd" >
<svg xmlns="http://www.w3.org/2000/svg" >
<metadata>
<version>1.0</version>
<id><![CDATA[Univers Next W04 620 Cond Bold]]></id>
<vendor>Monotype Imaging Inc.</vendor>
<credits>
<name>Fonts.com WebFonts</name>
<URL>http://webfonts.fonts.com</URL>
<role>Home of the Web fonts</role>
</credits>
<license>
<URL>http://webfonts.fonts.com/Legal</URL>
</license>
<copyright><![CDATA[Copyright © 2010 Linotype GmbH, www.linotype.com. All rights reserved. This font software may not be reproduced, modified, disclosed or transferred without the express written approval of Linotype GmbH. Univers is a trademark of Linotype Corp. registered in the U.S. Patent and Trademark Office and may be registered in certain other jurisdictions in the name of Linotype Corp. or its licensee Linotype GmbH. This typeface is original artwork of Adrian Frutiger and Linotype Design Studio. The design may be protected in certain jurisdictions.]]></copyright>
<trademark><![CDATA[Univers is a trademark of Linotype Corp. registered in the U.S. Patent and Trademark Office and may be registered in certain other jurisdictions in the name of Linotype Corp. or its licensee Linotype GmbH.]]></trademark>
<licensee>
<name></name>
</licensee>
</metadata>
<defs >
<font horiz-adv-x="448" id="be9d5374-8e09-4c99-a8df-4e72d485f333">
<font-face font-family="" panose-1="2 11 8 6 3 2 2 2 2 3" ascent="750" descent="-250" units-per-em="1000" alphabetic="0">
</font-face>
<missing-glyph horiz-adv-x="512" d="M222 117V184H278V117H222ZM223 234V251Q223 278 226 297T236 332T254 361T282 391Q298 407 308 419T323 441T330 460T332 480Q332 516 310 537T256 559Q225 559 203 537T174 464L124 472Q131 544 168 576T259 609Q286 609 308 600T347 575T373 536T383 484Q383 467 381 452T371 421T352 391T320 358Q304 344 295 333T280 311T273 288T271 258V234H223ZM462 50V667H50V50H462ZM512 718V0H0V718H512Z"  />

<glyph unicode="&#xA;" />
<glyph unicode="&#xD;" horiz-adv-x="0" />
<glyph unicode=" " horiz-adv-x="236" />
<glyph unicode="!" horiz-adv-x="275" d="M181 189H94L75 723H200L181 189ZM85 0V110H192V0H85Z"  />
<glyph unicode="&quot;" horiz-adv-x="411" d="M330 416H260L241 710H349L330 416ZM152 416H81L62 710H171L152 416Z"  />
<glyph unicode="#" horiz-adv-x="472" d="M373 434L352 288H424V197H340L311 0H227L256 197H170L141 0H58L87 197H14V288H100L121 434H49V526H135L162 723H246L217 526H304L333 723H416L387 526H459V434H373ZM205 434L183 288H270L291 434H205Z"  />
<glyph unicode="$" horiz-adv-x="472" d="M207 8Q169 11 137 22T82 54T46 107T33 184V225H149V208Q149 157 165 134T207 104V314L196 321Q159 345 130 366T82 411T52 464T41 535Q41 610 81 657T207 713V790H267V714Q351 709 391 669T432 545V520H322V542Q322 571 310 593T267 623V422L293 406Q325 385 352 366T398 323T429 270T440 202Q440 154 428 119T392 61T337 24T267 8V-76H207V8ZM332 183Q332 215 316 235T267 275V102Q301 108 316 129T332 183ZM151 546Q151 521 166 501T207 461V623Q176 616 164 597T151 546Z"  />
<glyph unicode="%" horiz-adv-x="780" d="M271 -23H210L508 745H570L271 -23ZM318 551Q318 514 313 481T292 423T249 382T177 367Q133 367 106 382T63 422T42 481T36 551Q36 588 41 621T62 679T105 719T177 734Q221 734 248 720T291 681T312 623T318 551ZM231 551Q231 574 230 596T223 635T207 663T177 674Q158 674 147 664T131 636T125 596T123 551Q123 528 124 506T131 467T148 438T177 427Q196 427 207 438T223 466T229 506T231 551ZM744 173Q744 136 739 103T718 45T675 4T603 -11Q559 -11 532 4T489 44T468 103T462 173Q462 210 467 243T488 301T531 341T603 356Q647 356 674 342T717 303T738 245T744 173ZM657 173Q657 196 656 218T649 257T633 285T603 296Q584 296 573 286T557 258T551 218T549 173Q549 150 550 128T557 89T574 60T603 49Q622 49 633 60T649 88T655 128T657 173Z"  />
<glyph unicode="&amp;" horiz-adv-x="616" d="M505 336V0H277Q230 0 191 9T122 41T76 101T59 193Q59 271 93 317T201 383Q143 398 111 435T78 544Q78 590 93 625T136 685T200 723T280 736Q309 736 329 735T363 730V631Q354 633 344 634T325 635Q271 635 243 608T214 531Q214 501 223 482T248 452T286 436T334 432H380V569H505V432H606V336H505ZM380 336H311Q254 336 227 303T200 210Q200 177 208 155T231 120T267 102T316 96H380V336Z"  />
<glyph unicode="&apos;" horiz-adv-x="233" d="M150 416H83L62 710H171L150 416Z"  />
<glyph unicode="(" horiz-adv-x="271" d="M159 -155Q141 -105 123 -50T91 64T68 179T59 289Q59 343 67 398T90 509T122 619T159 723H231Q216 673 204 618T184 505T172 392T167 283Q167 172 188 63T231 -155H159Z"  />
<glyph unicode=")" horiz-adv-x="271" d="M212 289Q212 236 203 179T180 64T148 -49T112 -155H40Q61 -47 82 62T104 283Q104 335 100 391T87 505T67 617T40 723H112Q131 673 149 619T181 510T203 399T212 289Z"  />
<glyph unicode="*" horiz-adv-x="436" d="M263 531L347 415L270 370L219 505L162 370L86 417L171 534L35 513V602L172 586L92 695L167 737L219 613L269 737L346 693L264 586L401 603V513L263 531Z"  />
<glyph unicode="+" horiz-adv-x="559" d="M337 215V17H223V215H36V320H223V518H337V320H523V215H337Z"  />
<glyph unicode="&#x2c;" horiz-adv-x="236" d="M120 -100H33L72 122H191L120 -100Z"  />
<glyph unicode="-" horiz-adv-x="319" d="M42 223V316H276V223H42Z"  />
<glyph unicode="." horiz-adv-x="236" d="M63 0V122H173V0H63Z"  />
<glyph unicode="/" horiz-adv-x="285" d="M79 -14H-13L206 737H298L79 -14Z"  />
<glyph unicode="0" horiz-adv-x="472" d="M432 287Q432 228 428 174T404 79T346 12T236 -13Q166 -13 127 10T69 74T46 168T41 282V479Q41 533 48 580T76 661T137 716T240 736Q303 736 341 718T399 667T425 589T432 490V287ZM307 413Q307 470 306 513T299 587T278 632T238 648Q212 648 198 632T176 586T168 512T167 413V298Q167 250 168 209T175 139T196 92T237 75Q263 75 277 90T298 134T306 203T307 295V413Z"  />
<glyph unicode="1" horiz-adv-x="472" d="M200 0V581Q174 555 145 535T83 498V616Q120 636 155 663T217 723H330V0H200Z"  />
<glyph unicode="2" horiz-adv-x="472" d="M32 0V106Q49 128 79 172T144 268T209 370T261 453Q279 484 289 514T299 573Q299 604 287 625T236 647Q204 647 189 628T169 574Q167 565 167 556T167 536H43Q43 544 43 554T44 574Q47 618 64 649T107 699T168 728T239 737Q330 737 379 697T429 565Q429 529 419 497T394 435T362 379T329 328Q316 308 295 276T251 210T205 143T167 92H431V0H32Z"  />
<glyph unicode="3" horiz-adv-x="472" d="M428 199Q428 91 383 39T230 -13Q177 -13 140 -3T78 32T43 94T31 189H155Q155 167 157 147T167 112T188 87T225 77Q270 77 284 108T299 194Q299 237 293 265T273 309T233 332T168 337V427Q202 427 225 431T264 447T286 482T293 543Q293 564 291 583T281 616T262 639T229 648Q208 648 196 640T176 617T167 586T164 550H42V577Q42 621 56 651T95 700T155 727T232 736Q329 736 375 695T421 553Q421 488 399 443T316 385Q349 378 371 363T405 324T423 270T428 199Z"  />
<glyph unicode="4" horiz-adv-x="472" d="M375 174V0H256V174H33V281L208 723H375V265H450V174H375ZM261 631L125 265H261V631Z"  />
<glyph unicode="5" horiz-adv-x="472" d="M429 250Q429 189 422 140T393 57T332 5T228 -13Q182 -13 148 -4T90 25T56 80T44 164H169Q169 146 172 130T182 102T201 84T232 77Q255 77 268 88T289 122T298 175T300 247Q300 306 287 342T236 379Q201 379 188 358T171 309H51L64 723H406V632H181L172 416Q196 439 218 451T282 464Q328 464 357 448T402 404T423 336T429 250Z"  />
<glyph unicode="6" horiz-adv-x="472" d="M436 226Q436 172 427 128T394 53T333 4T238 -13Q178 -13 141 4T82 57T52 146T44 271V423Q44 483 49 539T76 639T138 709T250 736Q334 736 379 699T425 572H299Q299 604 287 626T241 648Q214 648 199 626T177 569T169 494T167 415V398Q186 421 211 437T283 454Q328 454 357 439T404 395T429 324T436 226ZM309 226Q309 258 307 284T298 329T277 358T239 368Q214 368 200 354T178 318T170 273T168 227Q168 194 170 166T180 118T202 86T238 75Q263 75 277 87T299 120T307 168T309 226Z"  />
<glyph unicode="7" horiz-adv-x="472" d="M238 0H101L298 631H48V723H415V621L238 0Z"  />
<glyph unicode="8" horiz-adv-x="472" d="M433 197Q433 146 423 107T389 41T329 1T236 -13Q188 -13 151 -3T90 31T52 96T39 198Q39 224 41 251T54 302T85 345T140 377Q111 385 93 400T65 437T50 485T46 540Q46 640 90 688T236 736Q330 736 378 695T427 552Q427 521 423 494T408 443T377 403T327 377Q359 368 379 353T412 316T428 265T433 197ZM301 532Q301 553 300 573T293 610T273 637T236 648Q213 648 200 638T181 611T174 575T172 535Q172 517 174 497T182 461T202 433T236 422Q258 422 271 432T290 459T299 494T301 532ZM305 203Q305 226 303 249T294 291T274 322T236 334Q213 334 199 322T178 291T169 250T167 206Q167 185 168 162T176 120T197 88T236 75Q261 75 275 87T295 118T303 159T305 203Z"  />
<glyph unicode="9" horiz-adv-x="472" d="M427 297Q427 228 422 171T396 73T336 10T226 -13Q135 -13 93 28T49 161H175Q175 143 177 128T186 101T205 82T236 75Q277 75 290 123T304 254V324Q294 312 284 302T260 285T229 273T188 268Q143 268 114 283T67 327T42 398T35 496Q35 550 45 594T79 669T140 718T233 736Q293 736 330 719T389 666T419 577T427 451V297ZM303 495Q303 565 290 606T233 648Q208 648 194 636T172 603T164 555T162 496Q162 464 164 438T173 393T194 364T232 354Q257 354 271 368T293 404T301 449T303 495Z"  />
<glyph unicode=":" horiz-adv-x="236" d="M64 383V505H174V383H64ZM62 0V122H172V0H62Z"  />
<glyph unicode=";" horiz-adv-x="236" d="M69 386V505H178V386H69ZM119 -100H33L74 122H192L119 -100Z"  />
<glyph unicode="&lt;" horiz-adv-x="559" d="M36 215V320L523 513V397L172 267L523 139V22L36 215Z"  />
<glyph unicode="=" horiz-adv-x="559" d="M36 107V212H523V107H36ZM36 322V426H523V322H36Z"  />
<glyph unicode="&gt;" horiz-adv-x="559" d="M36 22V139L387 267L36 397V513L523 320V215L36 22Z"  />
<glyph unicode="?" horiz-adv-x="415" d="M379 568Q379 537 375 513T359 466T329 417T283 354Q272 339 265 327T254 301T249 272T247 236V190H153V265Q153 294 158 318T172 362T191 400T213 435Q233 467 246 496T259 565Q259 581 257 596T248 622T230 641T201 648Q183 648 171 641T152 622T143 595T140 563V539H32V560Q32 648 75 692T207 737Q292 737 335 695T379 568ZM149 0V110H256V0H149Z"  />
<glyph unicode="@" horiz-adv-x="874" d="M834 371Q834 302 817 250T769 161T700 107T616 88Q568 88 537 109T498 169Q483 131 451 111T379 91Q316 91 286 126T255 219Q255 242 256 262T261 305Q268 350 281 388T315 454T364 497T431 513Q461 513 483 500T515 460L523 504H636L591 243Q590 237 590 230T589 216Q589 195 596 182T628 168Q651 168 672 182T709 222T734 286T744 371Q744 438 726 491T674 582T589 640T474 661Q394 661 332 629T226 541T159 412T136 258Q136 187 155 130T211 33T300 -28T419 -50Q487 -50 540 -33T639 13L677 -59Q623 -93 559 -112T419 -132Q332 -132 263 -106T145 -29T70 93T44 258Q44 355 73 442T158 595T293 699T474 738Q559 738 626 712T739 637T810 521T834 371ZM487 295Q492 318 495 343T499 388Q499 411 491 426T459 442Q441 442 429 432T408 402T393 355T380 295Q377 277 374 260T371 224Q371 199 379 185T408 170Q440 170 457 198T487 295Z"  />
<glyph unicode="A" horiz-adv-x="571" d="M435 0L392 166H174L131 0H-1L201 723H374L572 0H435ZM283 616L201 264H365L283 616Z"  />
<glyph unicode="B" horiz-adv-x="555" d="M516 200Q516 135 498 96T446 36T366 7T265 0H71V723H301Q349 723 386 715T450 685T490 630T504 543Q504 475 477 435T384 380Q422 373 447 359T488 322T509 269T516 200ZM374 525Q374 557 366 576T342 607T307 621T264 625H204V423H259Q287 423 309 427T345 443T366 474T374 525ZM383 213Q383 278 353 303T260 328H204V98H260Q284 98 306 101T345 117T373 152T383 213Z"  />
<glyph unicode="C" horiz-adv-x="534" d="M507 216Q507 95 452 41T282 -14Q198 -14 151 12T80 87T51 206T45 363Q45 444 50 512T80 631T152 709T287 737Q401 737 451 685T501 521V505H370V518Q370 538 368 559T356 598T330 627T284 639Q248 639 227 621T196 568T183 485T180 374Q180 296 183 241T196 151T226 100T280 84Q313 84 331 96T359 128T371 172T374 221V238H507V216H507Z"  />
<glyph unicode="D" horiz-adv-x="585" d="M540 380Q540 296 536 226T506 106T428 28T278 0H71V723H276Q367 723 419 701T499 635T533 527T540 380ZM403 353Q403 417 401 467T385 553T344 606T263 625H205V98H266Q315 98 342 117T383 171T400 251T403 353Z"  />
<glyph unicode="E" horiz-adv-x="486" d="M71 0V723H449V623H204V426H431V328H204V100H457V0H71Z"  />
<glyph unicode="F" horiz-adv-x="446" d="M204 623V422H418V324H204V0H71V723H429V623H204Z"  />
<glyph unicode="G" horiz-adv-x="561" d="M384 509V521Q384 545 380 566T366 604T337 629T291 639Q252 639 230 621T197 569T183 490T180 387Q180 299 184 241T200 148T235 99T293 84Q315 84 339 88T384 100V284H289V382H516V20Q465 5 408 -4T296 -14Q204 -14 154 13T79 90T50 210T45 368Q45 445 49 512T78 629T151 708T291 737Q406 737 462 686T518 520V509H384Z"  />
<glyph unicode="H" horiz-adv-x="600" d="M395 0V327H205V0H71V723H205V425H395V723H529V0H395Z"  />
<glyph unicode="I" horiz-adv-x="276" d="M71 0V723H205V0H71Z"  />
<glyph unicode="J" horiz-adv-x="489" d="M424 216Q424 154 413 111T376 40T310 -1T212 -14Q155 -14 117 0T57 42T25 110T15 203V235H149V219Q149 194 150 170T158 127T179 97T219 85Q247 85 261 98T282 131T289 176T290 222V723H424V216H424Z"  />
<glyph unicode="K" horiz-adv-x="543" d="M393 0L209 393L385 723H536L342 401L546 0H393ZM71 0V723H205V0H71Z"  />
<glyph unicode="L" horiz-adv-x="447" d="M71 0V723H205V100H430V0H71Z"  />
<glyph unicode="M" horiz-adv-x="830" d="M629 0V634L480 0H340L191 634V0H72V723H291L416 144L539 723H758V0H629Z"  />
<glyph unicode="N" horiz-adv-x="633" d="M361 0L189 606V0H71V723H272L444 117V723H562V0H361Z"  />
<glyph unicode="O" horiz-adv-x="573" d="M528 352Q528 274 523 207T495 91T422 14T282 -14Q197 -14 150 13T79 89T50 205T45 351Q45 434 49 505T77 627T149 708T286 737Q376 737 425 709T497 631T524 509T528 352ZM391 371Q391 429 390 478T378 563T347 619T286 639Q246 639 225 618T193 560T182 474T180 366Q180 298 182 246T194 157T225 103T286 84Q325 84 346 103T377 159T389 249T391 371Z"  />
<glyph unicode="P" horiz-adv-x="533" d="M510 517Q510 445 493 403T443 338T366 310T267 303H205V0H71V723H286Q343 723 385 713T454 679T496 616T510 517ZM376 516Q376 549 368 570T345 603T306 620T253 625H205V401H249Q281 401 305 406T344 423T368 458T376 516Z"  />
<glyph unicode="Q" horiz-adv-x="585" d="M474 0Q425 0 377 -5T279 -10Q193 -10 146 19T76 98T49 213T45 351Q45 434 49 505T77 627T149 708T286 737Q376 737 425 709T497 631T524 509T528 352Q528 311 526 273T517 200T495 134T455 78Q479 83 510 87T579 92V0H474ZM391 371Q391 429 390 478T378 563T347 619T286 639Q246 639 225 618T193 560T182 474T180 366Q180 298 182 246T194 159T225 106T286 88Q325 88 346 106T377 161T389 250T391 371Z"  />
<glyph unicode="R" horiz-adv-x="566" d="M378 0Q373 28 372 56T369 113Q369 158 366 205Q364 236 359 256T343 289T311 305T258 310H205V0H71V723H298Q345 723 385 717T453 690T498 633T514 536Q514 468 488 422T391 360Q426 357 447 346T481 314T497 259T503 180L506 96Q508 71 510 47T518 0H378ZM377 524Q377 581 350 603T269 625H205V408H257Q290 408 313 413T350 432T370 467T377 524Z"  />
<glyph unicode="S" horiz-adv-x="509" d="M480 186Q480 130 464 92T417 31T346 -3T254 -14Q192 -14 150 -2T81 37T43 106T31 210V218H167V209Q167 185 169 163T181 123T207 95T255 84Q299 84 322 107T345 175Q345 198 337 215T315 247T281 274T238 301L183 335Q153 354 127 373T82 415T52 470T41 543Q41 596 57 633T104 693T175 726T265 737Q314 737 352 728T417 696T457 639T471 552V524H338V542Q338 562 335 579T324 610T300 631T259 639Q219 639 198 616T176 554Q176 532 184 515T207 484T239 457T279 432L327 403Q362 382 390 362T439 318T469 263T480 186Z"  />
<glyph unicode="T" horiz-adv-x="478" d="M306 623V0H172V623H5V723H473V623H306Z"  />
<glyph unicode="U" horiz-adv-x="602" d="M537 236Q537 174 525 128T484 50T411 2T299 -14Q230 -14 185 3T114 54T76 136T65 246V723H197V259Q197 230 199 199T210 143T241 101T301 84Q339 84 360 99T392 139T405 194T407 254V723H537V236H537Z"  />
<glyph unicode="V" horiz-adv-x="546" d="M346 0H189L9 723H149L273 120L405 723H537L346 0Z"  />
<glyph unicode="W" horiz-adv-x="860" d="M689 0H536L433 585L315 0H162L13 723H155L247 140L363 723H516L620 140L722 723H847L689 0Z"  />
<glyph unicode="X" horiz-adv-x="533" d="M383 0L264 282L138 0H1L190 376L15 723H165L276 461L388 723H526L347 371L532 0H383Z"  />
<glyph unicode="Y" horiz-adv-x="518" d="M320 270V0H186V270L-3 723H145L262 389L384 723H521L320 270Z"  />
<glyph unicode="Z" horiz-adv-x="482" d="M21 0V113L314 623H37V723H456V612L164 100H461V0H21Z"  />
<glyph unicode="[" horiz-adv-x="271" d="M53 -155V723H249V647H151V-77H249V-155H53Z"  />
<glyph unicode="\" horiz-adv-x="285" d="M207 -14L-13 737H80L298 -14H207Z"  />
<glyph unicode="]" horiz-adv-x="271" d="M22 -155V-77H120V647H22V723H218V-155H22Z"  />
<glyph unicode="^" horiz-adv-x="559" d="M384 292L279 581L173 292H54L226 723H332L504 292H384Z"  />
<glyph unicode="_" horiz-adv-x="500" d="M0 -125V-75H500V-125H0Z"  />
<glyph unicode="`" horiz-adv-x="229" d="M106 583L-35 726H88L182 583H106Z"  />
<glyph unicode="a" horiz-adv-x="444" d="M280 0L278 57Q236 -10 152 -10Q117 -10 94 2T56 34T35 82T28 141Q28 202 47 237T100 290T177 312T272 317V343Q272 361 271 378T265 408T250 430T220 439Q188 439 176 420T163 372V364H41V373Q41 416 56 443T98 487T157 509T226 516Q273 516 304 506T355 475T383 422T392 344V168Q392 126 393 84T400 0H280ZM272 243H250Q200 243 176 222T152 150Q152 136 154 122T162 97T178 79T205 71Q227 71 240 83T260 112T269 150T272 186V243Z"  />
<glyph unicode="b" horiz-adv-x="472" d="M436 254Q436 204 432 157T412 72T368 13T289 -10Q245 -10 219 5T172 55L171 0H52Q52 2 52 16T53 47T54 78T55 95V723H179V457Q202 488 233 502T302 516Q351 516 378 496T418 440T433 357T436 254ZM311 261Q311 295 310 326T302 382T284 421T248 436Q224 436 210 421T188 380T179 322T177 254Q177 219 179 186T187 127T208 85T246 69Q267 69 280 84T300 126T309 187T311 261Z"  />
<glyph unicode="c" horiz-adv-x="434" d="M415 178Q415 147 410 114T386 52T330 6T229 -12Q166 -12 128 5T70 54T43 130T36 230Q36 289 41 341T67 432T126 493T232 516Q282 516 316 506T372 475T402 418T412 333H294Q294 350 293 368T285 401T267 425T232 435Q202 435 187 418T166 375T160 317T160 256Q160 223 160 190T166 129T186 86T229 69Q252 69 265 79T286 105T295 140T297 178H415H415Z"  />
<glyph unicode="d" horiz-adv-x="472" d="M301 0L300 54Q259 -10 182 -10Q132 -10 103 12T59 70T40 152T36 248Q36 303 40 352T58 437T100 495T175 516Q213 516 241 503T293 457V723H417V92Q417 90 417 76T418 46T419 16T420 0H301ZM294 246Q294 280 293 314T284 375T264 419T226 436Q204 436 191 422T172 382T163 321T161 245Q161 217 163 186T171 129T191 86T227 69Q251 69 264 85T284 126T292 183T294 246Z"  />
<glyph unicode="e" horiz-adv-x="439" d="M159 238V193Q159 128 173 99T223 69Q243 69 255 77T274 100T283 131T285 167H403Q399 73 357 31T223 -12Q157 -12 120 8T64 64T41 147T36 247Q36 299 42 347T68 433T126 493T230 516Q296 516 331 493T383 432T403 343T406 238H159ZM284 307Q284 324 284 341T281 376Q277 402 266 418T225 435Q195 435 182 417T163 369Q161 354 160 340T159 307H284Z"  />
<glyph unicode="f" horiz-adv-x="276" d="M274 642Q269 643 262 643Q220 643 208 627T195 567V504H271V423H195V0H71V423H10V504H71V583Q71 616 76 643T97 690T138 719T207 730Q227 730 240 730T274 727V642H274Z"  />
<glyph unicode="g" horiz-adv-x="477" d="M425 504Q424 489 424 466T423 423V-22Q423 -74 409 -107T369 -160T306 -187T221 -195Q179 -195 147 -188T92 -164T59 -118T47 -45H179Q179 -59 181 -72T188 -97T204 -116T232 -123Q270 -123 283 -97T296 -16V63Q272 32 246 20T182 7Q132 7 103 29T59 84T40 159T36 240Q36 290 38 339T55 428T97 491T179 516Q219 516 250 499T300 446V504H425ZM298 245Q298 278 297 312T288 373T267 418T229 435Q206 435 193 422T172 383T164 322T162 241Q162 212 164 184T174 133T194 96T229 82Q254 82 268 99T288 142T296 196T298 245Z"  />
<glyph unicode="h" horiz-adv-x="484" d="M306 0V337Q306 358 305 376T297 407T280 427T248 435Q229 435 216 425T195 399T183 364T179 325V0H55V723H179V451Q202 483 232 499T303 516Q375 516 402 477T430 362V0H306Z"  />
<glyph unicode="i" horiz-adv-x="234" d="M55 608V715H179V608H55ZM55 0V504H179V0H55Z"  />
<glyph unicode="j" horiz-adv-x="234" d="M55 608V715H179V608H55ZM179 -51Q179 -87 174 -113T155 -158T117 -185T53 -194Q37 -194 22 -194T-9 -193V-108Q11 -108 23 -107T43 -98T52 -79T55 -43V504H179V-51Z"  />
<glyph unicode="k" horiz-adv-x="444" d="M311 0L182 285L298 504H433L309 289L449 0H311ZM55 0V723H179V0H55Z"  />
<glyph unicode="l" horiz-adv-x="234" d="M55 0V723H179V0H55Z"  />
<glyph unicode="m" horiz-adv-x="715" d="M537 0V346Q537 385 527 409T484 434Q464 434 452 423T432 394T423 357T420 321V0H296V349Q296 364 295 379T288 406T273 426T244 434Q223 434 211 423T191 396T182 359T179 321V0H55V435Q55 452 54 469T51 504H174L175 447Q195 479 227 497T297 516Q344 516 369 497T409 446Q434 478 463 497T534 516Q607 516 634 472T661 348V0H537Z"  />
<glyph unicode="n" horiz-adv-x="484" d="M306 0V338Q306 357 305 374T299 405T282 427T249 435Q231 435 218 426T197 402T184 368T179 329V0H55V422Q55 443 55 463T51 504H176L177 448Q197 477 226 496T301 516Q339 516 364 506T403 477T424 429T430 362V0H306Z"  />
<glyph unicode="o" horiz-adv-x="458" d="M422 267Q422 205 417 154T392 66T334 9T230 -12Q162 -12 124 7T66 62T41 145T36 251Q36 304 42 352T68 436T128 494T233 516Q298 516 336 498T393 447T417 368T422 267ZM296 302Q296 326 295 350T288 393T269 423T231 435Q205 435 191 421T170 387T162 343T161 300V200Q161 181 161 158T168 116T189 83T230 69Q255 69 268 81T288 112T295 153T296 194V302Z"  />
<glyph unicode="p" horiz-adv-x="472" d="M436 256Q436 203 432 155T413 70T369 12T290 -10Q254 -10 226 2T179 44V-192H55V386Q55 389 55 406T54 445T53 483T52 504H173L174 451Q197 485 230 500T300 516Q349 516 376 496T417 441T433 359T436 256ZM311 261Q311 297 310 328T302 384T282 422T247 436Q222 436 208 419T187 375T179 313T177 245Q177 210 179 179T189 123T210 85T247 70Q269 70 282 89T301 137T309 199T311 261Z"  />
<glyph unicode="q" horiz-adv-x="470" d="M418 504Q418 501 418 484T417 445T417 407T417 386V-192H293V48Q251 -9 177 -9Q127 -9 99 11T56 64T39 135T36 214Q36 216 36 231T36 264T37 297T37 315Q38 352 43 388T62 452T104 497T179 514Q217 514 248 499T300 451V504H418ZM294 223Q294 243 294 278T289 348T269 408T225 434Q201 434 188 414T168 366T161 310T160 265Q160 253 160 234T160 194T164 151T175 112T193 83T223 72Q250 72 264 88T285 128T293 178T294 223Z"  />
<glyph unicode="r" horiz-adv-x="313" d="M306 402Q301 403 296 403T285 404Q224 404 201 372T178 282V0H54V413Q54 415 54 429T53 458T53 488T52 504H171L172 439Q193 481 224 497T300 513H306V402H306Z"  />
<glyph unicode="s" horiz-adv-x="410" d="M385 146Q385 104 371 75T331 27T272 0T200 -9Q163 -9 132 -1T77 24T40 69T27 136V161H150V147Q150 132 152 118T160 94T177 77T206 70Q234 70 248 86T262 129Q262 145 258 156T245 177T222 194T187 213L152 231Q120 247 98 260T61 289T39 324T32 373Q32 411 46 438T85 482T141 508T210 516Q301 516 340 479T380 360H258V377Q258 406 247 425T205 444Q181 444 168 429T155 391Q155 363 173 348T227 315L262 297Q290 282 313 269T352 240T376 201T385 146Z"  />
<glyph unicode="t" horiz-adv-x="293" d="M284 -1Q267 -4 250 -5T214 -6Q174 -6 147 0T104 23T81 65T74 132V423H7V504H74V590L198 641V504H277V423H198V150Q198 133 199 120T206 99T222 86T250 81Q258 81 266 82T284 84V-1H284Z"  />
<glyph unicode="u" horiz-adv-x="484" d="M306 0L305 54Q263 -10 185 -10Q116 -10 85 25T54 132V504H178V167Q178 151 179 134T185 103T203 79T236 70Q256 70 269 80T290 107T301 141T304 177V504H428V83Q428 59 429 41T432 0H306Z"  />
<glyph unicode="v" horiz-adv-x="423" d="M279 0H141L5 504H135L216 112L299 504H418L279 0Z"  />
<glyph unicode="w" horiz-adv-x="700" d="M574 0H434L354 392L264 0H124L9 504H143L201 113L291 504H427L510 113L574 504H691L574 0Z"  />
<glyph unicode="x" horiz-adv-x="429" d="M286 0L209 188L127 0H5L146 266L18 504H159L221 338L285 504H409L283 265L424 0H286Z"  />
<glyph unicode="y" horiz-adv-x="425" d="M213 -192H95L156 0L6 504H139L220 148L299 504H421L213 -192Z"  />
<glyph unicode="z" horiz-adv-x="373" d="M23 0V88L218 424H33V504H349V421L154 82H350V0H23Z"  />
<glyph unicode="{" horiz-adv-x="366" d="M10 317Q79 325 106 360T133 465V506Q133 551 140 588T169 654T235 701T351 723V657Q316 654 294 643T259 612T241 565T236 504V480Q236 439 232 405T214 346T171 306T95 284Q143 278 171 263T213 222T232 163T236 88V64Q236 30 241 3T258 -43T293 -74T351 -89V-155Q278 -151 235 -134T170 -88T140 -21T133 62V103Q133 172 106 207T10 251V317Z"  />
<glyph unicode="|" horiz-adv-x="222" d="M57 -214V787H165V-214H57Z"  />
<glyph unicode="}" horiz-adv-x="366" d="M356 251Q287 243 260 208T233 103V62Q233 17 226 -21T197 -87T131 -133T15 -155V-89Q50 -86 72 -75T107 -44T125 3T130 64V88Q130 129 134 163T152 222T195 262T271 284Q223 290 195 305T153 346T134 405T130 480V504Q130 538 125 565T108 611T73 642T15 657V723Q88 719 131 701T196 655T226 589T233 506V465Q233 396 260 361T356 317V251Z"  />
<glyph unicode="~" horiz-adv-x="559" d="M526 342Q521 270 484 224T374 178Q349 178 323 186T261 212Q225 229 207 235T170 242Q146 242 132 225T112 181H33Q38 253 75 299T185 345Q210 345 236 337T298 311Q334 294 352 288T389 281Q413 281 427 298T447 342H526H526Z"  />
<glyph unicode="&#xA0;" horiz-adv-x="236" />
<glyph unicode="&#xA1;" horiz-adv-x="275" d="M83 432V542H190V432H83ZM75 -181L94 353H181L200 -181H75Z"  />
<glyph unicode="&#xA2;" horiz-adv-x="472" d="M271 431Q266 433 260 434T245 435Q215 435 199 420T174 380T165 323T163 256Q163 230 163 213T164 184T165 162T168 142L271 431ZM198 83Q215 69 242 69Q265 69 280 79T304 105T316 140T320 178H428Q428 147 423 114T399 52T343 6T242 -12Q220 -12 202 -10T168 -4L136 -88H76L116 19Q74 49 62 103T49 230Q49 289 54 341T80 432T139 493T245 516Q272 516 295 513L323 598H383L348 499Q390 481 407 441T425 333H317Q317 347 315 362T308 391L198 83Z"  />
<glyph unicode="&#xA3;" horiz-adv-x="472" d="M337 556V564Q337 594 324 619T275 644Q254 644 242 636T222 615T213 585T210 551V431H339V339H210V94H438V0H32V94H97V339H29V431H96V472Q96 524 99 572T120 656T174 714T277 736Q361 736 399 698T443 586Q444 578 444 571T444 556H337Z"  />
<glyph unicode="&#xA4;" horiz-adv-x="472" d="M23 199L79 254Q53 295 53 349Q53 402 79 445L23 500L85 562L141 505Q183 530 236 530Q287 530 331 505L387 562L449 500L392 445Q419 401 419 349Q419 322 412 298T393 254L449 199L387 137L331 193Q289 169 236 169Q181 169 141 193L85 137L23 199ZM322 350Q322 387 298 413T236 440Q198 440 174 414T150 350Q150 312 174 286T236 259Q273 259 297 285T322 350Z"  />
<glyph unicode="&#xA5;" horiz-adv-x="472" d="M318 350H434V275H295V209H434V134H295V0H166V134H27V209H166V275H27V350H147L12 723H153L238 390L329 723H461L318 350Z"  />
<glyph unicode="&#xA6;" horiz-adv-x="222" d="M57 411V662H165V411H57ZM57 -89V161H165V-89H57Z"  />
<glyph unicode="&#xA7;" horiz-adv-x="439" d="M401 384Q401 339 374 306T312 250Q348 233 370 205T393 134Q393 92 375 64T329 18T265 -7T194 -15Q154 -15 115 -8T40 15V120Q74 103 113 92T190 81Q203 81 215 83T238 92T254 108T260 133Q260 159 235 175T174 206Q150 216 125 228T78 256T44 296T31 351Q31 397 60 428T129 479Q94 499 72 527T50 597Q50 634 65 661T104 704T159 729T224 737Q263 737 300 729T375 708V608Q342 622 308 633T236 645Q215 645 195 634T175 598Q175 585 182 575T201 557T228 541T262 526Q286 516 310 505T355 477T388 438T401 384ZM286 372Q286 388 280 399T263 419T241 434T215 446Q203 441 191 434T168 418T151 397T144 371Q144 354 151 342T170 319T196 302T223 288Q246 302 266 322T286 372Z"  />
<glyph unicode="&#xA8;" horiz-adv-x="228" d="M148 605V713H250V605H148ZM-22 605V713H80V605H-22Z"  />
<glyph unicode="&#xA9;" horiz-adv-x="796" d="M779 361Q779 280 751 211T672 92T553 14T404 -14Q324 -14 255 14T136 92T57 211T28 361Q28 442 56 511T135 630T255 708T404 737Q484 737 552 709T671 630T750 511T779 361ZM710 361Q710 429 687 486T623 586T526 651T403 675Q337 675 281 652T184 586T120 487T97 361Q97 293 120 236T183 136T280 71T403 47Q470 47 526 70T623 136T687 235T710 361ZM557 285Q557 217 520 185T411 152Q363 152 332 165T284 204T261 270T254 362Q254 411 260 450T283 516T332 557T414 572Q482 572 518 541T554 447V438H461V445Q461 456 460 467T453 488T438 502T412 508Q392 508 381 499T363 473T356 429T354 368Q354 325 355 296T363 249T380 224T410 216Q428 216 439 222T455 238T461 261T463 288V297H557V285Z"  />
<glyph unicode="&#xAA;" horiz-adv-x="311" d="M197 427L196 461Q169 421 114 421Q69 421 51 448T33 512Q33 549 45 570T78 603T127 617T188 621V633Q188 655 183 671T157 687Q137 687 131 676T124 650V646H42V651Q42 676 52 693T78 719T117 733T162 737Q223 737 248 713T273 634V528Q273 502 273 478T278 427H197ZM188 571H177Q145 571 130 559T114 517Q114 500 120 488T148 475Q162 475 170 481T182 497T187 518T188 539V571Z"  />
<glyph unicode="&#xAB;" horiz-adv-x="407" d="M298 252L382 58H279L188 252L280 447H384L298 252ZM111 58L23 252L112 447H215L130 252L215 58H111Z"  />
<glyph unicode="&#xAC;" horiz-adv-x="559" d="M409 145V322H36V426H523V145H409Z"  />
<glyph unicode="&#xAD;" horiz-adv-x="319" d="M42 223V316H276V223H42Z"  />
<glyph unicode="&#xAE;" horiz-adv-x="383" d="M379 549Q379 510 364 476T324 417T264 376T191 361Q152 361 118 376T59 416T19 476T4 549Q4 587 18 621T58 681T118 722T191 737Q230 737 264 722T323 682T364 622T379 549ZM344 549Q344 580 332 608T299 657T250 690T191 702Q159 702 132 690T84 657T51 608T39 549Q39 518 51 490T83 441T131 408T191 396Q222 396 250 408T299 441T332 489T344 549ZM233 447Q227 462 227 475T226 499T214 516T181 523H162V447H113V652H187Q203 652 219 650T248 642T270 624T279 592Q279 555 242 543Q260 535 266 525T274 501T276 475T282 447H233ZM230 588Q230 606 215 610T185 614H162V561H185Q192 561 200 561T215 564T226 572T230 588Z"  />
<glyph unicode="&#xAF;" horiz-adv-x="228" d="M-26 624V685H254V624H-26Z"  />
<glyph unicode="&#xB0;" horiz-adv-x="399" d="M360 578Q360 544 348 516T313 467T262 435T199 423Q165 423 136 434T86 466T52 515T39 578Q39 612 51 640T85 689T136 721T199 733Q233 733 262 722T313 690T347 641T360 578ZM272 578Q272 611 252 632T199 654Q168 654 148 633T127 578Q127 545 147 524T199 502Q231 502 251 523T272 578Z"  />
<glyph unicode="&#xB1;" horiz-adv-x="559" d="M338 301V154H222V301H36V406H222V553H338V406H523V301H338ZM36 0V105H523V0H36Z"  />
<glyph unicode="&#xB2;" horiz-adv-x="301" d="M21 469V535L147 696Q173 728 181 748T190 791Q190 811 179 822T148 833Q120 833 111 815T101 768H24Q24 832 57 862T150 893Q176 893 198 887T237 868T263 835T272 787Q272 725 228 669L120 533H274V469H21Z"  />
<glyph unicode="&#xB3;" horiz-adv-x="301" d="M276 592Q276 527 246 495T151 463Q89 463 61 490T32 584H111Q111 556 119 541T151 526Q175 526 184 541T194 586Q194 628 180 643T136 658H114V715H139Q192 715 192 777Q192 804 185 819T154 834Q133 834 124 819T115 777H38V794Q38 844 69 868T151 893Q208 893 239 868T270 782Q270 753 260 728T219 688Q251 675 263 650T276 592Z"  />
<glyph unicode="&#xB4;" horiz-adv-x="228" d="M122 583H47L140 726H263L122 583Z"  />
<glyph unicode="&#xB5;" horiz-adv-x="485" d="M307 0L306 54Q291 16 272 3T232 -10Q198 -10 179 18V-192H55V504H179V167Q179 151 180 134T186 103T204 79T237 70Q257 70 270 80T291 107T302 141T305 177V504H429V83Q429 59 430 41T433 0H307Z"  />
<glyph unicode="&#xB6;" horiz-adv-x="586" d="M413 0V639H320V0H218V336Q170 340 133 351T71 384T32 439T18 519Q18 588 41 628T103 690T195 717T307 723H515V0H413Z"  />
<glyph unicode="&#xB7;" horiz-adv-x="236" d="M64 238V360H172V238H64Z"  />
<glyph unicode="&#xB8;" horiz-adv-x="228" d="M226 -132Q226 -155 216 -172T189 -200T151 -217T110 -223Q55 -223 7 -199L24 -161Q41 -168 58 -172T93 -176Q113 -176 131 -167T150 -135Q150 -115 137 -107T102 -98Q92 -98 83 -100T64 -106L43 -88L108 0H154L111 -61Q118 -59 124 -58T140 -56Q174 -56 200 -76T226 -132Z"  />
<glyph unicode="&#xB9;" horiz-adv-x="301" d="M126 469V795Q109 781 89 768T49 746V823Q95 846 131 887H210V469H126Z"  />
<glyph unicode="&#xBA;" horiz-adv-x="313" d="M280 578Q280 542 276 513T258 464T220 432T157 420Q117 420 93 431T56 462T38 512T33 578Q33 614 37 643T55 693T93 725T157 737Q197 737 221 726T258 694T275 644T280 578ZM194 579Q194 627 188 652T157 677Q133 677 126 652T119 579Q119 531 126 506T157 481Q181 481 187 506T194 579Z"  />
<glyph unicode="&#xBB;" horiz-adv-x="408" d="M296 58H192L277 251L192 447H294L385 251L296 58ZM128 58H25L110 251L23 447H127L218 251L128 58Z"  />
<glyph unicode="&#xBC;" horiz-adv-x="746" d="M682 95V0H597V95H463V177L571 419H682V164H717V95H682ZM242 -23H182L476 733H537L242 -23ZM106 299V624Q89 611 70 597T28 574V653Q53 664 73 680T110 717H190V299H106ZM604 320Q598 305 590 284T572 241T553 198T538 162H601L604 320Z"  />
<glyph unicode="&#xBD;" horiz-adv-x="746" d="M458 0V66Q467 76 487 100T530 153T574 210T607 259Q614 270 620 291T626 326Q626 340 615 352T588 365Q557 365 548 345T538 296H463V315Q463 340 473 360T500 394T539 416T585 424Q637 424 672 399T708 318Q708 290 703 269T683 224Q672 208 658 188T627 146T594 103T562 64H711V0H458ZM240 -23H180L474 733H535L240 -23ZM112 299V624Q95 611 76 597T34 574V653Q59 664 79 680T116 717H196V299H112Z"  />
<glyph unicode="&#xBE;" horiz-adv-x="746" d="M694 95V0H609V95H476V177L583 419H694V164H729V95H694ZM264 422Q264 357 234 325T139 292Q77 292 49 319T20 414H99Q99 386 107 371T144 355Q157 355 164 361T176 376T181 396T182 416Q182 458 168 472T124 488H102V545H127Q180 546 180 605Q180 632 174 648T142 664Q121 664 112 649T103 607H26V624Q26 674 57 698T139 723Q196 723 227 698T258 612Q258 583 245 558T206 517Q236 502 250 478T264 422ZM260 -23H200L494 733H556L260 -23ZM616 320Q611 305 603 284T585 241T566 198T550 162H613L616 320Z"  />
<glyph unicode="&#xBF;" horiz-adv-x="415" d="M379 -18Q379 -106 336 -150T204 -195Q119 -195 76 -153T32 -26Q32 13 40 41T61 93T92 139T129 189Q140 204 147 216T157 242T162 270T164 306V352H258V277Q258 223 242 186T205 118T169 55T152 -20Q152 -35 154 -50T162 -78T180 -98T210 -106Q228 -106 239 -99T258 -80T267 -54T271 -24V3H379V-18ZM155 432V542H262V432H155Z"  />
<glyph unicode="&#xC0;" horiz-adv-x="571" d="M435 0L392 166H174L131 0H-1L201 723H374L572 0H435ZM283 616L201 264H365L283 616ZM274 777L133 920H256L350 777H274Z"  />
<glyph unicode="&#xC1;" horiz-adv-x="571" d="M435 0L392 166H174L131 0H-1L201 723H374L572 0H435ZM283 616L201 264H365L283 616ZM290 777H215L308 920H431L290 777Z"  />
<glyph unicode="&#xC2;" horiz-adv-x="571" d="M435 0L392 166H174L131 0H-1L201 723H374L572 0H435ZM283 616L201 264H365L283 616ZM359 777L282 864L205 777H126L230 920H334L438 777H359Z"  />
<glyph unicode="&#xC3;" horiz-adv-x="571" d="M435 0L392 166H174L131 0H-1L201 723H374L572 0H435ZM283 616L201 264H365L283 616ZM453 903Q450 882 443 863T424 827T393 802T352 792Q332 792 314 798T279 810T244 823T207 829Q188 829 178 816T164 785H111Q114 807 122 827T143 862T174 887T217 897Q236 897 253 891T288 878T322 864T354 858Q375 858 385 871T400 903H453Z"  />
<glyph unicode="&#xC4;" horiz-adv-x="571" d="M435 0L392 166H174L131 0H-1L201 723H374L572 0H435ZM283 616L201 264H365L283 616ZM316 789V897H418V789H316ZM146 789V897H248V789H146Z"  />
<glyph unicode="&#xC5;" horiz-adv-x="571" d="M435 0L392 166H174L131 0H-1L201 723H374L572 0H435ZM283 616L201 264H365L283 616ZM182 850Q182 871 189 889T210 920T242 941T282 949Q303 949 321 942T352 921T374 889T382 850Q382 829 374 811T353 780T321 759T282 751Q261 751 243 758T211 779T190 811T182 850ZM224 850Q224 824 240 807T282 790Q307 790 323 807T340 850Q340 876 324 893T282 910Q257 910 241 893T224 850Z"  />
<glyph unicode="&#xC6;" horiz-adv-x="772" d="M420 0L396 167H176L122 0H-5L240 723H726V623H451L481 427H713V327H501L535 102H743V0H420ZM324 637L207 264H380L324 637Z"  />
<glyph unicode="&#xC7;" horiz-adv-x="534" d="M507 216Q507 98 455 44T293 -14L260 -61Q267 -59 273 -58T289 -56Q323 -56 349 -76T375 -132Q375 -155 365 -172T338 -200T300 -217T259 -223Q204 -223 156 -199L173 -161Q190 -168 207 -172T242 -176Q262 -176 280 -167T299 -135Q299 -115 286 -107T251 -98Q241 -98 232 -100T213 -106L192 -88L247 -12Q176 -7 136 21T75 98T50 213T45 363Q45 444 50 512T80 631T152 709T287 737Q401 737 451 685T501 521V505H370V518Q370 538 368 559T356 598T330 627T284 639Q248 639 227 621T196 568T183 485T180 374Q180 296 183 241T196 151T226 100T280 84Q313 84 331 96T359 128T371 172T374 221V238H507V216H507Z"  />
<glyph unicode="&#xC8;" horiz-adv-x="486" d="M71 0V723H449V623H204V426H431V328H204V100H457V0H71ZM263 777L122 920H245L339 777H263Z"  />
<glyph unicode="&#xC9;" horiz-adv-x="486" d="M71 0V723H449V623H204V426H431V328H204V100H457V0H71ZM279 777H204L297 920H420L279 777Z"  />
<glyph unicode="&#xCA;" horiz-adv-x="486" d="M71 0V723H449V623H204V426H431V328H204V100H457V0H71ZM348 777L271 864L194 777H115L219 920H323L427 777H348Z"  />
<glyph unicode="&#xCB;" horiz-adv-x="486" d="M71 0V723H449V623H204V426H431V328H204V100H457V0H71ZM305 789V897H407V789H305ZM135 789V897H237V789H135Z"  />
<glyph unicode="&#xCC;" horiz-adv-x="276" d="M71 0V723H205V0H71ZM129 777L-12 920H111L205 777H129Z"  />
<glyph unicode="&#xCD;" horiz-adv-x="276" d="M71 0V723H205V0H71ZM145 777H70L163 920H286L145 777Z"  />
<glyph unicode="&#xCE;" horiz-adv-x="276" d="M71 0V723H205V0H71ZM214 777L137 864L60 777H-19L85 920H189L293 777H214Z"  />
<glyph unicode="&#xCF;" horiz-adv-x="276" d="M71 0V723H205V0H71ZM171 789V897H273V789H171ZM1 789V897H103V789H1Z"  />
<glyph unicode="&#xD0;" horiz-adv-x="585" d="M540 380Q540 296 536 226T506 106T428 28T278 0H71V361H4V436H71V723H276Q367 723 419 701T499 635T533 527T540 380ZM403 353Q403 417 401 467T385 553T344 606T263 625H205V436H315V361H205V98H266Q315 98 342 117T383 171T400 251T403 353Z"  />
<glyph unicode="&#xD1;" horiz-adv-x="633" d="M361 0L189 606V0H71V723H272L444 117V723H562V0H361ZM487 903Q484 882 477 863T458 827T427 802T386 792Q366 792 348 798T313 810T278 823T241 829Q222 829 212 816T198 785H145Q148 807 156 827T177 862T208 887T251 897Q270 897 287 891T322 878T356 864T388 858Q409 858 419 871T434 903H487Z"  />
<glyph unicode="&#xD2;" horiz-adv-x="573" d="M528 352Q528 274 523 207T495 91T422 14T282 -14Q197 -14 150 13T79 89T50 205T45 351Q45 434 49 505T77 627T149 708T286 737Q376 737 425 709T497 631T524 509T528 352ZM391 371Q391 429 390 478T378 563T347 619T286 639Q246 639 225 618T193 560T182 474T180 366Q180 298 182 246T194 157T225 103T286 84Q325 84 346 103T377 159T389 249T391 371ZM279 777L138 920H261L355 777H279Z"  />
<glyph unicode="&#xD3;" horiz-adv-x="573" d="M528 352Q528 274 523 207T495 91T422 14T282 -14Q197 -14 150 13T79 89T50 205T45 351Q45 434 49 505T77 627T149 708T286 737Q376 737 425 709T497 631T524 509T528 352ZM391 371Q391 429 390 478T378 563T347 619T286 639Q246 639 225 618T193 560T182 474T180 366Q180 298 182 246T194 157T225 103T286 84Q325 84 346 103T377 159T389 249T391 371ZM295 777H220L313 920H436L295 777Z"  />
<glyph unicode="&#xD4;" horiz-adv-x="573" d="M528 352Q528 274 523 207T495 91T422 14T282 -14Q197 -14 150 13T79 89T50 205T45 351Q45 434 49 505T77 627T149 708T286 737Q376 737 425 709T497 631T524 509T528 352ZM391 371Q391 429 390 478T378 563T347 619T286 639Q246 639 225 618T193 560T182 474T180 366Q180 298 182 246T194 157T225 103T286 84Q325 84 346 103T377 159T389 249T391 371ZM364 777L287 864L210 777H131L235 920H339L443 777H364Z"  />
<glyph unicode="&#xD5;" horiz-adv-x="573" d="M528 352Q528 274 523 207T495 91T422 14T282 -14Q197 -14 150 13T79 89T50 205T45 351Q45 434 49 505T77 627T149 708T286 737Q376 737 425 709T497 631T524 509T528 352ZM391 371Q391 429 390 478T378 563T347 619T286 639Q246 639 225 618T193 560T182 474T180 366Q180 298 182 246T194 157T225 103T286 84Q325 84 346 103T377 159T389 249T391 371ZM458 903Q455 882 448 863T429 827T398 802T357 792Q337 792 319 798T284 810T249 823T212 829Q193 829 183 816T169 785H116Q119 807 127 827T148 862T179 887T222 897Q241 897 258 891T293 878T327 864T359 858Q380 858 390 871T405 903H458Z"  />
<glyph unicode="&#xD6;" horiz-adv-x="573" d="M528 352Q528 274 523 207T495 91T422 14T282 -14Q197 -14 150 13T79 89T50 205T45 351Q45 434 49 505T77 627T149 708T286 737Q376 737 425 709T497 631T524 509T528 352ZM391 371Q391 429 390 478T378 563T347 619T286 639Q246 639 225 618T193 560T182 474T180 366Q180 298 182 246T194 157T225 103T286 84Q325 84 346 103T377 159T389 249T391 371ZM321 789V897H423V789H321ZM151 789V897H253V789H151Z"  />
<glyph unicode="&#xD7;" horiz-adv-x="559" d="M431 33L279 185L128 34L53 109L204 260L53 411L128 486L279 335L431 486L505 411L354 260L506 108L431 33Z"  />
<glyph unicode="&#xD8;" horiz-adv-x="573" d="M501 621Q521 570 524 502T528 352Q528 274 523 207T495 91T422 14T282 -14Q225 -14 186 -2T120 34L68 -42L18 -9L81 84Q55 133 50 201T45 351Q45 434 49 505T77 627T149 708T286 737Q354 737 397 721T468 676L515 748L563 715L501 621ZM196 150Q207 118 227 101T286 84Q325 84 346 103T377 159T389 249T391 371Q391 392 391 412T390 451L196 150ZM382 545Q374 590 353 614T286 639Q246 639 225 618T193 560T182 474T180 366Q180 330 180 298T182 239L382 545Z"  />
<glyph unicode="&#xD9;" horiz-adv-x="602" d="M537 236Q537 174 525 128T484 50T411 2T299 -14Q230 -14 185 3T114 54T76 136T65 246V723H197V259Q197 230 199 199T210 143T241 101T301 84Q339 84 360 99T392 139T405 194T407 254V723H537V236ZM295 777L154 920H277L371 777H295Z"  />
<glyph unicode="&#xDA;" horiz-adv-x="602" d="M537 236Q537 174 525 128T484 50T411 2T299 -14Q230 -14 185 3T114 54T76 136T65 246V723H197V259Q197 230 199 199T210 143T241 101T301 84Q339 84 360 99T392 139T405 194T407 254V723H537V236ZM311 777H236L329 920H452L311 777Z"  />
<glyph unicode="&#xDB;" horiz-adv-x="602" d="M537 236Q537 174 525 128T484 50T411 2T299 -14Q230 -14 185 3T114 54T76 136T65 246V723H197V259Q197 230 199 199T210 143T241 101T301 84Q339 84 360 99T392 139T405 194T407 254V723H537V236ZM380 777L303 864L226 777H147L251 920H355L459 777H380Z"  />
<glyph unicode="&#xDC;" horiz-adv-x="602" d="M537 236Q537 174 525 128T484 50T411 2T299 -14Q230 -14 185 3T114 54T76 136T65 246V723H197V259Q197 230 199 199T210 143T241 101T301 84Q339 84 360 99T392 139T405 194T407 254V723H537V236ZM337 789V897H439V789H337ZM167 789V897H269V789H167Z"  />
<glyph unicode="&#xDD;" horiz-adv-x="518" d="M320 270V0H186V270L-3 723H145L262 389L384 723H521L320 270ZM264 777H189L282 920H405L264 777Z"  />
<glyph unicode="&#xDE;" horiz-adv-x="533" d="M510 386Q510 315 494 273T447 209T375 180T281 173H205V0H71V722H205V593H251Q310 593 358 588T439 562T491 500T510 386ZM375 385Q375 418 368 439T345 473T306 490T252 495H205V272H250Q282 272 305 277T344 294T367 329T375 385Z"  />
<glyph unicode="&#xDF;" horiz-adv-x="529" d="M512 144Q512 105 500 77T465 29T413 1T347 -8Q270 -8 236 25T201 136H309Q308 110 317 92T354 73Q379 73 387 92T396 134Q396 171 372 203T317 267T263 333T238 407Q238 432 252 451T283 488T314 527T328 578Q328 614 310 631T258 649Q227 649 211 639T186 612T177 570T175 518V0H52V515Q52 574 64 615T102 681T167 718T261 730Q300 730 334 724T394 703T435 661T450 592Q450 555 436 532T404 490T373 455T358 414Q358 384 382 359T435 304T488 237T512 144Z"  />
<glyph unicode="&#xE0;" horiz-adv-x="444" d="M280 0L278 57Q236 -10 152 -10Q117 -10 94 2T56 34T35 82T28 141Q28 202 47 237T100 290T177 312T272 317V343Q272 361 271 378T265 408T250 430T220 439Q188 439 176 420T163 372V364H41V373Q41 416 56 443T98 487T157 509T226 516Q273 516 304 506T355 475T383 422T392 344V168Q392 126 393 84T400 0H280ZM272 243H250Q200 243 176 222T152 150Q152 136 154 122T162 97T178 79T205 71Q227 71 240 83T260 112T269 150T272 186V243ZM212 583L71 726H194L288 583H212Z"  />
<glyph unicode="&#xE1;" horiz-adv-x="444" d="M280 0L278 57Q236 -10 152 -10Q117 -10 94 2T56 34T35 82T28 141Q28 202 47 237T100 290T177 312T272 317V343Q272 361 271 378T265 408T250 430T220 439Q188 439 176 420T163 372V364H41V373Q41 416 56 443T98 487T157 509T226 516Q273 516 304 506T355 475T383 422T392 344V168Q392 126 393 84T400 0H280ZM272 243H250Q200 243 176 222T152 150Q152 136 154 122T162 97T178 79T205 71Q227 71 240 83T260 112T269 150T272 186V243ZM228 583H153L246 726H369L228 583Z"  />
<glyph unicode="&#xE2;" horiz-adv-x="444" d="M280 0L278 57Q236 -10 152 -10Q117 -10 94 2T56 34T35 82T28 141Q28 202 47 237T100 290T177 312T272 317V343Q272 361 271 378T265 408T250 430T220 439Q188 439 176 420T163 372V364H41V373Q41 416 56 443T98 487T157 509T226 516Q273 516 304 506T355 475T383 422T392 344V168Q392 126 393 84T400 0H280ZM272 243H250Q200 243 176 222T152 150Q152 136 154 122T162 97T178 79T205 71Q227 71 240 83T260 112T269 150T272 186V243ZM297 583L220 670L143 583H64L168 726H272L376 583H297Z"  />
<glyph unicode="&#xE3;" horiz-adv-x="444" d="M280 0L278 57Q236 -10 152 -10Q117 -10 94 2T56 34T35 82T28 141Q28 202 47 237T100 290T177 312T272 317V343Q272 361 271 378T265 408T250 430T220 439Q188 439 176 420T163 372V364H41V373Q41 416 56 443T98 487T157 509T226 516Q273 516 304 506T355 475T383 422T392 344V168Q392 126 393 84T400 0H280ZM272 243H250Q200 243 176 222T152 150Q152 136 154 122T162 97T178 79T205 71Q227 71 240 83T260 112T269 150T272 186V243ZM391 709Q388 688 381 669T362 633T331 608T290 598Q270 598 252 604T217 616T182 629T145 635Q126 635 116 622T102 591H49Q52 613 60 633T81 668T112 693T155 703Q174 703 191 697T226 684T260 670T292 664Q313 664 323 677T338 709H391Z"  />
<glyph unicode="&#xE4;" horiz-adv-x="444" d="M280 0L278 57Q236 -10 152 -10Q117 -10 94 2T56 34T35 82T28 141Q28 202 47 237T100 290T177 312T272 317V343Q272 361 271 378T265 408T250 430T220 439Q188 439 176 420T163 372V364H41V373Q41 416 56 443T98 487T157 509T226 516Q273 516 304 506T355 475T383 422T392 344V168Q392 126 393 84T400 0H280ZM272 243H250Q200 243 176 222T152 150Q152 136 154 122T162 97T178 79T205 71Q227 71 240 83T260 112T269 150T272 186V243ZM254 605V713H356V605H254ZM84 605V713H186V605H84Z"  />
<glyph unicode="&#xE5;" horiz-adv-x="444" d="M280 0L278 57Q236 -10 152 -10Q117 -10 94 2T56 34T35 82T28 141Q28 202 47 237T100 290T177 312T272 317V343Q272 361 271 378T265 408T250 430T220 439Q188 439 176 420T163 372V364H41V373Q41 416 56 443T98 487T157 509T226 516Q273 516 304 506T355 475T383 422T392 344V168Q392 126 393 84T400 0H280ZM272 243H250Q200 243 176 222T152 150Q152 136 154 122T162 97T178 79T205 71Q227 71 240 83T260 112T269 150T272 186V243ZM320 666Q320 645 312 627T291 596T259 575T220 567Q199 567 181 574T149 595T128 627T120 666Q120 687 127 705T148 736T180 757T220 765Q241 765 259 758T290 737T312 705T320 666ZM278 666Q278 692 262 709T220 726Q195 726 179 709T162 666Q162 640 178 623T220 606Q245 606 261 623T278 666Z"  />
<glyph unicode="&#xE6;" horiz-adv-x="723" d="M689 154Q683 72 636 31T513 -11Q462 -11 422 6T358 74Q345 49 327 33T288 7T242 -7T192 -11Q112 -11 70 31T28 151Q28 209 50 240T111 287T198 305T302 308V340Q302 353 299 370T287 402T264 427T227 437Q192 437 175 415T157 358H40Q41 430 84 474T216 518Q261 518 303 502T370 441Q393 486 432 502T517 518Q583 518 618 492T670 427T688 342T690 255V238H426V209Q426 198 426 174T433 126T455 84T500 65Q522 65 535 74T556 98T567 131T570 168H690L689 154ZM570 326Q570 346 569 366T560 402T539 429T498 439Q474 439 460 428T439 400T429 365T426 333V308H570V326ZM302 239H280Q254 239 230 237T187 225T157 198T145 148Q145 131 148 116T158 89T178 72T209 65Q239 65 257 79T286 114T299 160T302 209V239Z"  />
<glyph unicode="&#xE7;" horiz-adv-x="434" d="M415 178Q415 148 411 116T390 57T341 11T251 -11L216 -61Q223 -59 229 -58T245 -56Q279 -56 305 -76T331 -132Q331 -155 321 -172T294 -200T256 -217T215 -223Q160 -223 112 -199L129 -161Q146 -168 163 -172T198 -176Q218 -176 236 -167T255 -135Q255 -115 242 -107T207 -98Q197 -98 188 -100T169 -106L148 -88L204 -11Q149 -8 116 10T65 60T42 135T36 230Q36 289 41 341T67 432T126 493T232 516Q282 516 316 506T372 475T402 418T412 333H294Q294 350 293 368T285 401T267 425T232 435Q202 435 187 418T166 375T160 317T160 256Q160 223 160 190T166 129T186 86T229 69Q252 69 265 79T286 105T295 140T297 178H415H415Z"  />
<glyph unicode="&#xE8;" horiz-adv-x="439" d="M159 238V193Q159 128 173 99T223 69Q243 69 255 77T274 100T283 131T285 167H403Q399 73 357 31T223 -12Q157 -12 120 8T64 64T41 147T36 247Q36 299 42 347T68 433T126 493T230 516Q296 516 331 493T383 432T403 343T406 238H159ZM284 307Q284 324 284 341T281 376Q277 402 266 418T225 435Q195 435 182 417T163 369Q161 354 160 340T159 307H284ZM216 583L75 726H198L292 583H216Z"  />
<glyph unicode="&#xE9;" horiz-adv-x="439" d="M159 238V193Q159 128 173 99T223 69Q243 69 255 77T274 100T283 131T285 167H403Q399 73 357 31T223 -12Q157 -12 120 8T64 64T41 147T36 247Q36 299 42 347T68 433T126 493T230 516Q296 516 331 493T383 432T403 343T406 238H159ZM284 307Q284 324 284 341T281 376Q277 402 266 418T225 435Q195 435 182 417T163 369Q161 354 160 340T159 307H284ZM232 583H157L250 726H373L232 583Z"  />
<glyph unicode="&#xEA;" horiz-adv-x="439" d="M159 238V193Q159 128 173 99T223 69Q243 69 255 77T274 100T283 131T285 167H403Q399 73 357 31T223 -12Q157 -12 120 8T64 64T41 147T36 247Q36 299 42 347T68 433T126 493T230 516Q296 516 331 493T383 432T403 343T406 238H159ZM284 307Q284 324 284 341T281 376Q277 402 266 418T225 435Q195 435 182 417T163 369Q161 354 160 340T159 307H284ZM301 583L224 670L147 583H68L172 726H276L380 583H301Z"  />
<glyph unicode="&#xEB;" horiz-adv-x="439" d="M159 238V193Q159 128 173 99T223 69Q243 69 255 77T274 100T283 131T285 167H403Q399 73 357 31T223 -12Q157 -12 120 8T64 64T41 147T36 247Q36 299 42 347T68 433T126 493T230 516Q296 516 331 493T383 432T403 343T406 238H159ZM284 307Q284 324 284 341T281 376Q277 402 266 418T225 435Q195 435 182 417T163 369Q161 354 160 340T159 307H284ZM258 605V713H360V605H258ZM88 605V713H190V605H88Z"  />
<glyph unicode="&#xEC;" horiz-adv-x="234" d="M55 0V504H179V0H55ZM109 583L-32 726H91L185 583H109Z"  />
<glyph unicode="&#xED;" horiz-adv-x="234" d="M55 0V504H179V0H55ZM125 583H50L143 726H266L125 583Z"  />
<glyph unicode="&#xEE;" horiz-adv-x="234" d="M55 0V504H179V0H55ZM194 583L117 670L40 583H-39L65 726H169L273 583H194Z"  />
<glyph unicode="&#xEF;" horiz-adv-x="234" d="M55 0V504H179V0H55ZM151 605V713H253V605H151ZM-19 605V713H83V605H-19Z"  />
<glyph unicode="&#xF0;" horiz-adv-x="458" d="M422 279Q422 222 419 170T397 77T341 12T231 -12Q168 -12 130 4T70 53T43 131T36 236Q36 284 40 332T61 419T114 482T211 507Q245 507 268 494T309 456Q302 481 293 501T271 539T242 573T207 606L117 550L72 589L155 642Q135 652 116 660T76 677L147 756Q175 746 200 733T251 704L333 756L379 715L299 665Q342 622 367 578T404 487T419 389T422 279ZM296 273Q296 309 295 337T288 386T269 417T232 428Q208 428 194 417T173 385T163 337T161 274V183Q161 160 163 140T173 104T193 79T230 69Q254 69 267 80T286 107T294 144T296 183V273Z"  />
<glyph unicode="&#xF1;" horiz-adv-x="484" d="M306 0V338Q306 357 305 374T299 405T282 427T249 435Q231 435 218 426T197 402T184 368T179 329V0H55V422Q55 443 55 463T51 504H176L177 448Q197 477 226 496T301 516Q339 516 364 506T403 477T424 429T430 362V0H306ZM414 709Q411 688 404 669T385 633T354 608T313 598Q293 598 275 604T240 616T205 629T168 635Q149 635 139 622T125 591H72Q75 613 83 633T104 668T135 693T178 703Q197 703 214 697T249 684T283 670T315 664Q336 664 346 677T361 709H414Z"  />
<glyph unicode="&#xF2;" horiz-adv-x="458" d="M439 267Q439 205 434 154T409 66T351 9T247 -12Q179 -12 141 7T83 62T58 145T53 251Q53 304 59 352T85 436T145 494T250 516Q315 516 353 498T410 447T434 368T439 267ZM313 302Q313 326 312 350T305 393T286 423T248 435Q222 435 208 421T187 387T179 343T178 300V200Q178 181 178 158T185 116T206 83T247 69Q272 69 285 81T305 112T312 153T313 194V302ZM222 583L81 726H204L298 583H222Z"  />
<glyph unicode="&#xF3;" horiz-adv-x="458" d="M439 267Q439 205 434 154T409 66T351 9T247 -12Q179 -12 141 7T83 62T58 145T53 251Q53 304 59 352T85 436T145 494T250 516Q315 516 353 498T410 447T434 368T439 267ZM313 302Q313 326 312 350T305 393T286 423T248 435Q222 435 208 421T187 387T179 343T178 300V200Q178 181 178 158T185 116T206 83T247 69Q272 69 285 81T305 112T312 153T313 194V302ZM238 583H163L256 726H379L238 583Z"  />
<glyph unicode="&#xF4;" horiz-adv-x="458" d="M439 267Q439 205 434 154T409 66T351 9T247 -12Q179 -12 141 7T83 62T58 145T53 251Q53 304 59 352T85 436T145 494T250 516Q315 516 353 498T410 447T434 368T439 267ZM313 302Q313 326 312 350T305 393T286 423T248 435Q222 435 208 421T187 387T179 343T178 300V200Q178 181 178 158T185 116T206 83T247 69Q272 69 285 81T305 112T312 153T313 194V302ZM307 583L230 670L153 583H74L178 726H282L386 583H307Z"  />
<glyph unicode="&#xF5;" horiz-adv-x="458" d="M439 267Q439 205 434 154T409 66T351 9T247 -12Q179 -12 141 7T83 62T58 145T53 251Q53 304 59 352T85 436T145 494T250 516Q315 516 353 498T410 447T434 368T439 267ZM313 302Q313 326 312 350T305 393T286 423T248 435Q222 435 208 421T187 387T179 343T178 300V200Q178 181 178 158T185 116T206 83T247 69Q272 69 285 81T305 112T312 153T313 194V302ZM401 709Q398 688 391 669T372 633T341 608T300 598Q280 598 262 604T227 616T192 629T155 635Q136 635 126 622T112 591H59Q62 613 70 633T91 668T122 693T165 703Q184 703 201 697T236 684T270 670T302 664Q323 664 333 677T348 709H401Z"  />
<glyph unicode="&#xF6;" horiz-adv-x="458" d="M439 267Q439 205 434 154T409 66T351 9T247 -12Q179 -12 141 7T83 62T58 145T53 251Q53 304 59 352T85 436T145 494T250 516Q315 516 353 498T410 447T434 368T439 267ZM313 302Q313 326 312 350T305 393T286 423T248 435Q222 435 208 421T187 387T179 343T178 300V200Q178 181 178 158T185 116T206 83T247 69Q272 69 285 81T305 112T312 153T313 194V302ZM264 605V713H366V605H264ZM94 605V713H196V605H94Z"  />
<glyph unicode="&#xF7;" horiz-adv-x="559" d="M223 399V524H337V399H223ZM36 215V320H523V215H36ZM223 11V136H337V11H223Z"  />
<glyph unicode="&#xF8;" horiz-adv-x="458" d="M422 267Q422 205 417 154T392 66T334 9T230 -12Q182 -12 149 -2T94 27L40 -46L-1 -14L61 69Q44 104 40 150T36 251Q36 304 42 352T68 436T128 494T233 516Q281 516 314 506T368 478L425 550L465 519L399 435Q414 403 418 361T422 267ZM166 124Q172 101 186 85T230 69Q255 69 268 81T288 112T295 153T296 194V297L166 124ZM292 377Q287 402 274 418T231 435Q205 435 191 421T170 387T162 343T161 300V202L292 377Z"  />
<glyph unicode="&#xF9;" horiz-adv-x="484" d="M306 0L305 54Q263 -10 185 -10Q116 -10 85 25T54 132V504H178V167Q178 151 179 134T185 103T203 79T236 70Q256 70 269 80T290 107T301 141T304 177V504H428V83Q428 59 429 41T432 0H306ZM234 583L93 726H216L310 583H234Z"  />
<glyph unicode="&#xFA;" horiz-adv-x="484" d="M306 0L305 54Q263 -10 185 -10Q116 -10 85 25T54 132V504H178V167Q178 151 179 134T185 103T203 79T236 70Q256 70 269 80T290 107T301 141T304 177V504H428V83Q428 59 429 41T432 0H306ZM250 583H175L268 726H391L250 583Z"  />
<glyph unicode="&#xFB;" horiz-adv-x="484" d="M306 0L305 54Q263 -10 185 -10Q116 -10 85 25T54 132V504H178V167Q178 151 179 134T185 103T203 79T236 70Q256 70 269 80T290 107T301 141T304 177V504H428V83Q428 59 429 41T432 0H306ZM319 583L242 670L165 583H86L190 726H294L398 583H319Z"  />
<glyph unicode="&#xFC;" horiz-adv-x="484" d="M306 0L305 54Q263 -10 185 -10Q116 -10 85 25T54 132V504H178V167Q178 151 179 134T185 103T203 79T236 70Q256 70 269 80T290 107T301 141T304 177V504H428V83Q428 59 429 41T432 0H306ZM276 605V713H378V605H276ZM106 605V713H208V605H106Z"  />
<glyph unicode="&#xFD;" horiz-adv-x="425" d="M213 -192H95L156 0L6 504H139L220 148L299 504H421L213 -192ZM226 583H151L244 726H367L226 583Z"  />
<glyph unicode="&#xFE;" horiz-adv-x="472" d="M436 256Q436 203 432 155T413 70T369 12T290 -10Q254 -10 226 2T179 44V-192H55V723H179V457Q198 486 231 501T300 516Q349 516 376 496T417 441T433 359T436 256ZM311 261Q311 297 310 328T302 384T282 422T247 436Q222 436 208 419T187 375T179 313T177 245Q177 210 179 179T189 123T210 85T247 70Q269 70 282 89T301 137T309 199T311 261Z"  />
<glyph unicode="&#xFF;" horiz-adv-x="425" d="M213 -192H95L156 0L6 504H139L220 148L299 504H421L213 -192ZM252 605V713H354V605H252ZM82 605V713H184V605H82Z"  />
<glyph unicode="&#x100;" horiz-adv-x="571" d="M435 0L392 166H174L131 0H-1L201 723H374L572 0H435ZM283 616L201 264H365L283 616ZM142 808V869H422V808H142Z"  />
<glyph unicode="&#x101;" horiz-adv-x="444" d="M280 0L278 57Q236 -10 152 -10Q117 -10 94 2T56 34T35 82T28 141Q28 202 47 237T100 290T177 312T272 317V343Q272 361 271 378T265 408T250 430T220 439Q188 439 176 420T163 372V364H41V373Q41 416 56 443T98 487T157 509T226 516Q273 516 304 506T355 475T383 422T392 344V168Q392 126 393 84T400 0H280ZM272 243H250Q200 243 176 222T152 150Q152 136 154 122T162 97T178 79T205 71Q227 71 240 83T260 112T269 150T272 186V243ZM80 624V685H360V624H80Z"  />
<glyph unicode="&#x102;" horiz-adv-x="571" d="M435 0L392 166H174L131 0H-1L201 723H374L572 0H435ZM283 616L201 264H365L283 616ZM439 919Q431 850 389 815T277 780Q209 780 170 816T125 919H179Q187 878 216 861T284 843Q324 843 351 860T386 919H439Z"  />
<glyph unicode="&#x103;" horiz-adv-x="444" d="M280 0L278 57Q236 -10 152 -10Q117 -10 94 2T56 34T35 82T28 141Q28 202 47 237T100 290T177 312T272 317V343Q272 361 271 378T265 408T250 430T220 439Q188 439 176 420T163 372V364H41V373Q41 416 56 443T98 487T157 509T226 516Q273 516 304 506T355 475T383 422T392 344V168Q392 126 393 84T400 0H280ZM272 243H250Q200 243 176 222T152 150Q152 136 154 122T162 97T178 79T205 71Q227 71 240 83T260 112T269 150T272 186V243ZM377 725Q369 656 327 621T215 586Q147 586 108 622T63 725H117Q125 684 154 667T222 649Q262 649 289 666T324 725H377Z"  />
<glyph unicode="&#x104;" horiz-adv-x="571" d="M586 -179Q566 -193 546 -199T502 -206Q469 -206 444 -190T418 -137Q418 -114 427 -94T450 -57T483 -26T518 0H435L392 166H174L131 0H-1L201 723H374L572 0Q537 -25 514 -48T490 -104Q490 -127 505 -138T541 -150Q563 -150 585 -139L586 -179ZM283 616L201 264H365L283 616Z"  />
<glyph unicode="&#x105;" horiz-adv-x="444" d="M414 -179Q394 -193 374 -199T330 -206Q297 -206 272 -190T246 -137Q246 -114 255 -94T278 -57T311 -26T346 0H280L278 57Q236 -10 152 -10Q117 -10 94 2T56 34T35 82T28 141Q28 202 47 237T100 290T177 312T272 317V343Q272 358 272 374T267 405T251 429T220 439Q188 439 176 420T163 372V364H41V373Q41 416 56 443T98 487T157 509T226 516Q273 516 304 506T355 475T383 422T392 344V168Q392 126 393 84T400 0Q365 -25 342 -48T318 -104Q318 -127 333 -138T369 -150Q391 -150 413 -139L414 -179ZM272 243H250Q200 243 176 222T152 150Q152 136 154 122T162 97T178 79T205 71Q227 71 240 83T260 112T269 150T272 186V243Z"  />
<glyph unicode="&#x106;" horiz-adv-x="534" d="M507 216Q507 95 452 41T282 -14Q198 -14 151 12T80 87T51 206T45 363Q45 444 50 512T80 631T152 709T287 737Q401 737 451 685T501 521V505H370V518Q370 538 368 559T356 598T330 627T284 639Q248 639 227 621T196 568T183 485T180 374Q180 296 183 241T196 151T226 100T280 84Q313 84 331 96T359 128T371 172T374 221V238H507V216ZM292 777H217L310 920H433L292 777Z"  />
<glyph unicode="&#x107;" horiz-adv-x="434" d="M415 178Q415 147 410 114T386 52T330 6T229 -12Q166 -12 128 5T70 54T43 130T36 230Q36 289 41 341T67 432T126 493T232 516Q282 516 316 506T372 475T402 418T412 333H294Q294 350 293 368T285 401T267 425T232 435Q202 435 187 418T166 375T160 317T160 256Q160 223 160 190T166 129T186 86T229 69Q252 69 265 79T286 105T295 140T297 178H415ZM238 583H163L256 726H379L238 583Z"  />
<glyph unicode="&#x108;" horiz-adv-x="534" d="M507 216Q507 95 452 41T282 -14Q198 -14 151 12T80 87T51 206T45 363Q45 444 50 512T80 631T152 709T287 737Q401 737 451 685T501 521V505H370V518Q370 538 368 559T356 598T330 627T284 639Q248 639 227 621T196 568T183 485T180 374Q180 296 183 241T196 151T226 100T280 84Q313 84 331 96T359 128T371 172T374 221V238H507V216ZM361 777L284 864L207 777H128L232 920H336L440 777H361Z"  />
<glyph unicode="&#x109;" horiz-adv-x="434" d="M415 178Q415 147 410 114T386 52T330 6T229 -12Q166 -12 128 5T70 54T43 130T36 230Q36 289 41 341T67 432T126 493T232 516Q282 516 316 506T372 475T402 418T412 333H294Q294 350 293 368T285 401T267 425T232 435Q202 435 187 418T166 375T160 317T160 256Q160 223 160 190T166 129T186 86T229 69Q252 69 265 79T286 105T295 140T297 178H415ZM307 583L230 670L153 583H74L178 726H282L386 583H307Z"  />
<glyph unicode="&#x10A;" horiz-adv-x="534" d="M507 216Q507 95 452 41T282 -14Q198 -14 151 12T80 87T51 206T45 363Q45 444 50 512T80 631T152 709T287 737Q401 737 451 685T501 521V505H370V518Q370 538 368 559T356 598T330 627T284 639Q248 639 227 621T196 568T183 485T180 374Q180 296 183 241T196 151T226 100T280 84Q313 84 331 96T359 128T371 172T374 221V238H507V216ZM233 789V897H335V789H233Z"  />
<glyph unicode="&#x10B;" horiz-adv-x="434" d="M415 178Q415 147 410 114T386 52T330 6T229 -12Q166 -12 128 5T70 54T43 130T36 230Q36 289 41 341T67 432T126 493T232 516Q282 516 316 506T372 475T402 418T412 333H294Q294 350 293 368T285 401T267 425T232 435Q202 435 187 418T166 375T160 317T160 256Q160 223 160 190T166 129T186 86T229 69Q252 69 265 79T286 105T295 140T297 178H415ZM179 605V713H281V605H179Z"  />
<glyph unicode="&#x10C;" horiz-adv-x="534" d="M507 216Q507 95 452 41T282 -14Q198 -14 151 12T80 87T51 206T45 363Q45 444 50 512T80 631T152 709T287 737Q401 737 451 685T501 521V505H370V518Q370 538 368 559T356 598T330 627T284 639Q248 639 227 621T196 568T183 485T180 374Q180 296 183 241T196 151T226 100T280 84Q313 84 331 96T359 128T371 172T374 221V238H507V216ZM336 777H232L128 920H207L284 833L361 920H440L336 777Z"  />
<glyph unicode="&#x10D;" horiz-adv-x="434" d="M415 178Q415 147 410 114T386 52T330 6T229 -12Q166 -12 128 5T70 54T43 130T36 230Q36 289 41 341T67 432T126 493T232 516Q282 516 316 506T372 475T402 418T412 333H294Q294 350 293 368T285 401T267 425T232 435Q202 435 187 418T166 375T160 317T160 256Q160 223 160 190T166 129T186 86T229 69Q252 69 265 79T286 105T295 140T297 178H415ZM282 583H178L74 726H153L230 639L307 726H386L282 583Z"  />
<glyph unicode="&#x10E;" horiz-adv-x="585" d="M540 380Q540 296 536 226T506 106T428 28T278 0H71V723H276Q367 723 419 701T499 635T533 527T540 380ZM403 353Q403 417 401 467T385 553T344 606T263 625H205V98H266Q315 98 342 117T383 171T400 251T403 353ZM353 777H249L145 920H224L301 833L378 920H457L353 777Z"  />
<glyph unicode="&#x10F;" horiz-adv-x="472" d="M301 0L300 54Q259 -10 182 -10Q132 -10 103 12T59 70T40 152T36 248Q36 303 40 352T58 437T100 495T175 516Q213 516 241 503T293 457V723H417V92Q417 90 417 76T418 46T419 16T420 0H301ZM294 246Q294 280 293 314T284 375T264 419T226 436Q204 436 191 422T172 382T163 321T161 245Q161 217 163 186T171 129T191 86T227 69Q251 69 264 85T284 126T292 183T294 246ZM557 536H472L495 723H609L557 536Z"  />
<glyph unicode="&#x110;" horiz-adv-x="585" d="M540 380Q540 296 536 226T506 106T428 28T278 0H71V361H4V436H71V723H276Q367 723 419 701T499 635T533 527T540 380ZM403 353Q403 417 401 467T385 553T344 606T263 625H205V436H315V361H205V98H266Q315 98 342 117T383 171T400 251T403 353Z"  />
<glyph unicode="&#x111;" horiz-adv-x="472" d="M301 0L300 54Q259 -10 182 -10Q132 -10 103 12T59 70T40 152T36 248Q36 303 40 352T58 437T100 495T175 516Q213 516 241 503T293 457V579H112V660H293V723H417V660H472V579H417V92Q417 90 417 76T418 46T419 16T420 0H301ZM294 246Q294 280 293 314T284 375T264 419T226 436Q204 436 191 422T172 382T163 321T161 245Q161 217 163 186T171 129T191 86T227 69Q251 69 264 85T284 126T292 183T294 246Z"  />
<glyph unicode="&#x112;" horiz-adv-x="486" d="M71 0V723H449V623H204V426H431V328H204V100H457V0H71ZM131 808V869H411V808H131Z"  />
<glyph unicode="&#x113;" horiz-adv-x="439" d="M159 238V193Q159 128 173 99T223 69Q243 69 255 77T274 100T283 131T285 167H403Q399 73 357 31T223 -12Q157 -12 120 8T64 64T41 147T36 247Q36 299 42 347T68 433T126 493T230 516Q296 516 331 493T383 432T403 343T406 238H159ZM284 307Q284 324 284 341T281 376Q277 402 266 418T225 435Q195 435 182 417T163 369Q161 354 160 340T159 307H284ZM84 624V685H364V624H84Z"  />
<glyph unicode="&#x114;" horiz-adv-x="486" d="M71 0V723H449V623H204V426H431V328H204V100H457V0H71ZM428 919Q420 850 378 815T266 780Q198 780 159 816T114 919H168Q176 878 205 861T273 843Q313 843 340 860T375 919H428Z"  />
<glyph unicode="&#x115;" horiz-adv-x="439" d="M159 238V193Q159 128 173 99T223 69Q243 69 255 77T274 100T283 131T285 167H403Q399 73 357 31T223 -12Q157 -12 120 8T64 64T41 147T36 247Q36 299 42 347T68 433T126 493T230 516Q296 516 331 493T383 432T403 343T406 238H159ZM284 307Q284 324 284 341T281 376Q277 402 266 418T225 435Q195 435 182 417T163 369Q161 354 160 340T159 307H284ZM381 725Q373 656 331 621T219 586Q151 586 112 622T67 725H121Q129 684 158 667T226 649Q266 649 293 666T328 725H381Z"  />
<glyph unicode="&#x116;" horiz-adv-x="486" d="M71 0V723H449V623H204V426H431V328H204V100H457V0H71ZM220 789V897H322V789H220Z"  />
<glyph unicode="&#x117;" horiz-adv-x="439" d="M159 238V193Q159 128 173 99T223 69Q243 69 255 77T274 100T283 131T285 167H403Q399 73 357 31T223 -12Q157 -12 120 8T64 64T41 147T36 247Q36 299 42 347T68 433T126 493T230 516Q296 516 331 493T383 432T403 343T406 238H159ZM284 307Q284 324 284 341T281 376Q277 402 266 418T225 435Q195 435 182 417T163 369Q161 354 160 340T159 307H284ZM173 605V713H275V605H173Z"  />
<glyph unicode="&#x118;" horiz-adv-x="486" d="M471 -179Q451 -193 431 -199T387 -206Q354 -206 329 -190T303 -137Q303 -114 312 -94T335 -57T368 -26T403 0H71V723H449V623H204V426H431V328H204V100H457V0Q422 -25 399 -48T375 -104Q375 -127 390 -138T426 -150Q448 -150 470 -139L471 -179H471Z"  />
<glyph unicode="&#x119;" horiz-adv-x="439" d="M306 -179Q286 -193 266 -199T222 -206Q189 -206 164 -190T138 -137Q138 -96 163 -66T220 -12Q155 -12 118 9T63 65T41 147T36 247Q36 299 42 347T68 433T126 493T230 516Q296 516 331 493T383 432T403 343T406 238H159V193Q159 128 173 99T223 69Q243 69 255 77T274 100T283 131T285 167H403Q400 90 371 48T282 -6Q250 -29 230 -51T210 -104Q210 -127 225 -138T261 -150Q283 -150 305 -139L306 -179ZM284 307Q284 324 284 341T281 376Q277 402 266 418T225 435Q195 435 182 417T163 369Q161 354 160 340T159 307H284Z"  />
<glyph unicode="&#x11A;" horiz-adv-x="486" d="M71 0V723H449V623H204V426H431V328H204V100H457V0H71ZM323 777H219L115 920H194L271 833L348 920H427L323 777Z"  />
<glyph unicode="&#x11B;" horiz-adv-x="439" d="M159 238V193Q159 128 173 99T223 69Q243 69 255 77T274 100T283 131T285 167H403Q399 73 357 31T223 -12Q157 -12 120 8T64 64T41 147T36 247Q36 299 42 347T68 433T126 493T230 516Q296 516 331 493T383 432T403 343T406 238H159ZM284 307Q284 324 284 341T281 376Q277 402 266 418T225 435Q195 435 182 417T163 369Q161 354 160 340T159 307H284ZM276 583H172L68 726H147L224 639L301 726H380L276 583Z"  />
<glyph unicode="&#x11C;" horiz-adv-x="561" d="M384 509V521Q384 545 380 566T366 604T337 629T291 639Q252 639 230 621T197 569T183 490T180 387Q180 299 184 241T200 148T235 99T293 84Q315 84 339 88T384 100V284H289V382H516V20Q465 5 408 -4T296 -14Q204 -14 154 13T79 90T50 210T45 368Q45 445 49 512T78 629T151 708T291 737Q406 737 462 686T518 520V509H384ZM368 777L291 864L214 777H135L239 920H343L447 777H368Z"  />
<glyph unicode="&#x11D;" horiz-adv-x="477" d="M425 504Q424 489 424 466T423 423V-22Q423 -74 409 -107T369 -160T306 -187T221 -195Q179 -195 147 -188T92 -164T59 -118T47 -45H179Q179 -59 181 -72T188 -97T204 -116T232 -123Q270 -123 283 -97T296 -16V63Q272 32 246 20T182 7Q132 7 103 29T59 84T40 159T36 240Q36 290 38 339T55 428T97 491T179 516Q219 516 250 499T300 446V504H425ZM298 245Q298 278 297 312T288 373T267 418T229 435Q206 435 193 422T172 383T164 322T162 241Q162 212 164 184T174 133T194 96T229 82Q254 82 268 99T288 142T296 196T298 245ZM316 583L239 670L162 583H83L187 726H291L395 583H316Z"  />
<glyph unicode="&#x11E;" horiz-adv-x="561" d="M384 509V521Q384 545 380 566T366 604T337 629T291 639Q252 639 230 621T197 569T183 490T180 387Q180 299 184 241T200 148T235 99T293 84Q315 84 339 88T384 100V284H289V382H516V20Q465 5 408 -4T296 -14Q204 -14 154 13T79 90T50 210T45 368Q45 445 49 512T78 629T151 708T291 737Q406 737 462 686T518 520V509H384ZM448 919Q440 850 398 815T286 780Q218 780 179 816T134 919H188Q196 878 225 861T293 843Q333 843 360 860T395 919H448Z"  />
<glyph unicode="&#x11F;" horiz-adv-x="477" d="M425 504Q424 489 424 466T423 423V-22Q423 -74 409 -107T369 -160T306 -187T221 -195Q179 -195 147 -188T92 -164T59 -118T47 -45H179Q179 -59 181 -72T188 -97T204 -116T232 -123Q270 -123 283 -97T296 -16V63Q272 32 246 20T182 7Q132 7 103 29T59 84T40 159T36 240Q36 290 38 339T55 428T97 491T179 516Q219 516 250 499T300 446V504H425ZM298 245Q298 278 297 312T288 373T267 418T229 435Q206 435 193 422T172 383T164 322T162 241Q162 212 164 184T174 133T194 96T229 82Q254 82 268 99T288 142T296 196T298 245ZM396 725Q388 656 346 621T234 586Q166 586 127 622T82 725H136Q144 684 173 667T241 649Q281 649 308 666T343 725H396Z"  />
<glyph unicode="&#x120;" horiz-adv-x="561" d="M384 509V521Q384 545 380 566T366 604T337 629T291 639Q252 639 230 621T197 569T183 490T180 387Q180 299 184 241T200 148T235 99T293 84Q315 84 339 88T384 100V284H289V382H516V20Q465 5 408 -4T296 -14Q204 -14 154 13T79 90T50 210T45 368Q45 445 49 512T78 629T151 708T291 737Q406 737 462 686T518 520V509H384ZM240 789V897H342V789H240Z"  />
<glyph unicode="&#x121;" horiz-adv-x="477" d="M425 504Q424 489 424 466T423 423V-22Q423 -74 409 -107T369 -160T306 -187T221 -195Q179 -195 147 -188T92 -164T59 -118T47 -45H179Q179 -59 181 -72T188 -97T204 -116T232 -123Q270 -123 283 -97T296 -16V63Q272 32 246 20T182 7Q132 7 103 29T59 84T40 159T36 240Q36 290 38 339T55 428T97 491T179 516Q219 516 250 499T300 446V504H425ZM298 245Q298 278 297 312T288 373T267 418T229 435Q206 435 193 422T172 383T164 322T162 241Q162 212 164 184T174 133T194 96T229 82Q254 82 268 99T288 142T296 196T298 245ZM188 605V713H290V605H188Z"  />
<glyph unicode="&#x122;" horiz-adv-x="561" d="M384 509V521Q384 545 380 566T366 604T337 629T291 639Q252 639 230 621T197 569T183 490T180 387Q180 299 184 241T200 148T235 99T293 84Q315 84 339 88T384 100V284H289V382H516V20Q465 5 408 -4T296 -14Q204 -14 154 13T79 90T50 210T45 368Q45 445 49 512T78 629T151 708T291 737Q406 737 462 686T518 520V509H384ZM296 -213H211L245 -54H351L296 -213Z"  />
<glyph unicode="&#x123;" horiz-adv-x="477" d="M425 504Q424 489 424 466T423 423V-22Q423 -74 409 -107T369 -160T306 -187T221 -195Q179 -195 147 -188T92 -164T59 -118T47 -45H179Q179 -59 181 -72T188 -97T204 -116T232 -123Q270 -123 283 -97T296 -16V63Q272 32 246 20T182 7Q132 7 103 29T59 84T40 159T36 240Q36 290 38 339T55 428T97 491T179 516Q219 516 250 499T300 446V504H425ZM298 245Q298 278 297 312T288 373T267 418T229 435Q206 435 193 422T172 383T164 322T162 241Q162 212 164 184T174 133T194 96T229 82Q254 82 268 99T288 142T296 196T298 245ZM241 726H326L291 583H189L241 726Z"  />
<glyph unicode="&#x124;" horiz-adv-x="600" d="M395 0V327H205V0H71V723H205V425H395V723H529V0H395ZM378 777L301 864L224 777H145L249 920H353L457 777H378Z"  />
<glyph unicode="&#x125;" horiz-adv-x="484" d="M306 0V337Q306 358 305 376T297 407T280 427T248 435Q229 435 216 425T195 399T183 364T179 325V0H55V723H179V451Q202 483 232 499T303 516Q375 516 402 477T430 362V0H306ZM192 777L115 864L38 777H-41L63 920H167L271 777H192Z"  />
<glyph unicode="&#x126;" horiz-adv-x="600" d="M205 584H395V723H529V0H395V327H205V0H71V723H205V584ZM205 486V425H395V486H205Z"  />
<glyph unicode="&#x127;" horiz-adv-x="484" d="M306 0V337Q306 358 305 376T297 407T280 427T248 435Q229 435 216 425T195 399T183 364T179 325V0H55V579H0V660H55V723H179V660H360V579H179V451Q202 483 232 499T303 516Q375 516 402 477T430 362V0H306Z"  />
<glyph unicode="&#x128;" horiz-adv-x="276" d="M71 0V723H205V0H71ZM308 903Q305 882 298 863T279 827T248 802T207 792Q187 792 169 798T134 810T99 823T62 829Q43 829 33 816T19 785H-34Q-31 807 -23 827T-2 862T29 887T72 897Q91 897 108 891T143 878T177 864T209 858Q230 858 240 871T255 903H308Z"  />
<glyph unicode="&#x129;" horiz-adv-x="234" d="M55 0V504H179V0H55ZM288 709Q285 688 278 669T259 633T228 608T187 598Q167 598 149 604T114 616T79 629T42 635Q23 635 13 622T-1 591H-54Q-51 613 -43 633T-22 668T9 693T52 703Q71 703 88 697T123 684T157 670T189 664Q210 664 220 677T235 709H288Z"  />
<glyph unicode="&#x12A;" horiz-adv-x="276" d="M71 0V723H205V0H71ZM-3 808V869H277V808H-3Z"  />
<glyph unicode="&#x12B;" horiz-adv-x="234" d="M55 0V504H179V0H55ZM-23 624V685H257V624H-23Z"  />
<glyph unicode="&#x12C;" horiz-adv-x="276" d="M71 0V723H205V0H71ZM295 919Q287 850 245 815T133 780Q65 780 26 816T-19 919H35Q43 878 72 861T140 843Q180 843 207 860T242 919H295Z"  />
<glyph unicode="&#x12D;" horiz-adv-x="234" d="M55 0V504H179V0H55ZM274 725Q266 656 224 621T112 586Q44 586 5 622T-40 725H14Q22 684 51 667T119 649Q159 649 186 666T221 725H274Z"  />
<glyph unicode="&#x12E;" horiz-adv-x="276" d="M219 -179Q199 -193 179 -199T135 -206Q102 -206 77 -190T51 -137Q51 -114 60 -94T83 -57T116 -26T151 0H71V723H205V0Q170 -25 147 -48T123 -104Q123 -127 138 -138T174 -150Q196 -150 218 -139L219 -179H219Z"  />
<glyph unicode="&#x12F;" horiz-adv-x="234" d="M193 -179Q173 -193 153 -199T109 -206Q76 -206 51 -190T25 -137Q25 -114 34 -94T57 -57T90 -26T125 0H55V504H179V0Q144 -25 121 -48T97 -104Q97 -127 112 -138T148 -150Q170 -150 192 -139L193 -179ZM55 608V715H179V608H55Z"  />
<glyph unicode="&#x130;" horiz-adv-x="276" d="M71 0V723H205V0H71ZM86 789V897H188V789H86Z"  />
<glyph unicode="&#x131;" horiz-adv-x="234" d="M55 0V504H179V0H55Z"  />
<glyph unicode="&#x132;" horiz-adv-x="765" d="M71 0V723H205V0H71ZM700 216Q700 154 689 111T652 40T586 -1T488 -14Q431 -14 393 0T333 42T301 110T291 203V235H425V219Q425 194 426 170T434 127T455 97T495 85Q523 85 537 98T558 131T565 176T566 222V723H700V216Z"  />
<glyph unicode="&#x133;" horiz-adv-x="468" d="M55 608V715H179V608H55ZM55 0V504H179V0H55ZM289 608V715H413V608H289ZM413 -51Q413 -87 408 -113T389 -158T351 -185T287 -194Q271 -194 256 -194T225 -193V-108Q245 -108 257 -107T277 -98T286 -79T289 -43V504H413V-51Z"  />
<glyph unicode="&#x134;" horiz-adv-x="489" d="M424 216Q424 154 413 111T376 40T310 -1T212 -14Q155 -14 117 0T57 42T25 110T15 203V235H149V219Q149 194 150 170T158 127T179 97T219 85Q247 85 261 98T282 131T289 176T290 222V723H424V216ZM432 777L355 864L278 777H199L303 920H407L511 777H432Z"  />
<glyph unicode="&#x135;" horiz-adv-x="234" d="M179 -51Q179 -87 174 -113T155 -158T117 -185T53 -194Q37 -194 22 -194T-9 -193V-108Q11 -108 23 -107T43 -98T52 -79T55 -43V504H179V-51ZM192 583L115 670L38 583H-41L63 726H167L271 583H192Z"  />
<glyph unicode="&#x136;" horiz-adv-x="543" d="M393 0L209 393L385 723H536L342 401L546 0H393ZM71 0V723H205V0H71ZM298 -213H213L247 -54H353L298 -213Z"  />
<glyph unicode="&#x137;" horiz-adv-x="444" d="M311 0L182 285L298 504H433L309 289L449 0H311ZM55 0V723H179V0H55ZM243 -213H158L192 -54H298L243 -213Z"  />
<glyph unicode="&#x138;" horiz-adv-x="444" d="M311 0L182 285L298 504H433L309 289L449 0H311ZM55 0V504H179V0H55Z"  />
<glyph unicode="&#x139;" horiz-adv-x="447" d="M71 0V723H205V100H430V0H71ZM150 777H75L168 920H291L150 777Z"  />
<glyph unicode="&#x13A;" horiz-adv-x="234" d="M55 0V723H179V0H55ZM123 767H48L141 910H264L123 767Z"  />
<glyph unicode="&#x13B;" horiz-adv-x="447" d="M71 0V723H205V100H430V0H71ZM253 -213H168L202 -54H308L253 -213Z"  />
<glyph unicode="&#x13C;" horiz-adv-x="234" d="M55 0V723H179V0H55ZM119 -213H34L68 -54H174L119 -213Z"  />
<glyph unicode="&#x13D;" horiz-adv-x="447" d="M71 0V723H205V100H430V0H71ZM352 536H267L290 723H404L352 536Z"  />
<glyph unicode="&#x13E;" horiz-adv-x="234" d="M55 0V723H179V0H55ZM319 536H234L257 723H371L319 536Z"  />
<glyph unicode="&#x13F;" horiz-adv-x="447" d="M71 0V723H205V100H430V0H71ZM280 324V432H382V324H280Z"  />
<glyph unicode="&#x140;" horiz-adv-x="234" d="M55 0V723H179V0H55ZM234 322V430H336V322H234Z"  />
<glyph unicode="&#x141;" horiz-adv-x="447" d="M71 0V302L7 262V350L71 390V723H205V462L321 532V445L205 372V100H430V0H71Z"  />
<glyph unicode="&#x142;" horiz-adv-x="234" d="M179 385V0H55V314L-14 268V340L55 385V723H179V456L248 500V429L179 385Z"  />
<glyph unicode="&#x143;" horiz-adv-x="633" d="M361 0L189 606V0H71V723H272L444 117V723H562V0H361ZM324 777H249L342 920H465L324 777Z"  />
<glyph unicode="&#x144;" horiz-adv-x="484" d="M306 0V338Q306 357 305 374T299 405T282 427T249 435Q231 435 218 426T197 402T184 368T179 329V0H55V422Q55 443 55 463T51 504H176L177 448Q197 477 226 496T301 516Q339 516 364 506T403 477T424 429T430 362V0H306ZM251 583H176L269 726H392L251 583Z"  />
<glyph unicode="&#x145;" horiz-adv-x="633" d="M361 0L189 606V0H71V723H272L444 117V723H562V0H361ZM320 -213H235L269 -54H375L320 -213Z"  />
<glyph unicode="&#x146;" horiz-adv-x="484" d="M306 0V338Q306 357 305 374T299 405T282 427T249 435Q231 435 218 426T197 402T184 368T179 329V0H55V422Q55 443 55 463T51 504H176L177 448Q197 477 226 496T301 516Q339 516 364 506T403 477T424 429T430 362V0H306ZM247 -213H162L196 -54H302L247 -213Z"  />
<glyph unicode="&#x147;" horiz-adv-x="633" d="M361 0L189 606V0H71V723H272L444 117V723H562V0H361ZM368 777H264L160 920H239L316 833L393 920H472L368 777Z"  />
<glyph unicode="&#x148;" horiz-adv-x="484" d="M306 0V338Q306 357 305 374T299 405T282 427T249 435Q231 435 218 426T197 402T184 368T179 329V0H55V422Q55 443 55 463T51 504H176L177 448Q197 477 226 496T301 516Q339 516 364 506T403 477T424 429T430 362V0H306ZM295 583H191L87 726H166L243 639L320 726H399L295 583Z"  />
<glyph unicode="&#x149;" horiz-adv-x="514" d="M336 0V338Q336 357 335 374T329 405T312 427T279 435Q261 435 248 426T227 402T214 368T209 329V0H85V422Q85 443 85 463T81 504H206L207 448Q227 477 256 496T331 516Q369 516 394 506T433 477T454 429T460 362V0H336ZM35 536H-50L-27 723H87L35 536Z"  />
<glyph unicode="&#x14A;" horiz-adv-x="623" d="M552 -41Q552 -122 517 -158T413 -194Q397 -194 383 -194T353 -193V-102Q361 -103 366 -103T376 -103Q405 -103 419 -90T434 -46V0L189 581V0H71V723H246L434 258V723H552V-41Z"  />
<glyph unicode="&#x14B;" horiz-adv-x="485" d="M430 -51Q430 -122 403 -158T301 -194Q285 -194 271 -194T241 -193V-107H264Q284 -107 295 -94T306 -50V338Q306 357 305 374T299 405T282 427T249 435Q231 435 218 426T197 402T184 368T179 329V0H55V422Q55 443 55 463T51 504H176L177 448Q197 477 226 496T301 516Q339 516 364 506T403 477T424 429T430 362V-51H430Z"  />
<glyph unicode="&#x14C;" horiz-adv-x="573" d="M528 352Q528 274 523 207T495 91T422 14T282 -14Q197 -14 150 13T79 89T50 205T45 351Q45 434 49 505T77 627T149 708T286 737Q376 737 425 709T497 631T524 509T528 352ZM391 371Q391 429 390 478T378 563T347 619T286 639Q246 639 225 618T193 560T182 474T180 366Q180 298 182 246T194 157T225 103T286 84Q325 84 346 103T377 159T389 249T391 371ZM147 808V869H427V808H147Z"  />
<glyph unicode="&#x14D;" horiz-adv-x="458" d="M439 267Q439 205 434 154T409 66T351 9T247 -12Q179 -12 141 7T83 62T58 145T53 251Q53 304 59 352T85 436T145 494T250 516Q315 516 353 498T410 447T434 368T439 267ZM313 302Q313 326 312 350T305 393T286 423T248 435Q222 435 208 421T187 387T179 343T178 300V200Q178 181 178 158T185 116T206 83T247 69Q272 69 285 81T305 112T312 153T313 194V302ZM90 624V685H370V624H90Z"  />
<glyph unicode="&#x14E;" horiz-adv-x="573" d="M528 352Q528 274 523 207T495 91T422 14T282 -14Q197 -14 150 13T79 89T50 205T45 351Q45 434 49 505T77 627T149 708T286 737Q376 737 425 709T497 631T524 509T528 352ZM391 371Q391 429 390 478T378 563T347 619T286 639Q246 639 225 618T193 560T182 474T180 366Q180 298 182 246T194 157T225 103T286 84Q325 84 346 103T377 159T389 249T391 371ZM444 919Q436 850 394 815T282 780Q214 780 175 816T130 919H184Q192 878 221 861T289 843Q329 843 356 860T391 919H444Z"  />
<glyph unicode="&#x14F;" horiz-adv-x="458" d="M439 267Q439 205 434 154T409 66T351 9T247 -12Q179 -12 141 7T83 62T58 145T53 251Q53 304 59 352T85 436T145 494T250 516Q315 516 353 498T410 447T434 368T439 267ZM313 302Q313 326 312 350T305 393T286 423T248 435Q222 435 208 421T187 387T179 343T178 300V200Q178 181 178 158T185 116T206 83T247 69Q272 69 285 81T305 112T312 153T313 194V302ZM387 725Q379 656 337 621T225 586Q157 586 118 622T73 725H127Q135 684 164 667T232 649Q272 649 299 666T334 725H387Z"  />
<glyph unicode="&#x150;" horiz-adv-x="573" d="M528 352Q528 274 523 207T495 91T422 14T282 -14Q197 -14 150 13T79 89T50 205T45 351Q45 434 49 505T77 627T149 708T286 737Q376 737 425 709T497 631T524 509T528 352ZM391 371Q391 429 390 478T378 563T347 619T286 639Q246 639 225 618T193 560T182 474T180 366Q180 298 182 246T194 157T225 103T286 84Q325 84 346 103T377 159T389 249T391 371ZM384 777H309L402 920H526L384 777ZM209 777H134L227 920H351L209 777Z"  />
<glyph unicode="&#x151;" horiz-adv-x="458" d="M439 267Q439 205 434 154T409 66T351 9T247 -12Q179 -12 141 7T83 62T58 145T53 251Q53 304 59 352T85 436T145 494T250 516Q315 516 353 498T410 447T434 368T439 267ZM313 302Q313 326 312 350T305 393T286 423T248 435Q222 435 208 421T187 387T179 343T178 300V200Q178 181 178 158T185 116T206 83T247 69Q272 69 285 81T305 112T312 153T313 194V302ZM327 583H252L345 726H469L327 583ZM152 583H77L170 726H294L152 583Z"  />
<glyph unicode="&#x152;" horiz-adv-x="788" d="M481 0Q478 0 465 0T434 0T394 0T354 -1T322 -1T306 -1Q270 -1 234 2T166 19Q122 38 98 73T62 150T48 240T45 333Q45 383 46 431T54 523T77 603T121 666T194 708T303 723Q307 723 336 723T398 723T461 722T494 722H751V622H512V427H734V327H512V100H759V0H481ZM380 625Q370 627 362 627T344 626Q284 626 250 611T200 563T181 483T177 368V275Q177 236 181 204T199 147T241 110T314 96Q331 96 347 97T380 98V625Z"  />
<glyph unicode="&#x153;" horiz-adv-x="734" d="M436 237V182Q436 164 438 144T447 107T469 79T507 68Q528 68 541 76T563 98T574 129T577 164H697Q697 159 696 158Q689 117 677 85T643 32T592 -1T519 -12Q466 -12 430 6T371 74Q349 27 310 8T221 -11Q154 -11 117 11T62 71T40 158T36 260Q36 314 41 361T67 443T124 498T227 518Q275 518 315 502T379 440Q399 483 437 500T520 518Q572 518 607 502T663 458T692 390T701 303V237H436ZM581 331Q581 350 579 369T570 403T548 428T510 438Q487 438 473 428T450 401T439 366T436 328V308H581V331ZM317 236Q317 277 316 313T308 377T285 421T237 437Q208 437 192 423T168 382T159 321T157 244Q157 214 158 183T167 127T191 85T235 69Q265 69 282 85T306 127T315 181T317 236Z"  />
<glyph unicode="&#x154;" horiz-adv-x="566" d="M378 0Q373 28 372 56T369 113Q369 158 366 205Q364 236 359 256T343 289T311 305T258 310H205V0H71V723H298Q345 723 385 717T453 690T498 633T514 536Q514 468 488 422T391 360Q426 357 447 346T481 314T497 259T503 180L506 96Q508 71 510 47T518 0H378ZM377 524Q377 581 350 603T269 625H205V408H257Q290 408 313 413T350 432T370 467T377 524ZM294 777H219L312 920H435L294 777Z"  />
<glyph unicode="&#x155;" horiz-adv-x="313" d="M306 402Q301 403 296 403T285 404Q224 404 201 372T178 282V0H54V413Q54 415 54 429T53 458T53 488T52 504H171L172 439Q193 481 224 497T300 513H306V402ZM176 583H101L194 726H317L176 583Z"  />
<glyph unicode="&#x156;" horiz-adv-x="566" d="M378 0Q373 28 372 56T369 113Q369 158 366 205Q364 236 359 256T343 289T311 305T258 310H205V0H71V723H298Q345 723 385 717T453 690T498 633T514 536Q514 468 488 422T391 360Q426 357 447 346T481 314T497 259T503 180L506 96Q508 71 510 47T518 0H378ZM377 524Q377 581 350 603T269 625H205V408H257Q290 408 313 413T350 432T370 467T377 524ZM290 -213H205L239 -54H345L290 -213Z"  />
<glyph unicode="&#x157;" horiz-adv-x="313" d="M306 402Q301 403 296 403T285 404Q224 404 201 372T178 282V0H54V413Q54 415 54 429T53 458T53 488T52 504H171L172 439Q193 481 224 497T300 513H306V402ZM119 -213H34L68 -54H174L119 -213Z"  />
<glyph unicode="&#x158;" horiz-adv-x="566" d="M378 0Q373 28 372 56T369 113Q369 158 366 205Q364 236 359 256T343 289T311 305T258 310H205V0H71V723H298Q345 723 385 717T453 690T498 633T514 536Q514 468 488 422T391 360Q426 357 447 346T481 314T497 259T503 180L506 96Q508 71 510 47T518 0H378ZM377 524Q377 581 350 603T269 625H205V408H257Q290 408 313 413T350 432T370 467T377 524ZM338 777H234L130 920H209L286 833L363 920H442L338 777Z"  />
<glyph unicode="&#x159;" horiz-adv-x="313" d="M306 402Q301 403 296 403T285 404Q224 404 201 372T178 282V0H54V413Q54 415 54 429T53 458T53 488T52 504H171L172 439Q193 481 224 497T300 513H306V402ZM220 583H116L12 726H91L168 639L245 726H324L220 583Z"  />
<glyph unicode="&#x15A;" horiz-adv-x="509" d="M480 186Q480 130 464 92T417 31T346 -3T254 -14Q192 -14 150 -2T81 37T43 106T31 210V218H167V209Q167 185 169 163T181 123T207 95T255 84Q299 84 322 107T345 175Q345 198 337 215T315 247T281 274T238 301L183 335Q153 354 127 373T82 415T52 470T41 543Q41 596 57 633T104 693T175 726T265 737Q314 737 352 728T417 696T457 639T471 552V524H338V542Q338 562 335 579T324 610T300 631T259 639Q219 639 198 616T176 554Q176 532 184 515T207 484T239 457T279 432L327 403Q362 382 390 362T439 318T469 263T480 186ZM266 777H191L284 920H407L266 777Z"  />
<glyph unicode="&#x15B;" horiz-adv-x="410" d="M385 146Q385 104 371 75T331 27T272 0T200 -9Q163 -9 132 -1T77 24T40 69T27 136V161H150V147Q150 132 152 118T160 94T177 77T206 70Q234 70 248 86T262 129Q262 145 258 156T245 177T222 194T187 213L152 231Q120 247 98 260T61 289T39 324T32 373Q32 411 46 438T85 482T141 508T210 516Q301 516 340 479T380 360H258V377Q258 406 247 425T205 444Q181 444 168 429T155 391Q155 363 173 348T227 315L262 297Q290 282 313 269T352 240T376 201T385 146ZM215 583H140L233 726H356L215 583Z"  />
<glyph unicode="&#x15C;" horiz-adv-x="509" d="M480 186Q480 130 464 92T417 31T346 -3T254 -14Q192 -14 150 -2T81 37T43 106T31 210V218H167V209Q167 185 169 163T181 123T207 95T255 84Q299 84 322 107T345 175Q345 198 337 215T315 247T281 274T238 301L183 335Q153 354 127 373T82 415T52 470T41 543Q41 596 57 633T104 693T175 726T265 737Q314 737 352 728T417 696T457 639T471 552V524H338V542Q338 562 335 579T324 610T300 631T259 639Q219 639 198 616T176 554Q176 532 184 515T207 484T239 457T279 432L327 403Q362 382 390 362T439 318T469 263T480 186ZM335 777L258 864L181 777H102L206 920H310L414 777H335Z"  />
<glyph unicode="&#x15D;" horiz-adv-x="410" d="M385 146Q385 104 371 75T331 27T272 0T200 -9Q163 -9 132 -1T77 24T40 69T27 136V161H150V147Q150 132 152 118T160 94T177 77T206 70Q234 70 248 86T262 129Q262 145 258 156T245 177T222 194T187 213L152 231Q120 247 98 260T61 289T39 324T32 373Q32 411 46 438T85 482T141 508T210 516Q301 516 340 479T380 360H258V377Q258 406 247 425T205 444Q181 444 168 429T155 391Q155 363 173 348T227 315L262 297Q290 282 313 269T352 240T376 201T385 146ZM284 583L207 670L130 583H51L155 726H259L363 583H284Z"  />
<glyph unicode="&#x15E;" horiz-adv-x="509" d="M369 -132Q369 -155 359 -172T332 -200T294 -217T253 -223Q198 -223 150 -199L167 -161Q184 -168 201 -172T236 -176Q256 -176 274 -167T293 -135Q293 -115 280 -107T245 -98Q235 -98 226 -100T207 -106L186 -88L240 -14Q182 -13 142 0T78 40T42 109T31 210V218H167V209Q167 185 169 163T181 123T207 95T255 84Q299 84 322 107T345 175Q345 198 337 215T315 247T281 274T238 301L183 335Q153 354 127 373T82 415T52 470T41 543Q41 596 57 633T104 693T175 726T265 737Q314 737 352 728T417 696T457 639T471 552V524H338V542Q338 562 335 579T324 610T300 631T259 639Q219 639 198 616T176 554Q176 532 184 515T207 484T239 457T279 432L327 403Q362 382 390 362T439 318T469 263T480 186Q480 135 466 99T427 39T366 3T288 -12L254 -61Q261 -59 267 -58T283 -56Q317 -56 343 -76T369 -132Z"  />
<glyph unicode="&#x15F;" horiz-adv-x="410" d="M385 146Q385 110 374 83T344 38T299 9T243 -6L205 -61Q212 -59 218 -58T234 -56Q268 -56 294 -76T320 -132Q320 -155 310 -172T283 -200T245 -217T204 -223Q149 -223 101 -199L118 -161Q135 -168 152 -172T187 -176Q207 -176 225 -167T244 -135Q244 -115 231 -107T196 -98Q186 -98 177 -100T158 -106L137 -88L195 -9Q159 -9 128 -1T75 25T40 69T27 136V161H150V147Q150 132 152 118T160 94T177 77T206 70Q234 70 248 86T262 129Q262 145 258 156T245 177T222 194T187 213L152 231Q120 247 98 260T61 289T39 324T32 373Q32 411 46 438T85 482T141 508T210 516Q301 516 340 479T380 360H258V377Q258 406 247 425T205 444Q181 444 168 429T155 391Q155 363 173 348T227 315L262 297Q290 282 313 269T352 240T376 201T385 146Z"  />
<glyph unicode="&#x160;" horiz-adv-x="509" d="M480 186Q480 130 464 92T417 31T346 -3T254 -14Q192 -14 150 -2T81 37T43 106T31 210V218H167V209Q167 185 169 163T181 123T207 95T255 84Q299 84 322 107T345 175Q345 198 337 215T315 247T281 274T238 301L183 335Q153 354 127 373T82 415T52 470T41 543Q41 596 57 633T104 693T175 726T265 737Q314 737 352 728T417 696T457 639T471 552V524H338V542Q338 562 335 579T324 610T300 631T259 639Q219 639 198 616T176 554Q176 532 184 515T207 484T239 457T279 432L327 403Q362 382 390 362T439 318T469 263T480 186ZM310 777H206L102 920H181L258 833L335 920H414L310 777Z"  />
<glyph unicode="&#x161;" horiz-adv-x="410" d="M385 146Q385 104 371 75T331 27T272 0T200 -9Q163 -9 132 -1T77 24T40 69T27 136V161H150V147Q150 132 152 118T160 94T177 77T206 70Q234 70 248 86T262 129Q262 145 258 156T245 177T222 194T187 213L152 231Q120 247 98 260T61 289T39 324T32 373Q32 411 46 438T85 482T141 508T210 516Q301 516 340 479T380 360H258V377Q258 406 247 425T205 444Q181 444 168 429T155 391Q155 363 173 348T227 315L262 297Q290 282 313 269T352 240T376 201T385 146ZM259 583H155L51 726H130L207 639L284 726H363L259 583Z"  />
<glyph unicode="&#x162;" horiz-adv-x="478" d="M306 623V0H172V623H5V723H473V623H306ZM243 -213H158L192 -54H298L243 -213Z"  />
<glyph unicode="&#x163;" horiz-adv-x="293" d="M284 -1Q267 -4 250 -5T214 -6Q174 -6 147 0T104 23T81 65T74 132V423H7V504H74V590L198 641V504H277V423H198V150Q198 133 199 120T206 99T222 86T250 81Q258 81 266 82T284 84V-1ZM161 -213H76L110 -54H216L161 -213Z"  />
<glyph unicode="&#x164;" horiz-adv-x="478" d="M306 623V0H172V623H5V723H473V623H306ZM291 777H187L83 920H162L239 833L316 920H395L291 777Z"  />
<glyph unicode="&#x165;" horiz-adv-x="293" d="M284 -1Q267 -4 250 -5T214 -6Q174 -6 147 0T104 23T81 65T74 132V423H7V504H74V590L198 641V504H277V423H198V150Q198 133 199 120T206 99T222 86T250 81Q258 81 266 82T284 84V-1ZM336 536H251L274 723H388L336 536Z"  />
<glyph unicode="&#x166;" horiz-adv-x="478" d="M39 324V422H172V623H5V723H473V623H306V422H439V324H306V0H172V324H39Z"  />
<glyph unicode="&#x167;" horiz-adv-x="293" d="M284 -1Q267 -4 250 -5T214 -6Q174 -6 147 0T104 23T81 65T74 132V273H7V354H74V423H7V504H74V590L198 641V504H277V423H198V354H277V273H198V150Q198 133 199 120T206 99T222 86T250 81Q258 81 266 82T284 84V-1H284Z"  />
<glyph unicode="&#x168;" horiz-adv-x="602" d="M537 236Q537 174 525 128T484 50T411 2T299 -14Q230 -14 185 3T114 54T76 136T65 246V723H197V259Q197 230 199 199T210 143T241 101T301 84Q339 84 360 99T392 139T405 194T407 254V723H537V236ZM474 903Q471 882 464 863T445 827T414 802T373 792Q353 792 335 798T300 810T265 823T228 829Q209 829 199 816T185 785H132Q135 807 143 827T164 862T195 887T238 897Q257 897 274 891T309 878T343 864T375 858Q396 858 406 871T421 903H474Z"  />
<glyph unicode="&#x169;" horiz-adv-x="484" d="M306 0L305 54Q263 -10 185 -10Q116 -10 85 25T54 132V504H178V167Q178 151 179 134T185 103T203 79T236 70Q256 70 269 80T290 107T301 141T304 177V504H428V83Q428 59 429 41T432 0H306ZM413 709Q410 688 403 669T384 633T353 608T312 598Q292 598 274 604T239 616T204 629T167 635Q148 635 138 622T124 591H71Q74 613 82 633T103 668T134 693T177 703Q196 703 213 697T248 684T282 670T314 664Q335 664 345 677T360 709H413Z"  />
<glyph unicode="&#x16A;" horiz-adv-x="602" d="M537 236Q537 174 525 128T484 50T411 2T299 -14Q230 -14 185 3T114 54T76 136T65 246V723H197V259Q197 230 199 199T210 143T241 101T301 84Q339 84 360 99T392 139T405 194T407 254V723H537V236ZM163 808V869H443V808H163Z"  />
<glyph unicode="&#x16B;" horiz-adv-x="484" d="M306 0L305 54Q263 -10 185 -10Q116 -10 85 25T54 132V504H178V167Q178 151 179 134T185 103T203 79T236 70Q256 70 269 80T290 107T301 141T304 177V504H428V83Q428 59 429 41T432 0H306ZM102 624V685H382V624H102Z"  />
<glyph unicode="&#x16C;" horiz-adv-x="602" d="M537 236Q537 174 525 128T484 50T411 2T299 -14Q230 -14 185 3T114 54T76 136T65 246V723H197V259Q197 230 199 199T210 143T241 101T301 84Q339 84 360 99T392 139T405 194T407 254V723H537V236ZM460 919Q452 850 410 815T298 780Q230 780 191 816T146 919H200Q208 878 237 861T305 843Q345 843 372 860T407 919H460Z"  />
<glyph unicode="&#x16D;" horiz-adv-x="484" d="M306 0L305 54Q263 -10 185 -10Q116 -10 85 25T54 132V504H178V167Q178 151 179 134T185 103T203 79T236 70Q256 70 269 80T290 107T301 141T304 177V504H428V83Q428 59 429 41T432 0H306ZM399 725Q391 656 349 621T237 586Q169 586 130 622T85 725H139Q147 684 176 667T244 649Q284 649 311 666T346 725H399Z"  />
<glyph unicode="&#x16E;" horiz-adv-x="602" d="M537 236Q537 174 525 128T484 50T411 2T299 -14Q230 -14 185 3T114 54T76 136T65 246V723H197V259Q197 230 199 199T210 143T241 101T301 84Q339 84 360 99T392 139T405 194T407 254V723H537V236ZM203 850Q203 871 210 889T231 920T263 941T303 949Q324 949 342 942T373 921T395 889T403 850Q403 829 395 811T374 780T342 759T303 751Q282 751 264 758T232 779T211 811T203 850ZM245 850Q245 824 261 807T303 790Q328 790 344 807T361 850Q361 876 345 893T303 910Q278 910 262 893T245 850Z"  />
<glyph unicode="&#x16F;" horiz-adv-x="484" d="M306 0L305 54Q263 -10 185 -10Q116 -10 85 25T54 132V504H178V167Q178 151 179 134T185 103T203 79T236 70Q256 70 269 80T290 107T301 141T304 177V504H428V83Q428 59 429 41T432 0H306ZM342 666Q342 645 334 627T313 596T281 575T242 567Q221 567 203 574T171 595T150 627T142 666Q142 687 149 705T170 736T202 757T242 765Q263 765 281 758T312 737T334 705T342 666ZM300 666Q300 692 284 709T242 726Q217 726 201 709T184 666Q184 640 200 623T242 606Q267 606 283 623T300 666Z"  />
<glyph unicode="&#x170;" horiz-adv-x="602" d="M537 236Q537 174 525 128T484 50T411 2T299 -14Q230 -14 185 3T114 54T76 136T65 246V723H197V259Q197 230 199 199T210 143T241 101T301 84Q339 84 360 99T392 139T405 194T407 254V723H537V236ZM400 777H325L418 920H542L400 777ZM225 777H150L243 920H367L225 777Z"  />
<glyph unicode="&#x171;" horiz-adv-x="484" d="M306 0L305 54Q263 -10 185 -10Q116 -10 85 25T54 132V504H178V167Q178 151 179 134T185 103T203 79T236 70Q256 70 269 80T290 107T301 141T304 177V504H428V83Q428 59 429 41T432 0H306ZM339 583H264L357 726H481L339 583ZM164 583H89L182 726H306L164 583Z"  />
<glyph unicode="&#x172;" horiz-adv-x="602" d="M387 -179Q367 -193 347 -199T303 -206Q270 -206 245 -190T219 -137Q219 -97 243 -67T299 -14Q230 -14 185 3T114 54T76 136T65 246V723H197V259Q197 230 199 199T210 143T241 101T301 84Q339 84 360 99T392 139T405 194T407 254V723H537V236Q537 127 497 65T358 -10Q329 -32 310 -53T291 -104Q291 -127 306 -138T342 -150Q364 -150 386 -139L387 -179H387Z"  />
<glyph unicode="&#x173;" horiz-adv-x="484" d="M447 -179Q427 -193 407 -199T363 -206Q330 -206 305 -190T279 -137Q279 -114 288 -94T311 -57T344 -26T379 0H307L306 54Q264 -10 186 -10Q117 -10 86 25T55 132V504H179V167Q179 151 180 134T186 103T204 79T237 70Q257 70 270 80T291 107T302 141T305 177V504H429V83Q429 59 430 41T433 0Q398 -25 375 -48T351 -104Q351 -127 366 -138T402 -150Q424 -150 446 -139L447 -179H447Z"  />
<glyph unicode="&#x174;" horiz-adv-x="860" d="M689 0H536L433 585L315 0H162L13 723H155L247 140L363 723H516L620 140L722 723H847L689 0ZM509 777L432 864L355 777H276L380 920H484L588 777H509Z"  />
<glyph unicode="&#x175;" horiz-adv-x="700" d="M574 0H434L354 392L264 0H124L9 504H143L201 113L291 504H427L510 113L574 504H691L574 0ZM432 583L355 670L278 583H199L303 726H407L511 583H432Z"  />
<glyph unicode="&#x176;" horiz-adv-x="518" d="M320 270V0H186V270L-3 723H145L262 389L384 723H521L320 270ZM333 777L256 864L179 777H100L204 920H308L412 777H333Z"  />
<glyph unicode="&#x177;" horiz-adv-x="425" d="M213 -192H95L156 0L6 504H139L220 148L299 504H421L213 -192ZM295 583L218 670L141 583H62L166 726H270L374 583H295Z"  />
<glyph unicode="&#x178;" horiz-adv-x="518" d="M320 270V0H186V270L-3 723H145L262 389L384 723H521L320 270ZM290 789V897H392V789H290ZM120 789V897H222V789H120Z"  />
<glyph unicode="&#x179;" horiz-adv-x="482" d="M21 0V113L314 623H37V723H456V612L164 100H461V0H21ZM253 777H178L271 920H394L253 777Z"  />
<glyph unicode="&#x17A;" horiz-adv-x="373" d="M23 0V88L218 424H33V504H349V421L154 82H350V0H23ZM200 583H125L218 726H341L200 583Z"  />
<glyph unicode="&#x17B;" horiz-adv-x="482" d="M21 0V113L314 623H37V723H456V612L164 100H461V0H21ZM194 789V897H296V789H194Z"  />
<glyph unicode="&#x17C;" horiz-adv-x="373" d="M23 0V88L218 424H33V504H349V421L154 82H350V0H23ZM141 605V713H243V605H141Z"  />
<glyph unicode="&#x17D;" horiz-adv-x="482" d="M21 0V113L314 623H37V723H456V612L164 100H461V0H21ZM297 777H193L89 920H168L245 833L322 920H401L297 777Z"  />
<glyph unicode="&#x17E;" horiz-adv-x="373" d="M23 0V88L218 424H33V504H349V421L154 82H350V0H23ZM244 583H140L36 726H115L192 639L269 726H348L244 583Z"  />
<glyph unicode="&#x192;" horiz-adv-x="472" d="M402 636Q387 641 375 641Q343 641 331 618T314 568L299 481H381L370 402H289L239 55Q233 10 224 -29T195 -96T142 -141T55 -157Q36 -157 20 -154L34 -62Q40 -65 49 -65Q77 -65 92 -42T114 28L167 402H99L111 481H180L193 563Q199 599 209 630T238 685T288 722T367 736Q379 736 391 735T416 732L402 636Z"  />
<glyph unicode="&#x218;" horiz-adv-x="509" d="M480 186Q480 130 464 92T417 31T346 -3T254 -14Q192 -14 150 -2T81 37T43 106T31 210V218H167V209Q167 185 169 163T181 123T207 95T255 84Q299 84 322 107T345 175Q345 198 337 215T315 247T281 274T238 301L183 335Q153 354 127 373T82 415T52 470T41 543Q41 596 57 633T104 693T175 726T265 737Q314 737 352 728T417 696T457 639T471 552V524H338V542Q338 562 335 579T324 610T300 631T259 639Q219 639 198 616T176 554Q176 532 184 515T207 484T239 457T279 432L327 403Q362 382 390 362T439 318T469 263T480 186ZM262 -213H177L211 -54H317L262 -213Z"  />
<glyph unicode="&#x219;" horiz-adv-x="410" d="M385 146Q385 104 371 75T331 27T272 0T200 -9Q163 -9 132 -1T77 24T40 69T27 136V161H150V147Q150 132 152 118T160 94T177 77T206 70Q234 70 248 86T262 129Q262 145 258 156T245 177T222 194T187 213L152 231Q120 247 98 260T61 289T39 324T32 373Q32 411 46 438T85 482T141 508T210 516Q301 516 340 479T380 360H258V377Q258 406 247 425T205 444Q181 444 168 429T155 391Q155 363 173 348T227 315L262 297Q290 282 313 269T352 240T376 201T385 146ZM213 -213H128L162 -54H268L213 -213Z"  />
<glyph unicode="&#x21A;" horiz-adv-x="478" d="M306 623V0H172V623H5V723H473V623H306ZM243 -213H158L192 -54H298L243 -213Z"  />
<glyph unicode="&#x21B;" horiz-adv-x="293" d="M284 -1Q267 -4 250 -5T214 -6Q174 -6 147 0T104 23T81 65T74 132V423H7V504H74V590L198 641V504H277V423H198V150Q198 133 199 120T206 99T222 86T250 81Q258 81 266 82T284 84V-1ZM161 -213H76L110 -54H216L161 -213Z"  />
<glyph unicode="&#x237;" horiz-adv-x="234" d="M179 -51Q179 -87 174 -113T155 -158T117 -185T53 -194Q37 -194 22 -194T-9 -193V-108Q11 -108 23 -107T43 -98T52 -79T55 -43V504H179V-51H179Z"  />
<glyph unicode="&#x2C6;" horiz-adv-x="228" d="M191 583L114 670L37 583H-42L62 726H166L270 583H191Z"  />
<glyph unicode="&#x2C7;" horiz-adv-x="228" d="M166 583H62L-42 726H37L114 639L191 726H270L166 583Z"  />
<glyph unicode="&#x2C9;" horiz-adv-x="228" d="M-26 808V869H254V808H-26Z"  />
<glyph unicode="&#x2D8;" horiz-adv-x="228" d="M271 725Q263 656 221 621T109 586Q41 586 2 622T-43 725H11Q19 684 48 667T116 649Q156 649 183 666T218 725H271H271Z"  />
<glyph unicode="&#x2D9;" horiz-adv-x="228" d="M63 605V713H165V605H63Z"  />
<glyph unicode="&#x2DA;" horiz-adv-x="228" d="M214 666Q214 645 206 627T185 596T153 575T114 567Q93 567 75 574T43 595T22 627T14 666Q14 687 21 705T42 736T74 757T114 765Q135 765 153 758T184 737T206 705T214 666ZM172 666Q172 692 156 709T114 726Q89 726 73 709T56 666Q56 640 72 623T114 606Q139 606 155 623T172 666Z"  />
<glyph unicode="&#x2DB;" horiz-adv-x="228" d="M173 -179Q153 -193 133 -199T89 -206Q56 -206 31 -190T5 -137Q5 -114 14 -94T37 -57T70 -26T105 0H159Q124 -25 101 -48T77 -104Q77 -127 92 -138T128 -150Q150 -150 172 -139L173 -179H173Z"  />
<glyph unicode="&#x2DC;" horiz-adv-x="228" d="M285 709Q282 688 275 669T256 633T225 608T184 598Q164 598 146 604T111 616T76 629T39 635Q20 635 10 622T-4 591H-57Q-54 613 -46 633T-25 668T6 693T49 703Q68 703 85 697T120 684T154 670T186 664Q207 664 217 677T232 709H285H285Z"  />
<glyph unicode="&#x2DD;" horiz-adv-x="228" d="M211 583H136L229 726H353L211 583ZM36 583H-39L54 726H178L36 583Z"  />
<glyph unicode="&#x394;" horiz-adv-x="593" d="M9 0L219 723H367L584 0H9ZM295 595L164 98H424L295 595Z"  />
<glyph unicode="&#x3A9;" horiz-adv-x="570" d="M327 0V102Q362 140 376 205T391 374Q391 449 387 500T370 582T338 626T285 640Q253 640 233 626T200 581T184 499T179 374Q179 270 193 205T243 102V0H47V94H162Q133 110 112 135T75 199T53 290T45 416Q45 501 57 562T98 662T173 719T285 737Q353 737 399 719T473 663T513 563T525 416Q525 344 518 291T495 199T458 136T408 94H523V0H327Z"  />
<glyph unicode="&#x3BC;" horiz-adv-x="485" d="M307 0L306 54Q291 16 272 3T232 -10Q198 -10 179 18V-192H55V504H179V167Q179 151 180 134T186 103T204 79T237 70Q257 70 270 80T291 107T302 141T305 177V504H429V83Q429 59 430 41T433 0H307Z"  />
<glyph unicode="&#x3C0;" horiz-adv-x="592" d="M552 12Q532 2 509 -3T463 -9Q408 -9 378 24T348 120V410H236V0H113V410H38V504H551V410H471V136Q471 113 480 101T510 88Q519 88 529 90T552 100V12H552Z"  />
<glyph unicode="&#x1E80;" horiz-adv-x="860" d="M689 0H536L433 585L315 0H162L13 723H155L247 140L363 723H516L620 140L722 723H847L689 0ZM432 777L291 920H414L508 777H432Z"  />
<glyph unicode="&#x1E81;" horiz-adv-x="700" d="M574 0H434L354 392L264 0H124L9 504H143L201 113L291 504H427L510 113L574 504H691L574 0ZM346 583L205 726H328L422 583H346Z"  />
<glyph unicode="&#x1E82;" horiz-adv-x="860" d="M689 0H536L433 585L315 0H162L13 723H155L247 140L363 723H516L620 140L722 723H847L689 0ZM451 777H376L469 920H592L451 777Z"  />
<glyph unicode="&#x1E83;" horiz-adv-x="700" d="M574 0H434L354 392L264 0H124L9 504H143L201 113L291 504H427L510 113L574 504H691L574 0ZM361 583H286L379 726H502L361 583Z"  />
<glyph unicode="&#x1E84;" horiz-adv-x="860" d="M689 0H536L433 585L315 0H162L13 723H155L247 140L363 723H516L620 140L722 723H847L689 0ZM467 789V897H569V789H467ZM297 789V897H399V789H297Z"  />
<glyph unicode="&#x1E85;" horiz-adv-x="700" d="M574 0H434L354 392L264 0H124L9 504H143L201 113L291 504H427L510 113L574 504H691L574 0ZM388 605V713H490V605H388ZM218 605V713H320V605H218Z"  />
<glyph unicode="&#x1EF2;" horiz-adv-x="518" d="M320 270V0H186V270L-3 723H145L262 389L384 723H521L320 270ZM258 777L117 920H240L334 777H258Z"  />
<glyph unicode="&#x1EF3;" horiz-adv-x="425" d="M213 -192H95L156 0L6 504H139L220 148L299 504H421L213 -192ZM205 583L64 726H187L281 583H205Z"  />
<glyph unicode="&#x2013;" horiz-adv-x="500" d="M0 232V313H500V232H0Z"  />
<glyph unicode="&#x2014;" horiz-adv-x="1001" d="M130 232V313H871V232H130Z"  />
<glyph unicode="&#x2018;" horiz-adv-x="246" d="M166 499H45L115 723H201L166 499Z"  />
<glyph unicode="&#x2019;" horiz-adv-x="247" d="M132 499H45L81 723H202L132 499Z"  />
<glyph unicode="&#x201A;" horiz-adv-x="247" d="M132 -101H45L81 123H202L132 -101Z"  />
<glyph unicode="&#x201C;" horiz-adv-x="413" d="M333 499H212L282 723H368L333 499ZM166 499H45L115 723H201L166 499Z"  />
<glyph unicode="&#x201D;" horiz-adv-x="414" d="M299 499H212L248 723H369L299 499ZM132 499H45L81 723H202L132 499Z"  />
<glyph unicode="&#x201E;" horiz-adv-x="414" d="M299 -101H212L248 123H369L299 -101ZM132 -101H45L81 123H202L132 -101Z"  />
<glyph unicode="&#x2020;" horiz-adv-x="439" d="M270 478V0H165V478H13V565H165V723H270V565H422V478H270Z"  />
<glyph unicode="&#x2021;" horiz-adv-x="439" d="M270 151V0H165V151H13V235H165V486H13V572H165V723H270V572H422V486H270V235H422V151H270Z"  />
<glyph unicode="&#x2022;" horiz-adv-x="499" d="M430 361Q430 324 416 291T378 234T320 195T250 180Q213 180 180 194T123 233T84 291T70 361Q70 398 84 430T122 487T180 526T250 540Q287 540 319 526T376 488T415 431T430 361Z"  />
<glyph unicode="&#x2026;" horiz-adv-x="1000" d="M770 0V130H896V0H770ZM437 0V130H562V0H437ZM104 0V130H229V0H104Z"  />
<glyph unicode="&#x2030;" horiz-adv-x="928" d="M200 -23H139L437 745H500L200 -23ZM597 155Q597 122 592 92T574 39T538 2T478 -12Q441 -12 418 1T382 38T365 92T360 155Q360 188 364 218T382 272T418 309T478 323Q515 323 538 310T574 274T592 221T597 155ZM524 155Q524 177 523 198T517 234T503 259T478 269Q462 269 453 260T440 235T434 198T433 155Q433 132 434 112T439 77T453 52T478 43Q494 43 503 52T516 76T522 112T524 155ZM892 155Q892 122 887 92T869 39T833 2T773 -12Q736 -12 713 1T677 38T660 92T655 155Q655 188 659 218T677 272T713 309T773 323Q810 323 833 310T869 274T887 221T892 155ZM819 155Q819 177 818 198T812 234T798 259T773 269Q757 269 748 260T735 235T729 198T728 155Q728 132 729 112T734 77T748 52T773 43Q789 43 798 52T811 76T817 112T819 155ZM273 566Q273 533 268 503T250 450T214 413T154 399Q117 399 94 412T58 449T41 503T36 566Q36 599 40 629T58 683T94 720T154 734Q191 734 214 721T250 685T268 632T273 566ZM200 566Q200 588 199 609T193 645T179 670T154 680Q138 680 129 671T116 646T110 609T109 566Q109 543 110 523T115 488T129 463T154 454Q170 454 179 463T192 487T198 523T200 566Z"  />
<glyph unicode="&#x2039;" horiz-adv-x="240" d="M114 58L23 251L113 447H215L131 251L217 58H114Z"  />
<glyph unicode="&#x203A;" horiz-adv-x="240" d="M126 58H23L108 250L25 447H127L217 250L126 58Z"  />
<glyph unicode="&#x2044;" horiz-adv-x="166" d="M-34 -23H-95L198 733H261L-34 -23Z"  />
<glyph unicode="&#x2070;" horiz-adv-x="301" d="M151 463Q80 463 53 501T26 605V751Q26 783 32 809T52 854T91 883T151 893Q187 893 211 883T249 855T270 810T276 751V605Q276 540 249 502T151 463ZM151 524Q176 524 186 542T197 605V751Q197 796 187 814T151 832Q126 832 116 814T105 751V605Q105 560 115 542T151 524Z"  />
<glyph unicode="&#x2074;" horiz-adv-x="301" d="M249 565V469H167V564H26V640L137 887H249V629H284V565H249ZM174 811L97 629H172L174 811Z"  />
<glyph unicode="&#x2075;" horiz-adv-x="301" d="M275 613Q275 576 270 548T251 501T211 473T147 463Q95 463 65 489T34 572H113Q113 551 121 539T152 526Q176 526 184 543T193 612Q193 654 185 670T153 686Q132 686 124 674T113 645H37L44 887H260V826H119L114 717Q128 730 144 737T180 744Q233 744 254 712T275 613Z"  />
<glyph unicode="&#x2076;" horiz-adv-x="301" d="M276 604Q276 571 270 545T250 501T211 473T151 463Q111 463 87 474T49 508T32 561T28 634V720Q28 760 34 792T54 846T94 881T158 893Q213 893 241 870T271 792H191Q190 810 183 822T154 834Q126 834 117 806T107 729V704Q120 719 136 728T178 737Q207 737 226 728T256 701T271 659T276 604ZM195 602Q195 641 187 660T152 679Q126 679 117 659T108 603Q108 561 117 542T152 522Q179 522 187 541T195 602Z"  />
<glyph unicode="&#x2077;" horiz-adv-x="301" d="M158 469H70L191 825H39V887H268V822L158 469Z"  />
<glyph unicode="&#x2078;" horiz-adv-x="301" d="M275 586Q275 527 247 495T150 463Q86 463 56 491T26 586Q26 616 36 643T79 687Q52 699 41 723T30 777Q30 835 59 864T150 893Q209 893 240 869T271 784Q271 751 260 727T220 688Q250 675 262 650T275 586ZM192 774Q192 803 185 818T151 834Q126 834 118 819T109 776Q109 750 118 733T150 716Q175 716 183 732T192 774ZM195 588Q195 623 187 640T150 658Q124 658 115 641T106 589Q106 554 115 538T150 522Q176 522 185 538T195 588Z"  />
<glyph unicode="&#x2079;" horiz-adv-x="301" d="M275 657Q275 613 272 577T256 516T218 477T147 463Q93 463 64 487T35 569H114Q114 549 122 535T153 521Q177 521 187 541T197 609V654Q183 640 169 631T128 622Q72 622 50 657T28 753Q28 817 55 855T153 893Q190 893 214 883T251 854T270 805T275 737V657ZM196 756Q196 794 188 814T153 834Q125 834 117 814T108 756Q108 718 115 699T152 680Q179 680 187 701T196 756Z"  />
<glyph unicode="&#x2080;" horiz-adv-x="290" d="M145 -170Q74 -170 47 -132T20 -28V118Q20 150 26 176T46 221T85 250T145 260Q181 260 205 250T243 222T264 177T270 118V-28Q270 -93 243 -131T145 -170ZM145 -109Q170 -109 180 -91T191 -28V118Q191 163 181 181T145 199Q120 199 110 181T99 118V-28Q99 -73 109 -91T145 -109Z"  />
<glyph unicode="&#x2081;" horiz-adv-x="290" d="M118 -164V162Q101 148 81 135T41 113V190Q87 213 123 254H202V-164H118Z"  />
<glyph unicode="&#x2082;" horiz-adv-x="290" d="M15 -164V-98L141 63Q167 95 175 115T184 158Q184 178 173 189T142 200Q114 200 105 182T95 135H18Q18 199 51 229T144 260Q170 260 192 254T231 235T257 202T266 154Q266 92 222 36L114 -100H268V-164H15Z"  />
<glyph unicode="&#x2083;" horiz-adv-x="290" d="M267 -41Q267 -106 237 -138T142 -170Q80 -170 52 -143T23 -49H102Q102 -77 110 -92T142 -107Q166 -107 175 -92T185 -47Q185 -5 171 10T127 25H105V82H130Q183 82 183 144Q183 171 176 186T145 201Q124 201 115 186T106 144H29V161Q29 211 60 235T142 260Q199 260 230 235T261 149Q261 120 251 95T210 55Q242 42 254 17T267 -41Z"  />
<glyph unicode="&#x2084;" horiz-adv-x="290" d="M243 -68V-164H161V-69H20V7L131 254H243V-4H278V-68H243ZM168 178L91 -4H166L168 178Z"  />
<glyph unicode="&#x2085;" horiz-adv-x="290" d="M270 -20Q270 -57 265 -85T246 -132T206 -160T142 -170Q90 -170 60 -144T29 -61H108Q108 -82 116 -94T147 -107Q171 -107 179 -90T188 -21Q188 21 180 37T148 53Q127 53 119 41T108 12H32L39 254H255V193H114L109 84Q123 97 139 104T175 111Q228 111 249 79T270 -20Z"  />
<glyph unicode="&#x2086;" horiz-adv-x="290" d="M271 -29Q271 -62 265 -88T245 -132T206 -160T146 -170Q106 -170 82 -159T44 -125T27 -72T23 1V87Q23 127 29 159T49 213T89 248T153 260Q208 260 236 237T266 159H186Q185 177 178 189T149 201Q121 201 112 173T102 96V71Q115 86 131 95T173 104Q202 104 221 95T251 68T266 26T271 -29ZM190 -31Q190 8 182 27T147 46Q121 46 112 26T103 -30Q103 -72 112 -91T147 -111Q174 -111 182 -92T190 -31Z"  />
<glyph unicode="&#x2087;" horiz-adv-x="290" d="M153 -164H65L186 192H34V254H263V189L153 -164Z"  />
<glyph unicode="&#x2088;" horiz-adv-x="291" d="M270 -47Q270 -106 242 -138T145 -170Q81 -170 51 -142T21 -47Q21 -17 31 10T74 54Q47 66 36 90T25 144Q25 202 54 231T145 260Q204 260 235 236T266 151Q266 118 255 94T215 55Q245 42 257 17T270 -47ZM187 141Q187 170 180 185T146 201Q121 201 113 186T104 143Q104 117 113 100T145 83Q170 83 178 99T187 141ZM190 -45Q190 -10 182 7T145 25Q119 25 110 8T101 -44Q101 -79 110 -95T145 -111Q171 -111 180 -95T190 -45Z"  />
<glyph unicode="&#x2089;" horiz-adv-x="290" d="M267 24Q267 -20 264 -56T248 -117T210 -156T139 -170Q85 -170 56 -146T27 -64H106Q106 -84 114 -98T145 -112Q169 -112 179 -92T189 -24V21Q175 7 161 -2T120 -11Q64 -11 42 24T20 120Q20 184 47 222T145 260Q182 260 206 250T243 221T262 172T267 104V24ZM188 123Q188 161 180 181T145 201Q117 201 109 181T100 123Q100 85 107 66T144 47Q171 47 179 68T188 123Z"  />
<glyph unicode="&#x20AC;" horiz-adv-x="472" d="M223 264Q223 216 226 182T241 124T274 90T330 79Q372 79 398 94T448 132V18Q428 4 393 -4T316 -13Q254 -13 213 3T145 52T108 138T96 264H11L27 339H96V405H12L27 480H96Q98 541 112 589T154 669T228 719T337 736Q385 736 417 724T472 695L448 587Q435 610 407 627T335 644Q303 644 282 634T248 602T230 551T223 480H417L402 405H223V339H383L367 264H223Z"  />
<glyph unicode="&#x2113;" horiz-adv-x="495" d="M433 583Q433 508 388 429T239 262V165Q239 127 255 107T299 87Q326 87 347 100T393 145L454 88Q420 40 379 15T280 -10Q201 -10 164 36T126 170L91 142L41 211L126 282V528Q126 633 170 684T287 736Q359 736 396 695T433 583ZM239 381Q293 438 315 489T337 586Q337 621 325 637T292 653Q268 653 254 632T239 560V381Z"  />
<glyph unicode="&#x2122;" horiz-adv-x="812" d="M674 367V655L585 367H528L439 655V367H369V723H483L557 482L632 723H743V367H674ZM203 663V367H128V663H25V723H306V663H203Z"  />
<glyph unicode="&#x2126;" horiz-adv-x="570" d="M327 0V102Q362 140 376 205T391 374Q391 449 387 500T370 582T338 626T285 640Q253 640 233 626T200 581T184 499T179 374Q179 270 193 205T243 102V0H47V94H162Q133 110 112 135T75 199T53 290T45 416Q45 501 57 562T98 662T173 719T285 737Q353 737 399 719T473 663T513 563T525 416Q525 344 518 291T495 199T458 136T408 94H523V0H327Z"  />
<glyph unicode="&#x212E;" horiz-adv-x="600" d="M157 259V78Q216 19 302 19Q365 19 411 47T495 139L530 118Q507 82 484 57T433 15T373 -9T302 -17Q243 -17 196 4T114 63T62 151T44 259Q44 317 62 367T114 455T195 513T302 535Q360 535 407 515T489 458T542 371T561 259H157ZM448 295V440Q385 500 301 500Q217 500 157 440V295H448Z"  />
<glyph unicode="&#x2153;" horiz-adv-x="746" d="M703 123Q703 58 673 26T578 -7Q516 -7 488 20T459 115H538Q538 87 546 72T583 56Q596 56 603 62T615 77T620 97T621 117Q621 159 607 173T563 189H541V246H566Q619 247 619 306Q619 333 613 349T581 365Q560 365 551 350T542 308H465V325Q465 375 496 399T578 424Q635 424 666 399T697 313Q697 284 684 259T645 218Q675 203 689 179T703 123ZM240 -23H180L474 733H535L240 -23ZM112 299V624Q95 611 76 597T34 574V653Q59 664 79 680T116 717H196V299H112Z"  />
<glyph unicode="&#x2154;" horiz-adv-x="746" d="M35 300V366Q44 376 64 400T107 453T151 510T184 559Q191 570 197 591T203 626Q203 640 192 652T165 665Q134 665 125 645T115 596H40V615Q40 640 50 660T77 694T116 716T162 724Q214 724 249 699T285 618Q285 590 280 569T260 524Q249 508 235 488T204 446T171 403T139 364H288V300H35ZM725 123Q725 58 695 26T600 -7Q538 -7 510 20T481 115H560Q560 87 568 72T605 56Q618 56 625 62T637 77T642 97T643 117Q643 159 629 173T585 189H563V246H588Q641 247 641 306Q641 333 635 349T603 365Q582 365 573 350T564 308H487V325Q487 375 518 399T600 424Q657 424 688 399T719 313Q719 284 706 259T667 218Q697 203 711 179T725 123ZM280 -23H220L514 733H575L280 -23Z"  />
<glyph unicode="&#x215B;" horiz-adv-x="746" d="M240 -23H180L474 733H535L240 -23ZM112 299V624Q95 611 76 597T34 574V653Q59 664 79 680T116 717H196V299H112ZM703 116Q703 57 675 25T579 -7Q517 -7 486 21T455 116Q455 147 465 174T508 217Q482 229 471 253T460 308Q460 365 488 394T579 424Q638 424 668 399T699 314Q699 283 688 258T649 218Q678 206 690 182T703 116ZM620 304Q620 333 612 349T579 365Q556 365 547 349T538 306Q538 280 547 263T579 246Q603 246 611 262T620 304ZM623 118Q623 145 615 166T579 188Q565 188 557 182T543 167T537 145T535 120Q535 108 536 96T542 75T556 59T579 53Q594 53 602 58T615 73T621 94T623 118Z"  />
<glyph unicode="&#x215C;" horiz-adv-x="746" d="M703 116Q703 57 675 25T579 -7Q517 -7 486 21T455 116Q455 147 465 174T508 217Q482 229 471 253T460 308Q460 365 488 394T579 424Q638 424 668 399T699 314Q699 283 688 258T649 218Q678 206 690 182T703 116ZM264 422Q264 357 234 325T139 292Q77 292 49 319T20 414H99Q99 386 107 371T144 355Q157 355 164 361T176 376T181 396T182 416Q182 458 168 472T124 488H102V545H127Q180 546 180 605Q180 632 174 648T142 664Q121 664 112 649T103 607H26V624Q26 674 57 698T139 723Q196 723 227 698T258 612Q258 583 245 558T206 517Q236 502 250 478T264 422ZM244 -23H184L478 733H539L244 -23ZM623 118Q623 145 615 166T579 188Q565 188 557 182T543 167T537 145T535 120Q535 108 536 96T542 75T556 59T579 53Q594 53 602 58T615 73T621 94T623 118ZM620 304Q620 333 612 349T579 365Q556 365 547 349T538 306Q538 280 547 263T579 246Q603 246 611 262T620 304Z"  />
<glyph unicode="&#x215D;" horiz-adv-x="746" d="M703 116Q703 57 675 25T579 -7Q517 -7 486 21T455 116Q455 147 465 174T508 217Q482 229 471 253T460 308Q460 365 488 394T579 424Q638 424 668 399T699 314Q699 283 688 258T649 218Q678 206 690 182T703 116ZM620 304Q620 333 612 349T579 365Q556 365 547 349T538 306Q538 280 547 263T579 246Q603 246 611 262T620 304ZM623 118Q623 145 615 166T579 188Q565 188 557 182T543 167T537 145T535 120Q535 108 536 96T542 75T556 59T579 53Q594 53 602 58T615 73T621 94T623 118ZM264 444Q264 409 259 381T240 333T202 303T137 292Q85 292 55 317T24 401H103Q103 381 111 368T140 355Q152 355 160 358T173 371T181 398T183 442Q183 482 174 498T144 515Q125 515 116 503T104 474H27L35 716H250V654H109L105 546Q119 559 134 566T169 573Q197 573 215 564T244 538T259 498T264 444ZM244 -23H184L478 733H539L244 -23Z"  />
<glyph unicode="&#x215E;" horiz-adv-x="746" d="M240 -23H180L474 733H535L240 -23ZM703 116Q703 57 675 25T579 -7Q517 -7 486 21T455 116Q455 147 465 174T508 217Q482 229 471 253T460 308Q460 365 488 394T579 424Q638 424 668 399T699 314Q699 283 688 258T649 218Q678 206 690 182T703 116ZM620 304Q620 333 612 349T579 365Q556 365 547 349T538 306Q538 280 547 263T579 246Q603 246 611 262T620 304ZM623 118Q623 145 615 166T579 188Q565 188 557 182T543 167T537 145T535 120Q535 108 536 96T542 75T556 59T579 53Q594 53 602 58T615 73T621 94T623 118ZM190 300H102L223 654H72V717H300V652L190 300Z"  />
<glyph unicode="&#x2202;" horiz-adv-x="501" d="M456 360Q456 261 441 191T396 75T323 9T225 -12Q174 -12 139 6T83 55T52 122T42 197Q42 248 54 291T91 367T151 418T235 436Q264 436 289 427T335 401Q333 453 325 495T302 568T263 615T209 632Q186 632 162 624T112 599L67 685Q106 710 144 723T227 736Q341 736 398 639T456 360ZM232 88Q254 88 272 99T302 137T323 204T334 305Q320 322 301 332T258 343Q212 343 188 303T163 198Q163 147 180 118T232 88Z"  />
<glyph unicode="&#x2206;" horiz-adv-x="593" d="M9 0L219 723H367L584 0H9ZM295 595L164 98H424L295 595Z"  />
<glyph unicode="&#x220F;" horiz-adv-x="611" d="M420 -203V680H191V-203H60V780H551V-203H420Z"  />
<glyph unicode="&#x2211;" horiz-adv-x="554" d="M40 -203V-114L264 300L53 693V780H513V680H206L406 305L187 -103H524V-203H40Z"  />
<glyph unicode="&#x2212;" horiz-adv-x="559" d="M36 215V320H523V215H36Z"  />
<glyph unicode="&#x2215;" horiz-adv-x="166" d="M-34 -23H-95L198 733H261L-34 -23Z"  />
<glyph unicode="&#x2219;" horiz-adv-x="236" d="M64 238V360H172V238H64Z"  />
<glyph unicode="&#x221A;" horiz-adv-x="632" d="M387 -201H264L141 158L70 135L44 218L211 271L318 -56L513 786H623L387 -201Z"  />
<glyph unicode="&#x221E;" horiz-adv-x="774" d="M744 262Q744 226 731 195T695 140T639 102T566 88Q519 88 479 112T386 193Q334 138 292 113T199 88Q161 88 130 101T77 137T42 192T30 262Q30 297 42 328T78 382T134 420T207 434Q230 434 251 429T293 410T336 377T386 328Q411 355 433 374T477 407T523 427T575 434Q613 434 644 421T697 386T732 331T744 262ZM209 177Q237 177 263 198T326 260Q285 305 261 324T212 344Q179 344 157 321T135 261Q135 222 156 200T209 177ZM638 261Q638 299 618 321T565 344Q536 344 510 323T446 261Q484 219 510 198T562 177Q595 177 616 200T638 261Z"  />
<glyph unicode="&#x222B;" horiz-adv-x="409" d="M260 38Q260 -86 225 -142T109 -199Q89 -199 71 -197T38 -192L50 -99Q67 -104 83 -104Q115 -104 132 -77T150 22V545Q150 669 185 726T301 784Q321 784 339 782T371 776L359 682Q344 687 326 687Q311 687 299 681T278 661T265 622T260 561V38Z"  />
<glyph unicode="&#x2248;" horiz-adv-x="559" d="M526 445Q521 373 484 327T374 281Q349 281 323 289T261 315Q225 332 207 338T170 345Q146 345 132 328T112 284H33Q38 356 75 402T185 448Q210 448 236 440T298 414Q334 397 352 391T389 384Q413 384 427 401T447 445H526ZM526 237Q521 165 484 119T374 73Q349 73 323 81T261 107Q225 124 207 130T170 137Q146 137 132 120T112 76H33Q38 148 75 194T185 240Q210 240 236 232T298 206Q334 189 352 183T389 176Q413 176 427 193T447 237H526Z"  />
<glyph unicode="&#x2260;" horiz-adv-x="559" d="M104 8L152 107H36V212H203L256 322H36V426H306L375 568L468 526L419 426H523V322H369L315 212H523V107H264L196 -34L104 8Z"  />
<glyph unicode="&#x2264;" horiz-adv-x="559" d="M36 312V417L523 582V473L180 365L523 258V149L36 312ZM36 0V105H523V0H36Z"  />
<glyph unicode="&#x2265;" horiz-adv-x="559" d="M36 149V258L379 365L36 473V582L523 417V312L36 149ZM36 0V105H523V0H36Z"  />
<glyph unicode="&#x25CA;" horiz-adv-x="532" d="M326 -30H203L32 361L205 753H327L500 361L326 -30ZM266 640L157 361L266 81L374 361L266 640Z"  />
<glyph unicode="&#xF001;" horiz-adv-x="491" d="M274 642Q269 643 262 643Q220 643 208 627T195 567V504H271V423H195V0H71V423H10V504H71V583Q71 616 76 643T97 690T138 719T207 730Q227 730 240 730T274 727V642ZM312 608V715H436V608H312ZM312 0V504H436V0H312Z"  />
<glyph unicode="&#xF002;" horiz-adv-x="491" d="M274 642Q269 643 262 643Q220 643 208 627T195 567V504H271V423H195V0H71V423H10V504H71V583Q71 616 76 643T97 690T138 719T207 730Q227 730 240 730T274 727V642ZM312 0V723H436V0H312Z"  />
<glyph unicode="&#xF003;" horiz-adv-x="407" d="M373 215Q373 171 369 130T349 58T298 7T203 -12Q143 -12 109 6T59 54T38 125T34 211V361Q34 402 40 437T64 499T117 541T206 556Q260 556 293 542T344 504T367 445T373 369V215ZM256 336Q256 370 255 397T249 443T234 472T204 482Q185 482 175 472T159 443T152 397T151 336V203Q151 169 152 143T158 99T174 72T204 62Q223 62 233 71T249 99T255 143T256 203V336Z"  />
<glyph unicode="&#xF004;" horiz-adv-x="407" d="M167 0V423Q147 406 122 392T70 365V462Q102 477 132 498T185 544H288V0H167Z"  />
<glyph unicode="&#xF005;" horiz-adv-x="407" d="M28 0V83L178 268Q200 295 214 317T237 357T248 392T251 425Q251 447 242 464T205 481Q173 481 163 461T153 399H38V420Q38 486 83 521T207 556Q286 556 328 524T371 420Q371 335 287 235L156 76H373V0H28Z"  />
<glyph unicode="&#xF006;" horiz-adv-x="407" d="M370 150Q370 70 331 29T199 -12Q111 -12 69 21T27 135V147H142Q142 107 152 85T194 63Q228 63 239 86T250 147Q250 177 246 196T231 227T202 244T155 249H141V324H152Q202 324 223 340T245 407Q245 443 236 463T198 483Q183 483 174 477T159 460T152 436T150 410H36V434Q36 500 81 528T200 556Q285 556 324 524T364 415Q364 370 348 337T288 289Q337 275 353 241T370 150Z"  />
<glyph unicode="&#xF007;" horiz-adv-x="407" d="M326 129V0H214V129H28V213L176 544H326V204H388V129H326ZM218 462L106 204H218V462Z"  />
<glyph unicode="&#xF008;" horiz-adv-x="407" d="M371 188Q371 142 365 105T340 42T287 2T197 -12Q117 -12 77 18T37 128H154Q154 100 163 82T200 63Q234 63 242 95T251 186Q251 234 241 257T204 281Q178 281 168 265T155 229H43L54 544H351V468H164L155 317Q167 332 188 342T242 352Q282 352 307 340T347 305T366 253T371 188Z"  />
<glyph unicode="&#xF009;" horiz-adv-x="407" d="M376 170Q376 129 368 96T340 38T287 1T205 -12Q154 -12 121 1T70 42T44 109T37 204V319Q37 364 42 406T65 482T118 536T215 556Q288 556 327 527T367 427H250Q250 450 242 466T208 483Q173 483 163 450T152 366V306Q166 324 188 334T243 344Q282 344 307 333T348 299T370 244T376 170ZM258 170Q258 193 257 212T251 244T235 265T206 272Q174 272 164 244T153 170Q153 122 162 92T205 62Q240 62 249 92T258 170Z"  />
<glyph unicode="&#xF00A;" horiz-adv-x="407" d="M210 0H83L247 467H41V544H359V464L210 0Z"  />
<glyph unicode="&#xF00B;" horiz-adv-x="407" d="M374 150Q374 111 365 81T336 31T284 -1T204 -12Q162 -12 131 -4T77 23T44 73T33 151Q33 169 35 188T45 226T68 259T109 284Q67 298 53 331T39 406Q39 482 77 519T204 556Q285 556 327 525T369 415Q369 371 354 336T295 285Q342 270 358 237T374 150ZM252 400Q252 415 251 429T246 456T232 475T204 483Q187 483 177 476T163 457T157 431T156 402Q156 389 157 375T164 349T178 330T204 322Q220 322 229 329T244 348T250 373T252 400ZM255 154Q255 170 254 187T247 217T231 239T204 248Q186 248 176 240T161 218T154 188T152 157Q152 142 153 126T159 95T175 72T204 62Q222 62 232 71T248 93T254 123T255 154Z"  />
<glyph unicode="&#xF00C;" horiz-adv-x="407" d="M369 223Q369 171 365 128T342 53T290 5T195 -12Q116 -12 79 20T42 125H159Q159 112 160 101T167 81T181 67T204 62Q234 62 244 96T254 191V235Q239 218 217 208T164 198Q125 198 99 209T58 243T37 298T30 372Q30 413 39 447T68 505T120 542T201 556Q253 556 285 543T336 502T362 434T369 339V223ZM253 372Q253 422 244 452T201 483Q182 483 172 474T156 450T149 414T148 372Q148 349 149 331T156 299T171 278T200 270Q219 270 229 280T245 306T251 339T253 372Z"  />
<glyph unicode="&#xF00D;" horiz-adv-x="487" d="M328 122H154L120 0H-1L168 544H321L488 0H362L328 122ZM177 205H306L242 441L177 205Z"  />
<glyph unicode="&#xF00E;" horiz-adv-x="476" d="M445 152Q445 65 397 33T254 0H60V544H259Q300 544 332 538T387 515T422 473T434 406Q434 358 414 329T348 286Q401 271 423 239T445 152ZM314 393Q314 415 308 429T290 450T263 460T228 463H183V322H224Q269 322 291 336T314 393ZM323 162Q323 207 300 225T227 243H183V81H233Q279 81 301 97T323 162Z"  />
<glyph unicode="&#xF00F;" horiz-adv-x="458" d="M436 163Q436 71 385 30T237 -12Q174 -12 134 8T71 66Q61 82 55 101T45 145T40 201T38 273Q38 342 44 389T71 474Q91 509 133 532T246 556Q344 556 387 511T431 391V375H309V389Q309 423 296 448T244 473Q221 473 207 464T183 438Q172 417 168 378T164 273Q164 233 165 206T168 160T173 129T182 106Q199 71 243 71Q282 71 297 96T313 167V183H436V163H436Z"  />
<glyph unicode="&#xF010;" horiz-adv-x="500" d="M463 284Q463 201 455 146T414 55Q388 27 345 14T232 0H60V544H231Q303 544 347 531T416 489Q445 457 454 408T463 284ZM337 272Q337 327 334 366T313 428Q289 461 224 461H184V83H228Q257 83 276 91T308 115Q327 139 332 177T337 272Z"  />
<glyph unicode="&#xF011;" horiz-adv-x="422" d="M60 0V544H388V459H184V325H373V241H184V84H395V0H60Z"  />
<glyph unicode="&#xF012;" horiz-adv-x="388" d="M184 459V322H361V238H184V0H60V544H371V459H184Z"  />
<glyph unicode="&#xF013;" horiz-adv-x="489" d="M323 379V390Q323 428 306 450T251 473Q203 473 183 438Q177 427 174 413T168 380T165 334T164 272Q164 201 168 164T183 106Q194 86 209 79T251 71Q268 71 287 74T324 82V210H242V292H443V22Q398 8 349 -2T254 -12Q175 -12 133 10T71 67Q50 104 44 152T38 272Q38 337 43 387T72 476Q94 512 135 534T249 556Q348 556 396 512T445 391V379H323Z"  />
<glyph unicode="&#xF014;" horiz-adv-x="520" d="M336 0V241H184V0H60V544H184V324H336V544H460V0H336Z"  />
<glyph unicode="&#xF015;" horiz-adv-x="422" d="M367 163Q367 70 324 29T185 -12Q137 -12 104 -1T51 31T23 82T14 153V181H138V165Q138 147 139 131T145 101T160 80T190 72Q209 72 220 80T236 100T242 127T243 158V544H367V163H367Z"  />
<glyph unicode="&#xF016;" horiz-adv-x="470" d="M184 0H60V544H184V0ZM323 544H463L309 300L471 0H330L188 297L323 544Z"  />
<glyph unicode="&#xF017;" horiz-adv-x="386" d="M60 0V544H184V84H371V0H60Z"  />
<glyph unicode="&#xF018;" horiz-adv-x="694" d="M524 0V443L407 0H285L166 443V0H60V544H238L349 114L457 544H634V0H524Z"  />
<glyph unicode="&#xF019;" horiz-adv-x="541" d="M315 0L167 434V0H60V544H229L376 110V544H481V0H315Z"  />
<glyph unicode="&#xF01A;" horiz-adv-x="491" d="M327 272Q327 313 326 341T323 387T318 417T309 438Q289 473 246 473Q203 473 183 438Q178 429 175 418T169 388T165 341T164 272Q164 231 165 203T168 157T174 127T183 106Q203 71 246 71Q289 71 309 106Q314 115 317 126T323 156T326 203T327 272ZM246 -12Q120 -12 72 68Q63 84 57 101T46 141T40 196T38 272Q38 314 40 345T46 399T56 441T72 475Q95 514 138 535T246 556Q373 556 420 477Q429 461 435 444T446 403T451 348T453 272Q453 230 451 199T445 145T435 103T419 69Q396 30 353 9T246 -12Z"  />
<glyph unicode="&#xF01B;" horiz-adv-x="463" d="M443 384Q443 331 429 298T388 247T322 222T233 215H184V0H60V544H245Q348 544 395 509T443 384ZM318 383Q318 428 296 444T222 461H184V298H219Q271 298 294 316T318 383Z"  />
<glyph unicode="&#xF01C;" horiz-adv-x="498" d="M239 -9Q175 -9 135 10T72 68Q63 84 57 101T46 141T40 196T38 272Q38 314 40 345T46 399T56 441T72 475Q95 514 138 535T246 556Q373 556 420 477Q429 461 435 444T446 403T451 348T453 272Q453 229 450 199T441 145T425 104T400 69Q419 72 442 74T496 76V0H402Q382 0 363 -1T321 -5Q301 -7 281 -8T239 -9ZM327 272Q327 313 326 341T323 387T318 417T309 438Q289 473 246 473Q203 473 183 438Q178 429 175 418T169 388T165 341T164 272Q164 231 165 203T168 157T174 127T183 106Q203 71 246 71Q289 71 309 106Q314 115 317 126T323 156T326 203T327 272Z"  />
<glyph unicode="&#xF01D;" horiz-adv-x="487" d="M317 0Q312 22 311 51T310 104Q310 136 308 157T300 193Q292 212 274 219T221 226H184V0H60V544H252Q294 544 328 539T388 517T427 474T441 401Q441 353 424 319T357 269Q386 264 401 251T423 217Q429 200 431 172T433 114Q433 91 436 60T447 0H317ZM316 390Q316 432 294 446T229 461H184V309H223Q274 309 295 326T316 390Z"  />
<glyph unicode="&#xF01E;" horiz-adv-x="441" d="M413 142Q413 100 399 71T358 24T297 -3T218 -12Q165 -12 128 -1T69 31T36 85T26 159V169H149V158Q149 139 152 123T162 96T183 78T219 71Q290 71 290 137Q290 153 287 164T275 184T251 201T213 220L169 240Q134 256 109 271T68 305T43 348T35 405Q35 481 84 518T226 556Q312 556 358 519T405 412V390H284V408Q284 435 272 455T222 475Q190 475 174 459T158 416Q158 401 161 391T174 371T200 352T244 330L288 310Q322 295 346 280T385 245T406 200T413 142Z"  />
<glyph unicode="&#xF01F;" horiz-adv-x="408" d="M266 459V0H142V459H3V544H405V459H266Z"  />
<glyph unicode="&#xF020;" horiz-adv-x="518" d="M463 178Q463 84 415 36T257 -12Q200 -12 162 1T100 40T66 102T55 185V544H179V192Q179 165 182 143T193 105T217 80T259 71Q285 71 301 80T325 104T337 142T340 191V544H463V178H463Z"  />
<glyph unicode="&#xF021;" horiz-adv-x="471" d="M301 0H160L8 544H137L236 119L340 544H463L301 0Z"  />
<glyph unicode="&#xF022;" horiz-adv-x="723" d="M582 0H444L365 424L271 0H133L11 544H142L208 129L297 544H436L520 129L595 544H712L582 0Z"  />
<glyph unicode="&#xF023;" horiz-adv-x="464" d="M325 0L230 200L129 0H2L162 283L14 544H152L240 359L329 544H457L306 279L462 0H325Z"  />
<glyph unicode="&#xF024;" horiz-adv-x="447" d="M283 203V0H159V203L-3 544H134L226 304L322 544H450L283 203Z"  />
<glyph unicode="&#xF025;" horiz-adv-x="415" d="M18 0V89L258 459H32V544H393V455L153 84H397V0H18Z"  />
<glyph unicode="&#xF026;" horiz-adv-x="487" d="M328 122H154L120 0H-1L168 544H321L488 0H362L328 122ZM177 205H306L242 441L177 205ZM225 623L84 766H207L301 623H225Z"  />
<glyph unicode="&#xF027;" horiz-adv-x="487" d="M328 122H154L120 0H-1L168 544H321L488 0H362L328 122ZM177 205H306L242 441L177 205ZM271 623H196L289 766H412L271 623Z"  />
<glyph unicode="&#xF028;" horiz-adv-x="487" d="M328 122H154L120 0H-1L168 544H321L488 0H362L328 122ZM177 205H306L242 441L177 205ZM319 623L242 710L165 623H86L190 766H294L398 623H319Z"  />
<glyph unicode="&#xF029;" horiz-adv-x="487" d="M328 122H154L120 0H-1L168 544H321L488 0H362L328 122ZM177 205H306L242 441L177 205ZM412 749Q409 728 402 709T383 673T352 648T311 638Q291 638 273 644T238 656T203 669T166 675Q147 675 137 662T123 631H70Q73 653 81 673T102 708T133 733T176 743Q195 743 212 737T247 724T281 710T313 704Q334 704 344 717T359 749H412Z"  />
<glyph unicode="&#xF02A;" horiz-adv-x="487" d="M328 122H154L120 0H-1L168 544H321L488 0H362L328 122ZM177 205H306L242 441L177 205ZM276 645V753H378V645H276ZM106 645V753H208V645H106Z"  />
<glyph unicode="&#xF02B;" horiz-adv-x="487" d="M328 122H154L120 0H-1L168 544H321L488 0H362L328 122ZM177 205H306L242 441L177 205ZM102 664V725H382V664H102Z"  />
<glyph unicode="&#xF02C;" horiz-adv-x="487" d="M328 122H154L120 0H-1L168 544H321L488 0H362L328 122ZM177 205H306L242 441L177 205ZM400 765Q392 696 350 661T238 626Q170 626 131 662T86 765H140Q148 724 177 707T245 689Q285 689 312 706T347 765H400Z"  />
<glyph unicode="&#xF02D;" horiz-adv-x="487" d="M328 122H154L120 0H-1L168 544H321L488 0H362L328 122ZM177 205H306L242 441L177 205ZM143 706Q143 727 150 745T171 776T203 797T243 805Q264 805 282 798T313 777T335 745T343 706Q343 685 335 667T314 636T282 615T243 607Q222 607 204 614T172 635T151 667T143 706ZM185 706Q185 680 201 663T243 646Q268 646 284 663T301 706Q301 732 285 749T243 766Q218 766 202 749T185 706Z"  />
<glyph unicode="&#xF02E;" horiz-adv-x="487" d="M177 205H306L242 441L177 205ZM502 -179Q482 -193 462 -199T418 -206Q385 -206 360 -190T334 -137Q334 -114 343 -94T366 -57T399 -26T434 0H362L328 122H154L120 0H-1L168 544H321L488 0Q453 -25 430 -48T406 -104Q406 -127 421 -138T457 -150Q479 -150 501 -139L502 -179Z"  />
<glyph unicode="&#xF02F;" horiz-adv-x="657" d="M432 241L460 84H632V0H354L333 121H161L118 0H-2L205 544H625V459H393L417 325H610V241H432ZM190 204H319L278 452L190 204Z"  />
<glyph unicode="&#xF030;" horiz-adv-x="458" d="M436 163Q436 71 385 30T237 -12Q174 -12 134 8T71 66Q61 82 55 101T45 145T40 201T38 273Q38 342 44 389T71 474Q91 509 133 532T246 556Q344 556 387 511T431 391V375H309V389Q309 423 296 448T244 473Q221 473 207 464T183 438Q172 417 168 378T164 273Q164 233 165 206T168 160T173 129T182 106Q199 71 243 71Q282 71 297 96T313 167V183H436V163ZM250 623H175L268 766H391L250 623Z"  />
<glyph unicode="&#xF031;" horiz-adv-x="458" d="M436 163Q436 71 385 30T237 -12Q174 -12 134 8T71 66Q61 82 55 101T45 145T40 201T38 273Q38 342 44 389T71 474Q91 509 133 532T246 556Q344 556 387 511T431 391V375H309V389Q309 423 296 448T244 473Q221 473 207 464T183 438Q172 417 168 378T164 273Q164 233 165 206T168 160T173 129T182 106Q199 71 243 71Q282 71 297 96T313 167V183H436V163ZM324 623L247 710L170 623H91L195 766H299L403 623H324Z"  />
<glyph unicode="&#xF032;" horiz-adv-x="458" d="M436 163Q436 71 385 30T237 -12Q174 -12 134 8T71 66Q61 82 55 101T45 145T40 201T38 273Q38 342 44 389T71 474Q91 509 133 532T246 556Q344 556 387 511T431 391V375H309V389Q309 423 296 448T244 473Q221 473 207 464T183 438Q172 417 168 378T164 273Q164 233 165 206T168 160T173 129T182 106Q199 71 243 71Q282 71 297 96T313 167V183H436V163ZM295 623H191L87 766H166L243 679L320 766H399L295 623Z"  />
<glyph unicode="&#xF033;" horiz-adv-x="458" d="M436 163Q436 71 385 30T237 -12Q174 -12 134 8T71 66Q61 82 55 101T45 145T40 201T38 273Q38 342 44 389T71 474Q91 509 133 532T246 556Q344 556 387 511T431 391V375H309V389Q309 423 296 448T244 473Q221 473 207 464T183 438Q172 417 168 378T164 273Q164 233 165 206T168 160T173 129T182 106Q199 71 243 71Q282 71 297 96T313 167V183H436V163ZM191 645V753H293V645H191Z"  />
<glyph unicode="&#xF034;" horiz-adv-x="458" d="M347 -132Q347 -155 337 -172T310 -200T272 -217T231 -223Q176 -223 128 -199L145 -161Q162 -168 179 -172T214 -176Q234 -176 252 -167T271 -135Q271 -115 258 -107T223 -98Q213 -98 204 -100T185 -106L164 -88L220 -11Q165 -9 128 11T71 66Q61 82 55 101T45 145T40 201T38 273Q38 342 44 389T71 474Q91 509 133 532T246 556Q344 556 387 511T431 391V375H309V389Q309 423 296 448T244 473Q221 473 207 464T183 438Q172 417 168 378T164 273Q164 233 165 206T168 160T173 129T182 106Q199 71 243 71Q282 71 297 96T313 167V183H436V163Q436 78 393 37T267 -11L232 -61Q239 -59 245 -58T261 -56Q295 -56 321 -76T347 -132Z"  />
<glyph unicode="&#xF035;" horiz-adv-x="500" d="M463 284Q463 201 455 146T414 55Q388 27 345 14T232 0H60V544H231Q303 544 347 531T416 489Q445 457 454 408T463 284ZM337 272Q337 327 334 366T313 428Q289 461 224 461H184V83H228Q257 83 276 91T308 115Q327 139 332 177T337 272ZM311 623H207L103 766H182L259 679L336 766H415L311 623Z"  />
<glyph unicode="&#xF036;" horiz-adv-x="500" d="M7 318H60V544H231Q303 544 347 531T416 489Q445 457 454 408T463 284Q463 201 455 146T414 55Q388 27 345 14T232 0H60V253H7V318ZM337 272Q337 327 334 366T313 429Q289 462 224 462H184V318H269V253H184V82H228Q257 82 276 90T308 114Q327 138 332 177T337 272Z"  />
<glyph unicode="&#xF037;" horiz-adv-x="500" d="M7 318H60V544H231Q303 544 347 531T416 489Q445 457 454 408T463 284Q463 201 455 146T414 55Q388 27 345 14T232 0H60V253H7V318ZM337 272Q337 327 334 366T313 429Q289 462 224 462H184V318H269V253H184V82H228Q257 82 276 90T308 114Q327 138 332 177T337 272Z"  />
<glyph unicode="&#xF038;" horiz-adv-x="422" d="M60 0V544H388V459H184V325H373V241H184V84H395V0H60ZM228 623L87 766H210L304 623H228Z"  />
<glyph unicode="&#xF039;" horiz-adv-x="422" d="M60 0V544H388V459H184V325H373V241H184V84H395V0H60ZM230 623H155L248 766H371L230 623Z"  />
<glyph unicode="&#xF03A;" horiz-adv-x="422" d="M60 0V544H388V459H184V325H373V241H184V84H395V0H60ZM306 623L229 710L152 623H73L177 766H281L385 623H306Z"  />
<glyph unicode="&#xF03B;" horiz-adv-x="422" d="M60 0V544H388V459H184V325H373V241H184V84H395V0H60ZM279 623H175L71 766H150L227 679L304 766H383L279 623Z"  />
<glyph unicode="&#xF03C;" horiz-adv-x="422" d="M60 0V544H388V459H184V325H373V241H184V84H395V0H60ZM262 645V753H364V645H262ZM92 645V753H194V645H92Z"  />
<glyph unicode="&#xF03D;" horiz-adv-x="422" d="M60 0V544H388V459H184V325H373V241H184V84H395V0H60ZM83 664V725H363V664H83Z"  />
<glyph unicode="&#xF03E;" horiz-adv-x="422" d="M60 0V544H388V459H184V325H373V241H184V84H395V0H60ZM383 765Q375 696 333 661T221 626Q153 626 114 662T69 765H123Q131 724 160 707T228 689Q268 689 295 706T330 765H383Z"  />
<glyph unicode="&#xF03F;" horiz-adv-x="422" d="M60 0V544H388V459H184V325H373V241H184V84H395V0H60ZM178 645V753H280V645H178Z"  />
<glyph unicode="&#xF040;" horiz-adv-x="422" d="M409 -179Q389 -193 369 -199T325 -206Q292 -206 267 -190T241 -137Q241 -114 250 -94T273 -57T306 -26T341 0H60V544H388V459H184V325H373V241H184V84H395V0Q360 -25 337 -48T313 -104Q313 -127 328 -138T364 -150Q386 -150 408 -139L409 -179H409Z"  />
<glyph unicode="&#xF041;" horiz-adv-x="489" d="M323 379V390Q323 428 306 450T251 473Q203 473 183 438Q177 427 174 413T168 380T165 334T164 272Q164 201 168 164T183 106Q194 86 209 79T251 71Q268 71 287 74T324 82V210H242V292H443V22Q398 8 349 -2T254 -12Q175 -12 133 10T71 67Q50 104 44 152T38 272Q38 337 43 387T72 476Q94 512 135 534T249 556Q348 556 396 512T445 391V379H323ZM326 623L249 710L172 623H93L197 766H301L405 623H326Z"  />
<glyph unicode="&#xF042;" horiz-adv-x="489" d="M323 379V390Q323 428 306 450T251 473Q203 473 183 438Q177 427 174 413T168 380T165 334T164 272Q164 201 168 164T183 106Q194 86 209 79T251 71Q268 71 287 74T324 82V210H242V292H443V22Q398 8 349 -2T254 -12Q175 -12 133 10T71 67Q50 104 44 152T38 272Q38 337 43 387T72 476Q94 512 135 534T249 556Q348 556 396 512T445 391V379H323ZM407 765Q399 696 357 661T245 626Q177 626 138 662T93 765H147Q155 724 184 707T252 689Q292 689 319 706T354 765H407Z"  />
<glyph unicode="&#xF043;" horiz-adv-x="489" d="M323 379V390Q323 428 306 450T251 473Q203 473 183 438Q177 427 174 413T168 380T165 334T164 272Q164 201 168 164T183 106Q194 86 209 79T251 71Q268 71 287 74T324 82V210H242V292H443V22Q398 8 349 -2T254 -12Q175 -12 133 10T71 67Q50 104 44 152T38 272Q38 337 43 387T72 476Q94 512 135 534T249 556Q348 556 396 512T445 391V379H323ZM200 645V753H302V645H200Z"  />
<glyph unicode="&#xF044;" horiz-adv-x="489" d="M323 379V390Q323 428 306 450T251 473Q203 473 183 438Q177 427 174 413T168 380T165 334T164 272Q164 201 168 164T183 106Q194 86 209 79T251 71Q268 71 287 74T324 82V210H242V292H443V22Q398 8 349 -2T254 -12Q175 -12 133 10T71 67Q50 104 44 152T38 272Q38 337 43 387T72 476Q94 512 135 534T249 556Q348 556 396 512T445 391V379H323ZM271 -213H186L220 -54H326L271 -213Z"  />
<glyph unicode="&#xF045;" horiz-adv-x="521" d="M336 0V241H184V0H60V544H184V324H336V544H460V0H336ZM337 623L260 710L183 623H104L208 766H312L416 623H337Z"  />
<glyph unicode="&#xF046;" horiz-adv-x="521" d="M336 0V241H184V0H60V544H184V445H336V544H460V0H336ZM336 324V367H184V324H336Z"  />
<glyph unicode="&#xF047;" horiz-adv-x="244" d="M60 0V544H184V0H60ZM111 623L-30 766H93L187 623H111Z"  />
<glyph unicode="&#xF048;" horiz-adv-x="244" d="M60 0V544H184V0H60ZM141 623H66L159 766H282L141 623Z"  />
<glyph unicode="&#xF049;" horiz-adv-x="244" d="M60 0V544H184V0H60ZM279 765Q271 696 229 661T117 626Q49 626 10 662T-35 765H19Q27 724 56 707T124 689Q164 689 191 706T226 765H279Z"  />
<glyph unicode="&#xF04A;" horiz-adv-x="244" d="M60 0V544H184V0H60ZM199 623L122 710L45 623H-34L70 766H174L278 623H199Z"  />
<glyph unicode="&#xF04B;" horiz-adv-x="244" d="M60 0V544H184V0H60ZM293 749Q290 728 283 709T264 673T233 648T192 638Q172 638 154 644T119 656T84 669T47 675Q28 675 18 662T4 631H-49Q-46 653 -38 673T-17 708T14 733T57 743Q76 743 93 737T128 724T162 710T194 704Q215 704 225 717T240 749H293Z"  />
<glyph unicode="&#xF04C;" horiz-adv-x="244" d="M60 0V544H184V0H60ZM156 645V753H258V645H156ZM-14 645V753H88V645H-14Z"  />
<glyph unicode="&#xF04D;" horiz-adv-x="244" d="M60 0V544H184V0H60ZM-18 664V725H262V664H-18Z"  />
<glyph unicode="&#xF04E;" horiz-adv-x="244" d="M198 -179Q178 -193 158 -199T114 -206Q81 -206 56 -190T30 -137Q30 -114 39 -94T62 -57T95 -26T130 0H60V544H184V0Q149 -25 126 -48T102 -104Q102 -127 117 -138T153 -150Q175 -150 197 -139L198 -179H198Z"  />
<glyph unicode="&#xF04F;" horiz-adv-x="422" d="M367 163Q367 70 324 29T185 -12Q137 -12 104 -1T51 31T23 82T14 153V181H138V165Q138 147 139 131T145 101T160 80T190 72Q209 72 220 80T236 100T242 127T243 158V544H367V163ZM384 623L307 710L230 623H151L255 766H359L463 623H384Z"  />
<glyph unicode="&#xF050;" horiz-adv-x="470" d="M184 0H60V544H184V0ZM323 544H463L309 300L471 0H330L188 297L323 544ZM260 -213H175L209 -54H315L260 -213Z"  />
<glyph unicode="&#xF051;" horiz-adv-x="386" d="M60 0V544H184V84H371V0H60ZM144 623H69L162 766H285L144 623Z"  />
<glyph unicode="&#xF052;" horiz-adv-x="386" d="M60 0V544H184V84H371V0H60ZM321 357H236L259 544H373L321 357Z"  />
<glyph unicode="&#xF053;" horiz-adv-x="386" d="M60 0V544H184V84H371V0H60ZM224 -213H139L173 -54H279L224 -213Z"  />
<glyph unicode="&#xF054;" horiz-adv-x="391" d="M60 0V217L25 199V275L60 293V544H184V355L253 391V315L184 279V84H371V0H60Z"  />
<glyph unicode="&#xF055;" horiz-adv-x="386" d="M60 0V544H184V84H371V0H60ZM251 260V368H353V260H251Z"  />
<glyph unicode="&#xF056;" horiz-adv-x="541" d="M315 0L167 434V0H60V544H229L376 110V544H481V0H315ZM273 623H198L291 766H414L273 623Z"  />
<glyph unicode="&#xF057;" horiz-adv-x="541" d="M315 0L167 434V0H60V544H229L376 110V544H481V0H315ZM322 623H218L114 766H193L270 679L347 766H426L322 623Z"  />
<glyph unicode="&#xF058;" horiz-adv-x="541" d="M315 0L167 434V0H60V544H229L376 110V544H481V0H315ZM444 749Q441 728 434 709T415 673T384 648T343 638Q323 638 305 644T270 656T235 669T198 675Q179 675 169 662T155 631H102Q105 653 113 673T134 708T165 733T208 743Q227 743 244 737T279 724T313 710T345 704Q366 704 376 717T391 749H444Z"  />
<glyph unicode="&#xF059;" horiz-adv-x="541" d="M315 0L167 434V0H60V544H229L376 110V544H481V0H315ZM293 -213H208L242 -54H348L293 -213Z"  />
<glyph unicode="&#xF05A;" horiz-adv-x="491" d="M327 272Q327 313 326 341T323 387T318 417T309 438Q289 473 246 473Q203 473 183 438Q178 429 175 418T169 388T165 341T164 272Q164 231 165 203T168 157T174 127T183 106Q203 71 246 71Q289 71 309 106Q314 115 317 126T323 156T326 203T327 272ZM246 -12Q120 -12 72 68Q63 84 57 101T46 141T40 196T38 272Q38 314 40 345T46 399T56 441T72 475Q95 514 138 535T246 556Q373 556 420 477Q429 461 435 444T446 403T451 348T453 272Q453 230 451 199T445 145T435 103T419 69Q396 30 353 9T246 -12ZM254 623L113 766H236L330 623H254Z"  />
<glyph unicode="&#xF05B;" horiz-adv-x="491" d="M327 272Q327 313 326 341T323 387T318 417T309 438Q289 473 246 473Q203 473 183 438Q178 429 175 418T169 388T165 341T164 272Q164 231 165 203T168 157T174 127T183 106Q203 71 246 71Q289 71 309 106Q314 115 317 126T323 156T326 203T327 272ZM246 -12Q120 -12 72 68Q63 84 57 101T46 141T40 196T38 272Q38 314 40 345T46 399T56 441T72 475Q95 514 138 535T246 556Q373 556 420 477Q429 461 435 444T446 403T451 348T453 272Q453 230 451 199T445 145T435 103T419 69Q396 30 353 9T246 -12ZM239 623H164L257 766H380L239 623Z"  />
<glyph unicode="&#xF05C;" horiz-adv-x="491" d="M327 272Q327 313 326 341T323 387T318 417T309 438Q289 473 246 473Q203 473 183 438Q178 429 175 418T169 388T165 341T164 272Q164 231 165 203T168 157T174 127T183 106Q203 71 246 71Q289 71 309 106Q314 115 317 126T323 156T326 203T327 272ZM246 -12Q120 -12 72 68Q63 84 57 101T46 141T40 196T38 272Q38 314 40 345T46 399T56 441T72 475Q95 514 138 535T246 556Q373 556 420 477Q429 461 435 444T446 403T451 348T453 272Q453 230 451 199T445 145T435 103T419 69Q396 30 353 9T246 -12ZM322 623L245 710L168 623H89L193 766H297L401 623H322Z"  />
<glyph unicode="&#xF05D;" horiz-adv-x="491" d="M327 272Q327 313 326 341T323 387T318 417T309 438Q289 473 246 473Q203 473 183 438Q178 429 175 418T169 388T165 341T164 272Q164 231 165 203T168 157T174 127T183 106Q203 71 246 71Q289 71 309 106Q314 115 317 126T323 156T326 203T327 272ZM246 -12Q120 -12 72 68Q63 84 57 101T46 141T40 196T38 272Q38 314 40 345T46 399T56 441T72 475Q95 514 138 535T246 556Q373 556 420 477Q429 461 435 444T446 403T451 348T453 272Q453 230 451 199T445 145T435 103T419 69Q396 30 353 9T246 -12ZM416 749Q413 728 406 709T387 673T356 648T315 638Q295 638 277 644T242 656T207 669T170 675Q151 675 141 662T127 631H74Q77 653 85 673T106 708T137 733T180 743Q199 743 216 737T251 724T285 710T317 704Q338 704 348 717T363 749H416Z"  />
<glyph unicode="&#xF05E;" horiz-adv-x="491" d="M327 272Q327 313 326 341T323 387T318 417T309 438Q289 473 246 473Q203 473 183 438Q178 429 175 418T169 388T165 341T164 272Q164 231 165 203T168 157T174 127T183 106Q203 71 246 71Q289 71 309 106Q314 115 317 126T323 156T326 203T327 272ZM246 -12Q120 -12 72 68Q63 84 57 101T46 141T40 196T38 272Q38 314 40 345T46 399T56 441T72 475Q95 514 138 535T246 556Q373 556 420 477Q429 461 435 444T446 403T451 348T453 272Q453 230 451 199T445 145T435 103T419 69Q396 30 353 9T246 -12ZM279 645V753H381V645H279ZM109 645V753H211V645H109Z"  />
<glyph unicode="&#xF05F;" horiz-adv-x="491" d="M327 272Q327 313 326 341T323 387T318 417T309 438Q289 473 246 473Q203 473 183 438Q178 429 175 418T169 388T165 341T164 272Q164 231 165 203T168 157T174 127T183 106Q203 71 246 71Q289 71 309 106Q314 115 317 126T323 156T326 203T327 272ZM246 -12Q120 -12 72 68Q63 84 57 101T46 141T40 196T38 272Q38 314 40 345T46 399T56 441T72 475Q95 514 138 535T246 556Q373 556 420 477Q429 461 435 444T446 403T451 348T453 272Q453 230 451 199T445 145T435 103T419 69Q396 30 353 9T246 -12ZM105 664V725H385V664H105Z"  />
<glyph unicode="&#xF060;" horiz-adv-x="491" d="M327 272Q327 313 326 341T323 387T318 417T309 438Q289 473 246 473Q203 473 183 438Q178 429 175 418T169 388T165 341T164 272Q164 231 165 203T168 157T174 127T183 106Q203 71 246 71Q289 71 309 106Q314 115 317 126T323 156T326 203T327 272ZM246 -12Q120 -12 72 68Q63 84 57 101T46 141T40 196T38 272Q38 314 40 345T46 399T56 441T72 475Q95 514 138 535T246 556Q373 556 420 477Q429 461 435 444T446 403T451 348T453 272Q453 230 451 199T445 145T435 103T419 69Q396 30 353 9T246 -12ZM402 765Q394 696 352 661T240 626Q172 626 133 662T88 765H142Q150 724 179 707T247 689Q287 689 314 706T349 765H402Z"  />
<glyph unicode="&#xF061;" horiz-adv-x="491" d="M327 272Q327 313 326 341T323 387T318 417T309 438Q289 473 246 473Q203 473 183 438Q178 429 175 418T169 388T165 341T164 272Q164 231 165 203T168 157T174 127T183 106Q203 71 246 71Q289 71 309 106Q314 115 317 126T323 156T326 203T327 272ZM246 -12Q120 -12 72 68Q63 84 57 101T46 141T40 196T38 272Q38 314 40 345T46 399T56 441T72 475Q95 514 138 535T246 556Q373 556 420 477Q429 461 435 444T446 403T451 348T453 272Q453 230 451 199T445 145T435 103T419 69Q396 30 353 9T246 -12ZM347 623H272L365 766H489L347 623ZM172 623H97L190 766H314L172 623Z"  />
<glyph unicode="&#xF062;" horiz-adv-x="493" d="M9 -16L72 69Q63 85 57 102T46 142T41 197T39 272Q39 314 41 345T47 399T57 441T73 475Q96 514 139 535T247 556Q344 556 394 509L447 581L491 549L428 463Q435 448 440 432T448 393T452 341T454 272Q454 230 452 199T446 145T436 103T420 69Q397 30 354 9T247 -12Q159 -12 108 28L53 -47L9 -16ZM165 272Q165 249 165 231T166 198L320 408Q318 418 316 425T310 438Q290 473 247 473Q204 473 184 438Q179 429 176 418T170 388T166 341T165 272ZM328 272Q328 288 328 301T327 326L177 122Q180 112 184 106Q204 71 247 71Q290 71 310 106Q315 115 318 126T324 156T327 203T328 272Z"  />
<glyph unicode="&#xF063;" horiz-adv-x="669" d="M390 0Q376 0 361 0T332 -2Q318 -3 303 -3T272 -3Q205 -3 160 10T88 53T50 133T38 256Q38 326 46 380T79 472T149 528T269 547Q277 547 296 547T333 545Q350 544 361 544T387 544H637V459H441V325H622V241H441V84H644V0H390ZM319 465H286Q241 465 216 454T179 417T165 351T162 255Q162 208 165 175T179 120T211 88T271 78Q283 78 294 78T319 80V465Z"  />
<glyph unicode="&#xF064;" horiz-adv-x="487" d="M317 0Q312 22 311 51T310 104Q310 136 308 157T300 193Q292 212 274 219T221 226H184V0H60V544H252Q294 544 328 539T388 517T427 474T441 401Q441 353 424 319T357 269Q386 264 401 251T423 217Q429 200 431 172T433 114Q433 91 436 60T447 0H317ZM316 390Q316 432 294 446T229 461H184V309H223Q274 309 295 326T316 390ZM236 623H161L254 766H377L236 623Z"  />
<glyph unicode="&#xF065;" horiz-adv-x="487" d="M317 0Q312 22 311 51T310 104Q310 136 308 157T300 193Q292 212 274 219T221 226H184V0H60V544H252Q294 544 328 539T388 517T427 474T441 401Q441 353 424 319T357 269Q386 264 401 251T423 217Q429 200 431 172T433 114Q433 91 436 60T447 0H317ZM316 390Q316 432 294 446T229 461H184V309H223Q274 309 295 326T316 390ZM250 -213H165L199 -54H305L250 -213Z"  />
<glyph unicode="&#xF066;" horiz-adv-x="487" d="M317 0Q312 22 311 51T310 104Q310 136 308 157T300 193Q292 212 274 219T221 226H184V0H60V544H252Q294 544 328 539T388 517T427 474T441 401Q441 353 424 319T357 269Q386 264 401 251T423 217Q429 200 431 172T433 114Q433 91 436 60T447 0H317ZM316 390Q316 432 294 446T229 461H184V309H223Q274 309 295 326T316 390ZM290 623H186L82 766H161L238 679L315 766H394L290 623Z"  />
<glyph unicode="&#xF067;" horiz-adv-x="440" d="M413 142Q413 100 399 71T358 24T297 -3T218 -12Q165 -12 128 -1T69 31T36 85T26 159V169H149V158Q149 139 152 123T162 96T183 78T219 71Q290 71 290 137Q290 153 287 164T275 184T251 201T213 220L169 240Q134 256 109 271T68 305T43 348T35 405Q35 481 84 518T226 556Q312 556 358 519T405 412V390H284V408Q284 435 272 455T222 475Q190 475 174 459T158 416Q158 401 161 391T174 371T200 352T244 330L288 310Q322 295 346 280T385 245T406 200T413 142ZM220 623H145L238 766H361L220 623Z"  />
<glyph unicode="&#xF068;" horiz-adv-x="440" d="M413 142Q413 100 399 71T358 24T297 -3T218 -12Q165 -12 128 -1T69 31T36 85T26 159V169H149V158Q149 139 152 123T162 96T183 78T219 71Q290 71 290 137Q290 153 287 164T275 184T251 201T213 220L169 240Q134 256 109 271T68 305T43 348T35 405Q35 481 84 518T226 556Q312 556 358 519T405 412V390H284V408Q284 435 272 455T222 475Q190 475 174 459T158 416Q158 401 161 391T174 371T200 352T244 330L288 310Q322 295 346 280T385 245T406 200T413 142ZM298 623L221 710L144 623H65L169 766H273L377 623H298Z"  />
<glyph unicode="&#xF069;" horiz-adv-x="440" d="M413 142Q413 100 399 71T358 24T297 -3T218 -12Q165 -12 128 -1T69 31T36 85T26 159V169H149V158Q149 139 152 123T162 96T183 78T219 71Q290 71 290 137Q290 153 287 164T275 184T251 201T213 220L169 240Q134 256 109 271T68 305T43 348T35 405Q35 481 84 518T226 556Q312 556 358 519T405 412V390H284V408Q284 435 272 455T222 475Q190 475 174 459T158 416Q158 401 161 391T174 371T200 352T244 330L288 310Q322 295 346 280T385 245T406 200T413 142ZM275 623H171L67 766H146L223 679L300 766H379L275 623Z"  />
<glyph unicode="&#xF06A;" horiz-adv-x="440" d="M323 -132Q323 -155 313 -172T286 -200T248 -217T207 -223Q152 -223 104 -199L121 -161Q138 -168 155 -172T190 -176Q210 -176 228 -167T247 -135Q247 -115 234 -107T199 -98Q189 -98 180 -100T161 -106L140 -88L196 -11Q102 -6 64 36T26 159V169H149V158Q149 139 152 123T162 96T183 78T219 71Q290 71 290 137Q290 153 287 164T275 184T251 201T213 220L169 240Q134 256 109 271T68 305T43 348T35 405Q35 481 84 518T226 556Q312 556 358 519T405 412V390H284V408Q284 435 272 455T222 475Q190 475 174 459T158 416Q158 401 161 391T174 371T200 352T244 330L288 310Q322 295 346 280T385 245T406 200T413 142Q413 65 366 29T243 -11L208 -61Q215 -59 221 -58T237 -56Q271 -56 297 -76T323 -132Z"  />
<glyph unicode="&#xF06B;" horiz-adv-x="440" d="M413 142Q413 100 399 71T358 24T297 -3T218 -12Q165 -12 128 -1T69 31T36 85T26 159V169H149V158Q149 139 152 123T162 96T183 78T219 71Q290 71 290 137Q290 153 287 164T275 184T251 201T213 220L169 240Q134 256 109 271T68 305T43 348T35 405Q35 481 84 518T226 556Q312 556 358 519T405 412V390H284V408Q284 435 272 455T222 475Q190 475 174 459T158 416Q158 401 161 391T174 371T200 352T244 330L288 310Q322 295 346 280T385 245T406 200T413 142ZM230 -213H145L179 -54H285L230 -213Z"  />
<glyph unicode="&#xF06C;" horiz-adv-x="408" d="M266 459V0H142V459H3V544H405V459H266ZM256 623H152L48 766H127L204 679L281 766H360L256 623Z"  />
<glyph unicode="&#xF06D;" horiz-adv-x="408" d="M266 459V0H142V459H3V544H405V459H266ZM205 -213H120L154 -54H260L205 -213Z"  />
<glyph unicode="&#xF06E;" horiz-adv-x="408" d="M31 240V321H142V459H3V544H405V459H266V321H377V240H266V0H142V240H31Z"  />
<glyph unicode="&#xF06F;" horiz-adv-x="463" d="M245 445Q348 445 395 410T443 284Q443 231 429 199T388 148T322 123T233 116H184V0H60V544H184V445H245ZM318 284Q318 329 296 345T222 362H184V199H219Q271 199 294 217T318 284Z"  />
<glyph unicode="&#xF070;" horiz-adv-x="518" d="M463 178Q463 84 415 36T257 -12Q200 -12 162 1T100 40T66 102T55 185V544H179V192Q179 165 182 143T193 105T217 80T259 71Q285 71 301 80T325 104T337 142T340 191V544H463V178ZM253 623L112 766H235L329 623H253Z"  />
<glyph unicode="&#xF071;" horiz-adv-x="518" d="M463 178Q463 84 415 36T257 -12Q200 -12 162 1T100 40T66 102T55 185V544H179V192Q179 165 182 143T193 105T217 80T259 71Q285 71 301 80T325 104T337 142T340 191V544H463V178ZM266 623H191L284 766H407L266 623Z"  />
<glyph unicode="&#xF072;" horiz-adv-x="518" d="M463 178Q463 84 415 36T257 -12Q200 -12 162 1T100 40T66 102T55 185V544H179V192Q179 165 182 143T193 105T217 80T259 71Q285 71 301 80T325 104T337 142T340 191V544H463V178ZM336 623L259 710L182 623H103L207 766H311L415 623H336Z"  />
<glyph unicode="&#xF073;" horiz-adv-x="518" d="M463 178Q463 84 415 36T257 -12Q200 -12 162 1T100 40T66 102T55 185V544H179V192Q179 165 182 143T193 105T217 80T259 71Q285 71 301 80T325 104T337 142T340 191V544H463V178ZM430 749Q427 728 420 709T401 673T370 648T329 638Q309 638 291 644T256 656T221 669T184 675Q165 675 155 662T141 631H88Q91 653 99 673T120 708T151 733T194 743Q213 743 230 737T265 724T299 710T331 704Q352 704 362 717T377 749H430Z"  />
<glyph unicode="&#xF074;" horiz-adv-x="518" d="M463 178Q463 84 415 36T257 -12Q200 -12 162 1T100 40T66 102T55 185V544H179V192Q179 165 182 143T193 105T217 80T259 71Q285 71 301 80T325 104T337 142T340 191V544H463V178ZM293 645V753H395V645H293ZM123 645V753H225V645H123Z"  />
<glyph unicode="&#xF075;" horiz-adv-x="518" d="M463 178Q463 84 415 36T257 -12Q200 -12 162 1T100 40T66 102T55 185V544H179V192Q179 165 182 143T193 105T217 80T259 71Q285 71 301 80T325 104T337 142T340 191V544H463V178ZM119 664V725H399V664H119Z"  />
<glyph unicode="&#xF076;" horiz-adv-x="518" d="M463 178Q463 84 415 36T257 -12Q200 -12 162 1T100 40T66 102T55 185V544H179V192Q179 165 182 143T193 105T217 80T259 71Q285 71 301 80T325 104T337 142T340 191V544H463V178ZM416 765Q408 696 366 661T254 626Q186 626 147 662T102 765H156Q164 724 193 707T261 689Q301 689 328 706T363 765H416Z"  />
<glyph unicode="&#xF077;" horiz-adv-x="518" d="M463 178Q463 84 415 36T257 -12Q200 -12 162 1T100 40T66 102T55 185V544H179V192Q179 165 182 143T193 105T217 80T259 71Q285 71 301 80T325 104T337 142T340 191V544H463V178ZM159 706Q159 727 166 745T187 776T219 797T259 805Q280 805 298 798T329 777T351 745T359 706Q359 685 351 667T330 636T298 615T259 607Q238 607 220 614T188 635T167 667T159 706ZM201 706Q201 680 217 663T259 646Q284 646 300 663T317 706Q317 732 301 749T259 766Q234 766 218 749T201 706Z"  />
<glyph unicode="&#xF078;" horiz-adv-x="518" d="M463 178Q463 84 415 36T257 -12Q200 -12 162 1T100 40T66 102T55 185V544H179V192Q179 165 182 143T193 105T217 80T259 71Q285 71 301 80T325 104T337 142T340 191V544H463V178ZM369 623H294L387 766H511L369 623ZM194 623H119L212 766H336L194 623Z"  />
<glyph unicode="&#xF079;" horiz-adv-x="518" d="M333 -179Q313 -193 293 -199T249 -206Q216 -206 191 -190T165 -137Q165 -96 190 -66T247 -12Q193 -11 157 3T98 42T65 104T55 185V544H179V192Q179 165 182 143T193 105T217 80T259 71Q285 71 301 80T325 104T337 142T340 191V544H463V178Q463 95 426 49T306 -9Q275 -31 256 -53T237 -104Q237 -127 252 -138T288 -150Q310 -150 332 -139L333 -179H333Z"  />
<glyph unicode="&#xF07A;" horiz-adv-x="723" d="M582 0H444L365 424L271 0H133L11 544H142L208 129L297 544H436L520 129L595 544H712L582 0ZM389 623H314L407 766H530L389 623Z"  />
<glyph unicode="&#xF07B;" horiz-adv-x="723" d="M582 0H444L365 424L271 0H133L11 544H142L208 129L297 544H436L520 129L595 544H712L582 0ZM444 623L367 710L290 623H211L315 766H419L523 623H444Z"  />
<glyph unicode="&#xF07C;" horiz-adv-x="723" d="M582 0H444L365 424L271 0H133L11 544H142L208 129L297 544H436L520 129L595 544H712L582 0ZM398 645V753H500V645H398ZM228 645V753H330V645H228Z"  />
<glyph unicode="&#xF07D;" horiz-adv-x="723" d="M582 0H444L365 424L271 0H133L11 544H142L208 129L297 544H436L520 129L595 544H712L582 0ZM354 623L213 766H336L430 623H354Z"  />
<glyph unicode="&#xF07E;" horiz-adv-x="447" d="M283 203V0H159V203L-3 544H134L226 304L322 544H450L283 203ZM246 623H171L264 766H387L246 623Z"  />
<glyph unicode="&#xF07F;" horiz-adv-x="447" d="M283 203V0H159V203L-3 544H134L226 304L322 544H450L283 203ZM303 623L226 710L149 623H70L174 766H278L382 623H303Z"  />
<glyph unicode="&#xF080;" horiz-adv-x="447" d="M283 203V0H159V203L-3 544H134L226 304L322 544H450L283 203ZM261 645V753H363V645H261ZM91 645V753H193V645H91Z"  />
<glyph unicode="&#xF081;" horiz-adv-x="447" d="M283 203V0H159V203L-3 544H134L226 304L322 544H450L283 203ZM228 623L87 766H210L304 623H228Z"  />
<glyph unicode="&#xF082;" horiz-adv-x="415" d="M18 0V89L258 459H32V544H393V455L153 84H397V0H18ZM229 623H154L247 766H370L229 623Z"  />
<glyph unicode="&#xF083;" horiz-adv-x="415" d="M18 0V89L258 459H32V544H393V455L153 84H397V0H18ZM272 623H168L64 766H143L220 679L297 766H376L272 623Z"  />
<glyph unicode="&#xF084;" horiz-adv-x="415" d="M18 0V89L258 459H32V544H393V455L153 84H397V0H18ZM169 645V753H271V645H169Z"  />
<glyph unicode="&#xF085;" horiz-adv-x="665" d="M60 0V544H184V0H60ZM610 163Q610 70 567 29T428 -12Q380 -12 347 -1T294 31T266 82T257 153V181H381V165Q381 147 382 131T388 101T403 80T433 72Q452 72 463 80T479 100T485 127T486 158V544H610V163Z"  />
<glyph unicode="&#xF086;" horiz-adv-x="535" d="M475 -44Q475 -88 466 -117T439 -163T396 -187T339 -194Q326 -194 315 -194T290 -192V-106Q297 -107 302 -107T313 -107Q370 -107 370 -51V0L167 411V0H60V544H209L370 207V544H475V-44Z"  />
<glyph unicode="&#xF087;" horiz-adv-x="244" d="M60 0V544H184V0H60Z"  />
<glyph unicode="&#xF088;" horiz-adv-x="301" d="M151 -6Q80 -6 53 32T26 136V282Q26 314 32 340T52 385T91 414T151 424Q187 424 211 414T249 386T270 341T276 282V136Q276 71 249 33T151 -6ZM151 55Q176 55 186 73T197 136V282Q197 327 187 345T151 363Q126 363 116 345T105 282V136Q105 91 115 73T151 55Z"  />
<glyph unicode="&#xF089;" horiz-adv-x="301" d="M126 0V326Q109 312 89 299T49 277V354Q95 377 131 418H210V0H126Z"  />
<glyph unicode="&#xF08A;" horiz-adv-x="301" d="M21 0V66L147 227Q173 259 181 279T190 322Q190 342 179 353T148 364Q120 364 111 346T101 299H24Q24 363 57 393T150 424Q176 424 198 418T237 399T263 366T272 318Q272 256 228 200L120 64H274V0H21Z"  />
<glyph unicode="&#xF08B;" horiz-adv-x="301" d="M276 123Q276 58 246 26T151 -6Q89 -6 61 21T32 115H111Q111 87 119 72T151 57Q175 57 184 72T194 117Q194 159 180 174T136 189H114V246H139Q192 246 192 308Q192 335 185 350T154 365Q133 365 124 350T115 308H38V325Q38 375 69 399T151 424Q208 424 239 399T270 313Q270 284 260 259T219 219Q251 206 263 181T276 123Z"  />
<glyph unicode="&#xF08C;" horiz-adv-x="301" d="M249 96V0H167V95H26V171L137 418H249V160H284V96H249ZM174 342L97 160H172L174 342Z"  />
<glyph unicode="&#xF08D;" horiz-adv-x="301" d="M275 144Q275 107 270 79T251 32T211 4T147 -6Q95 -6 65 20T34 103H113Q113 82 121 70T152 57Q176 57 184 74T193 143Q193 185 185 201T153 217Q132 217 124 205T113 176H37L44 418H260V357H119L114 248Q128 261 144 268T180 275Q233 275 254 243T275 144Z"  />
<glyph unicode="&#xF08E;" horiz-adv-x="301" d="M276 135Q276 102 270 76T250 32T211 4T151 -6Q111 -6 87 5T49 39T32 92T28 165V251Q28 291 34 323T54 377T94 412T158 424Q213 424 241 401T271 323H191Q190 341 183 353T154 365Q126 365 117 337T107 260V235Q120 250 136 259T178 268Q207 268 226 259T256 232T271 190T276 135ZM195 133Q195 172 187 191T152 210Q126 210 117 190T108 134Q108 92 117 73T152 53Q179 53 187 72T195 133Z"  />
<glyph unicode="&#xF08F;" horiz-adv-x="301" d="M158 0H70L191 356H39V418H268V353L158 0Z"  />
<glyph unicode="&#xF090;" horiz-adv-x="301" d="M275 117Q275 58 247 26T150 -6Q86 -6 56 22T26 117Q26 147 36 174T79 218Q52 230 41 254T30 308Q30 366 59 395T150 424Q209 424 240 400T271 315Q271 282 260 258T220 219Q250 206 262 181T275 117ZM192 305Q192 334 185 349T151 365Q126 365 118 350T109 307Q109 281 118 264T150 247Q175 247 183 263T192 305ZM195 119Q195 154 187 171T150 189Q124 189 115 172T106 120Q106 85 115 69T150 53Q176 53 185 69T195 119Z"  />
<glyph unicode="&#xF091;" horiz-adv-x="301" d="M275 188Q275 144 272 108T256 47T218 8T147 -6Q93 -6 64 18T35 100H114Q114 80 122 66T153 52Q177 52 187 72T197 140V185Q183 171 169 162T128 153Q72 153 50 188T28 284Q28 348 55 386T153 424Q190 424 214 414T251 385T270 336T275 268V188ZM196 287Q196 325 188 345T153 365Q125 365 117 345T108 287Q108 249 115 230T152 211Q179 211 187 232T196 287Z"  />
<glyph unicode="&#xF092;" horiz-adv-x="472" d="M432 287Q432 228 428 174T404 79T346 12T236 -13Q166 -13 127 10T69 74T46 168T41 282V479Q41 533 48 580T76 661T137 716T240 736Q303 736 341 718T399 667T425 589T432 490V287ZM307 413Q307 470 306 513T299 587T278 632T238 648Q212 648 198 632T176 586T168 512T167 413V298Q167 250 168 209T175 139T196 92T237 75Q263 75 277 90T298 134T306 203T307 295V413Z"  />
<glyph unicode="&#xF093;" horiz-adv-x="412" d="M170 0V581Q144 555 115 535T53 498V616Q90 636 125 663T187 723H300V0H170Z"  />
<glyph unicode="&#xF094;" horiz-adv-x="472" d="M32 0V106Q49 128 79 172T144 268T209 370T261 453Q279 484 289 514T299 573Q299 604 287 625T236 647Q204 647 189 628T169 574Q167 565 167 556T167 536H43Q43 544 43 554T44 574Q47 618 64 649T107 699T168 728T239 737Q330 737 379 697T429 565Q429 529 419 497T394 435T362 379T329 328Q316 308 295 276T251 210T205 143T167 92H431V0H32Z"  />
<glyph unicode="&#xF095;" horiz-adv-x="472" d="M428 199Q428 91 383 39T230 -13Q177 -13 140 -3T78 32T43 94T31 189H155Q155 167 157 147T167 112T188 87T225 77Q270 77 284 108T299 194Q299 237 293 265T273 309T233 332T168 337V427Q202 427 225 431T264 447T286 482T293 543Q293 564 291 583T281 616T262 639T229 648Q208 648 196 640T176 617T167 586T164 550H42V577Q42 621 56 651T95 700T155 727T232 736Q329 736 375 695T421 553Q421 488 399 443T316 385Q349 378 371 363T405 324T423 270T428 199Z"  />
<glyph unicode="&#xF096;" horiz-adv-x="472" d="M375 174V0H256V174H33V281L208 723H375V265H450V174H375ZM261 631L125 265H261V631Z"  />
<glyph unicode="&#xF097;" horiz-adv-x="472" d="M429 250Q429 189 422 140T393 57T332 5T228 -13Q182 -13 148 -4T90 25T56 80T44 164H169Q169 146 172 130T182 102T201 84T232 77Q255 77 268 88T289 122T298 175T300 247Q300 306 287 342T236 379Q201 379 188 358T171 309H51L64 723H406V632H181L172 416Q196 439 218 451T282 464Q328 464 357 448T402 404T423 336T429 250Z"  />
<glyph unicode="&#xF098;" horiz-adv-x="472" d="M436 226Q436 172 427 128T394 53T333 4T238 -13Q178 -13 141 4T82 57T52 146T44 271V423Q44 483 49 539T76 639T138 709T250 736Q334 736 379 699T425 572H299Q299 604 287 626T241 648Q214 648 199 626T177 569T169 494T167 415V398Q186 421 211 437T283 454Q328 454 357 439T404 395T429 324T436 226ZM309 226Q309 258 307 284T298 329T277 358T239 368Q214 368 200 354T178 318T170 273T168 227Q168 194 170 166T180 118T202 86T238 75Q263 75 277 87T299 120T307 168T309 226Z"  />
<glyph unicode="&#xF099;" horiz-adv-x="452" d="M228 0H91L288 631H38V723H405V621L228 0Z"  />
<glyph unicode="&#xF09A;" horiz-adv-x="472" d="M433 197Q433 146 423 107T389 41T329 1T236 -13Q188 -13 151 -3T90 31T52 96T39 198Q39 224 41 251T54 302T85 345T140 377Q111 385 93 400T65 437T50 485T46 540Q46 640 90 688T236 736Q330 736 378 695T427 552Q427 521 423 494T408 443T377 403T327 377Q359 368 379 353T412 316T428 265T433 197ZM301 532Q301 553 300 573T293 610T273 637T236 648Q213 648 200 638T181 611T174 575T172 535Q172 517 174 497T182 461T202 433T236 422Q258 422 271 432T290 459T299 494T301 532ZM305 203Q305 226 303 249T294 291T274 322T236 334Q213 334 199 322T178 291T169 250T167 206Q167 185 168 162T176 120T197 88T236 75Q261 75 275 87T295 118T303 159T305 203Z"  />
<glyph unicode="&#xF09B;" horiz-adv-x="472" d="M427 297Q427 228 422 171T396 73T336 10T226 -13Q135 -13 93 28T49 161H175Q175 143 177 128T186 101T205 82T236 75Q277 75 290 123T304 254V324Q294 312 284 302T260 285T229 273T188 268Q143 268 114 283T67 327T42 398T35 496Q35 550 45 594T79 669T140 718T233 736Q293 736 330 719T389 666T419 577T427 451V297ZM303 495Q303 565 290 606T233 648Q208 648 194 636T172 603T164 555T162 496Q162 464 164 438T173 393T194 364T232 354Q257 354 271 368T293 404T301 449T303 495Z"  />
<glyph unicode="&#xF09C;" horiz-adv-x="301" d="M151 299Q80 299 53 337T26 441V587Q26 619 32 645T52 690T91 719T151 729Q187 729 211 719T249 691T270 646T276 587V441Q276 376 249 338T151 299ZM151 360Q176 360 186 378T197 441V587Q197 632 187 650T151 668Q126 668 116 650T105 587V441Q105 396 115 378T151 360Z"  />
<glyph unicode="&#xF09D;" horiz-adv-x="301" d="M126 305V631Q109 617 89 604T49 582V659Q95 682 131 723H210V305H126Z"  />
<glyph unicode="&#xF09E;" horiz-adv-x="301" d="M21 305V371L147 532Q173 564 181 584T190 627Q190 647 179 658T148 669Q120 669 111 651T101 604H24Q24 668 57 698T150 729Q176 729 198 723T237 704T263 671T272 623Q272 561 228 505L120 369H274V305H21Z"  />
<glyph unicode="&#xF09F;" horiz-adv-x="301" d="M276 428Q276 363 246 331T151 299Q89 299 61 326T32 420H111Q111 392 119 377T151 362Q175 362 184 377T194 422Q194 464 180 479T136 494H114V551H139Q192 551 192 613Q192 640 185 655T154 670Q133 670 124 655T115 613H38V630Q38 680 69 704T151 729Q208 729 239 704T270 618Q270 589 260 564T219 524Q251 511 263 486T276 428Z"  />
<glyph unicode="&#xF0A0;" horiz-adv-x="301" d="M249 401V305H167V400H26V476L137 723H249V465H284V401H249ZM174 647L97 465H172L174 647Z"  />
<glyph unicode="&#xF0A1;" horiz-adv-x="301" d="M275 449Q275 412 270 384T251 337T211 309T147 299Q95 299 65 325T34 408H113Q113 387 121 375T152 362Q176 362 184 379T193 448Q193 490 185 506T153 522Q132 522 124 510T113 481H37L44 723H260V662H119L114 553Q128 566 144 573T180 580Q233 580 254 548T275 449Z"  />
<glyph unicode="&#xF0A2;" horiz-adv-x="301" d="M276 440Q276 407 270 381T250 337T211 309T151 299Q111 299 87 310T49 344T32 397T28 470V556Q28 596 34 628T54 682T94 717T158 729Q213 729 241 706T271 628H191Q190 646 183 658T154 670Q126 670 117 642T107 565V540Q120 555 136 564T178 573Q207 573 226 564T256 537T271 495T276 440ZM195 438Q195 477 187 496T152 515Q126 515 117 495T108 439Q108 397 117 378T152 358Q179 358 187 377T195 438Z"  />
<glyph unicode="&#xF0A3;" horiz-adv-x="301" d="M158 305H70L191 661H39V723H268V658L158 305Z"  />
<glyph unicode="&#xF0A4;" horiz-adv-x="301" d="M275 422Q275 363 247 331T150 299Q86 299 56 327T26 422Q26 452 36 479T79 523Q52 535 41 559T30 613Q30 671 59 700T150 729Q209 729 240 705T271 620Q271 587 260 563T220 524Q250 511 262 486T275 422ZM192 610Q192 639 185 654T151 670Q126 670 118 655T109 612Q109 586 118 569T150 552Q175 552 183 568T192 610ZM195 424Q195 459 187 476T150 494Q124 494 115 477T106 425Q106 390 115 374T150 358Q176 358 185 374T195 424Z"  />
<glyph unicode="&#xF0A5;" horiz-adv-x="301" d="M275 493Q275 449 272 413T256 352T218 313T147 299Q93 299 64 323T35 405H114Q114 385 122 371T153 357Q177 357 187 377T197 445V490Q183 476 169 467T128 458Q72 458 50 493T28 589Q28 653 55 691T153 729Q190 729 214 719T251 690T270 641T275 573V493ZM196 592Q196 630 188 650T153 670Q125 670 117 650T108 592Q108 554 115 535T152 516Q179 516 187 537T196 592Z"  />
<glyph unicode="&#xF0A6;" horiz-adv-x="472" d="M435 264Q435 186 424 133T389 48T327 2T236 -12Q182 -12 144 2T82 48T47 133T36 264V286Q36 364 47 416T82 501T144 548T236 562Q290 562 327 548T389 502T424 417T435 286V264ZM309 306Q309 401 294 439T236 478Q214 478 200 469T178 439T166 386T163 306V244Q163 196 166 164T177 111T200 81T236 72Q257 72 271 81T294 110T305 164T309 244V306Z"  />
<glyph unicode="&#xF0A7;" horiz-adv-x="472" d="M220 0V421Q194 397 157 376T76 337V443Q97 451 119 463T162 489T202 519T236 550H350V0H220Z"  />
<glyph unicode="&#xF0A8;" horiz-adv-x="472" d="M45 0V92L221 254Q269 298 291 334T313 409Q313 441 298 459T250 477Q212 477 197 454T180 385H56Q59 473 107 517T252 562Q346 562 393 524T441 410Q441 384 435 357T412 302T368 242T298 174L202 91H441V0H45Z"  />
<glyph unicode="&#xF0A9;" horiz-adv-x="472" d="M432 49Q432 -55 387 -105T235 -155Q182 -155 145 -145T83 -113T48 -53T37 39H161Q161 17 163 -2T173 -35T193 -57T230 -65Q275 -65 289 -36T303 44Q303 85 298 110T280 150T246 170T190 176H173V266H190Q219 266 239 271T272 288T291 322T297 376Q297 397 295 415T286 446T267 466T234 474Q213 474 201 466T182 443T173 412T170 376H48V403Q48 447 61 477T100 526T160 553T237 562Q285 562 320 553T379 523T414 469T425 386Q425 321 403 279T320 224Q353 217 375 204T409 169T427 118T432 49Z"  />
<glyph unicode="&#xF0AA;" horiz-adv-x="472" d="M377 0V-143H258V0H35V107L210 550H377V91H452V0H377ZM263 458L127 91H263V458Z"  />
<glyph unicode="&#xF0AB;" horiz-adv-x="472" d="M430 102Q430 41 423 -7T395 -88T335 -138T232 -155Q186 -155 152 -146T96 -117T62 -62T51 22H176Q176 4 178 -12T187 -40T205 -58T236 -65Q259 -65 272 -55T291 -23T299 28T301 99Q301 158 290 191T240 225Q223 225 212 220T193 204T183 182T178 155H58L71 550H410V459H188L179 262Q191 274 201 283T224 298T250 307T286 310Q332 310 360 295T404 251T425 185T430 102Z"  />
<glyph unicode="&#xF0AC;" horiz-adv-x="472" d="M445 223Q445 171 436 128T403 54T343 5T248 -13Q188 -13 151 4T92 57T63 145T55 268V416Q55 473 60 528T87 626T148 696T260 723Q345 723 389 687T434 562H308Q308 591 297 613T251 635Q225 635 211 615T189 563T180 493T178 417V392Q188 404 198 414T222 431T252 443T292 448Q337 448 366 433T413 389T438 318T445 223ZM318 223Q318 254 317 279T308 323T287 352T249 362Q224 362 210 348T189 312T181 267T179 224Q179 191 181 164T191 117T212 86T248 75Q273 75 287 87T308 120T316 167T318 223Z"  />
<glyph unicode="&#xF0AD;" horiz-adv-x="472" d="M250 -143H113L309 458H59V550H426V448L250 -143Z"  />
<glyph unicode="&#xF0AE;" horiz-adv-x="472" d="M432 193Q432 144 422 106T389 41T329 1T236 -13Q188 -13 152 -3T90 31T53 95T40 194Q40 218 42 244T55 295T85 338T140 370Q111 378 93 393T65 430T51 477T47 530Q47 627 90 675T236 723Q330 723 378 682T426 542Q426 513 422 486T407 437T377 397T327 370Q359 361 379 346T411 309T427 258T432 193ZM300 522Q300 541 299 561T292 597T273 624T236 635Q213 635 200 625T181 598T174 563T173 525Q173 508 175 489T183 454T202 426T236 415Q258 415 271 425T290 451T298 486T300 522ZM304 199Q304 220 302 242T294 284T274 315T236 327Q213 327 200 315T179 284T170 243T168 202Q168 183 169 161T177 120T197 88T236 75Q261 75 275 87T295 118T303 158T304 199Z"  />
<glyph unicode="&#xF0AF;" horiz-adv-x="472" d="M429 143Q429 78 424 23T400 -71T340 -133T229 -155Q141 -155 98 -115T53 16H179Q179 0 181 -15T189 -41T208 -60T239 -67Q263 -67 276 -52T296 -11T304 48T306 118V167Q296 155 286 145T262 128T231 116T191 111Q146 111 117 125T71 168T46 237T39 331Q39 383 49 425T82 498T143 545T236 562Q296 562 333 545T392 494T421 408T429 286V143ZM305 330Q305 363 303 389T293 435T272 464T236 474Q211 474 197 463T176 432T168 386T166 331Q166 300 167 275T176 233T197 207T235 197Q260 197 274 210T295 244T303 287T305 330Z"  />
<glyph unicode="&#xF0B0;" horiz-adv-x="472" d="M207 8Q169 11 137 22T82 54T46 107T33 184V225H149V208Q149 157 165 134T207 104V314L196 321Q159 345 130 366T82 411T52 464T41 535Q41 610 81 657T207 713V790H267V714Q351 709 391 669T432 545V520H322V542Q322 571 310 593T267 623V422L293 406Q325 385 352 366T398 323T429 270T440 202Q440 154 428 119T392 61T337 24T267 8V-76H207V8ZM332 183Q332 215 316 235T267 275V102Q301 108 316 129T332 183ZM151 546Q151 521 166 501T207 461V623Q176 616 164 597T151 546Z"  />
<glyph unicode="&#xF0B1;" horiz-adv-x="472" d="M277 264Q277 216 280 182T295 124T328 90T384 79Q426 79 452 94T502 132V18Q482 4 447 -4T370 -13Q308 -13 267 3T199 52T162 138T150 264H65L81 339H150V405H66L81 480H150Q152 541 166 589T208 669T282 719T391 736Q439 736 471 724T526 695L502 587Q489 610 461 627T389 644Q357 644 336 634T302 602T284 551T277 480H471L456 405H277V339H437L421 264H277Z"  />
<glyph unicode="&#xF0B2;" horiz-adv-x="472" d="M271 431Q266 433 260 434T245 435Q215 435 199 420T174 380T165 323T163 256Q163 230 163 213T164 184T165 162T168 142L271 431ZM198 83Q215 69 242 69Q265 69 280 79T304 105T316 140T320 178H428Q428 147 423 114T399 52T343 6T242 -12Q220 -12 202 -10T168 -4L136 -88H76L116 19Q74 49 62 103T49 230Q49 289 54 341T80 432T139 493T245 516Q272 516 295 513L323 598H383L348 499Q390 481 407 441T425 333H317Q317 347 315 362T308 391L198 83Z"  />
<glyph unicode="&#xF0B3;" horiz-adv-x="472" d="M337 556V564Q337 594 324 619T275 644Q254 644 242 636T222 615T213 585T210 551V431H339V339H210V94H438V0H32V94H97V339H29V431H96V472Q96 524 99 572T120 656T174 714T277 736Q361 736 399 698T443 586Q444 578 444 571T444 556H337Z"  />
<glyph unicode="&#xF0B4;" horiz-adv-x="472" d="M318 350H434V275H295V209H434V134H295V0H166V134H27V209H166V275H27V350H147L12 723H153L238 390L329 723H461L318 350Z"  />
<glyph unicode="&#xF0B5;" horiz-adv-x="407" d="M373 215Q373 171 369 130T349 58T298 7T203 -12Q143 -12 109 6T59 54T38 125T34 211V361Q34 402 40 437T64 499T117 541T206 556Q260 556 293 542T344 504T367 445T373 369V215ZM256 336Q256 370 255 397T249 443T234 472T204 482Q185 482 175 472T159 443T152 397T151 336V203Q151 169 152 143T158 99T174 72T204 62Q223 62 233 71T249 99T255 143T256 203V336Z"  />
<glyph unicode="&#xF0B6;" horiz-adv-x="337" d="M132 0V423Q112 406 87 392T35 365V462Q67 477 97 498T150 544H253V0H132Z"  />
<glyph unicode="&#xF0B7;" horiz-adv-x="407" d="M28 0V83L178 268Q200 295 214 317T237 357T248 392T251 425Q251 447 242 464T205 481Q173 481 163 461T153 399H38V420Q38 486 83 521T207 556Q286 556 328 524T371 420Q371 335 287 235L156 76H373V0H28Z"  />
<glyph unicode="&#xF0B8;" horiz-adv-x="407" d="M370 150Q370 70 331 29T199 -12Q111 -12 69 21T27 135V147H142Q142 107 152 85T194 63Q228 63 239 86T250 147Q250 177 246 196T231 227T202 244T155 249H141V324H152Q202 324 223 340T245 407Q245 443 236 463T198 483Q183 483 174 477T159 460T152 436T150 410H36V434Q36 500 81 528T200 556Q285 556 324 524T364 415Q364 370 348 337T288 289Q337 275 353 241T370 150Z"  />
<glyph unicode="&#xF0B9;" horiz-adv-x="407" d="M326 129V0H214V129H28V213L176 544H326V204H388V129H326ZM218 462L106 204H218V462Z"  />
<glyph unicode="&#xF0BA;" horiz-adv-x="407" d="M371 188Q371 142 365 105T340 42T287 2T197 -12Q117 -12 77 18T37 128H154Q154 100 163 82T200 63Q234 63 242 95T251 186Q251 234 241 257T204 281Q178 281 168 265T155 229H43L54 544H351V468H164L155 317Q167 332 188 342T242 352Q282 352 307 340T347 305T366 253T371 188Z"  />
<glyph unicode="&#xF0BB;" horiz-adv-x="407" d="M376 170Q376 129 368 96T340 38T287 1T205 -12Q154 -12 121 1T70 42T44 109T37 204V319Q37 364 42 406T65 482T118 536T215 556Q288 556 327 527T367 427H250Q250 450 242 466T208 483Q173 483 163 450T152 366V306Q166 324 188 334T243 344Q282 344 307 333T348 299T370 244T376 170ZM258 170Q258 193 257 212T251 244T235 265T206 272Q174 272 164 244T153 170Q153 122 162 92T205 62Q240 62 249 92T258 170Z"  />
<glyph unicode="&#xF0BC;" horiz-adv-x="357" d="M185 0H58L222 467H16V544H334V464L185 0Z"  />
<glyph unicode="&#xF0BD;" horiz-adv-x="407" d="M374 150Q374 111 365 81T336 31T284 -1T204 -12Q162 -12 131 -4T77 23T44 73T33 151Q33 169 35 188T45 226T68 259T109 284Q67 298 53 331T39 406Q39 482 77 519T204 556Q285 556 327 525T369 415Q369 371 354 336T295 285Q342 270 358 237T374 150ZM252 400Q252 415 251 429T246 456T232 475T204 483Q187 483 177 476T163 457T157 431T156 402Q156 389 157 375T164 349T178 330T204 322Q220 322 229 329T244 348T250 373T252 400ZM255 154Q255 170 254 187T247 217T231 239T204 248Q186 248 176 240T161 218T154 188T152 157Q152 142 153 126T159 95T175 72T204 62Q222 62 232 71T248 93T254 123T255 154Z"  />
<glyph unicode="&#xF0BE;" horiz-adv-x="407" d="M369 223Q369 171 365 128T342 53T290 5T195 -12Q116 -12 79 20T42 125H159Q159 112 160 101T167 81T181 67T204 62Q234 62 244 96T254 191V235Q239 218 217 208T164 198Q125 198 99 209T58 243T37 298T30 372Q30 413 39 447T68 505T120 542T201 556Q253 556 285 543T336 502T362 434T369 339V223ZM253 372Q253 422 244 452T201 483Q182 483 172 474T156 450T149 414T148 372Q148 349 149 331T156 299T171 278T200 270Q219 270 229 280T245 306T251 339T253 372Z"  />
<glyph unicode="&#xF0BF;" horiz-adv-x="472" d="M435 264Q435 186 424 133T389 48T327 2T236 -12Q182 -12 144 2T82 48T47 133T36 264V286Q36 364 47 416T82 501T144 548T236 562Q290 562 327 548T389 502T424 417T435 286V264ZM309 306Q309 401 294 439T236 478Q214 478 200 469T178 439T166 386T163 306V244Q163 196 166 164T177 111T200 81T236 72Q257 72 271 81T294 110T305 164T309 244V306Z"  />
<glyph unicode="&#xF0C0;" horiz-adv-x="412" d="M190 0V421Q164 397 127 376T46 337V443Q67 451 89 463T132 489T172 519T206 550H320V0H190Z"  />
<glyph unicode="&#xF0C1;" horiz-adv-x="472" d="M45 0V92L221 254Q269 298 291 334T313 409Q313 441 298 459T250 477Q212 477 197 454T180 385H56Q59 473 107 517T252 562Q346 562 393 524T441 410Q441 384 435 357T412 302T368 242T298 174L202 91H441V0H45Z"  />
<glyph unicode="&#xF0C2;" horiz-adv-x="472" d="M432 49Q432 -55 387 -105T235 -155Q182 -155 145 -145T83 -113T48 -53T37 39H161Q161 17 163 -2T173 -35T193 -57T230 -65Q275 -65 289 -36T303 44Q303 85 298 110T280 150T246 170T190 176H173V266H190Q219 266 239 271T272 288T291 322T297 376Q297 397 295 415T286 446T267 466T234 474Q213 474 201 466T182 443T173 412T170 376H48V403Q48 447 61 477T100 526T160 553T237 562Q285 562 320 553T379 523T414 469T425 386Q425 321 403 279T320 224Q353 217 375 204T409 169T427 118T432 49Z"  />
<glyph unicode="&#xF0C3;" horiz-adv-x="472" d="M377 0V-143H258V0H35V107L210 550H377V91H452V0H377ZM263 458L127 91H263V458Z"  />
<glyph unicode="&#xF0C4;" horiz-adv-x="472" d="M430 102Q430 41 423 -7T395 -88T335 -138T232 -155Q186 -155 152 -146T96 -117T62 -62T51 22H176Q176 4 178 -12T187 -40T205 -58T236 -65Q259 -65 272 -55T291 -23T299 28T301 99Q301 158 290 191T240 225Q223 225 212 220T193 204T183 182T178 155H58L71 550H410V459H188L179 262Q191 274 201 283T224 298T250 307T286 310Q332 310 360 295T404 251T425 185T430 102Z"  />
<glyph unicode="&#xF0C5;" horiz-adv-x="472" d="M445 223Q445 171 436 128T403 54T343 5T248 -13Q188 -13 151 4T92 57T63 145T55 268V416Q55 473 60 528T87 626T148 696T260 723Q345 723 389 687T434 562H308Q308 591 297 613T251 635Q225 635 211 615T189 563T180 493T178 417V392Q188 404 198 414T222 431T252 443T292 448Q337 448 366 433T413 389T438 318T445 223ZM318 223Q318 254 317 279T308 323T287 352T249 362Q224 362 210 348T189 312T181 267T179 224Q179 191 181 164T191 117T212 86T248 75Q273 75 287 87T308 120T316 167T318 223Z"  />
<glyph unicode="&#xF0C6;" horiz-adv-x="432" d="M230 -143H93L289 458H39V550H406V448L230 -143Z"  />
<glyph unicode="&#xF0C7;" horiz-adv-x="472" d="M432 193Q432 144 422 106T389 41T329 1T236 -13Q188 -13 152 -3T90 31T53 95T40 194Q40 218 42 244T55 295T85 338T140 370Q111 378 93 393T65 430T51 477T47 530Q47 627 90 675T236 723Q330 723 378 682T426 542Q426 513 422 486T407 437T377 397T327 370Q359 361 379 346T411 309T427 258T432 193ZM300 522Q300 541 299 561T292 597T273 624T236 635Q213 635 200 625T181 598T174 563T173 525Q173 508 175 489T183 454T202 426T236 415Q258 415 271 425T290 451T298 486T300 522ZM304 199Q304 220 302 242T294 284T274 315T236 327Q213 327 200 315T179 284T170 243T168 202Q168 183 169 161T177 120T197 88T236 75Q261 75 275 87T295 118T303 158T304 199Z"  />
<glyph unicode="&#xF0C8;" horiz-adv-x="472" d="M429 143Q429 78 424 23T400 -71T340 -133T229 -155Q141 -155 98 -115T53 16H179Q179 0 181 -15T189 -41T208 -60T239 -67Q263 -67 276 -52T296 -11T304 48T306 118V167Q296 155 286 145T262 128T231 116T191 111Q146 111 117 125T71 168T46 237T39 331Q39 383 49 425T82 498T143 545T236 562Q296 562 333 545T392 494T421 408T429 286V143ZM305 330Q305 363 303 389T293 435T272 464T236 474Q211 474 197 463T176 432T168 386T166 331Q166 300 167 275T176 233T197 207T235 197Q260 197 274 210T295 244T303 287T305 330Z"  />
<glyph unicode="&#xF0C9;" horiz-adv-x="472" d="M199 457V654Q188 646 175 639T147 625V683Q186 702 210 723H264V457H199ZM83 340V387H389V340H83ZM144 0V49L235 145Q253 164 258 175T263 200Q263 211 258 217T239 224Q211 224 211 186H148Q148 231 173 251T241 271Q283 271 305 253T328 198Q328 170 316 149T280 103L224 46H329V0H144Z"  />
<glyph unicode="&#xF0CA;" horiz-adv-x="472" d="M199 457V654Q188 646 175 639T147 625V683Q186 702 210 723H264V457H199ZM83 340V387H389V340H83ZM327 76Q327 35 305 15T233 -5Q186 -5 165 13T143 77H205Q205 40 233 40Q250 40 256 48T263 74Q263 97 255 106T221 116H207V162H219Q241 162 250 169T260 196Q260 207 256 216T234 225Q209 225 209 194H148Q148 236 170 253T236 271Q280 271 302 255T324 199Q324 176 316 163T290 140Q308 132 317 118T327 76Z"  />
<glyph unicode="&#xF0CB;" horiz-adv-x="472" d="M199 457V654Q188 646 175 639T147 625V683Q186 702 210 723H264V457H199ZM83 340V387H389V340H83ZM294 59V0H233V59H132V107L210 266H294V105H326V59H294ZM235 215L185 105H235V215Z"  />
<glyph unicode="&#xF0CC;" horiz-adv-x="472" d="M199 457V654Q188 646 175 639T147 625V683Q186 702 210 723H264V457H199ZM83 340V387H389V340H83ZM328 76Q328 36 307 16T235 -5Q190 -5 167 13T144 76Q144 100 152 114T177 138Q160 146 153 160T146 195Q146 271 235 271Q278 271 302 255T326 198Q326 176 319 163T294 139Q328 123 328 76ZM264 194Q264 227 235 227Q207 227 207 194Q207 161 235 161Q264 161 264 194ZM266 77Q266 96 260 105T236 115Q205 115 205 77Q205 39 236 39Q253 39 259 49T266 77Z"  />
<glyph unicode="&#xF0CD;" horiz-adv-x="472" d="M144 457V506L235 602Q253 621 258 632T263 657Q263 668 258 674T239 681Q211 681 211 643H148Q148 688 173 708T241 728Q283 728 305 710T328 655Q328 627 317 606T280 560L224 503H329V457H144ZM83 340V387H389V340H83ZM327 76Q327 35 305 15T233 -5Q186 -5 165 13T143 77H205Q205 40 233 40Q250 40 256 48T263 74Q263 97 255 106T221 116H207V162H219Q241 162 250 169T260 196Q260 207 256 216T234 225Q209 225 209 194H148Q148 236 170 253T236 271Q280 271 302 255T324 199Q324 176 316 163T290 140Q308 132 317 118T327 76Z"  />
<glyph unicode="&#xF0CE;" horiz-adv-x="472" d="M327 533Q327 492 305 472T233 452Q186 452 165 470T143 534H205Q205 497 233 497Q250 497 256 505T263 531Q263 554 255 563T221 573H207V619H219Q241 619 251 626T261 653Q261 664 256 673T235 682Q209 682 209 651H148Q148 693 170 710T236 728Q280 728 302 712T324 656Q324 633 316 620T290 597Q308 589 317 575T327 533ZM83 340V387H389V340H83ZM294 59V0H233V59H132V107L210 266H294V105H326V59H294ZM235 215L185 105H235V215Z"  />
<glyph unicode="&#xF0CF;" horiz-adv-x="472" d="M327 533Q327 492 305 472T233 452Q186 452 165 470T143 534H205Q205 497 233 497Q250 497 256 505T263 531Q263 554 255 563T221 573H207V619H219Q241 619 251 626T261 653Q261 664 256 673T235 682Q209 682 209 651H148Q148 693 170 710T236 728Q280 728 302 712T324 656Q324 633 316 620T290 597Q308 589 317 575T327 533ZM83 340V387H389V340H83ZM328 76Q328 36 307 16T235 -5Q190 -5 167 13T144 76Q144 100 152 114T177 138Q160 146 153 160T146 195Q146 271 235 271Q278 271 302 255T326 198Q326 176 319 163T294 139Q328 123 328 76ZM264 194Q264 227 235 227Q207 227 207 194Q207 161 235 161Q264 161 264 194ZM266 77Q266 96 260 105T236 115Q205 115 205 77Q205 39 236 39Q253 39 259 49T266 77Z"  />
<glyph unicode="&#xF0D0;" horiz-adv-x="472" d="M327 551Q327 503 308 478T232 452Q194 452 171 469T148 528H210Q210 516 215 507T235 497Q252 497 257 508T263 549Q263 572 257 581T237 591Q223 591 218 583T210 566H151L156 723H317V676H214L212 615Q230 635 261 635Q300 635 313 611T327 551ZM83 340V387H389V340H83ZM328 76Q328 36 307 16T235 -5Q190 -5 167 13T144 76Q144 100 152 114T177 138Q160 146 153 160T146 195Q146 271 235 271Q278 271 302 255T326 198Q326 176 319 163T294 139Q328 123 328 76ZM264 194Q264 227 235 227Q207 227 207 194Q207 161 235 161Q264 161 264 194ZM266 77Q266 96 260 105T236 115Q205 115 205 77Q205 39 236 39Q253 39 259 49T266 77Z"  />
<glyph unicode="&#xF0D1;" horiz-adv-x="472" d="M176 457L261 676H158V723H322V677L246 457H176ZM83 340V387H389V340H83ZM328 76Q328 36 307 16T235 -5Q190 -5 167 13T144 76Q144 100 152 114T177 138Q160 146 153 160T146 195Q146 271 235 271Q278 271 302 255T326 198Q326 176 319 163T294 139Q328 123 328 76ZM264 194Q264 227 235 227Q207 227 207 194Q207 161 235 161Q264 161 264 194ZM266 77Q266 96 260 105T236 115Q205 115 205 77Q205 39 236 39Q253 39 259 49T266 77Z"  />
<glyph unicode="&#xF0D2;" horiz-adv-x="244" d="M165 161H80L63 544H181L165 161ZM70 0V108H174V0H70Z"  />
<glyph unicode="&#xF0D3;" horiz-adv-x="406" d="M181 -57V5Q139 8 110 19T63 48T36 89T28 140V175H134V158Q134 129 143 109T181 83V230L161 240Q127 257 103 273T64 308T41 349T34 400Q34 425 42 448T67 491T113 522T181 538V597H229V538Q272 536 300 525T344 497T366 456T373 408V385H271V406Q271 426 262 441T229 461V322L257 308Q321 276 351 242T381 152Q381 89 346 50T229 6V-57H181ZM229 205V83Q279 92 279 140Q279 160 268 175T230 205H229ZM137 410Q137 393 144 379T181 347V462Q156 457 147 443T137 410Z"  />
<glyph unicode="&#xF0D4;" horiz-adv-x="657" d="M230 -17H171L426 560H485L230 -17ZM263 412Q263 381 258 355T239 311T204 282T149 271Q116 271 95 281T60 310T41 355T35 412Q35 443 40 468T59 512T94 541T149 552Q182 552 203 542T238 513T257 469T263 412ZM191 412Q191 453 183 476T149 499Q123 499 115 476T107 412Q107 371 115 348T149 324Q175 324 183 347T191 412ZM622 133Q622 102 617 76T598 32T563 3T508 -8Q475 -8 454 2T419 31T400 76T394 133Q394 164 399 189T418 233T453 262T508 273Q541 273 562 263T597 234T616 190T622 133ZM550 133Q550 174 542 197T508 220Q482 220 474 197T466 133Q466 92 474 69T508 45Q534 45 542 68T550 133Z"  />
<glyph unicode="&#xF0D5;" horiz-adv-x="527" d="M434 249V0H238Q198 0 164 7T104 31T65 77T50 147Q50 255 158 288Q114 301 90 329T66 407Q66 477 115 516T245 556Q264 556 283 555T316 551V469Q307 471 297 472T278 473Q236 473 214 453T191 397Q191 355 218 342T285 328H319V422H434V328H518V249H434ZM319 249H266Q221 249 200 226T178 160Q178 113 202 96T270 79H319V249Z"  />
<glyph unicode="&#xF0D6;" horiz-adv-x="361" d="M330 427Q330 405 326 388T313 353T289 316T252 270Q233 248 227 231T220 185V161H129V198Q129 237 140 263T174 320Q193 346 205 370T218 423Q218 450 210 465T175 481Q148 481 139 464T130 423V401H28V421Q28 556 180 556Q259 556 294 522T330 427ZM124 0V108H228V0H124Z"  />
<glyph unicode="&#xF0D7;" horiz-adv-x="244" d="M79 383H164L181 0H63L79 383ZM174 544V436H70V544H174Z"  />
<glyph unicode="&#xF0D8;" horiz-adv-x="361" d="M31 117Q31 139 35 156T48 191T72 228T109 274Q128 296 134 313T141 359V383H232V346Q232 307 221 281T187 224Q168 198 156 174T143 121Q143 94 151 79T186 63Q213 63 222 80T231 121V143H333V123Q333 -12 181 -12Q102 -12 67 22T31 117ZM237 544V436H133V544H237Z"  />
<glyph unicode="&#xF0D9;" horiz-adv-x="407" d="M198 304V258H332L317 194H198Q198 160 201 136T214 97T239 74T281 67Q314 67 338 79T385 112V14Q367 3 339 -4T275 -12Q219 -12 182 0T122 37T90 101T80 194H8L23 258H80V304H9L24 368H80Q81 410 93 445T129 504T191 542T284 556Q326 556 355 547T406 523L382 427Q368 449 344 463T285 478Q236 478 218 448T198 368H361L346 304H198Z"  />
<glyph unicode="&#xF0DA;" horiz-adv-x="407" d="M296 459Q338 445 352 412T367 328H265Q265 350 261 366L178 147Q189 140 209 140Q226 140 237 147T255 167T264 193T267 221H370Q370 197 366 171T345 122T297 86T209 72Q193 72 179 73T151 76L118 -12H69L108 91Q76 108 59 146T42 255Q42 300 46 339T68 407T119 454T211 471Q222 471 232 471T251 469L284 556H333L296 459ZM149 275Q149 234 152 207L225 401Q217 403 211 403Q188 403 176 392T157 363T150 322T149 275Z"  />
<glyph unicode="&#xF0DB;" horiz-adv-x="407" d="M282 415V425Q282 445 272 461T236 478Q206 478 197 459T188 415V327H296V251H188V80H378V0H27V80H82V251H25V327H81V357Q81 397 84 433T102 496T149 540T238 556Q383 556 383 428V415H282Z"  />
<glyph unicode="&#xF0DC;" horiz-adv-x="407" d="M264 367H331L321 301H254L212 47Q206 13 198 -16T173 -66T128 -100T53 -113Q36 -113 17 -110L30 -32Q38 -37 48 -37Q70 -37 80 -20T97 33L141 301H83L94 367H152L162 426Q166 453 175 476T200 518T244 546T313 556Q336 556 360 553L347 472Q342 474 336 476T319 478Q298 478 289 465T275 430L264 367Z"  />
<glyph unicode="&#xF0DD;" horiz-adv-x="407" d="M277 264H374V200H258V154H374V90H258V0H140V90H25V154H140V200H25V264H123L7 544H137L204 313L277 544H397L277 264Z"  />
<glyph unicode="&#xF0DE;" horiz-adv-x="792" d="M238 423Q238 397 234 374T218 333T187 305T136 294Q105 294 86 304T55 332T39 373T35 423Q35 449 39 472T54 513T85 541T136 552Q167 552 186 542T217 514T233 473T238 423ZM174 423Q174 463 166 483T136 504Q114 504 107 484T99 423Q99 384 106 364T136 343Q158 343 166 363T174 423ZM176 -17H117L372 560H431L176 -17ZM512 119Q512 93 508 70T492 29T461 1T410 -10Q379 -10 360 0T329 28T313 69T309 119Q309 145 313 168T328 209T359 237T410 248Q441 248 460 238T491 210T507 169T512 119ZM448 119Q448 159 440 179T410 200Q388 200 381 180T373 119Q373 80 380 60T410 39Q432 39 440 59T448 119ZM757 119Q757 93 753 70T737 29T706 1T655 -10Q624 -10 605 0T574 28T558 69T554 119Q554 145 558 168T573 209T604 237T655 248Q686 248 705 238T736 210T752 169T757 119ZM693 119Q693 159 685 179T655 200Q633 200 626 180T618 119Q618 80 625 60T655 39Q677 39 685 59T693 119Z"  />
<glyph unicode="&#xF0DF;" horiz-adv-x="440" d="M413 142Q413 100 399 71T358 24T297 -3T218 -12Q165 -12 128 -1T69 31T36 85T26 159V169H149V158Q149 139 152 123T162 96T183 78T219 71Q290 71 290 137Q290 153 287 164T275 184T251 201T213 220L169 240Q134 256 109 271T68 305T43 348T35 405Q35 481 84 518T226 556Q312 556 358 519T405 412V390H284V408Q284 435 272 455T222 475Q190 475 174 459T158 416Q158 401 161 391T174 371T200 352T244 330L288 310Q322 295 346 280T385 245T406 200T413 142ZM-25 142Q-25 100 -39 71T-80 24T-141 -3T-220 -12Q-273 -12 -310 -1T-369 31T-402 85T-412 159V169H-289V158Q-289 139 -286 123T-276 96T-255 78T-219 71Q-148 71 -148 137Q-148 153 -151 164T-163 184T-187 201T-225 220L-269 240Q-304 256 -329 271T-370 305T-395 348T-403 405Q-403 481 -354 518T-212 556Q-126 556 -80 519T-33 412V390H-154V408Q-154 435 -166 455T-216 475Q-248 475 -264 459T-280 416Q-280 401 -277 391T-264 371T-238 352T-194 330L-150 310Q-116 295 -92 280T-53 245T-32 200T-25 142Z"  />
<glyph unicode="&#xF8FF;" horiz-adv-x="512" d="M222 117V184H278V117H222ZM223 234V251Q223 278 226 297T236 332T254 361T282 391Q298 407 308 419T323 441T330 460T332 480Q332 516 310 537T256 559Q225 559 203 537T174 464L124 472Q131 544 168 576T259 609Q286 609 308 600T347 575T373 536T383 484Q383 467 381 452T371 421T352 391T320 358Q304 344 295 333T280 311T273 288T271 258V234H223ZM462 50V667H50V50H462ZM512 718V0H0V718H512Z"  />
<glyph unicode="&#xFB00;" horiz-adv-x="552" d="M274 642Q269 643 262 643Q220 643 208 627T195 567V504H271V423H195V0H71V423H10V504H71V583Q71 616 76 643T97 690T138 719T207 730Q227 730 240 730T274 727V642ZM550 642Q545 643 538 643Q496 643 484 627T471 567V504H547V423H471V0H347V423H286V504H347V583Q347 616 352 643T373 690T414 719T483 730Q503 730 516 730T550 727V642Z"  />
<glyph unicode="&#xFB01;" horiz-adv-x="491" d="M274 642Q269 643 262 643Q220 643 208 627T195 567V504H271V423H195V0H71V423H10V504H71V583Q71 616 76 643T97 690T138 719T207 730Q227 730 240 730T274 727V642ZM312 608V715H436V608H312ZM312 0V504H436V0H312Z"  />
<glyph unicode="&#xFB02;" horiz-adv-x="491" d="M274 642Q269 643 262 643Q220 643 208 627T195 567V504H271V423H195V0H71V423H10V504H71V583Q71 616 76 643T97 690T138 719T207 730Q227 730 240 730T274 727V642ZM312 0V723H436V0H312Z"  />
<glyph unicode="&#xFB03;" horiz-adv-x="767" d="M274 642Q269 643 262 643Q220 643 208 627T195 567V504H271V423H195V0H71V423H10V504H71V583Q71 616 76 643T97 690T138 719T207 730Q227 730 240 730T274 727V642ZM550 642Q545 643 538 643Q496 643 484 627T471 567V504H547V423H471V0H347V423H286V504H347V583Q347 616 352 643T373 690T414 719T483 730Q503 730 516 730T550 727V642ZM588 608V715H712V608H588ZM588 0V504H712V0H588Z"  />
<glyph unicode="&#xFB04;" horiz-adv-x="767" d="M274 642Q269 643 262 643Q220 643 208 627T195 567V504H271V423H195V0H71V423H10V504H71V583Q71 616 76 643T97 690T138 719T207 730Q227 730 240 730T274 727V642ZM550 642Q545 643 538 643Q496 643 484 627T471 567V504H547V423H471V0H347V423H286V504H347V583Q347 616 352 643T373 690T414 719T483 730Q503 730 516 730T550 727V642ZM588 0V723H712V0H588Z"  />

</font>
</defs>
</svg>
