<?xml  version="1.0" encoding="UTF-8"?>
<!DOCTYPE svg PUBLIC "-//W3C//DTD SVG 1.0//EN" "http://www.w3.org/TR/2001/REC-SVG-20010904/DTD/svg10.dtd" >
<svg xmlns="http://www.w3.org/2000/svg" >
<metadata>
<version>1.0</version>
<id><![CDATA[DIN Next W02 Light Cond]]></id>
<vendor>Monotype Imaging Inc.</vendor>
<credits>
<name>Fonts.com WebFonts</name>
<URL>http://webfonts.fonts.com</URL>
<role>Home of the Web fonts</role>
</credits>
<license>
<URL>http://webfonts.fonts.com/Legal</URL>
</license>
<copyright><![CDATA[Copyright © 2010 Linotype GmbH, www.linotype.com. All rights reserved. This font software may not be reproduced, modified, disclosed or transferred without the express written approval of Linotype GmbH.]]></copyright>
<trademark></trademark>
<licensee>
<name></name>
</licensee>
</metadata>
<defs >
<font horiz-adv-x="356" id="ccf50b30-6c91-4cac-8afb-cb1d3bd72055">
<font-face font-family="" panose-1="2 11 3 6 2 2 3 5 2 3" ascent="905" descent="-211" units-per-em="1000" alphabetic="0">
</font-face>
<missing-glyph horiz-adv-x="361" d="M0 670Q0 680 10 680H351Q361 680 361 670V10Q361 0 351 0H10Q0 0 0 10V670ZM37 41Q37 35 43 35H318Q324 35 324 41V639Q324 645 318 645H43Q37 645 37 639V41ZM174 221Q164 221 164 231V278Q164 301 175 323L210 390Q221 411 225 424T229 461Q229 486 225 498Q215 528 182 528Q148 528 139 498Q137 491 136 482T135 450Q135 440 124 442L106 444Q97 445 97 455Q97 480 99 491T103 509Q111 534 131 548T182 563Q213 563 233 549T261 509Q263 502 265 491T267 462Q267 436 262 420T246 380L211 313Q206 304 204 296T202 277V231Q202 221 192 221H174ZM159 162Q159 172 169 172H197Q207 172 207 162V125Q207 115 197 115H169Q159 115 159 125V162Z"  />

<glyph unicode="&#xA;" />
<glyph unicode="&#xD;" horiz-adv-x="0" />
<glyph unicode=" " horiz-adv-x="184" />
<glyph unicode="!" horiz-adv-x="211" d="M96 170Q86 170 86 180L78 670Q78 680 88 680H122Q132 680 132 670L124 180Q124 170 114 170H96ZM73 75Q73 85 83 85H128Q138 85 138 75V10Q138 0 128 0H83Q73 0 73 10V75Z"  />
<glyph unicode="&quot;" horiz-adv-x="227" d="M153 523Q143 523 143 533V670Q143 680 153 680H175Q185 680 185 670V533Q185 523 175 523H153ZM52 523Q42 523 42 533V670Q42 680 52 680H74Q84 680 84 670V533Q84 523 74 523H52Z"  />
<glyph unicode="#" horiz-adv-x="514" d="M135 231H79Q69 231 69 241V262Q69 272 79 272H139L156 436H98Q88 436 88 446V466Q88 476 98 476H160L181 670Q183 680 192 680H213Q224 680 222 669L201 476H334L355 670Q357 680 366 680H387Q398 680 396 669L375 476H435Q445 476 445 466V446Q445 436 435 436H371L354 272H416Q426 272 426 262V241Q426 231 416 231H350L327 10Q325 0 316 0H295Q284 0 286 11L309 231H176L153 10Q151 0 142 0H121Q110 0 112 11L135 231ZM313 272L330 436H197L180 272H313Z"  />
<glyph unicode="$" horiz-adv-x="371" d="M47 158Q47 168 55 169L82 174Q93 175 93 165Q97 99 115 71T172 39V333L161 338Q130 350 110 365T78 400T61 449T56 517Q56 680 172 687V730Q172 740 182 740H193Q203 740 203 730V687Q259 682 285 645T315 534Q317 524 308 523L282 519Q271 517 271 528Q267 582 252 608T203 639V377L215 373Q245 361 265 347T297 311T315 259T321 187Q321 87 292 43T203 -7V-71Q203 -81 193 -81H182Q172 -81 172 -71V-7Q109 -3 80 38T47 158ZM172 640Q136 637 120 609T104 519Q104 489 107 469T117 433T138 408T172 389V640ZM203 40Q220 42 233 49T255 73T268 117T273 183Q273 214 269 237T257 276T236 302T203 321V40Z"  />
<glyph unicode="%" horiz-adv-x="620" d="M408 678Q412 688 421 688H443Q453 688 450 678L212 2Q208 -8 199 -8H177Q167 -8 170 2L408 678ZM145 331Q115 331 95 345T67 385Q65 391 64 398T61 417T60 451T60 508Q60 544 60 565T61 599T63 619T67 632Q75 657 95 671T145 686Q176 686 196 672T224 632Q226 626 227 619T229 599T230 565T231 508Q231 473 231 452T230 418T228 398T224 385Q216 360 196 346T145 331ZM145 367Q177 367 187 396Q188 399 188 404T189 421T190 453T191 508Q191 542 191 563T190 596T189 613T187 621Q178 649 145 649Q113 649 104 621Q103 618 102 613T101 596T100 563T100 508Q100 474 100 454T100 421T102 404T104 396Q114 367 145 367ZM396 48Q394 54 393 61T390 80T389 114T389 172Q389 207 389 228T390 262T392 282T396 295Q404 320 424 334T475 349Q505 349 525 335T554 295Q556 289 557 282T559 263T560 229T560 172Q560 136 560 115T559 81T557 61T554 48Q546 23 526 9T475 -6Q444 -6 424 8T396 48ZM433 59Q443 31 475 31Q506 31 516 59Q517 62 518 67T519 84T520 116T520 172Q520 206 520 226T520 259T518 276T516 284Q506 313 475 313Q443 313 433 284Q432 281 432 276T431 259T430 227T429 172Q429 137 429 117T430 84T431 67T433 59Z"  />
<glyph unicode="&amp;" horiz-adv-x="511" d="M68 134Q68 159 75 184T98 237T138 298T197 372Q175 411 160 439T136 490T124 530T120 564Q120 622 153 655T238 688Q290 688 322 655T355 564Q355 541 350 520T332 476T300 427T253 368L358 178L404 262Q409 272 418 267L438 255Q447 250 442 242L382 135L417 74Q426 56 432 51T448 46H452Q462 46 462 36V10Q462 0 452 0H439Q419 0 408 8T382 41L355 89Q324 41 288 17T203 -8Q140 -8 104 31T68 134ZM229 410Q253 438 268 459T292 498T304 532T308 565Q308 604 289 625T238 646Q206 646 187 625T168 565Q168 553 170 540T180 510T199 468T229 410ZM116 135Q116 88 139 63T205 37Q240 37 270 58T331 131L221 329Q192 296 173 270T140 220T122 177T116 135Z"  />
<glyph unicode="&apos;" horiz-adv-x="126" d="M52 523Q42 523 42 533V670Q42 680 52 680H74Q84 680 84 670V533Q84 523 74 523H52Z"  />
<glyph unicode="(" horiz-adv-x="238" d="M152 -74Q113 17 92 121T71 328Q71 431 92 535T152 730Q157 740 165 740H184Q194 740 191 730Q156 633 139 529T121 328Q121 231 138 127T191 -74Q194 -84 184 -84H165Q157 -84 152 -74Z"  />
<glyph unicode=")" horiz-adv-x="238" d="M47 -74Q82 23 99 127T117 328Q117 425 100 529T47 730Q44 740 54 740H72Q82 740 85 730Q124 639 145 535T166 328Q166 225 145 121T85 -74Q82 -84 72 -84H54Q44 -84 47 -74Z"  />
<glyph unicode="*" horiz-adv-x="324" d="M155 402Q145 402 145 412V511L72 468Q64 463 59 471L51 486Q46 495 54 500L126 541L54 582Q46 587 51 596L59 611Q64 619 72 614L145 571V670Q145 680 155 680H170Q180 680 180 670L179 571L252 614Q260 619 265 611L273 596Q278 587 270 582L198 541L270 500Q278 495 273 486L265 471Q260 463 252 468L179 511L180 412Q180 402 170 402H155Z"  />
<glyph unicode="+" horiz-adv-x="371" d="M162 247Q162 253 156 253H49Q39 253 39 263V289Q39 299 49 299H156Q162 299 162 305V413Q162 423 172 423H199Q209 423 209 413V305Q209 299 215 299H322Q332 299 332 289V263Q332 253 322 253H215Q209 253 209 247V139Q209 129 199 129H172Q162 129 162 139V247Z"  />
<glyph unicode="&#x2c;" horiz-adv-x="165" d="M53 75Q53 85 63 85H102Q112 85 112 75V10Q112 2 111 -3T107 -15L71 -95Q68 -102 61 -102Q53 -102 53 -94V75Z"  />
<glyph unicode="-" horiz-adv-x="297" d="M51 243Q41 243 41 253V280Q41 290 51 290H247Q257 290 257 280V253Q257 243 247 243H51Z"  />
<glyph unicode="." horiz-adv-x="171" d="M53 75Q53 85 63 85H108Q118 85 118 75V10Q118 0 108 0H63Q53 0 53 10V75Z"  />
<glyph unicode="/" horiz-adv-x="223" d="M152 678Q154 688 163 688H186Q197 688 195 678L70 2Q69 -8 59 -8H37Q26 -8 28 2L152 678Z"  />
<glyph unicode="0" horiz-adv-x="371" d="M65 75Q62 83 60 95T57 134T55 210T54 340Q54 421 54 469T56 545T60 585T65 606Q79 648 110 668T186 688Q230 688 261 668T306 606Q309 598 311 586T314 546T316 470T317 340Q317 259 317 211T315 135T311 95T306 75Q292 32 261 12T186 -8Q141 -8 110 12T65 75ZM113 90Q129 39 186 39Q241 39 258 90Q260 96 262 107T265 143T266 215T267 340Q267 418 267 464T265 537T262 573T258 590Q241 641 186 641Q129 641 113 590Q111 584 109 574T106 537T105 465T104 340Q104 262 104 216T106 144T109 107T113 90Z"  />
<glyph unicode="1" horiz-adv-x="371" d="M184 616H182L96 547Q85 540 85 554V588Q85 596 93 603L181 674Q188 680 196 680H223Q233 680 233 670V10Q233 0 223 0H194Q184 0 184 10V616Z"  />
<glyph unicode="2" horiz-adv-x="371" d="M56 36Q56 45 60 52L231 392Q247 424 255 453T264 525Q264 555 263 568T257 591Q241 641 184 641Q128 641 111 591Q108 581 107 567T105 513Q105 501 94 503L66 506Q56 507 56 518Q56 556 58 574T65 606Q78 645 108 666T185 688Q279 688 305 606Q310 592 311 575T313 525Q313 475 303 440T274 368L111 48V47H303Q313 47 313 37V10Q313 0 303 0H66Q56 0 56 10V36Z"  />
<glyph unicode="3" horiz-adv-x="371" d="M64 74Q59 88 58 105T56 157Q56 167 65 169L93 172Q105 174 105 163Q105 127 106 113T111 89Q127 39 184 39Q240 39 257 89Q258 94 259 99T261 115T262 142T263 186Q263 213 263 229T262 256T260 272T257 283Q240 332 179 332H163Q153 332 153 342V369Q153 379 163 379H179Q240 379 257 428Q258 433 259 438T261 452T262 475T263 510Q263 531 263 544T262 566T260 580T257 591Q240 641 184 641Q127 641 111 591Q107 581 106 567T105 517Q105 506 93 508L65 511Q56 512 56 523Q56 558 57 575T64 606Q77 645 107 666T184 688Q278 688 304 606Q308 592 310 573T313 510Q313 489 313 475T311 450T309 433T305 419Q297 397 286 383T252 357V355Q274 344 285 330T305 294Q307 287 308 280T311 261T312 232T313 186Q313 158 313 140T311 110T308 89T304 74Q278 -8 184 -8Q137 -8 107 13T64 74Z"  />
<glyph unicode="4" horiz-adv-x="371" d="M37 126Q27 126 27 136V162Q27 168 29 174L169 672Q172 680 181 680H211Q222 680 219 669L79 175V173H216Q222 173 222 179V380Q222 390 232 390H262Q272 390 272 380V179Q272 173 278 173H335Q345 173 345 163V136Q345 126 335 126H278Q272 126 272 120V10Q272 0 262 0H232Q222 0 222 10V120Q222 126 216 126H37Z"  />
<glyph unicode="5" horiz-adv-x="371" d="M68 74Q63 88 61 105T59 151Q59 162 69 163L97 166Q108 168 108 157Q108 125 109 112T114 89Q131 39 187 39Q242 39 259 87Q260 92 261 98T264 118T266 154T267 214Q267 251 267 274T265 310T262 329T259 341Q242 390 187 390Q161 390 145 380T117 352Q112 343 102 343H77Q67 343 67 353V670Q67 680 77 680H306Q316 680 316 670V643Q316 633 306 633H119Q113 633 113 627V401H114Q127 417 147 427T195 437Q282 437 307 360Q309 352 311 344T314 320T315 279T316 214Q316 176 316 152T314 112T310 89T306 73Q280 -8 188 -8Q141 -8 111 13T68 74Z"  />
<glyph unicode="6" horiz-adv-x="371" d="M65 75Q63 82 62 90T59 110T58 142T57 192Q57 231 58 257T63 303T73 342T89 386L200 671Q203 680 212 680H245Q255 680 251 670L139 380L140 378Q146 384 160 388T192 392Q237 392 265 371T306 311Q308 304 309 296T312 274T313 242T314 192Q314 162 314 143T312 111T310 90T306 75Q293 35 263 14T186 -8Q138 -8 108 13T65 75ZM113 89Q129 39 186 39Q242 39 259 89Q260 94 261 100T263 116T264 145T265 192Q265 221 265 239T264 267T262 284T259 295Q242 345 186 345Q129 345 113 295Q111 290 110 284T108 268T107 239T106 192Q106 163 106 145T107 117T109 100T113 89Z"  />
<glyph unicode="7" horiz-adv-x="371" d="M276 631V633H108Q102 633 102 627V539Q102 529 92 529H65Q55 529 55 539V670Q55 680 65 680H317Q327 680 327 670V643Q327 634 324 627L143 10Q140 0 130 0H99Q90 0 93 11L276 631Z"  />
<glyph unicode="8" horiz-adv-x="371" d="M65 75Q63 82 62 89T59 109T58 139T57 186Q57 213 57 230T59 259T61 278T65 293Q73 316 86 331T114 356V357Q80 376 65 419Q63 426 62 433T59 451T58 476T57 510Q57 554 58 572T65 605Q78 645 108 666T186 688Q233 688 263 667T306 605Q310 591 312 573T314 510Q314 490 314 476T312 452T310 434T306 419Q299 397 287 382T257 357V356Q272 347 285 332T306 293Q308 286 309 279T312 260T313 231T314 186Q314 158 314 140T312 109T310 90T306 75Q293 35 263 14T186 -8Q138 -8 108 13T65 75ZM186 380Q242 380 259 430Q260 435 261 440T263 454T264 476T265 510Q265 531 265 544T264 566T262 580T259 591Q242 641 186 641Q129 641 113 591Q111 586 110 581T108 566T107 544T106 510Q106 489 106 476T107 455T109 441T113 430Q129 380 186 380ZM113 89Q129 39 186 39Q242 39 259 89Q260 94 261 99T263 115T264 142T265 186Q265 213 265 229T264 256T262 271T259 282Q242 333 186 333Q128 333 113 282Q111 277 110 272T108 256T107 230T106 186Q106 159 106 143T107 116T109 100T113 89Z"  />
<glyph unicode="9" horiz-adv-x="371" d="M233 300L231 302Q225 296 211 292T179 288Q134 288 106 309T65 369Q63 376 62 384T59 406T58 438T57 488Q57 518 57 537T59 569T61 590T65 605Q78 645 108 666T186 688Q233 688 263 667T306 605Q308 598 309 590T312 570T313 538T314 488Q314 449 313 423T309 377T299 338T282 294L171 9Q168 0 159 0H126Q116 0 120 10L233 300ZM186 335Q242 335 259 385Q260 390 261 396T263 412T264 441T265 488Q265 517 265 535T264 563T262 580T259 591Q242 641 186 641Q129 641 113 591Q111 586 110 580T108 564T107 535T106 488Q106 459 106 441T107 413T109 396T113 385Q129 335 186 335Z"  />
<glyph unicode=":" horiz-adv-x="181" d="M68 392Q58 392 58 402V467Q58 477 68 477H113Q123 477 123 467V402Q123 392 113 392H68ZM58 75Q58 85 68 85H113Q123 85 123 75V10Q123 0 113 0H68Q58 0 58 10V75Z"  />
<glyph unicode=";" horiz-adv-x="181" d="M68 392Q58 392 58 402V467Q58 477 68 477H113Q123 477 123 467V402Q123 392 113 392H68ZM61 75Q61 85 71 85H110Q120 85 120 75V13Q120 -1 115 -12L79 -92Q76 -99 69 -99Q61 -99 61 -91V75Z"  />
<glyph unicode="&lt;" horiz-adv-x="371" d="M49 251Q39 254 39 265V287Q39 298 49 301L322 414Q332 417 332 408V377Q332 368 322 364L106 277V275L322 188Q332 184 332 175V145Q332 135 322 138L49 251Z"  />
<glyph unicode="=" horiz-adv-x="371" d="M49 329Q39 329 39 339V365Q39 375 49 375H322Q332 375 332 365V339Q332 329 322 329H49ZM49 177Q39 177 39 187V213Q39 223 49 223H322Q332 223 332 213V187Q332 177 322 177H49Z"  />
<glyph unicode="&gt;" horiz-adv-x="371" d="M49 138Q39 134 39 145V175Q39 184 49 188L266 275V277L49 364Q39 368 39 377V408Q39 418 49 414L322 301Q332 298 332 287V265Q332 254 322 251L49 138Z"  />
<glyph unicode="?" horiz-adv-x="325" d="M144 170Q134 170 134 180V252Q134 272 137 287T150 321L205 425Q220 453 226 476T233 534Q233 554 231 567T226 591Q218 616 202 628T157 641Q103 641 87 591Q84 581 82 566T80 513Q80 501 69 503L41 506Q31 507 31 518Q31 537 31 551T33 575T36 592T40 607Q53 645 83 666T157 688Q249 688 273 607Q278 595 280 578T282 534Q282 515 281 500T276 471T266 442T251 409L197 306Q189 292 186 280T183 250V180Q183 170 173 170H144ZM126 75Q126 85 136 85H181Q191 85 191 75V10Q191 0 181 0H136Q126 0 126 10V75Z"  />
<glyph unicode="@" horiz-adv-x="686" d="M70 67Q65 82 62 97T56 135T53 190T52 269Q52 316 53 348T56 402T61 440T70 470Q99 560 171 610T343 660Q442 660 514 610T616 470Q621 456 624 441T630 403T633 348T634 269Q634 232 634 209T632 171T629 148T625 132Q613 94 586 77T524 59Q489 59 464 73T427 119H426Q414 87 392 73T334 59Q260 59 239 125Q237 132 235 140T232 163T231 201T230 262Q230 299 230 322T232 360T235 383T239 399Q260 465 334 465Q360 465 379 455T407 426H409V448Q409 458 419 458H446Q456 458 456 448V179Q456 137 475 119T524 100Q571 100 586 143Q587 148 588 154T590 172T591 207T592 269Q592 316 591 347T588 400T583 434T576 460Q551 536 490 578T343 620Q257 620 196 578T110 460Q106 448 103 435T98 400T95 348T94 269Q94 222 95 191T98 138T103 104T110 78Q135 2 196 -40T343 -82Q391 -82 428 -72T499 -38Q508 -33 513 -40L524 -56Q531 -63 522 -69Q486 -95 442 -109T343 -123Q244 -123 172 -73T70 67ZM280 145Q295 101 343 101Q391 101 406 145Q407 150 408 156T410 175T411 207T412 262Q412 296 412 316T411 349T409 367T406 379Q391 423 343 423Q295 423 280 379Q278 374 277 368T275 349T274 317T274 262Q274 228 274 208T275 175T277 157T280 145Z"  />
<glyph unicode="A" horiz-adv-x="388" d="M168 670Q171 680 179 680H212Q221 680 223 670L363 10Q365 0 354 0H322Q313 0 311 10L277 173H111L77 10Q75 0 67 0H35Q30 0 27 2T25 10L168 670ZM267 220L196 567H194L121 220H267Z"  />
<glyph unicode="B" horiz-adv-x="392" d="M68 670Q68 680 78 680H184Q227 680 257 671T307 642T335 588T344 507Q344 441 324 406T265 356V354Q284 347 300 336T327 305T344 257T351 188Q351 136 341 100T311 42T258 10T180 0H78Q68 0 68 10V670ZM186 375Q240 375 266 402T292 502Q292 540 286 565T268 604T234 625T183 631H126Q120 631 120 625V381Q120 375 126 375H186ZM120 55Q120 49 126 49H181Q212 49 234 55T271 78T292 121T299 189Q299 268 271 298T187 328H126Q120 328 120 322V55Z"  />
<glyph unicode="C" horiz-adv-x="374" d="M70 85Q67 96 65 109T61 148T58 220T57 340Q57 415 58 460T60 531T64 571T70 595Q100 688 203 688Q263 688 299 652T342 550Q343 539 336 537L306 531Q295 527 295 539Q289 587 267 613T204 639Q140 639 120 579Q117 571 116 560T113 524T111 456T110 340Q110 267 110 224T112 156T115 120T120 101Q140 41 204 41Q245 41 267 67T295 142Q295 153 306 149L336 143Q344 142 342 131Q335 64 299 28T203 -8Q100 -8 70 85Z"  />
<glyph unicode="D" horiz-adv-x="422" d="M68 670Q68 680 78 680H200Q262 680 297 654T348 579Q352 565 355 548T360 505T363 439T364 340Q364 281 363 242T361 176T356 132T348 101Q332 52 297 26T200 0H78Q68 0 68 10V670ZM120 55Q120 49 126 49H194Q237 49 261 66T298 118Q302 130 304 145T308 184T311 246T312 340Q312 396 311 433T309 495T305 535T298 562Q286 597 262 614T194 631H126Q120 631 120 625V55Z"  />
<glyph unicode="E" horiz-adv-x="351" d="M68 670Q68 680 78 680H309Q319 680 319 670V641Q319 631 309 631H126Q120 631 120 625V375Q120 369 126 369H286Q296 369 296 359V330Q296 320 286 320H126Q120 320 120 314V55Q120 49 126 49H309Q319 49 319 39V10Q319 0 309 0H78Q68 0 68 10V670Z"  />
<glyph unicode="F" horiz-adv-x="348" d="M68 670Q68 680 78 680H309Q319 680 319 670V641Q319 631 309 631H126Q120 631 120 625V371Q120 365 126 365H286Q296 365 296 355V326Q296 316 286 316H126Q120 316 120 310V10Q120 0 110 0H78Q68 0 68 10V670Z"  />
<glyph unicode="G" horiz-adv-x="411" d="M70 85Q66 96 64 109T60 149T58 220T57 340Q57 415 57 460T59 531T63 570T70 595Q100 688 207 688Q273 688 309 652T353 554Q354 544 346 541L317 535Q307 532 305 542Q298 587 275 613T207 639Q140 639 120 579Q117 570 116 559T113 524T111 457T110 340Q110 267 110 224T112 156T115 121T120 101Q141 41 208 41Q275 41 296 101Q299 110 300 120T303 151T305 207T306 300Q306 306 300 306H219Q209 306 209 316V344Q209 354 219 354H347Q357 354 357 344V317Q357 251 357 211T355 146T351 109T344 85Q314 -8 207 -8Q100 -8 70 85Z"  />
<glyph unicode="H" horiz-adv-x="431" d="M68 670Q68 680 78 680H110Q120 680 120 670V380Q120 374 126 374H305Q311 374 311 380V670Q311 680 321 680H353Q363 680 363 670V10Q363 0 353 0H321Q311 0 311 10V319Q311 325 305 325H126Q120 325 120 319V10Q120 0 110 0H78Q68 0 68 10V670Z"  />
<glyph unicode="I" horiz-adv-x="188" d="M68 670Q68 680 78 680H110Q120 680 120 670V10Q120 0 110 0H78Q68 0 68 10V670Z"  />
<glyph unicode="J" horiz-adv-x="327" d="M34 28Q28 35 35 42L58 64Q64 70 71 63Q95 41 127 41Q165 41 186 64T208 140V670Q208 680 218 680H250Q260 680 260 670V144Q260 67 225 30T127 -8Q99 -8 75 1T34 28Z"  />
<glyph unicode="K" horiz-adv-x="400" d="M68 670Q68 680 78 680H110Q120 680 120 670V322L296 672Q300 680 308 680H344Q354 680 350 671L218 414L371 10Q374 0 366 0H328Q320 0 317 8L187 357L120 227V10Q120 0 110 0H78Q68 0 68 10V670Z"  />
<glyph unicode="L" horiz-adv-x="344" d="M68 670Q68 680 78 680H110Q120 680 120 670V55Q120 49 126 49H308Q318 49 318 39V10Q318 0 308 0H78Q68 0 68 10V670Z"  />
<glyph unicode="M" horiz-adv-x="522" d="M68 670Q68 680 78 680H112Q122 680 125 670L261 214H263L397 670Q400 680 410 680H444Q454 680 454 670V10Q454 0 444 0H415Q405 0 405 10V532H402L282 131Q279 121 271 121H251Q243 121 240 131L120 532H117V10Q117 0 107 0H78Q68 0 68 10V670Z"  />
<glyph unicode="N" horiz-adv-x="441" d="M68 670Q68 680 78 680H118Q130 680 134 670L322 113H325V670Q325 680 335 680H363Q373 680 373 670V10Q373 0 363 0H325Q313 0 309 10L119 567H116V10Q116 0 106 0H78Q68 0 68 10V670Z"  />
<glyph unicode="O" horiz-adv-x="414" d="M207 -8Q100 -8 70 85Q66 96 64 109T60 149T58 220T57 340Q57 415 57 460T59 531T63 570T70 595Q100 688 207 688Q314 688 344 595Q348 584 350 571T354 531T356 460T357 340Q357 265 357 220T355 149T351 110T344 85Q314 -8 207 -8ZM207 41Q274 41 294 101Q297 110 299 121T302 156T304 223T305 340Q305 413 305 456T303 524T299 559T294 579Q284 610 262 624T207 639Q140 639 120 579Q117 570 116 559T113 524T111 457T110 340Q110 267 110 224T112 156T115 121T120 101Q141 41 207 41Z"  />
<glyph unicode="P" horiz-adv-x="387" d="M78 0Q68 0 68 10V670Q68 680 78 680H176Q266 680 308 635T350 483Q350 377 308 331T176 285H126Q120 285 120 279V10Q120 0 110 0H78ZM176 334Q243 334 270 367T298 483Q298 564 271 597T176 631H126Q120 631 120 625V340Q120 334 126 334H176Z"  />
<glyph unicode="Q" horiz-adv-x="414" d="M375 -10Q368 -17 361 -10L314 33Q276 -8 207 -8Q100 -8 70 85Q66 96 64 109T60 149T58 220T57 340Q57 415 57 460T59 531T63 570T70 595Q100 688 207 688Q314 688 344 595Q348 584 350 571T354 531T356 460T357 340Q357 265 357 220T355 149T351 110T344 85L339 73L391 26Q399 19 392 12L375 -10ZM207 40Q252 40 276 68L225 115Q218 122 223 130L240 150Q247 158 254 151L297 111Q299 120 300 133T303 171T304 237T305 340Q305 413 305 456T303 524T299 559T294 579Q284 610 262 624T207 639Q175 639 153 625T120 579Q117 570 115 559T112 524T110 457T109 340Q109 267 109 224T111 156T115 121T120 101Q130 70 152 55T207 40Z"  />
<glyph unicode="R" horiz-adv-x="404" d="M314 0Q306 0 303 7L215 307Q195 304 173 304H126Q120 304 120 298V10Q120 0 110 0H78Q68 0 68 10V670Q68 680 78 680H175Q264 680 306 638T348 492Q348 420 327 379T264 320L356 10Q359 0 351 0H314ZM179 352Q209 352 231 358T268 381T289 424T296 492Q296 531 290 558T269 601T232 624T179 631H126Q120 631 120 625V358Q120 352 126 352H179Z"  />
<glyph unicode="S" horiz-adv-x="377" d="M333 187Q333 82 299 37T189 -8Q50 -8 43 163Q43 173 50 174L80 180Q91 183 91 172Q96 98 120 69T190 40Q213 40 230 46T258 68T276 111T282 181Q282 213 278 236T265 275T242 302T207 321L166 337Q132 350 110 365T75 402T57 452T51 519Q51 688 189 688Q323 688 327 531Q327 522 320 520L291 515Q280 512 280 523Q278 583 257 611T190 640Q144 640 123 612T102 521Q102 462 119 434T178 390L219 374Q251 361 272 346T307 309T327 258T333 187Z"  />
<glyph unicode="T" horiz-adv-x="360" d="M164 0Q154 0 154 10V625Q154 631 148 631H28Q18 631 18 641V670Q18 680 28 680H332Q342 680 342 670V641Q342 631 332 631H212Q206 631 206 625V10Q206 0 196 0H164Z"  />
<glyph unicode="U" horiz-adv-x="428" d="M214 -8Q148 -8 108 33T67 160V670Q67 680 77 680H109Q119 680 119 670V156Q119 96 145 69T214 41Q257 41 283 68T310 156V670Q310 680 320 680H351Q361 680 361 670V160Q361 75 321 34T214 -8Z"  />
<glyph unicode="V" horiz-adv-x="377" d="M173 0Q165 0 163 10L28 670Q26 680 36 680H69Q78 680 80 670L188 122H191L298 670Q300 680 308 680H341Q351 680 349 670L214 10Q212 0 204 0H173Z"  />
<glyph unicode="W" horiz-adv-x="572" d="M389 0Q381 0 379 10L288 550H286L194 10Q192 0 184 0H154Q146 0 144 10L32 670Q30 680 40 680H73Q82 680 84 670L169 128H171L263 670Q265 680 273 680H299Q307 680 309 670L402 128H405L490 670Q492 680 500 680H533Q542 680 540 670L428 10Q426 0 418 0H389Z"  />
<glyph unicode="X" horiz-adv-x="380" d="M307 0Q299 0 296 9L190 285H189L84 9Q81 0 73 0H37Q28 0 31 10L163 354L41 670Q38 680 48 680H83Q91 680 94 671L189 420H190L285 671Q288 680 296 680H332Q341 680 338 670L216 354L349 10Q352 0 342 0H307Z"  />
<glyph unicode="Y" horiz-adv-x="360" d="M164 0Q154 0 154 10V286L23 670Q20 680 29 680H64Q72 680 75 670L180 361H182L285 670Q288 680 296 680H331Q340 680 337 670L206 286V10Q206 0 196 0H164Z"  />
<glyph unicode="Z" horiz-adv-x="350" d="M44 0Q34 0 34 10V37Q34 42 34 44T37 51L261 630V631H52Q42 631 42 641V670Q42 680 52 680H305Q315 680 315 670V642Q315 634 313 629L90 50V49H306Q316 49 316 39V10Q316 0 306 0H44Z"  />
<glyph unicode="[" horiz-adv-x="240" d="M96 -84Q86 -84 86 -74V730Q86 740 96 740H190Q200 740 200 730V706Q200 696 190 696H139Q133 696 133 690V-34Q133 -40 139 -40H190Q200 -40 200 -50V-74Q200 -84 190 -84H96Z"  />
<glyph unicode="\" horiz-adv-x="223" d="M163 -8Q153 -8 152 2L28 678Q26 688 37 688H59Q68 688 70 678L195 2Q197 -8 186 -8H163Z"  />
<glyph unicode="]" horiz-adv-x="240" d="M50 -84Q40 -84 40 -74V-50Q40 -40 50 -40H101Q107 -40 107 -34V690Q107 696 101 696H50Q40 696 40 706V730Q40 740 50 740H144Q154 740 154 730V-74Q154 -84 144 -84H50Z"  />
<glyph unicode="^" horiz-adv-x="371" d="M298 283Q289 283 285 293L187 610H185L86 293Q83 283 73 283H45Q35 283 38 293L160 670Q163 680 174 680H197Q208 680 211 670L333 293Q336 283 326 283H298Z"  />
<glyph unicode="_" horiz-adv-x="364" d="M0 -119V-83H364V-119H0Z"  />
<glyph unicode="`" horiz-adv-x="362" d="M217 559Q207 559 200 569L118 690Q116 694 117 697T123 700H156Q166 700 172 690L243 569Q248 559 237 559H217Z"  />
<glyph unicode="a" horiz-adv-x="359" d="M260 0Q250 0 250 10V56H249Q239 25 214 9T157 -8Q135 -8 115 -1T80 22T56 65T47 130Q47 207 83 239T182 272H244Q250 272 250 278V330Q250 388 231 413T174 438Q145 438 126 429T90 403Q83 395 76 402L62 423Q58 430 64 438Q81 458 109 471T178 485Q239 485 268 451T298 334V10Q298 0 288 0H260ZM167 36Q202 36 226 66T250 146V222Q250 228 244 228H187Q137 228 117 205T96 131Q96 81 115 59T167 36Z"  />
<glyph unicode="b" horiz-adv-x="376" d="M208 -8Q168 -8 147 9T116 49H115V10Q115 0 105 0H76Q66 0 66 10V670Q66 680 76 680H105Q115 680 115 670V427H116Q126 450 147 467T208 485Q246 485 272 467T311 409Q314 398 316 388T320 360T321 313T322 238Q322 192 322 164T320 117T317 89T311 68Q298 28 272 10T208 -8ZM194 39Q248 39 264 89Q267 97 268 105T271 129T272 170T273 238Q273 280 273 306T271 347T269 371T264 388Q248 438 194 438Q168 438 151 425T125 388Q122 380 121 372T118 348T116 306T115 238Q115 196 115 170T117 129T120 106T125 89Q141 39 194 39Z"  />
<glyph unicode="c" horiz-adv-x="336" d="M53 238Q53 284 53 312T55 357T58 383T64 404Q90 485 178 485Q229 485 260 456T299 372Q301 364 293 361L264 355Q254 352 252 362Q246 403 228 420T178 438Q155 438 138 427T111 389Q109 381 107 373T104 349T103 308T102 238Q102 194 102 168T104 127T107 104T111 87Q120 61 137 50T178 38Q209 38 227 55T252 114Q254 124 264 121L293 115Q301 112 299 104Q292 50 261 21T178 -9Q90 -9 64 72Q61 82 59 92T55 119T54 163T53 238Z"  />
<glyph unicode="d" horiz-adv-x="376" d="M168 -8Q130 -8 104 10T65 68Q62 78 60 88T56 117T55 163T54 238Q54 284 54 313T56 359T59 387T65 409Q78 449 104 467T168 485Q208 485 229 468T260 427H261V670Q261 680 271 680H300Q310 680 310 670V10Q310 0 300 0H271Q261 0 261 10V49H260Q250 26 229 9T168 -8ZM182 39Q235 39 251 89Q254 97 255 105T258 129T260 170T261 238Q261 280 261 306T259 347T256 371T251 388Q243 411 226 424T182 438Q128 438 112 388Q109 380 108 372T105 348T104 306T103 238Q103 196 103 170T105 129T107 106T112 89Q128 39 182 39Z"  />
<glyph unicode="e" horiz-adv-x="355" d="M305 238Q305 228 295 228H108Q102 228 102 222Q102 185 102 162T104 125T107 102T111 88Q119 63 136 51T178 39Q209 39 227 54T255 105Q258 115 267 112L294 106Q303 104 300 94Q289 43 258 18T177 -8Q135 -8 106 12T64 73Q61 80 59 90T56 117T54 164T53 238Q53 283 53 312T55 358T59 386T64 404Q90 485 179 485Q268 485 294 404Q297 396 299 386T302 359T304 312T305 238ZM250 272Q256 272 256 278Q256 307 256 326T254 357T251 377T247 389Q230 439 179 439Q128 439 111 389Q109 384 108 377T105 358T103 326T102 278Q102 272 108 272H250Z"  />
<glyph unicode="f" horiz-adv-x="230" d="M91 0Q81 0 81 10V429Q81 435 75 435H46Q36 435 36 445V467Q36 477 46 477H75Q81 477 81 483V570Q81 624 105 652T185 680H200Q210 680 210 670V643Q210 633 200 633H179Q131 633 131 580V483Q131 477 137 477H199Q209 477 209 467V445Q209 435 199 435H137Q131 435 131 429V10Q131 0 121 0H91Z"  />
<glyph unicode="g" horiz-adv-x="372" d="M179 -188Q137 -188 105 -167T62 -107Q60 -98 67 -95L95 -85Q104 -80 108 -91Q116 -116 135 -128T179 -141Q215 -141 236 -120T257 -51V54H256Q246 31 226 14T166 -4Q125 -4 101 15T64 73Q61 82 59 93T56 122T54 168T53 240Q53 284 53 312T55 359T59 388T64 408Q76 445 100 465T166 485Q206 485 226 468T256 427H257V467Q257 477 267 477H296Q306 477 306 467V-46Q306 -118 272 -153T179 -188ZM179 43Q230 43 247 93Q249 100 251 108T254 132T256 173T257 240Q257 281 257 306T255 348T251 372T247 388Q230 438 179 438Q126 438 111 388Q109 381 107 373T104 348T103 307T102 240Q102 199 102 174T104 133T107 109T111 93Q126 43 179 43Z"  />
<glyph unicode="h" horiz-adv-x="380" d="M279 0Q269 0 269 10V332Q269 384 251 411T192 438Q157 438 136 412T115 332V10Q115 0 105 0H76Q66 0 66 10V670Q66 680 76 680H105Q115 680 115 670V428H116Q126 451 147 468T207 485Q318 485 318 340V10Q318 0 308 0H279Z"  />
<glyph unicode="i" horiz-adv-x="181" d="M71 606Q61 606 61 616V670Q61 680 71 680H110Q120 680 120 670V616Q120 606 110 606H71ZM76 0Q66 0 66 10V467Q66 477 76 477H105Q115 477 115 467V10Q115 0 105 0H76Z"  />
<glyph unicode="j" horiz-adv-x="181" d="M71 606Q61 606 61 616V670Q61 680 71 680H110Q120 680 120 670V616Q120 606 110 606H71ZM22 -180Q12 -180 12 -170V-143Q12 -133 22 -133H29Q49 -132 57 -122T66 -89V467Q66 477 76 477H105Q115 477 115 467V-88Q115 -180 29 -180H22Z"  />
<glyph unicode="k" horiz-adv-x="351" d="M286 0Q276 0 272 10L172 242L115 140V10Q115 0 105 0H76Q66 0 66 10V670Q66 680 76 680H105Q115 680 115 670V220L252 467Q258 477 266 477H299Q310 477 305 467L201 289L325 10Q328 0 317 0H286Z"  />
<glyph unicode="l" horiz-adv-x="207" d="M158 -3Q107 1 87 26T66 111V670Q66 680 76 680H105Q115 680 115 670V105Q115 76 125 63T159 45L164 44Q174 43 174 34V6Q174 -5 165 -3H158Z"  />
<glyph unicode="m" horiz-adv-x="583" d="M482 0Q472 0 472 10V332Q472 438 394 438Q359 438 339 413T318 335V10Q318 0 308 0H279Q269 0 269 10V332Q269 384 251 411T192 438Q157 438 136 412T115 332V10Q115 0 105 0H76Q66 0 66 10V467Q66 477 76 477H105Q115 477 115 467V428H116Q126 451 147 468T207 485Q281 485 305 422H306Q318 450 343 467T406 485Q521 485 521 340V10Q521 0 511 0H482Z"  />
<glyph unicode="n" horiz-adv-x="380" d="M279 0Q269 0 269 10V332Q269 384 251 411T192 438Q157 438 136 412T115 332V10Q115 0 105 0H76Q66 0 66 10V467Q66 477 76 477H105Q115 477 115 467V428H116Q126 451 147 468T207 485Q318 485 318 340V10Q318 0 308 0H279Z"  />
<glyph unicode="o" horiz-adv-x="362" d="M309 239Q309 194 309 167T307 122T304 95T299 74Q286 33 256 13T181 -8Q137 -8 107 12T63 74Q60 84 58 94T55 122T54 166T53 239Q53 283 53 310T55 355T58 382T63 403Q76 444 106 464T181 485Q225 485 255 465T299 403Q302 393 304 383T307 355T308 311T309 239ZM260 239Q260 281 260 306T259 347T257 371T252 388Q236 438 181 438Q126 438 110 388Q107 380 106 372T104 348T103 307T102 239Q102 197 102 171T103 130T105 106T110 89Q126 39 181 39Q236 39 252 89Q255 97 256 105T258 129T259 171T260 239Z"  />
<glyph unicode="p" horiz-adv-x="376" d="M76 -180Q66 -180 66 -170V467Q66 477 76 477H105Q115 477 115 467V427H116Q126 450 147 467T208 485Q246 485 272 467T311 409Q314 398 316 388T320 360T321 313T322 238Q322 192 322 164T320 117T317 89T311 68Q298 28 272 10T208 -8Q168 -8 147 9T116 49H115V-170Q115 -180 105 -180H76ZM194 39Q248 39 264 89Q267 97 268 105T271 129T272 170T273 238Q273 280 273 306T271 347T269 371T264 388Q248 438 194 438Q168 438 151 425T125 388Q122 380 121 372T118 348T116 306T115 238Q115 196 115 170T117 129T120 106T125 89Q141 39 194 39Z"  />
<glyph unicode="q" horiz-adv-x="376" d="M271 -180Q261 -180 261 -170V49H260Q250 26 229 9T168 -8Q130 -8 104 10T65 68Q62 78 60 88T56 117T55 163T54 238Q54 284 54 313T56 359T59 387T65 409Q78 449 104 467T168 485Q208 485 229 468T260 427H261V467Q261 477 271 477H300Q310 477 310 467V-170Q310 -180 300 -180H271ZM182 39Q235 39 251 89Q254 97 255 105T258 129T260 170T261 238Q261 280 261 306T259 347T256 371T251 388Q243 411 226 424T182 438Q128 438 112 388Q109 380 108 372T105 348T104 306T103 238Q103 196 103 170T105 129T107 106T112 89Q128 39 182 39Z"  />
<glyph unicode="r" horiz-adv-x="248" d="M76 0Q66 0 66 10V467Q66 477 76 477H105Q115 477 115 467V424H116Q125 450 147 467T201 485Q213 485 221 482Q230 479 227 470L219 440Q216 432 207 434Q203 435 192 435Q161 435 138 407T115 320V10Q115 0 105 0H76Z"  />
<glyph unicode="s" horiz-adv-x="335" d="M169 -8Q114 -8 82 22T44 111Q42 122 51 123L78 128Q88 130 90 120Q95 74 116 55T169 36Q204 36 223 56T243 123Q243 158 231 178T185 213L143 229Q97 247 75 277T52 357Q52 414 82 449T169 485Q196 485 216 477T251 454T273 421T284 381Q286 370 277 368L253 363Q243 361 241 371Q235 402 218 421T168 441Q134 441 117 419T100 359Q100 330 112 311T159 277L200 261Q253 241 272 209T291 125Q291 63 260 28T169 -8Z"  />
<glyph unicode="t" horiz-adv-x="229" d="M166 -3Q120 -3 101 18T81 88V429Q81 435 75 435H46Q36 435 36 445V467Q36 477 46 477H75Q81 477 81 483V620Q81 630 91 630H120Q130 630 130 620V483Q130 477 136 477H184Q194 477 194 467V445Q194 435 184 435H136Q130 435 130 429V88Q130 44 171 44H184Q194 44 194 34V7Q194 -3 184 -3H166Z"  />
<glyph unicode="u" horiz-adv-x="376" d="M271 0Q261 0 261 10V49H260Q250 26 230 9T171 -8Q61 -8 61 136V467Q61 477 71 477H100Q110 477 110 467V145Q110 92 128 66T186 39Q221 39 241 64T261 145V467Q261 477 271 477H300Q310 477 310 467V10Q310 0 300 0H271Z"  />
<glyph unicode="v" horiz-adv-x="335" d="M155 0Q146 0 144 10L31 467Q29 477 39 477H70Q78 477 80 467L168 102H170L256 467Q258 477 266 477H297Q307 477 304 467L191 10Q189 0 181 0H155Z"  />
<glyph unicode="w" horiz-adv-x="509" d="M337 0Q329 0 327 10L255 364H253L182 10Q180 0 172 0H146Q138 0 135 10L37 467Q35 477 45 477H76Q85 477 87 467L158 106H160L233 467Q235 477 243 477H266Q275 477 277 467L349 106H351L423 467Q425 477 433 477H464Q474 477 472 467L374 10Q372 0 363 0H337Z"  />
<glyph unicode="x" horiz-adv-x="342" d="M269 0Q260 0 256 9L171 196H170L86 9Q81 0 73 0H38Q28 0 33 10L145 247L43 467Q38 477 48 477H82Q91 477 95 468L172 298H173L249 468Q253 477 262 477H295Q305 477 300 467L197 247L309 10Q314 0 304 0H269Z"  />
<glyph unicode="y" horiz-adv-x="339" d="M61 -180Q51 -180 51 -170V-143Q51 -133 61 -133L72 -132Q92 -132 104 -121T124 -77L146 12L33 467Q31 477 41 477H74Q82 477 84 467L170 105H171L257 467Q259 477 267 477H299Q309 477 307 467L171 -73Q163 -105 155 -125T134 -158T107 -175T70 -180H61Z"  />
<glyph unicode="z" horiz-adv-x="321" d="M48 0Q38 0 38 10V35Q38 40 41 46L227 430V432H58Q48 432 48 442V467Q48 477 58 477H276Q286 477 286 467V446Q286 440 283 434L94 48V46H276Q286 46 286 36V10Q286 0 276 0H48Z"  />
<glyph unicode="{" horiz-adv-x="271" d="M205 -84Q158 -84 137 -61T115 19V234Q115 271 104 288T63 309Q53 311 53 319V343Q53 351 63 353Q92 357 103 374T115 428V638Q115 693 136 716T205 740H221Q231 740 231 730V706Q231 696 221 696H209Q185 696 174 683T163 639V444Q163 417 161 399T154 368T139 347T117 332V330Q130 324 139 316T153 294T161 263T163 218V17Q163 -14 174 -27T209 -40H221Q231 -40 231 -50V-74Q231 -84 221 -84H205Z"  />
<glyph unicode="|" horiz-adv-x="233" d="M105 -84Q95 -84 95 -74V730Q95 740 105 740H128Q138 740 138 730V-74Q138 -84 128 -84H105Z"  />
<glyph unicode="}" horiz-adv-x="271" d="M50 -84Q40 -84 40 -74V-50Q40 -40 50 -40H62Q86 -40 97 -27T108 17V218Q108 245 110 263T117 294T131 315T154 330V332Q140 338 132 346T118 367T110 398T108 444V639Q108 670 97 683T62 696H50Q40 696 40 706V730Q40 740 50 740H66Q113 740 134 717T156 638V428Q156 391 167 374T208 353Q218 351 218 343V319Q218 311 208 309Q179 305 168 288T156 234V19Q156 -37 135 -60T66 -84H50Z"  />
<glyph unicode="~" horiz-adv-x="371" d="M245 230Q227 230 211 237T179 256Q164 265 151 272T127 279Q109 279 97 269T70 236Q65 228 56 232L39 242Q30 247 35 256Q52 286 73 304T126 322Q144 322 160 315T192 296Q207 287 220 280T244 273Q263 273 275 283T301 316Q306 324 315 320L332 310Q340 305 336 296Q319 266 298 248T245 230Z"  />
<glyph unicode="&#xA0;" horiz-adv-x="184" />
<glyph unicode="&#xA1;" horiz-adv-x="211" d="M115 307Q125 307 125 297L133 -193Q133 -203 123 -203H89Q79 -203 79 -193L87 297Q87 307 97 307H115ZM138 402Q138 392 128 392H83Q73 392 73 402V467Q73 477 83 477H128Q138 477 138 467V402Z"  />
<glyph unicode="&#xA2;" horiz-adv-x="371" d="M187 -102Q177 -102 177 -92V-7Q97 1 75 72Q72 82 70 92T66 119T65 164T64 238Q64 284 64 312T66 357T69 383T75 404Q98 477 177 484V568Q177 578 187 578H198Q208 578 208 568V484Q253 480 281 454T317 380Q319 372 311 369L282 362Q271 360 270 369Q258 430 208 437V40Q258 46 270 107Q272 117 282 114L311 107Q319 105 317 96Q309 48 281 23T208 -7V-92Q208 -102 198 -102H187ZM122 88Q136 44 177 40V437Q136 431 122 389Q119 381 118 373T115 350T114 308T113 238Q113 194 113 168T115 127T117 104T122 88Z"  />
<glyph unicode="&#xA3;" horiz-adv-x="371" d="M58 0Q48 0 48 10V37Q48 43 53 48Q72 67 79 87T87 145V294Q87 300 81 300H51Q41 300 41 310V331Q41 341 51 341H81Q87 341 87 347V548Q87 615 116 651T203 688Q263 688 290 652T320 552Q320 542 312 541L285 536Q273 534 273 544Q271 596 254 618T202 641Q136 641 136 550V347Q136 341 142 341H241Q251 341 251 331V310Q251 300 241 300H142Q136 300 136 294V145Q136 107 129 85T104 48V47H314Q324 47 324 37V10Q324 0 314 0H58Z"  />
<glyph unicode="&#xA4;" horiz-adv-x="371" d="M313 181Q307 175 299 181L262 220Q229 195 186 195Q142 195 109 220L72 181Q64 175 58 181L44 196Q37 203 44 210L82 248Q59 279 59 322Q59 344 65 363T83 398L45 436Q37 442 45 450L59 464Q66 471 73 464L110 425Q126 436 145 442T186 449Q228 449 260 425L299 464Q306 471 313 464L326 450Q334 442 326 436L288 398Q299 382 305 363T312 322Q312 301 306 282T289 248L327 210Q334 203 327 196L313 181ZM186 234Q224 234 248 259T272 322Q272 361 248 385T186 410Q147 410 123 386T99 322Q99 284 123 259T186 234Z"  />
<glyph unicode="&#xA5;" horiz-adv-x="371" d="M170 0Q160 0 160 10V162Q160 168 154 168H67Q57 168 57 178V198Q57 208 67 208H154Q160 208 160 214V277Q160 283 154 283H67Q57 283 57 293V313Q57 323 67 323H149V325L38 670Q35 680 44 680H78Q86 680 89 670L185 363H188L281 670Q284 680 293 680H326Q336 680 333 670L221 325V323H304Q314 323 314 313V293Q314 283 304 283H216Q210 283 210 277V214Q210 208 216 208H304Q314 208 314 198V178Q314 168 304 168H216Q210 168 210 162V10Q210 0 200 0H170Z"  />
<glyph unicode="&#xA6;" horiz-adv-x="233" d="M105 388Q95 388 95 398V730Q95 740 105 740H128Q138 740 138 730V398Q138 388 128 388H105ZM105 -84Q95 -84 95 -74V262Q95 272 105 272H128Q138 272 138 262V-74Q138 -84 128 -84H105Z"  />
<glyph unicode="&#xA7;" horiz-adv-x="424" d="M213 -188Q120 -188 95 -111Q90 -97 88 -82T86 -39Q86 -30 95 -28L122 -25Q132 -24 132 -34Q132 -62 134 -75T139 -97Q154 -145 213 -145Q271 -145 287 -97Q290 -88 291 -76T293 -42Q293 -21 292 -8T287 16Q278 43 254 59T188 84Q147 94 125 114T92 167Q87 183 85 202T82 253Q82 282 84 300T91 334Q100 361 117 380T160 407V408Q139 416 123 432T97 475Q92 487 90 503T88 543Q88 567 90 582T97 611Q109 649 138 668T212 688Q301 688 326 611Q331 597 333 582T335 539Q335 529 326 528L299 525Q289 524 289 534Q289 562 287 575T282 597Q274 622 256 633T213 645Q187 645 169 634T142 597Q139 588 138 576T136 543Q136 526 137 514T142 491Q151 464 174 448T239 423Q279 413 301 393T335 340Q340 324 342 305T345 253Q345 224 343 206T335 173Q326 146 309 127T266 100V99Q288 91 305 75T332 32Q337 20 339 3T341 -41Q341 -67 339 -82T332 -111Q307 -188 213 -188ZM213 127Q272 127 290 180Q294 191 295 207T297 253Q297 284 296 300T290 327Q272 380 213 380Q155 380 137 327Q133 316 131 300T129 253Q129 223 131 207T137 180Q155 127 213 127Z"  />
<glyph unicode="&#xA8;" horiz-adv-x="362" d="M233 606Q223 606 223 616V670Q223 680 233 680H267Q277 680 277 670V616Q277 606 267 606H233ZM95 606Q85 606 85 616V670Q85 680 95 680H129Q139 680 139 670V616Q139 606 129 606H95Z"  />
<glyph unicode="&#xA9;" horiz-adv-x="734" d="M367 -8Q257 -8 181 44T73 193Q65 219 61 254T56 340Q56 391 60 426T73 487Q105 584 181 636T367 688Q477 688 553 636T661 487Q669 461 673 426T678 340Q678 289 674 254T661 193Q630 96 554 44T367 -8ZM367 30Q463 30 528 74T621 202Q629 225 633 258T638 340Q638 389 634 422T621 479Q594 563 529 606T367 650Q272 650 206 607T113 479Q105 455 101 422T97 340Q97 291 101 258T113 202Q140 118 206 74T367 30ZM370 143Q297 143 276 209Q274 215 273 222T270 244T269 281T268 340Q268 376 268 399T270 436T272 457T276 471Q297 537 370 537Q414 537 438 514T467 460Q469 452 461 450L438 445Q430 443 428 452Q422 473 408 485T370 497Q329 497 316 458Q314 454 313 449T312 432T311 398T310 340Q310 304 310 282T311 248T313 231T316 222Q329 183 370 183Q394 183 408 195T428 228Q430 237 438 235L461 230Q469 228 467 220Q462 189 438 166T370 143Z"  />
<glyph unicode="&#xAA;" horiz-adv-x="259" d="M181 392Q171 392 171 402V422H170Q165 408 150 398T114 388Q82 388 62 408T41 471Q41 520 65 542T131 565H165Q171 565 171 571V592Q171 624 160 637T125 650Q98 650 74 630Q65 624 60 630L52 645Q47 652 55 658Q68 671 86 678T128 686Q166 686 187 666T208 595V402Q208 392 198 392H181ZM121 422Q142 422 156 438T171 481V526Q171 532 165 532H134Q79 532 79 473Q79 449 90 436T121 422Z"  />
<glyph unicode="&#xAB;" horiz-adv-x="400" d="M186 257Q179 264 186 271L329 423Q332 426 335 425T339 419V382Q339 374 330 365L240 268Q236 264 240 260L330 163Q339 154 339 146V109Q339 104 336 103T329 105L186 257ZM41 257Q34 264 41 271L184 423Q187 426 190 425T194 419V382Q194 377 193 374T186 365L96 268Q92 264 96 260L186 163Q191 158 192 155T194 146V109Q194 104 191 103T184 105L41 257Z"  />
<glyph unicode="&#xAC;" horiz-adv-x="371" d="M295 154Q285 154 285 164V247Q285 253 279 253H49Q39 253 39 263V289Q39 299 49 299H322Q332 299 332 289V164Q332 154 322 154H295Z"  />
<glyph unicode="&#xAD;" horiz-adv-x="297" d="M51 243Q41 243 41 253V280Q41 290 51 290H247Q257 290 257 280V253Q257 243 247 243H51Z"  />
<glyph unicode="&#xAE;" horiz-adv-x="428" d="M214 302Q153 302 111 331T51 415Q47 429 44 446T41 493Q41 522 44 539T51 570Q68 624 110 654T214 684Q274 684 317 653T377 570Q382 556 384 539T387 493Q387 467 384 448T377 415Q357 368 315 335T214 302ZM214 327Q265 327 300 352T350 424Q355 437 357 453T359 493Q359 516 357 532T350 562Q336 607 301 632T214 658Q163 658 128 633T78 562Q74 548 72 532T69 493Q69 469 71 453T78 424Q93 378 128 353T214 327ZM172 386Q165 386 165 395V593Q165 602 172 602H213Q243 602 258 588T273 541Q273 519 266 507T246 487Q253 464 260 442T274 396Q277 386 267 386H253Q246 386 245 395V394Q239 415 232 436T219 479H195Q193 479 193 476V395Q193 386 186 386H172ZM212 505Q230 505 237 513T245 541Q245 561 238 568T212 576H195Q193 576 193 574V507Q193 505 195 505H212Z"  />
<glyph unicode="&#xAF;" horiz-adv-x="362" d="M90 621Q80 621 80 631V654Q80 664 90 664H272Q282 664 282 654V631Q282 621 272 621H90Z"  />
<glyph unicode="&#xB0;" horiz-adv-x="320" d="M160 461Q112 461 81 492T50 571Q50 619 81 650T160 681Q208 681 239 650T270 571Q270 523 239 492T160 461ZM160 497Q192 497 212 518T233 571Q233 603 213 624T160 645Q128 645 108 624T88 571Q88 539 108 518T160 497Z"  />
<glyph unicode="&#xB1;" horiz-adv-x="371" d="M172 136Q162 136 162 146V255Q162 261 156 261H49Q39 261 39 271V296Q39 306 49 306H156Q162 306 162 312V421Q162 431 172 431H199Q209 431 209 421V312Q209 306 215 306H322Q332 306 332 296V271Q332 261 322 261H215Q209 261 209 255V146Q209 136 199 136H172ZM49 0Q39 0 39 10V36Q39 46 49 46H322Q332 46 332 36V10Q332 0 322 0H49Z"  />
<glyph unicode="&#xB2;" horiz-adv-x="258" d="M49 430Q39 430 39 440V461Q39 469 43 477L157 667Q166 682 172 698T178 735Q178 752 177 760T173 774Q168 788 158 796T128 804Q109 804 99 796T83 774Q81 768 80 760T79 733Q79 722 68 724L47 726Q38 727 38 738Q38 755 39 766T44 786Q62 843 129 843Q196 843 214 786Q217 777 218 766T220 735Q220 707 212 685T189 639L85 470V469H210Q220 469 220 459V440Q220 430 210 430H49Z"  />
<glyph unicode="&#xB3;" horiz-adv-x="258" d="M128 423Q61 423 44 479Q38 498 38 522Q38 532 47 534L68 537Q78 538 78 527Q78 513 79 506T83 492Q88 478 98 470T128 462Q147 462 157 470T173 492Q175 498 176 507T178 543Q178 571 178 580T175 594Q165 622 128 622H120Q110 622 110 632V651Q110 661 120 661H128Q165 661 174 688Q176 694 177 702T178 733Q178 751 177 759T173 774Q168 788 158 796T128 804Q109 804 99 796T83 774Q81 768 80 761T78 739Q78 728 68 729L47 732Q38 733 38 744Q38 767 44 787Q61 843 128 843Q196 843 213 787Q216 777 217 766T219 733Q219 709 218 698T215 679Q207 654 181 643V642Q207 630 214 605Q217 597 218 585T219 543Q219 514 218 502T213 479Q196 423 128 423Z"  />
<glyph unicode="&#xB4;" horiz-adv-x="362" d="M124 559Q114 559 119 569L190 690Q196 700 206 700H238Q243 700 244 697T243 690L162 569Q157 563 154 561T145 559H124Z"  />
<glyph unicode="&#xB5;" horiz-adv-x="381" d="M276 0Q266 0 266 10V49H265Q257 25 236 9T180 -8Q159 -8 141 -1T115 24V-170Q115 -180 105 -180H76Q66 -180 66 -170V467Q66 477 76 477H105Q115 477 115 467V144Q115 91 132 65T190 38Q225 38 245 63T266 144V467Q266 477 276 477H305Q315 477 315 467V10Q315 0 305 0H276Z"  />
<glyph unicode="&#xB6;" horiz-adv-x="421" d="M312 -180Q302 -180 302 -170V630Q302 636 296 636H251Q245 636 245 630V-170Q245 -180 235 -180H211Q201 -180 201 -170V258Q134 271 97 327T60 469Q60 512 72 550T107 618T164 663T241 680H335Q345 680 345 670V-170Q345 -180 335 -180H312Z"  />
<glyph unicode="&#xB7;" horiz-adv-x="171" d="M63 223Q53 223 53 233V298Q53 308 63 308H108Q118 308 118 298V233Q118 223 108 223H63Z"  />
<glyph unicode="&#xB8;" horiz-adv-x="362" d="M187 0Q191 10 200 10H222Q232 10 229 0L184 -138Q181 -148 168 -148H142Q132 -148 135 -138L187 0Z"  />
<glyph unicode="&#xB9;" horiz-adv-x="258" d="M138 430Q128 430 128 440V786H127L72 748Q61 741 61 752V779Q61 787 68 791L123 830Q130 836 138 836H160Q170 836 170 826V440Q170 430 160 430H138Z"  />
<glyph unicode="&#xBA;" horiz-adv-x="274" d="M137 388Q73 388 54 444Q52 450 51 456T49 471T48 496T48 537Q48 562 48 577T49 602T51 618T54 630Q73 686 137 686Q168 686 189 672T219 630Q221 624 222 618T224 603T225 578T226 537Q226 512 226 497T225 472T223 456T219 444Q211 417 190 403T137 388ZM137 424Q172 424 183 456Q184 459 185 463T186 476T187 499T188 537Q188 560 188 574T187 597T185 610T183 618Q172 650 137 650Q101 650 90 618Q89 615 88 611T87 598T86 575T86 537Q86 514 86 500T86 477T88 464T90 456Q101 424 137 424Z"  />
<glyph unicode="&#xBB;" horiz-adv-x="400" d="M216 105Q213 102 210 103T206 109V146Q206 151 207 154T214 163L304 260Q308 264 304 268L214 365Q209 370 208 373T206 382V419Q206 424 209 425T216 423L359 271Q366 264 359 257L216 105ZM71 105Q68 102 65 103T61 109V146Q61 154 70 163L160 260Q164 264 160 268L70 365Q61 374 61 382V419Q61 424 64 425T71 423L214 271Q221 264 214 257L71 105Z"  />
<glyph unicode="&#xBC;" horiz-adv-x="666" d="M156 274Q146 274 146 284V630H145L90 592Q79 585 79 596V623Q79 631 86 635L141 674Q148 680 156 680H178Q188 680 188 670V284Q188 274 178 274H156ZM507 1Q497 1 497 11V68Q497 74 491 74H376Q366 74 366 84V104Q366 111 369 120L458 397Q461 407 469 407H493Q503 407 500 397L410 114V113H491Q497 113 497 119V224Q497 234 507 234H527Q537 234 537 224V119Q537 113 543 113H575Q585 113 585 103V84Q585 74 575 74H543Q537 74 537 68V11Q537 1 527 1H507ZM184 -8Q174 -8 177 2L414 678Q418 688 427 688H449Q459 688 456 678L218 2Q214 -8 205 -8H184Z"  />
<glyph unicode="&#xBD;" horiz-adv-x="684" d="M156 274Q146 274 146 284V630H145L90 592Q79 585 79 596V623Q79 631 86 635L141 674Q148 680 156 680H178Q188 680 188 670V284Q188 274 178 274H156ZM433 1Q423 1 423 11V32Q423 40 427 48L541 238Q550 253 556 269T562 306Q562 323 561 331T557 345Q552 359 542 367T512 375Q493 375 483 367T467 345Q465 339 464 331T463 304Q463 293 452 295L431 297Q422 298 422 309Q422 326 423 337T428 357Q446 414 513 414Q580 414 598 357Q601 348 602 337T604 306Q604 278 596 256T573 210L469 41V40H594Q604 40 604 30V11Q604 1 594 1H433ZM184 -8Q174 -8 177 2L414 678Q418 688 427 688H449Q459 688 456 678L218 2Q214 -8 205 -8H184Z"  />
<glyph unicode="&#xBE;" horiz-adv-x="717" d="M559 1Q549 1 549 11V68Q549 74 543 74H428Q418 74 418 84V104Q418 111 421 120L510 397Q513 407 521 407H545Q555 407 552 397L462 114V113H543Q549 113 549 119V224Q549 234 559 234H579Q589 234 589 224V119Q589 113 595 113H627Q637 113 637 103V84Q637 74 627 74H595Q589 74 589 68V11Q589 1 579 1H559ZM235 -8Q225 -8 228 2L465 678Q469 688 478 688H500Q510 688 507 678L269 2Q265 -8 256 -8H235ZM170 267Q103 267 86 323Q80 342 80 366Q80 376 89 378L110 381Q120 382 120 371Q120 357 121 350T125 336Q130 322 140 314T170 306Q189 306 199 314T215 336Q217 342 218 351T220 387Q220 415 220 424T217 438Q207 466 170 466H162Q152 466 152 476V495Q152 505 162 505H170Q207 505 216 532Q218 538 219 546T220 577Q220 595 219 603T215 618Q210 632 200 640T170 648Q151 648 141 640T125 618Q123 612 122 605T120 583Q120 572 110 573L89 576Q80 577 80 588Q80 611 86 631Q103 687 170 687Q238 687 255 631Q258 621 259 610T261 577Q261 553 260 542T257 523Q249 498 223 487V486Q249 474 256 449Q259 441 260 429T261 387Q261 358 260 346T255 323Q238 267 170 267Z"  />
<glyph unicode="&#xBF;" horiz-adv-x="325" d="M181 307Q191 307 191 297V225Q191 205 188 190T175 156L120 52Q105 24 99 1T92 -57Q92 -77 94 -90T99 -114Q107 -139 123 -151T168 -164Q222 -164 238 -114Q241 -104 243 -89T245 -36Q245 -24 256 -26L284 -29Q294 -30 294 -41Q294 -60 294 -74T292 -98T289 -115T285 -130Q272 -168 242 -189T168 -211Q76 -211 52 -130Q47 -118 45 -101T43 -57Q43 -38 44 -23T49 6T59 35T74 68L128 171Q136 185 139 197T142 227V297Q142 307 152 307H181ZM199 402Q199 392 189 392H144Q134 392 134 402V467Q134 477 144 477H189Q199 477 199 467V402Z"  />
<glyph unicode="&#xC0;" horiz-adv-x="388" d="M168 670Q171 680 179 680H212Q221 680 223 670L363 10Q365 0 354 0H322Q313 0 311 10L277 173H111L77 10Q75 0 67 0H35Q30 0 27 2T25 10L168 670ZM267 220L196 567H194L121 220H267ZM187 765Q178 765 169 775L82 878Q79 882 80 885T87 888H120Q126 888 129 886T136 878L212 775Q215 771 214 768T207 765H187Z"  />
<glyph unicode="&#xC1;" horiz-adv-x="388" d="M168 670Q171 680 179 680H212Q221 680 223 670L363 10Q365 0 354 0H322Q313 0 311 10L277 173H111L77 10Q75 0 67 0H35Q30 0 27 2T25 10L168 670ZM267 220L196 567H194L121 220H267ZM186 765Q181 765 180 768T182 775L257 878Q261 883 264 885T274 888H307Q312 888 313 885T311 878L224 775Q215 765 207 765H186Z"  />
<glyph unicode="&#xC2;" horiz-adv-x="388" d="M168 670Q171 680 179 680H212Q221 680 223 670L363 10Q365 0 354 0H322Q313 0 311 10L277 173H111L77 10Q75 0 67 0H35Q30 0 27 2T25 10L168 670ZM267 220L196 567H194L121 220H267ZM266 754Q258 754 251 764L194 850H192L135 764Q131 759 128 757T119 754H97Q92 754 91 756T92 764L168 886Q174 895 183 895H203Q212 895 218 886L294 764Q297 759 296 757T289 754H266Z"  />
<glyph unicode="&#xC3;" horiz-adv-x="388" d="M168 670Q171 680 179 680H212Q221 680 223 670L363 10Q365 0 354 0H322Q313 0 311 10L277 173H111L77 10Q75 0 67 0H35Q30 0 27 2T25 10L168 670ZM267 220L196 567H194L121 220H267ZM232 784Q218 784 207 790T187 805Q178 812 171 816T154 821Q142 821 134 814T115 792Q111 788 107 789T103 795V825Q103 833 111 841Q119 852 130 858T155 865Q169 865 180 859T201 845Q210 837 217 833T233 828Q245 828 254 835T273 857Q276 861 280 860T284 854V824Q284 819 283 816T277 808Q268 797 257 791T232 784Z"  />
<glyph unicode="&#xC4;" horiz-adv-x="388" d="M168 670Q171 680 179 680H212Q221 680 223 670L363 10Q365 0 354 0H322Q313 0 311 10L277 173H111L77 10Q75 0 67 0H35Q30 0 27 2T25 10L168 670ZM267 220L196 567H194L121 220H267ZM245 787Q235 787 235 797V851Q235 861 245 861H279Q289 861 289 851V797Q289 787 279 787H245ZM107 787Q97 787 97 797V851Q97 861 107 861H141Q151 861 151 851V797Q151 787 141 787H107Z"  />
<glyph unicode="&#xC5;" horiz-adv-x="388" d="M168 670Q171 680 179 680H212Q221 680 223 670L363 10Q365 0 354 0H322Q313 0 311 10L277 173H111L77 10Q75 0 67 0H35Q30 0 27 2T25 10L168 670ZM267 220L196 567H194L121 220H267ZM193 742Q158 742 135 765T112 824Q112 859 135 882T193 905Q228 905 251 882T274 824Q274 789 251 766T193 742ZM193 772Q215 772 228 787T242 824Q242 846 229 860T193 875Q171 875 158 861T144 824Q144 802 157 787T193 772Z"  />
<glyph unicode="&#xC6;" horiz-adv-x="596" d="M323 0Q313 0 313 10V167Q313 173 307 173H140L77 10Q73 0 64 0H32Q22 0 25 10L280 670Q283 680 293 680H554Q564 680 564 670V641Q564 631 554 631H371Q365 631 365 625V375Q365 369 371 369H531Q541 369 541 359V330Q541 320 531 320H371Q365 320 365 314V55Q365 49 371 49H554Q564 49 564 39V10Q564 0 554 0H323ZM158 220H307Q313 220 313 226V616H311L158 220Z"  />
<glyph unicode="&#xC7;" horiz-adv-x="374" d="M181 -7Q97 2 70 85Q67 96 65 109T61 148T58 220T57 340Q57 415 58 460T60 531T64 571T70 595Q100 688 203 688Q263 688 299 652T342 550Q343 539 336 537L306 531Q295 527 295 539Q289 587 267 613T204 639Q140 639 120 579Q117 571 116 560T113 524T111 456T110 340Q110 267 110 224T112 156T115 120T120 101Q140 41 204 41Q245 41 267 67T295 142Q295 153 306 149L336 143Q344 142 342 131Q336 70 306 35T224 -6L181 -138Q178 -148 165 -148H139Q129 -148 132 -138L181 -7Z"  />
<glyph unicode="&#xC8;" horiz-adv-x="351" d="M194 765Q185 765 176 775L89 878Q86 882 87 885T94 888H127Q133 888 136 886T143 878L219 775Q222 771 221 768T214 765H194ZM68 670Q68 680 78 680H309Q319 680 319 670V641Q319 631 309 631H126Q120 631 120 625V375Q120 369 126 369H286Q296 369 296 359V330Q296 320 286 320H126Q120 320 120 314V55Q120 49 126 49H309Q319 49 319 39V10Q319 0 309 0H78Q68 0 68 10V670Z"  />
<glyph unicode="&#xC9;" horiz-adv-x="351" d="M174 765Q169 765 168 768T170 775L245 878Q249 883 252 885T262 888H295Q300 888 301 885T299 878L212 775Q203 765 195 765H174ZM68 670Q68 680 78 680H309Q319 680 319 670V641Q319 631 309 631H126Q120 631 120 625V375Q120 369 126 369H286Q296 369 296 359V330Q296 320 286 320H126Q120 320 120 314V55Q120 49 126 49H309Q319 49 319 39V10Q319 0 309 0H78Q68 0 68 10V670Z"  />
<glyph unicode="&#xCA;" horiz-adv-x="351" d="M68 670Q68 680 78 680H309Q319 680 319 670V641Q319 631 309 631H126Q120 631 120 625V375Q120 369 126 369H286Q296 369 296 359V330Q296 320 286 320H126Q120 320 120 314V55Q120 49 126 49H309Q319 49 319 39V10Q319 0 309 0H78Q68 0 68 10V670ZM260 754Q252 754 245 764L188 850H186L129 764Q125 759 122 757T113 754H91Q86 754 85 756T86 764L162 886Q168 895 177 895H197Q206 895 212 886L288 764Q291 759 290 757T283 754H260Z"  />
<glyph unicode="&#xCB;" horiz-adv-x="351" d="M242 787Q232 787 232 797V851Q232 861 242 861H276Q286 861 286 851V797Q286 787 276 787H242ZM104 787Q94 787 94 797V851Q94 861 104 861H138Q148 861 148 851V797Q148 787 138 787H104ZM68 670Q68 680 78 680H309Q319 680 319 670V641Q319 631 309 631H126Q120 631 120 625V375Q120 369 126 369H286Q296 369 296 359V330Q296 320 286 320H126Q120 320 120 314V55Q120 49 126 49H309Q319 49 319 39V10Q319 0 309 0H78Q68 0 68 10V670Z"  />
<glyph unicode="&#xCC;" horiz-adv-x="188" d="M68 670Q68 680 78 680H110Q120 680 120 670V10Q120 0 110 0H78Q68 0 68 10V670ZM84 765Q75 765 66 775L-21 878Q-24 882 -23 885T-16 888H17Q23 888 26 886T33 878L109 775Q112 771 111 768T104 765H84Z"  />
<glyph unicode="&#xCD;" horiz-adv-x="188" d="M68 670Q68 680 78 680H110Q120 680 120 670V10Q120 0 110 0H78Q68 0 68 10V670ZM86 765Q81 765 80 768T82 775L157 878Q161 883 164 885T174 888H207Q212 888 213 885T211 878L124 775Q115 765 107 765H86Z"  />
<glyph unicode="&#xCE;" horiz-adv-x="188" d="M68 670Q68 680 78 680H110Q120 680 120 670V10Q120 0 110 0H78Q68 0 68 10V670ZM169 754Q161 754 154 764L97 850H95L38 764Q34 759 31 757T22 754H0Q-5 754 -6 756T-5 764L71 886Q77 895 86 895H106Q115 895 121 886L197 764Q200 759 199 757T192 754H169Z"  />
<glyph unicode="&#xCF;" horiz-adv-x="188" d="M68 670Q68 680 78 680H110Q120 680 120 670V10Q120 0 110 0H78Q68 0 68 10V670ZM148 787Q138 787 138 797V851Q138 861 148 861H182Q192 861 192 851V797Q192 787 182 787H148ZM10 787Q0 787 0 797V851Q0 861 10 861H44Q54 861 54 851V797Q54 787 44 787H10Z"  />
<glyph unicode="&#xD0;" horiz-adv-x="422" d="M78 0Q68 0 68 10V317Q68 323 62 323H28Q18 323 18 333V357Q18 367 28 367H62Q68 367 68 373V670Q68 680 78 680H200Q262 680 297 654T348 579Q352 565 355 548T360 505T363 439T364 340Q364 281 363 242T361 176T356 132T348 101Q332 52 297 26T200 0H78ZM194 49Q237 49 261 66T298 118Q302 130 304 145T308 184T311 246T312 340Q312 396 311 433T309 495T305 535T298 562Q286 597 262 614T194 631H126Q120 631 120 625V373Q120 367 126 367H201Q211 367 211 357V333Q211 323 201 323H126Q120 323 120 317V55Q120 49 126 49H194Z"  />
<glyph unicode="&#xD1;" horiz-adv-x="441" d="M255 784Q241 784 230 790T210 805Q201 812 194 816T177 821Q165 821 157 814T138 792Q134 788 130 789T126 795V825Q126 833 134 841Q142 852 153 858T178 865Q192 865 203 859T224 845Q233 837 240 833T256 828Q268 828 277 835T296 857Q299 861 303 860T307 854V824Q307 819 306 816T300 808Q291 797 280 791T255 784ZM68 670Q68 680 78 680H118Q130 680 134 670L322 113H325V670Q325 680 335 680H363Q373 680 373 670V10Q373 0 363 0H325Q313 0 309 10L119 567H116V10Q116 0 106 0H78Q68 0 68 10V670Z"  />
<glyph unicode="&#xD2;" horiz-adv-x="414" d="M199 765Q190 765 181 775L94 878Q91 882 92 885T99 888H132Q138 888 141 886T148 878L224 775Q227 771 226 768T219 765H199ZM207 -8Q100 -8 70 85Q66 96 64 109T60 149T58 220T57 340Q57 415 57 460T59 531T63 570T70 595Q100 688 207 688Q314 688 344 595Q348 584 350 571T354 531T356 460T357 340Q357 265 357 220T355 149T351 110T344 85Q314 -8 207 -8ZM207 41Q274 41 294 101Q297 110 299 121T302 156T304 223T305 340Q305 413 305 456T303 524T299 559T294 579Q284 610 262 624T207 639Q140 639 120 579Q117 570 116 559T113 524T111 457T110 340Q110 267 110 224T112 156T115 121T120 101Q141 41 207 41Z"  />
<glyph unicode="&#xD3;" horiz-adv-x="414" d="M191 765Q186 765 185 768T187 775L262 878Q266 883 269 885T279 888H312Q317 888 318 885T316 878L229 775Q220 765 212 765H191ZM207 -8Q100 -8 70 85Q66 96 64 109T60 149T58 220T57 340Q57 415 57 460T59 531T63 570T70 595Q100 688 207 688Q314 688 344 595Q348 584 350 571T354 531T356 460T357 340Q357 265 357 220T355 149T351 110T344 85Q314 -8 207 -8ZM207 41Q274 41 294 101Q297 110 299 121T302 156T304 223T305 340Q305 413 305 456T303 524T299 559T294 579Q284 610 262 624T207 639Q140 639 120 579Q117 570 116 559T113 524T111 457T110 340Q110 267 110 224T112 156T115 121T120 101Q141 41 207 41Z"  />
<glyph unicode="&#xD4;" horiz-adv-x="414" d="M207 -8Q100 -8 70 85Q66 96 64 109T60 149T58 220T57 340Q57 415 57 460T59 531T63 570T70 595Q100 688 207 688Q314 688 344 595Q348 584 350 571T354 531T356 460T357 340Q357 265 357 220T355 149T351 110T344 85Q314 -8 207 -8ZM207 41Q274 41 294 101Q297 110 299 121T302 156T304 223T305 340Q305 413 305 456T303 524T299 559T294 579Q284 610 262 624T207 639Q140 639 120 579Q117 570 116 559T113 524T111 457T110 340Q110 267 110 224T112 156T115 121T120 101Q141 41 207 41ZM280 754Q272 754 265 764L208 850H206L149 764Q145 759 142 757T133 754H111Q106 754 105 756T106 764L182 886Q188 895 197 895H217Q226 895 232 886L308 764Q311 759 310 757T303 754H280Z"  />
<glyph unicode="&#xD5;" horiz-adv-x="414" d="M245 784Q231 784 220 790T200 805Q191 812 184 816T167 821Q155 821 147 814T128 792Q124 788 120 789T116 795V825Q116 833 124 841Q132 852 143 858T168 865Q182 865 193 859T214 845Q223 837 230 833T246 828Q258 828 267 835T286 857Q289 861 293 860T297 854V824Q297 819 296 816T290 808Q281 797 270 791T245 784ZM207 -8Q100 -8 70 85Q66 96 64 109T60 149T58 220T57 340Q57 415 57 460T59 531T63 570T70 595Q100 688 207 688Q314 688 344 595Q348 584 350 571T354 531T356 460T357 340Q357 265 357 220T355 149T351 110T344 85Q314 -8 207 -8ZM207 41Q274 41 294 101Q297 110 299 121T302 156T304 223T305 340Q305 413 305 456T303 524T299 559T294 579Q284 610 262 624T207 639Q140 639 120 579Q117 570 116 559T113 524T111 457T110 340Q110 267 110 224T112 156T115 121T120 101Q141 41 207 41Z"  />
<glyph unicode="&#xD6;" horiz-adv-x="414" d="M259 787Q249 787 249 797V851Q249 861 259 861H293Q303 861 303 851V797Q303 787 293 787H259ZM121 787Q111 787 111 797V851Q111 861 121 861H155Q165 861 165 851V797Q165 787 155 787H121ZM207 -8Q100 -8 70 85Q66 96 64 109T60 149T58 220T57 340Q57 415 57 460T59 531T63 570T70 595Q100 688 207 688Q314 688 344 595Q348 584 350 571T354 531T356 460T357 340Q357 265 357 220T355 149T351 110T344 85Q314 -8 207 -8ZM207 41Q274 41 294 101Q297 110 299 121T302 156T304 223T305 340Q305 413 305 456T303 524T299 559T294 579Q284 610 262 624T207 639Q140 639 120 579Q117 570 116 559T113 524T111 457T110 340Q110 267 110 224T112 156T115 121T120 101Q141 41 207 41Z"  />
<glyph unicode="&#xD7;" horiz-adv-x="371" d="M290 154Q283 147 276 154L190 240Q186 244 182 240L95 154Q88 147 81 154L65 172Q56 179 65 186L151 272Q154 276 151 280L65 366Q56 373 65 380L81 398Q88 405 95 398L182 312Q186 308 190 312L276 398Q283 405 290 398L307 380Q314 373 307 366L221 280Q217 276 221 272L307 186Q314 179 307 172L290 154Z"  />
<glyph unicode="&#xD8;" horiz-adv-x="414" d="M66 -30Q56 -30 59 -20L85 52Q76 67 70 85Q66 96 64 109T60 149T58 220T57 340Q57 415 57 460T59 531T63 570T70 595Q100 688 207 688Q267 688 305 656L321 700Q324 710 333 710H348Q353 710 355 708T355 700L328 629Q333 621 337 613T344 595Q348 584 350 571T354 531T356 460T357 340Q357 265 357 220T355 149T351 110T344 85Q314 -8 207 -8Q146 -8 109 23L93 -20Q90 -30 81 -30H66ZM110 340Q110 290 110 254T110 194T112 153T114 127L283 603Q259 639 207 639Q140 639 120 579Q117 570 116 559T113 524T111 457T110 340ZM207 41Q274 41 294 101Q297 110 299 121T302 156T304 223T305 340Q305 390 305 426T304 486T302 526T300 552L131 77Q156 41 207 41Z"  />
<glyph unicode="&#xD9;" horiz-adv-x="428" d="M215 765Q206 765 197 775L110 878Q107 882 108 885T115 888H148Q154 888 157 886T164 878L240 775Q243 771 242 768T235 765H215ZM214 -8Q148 -8 108 33T67 160V670Q67 680 77 680H109Q119 680 119 670V156Q119 96 145 69T214 41Q257 41 283 68T310 156V670Q310 680 320 680H351Q361 680 361 670V160Q361 75 321 34T214 -8Z"  />
<glyph unicode="&#xDA;" horiz-adv-x="428" d="M198 765Q193 765 192 768T194 775L269 878Q273 883 276 885T286 888H319Q324 888 325 885T323 878L236 775Q227 765 219 765H198ZM214 -8Q148 -8 108 33T67 160V670Q67 680 77 680H109Q119 680 119 670V156Q119 96 145 69T214 41Q257 41 283 68T310 156V670Q310 680 320 680H351Q361 680 361 670V160Q361 75 321 34T214 -8Z"  />
<glyph unicode="&#xDB;" horiz-adv-x="428" d="M214 -8Q148 -8 108 33T67 160V670Q67 680 77 680H109Q119 680 119 670V156Q119 96 145 69T214 41Q257 41 283 68T310 156V670Q310 680 320 680H351Q361 680 361 670V160Q361 75 321 34T214 -8ZM287 754Q279 754 272 764L215 850H213L156 764Q152 759 149 757T140 754H118Q113 754 112 756T113 764L189 886Q195 895 204 895H224Q233 895 239 886L315 764Q318 759 317 757T310 754H287Z"  />
<glyph unicode="&#xDC;" horiz-adv-x="428" d="M266 787Q256 787 256 797V851Q256 861 266 861H300Q310 861 310 851V797Q310 787 300 787H266ZM128 787Q118 787 118 797V851Q118 861 128 861H162Q172 861 172 851V797Q172 787 162 787H128ZM214 -8Q148 -8 108 33T67 160V670Q67 680 77 680H109Q119 680 119 670V156Q119 96 145 69T214 41Q257 41 283 68T310 156V670Q310 680 320 680H351Q361 680 361 670V160Q361 75 321 34T214 -8Z"  />
<glyph unicode="&#xDD;" horiz-adv-x="360" d="M164 0Q154 0 154 10V286L23 670Q20 680 29 680H64Q72 680 75 670L180 361H182L285 670Q288 680 296 680H331Q340 680 337 670L206 286V10Q206 0 196 0H164ZM163 765Q158 765 157 768T159 775L234 878Q238 883 241 885T251 888H284Q289 888 290 885T288 878L201 775Q192 765 184 765H163Z"  />
<glyph unicode="&#xDE;" horiz-adv-x="387" d="M126 150Q120 150 120 144V10Q120 0 110 0H78Q68 0 68 10V670Q68 680 78 680H110Q120 680 120 670V551Q120 545 126 545H176Q266 545 308 500T350 348Q350 242 308 196T176 150H126ZM176 199Q243 199 270 232T298 348Q298 429 271 462T176 496H126Q120 496 120 490V205Q120 199 126 199H176Z"  />
<glyph unicode="&#xDF;" horiz-adv-x="392" d="M206 -3Q196 -3 196 7V34Q196 44 206 44H213Q239 44 255 54T279 88Q281 94 282 101T284 123T285 160T286 218Q286 253 286 275T285 312T283 333T279 347Q263 391 213 391H206Q196 391 196 401V428Q196 438 206 438H211Q236 438 252 446T275 475Q279 486 280 499T282 543Q282 594 260 617T198 641Q159 641 137 618T115 543V10Q115 0 105 0H76Q66 0 66 10V539Q66 613 100 650T197 688Q260 688 295 653T331 545Q331 516 329 496T320 461T302 436T274 419V417Q291 410 304 398T326 359Q329 351 330 342T333 318T335 279T336 218Q336 180 336 155T334 114T331 87T326 69Q313 30 286 14T216 -3H206Z"  />
<glyph unicode="&#xE0;" horiz-adv-x="359" d="M260 0Q250 0 250 10V56H249Q239 25 214 9T157 -8Q135 -8 115 -1T80 22T56 65T47 130Q47 207 83 239T182 272H244Q250 272 250 278V330Q250 388 231 413T174 438Q145 438 126 429T90 403Q83 395 76 402L62 423Q58 430 64 438Q81 458 109 471T178 485Q239 485 268 451T298 334V10Q298 0 288 0H260ZM167 36Q202 36 226 66T250 146V222Q250 228 244 228H187Q137 228 117 205T96 131Q96 81 115 59T167 36ZM177 559Q167 559 160 569L78 690Q76 694 77 697T83 700H116Q126 700 132 690L203 569Q208 559 197 559H177Z"  />
<glyph unicode="&#xE1;" horiz-adv-x="359" d="M260 0Q250 0 250 10V56H249Q239 25 214 9T157 -8Q135 -8 115 -1T80 22T56 65T47 130Q47 207 83 239T182 272H244Q250 272 250 278V330Q250 388 231 413T174 438Q145 438 126 429T90 403Q83 395 76 402L62 423Q58 430 64 438Q81 458 109 471T178 485Q239 485 268 451T298 334V10Q298 0 288 0H260ZM167 36Q202 36 226 66T250 146V222Q250 228 244 228H187Q137 228 117 205T96 131Q96 81 115 59T167 36ZM158 559Q148 559 153 569L224 690Q230 700 240 700H272Q277 700 278 697T277 690L196 569Q191 563 188 561T179 559H158Z"  />
<glyph unicode="&#xE2;" horiz-adv-x="359" d="M260 0Q250 0 250 10V56H249Q239 25 214 9T157 -8Q135 -8 115 -1T80 22T56 65T47 130Q47 207 83 239T182 272H244Q250 272 250 278V330Q250 388 231 413T174 438Q145 438 126 429T90 403Q83 395 76 402L62 423Q58 430 64 438Q81 458 109 471T178 485Q239 485 268 451T298 334V10Q298 0 288 0H260ZM167 36Q202 36 226 66T250 146V222Q250 228 244 228H187Q137 228 117 205T96 131Q96 81 115 59T167 36ZM254 559Q246 559 239 569L182 655H180L123 569Q119 564 116 562T107 559H85Q80 559 79 561T80 569L156 691Q162 700 171 700H191Q200 700 206 691L282 569Q285 564 284 562T277 559H254Z"  />
<glyph unicode="&#xE3;" horiz-adv-x="359" d="M260 0Q250 0 250 10V56H249Q239 25 214 9T157 -8Q135 -8 115 -1T80 22T56 65T47 130Q47 207 83 239T182 272H244Q250 272 250 278V330Q250 388 231 413T174 438Q145 438 126 429T90 403Q83 395 76 402L62 423Q58 430 64 438Q81 458 109 471T178 485Q239 485 268 451T298 334V10Q298 0 288 0H260ZM167 36Q202 36 226 66T250 146V222Q250 228 244 228H187Q137 228 117 205T96 131Q96 81 115 59T167 36ZM219 597Q205 597 194 603T174 617Q165 625 158 629T141 634Q129 634 121 627T102 605Q98 601 94 602T90 608V638Q90 646 98 654Q116 677 142 677Q156 677 167 671T188 657Q197 650 204 646T220 641Q232 641 241 648T260 669Q263 674 267 673T271 667V637Q271 632 270 629T264 621Q255 610 244 604T219 597Z"  />
<glyph unicode="&#xE4;" horiz-adv-x="359" d="M260 0Q250 0 250 10V56H249Q239 25 214 9T157 -8Q135 -8 115 -1T80 22T56 65T47 130Q47 207 83 239T182 272H244Q250 272 250 278V330Q250 388 231 413T174 438Q145 438 126 429T90 403Q83 395 76 402L62 423Q58 430 64 438Q81 458 109 471T178 485Q239 485 268 451T298 334V10Q298 0 288 0H260ZM167 36Q202 36 226 66T250 146V222Q250 228 244 228H187Q137 228 117 205T96 131Q96 81 115 59T167 36ZM233 606Q223 606 223 616V670Q223 680 233 680H267Q277 680 277 670V616Q277 606 267 606H233ZM95 606Q85 606 85 616V670Q85 680 95 680H129Q139 680 139 670V616Q139 606 129 606H95Z"  />
<glyph unicode="&#xE5;" horiz-adv-x="359" d="M260 0Q250 0 250 10V56H249Q239 25 214 9T157 -8Q135 -8 115 -1T80 22T56 65T47 130Q47 207 83 239T182 272H244Q250 272 250 278V330Q250 388 231 413T174 438Q145 438 126 429T90 403Q83 395 76 402L62 423Q58 430 64 438Q81 458 109 471T178 485Q239 485 268 451T298 334V10Q298 0 288 0H260ZM167 36Q202 36 226 66T250 146V222Q250 228 244 228H187Q137 228 117 205T96 131Q96 81 115 59T167 36ZM181 555Q146 555 123 578T100 636Q100 671 123 694T181 717Q216 717 239 694T262 636Q262 601 239 578T181 555ZM181 585Q203 585 216 599T230 636Q230 658 217 672T181 687Q159 687 146 673T132 636Q132 614 145 600T181 585Z"  />
<glyph unicode="&#xE6;" horiz-adv-x="550" d="M373 -8Q335 -8 307 9T266 61H265Q230 -8 158 -8Q136 -8 116 -1T81 23T56 66T47 130Q47 207 83 239T182 272H244Q250 272 250 278V330Q250 388 231 413T174 438Q145 438 126 429T90 403Q83 395 76 402L62 423Q58 430 64 438Q81 458 109 471T178 485Q250 485 276 432H277Q291 458 317 471T375 485Q464 485 490 404Q493 396 495 386T498 359T500 312T501 238Q501 228 491 228H304Q298 228 298 222Q298 185 298 162T300 125T303 102T307 88Q315 63 332 51T374 39Q405 39 423 54T451 105Q454 115 463 112L490 106Q499 104 496 94Q485 43 454 18T373 -8ZM446 272Q452 272 452 278Q452 307 452 326T450 357T447 377T443 389Q426 439 375 439Q324 439 307 389Q305 384 304 377T301 358T299 326T298 278Q298 272 304 272H446ZM167 36Q202 36 226 66T250 146V222Q250 228 244 228H187Q137 228 117 205T96 131Q96 82 115 59T167 36Z"  />
<glyph unicode="&#xE7;" horiz-adv-x="336" d="M155 -7Q85 2 64 72Q61 82 59 92T55 119T54 163T53 238Q53 284 53 312T55 357T58 383T64 404Q90 485 178 485Q229 485 260 456T299 372Q301 364 293 361L264 355Q254 352 252 362Q246 403 228 420T178 438Q155 438 138 427T111 389Q109 381 107 373T104 349T103 308T102 238Q102 194 102 168T104 127T107 104T111 87Q120 61 137 50T178 38Q209 38 227 55T252 114Q254 124 264 121L293 115Q301 112 299 104Q293 55 267 27T197 -8L155 -138Q152 -148 139 -148H113Q103 -148 106 -138L155 -7Z"  />
<glyph unicode="&#xE8;" horiz-adv-x="355" d="M305 238Q305 228 295 228H108Q102 228 102 222Q102 185 102 162T104 125T107 102T111 88Q119 63 136 51T178 39Q209 39 227 54T255 105Q258 115 267 112L294 106Q303 104 300 94Q289 43 258 18T177 -8Q135 -8 106 12T64 73Q61 80 59 90T56 117T54 164T53 238Q53 283 53 312T55 358T59 386T64 404Q90 485 179 485Q268 485 294 404Q297 396 299 386T302 359T304 312T305 238ZM250 272Q256 272 256 278Q256 307 256 326T254 357T251 377T247 389Q230 439 179 439Q128 439 111 389Q109 384 108 377T105 358T103 326T102 278Q102 272 108 272H250ZM168 559Q158 559 151 569L69 690Q67 694 68 697T74 700H107Q117 700 123 690L194 569Q199 559 188 559H168Z"  />
<glyph unicode="&#xE9;" horiz-adv-x="355" d="M158 559Q148 559 153 569L224 690Q230 700 240 700H272Q277 700 278 697T277 690L196 569Q191 563 188 561T179 559H158ZM305 238Q305 228 295 228H108Q102 228 102 222Q102 185 102 162T104 125T107 102T111 88Q119 63 136 51T178 39Q209 39 227 54T255 105Q258 115 267 112L294 106Q303 104 300 94Q289 43 258 18T177 -8Q135 -8 106 12T64 73Q61 80 59 90T56 117T54 164T53 238Q53 283 53 312T55 358T59 386T64 404Q90 485 179 485Q268 485 294 404Q297 396 299 386T302 359T304 312T305 238ZM250 272Q256 272 256 278Q256 307 256 326T254 357T251 377T247 389Q230 439 179 439Q128 439 111 389Q109 384 108 377T105 358T103 326T102 278Q102 272 108 272H250Z"  />
<glyph unicode="&#xEA;" horiz-adv-x="355" d="M252 559Q244 559 237 569L180 655H178L121 569Q117 564 114 562T105 559H83Q78 559 77 561T78 569L154 691Q160 700 169 700H189Q198 700 204 691L280 569Q283 564 282 562T275 559H252ZM305 238Q305 228 295 228H108Q102 228 102 222Q102 185 102 162T104 125T107 102T111 88Q119 63 136 51T178 39Q209 39 227 54T255 105Q258 115 267 112L294 106Q303 104 300 94Q289 43 258 18T177 -8Q135 -8 106 12T64 73Q61 80 59 90T56 117T54 164T53 238Q53 283 53 312T55 358T59 386T64 404Q90 485 179 485Q268 485 294 404Q297 396 299 386T302 359T304 312T305 238ZM250 272Q256 272 256 278Q256 307 256 326T254 357T251 377T247 389Q230 439 179 439Q128 439 111 389Q109 384 108 377T105 358T103 326T102 278Q102 272 108 272H250Z"  />
<glyph unicode="&#xEB;" horiz-adv-x="355" d="M231 606Q221 606 221 616V670Q221 680 231 680H265Q275 680 275 670V616Q275 606 265 606H231ZM93 606Q83 606 83 616V670Q83 680 93 680H127Q137 680 137 670V616Q137 606 127 606H93ZM305 238Q305 228 295 228H108Q102 228 102 222Q102 185 102 162T104 125T107 102T111 88Q119 63 136 51T178 39Q209 39 227 54T255 105Q258 115 267 112L294 106Q303 104 300 94Q289 43 258 18T177 -8Q135 -8 106 12T64 73Q61 80 59 90T56 117T54 164T53 238Q53 283 53 312T55 358T59 386T64 404Q90 485 179 485Q268 485 294 404Q297 396 299 386T302 359T304 312T305 238ZM250 272Q256 272 256 278Q256 307 256 326T254 357T251 377T247 389Q230 439 179 439Q128 439 111 389Q109 384 108 377T105 358T103 326T102 278Q102 272 108 272H250Z"  />
<glyph unicode="&#xEC;" horiz-adv-x="181" d="M76 0Q66 0 66 10V467Q66 477 76 477H105Q115 477 115 467V10Q115 0 105 0H76ZM85 559Q75 559 68 569L-14 690Q-16 694 -15 697T-9 700H24Q34 700 40 690L111 569Q116 559 105 559H85Z"  />
<glyph unicode="&#xED;" horiz-adv-x="181" d="M82 559Q72 559 77 569L148 690Q154 700 164 700H196Q201 700 202 697T201 690L120 569Q115 563 112 561T103 559H82ZM76 0Q66 0 66 10V467Q66 477 76 477H105Q115 477 115 467V10Q115 0 105 0H76Z"  />
<glyph unicode="&#xEE;" horiz-adv-x="181" d="M165 559Q157 559 150 569L93 655H91L34 569Q30 564 27 562T18 559H-4Q-9 559 -10 561T-9 569L67 691Q73 700 82 700H102Q111 700 117 691L193 569Q196 564 195 562T188 559H165ZM76 0Q66 0 66 10V467Q66 477 76 477H105Q115 477 115 467V10Q115 0 105 0H76Z"  />
<glyph unicode="&#xEF;" horiz-adv-x="181" d="M144 606Q134 606 134 616V670Q134 680 144 680H178Q188 680 188 670V616Q188 606 178 606H144ZM6 606Q-4 606 -4 616V670Q-4 680 6 680H40Q50 680 50 670V616Q50 606 40 606H6ZM76 0Q66 0 66 10V467Q66 477 76 477H105Q115 477 115 467V10Q115 0 105 0H76Z"  />
<glyph unicode="&#xF0;" horiz-adv-x="362" d="M220 569L255 503Q273 470 283 445T299 391T307 326T309 235Q309 191 309 165T307 121T304 94T299 74Q286 33 256 13T181 -8Q137 -8 107 12T63 74Q60 84 58 94T55 120T54 163T53 233Q53 276 53 303T55 348T58 375T63 396Q76 434 104 454T174 475Q206 475 223 463H224L176 555L109 534Q100 531 97 540L91 559Q88 569 97 572L157 591L116 670Q111 680 122 680H154Q163 680 168 670L201 605L265 626Q274 629 277 620L283 600Q286 591 277 588L220 569ZM181 39Q234 39 252 89Q254 97 255 105T258 128T259 167T260 233Q260 272 260 296T258 336T254 361T249 379Q233 429 181 429Q127 429 110 379Q107 371 106 363T104 339T103 299T102 233Q102 192 102 168T103 128T105 105T110 89Q126 39 181 39Z"  />
<glyph unicode="&#xF1;" horiz-adv-x="380" d="M279 0Q269 0 269 10V332Q269 384 251 411T192 438Q157 438 136 412T115 332V10Q115 0 105 0H76Q66 0 66 10V467Q66 477 76 477H105Q115 477 115 467V428H116Q126 451 147 468T207 485Q318 485 318 340V10Q318 0 308 0H279ZM228 597Q214 597 203 603T183 617Q174 625 167 629T150 634Q138 634 130 627T111 605Q107 601 103 602T99 608V638Q99 646 107 654Q125 677 151 677Q165 677 176 671T197 657Q206 650 213 646T229 641Q241 641 250 648T269 669Q272 674 276 673T280 667V637Q280 632 279 629T273 621Q264 610 253 604T228 597Z"  />
<glyph unicode="&#xF2;" horiz-adv-x="362" d="M309 239Q309 194 309 167T307 122T304 95T299 74Q286 33 256 13T181 -8Q137 -8 107 12T63 74Q60 84 58 94T55 122T54 166T53 239Q53 283 53 310T55 355T58 382T63 403Q76 444 106 464T181 485Q225 485 255 465T299 403Q302 393 304 383T307 355T308 311T309 239ZM260 239Q260 281 260 306T259 347T257 371T252 388Q236 438 181 438Q126 438 110 388Q107 380 106 372T104 348T103 307T102 239Q102 197 102 171T103 130T105 106T110 89Q126 39 181 39Q236 39 252 89Q255 97 256 105T258 129T259 171T260 239ZM177 559Q167 559 160 569L78 690Q76 694 77 697T83 700H116Q126 700 132 690L203 569Q208 559 197 559H177Z"  />
<glyph unicode="&#xF3;" horiz-adv-x="362" d="M163 559Q153 559 158 569L229 690Q235 700 245 700H277Q282 700 283 697T282 690L201 569Q196 563 193 561T184 559H163ZM309 239Q309 194 309 167T307 122T304 95T299 74Q286 33 256 13T181 -8Q137 -8 107 12T63 74Q60 84 58 94T55 122T54 166T53 239Q53 283 53 310T55 355T58 382T63 403Q76 444 106 464T181 485Q225 485 255 465T299 403Q302 393 304 383T307 355T308 311T309 239ZM260 239Q260 281 260 306T259 347T257 371T252 388Q236 438 181 438Q126 438 110 388Q107 380 106 372T104 348T103 307T102 239Q102 197 102 171T103 130T105 106T110 89Q126 39 181 39Q236 39 252 89Q255 97 256 105T258 129T259 171T260 239Z"  />
<glyph unicode="&#xF4;" horiz-adv-x="362" d="M254 559Q246 559 239 569L182 655H180L123 569Q119 564 116 562T107 559H85Q80 559 79 561T80 569L156 691Q162 700 171 700H191Q200 700 206 691L282 569Q285 564 284 562T277 559H254ZM309 239Q309 194 309 167T307 122T304 95T299 74Q286 33 256 13T181 -8Q137 -8 107 12T63 74Q60 84 58 94T55 122T54 166T53 239Q53 283 53 310T55 355T58 382T63 403Q76 444 106 464T181 485Q225 485 255 465T299 403Q302 393 304 383T307 355T308 311T309 239ZM260 239Q260 281 260 306T259 347T257 371T252 388Q236 438 181 438Q126 438 110 388Q107 380 106 372T104 348T103 307T102 239Q102 197 102 171T103 130T105 106T110 89Q126 39 181 39Q236 39 252 89Q255 97 256 105T258 129T259 171T260 239Z"  />
<glyph unicode="&#xF5;" horiz-adv-x="362" d="M309 239Q309 194 309 167T307 122T304 95T299 74Q286 33 256 13T181 -8Q137 -8 107 12T63 74Q60 84 58 94T55 122T54 166T53 239Q53 283 53 310T55 355T58 382T63 403Q76 444 106 464T181 485Q225 485 255 465T299 403Q302 393 304 383T307 355T308 311T309 239ZM260 239Q260 281 260 306T259 347T257 371T252 388Q236 438 181 438Q126 438 110 388Q107 380 106 372T104 348T103 307T102 239Q102 197 102 171T103 130T105 106T110 89Q126 39 181 39Q236 39 252 89Q255 97 256 105T258 129T259 171T260 239ZM219 597Q205 597 194 603T174 617Q165 625 158 629T141 634Q129 634 121 627T102 605Q98 601 94 602T90 608V638Q90 646 98 654Q116 677 142 677Q156 677 167 671T188 657Q197 650 204 646T220 641Q232 641 241 648T260 669Q263 674 267 673T271 667V637Q271 632 270 629T264 621Q255 610 244 604T219 597Z"  />
<glyph unicode="&#xF6;" horiz-adv-x="362" d="M233 606Q223 606 223 616V670Q223 680 233 680H267Q277 680 277 670V616Q277 606 267 606H233ZM95 606Q85 606 85 616V670Q85 680 95 680H129Q139 680 139 670V616Q139 606 129 606H95ZM309 239Q309 194 309 167T307 122T304 95T299 74Q286 33 256 13T181 -8Q137 -8 107 12T63 74Q60 84 58 94T55 122T54 166T53 239Q53 283 53 310T55 355T58 382T63 403Q76 444 106 464T181 485Q225 485 255 465T299 403Q302 393 304 383T307 355T308 311T309 239ZM260 239Q260 281 260 306T259 347T257 371T252 388Q236 438 181 438Q126 438 110 388Q107 380 106 372T104 348T103 307T102 239Q102 197 102 171T103 130T105 106T110 89Q126 39 181 39Q236 39 252 89Q255 97 256 105T258 129T259 171T260 239Z"  />
<glyph unicode="&#xF7;" horiz-adv-x="371" d="M186 362Q168 362 157 374T145 403Q145 421 156 433T186 445Q203 445 214 433T226 403Q226 386 215 374T186 362ZM49 253Q39 253 39 263V289Q39 299 49 299H322Q332 299 332 289V263Q332 253 322 253H49ZM186 107Q168 107 157 119T145 149Q145 166 156 178T186 190Q203 190 214 178T226 149Q226 131 215 119T186 107Z"  />
<glyph unicode="&#xF8;" horiz-adv-x="362" d="M62 -29Q57 -29 55 -27T55 -19L80 39Q75 47 71 55T63 74Q60 84 58 94T55 122T54 166T53 239Q53 283 53 310T55 355T58 382T63 403Q76 444 106 464T181 485Q228 485 260 461L276 496Q280 506 288 506H300Q311 506 308 496L282 437Q294 420 299 403Q302 393 304 383T307 355T308 311T309 239Q309 194 309 167T307 122T304 95T299 74Q286 33 256 13T181 -8Q133 -8 102 16L87 -19Q83 -29 74 -29H62ZM102 239Q102 204 102 181T102 141T103 116T106 100L238 413Q219 438 181 438Q126 438 110 388Q107 380 106 372T104 348T103 307T102 239ZM260 239Q260 273 260 296T259 335T257 360T255 377L123 63Q143 39 181 39Q236 39 252 89Q255 97 256 105T258 129T259 171T260 239Z"  />
<glyph unicode="&#xF9;" horiz-adv-x="376" d="M271 0Q261 0 261 10V49H260Q250 26 230 9T171 -8Q61 -8 61 136V467Q61 477 71 477H100Q110 477 110 467V145Q110 92 128 66T186 39Q221 39 241 64T261 145V467Q261 477 271 477H300Q310 477 310 467V10Q310 0 300 0H271ZM188 559Q178 559 171 569L89 690Q87 694 88 697T94 700H127Q137 700 143 690L214 569Q219 559 208 559H188Z"  />
<glyph unicode="&#xFA;" horiz-adv-x="376" d="M161 559Q151 559 156 569L227 690Q233 700 243 700H275Q280 700 281 697T280 690L199 569Q194 563 191 561T182 559H161ZM271 0Q261 0 261 10V49H260Q250 26 230 9T171 -8Q61 -8 61 136V467Q61 477 71 477H100Q110 477 110 467V145Q110 92 128 66T186 39Q221 39 241 64T261 145V467Q261 477 271 477H300Q310 477 310 467V10Q310 0 300 0H271Z"  />
<glyph unicode="&#xFB;" horiz-adv-x="376" d="M260 559Q252 559 245 569L188 655H186L129 569Q125 564 122 562T113 559H91Q86 559 85 561T86 569L162 691Q168 700 177 700H197Q206 700 212 691L288 569Q291 564 290 562T283 559H260ZM271 0Q261 0 261 10V49H260Q250 26 230 9T171 -8Q61 -8 61 136V467Q61 477 71 477H100Q110 477 110 467V145Q110 92 128 66T186 39Q221 39 241 64T261 145V467Q261 477 271 477H300Q310 477 310 467V10Q310 0 300 0H271Z"  />
<glyph unicode="&#xFC;" horiz-adv-x="376" d="M239 606Q229 606 229 616V670Q229 680 239 680H273Q283 680 283 670V616Q283 606 273 606H239ZM101 606Q91 606 91 616V670Q91 680 101 680H135Q145 680 145 670V616Q145 606 135 606H101ZM271 0Q261 0 261 10V49H260Q250 26 230 9T171 -8Q61 -8 61 136V467Q61 477 71 477H100Q110 477 110 467V145Q110 92 128 66T186 39Q221 39 241 64T261 145V467Q261 477 271 477H300Q310 477 310 467V10Q310 0 300 0H271Z"  />
<glyph unicode="&#xFD;" horiz-adv-x="339" d="M61 -180Q51 -180 51 -170V-143Q51 -133 61 -133L72 -132Q92 -132 104 -121T124 -77L146 12L33 467Q31 477 41 477H74Q82 477 84 467L170 105H171L257 467Q259 477 267 477H299Q309 477 307 467L171 -73Q163 -105 155 -125T134 -158T107 -175T70 -180H61ZM149 559Q139 559 144 569L215 690Q221 700 231 700H263Q268 700 269 697T268 690L187 569Q182 563 179 561T170 559H149Z"  />
<glyph unicode="&#xFE;" horiz-adv-x="376" d="M76 -180Q66 -180 66 -170V670Q66 680 76 680H105Q115 680 115 670V427H116Q126 450 147 467T208 485Q246 485 272 467T311 409Q314 398 316 388T320 360T321 313T322 238Q322 192 322 164T320 117T317 89T311 68Q298 28 272 10T208 -8Q168 -8 147 9T116 49H115V-170Q115 -180 105 -180H76ZM194 39Q248 39 264 89Q267 97 268 105T271 129T272 170T273 238Q273 280 273 306T271 347T269 371T264 388Q248 438 194 438Q168 438 151 425T125 388Q122 380 121 372T118 348T116 306T115 238Q115 196 115 170T117 129T120 106T125 89Q141 39 194 39Z"  />
<glyph unicode="&#xFF;" horiz-adv-x="339" d="M61 -180Q51 -180 51 -170V-143Q51 -133 61 -133L72 -132Q92 -132 104 -121T124 -77L146 12L33 467Q31 477 41 477H74Q82 477 84 467L170 105H171L257 467Q259 477 267 477H299Q309 477 307 467L171 -73Q163 -105 155 -125T134 -158T107 -175T70 -180H61ZM223 606Q213 606 213 616V670Q213 680 223 680H257Q267 680 267 670V616Q267 606 257 606H223ZM85 606Q75 606 75 616V670Q75 680 85 680H119Q129 680 129 670V616Q129 606 119 606H85Z"  />
<glyph unicode="&#x100;" horiz-adv-x="388" d="M168 670Q171 680 179 680H212Q221 680 223 670L363 10Q365 0 354 0H322Q313 0 311 10L277 173H111L77 10Q75 0 67 0H35Q30 0 27 2T25 10L168 670ZM267 220L196 567H194L121 220H267ZM102 801Q92 801 92 811V834Q92 844 102 844H284Q294 844 294 834V811Q294 801 284 801H102Z"  />
<glyph unicode="&#x101;" horiz-adv-x="359" d="M260 0Q250 0 250 10V56H249Q239 25 214 9T157 -8Q135 -8 115 -1T80 22T56 65T47 130Q47 207 83 239T182 272H244Q250 272 250 278V330Q250 388 231 413T174 438Q145 438 126 429T90 403Q83 395 76 402L62 423Q58 430 64 438Q81 458 109 471T178 485Q239 485 268 451T298 334V10Q298 0 288 0H260ZM167 36Q202 36 226 66T250 146V222Q250 228 244 228H187Q137 228 117 205T96 131Q96 81 115 59T167 36ZM90 621Q80 621 80 631V654Q80 664 90 664H272Q282 664 282 654V631Q282 621 272 621H90Z"  />
<glyph unicode="&#x102;" horiz-adv-x="388" d="M168 670Q171 680 179 680H212Q221 680 223 670L363 10Q365 0 354 0H322Q313 0 311 10L277 173H111L77 10Q75 0 67 0H35Q30 0 27 2T25 10L168 670ZM267 220L196 567H194L121 220H267ZM193 765Q148 765 123 793T91 867Q91 877 101 877H118Q127 877 129 867Q141 805 193 805Q243 805 257 867Q259 877 268 877H285Q296 877 294 867Q289 821 264 793T193 765Z"  />
<glyph unicode="&#x103;" horiz-adv-x="359" d="M260 0Q250 0 250 10V56H249Q239 25 214 9T157 -8Q135 -8 115 -1T80 22T56 65T47 130Q47 207 83 239T182 272H244Q250 272 250 278V330Q250 388 231 413T174 438Q145 438 126 429T90 403Q83 395 76 402L62 423Q58 430 64 438Q81 458 109 471T178 485Q239 485 268 451T298 334V10Q298 0 288 0H260ZM167 36Q202 36 226 66T250 146V222Q250 228 244 228H187Q137 228 117 205T96 131Q96 81 115 59T167 36ZM181 572Q136 572 111 600T79 674Q79 684 89 684H106Q115 684 117 674Q129 612 181 612Q231 612 245 674Q247 684 256 684H273Q284 684 282 674Q277 628 252 600T181 572Z"  />
<glyph unicode="&#x104;" horiz-adv-x="388" d="M311 -171Q284 -171 267 -155T249 -109Q249 -85 264 -59T315 2Q312 5 311 10L278 173H111L77 10Q75 0 67 0H35Q30 0 27 2T25 10L168 670Q171 680 179 680H212Q221 680 223 670L363 10Q364 3 359 -1Q323 -36 308 -61T292 -103Q292 -131 317 -131Q327 -131 339 -124Q348 -119 351 -126L359 -144Q364 -152 355 -157Q347 -163 336 -167T311 -171ZM196 567H194L120 220H268L196 567Z"  />
<glyph unicode="&#x105;" horiz-adv-x="359" d="M174 438Q145 438 126 429T90 403Q83 395 76 402L62 423Q58 430 64 438Q81 458 109 471T178 485Q239 485 268 451T298 334V10Q298 4 293 0Q274 -20 262 -35T242 -63T231 -84T227 -103Q227 -116 233 -123T251 -131Q258 -131 263 -129T274 -124Q282 -119 286 -126L294 -144Q299 -152 290 -157Q282 -163 271 -167T245 -171Q219 -171 202 -155T184 -109Q184 -85 199 -59T250 4V56H249Q239 25 214 9T157 -8Q135 -8 115 -1T80 22T56 65T47 130Q47 207 83 239T182 272H244Q250 272 250 278V330Q250 388 231 413T174 438ZM167 36Q202 36 226 66T250 146V222Q250 228 244 228H187Q137 228 117 205T96 131Q96 81 115 59T167 36Z"  />
<glyph unicode="&#x106;" horiz-adv-x="374" d="M70 85Q67 96 65 109T61 148T58 220T57 340Q57 415 58 460T60 531T64 571T70 595Q100 688 203 688Q263 688 299 652T342 550Q343 539 336 537L306 531Q295 527 295 539Q289 587 267 613T204 639Q140 639 120 579Q117 571 116 560T113 524T111 456T110 340Q110 267 110 224T112 156T115 120T120 101Q140 41 204 41Q245 41 267 67T295 142Q295 153 306 149L336 143Q344 142 342 131Q335 64 299 28T203 -8Q100 -8 70 85ZM180 765Q175 765 174 768T176 775L251 878Q255 883 258 885T268 888H301Q306 888 307 885T305 878L218 775Q209 765 201 765H180Z"  />
<glyph unicode="&#x107;" horiz-adv-x="336" d="M163 559Q153 559 158 569L229 690Q235 700 245 700H277Q282 700 283 697T282 690L201 569Q196 563 193 561T184 559H163ZM53 238Q53 284 53 312T55 357T58 383T64 404Q90 485 178 485Q229 485 260 456T299 372Q301 364 293 361L264 355Q254 352 252 362Q246 403 228 420T178 438Q155 438 138 427T111 389Q109 381 107 373T104 349T103 308T102 238Q102 194 102 168T104 127T107 104T111 87Q120 61 137 50T178 38Q209 38 227 55T252 114Q254 124 264 121L293 115Q301 112 299 104Q292 50 261 21T178 -9Q90 -9 64 72Q61 82 59 92T55 119T54 163T53 238Z"  />
<glyph unicode="&#x108;" horiz-adv-x="374" d="M70 85Q67 96 65 109T61 148T58 220T57 340Q57 415 58 460T60 531T64 571T70 595Q100 688 203 688Q263 688 299 652T342 550Q343 539 336 537L306 531Q295 527 295 539Q289 587 267 613T204 639Q140 639 120 579Q117 571 116 560T113 524T111 456T110 340Q110 267 110 224T112 156T115 120T120 101Q140 41 204 41Q245 41 267 67T295 142Q295 153 306 149L336 143Q344 142 342 131Q335 64 299 28T203 -8Q100 -8 70 85ZM276 754Q268 754 261 764L204 850H202L145 764Q141 759 138 757T129 754H107Q102 754 101 756T102 764L178 886Q184 895 193 895H213Q222 895 228 886L304 764Q307 759 306 757T299 754H276Z"  />
<glyph unicode="&#x109;" horiz-adv-x="336" d="M253 559Q245 559 238 569L181 655H179L122 569Q118 564 115 562T106 559H84Q79 559 78 561T79 569L155 691Q161 700 170 700H190Q199 700 205 691L281 569Q284 564 283 562T276 559H253ZM53 238Q53 284 53 312T55 357T58 383T64 404Q90 485 178 485Q229 485 260 456T299 372Q301 364 293 361L264 355Q254 352 252 362Q246 403 228 420T178 438Q155 438 138 427T111 389Q109 381 107 373T104 349T103 308T102 238Q102 194 102 168T104 127T107 104T111 87Q120 61 137 50T178 38Q209 38 227 55T252 114Q254 124 264 121L293 115Q301 112 299 104Q292 50 261 21T178 -9Q90 -9 64 72Q61 82 59 92T55 119T54 163T53 238Z"  />
<glyph unicode="&#x10A;" horiz-adv-x="374" d="M183 787Q173 787 173 797V851Q173 861 183 861H223Q233 861 233 851V797Q233 787 223 787H183ZM70 85Q67 96 65 109T61 148T58 220T57 340Q57 415 58 460T60 531T64 571T70 595Q100 688 203 688Q263 688 299 652T342 550Q343 539 336 537L306 531Q295 527 295 539Q289 587 267 613T204 639Q140 639 120 579Q117 571 116 560T113 524T111 456T110 340Q110 267 110 224T112 156T115 120T120 101Q140 41 204 41Q245 41 267 67T295 142Q295 153 306 149L336 143Q344 142 342 131Q335 64 299 28T203 -8Q100 -8 70 85Z"  />
<glyph unicode="&#x10B;" horiz-adv-x="336" d="M53 238Q53 284 53 312T55 357T58 383T64 404Q90 485 178 485Q229 485 260 456T299 372Q301 364 293 361L264 355Q254 352 252 362Q246 403 228 420T178 438Q155 438 138 427T111 389Q109 381 107 373T104 349T103 308T102 238Q102 194 102 168T104 127T107 104T111 87Q120 61 137 50T178 38Q209 38 227 55T252 114Q254 124 264 121L293 115Q301 112 299 104Q292 50 261 21T178 -9Q90 -9 64 72Q61 82 59 92T55 119T54 163T53 238ZM150 606Q140 606 140 616V670Q140 680 150 680H190Q200 680 200 670V616Q200 606 190 606H150Z"  />
<glyph unicode="&#x10C;" horiz-adv-x="374" d="M70 85Q67 96 65 109T61 148T58 220T57 340Q57 415 58 460T60 531T64 571T70 595Q100 688 203 688Q263 688 299 652T342 550Q343 539 336 537L306 531Q295 527 295 539Q289 587 267 613T204 639Q140 639 120 579Q117 571 116 560T113 524T111 456T110 340Q110 267 110 224T112 156T115 120T120 101Q140 41 204 41Q245 41 267 67T295 142Q295 153 306 149L336 143Q344 142 342 131Q335 64 299 28T203 -8Q100 -8 70 85ZM193 753Q183 753 178 762L102 884Q99 889 100 891T107 894H129Q135 894 138 892T145 884L202 798H204L261 884Q268 894 276 894H299Q304 894 305 892T304 884L228 762Q223 753 213 753H193Z"  />
<glyph unicode="&#x10D;" horiz-adv-x="336" d="M170 557Q161 557 155 566L79 689Q76 693 77 696T84 699H106Q112 699 115 697T122 689L179 603H181L238 689Q245 699 253 699H276Q281 699 282 696T281 689L205 566Q199 557 190 557H170ZM53 238Q53 284 53 312T55 357T58 383T64 404Q90 485 178 485Q229 485 260 456T299 372Q301 364 293 361L264 355Q254 352 252 362Q246 403 228 420T178 438Q155 438 138 427T111 389Q109 381 107 373T104 349T103 308T102 238Q102 194 102 168T104 127T107 104T111 87Q120 61 137 50T178 38Q209 38 227 55T252 114Q254 124 264 121L293 115Q301 112 299 104Q292 50 261 21T178 -9Q90 -9 64 72Q61 82 59 92T55 119T54 163T53 238Z"  />
<glyph unicode="&#x10E;" horiz-adv-x="422" d="M187 753Q177 753 172 762L96 884Q93 889 94 891T101 894H123Q129 894 132 892T139 884L196 798H198L255 884Q262 894 270 894H293Q298 894 299 892T298 884L222 762Q217 753 207 753H187ZM68 670Q68 680 78 680H200Q262 680 297 654T348 579Q352 565 355 548T360 505T363 439T364 340Q364 281 363 242T361 176T356 132T348 101Q332 52 297 26T200 0H78Q68 0 68 10V670ZM120 55Q120 49 126 49H194Q237 49 261 66T298 118Q302 130 304 145T308 184T311 246T312 340Q312 396 311 433T309 495T305 535T298 562Q286 597 262 614T194 631H126Q120 631 120 625V55Z"  />
<glyph unicode="&#x10F;" horiz-adv-x="376" d="M345 539Q337 539 337 548V670Q337 680 347 680H379Q389 680 389 670V628Q389 620 388 616T384 605L356 548Q351 539 345 539ZM168 -8Q130 -8 104 10T65 68Q62 78 60 88T56 117T55 163T54 238Q54 284 54 313T56 359T59 387T65 409Q78 449 104 467T168 485Q208 485 229 468T260 427H261V670Q261 680 271 680H300Q310 680 310 670V10Q310 0 300 0H271Q261 0 261 10V49H260Q250 26 229 9T168 -8ZM182 39Q235 39 251 89Q254 97 255 105T258 129T260 170T261 238Q261 280 261 306T259 347T256 371T251 388Q243 411 226 424T182 438Q128 438 112 388Q109 380 108 372T105 348T104 306T103 238Q103 196 103 170T105 129T107 106T112 89Q128 39 182 39Z"  />
<glyph unicode="&#x110;" horiz-adv-x="422" d="M78 0Q68 0 68 10V317Q68 323 62 323H28Q18 323 18 333V357Q18 367 28 367H62Q68 367 68 373V670Q68 680 78 680H200Q262 680 297 654T348 579Q352 565 355 548T360 505T363 439T364 340Q364 281 363 242T361 176T356 132T348 101Q332 52 297 26T200 0H78ZM194 49Q237 49 261 66T298 118Q302 130 304 145T308 184T311 246T312 340Q312 396 311 433T309 495T305 535T298 562Q286 597 262 614T194 631H126Q120 631 120 625V373Q120 367 126 367H201Q211 367 211 357V333Q211 323 201 323H126Q120 323 120 317V55Q120 49 126 49H194Z"  />
<glyph unicode="&#x111;" horiz-adv-x="376" d="M271 0Q261 0 261 10V49H260Q250 26 229 9T168 -8Q130 -8 104 10T65 68Q62 78 60 88T56 117T55 163T54 238Q54 284 54 313T56 359T59 387T65 409Q78 449 104 467T168 485Q208 485 229 468T260 427H261V558Q261 564 255 564H167Q157 564 157 574V594Q157 604 167 604H255Q261 604 261 610V670Q261 680 271 680H300Q310 680 310 670V610Q310 604 316 604H342Q352 604 352 594V574Q352 564 342 564H316Q310 564 310 558V10Q310 0 300 0H271ZM182 39Q235 39 251 89Q254 97 255 105T258 129T260 170T261 238Q261 280 261 306T259 347T256 371T251 388Q243 411 226 424T182 438Q128 438 112 388Q109 380 108 372T105 348T104 306T103 238Q103 196 103 170T105 129T107 106T112 89Q128 39 182 39Z"  />
<glyph unicode="&#x112;" horiz-adv-x="351" d="M95 801Q85 801 85 811V834Q85 844 95 844H277Q287 844 287 834V811Q287 801 277 801H95ZM68 670Q68 680 78 680H309Q319 680 319 670V641Q319 631 309 631H126Q120 631 120 625V375Q120 369 126 369H286Q296 369 296 359V330Q296 320 286 320H126Q120 320 120 314V55Q120 49 126 49H309Q319 49 319 39V10Q319 0 309 0H78Q68 0 68 10V670Z"  />
<glyph unicode="&#x113;" horiz-adv-x="355" d="M305 238Q305 228 295 228H108Q102 228 102 222Q102 185 102 162T104 125T107 102T111 88Q119 63 136 51T178 39Q209 39 227 54T255 105Q258 115 267 112L294 106Q303 104 300 94Q289 43 258 18T177 -8Q135 -8 106 12T64 73Q61 80 59 90T56 117T54 164T53 238Q53 283 53 312T55 358T59 386T64 404Q90 485 179 485Q268 485 294 404Q297 396 299 386T302 359T304 312T305 238ZM250 272Q256 272 256 278Q256 307 256 326T254 357T251 377T247 389Q230 439 179 439Q128 439 111 389Q109 384 108 377T105 358T103 326T102 278Q102 272 108 272H250ZM88 621Q78 621 78 631V654Q78 664 88 664H270Q280 664 280 654V631Q280 621 270 621H88Z"  />
<glyph unicode="&#x114;" horiz-adv-x="351" d="M187 765Q142 765 117 793T85 867Q85 877 95 877H112Q121 877 123 867Q135 805 187 805Q237 805 251 867Q253 877 262 877H279Q290 877 288 867Q283 821 258 793T187 765ZM68 670Q68 680 78 680H309Q319 680 319 670V641Q319 631 309 631H126Q120 631 120 625V375Q120 369 126 369H286Q296 369 296 359V330Q296 320 286 320H126Q120 320 120 314V55Q120 49 126 49H309Q319 49 319 39V10Q319 0 309 0H78Q68 0 68 10V670Z"  />
<glyph unicode="&#x115;" horiz-adv-x="355" d="M305 238Q305 228 295 228H108Q102 228 102 222Q102 185 102 162T104 125T107 102T111 88Q119 63 136 51T178 39Q209 39 227 54T255 105Q258 115 267 112L294 106Q303 104 300 94Q289 43 258 18T177 -8Q135 -8 106 12T64 73Q61 80 59 90T56 117T54 164T53 238Q53 283 53 312T55 358T59 386T64 404Q90 485 179 485Q268 485 294 404Q297 396 299 386T302 359T304 312T305 238ZM250 272Q256 272 256 278Q256 307 256 326T254 357T251 377T247 389Q230 439 179 439Q128 439 111 389Q109 384 108 377T105 358T103 326T102 278Q102 272 108 272H250ZM179 572Q134 572 109 600T77 674Q77 684 87 684H104Q113 684 115 674Q127 612 179 612Q229 612 243 674Q245 684 254 684H271Q282 684 280 674Q275 628 250 600T179 572Z"  />
<glyph unicode="&#x116;" horiz-adv-x="351" d="M168 787Q158 787 158 797V851Q158 861 168 861H208Q218 861 218 851V797Q218 787 208 787H168ZM68 670Q68 680 78 680H309Q319 680 319 670V641Q319 631 309 631H126Q120 631 120 625V375Q120 369 126 369H286Q296 369 296 359V330Q296 320 286 320H126Q120 320 120 314V55Q120 49 126 49H309Q319 49 319 39V10Q319 0 309 0H78Q68 0 68 10V670Z"  />
<glyph unicode="&#x117;" horiz-adv-x="355" d="M305 238Q305 228 295 228H108Q102 228 102 222Q102 185 102 162T104 125T107 102T111 88Q119 63 136 51T178 39Q209 39 227 54T255 105Q258 115 267 112L294 106Q303 104 300 94Q289 43 258 18T177 -8Q135 -8 106 12T64 73Q61 80 59 90T56 117T54 164T53 238Q53 283 53 312T55 358T59 386T64 404Q90 485 179 485Q268 485 294 404Q297 396 299 386T302 359T304 312T305 238ZM250 272Q256 272 256 278Q256 307 256 326T254 357T251 377T247 389Q230 439 179 439Q128 439 111 389Q109 384 108 377T105 358T103 326T102 278Q102 272 108 272H250ZM159 606Q149 606 149 616V670Q149 680 159 680H199Q209 680 209 670V616Q209 606 199 606H159Z"  />
<glyph unicode="&#x118;" horiz-adv-x="351" d="M254 -171Q228 -171 211 -155T193 -109Q193 -84 207 -60T254 0H78Q68 0 68 10V670Q68 680 78 680H309Q319 680 319 670V641Q319 631 309 631H126Q120 631 120 625V375Q120 369 126 369H286Q296 369 296 359V330Q296 320 286 320H126Q120 320 120 314V55Q120 49 126 49H309Q319 49 319 39V10Q319 0 309 0H302Q264 -38 250 -62T236 -103Q236 -131 261 -131Q271 -131 283 -124Q291 -119 295 -126L303 -144Q308 -152 299 -157Q291 -163 280 -167T254 -171Z"  />
<glyph unicode="&#x119;" horiz-adv-x="355" d="M177 -8Q135 -8 106 12T64 73Q61 80 59 90T56 117T54 164T53 238Q53 283 53 312T55 358T59 386T64 404Q90 485 179 485Q268 485 294 404Q297 396 299 386T302 359T304 312T305 238Q305 228 295 228H108Q102 228 102 222Q102 185 102 162T104 125T107 102T111 88Q119 63 136 51T178 39Q209 39 227 54T255 105Q257 114 267 112L294 106Q303 104 300 94Q291 52 269 29Q247 -3 234 -24T214 -61T205 -85T203 -103Q203 -131 228 -131Q235 -131 240 -129T250 -124Q259 -119 263 -126L271 -144Q274 -153 266 -157Q258 -163 247 -167T222 -171Q194 -171 177 -155T160 -109Q160 -99 162 -88T169 -65T183 -39T206 -5Q199 -7 192 -7T177 -8ZM250 272Q256 272 256 278Q256 307 256 326T254 357T251 377T247 389Q230 439 179 439Q128 439 111 389Q109 384 108 377T105 358T103 326T102 278Q102 272 108 272H250Z"  />
<glyph unicode="&#x11A;" horiz-adv-x="351" d="M179 753Q169 753 164 762L88 884Q85 889 86 891T93 894H115Q121 894 124 892T131 884L188 798H190L247 884Q254 894 262 894H285Q290 894 291 892T290 884L214 762Q209 753 199 753H179ZM68 670Q68 680 78 680H309Q319 680 319 670V641Q319 631 309 631H126Q120 631 120 625V375Q120 369 126 369H286Q296 369 296 359V330Q296 320 286 320H126Q120 320 120 314V55Q120 49 126 49H309Q319 49 319 39V10Q319 0 309 0H78Q68 0 68 10V670Z"  />
<glyph unicode="&#x11B;" horiz-adv-x="355" d="M169 557Q160 557 154 566L78 689Q75 693 76 696T83 699H105Q111 699 114 697T121 689L178 603H180L237 689Q244 699 252 699H275Q280 699 281 696T280 689L204 566Q198 557 189 557H169ZM305 238Q305 228 295 228H108Q102 228 102 222Q102 185 102 162T104 125T107 102T111 88Q119 63 136 51T178 39Q209 39 227 54T255 105Q258 115 267 112L294 106Q303 104 300 94Q289 43 258 18T177 -8Q135 -8 106 12T64 73Q61 80 59 90T56 117T54 164T53 238Q53 283 53 312T55 358T59 386T64 404Q90 485 179 485Q268 485 294 404Q297 396 299 386T302 359T304 312T305 238ZM250 272Q256 272 256 278Q256 307 256 326T254 357T251 377T247 389Q230 439 179 439Q128 439 111 389Q109 384 108 377T105 358T103 326T102 278Q102 272 108 272H250Z"  />
<glyph unicode="&#x11C;" horiz-adv-x="411" d="M70 85Q66 96 64 109T60 149T58 220T57 340Q57 415 57 460T59 531T63 570T70 595Q100 688 207 688Q273 688 309 652T353 554Q354 544 346 541L317 535Q307 532 305 542Q298 587 275 613T207 639Q140 639 120 579Q117 570 116 559T113 524T111 457T110 340Q110 267 110 224T112 156T115 121T120 101Q141 41 208 41Q275 41 296 101Q299 110 300 120T303 151T305 207T306 300Q306 306 300 306H219Q209 306 209 316V344Q209 354 219 354H347Q357 354 357 344V317Q357 251 357 211T355 146T351 109T344 85Q314 -8 207 -8Q100 -8 70 85ZM278 754Q270 754 263 764L206 850H204L147 764Q143 759 140 757T131 754H109Q104 754 103 756T104 764L180 886Q186 895 195 895H215Q224 895 230 886L306 764Q309 759 308 757T301 754H278Z"  />
<glyph unicode="&#x11D;" horiz-adv-x="372" d="M258 559Q250 559 243 569L186 655H184L127 569Q123 564 120 562T111 559H89Q84 559 83 561T84 569L160 691Q166 700 175 700H195Q204 700 210 691L286 569Q289 564 288 562T281 559H258ZM179 -188Q137 -188 105 -167T62 -107Q60 -98 67 -95L95 -85Q104 -80 108 -91Q116 -116 135 -128T179 -141Q215 -141 236 -120T257 -51V54H256Q246 31 226 14T166 -4Q125 -4 101 15T64 73Q61 82 59 93T56 122T54 168T53 240Q53 284 53 312T55 359T59 388T64 408Q76 445 100 465T166 485Q206 485 226 468T256 427H257V467Q257 477 267 477H296Q306 477 306 467V-46Q306 -118 272 -153T179 -188ZM179 43Q230 43 247 93Q249 100 251 108T254 132T256 173T257 240Q257 281 257 306T255 348T251 372T247 388Q230 438 179 438Q126 438 111 388Q109 381 107 373T104 348T103 307T102 240Q102 199 102 174T104 133T107 109T111 93Q126 43 179 43Z"  />
<glyph unicode="&#x11E;" horiz-adv-x="411" d="M205 765Q160 765 135 793T103 867Q103 877 113 877H130Q139 877 141 867Q153 805 205 805Q255 805 269 867Q271 877 280 877H297Q308 877 306 867Q301 821 276 793T205 765ZM70 85Q66 96 64 109T60 149T58 220T57 340Q57 415 57 460T59 531T63 570T70 595Q100 688 207 688Q273 688 309 652T353 554Q354 544 346 541L317 535Q307 532 305 542Q298 587 275 613T207 639Q140 639 120 579Q117 570 116 559T113 524T111 457T110 340Q110 267 110 224T112 156T115 121T120 101Q141 41 208 41Q275 41 296 101Q299 110 300 120T303 151T305 207T306 300Q306 306 300 306H219Q209 306 209 316V344Q209 354 219 354H347Q357 354 357 344V317Q357 251 357 211T355 146T351 109T344 85Q314 -8 207 -8Q100 -8 70 85Z"  />
<glyph unicode="&#x11F;" horiz-adv-x="372" d="M179 -188Q137 -188 105 -167T62 -107Q60 -98 67 -95L95 -85Q104 -80 108 -91Q116 -116 135 -128T179 -141Q215 -141 236 -120T257 -51V54H256Q246 31 226 14T166 -4Q125 -4 101 15T64 73Q61 82 59 93T56 122T54 168T53 240Q53 284 53 312T55 359T59 388T64 408Q76 445 100 465T166 485Q206 485 226 468T256 427H257V467Q257 477 267 477H296Q306 477 306 467V-46Q306 -118 272 -153T179 -188ZM179 43Q230 43 247 93Q249 100 251 108T254 132T256 173T257 240Q257 281 257 306T255 348T251 372T247 388Q230 438 179 438Q126 438 111 388Q109 381 107 373T104 348T103 307T102 240Q102 199 102 174T104 133T107 109T111 93Q126 43 179 43ZM185 572Q140 572 115 600T83 674Q83 684 93 684H110Q119 684 121 674Q133 612 185 612Q235 612 249 674Q251 684 260 684H277Q288 684 286 674Q281 628 256 600T185 572Z"  />
<glyph unicode="&#x120;" horiz-adv-x="411" d="M185 787Q175 787 175 797V851Q175 861 185 861H225Q235 861 235 851V797Q235 787 225 787H185ZM70 85Q66 96 64 109T60 149T58 220T57 340Q57 415 57 460T59 531T63 570T70 595Q100 688 207 688Q273 688 309 652T353 554Q354 544 346 541L317 535Q307 532 305 542Q298 587 275 613T207 639Q140 639 120 579Q117 570 116 559T113 524T111 457T110 340Q110 267 110 224T112 156T115 121T120 101Q141 41 208 41Q275 41 296 101Q299 110 300 120T303 151T305 207T306 300Q306 306 300 306H219Q209 306 209 316V344Q209 354 219 354H347Q357 354 357 344V317Q357 251 357 211T355 146T351 109T344 85Q314 -8 207 -8Q100 -8 70 85Z"  />
<glyph unicode="&#x121;" horiz-adv-x="372" d="M179 -188Q137 -188 105 -167T62 -107Q60 -98 67 -95L95 -85Q104 -80 108 -91Q116 -116 135 -128T179 -141Q215 -141 236 -120T257 -51V54H256Q246 31 226 14T166 -4Q125 -4 101 15T64 73Q61 82 59 93T56 122T54 168T53 240Q53 284 53 312T55 359T59 388T64 408Q76 445 100 465T166 485Q206 485 226 468T256 427H257V467Q257 477 267 477H296Q306 477 306 467V-46Q306 -118 272 -153T179 -188ZM179 43Q230 43 247 93Q249 100 251 108T254 132T256 173T257 240Q257 281 257 306T255 348T251 372T247 388Q230 438 179 438Q126 438 111 388Q109 381 107 373T104 348T103 307T102 240Q102 199 102 174T104 133T107 109T111 93Q126 43 179 43ZM166 606Q156 606 156 616V670Q156 680 166 680H206Q216 680 216 670V616Q216 606 206 606H166Z"  />
<glyph unicode="&#x122;" horiz-adv-x="411" d="M187 -192Q178 -192 178 -183V-62Q178 -52 188 -52H222Q232 -52 232 -62V-103Q232 -111 231 -115T227 -126L197 -184Q194 -192 187 -192ZM70 85Q66 96 64 109T60 149T58 220T57 340Q57 415 57 460T59 531T63 570T70 595Q100 688 207 688Q273 688 309 652T353 554Q354 544 346 541L317 535Q307 532 305 542Q298 587 275 613T207 639Q140 639 120 579Q117 570 116 559T113 524T111 457T110 340Q110 267 110 224T112 156T115 121T120 101Q141 41 208 41Q275 41 296 101Q299 110 300 120T303 151T305 207T306 300Q306 306 300 306H219Q209 306 209 316V344Q209 354 219 354H347Q357 354 357 344V317Q357 251 357 211T355 146T351 109T344 85Q314 -8 207 -8Q100 -8 70 85Z"  />
<glyph unicode="&#x123;" horiz-adv-x="372" d="M168 572Q158 572 158 582V623Q158 631 159 635T163 646L193 704Q196 712 203 712Q212 712 212 703V582Q212 572 202 572H168ZM179 -188Q137 -188 105 -167T62 -107Q60 -98 67 -95L95 -85Q104 -80 108 -91Q116 -116 135 -128T179 -141Q215 -141 236 -120T257 -51V54H256Q246 31 226 14T166 -4Q125 -4 101 15T64 73Q61 82 59 93T56 122T54 168T53 240Q53 284 53 312T55 359T59 388T64 408Q76 445 100 465T166 485Q206 485 226 468T256 427H257V467Q257 477 267 477H296Q306 477 306 467V-46Q306 -118 272 -153T179 -188ZM179 43Q230 43 247 93Q249 100 251 108T254 132T256 173T257 240Q257 281 257 306T255 348T251 372T247 388Q230 438 179 438Q126 438 111 388Q109 381 107 373T104 348T103 307T102 240Q102 199 102 174T104 133T107 109T111 93Q126 43 179 43Z"  />
<glyph unicode="&#x124;" horiz-adv-x="431" d="M68 670Q68 680 78 680H110Q120 680 120 670V380Q120 374 126 374H305Q311 374 311 380V670Q311 680 321 680H353Q363 680 363 670V10Q363 0 353 0H321Q311 0 311 10V319Q311 325 305 325H126Q120 325 120 319V10Q120 0 110 0H78Q68 0 68 10V670ZM288 754Q280 754 273 764L216 850H214L157 764Q153 759 150 757T141 754H119Q114 754 113 756T114 764L190 886Q196 895 205 895H225Q234 895 240 886L316 764Q319 759 318 757T311 754H288Z"  />
<glyph unicode="&#x125;" horiz-adv-x="380" d="M279 0Q269 0 269 10V332Q269 384 251 411T192 438Q157 438 136 412T115 332V10Q115 0 105 0H76Q66 0 66 10V670Q66 680 76 680H105Q115 680 115 670V428H116Q126 451 147 468T207 485Q318 485 318 340V10Q318 0 308 0H279ZM261 754Q253 754 246 764L189 850H187L130 764Q126 759 123 757T114 754H92Q87 754 86 756T87 764L163 886Q169 895 178 895H198Q207 895 213 886L289 764Q292 759 291 757T284 754H261Z"  />
<glyph unicode="&#x126;" horiz-adv-x="431" d="M321 0Q311 0 311 10V319Q311 325 305 325H126Q120 325 120 319V10Q120 0 110 0H78Q68 0 68 10V488Q68 494 62 494H38Q28 494 28 504V527Q28 537 38 537H62Q68 537 68 543V670Q68 680 78 680H110Q120 680 120 670V543Q120 537 126 537H305Q311 537 311 543V670Q311 680 321 680H353Q363 680 363 670V543Q363 537 369 537H393Q403 537 403 527V504Q403 494 393 494H369Q363 494 363 488V10Q363 0 353 0H321ZM305 374Q311 374 311 380V488Q311 494 305 494H126Q120 494 120 488V380Q120 374 126 374H305Z"  />
<glyph unicode="&#x127;" horiz-adv-x="380" d="M279 0Q269 0 269 10V332Q269 384 251 411T192 438Q157 438 136 412T115 332V10Q115 0 105 0H76Q66 0 66 10V558Q66 564 60 564H33Q23 564 23 574V594Q23 604 33 604H60Q66 604 66 610V670Q66 680 76 680H105Q115 680 115 670V610Q115 604 121 604H209Q219 604 219 594V574Q219 564 209 564H121Q115 564 115 558V428H116Q126 451 147 468T207 485Q318 485 318 340V10Q318 0 308 0H279Z"  />
<glyph unicode="&#x128;" horiz-adv-x="188" d="M68 670Q68 680 78 680H110Q120 680 120 670V10Q120 0 110 0H78Q68 0 68 10V670ZM134 784Q120 784 109 790T89 805Q80 812 73 816T56 821Q44 821 36 814T17 792Q13 788 9 789T5 795V825Q5 833 13 841Q21 852 32 858T57 865Q71 865 82 859T103 845Q112 837 119 833T135 828Q147 828 156 835T175 857Q178 861 182 860T186 854V824Q186 819 185 816T179 808Q170 797 159 791T134 784Z"  />
<glyph unicode="&#x129;" horiz-adv-x="181" d="M76 0Q66 0 66 10V467Q66 477 76 477H105Q115 477 115 467V10Q115 0 105 0H76ZM131 597Q117 597 106 603T86 617Q77 625 70 629T53 634Q41 634 33 627T14 605Q10 601 6 602T2 608V638Q2 646 10 654Q28 677 54 677Q68 677 79 671T100 657Q109 650 116 646T132 641Q144 641 153 648T172 669Q175 674 179 673T183 667V637Q183 632 182 629T176 621Q167 610 156 604T131 597Z"  />
<glyph unicode="&#x12A;" horiz-adv-x="188" d="M68 670Q68 680 78 680H110Q120 680 120 670V10Q120 0 110 0H78Q68 0 68 10V670ZM5 801Q-5 801 -5 811V834Q-5 844 5 844H187Q197 844 197 834V811Q197 801 187 801H5Z"  />
<glyph unicode="&#x12B;" horiz-adv-x="181" d="M76 0Q66 0 66 10V467Q66 477 76 477H105Q115 477 115 467V10Q115 0 105 0H76ZM1 621Q-9 621 -9 631V654Q-9 664 1 664H183Q193 664 193 654V631Q193 621 183 621H1Z"  />
<glyph unicode="&#x12C;" horiz-adv-x="188" d="M68 670Q68 680 78 680H110Q120 680 120 670V10Q120 0 110 0H78Q68 0 68 10V670ZM96 765Q51 765 26 793T-6 867Q-6 877 4 877H21Q30 877 32 867Q44 805 96 805Q146 805 160 867Q162 877 171 877H188Q199 877 197 867Q192 821 167 793T96 765Z"  />
<glyph unicode="&#x12D;" horiz-adv-x="181" d="M76 0Q66 0 66 10V467Q66 477 76 477H105Q115 477 115 467V10Q115 0 105 0H76ZM92 572Q47 572 22 600T-10 674Q-10 684 0 684H17Q26 684 28 674Q40 612 92 612Q142 612 156 674Q158 684 167 684H184Q195 684 193 674Q188 628 163 600T92 572Z"  />
<glyph unicode="&#x12E;" horiz-adv-x="188" d="M79 -171Q53 -171 36 -155T18 -109Q18 -97 20 -86T29 -62T45 -34T72 0Q68 3 68 10V670Q68 680 78 680H110Q120 680 120 670V10Q120 4 116 0Q98 -22 87 -37T71 -65T63 -86T61 -103Q61 -116 67 -123T85 -131Q96 -131 108 -124Q116 -119 120 -126L128 -144Q133 -152 124 -157Q116 -163 105 -167T79 -171Z"  />
<glyph unicode="&#x12F;" horiz-adv-x="181" d="M71 606Q61 606 61 616V670Q61 680 71 680H110Q120 680 120 670V616Q120 606 110 606H71ZM75 -171Q49 -171 32 -155T14 -109Q14 -86 25 -61T69 2Q66 3 66 10V467Q66 477 76 477H105Q115 477 115 467V10Q115 5 111 0Q94 -21 84 -37T67 -65T59 -86T57 -103Q57 -116 63 -123T81 -131Q92 -131 104 -124Q112 -119 116 -126L124 -144Q129 -152 120 -157Q112 -163 101 -167T75 -171Z"  />
<glyph unicode="&#x130;" horiz-adv-x="188" d="M68 670Q68 680 78 680H110Q120 680 120 670V10Q120 0 110 0H78Q68 0 68 10V670ZM76 787Q66 787 66 797V851Q66 861 76 861H116Q126 861 126 851V797Q126 787 116 787H76Z"  />
<glyph unicode="&#x131;" horiz-adv-x="181" d="M76 0Q66 0 66 10V467Q66 477 76 477H105Q115 477 115 467V10Q115 0 105 0H76Z"  />
<glyph unicode="&#x132;" horiz-adv-x="515" d="M68 670Q68 680 78 680H110Q120 680 120 670V10Q120 0 110 0H78Q68 0 68 10V670ZM222 28Q216 35 223 42L246 64Q252 70 259 63Q283 41 315 41Q353 41 374 64T396 140V670Q396 680 406 680H438Q448 680 448 670V144Q448 67 413 30T315 -8Q287 -8 263 1T222 28Z"  />
<glyph unicode="&#x133;" horiz-adv-x="362" d="M71 606Q61 606 61 616V670Q61 680 71 680H110Q120 680 120 670V616Q120 606 110 606H71ZM76 0Q66 0 66 10V467Q66 477 76 477H105Q115 477 115 467V10Q115 0 105 0H76ZM252 606Q242 606 242 616V670Q242 680 252 680H291Q301 680 301 670V616Q301 606 291 606H252ZM203 -180Q193 -180 193 -170V-143Q193 -133 203 -133H210Q230 -132 238 -122T247 -89V467Q247 477 257 477H286Q296 477 296 467V-88Q296 -180 210 -180H203Z"  />
<glyph unicode="&#x134;" horiz-adv-x="327" d="M34 28Q28 35 35 42L58 64Q64 70 71 63Q95 41 127 41Q165 41 186 64T208 140V670Q208 680 218 680H250Q260 680 260 670V144Q260 67 225 30T127 -8Q99 -8 75 1T34 28ZM305 754Q297 754 290 764L233 850H231L174 764Q170 759 167 757T158 754H136Q131 754 130 756T131 764L207 886Q213 895 222 895H242Q251 895 257 886L333 764Q336 759 335 757T328 754H305Z"  />
<glyph unicode="&#x135;" horiz-adv-x="181" d="M22 -180Q12 -180 12 -170V-143Q12 -133 22 -133H29Q49 -132 57 -122T66 -89V467Q66 477 76 477H105Q115 477 115 467V-88Q115 -180 29 -180H22ZM165 559Q157 559 150 569L93 655H91L34 569Q30 564 27 562T18 559H-4Q-9 559 -10 561T-9 569L67 691Q73 700 82 700H102Q111 700 117 691L193 569Q196 564 195 562T188 559H165Z"  />
<glyph unicode="&#x136;" horiz-adv-x="400" d="M186 -192Q177 -192 177 -183V-62Q177 -52 187 -52H221Q231 -52 231 -62V-103Q231 -111 230 -115T226 -126L196 -184Q193 -192 186 -192ZM68 670Q68 680 78 680H110Q120 680 120 670V322L296 672Q300 680 308 680H344Q354 680 350 671L218 414L371 10Q374 0 366 0H328Q320 0 317 8L187 357L120 227V10Q120 0 110 0H78Q68 0 68 10V670Z"  />
<glyph unicode="&#x137;" horiz-adv-x="351" d="M169 -192Q160 -192 160 -183V-62Q160 -52 170 -52H204Q214 -52 214 -62V-103Q214 -111 213 -115T209 -126L179 -184Q176 -192 169 -192ZM286 0Q276 0 272 10L172 242L115 140V10Q115 0 105 0H76Q66 0 66 10V670Q66 680 76 680H105Q115 680 115 670V220L252 467Q258 477 266 477H299Q310 477 305 467L201 289L325 10Q328 0 317 0H286Z"  />
<glyph unicode="&#x138;" horiz-adv-x="351" d="M286 0Q276 0 272 10L172 242L115 140V10Q115 0 105 0H76Q66 0 66 10V467Q66 477 76 477H105Q115 477 115 467V220L252 467Q258 477 266 477H299Q310 477 305 467L201 289L325 10Q328 0 317 0H286Z"  />
<glyph unicode="&#x139;" horiz-adv-x="344" d="M94 765Q89 765 88 768T90 775L165 878Q169 883 172 885T182 888H215Q220 888 221 885T219 878L132 775Q123 765 115 765H94ZM68 670Q68 680 78 680H110Q120 680 120 670V55Q120 49 126 49H308Q318 49 318 39V10Q318 0 308 0H78Q68 0 68 10V670Z"  />
<glyph unicode="&#x13A;" horiz-adv-x="207" d="M84 765Q79 765 78 768T80 775L155 878Q159 883 162 885T172 888H205Q210 888 211 885T209 878L122 775Q113 765 105 765H84ZM158 -3Q107 1 87 26T66 111V670Q66 680 76 680H105Q115 680 115 670V105Q115 76 125 63T159 45L164 44Q174 43 174 34V6Q174 -5 165 -3H158Z"  />
<glyph unicode="&#x13B;" horiz-adv-x="344" d="M172 -192Q163 -192 163 -183V-62Q163 -52 173 -52H207Q217 -52 217 -62V-103Q217 -111 216 -115T212 -126L182 -184Q179 -192 172 -192ZM68 670Q68 680 78 680H110Q120 680 120 670V55Q120 49 126 49H308Q318 49 318 39V10Q318 0 308 0H78Q68 0 68 10V670Z"  />
<glyph unicode="&#x13C;" horiz-adv-x="207" d="M92 -192Q83 -192 83 -183V-62Q83 -52 93 -52H127Q137 -52 137 -62V-103Q137 -111 136 -115T132 -126L102 -184Q99 -192 92 -192ZM158 -3Q107 1 87 26T66 111V670Q66 680 76 680H105Q115 680 115 670V105Q115 76 125 63T159 45L164 44Q174 43 174 34V6Q174 -5 165 -3H158Z"  />
<glyph unicode="&#x13D;" horiz-adv-x="344" d="M174 539Q166 539 166 548V670Q166 680 176 680H208Q218 680 218 670V628Q218 620 217 616T213 605L185 548Q180 539 174 539ZM68 670Q68 680 78 680H110Q120 680 120 670V55Q120 49 126 49H308Q318 49 318 39V10Q318 0 308 0H78Q68 0 68 10V670Z"  />
<glyph unicode="&#x13E;" horiz-adv-x="207" d="M159 539Q151 539 151 548V670Q151 680 161 680H193Q203 680 203 670V628Q203 620 202 616T198 605L170 548Q165 539 159 539ZM158 -3Q107 1 87 26T66 111V670Q66 680 76 680H105Q115 680 115 670V105Q115 76 125 63T159 45L164 44Q174 43 174 34V6Q174 -5 165 -3H158Z"  />
<glyph unicode="&#x13F;" horiz-adv-x="344" d="M68 670Q68 680 78 680H110Q120 680 120 670V55Q120 49 126 49H308Q318 49 318 39V10Q318 0 308 0H78Q68 0 68 10V670ZM243 266Q233 266 233 276V341Q233 351 243 351H288Q298 351 298 341V276Q298 266 288 266H243Z"  />
<glyph unicode="&#x140;" horiz-adv-x="222" d="M158 -3Q107 1 87 26T66 111V670Q66 680 76 680H105Q115 680 115 670V105Q115 76 125 63T159 45L164 44Q174 43 174 34V6Q174 -5 165 -3H158ZM178 273Q168 273 168 283V348Q168 358 178 358H223Q233 358 233 348V283Q233 273 223 273H178Z"  />
<glyph unicode="&#x141;" horiz-adv-x="344" d="M120 331V55Q120 49 126 49H308Q318 49 318 39V10Q318 0 308 0H78Q68 0 68 10V295L24 265Q20 263 17 264T14 270V301Q14 310 24 317L68 347V670Q68 680 78 680H110Q120 680 120 670V383L211 446Q215 448 218 447T221 441V410Q221 401 211 394L120 331Z"  />
<glyph unicode="&#x142;" horiz-adv-x="207" d="M115 360V105Q115 76 125 63T159 45L164 44Q174 43 174 34V6Q174 -5 165 -3H158Q107 1 87 26T66 111V325L34 303Q30 301 27 302T24 308V338Q24 347 34 354L66 376V670Q66 680 76 680H105Q115 680 115 670V411L164 445Q168 447 171 446T174 440V410Q174 401 164 394L115 360Z"  />
<glyph unicode="&#x143;" horiz-adv-x="441" d="M193 765Q188 765 187 768T189 775L264 878Q268 883 271 885T281 888H314Q319 888 320 885T318 878L231 775Q222 765 214 765H193ZM68 670Q68 680 78 680H118Q130 680 134 670L322 113H325V670Q325 680 335 680H363Q373 680 373 670V10Q373 0 363 0H325Q313 0 309 10L119 567H116V10Q116 0 106 0H78Q68 0 68 10V670Z"  />
<glyph unicode="&#x144;" horiz-adv-x="380" d="M153 559Q143 559 148 569L219 690Q225 700 235 700H267Q272 700 273 697T272 690L191 569Q186 563 183 561T174 559H153ZM279 0Q269 0 269 10V332Q269 384 251 411T192 438Q157 438 136 412T115 332V10Q115 0 105 0H76Q66 0 66 10V467Q66 477 76 477H105Q115 477 115 467V428H116Q126 451 147 468T207 485Q318 485 318 340V10Q318 0 308 0H279Z"  />
<glyph unicode="&#x145;" horiz-adv-x="441" d="M202 -192Q193 -192 193 -183V-62Q193 -52 203 -52H237Q247 -52 247 -62V-103Q247 -111 246 -115T242 -126L212 -184Q209 -192 202 -192ZM68 670Q68 680 78 680H118Q130 680 134 670L322 113H325V670Q325 680 335 680H363Q373 680 373 670V10Q373 0 363 0H325Q313 0 309 10L119 567H116V10Q116 0 106 0H78Q68 0 68 10V670Z"  />
<glyph unicode="&#x146;" horiz-adv-x="380" d="M172 -192Q163 -192 163 -183V-62Q163 -52 173 -52H207Q217 -52 217 -62V-103Q217 -111 216 -115T212 -126L182 -184Q179 -192 172 -192ZM279 0Q269 0 269 10V332Q269 384 251 411T192 438Q157 438 136 412T115 332V10Q115 0 105 0H76Q66 0 66 10V467Q66 477 76 477H105Q115 477 115 467V428H116Q126 451 147 468T207 485Q318 485 318 340V10Q318 0 308 0H279Z"  />
<glyph unicode="&#x147;" horiz-adv-x="441" d="M207 753Q197 753 192 762L116 884Q113 889 114 891T121 894H143Q149 894 152 892T159 884L216 798H218L275 884Q282 894 290 894H313Q318 894 319 892T318 884L242 762Q237 753 227 753H207ZM68 670Q68 680 78 680H118Q130 680 134 670L322 113H325V670Q325 680 335 680H363Q373 680 373 670V10Q373 0 363 0H325Q313 0 309 10L119 567H116V10Q116 0 106 0H78Q68 0 68 10V670Z"  />
<glyph unicode="&#x148;" horiz-adv-x="380" d="M180 557Q171 557 165 566L89 689Q86 693 87 696T94 699H116Q122 699 125 697T132 689L189 603H191L248 689Q255 699 263 699H286Q291 699 292 696T291 689L215 566Q209 557 200 557H180ZM279 0Q269 0 269 10V332Q269 384 251 411T192 438Q157 438 136 412T115 332V10Q115 0 105 0H76Q66 0 66 10V467Q66 477 76 477H105Q115 477 115 467V428H116Q126 451 147 468T207 485Q318 485 318 340V10Q318 0 308 0H279Z"  />
<glyph unicode="&#x149;" horiz-adv-x="380" d="M34 539Q26 539 26 548V670Q26 680 36 680H68Q78 680 78 670V628Q78 620 77 616T73 605L45 548Q40 539 34 539ZM279 0Q269 0 269 10V332Q269 384 251 411T192 438Q157 438 136 412T115 332V10Q115 0 105 0H76Q66 0 66 10V467Q66 477 76 477H105Q115 477 115 467V428H116Q126 451 147 468T207 485Q318 485 318 340V10Q318 0 308 0H279Z"  />
<glyph unicode="&#x14A;" horiz-adv-x="441" d="M260 -180Q250 -180 250 -170V-141Q250 -131 260 -131H267Q296 -130 309 -117T322 -71V-18L119 567H116V10Q116 0 106 0H78Q68 0 68 10V670Q68 680 78 680H117Q130 680 134 670L322 120H325V670Q325 680 335 680H363Q373 680 373 670V-66Q373 -126 347 -153T267 -180H260Z"  />
<glyph unicode="&#x14B;" horiz-adv-x="380" d="M226 -180Q216 -180 216 -170V-143Q216 -133 226 -133H232Q251 -132 260 -122T269 -89V332Q269 384 251 411T192 438Q157 438 136 412T115 332V10Q115 0 105 0H76Q66 0 66 10V467Q66 477 76 477H105Q115 477 115 467V428H116Q126 451 147 468T207 485Q318 485 318 340V-88Q318 -180 232 -180H226Z"  />
<glyph unicode="&#x14C;" horiz-adv-x="414" d="M116 801Q106 801 106 811V834Q106 844 116 844H298Q308 844 308 834V811Q308 801 298 801H116ZM207 -8Q100 -8 70 85Q66 96 64 109T60 149T58 220T57 340Q57 415 57 460T59 531T63 570T70 595Q100 688 207 688Q314 688 344 595Q348 584 350 571T354 531T356 460T357 340Q357 265 357 220T355 149T351 110T344 85Q314 -8 207 -8ZM207 41Q274 41 294 101Q297 110 299 121T302 156T304 223T305 340Q305 413 305 456T303 524T299 559T294 579Q284 610 262 624T207 639Q140 639 120 579Q117 570 116 559T113 524T111 457T110 340Q110 267 110 224T112 156T115 121T120 101Q141 41 207 41Z"  />
<glyph unicode="&#x14D;" horiz-adv-x="362" d="M90 621Q80 621 80 631V654Q80 664 90 664H272Q282 664 282 654V631Q282 621 272 621H90ZM309 239Q309 194 309 167T307 122T304 95T299 74Q286 33 256 13T181 -8Q137 -8 107 12T63 74Q60 84 58 94T55 122T54 166T53 239Q53 283 53 310T55 355T58 382T63 403Q76 444 106 464T181 485Q225 485 255 465T299 403Q302 393 304 383T307 355T308 311T309 239ZM260 239Q260 281 260 306T259 347T257 371T252 388Q236 438 181 438Q126 438 110 388Q107 380 106 372T104 348T103 307T102 239Q102 197 102 171T103 130T105 106T110 89Q126 39 181 39Q236 39 252 89Q255 97 256 105T258 129T259 171T260 239Z"  />
<glyph unicode="&#x14E;" horiz-adv-x="414" d="M207 765Q162 765 137 793T105 867Q105 877 115 877H132Q141 877 143 867Q155 805 207 805Q257 805 271 867Q273 877 282 877H299Q310 877 308 867Q303 821 278 793T207 765ZM207 -8Q100 -8 70 85Q66 96 64 109T60 149T58 220T57 340Q57 415 57 460T59 531T63 570T70 595Q100 688 207 688Q314 688 344 595Q348 584 350 571T354 531T356 460T357 340Q357 265 357 220T355 149T351 110T344 85Q314 -8 207 -8ZM207 41Q274 41 294 101Q297 110 299 121T302 156T304 223T305 340Q305 413 305 456T303 524T299 559T294 579Q284 610 262 624T207 639Q140 639 120 579Q117 570 116 559T113 524T111 457T110 340Q110 267 110 224T112 156T115 121T120 101Q141 41 207 41Z"  />
<glyph unicode="&#x14F;" horiz-adv-x="362" d="M309 239Q309 194 309 167T307 122T304 95T299 74Q286 33 256 13T181 -8Q137 -8 107 12T63 74Q60 84 58 94T55 122T54 166T53 239Q53 283 53 310T55 355T58 382T63 403Q76 444 106 464T181 485Q225 485 255 465T299 403Q302 393 304 383T307 355T308 311T309 239ZM260 239Q260 281 260 306T259 347T257 371T252 388Q236 438 181 438Q126 438 110 388Q107 380 106 372T104 348T103 307T102 239Q102 197 102 171T103 130T105 106T110 89Q126 39 181 39Q236 39 252 89Q255 97 256 105T258 129T259 171T260 239ZM181 572Q136 572 111 600T79 674Q79 684 89 684H106Q115 684 117 674Q129 612 181 612Q231 612 245 674Q247 684 256 684H273Q284 684 282 674Q277 628 252 600T181 572Z"  />
<glyph unicode="&#x150;" horiz-adv-x="414" d="M207 -8Q100 -8 70 85Q66 96 64 109T60 149T58 220T57 340Q57 415 57 460T59 531T63 570T70 595Q100 688 207 688Q314 688 344 595Q348 584 350 571T354 531T356 460T357 340Q357 265 357 220T355 149T351 110T344 85Q314 -8 207 -8ZM207 41Q274 41 294 101Q297 110 299 121T302 156T304 223T305 340Q305 413 305 456T303 524T299 559T294 579Q284 610 262 624T207 639Q140 639 120 579Q117 570 116 559T113 524T111 457T110 340Q110 267 110 224T112 156T115 121T120 101Q141 41 207 41ZM246 765Q236 765 241 775L306 878Q312 888 322 888H351Q356 888 357 885T355 878L281 775Q276 768 273 767T264 765H246ZM133 765Q123 765 128 775L193 878Q199 888 209 888H238Q243 888 244 885T242 878L168 775Q163 768 160 767T151 765H133Z"  />
<glyph unicode="&#x151;" horiz-adv-x="362" d="M221 559Q211 559 216 569L277 690Q283 700 293 700H321Q326 700 327 697T326 690L256 569Q252 562 248 561T238 559H221ZM108 559Q98 559 103 569L164 690Q170 700 180 700H208Q213 700 214 697T213 690L143 569Q139 562 135 561T125 559H108ZM309 239Q309 194 309 167T307 122T304 95T299 74Q286 33 256 13T181 -8Q137 -8 107 12T63 74Q60 84 58 94T55 122T54 166T53 239Q53 283 53 310T55 355T58 382T63 403Q76 444 106 464T181 485Q225 485 255 465T299 403Q302 393 304 383T307 355T308 311T309 239ZM260 239Q260 281 260 306T259 347T257 371T252 388Q236 438 181 438Q126 438 110 388Q107 380 106 372T104 348T103 307T102 239Q102 197 102 171T103 130T105 106T110 89Q126 39 181 39Q236 39 252 89Q255 97 256 105T258 129T259 171T260 239Z"  />
<glyph unicode="&#x152;" horiz-adv-x="588" d="M315 0Q305 0 305 10V42H304Q291 19 266 6T202 -8Q152 -8 119 15T70 84Q66 95 64 108T60 148T58 220T57 340Q57 415 57 460T59 531T63 571T70 596Q85 643 118 665T202 688Q240 688 265 675T304 638H305V670Q305 680 315 680H546Q556 680 556 670V641Q556 631 546 631H363Q357 631 357 625V375Q357 369 363 369H523Q533 369 533 359V330Q533 320 523 320H363Q357 320 357 314V55Q357 49 363 49H546Q556 49 556 39V10Q556 0 546 0H315ZM207 41Q274 41 294 101Q297 110 299 121T302 156T304 223T305 340Q305 413 305 456T303 524T299 559T294 579Q284 610 262 624T207 639Q140 639 120 579Q117 570 116 559T113 524T111 457T110 340Q110 267 110 224T112 156T115 121T120 101Q141 41 207 41Z"  />
<glyph unicode="&#x153;" horiz-adv-x="561" d="M384 -8Q349 -8 323 7T285 51H284Q270 21 243 7T181 -8Q137 -8 107 12T63 74Q60 84 58 94T55 122T54 166T53 239Q53 283 53 310T55 355T58 382T63 403Q76 444 106 464T181 485Q254 485 284 426H285Q313 485 386 485Q475 485 501 404Q504 396 506 386T509 359T511 312T512 238Q512 228 502 228H315Q309 228 309 222Q309 185 309 162T311 125T314 102T318 88Q326 63 343 51T385 39Q416 39 434 54T462 105Q464 114 474 112L501 106Q510 104 507 94Q496 43 465 18T384 -8ZM457 272Q463 272 463 278Q463 307 463 326T461 357T458 377T454 389Q437 439 386 439Q335 439 318 389Q316 384 315 377T312 358T310 326T309 278Q309 272 315 272H457ZM260 239Q260 281 260 306T259 347T257 371T252 388Q236 438 181 438Q126 438 110 388Q107 380 106 372T104 348T103 307T102 239Q102 197 102 171T103 130T105 106T110 89Q126 39 181 39Q236 39 252 89Q255 97 256 105T258 129T259 171T260 239Z"  />
<glyph unicode="&#x154;" horiz-adv-x="404" d="M314 0Q306 0 303 7L215 307Q195 304 173 304H126Q120 304 120 298V10Q120 0 110 0H78Q68 0 68 10V670Q68 680 78 680H175Q264 680 306 638T348 492Q348 420 327 379T264 320L356 10Q359 0 351 0H314ZM179 352Q209 352 231 358T268 381T289 424T296 492Q296 531 290 558T269 601T232 624T179 631H126Q120 631 120 625V358Q120 352 126 352H179ZM147 765Q142 765 141 768T143 775L218 878Q222 883 225 885T235 888H268Q273 888 274 885T272 878L185 775Q176 765 168 765H147Z"  />
<glyph unicode="&#x155;" horiz-adv-x="248" d="M121 559Q111 559 116 569L187 690Q193 700 203 700H235Q240 700 241 697T240 690L159 569Q154 563 151 561T142 559H121ZM76 0Q66 0 66 10V467Q66 477 76 477H105Q115 477 115 467V424H116Q125 450 147 467T201 485Q213 485 221 482Q230 479 227 470L219 440Q216 432 207 434Q203 435 192 435Q161 435 138 407T115 320V10Q115 0 105 0H76Z"  />
<glyph unicode="&#x156;" horiz-adv-x="404" d="M181 -192Q172 -192 172 -183V-62Q172 -52 182 -52H216Q226 -52 226 -62V-103Q226 -111 225 -115T221 -126L191 -184Q188 -192 181 -192ZM314 0Q306 0 303 7L215 307Q195 304 173 304H126Q120 304 120 298V10Q120 0 110 0H78Q68 0 68 10V670Q68 680 78 680H175Q264 680 306 638T348 492Q348 420 327 379T264 320L356 10Q359 0 351 0H314ZM179 352Q209 352 231 358T268 381T289 424T296 492Q296 531 290 558T269 601T232 624T179 631H126Q120 631 120 625V358Q120 352 126 352H179Z"  />
<glyph unicode="&#x157;" horiz-adv-x="248" d="M75 -192Q66 -192 66 -183V-62Q66 -52 76 -52H110Q120 -52 120 -62V-103Q120 -111 119 -115T115 -126L85 -184Q82 -192 75 -192ZM76 0Q66 0 66 10V467Q66 477 76 477H105Q115 477 115 467V424H116Q125 450 147 467T201 485Q213 485 221 482Q230 479 227 470L219 440Q216 432 207 434Q203 435 192 435Q161 435 138 407T115 320V10Q115 0 105 0H76Z"  />
<glyph unicode="&#x158;" horiz-adv-x="404" d="M178 753Q168 753 163 762L87 884Q84 889 85 891T92 894H114Q120 894 123 892T130 884L187 798H189L246 884Q253 894 261 894H284Q289 894 290 892T289 884L213 762Q208 753 198 753H178ZM314 0Q306 0 303 7L215 307Q195 304 173 304H126Q120 304 120 298V10Q120 0 110 0H78Q68 0 68 10V670Q68 680 78 680H175Q264 680 306 638T348 492Q348 420 327 379T264 320L356 10Q359 0 351 0H314ZM179 352Q209 352 231 358T268 381T289 424T296 492Q296 531 290 558T269 601T232 624T179 631H126Q120 631 120 625V358Q120 352 126 352H179Z"  />
<glyph unicode="&#x159;" horiz-adv-x="248" d="M124 557Q115 557 109 566L33 689Q30 693 31 696T38 699H60Q66 699 69 697T76 689L133 603H135L192 689Q199 699 207 699H230Q235 699 236 696T235 689L159 566Q153 557 144 557H124ZM76 0Q66 0 66 10V467Q66 477 76 477H105Q115 477 115 467V424H116Q125 450 147 467T201 485Q213 485 221 482Q230 479 227 470L219 440Q216 432 207 434Q203 435 192 435Q161 435 138 407T115 320V10Q115 0 105 0H76Z"  />
<glyph unicode="&#x15A;" horiz-adv-x="377" d="M333 187Q333 82 299 37T189 -8Q50 -8 43 163Q43 173 50 174L80 180Q91 183 91 172Q96 98 120 69T190 40Q213 40 230 46T258 68T276 111T282 181Q282 213 278 236T265 275T242 302T207 321L166 337Q132 350 110 365T75 402T57 452T51 519Q51 688 189 688Q323 688 327 531Q327 522 320 520L291 515Q280 512 280 523Q278 583 257 611T190 640Q144 640 123 612T102 521Q102 462 119 434T178 390L219 374Q251 361 272 346T307 309T327 258T333 187ZM177 765Q172 765 171 768T173 775L248 878Q252 883 255 885T265 888H298Q303 888 304 885T302 878L215 775Q206 765 198 765H177Z"  />
<glyph unicode="&#x15B;" horiz-adv-x="335" d="M142 559Q132 559 137 569L208 690Q214 700 224 700H256Q261 700 262 697T261 690L180 569Q175 563 172 561T163 559H142ZM169 -8Q114 -8 82 22T44 111Q42 122 51 123L78 128Q88 130 90 120Q95 74 116 55T169 36Q204 36 223 56T243 123Q243 158 231 178T185 213L143 229Q97 247 75 277T52 357Q52 414 82 449T169 485Q196 485 216 477T251 454T273 421T284 381Q286 370 277 368L253 363Q243 361 241 371Q235 402 218 421T168 441Q134 441 117 419T100 359Q100 330 112 311T159 277L200 261Q253 241 272 209T291 125Q291 63 260 28T169 -8Z"  />
<glyph unicode="&#x15C;" horiz-adv-x="377" d="M333 187Q333 82 299 37T189 -8Q50 -8 43 163Q43 173 50 174L80 180Q91 183 91 172Q96 98 120 69T190 40Q213 40 230 46T258 68T276 111T282 181Q282 213 278 236T265 275T242 302T207 321L166 337Q132 350 110 365T75 402T57 452T51 519Q51 688 189 688Q323 688 327 531Q327 522 320 520L291 515Q280 512 280 523Q278 583 257 611T190 640Q144 640 123 612T102 521Q102 462 119 434T178 390L219 374Q251 361 272 346T307 309T327 258T333 187ZM262 754Q254 754 247 764L190 850H188L131 764Q127 759 124 757T115 754H93Q88 754 87 756T88 764L164 886Q170 895 179 895H199Q208 895 214 886L290 764Q293 759 292 757T285 754H262Z"  />
<glyph unicode="&#x15D;" horiz-adv-x="335" d="M243 559Q235 559 228 569L171 655H169L112 569Q108 564 105 562T96 559H74Q69 559 68 561T69 569L145 691Q151 700 160 700H180Q189 700 195 691L271 569Q274 564 273 562T266 559H243ZM169 -8Q114 -8 82 22T44 111Q42 122 51 123L78 128Q88 130 90 120Q95 74 116 55T169 36Q204 36 223 56T243 123Q243 158 231 178T185 213L143 229Q97 247 75 277T52 357Q52 414 82 449T169 485Q196 485 216 477T251 454T273 421T284 381Q286 370 277 368L253 363Q243 361 241 371Q235 402 218 421T168 441Q134 441 117 419T100 359Q100 330 112 311T159 277L200 261Q253 241 272 209T291 125Q291 63 260 28T169 -8Z"  />
<glyph unicode="&#x15E;" horiz-adv-x="377" d="M175 -7Q49 0 43 163Q43 173 50 174L80 180Q91 183 91 172Q96 98 120 69T190 40Q213 40 230 46T258 68T276 111T282 181Q282 213 278 236T265 275T242 302T207 321L166 337Q132 350 110 365T75 402T57 452T51 519Q51 688 189 688Q323 688 327 531Q327 522 320 520L291 515Q280 512 280 523Q278 583 257 611T190 640Q144 640 123 612T102 521Q102 462 119 434T178 390L219 374Q251 361 272 346T307 309T327 258T333 187Q333 92 306 47T218 -6L175 -138Q172 -148 159 -148H133Q123 -148 126 -138L175 -7Z"  />
<glyph unicode="&#x15F;" horiz-adv-x="335" d="M152 -7Q55 2 44 111Q42 122 51 123L78 128Q88 130 90 120Q95 74 116 55T169 36Q204 36 223 56T243 123Q243 158 231 178T185 213L143 229Q97 247 75 277T52 357Q52 414 82 449T169 485Q196 485 216 477T251 454T273 421T284 381Q286 370 277 368L253 363Q243 361 241 371Q235 402 218 421T168 441Q134 441 117 419T100 359Q100 330 112 311T159 277L200 261Q253 241 272 209T291 125Q291 70 267 36T195 -6L152 -138Q149 -148 136 -148H110Q100 -148 103 -138L152 -7Z"  />
<glyph unicode="&#x160;" horiz-adv-x="377" d="M333 187Q333 82 299 37T189 -8Q50 -8 43 163Q43 173 50 174L80 180Q91 183 91 172Q96 98 120 69T190 40Q213 40 230 46T258 68T276 111T282 181Q282 213 278 236T265 275T242 302T207 321L166 337Q132 350 110 365T75 402T57 452T51 519Q51 688 189 688Q323 688 327 531Q327 522 320 520L291 515Q280 512 280 523Q278 583 257 611T190 640Q144 640 123 612T102 521Q102 462 119 434T178 390L219 374Q251 361 272 346T307 309T327 258T333 187ZM176 753Q166 753 161 762L85 884Q82 889 83 891T90 894H112Q118 894 121 892T128 884L185 798H187L244 884Q251 894 259 894H282Q287 894 288 892T287 884L211 762Q206 753 196 753H176Z"  />
<glyph unicode="&#x161;" horiz-adv-x="335" d="M160 557Q151 557 145 566L69 689Q66 693 67 696T74 699H96Q102 699 105 697T112 689L169 603H171L228 689Q235 699 243 699H266Q271 699 272 696T271 689L195 566Q189 557 180 557H160ZM169 -8Q114 -8 82 22T44 111Q42 122 51 123L78 128Q88 130 90 120Q95 74 116 55T169 36Q204 36 223 56T243 123Q243 158 231 178T185 213L143 229Q97 247 75 277T52 357Q52 414 82 449T169 485Q196 485 216 477T251 454T273 421T284 381Q286 370 277 368L253 363Q243 361 241 371Q235 402 218 421T168 441Q134 441 117 419T100 359Q100 330 112 311T159 277L200 261Q253 241 272 209T291 125Q291 63 260 28T169 -8Z"  />
<glyph unicode="&#x162;" horiz-adv-x="360" d="M162 -192Q153 -192 153 -183V-62Q153 -52 163 -52H197Q207 -52 207 -62V-103Q207 -111 206 -115T202 -126L172 -184Q169 -192 162 -192ZM164 0Q154 0 154 10V625Q154 631 148 631H28Q18 631 18 641V670Q18 680 28 680H332Q342 680 342 670V641Q342 631 332 631H212Q206 631 206 625V10Q206 0 196 0H164Z"  />
<glyph unicode="&#x163;" horiz-adv-x="229" d="M117 -192Q108 -192 108 -183V-62Q108 -52 118 -52H152Q162 -52 162 -62V-103Q162 -111 161 -115T157 -126L127 -184Q124 -192 117 -192ZM166 -3Q120 -3 101 18T81 88V429Q81 435 75 435H46Q36 435 36 445V467Q36 477 46 477H75Q81 477 81 483V620Q81 630 91 630H120Q130 630 130 620V483Q130 477 136 477H184Q194 477 194 467V445Q194 435 184 435H136Q130 435 130 429V88Q130 44 171 44H184Q194 44 194 34V7Q194 -3 184 -3H166Z"  />
<glyph unicode="&#x164;" horiz-adv-x="360" d="M170 753Q160 753 155 762L79 884Q76 889 77 891T84 894H106Q112 894 115 892T122 884L179 798H181L238 884Q245 894 253 894H276Q281 894 282 892T281 884L205 762Q200 753 190 753H170ZM164 0Q154 0 154 10V625Q154 631 148 631H28Q18 631 18 641V670Q18 680 28 680H332Q342 680 342 670V641Q342 631 332 631H212Q206 631 206 625V10Q206 0 196 0H164Z"  />
<glyph unicode="&#x165;" horiz-adv-x="229" d="M172 539Q164 539 164 548V670Q164 680 174 680H206Q216 680 216 670V628Q216 620 215 616T211 605L183 548Q178 539 172 539ZM166 -3Q120 -3 101 18T81 88V429Q81 435 75 435H46Q36 435 36 445V467Q36 477 46 477H75Q81 477 81 483V620Q81 630 91 630H120Q130 630 130 620V483Q130 477 136 477H184Q194 477 194 467V445Q194 435 184 435H136Q130 435 130 429V88Q130 44 171 44H184Q194 44 194 34V7Q194 -3 184 -3H166Z"  />
<glyph unicode="&#x166;" horiz-adv-x="360" d="M164 0Q154 0 154 10V405Q154 411 148 411H73Q63 411 63 421V445Q63 455 73 455H148Q154 455 154 461V625Q154 631 148 631H28Q18 631 18 641V670Q18 680 28 680H332Q342 680 342 670V641Q342 631 332 631H212Q206 631 206 625V461Q206 455 212 455H287Q297 455 297 445V421Q297 411 287 411H212Q206 411 206 405V10Q206 0 196 0H164Z"  />
<glyph unicode="&#x167;" horiz-adv-x="229" d="M166 -3Q120 -3 101 18T81 88V306Q81 312 75 312H52Q42 312 42 322V342Q42 352 52 352H75Q81 352 81 358V429Q81 435 75 435H46Q36 435 36 445V467Q36 477 46 477H75Q81 477 81 483V620Q81 630 91 630H120Q130 630 130 620V483Q130 477 136 477H184Q194 477 194 467V445Q194 435 184 435H136Q130 435 130 429V358Q130 352 136 352H176Q186 352 186 342V322Q186 312 176 312H136Q130 312 130 306V88Q130 44 171 44H184Q194 44 194 34V7Q194 -3 184 -3H166Z"  />
<glyph unicode="&#x168;" horiz-adv-x="428" d="M252 784Q238 784 227 790T207 805Q198 812 191 816T174 821Q162 821 154 814T135 792Q131 788 127 789T123 795V825Q123 833 131 841Q139 852 150 858T175 865Q189 865 200 859T221 845Q230 837 237 833T253 828Q265 828 274 835T293 857Q296 861 300 860T304 854V824Q304 819 303 816T297 808Q288 797 277 791T252 784ZM214 -8Q148 -8 108 33T67 160V670Q67 680 77 680H109Q119 680 119 670V156Q119 96 145 69T214 41Q257 41 283 68T310 156V670Q310 680 320 680H351Q361 680 361 670V160Q361 75 321 34T214 -8Z"  />
<glyph unicode="&#x169;" horiz-adv-x="376" d="M271 0Q261 0 261 10V49H260Q250 26 230 9T171 -8Q61 -8 61 136V467Q61 477 71 477H100Q110 477 110 467V145Q110 92 128 66T186 39Q221 39 241 64T261 145V467Q261 477 271 477H300Q310 477 310 467V10Q310 0 300 0H271ZM225 597Q211 597 200 603T180 617Q171 625 164 629T147 634Q135 634 127 627T108 605Q104 601 100 602T96 608V638Q96 646 104 654Q122 677 148 677Q162 677 173 671T194 657Q203 650 210 646T226 641Q238 641 247 648T266 669Q269 674 273 673T277 667V637Q277 632 276 629T270 621Q261 610 250 604T225 597Z"  />
<glyph unicode="&#x16A;" horiz-adv-x="428" d="M123 801Q113 801 113 811V834Q113 844 123 844H305Q315 844 315 834V811Q315 801 305 801H123ZM214 -8Q148 -8 108 33T67 160V670Q67 680 77 680H109Q119 680 119 670V156Q119 96 145 69T214 41Q257 41 283 68T310 156V670Q310 680 320 680H351Q361 680 361 670V160Q361 75 321 34T214 -8Z"  />
<glyph unicode="&#x16B;" horiz-adv-x="376" d="M271 0Q261 0 261 10V49H260Q250 26 230 9T171 -8Q61 -8 61 136V467Q61 477 71 477H100Q110 477 110 467V145Q110 92 128 66T186 39Q221 39 241 64T261 145V467Q261 477 271 477H300Q310 477 310 467V10Q310 0 300 0H271ZM96 621Q86 621 86 631V654Q86 664 96 664H278Q288 664 288 654V631Q288 621 278 621H96Z"  />
<glyph unicode="&#x16C;" horiz-adv-x="428" d="M214 765Q169 765 144 793T112 867Q112 877 122 877H139Q148 877 150 867Q162 805 214 805Q264 805 278 867Q280 877 289 877H306Q317 877 315 867Q310 821 285 793T214 765ZM214 -8Q148 -8 108 33T67 160V670Q67 680 77 680H109Q119 680 119 670V156Q119 96 145 69T214 41Q257 41 283 68T310 156V670Q310 680 320 680H351Q361 680 361 670V160Q361 75 321 34T214 -8Z"  />
<glyph unicode="&#x16D;" horiz-adv-x="376" d="M271 0Q261 0 261 10V49H260Q250 26 230 9T171 -8Q61 -8 61 136V467Q61 477 71 477H100Q110 477 110 467V145Q110 92 128 66T186 39Q221 39 241 64T261 145V467Q261 477 271 477H300Q310 477 310 467V10Q310 0 300 0H271ZM187 572Q142 572 117 600T85 674Q85 684 95 684H112Q121 684 123 674Q135 612 187 612Q237 612 251 674Q253 684 262 684H279Q290 684 288 674Q283 628 258 600T187 572Z"  />
<glyph unicode="&#x16E;" horiz-adv-x="428" d="M214 -8Q148 -8 108 33T67 160V670Q67 680 77 680H109Q119 680 119 670V156Q119 96 145 69T214 41Q257 41 283 68T310 156V670Q310 680 320 680H351Q361 680 361 670V160Q361 75 321 34T214 -8ZM214 742Q179 742 156 765T133 824Q133 859 156 882T214 905Q249 905 272 882T295 824Q295 789 272 766T214 742ZM214 772Q236 772 249 787T263 824Q263 846 250 860T214 875Q192 875 179 861T165 824Q165 802 178 787T214 772Z"  />
<glyph unicode="&#x16F;" horiz-adv-x="376" d="M187 555Q152 555 129 578T106 636Q106 671 129 694T187 717Q222 717 245 694T268 636Q268 601 245 578T187 555ZM187 585Q209 585 222 599T236 636Q236 658 223 672T187 687Q165 687 152 673T138 636Q138 614 151 600T187 585ZM271 0Q261 0 261 10V49H260Q250 26 230 9T171 -8Q61 -8 61 136V467Q61 477 71 477H100Q110 477 110 467V145Q110 92 128 66T186 39Q221 39 241 64T261 145V467Q261 477 271 477H300Q310 477 310 467V10Q310 0 300 0H271Z"  />
<glyph unicode="&#x170;" horiz-adv-x="428" d="M214 -8Q148 -8 108 33T67 160V670Q67 680 77 680H109Q119 680 119 670V156Q119 96 145 69T214 41Q257 41 283 68T310 156V670Q310 680 320 680H351Q361 680 361 670V160Q361 75 321 34T214 -8ZM255 765Q245 765 250 775L315 878Q321 888 331 888H360Q365 888 366 885T364 878L290 775Q285 768 282 767T273 765H255ZM142 765Q132 765 137 775L202 878Q208 888 218 888H247Q252 888 253 885T251 878L177 775Q172 768 169 767T160 765H142Z"  />
<glyph unicode="&#x171;" horiz-adv-x="376" d="M271 0Q261 0 261 10V49H260Q250 26 230 9T171 -8Q61 -8 61 136V467Q61 477 71 477H100Q110 477 110 467V145Q110 92 128 66T186 39Q221 39 241 64T261 145V467Q261 477 271 477H300Q310 477 310 467V10Q310 0 300 0H271ZM229 559Q219 559 224 569L285 690Q291 700 301 700H329Q334 700 335 697T334 690L264 569Q260 562 256 561T246 559H229ZM116 559Q106 559 111 569L172 690Q178 700 188 700H216Q221 700 222 697T221 690L151 569Q147 562 143 561T133 559H116Z"  />
<glyph unicode="&#x172;" horiz-adv-x="428" d="M217 -171Q191 -171 174 -155T156 -109Q156 -87 165 -65T200 -7Q141 -4 104 37T67 160V670Q67 680 77 680H109Q119 680 119 670V156Q119 96 145 69T214 41Q257 41 283 68T310 156V670Q310 680 320 680H351Q361 680 361 670V160Q361 85 329 44T245 -6Q230 -26 221 -41T207 -67T200 -86T198 -103Q198 -116 205 -123T223 -131Q230 -131 235 -129T245 -124Q254 -119 258 -126L266 -144Q271 -152 262 -157Q254 -163 243 -167T217 -171Z"  />
<glyph unicode="&#x173;" horiz-adv-x="376" d="M258 -171Q232 -171 215 -155T197 -109Q197 -84 213 -58T262 3Q261 5 261 10V49H260Q250 26 230 9T171 -8Q61 -8 61 136V467Q61 477 71 477H100Q110 477 110 467V145Q110 92 128 66T186 39Q221 39 241 64T261 145V467Q261 477 271 477H300Q310 477 310 467V10Q310 5 305 0Q267 -40 253 -63T239 -103Q239 -116 246 -123T264 -131Q271 -131 276 -129T286 -124Q295 -119 299 -126L307 -144Q312 -152 303 -157Q295 -163 284 -167T258 -171Z"  />
<glyph unicode="&#x174;" horiz-adv-x="572" d="M389 0Q381 0 379 10L288 550H286L194 10Q192 0 184 0H154Q146 0 144 10L32 670Q30 680 40 680H73Q82 680 84 670L169 128H171L263 670Q265 680 273 680H299Q307 680 309 670L402 128H405L490 670Q492 680 500 680H533Q542 680 540 670L428 10Q426 0 418 0H389ZM359 754Q351 754 344 764L287 850H285L228 764Q224 759 221 757T212 754H190Q185 754 184 756T185 764L261 886Q267 895 276 895H296Q305 895 311 886L387 764Q390 759 389 757T382 754H359Z"  />
<glyph unicode="&#x175;" horiz-adv-x="509" d="M327 559Q319 559 312 569L255 655H253L196 569Q192 564 189 562T180 559H158Q153 559 152 561T153 569L229 691Q235 700 244 700H264Q273 700 279 691L355 569Q358 564 357 562T350 559H327ZM337 0Q329 0 327 10L255 364H253L182 10Q180 0 172 0H146Q138 0 135 10L37 467Q35 477 45 477H76Q85 477 87 467L158 106H160L233 467Q235 477 243 477H266Q275 477 277 467L349 106H351L423 467Q425 477 433 477H464Q474 477 472 467L374 10Q372 0 363 0H337Z"  />
<glyph unicode="&#x176;" horiz-adv-x="360" d="M164 0Q154 0 154 10V286L23 670Q20 680 29 680H64Q72 680 75 670L180 361H182L285 670Q288 680 296 680H331Q340 680 337 670L206 286V10Q206 0 196 0H164ZM254 754Q246 754 239 764L182 850H180L123 764Q119 759 116 757T107 754H85Q80 754 79 756T80 764L156 886Q162 895 171 895H191Q200 895 206 886L282 764Q285 759 284 757T277 754H254Z"  />
<glyph unicode="&#x177;" horiz-adv-x="339" d="M61 -180Q51 -180 51 -170V-143Q51 -133 61 -133L72 -132Q92 -132 104 -121T124 -77L146 12L33 467Q31 477 41 477H74Q82 477 84 467L170 105H171L257 467Q259 477 267 477H299Q309 477 307 467L171 -73Q163 -105 155 -125T134 -158T107 -175T70 -180H61ZM244 559Q236 559 229 569L172 655H170L113 569Q109 564 106 562T97 559H75Q70 559 69 561T70 569L146 691Q152 700 161 700H181Q190 700 196 691L272 569Q275 564 274 562T267 559H244Z"  />
<glyph unicode="&#x178;" horiz-adv-x="360" d="M164 0Q154 0 154 10V286L23 670Q20 680 29 680H64Q72 680 75 670L180 361H182L285 670Q288 680 296 680H331Q340 680 337 670L206 286V10Q206 0 196 0H164ZM233 787Q223 787 223 797V851Q223 861 233 861H267Q277 861 277 851V797Q277 787 267 787H233ZM95 787Q85 787 85 797V851Q85 861 95 861H129Q139 861 139 851V797Q139 787 129 787H95Z"  />
<glyph unicode="&#x179;" horiz-adv-x="350" d="M44 0Q34 0 34 10V37Q34 42 34 44T37 51L261 630V631H52Q42 631 42 641V670Q42 680 52 680H305Q315 680 315 670V642Q315 634 313 629L90 50V49H306Q316 49 316 39V10Q316 0 306 0H44ZM158 765Q153 765 152 768T154 775L229 878Q233 883 236 885T246 888H279Q284 888 285 885T283 878L196 775Q187 765 179 765H158Z"  />
<glyph unicode="&#x17A;" horiz-adv-x="321" d="M142 559Q132 559 137 569L208 690Q214 700 224 700H256Q261 700 262 697T261 690L180 569Q175 563 172 561T163 559H142ZM48 0Q38 0 38 10V35Q38 40 41 46L227 430V432H58Q48 432 48 442V467Q48 477 58 477H276Q286 477 286 467V446Q286 440 283 434L94 48V46H276Q286 46 286 36V10Q286 0 276 0H48Z"  />
<glyph unicode="&#x17B;" horiz-adv-x="350" d="M160 787Q150 787 150 797V851Q150 861 160 861H200Q210 861 210 851V797Q210 787 200 787H160ZM44 0Q34 0 34 10V37Q34 42 34 44T37 51L261 630V631H52Q42 631 42 641V670Q42 680 52 680H305Q315 680 315 670V642Q315 634 313 629L90 50V49H306Q316 49 316 39V10Q316 0 306 0H44Z"  />
<glyph unicode="&#x17C;" horiz-adv-x="321" d="M48 0Q38 0 38 10V35Q38 40 41 46L227 430V432H58Q48 432 48 442V467Q48 477 58 477H276Q286 477 286 467V446Q286 440 283 434L94 48V46H276Q286 46 286 36V10Q286 0 276 0H48ZM143 606Q133 606 133 616V670Q133 680 143 680H183Q193 680 193 670V616Q193 606 183 606H143Z"  />
<glyph unicode="&#x17D;" horiz-adv-x="350" d="M170 753Q160 753 155 762L79 884Q76 889 77 891T84 894H106Q112 894 115 892T122 884L179 798H181L238 884Q245 894 253 894H276Q281 894 282 892T281 884L205 762Q200 753 190 753H170ZM44 0Q34 0 34 10V37Q34 42 34 44T37 51L261 630V631H52Q42 631 42 641V670Q42 680 52 680H305Q315 680 315 670V642Q315 634 313 629L90 50V49H306Q316 49 316 39V10Q316 0 306 0H44Z"  />
<glyph unicode="&#x17E;" horiz-adv-x="321" d="M153 557Q144 557 138 566L62 689Q59 693 60 696T67 699H89Q95 699 98 697T105 689L162 603H164L221 689Q228 699 236 699H259Q264 699 265 696T264 689L188 566Q182 557 173 557H153ZM48 0Q38 0 38 10V35Q38 40 41 46L227 430V432H58Q48 432 48 442V467Q48 477 58 477H276Q286 477 286 467V446Q286 440 283 434L94 48V46H276Q286 46 286 36V10Q286 0 276 0H48Z"  />
<glyph unicode="&#x192;" horiz-adv-x="371" d="M223 350L171 -37Q161 -112 133 -146T39 -180H25Q15 -180 15 -170V-143Q15 -133 25 -133H35Q78 -133 96 -114T121 -42L174 350H103Q93 350 93 360V383Q93 393 103 393H180L200 537Q210 612 238 646T332 680H346Q356 680 356 670V643Q356 633 346 633H336Q294 633 276 614T250 542L229 393H308Q318 393 318 383V360Q318 350 308 350H223Z"  />
<glyph unicode="&#x1FA;" horiz-adv-x="388" d="M182 777Q177 777 176 780T178 787L261 878Q270 888 281 888H312Q317 888 318 885T316 878L221 787Q212 777 203 777H182ZM322 0Q313 0 311 10L277 173H111L77 10Q75 0 67 0H35Q30 0 27 2T25 10L154 598Q135 609 124 627T113 670Q113 705 136 728T194 751Q229 751 252 728T275 670Q275 647 265 629T237 600V599L363 10Q365 0 354 0H322ZM194 619Q216 619 230 633T244 670Q244 692 230 706T194 721Q172 721 159 707T145 670Q145 648 158 634T194 619ZM121 220H267L196 565H194L121 220Z"  />
<glyph unicode="&#x1FB;" horiz-adv-x="359" d="M166 777Q161 777 160 780T162 787L244 878Q249 883 253 885T265 888H295Q300 888 301 885T299 878L205 787Q195 777 186 777H166ZM260 0Q250 0 250 10V56H249Q239 25 214 9T157 -8Q135 -8 115 -1T80 22T56 65T47 130Q47 207 83 239T182 272H244Q250 272 250 278V330Q250 388 231 413T174 438Q145 438 126 429T90 403Q83 395 76 402L62 423Q58 430 64 438Q81 458 109 471T178 485Q239 485 268 451T298 334V10Q298 0 288 0H260ZM167 36Q202 36 226 66T250 146V222Q250 228 244 228H187Q137 228 117 205T96 131Q96 81 115 59T167 36ZM180 555Q145 555 122 578T99 636Q99 671 122 694T180 717Q215 717 238 694T261 636Q261 601 238 578T180 555ZM180 585Q202 585 215 599T229 636Q229 658 216 672T180 687Q158 687 145 673T131 636Q131 614 144 600T180 585Z"  />
<glyph unicode="&#x1FC;" horiz-adv-x="596" d="M331 765Q326 765 325 768T327 775L402 878Q406 883 409 885T419 888H452Q457 888 458 885T456 878L369 775Q360 765 352 765H331ZM323 0Q313 0 313 10V167Q313 173 307 173H140L77 10Q73 0 64 0H32Q22 0 25 10L280 670Q283 680 293 680H554Q564 680 564 670V641Q564 631 554 631H371Q365 631 365 625V375Q365 369 371 369H531Q541 369 541 359V330Q541 320 531 320H371Q365 320 365 314V55Q365 49 371 49H554Q564 49 564 39V10Q564 0 554 0H323ZM158 220H307Q313 220 313 226V616H311L158 220Z"  />
<glyph unicode="&#x1FD;" horiz-adv-x="550" d="M261 559Q251 559 256 569L327 690Q333 700 343 700H375Q380 700 381 697T380 690L299 569Q294 563 291 561T282 559H261ZM373 -8Q335 -8 307 9T266 61H265Q230 -8 158 -8Q136 -8 116 -1T81 23T56 66T47 130Q47 207 83 239T182 272H244Q250 272 250 278V330Q250 388 231 413T174 438Q145 438 126 429T90 403Q83 395 76 402L62 423Q58 430 64 438Q81 458 109 471T178 485Q250 485 276 432H277Q291 458 317 471T375 485Q464 485 490 404Q493 396 495 386T498 359T500 312T501 238Q501 228 491 228H304Q298 228 298 222Q298 185 298 162T300 125T303 102T307 88Q315 63 332 51T374 39Q405 39 423 54T451 105Q454 115 463 112L490 106Q499 104 496 94Q485 43 454 18T373 -8ZM446 272Q452 272 452 278Q452 307 452 326T450 357T447 377T443 389Q426 439 375 439Q324 439 307 389Q305 384 304 377T301 358T299 326T298 278Q298 272 304 272H446ZM167 36Q202 36 226 66T250 146V222Q250 228 244 228H187Q137 228 117 205T96 131Q96 82 115 59T167 36Z"  />
<glyph unicode="&#x1FE;" horiz-adv-x="414" d="M66 -30Q56 -30 59 -20L85 52Q76 67 70 85Q66 96 64 109T60 149T58 220T57 340Q57 415 57 460T59 531T63 570T70 595Q100 688 207 688Q267 688 305 656L321 700Q324 710 333 710H348Q353 710 355 708T355 700L328 629Q333 621 337 613T344 595Q348 584 350 571T354 531T356 460T357 340Q357 265 357 220T355 149T351 110T344 85Q314 -8 207 -8Q146 -8 109 23L93 -20Q90 -30 81 -30H66ZM110 340Q110 290 110 254T110 194T112 153T114 127L283 603Q259 639 207 639Q140 639 120 579Q117 570 116 559T113 524T111 457T110 340ZM207 41Q274 41 294 101Q297 110 299 121T302 156T304 223T305 340Q305 390 305 426T304 486T302 526T300 552L131 77Q156 41 207 41ZM191 765Q186 765 185 768T187 775L262 878Q266 883 269 885T279 888H312Q317 888 318 885T316 878L229 775Q220 765 212 765H191Z"  />
<glyph unicode="&#x1FF;" horiz-adv-x="362" d="M62 -29Q57 -29 55 -27T55 -19L80 39Q75 47 71 55T63 74Q60 84 58 94T55 122T54 166T53 239Q53 283 53 310T55 355T58 382T63 403Q76 444 106 464T181 485Q228 485 260 461L276 496Q280 506 288 506H300Q311 506 308 496L282 437Q294 420 299 403Q302 393 304 383T307 355T308 311T309 239Q309 194 309 167T307 122T304 95T299 74Q286 33 256 13T181 -8Q133 -8 102 16L87 -19Q83 -29 74 -29H62ZM102 239Q102 204 102 181T102 141T103 116T106 100L238 413Q219 438 181 438Q126 438 110 388Q107 380 106 372T104 348T103 307T102 239ZM260 239Q260 273 260 296T259 335T257 360T255 377L123 63Q143 39 181 39Q236 39 252 89Q255 97 256 105T258 129T259 171T260 239ZM163 559Q153 559 158 569L229 690Q235 700 245 700H277Q282 700 283 697T282 690L201 569Q196 563 193 561T184 559H163Z"  />
<glyph unicode="&#x218;" horiz-adv-x="377" d="M171 -192Q162 -192 162 -183V-62Q162 -52 172 -52H206Q216 -52 216 -62V-103Q216 -111 215 -115T211 -126L181 -184Q178 -192 171 -192ZM333 187Q333 82 299 37T189 -8Q50 -8 43 163Q43 173 50 174L80 180Q91 183 91 172Q96 98 120 69T190 40Q213 40 230 46T258 68T276 111T282 181Q282 213 278 236T265 275T242 302T207 321L166 337Q132 350 110 365T75 402T57 452T51 519Q51 688 189 688Q323 688 327 531Q327 522 320 520L291 515Q280 512 280 523Q278 583 257 611T190 640Q144 640 123 612T102 521Q102 462 119 434T178 390L219 374Q251 361 272 346T307 309T327 258T333 187Z"  />
<glyph unicode="&#x219;" horiz-adv-x="335" d="M151 -192Q142 -192 142 -183V-62Q142 -52 152 -52H186Q196 -52 196 -62V-103Q196 -111 195 -115T191 -126L161 -184Q158 -192 151 -192ZM169 -8Q114 -8 82 22T44 111Q42 122 51 123L78 128Q88 130 90 120Q95 74 116 55T169 36Q204 36 223 56T243 123Q243 158 231 178T185 213L143 229Q97 247 75 277T52 357Q52 414 82 449T169 485Q196 485 216 477T251 454T273 421T284 381Q286 370 277 368L253 363Q243 361 241 371Q235 402 218 421T168 441Q134 441 117 419T100 359Q100 330 112 311T159 277L200 261Q253 241 272 209T291 125Q291 63 260 28T169 -8Z"  />
<glyph unicode="&#x21A;" horiz-adv-x="360" d="M162 -192Q153 -192 153 -183V-62Q153 -52 163 -52H197Q207 -52 207 -62V-103Q207 -111 206 -115T202 -126L172 -184Q169 -192 162 -192ZM164 0Q154 0 154 10V625Q154 631 148 631H28Q18 631 18 641V670Q18 680 28 680H332Q342 680 342 670V641Q342 631 332 631H212Q206 631 206 625V10Q206 0 196 0H164Z"  />
<glyph unicode="&#x21B;" horiz-adv-x="229" d="M117 -192Q108 -192 108 -183V-62Q108 -52 118 -52H152Q162 -52 162 -62V-103Q162 -111 161 -115T157 -126L127 -184Q124 -192 117 -192ZM166 -3Q120 -3 101 18T81 88V429Q81 435 75 435H46Q36 435 36 445V467Q36 477 46 477H75Q81 477 81 483V620Q81 630 91 630H120Q130 630 130 620V483Q130 477 136 477H184Q194 477 194 467V445Q194 435 184 435H136Q130 435 130 429V88Q130 44 171 44H184Q194 44 194 34V7Q194 -3 184 -3H166Z"  />
<glyph unicode="&#x237;" horiz-adv-x="181" d="M22 -180Q12 -180 12 -170V-143Q12 -133 22 -133H29Q49 -132 57 -122T66 -89V467Q66 477 76 477H105Q115 477 115 467V-88Q115 -180 29 -180H22Z"  />
<glyph unicode="&#x2C6;" horiz-adv-x="362" d="M254 559Q246 559 239 569L182 655H180L123 569Q119 564 116 562T107 559H85Q80 559 79 561T80 569L156 691Q162 700 171 700H191Q200 700 206 691L282 569Q285 564 284 562T277 559H254Z"  />
<glyph unicode="&#x2C7;" horiz-adv-x="362" d="M171 557Q162 557 156 566L80 689Q77 693 78 696T85 699H107Q113 699 116 697T123 689L180 603H182L239 689Q246 699 254 699H277Q282 699 283 696T282 689L206 566Q200 557 191 557H171Z"  />
<glyph unicode="&#x2C9;" horiz-adv-x="362" d="M90 801Q80 801 80 811V834Q80 844 90 844H272Q282 844 282 834V811Q282 801 272 801H90Z"  />
<glyph unicode="&#x2D8;" horiz-adv-x="362" d="M181 572Q136 572 111 600T79 674Q79 684 89 684H106Q115 684 117 674Q129 612 181 612Q231 612 245 674Q247 684 256 684H273Q284 684 282 674Q277 628 252 600T181 572Z"  />
<glyph unicode="&#x2D9;" horiz-adv-x="362" d="M161 606Q151 606 151 616V670Q151 680 161 680H201Q211 680 211 670V616Q211 606 201 606H161Z"  />
<glyph unicode="&#x2DA;" horiz-adv-x="362" d="M181 555Q146 555 123 578T100 636Q100 671 123 694T181 717Q216 717 239 694T262 636Q262 601 239 578T181 555ZM181 585Q203 585 216 599T230 636Q230 658 217 672T181 687Q159 687 146 673T132 636Q132 614 145 600T181 585Z"  />
<glyph unicode="&#x2DB;" horiz-adv-x="362" d="M188 -171Q162 -171 145 -155T127 -109Q127 -84 141 -60T188 0Q198 10 205 10H234Q239 10 239 7T236 0Q199 -38 184 -62T169 -103Q169 -116 176 -123T194 -131Q201 -131 206 -129T217 -124Q225 -119 229 -126L237 -144Q242 -152 233 -157Q225 -163 214 -167T188 -171Z"  />
<glyph unicode="&#x2DC;" horiz-adv-x="362" d="M219 597Q205 597 194 603T174 617Q165 625 158 629T141 634Q129 634 121 627T102 605Q98 601 94 602T90 608V638Q90 646 98 654Q116 677 142 677Q156 677 167 671T188 657Q197 650 204 646T220 641Q232 641 241 648T260 669Q263 674 267 673T271 667V637Q271 632 270 629T264 621Q255 610 244 604T219 597Z"  />
<glyph unicode="&#x2DD;" horiz-adv-x="362" d="M218 559Q208 559 213 569L274 690Q280 700 290 700H318Q323 700 324 697T323 690L253 569Q249 562 245 561T235 559H218ZM105 559Q95 559 100 569L161 690Q167 700 177 700H205Q210 700 211 697T210 690L140 569Q136 562 132 561T122 559H105Z"  />
<glyph unicode="&#x394;" horiz-adv-x="388" d="M35 0Q30 0 27 2T25 10L168 670Q171 680 179 680H212Q221 680 223 670L363 10Q365 0 354 0H35ZM298 49Q304 49 303 55L196 567H194L86 55Q84 49 90 49H298Z"  />
<glyph unicode="&#x3A9;" horiz-adv-x="414" d="M247 0Q237 0 237 10V38Q237 45 247 51Q267 64 279 78T297 122T305 202T307 340Q307 413 307 456T305 523T301 558T296 578Q286 609 263 624T207 639Q175 639 152 624T118 578Q115 569 114 559T111 524T109 456T108 340Q108 253 110 203T118 123T136 79T168 51Q178 45 178 38V10Q178 0 168 0H63Q53 0 53 10V39Q53 49 63 49H108V50Q93 63 83 78T67 124T59 205T56 340Q56 415 56 459T58 530T62 570T69 594Q83 641 119 664T207 688Q260 688 295 665T346 594Q350 583 352 570T356 531T358 460T359 340Q359 256 357 205T348 124T332 79T307 50V49H351Q361 49 361 39V10Q361 0 351 0H247Z"  />
<glyph unicode="&#x3BC;" horiz-adv-x="381" d="M276 0Q266 0 266 10V49H265Q257 25 236 9T180 -8Q159 -8 141 -1T115 24V-170Q115 -180 105 -180H76Q66 -180 66 -170V467Q66 477 76 477H105Q115 477 115 467V144Q115 91 132 65T190 38Q225 38 245 63T266 144V467Q266 477 276 477H305Q315 477 315 467V10Q315 0 305 0H276Z"  />
<glyph unicode="&#x3C0;" horiz-adv-x="381" d="M339 -6Q301 -6 285 13T268 74V424Q268 430 262 430H125Q119 430 119 424V10Q119 0 109 0H79Q69 0 69 10V424Q69 430 62 430H31Q21 430 21 440V467Q21 477 31 477H355Q365 477 365 467V440Q365 430 355 430H323Q317 430 317 424V72Q317 54 323 48T341 41H345Q355 41 355 31V4Q355 -6 345 -6H339Z"  />
<glyph unicode="&#x1E80;" horiz-adv-x="572" d="M275 765Q266 765 257 775L170 878Q167 882 168 885T175 888H208Q214 888 217 886T224 878L300 775Q303 771 302 768T295 765H275ZM389 0Q381 0 379 10L288 550H286L194 10Q192 0 184 0H154Q146 0 144 10L32 670Q30 680 40 680H73Q82 680 84 670L169 128H171L263 670Q265 680 273 680H299Q307 680 309 670L402 128H405L490 670Q492 680 500 680H533Q542 680 540 670L428 10Q426 0 418 0H389Z"  />
<glyph unicode="&#x1E81;" horiz-adv-x="509" d="M337 0Q329 0 327 10L255 364H253L182 10Q180 0 172 0H146Q138 0 135 10L37 467Q35 477 45 477H76Q85 477 87 467L158 106H160L233 467Q235 477 243 477H266Q275 477 277 467L349 106H351L423 467Q425 477 433 477H464Q474 477 472 467L374 10Q372 0 363 0H337ZM248 559Q238 559 231 569L149 690Q147 694 148 697T154 700H187Q197 700 203 690L274 569Q279 559 268 559H248Z"  />
<glyph unicode="&#x1E82;" horiz-adv-x="572" d="M277 765Q272 765 271 768T273 775L348 878Q352 883 355 885T365 888H398Q403 888 404 885T402 878L315 775Q306 765 298 765H277ZM389 0Q381 0 379 10L288 550H286L194 10Q192 0 184 0H154Q146 0 144 10L32 670Q30 680 40 680H73Q82 680 84 670L169 128H171L263 670Q265 680 273 680H299Q307 680 309 670L402 128H405L490 670Q492 680 500 680H533Q542 680 540 670L428 10Q426 0 418 0H389Z"  />
<glyph unicode="&#x1E83;" horiz-adv-x="509" d="M246 559Q236 559 241 569L312 690Q318 700 328 700H360Q365 700 366 697T365 690L284 569Q279 563 276 561T267 559H246ZM337 0Q329 0 327 10L255 364H253L182 10Q180 0 172 0H146Q138 0 135 10L37 467Q35 477 45 477H76Q85 477 87 467L158 106H160L233 467Q235 477 243 477H266Q275 477 277 467L349 106H351L423 467Q425 477 433 477H464Q474 477 472 467L374 10Q372 0 363 0H337Z"  />
<glyph unicode="&#x1E84;" horiz-adv-x="572" d="M338 787Q328 787 328 797V851Q328 861 338 861H372Q382 861 382 851V797Q382 787 372 787H338ZM200 787Q190 787 190 797V851Q190 861 200 861H234Q244 861 244 851V797Q244 787 234 787H200ZM389 0Q381 0 379 10L288 550H286L194 10Q192 0 184 0H154Q146 0 144 10L32 670Q30 680 40 680H73Q82 680 84 670L169 128H171L263 670Q265 680 273 680H299Q307 680 309 670L402 128H405L490 670Q492 680 500 680H533Q542 680 540 670L428 10Q426 0 418 0H389Z"  />
<glyph unicode="&#x1E85;" horiz-adv-x="509" d="M306 606Q296 606 296 616V670Q296 680 306 680H340Q350 680 350 670V616Q350 606 340 606H306ZM168 606Q158 606 158 616V670Q158 680 168 680H202Q212 680 212 670V616Q212 606 202 606H168ZM337 0Q329 0 327 10L255 364H253L182 10Q180 0 172 0H146Q138 0 135 10L37 467Q35 477 45 477H76Q85 477 87 467L158 106H160L233 467Q235 477 243 477H266Q275 477 277 467L349 106H351L423 467Q425 477 433 477H464Q474 477 472 467L374 10Q372 0 363 0H337Z"  />
<glyph unicode="&#x1EF2;" horiz-adv-x="360" d="M164 0Q154 0 154 10V286L23 670Q20 680 29 680H64Q72 680 75 670L180 361H182L285 670Q288 680 296 680H331Q340 680 337 670L206 286V10Q206 0 196 0H164ZM180 765Q171 765 162 775L75 878Q72 882 73 885T80 888H113Q119 888 122 886T129 878L205 775Q208 771 207 768T200 765H180Z"  />
<glyph unicode="&#x1EF3;" horiz-adv-x="339" d="M61 -180Q51 -180 51 -170V-143Q51 -133 61 -133L72 -132Q92 -132 104 -121T124 -77L146 12L33 467Q31 477 41 477H74Q82 477 84 467L170 105H171L257 467Q259 477 267 477H299Q309 477 307 467L171 -73Q163 -105 155 -125T134 -158T107 -175T70 -180H61ZM177 559Q167 559 160 569L78 690Q76 694 77 697T83 700H116Q126 700 132 690L203 569Q208 559 197 559H177Z"  />
<glyph unicode="&#x2013;" horiz-adv-x="374" d="M29 245Q19 245 19 255V278Q19 288 29 288H345Q355 288 355 278V255Q355 245 345 245H29Z"  />
<glyph unicode="&#x2014;" horiz-adv-x="563" d="M29 245Q19 245 19 255V278Q19 288 29 288H534Q544 288 544 278V255Q544 245 534 245H29Z"  />
<glyph unicode="&#x2018;" horiz-adv-x="141" d="M52 529Q42 529 42 539V591Q42 599 43 603T48 614L80 673Q83 681 90 681Q99 681 99 672V539Q99 529 89 529H52Z"  />
<glyph unicode="&#x2019;" horiz-adv-x="139" d="M51 522Q42 522 42 531V670Q42 680 52 680H87Q97 680 97 670V609Q97 596 92 586L61 531Q58 522 51 522Z"  />
<glyph unicode="&#x201A;" horiz-adv-x="139" d="M51 -84Q42 -84 42 -75V64Q42 74 52 74H87Q97 74 97 64V4Q97 -4 96 -8T92 -19L61 -76Q58 -84 51 -84Z"  />
<glyph unicode="&#x201C;" horiz-adv-x="243" d="M156 523Q146 523 146 533V594Q146 602 147 606T151 617L182 672Q186 680 193 680Q201 680 201 671V533Q201 523 191 523H156ZM52 523Q42 523 42 533V594Q42 602 43 606T48 617L78 672Q82 680 89 680Q97 680 97 671V533Q97 523 87 523H52Z"  />
<glyph unicode="&#x201D;" horiz-adv-x="243" d="M155 522Q146 522 146 531V670Q146 680 156 680H191Q201 680 201 670V609Q201 596 196 586L165 531Q162 522 155 522ZM51 522Q42 522 42 531V670Q42 680 52 680H87Q97 680 97 670V609Q97 596 92 586L61 531Q58 522 51 522Z"  />
<glyph unicode="&#x201E;" horiz-adv-x="243" d="M155 -87Q146 -87 146 -78V61Q146 71 156 71H191Q201 71 201 61V-1Q201 -9 200 -13T196 -24L165 -79Q162 -87 155 -87ZM51 -87Q42 -87 42 -78V61Q42 71 52 71H87Q97 71 97 61V-1Q97 -9 96 -13T92 -24L61 -79Q58 -87 51 -87Z"  />
<glyph unicode="&#x2020;" horiz-adv-x="431" d="M202 -180Q192 -180 192 -170V376Q192 382 186 382H73Q63 382 63 392V418Q63 428 73 428H186Q192 428 192 434V670Q192 680 202 680H230Q240 680 240 670V434Q240 428 246 428H359Q369 428 369 418V392Q369 382 359 382H246Q240 382 240 376V-170Q240 -180 230 -180H202Z"  />
<glyph unicode="&#x2021;" horiz-adv-x="431" d="M202 -180Q192 -180 192 -170V39Q192 45 186 45H73Q63 45 63 55V81Q63 91 73 91H186Q192 91 192 97V405Q192 411 186 411H73Q63 411 63 421V447Q63 457 73 457H186Q192 457 192 463V670Q192 680 202 680H230Q240 680 240 670V463Q240 457 246 457H359Q369 457 369 447V421Q369 411 359 411H246Q240 411 240 405V97Q240 91 246 91H359Q369 91 369 81V55Q369 45 359 45H246Q240 45 240 39V-170Q240 -180 230 -180H202Z"  />
<glyph unicode="&#x2022;" horiz-adv-x="388" d="M194 207Q151 207 123 236T94 308Q94 352 122 380T194 409Q237 409 265 381T294 308Q294 265 266 236T194 207Z"  />
<glyph unicode="&#x2026;" horiz-adv-x="513" d="M405 0Q395 0 395 10V75Q395 85 405 85H450Q460 85 460 75V10Q460 0 450 0H405ZM234 0Q224 0 224 10V75Q224 85 234 85H279Q289 85 289 75V10Q289 0 279 0H234ZM63 0Q53 0 53 10V75Q53 85 63 85H108Q118 85 118 75V10Q118 0 108 0H63Z"  />
<glyph unicode="&#x2030;" horiz-adv-x="853" d="M178 -8Q168 -8 171 2L409 678Q413 688 422 688H443Q453 688 450 678L212 2Q208 -8 199 -8H178ZM146 331Q115 331 95 345T67 385Q65 391 64 398T61 417T60 451T60 508Q60 544 60 565T61 599T63 619T67 632Q75 657 95 671T146 686Q176 686 196 672T225 632Q227 626 228 619T230 599T231 565T231 508Q231 473 231 452T230 418T228 398T225 385Q217 360 197 346T146 331ZM146 367Q177 367 187 396Q188 399 189 404T190 421T191 453T192 508Q192 542 192 563T191 596T189 613T187 621Q178 649 146 649Q113 649 105 621Q104 618 103 613T102 596T101 563T100 508Q100 474 100 454T101 421T103 404T105 396Q113 367 146 367ZM708 -6Q677 -6 657 8T629 48Q627 54 626 61T623 80T622 114T622 172Q622 207 622 228T623 262T625 282T629 295Q637 320 657 334T708 349Q738 349 758 335T787 295Q789 289 790 282T792 263T793 229T793 172Q793 136 793 115T792 81T790 61T787 48Q779 23 759 9T708 -6ZM475 -6Q444 -6 424 8T396 48Q394 54 393 61T391 80T390 114T390 172Q390 207 390 228T391 262T393 282T396 295Q404 320 424 334T475 349Q506 349 526 335T554 295Q556 289 557 282T559 263T560 229T560 172Q560 136 560 115T559 81T557 61T554 48Q546 23 526 9T475 -6ZM708 31Q739 31 749 59Q750 62 751 67T752 84T753 116T753 172Q753 206 753 226T753 259T751 276T749 284Q739 313 708 313Q676 313 666 284Q665 281 665 276T664 259T663 227T662 172Q662 137 662 117T663 84T664 67T666 59Q676 31 708 31ZM475 31Q506 31 516 59Q517 62 518 67T519 84T520 116T521 172Q521 206 521 226T520 259T518 276T516 284Q506 313 475 313Q444 313 434 284Q433 281 432 276T431 259T430 227T429 172Q429 137 429 117T430 84T432 67T434 59Q444 31 475 31Z"  />
<glyph unicode="&#x2039;" horiz-adv-x="256" d="M41 257Q34 264 41 271L184 423Q187 426 190 425T194 419V382Q194 377 193 374T186 365L96 268Q92 264 96 260L186 163Q191 158 192 155T194 146V109Q194 104 191 103T184 105L41 257Z"  />
<glyph unicode="&#x203A;" horiz-adv-x="256" d="M71 105Q68 102 65 103T61 109V146Q61 154 70 163L160 260Q164 264 160 268L70 365Q61 374 61 382V419Q61 424 64 425T71 423L214 271Q221 264 214 257L71 105Z"  />
<glyph unicode="&#x2044;" horiz-adv-x="137" d="M-64 -8Q-74 -8 -71 2L166 678Q170 688 179 688H201Q211 688 208 678L-30 2Q-34 -8 -43 -8H-64Z"  />
<glyph unicode="&#x2070;" horiz-adv-x="258" d="M129 423Q96 423 75 438T44 479Q42 484 41 491T39 515T38 559T37 633Q37 679 37 707T39 751T41 774T44 787Q53 813 74 828T129 843Q162 843 183 828T213 787Q215 782 216 775T218 751T219 707T220 633Q220 587 220 559T219 515T217 492T213 479Q204 453 183 438T129 423ZM129 462Q164 462 174 493Q175 497 176 503T177 523T178 563T178 633Q178 676 178 702T178 742T176 763T174 773Q164 804 129 804Q93 804 84 773Q82 769 82 763T80 743T79 702T79 633Q79 589 79 564T80 524T81 503T84 493Q93 462 129 462Z"  />
<glyph unicode="&#x2074;" horiz-adv-x="258" d="M161 430Q151 430 151 440V497Q151 503 145 503H30Q20 503 20 513V533Q20 540 23 549L112 826Q115 836 123 836H147Q157 836 154 826L64 543V542H145Q151 542 151 548V653Q151 663 161 663H181Q191 663 191 653V548Q191 542 197 542H229Q239 542 239 532V513Q239 503 229 503H197Q191 503 191 497V440Q191 430 181 430H161Z"  />
<glyph unicode="&#x2075;" horiz-adv-x="258" d="M129 423Q96 423 74 438T43 480Q38 498 38 518Q38 528 47 530L68 533Q79 535 79 523Q79 511 79 505T82 493Q93 462 128 462Q146 462 157 470T173 492Q175 498 176 510T178 558Q178 594 177 606T173 624Q163 653 128 653Q112 653 103 648T87 636Q81 626 71 626H52Q42 626 42 636V826Q42 836 52 836H208Q218 836 218 826V807Q218 797 208 797H88Q82 797 82 791V673H83Q91 681 104 686T134 692Q196 692 214 639Q217 630 218 614T220 558Q220 520 219 505T214 479Q195 423 129 423Z"  />
<glyph unicode="&#x2076;" horiz-adv-x="258" d="M129 423Q96 423 74 438T42 480Q39 490 38 502T37 546Q37 568 38 583T41 612T47 636T58 663L130 826Q134 836 143 836H167Q178 836 174 826L102 662H103Q108 664 116 666T134 668Q197 668 215 613Q218 603 219 591T220 546Q220 515 219 503T215 480Q206 453 184 438T129 423ZM129 462Q147 462 158 470T175 493Q177 499 177 508T178 546Q178 573 178 583T175 599Q170 613 159 621T129 630Q111 630 100 622T83 599Q81 593 80 583T79 546Q79 518 80 509T83 493Q88 479 99 471T129 462Z"  />
<glyph unicode="&#x2077;" horiz-adv-x="258" d="M76 430Q66 430 69 440L185 795V797H87Q81 797 81 791V748Q81 738 71 738H50Q40 738 40 748V826Q40 836 50 836H219Q229 836 229 826V806Q229 799 226 790L113 439Q110 430 101 430H76Z"  />
<glyph unicode="&#x2078;" horiz-adv-x="258" d="M129 423Q96 423 74 438T42 480Q39 490 38 502T37 543Q37 571 38 582T42 602Q51 628 75 643V644Q51 657 42 685Q39 693 38 703T37 733Q37 754 38 765T42 786Q51 813 73 828T129 843Q161 843 183 828T215 786Q218 776 219 765T220 733Q220 714 219 704T215 685Q207 657 182 644V643Q208 629 215 602Q218 593 219 582T220 543Q220 514 219 502T215 480Q206 453 184 438T129 423ZM129 662Q147 662 158 670T175 693Q177 698 177 706T178 733Q178 751 178 759T175 773Q170 787 159 795T129 804Q111 804 100 796T83 773Q81 767 80 759T79 733Q79 715 80 707T83 693Q88 679 99 671T129 662ZM129 462Q147 462 158 470T175 493Q177 499 177 508T178 543Q178 568 178 577T175 593Q170 606 159 614T129 623Q111 623 100 615T83 593Q81 587 80 578T79 543Q79 517 80 508T83 493Q88 479 99 471T129 462Z"  />
<glyph unicode="&#x2079;" horiz-adv-x="258" d="M91 430Q80 430 84 440L155 604L154 605Q145 598 124 598Q60 598 43 653Q39 663 38 676T37 720Q37 751 38 763T42 786Q51 813 73 828T129 843Q161 843 183 828T215 786Q218 776 219 764T220 720Q220 697 219 682T216 654T210 630T199 603L128 440Q124 430 114 430H91ZM129 636Q147 636 158 644T175 667Q177 673 177 683T178 720Q178 748 178 757T175 773Q170 787 159 795T129 804Q111 804 100 796T83 773Q81 767 80 758T79 720Q79 693 80 683T83 667Q88 653 99 645T129 636Z"  />
<glyph unicode="&#x2080;" horiz-adv-x="258" d="M129 -162Q96 -162 75 -147T44 -106Q42 -101 41 -94T39 -70T38 -26T37 48Q37 94 37 122T39 166T41 189T44 202Q53 228 74 243T129 258Q162 258 183 243T213 202Q215 197 216 190T218 166T219 122T220 48Q220 2 220 -26T219 -70T217 -93T213 -106Q204 -132 183 -147T129 -162ZM129 -123Q164 -123 174 -92Q175 -88 176 -82T177 -62T178 -22T178 48Q178 91 178 117T178 157T176 178T174 188Q164 219 129 219Q93 219 84 188Q82 184 82 178T80 158T79 117T79 48Q79 4 79 -21T80 -61T81 -82T84 -92Q93 -123 129 -123Z"  />
<glyph unicode="&#x2081;" horiz-adv-x="258" d="M138 -155Q128 -155 128 -145V201H127L72 163Q61 156 61 167V194Q61 202 68 206L123 245Q130 251 138 251H160Q170 251 170 241V-145Q170 -155 160 -155H138Z"  />
<glyph unicode="&#x2082;" horiz-adv-x="258" d="M49 -155Q39 -155 39 -145V-124Q39 -116 43 -108L157 82Q166 97 172 113T178 150Q178 167 177 175T173 189Q168 203 158 211T128 219Q109 219 99 211T83 189Q81 183 80 175T79 148Q79 137 68 139L47 141Q38 142 38 153Q38 170 39 181T44 201Q62 258 129 258Q196 258 214 201Q217 192 218 181T220 150Q220 122 212 100T189 54L85 -115V-116H210Q220 -116 220 -126V-145Q220 -155 210 -155H49Z"  />
<glyph unicode="&#x2083;" horiz-adv-x="258" d="M128 -162Q61 -162 44 -106Q38 -87 38 -63Q38 -53 47 -51L68 -48Q78 -47 78 -58Q78 -72 79 -79T83 -93Q88 -107 98 -115T128 -123Q147 -123 157 -115T173 -93Q175 -87 176 -78T178 -42Q178 -14 178 -5T175 9Q165 37 128 37H120Q110 37 110 47V66Q110 76 120 76H128Q165 76 174 103Q176 109 177 117T178 148Q178 166 177 174T173 189Q168 203 158 211T128 219Q109 219 99 211T83 189Q81 183 80 176T78 154Q78 143 68 144L47 147Q38 148 38 159Q38 182 44 202Q61 258 128 258Q196 258 213 202Q216 192 217 181T219 148Q219 124 218 113T215 94Q207 69 181 58V57Q207 45 214 20Q217 12 218 0T219 -42Q219 -71 218 -83T213 -106Q196 -162 128 -162Z"  />
<glyph unicode="&#x2084;" horiz-adv-x="258" d="M161 -155Q151 -155 151 -145V-88Q151 -82 145 -82H30Q20 -82 20 -72V-52Q20 -45 23 -36L112 241Q115 251 123 251H147Q157 251 154 241L64 -42V-43H145Q151 -43 151 -37V68Q151 78 161 78H181Q191 78 191 68V-37Q191 -43 197 -43H229Q239 -43 239 -53V-72Q239 -82 229 -82H197Q191 -82 191 -88V-145Q191 -155 181 -155H161Z"  />
<glyph unicode="&#x2085;" horiz-adv-x="258" d="M129 -162Q96 -162 74 -147T43 -105Q38 -87 38 -67Q38 -57 47 -55L68 -52Q79 -50 79 -62Q79 -74 79 -80T82 -92Q93 -123 128 -123Q146 -123 157 -115T173 -93Q175 -87 176 -75T178 -27Q178 9 177 21T173 39Q163 68 128 68Q112 68 103 63T87 51Q81 41 71 41H52Q42 41 42 51V241Q42 251 52 251H208Q218 251 218 241V222Q218 212 208 212H88Q82 212 82 206V88H83Q91 96 104 101T134 107Q196 107 214 54Q217 45 218 29T220 -27Q220 -65 219 -80T214 -106Q195 -162 129 -162Z"  />
<glyph unicode="&#x2086;" horiz-adv-x="258" d="M129 -162Q96 -162 74 -147T42 -105Q39 -95 38 -83T37 -39Q37 -17 38 -2T41 27T47 51T58 78L130 241Q134 251 143 251H167Q178 251 174 241L102 77H103Q108 79 116 81T134 83Q197 83 215 28Q218 18 219 6T220 -39Q220 -70 219 -82T215 -105Q206 -132 184 -147T129 -162ZM129 -123Q147 -123 158 -115T175 -92Q177 -86 177 -77T178 -39Q178 -12 178 -2T175 14Q170 28 159 36T129 45Q111 45 100 37T83 14Q81 8 80 -2T79 -39Q79 -67 80 -76T83 -92Q88 -106 99 -114T129 -123Z"  />
<glyph unicode="&#x2087;" horiz-adv-x="258" d="M76 -155Q66 -155 69 -145L185 210V212H87Q81 212 81 206V163Q81 153 71 153H50Q40 153 40 163V241Q40 251 50 251H219Q229 251 229 241V221Q229 214 226 205L113 -146Q110 -155 101 -155H76Z"  />
<glyph unicode="&#x2088;" horiz-adv-x="258" d="M129 -162Q96 -162 74 -147T42 -105Q39 -95 38 -83T37 -42Q37 -14 38 -3T42 17Q51 43 75 58V59Q51 72 42 100Q39 108 38 118T37 148Q37 169 38 180T42 201Q51 228 73 243T129 258Q161 258 183 243T215 201Q218 191 219 180T220 148Q220 129 219 119T215 100Q207 72 182 59V58Q208 44 215 17Q218 8 219 -3T220 -42Q220 -71 219 -83T215 -105Q206 -132 184 -147T129 -162ZM129 77Q147 77 158 85T175 108Q177 113 177 121T178 148Q178 166 178 174T175 188Q170 202 159 210T129 219Q111 219 100 211T83 188Q81 182 80 174T79 148Q79 130 80 122T83 108Q88 94 99 86T129 77ZM129 -123Q147 -123 158 -115T175 -92Q177 -86 177 -77T178 -42Q178 -17 178 -8T175 8Q170 21 159 29T129 38Q111 38 100 30T83 8Q81 2 80 -7T79 -42Q79 -68 80 -77T83 -92Q88 -106 99 -114T129 -123Z"  />
<glyph unicode="&#x2089;" horiz-adv-x="258" d="M91 -155Q80 -155 84 -145L155 19L154 20Q145 13 124 13Q60 13 43 68Q39 78 38 91T37 135Q37 166 38 178T42 201Q51 228 73 243T129 258Q161 258 183 243T215 201Q218 191 219 179T220 135Q220 112 219 97T216 69T210 45T199 18L128 -145Q124 -155 114 -155H91ZM129 51Q147 51 158 59T175 82Q177 88 177 98T178 135Q178 163 178 172T175 188Q170 202 159 210T129 219Q111 219 100 211T83 188Q81 182 80 173T79 135Q79 108 80 98T83 82Q88 68 99 60T129 51Z"  />
<glyph unicode="&#x20AC;" horiz-adv-x="371" d="M211 -8Q118 -8 89 79Q86 88 84 99T81 129T79 178T78 256Q78 262 72 262H27Q17 262 17 272V292Q17 302 27 302H72Q78 302 78 308V379Q78 385 72 385H27Q17 385 17 395V415Q17 425 27 425H72Q78 425 78 431Q78 476 78 505T80 552T84 581T89 601Q118 688 211 688Q269 688 302 652T343 559Q345 548 337 547L309 541Q299 538 297 548Q289 590 269 615T211 641Q154 641 136 587Q134 579 132 570T129 545T128 501T127 431Q127 425 133 425H279Q289 425 289 415L283 395Q280 385 270 385H133Q127 385 127 379V308Q127 302 133 302H259Q269 302 269 292L263 272Q260 262 250 262H133Q127 262 127 256Q127 210 127 182T129 137T132 110T136 93Q154 39 211 39Q249 39 269 64T297 132Q299 142 309 139L337 134Q344 131 343 121Q335 64 302 28T211 -8Z"  />
<glyph unicode="&#x2113;" horiz-adv-x="355" d="M90 221Q88 218 84 217T75 220L60 234Q57 237 57 241T60 249L121 320V531Q121 613 142 650T206 688Q243 688 262 660T282 579Q282 525 257 460T171 316V81Q171 37 201 37Q220 37 238 54Q246 60 251 53L264 36Q269 30 262 23Q248 8 230 0T191 -8Q158 -8 140 14T121 85V257L90 221ZM171 384Q207 439 223 485T239 580Q239 647 207 647Q190 647 181 624T171 545V384Z"  />
<glyph unicode="&#x2122;" horiz-adv-x="629" d="M539 286Q529 286 529 296V564H528L466 363Q463 353 455 353H442Q434 353 431 363L368 564H367V296Q367 286 357 286H338Q328 286 328 296V670Q328 680 338 680H361Q370 680 373 670L449 419H450L524 670Q527 680 536 680H559Q569 680 569 670V296Q569 286 559 286H539ZM158 286Q148 286 148 296V636Q148 641 144 641H76Q66 641 66 651V670Q66 680 76 680H260Q270 680 270 670V651Q270 641 260 641H192Q189 641 189 636V296Q189 286 179 286H158Z"  />
<glyph unicode="&#x2126;" horiz-adv-x="414" d="M247 0Q237 0 237 10V38Q237 45 247 51Q267 64 279 78T297 122T305 202T307 340Q307 413 307 456T305 523T301 558T296 578Q286 609 263 624T207 639Q175 639 152 624T118 578Q115 569 114 559T111 524T109 456T108 340Q108 253 110 203T118 123T136 79T168 51Q178 45 178 38V10Q178 0 168 0H63Q53 0 53 10V39Q53 49 63 49H108V50Q93 63 83 78T67 124T59 205T56 340Q56 415 56 459T58 530T62 570T69 594Q83 641 119 664T207 688Q260 688 295 665T346 594Q350 583 352 570T356 531T358 460T359 340Q359 256 357 205T348 124T332 79T307 50V49H351Q361 49 361 39V10Q361 0 351 0H247Z"  />
<glyph unicode="&#x212E;" horiz-adv-x="595" d="M297 -8Q244 -8 202 11T129 64T83 143T67 239Q67 291 83 336T129 414T201 466T297 485Q349 485 391 467T464 417T511 339T528 239H168V77Q221 26 297 26Q352 26 393 51T468 133L500 112Q479 81 458 59T413 21T361 -1T297 -8ZM427 400Q398 427 367 441T297 455Q220 455 168 400V272H427V400Z"  />
<glyph unicode="&#x2153;" horiz-adv-x="684" d="M156 274Q146 274 146 284V630H145L90 592Q79 585 79 596V623Q79 631 86 635L141 674Q148 680 156 680H178Q188 680 188 670V284Q188 274 178 274H156ZM184 -8Q174 -8 177 2L414 678Q418 688 427 688H449Q459 688 456 678L218 2Q214 -8 205 -8H184ZM512 -6Q445 -6 428 50Q422 69 422 93Q422 103 431 105L452 108Q462 109 462 98Q462 84 463 77T467 63Q472 49 482 41T512 33Q531 33 541 41T557 63Q559 69 560 78T562 114Q562 142 562 151T559 165Q549 193 512 193H504Q494 193 494 203V222Q494 232 504 232H512Q549 232 558 259Q560 265 561 273T562 304Q562 322 561 330T557 345Q552 359 542 367T512 375Q493 375 483 367T467 345Q465 339 464 332T462 310Q462 299 452 300L431 303Q422 304 422 315Q422 338 428 358Q445 414 512 414Q580 414 597 358Q600 348 601 337T603 304Q603 280 602 269T599 250Q591 225 565 214V213Q591 201 598 176Q601 168 602 156T603 114Q603 85 602 73T597 50Q580 -6 512 -6Z"  />
<glyph unicode="&#x2154;" horiz-adv-x="744" d="M90 274Q80 274 80 284V305Q80 313 84 321L198 511Q207 526 213 542T219 579Q219 596 218 604T214 618Q209 632 199 640T169 648Q150 648 140 640T124 618Q122 612 121 604T120 577Q120 566 109 568L88 570Q79 571 79 582Q79 599 80 610T85 630Q103 687 170 687Q237 687 255 630Q258 621 259 610T261 579Q261 551 253 529T230 483L126 314V313H251Q261 313 261 303V284Q261 274 251 274H90ZM244 -8Q234 -8 237 2L474 678Q478 688 487 688H509Q519 688 516 678L278 2Q274 -8 265 -8H244ZM572 -6Q505 -6 488 50Q482 69 482 93Q482 103 491 105L512 108Q522 109 522 98Q522 84 523 77T527 63Q532 49 542 41T572 33Q591 33 601 41T617 63Q619 69 620 78T622 114Q622 142 622 151T619 165Q609 193 572 193H564Q554 193 554 203V222Q554 232 564 232H572Q609 232 618 259Q620 265 621 273T622 304Q622 322 621 330T617 345Q612 359 602 367T572 375Q553 375 543 367T527 345Q525 339 524 332T522 310Q522 299 512 300L491 303Q482 304 482 315Q482 338 488 358Q505 414 572 414Q640 414 657 358Q660 348 661 337T663 304Q663 280 662 269T659 250Q651 225 625 214V213Q651 201 658 176Q661 168 662 156T663 114Q663 85 662 73T657 50Q640 -6 572 -6Z"  />
<glyph unicode="&#x215B;" horiz-adv-x="686" d="M156 274Q146 274 146 284V630H145L90 592Q79 585 79 596V623Q79 631 86 635L141 674Q148 680 156 680H178Q188 680 188 670V284Q188 274 178 274H156ZM514 -6Q481 -6 459 9T427 51Q424 61 423 73T422 114Q422 142 423 153T427 173Q436 199 460 214V215Q436 228 427 256Q424 264 423 274T422 304Q422 325 423 336T427 357Q436 384 458 399T514 414Q546 414 568 399T600 357Q603 347 604 336T605 304Q605 285 604 275T600 256Q592 228 567 215V214Q593 200 600 173Q603 164 604 153T605 114Q605 85 604 73T600 51Q591 24 569 9T514 -6ZM514 233Q532 233 543 241T560 264Q562 269 562 277T563 304Q563 322 563 330T560 344Q555 358 544 366T514 375Q496 375 485 367T468 344Q466 338 465 330T464 304Q464 286 465 278T468 264Q473 250 484 242T514 233ZM514 33Q532 33 543 41T560 64Q562 70 562 79T563 114Q563 139 563 148T560 164Q555 177 544 185T514 194Q496 194 485 186T468 164Q466 158 465 149T464 114Q464 88 465 79T468 64Q473 50 484 42T514 33ZM184 -8Q174 -8 177 2L414 678Q418 688 427 688H449Q459 688 456 678L218 2Q214 -8 205 -8H184Z"  />
<glyph unicode="&#x215C;" horiz-adv-x="737" d="M565 -6Q532 -6 510 9T478 51Q475 61 474 73T473 114Q473 142 474 153T478 173Q487 199 511 214V215Q487 228 478 256Q475 264 474 274T473 304Q473 325 474 336T478 357Q487 384 509 399T565 414Q597 414 619 399T651 357Q654 347 655 336T656 304Q656 285 655 275T651 256Q643 228 618 215V214Q644 200 651 173Q654 164 655 153T656 114Q656 85 655 73T651 51Q642 24 620 9T565 -6ZM565 233Q583 233 594 241T611 264Q613 269 613 277T614 304Q614 322 614 330T611 344Q606 358 595 366T565 375Q547 375 536 367T519 344Q517 338 516 330T515 304Q515 286 516 278T519 264Q524 250 535 242T565 233ZM565 33Q583 33 594 41T611 64Q613 70 613 79T614 114Q614 139 614 148T611 164Q606 177 595 185T565 194Q547 194 536 186T519 164Q517 158 516 149T515 114Q515 88 516 79T519 64Q524 50 535 42T565 33ZM235 -8Q225 -8 228 2L465 678Q469 688 478 688H500Q510 688 507 678L269 2Q265 -8 256 -8H235ZM170 267Q103 267 86 323Q80 342 80 366Q80 376 89 378L110 381Q120 382 120 371Q120 357 121 350T125 336Q130 322 140 314T170 306Q189 306 199 314T215 336Q217 342 218 351T220 387Q220 415 220 424T217 438Q207 466 170 466H162Q152 466 152 476V495Q152 505 162 505H170Q207 505 216 532Q218 538 219 546T220 577Q220 595 219 603T215 618Q210 632 200 640T170 648Q151 648 141 640T125 618Q123 612 122 605T120 583Q120 572 110 573L89 576Q80 577 80 588Q80 611 86 631Q103 687 170 687Q238 687 255 631Q258 621 259 610T261 577Q261 553 260 542T257 523Q249 498 223 487V486Q249 474 256 449Q259 441 260 429T261 387Q261 358 260 346T255 323Q238 267 170 267Z"  />
<glyph unicode="&#x215D;" horiz-adv-x="737" d="M565 -6Q532 -6 510 9T478 51Q475 61 474 73T473 114Q473 142 474 153T478 173Q487 199 511 214V215Q487 228 478 256Q475 264 474 274T473 304Q473 325 474 336T478 357Q487 384 509 399T565 414Q597 414 619 399T651 357Q654 347 655 336T656 304Q656 285 655 275T651 256Q643 228 618 215V214Q644 200 651 173Q654 164 655 153T656 114Q656 85 655 73T651 51Q642 24 620 9T565 -6ZM565 233Q583 233 594 241T611 264Q613 269 613 277T614 304Q614 322 614 330T611 344Q606 358 595 366T565 375Q547 375 536 367T519 344Q517 338 516 330T515 304Q515 286 516 278T519 264Q524 250 535 242T565 233ZM565 33Q583 33 594 41T611 64Q613 70 613 79T614 114Q614 139 614 148T611 164Q606 177 595 185T565 194Q547 194 536 186T519 164Q517 158 516 149T515 114Q515 88 516 79T519 64Q524 50 535 42T565 33ZM235 -8Q225 -8 228 2L465 678Q469 688 478 688H500Q510 688 507 678L269 2Q265 -8 256 -8H235ZM170 267Q137 267 115 282T84 324Q79 342 79 362Q79 372 88 374L109 377Q120 379 120 367Q120 355 120 349T123 337Q134 306 169 306Q187 306 198 314T214 336Q216 342 217 354T219 402Q219 438 218 450T214 468Q204 497 169 497Q153 497 144 492T128 480Q122 470 112 470H93Q83 470 83 480V670Q83 680 93 680H249Q259 680 259 670V651Q259 641 249 641H129Q123 641 123 635V517H124Q132 525 145 530T175 536Q237 536 255 483Q258 474 259 458T261 402Q261 364 260 349T255 323Q236 267 170 267Z"  />
<glyph unicode="&#x215E;" horiz-adv-x="683" d="M511 -6Q478 -6 456 9T424 51Q421 61 420 73T419 114Q419 142 420 153T424 173Q433 199 457 214V215Q433 228 424 256Q421 264 420 274T419 304Q419 325 420 336T424 357Q433 384 455 399T511 414Q543 414 565 399T597 357Q600 347 601 336T602 304Q602 285 601 275T597 256Q589 228 564 215V214Q590 200 597 173Q600 164 601 153T602 114Q602 85 601 73T597 51Q588 24 566 9T511 -6ZM511 233Q529 233 540 241T557 264Q559 269 559 277T560 304Q560 322 560 330T557 344Q552 358 541 366T511 375Q493 375 482 367T465 344Q463 338 462 330T461 304Q461 286 462 278T465 264Q470 250 481 242T511 233ZM511 33Q529 33 540 41T557 64Q559 70 559 79T560 114Q560 139 560 148T557 164Q552 177 541 185T511 194Q493 194 482 186T465 164Q463 158 462 149T461 114Q461 88 462 79T465 64Q470 50 481 42T511 33ZM116 274Q106 274 109 284L225 639V641H127Q121 641 121 635V592Q121 582 111 582H90Q80 582 80 592V670Q80 680 90 680H259Q269 680 269 670V650Q269 643 266 634L153 283Q150 274 141 274H116ZM181 -8Q171 -8 174 2L411 678Q415 688 424 688H446Q456 688 453 678L215 2Q211 -8 202 -8H181Z"  />
<glyph unicode="&#x2202;" horiz-adv-x="407" d="M184 -8Q151 -8 126 7T84 50T59 114T50 197Q50 246 60 287T89 358T137 404T201 421Q232 421 260 407T309 358H310Q311 422 304 474T280 564T240 621T181 642Q161 642 142 635T107 615Q99 609 93 617L79 637Q74 645 82 651Q105 668 129 678T186 688Q271 688 314 605T357 369Q357 281 347 211T316 93T263 18T184 -8ZM189 38Q239 38 270 99T308 295Q291 333 265 354T209 376Q155 376 126 329T97 201Q97 167 102 138T117 86T145 51T189 38Z"  />
<glyph unicode="&#x2206;" horiz-adv-x="388" d="M35 0Q30 0 27 2T25 10L168 670Q171 680 179 680H212Q221 680 223 670L363 10Q365 0 354 0H35ZM298 49Q304 49 303 55L196 567H194L86 55Q84 49 90 49H298Z"  />
<glyph unicode="&#x220F;" horiz-adv-x="496" d="M389 -180Q379 -180 379 -170V685Q379 691 373 691H123Q117 691 117 685V-170Q117 -180 107 -180H75Q65 -180 65 -170V730Q65 740 75 740H421Q431 740 431 730V-170Q431 -180 421 -180H389Z"  />
<glyph unicode="&#x2211;" horiz-adv-x="425" d="M43 -180Q33 -180 33 -170V-141Q33 -136 35 -132L211 323L40 689Q37 695 37 700V730Q37 740 47 740H372Q382 740 382 730V701Q382 691 372 691H95L264 333Q267 326 264 319L88 -131H382Q392 -131 392 -141V-170Q392 -180 382 -180H43Z"  />
<glyph unicode="&#x2212;" horiz-adv-x="371" d="M49 253Q39 253 39 263V289Q39 299 49 299H322Q332 299 332 289V263Q332 253 322 253H49Z"  />
<glyph unicode="&#x2215;" horiz-adv-x="137" d="M-64 -8Q-74 -8 -71 2L166 678Q170 688 179 688H201Q211 688 208 678L-30 2Q-34 -8 -43 -8H-64Z"  />
<glyph unicode="&#x2219;" horiz-adv-x="171" d="M63 223Q53 223 53 233V298Q53 308 63 308H108Q118 308 118 298V233Q118 223 108 223H63Z"  />
<glyph unicode="&#x221A;" horiz-adv-x="531" d="M260 -180Q251 -180 248 -170L132 121Q129 127 123 124L62 98Q52 94 49 102L39 124Q35 134 43 137L144 182Q153 186 158 178L267 -100H269L465 730Q468 740 477 740H505Q516 740 513 730L297 -170Q294 -180 285 -180H260Z"  />
<glyph unicode="&#x221E;" horiz-adv-x="628" d="M472 104Q420 104 385 133T314 211Q271 152 236 128T156 104Q125 104 100 114T56 144T29 189T19 247Q19 280 29 307T58 352T102 381T156 391Q206 391 241 363T314 283Q357 342 392 366T472 391Q535 391 572 351T609 247Q609 214 599 188T570 143T526 114T472 104ZM471 145Q513 145 539 172T566 248Q566 293 540 321T471 350Q455 350 441 346T410 329T377 297T338 247Q374 196 403 171T471 145ZM156 145Q172 145 186 149T217 165T250 197T289 247Q254 298 224 324T157 350Q115 350 89 323T62 248Q62 203 87 174T156 145Z"  />
<glyph unicode="&#x222B;" horiz-adv-x="269" d="M38 -180Q28 -178 28 -170V-141Q28 -131 38 -131H46Q79 -131 94 -113T109 -46V602Q109 672 135 706T220 740H231Q241 738 241 730V701Q241 691 231 691H223Q190 691 175 673T160 606V-42Q160 -112 134 -146T48 -180H38Z"  />
<glyph unicode="&#x2248;" horiz-adv-x="371" d="M245 301Q226 301 210 309T179 327Q165 335 153 342T127 350Q109 350 97 340T70 307Q65 299 56 303L39 313Q30 318 35 327Q52 357 73 375T126 393Q145 393 161 385T192 367Q206 359 219 352T244 344Q262 344 274 354T301 387Q306 395 315 391L332 381Q341 376 336 367Q319 337 298 319T245 301ZM245 160Q226 160 210 168T179 186Q165 194 153 201T127 208Q109 208 97 199T70 166Q65 158 56 162L39 172Q30 177 35 186Q52 216 73 234T126 252Q145 252 161 244T192 226Q206 217 219 210T244 203Q262 203 274 213T301 246Q306 254 315 250L332 240Q341 235 336 225Q319 196 298 178T245 160Z"  />
<glyph unicode="&#x2260;" horiz-adv-x="371" d="M233 329L181 223H322Q332 223 332 213V187Q332 177 322 177H158L118 95Q113 85 105 85H83Q74 85 77 95L117 177H49Q39 177 39 187V213Q39 223 49 223H140L192 329H49Q39 329 39 339V365Q39 375 49 375H214L254 455Q260 465 267 465H289Q298 465 295 455L255 375H322Q332 375 332 365V339Q332 329 322 329H233Z"  />
<glyph unicode="&#x2264;" horiz-adv-x="371" d="M49 257Q39 260 39 271V293Q39 304 49 307L322 420Q332 423 332 414V383Q332 374 322 370L106 283V281L322 194Q332 190 332 181V151Q332 141 322 144L49 257ZM49 0Q39 0 39 10V36Q39 46 49 46H322Q332 46 332 36V10Q332 0 322 0H49Z"  />
<glyph unicode="&#x2265;" horiz-adv-x="371" d="M49 144Q39 140 39 151V181Q39 190 49 194L266 281V283L49 370Q39 374 39 383V414Q39 424 49 420L322 307Q332 304 332 293V271Q332 260 322 257L49 144ZM49 0Q39 0 39 10V36Q39 46 49 46H322Q332 46 332 36V10Q332 0 322 0H49Z"  />
<glyph unicode="&#x25CA;" horiz-adv-x="409" d="M29 322Q26 329 29 336L179 700Q183 710 192 710H217Q226 710 230 700L380 336Q383 329 380 322L230 -42Q226 -52 217 -52H192Q183 -52 179 -42L29 322ZM207 12L333 329L205 645H203L76 329L205 12H207Z"  />
<glyph unicode="&#xF8FF;" horiz-adv-x="361" d="M10 0Q0 0 0 10V670Q0 680 10 680H351Q361 680 361 670V10Q361 0 351 0H10ZM318 35Q324 35 324 41V639Q324 645 318 645H43Q37 645 37 639V41Q37 35 43 35H318ZM174 221Q164 221 164 231V278Q164 301 175 323L210 390Q221 411 225 424T229 461Q229 486 225 498Q215 528 182 528Q148 528 139 498Q137 491 136 482T135 450Q135 440 124 442L106 444Q97 445 97 455Q97 480 99 491T103 509Q111 534 131 548T182 563Q213 563 233 549T261 509Q263 502 265 491T267 462Q267 436 262 420T246 380L211 313Q206 304 204 296T202 277V231Q202 221 192 221H174ZM169 115Q159 115 159 125V162Q159 172 169 172H197Q207 172 207 162V125Q207 115 197 115H169Z"  />
<glyph unicode="&#xFB00;" horiz-adv-x="460" d="M91 0Q81 0 81 10V429Q81 435 75 435H46Q36 435 36 445V467Q36 477 46 477H75Q81 477 81 483V570Q81 624 105 652T185 680H200Q210 680 210 670V643Q210 633 200 633H179Q131 633 131 580V483Q131 477 137 477H199Q209 477 209 467V445Q209 435 199 435H137Q131 435 131 429V10Q131 0 121 0H91ZM321 0Q311 0 311 10V429Q311 435 305 435H276Q266 435 266 445V467Q266 477 276 477H305Q311 477 311 483V570Q311 624 335 652T415 680H430Q440 680 440 670V643Q440 633 430 633H409Q361 633 361 580V483Q361 477 367 477H429Q439 477 439 467V445Q439 435 429 435H367Q361 435 361 429V10Q361 0 351 0H321Z"  />
<glyph unicode="&#xFB01;" horiz-adv-x="411" d="M91 0Q81 0 81 10V429Q81 435 75 435H46Q36 435 36 445V467Q36 477 46 477H75Q81 477 81 483V570Q81 624 105 652T185 680H200Q210 680 210 670V643Q210 633 200 633H179Q131 633 131 580V483Q131 477 137 477H199Q209 477 209 467V445Q209 435 199 435H137Q131 435 131 429V10Q131 0 121 0H91ZM301 606Q291 606 291 616V670Q291 680 301 680H340Q350 680 350 670V616Q350 606 340 606H301ZM306 0Q296 0 296 10V467Q296 477 306 477H335Q345 477 345 467V10Q345 0 335 0H306Z"  />
<glyph unicode="&#xFB02;" horiz-adv-x="437" d="M91 0Q81 0 81 10V429Q81 435 75 435H46Q36 435 36 445V467Q36 477 46 477H75Q81 477 81 483V570Q81 624 105 652T185 680H200Q210 680 210 670V643Q210 633 200 633H179Q131 633 131 580V483Q131 477 137 477H199Q209 477 209 467V445Q209 435 199 435H137Q131 435 131 429V10Q131 0 121 0H91ZM388 -3Q337 1 317 26T296 111V670Q296 680 306 680H335Q345 680 345 670V105Q345 76 355 63T389 45L394 44Q404 43 404 34V6Q404 -5 395 -3H388Z"  />
<glyph unicode="&#xFB03;" horiz-adv-x="641" d="M91 0Q81 0 81 10V429Q81 435 75 435H46Q36 435 36 445V467Q36 477 46 477H75Q81 477 81 483V570Q81 624 105 652T185 680H200Q210 680 210 670V643Q210 633 200 633H179Q131 633 131 580V483Q131 477 137 477H199Q209 477 209 467V445Q209 435 199 435H137Q131 435 131 429V10Q131 0 121 0H91ZM321 0Q311 0 311 10V429Q311 435 305 435H276Q266 435 266 445V467Q266 477 276 477H305Q311 477 311 483V570Q311 624 335 652T415 680H430Q440 680 440 670V643Q440 633 430 633H409Q361 633 361 580V483Q361 477 367 477H429Q439 477 439 467V445Q439 435 429 435H367Q361 435 361 429V10Q361 0 351 0H321ZM531 606Q521 606 521 616V670Q521 680 531 680H570Q580 680 580 670V616Q580 606 570 606H531ZM536 0Q526 0 526 10V467Q526 477 536 477H565Q575 477 575 467V10Q575 0 565 0H536Z"  />
<glyph unicode="&#xFB04;" horiz-adv-x="667" d="M91 0Q81 0 81 10V429Q81 435 75 435H46Q36 435 36 445V467Q36 477 46 477H75Q81 477 81 483V570Q81 624 105 652T185 680H200Q210 680 210 670V643Q210 633 200 633H179Q131 633 131 580V483Q131 477 137 477H199Q209 477 209 467V445Q209 435 199 435H137Q131 435 131 429V10Q131 0 121 0H91ZM321 0Q311 0 311 10V429Q311 435 305 435H276Q266 435 266 445V467Q266 477 276 477H305Q311 477 311 483V570Q311 624 335 652T415 680H430Q440 680 440 670V643Q440 633 430 633H409Q361 633 361 580V483Q361 477 367 477H429Q439 477 439 467V445Q439 435 429 435H367Q361 435 361 429V10Q361 0 351 0H321ZM618 -3Q567 1 547 26T526 111V670Q526 680 536 680H565Q575 680 575 670V105Q575 76 585 63T619 45L624 44Q634 43 634 34V6Q634 -5 625 -3H618Z"  />

</font>
</defs>
</svg>
