<?xml  version="1.0" encoding="UTF-8"?>
<!DOCTYPE svg PUBLIC "-//W3C//DTD SVG 1.0//EN" "http://www.w3.org/TR/2001/REC-SVG-20010904/DTD/svg10.dtd" >
<svg xmlns="http://www.w3.org/2000/svg" >
<metadata>
<version>1.0</version>
<id><![CDATA[Helvetica Neue W10 97 Black Cn]]></id>
<vendor>Monotype Imaging Inc.</vendor>
<credits>
<name>Fonts.com WebFonts</name>
<URL>http://webfonts.fonts.com</URL>
<role>Home of the Web fonts</role>
</credits>
<license>
<URL>http://webfonts.fonts.com/Legal</URL>
</license>
<copyright><![CDATA[Part of the digitally encoded machine readable outline data for producing the Typefaces provided is copyrighted © 1981 - 2008 Linotype GmbH, www.linotype.com. All rights reserved. This software is the property of Linotype GmbH, and may not be reproduced, used, displayed, modified, disclosed or transferred without the express written approval of Linotype GmbH.  The digitally encoded machine readable software for producing the Typefaces licensed to you is copyrighted (c) 1990 Adobe Systems. All Rights Reserved. This software is the property of Adobe Systems Incorporated and its licensors, and may not be reproduced, used, displayed, modified, disclosed or transferred without the express written approval of Adobe. Helvetica is a trademark of Linotype GmbH registered in the U.S. Patent and Trademark Office and may be registered in certain other jurisdictions. This typeface is original artwork of Linotype Design Studio. The design may be protected in certain jurisdictions.]]></copyright>
<trademark><![CDATA[Helvetica is a trademark of Linotype GmbH registered in the U.S. Patent and Trademark Office and may be registered in certain other jurisdictions.]]></trademark>
<licensee>
<name></name>
</licensee>
</metadata>
<defs >
<font horiz-adv-x="420" id="d474dc40-8d51-4df5-82f6-a9c14a6b9d7b">
<font-face font-family="" panose-1="2 11 8 6 3 7 2 2 2 4" ascent="972" descent="-230" units-per-em="1000" alphabetic="0">
</font-face>
<missing-glyph horiz-adv-x="260" />

<glyph unicode="&#xA;" />
<glyph unicode="&#xD;" horiz-adv-x="0" />
<glyph unicode=" " horiz-adv-x="260" />
<glyph unicode="!" horiz-adv-x="314" d="M70 475V714H244V475L223 207H89L70 475ZM74 158H242V0H74V158Z"  />
<glyph unicode="&quot;" horiz-adv-x="481" d="M55 714H195V340H55V714ZM286 714H426V340H286V714Z"  />
<glyph unicode="#" horiz-adv-x="520" d="M283 173H193L171 0H61L83 173H10V289H98L112 405H39V521H127L149 694H259L237 521H326L348 694H458L436 521H510V405H422L407 289H481V173H393L371 0H261L283 173ZM208 289H297L312 405H222L208 289Z"  />
<glyph unicode="$" horiz-adv-x="520" d="M206 -14Q111 -4 62 41T13 181V208H193V189Q193 144 210 127T255 110Q284 110 299 129T315 175Q315 209 294 229T240 263T169 292T99 330T45 391T23 491Q23 678 206 708V766H298V708Q398 698 443 648T488 494H314V509Q314 539 301 561T261 584Q231 584 217 565T203 522Q203 487 225 467T282 433T355 405T428 367T484 304T507 200Q507 98 454 48T298 -14V-104H206V-14Z"  />
<glyph unicode="%" horiz-adv-x="778" d="M17 516Q17 568 25 604T51 664T100 697T174 708Q218 708 248 698T296 664T323 605T331 516Q331 464 323 428T297 368T248 335T174 324Q130 324 100 334T52 368T25 427T17 516ZM447 178Q447 230 455 266T481 326T530 359T604 370Q648 370 678 360T726 326T753 267T761 178Q761 126 753 90T727 30T678 -3T604 -14Q560 -14 530 -4T482 30T455 89T447 178ZM139 516Q139 481 140 460T145 426T156 409T174 404Q185 404 192 408T202 425T207 459T209 516Q209 550 208 572T203 606T192 623T174 628Q163 628 156 624T146 607T141 572T139 516ZM492 708H602L285 -14H175L492 708ZM569 178Q569 143 570 122T575 88T586 71T604 66Q615 66 622 70T632 87T637 121T639 178Q639 212 638 234T633 268T622 285T604 290Q593 290 586 286T576 269T571 234T569 178Z"  />
<glyph unicode="&amp;" horiz-adv-x="611" d="M221 279Q199 262 188 243T177 207Q177 172 196 149T254 126Q270 126 287 133T316 150L221 279ZM219 568Q219 552 230 532T266 480Q299 510 312 531T325 568Q325 590 310 604T272 618Q249 618 234 604T219 568ZM624 0H426L395 42Q375 30 356 20T317 2T273 -10T222 -14Q177 -14 138 -2T68 36T21 99T3 187Q3 250 35 303T137 394Q110 431 90 472T69 556Q69 593 83 623T124 676T188 710T271 722Q317 722 355 710T419 676T460 624T475 556Q475 504 443 458T351 373L432 264Q443 282 448 303T456 348H612Q609 288 590 232T528 134L624 0Z"  />
<glyph unicode="&apos;" horiz-adv-x="260" d="M60 714H200V340H60V714Z"  />
<glyph unicode="(" horiz-adv-x="314" d="M172 -184Q106 -81 68 30T30 265Q30 389 68 500T172 714H318Q254 608 226 497T198 265Q198 145 226 34T318 -184H172Z"  />
<glyph unicode=")" horiz-adv-x="314" d="M142 714Q208 611 246 500T284 265Q284 141 246 30T142 -184H-4Q60 -78 88 33T116 265Q116 385 88 496T-4 714H142Z"  />
<glyph unicode="*" horiz-adv-x="406" d="M203 430L128 322L48 380L124 487L-4 528L27 621L154 580V714H252V580L379 621L410 528L282 487L358 380L278 322L203 430Z"  />
<glyph unicode="+" horiz-adv-x="600" d="M230 506H370V323H553V183H370V0H230V183H47V323H230V506Z"  />
<glyph unicode="&#x2c;" horiz-adv-x="260" d="M46 198H214V18Q214 -79 175 -126T46 -176V-90Q82 -86 96 -66T110 -6V6H46V198Z"  />
<glyph unicode="-" horiz-adv-x="368" d="M28 365H340V213H28V365Z"  />
<glyph unicode="." horiz-adv-x="260" d="M46 198H214V0H46V198Z"  />
<glyph unicode="/" horiz-adv-x="333" d="M205 728H355L128 -14H-22L205 728Z"  />
<glyph unicode="0" horiz-adv-x="520" d="M205 230Q205 155 218 129T260 102Q289 102 302 128T315 230V464Q315 539 302 565T260 592Q231 592 218 566T205 464V230ZM19 347Q19 454 33 524T77 635T152 692T260 708Q322 708 367 692T442 635T486 524T501 347Q501 240 487 170T443 59T368 2T260 -14Q198 -14 153 2T78 59T34 170T19 347Z"  />
<glyph unicode="1" horiz-adv-x="520" d="M183 0V482H49V598Q92 598 123 603T176 621T212 655T235 708H369V0H183Z"  />
<glyph unicode="2" horiz-adv-x="520" d="M25 468Q26 523 34 566T69 642Q95 674 140 691T257 708Q327 708 371 693T440 651T475 590T485 515Q485 443 461 394T397 305L287 198Q275 186 261 171T241 140H485V0H19Q19 37 24 72T41 141T73 207T125 271L249 397Q276 424 287 448T299 513Q299 558 286 575T251 592Q241 592 232 589T216 575T204 547T199 498V468H25Z"  />
<glyph unicode="3" horiz-adv-x="520" d="M27 494Q31 599 85 653T249 708Q314 708 357 695T425 657T461 596T472 512Q472 491 467 469T451 427T420 392T373 371V369Q435 357 460 315T485 214Q485 94 427 40T254 -14Q194 -14 150 -3T76 35T33 104T19 212H193Q193 198 194 179T200 143T216 114T248 102Q264 102 274 106T289 123T297 157T299 212Q299 264 283 282T231 300H184V416H211Q232 416 247 420T272 435T287 465T292 516Q292 561 281 576T245 592Q218 592 207 571T195 494H27Z"  />
<glyph unicode="4" horiz-adv-x="520" d="M16 272L240 694H442V266H504V132H442V0H268V132H16V272ZM274 266V502H272L156 266H274Z"  />
<glyph unicode="5" horiz-adv-x="520" d="M41 694H452V554H183L175 435Q201 459 233 473T306 487Q393 487 438 432T483 262Q483 193 472 141T433 55T362 3T251 -14Q128 -14 74 39T19 189V212H193V188Q193 138 206 120T244 102Q257 102 267 106T284 127T294 173T297 254Q297 314 284 337T244 361Q221 361 207 347T193 301H25L41 694Z"  />
<glyph unicode="6" horiz-adv-x="520" d="M211 218Q211 150 222 126T263 102Q289 102 302 126T315 218Q315 286 304 310T263 334Q237 334 224 310T211 218ZM313 526Q312 538 310 550T303 571T287 586T262 592Q242 592 227 576T211 525V412H213Q225 438 257 453T332 468Q370 468 401 458T454 423T489 357T501 253Q501 181 486 131T440 48T365 1T264 -14Q203 -14 157 0T81 50T35 142T19 287V366Q19 448 27 511T62 618T136 685T263 708Q331 708 374 693T443 653T477 594T487 526H313Z"  />
<glyph unicode="7" horiz-adv-x="520" d="M25 694H487V555Q450 497 419 429T363 287T323 141T302 0H110Q117 68 132 139T173 279T232 415T310 542H25V694Z"  />
<glyph unicode="8" horiz-adv-x="520" d="M205 207Q205 144 219 123T260 102Q286 102 300 123T315 207Q315 238 311 258T300 290T283 306T260 311Q234 311 220 290T205 207ZM212 507Q212 481 216 464T226 438T241 425T260 421Q270 421 278 424T293 437T304 464T308 507Q308 533 304 549T294 575T279 588T260 592Q250 592 242 589T227 576T216 550T212 507ZM260 -14Q203 -14 159 -4T83 32T36 101T19 210Q19 275 48 320T137 373V375Q105 382 85 396T53 430T37 472T32 518Q32 560 44 595T84 655T155 694T260 708Q321 708 364 694T435 655T475 595T488 518Q488 495 484 473T467 431T435 397T383 375V373Q415 367 437 352T474 316T494 267T501 210Q501 144 485 101T438 33T362 -3T260 -14Z"  />
<glyph unicode="9" horiz-adv-x="520" d="M205 476Q205 408 216 384T257 360Q283 360 296 384T309 476Q309 544 298 568T257 592Q231 592 218 568T205 476ZM207 168Q208 156 210 144T217 123T233 108T258 102Q278 102 293 118T309 168V281H307Q295 256 263 241T188 226Q150 226 119 236T66 271T31 337T19 441Q19 513 34 563T80 646T155 693T256 708Q317 708 362 694T439 644T485 551T501 406V328Q501 246 493 183T458 76T384 9T257 -14Q188 -14 145 1T77 41T43 100T33 168H207Z"  />
<glyph unicode=":" horiz-adv-x="260" d="M46 198H214V0H46V198ZM46 541H214V343H46V541Z"  />
<glyph unicode=";" horiz-adv-x="260" d="M46 541H214V343H46V541ZM46 198H214V18Q214 -79 175 -126T46 -176V-90Q82 -86 96 -66T110 -6V6H46V198Z"  />
<glyph unicode="&lt;" horiz-adv-x="600" d="M47 316L553 524V390L215 253L553 116V-18L47 190V316Z"  />
<glyph unicode="=" horiz-adv-x="600" d="M47 211H553V71H47V211ZM47 435H553V295H47V435Z"  />
<glyph unicode="&gt;" horiz-adv-x="600" d="M47 116L385 253L47 390V524L553 316V190L47 -18V116Z"  />
<glyph unicode="?" horiz-adv-x="500" d="M160 158H328V0H160V158ZM32 488Q32 554 46 600T89 674Q118 703 159 715T256 728Q365 728 416 674T468 530Q468 488 458 453T421 388L348 305Q334 289 330 264T325 207H163V235Q163 292 172 327T206 392L265 459Q285 482 289 505T294 547Q294 576 283 594T249 612Q237 612 228 608T213 590T204 553T200 488H32Z"  />
<glyph unicode="@" horiz-adv-x="800" d="M621 534L581 323Q573 287 575 271T591 255Q604 255 619 264T647 291T670 340T679 412Q679 466 660 507T605 577T521 621T415 636Q352 636 301 616T214 558T159 469T139 356Q139 291 160 240T221 152T313 97T432 78Q489 78 537 93T624 137H734Q680 62 601 24T400 -14Q323 -14 256 15T138 94T58 212T29 357Q29 434 58 501T137 619T255 699T400 728Q473 728 540 707T659 647T740 552T771 427Q771 364 746 314T684 229T601 176T516 157Q493 157 477 168T458 201H454Q437 181 410 169T348 157Q316 157 288 169T239 205T205 259T192 330Q192 374 206 415T247 488T311 539T395 558Q433 558 464 544T521 497L529 534H621ZM314 346Q314 314 333 291T386 267Q408 267 427 275T459 298T480 330T488 369Q488 404 467 426T409 448Q389 448 372 439T342 416T322 383T314 346Z"  />
<glyph unicode="A" horiz-adv-x="556" d="M279 568H277L226 265H330L279 568ZM161 714H395L569 0H371L352 125H204L185 0H-13L161 714Z"  />
<glyph unicode="B" horiz-adv-x="574" d="M236 134H288Q314 134 334 155T354 222Q354 264 334 286T288 308H236V134ZM236 434H281Q310 434 325 455T340 506Q340 536 325 558T281 580H236V434ZM50 714H331Q431 714 478 666T526 536Q526 507 520 481T500 434T465 397T414 376V374Q449 371 474 356T515 317T538 267T546 211Q546 164 534 126T497 59T430 16T331 0H50V714Z"  />
<glyph unicode="C" horiz-adv-x="537" d="M329 497Q329 558 317 580T278 602Q257 602 245 591T226 552T217 477T215 357Q215 285 217 238T225 162T244 123T278 112Q308 112 321 141T334 248V287H514V234Q514 159 494 111T441 35T366 -3T278 -14Q200 -14 150 6T72 71T34 186T23 357Q23 459 35 530T78 645T157 708T278 728Q341 728 385 712T456 667T496 596T509 502V457H329V497Z"  />
<glyph unicode="D" horiz-adv-x="574" d="M44 714H314Q395 714 440 685T507 606T535 492T540 357Q540 287 535 223T508 109T440 30T314 0H44V714ZM230 134H267Q294 134 310 141T334 173T345 241T348 357Q348 429 346 473T335 541T310 572T267 580H230V134Z"  />
<glyph unicode="E" horiz-adv-x="500" d="M44 714H467V562H230V440H452V294H230V152H476V0H44V714Z"  />
<glyph unicode="F" horiz-adv-x="481" d="M44 714H467V562H230V440H452V294H230V0H44V714Z"  />
<glyph unicode="G" horiz-adv-x="556" d="M284 388H524V0H398L394 63H392Q383 40 367 25T330 2T286 -10T238 -14Q167 -14 126 11T64 83T38 199T32 357Q32 447 42 516T82 632T163 703T298 728Q347 728 388 715T460 673T507 599T524 488H344Q344 502 344 521T338 559T323 589T291 602Q268 602 255 591T235 552T226 477T224 357Q224 285 226 238T234 162T253 123T287 112Q302 112 313 118T333 140T345 186T350 262H284V388Z"  />
<glyph unicode="H" horiz-adv-x="574" d="M44 714H230V452H344V714H530V0H344V294H230V0H44V714Z"  />
<glyph unicode="I" horiz-adv-x="260" d="M37 714H223V0H37V714Z"  />
<glyph unicode="J" horiz-adv-x="481" d="M451 714V223Q451 94 392 40T218 -14Q101 -14 51 45T1 217V232H169V197Q169 146 182 129T217 112Q238 112 251 129T265 197V714H451Z"  />
<glyph unicode="K" horiz-adv-x="556" d="M37 714H223V440H225L363 714H561L381 402L583 0H371L262 249L223 189V0H37V714Z"  />
<glyph unicode="L" horiz-adv-x="463" d="M44 714H230V152H459V0H44V714Z"  />
<glyph unicode="M" horiz-adv-x="758" d="M37 714H303L378 291H380L455 714H721V0H547V532H545L446 0H312L213 532H211V0H37V714Z"  />
<glyph unicode="N" horiz-adv-x="592" d="M44 714H252L372 274H374V714H548V0H344L220 441H218V0H44V714Z"  />
<glyph unicode="O" horiz-adv-x="556" d="M215 357Q215 285 217 238T225 162T244 123T278 112Q299 112 311 123T330 162T339 237T341 357Q341 429 339 476T331 552T312 591T278 602Q257 602 245 591T226 552T217 477T215 357ZM23 357Q23 457 36 527T79 642T158 707T278 728Q349 728 398 708T477 643T520 528T533 357Q533 257 520 187T477 72T398 7T278 -14Q207 -14 158 6T79 71T36 186T23 357Z"  />
<glyph unicode="P" horiz-adv-x="537" d="M223 406H258Q293 406 311 427T330 493Q330 580 258 580H223V406ZM37 714H316Q369 714 408 697T472 651T510 581T522 494Q522 383 463 328T288 272H223V0H37V714Z"  />
<glyph unicode="Q" horiz-adv-x="556" d="M447 -119L345 -9Q337 -10 320 -12T278 -14Q207 -14 158 6T79 71T36 186T23 357Q23 457 36 527T79 642T158 707T278 728Q349 728 398 708T477 643T520 528T533 357Q533 254 519 183T473 67L559 -22L447 -119ZM215 357Q215 285 217 238T225 162T244 123T278 112Q299 112 311 123T330 162T339 237T341 357Q341 429 339 476T331 552T312 591T278 602Q257 602 245 591T226 552T217 477T215 357Z"  />
<glyph unicode="R" horiz-adv-x="574" d="M230 412H267Q307 412 326 435T345 497Q345 542 327 561T266 580H230V412ZM44 714H335Q388 714 425 700T486 661T520 600T531 524Q531 452 502 408T409 354V352Q476 346 501 305T526 192V131Q526 117 526 102T527 74T530 49T535 32Q539 26 543 21T556 10V0H358Q351 14 348 33T343 71T341 107T340 136V184Q340 214 337 234T327 265T308 281T279 286H230V0H44V714Z"  />
<glyph unicode="S" horiz-adv-x="537" d="M322 508V525Q322 557 309 579T269 602Q239 602 225 583T211 539Q211 504 233 484T290 448T363 418T436 377T492 312T515 206Q515 92 450 39T262 -14Q204 -14 160 -4T85 31T38 93T22 187V212H202V195Q202 149 219 131T263 112Q292 112 307 132T323 181Q323 216 302 236T248 271T177 301T107 340T53 403T31 505Q31 614 89 671T265 728Q387 728 441 676T496 508H322Z"  />
<glyph unicode="T" horiz-adv-x="462" d="M138 556H-2V714H464V556H324V0H138V556Z"  />
<glyph unicode="U" horiz-adv-x="556" d="M222 714V199Q222 147 237 130T278 112Q304 112 319 129T334 199V714H520V246Q520 171 504 121T458 41T382 -1T278 -14Q219 -14 174 -2T99 41T52 121T36 246V714H222Z"  />
<glyph unicode="V" horiz-adv-x="520" d="M-14 714H184L259 176H261L336 714H534L380 0H140L-14 714Z"  />
<glyph unicode="W" horiz-adv-x="778" d="M305 714H473L546 220H548L598 714H778L656 0H452L390 480H388L326 0H122L0 714H180L236 220H238L305 714Z"  />
<glyph unicode="X" horiz-adv-x="536" d="M0 714H208L267 507H269L328 714H536L381 362L548 0H340L269 215H267L196 0H-12L157 362L0 714Z"  />
<glyph unicode="Y" horiz-adv-x="520" d="M167 281L-15 714H189L259 465H261L331 714H535L353 281V0H167V281Z"  />
<glyph unicode="Z" horiz-adv-x="481" d="M20 134L244 562H35V714H461V580L233 152H461V0H20V134Z"  />
<glyph unicode="[" horiz-adv-x="314" d="M44 714H314V588H212V-58H314V-184H44V714Z"  />
<glyph unicode="\" horiz-adv-x="333" d="M-22 728H128L355 -14H205L-22 728Z"  />
<glyph unicode="]" horiz-adv-x="314" d="M102 588H0V714H270V-184H0V-58H102V588Z"  />
<glyph unicode="^" horiz-adv-x="600" d="M222 694H378L553 329H413L300 568L187 329H47L222 694Z"  />
<glyph unicode="_" horiz-adv-x="500" d="M0 -75H500V-125H0V-75Z"  />
<glyph unicode="`" horiz-adv-x="260" d="M1 737H169L213 591H97L1 737Z"  />
<glyph unicode="a" horiz-adv-x="500" d="M232 107Q262 107 275 129T288 196V261H286Q282 257 271 253T248 244L225 236Q203 228 196 211T188 166Q188 139 200 123T232 107ZM299 0Q294 14 292 29T288 61H286Q271 25 239 6T164 -14Q123 -14 95 -2T48 31T22 81T14 145Q14 182 21 210T46 259T92 294T164 319L235 336Q264 343 276 356T288 395Q288 445 242 445Q216 445 204 431T191 373H35Q35 431 56 467T108 522T175 548T242 555Q289 555 328 548T396 521T440 467T456 381V117Q456 79 459 50T473 0H299Z"  />
<glyph unicode="b" horiz-adv-x="520" d="M219 270Q219 226 221 198T228 152T244 127T269 120Q285 120 295 127T310 151T318 197T320 270Q320 314 318 343T311 389T295 414T269 421Q254 421 244 414T229 390T221 343T219 270ZM39 714H219V480H221Q235 522 265 538T334 555Q373 555 404 542T456 497T488 413T500 282Q500 132 464 59T338 -14Q290 -14 261 7T215 74H213V0H39V714Z"  />
<glyph unicode="c" horiz-adv-x="481" d="M305 329Q305 362 302 382T293 416Q282 439 253 439Q238 439 228 432T211 405T203 353T200 270Q200 220 202 188T211 136T227 110T253 102Q278 102 291 121T305 191V226H467Q467 162 456 117T419 43Q368 -14 253 -14Q201 -14 158 -4T85 36T37 120T20 261Q20 357 39 415T90 504T167 545T262 555Q322 555 361 539T424 493T457 422T467 329H305Z"  />
<glyph unicode="d" horiz-adv-x="520" d="M200 270Q200 226 202 198T209 152T225 127T251 120Q266 120 276 127T291 151T299 197T301 270Q301 314 299 343T292 389T276 414T251 421Q235 421 225 414T210 390T202 343T200 270ZM301 714H481V0H307V74H305Q288 29 259 8T182 -14Q92 -14 56 59T20 282Q20 358 32 410T65 495T117 541T186 555Q224 555 254 539T299 480H301V714Z"  />
<glyph unicode="e" horiz-adv-x="481" d="M299 362Q299 405 289 425T249 445Q221 445 211 425T200 362V338H299V362ZM200 240V169Q200 125 215 111T249 96Q261 96 270 100T286 115T296 144T300 190H462Q460 90 411 38T250 -14Q185 -14 141 1T70 51T32 139T20 270Q20 348 33 402T74 490T145 539T250 555Q304 555 344 542T412 499T453 418T467 295V240H200Z"  />
<glyph unicode="f" horiz-adv-x="315" d="M62 420H0V541H62V580Q62 620 70 648T98 694T150 720T229 728Q249 728 271 727T315 722V609Q310 609 306 610Q296 612 285 612Q268 612 255 603T242 574V541H315V420H242V0H62V420Z"  />
<glyph unicode="g" horiz-adv-x="520" d="M313 541H481V9Q481 -47 464 -84T416 -143T344 -174T255 -184Q211 -184 174 -178T108 -154T63 -108T45 -32H207Q207 -52 219 -63T252 -74Q262 -74 272 -72T289 -63T302 -43T307 -7V96H305Q288 49 254 32T183 15Q156 15 128 25T77 64T40 145T25 282Q25 360 36 412T69 496T122 541T192 555Q230 555 263 535T311 466H313V541ZM205 285Q205 242 208 216T218 174T234 154T257 149Q269 149 278 154T294 174T304 215T307 285Q307 327 304 353T295 395T279 415T257 421Q244 421 235 416T219 395T209 354T205 285Z"  />
<glyph unicode="h" horiz-adv-x="520" d="M36 714H216V481H218Q241 524 275 539T343 555Q371 555 396 548T441 524T472 479T484 408V0H304V357Q304 391 294 406T260 421Q236 421 226 406T216 357V0H36V714Z"  />
<glyph unicode="i" horiz-adv-x="258" d="M39 714H219V580H39V714ZM39 541H219V0H39V541Z"  />
<glyph unicode="j" horiz-adv-x="258" d="M39 714H219V580H39V714ZM39 541H219V-35Q219 -82 206 -110T171 -152T118 -171T52 -176Q32 -176 12 -175T-29 -171V-50Q5 -50 22 -43T39 -12V541Z"  />
<glyph unicode="k" horiz-adv-x="500" d="M31 714H211V354H213L313 541H505L355 318L524 0H332L241 186L211 139V0H31V714Z"  />
<glyph unicode="l" horiz-adv-x="258" d="M39 714H219V0H39V714Z"  />
<glyph unicode="m" horiz-adv-x="778" d="M299 357Q299 391 289 406T255 421Q231 421 221 406T211 357V0H31V541H205V475H207Q242 555 338 555Q394 555 423 535T470 472Q491 518 527 536T606 555Q636 555 661 549T706 525T736 480T747 408V0H567V357Q567 391 557 406T523 421Q499 421 489 406T479 357V0H299V357Z"  />
<glyph unicode="n" horiz-adv-x="520" d="M36 541H210V475H212Q247 555 343 555Q373 555 398 549T443 525T473 480T484 408V0H304V357Q304 391 294 406T260 421Q236 421 226 406T216 357V0H36V541Z"  />
<glyph unicode="o" horiz-adv-x="500" d="M200 270Q200 219 202 187T210 135T225 109T250 102Q265 102 275 109T290 135T298 186T300 270Q300 321 298 354T291 406T275 432T250 439Q235 439 226 432T210 406T202 354T200 270ZM480 270Q480 217 473 166T441 75T372 11T250 -14Q171 -14 125 8T56 70T27 160T20 271Q20 324 27 375T59 466T128 530T250 555Q329 555 375 533T444 471T473 380T480 270Z"  />
<glyph unicode="p" horiz-adv-x="520" d="M219 271Q219 227 221 198T228 152T244 127T269 120Q285 120 295 127T310 151T318 198T320 271Q320 314 318 343T311 389T295 414T269 421Q254 421 244 414T229 390T221 343T219 271ZM39 541H213V467H215Q246 555 338 555Q428 555 464 482T500 259Q500 181 488 129T455 45T402 0T334 -14Q296 -14 266 2T221 61H219V-176H39V541Z"  />
<glyph unicode="q" horiz-adv-x="520" d="M301 271Q301 314 299 343T292 389T276 414T251 421Q235 421 225 414T210 390T202 343T200 271Q200 227 202 198T209 152T225 127T251 120Q266 120 276 127T291 151T299 198T301 271ZM301 61H299Q285 19 255 3T186 -14Q147 -14 116 -1T64 44T32 128T20 259Q20 409 56 482T182 555Q230 555 259 534T305 467H307V541H481V-176H301V61Z"  />
<glyph unicode="r" horiz-adv-x="352" d="M31 541H205V455H207Q222 504 255 529T328 555H357V387Q345 389 334 390T312 391Q264 391 238 370T211 295V0H31V541Z"  />
<glyph unicode="s" horiz-adv-x="463" d="M175 168Q175 156 177 144T185 121T201 103T226 96Q247 96 262 108T278 142Q278 166 259 179T210 202T148 223T85 253T37 303T17 386Q17 422 30 452T69 506T136 542T232 555Q435 555 435 385H279Q279 420 267 432T231 445Q211 445 198 434T185 403Q185 380 204 369T253 348T315 329T378 301T426 251T446 167Q446 128 431 95T389 37T321 0T229 -14Q116 -14 67 32T17 168H175Z"  />
<glyph unicode="t" horiz-adv-x="315" d="M2 541H62V700H242V541H313V420H242V162Q242 139 252 130T285 120H313V0Q263 -6 215 -6Q174 -6 145 -2T98 18T71 60T62 132V420H2V541Z"  />
<glyph unicode="u" horiz-adv-x="520" d="M36 541H216V184Q216 150 226 135T260 120Q284 120 294 135T304 184V541H484V0H310V66H308Q273 -14 177 -14Q147 -14 122 -8T77 16T47 61T36 133V541Z"  />
<glyph unicode="v" horiz-adv-x="463" d="M-6 541H180L231 152H233L283 541H469L337 0H125L-6 541Z"  />
<glyph unicode="w" horiz-adv-x="740" d="M0 541H174L219 152H221L274 541H466L519 152H521L566 541H740L630 0H426L371 383H369L314 0H110L0 541Z"  />
<glyph unicode="x" horiz-adv-x="481" d="M2 541H182L236 396L298 541H478L342 279L485 0H305L242 163L176 0H-4L139 279L2 541Z"  />
<glyph unicode="y" horiz-adv-x="463" d="M50 -46Q60 -48 70 -49T90 -50Q107 -50 118 -45T137 -34T147 -20T150 -9Q150 -3 148 8T142 31L-1 541H185L240 176H242L294 541H474L329 -18Q317 -65 302 -95T265 -144T215 -169T151 -176Q122 -176 98 -175T50 -172V-46Z"  />
<glyph unicode="z" horiz-adv-x="444" d="M23 541H425V407L223 140H430V0H14V140L208 401H23V541Z"  />
<glyph unicode="{" horiz-adv-x="333" d="M63 131Q63 153 56 166T38 187T16 196T-5 198V332Q4 332 15 333T37 341T55 358T63 390V577Q63 646 101 680T213 714H333V588H277Q261 588 252 582T239 567T233 547T231 526V358Q231 330 219 313T190 285T155 271T123 266V264Q136 263 154 260T190 247T219 217T231 163V4Q231 -6 232 -17T238 -37T252 -52T277 -58H333V-184H213Q140 -184 102 -150T63 -47V131Z"  />
<glyph unicode="|" horiz-adv-x="222" d="M41 728H181V-14H41V728Z"  />
<glyph unicode="}" horiz-adv-x="333" d="M0 -58H56Q72 -58 81 -52T94 -37T100 -17T102 4V172Q102 200 114 217T143 245T178 259T210 264V266Q197 267 179 270T143 283T114 313T102 367V526Q102 536 101 547T95 567T81 582T56 588H0V714H120Q193 714 231 680T270 577V399Q270 376 277 363T295 343T317 334T338 332V198Q329 198 318 196T296 188T278 171T270 140V-47Q270 -116 232 -150T120 -184H0V-58Z"  />
<glyph unicode="~" horiz-adv-x="600" d="M69 271Q86 309 117 333T194 357Q222 357 251 347T308 323T361 300T407 289Q432 289 453 308T495 360L531 235Q505 193 474 171T406 149Q376 149 352 159T302 183T250 206T189 217Q134 217 105 146L69 271Z"  />
<glyph unicode="&#xA0;" horiz-adv-x="260" />
<glyph unicode="&#xA4;" horiz-adv-x="520" d="M159 347Q159 293 185 266T260 238Q308 238 334 265T361 347Q361 401 335 428T260 456Q212 456 186 429T159 347ZM9 174L61 225Q25 280 25 347Q25 382 35 413T63 473L9 526L81 597L136 546Q191 582 260 582Q328 582 384 546L439 597L511 526L457 473Q474 445 484 414T495 347Q495 280 459 225L511 174L439 97L387 151Q331 112 260 112Q188 112 133 151L81 97L9 174Z"  />
<glyph unicode="&#xA6;" horiz-adv-x="222" d="M41 728H181V438H41V728ZM41 276H181V-14H41V276Z"  />
<glyph unicode="&#xA7;" horiz-adv-x="520" d="M317 216Q340 231 350 249T360 286Q360 306 342 321T299 347T247 367T202 386Q172 368 164 350T156 318Q156 298 175 284T220 258T273 236T317 216ZM317 552Q317 589 301 600T264 612Q244 612 231 601T217 571Q217 551 238 538T290 512T358 485T426 447T479 390T500 304Q500 262 483 226T428 160Q460 135 471 99T483 25Q483 -24 466 -58T418 -113T346 -144T256 -154Q150 -154 94 -110T37 28V44H205Q205 -1 218 -19T255 -38Q281 -38 292 -22T303 18Q303 47 282 64T230 96T162 125T94 160T41 213T20 295Q20 316 27 338T45 379T72 414T103 439Q73 459 58 491T43 555Q43 634 96 681T261 728Q367 728 420 690T473 571V552H317Z"  />
<glyph unicode="&#xA9;" horiz-adv-x="800" d="M584 299Q578 261 562 233T523 185T470 155T409 145Q364 145 327 161T262 204T221 270T206 352Q206 397 220 436T260 505T322 551T403 568Q470 568 518 531T578 418H474Q467 447 449 461T403 476Q358 476 334 444T310 358Q310 303 335 270T406 237Q433 237 451 252T474 299H584ZM29 357Q29 438 56 506T133 623T251 700T400 728Q481 728 549 701T666 624T743 506T771 357Q771 276 744 208T667 91T549 14T400 -14Q319 -14 251 13T134 90T57 208T29 357ZM656 357Q656 420 636 470T582 554T501 607T400 625Q346 625 299 607T218 554T164 470T144 357Q144 294 163 244T217 160T299 107T400 89Q454 89 500 107T581 159T636 244T656 357Z"  />
<glyph unicode="&#xAB;" horiz-adv-x="444" d="M49 399L205 503V345L121 289L205 233V75L49 179V399ZM239 399L395 503V345L311 289L395 233V75L239 179V399Z"  />
<glyph unicode="&#xAC;" horiz-adv-x="600" d="M413 295H47V435H553V109H413V295Z"  />
<glyph unicode="&#xAD;" horiz-adv-x="368" d="M28 365H340V213H28V365Z"  />
<glyph unicode="&#xAE;" horiz-adv-x="800" d="M400 398Q427 398 442 409T457 443Q457 464 442 474T400 485H351V398H400ZM259 559H384Q424 559 455 553T509 533T543 496T555 436Q555 409 548 390T529 359T505 341T480 334L565 181H463L383 324H351V181H259V559ZM29 357Q29 438 56 506T133 623T251 700T400 728Q481 728 549 701T666 624T743 506T771 357Q771 276 744 208T667 91T549 14T400 -14Q319 -14 251 13T134 90T57 208T29 357ZM656 357Q656 420 636 470T582 554T501 607T400 625Q346 625 299 607T218 554T164 470T144 357Q144 294 163 244T217 160T299 107T400 89Q454 89 500 107T581 159T636 244T656 357Z"  />
<glyph unicode="&#xB0;" horiz-adv-x="400" d="M132 548Q132 519 151 500T200 480Q229 480 248 499T268 548Q268 577 249 596T200 616Q171 616 152 597T132 548ZM40 548Q40 581 52 610T87 661T138 695T200 708Q233 708 262 696T313 661T347 610T360 548Q360 515 348 486T313 435T262 401T200 388Q167 388 138 400T87 435T53 486T40 548Z"  />
<glyph unicode="&#xB1;" horiz-adv-x="600" d="M47 140H553V0H47V140ZM230 506H370V418H553V278H370V190H230V278H47V418H230V506Z"  />
<glyph unicode="&#xB5;" horiz-adv-x="546" d="M485 174Q485 148 486 133T490 109T498 98T511 95Q523 95 540 103V7Q526 -2 504 -8T456 -14Q408 -14 373 3T321 63H318Q303 20 280 3T236 -14Q225 -14 215 -9V-176H36V541H217V179Q217 120 257 120Q281 120 293 138T305 187V541H485V174Z"  />
<glyph unicode="&#xB6;" horiz-adv-x="666" d="M206 330Q174 330 143 342T88 377T48 436T33 519Q33 579 53 617T109 676T190 706T289 714H581V-140H441V604H346V-140H206V330Z"  />
<glyph unicode="&#xB7;" horiz-adv-x="260" d="M31 274Q31 316 59 344T130 373Q172 373 200 345T229 274Q229 232 201 204T130 175Q88 175 60 203T31 274Z"  />
<glyph unicode="&#xBB;" horiz-adv-x="444" d="M239 233L323 289L239 345V503L395 399V179L239 75V233ZM49 233L133 289L49 345V503L205 399V179L49 75V233Z"  />
<glyph unicode="&#x401;" horiz-adv-x="500" d="M282 750V899H438V750H282ZM81 750V899H238V750H81ZM47 0V712H468V563H232V439H453V292H232V149H478V0H47Z"  />
<glyph unicode="&#x402;" horiz-adv-x="644" d="M620 172Q620 68 610 1T571 -105T494 -159T366 -174H352V-40Q376 -40 390 -35T413 -9T425 51T428 163Q428 242 415 278T368 314Q349 314 338 305T320 276T312 229T310 164V0H123V563H-4V712H487V563H310V378Q327 420 362 442T448 465Q505 465 539 443T591 381T614 289T620 172Z"  />
<glyph unicode="&#x403;" horiz-adv-x="444" d="M235 557V0H48V712H449V557H235ZM278 763H165L207 908H375L278 763Z"  />
<glyph unicode="&#x404;" horiz-adv-x="537" d="M517 262Q517 194 506 143T466 56T389 2T268 -16Q178 -16 130 15T58 98T31 218T27 360Q27 446 34 514T67 629T143 702T279 727Q346 727 390 712T462 666T500 590T511 486V468H332Q332 492 332 516T326 558T309 589T277 601Q260 601 249 594T231 568T222 519T218 439H332V292H219Q220 234 223 199T232 143T250 116T278 109Q299 109 311 120T328 151T335 200T337 262H517H517Z"  />
<glyph unicode="&#x405;" horiz-adv-x="537" d="M515 208Q515 142 498 99T447 31T365 -5T256 -16Q137 -16 81 35T25 207V215H204V208Q204 190 205 172T211 140T229 117T265 108Q294 108 310 126T326 179Q326 204 319 219T294 247T243 273T162 309Q94 340 63 385T31 509Q31 726 272 726Q388 726 443 675T498 515V510H322Q322 521 322 527T320 542Q313 600 267 600Q242 600 228 584T214 539Q214 517 221 503T239 478T266 460T299 445Q358 420 399 400T466 355T503 296T515 208Z"  />
<glyph unicode="&#x406;" horiz-adv-x="260" d="M36 0V712H224V0H36Z"  />
<glyph unicode="&#x407;" horiz-adv-x="260" d="M36 0V712H224V0H36ZM153 750V899H309V750H153ZM-48 750V899H109V750H-48Z"  />
<glyph unicode="&#x408;" horiz-adv-x="481" d="M451 225Q451 162 439 117T400 42T329 -2T219 -17Q157 -17 116 -3T49 40T14 110T3 207V228H173V217Q173 196 173 177T178 142T191 118T218 109Q236 109 245 116T259 139T263 178T264 231V712H451V225H451Z"  />
<glyph unicode="&#x409;" horiz-adv-x="874" d="M854 229Q854 162 834 118T780 48T706 11T622 0H362V563H287L282 318Q281 259 275 201T249 96T189 20T81 -9Q73 -9 63 -9T41 -7T18 -5T0 -3V140Q13 137 33 137Q48 137 59 143T80 167T94 220T100 310L107 712H549V450H625Q746 450 800 393T854 229ZM663 227Q663 281 640 299T576 317H547V133H577Q625 133 644 156T663 227Z"  />
<glyph unicode="&#x40A;" horiz-adv-x="855" d="M606 450Q727 450 781 393T835 229Q835 162 815 118T761 48T687 11T603 0H343V294H231V0H44V712H231V450H343V712H530V450H606ZM644 227Q644 281 621 299T557 317H528V133H558Q606 133 625 156T644 227Z"  />
<glyph unicode="&#x40B;" horiz-adv-x="644" d="M420 0V241Q420 266 413 281T397 303T376 313T355 316Q345 316 331 313T310 308V0H123V563H-4V712H487V563H310V454Q314 455 323 456T343 459T367 462T391 464Q506 464 555 413T605 254V0H420Z"  />
<glyph unicode="&#x40C;" horiz-adv-x="568" d="M318 763H205L247 908H415L318 763ZM380 0L267 250L230 189V0H46V712H230V528Q230 503 229 478T226 428Q228 432 235 450T252 490T273 537T294 580L366 712H566L387 401L589 0H380Z"  />
<glyph unicode="&#x40E;" horiz-adv-x="520" d="M429 913Q426 838 385 795T269 751Q194 751 153 794T109 913H199Q208 847 269 847Q330 847 339 913H429ZM371 202Q353 148 335 109T292 44T230 6T138 -7Q119 -7 97 -5T63 0V140Q71 138 86 137T111 136Q144 136 159 158T182 208L-8 712H200L230 592Q233 578 239 556T252 507T265 453T273 402H276Q279 427 283 453T292 505T303 554T312 597L337 712H538L371 202Z"  />
<glyph unicode="&#x40F;" horiz-adv-x="574" d="M203 -157V0H44V712H231V149H343V712H530V0H373V-157H203Z"  />
<glyph unicode="&#x410;" horiz-adv-x="556" d="M374 0L349 119H205L182 0H-13L161 712H396L569 0H374ZM297 428Q290 463 286 498T277 569H273Q270 535 266 501T255 433L224 265H328L297 428Z"  />
<glyph unicode="&#x411;" horiz-adv-x="556" d="M528 223Q528 157 509 114T457 46T385 10T302 0H44V712H486V566H231V439H305Q416 439 472 386T528 223ZM337 221Q337 272 316 289T256 306H229V133H257Q302 133 319 154T337 221Z"  />
<glyph unicode="&#x412;" horiz-adv-x="574" d="M544 202Q544 148 528 110T482 47T414 11T328 0H49V712H309Q358 712 397 703T465 672T509 616T525 533Q525 468 496 428T410 374Q544 354 544 202ZM339 506Q339 547 321 563T260 579H234V431H250Q299 431 319 447T339 506ZM351 223Q351 272 328 290T272 309H234V134H271Q315 134 333 157T351 223Z"  />
<glyph unicode="&#x413;" horiz-adv-x="444" d="M235 557V0H48V712H449V557H235Z"  />
<glyph unicode="&#x414;" horiz-adv-x="630" d="M457 -157V0H170V-157H0V149H48Q69 191 83 231T107 316T120 409T124 520V712H564V149H627V-157H457ZM377 571H303V480Q303 374 286 287T244 149H377V571Z"  />
<glyph unicode="&#x415;" horiz-adv-x="500" d="M47 0V712H468V563H232V439H453V292H232V149H478V0H47Z"  />
<glyph unicode="&#x416;" horiz-adv-x="829" d="M635 0L546 255L505 171V0H324V171L283 255L194 0H-10L168 419L13 712H208L265 590Q274 572 284 547T304 497T321 455T330 432Q328 457 326 485T324 538V712H505V538Q505 513 503 485T499 432Q501 436 508 454T524 497T544 546T564 590L621 712H816L661 419L839 0H635Z"  />
<glyph unicode="&#x417;" horiz-adv-x="537" d="M306 533Q306 573 294 587T257 602Q240 602 230 594T215 573T208 544T206 510H30V515Q30 623 85 674T262 726Q381 726 435 680T489 533Q489 507 483 483T464 437T429 401T378 378Q446 366 476 325T506 209Q506 149 489 106T439 36T361 -3T257 -16Q138 -16 80 35T22 207V215H201V208Q201 153 213 131T256 108Q272 108 283 112T301 129T311 163T314 217Q314 241 312 257T302 283T278 297T234 301Q224 301 212 301T192 299V431Q200 430 212 430T229 429Q255 429 270 433T294 448T304 480T306 533Z"  />
<glyph unicode="&#x418;" horiz-adv-x="593" d="M371 0V202Q371 217 372 247T374 310T378 376T383 426H379Q377 416 373 401T364 368T353 331T342 296L249 0H43V712H222V483Q222 472 221 454T218 412T214 364T211 313H215Q218 326 225 349T239 396T253 441T263 473L342 712H550V0H371Z"  />
<glyph unicode="&#x419;" horiz-adv-x="593" d="M465 913Q462 838 421 795T305 751Q230 751 189 794T145 913H235Q244 847 305 847Q366 847 375 913H465ZM371 0V202Q371 217 372 247T374 310T378 376T383 426H379Q377 416 373 401T364 368T353 331T342 296L249 0H43V712H222V483Q222 472 221 454T218 412T214 364T211 313H215Q218 326 225 349T239 396T253 441T263 473L342 712H550V0H371Z"  />
<glyph unicode="&#x41A;" horiz-adv-x="568" d="M380 0L267 250L230 189V0H46V712H230V528Q230 503 229 478T226 428Q228 432 235 450T252 490T273 537T294 580L366 712H566L387 401L589 0H380Z"  />
<glyph unicode="&#x41B;" horiz-adv-x="593" d="M362 0V563H287L282 318Q281 259 275 201T249 96T189 20T81 -9Q73 -9 63 -9T41 -7T18 -5T0 -3V140Q13 137 33 137Q48 137 59 143T80 167T94 220T100 310L107 712H549V0H362Z"  />
<glyph unicode="&#x41C;" horiz-adv-x="778" d="M557 0L560 282Q561 347 563 410T572 539H565Q563 525 560 503T552 456T542 406T533 361L456 0H321L245 343Q234 392 226 440T208 539H202Q206 478 210 418T215 295L219 0H46V712H313L351 526Q355 503 361 470T373 400T383 324T389 253H393Q394 273 397 304T406 372T417 445T429 515L466 712H733V0H557Z"  />
<glyph unicode="&#x41D;" horiz-adv-x="574" d="M343 0V294H231V0H44V712H231V450H343V712H530V0H343Z"  />
<glyph unicode="&#x41E;" horiz-adv-x="556" d="M532 347Q532 273 527 207T498 91T421 12T276 -17Q214 -17 171 -3T100 38T57 100T34 177T26 265T24 358Q24 408 25 454T34 542T57 617T101 676T172 714T277 728Q373 728 425 696T501 611T528 489T532 347ZM340 341Q340 416 339 466T332 546T313 588T277 601Q255 601 243 590T224 551T217 476T216 355Q216 289 217 242T224 165T243 121T279 107Q300 107 312 118T330 157T338 229T340 341Z"  />
<glyph unicode="&#x41F;" horiz-adv-x="574" d="M343 0V563H231V0H44V712H530V0H343Z"  />
<glyph unicode="&#x420;" horiz-adv-x="546" d="M530 493Q530 273 297 273H233V0H46V712H284Q297 712 313 711T344 709T373 706T396 702Q457 689 493 632T530 493ZM339 491Q339 537 322 558T259 579H231V406H258Q296 406 317 423T339 491Z"  />
<glyph unicode="&#x421;" horiz-adv-x="537" d="M517 262Q517 194 506 143T466 56T389 2T268 -16Q182 -16 134 12T62 90T33 209T27 360Q27 443 33 511T65 627T140 701T279 727Q346 727 390 712T462 666T500 590T511 486V455H332V468Q332 492 332 516T326 558T309 589T277 601Q257 601 246 592T228 557T220 490T218 382Q218 295 220 241T228 158T246 119T278 109Q300 109 312 121T329 156T336 209T337 276V287H517V262H517Z"  />
<glyph unicode="&#x422;" horiz-adv-x="462" d="M325 557V0H138V557H-4V712H467V557H325Z"  />
<glyph unicode="&#x423;" horiz-adv-x="520" d="M371 202Q353 148 335 109T292 44T230 6T138 -7Q119 -7 97 -5T63 0V140Q71 138 86 137T111 136Q144 136 159 158T182 208L-8 712H200L230 592Q233 578 239 556T252 507T265 453T273 402H276Q279 427 283 453T292 505T303 554T312 597L337 712H538L371 202Z"  />
<glyph unicode="&#x424;" horiz-adv-x="783" d="M761 371Q761 305 743 252T691 161T605 104T488 84H484V-10H299V84H295Q229 84 178 104T93 161T40 251T22 371Q22 508 92 575T295 643H299V722H484V643H488Q620 643 690 576T761 371ZM573 367Q573 442 555 475T488 509H478V218H488Q538 218 555 255T573 367ZM305 509H295Q247 509 229 476T210 367Q210 292 227 255T295 218H305V509Z"  />
<glyph unicode="&#x425;" horiz-adv-x="536" d="M338 0L288 140Q282 157 276 180T268 229H265Q262 203 254 174T241 130L194 0H-12L158 363L1 712H210L245 601Q248 592 251 579T258 551T264 522T268 497H272Q274 513 277 531T285 567T294 599T301 623L331 712H536L379 361L549 0H338Z"  />
<glyph unicode="&#x426;" horiz-adv-x="597" d="M423 -157V0H44V712H231V149H343V712H530V149H593V-157H423Z"  />
<glyph unicode="&#x427;" horiz-adv-x="556" d="M325 0V263Q309 261 290 259T252 256Q137 256 84 307T30 466V712H215V474Q215 449 221 434T236 412T257 402T280 399Q290 399 304 400T325 404V712H512V0H325Z"  />
<glyph unicode="&#x428;" horiz-adv-x="857" d="M44 712H231V149H335V712H522V149H626V712H813V0H44V712Z"  />
<glyph unicode="&#x429;" horiz-adv-x="880" d="M44 712H231V149H335V712H522V149H626V712H813V149H876V-157H706V0H44V712Z"  />
<glyph unicode="&#x42A;" horiz-adv-x="648" d="M618 233Q618 165 597 120T543 49T467 11T382 0H136V563H-4V712H323V459H385Q446 459 490 444T562 399T604 328T618 233ZM427 231Q427 287 403 306T336 326H321V133H337Q387 133 407 157T427 231Z"  />
<glyph unicode="&#x42B;" horiz-adv-x="804" d="M573 0V712H760V0H573ZM526 233Q526 165 505 120T451 49T375 11T290 0H44V712H231V459H293Q354 459 398 444T470 399T512 328T526 233ZM335 231Q335 287 311 306T244 326H229V133H245Q295 133 315 157T335 231Z"  />
<glyph unicode="&#x42C;" horiz-adv-x="556" d="M536 233Q536 165 515 120T461 49T385 11T300 0H44V712H231V459H303Q364 459 408 444T480 399T522 328T536 233ZM345 231Q345 287 321 306T254 326H229V133H255Q305 133 325 157T345 231Z"  />
<glyph unicode="&#x42D;" horiz-adv-x="537" d="M510 360Q510 286 506 218T479 98T408 15T269 -16Q196 -16 148 2T72 55T32 142T20 262H200Q200 228 201 200T208 152T226 120T259 109Q276 109 287 116T304 143T314 198T318 292H205V439H319Q318 487 316 518T306 568T288 593T260 601Q239 601 228 589T212 559T206 516T205 468H26V486Q26 545 37 590T76 665T148 711T260 727Q347 727 396 702T471 630T503 514T510 360Z"  />
<glyph unicode="&#x42E;" horiz-adv-x="823" d="M799 347Q799 269 793 203T762 88T687 11T546 -17Q465 -17 417 7T343 73T308 171T298 294H231V0H44V712H231V440H298Q300 505 310 558T348 649T422 707T547 728Q634 728 684 703T759 628T792 509T799 347ZM610 341Q610 416 609 466T602 546T583 588T547 601Q525 601 513 590T494 551T487 476T486 355Q486 289 487 242T494 165T513 121T549 107Q570 107 582 118T600 157T608 229T610 341Z"  />
<glyph unicode="&#x42F;" horiz-adv-x="565" d="M200 0H-2L130 293Q81 319 55 368T28 489Q28 558 48 601T102 669T178 703T263 712H521V0H334V265H305L200 0ZM340 579H298Q251 579 233 557T214 487Q214 434 236 416T299 398H340V579Z"  />
<glyph unicode="&#x430;" horiz-adv-x="500" d="M232 107Q262 107 275 129T288 196V261H286Q282 257 271 253T248 244L225 236Q203 228 196 211T188 166Q188 139 200 123T232 107ZM299 0Q294 14 292 29T288 61H286Q271 25 239 6T164 -14Q123 -14 95 -2T48 31T22 81T14 145Q14 182 21 210T46 259T92 294T164 319L235 336Q264 343 276 356T288 395Q288 445 242 445Q216 445 204 431T191 373H35Q35 431 56 467T108 522T175 548T242 555Q289 555 328 548T396 521T440 467T456 381V117Q456 79 459 50T473 0H299Z"  />
<glyph unicode="&#x431;" horiz-adv-x="500" d="M479 267Q479 200 469 148T433 60T363 5T250 -14Q182 -14 140 6T74 62T42 149T33 261Q33 321 33 380T45 499Q61 593 104 644T233 710Q287 719 311 725T341 746H467Q465 701 453 672T418 623T361 593T278 576Q202 566 162 528T116 414H120Q139 471 182 502T285 534Q341 534 378 517T438 465T470 381T479 267ZM301 263Q301 317 299 349T291 398T277 420T256 426Q245 426 237 421T223 398T214 349T211 265Q211 211 213 179T221 129T234 106T255 100Q267 100 275 106T289 129T298 178T301 263Z"  />
<glyph unicode="&#x432;" horiz-adv-x="500" d="M476 153Q476 112 464 83T429 36T377 9T313 0H33V538H298Q335 538 365 531T417 507T450 466T462 403Q462 354 440 323T375 283Q476 268 476 153ZM289 382Q289 412 276 423T231 435H203V328H224Q260 328 274 340T289 382ZM298 168Q298 204 281 217T240 231H203V103H240Q272 103 285 120T298 168Z"  />
<glyph unicode="&#x433;" horiz-adv-x="390" d="M219 0H41V538H392V408H219V0Z"  />
<glyph unicode="&#x434;" horiz-adv-x="567" d="M395 -137V0H168V-137H0V131H42Q57 161 67 190T83 252T91 320T94 400V538H504V131H563V-137H395ZM330 412H262V370Q262 295 251 233T223 131H330V412Z"  />
<glyph unicode="&#x435;" horiz-adv-x="481" d="M198 241V202Q198 144 208 120T249 96Q275 96 286 116T298 187H460Q459 131 445 93T403 32T336 -2T244 -13Q170 -13 126 8T59 67T28 158T20 274Q20 337 28 388T60 476T128 533T246 554Q316 554 359 534T425 478T457 392T465 279V241H198ZM296 338Q296 386 289 415T248 444Q230 444 220 435T205 412T199 378T198 338H296Z"  />
<glyph unicode="&#x436;" horiz-adv-x="737" d="M567 0L493 193L454 131V0H283V131L244 193L170 0H-17L135 318L2 538H187L246 419Q250 411 255 399T266 375T276 351T284 332H286Q284 347 283 367T282 403V538H455V403Q455 387 454 367T451 332H453Q456 339 460 350T470 374T481 399T491 419L550 538H735L602 318L754 0H567Z"  />
<glyph unicode="&#x437;" horiz-adv-x="474" d="M450 161Q450 114 434 81T389 26T319 -6T229 -16Q179 -16 139 -8T72 21T29 75T14 159V168H173V163Q173 127 185 111T224 94Q246 94 259 113T272 162Q272 203 256 214T200 226H173V332H200Q236 332 252 346T268 403Q268 431 253 438T222 446Q202 446 190 430T177 385V380H20Q20 431 37 464T83 518T150 546T233 554Q339 554 388 521T438 410Q438 370 413 334T346 288Q394 280 422 249T450 161Z"  />
<glyph unicode="&#x438;" horiz-adv-x="537" d="M332 0V129Q332 144 332 170T334 224T337 278T341 318H338Q336 310 333 297T325 268T316 240T310 220L231 0H36V538H205V389Q205 377 204 360T202 322T200 280T197 241H200Q203 251 208 268T220 304T231 337T240 361L305 538H501V0H332Z"  />
<glyph unicode="&#x439;" horiz-adv-x="537" d="M421 728Q418 660 380 620T269 580Q197 580 159 620T117 728H196Q204 664 268 664Q299 664 318 680T342 728H421ZM332 0V129Q332 144 332 170T334 224T337 278T341 318H338Q336 310 333 297T325 268T316 240T310 220L231 0H36V538H205V389Q205 377 204 360T202 322T200 280T197 241H200Q203 251 208 268T220 304T231 337T240 361L305 538H501V0H332Z"  />
<glyph unicode="&#x43A;" horiz-adv-x="510" d="M335 0L246 190L211 134V0H36V538H212V400Q212 384 211 369T208 339Q209 343 213 352T224 372T236 395T247 416L317 538H510L361 315L529 0H335Z"  />
<glyph unicode="&#x43B;" horiz-adv-x="530" d="M316 0V408H246L243 240Q242 178 234 132T207 54T154 8T68 -7Q62 -7 53 -7T33 -6T13 -4T-3 -2V121Q2 119 9 119T22 119Q33 119 42 121T57 134T68 169T73 234L78 538H494V0H316Z"  />
<glyph unicode="&#x43C;" horiz-adv-x="685" d="M483 0V203Q483 252 484 305T491 407H486Q484 396 482 378T476 340T469 299T462 263L407 0H279L225 249Q217 286 211 327T197 407H193Q196 361 199 311T202 213V0H36V538H286L314 397Q317 380 322 357T331 307T339 253T343 201H346Q347 216 349 238T355 286T363 338T373 389L401 538H649V0H483Z"  />
<glyph unicode="&#x43D;" horiz-adv-x="520" d="M36 0V538H214V351H306V538H484V0H306V211H214V0H36Z"  />
<glyph unicode="&#x43E;" horiz-adv-x="500" d="M479 275Q479 208 470 155T434 64T363 6T244 -14Q171 -14 127 7T60 66T29 156T21 269Q21 336 30 389T66 479T137 535T255 555Q325 555 369 536T437 480T470 392T479 275ZM300 271Q300 323 298 355T291 406T275 432T250 439Q235 439 226 432T210 407T202 356T200 273Q200 221 201 188T208 135T223 108T249 100Q264 100 274 107T290 134T298 187T300 271Z"  />
<glyph unicode="&#x43F;" horiz-adv-x="520" d="M214 0H36V538H484V0H306V408H214V0Z"  />
<glyph unicode="&#x440;" horiz-adv-x="520" d="M494 279Q494 235 491 184T473 89T424 16T330 -14Q287 -14 260 4T213 61Q214 45 215 28T216 -5V-175H37V538H210V504Q210 489 210 483T208 465Q225 507 253 529T333 552Q390 552 422 525T470 458T490 369T494 279ZM313 260Q313 339 306 379T264 419Q245 419 235 410T219 381T213 334T212 269Q212 236 212 209T217 161T232 130T262 119Q281 119 291 130T307 161T312 206T313 260Z"  />
<glyph unicode="&#x441;" horiz-adv-x="481" d="M466 223Q466 160 455 115T418 41T348 -1T239 -15Q170 -15 128 5T61 62T29 150T20 265Q20 329 28 382T61 474T132 533T253 555Q314 555 354 542T420 502T455 432T466 331H301Q301 353 300 372T295 407T281 430T253 439Q237 439 226 432T209 406T200 354T197 270Q197 227 198 196T205 143T221 112T252 101Q287 101 295 131T304 223H466H466Z"  />
<glyph unicode="&#x442;" horiz-adv-x="428" d="M-2 408V538H430V408H303V0H125V408H-2Z"  />
<glyph unicode="&#x443;" horiz-adv-x="463" d="M336 9Q323 -42 311 -77T277 -135T221 -168T129 -178Q118 -178 109 -178T91 -178T72 -176T49 -174V-52Q63 -54 69 -54T83 -54Q114 -54 128 -44T150 -2L-2 538H185L223 321Q229 288 233 248T240 169H244Q248 208 251 250T260 325L294 538H473L336 9Z"  />
<glyph unicode="&#x444;" horiz-adv-x="754" d="M732 279Q732 213 725 159T701 67T653 8T574 -13Q542 -13 512 -2T463 42Q464 26 465 9T466 -24V-175H288V-24Q288 -9 289 8T291 42Q273 10 243 -1T180 -13Q132 -13 102 8T54 67T29 159T22 279Q22 421 58 485T180 550Q222 550 249 533T291 490Q291 496 291 506T290 527T289 550T288 569V712H466V569Q466 561 466 550T465 528T464 506T463 490Q478 516 505 533T574 550Q659 550 695 486T732 279ZM553 280Q553 352 545 387T502 422Q488 422 479 413T463 393V143Q468 132 477 123T500 114Q519 114 530 125T546 158T552 211T553 280ZM291 393Q285 404 276 413T252 422Q218 422 210 387T201 280Q201 242 202 211T208 159T223 126T254 114Q267 114 276 123T291 143V393Z"  />
<glyph unicode="&#x445;" horiz-adv-x="481" d="M306 0L265 101Q259 117 253 132T243 165Q239 153 237 146T232 131T226 115T217 93L179 0H-4L140 279L4 538H184Q187 530 193 513T207 479Q215 459 224 436Q229 425 231 413T238 389Q243 405 247 417T257 444L297 538H479L342 279L486 0H306Z"  />
<glyph unicode="&#x446;" horiz-adv-x="547" d="M36 538H214V131H306V538H484V131H543V-137H375V0H36V538Z"  />
<glyph unicode="&#x447;" horiz-adv-x="500" d="M286 0V184Q273 180 244 177T193 173Q105 173 65 211T25 331V538H203V365Q203 346 208 335T220 317T236 310T252 308Q260 308 270 309T286 312V538H464V0H286Z"  />
<glyph unicode="&#x448;" horiz-adv-x="778" d="M36 538H214V131H300V538H478V131H564V538H742V0H36V538Z"  />
<glyph unicode="&#x449;" horiz-adv-x="805" d="M36 538H214V131H300V538H478V131H564V538H742V131H801V-137H633V0H36V538Z"  />
<glyph unicode="&#x44A;" horiz-adv-x="574" d="M382 178Q382 217 366 230T318 243H290V110H319Q353 110 367 126T382 178ZM-2 538H294V354H376Q461 354 508 309T556 176Q556 122 540 88T499 35T441 8T374 0H116V408H-2V538Z"  />
<glyph unicode="&#x44B;" horiz-adv-x="722" d="M471 176Q471 122 455 88T414 35T356 8T289 0H36V538H214V354H291Q376 354 423 309T471 176ZM300 178Q300 217 284 230T236 243H210V110H237Q271 110 285 126T300 178ZM686 538V0H508V538H686Z"  />
<glyph unicode="&#x44C;" horiz-adv-x="494" d="M476 176Q476 122 460 88T419 35T361 8T294 0H36V538H214V354H296Q381 354 428 309T476 176ZM302 178Q302 217 286 230T238 243H210V110H239Q273 110 287 126T302 178Z"  />
<glyph unicode="&#x44D;" horiz-adv-x="481" d="M461 265Q461 202 451 151T415 63T345 6T232 -15Q173 -15 133 -3T67 34T29 100T15 196H177Q178 148 188 125T230 101Q263 101 273 130T285 221H183V325H285Q283 359 279 381T269 416T252 434T229 439Q213 439 204 433T189 414T182 386T180 352H15Q17 405 28 443T65 506T130 543T228 555Q306 555 352 534T422 474T453 383T461 265Z"  />
<glyph unicode="&#x44E;" horiz-adv-x="738" d="M717 275Q717 208 708 155T674 64T603 6T484 -14Q420 -14 379 2T314 48T279 119T265 210H212V0H36V538H212V345H266Q271 394 284 433T324 499T392 540T495 555Q565 555 608 536T676 480T708 392T717 275ZM540 271Q540 323 538 355T531 406T515 432T490 439Q475 439 466 432T450 407T442 356T440 273Q440 221 441 188T448 135T463 108T489 100Q504 100 514 107T530 134T538 187T540 271Z"  />
<glyph unicode="&#x44F;" horiz-adv-x="510" d="M296 0V182H269L205 0H5L103 208Q67 230 48 268T28 360Q28 414 44 448T87 503T146 530T212 538H474V0H296ZM301 426H268Q234 426 221 410T207 359Q207 320 223 307T269 294H301V426Z"  />
<glyph unicode="&#x451;" horiz-adv-x="481" d="M198 241V202Q198 144 208 120T249 96Q275 96 286 116T298 187H460Q459 131 445 93T403 32T336 -2T244 -13Q170 -13 126 8T59 67T28 158T20 274Q20 337 28 388T60 476T128 533T246 554Q316 554 359 534T425 478T457 392T465 279V241H198ZM296 338Q296 386 289 415T248 444Q230 444 220 435T205 412T199 378T198 338H296ZM80 591V720H223V591H80ZM267 591V720H410V591H267Z"  />
<glyph unicode="&#x452;" horiz-adv-x="520" d="M494 19Q494 -26 486 -62T459 -124T406 -163T323 -177Q301 -177 280 -175T246 -172V-51Q250 -51 256 -52T269 -53Q288 -53 297 -47T311 -28T315 2T316 42V164Q316 181 315 196T310 222T298 239T274 246Q258 246 249 240T234 222T228 196T226 166V0H48V436H2V555H48V712H226V555H414V436H226V359Q226 347 225 332T222 304Q239 341 274 362T356 383Q429 383 461 343T494 225V19H494Z"  />
<glyph unicode="&#x453;" horiz-adv-x="390" d="M243 584H130L172 729H340L243 584ZM219 0H41V538H392V408H219V0Z"  />
<glyph unicode="&#x454;" horiz-adv-x="481" d="M466 196Q464 140 452 100T415 35T349 -3T249 -15Q180 -15 136 5T66 62T30 150T20 265Q20 329 27 382T59 474T129 533T253 555Q311 555 351 543T416 507T452 444T466 352H301Q301 370 299 386T292 414T278 432T252 439Q238 439 229 434T213 416T202 381T196 325H298V221H196Q198 160 208 131T251 101Q283 101 293 124T304 196H466H466Z"  />
<glyph unicode="&#x455;" horiz-adv-x="463" d="M446 163Q446 112 428 78T380 23T309 -7T223 -16Q176 -16 138 -8T73 21T31 75T16 159V168H175V163Q175 93 228 93Q277 93 277 140Q277 156 272 165T253 182T217 197T161 217Q121 231 94 247T51 283T27 328T20 388Q20 468 74 510T230 552Q272 552 309 545T374 519T418 470T434 392V383H279V389Q279 418 268 430T231 443Q185 443 185 403Q185 383 198 372T247 349Q296 334 333 321T395 288T433 239T446 163Z"  />
<glyph unicode="&#x456;" horiz-adv-x="258" d="M40 591V720H219V591H40ZM40 0V538H219V0H40Z"  />
<glyph unicode="&#x457;" horiz-adv-x="258" d="M40 0V538H219V0H40ZM146 591V720H289V591H146ZM-31 591V720H112V591H-31Z"  />
<glyph unicode="&#x458;" horiz-adv-x="258" d="M225 -21Q225 -66 218 -96T191 -144T139 -169T53 -177Q31 -177 16 -177T-24 -175V-52Q-16 -53 -12 -53T-1 -53Q18 -53 27 -49T41 -36T45 -15T46 12V538H225V-21ZM46 591V720H225V591H46Z"  />
<glyph unicode="&#x459;" horiz-adv-x="773" d="M756 173Q756 120 740 86T698 33T640 7T575 0H317V408H246L243 240Q242 178 234 132T207 54T154 8T68 -7Q62 -7 53 -7T33 -6T13 -4T-3 -2V121Q2 119 9 119T22 119Q33 119 42 121T57 134T68 169T73 234L78 538H495V346H576Q660 346 708 303T756 173ZM578 174Q578 214 561 227T514 241H490V105H515Q550 105 564 122T578 174Z"  />
<glyph unicode="&#x45A;" horiz-adv-x="763" d="M745 172Q745 119 729 86T687 33T629 7T564 0H306V211H214V0H36V538H214V346H306V538H484V346H565Q649 346 697 303T745 172ZM567 174Q567 214 550 227T503 241H479V104H504Q539 104 553 121T567 174Z"  />
<glyph unicode="&#x45B;" horiz-adv-x="520" d="M316 0V164Q316 181 315 196T310 222T298 239T274 246Q258 246 249 240T234 222T228 196T226 166V0H48V436H2V555H48V712H226V555H414V436H226V359Q226 347 225 332T222 304Q239 341 274 362T356 383Q429 383 461 343T494 225V0H316Z"  />
<glyph unicode="&#x45C;" horiz-adv-x="510" d="M282 584H169L211 729H379L282 584ZM335 0L246 190L211 134V0H36V538H212V400Q212 384 211 369T208 339Q209 343 213 352T224 372T236 395T247 416L317 538H510L361 315L529 0H335Z"  />
<glyph unicode="&#x45E;" horiz-adv-x="463" d="M392 728Q389 660 351 620T240 580Q168 580 130 620T88 728H167Q175 664 239 664Q270 664 289 680T313 728H392ZM336 9Q323 -42 311 -77T277 -135T221 -168T129 -178Q118 -178 109 -178T91 -178T72 -176T49 -174V-52Q63 -54 69 -54T83 -54Q114 -54 128 -44T150 -2L-2 538H185L223 321Q229 288 233 248T240 169H244Q248 208 251 250T260 325L294 538H473L336 9Z"  />
<glyph unicode="&#x45F;" horiz-adv-x="520" d="M344 0V-137H176V0H36V538H214V131H306V538H484V0H344Z"  />
<glyph unicode="&#x490;" horiz-adv-x="444" d="M235 563V0H48V712H279V858H449V563H235Z"  />
<glyph unicode="&#x491;" horiz-adv-x="390" d="M219 408V0H41V538H234V670H392V408H219Z"  />
<glyph unicode="&#x2013;" horiz-adv-x="500" d="M0 362H500V216H0V362Z"  />
<glyph unicode="&#x2014;" horiz-adv-x="1000" d="M80 362H920V216H80V362Z"  />
<glyph unicode="&#x2018;" horiz-adv-x="260" d="M46 520Q46 617 85 664T214 714V628Q178 624 164 604T150 544V532H214V340H46V520Z"  />
<glyph unicode="&#x2019;" horiz-adv-x="260" d="M46 714H214V534Q214 437 175 390T46 340V426Q82 430 96 450T110 510V522H46V714Z"  />
<glyph unicode="&#x201A;" horiz-adv-x="260" d="M46 198H214V18Q214 -79 175 -126T46 -176V-90Q82 -86 96 -66T110 -6V6H46V198Z"  />
<glyph unicode="&#x201C;" horiz-adv-x="481" d="M42 520Q42 617 81 664T210 714V628Q174 624 160 604T146 544V532H210V340H42V520ZM271 520Q271 617 310 664T439 714V628Q403 624 389 604T375 544V532H439V340H271V520Z"  />
<glyph unicode="&#x201D;" horiz-adv-x="481" d="M271 714H439V534Q439 437 400 390T271 340V426Q307 430 321 450T335 510V522H271V714ZM42 714H210V534Q210 437 171 390T42 340V426Q78 430 92 450T106 510V522H42V714Z"  />
<glyph unicode="&#x201E;" horiz-adv-x="481" d="M271 198H439V18Q439 -79 400 -126T271 -176V-90Q307 -86 321 -66T335 -6V6H271V198ZM42 198H210V18Q210 -79 171 -126T42 -176V-90Q78 -86 92 -66T106 -6V6H42V198Z"  />
<glyph unicode="&#x2020;" horiz-adv-x="520" d="M170 714H350V520H512V380H350V-140H170V380H8V520H170V714Z"  />
<glyph unicode="&#x2021;" horiz-adv-x="520" d="M8 194H170V380H8V520H170V714H350V520H512V380H350V194H512V54H350V-140H170V54H8V194Z"  />
<glyph unicode="&#x2022;" horiz-adv-x="500" d="M72 357Q72 394 86 426T124 483T180 521T250 535Q287 535 319 521T376 483T414 427T428 357Q428 320 414 288T376 231T320 193T250 179Q213 179 181 193T124 231T86 287T72 357Z"  />
<glyph unicode="&#x2026;" horiz-adv-x="1000" d="M749 198H917V0H749V198ZM416 198H584V0H416V198ZM83 198H251V0H83V198Z"  />
<glyph unicode="&#x2030;" horiz-adv-x="1111" d="M907 178Q907 143 908 122T913 88T924 71T942 66Q953 66 960 70T970 87T975 121T977 178Q977 212 976 234T971 268T960 285T942 290Q931 290 924 286T914 269T909 234T907 178ZM785 178Q785 230 793 266T819 326T868 359T942 370Q986 370 1016 360T1064 326T1091 267T1099 178Q1099 126 1091 90T1065 30T1016 -3T942 -14Q898 -14 868 -4T820 30T793 89T785 178ZM12 516Q12 568 20 604T46 664T95 697T169 708Q213 708 243 698T291 664T318 605T326 516Q326 464 318 428T292 368T243 335T169 324Q125 324 95 334T47 368T20 427T12 516ZM436 178Q436 230 444 266T470 326T519 359T593 370Q637 370 667 360T715 326T742 267T750 178Q750 126 742 90T716 30T667 -3T593 -14Q549 -14 519 -4T471 30T444 89T436 178ZM134 516Q134 481 135 460T140 426T151 409T169 404Q180 404 187 408T197 425T202 459T204 516Q204 550 203 572T198 606T187 623T169 628Q158 628 151 624T141 607T136 572T134 516ZM484 708H594L277 -14H167L484 708ZM558 178Q558 143 559 122T564 88T575 71T593 66Q604 66 611 70T621 87T626 121T628 178Q628 212 627 234T622 268T611 285T593 290Q582 290 575 286T565 269T560 234T558 178Z"  />
<glyph unicode="&#x2039;" horiz-adv-x="240" d="M42 399L198 503V345L114 289L198 233V75L42 179V399Z"  />
<glyph unicode="&#x203A;" horiz-adv-x="240" d="M42 233L126 289L42 345V503L198 399V179L42 75V233Z"  />
<glyph unicode="&#x20AC;" horiz-adv-x="520" d="M439 516Q423 545 400 568T341 592Q314 592 299 582T275 555T265 517T263 475H431L404 377H262V341V327H396L369 229H264Q265 210 266 188T274 147T294 116T334 103Q358 103 379 113T417 140T449 177T474 216V35Q436 6 399 -4T314 -15Q252 -15 211 2T145 51T107 128T92 229H31L58 327H89V368V377H36L63 475H93Q97 533 111 577T152 652T222 697T326 713Q373 713 410 703T491 674L439 516Z"  />
<glyph unicode="&#x2116;" horiz-adv-x="945" d="M344 0L242 323Q231 356 223 389T207 457H203Q205 439 207 414T211 359T214 300T216 239L219 0H47V699H251L330 457Q336 437 343 412T358 359T371 302T383 246H387Q381 296 379 346T375 447L371 699H547V0H344ZM900 324Q900 277 894 242T870 182T821 146T738 134Q696 134 667 144T620 177T594 237T586 327Q586 379 594 415T621 474T670 506T744 516Q793 516 823 503T871 465T894 405T900 324ZM775 325Q775 359 774 380T770 414T760 430T743 434Q733 434 727 430T717 414T712 380T711 322Q711 290 712 270T717 237T727 220T743 215Q765 215 770 238T775 325ZM586 0V103H900V0H586Z"  />
<glyph unicode="&#x2122;" horiz-adv-x="1000" d="M830 562H828L738 302H652L562 562H560V302H432V714H606L695 495L784 714H958V302H830V562ZM114 610H10V714H358V610H254V302H114V610Z"  />

</font>
</defs>
</svg>
