<?xml  version="1.0" encoding="UTF-8"?>
<!DOCTYPE svg PUBLIC "-//W3C//DTD SVG 1.0//EN" "http://www.w3.org/TR/2001/REC-SVG-20010904/DTD/svg10.dtd" >
<svg xmlns="http://www.w3.org/2000/svg" >
<metadata>
<version>1.0</version>
<id><![CDATA[Swiss 721 W01 Light Condensed]]></id>
<vendor>Monotype Imaging Inc.</vendor>
<credits>
<name>Fonts.com WebFonts</name>
<URL>http://webfonts.fonts.com</URL>
<role>Home of the Web fonts</role>
</credits>
<license>
<URL>http://webfonts.fonts.com/Legal</URL>
</license>
<copyright><![CDATA[Copyright 1990-2003 Bitstream Inc. All rights reserved.]]></copyright>
<trademark></trademark>
<licensee>
<name></name>
</licensee>
</metadata>
<defs >
<font horiz-adv-x="961" id="ec9ad866-7df7-424f-841f-ca5d9b23bf9e">
<font-face font-family="" panose-1="2 11 4 6 2 2 2 3 2 4" ascent="1972" descent="-483" units-per-em="2048" alphabetic="0">
</font-face>
<missing-glyph horiz-adv-x="0" />

<glyph unicode="&#xA;" />
<glyph unicode="&#xD;" horiz-adv-x="0" />
<glyph unicode=" " horiz-adv-x="479" />
<glyph unicode="!" horiz-adv-x="469" d="M166 0V176H301V0H166ZM199 360L166 1526H301L276 360H199Z"  />
<glyph unicode="&quot;" horiz-adv-x="551" d="M451 1434V881H365V1434H451ZM186 1434V881H100V1434H186Z"  />
<glyph unicode="#" horiz-adv-x="1575" d="M979 866H709L610 584H879L979 866ZM915 1454L741 956H1012L1188 1454H1298L1124 956H1446L1415 866H1092L991 584H1339L1309 494H958L784 0H672L848 494H578L399 0H289L463 494H129L160 584H496L596 866H236L264 956H629L805 1454H915Z"  />
<glyph unicode="$" horiz-adv-x="956" d="M430 862V1395Q332 1381 276 1314T219 1145Q219 1048 273 975T430 862ZM430 -139V4Q255 27 165 134T74 426Q74 433 75 449T76 473H195Q195 306 251 223T430 125V727Q256 804 175 904T94 1141Q94 1292 184 1388T426 1497V1636H516V1501Q669 1483 751 1391T834 1147V1120L719 1121Q716 1241 666 1308T518 1389V827Q722 737 801 644T881 408Q881 237 785 131T518 6V-139H430ZM516 121Q630 142 692 214T754 399Q754 505 698 572T516 684V121Z"  />
<glyph unicode="%" horiz-adv-x="1370" d="M1004 647Q928 647 890 578T852 369Q852 228 889 159T1004 90Q1080 90 1118 159T1157 369Q1157 508 1119 577T1004 647ZM1004 739Q1129 739 1199 642T1270 369Q1270 193 1200 97T1004 0Q877 0 807 96T737 369Q737 545 807 642T1004 739ZM365 1436Q288 1436 250 1366T211 1157Q211 1017 249 948T365 879Q441 879 478 948T516 1157Q516 1298 479 1367T365 1436ZM100 1157Q100 1332 170 1429T367 1526Q493 1526 563 1429T633 1157Q633 982 563 885T367 788Q241 788 171 885T100 1157ZM324 -29L952 1556H1044L418 -29H324Z"  />
<glyph unicode="&amp;" horiz-adv-x="1260" d="M840 252L489 766Q367 689 306 597T244 397Q244 262 328 174T543 86Q632 86 707 128T840 252ZM1012 0L909 147Q833 59 739 15T528 -29Q343 -29 229 85T115 383Q115 514 186 626T424 864Q340 975 302 1066T264 1247Q264 1374 339 1451T539 1528Q676 1528 752 1457T829 1260Q829 1142 772 1043T588 844L901 375Q930 447 945 524T963 684H1081Q1078 563 1052 460T977 266L1153 0H1012ZM518 936Q615 1008 661 1083T707 1247Q707 1330 665 1376T547 1423Q476 1423 432 1376T387 1253Q387 1183 418 1108T518 936Z"  />
<glyph unicode="&apos;" horiz-adv-x="285" d="M186 1434V881H100V1434H186Z"  />
<glyph unicode="(" horiz-adv-x="627" d="M549 -389H457Q310 -157 236 84T162 569Q162 813 236 1053T457 1526H549Q420 1289 356 1050T291 569Q291 327 355 87T549 -389Z"  />
<glyph unicode=")" horiz-adv-x="627" d="M76 -389Q204 -153 269 87T334 569Q334 811 270 1050T76 1526H170Q317 1293 391 1053T465 569Q465 325 391 84T170 -389H76Z"  />
<glyph unicode="*" horiz-adv-x="958" d="M313 946L242 1001L399 1214L168 1294L199 1384L436 1292L432 1526H522V1292L758 1386L788 1294L553 1214L721 999L651 946L475 1161L313 946Z"  />
<glyph unicode="+" horiz-adv-x="1706" d="M893 1221V651H1452V569H893V0H813V569H254V651H813V1221H893Z"  />
<glyph unicode="&#x2c;" horiz-adv-x="479" d="M168 0V180H309V0Q309 -119 275 -187T168 -283V-203Q206 -181 224 -143T242 -43Q242 -25 242 -17T239 0H168Z"  />
<glyph unicode="-" horiz-adv-x="711" d="M100 506V614H645V506H100Z"  />
<glyph unicode="." horiz-adv-x="479" d="M168 0V180H309V0H168Z"  />
<glyph unicode="/" horiz-adv-x="584" d="M35 -190H-63L506 1526H610L35 -190Z"  />
<glyph unicode="0" horiz-adv-x="956" d="M231 750Q231 374 287 228T479 82Q613 82 669 227T725 750Q725 1127 669 1272T479 1417Q344 1417 288 1271T231 750ZM100 752Q100 983 117 1118T170 1327Q221 1429 298 1480T479 1532Q582 1532 659 1480T786 1327Q823 1251 840 1111T858 752Q858 525 841 387T786 174Q737 73 660 21T479 -31Q376 -31 299 21T170 174Q134 247 117 383T100 752Z"  />
<glyph unicode="1" horiz-adv-x="956" d="M459 0L458 1149Q400 1140 342 1136T221 1130Q188 1130 172 1130T139 1133V1210Q312 1217 391 1283T487 1503H584V0H459Z"  />
<glyph unicode="2" horiz-adv-x="956" d="M105 0Q106 104 125 189T184 344Q233 433 408 606L432 631L445 644Q721 919 721 1137Q721 1266 660 1341T494 1417Q371 1417 309 1335T244 1088L127 1087V1110Q127 1306 222 1419T481 1532Q651 1532 749 1423T848 1126Q848 1057 836 994T801 879Q751 765 586 611Q560 586 547 573Q360 395 302 304T242 125H852V0H105Z"  />
<glyph unicode="3" horiz-adv-x="956" d="M102 403H225Q228 255 293 172T471 88Q588 88 658 176T729 412Q729 578 651 656T406 735Q380 735 367 735T342 734V846H350Q528 846 611 922T694 1161Q694 1284 636 1352T475 1421Q373 1421 317 1347T260 1139V1133H137Q142 1324 229 1429T471 1534Q628 1534 722 1432T817 1161Q817 1034 766 943T614 803Q740 760 800 665T860 416Q860 209 756 90T469 -29Q298 -29 201 85T102 403Z"  />
<glyph unicode="4" horiz-adv-x="956" d="M604 0V391H84V502L604 1503H735V502H872V391H735V0H604ZM213 502H604L618 1307L213 502Z"  />
<glyph unicode="5" horiz-adv-x="956" d="M103 377H225Q239 231 296 158T455 84Q583 84 654 197T725 516Q725 691 659 789T475 887Q399 887 340 848T246 737H139L231 1503H797V1384H336L276 913Q329 954 384 973T502 993Q663 993 758 867T854 524Q854 253 752 111T455 -31Q296 -31 203 77T103 377Z"  />
<glyph unicode="6" horiz-adv-x="956" d="M238 822Q298 896 363 931T504 967Q665 967 761 837T858 483Q858 242 758 106T481 -31Q285 -31 192 142T98 680Q98 1121 196 1326T506 1532Q645 1532 731 1441T821 1198H702Q696 1300 644 1358T508 1417Q378 1417 310 1266T238 822ZM494 82Q604 82 665 187T727 485Q727 667 666 762T487 858Q377 858 314 770T250 524Q250 310 313 196T494 82Z"  />
<glyph unicode="7" horiz-adv-x="956" d="M246 0Q269 387 388 735T719 1380H113V1503H844V1370Q639 1093 521 746T377 0H246Z"  />
<glyph unicode="8" horiz-adv-x="956" d="M311 817Q229 870 188 950T147 1141Q147 1324 235 1428T479 1532Q635 1532 723 1428T811 1141Q811 1032 771 952T645 817Q750 771 803 673T856 428Q856 210 758 90T479 -31Q300 -31 200 89T100 428Q100 575 153 673T311 817ZM678 1149Q678 1278 626 1349T479 1421Q385 1421 332 1349T279 1149Q279 1016 332 941T479 866Q573 866 625 940T678 1149ZM725 428Q725 580 658 671T479 762Q367 762 299 672T231 430Q231 270 296 177T471 84Q592 84 658 174T725 428Z"  />
<glyph unicode="9" horiz-adv-x="956" d="M718 681Q658 607 594 572T453 537Q291 537 195 667T98 1020Q98 1262 197 1397T473 1532Q671 1532 764 1360T858 823Q858 383 759 177T449 -29Q310 -29 225 61T136 305H254Q260 203 312 145T449 86Q578 86 647 238T718 681ZM463 1421Q352 1421 291 1316T229 1018Q229 836 290 741T469 645Q580 645 643 733T707 979Q707 1194 644 1307T463 1421Z"  />
<glyph unicode=":" horiz-adv-x="479" d="M172 887V1057H307V887H172ZM172 0V170H307V0H172Z"  />
<glyph unicode=";" horiz-adv-x="479" d="M174 887V1057H309V887H174ZM168 0V180H309V2Q309 -118 275 -187T168 -283V-203Q206 -181 224 -143T242 -43Q242 -25 242 -17T239 0H168Z"  />
<glyph unicode="&lt;" horiz-adv-x="1706" d="M1442 1034L397 610L1442 186V98L264 580V641L1442 1124V1034Z"  />
<glyph unicode="=" horiz-adv-x="1706" d="M1452 469V387H254V469H1452ZM1452 831V752H254V831H1452Z"  />
<glyph unicode="&gt;" horiz-adv-x="1706" d="M1442 641V580L264 98V186L1309 610L264 1034V1124L1442 641Z"  />
<glyph unicode="?" horiz-adv-x="811" d="M289 0V184H428V0H289ZM307 371Q306 382 306 393T305 428Q305 534 332 618T422 788Q437 809 468 848Q610 1028 610 1180Q610 1307 554 1374T393 1442Q282 1442 224 1365T166 1139V1124H43V1157Q43 1345 136 1450T393 1556Q553 1556 647 1459T741 1194Q741 1144 733 1096T707 999Q678 925 556 767Q516 716 496 688Q454 632 433 553T412 371H307Z"  />
<glyph unicode="@" horiz-adv-x="2048" d="M1303 827L1364 956H1444L1307 403Q1297 367 1292 339T1286 295Q1286 251 1316 227T1403 203Q1451 203 1503 222T1606 279Q1707 353 1768 486T1829 768Q1829 1041 1630 1207T1104 1374Q936 1374 794 1326T535 1182Q381 1054 303 885T225 510Q225 183 446 -12T1038 -207Q1199 -207 1362 -157T1661 -14L1690 -59Q1544 -169 1382 -224T1042 -279Q855 -279 699 -233T422 -94Q270 21 196 173T121 522Q121 684 171 829T319 1094Q463 1269 664 1359T1114 1450Q1274 1450 1418 1406T1667 1282Q1795 1184 1861 1056T1927 778Q1927 609 1864 470T1683 238Q1616 184 1538 156T1378 127Q1283 127 1235 163T1186 272Q1186 284 1189 306Q1190 309 1190 311Q1141 223 1065 175T899 127Q745 127 666 210T586 453Q586 681 720 839T1047 997Q1142 997 1207 954T1303 827ZM1219 467L1282 721Q1260 820 1201 872T1049 924Q897 924 794 786T690 446Q690 331 747 266T907 201Q1018 201 1103 273T1219 467Z"  />
<glyph unicode="A" horiz-adv-x="1034" d="M33 0L444 1526H594L1001 0H872L743 479H283L152 0H33ZM305 596H717L512 1358L305 596Z"  />
<glyph unicode="B" horiz-adv-x="1042" d="M143 0V1526H414Q674 1526 785 1438T897 1151Q897 1018 848 933T698 803Q826 752 886 665T946 440Q946 215 829 108T465 0H143ZM270 115H449Q644 115 728 191T813 440Q813 594 727 666T459 739H270V115ZM270 852H453Q618 852 693 922T768 1147Q768 1292 693 1352T434 1413H270V852Z"  />
<glyph unicode="C" horiz-adv-x="1110" d="M995 512Q977 244 868 107T563 -31Q331 -31 222 161T113 764Q113 1173 222 1364T563 1556Q756 1556 868 1431T985 1084L854 1083Q846 1253 770 1346T563 1440Q401 1440 324 1276T246 764Q246 417 323 253T563 88Q695 88 774 198T866 512H995Z"  />
<glyph unicode="D" horiz-adv-x="1133" d="M276 115H453Q700 115 791 248T883 762Q883 1145 792 1279T453 1413H276V115ZM143 0V1526H461Q769 1526 894 1356T1020 764Q1020 343 894 172T461 0H143Z"  />
<glyph unicode="E" horiz-adv-x="928" d="M143 0V1526H844V1407H281V856H786V739H281V119H844V0H143Z"  />
<glyph unicode="F" horiz-adv-x="903" d="M143 0V1526H844V1407H281V856H786V739H281V0H143Z"  />
<glyph unicode="G" horiz-adv-x="1128" d="M537 756H993V0H893L879 156Q819 65 737 17T557 -31Q330 -31 222 163T113 764Q113 1177 223 1368T571 1559Q753 1559 859 1444T983 1114H854Q837 1270 763 1355T569 1440Q403 1440 325 1277T246 764Q246 417 323 253T563 88Q719 88 798 229T877 649H537V756Z"  />
<glyph unicode="H" horiz-adv-x="1145" d="M143 0V1526H270V879H874V1526H1001V0H874V760H270V0H143Z"  />
<glyph unicode="I" horiz-adv-x="424" d="M147 0V1526H276V0H147Z"  />
<glyph unicode="J" horiz-adv-x="801" d="M37 442H160V410Q160 242 207 162T352 82Q449 82 487 150T526 428V1526H655V326Q655 148 579 59T350 -31Q195 -31 115 71T35 371Q35 399 35 414T37 442Z"  />
<glyph unicode="K" horiz-adv-x="1006" d="M143 0V1526H270V743L842 1526H987L532 905L1006 0H870L453 799L270 551V0H143Z"  />
<glyph unicode="L" horiz-adv-x="877" d="M143 0V1526H266V115H831V0H143Z"  />
<glyph unicode="M" horiz-adv-x="1462" d="M143 0V1526H356L731 178L1108 1526H1319V0H1196V1417L801 0H664L266 1417V0H143Z"  />
<glyph unicode="N" horiz-adv-x="1135" d="M143 0V1526H289L870 195V1526H991V0H842L264 1305V0H143Z"  />
<glyph unicode="O" horiz-adv-x="1126" d="M244 764Q244 419 322 254T563 88Q726 88 803 252T881 764Q881 1111 804 1275T563 1440Q400 1440 322 1275T244 764ZM113 764Q113 1173 222 1364T563 1556Q796 1556 905 1365T1014 764Q1014 354 905 162T563 -31Q332 -31 223 161T113 764Z"  />
<glyph unicode="P" horiz-adv-x="1012" d="M145 0V1526H436Q604 1526 680 1507T809 1442Q869 1391 900 1310T932 1124Q932 891 809 794T375 696H268V0H145ZM268 813H455Q549 813 601 825T694 864Q750 900 777 961T805 1112Q805 1283 727 1348T416 1413H268V813Z"  />
<glyph unicode="Q" horiz-adv-x="1126" d="M715 137L575 250L647 336L788 221Q837 310 859 438T881 764Q881 1111 804 1275T563 1440Q401 1440 324 1276T246 764Q246 421 324 254T561 86Q600 86 638 99T715 137ZM815 57Q760 13 696 -9T557 -31Q330 -31 222 163T113 764Q113 1173 222 1364T563 1556Q800 1556 907 1361T1014 725Q1014 510 983 365T889 139L1071 -2L1004 -92L815 57Z"  />
<glyph unicode="R" horiz-adv-x="1042" d="M139 0V1526H438Q686 1526 802 1434T918 1145Q918 999 862 908T690 772Q792 742 837 670T893 436Q896 388 899 302Q908 62 971 0H823Q786 44 777 280Q774 345 772 381Q762 586 707 648T508 711H268V0H139ZM268 823H399Q612 823 701 894T791 1130Q791 1278 706 1345T434 1413H268V823Z"  />
<glyph unicode="S" horiz-adv-x="1042" d="M92 434H221Q227 270 302 179T508 88Q653 88 736 170T819 395Q819 465 796 515T721 608Q674 648 540 698Q481 720 451 733Q273 807 198 906T123 1161Q123 1333 236 1444T526 1556Q706 1556 809 1454T913 1171V1161H791Q783 1294 717 1366T535 1438Q413 1438 334 1358T254 1155Q254 1099 270 1052T319 965Q372 903 556 833Q589 820 606 813Q792 740 870 644T948 395Q948 196 833 82T518 -33Q318 -33 208 88T92 434Z"  />
<glyph unicode="T" horiz-adv-x="877" d="M373 0V1403H25V1526H852V1403H506V0H373Z"  />
<glyph unicode="U" horiz-adv-x="1120" d="M977 1526V403Q977 192 871 81T561 -31Q356 -31 250 80T143 403V1526H270V498Q270 364 279 311T311 219Q349 155 413 121T561 86Q643 86 708 121T811 219Q832 255 841 300T850 428V498V1526H977Z"  />
<glyph unicode="V" horiz-adv-x="985" d="M414 0L12 1526H143L489 186L848 1526H973L559 0H414Z"  />
<glyph unicode="W" horiz-adv-x="1489" d="M45 1526H172L416 227L666 1526H821L1075 227L1319 1526H1444L1145 0H997L739 1303L485 0H342L45 1526Z"  />
<glyph unicode="X" horiz-adv-x="946" d="M0 0L395 786L27 1526H166L475 922L795 1526H946L551 791L946 0H801L473 659L143 0H0Z"  />
<glyph unicode="Y" horiz-adv-x="940" d="M403 0V651L2 1526H137L465 807L797 1526H940L530 651V0H403Z"  />
<glyph unicode="Z" horiz-adv-x="872" d="M51 0V131L684 1409H86V1526H819V1395L186 121H819V0H51Z"  />
<glyph unicode="[" horiz-adv-x="627" d="M244 -389V1526H559V1427H362V-289H559V-389H244Z"  />
<glyph unicode="\" horiz-adv-x="584" d="M512 -190L-63 1526H39L608 -190H512Z"  />
<glyph unicode="]" horiz-adv-x="627" d="M381 -389H66V-289H262V1427H66V1526H381V-389Z"  />
<glyph unicode="^" horiz-adv-x="2048" d="M1081 1458L1622 901H1497L1024 1370L549 901H424L963 1458H1081Z"  />
<glyph unicode="_" horiz-adv-x="1024" d="M1024 -403V-483H0V-403H1024Z"  />
<glyph unicode="`" horiz-adv-x="1024" d="M631 1247H545L297 1518H457L631 1247Z"  />
<glyph unicode="a" horiz-adv-x="811" d="M766 -4Q738 -10 719 -12T682 -14Q637 -14 607 9T559 82Q511 25 449 -4T311 -33Q187 -33 117 49T47 279Q47 408 109 486T326 625Q358 637 413 656Q561 707 561 791V885Q561 975 522 1016T395 1057Q302 1057 254 1004T202 846H86V870Q86 999 171 1075T399 1151Q484 1151 542 1130T635 1065Q659 1035 669 995T680 877V819V209Q680 124 695 104T754 84H766V-4ZM557 602Q297 501 235 439T172 279Q172 184 216 129T336 74Q450 74 503 156T557 416V602Z"  />
<glyph unicode="b" horiz-adv-x="932" d="M133 0V1526H252V1020Q293 1089 352 1123T489 1157Q663 1157 748 1009T834 559Q834 251 753 110T496 -31Q420 -31 361 5T252 117V0H133ZM252 563Q252 297 305 185T481 72Q599 72 652 186T705 559Q705 812 650 930T477 1049Q357 1049 305 938T252 563Z"  />
<glyph unicode="c" horiz-adv-x="868" d="M786 383Q773 179 690 74T461 -31Q294 -31 208 119T121 561Q121 856 208 1004T467 1153Q603 1153 685 1061T774 805H657Q653 915 603 979T471 1044Q363 1044 306 920T248 561Q248 332 306 205T467 78Q554 78 606 158T666 383H786Z"  />
<glyph unicode="d" horiz-adv-x="932" d="M678 563Q678 827 626 938T453 1049Q335 1049 280 931T225 559Q225 300 278 186T449 72Q571 72 624 184T678 563ZM797 1526V0H678V117Q628 41 569 5T434 -31Q258 -31 177 110T96 559Q96 861 181 1009T440 1157Q519 1157 577 1123T678 1020V1526H797Z"  />
<glyph unicode="e" horiz-adv-x="856" d="M754 360Q743 169 660 69T428 -31Q259 -31 178 113T96 559Q96 861 180 1006T438 1151Q596 1151 678 1028T760 666V571H225V508Q225 291 276 184T428 76Q521 76 574 150T633 360H754ZM225 672H635Q635 680 636 697T637 721Q637 877 585 962T436 1047Q333 1047 279 954T225 682V672Z"  />
<glyph unicode="f" horiz-adv-x="467" d="M166 0V1024H49V1124H166V1274Q166 1415 213 1473T371 1532Q388 1532 425 1529Q433 1528 436 1528V1426Q429 1426 420 1426T395 1427Q335 1427 313 1396T291 1249V1124H436V1024H291V0H166Z"  />
<glyph unicode="g" horiz-adv-x="932" d="M678 559Q678 825 625 938T449 1051Q331 1051 278 937T225 563Q225 310 280 192T453 74Q573 74 625 185T678 559ZM678 100Q637 32 579 -1T440 -35Q267 -35 182 113T96 563Q96 871 177 1012T434 1153Q510 1153 569 1118T678 1006V1122H797V76Q797 -184 715 -286T432 -389Q306 -389 222 -317T130 -127H250Q262 -203 315 -242T459 -281Q566 -281 622 -206T678 12V100Z"  />
<glyph unicode="h" horiz-adv-x="903" d="M129 0V1526H252V1012Q298 1080 366 1116T518 1153Q654 1153 716 1068T778 797V0H655V758Q655 930 617 987T483 1044Q394 1044 323 986T252 858V0H129Z"  />
<glyph unicode="i" horiz-adv-x="453" d="M164 0V1124H289V0H164ZM160 1331V1526H295V1331H160Z"  />
<glyph unicode="j" horiz-adv-x="483" d="M319 -115Q319 -280 274 -335T109 -391Q103 -391 89 -390T68 -389V-274Q72 -275 78 -276Q98 -278 109 -279Q158 -279 176 -248T195 -88V-59V1124H319V-115ZM190 1331V1526H326V1331H190Z"  />
<glyph unicode="k" horiz-adv-x="770" d="M129 0V1526H248V598L616 1124H756L451 698L768 0H639L371 596L248 426V0H129Z"  />
<glyph unicode="l" horiz-adv-x="469" d="M174 0V1526H297V0H174Z"  />
<glyph unicode="m" horiz-adv-x="1427" d="M129 0V1124H240V1001Q296 1078 365 1115T518 1153Q605 1153 668 1112T760 993Q816 1074 886 1113T1044 1153Q1180 1153 1242 1068T1305 797V0H1186V758Q1186 938 1148 990T1012 1042Q925 1042 852 985T778 866V0H659V758Q659 939 621 990T485 1042Q397 1042 325 984T252 860V0H129Z"  />
<glyph unicode="n" horiz-adv-x="903" d="M655 0V758Q655 936 618 990T485 1044Q396 1044 324 985T252 858V0H129V1124H240V1001Q296 1080 362 1116T514 1153Q652 1153 715 1069T778 797V0H655Z"  />
<glyph unicode="o" horiz-adv-x="915" d="M225 559Q225 321 283 200T457 78Q572 78 631 200T690 559Q690 796 631 918T457 1040Q342 1040 284 919T225 559ZM96 559Q96 855 186 1003T457 1151Q637 1151 727 1003T817 559Q817 263 728 116T457 -31Q275 -31 186 116T96 559Z"  />
<glyph unicode="p" horiz-adv-x="932" d="M252 557Q252 294 304 184T477 74Q594 74 649 192T705 563Q705 822 652 935T481 1049Q359 1049 306 936T252 557ZM133 -389V1124H252V1004Q302 1080 361 1115T496 1151Q672 1151 753 1011T834 563Q834 261 749 113T489 -35Q410 -35 352 -2T252 100V-389H133Z"  />
<glyph unicode="q" horiz-adv-x="932" d="M678 557Q678 823 625 936T449 1049Q331 1049 278 936T225 563Q225 310 280 192T453 74Q573 74 625 184T678 557ZM678 100Q637 32 579 -1T440 -35Q267 -35 182 113T96 563Q96 871 177 1011T434 1151Q512 1151 570 1116T678 1004V1120H797V-389H678V100Z"  />
<glyph unicode="r" horiz-adv-x="551" d="M129 0V1124H248V1001Q286 1073 345 1107T494 1141H516V1020Q362 1014 305 942T248 651V0H129Z"  />
<glyph unicode="s" horiz-adv-x="807" d="M78 305H193Q193 193 246 134T399 74Q495 74 550 129T606 281Q606 425 357 554Q332 567 319 573Q186 643 144 706T102 881Q102 1003 178 1078T379 1153Q530 1153 608 1076T692 842H580Q566 948 520 999T393 1051Q310 1051 263 1006T215 883Q215 752 488 613Q520 596 537 588Q630 540 679 462T729 283Q729 141 639 54T401 -33Q245 -33 162 52T78 295V305Z"  />
<glyph unicode="t" horiz-adv-x="471" d="M426 -6Q405 -11 384 -13T334 -16Q231 -16 194 32T156 270V1024H43V1124H156V1442H274V1124H426V1024H274V246Q274 133 293 107T367 80Q378 80 393 81T426 86V-6Z"  />
<glyph unicode="u" horiz-adv-x="903" d="M248 1124V365Q248 187 285 134T418 80Q507 80 579 139T651 266V1124H774V0H664V123Q607 45 541 8T389 -29Q251 -29 188 55T125 326V1124H248Z"  />
<glyph unicode="v" horiz-adv-x="778" d="M328 0L23 1124H145L391 219L633 1124H754L451 0H328Z"  />
<glyph unicode="w" horiz-adv-x="1155" d="M33 1124H147L336 229L512 1124H639L821 229L1008 1124H1120L879 0H756L575 879L397 0H270L33 1124Z"  />
<glyph unicode="x" horiz-adv-x="729" d="M-6 0L295 594L20 1124H152L362 696L586 1124H717L438 586L735 0H602L362 471L121 0H-6Z"  />
<glyph unicode="y" horiz-adv-x="809" d="M432 -98Q384 -269 321 -330T141 -391Q127 -391 110 -389T63 -381V-276Q79 -281 94 -283T125 -285Q219 -285 273 -209T328 -4Q328 38 308 114Q306 123 305 127L45 1124H166L399 219L647 1124H770L432 -98Z"  />
<glyph unicode="z" horiz-adv-x="696" d="M47 0V106L518 1020H74V1124H649V1006L178 106H649V0H47Z"  />
<glyph unicode="{" horiz-adv-x="1024" d="M848 1389H811Q676 1389 629 1338T582 1124V883Q582 708 539 635T387 530Q496 498 539 426T582 178V-63Q582 -225 628 -275T809 -326H848V-414H805Q616 -414 548 -340T479 -39V201Q479 359 421 423T221 487Q214 487 200 486T176 485V575Q186 574 196 574T225 573Q364 573 421 637T479 860V1100Q479 1327 547 1402T805 1477H848V1389Z"  />
<glyph unicode="|" horiz-adv-x="1024" d="M557 1565V-483H467V1565H557Z"  />
<glyph unicode="}" horiz-adv-x="1024" d="M545 1100V860Q545 702 603 638T803 573Q810 573 824 574T848 575V485Q839 485 825 486T803 487Q661 487 603 423T545 201V-39Q545 -265 477 -339T219 -414H176V-326H215Q349 -326 395 -276T442 -63V178Q442 352 485 425T639 530Q529 562 486 635T442 883V1124Q442 1286 395 1337T213 1389H176V1477H219Q408 1477 476 1402T545 1100Z"  />
<glyph unicode="~" horiz-adv-x="1706" d="M1530 647Q1424 573 1328 537T1143 500Q1044 500 877 561Q861 567 855 569Q843 573 822 581Q655 641 565 641Q482 641 390 604T178 481V573Q283 647 379 683T565 719Q665 719 836 658Q848 653 855 651Q863 648 882 641Q1050 580 1143 580Q1226 580 1318 617T1530 739V647Z"  />
<glyph unicode="&#xA0;" horiz-adv-x="956" />
<glyph unicode="&#xA1;" horiz-adv-x="469" d="M268 1165L301 0H166L193 1165H268ZM301 1526V1352H166V1526H301Z"  />
<glyph unicode="&#xA2;" horiz-adv-x="956" d="M811 414Q797 223 727 121T530 2V-264H436V2Q293 21 218 171T143 592Q143 858 217 1008T436 1184V1409H530V1184Q647 1176 720 1082T799 836H680Q675 947 623 1013T489 1079Q383 1079 327 954T270 592Q270 361 328 236T494 111Q580 111 630 188T690 413L811 414Z"  />
<glyph unicode="&#xA3;" horiz-adv-x="956" d="M74 53Q190 152 250 262T311 485Q311 534 301 586T268 698H61V780H238Q187 902 162 997T137 1163Q137 1328 237 1431T498 1534Q655 1534 754 1425T854 1141Q854 1120 854 1109T852 1088L743 1087V1102Q743 1258 679 1341T496 1425Q391 1425 327 1355T262 1167Q262 1093 291 997T379 780H684V698H401Q415 638 421 594T428 514Q428 414 392 322T283 139Q305 143 327 145T375 147Q452 147 557 120T694 92Q727 92 765 105T852 147L895 59Q840 19 795 1T709 -18Q644 -18 526 17T348 53Q292 53 243 33T145 -31L74 53Z"  />
<glyph unicode="&#xA4;" horiz-adv-x="956" d="M733 512H864Q849 245 755 107T494 -31Q318 -31 222 122T111 582H-6L33 670H106V721V778V856H-39L0 944H111Q124 1248 220 1402T494 1556Q657 1556 753 1431T854 1084H725Q720 1254 659 1349T494 1444Q383 1444 320 1316T248 944H629L592 856H244Q244 841 243 810T242 764Q242 749 243 718T244 670H516L479 582H246Q256 337 319 211T494 84Q599 84 661 195T733 512Z"  />
<glyph unicode="&#xA5;" horiz-adv-x="956" d="M938 1497L705 1018H915V930H662L573 741H915V653H528V0H406V653H25V741H360L272 930H25V1018H231L2 1497H137L469 780L803 1497H938Z"  />
<glyph unicode="&#xA6;" horiz-adv-x="1024" d="M557 408V-350H467V408H557ZM557 1432V674H467V1432H557Z"  />
<glyph unicode="&#xA7;" horiz-adv-x="958" d="M618 264Q708 339 745 397T782 518Q782 655 391 929L340 965Q250 890 213 832T176 711Q176 574 568 300L618 264ZM141 27H244V20Q244 -100 302 -168T463 -236Q563 -236 622 -180T682 -29Q682 97 438 264Q381 304 350 326Q189 441 129 526T68 711Q68 793 118 866T279 1018Q224 1068 196 1128T168 1257Q168 1390 256 1474T485 1559Q629 1559 717 1471T805 1237Q805 1232 804 1221T803 1202H698V1208Q698 1327 641 1395T485 1464Q390 1464 333 1408T276 1257Q276 1132 521 964Q578 925 608 903Q768 789 828 704T889 518Q889 435 840 362T680 211Q734 162 761 102T788 -29Q788 -162 700 -246T467 -330Q315 -330 227 -243T139 -6Q139 -2 140 9T141 27Z"  />
<glyph unicode="&#xA8;" horiz-adv-x="1024" d="M322 1290V1442H436V1290H322ZM584 1290V1442H698V1290H584Z"  />
<glyph unicode="&#xA9;" horiz-adv-x="1706" d="M1081 918Q1061 999 1002 1044T854 1090Q728 1090 658 993T588 719Q588 550 659 452T854 354Q945 354 1010 406T1094 547H1196Q1185 424 1088 346T848 268Q675 268 573 391T471 725Q471 930 578 1053T860 1176Q992 1176 1082 1104T1186 918H1081ZM1511 721Q1511 854 1462 973T1321 1186Q1226 1281 1106 1330T852 1380Q719 1380 601 1331T391 1190Q296 1093 246 972T195 721Q195 591 245 472T389 258Q483 164 602 114T852 63Q982 63 1103 114T1321 260Q1414 352 1462 469T1511 721ZM852 1452Q1001 1452 1134 1397T1372 1237Q1475 1135 1529 1002T1583 721Q1583 571 1530 441T1372 209Q1265 103 1131 47T852 -10Q707 -10 575 45T338 207Q233 311 178 443T123 721Q123 866 179 1000T340 1241Q441 1344 572 1398T852 1452Z"  />
<glyph unicode="&#xAA;" horiz-adv-x="608" d="M575 739Q570 738 562 737Q528 731 512 731Q478 731 455 748T420 799Q385 759 338 739T233 719Q140 719 88 776T35 936Q35 1025 81 1080T244 1180Q267 1188 309 1201Q422 1236 422 1294V1360Q422 1424 393 1452T297 1481Q226 1481 190 1444T151 1333H66V1352Q66 1441 129 1493T299 1546Q363 1546 406 1532T477 1487Q495 1467 502 1440T510 1356V1315V887Q510 829 521 815T565 801H575V739ZM418 1163Q224 1093 177 1050T129 936Q129 870 162 832T252 793Q337 793 377 851T418 1032V1163Z"  />
<glyph unicode="&#xAB;" horiz-adv-x="918" d="M504 627L801 850V729L580 561L801 395V274L504 496V627ZM117 627L416 850V729L193 561L416 395V274L117 496V627Z"  />
<glyph unicode="&#xAC;" horiz-adv-x="1706" d="M1452 856V354H1374V774H254V856H1452Z"  />
<glyph unicode="&#xAD;" horiz-adv-x="711" d="M100 506V614H645V506H100Z"  />
<glyph unicode="&#xAE;" horiz-adv-x="1706" d="M852 1077H684V764H852Q997 764 1051 800T1106 926Q1106 1004 1045 1040T852 1077ZM874 1155Q1054 1155 1138 1099T1223 922Q1223 833 1168 773T1020 702L1210 309H1079L897 686H684V309H569V1155H874ZM1511 721Q1511 854 1462 973T1321 1186Q1226 1281 1106 1330T852 1380Q719 1380 601 1331T391 1190Q296 1093 246 972T195 721Q195 591 245 472T389 258Q483 164 602 114T852 63Q982 63 1103 114T1321 260Q1414 352 1462 469T1511 721ZM852 1452Q1001 1452 1134 1397T1372 1237Q1475 1135 1529 1002T1583 721Q1583 571 1530 441T1372 209Q1265 103 1131 47T852 -10Q707 -10 575 45T338 207Q233 311 178 443T123 721Q123 866 179 1000T340 1241Q441 1344 572 1398T852 1452Z"  />
<glyph unicode="&#xAF;" horiz-adv-x="1024" d="M291 1307V1409H733V1307H291Z"  />
<glyph unicode="&#xB0;" horiz-adv-x="674" d="M551 1176Q551 1263 488 1326T338 1389Q249 1389 187 1327T125 1176Q125 1087 187 1025T338 963Q426 963 488 1025T551 1176ZM338 1450Q450 1450 530 1370T610 1176Q610 1062 530 983T336 903Q221 903 142 982T63 1176Q63 1290 143 1370T338 1450Z"  />
<glyph unicode="&#xB1;" horiz-adv-x="1706" d="M1452 141V59H254V141H1452ZM893 1161V807H1452V727H893V375H813V727H254V807H813V1161H893Z"  />
<glyph unicode="&#xB2;" horiz-adv-x="631" d="M70 600Q70 662 82 713T121 807Q157 863 278 973L285 979L290 984Q475 1151 475 1282Q475 1360 435 1405T326 1450Q245 1450 205 1402T162 1254L84 1253V1266Q84 1383 147 1451T317 1520Q429 1520 494 1455T559 1276Q559 1233 552 1196T528 1126Q497 1060 389 969Q370 952 360 944Q240 840 201 784T160 676H563V600H70Z"  />
<glyph unicode="&#xB3;" horiz-adv-x="631" d="M68 842H149Q151 753 193 703T311 653Q389 653 435 705T481 848Q481 947 430 993T268 1040H225V1108H231Q348 1108 403 1154T459 1296Q459 1370 421 1411T313 1452Q246 1452 209 1408T172 1284V1280H91Q94 1395 151 1457T311 1520Q414 1520 476 1459T539 1296Q539 1220 505 1166T406 1081Q488 1055 527 999T567 850Q567 726 498 655T309 584Q197 584 133 652T68 842Z"  />
<glyph unicode="&#xB4;" horiz-adv-x="1024" d="M403 1247L578 1518H739L492 1247H403Z"  />
<glyph unicode="&#xB5;" horiz-adv-x="1094" d="M326 1063L203 473Q194 430 190 396T186 332Q186 206 246 140T420 74Q547 74 639 183T776 496L901 1063H1022L856 277Q854 268 851 253Q831 161 831 141Q831 110 848 94T899 78Q908 78 917 78T938 80L920 -16Q917 -17 912 -18Q863 -29 844 -29Q776 -29 744 2T711 98Q711 105 711 114T715 143Q672 60 592 16T403 -29Q306 -29 234 16T129 143L10 -424H-111L205 1063H326Z"  />
<glyph unicode="&#xB6;" horiz-adv-x="1024" d="M932 1415H803V0H733V1415H541V0H471V782Q296 790 193 884T90 1130Q90 1287 198 1383T485 1479H932V1415Z"  />
<glyph unicode="&#xB7;" horiz-adv-x="479" d="M156 696Q156 732 180 756T240 780Q275 780 298 756T322 696Q322 662 298 637T240 612Q205 612 181 637T156 696Z"  />
<glyph unicode="&#xB8;" horiz-adv-x="1024" d="M336 -352Q413 -364 453 -368T516 -373Q572 -373 600 -352T629 -289Q629 -239 600 -215T510 -190Q496 -190 489 -190T475 -192V0H545V-106Q647 -106 700 -151T754 -283Q754 -372 694 -418T518 -465Q489 -465 443 -459T336 -440V-352Z"  />
<glyph unicode="&#xB9;" horiz-adv-x="631" d="M303 600V1290Q264 1284 226 1281T147 1278Q126 1278 115 1278T92 1281L93 1327Q206 1330 258 1370T322 1501H387V600H303Z"  />
<glyph unicode="&#xBA;" horiz-adv-x="686" d="M170 1133Q170 966 213 882T342 797Q429 797 473 882T518 1133Q518 1299 474 1384T342 1470Q257 1470 214 1385T170 1133ZM72 1133Q72 1338 139 1442T342 1546Q477 1546 544 1443T612 1133Q612 925 546 823T342 721Q206 721 139 823T72 1133Z"  />
<glyph unicode="&#xBB;" horiz-adv-x="918" d="M416 627V496L117 274V395L338 561L117 729V850L416 627ZM801 627V496L504 274V395L725 561L504 729V850L801 627Z"  />
<glyph unicode="&#xBC;" horiz-adv-x="1548" d="M1325 0V219H997V281L1325 842H1407V281H1493V219H1407V0H1325ZM1079 281H1325L1333 731L1079 281ZM362 -31H260L1184 1532H1284L362 -31ZM289 659V1302Q246 1297 210 1295T139 1292Q119 1292 109 1292T88 1295V1337Q198 1341 247 1378T307 1501H369V659H289Z"  />
<glyph unicode="&#xBD;" horiz-adv-x="1548" d="M1010 0Q1011 61 1023 108T1061 193Q1092 244 1208 345L1216 352L1226 361Q1399 516 1399 637Q1399 709 1360 752T1255 795Q1177 795 1139 749T1097 608H1024V623Q1024 731 1084 794T1247 858Q1354 858 1416 797T1479 631Q1479 591 1471 556T1448 492Q1418 427 1312 341Q1296 328 1289 322Q1171 221 1134 170T1096 70H1481V0H1010ZM362 -31H260L1184 1532H1284L362 -31ZM289 659V1302Q246 1297 210 1295T139 1292Q119 1292 109 1292T88 1295V1337Q198 1341 247 1378T307 1501H369V659H289Z"  />
<glyph unicode="&#xBE;" horiz-adv-x="1546" d="M1325 0V219H997V281L1325 842H1407V281H1493V219H1407V0H1325ZM1079 281H1325L1333 731L1079 281ZM362 -31H260L1184 1532H1284L362 -31ZM66 885H141Q145 801 186 755T297 709Q371 709 415 758T459 891Q459 983 410 1027T256 1071Q239 1071 231 1071T215 1070V1133H221Q333 1133 385 1176T438 1311Q438 1379 401 1417T299 1456Q235 1456 200 1414T164 1296V1294L86 1295Q89 1400 144 1459T297 1518Q396 1518 455 1462T514 1311Q514 1238 482 1188T387 1110Q467 1086 505 1033T543 893Q543 776 477 710T295 643Q188 643 127 707T66 885Z"  />
<glyph unicode="&#xBF;" horiz-adv-x="811" d="M524 1526V1341H385V1526H524ZM507 1155Q509 1144 509 1133T510 1098Q510 992 483 908T393 737Q378 716 346 676Q205 499 205 348Q205 221 261 153T422 84Q533 84 591 161T649 387V401H772V369Q772 181 679 75T422 -31Q262 -31 168 67T74 332Q74 382 82 430T109 526Q137 601 259 759Q299 810 319 838Q361 893 381 971T401 1155H507Z"  />
<glyph unicode="&#xC0;" horiz-adv-x="1034" d="M33 0L444 1526H594L1001 0H872L743 479H283L152 0H33ZM305 596H717L512 1358L305 596ZM637 1653H551L303 1924H463L637 1653Z"  />
<glyph unicode="&#xC1;" horiz-adv-x="1034" d="M33 0L444 1526H594L1001 0H872L743 479H283L152 0H33ZM305 596H717L512 1358L305 596ZM409 1653L584 1924H745L498 1653H409Z"  />
<glyph unicode="&#xC2;" horiz-adv-x="1034" d="M33 0L444 1526H594L1001 0H872L743 479H283L152 0H33ZM305 596H717L512 1358L305 596ZM270 1653L444 1924H594L768 1653H682L518 1838L356 1653H270Z"  />
<glyph unicode="&#xC3;" horiz-adv-x="1034" d="M33 0L444 1526H594L1001 0H872L743 479H283L152 0H33ZM305 596H717L512 1358L305 596ZM762 1874Q743 1782 703 1737T596 1692Q585 1692 572 1694T545 1700L461 1727Q448 1731 439 1733T422 1735Q393 1735 374 1719T346 1672H274Q291 1760 332 1805T436 1850Q450 1850 462 1848T485 1842L561 1817Q572 1813 585 1811T612 1809Q644 1809 664 1825T692 1874H762Z"  />
<glyph unicode="&#xC4;" horiz-adv-x="1034" d="M33 0L444 1526H594L1001 0H872L743 479H283L152 0H33ZM305 596H717L512 1358L305 596ZM328 1696V1848H442V1696H328ZM590 1696V1848H704V1696H590Z"  />
<glyph unicode="&#xC5;" horiz-adv-x="1034" d="M420 1782Q420 1742 449 1713T518 1683Q558 1683 588 1712T618 1782Q618 1822 588 1852T518 1882Q478 1882 449 1853T420 1782ZM330 1782Q330 1862 384 1917T518 1972Q596 1972 651 1916T707 1782Q707 1703 652 1648T518 1593Q438 1593 384 1647T330 1782ZM33 0L444 1526H594L1001 0H872L743 479H283L152 0H33ZM305 596H717L512 1358L305 596Z"  />
<glyph unicode="&#xC6;" horiz-adv-x="1503" d="M719 0V465H328L164 0H27L584 1526H1421V1405H856V860H1362V739H856V119H1421V0H719ZM719 592V1405H653L365 592H719Z"  />
<glyph unicode="&#xC7;" horiz-adv-x="1110" d="M995 512Q977 244 868 107T563 -31Q331 -31 222 161T113 764Q113 1173 222 1364T563 1556Q756 1556 868 1431T985 1084L854 1083Q846 1253 770 1346T563 1440Q401 1440 324 1276T246 764Q246 417 323 253T563 88Q695 88 774 198T866 512H995ZM389 -352Q466 -364 506 -368T569 -373Q625 -373 653 -352T682 -289Q682 -239 653 -215T563 -190Q549 -190 542 -190T528 -192V0H598V-106Q700 -106 753 -151T807 -283Q807 -372 747 -418T571 -465Q542 -465 496 -459T389 -440V-352Z"  />
<glyph unicode="&#xC8;" horiz-adv-x="928" d="M143 0V1526H844V1407H281V856H786V739H281V119H844V0H143ZM609 1653H523L275 1924H435L609 1653Z"  />
<glyph unicode="&#xC9;" horiz-adv-x="928" d="M143 0V1526H844V1407H281V856H786V739H281V119H844V0H143ZM381 1653L556 1924H717L470 1653H381Z"  />
<glyph unicode="&#xCA;" horiz-adv-x="928" d="M143 0V1526H844V1407H281V856H786V739H281V119H844V0H143ZM242 1653L416 1924H566L740 1653H654L490 1838L328 1653H242Z"  />
<glyph unicode="&#xCB;" horiz-adv-x="928" d="M143 0V1526H844V1407H281V856H786V739H281V119H844V0H143ZM300 1696V1848H414V1696H300ZM562 1696V1848H676V1696H562Z"  />
<glyph unicode="&#xCC;" horiz-adv-x="424" d="M147 0V1526H276V0H147ZM333 1653H247L-1 1924H159L333 1653Z"  />
<glyph unicode="&#xCD;" horiz-adv-x="424" d="M147 0V1526H276V0H147ZM105 1653L280 1924H441L194 1653H105Z"  />
<glyph unicode="&#xCE;" horiz-adv-x="424" d="M147 0V1526H276V0H147ZM-34 1653L140 1924H290L464 1653H378L214 1838L52 1653H-34Z"  />
<glyph unicode="&#xCF;" horiz-adv-x="424" d="M147 0V1526H276V0H147ZM24 1696V1848H138V1696H24ZM286 1696V1848H400V1696H286Z"  />
<glyph unicode="&#xD0;" horiz-adv-x="1133" d="M276 115H453Q700 115 791 248T883 762Q883 1145 792 1279T453 1413H276V872H571V766H276V115ZM143 0V766H0V872H143V1526H461Q769 1526 894 1356T1020 764Q1020 343 894 172T461 0H143Z"  />
<glyph unicode="&#xD1;" horiz-adv-x="1135" d="M143 0V1526H289L870 195V1526H991V0H842L264 1305V0H143ZM824 1874Q805 1782 765 1737T658 1692Q647 1692 634 1694T607 1700L523 1727Q510 1731 501 1733T484 1735Q455 1735 436 1719T408 1672H336Q353 1760 394 1805T498 1850Q512 1850 524 1848T547 1842L623 1817Q634 1813 647 1811T674 1809Q706 1809 726 1825T754 1874H824Z"  />
<glyph unicode="&#xD2;" horiz-adv-x="1126" d="M244 764Q244 419 322 254T563 88Q726 88 803 252T881 764Q881 1111 804 1275T563 1440Q400 1440 322 1275T244 764ZM113 764Q113 1173 222 1364T563 1556Q796 1556 905 1365T1014 764Q1014 354 905 162T563 -31Q332 -31 223 161T113 764ZM682 1653H596L348 1924H508L682 1653Z"  />
<glyph unicode="&#xD3;" horiz-adv-x="1126" d="M244 764Q244 419 322 254T563 88Q726 88 803 252T881 764Q881 1111 804 1275T563 1440Q400 1440 322 1275T244 764ZM113 764Q113 1173 222 1364T563 1556Q796 1556 905 1365T1014 764Q1014 354 905 162T563 -31Q332 -31 223 161T113 764ZM454 1653L629 1924H790L543 1653H454Z"  />
<glyph unicode="&#xD4;" horiz-adv-x="1126" d="M244 764Q244 419 322 254T563 88Q726 88 803 252T881 764Q881 1111 804 1275T563 1440Q400 1440 322 1275T244 764ZM113 764Q113 1173 222 1364T563 1556Q796 1556 905 1365T1014 764Q1014 354 905 162T563 -31Q332 -31 223 161T113 764ZM315 1653L489 1924H639L813 1653H727L563 1838L401 1653H315Z"  />
<glyph unicode="&#xD5;" horiz-adv-x="1126" d="M244 764Q244 419 322 254T563 88Q726 88 803 252T881 764Q881 1111 804 1275T563 1440Q400 1440 322 1275T244 764ZM113 764Q113 1173 222 1364T563 1556Q796 1556 905 1365T1014 764Q1014 354 905 162T563 -31Q332 -31 223 161T113 764ZM807 1874Q788 1782 748 1737T641 1692Q630 1692 617 1694T590 1700L506 1727Q493 1731 484 1733T467 1735Q438 1735 419 1719T391 1672H319Q336 1760 377 1805T481 1850Q495 1850 507 1848T530 1842L606 1817Q617 1813 630 1811T657 1809Q689 1809 709 1825T737 1874H807Z"  />
<glyph unicode="&#xD6;" horiz-adv-x="1126" d="M244 764Q244 419 322 254T563 88Q726 88 803 252T881 764Q881 1111 804 1275T563 1440Q400 1440 322 1275T244 764ZM113 764Q113 1173 222 1364T563 1556Q796 1556 905 1365T1014 764Q1014 354 905 162T563 -31Q332 -31 223 161T113 764ZM373 1696V1848H487V1696H373ZM635 1696V1848H749V1696H635Z"  />
<glyph unicode="&#xD7;" horiz-adv-x="1706" d="M854 668L1341 1155L1399 1098L911 610L1399 123L1341 66L854 553L367 66L309 123L797 610L309 1098L367 1155L854 668Z"  />
<glyph unicode="&#xD8;" horiz-adv-x="1126" d="M1071 1509L940 1286Q979 1191 996 1078T1014 797Q1014 361 907 165T563 -31Q458 -31 381 7T244 127L135 -51L51 -4L188 227Q149 331 131 449T113 764Q113 1174 222 1365T565 1556Q675 1556 756 1513T891 1382L991 1554L1071 1509ZM279 377L811 1257Q782 1343 717 1390T563 1438Q400 1438 323 1274T246 764Q246 631 253 540T279 377ZM848 1135L319 258Q363 172 422 130T559 88Q727 88 804 252T881 780Q881 894 873 980T848 1135Z"  />
<glyph unicode="&#xD9;" horiz-adv-x="1120" d="M977 1526V403Q977 192 871 81T561 -31Q356 -31 250 80T143 403V1526H270V498Q270 364 279 311T311 219Q349 155 413 121T561 86Q643 86 708 121T811 219Q832 255 841 300T850 428V498V1526H977ZM680 1653H594L346 1924H506L680 1653Z"  />
<glyph unicode="&#xDA;" horiz-adv-x="1120" d="M977 1526V403Q977 192 871 81T561 -31Q356 -31 250 80T143 403V1526H270V498Q270 364 279 311T311 219Q349 155 413 121T561 86Q643 86 708 121T811 219Q832 255 841 300T850 428V498V1526H977ZM452 1653L627 1924H788L541 1653H452Z"  />
<glyph unicode="&#xDB;" horiz-adv-x="1120" d="M977 1526V403Q977 192 871 81T561 -31Q356 -31 250 80T143 403V1526H270V498Q270 364 279 311T311 219Q349 155 413 121T561 86Q643 86 708 121T811 219Q832 255 841 300T850 428V498V1526H977ZM313 1653L487 1924H637L811 1653H725L561 1838L399 1653H313Z"  />
<glyph unicode="&#xDC;" horiz-adv-x="1120" d="M977 1526V403Q977 192 871 81T561 -31Q356 -31 250 80T143 403V1526H270V498Q270 364 279 311T311 219Q349 155 413 121T561 86Q643 86 708 121T811 219Q832 255 841 300T850 428V498V1526H977ZM371 1696V1848H485V1696H371ZM633 1696V1848H747V1696H633Z"  />
<glyph unicode="&#xDD;" horiz-adv-x="940" d="M403 0V651L2 1526H137L465 807L797 1526H940L530 651V0H403ZM363 1653L538 1924H699L452 1653H363Z"  />
<glyph unicode="&#xDE;" horiz-adv-x="1012" d="M268 508H455Q549 508 601 520T694 559Q750 595 777 656T805 807Q805 977 727 1042T416 1108H268V508ZM145 0V1526H268V1221H436Q604 1221 680 1202T809 1137Q870 1084 900 1003T930 807Q930 583 805 487T375 391H268V0H145Z"  />
<glyph unicode="&#xDF;" horiz-adv-x="920" d="M150 0V1126Q150 1237 156 1287T178 1368Q212 1441 289 1483T465 1526Q614 1526 693 1435T772 1174Q772 1058 740 985T635 864Q734 818 778 717T823 432Q823 199 760 85T565 -29Q535 -29 500 -19T420 14V127Q455 102 486 90T545 78Q623 78 660 161T698 418Q698 640 640 729T442 819H438V905H449Q555 905 606 968T657 1165Q657 1302 607 1369T453 1436Q356 1436 314 1381T272 1194V0H150Z"  />
<glyph unicode="&#xE0;" horiz-adv-x="811" d="M766 -4Q738 -10 719 -12T682 -14Q637 -14 607 9T559 82Q511 25 449 -4T311 -33Q187 -33 117 49T47 279Q47 408 109 486T326 625Q358 637 413 656Q561 707 561 791V885Q561 975 522 1016T395 1057Q302 1057 254 1004T202 846H86V870Q86 999 171 1075T399 1151Q484 1151 542 1130T635 1065Q659 1035 669 995T680 877V819V209Q680 124 695 104T754 84H766V-4ZM557 602Q297 501 235 439T172 279Q172 184 216 129T336 74Q450 74 503 156T557 416V602ZM526 1247H440L192 1518H352L526 1247Z"  />
<glyph unicode="&#xE1;" horiz-adv-x="811" d="M766 -4Q738 -10 719 -12T682 -14Q637 -14 607 9T559 82Q511 25 449 -4T311 -33Q187 -33 117 49T47 279Q47 408 109 486T326 625Q358 637 413 656Q561 707 561 791V885Q561 975 522 1016T395 1057Q302 1057 254 1004T202 846H86V870Q86 999 171 1075T399 1151Q484 1151 542 1130T635 1065Q659 1035 669 995T680 877V819V209Q680 124 695 104T754 84H766V-4ZM557 602Q297 501 235 439T172 279Q172 184 216 129T336 74Q450 74 503 156T557 416V602ZM298 1247L473 1518H634L387 1247H298Z"  />
<glyph unicode="&#xE2;" horiz-adv-x="811" d="M766 -4Q738 -10 719 -12T682 -14Q637 -14 607 9T559 82Q511 25 449 -4T311 -33Q187 -33 117 49T47 279Q47 408 109 486T326 625Q358 637 413 656Q561 707 561 791V885Q561 975 522 1016T395 1057Q302 1057 254 1004T202 846H86V870Q86 999 171 1075T399 1151Q484 1151 542 1130T635 1065Q659 1035 669 995T680 877V819V209Q680 124 695 104T754 84H766V-4ZM557 602Q297 501 235 439T172 279Q172 184 216 129T336 74Q450 74 503 156T557 416V602ZM159 1247L333 1518H483L657 1247H571L407 1432L245 1247H159Z"  />
<glyph unicode="&#xE3;" horiz-adv-x="811" d="M766 -4Q738 -10 719 -12T682 -14Q637 -14 607 9T559 82Q511 25 449 -4T311 -33Q187 -33 117 49T47 279Q47 408 109 486T326 625Q358 637 413 656Q561 707 561 791V885Q561 975 522 1016T395 1057Q302 1057 254 1004T202 846H86V870Q86 999 171 1075T399 1151Q484 1151 542 1130T635 1065Q659 1035 669 995T680 877V819V209Q680 124 695 104T754 84H766V-4ZM557 602Q297 501 235 439T172 279Q172 184 216 129T336 74Q450 74 503 156T557 416V602ZM651 1468Q632 1376 592 1331T485 1286Q474 1286 461 1288T434 1294L350 1321Q337 1325 328 1327T311 1329Q282 1329 263 1313T235 1266H163Q180 1354 221 1399T325 1444Q339 1444 351 1442T374 1436L450 1411Q461 1407 474 1405T501 1403Q533 1403 553 1419T581 1468H651Z"  />
<glyph unicode="&#xE4;" horiz-adv-x="811" d="M766 -4Q738 -10 719 -12T682 -14Q637 -14 607 9T559 82Q511 25 449 -4T311 -33Q187 -33 117 49T47 279Q47 408 109 486T326 625Q358 637 413 656Q561 707 561 791V885Q561 975 522 1016T395 1057Q302 1057 254 1004T202 846H86V870Q86 999 171 1075T399 1151Q484 1151 542 1130T635 1065Q659 1035 669 995T680 877V819V209Q680 124 695 104T754 84H766V-4ZM557 602Q297 501 235 439T172 279Q172 184 216 129T336 74Q450 74 503 156T557 416V602ZM217 1290V1442H331V1290H217ZM479 1290V1442H593V1290H479Z"  />
<glyph unicode="&#xE5;" horiz-adv-x="811" d="M766 -4Q738 -10 719 -12T682 -14Q637 -14 607 9T559 82Q511 25 449 -4T311 -33Q187 -33 117 49T47 279Q47 408 109 486T326 625Q358 637 413 656Q561 707 561 791V885Q561 975 522 1016T395 1057Q302 1057 254 1004T202 846H86V870Q86 999 171 1075T399 1151Q484 1151 542 1130T635 1065Q659 1035 669 995T680 877V819V209Q680 124 695 104T754 84H766V-4ZM557 602Q297 501 235 439T172 279Q172 184 216 129T336 74Q450 74 503 156T557 416V602ZM301 1407Q301 1367 330 1338T399 1309Q440 1309 470 1338T500 1407Q500 1447 470 1477T399 1507Q359 1507 330 1478T301 1407ZM211 1407Q211 1487 265 1542T399 1597Q477 1597 532 1542T588 1407Q588 1329 533 1274T399 1219Q319 1219 265 1273T211 1407Z"  />
<glyph unicode="&#xE6;" horiz-adv-x="1319" d="M676 672H1085Q1086 683 1086 696T1087 733Q1087 883 1035 965T887 1047Q784 1047 730 954T676 682V672ZM655 1040Q703 1099 757 1126T881 1153Q1039 1153 1123 1027T1208 666V571H676V508Q676 291 726 183T879 74Q971 74 1025 149T1083 360H1204Q1194 172 1109 70T879 -33Q773 -33 707 17T600 176Q565 72 494 20T317 -33Q189 -33 118 49T47 281Q47 407 111 487T326 627Q358 640 414 659Q561 709 561 793V887Q561 977 522 1018T395 1059Q302 1059 254 1006T202 848H86V872Q86 1001 171 1077T399 1153Q497 1153 560 1125T655 1040ZM557 602Q297 501 235 439T172 279Q172 183 216 129T336 74Q449 74 503 157T557 418V602Z"  />
<glyph unicode="&#xE7;" horiz-adv-x="868" d="M786 383Q773 179 690 74T461 -31Q294 -31 208 119T121 561Q121 856 208 1004T467 1153Q603 1153 685 1061T774 805H657Q653 915 603 979T471 1044Q363 1044 306 920T248 561Q248 332 306 205T467 78Q554 78 606 158T666 383H786ZM288 -352Q365 -364 405 -368T468 -373Q524 -373 552 -352T581 -289Q581 -239 552 -215T462 -190Q448 -190 441 -190T427 -192V0H497V-106Q599 -106 652 -151T706 -283Q706 -372 646 -418T470 -465Q441 -465 395 -459T288 -440V-352Z"  />
<glyph unicode="&#xE8;" horiz-adv-x="856" d="M754 360Q743 169 660 69T428 -31Q259 -31 178 113T96 559Q96 861 180 1006T438 1151Q596 1151 678 1028T760 666V571H225V508Q225 291 276 184T428 76Q521 76 574 150T633 360H754ZM225 672H635Q635 680 636 697T637 721Q637 877 585 962T436 1047Q333 1047 279 954T225 682V672ZM548 1247H462L214 1518H374L548 1247Z"  />
<glyph unicode="&#xE9;" horiz-adv-x="856" d="M754 360Q743 169 660 69T428 -31Q259 -31 178 113T96 559Q96 861 180 1006T438 1151Q596 1151 678 1028T760 666V571H225V508Q225 291 276 184T428 76Q521 76 574 150T633 360H754ZM225 672H635Q635 680 636 697T637 721Q637 877 585 962T436 1047Q333 1047 279 954T225 682V672ZM320 1247L495 1518H656L409 1247H320Z"  />
<glyph unicode="&#xEA;" horiz-adv-x="856" d="M754 360Q743 169 660 69T428 -31Q259 -31 178 113T96 559Q96 861 180 1006T438 1151Q596 1151 678 1028T760 666V571H225V508Q225 291 276 184T428 76Q521 76 574 150T633 360H754ZM225 672H635Q635 680 636 697T637 721Q637 877 585 962T436 1047Q333 1047 279 954T225 682V672ZM181 1247L355 1518H505L679 1247H593L429 1432L267 1247H181Z"  />
<glyph unicode="&#xEB;" horiz-adv-x="856" d="M754 360Q743 169 660 69T428 -31Q259 -31 178 113T96 559Q96 861 180 1006T438 1151Q596 1151 678 1028T760 666V571H225V508Q225 291 276 184T428 76Q521 76 574 150T633 360H754ZM225 672H635Q635 680 636 697T637 721Q637 877 585 962T436 1047Q333 1047 279 954T225 682V672ZM239 1290V1442H353V1290H239ZM501 1290V1442H615V1290H501Z"  />
<glyph unicode="&#xEC;" horiz-adv-x="453" d="M164 0V1124H289V0H164ZM347 1247H261L13 1518H173L347 1247Z"  />
<glyph unicode="&#xED;" horiz-adv-x="453" d="M164 0V1124H289V0H164ZM119 1247L294 1518H455L208 1247H119Z"  />
<glyph unicode="&#xEE;" horiz-adv-x="453" d="M164 0V1124H289V0H164ZM-20 1247L154 1518H304L478 1247H392L228 1432L66 1247H-20Z"  />
<glyph unicode="&#xEF;" horiz-adv-x="453" d="M164 0V1124H289V0H164ZM38 1290V1442H152V1290H38ZM300 1290V1442H414V1290H300Z"  />
<glyph unicode="&#xF0;" horiz-adv-x="883" d="M225 1507Q283 1480 341 1444T463 1362L698 1499L741 1425L532 1300Q660 1170 721 982T782 530Q782 246 698 107T440 -33Q267 -33 182 107T96 530Q96 811 183 953T440 1096Q477 1096 510 1087T578 1057Q557 1105 524 1151T442 1247L213 1110L166 1184L373 1309Q334 1338 289 1365T186 1419L225 1507ZM217 530Q217 306 274 189T440 72Q550 72 606 187T662 530Q662 756 606 872T440 989Q332 989 275 872T217 530Z"  />
<glyph unicode="&#xF1;" horiz-adv-x="903" d="M655 0V758Q655 936 618 990T485 1044Q396 1044 324 985T252 858V0H129V1124H240V1001Q296 1080 362 1116T514 1153Q652 1153 715 1069T778 797V0H655ZM710 1468Q691 1376 651 1331T544 1286Q533 1286 520 1288T493 1294L409 1321Q396 1325 387 1327T370 1329Q341 1329 322 1313T294 1266H222Q239 1354 280 1399T384 1444Q398 1444 410 1442T433 1436L509 1411Q520 1407 533 1405T560 1403Q592 1403 612 1419T640 1468H710Z"  />
<glyph unicode="&#xF2;" horiz-adv-x="915" d="M225 559Q225 321 283 200T457 78Q572 78 631 200T690 559Q690 796 631 918T457 1040Q342 1040 284 919T225 559ZM96 559Q96 855 186 1003T457 1151Q637 1151 727 1003T817 559Q817 263 728 116T457 -31Q275 -31 186 116T96 559ZM579 1247H493L245 1518H405L579 1247Z"  />
<glyph unicode="&#xF3;" horiz-adv-x="915" d="M225 559Q225 321 283 200T457 78Q572 78 631 200T690 559Q690 796 631 918T457 1040Q342 1040 284 919T225 559ZM96 559Q96 855 186 1003T457 1151Q637 1151 727 1003T817 559Q817 263 728 116T457 -31Q275 -31 186 116T96 559ZM351 1247L526 1518H687L440 1247H351Z"  />
<glyph unicode="&#xF4;" horiz-adv-x="915" d="M225 559Q225 321 283 200T457 78Q572 78 631 200T690 559Q690 796 631 918T457 1040Q342 1040 284 919T225 559ZM96 559Q96 855 186 1003T457 1151Q637 1151 727 1003T817 559Q817 263 728 116T457 -31Q275 -31 186 116T96 559ZM212 1247L386 1518H536L710 1247H624L460 1432L298 1247H212Z"  />
<glyph unicode="&#xF5;" horiz-adv-x="915" d="M225 559Q225 321 283 200T457 78Q572 78 631 200T690 559Q690 796 631 918T457 1040Q342 1040 284 919T225 559ZM96 559Q96 855 186 1003T457 1151Q637 1151 727 1003T817 559Q817 263 728 116T457 -31Q275 -31 186 116T96 559ZM704 1468Q685 1376 645 1331T538 1286Q527 1286 514 1288T487 1294L403 1321Q390 1325 381 1327T364 1329Q335 1329 316 1313T288 1266H216Q233 1354 274 1399T378 1444Q392 1444 404 1442T427 1436L503 1411Q514 1407 527 1405T554 1403Q586 1403 606 1419T634 1468H704Z"  />
<glyph unicode="&#xF6;" horiz-adv-x="915" d="M225 559Q225 321 283 200T457 78Q572 78 631 200T690 559Q690 796 631 918T457 1040Q342 1040 284 919T225 559ZM96 559Q96 855 186 1003T457 1151Q637 1151 727 1003T817 559Q817 263 728 116T457 -31Q275 -31 186 116T96 559ZM270 1290V1442H384V1290H270ZM532 1290V1442H646V1290H532Z"  />
<glyph unicode="&#xF7;" horiz-adv-x="1706" d="M854 365Q895 365 923 336T952 264Q952 224 924 195T854 166Q813 166 785 194T756 264Q756 305 785 335T854 365ZM1452 651V569H254V651H1452ZM854 1055Q895 1055 923 1027T952 956Q952 916 924 886T854 856Q813 856 785 885T756 956Q756 997 784 1026T854 1055Z"  />
<glyph unicode="&#xF8;" horiz-adv-x="915" d="M279 211Q304 144 349 110T455 76Q571 76 630 198T690 559Q690 627 684 688T664 807L279 211ZM246 324L631 915Q610 977 564 1012T457 1047Q343 1047 284 921T225 551Q225 491 230 435T246 324ZM154 180Q125 268 111 362T96 559Q96 856 184 1003T449 1151Q533 1151 598 1123T711 1036L817 1200L891 1153L756 948Q788 856 803 758T819 553Q819 260 729 114T457 -33Q364 -33 301 -3T199 92L98 -63L25 -18L154 180Z"  />
<glyph unicode="&#xF9;" horiz-adv-x="903" d="M248 1124V365Q248 187 285 134T418 80Q507 80 579 139T651 266V1124H774V0H664V123Q607 45 541 8T389 -29Q251 -29 188 55T125 326V1124H248ZM573 1247H487L239 1518H399L573 1247Z"  />
<glyph unicode="&#xFA;" horiz-adv-x="903" d="M248 1124V365Q248 187 285 134T418 80Q507 80 579 139T651 266V1124H774V0H664V123Q607 45 541 8T389 -29Q251 -29 188 55T125 326V1124H248ZM345 1247L520 1518H681L434 1247H345Z"  />
<glyph unicode="&#xFB;" horiz-adv-x="903" d="M248 1124V365Q248 187 285 134T418 80Q507 80 579 139T651 266V1124H774V0H664V123Q607 45 541 8T389 -29Q251 -29 188 55T125 326V1124H248ZM206 1247L380 1518H530L704 1247H618L454 1432L292 1247H206Z"  />
<glyph unicode="&#xFC;" horiz-adv-x="903" d="M248 1124V365Q248 187 285 134T418 80Q507 80 579 139T651 266V1124H774V0H664V123Q607 45 541 8T389 -29Q251 -29 188 55T125 326V1124H248ZM264 1290V1442H378V1290H264ZM526 1290V1442H640V1290H526Z"  />
<glyph unicode="&#xFD;" horiz-adv-x="809" d="M432 -98Q384 -269 321 -330T141 -391Q127 -391 110 -389T63 -381V-276Q79 -281 94 -283T125 -285Q219 -285 273 -209T328 -4Q328 38 308 114Q306 123 305 127L45 1124H166L399 219L647 1124H770L432 -98ZM298 1247L473 1518H634L387 1247H298Z"  />
<glyph unicode="&#xFE;" horiz-adv-x="932" d="M252 557Q252 293 304 183T477 72Q594 72 649 191T705 563Q705 817 653 933T487 1049Q361 1049 307 938T252 557ZM133 -389V1526H252V1004Q302 1080 361 1115T496 1151Q671 1151 752 1011T834 563Q834 261 749 113T489 -35Q410 -35 352 -2T252 100V-389H133Z"  />
<glyph unicode="&#xFF;" horiz-adv-x="809" d="M432 -98Q384 -269 321 -330T141 -391Q127 -391 110 -389T63 -381V-276Q79 -281 94 -283T125 -285Q219 -285 273 -209T328 -4Q328 38 308 114Q306 123 305 127L45 1124H166L399 219L647 1124H770L432 -98ZM217 1290V1442H331V1290H217ZM479 1290V1442H593V1290H479Z"  />
<glyph unicode="&#x131;" horiz-adv-x="453" d="M164 0V1124H289V0H164Z"  />
<glyph unicode="&#x152;" horiz-adv-x="1579" d="M795 381V1159Q795 1273 721 1356T545 1440Q393 1440 320 1274T246 764Q246 424 322 256T553 88Q652 88 723 174T795 381ZM795 0V127Q752 46 687 8T526 -31Q320 -31 217 167T113 764Q113 1162 222 1360T551 1559Q640 1559 705 1519T795 1409V1526H1495V1407H932V856H1436V739H932V119H1495V0H795Z"  />
<glyph unicode="&#x153;" horiz-adv-x="1450" d="M743 160Q707 62 637 16T457 -31Q272 -31 184 112T96 559Q96 859 185 1007T455 1155Q560 1155 630 1110T750 965Q786 1057 859 1106T1034 1155Q1191 1155 1271 1032T1352 666V571H817V508Q817 291 867 184T1020 76Q1112 76 1164 147T1231 360H1341Q1338 173 1254 71T1020 -31Q914 -31 847 15T743 160ZM817 672H1227Q1228 683 1228 695T1229 733Q1229 882 1177 963T1028 1044Q925 1044 871 952T817 682V672ZM457 1044Q341 1044 283 923T225 559Q225 320 283 198T457 76Q571 76 630 199T690 559Q690 796 631 920T457 1044Z"  />
<glyph unicode="&#x160;" horiz-adv-x="1042" d="M92 434H221Q227 270 302 179T508 88Q653 88 736 170T819 395Q819 465 796 515T721 608Q674 648 540 698Q481 720 451 733Q273 807 198 906T123 1161Q123 1333 236 1444T526 1556Q706 1556 809 1454T913 1171V1161H791Q783 1294 717 1366T535 1438Q413 1438 334 1358T254 1155Q254 1099 270 1052T319 965Q372 903 556 833Q589 820 606 813Q792 740 870 644T948 395Q948 196 833 82T518 -33Q318 -33 208 88T92 434ZM274 1924H360L522 1739L686 1924H772L598 1653H448L274 1924Z"  />
<glyph unicode="&#x161;" horiz-adv-x="807" d="M78 305H193Q193 193 246 134T399 74Q495 74 550 129T606 281Q606 425 357 554Q332 567 319 573Q186 643 144 706T102 881Q102 1003 178 1078T379 1153Q530 1153 608 1076T692 842H580Q566 948 520 999T393 1051Q310 1051 263 1006T215 883Q215 752 488 613Q520 596 537 588Q630 540 679 462T729 283Q729 141 639 54T401 -33Q245 -33 162 52T78 295V305ZM156 1518H242L404 1333L568 1518H654L480 1247H330L156 1518Z"  />
<glyph unicode="&#x178;" horiz-adv-x="940" d="M403 0V651L2 1526H137L465 807L797 1526H940L530 651V0H403ZM282 1696V1848H396V1696H282ZM544 1696V1848H658V1696H544Z"  />
<glyph unicode="&#x17D;" horiz-adv-x="872" d="M51 0V131L684 1409H86V1526H819V1395L186 121H819V0H51ZM189 1924H275L437 1739L601 1924H687L513 1653H363L189 1924Z"  />
<glyph unicode="&#x17E;" horiz-adv-x="696" d="M47 0V106L518 1020H74V1124H649V1006L178 106H649V0H47ZM101 1518H187L349 1333L513 1518H599L425 1247H275L101 1518Z"  />
<glyph unicode="&#x192;" horiz-adv-x="956" d="M52 -365L74 -252Q95 -258 113 -261T147 -264Q215 -264 252 -202T319 41L457 864H223V956H473L516 1214Q542 1371 612 1452T793 1534Q817 1534 845 1528T905 1509L889 1401Q868 1412 845 1417T795 1423Q732 1423 697 1372T641 1194L600 956H829V864H586L438 -14Q406 -210 341 -296T160 -383Q137 -383 110 -379T52 -365Z"  />
<glyph unicode="&#x2C6;" horiz-adv-x="1024" d="M264 1247L438 1518H588L762 1247H676L512 1432L350 1247H264Z"  />
<glyph unicode="&#x2C7;" horiz-adv-x="1024" d="M264 1518H350L512 1333L676 1518H762L588 1247H438L264 1518Z"  />
<glyph unicode="&#x2DC;" horiz-adv-x="1024" d="M756 1468Q737 1376 697 1331T590 1286Q579 1286 566 1288T539 1294L455 1321Q442 1325 433 1327T416 1329Q387 1329 368 1313T340 1266H268Q285 1354 326 1399T430 1444Q444 1444 456 1442T479 1436L555 1411Q566 1407 579 1405T606 1403Q638 1403 658 1419T686 1468H756Z"  />
<glyph unicode="&#x2013;" horiz-adv-x="1024" d="M0 520V600H1024V520H0Z"  />
<glyph unicode="&#x2014;" horiz-adv-x="2048" d="M2048 600V520H0V600H2048Z"  />
<glyph unicode="&#x2018;" horiz-adv-x="479" d="M309 1276V1096H170V1274Q170 1395 203 1462T309 1556V1479Q272 1457 255 1420T238 1321Q238 1303 238 1294T240 1276H309Z"  />
<glyph unicode="&#x2019;" horiz-adv-x="479" d="M168 1346V1526H309V1346Q309 1227 275 1160T168 1065V1145Q206 1167 224 1204T242 1303Q242 1320 242 1328T240 1345L168 1346Z"  />
<glyph unicode="&#x201A;" horiz-adv-x="479" d="M168 0V180H309V2Q309 -118 275 -187T168 -283V-203Q206 -181 224 -143T242 -43Q242 -25 242 -17T239 0H168Z"  />
<glyph unicode="&#x201C;" horiz-adv-x="793" d="M623 1276V1096H483V1274Q483 1393 516 1461T623 1556V1479Q586 1456 569 1418T551 1319Q551 1301 551 1292T553 1276H623ZM309 1276V1096H170V1274Q170 1395 203 1462T309 1556V1479Q272 1457 255 1420T238 1321Q238 1303 238 1294T240 1276H309Z"  />
<glyph unicode="&#x201D;" horiz-adv-x="793" d="M483 1346V1526H623V1348Q623 1226 590 1159T483 1065V1145Q521 1167 538 1203T555 1300Q555 1318 555 1327T553 1345L483 1346ZM168 1346V1526H309V1348Q309 1227 275 1160T168 1065V1145Q206 1167 224 1204T242 1303Q242 1320 242 1328T240 1345L168 1346Z"  />
<glyph unicode="&#x201E;" horiz-adv-x="793" d="M483 0V180H623V2Q623 -120 590 -188T483 -283V-203Q521 -181 538 -144T555 -45Q555 -27 555 -18T552 0H483ZM168 0V180H309V2Q309 -118 275 -187T168 -283V-203Q206 -181 224 -143T242 -43Q242 -25 242 -17T239 0H168Z"  />
<glyph unicode="&#x2020;" horiz-adv-x="958" d="M426 973H84V1067H426V1526H532V1067H872V973H532V-297H426V973Z"  />
<glyph unicode="&#x2021;" horiz-adv-x="958" d="M426 -299V168H88V268H426V973H88V1067H426V1526H532V1067H870V973H532V268H870V168H532V-299H426Z"  />
<glyph unicode="&#x2022;" horiz-adv-x="1208" d="M307 762Q307 885 394 971T604 1057Q726 1057 812 971T899 762Q899 640 812 553T602 465Q479 465 393 552T307 762Z"  />
<glyph unicode="&#x2026;" horiz-adv-x="2048" d="M270 0V180H411V0H270ZM952 0V180H1093V0H952ZM1636 0V180H1777V0H1636Z"  />
<glyph unicode="&#x2030;" horiz-adv-x="2009" d="M1642 647Q1567 647 1529 578T1491 369Q1491 228 1528 159T1642 90Q1719 90 1757 159T1796 369Q1796 508 1758 577T1642 647ZM1642 739Q1768 739 1838 642T1909 369Q1909 193 1839 97T1642 0Q1516 0 1446 96T1376 369Q1376 545 1446 642T1642 739ZM1004 647Q928 647 890 578T852 369Q852 228 889 159T1004 90Q1080 90 1118 159T1157 369Q1157 508 1119 577T1004 647ZM1004 739Q1129 739 1199 642T1270 369Q1270 193 1200 97T1004 0Q877 0 807 96T737 369Q737 545 807 642T1004 739ZM365 1436Q288 1436 250 1366T211 1157Q211 1017 249 948T365 879Q441 879 478 948T516 1157Q516 1298 479 1367T365 1436ZM100 1157Q100 1332 170 1429T367 1526Q493 1526 563 1429T633 1157Q633 982 563 885T367 788Q241 788 171 885T100 1157ZM324 -29L952 1556H1044L418 -29H324Z"  />
<glyph unicode="&#x2039;" horiz-adv-x="530" d="M117 627L416 850V729L193 561L416 395V274L117 496V627Z"  />
<glyph unicode="&#x203A;" horiz-adv-x="530" d="M416 627V496L117 274V395L338 561L117 729V850L416 627Z"  />
<glyph unicode="&#x20AC;" horiz-adv-x="657" d="M31 452H97Q108 515 132 566T193 653T274 709T374 729Q425 729 466 714T538 671T588 606T614 523H520Q508 581 472 614T373 647Q298 647 255 595T197 452H400V395H191Q190 385 190 375T190 355Q190 344 190 334T191 314H400V257H198Q214 163 261 115T381 67Q450 67 488 112T534 226H624Q622 176 605 132T556 56T480 4T382 -15Q328 -15 281 3T197 56T134 141T97 257H31V314H90Q89 324 89 334T89 355Q89 365 89 375T90 395H31V452Z"  />
<glyph unicode="&#x2122;" horiz-adv-x="1706" d="M926 1454L1100 1014L1262 1454H1364V924H1305V1403L1124 924H1075L885 1403V924H825V1454H926ZM694 1454V1403H520V924H453V1403H274V1454H694Z"  />

</font>
</defs>
</svg>
