<?xml version="1.0" encoding="utf-8"?>
<!-- Generator: Adobe Illustrator 15.0.0, SVG Export Plug-In . SVG Version: 6.00 Build 0)  -->
<!DOCTYPE svg PUBLIC "-//W3C//DTD SVG 1.1//EN" "http://www.w3.org/Graphics/SVG/1.1/DTD/svg11.dtd">
<svg version="1.1" id="Layer_1" xmlns="http://www.w3.org/2000/svg" xmlns:xlink="http://www.w3.org/1999/xlink" x="0px" y="0px"
	 width="354.331px" height="354.331px" viewBox="0 0 354.331 354.331" enable-background="new 0 0 354.331 354.331"
	 xml:space="preserve">
<g>
	<g>
		<path fill="#0D58FF" d="M188.341,9.982l2.145-7.262c0.119-0.393,0.044-0.819-0.203-1.15c-0.246-0.332-0.633-0.525-1.043-0.525
			h-10.053c-0.576,0-1.084,0.377-1.25,0.929l-2.142,7.261c-0.119,0.395-0.044,0.823,0.202,1.153
			c0.248,0.331,0.635,0.522,1.046,0.522h10.051C187.669,10.912,188.179,10.533,188.341,9.982z"/>
		<path fill="#0D58FF" d="M172.761,26.422h6.802c0.39,0,0.733-0.255,0.845-0.63l1.45-4.911c0.081-0.268,0.028-0.557-0.138-0.779
			c-0.166-0.226-0.428-0.355-0.706-0.355h-6.8c-0.392,0-0.734,0.255-0.846,0.631l-1.45,4.911c-0.082,0.267-0.029,0.556,0.135,0.778
			C172.22,26.291,172.484,26.422,172.761,26.422z"/>
		<path fill="#0D58FF" d="M173.36,18.591l1.79-6.06c0.098-0.329,0.035-0.684-0.17-0.96c-0.205-0.274-0.53-0.436-0.873-0.436h-8.389
			c-0.481,0-0.904,0.314-1.042,0.776l-1.788,6.058c-0.099,0.33-0.035,0.687,0.168,0.962c0.206,0.275,0.53,0.437,0.873,0.437h8.388
			C172.797,19.369,173.222,19.052,173.36,18.591z"/>
	</g>
	<g>
		<g>
			<g>
				<path fill="#5C29E5" d="M328.112,131.247c-0.584,1.748-0.418,3.377,0.458,4.593c0.928,1.288,2.548,1.997,4.56,1.997
					c4.293,0,9.025-3.336,10.331-7.286l4.38-13.354h-1.808h-0.53h-0.582l-4.491,13.626c-0.806,2.477-3.526,4.53-6.235,4.787
					c-2.539-0.257-3.91-2.31-3.086-4.787l4.467-13.626h-0.529h-0.583h-1.747L328.112,131.247z"/>
			</g>
			<g>
				<path fill="#5C29E5" d="M352.649,117.197h-0.584h-1.881l-4.607,14.05c-0.783,2.369-2.508,4.588-4.854,6.247
					c-2.341,1.656-5.039,2.568-7.594,2.568c-1.363,0-2.611-0.255-3.709-0.764c-1.094-0.505-1.988-1.23-2.657-2.156
					c-1.307-1.812-1.581-4.154-0.767-6.595l4.375-13.351h-1.942h-0.531h-0.583l-4.463,13.626c-2.086,6.267,1.796,11.395,8.6,11.395
					c0.097,0,0.196-0.001,0.293-0.002c0.098,0.001,0.193,0.002,0.291,0.002c0.088,0,0.177-0.001,0.266-0.002
					c0.088,0.001,0.176,0.002,0.266,0.002c6.818,0,14.051-5.127,16.125-11.395l4.488-13.626H352.649z"/>
			</g>
		</g>
	</g>
	<g>
		<polygon fill="#FF4E00" points="254.667,328.074 254.679,328.035 283.642,318.329 282.514,322.156 		"/>
		<polygon fill="#FF4E00" points="254.667,328.074 254.679,328.035 281.651,325.924 281.019,328.074 		"/>
		<polygon fill="#FF4E00" points="286.528,308.535 285.401,312.359 254.695,327.977 254.706,327.936 		"/>
		<polygon fill="#FF4E00" points="288.286,302.574 254.725,327.873 262.182,302.574 		"/>
	</g>
	<g>
		<polygon fill="#CC0027" points="12.145,124.827 12.145,124.827 4.631,119.601 4.631,119.601 4.287,119.361 3.805,119.024 
			3.805,119.024 1.151,117.177 1.151,120.132 1.162,120.064 26.527,138.519 1.151,122.077 1.151,124.738 1.162,124.669 
			19.493,138.006 1.151,126.684 1.151,129.728 1.162,129.66 11.932,137.495 1.151,131.672 1.151,138.591 26.685,138.591 
			26.685,134.941 		"/>
		<path fill="#CC0027" d="M3.135,117.322c0,0,1.131,0.724,2.063-0.397l0.406-0.601l0.01,0.007l0.473-0.705l-0.004-0.005l1.252-1.851
			c0,0,1.36,1.078,1.319,1.061c-0.042-0.017-1.41,1.241-0.231,1.543c1.178,0.301,2.716,0.108,2.716,0.108
			c-0.924,0.683-2.526,1.803-2.314,3.271c0.214,1.467,2.594,0.424,5.964,1.152c3.371,0.727,6.874,3.423,6.874,3.423l-2.288,2.34
			c0,0,0.852-0.802,1.922-0.473c1.069,0.326,1.317,0.969,1.317,0.969s-1.648,1.533,0.449,2.579c0.893,0.446,2.197,1.19,3.62,2.024
			v-18.711H1.151v3.03L3.135,117.322z"/>
	</g>
	<g>
		<g>
			<g>
				<polygon fill="#FFFF00" points="78.642,302.496 73.299,302.496 64.704,327.951 70.048,327.951 				"/>
			</g>
			<g>
				<polygon fill="#FFFF00" points="90.337,302.496 82.324,302.496 73.731,327.951 81.743,327.951 				"/>
			</g>
			<g>
				<polygon fill="#FFFF00" points="58.103,327.951 61.383,327.951 69.978,302.496 66.698,302.496 				"/>
			</g>
		</g>
	</g>
	<circle opacity="0.2" fill="none" stroke="#FFFFFF" stroke-miterlimit="10" cx="175.736" cy="177.195" r="141.949"/>
	<circle opacity="0.2" fill="none" stroke="#FFFFFF" stroke-miterlimit="10" cx="175.736" cy="177.195" r="94.137"/>
	<circle opacity="0.2" fill="none" stroke="#FFFFFF" stroke-miterlimit="10" cx="175.736" cy="177.196" r="47.034"/>
</g>
</svg>
