<?xml version="1.0" encoding="utf-8"?>
<!-- Generator: Adobe Illustrator 15.0.0, SVG Export Plug-In  -->
<!DOCTYPE svg PUBLIC "-//W3C//DTD SVG 1.1//EN" "http://www.w3.org/Graphics/SVG/1.1/DTD/svg11.dtd" [
	<!ENTITY ns_flows "http://ns.adobe.com/Flows/1.0/">
]>
<svg version="1.1"
	 xmlns="http://www.w3.org/2000/svg" xmlns:xlink="http://www.w3.org/1999/xlink" xmlns:a="http://ns.adobe.com/AdobeSVGViewerExtensions/3.0/"
	 x="0px" y="0px" width="142px" height="142px" viewBox="-0.724 -0.724 142 142" enable-background="new -0.724 -0.724 142 142"
	 xml:space="preserve">
<defs>
</defs>
<path fill="#FFFFFF" d="M70.538,0C31.642,0,0,31.644,0,70.541c0,38.894,31.642,70.535,70.538,70.535
	c38.894,0,70.538-31.643,70.538-70.535C141.076,31.644,109.431,0,70.538,0z M51.046,84.11h-6.64L18.689,58.371h-0.862V84.11h-3.923
	V54.685h6.532l25.782,25.804h0.905V54.685h3.923V84.11z M79.755,84.11h-6.058L57.099,54.685h4.333L76.004,80.51h1.38l14.248-25.825
	h4.376L79.755,84.11z M102.019,84.11V54.685h3.923v25.976h23.238v3.449H102.019z"/>
</svg>
