<?xml version="1.0" encoding="utf-8"?>
<!-- Generator: Adobe Illustrator 15.0.2, SVG Export Plug-In . SVG Version: 6.00 Build 0)  -->
<!DOCTYPE svg PUBLIC "-//W3C//DTD SVG 1.1//EN" "http://www.w3.org/Graphics/SVG/1.1/DTD/svg11.dtd">
<svg version="1.1" xmlns="http://www.w3.org/2000/svg" xmlns:xlink="http://www.w3.org/1999/xlink" x="0px" y="0px" width="600px"
	 height="600px" viewBox="0 0 600 600" enable-background="new 0 0 600 600" xml:space="preserve">
<g id="Remove_User_-_NO">
	<path fill="#FFFFFF" d="M300.012,0C134.334,0,0,134.304,0,299.988C0,465.672,134.334,600,300.012,600
		C465.697,600,600,465.672,600,299.988C600,134.304,465.697,0,300.012,0z M543.619,299.988c0,52.215-16.439,100.59-44.411,140.249
		L159.494,100.971c39.709-28.083,88.186-44.59,140.518-44.59C434.527,56.381,543.619,165.448,543.619,299.988z M56.381,299.988
		c0-49.878,15.005-96.248,40.731-134.865l338.046,337.572c-38.676,25.845-85.151,40.924-135.146,40.924
		C165.473,543.619,56.381,434.527,56.381,299.988z"/>
</g>
</svg>
