<?xml version="1.0" encoding="utf-8"?>
<!-- Generator: Adobe Illustrator 15.0.0, SVG Export Plug-In . SVG Version: 6.00 Build 0)  -->
<!DOCTYPE svg PUBLIC "-//W3C//DTD SVG 1.1//EN" "http://www.w3.org/Graphics/SVG/1.1/DTD/svg11.dtd">
<svg version="1.1" id="Layer_1" xmlns="http://www.w3.org/2000/svg" xmlns:xlink="http://www.w3.org/1999/xlink" x="0px" y="0px"
	 width="141.73px" height="56.689px" viewBox="0 0 141.73 56.689" enable-background="new 0 0 141.73 56.689" xml:space="preserve">
<g>
	<rect x="0.057" y="-0.001" fill="#FF4E00" width="141.616" height="56.692"/>
	<g opacity="0.9">
		<g>
			<polygon fill="#010101" points="14.64,35.078 14.646,35.057 28.734,29.914 28.185,31.941 			"/>
			<polygon fill="#010101" points="14.64,35.078 14.646,35.057 27.766,33.938 27.458,35.078 			"/>
			<polygon fill="#010101" points="30.138,24.726 29.589,26.752 14.655,35.023 14.661,35.004 			"/>
			<polygon fill="#010101" points="30.993,21.568 14.669,34.973 18.296,21.568 			"/>
		</g>
	</g>
	<g>
		<path fill="#131313" d="M30.138,34.67l2.989-12.989l7.291,0.01l-0.58,2.521l-4.177-0.005l-0.55,2.387l3.854,0.005l-0.601,2.606
			L34.513,29.2l-0.652,2.835l4.177,0.005l-0.607,2.642L30.138,34.67z"/>
		<path fill="#131313" d="M40.491,34.711l2.952-12.826l3.222,0.004l0.748,7.915c0.204-1.333,0.394-2.482,0.566-3.449
			c0.173-0.966,0.336-1.78,0.488-2.448l0.466-2.015l2.758,0.003L48.739,34.72l-3.229-0.004L44.8,26.56
			c-0.131,1.062-0.278,2.089-0.447,3.086c-0.169,0.996-0.363,1.964-0.579,2.902l-0.497,2.164L40.491,34.711z"/>
		<path fill="#131313" d="M51.223,34.727l2.95-12.824l3.411,0.005c1.249,0.002,2.149,0.105,2.703,0.314
			c0.553,0.209,0.949,0.567,1.188,1.072c0.184,0.395,0.261,0.903,0.23,1.528c-0.027,0.625-0.24,1.792-0.634,3.503
			s-0.72,2.876-0.977,3.496c-0.26,0.623-0.57,1.134-0.938,1.532c-0.471,0.505-1.031,0.86-1.681,1.067
			c-0.648,0.207-1.6,0.311-2.849,0.309L51.223,34.727z M56.735,24.296l-1.864,8.094c0.062,0.012,0.119,0.016,0.177,0.017
			c0.058,0,0.146,0.002,0.267,0.002c0.333,0,0.619-0.045,0.86-0.134c0.24-0.088,0.452-0.229,0.635-0.424
			c0.148-0.156,0.298-0.455,0.443-0.897c0.146-0.444,0.366-1.316,0.665-2.615l0.134-0.583c0.247-1.066,0.394-1.787,0.438-2.162
			c0.046-0.374,0.03-0.631-0.046-0.771c-0.078-0.184-0.223-0.318-0.437-0.408c-0.212-0.089-0.495-0.135-0.857-0.135
			c-0.108,0-0.193,0.001-0.254,0.005C56.835,24.287,56.782,24.291,56.735,24.296z"/>
		<path fill="#131313" d="M64.757,21.918l3.126,0.004l-1.85,8.037c-0.279,1.215-0.374,1.969-0.283,2.256
			c0.091,0.29,0.338,0.436,0.738,0.436c0.407,0,0.722-0.147,0.946-0.448c0.223-0.3,0.472-1.047,0.748-2.24l1.849-8.036l3.066,0.004
			l-1.884,8.187C71,31.043,70.8,31.734,70.611,32.193c-0.188,0.458-0.416,0.855-0.683,1.194c-0.448,0.577-1,0.999-1.659,1.269
			c-0.657,0.269-1.464,0.402-2.42,0.4c-0.883-0.002-1.571-0.127-2.07-0.381c-0.496-0.254-0.845-0.658-1.044-1.215
			c-0.145-0.396-0.191-0.899-0.145-1.517c0.048-0.616,0.238-1.656,0.576-3.124L64.757,21.918z"/>
		<path fill="#131313" d="M72.619,34.76l2.951-12.825l3.479,0.005c1.142,0.001,1.955,0.055,2.447,0.157
			c0.492,0.104,0.869,0.28,1.133,0.53c0.308,0.3,0.504,0.67,0.593,1.108c0.084,0.438,0.057,0.96-0.082,1.566
			c-0.17,0.738-0.445,1.357-0.828,1.856c-0.381,0.498-0.89,0.909-1.523,1.23c0.861,0.412,1.142,1.387,0.838,2.924
			c-0.004,0.022-0.008,0.036-0.01,0.042c-0.031,0.161-0.078,0.395-0.143,0.699c-0.312,1.444-0.271,2.349,0.112,2.716l-3.616-0.004
			c-0.021-0.268-0.015-0.547,0.018-0.838c0.029-0.292,0.082-0.604,0.16-0.938c0.045-0.204,0.108-0.452,0.188-0.743
			c0.078-0.292,0.127-0.482,0.148-0.57c0.18-0.783,0.197-1.32,0.053-1.608c-0.146-0.289-0.494-0.433-1.043-0.435l-0.637-0.002
			l-1.181,5.131L72.619,34.76z M77.4,27.277c0.053,0,0.119,0.003,0.199,0.009c0.082,0.006,0.145,0.01,0.184,0.01
			c0.643,0,1.125-0.124,1.447-0.374c0.324-0.25,0.555-0.671,0.69-1.266c0.125-0.549,0.082-0.939-0.131-1.17
			s-0.641-0.347-1.281-0.348c-0.038,0-0.104,0.004-0.188,0.009s-0.15,0.007-0.203,0.007L77.4,27.277z"/>
		<path fill="#131313" d="M83.006,34.775l5.838-12.82l3.679,0.006L92.42,34.787l-3.092-0.004l0.18-2.457l-2.434-0.004l-0.951,2.456
			L83.006,34.775z M87.926,30.008l1.779,0.002l0.404-5.596L87.926,30.008z"/>
		<path fill="#131313" d="M94.898,34.793l2.951-12.826l3.223,0.004l0.748,7.915c0.203-1.332,0.391-2.481,0.563-3.448
			c0.175-0.965,0.339-1.781,0.492-2.448l0.463-2.015l2.759,0.003l-2.953,12.825l-3.229-0.004l-0.709-8.157
			c-0.129,1.063-0.279,2.09-0.449,3.085c-0.17,0.997-0.36,1.965-0.577,2.903l-0.498,2.164L94.898,34.793z"/>
		<path fill="#131313" d="M112.443,29.854l3.041,0.003c-0.014,0.078-0.027,0.161-0.045,0.251c-0.019,0.088-0.047,0.223-0.088,0.398
			c-0.361,1.564-0.982,2.727-1.863,3.483c-0.883,0.757-2.053,1.136-3.514,1.134c-0.859-0.002-1.563-0.144-2.111-0.42
			c-0.549-0.279-0.949-0.699-1.197-1.261c-0.17-0.399-0.231-0.955-0.184-1.666s0.252-1.838,0.606-3.382
			c0.354-1.543,0.67-2.67,0.949-3.38c0.277-0.71,0.596-1.266,0.951-1.666c0.498-0.555,1.084-0.972,1.756-1.251
			c0.672-0.28,1.43-0.418,2.271-0.418c1.448,0.002,2.444,0.396,2.989,1.174c0.545,0.781,0.64,1.949,0.281,3.503l-0.029,0.125
			l-3.006-0.012c0.189-0.872,0.229-1.484,0.113-1.838c-0.113-0.353-0.398-0.529-0.855-0.529c-0.497-0.002-0.889,0.213-1.172,0.644
			c-0.282,0.43-0.637,1.566-1.061,3.409l-0.055,0.241c-0.455,1.983-0.646,3.197-0.564,3.645c0.081,0.446,0.371,0.671,0.869,0.671
			c0.463,0.001,0.826-0.16,1.086-0.484c0.262-0.325,0.494-0.929,0.697-1.812L112.443,29.854z"/>
		<path fill="#131313" d="M116.938,34.824L119.891,22l7.198,0.01l-0.573,2.49l-4.123-0.006l-0.543,2.355l3.807,0.005l-0.594,2.573
			l-3.806-0.005l-0.645,2.798l4.123,0.006l-0.6,2.607L116.938,34.824z"/>
	</g>
</g>
</svg>
