<?xml version="1.0" encoding="utf-8"?>
<!-- Generator: Adobe Illustrator 15.0.0, SVG Export Plug-In  -->
<!DOCTYPE svg PUBLIC "-//W3C//DTD SVG 1.1//EN" "http://www.w3.org/Graphics/SVG/1.1/DTD/svg11.dtd" [
	<!ENTITY ns_flows "http://ns.adobe.com/Flows/1.0/">
]>
<svg version="1.1"
	 xmlns="http://www.w3.org/2000/svg" xmlns:xlink="http://www.w3.org/1999/xlink" xmlns:a="http://ns.adobe.com/AdobeSVGViewerExtensions/3.0/"
	 x="0px" y="0px" width="142px" height="142px" viewBox="-17.854 -17.766 142 142" enable-background="new -17.854 -17.766 142 142"
	 xml:space="preserve">
<defs>
</defs>
<polygon fill="#FFFFFF" points="45.664,48.888 45.664,48.89 14.455,27.182 14.455,27.182 13.03,26.185 11.024,24.79 11.024,24.79 
	0,17.118 0,29.388 0.048,29.106 105.398,105.757 0,37.468 0,48.516 0.048,48.234 76.182,103.625 0,56.597 0,69.242 0.048,68.962 
	44.78,101.503 0,77.318 0,106.054 106.053,106.054 106.053,90.892 "/>
<path fill="#FFFFFF" d="M8.243,17.72c0,0,4.696,3.003,8.567-1.65l1.687-2.495l0.043,0.028l1.962-2.928l-0.02-0.023l5.201-7.684
	c0,0,5.65,4.471,5.479,4.404c-0.175-0.071-5.85,5.153-0.96,6.406c4.893,1.251,11.282,0.453,11.282,0.453
	c-3.837,2.833-10.489,7.489-9.609,13.582c0.891,6.095,10.774,1.764,24.771,4.786c14,3.021,28.549,14.217,28.549,14.217l-9.504,9.719
	c0,0,3.539-3.328,7.986-1.963c4.438,1.355,5.471,4.023,5.471,4.023s-6.848,6.367,1.865,10.713c3.709,1.854,9.125,4.941,15.039,8.408
	V0H0v12.584L8.243,17.72z"/>
</svg>
