<?xml version="1.0" encoding="utf-8"?>
<!-- Generator: Adobe Illustrator 15.0.0, SVG Export Plug-In  -->
<!DOCTYPE svg PUBLIC "-//W3C//DTD SVG 1.1//EN" "http://www.w3.org/Graphics/SVG/1.1/DTD/svg11.dtd" [
	<!ENTITY ns_flows "http://ns.adobe.com/Flows/1.0/">
]>
<svg version="1.1"
	 xmlns="http://www.w3.org/2000/svg" xmlns:xlink="http://www.w3.org/1999/xlink" xmlns:a="http://ns.adobe.com/AdobeSVGViewerExtensions/3.0/"
	 x="0px" y="0px" width="142px" height="57px" viewBox="-0.058 0.001 142 57" enable-background="new -0.058 0.001 142 57"
	 xml:space="preserve">
<defs>
</defs>
<rect fill="#CC0027" width="141.615" height="56.692"/>
<path fill="#010101" d="M42.844,39.634c0,1.134-0.917,2.052-2.05,2.052H18.22c-1.133,0-2.052-0.918-2.052-2.052V17.06
	c0-1.134,0.919-2.052,2.052-2.052h22.574c1.133,0,2.05,0.918,2.05,2.052V39.634z"/>
<g>
	<defs>
		<path id="SVGID_1_" d="M41.733,38.692c0,1.039-0.842,1.881-1.88,1.881H19.158c-1.035,0-1.88-0.842-1.88-1.881V18
			c0-1.039,0.845-1.88,1.88-1.88h20.694c1.038,0,1.88,0.842,1.88,1.88L41.733,38.692L41.733,38.692z"/>
	</defs>
	<clipPath id="SVGID_2_">
		<use xlink:href="#SVGID_1_"  overflow="visible"/>
	</clipPath>
	<g clip-path="url(#SVGID_2_)">
		<rect x="17.278" y="16.119" fill="#010101" width="24.454" height="24.453"/>
		<polygon opacity="0.9" fill="#B70023" enable-background="new    " points="38.878,32.475 38.889,32.889 39.295,33.701 
			41.733,34.981 41.733,16.119 17.278,16.119 17.278,18.814 		"/>
		<path fill="#FFFFFF" d="M38.256,30.198c-1.892-1.021-4.832-2.663-6.242-3.306c-1.41-0.642-0.302-1.579-0.302-1.579
			s-0.167-0.394-0.889-0.595c-0.72-0.2-1.292,0.29-1.292,0.29l1.539-1.433c0,0-2.354-1.65-4.622-2.097
			c-2.266-0.445-3.864,0.192-4.011-0.705c-0.142-0.897,0.937-1.585,1.556-2.003c0,0-1.031,0.118-1.824-0.065
			c-0.791-0.186,0.127-0.955,0.154-0.945c0.027,0.011-0.888-0.648-0.888-0.648l-0.843,1.134l1.563,1.56l-1.885-1.128l-0.363,0.487
			l2.164,2.155l-2.605-1.56l-0.235,0.317l-0.169,0.251l19.825,12.558c0.569-0.156,1.176-0.323,1.252-0.78
			C40.229,31.568,40.146,31.22,38.256,30.198z"/>
		<path fill="#FFFFFF" d="M41.733,34.689l-2.845-1.801c-0.104,0.026-0.202,0.055-0.297,0.084c-0.634,0.19-1.068,0.327-0.106,0.768
			c0.444,0.203,1.857,0.854,3.248,1.498V34.689z"/>
		<polygon fill="#FFFFFF" points="17.278,22.199 34.342,32.268 17.288,20.966 17.278,21.008 		"/>
		<polygon fill="#FFFFFF" points="17.278,25.02 29.612,31.952 17.288,23.786 17.278,23.828 		"/>
		<polygon fill="#FFFFFF" points="17.278,28.074 24.528,31.641 17.288,26.841 17.278,26.883 		"/>
		<path fill="#FFFFFF" d="M21.438,17.112l-2.374,3.218l5.609,3.554l-2.717-2.513l0.47,0.02c0,0-0.176-1.371-0.021-1.566
			c0.156-0.195-0.646-0.939-0.646-0.939s-0.039-0.842,0.02-0.9C21.839,17.923,21.438,17.112,21.438,17.112z"/>
		<path fill="#FFFFFF" d="M19.618,20.684l-2.34-1.482v-0.67l1.335,0.758c0,0,0.854,0.498,1.497-0.378
			c0.645-0.876,0.933,1.252,0.933,1.252L19.618,20.684z"/>
	</g>
</g>
<path fill="#FFFFFF" d="M49.559,33.508c-0.483,0-0.956-0.093-1.405-0.276c-0.448-0.184-0.848-0.447-1.187-0.786
	c-0.241-0.241-0.422-0.484-0.555-0.742c-0.134-0.259-0.229-0.533-0.291-0.837c-0.057-0.297-0.092-0.632-0.105-0.999
	c-0.014-0.356-0.021-0.864-0.021-1.521c0-0.655,0.008-1.164,0.021-1.523c0.013-0.364,0.048-0.699,0.105-0.994
	c0.062-0.307,0.16-0.589,0.292-0.842c0.133-0.254,0.319-0.504,0.553-0.74c0.342-0.341,0.742-0.605,1.189-0.787
	c0.897-0.367,1.911-0.367,2.808,0c0.448,0.182,0.848,0.447,1.188,0.786c0.233,0.233,0.42,0.482,0.555,0.741
	c0.132,0.256,0.229,0.539,0.289,0.841c0.057,0.291,0.093,0.625,0.107,0.996c0.013,0.359,0.021,0.867,0.021,1.523
	c-0.001,0.655-0.01,1.162-0.021,1.52c-0.014,0.373-0.05,0.708-0.107,0.998c-0.06,0.303-0.157,0.584-0.289,0.84
	c-0.137,0.261-0.324,0.51-0.555,0.741c-0.343,0.342-0.743,0.606-1.189,0.786C50.514,33.415,50.042,33.508,49.559,33.508z
	 M49.56,24.334c-0.661,0-1.203,0.22-1.656,0.673c-0.154,0.154-0.274,0.317-0.36,0.486c-0.091,0.176-0.157,0.375-0.203,0.607
	c-0.048,0.25-0.078,0.536-0.09,0.851c-0.016,0.339-0.021,0.804-0.021,1.396c0,0.591,0.007,1.057,0.021,1.394
	c0.012,0.315,0.042,0.603,0.09,0.854c0.045,0.231,0.113,0.435,0.201,0.604c0.091,0.175,0.212,0.339,0.361,0.488
	c0.453,0.453,0.995,0.673,1.656,0.673c0.661,0,1.203-0.22,1.655-0.673c0.154-0.155,0.276-0.318,0.361-0.486
	c0.087-0.171,0.155-0.375,0.201-0.607c0.046-0.237,0.077-0.524,0.09-0.851c0.016-0.339,0.021-0.804,0.021-1.395
	c0-0.592-0.007-1.057-0.021-1.395c-0.013-0.328-0.043-0.614-0.09-0.852c-0.046-0.229-0.114-0.434-0.202-0.607
	c-0.089-0.171-0.211-0.335-0.361-0.486C50.762,24.554,50.221,24.334,49.56,24.334z"/>
<path fill="#FFFFFF" d="M60.15,28.333c-0.542,0.498-1.244,0.747-2.104,0.747h-2.811v4.1h-0.731v-9.663h3.542
	c0.857,0,1.562,0.249,2.104,0.747c0.543,0.497,0.814,1.176,0.814,2.035C60.966,27.157,60.693,27.835,60.15,28.333z M59.622,24.702
	c-0.406-0.357-0.959-0.536-1.655-0.536h-2.729v4.261h2.729c0.696,0,1.249-0.181,1.655-0.543c0.405-0.361,0.609-0.891,0.609-1.588
	C60.233,25.591,60.028,25.061,59.622,24.702z"/>
<path fill="#FFFFFF" d="M55.486,33.43h-1.231V23.267h3.792c0.921,0,1.686,0.273,2.272,0.813c0.594,0.544,0.896,1.291,0.896,2.219
	c0.001,0.926-0.3,1.672-0.896,2.218c-0.587,0.54-1.352,0.813-2.272,0.813h-2.561V33.43z M55.487,28.177h2.479
	c0.631,0,1.132-0.161,1.489-0.479c0.354-0.315,0.526-0.774,0.526-1.401c0.002-0.633-0.17-1.093-0.525-1.406
	c-0.357-0.314-0.858-0.474-1.49-0.474h-2.479V28.177z"/>
<path fill="#FFFFFF" d="M62.771,33.178v-9.662h5.863v0.651h-5.13v3.813h4.37v0.65h-4.37v3.896h5.13v0.65L62.771,33.178
	L62.771,33.178z"/>
<path fill="#FFFFFF" d="M62.521,33.428V23.266h6.363v1.151h-5.13v3.313h4.37v1.15h-4.37v3.396h5.13v1.15L62.521,33.428z"/>
<path fill="#FFFFFF" d="M76.897,33.178l-3.08-4.642l-2.498-3.76v8.4h-0.73v-9.662h0.73l3.068,4.613l2.51,3.761v-8.374h0.732v9.662
	L76.897,33.178L76.897,33.178z"/>
<path fill="#FFFFFF" d="M77.88,33.427h-1.116l-0.074-0.11l-5.12-7.712v7.822h-1.23V23.265h1.114l5.194,7.799v-7.799h1.232V33.427z"
	/>
<path fill="#FFFFFF" d="M90.536,33.12h-1.573l-1.777-5.864l-1.777,5.864h-1.572l-2.58-9.664h1.969l1.492,6.093l1.764-6.093h1.412
	l1.764,6.093l1.51-6.093h1.967L90.536,33.12z"/>
<path fill="#FFFFFF" d="M99.866,33.12v-4.045h-3.27v4.045H94.71v-9.664h1.887v3.948h3.27v-3.948h1.889v9.664H99.866z"/>
<path fill="#FFFFFF" d="M103.354,33.12v-9.664h6.365v1.684h-4.479v2.266h3.813v1.684h-3.813v2.349h4.479v1.685h-6.365V33.12z"/>
<path fill="#FFFFFF" d="M111.267,33.12v-9.664h6.365v1.684h-4.479v2.266h3.813v1.684h-3.813v2.349h4.479v1.685h-6.365V33.12z"/>
<path fill="#FFFFFF" d="M119.177,33.12v-9.664h1.889v7.979h4.383v1.685H119.177z"/>
</svg>
