<?xml version="1.0" encoding="utf-8"?>
<!-- Generator: Adobe Illustrator 15.0.0, SVG Export Plug-In . SVG Version: 6.00 Build 0)  -->
<!DOCTYPE svg PUBLIC "-//W3C//DTD SVG 1.1//EN" "http://www.w3.org/Graphics/SVG/1.1/DTD/svg11.dtd">
<svg version="1.1" id="Layer_1" xmlns="http://www.w3.org/2000/svg" xmlns:xlink="http://www.w3.org/1999/xlink" x="0px" y="0px"
	 width="142px" height="142px" viewBox="0 0 142 142" enable-background="new 0 0 142 142" xml:space="preserve">
<path fill-rule="evenodd" clip-rule="evenodd" fill="#5EC6C5" d="M122.249,69.4L93.255,58.443c0,0-2.158-11.655-3.71-16.545
	c4.677-2.588,8.817-6.063,8.935-13.024c0.084-4.935-1.938-10.437-5.962-13.734c-6.218-5.095-19.32-5.169-24.528,2.973
	c-4.162,6.508-3.108,17.306,3.716,22.298c3.086,2.256,4.93,3.343,9.664,3.716c2.223,8.71,3.576,15.668,3.576,15.668
	s-26.908,9.148-28.797,9.856c-3.092,1.16-3.024,4.208-3.024,4.208l3.319,16.692c0,0,11.465,8.201,16.133,11.762
	c3.705,2.827,7.344,3.285,11.402,1.933c4.059-1.354,40.351-18.153,40.351-18.153L122.249,69.4z M88.84,17.352
	c0,0,8.129,5.308,4.769,11.691c-0.84-6.719-7.429-10.386-7.429-10.386L88.84,17.352z M79.882,86.496L56.097,73.117L85.828,62.71
	c0,0,0.471,1.338,1.822,7.522c1.354,3.865,8.311,2.319,7.925-1.353c-1.16-6.57-1.16-6.57-1.16-6.57l24.352,9.083L79.882,86.496z"/>
<path fill-rule="evenodd" clip-rule="evenodd" fill="#5EC6C5" d="M88.642,77.639c0.036-0.251-0.08,0.131-0.853-5.474
	c-0.967-4.252-15.268-1.546-14.415,3.347c0.192,0.386,1.272,5.543,1.08,5.543C75.42,84.534,89.528,81.828,88.642,77.639z
	 M80.727,74.867c-3.07,0.73-5.735,0.572-5.956-0.354s2.089-2.268,5.157-2.998c3.069-0.73,5.735-0.572,5.955,0.353
	C86.104,72.795,83.795,74.137,80.727,74.867z"/>
<path fill-rule="evenodd" clip-rule="evenodd" fill="#5EC6C5" d="M42.126,51.609c0.061-0.152-0.07,0.07,0.282-3.576
	c0.028-2.824-9.389-3.26-9.583-0.05c0.064,0.272-0.029,3.683-0.15,3.653C32.763,53.975,42.058,54.381,42.126,51.609z M37.554,48.677
	c-2.043,0-3.7-0.496-3.7-1.114c0-0.616,1.656-1.117,3.699-1.116c2.043-0.001,3.699,0.498,3.7,1.113
	C41.252,48.178,39.596,48.677,37.554,48.677z"/>
<path fill-rule="evenodd" clip-rule="evenodd" fill="#5EC6C5" d="M55.105,42.086c-1.423-0.341-21.603-4.504-21.603-4.504
	s0.348-5.126,1.165-11.593c3.372-0.693,4.601-1.642,6.618-3.542c4.461-4.205,4.249-12.068,0.669-16.375
	c-4.478-5.39-13.897-4.159-17.913,0.065c-2.599,2.734-3.311,6.561-2.807,10.103c0.71,4.997,3.753,7.439,7.351,8.88
	c-0.676,3.658-1.182,12.237-1.182,12.237L7.529,47.843l0.72,11.71c0,0,26.903,9.311,29.944,9.92
	c3.041,0.609,4.189-0.083,6.812-2.214c3.222-2.618,11.832-11.438,11.832-11.438l0.823-10.981
	C57.659,44.841,57.434,42.642,55.105,42.086z M39.544,56.335l-29.642-7.81l17.551-9.662c0,0-0.538,1.378-0.782,6.208
	c0.053,2.677,5.197,3.164,5.823,0.262c0.417-4.57,0.876-6.47,0.876-6.47l22.086,4.733L39.544,56.335z M38.894,7.193
	c0,0,4.285,4.114,1.325,8.692c0.046-4.064-3.382-7.835-3.382-7.835L38.894,7.193z"/>
</svg>
