<?xml version="1.0" encoding="utf-8"?>
<!-- Generator: Adobe Illustrator 15.0.0, SVG Export Plug-In . SVG Version: 6.00 Build 0)  -->
<!DOCTYPE svg PUBLIC "-//W3C//DTD SVG 1.1//EN" "http://www.w3.org/Graphics/SVG/1.1/DTD/svg11.dtd">
<svg version="1.1" id="Layer_1" xmlns="http://www.w3.org/2000/svg" xmlns:xlink="http://www.w3.org/1999/xlink" x="0px" y="0px"
	 width="141.73px" height="56.689px" viewBox="0 0 141.73 56.689" enable-background="new 0 0 141.73 56.689" xml:space="preserve">
<g>
	<rect x="0.057" y="-0.001" fill="#FFFF00" width="141.616" height="56.692"/>
	<path fill="#010101" d="M126.406,20.057c-0.34-0.472-0.885-0.752-1.469-0.752H21.454c-0.786,0-1.479,0.506-1.722,1.254
		L15.07,35.023c-0.177,0.552-0.081,1.152,0.259,1.619c0.341,0.467,0.885,0.744,1.463,0.744h99.205c0.785,0,1.48-0.506,1.724-1.254
		l3.118-9.647h2.906c0.777,0,1.469-0.497,1.717-1.233l1.191-3.564C126.838,21.136,126.746,20.529,126.406,20.057z M86.48,21.113
		h10.147h1.246l-0.344,1.07l-0.799,2.494H85.338L86.48,21.113z M84.777,24.677L84.777,24.677L84.777,24.677L84.777,24.677z
		 M72.059,21.113h7.178c1.902,0,3.174,0.402,3.813,1.207c0.503,0.63,0.718,1.291,0.527,2.357h-5.656
		c-0.071-0.003-0.146-0.006-0.223-0.006h-2.965l-0.002,0.006h-3.818L72.059,21.113z M16.792,35.578l4.662-14.483h2.878
		l-4.663,14.483H16.792z M22.583,35.578l4.663-14.483h4.688l-4.663,14.483H22.583z M30.502,35.578l4.662-14.483h7.031l-4.663,14.483
		H30.502z M55.695,30.59c-0.079,0.368-0.196,0.74-0.35,1.104c-0.309,0.736-0.765,1.443-1.318,2.045
		c-0.551,0.601-1.192,1.089-1.854,1.41c-0.333,0.16-0.669,0.281-0.998,0.355c-0.165,0.037-0.327,0.063-0.487,0.078
		c-0.081,0.006-0.16,0.012-0.238,0.014h-0.169h-7.056h-2.398l0.632-2.075l0.457-1.507h9.567c0.016,0,0.032-0.002,0.049-0.004
		c0.033-0.002,0.068-0.008,0.102-0.016c0.067-0.017,0.138-0.039,0.205-0.072c0.136-0.066,0.272-0.172,0.388-0.295
		c0.115-0.127,0.207-0.269,0.271-0.421c0.031-0.073,0.059-0.157,0.074-0.235c0.017-0.075,0.024-0.15,0.022-0.223
		c-0.001-0.144-0.036-0.273-0.104-0.377c-0.067-0.104-0.163-0.177-0.277-0.211c-0.028-0.009-0.06-0.017-0.091-0.021
		c-0.016-0.002-0.032-0.004-0.048-0.004l0.015-0.111l-0.033,0.11l-5.722-0.001h-0.096c-0.031,0-0.063-0.002-0.094-0.003
		l-0.021-0.002c-0.077-0.005-0.151-0.011-0.229-0.022c-0.152-0.02-0.298-0.051-0.435-0.094c-0.559-0.17-1.021-0.52-1.343-1.015
		c-0.321-0.493-0.493-1.121-0.499-1.816c-0.003-0.349,0.036-0.713,0.114-1.082c0.079-0.369,0.197-0.741,0.35-1.104
		c0.31-0.737,0.766-1.444,1.318-2.045c0.551-0.601,1.191-1.088,1.854-1.409c0.332-0.161,0.667-0.282,0.997-0.356
		c0.166-0.037,0.329-0.063,0.488-0.077c0.081-0.008,0.161-0.013,0.238-0.014l0.17-0.001h21.082l-0.63,2.074l-0.458,1.507H47.944
		c-0.016,0-0.032,0.001-0.05,0.003c-0.032,0.003-0.066,0.008-0.102,0.016c-0.066,0.016-0.136,0.04-0.204,0.073
		c-0.136,0.066-0.272,0.171-0.388,0.295c-0.115,0.126-0.208,0.269-0.271,0.42c-0.031,0.075-0.058,0.157-0.074,0.235
		c-0.018,0.076-0.023,0.15-0.023,0.222c0.001,0.145,0.037,0.274,0.104,0.378c0.066,0.104,0.163,0.176,0.276,0.21
		c0.029,0.01,0.061,0.016,0.092,0.021c0.016,0.002,0.031,0.003,0.048,0.005l-0.016,0.112l0.034-0.111h5.721l0.097,0.001
		c0.028,0,0.059,0.001,0.089,0.003l0.025,0.001c0.077,0.004,0.152,0.011,0.229,0.021c0.153,0.021,0.299,0.053,0.435,0.095
		c0.56,0.17,1.022,0.521,1.344,1.016c0.319,0.492,0.493,1.12,0.499,1.816C55.812,29.857,55.774,30.221,55.695,30.59z M61.486,35.578
		h-3.839l3.196-9.958h3.84L61.486,35.578z M80.658,30.697c0.002,0.004,0.004,0.005,0.006,0.007c0.213,0.44-0.02,1.696-0.258,2.545
		c-0.213,0.756-0.273,1.149-0.244,1.377c0.025,0.162,0.08,0.274,0.162,0.34l-0.197,0.615h-3.612h-0.408h-0.15
		c0,0,0.355-1.168,0.535-1.812c0.035-0.137,0.064-0.245,0.08-0.322c0.162-0.69,0.127-1.196-0.103-1.52
		c-0.229-0.32-0.678-0.481-1.342-0.481h-2.567l-1.326,4.135h-3.818l3.197-9.96h3.818l-0.744,2.315h2.86
		c0.775,0,1.336,0.028,1.808-0.31c0.471-0.338,0.762-0.681,1-1.42c0.09-0.279,0.11-0.452,0.09-0.587h3.896
		c-0.004,0.015-0.008,0.028-0.014,0.044c-0.32,0.997-0.66,1.458-1.271,2.17c-0.613,0.711-1.4,1.308-2.363,1.791
		C80.201,29.895,80.523,30.253,80.658,30.697z M93.477,35.578h-11.64l3.195-9.958h3.84l-0.303,0.945h6.902l-1.142,3.559h-6.904
		l-0.586,1.822h7.8L93.477,35.578z M107.67,31.947l-1.166,3.632H94.865l3.197-9.958h3.84l-0.305,0.945h6.903l-1.143,3.559h-6.904
		l-0.586,1.822H107.67z M109.76,24.677H98.365l0.486-1.513l0.657-2.052l0,0h11.396L109.76,24.677z M115.996,35.578h-3.838
		l3.197-9.958h3.838L115.996,35.578z M123.781,24.719h-0.037v-0.042h-12.383l1.143-3.564h12.435L123.781,24.719z"/>
</g>
</svg>
