<?xml version="1.0" encoding="utf-8"?>
<!-- Generator: Adobe Illustrator 15.0.0, SVG Export Plug-In  -->
<!DOCTYPE svg PUBLIC "-//W3C//DTD SVG 1.1//EN" "http://www.w3.org/Graphics/SVG/1.1/DTD/svg11.dtd" [
	<!ENTITY ns_flows "http://ns.adobe.com/Flows/1.0/">
]>
<svg version="1.1"
	 xmlns="http://www.w3.org/2000/svg" xmlns:xlink="http://www.w3.org/1999/xlink" xmlns:a="http://ns.adobe.com/AdobeSVGViewerExtensions/3.0/"
	 x="0px" y="0px" width="142px" height="142px" viewBox="-13.359 -18.095 142 142" enable-background="new -13.359 -18.095 142 142"
	 xml:space="preserve">
<defs>
</defs>
<path fill="#0D58FF" d="M105.902,37.116l8.906-30.161c0.498-1.631,0.182-3.403-0.842-4.776C112.945,0.804,111.336,0,109.633,0
	h-41.75c-2.396,0-4.504,1.568-5.191,3.858l-8.899,30.158c-0.493,1.639-0.183,3.414,0.838,4.789c1.03,1.37,2.639,2.17,4.347,2.17
	h41.742C103.113,40.976,105.227,39.405,105.902,37.116z"/>
<path fill="#0D58FF" d="M41.197,105.397h28.244c1.619,0,3.043-1.061,3.508-2.617l6.023-20.398c0.336-1.113,0.123-2.309-0.566-3.236
	c-0.693-0.934-1.783-1.475-2.938-1.475h-28.24c-1.628,0-3.049,1.059-3.514,2.621l-6.02,20.395c-0.338,1.111-0.121,2.309,0.561,3.23
	C38.951,104.851,40.043,105.397,41.197,105.397z"/>
<path fill="#0D58FF" d="M43.684,72.872l7.432-25.168c0.409-1.365,0.145-2.843-0.707-3.99c-0.852-1.139-2.199-1.813-3.625-1.813
	h-34.84c-1.999,0-3.755,1.309-4.326,3.223L0.19,70.286c-0.412,1.369-0.146,2.852,0.697,3.996c0.858,1.143,2.203,1.816,3.624,1.816
	h34.84C41.349,76.099,43.111,74.786,43.684,72.872z"/>
</svg>
