<?xml version="1.0" encoding="utf-8"?>
<!-- Generator: Adobe Illustrator 15.0.0, SVG Export Plug-In . SVG Version: 6.00 Build 0)  -->
<!DOCTYPE svg PUBLIC "-//W3C//DTD SVG 1.1//EN" "http://www.w3.org/Graphics/SVG/1.1/DTD/svg11.dtd">
<svg version="1.1" id="Layer_1" xmlns="http://www.w3.org/2000/svg" xmlns:xlink="http://www.w3.org/1999/xlink" x="0px" y="0px"
	 width="141.73px" height="56.689px" viewBox="0 0 141.73 56.689" enable-background="new 0 0 141.73 56.689" xml:space="preserve">
<g>
	<rect x="0.057" y="-0.001" fill="#0D58FF" width="141.616" height="56.692"/>
	<g>
		<path fill="#FFFFFF" d="M123.865,22.672c-0.975-1.398-2.564-2.107-4.727-2.107H53.963l1.05-3.539
			c0.161-0.548,0.055-1.149-0.288-1.607s-0.889-0.732-1.461-0.732H30.163c-0.806,0-1.524,0.54-1.75,1.313l-1.756,6.018
			c-6.125-0.132-6.132-0.132-6.139-0.132c-0.813,0-1.533,0.544-1.755,1.326l-1.745,6.168c-0.155,0.546-0.043,1.143,0.299,1.597
			c0.343,0.453,0.886,0.723,1.454,0.723h5.66l-0.817,2.814c-0.158,0.549-0.048,1.146,0.294,1.602
			c0.342,0.457,0.887,0.729,1.457,0.729h7.737l-0.84,2.818c-0.164,0.549-0.059,1.149,0.284,1.608
			c0.344,0.461,0.89,0.734,1.461,0.734h8.456c0.802,0,1.521-0.535,1.748-1.303l1.051-3.535h75.116c0.808,0,1.509-0.519,1.742-1.291
			l2.144-7.021C124.484,28.236,125.508,25.03,123.865,22.672z M19.779,29.875c-0.251,0-0.486-0.119-0.637-0.32
			c-0.148-0.199-0.195-0.461-0.123-0.702l1.305-4.418c0.101-0.336,0.408-0.565,0.76-0.565h6.118c0.251,0,0.487,0.118,0.637,0.318
			c0.149,0.201,0.196,0.46,0.124,0.701l-1.305,4.419c-0.101,0.337-0.41,0.567-0.761,0.567H19.779z M32.855,30.979l-1.059,3.582
			c-0.082,0.271-0.332,0.459-0.615,0.459h-4.96c-0.203,0-0.396-0.096-0.518-0.26c-0.12-0.162-0.158-0.373-0.099-0.567l1.057-3.582
			c0.083-0.273,0.332-0.46,0.617-0.46h4.96c0.202,0,0.394,0.097,0.516,0.26C32.876,30.571,32.915,30.782,32.855,30.979z
			 M29.343,23.707c-0.3,0-0.583-0.142-0.764-0.382c-0.179-0.241-0.232-0.554-0.146-0.842l1.563-5.296
			c0.121-0.402,0.49-0.678,0.911-0.678h7.332c0.301,0,0.583,0.142,0.763,0.383s0.234,0.552,0.147,0.839l-1.564,5.297
			c-0.119,0.402-0.49,0.679-0.91,0.679H29.343z M42.464,40.182h-8.456l7.009-23.672h12.229l-1.098,3.669h-3.738L42.464,40.182z
			 M61.496,28.867c-0.611,1.996-1.664,3.576-3.159,4.736c-1.496,1.16-3.229,1.74-5.199,1.74c-1.976,0-3.356-0.58-4.146-1.74
			s-0.878-2.74-0.267-4.736c0.611-2.005,1.666-3.587,3.165-4.743c1.496-1.158,3.233-1.736,5.21-1.736c1.97,0,3.35,0.578,4.137,1.736
			C62.022,25.281,62.109,26.862,61.496,28.867z M71.966,34.125c-1.241,0.813-2.808,1.219-4.693,1.219
			c-1.897,0-3.223-0.406-3.977-1.223c-0.751-0.815-0.893-1.99-0.424-3.527l2.411-7.89h3.95l-2.317,7.581
			c-0.214,0.7-0.223,1.2-0.021,1.498c0.203,0.298,0.645,0.446,1.33,0.446c0.667,0,1.188-0.146,1.564-0.438s0.673-0.794,0.892-1.507
			l2.316-7.581h3.949l-2.412,7.89C74.064,32.137,73.207,33.313,71.966,34.125z M87.4,30.148c0.182,0.425,0.158,1.049-0.07,1.874
			l-0.459,1.71c0,0.013-0.004,0.026-0.002,0.044c-0.135,0.487-0.094,0.745,0.115,0.768l-0.139,0.461h-3.984
			c0.018-0.297,0.043-0.553,0.074-0.773c0.03-0.22,0.064-0.391,0.102-0.514l0.375-1.229c0.195-0.636,0.205-1.08,0.035-1.34
			c-0.172-0.259-0.566-0.389-1.184-0.389h-1.679l-1.297,4.243H75.39l3.76-12.3h5.885c1.842,0,3.072,0.275,3.693,0.826
			c0.617,0.551,0.733,1.455,0.352,2.714c-0.229,0.751-0.584,1.375-1.057,1.869c-0.476,0.495-1.094,0.888-1.855,1.177
			C86.811,29.437,87.221,29.722,87.4,30.148z M88.404,35.004l3.758-12.3h4.023l-3.759,12.3H88.404z M102.543,35.004l-1.713-5.68
			c-0.053-0.166-0.098-0.404-0.129-0.708c-0.031-0.308-0.051-0.657-0.059-1.054c-0.027,0.218-0.068,0.445-0.125,0.682
			c-0.056,0.235-0.148,0.569-0.279,0.997l-1.76,5.763h-3.75l3.76-12.3h3.748l1.703,5.719c0.055,0.162,0.096,0.391,0.127,0.684
			c0.026,0.296,0.047,0.652,0.051,1.07c0.033-0.219,0.084-0.459,0.146-0.72s0.151-0.578,0.264-0.951l1.775-5.803h3.766l-3.76,12.3
			L102.543,35.004L102.543,35.004z M122.791,26.945h-3.748c-0.002-0.488-0.133-0.862-0.389-1.118
			c-0.26-0.255-0.635-0.384-1.133-0.384c-0.789,0-1.476,0.303-2.051,0.91c-0.58,0.607-1.052,1.512-1.419,2.713
			c-0.34,1.113-0.397,1.945-0.172,2.497c0.228,0.55,0.744,0.825,1.552,0.825c0.58,0,1.112-0.135,1.598-0.404
			c0.486-0.27,0.846-0.633,1.08-1.09h-1.777l0.803-2.629h5.402l-2.061,6.738h-2.545l0.131-1.063
			c-0.59,0.476-1.234,0.826-1.935,1.058c-0.699,0.23-1.467,0.346-2.301,0.346c-1.76,0-2.969-0.576-3.631-1.731
			c-0.658-1.154-0.68-2.735-0.064-4.745c0.625-2.055,1.677-3.647,3.154-4.781c1.478-1.131,3.232-1.697,5.271-1.697
			c1.604,0,2.774,0.397,3.514,1.192C122.807,24.376,123.049,25.498,122.791,26.945z"/>
		<path fill="#FFFFFF" d="M56.155,25.477c-0.831,0-1.522,0.272-2.079,0.818c-0.558,0.545-1.014,1.401-1.371,2.572
			c-0.355,1.162-0.421,2.018-0.199,2.561c0.223,0.547,0.75,0.818,1.579,0.818c0.822,0,1.512-0.271,2.062-0.813
			s1.003-1.399,1.359-2.566c0.359-1.176,0.43-2.033,0.212-2.577C57.499,25.748,56.977,25.477,56.155,25.477z"/>
		<path fill="#FFFFFF" d="M83.832,25.686h-1.694l-0.705,2.304h1.797c0.627,0,1.088-0.085,1.379-0.255
			c0.293-0.17,0.5-0.466,0.631-0.889c0.133-0.433,0.104-0.736-0.082-0.905C84.969,25.771,84.527,25.686,83.832,25.686z"/>
	</g>
</g>
</svg>
