<?xml version="1.0" encoding="utf-8"?>
<!-- Generator: Adobe Illustrator 15.0.0, SVG Export Plug-In . SVG Version: 6.00 Build 0)  -->
<!DOCTYPE svg PUBLIC "-//W3C//DTD SVG 1.1//EN" "http://www.w3.org/Graphics/SVG/1.1/DTD/svg11.dtd">
<svg version="1.1" id="Layer_1" xmlns="http://www.w3.org/2000/svg" xmlns:xlink="http://www.w3.org/1999/xlink" x="0px" y="0px"
	 width="141.73px" height="56.689px" viewBox="0 0 141.73 56.689" enable-background="new 0 0 141.73 56.689" xml:space="preserve">
<g>
	<rect x="0.057" y="-0.001" fill="#5C29E5" width="141.616" height="56.692"/>
	<g>
		<path fill="#FFFFFF" d="M115.256,19.748c-1.512-2.084-4.082-3.28-7.055-3.28c-0.313,0-0.639,0.014-0.959,0.04H40.804l1.776-5.395
			H31.664L26.73,26.109l-0.742,2.258c-0.111,0.328-0.313,0.925-0.452,1.484c-0.135,0.514-0.238,1.041-0.326,1.65
			c-0.672,4.586,1.016,8.854,4.498,11.414c1.685,1.254,3.79,2.104,6.104,2.467c0.521,0.078,1.072,0.133,1.703,0.172
			c0.285,0.014,0.581,0.021,0.877,0.021h71.793l2.334-7.104l3.668-11.311C117.064,24.477,116.727,21.774,115.256,19.748z
			 M76.984,27.342c1.479-4.485,6.733-8.129,11.723-8.129c5,0,7.857,3.644,6.377,8.129c-0.139,0.451-0.317,0.866-0.53,1.283h-5.041
			h-4.802h-2.981c-0.013,1.652,1.125,2.843,2.946,2.843c1.179,0,2.404-0.502,3.418-1.298h5.513
			c-2.312,3.099-6.347,5.316-10.252,5.316C78.357,35.488,75.51,31.844,76.984,27.342z M70.051,18.832
			c4.533,0,7.107,3.413,5.727,7.596l-2.98,9.061h-4.751l2.976-9.061c0.582-1.772-0.501-3.207-2.418-3.207
			c-1.924,0-3.947,1.435-4.534,3.207l-2.979,9.061h-4.758l2.984-9.061C60.688,22.244,65.509,18.832,70.051,18.832z M48.627,18.832
			l-2.975,9.069c-0.587,1.766,0.499,3.204,2.418,3.204c1.922,0,3.953-1.438,4.527-3.204l2.988-9.069h4.757l-2.986,9.069
			c-1.38,4.174-6.194,7.587-10.734,7.587c-4.528,0-7.113-3.413-5.725-7.587l2.972-9.069H48.627z M77.443,43.213H41.481h-2.457
			h-0.632c-0.255,0-0.508-0.008-0.753-0.021c-0.502-0.028-0.995-0.075-1.478-0.147c-1.932-0.301-3.664-0.998-5.042-2.023
			c-2.772-2.037-4.12-5.438-3.572-9.176c0.069-0.479,0.155-0.944,0.279-1.412c0.111-0.461,0.288-0.98,0.402-1.315l0.746-2.271
			l1.49-4.532l2.907-8.836h2.36h1.213h2.365l-1.776,5.394h4.839l-1.617,4.936h-4.848l-1.002,3.04l-0.748,2.271
			c-0.138,0.42-0.213,0.651-0.289,0.944c-0.075,0.279-0.126,0.566-0.17,0.851c-0.327,2.234,0.479,4.282,2.159,5.518
			c0.816,0.621,1.856,1.033,3.013,1.211c0.297,0.043,0.589,0.072,0.893,0.09c0.149,0.002,0.302,0.013,0.461,0.013h0.599h2.458
			h35.961h12.932l-1.799,5.471H77.443V43.213z M92.051,43.213l1.8-5.471h4.674l-1.799,5.471H92.051z M98.459,43.213l1.801-5.471
			h3.097l-1.797,5.471H98.459z M103.293,43.213l1.799-5.471h2.296l-1.798,5.471H103.293z M108.473,43.213h-1.148l1.799-5.471h1.146
			L108.473,43.213z M113.939,26.427h-4.756c0.575-1.772-0.502-3.207-2.42-3.207c-1.925,0-3.955,1.435-4.546,3.207l-2.971,9.061
			H94.49l2.975-9.061c1.388-4.183,6.191-7.596,10.736-7.596C112.744,18.832,115.309,22.244,113.939,26.427z"/>
		<path fill="#FFFFFF" d="M87.398,23.221c-1.668,0-3.428,1.009-4.545,2.446h7.461C90.158,24.229,89.063,23.221,87.398,23.221z"/>
	</g>
</g>
</svg>
