<?xml version="1.0" encoding="utf-8"?>
<!-- Generator: Adobe Illustrator 15.0.0, SVG Export Plug-In  -->
<!DOCTYPE svg PUBLIC "-//W3C//DTD SVG 1.1//EN" "http://www.w3.org/Graphics/SVG/1.1/DTD/svg11.dtd" [
	<!ENTITY ns_flows "http://ns.adobe.com/Flows/1.0/">
]>
<svg version="1.1"
	 xmlns="http://www.w3.org/2000/svg" xmlns:xlink="http://www.w3.org/1999/xlink" xmlns:a="http://ns.adobe.com/AdobeSVGViewerExtensions/3.0/"
	 x="0px" y="0px" width="142px" height="142px" viewBox="-6.726 -18.835 142 142" enable-background="new -6.726 -18.835 142 142"
	 xml:space="preserve">
<defs>
</defs>
<g>
	<g>
		<g>
			<path fill="#5C29E5" d="M24.188,58.353c-2.419,7.26-1.732,14.029,1.903,19.078c3.856,5.346,10.58,8.291,18.936,8.291
				c17.837,0,37.49-13.855,42.91-30.26L106.132,0h-7.51h-2.201h-2.422l-18.65,56.591c-3.35,10.289-14.646,18.816-25.899,19.883
				c-10.543-1.066-16.238-9.594-12.815-19.883L55.191,0h-2.204h-2.422h-7.253L24.188,58.353z"/>
		</g>
		<g>
			<path fill="#5C29E5" d="M126.101,0h-2.424h-7.813L96.726,58.356c-3.254,9.84-10.412,19.053-20.154,25.945
				c-9.725,6.877-20.931,10.666-31.545,10.666c-5.66,0-10.843-1.063-15.403-3.17c-4.545-2.098-8.26-5.111-11.034-8.957
				c-5.429-7.523-6.563-17.25-3.184-27.387L33.579,0H25.51h-2.208h-2.418L2.345,56.591c-8.667,26.031,7.461,47.326,35.719,47.326
				c0.402,0,0.813-0.002,1.216-0.008c0.404,0.006,0.803,0.008,1.207,0.008c0.37,0,0.737-0.002,1.102-0.008
				c0.37,0.006,0.732,0.008,1.101,0.008c28.328,0,58.363-21.295,66.973-47.326L128.308,0H126.101z"/>
		</g>
	</g>
</g>
</svg>
