<?xml version="1.0" encoding="utf-8"?>
<!-- Generator: Adobe Illustrator 15.0.2, SVG Export Plug-In . SVG Version: 6.00 Build 0)  -->
<!DOCTYPE svg PUBLIC "-//W3C//DTD SVG 1.1//EN" "http://www.w3.org/Graphics/SVG/1.1/DTD/svg11.dtd">
<svg version="1.1" id="Layer_1" xmlns="http://www.w3.org/2000/svg" xmlns:xlink="http://www.w3.org/1999/xlink" x="0px" y="0px"
	 width="32px" height="32px" viewBox="0 0 32 32" enable-background="new 0 0 32 32" xml:space="preserve">
<g id="Foreground1">
</g>
<g>
	<path fill="#FFFFFF" d="M22.674,8.968c-0.881-0.595-2.082-2.015-2.49-3.022c-0.313-0.77-0.787-1.207-1.149-1.396
		c0.13-0.425-0.062-0.815-0.913-1.549c-0.278,0.202,0.031,0.438-0.229,0.741c-1.417-0.452-3.689-0.156-5.284,1.033
		C8.16,8.096,9.164,19.032,11.07,21.607h8.747c0,0,1.3-0.711,0.496-3.955c-0.804-3.242-4.188-5.971-4.144-7.646
		c0.014-0.512,1.043-0.454,1.06-0.085c0.024,0.708,0.435,1.349,1.939,0.937c0.829-0.227,1.07,0.3,1.688,0.537
		c0.602,0.23,0.719,0.51,1.265,0.786c0,0,0.557-0.521,0.958-1.302C23.445,10.156,23.677,9.646,22.674,8.968z M17.771,14.622
		l1.07,1.763c0.299,0.623,0.565,1.273,0.688,1.979c0.063,0.352,0.086,0.721,0.016,1.09c-0.066,0.362-0.298,0.735-0.643,0.843
		c0.25-0.25,0.318-0.564,0.295-0.874c-0.018-0.309-0.105-0.618-0.206-0.922c-0.214-0.608-0.489-1.209-0.786-1.801
		c-0.58-1.195-1.234-2.364-1.786-3.631C16.934,13.536,17.372,14.066,17.771,14.622z"/>
	<path fill="#FFFFFF" d="M20.546,26.682H10.119c0,0-0.318,0.25-0.425,0.52c-0.108,0.27-0.109,0.804-0.109,0.804H21.08
		c0,0-0.029-0.53-0.121-0.786C20.865,26.964,20.546,26.682,20.546,26.682z"/>
	<polygon fill="#FFFFFF" points="20.473,26.48 20.014,23.096 10.765,23.096 10.192,26.48 	"/>
	<path fill="#FFFFFF" d="M15.106,22.93c1.438,0,4.869,0,4.947,0c0.133-0.007,0.454-0.271,0.369-0.602
		c-0.095-0.413-0.447-0.505-0.574-0.505c-0.093,0-2.88,0-4.321,0c0,0-0.341,0-0.845,0c-1.441,0-3.571,0-3.663,0
		c-0.125,0-0.479,0.092-0.578,0.505c-0.081,0.331,0.24,0.595,0.371,0.602C10.892,22.93,13.666,22.93,15.106,22.93z"/>
</g>
</svg>
