<?xml version="1.0" encoding="utf-8"?>
<!-- Generator: Adobe Illustrator 15.0.2, SVG Export Plug-In . SVG Version: 6.00 Build 0)  -->
<!DOCTYPE svg PUBLIC "-//W3C//DTD SVG 1.1//EN" "http://www.w3.org/Graphics/SVG/1.1/DTD/svg11.dtd">
<svg version="1.1" id="Layer_1" xmlns="http://www.w3.org/2000/svg" xmlns:xlink="http://www.w3.org/1999/xlink" x="0px" y="0px"
	 width="32px" height="32px" viewBox="0 0 32 32" enable-background="new 0 0 32 32" xml:space="preserve">
<g id="Foreground1">
</g>
<g>
	<path fill="#FFFFFF" d="M16.354,6.255c-5.383-0.198-9.901,4.006-10.1,9.387c-0.195,5.384,4.01,9.904,9.391,10.103
		c5.383,0.193,9.904-4.01,10.101-9.394C25.939,10.97,21.734,6.449,16.354,6.255z M16.014,7.776c1.273,0.003,2.473,0.304,3.545,0.821
		l-2.377,5.663c-0.272-0.115-0.574-0.181-0.891-0.183c-0.053,0-0.102,0.013-0.15,0.015c-0.057,0.004-0.109,0.008-0.158,0.018
		c-0.264,0.035-0.51,0.113-0.731,0.23l-2.539-5.874C13.721,8.024,14.838,7.774,16.014,7.776z M8.582,19.529
		c-0.514-1.076-0.809-2.273-0.807-3.547c0.004-1.271,0.305-2.474,0.822-3.55l5.934,2.492c-0.318,0.391-0.516,0.877-0.518,1.42
		c0,0.272,0.057,0.532,0.145,0.774L8.582,19.529z M16.08,24.131c-1.094,0-2.135-0.221-3.09-0.611l2.232-5.313
		c0.338,0.205,0.729,0.326,1.153,0.328c0.418,0.002,0.806-0.119,1.142-0.313l2.188,5.067C18.611,23.824,17.383,24.135,16.08,24.131z
		 M18.355,17.279c0.127-0.283,0.201-0.598,0.203-0.926c0.002-0.533-0.188-1.016-0.492-1.403l5.418-2.338
		c0.472,1.038,0.736,2.188,0.734,3.399c-0.002,1.222-0.275,2.371-0.752,3.41L18.355,17.279z"/>
</g>
</svg>
