<?xml version="1.0" encoding="utf-8"?>
<!-- Generator: Adobe Illustrator 15.0.2, SVG Export Plug-In . SVG Version: 6.00 Build 0)  -->
<!DOCTYPE svg PUBLIC "-//W3C//DTD SVG 1.1//EN" "http://www.w3.org/Graphics/SVG/1.1/DTD/svg11.dtd">
<svg version="1.1" id="Layer_1" xmlns="http://www.w3.org/2000/svg" xmlns:xlink="http://www.w3.org/1999/xlink" x="0px" y="0px"
	 width="32px" height="32px" viewBox="0 0 32 32" enable-background="new 0 0 32 32" xml:space="preserve">
<g id="Background1">
	<path fill="#FFFFFF" d="M29.473,9.828l-0.924,4.034l0.758,5.207l-4.533-3.861l-1.512,0.604l1.847,1.792l-0.915,0.842l-1.584-2.115
		l-1.166,0.518l1.266,3.469l-1.125,0.768l-1.343-3.859l-1.933,0.336l0.937,4.275l-1.622,0.26l-0.662-4.199l-1.924-0.254l1.176,4.532
		l-1.685-0.25L13.6,17.563l-2.018,0.336l0.823,3.863l-3.254-0.395l-3.437-1.193l-1.256-1.355l3.944,0.086l-5.876-1.598l1.428-2.518
		l2.436-2.35l5.203-0.84l-0.756,2.351l0.336,2.183l2.437-0.168l-0.336-4.449l1.847,0.084l-0.082,4.7h1.93l-0.924-4.784l2.1,0.168
		v4.447l1.938-0.084l-0.676-3.943l1.426,1.236l0.252,2.401l1.172-0.503l-0.502-1.664l1.09-0.166l0.084,1.497l1.764-0.666l1.848-3.66
		L29.473,9.828z M9.887,15.978l-0.027-0.771H8.963l0.168-1.036l-0.949,0.113l0.224,0.951l-1.063-0.028l0.084,0.782l0.979-0.11
		l-0.196,0.979l0.868,0.027l-0.14-1.02L9.887,15.978z"/>
</g>
<g id="Foreground1">
</g>
</svg>
