<?xml version="1.0" encoding="utf-8"?>
<!-- Generator: Adobe Illustrator 15.0.2, SVG Export Plug-In . SVG Version: 6.00 Build 0)  -->
<!DOCTYPE svg PUBLIC "-//W3C//DTD SVG 1.1//EN" "http://www.w3.org/Graphics/SVG/1.1/DTD/svg11.dtd">
<svg version="1.1" id="Layer_1" xmlns="http://www.w3.org/2000/svg" xmlns:xlink="http://www.w3.org/1999/xlink" x="0px" y="0px"
	 width="32px" height="32px" viewBox="0 0 32 32" enable-background="new 0 0 32 32" xml:space="preserve">
<g id="Background1">
	<g>
		<path fill="#FFFFFF" d="M23.948,12.034c0,0-0.104,0.117-0.104,0.209c0,0.092,0.17,0.272,0.17,0.272
			c0.379,0.38,1.039,0.397,1.039,0.397l1.034-1.487c0,0,0.043-0.007,0-0.113c-0.04-0.103-1.044,0.271-1.397,0.384
			C24.287,11.825,23.948,12.034,23.948,12.034"/>
		<path fill="#FFFFFF" d="M29.997,12.713c-0.883,0.219-1.853,0.31-2.776,0.363c-1.019-0.044-2.578,0.188-3.139-0.319
			c-0.25-0.227-0.341-0.448-0.341-0.448c-0.274,0.36-0.399,0.763-0.655,1.149l-1.984,3.657l-0.209,0.25
			c-0.028,0.169,0.061,0.282,0.099,0.429c0.825,1.268,2.487,1.18,3.883,1.016c0.872-0.139,1.737-0.307,2.483-0.766
			c0.953-1.754,2.738-5.259,2.757-5.308C30.126,12.688,29.997,12.713,29.997,12.713z M27.373,14.477l-0.534,0.916l-1.427-0.119
			c0,0,0.3-0.643,0.406-0.85C26.405,14.477,26.771,14.489,27.373,14.477z M24.702,13.258l1.286,0.056l-0.303,0.929l-1.289-0.313
			L24.702,13.258z M25.212,15.416c-0.226,0.434-0.258,0.59-0.508,1.004c-0.588,0.028-1.213-0.135-1.578-0.349l0.585-1.002
			C24.084,15.289,24.461,15.416,25.212,15.416z M23.007,14.334l0.466-0.918c0.176,0.227,0.447,0.432,0.713,0.512
			c-0.138,0.313-0.442,0.967-0.498,0.941C22.864,14.483,23.007,14.334,23.007,14.334z M21.648,16.715l0.598-1.025l0.652,0.505
			c-0.23,0.451-0.354,0.606-0.604,1.06C21.713,17.039,21.648,16.715,21.648,16.715z M23.561,18.559
			c-0.574,0.074-1.35-0.07-1.69-0.401c0.176-0.237,0.272-0.509,0.45-0.748c0.533,0.146,0.878,0.179,1.764,0.185
			C23.932,17.926,23.781,18.258,23.561,18.559z M24.309,17.522c0.256-0.366,0.377-0.606,0.494-0.946c0,0,0.545,0.069,1.436-0.008
			c0.063-0.008-0.53,0.986-0.53,0.986L24.309,17.522z M27.204,17.9c-0.265,0.146-0.784,0.366-1.923,0.596l0.467-0.814
			c0.672-0.024,1.17-0.158,1.704-0.276C27.4,17.619,27.284,17.855,27.204,17.9z M27.962,16.359
			c-0.522,0.155-0.909,0.155-1.426,0.184c0.164-0.354,0.274-0.643,0.47-0.98c0.592-0.023,0.827-0.038,1.475-0.188
			C28.266,15.725,28.15,15.994,27.962,16.359z M29.096,14.146l-1.447,0.227c0.281-0.388,0.451-0.707,0.576-1.072l1.461-0.226
			C29.59,13.271,29.223,13.959,29.096,14.146"/>
		<path fill="#FFFFFF" d="M15.882,16.395c0,0-0.2,0.189,0.042,0.201c1.663-0.303,3.483-0.221,5.195,0.021
			c0.26-0.257,0.486-0.773,0.681-1.07c0,0-0.401-0.018-0.655-0.103c0.238-0.337,0.465-0.668,0.728-1.047
			c0.087,0.024,0.313,0.03,0.403,0.052c0.222-0.318,0.568-0.877,0.744-1.215c-0.103-0.04-0.111,0.014-0.203-0.047
			c0.258-0.402,0.639-0.842,0.834-1.18c0.709-0.501,2.285-0.746,2.31-0.877c0-0.17-0.153-0.196-0.276-0.271
			c-1.494-0.683-3.721-0.627-5.326-0.226L18.1,13.588L15.882,16.395z M20.331,16.237l-1.824-0.104c0,0,0.536-0.627,0.72-0.865
			l1.605,0.238C20.746,15.662,20.331,16.237,20.331,16.237z M21.686,14.18l-1.66-0.233c0.244-0.345,0.457-0.721,0.695-1.027
			l1.778,0.245C22.18,13.478,21.947,13.807,21.686,14.18z M22.163,10.75c0.633-0.14,1.328-0.063,1.963,0.019
			c-0.29,0.377-0.576,0.746-0.79,1.153c-0.595-0.137-1.004-0.225-1.781-0.226L22.163,10.75z M19.777,11.837l1.479,0.016
			c-0.214,0.339-0.47,0.664-0.657,0.947l-1.514-0.02L19.777,11.837z M19.732,14.067c-0.274,0.326-0.457,0.746-0.715,1.086
			c-0.562-0.077-1.187-0.052-1.758-0.024l0.844-1.076C19.03,13.928,19.732,14.067,19.732,14.067"/>
		<path fill="#FFFFFF" d="M11.204,21.403c0,0,0.039,0.118,0.13,0.185c0.122,0.086,0.281,0.09,0.281,0.09l3.725-4.832l2.819,4.847
			c0,0,0.169,0,0.274-0.104c0.104-0.106,0.145-0.143,0.145-0.143l-2.896-4.895c0,0,3.84-5.063,4.535-5.871
			c0.038-0.201-0.188-0.246-0.339-0.251c-0.063,0.067-0.087,0.118-0.131,0.181l-4.411,5.548c0,0-2.941-5.534-2.999-5.616
			c-0.044-0.006-0.069-0.36-0.399-0.187c-0.116,0.062-0.174,0.052-0.174,0.192c0,0.139,3.226,5.994,3.226,5.994L11.204,21.403"/>
		<path fill="#FFFFFF" d="M7.341,12.555c0.39-0.03,0.798-0.019,1.13-0.184c0.063-0.086,0.215-0.144,0.184-0.269
			c-0.598-0.452-1.256-0.778-1.989-0.903c-0.151,0.01-0.14,0.106-0.112,0.2C6.766,11.81,6.939,12.268,7.341,12.555"/>
		<path fill="#FFFFFF" d="M7.047,18.74c0.188,0.102,0.288-0.023,0.477,0.025c0.467-0.057,0.93-0.057,1.332-0.227
			c0.646-0.125,1.486-0.641,1.631-1.382l-0.997-2.709v-0.132l0.067,0.088c0.055,0.027,0.123,0.012,0.184-0.044
			c0.176,0.339,0.289,0.703,0.427,1.062l-0.201,0.066c0.163,0.408,0.296,0.835,0.472,1.243c1.203-0.093,1.937-0.175,3.576-0.101
			c0.452,0.021,0.811,0.047,0.801-0.146c-0.01-0.206-3.239-5.938-3.239-5.938l-0.786-0.045c-1.313-0.16-2.584-0.188-3.688,0.357
			c-0.076,0.07-0.201,0.113-0.228,0.201c0.765,0.227,1.801,0.854,1.981,1.016c0.113,0.338,0.261,0.647,0.34,1.017l-0.178,0.024
			l-0.25-0.771l-0.023-0.021c-0.294,0.277-0.689,0.31-1.104,0.314c-3.063-0.222-5.68-0.51-5.733-0.471
			c-0.056,0.041,0.012,0.108,0.012,0.108c0.214,0.314,0.339,0.646,0.483,0.995l1.4,3.656l0.426,1.27
			C5.096,18.482,6.049,18.766,7.047,18.74z M6.081,18.496L5.83,17.768c0.496,0.063,1.129,0.164,1.669,0.095
			c0.22,0.146,0.226,0.452,0.338,0.679C7.216,18.721,6.639,18.577,6.081,18.496z M5.446,16.629l-0.433-1.154
			c0.5,0.037,1.129,0.006,1.648,0.113c0.25,0.252,0.333,0.739,0.496,1.104v0.051C6.583,16.793,6.023,16.653,5.446,16.629z
			 M7.773,17.724c-0.131-0.244-0.213-0.515-0.318-0.765c0.408-0.015,0.848-0.059,1.173-0.14c0.101-0.019,0.076-0.007,0.113,0.095
			c0.104,0.228,0.155,0.478,0.228,0.723C8.584,17.7,8.182,17.799,7.773,17.724z M10.053,17.073c0.139,0.199,0.043,0.4-0.07,0.583
			c-0.137,0.156-0.287,0.294-0.471,0.363l-0.156-0.34C9.637,17.555,9.864,17.33,10.053,17.073z M10.742,16.463l-0.281-0.929
			l1.493-0.024c0.169,0.276,0.39,0.533,0.426,0.858L10.742,16.463z M14.119,15.446c-0.584-0.081-1.162-0.212-1.854-0.162
			l-0.406-0.967c0.627-0.043,1.203,0.051,1.763,0.176C13.799,14.808,13.967,15.109,14.119,15.446z M12.242,11.991l0.546,0.991
			c-0.521-0.05-1.03-0.182-1.563-0.132l-0.383-0.928C11.275,11.84,11.822,11.866,12.242,11.991z M10.999,13.025
			c0.22,0.333,0.301,0.709,0.452,1.066c-0.516,0.039-1.11,0-1.625,0.113l-0.45-1.065C9.938,13.001,10.366,13.031,10.999,13.025z
			 M8.852,11.802l-0.398-0.923c0.564,0.019,1.08-0.125,1.645-0.043c0.164,0.263,0.36,0.611,0.48,0.914L8.852,11.802z M9.286,14.901
			c0.03,0.495,0.771,1.11-0.043,1.468l-0.32,0.156l-0.407-1.104c0.074-0.096,0.23-0.088,0.338-0.156L9.286,14.901z M8.54,12.851
			l0.271,0.722c-0.104,0.313-0.47,0.402-0.766,0.452c-0.156-0.327-0.275-0.659-0.382-0.999C7.994,13.063,8.275,12.976,8.54,12.851z
			 M7.793,14.25c0.309,0.295,0.283,0.803,0.496,1.172c-0.439,0.192-1.047,0.119-1.486-0.024l-0.478-1.172L7.793,14.25z
			 M5.578,12.825l0.546,1.312c-0.563,0.105-1.062-0.101-1.606-0.094c-0.104-0.457-0.319-0.877-0.451-1.33
			C4.514,12.774,5.082,12.769,5.578,12.825z M3.301,14.971c-0.144-0.327-0.23-0.672-0.382-0.99l1.374,0.225
			c0.17,0.313,0.256,0.672,0.408,0.991C4.229,15.327,3.628,15.278,3.301,14.971z M5.309,16.821c0.14,0.243,0.194,0.582,0.295,0.838
			c-0.4,0-0.916,0.002-1.293-0.116l-0.349-0.932C4.37,16.742,4.844,16.821,5.309,16.821"/>
	</g>
</g>
<g id="Foreground1">
</g>
</svg>
