<?xml version="1.0" encoding="utf-8"?>
<!-- Generator: Adobe Illustrator 15.0.2, SVG Export Plug-In . SVG Version: 6.00 Build 0)  -->
<!DOCTYPE svg PUBLIC "-//W3C//DTD SVG 1.1//EN" "http://www.w3.org/Graphics/SVG/1.1/DTD/svg11.dtd">
<svg version="1.1" id="Layer_1" xmlns="http://www.w3.org/2000/svg" xmlns:xlink="http://www.w3.org/1999/xlink" x="0px" y="0px"
	 width="32px" height="32px" viewBox="0 0 32 32" enable-background="new 0 0 32 32" xml:space="preserve">
<g id="Foreground1">
</g>
<g>
	<g>
		<path fill="#FFFFFF" d="M20.524,24.579c-0.082-0.336-0.381-0.408-0.488-0.408c-0.08,0-2.447,0-3.668,0c0,0-0.289,0-0.717,0
			c-1.225,0-3.588,0-3.67,0c-0.104,0-0.402,0.072-0.484,0.408c-0.074,0.268,0.199,0.48,0.313,0.486c0.064,0.002,2.979,0,4.199,0
			c1.22,0,4.137,0.002,4.201,0C20.323,25.062,20.597,24.847,20.524,24.579z"/>
	</g>
	<g>
		<path fill="#FFFFFF" d="M18.147,14.059l-0.133-2.757c0,0,2.799-5.413,2.535-5.697c-0.283-0.301-1.389,0.222-1.828,0.222
			c-0.246,0-0.629,0.001-0.875,0.001c0,0,0-0.282,0-0.389c0-0.249-0.199-0.45-0.443-0.45c-0.396,0-2.479,0-2.959,0
			c-0.244,0-0.441,0.201-0.441,0.45c0,0.106,0,0.389,0,0.389c-0.248,0-0.629-0.001-0.877-0.001c-0.428,0-1.521-0.534-1.803-0.248
			c-0.277,0.285,2.529,5.79,2.529,5.79l-0.15,2.69"/>
	</g>
	<g>
		<path fill="#FFFFFF" d="M21.206,29.601c-0.1-0.266-0.434-0.563-0.434-0.563h-9.545c0,0-0.334,0.265-0.447,0.548
			c-0.113,0.28-0.113,0.844-0.113,0.844h10.666C21.333,30.427,21.302,29.868,21.206,29.601z"/>
	</g>
	<g>
		<polygon fill="#FFFFFF" points="20.212,25.269 11.909,25.269 11.304,28.825 20.694,28.825 		"/>
	</g>
	<g>
		<path fill="#FFFFFF" d="M19.624,14.534c0,0.263-0.153,0.475-0.348,0.475h-7.027c-0.19,0-0.35-0.212-0.35-0.475l0,0
			c0-0.261,0.158-0.474,0.35-0.474h7.027C19.47,14.06,19.624,14.273,19.624,14.534L19.624,14.534z"/>
	</g>
	<path fill="#FFFFFF" d="M18.325,14.378h-4.805c-0.281,4.523-0.422,7.264-1.469,9.658h7.896
		C18.899,21.642,18.608,18.901,18.325,14.378z M17.259,17.497l0.709,0.045c0,0.027-0.154,2.902,1.17,5.785l-0.648,0.029
		C17.089,20.3,17.251,17.608,17.259,17.497z"/>
	<path fill="#FFFFFF" d="M17.489,3.05c0,0.818-0.66,1.48-1.48,1.48c-0.813,0-1.479-0.662-1.479-1.48
		c0-0.816,0.664-1.479,1.479-1.479C16.829,1.57,17.489,2.233,17.489,3.05z"/>
</g>
</svg>
