<?xml version="1.0" encoding="utf-8"?>
<!-- Generator: Adobe Illustrator 15.0.2, SVG Export Plug-In . SVG Version: 6.00 Build 0)  -->
<!DOCTYPE svg PUBLIC "-//W3C//DTD SVG 1.1//EN" "http://www.w3.org/Graphics/SVG/1.1/DTD/svg11.dtd">
<svg version="1.1" id="Layer_1" xmlns="http://www.w3.org/2000/svg" xmlns:xlink="http://www.w3.org/1999/xlink" x="0px" y="0px"
	 width="32px" height="32px" viewBox="0 0 32 32" enable-background="new 0 0 32 32" xml:space="preserve">
<g id="Foreground1">
</g>
<g>
	<g>
		<path fill="#FFFFFF" d="M16.429,17.847c-1.122,0-2.025-0.841-2.025-1.878s0.903-1.879,2.025-1.879
			c1.119,0,2.027,0.842,2.027,1.879S17.548,17.847,16.429,17.847z"/>
	</g>
	<g>
		<path fill="#FFFFFF" d="M26.499,14.813c0,0-3.522-5.515-10.176-5.515c-6.648,0-10.174,5.515-10.174,5.515
			c-0.721,0.742-0.857,1.184-0.857,1.184s0.139,0.449,0.857,1.193c0,0,3.525,5.514,10.174,5.514c6.651,0,10.176-5.514,10.176-5.514
			c0.721-0.744,2.209-1.188,2.209-1.188S27.22,15.555,26.499,14.813z M16.356,19.943c-2.346,0-4.248-1.762-4.248-3.938
			c0-2.172,1.902-3.938,4.248-3.938s4.25,1.766,4.25,3.938C20.606,18.182,18.702,19.943,16.356,19.943z"/>
	</g>
</g>
</svg>
