<?xml version="1.0" encoding="utf-8"?>
<!-- Generator: Adobe Illustrator 15.0.2, SVG Export Plug-In . SVG Version: 6.00 Build 0)  -->
<!DOCTYPE svg PUBLIC "-//W3C//DTD SVG 1.1//EN" "http://www.w3.org/Graphics/SVG/1.1/DTD/svg11.dtd">
<svg version="1.1" id="Layer_1" xmlns="http://www.w3.org/2000/svg" xmlns:xlink="http://www.w3.org/1999/xlink" x="0px" y="0px"
	 width="32px" height="32px" viewBox="0 0 32 32" enable-background="new 0 0 32 32" xml:space="preserve">
<g id="Foreground1">
</g>
<g>
	<g>
		<g>
			<path fill="#FFFFFF" d="M9.19,18.665c-0.164-0.423-0.287-0.848-0.377-1.275l-3.082,2.631l4.045-0.162
				C9.554,19.483,9.354,19.086,9.19,18.665z"/>
		</g>
	</g>
	<g>
		<g>
			<path fill="#FFFFFF" d="M10.469,20.797l-1.351,3.816l3.422-2.163c-0.383-0.21-0.752-0.457-1.104-0.735
				C11.082,21.431,10.759,21.124,10.469,20.797z"/>
		</g>
	</g>
	<g>
		<g>
			<path fill="#FFFFFF" d="M22.81,13.336c0.161,0.42,0.286,0.846,0.377,1.274l3.08-2.631l-4.049,0.162
				C22.442,12.515,22.64,12.915,22.81,13.336z"/>
		</g>
	</g>
	<g>
		<g>
			<path fill="#FFFFFF" d="M21.524,11.203l1.354-3.819l-3.422,2.164c0.383,0.212,0.754,0.459,1.104,0.738
				C20.915,10.57,21.235,10.875,21.524,11.203z"/>
		</g>
	</g>
	<g>
		<g>
			<path fill="#FFFFFF" d="M18.39,9.082l-0.738-3.981l-1.885,3.583c0.438-0.008,0.883,0.021,1.328,0.09
				C17.541,8.839,17.976,8.946,18.39,9.082z"/>
		</g>
	</g>
	<g>
		<g>
			<path fill="#FFFFFF" d="M13.336,9.193c0.417-0.165,0.843-0.293,1.271-0.38l-2.627-3.082l0.162,4.047
				C12.517,9.554,12.912,9.356,13.336,9.193z"/>
		</g>
	</g>
	<g>
		<g>
			<path fill="#FFFFFF" d="M10.284,11.434c0.285-0.35,0.591-0.672,0.916-0.96L7.386,9.118l2.163,3.424
				C9.759,12.16,10.005,11.79,10.284,11.434z"/>
		</g>
	</g>
	<g>
		<g>
			<path fill="#FFFFFF" d="M8.771,14.904c0.067-0.446,0.172-0.878,0.312-1.293l-3.979,0.736l3.584,1.881
				C8.675,15.794,8.704,15.351,8.771,14.904z"/>
		</g>
	</g>
	<g>
		<g>
			<path fill="#FFFFFF" d="M13.608,22.919l0.736,3.98l1.883-3.588c-0.438,0.011-0.879-0.02-1.326-0.086
				C14.456,23.159,14.024,23.056,13.608,22.919z"/>
		</g>
	</g>
	<g>
		<g>
			<path fill="#FFFFFF" d="M18.663,22.806c-0.42,0.166-0.85,0.293-1.276,0.383l2.632,3.078l-0.16-4.045
				C19.481,22.447,19.084,22.642,18.663,22.806z"/>
		</g>
	</g>
	<g>
		<g>
			<path fill="#FFFFFF" d="M21.709,20.562c-0.282,0.354-0.587,0.674-0.914,0.965l3.815,1.354l-2.16-3.423
				C22.237,19.839,21.992,20.208,21.709,20.562z"/>
		</g>
	</g>
	<g>
		<g>
			<path fill="#FFFFFF" d="M23.228,17.098c-0.066,0.443-0.175,0.878-0.313,1.292l3.982-0.734l-3.586-1.885
				C23.321,16.204,23.294,16.648,23.228,17.098z"/>
		</g>
	</g>
	<g>
		<g>
			<path fill="#FFFFFF" d="M16.875,10.212c-3.196-0.482-6.177,1.713-6.664,4.909c-0.481,3.196,1.713,6.181,4.909,6.663
				c3.193,0.482,6.18-1.715,6.665-4.906C22.272,13.682,20.071,10.699,16.875,10.212z"/>
		</g>
	</g>
</g>
</svg>
