<?xml version="1.0" encoding="utf-8"?>
<!-- Generator: Adobe Illustrator 15.0.2, SVG Export Plug-In . SVG Version: 6.00 Build 0)  -->
<!DOCTYPE svg PUBLIC "-//W3C//DTD SVG 1.1//EN" "http://www.w3.org/Graphics/SVG/1.1/DTD/svg11.dtd">
<svg version="1.1" id="Layer_1" xmlns="http://www.w3.org/2000/svg" xmlns:xlink="http://www.w3.org/1999/xlink" x="0px" y="0px"
	 width="32px" height="32px" viewBox="0 0 32 32" enable-background="new 0 0 32 32" xml:space="preserve">
<g id="Foreground1">
</g>
<g>
	<g>
		<g>
			<path fill="#FFFFFF" d="M17.943,26.271l-0.736-0.744c-0.477-0.623-0.963-1.482-1.329-2.287c-0.373-0.828-0.665-1.689-0.834-2.566
				c-0.351-1.744-0.161-3.564,0.748-5.139c0.229-0.407,0.473-0.736,0.797-1.159c0.334-0.446,0.614-0.888,0.867-1.37
				c0.499-0.953,0.821-2.02,0.854-3.093c0.072-2.174-1-4.15-2.468-5.493c1.278,1.529,1.983,3.559,1.651,5.413
				c-0.155,0.924-0.553,1.78-1.088,2.541c-0.269,0.376-0.582,0.742-0.896,1.063c-0.336,0.326-0.754,0.754-1.074,1.186
				c-1.381,1.749-1.978,4.116-1.828,6.336c0.061,1.115,0.271,2.207,0.584,3.264c0.233,0.766,0.49,1.477,0.83,2.209h-2.771v1.148
				h9.187v-1.148H18.04C18.012,26.379,17.99,26.33,17.943,26.271z"/>
		</g>
	</g>
	<g>
		<g>
			<path fill="#FFFFFF" d="M17.305,16.555c-1.232,1.23-1.425,3.041-0.424,4.041c0.999,0.996,2.807,0.813,4.04-0.424
				c1.231-1.234,1.671-5.289,1.671-5.289S18.537,15.321,17.305,16.555z"/>
		</g>
	</g>
	<g>
		<g>
			<path fill="#FFFFFF" d="M15.119,12.763c1-1,0.813-2.808-0.422-4.042C13.465,7.49,9.408,7.05,9.408,7.05s0.438,4.055,1.672,5.289
				C12.313,13.571,14.121,13.76,15.119,12.763z"/>
		</g>
	</g>
</g>
</svg>
