<?xml version="1.0" encoding="utf-8"?>
<!-- Generator: Adobe Illustrator 15.0.2, SVG Export Plug-In . SVG Version: 6.00 Build 0)  -->
<!DOCTYPE svg PUBLIC "-//W3C//DTD SVG 1.1//EN" "http://www.w3.org/Graphics/SVG/1.1/DTD/svg11.dtd">
<svg version="1.1" id="Layer_1" xmlns="http://www.w3.org/2000/svg" xmlns:xlink="http://www.w3.org/1999/xlink" x="0px" y="0px"
	 width="32px" height="32px" viewBox="0 0 32 32" enable-background="new 0 0 32 32" xml:space="preserve">
<path fill="#FFFFFF" d="M6.008,23.606h7.879l1.224-2.748c0.491-1.102,1.317-1.115,1.848-0.029l1.355,2.777h7.676
	c1.506,0,2.725-1.219,2.725-2.725v-4.447l-7.461-7.687c-0.418-0.432-1.207-0.521-1.449,0.029c-0.193,0.439-0.354,1.107-0.354,2.118
	c0,0.824,0.121,1.331,0.283,1.638c0.279,0.532,0.793-0.092,0.924-0.68c0.092-0.41,0.314-0.737,0.836-0.55
	c1.137,0.409,3.18,5.131,3.18,5.131H7.327c0,0,2.043-4.724,3.178-5.131c0.521-0.187,0.744,0.14,0.836,0.55
	c0.129,0.588,0.644,1.211,0.924,0.68c0.164-0.308,0.283-0.813,0.283-1.638c0-1.01-0.16-1.678-0.354-2.118
	c-0.242-0.55-1.031-0.461-1.449-0.029l-7.459,7.687v4.449C3.284,22.39,4.504,23.606,6.008,23.606z M18.746,17.706h8.898v2.314
	c0,1.279-1.221,2.314-2.725,2.314h-6.176v-4.629H18.746L18.746,17.706z M4.465,17.796h8.9v4.633H7.19
	c-1.506,0-2.725-1.037-2.725-2.316V17.796L4.465,17.796z"/>
</svg>
