<?xml version="1.0" encoding="utf-8"?>
<!-- Generator: Adobe Illustrator 15.0.2, SVG Export Plug-In . SVG Version: 6.00 Build 0)  -->
<!DOCTYPE svg PUBLIC "-//W3C//DTD SVG 1.1//EN" "http://www.w3.org/Graphics/SVG/1.1/DTD/svg11.dtd">
<svg version="1.1" id="Layer_1" xmlns="http://www.w3.org/2000/svg" xmlns:xlink="http://www.w3.org/1999/xlink" x="0px" y="0px"
	 width="32px" height="32px" viewBox="0 0 32 32" enable-background="new 0 0 32 32" xml:space="preserve">
<path fill="#FFFFFF" d="M14.769,11.321l-0.097-0.085c0.474-1.701,0.041-3.603-1.295-4.94C12.05,4.97,10.17,4.536,8.479,4.995
	l2.863,2.863l-0.752,2.806l-2.806,0.75L4.92,8.552c-0.457,1.691-0.022,3.57,1.306,4.898c1.395,1.394,3.397,1.802,5.151,1.229
	l0.017,0.017l11.785,11.786c0.465,0.465,1.076,0.699,1.688,0.699s1.221-0.234,1.688-0.699c0.934-0.932,0.934-2.441,0-3.377
	L14.769,11.321z M25.071,26.08c-0.502,0-0.91-0.408-0.91-0.91c0-0.506,0.408-0.912,0.91-0.912c0.504,0,0.912,0.406,0.912,0.912
	C25.983,25.672,25.577,26.08,25.071,26.08z"/>
</svg>
