<?xml version="1.0" encoding="utf-8"?>
<!-- Generator: Adobe Illustrator 15.0.2, SVG Export Plug-In . SVG Version: 6.00 Build 0)  -->
<!DOCTYPE svg PUBLIC "-//W3C//DTD SVG 1.1//EN" "http://www.w3.org/Graphics/SVG/1.1/DTD/svg11.dtd">
<svg version="1.1" id="Layer_1" xmlns="http://www.w3.org/2000/svg" xmlns:xlink="http://www.w3.org/1999/xlink" x="0px" y="0px"
	 width="32px" height="32px" viewBox="0 0 32 32" enable-background="new 0 0 32 32" xml:space="preserve">
<path fill="#FFFFFF" d="M28.566,12.091C28.566,18.435,16,26.858,16,26.858S3.434,18.737,3.434,12.091
	c0-4.778,3.111-6.949,6.949-6.949c1.775,0,3.394,0.671,4.619,1.769l-3.201,4.646c-0.08,0.116-0.108,0.259-0.08,0.398
	c0.025,0.138,0.109,0.259,0.229,0.336l4.764,3.062l-2.19,2.646c-0.111,0.133-0.147,0.312-0.101,0.479l1.228,4.229
	c0.063,0.227,0.272,0.376,0.5,0.376c0.041,0,0.082-0.005,0.123-0.017c0.271-0.063,0.44-0.332,0.389-0.604l-0.743-3.851l3.127-3.143
	c0.104-0.104,0.157-0.251,0.149-0.398c-0.011-0.148-0.084-0.286-0.201-0.379l-4.116-3.209l4.477-5.376
	c0.09-0.109,0.133-0.251,0.115-0.393C19.461,5.639,19.438,5.57,19.4,5.508c0.697-0.236,1.441-0.367,2.219-0.367
	C25.455,5.142,28.566,8.253,28.566,12.091z"/>
</svg>
