<?xml version="1.0" encoding="utf-8"?>
<!-- Generator: Adobe Illustrator 15.0.2, SVG Export Plug-In . SVG Version: 6.00 Build 0)  -->
<!DOCTYPE svg PUBLIC "-//W3C//DTD SVG 1.1//EN" "http://www.w3.org/Graphics/SVG/1.1/DTD/svg11.dtd">
<svg version="1.1" id="Layer_1" xmlns="http://www.w3.org/2000/svg" xmlns:xlink="http://www.w3.org/1999/xlink" x="0px" y="0px"
	 width="32px" height="32px" viewBox="0 0 32 32" enable-background="new 0 0 32 32" xml:space="preserve">
<path fill="#FFFFFF" d="M29.842,7.202c0,0,0.328-0.751,0-0.794c-0.326-0.042-4.314,0.699-6.252,2.064
	c-0.979,0.828-4.42,2.722-6.453,6.884c-0.344-0.135-0.793-0.059-0.824-0.207c-0.053-0.248,0.396-0.702,0.402-0.707
	c0.197-0.197,0.32-0.469,0.32-0.768c0-0.599-0.486-1.084-1.084-1.084c-0.599,0-1.082,0.484-1.082,1.084
	c0,0.299,0.12,0.569,0.317,0.768c0.001,0.002,0.401,0.512,0.313,0.767c-0.047,0.13-0.305,0.147-0.545,0.29
	c-2.022-4.289-5.547-6.228-6.543-7.068C6.475,7.067,2.484,6.327,2.158,6.369c-0.328,0.042,0,0.794,0,0.794S1.64,8.061,1.873,8.336
	c0.23,0.275,0.021,0.868,0.285,1.142c0.266,0.276-0.285,1.355,0.254,1.587s0.072,1.059,0.414,1.429
	c0.338,0.37,0.399,0.974,0.569,1.144c0.169,0.17,0.424,0.181,0.286,1.174c-0.139,0.996,0.771,0.91,1.109,2.191
	c0.338,1.279,2.793,1.492,2.793,1.492l-1.301,2.126l-0.16,1.332l0.254,1.649l0.92,0.636l0.16,0.667l1.019,0.126l0.981,0.51h0.983
	h0.826l1.144-0.54c0,0,0.824-0.128,1.047-0.158c0.047-2.765,1.197-4.229,1.799-4.808c0.012,0.056,0.021,0.11,0.031,0.167
	c0.351,1.904,0.537,4.154,0.662,5.43c0-0.986,0.271-3.337,0.678-5.459c0.013-0.059,0.021-0.117,0.035-0.174
	c0.569,0.518,1.83,1.984,1.881,4.885c0.224,0.03,1.047,0.158,1.047,0.158l1.144,0.538h0.826h0.981l0.984-0.509l1.016-0.125
	l0.158-0.668l0.922-0.635l0.254-1.649l-0.158-1.334l-1.303-2.127c0,0,2.455-0.21,2.795-1.491c0.338-1.279,1.248-1.195,1.108-2.189
	c-0.138-0.995,0.116-1.004,0.285-1.174c0.17-0.17,0.233-0.771,0.571-1.144c0.341-0.371-0.127-1.196,0.414-1.429
	c0.537-0.232-0.012-1.313,0.254-1.587c0.265-0.274,0.054-0.868,0.285-1.142C30.357,8.103,29.842,7.202,29.842,7.202z"/>
</svg>
