<?xml version="1.0" encoding="utf-8"?>
<!-- Generator: Adobe Illustrator 15.0.2, SVG Export Plug-In . SVG Version: 6.00 Build 0)  -->
<!DOCTYPE svg PUBLIC "-//W3C//DTD SVG 1.1//EN" "http://www.w3.org/Graphics/SVG/1.1/DTD/svg11.dtd">
<svg version="1.1" id="Layer_1" xmlns="http://www.w3.org/2000/svg" xmlns:xlink="http://www.w3.org/1999/xlink" x="0px" y="0px"
	 width="32px" height="32px" viewBox="0 0 32 32" enable-background="new 0 0 32 32" xml:space="preserve">
<g>
	<g id="Foreground1">
	</g>
	<g>
		<path fill="#FFFFFF" d="M20.016,8.492c0,0,1.037-0.924,1.619-2.111C22.217,5.189,22.363,3.5,22.363,3.5h-3.172
			c0,0-0.145,2.341-0.838,2.341c-0.691,0-0.936-2.341-0.936-2.341h-2.84c0,0-0.344,2.341-0.949,2.341
			c-0.609,0-0.82-2.341-0.82-2.341H9.635c0,0,0.068,1.415,0.727,2.881c0.66,1.465,1.621,2.111,1.621,2.111H20.016z"/>
		<path fill="#FFFFFF" d="M21.953,20.657c-0.1-0.492-0.58-0.6-0.713-0.6c-0.098,0-3.447,0-4.955,0c0,0-0.354,0-0.883,0
			c-1.51,0-4.428,0-4.523,0c-0.133,0-0.584,0.121-0.684,0.612c-0.088,0.394,0.33,0.694,0.467,0.703c0.082,0,3.674,0,5.182,0
			s5.529,0,5.611,0C21.594,21.366,22.041,21.05,21.953,20.657z"/>
		<path fill="#FFFFFF" d="M21.947,25.751H10.049c0,0-0.361,0.283-0.484,0.592c-0.123,0.307-0.123,0.916-0.123,0.916h13.117
			c0,0-0.035-0.605-0.141-0.896S21.947,25.751,21.947,25.751z"/>
		<polygon fill="#FFFFFF" points="21.865,25.522 21.342,21.659 10.787,21.659 10.133,25.522 		"/>
		<g>
			<path fill="#FFFFFF" d="M12.225,10.418l-0.898,9.399h9.383l-0.896-9.399H12.225z M19.467,18.802l-0.631-6.088l0.605-0.063
				l0.631,6.089L19.467,18.802z"/>
			<path fill="#FFFFFF" d="M20.189,8.723c-0.1,0-2.32,0-3.83,0c0,0-0.355,0-0.883,0c-1.508,0-3.523,0-3.621,0
				c-0.133,0-0.582,0.137-0.686,0.697c-0.086,0.449,0.613,0.821,0.752,0.83c0.084,0,2.488-0.03,3.996-0.03
				c1.51,0,4.15,0.001,4.232,0c0.139-0.008,0.838-0.367,0.752-0.815C20.801,8.843,20.32,8.723,20.189,8.723z"/>
		</g>
	</g>
</g>
</svg>
