<?xml version="1.0" encoding="utf-8"?>
<!-- Generator: Adobe Illustrator 15.0.2, SVG Export Plug-In . SVG Version: 6.00 Build 0)  -->
<!DOCTYPE svg PUBLIC "-//W3C//DTD SVG 1.1//EN" "http://www.w3.org/Graphics/SVG/1.1/DTD/svg11.dtd">
<svg version="1.1" id="Layer_1" xmlns="http://www.w3.org/2000/svg" xmlns:xlink="http://www.w3.org/1999/xlink" x="0px" y="0px"
	 width="32px" height="32px" viewBox="0 0 32 32" enable-background="new 0 0 32 32" xml:space="preserve">
<path fill="#FFFFFF" d="M23.675,10.679c-0.136,0-0.271,0.011-0.403,0.021c-0.07-0.008-0.141-0.021-0.212-0.021h-6.955
	C16.347,9.015,19.336,9.3,20.563,9.1c1.03-0.167,2.021-0.636,2.878-1.216c1.608-1.091,2.145-2.944,1.896-4.792
	c-0.084-0.629-1.086-0.637-1,0c0.5,3.728-2.649,4.947-5.793,5.263c-1.733,0.176-3.276,0.436-3.448,2.322H8.642
	c-0.036,0-0.069,0.009-0.104,0.011c-0.07-0.002-0.141-0.011-0.209-0.011c-2.957,0.002-5.354,2.396-5.354,5.354
	c0,2.955,2.396,5.353,5.354,5.353c1.541,0,2.926-0.656,3.902-1.699h7.54c0.978,1.043,2.362,1.699,3.904,1.699
	c2.954,0,5.352-2.396,5.352-5.353C29.026,13.074,26.629,10.679,23.675,10.679z M5.289,16.181v-0.5c0-0.276,0.224-0.502,0.5-0.502
	h1.5v-1.5c0-0.274,0.224-0.5,0.5-0.5h0.5c0.274,0,0.5,0.226,0.5,0.5v1.5h1.5c0.274,0,0.5,0.226,0.5,0.502v0.5
	c0,0.275-0.226,0.501-0.5,0.501h-1.5v1.5c0,0.276-0.226,0.5-0.5,0.5h-0.5c-0.276,0-0.5-0.224-0.5-0.5v-1.5h-1.5
	C5.513,16.682,5.289,16.458,5.289,16.181z M15.291,17.542c0,0.077-0.063,0.143-0.141,0.143h-1.218c-0.078,0-0.142-0.064-0.142-0.143
	v-0.22c0-0.078,0.063-0.141,0.142-0.141h1.219c0.077,0,0.142,0.063,0.142,0.141v0.22H15.291z M22.857,18.994
	c-0.482,0-0.876-0.391-0.876-0.875c0-0.481,0.394-0.875,0.876-0.875c0.483,0,0.875,0.394,0.875,0.875
	C23.732,18.604,23.341,18.994,22.857,18.994z M18.291,17.542c0,0.077-0.063,0.143-0.141,0.143h-1.22
	c-0.077,0-0.142-0.064-0.142-0.143v-0.22c0-0.078,0.063-0.141,0.142-0.141h1.22c0.077,0,0.141,0.063,0.141,0.141V17.542z
	 M25.358,15.494c-0.483,0-0.875-0.393-0.875-0.877c0-0.481,0.392-0.875,0.875-0.875s0.875,0.394,0.875,0.875
	C26.233,15.102,25.842,15.494,25.358,15.494z"/>
</svg>
