<?xml version="1.0" encoding="utf-8"?>
<!-- Generator: Adobe Illustrator 15.0.2, SVG Export Plug-In . SVG Version: 6.00 Build 0)  -->
<!DOCTYPE svg PUBLIC "-//W3C//DTD SVG 1.1//EN" "http://www.w3.org/Graphics/SVG/1.1/DTD/svg11.dtd">
<svg version="1.1" id="Layer_1" xmlns="http://www.w3.org/2000/svg" xmlns:xlink="http://www.w3.org/1999/xlink" x="0px" y="0px"
	 width="32px" height="32px" viewBox="0 0 32 32" enable-background="new 0 0 32 32" xml:space="preserve">
<path fill="#FFFFFF" d="M4.67,21.531c0.903,0.717,1.849,1.34,2.817,1.877c1.285-1.662,2.017-3.205,2.468-4.637
	c-1.255,0.109-2.661,0.102-4.259-0.076C4.653,18.477,2.05,19.459,4.67,21.531z"/>
<path fill="#FFFFFF" d="M27.058,23.475c2.739-1.771,1.027-5.697-1.339-7.794c-0.584-0.519-1.114-0.9-1.61-1.177
	c-0.646,3.319-2.436,6.624-5.102,9.391c-0.74,0.77-1.529,1.479-2.361,2.121C20.54,26.207,24.254,25.289,27.058,23.475z
	 M24.817,16.442c0.463-0.208,1.233,0.5,1.719,1.582c0.486,1.078,0.507,2.123,0.044,2.332c-0.464,0.209-1.232-0.498-1.718-1.578
	C24.373,17.697,24.354,16.65,24.817,16.442z"/>
<path fill="#FFFFFF" d="M5.83,26.629c-0.751,0.582-1.578,2.725,0.567,2.725c0.262,0,0.568-0.031,0.926-0.102
	c2.951-0.588,5.604-1.783,7.871-3.357c4.336-3.023,7.236-7.461,8.021-11.784c0.037-0.217,0.071-0.433,0.103-0.65
	c0.213-1.621-0.713-2.738-2.082-3.397c-0.289,0.367-0.595,0.72-0.918,1.047c0.248,0.237,0.375,0.481,0.313,0.695
	c-0.142,0.487-1.179,0.614-2.315,0.284c-1.14-0.327-1.947-0.991-1.805-1.479c0.1-0.339,0.635-0.5,1.331-0.458
	c0.095-0.226,0.198-0.493,0.306-0.8c-0.125-0.006-0.252-0.012-0.375-0.012c-0.429,0-0.851,0.029-1.259,0.087
	c-5.803,0.821-4.093,4.218-5.528,9.226c-0.453,1.582-1.227,3.328-2.645,5.201C7.663,24.75,6.844,25.676,5.83,26.629z"/>
<path fill="#FFFFFF" d="M18.798,8.921c-0.053,0.16-0.102,0.315-0.152,0.464c-0.111,0.312-0.216,0.588-0.312,0.825
	c-0.25,0.617-0.44,0.976-0.44,0.976l1.202,0.376c0.293-0.227,0.574-0.479,0.845-0.748c0.293-0.296,0.575-0.615,0.84-0.947
	c0.104-0.128,0.201-0.258,0.302-0.39c0.096-0.131,0.188-0.263,0.28-0.396c1.774-2.563,2.722-5.529,2.722-5.529
	c-0.552-0.589-1.468-0.905-2.375-0.905c-0.813,0-1.622,0.256-2.147,0.797c0.107,1.877-0.227,3.644-0.621,5.017
	C18.89,8.619,18.844,8.774,18.798,8.921z"/>
</svg>
