<?xml version="1.0" encoding="utf-8"?>
<!-- Generator: Adobe Illustrator 15.0.2, SVG Export Plug-In . SVG Version: 6.00 Build 0)  -->
<!DOCTYPE svg PUBLIC "-//W3C//DTD SVG 1.1//EN" "http://www.w3.org/Graphics/SVG/1.1/DTD/svg11.dtd">
<svg version="1.1" id="Layer_1" xmlns="http://www.w3.org/2000/svg" xmlns:xlink="http://www.w3.org/1999/xlink" x="0px" y="0px"
	 width="32px" height="32px" viewBox="0 0 32 32" enable-background="new 0 0 32 32" xml:space="preserve">
<path fill="#FFFFFF" d="M27.63,15.485c0.838-2.592,0.235-6.292-2.288-8.813c-1.822-1.822-4.263-2.645-6.453-2.645
	c-0.877,0-1.713,0.133-2.455,0.385c-3.771-1.87-7.08-1.785-8.896,0.031c-1.317,1.317-1.662,3.388-1.166,5.765l-0.819,0.82
	c-0.164-0.043-0.334-0.074-0.512-0.074c-1.105,0-2,0.896-2,2c0,1.105,0.895,2,2,2s2-0.895,2-2c0-0.178-0.031-0.348-0.074-0.512
	l0.063-0.063c0.867,2.228,2.365,4.589,4.394,6.779l-2.868,2.869c-0.166-0.045-0.336-0.074-0.514-0.074c-1.105,0-2,0.896-2,2
	c0,1.104,0.895,2,2,2s2-0.896,2-2c0-0.18-0.031-0.35-0.074-0.514l2.869-2.865c2.188,2.025,4.545,3.525,6.771,4.396l-0.055,0.055
	c-0.164-0.043-0.336-0.072-0.514-0.072c-1.104,0-2,0.896-2,2c0,1.104,0.896,2,2,2s2-0.896,2-2c0-0.18-0.031-0.35-0.074-0.514
	l0.811-0.809c2.39,0.504,4.473,0.164,5.795-1.16C29.387,22.661,29.439,19.228,27.63,15.485z M23.994,8.02
	c2.641,2.64,2.498,6.756,1.117,8.138c-0.717,0.717-1.448,1.063-2.237,1.063c-1.394,0-3.159-1.029-5.106-2.978
	c-4.625-4.625-2.649-6.599-1.91-7.342c0.608-0.608,1.742-0.971,3.031-0.971C20.807,5.934,22.667,6.694,23.994,8.02z"/>
</svg>
