<?xml version="1.0" encoding="utf-8"?>
<!-- Generator: Adobe Illustrator 15.0.2, SVG Export Plug-In . SVG Version: 6.00 Build 0)  -->
<!DOCTYPE svg PUBLIC "-//W3C//DTD SVG 1.1//EN" "http://www.w3.org/Graphics/SVG/1.1/DTD/svg11.dtd">
<svg version="1.1" id="Layer_1" xmlns="http://www.w3.org/2000/svg" xmlns:xlink="http://www.w3.org/1999/xlink" x="0px" y="0px"
	 width="32px" height="32px" viewBox="0 0 32 32" enable-background="new 0 0 32 32" xml:space="preserve">
<path fill="#FFFFFF" d="M10.094,30.521c1.766,0,3.428-0.689,4.676-1.938c0.02-0.021,0.262-0.348,0.277-0.367l12.748-17.262
	c0.135-0.184,0.141-0.433,0.012-0.622s-0.361-0.277-0.584-0.218l-3.969,1.051l5.188-8.875c0.133-0.228,0.08-0.517-0.121-0.686
	c-0.201-0.168-0.496-0.165-0.695,0.007l-10.912,9.435l0.74-1.965c0.09-0.235,0.004-0.501-0.207-0.64
	c-0.209-0.139-0.488-0.113-0.668,0.062L5.42,19.231c-2.578,2.578-2.578,6.773,0,9.352C6.668,29.831,8.328,30.521,10.094,30.521z
	 M10.094,18.817c2.807,0,5.088,2.285,5.088,5.09s-2.281,5.088-5.088,5.088c-2.805,0-5.088-2.283-5.088-5.088
	S7.289,18.817,10.094,18.817z"/>
<path fill="#FFFFFF" d="M7.033,23.31c0-0.213,0.029-0.42,0.08-0.619c0.227-0.893,0.932-1.598,1.824-1.822
	c0.199-0.051,0.404-0.08,0.617-0.08c0.299,0,0.539-0.242,0.539-0.539s-0.24-0.539-0.539-0.539c-1.982,0-3.6,1.615-3.6,3.601
	c0,0.297,0.241,0.539,0.538,0.539C6.793,23.849,7.033,23.606,7.033,23.31z"/>
</svg>
