<?xml version="1.0" encoding="utf-8"?>
<!-- Generator: Adobe Illustrator 15.0.2, SVG Export Plug-In . SVG Version: 6.00 Build 0)  -->
<!DOCTYPE svg PUBLIC "-//W3C//DTD SVG 1.1//EN" "http://www.w3.org/Graphics/SVG/1.1/DTD/svg11.dtd">
<svg version="1.1" id="Layer_1" xmlns="http://www.w3.org/2000/svg" xmlns:xlink="http://www.w3.org/1999/xlink" x="0px" y="0px"
	 width="32px" height="32px" viewBox="0 0 32 32" enable-background="new 0 0 32 32" xml:space="preserve">
<path fill="#FFFFFF" d="M30.047,20.202c-0.117-0.305-0.344-0.542-0.639-0.672l-2.205-0.979c-0.332-0.147-0.73-0.134-1.051,0.036
	c-0.297-0.141-0.639-0.178-0.959-0.1l-2.563,0.64l-0.408-1.88c0.078-0.008,0.158-0.022,0.25-0.049l2.721-1.124
	c0.105-0.027,0.229-0.061,0.352-0.102c0.025,0.013,0.049,0.023,0.072,0.033l0.061,0.025l2.656-0.237
	c0.119,0.09,0.221,0.292,0.299,0.447c0.107,0.211,0.209,0.409,0.432,0.409c0.229,0,0.326-0.22,0.367-0.314
	c0.131-0.298,0.14-0.627,0.021-0.928c-0.115-0.302-0.344-0.541-0.641-0.672l-2.207-0.979c-0.334-0.144-0.729-0.131-1.051,0.039
	c-0.295-0.143-0.644-0.18-0.955-0.1l-2.861,0.714c-0.029,0.007-0.061,0.016-0.09,0.026l0.742-0.526
	c0.178-0.125,0.317-0.294,0.41-0.489c0.295-0.197,0.5-0.494,0.573-0.839l0.261-1.166c1.172-2.277,1.268-4.253,0.28-5.873
	c-1.114-1.839-3.392-2.63-3.961-2.63c-0.271,0-0.328,0.183-0.34,0.238c-0.054,0.273,0.264,0.398,0.491,0.49
	c0.55,0.22,0.921,0.555,1.105,0.995C21.543,5.431,21.18,6.35,21.18,6.35c-0.117,0.204-0.221,0.204-0.254,0.204
	c-0.365,0-0.975-0.765-1.289-1.309l-0.229-0.396l-0.229,0.398c-0.469,0.82-0.574,1.67-0.313,2.524
	c0.412,1.367,1.631,2.353,2.19,2.747c-0.039,0.088-0.069,0.179-0.09,0.271l-0.268,1.202c-0.004,0.016-0.006,0.032-0.01,0.049
	l-1.012,0.718c-0.009,0.006-0.017,0.01-0.021,0.016c-0.178-0.035-0.344-0.051-0.51-0.051h-6.092c-0.068,0-0.138,0.003-0.207,0.01
	c-0.088-0.136-0.195-0.25-0.326-0.341l-1.016-0.72c0-0.014-0.005-0.031-0.007-0.05l-0.269-1.2c-0.021-0.093-0.051-0.184-0.09-0.271
	c0.693-0.494,3.383-2.642,1.877-5.272l-0.227-0.398l-0.23,0.397c-0.313,0.544-0.922,1.309-1.289,1.309c-0.033,0-0.135,0-0.236-0.174
	c-0.039-0.098-0.367-0.976-0.047-1.743c0.186-0.441,0.557-0.776,1.104-0.996c0.23-0.091,0.545-0.217,0.492-0.49
	c-0.01-0.056-0.066-0.238-0.34-0.238c-0.568,0-2.844,0.791-3.961,2.63c-0.984,1.621-0.891,3.597,0.283,5.873l0.258,1.167
	c0.076,0.344,0.281,0.642,0.574,0.838c0.092,0.194,0.231,0.363,0.41,0.49l0.895,0.633c-0.006,0.016-0.016,0.031-0.021,0.047
	c-0.129-0.083-0.271-0.146-0.426-0.185l-2.859-0.712c-0.315-0.08-0.659-0.044-0.959,0.097c-0.319-0.17-0.723-0.183-1.051-0.037
	l-2.203,0.978c-0.295,0.13-0.521,0.367-0.637,0.667c-0.119,0.309-0.107,0.651,0.031,0.962c0.082,0.19,0.201,0.286,0.354,0.286
	c0.224,0,0.324-0.198,0.435-0.415c0.075-0.15,0.178-0.353,0.299-0.443l2.638,0.237l0.021,0.001l0.063-0.028
	c0.021-0.01,0.045-0.02,0.064-0.032c0.104,0.036,0.215,0.068,0.316,0.09l2.793,1.148c0.145,0.038,0.297,0.051,0.453,0.036
	l-0.478,1.924l-2.733-0.681c-0.314-0.082-0.662-0.044-0.957,0.097c-0.324-0.168-0.722-0.181-1.052-0.037l-2.205,0.979
	c-0.297,0.132-0.524,0.373-0.639,0.678c-0.115,0.308-0.103,0.646,0.032,0.952c0.084,0.189,0.201,0.286,0.354,0.286
	c0.226,0,0.326-0.201,0.435-0.416c0.072-0.142,0.178-0.351,0.301-0.443l2.641,0.237l0.02,0.002l0.064-0.029
	c0.021-0.01,0.041-0.02,0.063-0.029c0.134,0.045,0.261,0.076,0.316,0.09l2.789,1.146c0.076,0.02,0.156,0.031,0.24,0.036
	c0.123,0.31,0.314,0.677,0.561,1.063l-1.676,1.007c-0.287,0.174-0.496,0.432-0.605,0.747c-0.354,0.109-0.639,0.375-0.771,0.718
	l-0.865,2.25c-0.119,0.303-0.108,0.633,0.021,0.928C6,28.681,6.244,28.907,6.572,29.033c0.072,0.026,0.141,0.042,0.207,0.042
	c0.17,0,0.254-0.1,0.275-0.128c0.114-0.159,0.057-0.337-0.021-0.563c-0.051-0.15-0.125-0.373-0.103-0.523l2.037-1.7l0.015-0.015
	l0.024-0.067c0.006-0.021,0.014-0.041,0.021-0.062c0.098-0.049,0.194-0.104,0.288-0.16l2.214-0.922
	c0.844,0.828,1.56,1.248,2.127,1.248h5.297c0.47,0,0.992-0.289,1.56-0.855l2.133,0.886c0.123,0.074,0.229,0.134,0.322,0.179
	c0.008,0.021,0.014,0.045,0.022,0.065l0.019,0.047l2.055,1.729c0.022,0.152-0.051,0.377-0.103,0.525
	c-0.073,0.227-0.133,0.403-0.018,0.563c0.032,0.051,0.116,0.133,0.271,0.133c0.065,0,0.137-0.018,0.243-0.059
	c0.623-0.242,0.937-0.946,0.693-1.568l-0.865-2.251c-0.133-0.341-0.418-0.606-0.771-0.718c-0.107-0.313-0.322-0.577-0.605-0.748
	l-1.771-1.063c0.191-0.354,0.355-0.688,0.486-1.004c0.145,0.009,0.277-0.004,0.445-0.05l2.721-1.124
	c0.113-0.029,0.232-0.063,0.352-0.104c0.021,0.012,0.041,0.021,0.063,0.03l0.063,0.029l2.66-0.238
	c0.123,0.091,0.229,0.302,0.301,0.442c0.104,0.214,0.207,0.414,0.434,0.414c0.229,0,0.322-0.219,0.365-0.314
	C30.156,20.835,30.164,20.504,30.047,20.202z"/>
</svg>
