<?xml version="1.0" encoding="utf-8"?>
<!-- Generator: Adobe Illustrator 15.0.2, SVG Export Plug-In . SVG Version: 6.00 Build 0)  -->
<!DOCTYPE svg PUBLIC "-//W3C//DTD SVG 1.1//EN" "http://www.w3.org/Graphics/SVG/1.1/DTD/svg11.dtd">
<svg version="1.1" id="Layer_1" xmlns="http://www.w3.org/2000/svg" xmlns:xlink="http://www.w3.org/1999/xlink" x="0px" y="0px"
	 width="32px" height="32px" viewBox="0 0 32 32" enable-background="new 0 0 32 32" xml:space="preserve">
<path fill="#FFFFFF" d="M28.067,11.312c0,1.218-0.985,2.204-2.205,2.204c-0.135,0-0.268-0.014-0.396-0.037l-1.81,6.458v2.326H8.343
	v-2.412l-1.795-6.375c-0.133,0.025-0.27,0.04-0.41,0.04c-1.219,0-2.205-0.986-2.205-2.204c0-1.218,0.986-2.205,2.205-2.205
	c1.217,0,2.203,0.987,2.203,2.205c0,0.3-0.061,0.585-0.168,0.846c2.203,0.743,5.604,1.348,7.133-1.213
	c-0.877-0.291-1.51-1.117-1.51-2.091c0-1.218,0.984-2.205,2.203-2.205s2.203,0.987,2.203,2.205c0,0.974-0.633,1.798-1.508,2.09
	c0.895,1.651,2.883,3.374,7.223,1.409c-0.164-0.31-0.262-0.664-0.262-1.04c0-1.218,0.985-2.205,2.205-2.205
	C27.077,9.108,28.067,10.094,28.067,11.312z M8.343,25.351h15.314v-2.088H8.343V25.351z"/>
</svg>
