<?xml version="1.0" encoding="utf-8"?>
<!-- Generator: Adobe Illustrator 15.0.2, SVG Export Plug-In . SVG Version: 6.00 Build 0)  -->
<!DOCTYPE svg PUBLIC "-//W3C//DTD SVG 1.1//EN" "http://www.w3.org/Graphics/SVG/1.1/DTD/svg11.dtd">
<svg version="1.1" id="Layer_1" xmlns="http://www.w3.org/2000/svg" xmlns:xlink="http://www.w3.org/1999/xlink" x="0px" y="0px"
	 width="32px" height="32px" viewBox="0 0 32 32" enable-background="new 0 0 32 32" xml:space="preserve">
<path fill="#FFFFFF" d="M16,7.338C5.852,7.338,0.531,14.815,0.531,16c0,1.187,5.319,8.662,15.469,8.662
	c10.146,0,15.469-7.477,15.469-8.662C31.469,14.815,26.148,7.338,16,7.338z M16,22.664c-3.797,0-6.875-2.981-6.875-6.662
	S12.203,9.337,16,9.337s6.875,2.983,6.875,6.665C22.875,19.681,19.797,22.664,16,22.664z M19.438,16c0,1.84-1.539,3.332-3.438,3.332
	c-1.899,0-3.438-1.492-3.438-3.332s1.539-3.332,3.438-3.332c1.025,0-0.629,2.643,0,3.332C16.535,16.588,19.438,15.155,19.438,16z"/>
</svg>
