<?xml version="1.0" encoding="utf-8"?>
<!-- Generator: Adobe Illustrator 15.0.2, SVG Export Plug-In . SVG Version: 6.00 Build 0)  -->
<!DOCTYPE svg PUBLIC "-//W3C//DTD SVG 1.1//EN" "http://www.w3.org/Graphics/SVG/1.1/DTD/svg11.dtd">
<svg version="1.1" id="Layer_1" xmlns="http://www.w3.org/2000/svg" xmlns:xlink="http://www.w3.org/1999/xlink" x="0px" y="0px"
	 width="32px" height="32px" viewBox="0 0 32 32" enable-background="new 0 0 32 32" xml:space="preserve">
<path fill="#FFFFFF" d="M1.99,23.811c0,0-1.414,5.723,3.922,5.723c5.338,0,5.916-1.994,5.916-1.994s1.352,1.48,2.25,1.674
	c0.9,0.191,8.938,0.063,8.938,0.063s1.479-2.057-3.149-2.379c0,0,1.414-2.25,0.899-3.857l1.156-0.192c0,0,1.928,5.146,3.215,6.304
	l2.638,0.063c0,0,0.836-0.387-1.285-1.993s-1.672-6.815-1.287-8.485c0.388-1.672,0.451-5.724-0.129-7.65
	c-0.578-1.929,0-0.322,0-0.322s3.666,0.9,4.373-1.351c0,0,0.897-0.385,0.707-1.221c0,0-2.896-1.286-3.408-1.543
	c0,0-0.387-1.149-1.495-1.559c0,0,0.379-1.599-0.111-1.849c0,0-1.734,1.093-1.863,1.415c0,0-0.129-1.865-0.449-2.186
	c0,0-2.189,1.415-2.061,3.408c0,0-3.086,4.629-2.699,7.715c0,0-10.416,3.856-7.844,11.896C10.221,25.482,6.234,27.281,1.99,23.811z"
	/>
</svg>
