<?xml version="1.0" encoding="utf-8"?>
<!-- Generator: Adobe Illustrator 15.0.2, SVG Export Plug-In . SVG Version: 6.00 Build 0)  -->
<!DOCTYPE svg PUBLIC "-//W3C//DTD SVG 1.1//EN" "http://www.w3.org/Graphics/SVG/1.1/DTD/svg11.dtd">
<svg version="1.1" id="Layer_1" xmlns="http://www.w3.org/2000/svg" xmlns:xlink="http://www.w3.org/1999/xlink" x="0px" y="0px"
	 width="32px" height="32px" viewBox="0 0 32 32" enable-background="new 0 0 32 32" xml:space="preserve">
<path fill="#FFFFFF" d="M11.926,10.631c0.334,0.593,2.473,0.89,3.521,0.853c1.048-0.037,3.193-0.509,3.113-1.408
	c-0.148-1.667,0.865-3.896,1.065-4.206c0.407-0.63,0.44-1.944-1.28-1.318c-0.402,0.146-1.354,1.135-1.76-0.037
	c-0.727-2.106-2.41-1.521-2.781-0.146c-0.256,0.952-1.283,1.024-2.453,0.915c-1.373-0.129-1.549,0.73-1.092,1.457
	C10.503,7.128,11.542,9.95,11.926,10.631z"/>
<path fill="#FFFFFF" d="M15.52,12.928c-2.778,0.102-3.584-0.916-3.746-0.859c-4.115,1.432-7.586,5.629-7.586,9.886
	c0,5.476,3.125,6.914,11.813,6.914s11.813-1.476,11.813-6.914c0-4.575-4.229-8.958-8.576-10.194
	C19.01,11.693,18.596,12.818,15.52,12.928z M16.107,23.846v1.119c0,0.084-0.067,0.152-0.15,0.152h-1.006
	c-0.084,0-0.152-0.068-0.152-0.152v-1.028c-0.712-0.043-1.438-0.25-1.89-0.537c-0.058-0.035-0.082-0.104-0.063-0.168l0.325-1.149
	c0.013-0.046,0.048-0.082,0.091-0.101c0.047-0.017,0.094-0.015,0.135,0.012c0.318,0.188,0.978,0.513,1.811,0.513
	c0.695,0,1.146-0.313,1.146-0.793c0-0.459-0.348-0.763-1.23-1.08c-1.084-0.396-2.193-0.979-2.193-2.309
	c0-1.104,0.742-1.938,1.947-2.193v-1.049c0-0.084,0.068-0.152,0.152-0.152h0.992c0.082,0,0.149,0.068,0.149,0.152v0.969
	c0.761,0.047,1.267,0.261,1.589,0.42c0.063,0.031,0.098,0.107,0.075,0.179l-0.325,1.112c-0.014,0.043-0.045,0.078-0.086,0.099
	c-0.041,0.019-0.088,0.017-0.129-0.004c-0.316-0.16-0.813-0.408-1.576-0.408c-0.627,0-0.998,0.261-0.998,0.695
	c0,0.387,0.348,0.649,1.379,1.046c1.436,0.536,2.047,1.252,2.047,2.393C18.141,22.715,17.348,23.592,16.107,23.846z"/>
</svg>
