<?xml version="1.0" encoding="utf-8"?>
<!-- Generator: Adobe Illustrator 15.0.2, SVG Export Plug-In . SVG Version: 6.00 Build 0)  -->
<!DOCTYPE svg PUBLIC "-//W3C//DTD SVG 1.1//EN" "http://www.w3.org/Graphics/SVG/1.1/DTD/svg11.dtd">
<svg version="1.1" id="Layer_1" xmlns="http://www.w3.org/2000/svg" xmlns:xlink="http://www.w3.org/1999/xlink" x="0px" y="0px"
	 width="32px" height="32px" viewBox="0 0 32 32" enable-background="new 0 0 32 32" xml:space="preserve">
<path fill="#FFFFFF" d="M25.57,16.273c-1.983,1.369-3.342,1.534-3.342,1.534s0.051-6.137-3.5-7.562
	C15.175,8.821,8.282,5.861,8.07,3.232c0,0-1.514,3.233,0.263,5.479c0.729,0.921,1.472,1.564,2.101,2.004
	c0.373,0.211,0.84,0.348,1.217,0.418c5.24,0.954,4.75,3.934,4.75,3.934s0.068-1.254-1.813-2.61
	c-0.479-0.345-1.234-0.729-2.638-0.892c-0.958-0.116-2.798,0.294-5.079-0.115c-2.457-0.438-5.174-2.137-5.174-2.137
	s-0.418,2.849,2.873,4.987c3.293,2.136,3.002,1.494,6.068,5.49c0.48,0.627,2.625,1.893,2.625,1.893S6.869,23.178,4.57,23.56
	c-2.299,0.385-5.065,1.37-2.612,3.233c2.456,1.861,2.717,2.19,5.067,1.861c2.352-0.326,4.283-3.064,5.955-3.123
	c0,0,6.74,0.549,8.881,0.059c2.142-0.494,4.647-1.262,5.274-5.697c0,0,0.261-1.811,1.983-1.973c1.693-0.162,1.875-0.535,1.88-0.549
	c-0.007,0-0.099-0.037-0.938-0.55C29.072,16.217,27.557,14.901,25.57,16.273z"/>
</svg>
