<?xml version="1.0" encoding="utf-8"?>
<!-- Generator: Adobe Illustrator 15.0.2, SVG Export Plug-In . SVG Version: 6.00 Build 0)  -->
<!DOCTYPE svg PUBLIC "-//W3C//DTD SVG 1.1//EN" "http://www.w3.org/Graphics/SVG/1.1/DTD/svg11.dtd">
<svg version="1.1" id="Layer_1" xmlns="http://www.w3.org/2000/svg" xmlns:xlink="http://www.w3.org/1999/xlink" x="0px" y="0px"
	 width="32px" height="32px" viewBox="0 0 32 32" enable-background="new 0 0 32 32" xml:space="preserve">
<g id="Foreground1">
</g>
<g>
	<g>
		<g>
			<path fill="#FFFFFF" d="M23.447,20.677c-0.059-0.073-0.104-0.135-0.16-0.204c-0.217-0.277-0.455-0.539-0.719-0.773
				c-0.199-0.174-0.383-0.364-0.576-0.54c-0.371-0.329-0.9-1.034-1.152-1.425c-0.152-0.227-0.313-0.447-0.451-0.68
				c-0.18-0.303-0.389-0.598-0.586-0.894c-0.154-0.232-0.543-0.731-0.756-0.905c-0.119-0.092-0.232-0.223-0.41-0.339
				c-0.041-0.028-0.068-0.049-0.109-0.075c-0.145-0.097-0.313-0.19-0.477-0.257c-0.521-0.212-0.984-0.28-1.566-0.307
				c-0.843-0.033-1.449,0.307-1.998,0.734c-0.094,0.072-0.187,0.159-0.271,0.243c-0.201,0.203-0.273,0.296-0.441,0.477
				c-0.032,0.033-0.032,0.044-0.062,0.074c-0.45,0.515-0.806,1.111-1.211,1.655c-0.225,0.301-0.441,0.604-0.676,0.898l-0.293,0.348
				c-0.17,0.221-0.383,0.409-0.579,0.609c-0.176,0.174-0.368,0.318-0.546,0.494l-0.381,0.396c-0.379,0.432-0.67,0.895-0.932,1.434
				c-0.055,0.119-0.422,0.771-0.422,1.229c0,0.704,0.034,1.035,0.304,1.666c0.074,0.176,0.185,0.354,0.287,0.508
				C9.46,25.325,9.5,25.32,9.623,25.477c0.105,0.138,0.271,0.26,0.414,0.364c0.111,0.086,0.236,0.166,0.361,0.234
				c0.02,0.008,0.039,0.018,0.06,0.03c0.2,0.104,0.427,0.201,0.659,0.236l0.717,0.079h0.227c0.757-0.032,1.936-0.382,2.606-0.563
				c0.176-0.053,0.364-0.092,0.552-0.137l1.219-0.152c0.599-0.034,1.712,0.207,2.318,0.384c0.689,0.205,1.516,0.434,2.227,0.47
				h0.373c0.695-0.036,1.345-0.286,1.865-0.721c0.678-0.555,1.103-1.232,1.232-2.123C24.627,22.373,24.158,21.624,23.447,20.677z"/>
		</g>
	</g>
	<g>
		<g>
			<path fill="#FFFFFF" d="M27.471,15.773c-0.369,1.741-1.85,2.899-3.301,2.588c-1.455-0.31-2.332-1.973-1.959-3.713
				c0.373-1.741,1.85-3.808,3.303-3.501C26.967,11.458,27.844,14.032,27.471,15.773z"/>
		</g>
	</g>
	<g>
		<g>
			<path fill="#FFFFFF" d="M21.93,10.904c-0.373,1.742-1.852,2.902-3.307,2.592c-1.449-0.312-2.328-1.972-1.955-3.714
				c0.371-1.739,1.85-3.81,3.303-3.499C21.424,6.592,22.301,9.165,21.93,10.904z"/>
		</g>
	</g>
	<g>
		<g>
			<path fill="#FFFFFF" d="M15.429,10.14c0.143,1.773-0.944,3.306-2.424,3.425c-1.481,0.117-2.796-1.222-2.937-2.999
				c-0.143-1.776,0.685-4.179,2.164-4.299C13.716,6.149,15.29,8.364,15.429,10.14z"/>
		</g>
	</g>
	<g>
		<g>
			<path fill="#FFFFFF" d="M10.803,14.987c0.142,1.772-0.945,3.309-2.425,3.425c-1.484,0.117-2.796-1.227-2.938-2.998
				c-0.141-1.775,0.687-4.181,2.167-4.298C9.087,10.997,10.664,13.213,10.803,14.987z"/>
		</g>
	</g>
</g>
</svg>
