<?xml version="1.0" encoding="utf-8"?>
<!-- Generator: Adobe Illustrator 15.0.2, SVG Export Plug-In . SVG Version: 6.00 Build 0)  -->
<!DOCTYPE svg PUBLIC "-//W3C//DTD SVG 1.1//EN" "http://www.w3.org/Graphics/SVG/1.1/DTD/svg11.dtd">
<svg version="1.1" id="Layer_1" xmlns="http://www.w3.org/2000/svg" xmlns:xlink="http://www.w3.org/1999/xlink" x="0px" y="0px"
	 width="32px" height="32px" viewBox="0 0 32 32" enable-background="new 0 0 32 32" xml:space="preserve">
<path fill="#FFFFFF" d="M29.847,9.019c-0.073-0.797-3.201-0.43-3.936-0.497c-1.271-1.346-0.734-3.364-2.714-4.293
	c-2.851-1.339-7.187,0.622-6.469,4.313c0.167,0.869,1.596,2.581,1.677,2.999c-0.258,1.253-1.316,1.834-2.407,1.899
	c-3.247,0-8.797-0.506-8.797-0.506c-2.155-2.159-3.808-1.62-4.805-1.682c-0.558-0.034-0.063,0.729,0.546,1.667
	c-0.335,0.048-0.602,0.188-0.721,0.424c-0.262,0.522,0.246,1.313,1.146,1.849c-0.038,0.039-0.074,0.082-0.104,0.129
	c-0.284,0.567,0.334,1.457,1.385,1.986c0.115,0.059,0.234,0.108,0.354,0.153c1.646,3.05,4.754,3.763,9.193,5.313l0.014,4.068
	c0,0,0.092,0.402,0.146,0.45c0.04,0.041,0.984,0.899,2.561,0.899c0.274,0,0.561-0.032,0.84-0.084
	c0.097-0.021,0.174-0.082,0.207-0.17c0.037-0.09,0.022-0.188-0.029-0.268c-0.189-0.268-0.135-0.4-0.117-0.441
	c0.117-0.291,0.732-0.494,1.007-0.541c0.138-0.026,0.233-0.148,0.229-0.289c-0.008-0.138-0.11-0.25-0.252-0.267
	c-0.457-0.044-0.873-0.198-0.912-0.292c0,0,0.004-0.036,0.063-0.105c0.063-0.073,0.084-0.176,0.051-0.271
	c-0.033-0.092-0.109-0.162-0.203-0.187c-0.188-0.039-0.428-0.063-0.688-0.063c-0.104,0-0.202,0.016-0.308,0.021
	c0.002-0.004,0.002-0.008,0.004-0.012c0.119-0.291,0.73-0.494,1.01-0.541c0.135-0.025,0.232-0.147,0.229-0.285
	c0-0.016-0.008-0.024-0.009-0.039c3.279,0.428,7.419-2.232,7.917-5.283c0.596-3.617-2.301-3.727-1.679-7.547
	C26.448,13.065,29.921,9.818,29.847,9.019z M22.38,8.398c-0.52,0-0.945-0.423-0.945-0.944c0-0.523,0.428-0.946,0.945-0.946
	c0.521,0,0.945,0.423,0.945,0.946C23.325,7.975,22.9,8.398,22.38,8.398z"/>
</svg>
