<?xml version="1.0" encoding="utf-8"?>
<!-- Generator: Adobe Illustrator 15.0.2, SVG Export Plug-In . SVG Version: 6.00 Build 0)  -->
<!DOCTYPE svg PUBLIC "-//W3C//DTD SVG 1.1//EN" "http://www.w3.org/Graphics/SVG/1.1/DTD/svg11.dtd">
<svg version="1.1" id="Layer_1" xmlns="http://www.w3.org/2000/svg" xmlns:xlink="http://www.w3.org/1999/xlink" x="0px" y="0px"
	 width="32px" height="32px" viewBox="0 0 32 32" enable-background="new 0 0 32 32" xml:space="preserve">
<path fill="#FFFFFF" d="M9,24.5c-0.551,0-1-0.447-1-1v-15c0-0.551,0.449-1,1-1h2c0.553,0,1,0.449,1,1v15c0,0.553-0.447,1-1,1H9z"/>
<path fill="#FFFFFF" d="M6,22.5c-0.551,0-1-0.447-1-1v-11c0-0.551,0.449-1,1-1h1v13H6z"/>
<path fill="#FFFFFF" d="M21,24.5c-0.551,0-1-0.447-1-1v-15c0-0.551,0.449-1,1-1h2c0.553,0,1,0.449,1,1v15c0,0.553-0.447,1-1,1H21z"
	/>
<path fill="#FFFFFF" d="M25,22.5v-13h1c0.553,0,1,0.449,1,1v11c0,0.553-0.447,1-1,1H25z"/>
<path fill="#FFFFFF" d="M28,14.5h-2v3h2c0.553,0,1-0.447,1-1v-1C29,14.95,28.553,14.5,28,14.5z"/>
<path fill="#FFFFFF" d="M6,14.5H4c-0.551,0-1,0.449-1,1v1c0,0.553,0.449,1,1,1h2V14.5z"/>
<rect x="11" y="14.5" fill="#FFFFFF" width="10" height="3"/>
</svg>
