<?xml version="1.0" encoding="utf-8"?>
<!-- Generator: Adobe Illustrator 15.0.2, SVG Export Plug-In . SVG Version: 6.00 Build 0)  -->
<!DOCTYPE svg PUBLIC "-//W3C//DTD SVG 1.1//EN" "http://www.w3.org/Graphics/SVG/1.1/DTD/svg11.dtd">
<svg version="1.1" id="Layer_1" xmlns="http://www.w3.org/2000/svg" xmlns:xlink="http://www.w3.org/1999/xlink" x="0px" y="0px"
	 width="32px" height="32px" viewBox="0 0 32 32" enable-background="new 0 0 32 32" xml:space="preserve">
<path fill="#FFFFFF" d="M15.743,9.042l0.031,0.054l0.063,0.02l0.058,0.001c0.135-0.356-0.177-0.356-0.424-0.401l-0.125,0.026
	l0.021,0.095L15.743,9.042z M18.778,9.516l0.051,0.008c0.127-0.072,0.287,0.086,0.338-0.125c-0.155,0-0.264-0.053-0.42,0
	C18.747,9.398,18.747,9.504,18.778,9.516z M17.64,9.401l0.191-0.003c-0.037-0.158-0.408-0.264-0.408-0.053
	C17.372,9.398,17.53,9.398,17.64,9.401z M13.886,6.388c-0.104,0.159-0.104-0.105-0.209-0.032l-0.045,0.021
	c-0.17,0.224-0.592,0.276-0.537,0.646C13.462,6.97,13.675,6.706,13.886,6.388z M15.181,8.35c-0.271-0.136-0.271,0.135-0.305,0.364
	l0.086,0.089C15.181,8.755,15.317,8.484,15.181,8.35z M14.044,6.229c0,0.04-0.029,0.111-0.068,0.166
	c0.055-0.039,0.121,0.004,0.121,0.045c0,0.212-0.314,0.054-0.314,0.265c0.053,0,0.104,0,0.053,0.053
	c-0.053,0.053-0.157,0.053-0.213,0.105h0.213c-0.026,0.079-0.119,0.093-0.198,0.119c-0.078,0.026-0.146,0.065-0.119,0.196
	c0.065-0.051,0.14-0.084,0.215-0.106c0.229-0.066,0.485-0.037,0.685-0.156c-0.054,0-0.054-0.053-0.105-0.053
	c0.105-0.053,0.213-0.105,0.16-0.264c-0.055,0-0.055,0.053-0.105,0.053c0.105-0.212-0.105-0.476,0.104-0.613l0.045-0.069
	c-0.043-0.004-0.147-0.004-0.201-0.004c0.054-0.053,0.104-0.053,0.158-0.105c-0.265,0-0.369,0.264-0.58,0.369
	C13.938,6.335,14.044,6.176,14.044,6.229z M13.938,6.44c0.014-0.012,0.025-0.027,0.037-0.045C13.962,6.405,13.95,6.419,13.938,6.44z
	 M26.198,12.634l-0.119-0.041l-0.049,0.078l-0.004,0.17l0.008,0.06l0.023,0.017l0.057-0.043l0.057-0.016l0.027,0.046l0.051,0.158
	l0.099,0.183l0.053,0.006l-0.055-0.291h0.022l0.027,0.028l0.02-0.01l-0.002-0.065l-0.033-0.164l-0.102-0.33l-0.053-0.035
	l0.006,0.096l0.01,0.104l-0.014,0.047L26.198,12.634z M26.147,14.513l0.086,0.021l0.076-0.029l0.047-0.09l0.035-0.121l-0.025-0.033
	c-0.1,0.033-0.231,0.072-0.334,0.103l-0.066,0.099l-0.024,0.154l0.002,0.174l-0.022,0.188l-0.043,0.175L25.87,15.31l0.028,0.146
	l0.013,0.172L25.9,15.806l0.019,0.124l0.057,0.005l0.037-0.162l-0.018-0.325l0.03-0.094l0.037,0.099l0.022,0.127l0.064,0.066
	l0.064-0.076l0.002-0.188l-0.066-0.217l-0.004-0.068l0.025-0.075l0.076-0.157l-0.006-0.094l-0.072,0.046l-0.07,0.08l-0.063-0.047
	l-0.021-0.164l0.049-0.151L26.147,14.513z M26.278,16.237l-0.057,0.003l-0.18,0.099l-0.121-0.024l-0.058,0.063l-0.021,0.117
	l0.047,0.057l0.189-0.049l0.217-0.195L26.278,16.237z M25.917,16.098l-0.23,0.007l-0.115-0.016l-0.082,0.096l0.084,0.125
	l0.178,0.021l0.06-0.024l0.104-0.142C25.915,16.144,25.917,16.122,25.917,16.098z M26.54,13.855l-0.021-0.094l-0.021,0.045
	l-0.006,0.134v0.141l0.014,0.267l-0.002,0.133l0.01,0.127l0.014,0.032l0.016-0.014l0.006-0.06l-0.004-0.067l-0.002-0.127
	l0.025-0.072l0.031-0.043l0.012-0.104l-0.051-0.16L26.54,13.855z M26.345,16.401l-0.129,0.143l-0.063,0.104l-0.028,0.16l0.037,0.089
	l0.063-0.045l0.119-0.203l0.243-0.31h-0.131L26.345,16.401z M26.962,14.743l-0.019,0.016l-0.018,0.139l-0.021,0.166l-0.022,0.074
	l-0.021-0.063l-0.008-0.168l0.008-0.191h0.002l-0.02-0.139l-0.032-0.074l-0.02,0.004l-0.033,0.048l-0.08-0.009l-0.021,0.016
	l-0.01,0.068l0.01,0.072l0.029,0.156l0.008,0.01l0.004,0.016l0.008,0.01l0.015,0.01l0.004,0.016l0.006,0.028l0.008,0.023
	l0.058-0.003l0.01,0.017l-0.008,0.06l-0.012,0.043l-0.021,0.004l-0.012,0.021v0.076l0.002,0.023l0.004,0.023v0.028l-0.002,0.103
	v0.045l0.01,0.008l0.012-0.021l0.01-0.099l0.012-0.03l0.013-0.019l0.011-0.002l0.012,0.015l0.002,0.048l0.002,0.078v0.029
	l0.049,0.02l0.008,0.042l0.004,0.004l0.002,0.021l0.002,0.019l0.002,0.011l0.004-0.002v0.033l0.002,0.021l-0.018,0.211l-0.014,0.137
	l-0.008,0.07l-0.004,0.035l-0.005,0.031v0.014l-0.002,0.026l-0.016,0.021l-0.011,0.021l-0.014,0.063l-0.012,0.123l0.002,0.052
	l0.008-0.011l0.01-0.063l0.01-0.033l0.005,0.004v0.035l-0.021,0.133l-0.008,0.051l-0.004,0.02l0.004-0.018
	c0.092-0.506,0.148-1.014,0.172-1.525L26.962,14.743z M25.534,11.368l0.076,0.199l0.012,0.186l0.033,0.113l0.055,0.082l0.031-0.015
	l-0.01-0.183l0.012-0.08l0.082,0.012l0.088,0.063l0.033-0.102l-0.064-0.16l-0.098,0.002l-0.115-0.086l-0.073-0.216l-0.044-0.274
	l-0.094-0.2l-0.111-0.125l-0.039-0.008l-0.014,0.044l0.022,0.092l0.029,0.096l0.034,0.183l0.052,0.188L25.534,11.368z
	 M25.888,11.941l-0.025,0.037v0.045l0.027,0.142l0.033,0.021l0.033-0.02l0.018-0.008l0.008-0.029l-0.008-0.051l-0.014-0.051
	l-0.033-0.064L25.888,11.941z M26.04,11.956l0.074,0.321l0.029,0.037l0.018-0.024l-0.016-0.076l-0.023-0.082l-0.014-0.084
	l0.002-0.063l-0.006-0.044l-0.014-0.047l-0.035-0.065l-0.035-0.019l-0.029-0.001l-0.012,0.046l0.027,0.058L26.04,11.956z
	 M25.517,15.399l0.111-0.084l0.049-0.211c0-0.055,0-0.109,0-0.163l0.018-0.071l0.053-0.144l0.021-0.093l0.02-0.188l0.062-0.106
	l0.045-0.119l-0.022-0.102l-0.103-0.172l-0.049-0.111l0.026-0.197l0.063-0.178l-0.039-0.143l-0.258-0.21l-0.086,0.101l-0.025,0.301
	l-0.016,0.031c0.063,0.607,0.088,1.226,0.075,1.836L25.517,15.399z M23.196,18.778l-0.086-0.186l-0.184-0.021l-0.119,0.075
	l-0.061,0.121l-0.484,0.614l-0.521,0.291l-0.08,0.095l-0.059,0.104l-0.029,0.104l0.033,0.681l-0.25,0.633l-0.021,0.108l-0.02,0.226
	l0.018,0.095l0.193,0.221l0.289,0.049l0.297-0.216l0.16-0.499l0.637-1.321l0.189-0.818l0.047-0.096l0.033-0.102l0.008,0.016
	c0.006-0.061,0.014-0.115,0.02-0.174l-0.01,0.031V18.778L23.196,18.778z M17.509,5.121c0.082,0,0.137,0,0.17,0
	C17.63,5.121,17.552,5.121,17.509,5.121z M15.999,2.479c-7.467,0-13.521,6.054-13.521,13.521c0,7.467,6.054,13.52,13.521,13.52
	s13.521-6.053,13.521-13.52C29.519,8.534,23.466,2.479,15.999,2.479z M15.999,27.114c-2.358,0-4.547-0.734-6.348-1.988
	c-0.002-0.006-0.004-0.008-0.002-0.01c0-0.005,0.01-0.005,0.018-0.005c0.011,0.003,0.019,0,0.021-0.002s-0.013-0.017-0.03-0.028
	c-0.021-0.014-0.052-0.033-0.072-0.045c-0.021-0.012-0.049-0.021-0.062-0.027c-0.01-0.002-0.039-0.012-0.073-0.026
	c-0.591-0.435-1.138-0.92-1.632-1.457c-0.008-0.014-0.016-0.022-0.024-0.038c-0.021-0.025-0.056-0.063-0.074-0.074
	c-0.004-0.002-0.004-0.002-0.006-0.006c-0.062-0.066-0.119-0.134-0.178-0.201c0.028-0.004,0.043-0.026,0.028-0.056
	c-0.015-0.032-0.062-0.103-0.104-0.151c0.049-0.021,0.16-0.021,0.215-0.125c0.058-0.318-0.108-0.527-0.221-0.793
	c0.058,0,0.109,0.053,0.166,0.104c0.099-0.158,0.146-0.318,0.166-0.482c0.01-0.082,0.014-0.164,0.012-0.248
	c-0.01-0.481-0.396-0.904-0.284-1.328c0.168-0.635,0.5-1.215,0.623-1.879c0.03-0.063,0.063-0.123,0.098-0.184
	c0.065-0.12,0.132-0.24,0.147-0.376c0.021-0.083,0.033-0.228,0.023-0.321c-0.01-0.093-0.029-0.203-0.045-0.244
	s-0.045-0.102-0.068-0.135c-0.022-0.033-0.174-0.146-0.334-0.251c-0.158-0.104-0.289-0.188-0.291-0.188s-0.002-0.004-0.004-0.006
	c0-0.004-0.006-0.016-0.016-0.025c-0.008-0.012-0.02-0.028-0.023-0.04c-0.004-0.013-0.016-0.021-0.021-0.021
	c-0.004-0.002-0.014-0.002-0.02-0.002c-0.006,0.002-0.019-0.002-0.023-0.004c-0.006-0.004-0.018-0.011-0.021-0.017
	c-0.006-0.006-0.029-0.013-0.053-0.019c-0.023-0.004-0.049-0.015-0.059-0.021c-0.01-0.008-0.021-0.017-0.027-0.017
	s-0.014,0-0.02,0.002s-0.086,0.002-0.178-0.002c-0.095-0.002-0.177,0.002-0.187,0.009c-0.009,0.006-0.019,0.028-0.021,0.055
	c0,0.022-0.012,0.05-0.02,0.056c-0.01,0.008-0.023,0.012-0.035,0.012c-0.01,0-0.021-0.008-0.027-0.02
	c0.051-0.271-0.17-0.587-0.447-0.48c0,0,0,0.105,0,0.158c-0.221-0.053,0.058-0.264-0.108-0.315c-0.223-0.052-0.11,0.212-0.276,0.267
	c0.223-0.477,0.168-0.897-0.107-1.322c-0.166-0.366-0.607-0.524-0.617-1.015c-0.02-0.057-0.045-0.112-0.059-0.126
	c-0.014-0.012-0.049,0.001-0.076,0.03c-0.029,0.026-0.059,0.051-0.066,0.051C5.147,13.735,5.14,13.72,5.14,13.702
	c0-0.021,0.01-0.092,0.021-0.16c0.002-0.016,0.006-0.03,0.006-0.045c1.141-4.932,5.557-8.605,10.832-8.605
	c0.582,0,1.153,0.046,1.713,0.132c-0.104,0.025-0.199,0.061-0.287,0.104c-0.047,0.012-0.094,0.024-0.139,0.045
	c-0.021,0.005-0.047,0.008-0.074,0.008c0.096,0.031,0.17-0.011,0.236-0.051c-0.017,0.002-0.033,0.006-0.048,0.009
	c0.013-0.003,0.021-0.007,0.033-0.011h0.019c0.004-0.002,0.01-0.005,0.014-0.008c0.004,0,0.006-0.001,0.008-0.002
	c0.07-0.017,0.145-0.029,0.215-0.042c0.057,0,0.107,0.013,0.156,0.013c-0.043,0.023-0.088,0.045-0.129,0.065
	c-0.08,0.024-0.135,0.077-0.238,0.131h0.158c-0.055,0.053-0.055,0.053-0.105,0.105h0.053c-0.157,0.053-0.264,0.053-0.422,0.053
	c0.053-0.105,0.211,0,0.316-0.105c-0.477,0-0.896,0.105-1.367,0.229c-0.068,0.025-0.139,0.053-0.207,0.083
	c-0.082,0.035-0.162,0.075-0.24,0.118c-0.19,0.098-0.51,0.256-0.401,0.361c0.104,0.105,0.211,0.133,0.315,0.172
	c0.053,0.02,0.105,0.043,0.156,0.081c0.055,0.063,0.105,0.117,0.16,0.17c0.314,0.053,0.58-0.317,0.314-0.581
	c0.08-0.053,0.146-0.132,0.221-0.204c0.07-0.073,0.15-0.139,0.256-0.166c-0.158,0.053-0.158,0.265-0.104,0.317
	c0.104,0.079,0.226,0.026,0.351-0.033c0.125-0.06,0.258-0.126,0.392-0.073c-0.041,0.04-0.109,0.066-0.188,0.09
	c-0.077,0.023-0.163,0.043-0.235,0.069c-0.156,0-0.211,0.211-0.105,0.316c-0.055-0.057-0.162-0.057-0.213-0.057
	c-0.055,0.528-0.688,0.581-1.059,0.37c0.055,0,0.16,0.053,0.213-0.053c0-0.106-0.053-0.106-0.158-0.053c0-0.054,0-0.158,0-0.158
	c-0.211-0.054-0.211,0.211-0.211,0.369c-0.055,0-0.158-0.053-0.213-0.053c-0.439,0.308-0.844,0.47-1.301,0.637
	c-0.092,0.033-0.188,0.067-0.283,0.1c0.266,0.108,0.266,0.584,0,0.531c-0.688-0.212-1.479-0.37-1.584,0.476
	c0,0.105-0.158,0.264-0.053,0.369c0.422,0.317,1.004,0.317,1.479,0.106c0.158-0.054,0.267-0.317,0.455-0.369
	c0.078-0.034,0.16-0.069,0.23-0.118c0.072-0.051,0.137-0.115,0.182-0.21c0.092-0.076,0.191-0.115,0.303-0.139
	c0.107-0.023,0.226-0.03,0.349-0.04c0.08-0.007,0.164-0.015,0.25-0.029c0.346,0.323,0.926,0.717,1.137,1.192
	C16.37,9,16.521,8.785,16.732,8.997c-0.211-0.37-0.996-0.708-1.049-1.235c0.526,0.369,1.058,0.634,1.426,1.268
	c0.054,0.053,0.214,0.105,0.315,0.053c0.158-0.106,0.119-0.186,0.066-0.265s-0.119-0.158-0.014-0.264
	c0.053-0.105,0.092-0.079,0.137-0.012c0.34,0.751,1.342,0.381,1.711,0.698c0.529,0.423-0.313,0.95-0.949,0.845
	c-0.369-0.105-0.686-0.158-0.979-0.27c-0.065-0.018-0.129-0.034-0.188-0.052c-0.073-0.006-0.168,0.006-0.213,0.026
	c-0.043,0.021-0.091,0.074-0.104,0.12c-0.014,0.046-0.023,0.108-0.021,0.139c0,0.031-0.031,0.075-0.067,0.1
	c-0.039,0.024-0.142,0.008-0.226-0.037c-0.088-0.044-0.18-0.086-0.201-0.092c-0.024-0.007-0.129-0.056-0.231-0.11
	c-0.054-0.027-0.123-0.056-0.194-0.08c-0.367-0.008-0.789-0.272-0.578-0.694c-0.345-0.132-0.713-0.159-1.076-0.112
	c-0.094,0.012-0.187,0.027-0.275,0.047c-0.5,0.171-0.977,0.171-1.504,0.171c-0.369,0-0.635,0.423-0.803,0.76
	c-0.039,0.059-0.084,0.115-0.129,0.167c-0.183,0.215-0.404,0.387-0.646,0.48c-0.103,0.051-0.192,0.107-0.276,0.17
	c-0.683,0.501-0.89,1.377-1.086,2.21c-0.021,0.029-0.043,0.077-0.056,0.104c-0.013,0.029-0.017,0.098-0.01,0.152
	c0.008,0.055,0.004,0.146-0.007,0.205c-0.012,0.059-0.021,0.129-0.021,0.156c-0.002,0.027,0.012,0.063,0.023,0.08
	c0.016,0.018,0.047,0.029,0.068,0.031c0.073,0.07,0.133,0.15,0.184,0.236c0.051,0.082,0.092,0.17,0.129,0.26
	c0.406,1.375,1.938,1.271,3.021,0.84c0.088-0.02,0.176-0.036,0.26-0.055c0.086-0.02,0.168-0.037,0.244-0.053
	c0.187,0.023,0.342,0.063,0.349,0.085c0.006,0.022,0.018,0.052,0.028,0.063c0.008,0.015,0.025,0.033,0.039,0.046
	c0.012,0.011,0.027,0.03,0.037,0.045s0.021,0.038,0.027,0.054s0.033,0.047,0.063,0.065c0.027,0.021,0.168,0.034,0.31,0.032
	c0.204-0.015,0.312,0.093,0.416,0.25c0.211,0.477-0.158,1.004,0.291,1.357c0.021,0.02,0.065,0.077,0.121,0.157
	c0.055,0.08,0.12,0.179,0.184,0.278c0.125,0.199,0.246,0.498,0.271,0.658c0.021,0.16,0.065,0.334,0.098,0.387
	c0.029,0.052,0.041,0.182,0.021,0.285c-0.01,0.055-0.029,0.119-0.058,0.188c-0.241,0.329-0.399,0.753-0.348,1.122
	c0.213,0.633,0.635,1.215,0.764,1.876c0,0,0,0,0,0.073c0.021,0.057,0.054,0.117,0.076,0.137s0.049,0.047,0.058,0.059
	c0.008,0.012,0.024,0.028,0.034,0.037c0.013,0.01,0.024,0.021,0.029,0.022c0.006,0.002,0.037,0.063,0.071,0.131
	c0.035,0.069,0.101,0.172,0.146,0.228s0.099,0.158,0.115,0.231c0.021,0.071,0.024,0.146,0.014,0.16
	c-0.012,0.019-0.022,0.047-0.026,0.067s0,0.058,0.008,0.084c0.01,0.023,0.049,0.082,0.088,0.127s0.094,0.099,0.119,0.117
	c0.025,0.02,0.106,0.036,0.184,0.041c0.074,0.004,0.158,0,0.186-0.008c0.025-0.009,0.066-0.029,0.088-0.05
	c0.022-0.021,0.058-0.06,0.076-0.084c0.021-0.027,0.271-0.058,0.562-0.065c0.258-0.125,0.601-0.289,0.854-0.414
	c0.146-0.147,0.283-0.314,0.312-0.371c0.026-0.059,0.123-0.154,0.215-0.22c0.09-0.067,0.181-0.2,0.195-0.3
	c0.02-0.1,0.063-0.212,0.1-0.252c0.123-0.148,0.388-0.148,0.388-0.311c0.104-0.578,0.315-1.057,0.705-1.551
	c0.051-0.082,0.098-0.166,0.143-0.25c0.271-0.511,0.445-1.063,0.406-1.636c-0.021-0.063-0.043-0.129-0.062-0.19
	c-0.305-1.123,0.613-1.812,1.681-2.273c0.026-0.064,0.055-0.137,0.082-0.209c0.084-0.219,0.17-0.46,0.25-0.689
	c0.028-0.078,0.055-0.154,0.08-0.229c0.146-0.152,0.094-0.364,0.094-0.521c-0.314,0.156-0.633,0.104-0.937,0.163
	c-0.071,0.007-0.144,0.013-0.205,0.019c-0.051-0.014-0.11-0.036-0.135-0.051c-0.022-0.015-0.177-0.101-0.334-0.172
	c-0.146-0.064-0.174-0.145-0.276-0.209c-0.054-0.033-0.138-0.24-0.199-0.291c-0.062-0.053-0.158-0.192-0.197-0.238
	c-0.191-0.26-0.355-0.488-0.516-0.805c-0.211-0.318-0.476-0.636-0.654-1.013c-0.051-0.065-0.104-0.135-0.156-0.201
	c-0.057-0.063-0.109-0.131-0.166-0.192c-0.131-0.126-0.186-0.179-0.277-0.288c-0.041-0.027-0.027-0.074,0.031-0.098
	c0.322-0.158,0.217,0.317,0.479,0.292c0.063,0.061,0.119,0.119,0.177,0.182c0.059,0.063,0.114,0.125,0.17,0.188
	c0.073,0.085,0.146,0.172,0.221,0.26c0.281,0.351,0.545,0.719,0.824,1.086c0.03,0.037,0.076,0.104,0.119,0.181
	c0.045,0.077,0.09,0.165,0.12,0.243c0.168,0.953,1.226,0.478,1.808,0.267c0.313-0.157,0.687-0.315,0.735-0.687
	c0.158-0.739-0.422-1.162-0.896-1.586c-0.053,0.424-0.526,0.424-0.682,0.105c-0.045-0.053-0.084-0.105-0.109-0.159
	c0,0.054-0.053,0.106-0.053,0.159c-0.104-0.265-0.317-0.528-0.478-0.74c0.265,0,0.478,0.159,0.763,0.284
	c0.088,0.039,0.176,0.078,0.262,0.117c0.524,0.231,1.06,0.455,1.726,0.394c0.131-0.027,0.211,0.077,0.258,0.229
	c0.021,0.075,0.037,0.163,0.045,0.251c0.012,0.088,0.016,0.177,0.018,0.256c0.059-0.083,0.111-0.17,0.158-0.26
	s0.086-0.184,0.119-0.275c0.184-0.53,0.156-1.128,0.004-1.69c1.299,1.821,2.063,4.046,2.063,6.454
	C27.112,22.14,22.138,27.114,15.999,27.114z M17.583,5.068c-0.035,0.018-0.071,0.029-0.108,0.039
	C17.511,5.085,17.546,5.068,17.583,5.068z M17.454,5.121c-0.002,0.001-0.004,0.001-0.004,0.002c0.008-0.001,0.016-0.002,0.027-0.002
	H17.454z"/>
</svg>
