<?xml version="1.0" encoding="utf-8"?>
<!-- Generator: Adobe Illustrator 15.0.2, SVG Export Plug-In . SVG Version: 6.00 Build 0)  -->
<!DOCTYPE svg PUBLIC "-//W3C//DTD SVG 1.1//EN" "http://www.w3.org/Graphics/SVG/1.1/DTD/svg11.dtd">
<svg version="1.1" id="Layer_1" xmlns="http://www.w3.org/2000/svg" xmlns:xlink="http://www.w3.org/1999/xlink" x="0px" y="0px"
	 width="32px" height="32px" viewBox="0 0 32 32" enable-background="new 0 0 32 32" xml:space="preserve">
<path fill="#FFFFFF" d="M28.286,21.931c0.469,0.709,0.713,1.521,0.713,2.377c0,0.341-0.041,0.646-0.074,0.843
	c-0.088,0.545-0.604,0.916-1.146,0.828c-0.545-0.089-0.916-0.604-0.827-1.146c0.026-0.17,0.049-0.342,0.049-0.523
	c0-0.563-0.189-1.072-0.564-1.518l-0.354-0.418l0.162-0.523c0.188-0.604,0.383-1.793-0.408-2.938
	c-0.349-0.5-0.824-0.896-1.379-1.148l-0.679-0.307l0.099-0.736c0.037-0.273,0.045-0.545,0.024-0.801
	c-0.063-0.785-0.407-1.918-1.721-2.864c-0.543-0.394-1.293-0.582-2.099-0.532l-0.887,0.053l-0.156-0.875
	c-0.141-0.771-0.412-1.452-0.811-2.02c-0.752-1.08-1.959-1.674-3.396-1.674c-1.201,0-2.446,0.726-3.172,1.849
	c-0.662,1.025-0.895,2.303-0.69,3.802l0.123,0.922l-0.912,0.189c-0.754,0.157-1.461,0.54-1.994,1.077
	c-0.83,0.838-1.166,2.067-0.918,3.376l0.138,0.729l-0.66,0.346c-0.65,0.34-1.746,1.183-1.746,3.021c0,0.465,0.076,0.916,0.227,1.34
	c0.184,0.521-0.09,1.092-0.609,1.274c-0.111,0.039-0.223,0.06-0.334,0.06c-0.412,0-0.797-0.256-0.943-0.666
	c-0.225-0.639-0.34-1.314-0.34-2.008c0-1.861,0.797-3.438,2.211-4.426c-0.137-1.703,0.412-3.299,1.558-4.453
	c0.606-0.611,1.336-1.08,2.144-1.379c-0.088-2.008,0.514-3.423,1.073-4.29c1.082-1.678,2.988-2.763,4.853-2.763
	c2.111,0,3.897,0.897,5.037,2.528c0.414,0.594,0.731,1.264,0.946,1.998c0.947,0.079,1.826,0.389,2.533,0.899
	c1.933,1.394,2.448,3.123,2.543,4.33c0.015,0.168,0.021,0.343,0.019,0.517c0.615,0.387,1.149,0.896,1.565,1.494
	C28.312,18.979,28.597,20.47,28.286,21.931z M24.999,24.476c0-1.038-1.332-1.522-1.477-1.276c0.836-0.567,1.313-2.017,0.588-3.063
	c-0.555-0.802-1.678-1.265-2.957-0.601c1.014-1,1.832-3.051-0.115-4.455c-0.932-0.672-2.735-0.203-3.344,0.711
	c0.52-1.416,0.42-5.083-2.742-5.083c-1.356,0-4.031,1.731-1.76,6.767c-0.77-0.963-2.52-1.053-3.584,0.021
	c-1.027,1.041-0.73,2.854,0.322,4.018c-0.453-0.292-2.932-0.257-2.932,2.072c0,1.813,1.465,2.406,1.903,2.406h4.027l-3.15-1.634
	l3.484-0.168l-2.466-4.864l3.8,2.935l0.269-8.001l1.666,7.398l3.2-4.268l-1.733,6.268l4.6-2.267l-3.805,3.576l4.404-0.109
	l-3.83,1.134h4.498C24.368,25.945,24.999,25.449,24.999,24.476z"/>
</svg>
