<?xml version="1.0" encoding="utf-8"?>
<!-- Generator: Adobe Illustrator 15.0.2, SVG Export Plug-In . SVG Version: 6.00 Build 0)  -->
<!DOCTYPE svg PUBLIC "-//W3C//DTD SVG 1.1//EN" "http://www.w3.org/Graphics/SVG/1.1/DTD/svg11.dtd">
<svg version="1.1" id="Layer_1" xmlns="http://www.w3.org/2000/svg" xmlns:xlink="http://www.w3.org/1999/xlink" x="0px" y="0px"
	 width="32px" height="32px" viewBox="0 0 32 32" enable-background="new 0 0 32 32" xml:space="preserve">
<path fill="#FFFFFF" d="M16,6.75C9.546,6.75,3.949,10.509,1.2,16c2.749,5.491,8.346,9.25,14.8,9.25c6.455,0,12.052-3.759,14.8-9.25
	C28.052,10.509,22.455,6.75,16,6.75z M23.298,11.656c1.739,1.109,3.213,2.594,4.319,4.344c-1.106,1.75-2.581,3.234-4.319,4.346
	c-2.186,1.395-4.709,2.129-7.298,2.129s-5.112-0.734-7.297-2.129C6.964,19.234,5.49,17.75,4.384,16
	c1.106-1.75,2.58-3.234,4.318-4.344c0.114-0.073,0.229-0.143,0.344-0.212c-0.287,0.791-0.445,1.643-0.445,2.533
	c0,4.088,3.313,7.4,7.399,7.4c4.087,0,7.4-3.313,7.4-7.4c0-0.89-0.158-1.742-0.446-2.532C23.069,11.513,23.183,11.583,23.298,11.656
	z M16,13.052c0,1.532-1.243,2.775-2.774,2.775c-1.532,0-2.774-1.243-2.774-2.775c0-1.533,1.242-2.775,2.774-2.775
	C14.757,10.276,16,11.519,16,13.052z"/>
</svg>
