<?xml version="1.0" encoding="utf-8"?>
<!-- Generator: Adobe Illustrator 15.0.2, SVG Export Plug-In . SVG Version: 6.00 Build 0)  -->
<!DOCTYPE svg PUBLIC "-//W3C//DTD SVG 1.1//EN" "http://www.w3.org/Graphics/SVG/1.1/DTD/svg11.dtd">
<svg version="1.1" id="Layer_1" xmlns="http://www.w3.org/2000/svg" xmlns:xlink="http://www.w3.org/1999/xlink" x="0px" y="0px"
	 width="32px" height="32px" viewBox="0 0 32 32" enable-background="new 0 0 32 32" xml:space="preserve">
<path fill="#FFFFFF" d="M10.467,30.584c-1.943-4.045-0.908-6.361,0.584-8.545c1.637-2.395,2.059-4.762,2.059-4.762
	s1.287,1.674,0.771,4.289c2.272-2.529,2.701-6.561,2.356-8.104c5.136,3.589,7.332,11.361,4.375,17.121
	C36.344,21.682,24.525,8.36,22.467,6.86c0.688,1.5,0.815,4.041-0.568,5.273C19.553,3.24,13.754,1.417,13.754,1.417
	c0.687,4.587-2.485,9.603-5.545,13.351c-0.108-1.829-0.225-3.091-1.186-4.841c-0.215,3.322-2.754,6.032-3.441,9.361
	C2.65,23.795,4.279,27.096,10.467,30.584z"/>
</svg>
