<?xml version="1.0" encoding="utf-8"?>
<!-- Generator: Adobe Illustrator 15.0.2, SVG Export Plug-In . SVG Version: 6.00 Build 0)  -->
<!DOCTYPE svg PUBLIC "-//W3C//DTD SVG 1.1//EN" "http://www.w3.org/Graphics/SVG/1.1/DTD/svg11.dtd">
<svg version="1.1" id="Layer_1" xmlns="http://www.w3.org/2000/svg" xmlns:xlink="http://www.w3.org/1999/xlink" x="0px" y="0px"
	 width="32px" height="32px" viewBox="0 0 32 32" enable-background="new 0 0 32 32" xml:space="preserve">
<path fill="#FFFFFF" d="M7.348,12.793c-0.518,0-0.938,0.42-0.938,0.938s0.422,0.938,0.938,0.938c0.521,0,0.938-0.42,0.938-0.938
	C8.285,13.211,7.867,12.793,7.348,12.793z"/>
<path fill="#FFFFFF" d="M29.201,18.855c0-0.885-0.141-1.666-0.531-2.195c0.416-0.527,0.564-1.328,0.564-2.238l0.863-4.412
	c0-1.589,1.014-2.878-0.574-2.878h-1.342c-1.591,0-2.88,1.289-2.88,2.878l-1.344,2.58c-0.756-0.752-1.781-1.414-3.019-2.039
	c0.004-0.015,0.006-0.028,0.011-0.043c-1.604-0.054-0.938-0.552,0.071-0.533c0.388-2.48,1.25-4.497-1.604-4.06
	c-2.461,0.376-6.834,1.504-9.143,3.253c-2.705,0.477-8.691,3.593-8.691,6.623c0,0.246,3.432,4.971,8.176,5.953
	c1.908,2.17,7.158,3.563,9.951,3.99c3.16,0.482,1.762-2.043,1.504-4.873c-1.521,0.516-0.836-0.277,0.084-0.594
	c0.695-0.371,1.32-0.711,1.855-1.055l2.117,4.055c0,1.59,1.287,2.877,2.877,2.877h1.342c1.59,0,0.576-1.287,0.576-2.877
	L29.201,18.855z M7.146,15.168c-0.793,0-1.438-0.646-1.438-1.439c0-0.793,0.646-1.438,1.438-1.438c0.795,0,1.438,0.645,1.438,1.438
	S7.939,15.168,7.146,15.168z"/>
</svg>
