<?xml version="1.0" encoding="utf-8"?>
<!-- Generator: Adobe Illustrator 15.0.2, SVG Export Plug-In . SVG Version: 6.00 Build 0)  -->
<!DOCTYPE svg PUBLIC "-//W3C//DTD SVG 1.1//EN" "http://www.w3.org/Graphics/SVG/1.1/DTD/svg11.dtd">
<svg version="1.1" id="Layer_1" xmlns="http://www.w3.org/2000/svg" xmlns:xlink="http://www.w3.org/1999/xlink" x="0px" y="0px"
	 width="32px" height="32px" viewBox="0 0 32 32" enable-background="new 0 0 32 32" xml:space="preserve">
<path fill="#FFFFFF" d="M24.811,24.568c-0.482,0-1.047,0.233-1.691,0.699l-3.574-1.316l3.628-1.315
	c0.608,0.395,1.174,0.592,1.692,0.592c0.572,0,0.949-0.297,1.129-0.887c0.035-0.125,0.054-0.263,0.054-0.403
	c0-0.751-0.484-1.154-1.451-1.207c0.396-0.396,0.592-0.78,0.592-1.156c0-0.394-0.207-0.728-0.618-0.994
	c-0.216-0.104-0.438-0.159-0.671-0.159c-0.788,0-1.325,0.635-1.612,1.905l-6.285,2.339l-6.287-2.283
	c-0.285-1.31-0.824-1.963-1.611-1.963c-0.232,0-0.457,0.055-0.672,0.16c-0.393,0.27-0.59,0.604-0.59,0.994
	c0,0.376,0.197,0.764,0.59,1.156c-0.984,0.053-1.477,0.456-1.477,1.207c0,0.143,0.018,0.277,0.053,0.402
	c0.197,0.592,0.574,0.888,1.129,0.888c0.52,0,1.084-0.197,1.691-0.593l3.653,1.316l-3.601,1.289
	c-0.627-0.447-1.182-0.672-1.665-0.672c-0.574,0-0.978,0.297-1.21,0.887c-0.034,0.127-0.053,0.26-0.053,0.405
	c0,0.751,0.492,1.155,1.478,1.208c-0.394,0.395-0.591,0.779-0.591,1.154c0,0.394,0.197,0.726,0.591,0.996
	c0.252,0.143,0.492,0.213,0.726,0.213c0.733,0,1.264-0.627,1.586-1.881L16,25.268l6.258,2.282c0.324,1.254,0.861,1.881,1.613,1.881
	c0.215,0,0.446-0.07,0.696-0.213c0.412-0.271,0.619-0.604,0.619-0.996c0-0.375-0.196-0.762-0.592-1.154
	c0.967-0.053,1.45-0.457,1.45-1.208c0-0.146-0.018-0.278-0.053-0.404C25.777,24.865,25.385,24.568,24.811,24.568z"/>
<path fill="#FFFFFF" d="M7.484,15.651c0.984,1.127,2.373,1.952,4.164,2.47v0.404c0,0.501,0.172,0.923,0.512,1.263
	c0.34,0.342,0.76,0.528,1.263,0.564c0.52,0.035,0.903-0.055,1.155-0.27c0.394,0.284,0.832,0.43,1.314,0.43
	c0.449,0,0.859-0.135,1.236-0.402c0.25,0.197,0.617,0.277,1.104,0.242c0.5-0.055,0.922-0.246,1.262-0.577
	c0.34-0.333,0.51-0.749,0.51-1.249V18.23c1.935-0.502,3.431-1.345,4.486-2.526c1.021-1.127,1.531-2.461,1.531-4.002
	c0-0.341-0.037-0.699-0.107-1.075c-0.358-2.291-1.414-4.181-3.17-5.667C20.898,3.366,18.65,2.569,16,2.569
	c-2.651,0-4.897,0.788-6.741,2.362c-1.757,1.506-2.804,3.405-3.144,5.695c-0.072,0.377-0.108,0.735-0.108,1.076
	C6.006,13.207,6.498,14.522,7.484,15.651L7.484,15.651z M18.08,8.734c0.526-0.617,1.168-0.926,1.92-0.926
	c0.771,0,1.42,0.309,1.947,0.926c0.528,0.617,0.793,1.365,0.793,2.241c0,0.878-0.265,1.626-0.793,2.244
	c-0.527,0.619-1.177,0.927-1.947,0.927c-0.752,0-1.394-0.308-1.92-0.927c-0.527-0.618-0.793-1.366-0.793-2.244
	C17.287,10.098,17.553,9.351,18.08,8.734z M15.234,14.893c0.26-0.336,0.514-0.504,0.766-0.504c0.25,0,0.486,0.186,0.711,0.559
	c0.224,0.372,0.339,0.726,0.339,1.062c0,0.516-0.343,0.771-1.022,0.771c-0.447,0-0.779-0.113-0.994-0.344
	c-0.125-0.146-0.188-0.32-0.188-0.533C14.846,15.565,14.975,15.229,15.234,14.893z M9.822,8.734
	c0.535-0.618,1.182-0.927,1.934-0.927c0.753,0,1.396,0.309,1.935,0.926c0.539,0.617,0.808,1.365,0.808,2.241
	c0,0.878-0.269,1.626-0.808,2.244c-0.536,0.619-1.182,0.927-1.935,0.927c-0.752,0-1.396-0.308-1.934-0.927
	c-0.537-0.618-0.807-1.366-0.807-2.244C9.016,10.098,9.285,9.351,9.822,8.734z"/>
</svg>
