<?xml version="1.0" encoding="utf-8"?>
<!-- Generator: Adobe Illustrator 15.0.2, SVG Export Plug-In . SVG Version: 6.00 Build 0)  -->
<!DOCTYPE svg PUBLIC "-//W3C//DTD SVG 1.1//EN" "http://www.w3.org/Graphics/SVG/1.1/DTD/svg11.dtd">
<svg version="1.1" id="Layer_1" xmlns="http://www.w3.org/2000/svg" xmlns:xlink="http://www.w3.org/1999/xlink" x="0px" y="0px"
	 width="32px" height="32px" viewBox="0 0 32 32" enable-background="new 0 0 32 32" xml:space="preserve">
<path fill="#FFFFFF" d="M17.049,15.257c-3.188,0.859-2.408-0.669-2.099-2.975l0,0c-1.147,1.688-2.73,0.687-2.341-0.821
	c-0.625,1.17-1.882,2.405-3.227,1.513C7.975,12.064,8.513,3.37,0,0c1.294,0.837,3.622,3.768,0.26,6.854
	c4.124,0.151,2.557,4.095,1.517,4.369c2.561,0.293,3.827,1.671,3.059,4.993c2.116-1.179,5.884-0.988,4.642,4.203
	c0.994-2.444,5.721-3.08,5.092,0.765c1.719-2.17,5.5-1.633,6.356,0.732c-0.043-2.195,2.838-4.02,4.686-2.617
	c-0.129-2.335,2.722-4.424,5.346-4.224C26.465,11.442,20.557,14.314,17.049,15.257z"/>
</svg>
