<?xml version="1.0" encoding="utf-8"?>
<!-- Generator: Adobe Illustrator 15.0.2, SVG Export Plug-In . SVG Version: 6.00 Build 0)  -->
<!DOCTYPE svg PUBLIC "-//W3C//DTD SVG 1.1//EN" "http://www.w3.org/Graphics/SVG/1.1/DTD/svg11.dtd">
<svg version="1.1" id="Layer_1" xmlns="http://www.w3.org/2000/svg" xmlns:xlink="http://www.w3.org/1999/xlink" x="0px" y="0px"
	 width="32px" height="32px" viewBox="0 0 32 32" enable-background="new 0 0 32 32" xml:space="preserve">
<path fill="#FFFFFF" d="M4.16,22.732c1.896,5.313,11.71,4.652,11.71,4.652s9.814,0.659,11.709-4.652
	c-2.695-1.453-6.982-2.404-11.709-2.404C11.145,20.328,6.856,21.279,4.16,22.732z"/>
<path fill="#FFFFFF" d="M27.571,9.405c-2.14-0.217-5.615-0.362-8.37-2.792c-2.754-2.429-3.331-1.994-3.331-1.994
	s-0.582-0.435-3.337,1.994C9.778,9.042,6.294,9.187,4.156,9.405c-2.14,0.218-1.993,1.088-2.532,3.517
	c-0.539,2.43-2.358,3.082-1.775,3.662c0.402,0.402,2.27,1.938,3.377,2.842c2.838-1.718,7.402-2.856,12.646-2.856
	c5.24,0,9.807,1.141,12.646,2.854c1.104-0.902,2.966-2.438,3.368-2.84c0.584-0.58-1.24-1.232-1.779-3.662
	C29.566,10.493,29.71,9.623,27.571,9.405z M18.531,15.24l-2.661-1.924l-2.662,1.938l1.019-3.165l-2.662-1.968h3.29l1.018-3.129
	l1.018,3.129h3.289l-2.661,1.972L18.531,15.24z"/>
<path fill="#FFFFFF" d="M27.687,20.107c-2.688-1.485-7.026-2.467-11.816-2.467c-4.789,0-9.129,0.979-11.816,2.467v1.545
	c2.857-1.457,7.059-2.398,11.816-2.398c4.76,0,8.959,0.941,11.816,2.398V20.107z"/>
</svg>
