<?xml version="1.0" encoding="utf-8"?>
<!-- Generator: Adobe Illustrator 15.0.2, SVG Export Plug-In . SVG Version: 6.00 Build 0)  -->
<!DOCTYPE svg PUBLIC "-//W3C//DTD SVG 1.1//EN" "http://www.w3.org/Graphics/SVG/1.1/DTD/svg11.dtd">
<svg version="1.1" id="Layer_1" xmlns="http://www.w3.org/2000/svg" xmlns:xlink="http://www.w3.org/1999/xlink" x="0px" y="0px"
	 width="32px" height="32px" viewBox="0 0 32 32" enable-background="new 0 0 32 32" xml:space="preserve">
<path fill="#FFFFFF" d="M29.286,19.145c-3.598,1.938-3.941-1.594-3.941-1.594c-2.976-0.344-5.188-3.667-5.188-3.667
	c-4.018,2.075-1.778,7.931-0.047,10.179c2.225,2.881,0.596,7.543,0.596,7.543s-9.07-0.731-13.701-6.551
	c-3.477-4.367-2.578-8.496-1.589-11.223c1.19-3.274,2.801-5.071,5.147-6.983c3.49-2.845,9.937-3.201,9.937-3.201
	c0.042-0.241,0.24-0.523,0.493-0.813c-0.776,0.021-1.725,0.086-2.805,0.227c-0.736,0.143-1.551,0.224-2.375,0.465
	c-0.844,0.183-1.699,0.476-2.574,0.811c-0.873,0.325-1.732,0.787-2.581,1.269c-0.806,0.563-1.662,1.08-2.339,1.82
	C7.542,8.06,6.976,8.883,6.396,9.672c-0.607,0.773-0.905,1.718-1.359,2.531c-0.337,0.867-0.525,1.762-0.779,2.581
	c-0.229,0.823-0.226,1.649-0.342,2.394c-0.098,0.743-0.173,1.428-0.116,2.036c0.021,0.609,0.032,1.146,0.046,1.58
	c0.026,0.875,0.043,1.377,0.043,1.377l-0.121,0.013c0,0-0.104-0.49-0.24-1.373c-0.064-0.441-0.146-0.979-0.232-1.601
	c-0.133-0.619-0.137-1.326-0.079-2.103c0.044-0.559,0.054-1.164,0.104-1.784l-1.453-0.031l1.488-1.824l-1.563-0.223l2.231-1.714
	L2.384,11.01l2.311-1.266l-1.75-0.521l3.017-0.97L3.876,7.658l3.389-0.933L5.405,5.871L8.83,5.424L7.155,4.456l4.181-0.438
	c0.021-0.009,0.04-0.019,0.06-0.025L9.463,3.117l4.396-0.372l-2.014-1.044l8.313,0.659c0.449,0.021,0.842,0.056,1.199,0.095
	c1.066-1.024,2.746-2.06,2.746-2.06C23.756,0.74,23.62,2.61,23.62,2.61c0.345-0.625,1.451-1.247,1.451-1.247
	c-0.62,1.452,0,4.565,0,4.565c1.802,1.801,3.808,8.025,3.808,8.025l0.765,1.105C30.603,16.449,30.247,18.625,29.286,19.145z"/>
</svg>
