<?xml version="1.0" encoding="utf-8"?>
<!-- Generator: Adobe Illustrator 15.0.2, SVG Export Plug-In . SVG Version: 6.00 Build 0)  -->
<!DOCTYPE svg PUBLIC "-//W3C//DTD SVG 1.1//EN" "http://www.w3.org/Graphics/SVG/1.1/DTD/svg11.dtd">
<svg version="1.1" id="Layer_1" xmlns="http://www.w3.org/2000/svg" xmlns:xlink="http://www.w3.org/1999/xlink" x="0px" y="0px"
	 width="32px" height="32px" viewBox="0 0 32 32" enable-background="new 0 0 32 32" xml:space="preserve">
<path fill="#FFFFFF" d="M23.027,25.329h-0.076v-0.271c0-0.354-0.283-0.639-0.635-0.639H22.02c-0.037-0.375-0.055-0.746,0.021-1.096
	c0.344-1.543,0.766-3.076,1.244-4.584c0.788-2.479,1.264-4.958,0.479-7.531c-0.878-2.876-2.615-4.918-5.572-5.803
	c-0.203-0.062-0.412-0.253-0.528-0.439c-0.42-0.676-0.89-1.296-1.646-1.86c-0.035,0.334-0.074,0.548-0.076,0.762
	c-0.002,0.318,0.011,0.636,0.037,0.953c0.039,0.439-0.097,0.704-0.584,0.743c-0.271,0.021-0.537,0.124-0.793,0.186
	c0,0.988,0,0.988-0.896,1.351c-0.295,0.12-0.604,0.21-0.877,0.368c-0.219,0.127-0.41,0.32-0.578,0.513
	c-0.393,0.451-0.721,0.965-1.151,1.367c-0.867,0.806-1.772,1.57-2.69,2.315c-0.396,0.322-0.697,0.613-0.5,1.18
	c0.055,0.165-0.023,0.382-0.06,0.572c-0.111,0.584,0.392,1.59,0.93,1.85c1.275,0.618,2.281,0.449,3.291-0.576
	c0.478-0.482,1-0.673,1.675-0.44c0.928,0.321,1.875,0.559,2.983,0.299c-0.22,0.23-0.349,0.37-0.479,0.504
	c-1.267,1.288-2.49,2.612-3.418,4.174c-0.736,1.242-1.338,2.547-1.313,4.025c0.006,0.387,0.049,0.771,0.104,1.164h-0.127
	c-0.353,0-0.638,0.285-0.638,0.637v0.273h-0.075c-0.396,0-0.72,0.32-0.72,0.721v2.846l13.685-0.002v-2.844
	C23.748,25.651,23.426,25.329,23.027,25.329z"/>
</svg>
