<?xml version="1.0" encoding="utf-8"?>
<!-- Generator: Adobe Illustrator 15.0.2, SVG Export Plug-In . SVG Version: 6.00 Build 0)  -->
<!DOCTYPE svg PUBLIC "-//W3C//DTD SVG 1.1//EN" "http://www.w3.org/Graphics/SVG/1.1/DTD/svg11.dtd">
<svg version="1.1" id="Layer_1" xmlns="http://www.w3.org/2000/svg" xmlns:xlink="http://www.w3.org/1999/xlink" x="0px" y="0px"
	 width="32px" height="32px" viewBox="0 0 32 32" enable-background="new 0 0 32 32" xml:space="preserve">
<path d="M14.338,6.956h-0.263c-0.014,0-0.022,0.01-0.03,0.022c0.094,0.016,0.19,0.026,0.292,0.03
	C14.375,7.01,14.375,6.956,14.338,6.956z"/>
<path fill="#FFFFFF" d="M29.141,26.246c-0.012-0.034,0.008-0.048,0.037-0.026c0.002,0,0.004,0,0.004,0.002
	c0.029,0.02,0.049,0.007,0.037-0.029c-0.195-0.693-0.57-1.293-0.801-1.955c-0.014-0.035-0.003-0.04,0.02-0.01
	c0.051,0.064,0.101,0.132,0.148,0.197c0.021,0.027,0.045,0.051,0.05,0.047c0.007-0.004-0.006-0.031-0.024-0.063
	c-0.273-0.461-0.549-0.922-0.824-1.384c-0.02-0.032-0.023-0.064-0.012-0.072c0.013-0.008,0.041,0.012,0.063,0.04
	c0.061,0.084,0.121,0.168,0.182,0.251c0.021,0.03,0.043,0.053,0.049,0.051c0.007-0.002,0.002-0.026-0.008-0.059
	c-0.011-0.029-0.013-0.063-0.004-0.068c0.006-0.008,0.033,0.008,0.062,0.034c0.12,0.125,0.245,0.252,0.385,0.394
	c0.024,0.026,0.032,0.021,0.015-0.01c-0.031-0.058-0.061-0.107-0.086-0.156c-0.02-0.03-0.027-0.066-0.021-0.074
	s0.035-0.002,0.064,0.02c0.152,0.105,0.308,0.201,0.469,0.314c0.031,0.021,0.045-0.012,0.031-0.04
	c-0.014-0.03,0.076-0.08,0.041-0.087c-0.166-0.032-0.309-0.253-0.309-0.253c-0.234-0.37-0.529-0.716-0.758-1.089
	c-0.313-0.514-0.54-1.064-0.646-1.659c-0.013-0.074-0.02-0.15-0.023-0.228c-0.002-0.035-0.012-0.046-0.019-0.021
	c-0.006,0.024-0.021,0.017-0.032-0.019c-0.146-0.427-0.289-0.832-0.431-1.236c-0.013-0.035-0.021-0.065-0.017-0.066
	c0.004-0.003,0.02,0.021,0.035,0.057c0.061,0.119,0.121,0.237,0.181,0.356c0.017,0.033,0.034,0.058,0.042,0.056
	c0.007-0.002,0.005-0.029-0.004-0.061c-0.006-0.02-0.012-0.037-0.021-0.055c-0.365-0.719-0.729-1.439-1.104-2.154
	c-0.073-0.143-0.178-0.273-0.292-0.385c-0.351-0.334-0.714-0.65-1.068-0.979c-0.126-0.116-0.237-0.247-0.358-0.37
	c-0.063-0.063-0.123-0.132-0.195-0.18c-0.479-0.314-0.91-0.677-1.27-1.135c-0.479-0.61-1.132-1.018-1.779-1.423
	c-0.155-0.097-0.312-0.201-0.479-0.275c-0.222-0.098-0.449-0.204-0.686-0.243c-0.34-0.057-0.689-0.039-1.03-0.086
	c-0.245-0.034-0.487-0.106-0.726-0.188c-0.563-0.194-1.117-0.41-1.68-0.606c-0.369-0.129-0.576-0.451-0.854-0.689
	c-0.016-0.014-0.025-0.037-0.034-0.061c-0.011-0.035-0.013-0.07-0.004-0.079c0.009-0.009,0.042-0.002,0.075,0.014
	c0.09,0.044,0.181,0.089,0.277,0.137c0.031,0.016,0.041,0.006,0.02-0.024c-0.023-0.032-0.047-0.063-0.068-0.093
	c-0.021-0.03-0.037-0.06-0.033-0.066c0.004-0.007,0.034,0,0.067,0.016c0.151,0.068,0.301,0.137,0.452,0.206
	c0.033,0.015,0.066,0.022,0.074,0.015s-0.002-0.038-0.021-0.069c-0.018-0.028-0.037-0.06-0.063-0.101
	c-0.021-0.031-0.006-0.046,0.027-0.032c0.242,0.097,0.459,0.182,0.672,0.267c0.034,0.014,0.063,0.021,0.065,0.017
	c0.002-0.004-0.022-0.022-0.058-0.04c-0.184-0.099-0.365-0.196-0.551-0.295c-0.031-0.018-0.055-0.042-0.049-0.053
	c0.006-0.012,0.038-0.012,0.073,0c0.075,0.025,0.149,0.051,0.226,0.076c0.035,0.012,0.067,0.015,0.07,0.006
	c0.003-0.009-0.018-0.034-0.045-0.057c-0.02-0.016-0.038-0.031-0.057-0.046c-0.028-0.023-0.049-0.051-0.047-0.061
	c0.004-0.01,0.035-0.015,0.071-0.01c0.052,0.007,0.104,0.014,0.159,0.021c0.037,0.005,0.043-0.01,0.016-0.034
	c-0.017-0.013-0.031-0.026-0.047-0.04c-0.029-0.023-0.025-0.057,0.008-0.07c0.211-0.076,0.401,0.038,0.611,0.071
	c0.036,0.006,0.042-0.01,0.014-0.031c-0.201-0.141-0.388-0.271-0.57-0.399c-0.03-0.021-0.053-0.042-0.053-0.046
	c0.002-0.004,0.031,0.004,0.063,0.018l0.347,0.141c0.033,0.014,0.065,0.018,0.069,0.009c0.005-0.008-0.019-0.031-0.048-0.05
	c-0.139-0.085-0.273-0.169-0.411-0.254c-0.03-0.019-0.056-0.042-0.052-0.05c0.002-0.008,0.031-0.007,0.068,0.003
	c0.033,0.01,0.068,0.02,0.105,0.03c0.036,0.01,0.051-0.008,0.029-0.039c-0.15-0.216-0.424-0.256-0.604-0.423
	c-0.025-0.026-0.015-0.04,0.021-0.028c0.033,0.012,0.072,0.024,0.115,0.039c0.035,0.011,0.041,0.002,0.012-0.02
	c-0.021-0.015-0.038-0.029-0.059-0.043c-0.027-0.022-0.021-0.043,0.016-0.045c0.049-0.003,0.095-0.006,0.146-0.01
	c0.037-0.002,0.038-0.014,0.005-0.026c-0.064-0.021-0.121-0.042-0.176-0.06c-0.033-0.012-0.063-0.029-0.063-0.036
	c0.004-0.007,0.033-0.01,0.07-0.003c0.096,0.02,0.193,0.034,0.291,0.046c0.02,0.002,0.039-0.019,0.059-0.029
	c0.029-0.015,0.035-0.066,0.015-0.082c-0.015-0.01-0.012-0.041,0-0.062c-0.149-0.026-0.29-0.077-0.414-0.192
	C16.354,8.579,16.361,8.56,16.4,8.562c0.033,0.001,0.065,0.003,0.103,0.005s0.039-0.008,0.005-0.023
	c-0.007-0.003-0.014-0.006-0.02-0.009c-0.034-0.015-0.033-0.037,0-0.05c0.14-0.051,0.281-0.102,0.422-0.154
	c0.035-0.012,0.063-0.03,0.061-0.038c-0.003-0.008-0.035-0.017-0.07-0.019c-0.01,0-0.021-0.001-0.032-0.001
	c-0.037-0.002-0.05-0.027-0.026-0.056c0.047-0.059,0.085-0.111,0.121-0.158c0.021-0.029,0.021-0.071,0.004-0.095
	c-0.014-0.018-0.025-0.035-0.021-0.049c0.012-0.039,0.06-0.08,0.102-0.094c0.081-0.028,0.164-0.047,0.246-0.087
	c0.033-0.016,0.027-0.034-0.009-0.035c-0.22-0.01-0.44-0.021-0.66-0.031c-0.037-0.002-0.067-0.013-0.069-0.025
	c0-0.012,0.012-0.03,0.029-0.04c0.018-0.01,0.002-0.024-0.034-0.032c-0.038-0.008-0.075-0.015-0.112-0.022
	c-0.037-0.008-0.064-0.021-0.064-0.031c0-0.009,0.027-0.019,0.064-0.022c0.082-0.006,0.166-0.012,0.263-0.02
	c0.036-0.002,0.036-0.01,0.001-0.016C16.544,7.432,16.4,7.407,16.26,7.382c-0.035-0.006-0.066-0.021-0.066-0.032
	c-0.002-0.012,0.024-0.028,0.063-0.036c0.016-0.003,0.029-0.007,0.044-0.01c0.036-0.008,0.04-0.03,0.009-0.049
	c-0.262-0.152-0.526-0.308-0.826-0.483c-0.032-0.019-0.027-0.031,0.009-0.027c0.229,0.028,0.436,0.079,0.625-0.013
	c0.032-0.016,0.028-0.038-0.009-0.044c-0.068-0.012-0.143-0.024-0.215-0.037c-0.037-0.006-0.063-0.019-0.058-0.027
	c0.005-0.008-0.021-0.025-0.056-0.036c-0.108-0.034-0.217-0.068-0.326-0.102c-0.035-0.011-0.063-0.031-0.061-0.045
	s0.031-0.028,0.067-0.032c0.083-0.007,0.166-0.015,0.249-0.022c0.037-0.003,0.064-0.012,0.064-0.018
	c0-0.007-0.029-0.017-0.065-0.022c-0.097-0.016-0.19-0.031-0.287-0.046c-0.037-0.006-0.065-0.021-0.063-0.035
	c0-0.014,0.028-0.029,0.065-0.035c0.063-0.009,0.123-0.019,0.187-0.028c0.037-0.005,0.05-0.023,0.031-0.038
	c-0.021-0.016-0.037-0.04-0.041-0.055c-0.002-0.015,0.024-0.034,0.062-0.042c0.257-0.063,0.514-0.128,0.786-0.196
	c0.037-0.009,0.035-0.013,0-0.009c-0.321,0.034-0.405,0.04-0.443,0c-0.025-0.026-0.005-0.072,0.027-0.087
	C16.107,5.74,16.177,5.7,16.16,5.59c-0.006-0.036-0.047-0.063-0.084-0.061c-0.061,0.003-0.129,0.006-0.197,0.014
	c-0.256,0.032-0.279,0.036-0.378-0.152c-0.015-0.032-0.002-0.072,0.03-0.087c0.113-0.053,0.228-0.105,0.34-0.158
	c0.033-0.016,0.059-0.036,0.054-0.045c-0.004-0.009-0.034-0.006-0.069,0.007c-0.082,0.034-0.164,0.069-0.25,0.089
	c-0.11,0.026-0.239,0.111-0.332-0.043c-0.006-0.01-0.029-0.009-0.045-0.014c-0.5-0.166-0.998-0.331-1.496-0.499
	c-0.086-0.03-0.172-0.067-0.252-0.124c-0.028-0.021-0.021-0.039,0.015-0.037l0.039,0.002c0.036,0.002,0.067-0.001,0.071-0.008
	c0.004-0.007-0.02-0.026-0.053-0.043c-0.129-0.068-0.259-0.136-0.388-0.204c-0.034-0.018-0.058-0.037-0.056-0.043
	c0.002-0.006,0.033-0.009,0.07-0.005c0.012,0.001,0.021,0.002,0.03,0.003c0.037,0.004,0.039-0.005,0.005-0.02
	c-0.287-0.13-0.599-0.271-0.914-0.413c-0.031-0.013-0.057-0.036-0.054-0.05c0.003-0.014,0.035-0.022,0.071-0.021
	c0.078,0.004,0.162,0.008,0.265,0.013c0.037,0.002,0.038-0.003,0.002-0.012c-0.062-0.013-0.108-0.024-0.161-0.036
	c-0.037-0.007-0.039-0.027-0.006-0.044c0.158-0.082,0.301-0.156,0.438-0.227c0.033-0.017,0.029-0.027-0.008-0.021
	c-0.178,0.031-0.356,0.059-0.537,0.09c-0.037,0.005-0.067-0.003-0.072-0.016c-0.004-0.013,0.012-0.041,0.033-0.055
	c0.021-0.014,0.011-0.044-0.025-0.051c-0.098-0.02-0.189-0.062-0.283-0.082c0,0,0.243-0.072-0.105-0.122
	c-0.328-0.046-0.606-0.168-0.883-0.347c-0.227-0.146-0.496-0.23-0.756-0.313c-0.309-0.1-0.628-0.168-0.941-0.254
	C9.16,2.169,9.048,2.107,8.93,2.094c-0.148-0.015-0.3-0.008-0.434-0.005c-0.037,0-0.094-0.016-0.121-0.039
	C8.343,2.026,8.313,2.004,8.283,2.003c-0.65-0.012-1.301,0.001-1.936,0.169C6.223,2.207,6.105,2.276,5.98,2.317
	C5.934,2.333,5.859,2.339,5.825,2.313c-0.13-0.095-0.249-0.203-0.37-0.309c-0.057-0.048-0.109-0.1-0.163-0.15
	C5.266,1.829,5.234,1.814,5.225,1.82C5.213,1.826,5.204,1.859,5.204,1.893c0,0.021,0.001,0.041,0.006,0.061
	c0.032,0.118,0.067,0.235,0.104,0.352c0.07,0.244,0.068,0.239-0.174,0.318C5.036,2.658,4.923,2.698,4.842,2.769
	C4.736,2.861,4.626,2.855,4.503,2.851C4.398,2.846,4.294,2.86,4.189,2.862C3.852,2.865,3.527,2.798,3.225,2.642
	C3.207,2.632,3.188,2.629,3.166,2.628C3.132,2.625,3.105,2.651,3.107,2.685c0.002,0.022,0.004,0.043,0.017,0.059
	C3.256,2.95,3.395,3.149,3.643,3.246C3.775,3.299,3.9,3.376,4.021,3.456C4.232,3.593,4.281,3.757,4.21,4
	C4.105,4.369,3.984,4.736,3.918,5.112C3.885,5.294,3.957,5.494,3.982,5.686c0.015,0.087,0.053,0.173,0.052,0.26
	C4.021,6.713,3.896,7.463,3.684,8.2C3.648,8.325,3.622,8.452,3.6,8.561C3.592,8.596,3.578,8.643,3.57,8.665
	C3.566,8.676,3.564,8.69,3.564,8.704c0,0.015,0.002,0.029,0.004,0.043C3.577,8.77,3.591,8.8,3.6,8.816
	c0.01,0.016,0.022,0.038,0.029,0.051c0.004,0.007,0.01,0.015,0.014,0.022c0.037,0.053,0.08,0.1,0.123,0.148
	C3.79,9.065,3.793,9.112,3.77,9.142C3.752,9.165,3.732,9.188,3.713,9.21C3.699,9.229,3.689,9.248,3.682,9.268
	C3.67,9.302,3.67,9.337,3.668,9.342C3.665,9.347,3.664,9.352,3.664,9.354c0,0.04,0.02,0.098,0.05,0.116
	c0.144,0.084,0.29,0.16,0.445,0.244c0.032,0.017,0.034,0.049,0.005,0.071C4.15,9.794,4.137,9.804,4.123,9.814
	c-0.03,0.021-0.032,0.059-0.002,0.08c0.156,0.109,0.322,0.103,0.499,0.075c0.083-0.013,0.169,0,0.253,0
	c0.038,0,0.089,0.008,0.109-0.013c0.119-0.121,0.266-0.134,0.425-0.152c0.22-0.026,0.413-0.296,0.382-0.52
	c-0.041-0.292,0.045-0.514,0.25-0.736c0.172-0.187,0.259-0.45,0.395-0.673c0.035-0.059,0.102-0.113,0.164-0.138
	c0.101-0.04,0.188-0.002,0.215,0.112c0.069,0.279,0.184,0.558,0.188,0.838c0.01,0.421-0.042,0.845-0.094,1.264
	c-0.056,0.471-0.292,0.868-0.554,1.255c-0.297,0.435-0.465,0.905-0.373,1.449c0.049,0.295,0.056,0.599,0.067,0.899
	c0.002,0.057-0.038,0.144-0.084,0.171c-0.841,0.481-1.573,1.107-2.312,1.729c-0.121,0.104-0.264,0.188-0.383,0.295
	c-0.313,0.277-0.353,0.639-0.279,1.022c0.017,0.087,0.039,0.179,0.087,0.252c0.218,0.345,0.229,0.709,0.133,1.091
	c-0.146,0.594-0.283,1.189-0.438,1.781c-0.045,0.173-0.022,0.324,0.063,0.464c0.2,0.321,0.331,0.668,0.397,1.038
	c0.057,0.313,0.227,0.564,0.406,0.814c0.139,0.192,0.262,0.398,0.396,0.599c0.11,0.165,0.223,0.211,0.396,0.116
	c0.145-0.075,0.293-0.178,0.381-0.311c0.244-0.365,0.31-0.781,0.227-1.215C5.02,21.317,4.984,21.22,4.93,21.165
	c-0.219-0.224-0.441-0.438-0.677-0.643c-0.151-0.135-0.206-0.334-0.12-0.52c0.053-0.104,0.084-0.229,0.098-0.346
	c0.015-0.134,0.008-0.271,0.006-0.429c-0.002-0.036,0.022-0.05,0.054-0.027c0.219,0.159,0.381,0.341,0.418,0.587
	c0.067,0.446,0.345,0.645,0.747,0.771c0.699,0.22,1.4,0.396,2.143,0.369c0.344-0.014,0.348,0.008,0.322-0.342
	c-0.037-0.506-0.288-0.918-0.593-1.303c-0.033-0.042-0.103-0.076-0.156-0.076c-0.167,0-0.334,0.014-0.5,0.037
	c-0.052,0.008-0.101,0.063-0.146,0.1c-0.082,0.072-0.159,0.149-0.246,0.23c-0.026,0.025-0.062,0.024-0.076-0.001
	c-0.014-0.021-0.021-0.034-0.027-0.05c-0.115-0.292-0.115-0.297-0.417-0.297c-0.226,0-0.399-0.112-0.503-0.283
	c-0.234-0.391-0.443-0.796-0.65-1.203c-0.026-0.055-0.004-0.156,0.031-0.22c0.063-0.11,0.141-0.218,0.233-0.304
	c0.054-0.051,0.147-0.08,0.224-0.082c0.68-0.025,1.359-0.024,2.037-0.068c0.616-0.04,1.229-0.125,1.842-0.195
	c0.078-0.01,0.174-0.045,0.221-0.101c0.16-0.188,0.343-0.185,0.541-0.091c0.396,0.184,0.781,0.382,1.183,0.551
	c0.574,0.243,1.161,0.455,1.733,0.695c1.104,0.466,2.291,0.601,3.445,0.856c0.244,0.056,0.496,0.072,0.745,0.101
	c0.113,0.013,0.194,0.062,0.224,0.17c0.039,0.147,0.094,0.302,0.095,0.453c0.001,0.552,0.161,1.051,0.432,1.521
	c0.095,0.164,0.187,0.332,0.25,0.509c0.146,0.392,0.076,0.757-0.188,1.078c-0.519,0.634-1.125,1.177-1.737,1.707
	c-0.188,0.164-0.379,0.329-0.556,0.509c-0.062,0.062-0.105,0.16-0.111,0.247c-0.035,0.496-0.086,0.987-0.236,1.466
	c-0.107,0.342,0.038,0.642,0.178,0.938c0.119,0.254,0.24,0.506,0.377,0.792c0.017,0.032,0.05,0.038,0.074,0.011
	c0.153-0.168,0.299-0.314,0.428-0.475c0.262-0.326,0.432-0.703,0.541-1.104c0.033-0.121,0.007-0.268-0.021-0.396
	c-0.035-0.16-0.113-0.313-0.143-0.477c-0.012-0.056,0.051-0.168,0.103-0.186c0.208-0.066,0.283-0.242,0.402-0.396
	c0.228-0.293,0.491-0.56,0.747-0.83c0.273-0.289,0.601-0.504,0.957-0.688c0.38-0.196,0.742-0.426,1.104-0.658
	c0.09-0.058,0.149-0.16,0.223-0.261c0.021-0.03,0.067-0.042,0.103-0.024c0.282,0.141,0.497,0.387,0.644,0.723
	c0.291,0.662,0.174,1.287-0.131,1.896c-0.275,0.554-0.578,1.093-0.871,1.638c-0.182,0.332-0.466,0.563-0.769,0.774
	c-0.085,0.062-0.174,0.128-0.229,0.213c-0.392,0.593-0.701,1.228-0.99,1.87c-0.074,0.171-0.063,0.223,0.128,0.247
	c0.235,0.03,0.479,0.037,0.716,0.024c0.406-0.018,0.794-0.115,1.115-0.391c0.242-0.205,0.382-0.46,0.354-0.789
	c-0.001-0.017,0-0.033-0.003-0.05c-0.065-0.301,0.011-0.504,0.338-0.603c0.248-0.074,0.382-0.306,0.491-0.524
	c0.316-0.64,0.609-1.287,0.936-1.921c0.254-0.495,0.537-0.977,0.814-1.458c0.186-0.317,0.378-0.63,0.579-0.938
	c0.196-0.299,0.146-0.563-0.037-0.851c-0.243-0.38-0.458-0.776-0.687-1.164c-0.203-0.345-0.109-0.694,0.104-0.954
	c0.545-0.658,0.797-1.462,1.173-2.203c0.029-0.059,0.048-0.121,0.078-0.184c0.017-0.032,0.03-0.026,0.026,0.01
	c-0.006,0.041-0.012,0.082-0.01,0.122c0.021,0.519,0.055,1.037,0.068,1.558c0.008,0.244-0.042,0.492-0.018,0.733
	c0.039,0.362,0.123,0.722,0.188,1.082c0.017,0.082,0.031,0.164,0.062,0.243c0.015,0.035,0.023,0.031,0.021-0.006
	c-0.005-0.045-0.01-0.09-0.014-0.137c-0.006-0.035,0-0.037,0.009,0c0.144,0.584,0.271,1.17,0.593,1.69
	c0.02,0.03,0.025,0.026,0.016-0.007c-0.006-0.018-0.012-0.031-0.018-0.047c-0.013-0.035-0.003-0.041,0.021-0.014
	c0.183,0.228,0.359,0.443,0.556,0.688c0.022,0.026,0.05,0.021,0.056-0.015c0.006-0.021,0.008-0.041,0.012-0.061
	c0.01-0.035,0.041-0.053,0.074-0.038c0.088,0.038,0.17,0.072,0.246,0.12c0.084,0.053,0.164,0.12,0.248,0.189
	c0.026,0.024,0.049,0.021,0.049-0.002c0-0.025,0.015-0.045,0.026-0.041c0.011,0.004,0.015,0.008,0.022,0.015
	c0.408,0.332,0.763,0.708,1.045,1.159c0.186,0.299,0.428,0.572,0.693,0.802c0.101,0.085,0.184,0.187,0.293,0.267
	c0.028,0.021,0.041,0.012,0.021-0.021c-0.024-0.046-0.056-0.093-0.08-0.14c-0.021-0.029-0.028-0.062-0.022-0.064
	s0.029,0.016,0.055,0.041c0.072,0.083,0.146,0.168,0.229,0.266c0.023,0.026,0.037,0.021,0.03-0.018
	c-0.001-0.002-0.001-0.004-0.001-0.008c-0.008-0.035,0.011-0.049,0.041-0.025c0.177,0.127,0.348,0.249,0.527,0.38
	c0.029,0.021,0.057,0.009,0.059-0.028c0.005-0.068,0.009-0.125,0.014-0.176c0.002-0.037,0.017-0.068,0.028-0.07
	c0.015-0.002,0.043,0.021,0.065,0.049c0.006,0.007,0.012,0.014,0.018,0.021c0.021,0.027,0.045,0.051,0.05,0.049
	s-0.003-0.029-0.017-0.063c-0.024-0.06-0.049-0.117-0.073-0.177c-0.015-0.033-0.021-0.063-0.015-0.067
	c0.008-0.004,0.031,0.019,0.054,0.048c0.038,0.051,0.076,0.104,0.114,0.152c0.021,0.029,0.043,0.052,0.05,0.049
	c0.006-0.003,0.002-0.033-0.009-0.068C29.205,26.485,29.173,26.371,29.141,26.246z"/>
</svg>
