<?xml version="1.0" encoding="utf-8"?>
<!-- Generator: Adobe Illustrator 15.0.2, SVG Export Plug-In . SVG Version: 6.00 Build 0)  -->
<!DOCTYPE svg PUBLIC "-//W3C//DTD SVG 1.1//EN" "http://www.w3.org/Graphics/SVG/1.1/DTD/svg11.dtd">
<svg version="1.1" id="Layer_1" xmlns="http://www.w3.org/2000/svg" xmlns:xlink="http://www.w3.org/1999/xlink" x="0px" y="0px"
	 width="32px" height="32px" viewBox="0 0 32 32" enable-background="new 0 0 32 32" xml:space="preserve">
<path fill="#FFFFFF" d="M25.604,13.026l-0.668-1.588c0,0,1.555-3.51,1.418-3.645l-2.06-2.011C24.15,5.643,20.64,7.245,20.64,7.245
	l-1.62-0.654c0,0-1.431-3.558-1.627-3.558h-2.906c-0.203,0-1.525,3.566-1.525,3.566l-1.617,0.655c0,0-3.585-1.523-3.723-1.388
	L5.564,7.881c-0.143,0.138,1.494,3.578,1.494,3.578L6.39,13.045c0,0-3.634,1.399-3.634,1.589v2.848c0,0.198,3.643,1.495,3.643,1.495
	l0.67,1.584c0,0-1.557,3.508-1.42,3.644l2.06,2.017c0.14,0.138,3.651-1.465,3.651-1.465l1.621,0.655c0,0,1.43,3.556,1.629,3.556
	h2.905c0.201,0,1.526-3.564,1.526-3.564l1.621-0.657c0,0,3.578,1.524,3.717,1.392l2.059-2.015c0.146-0.14-1.496-3.577-1.496-3.577
	l0.668-1.587c0,0,3.635-1.399,3.635-1.594v-2.847C29.244,14.32,25.604,13.026,25.604,13.026z M20.246,15.999
	c0,2.291-1.904,4.156-4.246,4.156c-2.338,0-4.246-1.865-4.246-4.156c0-2.29,1.908-4.153,4.246-4.153
	C18.343,11.847,20.246,13.709,20.246,15.999z"/>
</svg>
