<?xml version="1.0" encoding="utf-8"?>
<!-- Generator: Adobe Illustrator 15.0.2, SVG Export Plug-In . SVG Version: 6.00 Build 0)  -->
<!DOCTYPE svg PUBLIC "-//W3C//DTD SVG 1.1//EN" "http://www.w3.org/Graphics/SVG/1.1/DTD/svg11.dtd">
<svg version="1.1" id="Layer_1" xmlns="http://www.w3.org/2000/svg" xmlns:xlink="http://www.w3.org/1999/xlink" x="0px" y="0px"
	 width="32px" height="32px" viewBox="0 0 32 32" enable-background="new 0 0 32 32" xml:space="preserve">
<path fill="#FFFFFF" d="M25.612,18.072c0-1.324-1.084-2.521-2.832-3.388c0.043,0.891,0.113,1.874,0.229,2.981l0.012,0.102
	l-0.045,0.094c-0.045,0.094-1.176,2.318-7.039,2.318c-0.198,0-0.36-0.162-0.36-0.359c0-0.014,0.006-0.021,0.006-0.031
	c0.017-0.182,0.164-0.326,0.351-0.33c0.002,0,0.004-0.002,0.006-0.002c0.266,0,0.516-0.006,0.758-0.014
	c4.111-0.148,5.342-1.492,5.582-1.824c-0.123-1.219-0.197-2.298-0.236-3.261c-0.166-4.252,0.389-6.185,0.717-7.322
	c0.289-1.005,0.334-1.16-0.36-1.856c-1.324-1.323-4.171-1.703-5.699-1.812c-0.254-0.019-0.472-0.029-0.64-0.035
	c-0.223-0.009-0.359-0.01-0.381-0.01v0.002c-1.678-0.014-4.985,0.154-6.432,1.599c-1.775,1.777,0.605,1.33,0.236,9.642
	c-1.9,0.874-3.096,2.118-3.096,3.506c0,2.639,4.303,4.777,9.61,4.777C21.308,22.85,25.612,20.711,25.612,18.072z M9.757,6.863
	c0.084-0.181,0.301-0.259,0.48-0.173c0.014,0.006,0.32,0.146,0.85,0.327c0.957,0.329,2.646,0.791,4.662,0.836
	c0.309,0.006,0.625,0.004,0.947-0.011c1.252-0.058,2.592-0.294,3.939-0.825c0.252-0.099,0.504-0.205,0.756-0.326
	c0.182-0.088,0.396-0.01,0.481,0.17c0.084,0.18,0.011,0.396-0.17,0.482c-1.719,0.823-3.438,1.167-5.01,1.239
	c-0.226,0.01-0.445,0.015-0.664,0.015c-0.093,0-0.181-0.004-0.271-0.006c-3.246-0.061-5.676-1.175-5.832-1.248
	C9.749,7.258,9.673,7.043,9.757,6.863z"/>
<path fill="#FFFFFF" d="M8.827,24.91c-0.01,0.082-0.016,0.162-0.018,0.24c-0.289,0.086-0.541,0.334-0.535,0.711
	c0.016,0.898,0.393,1.498,0.988,1.754c0.444,1.07,1.483,1.35,2.639,0.752c0.691-0.359,1.313-0.836,1.941-1.293
	c0.217-0.158,0.916-0.771,1.391-0.949c0.068-0.006,0.135-0.021,0.197-0.047c0.03-0.002,0.057,0.004,0.082,0.01
	c0.09,0.043,0.192,0.064,0.303,0.063c0.109,0.004,0.211-0.02,0.303-0.063c0.025-0.004,0.053-0.012,0.082-0.01
	c0.063,0.023,0.129,0.041,0.197,0.047c0.475,0.178,1.174,0.791,1.391,0.949c0.627,0.459,1.248,0.934,1.939,1.293
	c1.154,0.598,2.193,0.318,2.639-0.752c0.598-0.256,0.977-0.855,0.988-1.754c0.008-0.377-0.246-0.625-0.533-0.711
	c-0.004-0.078-0.01-0.158-0.02-0.24c-0.101-0.855-1.449-0.863-1.351,0c0.084,0.705-0.021,0.896-0.752,0.744
	c-0.701-0.148-1.377-0.389-2.058-0.611c-0.86-0.283-1.957-0.703-2.83-0.326c-0.873-0.377-1.967,0.043-2.827,0.326
	c-0.681,0.223-1.354,0.463-2.058,0.611c-0.729,0.152-0.836-0.039-0.752-0.744C10.28,24.047,8.929,24.055,8.827,24.91z"/>
</svg>
