<?xml version="1.0" encoding="utf-8"?>
<!-- Generator: Adobe Illustrator 15.0.2, SVG Export Plug-In . SVG Version: 6.00 Build 0)  -->
<!DOCTYPE svg PUBLIC "-//W3C//DTD SVG 1.1//EN" "http://www.w3.org/Graphics/SVG/1.1/DTD/svg11.dtd">
<svg version="1.1" id="Layer_1" xmlns="http://www.w3.org/2000/svg" xmlns:xlink="http://www.w3.org/1999/xlink" x="0px" y="0px"
	 width="32px" height="32px" viewBox="0 0 32 32" enable-background="new 0 0 32 32" xml:space="preserve">
<g id="Foreground1">
</g>
<g>
	<circle fill="#FFFFFF" cx="16.124" cy="6.284" r="2.083"/>
	<path fill="#FFFFFF" d="M20.956,11.292c-0.193-2.286-2.844-2.253-2.844-2.253h-4.181c-2.99,0.057-2.888,2.253-2.888,2.253v5.126
		h0.004c0,0.013-0.004,0.025-0.004,0.037c0,0.485,0.396,0.881,0.882,0.881s0.878-0.396,0.878-0.881c0-0.012-0.001-0.024-0.001-0.037
		h0.001v-4.744h0.553L13.35,26.612c0,0.654,0.532,1.188,1.188,1.188c0.653,0,1.188-0.531,1.188-1.188l-0.001-9.639h0.53v9.646
		l0.011,0.008c0.008,0.646,0.53,1.17,1.181,1.17c0.651,0,1.184-0.528,1.184-1.182l-0.004-14.964h0.57v4.767h0.002
		c0,0.004,0,0.005,0,0.009c0,0.487,0.396,0.878,0.877,0.878c0.485,0,0.881-0.391,0.881-0.878c0-0.004,0-0.005,0-0.009l0,0V11.292
		L20.956,11.292z"/>
</g>
</svg>
