<?xml version="1.0" encoding="utf-8"?>
<!-- Generator: Adobe Illustrator 15.0.2, SVG Export Plug-In . SVG Version: 6.00 Build 0)  -->
<!DOCTYPE svg PUBLIC "-//W3C//DTD SVG 1.1//EN" "http://www.w3.org/Graphics/SVG/1.1/DTD/svg11.dtd">
<svg version="1.1" id="Layer_1" xmlns="http://www.w3.org/2000/svg" xmlns:xlink="http://www.w3.org/1999/xlink" x="0px" y="0px"
	 width="32px" height="32px" viewBox="0 0 32 32" enable-background="new 0 0 32 32" xml:space="preserve">
<circle fill="#FFFFFF" cx="15.999" cy="16" r="1.035"/>
<path fill="#FFFFFF" d="M15.999,2.667c-7.363,0-13.332,5.97-13.332,13.334c0,7.363,5.969,13.332,13.332,13.332
	s13.334-5.969,13.334-13.332C29.333,8.637,23.362,2.667,15.999,2.667z M6.583,11.113c-0.107,0-0.217-0.03-0.314-0.094
	c-0.271-0.175-0.348-0.536-0.172-0.806C7.62,7.862,9.915,6.077,12.56,5.187c0.306-0.104,0.637,0.061,0.738,0.365
	c0.104,0.306-0.063,0.636-0.365,0.738c-2.396,0.809-4.479,2.427-5.858,4.558C6.962,11.02,6.774,11.113,6.583,11.113z M8.396,12.666
	c-0.105,0-0.213-0.028-0.31-0.089c-0.272-0.171-0.354-0.529-0.187-0.803c1.355-2.171,3.447-3.775,5.888-4.516
	c0.305-0.094,0.633,0.08,0.728,0.388c0.094,0.308-0.082,0.633-0.39,0.727c-2.17,0.658-4.028,2.085-5.235,4.019
	C8.78,12.568,8.589,12.666,8.396,12.666z M10.899,13.338c-0.111,0.167-0.295,0.256-0.48,0.256c-0.113,0-0.227-0.031-0.326-0.099
	c-0.268-0.182-0.336-0.543-0.156-0.809c1.021-1.515,2.535-2.667,4.26-3.248c0.308-0.103,0.636,0.062,0.738,0.366
	c0.103,0.306-0.063,0.636-0.367,0.739C13.083,11.041,11.782,12.034,10.899,13.338z M12.116,16.001c0-2.145,1.738-3.884,3.883-3.884
	c2.146,0,3.883,1.737,3.883,3.884c0,2.145-1.736,3.883-3.883,3.883C13.854,19.884,12.116,18.146,12.116,16.001z M16.009,22.459
	c-0.059-0.315,0.15-0.621,0.467-0.681c1.844-0.348,3.515-1.438,4.582-2.991c0.185-0.265,0.545-0.332,0.812-0.149
	c0.266,0.185,0.332,0.545,0.149,0.813c-1.242,1.805-3.186,3.07-5.328,3.476c-0.037,0.009-0.073,0.011-0.108,0.011
	C16.308,22.935,16.062,22.739,16.009,22.459z M16.431,24.62c-0.061-0.314,0.146-0.62,0.465-0.682
	c2.355-0.447,4.437-1.771,5.851-3.727c0.188-0.26,0.553-0.318,0.813-0.131c0.26,0.188,0.316,0.553,0.129,0.813
	c-1.59,2.196-3.926,3.686-6.576,4.188c-0.036,0.008-0.071,0.011-0.108,0.011C16.729,25.095,16.483,24.899,16.431,24.62z
	 M25.612,21.923c-1.871,2.928-4.896,4.95-8.305,5.553c-0.033,0.004-0.066,0.008-0.103,0.008c-0.276,0-0.521-0.197-0.572-0.479
	c-0.057-0.315,0.156-0.619,0.474-0.675c3.086-0.545,5.826-2.379,7.521-5.032c0.174-0.271,0.535-0.35,0.806-0.177
	C25.706,21.291,25.784,21.651,25.612,21.923z"/>
</svg>
