<?xml version="1.0" encoding="utf-8"?>
<!-- Generator: Adobe Illustrator 15.0.2, SVG Export Plug-In . SVG Version: 6.00 Build 0)  -->
<!DOCTYPE svg PUBLIC "-//W3C//DTD SVG 1.1//EN" "http://www.w3.org/Graphics/SVG/1.1/DTD/svg11.dtd">
<svg version="1.1" id="Layer_1" xmlns="http://www.w3.org/2000/svg" xmlns:xlink="http://www.w3.org/1999/xlink" x="0px" y="0px"
	 width="32px" height="32px" viewBox="0 0 32 32" enable-background="new 0 0 32 32" xml:space="preserve">
<path id="path3478_1_" fill="#FFFFFF" d="M13.353,19.15c1.295-0.459,2.234-1.41,2.541-2.568c0.379,1.33,1.652,2.383,3.285,2.735
	c0.145,0.138,0.309,0.252,0.494,0.329c3.26,1.336,11.031,3.777,11.861-2.889c0.105-0.856-0.3-0.958-0.885-0.322
	c-0.873,0.951-2.241,1.998-3.652,1.341c-0.783-0.364-1.385-1.673-1.718-2.469c-0.577-1.378-1.63-3.344-3.183-4.15
	c-0.114-0.06-0.232-0.089-0.353-0.102c-0.428-0.181-0.888-0.284-1.364-0.284c-2.184,0-4.008,2.168-4.48,4.074
	c-0.412-1.906-2.012-4.074-4.191-4.074c-0.443,0-0.865,0.094-1.261,0.253c-0.118,0.007-0.235,0.028-0.353,0.076
	c-1.742,0.724-3.203,2.565-4.056,3.846c-0.479,0.72-1.389,1.771-2.221,1.999c-1.121,0.309-1.933-0.021-2.479-0.471
	c-0.668-0.548-0.979-0.532-0.869,0.324c0.86,6.688,8.914,4.18,12.246,2.837C12.972,19.535,13.183,19.359,13.353,19.15"/>
</svg>
