<?xml version="1.0" encoding="utf-8"?>
<!-- Generator: Adobe Illustrator 15.0.2, SVG Export Plug-In . SVG Version: 6.00 Build 0)  -->
<!DOCTYPE svg PUBLIC "-//W3C//DTD SVG 1.1//EN" "http://www.w3.org/Graphics/SVG/1.1/DTD/svg11.dtd">
<svg version="1.1" id="Layer_1" xmlns="http://www.w3.org/2000/svg" xmlns:xlink="http://www.w3.org/1999/xlink" x="0px" y="0px"
	 width="32px" height="32px" viewBox="0 0 32 32" enable-background="new 0 0 32 32" xml:space="preserve">
<polygon points="18.796,20.133 18.784,20.136 18.792,20.143 "/>
<path fill="#FFFFFF" d="M30.063,22.102c-0.226-1.054-0.693-1.789-1.229-2.754c-1.067-1.119-2.2-2.019-3.923-2.283
	c-0.838-0.131-1.371-0.043-1.695-0.586c-0.348-0.575-0.186-1.432,0-1.933c0.143-0.377,0.368-0.714,0.566-1.064
	c0.184-0.317,0.247-0.656,0.439-0.933c0.146-0.212,0.143-0.472,0.217-0.71c0.063-0.205,0.146-0.36,0.154-0.583
	c0.029-0.468-0.076-0.922-0.035-1.391C24.428,9.68,24.35,9.448,24.328,9.16c-0.204-0.146-0.313-0.417-0.416-0.584
	c-0.044-0.08-0.109-0.091-0.171-0.178c-0.981-1.306-2.506-2.244-4.22-2.813c-1.123-0.371-2.106-0.496-2.635-1.286
	c-0.424-0.631-0.396-1.352-0.699-2.166c-0.146,0.725-0.105,1.53,0.119,2.23c0.276,0.867,0.832,1.245,1.635,1.576
	c0.976,0.401,2.18,0.915,2.871,1.525c0.24,0.209,0.386,0.364,0.584,0.583c0.369,0.422,0.656,0.85,0.818,1.407
	c0.109,0.381,0.084,0.813-0.02,1.197c-0.039,0.147-0.074,0.305-0.137,0.444c-0.094,0.21-0.229,0.412-0.385,0.581
	c-0.135,0.15-0.213,0.315-0.342,0.471c-0.48,0.583-0.982,1.125-1.346,1.755c-0.146-0.259-0.117-0.496-0.176-0.821
	c-0.029-0.186-0.193-0.504-0.237-0.642c-0.132-0.441-0.228-0.779-0.403-1.114c-0.225-0.426-0.543-0.75-0.83-1.121
	c-0.299-0.39-0.554-0.77-0.904-1.117c-0.252-0.242-0.502-0.533-0.793-0.714c-0.568-0.357-1.11-0.768-1.678-1.13
	c-0.453-0.291-0.925-0.553-1.419-0.778c-0.581-0.265-1.122-0.596-1.694-0.88c-1.147-1.073-2.028-2.417-1.988-4.679
	c-0.29,0.749-0.217,2.441-0.061,3.157c0.104,0.479,0.279,0.958,0.471,1.351c0.308,0.64,0.859,1.279,1.391,1.747
	c0.521,0.453,1.034,1,1.616,1.388c0.476,0.319,0.92,0.68,1.418,0.965c0.379,0.219,0.752,0.455,1.073,0.752
	c0.201,0.183,0.291,0.391,0.389,0.634c0.162,0.378,0.383,0.727,0.488,1.125c0.035,0.107,0.111,0.48,0.121,0.585
	c0.08,0.696-0.099,1.491,0.119,2.222c-2.225-0.17-3.828-0.969-5.386-1.811c-0.457-0.445-0.812-0.925-1.11-1.582
	C9.51,9.529,9.34,6.813,7.758,5.76C7.48,5.573,7.256,5.449,6.881,5.354C5.171,4.917,2.93,5.369,1.785,6.173
	c0.732-0.01,1.521-0.25,2.344-0.177C5.079,6.08,5.93,6.493,6.646,6.701c0.697,0.68,1.095,1.487,1.347,2.517
	c0.303,1.224,0.426,2.338,0.761,3.34c0.326,0.955,0.807,1.854,1.405,2.633c0.378,0.492,0.885,0.868,1.29,1.23
	c0.691,0.613,1.35,1.026,2.05,1.462c0.405,0.252,0.871,0.484,1.228,0.877c-2.107,0.307-4.363,0.977-6.791,0.586
	c-0.271-0.291-0.59-0.521-0.756-0.879c-0.242-0.508-0.361-1.238-0.414-1.931c-0.099-1.318,0.221-3.26-0.114-4.275
	c-0.083-0.224-0.216-0.554-0.239-0.586c-0.044-0.059-0.059-0.044-0.177-0.176c-0.11-0.124-0.185-0.161-0.351-0.292
	c-0.492-0.392-1.117-0.804-1.933-0.878c0.237,0.277,0.551,0.449,0.763,0.704c0.225,0.265,0.463,0.624,0.58,0.935
	c0.395,0.97-0.182,2.387-0.347,3.688c-0.017,0.148-0.106,0.595-0.115,0.704c-0.104,1.104,0.019,2.106,0.115,3.104
	c0.235,0.455,0.325,0.945,0.585,1.347c0.299,0.461,0.771,0.709,1.113,1.11c0.662,0.199,1.336,0.621,2.168,0.703
	c1.67,0.168,3.479-0.271,5.033-0.351c0.512-0.026,1.211,0.361,1.629,0.604c0.375,0.22,0.731,0.498,0.982,0.861
	c0.128,0.186,0.203,0.387,0.271,0.602c0.039,0.112,0.063,0.205,0.08,0.322c0.02,0.137,0.097,0.254,0.104,0.389
	c0.012,0.11-0.016,0.229-0.016,0.343c0.011,0.299,0.021,0.629,0.107,0.92c0.146,0.272,0.221,0.574,0.354,0.879
	c0.169,0.391,0.402,0.807,0.582,1.054c0.313,0.433,0.607,0.854,0.88,1.229c0.604,0.293,1.043,0.825,1.639,1.112
	c0.226,0.104,0.538,0.15,0.818,0.231c0.278,0.08,0.604,0.205,0.878,0.23c0.813,0.094,1.837,0.016,2.344-0.111
	c1.436-0.359,2.496-1.068,3.281-1.813c0.471-0.449,0.902-0.933,1.229-1.468C29.877,26.241,30.521,24.225,30.063,22.102z
	 M23.391,19.055C23.215,19.27,23.193,18.876,23.391,19.055L23.391,19.055z M19.645,22.568c-0.023,0.109-0.077-0.039-0.063-0.118
	C19.604,22.339,19.656,22.486,19.645,22.568z M19.467,22.802c0.131,0.021,0.08,0.341-0.119,0.231
	C19.352,22.919,19.512,22.96,19.467,22.802z M19.176,24.264c0.106-0.134,0.049,0.342,0.114,0.297
	C19.166,24.771,19.154,24.386,19.176,24.264z M20.695,28.714C20.824,28.537,21.076,28.781,20.695,28.714L20.695,28.714z
	 M23.391,29.708c-0.01-0.123,0.209-0.024,0.291-0.06C23.694,29.777,23.475,29.68,23.391,29.708z M28.658,25.085
	c-0.354,0.517-0.23,1.188-0.702,1.519c0,0.063,0.071,0.047,0.117,0.063c-0.017,0.068-0.312,0.148-0.117,0.234
	c-0.088,0.029-0.214,0.078-0.118,0.293c-0.232-0.146-0.173,0.219-0.232,0.291c-0.025,0.026-0.078-0.101-0.057-0.115
	c-0.074,0.068-0.006,0.139-0.063,0.236c-0.021,0.037-0.184,0.056-0.234,0.112c-0.054,0.063-0.021,0.22-0.115,0.293
	c-0.123,0.097-0.185,0.183-0.176,0.179c-0.031,0.028-0.162,0.17-0.119,0.117c-0.043,0.055-0.236,0.237-0.23,0.232
	c-0.069,0.059-0.303,0.128-0.301,0.118c-0.006,0.012-0.049,0.168-0.055,0.175c-0.044,0.027-0.066-0.114-0.058-0.116
	c-0.127,0.056-0.237,0.255-0.295,0.293c-0.104,0.073-0.409,0.162-0.58,0.232c-0.095,0.036-0.694,0.147-0.882,0.293
	c-0.021,0.014,0.019,0.174,0,0.178c-0.092,0.021-0.021-0.162-0.059-0.178c-0.117-0.044-0.453,0.268-0.644,0.178
	c0.01-0.067,0.106-0.053,0.171-0.06c-0.364-0.211-0.721,0.095-1.105,0.06c-0.187-0.082,0.207-0.06,0.293-0.06
	c-0.482-0.055-0.728-0.356-1.232-0.235c-0.018-0.237,0.081,0.008,0.234-0.058c-0.049-0.069-0.076-0.16-0.059-0.293
	c-0.129,0.045-0.146,0.203-0.232,0.293c-0.246-0.217-0.266-0.317-0.586-0.352c-0.016-0.229,0.049-0.021,0.176-0.063
	c-0.063-0.127-0.229-0.127-0.29,0c-0.019-0.133-0.191-0.42-0.531-0.408c0.013-0.068,0.11-0.051,0.181-0.059
	c-0.13-0.054-0.103-0.25-0.298-0.234c-0.077,0.021-0.003,0.102,0.06,0.115c-0.133,0.108-0.198-0.168-0.114-0.351
	c-0.05,0.242-0.29-0.082-0.058-0.058c-0.108-0.092-0.182-0.212-0.414-0.18c0.004-0.111,0.131-0.334-0.053-0.407
	c-0.154,0.016,0.075,0.102,0,0.233c-0.226-0.188-0.339-0.527-0.302-1.113c-0.166,0.023-0.017,0.336-0.112,0.179
	c-0.039,0-0.078,0-0.119,0c0.203-0.091-0.078-0.399-0.058-0.59c0.067-0.162,0.022-0.603,0-0.99
	c-0.188,0.043,0.106,0.569-0.175,0.524c0.137-0.178,0.025-0.502,0-0.703c0.041-0.096,0.188-0.086,0.175-0.235
	c0.108,0.013-0.087-0.649-0.056-0.989c0.188-0.125,0.221,0.012,0.056-0.119c-0.188-0.069,0.158-0.069,0.235-0.062
	c-0.02-0.08-0.146-0.048-0.235-0.06c-0.188-0.067,0.158-0.065,0.235-0.057c-0.016-0.086-0.172-0.021-0.178-0.121
	c-0.011-0.244,0.092,0,0.178,0c-0.036-0.256,0.371-0.84,0.175-1.17c0.114-0.082,0.178-0.219,0.235-0.352
	c0.183,0.094-0.07,0.23-0.116,0.292c0,0.06,0.069,0.047,0.116,0.06c0.092-0.224,0.289-0.336,0.353-0.588
	c-0.177-0.021-0.119,0.191-0.177,0.291c-0.049,0.016-0.053-0.021-0.055-0.057c0.012-0.049-0.024-0.055-0.061-0.057
	c0.012-0.07,0.061-0.033,0.061,0c0.095-0.063,0.061-0.25,0.117-0.354c0.088,0.024,0.049,0.185,0.232,0.116
	c0.044-0.176-0.164-0.111-0.12-0.291c0.101-0.051,0.202-0.079,0.286-0.118c-0.133-0.019-0.008-0.196,0.007-0.231
	c0.144,0.01,0.024,0.184,0.003,0.229c0.135-0.063,0.211-0.162,0.115-0.463c0.074,0.146,0.236-0.029,0.176,0
	c0.096-0.047,0.208-0.067,0.18-0.35c0.092,0.057,0.131,0.156,0.06,0.233c0.181,0.026,0.218-0.159,0.058-0.175
	c0.059-0.185,0.154,0.063,0.233,0.055c0.008-0.125-0.05-0.186-0.177-0.174c0.006-0.027,0.166-0.088,0.353-0.176
	c-0.021,0.119-0.157,0.115-0.178,0.233c0.241-0.01,0.221-0.289,0.291-0.469c0.155,0.014,0.194,0.12,0.176-0.121
	c0.172,0.054,0.067,0.092,0.06,0.233c0.137-0.258,0.268-0.332,0.347-0.336c-0.011-0.061,0.129-0.129,0.125-0.188
	c0.032,0.088,0.2,0.049,0.231-0.06c0.066,0.05,0.221,0.013,0.176,0c-0.015-0.049,0.022-0.055,0.059-0.059
	c0.054,0.012,0.054-0.023,0.061-0.06c0.06,0.038,0.008,0.104,0.18-0.058c0.18,0.346,0.547-0.209,0.699-0.062
	c0.014-0.039,0.271-0.045,0.539-0.05c-0.09-0.012-0.158-0.045-0.127-0.125c0.159,0.089,0.245-0.069,0.406,0.058
	c-0.005,0.028-0.066,0.05-0.137,0.062c0.197-0.008,0.367-0.021,0.428-0.062c-0.328,0.123,0.408,0.14,0.413,0.06
	c0.176,0.151,0.257,0.205,0.408,0.119c0.147,0.015,0.257,0.118,0.405,0.174c-0.037,0.18-0.125-0.056-0.232,0
	c0.507,0.207,0.541,0.387,0.996,0.471c-0.104,0.234,0.181,0.504,0.471,0.41c0.016,0.094,0.143,0.438,0.348,0.35
	c0.025,0.102,0.037,0.43,0.354,0.531c0.021,0.094,0.702,1.771,0.704,2.689C28.781,24.195,28.563,24.645,28.658,25.085z"/>
<path d="M20.486,18.629c0.005,0.016,0.022,0.032,0.062,0.044C20.575,18.645,20.545,18.623,20.486,18.629z"/>
<path fill="#FFFFFF" d="M26.674,22.802c-0.238-0.364-0.764-0.756-1.234-0.764c-0.375,1.017-1.029,1.478-2.34,1.465
	c-0.123,0.687-0.281,1.229-0.119,1.813c0.093,0.338,0.55,0.808,0.803,1.016c0.223,0.189,0.552,0.332,0.852,0.374
	c0.291,0.037,0.768-0.058,1.039-0.183c0.344-0.146,0.631-0.451,0.836-0.752c0.485-0.709,0.631-1.621,0.395-2.444
	C26.865,23.193,26.729,22.896,26.674,22.802z"/>
</svg>
