<?xml version="1.0" encoding="utf-8"?>
<!-- Generator: Adobe Illustrator 15.0.2, SVG Export Plug-In . SVG Version: 6.00 Build 0)  -->
<!DOCTYPE svg PUBLIC "-//W3C//DTD SVG 1.1//EN" "http://www.w3.org/Graphics/SVG/1.1/DTD/svg11.dtd">
<svg version="1.1" id="Layer_1" xmlns="http://www.w3.org/2000/svg" xmlns:xlink="http://www.w3.org/1999/xlink" x="0px" y="0px"
	 width="32px" height="32px" viewBox="0 0 32 32" enable-background="new 0 0 32 32" xml:space="preserve">
<path fill="#FFFFFF" d="M11.505,9.023l3.902-7.784c0.371-0.741,0.967-0.738,1.328,0.008l3.805,7.832
	c0.361,0.747,1.32,1.452,2.141,1.576l8.605,1.306c0.818,0.125,0.998,0.691,0.402,1.267l-6.271,6.038
	c-0.598,0.574-0.973,1.705-0.836,2.521l1.418,8.592c0.135,0.818-0.352,1.166-1.082,0.775l-7.68-4.103
	c-0.732-0.393-1.922-0.397-2.658-0.018l-7.73,4.002c-0.736,0.383-1.215,0.028-1.07-0.787l1.525-8.569
	c0.146-0.814-0.215-1.949-0.805-2.533L0.304,13.03c-0.59-0.582-0.402-1.147,0.42-1.261l8.621-1.198
	C10.169,10.457,11.134,9.765,11.505,9.023z"/>
</svg>
