<?xml version="1.0" encoding="utf-8"?>
<!-- Generator: Adobe Illustrator 15.0.2, SVG Export Plug-In . SVG Version: 6.00 Build 0)  -->
<!DOCTYPE svg PUBLIC "-//W3C//DTD SVG 1.1//EN" "http://www.w3.org/Graphics/SVG/1.1/DTD/svg11.dtd">
<svg version="1.1" id="Layer_1" xmlns="http://www.w3.org/2000/svg" xmlns:xlink="http://www.w3.org/1999/xlink" x="0px" y="0px"
	 width="32px" height="32px" viewBox="0 0 32 32" enable-background="new 0 0 32 32" xml:space="preserve">
<path id="path3380_1_" fill="#FFFFFF" d="M5.978,13.495c0.19-0.125,0.364-0.18,0.519-0.179c-0.15,0.001-0.32,0.056-0.51,0.179
	c-0.283,0.187-0.561,0.269-0.828,0.279C5.424,13.762,5.701,13.676,5.978,13.495z M12.441,8.084c0.971-0.3,2.368-0.653,3.596-0.653
	c1.232,0,2.647,0.355,3.627,0.656c0.677,0.208,1.209,0.895,1.209,1.486c0,0.591-0.532,0.862-1.209,0.655
	c-0.979-0.301-2.395-0.655-3.627-0.655c-1.228,0-2.625,0.352-3.596,0.652c-0.673,0.209-1.205-0.061-1.205-0.652
	C11.236,8.982,11.77,8.292,12.441,8.084z M25.434,10.68c-0.021-0.706,0.157-1.308,0.422-1.769c0.012,0.014,0.026,0.026,0.039,0.039
	c-0.012,0.019-0.021,0.038-0.031,0.056C25.594,9.466,25.412,9.965,25.434,10.68c0.007,0.255,0.038,0.538,0.104,0.855
	C25.471,11.209,25.438,10.931,25.434,10.68L25.434,10.68z M4.787,16.887c0.117,0.084,0.229,0.15,0.336,0.211
	c0.33,0.186,0.621,0.258,0.877,0.254c-0.275,0.023-0.596-0.051-0.961-0.254c0.479,1.691,1.552,3.211,2.826,4.432v3.037
	c0,1.178,1.399,2.143,2.87,2.143c1.472,0,2.871-0.965,2.871-2.143v-0.375c0.638,0.236,2.074,0.371,3.188,0.371
	c1.115,0,1.914-0.135,3.188-0.371v0.371c0,1.18,1.083,2.143,2.556,2.143c1.47,0,2.549-0.963,2.549-2.666v-2.508
	c1.275-0.965,2.041-2.344,2.594-3.619h1.756c0.589,0,0.754-0.256,0.754-0.844v-4.282c0-0.589-0.165-1.253-0.754-1.253h-1.756
	c-0.402-0.617-0.975-1.771-1.686-2.563c0.576-0.872,1.414-1.434,1.66-2.025c0.264-0.64-1.965-0.848-3.752,0.246
	c-0.053-0.042-0.104-0.079-0.156-0.122h-0.002c0,0,0.002,0,0.002,0.001c-0.022,0-0.045,0.078-0.069,0.063
	c-0.011,0.008-0.022,0.072-0.033,0.08c0.011,0.007,0.022,0.04,0.033,0.047c-0.007,0.005-0.013,0.011-0.021,0.016
	c-0.004-0.003-0.011-0.005-0.015-0.008c-1.979-1.235-4.408-1.977-7.088-1.977c-6.021,0-10.958,3.697-11.665,8.466
	c-1.59-0.226-2.813-2.963-2.986-3.109C1.689,10.471,1.554,14.562,4.787,16.887"/>
</svg>
