<?xml version="1.0" encoding="utf-8"?>
<!-- Generator: Adobe Illustrator 15.0.2, SVG Export Plug-In . SVG Version: 6.00 Build 0)  -->
<!DOCTYPE svg PUBLIC "-//W3C//DTD SVG 1.1//EN" "http://www.w3.org/Graphics/SVG/1.1/DTD/svg11.dtd">
<svg version="1.1" id="Layer_1" xmlns="http://www.w3.org/2000/svg" xmlns:xlink="http://www.w3.org/1999/xlink" x="0px" y="0px"
	 width="32px" height="32px" viewBox="0 0 32 32" enable-background="new 0 0 32 32" xml:space="preserve">
<path fill="#FFFFFF" d="M15.999,1.833c-7.812,0-14.167,6.354-14.167,14.166c0,7.813,6.355,14.168,14.167,14.168
	c7.813,0,14.169-6.354,14.169-14.168C30.168,8.187,23.811,1.833,15.999,1.833z M13.275,6.905l0.662,0.188V6.222l0.258-0.243
	l0.275,0.536l0.524,0.635l-0.213,0.292l-0.849,0.195V7.121l-0.662,0.516l-0.19-0.293L13.275,6.905z M3.07,15.684
	c0.066-2.742,0.99-5.269,2.514-7.336c0.051,0.007,0.087,0.021,0.087,0.021c0,0.194-0.266,0.241,0,0.731
	c0.341,0.633,0.05,0.926,0.05,0.926s-0.83,0.585-0.978,0.684c-0.146,0.097-0.536,0.634-0.293,0.487
	c0.243-0.147,0.536-0.292,0.293,0.098c-0.244,0.391-0.683,1.023-0.78,1.269c-0.097,0.245-0.585,0.829-0.585,1.122
	s-0.194,0.878-0.146,1.123C3.266,14.978,3.156,15.479,3.07,15.684z M8.109,23.831l-0.196,0.73l0.196,0.584
	c0,0-0.295,0.246-0.487,0.246c-0.181,0-0.241,0.111-0.438,0.061c-1.858-1.738-3.209-4.01-3.795-6.576
	c0.063,0.018,0.152,0.063,0.279,0.174c0.186,0.16,0.293,0.242,0.537,0.342c0.243,0.102,0.341,0.242,0.634,0.391
	s0.196,0.051,0.585,0.488c0.393,0.438,0.344,0.438,0.439,0.684c0.097,0.243,0.244,0.486,0.342,0.635
	c0.1,0.146,0.391,0.244,0.536,0.344c0.146,0.096,0.39,0.193,0.536,0.193c0.146,0,0.586,0.438,0.83,0.484
	c0.244,0.053,0.244,0.539,0.244,0.539L8.109,23.831z M10.061,5.004C9.426,5.686,9.573,5.491,9.426,5.686
	C9.28,5.881,9.328,5.929,8.986,6.174C8.645,6.417,8.5,6.71,8.5,6.71L7.963,6.905L7.525,6.71c0,0-0.394,0.146-0.342-0.049
	C7.197,6.609,7.215,6.556,7.24,6.499c1.193-1.103,2.591-1.979,4.133-2.573c-0.15,0.195-0.336,0.394-0.336,0.394
	S10.693,4.319,10.061,5.004z M24.938,22.515c-0.051,0.193-0.146,0.535-0.195,0.73c-0.049,0.193-0.293,0.586-0.438,0.682
	c-0.146,0.1-0.393,0.393-0.537,0.441c-0.146,0.048-0.244-0.344-0.195-0.537c0.051-0.197,0.293-0.732,0.293-0.732
	s0.049-0.291,0.098-0.488c0.051-0.191,0.637-0.438,0.637-0.438l0.393-0.732c0,0,0.049,0.197,0.049,0.344
	C25.035,21.927,24.986,22.317,24.938,22.515z M25.084,17.929c-0.1,0.146-0.393,0.535-0.537,0.73c-0.146,0.193-0.34,0.486-0.633,0.73
	c-0.293,0.242-0.295,0.484-0.439,0.686c-0.146,0.193-0.342,0.633-0.342,0.633s0.098,0.977,0.146,1.172
	c0.05,0.195-0.342,0.729-0.342,0.729l-0.438,0.438l-0.588,0.781l0.047,0.729c0,0-0.442,0.342-0.688,0.536
	c-0.242,0.195-0.203,0.343-0.396,0.537c-0.191,0.193-0.711,0.535-0.906,0.584c-0.193,0.052-1.021,0.195-1.021,0.195v-0.438
	l-0.271-0.488c0,0-0.271-0.584-0.418-0.779c-0.146-0.194-0.146-0.488-0.389-0.73c-0.244-0.244-0.363-0.438-0.412-0.586
	c-0.053-0.146,0.035-0.584,0.035-0.584s0.188-0.537,0.285-0.73c0.1-0.195-0.004-0.488-0.104-0.684
	c-0.098-0.197-0.146-0.686-0.146-0.83c0-0.146-0.394-0.393-0.536-0.537c-0.146-0.146-0.101-0.342-0.101-0.535
	c0-0.195-0.146-0.635-0.099-0.978c0.049-0.341-0.438-0.099-0.729,0c-0.293,0.099-0.486-0.099-0.486-0.392
	c0-0.291-0.536-0.049-0.878,0.146c-0.345,0.193-0.732,0.193-1.125,0.342c-0.39,0.146-0.582-0.146-0.582-0.146
	s-0.345-0.293-0.587-0.438c-0.243-0.146-0.487-0.438-0.686-0.685c-0.193-0.244-0.683-0.977-0.729-1.268c-0.049-0.294,0-0.49,0-0.83
	c0-0.342,0-0.537,0.048-0.781c0.049-0.244,0.194-0.537,0.342-0.78c0.146-0.244,0.685-0.536,0.828-0.634
	c0.146-0.098,0.487-0.389,0.487-0.585c0-0.195,0.197-0.292,0.293-0.488c0.099-0.195,0.438-0.682,0.879-0.487
	c0,0,0.389-0.048,0.535-0.097c0.146-0.049,0.535-0.194,0.729-0.292c0.195-0.098,0.682-0.144,0.682-0.144s0.386,0.152,0.529,0.152
	c0.146,0,0.623-0.085,0.623-0.085s0.221,0.707,0.221,0.854c0,0.146,0.146,0.292,0.395,0.39c0.24,0.097,1.363,0.341,1.854-0.049
	c0.112-0.09,0.485,0.146,0.485,0.146s1.22,0.244,1.414,0.39c0.194,0.147,0.537,0.246,0.635,0.393
	c0.099,0.146,0.438,0.585,0.486,0.73c0.051,0.146,0.295,0.685,0.344,0.879c0.05,0.195,0.193,0.683,0.341,0.927
	c0.146,0.245,0.978,1.315,1.27,1.804l0.88-0.146C25.279,17.343,25.182,17.782,25.084,17.929z M28.645,16.077
	c-0.047-0.197-0.34-0.879-0.34-0.879s-0.295-0.391-0.488-0.488c-0.193-0.099-0.342-0.342-0.684-0.537
	c-0.342-0.195-0.486-0.293-0.779-0.293s-0.584-0.391-0.928-0.586c-0.342-0.193-0.391-0.096-0.391-0.096s0.391,0.584,0.391,0.73
	s0.438,0.39,0.879,0.292c0,0,0.293,0.536,0.438,0.683c0.146,0.146-0.05,0.293-0.341,0.488c-0.293,0.193-0.243,0.146-0.394,0.292
	c-0.146,0.146-0.633,0.392-0.778,0.487c-0.146,0.098-0.731,0.391-1.022,0.098c-0.144-0.141-0.101-0.438-0.194-0.635
	c-0.099-0.194-1.121-1.707-1.608-2.389c-0.087-0.119-0.294-0.49-0.438-0.584c-0.146-0.1,0.344-0.1,0.344-0.1s0-0.342-0.051-0.585
	c-0.049-0.244,0.051-0.585,0.051-0.585s-0.488,0.292-0.637,0.391c-0.146,0.098-0.293-0.194-0.484-0.439
	c-0.195-0.243-0.393-0.537-0.439-0.781c-0.049-0.243,0.244-0.341,0.244-0.341l0.438-0.243c0,0,0.537-0.097,0.881-0.049
	c0.34,0.049,0.877,0.098,0.877,0.098s0.146-0.342-0.051-0.487c-0.193-0.146-0.636-0.391-0.828-0.341
	c-0.192,0.048,0.098-0.244,0.34-0.439l-0.543-0.098c0,0-0.49,0.244-0.639,0.293c-0.146,0.048-0.398,0.146-0.598,0.39
	c-0.191,0.244,0.078,0.585-0.117,0.683c-0.191,0.099-0.324,0.146-0.473,0.194c-0.146,0.049-0.609,0-0.609,0
	c-0.504,0-0.182,0.46-0.051,0.623l-0.391-0.476l-0.291-0.684c0,0-0.416-0.292-0.608-0.389c-0.197-0.097-0.797-0.439-0.797-0.439
	l0.041,0.439l0.563,0.572l0.051,0.013l0.347,0.39l-0.599,0.049V9.934c-1-0.147-0.504-0.3-0.571-0.347
	c-0.146-0.097-0.511-0.342-0.511-0.342s-0.588,0.098-0.733,0.146c-0.146,0.048-0.19,0.195-0.483,0.292
	c-0.293,0.099-0.432,0.244-0.527,0.391c-0.096,0.146-0.416,0.585-0.608,0.779c-0.194,0.196-0.562,0.146-0.708,0.146
	s-0.854-0.195-0.854-0.195V9.978c0,0,0.098-0.464,0.049-0.609l0.429-0.072l0.713-0.147l0.21-0.146l0.301-0.391
	c0,0-0.336-0.243-0.095-0.585c0.117-0.163,0.538-0.194,0.733-0.341c0.193-0.146,0.488-0.244,0.488-0.244s0.342-0.292,0.684-0.634
	c0,0,0.245-0.146,0.536-0.245c0,0,0.829,0.732,0.977,0.732c0.148,0,0.685-0.341,0.685-0.341s0.146-0.438,0.101-0.585
	c-0.049-0.146-0.293-0.635-0.293-0.635s-0.146,0.244-0.291,0.439c-0.146,0.195-0.246,0.439-0.246,0.439s-0.687-0.048-0.729-0.193
	c-0.051-0.147-0.146-0.388-0.196-0.533c-0.048-0.146-0.438-0.142-0.729-0.044c-0.295,0.098,0.047-0.526,0.047-0.526
	s0.295-0.367,0.488-0.367s0.635-0.25,0.828-0.299c0.193-0.049,0.781-0.424,1.023-0.424c0.244,0,0.537-0.046,0.686-0.046
	c0.146,0,0.729,0,0.729,0l1.022,0.069c0,0,0.88,0.399,0.584,0.596c0,0,0.345,0.25,0.49,0.396C22.3,5.38,22.652,5.134,22.855,5.02
	c3.649,2.292,6.092,6.353,6.092,10.971c0,0.248-0.022,0.495-0.036,0.739C28.814,16.499,28.678,16.204,28.645,16.077z"/>
<polygon points="11.723,5.26 11.723,5.288 11.738,5.268 "/>
</svg>
