<?xml version="1.0" encoding="utf-8"?>
<!-- Generator: Adobe Illustrator 15.0.2, SVG Export Plug-In . SVG Version: 6.00 Build 0)  -->
<!DOCTYPE svg PUBLIC "-//W3C//DTD SVG 1.1//EN" "http://www.w3.org/Graphics/SVG/1.1/DTD/svg11.dtd">
<svg version="1.1" id="Layer_1" xmlns="http://www.w3.org/2000/svg" xmlns:xlink="http://www.w3.org/1999/xlink" x="0px" y="0px"
	 width="32px" height="32px" viewBox="0 0 32 32" enable-background="new 0 0 32 32" xml:space="preserve">
<path fill="#FFFFFF" d="M30.087,10.993c-0.762-2.992-3.807-4.801-6.801-4.04c-2.266,0.577-6.402,3.112-7.949,5.608
	c-0.063-0.021-0.127-0.039-0.19-0.059c-0.002-2.936-2.16-7.257-3.771-8.941c-2.137-2.232-5.678-2.313-7.91-0.177
	C1.234,5.519,1.155,9.06,3.288,11.292c1.508,1.577,5.297,3.73,8.18,4.112c0.011,0.291,0.062,0.572,0.146,0.837
	c-2.297,1.791-4.473,5.614-4.963,7.753c-0.691,3.012,1.188,6.012,4.199,6.704c3.012,0.69,6.014-1.188,6.703-4.199
	c0.492-2.14,0.203-6.528-1.084-9.146c0.137-0.14,0.256-0.291,0.363-0.453c2.637,1.246,7.071,1.438,9.211,0.893
	C29.04,17.033,30.847,13.986,30.087,10.993z M14.444,18.068c-1.498,0-2.719-1.219-2.719-2.718c0-1.5,1.221-2.718,2.719-2.718
	c1.5,0,2.721,1.219,2.721,2.718C17.165,16.85,15.944,18.068,14.444,18.068z"/>
<path fill="#FFFFFF" d="M14.444,14.249c-0.604,0-1.1,0.492-1.1,1.101c0,0.605,0.494,1.101,1.1,1.101
	c0.607,0,1.102-0.495,1.102-1.101C15.544,14.741,15.05,14.249,14.444,14.249z"/>
</svg>
