<?xml version="1.0" encoding="utf-8"?>
<!-- Generator: Adobe Illustrator 15.0.2, SVG Export Plug-In . SVG Version: 6.00 Build 0)  -->
<!DOCTYPE svg PUBLIC "-//W3C//DTD SVG 1.1//EN" "http://www.w3.org/Graphics/SVG/1.1/DTD/svg11.dtd">
<svg version="1.1" id="Layer_1" xmlns="http://www.w3.org/2000/svg" xmlns:xlink="http://www.w3.org/1999/xlink" x="0px" y="0px"
	 width="32px" height="32px" viewBox="0 0 32 32" enable-background="new 0 0 32 32" xml:space="preserve">
<path id="path3440_1_" fill="#FFFFFF" d="M7.554,24.836c0.379-0.631,0.719-1.297,0.946-1.398c0.226-0.102,0.726,0.32,1.114,0.943
	c0.906,1.457,1.818,2.939,2.724,4.395c0.388,0.625,1.212,0.816,1.843,0.439c1.241-0.744,2.496-1.469,3.738-2.213
	c0.631-0.377,0.904-1.223,0.297-1.633c-1.604-1.082-4.683-2.729-2.217-5.338c3.582-3.785,6.225-1.695,6.295,1.76
	c0.016,0.732-0.031,1.502,0.069,1.711c0.103,0.209,0.907,0.141,1.579-0.162c1.301-0.586,2.738-1.619,3.934-2.4
	c0.615-0.4,0.867-1.225,0.537-1.881c-0.77-1.529-1.561-3.117-2.33-4.647c-0.329-0.658-0.097-1.533,0.619-1.704
	c2.248-0.54,5.307,0.087,4.445-4.077c-0.879-4.278-5.299-3.79-6.555-1.132c-0.315,0.665-0.449,1.383-0.602,1.506
	s-0.832-0.032-1.32-0.581c-1.26-1.418-2.525-4.233-3.363-5.831c-1.672,0.936-3.297,1.933-4.953,2.892
	c-0.637,0.368-1.426,0.752-1.416,1.01c0.002,0.093,0.039,0.23,0.133,0.445c0.219,0.511,0.917,0.666,1.668,0.869
	c0.71,0.193,1.648,0.937,1.824,1.65c0.563,2.286-1.594,4.851-3.926,4.903c-3.529,0.075-2.483-2.648-2.873-4.61
	c-0.144-0.72-1.078-0.885-1.711-0.511c-1.351,0.799-2.715,1.625-4.063,2.422c-0.634,0.373-0.874,1.199-0.526,1.846
	c0.83,1.547,1.697,3.105,2.526,4.65c0.347,0.646,0.521,1.266,0.392,1.375s-0.826,0.248-1.558,0.313
	c-2.347,0.201-5.042,0.676-3.813,4.4C2.569,28.961,6.078,27.293,7.554,24.836"/>
</svg>
