<?xml version="1.0" encoding="utf-8"?>
<!-- Generator: Adobe Illustrator 15.0.2, SVG Export Plug-In . SVG Version: 6.00 Build 0)  -->
<!DOCTYPE svg PUBLIC "-//W3C//DTD SVG 1.1//EN" "http://www.w3.org/Graphics/SVG/1.1/DTD/svg11.dtd">
<svg version="1.1" id="Layer_1" xmlns="http://www.w3.org/2000/svg" xmlns:xlink="http://www.w3.org/1999/xlink" x="0px" y="0px"
	 width="32px" height="32px" viewBox="0 0 32 32" enable-background="new 0 0 32 32" xml:space="preserve">
<path fill="#FFFFFF" d="M28.849,12.044l-0.011-0.016c-0.24-0.328-0.487-0.667-0.747-1.046c-1.204-1.746-2.319-2.594-3.41-2.594
	c-0.05,0-0.101,0-0.149,0.004c-0.264-0.401-1.093-1.871-1.797-3.154c-0.777-1.188-1.504-1.819-2.229-1.929l-0.071-0.004
	c-0.259,0-0.481,0.184-0.664,0.553c-0.073,0.194-0.024,0.505,0.702,2.165c-0.537-0.896-1.145-1.776-1.898-2.059
	c-0.188-0.071-0.348-0.103-0.486-0.103c-0.293,0-0.441,0.145-0.518,0.267c-0.217,0.347-0.078,0.995,0.412,1.975
	c0.506,1.181,0.938,2.202,1.213,2.874c0.438,1.076,0.451,1.429,0.479,1.966v0.056c0.008,0.121,0.011,0.249,0.023,0.403
	c0.01,0.065-0.065,0.146-0.209,0.227c-0.127,0.069-0.25,0.108-0.344,0.108c-0.027,0-0.055-0.003-0.068-0.01
	c-0.789-0.35-1.389-0.627-1.791-0.826l-0.056-0.02c-1.481-0.343-2.853-0.517-4.073-0.517c-5.613,0-7.203,3.653-8.058,5.617
	l-0.063,0.148L5.02,16.177c-0.376,1.786-0.613,3.542-0.71,5.222c-0.171-0.166-0.36-0.364-0.532-0.541
	c-0.629-0.659-0.973-1.002-1.281-1.002c-0.543,0-0.817,0.47-0.817,1.396c0,0.927,1.063,2.731,2.438,3.674
	c0.291,0.207,0.642,0.205,1-0.007c0.127-0.078,0.203-0.105,0.239-0.115c0.652,0.604,1.201,1.074,1.634,1.393
	c0.166,0.223,0.342,0.443,0.521,0.658c0.274,0.35,0.509,0.563,0.716,0.662c0.637,0.274,1.579,0.481,2.883,0.635
	c0.649,0.08,1.612,0.236,2.387,0.358l0.119,0.019c0.391,0.063,0.621,0.102,0.76,0.121l0.004,0.045l0.063-0.002
	c0.109-0.006,0.225-0.017,0.313-0.063c0.383-0.099,0.662-0.321,0.837-0.669c0.321-0.648,0.132-1.059-0.084-1.293
	c-0.106-0.111-0.375-0.322-0.813-0.643c-0.174-0.127-0.396-0.228-0.598-0.313c3.335,0.368,5.867,0.768,6.252,0.982
	c0.434,1.005,1.328,1.604,2.672,1.781c0.633,0,1.069-0.244,1.295-0.729c0.223-0.438,0.036-0.928-0.555-1.467l-0.887-0.654
	c-0.299-0.211-0.488-0.424-0.606-0.686c-0.271-0.397-0.255-0.561-0.249-0.588c0.005-0.015,0.012-0.033,0.053-0.059
	c0.961-0.523,1.83-1.354,2.584-2.47c0.691-1.023,1.075-2.048,1.137-3.046c0.875-0.059,2.072-0.729,2.933-1.289
	c1.062-0.689,1.599-1.502,1.599-2.417C30.322,14.058,29.674,13.169,28.849,12.044z M25.091,12.472c-0.406,0-0.735-0.33-0.735-0.736
	c0-0.405,0.329-0.735,0.735-0.735c0.405,0,0.731,0.33,0.731,0.735C25.822,12.142,25.496,12.472,25.091,12.472z"/>
</svg>
