<?xml version="1.0" encoding="utf-8"?>
<!-- Generator: Adobe Illustrator 15.0.2, SVG Export Plug-In . SVG Version: 6.00 Build 0)  -->
<!DOCTYPE svg PUBLIC "-//W3C//DTD SVG 1.1//EN" "http://www.w3.org/Graphics/SVG/1.1/DTD/svg11.dtd">
<svg version="1.1" id="Layer_1" xmlns="http://www.w3.org/2000/svg" xmlns:xlink="http://www.w3.org/1999/xlink" x="0px" y="0px"
	 width="32px" height="32px" viewBox="0 0 32 32" enable-background="new 0 0 32 32" xml:space="preserve">
<g id="Foreground1">
</g>
<g>
	<path fill="#FFFFFF" d="M18.196,6.58c0,1.145-0.932,2.073-2.072,2.073c-1.146,0-2.076-0.929-2.076-2.073
		c0-1.146,0.933-2.076,2.076-2.076C17.267,4.504,18.196,5.434,18.196,6.58z"/>
	<path fill="#FFFFFF" d="M20.933,11.567c-0.191-2.272-3.674-2.243-3.674-2.243h-2.476c-2.979,0.055-3.717,2.243-3.717,2.243
		l-1.688,5.105h0.006c-0.002,0.012-0.006,0.025-0.006,0.036c0,0.481,0.396,0.878,0.877,0.878c0.485,0,0.879-0.396,0.879-0.878
		c0-0.011-0.002-0.024-0.004-0.036h0.004l1.686-4.725h0.547l-2.668,8.081h2.666l-0.002,6.789c0,0.656,0.525,1.186,1.184,1.186
		c0.65,0,1.183-0.527,1.183-1.186v-6.781h0.528v6.795l0.008,0.006c0.009,0.646,0.529,1.166,1.177,1.166
		c0.649,0,1.179-0.525,1.179-1.177l-0.005-6.79h2.677l-2.677-8.11h0.568l1.687,4.748h0.002c0,0,0,0.005,0,0.007
		c0,0.483,0.393,0.877,0.873,0.877c0.485,0,0.877-0.394,0.877-0.877c0-0.002,0-0.007,0-0.007l0,0L20.933,11.567z"/>
</g>
</svg>
