<?xml version="1.0" encoding="utf-8"?>
<!-- Generator: Adobe Illustrator 15.0.2, SVG Export Plug-In . SVG Version: 6.00 Build 0)  -->
<!DOCTYPE svg PUBLIC "-//W3C//DTD SVG 1.1//EN" "http://www.w3.org/Graphics/SVG/1.1/DTD/svg11.dtd">
<svg version="1.1" id="Layer_1" xmlns="http://www.w3.org/2000/svg" xmlns:xlink="http://www.w3.org/1999/xlink" x="0px" y="0px"
	 width="32px" height="32px" viewBox="0 0 32 32" enable-background="new 0 0 32 32" xml:space="preserve">
<path fill="#FFFFFF" d="M16,2.505C8.547,2.505,2.505,8.547,2.505,16S8.547,29.495,16,29.495S29.495,23.453,29.495,16
	S23.453,2.505,16,2.505z M16.218,5.879c2.168,0,4.184,0.626,5.864,1.698l-3.046,4.374C18.188,11.316,17.138,10.94,16,10.94
	c-1.013,0-1.954,0.297-2.745,0.807l-2.902-4.17C12.03,6.505,14.048,5.879,16.218,5.879z M9.755,24.436
	C7.394,22.466,5.88,19.42,5.88,16h5.061c0,1.652,0.797,3.127,2.026,4.049L9.755,24.436z M16,19.374
	c-1.862,0-3.374-1.513-3.374-3.374c0-1.862,1.512-3.374,3.374-3.374s3.374,1.512,3.374,3.374C19.374,17.861,17.862,19.374,16,19.374
	z M22.245,24.436l-3.211-4.387c1.229-0.922,2.025-2.396,2.025-4.049h5.063C26.122,19.42,24.606,22.466,22.245,24.436z"/>
</svg>
