<?xml version="1.0" encoding="utf-8"?>
<!-- Generator: Adobe Illustrator 15.0.2, SVG Export Plug-In . SVG Version: 6.00 Build 0)  -->
<!DOCTYPE svg PUBLIC "-//W3C//DTD SVG 1.1//EN" "http://www.w3.org/Graphics/SVG/1.1/DTD/svg11.dtd">
<svg version="1.1" id="Layer_1" xmlns="http://www.w3.org/2000/svg" xmlns:xlink="http://www.w3.org/1999/xlink" x="0px" y="0px"
	 width="32px" height="32px" viewBox="0 0 32 32" enable-background="new 0 0 32 32" xml:space="preserve">
<path fill="#FFFFFF" d="M29.01,16.529l-9.979,8.256c0,0-1.187,1.254-1.187-0.104c0-1.365,0-4.654,0-4.654s-0.801,0-2.026,0
	c-3.511,0-9.897,0-12.498,0c0,0-0.707,0.184-0.707-0.891c0-1.07,0-5.78,0-6.548c0-0.764,0.593-0.745,0.593-0.745
	c2.526,0,9.131,0,12.521,0c1.104,0,1.82,0,1.82,0s0-2.64,0-4.299c0-1.656,1.237-0.405,1.237-0.405s9.327,7.026,10.306,8.002
	C29.803,15.852,29.01,16.529,29.01,16.529z"/>
</svg>
