<?xml version="1.0" encoding="utf-8"?>
<!-- Generator: Adobe Illustrator 15.0.2, SVG Export Plug-In . SVG Version: 6.00 Build 0)  -->
<!DOCTYPE svg PUBLIC "-//W3C//DTD SVG 1.1//EN" "http://www.w3.org/Graphics/SVG/1.1/DTD/svg11.dtd">
<svg version="1.1" id="Layer_1" xmlns="http://www.w3.org/2000/svg" xmlns:xlink="http://www.w3.org/1999/xlink" x="0px" y="0px"
	 width="32px" height="32px" viewBox="0 0 32 32" enable-background="new 0 0 32 32" xml:space="preserve">
<path fill="#FFFFFF" d="M30.64,23.471L23.733,6.176c-0.088-0.209-0.23-0.392-0.432-0.546c-0.199-0.155-0.408-0.232-0.63-0.232
	h-5.615c0.144,0,0.271,0.052,0.382,0.157c0.109,0.105,0.172,0.229,0.183,0.373l0.25,3.181c0.011,0.154-0.034,0.281-0.134,0.38
	c-0.102,0.1-0.222,0.149-0.364,0.149h-2.749c-0.145,0-0.266-0.049-0.364-0.149c-0.101-0.099-0.146-0.226-0.132-0.38l0.249-3.181
	c0.011-0.144,0.071-0.267,0.183-0.373c0.107-0.105,0.234-0.157,0.379-0.157H9.323c-0.223,0-0.433,0.077-0.631,0.232
	C8.495,5.784,8.35,5.967,8.262,6.176L1.356,23.471c-0.289,0.684-0.433,1.323-0.433,1.92c0,0.809,0.254,1.211,0.763,1.211h11.661
	c-0.143,0-0.265-0.054-0.362-0.158c-0.101-0.104-0.146-0.229-0.135-0.373l0.332-4.238c0.012-0.146,0.072-0.27,0.184-0.373
	c0.108-0.104,0.236-0.158,0.381-0.158h4.506c0.145,0,0.27,0.055,0.381,0.158c0.109,0.104,0.171,0.229,0.184,0.373l0.33,4.238
	c0.012,0.145-0.033,0.27-0.133,0.373c-0.099,0.104-0.22,0.158-0.363,0.158h11.662c0.508,0,0.762-0.402,0.762-1.211
	C31.071,24.795,30.928,24.154,30.64,23.471z M18.498,17.656c0.012,0.133-0.033,0.242-0.134,0.33c-0.1,0.089-0.215,0.133-0.346,0.133
	h-4.044c-0.133,0-0.247-0.044-0.348-0.133c-0.101-0.088-0.146-0.197-0.132-0.33V17.59l0.396-5.299
	c0.01-0.144,0.07-0.268,0.182-0.373c0.109-0.104,0.236-0.157,0.382-0.157h3.079c0.145,0,0.271,0.052,0.382,0.157
	s0.171,0.229,0.184,0.373l0.396,5.299L18.498,17.656L18.498,17.656z"/>
</svg>
