<?xml version="1.0" encoding="utf-8"?>
<!-- Generator: Adobe Illustrator 15.0.2, SVG Export Plug-In . SVG Version: 6.00 Build 0)  -->
<!DOCTYPE svg PUBLIC "-//W3C//DTD SVG 1.1//EN" "http://www.w3.org/Graphics/SVG/1.1/DTD/svg11.dtd">
<svg version="1.1" id="Layer_1" xmlns="http://www.w3.org/2000/svg" xmlns:xlink="http://www.w3.org/1999/xlink" x="0px" y="0px"
	 width="32px" height="32px" viewBox="0 0 32 32" enable-background="new 0 0 32 32" xml:space="preserve">
<path fill="#FFFFFF" d="M25.941,11.811c0.004-0.022,0.012-0.044,0.012-0.066c0.061-0.37,0.102-0.732,0.127-1.086
	c0.203-2.723-0.51-4.91-2.186-5.966c-1.898-1.198-4.572-0.649-7.271,1.197c-1.756-1.359-3.545-2.232-5.133-2.232
	c-0.927,0-1.754,0.23-2.459,0.688C7.398,5.41,6.63,8.015,6.87,10.824c0,0.001,0,0.003,0,0.005c0.293-0.165,0.604-0.323,0.926-0.47
	c-0.11-2.247,0.5-4.403,1.752-5.217c0.548-0.358,1.201-0.537,1.943-0.537c1.327,0,2.827,0.743,4.323,1.874
	c-1.037,0.809-2.065,1.804-3.051,2.962c-1.858,0.26-3.55,0.737-4.969,1.391c-0.32,0.146-0.633,0.304-0.926,0.47
	c-2.266,1.27-3.645,3.026-3.645,4.995c0,2.069,1.522,3.901,3.998,5.188c-0.009,0.092-0.025,0.191-0.031,0.283
	c-0.195,2.709,0.518,4.887,2.188,5.938c1.854,1.172,4.447,0.678,7.082-1.068c1.398,0.795,2.787,1.238,4.049,1.238
	c0.928,0,1.756-0.232,2.461-0.691c1.519-0.986,2.273-2.908,2.187-5.434c-0.295,0.166-0.606,0.326-0.933,0.477
	c-0.018,1.959-0.627,3.422-1.771,4.164c-0.549,0.355-1.201,0.537-1.943,0.537c-0.992,0-2.086-0.314-3.199-0.895
	c0.955-0.725,1.902-1.609,2.814-2.635c0.135-0.152,0.27-0.309,0.4-0.465c1.361-0.281,2.607-0.678,3.697-1.18
	c0.324-0.15,0.637-0.313,0.934-0.479c2.248-1.27,3.619-3.021,3.619-4.979C28.775,14.578,27.719,13.026,25.941,11.811z M14.26,9.211
	c0.764-0.813,1.551-1.519,2.334-2.111c0.646,0.541,1.283,1.14,1.9,1.774C19,8.928,19.492,8.996,19.973,9.08
	c-0.818-0.93-1.684-1.797-2.565-2.557c2.266-1.479,4.444-1.928,5.95-0.981c1.289,0.814,1.863,2.518,1.775,4.679
	c-0.014,0.333-0.045,0.677-0.088,1.03c-1.398-0.771-3.129-1.357-5.072-1.698C19.494,9.469,19,9.401,18.496,9.347
	c-0.807-0.084-1.641-0.13-2.494-0.13c-0.621,0-1.225,0.028-1.818,0.074C14.227,9.244,14.26,9.211,14.26,9.211z M4.172,16.296
	c0-1.513,1.065-2.901,2.826-3.972c0.279-0.169,0.58-0.333,0.893-0.486c1.142-0.558,2.496-0.994,3.988-1.284
	c-0.059,0.079-0.115,0.151-0.174,0.228c-0.379,0.514-0.746,1.05-1.102,1.61c-0.658,1.046-1.224,2.095-1.691,3.133
	c-0.402-1.058-0.682-2.107-0.828-3.214c-0.316,0.155-0.613,0.318-0.895,0.489c0.225,1.391,0.594,2.71,1.174,4.041
	c-0.48,1.258-0.818,2.479-1.01,3.631C5.381,19.379,4.172,17.91,4.172,16.296z M18.584,23.633c-0.721,0.723-1.457,1.348-2.189,1.875
	c-0.748-0.477-1.494-1.057-2.225-1.729c-0.514-0.037-1.018-0.096-1.508-0.164c0.926,0.965,1.904,1.795,2.889,2.461
	c-2.15,1.316-4.199,1.686-5.635,0.779c-1.271-0.803-1.85-2.473-1.781-4.596l0.027-0.338c1.313,0.557,2.834,0.979,4.5,1.219
	c0.49,0.07,0.994,0.127,1.508,0.166c0.598,0.045,1.207,0.07,1.83,0.07c1.047,0,2.057-0.072,3.021-0.199
	C18.877,23.33,18.73,23.484,18.584,23.633z M21.473,21.729c0.412-0.547,0.813-1.121,1.195-1.729
	c0.377-0.596,0.717-1.193,1.031-1.793c0.24,0.857,0.406,1.703,0.479,2.514C23.377,21.117,22.467,21.459,21.473,21.729z
	 M23.818,15.697c-0.502-1.196-1.129-2.396-1.885-3.557c-0.318-0.491-0.301-0.486-0.646-0.941c-0.465-0.112-0.941-0.208-1.438-0.287
	c0.58,0.686,0.775,0.956,1.291,1.747c0.902,1.389,1.621,2.829,2.144,4.248c-0.41,0.861-0.882,1.73-1.422,2.588
	c-0.583,0.926-1.208,1.781-1.854,2.566c-1.256,0.232-2.598,0.369-4.006,0.369c-1,0-1.969-0.064-2.895-0.189
	c-0.502-0.063-1.463-0.246-1.463-0.246c-1.248-0.256-2.383-0.623-3.379-1.068c0.129-0.908,0.358-1.869,0.688-2.867
	c0.319,0.596,0.688,1.191,1.117,1.807c0.639,0.92,0.727,1.049,1.278,1.711c0.476,0.1,0.963,0.184,1.465,0.248
	c-0.797-0.861-1.17-1.225-1.95-2.475c-0.563-0.902-1.035-1.756-1.431-2.59c0.517-1.272,1.17-2.57,1.98-3.855
	c0.563-0.9,1.17-1.738,1.801-2.509c0.016-0.017,0.033-0.039,0.049-0.059c0.883-0.107,1.793-0.171,2.738-0.171
	c1.214,0,2.387,0.094,3.49,0.272c0.49,0.079,0.974,0.175,1.438,0.286c1.519,0.363,2.861,0.887,3.951,1.527
	C24.664,13.346,24.305,14.507,23.818,15.697z M25.074,20.225c-0.127-1.045-0.393-2.137-0.766-3.242
	c0.655-1.424,1.137-2.826,1.436-4.152c1.313,0.985,2.086,2.179,2.086,3.466C27.83,17.789,26.791,19.16,25.074,20.225z
	 M17.379,16.003c0,1.022-0.828,1.852-1.852,1.852s-1.852-0.828-1.852-1.852c0-1.021,0.827-1.852,1.852-1.852
	C16.551,14.152,17.379,14.981,17.379,16.003z"/>
</svg>
