<?xml version="1.0" encoding="utf-8"?>
<!-- Generator: Adobe Illustrator 15.0.2, SVG Export Plug-In . SVG Version: 6.00 Build 0)  -->
<!DOCTYPE svg PUBLIC "-//W3C//DTD SVG 1.1//EN" "http://www.w3.org/Graphics/SVG/1.1/DTD/svg11.dtd">
<svg version="1.1" id="Layer_1" xmlns="http://www.w3.org/2000/svg" xmlns:xlink="http://www.w3.org/1999/xlink" x="0px" y="0px"
	 width="32px" height="32px" viewBox="0 0 32 32" enable-background="new 0 0 32 32" xml:space="preserve">
<path fill="#FFFFFF" d="M3.854,24.742c-0.939,0.941-0.939,2.466,0,3.404c0.47,0.471,1.087,0.703,1.703,0.703
	c0.617,0,1.232-0.232,1.703-0.703l7.904-7.904l-3.406-3.403L3.854,24.742z"/>
<polygon fill="#FFFFFF" points="23.608,10.094 27.046,8.314 28.851,4.831 27.171,3.15 23.687,4.955 21.906,8.393 17.716,12.585 
	19.417,14.285 "/>
<path fill="#FFFFFF" d="M24.361,19.229l-0.325-0.031c-0.587,0-1.144,0.121-1.664,0.313L12.49,9.63
	c0.192-0.52,0.313-1.077,0.313-1.664l-0.032-0.325c-0.171-2.506-2.235-4.49-4.783-4.49c-0.741,0-1.437,0.18-2.063,0.481l3.199,3.199
	C9.292,7,9.407,7.198,9.484,7.408c0.21,0.569,0.097,1.233-0.36,1.693c-0.313,0.312-0.725,0.47-1.135,0.47
	c-0.189,0-0.377-0.042-0.557-0.109c-0.21-0.08-0.409-0.193-0.578-0.362L3.655,5.901c-0.3,0.627-0.48,1.323-0.48,2.064
	c0,2.548,1.984,4.612,4.49,4.781l0.324,0.033c0.587,0,1.145-0.121,1.664-0.312l9.881,9.881c-0.191,0.521-0.313,1.076-0.313,1.664
	l0.033,0.324c0.168,2.506,2.231,4.488,4.781,4.488c0.739,0,1.438-0.18,2.063-0.479l-3.199-3.199
	c-0.167-0.168-0.283-0.367-0.359-0.576c-0.211-0.568-0.1-1.234,0.359-1.693c0.313-0.313,0.727-0.469,1.137-0.469
	c0.188,0,0.377,0.039,0.557,0.107c0.209,0.08,0.41,0.193,0.578,0.361l3.199,3.197c0.301-0.629,0.479-1.32,0.479-2.063
	C28.851,21.464,26.865,19.4,24.361,19.229z"/>
</svg>
