<?xml version="1.0" encoding="utf-8"?>
<!-- Generator: Adobe Illustrator 15.0.2, SVG Export Plug-In . SVG Version: 6.00 Build 0)  -->
<!DOCTYPE svg PUBLIC "-//W3C//DTD SVG 1.1//EN" "http://www.w3.org/Graphics/SVG/1.1/DTD/svg11.dtd">
<svg version="1.1" id="Layer_1" xmlns="http://www.w3.org/2000/svg" xmlns:xlink="http://www.w3.org/1999/xlink" x="0px" y="0px"
	 width="32px" height="32px" viewBox="0 0 32 32" enable-background="new 0 0 32 32" xml:space="preserve">
<path fill="#FFFFFF" d="M26.686,23.125c-0.864,0-1.631,0.348-2.246,0.859l-5.432-3.877c0.344-0.709,0.553-1.487,0.553-2.326
	c0-1.151-0.375-2.217-0.994-3.086l6.354-6.356c0.529,0.31,1.11,0.536,1.77,0.536c1.969,0,3.563-1.593,3.563-3.563
	S28.656,1.75,26.688,1.75s-3.564,1.593-3.564,3.563c0,0.657,0.227,1.239,0.536,1.767l-6.353,6.356
	c-0.877-0.626-1.937-0.999-3.092-0.999c-2.037,0-3.792,1.159-4.691,2.842l-4.291-1.434c-0.174-0.801-0.853-1.41-1.705-1.41
	c-0.982,0.001-1.779,0.797-1.779,1.782c0,0.985,0.797,1.781,1.781,1.781c0.449,0,0.849-0.183,1.162-0.456l4.266,1.423
	c-0.042,0.269-0.083,0.536-0.083,0.813c0,2.949,2.394,5.345,5.345,5.345c1.467,0,2.801-0.597,3.768-1.556l5.396,3.852
	c-0.152,0.396-0.258,0.816-0.258,1.268c0,1.967,1.596,3.563,3.563,3.563c1.969,0,3.563-1.598,3.563-3.563
	C30.25,24.723,28.654,23.125,26.686,23.125z"/>
</svg>
