<?xml version="1.0" encoding="utf-8"?>
<!-- Generator: Adobe Illustrator 15.0.2, SVG Export Plug-In . SVG Version: 6.00 Build 0)  -->
<!DOCTYPE svg PUBLIC "-//W3C//DTD SVG 1.1//EN" "http://www.w3.org/Graphics/SVG/1.1/DTD/svg11.dtd">
<svg version="1.1" id="Layer_1" xmlns="http://www.w3.org/2000/svg" xmlns:xlink="http://www.w3.org/1999/xlink" x="0px" y="0px"
	 width="32px" height="32px" viewBox="0 0 32 32" enable-background="new 0 0 32 32" xml:space="preserve">
<path fill="#FFFFFF" d="M29.346,15.296c-0.134-2.512-0.944-4.845-2.278-6.805c-1.827-2.684-4.608-4.658-7.849-5.462
	c-1.035-0.257-2.108-0.409-3.22-0.409c-1.438,0-2.821,0.235-4.121,0.657c-3.14,1.02-5.765,3.172-7.407,5.971
	c-0.91,1.542-1.519,3.275-1.744,5.132C2.664,14.912,2.619,15.451,2.619,16c0,2.961,0.979,5.688,2.611,7.908
	c1.617,2.196,3.883,3.881,6.519,4.769c1.339,0.449,2.767,0.703,4.251,0.703c2.012,0,3.91-0.458,5.621-1.255
	c1.859-0.864,3.492-2.138,4.771-3.713c1.865-2.3,2.988-5.228,2.988-8.412C29.381,15.764,29.354,15.53,29.346,15.296z M26.628,15.296
	l-2.75,4.766l1.813,3.14c-1.221,1.637-2.84,2.956-4.717,3.81l-1.381-2.393h-5.5l-1.691,2.928c-2.627-0.82-4.872-2.517-6.393-4.744
	l2.109-3.654l-2.75-4.765H4.031c0.253-1.88,0.928-3.628,1.943-5.132h3.849l2.75-4.765l-0.034-0.063
	c1.098-0.33,2.258-0.511,3.46-0.511c0.875,0,1.728,0.099,2.55,0.276l-0.173,0.297l2.75,4.765h4.896
	c1.181,1.745,1.9,3.819,2.031,6.048L26.628,15.296L26.628,15.296z"/>
<polygon fill="#FFFFFF" points="13.249,11.075 10.498,15.839 13.249,20.603 18.749,20.603 21.501,15.839 18.749,11.075 "/>
</svg>
