<?xml version="1.0" encoding="utf-8"?>
<!-- Generator: Adobe Illustrator 15.0.2, SVG Export Plug-In . SVG Version: 6.00 Build 0)  -->
<!DOCTYPE svg PUBLIC "-//W3C//DTD SVG 1.1//EN" "http://www.w3.org/Graphics/SVG/1.1/DTD/svg11.dtd">
<svg version="1.1" id="Layer_1" xmlns="http://www.w3.org/2000/svg" xmlns:xlink="http://www.w3.org/1999/xlink" x="0px" y="0px"
	 width="32px" height="32px" viewBox="0 0 32 32" enable-background="new 0 0 32 32" xml:space="preserve">
<path fill="#FFFFFF" d="M27.027,6.317c-0.062-1.138-0.69-2.588-1.261-3.253s-1.635-1.295-2.373-1.41
	c-0.741-0.114-2.256-0.081-3.385,0.073l-4.01,0.547l-4.008-0.547c-1.13-0.154-2.646-0.187-3.386-0.073
	c-0.741,0.114-1.804,0.745-2.372,1.41S5.034,5.18,4.972,6.317C4.864,8.33,4.997,11.52,6.44,14.447c0,0,1.031,2.063,1.031,5.365
	c0,2.414,0.921,7.619,2.113,9.937c0.522,1.015,2.088,0.818,2.404-0.276c1.109-3.838,1.9-13.502,4.01-13.477
	c2.108-0.025,2.899,9.639,4.01,13.477c0.317,1.098,1.885,1.291,2.406,0.276c1.192-2.313,2.113-7.521,2.113-9.937
	c0-3.301,1.031-5.365,1.031-5.365C27.003,11.52,27.136,8.33,27.027,6.317z"/>
</svg>
