<?xml version="1.0" encoding="utf-8"?>
<!-- Generator: Adobe Illustrator 15.0.2, SVG Export Plug-In . SVG Version: 6.00 Build 0)  -->
<!DOCTYPE svg PUBLIC "-//W3C//DTD SVG 1.1//EN" "http://www.w3.org/Graphics/SVG/1.1/DTD/svg11.dtd">
<svg version="1.1" id="Layer_1" xmlns="http://www.w3.org/2000/svg" xmlns:xlink="http://www.w3.org/1999/xlink" x="0px" y="0px"
	 width="32px" height="32px" viewBox="0 0 32 32" enable-background="new 0 0 32 32" xml:space="preserve">
<path fill="#FFFFFF" d="M25.686,11.39c-0.541-0.392-0.932-1.006-0.861-1.608c0.24-2.126-1.063-3.942-3.168-4.273
	c-0.375-0.059-0.748-0.22-1.084-0.4c-0.637-0.341-1.299-0.466-1.982-0.275c-0.37,0.103-0.598,0.057-0.893-0.209
	c-1.676-1.519-4.305-0.977-5.125,1.084c-0.236,0.591-0.586,0.937-1.133,1.162c-0.121,0.05-0.256,0.108-0.342,0.2
	c-0.271,0.292-0.533,0.22-0.863,0.08c-2.135-0.909-4.434,0.586-4.521,2.9c-0.014,0.33-0.149,0.688-0.327,0.975
	c-0.634,1.02-0.746,2.044-0.32,3.106c-0.308,0.766-0.039,1.721,0.716,2.274c0.829,0.608,1.784,0.291,2.519-0.297
	c0.206-0.021,0.419-0.063,0.634-0.127c0.43-0.132,0.818-0.29,1.184-0.114c0.057,0.043,0.115,0.082,0.176,0.116
	c0.017,0.014,0.031,0.027,0.047,0.042c0.003-0.004,0.005-0.006,0.007-0.01c0.12,0.064,0.243,0.113,0.371,0.151
	c0.704,2.489,2.219,4.67,4.299,6.216c-0.127,1.523-0.533,3.016-1.289,4.479c-0.843,0.518-1.871,0.145-2.754-0.102
	c-0.781-0.217-1.541-0.297-2.32-0.047c-0.159,0.051-0.235,0.178-0.243,0.311c0,0.004-0.002,0.006-0.004,0.012
	c-0.06,0.254-0.119,0.508-0.179,0.763c-0.056,0.235,0.117,0.397,0.304,0.433c0.028,0.008,0.059,0.014,0.094,0.014h14.422
	c0.125,0,0.215-0.057,0.271-0.135c0.082-0.064,0.138-0.164,0.138-0.276v-0.527c0-0.155-0.105-0.29-0.25-0.334
	c-0.056-0.047-0.125-0.075-0.22-0.075h-4.356c-0.217-0.25-0.438-0.504-0.664-0.752c-0.633-0.697-0.912-1.47-0.629-2.406
	c0.1-0.325,0.172-0.662,0.213-1c0.121-1,0.234-2.004,0.35-3.023c1.463-0.141,2.787-0.764,3.813-1.82
	c0.427-0.002,0.81-0.127,1.127-0.342l0.13-0.04c0.694,0.562,1.768,0.619,2.575,0.319c0.75-0.276,1.398-1.027,1.422-1.852
	c0.003-0.077-0.002-0.154-0.01-0.23C27.537,14.24,27.004,12.343,25.686,11.39z M12.967,15.921c0.008-0.004,0.016-0.006,0.023-0.009
	c0.149-0.057,0.414,0.008,0.549,0.113c0.192,0.147,0.373,0.313,0.551,0.478c0.004,0.014,0.004,0.026,0.008,0.042
	c0.271,0.904,0.543,1.809,0.813,2.712c0.063,0.457,0.104,0.909,0.129,1.36C13.639,19.465,12.873,17.756,12.967,15.921z
	 M18.221,18.535c0.063-0.151,0.125-0.303,0.191-0.453c0.021,0,0.043,0,0.065,0c0-0.053,0.002-0.105,0.004-0.158
	c0.181-0.404,0.377-0.801,0.599-1.18c0.283,0.248,0.576,0.473,0.891,0.654C19.445,17.861,18.857,18.242,18.221,18.535z"/>
</svg>
