<?xml version="1.0" encoding="utf-8"?>
<!-- Generator: Adobe Illustrator 15.0.2, SVG Export Plug-In . SVG Version: 6.00 Build 0)  -->
<!DOCTYPE svg PUBLIC "-//W3C//DTD SVG 1.1//EN" "http://www.w3.org/Graphics/SVG/1.1/DTD/svg11.dtd">
<svg version="1.1" id="Layer_1" xmlns="http://www.w3.org/2000/svg" xmlns:xlink="http://www.w3.org/1999/xlink" x="0px" y="0px"
	 width="32px" height="32px" viewBox="0 0 32 32" enable-background="new 0 0 32 32" xml:space="preserve">
<path id="path3546_1_" fill="#FFFFFF" d="M20.653,6.499c-0.559-0.199-0.91-0.775-0.76-1.348c0.182-0.688,0.303-1.424-0.195-1.746
	c-1.055-0.68-1.6,0.285-1.869,1.241c-0.162,0.569-0.688,1.001-1.28,0.978C9.688,5.352,4.51,9.024,2.59,14.021
	c-0.211,0.553,0.039,0.716,0.539,0.402c0.467-0.294,0.979-0.54,1.625-0.69c2.643-0.613,5.262,1.125,6.022,3.184
	c0.205,0.557,0.225,1.047,0.234,1.047s0.373-0.322,0.816-0.713c0.645-0.563,1.293-1.039,2.33-1.251
	c0.58-0.118,0.955,0.351,0.819,0.927c-0.553,2.355-1.106,4.709-1.657,7.064c-0.304,1.188-0.158,2.594-1.447,2.818
	c-1.187,0.209-2.033-0.494-2.221-1.34c-0.229-1.047,0.146-2.861-1.375-2.395c-0.604,0.186-0.849,1.313-0.705,2.221
	c0.225,1.398,0.625,2.355,1.623,2.961c1.521,0.924,4.03,0.703,5.004-0.529c0.711-0.898,0.733-2.184,1.094-3.488
	c0.561-2.297,1.121-4.594,1.684-6.891c0.143-0.575,0.734-0.937,1.229-0.611c0.783,0.512,1.52,1.379,1.897,2.271
	c0.229,0.545,0.392,0.9,0.547,0.734c0.154-0.166,0.623-0.592,1.089-0.895c0.274-0.178,0.569-0.34,0.885-0.463
	c2.151-0.852,4.76,0.146,5.746,1.375c0.176,0.217,0.319,0.457,0.463,0.701c0.236,0.398,0.453,0.727,0.453,0.742
	c0,0.02,0.168-0.422,0.194-1.014c0.07-1.537-0.389-3.84-0.618-4.592C27.638,11.575,24.651,7.919,20.653,6.499"/>
</svg>
