<?xml version="1.0" encoding="utf-8"?>
<!-- Generator: Adobe Illustrator 15.0.2, SVG Export Plug-In . SVG Version: 6.00 Build 0)  -->
<!DOCTYPE svg PUBLIC "-//W3C//DTD SVG 1.1//EN" "http://www.w3.org/Graphics/SVG/1.1/DTD/svg11.dtd">
<svg version="1.1" id="Layer_1" xmlns="http://www.w3.org/2000/svg" xmlns:xlink="http://www.w3.org/1999/xlink" x="0px" y="0px"
	 width="32px" height="32px" viewBox="0 0 32 32" enable-background="new 0 0 32 32" xml:space="preserve">
<g id="Foreground1">
</g>
<g>
	<g>
		<g>
			<g>
				<path fill="#FFFFFF" d="M23.37,16.138c1.686,0,3.059,1.374,3.059,3.059s-1.373,3.057-3.059,3.057
					c-1.688,0-3.057-1.371-3.057-3.057S21.683,16.138,23.37,16.138 M23.37,14.947c-2.348,0-4.25,1.901-4.25,4.25
					c0,2.348,1.902,4.25,4.25,4.25c2.35,0,4.25-1.902,4.25-4.25C27.62,16.848,25.72,14.947,23.37,14.947L23.37,14.947z"/>
			</g>
		</g>
	</g>
	<g>
		<g>
			<g>
				<path fill="#FFFFFF" d="M8.628,16.138c1.686,0,3.059,1.374,3.059,3.059s-1.373,3.057-3.059,3.057
					c-1.688,0-3.057-1.371-3.057-3.057S6.94,16.138,8.628,16.138 M8.628,14.947c-2.348,0-4.248,1.901-4.248,4.25
					c0,2.348,1.9,4.25,4.248,4.25c2.35,0,4.25-1.902,4.25-4.25C12.878,16.848,10.976,14.947,8.628,14.947L8.628,14.947z"/>
			</g>
		</g>
	</g>
	<g>
		<g>
			<g>
				<g>
					<path fill="#FFFFFF" d="M17.327,19.846H8.628v-1.299h6.004l-3.209-3.208l0.689-0.689H5.091l1.734-2.213h10.148l3.18-1.836
						l2.318,2.437L17.327,19.846z"/>
				</g>
			</g>
		</g>
	</g>
	<g>
		<g>
			<g>
				<polygon fill="#FFFFFF" points="22.978,19.254 22.099,13.238 17.481,9.123 15.673,9.664 15.444,8.903 17.679,8.236 
					22.847,12.836 23.765,19.139 				"/>
			</g>
		</g>
	</g>
	<g>
		<g>
			<g>
				<path fill="#FFFFFF" d="M22.347,13.351c-0.422,0.06-0.867-0.628-0.996-1.534c-0.131-0.907,0.105-1.693,0.523-1.752
					c0.42-0.062,0.863,0.626,0.994,1.532C23.001,12.507,22.765,13.291,22.347,13.351z"/>
			</g>
		</g>
	</g>
</g>
</svg>
