<?xml version="1.0" encoding="utf-8"?>
<!-- Generator: Adobe Illustrator 15.0.2, SVG Export Plug-In . SVG Version: 6.00 Build 0)  -->
<!DOCTYPE svg PUBLIC "-//W3C//DTD SVG 1.1//EN" "http://www.w3.org/Graphics/SVG/1.1/DTD/svg11.dtd">
<svg version="1.1" id="Layer_1" xmlns="http://www.w3.org/2000/svg" xmlns:xlink="http://www.w3.org/1999/xlink" x="0px" y="0px"
	 width="32px" height="32px" viewBox="0 0 32 32" enable-background="new 0 0 32 32" xml:space="preserve">
<path fill="#FFFFFF" d="M15.999,16.886c-0.813,0-1.478,0.663-1.478,1.477c0,0.814,0.664,1.479,1.478,1.479
	c0.814,0,1.479-0.66,1.479-1.479C17.479,17.549,16.813,16.886,15.999,16.886z"/>
<path fill="#FFFFFF" d="M19.587,19.033c1.707-1.984,4.297-3.007,7.688-3.054c-0.022-1.132-0.213-2.224-0.545-3.25
	c-3.653,2.444-7.25,3.271-10.433,3.271c-5.618,0-9.944-2.563-11.03-3.27c-0.319,0.986-0.5,2.035-0.535,3.12
	c3.513,0.002,6.179,1.03,7.927,3.063c2.76,3.207,2.307,7.783,2.213,8.518c0.371,0.035,0.748,0.057,1.127,0.057
	c0.459,0,0.914-0.03,1.358-0.084C17.243,26.347,16.97,22.075,19.587,19.033z M26.001,14.246l0.188,0.435l-3.571,1.535l-0.188-0.434
	L26.001,14.246z M9.63,16.216l-3.57-1.535l0.188-0.435l3.568,1.536L9.63,16.216z M14.05,18.362c0-1.075,0.875-1.949,1.949-1.949
	c1.076,0,1.951,0.874,1.951,1.949c0,1.076-0.875,1.949-1.951,1.949S14.05,19.438,14.05,18.362z"/>
<path fill="#FFFFFF" d="M15.999,2.333c-7.535,0-13.666,6.131-13.666,13.666c0,7.537,6.131,13.668,13.666,13.668
	s13.668-6.132,13.668-13.668C29.667,8.464,23.536,2.333,15.999,2.333z M15.999,27.96c-6.48,0-11.754-5.271-11.754-11.753
	c0-6.481,5.272-11.755,11.754-11.755c6.479,0,11.754,5.272,11.754,11.754C27.753,22.688,22.479,27.96,15.999,27.96z"/>
</svg>
