<?xml version="1.0" encoding="utf-8"?>
<!-- Generator: Adobe Illustrator 15.0.2, SVG Export Plug-In . SVG Version: 6.00 Build 0)  -->
<!DOCTYPE svg PUBLIC "-//W3C//DTD SVG 1.1//EN" "http://www.w3.org/Graphics/SVG/1.1/DTD/svg11.dtd">
<svg version="1.1" id="Layer_1" xmlns="http://www.w3.org/2000/svg" xmlns:xlink="http://www.w3.org/1999/xlink" x="0px" y="0px"
	 width="32px" height="32px" viewBox="0 0 32 32" enable-background="new 0 0 32 32" xml:space="preserve">
<path fill="#FFFFFF" d="M29.801,17.088c-0.81-0.614-1.964-0.461-2.583,0.352c-0.059,0.082-0.105,0.17-0.154,0.254l-4.521-0.768
	c0.043-0.313,0.069-0.63,0.069-0.954c0-1.314-0.365-2.542-0.992-3.598l2.885-1.865c0.184,0.124,0.406,0.192,0.646,0.169
	c0.549-0.05,0.951-0.531,0.903-1.083c-0.05-0.549-0.536-0.951-1.084-0.902c-0.549,0.049-0.95,0.535-0.901,1.084
	c0.004,0.056,0.02,0.104,0.028,0.158l-2.864,1.849c-0.572-0.772-1.291-1.424-2.125-1.909l2.059-3.25
	c0.219,0.035,0.451,0.002,0.658-0.117c0.476-0.277,0.641-0.885,0.36-1.36c-0.274-0.479-0.885-0.644-1.358-0.366
	c-0.479,0.275-0.643,0.885-0.364,1.363c0.024,0.047,0.056,0.088,0.092,0.13l-2.073,3.272c-0.701-0.32-1.459-0.536-2.26-0.611
	l0.42-2.485c0.162-0.039,0.313-0.12,0.418-0.259c0.242-0.323,0.184-0.781-0.139-1.025c-0.322-0.246-0.782-0.184-1.027,0.138
	c-0.244,0.319-0.182,0.78,0.139,1.024c0.03,0.021,0.066,0.028,0.101,0.049L15.702,8.91c-0.055-0.002-0.104-0.008-0.159-0.008
	c-0.916,0-1.791,0.179-2.593,0.499l-1.983-3.645c0.19-0.243,0.312-0.549,0.305-0.885C11.26,4.097,10.626,3.478,9.85,3.494
	C9.077,3.507,8.461,4.141,8.473,4.915c0.013,0.771,0.646,1.387,1.421,1.376c0.077-0.002,0.149-0.016,0.225-0.026l1.938,3.561
	c-0.97,0.548-1.796,1.321-2.41,2.246L6.749,9.799C6.809,9.586,6.798,9.353,6.7,9.134c-0.226-0.501-0.813-0.726-1.315-0.5
	C4.88,8.86,4.655,9.451,4.882,9.953c0.229,0.501,0.816,0.725,1.318,0.499c0.049-0.023,0.095-0.054,0.14-0.082l2.942,2.315
	c-0.435,0.832-0.711,1.759-0.785,2.748l-4.344-0.008c-0.123-0.286-0.334-0.537-0.629-0.691c-0.686-0.361-1.535-0.101-1.892,0.585
	c-0.36,0.684-0.097,1.531,0.584,1.89c0.685,0.361,1.532,0.1,1.894-0.587c0.035-0.065,0.06-0.136,0.084-0.207l4.299,0.01
	c0.037,0.562,0.131,1.107,0.289,1.627l-2.777,1.069c-0.154-0.157-0.362-0.27-0.6-0.296c-0.547-0.063-1.041,0.329-1.104,0.874
	c-0.063,0.547,0.329,1.047,0.876,1.105c0.546,0.063,1.04-0.332,1.103-0.879c0.004-0.054,0.004-0.104,0.002-0.16L9.02,18.71
	c0.543,1.286,1.458,2.382,2.606,3.144l-1.342,1.388c-0.207-0.079-0.44-0.095-0.666-0.021c-0.526,0.174-0.809,0.737-0.637,1.258
	c0.172,0.523,0.736,0.812,1.26,0.642c0.522-0.177,0.806-0.738,0.637-1.265c-0.02-0.053-0.04-0.098-0.064-0.146l1.438-1.48
	c0.685,0.358,1.437,0.607,2.229,0.727l-0.383,3.587c-0.217,0.05-0.42,0.17-0.568,0.354c-0.336,0.438-0.259,1.06,0.179,1.399
	c0.438,0.338,1.063,0.259,1.401-0.179c0.336-0.438,0.256-1.063-0.181-1.399c-0.042-0.028-0.088-0.057-0.132-0.084l0.384-3.608
	c0.121,0.008,0.239,0.018,0.362,0.018c0.919,0,1.794-0.18,2.601-0.498l0.714,3.178c-0.178,0.129-0.318,0.314-0.383,0.545
	c-0.143,0.533,0.172,1.08,0.705,1.225c0.531,0.139,1.079-0.172,1.223-0.706c0.143-0.534-0.176-1.078-0.707-1.224
	c-0.053-0.014-0.104-0.02-0.158-0.023l-0.737-3.29c0.515-0.269,0.985-0.595,1.418-0.979l0.979,1.379
	c-0.088,0.14-0.135,0.301-0.111,0.478c0.055,0.396,0.424,0.681,0.824,0.628c0.401-0.056,0.683-0.425,0.629-0.824
	c-0.055-0.402-0.426-0.683-0.826-0.628c-0.037,0.005-0.064,0.024-0.102,0.035l-1.012-1.423c0.744-0.758,1.313-1.684,1.655-2.717
	l4.649,0.789c0.099,0.4,0.316,0.771,0.668,1.037c0.812,0.615,1.967,0.461,2.584-0.352C30.769,18.859,30.61,17.704,29.801,17.088z
	 M13.344,15.644c-0.581,0-1.056-0.474-1.056-1.06c0-0.583,0.475-1.055,1.056-1.055c0.584,0,1.06,0.471,1.06,1.055
	C14.401,15.169,13.929,15.644,13.344,15.644z M16.069,17.941c-0.429,0-0.774-0.349-0.774-0.774c0-0.431,0.347-0.776,0.774-0.776
	c0.43,0,0.776,0.345,0.776,0.776C16.845,17.596,16.499,17.941,16.069,17.941z M18.95,14.655c-0.631,0-1.145-0.513-1.145-1.143
	c0-0.635,0.514-1.147,1.145-1.147c0.633,0,1.146,0.513,1.146,1.147C20.096,14.142,19.583,14.655,18.95,14.655z"/>
</svg>
