<?xml version="1.0" encoding="utf-8"?>
<!-- Generator: Adobe Illustrator 15.0.2, SVG Export Plug-In . SVG Version: 6.00 Build 0)  -->
<!DOCTYPE svg PUBLIC "-//W3C//DTD SVG 1.1//EN" "http://www.w3.org/Graphics/SVG/1.1/DTD/svg11.dtd">
<svg version="1.1" id="Layer_1" xmlns="http://www.w3.org/2000/svg" xmlns:xlink="http://www.w3.org/1999/xlink" x="0px" y="0px"
	 width="32px" height="32px" viewBox="0 0 32 32" enable-background="new 0 0 32 32" xml:space="preserve">
<g id="Background1">
	<path fill="#FFFFFF" d="M3.307,11.449c0.094,0.141,0.853,1.069,1.34,1.374c0.086-0.074,0.183-0.141,0.287-0.189
		c0.058-0.027,0.11-0.052,0.166-0.072c-0.565-1.174-1.382-2.734-1.762-3.235C3.16,9.091,2.563,8.939,2.915,8.564
		C3.339,8.115,3.613,8.7,3.691,8.997c0.031,0.125,0.926,1.812,1.693,3.046c0.03-0.373,0.008-0.708-0.074-0.802
		c-0.107-0.126-0.149-0.415,0.064-0.455c0.281-0.052,0.325,0.151,0.242,0.38c-0.061,0.164,0.152,0.893,0.365,1.303
		c0.086,0.01,0.17,0.021,0.25,0.039c0.344,0.07,0.59,0.139,0.685-0.047c0.147-0.292,0.249-0.811,0.349-2.516
		C7.367,8.24,7.547,7.549,7.447,7.427C7.348,7.305,7.225,6.78,7.723,6.81C8.07,6.831,7.879,7.267,7.844,7.56
		S7.839,8.738,7.837,9.837c-0.001,1.098-0.132,3.072,0.216,3.445c0.35,0.372,1.458,1.175,2.063,1.647
		c0.507,0.4,0.997,0.914,1.474,1.074c0.395-0.296,0.727-0.415,0.992-0.417c1.02-0.515,2.109-1.266,3.766-1.773
		c1.911-0.59,3.836-0.537,6.159,0.566c2.322,1.104,3.095,3.438,3.115,4.791c0.014,0.854-0.233,1.771-0.958,2.876
		c0.975,0.517,2.045,1.036,2.832,1.062c0.931,0.025,1.471-0.256,1.665-0.018c0.177,0.219-0.336,0.862-1.474,1.541
		c-1.813,1.083-3.857,0.271-5.358,0.207c-0.229,0.061-0.497,0.079-0.772,0.057c-0.16,0.035-0.441,0.063-0.44,0.008
		c-0.636,0.113-2.115,0.078-2.603-0.342c-0.447,0.188-0.938,0.297-1.443,0.344c-0.549,0.138-1.158,0.054-1.68-0.051
		c-0.313-0.047-0.625-0.104-0.934-0.182c-0.628-0.055-2.352-0.408-3.221-0.736s-1.396-0.76-1.243-1.354
		c0.296-1.163-0.589-1.512-0.847-1.898c-0.258-0.393-0.369-0.938-0.664-1.34c-0.293-0.396-0.586-0.98-1.088-1.46
		c-0.5-0.479-1.639-1.288-2.021-2.028c-0.306-0.587-0.752-0.355-1.231-1.179c-0.175-0.297-0.135-0.891,0.131-1.384
		c-0.385-0.621-0.924-1.564-1.092-1.552c-0.164,0.012-0.424-0.124-0.326-0.323C2.982,11.162,3.172,11.247,3.307,11.449z"/>
</g>
<g id="Foreground1">
</g>
</svg>
