<?xml version="1.0" encoding="utf-8"?>
<!-- Generator: Adobe Illustrator 15.0.2, SVG Export Plug-In . SVG Version: 6.00 Build 0)  -->
<!DOCTYPE svg PUBLIC "-//W3C//DTD SVG 1.1//EN" "http://www.w3.org/Graphics/SVG/1.1/DTD/svg11.dtd">
<svg version="1.1" id="Layer_1" xmlns="http://www.w3.org/2000/svg" xmlns:xlink="http://www.w3.org/1999/xlink" x="0px" y="0px"
	 width="32px" height="32px" viewBox="0 0 32 32" enable-background="new 0 0 32 32" xml:space="preserve">
<g id="Background1">
	<path fill="#FFFFFF" d="M30.322,7.453c-0.035-0.188-0.375-0.409-0.869-0.602c-0.216-0.084-0.634-0.212-1.041-0.277
		c-0.438-0.069-0.863-0.077-1.054-0.075c-0.17,0.002-0.719,0.03-1.26,0.185c-0.775,0.219-1.229,0.497-1.394,0.587
		c-0.127,0.07-0.646,0.385-1.151,0.771c-0.703,0.536-1.429,1.182-1.478,1.231c-0.037,0.037-0.279,0.254-0.554,0.506
		c-0.358,0.332-1.181,1.134-1.392,1.341c-0.211,0.209-1.09,1.133-1.281,1.301c-0.188,0.168-0.947,0.946-1.086,1.08
		c-0.137,0.134-1.004,0.987-1.004,0.987s0.004-0.158-0.09-0.235c-0.092-0.076-0.135-0.022-0.205-0.017
		c-0.07,0.007-0.125-0.006-0.125-0.006l0.002-0.017c0,0,0.041-0.044,0.088-0.067c0.048-0.023,0.154-0.036,0.229-0.043
		c0.073-0.007,0.211-0.007,0.268-0.03c0.058-0.022,0.125-0.065,0.162-0.091c0.037-0.022,0.131-0.056,0.139-0.087
		c0.007-0.029,0.004-0.069-0.025-0.089c-0.031-0.021-0.005-0.038,0.053-0.027c0.059,0.011,0.117,0.013,0.095-0.03
		s-0.027-0.047,0.012-0.053c0.099-0.009,0.149-0.018,0.108-0.058c-0.039-0.04,0.007-0.042,0.05-0.046
		c0.084-0.008,0.11,0,0.078-0.041c-0.033-0.041-0.04-0.055,0.004-0.052c0.045,0.003,0.126-0.022,0.108-0.042
		c-0.017-0.02-0.059-0.059-0.015-0.064c0.042-0.006,0.136-0.017,0.088-0.055c-0.046-0.042-0.086-0.088-0.032-0.07
		s0.117,0.019,0.133-0.001c0.019-0.021-0.002-0.058-0.057-0.08c-0.055-0.023-0.134-0.062-0.197-0.099
		c-0.063-0.038-0.271-0.146-0.271-0.146s-0.011-0.045,0.055-0.007c0.064,0.037,0.332,0.146,0.396,0.167
		c0.063,0.02,0.17,0.033,0.194,0.02c0.027-0.014-0.004-0.04-0.049-0.057c-0.049-0.017-0.09-0.037-0.113-0.053
		c-0.021-0.018-0.076-0.034-0.127-0.062c-0.051-0.025-0.238-0.096-0.224-0.136c0.017-0.04,0.284,0.107,0.343,0.127
		c0.057,0.021,0.121,0.041,0.16,0.047c0.035,0.006,0.09,0.012,0.103-0.011c0.016-0.023-0.089-0.064-0.134-0.08
		c-0.043-0.018-0.157-0.074-0.209-0.097c-0.049-0.023-0.16-0.059-0.142-0.095c0.021-0.037,0.304,0.094,0.351,0.11
		s0.104,0.043,0.15,0.04c0.051-0.003,0.094-0.014,0.044-0.047c-0.051-0.034-0.356-0.149-0.405-0.172
		c-0.104-0.05,0.026-0.055,0.069-0.04c0.044,0.013,0.296,0.121,0.338,0.124c0.044,0.003,0.103-0.001,0.099-0.024
		c-0.004-0.022-0.065-0.051-0.112-0.069c-0.049-0.021-0.229-0.086-0.261-0.105c-0.029-0.02-0.021-0.059,0.043-0.041
		c0.063,0.016,0.262,0.078,0.298,0.088c0.036,0.01,0.075,0.007,0.077-0.014c0.006-0.02-0.064-0.043-0.102-0.061
		c-0.037-0.017-0.078-0.025-0.107-0.043c-0.027-0.017-0.104-0.037-0.09-0.07c0.014-0.032,0.133,0.027,0.181,0.047
		c0.049,0.02,0.101,0.039,0.131,0.037c0.063-0.004,0.01-0.023-0.039-0.037c-0.051-0.014-0.164-0.066-0.176-0.08
		c-0.011-0.014-0.032-0.07,0.022-0.055c0.058,0.018,0.096,0.041,0.131,0.058c0.037,0.017,0.08,0.033,0.088,0.022
		c0.007-0.01-0.068-0.047-0.102-0.066c-0.058-0.034-0.07-0.104,0.025-0.063c0.099,0.039,0.183,0.08,0.183,0.063
		s-0.098-0.061-0.125-0.073c-0.024-0.013-0.03-0.06,0.035-0.036c0.063,0.023,0.119,0.03,0.119,0.03s-0.065-0.044-0.093-0.05
		c-0.021-0.008-0.016-0.057,0.033-0.047c0.045,0.011,0.112,0.021,0.112,0.021s-0.087-0.044-0.056-0.06
		c0.089-0.045,0.078,0,0.107-0.057c0.01-0.021,0.008-0.045-0.026-0.021c-0.033,0.023-0.074,0.027-0.103,0.05
		c-0.025,0.022-0.07,0.034-0.07,0.034s0.021-0.105,0.029-0.145c0.006-0.041-0.041,0.104-0.056,0.138
		c-0.015,0.032-0.019,0.019-0.019,0.019s-0.01-0.109-0.006-0.13c-0.002,0.017-0.022,0.132-0.029,0.146
		c-0.008,0.018-0.03,0.024-0.03,0.024s-0.017-0.108-0.021-0.127c-0.004-0.021,0,0.103,0,0.123s-0.047,0.021-0.047,0.021
		s0.002-0.006,0.006-0.041c0.004-0.032-0.004-0.185-0.004-0.146c0,0.038-0.029,0.153-0.023,0.187
		c0.003,0.035-0.021,0.031-0.021,0.012s-0.015-0.197-0.015-0.197s-0.017,0.006-0.015,0.047c0.006,0.04,0,0.194,0,0.194
		c-0.024,0.013-0.043,0.013-0.043,0.013l-0.006-0.251c0,0-0.011,0.142-0.02,0.222c-0.002,0.034,0.005,0.047-0.002,0.051
		c-0.025,0.009-0.038-0.065-0.043-0.114c-0.008-0.065-0.021-0.161-0.021-0.161s-0.008,0.055-0.006,0.141
		c0.002,0.049,0.014,0.143,0.014,0.157c0,0.019-0.023,0.04-0.025,0.011c-0.004-0.033-0.041-0.326-0.041-0.326l0.018,0.352
		c0,0-0.022,0.04-0.049-0.053c-0.02-0.083-0.05-0.234-0.05-0.234s0.008,0.157,0.019,0.24c0.008,0.059,0.021,0.076,0.018,0.086
		c-0.016,0.027-0.029,0.016-0.044-0.042c-0.015-0.056-0.063-0.291-0.063-0.291s0.014,0.128,0.027,0.228
		c0.012,0.073,0.029,0.123,0.021,0.137c-0.021,0.031-0.021,0.031-0.021,0.031s-0.055-0.146-0.064-0.209
		c-0.012-0.062-0.01-0.184-0.01-0.184s-0.027,0.079,0.01,0.291c0.008,0.038,0.035,0.109,0.024,0.126
		c-0.013,0.017-0.028,0.002-0.046-0.063c-0.018-0.063-0.059-0.172-0.061-0.231s0.006-0.142-0.021-0.129
		c-0.028,0.015-0.054,0.097-0.044,0.162c0.008,0.063,0.064,0.284,0.068,0.323c0.002,0.039-0.029,0.084-0.053,0.031
		c-0.021-0.05-0.06-0.187-0.07-0.24c-0.01-0.053-0.027-0.131-0.025-0.164c0.007-0.064-0.018-0.088-0.025-0.057
		c-0.013,0.033-0.031,0.151-0.013,0.242c0.021,0.09,0.043,0.186,0.058,0.23c0.015,0.045,0.025,0.082,0,0.102
		c-0.043,0.031-0.045-0.021-0.071-0.1c-0.025-0.077-0.058-0.229-0.065-0.301c-0.013-0.072-0.007-0.137-0.021-0.144
		c-0.012-0.005-0.06,0.017-0.086,0.071c-0.014,0.031-0.004,0.209,0.014,0.296c0.016,0.085,0.044,0.168,0.049,0.208
		c0.005,0.041,0.005,0.041,0.005,0.041s0.013,0.045-0.011,0.061c-0.023,0.017-0.055-0.079-0.075-0.144
		c-0.022-0.064-0.062-0.193-0.071-0.249c-0.013-0.059-0.02-0.129-0.013-0.147c0.009-0.019,0.015-0.067-0.007-0.051
		s-0.063,0.058-0.07,0.094c-0.021,0.082-0.035,0.177-0.006,0.315c0.006,0.039,0.042,0.271,0.042,0.271s-0.067-0.19-0.084-0.248
		c-0.019-0.056-0.045-0.141-0.048-0.189c-0.002-0.048-0.018-0.156-0.018-0.156s-0.045,0.097-0.049,0.166
		c-0.002,0.069,0,0.137,0.01,0.185c0.01,0.049,0.031,0.134,0.039,0.168c0.009,0.036,0.025,0.071,0.031,0.107
		c0.002,0.035-0.01,0.083-0.039,0.017c-0.031-0.066-0.09-0.232-0.105-0.311c-0.018-0.077-0.043-0.176-0.037-0.201
		c0.006-0.022-0.038,0.044-0.038,0.118c0,0.076,0.022,0.204,0.034,0.248c0.012,0.042,0.058,0.178,0.074,0.227
		c0.021,0.049,0.041,0.1,0.021,0.112c-0.021,0.014-0.064-0.047-0.104-0.146c-0.035-0.101-0.096-0.278-0.104-0.354
		c-0.008-0.075-0.021-0.139-0.021-0.139s-0.039,0.102-0.036,0.183c0.005,0.08,0.043,0.246,0.065,0.299
		c0.024,0.055,0.063,0.167,0.08,0.199c0.018,0.031,0.032,0.066,0.014,0.082c-0.019,0.017-0.068-0.062-0.094-0.117
		c-0.021-0.056-0.099-0.248-0.125-0.313s-0.047-0.164-0.047-0.191c0-0.025-0.004-0.069-0.018-0.036
		c-0.016,0.033-0.021,0.063-0.061,0.146c-0.021,0.046-0.045,0.051-0.053,0.096c-0.008,0.045,0.012,0.166,0.023,0.22
		c0.015,0.053,0.05,0.157,0.07,0.206c0.021,0.048,0.041,0.083,0.02,0.091c-0.023,0.008-0.094-0.169-0.113-0.225
		c-0.021-0.057-0.063-0.121-0.07-0.167c-0.009-0.044-0.021-0.085-0.021-0.085s-0.021,0.112-0.021,0.138
		c0,0.029,0.045,0.188,0.053,0.221c0.01,0.032,0.054,0.106,0.033,0.122c-0.021,0.013-0.086-0.104-0.103-0.135
		c-0.019-0.03-0.053-0.088-0.06-0.124c-0.01-0.033-0.021-0.073-0.021-0.073s-0.019,0.146-0.016,0.174
		c0.003,0.026,0.058,0.187,0.058,0.187l-0.113-0.208c0,0-0.023,0.138,0.01,0.245c0.046,0.142-0.043-0.065-0.063-0.101
		c-0.021-0.034-0.037-0.011-0.037,0.035c0,0.042,0.009,0.108,0.009,0.108s-0.024-0.021-0.024,0.027c0,0.046-0.009,0.08-0.009,0.08
		s-0.022-0.067-0.03-0.102c-0.007-0.032-0.069,0.058-0.069,0.058s-0.021-0.133-0.015-0.188c0.007-0.054,0.011-0.063,0.011-0.063
		L15.859,13.3l-0.004-0.218l-0.073,0.083l-0.026-0.212c0,0-0.004,0.034-0.03,0.099c-0.027,0.063-0.074,0.144-0.095,0.199
		c-0.021,0.058-0.15,0.286-0.15,0.286l-0.043-0.031c0,0,0.104-0.143,0.152-0.305c0.052-0.16,0.064-0.16,0.067-0.224
		s-0.003-0.1-0.014-0.074c-0.009,0.027-0.009,0.128-0.069,0.269c-0.061,0.142-0.117,0.271-0.141,0.292
		c-0.023,0.02-0.033-0.019-0.003-0.088s0.153-0.371,0.18-0.455c0.026-0.085,0.024-0.15,0.007-0.137
		c-0.018,0.015-0.011,0.084-0.037,0.161c-0.026,0.076-0.17,0.428-0.178,0.451c-0.006,0.024-0.058,0.011-0.043-0.023
		c0.014-0.032,0.146-0.271,0.167-0.432c0.021-0.162,0.003-0.188,0.003-0.188s-0.01,0.207-0.066,0.342
		c-0.058,0.134-0.113,0.258-0.131,0.269c-0.017,0.009-0.054-0.015-0.01-0.095c0.045-0.08,0.121-0.385,0.135-0.448
		s0.018-0.184-0.008-0.194c-0.023-0.011,0,0.08-0.017,0.146c-0.019,0.067-0.037,0.185-0.113,0.335
		c-0.077,0.15-0.094,0.205-0.094,0.205l-0.048-0.057c0,0,0.076-0.205,0.091-0.332c0.014-0.128,0.021-0.142,0.021-0.157
		c0-0.018,0.061-0.208,0.061-0.221c0-0.016-0.049,0.103-0.049,0.103s-0.004-0.128-0.024-0.136c-0.021-0.012-0.028-0.004-0.032,0.057
		c-0.004,0.062,0.004,0.197-0.027,0.257c-0.028,0.062-0.079,0.142-0.1,0.192c-0.021,0.049-0.051,0.125-0.051,0.125l-0.061-0.05
		c0,0,0.063-0.102,0.097-0.271c0.034-0.171,0.062-0.302,0.047-0.364c-0.015-0.063-0.034-0.104-0.034-0.104s-0.023,0.248-0.066,0.384
		c-0.043,0.139-0.102,0.321-0.102,0.321l-0.052-0.042c0,0,0.063-0.202,0.09-0.322c0.026-0.121,0.04-0.233,0.017-0.329
		c-0.021-0.093-0.039-0.113-0.039-0.113s0.018,0.131-0.037,0.346c-0.053,0.213-0.103,0.354-0.103,0.354s-0.042-0.006-0.04-0.037
		c0.004-0.028,0.078-0.276,0.082-0.381c0.002-0.104,0.002-0.25-0.031-0.308c-0.023-0.043-0.027-0.054-0.027-0.056
		c0,0.004,0.016,0.168-0.023,0.375c-0.041,0.213-0.07,0.325-0.07,0.325l-0.045-0.034c0,0,0.035-0.181,0.049-0.304
		c0.013-0.124,0.02-0.218-0.004-0.321c-0.022-0.104-0.058-0.086-0.058-0.086s0.022,0.123-0.018,0.385
		c-0.04,0.26-0.052,0.291-0.052,0.291l-0.045-0.037c0,0,0.035-0.23,0.045-0.321c0.008-0.09,0.008-0.235-0.016-0.291
		c-0.023-0.058-0.066-0.06-0.066-0.06s0.018,0.192-0.018,0.377c-0.02,0.188-0.023,0.233-0.023,0.233l-0.057-0.036
		c0,0,0.031-0.19,0.027-0.317c-0.004-0.126-0.018-0.205-0.034-0.238c-0.019-0.034-0.062-0.062-0.062-0.062s0.008,0.383,0.004,0.453
		c-0.004,0.07-0.012,0.135-0.012,0.135l-0.062-0.044c0,0,0.026-0.298,0.006-0.401s-0.081-0.171-0.081-0.171s0.008,0.272,0.008,0.433
		c0,0.068-0.008,0.105-0.008,0.105s-0.04-0.023-0.054-0.03c-0.009-0.003-0.005-0.183-0.003-0.166
		c0.005,0.017,0.003-0.12-0.002-0.151c-0.008-0.078-0.039-0.168-0.035-0.149c0.003,0.017,0.016,0.149,0.021,0.271
		c0.002,0.121-0.009,0.185-0.009,0.185s-0.032-0.007-0.03-0.021c0.004-0.014-0.01-0.396-0.01-0.38c0,0.016-0.013,0.371-0.013,0.371
		s-0.052-0.015-0.048-0.026c0.004-0.013-0.006-0.322-0.006-0.287c0,0.037-0.002-0.027-0.004-0.035
		c-0.01-0.045-0.029-0.063-0.029-0.051c0,0.012,0.021,0.067,0.021,0.146c0,0.08,0.004,0.157,0.004,0.182c0,0.022,0,0.029,0,0.029
		l-0.027-0.018c0,0-0.01-0.163-0.014-0.223c-0.002-0.062-0.022-0.141-0.022-0.117c0,0.022,0.006,0.166,0.006,0.203
		c0,0.039,0,0.104-0.002,0.117c-0.004,0.014-0.008-0.014-0.031-0.029c-0.022-0.017-0.028-0.004-0.026-0.03
		c0.004-0.027,0.007-0.201-0.002-0.228c-0.012-0.027-0.021-0.029-0.021-0.029s0.006,0.093,0.002,0.143
		c-0.002,0.05-0.002,0.12-0.002,0.12l-0.019-0.002c0,0-0.008-0.245-0.021-0.277c-0.013-0.032-0.021-0.05-0.021-0.026
		c0,0.022,0.021,0.174,0.021,0.207c0,0.035,0,0.09,0,0.09s-0.046,0.007-0.046-0.026c0-0.008,0-0.024,0.001-0.046
		c0.002-0.075,0.005-0.206-0.004-0.218c-0.017-0.017-0.021-0.007-0.021,0.021c0,0.025,0.017,0.19,0.006,0.217
		c-0.01,0.027-0.014,0.021-0.014,0.021s-0.022,0.002-0.022-0.027s-0.011-0.214-0.021-0.227c-0.009-0.016-0.003,0.21-0.003,0.21
		s-0.024-0.006-0.03-0.022c-0.006-0.018-0.017-0.142-0.02-0.158c-0.003-0.016-0.006,0.146-0.006,0.146l-0.018-0.029l-0.031-0.138
		c0,0,0.021,0.147,0.008,0.14c-0.014-0.004-0.039-0.004-0.039-0.02c0-0.012-0.02-0.145-0.021-0.125c-0.002,0.016,0,0.093,0,0.093
		l-0.017,0.007l-0.019-0.111v0.117l-0.086-0.039l-0.228-0.15c0,0,0.128,0.105,0.158,0.121c0.028,0.013,0.044,0.046,0.044,0.046
		l-0.027,0.026l0.055,0.014l-0.08,0.061c0,0,0.127-0.02,0.156-0.02c0.03,0,0.043,0.029,0.043,0.029s-0.002,0.027-0.027,0.027
		c-0.027,0-0.139,0.029-0.139,0.029s0.174-0.014,0.217-0.014s0.076,0,0.027,0.021c-0.05,0.021-0.08,0.046-0.101,0.056
		c-0.021,0.012-0.088,0.031-0.04,0.035c0.046,0.002,0.126-0.051,0.169-0.058c0.044-0.006,0.058-0.011,0.078,0
		c0.019,0.011,0.019,0.022,0.019,0.022l-0.195,0.098c0,0,0.168-0.061,0.193-0.063c0.022-0.004,0.037,0.01,0.016,0.016
		c-0.02,0.008-0.213,0.104-0.213,0.104s0.217-0.083,0.25-0.086c0.035-0.004,0.064-0.01,0.055,0.006
		c-0.012,0.018-0.012,0.023-0.034,0.033c-0.022,0.012-0.101,0.074-0.19,0.091c-0.09,0.018-0.105,0.024-0.086,0.024
		c0.021,0,0.043,0.014,0.127-0.019c0.082-0.028,0.146-0.065,0.185-0.085c0.039-0.021,0.079-0.045,0.057-0.018
		c-0.022,0.025-0.196,0.124-0.255,0.13c-0.059,0.006-0.072,0.017-0.061,0.017c0.015,0,0.117,0,0.222-0.056
		c0.104-0.058,0.114-0.071,0.144-0.067c0.027,0.004,0.037,0,0.019,0.027c-0.021,0.026-0.117,0.084-0.197,0.13
		c-0.081,0.046-0.128,0.074-0.128,0.074s0.036,0.014,0.094,0.01c0.057-0.004,0.104-0.038,0.168-0.066
		c0.063-0.03,0.149-0.134,0.196-0.115c0.047,0.02,0.021,0.047-0.037,0.084c-0.024,0.017-0.086,0.059-0.146,0.093
		c-0.066,0.04-0.133,0.074-0.133,0.074s0.033-0.013,0.084-0.03c0.049-0.017,0.137-0.077,0.228-0.137
		c0.09-0.06,0.112-0.042,0.078,0.006c-0.021,0.028-0.347,0.215-0.347,0.215s0.102-0.031,0.153-0.061
		c0.056-0.029,0.171-0.13,0.22-0.15c0.045-0.02,0.068,0.006,0.065,0.033c-0.003,0.027-0.077,0.081-0.114,0.101
		c-0.035,0.021-0.107,0.062-0.152,0.084c-0.047,0.023-0.088,0.051-0.131,0.051s-0.045,0.036-0.021,0.046
		c0.025,0.011,0.054,0.004,0.131-0.023c0.077-0.026,0.163-0.078,0.229-0.124c0.067-0.046,0.154-0.108,0.191-0.084
		c0.037,0.027-0.113,0.121-0.176,0.155c-0.064,0.033-0.161,0.087-0.255,0.11c-0.063,0.016-0.101,0.026-0.082,0.044
		c0.016,0.017,0.042,0.026,0.067,0.029c0.026,0.004,0.084-0.01,0.143-0.029c0.057-0.021,0.188-0.091,0.248-0.135
		s0.156-0.127,0.188-0.093c0.03,0.032-0.08,0.09-0.164,0.141c-0.084,0.05-0.209,0.128-0.307,0.15
		c-0.066,0.017-0.113,0.027-0.088,0.041c0.025,0.014,0.088,0.017,0.141,0.009c0.055-0.006,0.131-0.044,0.225-0.093
		c0.094-0.049,0.275-0.188,0.308-0.165c0.03,0.024-0.047,0.078-0.11,0.121c-0.063,0.044-0.188,0.131-0.301,0.171
		c-0.06,0.021-0.164,0.064-0.125,0.073c0.068,0.013,0.139,0.011,0.197-0.012c0.061-0.024,0.171-0.088,0.248-0.143
		c0.076-0.054,0.205-0.137,0.21-0.127c0.007,0.01,0.002,0.062-0.031,0.081c-0.03,0.021-0.108,0.066-0.172,0.11
		c-0.065,0.043-0.229,0.124-0.285,0.146c-0.052,0.023-0.096,0.038-0.056,0.044s0.105,0.006,0.174-0.011
		c0.066-0.017,0.208-0.106,0.284-0.157c0.075-0.049,0.188-0.141,0.22-0.117s-0.054,0.084-0.09,0.106
		c-0.036,0.024-0.189,0.118-0.268,0.154c-0.076,0.036-0.244,0.1-0.236,0.109c0.006,0.012,0.044,0.021,0.096,0.023
		c0.055,0.004,0.121-0.029,0.182-0.056c0.062-0.026,0.181-0.104,0.228-0.135c0.047-0.029,0.165-0.13,0.188-0.104
		c0.022,0.027-0.01,0.05-0.041,0.071c-0.028,0.019-0.178,0.106-0.221,0.133c-0.043,0.025-0.173,0.089-0.234,0.123
		c-0.061,0.034-0.086,0.057-0.063,0.061c0.023,0.004,0.074-0.01,0.107-0.013c0.033-0.004,0.068-0.021,0.123-0.04
		c0.054-0.021,0.188-0.098,0.24-0.125c0.055-0.026,0.181-0.124,0.196-0.107c0.019,0.018-0.024,0.047-0.057,0.07
		c-0.029,0.023-0.142,0.084-0.188,0.113c-0.052,0.03-0.199,0.113-0.24,0.142c-0.045,0.026-0.092,0.05-0.058,0.053
		c0.033,0.003,0.06,0.003,0.103-0.014c0.045-0.017,0.35-0.17,0.385-0.189c0.037-0.021,0.143-0.099,0.156-0.081
		c0.018,0.017-0.025,0.066-0.049,0.081c-0.023,0.014-0.107,0.049-0.144,0.073c-0.038,0.023-0.14,0.073-0.17,0.098
		c-0.035,0.022-0.117,0.06-0.161,0.086c-0.044,0.026-0.021,0.041,0.014,0.044c0.032,0.004,0.139-0.047,0.188-0.07
		c0.046-0.024,0.216-0.107,0.254-0.121c0.037-0.013,0.071-0.013,0.046,0.004c-0.025,0.018-0.104,0.073-0.146,0.1
		c-0.063,0.04-0.291,0.138-0.28,0.154c0.021,0.033,0.386-0.168,0.397-0.141c0.014,0.026-0.283,0.2-0.268,0.224
		c0.013,0.021,0.193-0.11,0.214-0.082c0.021,0.031-0.065,0.038-0.116,0.082c-0.053,0.042,0.006,0.062,0.038,0.042
		c0.032-0.017,0.081-0.074,0.12-0.088c0.04-0.013,0.104,0.079,0.104,0.079s-0.086,0.049-0.107,0.064
		c-0.021,0.013,0.043,0.004,0.1-0.004c0.06-0.011,0.114,0.034,0.19,0.04c0.076,0.004,0.14,0.058,0.167,0.065
		c0.023,0.01,0.038,0.06,0.038,0.06s-0.067,0.014-0.12,0.014c-0.055,0-0.059-0.006-0.07-0.02c-0.045-0.04-0.054-0.058-0.145-0.057
		c-0.04,0-0.094,0.03-0.125,0.07c-0.032,0.041-0.11,0.077-0.135,0.081c-0.021,0.004-0.153-0.121-0.172-0.148
		c-0.02-0.026-0.139-0.133-0.162-0.137c-0.021-0.004-0.153-0.125-0.262-0.246c-0.107-0.121-0.83-0.904-0.854-0.937
		c-0.026-0.03-0.515-0.594-0.668-0.775c-0.156-0.184-0.909-1.059-1.013-1.195c-0.104-0.138-1.078-1.167-1.311-1.408
		c-0.232-0.242-1.462-1.389-1.718-1.615c-0.144-0.129-1.015-0.897-1.97-1.381C6.176,6.042,5.326,5.921,5.104,5.888
		C4.598,5.813,3.822,5.925,3.416,6.013C3.01,6.103,2.563,6.304,2.355,6.415C2.151,6.526,1.672,6.853,1.656,7.048
		C1.638,7.243,1.826,7.4,1.864,7.409c0.042,0.01,0.3,0.184,0.341,0.204c0.041,0.022,0.28,0.269,0.338,0.354
		c0.059,0.084,0.451,0.48,0.479,0.508c0.025,0.025,0.16,0.08,0.205,0.093c0.044,0.015,0.05,0.01,0.044-0.013
		C3.266,8.533,3.393,8.568,3.426,8.582C3.463,8.596,3.547,8.6,3.597,8.607C3.646,8.616,3.771,8.63,3.801,8.616
		c0.031-0.013,0.035-0.009,0.041-0.022C3.846,8.58,3.881,8.576,3.963,8.555c0.08-0.023,0.218-0.023,0.293-0.016
		c0.076,0.01,0.236,0.014,0.275,0.012c0.04-0.006,0.022-0.067-0.015-0.104c-0.035-0.036,0.019-0.069,0.06-0.044
		C4.617,8.43,4.67,8.469,4.688,8.536c0.018,0.067-0.066,0.067-0.131,0.077C4.494,8.621,4.441,8.635,4.34,8.617
		C4.236,8.598,4.125,8.621,4.058,8.621c-0.065,0-0.138,0.067-0.166,0.099c-0.024,0.031-0.134,0.019-0.19,0
		c-0.058-0.018-0.089,0-0.16-0.008c-0.07-0.01-0.125-0.041-0.183-0.033c-0.06,0.01-0.104,0.063-0.095,0.107
		c0.009,0.045,0.07,0.121,0.104,0.104c0.03-0.019,0.071,0.035,0.053,0.076c-0.018,0.041,0.014,0.053,0.06,0.129
		c0.045,0.076,0.22,0.371,0.329,0.563c0.056,0.096,0.199,0.35,0.313,0.614c0.114,0.271,0.196,0.551,0.205,0.585
		c0.02,0.07,0.111-0.008,0.143,0.05c0.029,0.051-0.034,0.08-0.08,0.116c-0.045,0.035,0.04,0.174,0.072,0.259
		c0.03,0.085,0.11,0.377,0.138,0.392c0.026,0.014,0.019,0.11,0.026,0.18c0.01,0.066,0.037,0.104,0.106,0.437
		c0.031,0.146,0.084,0.514,0.155,0.904c0.095,0.5,0.212,1.04,0.271,1.222c0.055,0.168,0.271,0.646,0.646,1.006
		c0.351,0.338,0.642,0.493,0.703,0.489c0.063-0.004,0.09,0.036,0.14,0.067c0.048,0.03,0.129,0.036,0.244,0.08
		c0.116,0.045,0.485,0.146,0.534,0.139c0.049-0.009,0.134-0.059,0.246-0.018c0.084,0.029,0.617,0.089,0.682,0.076
		c0.063-0.015,0.143-0.019,0.17,0.004c0.025,0.022,0.13,0.032,0.161,0.022c0.03-0.009,0.116-0.033,0.169-0.045
		c0.093-0.021,0.165-0.003,0.102,0.045c-0.062,0.049-0.352,0.284-0.404,0.317c-0.055,0.028-0.151,0.08-0.182,0.104
		c-0.031,0.026-0.104,0.065-0.139,0.08c-0.037,0.014-0.236,0.125-0.262,0.157c-0.021,0.031-0.25,0.209-0.284,0.217
		c-0.035,0.01-0.164,0.08-0.222,0.135c-0.06,0.055-0.06,0.055-0.06,0.055s-0.417,0.336-0.507,0.43
		c-0.091,0.094-0.307,0.334-0.366,0.406c-0.065,0.077-0.213,0.273-0.297,0.467c-0.073,0.17-0.088,0.336-0.099,0.393
		c-0.019,0.17,0.013,0.41,0.062,0.707c0.052,0.301,0.138,0.602,0.161,0.713c0.021,0.119,0.139,0.619,0.273,1.098
		c0.121,0.404,0.261,0.793,0.317,0.928c0.062,0.143,0.208,0.422,0.249,0.469c0.04,0.045,0.146,0.16,0.191,0.219
		c0.045,0.061,0.41,0.521,0.445,0.557c0.035,0.039,0.14,0.102,0.155,0.145c0.019,0.045,0.076,0.117,0.111,0.139
		c0.034,0.021,0.231,0.184,0.271,0.229c0.041,0.043,0.102,0.115,0.125,0.129c0.022,0.014,0.15,0.129,0.188,0.16
		c0.035,0.031,0.195,0.168,0.236,0.205s0.274,0.215,0.338,0.254c0.063,0.041,0.146,0.084,0.188,0.111
		c0.04,0.025,0.178,0.109,0.229,0.145c0.049,0.031,0.244,0.133,0.293,0.164c0.051,0.029,0.195,0.088,0.244,0.115
		c0.049,0.025,0.23,0.084,0.277,0.098c0.044,0.014,0.146,0.055,0.188,0.078c0.039,0.021,0.164,0.051,0.215,0.064
		c0.049,0.012,0.156,0.045,0.195,0.055c0.041,0.008,0.305,0.047,0.334,0.039c0.031-0.008,0.11-0.008,0.16,0.006
		c0.049,0.014,0.107,0.012,0.145,0.021c0.033,0.008,0.092,0.014,0.117,0.014c0.027,0,0.123-0.006,0.152,0.009
		c0.031,0.016,0.161,0.032,0.196,0.026c0.036-0.004,0.095-0.008,0.151-0.004c0.059,0.004,0.195-0.004,0.229-0.019
		c0.03-0.015,0.137-0.015,0.189-0.026c0.055-0.015,0.309-0.115,0.354-0.152c0.044-0.032,0.085-0.098,0.125-0.125
		c0.041-0.026,0.152-0.139,0.172-0.188c0.016-0.055,0.096-0.139,0.1-0.18c0.007-0.039,0.027-0.06,0.056-0.063
		c0.026-0.004,0.084-0.104,0.084-0.146c0-0.045,0.056-0.121,0.06-0.17c0.004-0.05,0.004-0.05,0.004-0.05s0.043-0.069,0.039-0.151
		c-0.004-0.08,0.027-0.199,0.041-0.254c0.014-0.054,0.045-0.188,0.07-0.22c0.026-0.03,0.096-0.164,0.086-0.241
		c-0.01-0.074,0.021-0.349,0.035-0.468c0.014-0.121,0.031-0.287,0.045-0.334c0.016-0.049,0.018-0.11,0.016-0.149
		c-0.006-0.041,0.002-0.088,0.024-0.101c0.022-0.015,0.022-0.19,0.04-0.25s0.044-0.144,0.051-0.201
		c0.002-0.057,0.024-0.149,0.035-0.188c0.008-0.035,0.049-0.223,0.053-0.279c0.004-0.058,0.066-0.188,0.07-0.275
		c0.004-0.09,0.035-0.215,0.048-0.275c0.015-0.063,0.027-0.207,0.046-0.256c0.021-0.049,0.022-0.133,0.021-0.178
		c-0.007-0.045,0.004-0.074,0.017-0.098c0.014-0.024-0.01-0.098,0.014-0.107c0.021-0.014,0.063-0.059,0.072-0.098
		c0.008-0.041,0.008-0.041,0.008-0.041s0.021-0.096,0.004-0.129c-0.012-0.037-0.021,0.008-0.028-0.111
		c-0.011-0.121-0.017-0.334-0.011-0.42c0.007-0.084,0-0.129,0.015-0.16c0.013-0.031,0.017-0.131,0.024-0.211
		c0.011-0.078,0-0.232,0.016-0.252c0.012-0.023,0.012-0.023,0.012-0.023s0.04-0.029,0.027-0.063
		c-0.016-0.031-0.016-0.107-0.004-0.188c0.009-0.079,0.015-0.194,0.04-0.227c0.04-0.056,0.026-0.162,0.026-0.246
		s0.028-0.175,0.019-0.231c-0.015-0.058-0.022-0.156-0.022-0.209c0-0.054,0.049-0.063,0.107-0.035
		c0.059,0.024,0.093,0.049,0.088-0.019c-0.004-0.067-0.01-0.215,0.052-0.295c0.037-0.049,0.261-0.086,0.278-0.026
		s-0.02,0.146,0.018,0.151s0.051,0.069,0.045,0.125c-0.004,0.053-0.029,0.119,0.014,0.129c0.046,0.008,0.06,0.104,0.056,0.138
		c-0.005,0.036,0.021,0.12,0.043,0.131s0.037,0.076,0.022,0.117c-0.014,0.038-0.014,0.194-0.018,0.258
		c-0.006,0.062-0.019,0.228-0.01,0.269c0.01,0.039,0.045,0.065,0.04,0.106c-0.004,0.039,0.015,0.14-0.004,0.17
		c-0.021,0.031-0.042,0.144-0.021,0.179c0.022,0.034,0.036,0.135,0.01,0.194c-0.025,0.063-0.031,0.177-0.031,0.25
		c0,0.088,0.015,0.295,0,0.334c-0.014,0.041-0.004,0.125,0,0.188c0.005,0.063,0.009,0.211,0.015,0.254
		c0.005,0.045,0.021,0.136,0.017,0.17c-0.004,0.037,0.037,0.181,0.072,0.197c0.034,0.017,0.041,0.125,0.022,0.155
		c-0.019,0.029-0.045,0.111-0.036,0.164c0.008,0.054,0.04,0.125,0.07,0.151c0.031,0.025,0.031,0.08,0.074,0.097
		c0.045,0.021,0.032,0.216,0.084,0.226c0.057,0.01,0.1,0.094,0.136,0.076c0.036-0.019,0.054,0.059,0.098,0.041
		c0.044-0.021,0.072-0.06,0.103-0.033c0.031,0.028,0.07,0.063,0.104-0.019c0.03-0.08,0.041-0.178,0.036-0.213
		c-0.005-0.037,0-0.086,0.045-0.09c0.044-0.005,0.08-0.019,0.08-0.07c0-0.055,0.044-0.09,0.055-0.14
		c0.009-0.051,0.025-0.271,0.009-0.321c-0.02-0.047-0.076-0.183-0.08-0.239c-0.004-0.06,0.033-0.134,0.03-0.211
		c-0.006-0.076,0-0.15,0.011-0.188c0.008-0.036-0.017-0.147-0.017-0.196s0.006-0.194,0.006-0.25c0-0.054-0.021-0.149-0.024-0.192
		c-0.004-0.031-0.032-0.174-0.065-0.222c-0.032-0.047,0.006-0.221-0.021-0.272c-0.026-0.056-0.041-0.106-0.041-0.153
		c0-0.048-0.008-0.113,0-0.188s-0.025-0.162-0.032-0.216c-0.009-0.053,0.032-0.233,0.065-0.266c0.032-0.035,0.108-0.076,0.131-0.162
		c0.021-0.086,0.021-0.086,0.021-0.086s0.081-0.106,0.081-0.138c0-0.03,0.019-0.121,0.04-0.151c0.021-0.031,0.043-0.05,0.079-0.054
		s0.104-0.03,0.125-0.055c0.021-0.023,0.054-0.054,0.05-0.084c-0.005-0.031,0.053-0.005,0.085,0
		c0.031,0.004,0.084,0.041,0.084,0.071c0,0.028,0.005,0.104,0.009,0.146c0.004,0.039-0.07,0.145-0.08,0.188
		c-0.008,0.045,0.006,0.184-0.021,0.207c-0.026,0.021-0.065,0.1-0.076,0.148c-0.01,0.055,0.041,0.131,0.03,0.17
		c-0.01,0.041-0.014,0.119,0,0.16c0.014,0.039,0.042,0.045,0.063,0.006c0.022-0.041,0.075-0.033,0.075,0.016
		c0,0.043-0.005,0.197-0.021,0.238c-0.021,0.041-0.077,0.145-0.022,0.145c0.054,0,0.054,0.059,0.049,0.109
		c-0.005,0.053,0.005,0.301,0.005,0.385c0,0.086,0.01,0.314,0.01,0.404c0,0.092,0.029,0.201,0.043,0.27
		c0.015,0.064,0.021,0.225,0.027,0.281c0.006,0.059,0.025,0.268,0.025,0.336c0,0.064,0.031,0.414,0.037,0.479
		c0.003,0.066,0.063,0.504,0.064,0.57c0.004,0.068,0.036,0.496,0.041,0.572c0.004,0.072,0.029,0.447,0.008,0.551
		c-0.021,0.104-0.029,0.291-0.039,0.363c-0.01,0.068-0.019,0.166-0.021,0.203c-0.004,0.039,0.01,0.076,0.049,0.031
		c0.04-0.045,0.045,0.045,0.022,0.094c-0.023,0.051-0.021,0.191-0.019,0.256c0.002,0.063,0.021,0.23,0.039,0.279
		c0.02,0.049,0.076,0.168,0.081,0.213c0.005,0.047,0.009,0.193,0.063,0.225c0.053,0.033,0.064,0.086,0.08,0.121
		c0.013,0.037,0.064,0.059,0.096,0.086c0.023,0.023,0.07,0.217,0.109,0.273c0.039,0.059,0.138,0.271,0.193,0.32
		c0.061,0.051,0.215,0.203,0.277,0.234c0.063,0.027,0.249,0.068,0.33,0.088c0.081,0.018,0.199,0.041,0.533,0.035
		c0.412-0.01,0.844-0.063,0.959-0.084c0.209-0.047,0.477-0.104,1.002-0.281c0.255-0.086,0.74-0.293,1.188-0.574
		c0.479-0.303,0.908-0.688,1.089-0.844c0.192-0.166,0.522-0.521,0.766-0.891c0.193-0.299,0.322-0.615,0.367-0.729
		c0.047-0.115,0.197-0.414,0.314-0.74c0.141-0.393,0.253-0.824,0.309-1.021c0.055-0.188,0.178-0.468,0.248-0.763
		c0.067-0.274,0.08-0.563,0.08-0.735c0-0.151-0.139-0.465-0.354-0.75c-0.29-0.383-0.69-0.748-0.872-0.899
		c-0.197-0.166-0.813-0.644-0.923-0.709c-0.11-0.068-0.199-0.158-0.239-0.198c-0.041-0.04-0.086-0.105,0.029-0.098
		c0.115,0.009,0.408-0.01,0.496,0c0.084,0.009,0.162,0.005,0.211,0.021c0.052,0.019,0.201,0.026,0.24,0
		c0.039-0.027,0.14-0.05,0.192-0.027c0.054,0.021,0.19,0.041,0.263,0.033c0.072-0.012,0.287-0.022,0.355-0.052
		c0.072-0.026,0.172-0.083,0.229-0.089c0.125-0.014,0.463-0.161,0.555-0.215c0.089-0.052,0.268-0.187,0.322-0.23
		c0.062-0.044,0.191-0.195,0.236-0.219c0.045-0.022,0.17-0.17,0.225-0.245c0.054-0.076,0.14-0.224,0.215-0.335
		c0.156-0.236,0.437-1.268,0.537-1.623c0.104-0.357,0.289-1.338,0.408-1.694c0.076-0.235,0.373-1.005,0.422-1.108
		c0.051-0.103,0.139-0.262,0.106-0.289c-0.033-0.027-0.005-0.06,0.035-0.067c0.041-0.009,0.129-0.177,0.155-0.244
		c0.025-0.067,0.078-0.17,0.104-0.211c0.021-0.041,0.207-0.308,0.305-0.462c0.053-0.078,0.137-0.223,0.262-0.385
		c0.175-0.227,0.418-0.496,0.642-0.746c0.329-0.369,0.615-0.543,0.728-0.623C30.389,7.827,30.357,7.642,30.322,7.453z
		 M18.106,12.482c0.044,0.015,0.127,0.032,0.122,0.056c-0.006,0.024-0.174-0.019-0.206-0.031c-0.03-0.014-0.091-0.037-0.085-0.062
		C17.943,12.419,18.061,12.466,18.106,12.482z M18.061,12.62c0.063,0.024,0.161,0.058,0.158,0.078
		c-0.004,0.021-0.23-0.046-0.276-0.063c-0.05-0.02-0.129-0.057-0.114-0.081C17.836,12.529,18,12.597,18.061,12.62z M17.627,12.171
		c-0.015-0.064,0.018-0.117,0.018-0.117s0.005,0.096,0.021,0.179c0.021,0.083,0.086,0.257,0.086,0.257l-0.047,0.045
		c0,0-0.014-0.085-0.025-0.141C17.666,12.337,17.644,12.234,17.627,12.171z M17.785,12.682c0.053,0.023,0.303,0.11,0.313,0.145
		c0.012,0.036-0.021,0.016-0.091-0.013c-0.068-0.027-0.332-0.136-0.332-0.136C17.662,12.635,17.731,12.658,17.785,12.682z
		 M17.531,12.38c-0.035-0.123-0.023-0.246-0.023-0.246c-0.018,0.063,0.104,0.414,0.106,0.441c0.003,0.026-0.028,0.026-0.028,0.026
		S17.566,12.503,17.531,12.38z M17.644,12.783c0.071,0.035,0.343,0.141,0.362,0.174c0.021,0.035-0.107,0-0.168-0.029
		c-0.059-0.028-0.293-0.136-0.293-0.136C17.52,12.738,17.572,12.748,17.644,12.783z M17.608,12.928
		c0.065,0.032,0.272,0.121,0.299,0.167c0.028,0.045-0.075-0.007-0.127-0.03c-0.052-0.024-0.37-0.161-0.37-0.161
		c-0.015-0.026,0.01-0.059,0.034-0.057C17.467,12.851,17.541,12.896,17.608,12.928z M17.353,12.163
		c0.021-0.023,0.028-0.014,0.03,0.023c0.004,0.038,0.015,0.141,0.029,0.209c0.016,0.068,0.086,0.272,0.071,0.308
		c-0.019,0.035-0.026-0.01-0.039-0.035c-0.011-0.024-0.037-0.134-0.065-0.251C17.35,12.3,17.353,12.163,17.353,12.163z
		 M14.057,12.546c-0.02,0.025-0.098,0.09-0.17,0.125c-0.073,0.038-0.157,0.067-0.153,0.045c0,0,0.231-0.131,0.263-0.155
		C14.027,12.538,14.078,12.518,14.057,12.546z M14.258,12.586l-0.039-0.023c0,0,0.007-0.253,0.007-0.331s0.001-0.126,0.015-0.104
		c0.016,0.025,0.026,0.127,0.024,0.219C14.262,12.436,14.258,12.586,14.258,12.586z M14.086,12.882
		c-0.069,0.044-0.174,0.076-0.199,0.066c-0.026-0.01,0.006-0.01,0.164-0.081c0.156-0.068,0.26-0.176,0.26-0.176
		s0.033-0.004,0.027,0.023C14.332,12.742,14.158,12.839,14.086,12.882z M14.391,12.664l-0.032-0.034c0,0,0.019-0.43,0.017-0.467
		c-0.004-0.037,0-0.058,0-0.058s0.041,0.05,0.041,0.134c0,0.083,0.016,0.184,0,0.26C14.399,12.578,14.391,12.664,14.391,12.664z
		 M14.342,12.9c-0.17,0.11-0.346,0.188-0.362,0.143c-0.008-0.024,0.271-0.139,0.303-0.159c0.029-0.02,0.187-0.109,0.187-0.109
		S14.395,12.865,14.342,12.9z M14.528,12.752l-0.047-0.03c0,0,0.058-0.35,0.058-0.43c0-0.082,0-0.148,0-0.148
		s0.022,0.037,0.029,0.173c0.006,0.138-0.014,0.222-0.021,0.287C14.541,12.671,14.528,12.752,14.528,12.752z M14.336,13.057
		c-0.082,0.041-0.26,0.103-0.275,0.087c-0.004-0.003,0.375-0.191,0.414-0.217c0.041-0.026,0.102-0.104,0.13-0.07
		C14.635,12.89,14.416,13.018,14.336,13.057z M14.652,12.834l-0.038-0.031c0,0,0.052-0.255,0.056-0.349
		c0.002-0.094,0.022-0.238,0.022-0.238s0.032,0.136,0.011,0.295C14.678,12.671,14.652,12.834,14.652,12.834z M14.522,13.123
		c-0.065,0.041-0.241,0.15-0.263,0.114c-0.02-0.038,0.246-0.162,0.291-0.191c0.047-0.028,0.162-0.119,0.187-0.094
		C14.758,12.979,14.584,13.083,14.522,13.123z M14.758,12.918l-0.021-0.025c0,0,0.072-0.313,0.083-0.412
		c0.009-0.101,0.015-0.222,0.015-0.222s0.026,0.072,0.01,0.271C14.826,12.732,14.758,12.918,14.758,12.918z M14.726,13.156
		c-0.044,0.023-0.354,0.214-0.373,0.194c-0.021-0.021,0.183-0.134,0.237-0.164c0.052-0.03,0.229-0.178,0.256-0.146
		C14.873,13.076,14.77,13.133,14.726,13.156z M14.842,12.97c0,0,0.094-0.248,0.107-0.361c0.012-0.113,0.035-0.236,0.035-0.236
		s0.038,0.036,0.004,0.213c-0.033,0.178-0.107,0.417-0.107,0.417L14.842,12.97z M14.885,13.217
		c-0.059,0.053-0.229,0.153-0.327,0.196c-0.097,0.044-0.152,0.029-0.14,0.021c0.013-0.011,0.303-0.135,0.41-0.229
		c0.106-0.093,0.121-0.097,0.139-0.065C14.983,13.169,14.946,13.164,14.885,13.217z M14.996,13.083l-0.02-0.014
		c0,0,0.072-0.241,0.102-0.357c0.024-0.118,0.053-0.229,0.053-0.229s0.013,0.114-0.031,0.284
		C15.057,12.939,14.996,13.083,14.996,13.083z M15.229,12.923c0,0,0.003,0.116-0.028,0.22c-0.035,0.103-0.037,0.103-0.037,0.103
		s-0.035-0.016-0.031-0.028c0.004-0.015,0.037-0.11,0.062-0.175C15.217,12.979,15.229,12.923,15.229,12.923z M15.037,13.301
		c-0.035,0.029-0.269,0.152-0.345,0.187c-0.078,0.034-0.11,0.027-0.11,0.027s0.357-0.211,0.403-0.248s0.065-0.058,0.088-0.034
		C15.094,13.256,15.069,13.271,15.037,13.301z M15.117,13.184c0,0-0.043-0.006-0.039-0.02c0.002-0.014,0.032-0.101,0.072-0.162
		c0.04-0.06,0.063-0.103,0.063-0.103s-0.032,0.13-0.063,0.207C15.121,13.183,15.117,13.184,15.117,13.184z M15.176,13.352
		c-0.02,0.043-0.299,0.18-0.354,0.214c-0.058,0.034-0.142,0.04-0.142,0.04s0.451-0.261,0.465-0.275
		C15.162,13.317,15.196,13.308,15.176,13.352z M15.666,13.23c0.057-0.12,0.08-0.167,0.084-0.145c0.002,0.023,0.02,0.058-0.027,0.147
		c-0.047,0.09-0.146,0.271-0.167,0.311c-0.021,0.041-0.026,0.049-0.026,0.049l-0.031-0.041
		C15.496,13.552,15.608,13.352,15.666,13.23z M15.361,13.09l-0.081,0.237l-0.028-0.021L15.361,13.09z M14.838,13.695
		c-0.053,0.027-0.086,0.027-0.086,0.027l0.006-0.016c0,0,0.443-0.231,0.465-0.256c0.023-0.023,0.039-0.063,0.057-0.038
		c0.018,0.027,0.041,0.021-0.006,0.062S14.893,13.668,14.838,13.695z M15.328,13.481c0.008,0.029-0.055,0.063-0.082,0.07
		c-0.025,0.007-0.037-0.01-0.037-0.01S15.318,13.451,15.328,13.481z M15.213,13.626c0,0,0.069-0.044,0.104-0.077
		c0.031-0.034,0.05-0.067,0.063-0.038c0.014,0.031,0.018,0.055-0.041,0.078C15.283,13.611,15.213,13.626,15.213,13.626z
		 M15.334,13.664c0,0,0.07-0.039,0.092-0.049c0.025-0.011,0.07,0.018,0.031,0.043C15.418,13.685,15.334,13.664,15.334,13.664z
		 M15.472,13.773c-0.015,0-0.011-0.024-0.011-0.024s0.065-0.084,0.078-0.042C15.547,13.752,15.483,13.773,15.472,13.773z
		 M15.545,13.617c0,0,0.136-0.26,0.18-0.337c0.043-0.077,0.063-0.113,0.046-0.05c-0.013,0.06-0.116,0.257-0.146,0.308
		c-0.031,0.052-0.056,0.098-0.056,0.098L15.545,13.617z M15.588,13.664c0,0,0.101-0.149,0.164-0.276
		c0.063-0.127,0.022,0.02,0.022,0.02s-0.062,0.151-0.104,0.204c-0.043,0.053-0.066,0.077-0.066,0.077L15.588,13.664z M15.627,13.741
		l-0.014-0.029c0,0,0.135-0.149,0.178-0.247c0.043-0.098,0.06-0.113,0.06-0.113s0.017-0.005,0.004,0.011
		c-0.011,0.02-0.011,0.035-0.021,0.063c-0.017,0.053-0.029,0.119-0.109,0.22S15.627,13.741,15.627,13.741z M15.819,13.823
		c-0.055,0.046-0.081,0.066-0.081,0.066l-0.02-0.026c0,0,0.086-0.066,0.113-0.111C15.858,13.707,15.873,13.775,15.819,13.823z
		 M15.785,13.683c-0.08,0.1-0.121,0.103-0.121,0.103s-0.017-0.019-0.002-0.028c0.012-0.011,0.065-0.059,0.133-0.164
		c0.066-0.107,0.117-0.175,0.117-0.175S15.867,13.582,15.785,13.683z M16.931,13.938c-0.05-0.032-0.183-0.075-0.183-0.075
		s0.039-0.027,0.116-0.007c0.075,0.02,0.12,0.057,0.163,0.1C17.072,13.999,16.982,13.973,16.931,13.938z M16.989,13.778
		c-0.108-0.052-0.354-0.176-0.354-0.176c-0.018-0.032-0.004-0.043,0.035-0.03c0.039,0.013,0.434,0.206,0.457,0.246
		C17.15,13.859,17.097,13.832,16.989,13.778z M17.09,13.758c-0.031-0.02-0.371-0.183-0.399-0.213
		c-0.038-0.037,0.022-0.019,0.022-0.019s0.412,0.193,0.438,0.233S17.123,13.776,17.09,13.758z M17.08,13.681
		c-0.098-0.046-0.349-0.171-0.349-0.171c-0.024-0.034,0.006-0.041,0.024-0.027c0.021,0.014,0.445,0.211,0.461,0.242
		C17.234,13.753,17.176,13.727,17.08,13.681z M17.365,13.38c-0.056-0.031-0.314-0.185-0.314-0.185
		c-0.034-0.093,0.051-0.034,0.131,0.015c0.078,0.047,0.354,0.201,0.377,0.245C17.582,13.498,17.42,13.411,17.365,13.38z
		 M17.472,13.269c-0.119-0.066-0.3-0.186-0.3-0.186c-0.01-0.062,0.095,0.012,0.16,0.043c0.067,0.032,0.352,0.186,0.375,0.22
		C17.731,13.38,17.592,13.335,17.472,13.269z M17.614,13.255c-0.069-0.035-0.394-0.217-0.394-0.217
		c-0.012-0.048,0.054-0.031,0.104,0.003c0.053,0.035,0.352,0.183,0.381,0.225C17.735,13.309,17.684,13.29,17.614,13.255z
		 M17.306,12.95c0.03-0.006,0.136,0.06,0.212,0.104c0.076,0.045,0.271,0.123,0.311,0.177c0.032,0.053-0.115-0.012-0.164-0.038
		c-0.051-0.027-0.373-0.2-0.373-0.2C17.274,12.97,17.274,12.955,17.306,12.95z M17.131,12.404c-0.004-0.125,0.047-0.164,0.047-0.164
		s0.003,0.146,0.02,0.275c0.018,0.131,0.057,0.384,0.057,0.384l-0.025,0.004c0,0-0.034-0.096-0.061-0.178
		C17.143,12.642,17.139,12.529,17.131,12.404z M17.246,13.164c0.082,0.064,0.406,0.198,0.411,0.241
		c0.005,0.043-0.104-0.008-0.209-0.063c-0.104-0.057-0.347-0.206-0.346-0.22C17.108,13.076,17.162,13.1,17.246,13.164z
		 M17.022,12.738c-0.032-0.16-0.033-0.293-0.032-0.334c0-0.009,0.002-0.013,0.002-0.013s0.012,0.109,0.03,0.196
		c0.021,0.09,0.117,0.375,0.122,0.386c0.006,0.012-0.036,0.034-0.036,0.034S17.063,12.932,17.022,12.738z M17.049,13.217
		c0.029,0.017,0.391,0.22,0.443,0.252c0.059,0.031,0.047,0.054,0.04,0.069c-0.005,0.017-0.104-0.052-0.18-0.095
		c-0.071-0.042-0.364-0.213-0.364-0.213C16.985,13.183,17.02,13.202,17.049,13.217z M16.899,12.869
		c-0.05-0.149-0.058-0.372-0.058-0.372s0.025,0.109,0.062,0.215c0.032,0.104,0.111,0.313,0.115,0.35
		c0.006,0.037-0.021,0.035-0.021,0.035S16.948,13.02,16.899,12.869z M16.992,13.269c0.03,0.019,0.428,0.229,0.448,0.271
		c0.021,0.04-0.087-0.023-0.215-0.091c-0.128-0.066-0.271-0.143-0.279-0.161C16.929,13.25,16.959,13.25,16.992,13.269z
		 M16.951,13.335c0.016,0.008,0.352,0.177,0.412,0.217c0.061,0.041,0.042,0.046,0.027,0.063c-0.014,0.017-0.102-0.053-0.188-0.102
		c-0.084-0.049-0.293-0.163-0.293-0.163C16.881,13.292,16.935,13.327,16.951,13.335z M16.842,13.137
		c-0.014-0.04-0.073-0.24-0.118-0.375c-0.046-0.134-0.007-0.208-0.007-0.208c-0.004,0.038,0.037,0.214,0.072,0.318
		c0.037,0.105,0.113,0.254,0.121,0.292C16.918,13.2,16.859,13.177,16.842,13.137z M16.887,13.372
		c0.039,0.024,0.463,0.247,0.48,0.281c0.02,0.036-0.066-0.011-0.166-0.053c-0.1-0.044-0.375-0.201-0.375-0.201
		C16.81,13.352,16.847,13.349,16.887,13.372z M16.992,13.523c0.076,0.04,0.303,0.155,0.301,0.187
		c-0.004,0.032-0.07-0.017-0.125-0.05c-0.058-0.036-0.4-0.212-0.4-0.212c-0.016-0.021,0.006-0.036,0.025-0.036
		C16.813,13.411,16.914,13.482,16.992,13.523z M16.551,12.69c0,0,0.035,0.086,0.08,0.198c0.047,0.111,0.147,0.313,0.158,0.361
		c0.012,0.048-0.035,0.037-0.045,0.016s-0.131-0.264-0.176-0.377C16.522,12.774,16.551,12.69,16.551,12.69z M16.545,13.162
		c-0.047-0.11-0.082-0.34-0.082-0.34s0-0.009,0.017-0.036c0.019-0.025,0.069,0.12,0.093,0.204c0.021,0.082,0.131,0.358,0.129,0.394
		c-0.005,0.034-0.027,0.024-0.046-0.002C16.635,13.354,16.588,13.271,16.545,13.162z M16.404,13.168
		c-0.044-0.108-0.042-0.184-0.042-0.184s0.04,0.08,0.071,0.161c0.033,0.08,0.158,0.304,0.163,0.336
		c0.004,0.033-0.038,0.021-0.062-0.016C16.51,13.429,16.448,13.278,16.404,13.168z M16.248,13.162
		c0.012-0.027,0.026,0.002,0.057,0.059c0.029,0.057,0.107,0.209,0.15,0.275c0.047,0.067,0.028,0.086,0.014,0.099
		c-0.014,0.014-0.09-0.062-0.11-0.123C16.336,13.409,16.248,13.162,16.248,13.162z M16.209,13.695
		c-0.052-0.069-0.104-0.254-0.104-0.254s0.141,0.273,0.182,0.318C16.334,13.809,16.263,13.767,16.209,13.695z M16.283,13.555
		c-0.066-0.104-0.086-0.251-0.086-0.251s0.063,0.084,0.104,0.161c0.041,0.077,0.117,0.19,0.111,0.228
		C16.402,13.729,16.351,13.658,16.283,13.555z"/>
</g>
<g id="Foreground1">
</g>
</svg>
