<?xml version="1.0" encoding="utf-8"?>
<!-- Generator: Adobe Illustrator 15.0.2, SVG Export Plug-In . SVG Version: 6.00 Build 0)  -->
<!DOCTYPE svg PUBLIC "-//W3C//DTD SVG 1.1//EN" "http://www.w3.org/Graphics/SVG/1.1/DTD/svg11.dtd">
<svg version="1.1" id="Layer_1" xmlns="http://www.w3.org/2000/svg" xmlns:xlink="http://www.w3.org/1999/xlink" x="0px" y="0px"
	 width="32px" height="32px" viewBox="0 0 32 32" enable-background="new 0 0 32 32" xml:space="preserve">
<g id="Background1">
	<path fill="#FFFFFF" d="M22.968,2.347c0.076,0,0.15,0,0.225,0c0.383,0.086,0.771,0.163,0.924,0.478
		c0.301,0.026,0.762,0.159,0.762,0.159s0.275,0.136,0.324,0.203c-0.557,0.105-1.188,0.149-1.547,0.434
		c-0.205,0.158-0.42,0.268-0.445,0.588c-0.068,0.8,0.279,1.482,0.539,2.066c0.205,0.455,0.326,0.935,0.492,1.367
		c0.172,0.436,0.398,0.836,0.541,1.334c0.072,0.25,0.119,0.504,0.176,0.764c0.059,0.262,0.063,0.521,0.111,0.811
		c0.029,0.18,0.107,0.365,0.143,0.572c0.045,0.27,0.092,0.553,0.111,0.859c0,0.058,0,0.115,0,0.174
		c-0.045,0.908-0.189,1.719-0.525,2.336c-0.006,0.157-0.063,0.264-0.078,0.414c-0.096,0.048-0.182,0.104-0.271,0.159
		c0.005,0.057,0.025,0.091,0.033,0.143c-0.123,0.288-0.024,0.683,0,0.938c0.06,0.607-0.315,1.208-0.397,1.686
		c-0.235,0.058-0.354,0.229-0.522,0.365c-0.063,0.049-0.153,0.083-0.224,0.144c-0.065,0.059-0.112,0.141-0.174,0.19
		c-0.291,0.237-0.961,0.128-1.242,0.396c-0.021-0.035-0.055-0.062-0.078-0.096c-0.161,0.091-0.362,0.094-0.557,0.159
		c-0.095,0.03-0.181,0.101-0.255,0.11c-0.297,0.043-0.471-0.129-0.684-0.237c-0.074-0.005-0.087,0.052-0.111,0.096
		c-0.047-0.026,0.035-0.058,0.017-0.11c-0.155-0.088-0.328-0.009-0.478,0c-0.067,0.002-0.129-0.024-0.19-0.017
		c-0.215,0.028-0.365,0.218-0.539,0.349c-0.2,0.149-0.455,0.246-0.604,0.383c-0.103,0.095-0.162,0.246-0.271,0.303
		c-0.151,0.382-0.147,0.859-0.237,1.287c-0.01,0.046-0.043,0.084-0.049,0.128c-0.007,0.067,0.023,0.14,0.018,0.206
		c-0.008,0.063-0.055,0.119-0.063,0.189c-0.03,0.217,0.021,0.438,0.111,0.62c0.058,0.007,0.106,0.021,0.159,0.031
		c0.002,0.071,0.037,0.108,0.049,0.176c0.195,0.183,0.387,0.379,0.57,0.54c0.215,0.188,0.465,0.307,0.699,0.46
		c0.205,0.136,0.398,0.259,0.588,0.384c0.508,0.332,1.045,0.639,1.592,0.905c0.518,0.253,1.107,0.408,1.363,0.89
		c0.049,0.258,0.098,0.465,0.225,0.621c0.176,0.215,0.479,0.313,0.557,0.619c0.305,0.236,0.572,0.51,0.955,0.668
		c0.121,0.131,0.219,0.289,0.207,0.559c-0.209-0.15-0.469-0.109-0.748-0.129c-0.453-0.03-0.725-0.315-0.986-0.523
		c-0.086,0.002-0.059,0.12-0.127,0.145c-0.396,0.058-0.684-0.121-0.793-0.367c-0.043-0.094-0.031-0.205-0.049-0.301
		c-0.037-0.197-0.109-0.408-0.223-0.558c-0.076-0.101-0.164-0.13-0.254-0.207c-0.064-0.056-0.109-0.135-0.176-0.19
		c-0.662-0.558-1.51-1.084-2.24-1.543c-0.355-0.222-0.799-0.475-1.209-0.683c-0.369-0.187-1.069-0.301-1.353-0.556
		c-0.467-0.426-0.026-1.266-0.032-1.829c-0.068,0.043-0.15,0.075-0.205,0.143c-0.144,0.179-0.174,0.526-0.304,0.699
		c-0.021,0.03-0.077,0.063-0.11,0.097c-0.086,0.079-0.291,0.375-0.291,0.375s-0.182,0.575-0.236,0.967
		c-0.012,0.08,0.037,0.186,0.02,0.266c-0.013,0.049-0.044,0.109-0.057,0.156c-0.027,0.102-0.064,0.221-0.086,0.336
		c-0.023,0.119-0.028,0.265-0.037,0.359c-0.007,0.078-0.021,0.146-0.027,0.229c-0.013,0.232-0.101,0.479-0.127,0.73
		c-0.045,0.438-0.098,0.859-0.144,1.287c-0.067,0.646-0.134,1.395,0.159,1.863c0.234,0.075,0.314,0.202,0.619,0.248
		c0.155,0.021,0.332,0.087,0.453,0.087c0.07,0,0.219,0.026,0.279,0.042c0.114,0.027,0.086,0.186,0.111,0.255
		c-0.074,0.04-0.176,0.036-0.229,0.007c-0.209,0.203-0.584,0.024-0.996,0.059c-0.164,0.014-0.332,0.052-0.461,0.031
		c-0.201-0.03-0.556-0.109-0.556-0.109l-0.554-0.378c0,0-0.238-0.474-0.273-0.624c0.041-0.113,0.005-0.229,0.033-0.352
		c0.038-0.171,0.141-0.334,0.175-0.492c0.041-0.197,0.159-0.414,0.159-0.414s0.05-0.767,0.159-1.064
		c0.036-0.385,0.146-0.633,0.19-0.908c0.051-0.251,0.059-0.505,0.144-0.728c0.017-0.048,0.038-0.08,0.051-0.128
		c0.021-0.077,0.022-0.174,0.044-0.254c0.016-0.062,0.068-0.105,0.08-0.158c0.036-0.189,0.012-0.439,0.048-0.669
		c0.068-0.433,0.052-0.741,0.047-1.097c-0.003-0.301-0.045-0.66-0.045-0.66s0.324-0.418,0.538-0.659
		c0.128-0.146,0.223-0.267,0.329-0.396c0.104-0.125,0.224-0.291,0.323-0.416c0.099-0.123,0.21-0.215,0.318-0.318
		c0.028-0.141,0.111-0.227,0.189-0.316c-0.063-0.189,0.178-0.249,0.207-0.382c0.023-0.114-0.039-0.332-0.098-0.413
		c-0.063-0.089-0.203-0.104-0.254-0.191c-0.19,0.082-0.328-0.037-0.509-0.063c-0.146-0.02-0.319,0.031-0.381-0.096
		c-0.287-0.067-0.651-0.062-0.842-0.225c-0.181,0.066-0.298,0.049-0.493,0.049c-0.354-0.002-0.72,0.07-1.018,0.063
		c-0.409-0.012-0.646-0.207-0.891-0.366c-0.142-0.092-0.294-0.21-0.414-0.315c-0.065-0.063-0.187-0.064-0.266-0.105
		c-0.003-0.141,0.007-0.286-0.053-0.371c-0.237-0.016-0.373,0.081-0.557,0.063c-0.186-0.019-0.352-0.168-0.619-0.11
		c0.019-0.099,0.07-0.162,0.11-0.238c-0.101-0.147-0.34,0.011-0.509-0.048c-0.045-0.039-0.045-0.125-0.096-0.158
		c0.041-0.122,0.164-0.116,0.158-0.238c-0.006-0.133-0.252-0.188-0.238-0.365c-0.12-0.076-0.271-0.12-0.43-0.157
		c-0.039-0.009-0.162,0.167-0.141,0.301c-0.238,0.023-0.07-0.348-0.116-0.357c-0.116-0.028-0.229-0.061-0.331-0.104
		c-0.32-0.21-0.51-0.634-0.971-0.65c-0.078-0.061-0.184-0.085-0.286-0.08c0.002-0.04-0.024-0.051-0.03-0.079
		c-0.045-0.063,0.09-0.051,0.096-0.112c0.016-0.072-0.057-0.111-0.018-0.158c0.075-0.04,0.153,0.002,0.191,0.047
		c-0.08-0.102-0.155-0.343-0.414-0.317c-0.121-0.169-0.133-0.449-0.254-0.62c-0.024-0.05,0.009-0.07,0.015-0.126
		c-0.077-0.056-0.229-0.099-0.333-0.081c0-0.01,0-0.02,0-0.032c0.032-0.021,0.026-0.085,0.047-0.126
		c0.1-0.189,0.377-0.347,0.398-0.509c0.013-0.104-0.077-0.189-0.098-0.333c0.166-0.148,0.129-0.498,0.191-0.748
		c0.049-0.003,0.092-0.045,0.129-0.084c0.193-0.355,0.491-0.525,0.65-0.917c0.124-0.011,0.188-0.261,0.333-0.271
		c0.122-0.008,0.305,0.181,0.413,0.224c0.211,0.083,0.482,0.082,0.716,0.175c0.377,0.152,0.639,0.42,0.938,0.508
		c0.106,0.225,0.353,0.405,0.508,0.652c0.099,0.153,0.141,0.329,0.224,0.523c0.103,0.241,0.317,0.42,0.237,0.685
		c0.111,0.036,0.193-0.064,0.285-0.095c0.058-0.02,0.142-0.01,0.19-0.032c0.076-0.034,0.112-0.131,0.19-0.175
		c0.109-0.062,0.209-0.067,0.271-0.159c0.405,0.023,0.395-0.399,0.826-0.302c0.072-0.135,0.236-0.137,0.35-0.224
		c0.076-0.058,0.104-0.141,0.176-0.175c0.105-0.05,0.236-0.022,0.365-0.08c0.002-0.162-0.022-0.33,0.018-0.492
		c0.051-0.205,0.328-0.457,0.508-0.478c0.039-0.005,0.107,0.032,0.174,0.032c0.033,0,0.094-0.034,0.112-0.032
		c0.058,0.01,0.098,0.073,0.159,0.079c0.127,0.014,0.209-0.077,0.332-0.111c0.096,0.016,0.17-0.003,0.303,0
		c0.051-0.018,0.012-0.125,0.047-0.158c0.191,0.065,0.225-0.199,0.414-0.143c0.034-0.068,0.018-0.09,0.079-0.127
		c0.096,0.016,0.108,0.113,0.208,0.127c0.281-0.154,0.646,0.035,0.953-0.064c0.128,0.09,0.26,0.036,0.43,0.047
		c0.057-0.021-0.008-0.101,0.047-0.095c0.086,0.011,0.18,0.013,0.256,0.031c-0.023-0.119,0.079-0.11,0.109-0.175
		c0.054-0.039-0.098-0.092-0.031-0.144c0.116-0.015,0.118,0.085,0.239,0.063c0.049,0.008,0.012-0.072,0.047-0.079
		c0.067,0.081,0.167,0.06,0.238,0c0.045,0.045,0.081,0.1,0.175,0.095c0.059,0.012,0.027-0.066,0.063-0.08
		c0.09,0.047,0.141,0.127,0.191,0.208c0.229-0.144,0.391,0.382,0.619,0.095c-0.082-0.076-0.213-0.104-0.225-0.254
		c0.039,0.015,0.123,0.032,0.16,0c0.041-0.049-0.037-0.123,0-0.158c0.496,0.07,0.615,0.52,1.127,0.572
		c-0.004-0.095-0.074-0.125-0.063-0.238c0.027,0.041,0.059,0.08,0.143,0.063c0.047-0.041-0.025-0.104,0.018-0.144
		c0.152,0.055,0.217-0.072,0.334-0.08c0.129-0.008,0.125,0.076,0.236,0.144c0.066,0.038,0.148,0.003,0.178,0.08
		c0.064-0.062,0.102-0.153,0.207-0.175c0.104,0.059,0.201,0.123,0.301,0.189c0.043,0,0.086,0,0.129,0
		c0.195,0.071,0.26,0.254,0.379,0.383c0.051,0.052,0.133,0.106,0.191,0.158c0.195,0.168,0.381,0.312,0.523,0.524
		c0.332-0.187,0.373-0.317,0.523-0.699c0.092-0.228,0.207-0.38,0.207-0.62c0.002-0.33-0.092-0.683-0.158-1.019
		c-0.127-0.658-0.334-1.25-0.568-1.799c-0.449-1.051-1.1-2.123-1.096-3.497c0-0.147,0.041-0.331,0.031-0.461
		c-0.008-0.063-0.055-0.13-0.064-0.207C22.128,2.694,22.511,2.485,22.968,2.347z"/>
</g>
<g id="Foreground1">
</g>
</svg>
