<?xml version="1.0" encoding="utf-8"?>
<!-- Generator: Adobe Illustrator 15.0.2, SVG Export Plug-In . SVG Version: 6.00 Build 0)  -->
<!DOCTYPE svg PUBLIC "-//W3C//DTD SVG 1.1//EN" "http://www.w3.org/Graphics/SVG/1.1/DTD/svg11.dtd">
<svg version="1.1" id="Layer_1" xmlns="http://www.w3.org/2000/svg" xmlns:xlink="http://www.w3.org/1999/xlink" x="0px" y="0px"
	 width="32px" height="32px" viewBox="0 0 32 32" enable-background="new 0 0 32 32" xml:space="preserve">
<g id="Background1">
	<g>
		<path fill="#FFFFFF" d="M5.108,12.833c0.021-0.038,0.037-0.081,0.052-0.114c0.034-0.078,0.069-0.14,0.11-0.208
			c0.045-0.075,0.104-0.128,0.151-0.202c0.043-0.068,0.101-0.129,0.146-0.2c0.039-0.062,0.056-0.124,0.097-0.177
			c0.038-0.049,0.097-0.084,0.137-0.137c0.029-0.041,0.042-0.092,0.073-0.13c0.042-0.052,0.113-0.094,0.169-0.153
			c0.054-0.056,0.101-0.123,0.153-0.17c0.115-0.099,0.248-0.185,0.361-0.281c0.041-0.033,0.072-0.078,0.113-0.112
			c0.042-0.035,0.096-0.056,0.137-0.089c0.049-0.037,0.094-0.079,0.144-0.115c0.052-0.038,0.11-0.066,0.164-0.104
			c0.052-0.035,0.102-0.096,0.149-0.135c0.053-0.041,0.104-0.074,0.156-0.115c0.055-0.041,0.102-0.088,0.153-0.121
			c0.056-0.034,0.118-0.06,0.178-0.098c0.058-0.037,0.108-0.07,0.17-0.098c0.125-0.057,0.233-0.137,0.347-0.193
			C8.332,9.85,8.394,9.832,8.446,9.809c0.271-0.123,0.666-0.172,0.976-0.267c0.243-0.073,0.497-0.177,0.823-0.177
			c0.32,0,0.623,0.036,0.888,0.111c0.121,0.037,0.243,0.089,0.371,0.13c0.118,0.04,0.247,0.098,0.388,0.112
			c0.17,0.019,0.351-0.016,0.532,0c0.185,0.016,0.372,0.004,0.527-0.02c0.11-0.016,0.233-0.05,0.353-0.077
			c0.121-0.028,0.231-0.059,0.34-0.094c0.131-0.044,0.282-0.119,0.436-0.181c0.143-0.058,0.301-0.096,0.443-0.162
			c0.14-0.063,0.291-0.116,0.442-0.168c0.146-0.051,0.313-0.088,0.437-0.17c0.057-0.037,0.113-0.123,0.162-0.176
			c0.154-0.178,0.291-0.39,0.459-0.549c0.121-0.113,0.279-0.16,0.483-0.193c0.371-0.061,0.728-0.121,1.13-0.153
			c0.238-0.021,0.475-0.062,0.728-0.05c0.3,0.015,0.622-0.024,0.95-0.016c0.147,0.004,0.303,0.036,0.451,0.032
			c0.107-0.002,0.219-0.03,0.322-0.058c0.168-0.041,0.313-0.123,0.484-0.168c0.311-0.082,0.66-0.073,1.049-0.064
			c0.145,0.004,0.279,0.03,0.411,0.041c0.108,0.01,0.219,0.005,0.313,0.032c0.063,0.017,0.123,0.06,0.192,0.088
			c0.21,0.086,0.366,0.187,0.524,0.323c0.103,0.088,0.218,0.162,0.321,0.24c0.228,0.17,0.416,0.304,0.599,0.518
			c0.043,0.051,0.078,0.104,0.121,0.152c0.047,0.057,0.08,0.104,0.121,0.159c0.028,0.039,0.066,0.075,0.1,0.119
			c0.087,0.121,0.197,0.215,0.299,0.331c0.063,0.071,0.115,0.167,0.177,0.25c0.121,0.164,0.203,0.318,0.282,0.524
			c0.035,0.091,0.125,0.139,0.164,0.24c0.02,0.049-0.014,0.166,0.021,0.229c0.09,0.164,0.234,0.32,0.348,0.468
			c0.078,0.104,0.139,0.228,0.218,0.33c0.142,0.187,0.284,0.33,0.411,0.524c0.039,0.091,0.098,0.18,0.129,0.279
			c0.029,0.091,0.052,0.18,0.08,0.27c0.015,0.044,0.018,0.094,0.033,0.137c0.021,0.059,0.072,0.096,0.088,0.154
			c0.139,0.09,0.297,0.161,0.354,0.331c0.159-0.022,0.313-0.166,0.479-0.105c0.023,0.13-0.129,0.146-0.17,0.234
			c0.279,0.031,0.613,0.067,0.902,0.008c0.184-0.038,0.361-0.1,0.598-0.141c0.137-0.024,0.588-0.184,0.597-0.117
			c0.011,0.067-0.481,0.417-0.536,0.456c-0.078,0.056-0.152,0.103-0.218,0.129c-0.22,0.086-0.499,0.171-0.804,0.206
			s-0.619,0.048-0.928,0.008c0.031,0.13,0.062,0.345,0.031,0.532c-0.008,0.054-0.012,0.11-0.01,0.167
			c0.002,0.107,0.058,0.19,0.083,0.292c0.021,0.08,0.028,0.181,0.016,0.273c-0.006,0.046-0.048,0.104-0.048,0.153
			c0,0.05,0.047,0.094,0.048,0.146c0.003,0.052-0.04,0.12-0.04,0.188c0.002,0.053,0.03,0.104,0.024,0.145
			c-0.009,0.065-0.067,0.112-0.083,0.176c-0.031,0.115-0.003,0.245-0.057,0.356c-0.031,0.073-0.074,0.072-0.099,0.151
			c0.029,0.083,0.037,0.154-0.014,0.246c-0.013,0.019-0.04,0.029-0.05,0.056c-0.012,0.032,0.002,0.069-0.008,0.097
			c-0.024,0.079-0.067,0.146-0.093,0.207c0.022,0.069,0.034,0.128,0.027,0.204c-0.007,0.065-0.052,0.129-0.063,0.201
			c-0.01,0.049,0.006,0.103,0,0.146c-0.013,0.064-0.063,0.123-0.082,0.178c0.014,0.057,0.03,0.063,0.024,0.111
			c-0.007,0.059-0.075,0.076-0.081,0.12c-0.004,0.031,0.034,0.072,0.041,0.113c0.006,0.039-0.02,0.092-0.018,0.146
			c0.004,0.086,0.049,0.133-0.008,0.211c0.023,0.055,0.041,0.07,0.039,0.129c0,0.047-0.035,0.069-0.039,0.111
			c-0.011,0.079,0.039,0.176-0.031,0.233c0.039,0.067,0.056,0.179,0,0.241c0.041,0.082,0.027,0.183,0.031,0.283
			c0,0.029-0.019,0.062-0.018,0.08c0.005,0.07,0.083,0.158,0,0.232c0.055,0.061,0.016,0.127,0.009,0.202
			c-0.011,0.112,0.03,0.245-0.022,0.339c0.01,0.055,0.026,0.078,0.022,0.129c-0.004,0.04-0.028,0.068-0.032,0.104
			c-0.009,0.067,0.023,0.146-0.031,0.193c0.014,0.094-0.014,0.188-0.031,0.268c-0.01,0.037-0.035,0.063-0.049,0.104
			c-0.01,0.025-0.01,0.059-0.018,0.081c-0.014,0.038-0.06,0.065-0.072,0.104c-0.01,0.027,0.002,0.063-0.008,0.088
			c-0.017,0.039-0.061,0.072-0.084,0.115c-0.029,0.053-0.058,0.119-0.095,0.168c-0.038,0.049-0.13,0.106-0.21,0.178
			c-0.232,0.203-0.586,0.396-0.951,0.441c-0.273,0.034-0.67-0.001-0.912-0.016c-0.091-0.006-0.256-0.11-0.307-0.169
			c-0.075-0.089-0.083-0.261,0.087-0.255c0.123-0.135,0.204-0.397,0.341-0.514c0.021-0.019,0.156-0.035,0.202-0.022
			c0.071,0.017,0.121,0.077,0.161,0.12c0.025,0.027,0.072,0.139,0.121,0.152c0.082,0.025,0.293-0.092,0.338-0.127
			c0.215-0.177,0.261-0.652,0.234-1.052c-0.015-0.198-0.063-0.418-0.099-0.637c-0.034-0.226-0.017-0.462-0.04-0.693
			c-0.046-0.448-0.111-0.897-0.146-1.321c-0.009-0.117,0.004-0.231,0-0.34c-0.013-0.306-0.015-0.623-0.048-0.943
			c-0.039-0.347-0.262-0.617-0.34-0.928c-0.027-0.108-0.045-0.214-0.08-0.315c-0.035-0.096-0.084-0.193-0.099-0.29
			c-0.014-0.097-0.001-0.24-0.022-0.338c-0.107-0.463-0.694-0.47-1.082-0.629c-0.188,0.133-0.437,0.532-0.437,0.532
			s-0.11,0.15-0.192,0.192c-0.047,0.026-0.108,0.059-0.172,0.086c-0.147,0.068-0.345,0.133-0.537,0.147
			c-0.273,0.022-0.562,0.059-0.834,0.115c-0.054,0.011-0.123,0.026-0.176,0.04c-0.05,0.01-0.084,0.024-0.136,0.034
			c-0.065,0.013-0.151,0.022-0.22,0.038c-0.129,0.028-0.208,0.018-0.299,0.098c-0.037,0.032-0.055,0.05-0.08,0.072
			c-0.088,0.07-0.174,0.224-0.201,0.322c-0.01,0.031-0.025,0.069-0.03,0.101c-0.05,0.29-0.153,0.548-0.192,0.845
			c-0.015,0.104,0.008,0.225-0.002,0.338c-0.031,0.328-0.031,0.633,0.039,0.928c0.055,0.218,0.07,0.4,0.146,0.6
			c0.057,0.146,0.206,0.293,0.281,0.436c0.027,0.049,0.056,0.098,0.082,0.158c0.031,0.076,0.074,0.176,0.115,0.261
			c0.037,0.079,0.084,0.157,0.129,0.221c0.064,0.097,0.18,0.183,0.246,0.279c0.073,0.108,0.14,0.274,0.211,0.428
			c0.064,0.144,0.162,0.294,0.201,0.429c0.074,0.258,0.105,0.498,0.057,0.773c-0.008,0.049-0.02,0.104-0.031,0.156
			c-0.016,0.052-0.027,0.104-0.041,0.15c-0.027,0.094-0.096,0.219-0.129,0.342c-0.036,0.131-0.18,0.301-0.314,0.367
			c-0.175,0.195-0.316,0.248-0.468,0.42c-0.09,0.103-0.153,0.178-0.21,0.313c-0.02,0.046-0.039,0.115-0.043,0.156
			c-0.006,0.059,0.011,0.106,0.011,0.15c0.003,0.178-0.073,0.379-0.137,0.516c-0.11,0.248-0.339,0.365-0.694,0.363
			c-0.054,0-0.104,0.004-0.169,0.002c-0.045,0-0.091-0.006-0.137-0.002c-0.063,0.006-0.123-0.004-0.188,0
			c-0.062,0.004-0.117,0.002-0.182,0.002c-0.059,0.002-0.122-0.002-0.188-0.002c-0.066,0-0.123,0.008-0.188,0.014
			c-0.043,0.005-0.092,0.018-0.144,0.02c-0.266,0.012-0.586,0.092-0.75-0.057c-0.051-0.045-0.088-0.139-0.104-0.219
			c-0.021-0.1,0.009-0.226-0.017-0.338c-0.01-0.049-0.016-0.09-0.026-0.139c-0.015-0.053-0.028-0.104-0.037-0.16
			c-0.016-0.109-0.042-0.207-0.041-0.314c0.007-0.344-0.013-0.657-0.049-0.992c-0.015-0.146-0.041-0.284-0.048-0.428
			c-0.014-0.295,0.008-0.594-0.032-0.879c-0.01-0.069-0.035-0.146-0.049-0.228c-0.013-0.071-0.035-0.149-0.058-0.218
			c-0.041-0.141-0.119-0.276-0.145-0.402c-0.035-0.174-0.016-0.359-0.063-0.496c-0.018-0.049-0.047-0.094-0.076-0.143
			c-0.018-0.028-0.033-0.061-0.053-0.1c-0.029-0.059-0.076-0.115-0.102-0.166c-0.037-0.08-0.066-0.151-0.107-0.207
			c-0.031-0.047-0.086-0.092-0.134-0.142c-0.085-0.086-0.163-0.304-0.219-0.46c-0.028-0.084-0.054-0.182-0.097-0.281
			c-0.035-0.082-0.104-0.227-0.161-0.233c-0.079-0.011-0.218,0.097-0.308,0.138c-0.125,0.059-0.235,0.073-0.338,0.111
			c-0.097,0.037-0.183,0.082-0.268,0.113c-0.292,0.109-0.585,0.205-0.874,0.326c-0.084,0.033-0.134,0.063-0.222,0.094
			c-0.041,0.016-0.114,0.041-0.155,0.057c-0.039,0.015-0.069,0.031-0.109,0.046c-0.034,0.013-0.073,0.024-0.108,0.034
			c-0.096,0.033-0.188,0.086-0.281,0.121c-0.098,0.037-0.191,0.088-0.273,0.129c-0.041,0.021-0.094,0.055-0.135,0.072
			c-0.111,0.053-0.169,0.035-0.316,0.119c-0.135,0.014-0.248,0.057-0.379,0.065c-0.052,0.005-0.111-0.011-0.16,0.01
			c-0.08,0.028-0.133,0.226-0.178,0.306c-0.061,0.104-0.074,0.115-0.113,0.213c-0.045,0.115-0.051,0.229-0.084,0.385
			c-0.012,0.059-0.045,0.15-0.053,0.21c-0.029,0.233,0.021,0.392,0.063,0.599c0.063,0.291,0.109,0.594,0.178,0.879
			c0.021,0.084,0.032,0.155,0.057,0.258c0.039,0.152,0.123,0.312,0.17,0.461c0.025,0.086,0.049,0.168,0.08,0.25
			c0.032,0.082,0.056,0.171,0.088,0.242c0.041,0.086,0.104,0.16,0.153,0.241c0.116,0.191,0.333,0.337,0.517,0.468
			c0.039,0.026,0.084,0.056,0.115,0.084c0.047,0.043,0.096,0.121,0.104,0.143c0.02,0.056,0.039,0.266,0.018,0.347
			c-0.018,0.06-0.132,0.185-0.203,0.193c-0.178,0.026-0.408,0.012-0.621,0c-0.207-0.011-0.432-0.028-0.564-0.08
			c-0.04-0.017-0.09-0.022-0.126-0.032c-0.162-0.035-0.335-0.02-0.495-0.031c-0.075-0.006-0.159-0.004-0.24,0
			c-0.082,0.006-0.174,0.023-0.234,0.008c-0.109-0.027-0.17-0.186-0.219-0.33c-0.051-0.15-0.104-0.313-0.113-0.438
			c-0.004-0.056,0.013-0.111,0.009-0.169c-0.011-0.172-0.062-0.341-0.072-0.517c-0.012-0.178-0.06-0.348-0.081-0.508
			c-0.006-0.049-0.017-0.088-0.025-0.133c-0.018-0.068-0.037-0.099-0.055-0.15c-0.037-0.119-0.047-0.284-0.063-0.41
			c-0.019-0.127-0.068-0.243-0.113-0.355c-0.042-0.104-0.099-0.211-0.151-0.313c-0.117-0.217-0.221-0.387-0.43-0.518
			c-0.14-0.088-0.352-0.104-0.5-0.152c-0.229-0.078-0.355-0.24-0.57-0.396c-0.131,0.119-0.271,0.163-0.438,0.252
			c-0.063,0.031-0.112,0.098-0.177,0.145c-0.131,0.094-0.241,0.156-0.363,0.273c-0.055,0.053-0.127,0.11-0.152,0.161
			c-0.017,0.03-0.031,0.075-0.046,0.112c-0.016,0.04-0.039,0.074-0.052,0.113c-0.034,0.095-0.012,0.205-0.048,0.322
			c-0.024,0.074-0.093,0.104-0.13,0.176C6.39,21.6,6.376,21.643,6.358,21.684c-0.014,0.031-0.024,0.059-0.035,0.09
			c-0.047,0.142-0.063,0.313-0.098,0.482c-0.029,0.15-0.063,0.313-0.097,0.477c-0.035,0.17-0.042,0.344-0.058,0.518
			c-0.016,0.182-0.039,0.359-0.031,0.523c0.003,0.065,0.08,0.162,0.09,0.226c0.037,0.218,0.063,0.392-0.145,0.425
			c-0.129,0.023-0.35-0.004-0.502-0.004c-0.305,0-0.598,0.006-0.879,0.008c-0.262,0.001-0.597,0.09-0.605-0.201
			c-0.002-0.07,0.048-0.113,0.064-0.186c0.018-0.077-0.012-0.155,0.041-0.219c-0.066-0.135,0.013-0.273,0.049-0.396
			c0.021-0.072,0.021-0.148,0.039-0.209c0.055-0.189,0.132-0.359,0.179-0.572c0.015-0.07,0.013-0.146,0.032-0.209
			c0.016-0.056,0.046-0.098,0.059-0.15c0.021-0.088,0.02-0.192,0.03-0.293c0.021-0.159,0.056-0.286,0.088-0.428
			c0.012-0.052,0.015-0.106,0.014-0.146c-0.001-0.063-0.021-0.117-0.022-0.183c-0.002-0.049-0.016-0.116-0.012-0.174
			s0.004-0.115,0.006-0.17c0.004-0.088-0.008-0.123-0.016-0.214c-0.003-0.053-0.005-0.132-0.015-0.186
			c-0.011-0.06-0.001-0.13-0.011-0.19c-0.024-0.165-0.022-0.328-0.029-0.488c-0.004-0.104-0.012-0.289-0.012-0.289
			s-0.018-0.344-0.017-0.545c0.001-0.203,0.009-0.41,0.017-0.638c0.018-0.42,0.129-0.927,0.129-1.362
			c-0.141,0.541-0.243,1.106-0.379,1.687c-0.092,0.397-0.183,0.853-0.289,1.259c-0.036,0.135-0.103,0.286-0.105,0.403
			c-0.001,0.034,0.016,0.063,0.018,0.096c0.011,0.222-0.057,0.456-0.139,0.654c-0.029,0.073-0.086,0.141-0.138,0.226
			c-0.05,0.083-0.093,0.178-0.146,0.241C3.315,21.695,3.11,21.91,2.897,21.98c-0.088,0.026-0.239,0.198-0.229,0.086
			c0.012-0.103,0.204-0.347,0.281-0.431c0.074-0.08,0.16-0.231,0.193-0.339c0.088-0.288,0.082-0.626,0.24-0.807
			c0.032-0.037,0.1-0.061,0.121-0.09c0.041-0.055,0.066-0.232,0.105-0.349c0.084-0.241,0.111-0.472,0.152-0.741
			c0.021-0.125,0.057-0.242,0.072-0.351c0.005-0.039,0.021-0.099,0.023-0.126c0.008-0.083,0.031-0.18,0.054-0.271
			c0.022-0.098,0.041-0.187,0.052-0.283c0.01-0.063,0.023-0.111,0.034-0.166s0.017-0.116,0.022-0.174
			c0.017-0.119,0.037-0.215,0.047-0.369c0.019-0.26,0.086-0.599,0.098-0.889c0.004-0.104,0.02-0.198,0.031-0.298
			c0.016-0.104,0.029-0.21,0.039-0.313c0.008-0.102,0.022-0.198,0.035-0.292c0.022-0.217,0.037-0.444,0.047-0.661
			C4.33,14.872,4.29,14.605,4.334,14.4c0.017-0.07,0.063-0.151,0.099-0.234c0.117-0.289,0.23-0.616,0.369-0.864 M19.121,21.771
			c0.046-0.025,0.099-0.041,0.129-0.063c0.092-0.067,0.082-0.138,0.104-0.259c0.021-0.106,0.088-0.197,0.049-0.299
			c-0.031-0.076-0.188-0.156-0.291-0.219c-0.137-0.078-0.23-0.16-0.314-0.218c-0.007,0.021-0.014,0.046-0.017,0.063
			c-0.017,0.149-0.011,0.346-0.023,0.518c-0.01,0.134-0.006,0.273-0.016,0.396c-0.009,0.09-0.042,0.176,0.016,0.242
			C18.944,21.941,18.981,21.854,19.121,21.771z"/>
	</g>
</g>
<g id="Foreground1">
</g>
</svg>
