<?xml version="1.0" encoding="utf-8"?>
<!-- Generator: Adobe Illustrator 15.0.2, SVG Export Plug-In . SVG Version: 6.00 Build 0)  -->
<!DOCTYPE svg PUBLIC "-//W3C//DTD SVG 1.1//EN" "http://www.w3.org/Graphics/SVG/1.1/DTD/svg11.dtd">
<svg version="1.1" id="Layer_1" xmlns="http://www.w3.org/2000/svg" xmlns:xlink="http://www.w3.org/1999/xlink" x="0px" y="0px"
	 width="32px" height="32px" viewBox="0 0 32 32" enable-background="new 0 0 32 32" xml:space="preserve">
<g id="Background1">
	<g>
		<path fill="#FFFFFF" d="M18.831,17.771c0,0,0.525-0.244,0.713-0.367c0.111-0.035,0.184-0.08,0.25-0.15
			c0.098-0.105,0.117-0.395,0.277-0.426c0.121-0.023,0.172,0.023,0.268,0.057c0.137,0.043,0.177,0.436,0.27,0.379
			c0.103-0.063,0.264-0.527,0.313-0.633c0.02-0.037,0.025-0.074,0.04-0.105c0.036-0.093,0.095-0.154,0.166-0.223
			c0.079,0.021,0.093,0.116,0.14,0.185c0.171,0.25,0.541,0.392,0.796,0.611c0.199,0.172,0.54,0.262,0.739,0.406
			c0.123,0.09,0.443,0.336,0.652,0.379c0.065,0.016,0.065,0.023,0.119,0.031c0.088,0.016,0.056,0.02,0.203,0.033
			c0.221,0.021,0.135,0.035,0.485,0.059c0.419,0.096,0.739,0.008,0.833-0.262c0.009-0.006,0.01-0.031,0.018-0.037
			c0.111-0.096,0.068-0.086,0.094-0.133c0.027-0.047,0.084-0.131,0.111-0.219c0.035-0.121,0.104-0.262,0.119-0.416
			c0.033-0.314-0.045-0.552-0.119-0.74c0.039-0.166,0.17-0.238,0.276-0.334c0.242-0.117,0.504-0.217,0.75-0.343
			c0.077-0.04,0.144-0.101,0.224-0.14c0.086-0.043,0.168-0.096,0.248-0.157c0.055-0.041,0.122-0.071,0.176-0.119
			c0.056-0.047,0.121-0.084,0.178-0.131c0.109-0.089,0.287-0.183,0.406-0.269c0.242-0.172,0.463-0.286,0.692-0.461
			c0.101-0.076,0.188-0.178,0.286-0.26c0.092-0.074,0.227-0.154,0.225-0.295c-0.173-0.1-0.313-0.002-0.453,0.045
			c-0.069,0.022-0.146,0.045-0.213,0.063c-0.146,0.041-0.281,0.095-0.416,0.14c-0.072,0.022-0.148,0.027-0.225,0.057
			c-0.063,0.022-0.166,0.039-0.229,0.055c-0.112,0.027-0.196,0.064-0.314,0.093c-0.161,0.037-0.27,0.117-0.428,0.142
			c-0.064,0.01-0.188,0.047-0.254,0.062c-0.053,0.013-0.129,0.017-0.185,0.026c-0.071,0.017-0.11,0.011-0.198,0.021
			c-0.078,0.01-0.158,0.031-0.225,0.036c-0.182,0.017-0.266,0.043-0.463,0.065c-0.043,0.004-0.168,0.041-0.212,0.045
			c-0.05,0.008-0.124,0.019-0.177,0.029c-0.07,0.012-0.116,0.006-0.213-0.021c0.043-0.271,0.099-0.453,0.259-0.62
			c0.065-0.066,0.182-0.145,0.278-0.23c0.131-0.117,0.213-0.205,0.377-0.254c0.119-0.037,0.305-0.021,0.299-0.189
			c-0.008-0.178-0.264-0.149-0.473-0.139c-0.328,0.018-0.525,0.11-0.796,0.193c-0.18,0.055-0.286,0.088-0.463,0.176
			c-0.043,0.021-0.089,0.045-0.147,0.063c-0.035,0.013-0.119,0.055-0.166,0.046c-0.047-0.008-0.172-0.145-0.231-0.213
			c-0.069-0.083-0.134-0.161-0.185-0.26c-0.084-0.158-0.102-0.328-0.168-0.49c-0.02-0.047-0.029-0.092-0.045-0.139
			c-0.018-0.047-0.041-0.094-0.058-0.14c-0.017-0.05-0.04-0.094-0.056-0.14c-0.034-0.104-0.036-0.21-0.074-0.313
			c-0.02-0.06-0.086-0.147-0.129-0.231c-0.035-0.069-0.137-0.164-0.146-0.214c-0.061-0.256,0.219-0.377,0.286-0.555
			c0.054-0.138,0.063-0.418-0.02-0.546c-0.084-0.127-0.291-0.266-0.49-0.286c-0.108-0.013-0.267-0.027-0.351,0.083
			c0.022,0.181-0.043,0.26-0.088,0.393c-0.069-0.068-0.141-0.164-0.273-0.197c-0.124-0.033-0.34-0.047-0.407-0.02
			c-0.059,0.024-0.054,0.104-0.11,0.129c-0.137-0.127-0.207-0.275-0.332-0.388c-0.146-0.13-0.301-0.167-0.52-0.204
			c-0.227-0.037-0.461-0.139-0.713-0.146c-0.115-0.005-0.243,0.006-0.352,0.026c-0.055,0.01-0.107,0.022-0.162,0.033
			c-0.078,0.014-0.148,0.022-0.217,0.04c-0.275,0.072-0.418,0.294-0.648,0.408c-0.035,0.019-0.079,0.025-0.12,0.045
			c-0.081,0.041-0.194,0.089-0.322,0.103c-0.192,0.021-0.358,0.006-0.536,0.02c-0.172,0.014-0.332,0.055-0.479,0.074
			c-0.319,0.043-0.543,0.098-0.808,0.186c-0.119,0.039-0.233,0.082-0.359,0.129c-0.105,0.041-0.204,0.119-0.324,0.168
			c-0.327,0.125-0.804,0.146-1.229,0.174c-0.1,0.008-0.199,0.031-0.297,0.037c-0.283,0.021-0.619-0.026-0.879-0.045
			c-0.139-0.012-0.287,0.006-0.406-0.01c-0.07-0.01-0.144-0.031-0.215-0.041c-0.065-0.006-0.129-0.006-0.203-0.016
			c-0.086-0.012-0.133-0.033-0.229-0.035c-0.038,0-0.113-0.008-0.15-0.011c-0.168-0.017-0.371-0.103-0.527-0.12
			c-0.073-0.008-0.143,0.01-0.223,0c-0.16-0.02-0.31-0.066-0.453-0.083c-0.153-0.017-0.311-0.015-0.453-0.019
			c-0.149-0.004-0.279,0.028-0.426,0.047c-0.352,0.041-0.688,0.057-1.056,0.119c-0.104,0.019-0.185,0.045-0.333,0.056
			c-0.279,0.021-0.639,0.06-0.951,0.083c-0.313,0.025-0.891,0.085-0.945,0.09c-0.055,0.006-0.568,0.163-0.568,0.163l-0.148,0.069
			c0,0-0.06,0.014-0.306,0.201c-0.128,0.071-0.196,0.144-0.196,0.144s-0.088,0.085-0.386,0.341
			c-0.102,0.064-0.257,0.313-0.261,0.313c0,0-0.342,0.438-0.557,0.725c-0.09,0.119-0.141,0.201-0.213,0.354
			c-0.029,0.062-0.076,0.116-0.103,0.176c-0.022,0.053-0.067,0.133-0.095,0.197c-0.057,0.131-0.137,0.309-0.154,0.478
			c-0.009,0.073-0.014,0.161-0.02,0.243c-0.006,0.078-0.006,0.146-0.01,0.229c-0.021,0.705-0.027,1.716,0.027,2.47
			c-0.09,0.086-0.109,0.295-0.12,0.52c-0.007,0.162,0.021,0.336,0.028,0.473c0.003,0.055-0.026,0.129,0,0.229
			c0.002,0.047,0.007,0.092,0.019,0.123c0.017,0.049,0.048,0.066,0.103,0.027c-0.004,0.035,0.035,0.037,0.066,0.021
			c0.012-0.02,0.051,0.025,0.063,0.063c0.038-0.01-0.007-0.045,0.036-0.049c0.045-0.01,0.074,0.008,0.101,0.018
			c0.036-0.066,0.062-0.092,0.021-0.199c0.006-0.059,0.041,0.018,0.057-0.027c-0.085-0.174,0-0.496-0.064-0.77
			c-0.022-0.1-0.089-0.189-0.103-0.287c-0.015-0.117,0.019-0.25,0.028-0.369c0.014-0.189-0.024-0.387,0.045-0.545
			c0.08,0.014,0.086,0.125,0.103,0.184c0.065,0.234,0.175,0.447,0.204,0.723c0.033,0.043,0.031,0.104,0.057,0.148
			c0.02,0.037,0.045,0.047,0.072,0.082c0.079,0.098,0.155,0.256,0.23,0.391c0.115,0.197,0.257,0.559,0.257,0.559
			s0.041,0.779-0.022,1.172c-0.021,0.111-0.068,0.229-0.095,0.352c-0.038,0.189-0.129,0.379-0.092,0.609
			c0.286,0.354,0.655,0.623,0.952,0.963c-0.079,0.143-0.209,0.283-0.157,0.527c0.05,0.074,0.147,0.063,0.231,0.064
			c0.647,0.004,1.459-0.051,2.137-0.104c0.146-0.012,0.344,0.049,0.435-0.047c0.095-0.244-0.161-0.246-0.296-0.305
			c-0.135-0.061-0.238-0.209-0.313-0.324c-0.027-0.043-0.073-0.074-0.094-0.111c-0.061-0.107-0.106-0.26-0.156-0.396
			c-0.135-0.373-0.063-0.854-0.195-1.258c0.016-0.398-0.069-0.799,0.074-1.186c0.072-0.193,0.19-0.336,0.313-0.5
			c0.034-0.045,0.064-0.1,0.104-0.146c0.035-0.047,0.09-0.074,0.121-0.121c0.156-0.242,0.143-0.553,0.369-0.75
			c0.192,0.25,0.52,0.414,0.769,0.641c0.141,0.127,0.294,0.254,0.462,0.385c0.104,0.08,0.17,0.141,0.292,0.195
			c0.078,0.035,0.146,0.066,0.235,0.104c0.088,0.035,0.168,0.074,0.242,0.102c0.121,0.043,0.254,0.074,0.387,0.123
			c0.326,0.115,0.771,0.24,1.168,0.275c0.265,0.025,0.551,0.014,0.832,0.02c0.254,0.006,0.511,0.006,0.768,0
			c0.365-0.008,0.744-0.002,1.11-0.027c0.202-0.014,0.415-0.066,0.618-0.102c0.211-0.033,0.414-0.064,0.603-0.121
			c0.008,0.137,0.06,0.271,0.058,0.416c-0.002,0.076-0.033,0.166-0.047,0.262c-0.007,0.045-0.023,0.088-0.033,0.131
			c-0.021,0.082-0.051,0.146-0.061,0.238c-0.023,0.244-0.002,0.535-0.037,0.758c-0.008,0.051-0.039,0.1-0.046,0.148
			c-0.021,0.15,0.013,0.301-0.009,0.441c-0.01,0.074-0.082,0.129-0.12,0.195c-0.052,0.09-0.099,0.191-0.167,0.285
			c-0.063,0.088-0.165,0.164-0.204,0.24c-0.024,0.055-0.045,0.148-0.019,0.188c0.05,0.068,0.258,0.021,0.379,0.037
			c0.066,0.006,0.132,0.039,0.203,0.045c0.223,0.021,0.476-0.004,0.722-0.01c0.687-0.016,1.479-0.012,2.185-0.027
			c0.023-0.369-0.365-0.322-0.582-0.479c-0.063-0.047-0.105-0.146-0.166-0.225c-0.1-0.123-0.246-0.26-0.188-0.496
			c0.011-0.049,0.044-0.098,0.05-0.15s-0.01-0.105,0.006-0.193c0.014-0.066,0.063-0.148,0.098-0.24
			c0.096-0.266,0.162-0.553,0.295-0.775c0.054-0.09,0.134-0.178,0.192-0.27c0.175-0.258,0.548-0.822,0.548-0.822"/>
	</g>
</g>
<g id="Foreground1">
</g>
</svg>
