<?xml version="1.0" encoding="utf-8"?>
<!-- Generator: Adobe Illustrator 15.0.2, SVG Export Plug-In . SVG Version: 6.00 Build 0)  -->
<!DOCTYPE svg PUBLIC "-//W3C//DTD SVG 1.1//EN" "http://www.w3.org/Graphics/SVG/1.1/DTD/svg11.dtd">
<svg version="1.1" id="Layer_1" xmlns="http://www.w3.org/2000/svg" xmlns:xlink="http://www.w3.org/1999/xlink" x="0px" y="0px"
	 width="32px" height="32px" viewBox="0 0 32 32" enable-background="new 0 0 32 32" xml:space="preserve">
<g id="Foreground1">
</g>
<g id="Background1">
	<path fill="#FFFFFF" d="M23.038,0.811c0,0.022,0.028,0.015,0.032,0.033c0.33,1.253-0.115,2.62-0.489,3.53
		c-0.089,0.221-0.247,0.405-0.22,0.655c0.324-0.366,0.568-0.813,0.846-1.227c0.277-0.638,0.645-1.187,0.878-1.866
		c0.146-0.113,0.122-0.395,0.306-0.471c0.075,0.195,0.062,0.412,0.033,0.589C24.29,2.9,23.879,3.596,23.527,4.239
		c-0.157,0.293-0.373,0.506-0.354,0.842c0.73-0.74,1.325-1.617,2.044-2.371c0.063-0.106,0.109-0.228,0.236-0.27
		c0.021,0.551-0.274,0.882-0.474,1.244c-0.215,0.391-0.457,0.732-0.728,1.059c-0.13,0.156-0.354,0.322-0.289,0.572
		c0.313-0.256,0.644-0.49,0.964-0.738s0.648-0.508,1.032-0.689c-0.028,0.359-0.409,0.513-0.541,0.824
		c-0.208,0.158-0.358,0.459-0.476,0.656c0.313-0.012,0.479-0.41,0.813-0.236c-0.053,0.326-0.248,0.629-0.457,0.857
		c-0.068,0.077-0.244,0.139-0.168,0.286c0.225-0.124,0.485-0.011,0.523,0.167c0.039,0.189-0.086,0.333-0.15,0.471
		c-0.095,0.192-0.439,0.276-0.475,0.438c0.076,0.058,0.255,0.017,0.354,0.05c0.265,0.333-0.141,0.585-0.305,0.79
		c0.303,0.263-0.062,0.608-0.235,0.757c0.122,0.198-0.029,0.389-0.103,0.538c0.081,0.104,0.184,0.188,0.22,0.337
		c-0.072,0.145-0.184,0.297-0.271,0.471c0.242,0.269-0.16,0.481-0.285,0.688c-0.004,0.098,0.084,0.106,0.084,0.202
		c-0.092,0.186-0.125,0.424-0.354,0.471c0.334,0.125-0.097,0.293-0.102,0.488c-0.119,0.055-0.283,0.063-0.425,0.101
		c-0.075,0.084-0.11,0.212-0.185,0.303c0.069,0.143,0.237,0.266,0.185,0.471c-0.021,0.09-0.211,0.147-0.271,0.303
		c-0.021,0.055,0.007,0.093-0.019,0.136c-0.051,0.096-0.205,0.147-0.252,0.251c-0.041,0.095-0.016,0.2-0.051,0.271
		c-0.078,0.152-0.23,0.168-0.32,0.267c0.074,0.282-0.155,0.405-0.32,0.507c0.115,0.384-0.248,0.639-0.659,0.504
		c0.193,0.201,0.134,0.653-0.188,0.674c-0.023,0.129-0.063,0.247-0.148,0.316c-0.105,0.018-0.111-0.156-0.169-0.135
		c0.074,0.152-0.101,0.229-0.103,0.338c-0.004,0.098,0.141,0.178,0.151,0.27c0.046,0.372-0.358,0.438-0.761,0.389
		c0.004,0.061-0.031,0.078-0.034,0.134c0.13,0.187,0.451,0.163,0.761,0.149c0.94-0.041,2.016-0.09,2.873-0.186
		c0.237-0.023,0.516-0.118,0.709,0.033c-0.033,0.199-0.142,0.32-0.236,0.453c0.09,0.102,0.279,0.097,0.305,0.22
		c0.032,0.155-0.184,0.272-0.254,0.403c0.129,0.131,0.441,0.196,0.39,0.438c-0.022,0.111-0.173,0.157-0.253,0.252
		c0.135,0.182,0.393,0.236,0.422,0.521c-0.027,0.076-0.125,0.088-0.15,0.168c0.092,0.226-0.1,0.371-0.254,0.453
		c0.265,0.002,0.121,0.338-0.067,0.252c0.041,0.078,0.067,0.166,0.085,0.271c-0.053,0.108-0.215,0.11-0.354,0.136
		c-0.086,0.096-0.235,0.19-0.424,0.135c-0.074,0.23-0.593,0.15-0.811,0.135c-0.029,0.05-0.025,0.132-0.104,0.135
		c-0.172,0.032-0.429,0.018-0.572-0.033c-0.094,0.167-0.366,0.137-0.594,0.102c-0.117,0.103-0.271,0.24-0.438,0.219
		c-0.156-0.021-0.344-0.275-0.475-0.387c-0.362-0.309-0.633-0.547-0.91-0.875c-0.149-0.174-0.318-0.313-0.426-0.487
		c-0.396-0.104-0.864-0.146-1.299-0.218c-0.09,0.287-0.744,0.121-0.964,0.101c0.216,0.11,0.603,0.142,0.574,0.438
		c-0.24,0.047-0.427,0.146-0.508,0.354c-0.312,0.074-0.605,0.169-0.793,0.368c-0.074,0.021-0.132-0.03-0.169,0
		c-0.084,0.155-0.198,0.274-0.439,0.271c-0.064,0.168-0.252,0.164-0.389,0.252c-0.061,0.039-0.076,0.121-0.137,0.168
		c-0.047,0.037-0.147,0.071-0.219,0.119c-0.248,0.161-0.513,0.262-0.93,0.185c-0.212,0.226-0.659,0.22-1.064,0.252
		c-0.142,0.106-0.483,0.185-0.709,0.103c-0.117-0.043-0.119-0.177-0.235-0.152c0.049,0.231-0.335,0.324-0.608,0.287
		c-0.087-0.013-0.146-0.072-0.219-0.068c-0.083,0.008-0.16,0.107-0.254,0.119c-0.258,0.029-0.586-0.137-0.676-0.186
		c-0.239,0.108-0.89,0.488-0.979,0c-0.292,0.196-0.498,0.479-0.912,0.555c-0.102-0.229,0.185-0.494,0.084-0.723
		c-0.382,0.031-0.829,0.313-1.231,0.268c0.06-0.17,0.313-0.146,0.318-0.368c-0.232-0.112-0.555,0.024-0.775,0.052
		c-0.2,0.021-0.457,0.016-0.659,0c-0.231-0.02-0.517-0.121-0.744-0.203c-0.289-0.103-0.696-0.308-0.878-0.486
		c-0.232-0.23-0.436-0.502-0.645-0.739c-0.066-0.078-0.205-0.188-0.102-0.302c0.18,0.024,0.223,0.188,0.457,0.115
		c0.234,0.166,0.37,0.43,0.777,0.422c0.203,0.063,0.232,0.306,0.388,0.438c0.175,0.146,0.635,0.322,0.913,0.354
		c0.439,0.049,0.57-0.146,0.845-0.285c0.197-0.101,0.415-0.127,0.558-0.27c-0.146-0.007-0.281,0.018-0.305-0.084
		c-0.039-0.18,0.309-0.143,0.372-0.15c0.319-0.049,0.604-0.271,0.879-0.438c0.121-0.071,0.245-0.138,0.355-0.218
		c0.11-0.084,0.2-0.202,0.303-0.27c0.185-0.119,0.399-0.182,0.592-0.285c0.181-0.104,0.357-0.233,0.524-0.354
		c0.168-0.122,0.348-0.231,0.521-0.354c0.172-0.117,0.322-0.281,0.489-0.388c0.056-0.034,0.132-0.03,0.188-0.065
		c0.035-0.023,0.049-0.075,0.084-0.103c0.228-0.159,0.492-0.259,0.727-0.387c0.037-0.022,0.096-0.028,0.152-0.034
		c0.15-0.134,0.318-0.254,0.455-0.402c-0.283-0.252-0.539-0.578-0.93-0.757c-0.094-0.043-0.207-0.043-0.304-0.083
		c-0.062-0.025-0.114-0.101-0.187-0.119c-0.155-0.041-0.332,0.041-0.508,0.053c0.014-0.154-0.037-0.123-0.101-0.271
		c0.051-0.122,0.012-0.271,0.051-0.387c0.083-0.252,0.38-0.335,0.659-0.387c0.148-0.191,0.613-0.256,0.912-0.22
		c0.252,0.031,0.521,0.152,0.727,0.202c0.444,0.107,0.791,0.182,1.115,0.018c0.178-0.092,0.332-0.27,0.54-0.403
		c0.213-0.138,0.416-0.278,0.524-0.438c0.158-0.232,0.291-0.535,0.438-0.808c0.15-0.272,0.273-0.575,0.405-0.856
		c0.146-0.31,0.407-0.668,0.573-0.925c0.093-0.138,0.121-0.282,0.188-0.438c0.1-0.23,0.258-0.457,0.372-0.688
		c0.12-0.242,0.188-0.513,0.304-0.757c0.118-0.248,0.31-0.474,0.439-0.723c0.402-0.763,0.883-1.533,1.268-2.253
		c0.039-0.028,0.129-0.005,0.151-0.05c0.521-0.932,0.581-2.309,0.592-3.648c0.002-0.274-0.045-0.568,0.067-0.807
		c0.135,0.096,0.201,0.305,0.236,0.488c0.172,0.888,0.053,2.082-0.137,2.791c0.223-0.237,0.256-0.563,0.355-0.926
		c0.052-0.192,0.156-0.373,0.201-0.555c0.084-0.326,0.174-0.71,0.22-1.074c0.073-0.586,0.088-1.269,0.136-1.748
		c0.018-0.156-0.023-0.365,0.084-0.438c0.121,0.245,0.202,0.596,0.254,0.841c0.063,0.296-0.02,0.613-0.033,0.941
		c-0.007,0.15,0.012,0.306,0,0.453c-0.05,0.731-0.383,1.396-0.508,1.867c0.189-0.092,0.227-0.328,0.307-0.504
		c0.17-0.373,0.33-0.75,0.473-1.144c0.074-0.206,0.113-0.42,0.188-0.623c0.07-0.196,0.15-0.365,0.187-0.571
		c0.091-0.545,0.233-1.096,0.321-1.664C23.005,0.811,23.021,0.811,23.038,0.811z M11.516,16.379
		c0.185-0.115,0.442-0.154,0.709-0.188C12.063,16.018,11.501,16.07,11.516,16.379z"/>
</g>
</svg>
