<?xml version="1.0" encoding="utf-8"?>
<!-- Generator: Adobe Illustrator 15.0.2, SVG Export Plug-In . SVG Version: 6.00 Build 0)  -->
<!DOCTYPE svg PUBLIC "-//W3C//DTD SVG 1.1//EN" "http://www.w3.org/Graphics/SVG/1.1/DTD/svg11.dtd">
<svg version="1.1" id="Layer_1" xmlns="http://www.w3.org/2000/svg" xmlns:xlink="http://www.w3.org/1999/xlink" x="0px" y="0px"
	 width="32px" height="32px" viewBox="0 0 32 32" enable-background="new 0 0 32 32" xml:space="preserve">
<g id="Foreground1">
</g>
<g id="Background1">
	<path fill="#FFFFFF" d="M12.984,9.095c0.402,0.091,0.691,0.298,0.999,0.528c0.009,0.006,0.022,0.023,0.031,0.03
		c0.194,0.195,0.345,0.489,0.522,0.74c0.366,0.515,0.657,0.951,1.049,1.479c0.082,0.11,0.18,0.233,0.293,0.34
		c0.125,0.115,0.229,0.286,0.354,0.323c0.104,0.03,0.216,0.046,0.324,0.076c0.099,0.028,0.18,0.096,0.277,0.124
		c0.061,0.019,0.146,0.013,0.215,0.03c0.125,0.031,0.252,0.042,0.433,0.077c0.31,0.061,0.726,0.12,1.095,0.185
		c0.281,0.05,0.559,0.073,0.831,0.139c0.397,0.097,0.835,0.164,1.202,0.277c0.229,0.07,0.416,0.062,0.694,0.108
		c0.103,0.018,0.188,0.078,0.292,0.106c0.107,0.03,0.229,0.036,0.339,0.063c1.478,0.354,2.882,0.726,4.313,1.218
		c0.146,0.051,0.287,0.118,0.434,0.17c0.432,0.153,0.887,0.266,1.294,0.462c0.312,0.072,0.553,0.212,0.848,0.339
		c0.249,0.107,0.65,0.198,0.632,0.54c-0.013,0.24-0.396,0.42-0.584,0.51c-0.135,0.063-0.263,0.109-0.4,0.152
		c-0.133,0.041-0.266,0.109-0.4,0.14c-0.223,0.048-0.434,0.044-0.646,0.093c-0.205,0.049-0.406,0.118-0.633,0.123
		c0.023,0.074,0.024,0.245-0.028,0.309c-0.054,0.063-0.216,0.063-0.324,0.107c-0.129,0.055-0.188,0.127-0.276,0.153
		c-0.369,0.114-0.843,0.11-1.295,0.17c-0.221,0.026-0.438,0.06-0.662,0.077c-0.22,0.019-0.455,0-0.662,0.029
		c-0.125,0.019-0.237,0.082-0.354,0.094c-1.101,0.105-2.188,0.115-3.206,0.123c-0.131,0.179-0.25,0.43-0.445,0.632
		c-0.088,0.09-0.201,0.153-0.293,0.247c-0.089,0.087-0.144,0.211-0.23,0.292c-0.188,0.172-0.432,0.35-0.633,0.446
		c-0.127,0.063-0.477,0.188-0.692,0.107c-0.138-0.051-0.142-0.189-0.17-0.369c-0.371,0.398-0.8,0.747-1.231,1.108
		c-0.07,0.06-0.135,0.118-0.199,0.187c-0.313,0.313-0.729,0.568-1.096,0.848c-0.143,0.107-0.289,0.219-0.445,0.324
		c-0.152,0.101-0.313,0.24-0.463,0.308c-0.261,0.114-0.529,0.187-0.815,0.247c-0.041,0-0.083,0-0.124,0
		c-0.333-0.215,0.096-0.688,0.216-0.909c0.171-0.315,0.407-0.696,0.54-1.048c0.344-0.404,0.533-0.969,0.848-1.402
		c0.139-0.479,0.438-0.795,0.51-1.341c-0.854,0.04-1.685-0.171-2.514-0.199c-0.193-0.009-0.375-0.016-0.555-0.048
		c-0.154-0.025-0.301-0.096-0.462-0.122c-0.168-0.028-0.354,0.002-0.524-0.03c-0.144-0.027-0.281-0.125-0.431-0.141
		c-0.177,0.25-0.267,0.586-0.724,0.557c-0.278-0.123-0.324-0.479-0.493-0.709C9.319,17.45,9.092,17.37,8.847,17.42
		c-0.075,0.016-0.146,0.069-0.216,0.094c-0.201,0.063-0.446,0.063-0.662,0.152c-0.071,0.029-0.129,0.098-0.201,0.123
		c-0.115,0.044-0.243,0.059-0.354,0.107c-0.197,0.09-0.388,0.24-0.617,0.108c0.049-0.164,0.228-0.213,0.34-0.31
		c0.121-0.104,0.183-0.241,0.293-0.354c0.053-0.194,0.125-0.368,0.199-0.54c-0.185,0.006-0.256-0.087-0.369-0.046
		c-0.204,0.073-0.223,0.593-0.37,0.815c-0.13,0.197-0.433,0.435-0.509,0.031c-0.045-0.229,0.026-0.485-0.03-0.693
		c-0.073-0.264-0.218-0.438-0.323-0.646C5.86,16.691,5.92,17.346,5.75,17.773c-0.209,0.272-0.316,0.729-0.785,0.692
		c-0.032-0.229,0.033-0.505,0.063-0.786c0.029-0.287,0.042-0.592,0.077-0.863c0.021-0.164,0.11-0.348,0.093-0.492
		c-0.021-0.186-0.271-0.563-0.354-0.739c-0.356-0.759-0.646-1.551-1.188-2.096c-0.172-0.044-0.426,0.113-0.508-0.047
		c-0.056-0.106,0.052-0.255,0.046-0.354c-0.006-0.111-0.089-0.278-0.139-0.354c-0.137-0.204-0.432-0.253-0.51-0.523
		c0-0.047,0-0.093,0-0.139c0.063-0.185,0.256-0.118,0.463-0.108c0.104,0.062,0.181,0.149,0.309,0.187
		c0.893,0.863,1.848,1.667,2.666,2.604c0.167-0.173,0.313-0.512,0.339-0.848c0.015-0.207-0.168-0.669,0.046-0.725
		c0.229-0.059,0.422,0.271,0.524,0.386c0.159,0.181,0.264,0.334,0.417,0.478c0.632-0.182,1.207-0.46,1.895-0.602
		c0.115-0.022,0.217-0.029,0.324-0.063c0.246-0.072,0.557-0.148,0.863-0.199c0.188-0.031,0.404-0.029,0.585-0.094
		c0.119-0.042,0.28-0.172,0.385-0.262c0.175-0.148,0.384-0.41,0.57-0.632c0.147-0.176,0.306-0.383,0.385-0.539
		c0.04-0.08,0.056-0.199,0.092-0.309c0.026-0.078,0.077-0.149,0.093-0.217c0.088-0.389,0.01-0.869,0.045-1.31
		c0.025-0.295,0.068-0.647,0.334-0.726"/>
</g>
</svg>
