<?xml version="1.0" encoding="utf-8"?>
<!-- Generator: Adobe Illustrator 15.0.2, SVG Export Plug-In . SVG Version: 6.00 Build 0)  -->
<!DOCTYPE svg PUBLIC "-//W3C//DTD SVG 1.1//EN" "http://www.w3.org/Graphics/SVG/1.1/DTD/svg11.dtd">
<svg version="1.1" id="Layer_1" xmlns="http://www.w3.org/2000/svg" xmlns:xlink="http://www.w3.org/1999/xlink" x="0px" y="0px"
	 width="32px" height="32px" viewBox="0 0 32 32" enable-background="new 0 0 32 32" xml:space="preserve">
<g id="Background1">
</g>
<g id="Foreground1">
	<path fill="#FFFFFF" d="M14.955,22.906c-0.816-0.506-0.143-2.023,0.102-2.672c0.131-0.35,0.133-0.598,0.133-0.967
		c0-0.084-0.576-0.205-0.668-0.232c-0.262-0.08-0.594,0.367-0.853,0.5c-0.247,0.129-0.87,0.256-1.006,0.527
		c-0.089,0.18-0.329,0.484-0.338,0.682c-0.067,0.336,0.392,0.523,0.468,0.762c-0.461,0.055-0.922,0.061-1.385,0.061
		c-0.447,0-0.537-0.09-0.719-0.525c-0.074-0.166-0.123-0.881-0.232-0.881c-0.262,0-0.665,0.322-0.898,0.447
		c-0.662,0.355-1.346,0.686-2.061,0.916c-1.367,0.447-2.891,0.775-4.318,0.945c-0.194,0.021-1.793,0.232-1.726-0.064
		c0.031-0.158,0.979-0.131,1.172-0.26c-0.12-0.16-0.373-0.371-0.349-0.582c0.244,0.076,0.423,0.342,0.646,0.467
		c0.098,0,0.567-0.061,0.467-0.232c0.017-0.258-0.476-0.436-0.412-0.752c0.13,0.113,0.26,0.229,0.39,0.344
		c0.237,0.207,0.179-0.027,0.37-0.178c0,0.115-0.072,0.68,0.186,0.555c0.226-0.109,0.56-0.201,0.692-0.432
		c0.138-0.24,0.177-0.537,0.347-0.762c0.172,0.021,0.006,0.578,0,0.639c0.151-0.047,0.155-0.199,0.205-0.32
		c0.066-0.164,0.328-0.037,0.461-0.064c0.282-0.057,0.48-0.25,0.618-0.492c0.147-0.271,0.154-0.229,0.462-0.229
		c0.153,0,0.168-0.047,0.28-0.158c0.185-0.184,0.548-0.422,0.606-0.689c0-0.201-0.099-0.383-0.06-0.586
		c0.021-0.119,0.47-0.057,0.548-0.057c0.321,0,0-0.803,0.348-0.873c0.479-0.098,0.752-0.104,1.065-0.5
		c0.24-0.301-0.098-0.207-0.098-0.518c-0.046-0.197,0.019-0.465,0.034-0.665c0.047-0.536,0.23-0.459,0.701-0.459
		c0-0.636-0.065-0.727,0.58-0.727c0.278,0,0.559,0,0.834,0c0.101,0,0.491-0.52,0.25-0.605c-0.396-0.138-0.478-0.178-0.529-0.593
		c-0.021-0.294-0.021-0.592-0.113-0.875c-0.063-0.181-0.35-0.597-0.221-0.791c0.115-0.181,1.281-0.03,1.502-0.03
		c0-0.214-0.135-1.131,0.119-1.168c0.149-0.095,0.615,0.03,0.746,0.064c0.517,0.133,0.983,0.38,1.474,0.582
		c0-0.619,0.421-1.153,0.479-1.757c0.028-0.352-0.029-0.943,0.453-0.552c0.266,0.212,0.502,0.461,0.756,0.686
		c0.192,0.173,0.428,0.3,0.646,0.436c0.275,0.17,0.32,0.127,0.54-0.168c0.206-0.277,0.438-0.724,0.78-0.853
		c0.424-0.16,0.519,0.573,0.619,0.822c0.155,0.392,0.924-0.676,1.068-0.086c0.082,0.333,0.369,0.917,0.227,1.258
		c-0.072,0.18,0.082,0.368,0.33,0.33c0.279-0.204,0.551-0.426,0.818-0.646c0.096-0.087,0.271-0.226,0.363-0.095
		c0.105,0.156,0.285,0.095,0.48,0.095c0,0.543,0,1.086,0,1.629c0,0.029,0.276,0.241,0.289,0.251
		c0.264,0.225,0.209,0.097,0.459-0.066c0.162-0.106,0.355-0.183,0.553-0.183c0.01,0,0.36,0.189,0.354,0.174
		c0.149,0.369-0.188,1.031,0.013,1.253c0.163,0.184,0.329,0.331,0.582,0.331c0.209-0.033,0.6-0.356,0.807-0.193
		c0.244,0.193,0.072,0.51,0.072,0.75c0,0.111,0.221,0.196,0.301,0.238c0.107,0.053,0.482-0.277,0.664-0.285
		c0,0.331-0.074,0.507,0.285,0.601c0.148,0.036,0.399-0.145,0.51-0.017c0.063,0.078,0.108,0.205,0.108,0.308
		c0.117,0.063,0.25,0.108,0.375,0.151c0.114,0.041,0.404-0.092,0.455-0.01c0.154,0.235,0.289,0.246,0.571,0.324
		c0.49,0.135,0.918,0.307,1.371,0.541c0.119,0.061,0.414,0.193,0.438,0.342c0.053,0.301-0.543,0.236-0.689,0.229
		c-0.559-0.033-1.113-0.123-1.676-0.123c-1.213,0-2.728,0.033-3.711,0.838c-0.482,0.398-0.92,0.869-1.373,1.305
		c-0.146,0.137,0.11,0.736,0.15,0.896c0.049,0.186,0.188,0.271,0.227,0.461c0.074,0.344-0.437,0.252-0.67,0.256
		c-0.362,0.008-0.676-0.148-0.721,0.273c-0.012,0.105-0.048,0.289,0.018,0.391c0.058,0.082,0.156,0.152,0.156,0.266
		c0,0.244-1.219,0.176-1.359,0.133c-0.523-0.158-0.225-0.387-0.225-0.715c0.103-0.641-0.057-1.408,0.293-1.988
		c-0.504,0-0.998,0.193-1.496,0.266c-0.336,0.049-0.678,0.039-1.014,0c-0.186-0.021-0.371-0.031-0.559-0.031
		c-0.045,0.029-0.063,0.352-0.076,0.416c-0.139,0.707-0.825,1.08-1.158,1.689c-0.387,0.703,0.325,0.768,0.325,1.354
		C16.314,22.975,15.635,22.945,14.955,22.906"/>
</g>
</svg>
