<?xml version="1.0" encoding="utf-8"?>
<!-- Generator: Adobe Illustrator 15.0.2, SVG Export Plug-In . SVG Version: 6.00 Build 0)  -->
<!DOCTYPE svg PUBLIC "-//W3C//DTD SVG 1.1//EN" "http://www.w3.org/Graphics/SVG/1.1/DTD/svg11.dtd">
<svg version="1.1" id="Layer_1" xmlns="http://www.w3.org/2000/svg" xmlns:xlink="http://www.w3.org/1999/xlink" x="0px" y="0px"
	 width="32px" height="32px" viewBox="0 0 32 32" enable-background="new 0 0 32 32" xml:space="preserve">
<g id="Foreground1">
</g>
<g>
	<polygon fill="#FFFFFF" points="9.072,26.557 14.437,21.192 11.845,18.598 6.476,23.965 	"/>
	<path fill="#FFFFFF" d="M12.929,17.93l2.178,2.178l5.658-5.661c5.889-6.744,4.651-9.002,4.651-9.002L12.929,17.93z M20.543,12.925
		c0.849-0.911,1.604-1.917,2.343-2.952c0.717-1.044,1.43-2.108,2.11-3.217l0.06,0.023c-0.487,1.196-1.086,2.346-1.754,3.45
		c-0.675,1.104-1.429,2.157-2.302,3.116c-0.899,0.931-1.825,1.822-2.735,2.734l-2.746,2.722l-0.045-0.043
		c0.371-0.539,0.793-1.029,1.188-1.548l1.264-1.47L20.543,12.925z"/>
	<polygon fill="#FFFFFF" points="15.3,22.051 16.063,21.282 12.004,17.223 11.233,17.987 	"/>
</g>
</svg>
