<?xml version="1.0" encoding="utf-8"?>
<!-- Generator: Adobe Illustrator 15.0.2, SVG Export Plug-In . SVG Version: 6.00 Build 0)  -->
<!DOCTYPE svg PUBLIC "-//W3C//DTD SVG 1.1//EN" "http://www.w3.org/Graphics/SVG/1.1/DTD/svg11.dtd">
<svg version="1.1" id="Layer_1" xmlns="http://www.w3.org/2000/svg" xmlns:xlink="http://www.w3.org/1999/xlink" x="0px" y="0px"
	 width="32px" height="32px" viewBox="0 0 32 32" enable-background="new 0 0 32 32" xml:space="preserve">
<g id="Background1">
</g>
<g id="Foreground1">
	<g>
		<path fill="#FFFFFF" d="M28.58,11.795c-0.068-0.434,0.068-0.844-0.025-1.206c-0.068-0.26-0.229-0.525-0.34-0.771
			c-0.279-0.637-0.666-1.478,0.031-2.064h-0.209c0-0.296-0.178-0.432-0.369-0.688c-0.148-0.198,0.313-0.733,0.238-1.067
			c-0.232-1.066-1.125,0.03-1.602,0.03c-0.25,0.041-0.636-0.138-0.896-0.177c-0.35-0.055-0.74-0.019-1.092-0.012
			c-0.492,0.012-0.229-0.427-0.662-0.579c-0.621-0.218-1.408,0.425-1.408,1.053c0,0.793-2.387,1.524-2.951,1.793
			c-0.555,0.264-1.232,0.209-1.834,0.209c-0.701,0-1.246,0.197-1.91,0.415c-0.855,0.28-1.676,0.451-2.561,0.576
			C10.834,9.61,8.66,9.662,6.52,10.015c-0.256,0.042-0.869,0.292-1.104,0.046c-0.383-0.4-0.271-1.134-0.348-1.638
			c-0.084-0.546-0.234-1.18-0.672-1.557C4.145,6.649,3.096,6.595,3.492,6.887c0.596,0.44,0.975,0.704,0.975,1.544
			c0,0.688-0.146,1.327,0.168,1.983c0.199,0.413-0.461,0.782-0.637,1.241c-0.166,0.437-0.203,0.921-0.305,1.375
			c-0.199,0.861-0.098,1.773-0.023,2.644c0.076,0.896,0.434,2.032,0.209,2.93c-0.096,0.369-0.342,0.888-0.164,1.268
			c0.119,0.251,0.332,0.443,0.438,0.699c0.201,0.447,0.226,1.021,0.355,1.496c0.105,0.365,0.332,1.276,0.846,1.276
			c0.664,0,1.347-0.128,1.939-0.432c0-0.459-0.496-1.111-0.881-1.354C5.883,21.22,4.924,19.84,5.32,19.214
			c0.481-0.778,0.715-1.69,1.203-2.465c0.289-0.458,0.639-0.871,0.959-0.317c0.283,0.488,0.662,0.918,0.955,1.403
			c0.371,0.606,0.465,1.14,0.465,1.842c0,0.683,0.285,1.063,0.594,1.671c0.434,0.846,1.023,2.29,2.188,2.004
			c0.137-0.033,0.908-0.14,0.908-0.31c0-0.16,0.084-0.604-0.031-0.717c-0.227-0.228-0.451-0.45-0.676-0.677
			c-0.328-0.328-1.027-0.137-1.326-0.588l0.063-0.062c-1.142-0.556,0.041-3.322,0.123-4.19c1.183,0.545,2.332,0.887,3.631,0.967
			c0.496,0.029,0.983,0.146,1.483,0.146c0.338,0.646,0.845,1.095,0.57,1.845c-0.525,1.447-0.963,2.695,0.389,3.865
			c0.523,0.454,1.232,0.898,1.951,0.719c0.299-0.072,0.345-0.058,0.479-0.328c-0.004,0.01,0.103-0.263,0.153-0.263
			c0.105,0,0.181,0.71,0.339,0.816c0.079,0.083,0.258,0.114,0.356,0.213c0.43,0.418,0.754,0.935,1.172,1.36
			c0.479,0.49,0.938,0.699,1.617,0.617c0.348-0.043,1.299-0.166,1.299-0.666c0-0.514-0.701-1.729-1.196-1.818
			c-0.904-0.153-1.615-0.449-1.855-1.411c-0.379-1.513-0.756-3.021-1.133-4.533c-0.219-0.873,1.097-1.521,1.599-2.017
			c0.381-0.375,0.813-0.975,0.975-1.488c0.141-0.448,0.154-0.951,0.389-1.364c0.225-0.389,0.426-0.79,0.648-1.178
			c0.289-0.494,0.785,0.051,1.082,0.304c0.451,0.391,0.705,0.502,0.432,1.053c-0.283,0.576-0.736,1.089-1.006,1.64
			c0.641,0,1.111-0.652,1.451-1.113c0.43-0.582,0.518-0.256,1.137-0.195c-0.115,0.393-0.51,0.889-0.803,1.17
			c0.469,0.453,1.389-0.989,1.551-1.312c0.148-0.297,0.271-0.714,0.484-0.969C28.52,12.916,28.646,12.202,28.58,11.795z
			 M18.816,24.27c-0.062-0.041-0.062-0.082,0-0.123C18.879,24.188,18.879,24.229,18.816,24.27z M17.4,22.051
			c0.021-0.355-0.021-0.865,0.309-1.109c0.371,0.594,0.867,1.158,1.17,1.787C18.404,22.46,17.848,22.374,17.4,22.051z"/>
	</g>
</g>
</svg>
