<?xml version="1.0" encoding="utf-8"?>
<!-- Generator: Adobe Illustrator 15.0.2, SVG Export Plug-In . SVG Version: 6.00 Build 0)  -->
<!DOCTYPE svg PUBLIC "-//W3C//DTD SVG 1.1//EN" "http://www.w3.org/Graphics/SVG/1.1/DTD/svg11.dtd">
<svg version="1.1" id="Layer_1" xmlns="http://www.w3.org/2000/svg" xmlns:xlink="http://www.w3.org/1999/xlink" x="0px" y="0px"
	 width="32px" height="32px" viewBox="0 0 32 32" enable-background="new 0 0 32 32" xml:space="preserve">
<g id="Background1">
</g>
<g id="Foreground1">
	<path fill="#FFFFFF" d="M25.087,2.641c-1.083,0.553-2.16,1.071-3.189,1.735c-0.82,0.528-1.728,1.317-2.645,1.634
		c-1.283,0.935-2.406,2.078-3.492,3.263c-0.272,0.297-0.507,0.279-0.813,0.486c-0.284,0.193-0.159,0.741-0.245,1.075
		c-0.152,0.598-0.452,1.128-0.729,1.667c-0.369,0.787-0.912,1.478-1.418,2.161c-0.188,0.252-0.649,1.035-0.953,1.059
		c-0.358,0.028-0.849-0.287-1.08-0.572c-0.387-0.479-0.313-3.395-1.039-3.395c0,1.22,0.154,2.217-0.035,3.437
		c-0.299,0.536,0,1.739,0,2.34c-0.061,0.371,0.002,0.439-0.377,0.643c-0.184,0.1-0.362,0.206-0.542,0.309
		c-0.454,0.264-0.567,0.354-1.025,0.178c-0.176-0.069-0.485,0.156-0.485,0.365c0,0.162,0.223,0.221,0.223,0.346
		c-0.012,0.589-0.533,1.388-0.746,1.911c-1.104,2.725-1.835,5.647-2.703,8.473c-0.061,0.146-0.26,0.443-0.212,0.609
		c0.124,0.436,0.304,0.063,0.397-0.13c0.535-1.104,1.197-2.127,1.934-3.084c1.287-1.674,2.797-3.098,4.337-4.485
		c1.64-1.479,3.442-2.021,5.485-2.506c0.517-0.121,1.207-0.341,1.703-0.072c0.478,0.259,0.936,0.201,0.633-0.391
		c0.043,0.247-0.454,0.053-0.514,0.034c-0.367-0.11-0.461-0.375-0.693-0.7c-0.069-0.099-0.738-1.021-0.51-1.154
		c0.086-0.044,0.06-0.153,0.06-0.26c0.128-0.002,0.255-0.005,0.382-0.009c0.684-0.021,1.35,0.033,2.031,0.091
		c0.156,0.014,1.525,1,1.186,0.185c0.004,0.053-0.011,0.094-0.041,0.123c-0.149,0-0.093-0.295-0.306-0.359
		c-0.08-0.024-0.47-0.139-0.462-0.301c0.014-0.3,0.027-0.6,0.042-0.897c0.038-0.834,0.077-1.667,0.114-2.501
		c0.061-1.292,0.518-2.564,1.041-3.711c0.484-1.063,1.037-2.38,1.816-3.228c0.9-0.978,1.811-1.838,2.799-2.712
		c0.683-0.604,1.363-1.207,2.047-1.811c0.154-0.137,1.365-1.023,1.365-1.053C27.254,1.429,26.12,2.115,25.087,2.641z M10.31,17.355
		c-0.026-0.383,0.281-0.738,0.567-0.907c0.154-0.089,0.291-0.088,0.456-0.088C11.104,16.655,10.703,17.355,10.31,17.355z"/>
</g>
</svg>
