<?xml version="1.0" encoding="utf-8"?>
<!-- Generator: Adobe Illustrator 15.0.2, SVG Export Plug-In . SVG Version: 6.00 Build 0)  -->
<!DOCTYPE svg PUBLIC "-//W3C//DTD SVG 1.1//EN" "http://www.w3.org/Graphics/SVG/1.1/DTD/svg11.dtd">
<svg version="1.1" id="Layer_1" xmlns="http://www.w3.org/2000/svg" xmlns:xlink="http://www.w3.org/1999/xlink" x="0px" y="0px"
	 width="32px" height="32px" viewBox="0 0 32 32" enable-background="new 0 0 32 32" xml:space="preserve">
<g id="Background1">
</g>
<g id="Foreground1">
	<path fill="#FFFFFF" d="M16.313,21.658c-0.452,0.162-1.009,0.072-1.483,0.072c-0.228,0-0.383,0.025-0.511-0.207
		c-0.101-0.184-0.134-0.334-0.329-0.441c-0.197-0.109-0.273-0.266-0.229-0.49c0.156-0.738-0.014-1.432,0.074-2.168
		c0.125-0.07,0.236-0.277,0.357-0.377c0.18-0.145,0.354-0.291,0.497-0.473c0.101-0.125,0.55-0.85,0.272-0.928
		c-0.642-0.181-1.215-0.605-1.891-0.605c-0.521,0-1.042-0.021-1.561,0.043c-0.432,0.055-0.866,0.11-1.295,0.19
		c-0.405,0.076-0.852,0.243-1.262,0.243c-0.914,0-1.83-0.058-2.744-0.058c-0.791,0-1.634-0.131-2.416-0.264
		c-0.252-0.041-0.502-0.082-0.754-0.125c-0.115-0.02-0.246-0.111-0.123-0.227c0.123-0.116,0.315-0.11,0.477-0.118
		c0.869-0.047,1.74-0.035,2.609-0.097c1.278-0.09,2.592-0.313,3.813-0.712c1.139-0.37,2.275-0.739,3.413-1.109
		c0.44-0.143,0.88-0.287,1.321-0.429c0.391-0.127,0.643-0.411,1.007-0.586c0.468-0.23,0.97-0.472,1.485-0.565
		c0.299-0.054,0.617-0.032,0.922-0.031c0.523,0,0.984-0.201,1.49-0.315c0.223-0.051,0.428-0.042,0.65-0.021
		c0.29,0.026,0.523-0.169,0.775-0.283c0.424-0.191,0.854,0.153,1.26,0.239c0.421,0.089,0.756-0.138,1.113-0.33
		c0.811-0.439,1.334-1.337,2.369-1.233c0.23,0.024,0.483,0.116,0.709,0.126c0.158,0.008,0.286-0.14,0.443-0.062
		c0.169,0.085,0.41,0.238,0.525,0.39c0.111,0.146-0.006,0.336,0.191,0.412c0.158,0.061,0.35,0.051,0.489,0.155
		c0.226,0.164,0.429,0.358,0.646,0.533c0.15,0.124,0.358,0.212,0.428,0.412c0.068,0.208,0.078,0.47,0.078,0.687
		c0,0.145-0.096,0.111-0.223,0.15c-0.133,0.041-0.197,0.076-0.283-0.043c-0.014-0.049,0.049-0.084,0.049-0.132
		c-0.096,0-0.143,0.132-0.244,0.132c-0.158,0-0.043-0.153,0-0.196c-0.029-0.138-0.395,0.16-0.395-0.042
		c0-0.126-0.142-0.048-0.224-0.07c-0.169-0.045-0.31-0.223-0.476-0.28c0,0.243,0.142,0.503,0.336,0.646
		c0.146,0.108,0.352,0.012,0.352,0.189c0.102,0,0.225-0.073,0.266,0.062c0.189-0.169,0.17,0.173,0.141,0.27
		c-0.067,0.213-0.244,0.319-0.463,0.319c-0.233,0-0.42-0.192-0.596-0.321c-0.188-0.136-0.459-0.165-0.678-0.221
		c-0.322-0.083-0.729-0.326-0.969-0.035c-0.127,0.154-0.477,0.055-0.648,0.167c-0.238,0.16-0.285,0.07-0.535,0.07
		c-0.131,0-0.221,0.114-0.344,0.143c-0.188,0.08-0.5,0.002-0.549,0.24c-0.084,0.42-0.504,0.709-0.798,0.993
		c-0.031,0.142,0.185,0.406,0.241,0.537c0.076,0.166,0.142,0.359,0.125,0.544c0,0.089,0.013,0.211-0.113,0.211
		c-0.137,0-0.08-0.153-0.083-0.255c-0.009-0.207-0.081-0.068-0.118,0.042c-0.046,0.142-0.162,0.267-0.316,0.267
		c-0.144,0,0.065-0.193,0.067-0.195c0.115-0.167,0.138-0.512,0.021-0.686c-0.237-0.354-0.932,0.164-1.201,0.226
		c-0.374,0.086-0.909,0.084-1.041,0.528c-0.051,0.168-0.04,0.355-0.117,0.513c-0.078,0.156-0.396,0.211-0.544,0.26
		c-0.169,0.066-0.365,0.047-0.539,0.104c-0.183,0.063-0.335,0.23-0.481,0.35c-0.248,0.197-0.819,0.557-0.453,0.902
		c0.326,0.311,0.797,0.564,1.209,0.738c0.406,0.172,0.545,0.434,0.715,0.82c0.209,0.379,0.642,0.746,0.072,1.076
		c-0.289,0.166-0.627,0.777-0.983,0.344c-0.216-0.264,0.094-0.363,0.19-0.568c0.082-0.176,0.01-0.455-0.076-0.617
		c-0.213-0.402-0.549-0.34-0.94-0.373c-0.208-0.016-0.224-0.223-0.34-0.352c-0.121-0.133-0.261-0.24-0.427-0.311
		c-0.213-0.09-0.596-0.156-0.713-0.369c-0.088-0.156-0.258-0.438-0.192-0.623c0.104-0.301,0.38-0.521,0.438-0.842
		c-0.117,0-0.307,0.242-0.379,0.311c-0.229,0.219-0.488,0.371-0.759,0.537c-0.278,0.172-0.508,0.354-0.808,0.49
		c-0.424,0.188-0.609,0.596-0.668,1.035c-0.041,0.313-0.021,0.625-0.021,0.939c0,0.434,0.65,0.49,0.939,0.535
		c0.339,0.055,0.631,0.238,0.916,0.422C16.816,21.707,16.393,21.629,16.313,21.658"/>
</g>
</svg>
