<?xml version="1.0" encoding="utf-8"?>
<!-- Generator: Adobe Illustrator 15.0.2, SVG Export Plug-In . SVG Version: 6.00 Build 0)  -->
<!DOCTYPE svg PUBLIC "-//W3C//DTD SVG 1.1//EN" "http://www.w3.org/Graphics/SVG/1.1/DTD/svg11.dtd">
<svg version="1.1" id="Layer_1" xmlns="http://www.w3.org/2000/svg" xmlns:xlink="http://www.w3.org/1999/xlink" x="0px" y="0px"
	 width="32px" height="32px" viewBox="0 0 32 32" enable-background="new 0 0 32 32" xml:space="preserve">
<g id="Background1">
</g>
<g id="Foreground1">
	<path fill="#FFFFFF" d="M14.037,21.456c0.037-0.163,0.047-0.3,0.047-0.464c-0.545,0.089-1.207,0.131-1.742-0.035
		c-0.367-0.115-0.627-0.374-0.627-0.777c0-0.225,0.244-0.969-0.188-0.969c0,0.393-0.037,0.781-0.045,1.174
		c-0.006,0.375,0.135,0.692,0.176,1.059c0.004,0.035,0.047,0.355-0.055,0.355c-0.183,0-0.17-0.113-0.297,0.049
		c-0.123,0.149-0.283-0.298-0.437,0.01c-0.172,0.346-0.401-0.246-0.636,0.031c-0.182,0.219-0.45-0.131-0.625-0.242
		c-0.377-0.244-0.37-0.486-0.37-0.883c0-0.354-0.011-0.623-0.214-0.93c-0.325-0.488-0.45-0.27-0.877,0.005
		c-0.733,0.472-1.481,0.954-2.311,1.249c-0.75,0.268-1.529,0.348-2.322,0.303c-0.688-0.037-1.91-0.125-1.91-1.033
		c0.275,0.102,0.494,0.31,0.769,0.416c0.291,0.115,0.636,0.033,0.916-0.07c0.688-0.26,1.345-0.781,1.767-1.383
		c0.284-0.402,0.526-0.842,0.789-1.262c0.762-1.229,1.534-2.429,2.178-3.722c0.266-0.532,0.483-1.128,0.996-1.475
		c0.604-0.411,1.272-0.771,1.938-1.064c1.494-0.658,3-0.768,4.59-0.405c0.623,0.143,1.201,0.362,1.787,0.614
		c0.261,0.112,0.535,0.23,0.815,0.261c0.353,0.038,0.443-0.238,0.554-0.521c0.104-0.267,0.209-0.201,0.351-0.346
		c0.139-0.086,0.063-0.275,0.248-0.309c0.153-0.028,0.207-0.065,0.27-0.212c0.08-0.196,0.344-0.147,0.508-0.283
		c0.279-0.232,0.496-0.38,0.852-0.475c0.271-0.072,0.527-0.268,0.795-0.178c0.168,0.056,0.304-0.185,0.461-0.07
		c0.099,0.07,0.201,0.004,0.295-0.029c0.142-0.049,0.265,0.078,0.404,0.078c0,0.312-0.229,0.704-0.322,1
		c-0.129,0.42-0.219,0.848-0.219,1.289c0,0.372,0.025,0.776,0.15,1.127c0.166,0.467,0.596,0.302,0.994,0.269
		c2.047-0.175,4.129-0.271,6.076-0.989c-0.049,0.24-0.42,0.471-0.633,0.577c0.489,0.037,0.973-0.339,1.461-0.347
		c0,0.259-0.707,0.529-0.888,0.617c-0.481,0.234-0.995,0.406-1.518,0.527c-0.416,0.097-0.841,0.16-1.261,0.234
		c-1.022,0.183-2.063,0.314-3.055,0.641c-0.209,0.144-0.039,0.274,0.174,0.407c0.248,0.202,0.531,0.37,0.797,0.549
		c0.336,0.227,0.646,0.264,1.043,0.264c0.174,0,0.898-0.161,0.979-0.029c0.179,0.289-0.342,0.75-0.342,1.056
		c0,0.425,0.211,0.854,0.1,1.276c-0.096,0.371-0.313,0.991-0.709,1.144c-0.299,0.112-0.084-0.568-0.479-0.677
		c0.17,0.324-0.287,0.354-0.521,0.354c-0.523,0-0.922-0.369-1.385-0.559c-0.432-0.176-0.908-0.103-1.354-0.213
		c-0.328-0.08-0.621-0.539-0.959-0.506c-0.177,0.088-0.474,0.146-0.519,0.35c0.035,0.208,0.104,0.41,0.115,0.624
		c0.01,0.261-0.064,0.511-0.064,0.77c-0.01,0.29,0.08,0.485,0.216,0.743c0.034,0.064,0.289,0.648-0.037,0.4
		c0.02,0.213-0.222,0.1-0.312,0.066c-0.221-0.08-0.239,0.198-0.461,0.117c-0.084-0.031-0.416-0.215-0.496-0.184
		c-0.125,0.328-0.305,0.211-0.565,0.101c-0.336-0.142-0.406-0.333-0.334-0.687c0.078-0.392-0.051-0.67-0.314-0.955
		c-0.598-0.637-1.17-0.221-1.789,0.146c-0.156,0.095-0.553,0.243-0.639,0.411c0,0.158-0.01,0.316-0.01,0.479
		c0,0.266,0.035,0.519,0.188,0.744c0.158,0.236,0.535,0.657,0.207,0.885c-0.227,0.156-0.201-0.031-0.416-0.031
		c-0.115,0-0.043,0.24-0.201,0.24c-0.168,0-0.268-0.176-0.438-0.176c-0.082,0-0.102,0.106-0.141,0.155
		c-0.076,0.097-0.309-0.036-0.387-0.075C14.416,21.957,13.977,21.74,14.037,21.456"/>
</g>
</svg>
