<?xml version="1.0" encoding="utf-8"?>
<!-- Generator: Adobe Illustrator 15.0.2, SVG Export Plug-In . SVG Version: 6.00 Build 0)  -->
<!DOCTYPE svg PUBLIC "-//W3C//DTD SVG 1.1//EN" "http://www.w3.org/Graphics/SVG/1.1/DTD/svg11.dtd">
<svg version="1.1" id="Layer_1" xmlns="http://www.w3.org/2000/svg" xmlns:xlink="http://www.w3.org/1999/xlink" x="0px" y="0px"
	 width="32px" height="32px" viewBox="0 0 32 32" enable-background="new 0 0 32 32" xml:space="preserve">
<g id="Background1">
</g>
<g id="Foreground1">
	<path fill="#FFFFFF" d="M15.024,21.993c-0.479,0.309-0.604,0.367-1.16,0.367c-0.362,0-0.444-0.851,0.095-0.674
		c0.101-0.117,0-0.736,0-0.902c0-0.072,0.22-0.307,0.238-0.445c0.057-0.422,0.126-0.838,0.301-1.23
		c0.118-0.264,0.274-0.524,0.539-0.668c0.219-0.114,0.551-0.258,0.632-0.518c0.221-0.703-1.419-0.701-0.602-1.428
		c0.246-0.219,1.443-0.521,1.33-0.875c-0.101-0.317-0.069-0.972-0.442-1.106c-1.294-0.466-2.583-0.953-3.886-1.398
		c-1.68-0.588-3.575-0.725-5.34-0.55c-0.979,0.097-1.955,0.245-2.938,0.292c-0.675,0.033-1.959,0.264-2.476-0.29
		c1.869,0,3.609-0.395,5.449-0.741c1.043-0.196,2.068-0.254,3.133-0.223c1.123,0.032,2.242,0.17,3.349,0.361
		c1.001,0.172,2.024,0.515,3.036,0.567c0.898,0.054,1.729-0.462,2.54-0.771c1.017-0.387,2.096-0.368,3.157-0.246
		c0.49,0.056,0.998,0.174,1.459-0.044c0.318-0.149,0.357-0.03,0.604-0.03c0.927,0,1.032-1.779,2.146-1.779
		c0.42-0.051,0.877,0,1.302,0c0.567,0,0.954,0.251,1.472,0.492c0.318,0.146,2.158,0.55,1.625,1.204
		c-0.384,0.468-0.884,0.326-1.439,0.326c-0.168,0-0.334,0-0.5,0c0,0.454,0.637,0.707,0.516,0.133c0.438,0,0.48,0.589,0.154,0.768
		c-0.426,0.236,0.214,0.453,0.228,0.486c0.163,0.402-0.226,0.6-0.565,0.622c-0.445,0.027-0.696-0.188-1.08-0.415
		c-0.611-0.361-2.035-1.525-2.578-0.533c-0.17,0.312-0.217,0.665-0.268,1.011c-0.029,0.205-0.007,0.7-0.127,0.868
		c-0.396,0.153-1.037,0.294-1.228,0.731c-0.218,0.498,0.438,1.06,0.751,1.349c0.197,0.186,0.477,0.314,0.477,0.604
		c0,0.363,0,0.729,0,1.09c0,0.728-0.941,0.863-1.56,0.863c-0.629,0-0.657-0.754-0.497-1.172c0.094-0.246,0.719,0.121,0.967,0.121
		c0-0.707,0.069-1.234-0.801-1.396c0,0.354,0.174,0.986-0.219,1.037c-0.418,0.055-0.902,0.316-1.229,0.043
		c-0.281-0.24-0.361-0.483-0.361-0.832l0.215,0.088c-0.025-0.104,0-0.246,0-0.354c0.266,0.016,0.435,0.227,0.715,0.227
		c0-0.26,0-0.52,0-0.776c-0.381,0-0.695,0.272-1.028,0.42c-0.435,0.188-0.827-0.117-1.241-0.019
		c-0.229,0.058-0.396,0.324-0.636,0.392c-0.3,0.082-0.88-0.065-1.051,0.276c0.565,0,2.662-0.582,2.662,0.42c-0.209,0-0.421,0-0.63,0
		c0,0.636,0.578,1.322,0.242,1.939c-0.052-0.035-0.461-0.717-0.521-0.461c-0.067,0.311-0.108,0.242-0.301-0.004
		c-0.47-0.6-2.382-1.906-3.025-0.939c-0.301,0.451-0.178,0.976-0.708,1.256c-0.449,0.24-0.664,0.479-0.896,0.938
		c-0.141,0.271-0.364,0.623,0.106,0.72c0.429,0.086,0.845,0.135,0.845,0.676C15.604,21.856,15.319,21.806,15.024,21.993"/>
</g>
</svg>
