<?xml version="1.0" encoding="utf-8"?>
<!-- Generator: Adobe Illustrator 15.0.2, SVG Export Plug-In . SVG Version: 6.00 Build 0)  -->
<!DOCTYPE svg PUBLIC "-//W3C//DTD SVG 1.1//EN" "http://www.w3.org/Graphics/SVG/1.1/DTD/svg11.dtd">
<svg version="1.1" id="Layer_1" xmlns="http://www.w3.org/2000/svg" xmlns:xlink="http://www.w3.org/1999/xlink" x="0px" y="0px"
	 width="32px" height="32px" viewBox="0 0 32 32" enable-background="new 0 0 32 32" xml:space="preserve">
<g id="Background1">
</g>
<g id="Foreground1">
	<path fill="#FFFFFF" d="M6.143,25.257c0.228-0.463-0.088-0.736-0.182-1.158c-0.166,0.076-0.076,0.434-0.307,0.533
		c-0.34,0.143-0.713,0.152-1.074,0.152c-0.73,0.004-2.125-0.084-1.504-1.105c0.221-0.357,0.252-1.27,0.139-1.67
		c-0.152-0.51,0.414-1.223,0.607-1.676c0.275-0.695,0.307-1.609,0.307-2.355c0-0.072-0.291-0.383-0.328-0.479
		c-0.125-0.328-0.188-0.672-0.227-1.021c-0.049-0.418-0.031-0.847-0.123-1.259c-0.131-0.073-0.377,1.083-0.428,1.237
		c-0.086,0.264-0.244,0.481-0.308,0.69c-0.141,0.468,0.218,0.548,0.218,0.945c0,0.532-1.058-0.236-1.058-0.42
		c-0.162-0.412,0.168-0.808,0.215-1.18c0.136-1.057,0.722-1.841,0.938-2.846c0.222-1.009,0.839-1.885,1.767-2.347
		C6.382,10.51,7.82,9.816,9.579,9.475c0.711-0.133,1.215-0.265,1.864-0.588c0.302-0.261,0.563-0.693,0.839-0.992
		c1.026-1.124,2.358-0.309,3.545-0.371C16.3,7.5,16.193,6.698,16.489,6.407c0.165-0.167,0.362-0.312,0.534-0.48
		c0.57-0.56,1.726-0.09,2.369-0.001c0.42,0.058,0.752,0.102,1.103,0.368c0.53,0.406,0.457,0.689,0.457,1.263
		c0,0.516,0.729,0.619,0.762,1.15c0.043,0.619,0.703,1.126,0.938,1.686c0.309,0.737,0.496,1.394,0.496,2.19
		c0,0.823,1.438,2.532,2.33,2.532c0.326,0,0.787-0.779,0.955-1.046c0.383-0.608,0.682-1.374,0.563-2.105
		c-0.023-0.155-0.582-0.938-0.188-0.938c0.645,0,0.805,0.811,0.84,1.307c0.067,0.959-0.482,2.03-0.992,2.823
		c-0.029,0.286-0.33,0.331,0.297,0.331c0.709,0,1.408-0.156,1.947-0.641c0.709-0.635,0.779-1.625,0.561-2.477
		c-0.141-0.559-0.395-0.822-0.816-1.209c-0.344-0.315-0.776-1.054,0.021-0.618c1.106,0.602,1.633,1.909,1.476,3.129
		c-0.207,1.582-1.132,2.239-2.541,2.623c-0.664,0.175-1.746-0.266-2.267,0.032c-0.461,0.265-0.937,0.544-1.396,0.822
		c-0.498,0.299,0.738,1.078,0.955,1.189c0.717,0.365,0.806-0.463,1.416-0.463c0.457,0,0.849,1.367,0.267,1.483
		c-0.992,0.195-1.813,0.771-2.824,0.183c-0.586-0.342-1.127-0.805-1.562-1.326c-0.448-0.539-0.532-1.145-1.063-1.632
		c-0.453-0.417-0.924-1.166-1.053-1.791c-0.289-0.627-0.578-1.284-0.678-0.097c-0.066,0.843-0.439,1.128-0.738,1.698
		c-0.143,0.279-0.061,0.581-0.262,0.917c-0.021,0.031,0.024,0.127,0,0.154c-0.104,0.365-0.545,0.111-0.783,0.258
		c0.268,0.258-0.689,0.414-0.379,0.918c0.227,0.369,0.07,0.807,0.332,1.158c0.271,0.373,0.322,0.816,0.492,1.24
		c0.229,0.561,0.649,1.125,0.649,1.756c0,0.303-0.228,0.604-0.25,0.926c-0.028,0.432,0.022,0.395,0.146,0.744
		c0.101,0.426,0.406,0.57,0.545,0.957c0.474,1.303-2.809,1.074-3.139,0.252c-0.129-0.318,0.15-0.482,0.15-0.773
		c0-0.453-0.254-0.855-0.299-1.303c-0.068-0.594-0.578-1.57-1.072-1.955c0.013,0.41-0.211,0.947,0.066,1.309
		c0.25,0.326,0.723,0.609,0.723,1.062c0,0.903-1.813,0.81-2.402,0.683c-0.434-0.095-0.758-0.421-0.613-0.892
		c0.162-0.529-0.371-0.681-0.436-1.125c-0.051-0.313-0.086-0.562-0.189-0.871c-0.201-0.604,0.271-1.176-0.076-1.787
		c-0.19,0.106-0.034,0.483-0.307,0.483c-0.291,0-0.193,0.212-0.443,0.212c-0.17,0-0.87-0.076-0.95-0.021
		c-0.129,0.088-1.399-0.098-1.437-0.246c-0.385,0.994-0.041,1.953-0.041,2.961c0,0.41-0.426,0.922-0.094,1.295
		c0.18,0.199,1.016,0.832,0.625,1.188C8.609,26.44,5.443,26.692,6.143,25.257"/>
</g>
</svg>
