<?xml version="1.0" encoding="utf-8"?>
<!-- Generator: Adobe Illustrator 15.0.2, SVG Export Plug-In . SVG Version: 6.00 Build 0)  -->
<!DOCTYPE svg PUBLIC "-//W3C//DTD SVG 1.1//EN" "http://www.w3.org/Graphics/SVG/1.1/DTD/svg11.dtd">
<svg version="1.1" id="Layer_1" xmlns="http://www.w3.org/2000/svg" xmlns:xlink="http://www.w3.org/1999/xlink" x="0px" y="0px"
	 width="32px" height="32px" viewBox="0 0 32 32" enable-background="new 0 0 32 32" xml:space="preserve">
<g id="Background1">
	<path fill="#FFFFFF" d="M17.031,13.722l3.596,0.065c0-0.011,0.02-0.161,0.051-0.445c0.031-0.19,0.104-0.309,0.221-0.35
		c-0.34-0.626-0.604-1.108-0.797-1.447c-0.027-0.024-0.098-0.034-0.205-0.034l-2.961,0.127L17.031,13.722z M3.378,17.877
		c0-0.221-0.005-0.523-0.016-0.906c-0.014-0.436-0.02-0.731-0.02-0.891c-0.041-0.034-0.07-0.049-0.093-0.049
		c-0.044-0.073-0.063-0.202-0.063-0.38c0-0.192,0.061-0.314,0.177-0.369l0.093-5.441l8.053,0.017l4.33-0.112
		c0.244,0.011,1.731,0.425,4.469,1.243c0.746,1.357,1.311,2.39,1.688,3.103c0.025,0.106,0.029,0.188,0.018,0.253
		c1.314,0.117,2.973,0.299,4.965,0.542c0.967,0.117,1.486,0.192,1.563,0.223c0.338,0.157,0.484,0.45,0.445,0.876
		c0.178,0.104,0.305,0.195,0.381,0.268l-0.016,0.417c-0.107-0.032-0.168,0.037-0.18,0.205c0,0.031,0.031,0.104,0.09,0.218
		c0.061,0.108,0.09,0.182,0.09,0.215c-0.088,0.168-0.168,0.303-0.238,0.396c-0.119,0-0.203,0-0.256,0
		c-0.055,0.269-0.111,0.476-0.176,0.621c0.479,0.096,0.848,0.157,1.113,0.19c0,0.158,0,0.248,0,0.271
		c0,0.274-0.07,0.414-0.209,0.414c-0.072-0.021-0.111-0.037-0.111-0.045c-0.039,0.178-0.072,0.317-0.096,0.426
		c-0.414-0.021-0.758-0.015-1.031,0.017c0.012,0.129,0.016,0.248,0.016,0.364c0,0.724-0.258,1.302-0.779,1.736
		c-0.467,0.383-1.027,0.563-1.686,0.557c-0.33,0-0.506-0.006-0.525-0.016c-0.33-0.158-0.572-0.293-0.732-0.4
		c-0.582-0.379-0.924-1.039-1.02-1.973l-2.24-0.031c-0.162,0.056-0.295,0.106-0.4,0.162c-0.381,0.028-0.656,0.041-0.824,0.028
		l-1.816-0.028l-5.157,0.097c-0.168-0.015-0.279-0.023-0.334-0.035c-0.062-0.107-0.102-0.16-0.11-0.16
		c-0.286,0-0.705,0.065-1.257,0.207c-0.256,0.985-0.785,1.615-1.59,1.895c-0.065,0.041-0.111,0.07-0.146,0.094
		c-0.339,0.064-0.6,0.09-0.78,0.078c-1.347-0.02-2.12-0.826-2.323-2.416c-0.168,0.053-0.41,0.072-0.729,0.063
		c-0.414,0-0.749-0.041-1.001-0.127c-0.064-0.021-0.369-0.151-0.909-0.396c-0.073-0.045-0.274-0.057-0.604-0.032
		c0-0.14-0.004-0.211-0.016-0.222c-0.35-0.183-0.632-0.293-0.844-0.338c-0.128-0.021-0.229-0.031-0.305-0.031
		c0-0.284-0.01-0.555-0.029-0.812C2.984,17.873,3.378,17.877,3.378,17.877z"/>
</g>
<g id="Foreground1">
</g>
</svg>
