<?xml version="1.0" encoding="utf-8"?>
<!-- Generator: Adobe Illustrator 15.0.2, SVG Export Plug-In . SVG Version: 6.00 Build 0)  -->
<!DOCTYPE svg PUBLIC "-//W3C//DTD SVG 1.1//EN" "http://www.w3.org/Graphics/SVG/1.1/DTD/svg11.dtd">
<svg version="1.1" id="Layer_1" xmlns="http://www.w3.org/2000/svg" xmlns:xlink="http://www.w3.org/1999/xlink" x="0px" y="0px"
	 width="32px" height="32px" viewBox="0 0 32 32" enable-background="new 0 0 32 32" xml:space="preserve">
<g id="Background1">
	<path fill="#FFFFFF" d="M16.021,1.68c0.033,0,0.066,0,0.1,0c-0.004,0.403,0.146,0.701,0.229,1.047
		c0.147,0.785,0.294,1.571,0.442,2.356c0.185,0.839,0.211,1.687,0.359,2.567c0.016,0.35,0.031,0.699,0.051,1.047
		c-0.022,0.699-0.045,1.396-0.068,2.095c0.046,0,0.09,0,0.132,0c0.065-0.209,0.687-0.056,0.899-0.114c0,0.01,0,0.022,0,0.033
		c0.797,2.05,1.592,4.101,2.389,6.15c2.094,0.888,4.188,1.775,6.281,2.666c0.422,0.183,1.849,0.656,2.045,0.947
		c0.108,0.162,0.197,1.563,0.197,1.881c-2.203-0.238-4.408-0.479-6.609-0.721c-0.715-0.074-1.43-0.15-2.143-0.229
		c-0.271-0.045-0.604,0.002-0.802-0.113c-0.128-0.17-0.253-0.339-0.378-0.509c0,0.42,0,0.841,0,1.261
		c-0.018,0.152-0.032,0.305-0.051,0.458c0.835,1.146,1.67,2.29,2.504,3.435c0.234,0.33,1.328,1.498,1.098,2.078
		c-0.338,0.821-1.894,0.312-2.667,0.131c-0.315-0.064-0.634-0.131-0.948-0.195c-0.137-0.27-0.271-0.534-0.408-0.803
		c-0.006,0-0.012,0-0.018,0c0,0.012,0,0.021,0,0.033c-0.105,0.211-0.256,0.313-0.262,0.604c-0.137,0-0.271,0-0.409,0
		c0.009,0.565,0.121,2.313-0.162,2.534c-0.11-0.026-0.187-0.098-0.216-0.196c0-0.778,0-1.56,0-2.338c-0.105,0-0.217,0-0.325,0
		c0.031-0.244-0.124-0.416-0.229-0.591c-0.007,0-0.011,0-0.019,0c-0.025,0.132-0.055,0.263-0.08,0.394c-0.175,0-0.352,0-0.522,0
		c-0.007,0.306-0.013,0.611-0.019,0.918c-0.08,0-0.162,0-0.244,0c0,0.026,0,0.054,0,0.081c-0.146,0.012-0.221,0.021-0.246-0.1
		c-0.146-0.004-0.295-0.012-0.44-0.018c-0.005-0.294-0.011-0.589-0.019-0.884c-0.151-0.004-0.303-0.01-0.457-0.017
		c-0.021-0.131-0.043-0.262-0.065-0.393c-0.005,0-0.01,0-0.017,0c-0.008,0.037-0.219,0.481-0.244,0.506c-0.12,0-0.239,0-0.359,0
		c0,0.563,0.1,2.321-0.18,2.569c-0.018-0.007-0.032-0.012-0.051-0.019c-0.2-0.086-0.146-0.422-0.146-0.701
		c-0.007-0.622-0.012-1.244-0.018-1.866c-0.107-0.005-0.218-0.011-0.326-0.017c0-0.299-0.165-0.313-0.229-0.559
		c-0.004,0.012-0.01,0.021-0.017,0.034c-0.146,0.256-0.294,0.513-0.44,0.769c-0.938,0.19-1.877,0.383-2.813,0.572
		c-0.31,0.008-0.657-0.344-0.817-0.521c-0.011-0.785,0.668-1.357,1.016-1.851c0.854-1.241,1.711-2.485,2.568-3.729
		c0.038-0.13-0.065-1.001-0.065-1.275c-0.017,0.005-0.033,0.009-0.05,0.019c-0.412,0.533-1.729,0.344-2.535,0.473
		c-2.432,0.219-4.864,0.438-7.295,0.654c0.201-0.659,0.402-1.319,0.604-1.979c0.133-0.196,1.703-0.753,2.044-0.897
		c1.962-0.834,3.927-1.67,5.89-2.502c0.213-0.552,0.424-1.104,0.637-1.653c0.388-0.992,0.773-1.985,1.162-2.978
		c0.193-0.473,0.539-0.981,0.539-1.586c0.388,0,0.774,0,1.162,0c0,0.037,0,0.077,0,0.114c0.018,0,0.033,0,0.051,0
		c0-0.196,0-0.394,0-0.588c-0.113-0.412-0.034-1.763,0.031-2.16c0.012-0.276,0.021-0.555,0.033-0.833
		c0.131-0.959,0.262-1.919,0.393-2.879c0.104-0.475,0.207-0.949,0.312-1.424C15.878,2.5,16.015,2.141,16.021,1.68z"/>
</g>
<g id="Foreground1">
</g>
</svg>
