<?xml version="1.0" encoding="utf-8"?>
<!-- Generator: Adobe Illustrator 15.0.2, SVG Export Plug-In . SVG Version: 6.00 Build 0)  -->
<!DOCTYPE svg PUBLIC "-//W3C//DTD SVG 1.1//EN" "http://www.w3.org/Graphics/SVG/1.1/DTD/svg11.dtd">
<svg version="1.1" id="Layer_1" xmlns="http://www.w3.org/2000/svg" xmlns:xlink="http://www.w3.org/1999/xlink" x="0px" y="0px"
	 width="32px" height="32px" viewBox="0 0 32 32" enable-background="new 0 0 32 32" xml:space="preserve">
<g id="Background1">
	<path fill="#FFFFFF" d="M16.861,10.465c0.16,0,0.324,0,0.484,0c0.057,0,0.156-0.014,0.193,0.007
		c0.166,0.058,0.156,0.38,0.199,0.569c0.023,0.107,0.029,0.253,0.033,0.371c0,0.072,0,0.143,0,0.214
		c0.025,0.112,0.012,0.271,0.012,0.396c-0.012,0.301-0.021,0.604-0.025,0.907c0.002,0,0.004,0,0.006,0
		c0.029-0.037,0.094-0.023,0.133-0.008c0.059,0.093,0.035,0.299,0.033,0.446c0.072,0.046,0.102,0.13,0.148,0.195
		c0.092,0.124,0.188,0.246,0.277,0.373c0.221,0.294,0.443,0.584,0.662,0.881c0.082,0.109,0.189,0.209,0.254,0.332
		c0.004,0,0.006,0,0.01,0c0-0.493,0-0.984,0-1.477c0.031-0.039,0.031-0.09,0.088-0.108c0.02-0.017,0.047-0.019,0.088-0.016
		c0.055,0.044,0.115,0.063,0.139,0.133c0,0.146,0,0.291,0,0.438c0,0.353,0,0.708,0,1.063c0,0.132,0,0.265,0,0.396
		c0.025,0.069,0.141,0.169,0.186,0.23c0.139,0.186,0.264,0.368,0.4,0.553c0.07,0.097,0.166,0.188,0.227,0.296
		c0.004,0,0.008,0,0.01,0c0-0.002,0-0.006,0-0.01c0.027-0.043-0.006-0.131,0.008-0.188c0.025-0.109,0.002-0.253,0.027-0.362
		c0-0.056,0-0.108,0-0.165c0.039-0.171-0.008-0.366,0.035-0.544c0.061-0.263,0.064-0.534,0.139-0.775
		c0.049-0.164,0.082-0.503,0.279-0.512c0.209,0.178,0.195,0.446,0.277,0.742c0.033,0.129,0.049,0.28,0.076,0.414
		c0.027,0.105,0.004,0.221,0.029,0.32c0,0.047,0,0.094,0,0.141c0.02,0.091,0.004,0.214,0.023,0.305c0,0.059,0,0.115,0,0.172
		c0.025,0.112,0,0.261,0.025,0.372c0,0.063,0,0.121,0,0.184c0.014,0.133-0.002,0.306,0.027,0.436
		c0.006,0.184,0.01,0.362,0.016,0.547c0.004,0.078,0.008,0.158,0.01,0.237c0.025,0.067,0.16,0.199,0.209,0.265
		c0.152,0.203,0.295,0.405,0.445,0.609c0.066,0.09,0.197,0.206,0.236,0.313c0,0,0.006,0,0.01,0c0-0.493,0-0.988,0-1.481
		c0.029-0.04,0.037-0.103,0.084-0.126c0.104-0.048,0.207,0.057,0.229,0.117c0,0.639,0,1.281,0,1.921
		c0.049,0.034,0.068,0.094,0.104,0.142c0.058,0.073,0.114,0.149,0.174,0.229c0.205,0.273,0.414,0.547,0.621,0.824
		c0.226,0.306,0.459,0.605,0.688,0.914c0.16,0.222,0.338,0.412,0.451,0.685c0.08,0.188,0.063,0.466,0.063,0.728
		c0,0.533-0.063,0.938-0.168,1.385c-0.002,0-0.007,0-0.007,0c0-0.002,0-0.006,0-0.008c-0.075-0.047-0.129-0.127-0.192-0.183
		c-0.065-0.058-0.137-0.104-0.209-0.157c-0.041-0.025-0.071-0.076-0.112-0.105c-0.578-0.41-1.07-0.915-1.647-1.326
		c-0.22-0.157-0.406-0.354-0.63-0.514c-0.057-0.038-0.17-0.172-0.225-0.196c-0.175,0-0.345,0-0.517,0
		c-0.024,0.058-0.058,0.108-0.147,0.106c-0.015-0.019-0.039-0.024-0.054-0.039c-0.012-0.022-0.021-0.047-0.032-0.067
		c-0.199,0-0.396,0-0.595,0c0-0.003,0-0.004,0-0.008c0.056-0.062,0.069-0.168,0.104-0.247c0.056-0.124,0.104-0.256,0.164-0.391
		c0.022-0.054,0.063-0.103,0.069-0.172c-0.055-0.023-0.084-0.072-0.131-0.105c-0.133-0.096-0.246-0.212-0.375-0.307
		c-0.465-0.332-0.867-0.736-1.334-1.07c-0.131-0.092-0.242-0.21-0.375-0.307c-0.041-0.027-0.131-0.139-0.174-0.154
		c-0.193,0-0.386,0-0.576,0c0,0.137,0.01,0.287-0.017,0.402c-0.024,0.1,0.002,0.207-0.019,0.297c0,0.053,0,0.104,0,0.155
		c-0.022,0.099-0.006,0.228-0.028,0.321c0,0.055,0,0.109,0,0.166c-0.033,0.146,0,0.331-0.033,0.479
		c-0.018,0.344-0.034,0.688-0.051,1.03c-0.021,0.271-0.043,0.544-0.063,0.815c-0.006,0.054-0.033,0.255-0.01,0.313
		c0.008,0.015,0.035,0.035,0.045,0.05c0.063,0.099,0.127,0.188,0.191,0.279c0.172,0.246,0.346,0.487,0.521,0.727
		c0.463,0.621,0.898,1.256,1.359,1.879c0.18,0.242,0.357,0.488,0.541,0.734c0.088,0.116,0.197,0.23,0.27,0.362
		c0.004,0,0.006,0,0.01,0c0-0.04,0-0.079,0-0.116c0.021-0.027-0.002-0.084,0.012-0.123c0.033-0.158,0.008-0.354,0.043-0.512
		c0.016-0.08-0.023-0.193,0.016-0.256c0.039,0.203,0.078,0.406,0.115,0.609c0.035,0.148,0.018,0.291,0.053,0.443
		c0.021,0.092,0.051,0.357,0.025,0.471c-0.031,0.267-0.064,0.528-0.098,0.791c-0.051,0.311-0.1,0.616-0.146,0.924
		c-0.016,0-0.029,0-0.043,0c0-0.098,0-0.192,0-0.287c-0.184-0.111-0.318-0.291-0.488-0.411c-0.426-0.308-0.787-0.687-1.213-0.99
		c-0.117-0.085-0.213-0.204-0.33-0.288c-0.203-0.145-0.375-0.316-0.576-0.462c-0.045-0.03-0.078-0.083-0.121-0.115
		c-0.078-0.057-0.143-0.127-0.221-0.182c-0.041-0.03-0.09-0.056-0.121-0.099c-0.033,0.013-0.094-0.002-0.139,0.008
		c-0.193,0.039-0.438,0.023-0.576,0.117c-0.071,0.043-0.084,0.135-0.113,0.223c-0.044,0.127-0.064,0.273-0.113,0.41
		c-0.021,0.063-0.066,0.135-0.086,0.188c-0.029,0.089,0.008,0.322,0.008,0.413c0,0.194,0,0.393,0,0.585
		c0,0.097,0.011,0.216-0.008,0.298c-0.027,0.11,0.004,0.231-0.018,0.33c-0.032,0.129-0.005,0.396-0.114,0.438
		c-0.021,0.014-0.045,0.005-0.067,0c-0.021-0.055-0.055-0.112-0.071-0.174c-0.027-0.096-0.001-0.187-0.024-0.289
		c-0.027-0.116,0.014-0.268-0.019-0.396c-0.038-0.166-0.009-0.433-0.009-0.618c0.002-0.154,0.007-0.313,0.009-0.47
		c0-0.067,0-0.133,0-0.198c-0.044-0.15-0.103-0.338-0.156-0.492c-0.026-0.078-0.034-0.148-0.08-0.207
		c-0.09-0.117-0.34-0.103-0.521-0.14c-0.051-0.012-0.194-0.036-0.236-0.019c-0.087,0.029-0.146,0.131-0.217,0.182
		c-0.157,0.112-0.289,0.244-0.445,0.355c-0.021,0.021-0.041,0.043-0.061,0.063c-0.461,0.331-0.848,0.743-1.31,1.072
		c-0.147,0.104-0.27,0.256-0.419,0.359c-0.156,0.112-0.283,0.256-0.436,0.363c-0.035,0.025-0.168,0.112-0.184,0.143
		c0,0.095,0,0.189,0,0.287c-0.014,0-0.023,0-0.035,0c0-0.006,0-0.011,0-0.018c-0.037-0.054-0.019-0.143-0.035-0.214
		c-0.039-0.153-0.049-0.338-0.088-0.494c-0.004-0.041-0.006-0.081-0.01-0.124c-0.044-0.18-0.044-0.393-0.087-0.577
		c-0.002-0.053-0.005-0.104-0.007-0.155c-0.014-0.061-0.043-0.238-0.027-0.307c0.017-0.158,0.029-0.316,0.045-0.479
		c0.068-0.284,0.088-0.594,0.146-0.873c0.004,0,0.008,0,0.009,0c0,0.044,0,0.089,0,0.134c0.021,0.03-0.001,0.094,0.01,0.14
		c0.041,0.174,0.004,0.389,0.045,0.561c0.013,0.061-0.015,0.127,0.018,0.166c0-0.004,0-0.006,0-0.01
		c0.093-0.088,0.148-0.211,0.227-0.313c0.129-0.173,0.254-0.348,0.385-0.52c0.451-0.61,0.897-1.229,1.353-1.842
		c0.231-0.313,0.464-0.627,0.688-0.947c0.08-0.11,0.158-0.219,0.235-0.338c0.015-0.021,0.052-0.057,0.062-0.08
		c-0.029-0.361-0.06-0.723-0.086-1.08c-0.02-0.336-0.034-0.67-0.053-1.008c-0.035-0.146,0-0.328-0.035-0.479
		c0-0.053,0-0.109,0-0.164c-0.022-0.1-0.004-0.23-0.026-0.329c0-0.053,0-0.104,0-0.155c-0.022-0.1,0.007-0.215-0.017-0.322
		c-0.029-0.12-0.02-0.276-0.02-0.418c-0.191,0-0.382,0-0.574,0c-0.044,0.063-0.129,0.107-0.193,0.154
		c-0.149,0.107-0.281,0.245-0.436,0.354c-0.083,0.06-0.152,0.146-0.234,0.206c-0.27,0.19-0.5,0.419-0.769,0.608
		c-0.063,0.045-0.112,0.112-0.174,0.156c-0.155,0.11-0.284,0.246-0.437,0.354c-0.048,0.033-0.135,0.072-0.147,0.134
		c0.062,0.065,0.075,0.184,0.114,0.271c0.072,0.17,0.144,0.354,0.227,0.521c-0.197,0-0.396,0-0.593,0
		c-0.027,0.047-0.062,0.07-0.097,0.105c-0.02,0-0.033,0-0.054,0c-0.03-0.029-0.056-0.064-0.086-0.099c0-0.002,0-0.007,0-0.009
		c-0.172,0-0.344,0-0.515,0c-0.057,0.078-0.165,0.143-0.246,0.195c-0.13,0.094-0.241,0.213-0.373,0.308
		c-0.129,0.093-0.237,0.221-0.367,0.313c-0.355,0.256-0.665,0.563-1.021,0.816c-0.084,0.061-0.15,0.146-0.235,0.205
		c-0.174,0.127-0.324,0.281-0.495,0.404c-0.1,0.068-0.214,0.148-0.279,0.246c-0.005,0-0.006,0-0.011,0c0-0.006,0-0.013,0-0.017
		c-0.06-0.082-0.056-0.348-0.086-0.471c-0.073-0.292-0.079-0.621-0.079-0.988c0-0.157-0.021-0.346,0.018-0.479
		c0.125-0.437,0.404-0.705,0.646-1.028c0.344-0.46,0.68-0.917,1.021-1.377c0.104-0.146,0.216-0.284,0.322-0.431
		c0.021-0.028,0.072-0.065,0.086-0.1c0-0.643,0-1.286,0-1.928c0.065-0.068,0.067-0.135,0.209-0.135
		c0.027,0.022,0.062,0.037,0.08,0.064c0.06,0.092,0.025,0.321,0.025,0.456c0,0.367,0,0.733,0,1.104c0.003,0,0.006,0,0.009,0
		c0.066-0.108,0.16-0.205,0.235-0.307c0.123-0.164,0.234-0.33,0.357-0.494c0.076-0.104,0.155-0.209,0.233-0.313
		c0.019-0.023,0.06-0.053,0.071-0.076c0-0.076,0-0.152,0-0.229c0.035-0.056-0.01-0.168,0.008-0.238
		c0.031-0.133,0.018-0.334,0.025-0.471c0-0.062,0-0.121,0-0.184c0.027-0.117,0.008-0.273,0.025-0.396c0-0.059,0-0.115,0-0.172
		c0.021-0.1,0.002-0.232,0.025-0.33c0-0.05,0-0.101,0-0.148c0.027-0.115-0.002-0.257,0.025-0.378
		c0.047-0.201,0.047-0.409,0.096-0.595c0.008-0.046,0.013-0.093,0.019-0.141c0.039-0.139,0.071-0.289,0.123-0.414
		c0.035-0.086,0.056-0.178,0.183-0.182c0.028,0.026,0.064,0.044,0.086,0.075c0.127,0.181,0.127,0.436,0.191,0.677
		c0.051,0.185,0.051,0.392,0.098,0.592c0.006,0.131,0.012,0.26,0.019,0.389c0.021,0.091-0.007,0.201,0.017,0.305
		c0.038,0.16,0.026,0.358,0.026,0.535c0.003,0,0.006,0,0.009,0c0-0.007,0-0.011,0-0.017c0.087-0.062,0.169-0.225,0.234-0.313
		c0.142-0.188,0.283-0.376,0.428-0.569c0.041-0.057,0.121-0.117,0.148-0.182c0-0.633,0-1.27,0-1.903
		c0.035-0.04,0.109-0.198,0.218-0.132c0.132,0.041,0.104,0.24,0.104,0.404c0,0.395,0,0.791,0,1.188c0.002,0,0.006,0,0.008,0
		c0.106-0.181,0.26-0.338,0.385-0.505c0.215-0.289,0.421-0.576,0.636-0.865c0.056-0.072,0.122-0.144,0.175-0.215
		c0.024-0.041,0.047-0.082,0.07-0.122c0.023-0.037,0.105-0.092,0.122-0.125c0-0.119,0-0.236,0-0.354
		c0.012-0.011,0.012-0.016,0.017-0.033c0.044-0.021,0.082-0.03,0.133-0.008c0-0.058,0-0.117,0-0.172
		c-0.023-0.035-0.011-0.132-0.011-0.183c-0.002-0.126-0.005-0.253-0.008-0.379c0-0.435-0.033-0.938,0.062-1.303
		c0.037-0.143,0.037-0.33,0.147-0.404c0.042-0.027,0.142-0.014,0.209-0.014c0.169,0,0.337,0,0.506,0c0-0.276,0-0.551,0-0.825
		c0-0.134-0.019-0.302,0.009-0.421c0-0.162,0-0.324,0-0.486c0.031-0.134-0.015-0.306,0.02-0.443
		c0.039-0.172,0.044-0.348,0.086-0.521c0.004-0.046,0.006-0.093,0.008-0.14c0.046-0.188,0.036-0.407,0.079-0.594
		c0.009-0.102,0.017-0.203,0.024-0.306c0.054-0.401,0.104-0.803,0.156-1.204c0.043-0.166,0.049-0.356,0.105-0.518
		c0.091-0.264,0.188-0.553,0.262-0.833c0.005-0.171,0.012-0.347,0.018-0.519c0.03-0.131-0.014-0.299,0.019-0.437
		c0.013-0.06-0.008-0.153,0.01-0.224c0.013-0.057-0.008-0.147,0.009-0.213c0.028-0.131,0.016-0.293,0.017-0.438
		c0.004,0,0.006,0,0.011,0c0,0.003,0,0.005,0,0.009c0.02,0.031,0.007,0.11,0.007,0.156c0.003,0.119,0.007,0.236,0.009,0.354
		c0.018,0.07-0.009,0.176,0.01,0.256c0.053,0.228-0.019,0.539,0.033,0.768c0.019,0.074-0.01,0.156,0.01,0.225
		c0.059,0.194,0.098,0.403,0.166,0.601c0.043,0.123,0.088,0.247,0.132,0.37c0.024,0.09,0.019,0.171,0.043,0.265
		c0.084,0.322,0.077,0.696,0.155,1.03c0.014,0.117,0.025,0.234,0.035,0.353c0.043,0.179,0.037,0.39,0.078,0.569
		c0.006,0.072,0.012,0.143,0.021,0.215c0.026,0.124,0.019,0.264,0.052,0.395c0.03,0.119,0.041,0.242,0.07,0.363
		c0.023,0.11-0.01,0.24,0.016,0.348c0,0.11,0,0.225,0,0.336c0.037,0.156,0.01,0.373,0.01,0.545
		C16.852,9.811,16.859,10.142,16.861,10.465z"/>
</g>
<g id="Foreground1">
</g>
</svg>
