<?xml version="1.0" encoding="utf-8"?>
<!-- Generator: Adobe Illustrator 15.0.2, SVG Export Plug-In . SVG Version: 6.00 Build 0)  -->
<!DOCTYPE svg PUBLIC "-//W3C//DTD SVG 1.1//EN" "http://www.w3.org/Graphics/SVG/1.1/DTD/svg11.dtd">
<svg version="1.1" id="Layer_1" xmlns="http://www.w3.org/2000/svg" xmlns:xlink="http://www.w3.org/1999/xlink" x="0px" y="0px"
	 width="32px" height="32px" viewBox="0 0 32 32" enable-background="new 0 0 32 32" xml:space="preserve">
<g id="Background1">
	<path fill="#FFFFFF" d="M17.762,27.243c-0.286,0-0.572,0-0.858,0c0-0.009,0-0.019,0-0.025c-0.043-0.069-0.029-0.171-0.056-0.259
		c-0.041-0.158-0.08-0.348-0.121-0.505c-0.024-0.091-0.011-0.271-0.082-0.313c-0.021,0.219-0.127,0.455-0.19,0.653
		c-0.056,0.172-0.06,0.328-0.108,0.504c-0.114,0.4-0.162,0.847-0.163,1.377c-0.001,0.314,0.047,0.923-0.23,0.938
		c-0.041-0.065-0.098-0.133-0.123-0.219c-0.033-0.11-0.009-0.266-0.014-0.395c-0.006-0.171-0.014-0.385-0.014-0.573
		c0-0.153,0-0.309,0-0.464c-0.109-0.438-0.192-0.904-0.328-1.32c-0.049-0.146-0.063-0.41-0.148-0.518
		c-0.023,0.234-0.104,0.501-0.164,0.723c-0.033,0.118-0.018,0.288-0.082,0.381c-0.048,0.028-0.174,0.014-0.246,0.014
		c-0.205,0-0.408,0-0.611,0c0.004-0.24-0.032-0.623-0.083-0.844c-0.019-0.086,0.021-0.246-0.04-0.287
		c-0.023,0.098-0.104,0.168-0.148,0.246c-0.127,0.201-0.246,0.402-0.369,0.601c-0.054,0.084-0.086,0.254-0.203,0.271
		c-0.115,0.071-0.479,0.06-0.642,0.099c-0.45,0.104-0.95,0.157-1.416,0.217c-0.146-0.251-0.327-0.489-0.489-0.735
		c-0.068-0.101-0.191-0.207-0.22-0.341c0.113-0.075,0.218-0.218,0.3-0.325c0.108-0.146,0.276-0.271,0.395-0.424
		c0.105-0.14,0.275-0.24,0.382-0.381c0.289-0.384,0.678-0.682,0.967-1.063c0.063-0.06,0.127-0.118,0.19-0.178
		c0.117-0.156,0.265-0.279,0.381-0.437c0.061-0.056,0.119-0.109,0.179-0.163c0-0.23,0-0.465,0-0.695
		c0.042-0.064,0.015-0.421,0.013-0.531c-0.162,0.008-0.324,0.092-0.461,0.137c-0.32,0.107-0.646,0.185-0.955,0.287
		c-0.879,0.295-1.765,0.484-2.642,0.775c-0.354,0.118-0.726,0.205-1.091,0.327c-0.164,0.056-0.35,0.138-0.53,0.163
		c0-0.011,0-0.02,0-0.027c-0.101-0.109-0.056-0.629-0.056-0.845c0-0.54,0-1.08,0-1.621c0-0.303-0.021-0.674,0.041-0.911
		c0.023-0.015,0.021-0.02,0.056-0.027c0,0.004,0,0.01,0,0.015c0.005,0,0.009,0,0.013,0c0.107,0.228,0.069,0.662,0.068,0.993
		c0.004,0,0.01,0,0.014,0c0.045-0.063,0.115-0.104,0.176-0.148c0.136-0.103,0.244-0.236,0.383-0.341
		c0.09-0.065,0.156-0.179,0.245-0.245c0.315-0.236,0.571-0.539,0.886-0.775c0.158-0.119,0.277-0.305,0.438-0.422
		c0.556-0.422,0.996-0.982,1.553-1.403c0.041-0.046,0.083-0.091,0.123-0.138c0.076-0.071,0.16-0.14,0.244-0.203
		c0.055-0.061,0.109-0.118,0.164-0.178c0.215-0.162,0.385-0.369,0.6-0.531c0.061-0.063,0.118-0.127,0.178-0.189
		c0.338-0.253,0.656-0.578,0.887-0.939c0.453-0.719,0.67-1.615,0.926-2.535c0.049-0.281,0.1-0.562,0.148-0.843
		c0.053-0.234,0.006-0.521,0.055-0.75c0.053-0.24,0.006-0.498,0.055-0.723c0-0.059,0-0.118,0-0.176
		c0.048-0.215,0.021-0.48,0.07-0.695c0.055-0.285,0-0.625,0.061-0.901c0-0.059,0-0.117,0-0.178c0.063-0.28,0.021-0.617,0.082-0.898
		c0.005-0.119,0.01-0.236,0.016-0.354c0.075-0.347,0.02-0.757,0.096-1.103c0.004-0.209,0.009-0.418,0.013-0.627
		c0.087-0.395,0.035-0.873,0.124-1.254c0.064-0.285,0.049-0.55,0.122-0.816c0.048-0.176,0.093-0.367,0.164-0.531
		c0.022-0.055,0.088-0.115,0.108-0.164c0-0.041,0-0.081,0-0.122c0.024-0.108,0.063-0.231,0.094-0.327
		c0.048-0.142,0.057-0.359,0.097-0.49c0.021-0.065-0.022-0.115,0.026-0.149c-0.002,0.136,0.031,0.198,0.055,0.3
		c0,0.059,0,0.118,0,0.177c0.033,0.128,0.087,0.267,0.123,0.396c0.01,0.072,0.02,0.146,0.027,0.217
		c0.019,0.047,0.074,0.102,0.096,0.15c0.041,0.123,0.082,0.244,0.122,0.367c0.12,0.373,0.112,0.799,0.202,1.198
		c0.033,0.142,0.015,0.293,0.043,0.425c0.027,0.524,0.056,1.051,0.08,1.579c0.076,0.337,0.023,0.739,0.097,1.075
		c0,0.061,0,0.118,0,0.178c0.063,0.28,0.021,0.618,0.083,0.899c0,0.06,0,0.116,0,0.177c0.048,0.219,0.02,0.49,0.066,0.709
		c0,0.059,0,0.118,0,0.176c0.049,0.219,0.021,0.49,0.068,0.709c0,0.059,0,0.117,0,0.176c0.051,0.229,0.001,0.498,0.055,0.738
		c0.041,0.18-0.002,0.421,0.041,0.611c0.055,0.3,0.107,0.599,0.164,0.899c0.26,0.925,0.496,1.809,0.953,2.532
		c0.189,0.304,0.469,0.576,0.748,0.79c0.061,0.063,0.117,0.126,0.178,0.19c0.146,0.108,0.262,0.243,0.408,0.354
		c0.131,0.099,0.225,0.258,0.354,0.354c0.631,0.479,1.127,1.117,1.758,1.594c0.163,0.125,0.287,0.313,0.449,0.438
		c0.471,0.354,0.852,0.813,1.32,1.17c0.178,0.136,0.324,0.313,0.506,0.449c0.049,0.037,0.074,0.092,0.136,0.122
		c0-0.29,0-0.582,0-0.87c0.021-0.024,0.032-0.062,0.041-0.097c0.028-0.019,0.03-0.027,0.067-0.041c0,0.004,0,0.011,0,0.015
		c0.131,0.14,0.066,0.616,0.066,0.871c0,0.5,0,1,0,1.498c0,0.356,0.01,0.76-0.055,1.035c-0.014,0.004-0.026,0.011-0.041,0.015
		c-1.883-0.566-3.77-1.136-5.652-1.703c0,0.109,0,0.219,0,0.328c0.033,0.053,0.016,0.191,0.016,0.271
		c0.004,0.211,0.01,0.426,0.014,0.641c0.932,0.993,1.861,1.986,2.791,2.982c-0.137,0.279-0.37,0.531-0.545,0.789
		c-0.055,0.084-0.107,0.258-0.23,0.271c-0.115-0.07-0.39-0.044-0.544-0.082c-0.2-0.049-0.423-0.042-0.64-0.096
		c-0.271-0.064-0.586-0.111-0.873-0.137c-0.025-0.097-0.104-0.168-0.15-0.244c-0.109-0.183-0.195-0.363-0.313-0.545
		c-0.064-0.103-0.164-0.207-0.205-0.328c-0.004,0-0.008,0-0.014,0c-0.033,0.191-0.011,0.396-0.056,0.601
		C17.78,26.872,17.765,27.064,17.762,27.243z"/>
</g>
<g id="Foreground1">
</g>
</svg>
