<?xml version="1.0" encoding="utf-8"?>
<!-- Generator: Adobe Illustrator 15.0.2, SVG Export Plug-In . SVG Version: 6.00 Build 0)  -->
<!DOCTYPE svg PUBLIC "-//W3C//DTD SVG 1.1//EN" "http://www.w3.org/Graphics/SVG/1.1/DTD/svg11.dtd">
<svg version="1.1" id="Layer_1" xmlns="http://www.w3.org/2000/svg" xmlns:xlink="http://www.w3.org/1999/xlink" x="0px" y="0px"
	 width="32px" height="32px" viewBox="0 0 32 32" enable-background="new 0 0 32 32" xml:space="preserve">
<path fill="#FFFFFF" d="M15.999,2.584C8.603,2.584,2.583,8.603,2.583,16c0,7.396,6.02,13.416,13.416,13.416
	c7.397,0,13.418-6.02,13.418-13.416C29.417,8.603,23.397,2.584,15.999,2.584z M15.999,26.688c-5.894,0-10.688-4.793-10.688-10.688
	c0-5.893,4.795-10.688,10.688-10.688c5.894,0,10.689,4.795,10.689,10.688C26.687,21.895,21.894,26.688,15.999,26.688z
	 M25.144,17.079c-0.285,0.368-0.74,0.553-1.279,0.519l-4.104-0.934l-1.057-3.25l2.764-3.226c0.521-0.403,0.996-0.375,1.306-0.279
	c0.572,0.176,0.974,0.695,1.113,1.133l1.444,4.444C25.524,16.093,25.458,16.674,25.144,17.079z M23.796,20.568
	c0.01,0.599-0.361,1.139-0.734,1.408l-3.777,2.748c-0.52,0.375-1.092,0.488-1.574,0.314c-0.438-0.158-0.754-0.533-0.889-1.059
	l-0.381-4.191l2.766-2.01l3.922,1.633C23.669,19.783,23.79,20.246,23.796,20.568z M12.438,17.602l2.766,2.008l-0.34,4.234
	c-0.184,0.633-0.586,0.889-0.893,0.993c-0.564,0.192-1.193,0.009-1.564-0.262l-3.781-2.747c-0.518-0.376-0.804-0.885-0.787-1.398
	c0.015-0.466,0.273-0.882,0.73-1.171L12.438,17.602z M8.099,17.355c-0.658,0.021-1.026-0.283-1.221-0.541
	c-0.359-0.479-0.377-1.135-0.234-1.57L8.087,10.8c0.197-0.608,0.594-1.038,1.086-1.181c0.449-0.13,0.926-0.012,1.34,0.333
	l2.773,3.169l-1.058,3.25L8.099,17.355z M17.812,12.541h-3.42l-2.213-3.625c-0.225-0.619-0.049-1.064,0.137-1.328
	c0.346-0.49,0.961-0.709,1.422-0.709h4.674c0.639,0,1.17,0.244,1.459,0.669c0.262,0.386,0.295,0.875,0.096,1.377L17.812,12.541z"/>
</svg>
