<?xml version="1.0" encoding="utf-8"?>
<!-- Generator: Adobe Illustrator 15.0.2, SVG Export Plug-In . SVG Version: 6.00 Build 0)  -->
<!DOCTYPE svg PUBLIC "-//W3C//DTD SVG 1.1//EN" "http://www.w3.org/Graphics/SVG/1.1/DTD/svg11.dtd">
<svg version="1.1" id="Layer_1" xmlns="http://www.w3.org/2000/svg" xmlns:xlink="http://www.w3.org/1999/xlink" x="0px" y="0px"
	 width="32px" height="32px" viewBox="0 0 32 32" enable-background="new 0 0 32 32" xml:space="preserve">
<g id="Background1">
	<path fill="#FFFFFF" d="M23.824,12.854c-2.078-0.005-4.396,0.127-6.443,0.146c-0.01,0.059-0.018,0.118-0.027,0.177
		c-0.27,0.083-0.732,0.006-0.994,0.088c-0.11,0.098-0.047,0.239-0.119,0.383c-0.127,0.233-0.252,0.469-0.383,0.702
		c-0.314,0.998-0.072,1.151-1.199,1.382c-0.01,0.2-0.019,0.23-0.233,0.233c-0.296,0.075-0.892,0.062-1.112,0.235
		c-0.013,0.173-0.274,0.285-0.354,0.498c-0.159,0.439,0.048,1.055-0.205,1.381c-0.373,0.48-1.932,0.888-2.693,0.47
		c-0.572-0.313-0.683-1.619-1.729-1.379c-1.372,0.313-2.245,1.631-1.904,3.521c0.09,0.373,0.178,0.744,0.266,1.116
		c-0.021,0.021-0.041,0.039-0.06,0.06c-1.729-0.059-3.457-0.117-5.185-0.178c0-0.009,0-0.02,0-0.027
		c0.266-0.604,0.746-1.148,1.023-1.764c1.146-2.529,1.803-5.332,5.391-5.313c0.177-0.387,0.357-0.744,0.791-0.881
		c-0.069-0.498-0.047-1.021,0.027-1.497c-0.738-0.363-0.333-1.08-1.609-1.382c0-0.037,0-0.078,0-0.115
		c0.029-0.02,0.06-0.038,0.088-0.059c0.843-0.378,1.27,0.944,2.343,0.557c0.421-0.151,0.532-0.623,1.055-0.761
		c0.371,0.008,0.742,0.019,1.114,0.028c0.738-0.097,4.384-0.206,4.598,0.382c3.993-0.031,7.985-0.059,11.979-0.089
		c-0.008-0.286,0.043-0.456,0.148-0.616c0.695-0.082,1.229,0.109,1.375,0.616c0.27-0.016,0.563-0.032,0.676,0.118
		c0.188,0.355,0.098,1.213-0.09,1.469c-1.582,0.037-3.164,0.077-4.744,0.117c0,0.01,0,0.02,0,0.029
		c-0.01,0.098-0.02,0.193-0.029,0.293c-0.268,0.124-0.771,0.093-1.172,0.089c-0.016,0.192-0.051,0.542-0.145,0.674
		c-0.063,0.063-0.104,0.06-0.236,0.06c-0.06-0.028-0.117-0.06-0.176-0.088C23.805,13.301,23.813,13.114,23.824,12.854z
		 M14.334,11.032c-1.081,0.029-2.166,0.061-3.25,0.091c0.029,0.017,0.061,0.038,0.088,0.058c1.083,0,2.168,0,3.252,0
		c0.01,0.439,0.02,0.881,0.029,1.321c0.01,0,0.018,0,0.029,0c0.067-0.011,0.135-0.021,0.205-0.029c0-0.01,0-0.021,0-0.028
		c-0.156-0.332-0.078-1.074-0.029-1.408c-0.041,0.01-0.078,0.02-0.119,0.029C14.472,11.054,14.404,11.045,14.334,11.032z
		 M14.424,14.851c0.168-0.002,0.249-0.031,0.352-0.088c0.01-0.412,0.02-0.822,0.027-1.232c-0.009-0.01-0.02-0.021-0.027-0.026
		c-0.107,0.008-0.215,0.019-0.321,0.026c0,0.266,0,0.528,0,0.791C14.443,14.497,14.434,14.674,14.424,14.851z M11.288,16.319
		c-0.152,0.059-0.354,0.051-0.468,0.119c-0.078,0.281-0.156,0.564-0.233,0.85c-0.041,0.316,0.204,0.605,0.086,0.91
		c-0.086-0.072-0.074-0.063-0.086-0.146c-0.418-0.236-0.142-1.129-0.207-1.586c-0.663,0.141-0.823,1.029-0.409,1.586
		c0.352,0.475,1.422,0.471,2.051,0.206C13.136,17.788,12.604,16.272,11.288,16.319z"/>
</g>
<g id="Foreground1">
</g>
</svg>
