<?xml version="1.0" encoding="utf-8"?>
<!-- Generator: Adobe Illustrator 15.0.2, SVG Export Plug-In . SVG Version: 6.00 Build 0)  -->
<!DOCTYPE svg PUBLIC "-//W3C//DTD SVG 1.1//EN" "http://www.w3.org/Graphics/SVG/1.1/DTD/svg11.dtd">
<svg version="1.1" id="Layer_1" xmlns="http://www.w3.org/2000/svg" xmlns:xlink="http://www.w3.org/1999/xlink" x="0px" y="0px"
	 width="32px" height="32px" viewBox="0 0 32 32" enable-background="new 0 0 32 32" xml:space="preserve">
<g id="Background1">
	<path fill="#FFFFFF" d="M12.674,10.85v-0.377l-0.141-0.145H9.762c-0.145-0.135-0.208-0.31-0.208-0.517
		c-0.673,0.97-1.003,1.886-1.003,2.737c0,0.949,0.189,1.622,0.585,2.017C9.457,13.285,10.637,12.052,12.674,10.85z M9.171,4.854
		c-0.136,0-0.243,0.038-0.312,0.104c0.188,0.674,0.266,1.05,0.244,1.147c0-0.143,0.01-0.362,0.031-0.661
		C9.158,5.147,9.171,4.949,9.171,4.854z M26.328,19.35c0,3.971-1.676,6.904-5.026,8.801c-0.116,0.207-0.36,0.476-0.726,0.801
		c-0.771,0.435-1.862,0.652-3.297,0.652c-1.342,0-2.521-0.332-3.537-1.002c-0.508-0.276-1.279-0.763-2.317-1.455
		c-0.946-0.74-1.758-1.752-2.431-3.054c-0.738-1.426-1.105-3.067-1.105-4.918c0-0.716,0.188-1.766,0.555-3.153
		c0-0.022-0.197-0.429-0.59-1.211c-0.021,0.021-0.068,0.077-0.141,0.17c-0.255,0.769-0.495,1.527-0.729,2.291
		c-0.254,0.898-0.375,1.983-0.375,3.258c0,1.566,0.508,3.132,1.521,4.677c0.046,0.09,0.705,0.914,1.975,2.46
		c-0.187,0.207-0.334,0.316-0.449,0.316c-0.785-0.881-1.569-1.771-2.359-2.668c-0.74-1.021-1.281-2.603-1.625-4.752
		C5.831,17.191,6.79,12.967,8.55,7.907C8.086,6.128,7.878,4.928,7.923,4.302c0.649-0.277,0.937-0.418,0.869-0.418
		c0.065,0,0.312,0.109,0.728,0.318c0.321-0.791,1.246-1.354,2.77-1.701l8.354-0.104c0.829,0,1.247,0.604,1.247,1.805
		c0,0.851-0.3,1.28-0.901,1.28c-0.436,0-0.729-0.187-0.861-0.553c-0.164,0.179-0.432,0.421-0.803,0.726v3.432
		c0.162,0,0.438,0,0.834,0c0.396,0,0.672,0,0.83,0c0.07,0.113,0.131,0.371,0.175,0.76c0.097,0.045,0.231,0.152,0.418,0.313
		c-0.022,0.185-0.022,0.394,0,0.625C24.744,12.884,26.328,15.748,26.328,19.35z"/>
</g>
<g id="Foreground1">
</g>
</svg>
