<?xml version="1.0" encoding="utf-8"?>
<!-- Generator: Adobe Illustrator 15.0.2, SVG Export Plug-In . SVG Version: 6.00 Build 0)  -->
<!DOCTYPE svg PUBLIC "-//W3C//DTD SVG 1.1//EN" "http://www.w3.org/Graphics/SVG/1.1/DTD/svg11.dtd">
<svg version="1.1" id="Layer_1" xmlns="http://www.w3.org/2000/svg" xmlns:xlink="http://www.w3.org/1999/xlink" x="0px" y="0px"
	 width="32px" height="32px" viewBox="0 0 32 32" enable-background="new 0 0 32 32" xml:space="preserve">
<g id="Background1">
	<path fill="#FFFFFF" d="M19.257,17.786c1.984,0.069,3.971,0.144,5.955,0.217c0.619-0.126,1.24-0.253,1.859-0.379
		c0.807-0.164,1.612-0.326,2.42-0.489c0.242-0.056,0.68-0.225,0.938-0.107c0,0.008,0,0.014,0,0.02c0,0.023,0,0.049,0,0.073
		c-0.546,0.346-1.43,0.382-2.096,0.577c-1.34,0.396-2.537,0.81-4.205,0.832c0,0.271,0,0.541,0,0.813
		c1.138,0.107,0.832,2.121-0.396,1.734c-0.489-0.153-0.856-0.863-0.471-1.393c0.173-0.232,0.438-0.211,0.577-0.344
		c0-0.271,0-0.542,0-0.813c-0.824,0.007-1.647,0.013-2.473,0.019c0,0.242,0,0.479,0,0.724c0.031,0.082,0.129,0.071,0.106,0.233
		c-0.013,0.093-0.083,0.095-0.106,0.146c0,0.283,0,0.566,0,0.852c0.079,0.014,0.064,0.011,0.106,0.055
		c-0.024,0.145-0.009,0.297-0.09,0.452c0.081,0.022,0.063,0.009,0.09,0.089c0.022,0,0.049,0,0.071,0
		c0.006-0.234,0.013-0.47,0.021-0.703c0.063-0.086,0.128-0.119,0.233-0.164c0.16,0.002,0.257,0.051,0.307,0.164
		c0.079,0.141,0.063,1.6-0.018,1.696c-0.047,0.093-0.119,0.106-0.217,0.146c-0.146-0.014-0.203-0.063-0.289-0.127
		c-0.045-0.162-0.039-0.416-0.037-0.633c-0.158,0.021-0.27,0.109-0.469,0.053c-0.007-0.45-0.106-0.506-0.037-0.863
		c-0.07-0.066-0.144-0.135-0.215-0.199c-0.316,0.206-0.373-0.033-0.578,0c-0.15,0.148-0.302,0.301-0.451,0.451
		c-0.006,0-0.012,0-0.019,0c0.149-0.156,0.3-0.313,0.45-0.473c0-0.006,0-0.01,0-0.018c-0.059-0.162-0.125-0.416,0.036-0.541
		c-0.149-0.146-0.302-0.289-0.451-0.434c0-0.01,0-0.014,0-0.021c0.006-0.005,0.013-0.012,0.021-0.018
		c0.144,0.146,0.287,0.289,0.433,0.434c0.005,0,0.013,0,0.019,0c0.049-0.018,0.098-0.037,0.146-0.055c0-0.408,0-0.818,0-1.229
		c-0.212,0-0.421,0-0.632,0c0,0.078,0,0.158,0,0.234c-0.301,0-0.604,0-0.903,0c-0.039,0.176-0.161,0.219-0.323,0.271
		c-0.007,0.211-0.013,0.423-0.019,0.634c-0.007,0-0.013,0-0.019,0c-0.007-0.218-0.015-0.435-0.02-0.65
		c-0.217-0.02-0.232-0.135-0.344-0.253c-0.043,0-0.084,0-0.127,0c0,0.071,0,0.146,0,0.219c-0.127,0-0.252,0-0.379,0
		c0-0.056,0-0.109,0-0.164c-0.09,0-0.181,0-0.271,0c-0.017,0.133-0.063,0.155-0.162,0.198c0.007,0.126,0.019,0.31-0.036,0.38
		c-0.006-0.132-0.013-0.265-0.019-0.396c-0.023,0-0.048,0-0.071,0c-0.027,0.121-0.076,0.139-0.182,0.181
		c-0.006,0.146-0.012,0.288-0.019,0.433c-0.006,0-0.014,0-0.02,0c0.009-0.141,0.034-0.396-0.056-0.45
		c0.076,0.456-0.066,0.696-0.271,0.96c0.085,0.102,0.168,0.201,0.254,0.307c-0.007,0-0.013,0-0.019,0
		c-0.09-0.097-0.182-0.193-0.271-0.289c-0.105,0.066-0.202,0.125-0.344,0.162c0,0.379-0.09,0.527-0.092,0.938
		c0.086-0.021,0.152-0.074,0.254-0.033c0.031,0.018,0.061,0.033,0.09,0.055c0.033,0.324,0.088,0.979-0.055,1.209
		c-0.006,0-0.012,0-0.019,0c-0.259,0.016-0.272-0.09-0.252-0.343c-0.119,0.021-0.157,0.026-0.271,0
		c0.006,0.168-0.015,0.255-0.072,0.343c-0.006,0-0.014,0-0.018,0c-0.101,0.002-0.162-0.008-0.218-0.035
		c-0.034-0.162-0.045-1.176,0.037-1.229c0.097-0.064,0.214,0.015,0.289,0.033c0.001-0.373-0.054-0.588-0.056-0.938
		c-0.121-0.049-0.241-0.1-0.36-0.146c-0.084,0.093-0.168,0.184-0.253,0.271c0.04-0.13,0.159-0.207,0.234-0.309
		c-0.006-0.006-0.012-0.012-0.02-0.02c-0.107-0.127-0.211-0.256-0.271-0.433c-0.049-0.147,0.043-0.472-0.035-0.509
		c-0.006,0.156-0.012,0.314-0.018,0.473c-0.013-0.016-0.024-0.025-0.037-0.036c0-0.146,0-0.29,0-0.437
		c-0.125-0.027-0.127-0.084-0.199-0.16c-0.012,0-0.022,0-0.036,0c-0.005,0.006-0.013,0.012-0.019,0.018
		c-0.005,0.127-0.012,0.254-0.018,0.379c-0.006,0-0.012,0-0.02,0c0-0.125,0-0.252,0-0.379c-0.117-0.033-0.149-0.078-0.18-0.199
		c-0.084,0-0.169,0-0.253,0c0,0.057,0,0.109,0,0.164c-0.125,0-0.252,0-0.378,0c0-0.072,0-0.146,0-0.218c-0.055,0-0.107,0-0.163,0
		c-0.039,0.175-0.164,0.22-0.325,0.271c-0.006,0.214-0.012,0.425-0.019,0.636c-0.007,0-0.013,0-0.019,0
		c-0.006-0.218-0.012-0.437-0.018-0.651c-0.217-0.019-0.232-0.137-0.346-0.253c-0.288,0-0.577,0-0.866,0c0-0.077,0-0.157,0-0.235
		c-0.216,0-0.433,0-0.647,0c0,0.41,0,0.82,0,1.229c0.06,0.019,0.12,0.037,0.18,0.056c0.15-0.146,0.302-0.289,0.451-0.435
		c0,0.006,0,0.013,0,0.019c-0.149,0.149-0.301,0.301-0.451,0.452c0.131,0.169,0.146,0.341,0.037,0.542
		c0.149,0.162,0.299,0.325,0.451,0.487c-0.007,0-0.013,0-0.019,0c-0.156-0.149-0.313-0.302-0.47-0.451
		c-0.227,0.144-0.366,0.074-0.596,0c-0.065,0.065-0.133,0.134-0.199,0.199c0.072,0.146,0.045,0.623-0.035,0.885
		c-0.225,0.001-0.277-0.057-0.452-0.073c0.009,0.194,0.034,0.508-0.054,0.614c-0.049,0.101-0.146,0.142-0.289,0.146
		c-0.09-0.053-0.202-0.092-0.233-0.197c0.006-0.557,0.013-1.109,0.019-1.662c0.104-0.191,0.432-0.178,0.522,0.018
		c0.069,0.144-0.04,0.618,0.09,0.705c0.029-0.08,0.015-0.072,0.107-0.09c-0.072-0.115-0.083-0.216-0.019-0.344
		c-0.031-0.025-0.062-0.049-0.091-0.073c0.007-0.013,0.013-0.022,0.019-0.036c0.141-0.186,0.117-0.563,0.108-0.904
		c-0.062-0.029-0.116-0.086-0.126-0.159c-0.016-0.12,0.1-0.152,0.126-0.22c0-0.239,0-0.479,0-0.723
		c-0.817-0.006-1.638-0.012-2.454-0.018c0,0.271,0,0.541,0,0.813c1.075,0.225,0.819,1.943-0.236,1.771
		c-1.022-0.167-1.084-1.708-0.053-1.771c0-0.271,0-0.542,0-0.813c-1.033,0.023-1.74-0.188-2.51-0.398
		c-0.765-0.193-1.527-0.385-2.292-0.578c-0.213-0.059-1.735-0.302-1.462-0.541c0.28-0.109,0.809,0.104,1.063,0.163
		c0.893,0.181,1.783,0.36,2.672,0.541c2.119,0.517,4.943,0.146,7.385,0.073c-0.025-0.346-0.07-0.846,0.018-1.174
		c-0.926,0.374-1.854,0.746-2.779,1.117c0-0.039,0-0.082,0-0.125c0-0.006,0-0.012,0-0.019c0.938-0.481,1.877-0.965,2.816-1.446
		c0.024-1.082,0.602-1.071,1.715-1.048c0.059-0.574,0.461-0.96,0.865-1.193c0.126-0.041,0.252-0.084,0.379-0.126
		c0.006-0.38,0.012-0.76,0.018-1.139c0-0.853-0.16-2.604,0.162-3.144c0.082,0.002,0.099,0.013,0.146,0.035
		c0.299,1.004,0.161,2.986,0.163,4.247c0.64,0.142,1.149,0.633,1.245,1.319c0.811-0.009,1.38-0.075,1.605,0.505
		c0.049,0.2,0.098,0.399,0.146,0.598c0.928,0.47,1.854,0.938,2.778,1.41c0,0.041,0,0.082,0,0.125
		c-0.926-0.373-1.853-0.745-2.778-1.118C19.331,16.96,19.261,17.419,19.257,17.786z M10.88,18.545c0,0.405,0.095,0.811,0.055,1.064
		c0.084,0.078,0.168,0.156,0.253,0.234c0.049-0.019,0.097-0.037,0.146-0.055c0-0.408,0-0.818,0-1.229
		C11.182,18.557,11.032,18.551,10.88,18.545z M20.665,18.563c0,0.41,0,0.82,0,1.229c0.055,0.019,0.108,0.036,0.162,0.056
		c0.078-0.072,0.156-0.146,0.233-0.218c-0.032-0.203,0.019-0.221,0.072-0.36c0-0.242,0-0.479,0-0.724
		C20.977,18.551,20.821,18.557,20.665,18.563z M10.88,19.629c0,0.289,0,0.578,0,0.868c0.168,0.032,0.125,0.026,0.252-0.073
		c-0.117-0.188-0.082-0.363,0.021-0.541C11.062,19.797,10.971,19.713,10.88,19.629z M21.097,19.629
		c-0.083,0.084-0.168,0.168-0.252,0.254c0.111,0.164,0.142,0.365,0.02,0.541c0.043,0.049,0.084,0.098,0.127,0.145
		c0.201-0.146,0.152-0.553,0.145-0.9C21.122,19.652,21.11,19.641,21.097,19.629z M15.845,21.436c0,0.021,0,0.037,0,0.056
		c0.006-0.019,0.013-0.035,0.02-0.056C15.857,21.436,15.851,21.436,15.845,21.436z M15.845,21.744c0,0.012,0,0.021,0,0.033
		C15.845,21.768,15.845,21.756,15.845,21.744z"/>
</g>
<g id="Foreground1">
</g>
</svg>
