<?xml version="1.0" encoding="utf-8"?>
<!-- Generator: Adobe Illustrator 15.0.2, SVG Export Plug-In . SVG Version: 6.00 Build 0)  -->
<!DOCTYPE svg PUBLIC "-//W3C//DTD SVG 1.1//EN" "http://www.w3.org/Graphics/SVG/1.1/DTD/svg11.dtd">
<svg version="1.1" id="Layer_1" xmlns="http://www.w3.org/2000/svg" xmlns:xlink="http://www.w3.org/1999/xlink" x="0px" y="0px"
	 width="32px" height="32px" viewBox="0 0 32 32" enable-background="new 0 0 32 32" xml:space="preserve">
<g id="Background1">
	<path fill="#FFFFFF" d="M16.711,4.742c-0.021-0.479,0.07-0.92,0.148-1.338l-0.287-0.062c-0.113,0.442-0.201,0.911-0.164,1.399
		L16.711,4.742L16.711,4.742z M19.197,4.552l-0.18-0.265L17.825,5.1l0.171,0.266L19.197,4.552z M15.141,5.479l0.125-0.285
		c-0.257-0.119-0.517-0.338-0.668-0.598l-0.125-0.25c-0.099,0.026-0.203,0.09-0.285,0.137C14.354,4.914,14.713,5.293,15.141,5.479z
		 M16.411,5.717l-0.25,0.286l0.624-0.011C16.654,5.914,16.576,5.742,16.411,5.717z M13.627,6.454
		c0.296,0.114,0.604,0.237,0.911,0.274c-0.017-0.099,0.036-0.192,0.041-0.297c-0.489-0.135-0.983-0.311-1.427-0.586l-0.26,0.162
		C13.076,6.253,13.367,6.345,13.627,6.454z M17.141,6.303c-0.275-0.369-0.662-0.134-1.063-0.201
		c-0.094,0.094-0.176,0.172-0.239,0.286l1.249-0.002L17.141,6.303z M18.023,6.572c0.479,0.177,0.947,0.385,1.375,0.686
		c0.084-0.079,0.125-0.172,0.177-0.261c-0.447-0.327-0.938-0.562-1.452-0.722L18.023,6.572z M16.973,6.49l-1.222,0.002l-0.214,0.287
		l1.176-0.002C16.792,6.689,16.922,6.59,16.973,6.49z M16.625,6.887c-0.369,0.006-0.771,0.001-1.16-0.008l-0.177,0.286l1.125-0.001
		L16.625,6.887z M16.339,7.277l-1.087-0.014l-0.109,0.292l1-0.002L16.339,7.277z M14.279,7.879l-0.072-0.313
		c-0.588,0.11-1.145,0.289-1.727,0.414l0.076,0.312L14.279,7.879z M18.143,8.712l0.207-0.224c-0.281-0.303-0.524-0.604-0.822-0.875
		c-0.063,0.068-0.178,0.151-0.213,0.234C17.59,8.135,17.84,8.457,18.143,8.712z M15.127,7.654c-0.031,0.088-0.052,0.188-0.063,0.287
		l0.938-0.002c0.016-0.089,0.066-0.199,0.077-0.287L15.127,7.654z M15.02,8.326l0.947-0.002c0.01-0.088,0.026-0.182,0.036-0.271
		L15.066,8.04L15.02,8.326z M25.379,15.382c-1.314-3.114-4.605-5.296-7.699-5.759c-0.011-0.245,0.036-0.516-0.089-0.713
		c-0.108-0.239-0.339-0.426-0.589-0.483l-2.523-0.038c-0.088,0.021-0.209,0.063-0.313,0.09c-0.489,0.229-0.535,0.771-0.508,1.275
		c-0.999,0.193-1.914,0.57-2.799,1.039c-3.451,1.916-5.539,5.669-4.901,9.675c0.505,3.734,3.844,7.062,7.468,7.867
		c3.872,1.004,8.186-0.366,10.744-3.586C26.243,22.243,26.773,18.377,25.379,15.382z M11.842,13.2
		c-0.438,0.391-0.925,0.698-1.498,0.776c-0.15-0.03-0.344-0.015-0.417-0.187c-0.065-0.28,0.093-0.563,0.249-0.796
		c0.463-0.594,1.098-1.049,1.825-1.18c0.156,0.006,0.379,0.01,0.448,0.188C12.507,12.498,12.154,12.852,11.842,13.2z M14.63,9.477
		c-0.062,0.041-0.12,0.082-0.187,0.025c-0.1-0.098-0.137-0.225-0.137-0.364c0.012-0.135,0.057-0.297,0.197-0.349
		c0.13,0,0.182,0.13,0.225,0.223C14.756,9.179,14.756,9.361,14.63,9.477z"/>
</g>
<g id="Foreground1">
</g>
</svg>
