<?xml version="1.0" encoding="utf-8"?>
<!-- Generator: Adobe Illustrator 15.0.2, SVG Export Plug-In . SVG Version: 6.00 Build 0)  -->
<!DOCTYPE svg PUBLIC "-//W3C//DTD SVG 1.1//EN" "http://www.w3.org/Graphics/SVG/1.1/DTD/svg11.dtd">
<svg version="1.1" id="Layer_1" xmlns="http://www.w3.org/2000/svg" xmlns:xlink="http://www.w3.org/1999/xlink" x="0px" y="0px"
	 width="32px" height="32px" viewBox="0 0 32 32" enable-background="new 0 0 32 32" xml:space="preserve">
<g id="Background1">
	<path fill="#FFFFFF" d="M23.877,10.623c0.75-1.314,1.765-5.228,1.168-6.789l-3.937,0.649c0,0-1.782-0.405-2.45-1.622
		c-0.688,0.361-1.534,0.438-2.354,0.438c-1.016,0-1.969,0.101-2.765-0.438c-0.513,1.483-2.646,1.622-2.646,1.622L7.03,3.953
		c-0.447,1.619,0.426,5.5,1.096,6.67c0.805,1.408-0.503,2.415-1.661,5.081c-1.157,2.667-1.353,4.657,0.2,7.348
		c1.554,2.689,6.643,3.773,6.643,3.773s0.453,0.05,1.51,0.452s1.156,1.861,1.156,1.861L16,29.031l0.024,0.107
		c0,0,0.101-1.459,1.156-1.861c1.059-0.402,1.512-0.452,1.512-0.452s5.088-1.084,6.642-3.773c1.554-2.69,1.358-4.682,0.201-7.347
		C24.378,13.039,23.071,12.031,23.877,10.623z"/>
</g>
<g id="Foreground1">
</g>
</svg>
