<?xml version="1.0" encoding="utf-8"?>
<!-- Generator: Adobe Illustrator 15.0.2, SVG Export Plug-In . SVG Version: 6.00 Build 0)  -->
<!DOCTYPE svg PUBLIC "-//W3C//DTD SVG 1.1//EN" "http://www.w3.org/Graphics/SVG/1.1/DTD/svg11.dtd">
<svg version="1.1" id="Layer_1" xmlns="http://www.w3.org/2000/svg" xmlns:xlink="http://www.w3.org/1999/xlink" x="0px" y="0px"
	 width="32px" height="32px" viewBox="0 0 32 32" enable-background="new 0 0 32 32" xml:space="preserve">
<g id="Background1">
	<g>
		<path fill="#FFFFFF" d="M25.268,18.098c-0.482-3.396-3.555-6.521-6.914-7.246l-0.023-0.035l0.009-4.731
			c0.515,0.072,0.993-0.075,1.238-0.524c0.157-0.438,0.183-1.094-0.025-1.517c-0.174-0.233-0.407-0.423-0.684-0.463l-5.601-0.01
			c-0.123,0.021-0.244,0.045-0.353,0.106c-0.294,0.166-0.513,0.457-0.54,0.793c0.021,0.443-0.081,0.947,0.26,1.283
			c0.266,0.311,0.651,0.372,1.074,0.331l0.036,0.026v4.669l-0.025,0.036c-0.622,0.128-1.202,0.361-1.782,0.6
			c-3.254,1.482-5.556,4.874-5.307,8.514c0.083,3.498,2.766,6.666,5.917,7.86c2.572,1.086,6.08,0.746,8.396-0.696
			C24.076,25.191,25.883,21.796,25.268,18.098z M24.324,22.182c-1.034,3.025-4.2,5.357-7.342,5.61
			c-3.724,0.408-7.313-1.558-8.957-4.813c-1.188-2.194-1.049-5.552,0.353-7.664c1.349-2.14,3.533-3.59,5.942-4.018l0.023-0.025
			l-0.016-1.273l-0.01-4.484l-1.056-0.021c-0.102-0.041-0.208-0.133-0.265-0.234c-0.01-0.382-0.188-0.886,0.244-1.074l0.105-0.025
			l5.43,0.011c0.115,0.035,0.238,0.144,0.289,0.259c-0.015,0.342,0.185,0.871-0.219,1.049c-0.32,0.047-0.709,0.017-1.063,0.026
			v5.813c2.77,0.541,5.479,2.653,6.467,5.332C24.938,18.277,24.962,20.486,24.324,22.182z"/>
		<path fill="#FFFFFF" d="M16.605,14.081c-0.129-0.178-0.303-0.32-0.488-0.418c-0.371-0.193-0.906-0.122-1.236,0.112
			c-0.388,0.27-0.556,0.769-0.438,1.248c0.102,0.406,0.498,0.779,0.916,0.84c0.498,0.065,0.968-0.091,1.246-0.524
			C16.841,14.972,16.841,14.448,16.605,14.081z M16.076,15.069c-0.162,0.214-0.434,0.259-0.684,0.198
			c-0.184-0.071-0.354-0.245-0.393-0.443c-0.051-0.239,0.072-0.473,0.27-0.595c0.313-0.198,0.76-0.046,0.893,0.291
			C16.215,14.733,16.199,14.892,16.076,15.069z"/>
		<path fill="#FFFFFF" d="M16.982,7.63c-0.308-0.315-0.783-0.489-1.232-0.321c-0.341,0.117-0.585,0.412-0.688,0.748
			c-0.103,0.469,0.08,0.912,0.488,1.172c0.285,0.179,0.692,0.179,1.003,0.07c0.308-0.105,0.58-0.406,0.646-0.717
			C17.277,8.262,17.202,7.874,16.982,7.63z M16.564,8.567c-0.152,0.188-0.377,0.276-0.61,0.198c-0.179-0.076-0.32-0.239-0.326-0.442
			c0-0.168,0.092-0.336,0.245-0.413c0.238-0.157,0.596-0.057,0.717,0.193C16.677,8.251,16.648,8.43,16.564,8.567z"/>
		<path fill="#FFFFFF" d="M18.291,12.38c-0.203-0.273-0.516-0.33-0.77-0.33c-0.307,0.036-0.609,0.234-0.725,0.504
			c-0.131,0.234-0.076,0.576,0.051,0.794c0.187,0.285,0.479,0.402,0.809,0.393c0.31,0,0.585-0.209,0.729-0.469
			C18.516,13.001,18.484,12.614,18.291,12.38z M17.804,13.078c-0.063,0.052-0.134,0.065-0.209,0.072
			c-0.106,0.004-0.198-0.053-0.255-0.144c-0.063-0.087,0.004-0.177,0.036-0.26c0.06-0.056,0.127-0.091,0.207-0.097
			c0.117-0.009,0.229,0.065,0.28,0.173C17.895,12.915,17.869,13.012,17.804,13.078z"/>
		<path fill="#FFFFFF" d="M22.751,17.05L9.284,17.04c-0.356,0.899-0.438,2.024-0.356,2.918c0.209,2.621,2.309,5.03,4.817,5.804
			c2.618,0.893,5.54,0.163,7.442-1.734C23.012,22.266,23.656,19.453,22.751,17.05z M15.357,21.083
			c-0.266,0.388-0.707,0.522-1.149,0.452c-0.394-0.076-0.754-0.432-0.841-0.819c-0.076-0.399,0.037-0.794,0.326-1.063
			c0.254-0.284,0.646-0.312,1.002-0.271c0.273,0.086,0.551,0.244,0.688,0.504C15.613,20.248,15.588,20.73,15.357,21.083z
			 M19.743,18.934c-0.2,0.256-0.505,0.324-0.808,0.266c-0.254-0.051-0.481-0.279-0.539-0.534c-0.045-0.239,0.013-0.493,0.197-0.662
			c0.186-0.198,0.49-0.224,0.762-0.168c0.15,0.063,0.318,0.14,0.412,0.306C19.926,18.363,19.9,18.714,19.743,18.934z"/>
	</g>
</g>
<g id="Foreground1">
</g>
</svg>
