<?xml version="1.0" encoding="utf-8"?>
<!-- Generator: Adobe Illustrator 15.0.2, SVG Export Plug-In . SVG Version: 6.00 Build 0)  -->
<!DOCTYPE svg PUBLIC "-//W3C//DTD SVG 1.1//EN" "http://www.w3.org/Graphics/SVG/1.1/DTD/svg11.dtd">
<svg version="1.1" id="Layer_1" xmlns="http://www.w3.org/2000/svg" xmlns:xlink="http://www.w3.org/1999/xlink" x="0px" y="0px"
	 width="32px" height="32px" viewBox="0 0 32 32" enable-background="new 0 0 32 32" xml:space="preserve">
<g id="Background1">
	<g>
		<path fill="#FFFFFF" d="M28.091,12.646c-0.721-1.601-1.698-2.991-2.932-4.173c-1.229-1.176-2.64-2.092-4.222-2.746
			c-1.586-0.649-3.188-0.976-4.807-0.976c-1.729,0-3.392,0.335-4.994,1.001C9.539,6.424,8.104,7.346,6.836,8.525
			c-1.268,1.182-2.252,2.553-2.957,4.119c-0.708,1.567-1.056,3.214-1.056,4.939c0,2.885,1.213,4.944,3.642,6.178
			c0.564,0.281,1.024,0.468,1.375,0.556c0.354,0.086,1.125,0.168,2.323,0.238c0.81,0.03,1.372,0.229,1.69,0.579
			c0.317,0.354,0.51,0.951,0.582,1.793c0.42,0,0.748,0.021,0.978,0.056c0.228,0.035,0.479,0.104,0.765,0.211
			c0.316-0.142,0.67-0.211,1.059-0.211c0.314,0,0.647,0.088,1.003,0.266c0.104-0.035,0.174-0.07,0.212-0.105
			c0.314-0.141,0.58-0.213,0.79-0.213c0.354,0,0.636,0.09,0.847,0.266c0.35-0.245,0.686-0.366,1.002-0.366
			c0.104,0,0.212,0.021,0.318,0.051l0.104,0.054c0.178-0.884,0.413-1.509,0.715-1.875c0.301-0.369,0.814-0.57,1.557-0.607
			c1.021-0.068,1.765-0.148,2.219-0.236c0.46-0.088,0.953-0.258,1.479-0.502c1.129-0.527,2.022-1.32,2.692-2.377
			c0.667-1.055,1.004-2.254,1.004-3.59C29.175,15.948,28.813,14.248,28.091,12.646z M12.039,20.594
			c-0.756,0.707-1.665,1.057-2.721,1.057c-1.022,0-1.898-0.35-2.639-1.057c-0.738-0.703-1.107-1.566-1.107-2.588
			c0-1.055,0.369-1.96,1.107-2.72c0.739-0.756,1.615-1.133,2.639-1.133c1.056,0,1.965,0.377,2.721,1.133
			c0.757,0.76,1.135,1.666,1.135,2.72C13.174,19.027,12.795,19.891,12.039,20.594z M17.059,23.686
			c-0.336,0.297-0.731,0.445-1.188,0.445c-0.426,0-0.794-0.139-1.115-0.422c-0.313-0.283-0.473-0.65-0.473-1.107
			c0-0.528,0.547-1.27,1.637-2.221c0.635,0.494,1.063,0.893,1.294,1.191c0.229,0.297,0.345,0.621,0.345,0.973
			C17.559,23.008,17.391,23.385,17.059,23.686z M25.371,20.543c-0.738,0.701-1.635,1.055-2.688,1.055
			c-1.06,0-1.955-0.361-2.695-1.084c-0.739-0.721-1.108-1.592-1.108-2.611c0-1.019,0.377-1.909,1.136-2.667
			c0.754-0.756,1.659-1.135,2.723-1.135c1.056,0,1.941,0.379,2.666,1.135c0.722,0.757,1.08,1.647,1.08,2.667
			C26.48,18.957,26.111,19.838,25.371,20.543z"/>
	</g>
</g>
<g id="Foreground1">
</g>
</svg>
