<?xml version="1.0" encoding="utf-8"?>
<!-- Generator: Adobe Illustrator 15.0.2, SVG Export Plug-In . SVG Version: 6.00 Build 0)  -->
<!DOCTYPE svg PUBLIC "-//W3C//DTD SVG 1.1//EN" "http://www.w3.org/Graphics/SVG/1.1/DTD/svg11.dtd">
<svg version="1.1" id="Layer_1" xmlns="http://www.w3.org/2000/svg" xmlns:xlink="http://www.w3.org/1999/xlink" x="0px" y="0px"
	 width="32px" height="32px" viewBox="0 0 32 32" enable-background="new 0 0 32 32" xml:space="preserve">
<g id="Background1">
	<path fill="#FFFFFF" d="M27.269,17.7c0.028,0.261-0.038,0.513-0.206,0.761c-0.222,0.376-0.531,0.585-0.933,0.629
		c-0.521,0.058-1.131-0.155-1.835-0.641c-0.182,0.583-0.663,1.628-1.443,3.136c-0.595,1.152-0.931,2.244-1.01,3.271
		c0.032,1.261,0.827,2.41,2.383,3.451c-5.498-0.024-9.941-1.371-13.324-4.035c-1.408-1.127-2.547-2.467-3.42-4.021
		c-0.023-0.051-0.047-0.092-0.068-0.124c-0.448,0.382-0.872,0.597-1.271,0.64c-0.398,0.045-0.755-0.082-1.068-0.383
		c-0.201-0.224-0.313-0.457-0.34-0.699c-0.08-0.729,0.485-1.548,1.705-2.453c-0.16-0.648-0.275-1.287-0.345-1.911
		c-0.358-3.279,0.396-6.05,2.272-8.313c1.748-2.123,3.944-3.228,6.586-3.307c2.625-0.097,4.801,0.61,6.533,2.124
		c1.902,1.669,2.983,4.158,3.246,7.464c0.068,0.801,0.082,1.555,0.037,2.261C26.345,16.169,27.18,16.885,27.269,17.7z
		 M20.424,13.187c-1.674,0.922-3.575,1.501-5.709,1.737c-0.469,0.051-0.877,0.078-1.229,0.082c-2.506-0.109-4.408-0.786-5.703-2.03
		c0.279,0.953,0.51,1.604,0.688,1.952l0.622-0.568l0.614,1.985l1.367-1.441l1.135,2.167l1.229-1.532l1.065,1.778l1.187-1.896
		l1.399,1.241L18.303,15l0.866,0.695C19.846,14.796,20.263,13.96,20.424,13.187z M9.093,9.445C8.885,9.705,8.797,10,8.834,10.33
		c0.037,0.329,0.184,0.598,0.445,0.807c0.258,0.208,0.553,0.295,0.883,0.258c0.348-0.037,0.625-0.188,0.832-0.447
		c0.209-0.259,0.295-0.555,0.259-0.885s-0.185-0.599-0.445-0.807c-0.26-0.209-0.562-0.294-0.909-0.255
		C9.57,9.037,9.302,9.186,9.093,9.445z M17.654,10.161c-0.209,0.26-0.295,0.555-0.261,0.885c0.04,0.347,0.188,0.624,0.447,0.834
		c0.263,0.207,0.558,0.293,0.888,0.257c0.327-0.037,0.598-0.185,0.807-0.445c0.207-0.26,0.295-0.563,0.255-0.91
		c-0.036-0.329-0.185-0.598-0.443-0.807c-0.261-0.209-0.557-0.296-0.885-0.26C18.13,9.753,17.863,9.9,17.654,10.161z"/>
</g>
<g id="Foreground1">
</g>
</svg>
