<?xml version="1.0" encoding="utf-8"?>
<!-- Generator: Adobe Illustrator 15.0.2, SVG Export Plug-In . SVG Version: 6.00 Build 0)  -->
<!DOCTYPE svg PUBLIC "-//W3C//DTD SVG 1.1//EN" "http://www.w3.org/Graphics/SVG/1.1/DTD/svg11.dtd">
<svg version="1.1" id="Layer_1" xmlns="http://www.w3.org/2000/svg" xmlns:xlink="http://www.w3.org/1999/xlink" x="0px" y="0px"
	 width="32px" height="32px" viewBox="0 0 32 32" enable-background="new 0 0 32 32" xml:space="preserve">
<g id="Background1">
	<path fill="#FFFFFF" d="M24.74,18.104c0.146-0.604,0.232-1.229,0.253-1.874h6.848c-0.018,1.256-0.182,2.479-0.477,3.649
		L24.74,18.104z M24.995,15.771c-0.016-0.646-0.095-1.273-0.234-1.88l6.604-1.77c0.295,1.17,0.459,2.392,0.477,3.648L24.995,15.771
		L24.995,15.771z M24.644,13.445c-0.177-0.614-0.418-1.205-0.716-1.757l5.908-3.412c0.595,1.064,1.071,2.203,1.411,3.4
		L24.644,13.445z M23.702,11.288c-0.331-0.547-0.719-1.053-1.15-1.518l4.813-4.813c0.854,0.881,1.607,1.857,2.24,2.916
		L23.702,11.288z M22.229,9.444c-0.457-0.438-0.961-0.834-1.503-1.172l3.396-5.88c1.06,0.634,2.037,1.388,2.918,2.243L22.229,9.444z
		 M20.33,8.04c-0.555-0.309-1.146-0.559-1.763-0.743l1.756-6.546c1.195,0.34,2.336,0.814,3.397,1.412L20.33,8.04z M18.126,7.176
		c-0.609-0.149-1.244-0.238-1.896-0.259V0.159c1.257,0.019,2.479,0.183,3.648,0.476L18.126,7.176z M15.771,6.915
		c-0.652,0.014-1.291,0.096-1.901,0.24l-1.747-6.521c1.17-0.294,2.393-0.458,3.648-0.477V6.915L15.771,6.915z M13.424,7.272
		c-0.623,0.182-1.217,0.428-1.775,0.73l-3.372-5.84c1.063-0.596,2.202-1.071,3.399-1.41L13.424,7.272z M11.251,8.232
		c-0.549,0.337-1.062,0.728-1.523,1.169L4.962,4.635c0.88-0.854,1.859-1.608,2.917-2.242L11.251,8.232z M9.401,9.726
		c-0.438,0.464-0.833,0.975-1.169,1.523L2.394,7.878c0.635-1.059,1.39-2.038,2.244-2.92L9.401,9.726z M8.003,11.647
		c-0.303,0.561-0.549,1.154-0.73,1.776l-6.519-1.747c0.337-1.197,0.813-2.336,1.41-3.4L8.003,11.647z M7.156,13.868
		c-0.146,0.611-0.229,1.248-0.24,1.902H0.159c0.018-1.258,0.182-2.479,0.477-3.648L7.156,13.868z M6.918,16.229
		c0.02,0.651,0.105,1.287,0.259,1.897l-6.542,1.752c-0.295-1.17-0.459-2.395-0.477-3.649H6.918L6.918,16.229z M7.298,18.568
		c0.186,0.618,0.436,1.208,0.743,1.764l-5.876,3.393c-0.597-1.063-1.072-2.203-1.41-3.4L7.298,18.568z M8.272,20.726
		c0.338,0.542,0.731,1.047,1.172,1.504l-4.809,4.812c-0.854-0.882-1.609-1.859-2.243-2.919L8.272,20.726z M9.772,22.553
		c0.463,0.433,0.972,0.819,1.518,1.149l-3.41,5.902c-1.059-0.635-2.038-1.389-2.918-2.242L9.772,22.553z M11.688,23.929
		c0.557,0.297,1.145,0.538,1.757,0.716l-1.769,6.604c-1.197-0.342-2.335-0.816-3.399-1.411L11.688,23.929z M13.89,24.76
		c0.606,0.143,1.235,0.222,1.881,0.235v6.846c-1.257-0.02-2.479-0.183-3.648-0.479L13.89,24.76z M16.23,24.993
		c0.645-0.02,1.271-0.104,1.874-0.253l1.774,6.624c-1.169,0.295-2.394,0.459-3.648,0.479V24.993L16.23,24.993z M18.548,24.62
		c0.61-0.185,1.195-0.43,1.743-0.729l3.432,5.944c-1.063,0.595-2.202,1.069-3.397,1.411L18.548,24.62z M20.689,23.659
		c0.538-0.329,1.041-0.718,1.496-1.149l4.854,4.854c-0.881,0.854-1.859,1.607-2.92,2.242L20.689,23.659z M22.511,22.185
		c0.433-0.455,0.818-0.957,1.15-1.496l5.943,3.434c-0.633,1.06-1.388,2.035-2.24,2.917L22.511,22.185z M29.836,23.723l-5.944-3.433
		c0.302-0.55,0.546-1.134,0.729-1.743l6.627,1.773C30.908,21.52,30.431,22.658,29.836,23.723z M19.919,17.996
		c0.104-0.204,0.191-0.417,0.265-0.64l2.376,0.636c-0.132,0.433-0.306,0.843-0.515,1.23L19.919,17.996z M20.302,16.914
		c0.048-0.224,0.079-0.45,0.09-0.686h2.468c-0.018,0.454-0.078,0.896-0.181,1.322L20.302,16.914z M20.392,15.771
		c-0.011-0.232-0.042-0.463-0.09-0.686l2.396-0.644c0.096,0.431,0.149,0.873,0.161,1.328L20.392,15.771L20.392,15.771z
		 M20.184,14.641c-0.068-0.221-0.159-0.435-0.265-0.639l2.16-1.247c0.207,0.394,0.377,0.809,0.504,1.243L20.184,14.641z
		 M19.688,13.604c-0.127-0.192-0.266-0.377-0.42-0.548l1.775-1.774c0.304,0.33,0.574,0.688,0.811,1.072L19.688,13.604z
		 M18.942,12.731c-0.171-0.152-0.354-0.294-0.548-0.421l1.267-2.188c0.38,0.242,0.735,0.521,1.062,0.832L18.942,12.731z
		 M17.997,12.081c-0.203-0.104-0.417-0.193-0.64-0.268l0.659-2.457c0.436,0.137,0.854,0.313,1.244,0.528L17.997,12.081z
		 M16.915,11.696c-0.225-0.047-0.452-0.078-0.686-0.09V9.052c0.46,0.018,0.911,0.082,1.344,0.186L16.915,11.696z M15.771,11.606
		c-0.232,0.012-0.464,0.042-0.686,0.09L14.42,9.218c0.437-0.1,0.887-0.156,1.351-0.168V11.606z M14.641,11.814
		c-0.221,0.072-0.435,0.162-0.639,0.268l-1.286-2.23c0.398-0.211,0.82-0.386,1.26-0.517L14.641,11.814z M13.604,12.311
		c-0.191,0.126-0.376,0.268-0.548,0.42l-1.82-1.821c0.332-0.31,0.693-0.588,1.081-0.828L13.604,12.311z M12.732,13.055
		c-0.153,0.172-0.295,0.354-0.421,0.55l-2.229-1.288c0.241-0.388,0.519-0.75,0.83-1.081L12.732,13.055z M12.081,14.002
		c-0.104,0.204-0.192,0.417-0.267,0.639l-2.48-0.665c0.131-0.441,0.306-0.862,0.518-1.26L12.081,14.002z M11.696,15.085
		c-0.049,0.222-0.077,0.451-0.091,0.686H9.049c0.012-0.463,0.069-0.915,0.168-1.35L11.696,15.085z M11.606,16.229
		c0.014,0.234,0.042,0.462,0.091,0.686l-2.46,0.657c-0.104-0.433-0.168-0.883-0.187-1.343H11.606L11.606,16.229z M11.815,17.358
		c0.072,0.223,0.161,0.436,0.267,0.64l-2.193,1.269c-0.215-0.395-0.393-0.813-0.529-1.247L11.815,17.358z M12.311,18.395
		c0.126,0.195,0.268,0.378,0.42,0.549l-1.775,1.777c-0.313-0.325-0.589-0.681-0.832-1.063L12.311,18.395z M13.056,19.268
		c0.171,0.154,0.355,0.295,0.549,0.421l-1.25,2.166c-0.384-0.236-0.741-0.507-1.071-0.811L13.056,19.268z M14.002,19.918
		c0.204,0.104,0.418,0.192,0.639,0.266l-0.642,2.399c-0.436-0.129-0.852-0.3-1.244-0.504L14.002,19.918z M15.085,20.303
		c0.222,0.047,0.452,0.078,0.686,0.089v2.47c-0.455-0.012-0.898-0.065-1.329-0.164L15.085,20.303z M16.23,20.392
		c0.232-0.011,0.461-0.042,0.686-0.089l0.637,2.376c-0.427,0.101-0.867,0.163-1.321,0.18L16.23,20.392L16.23,20.392z M17.359,20.184
		c0.223-0.071,0.437-0.161,0.64-0.266l1.228,2.126c-0.389,0.211-0.8,0.383-1.229,0.515L17.359,20.184z M18.395,19.688
		c0.195-0.126,0.378-0.267,0.548-0.421l1.733,1.731c-0.323,0.304-0.677,0.575-1.054,0.813L18.395,19.688z M21.002,20.674
		l-1.733-1.732c0.154-0.171,0.294-0.354,0.42-0.547l2.125,1.229C21.576,19.998,21.305,20.351,21.002,20.674z"/>
</g>
<g id="Foreground1">
</g>
</svg>
