<?xml version="1.0" encoding="utf-8"?>
<!-- Generator: Adobe Illustrator 15.0.2, SVG Export Plug-In . SVG Version: 6.00 Build 0)  -->
<!DOCTYPE svg PUBLIC "-//W3C//DTD SVG 1.1//EN" "http://www.w3.org/Graphics/SVG/1.1/DTD/svg11.dtd">
<svg version="1.1" id="Layer_3" xmlns="http://www.w3.org/2000/svg" xmlns:xlink="http://www.w3.org/1999/xlink" x="0px" y="0px"
	 width="32px" height="32px" viewBox="0 0 32 32" enable-background="new 0 0 32 32" xml:space="preserve">
<path fill="#FFFFFF" d="M13.201,0c0.035,0.01,0.054,0.035,0.055,0.073C13.18,0.111,13.156,0.068,13.201,0 M14.841,0
	c0.035,0.01,0.054,0.035,0.054,0.073c-0.017,0.008-0.027,0.02-0.034,0.036C14.792,0.079,14.785,0.042,14.841,0 M16.479,0
	c0.085,0.053,0.067,0.126-0.034,0.091C16.456,0.061,16.468,0.029,16.479,0 M18.119,0c0.036,0.01,0.054,0.035,0.055,0.073
	C18.099,0.111,18.074,0.068,18.119,0 M19.741,0.02c0.065,0.033,0.104,0.037,0.035,0.072C19.719,0.079,19.707,0.055,19.741,0.02
	 M14.02,0.783C14.374,0.925,13.731,1.001,14.02,0.783 M15.643,0.783C15.979,0.842,15.409,1.109,15.643,0.783 M17.281,0.783
	C17.648,0.848,17.014,1.05,17.281,0.783 M18.939,0.783c0.094,0.045,0.1,0.1,0.018,0.164C18.859,0.915,18.857,0.838,18.939,0.783
	 M12.381,0.802C12.668,0.975,12.15,0.956,12.381,0.802 M20.577,0.802C20.811,0.918,20.401,0.979,20.577,0.802 M10.741,0.82
	c0.091,0.029,0.097,0.066,0.019,0.109c-0.021,0.002-0.039-0.005-0.054-0.02C10.717,0.881,10.73,0.85,10.741,0.82 M22.218,0.82
	c0.036,0.01,0.054,0.035,0.054,0.072C22.197,0.93,22.173,0.889,22.218,0.82 M13.201,1.566C13.622,1.807,12.84,1.852,13.201,1.566
	 M14.785,1.566C15.348,1.576,14.527,2.085,14.785,1.566 M16.425,1.566C17.055,1.566,16.046,2.072,16.425,1.566 M18.083,1.566
	C18.52,1.761,17.857,1.941,18.083,1.566 M11.563,1.584C12.027,1.865,11.13,1.729,11.563,1.584 M19.759,1.584
	C20.206,1.809,19.354,1.787,19.759,1.584 M9.922,1.604c0.095,0.045,0.103,0.101,0.02,0.164C9.844,1.734,9.841,1.658,9.922,1.604
	 M21.398,1.604c0.06,0.031,0.078,0.076,0.063,0.139c-0.055,0.021-0.1,0.013-0.138-0.028C21.349,1.676,21.374,1.641,21.398,1.604
	 M8.283,1.641c0.036,0.01,0.054,0.034,0.054,0.072C8.263,1.75,8.238,1.708,8.283,1.641 M23.038,1.641
	c0.058,0.036,0.068,0.06,0.018,0.108c-0.021,0.003-0.038-0.003-0.055-0.019C23.013,1.701,23.025,1.67,23.038,1.641 M14.02,2.332
	c0.212,0.078,0.248,0.257,0.038,0.365C13.869,2.648,13.761,2.396,14.02,2.332 M15.623,2.332c0.17,0.012,0.305,0.119,0.184,0.285
	C15.637,2.848,15.331,2.507,15.623,2.332 M17.3,2.332C17.487,2.4,17.517,2.48,17.427,2.66C17.127,2.734,17.023,2.4,17.3,2.332
	 M18.939,2.35c0.217,0.063,0.173,0.188,0.055,0.328C18.789,2.637,18.699,2.41,18.939,2.35 M12.327,2.369
	c0.142,0,0.295,0.063,0.184,0.234C12.393,2.784,12.155,2.542,12.327,2.369 M10.706,2.386C11.24,2.418,10.371,2.855,10.706,2.386
	 M20.523,2.386C21.075,2.398,20.24,2.882,20.523,2.386 M22.218,2.404C22.62,2.604,21.848,2.589,22.218,2.404 M9.083,2.423
	C9.528,2.479,8.724,2.663,9.083,2.423 M7.463,2.441C7.696,2.559,7.286,2.619,7.463,2.441 M23.857,2.441
	C24.098,2.563,23.663,2.636,23.857,2.441 M14.804,3.098c0.303,0.02,0.34,0.248,0.185,0.455C14.62,3.634,14.501,3.299,14.804,3.098
	 M16.443,3.098c0.3,0.02,0.34,0.248,0.182,0.455C16.246,3.628,16.108,3.298,16.443,3.098 M13.165,3.116
	c0.257,0.063,0.417,0.442,0.053,0.438C12.862,3.55,12.992,3.246,13.165,3.116 M18.065,3.116c0.265-0.005,0.43,0.372,0.114,0.442
	C17.833,3.636,17.863,3.258,18.065,3.116 M19.723,3.134c0.237,0.017,0.356,0.327,0.085,0.411
	C19.509,3.639,19.545,3.243,19.723,3.134 M11.488,3.152C12.332,3.246,10.986,3.822,11.488,3.152 M21.362,3.17
	c0.186,0.01,0.236,0.164,0.128,0.311C21.267,3.512,21.176,3.32,21.362,3.17 M9.868,3.188C10.561,3.186,9.441,3.786,9.868,3.188
	 M23.001,3.207C23.438,3.4,22.779,3.576,23.001,3.207 M8.246,3.225C8.758,3.254,7.933,3.643,8.246,3.225 M24.677,3.243
	c0.142,0.088,0.061,0.196-0.07,0.108C24.628,3.316,24.652,3.279,24.677,3.243 M6.643,3.261C6.68,3.27,6.71,3.287,6.734,3.316
	C6.711,3.404,6.669,3.428,6.608,3.389C6.571,3.333,6.582,3.291,6.643,3.261 M26.316,3.279c0.033,0.011,0.055,0.035,0.055,0.072
	C26.295,3.391,26.271,3.348,26.316,3.279 M13.984,3.861c0.358,0.012,0.501,0.537,0.101,0.591
	C13.618,4.516,13.723,4.037,13.984,3.861 M15.588,3.861c0.291,0.023,0.619,0.406,0.219,0.584C15.419,4.678,15.248,4.07,15.588,3.861
	 M17.245,3.861c0.272,0.002,0.494,0.262,0.291,0.507C17.242,4.725,16.765,4.168,17.245,3.861 M18.885,3.881
	c0.332,0.008,0.403,0.289,0.219,0.528C18.668,4.544,18.556,4.111,18.885,3.881 M12.309,3.898c0.259,0.024,0.57,0.313,0.208,0.506
	C12.151,4.598,12.046,4.096,12.309,3.898 M20.543,3.917c0.212,0.043,0.444,0.341,0.133,0.468
	C20.324,4.525,20.298,4.078,20.543,3.917 M10.688,3.936c0.281-0.01,0.356,0.198,0.221,0.418C10.581,4.414,10.382,4.165,10.688,3.936
	 M9.066,3.973C9.327,4.009,9.337,4.15,9.174,4.336C8.9,4.334,8.917,4.121,9.066,3.973 M22.146,3.973
	c0.194-0.006,0.254,0.07,0.254,0.254C22.139,4.451,21.921,4.232,22.146,3.973 M23.839,4.008c0.155,0.031,0.181,0.151,0.092,0.273
	C23.764,4.257,23.637,4.109,23.839,4.008 M7.426,4.025C7.925,4.025,7.137,4.51,7.426,4.025 M5.824,4.063
	C6.115,4.244,5.566,4.234,5.824,4.063 M25.479,4.063C25.839,4.126,25.189,4.352,25.479,4.063 M27.137,4.1
	c0.036,0.01,0.056,0.034,0.056,0.072C27.115,4.21,27.091,4.167,27.137,4.1 M4.222,4.117c0.021,0.052,0.015,0.02-0.019,0.055
	C4.208,4.154,4.215,4.136,4.222,4.117z M14.804,4.609c0.264,0.056,0.662,0.597,0.226,0.768C14.463,5.598,14.327,4.844,14.804,4.609
	 M16.425,4.609c0.316,0.063,0.69,0.551,0.219,0.746C16.098,5.583,16.008,4.855,16.425,4.609 M13.183,4.627
	c0.451,0.055,0.512,0.564,0.093,0.729C12.764,5.357,12.773,4.802,13.183,4.627 M18.047,4.627c0.574-0.021,0.573,0.756-0.02,0.729
	C17.641,5.182,17.742,4.805,18.047,4.627z M11.543,4.664c0.451,0.025,0.448,0.693-0.004,0.634
	C11.117,5.242,11.278,4.809,11.543,4.664 M19.668,4.664c0.328-0.007,0.617,0.352,0.283,0.591
	C19.538,5.553,19.276,4.921,19.668,4.664 M21.379,4.701c0.276,0.031,0.428,0.391,0.128,0.527C21.163,5.445,21.04,4.891,21.379,4.701
	 M9.885,4.719c0.338,0.037,0.448,0.549,0.063,0.528C9.578,5.229,9.665,4.865,9.885,4.719 M23.038,4.755
	c0.238,0.12,0.3,0.442-0.055,0.438C22.774,5.07,22.782,4.807,23.038,4.755 M8.246,4.773c0.202,0.039,0.4,0.256,0.128,0.381
	C8.072,5.156,8.029,4.949,8.246,4.773 M6.625,4.828C6.738,4.85,6.889,5.025,6.716,5.083C6.542,5.083,6.424,4.928,6.625,4.828
	 M24.622,4.828C25.258,4.934,24.214,5.318,24.622,4.828 M5.004,4.882C5.319,5.009,4.765,5.121,5.004,4.882 M26.261,4.882
	C26.584,4.882,26.215,5.262,26.261,4.882 M27.956,4.919c0.036,0.011,0.054,0.035,0.055,0.073
	C27.936,5.029,27.911,4.986,27.956,4.919 M3.401,4.938C3.433,5.033,3.375,4.988,3.401,4.938 M13.984,5.374
	c0.439,0.011,0.423,0.29,0.456,0.628c0.025,0.273,0.517,0.251,0.721,0.148c0.27-0.133-0.061-0.901,0.585-0.768
	c0.597,0.125,0.063,0.794,0.7,0.813c0.717,0.019,0.186-0.506,0.644-0.733c0.501-0.25,0.596,0.218,0.629,0.572
	c0.04,0.432,0.785-0.125,0.82,0.435c0.019,0.303,0.168,0.655,0.534,0.539c0.483-0.154,0.076-0.404,0.321-0.667
	c0.199-0.274,0.603-0.126,0.781,0.091c-0.012,0.274-0.088,0.592,0.279,0.594c0.483,0.004,0.531,0.084,0.574,0.563
	c0.022,0.274,0.724,0.354,0.805,0.193c0-0.276-0.083-0.74,0.328-0.739c0.217,0,0.418,0.171,0.43,0.393
	c0.036,0.666-0.748,0.172-0.771,0.602c-0.021,0.328,0.062,0.654,0.465,0.627C22.94,8.621,22.352,7.912,23,7.852
	c0.359-0.035,0.513,0.332,0.395,0.627c-0.173,0.424-0.92-0.064-0.731,0.707c0.07,0.291,0.377,0.313,0.621,0.246
	c0.43-0.123-0.102-0.744,0.582-0.74c0.35,0,0.482,0.317,0.341,0.61c-0.176,0.357-0.715-0.038-0.788,0.476
	c-0.042,0.3,0.261,0.531,0.535,0.529c0.516-0.002,0.205-0.455,0.432-0.756c0.696-0.246,1.021,0.766,0.216,0.741
	c-0.313-0.009-0.436,0.306-0.308,0.588c0.137,0.325,0.556,0.154,0.802,0.312c0,0.535-0.041,0.648,0.512,0.729
	c0.149,0.021,0.221,0.115,0.311,0.219c0.011,0.374,0.073,0.614-0.347,0.628c-0.32,0.013-0.654,0.396-0.329,0.704
	c0.143,0.138,0.354,0.137,0.531,0.07c0.208-0.078,0.138-0.145,0.131-0.333c-0.025-0.766,0.937-0.484,0.828,0.091
	c-0.072,0.396-0.514,0.204-0.762,0.316c-0.064,0.199-0.069,0.425,0.004,0.621c0.104,0.273,0.293,0.128,0.528,0.185
	c0.459,0.108,0.258,0.792-0.168,0.808c-0.273,0.011-0.313,0.015-0.384,0.273c-0.054,0.196-0.024,0.425,0.184,0.518
	c0.418,0.153,0.688-0.021,0.604,0.578c-0.065,0.459-0.561,0.078-0.745,0.478c-0.399,0.852,1.004,0.3,0.708,1.193
	c-0.14,0.425-0.507,0.032-0.724,0.355c-0.227,0.331,0.004,0.691,0.33,0.702c0.487,0.018,0.516,0.522,0.174,0.811
	c-0.174-0.004-0.4-0.04-0.564,0.037c0.009,0.206,0.055,0.462-0.035,0.658c-0.146,0.322-0.574-0.046-0.721,0.315
	c-0.081,0.201-0.063,0.429,0.009,0.631c0.179-0.007,0.376-0.015,0.545,0.063c0.332,0.155,0.125,0.669-0.17,0.754
	c-0.66,0.188-0.249-0.567-0.503-0.746c-0.225-0.215-0.55-0.129-0.678,0.146c-0.066,0.14-0.068,0.302-0.012,0.445
	c0.104,0.264,0.282,0.129,0.515,0.172c0.289,0.056,0.3,0.539,0.094,0.708c-0.099,0.082-0.23,0.102-0.354,0.096
	c-0.393-0.021-0.296-0.138-0.337-0.46c-0.082-0.668-1.077-0.193-0.756,0.307c0.177,0.271,0.486,0.083,0.728,0.192
	c0.114,0.521-0.072,0.823-0.609,0.771c-0.339-0.029-0.057-0.469-0.271-0.707c-0.151-0.17-0.407-0.098-0.559,0.032
	c-0.181,0.157-0.22,0.403-0.049,0.584c0.146,0.151,0.308,0.102,0.498,0.102c0.317,0,0.188,0.313,0.188,0.583
	c-0.095,0.246-0.439,0.279-0.656,0.224c-0.354-0.094,0.021-0.55-0.311-0.72c-0.397-0.204-0.921,0.313-0.551,0.653
	c0.315,0.286,0.71-0.181,0.723,0.448c0.006,0.299-0.214,0.463-0.498,0.427c-0.455-0.062-0.249-0.272-0.373-0.604
	c-0.124-0.328-0.662-0.148-0.757,0.124c-0.147,0.421,0.138,0.505,0.468,0.505c0.313,0,0.427,0.417,0.23,0.664
	c-0.19,0.247-0.53,0.114-0.72-0.063c0-0.248,0.118-0.511-0.18-0.582c-0.173-0.043-0.371-0.023-0.521,0.078
	c-0.256,0.18,0.048,0.678-0.327,0.705c-0.162,0.016-0.328,0-0.488,0.03c-0.218,0.04-0.108,0.252-0.145,0.425
	c-0.04,0.198-0.156,0.409-0.388,0.394c-0.555-0.04-0.271-0.444-0.482-0.761c-0.216-0.092-0.606-0.139-0.729,0.129
	c-0.126,0.335,0.104,0.566-0.369,0.608c-0.45,0.041-0.428-0.107-0.466-0.471c-0.036-0.351-0.366-0.387-0.621-0.249
	c-0.477,0.257,0.03,0.919-0.838,0.707c-0.403-0.099-0.003-0.521-0.369-0.708c-0.157-0.08-0.323-0.082-0.478,0.007
	c-0.239,0.14-0.137,0.263-0.159,0.501c-0.036,0.347-0.62,0.227-0.817,0.077c0.011-0.359,0.021-0.638-0.389-0.674
	c-0.353-0.03-0.453,0.133-0.462,0.458c-0.012,0.387-0.432,0.433-0.68,0.206c-0.141-0.093-0.172-0.223-0.093-0.393
	c0.027-0.401,0.079-0.253,0.413-0.271c0.346-0.021,0.431-0.232,0.34-0.556c-0.063-0.227-0.259-0.31-0.479-0.251
	c-0.344,0.093-0.307,0.511-0.291,0.783c-0.214,0-0.427,0-0.64,0c-0.261-0.209-0.14-0.271-0.194-0.571
	c-0.063-0.329-0.562-0.154-0.808-0.267c0-0.396,0.064-0.771-0.44-0.787c-0.644-0.017-0.128,0.665-0.626,0.774
	c-0.623,0.139-0.845-0.788-0.12-0.766c0.77,0.023,0.244-1.148-0.346-0.76C8.49,24.509,8.9,25.192,8.181,25.012
	c-0.388-0.097-0.346-0.522-0.15-0.781c0.267,0,0.516,0.114,0.618-0.188c0.051-0.152,0.053-0.331-0.039-0.469
	c-0.082-0.126-0.227-0.188-0.373-0.172c-0.407,0.038-0.324,0.244-0.354,0.557c-0.033,0.342-0.608,0.327-0.761,0.063
	c-0.078-0.138-0.057-0.302,0.003-0.438c0.124-0.282,0.382-0.184,0.648-0.191c0.103-0.229,0.185-0.602-0.095-0.749
	c-0.129-0.067-0.289-0.062-0.426-0.032c-0.331,0.065-0.141,0.334-0.23,0.6c-0.247,0.714-1.414-0.628-0.35-0.612
	c0.381,0.007,0.531-0.294,0.374-0.654c-0.08-0.186-0.385-0.116-0.541-0.146c-0.374-0.067-0.225-0.426-0.303-0.724
	c-0.087-0.337-0.685,0.09-0.771-0.43c-0.076-0.467,0.152-0.479,0.518-0.515c0.429-0.043,0.321-0.832-0.104-0.811
	c-0.439,0.021-0.443-0.141-0.447-0.541c-0.008-0.582-0.536-0.021-0.737-0.475c-0.132-0.297,0.008-0.63,0.347-0.644
	c0.257-0.011,0.37,0.044,0.403-0.252c0.027-0.245,0.021-0.562-0.271-0.551c-0.282,0.009-0.61-0.105-0.524-0.463
	c0.103-0.425,0.267-0.304,0.605-0.364c0.263-0.047,0.232-0.444,0.188-0.63c-0.107-0.432-0.67,0.001-0.772-0.576
	c-0.09-0.502,0.456-0.44,0.787-0.452c-0.004-0.212-0.021-0.438,0.028-0.646c0.093-0.392,0.55,0.041,0.725-0.361
	c0.093-0.208,0.058-0.433-0.079-0.613c-0.272,0.009-0.581,0.046-0.644-0.28c-0.109-0.574,0.429-0.525,0.808-0.502
	c-0.109,0.356,0.022,0.996,0.527,0.735c0.184-0.095,0.295-0.299,0.221-0.502c-0.131-0.368-0.453-0.263-0.767-0.252
	c0.058-0.409-0.097-0.829,0.437-0.847c0.642-0.021,0.198-0.442,0.476-0.813c0.43-0.014,0.698,0.031,0.7-0.484
	C7.857,9.232,8.268,9.63,8.591,9.402c0.112-0.08,0.061-0.282,0.065-0.396c0.026-0.492,0.29-0.27,0.646-0.379
	c0.185-0.055,0.185-0.262,0.199-0.419c0.064-0.593,0.491-0.196,0.84-0.502c0.01-0.241-0.093-0.532,0.181-0.636
	c0.201-0.075,0.433-0.063,0.641-0.021c-0.02,0.351-0.016,0.795,0.451,0.783c0.273-0.008,0.358-0.272,0.327-0.505
	c-0.081-0.576-0.744-0.069-0.765-0.535c-0.012-0.247,0.063-0.605,0.377-0.604c0.661,0.008,0.184,0.668,0.666,0.789
	c0.328,0.082,0.607-0.016,0.611-0.394c0.006-0.563,0.395-0.339,0.826-0.394c-0.251,0.58,0.471,1.186,0.758,0.531
	c0.201-0.459-0.19-0.535-0.533-0.543C13.333,6.167,13.668,5.536,13.984,5.374 M18.902,5.393c0.442,0.021,0.57,0.521,0.256,0.801
	c-0.32,0-0.602,0.084-0.612-0.334C18.539,5.634,18.715,5.479,18.902,5.393 M12.309,5.411c0.495-0.021,0.562,0.437,0.328,0.782
	c-0.21-0.008-0.546,0.052-0.625-0.219C11.947,5.761,12.134,5.512,12.309,5.411 M10.741,5.447c0.344,0.046,0.546,0.537,0.168,0.707
	C10.456,6.357,10.23,5.618,10.741,5.447 M20.47,5.447c0.324-0.021,0.624,0.313,0.371,0.607C20.48,6.471,19.96,5.818,20.47,5.447
	 M22.146,5.502c0.397,0.063,0.477,0.35,0.182,0.602C21.868,6.125,21.819,5.739,22.146,5.502 M9.03,5.52
	c0.396-0.01,0.525,0.515,0.126,0.568C8.753,6.145,8.826,5.68,9.03,5.52 M23.857,5.557c0.214,0.082,0.354,0.336,0.071,0.455
	C23.54,6.122,23.602,5.697,23.857,5.557 M7.463,5.575c0.293,0.065,0.322,0.437-0.019,0.437C7.208,5.898,7.258,5.686,7.463,5.575
	 M25.497,5.629c0.192,0.096,0.194,0.206,0.018,0.328C25.313,5.906,25.259,5.689,25.497,5.629 M5.806,5.646
	c0.114,0.014,0.25,0.14,0.12,0.25C5.733,6.061,5.655,5.783,5.806,5.646 M4.185,5.702C4.5,5.828,3.945,5.941,4.185,5.702
	 M27.082,5.702C27.404,5.702,27.034,6.082,27.082,5.702 M28.776,5.739c0.033,0.01,0.054,0.034,0.055,0.073
	C28.754,5.85,28.73,5.807,28.776,5.739 M15.424,6.193c-0.26,0.267-0.172,0.844,0.273,0.802c0.244-0.022,0.373-0.194,0.352-0.433
	C16.008,6.129,15.807,6.193,15.424,6.193 M17.026,6.193c-0.266,0.396,0.084,1.084,0.563,0.711c0.132-0.104,0.159-0.396,0.137-0.543
	C17.688,6.074,17.232,6.193,17.026,6.193 M21.325,6.23c0.343-0.016,0.655,0.449,0.337,0.703C21.174,7.32,20.729,6.532,21.325,6.23
	 M9.868,6.249c0.536-0.03,0.605,0.663,0.183,0.765C9.493,7.148,9.445,6.458,9.868,6.249z M22.947,6.303
	c0.288-0.009,0.557,0.268,0.316,0.53C22.929,7.203,22.489,6.635,22.947,6.303 M8.21,6.322c0.269,0.035,0.666,0.385,0.218,0.582
	C8.042,7.105,7.915,6.542,8.21,6.322 M24.622,6.376c0.254,0,0.424,0.326,0.146,0.455C24.463,6.986,24.318,6.499,24.622,6.376
	 M6.607,6.395C6.92,6.402,6.921,6.634,6.753,6.833C6.429,6.846,6.372,6.568,6.607,6.395 M26.28,6.449
	C26.964,6.561,25.77,7.033,26.28,6.449 M4.967,6.467C5.636,6.482,4.478,6.997,4.967,6.467 M3.365,6.521
	C3.672,6.712,3.107,6.693,3.365,6.521 M27.938,6.521C28.36,6.596,27.57,6.768,27.938,6.521 M29.596,6.559
	c0.036,0.01,0.056,0.034,0.057,0.073C29.575,6.669,29.55,6.626,29.596,6.559 M13.128,7.014c-0.622,0.311-0.157,1.032,0.382,0.619
	C13.627,7.313,13.552,7.003,13.128,7.014z M18.119,7.014c-0.517,0.129-0.424,0.776,0.107,0.748
	C18.645,7.574,18.539,7.096,18.119,7.014 M19.559,7.014c-0.247,0.295-0.188,0.922,0.331,0.795c0.208-0.049,0.304-0.283,0.292-0.479
	C20.159,6.939,19.861,7.014,19.559,7.014 M14.822,7.032c-0.362,0.155-0.456,0.755,0.068,0.713
	C15.365,7.708,15.221,7.087,14.822,7.032 M9.03,7.051c0.498-0.021,0.635,0.458,0.31,0.783C8.838,7.809,8.438,7.404,9.03,7.051
	 M16.389,7.051c-0.291,0.219-0.335,0.713,0.151,0.672C17.07,7.68,16.805,7.085,16.389,7.051 M23.784,7.105
	c0.328-0.013,0.559,0.408,0.242,0.612c-0.174,0.111-0.388,0.063-0.478-0.129C23.432,7.333,23.604,7.23,23.784,7.105 M7.426,7.123
	c0.358,0.002,0.563,0.516,0.153,0.625C7.122,7.872,7.109,7.313,7.426,7.123 M25.406,7.195c0.21-0.01,0.464,0.183,0.269,0.395
	C25.402,7.884,25.151,7.463,25.406,7.195 M5.787,7.214c0.279,0.031,0.369,0.252,0.146,0.438C5.609,7.665,5.552,7.389,5.787,7.214
	 M27.137,7.27c0.195,0.061,0.166,0.18,0.056,0.311C26.979,7.579,26.925,7.322,27.137,7.27 M4.167,7.287
	C4.81,7.573,3.663,7.539,4.167,7.287 M2.544,7.342c0.112,0.065,0.078,0.184-0.036,0.146C2.497,7.434,2.509,7.385,2.544,7.342
	 M28.757,7.342c0.073,0.027,0.086,0.057,0.109,0.127C28.751,7.508,28.639,7.46,28.757,7.342 M10.561,7.834
	c-0.328,0.284-0.224,0.859,0.285,0.757C11.444,8.469,11.055,7.802,10.561,7.834 M20.523,7.834c-0.332,0.2-0.427,0.725,0.082,0.773
	C21.135,8.659,21.08,7.802,20.523,7.834 M8.246,7.852C8.779,7.848,8.914,8.699,8.389,8.65C7.83,8.6,7.748,8.096,8.246,7.852
	 M12.271,7.889c-0.234,0.185-0.361,0.592,0.063,0.646C12.843,8.596,12.791,7.878,12.271,7.889 M18.921,7.889
	c-0.291,0.082-0.404,0.531-0.045,0.625C19.371,8.643,19.352,8.011,18.921,7.889 M13.966,7.925c-0.263,0.158-0.316,0.687,0.125,0.584
	C14.473,8.42,14.305,7.93,13.966,7.925 M17.281,7.925c-0.258,0.136-0.391,0.565,0.036,0.583C17.724,8.525,17.634,7.979,17.281,7.925
	 M24.586,7.925c0.378-0.018,0.506,0.339,0.292,0.62C24.396,8.691,24.106,8.165,24.586,7.925 M6.607,7.943
	C6.92,7.991,7.197,8.423,6.76,8.561C6.315,8.7,6.282,8.131,6.607,7.943 M15.588,7.943c-0.182,0.147-0.279,0.66,0.109,0.547
	C16.106,8.438,15.955,7.943,15.588,7.943 M26.261,8.016c0.29,0.006,0.4,0.433,0.078,0.463C26.013,8.51,26.014,8.116,26.261,8.016
	 M4.967,8.034c0.167,0.03,0.455,0.226,0.168,0.399C4.872,8.592,4.729,8.204,4.967,8.034 M27.901,8.105
	C28.47,8.202,27.546,8.605,27.901,8.105 M3.328,8.125C3.826,8.125,3.038,8.609,3.328,8.125 M29.596,8.162
	c0.097,0.045,0.103,0.1,0.02,0.165C29.517,8.293,29.515,8.216,29.596,8.162 M1.725,8.18C1.958,8.297,1.548,8.357,1.725,8.18
	 M9.885,8.654C9.552,8.736,9.389,9.411,9.841,9.438C10.38,9.467,10.414,8.68,9.885,8.654 M7.409,8.672
	c0.354-0.013,0.784,0.625,0.362,0.773C7.166,9.661,6.824,8.968,7.409,8.672 M21.379,8.672c-0.371,0.148-0.432,0.713,0.063,0.714
	C21.92,9.389,21.854,8.689,21.379,8.672 M11.47,8.745c-0.238,0.159-0.313,0.567,0.081,0.601C11.98,9.382,11.938,8.744,11.47,8.745
	 M19.759,8.745c-0.234,0.116-0.42,0.465-0.056,0.565C20.122,9.427,20.152,8.855,19.759,8.745 M25.424,8.745
	c0.333,0.006,0.572,0.423,0.22,0.618C25.173,9.623,25.066,8.992,25.424,8.745 M5.806,8.764c0.286,0.063,0.562,0.399,0.159,0.574
	C5.51,9.536,5.48,8.96,5.806,8.764 M13.146,8.799c-0.332,0.208-0.091,0.678,0.205,0.436C13.6,9.033,13.361,8.831,13.146,8.799
	 M18.101,8.799c-0.241,0.16-0.258,0.335,0,0.492C18.453,9.25,18.436,8.848,18.101,8.799 M14.768,8.835
	c-0.124,0.146-0.225,0.321,0.027,0.406C15.085,9.339,15.168,8.835,14.768,8.835 M16.425,8.835c-0.177,0.159-0.171,0.222-0.018,0.419
	C16.744,9.218,16.804,8.883,16.425,8.835 M27.063,8.854c0.246-0.006,0.44,0.334,0.146,0.424C26.887,9.374,26.866,9.016,27.063,8.854
	 M4.148,8.873c0.175,0.025,0.407,0.229,0.15,0.368C4.029,9.391,3.896,8.998,4.148,8.873 M2.544,8.945
	C2.943,9.173,2.218,9.239,2.544,8.945 M28.721,8.945C29.301,9.074,28.399,9.326,28.721,8.945 M30.414,9
	C30.647,9.116,30.236,9.177,30.414,9 M0.904,9.018C0.94,9.027,0.959,9.053,0.96,9.091C0.884,9.129,0.86,9.086,0.904,9.018
	 M6.625,9.491c0.419,0.018,0.68,0.665,0.21,0.79C6.261,10.436,6.139,9.712,6.625,9.491 M8.992,9.491
	c-0.481,0.28-0.189,0.934,0.235,0.71C9.63,10.061,9.489,9.462,8.992,9.491z M22.163,9.51c-0.331,0.213-0.354,0.696,0.129,0.711
	C22.711,10.006,22.681,9.557,22.163,9.51 M10.668,9.583c-0.302,0.228-0.254,0.489,0.128,0.565
	C11.137,9.989,11.033,9.592,10.668,9.583 M26.226,9.583c0.529,0.076,0.438,0.76,0.035,0.619C25.846,10.156,26.01,9.74,26.226,9.583
	 M4.985,9.602c0.307,0.002,0.5,0.442,0.145,0.564C4.721,10.352,4.682,9.773,4.985,9.602 M20.523,9.602
	c-0.171,0.129-0.287,0.424-0.009,0.51C20.922,10.236,20.971,9.609,20.523,9.602 M12.327,9.654c-0.213,0.176-0.188,0.42,0.128,0.42
	C12.677,9.926,12.604,9.662,12.327,9.654 M18.957,9.654c-0.183,0.096-0.253,0.195-0.128,0.384
	C19.168,10.113,19.277,9.798,18.957,9.654 M27.884,9.691c0.188-0.006,0.382,0.16,0.209,0.338
	C27.858,10.271,27.697,9.909,27.884,9.691 M3.328,9.71c0.124,0.001,0.324,0.095,0.207,0.269C3.366,10.229,3.098,9.93,3.328,9.71
	 M13.948,9.71C13.47,10.354,14.75,9.71,13.948,9.71 M15.66,9.71c-0.124,0.073-0.214,0.204-0.054,0.292
	C15.84,10.002,15.899,9.758,15.66,9.71 M17.264,9.71c-0.124,0.104-0.151,0.358,0.082,0.313C17.616,9.973,17.422,9.736,17.264,9.71
	 M29.596,9.766C29.929,10.042,29.276,10.02,29.596,9.766 M1.725,9.783C2.158,9.999,1.305,9.923,1.725,9.783 M31.234,9.838
	c0.034,0.01,0.054,0.035,0.054,0.073C31.213,9.948,31.188,9.904,31.234,9.838 M8.155,10.311c-0.334,0.229-0.33,0.888,0.202,0.748
	C8.867,10.925,8.606,10.309,8.155,10.311 M25.388,10.311c0.399-0.021,0.647,0.392,0.365,0.709
	C25.331,11.496,24.781,10.689,25.388,10.311 M5.806,10.33c0.439-0.008,0.655,0.638,0.172,0.757
	C5.412,11.229,5.342,10.541,5.806,10.33 M22.983,10.33c-0.359,0.23-0.328,0.727,0.164,0.71C23.578,10.852,23.44,10.325,22.983,10.33
	 M9.904,10.402c-0.208,0.104-0.428,0.449-0.059,0.546C10.25,11.055,10.264,10.523,9.904,10.402 M27.063,10.421
	c0.244,0.041,0.575,0.396,0.186,0.546C26.861,11.203,26.75,10.615,27.063,10.421 M4.185,10.439c0.253,0.028,0.318,0.207,0.257,0.437
	C4.044,11.148,3.754,10.68,4.185,10.439 M21.345,10.439c-0.172,0.138-0.294,0.406,0.009,0.492
	C21.729,11.037,21.776,10.505,21.345,10.439 M11.525,10.494c-0.167,0.137-0.198,0.505,0.118,0.359
	C11.876,10.75,11.696,10.527,11.525,10.494 M19.723,10.512c-0.14,0.163-0.177,0.346,0.093,0.346
	C20.055,10.792,19.941,10.512,19.723,10.512 M28.739,10.529c0.159,0.033,0.348,0.26,0.093,0.345
	C28.586,10.957,28.539,10.63,28.739,10.529 M2.544,10.548C3.246,10.811,1.926,10.945,2.544,10.548 M13.128,10.566
	C12.944,11.116,13.657,10.566,13.128,10.566 M18.083,10.566C17.693,11.055,18.673,10.617,18.083,10.566 M14.804,10.584
	C14.491,11.002,15.305,10.584,14.804,10.584 M16.479,10.584C16.014,10.864,16.998,10.714,16.479,10.584 M0.904,10.621
	c0.095,0.046,0.102,0.102,0.02,0.165C0.826,10.752,0.823,10.676,0.904,10.621 M30.359,10.621
	C30.678,10.701,30.321,10.932,30.359,10.621 M7.335,11.113c-0.425,0.26-0.31,0.931,0.248,0.768
	C8.104,11.729,7.772,11.087,7.335,11.113 M23.839,11.131c-0.314,0.182-0.438,0.78,0.093,0.719
	C24.425,11.793,24.3,11.132,23.839,11.131 M26.244,11.148c0.583-0.006,0.537,0.848-0.007,0.785
	C25.769,11.88,25.931,11.293,26.244,11.148 M5.004,11.167c0.316,0.073,0.61,0.562,0.152,0.688c-0.18,0.049-0.372-0.016-0.437-0.201
	C4.625,11.369,4.794,11.293,5.004,11.167 M9.047,11.223c-0.229,0.137-0.348,0.625,0.076,0.555C9.509,11.713,9.4,11.25,9.047,11.223
	 M22.163,11.258c-0.208,0.169-0.213,0.622,0.164,0.491C22.678,11.628,22.441,11.258,22.163,11.258 M27.864,11.277
	c0.32-0.012,0.399,0.229,0.235,0.473C27.73,11.813,27.551,11.539,27.864,11.277 M3.347,11.295c0.223,0.027,0.412,0.313,0.146,0.438
	C3.166,11.906,3.102,11.455,3.347,11.295 M10.668,11.331c-0.111,0.14-0.141,0.188-0.036,0.347
	C10.982,11.678,11.004,11.331,10.668,11.331 M20.543,11.35c-0.141,0.121-0.131,0.194-0.02,0.328
	C20.816,11.648,20.844,11.35,20.543,11.35 M29.522,11.386C30.189,11.384,29.144,11.943,29.522,11.386 M1.67,11.404
	C2.26,11.489,1.349,11.833,1.67,11.404 M12.327,11.404C12.064,11.842,12.842,11.404,12.327,11.404 M18.939,11.404
	C18.649,11.578,19.262,11.727,18.939,11.404 M14.003,11.441c-0.134,0.133,0.053,0.203,0.109,0.037
	C14.075,11.465,14.039,11.453,14.003,11.441 M15.66,11.441C15.455,11.646,15.912,11.566,15.66,11.441 M17.3,11.441
	C17.063,11.678,17.599,11.552,17.3,11.441 M0.085,11.459c0.122,0.061,0.063,0.158-0.037,0.109
	C0.061,11.532,0.073,11.495,0.085,11.459 M31.197,11.459C31.439,11.54,31.15,11.699,31.197,11.459 M24.622,11.934
	c-0.361,0.224-0.443,0.745,0.098,0.782C25.25,12.752,25.2,11.911,24.622,11.934 M27.026,12.005c0.416-0.017,0.641,0.522,0.187,0.663
	C26.715,12.822,26.729,12.232,27.026,12.005 M4.185,12.024c0.347,0.04,0.534,0.521,0.117,0.638
	C3.831,12.795,3.859,12.203,4.185,12.024 M8.228,12.024c-0.255,0.122-0.396,0.596,0.021,0.6C8.688,12.628,8.638,12.068,8.228,12.024
	 M22.983,12.06c-0.188,0.151-0.302,0.567,0.097,0.54C23.509,12.571,23.325,12.095,22.983,12.06 M28.703,12.133
	c0.188,0.031,0.477,0.27,0.153,0.411C28.552,12.678,28.481,12.29,28.703,12.133 M2.508,12.151c0.269,0.039,0.386,0.397,0.051,0.383
	C2.297,12.52,2.374,12.266,2.508,12.151 M9.849,12.151c-0.208,0.192-0.09,0.335,0.146,0.363
	C10.226,12.363,10.058,12.151,9.849,12.151 M21.362,12.169c-0.227,0.192-0.057,0.386,0.2,0.273
	C21.612,12.271,21.557,12.17,21.362,12.169 M11.525,12.224C11.178,12.658,12.039,12.224,11.525,12.224 M30.378,12.224
	C30.884,12.294,30.061,12.633,30.378,12.224 M0.904,12.242c0.134,0.038,0.143,0.122,0.037,0.201
	C0.808,12.443,0.767,12.288,0.904,12.242 M19.723,12.242C19.489,12.631,20.14,12.242,19.723,12.242 M13.201,12.279
	C13.019,12.461,13.428,12.392,13.201,12.279 M18.119,12.279C17.938,12.461,18.347,12.392,18.119,12.279 M14.841,12.297
	c-0.024,0.03-0.024,0.063,0,0.091c0.021,0.003,0.038-0.003,0.054-0.018C14.895,12.331,14.876,12.307,14.841,12.297 M16.479,12.297
	c-0.023,0.03-0.023,0.063,0,0.091c0.021,0.003,0.039-0.003,0.057-0.018C16.534,12.331,16.516,12.307,16.479,12.297 M4.931,12.771
	c0.48-0.023,0.752,0.69,0.25,0.79C4.607,13.678,4.482,13.035,4.931,12.771 M7.354,12.826c-0.367,0.25-0.163,0.864,0.263,0.615
	C7.991,13.22,7.686,12.814,7.354,12.826 M23.839,12.844c-0.36,0.197-0.251,0.799,0.188,0.575
	C24.381,13.237,24.117,12.899,23.839,12.844 M27.884,12.861c0.344,0.058,0.521,0.587,0.068,0.598
	C27.531,13.471,27.606,13.01,27.884,12.861 M3.311,12.898c0.301-0.016,0.556,0.37,0.197,0.521
	C3.113,13.582,3.065,13.098,3.311,12.898 M9.104,12.935c-0.231,0.121-0.295,0.404,0.035,0.438
	C9.325,13.243,9.37,13.018,9.104,12.935 M22.182,12.971c-0.268,0.181-0.008,0.514,0.196,0.307
	C22.532,13.12,22.325,12.971,22.182,12.971 M29.522,12.989c0.145,0.016,0.379,0.122,0.188,0.298
	C29.481,13.5,29.37,13.168,29.522,12.989 M1.688,13.007C2.326,13.113,1.274,13.56,1.688,13.007 M10.688,13.044
	C10.352,13.493,11.251,13.044,10.688,13.044 M20.543,13.063C20.3,13.468,21.007,13.083,20.543,13.063 M0.085,13.08
	c0.095,0.046,0.101,0.1,0.018,0.164C0.007,13.212,0.004,13.135,0.085,13.08 M31.215,13.08C31.632,13.153,30.853,13.322,31.215,13.08
	 M12.381,13.098C12.199,13.281,12.608,13.212,12.381,13.098 M18.939,13.116c-0.027,0.031-0.027,0.061,0,0.091
	c0.021,0.003,0.036-0.003,0.055-0.018C18.994,13.151,18.975,13.127,18.939,13.116 M6.625,13.591
	c-0.358,0.13-0.589,0.697-0.055,0.751C7.077,14.394,7.132,13.682,6.625,13.591 M27.1,13.591c0.442,0.052,0.562,0.611,0.102,0.756
	C26.635,14.524,26.65,13.785,27.1,13.591 M4.148,13.627c0.454-0.016,0.605,0.563,0.14,0.695C3.801,14.464,3.78,13.811,4.148,13.627
	 M24.642,13.627c-0.315,0.198-0.359,0.791,0.146,0.688C25.253,14.216,25.056,13.631,24.642,13.627 M8.191,13.737
	c-0.192,0.172-0.186,0.266-0.019,0.473C8.602,14.21,8.607,13.8,8.191,13.737 M28.685,13.737c0.411-0.01,0.392,0.331,0.109,0.509
	C28.452,14.216,28.468,13.915,28.685,13.737 M2.526,13.754c0.307,0.063,0.333,0.25,0.127,0.456
	C2.345,14.176,2.238,13.947,2.526,13.754 M23.02,13.754c-0.304,0.173-0.079,0.595,0.18,0.389
	C23.399,13.982,23.206,13.766,23.02,13.754 M9.868,13.846C9.46,14.253,10.503,13.987,9.868,13.846 M30.359,13.846
	C30.931,13.864,29.976,14.384,30.359,13.846 M0.869,13.864C1.43,13.976,0.504,14.229,0.869,13.864 M21.362,13.864
	C21.03,14.304,21.897,13.864,21.362,13.864 M11.563,13.918C11.379,14.101,11.788,14.032,11.563,13.918 M19.759,13.938
	c-0.009,0.027-0.043,0.092,0.02,0.092C19.832,13.973,19.849,13.938,19.759,13.938 M5.55,14.392
	c-0.221,0.126-0.128,0.454-0.128,0.692c0.171,0.104,0.418,0.114,0.604,0.046c0.229-0.084,0.269-0.296,0.161-0.501
	C6.086,14.367,5.782,14.383,5.55,14.392 M25.497,14.392c-0.48,0.225-0.404,0.987,0.159,0.76
	C26.106,14.967,25.936,14.421,25.497,14.392 M27.901,14.465c0.396,0.026,0.528,0.573,0.096,0.657
	C27.5,15.22,27.565,14.642,27.901,14.465 M3.328,14.501c0.369,0.034,0.553,0.559,0.109,0.594C3.005,15.13,3.048,14.68,3.328,14.501
	 M7.409,14.501c-0.289,0.135-0.354,0.6,0.056,0.6C7.833,15.102,7.791,14.531,7.409,14.501 M23.821,14.538
	c-0.286,0.179-0.185,0.632,0.166,0.5C24.341,14.904,24.073,14.57,23.821,14.538 M29.596,14.592c0.29,0.085,0.198,0.516-0.088,0.398
	C29.227,14.878,29.462,14.66,29.596,14.592 M1.688,14.629c0.177,0.025,0.21,0.043,0.237,0.218
	C1.74,15.127,1.444,14.873,1.688,14.629 M9.066,14.629c-0.197,0.14-0.156,0.225,0.035,0.346C9.301,14.876,9.339,14.656,9.066,14.629
	 M22.218,14.647c-0.151,0.062-0.166,0.32,0.05,0.279C22.496,14.885,22.34,14.696,22.218,14.647 M31.197,14.702
	C31.565,14.763,31.022,15.052,31.197,14.702 M0.068,14.72C0.435,14.784-0.199,14.987,0.068,14.72 M10.724,14.72
	C10.506,14.938,11.041,14.82,10.724,14.72 M20.577,14.738C20.414,14.902,20.809,14.877,20.577,14.738 M27.026,15.212
	c0.436-0.019,0.771,0.61,0.264,0.784C26.695,16.199,26.525,15.413,27.026,15.212 M4.203,15.23c0.477,0.11,0.576,0.686,0.072,0.781
	C3.806,16.105,3.667,15.454,4.203,15.23z M6.552,15.267c-0.361,0.212-0.308,0.813,0.196,0.659C7.173,15.795,6.9,15.278,6.552,15.267
	 M24.642,15.303c-0.272,0.165-0.315,0.682,0.119,0.628C25.2,15.877,25.042,15.302,24.642,15.303 M28.666,15.357
	c0.404,0.032,0.517,0.563,0.086,0.534C28.406,15.871,28.465,15.522,28.666,15.357 M2.508,15.375
	c0.265,0.033,0.396,0.182,0.237,0.438C2.387,15.949,2.186,15.588,2.508,15.375 M8.21,15.413c-0.141,0.093-0.229,0.377,0.031,0.411
	C8.583,15.869,8.539,15.413,8.21,15.413 M23.001,15.431C22.464,16.058,23.786,15.588,23.001,15.431 M30.378,15.467
	C31.04,15.688,29.874,15.884,30.378,15.467 M0.887,15.485C1.413,15.683,0.505,15.868,0.887,15.485 M9.922,15.503
	C9.443,15.791,10.415,15.668,9.922,15.503 M21.398,15.521C21.186,15.805,21.688,15.669,21.398,15.521 M11.563,15.577
	c-0.025,0.03-0.025,0.061,0,0.091c0.021,0.003,0.038-0.003,0.055-0.018C11.616,15.61,11.598,15.586,11.563,15.577 M32,15.577
	c0,0.03,0,0.061,0,0.091C32,15.637,32,15.607,32,15.577z M5.695,16.032c-0.419,0.254-0.326,0.973,0.26,0.776
	C6.472,16.638,6.135,16.018,5.695,16.032 M25.497,16.05c-0.392,0.184-0.514,0.729,0.036,0.783
	C25.987,16.88,26.096,16.098,25.497,16.05z M27.938,16.086c0.345,0.063,0.468,0.522,0.104,0.665
	C27.577,16.934,27.464,16.245,27.938,16.086 M3.328,16.123c0.38-0.004,0.563,0.502,0.158,0.614
	C3.024,16.865,3.035,16.315,3.328,16.123 M7.444,16.159c-0.231,0.116-0.438,0.504-0.024,0.537
	C7.848,16.731,7.761,16.264,7.444,16.159 M23.839,16.195c-0.216,0.14-0.257,0.586,0.114,0.48
	C24.275,16.586,24.101,16.201,23.839,16.195 M29.522,16.232c0.226,0.023,0.424,0.271,0.146,0.398
	C29.391,16.673,29.302,16.4,29.522,16.232 M1.725,16.25c0.211,0.053,0.289,0.268,0.057,0.383C1.546,16.599,1.456,16.317,1.725,16.25
	 M9.066,16.287C8.55,16.731,9.735,16.51,9.066,16.287 M22.199,16.306C21.796,16.682,22.757,16.514,22.199,16.306 M0.085,16.341
	C0.379,16.487-0.127,16.624,0.085,16.341 M31.18,16.341C31.57,16.341,31.08,16.788,31.18,16.341 M10.741,16.378
	C10.559,16.561,10.969,16.491,10.741,16.378 M20.577,16.396c-0.022,0.079-0.023,0.097,0.074,0.07
	C20.669,16.412,20.645,16.388,20.577,16.396 M26.972,16.852c0.441-0.023,0.877,0.595,0.318,0.782
	C26.716,17.829,26.538,17.124,26.972,16.852 M4.148,16.87c0.333-0.01,0.596,0.345,0.357,0.634
	C4.144,17.946,3.516,17.186,4.148,16.87 M6.534,16.924c-0.291,0.185-0.365,0.717,0.119,0.677
	C7.184,17.557,6.938,16.986,6.534,16.924 M24.677,16.942c-0.224,0.115-0.449,0.448-0.091,0.602
	C24.967,17.761,25.261,16.988,24.677,16.942 M28.703,16.979c0.355,0.013,0.475,0.488,0.086,0.545
	C28.366,17.58,28.499,17.121,28.703,16.979 M2.508,17.015c0.282,0.027,0.484,0.336,0.146,0.476
	C2.333,17.611,2.243,17.149,2.508,17.015 M8.228,17.052c-0.252,0.165-0.152,0.354,0.093,0.419
	C8.565,17.367,8.494,17.049,8.228,17.052 M23.038,17.069c-0.193,0.122-0.188,0.476,0.081,0.354
	C23.356,17.313,23.211,17.122,23.038,17.069 M30.359,17.106C31.059,17.219,29.844,17.62,30.359,17.106 M0.887,17.125
	C1.479,17.206,0.422,17.593,0.887,17.125 M9.868,17.161C9.649,17.576,10.347,17.161,9.868,17.161 M21.379,17.18
	C21.153,17.487,21.774,17.18,21.379,17.18 M32,17.216c0,0.03,0,0.063,0,0.091C32,17.276,32,17.246,32,17.216z M11.543,17.234
	C11.453,17.32,11.658,17.234,11.543,17.234 M5.659,17.672c-0.476,0.326-0.25,0.945,0.365,0.782
	C6.343,18.084,6.159,17.648,5.659,17.672 M25.479,17.69c-0.44,0.232-0.382,0.97,0.18,0.738
	C26.104,18.246,25.925,17.692,25.479,17.69 M27.847,17.744c0.322-0.01,0.643,0.391,0.283,0.617
	C27.706,18.631,27.432,17.99,27.847,17.744 M3.347,17.763c0.27,0.043,0.57,0.465,0.164,0.603C3.063,18.564,3.05,17.959,3.347,17.763
	 M7.389,17.799c-0.258,0.167-0.259,0.368-0.036,0.564C7.802,18.384,7.852,17.878,7.389,17.799 M23.803,17.835
	c-0.349,0.248-0.07,0.619,0.292,0.419C24.179,18.009,24.079,17.821,23.803,17.835 M29.541,17.871
	c0.194,0.001,0.378,0.241,0.164,0.364C29.504,18.424,29.222,18.033,29.541,17.871 M1.725,17.89c0.229,0.081,0.246,0.182,0.094,0.364
	C1.583,18.229,1.446,17.957,1.725,17.89 M9.047,17.927c-0.103,0.096-0.132,0.361,0.089,0.296
	C9.376,18.151,9.221,17.927,9.047,17.927 M22.182,17.943C21.794,18.416,22.823,18.027,22.182,17.943 M31.18,17.981
	C31.692,17.981,30.908,18.383,31.18,17.981 M0.068,17.999C0.479,18.07-0.182,18.245,0.068,17.999 M10.741,17.999
	C10.557,18.182,10.987,18.195,10.741,17.999 M20.577,18.018C20.398,18.198,20.801,18.133,20.577,18.018 M27.063,18.491
	c0.438-0.004,0.678,0.642,0.19,0.772C26.661,19.427,26.609,18.723,27.063,18.491 M4.148,18.527c0.44-0.017,0.646,0.641,0.155,0.726
	C3.807,19.339,3.77,18.718,4.148,18.527 M6.534,18.546c-0.38,0.223-0.277,0.906,0.212,0.712C7.203,19.076,6.951,18.532,6.534,18.546
	 M24.677,18.564c-0.282,0.149-0.458,0.686,0.047,0.667C25.255,19.213,25.036,18.658,24.677,18.564 M28.685,18.637
	c0.334,0.05,0.506,0.365,0.109,0.528C28.438,19.144,28.464,18.817,28.685,18.637 M2.563,18.655c0.316,0.089,0.314,0.563-0.061,0.461
	C2.236,19.042,2.39,18.733,2.563,18.655 M8.21,18.673c-0.147,0.116-0.268,0.372,0.005,0.446C8.56,19.213,8.613,18.67,8.21,18.673
	 M23.038,18.691c-0.171,0.097-0.294,0.396,0.015,0.405C23.359,19.106,23.293,18.732,23.038,18.691 M30.341,18.764
	C31.027,18.762,29.917,19.291,30.341,18.764 M0.869,18.783C1.351,18.86,0.609,19.211,0.869,18.783 M9.868,18.783
	C9.492,19.249,10.442,18.783,9.868,18.783 M21.362,18.801C21.053,19.211,21.833,18.781,21.362,18.801 M11.525,18.855
	c-0.028,0.068-0.012,0.105,0.055,0.106c-0.012-0.036,0-0.048,0.036-0.036C11.624,18.855,11.593,18.832,11.525,18.855 M19.759,18.855
	c-0.023,0.028-0.023,0.061,0,0.091c0.021,0.003,0.039-0.003,0.057-0.021C19.813,18.89,19.796,18.866,19.759,18.855 M4.894,19.311
	c0.23-0.006,0.521-0.041,0.538,0.24c0.019,0.256,0.017,0.494-0.271,0.543C4.602,20.188,4.499,19.608,4.894,19.311 M25.46,19.311
	c-0.561,0.285-0.296,0.952,0.309,0.791C26.2,19.986,25.864,19.313,25.46,19.311 M27.847,19.401c0.347-0.015,0.616,0.466,0.201,0.602
	C27.622,20.192,27.573,19.607,27.847,19.401 M3.365,19.42c0.283,0.087,0.493,0.533,0.05,0.566C2.984,20.019,3.109,19.56,3.365,19.42
	 M7.354,19.42c-0.271,0.175-0.296,0.701,0.147,0.611C7.973,19.936,7.729,19.452,7.354,19.42 M23.821,19.438
	c-0.236,0.152-0.317,0.611,0.087,0.579C24.32,19.984,24.205,19.428,23.821,19.438 M9.047,19.529
	c-0.229,0.152-0.146,0.306,0.073,0.399C9.418,19.814,9.274,19.574,9.047,19.529 M29.541,19.529c0.17,0,0.354,0.23,0.146,0.352
	C29.49,19.992,29.37,19.649,29.541,19.529 M1.725,19.547c0.253,0,0.191,0.207,0.094,0.328C1.541,19.875,1.534,19.684,1.725,19.547
	 M22.218,19.547c-0.125,0.095-0.233,0.243-0.036,0.347C22.452,19.89,22.479,19.593,22.218,19.547 M10.706,19.62
	C10.423,20.026,11.17,19.62,10.706,19.62 M31.234,19.62C31.65,19.848,30.802,19.77,31.234,19.62 M0.085,19.639
	C0.444,19.782-0.213,19.838,0.085,19.639 M20.561,19.639C20.309,19.975,20.956,19.639,20.561,19.639 M12.381,19.675
	c-0.023,0.03-0.023,0.063,0,0.091c0.021,0.003,0.038-0.003,0.055-0.018C12.435,19.709,12.417,19.686,12.381,19.675 M18.939,19.675
	c-0.026,0.03-0.026,0.063,0,0.091c0.02,0.003,0.035-0.003,0.055-0.018C18.994,19.709,18.975,19.686,18.939,19.675 M6.534,20.148
	c-0.4,0.227-0.398,0.938,0.178,0.783C7.249,20.791,7.053,20.12,6.534,20.148 M24.659,20.167c-0.344,0.168-0.487,0.698,0.021,0.755
	C25.233,20.983,25.217,20.165,24.659,20.167 M27.026,20.167c0.313-0.016,0.594,0.312,0.359,0.593
	C27.034,21.189,26.479,20.518,27.026,20.167 M4.13,20.202C4.456,20.182,4.741,20.587,4.4,20.8
	C3.966,21.069,3.743,20.459,4.13,20.202 M8.191,20.275c-0.344,0.216-0.137,0.729,0.234,0.506C8.759,20.58,8.44,20.302,8.191,20.275
	 M23.001,20.294c-0.348,0.216-0.083,0.706,0.226,0.454C23.472,20.549,23.227,20.294,23.001,20.294 M28.757,20.294
	c0.176,0.044,0.375,0.325,0.119,0.444C28.542,20.895,28.447,20.433,28.757,20.294 M2.508,20.331
	c0.283,0.051,0.354,0.251,0.091,0.419C2.329,20.708,2.313,20.482,2.508,20.331 M9.922,20.367c-0.195,0.106-0.2,0.431,0.057,0.334
	C10.203,20.617,10.066,20.415,9.922,20.367 M21.398,20.386c-0.15,0.06-0.16,0.322,0.035,0.294
	C21.7,20.642,21.536,20.438,21.398,20.386 M0.904,20.422C1.271,20.597,0.647,20.747,0.904,20.422 M30.359,20.422
	C30.893,20.422,30.06,20.879,30.359,20.422 M11.563,20.439C11.221,20.712,11.915,20.646,11.563,20.439 M19.741,20.458
	C19.53,20.747,20.081,20.458,19.741,20.458 M13.201,20.494c-0.025,0.03-0.025,0.062,0,0.092c0.021,0.002,0.038-0.004,0.055-0.019
	C13.255,20.529,13.237,20.505,13.201,20.494 M18.119,20.494c-0.025,0.03-0.025,0.062,0,0.092c0.02,0.002,0.04-0.004,0.055-0.019
	C18.174,20.529,18.155,20.505,18.119,20.494 M26.171,20.95c0.407-0.026,0.675,0.458,0.331,0.743
	C26.098,22.031,25.68,21.269,26.171,20.95 M4.985,20.969c0.339-0.005,0.595,0.424,0.294,0.667
	C4.843,21.989,4.404,21.257,4.985,20.969 M7.335,21.004c-0.392,0.26-0.281,0.938,0.255,0.73C7.99,21.579,7.845,20.974,7.335,21.004z
	 M23.839,21.022c-0.41,0.203-0.25,0.892,0.185,0.676C24.426,21.542,24.225,21.016,23.839,21.022 M27.884,21.077
	c0.248,0.043,0.535,0.421,0.143,0.531S27.618,21.257,27.884,21.077 M3.311,21.114c0.264-0.006,0.499,0.315,0.184,0.456
	C3.162,21.746,3.092,21.296,3.311,21.114 M9.03,21.114c-0.192,0.128-0.303,0.47,0.032,0.506C9.445,21.66,9.438,21.119,9.03,21.114
	 M22.199,21.132c-0.144,0.094-0.309,0.293-0.091,0.421C22.39,21.811,22.701,21.159,22.199,21.132 M10.688,21.206
	c-0.197,0.229-0.005,0.44,0.221,0.219C10.906,21.276,10.837,21.212,10.688,21.206 M29.522,21.206
	c0.126-0.002,0.356,0.146,0.165,0.271C29.469,21.621,29.421,21.338,29.522,21.206 M1.688,21.225
	C2.212,21.292,1.38,21.717,1.688,21.225 M20.543,21.225C20.176,21.74,21.149,21.303,20.543,21.225 M12.381,21.261
	C12.039,21.535,12.74,21.442,12.381,21.261 M18.921,21.279C18.652,21.655,19.321,21.279,18.921,21.279 M31.234,21.279
	c0.094,0.045,0.1,0.1,0.018,0.163C31.154,21.411,31.154,21.332,31.234,21.279 M0.085,21.297C0.314,21.416-0.088,21.473,0.085,21.297
	 M14.02,21.297C13.84,21.479,14.245,21.413,14.02,21.297 M17.3,21.297C17.12,21.479,17.522,21.413,17.3,21.297 M15.66,21.315
	c-0.025,0.028-0.025,0.061,0,0.091c0.021,0.003,0.039-0.003,0.055-0.02C15.715,21.35,15.697,21.326,15.66,21.315 M5.732,21.771
	c0.478-0.028,0.813,0.509,0.281,0.764C5.47,22.799,5.344,22.043,5.732,21.771 M8.174,21.844c-0.346,0.25-0.297,0.785,0.219,0.655
	C8.883,22.376,8.563,21.828,8.174,21.844 M23.02,21.862c-0.363,0.197-0.315,0.816,0.165,0.643
	C23.576,22.36,23.379,21.875,23.02,21.862 M27.046,21.862c0.461-0.004,0.49,0.64,0.061,0.611
	C26.689,22.451,26.816,22.015,27.046,21.862 M4.185,21.88c0.303,0.035,0.474,0.491,0.098,0.57C3.837,22.544,3.911,22.03,4.185,21.88
	 M9.922,21.935c-0.241,0.121-0.323,0.253-0.128,0.492C10.175,22.465,10.297,22.067,9.922,21.935 M21.398,21.953
	c-0.207,0.115-0.265,0.568,0.055,0.455C21.789,22.367,21.608,22.007,21.398,21.953 M28.703,21.99c0.283,0,0.344,0.273,0.091,0.382
	C28.579,22.281,28.52,22.167,28.703,21.99 M2.508,22.007C3.223,22.149,2.037,22.554,2.508,22.007 M11.507,22.025
	c-0.153,0.186-0.092,0.379,0.184,0.292C11.748,22.144,11.686,22.034,11.507,22.025 M19.704,22.044
	C19.285,22.635,20.376,22.044,19.704,22.044 M13.201,22.063c-0.146,0.088-0.14,0.236,0.055,0.236
	C13.329,22.188,13.372,22.104,13.201,22.063 M18.083,22.08C17.855,22.475,18.526,22.08,18.083,22.08 M30.378,22.08
	C30.764,22.147,30.202,22.434,30.378,22.08 M0.887,22.099C1.195,22.154,0.71,22.395,0.887,22.099 M14.822,22.099
	C14.566,22.456,15.182,22.099,14.822,22.099 M16.462,22.099c-0.061,0.066-0.054,0.128,0.02,0.185
	C16.555,22.203,16.624,22.099,16.462,22.099 M26.226,22.646c0.426-0.018,0.592,0.577,0.15,0.662
	C25.902,23.401,25.894,22.839,26.226,22.646 M4.949,22.682c0.345-0.009,0.602,0.425,0.193,0.578
	C4.674,23.438,4.669,22.878,4.949,22.682 M8.992,22.682c-0.278,0.188-0.354,0.663,0.094,0.678C9.6,23.37,9.466,22.723,8.992,22.682
	 M22.146,22.699c-0.309,0.243-0.262,0.639,0.182,0.639C22.701,23.115,22.594,22.699,22.146,22.699 M10.741,22.754
	c-0.302,0.132-0.316,0.628,0.086,0.491C11.148,23.135,10.948,22.828,10.741,22.754 M20.561,22.772
	c-0.229,0.146-0.234,0.295-0.035,0.474C20.869,23.21,20.944,22.826,20.561,22.772 M27.884,22.772
	c0.285,0.028,0.366,0.23,0.146,0.438C27.763,23.21,27.601,22.914,27.884,22.772 M3.365,22.791c0.126,0.051,0.354,0.25,0.116,0.372
	C3.186,23.313,3.096,22.855,3.365,22.791 M12.345,22.827c-0.185,0.133-0.176,0.364,0.091,0.364
	C12.658,23.044,12.559,22.893,12.345,22.827 M18.885,22.846C18.385,23.512,19.673,22.846,18.885,22.846 M14.003,22.864
	C13.458,23.188,14.647,23.103,14.003,22.864 M17.3,22.864C16.821,23.183,17.833,23.12,17.3,22.864 M15.623,22.882
	C15.225,23.281,16.178,22.944,15.623,22.882 M29.541,22.882C30.13,22.882,29.192,23.348,29.541,22.882 M1.688,22.9
	C2.111,22.926,1.485,23.307,1.688,22.9 M0.085,22.954c0.036,0.011,0.053,0.036,0.054,0.073C0.066,23.066,0.041,23.021,0.085,22.954
	 M31.234,22.954c0.034,0.011,0.054,0.035,0.054,0.073C31.176,23.086,31.204,23.013,31.234,22.954 M25.388,23.447
	c0.31-0.021,0.603,0.312,0.357,0.588C25.396,24.426,24.886,23.822,25.388,23.447 M5.806,23.465c0.286,0.053,0.592,0.442,0.197,0.623
	C5.524,24.308,5.41,23.681,5.806,23.465 M9.813,23.501c-0.357,0.212-0.261,0.872,0.213,0.681
	C10.475,23.997,10.213,23.49,9.813,23.501 M21.325,23.52c-0.271,0.182-0.323,0.677,0.116,0.649
	C21.945,24.141,21.762,23.554,21.325,23.52 M11.47,23.574c-0.204,0.177-0.222,0.691,0.185,0.51
	C11.946,23.902,11.813,23.559,11.47,23.574 M19.759,23.574c-0.267,0.14-0.318,0.596,0.085,0.499
	C20.193,23.989,19.979,23.648,19.759,23.574 M27.046,23.574c0.292-0.016,0.376,0.176,0.254,0.419
	C26.975,24.191,26.771,23.808,27.046,23.574 M4.148,23.592c0.228-0.002,0.438,0.279,0.155,0.41
	C4.001,24.142,3.919,23.755,4.148,23.592 M13.128,23.628c-0.156,0.156-0.186,0.408,0.109,0.42
	C13.51,23.933,13.438,23.613,13.128,23.628 M18.083,23.628c-0.158,0.134-0.239,0.491,0.101,0.396
	C18.516,23.926,18.278,23.67,18.083,23.628 M14.822,23.646c-0.192,0.118-0.201,0.454,0.089,0.349
	C15.154,23.906,14.98,23.688,14.822,23.646 M16.462,23.646c-0.204,0.125-0.157,0.384,0.091,0.347
	C16.781,23.882,16.646,23.693,16.462,23.646 M28.703,23.684C29.311,23.657,28.411,24.268,28.703,23.684 M2.49,23.702
	C2.944,23.769,2.322,24.149,2.49,23.702 M30.414,23.738C30.605,23.93,30.232,23.917,30.414,23.738 M0.904,23.756
	c0.092,0.046,0.104,0.068,0.02,0.128C0.867,23.845,0.826,23.798,0.904,23.756 M24.604,24.249c0.348-0.006,0.613,0.46,0.253,0.655
	C24.37,25.167,24.104,24.496,24.604,24.249 M6.571,24.284c0.354-0.019,0.692,0.435,0.254,0.639
	C6.367,24.992,6.182,24.563,6.571,24.284 M10.633,24.303c-0.28,0.208-0.381,0.624,0.07,0.715
	C11.2,25.119,11.236,24.271,10.633,24.303 M20.505,24.321c-0.52,0.31-0.118,0.938,0.382,0.563
	C20.997,24.583,20.923,24.302,20.505,24.321z M12.345,24.357c-0.229,0.12-0.399,0.49-0.043,0.588
	C12.741,25.064,12.804,24.394,12.345,24.357 M26.299,24.357c0.229,0.069,0.423,0.396,0.094,0.499
	C25.969,24.99,26.026,24.506,26.299,24.357 M18.885,24.376c-0.229,0.147-0.33,0.565,0.071,0.572
	C19.415,24.957,19.24,24.44,18.885,24.376 M4.967,24.394c0.353,0.045,0.4,0.47,0.02,0.476C4.715,24.741,4.769,24.541,4.967,24.394
	 M14.02,24.394c-0.335,0.095-0.292,0.617,0.038,0.513C14.421,24.861,14.271,24.474,14.02,24.394 M15.643,24.412
	c-0.207,0.115-0.303,0.521,0.052,0.479C16.05,24.853,15.879,24.479,15.643,24.412 M17.227,24.412
	c-0.16,0.144-0.25,0.443,0.053,0.487C17.663,24.956,17.629,24.392,17.227,24.412 M27.956,24.467c0.205,0.066,0.19,0.192,0.055,0.327
	C27.789,24.779,27.682,24.533,27.956,24.467 M3.383,24.485C3.913,24.787,2.873,24.799,3.383,24.485 M1.725,24.558
	c0.09,0.024,0.112,0.066,0.073,0.128C1.694,24.735,1.656,24.626,1.725,24.558 M29.578,24.558
	C29.951,24.623,29.31,24.822,29.578,24.558 M23.766,25.067c0.434-0.017,0.655,0.631,0.181,0.709
	C23.42,25.863,23.399,25.292,23.766,25.067 M7.444,25.086c0.392,0.012,0.561,0.515,0.165,0.674
	C7.077,25.931,7.089,25.292,7.444,25.086 M11.453,25.104c-0.48,0.282-0.17,1.04,0.298,0.746
	C12.164,25.591,11.853,25.092,11.453,25.104 M19.723,25.104c-0.479,0.254-0.244,0.994,0.235,0.723
	C20.327,25.615,20.105,25.1,19.723,25.104 M13.165,25.141c-0.463,0.248-0.212,0.899,0.207,0.623
	C13.69,25.556,13.5,25.164,13.165,25.141 M18.047,25.159c-0.281,0.178-0.342,0.715,0.132,0.65
	C18.629,25.752,18.482,25.154,18.047,25.159 M14.75,25.178c-0.224,0.181-0.31,0.676,0.136,0.63
	C15.386,25.757,15.096,25.23,14.75,25.178 M16.407,25.178c-0.377,0.267-0.091,0.851,0.234,0.563
	C17.082,25.563,16.624,25.213,16.407,25.178 M25.424,25.178c0.334,0.057,0.427,0.298,0.164,0.527
	C25.217,25.724,25.121,25.377,25.424,25.178 M5.806,25.195c0.269,0.014,0.437,0.357,0.138,0.47
	C5.558,25.806,5.55,25.365,5.806,25.195 M27.063,25.286c0.242,0.001,0.285,0.104,0.186,0.31
	C26.985,25.626,26.889,25.507,27.063,25.286 M4.148,25.305c0.252,0.006,0.263,0.218,0.055,0.312
	C4.054,25.564,3.948,25.408,4.148,25.305 M28.739,25.359C29.172,25.359,28.45,25.744,28.739,25.359 M2.526,25.377
	C2.966,25.457,2.177,25.56,2.526,25.377 M30.414,25.415c0.035,0.01,0.055,0.033,0.056,0.072
	C30.394,25.523,30.368,25.482,30.414,25.415 M9.722,25.869c0.146-0.007,0.479-0.072,0.582,0.073c0.111,0.17,0.062,0.505-0.088,0.631
	C9.74,26.976,9.412,26.256,9.722,25.869 M18.921,25.888c-0.377,0.165-0.546,0.806,0,0.808C19.541,26.695,19.48,25.924,18.921,25.888
	 M23.02,25.888c0.306,0.054,0.548,0.518,0.184,0.675C22.763,26.85,22.505,26.133,23.02,25.888 M8.191,25.924
	c0.371-0.019,0.688,0.427,0.25,0.622C7.966,26.757,7.922,26.177,8.191,25.924 M13.93,25.924c-0.55,0.318-0.219,0.747,0.273,0.747
	C14.542,26.376,14.395,25.906,13.93,25.924 M15.66,25.924c-0.346,0.146-0.574,0.732-0.008,0.745
	C16.203,26.68,16.075,26.041,15.66,25.924 M17.245,25.924c-0.369,0.185-0.425,0.828,0.114,0.766
	C17.829,26.631,17.749,25.908,17.245,25.924 M24.604,25.997c0.353,0.033,0.419,0.306,0.164,0.528
	C24.398,26.542,24.301,26.197,24.604,25.997 M6.607,26.015c0.281-0.005,0.451,0.366,0.14,0.479
	C6.376,26.628,6.371,26.168,6.607,26.015 M26.28,26.088c0.186,0.016,0.233,0.146,0.182,0.312
	C26.168,26.487,26.016,26.279,26.28,26.088 M4.985,26.105c0.13,0.021,0.309,0.225,0.105,0.316
	C4.852,26.535,4.84,26.223,4.985,26.105 M27.956,26.161C28.314,26.399,27.637,26.416,27.956,26.161 M3.365,26.179
	C3.792,26.394,3.001,26.305,3.365,26.179 M1.725,26.233c0.036,0.011,0.056,0.033,0.057,0.071
	C1.705,26.346,1.679,26.301,1.725,26.233 M29.596,26.233c0.036,0.011,0.056,0.032,0.057,0.071
	C29.576,26.346,29.55,26.301,29.596,26.233 M10.633,26.689c0.403-0.018,0.783,0.532,0.312,0.758
	C10.429,27.688,10.23,26.943,10.633,26.689 M20.36,26.689c0.386-0.02,0.908,0.297,0.471,0.704
	C20.396,27.803,20.025,27.063,20.36,26.689 M22.218,26.726c0.29,0.085,0.521,0.488,0.144,0.648
	C21.9,27.569,21.688,26.871,22.218,26.726 M9.104,26.744c0.419,0.079,0.467,0.702-0.014,0.646
	C8.67,27.345,8.837,26.872,9.104,26.744 M23.803,26.816c0.231,0.042,0.49,0.338,0.164,0.49C23.624,27.519,23.52,27,23.803,26.816
	 M7.444,26.834c0.356,0.013,0.378,0.496,0,0.493C7.16,27.219,7.231,26.959,7.444,26.834z M25.46,26.907
	c0.188,0.012,0.234,0.146,0.183,0.31C25.36,27.304,25.221,27.116,25.46,26.907 M5.787,26.926c0.248,0.034,0.256,0.152,0.109,0.328
	C5.646,27.211,5.635,27.104,5.787,26.926 M27.137,26.979C27.541,27.178,26.754,27.279,27.137,26.979 M4.185,26.998
	C4.609,27.282,3.799,27.123,4.185,26.998 M2.544,27.053c0.036,0.013,0.054,0.035,0.055,0.073C2.523,27.166,2.5,27.12,2.544,27.053
	 M28.739,27.053c0.055-0.017,0.086,0.011,0.092,0.073C28.765,27.16,28.721,27.109,28.739,27.053 M13.056,27.509
	c0.233,0.014,0.524-0.003,0.554,0.307c0.019,0.215-0.135,0.442-0.354,0.479C12.761,28.37,12.77,27.75,13.056,27.509 M14.604,27.509
	c0.287,0.009,0.563-0.098,0.622,0.239c0.031,0.18,0.016,0.427-0.165,0.528C14.573,28.555,14.304,27.839,14.604,27.509
	 M16.207,27.509c0.198-0.006,0.465-0.034,0.638,0.092c0.058,0.201,0.073,0.515-0.117,0.655
	C16.243,28.622,15.979,27.856,16.207,27.509 M17.919,27.509c0.363-0.02,0.926,0.33,0.449,0.693
	C17.924,28.542,17.545,27.869,17.919,27.509 M11.525,27.527c0.393,0.009,0.598,0.521,0.183,0.689
	C11.194,28.404,11.141,27.747,11.525,27.527 M19.65,27.527c0.479-0.029,0.646,0.538,0.254,0.689
	C19.475,28.466,19.204,27.803,19.65,27.527z M21.325,27.582c0.436,0.066,0.48,0.691,0.021,0.614
	C20.961,28.131,21.086,27.738,21.325,27.582 M9.868,27.601c0.247,0.021,0.542,0.259,0.265,0.498
	C9.789,28.399,9.482,27.869,9.868,27.601 M22.983,27.654c0.415,0.076,0.312,0.617-0.043,0.468
	C22.699,28.02,22.79,27.732,22.983,27.654 M8.246,27.674c0.396,0.008,0.36,0.475-0.055,0.438
	C7.981,27.954,8.095,27.785,8.246,27.674 M24.677,27.728c0.234,0.116,0.24,0.313-0.055,0.348
	C24.449,27.971,24.504,27.785,24.677,27.728 M6.643,27.746c0.151,0.053,0.274,0.228,0.072,0.307
	C6.488,28.142,6.467,27.837,6.643,27.746 M26.28,27.8C26.771,27.987,25.965,28.12,26.28,27.8 M4.967,27.818
	C5.277,27.934,4.891,28.158,4.967,27.818 M27.956,27.854C28.144,27.998,27.798,28.016,27.956,27.854 M3.365,27.873
	c0.035,0.011,0.054,0.035,0.055,0.072C3.343,27.982,3.319,27.942,3.365,27.873 M15.623,28.346c0.344,0.013,0.6,0.514,0.2,0.677
	C15.313,29.103,15.168,28.577,15.623,28.346 M13.984,28.364c0.435,0.01,0.537,0.634,0.08,0.665
	C13.564,29.064,13.672,28.526,13.984,28.364 M17.227,28.364c0.363-0.017,0.615,0.455,0.226,0.636
	C16.997,29.212,16.845,28.599,17.227,28.364 M18.921,28.383c0.438,0.08,0.395,0.471,0.054,0.656
	C18.506,29.004,18.597,28.552,18.921,28.383 M12.327,28.401c0.316,0.026,0.58,0.512,0.138,0.597
	C12.025,29.084,12.018,28.556,12.327,28.401 M20.523,28.438c0.309,0.012,0.482,0.383,0.165,0.529
	C20.33,29.161,20.232,28.629,20.523,28.438 M10.688,28.456c0.313-0.003,0.505,0.358,0.164,0.511
	C10.52,28.967,10.352,28.627,10.688,28.456 M9.083,28.511c0.268,0.099,0.322,0.217,0.11,0.419
	C8.927,28.895,8.775,28.639,9.083,28.511 M22.127,28.511c0.18,0.021,0.467,0.146,0.242,0.37
	C22.113,29.135,21.949,28.739,22.127,28.511 M23.821,28.565C24.538,28.715,23.277,29.087,23.821,28.565 M7.426,28.583
	C8.039,28.674,7.021,29.095,7.426,28.583 M25.497,28.62C25.833,28.896,25.203,28.855,25.497,28.62 M5.824,28.639
	C6.157,28.804,5.564,28.884,5.824,28.639 M27.137,28.675C27.352,28.781,26.963,28.851,27.137,28.675 M4.185,28.693
	c0.036,0.01,0.056,0.033,0.056,0.07C4.164,28.803,4.139,28.761,4.185,28.693 M14.768,29.257c0.279,0.025,0.408,0.148,0.328,0.438
	C14.719,29.987,14.394,29.55,14.768,29.257 M16.389,29.257c0.244,0.021,0.637,0.331,0.224,0.517
	C16.215,29.945,16.141,29.479,16.389,29.257 M13.146,29.275c0.251,0.022,0.515,0.334,0.176,0.49
	C12.988,29.923,12.845,29.425,13.146,29.275 M18.027,29.275c0.271,0.021,0.427,0.128,0.328,0.42
	C17.986,29.924,17.709,29.595,18.027,29.275 M11.525,29.313c0.246,0.031,0.414,0.314,0.128,0.438
	C11.289,29.854,11.32,29.468,11.525,29.313 M19.686,29.313c0.281,0.032,0.354,0.144,0.257,0.4
	C19.599,29.864,19.367,29.546,19.686,29.313 M21.362,29.349c0.271,0.014,0.252,0.218,0.128,0.384
	C21.212,29.699,21.122,29.525,21.362,29.349 M9.868,29.367c0.126-0.002,0.296,0.073,0.239,0.238
	C10.015,29.868,9.607,29.63,9.868,29.367 M23.001,29.403C23.768,29.662,22.41,29.688,23.001,29.403 M8.246,29.422
	C8.752,29.482,7.945,29.904,8.246,29.422 M24.642,29.458C24.949,29.511,24.553,29.854,24.642,29.458 M6.625,29.477
	C7.015,29.538,6.362,29.743,6.625,29.477 M26.316,29.494c0.029,0.021,0.051,0.053,0.055,0.092c-0.062,0.03-0.048-0.019-0.11-0.019
	C26.261,29.526,26.279,29.502,26.316,29.494 M5.004,29.513c0.035,0.012,0.054,0.035,0.054,0.073
	C4.983,29.624,4.958,29.579,5.004,29.513 M13.984,30.15c0.224,0.061,0.392,0.305,0.089,0.408
	C13.784,30.661,13.824,30.265,13.984,30.15 M15.588,30.15c0.197,0.021,0.426,0.146,0.214,0.354
	C15.555,30.752,15.394,30.373,15.588,30.15 M17.245,30.15c0.22,0.028,0.431,0.332,0.115,0.418
	C17.044,30.653,17.097,30.283,17.245,30.15 M18.902,30.168c0.314,0.023,0.305,0.404-0.036,0.364
	C18.682,30.44,18.774,30.263,18.902,30.168 M12.309,30.188C13.119,30.327,11.887,30.827,12.309,30.188 M20.543,30.205
	c0.21,0.041,0.281,0.227,0.055,0.327C20.373,30.448,20.397,30.35,20.543,30.205 M10.688,30.224
	C11.403,30.219,10.251,30.764,10.688,30.224 M22.199,30.241C22.806,30.544,21.688,30.497,22.199,30.241 M9.066,30.26
	C9.615,30.32,8.694,30.636,9.066,30.26 M7.463,30.296c0.095,0.046,0.103,0.102,0.021,0.164C7.386,30.427,7.379,30.35,7.463,30.296
	 M23.839,30.296C24.209,30.358,23.569,30.563,23.839,30.296 M5.824,30.332c0.036,0.011,0.054,0.034,0.055,0.072
	C5.803,30.444,5.778,30.399,5.824,30.332 M25.497,30.332c0.036,0.011,0.053,0.034,0.055,0.072
	C25.477,30.444,25.452,30.399,25.497,30.332 M14.841,31.025c0.167,0.083,0.261,0.221,0.021,0.325
	C14.676,31.294,14.625,31.076,14.841,31.025 M16.443,31.025c0.21,0.04,0.283,0.227,0.055,0.325
	C16.354,31.302,16.267,31.109,16.443,31.025 M13.183,31.043c0.18,0.024,0.201,0.129,0.109,0.272
	C13.063,31.427,13.031,31.151,13.183,31.043 M18.083,31.043c0.214-0.003,0.257,0.274,0.046,0.284
	C17.919,31.336,17.994,31.133,18.083,31.043 M11.58,31.063C12.027,31.359,11.11,31.349,11.58,31.063 M19.741,31.063
	c0.165,0.028,0.192,0.17,0.055,0.255C19.637,31.27,19.556,31.157,19.741,31.063 M9.922,31.098
	C10.282,31.275,9.617,31.322,9.922,31.098 M21.362,31.098C21.728,31.232,21.218,31.387,21.362,31.098 M23.038,31.115
	c0.129,0.063,0.067,0.157-0.055,0.128C22.966,31.188,22.983,31.144,23.038,31.115 M8.283,31.134
	C8.513,31.253,8.109,31.31,8.283,31.134 M24.677,31.152c0.036,0.01,0.057,0.032,0.057,0.07
	C24.655,31.262,24.633,31.221,24.677,31.152 M14.02,31.9c0.038,0.021,0.074,0.048,0.11,0.07C13.943,31.973,13.887,31.999,14.02,31.9
	 M15.623,31.9c0.063-0.008,0.114,0.019,0.146,0.07C15.565,32.026,15.517,32.002,15.623,31.9 M17.3,31.9
	c0.037,0.021,0.072,0.048,0.109,0.07C17.185,32.015,17.148,31.99,17.3,31.9 M12.381,31.918c0.03,0.02,0.063,0.037,0.092,0.055
	C12.313,31.985,12.283,31.967,12.381,31.918 M18.902,31.918c0.05,0.003,0.093,0.021,0.128,0.055
	C18.898,32.019,18.855,32.001,18.902,31.918 M10.741,31.938C10.888,31.986,10.661,32.021,10.741,31.938 M20.577,31.938
	C20.723,31.986,20.497,32.021,20.577,31.938 M22.218,31.955c0.015,0,0.024,0,0.036,0C22.242,31.955,22.23,31.955,22.218,31.955z"/>
</svg>
