<?xml version="1.0" encoding="utf-8"?>
<!-- Generator: Adobe Illustrator 15.0.2, SVG Export Plug-In . SVG Version: 6.00 Build 0)  -->
<!DOCTYPE svg PUBLIC "-//W3C//DTD SVG 1.1//EN" "http://www.w3.org/Graphics/SVG/1.1/DTD/svg11.dtd">
<svg version="1.1" id="Layer_2" xmlns="http://www.w3.org/2000/svg" xmlns:xlink="http://www.w3.org/1999/xlink" x="0px" y="0px"
	 width="32px" height="32px" viewBox="0 0 32 32" enable-background="new 0 0 32 32" xml:space="preserve">
<path fill="#FFFFFF" d="M16.1,16.165c0.123-0.168,0.106-0.287-0.035-0.33c-0.059,0-0.117,0.006-0.176,0.008
	C15.726,16.03,15.862,16.165,16.1,16.165z"/>
<g>
	<path fill="#FFFFFF" d="M31.648,15.326c0.295-0.006,0.42,0.157,0.231,0.414C31.549,15.903,31.447,15.522,31.648,15.326z
		 M30.693,16.236c0.296,0,0.415,0.184,0.234,0.434C30.563,16.848,30.477,16.447,30.693,16.236z M30.928,20.392
		c-0.339,0.154-0.438-0.22-0.234-0.413C30.989,19.972,31.111,20.136,30.928,20.392z M30.928,18.531
		c-0.338,0.162-0.438-0.219-0.234-0.413C30.989,18.111,31.111,18.274,30.928,18.531z M30.928,14.811
		c-0.339,0.154-0.438-0.22-0.234-0.414C30.989,14.39,31.111,14.554,30.928,14.811z M30.928,12.949
		c-0.338,0.163-0.438-0.219-0.234-0.413C30.989,12.529,31.111,12.692,30.928,12.949z M30.693,10.675
		c0.258-0.006,0.517,0.273,0.191,0.437C30.562,11.112,30.465,10.897,30.693,10.675z M1.075,11.605
		c0.293-0.007,0.419,0.157,0.233,0.414C0.976,12.182,0.874,11.8,1.075,11.605z M1.309,19.462c-0.333,0.162-0.437-0.218-0.233-0.413
		C1.369,19.041,1.495,19.205,1.309,19.462z M1.075,17.188c0.293-0.008,0.419,0.156,0.233,0.413
		C0.975,17.765,0.877,17.382,1.075,17.188z M1.309,15.74c-0.333,0.163-0.437-0.218-0.233-0.414
		C1.369,15.32,1.495,15.483,1.309,15.74z M1.309,13.879c-0.334,0.164-0.435-0.218-0.233-0.414
		C1.369,13.459,1.495,13.623,1.309,13.879z M3.961,5.093c0.326-0.004,0.37,0.187,0.192,0.414C3.821,5.507,3.729,5.322,3.961,5.093z
		 M4.174,7.367c-0.332,0.165-0.432-0.219-0.23-0.413C4.236,6.947,4.361,7.11,4.174,7.367z M3.921,8.794
		C4.31,8.779,4.369,9.001,4.153,9.269C3.786,9.269,3.704,9.089,3.921,8.794z M3.921,10.634c0.271-0.009,0.501,0.117,0.342,0.405
		C4.072,11.373,3.594,11.005,3.921,10.634z M4.323,14.748c-0.388,0.33-0.729-0.016-0.425-0.414
		C4.261,14.322,4.323,14.439,4.323,14.748z M3.941,12.474c0.354,0.03,0.521,0.276,0.212,0.535
		C3.767,13.011,3.604,12.717,3.941,12.474z M2.986,7.884C3.281,7.878,3.405,8.041,3.22,8.298C2.886,8.464,2.787,8.078,2.986,7.884z
		 M2.986,9.724c0.234-0.004,0.455,0.125,0.295,0.373C3.086,10.399,2.697,10.05,2.986,9.724z M3.306,13.829
		c-0.199,0.354-0.697-0.058-0.344-0.405C3.235,13.416,3.466,13.541,3.306,13.829z M2.03,8.814c0.294-0.007,0.419,0.157,0.233,0.413
		C1.932,9.394,1.83,9.009,2.03,8.814z M2.03,10.675c0.328-0.008,0.401,0.19,0.212,0.437C1.92,11.109,1.783,10.917,2.03,10.675z
		 M2.264,22.252c-0.332,0.166-0.436-0.218-0.233-0.413C2.325,21.833,2.45,21.996,2.264,22.252z M2.264,20.413
		c-0.353,0.014-0.513-0.164-0.233-0.435C2.381,19.968,2.446,20.146,2.264,20.413z M2.325,18.471
		c-0.195,0.302-0.581-0.05-0.294-0.374C2.265,18.092,2.487,18.223,2.325,18.471z M2.03,14.376c0.36,0,0.435,0.204,0.233,0.455
		C1.881,15.014,1.849,14.583,2.03,14.376z M2.325,16.61c-0.195,0.302-0.581-0.047-0.294-0.374
		C2.265,16.231,2.487,16.362,2.325,16.61z M2.325,12.889c-0.195,0.302-0.581-0.05-0.294-0.374
		C2.265,12.511,2.487,12.641,2.325,12.889z M2.986,11.564c0.393,0.043,0.438,0.243,0.188,0.517
		C2.824,12.044,2.682,11.817,2.986,11.564z M3.22,23.184c-0.335,0.165-0.435-0.223-0.233-0.414
		C3.281,22.763,3.405,22.927,3.22,23.184z M3.281,21.261c-0.196,0.305-0.583-0.048-0.295-0.371
		C3.221,20.884,3.442,21.014,3.281,21.261z M2.986,19.007c0.395,0.042,0.437,0.243,0.188,0.52
		C2.825,19.485,2.682,19.261,2.986,19.007z M3.306,17.552c-0.188,0.331-0.708-0.048-0.344-0.402
		C3.234,17.136,3.466,17.263,3.306,17.552z M3.306,15.69c-0.189,0.334-0.667-0.033-0.344-0.405
		C3.234,15.277,3.467,15.402,3.306,15.69z M3.941,18.056c0.359,0.029,0.521,0.275,0.212,0.535
		C3.761,18.595,3.599,18.305,3.941,18.056z M4.174,25.975c-0.32,0-0.464-0.136-0.23-0.413C4.236,25.554,4.361,25.718,4.174,25.975z
		 M3.961,23.68c0.349-0.008,0.367,0.228,0.192,0.451C3.772,24.134,3.714,23.961,3.961,23.68z M4.133,22.314
		c-0.344-0.036-0.438-0.236-0.189-0.52C4.344,21.842,4.385,22.039,4.133,22.314z M4.261,20.342c-0.188,0.335-0.667-0.03-0.342-0.401
		C4.189,19.929,4.422,20.054,4.261,20.342z M4.234,16.692c-0.359,0.29-0.551-0.218-0.335-0.497
		C4.165,16.187,4.584,16.411,4.234,16.692z M29.737,11.585c0.229-0.005,0.455,0.125,0.296,0.373
		C29.837,12.261,29.451,11.911,29.737,11.585z M29.737,9.745c0.296-0.007,0.42,0.156,0.233,0.413
		C29.636,10.318,29.536,9.94,29.737,9.745z M29.737,7.905c0.305-0.012,0.422,0.133,0.233,0.393
		C29.676,8.298,29.474,8.162,29.737,7.905z M29.037,9.228c-0.38,0.134-0.438-0.197-0.231-0.434
		C29.108,8.79,29.211,8.987,29.037,9.228z M28.782,6.954c0.295-0.007,0.42,0.157,0.233,0.413
		C28.684,7.532,28.583,7.148,28.782,6.954z M28.74,10.655c0.239-0.008,0.45,0.063,0.366,0.331
		C28.987,11.366,28.363,11.021,28.74,10.655z M29.121,12.847c-0.333,0.368-0.674,0.005-0.356-0.354
		C29.077,12.484,29.15,12.571,29.121,12.847z M27.827,6.023c0.295-0.007,0.419,0.157,0.232,0.414
		C27.729,6.601,27.628,6.218,27.827,6.023z M27.827,7.863c0.232-0.004,0.456,0.125,0.295,0.374
		C27.926,8.539,27.54,8.189,27.827,7.863z M27.827,9.703c0.396,0.042,0.438,0.243,0.19,0.517
		C27.637,10.187,27.575,9.983,27.827,9.703z M27.827,11.544c0.369,0.031,0.546,0.513,0.123,0.546
		C27.526,12.126,27.64,11.734,27.827,11.544z M26.871,5.093c0.296-0.006,0.42,0.157,0.233,0.414
		C26.771,5.666,26.671,5.288,26.871,5.093z M26.871,6.933c0.234-0.004,0.456,0.125,0.296,0.375
		C26.971,7.608,26.585,7.261,26.871,6.933z M26.85,8.773c0.271-0.009,0.503,0.116,0.341,0.403
		C27.003,9.513,26.521,9.146,26.85,8.773z M26.829,10.613c0.361-0.013,0.425,0.104,0.425,0.413
		C26.872,11.349,26.439,10.992,26.829,10.613z M25.917,4.162c0.293-0.006,0.42,0.157,0.232,0.413
		C25.815,4.739,25.716,4.358,25.917,4.162z M25.917,6.003c0.239-0.005,0.468,0.139,0.283,0.389
		C25.987,6.679,25.645,6.312,25.917,6.003z M25.895,7.843c0.358-0.012,0.498,0.207,0.273,0.496
		C25.741,8.541,25.676,8.093,25.895,7.843z M25.917,9.662c0.397,0.035,0.529,0.308,0.212,0.579
		C25.672,10.278,25.566,9.91,25.917,9.662z M24.961,3.232c0.294-0.007,0.42,0.157,0.233,0.413
		C24.86,3.812,24.762,3.427,24.961,3.232z M24.961,5.073c0.233-0.005,0.455,0.125,0.295,0.374
		C25.06,5.748,24.653,5.421,24.961,5.073z M24.939,6.912c0.27-0.009,0.503,0.117,0.34,0.405C25.083,7.666,24.503,7.276,24.939,6.912
		z M24.918,8.732c0.36-0.013,0.445,0.12,0.445,0.434C24.929,9.546,24.506,9.136,24.918,8.732z M24.961,10.552
		c0.435,0.063,0.615,0.373,0.233,0.66C24.699,11.212,24.514,10.813,24.961,10.552z M24.006,2.302c0.23,0.025,0.533,0.271,0.19,0.438
		C23.872,2.739,23.778,2.524,24.006,2.302z M24.301,4.515c-0.192,0.303-0.58-0.047-0.295-0.373
		C24.24,4.138,24.462,4.267,24.301,4.515z M23.983,5.982c0.349-0.011,0.388,0.096,0.361,0.393
		C24.179,6.733,23.606,6.412,23.983,5.982z M23.963,7.802c0.428,0,0.638,0.295,0.275,0.602C23.782,8.401,23.651,8.149,23.963,7.802z
		 M23.963,9.62c0.402-0.027,0.771,0.451,0.299,0.662C23.803,10.552,23.586,9.876,23.963,9.62z M23.941,11.44
		c0.396-0.021,0.771,0.302,0.424,0.667C23.966,12.528,23.482,11.845,23.941,11.44z M23.92,13.28
		c0.551-0.029,0.802,0.402,0.361,0.785C23.742,14.365,23.511,13.588,23.92,13.28z M23.37,5.456
		c-0.188,0.335-0.671-0.033-0.342-0.404C23.298,5.042,23.531,5.169,23.37,5.456z M23.241,3.688c-0.338-0.037-0.46-0.267-0.171-0.476
		C23.385,3.212,23.524,3.501,23.241,3.688z M23.008,1.413c0.325-0.013,0.499,0.372,0.233,0.372
		C22.992,1.791,22.778,1.636,23.008,1.413z M23.008,6.871c0.447,0,0.563,0.271,0.299,0.601C22.881,7.47,22.638,7.229,23.008,6.871z
		 M22.985,8.69c0.527-0.037,0.631,0.32,0.341,0.683C22.938,9.372,22.464,8.945,22.985,8.69z M23.051,10.489
		c0.455-0.018,0.729,0.577,0.256,0.786C22.725,11.448,22.483,10.601,23.051,10.489z M22.944,12.329
		c0.568,0.031,0.861,0.386,0.402,0.848C22.745,13.177,22.485,12.789,22.944,12.329z M23.294,15.046
		c-0.656,0.206-0.817-0.622-0.266-0.896C23.581,14.127,23.885,14.862,23.294,15.046z M22.371,14.148
		c-0.604,0.271-1.006-0.574-0.341-0.951C22.775,13.155,22.908,13.976,22.371,14.148z M21.437,17.001
		c-0.734,0.249-1.075-0.688-0.361-1.074C21.877,15.884,22.004,16.81,21.437,17.001z M22.073,16.898
		c0.82-0.027,0.766,1.112-0.015,1.005C21.476,17.821,21.662,17.076,22.073,16.898z M19.526,13.321
		c-0.764,0.249-1.176-0.797-0.299-1.137C19.981,12.156,20.127,13.126,19.526,13.321z M19.61,15.183
		c-0.838,0.396-1.226-0.729-0.509-1.158C19.991,13.979,20.236,14.886,19.61,15.183z M18.591,14.293
		c-0.89,0.254-1.202-0.854-0.358-1.22C19.125,13.031,19.229,14.111,18.591,14.293z M17.679,13.342
		c-0.839,0.335-1.233-0.734-0.471-1.179C18.127,12.118,18.318,13.086,17.679,13.342z M16.681,12.411
		c-0.801,0.27-1.136-0.739-0.404-1.158C17.185,11.208,17.313,12.2,16.681,12.411z M15.661,13.383
		c-0.85,0.194-1.087-0.89-0.273-1.237C16.304,12.105,16.368,13.223,15.661,13.383z M15.041,14.153
		c-0.722,0.677-1.585-0.446-0.718-1.08C14.882,13.047,15.588,13.641,15.041,14.153z M13.878,13.321
		c-0.794,0.373-1.177-0.723-0.485-1.137C14.269,12.14,14.497,13.03,13.878,13.321z M13.122,14.109
		c-0.642,0.656-1.536-0.396-0.688-0.995C12.944,13.089,13.598,13.624,13.122,14.109z M12.88,16.134
		c-0.89,0.29-1.146-0.857-0.358-1.197C13.39,14.895,13.517,15.926,12.88,16.134z M13.434,15.843
		c0.955-0.045,1.069,1.023,0.399,1.242C12.989,17.359,12.601,16.253,13.434,15.843z M11.882,15.183
		c-0.868,0.215-0.988-0.847-0.316-1.14C12.421,14.003,12.505,15.028,11.882,15.183z M11.521,15.906
		c0.698-0.038,1.196,0.896,0.377,1.107C11.085,17.22,10.89,16.276,11.521,15.906z M12.455,16.815
		c0.937-0.047,1.07,0.933,0.425,1.158C12.065,18.258,11.739,17.229,12.455,16.815z M13.453,17.726
		c0.938-0.045,0.993,1.041,0.318,1.195C12.926,19.122,12.711,18.085,13.453,17.726z M14.43,18.655
		c0.864-0.037,0.955,1.024,0.315,1.178C13.887,20.043,13.662,18.987,14.43,18.655z M15.301,17.705
		c0.555-0.024,1.205,0.567,0.702,1.071C15.32,19.463,14.359,18.328,15.301,17.705z M15.873,17.043
		c-0.21,0.104-0.561,0.102-0.765-0.021c0.391,0.688-0.562,1.423-1.098,0.772c-0.479-0.574,0.326-1.176,0.904-0.961
		c-0.098-0.19-0.109-0.534,0-0.724c-0.896,0.439-1.184-0.566-0.843-1.028c-0.05,0.045-0.104,0.087-0.177,0.118
		c-0.827,0.363-1.316-0.722-0.509-1.199c0.783-0.038,1.066,0.646,0.733,1.029c0.161-0.168,0.422-0.235,0.792-0.057
		c-0.314-0.617,0.354-1.279,0.979-0.91c-0.224-0.43-0.003-0.809,0.4-1.016c1.2-0.056,0.851,1.688-0.212,1.199
		c0.105,0.188,0.085,0.48,0.043,0.685c0.196-0.06,0.488-0.06,0.682,0.021c-0.232-0.721,0.669-1.484,1.168-0.7
		c0.385,0.604-0.331,1.122-0.914,0.948c0.084,0.191,0.063,0.463,0.021,0.662c0.386-0.063,0.642,0.01,0.789,0.146
		c-0.243-0.286-0.188-0.816,0.293-1.097c0.96-0.046,1.129,1,0.447,1.241c-0.321,0.112-0.567,0.036-0.718-0.124
		c0.429,0.437-0.112,1.444-0.876,0.992C17.782,18.214,15.204,18.413,15.873,17.043z M17.254,17.705
		c0.865-0.042,1.061,0.906,0.445,1.198C16.873,19.298,16.396,18.122,17.254,17.705z M18.209,16.773
		c0.959-0.045,1.025,1.075,0.34,1.241C17.652,18.231,17.433,17.141,18.209,16.773z M19.144,15.864
		c0.91-0.044,1.052,0.984,0.399,1.199C18.707,17.343,18.366,16.289,19.144,15.864z M20.056,14.976
		c0.523-0.027,1.167,0.548,0.646,1.016C20.043,16.589,19.253,15.543,20.056,14.976z M20.077,13.136
		c0.654-0.033,1.213,0.828,0.416,1.075C19.705,14.455,19.449,13.515,20.077,13.136z M21.097,12.246
		c0.646-0.03,0.944,0.806,0.253,0.984C20.604,13.422,20.506,12.533,21.097,12.246z M20.492,12.292
		c-0.726,0.253-0.991-0.606-0.393-0.977C20.684,11.291,21.206,12.043,20.492,12.292z M19.53,11.392
		c-0.755,0.253-0.988-0.69-0.323-1.006C19.779,10.353,20.176,11.175,19.53,11.392z M18.57,12.392
		c-0.846,0.236-1.028-0.747-0.382-1.116C19.076,11.228,19.17,12.222,18.57,12.392z M17.615,11.44
		c-0.811,0.263-0.975-0.73-0.383-1.076C18.085,10.319,18.214,11.244,17.615,11.44z M16.599,10.47
		c-0.752,0.145-0.843-0.723-0.261-1.017C16.996,9.423,17.322,10.329,16.599,10.47z M15.726,11.44
		c-0.78,0.271-1.022-0.655-0.425-1.076C16.176,10.318,16.333,11.228,15.726,11.44z M14.727,12.411
		c-0.822,0.199-1.061-0.832-0.297-1.158C15.293,11.216,15.372,12.255,14.727,12.411z M13.771,11.437
		c-0.746,0.235-0.857-0.698-0.381-1.051C14.037,10.358,14.551,11.188,13.771,11.437z M12.816,12.37
		c-0.837,0.204-0.908-0.785-0.318-1.074C13.355,11.249,13.412,12.226,12.816,12.37z M11.926,13.28
		c-0.778,0.29-1.054-0.725-0.383-1.055C12.341,12.183,12.479,13.073,11.926,13.28z M11.02,14.162
		c-0.672,0.442-1.06-0.58-0.478-0.986C11.11,13.153,11.647,13.748,11.02,14.162z M10.544,15.017
		c0.878-0.052,0.982,0.887,0.404,1.054C10.094,16.318,10.027,15.34,10.544,15.017z M10.073,16.871
		c-0.635,0.438-1.11-0.548-0.379-0.903C10.19,15.948,10.53,16.559,10.073,16.871z M10.564,16.877
		c0.565-0.023,0.815,0.253,0.68,0.769C10.73,18.439,9.676,17.397,10.564,16.877z M11.5,17.787c0.623-0.034,1.208,0.775,0.431,1.035
		C11.148,19.083,10.937,18.194,11.5,17.787z M12.52,18.697c0.808-0.039,0.922,0.908,0.34,1.096
		C12.032,20.058,11.824,19.019,12.52,18.697z M13.41,19.647c0.639-0.034,1.188,0.798,0.404,1.038
		C13.064,20.918,12.809,20.021,13.41,19.647z M14.365,20.599c0.818-0.051,0.963,0.8,0.405,1.014
		C13.997,21.906,13.822,20.939,14.365,20.599z M15.301,19.627c0.873-0.046,1.061,0.859,0.444,1.099
		C14.921,21.041,14.688,19.994,15.301,19.627z M16.276,18.655c0.921-0.046,1.052,0.956,0.404,1.178
		C15.874,20.11,15.532,19.082,16.276,18.655z M17.211,19.627c0.878-0.046,1.025,0.895,0.428,1.099
		C16.815,21.001,16.605,20.052,17.211,19.627z M18.188,18.676c0.878-0.045,1.018,0.936,0.399,1.141
		C17.788,20.08,17.466,19.086,18.188,18.676z M19.122,19.669c0.878-0.051,0.961,0.877,0.382,1.033
		C18.667,20.927,18.632,19.978,19.122,19.669z M19.483,18.903c-0.829,0.199-1.031-0.813-0.318-1.158
		C20.071,17.7,20.133,18.747,19.483,18.903z M20.077,16.837c0.672-0.037,1.218,0.833,0.411,1.089
		C19.695,18.177,19.443,17.212,20.077,16.837z M20.969,15.12c-0.481-0.304-0.292-0.756,0.063-1.034
		c0.472-0.021,0.981,0.407,0.618,0.861C21.488,15.15,21.21,15.181,20.969,15.12z M22.094,2.302c0.295-0.006,0.421,0.158,0.231,0.414
		C21.992,2.88,21.896,2.496,22.094,2.302z M22.094,4.121c0.258,0.022,0.589,0.33,0.213,0.517C21.95,4.606,21.763,4.361,22.094,4.121
		z M22.094,5.94c0.417,0.035,0.529,0.324,0.213,0.6C21.861,6.54,21.737,6.194,22.094,5.94z M22.053,7.761
		c0.587-0.041,0.674,0.729,0.133,0.688C21.736,8.416,21.762,7.983,22.053,7.761z M22.053,9.558c0.354-0.021,0.701,0.293,0.466,0.636
		C22.146,10.729,21.409,9.988,22.053,9.558z M22.01,11.378c0.488-0.021,1.016,0.604,0.383,0.869
		c-0.251,0.138-0.508,0.047-0.613-0.21C21.646,11.717,21.771,11.573,22.01,11.378z M21.139,1.371
		c0.295-0.007,0.42,0.157,0.231,0.414C21.039,1.948,20.938,1.567,21.139,1.371z M21.097,3.212c0.291-0.012,0.414,0.053,0.382,0.33
		C21.17,3.886,20.774,3.528,21.097,3.212z M21.097,5.031c0.418-0.015,0.541,0.226,0.297,0.558C21.06,5.589,20.694,5.29,21.097,5.031
		z M21.139,6.829c0.509,0.041,0.61,0.707,0.071,0.672C20.772,7.474,20.822,7.015,21.139,6.829z M21.139,8.628
		c0.558-0.021,0.571,0.455,0.298,0.785C20.876,9.691,20.636,8.914,21.139,8.628z M21.054,10.448c0.257,0.016,0.503-0.011,0.613,0.27
		c0,0.26,0.044,0.498-0.255,0.619C20.825,11.337,20.476,10.841,21.054,10.448z M20.183,0.441c0.296-0.007,0.42,0.157,0.231,0.414
		C20.039,1.035,20.058,0.624,20.183,0.441z M20.183,2.281c0.232-0.004,0.456,0.126,0.296,0.374
		C20.283,2.956,19.895,2.607,20.183,2.281z M20.12,4.121c0.372-0.015,0.424,0.06,0.424,0.394C20.169,4.827,19.848,4.521,20.12,4.121
		z M20.142,5.921c0.442,0.033,0.63,0.313,0.297,0.641C19.983,6.531,19.773,6.28,20.142,5.921z M20.142,7.72
		c0.413-0.021,0.849,0.521,0.315,0.744C19.948,8.765,19.717,8.007,20.142,7.72z M20.12,9.517c0.625-0.028,0.896,0.758,0.229,0.892
		C19.67,10.546,19.755,9.791,20.12,9.517z M19.228,1.371c0.296-0.007,0.42,0.157,0.231,0.414
		C19.129,1.949,19.028,1.566,19.228,1.371z M19.207,3.191c0.271-0.009,0.503,0.116,0.34,0.405
		C19.359,3.931,18.881,3.563,19.207,3.191z M19.165,5.011c0.46,0,0.652,0.295,0.275,0.619C19.015,5.652,18.891,5.316,19.165,5.011z
		 M19.186,6.81c0.411,0.023,0.813,0.521,0.273,0.724C18.909,7.693,18.814,7.072,19.186,6.81z M19.122,8.608
		c0.548,0.029,0.935,0.434,0.382,0.867C18.882,9.497,18.704,9.031,19.122,8.608z M18.272,0.441c0.295-0.007,0.42,0.157,0.231,0.414
		C18.172,1.015,18.072,0.636,18.272,0.441z M18.229,2.281c0.367-0.015,0.499,0.187,0.274,0.476
		C18.136,2.941,18.095,2.479,18.229,2.281z M18.229,4.101c0.347-0.012,0.454,0.104,0.425,0.414
		C18.315,4.901,17.906,4.521,18.229,4.101z M18.229,5.899c0.338-0.024,0.729,0.277,0.398,0.596
		C18.207,6.904,17.869,6.292,18.229,5.899z M18.209,7.698c0.387-0.02,0.902,0.383,0.449,0.725
		C18.115,8.829,17.711,8.095,18.209,7.698z M18.229,9.476c0.595-0.023,0.964,0.756,0.303,0.961
		C17.844,10.651,17.643,9.774,18.229,9.476z M17.317,1.371c0.353-0.01,0.451,0.202,0.188,0.455
		C17.207,1.828,17.021,1.566,17.317,1.371z M17.637,3.595c-0.188,0.336-0.667-0.033-0.344-0.404
		C17.565,3.183,17.799,3.308,17.637,3.595z M17.296,4.99c0.439,0.033,0.574,0.291,0.258,0.642
		C17.135,5.599,16.882,5.298,17.296,4.99z M17.274,6.788c0.467-0.016,0.82,0.578,0.276,0.766
		C16.988,7.802,16.939,7.054,17.274,6.788z M17.211,8.587c0.604,0.03,0.877,0.377,0.446,0.889
		C16.993,9.65,16.703,8.997,17.211,8.587z M16.362,0.441c0.294-0.007,0.42,0.157,0.233,0.414C16.26,1.013,16.161,0.638,16.362,0.441
		z M16.362,2.261c0.394,0.043,0.438,0.242,0.191,0.519C16.201,2.74,16.059,2.513,16.362,2.261z M16.362,4.08
		c0.421,0.038,0.582,0.579,0.095,0.579C16.063,4.659,16.108,4.255,16.362,4.08z M16.298,5.899c0.465,0.029,0.763,0.352,0.301,0.703
		C16.233,6.575,15.787,6.153,16.298,5.899z M16.341,7.677c0.273,0.033,0.529,0.035,0.557,0.379c0.013,0.185-0.058,0.369-0.235,0.449
		C16.107,8.826,15.824,7.981,16.341,7.677z M15.407,1.351c0.292,0,0.438,0.183,0.254,0.435C15.313,2.011,15.201,1.583,15.407,1.351z
		 M15.386,3.191c0.27-0.009,0.501,0.116,0.34,0.405C15.527,3.948,15.031,3.591,15.386,3.191z M15.386,4.99
		c0.274,0.021,0.732,0.366,0.313,0.594C15.221,5.845,15.049,5.28,15.386,4.99z M15.344,6.788c0.344,0.021,0.835,0.303,0.441,0.682
		c-0.231,0.229-0.504,0.047-0.678-0.123C15.128,7.068,15.149,6.994,15.344,6.788z M15.386,8.566
		c0.461-0.013,0.894,0.517,0.427,0.862C15.222,9.865,14.67,8.923,15.386,8.566z M14.771,10.448c-0.753,0.277-0.96-0.624-0.405-0.973
		C15.139,9.433,15.329,10.228,14.771,10.448z M14.45,0.441c0.295-0.007,0.42,0.157,0.233,0.414
		C14.351,1.015,14.25,0.636,14.45,0.441z M14.45,2.261c0.396,0.043,0.439,0.242,0.191,0.519C14.269,2.738,14.204,2.541,14.45,2.261z
		 M14.408,4.101c0.402-0.016,0.589,0.228,0.298,0.559C14.368,4.659,14.01,4.363,14.408,4.101z M14.408,5.899
		c0.45,0.029,0.646,0.296,0.318,0.682C14.17,6.843,14.11,6.16,14.408,5.899z M14.43,7.677c0.65-0.024,0.755,0.893,0.104,0.859
		C13.955,8.509,14.047,7.898,14.43,7.677z M13.496,1.371c0.313-0.01,0.426,0.147,0.233,0.414C13.36,1.968,13.287,1.574,13.496,1.371
		z M13.475,3.191c0.271-0.009,0.502,0.116,0.341,0.405C13.625,3.931,13.148,3.563,13.475,3.191z M13.434,5.011
		C13.708,5,13.99,5.08,13.903,5.402C13.774,5.886,13.01,5.56,13.434,5.011z M13.41,6.81c0.369,0.018,0.833,0.216,0.446,0.631
		C13.458,7.866,13.06,7.236,13.41,6.81z M13.453,8.587c0.537-0.017,0.92,0.661,0.318,0.889C13.111,9.681,12.96,8.888,13.453,8.587z
		 M12.54,0.441c0.314,0.034,0.399,0.141,0.213,0.414C12.454,0.828,12.284,0.691,12.54,0.441z M12.835,2.655
		c-0.192,0.302-0.582-0.047-0.295-0.374C12.774,2.277,12.996,2.407,12.835,2.655z M12.498,4.101
		c0.361-0.012,0.425,0.104,0.425,0.414C12.536,4.843,12.184,4.496,12.498,4.101z M12.477,5.921c0.495-0.027,0.639,0.288,0.297,0.66
		C12.368,6.552,12.083,6.259,12.477,5.921z M12.54,7.698c0.424-0.01,0.771,0.511,0.323,0.771c-0.172,0.1-0.427,0.063-0.545-0.098
		C12.092,8.072,12.295,7.864,12.54,7.698z M12.498,9.497c0.563-0.025,0.909,0.579,0.365,0.891
		C12.24,10.744,11.928,9.837,12.498,9.497z M11.585,1.371c0.294-0.007,0.42,0.157,0.233,0.414
		C11.485,1.95,11.385,1.566,11.585,1.371z M11.585,3.191c0.354,0.039,0.522,0.528,0.114,0.508
		C11.344,3.683,11.362,3.376,11.585,3.191z M11.585,5.011c0.544,0.049,0.522,0.602-0.043,0.602
		C11.35,5.396,11.333,5.183,11.585,5.011z M11.521,6.829c0.295,0.02,0.78,0.182,0.457,0.58C11.619,7.853,11.098,7.206,11.521,6.829z
		 M11.521,8.628c0.576-0.027,0.797,0.459,0.341,0.827C11.294,9.423,11.068,9.03,11.521,8.628z M11.5,10.427
		c0.479-0.021,1.06,0.474,0.505,0.875c-0.224,0.164-0.584,0.143-0.729-0.107C11.079,10.855,11.254,10.648,11.5,10.427z
		 M11.055,12.195c-0.627,0.457-1.072-0.41-0.513-0.837C11.01,11.337,11.581,11.811,11.055,12.195z M10.608,2.302
		c0.236-0.006,0.475,0.111,0.283,0.369C10.678,2.958,10.42,2.576,10.608,2.302z M10.608,4.121c0.271-0.009,0.502,0.116,0.341,0.404
		C10.762,4.861,10.28,4.493,10.608,4.121z M10.564,5.94c0.254-0.01,0.554,0.066,0.484,0.378C10.946,6.802,10.14,6.493,10.564,5.94z
		 M10.587,7.739c0.499,0.033,0.668,0.339,0.319,0.725C10.363,8.464,10.216,8.136,10.587,7.739z M10.608,9.538
		c0.574-0.023,0.729,0.496,0.315,0.848C10.365,10.355,9.992,9.892,10.608,9.538z M9.674,1.371c0.202-0.005,0.404,0.063,0.293,0.302
		C9.829,1.968,9.455,1.693,9.674,1.371z M9.674,3.212c0.234-0.005,0.457,0.125,0.297,0.373C9.773,3.888,9.388,3.538,9.674,3.212z
		 M9.674,5.031c0.357,0.031,0.522,0.278,0.215,0.538C9.478,5.569,9.334,5.32,9.674,5.031z M9.652,6.851
		c0.602,0.043,0.577,0.664-0.021,0.619C9.314,7.335,9.449,6.999,9.652,6.851z M9.632,8.671c0.446-0.021,0.82,0.551,0.276,0.723
		C9.391,9.616,9.27,8.921,9.632,8.671z M9.652,10.468c0.602-0.021,0.688,0.482,0.318,0.851C9.316,11.351,9.168,10.831,9.652,10.468z
		 M9.632,12.287c0.485-0.021,0.947,0.506,0.439,0.867C9.466,13.582,9.04,12.675,9.632,12.287z M8.717,2.302
		C9.016,2.296,9.14,2.46,8.952,2.716C8.618,2.882,8.521,2.496,8.717,2.302z M8.717,4.142c0.281-0.008,0.37,0.074,0.343,0.33
		C8.74,4.826,8.354,4.446,8.717,4.142z M8.697,5.962c0.354-0.011,0.404,0.115,0.404,0.413C8.722,6.697,8.28,6.3,8.697,5.962z
		 M8.678,7.781C9.13,7.816,9.297,8.06,8.974,8.423C8.541,8.392,8.289,8.157,8.678,7.781z M8.995,10.304
		C8.438,10.603,8.373,9.865,8.68,9.601C9.072,9.579,9.519,10.082,8.995,10.304z M8.655,11.419c0.486,0.049,0.802,0.312,0.425,0.768
		C8.483,12.396,8.21,11.78,8.655,11.419z M8.697,13.239c0.6-0.027,0.763,0.512,0.319,0.868C8.423,14.107,8.103,13.588,8.697,13.239z
		 M7.763,3.232c0.295-0.007,0.42,0.157,0.231,0.413C7.663,3.812,7.565,3.427,7.763,3.232z M7.763,5.052
		c0.395,0.043,0.437,0.244,0.189,0.52C7.604,5.53,7.459,5.306,7.763,5.052z M7.721,6.892C8.079,6.88,8.146,6.995,8.146,7.304
		C7.757,7.636,7.415,7.289,7.721,6.892z M7.721,8.712c0.603,0.045,0.63,0.664,0,0.619C7.408,9.199,7.544,8.888,7.721,8.712z
		 M7.721,10.53c0.335-0.012,0.771,0.298,0.419,0.636C7.71,11.577,7.208,10.779,7.721,10.53z M8.018,13.136
		c-0.609,0.191-0.596-0.471-0.318-0.765C8.115,12.396,8.638,12.897,8.018,13.136z M6.808,4.162c0.295-0.006,0.42,0.157,0.232,0.413
		C6.708,4.741,6.608,4.357,6.808,4.162z M6.808,5.982c0.354,0.039,0.481,0.253,0.213,0.517C6.665,6.464,6.486,6.25,6.808,5.982z
		 M6.765,7.822C7.127,7.81,7.195,7.925,7.166,8.236C6.812,8.642,6.472,8.203,6.765,7.822z M6.786,9.642
		c0.465-0.014,0.547,0.32,0.255,0.641C6.59,10.306,6.434,9.923,6.786,9.642z M6.765,11.481c0.295,0.019,0.732,0.191,0.424,0.563
		C6.848,12.455,6.36,11.918,6.765,11.481z M6.765,13.321C7.159,13.3,7.37,13.496,7.252,13.9C6.776,14.309,6.286,13.74,6.765,13.321z
		 M5.874,3.253c0.285-0.008,0.381,0.119,0.212,0.354C5.838,3.604,5.646,3.472,5.874,3.253z M5.853,5.093
		c0.35,0.035,0.435,0.158,0.189,0.438C5.698,5.538,5.604,5.334,5.853,5.093z M5.853,6.912C6.246,6.955,6.29,7.154,6.042,7.429
		C5.692,7.392,5.549,7.165,5.853,6.912z M5.853,8.753C6.247,8.788,6.396,9.027,6.065,9.31C5.687,9.279,5.501,9.007,5.853,8.753z
		 M5.81,10.593c0.424,0.031,0.636,0.291,0.274,0.603C5.635,11.21,5.534,10.935,5.81,10.593z M4.897,4.162
		c0.23,0.024,0.53,0.269,0.188,0.435C4.751,4.601,4.737,4.399,4.897,4.162z M5.258,10.097c-0.285,0.338-0.701-0.028-0.382-0.396
		C5.231,9.689,5.258,9.786,5.258,10.097z M4.875,6.023c0.357,0.032,0.467,0.143,0.213,0.435C4.732,6.47,4.693,6.292,4.875,6.023z
		 M4.897,7.843c0.394,0.043,0.438,0.242,0.188,0.52C4.737,8.321,4.595,8.097,4.897,7.843z M4.897,11.523
		c0.379,0.032,0.518,0.28,0.254,0.579C4.728,12.102,4.506,11.861,4.897,11.523z M5.301,13.838c-0.438,0.375-0.777-0.038-0.444-0.455
		C5.255,13.369,5.301,13.496,5.301,13.838z M5.109,26.904c-0.315,0-0.472-0.16-0.212-0.413C5.209,26.484,5.305,26.653,5.109,26.904z
		 M5.13,25.064c-0.331,0-0.546-0.241-0.212-0.455C5.258,24.604,5.308,24.836,5.13,25.064z M5.236,23.121
		c-0.354,0.286-0.703-0.089-0.339-0.393C5.183,22.72,5.293,22.848,5.236,23.121z M5.109,21.386c-0.432,0.13-0.487-0.341-0.212-0.535
		C5.254,20.878,5.419,21.126,5.109,21.386z M4.992,19.544c-0.395,0-0.348-0.4-0.095-0.578C5.338,19.005,5.484,19.544,4.992,19.544z
		 M4.833,17.105c0.391-0.018,0.468,0.095,0.468,0.434C4.896,17.933,4.473,17.516,4.833,17.105z M5.163,15.809
		c-0.471,0.105-0.653-0.313-0.267-0.585C5.161,15.245,5.638,15.699,5.163,15.809z M5.81,12.433c0.431,0.027,0.674,0.271,0.298,0.641
		C5.678,13.043,5.422,12.809,5.81,12.433z M5.789,18.015c0.416-0.019,0.488,0.101,0.488,0.476
		C5.845,18.911,5.353,18.37,5.789,18.015z M5.832,19.875c0.436,0.032,0.566,0.269,0.276,0.621
		C5.629,20.515,5.506,20.231,5.832,19.875z M6.065,27.814c-0.302,0.01-0.454-0.157-0.213-0.396
		C6.12,27.421,6.295,27.814,6.065,27.814z M6.086,25.995c-0.344,0.167-0.445-0.26-0.231-0.455
		C6.19,25.533,6.279,25.744,6.086,25.995z M6.145,24.107c-0.295,0.283-0.593-0.178-0.313-0.449
		C6.066,23.651,6.438,23.825,6.145,24.107z M6.146,22.274c-0.358,0.29-0.551-0.219-0.335-0.497
		C6.076,21.769,6.493,21.993,6.146,22.274z M5.81,16.134c0.395-0.015,0.486,0.148,0.486,0.496
		C5.811,17.057,5.347,16.525,5.81,16.134z M5.832,14.272c0.361-0.021,0.487,0.159,0.467,0.496
		C5.813,15.195,5.337,14.646,5.832,14.272z M7.129,26.79c-0.114,0.342-0.704,0.052-0.319-0.317
		C7.022,26.465,7.213,26.548,7.129,26.79z M7.126,24.994c-0.188,0.341-0.669-0.03-0.34-0.405C7.056,24.58,7.289,24.705,7.126,24.994
		z M6.869,23.257c-0.324-0.063-0.302-0.415-0.062-0.567C7.274,22.729,7.346,23.354,6.869,23.257z M7.042,21.446
		c-0.456-0.033-0.618-0.309-0.274-0.641C7.208,20.834,7.386,21.07,7.042,21.446z M7.061,19.579
		c-0.544,0.188-0.646-0.426-0.253-0.676C7.146,18.947,7.556,19.409,7.061,19.579z M6.808,17.022
		c0.461,0.059,0.666,0.407,0.272,0.744C6.598,17.738,6.272,17.319,6.808,17.022z M7.184,15.826c-0.47,0.411-0.941-0.361-0.376-0.665
		C7.164,15.151,7.528,15.522,7.184,15.826z M7.763,16.05c0.544,0.067,0.684,0.44,0.298,0.827C7.449,16.944,7.239,16.354,7.763,16.05
		z M7.721,17.933c0.396-0.018,0.815,0.354,0.428,0.704C7.685,19.049,7.203,18.298,7.721,17.933z M8.018,27.835
		c-0.326,0-0.542-0.132-0.255-0.414C8.048,27.412,8.213,27.576,8.018,27.835z M8.018,26.016c-0.348,0-0.617-0.163-0.275-0.496
		C8.104,25.508,8.241,25.727,8.018,26.016z M7.858,24.196c-0.396,0-0.349-0.405-0.096-0.579C8.184,23.654,8.345,24.196,7.858,24.196
		z M7.721,22.356c-0.258-0.226-0.258-0.457,0.042-0.644C8.35,21.761,8.348,22.398,7.721,22.356z M8.161,20.443
		c-0.496,0.404-0.813-0.209-0.48-0.61C7.975,19.817,8.579,20.104,8.161,20.443z M8.122,14.943c-0.586,0.355-0.892-0.421-0.357-0.753
		C8.173,14.175,8.559,14.677,8.122,14.943z M8.739,15.078c0.625-0.019,0.768,0.792,0.136,0.905
		C8.243,16.098,8.23,15.276,8.739,15.078z M8.655,16.96c0.604,0.035,0.95,0.727,0.208,0.867C8.26,17.942,8.299,17.213,8.655,16.96z
		 M8.952,28.766c-0.333,0.165-0.434-0.223-0.235-0.414C9.014,28.345,9.139,28.508,8.952,28.766z M8.909,26.967
		c-0.351-0.034-0.494-0.265-0.188-0.517C9.112,26.492,9.156,26.692,8.909,26.967z M8.781,25.117
		c-0.325-0.066-0.303-0.414-0.063-0.569C9.186,24.59,9.255,25.215,8.781,25.117z M8.974,23.308
		c-0.438-0.029-0.729-0.389-0.255-0.662C9.186,22.622,9.268,23.021,8.974,23.308z M8.995,21.468
		c-0.582,0.313-0.598-0.442-0.341-0.725C9.071,20.728,9.525,21.234,8.995,21.468z M9.128,19.578
		C8.603,20.03,8.19,19.236,8.68,18.842C9.039,18.865,9.572,19.197,9.128,19.578z M9.61,14.128c0.326,0.019,0.543,0.015,0.646,0.362
		c0.099,0.327-0.102,0.592-0.441,0.627C9.18,15.181,9.176,14.386,9.61,14.128z M9.907,29.696c-0.335,0.159-0.435-0.219-0.234-0.414
		C9.969,29.275,10.095,29.438,9.907,29.696z M9.942,27.822c-0.336,0.259-0.567-0.191-0.271-0.442
		C9.915,27.38,10.219,27.609,9.942,27.822z M9.632,25.499c0.36-0.013,0.427,0.104,0.427,0.414
		C9.67,26.243,9.324,25.896,9.632,25.499z M9.632,24.217c-0.323-0.139-0.193-0.5,0.042-0.641
		C10.269,23.625,10.239,24.261,9.632,24.217z M10.049,22.339c-0.491,0.438-0.8-0.273-0.438-0.665
		C9.969,21.661,10.447,21.987,10.049,22.339z M9.95,20.599c-0.57,0-0.872-0.525-0.298-0.851
		C10.161,19.729,10.519,20.392,9.95,20.599z M9.971,18.779c-0.762,0.236-0.856-0.638-0.318-0.931
		C10.303,17.814,10.496,18.588,9.971,18.779z M10.921,30.511c-0.128,0.279-0.583-0.016-0.292-0.3
		C10.834,30.207,11.029,30.275,10.921,30.511z M10.924,28.704c-0.191,0.302-0.584-0.047-0.295-0.372
		C10.864,28.326,11.085,28.456,10.924,28.704z M10.686,26.962c-0.338-0.045-0.282-0.37-0.059-0.529
		C11.064,26.468,11.153,27.023,10.686,26.962z M10.665,25.163c-0.394-0.058-0.257-0.46-0.078-0.637
		C11.153,24.569,11.204,25.243,10.665,25.163z M10.564,20.681c0.641-0.031,0.768,0.475,0.359,0.866
		C10.321,21.569,10.068,21.066,10.564,20.681z M11.006,23.254c-0.404,0.44-0.825-0.229-0.438-0.646
		C10.921,22.627,11.364,22.865,11.006,23.254z M11.032,19.689c-0.64,0.405-1.075-0.565-0.425-0.934
		C11.113,18.731,11.538,19.368,11.032,19.689z M11.818,29.696c-0.336,0.159-0.438-0.219-0.233-0.414
		C11.88,29.275,12.004,29.438,11.818,29.696z M11.905,27.785c-0.188,0.334-0.67-0.033-0.342-0.405
		C11.834,27.371,12.065,27.497,11.905,27.785z M11.948,25.934c-0.21,0.43-0.767-0.019-0.428-0.455
		C11.836,25.467,12.119,25.588,11.948,25.934z M11.839,24.258c-0.506,0-0.749-0.438-0.253-0.724
		C11.955,23.582,12.342,24.037,11.839,24.258z M11.836,22.451c-0.622,0.167-0.729-0.553-0.294-0.839
		C12.051,21.586,12.467,22.281,11.836,22.451z M11.542,19.689c0.53-0.026,0.756,0.264,0.616,0.744
		C11.66,21.144,10.696,20.174,11.542,19.689z M12.773,30.626c-0.333,0.165-0.436-0.219-0.233-0.414
		C12.834,30.205,12.96,30.369,12.773,30.626z M12.753,28.786c-0.403,0.124-0.46-0.268-0.213-0.476
		C12.804,28.339,13.104,28.626,12.753,28.786z M12.587,26.982c-0.358-0.054-0.268-0.422-0.047-0.574
		C13.006,26.45,13.091,27.056,12.587,26.982z M12.965,25.044c-0.521,0.396-0.958-0.255-0.425-0.559
		C12.932,24.48,13.054,24.708,12.965,25.044z M12.893,23.33c-0.582,0.384-0.806-0.425-0.416-0.768
		C12.897,22.548,13.394,22.999,12.893,23.33z M12.768,21.615c-0.704,0.156-0.779-0.732-0.248-0.996
		C13.148,20.596,13.434,21.468,12.768,21.615z M13.453,21.57c0.5-0.028,0.979,0.581,0.399,0.884
		C13.198,22.795,12.889,21.924,13.453,21.57z M13.79,29.636c-0.172,0.27-0.604-0.018-0.294-0.371
		C13.73,29.257,13.951,29.386,13.79,29.636z M13.75,27.897c-0.372-0.028-0.633-0.27-0.254-0.538
		C13.841,27.391,14.001,27.604,13.75,27.897z M13.729,26.099c-0.392-0.028-0.679-0.313-0.296-0.645
		C13.896,25.483,14.104,25.689,13.729,26.099z M13.75,24.278c-0.517,0-0.779-0.421-0.297-0.765
		C13.853,23.541,14.352,24.087,13.75,24.278z M14.684,30.626c-0.331,0.165-0.436-0.219-0.233-0.414
		C14.746,30.205,14.87,30.369,14.684,30.626z M14.79,28.662c-0.319,0.358-0.69-0.022-0.358-0.352
		C14.642,28.294,14.923,28.404,14.79,28.662z M14.706,26.987c-0.425,0.04-0.639-0.271-0.298-0.579
		C14.812,26.393,15.041,26.662,14.706,26.987z M14.684,25.209c-0.514-0.038-0.624-0.348-0.318-0.724
		C14.877,24.513,15.14,24.834,14.684,25.209z M14.748,23.41c-0.565-0.03-0.928-0.434-0.382-0.868
		C14.964,22.575,15.214,22.957,14.748,23.41z M15.702,29.636c-0.196,0.304-0.584-0.048-0.295-0.371
		C15.641,29.257,15.862,29.386,15.702,29.636z M15.364,27.359c0.364-0.013,0.43,0.102,0.404,0.414
		C15.365,28.106,15.078,27.749,15.364,27.359z M15.661,26.099c-0.438-0.028-0.709-0.313-0.297-0.662
		C15.822,25.411,16.001,25.786,15.661,26.099z M15.506,24.309c-0.527-0.033-0.504-0.595-0.118-0.815
		C16.003,23.464,16.127,24.346,15.506,24.309z M15.807,22.425c-0.408,0.456-1.237-0.416-0.421-0.875
		C15.954,21.525,16.176,22.013,15.807,22.425z M16.341,20.578c0.792-0.038,0.865,0.913,0.3,1.054
		C15.801,21.84,15.708,20.848,16.341,20.578z M16.596,30.626c-0.335,0.162-0.436-0.219-0.233-0.414
		C16.656,30.205,16.782,30.369,16.596,30.626z M16.701,28.703c-0.355,0.292-0.646-0.065-0.359-0.393
		C16.689,28.299,16.728,28.406,16.701,28.703z M16.298,26.408c0.388-0.015,0.471,0.089,0.471,0.435
		C16.338,27.211,15.964,26.841,16.298,26.408z M16.732,25.114c-0.409,0.394-0.905-0.313-0.395-0.649
		C16.693,24.453,17.063,24.793,16.732,25.114z M16.464,23.412c-0.54-0.021-0.635-0.698-0.145-0.891
		C17.019,22.491,17.117,23.441,16.464,23.412z M17.612,29.636c-0.195,0.305-0.583-0.047-0.295-0.371
		C17.551,29.257,17.772,29.386,17.612,29.636z M17.529,27.897c-0.411,0-0.515-0.217-0.233-0.538
		C17.656,27.389,17.856,27.623,17.529,27.897z M17.572,26.077c-0.427,0-0.768-0.354-0.255-0.641
		C17.649,25.466,18.003,25.886,17.572,26.077z M17.558,24.286c-0.603,0.194-0.688-0.54-0.24-0.793
		C17.727,23.546,18.124,24.104,17.558,24.286z M17.736,22.398c-0.625,0.457-1.084-0.405-0.525-0.828
		C17.616,21.592,18.309,21.979,17.736,22.398z M18.507,30.626c-0.333,0.165-0.434-0.219-0.231-0.414
		C18.567,30.205,18.692,30.369,18.507,30.626z M18.465,28.827c-0.352-0.039-0.492-0.263-0.189-0.517
		C18.667,28.353,18.711,28.552,18.465,28.827z M18.527,26.987c-0.443,0.026-0.569-0.238-0.298-0.579
		C18.651,26.408,18.822,26.654,18.527,26.987z M18.363,25.195c-0.486-0.036-0.397-0.479-0.134-0.71
		c0.272,0.018,0.289-0.012,0.489,0.207C18.719,24.96,18.716,25.223,18.363,25.195z M18.654,23.286
		c-0.541,0.44-0.99-0.354-0.445-0.744C18.635,22.528,19.094,22.931,18.654,23.286z M18.57,21.612
		c-0.791,0.233-0.958-0.74-0.318-1.014C19.006,20.56,19.083,21.459,18.57,21.612z M19.462,29.716c-0.383,0-0.49-0.156-0.231-0.451
		C19.517,29.252,19.659,29.482,19.462,29.716z M19.547,27.785c-0.188,0.335-0.666-0.033-0.34-0.405
		C19.477,27.371,19.71,27.497,19.547,27.785z M19.553,26.015c-0.406,0.32-0.708-0.229-0.367-0.561
		C19.44,25.476,19.931,25.715,19.553,26.015z M19.616,24.186c-0.461,0.446-0.858-0.23-0.473-0.651
		C19.475,23.534,20.021,23.793,19.616,24.186z M19.618,22.409c-0.521,0.438-1.051-0.45-0.453-0.817
		C19.62,21.576,20.074,22.028,19.618,22.409z M20.374,30.646c-0.264,0.002-0.5-0.273-0.169-0.438
		C20.464,30.209,20.685,30.495,20.374,30.646z M20.485,28.68c-0.159,0.327-0.704-0.032-0.303-0.369
		C20.41,28.305,20.597,28.446,20.485,28.68z M20.142,26.43c0.357-0.016,0.424,0.104,0.424,0.41
		C20.178,27.174,19.835,26.826,20.142,26.43z M20.543,25.065c-0.339,0.38-0.795-0.133-0.398-0.562
		C20.451,24.489,20.842,24.731,20.543,25.065z M20.279,23.358c-0.547-0.03-0.513-0.584-0.097-0.796
		C20.773,22.546,20.891,23.394,20.279,23.358z M20.48,21.55c-0.231,0.131-0.574-0.001-0.658-0.248c0-0.362-0.007-0.471,0.34-0.658
		c0.323,0.033,0.375,0.059,0.574,0.31C20.812,21.182,20.719,21.45,20.48,21.55z M20.563,19.717
		c-0.709,0.353-1.121-0.587-0.485-0.979C20.624,18.708,21.257,19.374,20.563,19.717z M21.373,29.696
		c-0.336,0.156-0.437-0.218-0.231-0.414C21.435,29.275,21.559,29.438,21.373,29.696z M21.33,27.897
		c-0.326-0.036-0.521-0.269-0.213-0.521C21.519,27.419,21.589,27.608,21.33,27.897z M21.097,25.479
		c0.372-0.017,0.425,0.118,0.425,0.435C21.173,26.308,20.776,25.881,21.097,25.479z M21.073,24.222
		c-0.288-0.123-0.247-0.533,0.023-0.667C21.833,23.61,21.605,24.446,21.073,24.222z M21.209,22.463
		c-0.553-0.028-0.451-0.604-0.109-0.831C21.75,21.6,21.842,22.499,21.209,22.463z M21.272,20.632
		c-0.647,0.143-0.646-0.676-0.176-0.922c0.292,0.031,0.458,0.023,0.57,0.325C21.799,20.37,21.589,20.564,21.272,20.632z
		 M21.097,17.809c0.531-0.024,0.748,0.298,0.612,0.782C20.933,19.228,20.241,18.231,21.097,17.809z M22.285,28.786
		c-0.381,0.012-0.414-0.202-0.188-0.454C22.338,28.356,22.627,28.617,22.285,28.786z M22.413,26.854
		c-0.187,0.335-0.667-0.033-0.34-0.404C22.342,26.44,22.575,26.567,22.413,26.854z M22.307,25.146c-0.459,0-0.566-0.337-0.233-0.62
		C22.515,24.563,22.659,24.843,22.307,25.146z M22.371,23.328c-0.552,0.065-0.71-0.36-0.315-0.703
		C22.517,22.654,22.696,22.942,22.371,23.328z M22.349,21.509c-0.521,0-0.848-0.473-0.296-0.807
		C22.534,20.679,22.893,21.312,22.349,21.509z M22.374,19.677c-0.614,0.24-0.854-0.555-0.364-0.878
		C22.522,18.783,22.997,19.435,22.374,19.677z M22.392,16.03c-0.766,0.274-0.949-0.661-0.361-0.992
		C22.779,14.995,22.917,15.841,22.392,16.03z M23.262,29.696c-0.304,0-0.488-0.222-0.191-0.414
		C23.396,29.278,23.44,29.466,23.262,29.696z M23.344,27.774c-0.194,0.302-0.58-0.048-0.297-0.374
		C23.284,27.396,23.506,27.525,23.344,27.774z M23.291,26.017c-0.384,0.236-0.542-0.305-0.238-0.521
		C23.316,25.521,23.643,25.797,23.291,26.017z M23.283,24.217c-0.438-0.028-0.644-0.28-0.255-0.617
		C23.455,23.629,23.627,23.924,23.283,24.217z M23.326,22.397c-0.503,0-0.752-0.323-0.318-0.703
		C23.489,21.726,23.658,22.001,23.326,22.397z M23.304,20.578c-0.606,0.188-0.771-0.556-0.257-0.807
		C23.52,19.759,23.805,20.37,23.304,20.578z M23.508,18.574c-0.36,0.587-1.137-0.153-0.543-0.684
		C23.375,17.877,23.776,18.14,23.508,18.574z M23.45,16.815c-0.584,0.46-1.074-0.414-0.465-0.809
		C23.426,15.987,23.908,16.455,23.45,16.815z M24.238,28.766c-0.333,0.165-0.433-0.223-0.232-0.414
		C24.301,28.345,24.426,28.508,24.238,28.766z M24.238,26.925c-0.39,0.193-0.413-0.269-0.232-0.475
		C24.342,26.45,24.429,26.68,24.238,26.925z M24.217,25.105c-0.395,0-0.557-0.289-0.212-0.537
		C24.362,24.601,24.528,24.847,24.217,25.105z M24.217,23.308c-0.403-0.056-0.609-0.313-0.255-0.645
		C24.439,22.648,24.548,23.021,24.217,23.308z M24.26,21.468c-0.51,0-0.694-0.354-0.299-0.7
		C24.473,20.802,24.584,21.111,24.26,21.468z M24.26,19.647c-0.572,0.027-0.738-0.437-0.299-0.785
		C24.533,18.9,24.613,19.27,24.26,19.647z M24.289,17.775c-0.591,0.263-0.8-0.503-0.306-0.795
		C24.442,16.963,24.794,17.55,24.289,17.775z M24.388,15.88c-0.554,0.41-0.953-0.382-0.446-0.76
		C24.332,15.097,24.807,15.568,24.388,15.88z M24.918,12.392c0.401-0.021,0.813,0.488,0.297,0.703
		C24.713,13.125,24.469,12.71,24.918,12.392z M24.896,14.231c0.269,0.025,0.348,0,0.532,0.207c-0.019,0.245,0.012,0.51-0.313,0.564
		C24.526,15.109,24.628,14.47,24.896,14.231z M25.194,27.835c-0.334,0.165-0.433-0.22-0.233-0.414
		C25.256,27.414,25.381,27.578,25.194,27.835z M25.215,25.995c-0.358,0.063-0.564-0.214-0.254-0.476
		C25.265,25.552,25.426,25.705,25.215,25.995z M25.173,24.175c-0.407,0-0.503-0.195-0.255-0.534
		C25.278,23.665,25.518,23.889,25.173,24.175z M24.939,21.736c0.347,0.028,0.438,0.134,0.424,0.476
		C24.904,22.604,24.491,22.063,24.939,21.736z M25.386,20.351c-0.48,0.414-0.883-0.063-0.489-0.496
		C25.249,19.833,25.474,19.989,25.386,20.351z M25.215,18.676c-0.56,0.182-0.619-0.395-0.339-0.699
		C25.358,18.002,25.646,18.304,25.215,18.676z M25.18,16.829c-0.577,0.199-0.618-0.461-0.283-0.737
		C25.362,16.068,25.734,16.638,25.18,16.829z M26.149,26.904c-0.334,0.163-0.437-0.219-0.232-0.413
		C26.211,26.484,26.336,26.647,26.149,26.904z M26.106,25.105c-0.354-0.038-0.495-0.266-0.189-0.52
		C26.312,24.631,26.353,24.832,26.106,25.105z M25.985,23.241c-0.346-0.041-0.308-0.363-0.068-0.533
		C26.342,22.746,26.435,23.295,25.985,23.241z M26.129,21.426c-0.439,0-0.528-0.269-0.272-0.6
		C26.315,20.826,26.472,21.091,26.129,21.426z M26.149,19.586c-0.478-0.029-0.61-0.285-0.296-0.641
		C26.334,18.979,26.492,19.211,26.149,19.586z M26.149,17.745c-0.501,0.021-0.61-0.335-0.296-0.682
		C26.365,17.031,26.497,17.407,26.149,17.745z M26.149,15.886c-0.37-0.024-0.797-0.436-0.296-0.684
		C26.407,15.163,26.472,15.535,26.149,15.886z M25.873,13.342c0.41,0.031,0.469,0.096,0.469,0.496
		C25.89,14.275,25.452,13.797,25.873,13.342z M26.26,12.039c-0.341,0.385-0.771-0.166-0.39-0.536
		C26.145,11.522,26.562,11.696,26.26,12.039z M26.829,12.453c0.453,0,0.607,0.293,0.255,0.603
		C26.632,13.052,26.531,12.784,26.829,12.453z M27.051,14.942c-0.463,0.081-0.434-0.448-0.198-0.649
		C27.2,14.324,27.546,14.854,27.051,14.942z M27.104,25.975c-0.332,0.165-0.437-0.223-0.233-0.413
		C27.167,25.554,27.291,25.718,27.104,25.975z M27.104,24.155c-0.319,0.012-0.577-0.184-0.275-0.476
		C27.187,23.666,27.318,23.843,27.104,24.155z M27.19,22.202c-0.188,0.335-0.669-0.033-0.341-0.404
		C27.12,21.789,27.353,21.915,27.19,22.202z M26.92,20.473c-0.363-0.049-0.269-0.429-0.049-0.577
		C27.35,19.938,27.379,20.527,26.92,20.473z M26.808,18.035c0.36-0.015,0.467,0.084,0.467,0.437
		C26.839,18.848,26.467,18.478,26.808,18.035z M27.162,16.743c-0.42,0.281-0.646-0.3-0.313-0.589
		C27.118,16.177,27.551,16.481,27.162,16.743z M28.06,25.044c-0.334,0.16-0.436-0.219-0.232-0.414
		C28.122,24.624,28.246,24.787,28.06,25.044z M28.122,23.122c-0.196,0.303-0.582-0.046-0.295-0.373
		C28.06,22.744,28.283,22.874,28.122,23.122z M27.806,20.867c0.333-0.011,0.389,0.086,0.357,0.372
		C27.852,21.596,27.498,21.218,27.806,20.867z M28.039,19.523c-0.393,0-0.557-0.289-0.212-0.537
		C28.185,19.018,28.349,19.265,28.039,19.523z M28.039,17.684c-0.353,0.012-0.604-0.331-0.255-0.562
		C28.196,17.111,28.38,17.394,28.039,17.684z M27.849,15.818c-0.354-0.054-0.227-0.437-0.021-0.574
		C28.28,15.293,28.367,15.898,27.849,15.818z M27.784,13.404c0.361-0.013,0.425,0.104,0.425,0.414
		C27.821,14.148,27.479,13.802,27.784,13.404z M29.016,24.113c-0.332,0.165-0.436-0.219-0.233-0.412
		C29.077,23.693,29.202,23.856,29.016,24.113z M29.109,22.129c-0.107,0.354-0.678,0.089-0.327-0.31
		C28.979,21.814,29.181,21.894,29.109,22.129z M28.845,20.429c-0.318-0.05-0.27-0.321-0.063-0.491
		C29.192,19.981,29.272,20.49,28.845,20.429z M29.128,18.426c-0.132,0.391-0.735,0.073-0.363-0.349
		C28.986,18.068,29.225,18.146,29.128,18.426z M29.102,16.62c-0.188,0.335-0.667-0.032-0.34-0.403
		C29.03,16.207,29.263,16.332,29.102,16.62z M29.102,14.761c-0.188,0.337-0.669-0.031-0.34-0.402
		C29.03,14.347,29.263,14.472,29.102,14.761z M29.717,15.307c0.259-0.01,0.477,0.117,0.316,0.388
		C29.881,15.955,29.35,15.663,29.717,15.307z M29.93,23.204c-0.313,0.003-0.413-0.217-0.192-0.435
		C29.967,22.795,30.272,23.043,29.93,23.204z M29.737,20.909c0.296-0.007,0.42,0.156,0.233,0.413
		C29.639,21.487,29.539,21.103,29.737,20.909z M30.033,19.401c-0.196,0.302-0.584-0.048-0.296-0.374
		C29.973,19.022,30.193,19.152,30.033,19.401z M30.033,17.541c-0.188,0.29-0.658-0.067-0.296-0.374
		C29.973,17.162,30.193,17.292,30.033,17.541z M30.033,13.819c-0.196,0.302-0.582-0.048-0.296-0.374
		C29.973,13.44,30.193,13.571,30.033,13.819z"/>
	<path fill="#FFFFFF" d="M15.151,15.202c0.083,0.188,0.082,0.497,0,0.684c0.188-0.077,0.484-0.074,0.68-0.021
		c0-0.213,0-0.427,0-0.641C15.636,15.28,15.342,15.281,15.151,15.202z"/>
	<path fill="#FFFFFF" d="M16.787,16.154c-0.221,0-0.438,0-0.658,0c0.061,0.188,0.061,0.476-0.021,0.661
		c0.214-0.063,0.516-0.075,0.723,0.021C16.733,16.64,16.742,16.36,16.787,16.154z"/>
	<path fill="#FFFFFF" d="M25.194,3.646c0.187-0.256,0.061-0.42-0.233-0.413C24.762,3.427,24.86,3.812,25.194,3.646z"/>
	<path fill="#FFFFFF" d="M8.678,18.842c-0.487,0.396-0.077,1.188,0.448,0.736C9.572,19.197,9.039,18.865,8.678,18.842z"/>
	<path fill="#FFFFFF" d="M8.655,20.743c-0.257,0.279-0.241,1.035,0.341,0.725C9.525,21.234,9.071,20.728,8.655,20.743z"/>
	<path fill="#FFFFFF" d="M8.717,24.548c-0.237,0.155-0.262,0.503,0.063,0.569C9.255,25.215,9.186,24.59,8.717,24.548z"/>
	<path fill="#FFFFFF" d="M8.717,22.646c-0.472,0.273-0.18,0.633,0.258,0.662C9.268,23.021,9.186,22.622,8.717,22.646z"/>
	<path fill="#FFFFFF" d="M8.717,28.352c-0.196,0.191-0.098,0.579,0.235,0.414C9.139,28.508,9.014,28.345,8.717,28.352z"/>
	<path fill="#FFFFFF" d="M8.717,26.45c-0.303,0.252-0.157,0.479,0.191,0.517C9.156,26.692,9.112,26.492,8.717,26.45z"/>
	<path fill="#FFFFFF" d="M9.632,25.499c-0.308,0.397,0.038,0.744,0.427,0.414C10.057,25.604,9.992,25.486,9.632,25.499z"/>
	<path fill="#FFFFFF" d="M9.674,23.576c-0.235,0.141-0.365,0.502-0.042,0.641C10.239,24.261,10.269,23.625,9.674,23.576z"/>
	<path fill="#FFFFFF" d="M8.862,17.827c0.743-0.144,0.397-0.832-0.208-0.867C8.299,17.213,8.26,17.942,8.862,17.827z"/>
	<path fill="#FFFFFF" d="M6.808,22.687c-0.24,0.152-0.265,0.504,0.062,0.567C7.346,23.354,7.274,22.729,6.808,22.687z"/>
	<path fill="#FFFFFF" d="M9.674,27.38c-0.299,0.251-0.064,0.701,0.271,0.442C10.219,27.609,9.915,27.38,9.674,27.38z"/>
	<path fill="#FFFFFF" d="M9.812,15.117c0.343-0.035,0.54-0.3,0.441-0.627c-0.102-0.35-0.316-0.346-0.646-0.362
		C9.176,14.386,9.18,15.181,9.812,15.117z"/>
	<path fill="#FFFFFF" d="M9.674,29.282c-0.198,0.195-0.102,0.573,0.234,0.414C10.095,29.438,9.969,29.275,9.674,29.282z"/>
	<path fill="#FFFFFF" d="M7.742,25.52c-0.342,0.333-0.07,0.496,0.275,0.496C8.241,25.727,8.104,25.508,7.742,25.52z"/>
	<path fill="#FFFFFF" d="M7.082,17.767c0.393-0.337,0.188-0.688-0.272-0.744C6.272,17.319,6.598,17.738,7.082,17.767z"/>
	<path fill="#FFFFFF" d="M6.808,15.161c-0.564,0.304-0.093,1.076,0.376,0.665C7.528,15.522,7.164,15.151,6.808,15.161z"/>
	<path fill="#FFFFFF" d="M8.061,16.877c0.386-0.387,0.246-0.76-0.298-0.827C7.239,16.354,7.449,16.944,8.061,16.877z"/>
	<path fill="#FFFFFF" d="M6.765,20.806c-0.343,0.332-0.182,0.604,0.274,0.641C7.386,21.07,7.208,20.834,6.765,20.806z"/>
	<path fill="#FFFFFF" d="M6.808,18.903c-0.394,0.25-0.292,0.861,0.253,0.676C7.556,19.409,7.146,18.947,6.808,18.903z"/>
	<path fill="#FFFFFF" d="M8.148,18.636c0.391-0.347-0.03-0.719-0.428-0.701C7.203,18.298,7.685,19.049,8.148,18.636z"/>
	<path fill="#FFFFFF" d="M9.652,19.751c-0.574,0.322-0.271,0.851,0.298,0.851C10.519,20.392,10.161,19.729,9.652,19.751z"/>
	<path fill="#FFFFFF" d="M7.679,19.833c-0.333,0.401-0.016,1.018,0.48,0.61C8.579,20.104,7.975,19.817,7.679,19.833z"/>
	<path fill="#FFFFFF" d="M7.763,21.716c-0.3,0.187-0.3,0.418-0.042,0.644C8.348,22.398,8.35,21.761,7.763,21.716z"/>
	<path fill="#FFFFFF" d="M7.763,27.421c-0.288,0.282-0.071,0.414,0.255,0.414C8.213,27.576,8.048,27.412,7.763,27.421z"/>
	<path fill="#FFFFFF" d="M7.763,14.19c-0.532,0.333-0.229,1.108,0.357,0.753C8.559,14.677,8.173,14.175,7.763,14.19z"/>
	<path fill="#FFFFFF" d="M8.876,15.983c0.632-0.113,0.488-0.923-0.136-0.905C8.23,15.276,8.243,16.098,8.876,15.983z"/>
	<path fill="#FFFFFF" d="M7.763,23.617c-0.253,0.174-0.3,0.579,0.096,0.579C8.345,24.196,8.184,23.654,7.763,23.617z"/>
	<path fill="#FFFFFF" d="M9.61,21.674c-0.361,0.392-0.054,1.104,0.438,0.665C10.447,21.987,9.969,21.661,9.61,21.674z"/>
	<path fill="#FFFFFF" d="M12.477,22.563c-0.39,0.343-0.167,1.148,0.416,0.768C13.394,22.999,12.897,22.548,12.477,22.563z"/>
	<path fill="#FFFFFF" d="M12.52,20.619c-0.531,0.264-0.456,1.152,0.248,0.996C13.434,21.468,13.148,20.596,12.52,20.619z"/>
	<path fill="#FFFFFF" d="M13.853,22.454c0.579-0.303,0.101-0.912-0.399-0.884C12.889,21.924,13.198,22.795,13.853,22.454z"/>
	<path fill="#FFFFFF" d="M12.54,30.212c-0.199,0.195-0.1,0.579,0.233,0.414C12.96,30.369,12.834,30.205,12.54,30.212z"/>
	<path fill="#FFFFFF" d="M12.54,28.311c-0.248,0.208-0.19,0.6,0.213,0.476C13.104,28.626,12.804,28.339,12.54,28.311z"/>
	<path fill="#FFFFFF" d="M12.54,26.408c-0.221,0.152-0.313,0.521,0.047,0.574C13.091,27.056,13.006,26.45,12.54,26.408z"/>
	<path fill="#FFFFFF" d="M9.652,17.849c-0.538,0.293-0.44,1.167,0.318,0.931C10.496,18.588,10.303,17.814,9.652,17.849z"/>
	<path fill="#FFFFFF" d="M14.45,30.212c-0.2,0.195-0.098,0.579,0.233,0.414C14.87,30.369,14.746,30.205,14.45,30.212z"/>
	<path fill="#FFFFFF" d="M14.43,28.311c-0.333,0.325,0.039,0.71,0.358,0.352C14.923,28.404,14.642,28.294,14.43,28.311z"/>
	<path fill="#FFFFFF" d="M13.453,23.514c-0.481,0.344-0.22,0.765,0.297,0.765C14.352,24.087,13.853,23.541,13.453,23.514z"/>
	<path fill="#FFFFFF" d="M13.496,29.261c-0.313,0.356,0.122,0.644,0.294,0.373C13.951,29.386,13.73,29.257,13.496,29.261z"/>
	<path fill="#FFFFFF" d="M13.434,25.457c-0.382,0.332-0.096,0.613,0.296,0.645C14.104,25.689,13.896,25.483,13.434,25.457z"/>
	<path fill="#FFFFFF" d="M13.496,27.359c-0.378,0.271-0.118,0.51,0.254,0.538C14.001,27.604,13.841,27.391,13.496,27.359z"/>
	<path fill="#FFFFFF" d="M12.54,24.485c-0.533,0.304-0.097,0.952,0.425,0.559C13.054,24.708,12.932,24.48,12.54,24.485z"/>
	<path fill="#FFFFFF" d="M10.629,26.43c-0.227,0.159-0.28,0.484,0.059,0.529C11.153,27.023,11.064,26.468,10.629,26.43z"/>
	<path fill="#FFFFFF" d="M10.587,24.526c-0.179,0.177-0.313,0.579,0.078,0.637C11.204,25.243,11.153,24.569,10.587,24.526z"/>
	<path fill="#FFFFFF" d="M10.564,22.604c-0.386,0.419,0.034,1.09,0.438,0.646C11.364,22.865,10.921,22.627,10.564,22.604z"/>
	<path fill="#FFFFFF" d="M10.926,21.55c0.406-0.395,0.279-0.897-0.359-0.866C10.068,21.066,10.321,21.569,10.926,21.55z"/>
	<path fill="#FFFFFF" d="M10.629,28.332c-0.29,0.325,0.104,0.674,0.295,0.372C11.085,28.456,10.864,28.326,10.629,28.332z"/>
	<path fill="#FFFFFF" d="M10.629,30.212c-0.292,0.284,0.164,0.579,0.292,0.303C11.029,30.275,10.834,30.207,10.629,30.212z"/>
	<path fill="#FFFFFF" d="M11.563,27.38c-0.329,0.372,0.153,0.739,0.342,0.405C12.065,27.497,11.834,27.371,11.563,27.38z"/>
	<path fill="#FFFFFF" d="M11.585,23.534c-0.496,0.282-0.253,0.724,0.253,0.724C12.342,24.037,11.955,23.582,11.585,23.534z"/>
	<path fill="#FFFFFF" d="M11.521,25.479c-0.339,0.438,0.218,0.885,0.428,0.455C12.119,25.588,11.836,25.467,11.521,25.479z"/>
	<path fill="#FFFFFF" d="M10.608,18.759c-0.65,0.365-0.215,1.339,0.425,0.934C11.538,19.368,11.113,18.731,10.608,18.759z"/>
	<path fill="#FFFFFF" d="M11.542,21.612c-0.438,0.286-0.328,1.006,0.294,0.839C12.467,22.281,12.051,21.586,11.542,21.612z"/>
	<path fill="#FFFFFF" d="M11.542,19.689c-0.846,0.481,0.118,1.454,0.616,0.744C12.298,19.953,12.072,19.663,11.542,19.689z"/>
	<path fill="#FFFFFF" d="M11.585,29.282c-0.202,0.195-0.103,0.573,0.233,0.414C12.004,29.438,11.88,29.275,11.585,29.282z"/>
	<path fill="#FFFFFF" d="M8.952,2.716c0.188-0.256,0.063-0.42-0.235-0.414C8.521,2.496,8.618,2.882,8.952,2.716z"/>
	<path fill="#FFFFFF" d="M7.721,9.331c0.63,0.044,0.603-0.574,0-0.619C7.544,8.888,7.408,9.199,7.721,9.331z"/>
	<path fill="#FFFFFF" d="M8.14,11.166c0.354-0.338-0.083-0.647-0.419-0.636C7.208,10.779,7.71,11.577,8.14,11.166z"/>
	<path fill="#FFFFFF" d="M10.926,10.386c0.412-0.352,0.258-0.871-0.315-0.848C9.992,9.892,10.365,10.355,10.926,10.386z"/>
	<path fill="#FFFFFF" d="M6.086,3.604c0.168-0.232,0.072-0.359-0.212-0.352C5.646,3.472,5.838,3.604,6.086,3.604z"/>
	<path fill="#FFFFFF" d="M7.996,3.646C8.185,3.39,8.06,3.226,7.765,3.232C7.565,3.427,7.663,3.812,7.996,3.646z"/>
	<path fill="#FFFFFF" d="M7.699,12.37c-0.273,0.294-0.291,0.957,0.318,0.766C8.638,12.897,8.115,12.396,7.699,12.37z"/>
	<path fill="#FFFFFF" d="M7.021,6.499c0.271-0.264,0.142-0.478-0.213-0.517C6.486,6.25,6.665,6.464,7.021,6.499z"/>
	<path fill="#FFFFFF" d="M7.188,12.048c0.312-0.373-0.128-0.547-0.424-0.563C6.36,11.918,6.848,12.455,7.188,12.048z"/>
	<path fill="#FFFFFF" d="M7.042,10.282c0.292-0.32,0.21-0.654-0.255-0.641C6.434,9.923,6.59,10.306,7.042,10.282z"/>
	<path fill="#FFFFFF" d="M7.254,13.9c0.119-0.404-0.095-0.603-0.487-0.579C6.286,13.74,6.776,14.309,7.254,13.9z"/>
	<path fill="#FFFFFF" d="M9.017,14.107c0.441-0.356,0.278-0.896-0.319-0.868C8.103,13.588,8.423,14.107,9.017,14.107z"/>
	<path fill="#FFFFFF" d="M7.042,4.575C7.229,4.319,7.104,4.156,6.81,4.162C6.608,4.357,6.708,4.741,7.042,4.575z"/>
	<path fill="#FFFFFF" d="M7.168,8.236C7.195,7.925,7.129,7.81,6.767,7.822C6.472,8.203,6.812,8.642,7.168,8.236z"/>
	<path fill="#FFFFFF" d="M7.763,5.052c-0.306,0.254-0.159,0.479,0.189,0.52C8.199,5.296,8.157,5.095,7.763,5.052z"/>
	<path fill="#FFFFFF" d="M9.971,11.316c0.368-0.366,0.28-0.873-0.318-0.849C9.168,10.831,9.316,11.351,9.971,11.316z"/>
	<path fill="#FFFFFF" d="M9.674,5.031C9.334,5.32,9.479,5.569,9.889,5.569C10.196,5.31,10.031,5.063,9.674,5.031z"/>
	<path fill="#FFFFFF" d="M9.907,9.394c0.544-0.172,0.17-0.747-0.276-0.725C9.27,8.921,9.391,9.616,9.907,9.394z"/>
	<path fill="#FFFFFF" d="M9.632,7.47c0.6,0.043,0.622-0.576,0.021-0.619C9.449,6.999,9.314,7.335,9.632,7.47z"/>
	<path fill="#FFFFFF" d="M9.969,3.585c0.16-0.248-0.063-0.378-0.297-0.373C9.388,3.538,9.773,3.888,9.969,3.585z"/>
	<path fill="#FFFFFF" d="M9.967,1.673c0.111-0.238-0.091-0.306-0.293-0.301C9.455,1.693,9.829,1.968,9.967,1.673z"/>
	<path fill="#FFFFFF" d="M9.059,4.472c0.026-0.256-0.062-0.338-0.34-0.33C8.354,4.446,8.74,4.826,9.059,4.472z"/>
	<path fill="#FFFFFF" d="M9.102,6.375c0-0.298-0.051-0.424-0.404-0.413C8.28,6.3,8.722,6.697,9.102,6.375z"/>
	<path fill="#FFFFFF" d="M8.974,8.423C9.297,8.06,9.13,7.818,8.678,7.781C8.289,8.157,8.541,8.392,8.974,8.423z"/>
	<path fill="#FFFFFF" d="M8.678,9.601c-0.307,0.266-0.239,1.002,0.315,0.703C9.519,10.082,9.072,9.579,8.678,9.601z"/>
	<path fill="#FFFFFF" d="M14.408,26.408c-0.341,0.308-0.126,0.619,0.298,0.579C15.041,26.662,14.812,26.393,14.408,26.408z"/>
	<path fill="#FFFFFF" d="M9.079,12.185c0.377-0.457,0.063-0.717-0.425-0.766C8.21,11.78,8.483,12.396,9.079,12.185z"/>
	<path fill="#FFFFFF" d="M10.071,13.154c0.508-0.361,0.046-0.888-0.439-0.867C9.04,12.675,9.466,13.582,10.071,13.154z"/>
	<path fill="#FFFFFF" d="M4.897,20.848c-0.275,0.194-0.22,0.665,0.212,0.534C5.419,21.126,5.254,20.878,4.897,20.848z"/>
	<path fill="#FFFFFF" d="M5.853,27.421c-0.241,0.236-0.089,0.403,0.213,0.396C6.295,27.814,6.12,27.421,5.853,27.421z"/>
	<path fill="#FFFFFF" d="M6.108,13.073c0.376-0.369,0.133-0.61-0.298-0.641C5.422,12.809,5.678,13.043,6.108,13.073z"/>
	<path fill="#FFFFFF" d="M4.897,18.966c-0.252,0.178-0.299,0.578,0.095,0.578C5.484,19.544,5.338,19.005,4.897,18.966z"/>
	<path fill="#FFFFFF" d="M6.277,18.49c0-0.375-0.072-0.491-0.488-0.476C5.353,18.37,5.845,18.911,6.277,18.49z"/>
	<path fill="#FFFFFF" d="M4.897,15.224c-0.387,0.272-0.205,0.691,0.267,0.585C5.638,15.699,5.161,15.245,4.897,15.224z"/>
	<path fill="#FFFFFF" d="M4.833,17.105c-0.357,0.41,0.063,0.827,0.468,0.434C5.301,17.2,5.222,17.091,4.833,17.105z"/>
	<path fill="#FFFFFF" d="M5.832,19.875c-0.326,0.356-0.203,0.643,0.276,0.621C6.398,20.141,6.265,19.907,5.832,19.875z"/>
	<path fill="#FFFFFF" d="M5.853,25.54c-0.213,0.195-0.11,0.622,0.231,0.455C6.279,25.744,6.19,25.533,5.853,25.54z"/>
	<path fill="#FFFFFF" d="M6.808,26.47c-0.382,0.369,0.205,0.659,0.319,0.317C7.213,26.548,7.022,26.465,6.808,26.47z"/>
	<path fill="#FFFFFF" d="M5.81,16.134c-0.463,0.395,0,0.926,0.486,0.496C6.299,16.282,6.204,16.119,5.81,16.134z"/>
	<path fill="#FFFFFF" d="M5.832,14.272c-0.495,0.374-0.02,0.923,0.467,0.496C6.319,14.432,6.193,14.253,5.832,14.272z"/>
	<path fill="#FFFFFF" d="M5.81,21.777c-0.215,0.278-0.023,0.787,0.335,0.497C6.493,21.993,6.076,21.769,5.81,21.777z"/>
	<path fill="#FFFFFF" d="M5.832,23.658c-0.277,0.271,0.021,0.732,0.313,0.449C6.438,23.825,6.066,23.651,5.832,23.658z"/>
	<path fill="#FFFFFF" d="M4.897,22.729c-0.364,0.304-0.018,0.679,0.339,0.393C5.293,22.848,5.183,22.72,4.897,22.729z"/>
	<path fill="#FFFFFF" d="M5.088,4.597C5.43,4.431,5.13,4.188,4.899,4.16C4.737,4.399,4.751,4.601,5.088,4.597z"/>
	<path fill="#FFFFFF" d="M6.086,11.192c0.359-0.309,0.147-0.569-0.274-0.6C5.534,10.935,5.635,11.21,6.086,11.192z"/>
	<path fill="#FFFFFF" d="M4.875,9.703c-0.318,0.365,0.098,0.731,0.382,0.394C5.258,9.786,5.231,9.689,4.875,9.703z"/>
	<path fill="#FFFFFF" d="M5.853,6.912c-0.306,0.253-0.16,0.479,0.189,0.517C6.29,7.155,6.245,6.955,5.853,6.912z"/>
	<path fill="#FFFFFF" d="M6.786,24.589c-0.33,0.375,0.149,0.746,0.34,0.405C7.289,24.705,7.056,24.58,6.786,24.589z"/>
	<path fill="#FFFFFF" d="M6.065,9.31c0.331-0.282,0.182-0.521-0.213-0.557C5.501,9.007,5.687,9.279,6.065,9.31z"/>
	<path fill="#FFFFFF" d="M4.875,6.023C4.693,6.292,4.731,6.47,5.088,6.458C5.342,6.166,5.233,6.056,4.875,6.023z"/>
	<path fill="#FFFFFF" d="M4.918,24.609c-0.334,0.214-0.119,0.455,0.212,0.455C5.308,24.836,5.258,24.604,4.918,24.609z"/>
	<path fill="#FFFFFF" d="M4.897,7.843c-0.303,0.254-0.16,0.479,0.188,0.52C5.334,8.085,5.29,7.886,4.897,7.843z"/>
	<path fill="#FFFFFF" d="M5.853,5.093C5.604,5.335,5.699,5.538,6.042,5.53C6.286,5.25,6.202,5.128,5.853,5.093z"/>
	<path fill="#FFFFFF" d="M4.897,26.491c-0.26,0.253-0.104,0.413,0.212,0.413C5.305,26.653,5.209,26.484,4.897,26.491z"/>
	<path fill="#FFFFFF" d="M4.854,13.383c-0.333,0.417,0.009,0.829,0.446,0.455C5.301,13.496,5.255,13.369,4.854,13.383z"/>
	<path fill="#FFFFFF" d="M5.151,12.102c0.264-0.3,0.125-0.546-0.254-0.579C4.506,11.861,4.728,12.102,5.151,12.102z"/>
	<path fill="#FFFFFF" d="M8.146,7.304c0-0.311-0.064-0.424-0.425-0.412C7.415,7.289,7.757,7.636,8.146,7.304z"/>
	<path fill="#FFFFFF" d="M24.876,17.974c-0.28,0.308-0.221,0.881,0.339,0.699C25.646,18.304,25.358,18.002,24.876,17.974z"/>
	<path fill="#FFFFFF" d="M24.896,16.092c-0.335,0.276-0.294,0.938,0.283,0.737C25.734,16.638,25.362,16.068,24.896,16.092z"/>
	<path fill="#FFFFFF" d="M24.918,23.638c-0.248,0.339-0.152,0.534,0.255,0.534C25.518,23.889,25.278,23.665,24.918,23.638z"/>
	<path fill="#FFFFFF" d="M24.939,21.736c-0.448,0.327-0.035,0.867,0.424,0.476C25.381,21.87,25.286,21.765,24.939,21.736z"/>
	<path fill="#FFFFFF" d="M24.896,19.854c-0.394,0.437,0.009,0.91,0.489,0.496C25.474,19.989,25.249,19.833,24.896,19.854z"/>
	<path fill="#FFFFFF" d="M25.917,24.589c-0.306,0.254-0.161,0.479,0.189,0.52C26.353,24.832,26.312,24.631,25.917,24.589z"/>
	<path fill="#FFFFFF" d="M25.917,26.491c-0.201,0.194-0.102,0.576,0.232,0.413C26.336,26.647,26.211,26.484,25.917,26.491z"/>
	<path fill="#FFFFFF" d="M25.917,22.708c-0.236,0.17-0.274,0.492,0.068,0.533C26.435,23.295,26.342,22.746,25.917,22.708z"/>
	<path fill="#FFFFFF" d="M25.873,13.342c-0.421,0.455,0.02,0.936,0.469,0.496C26.342,13.436,26.283,13.373,25.873,13.342z"/>
	<path fill="#FFFFFF" d="M26.149,17.745c0.348-0.338,0.216-0.714-0.296-0.682C25.539,17.41,25.648,17.763,26.149,17.745z"/>
	<path fill="#FFFFFF" d="M25.854,15.202c-0.501,0.248-0.074,0.656,0.296,0.684C26.472,15.535,26.407,15.163,25.854,15.202z"/>
	<path fill="#FFFFFF" d="M25.854,18.945c-0.314,0.354-0.182,0.608,0.296,0.641C26.492,19.211,26.334,18.979,25.854,18.945z"/>
	<path fill="#FFFFFF" d="M25.854,20.826c-0.256,0.331-0.167,0.6,0.272,0.6C26.472,21.091,26.315,20.826,25.854,20.826z"/>
	<path fill="#FFFFFF" d="M25.215,13.095c0.517-0.215,0.104-0.727-0.297-0.703C24.469,12.71,24.713,13.125,25.215,13.095z"/>
	<path fill="#FFFFFF" d="M24.961,25.52c-0.313,0.262-0.104,0.539,0.254,0.476C25.426,25.705,25.265,25.552,24.961,25.52z"/>
	<path fill="#FFFFFF" d="M23.963,22.666c-0.354,0.329-0.148,0.589,0.258,0.645C24.548,23.021,24.439,22.648,23.963,22.666z"/>
	<path fill="#FFFFFF" d="M24.006,26.45c-0.181,0.206-0.154,0.668,0.232,0.475C24.429,26.68,24.342,26.45,24.006,26.45z"/>
	<path fill="#FFFFFF" d="M22.985,16.009c-0.609,0.395-0.119,1.269,0.465,0.809C23.908,16.455,23.426,15.987,22.985,16.009z"/>
	<path fill="#FFFFFF" d="M23.963,20.765c-0.396,0.349-0.211,0.7,0.299,0.7C24.584,21.111,24.473,20.802,23.963,20.765z"/>
	<path fill="#FFFFFF" d="M24.006,28.352c-0.197,0.191-0.101,0.579,0.232,0.414C24.426,28.508,24.301,28.345,24.006,28.352z"/>
	<path fill="#FFFFFF" d="M24.006,24.568c-0.345,0.248-0.183,0.537,0.215,0.537C24.528,24.847,24.362,24.601,24.006,24.568z"/>
	<path fill="#FFFFFF" d="M25.116,15.005c0.324-0.058,0.297-0.32,0.313-0.564c-0.188-0.207-0.267-0.179-0.532-0.207
		C24.628,14.47,24.526,15.109,25.116,15.005z"/>
	<path fill="#FFFFFF" d="M24.961,27.421c-0.196,0.194-0.101,0.579,0.233,0.414C25.381,27.578,25.256,27.414,24.961,27.421z"/>
	<path fill="#FFFFFF" d="M25.873,11.503c-0.382,0.37,0.049,0.921,0.39,0.536C26.562,11.696,26.145,11.522,25.873,11.503z"/>
	<path fill="#FFFFFF" d="M23.963,18.862c-0.439,0.352-0.273,0.813,0.299,0.785C24.613,19.27,24.533,18.9,23.963,18.862z"/>
	<path fill="#FFFFFF" d="M22.965,17.891c-0.594,0.527,0.183,1.271,0.543,0.684C23.776,18.14,23.375,17.877,22.965,17.891z"/>
	<path fill="#FFFFFF" d="M23.941,15.12c-0.507,0.377-0.104,1.17,0.446,0.76C24.807,15.568,24.332,15.097,23.941,15.12z"/>
	<path fill="#FFFFFF" d="M23.983,16.98c-0.494,0.292-0.285,1.058,0.306,0.795C24.794,17.55,24.442,16.963,23.983,16.98z"/>
	<path fill="#FFFFFF" d="M28.762,18.077c-0.372,0.422,0.231,0.736,0.363,0.349C29.225,18.146,28.986,18.068,28.762,18.077z"/>
	<path fill="#FFFFFF" d="M28.762,14.355c-0.329,0.371,0.148,0.739,0.34,0.401C29.263,14.472,29.03,14.347,28.762,14.355z"/>
	<path fill="#FFFFFF" d="M26.829,12.453c-0.298,0.331-0.197,0.603,0.255,0.603C27.437,12.746,27.282,12.453,26.829,12.453z"/>
	<path fill="#FFFFFF" d="M27.784,13.404c-0.305,0.396,0.037,0.744,0.425,0.414C28.209,13.509,28.146,13.392,27.784,13.404z"/>
	<path fill="#FFFFFF" d="M28.782,21.819c-0.351,0.396,0.22,0.661,0.327,0.31C29.181,21.894,28.979,21.814,28.782,21.819z"/>
	<path fill="#FFFFFF" d="M28.782,23.701c-0.199,0.193-0.099,0.577,0.233,0.412C29.202,23.856,29.077,23.693,28.782,23.701z"/>
	<path fill="#FFFFFF" d="M28.782,19.938c-0.204,0.17-0.256,0.441,0.063,0.491C29.272,20.49,29.192,19.981,28.782,19.938z"/>
	<path fill="#FFFFFF" d="M30.033,15.694c0.157-0.271-0.061-0.396-0.316-0.388C29.35,15.663,29.881,15.955,30.033,15.694z"/>
	<path fill="#FFFFFF" d="M29.737,13.445c-0.286,0.326,0.1,0.676,0.296,0.374C30.193,13.571,29.973,13.44,29.737,13.445z"/>
	<path fill="#FFFFFF" d="M29.737,19.027c-0.288,0.326,0.1,0.676,0.296,0.374C30.193,19.152,29.973,19.022,29.737,19.027z"/>
	<path fill="#FFFFFF" d="M29.737,17.167c-0.362,0.307,0.106,0.664,0.296,0.374C30.193,17.292,29.973,17.162,29.737,17.167z"/>
	<path fill="#FFFFFF" d="M29.971,21.322c0.187-0.257,0.063-0.42-0.233-0.413C29.539,21.103,29.639,21.487,29.971,21.322z"/>
	<path fill="#FFFFFF" d="M29.737,22.77c-0.221,0.218-0.121,0.438,0.192,0.435C30.272,23.043,29.967,22.795,29.737,22.77z"/>
	<path fill="#FFFFFF" d="M28.762,16.217c-0.327,0.371,0.148,0.738,0.34,0.403C29.263,16.332,29.03,16.207,28.762,16.217z"/>
	<path fill="#FFFFFF" d="M26.808,18.035c-0.343,0.442,0.028,0.813,0.467,0.437C27.274,18.119,27.171,18.021,26.808,18.035z"/>
	<path fill="#FFFFFF" d="M26.871,19.896c-0.22,0.148-0.314,0.528,0.049,0.577C27.379,20.527,27.35,19.938,26.871,19.896z"/>
	<path fill="#FFFFFF" d="M26.829,23.68c-0.302,0.292-0.044,0.484,0.275,0.476C27.318,23.843,27.187,23.666,26.829,23.68z"/>
	<path fill="#FFFFFF" d="M26.85,21.798c-0.328,0.371,0.15,0.739,0.341,0.404C27.353,21.915,27.12,21.789,26.85,21.798z"/>
	<path fill="#FFFFFF" d="M26.871,25.562c-0.2,0.19-0.099,0.578,0.233,0.413C27.291,25.718,27.167,25.554,26.871,25.562z"/>
	<path fill="#FFFFFF" d="M26.85,14.293c-0.232,0.201-0.265,0.729,0.198,0.649C27.546,14.854,27.2,14.324,26.85,14.293z"/>
	<path fill="#FFFFFF" d="M27.827,18.986c-0.345,0.248-0.181,0.537,0.212,0.537C28.349,19.265,28.185,19.018,27.827,18.986z"/>
	<path fill="#FFFFFF" d="M26.85,16.154c-0.335,0.289-0.107,0.87,0.313,0.589C27.551,16.481,27.118,16.177,26.85,16.154z"/>
	<path fill="#FFFFFF" d="M27.784,17.125c-0.352,0.229-0.098,0.57,0.255,0.562C28.38,17.394,28.196,17.111,27.784,17.125z"/>
	<path fill="#FFFFFF" d="M28.166,21.239c0.028-0.286-0.024-0.383-0.357-0.372C27.498,21.218,27.852,21.596,28.166,21.239z"/>
	<path fill="#FFFFFF" d="M27.827,15.244c-0.202,0.14-0.329,0.521,0.021,0.574C28.367,15.898,28.28,15.293,27.827,15.244z"/>
	<path fill="#FFFFFF" d="M27.827,24.63c-0.2,0.195-0.102,0.574,0.232,0.414C28.246,24.787,28.122,24.624,27.827,24.63z"/>
	<path fill="#FFFFFF" d="M27.827,22.749c-0.287,0.327,0.099,0.676,0.295,0.373C28.283,22.874,28.06,22.744,27.827,22.749z"/>
	<path fill="#FFFFFF" d="M18.252,20.599c-0.64,0.271-0.473,1.247,0.318,1.014C19.083,21.459,19.006,20.56,18.252,20.599z"/>
	<path fill="#FFFFFF" d="M18.272,30.212c-0.199,0.195-0.102,0.579,0.231,0.414C18.692,30.369,18.567,30.205,18.272,30.212z"/>
	<path fill="#FFFFFF" d="M18.272,28.311c-0.303,0.254-0.159,0.478,0.189,0.517C18.711,28.552,18.667,28.353,18.272,28.311z"/>
	<path fill="#FFFFFF" d="M17.211,21.57c-0.559,0.423-0.1,1.285,0.525,0.828C18.309,21.979,17.616,21.592,17.211,21.57z"/>
	<path fill="#FFFFFF" d="M17.317,25.437c-0.513,0.283-0.172,0.641,0.255,0.641C18.003,25.886,17.649,25.466,17.317,25.437z"/>
	<path fill="#FFFFFF" d="M18.229,26.408c-0.271,0.341-0.146,0.605,0.298,0.579C18.822,26.654,18.651,26.408,18.229,26.408z"/>
	<path fill="#FFFFFF" d="M17.317,23.493c-0.444,0.253-0.359,0.987,0.24,0.793C18.124,24.104,17.727,23.546,17.317,23.493z"/>
	<path fill="#FFFFFF" d="M19.186,25.457c-0.341,0.332-0.039,0.881,0.367,0.561C19.931,25.715,19.44,25.476,19.186,25.457z"/>
	<path fill="#FFFFFF" d="M19.207,27.38c-0.326,0.372,0.152,0.74,0.34,0.405C19.71,27.497,19.477,27.371,19.207,27.38z"/>
	<path fill="#FFFFFF" d="M18.363,25.195c0.353,0.027,0.355-0.235,0.355-0.503c-0.2-0.219-0.217-0.189-0.489-0.207
		C17.966,24.718,17.877,25.159,18.363,25.195z"/>
	<path fill="#FFFFFF" d="M17.296,27.359c-0.278,0.321-0.178,0.538,0.233,0.538C17.856,27.623,17.656,27.389,17.296,27.359z"/>
	<path fill="#FFFFFF" d="M19.228,29.261c-0.259,0.298-0.148,0.454,0.231,0.454C19.659,29.482,19.517,29.252,19.228,29.261z"/>
	<path fill="#FFFFFF" d="M14.365,24.485c-0.306,0.376-0.193,0.686,0.318,0.724C15.14,24.834,14.877,24.513,14.365,24.485z"/>
	<path fill="#FFFFFF" d="M18.209,22.542c-0.545,0.392-0.096,1.188,0.445,0.744C19.094,22.931,18.635,22.528,18.209,22.542z"/>
	<path fill="#FFFFFF" d="M19.144,23.534c-0.389,0.421,0.012,1.102,0.473,0.651C20.021,23.793,19.475,23.534,19.144,23.534z"/>
	<path fill="#FFFFFF" d="M15.364,27.359c-0.286,0.39,0.001,0.747,0.404,0.414C15.794,27.461,15.729,27.347,15.364,27.359z"/>
	<path fill="#FFFFFF" d="M15.364,25.437c-0.413,0.353-0.144,0.634,0.297,0.662C16.001,25.786,15.822,25.411,15.364,25.437z"/>
	<path fill="#FFFFFF" d="M15.386,23.493c-0.386,0.224-0.409,0.782,0.118,0.815C16.127,24.346,16.003,23.464,15.386,23.493z"/>
	<path fill="#FFFFFF" d="M14.365,22.542c-0.546,0.438-0.186,0.838,0.382,0.868C15.214,22.957,14.964,22.575,14.365,22.542z"/>
	<path fill="#FFFFFF" d="M15.386,21.55c-0.815,0.459,0.014,1.331,0.421,0.875C16.176,22.013,15.954,21.525,15.386,21.55z"/>
	<path fill="#FFFFFF" d="M15.407,29.261c-0.289,0.326,0.099,0.678,0.295,0.373C15.862,29.386,15.641,29.257,15.407,29.261z"/>
	<path fill="#FFFFFF" d="M16.638,21.632c0.565-0.141,0.492-1.092-0.3-1.054C15.708,20.848,15.801,21.84,16.638,21.632z"/>
	<path fill="#FFFFFF" d="M16.341,24.465c-0.514,0.336-0.018,1.043,0.395,0.649C17.063,24.793,16.693,24.453,16.341,24.465z"/>
	<path fill="#FFFFFF" d="M16.298,26.408c-0.333,0.433,0.04,0.803,0.471,0.435C16.766,26.497,16.683,26.394,16.298,26.408z"/>
	<path fill="#FFFFFF" d="M16.319,22.521c-0.491,0.189-0.396,0.867,0.145,0.891C17.117,23.441,17.019,22.491,16.319,22.521z"/>
	<path fill="#FFFFFF" d="M16.341,28.311c-0.283,0.321,0.005,0.685,0.36,0.393C16.728,28.406,16.689,28.299,16.341,28.311z"/>
	<path fill="#FFFFFF" d="M16.362,30.212c-0.199,0.195-0.102,0.576,0.233,0.414C16.782,30.369,16.656,30.205,16.362,30.212z"/>
	<path fill="#FFFFFF" d="M17.317,29.261c-0.288,0.327,0.1,0.679,0.295,0.373C17.772,29.386,17.551,29.257,17.317,29.261z"/>
	<path fill="#FFFFFF" d="M23.051,27.4c-0.284,0.326,0.102,0.676,0.296,0.374C23.506,27.525,23.284,27.396,23.051,27.4z"/>
	<path fill="#FFFFFF" d="M22.01,18.8c-0.491,0.323-0.249,1.118,0.362,0.881C22.997,19.435,22.522,18.783,22.01,18.8z"/>
	<path fill="#FFFFFF" d="M22.307,25.146c0.353-0.307,0.208-0.583-0.233-0.62C21.74,24.81,21.848,25.146,22.307,25.146z"/>
	<path fill="#FFFFFF" d="M22.053,20.702c-0.552,0.334-0.225,0.807,0.296,0.807C22.893,21.312,22.534,20.679,22.053,20.702z"/>
	<path fill="#FFFFFF" d="M22.053,22.625c-0.395,0.343-0.233,0.771,0.315,0.703C22.696,22.942,22.517,22.654,22.053,22.625z"/>
	<path fill="#FFFFFF" d="M22.073,26.45c-0.327,0.371,0.153,0.739,0.34,0.404C22.575,26.567,22.342,26.44,22.073,26.45z"/>
	<path fill="#FFFFFF" d="M21.097,17.809c-0.855,0.423-0.164,1.419,0.612,0.782C21.845,18.106,21.631,17.784,21.097,17.809z"/>
	<path fill="#FFFFFF" d="M22.094,28.332c-0.226,0.252-0.189,0.466,0.188,0.454C22.627,28.617,22.338,28.356,22.094,28.332z"/>
	<path fill="#FFFFFF" d="M22.03,15.037c-0.588,0.331-0.401,1.269,0.361,0.992C22.917,15.841,22.779,14.995,22.03,15.037z"/>
	<path fill="#FFFFFF" d="M23.008,21.694c-0.434,0.38-0.185,0.703,0.318,0.703C23.658,22.001,23.489,21.726,23.008,21.694z"/>
	<path fill="#FFFFFF" d="M23.051,25.499c-0.302,0.216-0.144,0.757,0.24,0.521C23.643,25.797,23.316,25.521,23.051,25.499z"/>
	<path fill="#FFFFFF" d="M23.028,23.597c-0.389,0.337-0.185,0.589,0.255,0.617C23.627,23.924,23.455,23.629,23.028,23.597z"/>
	<path fill="#FFFFFF" d="M23.051,19.771c-0.515,0.251-0.354,0.995,0.256,0.807C23.805,20.37,23.52,19.759,23.051,19.771z"/>
	<path fill="#FFFFFF" d="M23.262,29.696c0.179-0.23,0.135-0.418-0.191-0.414C22.773,29.475,22.961,29.696,23.262,29.696z"/>
	<path fill="#FFFFFF" d="M20.162,20.641c-0.347,0.188-0.34,0.296-0.34,0.658c0.084,0.247,0.427,0.376,0.658,0.248
		c0.238-0.1,0.331-0.365,0.256-0.6C20.537,20.699,20.485,20.677,20.162,20.641z"/>
	<path fill="#FFFFFF" d="M20.142,24.507c-0.396,0.429,0.063,0.938,0.398,0.562C20.842,24.731,20.451,24.489,20.142,24.507z"/>
	<path fill="#FFFFFF" d="M20.183,22.563c-0.416,0.212-0.45,0.766,0.097,0.796C20.891,23.394,20.773,22.546,20.183,22.563z"/>
	<path fill="#FFFFFF" d="M19.165,21.592c-0.598,0.367-0.066,1.258,0.453,0.817C20.074,22.028,19.62,21.576,19.165,21.592z"/>
	<path fill="#FFFFFF" d="M20.142,26.43c-0.31,0.396,0.036,0.741,0.424,0.41C20.565,26.534,20.502,26.417,20.142,26.43z"/>
	<path fill="#FFFFFF" d="M20.183,28.311c-0.401,0.337,0.144,0.696,0.303,0.369C20.597,28.446,20.41,28.305,20.183,28.311z"/>
	<path fill="#FFFFFF" d="M20.205,30.212c-0.331,0.161-0.095,0.438,0.169,0.438C20.685,30.495,20.464,30.209,20.205,30.212z"/>
	<path fill="#FFFFFF" d="M21.097,23.555c-0.271,0.134-0.313,0.544-0.023,0.667C21.605,24.446,21.833,23.61,21.097,23.555z"/>
	<path fill="#FFFFFF" d="M21.097,19.71c-0.47,0.246-0.475,1.063,0.176,0.922c0.313-0.064,0.523-0.262,0.396-0.597
		C21.555,19.733,21.389,19.741,21.097,19.71z"/>
	<path fill="#FFFFFF" d="M21.097,25.479c-0.32,0.399,0.073,0.829,0.425,0.435C21.521,25.597,21.469,25.465,21.097,25.479z"/>
	<path fill="#FFFFFF" d="M21.097,21.632c-0.342,0.229-0.44,0.803,0.109,0.831C21.842,22.499,21.75,21.6,21.097,21.632z"/>
	<path fill="#FFFFFF" d="M21.139,29.282c-0.202,0.196-0.104,0.57,0.231,0.414C21.559,29.438,21.435,29.275,21.139,29.282z"/>
	<path fill="#FFFFFF" d="M21.33,27.897c0.259-0.289,0.188-0.479-0.213-0.521C20.808,27.632,21.004,27.861,21.33,27.897z"/>
	<path fill="#FFFFFF" d="M20.077,18.738c-0.636,0.392-0.224,1.328,0.485,0.979C21.257,19.374,20.624,18.708,20.077,18.738z"/>
	<path fill="#FFFFFF" d="M2.964,13.425c-0.354,0.35,0.145,0.76,0.344,0.405C3.466,13.541,3.235,13.416,2.964,13.425z"/>
	<path fill="#FFFFFF" d="M12.52,14.935c-0.785,0.339-0.529,1.487,0.358,1.197C13.517,15.926,13.39,14.895,12.52,14.935z"/>
	<path fill="#FFFFFF" d="M27.254,11.026c0-0.309-0.063-0.426-0.425-0.413C26.439,10.992,26.872,11.349,27.254,11.026z"/>
	<path fill="#FFFFFF" d="M27.167,7.306c0.16-0.248-0.062-0.377-0.296-0.373C26.585,7.261,26.971,7.608,27.167,7.306z"/>
	<path fill="#FFFFFF" d="M27.95,12.091c0.423-0.033,0.246-0.516-0.123-0.547C27.64,11.734,27.526,12.126,27.95,12.091z"/>
	<path fill="#FFFFFF" d="M27.104,5.507c0.187-0.257,0.063-0.42-0.233-0.414C26.671,5.288,26.771,5.666,27.104,5.507z"/>
	<path fill="#FFFFFF" d="M26.149,4.575c0.188-0.256,0.061-0.419-0.232-0.413C25.716,4.358,25.815,4.739,26.149,4.575z"/>
	<path fill="#FFFFFF" d="M3.941,25.562c-0.231,0.277-0.09,0.413,0.23,0.413C4.361,25.718,4.236,25.554,3.941,25.562z"/>
	<path fill="#FFFFFF" d="M25.256,5.446c0.16-0.249-0.062-0.379-0.295-0.374C24.653,5.421,25.06,5.748,25.256,5.446z"/>
	<path fill="#FFFFFF" d="M28.018,10.22c0.246-0.272,0.204-0.477-0.19-0.519C27.575,9.983,27.637,10.187,28.018,10.22z"/>
	<path fill="#FFFFFF" d="M25.363,9.166c0-0.313-0.085-0.446-0.445-0.434C24.506,9.136,24.929,9.546,25.363,9.166z"/>
	<path fill="#FFFFFF" d="M26.2,6.392c0.188-0.25-0.044-0.396-0.283-0.389C25.645,6.312,25.987,6.679,26.2,6.392z"/>
	<path fill="#FFFFFF" d="M26.129,10.241c0.317-0.271,0.188-0.544-0.212-0.579C25.566,9.91,25.672,10.278,26.129,10.241z"/>
	<path fill="#FFFFFF" d="M26.171,8.339c0.225-0.289,0.085-0.508-0.273-0.496C25.676,8.093,25.741,8.541,26.171,8.339z"/>
	<path fill="#FFFFFF" d="M28.06,6.438c0.187-0.257,0.063-0.421-0.232-0.414C27.628,6.218,27.729,6.601,28.06,6.438z"/>
	<path fill="#FFFFFF" d="M3.899,16.195c-0.215,0.279-0.024,0.787,0.335,0.497C4.584,16.411,4.165,16.187,3.899,16.195z"/>
	<path fill="#FFFFFF" d="M29.971,10.158c0.187-0.257,0.063-0.42-0.233-0.413C29.536,9.94,29.636,10.318,29.971,10.158z"/>
	<path fill="#FFFFFF" d="M3.921,19.938c-0.325,0.371,0.151,0.739,0.342,0.401C4.422,20.054,4.189,19.929,3.921,19.938z"/>
	<path fill="#FFFFFF" d="M30.033,11.958c0.159-0.248-0.063-0.378-0.296-0.373C29.451,11.911,29.837,12.261,30.033,11.958z"/>
	<path fill="#FFFFFF" d="M3.941,21.798c-0.246,0.28-0.152,0.48,0.189,0.52C4.385,22.039,4.344,21.842,3.941,21.798z"/>
	<path fill="#FFFFFF" d="M3.961,23.68c-0.247,0.278-0.188,0.451,0.192,0.451C4.328,23.907,4.308,23.675,3.961,23.68z"/>
	<path fill="#FFFFFF" d="M29.971,8.298c0.188-0.26,0.068-0.404-0.233-0.393C29.474,8.162,29.676,8.298,29.971,8.298z"/>
	<path fill="#FFFFFF" d="M28.762,12.494c-0.314,0.357,0.023,0.723,0.356,0.354C29.15,12.571,29.077,12.484,28.762,12.494z"/>
	<path fill="#FFFFFF" d="M25.194,11.212c0.382-0.287,0.198-0.601-0.233-0.66C24.514,10.813,24.699,11.212,25.194,11.212z"/>
	<path fill="#FFFFFF" d="M29.106,10.986c0.084-0.269-0.127-0.339-0.366-0.331C28.363,11.021,28.987,11.366,29.106,10.986z"/>
	<path fill="#FFFFFF" d="M29.037,9.228c0.174-0.24,0.071-0.438-0.231-0.434C28.596,9.031,28.657,9.362,29.037,9.228z"/>
	<path fill="#FFFFFF" d="M28.122,8.237c0.161-0.249-0.063-0.378-0.295-0.374C27.54,8.189,27.926,8.539,28.122,8.237z"/>
	<path fill="#FFFFFF" d="M29.016,7.367c0.187-0.256,0.062-0.42-0.233-0.413C28.583,7.148,28.684,7.532,29.016,7.367z"/>
	<path fill="#FFFFFF" d="M25.279,7.317c0.163-0.288-0.07-0.414-0.34-0.405C24.503,7.276,25.083,7.666,25.279,7.317z"/>
	<path fill="#FFFFFF" d="M22.059,17.903c0.777,0.104,0.835-1.032,0.015-1.005C21.662,17.076,21.476,17.821,22.059,17.903z"/>
	<path fill="#FFFFFF" d="M19.228,12.185c-0.877,0.34-0.465,1.386,0.299,1.137C20.127,13.126,19.981,12.156,19.228,12.185z"/>
	<path fill="#FFFFFF" d="M23.028,14.148c-0.555,0.273-0.394,1.104,0.266,0.896C23.885,14.862,23.581,14.127,23.028,14.148z"/>
	<path fill="#FFFFFF" d="M19.61,15.183c0.626-0.295,0.381-1.203-0.509-1.158C18.385,14.455,18.772,15.578,19.61,15.183z"/>
	<path fill="#FFFFFF" d="M22.03,13.197c-0.665,0.377-0.264,1.222,0.341,0.951C22.908,13.976,22.775,13.155,22.03,13.197z"/>
	<path fill="#FFFFFF" d="M21.075,15.927c-0.714,0.39-0.373,1.323,0.361,1.074C22.004,16.81,21.877,15.884,21.075,15.927z"/>
	<path fill="#FFFFFF" d="M18.591,14.293c0.641-0.182,0.534-1.262-0.358-1.22C17.386,13.438,17.701,14.547,18.591,14.293z"/>
	<path fill="#FFFFFF" d="M15.041,14.153c0.547-0.513-0.159-1.106-0.718-1.08C13.456,13.707,14.319,14.83,15.041,14.153z"/>
	<path fill="#FFFFFF" d="M17.211,12.163c-0.766,0.442-0.365,1.513,0.471,1.179C18.318,13.086,18.127,12.118,17.211,12.163z"/>
	<path fill="#FFFFFF" d="M13.122,14.109c0.478-0.485-0.178-1.021-0.688-0.995C11.587,13.713,12.48,14.766,13.122,14.109z"/>
	<path fill="#FFFFFF" d="M13.39,12.185c-0.688,0.415-0.309,1.51,0.485,1.137C14.497,13.03,14.269,12.14,13.39,12.185z"/>
	<path fill="#FFFFFF" d="M16.276,11.255c-0.729,0.418-0.396,1.426,0.404,1.157C17.313,12.2,17.185,11.208,16.276,11.255z"/>
	<path fill="#FFFFFF" d="M15.661,13.383c0.707-0.158,0.646-1.275-0.273-1.237C14.573,12.493,14.812,13.577,15.661,13.383z"/>
	<path fill="#FFFFFF" d="M24.365,12.107c0.348-0.365-0.028-0.688-0.424-0.667C23.482,11.845,23.966,12.528,24.365,12.107z"/>
	<path fill="#FFFFFF" d="M24.238,8.401c0.359-0.305,0.149-0.6-0.275-0.6C23.651,8.149,23.782,8.401,24.238,8.401z"/>
	<path fill="#FFFFFF" d="M24.26,10.282c0.473-0.211,0.104-0.689-0.299-0.662C23.586,9.876,23.803,10.552,24.26,10.282z"/>
	<path fill="#FFFFFF" d="M24.196,2.736c0.343-0.164,0.04-0.409-0.19-0.435C23.778,2.524,23.872,2.739,24.196,2.736z"/>
	<path fill="#FFFFFF" d="M24.345,6.375c0.023-0.297-0.016-0.403-0.361-0.393C23.606,6.412,24.179,6.733,24.345,6.375z"/>
	<path fill="#FFFFFF" d="M24.006,4.142c-0.285,0.326,0.103,0.676,0.297,0.373C24.462,4.267,24.24,4.138,24.006,4.142z"/>
	<path fill="#FFFFFF" d="M24.281,14.065c0.438-0.383,0.188-0.814-0.361-0.785C23.511,13.588,23.742,14.365,24.281,14.065z"/>
	<path fill="#FFFFFF" d="M23.326,9.372c0.29-0.361,0.188-0.719-0.341-0.683C22.464,8.945,22.938,9.372,23.326,9.372z"/>
	<path fill="#FFFFFF" d="M23.347,13.177c0.459-0.461,0.166-0.814-0.402-0.848C22.485,12.789,22.745,13.177,23.347,13.177z"/>
	<path fill="#FFFFFF" d="M23.304,11.275c0.477-0.209,0.199-0.804-0.257-0.786C22.483,10.601,22.725,11.448,23.304,11.275z"/>
	<path fill="#FFFFFF" d="M23.304,7.47c0.264-0.33,0.148-0.602-0.299-0.602C22.638,7.229,22.881,7.47,23.304,7.47z"/>
	<path fill="#FFFFFF" d="M23.07,3.212c-0.289,0.209-0.167,0.438,0.171,0.478C23.524,3.501,23.385,3.212,23.07,3.212z"/>
	<path fill="#FFFFFF" d="M23.028,5.052c-0.329,0.371,0.152,0.739,0.342,0.404C23.531,5.169,23.298,5.042,23.028,5.052z"/>
	<path fill="#FFFFFF" d="M23.241,1.785c0.266,0,0.092-0.385-0.233-0.372C22.778,1.636,22.992,1.791,23.241,1.785z"/>
	<path fill="#FFFFFF" d="M27.19,9.177c0.162-0.287-0.07-0.414-0.341-0.401C26.521,9.146,27.003,9.513,27.19,9.177z"/>
	<path fill="#FFFFFF" d="M17.338,31.143c-0.158,0.104-0.149,0.273-0.059,0.362c0.097-0.008,0.195-0.005,0.292-0.015
		C17.695,31.287,17.607,31.139,17.338,31.143z"/>
	<path fill="#FFFFFF" d="M22.003,30.394c0.1-0.039,0.195-0.074,0.292-0.115c-0.047-0.027-0.104-0.046-0.198-0.045
		C22.032,30.294,22.01,30.347,22.003,30.394z"/>
	<path fill="#FFFFFF" d="M15.407,31.164c-0.233,0.229-0.036,0.388,0.224,0.395c0.006,0,0.009,0,0.012,0
		C15.821,31.306,15.693,31.156,15.407,31.164z"/>
	<path fill="#FFFFFF" d="M6.808,28.372c-0.119,0.059-0.142,0.129-0.126,0.198c0.096,0.069,0.186,0.146,0.281,0.213
		c0.007,0,0.011,0.003,0.016,0.003C7.188,28.786,7.151,28.363,6.808,28.372z"/>
	<path fill="#FFFFFF" d="M31.883,15.74c0.188-0.257,0.063-0.42-0.231-0.414C31.447,15.522,31.549,15.903,31.883,15.74z"/>
	<path fill="#FFFFFF" d="M13.538,31.164c-0.074,0.072-0.099,0.133-0.104,0.188c0.12,0.02,0.238,0.038,0.359,0.055
		C13.85,31.256,13.765,31.16,13.538,31.164z"/>
	<path fill="#FFFFFF" d="M30.928,16.67c0.181-0.25,0.062-0.434-0.234-0.434C30.477,16.447,30.563,16.848,30.928,16.67z"/>
	<path fill="#FFFFFF" d="M3.007,24.63c-0.063,0.032-0.102,0.066-0.128,0.104c0.073,0.104,0.153,0.203,0.229,0.306
		c0.03,0.006,0.061,0.009,0.091,0.008C3.414,25.044,3.311,24.626,3.007,24.63z"/>
	<path fill="#FFFFFF" d="M30.885,11.109c0.322-0.161,0.063-0.44-0.191-0.435C30.465,10.897,30.562,11.112,30.885,11.109z"/>
	<path fill="#FFFFFF" d="M30.693,14.396c-0.203,0.193-0.104,0.568,0.234,0.414C31.111,14.554,30.989,14.39,30.693,14.396z"/>
	<path fill="#FFFFFF" d="M30.693,12.536c-0.2,0.194-0.104,0.576,0.234,0.413C31.111,12.692,30.989,12.529,30.693,12.536z"/>
	<path fill="#FFFFFF" d="M30.693,19.979c-0.203,0.193-0.104,0.567,0.234,0.413C31.111,20.136,30.989,19.972,30.693,19.979z"/>
	<path fill="#FFFFFF" d="M30.693,18.118c-0.2,0.194-0.104,0.575,0.234,0.413C31.111,18.274,30.989,18.111,30.693,18.118z"/>
	<path fill="#FFFFFF" d="M0.276,12.595c-0.022,0.116-0.036,0.238-0.055,0.358c0.021-0.002,0.025,0.008,0.052,0.002
		C0.553,12.889,0.452,12.676,0.276,12.595z"/>
	<path fill="#FFFFFF" d="M7.021,2.695C7.141,2.53,7.122,2.4,6.998,2.341C6.905,2.404,6.819,2.478,6.728,2.542
		C6.762,2.632,6.871,2.695,7.021,2.695z"/>
	<path fill="#FFFFFF" d="M30.647,9.171c-0.013-0.027-0.028-0.055-0.041-0.082C30.61,9.12,30.622,9.148,30.647,9.171z"/>
	<path fill="#FFFFFF" d="M31.84,13.9c0.023-0.012,0.037-0.024,0.058-0.036c-0.011-0.101-0.033-0.198-0.046-0.298
		c-0.068-0.042-0.15-0.072-0.224-0.08C31.401,13.706,31.551,13.903,31.84,13.9z"/>
	<path fill="#FFFFFF" d="M31.84,17.621c0.002-0.001,0.002-0.002,0.007-0.003c0.014-0.11,0.035-0.217,0.05-0.328
		c-0.067-0.059-0.154-0.104-0.245-0.102C31.421,17.41,31.516,17.624,31.84,17.621z"/>
	<path fill="#FFFFFF" d="M31.531,19.313c0.014-0.063,0.031-0.118,0.045-0.181C31.518,19.21,31.506,19.269,31.531,19.313z"/>
	<path fill="#FFFFFF" d="M1.097,20.93c-0.07,0.031-0.106,0.072-0.126,0.114c0.023,0.072,0.051,0.146,0.076,0.219
		c0.063,0.046,0.136,0.078,0.22,0.077C1.583,21.186,1.354,20.923,1.097,20.93z"/>
	<path fill="#FFFFFF" d="M0.178,16.662c0.315,0.062,0.38-0.409-0.036-0.405c-0.054,0.025-0.088,0.063-0.113,0.1
		c0.004,0.081,0.007,0.161,0.012,0.239C0.071,16.627,0.117,16.651,0.178,16.662z"/>
	<path fill="#FFFFFF" d="M0.214,18.149c0.021,0.132,0.036,0.266,0.063,0.396c0.013,0.001,0.021,0.007,0.036,0.007
		C0.479,18.325,0.472,18.174,0.214,18.149z"/>
	<path fill="#FFFFFF" d="M0.119,14.396c-0.044,0.043-0.06,0.081-0.078,0.119c-0.004,0.059-0.005,0.116-0.009,0.178
		c0.05,0.073,0.164,0.117,0.3,0.117C0.521,14.566,0.441,14.389,0.119,14.396z"/>
	<path fill="#FFFFFF" d="M3.194,6.416c0.239-0.149,0.12-0.294-0.055-0.348c-0.074,0.099-0.15,0.194-0.224,0.296
		C2.956,6.457,3.051,6.507,3.194,6.416z"/>
	<path fill="#FFFFFF" d="M1.309,12.02c0.187-0.257,0.061-0.42-0.233-0.414C0.874,11.8,0.976,12.182,1.309,12.02z"/>
	<path fill="#FFFFFF" d="M1.309,10.158C1.479,9.923,1.4,9.743,1.1,9.745c-0.034,0.086-0.063,0.174-0.099,0.262
		C1.016,10.103,1.107,10.158,1.309,10.158z"/>
	<path fill="#FFFFFF" d="M2.03,12.516C1.743,12.84,2.129,13.19,2.324,12.89C2.487,12.641,2.265,12.511,2.03,12.516z"/>
	<path fill="#FFFFFF" d="M2.03,18.097c-0.287,0.324,0.099,0.676,0.294,0.374C2.487,18.223,2.265,18.092,2.03,18.097z"/>
	<path fill="#FFFFFF" d="M2.264,14.831c0.199-0.251,0.127-0.455-0.233-0.455C1.849,14.583,1.881,15.014,2.264,14.831z"/>
	<path fill="#FFFFFF" d="M2.03,16.236c-0.287,0.327,0.099,0.676,0.294,0.374C2.487,16.362,2.265,16.231,2.03,16.236z"/>
	<path fill="#FFFFFF" d="M2.243,11.109c0.189-0.244,0.116-0.442-0.212-0.435C1.783,10.917,1.92,11.109,2.243,11.109z"/>
	<path fill="#FFFFFF" d="M2.03,21.839c-0.2,0.195-0.099,0.579,0.233,0.413C2.45,21.996,2.325,21.833,2.03,21.839z"/>
	<path fill="#FFFFFF" d="M3.941,18.056c-0.343,0.249-0.181,0.535,0.212,0.535C4.463,18.334,4.301,18.088,3.941,18.056z"/>
	<path fill="#FFFFFF" d="M2.03,19.979c-0.277,0.271-0.117,0.445,0.233,0.435C2.446,20.146,2.381,19.968,2.03,19.979z"/>
	<path fill="#FFFFFF" d="M2.964,17.146C2.6,17.501,3.118,17.88,3.308,17.549C3.466,17.263,3.234,17.136,2.964,17.146z"/>
	<path fill="#FFFFFF" d="M2.986,11.564c-0.305,0.253-0.162,0.479,0.188,0.517C3.426,11.807,3.379,11.607,2.986,11.564z"/>
	<path fill="#FFFFFF" d="M2.964,15.285c-0.323,0.372,0.152,0.739,0.344,0.405C3.467,15.402,3.234,15.277,2.964,15.285z"/>
	<path fill="#FFFFFF" d="M2.986,19.007c-0.305,0.254-0.161,0.479,0.188,0.52C3.423,19.25,3.381,19.049,2.986,19.007z"/>
	<path fill="#FFFFFF" d="M2.986,20.888c-0.287,0.323,0.099,0.676,0.295,0.371C3.442,21.014,3.221,20.884,2.986,20.888z"/>
	<path fill="#FFFFFF" d="M1.075,19.049c-0.201,0.195-0.1,0.575,0.233,0.413C1.495,19.205,1.369,19.041,1.075,19.049z"/>
	<path fill="#FFFFFF" d="M2.986,22.77c-0.199,0.191-0.102,0.579,0.233,0.414C3.405,22.927,3.281,22.763,2.986,22.77z"/>
	<path fill="#FFFFFF" d="M2.264,9.228C2.45,8.972,2.325,8.808,2.03,8.814C1.83,9.009,1.932,9.394,2.264,9.228z"/>
	<path fill="#FFFFFF" d="M3.961,5.093c-0.23,0.229-0.14,0.414,0.192,0.414C4.331,5.277,4.287,5.089,3.961,5.093z"/>
	<path fill="#FFFFFF" d="M3.941,6.954C3.742,7.148,3.84,7.532,4.172,7.367C4.361,7.11,4.236,6.947,3.941,6.954z"/>
	<path fill="#FFFFFF" d="M1.075,13.466c-0.199,0.195-0.102,0.578,0.233,0.414C1.495,13.623,1.369,13.459,1.075,13.466z"/>
	<path fill="#FFFFFF" d="M1.075,15.326c-0.201,0.195-0.1,0.577,0.233,0.414C1.495,15.483,1.369,15.32,1.075,15.326z"/>
	<path fill="#FFFFFF" d="M1.309,17.602c0.187-0.257,0.061-0.421-0.233-0.413C0.877,17.382,0.975,17.765,1.309,17.602z"/>
	<path fill="#FFFFFF" d="M4.153,9.269c0.215-0.271,0.153-0.489-0.232-0.475C3.704,9.089,3.786,9.269,4.153,9.269z"/>
	<path fill="#FFFFFF" d="M3.22,8.298c0.186-0.257,0.062-0.42-0.233-0.414C2.787,8.078,2.886,8.464,3.22,8.298z"/>
	<path fill="#FFFFFF" d="M3.281,10.097C3.441,9.849,3.22,9.72,2.986,9.724C2.697,10.05,3.086,10.399,3.281,10.097z"/>
	<path fill="#FFFFFF" d="M30.591,22.093c0.035-0.075,0.077-0.149,0.11-0.229c-0.012,0-0.017-0.003-0.029-0.003
		C30.582,21.948,30.57,22.026,30.591,22.093z"/>
	<path fill="#FFFFFF" d="M3.899,14.334c-0.306,0.398,0.037,0.744,0.425,0.414C4.323,14.439,4.261,14.322,3.899,14.334z"/>
	<path fill="#FFFFFF" d="M4.261,11.038c0.159-0.288-0.071-0.414-0.342-0.404C3.594,11.005,4.072,11.373,4.261,11.038z"/>
	<path fill="#FFFFFF" d="M3.941,12.474c-0.338,0.241-0.175,0.535,0.212,0.535C4.463,12.752,4.299,12.506,3.941,12.474z"/>
	<path fill="#FFFFFF" d="M11.861,9.455c0.456-0.366,0.235-0.854-0.341-0.827C11.068,9.03,11.294,9.423,11.861,9.455z"/>
	<path fill="#FFFFFF" d="M16.457,4.659c0.487,0,0.326-0.541-0.095-0.579C16.108,4.255,16.063,4.659,16.457,4.659z"/>
	<path fill="#FFFFFF" d="M16.596,0.855c0.187-0.257,0.061-0.421-0.233-0.414C16.161,0.638,16.26,1.013,16.596,0.855z"/>
	<path fill="#FFFFFF" d="M16.362,2.261c-0.304,0.252-0.161,0.479,0.191,0.519C16.801,2.503,16.756,2.304,16.362,2.261z"/>
	<path fill="#FFFFFF" d="M20.46,8.464c0.53-0.221,0.098-0.765-0.315-0.744C19.717,8.007,19.948,8.765,20.46,8.464z"/>
	<path fill="#FFFFFF" d="M17.551,5.63c0.319-0.35,0.188-0.604-0.255-0.641C16.882,5.298,17.135,5.599,17.551,5.63z"/>
	<path fill="#FFFFFF" d="M15.813,9.429c0.467-0.348,0.034-0.875-0.427-0.862C14.67,8.923,15.222,9.865,15.813,9.429z"/>
	<path fill="#FFFFFF" d="M15.787,7.47c0.395-0.379-0.1-0.66-0.441-0.685c-0.194,0.206-0.218,0.28-0.234,0.562
		C15.283,7.517,15.554,7.696,15.787,7.47z"/>
	<path fill="#FFFFFF" d="M16.596,6.603c0.462-0.354,0.164-0.672-0.301-0.703C15.787,6.153,16.233,6.575,16.596,6.603z"/>
	<path fill="#FFFFFF" d="M15.726,3.595c0.161-0.287-0.07-0.414-0.34-0.404C15.031,3.591,15.527,3.948,15.726,3.595z"/>
	<path fill="#FFFFFF" d="M17.296,3.191c-0.323,0.372,0.152,0.739,0.344,0.405C17.799,3.308,17.565,3.183,17.296,3.191z"/>
	<path fill="#FFFFFF" d="M15.7,5.584c0.419-0.229-0.039-0.573-0.313-0.594C15.049,5.28,15.221,5.845,15.7,5.584z"/>
	<path fill="#FFFFFF" d="M16.659,8.505c0.181-0.08,0.248-0.268,0.235-0.449c-0.024-0.344-0.28-0.346-0.557-0.379
		C15.824,7.981,16.107,8.826,16.659,8.505z"/>
	<path fill="#FFFFFF" d="M15.661,1.785c0.187-0.252,0.039-0.435-0.254-0.435C15.201,1.583,15.313,2.011,15.661,1.785z"/>
	<path fill="#FFFFFF" d="M17.551,7.554c0.547-0.188,0.19-0.781-0.273-0.768C16.939,7.054,16.988,7.802,17.551,7.554z"/>
	<path fill="#FFFFFF" d="M19.44,5.63c0.377-0.324,0.185-0.619-0.275-0.619C18.891,5.316,19.015,5.652,19.44,5.63z"/>
	<path fill="#FFFFFF" d="M19.547,3.595c0.163-0.287-0.067-0.414-0.34-0.404C18.881,3.563,19.359,3.931,19.547,3.595z"/>
	<path fill="#FFFFFF" d="M19.462,7.532c0.537-0.203,0.138-0.697-0.273-0.725C18.814,7.072,18.909,7.693,19.462,7.532z"/>
	<path fill="#FFFFFF" d="M19.462,1.785c0.188-0.256,0.063-0.42-0.231-0.414C19.028,1.566,19.129,1.949,19.462,1.785z"/>
	<path fill="#FFFFFF" d="M20.346,10.408c0.667-0.134,0.396-0.92-0.229-0.892C19.755,9.791,19.67,10.546,20.346,10.408z"/>
	<path fill="#FFFFFF" d="M19.504,9.476c0.553-0.437,0.166-0.838-0.382-0.867C18.704,9.031,18.882,9.497,19.504,9.476z"/>
	<path fill="#FFFFFF" d="M18.532,10.437c0.661-0.206,0.292-0.985-0.303-0.961C17.643,9.774,17.844,10.651,18.532,10.437z"/>
	<path fill="#FFFFFF" d="M18.507,0.855c0.188-0.257,0.063-0.421-0.231-0.414C18.072,0.636,18.172,1.015,18.507,0.855z"/>
	<path fill="#FFFFFF" d="M18.631,6.495c0.331-0.318-0.063-0.62-0.398-0.596C17.869,6.292,18.207,6.904,18.631,6.495z"/>
	<path fill="#FFFFFF" d="M17.51,1.826c0.26-0.253,0.158-0.465-0.191-0.455C17.021,1.566,17.207,1.828,17.51,1.826z"/>
	<path fill="#FFFFFF" d="M18.658,8.423c0.453-0.341-0.063-0.744-0.449-0.725C17.711,8.095,18.115,8.829,18.658,8.423z"/>
	<path fill="#FFFFFF" d="M18.507,2.757c0.225-0.289,0.093-0.49-0.274-0.476C18.095,2.479,18.136,2.941,18.507,2.757z"/>
	<path fill="#FFFFFF" d="M18.654,4.515c0.029-0.31-0.078-0.426-0.425-0.414C17.906,4.521,18.315,4.901,18.654,4.515z"/>
	<path fill="#FFFFFF" d="M17.657,9.476c0.431-0.512,0.155-0.858-0.446-0.889C16.703,8.997,16.993,9.65,17.657,9.476z"/>
	<path fill="#FFFFFF" d="M11.699,3.699c0.408,0.021,0.238-0.47-0.114-0.508C11.362,3.376,11.344,3.683,11.699,3.699z"/>
	<path fill="#FFFFFF" d="M11.585,5.011c-0.252,0.172-0.233,0.387-0.043,0.602C12.107,5.61,12.13,5.06,11.585,5.011z"/>
	<path fill="#FFFFFF" d="M11.818,1.785c0.187-0.256,0.062-0.42-0.233-0.414C11.385,1.566,11.485,1.95,11.818,1.785z"/>
	<path fill="#FFFFFF" d="M12.773,6.581c0.342-0.372,0.198-0.688-0.297-0.66C12.083,6.259,12.368,6.552,12.773,6.581z"/>
	<path fill="#FFFFFF" d="M12.863,8.47c0.446-0.263,0.101-0.781-0.323-0.771c-0.245,0.166-0.448,0.374-0.223,0.676
		C12.436,8.531,12.691,8.569,12.863,8.47z"/>
	<path fill="#FFFFFF" d="M11.978,7.409c0.323-0.398-0.162-0.563-0.457-0.58C11.098,7.206,11.619,7.853,11.978,7.409z"/>
	<path fill="#FFFFFF" d="M12.863,10.388c0.543-0.313,0.196-0.916-0.365-0.894C11.928,9.837,12.24,10.744,12.863,10.388z"/>
	<path fill="#FFFFFF" d="M10.948,4.526c0.162-0.288-0.07-0.414-0.341-0.404C10.28,4.493,10.762,4.861,10.948,4.526z"/>
	<path fill="#FFFFFF" d="M10.892,2.671c0.189-0.258-0.047-0.375-0.283-0.369C10.42,2.576,10.678,2.958,10.892,2.671z"/>
	<path fill="#FFFFFF" d="M11.051,6.319c0.067-0.311-0.229-0.387-0.484-0.378C10.14,6.493,10.946,6.802,11.051,6.319z"/>
	<path fill="#FFFFFF" d="M11.055,12.195c0.524-0.384-0.045-0.858-0.513-0.837C9.982,11.784,10.426,12.652,11.055,12.195z"/>
	<path fill="#FFFFFF" d="M14.771,10.448c0.559-0.219,0.368-1.016-0.405-0.973C13.811,9.823,14.018,10.726,14.771,10.448z"/>
	<path fill="#FFFFFF" d="M10.587,7.739c-0.371,0.396-0.224,0.725,0.319,0.725C11.255,8.078,11.085,7.772,10.587,7.739z"/>
	<path fill="#FFFFFF" d="M12.005,11.302c0.555-0.401-0.024-0.896-0.505-0.875c-0.246,0.224-0.421,0.431-0.225,0.768
		C11.421,11.442,11.781,11.466,12.005,11.302z"/>
	<path fill="#FFFFFF" d="M14.727,6.581c0.325-0.386,0.131-0.652-0.318-0.682C14.11,6.16,14.17,6.843,14.727,6.581z"/>
	<path fill="#FFFFFF" d="M14.706,4.659c0.291-0.331,0.104-0.572-0.298-0.559C14.01,4.363,14.368,4.659,14.706,4.659z"/>
	<path fill="#FFFFFF" d="M14.533,8.536c0.652,0.031,0.549-0.886-0.104-0.859C14.047,7.898,13.955,8.509,14.533,8.536z"/>
	<path fill="#FFFFFF" d="M13.729,1.785c0.19-0.267,0.079-0.424-0.233-0.414C13.287,1.574,13.36,1.968,13.729,1.785z"/>
	<path fill="#FFFFFF" d="M14.684,0.855c0.187-0.257,0.063-0.421-0.233-0.414C14.25,0.636,14.351,1.015,14.684,0.855z"/>
	<path fill="#FFFFFF" d="M13.835,17.085c0.67-0.219,0.556-1.287-0.399-1.242C12.601,16.253,12.989,17.359,13.835,17.085z"/>
	<path fill="#FFFFFF" d="M13.771,9.476c0.602-0.229,0.218-0.905-0.318-0.889C12.96,8.888,13.111,9.681,13.771,9.476z"/>
	<path fill="#FFFFFF" d="M12.753,0.855c0.188-0.273,0.104-0.38-0.213-0.414C12.284,0.691,12.454,0.828,12.753,0.855z"/>
	<path fill="#FFFFFF" d="M13.815,3.595c0.161-0.287-0.07-0.414-0.341-0.404C13.148,3.563,13.625,3.931,13.815,3.595z"/>
	<path fill="#FFFFFF" d="M12.54,2.281c-0.287,0.327,0.103,0.675,0.295,0.374C12.996,2.407,12.774,2.277,12.54,2.281z"/>
	<path fill="#FFFFFF" d="M12.923,4.515c0-0.312-0.063-0.426-0.425-0.414C12.184,4.496,12.536,4.843,12.923,4.515z"/>
	<path fill="#FFFFFF" d="M13.903,5.4c0.086-0.32-0.193-0.4-0.47-0.39C13.01,5.56,13.774,5.886,13.903,5.4z"/>
	<path fill="#FFFFFF" d="M13.856,7.44c0.388-0.415-0.077-0.613-0.446-0.631C13.06,7.236,13.458,7.866,13.856,7.44z"/>
	<path fill="#FFFFFF" d="M14.642,2.777c0.248-0.274,0.203-0.474-0.191-0.517C14.204,2.541,14.269,2.738,14.642,2.777z"/>
	<path fill="#FFFFFF" d="M17.232,10.365c-0.592,0.344-0.428,1.339,0.383,1.076C18.214,11.244,18.085,10.319,17.232,10.365z"/>
	<path fill="#FFFFFF" d="M16.341,9.455c-0.583,0.293-0.491,1.159,0.261,1.015C17.322,10.329,16.996,9.423,16.341,9.455z"/>
	<path fill="#FFFFFF" d="M15.726,11.44c0.605-0.213,0.45-1.122-0.425-1.076C14.703,10.785,14.945,11.712,15.726,11.44z"/>
	<path fill="#FFFFFF" d="M18.188,11.275c-0.646,0.37-0.464,1.354,0.382,1.116C19.17,12.222,19.076,11.228,18.188,11.275z"/>
	<path fill="#FFFFFF" d="M19.207,10.386c-0.665,0.315-0.432,1.262,0.323,1.006C20.176,11.175,19.779,10.353,19.207,10.386z"/>
	<path fill="#FFFFFF" d="M14.43,11.255c-0.764,0.325-0.525,1.356,0.297,1.157C15.372,12.255,15.293,11.216,14.43,11.255z"/>
	<path fill="#FFFFFF" d="M9.695,15.968c-0.731,0.355-0.256,1.341,0.379,0.903C10.53,16.559,10.19,15.948,9.695,15.968z"/>
	<path fill="#FFFFFF" d="M13.39,10.386c-0.479,0.354-0.365,1.289,0.381,1.051C14.551,11.188,14.037,10.358,13.39,10.386z"/>
	<path fill="#FFFFFF" d="M20.1,11.316c-0.602,0.368-0.333,1.229,0.393,0.977C21.206,12.043,20.684,11.291,20.1,11.316z"/>
	<path fill="#FFFFFF" d="M10.544,13.177c-0.582,0.406-0.194,1.431,0.478,0.986C11.647,13.748,11.11,13.153,10.544,13.177z"/>
	<path fill="#FFFFFF" d="M10.948,16.071c0.578-0.167,0.474-1.104-0.404-1.054C10.027,15.34,10.094,16.318,10.948,16.071z"/>
	<path fill="#FFFFFF" d="M12.498,11.296c-0.59,0.29-0.52,1.278,0.318,1.075C13.412,12.226,13.355,11.249,12.498,11.296z"/>
	<path fill="#FFFFFF" d="M11.926,13.28c0.557-0.207,0.416-1.098-0.383-1.055C10.872,12.556,11.145,13.57,11.926,13.28z"/>
	<path fill="#FFFFFF" d="M12.88,17.974c0.646-0.229,0.512-1.205-0.425-1.158C11.739,17.229,12.065,18.258,12.88,17.974z"/>
	<path fill="#FFFFFF" d="M13.771,18.924c0.675-0.154,0.616-1.24-0.318-1.195C12.711,18.085,12.926,19.122,13.771,18.924z"/>
	<path fill="#FFFFFF" d="M21.35,13.23c0.691-0.179,0.393-1.017-0.253-0.984C20.506,12.533,20.604,13.422,21.35,13.23z"/>
	<path fill="#FFFFFF" d="M11.244,17.643c0.138-0.516-0.112-0.792-0.68-0.769C9.676,17.397,10.73,18.439,11.244,17.643z"/>
	<path fill="#FFFFFF" d="M14.748,19.833c0.639-0.15,0.549-1.215-0.315-1.178C13.662,18.987,13.887,20.043,14.748,19.833z"/>
	<path fill="#FFFFFF" d="M11.563,14.045c-0.672,0.293-0.552,1.354,0.316,1.14C12.505,15.028,12.421,14.003,11.563,14.045z"/>
	<path fill="#FFFFFF" d="M11.897,17.013c0.817-0.214,0.321-1.146-0.377-1.107C10.89,16.276,11.085,17.22,11.897,17.013z"/>
	<path fill="#FFFFFF" d="M16.003,18.776c0.502-0.504-0.147-1.102-0.7-1.071C14.359,18.328,15.32,19.463,16.003,18.776z"/>
	<path fill="#FFFFFF" d="M17.02,17.022c0.764,0.452,1.305-0.559,0.876-0.992c0.147,0.16,0.396,0.236,0.718,0.124
		c0.682-0.24,0.513-1.287-0.447-1.241c-0.481,0.278-0.536,0.812-0.293,1.097c-0.147-0.136-0.4-0.209-0.789-0.146
		c0.041-0.198,0.063-0.47-0.021-0.662c0.583,0.174,1.299-0.344,0.914-0.948c-0.499-0.781-1.4-0.021-1.168,0.7
		c-0.19-0.078-0.482-0.078-0.682-0.021c0.042-0.202,0.063-0.494-0.043-0.685c1.063,0.489,1.412-1.255,0.212-1.199
		c-0.403,0.207-0.625,0.588-0.4,1.016c-0.624-0.369-1.293,0.293-0.979,0.91c-0.37-0.181-0.631-0.111-0.792,0.057
		c0.333-0.382,0.053-1.067-0.733-1.029c-0.81,0.479-0.318,1.563,0.509,1.199c0.071-0.031,0.126-0.073,0.177-0.118
		c-0.341,0.462-0.057,1.473,0.843,1.028c-0.109,0.189-0.098,0.53,0,0.724c-0.576-0.215-1.386,0.387-0.904,0.961
		c0.539,0.647,1.485-0.084,1.098-0.772c0.204,0.119,0.555,0.121,0.765,0.021C15.204,18.413,17.782,18.214,17.02,17.022z
		 M15.831,15.864c-0.196-0.055-0.489-0.058-0.68,0.021c0.082-0.186,0.083-0.493,0-0.683c0.188,0.078,0.484,0.077,0.68,0.021
		C15.831,15.438,15.831,15.651,15.831,15.864z M16.107,16.815c0.08-0.188,0.08-0.475,0.021-0.661c0.222,0,0.438,0,0.658,0
		c-0.045,0.206-0.054,0.485,0.043,0.683C16.623,16.74,16.321,16.753,16.107,16.815z"/>
	<path fill="#FFFFFF" d="M19.546,17.063c0.649-0.215,0.511-1.243-0.399-1.199C18.366,16.289,18.707,17.343,19.546,17.063z"/>
	<path fill="#FFFFFF" d="M20.077,13.136c-0.628,0.382-0.372,1.319,0.416,1.075C21.29,13.963,20.731,13.101,20.077,13.136z"/>
	<path fill="#FFFFFF" d="M20.705,15.991c0.521-0.468-0.123-1.043-0.646-1.016C19.253,15.543,20.043,16.589,20.705,15.991z"/>
	<path fill="#FFFFFF" d="M18.549,18.015c0.688-0.166,0.619-1.286-0.34-1.241C17.433,17.141,17.652,18.231,18.549,18.015z"/>
	<path fill="#FFFFFF" d="M17.699,18.903c0.612-0.292,0.42-1.24-0.445-1.198C16.396,18.122,16.873,19.298,17.699,18.903z"/>
	<path fill="#FFFFFF" d="M19.504,20.702c0.579-0.156,0.496-1.084-0.382-1.033C18.632,19.978,18.667,20.927,19.504,20.702z"/>
	<path fill="#FFFFFF" d="M22.307,6.54c0.316-0.275,0.204-0.564-0.213-0.6C21.737,6.194,21.861,6.54,22.307,6.54z"/>
	<path fill="#FFFFFF" d="M21.479,3.542c0.032-0.277-0.091-0.342-0.382-0.33C20.774,3.528,21.17,3.886,21.479,3.542z"/>
	<path fill="#FFFFFF" d="M22.392,12.246c0.633-0.267,0.105-0.891-0.386-0.868c-0.235,0.194-0.359,0.338-0.229,0.658
		C21.885,12.294,22.141,12.384,22.392,12.246z"/>
	<path fill="#FFFFFF" d="M21.373,1.785c0.188-0.256,0.063-0.42-0.231-0.414C20.938,1.567,21.039,1.948,21.373,1.785z"/>
	<path fill="#FFFFFF" d="M22.186,8.449c0.541,0.041,0.454-0.729-0.133-0.688C21.762,7.983,21.736,8.416,22.186,8.449z"/>
	<path fill="#FFFFFF" d="M22.519,10.194c0.235-0.344-0.11-0.657-0.466-0.635C21.409,9.988,22.146,10.729,22.519,10.194z"/>
	<path fill="#FFFFFF" d="M21.394,5.589c0.244-0.332,0.121-0.572-0.297-0.558C20.694,5.29,21.06,5.589,21.394,5.589z"/>
	<path fill="#FFFFFF" d="M20.479,2.655c0.16-0.248-0.063-0.378-0.296-0.374C19.895,2.607,20.283,2.956,20.479,2.655z"/>
	<path fill="#FFFFFF" d="M20.544,4.515c0-0.334-0.052-0.407-0.424-0.396C19.848,4.521,20.169,4.827,20.544,4.515z"/>
	<path fill="#FFFFFF" d="M20.417,0.855c0.188-0.257,0.063-0.421-0.231-0.414C20.058,0.624,20.039,1.035,20.417,0.855z"/>
	<path fill="#FFFFFF" d="M21.213,7.501c0.539,0.035,0.438-0.631-0.071-0.672C20.822,7.015,20.772,7.474,21.213,7.501z"/>
	<path fill="#FFFFFF" d="M21.437,9.413c0.273-0.331,0.26-0.806-0.298-0.785C20.636,8.914,20.876,9.691,21.437,9.413z"/>
	<path fill="#FFFFFF" d="M21.415,11.337c0.299-0.123,0.255-0.359,0.255-0.621c-0.11-0.276-0.356-0.254-0.613-0.269
		C20.476,10.841,20.825,11.337,21.415,11.337z"/>
	<path fill="#FFFFFF" d="M17.636,20.723c0.601-0.204,0.45-1.145-0.428-1.099C16.605,20.052,16.815,21.001,17.636,20.723z"/>
	<path fill="#FFFFFF" d="M14.771,21.612c0.559-0.214,0.414-1.063-0.405-1.014C13.822,20.939,13.997,21.906,14.771,21.612z"/>
	<path fill="#FFFFFF" d="M11.928,18.822c0.777-0.26,0.192-1.069-0.431-1.035C10.937,18.194,11.148,19.083,11.928,18.822z"/>
	<path fill="#FFFFFF" d="M16.681,19.833c0.646-0.222,0.517-1.224-0.404-1.178C15.532,19.082,15.874,20.11,16.681,19.833z"/>
	<path fill="#FFFFFF" d="M15.745,20.723c0.614-0.236,0.428-1.145-0.445-1.099C14.688,19.994,14.921,21.041,15.745,20.723z"/>
	<path fill="#FFFFFF" d="M22.307,4.638c0.376-0.188,0.045-0.494-0.213-0.519C21.763,4.361,21.95,4.606,22.307,4.638z"/>
	<path fill="#FFFFFF" d="M13.815,20.686c0.78-0.24,0.231-1.072-0.404-1.038C12.809,20.021,13.064,20.918,13.815,20.686z"/>
	<path fill="#FFFFFF" d="M12.859,19.793c0.582-0.188,0.467-1.135-0.34-1.096C11.824,19.019,12.032,20.058,12.859,19.793z"/>
	<path fill="#FFFFFF" d="M21.032,14.086c-0.354,0.278-0.545,0.73-0.063,1.034c0.238,0.063,0.52,0.03,0.682-0.173
		C22.014,14.492,21.504,14.062,21.032,14.086z"/>
	<path fill="#FFFFFF" d="M22.328,2.716c0.188-0.256,0.063-0.42-0.231-0.414C21.896,2.496,21.992,2.88,22.328,2.716z"/>
	<path fill="#FFFFFF" d="M20.488,17.926c0.807-0.256,0.261-1.126-0.411-1.089C19.443,17.212,19.695,18.177,20.488,17.926z"/>
	<path fill="#FFFFFF" d="M20.438,6.562c0.333-0.328,0.146-0.607-0.297-0.641C19.773,6.28,19.983,6.531,20.438,6.562z"/>
	<path fill="#FFFFFF" d="M18.591,19.813c0.615-0.205,0.479-1.186-0.399-1.141C17.466,19.086,17.788,20.08,18.591,19.813z"/>
	<path fill="#FFFFFF" d="M19.165,17.745c-0.713,0.347-0.511,1.357,0.318,1.158C20.133,18.747,20.071,17.7,19.165,17.745z"/>
</g>
</svg>
