<?xml version="1.0" encoding="utf-8"?>
<!-- Generator: Adobe Illustrator 15.0.2, SVG Export Plug-In . SVG Version: 6.00 Build 0)  -->
<!DOCTYPE svg PUBLIC "-//W3C//DTD SVG 1.1//EN" "http://www.w3.org/Graphics/SVG/1.1/DTD/svg11.dtd">
<svg version="1.1" id="Layer_1" xmlns="http://www.w3.org/2000/svg" xmlns:xlink="http://www.w3.org/1999/xlink" x="0px" y="0px"
	 width="32px" height="32px" viewBox="0 0 32 32" enable-background="new 0 0 32 32" xml:space="preserve">
<g id="Layer_1_1_">
	<g id="Foreground1">
	</g>
</g>
<g id="Layer_2">
</g>
<g>
	<path fill="#FFFFFF" d="M32,0h-3.063c0,1.176,0,2.352,0,3.919c1.188,0,2.152,0.144,3.063,0.401V0z"/>
	<path fill="#FFFFFF" d="M28.938,12.084c0-3.329,0-5.025,0-8.165c-3.14,0-4.709,0.993-7.85,2.481c0,3.14,0,4.772,0,8.006
		C24.229,13.013,25.798,12.084,28.938,12.084z"/>
	<path fill="#FFFFFF" d="M5.387,30.92c1.542,0.445,2.705,0.816,3.862,1.08h3.989c0-2.85,0-4.432,0-7.418
		c-3.14,0-4.711-0.688-7.851-1.716C5.387,26.007,5.387,27.658,5.387,30.92z"/>
	<path fill="#FFFFFF" d="M21.088,0h-3.063c-1.491,0.647-2.836,1.032-4.789,1.032c0,3.14,0,4.71,0,7.85
		c3.14,0,4.708-0.993,7.85-2.481C21.088,3.786,21.088,2.25,21.088,0z"/>
	<path fill="#FFFFFF" d="M0,13.183v8.149c1.744,0.266,3.182,0.813,5.387,1.534c0-3.14,0-4.774,0-8.008
		C3.182,14.069,1.744,13.472,0,13.183z"/>
	<path fill="#FFFFFF" d="M0,0v5.034c1.744,0.314,3.182,0.962,5.387,1.817c0-2.787,0-4.343,0-6.852L0,0L0,0z"/>
	<path fill="#FFFFFF" d="M7.945,0c1.702,0.639,3.128,1.032,5.292,1.032c0-0.365,0-0.705,0-1.032H7.945z"/>
	<path fill="#FFFFFF" d="M32,20.602V12.46c-0.909-0.242-1.873-0.376-3.063-0.376c0,3.329,0,5.025,0,8.166
		C30.127,20.25,31.091,20.375,32,20.602z"/>
	<path fill="#FFFFFF" d="M0,32h5.387c0-0.343,0-0.698,0-1.08C3.182,30.283,1.744,29.801,0,29.566V32z"/>
	<path fill="#FFFFFF" d="M13.238,16.73c0,3.141,0,4.711,0,7.852c3.14,0,4.709-0.867,7.85-2.167c0-3.14,0-4.774,0-8.008
		C17.947,15.801,16.378,16.73,13.238,16.73z"/>
	<path fill="#FFFFFF" d="M21.088,22.415c0,3.142,0,4.792,0,8.054c3.141-1.178,4.71-1.963,7.85-1.963c0-3.384,0-5.115,0-8.256
		C25.798,20.25,24.229,21.115,21.088,22.415z"/>
	<path fill="#FFFFFF" d="M21.088,32c0-0.479,0-0.977,0-1.531c-1.756,0.658-3.021,1.188-4.345,1.531H21.088z"/>
	<path fill="#FFFFFF" d="M13.238,8.882c-3.14,0-4.711-0.812-7.851-2.03c0,3.14,0,4.772,0,8.006c3.14,1.123,4.711,1.875,7.851,1.875
		C13.238,13.592,13.238,12.021,13.238,8.882z"/>
	<path fill="#FFFFFF" d="M28.938,28.506c0,1.368,0,2.465,0,3.494H32v-3.177C31.091,28.619,30.127,28.506,28.938,28.506z"/>
</g>
</svg>
