<?xml version="1.0" encoding="utf-8"?>
<!-- Generator: Adobe Illustrator 15.0.2, SVG Export Plug-In . SVG Version: 6.00 Build 0)  -->
<!DOCTYPE svg PUBLIC "-//W3C//DTD SVG 1.1//EN" "http://www.w3.org/Graphics/SVG/1.1/DTD/svg11.dtd">
<svg version="1.1" id="Layer_1" xmlns="http://www.w3.org/2000/svg" xmlns:xlink="http://www.w3.org/1999/xlink" x="0px" y="0px"
	 width="32px" height="32px" viewBox="0 0 32 32" enable-background="new 0 0 32 32" xml:space="preserve">
<g id="Foreground1">
</g>
<path fill="#FFFFFF" d="M31.951,14.749c0.031,0.415,0.047,0.833,0.047,1.255c0,0.42-0.016,0.836-0.047,1.247l-2.795,0.256
	c-0.016,0.121-0.031,0.244-0.049,0.365l2.643,0.959c-0.148,0.834-0.363,1.646-0.635,2.432l-2.773-0.467
	c-0.063,0.162-0.129,0.322-0.199,0.48l2.301,1.621c-0.361,0.758-0.781,1.479-1.254,2.164l-2.563-1.184
	c-0.078,0.105-0.16,0.207-0.24,0.311l1.814,2.164c-0.545,0.643-1.139,1.238-1.775,1.785l-2.186-1.811
	c-0.107,0.086-0.217,0.17-0.326,0.252l1.189,2.58c-0.686,0.475-1.406,0.896-2.164,1.264l-1.646-2.332
	c-0.127,0.055-0.256,0.105-0.383,0.158l0.486,2.82c-0.779,0.275-1.588,0.498-2.416,0.652l-0.994-2.695
	c-0.188,0.027-0.375,0.053-0.563,0.068l-0.279,2.865C16.764,31.986,16.383,32,16,32c-0.458,0-0.911-0.021-1.359-0.059l-0.241-2.885
	c-0.142-0.02-0.278-0.039-0.417-0.063l-1.021,2.715c-0.828-0.16-1.634-0.383-2.411-0.664l0.52-2.873
	c-0.096-0.039-0.188-0.076-0.28-0.117l-1.682,2.385c-0.759-0.361-1.48-0.781-2.165-1.254l1.229-2.66
	c-0.079-0.061-0.156-0.121-0.232-0.184L5.691,28.23c-0.638-0.535-1.23-1.121-1.775-1.75l1.873-2.27
	c-0.104-0.131-0.204-0.262-0.303-0.395l-2.677,1.232c-0.472-0.686-0.891-1.408-1.253-2.166l2.415-1.701
	c-0.035-0.084-0.066-0.168-0.103-0.252l-2.916,0.514c-0.28-0.775-0.502-1.578-0.661-2.404l2.772-1.031
	c-0.025-0.164-0.051-0.33-0.067-0.498l-2.947-0.27c-0.03-0.41-0.048-0.824-0.048-1.242c0-0.42,0.018-0.837,0.049-1.249l2.946-0.271
	c0.016-0.135,0.034-0.269,0.053-0.4l-2.774-1.021c0.151-0.825,0.369-1.63,0.646-2.407l2.91,0.502
	c0.058-0.145,0.117-0.287,0.179-0.43L1.612,9.004C1.979,8.25,2.404,7.529,2.88,6.847l2.662,1.252
	c0.079-0.105,0.162-0.211,0.245-0.313L3.922,5.512C4.47,4.881,5.069,4.294,5.707,3.756l2.235,1.892
	c0.076-0.062,0.152-0.121,0.231-0.182L6.946,2.81c0.686-0.472,1.409-0.892,2.166-1.252l1.679,2.377
	c0.123-0.055,0.247-0.104,0.372-0.156l-0.507-2.861c0.778-0.275,1.585-0.494,2.414-0.646l1.012,2.711
	c0.137-0.021,0.273-0.041,0.411-0.059l0.264-2.875C15.167,0.017,15.583,0,16.004,0c0.422,0,0.841,0.017,1.255,0.049l0.26,2.858
	c0.15,0.017,0.303,0.037,0.451,0.058l0.98-2.692c0.828,0.154,1.633,0.371,2.41,0.647l-0.48,2.813c0.143,0.056,0.279,0.11,0.416,0.17
	l1.643-2.325c0.758,0.364,1.48,0.788,2.168,1.264l-1.189,2.574c0.111,0.083,0.221,0.168,0.328,0.254l2.176-1.813
	c0.637,0.545,1.23,1.143,1.771,1.779l-1.807,2.168c0.104,0.127,0.201,0.254,0.297,0.387l2.566-1.166
	c0.469,0.688,0.883,1.416,1.24,2.176l-2.309,1.604c0.063,0.141,0.117,0.281,0.176,0.424l2.77-0.457
	c0.271,0.781,0.482,1.591,0.629,2.422l-2.643,0.948c0.016,0.115,0.033,0.23,0.047,0.348L31.951,14.749z M16.071,3.547
	c-6.88,0-12.457,5.577-12.457,12.456c0,6.879,5.577,12.456,12.457,12.456c6.878,0,12.457-5.576,12.457-12.456
	C28.527,9.125,22.949,3.547,16.071,3.547z M16,27.412c-6.302,0-11.41-5.107-11.41-11.409c0-6.301,5.108-11.41,11.41-11.41
	c6.301,0,11.409,5.108,11.409,11.41C27.408,22.305,22.301,27.412,16,27.412z M15.951,8.408c-4.195,0-7.596,3.402-7.596,7.596
	c0,4.196,3.398,7.594,7.596,7.594c4.192,0,7.594-3.398,7.594-7.594C23.545,11.81,20.145,8.408,15.951,8.408z M15.951,21.482
	c-3.01,0-5.449-2.438-5.449-5.447c0-3.008,2.439-5.447,5.449-5.447c3.008,0,5.448,2.439,5.448,5.447
	C21.398,19.043,18.959,21.482,15.951,21.482z M16,13.602c-1.3,0-2.353,1.055-2.353,2.354c0,1.299,1.053,2.352,2.353,2.352
	c1.299,0,2.352-1.053,2.352-2.352C18.352,14.656,17.299,13.602,16,13.602z M16,17.65c-0.933,0-1.688-0.756-1.688-1.688
	c0-0.932,0.755-1.688,1.688-1.688c0.932,0,1.688,0.756,1.688,1.688C17.688,16.895,16.932,17.65,16,17.65z"/>
</svg>
