<?xml version="1.0" encoding="utf-8"?>
<!-- Generator: Adobe Illustrator 15.0.2, SVG Export Plug-In . SVG Version: 6.00 Build 0)  -->
<!DOCTYPE svg PUBLIC "-//W3C//DTD SVG 1.1//EN" "http://www.w3.org/Graphics/SVG/1.1/DTD/svg11.dtd">
<svg version="1.1" id="Layer_1" xmlns="http://www.w3.org/2000/svg" xmlns:xlink="http://www.w3.org/1999/xlink" x="0px" y="0px"
	 width="32px" height="32px" viewBox="0 0 32 32" enable-background="new 0 0 32 32" xml:space="preserve">
<g id="Layer_2">
</g>
<g id="Layer_3">
	<g>
		<path fill="#FFFFFF" d="M7.337,24.638l0.087,0.123c-0.302,1.361-0.692,2.668-1.12,3.959c1.242,0.946,2.623,1.711,4.11,2.267
			c0.683-2.165,1.221-4.396,1.976-6.539c1.308,0.032,2.559,0.396,3.811,0.723c-0.438,2.241-1.238,4.508-1.966,6.731
			c0.574,0.063,1.155,0.1,1.746,0.1c1.759,0,3.449-0.295,5.033-0.819c0.379-1.266,0.748-2.536,1.094-3.817l0.203-0.206
			c1.232,0.765,2.742,0.727,4.063,0.994c0.699-0.601,1.355-1.249,1.939-1.959c-0.305,0.156-0.605,0.302-0.924,0.235
			c0.391-2.804,1.074-5.484,1.758-8.047l1.742-0.502l0.23,0.162c-0.467,2.168-0.996,4.359-1.609,6.471
			c1.557-2.467,2.469-5.38,2.469-8.512c0-1.31-0.174-2.576-0.471-3.795c-0.291,0.098-0.578,0.167-0.855,0.113
			c-0.025-0.711,0.104-1.359,0.27-2c-0.402-1.057-0.908-2.063-1.516-3c-0.631,0.06-1.254-0.014-1.771-0.303l-0.207-0.451l0.35-1.347
			c-1.227-1.343-2.67-2.483-4.289-3.346c-0.334,1.004-0.664,2.017-1.123,2.946c-1.193-0.446-2.504-0.688-3.668-1.34
			c0.271-1.058,0.645-2.053,1.059-3.016c-1.213-0.292-2.473-0.465-3.775-0.465c-0.071,0-0.141,0.01-0.212,0.011
			c-0.524,1.155-1.024,2.328-1.516,3.494c-0.843-0.037-1.623,0.585-2.438,0.302c0.216-1.291,0.787-2.369,1.223-3.522
			c-2.029,0.378-3.921,1.141-5.604,2.208c-0.3,0.961-0.614,1.906-0.956,2.826C5.832,5.093,5.166,4.983,4.513,4.856
			C2.974,6.44,1.771,8.342,0.99,10.454c1.058-0.047,2.148,0.361,3.195,0.646l0.176,0.286c-0.658,1.817-1.345,3.88-2.002,5.861
			l-2.338-0.472c0.087,1.807,0.465,3.533,1.103,5.136l1.327-3.881c1.369,0.484,3.023,0.313,4.357-0.146l0.117,0.123
			c-0.744,2.229-1.313,4.579-2.145,6.688c-0.583,0.215-1.274,0.359-1.968,0.385c0.465,0.674,0.986,1.304,1.547,1.896
			c0.2-0.575,0.396-1.155,0.569-1.747L7.337,24.638z M21.957,26.415c-1.715-0.446-3.463-1.012-5.119-1.703
			c0.512-2.313,1.195-4.457,1.91-6.603c1.656,0.191,3.314,0.804,4.889,1.536C23.066,21.917,22.672,24.225,21.957,26.415z
			 M29.441,13.437l0.234,0.122c-0.166,1.566-0.508,3.054-0.969,4.333c-1.271,0.706-2.635,1.207-4.088,1.217l-0.232-0.369
			c0.311-1.69,0.678-3.423,1.25-4.992C26.857,13.861,28.34,13.853,29.441,13.437z M22.543,5.438
			c0.932,0.199,1.922,0.605,2.854,1.014l1.342,0.898c-0.455,1.814-0.764,3.877-1.48,5.487l-4.338-1.666l-0.004-0.7L22.543,5.438z
			 M19.438,11.224l0.729,0.406c-0.453,1.981-1.143,3.921-1.684,5.777c-1.309-0.238-2.618-0.521-3.926-0.803
			c0.424-2.063,0.996-4.042,1.651-5.982L19.438,11.224z M14.344,3.997c1.104-0.211,2.437-0.301,3.544,0.023
			c-0.338,2.104-1.608,3.799-1.857,5.983c-1.22,0.047-2.525-0.069-3.688-0.104C12.825,7.795,13.598,5.854,14.344,3.997z
			 M13.978,17.187c-0.569,2.229-1.079,4.495-1.736,6.728l-4.211,0.063c0.567-2.354,1.283-4.625,2.025-6.936
			C11.362,16.993,12.756,16.822,13.978,17.187z M11.478,11.224c-0.515,1.692-1.027,3.633-1.657,5.324
			c-0.726,0.127-1.479,0.38-2.178,0.385c0.484-1.899,1.113-3.758,1.656-5.572c0.694-0.334,1.42-0.543,2.176-0.59L11.478,11.224z
			 M4.967,10.765L6.57,6.14c1.483,0.363,2.872-0.633,4.265-0.929c-0.481,1.938-1.141,3.757-1.741,5.572
			C7.875,11.407,6.162,11.499,4.967,10.765z"/>
	</g>
</g>
</svg>
