<?xml version="1.0" encoding="utf-8"?>
<!-- Generator: Adobe Illustrator 15.0.2, SVG Export Plug-In . SVG Version: 6.00 Build 0)  -->
<!DOCTYPE svg PUBLIC "-//W3C//DTD SVG 1.1//EN" "http://www.w3.org/Graphics/SVG/1.1/DTD/svg11.dtd">
<svg version="1.1" id="Layer_1" xmlns="http://www.w3.org/2000/svg" xmlns:xlink="http://www.w3.org/1999/xlink" x="0px" y="0px"
	 width="32px" height="32px" viewBox="0 0 32 32" enable-background="new 0 0 32 32" xml:space="preserve">
<g id="Layer_1_1_">
	<g id="Foreground1">
	</g>
</g>
<g id="Layer_2">
	<g>
		<path fill="#FFFFFF" d="M0.239,13.376C0.094,14.246,0,15.13,0,16.041c0,0.434,0.031,0.86,0.065,1.284L15.42,31.957L0.239,13.376z"
			/>
		<path fill="#FFFFFF" d="M0.977,21.502c0.44,1.211,1.01,2.359,1.714,3.414l12.184,7.041L0.977,21.502z"/>
		<path fill="#FFFFFF" d="M29.12,25.184c0.699-1,1.282-2.084,1.739-3.232L17.915,31.959L29.12,25.184z"/>
		<path fill="#FFFFFF" d="M31.885,17.889C31.955,17.283,32,16.666,32,16.041c0-0.688-0.059-1.363-0.143-2.028L17.37,31.957
			L31.885,17.889z"/>
		<path fill="#FFFFFF" d="M30.785,9.931c-0.51-1.233-1.18-2.382-1.968-3.438L16.901,31.957L30.785,9.931z"/>
		<path fill="#FFFFFF" d="M25.878,3.47c-1.049-0.824-2.199-1.522-3.437-2.068l-5.942,30.557L25.878,3.47z"/>
		<path fill="#FFFFFF" d="M18.386,0.238C17.605,0.121,16.813,0.041,16,0.041c-0.553,0-1.099,0.027-1.637,0.083l1.945,31.833
			L18.386,0.238z"/>
		<path fill="#FFFFFF" d="M10.256,1.121C8.989,1.609,7.801,2.25,6.713,3.029l9.432,28.928L10.256,1.121z"/>
		<path fill="#FFFFFF" d="M3.617,5.913c-0.846,1.032-1.552,2.18-2.121,3.403l14.276,22.643L3.617,5.913z"/>
	</g>
</g>
</svg>
