<?xml version="1.0" encoding="utf-8"?>
<!-- Generator: Adobe Illustrator 15.0.2, SVG Export Plug-In . SVG Version: 6.00 Build 0)  -->
<!DOCTYPE svg PUBLIC "-//W3C//DTD SVG 1.1//EN" "http://www.w3.org/Graphics/SVG/1.1/DTD/svg11.dtd">
<svg version="1.1" id="Layer_1" xmlns="http://www.w3.org/2000/svg" xmlns:xlink="http://www.w3.org/1999/xlink" x="0px" y="0px"
	 width="32px" height="32px" viewBox="0 0 32 32" enable-background="new 0 0 32 32" xml:space="preserve">
<g id="Layer_1_1_">
	<g id="Foreground1">
	</g>
</g>
<g id="Layer_2">
</g>
<g id="Layer_4">
</g>
<g id="Layer_3">
	<g>
		<path fill="#FFFFFF" d="M5.034,27.414c0.496,0.201,0.981,0.414,1.457,0.646c0.679,0.336,1.337,0.697,1.972,1.088
			c0.91,0.559,1.755,1.186,2.565,1.842"/>
		<path fill="#FFFFFF" d="M9.299,30.301c-0.364-0.303-0.722-0.609-1.11-0.895c-0.579-0.428-1.187-0.832-1.817-1.209
			c-0.391-0.23-0.791-0.449-1.2-0.658"/>
		<path fill="#FFFFFF" d="M31.803,18.199c-1.221-0.203-2.445-0.379-3.678-0.492c-1.521-0.139-3.053-0.197-4.576-0.145
			c-1.523,0.049-3.039,0.219-4.535,0.504c-2.986,0.563-5.851,1.609-8.369,3.084c-1.261,0.732-2.434,1.568-3.503,2.488
			c-0.531,0.465-1.041,0.943-1.517,1.447c-0.473,0.504-0.922,1.025-1.304,1.578c0.317-0.578,0.711-1.133,1.13-1.672
			c0.421-0.541,0.88-1.064,1.369-1.568c0.977-1.01,2.081-1.951,3.296-2.799c1.214-0.85,2.54-1.605,3.954-2.254
			c1.415-0.646,2.917-1.182,4.476-1.596c1.557-0.415,3.174-0.716,4.814-0.886c1.639-0.174,3.293-0.227,4.938-0.191
			c1.24,0.025,2.471,0.113,3.695,0.223"/>
		<path fill="#FFFFFF" d="M30.285,22.973c-1.418-0.445-2.867-0.814-4.352-1.076c-1.486-0.268-3.006-0.414-4.545-0.447
			c-3.066-0.07-6.175,0.352-9.087,1.254c-1.455,0.451-2.86,1.018-4.192,1.688c-0.665,0.338-1.313,0.697-1.937,1.086
			c-0.62,0.391-1.224,0.801-1.774,1.256c0.498-0.492,1.06-0.947,1.641-1.381c0.582-0.438,1.193-0.848,1.829-1.234
			c1.272-0.773,2.646-1.453,4.096-2.023c1.449-0.568,2.978-1.027,4.554-1.359c1.576-0.336,3.201-0.541,4.844-0.621
			c1.639-0.08,3.299-0.037,4.938,0.137c1.627,0.168,3.229,0.455,4.795,0.824"/>
		<path fill="#FFFFFF" d="M27.514,26.887c-0.229-0.102-0.449-0.217-0.684-0.313c-1.352-0.563-2.771-1.021-4.242-1.367
			c-2.941-0.699-6.08-0.932-9.188-0.658c-1.554,0.137-3.097,0.393-4.601,0.768c-0.753,0.186-1.493,0.4-2.222,0.646
			c-0.728,0.248-1.442,0.521-2.123,0.85c0.642-0.373,1.329-0.697,2.032-0.998c0.701-0.303,1.429-0.57,2.169-0.814
			c1.48-0.482,3.026-0.857,4.612-1.111c1.585-0.252,3.21-0.383,4.843-0.379c1.631,0.002,3.27,0.141,4.879,0.396
			c1.607,0.262,3.197,0.645,4.727,1.148c0.352,0.115,0.688,0.258,1.029,0.383"/>
		<path fill="#FFFFFF" d="M3.302,22.857c-0.063-1.252,0.022-2.506,0.26-3.732c0.474-2.457,1.567-4.809,3.179-6.889
			c0.805-1.042,1.727-2.015,2.76-2.906c1.031-0.896,2.165-1.714,3.366-2.474c2.403-1.517,5.063-2.787,7.811-3.965
			c0.959-0.41,1.939-0.799,2.916-1.19c-1.219-0.658-2.537-1.149-3.922-1.474c-0.24,0.123-0.482,0.235-0.723,0.36
			c-2.699,1.415-5.354,2.949-7.743,4.752c-1.193,0.9-2.316,1.869-3.323,2.913c-1.007,1.042-1.886,2.165-2.616,3.333
			c-0.731,1.171-1.32,2.396-1.746,3.646c-0.426,1.255-0.688,2.538-0.794,3.819c-0.104,1.283-0.051,2.568,0.156,3.832
			c0.104,0.633,0.246,1.262,0.427,1.879c0.137,0.457,0.303,0.908,0.489,1.355c0.027,0.031,0.058,0.061,0.084,0.092
			c-0.153-0.488-0.274-0.98-0.366-1.479C3.404,24.109,3.333,23.482,3.302,22.857z"/>
		<path fill="#FFFFFF" d="M1.038,19.488c-0.343-2.471-0.052-4.966,0.826-7.309c0.438-1.171,1.013-2.301,1.721-3.374
			C4.29,7.729,5.119,6.703,6.032,5.723c1.83-1.959,3.982-3.735,6.255-5.438c0.032-0.022,0.065-0.047,0.099-0.071
			C5.294,1.856,0.003,8.198,0.003,15.788c0,3.298,1,6.365,2.71,8.91C2.452,24.189,2.206,23.674,2,23.15
			C1.531,21.951,1.208,20.725,1.038,19.488z"/>
		<path fill="#FFFFFF" d="M6.489,28.059c-0.475-0.23-0.961-0.445-1.457-0.646c0.045,0.043,0.092,0.084,0.138,0.125
			c0.41,0.209,0.812,0.428,1.2,0.66c0.632,0.377,1.236,0.781,1.816,1.207c0.391,0.285,0.747,0.592,1.11,0.895
			c0.56,0.262,1.133,0.492,1.726,0.689c-0.81-0.656-1.653-1.283-2.563-1.842C7.826,28.758,7.167,28.395,6.489,28.059z"/>
		<path fill="#FFFFFF" d="M9.029,28.162c-0.739-0.246-1.493-0.461-2.259-0.645c-0.677-0.162-1.361-0.299-2.059-0.396
			c0.01,0.01,0.02,0.018,0.03,0.027c0.667,0.145,1.318,0.32,1.959,0.523c0.732,0.236,1.45,0.5,2.146,0.793
			c1.396,0.58,2.715,1.27,3.936,2.045c0.589,0.375,1.144,0.779,1.681,1.197c0.507,0.051,1.021,0.08,1.539,0.08
			c0.047,0,0.093-0.008,0.141-0.008c-0.904-0.654-1.851-1.273-2.861-1.811C11.936,29.258,10.508,28.652,9.029,28.162z"/>
		<path fill="#FFFFFF" d="M13.954,27.965c-1.532-0.412-3.106-0.703-4.695-0.871c-0.794-0.084-1.592-0.139-2.391-0.156
			c-0.765-0.02-1.526-0.012-2.284,0.051c0.002,0.002,0.004,0.004,0.007,0.006c0.758-0.006,1.512,0.039,2.262,0.109
			c0.785,0.074,1.563,0.184,2.331,0.32c1.538,0.273,3.035,0.666,4.465,1.166c2.075,0.727,3.993,1.691,5.696,2.842
			c0.564-0.117,1.113-0.271,1.654-0.447c-0.84-0.516-1.705-1-2.615-1.42C16.973,28.912,15.485,28.377,13.954,27.965z"/>
		<path fill="#FFFFFF" d="M9.166,26.348c1.576-0.051,3.147,0.021,4.694,0.207c3.089,0.377,6.044,1.246,8.656,2.527
			c0.438,0.213,0.848,0.451,1.264,0.684c0.529-0.295,1.035-0.625,1.525-0.979c-0.645-0.314-1.301-0.611-1.973-0.879
			c-1.471-0.582-3.01-1.051-4.584-1.389c-1.576-0.34-3.189-0.551-4.8-0.633c-1.612-0.082-3.229-0.039-4.817,0.125
			c-0.796,0.082-1.585,0.195-2.361,0.342c-0.771,0.145-1.532,0.313-2.27,0.541H4.5c0.758-0.174,1.531-0.287,2.309-0.377
			C7.593,26.428,8.38,26.373,9.166,26.348z"/>
		<path fill="#FFFFFF" d="M22.992,23.902c-1.609-0.258-3.248-0.396-4.879-0.396c-1.631-0.004-3.256,0.127-4.843,0.379
			c-1.586,0.252-3.132,0.627-4.612,1.111c-0.74,0.244-1.467,0.514-2.169,0.814c-0.703,0.301-1.393,0.625-2.032,0.996
			c0.681-0.326,1.396-0.6,2.123-0.848c0.729-0.246,1.469-0.463,2.222-0.646c1.504-0.375,3.047-0.633,4.602-0.768
			c3.105-0.271,6.244-0.041,9.187,0.658c1.473,0.348,2.895,0.805,4.242,1.367c0.232,0.098,0.453,0.213,0.684,0.313
			c0.441-0.457,0.852-0.941,1.234-1.451c-0.344-0.127-0.68-0.266-1.029-0.381C26.191,24.547,24.602,24.164,22.992,23.902z"/>
		<path fill="#FFFFFF" d="M21.359,20.105c-1.641,0.08-3.268,0.283-4.844,0.621c-1.577,0.332-3.103,0.791-4.553,1.359
			c-1.448,0.57-2.821,1.25-4.096,2.023c-0.637,0.389-1.247,0.799-1.829,1.232c-0.581,0.436-1.143,0.891-1.641,1.383
			c0.553-0.455,1.154-0.865,1.774-1.258c0.623-0.387,1.27-0.748,1.936-1.084c1.332-0.67,2.738-1.234,4.193-1.688
			c2.912-0.902,6.02-1.324,9.086-1.254c1.539,0.033,3.061,0.182,4.545,0.445c1.482,0.264,2.934,0.633,4.354,1.078
			c0.309-0.611,0.576-1.248,0.807-1.902c-1.564-0.369-3.168-0.654-4.795-0.824C24.66,20.068,22.998,20.025,21.359,20.105z"/>
		<path fill="#FFFFFF" d="M23.363,15.887c-1.645,0.169-3.262,0.473-4.814,0.886c-1.559,0.414-3.062,0.947-4.477,1.596
			c-1.414,0.646-2.74,1.404-3.954,2.254c-1.215,0.848-2.319,1.789-3.296,2.799c-0.489,0.506-0.948,1.027-1.369,1.568
			c-0.419,0.539-0.813,1.094-1.13,1.672c0.382-0.553,0.831-1.074,1.304-1.578c0.476-0.504,0.983-0.982,1.517-1.447
			c1.069-0.92,2.242-1.756,3.503-2.488c2.52-1.475,5.383-2.521,8.368-3.084c1.496-0.285,3.014-0.455,4.535-0.504
			c1.525-0.055,3.055,0.006,4.578,0.145c1.23,0.113,2.455,0.289,3.676,0.492c0.113-0.744,0.189-1.5,0.193-2.276
			c-1.225-0.108-2.453-0.196-3.693-0.223C26.656,15.662,25.002,15.713,23.363,15.887z"/>
		<path fill="#FFFFFF" d="M5.963,23.109C6.696,22,7.557,20.949,8.536,19.98c1.953-1.939,4.379-3.541,7.081-4.703
			c1.352-0.583,2.76-1.061,4.215-1.42c1.457-0.363,2.953-0.623,4.471-0.804c2.432-0.284,4.906-0.364,7.396-0.351
			c-0.168-0.865-0.418-1.699-0.721-2.508c-2.395,0.169-4.795,0.435-7.164,0.886c-1.598,0.308-3.18,0.698-4.705,1.201
			c-1.529,0.502-2.995,1.125-4.363,1.846c-1.369,0.723-2.648,1.548-3.804,2.465c-1.156,0.914-2.19,1.92-3.09,2.99
			c-0.896,1.07-1.655,2.203-2.271,3.381c-0.309,0.588-0.578,1.189-0.813,1.797c-0.227,0.604-0.423,1.211-0.543,1.83
			c0,0,0.001,0,0.002,0.002c0.189-0.605,0.45-1.197,0.74-1.775C5.266,24.234,5.598,23.664,5.963,23.109z"/>
		<path fill="#FFFFFF" d="M4.653,22.844c0.346-1.223,0.838-2.414,1.466-3.551c1.257-2.277,3.079-4.324,5.311-6
			c1.118-0.841,2.322-1.59,3.611-2.239c1.288-0.649,2.647-1.209,4.057-1.692c2.814-0.972,5.797-1.651,8.834-2.224
			c0.453-0.086,0.918-0.156,1.375-0.235c-0.584-0.87-1.246-1.683-1.982-2.421c-0.104,0.027-0.207,0.05-0.313,0.076
			c-3.064,0.813-6.131,1.746-9.023,2.996c-1.445,0.623-2.847,1.327-4.157,2.129c-1.313,0.799-2.527,1.703-3.613,2.683
			c-1.089,0.979-2.056,2.04-2.872,3.163c-0.819,1.125-1.492,2.306-2.01,3.525c-0.521,1.221-0.885,2.473-1.095,3.734
			c-0.106,0.631-0.177,1.268-0.2,1.902c-0.022,0.59-0.01,1.18,0.061,1.764c0.005,0.006,0.012,0.012,0.016,0.018
			c-0.005-0.592,0.048-1.184,0.135-1.77C4.344,24.074,4.481,23.455,4.653,22.844z"/>
	</g>
</g>
</svg>
