<?xml version="1.0" encoding="utf-8"?>
<!-- Generator: Adobe Illustrator 15.0.2, SVG Export Plug-In . SVG Version: 6.00 Build 0)  -->
<!DOCTYPE svg PUBLIC "-//W3C//DTD SVG 1.1//EN" "http://www.w3.org/Graphics/SVG/1.1/DTD/svg11.dtd">
<svg version="1.1" id="Layer_1" xmlns="http://www.w3.org/2000/svg" xmlns:xlink="http://www.w3.org/1999/xlink" x="0px" y="0px"
	 width="32px" height="32px" viewBox="0 0 32 32" enable-background="new 0 0 32 32" xml:space="preserve">
<g id="Layer_1_1_">
	<g id="Foreground1">
	</g>
</g>
<g id="Layer_2">
	<g>
		<path fill="#FFFFFF" d="M15.949,3.983C15.601,5.27,15.387,6.586,15.3,7.906c-0.085,1.319-0.04,2.64,0.13,3.938
			c0.083,0.649,0.198,1.295,0.349,1.931c0.151,0.635,0.326,1.264,0.561,1.871c-0.18-0.624-0.298-1.264-0.393-1.902
			c-0.091-0.64-0.147-1.284-0.173-1.928c-0.054-1.287,0.019-2.573,0.213-3.835c0.385-2.526,1.282-4.942,2.597-7.079
			c0.131-0.214,0.282-0.41,0.421-0.617c-0.503-0.097-1.014-0.17-1.53-0.218c-0.029,0.057-0.066,0.111-0.097,0.169
			C16.777,1.436,16.296,2.694,15.949,3.983z"/>
		<path fill="#FFFFFF" d="M12.852,4.502c-0.004,1.334,0.128,2.662,0.388,3.957c0.258,1.297,0.645,2.563,1.144,3.773
			c0.25,0.604,0.527,1.199,0.835,1.772c0.312,0.574,0.645,1.139,1.025,1.661c-0.336-0.556-0.615-1.142-0.871-1.733
			c-0.253-0.597-0.475-1.202-0.667-1.817c-0.385-1.229-0.647-2.491-0.788-3.761c-0.278-2.539-0.041-5.104,0.68-7.509
			c0.079-0.271,0.187-0.531,0.277-0.799c-0.521,0.036-1.037,0.099-1.544,0.184c-0.021,0.095-0.052,0.188-0.072,0.283
			C12.992,1.829,12.854,3.168,12.852,4.502z"/>
		<path fill="#FFFFFF" d="M9.993,5.807c0.343,1.289,0.814,2.537,1.4,3.722c0.585,1.185,1.282,2.308,2.079,3.347
			c0.397,0.521,0.819,1.022,1.269,1.497c0.446,0.477,0.913,0.934,1.422,1.339c-0.47-0.45-0.892-0.942-1.292-1.451
			c-0.396-0.509-0.771-1.035-1.116-1.583c-0.688-1.087-1.269-2.236-1.73-3.427c-0.93-2.38-1.362-4.921-1.29-7.43
			c0.008-0.32,0.047-0.637,0.071-0.955c-0.497,0.17-0.981,0.364-1.455,0.58c0.006,0.133-0.003,0.268,0.005,0.4
			C9.438,3.188,9.65,4.516,9.993,5.807z"/>
		<path fill="#FFFFFF" d="M7.57,7.805c0.664,1.158,1.444,2.242,2.316,3.232c0.87,0.994,1.838,1.896,2.875,2.695
			c0.52,0.398,1.057,0.772,1.61,1.118c0.558,0.342,1.124,0.663,1.718,0.926c-0.566-0.314-1.103-0.681-1.619-1.067
			c-0.52-0.389-1.015-0.804-1.486-1.237c-0.948-0.873-1.809-1.835-2.563-2.865c-1.514-2.06-2.59-4.399-3.17-6.843
			C7.168,3.418,7.117,3.067,7.055,2.717C6.616,3.012,6.197,3.327,5.791,3.662c0.05,0.16,0.084,0.326,0.139,0.484
			C6.357,5.42,6.906,6.649,7.57,7.805z"/>
		<path fill="#FFFFFF" d="M5.747,10.365c0.941,0.946,1.977,1.791,3.073,2.523c1.101,0.732,2.266,1.354,3.476,1.856
			c0.605,0.252,1.224,0.477,1.848,0.665c0.625,0.188,1.258,0.35,1.898,0.449c-0.629-0.155-1.242-0.373-1.842-0.612
			c-0.601-0.241-1.186-0.514-1.757-0.813c-1.142-0.6-2.22-1.306-3.214-2.104C7.234,10.733,5.588,8.75,4.397,6.542
			C4.215,6.208,4.066,5.864,3.906,5.523C3.561,5.922,3.233,6.336,2.928,6.768c0.1,0.16,0.186,0.328,0.287,0.484
			C3.957,8.374,4.807,9.418,5.747,10.365z"/>
		<path fill="#FFFFFF" d="M4.649,13.307c1.153,0.669,2.371,1.219,3.622,1.643c1.252,0.423,2.54,0.722,3.839,0.896
			c0.647,0.086,1.301,0.142,1.954,0.161c0.649,0.021,1.304,0.014,1.951-0.058c-0.647,0.012-1.298-0.038-1.938-0.114
			c-0.642-0.077-1.277-0.188-1.907-0.33c-1.257-0.279-2.479-0.684-3.648-1.196c-2.34-1.027-4.441-2.519-6.165-4.34
			C2.084,9.68,1.836,9.372,1.583,9.071c-0.229,0.477-0.435,0.965-0.617,1.467c0.147,0.139,0.283,0.289,0.436,0.422
			C2.407,11.848,3.496,12.638,4.649,13.307z"/>
		<path fill="#FFFFFF" d="M4.351,16.434c1.286,0.347,2.604,0.562,3.923,0.646c1.317,0.086,2.641,0.041,3.938-0.127
			c0.65-0.086,1.295-0.199,1.932-0.35c0.636-0.151,1.265-0.326,1.868-0.562c-0.621,0.182-1.261,0.299-1.899,0.394
			c-0.641,0.09-1.284,0.147-1.927,0.172c-1.287,0.053-2.574-0.02-3.836-0.212c-2.524-0.387-4.941-1.281-7.079-2.599
			c-0.349-0.213-0.676-0.452-1.006-0.687C0.167,13.63,0.1,14.159,0.057,14.696c0.184,0.099,0.359,0.213,0.547,0.306
			C1.806,15.605,3.063,16.085,4.351,16.434z"/>
		<path fill="#FFFFFF" d="M4.87,19.531c1.335,0.004,2.663-0.129,3.958-0.389c1.297-0.26,2.563-0.646,3.772-1.145
			c0.604-0.25,1.195-0.529,1.771-0.836c0.574-0.311,1.14-0.643,1.662-1.027c-0.555,0.338-1.142,0.617-1.734,0.871
			c-0.595,0.254-1.201,0.479-1.816,0.668c-1.23,0.385-2.491,0.648-3.761,0.787c-2.537,0.281-5.104,0.041-7.511-0.678
			c-0.392-0.115-0.771-0.264-1.15-0.402c0.046,0.537,0.119,1.066,0.218,1.588c0.202,0.051,0.4,0.113,0.603,0.154
			C2.198,19.391,3.536,19.529,4.87,19.531z"/>
		<path fill="#FFFFFF" d="M6.174,22.391c1.291-0.346,2.539-0.816,3.725-1.4c1.186-0.586,2.308-1.285,3.349-2.082
			c0.521-0.398,1.021-0.82,1.496-1.266c0.475-0.447,0.934-0.916,1.338-1.424c-0.448,0.471-0.94,0.893-1.449,1.292
			s-1.04,0.771-1.583,1.113c-1.087,0.689-2.236,1.271-3.429,1.734c-2.38,0.93-4.92,1.359-7.428,1.289
			c-0.397-0.012-0.79-0.055-1.185-0.088c0.188,0.504,0.398,0.994,0.636,1.475c0.189-0.008,0.384,0.004,0.573-0.008
			C3.558,22.943,4.887,22.732,6.174,22.391z"/>
		<path fill="#FFFFFF" d="M8.174,24.811c1.156-0.662,2.24-1.443,3.233-2.314c0.992-0.873,1.895-1.838,2.695-2.875
			c0.397-0.52,0.772-1.059,1.119-1.611c0.341-0.555,0.661-1.121,0.925-1.72c-0.313,0.57-0.683,1.105-1.067,1.623
			c-0.389,0.52-0.804,1.014-1.24,1.488c-0.873,0.945-1.833,1.805-2.861,2.561c-2.061,1.514-4.399,2.59-6.843,3.17
			c-0.366,0.088-0.738,0.145-1.108,0.209c0.313,0.438,0.647,0.854,1.004,1.252c0.161-0.049,0.327-0.084,0.487-0.137
			C5.789,26.025,7.018,25.477,8.174,24.811z"/>
		<path fill="#FFFFFF" d="M10.731,26.635c0.948-0.939,1.792-1.975,2.523-3.072c0.732-1.102,1.354-2.268,1.858-3.477
			c0.253-0.604,0.474-1.221,0.664-1.846c0.187-0.625,0.349-1.258,0.448-1.902c-0.155,0.63-0.374,1.244-0.612,1.845
			c-0.24,0.602-0.513,1.188-0.813,1.758c-0.598,1.141-1.304,2.219-2.104,3.215c-1.595,1.994-3.578,3.639-5.788,4.832
			c-0.312,0.168-0.635,0.309-0.953,0.459c0.416,0.336,0.851,0.646,1.297,0.939c0.121-0.076,0.25-0.141,0.369-0.221
			C8.742,28.426,9.788,27.576,10.731,26.635z"/>
		<path fill="#FFFFFF" d="M13.675,27.732c0.668-1.154,1.22-2.371,1.646-3.621c0.422-1.254,0.721-2.541,0.894-3.838
			c0.087-0.65,0.144-1.303,0.163-1.955c0.021-0.652,0.015-1.305-0.058-1.953c0.013,0.65-0.038,1.296-0.113,1.939
			c-0.078,0.643-0.188,1.277-0.331,1.906c-0.282,1.258-0.684,2.48-1.195,3.648c-1.027,2.34-2.519,4.441-4.343,6.166
			c-0.233,0.223-0.485,0.42-0.729,0.629c0.483,0.213,0.98,0.4,1.491,0.563c0.072-0.082,0.156-0.152,0.229-0.236
			C12.217,29.977,13.007,28.887,13.675,27.732z"/>
		<path fill="#FFFFFF" d="M16.801,28.033c0.352-1.289,0.565-2.605,0.65-3.924c0.085-1.32,0.041-2.643-0.129-3.941
			c-0.083-0.646-0.199-1.293-0.347-1.93c-0.151-0.635-0.326-1.264-0.563-1.87c0.183,0.624,0.299,1.262,0.394,1.903
			c0.091,0.639,0.146,1.283,0.176,1.926c0.051,1.289-0.021,2.574-0.214,3.838c-0.388,2.525-1.281,4.941-2.6,7.078
			c-0.146,0.24-0.314,0.463-0.473,0.693c0.52,0.074,1.047,0.125,1.582,0.146c0.03-0.059,0.068-0.115,0.098-0.174
			C15.975,30.578,16.454,29.32,16.801,28.033z"/>
		<path fill="#FFFFFF" d="M19.899,27.512c0.003-1.336-0.13-2.662-0.388-3.959c-0.261-1.297-0.646-2.561-1.146-3.771
			c-0.25-0.605-0.529-1.197-0.836-1.773c-0.31-0.572-0.643-1.137-1.028-1.662c0.339,0.556,0.617,1.144,0.871,1.736
			c0.255,0.596,0.479,1.203,0.67,1.818c0.383,1.229,0.647,2.49,0.786,3.76c0.28,2.537,0.042,5.105-0.677,7.508
			c-0.07,0.238-0.164,0.463-0.243,0.697c0.526-0.064,1.045-0.15,1.555-0.264c0.009-0.035,0.021-0.066,0.025-0.104
			C19.758,30.186,19.898,28.846,19.899,27.512z"/>
		<path fill="#FFFFFF" d="M21.356,22.486c-0.584-1.189-1.283-2.309-2.079-3.348c-0.399-0.521-0.82-1.023-1.27-1.498
			c-0.445-0.477-0.912-0.936-1.42-1.34c0.47,0.448,0.892,0.942,1.29,1.45c0.399,0.512,0.771,1.037,1.115,1.584
			c0.688,1.088,1.271,2.238,1.732,3.43c0.929,2.379,1.359,4.92,1.291,7.43c-0.008,0.211-0.035,0.42-0.05,0.631
			c0.488-0.197,0.965-0.416,1.428-0.658c-0.085-1.342-0.296-2.67-0.641-3.959C22.413,24.918,21.943,23.67,21.356,22.486z"/>
		<path fill="#FFFFFF" d="M22.864,20.975c-0.872-0.992-1.838-1.896-2.876-2.695c-0.521-0.4-1.057-0.773-1.61-1.117
			c-0.556-0.342-1.125-0.665-1.719-0.926c0.567,0.313,1.104,0.682,1.622,1.067c0.515,0.391,1.013,0.803,1.485,1.238
			c0.943,0.875,1.808,1.834,2.562,2.863c1.512,2.059,2.59,4.4,3.17,6.842c0.041,0.172,0.063,0.346,0.1,0.52
			c0.411-0.314,0.809-0.643,1.188-0.99c-0.422-1.238-0.955-2.438-1.604-3.568C24.516,23.051,23.736,21.967,22.864,20.975z"/>
		<path fill="#FFFFFF" d="M23.928,19.125c-1.1-0.73-2.265-1.354-3.477-1.855c-0.604-0.252-1.219-0.477-1.844-0.664
			c-0.625-0.189-1.258-0.351-1.901-0.448c0.631,0.155,1.245,0.372,1.844,0.61c0.603,0.24,1.188,0.516,1.759,0.813
			c1.141,0.6,2.219,1.305,3.216,2.105c1.993,1.596,3.64,3.58,4.831,5.787c0.07,0.135,0.128,0.273,0.195,0.408
			c0.316-0.398,0.613-0.814,0.893-1.246c-0.725-1.07-1.535-2.074-2.44-2.982C26.062,20.705,25.029,19.859,23.928,19.125z"/>
		<path fill="#FFFFFF" d="M24.479,17.064c-1.252-0.424-2.541-0.724-3.839-0.896c-0.65-0.086-1.304-0.142-1.954-0.162
			c-0.651-0.02-1.308-0.014-1.953,0.059c0.648-0.015,1.297,0.038,1.938,0.114c0.646,0.076,1.281,0.188,1.908,0.329
			c1.257,0.283,2.481,0.686,3.649,1.199c2.341,1.025,4.441,2.518,6.168,4.34c0.095,0.102,0.176,0.211,0.268,0.314
			c0.202-0.465,0.38-0.939,0.538-1.424c-0.968-0.838-2.003-1.59-3.104-2.23C26.947,18.037,25.731,17.488,24.479,17.064z"/>
		<path fill="#FFFFFF" d="M24.478,14.932c-1.32-0.086-2.644-0.041-3.94,0.126c-0.647,0.086-1.294,0.198-1.93,0.35
			s-1.267,0.326-1.869,0.563c0.623-0.183,1.262-0.302,1.9-0.394c0.641-0.091,1.282-0.146,1.928-0.175
			c1.287-0.052,2.574,0.02,3.836,0.214c2.526,0.386,4.941,1.281,7.08,2.597c0.104,0.064,0.2,0.143,0.304,0.207
			c0.076-0.494,0.128-0.994,0.157-1.502c-1.144-0.553-2.327-1.01-3.542-1.337C27.114,15.232,25.796,15.017,24.478,14.932z"/>
		<path fill="#FFFFFF" d="M23.922,12.871c-1.296,0.26-2.56,0.646-3.771,1.145c-0.605,0.25-1.198,0.527-1.774,0.836
			c-0.571,0.309-1.136,0.643-1.661,1.025c0.558-0.336,1.145-0.616,1.736-0.872c0.593-0.254,1.202-0.475,1.817-0.668
			c1.229-0.383,2.488-0.646,3.761-0.786c2.539-0.279,5.104-0.043,7.509,0.678c0.126,0.038,0.245,0.09,0.37,0.129
			c-0.052-0.506-0.131-1.004-0.229-1.495c-1.258-0.242-2.528-0.377-3.802-0.379C26.547,12.48,25.218,12.612,23.922,12.871z"/>
		<path fill="#FFFFFF" d="M22.854,11.025c-1.186,0.586-2.31,1.284-3.35,2.081c-0.52,0.396-1.021,0.817-1.498,1.266
			c-0.473,0.447-0.931,0.914-1.338,1.421c0.45-0.467,0.943-0.89,1.451-1.291c0.51-0.396,1.038-0.771,1.582-1.114
			c1.088-0.688,2.237-1.271,3.429-1.733c2.382-0.931,4.921-1.361,7.432-1.29c0.135,0.003,0.268,0.023,0.4,0.029
			c-0.178-0.476-0.376-0.938-0.596-1.391c-1.283,0.09-2.557,0.291-3.792,0.62C25.285,9.967,24.038,10.44,22.854,11.025z"/>
		<path fill="#FFFFFF" d="M21.343,9.518c-0.99,0.871-1.895,1.838-2.693,2.876c-0.398,0.519-0.773,1.057-1.117,1.609
			c-0.343,0.557-0.664,1.124-0.926,1.721c0.313-0.569,0.68-1.104,1.065-1.623c0.391-0.518,0.805-1.013,1.241-1.485
			c0.872-0.947,1.832-1.807,2.862-2.563c2.057-1.514,4.398-2.59,6.842-3.168c0.151-0.037,0.305-0.056,0.456-0.086
			c-0.292-0.416-0.603-0.816-0.933-1.201c-1.239,0.422-2.438,0.955-3.564,1.604C23.42,7.866,22.336,8.645,21.343,9.518z"/>
		<path fill="#FFFFFF" d="M19.495,8.453c-0.731,1.099-1.354,2.267-1.857,3.476c-0.254,0.604-0.477,1.222-0.664,1.847
			s-0.352,1.258-0.447,1.898c0.154-0.63,0.37-1.241,0.611-1.844c0.237-0.599,0.513-1.185,0.813-1.755
			c0.597-1.141,1.302-2.22,2.102-3.216c1.6-1.994,3.58-3.64,5.79-4.833c0.16-0.086,0.328-0.154,0.489-0.235
			c-0.39-0.331-0.794-0.642-1.215-0.935c-1.113,0.74-2.157,1.585-3.096,2.521C21.073,6.32,20.228,7.352,19.495,8.453z"/>
		<path fill="#FFFFFF" d="M19.076,4.282c-0.67,1.152-1.219,2.371-1.644,3.622s-0.723,2.54-0.896,3.839
			c-0.086,0.65-0.141,1.302-0.163,1.955c-0.02,0.651-0.012,1.305,0.06,1.951c-0.014-0.65,0.036-1.297,0.112-1.938
			c0.077-0.644,0.189-1.277,0.33-1.907c0.283-1.258,0.688-2.48,1.199-3.649c1.026-2.341,2.517-4.443,4.34-6.166
			c0.154-0.146,0.321-0.271,0.479-0.413c-0.461-0.223-0.936-0.42-1.419-0.598c-0.019,0.019-0.035,0.035-0.054,0.054
			C20.534,2.037,19.744,3.127,19.076,4.282z"/>
	</g>
</g>
</svg>
