<?xml version="1.0" encoding="utf-8"?>
<!-- Generator: Adobe Illustrator 15.0.2, SVG Export Plug-In . SVG Version: 6.00 Build 0)  -->
<!DOCTYPE svg PUBLIC "-//W3C//DTD SVG 1.1//EN" "http://www.w3.org/Graphics/SVG/1.1/DTD/svg11.dtd">
<svg version="1.1" id="Layer_1" xmlns="http://www.w3.org/2000/svg" xmlns:xlink="http://www.w3.org/1999/xlink" x="0px" y="0px"
	 width="32px" height="32px" viewBox="0 0 32 32" enable-background="new 0 0 32 32" xml:space="preserve">
<g id="Layer_1_1_">
	<g id="Foreground1">
	</g>
</g>
<g id="Layer_2">
</g>
<g id="Layer_3">
	<g>
		<path fill="#FFFFFF" d="M21.842,1.12c-1.438-0.564-2.973-0.926-4.576-1.053l9.74,4.619L21.842,1.12z"/>
		<path fill="#FFFFFF" d="M13.957,0.149c-1.687,0.217-3.284,0.695-4.763,1.394l17.781,3.253L13.957,0.149z"/>
		<path fill="#FFFFFF" d="M6.385,3.239C5.038,4.256,3.851,5.472,2.883,6.86l24.091-1.953L6.385,3.239z"/>
		<path fill="#FFFFFF" d="M1.287,9.721c-0.652,1.526-1.066,3.176-1.214,4.902L27,5.018L1.287,9.721z"/>
		<path fill="#FFFFFF" d="M0.123,17.883c0.202,1.729,0.685,3.361,1.391,4.875L27.055,5.116L0.123,17.883z"/>
		<path fill="#FFFFFF" d="M3.185,25.553c1.02,1.363,2.24,2.563,3.635,3.541L27.133,5.198L3.185,25.553z"/>
		<path fill="#FFFFFF" d="M9.66,30.691c1.532,0.662,3.188,1.09,4.923,1.242L27.23,5.255L9.66,30.691z"/>
		<path fill="#FFFFFF" d="M17.846,31.891c1.729-0.199,3.363-0.678,4.879-1.381l4.613-25.221L17.846,31.891z"/>
		<path fill="#FFFFFF" d="M25.543,28.828c1.355-1.012,2.547-2.227,3.523-3.605L27.451,5.29L25.543,28.828z"/>
		<path fill="#FFFFFF" d="M30.688,22.354c0.654-1.512,1.08-3.143,1.24-4.854L27.563,5.262L30.688,22.354z"/>
		<path fill="#FFFFFF" d="M31.881,14.111c-0.195-1.646-0.641-3.214-1.297-4.669L27.66,5.208L31.881,14.111z"/>
	</g>
</g>
</svg>
