<?xml version="1.0" encoding="utf-8"?>
<!-- Generator: Adobe Illustrator 15.0.2, SVG Export Plug-In . SVG Version: 6.00 Build 0)  -->
<!DOCTYPE svg PUBLIC "-//W3C//DTD SVG 1.1//EN" "http://www.w3.org/Graphics/SVG/1.1/DTD/svg11.dtd">
<svg version="1.1" id="Layer_1" xmlns="http://www.w3.org/2000/svg" xmlns:xlink="http://www.w3.org/1999/xlink" x="0px" y="0px"
	 width="32px" height="32px" viewBox="0 0 32 32" enable-background="new 0 0 32 32" xml:space="preserve">
<g id="Foreground1">
</g>
<path fill="#FFFFFF" d="M16.002,32C7.166,32,0.001,24.835,0.001,16.002C0.001,7.168,7.167,0,16.002,0
	c8.833,0,15.997,7.167,15.997,16.002C31.999,24.835,24.836,32,16.002,32z M16.002,0.604C7.499,0.604,0.606,7.5,0.606,16.002
	c0,8.499,6.894,15.392,15.396,15.392c8.5,0,15.396-6.893,15.396-15.392C31.396,7.499,24.502,0.604,16.002,0.604z M16.002,30.791
	c-8.168,0-14.792-6.625-14.792-14.789C1.21,7.833,7.833,1.21,16.002,1.21c8.165,0,14.79,6.623,14.79,14.792
	C30.792,24.166,24.167,30.791,16.002,30.791z M16.002,1.813c-7.833,0-14.188,6.356-14.188,14.189
	c0,7.834,6.354,14.186,14.188,14.186c7.833,0,14.184-6.352,14.184-14.186C30.188,8.168,23.835,1.813,16.002,1.813z M16.002,29.581
	c-7.5,0-13.582-6.08-13.582-13.579S8.502,2.419,16.002,2.419c7.499,0,13.58,6.084,13.58,13.583S23.501,29.581,16.002,29.581z
	 M16.002,3.021C8.836,3.021,3.026,8.836,3.026,16s5.81,12.976,12.976,12.976c7.167,0,12.974-5.812,12.974-12.976
	S23.169,3.021,16.002,3.021z M16.002,28.371c-6.831,0-12.373-5.543-12.373-12.369c0-6.833,5.542-12.374,12.373-12.374
	c6.83,0,12.369,5.541,12.369,12.374C28.371,22.828,22.832,28.371,16.002,28.371z M16.002,4.234c-6.498,0-11.767,5.27-11.767,11.768
	c0,6.495,5.269,11.764,11.767,11.764c6.496,0,11.765-5.269,11.765-11.764C27.768,9.503,22.498,4.234,16.002,4.234z M16.002,27.162
	c-6.163,0-11.162-5-11.162-11.16c0-6.163,5-11.164,11.162-11.164c6.165,0,11.159,5.001,11.159,11.164
	C27.161,22.162,22.167,27.162,16.002,27.162z M16.002,5.443c-5.83,0-10.558,4.727-10.558,10.559c0,5.826,4.728,10.554,10.558,10.554
	c5.828,0,10.554-4.728,10.554-10.554C26.557,10.17,21.83,5.443,16.002,5.443z M16.002,25.952c-5.496,0-9.952-4.456-9.952-9.95
	c0-5.498,4.457-9.955,9.952-9.955c5.493,0,9.95,4.457,9.95,9.955C25.952,21.496,21.495,25.952,16.002,25.952z M16.002,6.654
	c-5.161,0-9.348,4.188-9.348,9.348c0,5.159,4.188,9.344,9.348,9.344s9.342-4.185,9.342-9.344
	C25.345,10.842,21.162,6.654,16.002,6.654z M16.002,24.743c-4.828,0-8.741-3.916-8.741-8.741c0-4.829,3.913-8.745,8.741-8.745
	c4.826,0,8.74,3.916,8.74,8.745C24.742,20.827,20.828,24.743,16.002,24.743z M16.002,7.863c-4.493,0-8.138,3.646-8.138,8.139
	c0,4.49,3.646,8.134,8.138,8.134s8.133-3.644,8.133-8.134C24.136,11.509,20.495,7.863,16.002,7.863z M16.002,23.531
	c-4.158,0-7.532-3.373-7.532-7.529c0-4.162,3.374-7.531,7.532-7.531c4.157,0,7.531,3.369,7.531,7.531
	C23.533,20.158,20.159,23.531,16.002,23.531z M16.002,9.073c-3.826,0-6.927,3.101-6.927,6.929c0,3.824,3.101,6.926,6.927,6.926
	c3.823,0,6.925-3.102,6.925-6.926C22.928,12.174,19.825,9.073,16.002,9.073z M16.002,22.321c-3.491,0-6.322-2.83-6.322-6.319
	c0-3.493,2.831-6.322,6.322-6.322c3.49,0,6.32,2.829,6.32,6.322C22.322,19.491,19.492,22.321,16.002,22.321z M16.002,10.282
	c-3.158,0-5.717,2.562-5.717,5.72s2.559,5.717,5.717,5.717c3.157,0,5.715-2.559,5.715-5.717S19.159,10.282,16.002,10.282z
	 M16.002,21.111c-2.823,0-5.112-2.289-5.112-5.109c0-2.823,2.29-5.113,5.112-5.113s5.109,2.29,5.109,5.113
	C21.111,18.822,18.825,21.111,16.002,21.111z M16.002,11.491c-2.488,0-4.506,2.019-4.506,4.511c0,2.485,2.018,4.507,4.506,4.507
	c2.487,0,4.505-2.021,4.505-4.507C20.508,13.51,18.489,11.491,16.002,11.491z M16.002,19.902c-2.155,0-3.903-1.747-3.903-3.9
	c0-2.157,1.748-3.903,3.903-3.903c2.154,0,3.899,1.746,3.899,3.903C19.901,18.155,18.156,19.902,16.002,19.902z M16.002,12.701
	c-1.823,0-3.297,1.478-3.297,3.301c0,1.819,1.474,3.294,3.297,3.294c1.82,0,3.295-1.475,3.295-3.294
	C19.298,14.179,17.822,12.701,16.002,12.701z M16.002,18.692c-1.487,0-2.693-1.206-2.693-2.69c0-1.487,1.206-2.694,2.693-2.694
	c1.485,0,2.691,1.207,2.691,2.694C18.693,17.486,17.487,18.692,16.002,18.692z M16.002,13.911c-1.153,0-2.089,0.938-2.089,2.091
	s0.936,2.085,2.089,2.085c1.152,0,2.086-0.932,2.086-2.085S17.154,13.911,16.002,13.911z M16.002,17.483
	c-0.82,0-1.485-0.666-1.485-1.481c0-0.818,0.665-1.485,1.485-1.485c0.819,0,1.48,0.667,1.48,1.485
	C17.482,16.817,16.821,17.483,16.002,17.483z M16.002,15.124c-0.485,0-0.877,0.391-0.877,0.878c0,0.483,0.392,0.875,0.877,0.875
	c0.484,0,0.877-0.392,0.877-0.875C16.88,15.515,16.486,15.124,16.002,15.124z"/>
</svg>
