<?xml version="1.0" encoding="utf-8"?>
<!-- Generator: Adobe Illustrator 15.0.2, SVG Export Plug-In . SVG Version: 6.00 Build 0)  -->
<!DOCTYPE svg PUBLIC "-//W3C//DTD SVG 1.1//EN" "http://www.w3.org/Graphics/SVG/1.1/DTD/svg11.dtd">
<svg version="1.1" id="Layer_1" xmlns="http://www.w3.org/2000/svg" xmlns:xlink="http://www.w3.org/1999/xlink" x="0px" y="0px"
	 width="32px" height="32px" viewBox="0 0 32 32" enable-background="new 0 0 32 32" xml:space="preserve">
<g id="Foreground1">
</g>
<path fill="#FFFFFF" d="M16,32C7.163,32-0.001,24.835-0.001,16C-0.001,7.163,7.164,0,16,0c8.838,0,16.002,7.163,16.002,16
	C32.002,24.835,24.838,32,16,32z M16,1.607C8.051,1.607,1.609,8.051,1.609,16c0,7.946,6.441,14.391,14.391,14.391
	c7.948,0,14.391-6.442,14.391-14.391S23.947,1.607,16,1.607z M16,25.963c-5.502,0-9.963-4.462-9.963-9.963
	c0-5.503,4.46-9.966,9.963-9.966c5.502,0,9.963,4.463,9.963,9.966C25.963,21.501,21.502,25.963,16,25.963z M16,7.039
	c-4.948,0-8.96,4.009-8.96,8.961c0,4.949,4.013,8.959,8.96,8.959c4.95,0,8.961-4.01,8.961-8.959
	C24.961,11.048,20.949,7.039,16,7.039z M16,21.132c-2.835,0-5.132-2.3-5.132-5.132c0-2.835,2.297-5.134,5.132-5.134
	c2.834,0,5.133,2.299,5.133,5.134C21.133,18.832,18.834,21.132,16,21.132z M16,11.382c-2.549,0-4.616,2.067-4.616,4.618
	c0,2.546,2.067,4.616,4.616,4.616c2.549,0,4.618-2.07,4.618-4.616C20.617,13.449,18.549,11.382,16,11.382z M16,20.001
	c-2.209,0-4.001-1.792-4.001-4.001c0-2.211,1.792-4.003,4.001-4.003c2.209,0,4,1.792,4,4.003C20,18.209,18.209,20.001,16,20.001z
	 M16,12.402c-1.987,0-3.599,1.607-3.599,3.598c0,1.985,1.609,3.596,3.599,3.596c1.989,0,3.598-1.608,3.598-3.596
	C19.598,14.012,17.988,12.402,16,12.402z"/>
</svg>
