<?xml version="1.0" encoding="utf-8"?>
<!-- Generator: Adobe Illustrator 15.0.2, SVG Export Plug-In . SVG Version: 6.00 Build 0)  -->
<!DOCTYPE svg PUBLIC "-//W3C//DTD SVG 1.1//EN" "http://www.w3.org/Graphics/SVG/1.1/DTD/svg11.dtd">
<svg version="1.1" id="Layer_1" xmlns="http://www.w3.org/2000/svg" xmlns:xlink="http://www.w3.org/1999/xlink" x="0px" y="0px"
	 width="32px" height="32px" viewBox="0 0 32 32" enable-background="new 0 0 32 32" xml:space="preserve">
<g id="Foreground1">
</g>
<path fill="#FFFFFF" d="M15.831,31.999c-8.823-0.084-15.914-7.345-15.83-16.167C0.084,7.008,7.345-0.083,16.169,0.001
	c8.824,0.126,15.914,7.345,15.83,16.169C31.915,24.993,24.653,32.084,15.831,31.999z M16.127,2.491
	C8.654,2.407,2.532,8.402,2.45,15.874c-0.087,7.473,5.953,13.593,13.381,13.677c7.473,0.084,13.635-5.952,13.678-13.381
	C29.593,8.698,23.598,2.534,16.127,2.491z M15.874,28.496c-6.881-0.085-12.453-5.741-12.37-12.622
	C3.59,8.994,9.247,3.42,16.127,3.505c6.881,0.083,12.454,5.741,12.368,12.622S22.753,28.581,15.874,28.496z M16.085,5.447
	c-5.826-0.084-10.598,4.602-10.68,10.469c-0.043,5.827,4.643,10.596,10.469,10.681c5.824,0.042,10.637-4.645,10.679-10.47
	C26.639,10.302,21.951,5.489,16.085,5.447z M15.874,25.753c-5.362-0.085-9.668-4.476-9.625-9.837
	c0.084-5.361,4.475-9.709,9.836-9.625c5.36,0.041,9.709,4.475,9.624,9.835C25.668,21.488,21.276,25.794,15.874,25.753z M16.085,7.77
	c-4.561-0.043-8.274,3.631-8.316,8.146c-0.042,4.56,3.592,8.274,8.146,8.316c4.518,0.042,8.274-3.59,8.316-8.147
	C24.274,11.566,20.602,7.811,16.085,7.77z M15.915,23.515c-4.135-0.042-7.47-3.461-7.43-7.599c0.043-4.136,3.463-7.43,7.6-7.389
	c4.137,0.043,7.43,3.42,7.387,7.558S20.052,23.557,15.915,23.515z M16.042,9.668c-3.461-0.042-6.331,2.787-6.373,6.29
	c-0.043,3.462,2.743,6.332,6.246,6.374c3.504,0.042,6.374-2.744,6.418-6.247C22.375,12.582,19.546,9.71,16.042,9.668z
	 M15.915,21.656c-3.123,0-5.613-2.574-5.571-5.698c0-3.124,2.575-5.656,5.698-5.615c3.124,0.042,5.656,2.618,5.615,5.742
	C21.614,19.208,19.081,21.699,15.915,21.656z M16.042,11.229c-2.659-0.041-4.813,2.069-4.855,4.729c0,2.66,2.111,4.813,4.771,4.854
	c2.617,0,4.813-2.11,4.813-4.771C20.813,13.426,18.702,11.229,16.042,11.229z"/>
</svg>
