<?xml version="1.0" encoding="utf-8"?>
<!-- Generator: Adobe Illustrator 15.0.2, SVG Export Plug-In . SVG Version: 6.00 Build 0)  -->
<!DOCTYPE svg PUBLIC "-//W3C//DTD SVG 1.1//EN" "http://www.w3.org/Graphics/SVG/1.1/DTD/svg11.dtd">
<svg version="1.1" id="Layer_1" xmlns="http://www.w3.org/2000/svg" xmlns:xlink="http://www.w3.org/1999/xlink" x="0px" y="0px"
	 width="32px" height="32px" viewBox="0 0 32 32" enable-background="new 0 0 32 32" xml:space="preserve">
<g id="Foreground1">
</g>
<path fill="#FFFFFF" d="M16,32C7.201,32,0,24.801,0,16C0,7.158,7.2,0,16,0c8.842,0,16,7.158,16,16C32,24.801,24.842,32,16,32z
	 M16,3.199c-7.074,0-12.799,5.726-12.799,12.8C3.201,23.072,8.926,28.8,16,28.8s12.801-5.729,12.801-12.801
	C28.801,8.925,23.074,3.199,16,3.199z M16.252,26.82c-5.852,0-10.609-4.758-10.609-10.611c0-5.811,4.759-10.568,10.609-10.568
	c5.812,0,10.568,4.758,10.568,10.568C26.82,22.063,22.063,26.82,16.252,26.82z M16.252,8.799c-4.126,0-7.452,3.326-7.452,7.41
	c0,4.126,3.326,7.453,7.452,7.453c4.085,0,7.41-3.326,7.41-7.453C23.662,12.125,20.338,8.799,16.252,8.799z M16.252,22.146
	c-3.284,0-5.937-2.652-5.937-5.938c0-3.241,2.651-5.938,5.937-5.938c3.242,0,5.938,2.695,5.938,5.938
	C22.189,19.494,19.494,22.146,16.252,22.146z"/>
</svg>
