<?xml version="1.0" encoding="utf-8"?>
<!-- Generator: Adobe Illustrator 15.0.2, SVG Export Plug-In . SVG Version: 6.00 Build 0)  -->
<!DOCTYPE svg PUBLIC "-//W3C//DTD SVG 1.1//EN" "http://www.w3.org/Graphics/SVG/1.1/DTD/svg11.dtd">
<svg version="1.1" id="Layer_2" xmlns="http://www.w3.org/2000/svg" xmlns:xlink="http://www.w3.org/1999/xlink" x="0px" y="0px"
	 width="32px" height="32px" viewBox="0 0 32 32" enable-background="new 0 0 32 32" xml:space="preserve">
<path fill="#FFFFFF" d="M-0.001,13.912l11.706,0.333L9.7,13.735l1.485-0.038l-1.257-0.569l0.872-0.066l-5.245-2.179L1.16,8.45
	l5.907,1.932L6.557,9.551L2.619,6.555L3.45,6.188l7.961,4.996l0.158-0.25L7.351,6.67l0.162-0.675l3.86,3.403L5.507,1.592l4.688,5
	l0.529-0.094l1.522,1.628l-2.723-6l0.93,0.396l0.326-0.908l0.396-0.911l3.703,9.911l-1.063-5.168l0.386-0.43l1.249,5.285L14.694,0
	l1.152,9.559L16.1,5.111l0.597-3.793l0.414,2.197l-0.113,4.637l-0.046,1.964l2.536-9.935l0.183,1.92l0.584,0.188l1.289-1.627
	l-0.89,3.744l1.675-2.164l-0.272,1.817l-2.357,4.856l5.77-7.706l0.659,0.465l1.027,0.042l-7.192,8.863l7.568-6.888l-7.247,7.354
	l-1.609,1.62L28.76,5.743l-2.935,2.792l-2.17,1.896l6.273-2.648L28.38,9.307l-6.411,3.152l4.976-1.26l5.057-0.734l-11.409,3.259
	l3.146-0.247l-1.521,0.563l-1.753,0.407l-0.42,0.229l3.64,0.365l5.187,0.874l0.881,0.759l-10.013-1.269l10.101,2.717l-6.711-1.305
	l6.891,2.864l-9.028-2.975l4.327,2.349l-1.021,0.021l-1.979-0.663l-3.095-1.652l6.677,5.229l-2.446-1.231l1.218,1.762l-5.739-4.979
	l0.472,0.824l7.581,9.756l-2.485-1.949l-0.828,0.021l-1.305-0.874l-3.869-6.063l-0.165,0.228l0.051,0.791l-0.374-0.188l0.188,1.574
	l1.491,7.528l-1.247-2.606l-0.328,1.854L17.66,30.88l-1.015-5.031l-0.535-4.227L15.333,32l0.135-10.361l-0.835,3.789l0.162-3.711
	l-0.71,1.582l-0.151-0.982l-0.447,0.172l-2.532,5.457l3.822-10.257l-4.353,8.331l-1.472,1.401l3.476-6.854l-5.899,7.884l1.266-2.989
	l-2.031,1.345l6.002-7.521l-7.496,6.768L8.717,21.1l-1.784,0.774l0.032-0.747l4.443-3.485l-2.55,1.11L3.785,20.82l-2.659,0.407
	l4.092-2.434l7.776-3.115l-7.45,1.802l-2.282-0.1l-2.886-0.244l7.567-1.611l0.938-0.47l-1.523-0.375L-0.001,13.912z"/>
</svg>
