<?xml version="1.0" encoding="utf-8"?>
<!-- Generator: Adobe Illustrator 15.0.2, SVG Export Plug-In . SVG Version: 6.00 Build 0)  -->
<!DOCTYPE svg PUBLIC "-//W3C//DTD SVG 1.1//EN" "http://www.w3.org/Graphics/SVG/1.1/DTD/svg11.dtd">
<svg version="1.1" id="Layer_2" xmlns="http://www.w3.org/2000/svg" xmlns:xlink="http://www.w3.org/1999/xlink" x="0px" y="0px"
	 width="32px" height="32px" viewBox="0 0 32 32" enable-background="new 0 0 32 32" xml:space="preserve">
<g>
	<polygon fill="#FFFFFF" points="16.001,16.001 18.017,7.758 16.001,4.121 13.981,7.758 	"/>
	<polygon fill="#FFFFFF" points="17.712,4.102 17.712,0 16.001,2.82 14.287,0 14.287,4.102 	"/>
	<polygon fill="#FFFFFF" points="10.553,6.005 10.259,10.021 6.698,6.674 7.989,1.291 13.024,2.795 13.975,7.743 	"/>
	<polygon fill="#FFFFFF" points="16.001,16.001 23.73,13.736 25.685,10.063 21.711,10.023 	"/>
	<polygon fill="#FFFFFF" points="26.559,11.626 29.902,9.575 26.748,9.41 28.19,6.427 24.846,8.479 	"/>
	<polygon fill="#FFFFFF" points="21.427,5.994 18.006,7.73 18.956,2.783 23.99,1.277 25.281,6.661 21.722,10.01 	"/>
	<polygon fill="#FFFFFF" points="16.001,16.001 21.711,21.979 25.685,21.939 23.73,18.268 	"/>
	<polygon fill="#FFFFFF" points="24.846,23.524 28.19,25.575 26.748,22.592 29.902,22.427 26.559,20.376 	"/>
	<polygon fill="#FFFFFF" points="26.873,15.988 23.746,13.711 28.256,12.11 32,15.988 28.256,19.868 23.746,18.268 	"/>
	<polygon fill="#FFFFFF" points="16.001,16.001 13.981,24.243 16.001,27.881 18.017,24.243 	"/>
	<polygon fill="#FFFFFF" points="14.287,27.9 14.287,32 16.001,29.182 17.712,32 17.712,27.9 	"/>
	<polygon fill="#FFFFFF" points="21.445,25.996 21.739,21.981 25.301,25.33 24.01,30.711 18.975,29.208 18.024,24.26 	"/>
	<polygon fill="#FFFFFF" points="16.001,16.001 8.27,18.268 6.313,21.939 10.287,21.979 	"/>
	<polygon fill="#FFFFFF" points="5.439,20.376 2.097,22.427 5.251,22.592 3.808,25.575 7.153,23.524 	"/>
	<polygon fill="#FFFFFF" points="10.571,26.009 13.993,24.271 13.043,29.219 8.01,30.723 6.719,25.341 10.277,21.993 	"/>
	<polygon fill="#FFFFFF" points="16.001,16.001 10.287,10.023 6.313,10.063 8.27,13.736 	"/>
	<polygon fill="#FFFFFF" points="7.153,8.479 3.808,6.426 5.251,9.41 2.097,9.575 5.439,11.626 	"/>
	<polygon fill="#FFFFFF" points="5.126,16.014 8.254,18.292 3.742,19.892 0,16.014 3.742,12.134 8.254,13.734 	"/>
</g>
</svg>
