<?xml version="1.0" encoding="utf-8"?>
<!-- Generator: Adobe Illustrator 15.0.2, SVG Export Plug-In . SVG Version: 6.00 Build 0)  -->
<!DOCTYPE svg PUBLIC "-//W3C//DTD SVG 1.1//EN" "http://www.w3.org/Graphics/SVG/1.1/DTD/svg11.dtd">
<svg version="1.1" id="Layer_2" xmlns="http://www.w3.org/2000/svg" xmlns:xlink="http://www.w3.org/1999/xlink" x="0px" y="0px"
	 width="32px" height="32px" viewBox="0 0 32 32" enable-background="new 0 0 32 32" xml:space="preserve">
<g>
	<polygon fill="#FFFFFF" points="22.897,30.658 20.601,32 15.993,29.311 11.418,31.982 9.148,30.688 9.148,28.004 13.753,25.315 
		13.753,19.975 15.998,18.634 18.295,19.975 18.295,25.352 22.871,28.021 	"/>
	<polygon fill="#FFFFFF" points="6.898,29.344 4.602,28.003 4.602,22.626 0.025,19.956 0,17.319 2.297,15.979 6.902,18.667 
		11.479,15.996 13.749,17.29 13.749,19.973 9.144,22.662 9.144,28.003 	"/>
	<polygon fill="#FFFFFF" points="0.01,14.698 0.01,12.015 4.615,9.326 4.615,3.984 6.859,2.643 9.157,3.984 9.157,9.361 
		13.732,12.032 13.759,14.669 11.46,16.008 6.856,13.321 2.28,15.992 	"/>
	<polygon fill="#FFFFFF" points="9.11,1.341 11.407,0 16.013,2.688 20.589,0.018 22.858,1.313 22.86,3.993 18.254,6.684 
		18.254,12.025 16.01,13.365 13.712,12.025 13.712,6.646 9.136,3.977 	"/>
	<polygon fill="#FFFFFF" points="25.101,2.632 27.396,3.973 27.396,9.35 31.974,12.021 32,14.657 29.702,15.997 25.097,13.309 
		20.522,15.979 18.251,14.686 18.251,12.003 22.856,9.314 22.856,3.973 	"/>
	<polygon fill="#FFFFFF" points="31.99,17.278 31.99,19.961 27.385,22.648 27.385,27.991 25.14,29.332 22.844,27.991 22.844,22.614 
		18.268,19.943 18.241,17.308 20.538,15.968 25.144,18.655 29.72,15.984 	"/>
</g>
</svg>
