<?xml version="1.0" encoding="utf-8"?>
<!-- Generator: Adobe Illustrator 15.0.0, SVG Export Plug-In  -->
<!DOCTYPE svg PUBLIC "-//W3C//DTD SVG 1.1//EN" "http://www.w3.org/Graphics/SVG/1.1/DTD/svg11.dtd" [
	<!ENTITY ns_flows "http://ns.adobe.com/Flows/1.0/">
]>
<svg version="1.1"
	 xmlns="http://www.w3.org/2000/svg" xmlns:xlink="http://www.w3.org/1999/xlink" xmlns:a="http://ns.adobe.com/AdobeSVGViewerExtensions/3.0/"
	 x="0px" y="0px" width="142px" height="142px" viewBox="0 0.07 142 142" enable-background="new 0 0.07 142 142"
	 xml:space="preserve">
<defs>
</defs>
<path fill="#FFFFFF" d="M70.9,0C31.804,0,0,31.807,0,70.904c0,39.092,31.804,70.896,70.9,70.896c39.093,0,70.9-31.805,70.9-70.896
	C141.8,31.807,109.993,0,70.9,0z M47.617,84.885H25.459V60.881h3.201v21.19h18.957V84.885z M72.05,84.885h-4.942L53.567,60.881
	h3.535l11.887,21.067h1.125l11.624-21.067h3.57L72.05,84.885z M119.572,84.885H97.415V60.881h3.2v21.19h18.957V84.885z"/>
</svg>
